<?xml version="1.0" encoding="utf-8"?>
<!-- Generator: Adobe Illustrator 17.0.0, SVG Export Plug-In . SVG Version: 6.00 Build 0)  -->
<!DOCTYPE svg PUBLIC "-//W3C//DTD SVG 1.1//EN" "http://www.w3.org/Graphics/SVG/1.1/DTD/svg11.dtd">
<svg version="1.1" id="Layer_1" xmlns="http://www.w3.org/2000/svg" xmlns:xlink="http://www.w3.org/1999/xlink" x="0px" y="0px"
	 width="256px" height="256px" viewBox="0 0 256 256" enable-background="new 0 0 256 256" xml:space="preserve">
<path fill="#FFFFFF" d="M192.1,10.3c-17.1,0-32.4,8-42.3,20.6h-0.3v0.3c-7.1,9.1-11.4,20.6-11.4,33c0,29.7,24.2,53.9,53.9,53.9
	s54-24.2,54-53.9S221.9,10.3,192.1,10.3z"/>
<path d="M192,10.3c-17.1,0-32.4,8-42.3,20.6h-0.3v0.3c-7.1,9.1-11.4,20.6-11.4,33c0,29.7,24.2,53.9,53.9,53.9s53.9-24.2,53.9-53.9
	S221.7,10.3,192,10.3z M208.6,100.9l-23.1-3L183.7,78l17.6-10.7L217,82.4L208.6,100.9z M171.2,103.3L151.9,89l-2.1-14.7l11.8-7.4
	L181.5,78l1.9,20.2L171.2,103.3z M149.1,72.2L142,57.4l9.3-15.3l9.7,2l-0.2,20.8L149.1,72.2z M188.3,19l21.3,2.9l7.3,13.6l-16.1,7.9
	l-16.5-11.5L188.3,19z M231.4,74.4l-12.6,6.7l-16.9-16.2l0.2-19.7l16-7.9L232.3,50L231.4,74.4z M233.5,74.9l1-24.5l7.1-0.9
	c1.4,4.7,2.1,9.6,2.1,14.7c0,4.6-0.6,9-1.7,13.2L233.5,74.9z M240.9,47.4l-7.1,0.9l-14.6-13.1L212,21.9l6.1-2.4
	C228.7,25.7,236.9,35.6,240.9,47.4z M178.8,14.2l7.4,4.1L182,32.1L162.3,42l-10.5-2.1l-0.2-8.1C158.5,23.4,167.9,17,178.8,14.2z
	 M149.7,40.5l-8.5,14.1c1.4-7.3,4.3-14.1,8.4-20L149.7,40.5z M140.5,59.2l7.1,14.9l2.1,14.8l-2.9,0.4c-4.1-7.4-6.5-16-6.5-25.1
	C140.3,62.5,140.4,60.8,140.5,59.2z M172.4,112.1l-0.2-6.8l12.5-5.3l23.9,3.1l4.4,8.4c-6.4,2.9-13.5,4.5-21,4.5
	C185.1,115.9,178.5,114.5,172.4,112.1z"/>
<g>
	<path fill="#FCFF00" stroke="#000000" stroke-miterlimit="10" d="M146.2,157.8c0,0,0,1.3,1.1,1.6c1.1,0.2,1.5-1.5,1.5-2
		c26.1-1.1,26.6-22.9,26.6-31.4s-3.9-17.6-10.6-17.6c-6.7,0-10.3,8-10.3,8v-2h-54v2c0,0-3-8-9.7-8s-10.3,9.1-10.3,17.6
		s0.6,30.2,26.8,31.4c0,0.5,0.4,2.1,1.5,2c1.1-0.3,1.2-1.6,1.2-1.6s4.8,5.4,10,5.7c0,2.8-0.2,6.7-0.2,6.7s1.8,2.8,3.8,2.9
		c0,0.7,0,1.5,0,1.5s-2.9,1.6-2.9,3.6s2.9,4.2,2.9,4.2v2.6c0,0-4,1.1-5,1.5c0,1.1,0,5.1,0,5.1l-2,1.6v4.2h-6v6h-1v11h-2v2.6
		c0,0-4-0.3-4,4.1s0,22.3,0,22.3h-1.2c0,0-4.2,4-2.5,11c6.5,0,50,0,56.5,0c1.8-7-2.5-11-2.5-11h-3.4c0,0,0-17.9,0-22.3s-2-4.1-2-4.1
		v-2.6h-4v-11h-2v-6h-4v-4.2l-2-1.6c0,0,0-3.9,0-5.1c0-0.3-4-1.5-4-1.5v-2.6c0,0,2.9-2.3,2.9-4.2s-2.9-3.6-2.9-3.6s0-0.8,0-1.5
		c3-0.2,3.8-2.9,3.8-2.9s-0.2-3.9-0.2-6.7C141.4,163.2,146.2,157.8,146.2,157.8z M154,123c1.6,0.2,2.6-1.4,1.6-4
		c0,0,3.8-7.2,8.2-7.4c4.4-0.2,7.6,3.8,8.4,16.8c1.2,26.8-22.4,27.4-24.8,27.4C154.6,145.6,154,123,154,123z M84,128.4
		c0.8-13,4-17,8.4-16.8s8.2,7.4,8.2,7.4c-1,2.6,0,4.2,1.6,4c0,0-0.6,22.6,6.6,32.8C106.4,155.8,82.8,155.2,84,128.4z"/>
	<path fill="#FFFFFF" d="M142.8,117h-19.6c0,0,1.6,22.9,2.8,28.3s11.6,5.7,13.4-1.3C141.2,137,142,120,142.8,117z"/>
	<polygon fill="#FFFFFF" points="127,165 133.3,165 133.2,171 127,171 	"/>
	<rect x="127" y="177" fill="#FFFFFF" width="4" height="2"/>
	<rect x="127" y="183" fill="#FFFFFF" width="4" height="2"/>
	<rect x="127" y="187" fill="#FFFFFF" width="6" height="5"/>
	<rect x="127" y="194" fill="#FFFFFF" width="7" height="3"/>
	<rect x="127" y="203" fill="#FFFFFF" width="9" height="2"/>
	<rect x="127" y="218" fill="#FFFFFF" width="12" height="2"/>
	<path fill="#FF9F00" d="M110,137.4c0.8,6.6,3.7,18.3,15,20.2c0.9,0.3-0.3,2.8-5.8,2.2s-12.2-7.1-13-22.4c0-3.9,1.6-4.9,1.6-4.9
		S110,133,110,137.4z"/>
	<path fill="#ABD100" d="M132,160c0,0,13.7-3.3,13.6-29.5c0-3.9,4.3-3.6,4.3-0.2C149.8,133.9,150.8,164.3,132,160z"/>
	<path fill="#FF9F00" d="M108,243v-22c0,0,0-1.7,1.3-1.7c2,0,1.7,0.9,1.7,2s0,21.7,0,21.7H108z"/>
	<path fill="#ABD100" d="M141,243c0,0,0-20.6,0-22s0.5-2.1,2.5-2.1s3.5,1.4,3.5,2.4s0,21.7,0,21.7L141,243L141,243z"/>
	<rect x="110.3" y="215.2" fill="#FF9F00" width="1.9" height="1.9"/>
	<rect x="111" y="204" fill="#FF9F00" width="4" height="10"/>
	<rect x="115" y="198" fill="#FF9F00" width="2" height="5"/>
	<rect x="118" y="194" fill="#FF9F00" width="3" height="3"/>
	<rect x="134" y="194" fill="#ABD100" width="2" height="3"/>
	<rect x="136" y="198" fill="#ABD100" width="3" height="4"/>
	<rect x="137" y="204" fill="#ABD100" width="6" height="10"/>
	<rect x="139" y="214" fill="#ABD100" width="4" height="3"/>
	<rect x="122" y="187" fill="#FF9F00" width="2" height="3"/>
	<rect x="133" y="187" fill="#ABD100" width="3" height="5"/>
	<path fill="#FF9F00" d="M121.2,168.1c0,0,0.2,1.5,1.3,2.4c0.6,0.5,1.3,1,2.8,0.6c-2.9,2.1-4.3-1-4.3-1S121,169.4,121.2,168.1z"/>
	<path fill="#FF9F00" d="M125.9,181.2c0,0-2-0.5-2.5-2.2c-0.6-0.8-2-0.2-1.7,0.6S122.8,181.4,125.9,181.2z"/>
	<path fill="#ABD100" d="M130.5,181.1c0,0,2-0.3,2.2-1.7s1.7-0.9,1.7,0.2C134.3,180.6,131.6,181.1,130.5,181.1z"/>
	<path fill="#ABD100" d="M131.7,172.1c0,0,1.6-0.2,1.6-2.2c0-1.3,1.7-1.4,1.8-0.1C135.1,171.2,132.8,172.4,131.7,172.1z"/>
	<line fill="none" stroke="#000000" stroke-miterlimit="10" x1="111" y1="203.5" x2="143" y2="203.5"/>
	<line fill="none" stroke="#000000" stroke-miterlimit="10" x1="116" y1="197.5" x2="138" y2="197.5"/>
	<line fill="none" stroke="#000000" stroke-miterlimit="10" x1="118" y1="192.5" x2="136" y2="192.5"/>
	<line fill="none" stroke="#000000" stroke-miterlimit="10" x1="119" y1="187.5" x2="136" y2="187.5"/>
	<line fill="none" stroke="#000000" stroke-miterlimit="10" x1="124" y1="181.5" x2="133" y2="181.5"/>
	<line fill="none" stroke="#000000" stroke-miterlimit="10" x1="124" y1="173.5" x2="132" y2="173.5"/>
	<line fill="none" stroke="#000000" stroke-miterlimit="10" x1="120" y1="164.5" x2="136" y2="164.5"/>
	<line fill="none" stroke="#000000" stroke-miterlimit="10" x1="110" y1="214.5" x2="145" y2="214.5"/>
	<line fill="none" stroke="#000000" stroke-miterlimit="10" x1="104" y1="243.5" x2="151" y2="243.5"/>
</g>
<g>
	<g>
		<ellipse fill="#FF0000" stroke="#000000" stroke-miterlimit="10" cx="191.6" cy="65.2" rx="40.8" ry="40.6"/>
	</g>
	<g>
		<g>
			<path fill="#FFFFFF" d="M224.3,65.5c-0.4,1.2-0.5,2.5-1.1,3.7c-2.5,5.1-8,6.5-13.4,3.6c-5.2-2.7-8.7-7-11.5-12
				c-4.8-8.7-7.2-18-7.3-27.9c1.3,0,2.6,0,3.9,0c0.8,0.8,1.9,0.7,2.9,0.8c2,0.1,3.2,0.7,3.4,3.1c0.4,5,1.6,10,3.3,14.7
				c1.9,5.2,4.7,9.7,8.6,13.6c0.8-0.9,0.8-1.7,0.8-2.6c-0.1-9-3.2-17.1-7.1-25.3c0.6,0.1,0.9,0.1,1.1,0.2c0.6,0.3,1.1,0.6,1.7,1
				c4.3,2.9,7.4,6.8,9.9,11.3c2.6,4.6,3.8,9.7,4.6,14.9C224.3,64.7,224.3,65.1,224.3,65.5z"/>
			<path fill="#FFFFFF" d="M157.9,62.1c1.1-1.8,0.9-4,1.6-5.9c2.6-7.8,7.1-14.2,13.8-18.9c3.4-2.4,7-3.4,10.7-1
				c3.8,2.4,4.7,6.4,4.4,10.6c-0.6,10-6.2,17.4-12.8,24.3c-3.1,3.2-6.6,6.1-10.3,8.7c-1.3,0.9-2.2,0.8-2.8-0.6
				c-0.2-0.4-0.5-0.8-0.7-1.2c-3-5.4-3-5.7,1.8-9.4c7-5.5,12.6-12,15.6-20.5c0.3-0.7,1.1-1.6,0.3-2.3s-1.6,0.3-2.2,0.7
				c-7.1,4-12.3,10-17,16.5c-0.6,0.9-1,2.1-2.4,2C157.9,64,157.9,63,157.9,62.1z"/>
			<path fill="#FFFFFF" d="M207.2,92.7c-7.3,4.9-15.3,5.4-23.5,3.9c-2.8-0.5-5.5-1.3-8-2.6c-7.8-3.9-8.3-11.5-1.2-16.6
				c3.5-2.5,7.6-3.7,11.8-4c10.6-0.8,20.6,1.7,30.2,6.1c1.9,0.9,1.9,1.7,0.9,3.3c-3.7,6.1-3.6,6.2-10.1,3.7c-7.9-3-16-4.7-24.5-3.2
				c-0.9,0.2-2.4-0.2-2.6,1.1c-0.2,1,1.2,1.3,2,1.7c7.3,4.3,15.4,5.5,23.7,6.3C206.3,92.6,206.8,92.7,207.2,92.7z"/>
		</g>
	</g>
</g>
<g>
	<g>
		<g>
			<path fill="#FFFF00" d="M49.336,208.313h-7.17l-0.691-5.165h-2.03l-0.625,5.165h-7.303l4.557-31.952h8.414L49.336,208.313z
				 M44.792,205.313h1.056l-3.938-25.952h-3.232l-3.701,25.952h1.186l0.625-5.165h7.314L44.792,205.313z M44.042,199.611h-7.191
				l2.144-17.542H41.7L44.042,199.611z M40.239,196.611h0.375l-0.196-1.468L40.239,196.611z"/>
		</g>
		<g>
			<path fill="#FFFF00" d="M56.664,208.643c-2.699,0-4.73-0.825-6.038-2.452c-1.247-1.548-1.853-3.776-1.853-6.812v-23.033h7.409
				v22.951c0,1.782,0.104,2.208,0.115,2.251c0.044,0.095,0.104,0.208,0.175,0.32c0.108,0.008,0.328,0.006,0.401-0.008
				c0.089-0.15,0.147-0.351,0.174-0.597c0.055-0.494,0.082-1.156,0.082-1.969v-22.951h7.409v23.033c0,3.047-0.604,5.279-1.845,6.823
				C61.392,207.82,59.363,208.643,56.664,208.643z M51.773,179.345v20.033c0,2.292,0.4,3.951,1.19,4.933
				c0.721,0.896,1.931,1.332,3.701,1.332c1.769,0,2.976-0.433,3.691-1.323c0.786-0.977,1.184-2.64,1.184-4.943v-20.033H60.13v19.951
				c0,0.935-0.033,1.686-0.1,2.295c-0.089,0.815-0.352,1.527-0.783,2.114c-0.393,0.534-1.158,1.172-2.574,1.172
				c-1.128,0-1.954-0.336-2.455-0.998c-0.271-0.357-0.506-0.763-0.697-1.203c-0.203-0.467-0.338-1.22-0.338-3.378v-19.951
				L51.773,179.345L51.773,179.345z"/>
		</g>
		<g>
			<path fill="#FFFF00" d="M72.733,208.64c-2.819,0-4.847-0.967-6.029-2.873c-1.052-1.699-1.563-4.02-1.563-7.096v-4.083h5.326
				l-1.778-1.832c-1.105-1.154-1.977-2.37-2.596-3.62c-0.655-1.321-0.987-2.852-0.987-4.548c0-2.767,0.558-4.814,1.707-6.263
				c1.216-1.533,3.211-2.312,5.93-2.312c2.807,0,4.778,0.933,5.858,2.772c0.941,1.604,1.398,3.792,1.398,6.689v3.293h-4.686
				l1.047,1.134c1.299,1.406,2.297,2.861,2.968,4.324c0.696,1.517,1.049,3.188,1.049,4.969c0,3.053-0.536,5.299-1.638,6.866
				C77.536,207.772,75.515,208.64,72.733,208.64z M68.141,197.588v1.083c0,2.467,0.375,4.323,1.113,5.517
				c0.222,0.358,0.9,1.452,3.479,1.452c1.773,0,2.936-0.427,3.553-1.304c0.724-1.03,1.091-2.76,1.091-5.141
				c0-1.345-0.261-2.596-0.776-3.718c-0.539-1.176-1.361-2.367-2.445-3.54l-2.385-2.583c-0.886-0.946-1.5-1.73-1.868-2.39
				c-0.438-0.784-0.652-1.744-0.652-2.937c0-1.231,0.229-2.179,0.699-2.896c0.577-0.882,1.548-1.368,2.734-1.368
				c1.301,0,2.316,0.678,2.785,1.86c0.319,0.808,0.467,1.942,0.467,3.572v0.571h1.063v-0.293c0-2.316-0.332-4.056-0.985-5.171
				c-0.188-0.318-0.759-1.291-3.271-1.291c-1.756,0-2.96,0.396-3.579,1.176c-0.702,0.885-1.057,2.364-1.057,4.398
				c0,1.23,0.227,2.312,0.675,3.216c0.484,0.978,1.18,1.942,2.068,2.87l2.132,2.196c1.063,1.1,1.858,2.186,2.363,3.229
				c0.536,1.107,0.808,2.398,0.808,3.836c0,1.472-0.161,2.507-0.507,3.26c-0.285,0.625-1.04,1.68-2.868,1.68
				c-1.355,0-2.422-0.691-2.929-1.897c-0.36-0.858-0.528-2.122-0.528-3.978v-1.412h-1.18V197.588z M72.319,196.82V199
				c0,1.909,0.206,2.605,0.294,2.815c0.001,0.069,0.237,0.062,0.336,0.049c0.073-0.21,0.202-0.745,0.202-1.929
				c0-0.981-0.171-1.833-0.508-2.529C72.55,197.215,72.442,197.02,72.319,196.82z M72.695,182.771c-0.208,0-0.261,0.026-0.261,0.026
				c-0.01,0.033-0.183,0.342-0.183,1.231c0,0.817,0.147,1.252,0.27,1.472c0.08,0.143,0.208,0.342,0.415,0.613v-0.916
				C72.936,183.659,72.778,183.007,72.695,182.771z"/>
		</g>
		<g>
			<path fill="#FFFF00" d="M89.476,208.313h-7.392v-25.137h-3.389v-6.815h14.038v6.815h-3.257V208.313z M85.084,205.313h1.392
				v-25.137h3.257v-0.815h-8.038v0.815h3.389V205.313z"/>
		</g>
		<g>
			<path fill="#FFFF00" d="M99.577,208.314h-7.409v-31.952h8.788c1.86,0,3.319,0.421,4.337,1.251
				c1.011,0.823,1.681,1.966,1.99,3.395c0.261,1.205,0.388,2.708,0.388,4.594c0,1.973-0.219,3.472-0.668,4.584
				c-0.193,0.478-0.451,0.905-0.768,1.277c0.317,0.407,0.598,0.919,0.815,1.563c0.458,1.358,0.671,3.839,0.671,7.807
				c0,4.143,0.071,5.251,0.105,5.543l0.773,1.936h-7.548l-0.415-0.827c-0.223-0.443-0.325-0.646-0.325-11.053
				c0-1.02-0.108-1.468-0.162-1.627c-0.082-0.029-0.255-0.075-0.572-0.092L99.577,208.314L99.577,208.314z M95.168,205.314h1.409
				v-13.742l2.984,0.139c1.385,0.032,2.405,0.464,3,1.279c0.518,0.712,0.749,1.772,0.749,3.441c0,5.088,0.033,7.621,0.067,8.88
				h1.387c-0.029-0.933-0.045-2.334-0.045-4.479c0-4.4-0.279-6.153-0.514-6.85c-0.309-0.915-0.726-0.988-0.926-1.023l-0.193-2.908
				c0.581-0.183,0.931-0.489,1.134-0.991c0.205-0.507,0.45-1.519,0.45-3.459c0-1.646-0.107-2.979-0.32-3.959
				c-0.164-0.758-0.476-1.315-0.953-1.704c-0.462-0.377-1.307-0.576-2.442-0.576h-5.788v25.952H95.168z M99.854,191.222h-3.26
				V179.75h2.997c1.917,0,2.767,0.818,3.143,1.504c0.4,0.736,0.579,1.906,0.579,3.796v0.183c0,1.355-0.058,2.357-0.177,3.062
				c-0.164,0.959-0.495,1.659-1.013,2.145C101.567,190.958,100.804,191.222,99.854,191.222z M99.594,188.222h0.26
				c0.101,0,0.173-0.007,0.222-0.015c0.022-0.064,0.064-0.198,0.102-0.416c0.061-0.361,0.135-1.102,0.135-2.559v-0.183
				c0-1.399-0.115-2.016-0.177-2.248c-0.092-0.023-0.261-0.052-0.541-0.052L99.594,188.222L99.594,188.222z"/>
		</g>
		<g>
			<path fill="#FFFF00" d="M125.057,208.313h-7.17l-0.691-5.165h-2.03l-0.625,5.165h-7.303l4.557-31.952h8.414L125.057,208.313z
				 M120.512,205.313h1.056l-3.938-25.952h-3.232l-3.702,25.952h1.186l0.625-5.165h7.314L120.512,205.313z M119.761,199.611h-7.19
				l2.144-17.542h2.706L119.761,199.611z M115.959,196.611h0.375l-0.196-1.466L115.959,196.611z"/>
		</g>
		<g>
			<path fill="#FFFF00" d="M137.824,208.313h-12.986v-31.952h7.409v25.202h5.577V208.313z M127.838,205.313h6.986v-0.75h-5.577
				v-25.202h-1.409L127.838,205.313L127.838,205.313z"/>
		</g>
		<g>
			<path fill="#FFFF00" d="M144.93,208.313h-7.407v-31.952h7.407V208.313z M140.522,205.313h1.407v-25.952h-1.407V205.313z"/>
		</g>
		<g>
			<path fill="#FFFF00" d="M153.458,208.64c-2.819,0-4.848-0.967-6.029-2.873c-1.054-1.693-1.566-4.016-1.566-7.096v-4.083h5.326
				l-1.777-1.832c-1.105-1.154-1.977-2.37-2.596-3.621c-0.654-1.319-0.986-2.85-0.986-4.547c0-2.765,0.558-4.812,1.706-6.262
				c1.216-1.534,3.211-2.312,5.93-2.312c2.808,0,4.778,0.933,5.858,2.772c0.941,1.604,1.398,3.791,1.398,6.689v3.293h-4.685
				l1.047,1.134c1.3,1.408,2.299,2.863,2.968,4.325c0.695,1.516,1.049,3.188,1.049,4.968c0,3.053-0.535,5.299-1.637,6.866
				C158.262,207.772,156.24,208.64,153.458,208.64z M148.862,197.588v1.083c0,2.469,0.375,4.323,1.115,5.514
				c0.225,0.361,0.901,1.455,3.48,1.455c1.773,0,2.935-0.426,3.551-1.303c0.725-1.031,1.092-2.761,1.092-5.142
				c0-1.345-0.261-2.596-0.776-3.718c-0.538-1.175-1.359-2.365-2.444-3.54l-2.385-2.583c-0.883-0.941-1.496-1.726-1.868-2.389
				c-0.438-0.783-0.652-1.744-0.652-2.938c0-1.231,0.229-2.179,0.697-2.895c0.577-0.883,1.549-1.369,2.735-1.369
				c1.301,0,2.316,0.678,2.785,1.86c0.318,0.805,0.467,1.939,0.467,3.572v0.571h1.062v-0.293c0-2.317-0.331-4.057-0.985-5.171
				c-0.188-0.318-0.758-1.291-3.271-1.291c-1.756,0-2.96,0.396-3.578,1.176c-0.702,0.886-1.058,2.365-1.058,4.398
				c0,1.23,0.227,2.312,0.675,3.215c0.484,0.979,1.18,1.944,2.066,2.871l2.132,2.196c1.064,1.101,1.858,2.187,2.363,3.23
				c0.536,1.105,0.808,2.396,0.808,3.835c0,1.472-0.161,2.507-0.508,3.26c-0.285,0.625-1.041,1.68-2.867,1.68
				c-1.356,0-2.425-0.692-2.931-1.898c-0.359-0.859-0.527-2.123-0.527-3.977v-1.412h-1.178V197.588z M153.04,196.819V199
				c0,1.908,0.206,2.605,0.295,2.816c0,0.066,0.237,0.062,0.336,0.048c0.073-0.209,0.202-0.744,0.202-1.929
				c0-0.981-0.171-1.833-0.508-2.528C153.272,197.215,153.164,197.02,153.04,196.819z M153.418,182.771
				c-0.208,0-0.261,0.026-0.262,0.026c-0.009,0.032-0.182,0.341-0.182,1.231c0,0.818,0.146,1.251,0.27,1.471
				c0.08,0.144,0.209,0.343,0.415,0.613v-0.915C153.659,183.655,153.501,183.006,153.418,182.771z"/>
		</g>
		<g>
			<path fill="#FFFF00" d="M168.847,208.643c-2.629,0-4.647-0.926-6.001-2.752c-1.249-1.689-1.882-4.067-1.882-7.07v-12.618
				c0-4.919,1.428-8.092,4.245-9.431c1.031-0.49,2.266-0.738,3.67-0.738c2.84,0,7.604,1.195,7.604,9.199v5.479h-7.262v-5.201
				c0-1.699-0.172-2.389-0.274-2.649c0.073,0-0.143-0.014-0.188-0.004c-0.001,0.009-0.02,0.039-0.042,0.092
				c-0.117,0.278-0.312,0.977-0.312,2.546v13.521c0,1.775,0.188,2.498,0.299,2.771c0.014,0.033,0.025,0.057,0.034,0.071
				c0.019,0.001,0.04,0.001,0.075,0.001c0.049,0.02,0.072-0.002,0.104-0.081c0.113-0.281,0.303-1.021,0.303-2.812v-5.646h7.326
				v5.597c0,3.156-0.587,5.48-1.793,7.104C173.463,207.761,171.475,208.643,168.847,208.643z M168.879,179.033
				c-0.955,0-1.757,0.15-2.383,0.448c-1.68,0.798-2.532,3.06-2.532,6.721v12.618c0,2.347,0.435,4.125,1.293,5.285
				c0.767,1.034,1.941,1.537,3.59,1.537c1.65,0,2.795-0.461,3.5-1.409c0.797-1.073,1.201-2.861,1.201-5.315v-2.597h-1.326v2.646
				c0,1.802-0.165,3.051-0.52,3.932c-0.501,1.247-1.554,1.962-2.888,1.962c-1.331,0-2.383-0.706-2.886-1.937
				c-0.356-0.87-0.522-2.112-0.522-3.907v-13.521c0-1.62,0.178-2.832,0.545-3.705c0.517-1.233,1.578-1.941,2.912-1.941
				c1.35,0,2.397,0.698,2.876,1.915c0.329,0.834,0.482,2.025,0.482,3.747v2.201h1.262v-2.479
				C173.483,179.738,171.022,179.033,168.879,179.033z"/>
		</g>
		<g>
			<path fill="#FFFF00" d="M192.899,208.313h-7.408v-13.456h-0.948v13.456h-7.409v-31.952h7.409v11.713h0.948v-11.713h7.408V208.313
				z M188.491,205.313h1.408v-25.952h-1.408v11.713h-6.948v-11.713h-1.409v25.952h1.409v-13.456h6.948V205.313z"/>
		</g>
		<g>
			<path fill="#FFFF00" d="M207.144,208.314h-12.901v-31.953h12.705v6.8h-5.297v5.423h5.033v6.718h-5.033v6.212h5.493V208.314z
				 M197.242,205.313l6.901,0.001v-0.801h-5.493v-12.212h5.033v-0.718h-5.033V180.16h5.297v-0.8h-6.705V205.313z"/>
		</g>
		<g>
			<path fill="#FFFF00" d="M215.074,208.314h-7.408v-31.952h8.787c1.886,0,3.305,0.409,4.337,1.251
				c1.01,0.822,1.681,1.964,1.991,3.393c0.258,1.199,0.388,2.744,0.388,4.596c0,1.975-0.219,3.475-0.67,4.585
				c-0.192,0.477-0.45,0.904-0.767,1.276c0.317,0.406,0.599,0.919,0.815,1.563c0.458,1.357,0.671,3.839,0.671,7.807
				c0,4.144,0.072,5.253,0.105,5.544l0.77,1.935h-7.546l-0.415-0.829c-0.215-0.431-0.323-0.646-0.323-11.051
				c0-1.021-0.107-1.468-0.161-1.627c-0.081-0.029-0.256-0.075-0.574-0.092L215.074,208.314L215.074,208.314z M210.666,205.314
				h1.408v-13.742l2.984,0.139c1.385,0.032,2.405,0.463,3.001,1.278c0.519,0.709,0.75,1.771,0.75,3.442
				c0,5.087,0.033,7.62,0.067,8.88h1.389c-0.029-0.935-0.047-2.337-0.047-4.479c0-4.4-0.279-6.153-0.514-6.849
				c-0.309-0.916-0.727-0.989-0.927-1.024l-0.192-2.908c0.58-0.183,0.93-0.488,1.133-0.991c0.206-0.507,0.45-1.518,0.45-3.459
				c0-1.64-0.107-2.973-0.32-3.961c-0.164-0.756-0.477-1.313-0.954-1.702c-0.463-0.377-1.307-0.576-2.441-0.576h-5.787V205.314z
				 M215.352,191.222h-3.261V179.75h2.997c1.916,0,2.767,0.817,3.142,1.503c0.401,0.738,0.579,1.908,0.579,3.797v0.183
				c0,1.363-0.058,2.365-0.177,3.063c-0.164,0.956-0.495,1.656-1.013,2.142C217.067,190.957,216.304,191.222,215.352,191.222z
				 M215.091,188.222h0.261c0.101,0,0.172-0.007,0.221-0.014c0.022-0.066,0.065-0.199,0.103-0.418
				c0.061-0.357,0.134-1.093,0.134-2.558v-0.183c0-1.397-0.114-2.015-0.177-2.248c-0.093-0.023-0.262-0.052-0.541-0.052
				L215.091,188.222L215.091,188.222z"/>
		</g>
		<g>
			<path fill="#FFFF00" d="M40.272,242.313H33.34v-5.362l-0.992,5.229H26.37l-1.166-5.897v6.03h-6.899v-31.952h8.214l2.83,14.56
				l2.661-14.56h8.261L40.272,242.313L40.272,242.313z M36.34,239.313h0.932v-25.952h-2.76l-3.641,19.924l-2.948,0.017l-3.875-19.94
				h-2.742v25.952h0.899v-9.291l-0.165-9.878l2.972-0.316l3.824,19.353h1.029l3.667-19.341l2.974,0.305l-0.165,9.903L36.34,239.313
				L36.34,239.313z"/>
		</g>
		<g>
			<path fill="#FFFF00" d="M54.534,242.314H41.631v-31.953h12.706v6.8H49.04v5.423h5.034v6.718H49.04v6.212h5.494V242.314z
				 M44.631,239.313l6.903,0.001v-0.801H46.04v-12.212h5.034v-0.718H46.04V214.16h5.297v-0.8h-6.706V239.313z"/>
		</g>
		<g>
			<path fill="#FFFF00" d="M62.628,242.313h-7.409v-31.952h7.409V242.313z M58.219,239.313h1.409v-25.952h-1.409V239.313z"/>
		</g>
		<g>
			<path fill="#FFFF00" d="M71.152,242.64c-2.819,0-4.847-0.967-6.029-2.873c-1.052-1.697-1.563-4.018-1.563-7.096v-4.083h5.326
				l-1.778-1.832c-1.106-1.154-1.977-2.37-2.596-3.62c-0.655-1.321-0.987-2.852-0.987-4.548c0-2.767,0.559-4.815,1.708-6.263
				c1.215-1.533,3.21-2.312,5.929-2.312c2.807,0,4.778,0.933,5.858,2.772c0.941,1.604,1.398,3.792,1.398,6.689v3.293h-4.686
				l1.047,1.134c1.299,1.406,2.297,2.861,2.968,4.324c0.696,1.517,1.049,3.188,1.049,4.969c0,3.053-0.536,5.299-1.638,6.866
				C75.955,241.772,73.934,242.64,71.152,242.64z M66.56,231.588v1.083c0,2.468,0.375,4.324,1.113,5.516
				c0.223,0.359,0.901,1.453,3.479,1.453c1.773,0,2.936-0.427,3.553-1.304c0.724-1.03,1.091-2.76,1.091-5.141
				c0-1.345-0.261-2.596-0.776-3.718c-0.539-1.176-1.361-2.367-2.445-3.54l-2.385-2.583c-0.886-0.946-1.5-1.73-1.868-2.39
				c-0.439-0.785-0.652-1.746-0.652-2.937c0-1.231,0.229-2.179,0.699-2.896c0.577-0.882,1.548-1.368,2.734-1.368
				c1.301,0,2.316,0.678,2.785,1.86c0.319,0.808,0.467,1.942,0.467,3.572v0.571h1.063v-0.293c0-2.316-0.332-4.056-0.985-5.171
				c-0.188-0.318-0.759-1.291-3.271-1.291c-1.756,0-2.96,0.396-3.578,1.176c-0.703,0.885-1.058,2.364-1.058,4.398
				c0,1.23,0.227,2.312,0.675,3.216c0.484,0.978,1.18,1.942,2.068,2.87l2.132,2.196c1.064,1.101,1.858,2.187,2.363,3.229
				c0.536,1.107,0.808,2.398,0.808,3.836c0,1.471-0.161,2.506-0.506,3.259c-0.287,0.626-1.042,1.681-2.869,1.681
				c-1.355,0-2.422-0.691-2.929-1.897c-0.36-0.858-0.528-2.122-0.528-3.978v-1.412h-1.18V231.588z M70.738,230.82V233
				c0,1.909,0.206,2.605,0.294,2.815c0.001,0.069,0.239,0.065,0.336,0.048c0.073-0.208,0.202-0.743,0.202-1.928
				c0-0.981-0.171-1.833-0.508-2.529C70.969,231.215,70.861,231.02,70.738,230.82z M71.114,216.771
				c-0.208,0-0.261,0.026-0.261,0.026c-0.01,0.033-0.183,0.342-0.183,1.231c0,0.817,0.147,1.252,0.271,1.473
				c0.079,0.142,0.208,0.341,0.415,0.612v-0.916C71.355,217.659,71.197,217.007,71.114,216.771z"/>
		</g>
		<g>
			<path fill="#FFFF00" d="M87.895,242.313h-7.392v-25.137h-3.389v-6.815h14.038v6.815h-3.257
				C87.895,217.176,87.895,242.313,87.895,242.313z M83.503,239.313h1.392v-25.137h3.257v-0.815h-8.038v0.815h3.389
				C83.503,214.176,83.503,239.313,83.503,239.313z"/>
		</g>
		<g>
			<path fill="#FFFF00" d="M103.49,242.314H90.587v-31.953h12.706v6.8h-5.297v5.423h5.034v6.718h-5.034v6.212h5.494
				C103.49,235.514,103.49,242.314,103.49,242.314z M93.587,239.313l6.903,0.001v-0.801h-5.494v-12.212h5.034v-0.718h-5.034V214.16
				h5.297v-0.8h-6.706C93.587,213.36,93.587,239.313,93.587,239.313z"/>
		</g>
		<g>
			<path fill="#FFFF00" d="M111.419,242.314h-7.409v-31.952h8.788c1.86,0,3.319,0.421,4.337,1.251
				c1.011,0.822,1.681,1.965,1.99,3.395c0.261,1.208,0.388,2.71,0.388,4.594c0,1.973-0.219,3.472-0.668,4.584
				c-0.193,0.478-0.451,0.905-0.768,1.277c0.317,0.407,0.598,0.919,0.815,1.563c0.458,1.357,0.67,3.838,0.67,7.807
				c0,4.142,0.072,5.251,0.105,5.543l0.773,1.936h-7.548l-0.415-0.827c-0.223-0.443-0.325-0.646-0.325-11.053
				c0-1.021-0.108-1.468-0.162-1.628c-0.082-0.029-0.256-0.074-0.572-0.091L111.419,242.314L111.419,242.314z M107.01,239.314h1.409
				v-13.742l2.984,0.139c1.388,0.032,2.409,0.465,3.002,1.281c0.516,0.71,0.747,1.771,0.747,3.439c0,5.088,0.033,7.621,0.067,8.88
				h1.387c-0.029-0.933-0.045-2.334-0.045-4.479c0-4.401-0.279-6.154-0.513-6.85c-0.309-0.915-0.726-0.988-0.927-1.023l-0.192-2.908
				c0.581-0.184,0.931-0.489,1.134-0.991c0.205-0.507,0.45-1.519,0.45-3.459c0-1.645-0.108-2.977-0.32-3.959
				c-0.164-0.758-0.476-1.315-0.953-1.704c-0.462-0.377-1.307-0.576-2.442-0.576h-5.788
				C107.01,213.362,107.01,239.314,107.01,239.314z M111.696,225.222h-3.26V213.75h2.997c1.918,0,2.768,0.818,3.143,1.505
				c0.4,0.735,0.578,1.905,0.578,3.795v0.183c0,1.357-0.058,2.359-0.177,3.062c-0.164,0.958-0.495,1.659-1.014,2.145
				C113.409,224.958,112.646,225.222,111.696,225.222z M111.436,222.222h0.26c0.102,0,0.174-0.007,0.222-0.015
				c0.021-0.064,0.064-0.198,0.102-0.416c0.061-0.36,0.134-1.1,0.134-2.559v-0.183c0-1.399-0.115-2.016-0.177-2.248
				c-0.092-0.023-0.262-0.052-0.541-0.052V222.222z"/>
		</g>
		<g>
			<path fill="#FFFF00" d="M133.772,244.173h-1.5c-1.205,0-2.179-0.101-2.976-0.308c-0.926-0.241-1.724-0.692-2.373-1.343
				c-0.656-0.656-1.117-1.527-1.368-2.587c-0.216-0.909-0.321-2.021-0.321-3.401v-14.506c0-1.379,0.105-2.492,0.321-3.402
				c0.251-1.061,0.712-1.931,1.37-2.588c0.647-0.647,1.444-1.099,2.37-1.34c0.796-0.208,1.771-0.31,2.978-0.31h1.5v5.734h-1.5
				c-0.122,0-0.214,0.007-0.28,0.016c-0.049,0.241-0.121,0.779-0.121,1.834v14.615c0,1.048,0.071,1.585,0.123,1.835
				c0.066,0.009,0.158,0.016,0.278,0.016h1.5v5.735H133.772z M130.44,217.518c-0.139,0.024-0.269,0.052-0.388,0.083
				c-0.408,0.106-0.737,0.289-1.006,0.559c-0.259,0.259-0.451,0.648-0.572,1.159c-0.159,0.671-0.24,1.583-0.24,2.71v14.506
				c0,1.127,0.081,2.039,0.24,2.709c0.121,0.511,0.313,0.9,0.572,1.159c0.271,0.271,0.599,0.453,1.004,0.559
				c0.121,0.031,0.251,0.06,0.392,0.084c-0.537-0.283-0.858-0.676-1.05-1.031c-0.366-0.682-0.521-1.705-0.521-3.426v-14.615
				c0-1.721,0.155-2.744,0.521-3.424C129.583,218.193,129.904,217.801,130.44,217.518z"/>
		</g>
		<g>
			<path fill="#FFFF00" d="M147.813,242.313h-6.476l-0.574-4.294h-1.241l-0.521,4.294h-6.585l3.86-27.062h7.431L147.813,242.313z
				 M143.963,239.313h0.36l-3.195-21.062h-2.249l-3.003,21.062h0.468l0.513-4.232h-0.004l1.844-15.086h2.696l2.014,15.086h-0.009
				L143.963,239.313z"/>
		</g>
		<g>
			<rect x="146.495" y="227.883" fill="#FFFF00" width="9.535" height="5.394"/>
		</g>
		<g>
			<path fill="#FFFF00" d="M167.898,242.313h-11.3v-27.062h6.664v20.945h4.636V242.313z M159.599,239.313h5.3v-0.117h-4.636v-20.945
				h-0.664V239.313z"/>
		</g>
		<g>
			<path fill="#FFFF00" d="M178.233,242.313h-11.23v-27.062h11.066v6.158h-4.402v4h4.184v6.09h-4.184v4.656h4.566V242.313z
				 M170.003,239.313h5.23v-0.158h-4.566v-10.656h4.184v-0.09h-4.184v-10h4.402v-0.158h-5.066V239.313z"/>
		</g>
		<g>
			<path fill="#FFFF00" d="M192.232,242.313h-6.476l-0.574-4.294h-1.241l-0.521,4.294h-6.585l3.86-27.062h7.431L192.232,242.313z
				 M188.382,239.313h0.36l-2.929-19.308l2.013,15.075h-0.01L188.382,239.313z M180.295,239.313h0.468l0.513-4.232h-0.003
				l1.844-15.086h2.695l-0.265-1.744h-2.249L180.295,239.313z"/>
		</g>
		<g>
			<path fill="#FFFF00" d="M197.46,242.56c-1.988,0-3.637-0.833-4.767-2.409c-1.05-1.462-1.56-3.548-1.56-6.377v-10.459
				c0-2.543,0.54-4.556,1.604-5.983c1.164-1.562,2.964-2.354,5.351-2.354c3.796,0,5.308,1.973,5.908,3.628
				c0.447,1.235,0.664,2.82,0.664,4.846l0.001,18.865h-4.326l-0.118-0.497C199.399,242.312,198.474,242.56,197.46,242.56z
				 M198.089,217.978c-1.407,0-2.371,0.375-2.945,1.146c-0.67,0.898-1.01,2.308-1.01,4.19v10.459c0,2.119,0.345,3.72,0.997,4.629
				c0.574,0.8,1.293,1.157,2.329,1.157c0.295,0,0.558-0.039,0.8-0.12c-0.062,0.003-0.126,0.005-0.19,0.005
				c-1.312,0-2.329-0.69-2.79-1.895c-0.31-0.812-0.453-2.028-0.453-3.831v-10.432c0-1.629,0.175-2.742,0.551-3.502
				c0.517-1.04,1.502-1.635,2.705-1.635c1.632,0,2.356,0.927,2.644,1.479c0.353,0.674,0.518,1.633,0.518,3.014v1.017h0.418v-0.209
				c0-1.648-0.163-2.935-0.484-3.823C200.898,218.859,200.295,217.978,198.089,217.978z M201.463,229.177v4.406
				c0,1.825-0.176,3.083-0.554,3.958c-0.088,0.203-0.189,0.392-0.305,0.565l1.058-0.001v-8.929h-0.199V229.177z M198.067,236.438
				h0.048c0.005-0.015,0.021-0.044,0.039-0.086c0.094-0.215,0.309-0.914,0.309-2.77v-1.74h-0.637v1.876
				C197.826,235.494,197.984,236.194,198.067,236.438z M197.826,226.177h0.417v-3.533c0-0.862-0.079-1.298-0.132-1.493
				c-0.01,0-0.02,0-0.029,0l0,0c-0.014,0-0.022-0.001-0.028-0.004c-0.07,0.176-0.228,0.72-0.228,2.141V226.177z"/>
		</g>
		<g>
			<path fill="#FFFF00" d="M211.781,242.586c-2.325,0-4.08-0.718-5.217-2.133c-1.073-1.334-1.596-3.237-1.596-5.82v-19.396h6.664
				v19.328c0,1.414,0.08,1.772,0.089,1.81c0.011,0.021,0.026,0.048,0.045,0.081c0.007,0,0.015,0,0.021,0h0.001
				c0.028-0.078,0.048-0.172,0.06-0.281c0.044-0.408,0.066-0.949,0.066-1.609v-19.328h6.664v19.396c0,2.593-0.52,4.499-1.589,5.829
				C215.857,241.871,214.104,242.586,211.781,242.586z M207.969,218.237v16.396c0,1.818,0.323,3.182,0.934,3.94
				c0.548,0.682,1.489,1.013,2.879,1.013c1.389,0,2.328-0.328,2.871-1.004c0.606-0.754,0.927-2.12,0.927-3.949v-16.396h-0.664
				v16.328c0,0.778-0.027,1.41-0.084,1.932c-0.078,0.725-0.313,1.358-0.7,1.883c-0.358,0.49-1.058,1.076-2.343,1.076
				c-1.021,0-1.776-0.313-2.243-0.931c-0.241-0.318-0.447-0.675-0.612-1.057c-0.181-0.423-0.3-1.076-0.3-2.903v-16.328H207.969z"/>
		</g>
		<g>
			<path fill="#FFFF00" d="M230.282,242.313h-11.23v-27.062h11.066v6.158h-4.402v4h4.185v6.09h-4.185v4.656h4.566V242.313z
				 M222.052,239.313h5.23v-0.158h-4.566v-10.656h4.185v-0.09h-4.185v-10h4.402v-0.158h-5.066V239.313z"/>
		</g>
		<g>
			<path fill="#FFFF00" d="M231.079,244.173h-1.5v-5.733h1.5c0.121,0,0.213-0.007,0.28-0.016c0.048-0.242,0.121-0.778,0.121-1.835
				v-14.615c0-1.048-0.071-1.584-0.123-1.834c-0.066-0.009-0.158-0.016-0.278-0.016h-1.5v-5.734h1.5c1.206,0,2.181,0.102,2.977,0.31
				c0.928,0.242,1.725,0.694,2.369,1.345c0.649,0.656,1.106,1.524,1.357,2.581c0.216,0.912,0.32,2.024,0.32,3.404v14.506
				c0,1.375-0.104,2.487-0.319,3.399c-0.252,1.062-0.709,1.931-1.358,2.585c-0.647,0.652-1.444,1.105-2.371,1.347
				C233.259,244.072,232.286,244.173,231.079,244.173z M232.912,217.519c0.536,0.283,0.856,0.676,1.047,1.031
				c0.365,0.678,0.521,1.702,0.521,3.424v14.615c0,1.722-0.156,2.746-0.522,3.426c-0.19,0.354-0.511,0.747-1.048,1.03
				c0.14-0.023,0.27-0.052,0.39-0.083c0.403-0.104,0.729-0.286,0.994-0.554c0.256-0.259,0.448-0.65,0.57-1.164
				c0.158-0.672,0.238-1.584,0.238-2.709v-14.506c0-1.128-0.08-2.04-0.239-2.712c-0.121-0.512-0.313-0.903-0.57-1.163
				c-0.263-0.266-0.589-0.446-0.995-0.553C233.179,217.57,233.05,217.543,232.912,217.519z"/>
		</g>
	</g>
	<g>
		<g>
			<path d="M33.247,206.813l4.129-28.952h5.823l4.393,28.952h-4.113l-0.691-5.165h-4.672l-0.625,5.165H33.247z M42.328,198.111
				l-1.941-14.542h-0.065l-1.777,14.542H42.328z"/>
		</g>
		<g>
			<path d="M61.525,205.259c-1.009,1.256-2.629,1.884-4.861,1.884s-3.855-0.63-4.869-1.892c-1.015-1.261-1.522-3.219-1.522-5.873
				v-21.533h4.409v21.451c0,1.524,0.071,2.451,0.214,2.78s0.315,0.628,0.518,0.896s0.623,0.403,1.259,0.403
				c0.636,0,1.091-0.187,1.365-0.56c0.274-0.373,0.441-0.836,0.501-1.39c0.061-0.554,0.091-1.265,0.091-2.131v-21.451h4.409v21.533
				C63.039,202.043,62.534,204.004,61.525,205.259z"/>
		</g>
		<g>
			<path d="M66.641,198.671v-2.583h4.178V199c0,1.612,0.137,2.744,0.411,3.396c0.274,0.653,0.79,0.979,1.546,0.979
				c0.757,0,1.259-0.269,1.505-0.807c0.247-0.537,0.37-1.414,0.37-2.632c0-1.217-0.22-2.278-0.658-3.183
				c-0.438-0.905-1.135-1.852-2.089-2.838l-2.139-2.204c-0.998-1.042-1.774-2.122-2.328-3.241c-0.554-1.118-0.831-2.412-0.831-3.882
				c0-2.391,0.46-4.168,1.382-5.33c0.921-1.162,2.505-1.744,4.754-1.744c2.248,0,3.77,0.678,4.565,2.032
				c0.795,1.354,1.192,3.331,1.192,5.93v1.793h-4.063v-2.072c0-1.403-0.121-2.41-0.362-3.019s-0.705-0.913-1.39-0.913
				c-0.686,0-1.179,0.23-1.48,0.69c-0.302,0.461-0.453,1.152-0.453,2.073s0.154,1.656,0.461,2.204
				c0.307,0.549,0.861,1.25,1.661,2.105l2.385,2.583c1.195,1.294,2.098,2.604,2.706,3.932c0.609,1.327,0.913,2.774,0.913,4.343
				c0,2.709-0.455,4.71-1.365,6.004c-0.911,1.295-2.503,1.941-4.779,1.941s-3.86-0.721-4.754-2.163
				C67.088,203.537,66.641,201.435,66.641,198.671z"/>
		</g>
		<g>
			<path d="M83.584,206.813v-25.136h-3.389v-3.816h11.038v3.816h-3.257v25.136H83.584z"/>
		</g>
		<g>
			<path d="M99.492,193.209l-1.415-0.065v13.67h-4.409v-28.952h7.288c1.513,0,2.643,0.305,3.389,0.913s1.236,1.459,1.472,2.55
				s0.354,2.517,0.354,4.277s-0.187,3.101-0.559,4.021c-0.373,0.922-1.064,1.541-2.073,1.859c0.998,0.175,1.694,0.85,2.089,2.023
				c0.395,1.173,0.592,3.616,0.592,7.328c0,3.713,0.055,5.706,0.164,5.979h-4.408c-0.11-0.219-0.165-3.679-0.165-10.38
				c0-1.283-0.154-2.136-0.461-2.558C101.043,193.453,100.424,193.231,99.492,193.209z M98.094,189.722h1.76
				c0.559,0,0.973-0.126,1.242-0.378s0.455-0.686,0.56-1.3c0.104-0.614,0.156-1.552,0.156-2.812v-0.182
				c0-1.567-0.132-2.593-0.395-3.076c-0.263-0.482-0.872-0.724-1.826-0.724h-1.497V189.722z"/>
		</g>
		<g>
			<path d="M108.967,206.813l4.129-28.952h5.823l4.393,28.952h-4.113l-0.691-5.165h-4.672l-0.625,5.165H108.967z M118.048,198.111
				l-1.941-14.542h-0.065l-1.777,14.542H118.048z"/>
		</g>
		<g>
			<path d="M126.338,206.813v-28.952h4.409v25.202h5.577v3.75H126.338z"/>
		</g>
		<g>
			<path d="M139.022,206.813v-28.952h4.408v28.952H139.022z"/>
		</g>
		<g>
			<path d="M147.362,198.671v-2.583h4.178V199c0,1.612,0.138,2.744,0.411,3.396c0.274,0.653,0.79,0.979,1.547,0.979
				s1.259-0.269,1.505-0.807c0.247-0.537,0.37-1.414,0.37-2.632c0-1.217-0.22-2.278-0.658-3.183s-1.135-1.852-2.089-2.838
				l-2.139-2.204c-0.998-1.042-1.773-2.122-2.327-3.241c-0.555-1.118-0.831-2.412-0.831-3.882c0-2.391,0.461-4.168,1.382-5.33
				s2.506-1.744,4.754-1.744s3.77,0.678,4.565,2.032s1.192,3.331,1.192,5.93v1.793h-4.063v-2.072c0-1.403-0.12-2.41-0.361-3.019
				s-0.705-0.913-1.391-0.913s-1.179,0.23-1.48,0.69c-0.302,0.461-0.452,1.152-0.452,2.073s0.153,1.656,0.461,2.204
				c0.307,0.549,0.86,1.25,1.661,2.105l2.385,2.583c1.195,1.294,2.098,2.604,2.706,3.932c0.609,1.327,0.913,2.774,0.913,4.343
				c0,2.709-0.455,4.71-1.365,6.004c-0.91,1.295-2.503,1.941-4.778,1.941c-2.276,0-3.86-0.721-4.754-2.163
				C147.809,203.537,147.362,201.435,147.362,198.671z"/>
		</g>
		<g>
			<path d="M173.551,205.128c-0.998,1.343-2.566,2.015-4.704,2.015c-2.139,0-3.737-0.716-4.796-2.146
				c-1.059-1.432-1.587-3.49-1.587-6.177v-12.618c0-4.31,1.129-7.002,3.389-8.076c0.833-0.396,1.842-0.593,3.026-0.593
				c4.068,0,6.104,2.566,6.104,7.699v3.98h-4.261v-3.701c0-1.491-0.126-2.558-0.379-3.199c-0.252-0.642-0.745-0.963-1.48-0.963
				c-0.734,0-1.244,0.34-1.529,1.021c-0.285,0.68-0.428,1.722-0.428,3.125v13.522c0,1.557,0.137,2.67,0.411,3.339
				s0.773,1.004,1.497,1.004s1.223-0.34,1.497-1.021c0.273-0.68,0.411-1.804,0.411-3.372v-4.146h4.326v4.097
				C175.048,201.714,174.549,203.784,173.551,205.128z"/>
		</g>
		<g>
			<path d="M178.634,206.813v-28.952h4.409v11.713h3.948v-11.713h4.408v28.952h-4.408v-13.456h-3.948v13.456H178.634z"/>
		</g>
		<g>
			<path d="M195.742,206.813v-28.952h9.705v3.8h-5.297v8.423h5.034v3.718h-5.034v9.212h5.494v3.8h-9.902V206.813z"/>
		</g>
		<g>
			<path d="M214.989,193.209l-1.415-0.065v13.67h-4.408v-28.952h7.287c1.514,0,2.643,0.305,3.389,0.913s1.236,1.459,1.473,2.55
				c0.235,1.091,0.354,2.517,0.354,4.277s-0.187,3.101-0.56,4.021c-0.373,0.922-1.063,1.541-2.072,1.859
				c0.998,0.175,1.694,0.85,2.089,2.023c0.395,1.173,0.593,3.616,0.593,7.328c0,3.713,0.055,5.706,0.164,5.979h-4.408
				c-0.11-0.219-0.165-3.679-0.165-10.38c0-1.283-0.153-2.136-0.461-2.558C216.541,193.453,215.921,193.231,214.989,193.209z
				 M213.591,189.722h1.761c0.559,0,0.973-0.126,1.241-0.378s0.455-0.686,0.56-1.3s0.156-1.552,0.156-2.812v-0.182
				c0-1.567-0.132-2.593-0.395-3.076c-0.264-0.482-0.872-0.724-1.826-0.724h-1.497V189.722z"/>
		</g>
		<g>
			<path d="M19.805,240.813v-28.952h5.478l4.112,21.155l3.866-21.155h5.511v28.952H34.84v-10.791l0.165-9.903l-3.899,20.562h-3.504
				l-4.063-20.562l0.165,9.903v10.791H19.805z"/>
		</g>
		<g>
			<path d="M43.131,240.813v-28.952h9.706v3.8H47.54v8.423h5.034v3.718H47.54v9.212h5.494v3.8h-9.903V240.813z"/>
		</g>
		<g>
			<path d="M56.719,240.813v-28.952h4.409v28.952H56.719z"/>
		</g>
		<g>
			<path d="M65.06,232.671v-2.583h4.178V233c0,1.612,0.137,2.744,0.411,3.396c0.274,0.653,0.79,0.979,1.546,0.979
				c0.757,0,1.259-0.269,1.505-0.807c0.247-0.537,0.37-1.414,0.37-2.632c0-1.217-0.22-2.278-0.658-3.183
				c-0.438-0.905-1.135-1.852-2.089-2.838l-2.139-2.204c-0.998-1.042-1.774-2.122-2.328-3.241c-0.554-1.118-0.831-2.412-0.831-3.882
				c0-2.391,0.46-4.168,1.382-5.33c0.921-1.162,2.505-1.744,4.754-1.744c2.248,0,3.77,0.678,4.565,2.032
				c0.795,1.354,1.192,3.331,1.192,5.93v1.793h-4.063v-2.072c0-1.403-0.121-2.41-0.362-3.019s-0.705-0.913-1.39-0.913
				c-0.686,0-1.179,0.23-1.48,0.69c-0.302,0.461-0.453,1.152-0.453,2.073s0.154,1.656,0.461,2.204
				c0.307,0.549,0.861,1.25,1.661,2.105l2.385,2.583c1.195,1.294,2.098,2.604,2.706,3.932c0.609,1.327,0.913,2.774,0.913,4.343
				c0,2.709-0.455,4.71-1.365,6.004c-0.911,1.295-2.503,1.941-4.779,1.941s-3.86-0.721-4.754-2.163
				C65.506,237.537,65.06,235.435,65.06,232.671z"/>
		</g>
		<g>
			<path d="M82.003,240.813v-25.136h-3.389v-3.816h11.038v3.816h-3.257v25.136H82.003z"/>
		</g>
		<g>
			<path d="M92.087,240.813v-28.952h9.706v3.8h-5.297v8.423h5.034v3.718h-5.034v9.212h5.494v3.8h-9.903
				C92.087,240.814,92.087,240.813,92.087,240.813z"/>
		</g>
		<g>
			<path d="M111.334,227.209l-1.415-0.065v13.67h-4.409v-28.952h7.288c1.513,0,2.643,0.305,3.389,0.913s1.236,1.459,1.472,2.55
				s0.354,2.517,0.354,4.277s-0.187,3.101-0.559,4.021c-0.373,0.922-1.064,1.541-2.073,1.859c0.998,0.175,1.694,0.85,2.089,2.023
				c0.395,1.173,0.592,3.616,0.592,7.328c0,3.713,0.055,5.706,0.164,5.979h-4.408c-0.11-0.219-0.165-3.679-0.165-10.38
				c0-1.283-0.154-2.136-0.461-2.558C112.886,227.453,112.266,227.231,111.334,227.209z M109.936,223.722h1.76
				c0.559,0,0.973-0.126,1.242-0.378s0.455-0.686,0.56-1.3c0.104-0.614,0.156-1.552,0.156-2.812v-0.182
				c0-1.567-0.132-2.593-0.395-3.076c-0.263-0.482-0.872-0.724-1.826-0.724h-1.497V223.722z"/>
		</g>
		<g>
			<path d="M132.272,242.673c-1.066,0-1.933-0.087-2.598-0.26s-1.229-0.49-1.688-0.95c-0.46-0.46-0.784-1.084-0.971-1.873
				c-0.187-0.788-0.28-1.807-0.28-3.056v-14.506c0-1.248,0.093-2.267,0.28-3.056c0.187-0.788,0.51-1.412,0.971-1.873
				c0.46-0.46,1.023-0.776,1.688-0.95c0.665-0.173,1.531-0.26,2.598-0.26v2.734c-0.812,0-1.331,0.212-1.559,0.636
				s-0.342,1.329-0.342,2.714v14.615c0,1.386,0.114,2.29,0.342,2.714s0.747,0.636,1.559,0.636V242.673z"/>
		</g>
		<g>
			<path d="M134.146,240.813l3.432-24.062h4.84l3.65,24.062h-3.418l-0.574-4.293h-3.883l-0.52,4.293H134.146z M141.692,233.581
				l-1.613-12.086h-0.055l-1.477,12.086H141.692z"/>
		</g>
		<g>
			<path d="M147.995,231.776v-2.393h6.535v2.393H147.995z"/>
		</g>
		<g>
			<path d="M158.099,240.813v-24.062h3.664v20.945h4.635v3.117L158.099,240.813L158.099,240.813z"/>
		</g>
		<g>
			<path d="M168.503,240.813v-24.062h8.066v3.158h-4.402v7h4.184v3.09h-4.184v7.656h4.566v3.158L168.503,240.813L168.503,240.813z"
				/>
		</g>
		<g>
			<path d="M178.565,240.813l3.432-24.062h4.84l3.65,24.062h-3.418l-0.574-4.293h-3.883l-0.52,4.293H178.565z M186.112,233.581
				l-1.613-12.086h-0.055l-1.477,12.086H186.112z"/>
		</g>
		<g>
			<path d="M197.46,241.06c-1.513,0-2.695-0.595-3.548-1.784s-1.278-3.023-1.278-5.503v-10.459c0-2.224,0.436-3.919,1.306-5.086
				c0.87-1.166,2.254-1.75,4.149-1.75c2.36,0,3.86,0.88,4.498,2.639c0.383,1.058,0.574,2.502,0.574,4.334v1.709h-3.418v-2.516
				c0-1.103-0.116-1.877-0.349-2.324c-0.232-0.446-0.67-0.67-1.312-0.67s-1.096,0.267-1.36,0.8s-0.396,1.479-0.396,2.837v10.432
				c0,1.577,0.118,2.676,0.355,3.295c0.237,0.62,0.699,0.93,1.388,0.93s1.176-0.332,1.463-0.998
				c0.287-0.665,0.431-1.786,0.431-3.363v-3.24h-1.846v-2.666h5.045v13.139h-1.641l-0.561-2.365
				c-0.191,0.812-0.61,1.449-1.258,1.914S198.308,241.06,197.46,241.06z"/>
		</g>
		<g>
			<path d="M215.821,239.521c-0.839,1.044-2.186,1.565-4.04,1.565s-3.204-0.523-4.047-1.572c-0.843-1.048-1.265-2.675-1.265-4.881
				v-17.896h3.664v17.828c0,1.268,0.06,2.037,0.178,2.311s0.262,0.522,0.431,0.745c0.169,0.224,0.518,0.335,1.046,0.335
				s0.907-0.154,1.135-0.465c0.228-0.31,0.367-0.694,0.417-1.155c0.05-0.46,0.075-1.05,0.075-1.771v-17.828h3.664v17.896
				C217.079,236.849,216.66,238.479,215.821,239.521z"/>
		</g>
		<g>
			<path d="M220.552,240.813v-24.062h8.066v3.158h-4.402v7h4.184v3.09h-4.184v7.656h4.566v3.158L220.552,240.813L220.552,240.813z"
				/>
		</g>
		<g>
			<path d="M231.079,242.673v-2.734c0.812,0,1.331-0.212,1.559-0.636s0.342-1.328,0.342-2.714v-14.615
				c0-1.385-0.114-2.29-0.342-2.714s-0.747-0.636-1.559-0.636v-2.734c1.066,0,1.933,0.087,2.598,0.26
				c0.665,0.174,1.226,0.49,1.682,0.95c0.456,0.461,0.777,1.085,0.964,1.873c0.187,0.789,0.28,1.808,0.28,3.056v14.506
				c0,1.249-0.094,2.268-0.28,3.056c-0.187,0.789-0.508,1.413-0.964,1.873s-1.017,0.777-1.682,0.95S232.146,242.673,231.079,242.673
				z"/>
		</g>
	</g>
</g>
</svg>
