<?xml version="1.0" encoding="utf-8"?>
<!-- Generator: Adobe Illustrator 17.0.0, SVG Export Plug-In . SVG Version: 6.00 Build 0)  -->
<!DOCTYPE svg PUBLIC "-//W3C//DTD SVG 1.1//EN" "http://www.w3.org/Graphics/SVG/1.1/DTD/svg11.dtd">
<svg version="1.1" id="Layer_1" xmlns="http://www.w3.org/2000/svg" xmlns:xlink="http://www.w3.org/1999/xlink" x="0px" y="0px"
	 width="256px" height="256px" viewBox="0 0 256 256" enable-background="new 0 0 256 256" xml:space="preserve">
<path fill="#FFFFFF" d="M192.1,10.3c-17.1,0-32.4,8-42.3,20.6h-0.3v0.3c-7.1,9.1-11.4,20.6-11.4,33c0,29.7,24.2,53.9,53.9,53.9
	s54-24.2,54-53.9S221.9,10.3,192.1,10.3z"/>
<path d="M192,10.3c-17.1,0-32.4,8-42.3,20.6h-0.3v0.3c-7.1,9.1-11.4,20.6-11.4,33c0,29.7,24.2,53.9,53.9,53.9s53.9-24.2,53.9-53.9
	S221.7,10.3,192,10.3z M208.6,100.9l-23.1-3L183.7,78l17.6-10.7L217,82.4L208.6,100.9z M171.2,103.3L151.9,89l-2.1-14.7l11.8-7.4
	L181.5,78l1.9,20.2L171.2,103.3z M149.1,72.2L142,57.4l9.3-15.3l9.7,2l-0.2,20.8L149.1,72.2z M188.3,19l21.3,2.9l7.3,13.6l-16.1,7.9
	l-16.5-11.5L188.3,19z M231.4,74.4l-12.6,6.7l-16.9-16.2l0.2-19.7l16-7.9L232.3,50L231.4,74.4z M233.5,74.9l1-24.5l7.1-0.9
	c1.4,4.7,2.1,9.6,2.1,14.7c0,4.6-0.6,9-1.7,13.2L233.5,74.9z M240.9,47.4l-7.1,0.9l-14.6-13.1L212,21.9l6.1-2.4
	C228.7,25.7,236.9,35.6,240.9,47.4z M178.8,14.2l7.4,4.1L182,32.1L162.3,42l-10.5-2.1l-0.2-8.1C158.5,23.4,167.9,17,178.8,14.2z
	 M149.7,40.5l-8.5,14.1c1.4-7.3,4.3-14.1,8.4-20L149.7,40.5z M140.5,59.2l7.1,14.9l2.1,14.8l-2.9,0.4c-4.1-7.4-6.5-16-6.5-25.1
	C140.3,62.5,140.4,60.8,140.5,59.2z M172.4,112.1l-0.2-6.8l12.5-5.3l23.9,3.1l4.4,8.4c-6.4,2.9-13.5,4.5-21,4.5
	C185.1,115.9,178.5,114.5,172.4,112.1z"/>
<g>
	<path fill="#FCFF00" stroke="#000000" stroke-miterlimit="10" d="M174.6,104.7c0-1.2-1.2-1.2-1.2-1.2s-6.2,0-8.2,0
		s-0.7,0.6-0.7,0.6v2.1c0,3.3-2.1,3.3-2.6,3.3s-4.7-0.1-5.7-0.1c0.3-0.9-0.4-1.8-0.4-1.8h-55.5c0,0-0.5,0.9-0.2,1.8
		c-1,0-4.8,0-5.4,0c-0.5,0-2.1,0.1-2.1-3.1v-2.1c0,0-0.2-1-1.5-1c-2,0-8.3,0-8.3,0s-1.3,0.2-1.3,1.4s-0.1,27.6-0.1,29.6
		c0,2.1,0.5,6.1,7.1,9.2c6.5,3.2,19.5,9.3,19.6,10c-0.4,0.7-0.5,2.5,1.1,2.6c1,0,1.5-0.9,1.5-0.9s6.3,3,8.4,3.6c0,2,2.5,9.6,4.7,12
		c0,0.4-0.1,2.1-0.1,2.1s-2.9,0.2-2.9,2.7s2.3,3.7,3,3.8c0,1.1-3.3,10.6-5.2,12.8c0,1-0.3,2.5-0.3,2.5H114c0,0-0.5,0.1-0.5,0.7
		s0,3.3,0,3.3h-2v14h-3v3H107l-0.5,1h-1.8c0,0-1.3,0.1-1.3,1.7c0,1.6,0,24.3,0,24.3h-2c0,0-3.6,2.5-3.6,8.1c0,1.1,0.7,3.9,2.5,3.9
		c1.9,0,53.2,0,55.1,0s2.5-2.8,2.5-3.9c0-5.6-3.6-8.1-3.6-8.1h-3c0,0,0-22.7,0-24.3s-0.3-1.7-0.3-1.7h-2.1l-0.5-1h-1.1v-3h-2v-14h-2
		c0,0,0-2.6,0-3.3s-1.5-0.7-1.5-0.7h-4.1c0,0-0.3-1.5-0.3-2.5c-2-2.2-5.2-11.7-5.2-12.7c0.8-0.1,3-1.3,3-3.8s-2.9-2.7-2.9-2.7
		s-0.1-1.6-0.1-2.1c2.2-2.4,4.7-10,4.7-12c2.1-0.5,8.4-3.6,8.4-3.6s0.5,0.9,1.5,0.9c1.6-0.1,1.5-2,1.1-2.6c0.1-0.7,13.1-6.9,19.6-10
		c6.5-3.2,7.1-7,7.1-9.1C174.7,132.1,174.6,105.9,174.6,104.7z M89.3,140.6c-5.5-3-5.8-7.1-5.8-7.1v-27h6.2c0,0,0.1,0.9,0.1,1.9
		c0,3.7,2.9,4.1,4,4.1c1,0,7.7,0,7.7,0l0.2,0.3c5.8,16,7.8,36.8,7.8,39.9C108.8,151.1,94.9,143.5,89.3,140.6z M165.7,140.6
		c-5.5,2.9-18.9,10.5-19.7,12.1c0-3,2.4-23.9,8.2-39.9l0.3-0.3h8.5c0,0,3.2-0.4,3.2-4.1c0-1,0.1-1.9,0.1-1.9h4.2v27
		C170.5,133.5,171.2,137.6,165.7,140.6z"/>
	<line fill="none" stroke="#000000" stroke-miterlimit="10" x1="112" y1="198.5" x2="145" y2="198.5"/>
	<line fill="none" stroke="#000000" stroke-miterlimit="10" x1="124" y1="172.5" x2="132" y2="172.5"/>
	<line fill="none" stroke="#000000" stroke-miterlimit="10" x1="110" y1="212.5" x2="146" y2="212.5"/>
	<line fill="none" stroke="#000000" stroke-miterlimit="10" x1="107" y1="216.5" x2="150" y2="216.5"/>
	<line fill="none" stroke="#000000" stroke-miterlimit="10" x1="104" y1="242.5" x2="152" y2="242.5"/>
	<path fill="#FFFFFF" d="M125,110h14.4c0,0-0.9,16.4-2,22.6c-0.4,2.5-1.3,17.5-1.2,22.8c-2.4,0-2.2,0-11.2,0V110z"/>
	<path fill="#FFFFFF" d="M131.6,176H127c0,0-1-0.5-1-1.4c0-1.2,1-1.6,1-1.6h4.6c0,0,1,0.3,1,1.5S131.6,176,131.6,176z"/>
	<path fill="#FFFFFF" d="M127.3,179.6c0,0-2.2,11.4-0.9,14.4c2.1,0,5.5,0,5.5,0v-2.3c0,0-1.6-9.5-1.3-11.9
		C129.6,179.8,127.3,179.6,127.3,179.6z"/>
	<rect x="127" y="195" fill="#FFFFFF" width="7" height="1"/>
	<rect x="125" y="213" fill="#FFFFFF" width="12" height="2"/>
	<rect x="125" y="217" fill="#FFFFFF" width="14" height="1"/>
	<line fill="none" stroke="#000000" stroke-miterlimit="10" x1="118" y1="194.5" x2="140" y2="194.5"/>
	<line fill="none" stroke="#000000" stroke-miterlimit="10" x1="119" y1="192.5" x2="137" y2="192.5"/>
	<path fill="#ABD100" d="M139.4,110h7.8c0,0-3.9,18.6-4.8,25.9c-0.9,7.3-1.7,14.9-1.7,19.5c-2.9,0-5.1,0-5.1,0S136.2,125,139.4,110z
		"/>
	<path fill="#FF9F00" d="M108.7,110h-4.6c0,0,8.3,30,8.1,38.3c0,2.1,0.3,7.7,0.3,7.7h2.1c0,0-0.1-7.3-0.1-9.8S108.7,110,108.7,110z"
		/>
	<line fill="none" stroke="#000000" stroke-miterlimit="10" x1="112" y1="156.5" x2="145" y2="156.5"/>
	<path fill="#FF9F00" d="M121.7,158.8l-1.9,0.1c0,0,0.3,2.8,1.3,5.7c0.7,2.1,2,3.5,3.2,6.5c1.1,0,2,0,2,0s-2.1-2.9-3.3-6
		C122,162.4,121.7,159.3,121.7,158.8z"/>
	<path fill="#FF9F00" d="M121.8,174.5c0,0,0.6,2,2.8,2.7c1.7,0.6,1.1,1.2,0,1.1C124.2,178.3,120.7,177.6,121.8,174.5z"/>
	<rect x="119.4" y="192.8" fill="#FF9F00" width="1.5" height="0.8"/>
	<rect x="116" y="195" fill="#B9A9A5" width="2" height="3"/>
	<rect x="113" y="199" fill="#FF9F00" width="3" height="13"/>
	<rect x="111" y="213" fill="#FF9F00" width="4" height="1"/>
	<rect x="108" y="217" fill="#FF9F00" width="3" height="25"/>
	<path fill="#ABD100" d="M133.3,159h2c0,0-0.6,7-4.2,12c-1.1,0-1.5,0-1.5,0S133.3,165.5,133.3,159z"/>
	<path fill="#ABD100" d="M134.2,174.5c0,0-0.8,2.3-2.8,2.7c-1.9,0.4-0.8,1.2,0,1.1C132.2,178.2,135.3,177.3,134.2,174.5z"/>
	<rect x="134.4" y="193.1" fill="#ABD100" width="1.6" height="0.8"/>
	<rect x="134" y="195" fill="#ABD100" width="5" height="3"/>
	<rect x="115" y="195" fill="#FF9F00" width="4" height="3"/>
	<rect x="136" y="199" fill="#ABD100" width="5" height="13"/>
	<rect x="138" y="213" fill="#ABD100" width="6" height="1"/>
	<rect x="141" y="217" fill="#ABD100" width="5" height="25"/>
	<line fill="none" stroke="#000000" stroke-miterlimit="10" x1="120" y1="158.5" x2="137" y2="158.5"/>
	<line fill="none" stroke="#000000" stroke-miterlimit="10" x1="124" y1="179.5" x2="132" y2="179.5"/>
</g>
<g>
	<g>
		<ellipse fill="#FF0000" stroke="#000000" stroke-miterlimit="10" cx="191.6" cy="65.2" rx="40.8" ry="40.6"/>
	</g>
	<g>
		<g>
			<path fill="#FFFFFF" d="M224.3,65.5c-0.4,1.2-0.5,2.5-1.1,3.7c-2.5,5.1-8,6.5-13.4,3.6c-5.2-2.7-8.7-7-11.5-12
				c-4.8-8.7-7.2-18-7.3-27.9c1.3,0,2.6,0,3.9,0c0.8,0.8,1.9,0.7,2.9,0.8c2,0.1,3.2,0.7,3.4,3.1c0.4,5,1.6,10,3.3,14.7
				c1.9,5.2,4.7,9.7,8.6,13.6c0.8-0.9,0.8-1.7,0.8-2.6c-0.1-9-3.2-17.1-7.1-25.3c0.6,0.1,0.9,0.1,1.1,0.2c0.6,0.3,1.1,0.6,1.7,1
				c4.3,2.9,7.4,6.8,9.9,11.3c2.6,4.6,3.8,9.7,4.6,14.9C224.3,64.7,224.3,65.1,224.3,65.5z"/>
			<path fill="#FFFFFF" d="M157.9,62.1c1.1-1.8,0.9-4,1.6-5.9c2.6-7.8,7.1-14.2,13.8-18.9c3.4-2.4,7-3.4,10.7-1
				c3.8,2.4,4.7,6.4,4.4,10.6c-0.6,10-6.2,17.4-12.8,24.3c-3.1,3.2-6.6,6.1-10.3,8.7c-1.3,0.9-2.2,0.8-2.8-0.6
				c-0.2-0.4-0.5-0.8-0.7-1.2c-3-5.4-3-5.7,1.8-9.4c7-5.5,12.6-12,15.6-20.5c0.3-0.7,1.1-1.6,0.3-2.3s-1.6,0.3-2.2,0.7
				c-7.1,4-12.3,10-17,16.5c-0.6,0.9-1,2.1-2.4,2C157.9,64,157.9,63,157.9,62.1z"/>
			<path fill="#FFFFFF" d="M207.2,92.7c-7.3,4.9-15.3,5.4-23.5,3.9c-2.8-0.5-5.5-1.3-8-2.6c-7.8-3.9-8.3-11.5-1.2-16.6
				c3.5-2.5,7.6-3.7,11.8-4c10.6-0.8,20.6,1.7,30.2,6.1c1.9,0.9,1.9,1.7,0.9,3.3c-3.7,6.1-3.6,6.2-10.1,3.7c-7.9-3-16-4.7-24.5-3.2
				c-0.9,0.2-2.4-0.2-2.6,1.1c-0.2,1,1.2,1.3,2,1.7c7.3,4.3,15.4,5.5,23.7,6.3C206.3,92.6,206.8,92.7,207.2,92.7z"/>
		</g>
	</g>
</g>
<g>
	<path d="M52.707,206.585v-28.952h5.478l4.112,21.155l3.866-21.155h5.511v28.952h-3.932v-10.791l0.165-9.903l-3.899,20.562h-3.504
		l-4.063-20.562l0.165,9.903v10.791H52.707z"/>
	<path d="M76.033,206.585v-28.952h9.706v3.8h-5.297v8.423h5.034v3.718h-5.034v9.212h5.494v3.8h-9.903V206.585z"/>
	<path d="M89.621,206.585v-28.952h4.409v28.952H89.621z"/>
	<path d="M97.961,198.442v-2.583h4.178v2.912c0,1.612,0.137,2.744,0.411,3.396c0.274,0.653,0.79,0.979,1.546,0.979
		c0.757,0,1.259-0.269,1.505-0.807c0.247-0.537,0.37-1.414,0.37-2.632c0-1.217-0.22-2.278-0.658-3.183
		c-0.438-0.905-1.135-1.852-2.089-2.838l-2.139-2.204c-0.998-1.042-1.774-2.122-2.328-3.241c-0.554-1.118-0.831-2.412-0.831-3.882
		c0-2.391,0.46-4.168,1.382-5.33c0.921-1.162,2.505-1.744,4.754-1.744c2.248,0,3.77,0.678,4.565,2.032
		c0.795,1.354,1.192,3.331,1.192,5.93v1.793h-4.063v-2.072c0-1.403-0.121-2.41-0.362-3.019s-0.705-0.913-1.39-0.913
		c-0.686,0-1.179,0.23-1.48,0.69c-0.302,0.461-0.453,1.152-0.453,2.073s0.154,1.656,0.461,2.204c0.307,0.549,0.861,1.25,1.661,2.105
		l2.385,2.583c1.195,1.294,2.098,2.604,2.706,3.932c0.609,1.327,0.913,2.774,0.913,4.343c0,2.709-0.455,4.71-1.365,6.004
		c-0.911,1.295-2.503,1.941-4.779,1.941s-3.86-0.721-4.754-2.163C98.408,203.309,97.961,201.206,97.961,198.442z"/>
	<path d="M114.905,206.585v-25.136h-3.389v-3.816h11.038v3.816h-3.257v25.136H114.905z"/>
	<path d="M124.989,206.585v-28.952h9.706v3.8h-5.297v8.423h5.033v3.718h-5.033v9.212h5.494v3.8h-9.903V206.585z"/>
	<path d="M144.236,192.98l-1.415-0.065v13.67h-4.408v-28.952h7.287c1.514,0,2.643,0.305,3.389,0.913s1.236,1.459,1.473,2.55
		c0.235,1.091,0.354,2.517,0.354,4.277s-0.187,3.101-0.56,4.021c-0.373,0.922-1.063,1.541-2.072,1.859
		c0.998,0.175,1.694,0.85,2.089,2.023c0.395,1.173,0.593,3.616,0.593,7.328c0,3.713,0.055,5.706,0.164,5.979h-4.408
		c-0.11-0.219-0.165-3.679-0.165-10.38c0-1.283-0.153-2.136-0.461-2.558C145.788,193.225,145.168,193.003,144.236,192.98z
		 M142.838,189.493h1.761c0.559,0,0.973-0.126,1.241-0.378s0.455-0.686,0.56-1.3s0.156-1.552,0.156-2.812v-0.182
		c0-1.567-0.132-2.593-0.395-3.076c-0.264-0.482-0.872-0.724-1.826-0.724h-1.497V189.493z"/>
	<path d="M161.048,206.585v-28.952h6.498c2.128,0,3.671,0.628,4.631,1.884s1.439,3.106,1.439,5.552l0.017,13.062
		c0,2.917-0.482,5.056-1.447,6.415c-0.966,1.36-2.562,2.04-4.787,2.04L161.048,206.585L161.048,206.585z M165.457,203.163h1.447
		c0.812,0,1.401-0.263,1.769-0.789s0.551-1.491,0.551-2.896l-0.016-14.295c0-1.503-0.185-2.571-0.552-3.208
		c-0.367-0.636-1.001-0.954-1.899-0.954h-1.3L165.457,203.163L165.457,203.163z"/>
	<path d="M177.597,206.585v-28.952h9.706v3.8h-5.297v8.423h5.033v3.718h-5.033v9.212h5.494v3.8h-9.903V206.585z"/>
	<path d="M196.844,192.98l-1.415-0.065v13.67h-4.408v-28.952h7.287c1.514,0,2.643,0.305,3.389,0.913s1.236,1.459,1.473,2.55
		c0.235,1.091,0.354,2.517,0.354,4.277s-0.187,3.101-0.56,4.021c-0.373,0.922-1.063,1.541-2.072,1.859
		c0.998,0.175,1.694,0.85,2.089,2.023c0.395,1.173,0.593,3.616,0.593,7.328c0,3.713,0.055,5.706,0.164,5.979h-4.408
		c-0.11-0.219-0.165-3.679-0.165-10.38c0-1.283-0.153-2.136-0.461-2.558C198.396,193.225,197.775,193.003,196.844,192.98z
		 M195.445,189.493h1.761c0.559,0,0.973-0.126,1.241-0.378s0.455-0.686,0.56-1.3s0.156-1.552,0.156-2.812v-0.182
		c0-1.567-0.132-2.593-0.395-3.076c-0.264-0.482-0.872-0.724-1.826-0.724h-1.497V189.493z"/>
	<path d="M40.633,240.585l4.129-28.952h5.823l4.393,28.952h-4.113l-0.691-5.165h-4.672l-0.625,5.165H40.633z M49.713,231.883
		l-1.941-14.542h-0.065l-1.777,14.542H49.713z"/>
	<path d="M57.296,229.712v-2.879h7.863v2.879H57.296z"/>
	<path d="M69.454,240.585v-28.952h4.409v25.202h5.577v3.75H69.454z"/>
	<path d="M81.972,240.585v-28.952h9.706v3.8h-5.297v8.423h5.034v3.718h-5.034v9.212h5.494v3.8h-9.903V240.585z"/>
	<path d="M94.08,240.585l4.129-28.952h5.823l4.393,28.952h-4.113l-0.691-5.165h-4.672l-0.625,5.165H94.08z M103.16,231.883
		l-1.941-14.542h-0.065l-1.777,14.542H103.16z"/>
	<path d="M116.813,240.881c-1.82,0-3.243-0.715-4.269-2.146c-1.025-1.431-1.538-3.638-1.538-6.621V219.53
		c0-2.676,0.523-4.716,1.571-6.12c1.047-1.403,2.711-2.105,4.993-2.105c2.84,0,4.645,1.059,5.412,3.175
		c0.461,1.272,0.691,3.011,0.691,5.215v2.057h-4.112v-3.027c0-1.326-0.14-2.259-0.419-2.796c-0.28-0.537-0.806-0.807-1.58-0.807
		c-0.773,0-1.319,0.321-1.637,0.963s-0.477,1.779-0.477,3.413v12.552c0,1.897,0.143,3.219,0.428,3.964
		c0.285,0.746,0.842,1.119,1.67,1.119c0.828,0,1.415-0.4,1.76-1.201c0.345-0.8,0.518-2.149,0.518-4.047v-3.898h-2.221v-3.208h6.07
		v15.809h-1.974l-0.674-2.846c-0.23,0.977-0.735,1.744-1.513,2.303C118.733,240.602,117.833,240.881,116.813,240.881z"/>
	<path d="M138.906,239.03c-1.009,1.256-2.629,1.884-4.86,1.884c-2.232,0-3.855-0.63-4.869-1.892
		c-1.015-1.261-1.522-3.219-1.522-5.873v-21.533h4.409v21.451c0,1.524,0.071,2.451,0.214,2.78s0.314,0.628,0.518,0.896
		s0.623,0.403,1.259,0.403s1.091-0.187,1.365-0.56s0.441-0.836,0.502-1.39s0.091-1.265,0.091-2.131v-21.451h4.408v21.533
		C140.42,235.814,139.915,237.775,138.906,239.03z"/>
	<path d="M144.599,240.585v-28.952h9.705v3.8h-5.297v8.423h5.034v3.718h-5.034v9.212h5.494v3.8h-9.902V240.585z"/>
	<path d="M164.059,240.585v-28.952h5.479l4.112,21.155l3.865-21.155h5.512v28.952h-3.932v-10.791l0.164-9.903l-3.898,20.562h-3.504
		l-4.063-20.562l0.165,9.903v10.791H164.059z"/>
	<path d="M187.385,240.585v-28.952h9.706v3.8h-5.297v8.423h5.033v3.718h-5.033v9.212h5.494v3.8h-9.903V240.585z"/>
	<path d="M200.809,240.585v-28.952h3.454l6.136,17.371l-0.312-7.896v-9.476h3.965v28.952h-3.126l-6.3-17.979l0.247,7.6v10.38
		L200.809,240.585L200.809,240.585z"/>
</g>
</svg>
