<?xml version="1.0" encoding="utf-8"?>
<!-- Generator: Adobe Illustrator 17.0.0, SVG Export Plug-In . SVG Version: 6.00 Build 0)  -->
<!DOCTYPE svg PUBLIC "-//W3C//DTD SVG 1.1//EN" "http://www.w3.org/Graphics/SVG/1.1/DTD/svg11.dtd">
<svg version="1.1" id="Layer_1" xmlns="http://www.w3.org/2000/svg" xmlns:xlink="http://www.w3.org/1999/xlink" x="0px" y="0px"
	 width="256px" height="256px" viewBox="0 0 256 256" enable-background="new 0 0 256 256" xml:space="preserve">
<polygon fill="#FFFF00" points="128,188.6 53.1,243.2 82,155.1 6.8,100.8 99.5,101 128,12.8 156.5,101 249.2,100.8 174,155.1 
	202.9,243.2 "/>
<path fill="#FFFFFF" d="M192,10.3c-17.1,0-32.4,8-42.3,20.6h-0.3v0.3c-7.1,9.1-11.4,20.6-11.4,33c0,29.7,24.2,53.9,53.9,53.9
	s53.9-24.2,53.9-53.9S221.7,10.3,192,10.3z"/>
<path d="M192,10.3c-17.1,0-32.4,8-42.3,20.6h-0.3v0.3c-7.1,9.1-11.4,20.6-11.4,33c0,29.7,24.2,53.9,53.9,53.9s53.9-24.2,53.9-53.9
	S221.7,10.3,192,10.3z M208.6,100.9l-23.1-3L183.7,78l17.6-10.7L217,82.4L208.6,100.9z M171.2,103.3L151.9,89l-2.1-14.7l11.8-7.4
	L181.5,78l1.9,20.2L171.2,103.3z M149.1,72.2L142,57.4l9.3-15.3l9.7,2l-0.2,20.8L149.1,72.2z M188.3,19l21.3,2.9l7.3,13.6l-16.1,7.9
	l-16.5-11.5L188.3,19z M231.4,74.4l-12.6,6.7l-16.9-16.2l0.2-19.7l16-7.9L232.3,50L231.4,74.4z M233.5,74.9l1-24.5l7.1-0.9
	c1.4,4.7,2.1,9.6,2.1,14.7c0,4.6-0.6,9-1.7,13.2L233.5,74.9z M240.9,47.4l-7.1,0.9l-14.6-13.1L212,21.9l6.1-2.4
	C228.7,25.7,236.9,35.6,240.9,47.4z M178.8,14.2l7.4,4.1L182,32.1L162.3,42l-10.5-2.1l-0.2-8.1C158.5,23.4,167.9,17,178.8,14.2z
	 M149.7,40.5l-8.5,14.1c1.4-7.3,4.3-14.1,8.4-20L149.7,40.5z M140.5,59.2l7.1,14.9l2.1,14.8l-2.9,0.4c-4.1-7.4-6.5-16-6.5-25.1
	C140.3,62.5,140.4,60.8,140.5,59.2z M172.4,112.1l-0.2-6.8l12.5-5.3l23.9,3.1l4.4,8.4c-6.4,2.9-13.5,4.5-21,4.5
	C185.1,115.9,178.5,114.5,172.4,112.1z"/>
<g>
	<ellipse fill="#272A9B" stroke="#000000" stroke-miterlimit="10" cx="191.6" cy="65.2" rx="40.8" ry="40.6"/>
	<g>
		<path fill="#FFFFFF" d="M169.6,77.7l4.1-28.9h5.8l4.4,28.9h-4.1l-0.7-5.2h-4.7l-0.6,5.2H169.6z M178.7,69.1l-1.9-14.5h-0.1
			l-1.8,14.5H178.7z"/>
		<path fill="#FFFFFF" d="M187,77.7V48.8h9.9v3.8h-5.5v7.7h5.1v3.8h-5.1v13.6H187z"/>
		<path fill="#FFFFFF" d="M210.8,76.1c-1,1.3-2.6,2-4.7,2c-2.1,0-3.7-0.7-4.8-2.1s-1.6-3.5-1.6-6.2V57.2c0-4.3,1.1-7,3.4-8.1
			c0.8-0.4,1.8-0.6,3-0.6c4.1,0,6.1,2.6,6.1,7.7v4h-4.3v-3.7c0-1.5-0.1-2.6-0.4-3.2c-0.3-0.6-0.7-1-1.5-1s-1.2,0.3-1.5,1
			s-0.4,1.7-0.4,3.1V70c0,1.6,0.1,2.7,0.4,3.3c0.3,0.7,0.8,1,1.5,1s1.2-0.3,1.5-1s0.4-1.8,0.4-3.4v-4.1h4.3v4.1
			C212.3,72.7,211.8,74.7,210.8,76.1z"/>
	</g>
</g>
<g>
	<path fill="none" stroke="#000000" stroke-width="3" stroke-miterlimit="10" d="M157.6,137"/>
	<path fill="#FF0000" d="M157.6,137"/>
</g>
<g>
	<path fill="#FFFFFF" d="M213.076,171.6c20.154-10.187,33.525-32.196,34.302-35.525c0.777-3.328-0.529-4.066-2.861-6.485
		c-2.332-2.419-7.023-0.498-7.023-0.498s-21.109,17.572-30.996,24.506c-9.974,7.046-51.879,18.249-57.531,21.304
		c-5.653,3.055-44.98,16.242-51.522,24.858c0.051,2.716-1.775,9.609,5.129,6.089C109.476,202.329,179.845,188.229,213.076,171.6z"/>
	<g>
		<path fill="none" stroke="#000000" stroke-width="3" stroke-miterlimit="10" d="M183.987,144.125
			c3.333-0.736,6.058-1.494,8.114-1.964c4.385-1.176,9.438-2.64,16.113-4.82c8.792-2.96,18.515-8.057,22.132-8.931
			c6.355-1.533,12.33,0.21,12.33,0.21c2.914,2.243-21.118,20.598-26.888,25.08c-14.851,11.412-61.541,23.036-95.173,36.59
			c-11.982,4.787-17.205,9.601-17.205,9.601s9.262-3.222,15.815-4.781c14.556-3.609,78.13-17.229,94.451-27.42
			c21.069-13.23,31.554-31.839,31.624-35.176c5.124,7.602,1.635,14.107-1.419,18.538c-3.066,4.332-0.562,6.527-1.821,7.699
			c-0.703,0.797-4.294-0.45-7.317,2.667c-3.023,3.116-4.089,5.776-7.806,8.983c-3.73,3.107-0.674,6.441-3.042,9.169
			c-2.381,2.629-5.108-2.058-8.657,0.118c-3.536,2.275-5.563,3.749-11.737,6.671c-6.075,2.909-2.308,7.057-4.671,8.272
			c-2.238,1.401-6.621-4.382-11.273-2.163c-4.652,2.219-22.638,14.342-28.809,18.07c-6.27,3.741-1.129,12.248-3.104,14.119
			c-1.259,1.172-5.595-2.7-9.54-2.792c-2.319-0.001-4.532,1.598-6.791,3.607c-6.05,5.426-0.602,10.869-3.198,12.618
			c-2.596,1.75-4.522-1.428-9.144-2.844c-4.621-1.415-8.489,1.408-13.399-2.996C89.973,211.321,93.7,188.045,93.7,188.045
			c1.635-2.936,2.631-2.258,7.399-1.266c4.755,0.894,12.895,1.448,18.777-2.948c5.783-4.383,11.852-15.862,11.193-20.92
			c-0.658-5.057-2.14-8.696,4.469-9.053c2.703-0.15,10.697-1.493,19.941-3.301l4.225-0.853
			C162.106,148.788,162.106,148.788,183.987,144.125z"/>
		<path fill="#FF3D00" d="M183.987,144.125c3.333-0.736,6.058-1.494,8.114-1.964c4.385-1.176,9.438-2.64,16.113-4.82
			c8.792-2.96,18.515-8.057,22.132-8.931c6.355-1.533,12.33,0.21,12.33,0.21c2.914,2.243-21.118,20.598-26.888,25.08
			c-14.851,11.412-61.541,23.036-95.173,36.59c-11.982,4.787-17.205,9.601-17.205,9.601s9.262-3.222,15.815-4.781
			c14.556-3.609,78.13-17.229,94.451-27.42c21.069-13.23,31.554-31.839,31.624-35.176c5.124,7.602,1.635,14.107-1.419,18.538
			c-3.066,4.332-0.562,6.527-1.821,7.699c-0.703,0.797-4.294-0.45-7.317,2.667c-3.023,3.116-4.089,5.776-7.806,8.983
			c-3.73,3.107-0.674,6.441-3.042,9.169c-2.381,2.629-5.108-2.058-8.657,0.118c-3.536,2.275-5.563,3.749-11.737,6.671
			c-6.075,2.909-2.308,7.057-4.671,8.272c-2.238,1.401-6.621-4.382-11.273-2.163c-4.652,2.219-22.638,14.342-28.809,18.07
			c-6.27,3.741-1.129,12.248-3.104,14.119c-1.259,1.172-5.595-2.7-9.54-2.792c-2.319-0.001-4.532,1.598-6.791,3.607
			c-6.05,5.426-0.602,10.869-3.198,12.618c-2.596,1.75-4.522-1.428-9.144-2.844c-4.621-1.415-8.489,1.408-13.399-2.996
			C89.973,211.321,93.7,188.045,93.7,188.045c1.635-2.936,2.631-2.258,7.399-1.266c4.755,0.894,12.895,1.448,18.777-2.948
			c5.783-4.383,11.852-15.862,11.193-20.92c-0.658-5.057-2.14-8.696,4.469-9.053c2.703-0.15,10.697-1.493,19.941-3.301l4.225-0.853
			C162.106,148.788,162.106,148.788,183.987,144.125z"/>
	</g>
	<g>
		<g>
			<g>
				<path fill="none" stroke="#1D1D1B" stroke-width="3" d="M155.497,163.868c-0.198,0.026-0.397,0.052-0.608-0.022
					c-1.043-0.268-1.78-1.281-1.612-2.311l2.927-14.701c0.268-1.043,1.281-1.78,2.311-1.612c1.043,0.268,1.78,1.281,1.612,2.311
					l-2.927,14.701C157.019,163.165,156.29,163.764,155.497,163.868z"/>
			</g>
			<g>
				<path fill="none" stroke="#1D1D1B" stroke-width="3" d="M164.595,160.162c-0.198,0.026-0.397,0.052-0.608-0.022
					c-1.043-0.268-1.78-1.281-1.612-2.311l2.297-11.795c0.268-1.043,1.281-1.78,2.311-1.612c1.043,0.268,1.78,1.281,1.612,2.311
					l-2.297,11.795C166.117,159.46,165.388,160.059,164.595,160.162z"/>
			</g>
			<g>
				<path fill="none" stroke="#1D1D1B" stroke-width="3" d="M172.222,157.556c-0.198,0.026-0.397,0.052-0.608-0.022
					c-1.043-0.268-1.78-1.281-1.612-2.311l2.176-11.174c0.268-1.043,1.281-1.78,2.311-1.612c1.043,0.268,1.78,1.281,1.612,2.311
					l-2.176,11.174C173.744,156.854,173.015,157.453,172.222,157.556z"/>
			</g>
			<g>
				<path fill="none" stroke="#1D1D1B" stroke-width="3" d="M180.82,153.109c-0.198,0.026-0.397,0.052-0.608-0.022
					c-1.043-0.268-1.78-1.281-1.612-2.311l1.766-8.902c0.268-1.043,1.281-1.78,2.311-1.612c1.043,0.268,1.78,1.281,1.612,2.311
					l-1.766,8.902C182.342,152.407,181.613,153.006,180.82,153.109z"/>
			</g>
		</g>
		<g>
			<g>
				<path fill="#FFFF00" d="M155.497,163.868c-0.198,0.026-0.397,0.052-0.608-0.022c-1.043-0.268-1.78-1.281-1.612-2.311
					l2.927-14.701c0.268-1.043,1.281-1.78,2.311-1.612c1.043,0.268,1.78,1.281,1.612,2.311l-2.927,14.701
					C157.019,163.165,156.29,163.764,155.497,163.868z"/>
			</g>
			<g>
				<path fill="#FFFF00" d="M164.595,160.162c-0.198,0.026-0.397,0.052-0.608-0.022c-1.043-0.268-1.78-1.281-1.612-2.311
					l2.297-11.795c0.268-1.043,1.281-1.78,2.311-1.612c1.043,0.268,1.78,1.281,1.612,2.311l-2.297,11.795
					C166.117,159.46,165.388,160.059,164.595,160.162z"/>
			</g>
			<g>
				<path fill="#FFFF00" d="M172.222,157.556c-0.198,0.026-0.397,0.052-0.608-0.022c-1.043-0.268-1.78-1.281-1.612-2.311
					l2.176-11.174c0.268-1.043,1.281-1.78,2.311-1.612c1.043,0.268,1.78,1.281,1.612,2.311l-2.176,11.174
					C173.744,156.854,173.015,157.453,172.222,157.556z"/>
			</g>
			<g>
				<path fill="#FFFF00" d="M180.82,153.109c-0.198,0.026-0.397,0.052-0.608-0.022c-1.043-0.268-1.78-1.281-1.612-2.311l1.766-8.902
					c0.268-1.043,1.281-1.78,2.311-1.612c1.043,0.268,1.78,1.281,1.612,2.311l-1.766,8.902
					C182.342,152.407,181.613,153.006,180.82,153.109z"/>
			</g>
		</g>
	</g>
</g>
<g>
	<path d="M12.72,128.434v-17.188h2.617v17.188H12.72z"/>
	<path d="M18.013,128.434v-17.188h2.051l3.643,10.312l-0.186-4.688v-5.625h2.354v17.188H24.02l-3.74-10.674l0.146,4.512v6.162
		h-2.413V128.434z"/>
	<path d="M29.332,128.434v-14.922H27.32v-2.266h6.553v2.266h-1.934v14.922H29.332z"/>
	<path d="M35.318,128.434v-17.188h5.762v2.256h-3.145v5h2.988v2.207h-2.988v5.469h3.262v2.256H35.318z"/>
	<path d="M46.744,120.357l-0.84-0.039v8.115h-2.617v-17.188h4.326c0.898,0,1.569,0.181,2.012,0.542s0.734,0.866,0.874,1.514
		s0.21,1.494,0.21,2.539s-0.111,1.841-0.332,2.388s-0.631,0.915-1.23,1.104c0.592,0.104,1.006,0.504,1.24,1.201
		s0.352,2.147,0.352,4.351s0.033,3.387,0.098,3.55H48.22c-0.065-0.13-0.098-2.184-0.098-6.162c0-0.762-0.091-1.268-0.273-1.519
		S47.297,120.371,46.744,120.357z M45.914,118.287h1.045c0.332,0,0.578-0.075,0.737-0.225s0.27-0.407,0.332-0.771
		s0.093-0.921,0.093-1.67v-0.107c0-0.931-0.078-1.54-0.234-1.826s-0.518-0.43-1.084-0.43h-0.889
		C45.914,113.258,45.914,118.287,45.914,118.287z"/>
	<path d="M53.15,128.434v-17.188h2.051l3.643,10.312l-0.186-4.688v-5.625h2.354v17.188h-1.855l-3.74-10.674l0.146,4.512v6.162H53.15
		V128.434z"/>
	<path d="M62.808,128.434l2.451-17.188h3.457l2.607,17.188h-2.441l-0.41-3.066h-2.773l-0.371,3.066H62.808z M68.199,123.268
		l-1.152-8.633h-0.039l-1.055,8.633H68.199z"/>
	<path d="M73.814,128.434v-14.922h-2.012v-2.266h6.553v2.266h-1.934v14.922H73.814z"/>
	<path d="M79.898,128.434v-17.188h2.617v17.188H79.898z"/>
	<path d="M91.675,127.389c-0.599,0.827-1.558,1.24-2.876,1.24s-2.285-0.415-2.9-1.245s-0.923-2.082-0.923-3.755v-7.861
		c0-3.151,1.286-4.727,3.857-4.727c1.328,0,2.284,0.4,2.866,1.201s0.874,1.976,0.874,3.525v7.861
		C92.574,125.309,92.274,126.562,91.675,127.389z M87.842,125.768c0.153,0.397,0.467,0.596,0.942,0.596s0.788-0.204,0.938-0.61
		s0.225-1.105,0.225-2.095v-8.008c0-0.814-0.077-1.408-0.229-1.782s-0.453-0.562-0.898-0.562s-0.758,0.187-0.938,0.562
		s-0.269,0.965-0.269,1.772v8.018C87.613,124.667,87.689,125.371,87.842,125.768z"/>
	<path d="M94.947,128.434v-17.188h2.051l3.643,10.312l-0.186-4.688v-5.625h2.354v17.188h-1.855l-3.74-10.674l0.146,4.512v6.162
		h-2.413V128.434z"/>
	<path d="M104.605,128.434l2.451-17.188h3.457l2.607,17.188h-2.441l-0.41-3.066h-2.773l-0.371,3.066H104.605z M109.996,123.268
		l-1.152-8.633h-0.039l-1.055,8.633H109.996z"/>
	<path d="M114.917,128.434v-17.188h2.617v14.961h3.311v2.227H114.917z"/>
	<path d="M122.349,128.434v-17.188h5.762v2.256h-3.145v5h2.988v2.207h-2.988v5.469h3.262v2.256H122.349z"/>
	<path d="M133.774,120.357l-0.84-0.039v8.115h-2.617v-17.188h4.326c0.898,0,1.569,0.181,2.012,0.542s0.734,0.866,0.874,1.514
		c0.141,0.648,0.21,1.494,0.21,2.539s-0.11,1.841-0.332,2.388c-0.221,0.547-0.631,0.915-1.23,1.104
		c0.593,0.104,1.006,0.504,1.24,1.201s0.352,2.147,0.352,4.351s0.033,3.387,0.098,3.55h-2.617c-0.064-0.13-0.098-2.184-0.098-6.162
		c0-0.762-0.091-1.268-0.273-1.519C134.696,120.502,134.328,120.371,133.774,120.357z M132.944,118.287h1.045
		c0.332,0,0.578-0.075,0.737-0.225c0.16-0.15,0.271-0.407,0.332-0.771c0.062-0.365,0.093-0.921,0.093-1.67v-0.107
		c0-0.931-0.078-1.54-0.234-1.826s-0.518-0.43-1.084-0.43h-0.889V118.287z"/>
	<path d="M12.613,152.434v-17.188h5.898v2.275H15.23v4.57h3.047v2.285H15.23v8.057L12.613,152.434L12.613,152.434z"/>
	<path d="M26.978,151.511c-0.599,0.745-1.561,1.118-2.886,1.118s-2.289-0.375-2.891-1.123c-0.602-0.749-0.903-1.911-0.903-3.486
		v-12.783h2.617v12.734c0,0.904,0.042,1.455,0.127,1.65s0.187,0.372,0.308,0.532c0.121,0.159,0.37,0.239,0.747,0.239
		s0.648-0.111,0.811-0.332c0.163-0.222,0.262-0.497,0.298-0.825c0.036-0.329,0.054-0.751,0.054-1.265v-12.734h2.617v12.783
		C27.876,149.602,27.577,150.765,26.978,151.511z"/>
	<path d="M30.015,147.6v-1.533h2.48v1.729c0,0.957,0.082,1.629,0.244,2.017c0.163,0.387,0.469,0.581,0.918,0.581
		s0.747-0.16,0.894-0.479c0.146-0.319,0.22-0.84,0.22-1.562s-0.13-1.353-0.391-1.89s-0.674-1.099-1.24-1.685l-1.27-1.309
		c-0.592-0.619-1.053-1.26-1.382-1.924s-0.493-1.433-0.493-2.305c0-1.42,0.273-2.475,0.82-3.164c0.547-0.69,1.488-1.035,2.822-1.035
		s2.238,0.401,2.71,1.206c0.472,0.804,0.708,1.978,0.708,3.521v1.064h-2.412v-1.23c0-0.834-0.072-1.431-0.215-1.792
		s-0.418-0.542-0.825-0.542s-0.7,0.137-0.879,0.41s-0.269,0.684-0.269,1.23s0.091,0.982,0.273,1.309
		c0.182,0.325,0.511,0.742,0.986,1.25L35.132,143c0.709,0.768,1.245,1.546,1.606,2.334c0.361,0.787,0.542,1.646,0.542,2.578
		c0,1.607-0.27,2.796-0.811,3.564c-0.541,0.768-1.486,1.152-2.837,1.152s-2.292-0.429-2.822-1.284
		C30.28,150.488,30.015,149.24,30.015,147.6z"/>
	<path d="M38.853,147.6v-1.533h2.48v1.729c0,0.957,0.082,1.629,0.244,2.017c0.163,0.387,0.469,0.581,0.918,0.581
		s0.747-0.16,0.894-0.479c0.146-0.319,0.22-0.84,0.22-1.562s-0.13-1.353-0.391-1.89s-0.674-1.099-1.24-1.685l-1.27-1.309
		c-0.592-0.619-1.053-1.26-1.382-1.924s-0.493-1.433-0.493-2.305c0-1.42,0.273-2.475,0.82-3.164c0.547-0.69,1.488-1.035,2.822-1.035
		s2.238,0.401,2.71,1.206c0.472,0.804,0.708,1.978,0.708,3.521v1.064h-2.412v-1.23c0-0.834-0.072-1.431-0.215-1.792
		s-0.418-0.542-0.825-0.542s-0.7,0.137-0.879,0.41s-0.269,0.684-0.269,1.23s0.091,0.982,0.273,1.309
		c0.182,0.325,0.511,0.742,0.986,1.25L43.97,143c0.709,0.768,1.245,1.546,1.606,2.334c0.361,0.787,0.542,1.646,0.542,2.578
		c0,1.607-0.27,2.796-0.811,3.564c-0.541,0.768-1.486,1.152-2.837,1.152s-2.292-0.429-2.822-1.284
		C39.118,150.488,38.853,149.24,38.853,147.6z"/>
	<path d="M55.386,139.66c0,1.849-0.501,2.984-1.504,3.408c1.224,0.41,1.836,1.761,1.836,4.053v0.439
		c-0.013,1.725-0.314,2.969-0.903,3.73s-1.551,1.143-2.886,1.143H48.13v-17.188h3.721c1.283,0,2.191,0.298,2.725,0.894
		s0.804,1.593,0.811,2.993L55.386,139.66L55.386,139.66z M50.748,142.199h0.967c0.449,0,0.744-0.144,0.884-0.43
		c0.14-0.287,0.21-0.876,0.21-1.768v-1.035c-0.006-0.664-0.098-1.108-0.273-1.333s-0.479-0.337-0.908-0.337h-0.879L50.748,142.199
		L50.748,142.199z M50.748,150.402h0.928c0.521,0,0.885-0.18,1.094-0.537c0.208-0.358,0.312-1,0.312-1.924v-1.387
		c0-0.873-0.084-1.489-0.254-1.851s-0.495-0.542-0.977-0.542h-1.104L50.748,150.402L50.748,150.402z"/>
	<path d="M56.978,152.434l2.451-17.188h3.457l2.607,17.188h-2.441l-0.41-3.066h-2.773l-0.371,3.066H56.978z M62.369,147.268
		l-1.152-8.633h-0.039l-1.055,8.633H62.369z"/>
	<path d="M67.291,152.434v-17.188h2.617v14.961h3.311v2.227H67.291z"/>
	<path d="M74.722,152.434v-17.188h2.617v14.961h3.311v2.227H74.722z"/>
	<path d="M82.154,152.434v-17.188h5.762v2.256h-3.145v5h2.988v2.207h-2.988v5.469h3.262v2.256L82.154,152.434L82.154,152.434z"/>
	<path d="M93.58,144.357l-0.84-0.039v8.115h-2.617v-17.188h4.326c0.898,0,1.569,0.181,2.012,0.542s0.734,0.865,0.874,1.514
		c0.14,0.647,0.21,1.494,0.21,2.539s-0.111,1.841-0.332,2.388s-0.631,0.914-1.23,1.104c0.592,0.104,1.006,0.504,1.24,1.201
		c0.234,0.696,0.352,2.146,0.352,4.351c0,2.203,0.033,3.387,0.098,3.55h-2.617c-0.065-0.131-0.098-2.185-0.098-6.162
		c0-0.762-0.091-1.269-0.273-1.519C94.501,144.502,94.133,144.37,93.58,144.357z M92.75,142.287h1.045
		c0.332,0,0.578-0.075,0.737-0.225c0.16-0.15,0.27-0.407,0.332-0.771c0.062-0.365,0.093-0.922,0.093-1.67v-0.107
		c0-0.932-0.078-1.54-0.234-1.826c-0.156-0.287-0.518-0.43-1.084-0.43H92.75V142.287z"/>
	<path d="M103.56,152.434v-17.188h3.857c1.263,0,2.179,0.372,2.749,1.118c0.57,0.745,0.854,1.844,0.854,3.296l0.01,7.754
		c0,1.731-0.287,3.001-0.859,3.809c-0.573,0.807-1.52,1.211-2.842,1.211H103.56z M106.177,150.402h0.859
		c0.482,0,0.832-0.156,1.05-0.469s0.327-0.886,0.327-1.719l-0.01-8.486c0-0.893-0.109-1.527-0.327-1.904
		c-0.218-0.378-0.594-0.566-1.128-0.566h-0.771V150.402z"/>
	<path d="M113.384,152.434v-17.188h5.762v2.256h-3.145v5h2.988v2.207h-2.988v5.469h3.262v2.256L113.384,152.434L113.384,152.434z"/>
	<path d="M121.011,147.6v-1.533h2.48v1.729c0,0.957,0.082,1.629,0.244,2.017c0.163,0.387,0.469,0.581,0.918,0.581
		s0.747-0.16,0.894-0.479c0.146-0.319,0.22-0.84,0.22-1.562s-0.13-1.353-0.391-1.89s-0.674-1.099-1.24-1.685l-1.27-1.309
		c-0.592-0.619-1.053-1.26-1.382-1.924s-0.493-1.433-0.493-2.305c0-1.42,0.273-2.475,0.82-3.164c0.547-0.69,1.488-1.035,2.822-1.035
		s2.238,0.401,2.71,1.206c0.472,0.804,0.708,1.978,0.708,3.521v1.064h-2.412v-1.23c0-0.834-0.072-1.431-0.215-1.792
		s-0.418-0.542-0.825-0.542s-0.7,0.137-0.879,0.41s-0.269,0.684-0.269,1.23s0.091,0.982,0.273,1.309
		c0.182,0.325,0.511,0.742,0.986,1.25l1.416,1.533c0.709,0.768,1.245,1.546,1.606,2.334c0.361,0.787,0.542,1.646,0.542,2.578
		c0,1.607-0.27,2.796-0.811,3.564c-0.541,0.768-1.486,1.152-2.837,1.152s-2.292-0.429-2.822-1.284
		C121.276,150.488,121.011,149.24,121.011,147.6z"/>
	<path d="M18.16,175.481c-0.619,0.765-1.489,1.147-2.612,1.147s-1.996-0.341-2.617-1.021c-0.622-0.681-0.933-1.672-0.933-2.974
		v-3.066h2.529v2.939c0,0.95,0.153,1.529,0.459,1.738c0.137,0.091,0.306,0.137,0.508,0.137c0.397,0,0.659-0.163,0.786-0.488
		c0.127-0.326,0.19-0.84,0.19-1.543v-13.105h2.617v12.979C19.087,173.631,18.778,174.716,18.16,175.481z"/>
	<path d="M20.787,176.434l2.451-17.188h3.457l2.607,17.188h-2.441l-0.41-3.066h-2.773l-0.371,3.066H20.787z M26.177,171.268
		l-1.152-8.633h-0.039l-1.055,8.633H26.177z"/>
	<path d="M31.099,176.434v-17.188h2.617v6.953h2.344v-6.953h2.617v17.188H36.06v-7.988h-2.344v7.988H31.099z"/>
	<path d="M44.712,168.357l-0.84-0.039v8.115h-2.617v-17.188h4.326c0.898,0,1.569,0.181,2.012,0.542s0.734,0.865,0.874,1.514
		c0.14,0.647,0.21,1.494,0.21,2.539s-0.111,1.841-0.332,2.388s-0.631,0.914-1.23,1.104c0.592,0.104,1.006,0.504,1.24,1.201
		c0.234,0.696,0.352,2.146,0.352,4.351c0,2.203,0.033,3.387,0.098,3.55h-2.617c-0.065-0.131-0.098-2.185-0.098-6.162
		c0-0.762-0.091-1.269-0.273-1.519C45.634,168.502,45.266,168.37,44.712,168.357z M43.882,166.287h1.045
		c0.332,0,0.578-0.075,0.737-0.225c0.16-0.15,0.27-0.407,0.332-0.771c0.062-0.365,0.093-0.922,0.093-1.67v-0.107
		c0-0.932-0.078-1.54-0.234-1.826c-0.156-0.287-0.518-0.43-1.084-0.43h-0.889C43.882,161.258,43.882,166.287,43.882,166.287z"/>
	<path d="M51.119,176.434v-17.188h5.762v2.256h-3.145v5h2.988v2.207h-2.988v5.469h3.262v2.256L51.119,176.434L51.119,176.434z"/>
	<path d="M58.746,171.6v-1.533h2.48v1.729c0,0.957,0.082,1.629,0.244,2.017c0.163,0.387,0.469,0.581,0.918,0.581
		s0.747-0.16,0.894-0.479c0.146-0.319,0.22-0.84,0.22-1.562s-0.13-1.353-0.391-1.89s-0.674-1.099-1.24-1.685l-1.27-1.309
		c-0.592-0.619-1.053-1.26-1.382-1.924s-0.493-1.433-0.493-2.305c0-1.42,0.273-2.475,0.82-3.164c0.547-0.69,1.488-1.035,2.822-1.035
		s2.238,0.401,2.71,1.206c0.472,0.804,0.708,1.978,0.708,3.521v1.064h-2.412v-1.23c0-0.834-0.072-1.431-0.215-1.792
		s-0.418-0.542-0.825-0.542s-0.7,0.137-0.879,0.41s-0.269,0.684-0.269,1.23s0.091,0.982,0.273,1.309
		c0.182,0.325,0.511,0.742,0.986,1.25L63.863,167c0.709,0.768,1.245,1.546,1.606,2.334c0.361,0.787,0.542,1.646,0.542,2.578
		c0,1.607-0.27,2.796-0.811,3.564c-0.541,0.768-1.486,1.152-2.837,1.152s-2.292-0.429-2.822-1.284
		C59.011,174.488,58.746,173.24,58.746,171.6z"/>
</g>
</svg>
