<?xml version="1.0" encoding="utf-8"?>
<!-- Generator: Adobe Illustrator 17.0.0, SVG Export Plug-In . SVG Version: 6.00 Build 0)  -->
<!DOCTYPE svg PUBLIC "-//W3C//DTD SVG 1.1//EN" "http://www.w3.org/Graphics/SVG/1.1/DTD/svg11.dtd">
<svg version="1.1" id="Layer_1" xmlns="http://www.w3.org/2000/svg" xmlns:xlink="http://www.w3.org/1999/xlink" x="0px" y="0px"
	 width="256px" height="256px" viewBox="0 0 256 256" enable-background="new 0 0 256 256" xml:space="preserve">
<polygon fill="#FFFF00" points="128,188.6 53.1,243.2 82,155.1 6.8,100.8 99.5,101 128,12.8 156.5,101 249.2,100.8 174,155.1 
	202.9,243.2 "/>
<path fill="#FFFFFF" d="M192,10.3c-17.1,0-32.4,8-42.3,20.6h-0.3v0.3c-7.1,9.1-11.4,20.6-11.4,33c0,29.7,24.2,53.9,53.9,53.9
	s53.9-24.2,53.9-53.9S221.7,10.3,192,10.3z"/>
<path d="M192,10.3c-17.1,0-32.4,8-42.3,20.6h-0.3v0.3c-7.1,9.1-11.4,20.6-11.4,33c0,29.7,24.2,53.9,53.9,53.9s53.9-24.2,53.9-53.9
	S221.7,10.3,192,10.3z M208.6,100.9l-23.1-3L183.7,78l17.6-10.7L217,82.4L208.6,100.9z M171.2,103.3L151.9,89l-2.1-14.7l11.8-7.4
	L181.5,78l1.9,20.2L171.2,103.3z M149.1,72.2L142,57.4l9.3-15.3l9.7,2l-0.2,20.8L149.1,72.2z M188.3,19l21.3,2.9l7.3,13.6l-16.1,7.9
	l-16.5-11.5L188.3,19z M231.4,74.4l-12.6,6.7l-16.9-16.2l0.2-19.7l16-7.9L232.3,50L231.4,74.4z M233.5,74.9l1-24.5l7.1-0.9
	c1.4,4.7,2.1,9.6,2.1,14.7c0,4.6-0.6,9-1.7,13.2L233.5,74.9z M240.9,47.4l-7.1,0.9l-14.6-13.1L212,21.9l6.1-2.4
	C228.7,25.7,236.9,35.6,240.9,47.4z M178.8,14.2l7.4,4.1L182,32.1L162.3,42l-10.5-2.1l-0.2-8.1C158.5,23.4,167.9,17,178.8,14.2z
	 M149.7,40.5l-8.5,14.1c1.4-7.3,4.3-14.1,8.4-20L149.7,40.5z M140.5,59.2l7.1,14.9l2.1,14.8l-2.9,0.4c-4.1-7.4-6.5-16-6.5-25.1
	C140.3,62.5,140.4,60.8,140.5,59.2z M172.4,112.1l-0.2-6.8l12.5-5.3l23.9,3.1l4.4,8.4c-6.4,2.9-13.5,4.5-21,4.5
	C185.1,115.9,178.5,114.5,172.4,112.1z"/>
<g>
	<path fill="none" stroke="#000000" stroke-width="3" stroke-miterlimit="10" d="M157.6,137"/>
	<path fill="#FF0000" d="M157.6,137"/>
</g>
<g>
	<path fill="#FFFFFF" d="M213.491,170.923c19.707-11.026,32.139-33.58,32.775-36.937s-0.7-4.04-3.132-6.359
		c-2.432-2.319-7.038-0.202-7.038-0.202s-20.35,18.445-29.937,25.789c-9.668,7.46-51.064,20.417-56.583,23.708
		s-44.256,18.121-50.43,27.006c0.165,2.712-1.368,9.676,5.381,5.868C111.276,205.988,180.989,188.936,213.491,170.923z"/>
	<g>
		<path fill="none" stroke="#000000" stroke-width="3" stroke-miterlimit="10" d="M183.27,144.698
			c3.299-0.876,5.989-1.748,8.025-2.304c4.332-1.359,9.319-3.035,15.895-5.494c8.659-3.327,18.159-8.83,21.737-9.855
			c6.285-1.799,12.328-0.309,12.328-0.309c3.006,2.118-20.232,21.469-25.808,26.19c-14.357,12.028-60.517,25.607-93.548,40.566
			c-11.77,5.287-16.785,10.317-16.785,10.317s9.118-3.61,15.6-5.443c14.391-4.219,77.335-20.503,93.212-31.373
			c20.493-14.105,30.186-33.14,30.115-36.477c5.44,7.38,2.227,14.026-0.637,18.582c-2.881,4.457-0.287,6.545-1.496,7.769
			c-0.669,0.826-4.309-0.268-7.198,2.972c-2.889,3.241-3.842,5.943-7.421,9.303c-3.596,3.262-0.402,6.464-2.653,9.289
			c-2.268,2.727-5.19-1.841-8.644,0.483c-3.437,2.422-5.4,3.98-11.446,7.159c-5.948,3.162-2.009,7.148-4.319,8.462
			c-2.177,1.494-6.8-4.099-11.355-1.686s-22.014,15.283-28.022,19.267c-6.107,4.001-0.612,12.285-2.506,14.237
			c-1.209,1.224-5.704-2.462-9.649-2.388c-2.317,0.097-4.46,1.788-6.633,3.89c-5.816,5.676-0.144,10.884-2.664,12.742
			c-2.52,1.857-4.578-1.237-9.255-2.456s-8.423,1.764-13.513-2.429c-24.459-19.917-21.716-43.329-21.716-43.329
			c1.51-3.002,2.533-2.367,7.339-1.576c4.789,0.693,12.944,0.903,18.636-3.736c5.593-4.623,11.173-16.347,10.303-21.373
			c-0.871-5.025-2.505-8.599,4.084-9.233c2.695-0.264,10.624-1.942,19.784-4.138l4.186-1.03
			C161.604,150.278,161.604,150.278,183.27,144.698z"/>
		<path fill="#978300" d="M183.27,144.698c3.299-0.876,5.989-1.748,8.025-2.304c4.332-1.359,9.319-3.035,15.895-5.494
			c8.659-3.327,18.159-8.83,21.737-9.855c6.285-1.799,12.328-0.309,12.328-0.309c3.006,2.118-20.232,21.469-25.808,26.19
			c-14.357,12.028-60.517,25.607-93.548,40.566c-11.77,5.287-16.785,10.317-16.785,10.317s9.118-3.61,15.6-5.443
			c14.391-4.219,77.335-20.503,93.212-31.373c20.493-14.105,30.186-33.14,30.115-36.477c5.44,7.38,2.227,14.026-0.637,18.582
			c-2.881,4.457-0.287,6.545-1.496,7.769c-0.669,0.826-4.309-0.268-7.198,2.972c-2.889,3.241-3.842,5.943-7.421,9.303
			c-3.596,3.262-0.402,6.464-2.653,9.289c-2.268,2.727-5.19-1.841-8.644,0.483c-3.437,2.422-5.4,3.98-11.446,7.159
			c-5.948,3.162-2.009,7.148-4.319,8.462c-2.177,1.494-6.8-4.099-11.355-1.686s-22.014,15.283-28.022,19.267
			c-6.107,4.001-0.612,12.285-2.506,14.237c-1.209,1.224-5.704-2.462-9.649-2.388c-2.317,0.097-4.46,1.788-6.633,3.89
			c-5.816,5.676-0.144,10.884-2.664,12.742c-2.52,1.857-4.578-1.237-9.255-2.456s-8.423,1.764-13.513-2.429
			c-24.459-19.917-21.716-43.329-21.716-43.329c1.51-3.002,2.533-2.367,7.339-1.576c4.789,0.693,12.944,0.903,18.636-3.736
			c5.593-4.623,11.173-16.347,10.303-21.373c-0.871-5.025-2.505-8.599,4.084-9.233c2.695-0.264,10.624-1.942,19.784-4.138
			l4.186-1.03C161.604,150.278,161.604,150.278,183.27,144.698z"/>
		<path fill="#978300" d="M186.226,144.185c3.299-0.876,5.989-1.748,8.025-2.304c4.332-1.359,9.319-3.035,15.895-5.494
			c8.659-3.327,18.159-8.83,21.737-9.855c6.285-1.799,12.328-0.309,12.328-0.309c3.006,2.118-20.232,21.469-25.808,26.19
			c-14.357,12.028-60.517,25.607-93.548,40.566c-11.77,5.287-16.785,10.317-16.785,10.317s9.118-3.61,15.6-5.443
			c14.391-4.219,77.335-20.503,93.212-31.373c20.493-14.105,30.186-33.14,30.115-36.477c5.44,7.38,2.227,14.026-0.637,18.582
			c-2.881,4.457-0.287,6.545-1.496,7.769c-0.669,0.826-4.309-0.268-7.198,2.972c-2.889,3.241-3.842,5.943-7.421,9.303
			c-3.596,3.262-0.402,6.464-2.653,9.289c-2.268,2.727-5.19-1.841-8.644,0.483c-3.437,2.422-5.4,3.98-11.446,7.159
			c-5.948,3.162-2.009,7.148-4.319,8.462c-2.177,1.494-6.8-4.099-11.355-1.686s-22.014,15.283-28.022,19.267
			c-6.107,4.001-0.612,12.285-2.506,14.237c-1.209,1.224-5.704-2.462-9.649-2.388c-2.317,0.097-4.46,1.788-6.633,3.89
			c-5.816,5.676-0.144,10.884-2.664,12.742c-2.52,1.857-4.578-1.237-9.255-2.456s-8.423,1.764-13.513-2.429
			C95.127,215.282,97.87,191.87,97.87,191.87c1.51-3.002,2.533-2.367,7.339-1.576c4.789,0.693,12.944,0.903,18.636-3.736
			c5.593-4.623,11.173-16.347,10.303-21.373c-0.871-5.025-2.505-8.599,4.084-9.233c2.695-0.264,10.624-1.942,19.784-4.138
			l4.186-1.03C164.56,149.766,164.56,149.766,186.226,144.185z"/>
	</g>
	<g>
		<g>
			<g>
				<path fill="none" stroke="#1D1D1B" stroke-width="3" d="M155.636,165.622c-0.197,0.034-0.394,0.068-0.608,0.004
					c-1.054-0.223-1.833-1.205-1.708-2.241l2.305-14.811c0.223-1.054,1.205-1.833,2.241-1.708c1.054,0.223,1.833,1.205,1.708,2.241
					l-2.305,14.811C157.128,164.856,156.425,165.486,155.636,165.622z"/>
			</g>
			<g>
				<path fill="none" stroke="#1D1D1B" stroke-width="3" d="M164.57,161.537c-0.197,0.034-0.394,0.068-0.608,0.004
					c-1.054-0.223-1.833-1.205-1.708-2.241l1.798-11.881c0.223-1.054,1.205-1.833,2.241-1.708c1.054,0.223,1.833,1.205,1.708,2.241
					l-1.798,11.881C166.061,160.771,165.358,161.401,164.57,161.537z"/>
			</g>
			<g>
				<path fill="none" stroke="#1D1D1B" stroke-width="3" d="M172.081,158.612c-0.197,0.034-0.394,0.068-0.608,0.004
					c-1.054-0.223-1.833-1.205-1.708-2.241l1.703-11.256c0.223-1.054,1.205-1.833,2.241-1.708c1.054,0.223,1.833,1.205,1.708,2.241
					l-1.703,11.256C173.572,157.846,172.869,158.475,172.081,158.612z"/>
			</g>
			<g>
				<path fill="none" stroke="#1D1D1B" stroke-width="3" d="M180.484,153.807c-0.197,0.034-0.394,0.068-0.608,0.004
					c-1.054-0.223-1.833-1.205-1.708-2.241l1.389-8.969c0.223-1.054,1.205-1.833,2.241-1.708c1.054,0.223,1.833,1.205,1.708,2.241
					l-1.389,8.969C181.975,153.041,181.272,153.67,180.484,153.807z"/>
			</g>
		</g>
		<g>
			<g>
				<path fill="#FFFF00" d="M155.636,165.622c-0.197,0.034-0.394,0.068-0.608,0.004c-1.054-0.223-1.833-1.205-1.708-2.241
					l2.305-14.811c0.223-1.054,1.205-1.833,2.241-1.708c1.054,0.223,1.833,1.205,1.708,2.241l-2.305,14.811
					C157.128,164.856,156.425,165.486,155.636,165.622z"/>
			</g>
			<g>
				<path fill="#FFFF00" d="M164.57,161.537c-0.197,0.034-0.394,0.068-0.608,0.004c-1.054-0.223-1.833-1.205-1.708-2.241
					l1.798-11.881c0.223-1.054,1.205-1.833,2.241-1.708c1.054,0.223,1.833,1.205,1.708,2.241l-1.798,11.881
					C166.061,160.771,165.358,161.401,164.57,161.537z"/>
			</g>
			<g>
				<path fill="#FFFF00" d="M172.081,158.612c-0.197,0.034-0.394,0.068-0.608,0.004c-1.054-0.223-1.833-1.205-1.708-2.241
					l1.703-11.256c0.223-1.054,1.205-1.833,2.241-1.708c1.054,0.223,1.833,1.205,1.708,2.241l-1.703,11.256
					C173.572,157.846,172.869,158.475,172.081,158.612z"/>
			</g>
			<g>
				<path fill="#FFFF00" d="M180.484,153.807c-0.197,0.034-0.394,0.068-0.608,0.004c-1.054-0.223-1.833-1.205-1.708-2.241
					l1.389-8.969c0.223-1.054,1.205-1.833,2.241-1.708c1.054,0.223,1.833,1.205,1.708,2.241l-1.389,8.969
					C181.975,153.041,181.272,153.67,180.484,153.807z"/>
			</g>
		</g>
	</g>
</g>
<g>
	<g>
		<circle fill="#A15400" cx="191.8" cy="65" r="41.1"/>
		<path fill="#A15400" d="M232.9,65c0,22.7-18.4,41.1-41.1,41.1S150.7,87.7,150.7,65"/>
	</g>
	<ellipse fill="none" stroke="#000000" stroke-width="1.4754" stroke-miterlimit="10" cx="191.6" cy="65.2" rx="40.8" ry="40.6"/>
	<g>
		<g>
			<path fill="#FFC900" d="M218.1,58.6c-1.3,3.4-2.6,6-5.3,8c-3.2,2.5-6,5.3-3.5,10.2c0.9,1.7,0.7,4-2,5.2c-1.6,0.7-3.1,2-1.9,4.3
				c0.2,0.3,0,1.3-0.2,1.3c-2.4,0.7-2.1,3.2-3,4.8c-2,3.8-5.5,4-8.9,4.7c-0.9,0.2-1.2-0.7-1.4-1.4c-1.4-4.1-2.8-8.2-4.4-12.1
				c-0.6-1.6-0.8-3,0-4.4c1.7-3.1,0.5-5.7-1.3-8.1c-1-1.3-1.7-2.4-1.1-4.1c0.6-1.6-0.4-1.9-1.7-2.8c-3.8-2.5-7.3,0.1-11,0
				c-1.4,0-2.5-0.3-3.3-1.2c-2.4-2.6-5.2-4.4-4.7-9.2c0.5-4.2,1.5-7.1,4.6-9.8c1.4-1.3,1.6-3.9,3.5-5.2c0.3-0.2,0.6-0.8,0.7-0.7
				c3.8,1,7-2.2,10.8-1.5c1.5,0.3,2.2,0.6,1.8,1.9c-0.2,0.8-0.3,1.4,0.4,1.6c2.1,0.5,3.8,1.9,5.8,2.7c0.4,0.1,0.9,0.3,1-0.1
				c0.9-3.6,2.9-1.1,4.6-0.9c1.4,0.2,2.6,0.8,4.1,0.3c2.3-0.7,3.3,0.6,2.6,2.8c-0.1,0.4-0.4,0.7-0.2,1c2.1,3.5,3.2,7.4,5.7,10.9
				C212.3,60,214.8,59.5,218.1,58.6z"/>
			<path fill="#FFC900" d="M216.9,78.3c0.1,3.4-1.3,6.3-2.1,9.3c-0.2,0.8-1.1,1.3-1.8,0.9c-1.1-0.6-1.1-1.8-1-3
				C212.1,82.2,213.8,80,216.9,78.3z"/>
		</g>
	</g>
</g>
<g>
	<path d="M15.059,123.5l2.696-18.906h3.803l2.868,18.906H21.74l-0.451-3.373h-3.051L17.83,123.5H15.059z M20.988,117.817
		l-1.268-9.496h-0.043l-1.16,9.496H20.988z"/>
	<path d="M26.392,123.5v-18.906h6.488v2.503h-3.609v5.027h3.352v2.514h-3.352v8.862H26.392z"/>
	<path d="M38.756,114.616l-0.924-0.043v8.927h-2.879v-18.906h4.759c0.988,0,1.726,0.199,2.213,0.596s0.807,0.953,0.961,1.665
		c0.154,0.713,0.231,1.644,0.231,2.793s-0.122,2.025-0.365,2.626c-0.244,0.602-0.695,1.006-1.354,1.214
		c0.651,0.115,1.106,0.555,1.364,1.321c0.258,0.767,0.387,2.362,0.387,4.786s0.036,3.726,0.107,3.905h-2.879
		c-0.072-0.143-0.107-2.402-0.107-6.778c0-0.838-0.101-1.395-0.301-1.67C39.769,114.776,39.364,114.631,38.756,114.616z
		 M37.843,112.339h1.149c0.365,0,0.635-0.082,0.811-0.247c0.175-0.165,0.297-0.447,0.365-0.849c0.068-0.401,0.102-1.013,0.102-1.837
		v-0.118c0-1.024-0.086-1.693-0.258-2.009c-0.172-0.315-0.569-0.473-1.192-0.473h-0.978L37.843,112.339L37.843,112.339z"/>
	<path d="M45.91,123.5v-18.906h2.879V123.5H45.91z"/>
	<path d="M51.732,123.5v-18.906h2.879v8.701l2.879-8.701h2.976l-3.137,9.324l3.384,9.582h-3.04l-3.04-8.83v8.83
		C54.633,123.5,51.732,123.5,51.732,123.5z"/>
	<path d="M61.293,123.5l2.696-18.906h3.803L70.66,123.5h-2.686l-0.451-3.373h-3.051l-0.408,3.373H61.293z M67.223,117.817
		l-1.268-9.496h-0.043l-1.16,9.496H67.223z"/>
	<path d="M72.261,118.183v-1.687h2.729v1.901c0,1.053,0.089,1.792,0.269,2.218c0.179,0.426,0.516,0.639,1.01,0.639
		s0.822-0.175,0.983-0.526s0.242-0.924,0.242-1.719s-0.144-1.488-0.43-2.079c-0.287-0.591-0.741-1.208-1.364-1.853l-1.396-1.439
		c-0.652-0.68-1.159-1.386-1.52-2.116c-0.362-0.73-0.542-1.575-0.542-2.535c0-1.561,0.301-2.721,0.902-3.48
		c0.602-0.759,1.636-1.139,3.104-1.139c1.468,0,2.461,0.442,2.981,1.327c0.519,0.885,0.779,2.175,0.779,3.873v1.171h-2.653v-1.354
		c0-0.917-0.079-1.574-0.236-1.971c-0.158-0.397-0.46-0.596-0.908-0.596s-0.77,0.15-0.967,0.451
		c-0.197,0.301-0.295,0.752-0.295,1.354s0.1,1.082,0.301,1.439c0.2,0.358,0.562,0.816,1.085,1.375l1.558,1.687
		c0.78,0.845,1.37,1.701,1.767,2.567c0.397,0.867,0.596,1.812,0.596,2.836c0,1.769-0.297,3.076-0.892,3.921
		s-1.635,1.268-3.121,1.268s-2.521-0.471-3.104-1.413C72.552,121.361,72.261,119.987,72.261,118.183z"/>
	<path d="M15.907,149.9v-18.906h6.488v2.502h-3.609v5.027h3.352v2.514h-3.352v8.863H15.907z"/>
	<path d="M31.709,148.885c-0.659,0.82-1.717,1.23-3.174,1.23c-1.458,0-2.518-0.412-3.18-1.236c-0.663-0.822-0.994-2.102-0.994-3.834
		v-14.062h2.879v14.008c0,0.996,0.046,1.602,0.14,1.816c0.093,0.215,0.206,0.41,0.338,0.585c0.132,0.176,0.406,0.263,0.822,0.263
		c0.415,0,0.712-0.121,0.892-0.365c0.179-0.242,0.288-0.545,0.328-0.907c0.039-0.361,0.059-0.825,0.059-1.392v-14.008h2.879v14.062
		C32.697,146.785,32.368,148.064,31.709,148.885z"/>
	<path d="M35.05,144.582v-1.686h2.729v1.9c0,1.053,0.089,1.793,0.269,2.219c0.179,0.426,0.516,0.639,1.01,0.639
		s0.822-0.175,0.983-0.525c0.161-0.352,0.242-0.924,0.242-1.719s-0.144-1.488-0.43-2.079c-0.287-0.591-0.741-1.208-1.364-1.853
		l-1.396-1.439c-0.652-0.681-1.159-1.387-1.52-2.117c-0.362-0.73-0.542-1.574-0.542-2.535c0-1.561,0.301-2.721,0.902-3.48
		c0.602-0.758,1.636-1.139,3.104-1.139s2.461,0.443,2.981,1.327c0.519,0.885,0.779,2.175,0.779,3.872v1.172h-2.653v-1.354
		c0-0.917-0.079-1.574-0.236-1.972c-0.158-0.397-0.46-0.597-0.908-0.597s-0.77,0.15-0.967,0.451
		c-0.197,0.301-0.295,0.752-0.295,1.354s0.1,1.082,0.301,1.439c0.2,0.359,0.562,0.816,1.085,1.375l1.558,1.688
		c0.78,0.845,1.37,1.701,1.767,2.566c0.397,0.867,0.596,1.812,0.596,2.836c0,1.77-0.297,3.076-0.892,3.922
		c-0.595,0.845-1.635,1.268-3.121,1.268s-2.521-0.471-3.104-1.413C35.341,147.761,35.05,146.387,35.05,144.582z"/>
	<path d="M44.771,144.582v-1.686H47.5v1.9c0,1.053,0.089,1.793,0.269,2.219c0.179,0.426,0.516,0.639,1.01,0.639
		s0.822-0.175,0.983-0.525c0.161-0.352,0.242-0.924,0.242-1.719s-0.144-1.488-0.43-2.079c-0.287-0.591-0.741-1.208-1.364-1.853
		l-1.396-1.439c-0.652-0.681-1.159-1.387-1.52-2.117c-0.362-0.73-0.542-1.574-0.542-2.535c0-1.561,0.301-2.721,0.902-3.48
		c0.602-0.758,1.636-1.139,3.104-1.139s2.461,0.443,2.981,1.327c0.519,0.885,0.779,2.175,0.779,3.872v1.172h-2.653v-1.354
		c0-0.917-0.079-1.574-0.236-1.972c-0.158-0.397-0.46-0.597-0.908-0.597s-0.77,0.15-0.967,0.451
		c-0.197,0.301-0.295,0.752-0.295,1.354s0.1,1.082,0.301,1.439c0.2,0.359,0.562,0.816,1.085,1.375l1.558,1.688
		c0.78,0.845,1.37,1.701,1.767,2.566c0.397,0.867,0.596,1.812,0.596,2.836c0,1.77-0.297,3.076-0.892,3.922
		c-0.595,0.845-1.635,1.268-3.121,1.268s-2.521-0.471-3.104-1.413C45.063,147.761,44.771,146.387,44.771,144.582z"/>
	<path d="M62.958,135.85c0,2.033-0.552,3.283-1.654,3.748c1.346,0.451,2.02,1.938,2.02,4.459v0.482
		c-0.015,1.898-0.346,3.266-0.994,4.104s-1.707,1.258-3.174,1.258h-4.179v-18.906h4.093c1.411,0,2.41,0.327,2.997,0.982
		s0.884,1.753,0.892,3.293L62.958,135.85L62.958,135.85z M57.855,138.643h1.063c0.494,0,0.818-0.158,0.972-0.473
		s0.231-0.963,0.231-1.945v-1.139c-0.007-0.73-0.107-1.219-0.301-1.466s-0.526-0.37-0.999-0.37h-0.967L57.855,138.643
		L57.855,138.643z M57.855,147.666h1.021c0.573,0,0.974-0.197,1.203-0.592c0.229-0.393,0.344-1.099,0.344-2.115v-1.525
		c0-0.96-0.093-1.639-0.279-2.036c-0.187-0.397-0.544-0.597-1.074-0.597h-1.214L57.855,147.666L57.855,147.666z"/>
	<path d="M64.709,149.9l2.696-18.906h3.803l2.868,18.906H71.39l-0.451-3.373h-3.051L67.48,149.9H64.709z M70.639,144.217
		l-1.268-9.496h-0.043l-1.16,9.496H70.639z"/>
	<path d="M76.053,149.9v-18.906h2.879v16.457h3.642v2.449H76.053z"/>
	<path d="M84.228,149.9v-18.906h2.879v16.457h3.642v2.449H84.228z"/>
	<path d="M92.402,149.9v-18.906h6.338v2.48h-3.459v5.5h3.287v2.428h-3.287v6.016h3.588v2.482L92.402,149.9L92.402,149.9z"/>
	<path d="M104.971,141.016l-0.924-0.043v8.928h-2.879v-18.906h4.759c0.988,0,1.726,0.198,2.213,0.596s0.808,0.953,0.962,1.665
		c0.153,0.713,0.23,1.644,0.23,2.793s-0.122,2.024-0.365,2.626s-0.694,1.007-1.354,1.215c0.651,0.114,1.106,0.555,1.364,1.32
		c0.258,0.768,0.387,2.362,0.387,4.786c0,2.425,0.036,3.726,0.107,3.905h-2.879c-0.071-0.144-0.107-2.402-0.107-6.779
		c0-0.838-0.101-1.395-0.301-1.67S105.579,141.031,104.971,141.016z M104.058,138.738h1.149c0.365,0,0.636-0.082,0.811-0.246
		c0.176-0.165,0.298-0.447,0.365-0.85c0.068-0.4,0.103-1.013,0.103-1.836v-0.119c0-1.023-0.086-1.693-0.258-2.008
		c-0.172-0.315-0.569-0.473-1.192-0.473h-0.978C104.058,133.206,104.058,138.738,104.058,138.738z"/>
	<path d="M115.949,149.9v-18.906h4.243c1.39,0,2.397,0.41,3.023,1.229c0.627,0.82,0.94,2.028,0.94,3.626l0.011,8.529
		c0,1.904-0.315,3.301-0.945,4.189s-1.672,1.332-3.126,1.332L115.949,149.9L115.949,149.9z M118.828,147.666h0.945
		c0.53,0,0.915-0.172,1.155-0.516c0.239-0.344,0.359-0.975,0.359-1.891l-0.011-9.336c0-0.98-0.12-1.679-0.36-2.094
		c-0.239-0.416-0.653-0.623-1.24-0.623h-0.849L118.828,147.666L118.828,147.666z"/>
	<path d="M126.756,149.9v-18.906h6.338v2.48h-3.459v5.5h3.287v2.428h-3.287v6.016h3.588v2.482L126.756,149.9L126.756,149.9z"/>
	<path d="M135.146,144.582v-1.686h2.729v1.9c0,1.053,0.09,1.793,0.269,2.219s0.516,0.639,1.01,0.639s0.822-0.175,0.982-0.525
		c0.162-0.352,0.242-0.924,0.242-1.719s-0.144-1.488-0.43-2.079s-0.741-1.208-1.364-1.853l-1.396-1.439
		c-0.651-0.681-1.158-1.387-1.521-2.117c-0.361-0.73-0.542-1.574-0.542-2.535c0-1.561,0.301-2.721,0.902-3.48
		c0.602-0.758,1.637-1.139,3.104-1.139s2.462,0.443,2.98,1.327c0.52,0.885,0.779,2.175,0.779,3.872v1.172h-2.653v-1.354
		c0-0.917-0.079-1.574-0.236-1.972s-0.46-0.597-0.907-0.597c-0.448,0-0.771,0.15-0.967,0.451c-0.197,0.301-0.296,0.752-0.296,1.354
		s0.101,1.082,0.301,1.439c0.2,0.359,0.562,0.816,1.085,1.375l1.558,1.688c0.78,0.845,1.37,1.701,1.767,2.566
		c0.398,0.867,0.597,1.812,0.597,2.836c0,1.77-0.297,3.076-0.892,3.922c-0.595,0.845-1.635,1.268-3.121,1.268
		c-1.485,0-2.521-0.471-3.104-1.413C135.438,147.761,135.146,146.387,135.146,144.582z"/>
	<path d="M22.009,175.252c-0.681,0.842-1.638,1.263-2.874,1.263s-2.195-0.374-2.879-1.122s-1.026-1.839-1.026-3.271v-3.373h2.782
		v3.233c0,1.046,0.168,1.683,0.505,1.912c0.15,0.101,0.336,0.15,0.559,0.15c0.437,0,0.725-0.179,0.865-0.537
		s0.209-0.924,0.209-1.697v-14.416h2.879v14.276C23.029,173.217,22.689,174.411,22.009,175.252z"/>
	<path d="M24.898,176.3l2.696-18.906h3.803l2.868,18.906H31.58l-0.451-3.373h-3.051L27.67,176.3H24.898z M30.828,170.617
		l-1.268-9.496h-0.043l-1.16,9.496H30.828z"/>
	<path d="M36.242,176.3v-18.906h2.879v7.648h2.578v-7.648h2.879V176.3h-2.879v-8.787h-2.578v8.787H36.242z"/>
	<path d="M51.217,167.416l-0.924-0.043v8.927h-2.879v-18.906h4.759c0.988,0,1.726,0.198,2.213,0.597
		c0.487,0.396,0.807,0.952,0.961,1.664c0.154,0.713,0.231,1.645,0.231,2.793c0,1.15-0.122,2.025-0.365,2.627
		c-0.244,0.602-0.695,1.006-1.354,1.214c0.651,0.114,1.106,0.556,1.364,1.321c0.258,0.767,0.387,2.361,0.387,4.785
		c0,2.425,0.036,3.727,0.107,3.905h-2.879c-0.072-0.144-0.107-2.402-0.107-6.778c0-0.838-0.101-1.395-0.301-1.67
		C52.23,167.576,51.825,167.431,51.217,167.416z M50.304,165.139h1.149c0.365,0,0.635-0.082,0.811-0.247
		c0.175-0.165,0.297-0.447,0.365-0.849c0.068-0.4,0.102-1.014,0.102-1.837v-0.118c0-1.023-0.086-1.693-0.258-2.009
		s-0.569-0.473-1.192-0.473h-0.978L50.304,165.139L50.304,165.139z"/>
	<path d="M58.264,176.3v-18.906h6.338v2.481h-3.459v5.5h3.287v2.428h-3.287v6.016h3.588v2.481H58.264z"/>
	<path d="M66.653,170.982v-1.687h2.729v1.901c0,1.053,0.089,1.793,0.269,2.219c0.179,0.426,0.516,0.639,1.01,0.639
		s0.822-0.176,0.983-0.526s0.242-0.924,0.242-1.719s-0.144-1.487-0.43-2.079c-0.287-0.59-0.741-1.208-1.364-1.853l-1.396-1.439
		c-0.652-0.681-1.159-1.386-1.52-2.116c-0.362-0.73-0.542-1.575-0.542-2.535c0-1.561,0.301-2.721,0.902-3.48
		c0.602-0.759,1.636-1.139,3.104-1.139c1.468,0,2.461,0.442,2.981,1.326c0.519,0.885,0.779,2.176,0.779,3.873v1.171h-2.653v-1.354
		c0-0.917-0.079-1.573-0.236-1.972c-0.158-0.396-0.46-0.596-0.908-0.596s-0.77,0.15-0.967,0.451
		c-0.197,0.301-0.295,0.752-0.295,1.354s0.1,1.082,0.301,1.439c0.2,0.358,0.562,0.816,1.085,1.375l1.558,1.687
		c0.78,0.845,1.37,1.701,1.767,2.567c0.397,0.867,0.596,1.812,0.596,2.836c0,1.77-0.297,3.076-0.892,3.921s-1.635,1.268-3.121,1.268
		s-2.521-0.471-3.104-1.413C66.945,174.16,66.653,172.787,66.653,170.982z"/>
</g>
</svg>
