<?xml version="1.0" encoding="utf-8"?>
<!-- Generator: Adobe Illustrator 17.0.0, SVG Export Plug-In . SVG Version: 6.00 Build 0)  -->
<!DOCTYPE svg PUBLIC "-//W3C//DTD SVG 1.1//EN" "http://www.w3.org/Graphics/SVG/1.1/DTD/svg11.dtd">
<svg version="1.1" id="Layer_1" xmlns="http://www.w3.org/2000/svg" xmlns:xlink="http://www.w3.org/1999/xlink" x="0px" y="0px"
	 width="256px" height="256px" viewBox="0 0 256 256" enable-background="new 0 0 256 256" xml:space="preserve">
<g>
	<g>
		<polygon fill="#FF0000" points="78.5,160.3 44.2,83.8 76.3,57.2 194,55.9 211.1,86.4 177.4,163.2 144.4,138.3 164.5,87.7 
			87.5,88.1 113.6,136.3 		"/>
		<g>
			<g>
				<path fill="#FFFFFF" d="M78.5,166.5c-1.8,0-3.6-1-4.4-2.8L38.5,87.1c-0.9-2-0.4-4.4,1.3-5.8l34.5-28.6c1.2-1,2.7-1.3,4.1-1
					c1.5,0.3,2.7,1.3,3.3,2.7l35.7,76.7c1.1,2.4,0.1,5.3-2.3,6.4c-2.4,1.1-5.3,0.1-6.4-2.3l-33.1-71L48.8,86.4l34.1,73.1
					c1.1,2.4,0.1,5.3-2.3,6.4C79.9,166.3,79.2,166.5,78.5,166.5z"/>
			</g>
			<g>
				<path fill="#FFFFFF" d="M177,167.5c-0.7,0-1.4-0.1-2-0.5c-2.4-1.1-3.5-4-2.3-6.4l34.6-74.1l-26.8-22.3l-33.2,71.2
					c-1.1,2.4-4,3.5-6.4,2.3c-2.4-1.1-3.5-4-2.3-6.4l35.8-76.8c0.6-1.4,1.9-2.3,3.3-2.7c1.5-0.3,3,0,4.1,1l34.5,28.6
					c1.7,1.4,2.2,3.8,1.3,5.8l-36.1,77.5C180.6,166.4,178.8,167.5,177,167.5z"/>
			</g>
			<g>
				<path fill="#FFFFFF" d="M178.6,60L178.6,60L77.3,60.5c-2.7,0-4.8-1.6-4.8-4.3s2.2-4.3,4.8-4.3l0,0L178.6,52c2.7,0,4.8,1.3,4.8,4
					C183.4,58.7,181.3,60,178.6,60z"/>
			</g>
			<g>
				<path fill="#FFFFFF" d="M163.7,93L163.7,93l-71.4-0.1c-2.7,0-4.8-2.3-4.8-4.9c0-2.7,2.2-4.9,4.8-4.9l0,0l71.4,0.3
					c2.7,0,4.8,2.2,4.8,4.9C168.5,90.8,166.4,93,163.7,93z"/>
			</g>
		</g>
		<g>
			<g>
				<g>
					<path fill="#FFFFFF" d="M127.1,248.4c-12.7,0-24.7-4-34.9-11.5c-26-19.3-31.5-56.2-12.3-82.2c11-14.9,28.7-23.8,47.3-23.8
						c12.7,0,24.7,4,34.9,11.5c12.6,9.3,20.8,23,23.2,38.6c2.3,15.5-1.6,31-10.9,43.6C163.4,239.5,145.7,248.4,127.1,248.4z
						 M127.2,139.7c-15.8,0-30.8,7.6-40.2,20.2c-16.4,22.1-11.7,53.5,10.4,69.8c8.7,6.4,18.9,9.8,29.7,9.8
						c15.8,0,30.8-7.6,40.2-20.2c7.9-10.7,11.2-23.9,9.3-37.1c-2-13.2-9-24.8-19.7-32.8C148.2,143.1,138,139.7,127.2,139.7z"/>
				</g>
			</g>
			<g>
				<g>
					<polygon fill="#FFFFFF" points="113.7,137.1 104.1,158.8 80.4,161.3 					"/>
				</g>
			</g>
			<g>
				<g>
					<polygon fill="#FFFFFF" points="147,240.1 126.6,228.1 105.9,239.8 					"/>
				</g>
			</g>
			<g>
				<g>
					<polygon fill="#FFFFFF" points="174.1,162 150.6,159.3 141.2,137.4 					"/>
				</g>
			</g>
			<g>
				<g>
					<polygon fill="#FFFFFF" points="86,225.6 90.9,202.4 73.1,186.6 					"/>
				</g>
			</g>
			<g>
				<g>
					<polygon fill="#FFFFFF" points="181.4,185.9 163.7,201.6 168.5,224.9 					"/>
				</g>
			</g>
		</g>
	</g>
	<path fill="#FFFF00" d="M127.2,139.7c-15.8,0-30.8,7.6-40.2,20.2c-16.4,22.1-11.7,53.5,10.4,69.8c8.7,6.4,18.9,9.8,29.7,9.8
		c15.8,0,30.8-7.6,40.2-20.2c7.9-10.7,11.2-23.9,9.3-37.1c-2-13.2-9-24.8-19.7-32.8C148.2,143.1,138,139.7,127.2,139.7z"/>
	<path fill="#ABD100" d="M145.3,227.9c-4.8,5,11.8-7.4,16-13.1c6.7-9.1,9.5-20.3,7.9-31.5c-1.7-11.2-7.6-21.1-16.7-27.8
		c-1.8-1.4-3.8-2.6-5.8-3.6c0,0,13.9,19.1,12.9,36.9S152.8,220.2,145.3,227.9z"/>
	<path fill="#FF9F00" d="M95.4,188.3c-1-21.7,16.8-38.3,16.8-38.3c-7.5,2.9-14.2,7.8-19.1,14.4c-13.9,18.8-10,45.4,8.9,59.4
		c2.3,1.7,9.2,6.2,7.2,4.3C104.5,223.8,96.4,210,95.4,188.3z"/>
</g>
<g>
	<path fill="#FFFFFF" d="M192,10.3c-17.1,0-32.4,8-42.3,20.6h-0.3v0.3c-7.1,9.1-11.4,20.6-11.4,33c0,29.7,24.2,53.9,53.9,53.9
		s53.9-24.2,53.9-53.9S221.7,10.3,192,10.3z"/>
	<path d="M192,10.3c-17.1,0-32.4,8-42.3,20.6h-0.3v0.3c-7.1,9.1-11.4,20.6-11.4,33c0,29.7,24.2,53.9,53.9,53.9s53.9-24.2,53.9-53.9
		S221.7,10.3,192,10.3z M208.6,100.9l-23.1-3L183.7,78l17.6-10.7L217,82.4L208.6,100.9z M171.2,103.3L151.9,89l-2.1-14.7l11.8-7.4
		L181.5,78l1.9,20.2L171.2,103.3z M149.1,72.2L142,57.4l9.3-15.3l9.7,2l-0.2,20.8L149.1,72.2z M188.3,19l21.3,2.9l7.3,13.6
		l-16.1,7.9l-16.5-11.5L188.3,19z M231.4,74.4l-12.6,6.7l-16.9-16.2l0.2-19.7l16-7.9L232.3,50L231.4,74.4z M233.5,74.9l1-24.5
		l7.1-0.9c1.4,4.7,2.1,9.6,2.1,14.7c0,4.6-0.6,9-1.7,13.2L233.5,74.9z M240.9,47.4l-7.1,0.9l-14.6-13.1L212,21.9l6.1-2.4
		C228.7,25.7,236.9,35.6,240.9,47.4z M178.8,14.2l7.4,4.1L182,32.1L162.3,42l-10.5-2.1l-0.2-8.1C158.5,23.4,167.9,17,178.8,14.2z
		 M149.7,40.5l-8.5,14.1c1.4-7.3,4.3-14.1,8.4-20L149.7,40.5z M140.5,59.2l7.1,14.9l2.1,14.8l-2.9,0.4c-4.1-7.4-6.5-16-6.5-25.1
		C140.3,62.5,140.4,60.8,140.5,59.2z M172.4,112.1l-0.2-6.8l12.5-5.3l23.9,3.1l4.4,8.4c-6.4,2.9-13.5,4.5-21,4.5
		C185.1,115.9,178.5,114.5,172.4,112.1z"/>
</g>
<g>
	<path fill="#FFDA44" d="M150.4,65.1c0,5,0.9,9.8,2.5,14.2l38.4,3.6l38.4-3.6c1.6-4.4,2.5-9.2,2.5-14.2s-0.9-9.8-2.5-14.2l-38.4-3.6
		l-38.4,3.6C151.3,55.3,150.4,60.1,150.4,65.1"/>
	<path fill="#D80027" d="M229.7,50.9c-5.8-15.6-20.8-26.7-38.4-26.7s-32.6,11.1-38.4,26.7H229.7z"/>
	<path fill="#D80027" d="M152.9,79.4c5.8,15.6,20.8,26.7,38.4,26.7s32.6-11.1,38.4-26.7C229.7,79.4,152.9,79.4,152.9,79.4z"/>
</g>
<g>
	<ellipse fill="none" stroke="#000000" stroke-miterlimit="10" cx="191.6" cy="65.2" rx="40.8" ry="40.6"/>
</g>
<g>
	<g>
		<g>
			<path fill="#FFFF00" d="M22.4,220.3h-7.2l-0.7-5.2h-2l-0.6,5.2H4.6l4.6-32h8.4L22.4,220.3z M17.9,217.3H19l-3.9-26h-3.2l-3.7,26
				h1.2l0.6-5.2h7.3L17.9,217.3z M17.1,211.6H9.9l2.1-17.5h2.7L17.1,211.6z M13.3,208.6h0.4l-0.2-1.5L13.3,208.6z"/>
		</g>
		<g>
			<path fill="#FFFF00" d="M35.2,220.3h-13v-32h7.4v25.2h5.6V220.3z M25.2,217.3h7v-0.8h-5.6v-25.2h-1.4V217.3z"/>
		</g>
		<g>
			<path fill="#FFFF00" d="M42.1,220.3h-7.4v-32h12.9v6.8h-5.5v4.7h5.1v6.8h-5.1V220.3z M37.7,217.3h1.4v-13.6h5.1v-0.8h-5.1v-10.7
				h5.5v-0.8h-6.9V217.3z"/>
		</g>
		<g>
			<path fill="#FFFF00" d="M64.2,220.3h-7.5l-0.4-0.8c-0.2-0.4-0.3-0.6-0.3-11.1c0-1-0.1-1.5-0.2-1.6c-0.1,0-0.3-0.1-0.6-0.1v13.6
				h-7.4v-32h8.8c1.9,0,3.3,0.4,4.3,1.2s1.7,2,2,3.4c0.3,1.2,0.4,2.7,0.4,4.6c0,2-0.2,3.5-0.7,4.6c-0.2,0.5-0.5,0.9-0.8,1.3
				c0.3,0.4,0.6,0.9,0.8,1.6c0.5,1.4,0.7,3.8,0.7,7.8c0,4.1,0.1,5.3,0.1,5.5L64.2,220.3z M59,217.3h1.4c0-0.9,0-2.3,0-4.5
				c0-4.6-0.3-6.3-0.5-6.8c-0.3-0.9-0.7-1-0.9-1l-0.2-2.9c0.6-0.2,0.9-0.5,1.1-1c0.2-0.5,0.5-1.5,0.5-3.5c0-1.6-0.1-3-0.3-4
				c-0.2-0.8-0.5-1.3-1-1.7s-1.3-0.6-2.4-0.6h-5.8v26h1.4v-13.7l3,0.1c1.4,0,2.4,0.5,3,1.3c0.5,0.7,0.7,1.8,0.7,3.4
				C59,213.5,59,216,59,217.3z M55.5,203.2h-3.3v-11.5h3c1.9,0,2.8,0.8,3.1,1.5c0.4,0.7,0.6,1.9,0.6,3.8v0.2c0,1.4-0.1,2.4-0.2,3.1
				c-0.2,1-0.5,1.7-1,2.1C57.2,202.9,56.4,203.2,55.5,203.2z M55.2,200.2h0.3c0.1,0,0.2,0,0.2,0c0-0.1,0.1-0.2,0.1-0.4
				c0.1-0.4,0.1-1.1,0.1-2.6V197c0-1.4-0.1-2-0.2-2.2c-0.1,0-0.3-0.1-0.5-0.1C55.2,194.7,55.2,200.2,55.2,200.2z"/>
		</g>
		<g>
			<path fill="#FFFF00" d="M77.3,220.3H64.4v-32h12.7v6.8h-5.3v5.4h5v6.7h-5v6.2h5.5C77.3,213.4,77.3,220.3,77.3,220.3z M67.4,217.3
				h6.9v-0.8h-5.5v-12.2h5v-0.7h-5v-11.4h5.3v-0.8h-6.7C67.4,191.4,67.4,217.3,67.4,217.3z"/>
		</g>
		<g>
			<path fill="#FFFF00" d="M85.7,220.3h-7.8v-32h8c2.6,0,4.6,0.8,5.8,2.5c1.2,1.5,1.7,3.7,1.7,6.5v13.1c0,3.3-0.6,5.7-1.7,7.3
				C90.4,219.4,88.4,220.3,85.7,220.3z M80.8,217.3h4.8c1.7,0,2.9-0.5,3.6-1.4c0.8-1.1,1.2-3,1.2-5.5v-13.1c0-2.1-0.4-3.7-1.1-4.6
				c-0.7-0.9-1.8-1.3-3.4-1.3h-5v25.9H80.8z M85.2,216.9h-2.9v-25.1H85c1.4,0,2.6,0.6,3.2,1.7c0.5,0.9,0.8,2.1,0.8,4v14.3
				c0,1.8-0.3,3-0.8,3.8C87.7,216.1,86.8,216.9,85.2,216.9z M85.2,194.7v19.1c0.3,0,0.4-0.1,0.5-0.1c0,0,0.3-0.4,0.3-2v-14.3
				c0-1.7-0.2-2.3-0.3-2.5C85.6,194.9,85.5,194.8,85.2,194.7z"/>
		</g>
		<g>
			<path fill="#FFFF00" d="M102,220.6c-2.7,0-4.8-0.9-6.1-2.7c-1.2-1.7-1.8-4-1.8-7.2v-13.2c0-8.2,5-9.5,8-9.5c2.7,0,4.8,0.9,6,2.6
				c1.2,1.6,1.8,3.9,1.8,6.8v13.2c0,3.2-0.6,5.5-1.8,7.2C106.7,219.7,104.7,220.6,102,220.6z M102,191c-2.3,0-5,0.7-5,6.5v13.2
				c0,2.5,0.4,4.3,1.3,5.4c0.7,1,1.9,1.5,3.7,1.5c1.7,0,2.9-0.5,3.6-1.5c0.8-1.1,1.2-3,1.2-5.5v-13.2c0-2.3-0.4-4-1.2-5.1
				C104.9,191.4,103.8,191,102,191z M101.9,216.8c-1.4,0-2.5-0.7-3-2c-0.3-0.9-0.5-2.2-0.5-4.1v-13.5c0-1.6,0.2-2.8,0.6-3.6
				c0.6-1.2,1.6-1.8,2.9-1.8c1.4,0,2.4,0.7,2.9,1.9c0.3,0.8,0.5,2,0.5,3.6v13.5c0,1.9-0.1,3.2-0.5,4
				C104.4,216.1,103.4,216.8,101.9,216.8z M102,194.8c-0.1,0-0.2,0-0.2,0c-0.1,0.3-0.3,0.9-0.3,2.4v13.5c0,2,0.2,2.8,0.3,3
				c0,0,0,0,0.2,0c0.1,0,0.2,0,0.2,0c0.1-0.3,0.3-1.1,0.3-3v-13.5c0-1.5-0.2-2.2-0.3-2.4C102.2,194.8,102.1,194.8,102,194.8z"/>
		</g>
		<g>
			<path fill="#FFFF00" d="M124.7,220.3h-7.9v-32h8c2.6,0,4.6,0.8,5.8,2.5c1.2,1.5,1.7,3.7,1.7,6.5v13.1c0,3.3-0.6,5.7-1.7,7.3
				C129.4,219.4,127.4,220.3,124.7,220.3z M119.8,217.3h4.9c1.7,0,2.9-0.5,3.6-1.4c0.8-1.1,1.2-3,1.2-5.5v-13.1
				c0-2.1-0.4-3.7-1.1-4.6c-0.7-0.9-1.8-1.3-3.4-1.3h-5v25.9H119.8z M124.2,216.9h-2.9v-25.1h2.8c1.4,0,2.6,0.6,3.2,1.7
				c0.5,0.9,0.8,2.1,0.8,4v14.3c0,1.8-0.3,3-0.8,3.8C126.7,216.1,125.8,216.9,124.2,216.9z M124.2,194.7v19.1c0.3,0,0.4-0.1,0.5-0.1
				c0,0,0.3-0.4,0.3-2v-14.3c0-1.7-0.3-2.3-0.4-2.5C124.6,194.9,124.5,194.8,124.2,194.7z"/>
		</g>
		<g>
			<path fill="#FFFF00" d="M141,220.3h-7.4v-32h7.4V220.3z M136.5,217.3h1.4v-26h-1.4V217.3z"/>
		</g>
		<g>
			<path fill="#FFFF00" d="M155.5,220.6c-2.8,0-4.8-1-6-2.9c-1.1-1.7-1.6-4-1.6-7.1v-4.1h5.3l-1.8-1.8c-1.1-1.2-2-2.4-2.6-3.6
				c-0.7-1.3-1-2.9-1-4.5c0-2.8,0.6-4.8,1.7-6.3c1.2-1.5,3.2-2.3,5.9-2.3c2.8,0,4.8,0.9,5.9,2.8c0.9,1.6,1.4,3.8,1.4,6.7v3.3H158
				l1,1.1c1.3,1.4,2.3,2.9,3,4.3c0.7,1.5,1,3.2,1,5c0,3.1-0.5,5.3-1.6,6.9C160.3,219.7,158.3,220.6,155.5,220.6z M150.9,209.6v1.1
				c0,2.5,0.4,4.3,1.1,5.5c0.2,0.4,0.9,1.5,3.5,1.5c1.8,0,2.9-0.4,3.6-1.3c0.7-1,1.1-2.8,1.1-5.1c0-1.3-0.3-2.6-0.8-3.7
				c-0.5-1.2-1.4-2.4-2.4-3.5l-2.4-2.6c-0.9-1-1.5-1.7-1.9-2.4c-0.4-0.8-0.7-1.7-0.7-2.9s0.2-2.2,0.7-2.9c0.6-0.9,1.5-1.4,2.7-1.4
				c1.3,0,2.3,0.7,2.8,1.9c0.3,0.8,0.5,1.9,0.5,3.6v0.6h1.1v-0.3c0-2.3-0.3-4.1-1-5.2c-0.2-0.3-0.8-1.3-3.3-1.3
				c-1.8,0-3,0.4-3.6,1.2c-0.7,0.9-1.1,2.4-1.1,4.4c0,1.2,0.2,2.3,0.7,3.2c0.5,1,1.2,1.9,2.1,2.9l2.1,2.2c1.1,1.1,1.9,2.2,2.4,3.2
				c0.5,1.1,0.8,2.4,0.8,3.8c0,1.5-0.2,2.5-0.5,3.3c-0.3,0.6-1,1.7-2.9,1.7c-1.4,0-2.4-0.7-2.9-1.9c-0.4-0.9-0.5-2.1-0.5-4v-1.4
				h-1.2V209.6z M155.1,208.8v2.2c0,1.9,0.2,2.6,0.3,2.8c0,0.1,0.2,0.1,0.3,0c0.1-0.2,0.2-0.7,0.2-1.9c0-1-0.2-1.8-0.5-2.5
				C155.3,209.2,155.2,209,155.1,208.8z M155.5,194.7c-0.2,0-0.3,0-0.3,0s-0.2,0.3-0.2,1.2c0,0.8,0.1,1.3,0.3,1.5
				c0.1,0.1,0.2,0.3,0.4,0.6v-0.9C155.7,195.6,155.6,195,155.5,194.7z"/>
		</g>
		<g>
			<path fill="#FFFF00" d="M172.3,220.3h-7.4v-25.1h-3.4v-6.8h14v6.8h-3.3v25.1H172.3z M167.9,217.3h1.4v-25.1h3.3v-0.8h-8v0.8h3.4
				v25.1H167.9z"/>
		</g>
		<g>
			<path fill="#FFFF00" d="M187.9,220.3H175v-32h12.7v6.8h-5.3v5.4h5v6.7h-5v6.2h5.5V220.3z M178,217.3h6.9v-0.8h-5.5v-12.2h5v-0.7
				h-5v-11.4h5.3v-0.8H178V217.3z"/>
		</g>
		<g>
			<path fill="#FFFF00" d="M195.8,220.3h-7.4v-32h12.9v6.8h-5.5v4.7h5.1v6.8h-5.1V220.3z M191.4,217.3h1.4v-13.6h5.1v-0.8h-5.1
				v-10.7h5.5v-0.8h-6.9V217.3z"/>
		</g>
		<g>
			<path fill="#FFFF00" d="M217.4,220.3h-7.2l-0.7-5.2h-2l-0.6,5.2h-7.3l4.6-32h8.4L217.4,220.3z M212.9,217.3h1.1l-3.9-26h-3.2
				l-3.7,26h1.2l0.6-5.2h7.3L212.9,217.3z M212.1,211.6h-7.2l2.1-17.5h2.7L212.1,211.6z M208.3,208.6h0.4l-0.2-1.5L208.3,208.6z"/>
		</g>
		<g>
			<path fill="#FFFF00" d="M233.4,220.3h-5.7l-3.5-10v10h-7.1v-32h6l3.3,9.2v-9.2h7V220.3z M229.9,217.3h0.6v-26h-1v8l0.3,7.8
				l-2.9,0.6l-5.8-16.4h-0.9v26h1.1v-8.9l-0.2-7.6l2.9-0.5L229.9,217.3z"/>
		</g>
		<g>
			<path fill="#FFFF00" d="M242.3,220.6c-2.7,0-4.8-0.9-6.1-2.7c-1.2-1.7-1.8-4-1.8-7.2v-13.2c0-8.2,5-9.5,8-9.5
				c2.7,0,4.8,0.9,6,2.6c1.2,1.6,1.8,3.9,1.8,6.8v13.2c0,3.2-0.6,5.5-1.8,7.2C247.1,219.7,245.1,220.6,242.3,220.6z M242.4,191
				c-2.3,0-5,0.7-5,6.5v13.2c0,2.5,0.4,4.3,1.3,5.4c0.7,1,1.9,1.5,3.7,1.5c1.7,0,2.9-0.5,3.6-1.5c0.8-1.1,1.2-3,1.2-5.5v-13.2
				c0-2.3-0.4-4-1.2-5.1C245.3,191.4,244.1,191,242.4,191z M242.3,216.8c-1.4,0-2.5-0.7-3-2c-0.3-0.9-0.5-2.2-0.5-4.1v-13.5
				c0-1.6,0.2-2.8,0.6-3.6c0.6-1.2,1.6-1.8,2.9-1.8c1.4,0,2.4,0.7,2.9,1.9c0.3,0.8,0.5,2,0.5,3.6v13.5c0,1.9-0.1,3.2-0.5,4
				C244.8,216.1,243.7,216.8,242.3,216.8z M242.4,194.8c-0.1,0-0.2,0-0.2,0c-0.1,0.3-0.3,0.9-0.3,2.4v13.5c0,2,0.2,2.8,0.3,3
				c0,0,0,0,0.2,0c0.1,0,0.2,0,0.2,0c0.1-0.3,0.3-1.1,0.3-3v-13.5c0-1.5-0.2-2.2-0.3-2.4C242.5,194.8,242.5,194.8,242.4,194.8z"/>
		</g>
	</g>
	<g>
		<g>
			<path d="M6.3,218.8l4.1-29h5.8l4.4,29h-4.1l-0.7-5.2h-4.7l-0.6,5.2H6.3z M15.4,210.1l-1.9-14.5h-0.1l-1.8,14.5H15.4z"/>
		</g>
		<g>
			<path d="M23.7,218.8v-29h4.4V215h5.6v3.8H23.7z"/>
		</g>
		<g>
			<path d="M36.2,218.8v-29h9.9v3.8h-5.5v7.7h5.1v3.8h-5.1v13.6h-4.4V218.8z"/>
		</g>
		<g>
			<path d="M55.1,205.2l-1.4-0.1v13.7h-4.4v-29h7.3c1.5,0,2.6,0.3,3.4,0.9c0.7,0.6,1.2,1.5,1.5,2.6c0.2,1.1,0.4,2.5,0.4,4.3
				s-0.2,3.1-0.6,4s-1.1,1.5-2.1,1.9c1,0.2,1.7,0.8,2.1,2c0.4,1.2,0.6,3.6,0.6,7.3s0.1,5.7,0.2,6h-4.4c-0.1-0.2-0.2-3.7-0.2-10.4
				c0-1.3-0.2-2.1-0.5-2.6C56.7,205.4,56.1,205.2,55.1,205.2z M53.7,201.7h1.8c0.6,0,1-0.1,1.2-0.4s0.5-0.7,0.6-1.3s0.2-1.6,0.2-2.8
				V197c0-1.6-0.1-2.6-0.4-3.1c-0.3-0.5-0.9-0.7-1.8-0.7h-1.5v8.5H53.7z"/>
		</g>
		<g>
			<path d="M65.9,218.8v-29h9.7v3.8h-5.3v8.4h5v3.7h-5v9.2h5.5v3.8h-9.9V218.8z"/>
		</g>
		<g>
			<path d="M79.3,218.8v-29h6.5c2.1,0,3.7,0.6,4.6,1.9c1,1.3,1.4,3.1,1.4,5.6v13.1c0,2.9-0.5,5.1-1.4,6.4c-1,1.4-2.6,2-4.8,2H79.3z
				 M83.7,215.4h1.4c0.8,0,1.4-0.3,1.8-0.8s0.6-1.5,0.6-2.9v-14.3c0-1.5-0.2-2.6-0.6-3.2c-0.4-0.6-1-1-1.9-1h-1.3V215.4z"/>
		</g>
		<g>
			<path d="M106.8,217c-1,1.4-2.6,2.1-4.8,2.1s-3.8-0.7-4.9-2.1s-1.6-3.5-1.6-6.3v-13.2c0-5.3,2.2-8,6.5-8c2.2,0,3.8,0.7,4.8,2
				s1.5,3.3,1.5,5.9v13.2C108.3,213.5,107.8,215.6,106.8,217z M100.3,214.3c0.3,0.7,0.8,1,1.6,1c0.8,0,1.3-0.3,1.6-1
				c0.3-0.7,0.4-1.9,0.4-3.5v-13.5c0-1.4-0.1-2.4-0.4-3s-0.8-0.9-1.5-0.9c-0.8,0-1.3,0.3-1.6,0.9c-0.3,0.6-0.5,1.6-0.5,3v13.5
				C100,212.4,100.1,213.6,100.3,214.3z"/>
		</g>
		<g>
			<path d="M118.3,218.8v-29h6.5c2.1,0,3.7,0.6,4.6,1.9c1,1.3,1.4,3.1,1.4,5.6v13.1c0,2.9-0.5,5.1-1.4,6.4c-1,1.4-2.6,2-4.8,2H118.3
				z M122.7,215.4h1.4c0.8,0,1.4-0.3,1.8-0.8s0.6-1.5,0.6-2.9v-14.3c0-1.5-0.2-2.6-0.6-3.2s-1-1-1.9-1h-1.3V215.4z"/>
		</g>
		<g>
			<path d="M135,218.8v-29h4.4v29H135z"/>
		</g>
		<g>
			<path d="M149.4,210.6V208h4.2v2.9c0,1.6,0.1,2.7,0.4,3.4s0.8,1,1.5,1c0.8,0,1.3-0.3,1.5-0.8s0.4-1.4,0.4-2.6s-0.2-2.3-0.7-3.2
				c-0.4-0.9-1.1-1.9-2.1-2.8l-2.1-2.2c-1-1-1.8-2.1-2.3-3.2s-0.8-2.4-0.8-3.9c0-2.4,0.5-4.2,1.4-5.3c0.9-1.2,2.5-1.7,4.8-1.7
				c2.2,0,3.8,0.7,4.6,2c0.8,1.4,1.2,3.3,1.2,5.9v1.8h-4.1v-2.1c0-1.4-0.1-2.4-0.4-3c-0.2-0.6-0.7-0.9-1.4-0.9s-1.2,0.2-1.5,0.7
				s-0.5,1.2-0.5,2.1c0,0.9,0.2,1.7,0.5,2.2s0.9,1.2,1.7,2.1l2.4,2.6c1.2,1.3,2.1,2.6,2.7,3.9c0.6,1.3,0.9,2.8,0.9,4.3
				c0,2.7-0.5,4.7-1.4,6s-2.5,1.9-4.8,1.9s-3.9-0.7-4.8-2.2S149.4,213.4,149.4,210.6z"/>
		</g>
		<g>
			<path d="M166.4,218.8v-25.1H163v-3.8h11v3.8h-3.3v25.1H166.4z"/>
		</g>
		<g>
			<path d="M176.5,218.8v-29h9.7v3.8h-5.3v8.4h5v3.7h-5v9.2h5.5v3.8h-9.9V218.8z"/>
		</g>
		<g>
			<path d="M189.9,218.8v-29h9.9v3.8h-5.5v7.7h5.1v3.8h-5.1v13.6h-4.4V218.8z"/>
		</g>
		<g>
			<path d="M201.3,218.8l4.1-29h5.8l4.4,29h-4.1l-0.7-5.2h-4.7l-0.6,5.2H201.3z M210.4,210.1l-1.9-14.5h-0.1l-1.8,14.5H210.4z"/>
		</g>
		<g>
			<path d="M218.7,218.8v-29h3.5l6.1,17.4l-0.3-7.9v-9.5h4v29h-3.1l-6.3-18l0.2,7.6v10.4H218.7z"/>
		</g>
		<g>
			<path d="M247.2,217c-1,1.4-2.6,2.1-4.8,2.1s-3.8-0.7-4.9-2.1s-1.6-3.5-1.6-6.3v-13.2c0-5.3,2.2-8,6.5-8c2.2,0,3.8,0.7,4.8,2
				s1.5,3.3,1.5,5.9v13.2C248.7,213.5,248.2,215.6,247.2,217z M240.7,214.3c0.3,0.7,0.8,1,1.6,1s1.3-0.3,1.6-1s0.4-1.9,0.4-3.5
				v-13.5c0-1.4-0.1-2.4-0.4-3c-0.3-0.6-0.8-0.9-1.5-0.9c-0.8,0-1.3,0.3-1.6,0.9c-0.3,0.6-0.5,1.6-0.5,3v13.5
				C240.3,212.4,240.5,213.6,240.7,214.3z"/>
		</g>
	</g>
</g>
<g>
	<path d="M95.8,183.3v-20.1h-2.7v-3.1h8.8v3.1h-2.6v20.1H95.8z"/>
	<path d="M108.6,172.4l-1.1-0.1v11H104v-23.2h5.8c1.2,0,2.1,0.2,2.7,0.7s1,1.2,1.2,2c0.2,0.9,0.3,2,0.3,3.4s-0.1,2.5-0.4,3.2
		s-0.9,1.2-1.7,1.5c0.8,0.1,1.4,0.7,1.7,1.6s0.5,2.9,0.5,5.9s0,4.6,0.1,4.8h-3.5c-0.1-0.2-0.1-2.9-0.1-8.3c0-1-0.1-1.7-0.4-2
		S109.3,172.4,108.6,172.4z M107.5,169.6h1.4c0.4,0,0.8-0.1,1-0.3s0.4-0.5,0.4-1s0.1-1.2,0.1-2.3v-0.1c0-1.3-0.1-2.1-0.3-2.5
		s-0.7-0.6-1.5-0.6h-1.2v6.8H107.5z"/>
	<path d="M126,181.9c-0.8,1.1-2.1,1.7-3.9,1.7s-3.1-0.6-3.9-1.7c-0.8-1.1-1.2-2.8-1.2-5.1v-10.6c0-4.3,1.7-6.4,5.2-6.4
		c1.8,0,3.1,0.5,3.9,1.6s1.2,2.7,1.2,4.8v10.6C127.2,179.1,126.8,180.8,126,181.9z M120.8,179.7c0.2,0.5,0.6,0.8,1.3,0.8
		s1.1-0.3,1.3-0.8s0.3-1.5,0.3-2.8V166c0-1.1-0.1-1.9-0.3-2.4c-0.2-0.5-0.6-0.8-1.2-0.8s-1,0.3-1.3,0.8c-0.2,0.5-0.4,1.3-0.4,2.4
		v10.8C120.5,178.2,120.6,179.1,120.8,179.7z"/>
	<path d="M130.4,183.3v-23.2h8v3.1H134v6.2h4.1v3.1H134v10.9h-3.6V183.3z"/>
	<path d="M140.9,183.3v-23.2h7.8v3h-4.2v6.8h4v3h-4v7.4h4.4v3H140.9z"/>
	<path d="M160.4,181.9c-0.8,1.1-2.1,1.7-3.9,1.7c-1.8,0-3.1-0.6-3.9-1.7c-0.8-1.1-1.2-2.8-1.2-5.1v-10.6c0-4.3,1.7-6.4,5.2-6.4
		c1.8,0,3.1,0.5,3.9,1.6c0.8,1.1,1.2,2.7,1.2,4.8v10.6C161.6,179.1,161.2,180.8,160.4,181.9z M155.2,179.7c0.2,0.5,0.6,0.8,1.3,0.8
		s1.1-0.3,1.3-0.8s0.3-1.5,0.3-2.8V166c0-1.1-0.1-1.9-0.3-2.4s-0.6-0.8-1.2-0.8s-1,0.3-1.3,0.8c-0.2,0.5-0.4,1.3-0.4,2.4v10.8
		C154.9,178.2,155,179.1,155.2,179.7z"/>
</g>
</svg>
