<?xml version="1.0" encoding="utf-8"?>
<!-- Generator: Adobe Illustrator 17.0.0, SVG Export Plug-In . SVG Version: 6.00 Build 0)  -->
<!DOCTYPE svg PUBLIC "-//W3C//DTD SVG 1.1//EN" "http://www.w3.org/Graphics/SVG/1.1/DTD/svg11.dtd">
<svg version="1.1" id="Layer_1" xmlns="http://www.w3.org/2000/svg" xmlns:xlink="http://www.w3.org/1999/xlink" x="0px" y="0px"
	 width="256px" height="256px" viewBox="0 0 256 256" enable-background="new 0 0 256 256" xml:space="preserve">
	<g>
		<g>
			<polygon fill="#56BD00" points="78.5,160.3 44.2,83.8 76.3,57.2 194,55.9 211.1,86.4 177.4,163.2 144.4,138.3 164.5,87.7 
			87.5,88.1 113.6,136.3 		"/>
			<g>
				<g>
					<path fill="#FFFFFF" d="M78.5,166.5c-1.8,0-3.6-1-4.4-2.8L38.5,87.1c-0.9-2-0.4-4.4,1.3-5.8l34.5-28.6c1.2-1,2.7-1.3,4.1-1
					c1.5,0.3,2.7,1.3,3.3,2.7l35.7,76.7c1.1,2.4,0.1,5.3-2.3,6.4c-2.4,1.1-5.3,0.1-6.4-2.3l-33.1-71L48.8,86.4l34.1,73.1
					c1.1,2.4,0.1,5.3-2.3,6.4C79.9,166.3,79.2,166.5,78.5,166.5z"/>
				</g>
				<g>
					<path fill="#FFFFFF" d="M177,167.5c-0.7,0-1.4-0.1-2-0.5c-2.4-1.1-3.5-4-2.3-6.4l34.6-74.1l-26.8-22.3l-33.2,71.2
					c-1.1,2.4-4,3.5-6.4,2.3c-2.4-1.1-3.5-4-2.3-6.4l35.8-76.8c0.6-1.4,1.9-2.3,3.3-2.7c1.5-0.3,3,0,4.1,1l34.5,28.6
					c1.7,1.4,2.2,3.8,1.3,5.8l-36.1,77.5C180.6,166.4,178.8,167.5,177,167.5z"/>
				</g>
				<g>
					<path fill="#FFFFFF" d="M178.6,60L178.6,60L77.3,60.5c-2.7,0-4.8-1.6-4.8-4.3s2.2-4.3,4.8-4.3l0,0L178.6,52c2.7,0,4.8,1.3,4.8,4
					C183.4,58.7,181.3,60,178.6,60z"/>
				</g>
				<g>
					<path fill="#FFFFFF" d="M163.7,93L163.7,93l-71.4-0.1c-2.7,0-4.8-2.3-4.8-4.9c0-2.7,2.2-4.9,4.8-4.9l0,0l71.4,0.3
					c2.7,0,4.8,2.2,4.8,4.9C168.5,90.8,166.4,93,163.7,93z"/>
				</g>
			</g>
			<g>
				<g>
					<g>
						<path fill="#FFFFFF" d="M127.1,248.4c-12.7,0-24.7-4-34.9-11.5c-26-19.3-31.5-56.2-12.3-82.2c11-14.9,28.7-23.8,47.3-23.8
						c12.7,0,24.7,4,34.9,11.5c12.6,9.3,20.8,23,23.2,38.6c2.3,15.5-1.6,31-10.9,43.6C163.4,239.5,145.7,248.4,127.1,248.4z
						 M127.2,139.7c-15.8,0-30.8,7.6-40.2,20.2c-16.4,22.1-11.7,53.5,10.4,69.8c8.7,6.4,18.9,9.8,29.7,9.8
						c15.8,0,30.8-7.6,40.2-20.2c7.9-10.7,11.2-23.9,9.3-37.1c-2-13.2-9-24.8-19.7-32.8C148.2,143.1,138,139.7,127.2,139.7z"/>
					</g>
				</g>
				<g>
					<g>
						<polygon fill="#FFFFFF" points="113.7,137.1 104.1,158.8 80.4,161.3 					"/>
					</g>
				</g>
				<g>
					<g>
						<polygon fill="#FFFFFF" points="147,240.1 126.6,228.1 105.9,239.8 					"/>
					</g>
				</g>
				<g>
					<g>
						<polygon fill="#FFFFFF" points="174.1,162 150.6,159.3 141.2,137.4 					"/>
					</g>
				</g>
				<g>
					<g>
						<polygon fill="#FFFFFF" points="86,225.6 90.9,202.4 73.1,186.6 					"/>
					</g>
				</g>
				<g>
					<g>
						<polygon fill="#FFFFFF" points="181.4,185.9 163.7,201.6 168.5,224.9 					"/>
					</g>
				</g>
			</g>
		</g>
		<path fill="#FFFF00" d="M127.2,139.7c-15.8,0-30.8,7.6-40.2,20.2c-16.4,22.1-11.7,53.5,10.4,69.8c8.7,6.4,18.9,9.8,29.7,9.8
		c15.8,0,30.8-7.6,40.2-20.2c7.9-10.7,11.2-23.9,9.3-37.1c-2-13.2-9-24.8-19.7-32.8C148.2,143.1,138,139.7,127.2,139.7z"/>
		<path fill="#ABD100" d="M145.3,227.9c-4.8,5,11.8-7.4,16-13.1c6.7-9.1,9.5-20.3,7.9-31.5c-1.7-11.2-7.6-21.1-16.7-27.8
		c-1.8-1.4-3.8-2.6-5.8-3.6c0,0,13.9,19.1,12.9,36.9S152.8,220.2,145.3,227.9z"/>
		<path fill="#FF9F00" d="M95.4,188.3c-1-21.7,16.8-38.3,16.8-38.3c-7.5,2.9-14.2,7.8-19.1,14.4c-13.9,18.8-10,45.4,8.9,59.4
		c2.3,1.7,9.2,6.2,7.2,4.3C104.5,223.8,96.4,210,95.4,188.3z"/>
	</g>
	<g>
		<path fill="#FFFFFF" d="M192,10.3c-17.1,0-32.4,8-42.3,20.6h-0.3v0.3c-7.1,9.1-11.4,20.6-11.4,33c0,29.7,24.2,53.9,53.9,53.9
		s53.9-24.2,53.9-53.9S221.7,10.3,192,10.3z"/>
		<path d="M192,10.3c-17.1,0-32.4,8-42.3,20.6h-0.3v0.3c-7.1,9.1-11.4,20.6-11.4,33c0,29.7,24.2,53.9,53.9,53.9s53.9-24.2,53.9-53.9
		S221.7,10.3,192,10.3z M208.6,100.9l-23.1-3L183.7,78l17.6-10.7L217,82.4L208.6,100.9z M171.2,103.3L151.9,89l-2.1-14.7l11.8-7.4
		L181.5,78l1.9,20.2L171.2,103.3z M149.1,72.2L142,57.4l9.3-15.3l9.7,2l-0.2,20.8L149.1,72.2z M188.3,19l21.3,2.9l7.3,13.6
		l-16.1,7.9l-16.5-11.5L188.3,19z M231.4,74.4l-12.6,6.7l-16.9-16.2l0.2-19.7l16-7.9L232.3,50L231.4,74.4z M233.5,74.9l1-24.5
		l7.1-0.9c1.4,4.7,2.1,9.6,2.1,14.7c0,4.6-0.6,9-1.7,13.2L233.5,74.9z M240.9,47.4l-7.1,0.9l-14.6-13.1L212,21.9l6.1-2.4
		C228.7,25.7,236.9,35.6,240.9,47.4z M178.8,14.2l7.4,4.1L182,32.1L162.3,42l-10.5-2.1l-0.2-8.1C158.5,23.4,167.9,17,178.8,14.2z
		 M149.7,40.5l-8.5,14.1c1.4-7.3,4.3-14.1,8.4-20L149.7,40.5z M140.5,59.2l7.1,14.9l2.1,14.8l-2.9,0.4c-4.1-7.4-6.5-16-6.5-25.1
		C140.3,62.5,140.4,60.8,140.5,59.2z M172.4,112.1l-0.2-6.8l12.5-5.3l23.9,3.1l4.4,8.4c-6.4,2.9-13.5,4.5-21,4.5
		C185.1,115.9,178.5,114.5,172.4,112.1z"/>
	</g>
	<g>
		<path fill="#F0F0F0" d="M191.6,24c22.6,0,41,18.3,41,41c0,22.6-18.3,41-41,41c0-1.8-5.3-41-5.3-41L191.6,24z"/>
		<path fill="#496E2D" d="M191.6,105.9c-22.6,0-41-18.3-41-41c0-22.6,18.3-41,41-41"/>
		<polygon fill="#D80027" points="200.4,57.1 197,61.7 191.6,59.9 194.9,64.6 191.6,69.2 197,67.4 200.4,72.1 200.4,66.3 205.8,64.6 
		200.4,62.8 	"/>
		<path fill="#D80027" d="M195,76.5c-6.4,0-11.6-5.2-11.6-11.6s5.2-11.6,11.6-11.6c2,0,3.9,0.5,5.5,1.4c-2.6-2.5-6.1-4.1-10-4.1
		c-7.9,0-14.2,6.4-14.2,14.2c0,7.9,6.4,14.2,14.2,14.2c3.9,0,7.4-1.6,10-4.1C198.8,76,197,76.5,195,76.5"/>
	</g>
	<g>
		<ellipse fill="none" stroke="#000000" stroke-miterlimit="10" cx="191.6" cy="65.2" rx="40.8" ry="40.6"/>
	</g>
	<g>
		<path d="M47.929,206.5l4.129-28.952h5.823l4.393,28.952h-4.113l-0.691-5.166h-4.672l-0.625,5.166H47.929z M57.009,197.798
		l-1.941-14.542h-0.065l-1.777,14.542H57.009z"/>
		<path d="M65.3,206.5v-28.952h4.409v25.202h5.577v3.75H65.3z"/>
		<path d="M83.132,206.796c-1.82,0-3.243-0.716-4.269-2.146s-1.538-3.638-1.538-6.621v-12.585c0-2.676,0.523-4.715,1.571-6.119
		s2.711-2.105,4.993-2.105c2.84,0,4.645,1.059,5.412,3.175c0.461,1.272,0.691,3.011,0.691,5.215v2.056H85.88v-3.026
		c0-1.327-0.14-2.259-0.419-2.796c-0.28-0.537-0.806-0.807-1.58-0.807c-0.773,0-1.319,0.32-1.637,0.963
		c-0.318,0.641-0.477,1.779-0.477,3.412v12.553c0,1.896,0.143,3.219,0.428,3.964c0.285,0.746,0.842,1.118,1.67,1.118
		c0.828,0,1.415-0.4,1.76-1.2s0.518-2.149,0.518-4.047v-3.899h-2.221v-3.207h6.07V206.5h-1.974l-0.674-2.846
		c-0.23,0.977-0.735,1.744-1.513,2.303C85.051,206.517,84.152,206.796,83.132,206.796z"/>
		<path d="M94.137,206.5v-28.952h9.706v3.8h-5.297v8.422h5.034v3.719h-5.034v9.212h5.494v3.8h-9.903V206.5z"/>
		<path d="M113.384,192.896l-1.415-0.065v13.67h-4.409v-28.952h7.288c1.513,0,2.643,0.304,3.389,0.913
		c0.746,0.608,1.236,1.459,1.472,2.549c0.236,1.092,0.354,2.518,0.354,4.277c0,1.761-0.187,3.102-0.559,4.022
		c-0.373,0.921-1.064,1.541-2.073,1.858c0.998,0.176,1.694,0.851,2.089,2.023c0.395,1.174,0.592,3.617,0.592,7.329
		s0.055,5.706,0.164,5.979h-4.408c-0.11-0.219-0.165-3.68-0.165-10.38c0-1.283-0.154-2.136-0.461-2.558
		C114.936,193.14,114.316,192.918,113.384,192.896z M111.986,189.408h1.76c0.559,0,0.973-0.126,1.242-0.379
		c0.269-0.252,0.455-0.685,0.56-1.299c0.104-0.614,0.156-1.552,0.156-2.812v-0.182c0-1.568-0.132-2.594-0.395-3.076
		s-0.872-0.724-1.826-0.724h-1.497V189.408z"/>
		<path d="M124.34,206.5v-28.952h4.408V206.5H124.34z"/>
		<path d="M132.68,198.357v-2.583h4.179v2.911c0,1.613,0.138,2.745,0.411,3.397c0.274,0.653,0.79,0.979,1.547,0.979
		c0.756,0,1.258-0.27,1.505-0.807s0.37-1.414,0.37-2.632s-0.22-2.278-0.658-3.183s-1.135-1.852-2.089-2.838l-2.139-2.205
		c-0.998-1.041-1.774-2.121-2.327-3.24c-0.555-1.119-0.831-2.412-0.831-3.883c0-2.391,0.46-4.167,1.382-5.33
		c0.921-1.162,2.506-1.743,4.754-1.743s3.77,0.677,4.564,2.032c0.795,1.354,1.193,3.33,1.193,5.93v1.793h-4.063v-2.072
		c0-1.404-0.12-2.41-0.362-3.02c-0.24-0.607-0.705-0.912-1.39-0.912c-0.686,0-1.179,0.23-1.48,0.69
		c-0.302,0.461-0.452,1.151-0.452,2.073c0,0.921,0.153,1.656,0.461,2.204c0.307,0.548,0.86,1.25,1.66,2.105l2.386,2.583
		c1.195,1.294,2.098,2.604,2.706,3.932c0.609,1.326,0.913,2.774,0.913,4.343c0,2.708-0.455,4.71-1.365,6.004
		c-0.911,1.294-2.503,1.941-4.778,1.941c-2.276,0-3.861-0.722-4.754-2.163C133.127,203.224,132.68,201.121,132.68,198.357z"/>
		<path d="M158.869,204.814c-0.998,1.343-2.566,2.015-4.705,2.015s-3.737-0.716-4.795-2.147c-1.059-1.431-1.588-3.489-1.588-6.176
		v-12.618c0-4.31,1.129-7.002,3.389-8.077c0.834-0.395,1.842-0.592,3.027-0.592c4.068,0,6.103,2.566,6.103,7.699v3.98h-4.261v-3.701
		c0-1.492-0.126-2.559-0.379-3.199c-0.252-0.643-0.745-0.963-1.48-0.963c-0.734,0-1.244,0.34-1.529,1.02
		c-0.285,0.681-0.428,1.723-0.428,3.126v13.522c0,1.557,0.137,2.67,0.411,3.339s0.773,1.003,1.497,1.003
		c0.725,0,1.223-0.34,1.497-1.02s0.411-1.804,0.411-3.372v-4.146h4.326v4.096C160.365,201.4,159.866,203.471,158.869,204.814z"/>
		<path d="M163.951,206.5v-28.952h4.409v11.712h3.948v-11.712h4.408V206.5h-4.408v-13.456h-3.948V206.5H163.951z"/>
		<path d="M181.061,206.5v-28.952h9.705v3.8h-5.297v8.422h5.033v3.719h-5.033v9.212h5.494v3.8h-9.902V206.5z"/>
		<path d="M200.307,192.896l-1.414-0.065v13.67h-4.409v-28.952h7.288c1.513,0,2.643,0.304,3.389,0.913
		c0.745,0.608,1.236,1.459,1.472,2.549c0.235,1.092,0.354,2.518,0.354,4.277c0,1.761-0.187,3.102-0.56,4.022
		s-1.063,1.541-2.072,1.858c0.998,0.176,1.694,0.851,2.09,2.023c0.395,1.174,0.592,3.617,0.592,7.329s0.055,5.706,0.164,5.979
		h-4.408c-0.109-0.219-0.164-3.68-0.164-10.38c0-1.283-0.154-2.136-0.461-2.558C201.858,193.14,201.238,192.918,200.307,192.896z
		 M198.908,189.408h1.761c0.56,0,0.973-0.126,1.241-0.379c0.27-0.252,0.455-0.685,0.561-1.299c0.104-0.614,0.156-1.552,0.156-2.812
		v-0.182c0-1.568-0.133-2.594-0.396-3.076s-0.872-0.724-1.826-0.724h-1.497L198.908,189.408L198.908,189.408z"/>
		<path d="M64.256,218.982c0,3.115-0.845,5.029-2.534,5.742c2.062,0.69,3.093,2.967,3.093,6.826v0.74
		c-0.022,2.906-0.529,5.001-1.521,6.284c-0.993,1.283-2.613,1.925-4.861,1.925h-6.399v-28.952h6.268c2.16,0,3.69,0.501,4.589,1.505
		s1.354,2.684,1.366,5.042L64.256,218.982L64.256,218.982z M56.442,223.26h1.628c0.757,0,1.253-0.24,1.489-0.723
		s0.354-1.476,0.354-2.979v-1.744c-0.011-1.117-0.164-1.866-0.46-2.244c-0.296-0.379-0.806-0.568-1.53-0.568h-1.48L56.442,223.26
		L56.442,223.26z M56.442,237.078h1.562c0.877,0,1.492-0.301,1.843-0.904c0.351-0.604,0.526-1.684,0.526-3.24v-2.336
		c0-1.471-0.143-2.51-0.428-3.118s-0.833-0.913-1.645-0.913h-1.859v10.511H56.442z"/>
		<path d="M66.937,240.5l4.129-28.952h5.823l4.393,28.952h-4.113l-0.691-5.166h-4.672l-0.625,5.166H66.937z M76.018,231.798
		l-1.941-14.542h-0.065l-1.777,14.542H76.018z"/>
		<path d="M84.309,240.5v-28.952h4.409v25.202h5.577v3.75H84.309z"/>
		<path d="M96.827,240.5v-28.952h4.409v25.202h5.577v3.75H96.827z"/>
		<path d="M120.121,238.74c-1.009,1.393-2.624,2.089-4.844,2.089c-2.221,0-3.85-0.699-4.886-2.098
		c-1.037-1.397-1.555-3.507-1.555-6.325v-13.242c0-5.308,2.166-7.962,6.498-7.962c2.237,0,3.847,0.675,4.828,2.023
		s1.473,3.329,1.473,5.938v13.242C121.634,235.236,121.129,237.348,120.121,238.74z M113.664,236.01
		c0.257,0.668,0.787,1.003,1.587,1.003c0.8,0,1.327-0.343,1.579-1.028s0.378-1.861,0.378-3.528v-13.489
		c0-1.371-0.129-2.371-0.387-3.002s-0.762-0.946-1.513-0.946s-1.278,0.315-1.579,0.946c-0.302,0.631-0.453,1.625-0.453,2.985v13.506
		C113.277,234.156,113.406,235.34,113.664,236.01z"/>
		<path d="M125.631,240.5v-28.952h3.455l6.136,17.371l-0.312-7.896v-9.476h3.965V240.5h-3.126l-6.301-17.98l0.248,7.601v10.38h-4.065
		V240.5z"/>
		<path d="M149.237,240.5v-28.952h6.498c2.128,0,3.671,0.628,4.631,1.884s1.439,3.105,1.439,5.551l0.017,13.062
		c0,2.917-0.482,5.056-1.447,6.415c-0.966,1.36-2.562,2.04-4.787,2.04L149.237,240.5L149.237,240.5z M153.646,237.078h1.447
		c0.812,0,1.4-0.264,1.769-0.789c0.367-0.527,0.551-1.492,0.551-2.896l-0.017-14.296c0-1.502-0.184-2.57-0.551-3.207
		s-1.001-0.954-1.9-0.954h-1.299L153.646,237.078L153.646,237.078z"/>
		<path d="M166.707,222.98l1.547-7.057h-2.518V211.3h5.742v4.475l-2.238,7.205H166.707z"/>
		<path d="M186.349,238.74c-1.009,1.393-2.624,2.089-4.845,2.089s-3.85-0.699-4.885-2.098c-1.037-1.397-1.555-3.507-1.555-6.325
		v-13.242c0-5.308,2.165-7.962,6.497-7.962c2.237,0,3.847,0.675,4.828,2.023s1.473,3.329,1.473,5.938v13.242
		C187.862,235.236,187.357,237.348,186.349,238.74z M179.893,236.01c0.257,0.668,0.786,1.003,1.587,1.003
		c0.8,0,1.327-0.343,1.579-1.028s0.379-1.861,0.379-3.528v-13.489c0-1.371-0.129-2.371-0.387-3.002s-0.763-0.946-1.514-0.946
		c-0.752,0-1.277,0.315-1.579,0.946s-0.452,1.625-0.452,2.985v13.506C179.506,234.156,179.635,235.34,179.893,236.01z"/>
		<path d="M197.684,226.896l-1.415-0.065v13.67h-4.409v-28.952h7.288c1.513,0,2.643,0.304,3.389,0.913
		c0.745,0.608,1.236,1.459,1.472,2.549c0.236,1.092,0.354,2.518,0.354,4.277c0,1.761-0.186,3.102-0.559,4.022
		s-1.064,1.541-2.072,1.858c0.998,0.176,1.693,0.851,2.089,2.023c0.395,1.174,0.593,3.617,0.593,7.329s0.055,5.706,0.164,5.979
		h-4.408c-0.11-0.219-0.165-3.68-0.165-10.38c0-1.283-0.153-2.136-0.461-2.558C199.234,227.14,198.615,226.918,197.684,226.896z
		 M196.285,223.408h1.76c0.56,0,0.973-0.126,1.242-0.379c0.269-0.252,0.455-0.685,0.56-1.299s0.156-1.552,0.156-2.812v-0.182
		c0-1.568-0.132-2.594-0.396-3.076c-0.263-0.482-0.871-0.724-1.826-0.724h-1.496V223.408z"/>
	</g>
</svg>