<?xml version="1.0" encoding="utf-8"?>
<!-- Generator: Adobe Illustrator 17.0.0, SVG Export Plug-In . SVG Version: 6.00 Build 0)  -->
<!DOCTYPE svg PUBLIC "-//W3C//DTD SVG 1.1//EN" "http://www.w3.org/Graphics/SVG/1.1/DTD/svg11.dtd">
<svg version="1.1" id="Layer_1" xmlns="http://www.w3.org/2000/svg" xmlns:xlink="http://www.w3.org/1999/xlink" x="0px" y="0px"
	 width="256px" height="256px" viewBox="0 0 256 256" enable-background="new 0 0 256 256" xml:space="preserve">
<path fill="#FFFFFF" d="M192.1,10.3c-17.1,0-32.4,8-42.3,20.6h-0.3v0.3c-7.1,9.1-11.4,20.6-11.4,33c0,29.7,24.2,53.9,53.9,53.9
	s54-24.2,54-53.9S221.9,10.3,192.1,10.3z"/>
<path d="M192,10.3c-17.1,0-32.4,8-42.3,20.6h-0.3v0.3c-7.1,9.1-11.4,20.6-11.4,33c0,29.7,24.2,53.9,53.9,53.9s53.9-24.2,53.9-53.9
	S221.7,10.3,192,10.3z M208.6,100.9l-23.1-3L183.7,78l17.6-10.7L217,82.4L208.6,100.9z M171.2,103.3L151.9,89l-2.1-14.7l11.8-7.4
	L181.5,78l1.9,20.2L171.2,103.3z M149.1,72.2L142,57.4l9.3-15.3l9.7,2l-0.2,20.8L149.1,72.2z M188.3,19l21.3,2.9l7.3,13.6l-16.1,7.9
	l-16.5-11.5L188.3,19z M231.4,74.4l-12.6,6.7l-16.9-16.2l0.2-19.7l16-7.9L232.3,50L231.4,74.4z M233.5,74.9l1-24.5l7.1-0.9
	c1.4,4.7,2.1,9.6,2.1,14.7c0,4.6-0.6,9-1.7,13.2L233.5,74.9z M240.9,47.4l-7.1,0.9l-14.6-13.1L212,21.9l6.1-2.4
	C228.7,25.7,236.9,35.6,240.9,47.4z M178.8,14.2l7.4,4.1L182,32.1L162.3,42l-10.5-2.1l-0.2-8.1C158.5,23.4,167.9,17,178.8,14.2z
	 M149.7,40.5l-8.5,14.1c1.4-7.3,4.3-14.1,8.4-20L149.7,40.5z M140.5,59.2l7.1,14.9l2.1,14.8l-2.9,0.4c-4.1-7.4-6.5-16-6.5-25.1
	C140.3,62.5,140.4,60.8,140.5,59.2z M172.4,112.1l-0.2-6.8l12.5-5.3l23.9,3.1l4.4,8.4c-6.4,2.9-13.5,4.5-21,4.5
	C185.1,115.9,178.5,114.5,172.4,112.1z"/>
<g>
	<path fill="#FCFF00" stroke="#000000" stroke-miterlimit="10" d="M89.6,114.5c0,0-1.3-0.2-1.3,1.4c0.1,1.4,1.5,1.4,1.5,1.4
		s0.1,23.7,28.3,35.5c0,1.7-0.2,3.3-0.2,3.3s-4.9,5.1-6.3,5.7c0.7,1.1,8.7,17.1,9.9,38.3c0,0-2,0-2,2.3c0,1.8,2.7,2.6,2.7,2.6
		l-0.6,3.5c0,0-4.6,3.5-4.7,7.3c-1.7,0-4.4,0-4.4,0s-1.9,8.8-7.9,11.4c0,3.2,0,15.1,0,15.1s-3.7,0.1-4.9,0.1s-4.3,2.4-3.9,6.3
		c0,3.8,0.1,5.7,0.1,5.7h64.4c0,0,0.2-1.9,0.2-5.7c0.3-3.9-3.2-6.4-4.5-6.4s-5.4,0-5.4,0s0-11.9,0-15.1c-6-2.6-7-11.7-7-11.7
		s-2.7,0-4.3,0c-0.1-4-4.7-7.2-4.7-7.2l-0.5-3.4c0,0,2.7-0.7,2.7-2.5c0-2.3-2-2.3-2-2.3c1.2-21.2,9.3-37.1,9.9-38.2
		c-1.5-0.7-6.3-5.7-6.3-5.7s-0.2-1.6-0.2-3.3c28.2-11.8,28.3-35.5,28.3-35.5s1.4,0,1.5-1.3c0-1.6-1.3-1.4-1.3-1.4H89.6V114.5z"/>
	<path fill="#FFFFFF" d="M150.9,117h-26.8c0,0-0.3,3.6,0.8,5.8c1.1,2.2,3.1,5.4,13.3,5.4c10.5,0,11.1-3.3,12.2-5.7
		C151.5,120,150.9,117,150.9,117z"/>
	<rect x="130" y="154" fill="#FFFFFF" width="5" height="2"/>
	<path fill="#FFFFFF" d="M138.7,223H129v-8c0,0,6.4,0,8.1,0C137.1,219,138.7,223,138.7,223z"/>
	<rect x="130" y="212" fill="#FFFFFF" width="4" height="4"/>
	<rect x="130" y="205" fill="#FFFFFF" width="2" height="4"/>
	<polygon fill="#FFFFFF" points="129.2,202 133.2,202 133.2,202 	"/>
	<rect x="142" y="228" fill="#ABD100" width="5" height="14"/>
	<path fill="#ABD100" d="M136.7,163.5l4.2,0.2c0,0-4.8,13.3-7.4,37.3h-1.3C132.2,201,133.7,179,136.7,163.5z"/>
	<path fill="#ABD100" d="M138.2,146.3c0,0,24.8-9.4,25.5-28.5c0,19.8-19.4,32.5-29.8,33.3C123.4,151.9,129.3,149.3,138.2,146.3z"/>
	<rect x="106" y="228" fill="#FF9F00" width="3" height="14"/>
	<path fill="#FF9F00" d="M117.8,163l-4.2-0.2c0,0,6.8,12.8,8.6,37.1l1-0.1C123.2,199.9,121.7,178.3,117.8,163z"/>
	<path fill="#FF9F00" d="M118.2,146.3c0,0-24.8-9.4-25.5-28.5c0,19.8,19.4,32.5,29.8,33.3C133,151.9,127.1,149.3,118.2,146.3z"/>
	<line fill="none" stroke="#000000" stroke-miterlimit="10" x1="118" y1="153.5" x2="138" y2="153.5"/>
	<line fill="none" stroke="#957E78" stroke-width="0.6534" stroke-miterlimit="10" x1="117.9" y1="156" x2="137.8" y2="155.7"/>
	<line fill="none" stroke="#957E78" stroke-miterlimit="10" x1="121" y1="201.5" x2="135" y2="201.5"/>
	<line fill="none" stroke="#957E78" stroke-miterlimit="10" x1="121" y1="204.5" x2="134" y2="204.5"/>
	<line fill="none" stroke="#957E78" stroke-miterlimit="10" x1="121" y1="208.5" x2="134" y2="208.5"/>
	<line fill="none" stroke="#957E78" stroke-miterlimit="10" x1="116" y1="215.5" x2="139" y2="215.5"/>
	<line fill="none" stroke="#957E78" stroke-miterlimit="10" x1="105" y1="228.5" x2="150" y2="228.5"/>
	<line fill="none" stroke="#957E78" stroke-miterlimit="10" x1="104" y1="241.5" x2="150" y2="241.5"/>
	<line fill="none" stroke="#000000" stroke-miterlimit="10" x1="111" y1="160.5" x2="144" y2="160.5"/>
</g>
<g>
	<path fill="#F0F0F0" d="M191.6,106.3c22.6,0,41-18.3,41-41c0-22.6-18.3-41-41-41c-22.6,0-41,18.3-41,41
		C150.7,88,169,106.3,191.6,106.3"/>
	<path fill="#338AF3" d="M191.6,24.4c-16.2,0-30.3,9.5-36.9,23.2h73.8C221.9,33.9,207.9,24.4,191.6,24.4"/>
	<path fill="#338AF3" d="M191.6,106.3c16.2,0,30.3-9.5,36.9-23.2h-73.8C161.4,96.9,175.4,106.3,191.6,106.3"/>
	<polygon fill="#FFDA44" points="203.9,65.4 198.9,67.7 201.5,72.6 196.1,71.5 195.4,77 191.6,73 187.9,77 187.2,71.5 181.7,72.6 
		184.4,67.7 179.4,65.4 184.4,63 181.7,58.2 187.2,59.2 187.9,53.7 191.6,57.8 195.4,53.7 196.1,59.2 201.5,58.2 198.9,63 	"/>
</g>
<g>
	<ellipse fill="none" stroke="#020200" stroke-width="1.4754" stroke-miterlimit="10" cx="191.6" cy="65.2" rx="40.8" ry="40.6"/>
</g>
<g>
	<path d="M26.214,183.585l4.129-28.952h5.823l4.393,28.952h-4.113l-0.691-5.165h-4.672l-0.625,5.165H26.214z M35.295,174.883
		l-1.941-14.542h-0.065l-1.777,14.542H35.295z"/>
	<path d="M49.409,169.98l-1.415-0.065v13.67h-4.409v-28.952h7.288c1.513,0,2.643,0.305,3.389,0.913s1.236,1.459,1.472,2.55
		s0.354,2.517,0.354,4.277s-0.187,3.101-0.559,4.021c-0.373,0.922-1.064,1.541-2.073,1.859c0.998,0.175,1.694,0.85,2.089,2.023
		c0.395,1.173,0.592,3.616,0.592,7.328c0,3.713,0.055,5.706,0.164,5.979h-4.408c-0.11-0.219-0.165-3.679-0.165-10.38
		c0-1.283-0.154-2.136-0.461-2.558C50.96,170.225,50.341,170.003,49.409,169.98z M48.011,166.493h1.76
		c0.559,0,0.973-0.126,1.242-0.378s0.455-0.686,0.56-1.3c0.104-0.614,0.156-1.552,0.156-2.812v-0.182
		c0-1.567-0.132-2.593-0.395-3.076c-0.263-0.482-0.872-0.724-1.826-0.724h-1.497C48.011,158.021,48.011,166.493,48.011,166.493z"/>
	<path d="M65.645,183.881c-1.82,0-3.243-0.715-4.269-2.146c-1.025-1.431-1.538-3.638-1.538-6.621V162.53
		c0-2.676,0.523-4.716,1.571-6.12c1.047-1.403,2.711-2.105,4.993-2.105c2.84,0,4.645,1.059,5.412,3.175
		c0.461,1.272,0.691,3.011,0.691,5.215v2.057h-4.112v-3.027c0-1.326-0.14-2.259-0.419-2.796c-0.28-0.537-0.806-0.807-1.58-0.807
		c-0.773,0-1.319,0.321-1.637,0.963s-0.477,1.779-0.477,3.413v12.552c0,1.897,0.143,3.219,0.428,3.964
		c0.285,0.746,0.842,1.119,1.67,1.119c0.828,0,1.415-0.4,1.76-1.201c0.345-0.8,0.518-2.149,0.518-4.047v-3.898h-2.221v-3.208h6.07
		v15.809h-1.974l-0.674-2.846c-0.23,0.977-0.735,1.744-1.513,2.303C67.564,183.602,66.665,183.881,65.645,183.881z"/>
	<path d="M76.65,183.585v-28.952h9.706v3.8h-5.297v8.423h5.034v3.718h-5.034v9.212h5.494v3.8H76.65V183.585z"/>
	<path d="M90.074,183.585v-28.952h3.455l6.136,17.371l-0.312-7.896v-9.476h3.965v28.952h-3.126l-6.3-17.979l0.247,7.6v10.38
		L90.074,183.585L90.074,183.585z"/>
	<path d="M109.14,183.585v-25.136h-3.389v-3.816h11.038v3.816h-3.257v25.136H109.14z"/>
	<path d="M119.388,183.585v-28.952h4.409v28.952H119.388z"/>
	<path d="M128.304,183.585v-28.952h3.455l6.136,17.371l-0.312-7.896v-9.476h3.965v28.952h-3.126l-6.3-17.979l0.247,7.6v10.38
		L128.304,183.585L128.304,183.585z"/>
	<path d="M146.054,183.585v-28.952h4.409v28.952H146.054z"/>
	<path d="M154.395,175.442v-2.583h4.178v2.912c0,1.612,0.138,2.744,0.411,3.396c0.274,0.653,0.79,0.979,1.547,0.979
		s1.259-0.269,1.505-0.807c0.247-0.537,0.37-1.414,0.37-2.632c0-1.217-0.22-2.278-0.658-3.183s-1.135-1.852-2.089-2.838
		l-2.139-2.204c-0.998-1.042-1.773-2.122-2.327-3.241c-0.555-1.118-0.831-2.412-0.831-3.882c0-2.391,0.461-4.168,1.382-5.33
		s2.506-1.744,4.754-1.744s3.77,0.678,4.565,2.032s1.192,3.331,1.192,5.93v1.793h-4.063v-2.072c0-1.403-0.12-2.41-0.361-3.019
		s-0.705-0.913-1.391-0.913s-1.179,0.23-1.48,0.69c-0.302,0.461-0.452,1.152-0.452,2.073s0.153,1.656,0.461,2.204
		c0.307,0.549,0.86,1.25,1.661,2.105l2.385,2.583c1.195,1.294,2.098,2.604,2.706,3.932c0.609,1.327,0.913,2.774,0.913,4.343
		c0,2.709-0.455,4.71-1.365,6.004c-0.91,1.295-2.503,1.941-4.778,1.941c-2.276,0-3.86-0.721-4.754-2.163
		C154.841,180.309,154.395,178.206,154.395,175.442z"/>
	<path d="M180.583,181.899c-0.998,1.343-2.566,2.015-4.704,2.015c-2.139,0-3.737-0.716-4.796-2.146
		c-1.059-1.432-1.587-3.49-1.587-6.177v-12.618c0-4.31,1.129-7.002,3.389-8.076c0.833-0.396,1.842-0.593,3.026-0.593
		c4.068,0,6.104,2.566,6.104,7.699v3.98h-4.261v-3.701c0-1.491-0.126-2.558-0.379-3.199c-0.252-0.642-0.745-0.963-1.48-0.963
		c-0.734,0-1.244,0.34-1.529,1.021c-0.285,0.68-0.428,1.722-0.428,3.125v13.522c0,1.557,0.137,2.67,0.411,3.339
		s0.773,1.004,1.497,1.004s1.223-0.34,1.497-1.021c0.273-0.68,0.411-1.804,0.411-3.372v-4.146h4.326v4.097
		C182.08,178.485,181.581,180.556,180.583,181.899z"/>
	<path d="M185.666,183.585v-28.952h4.409v11.713h3.948v-11.713h4.408v28.952h-4.408v-13.456h-3.948v13.456H185.666z"/>
	<path d="M202.774,183.585v-28.952h9.705v3.8h-5.297v8.423h5.034v3.718h-5.034v9.212h5.494v3.8h-9.902V183.585z"/>
	<path d="M222.021,169.98l-1.414-0.065v13.67h-4.409v-28.952h7.288c1.513,0,2.643,0.305,3.389,0.913
		c0.745,0.608,1.236,1.459,1.472,2.55c0.236,1.091,0.354,2.517,0.354,4.277s-0.187,3.101-0.559,4.021
		c-0.373,0.922-1.064,1.541-2.073,1.859c0.998,0.175,1.694,0.85,2.09,2.023c0.395,1.173,0.592,3.616,0.592,7.328
		c0,3.713,0.055,5.706,0.164,5.979h-4.408c-0.109-0.219-0.164-3.679-0.164-10.38c0-1.283-0.154-2.136-0.461-2.558
		C223.572,170.225,222.953,170.003,222.021,169.98z M220.623,166.493h1.76c0.56,0,0.973-0.126,1.242-0.378s0.455-0.686,0.56-1.3
		c0.104-0.614,0.156-1.552,0.156-2.812v-0.182c0-1.567-0.132-2.593-0.396-3.076c-0.263-0.482-0.871-0.724-1.826-0.724h-1.496
		V166.493z"/>
	<path d="M79.011,217.585v-28.952h5.478l4.112,21.155l3.866-21.155h5.511v28.952h-3.932v-10.791l0.165-9.903l-3.899,20.562h-3.504
		l-4.063-20.562l0.165,9.903v10.791H79.011z"/>
	<path d="M102.337,217.585v-28.952h9.706v3.8h-5.297v8.423h5.034v3.718h-5.034v9.212h5.494v3.8h-9.903V217.585z"/>
	<path d="M115.925,217.585v-28.952h4.409v28.952H115.925z"/>
	<path d="M124.266,209.442v-2.583h4.178v2.912c0,1.612,0.137,2.744,0.412,3.396c0.274,0.653,0.79,0.979,1.546,0.979
		c0.757,0,1.259-0.269,1.506-0.807c0.246-0.537,0.37-1.414,0.37-2.632c0-1.217-0.22-2.278-0.658-3.183s-1.135-1.852-2.089-2.838
		l-2.139-2.204c-0.998-1.042-1.774-2.122-2.328-3.241c-0.554-1.118-0.831-2.412-0.831-3.882c0-2.391,0.46-4.168,1.382-5.33
		c0.921-1.162,2.505-1.744,4.754-1.744c2.248,0,3.77,0.678,4.564,2.032s1.192,3.331,1.192,5.93v1.793h-4.062v-2.072
		c0-1.403-0.121-2.41-0.362-3.019s-0.705-0.913-1.39-0.913c-0.686,0-1.18,0.23-1.48,0.69c-0.302,0.461-0.453,1.152-0.453,2.073
		s0.154,1.656,0.461,2.204c0.307,0.549,0.861,1.25,1.661,2.105l2.386,2.583c1.195,1.294,2.098,2.604,2.706,3.932
		s0.913,2.774,0.913,4.343c0,2.709-0.455,4.71-1.365,6.004c-0.911,1.295-2.504,1.941-4.779,1.941c-2.276,0-3.86-0.721-4.754-2.163
		C124.712,214.309,124.266,212.206,124.266,209.442z"/>
	<path d="M141.21,217.585v-25.136h-3.389v-3.816h11.038v3.816h-3.258v25.136H141.21z"/>
	<path d="M151.294,217.585v-28.952h9.705v3.8h-5.297v8.423h5.034v3.718h-5.034v9.212h5.494v3.8h-9.902V217.585z"/>
	<path d="M170.54,203.98l-1.414-0.065v13.67h-4.409v-28.952h7.288c1.513,0,2.643,0.305,3.389,0.913
		c0.745,0.608,1.236,1.459,1.472,2.55c0.236,1.091,0.354,2.517,0.354,4.277s-0.187,3.101-0.559,4.021
		c-0.373,0.922-1.064,1.541-2.073,1.859c0.998,0.175,1.694,0.85,2.09,2.023c0.395,1.173,0.592,3.616,0.592,7.328
		c0,3.713,0.055,5.706,0.164,5.979h-4.408c-0.109-0.219-0.164-3.679-0.164-10.38c0-1.283-0.154-2.136-0.461-2.558
		C172.092,204.225,171.473,204.003,170.54,203.98z M169.143,200.493h1.76c0.56,0,0.973-0.126,1.242-0.378s0.455-0.686,0.56-1.3
		c0.104-0.614,0.156-1.552,0.156-2.812v-0.182c0-1.567-0.132-2.593-0.396-3.076c-0.263-0.482-0.871-0.724-1.826-0.724h-1.496
		V200.493z"/>
	<path d="M34.669,249.444c-1.066,0-1.933-0.087-2.598-0.26c-0.666-0.173-1.229-0.49-1.688-0.95c-0.46-0.46-0.784-1.084-0.971-1.873
		c-0.187-0.788-0.28-1.807-0.28-3.056V228.8c0-1.248,0.093-2.267,0.28-3.056c0.187-0.788,0.51-1.412,0.971-1.873
		c0.46-0.46,1.023-0.776,1.688-0.95c0.665-0.173,1.531-0.26,2.598-0.26v2.734c-0.812,0-1.331,0.212-1.559,0.636
		c-0.228,0.424-0.342,1.329-0.342,2.714v14.615c0,1.386,0.114,2.29,0.342,2.714c0.228,0.424,0.747,0.636,1.559,0.636V249.444z"/>
	<path d="M37.636,247.585v-24.062H41.3v20.945h4.635v3.117L37.636,247.585L37.636,247.585z"/>
	<path d="M48.177,247.585v-24.062h3.664v24.062H48.177z"/>
	<path d="M60.112,247.831c-1.513,0-2.696-0.595-3.548-1.784c-0.853-1.189-1.278-3.023-1.278-5.503v-10.459
		c0-2.224,0.435-3.919,1.306-5.086c0.87-1.166,2.253-1.75,4.149-1.75c2.36,0,3.86,0.88,4.498,2.639
		c0.383,1.058,0.574,2.502,0.574,4.334v1.709h-3.418v-2.516c0-1.103-0.116-1.877-0.349-2.324c-0.232-0.446-0.67-0.67-1.312-0.67
		s-1.096,0.267-1.36,0.8c-0.265,0.533-0.396,1.479-0.396,2.837v10.432c0,1.577,0.118,2.676,0.355,3.295
		c0.237,0.62,0.699,0.93,1.388,0.93c0.688,0,1.176-0.332,1.463-0.998c0.287-0.665,0.431-1.786,0.431-3.363v-3.24h-1.846v-2.666
		h5.045v13.139h-1.641l-0.561-2.365c-0.191,0.812-0.611,1.449-1.258,1.914C61.707,247.599,60.96,247.831,60.112,247.831z"/>
	<path d="M68.165,247.585l3.432-24.062h4.84l3.65,24.062h-3.418l-0.574-4.293h-3.883l-0.52,4.293H68.165z M75.712,240.353
		l-1.613-12.086h-0.055l-1.477,12.086H75.712z"/>
	<path d="M87.62,247.585v-24.062h5.523c1.868,0,3.146,0.567,3.835,1.702c0.688,1.135,1.05,2.828,1.087,5.079v0.506
		c0,2.389-0.34,4.2-1.019,5.435s-1.939,1.853-3.78,1.853h-1.982v9.488L87.62,247.585L87.62,247.585z M91.284,235.075h1.258
		c0.774,0,1.278-0.298,1.511-0.896c0.232-0.597,0.349-1.733,0.349-3.411v-0.465c-0.009-1.422-0.135-2.438-0.376-3.049
		c-0.242-0.61-0.727-0.916-1.456-0.916h-1.285L91.284,235.075L91.284,235.075z"/>
	<path d="M105.366,236.278l-1.176-0.055v11.361h-3.664v-24.062h6.057c1.258,0,2.196,0.253,2.816,0.759s1.027,1.213,1.224,2.119
		c0.196,0.907,0.294,2.092,0.294,3.555s-0.155,2.577-0.465,3.343s-0.884,1.281-1.723,1.545c0.829,0.146,1.408,0.707,1.736,1.682
		c0.328,0.976,0.492,3.006,0.492,6.091c0,3.086,0.045,4.742,0.137,4.97h-3.664c-0.091-0.182-0.137-3.058-0.137-8.627
		c0-1.066-0.128-1.774-0.383-2.126C106.656,236.481,106.141,236.297,105.366,236.278z M104.204,233.38h1.463
		c0.465,0,0.809-0.104,1.032-0.314c0.223-0.209,0.378-0.569,0.465-1.08c0.086-0.51,0.13-1.289,0.13-2.338v-0.15
		c0-1.303-0.109-2.155-0.328-2.557c-0.219-0.4-0.725-0.602-1.518-0.602h-1.244L104.204,233.38L104.204,233.38z"/>
	<path d="M123.413,246.122c-0.839,1.158-2.181,1.736-4.026,1.736s-3.199-0.581-4.061-1.743s-1.292-2.914-1.292-5.257v-11.006
		c0-4.411,1.8-6.617,5.4-6.617c1.859,0,3.197,0.561,4.013,1.682c0.815,1.121,1.224,2.767,1.224,4.936v11.006
		C124.671,243.21,124.251,244.965,123.413,246.122z M118.047,243.853c0.214,0.557,0.654,0.834,1.319,0.834s1.103-0.284,1.312-0.854
		c0.209-0.569,0.314-1.547,0.314-2.933v-11.211c0-1.139-0.107-1.971-0.321-2.495c-0.214-0.523-0.634-0.786-1.258-0.786
		c-0.625,0-1.062,0.263-1.312,0.786c-0.251,0.524-0.376,1.352-0.376,2.481V240.9C117.726,242.312,117.833,243.297,118.047,243.853z"
		/>
	<path d="M127.979,247.585v-24.062h8.258v3.186h-4.594v6.398h4.266v3.199h-4.266v11.279L127.979,247.585L127.979,247.585z"/>
	<path d="M138.876,247.585v-24.062h8.066v3.158h-4.402v7h4.184v3.09h-4.184v7.656h4.566v3.158L138.876,247.585L138.876,247.585z"/>
	<path d="M149.554,240.817v-2.146h3.473v2.42c0,1.34,0.114,2.281,0.342,2.823c0.228,0.543,0.656,0.813,1.285,0.813
		s1.046-0.223,1.251-0.67c0.205-0.446,0.308-1.176,0.308-2.188s-0.183-1.894-0.547-2.646s-0.943-1.538-1.736-2.358l-1.777-1.832
		c-0.829-0.865-1.475-1.764-1.935-2.693s-0.69-2.005-0.69-3.227c0-1.986,0.383-3.463,1.148-4.43
		c0.766-0.966,2.083-1.449,3.951-1.449s3.133,0.563,3.794,1.688c0.661,1.126,0.991,2.769,0.991,4.929v1.49h-3.377v-1.723
		c0-1.166-0.101-2.003-0.301-2.509s-0.586-0.759-1.155-0.759s-0.979,0.191-1.23,0.574s-0.376,0.957-0.376,1.723
		s0.128,1.377,0.383,1.832c0.255,0.456,0.716,1.039,1.381,1.75l1.982,2.146c0.993,1.076,1.743,2.165,2.249,3.268
		c0.506,1.104,0.759,2.307,0.759,3.609c0,2.252-0.378,3.915-1.135,4.99c-0.757,1.076-2.08,1.613-3.972,1.613
		s-3.208-0.599-3.951-1.798C149.925,244.862,149.554,243.114,149.554,240.817z"/>
	<path d="M162.542,247.585v-24.062h3.664v24.062H162.542z"/>
	<path d="M179.03,246.122c-0.839,1.158-2.181,1.736-4.026,1.736s-3.199-0.581-4.061-1.743s-1.292-2.914-1.292-5.257v-11.006
		c0-4.411,1.8-6.617,5.4-6.617c1.859,0,3.197,0.561,4.013,1.682s1.224,2.767,1.224,4.936v11.006
		C180.288,243.21,179.869,244.965,179.03,246.122z M173.664,243.853c0.214,0.557,0.654,0.834,1.319,0.834s1.103-0.284,1.312-0.854
		c0.21-0.569,0.314-1.547,0.314-2.933v-11.211c0-1.139-0.107-1.971-0.321-2.495c-0.214-0.523-0.634-0.786-1.258-0.786
		s-1.062,0.263-1.312,0.786c-0.251,0.524-0.376,1.352-0.376,2.481V240.9C173.343,242.312,173.45,243.297,173.664,243.853z"/>
	<path d="M183.61,247.585v-24.062h2.871l5.1,14.438l-0.26-6.562v-7.875h3.295v24.062h-2.598l-5.236-14.943l0.205,6.316v8.627h-3.377
		V247.585z"/>
	<path d="M197.132,247.585l3.432-24.062h4.84l3.65,24.062h-3.418l-0.574-4.293h-3.883l-0.52,4.293H197.132z M204.679,240.353
		l-1.613-12.086h-0.055l-1.477,12.086H204.679z"/>
	<path d="M211.569,247.585v-24.062h3.664v20.945h4.635v3.117L211.569,247.585L211.569,247.585z"/>
	<path d="M221.345,249.444v-2.734c0.812,0,1.331-0.212,1.559-0.636s0.342-1.328,0.342-2.714v-14.615c0-1.385-0.114-2.29-0.342-2.714
		s-0.747-0.636-1.559-0.636v-2.734c1.066,0,1.933,0.087,2.598,0.26c0.665,0.174,1.226,0.49,1.682,0.95
		c0.456,0.461,0.777,1.085,0.964,1.873c0.187,0.789,0.28,1.808,0.28,3.056v14.506c0,1.249-0.094,2.268-0.28,3.056
		c-0.187,0.789-0.508,1.413-0.964,1.873s-1.017,0.777-1.682,0.95S222.411,249.444,221.345,249.444z"/>
</g>
</svg>
