<?xml version="1.0" encoding="utf-8"?>
<!-- Generator: Adobe Illustrator 17.0.0, SVG Export Plug-In . SVG Version: 6.00 Build 0)  -->
<!DOCTYPE svg PUBLIC "-//W3C//DTD SVG 1.1//EN" "http://www.w3.org/Graphics/SVG/1.1/DTD/svg11.dtd">
<svg version="1.1" id="Layer_1" xmlns="http://www.w3.org/2000/svg" xmlns:xlink="http://www.w3.org/1999/xlink" x="0px" y="0px"
	 width="256px" height="256px" viewBox="0 0 256 256" enable-background="new 0 0 256 256" xml:space="preserve">
	<polygon fill="#FFFF00" points="128,188.6 53.1,243.2 82,155.1 6.8,100.8 99.5,101 128,12.8 156.5,101 249.2,100.8 174,155.1 
	202.9,243.2 "/>
	<path fill="#FFFFFF" d="M192,10.3c-17.1,0-32.4,8-42.3,20.6h-0.3v0.3c-7.1,9.1-11.4,20.6-11.4,33c0,29.7,24.2,53.9,53.9,53.9
	s53.9-24.2,53.9-53.9S221.7,10.3,192,10.3z"/>
	<path d="M192,10.3c-17.1,0-32.4,8-42.3,20.6h-0.3v0.3c-7.1,9.1-11.4,20.6-11.4,33c0,29.7,24.2,53.9,53.9,53.9s53.9-24.2,53.9-53.9
	S221.7,10.3,192,10.3z M208.6,100.9l-23.1-3L183.7,78l17.6-10.7L217,82.4L208.6,100.9z M171.2,103.3L151.9,89l-2.1-14.7l11.8-7.4
	L181.5,78l1.9,20.2L171.2,103.3z M149.1,72.2L142,57.4l9.3-15.3l9.7,2l-0.2,20.8L149.1,72.2z M188.3,19l21.3,2.9l7.3,13.6l-16.1,7.9
	l-16.5-11.5L188.3,19z M231.4,74.4l-12.6,6.7l-16.9-16.2l0.2-19.7l16-7.9L232.3,50L231.4,74.4z M233.5,74.9l1-24.5l7.1-0.9
	c1.4,4.7,2.1,9.6,2.1,14.7c0,4.6-0.6,9-1.7,13.2L233.5,74.9z M240.9,47.4l-7.1,0.9l-14.6-13.1L212,21.9l6.1-2.4
	C228.7,25.7,236.9,35.6,240.9,47.4z M178.8,14.2l7.4,4.1L182,32.1L162.3,42l-10.5-2.1l-0.2-8.1C158.5,23.4,167.9,17,178.8,14.2z
	 M149.7,40.5l-8.5,14.1c1.4-7.3,4.3-14.1,8.4-20L149.7,40.5z M140.5,59.2l7.1,14.9l2.1,14.8l-2.9,0.4c-4.1-7.4-6.5-16-6.5-25.1
	C140.3,62.5,140.4,60.8,140.5,59.2z M172.4,112.1l-0.2-6.8l12.5-5.3l23.9,3.1l4.4,8.4c-6.4,2.9-13.5,4.5-21,4.5
	C185.1,115.9,178.5,114.5,172.4,112.1z"/>
	<g>
		<path fill="none" stroke="#000000" stroke-width="3" stroke-miterlimit="10" d="M157.6,137"/>
		<path fill="#FF0000" d="M157.6,137"/>
	</g>
	<g>
		<path fill="#FFFFFF" d="M213.383,171.395c19.834-10.797,32.527-33.204,33.202-36.554c0.675-3.35-0.653-4.048-3.057-6.395
		s-7.035-0.283-7.035-0.283s-20.563,18.207-30.234,25.44c-9.754,7.347-51.298,19.823-56.855,23.049
		c-5.557,3.226-44.464,17.606-50.74,26.418c0.134,2.713-1.481,9.659,5.312,5.93C110.769,205.27,180.674,189.029,213.383,171.395z"/>
		<g>
			<path fill="none" stroke="#000000" stroke-width="3" stroke-miterlimit="10" d="M183.469,144.82
			c3.309-0.838,6.009-1.678,8.051-2.21c4.347-1.309,9.353-2.927,15.958-5.309c8.697-3.226,18.261-8.618,21.85-9.602
			c6.306-1.726,12.331-0.166,12.331-0.166c2.981,2.153-20.48,21.233-26.11,25.889c-14.496,11.86-60.81,24.903-94.013,39.477
			c-11.831,5.15-16.904,10.121-16.904,10.121s9.159-3.503,15.662-5.262c14.439-4.051,77.568-19.604,93.57-30.289
			c20.655-13.867,30.568-32.787,30.537-36.124c5.354,7.442,2.064,14.051-0.853,18.573c-2.933,4.424-0.363,6.541-1.586,7.751
			c-0.678,0.818-4.306-0.318-7.232,2.889c-2.927,3.207-3.911,5.898-7.528,9.217c-3.634,3.22-0.477,6.458-2.761,9.258
			c-2.299,2.701-5.169-1.901-8.65,0.382c-3.465,2.382-5.446,3.917-11.528,7.026c-5.984,3.092-2.092,7.124-4.417,8.411
			c-2.194,1.468-6.752-4.178-11.334-1.818c-4.583,2.36-22.19,15.026-28.244,18.94c-6.153,3.93-0.754,12.277-2.671,14.207
			c-1.223,1.21-5.675-2.528-9.621-2.5c-2.318,0.07-4.481,1.736-6.678,3.812c-5.882,5.608-0.27,10.882-2.812,12.71
			c-2.541,1.828-4.564-1.29-9.226-2.563c-4.662-1.274-8.442,1.666-13.484-2.586c-24.226-20.2-21.211-43.578-21.211-43.578
			c1.544-2.984,2.56-2.338,7.356-1.491c4.78,0.748,12.933,1.054,18.678-3.52c5.646-4.557,11.362-16.217,10.55-21.251
			c-0.812-5.035-2.405-8.627,4.191-9.185c2.697-0.233,10.646-1.819,19.831-3.908l4.197-0.981
			C161.74,150.148,161.74,150.148,183.469,144.82z"/>
			<path fill="#0095EB" d="M183.469,144.82c3.309-0.838,6.009-1.678,8.051-2.21c4.347-1.309,9.353-2.927,15.958-5.309
			c8.697-3.226,18.261-8.618,21.85-9.602c6.306-1.726,12.331-0.166,12.331-0.166c2.981,2.153-20.48,21.233-26.11,25.889
			c-14.496,11.86-60.81,24.903-94.013,39.477c-11.831,5.15-16.904,10.121-16.904,10.121s9.159-3.503,15.662-5.262
			c14.439-4.051,77.568-19.604,93.57-30.289c20.655-13.867,30.568-32.787,30.537-36.124c5.354,7.442,2.064,14.051-0.853,18.573
			c-2.933,4.424-0.363,6.541-1.586,7.751c-0.678,0.818-4.306-0.318-7.232,2.889c-2.927,3.207-3.911,5.898-7.528,9.217
			c-3.634,3.22-0.477,6.458-2.761,9.258c-2.299,2.701-5.169-1.901-8.65,0.382c-3.465,2.382-5.446,3.917-11.528,7.026
			c-5.984,3.092-2.092,7.124-4.417,8.411c-2.194,1.468-6.752-4.178-11.334-1.818c-4.583,2.36-22.19,15.026-28.244,18.94
			c-6.153,3.93-0.754,12.277-2.671,14.207c-1.223,1.21-5.675-2.528-9.621-2.5c-2.318,0.07-4.481,1.736-6.678,3.812
			c-5.882,5.608-0.27,10.882-2.812,12.71c-2.541,1.828-4.564-1.29-9.226-2.563c-4.662-1.274-8.442,1.666-13.484-2.586
			c-24.226-20.2-21.211-43.578-21.211-43.578c1.544-2.984,2.56-2.338,7.356-1.491c4.78,0.748,12.933,1.054,18.678-3.52
			c5.646-4.557,11.362-16.217,10.55-21.251c-0.812-5.035-2.405-8.627,4.191-9.185c2.697-0.233,10.646-1.819,19.831-3.908
			l4.197-0.981C161.74,150.148,161.74,150.148,183.469,144.82z"/>
		</g>
		<g>
			<g>
				<g>
					<path fill="none" stroke="#1D1D1B" stroke-width="3" d="M155.595,165.422c-0.197,0.032-0.395,0.064-0.608-0.003
					c-1.051-0.236-1.818-1.226-1.682-2.261l2.477-14.783c0.236-1.051,1.226-1.818,2.261-1.682c1.051,0.236,1.818,1.226,1.682,2.261
					l-2.477,14.783C157.095,164.674,156.384,165.295,155.595,165.422z"/>
				</g>
				<g>
					<path fill="none" stroke="#1D1D1B" stroke-width="3" d="M164.575,161.441c-0.197,0.032-0.395,0.064-0.608-0.003
					c-1.051-0.236-1.818-1.226-1.682-2.261l1.936-11.86c0.236-1.051,1.226-1.818,2.261-1.682c1.051,0.236,1.818,1.226,1.682,2.261
					l-1.936,11.86C166.075,160.693,165.365,161.314,164.575,161.441z"/>
				</g>
				<g>
					<path fill="none" stroke="#1D1D1B" stroke-width="3" d="M172.12,158.603c-0.197,0.032-0.395,0.064-0.608-0.003
					c-1.051-0.236-1.818-1.226-1.682-2.261l1.834-11.235c0.236-1.051,1.226-1.818,2.261-1.682c1.051,0.236,1.818,1.226,1.682,2.261
					l-1.834,11.235C173.619,157.855,172.909,158.476,172.12,158.603z"/>
				</g>
				<g>
					<path fill="none" stroke="#1D1D1B" stroke-width="3" d="M180.578,153.896c-0.197,0.032-0.395,0.064-0.608-0.003
					c-1.051-0.236-1.818-1.226-1.682-2.261l1.493-8.952c0.236-1.051,1.226-1.818,2.261-1.682c1.051,0.236,1.818,1.226,1.682,2.261
					l-1.493,8.952C182.078,153.148,181.368,153.769,180.578,153.896z"/>
				</g>
			</g>
			<g>
				<g>
					<path fill="#FFFF00" d="M155.595,165.422c-0.197,0.032-0.395,0.064-0.608-0.003c-1.051-0.236-1.818-1.226-1.682-2.261
					l2.477-14.783c0.236-1.051,1.226-1.818,2.261-1.682c1.051,0.236,1.818,1.226,1.682,2.261l-2.477,14.783
					C157.095,164.674,156.384,165.295,155.595,165.422z"/>
				</g>
				<g>
					<path fill="#FFFF00" d="M164.575,161.441c-0.197,0.032-0.395,0.064-0.608-0.003c-1.051-0.236-1.818-1.226-1.682-2.261
					l1.936-11.86c0.236-1.051,1.226-1.818,2.261-1.682c1.051,0.236,1.818,1.226,1.682,2.261l-1.936,11.86
					C166.075,160.693,165.365,161.314,164.575,161.441z"/>
				</g>
				<g>
					<path fill="#FFFF00" d="M172.12,158.603c-0.197,0.032-0.395,0.064-0.608-0.003c-1.051-0.236-1.818-1.226-1.682-2.261
					l1.834-11.235c0.236-1.051,1.226-1.818,2.261-1.682c1.051,0.236,1.818,1.226,1.682,2.261l-1.834,11.235
					C173.619,157.855,172.909,158.476,172.12,158.603z"/>
				</g>
				<g>
					<path fill="#FFFF00" d="M180.578,153.896c-0.197,0.032-0.395,0.064-0.608-0.003c-1.051-0.236-1.818-1.226-1.682-2.261
					l1.493-8.952c0.236-1.051,1.226-1.818,2.261-1.682c1.051,0.236,1.818,1.226,1.682,2.261l-1.493,8.952
					C182.078,153.148,181.368,153.769,180.578,153.896z"/>
				</g>
			</g>
		</g>
	</g>
	<g>
		<path fill="#0052B4" d="M232.9,63.6c0-5-0.9-9.7-2.5-14.1L192,47.7l-38.3,1.8c-1.6,4.4-2.5,9.1-2.5,14.1s0.9,9.7,2.5,14.1l38.3,1.8
		l38.3-1.8C232,73.3,232.9,68.6,232.9,63.6z"/>
		<path fill="#FF9811" d="M192,104.1c17.6,0,32.5-11,38.3-26.4h-76.6C159.5,93.1,174.5,104.1,192,104.1z"/>
		<path fill="#D80027" d="M153.8,49.5h76.6c-5.8-15.4-20.7-26.4-38.3-26.4S159.5,34.1,153.8,49.5z"/>
	</g>
	<ellipse fill="none" stroke="#020200" stroke-width="1.484" stroke-miterlimit="10" cx="192.1" cy="64" rx="41.3" ry="40.6"/>
	<g>
		<path d="M15.841,128.833l2.451-17.187h3.457l2.607,17.187h-2.441l-0.41-3.066h-2.773l-0.371,3.066H15.841z M21.232,123.667
		l-1.152-8.633h-0.039l-1.055,8.633H21.232z"/>
		<path d="M29.611,120.757l-0.84-0.039v8.115h-2.617v-17.187h4.326c0.898,0,1.569,0.181,2.012,0.542s0.734,0.866,0.874,1.514
		s0.21,1.494,0.21,2.539s-0.111,1.841-0.332,2.388s-0.631,0.915-1.23,1.104c0.592,0.104,1.006,0.504,1.24,1.201
		s0.352,2.147,0.352,4.351s0.033,3.387,0.098,3.549h-2.617c-0.065-0.13-0.098-2.184-0.098-6.162c0-0.762-0.091-1.268-0.273-1.519
		S30.164,120.771,29.611,120.757z M28.781,118.687h1.045c0.332,0,0.578-0.075,0.737-0.225s0.27-0.407,0.332-0.771
		s0.093-0.921,0.093-1.67v-0.107c0-0.931-0.078-1.54-0.234-1.826s-0.518-0.43-1.084-0.43h-0.889
		C28.781,113.658,28.781,118.687,28.781,118.687z"/>
		<path d="M36.017,128.833v-17.187h3.252l2.441,12.559l2.295-12.559h3.271v17.187h-2.334v-6.406l0.098-5.879l-2.314,12.207h-2.08
		l-2.412-12.207l0.098,5.879v6.406H36.017z"/>
		<path d="M49.865,128.833v-17.187h5.762v2.256h-3.145v5h2.988v2.207h-2.988v5.469h3.262v2.255H49.865z"/>
		<path d="M57.833,128.833v-17.187h2.051l3.643,10.312l-0.186-4.688v-5.625h2.354v17.187H63.84l-3.74-10.673l0.146,4.512v6.162
		L57.833,128.833L57.833,128.833z"/>
		<path d="M68.371,128.833v-17.187h2.617v17.187H68.371z"/>
		<path d="M73.322,124v-1.533h2.48v1.729c0,0.957,0.082,1.629,0.244,2.017s0.469,0.581,0.918,0.581s0.747-0.16,0.894-0.479
		s0.22-0.84,0.22-1.562s-0.13-1.353-0.391-1.89s-0.674-1.099-1.24-1.685l-1.27-1.309c-0.592-0.619-1.053-1.26-1.382-1.924
		s-0.493-1.432-0.493-2.305c0-1.419,0.273-2.474,0.82-3.164s1.488-1.035,2.822-1.035s2.238,0.402,2.71,1.206
		s0.708,1.978,0.708,3.521v1.064H77.95v-1.23c0-0.833-0.072-1.431-0.215-1.792s-0.418-0.542-0.825-0.542s-0.7,0.137-0.879,0.41
		s-0.269,0.684-0.269,1.23s0.091,0.983,0.273,1.309s0.511,0.742,0.986,1.25l1.416,1.533c0.709,0.768,1.245,1.546,1.606,2.334
		s0.542,1.647,0.542,2.578c0,1.608-0.27,2.796-0.811,3.564s-1.486,1.152-2.837,1.152s-2.292-0.428-2.822-1.284
		S73.322,125.64,73.322,124z"/>
		<path d="M88.869,127.833c-0.592,0.797-1.523,1.196-2.793,1.196s-2.218-0.425-2.847-1.274c-0.628-0.85-0.942-2.072-0.942-3.667
		v-7.49c0-2.559,0.67-4.157,2.012-4.795c0.495-0.234,1.094-0.352,1.797-0.352c2.416,0,3.623,1.523,3.623,4.57v2.363H87.19v-2.197
		c0-0.885-0.075-1.519-0.225-1.899s-0.443-0.571-0.879-0.571s-0.739,0.202-0.908,0.605s-0.254,1.022-0.254,1.855v8.027
		c0,0.924,0.082,1.585,0.244,1.982s0.459,0.596,0.889,0.596s0.726-0.202,0.889-0.605s0.244-1.071,0.244-2.002v-2.461h2.568v2.432
		C89.757,125.806,89.461,127.035,88.869,127.833z"/>
		<path d="M91.886,128.833v-17.187h2.617v6.953h2.344v-6.953h2.617v17.187h-2.617v-7.988h-2.344v7.988H91.886z"/>
		<path d="M102.042,128.833v-17.187h5.762v2.256h-3.145v5h2.988v2.207h-2.988v5.469h3.262v2.255H102.042z"/>
		<path d="M113.468,120.757l-0.84-0.039v8.115h-2.617v-17.187h4.326c0.898,0,1.569,0.181,2.012,0.542s0.734,0.866,0.874,1.514
		s0.21,1.494,0.21,2.539s-0.111,1.841-0.332,2.388s-0.631,0.915-1.23,1.104c0.592,0.104,1.006,0.504,1.24,1.201
		s0.352,2.147,0.352,4.351s0.033,3.387,0.098,3.549h-2.617c-0.065-0.13-0.098-2.184-0.098-6.162c0-0.762-0.091-1.268-0.273-1.519
		S114.021,120.771,113.468,120.757z M112.638,118.687h1.045c0.332,0,0.578-0.075,0.737-0.225s0.27-0.407,0.332-0.771
		s0.093-0.921,0.093-1.67v-0.107c0-0.931-0.078-1.54-0.234-1.826s-0.518-0.43-1.084-0.43h-0.889V118.687z"/>
		<path d="M16.613,152.833v-17.188h5.898v2.275H19.23v4.57h3.047v2.285H19.23v8.057L16.613,152.833L16.613,152.833z"/>
		<path d="M30.978,151.91c-0.599,0.746-1.561,1.118-2.886,1.118s-2.289-0.374-2.891-1.123c-0.602-0.748-0.903-1.91-0.903-3.486
		v-12.783h2.617v12.734c0,0.905,0.042,1.455,0.127,1.65s0.187,0.373,0.308,0.532c0.121,0.16,0.37,0.239,0.747,0.239
		s0.648-0.11,0.811-0.332c0.163-0.221,0.262-0.496,0.298-0.825c0.036-0.328,0.054-0.75,0.054-1.265v-12.734h2.617v12.783
		C31.876,150.001,31.577,151.165,30.978,151.91z"/>
		<path d="M34.015,147.999v-1.533h2.48v1.729c0,0.957,0.082,1.63,0.244,2.017c0.163,0.388,0.469,0.581,0.918,0.581
		s0.747-0.159,0.894-0.479c0.146-0.318,0.22-0.84,0.22-1.562s-0.13-1.353-0.391-1.89s-0.674-1.099-1.24-1.685l-1.27-1.309
		c-0.592-0.618-1.053-1.26-1.382-1.924s-0.493-1.432-0.493-2.305c0-1.419,0.273-2.474,0.82-3.164
		c0.547-0.689,1.488-1.035,2.822-1.035s2.238,0.402,2.71,1.206c0.472,0.805,0.708,1.978,0.708,3.521v1.064h-2.412v-1.23
		c0-0.833-0.072-1.431-0.215-1.792s-0.418-0.542-0.825-0.542s-0.7,0.137-0.879,0.41s-0.269,0.684-0.269,1.23
		s0.091,0.983,0.273,1.309s0.511,0.742,0.986,1.25l1.416,1.533c0.709,0.769,1.245,1.547,1.606,2.334
		c0.361,0.788,0.542,1.647,0.542,2.578c0,1.608-0.27,2.797-0.811,3.564c-0.541,0.769-1.486,1.152-2.837,1.152
		s-2.292-0.428-2.822-1.284C34.28,150.889,34.015,149.64,34.015,147.999z"/>
		<path d="M42.853,147.999v-1.533h2.48v1.729c0,0.957,0.082,1.63,0.244,2.017c0.163,0.388,0.469,0.581,0.918,0.581
		s0.747-0.159,0.894-0.479c0.146-0.318,0.22-0.84,0.22-1.562s-0.13-1.353-0.391-1.89s-0.674-1.099-1.24-1.685l-1.27-1.309
		c-0.592-0.618-1.053-1.26-1.382-1.924s-0.493-1.432-0.493-2.305c0-1.419,0.273-2.474,0.82-3.164
		c0.547-0.689,1.488-1.035,2.822-1.035s2.238,0.402,2.71,1.206c0.472,0.805,0.708,1.978,0.708,3.521v1.064h-2.412v-1.23
		c0-0.833-0.072-1.431-0.215-1.792s-0.418-0.542-0.825-0.542s-0.7,0.137-0.879,0.41s-0.269,0.684-0.269,1.23
		s0.091,0.983,0.273,1.309s0.511,0.742,0.986,1.25l1.416,1.533c0.709,0.769,1.245,1.547,1.606,2.334
		c0.361,0.788,0.542,1.647,0.542,2.578c0,1.608-0.27,2.797-0.811,3.564c-0.541,0.769-1.486,1.152-2.837,1.152
		s-2.292-0.428-2.822-1.284C43.118,150.889,42.853,149.64,42.853,147.999z"/>
		<path d="M59.386,140.06c0,1.85-0.501,2.985-1.504,3.408c1.224,0.41,1.836,1.762,1.836,4.053v0.439
		c-0.013,1.726-0.314,2.969-0.903,3.73s-1.551,1.143-2.886,1.143H52.13v-17.188h3.721c1.283,0,2.191,0.298,2.725,0.894
		s0.804,1.594,0.811,2.993L59.386,140.06L59.386,140.06z M54.748,142.599h0.967c0.449,0,0.744-0.143,0.884-0.43
		c0.14-0.286,0.21-0.875,0.21-1.768v-1.035c-0.006-0.664-0.098-1.108-0.273-1.333s-0.479-0.337-0.908-0.337h-0.879L54.748,142.599
		L54.748,142.599z M54.748,150.802h0.928c0.521,0,0.885-0.179,1.094-0.537c0.208-0.357,0.312-0.999,0.312-1.924v-1.387
		c0-0.872-0.084-1.489-0.254-1.851s-0.495-0.542-0.977-0.542h-1.104L54.748,150.802L54.748,150.802z"/>
		<path d="M60.978,152.833l2.451-17.188h3.457l2.607,17.188h-2.441l-0.41-3.066h-2.773l-0.371,3.066H60.978z M66.369,147.667
		l-1.152-8.633h-0.039l-1.055,8.633H66.369z"/>
		<path d="M71.291,152.833v-17.188h2.617v14.961h3.311v2.227H71.291z"/>
		<path d="M78.722,152.833v-17.188h2.617v14.961h3.311v2.227H78.722z"/>
		<path d="M86.154,152.833v-17.188h5.762v2.256h-3.145v5h2.988v2.207h-2.988v5.469h3.262v2.256L86.154,152.833L86.154,152.833z"/>
		<path d="M97.58,144.757l-0.84-0.039v8.115h-2.617v-17.188h4.326c0.898,0,1.569,0.181,2.012,0.542s0.734,0.866,0.874,1.514
		c0.14,0.648,0.21,1.494,0.21,2.539s-0.111,1.841-0.332,2.388s-0.631,0.915-1.23,1.104c0.592,0.104,1.006,0.505,1.24,1.201
		c0.234,0.697,0.352,2.147,0.352,4.351s0.033,3.388,0.098,3.55h-2.617c-0.065-0.13-0.098-2.184-0.098-6.162
		c0-0.762-0.091-1.268-0.273-1.519C98.501,144.902,98.133,144.771,97.58,144.757z M96.75,142.687h1.045
		c0.332,0,0.578-0.074,0.737-0.225c0.16-0.149,0.27-0.406,0.332-0.771c0.062-0.364,0.093-0.921,0.093-1.67v-0.107
		c0-0.931-0.078-1.539-0.234-1.826c-0.156-0.286-0.518-0.43-1.084-0.43H96.75V142.687z"/>
		<path d="M16.613,176.833v-17.188h3.857c1.263,0,2.179,0.373,2.749,1.118c0.57,0.746,0.854,1.845,0.854,3.296l0.01,7.754
		c0,1.732-0.287,3.002-0.859,3.809c-0.573,0.808-1.52,1.211-2.842,1.211H16.613z M19.23,174.802h0.859
		c0.482,0,0.832-0.156,1.05-0.469s0.327-0.885,0.327-1.719l-0.01-8.486c0-0.892-0.109-1.526-0.327-1.904
		c-0.218-0.377-0.594-0.566-1.128-0.566H19.23V174.802z"/>
		<path d="M26.437,176.833v-17.188h5.762v2.256h-3.145v5h2.988v2.207h-2.988v5.469h3.262v2.256L26.437,176.833L26.437,176.833z"/>
		<path d="M34.064,171.999v-1.533h2.48v1.729c0,0.957,0.082,1.63,0.244,2.017c0.163,0.388,0.469,0.581,0.918,0.581
		s0.747-0.159,0.894-0.479c0.146-0.318,0.22-0.84,0.22-1.562s-0.13-1.353-0.391-1.89s-0.674-1.099-1.24-1.685l-1.27-1.309
		c-0.592-0.618-1.053-1.26-1.382-1.924s-0.493-1.432-0.493-2.305c0-1.419,0.273-2.474,0.82-3.164
		c0.547-0.689,1.488-1.035,2.822-1.035s2.238,0.402,2.71,1.206c0.472,0.805,0.708,1.978,0.708,3.521v1.064h-2.412v-1.23
		c0-0.833-0.072-1.431-0.215-1.792s-0.418-0.542-0.825-0.542s-0.7,0.137-0.879,0.41s-0.269,0.684-0.269,1.23
		s0.091,0.983,0.273,1.309s0.511,0.742,0.986,1.25l1.416,1.533c0.709,0.769,1.245,1.547,1.606,2.334
		c0.361,0.788,0.542,1.647,0.542,2.578c0,1.608-0.27,2.797-0.811,3.564c-0.541,0.769-1.486,1.152-2.837,1.152
		s-2.292-0.428-2.822-1.284C34.329,174.889,34.064,173.64,34.064,171.999z"/>
		<path d="M52.365,175.881c-0.619,0.766-1.489,1.147-2.612,1.147s-1.996-0.34-2.617-1.021c-0.622-0.68-0.933-1.671-0.933-2.974
		v-3.066h2.529v2.939c0,0.951,0.153,1.53,0.459,1.738c0.137,0.092,0.306,0.137,0.508,0.137c0.397,0,0.659-0.162,0.786-0.488
		c0.127-0.325,0.19-0.84,0.19-1.543v-13.105h2.617v12.979C53.292,174.03,52.983,175.116,52.365,175.881z"/>
		<path d="M54.992,176.833l2.451-17.188H60.9l2.607,17.188h-2.441l-0.41-3.066h-2.773l-0.371,3.066H54.992z M60.382,171.667
		l-1.152-8.633h-0.039l-1.055,8.633H60.382z"/>
		<path d="M65.304,176.833v-17.188h2.617v6.953h2.344v-6.953h2.617v17.188h-2.617v-7.988h-2.344v7.988H65.304z"/>
		<path d="M78.917,168.757l-0.84-0.039v8.115H75.46v-17.188h4.326c0.898,0,1.569,0.181,2.012,0.542s0.734,0.866,0.874,1.514
		c0.14,0.648,0.21,1.494,0.21,2.539s-0.111,1.841-0.332,2.388s-0.631,0.915-1.23,1.104c0.592,0.104,1.006,0.505,1.24,1.201
		c0.234,0.697,0.352,2.147,0.352,4.351s0.033,3.388,0.098,3.55h-2.617c-0.065-0.13-0.098-2.184-0.098-6.162
		c0-0.762-0.091-1.268-0.273-1.519C79.839,168.902,79.471,168.771,78.917,168.757z M78.087,166.687h1.045
		c0.332,0,0.578-0.074,0.737-0.225c0.16-0.149,0.27-0.406,0.332-0.771c0.062-0.364,0.093-0.921,0.093-1.67v-0.107
		c0-0.931-0.078-1.539-0.234-1.826c-0.156-0.286-0.518-0.43-1.084-0.43h-0.889V166.687z"/>
		<path d="M85.324,176.833v-17.188h5.762v2.256h-3.145v5h2.988v2.207h-2.988v5.469h3.262v2.256L85.324,176.833L85.324,176.833z"/>
		<path d="M92.951,171.999v-1.533h2.48v1.729c0,0.957,0.082,1.63,0.244,2.017c0.163,0.388,0.469,0.581,0.918,0.581
		s0.747-0.159,0.894-0.479c0.146-0.318,0.22-0.84,0.22-1.562s-0.13-1.353-0.391-1.89s-0.674-1.099-1.24-1.685l-1.27-1.309
		c-0.592-0.618-1.053-1.26-1.382-1.924s-0.493-1.432-0.493-2.305c0-1.419,0.273-2.474,0.82-3.164
		c0.547-0.689,1.488-1.035,2.822-1.035s2.238,0.402,2.71,1.206c0.472,0.805,0.708,1.978,0.708,3.521v1.064H97.58v-1.23
		c0-0.833-0.072-1.431-0.215-1.792s-0.418-0.542-0.825-0.542s-0.7,0.137-0.879,0.41s-0.269,0.684-0.269,1.23
		s0.091,0.983,0.273,1.309s0.511,0.742,0.986,1.25l1.416,1.533c0.709,0.769,1.245,1.547,1.606,2.334
		c0.361,0.788,0.542,1.647,0.542,2.578c0,1.608-0.27,2.797-0.811,3.564c-0.541,0.769-1.486,1.152-2.837,1.152
		s-2.292-0.428-2.822-1.284C93.216,174.889,92.951,173.64,92.951,171.999z"/>
	</g>
</svg>