<?xml version="1.0" encoding="utf-8"?>
<!-- Generator: Adobe Illustrator 17.0.0, SVG Export Plug-In . SVG Version: 6.00 Build 0)  -->
<!DOCTYPE svg PUBLIC "-//W3C//DTD SVG 1.1//EN" "http://www.w3.org/Graphics/SVG/1.1/DTD/svg11.dtd">
<svg version="1.1" id="Layer_1" xmlns="http://www.w3.org/2000/svg" xmlns:xlink="http://www.w3.org/1999/xlink" x="0px" y="0px"
	 width="256px" height="256px" viewBox="0 0 256 256" enable-background="new 0 0 256 256" xml:space="preserve">
<polygon fill="#FFFF00" points="128,188.6 53.1,243.2 82,155.1 6.8,100.8 99.5,101 128,12.8 156.5,101 249.2,100.8 174,155.1 
	202.9,243.2 "/>
<path fill="#FFFFFF" d="M192,10.3c-17.1,0-32.4,8-42.3,20.6h-0.3v0.3c-7.1,9.1-11.4,20.6-11.4,33c0,29.7,24.2,53.9,53.9,53.9
	s53.9-24.2,53.9-53.9S221.7,10.3,192,10.3z"/>
<path d="M192,10.3c-17.1,0-32.4,8-42.3,20.6h-0.3v0.3c-7.1,9.1-11.4,20.6-11.4,33c0,29.7,24.2,53.9,53.9,53.9s53.9-24.2,53.9-53.9
	S221.7,10.3,192,10.3z M208.6,100.9l-23.1-3L183.7,78l17.6-10.7L217,82.4L208.6,100.9z M171.2,103.3L151.9,89l-2.1-14.7l11.8-7.4
	L181.5,78l1.9,20.2L171.2,103.3z M149.1,72.2L142,57.4l9.3-15.3l9.7,2l-0.2,20.8L149.1,72.2z M188.3,19l21.3,2.9l7.3,13.6l-16.1,7.9
	l-16.5-11.5L188.3,19z M231.4,74.4l-12.6,6.7l-16.9-16.2l0.2-19.7l16-7.9L232.3,50L231.4,74.4z M233.5,74.9l1-24.5l7.1-0.9
	c1.4,4.7,2.1,9.6,2.1,14.7c0,4.6-0.6,9-1.7,13.2L233.5,74.9z M240.9,47.4l-7.1,0.9l-14.6-13.1L212,21.9l6.1-2.4
	C228.7,25.7,236.9,35.6,240.9,47.4z M178.8,14.2l7.4,4.1L182,32.1L162.3,42l-10.5-2.1l-0.2-8.1C158.5,23.4,167.9,17,178.8,14.2z
	 M149.7,40.5l-8.5,14.1c1.4-7.3,4.3-14.1,8.4-20L149.7,40.5z M140.5,59.2l7.1,14.9l2.1,14.8l-2.9,0.4c-4.1-7.4-6.5-16-6.5-25.1
	C140.3,62.5,140.4,60.8,140.5,59.2z M172.4,112.1l-0.2-6.8l12.5-5.3l23.9,3.1l4.4,8.4c-6.4,2.9-13.5,4.5-21,4.5
	C185.1,115.9,178.5,114.5,172.4,112.1z"/>
<g>
	<path fill="none" stroke="#000000" stroke-width="3" stroke-miterlimit="10" d="M157.6,137"/>
	<path fill="#FF0000" d="M157.6,137"/>
</g>
<g>
	<path fill="#FFFFFF" d="M213.074,171.791c20.019-10.448,33.102-32.63,33.836-35.968s-0.582-4.058-2.945-6.447
		s-7.029-0.406-7.029-0.406s-20.878,17.845-30.674,24.907c-9.881,7.176-51.636,18.923-57.249,22.052
		c-5.613,3.129-44.765,16.826-51.194,25.527c0.086,2.715-1.649,9.632,5.208,6.022C109.882,203.867,180.061,188.851,213.074,171.791z
		"/>
	<g>
		<path fill="none" stroke="#000000" stroke-width="3" stroke-miterlimit="10" d="M183.628,144.697
			c3.323-0.78,6.038-1.573,8.088-2.069c4.369-1.233,9.403-2.763,16.048-5.03c8.752-3.074,18.408-8.298,22.014-9.219
			c6.335-1.616,12.332,0.05,12.332,0.05c2.943,2.205-20.848,20.871-26.559,25.428c-14.701,11.605-61.236,23.836-94.689,37.827
			c-11.919,4.942-17.078,9.824-17.078,9.824s9.219-3.343,15.752-4.987c14.508-3.798,77.899-18.245,94.086-28.648
			c20.894-13.503,31.137-32.247,31.163-35.585c5.223,7.535,1.818,14.085-1.177,18.555c-3.01,4.372-0.477,6.534-1.721,7.723
			c-0.693,0.806-4.299-0.394-7.282,2.762c-2.982,3.155-4.013,5.829-7.688,9.084c-3.689,3.156-0.59,6.449-2.922,9.208
			c-2.346,2.66-5.135-1.991-8.655,0.231c-3.506,2.321-5.513,3.821-11.649,6.823c-6.037,2.987-2.216,7.086-4.563,8.332
			c-2.22,1.43-6.678-4.295-11.301-2.016c-4.623,2.279-22.449,14.636-28.571,18.443c-6.22,3.822-0.969,12.262-2.919,14.158
			c-1.244,1.189-5.63-2.627-9.576-2.667c-2.319,0.03-4.51,1.657-6.744,3.695c-5.979,5.505-0.461,10.876-3.033,12.659
			c-2.573,1.783-4.54-1.369-9.18-2.724c-4.639-1.355-8.47,1.518-13.437-2.821c-23.869-20.62-20.446-43.942-20.446-43.942
			c1.596-2.957,2.601-2.292,7.381-1.362c4.766,0.832,12.912,1.28,18.737-3.193c5.725-4.458,11.644-16.015,10.92-21.064
			s-2.253-8.668,4.351-9.11c2.701-0.185,10.676-1.632,19.896-3.561l4.214-0.907C161.81,149.645,161.81,149.645,183.628,144.697z"/>
		<path fill="#3F9500" d="M183.628,144.697c3.323-0.78,6.038-1.573,8.088-2.069c4.369-1.233,9.403-2.763,16.048-5.03
			c8.752-3.074,18.408-8.298,22.014-9.219c6.335-1.616,12.332,0.05,12.332,0.05c2.943,2.205-20.848,20.871-26.559,25.428
			c-14.701,11.605-61.236,23.836-94.689,37.827c-11.919,4.942-17.078,9.824-17.078,9.824s9.219-3.343,15.752-4.987
			c14.508-3.798,77.899-18.245,94.086-28.648c20.894-13.503,31.137-32.247,31.163-35.585c5.223,7.535,1.818,14.085-1.177,18.555
			c-3.01,4.372-0.477,6.534-1.721,7.723c-0.693,0.806-4.299-0.394-7.282,2.762c-2.982,3.155-4.013,5.829-7.688,9.084
			c-3.689,3.156-0.59,6.449-2.922,9.208c-2.346,2.66-5.135-1.991-8.655,0.231c-3.506,2.321-5.513,3.821-11.649,6.823
			c-6.037,2.987-2.216,7.086-4.563,8.332c-2.22,1.43-6.678-4.295-11.301-2.016c-4.623,2.279-22.449,14.636-28.571,18.443
			c-6.22,3.822-0.969,12.262-2.919,14.158c-1.244,1.189-5.63-2.627-9.576-2.667c-2.319,0.03-4.51,1.657-6.744,3.695
			c-5.979,5.505-0.461,10.876-3.033,12.659c-2.573,1.783-4.54-1.369-9.18-2.724c-4.639-1.355-8.47,1.518-13.437-2.821
			c-23.869-20.62-20.446-43.942-20.446-43.942c1.596-2.957,2.601-2.292,7.381-1.362c4.766,0.832,12.912,1.28,18.737-3.193
			c5.725-4.458,11.644-16.015,10.92-21.064s-2.253-8.668,4.351-9.11c2.701-0.185,10.676-1.632,19.896-3.561l4.214-0.907
			C161.81,149.645,161.81,149.645,183.628,144.697z"/>
	</g>
	<g>
		<g>
			<g>
				<path fill="none" stroke="#1D1D1B" stroke-width="3" d="M155.398,164.809c-0.198,0.028-0.396,0.057-0.608-0.014
					c-1.047-0.254-1.797-1.258-1.642-2.29l2.735-14.738c0.254-1.047,1.258-1.797,2.29-1.642c1.047,0.254,1.797,1.258,1.642,2.29
					l-2.735,14.738C156.911,164.087,156.19,164.695,155.398,164.809z"/>
			</g>
			<g>
				<path fill="none" stroke="#1D1D1B" stroke-width="3" d="M164.447,160.985c-0.198,0.028-0.396,0.057-0.608-0.014
					c-1.047-0.254-1.797-1.258-1.642-2.29l2.143-11.824c0.254-1.047,1.258-1.797,2.29-1.642c1.047,0.254,1.797,1.258,1.642,2.29
					l-2.143,11.824C165.96,160.263,165.239,160.872,164.447,160.985z"/>
			</g>
			<g>
				<path fill="none" stroke="#1D1D1B" stroke-width="3" d="M172.04,158.28c-0.198,0.028-0.396,0.057-0.608-0.014
					c-1.047-0.254-1.797-1.258-1.642-2.29l2.03-11.202c0.254-1.047,1.258-1.797,2.29-1.642c1.047,0.254,1.797,1.258,1.642,2.29
					l-2.03,11.202C173.552,157.558,172.831,158.166,172.04,158.28z"/>
			</g>
			<g>
				<path fill="none" stroke="#1D1D1B" stroke-width="3" d="M180.579,153.721c-0.198,0.028-0.396,0.057-0.608-0.014
					c-1.047-0.254-1.797-1.258-1.642-2.29l1.65-8.925c0.254-1.047,1.258-1.797,2.29-1.642c1.047,0.254,1.797,1.258,1.642,2.29
					l-1.65,8.925C182.092,152.999,181.371,153.608,180.579,153.721z"/>
			</g>
		</g>
		<g>
			<g>
				<path fill="#FFFF00" d="M155.398,164.809c-0.198,0.028-0.396,0.057-0.608-0.014c-1.047-0.254-1.797-1.258-1.642-2.29
					l2.735-14.738c0.254-1.047,1.258-1.797,2.29-1.642c1.047,0.254,1.797,1.258,1.642,2.29l-2.735,14.738
					C156.911,164.087,156.19,164.695,155.398,164.809z"/>
			</g>
			<g>
				<path fill="#FFFF00" d="M164.447,160.985c-0.198,0.028-0.396,0.057-0.608-0.014c-1.047-0.254-1.797-1.258-1.642-2.29
					l2.143-11.824c0.254-1.047,1.258-1.797,2.29-1.642c1.047,0.254,1.797,1.258,1.642,2.29l-2.143,11.824
					C165.96,160.263,165.239,160.872,164.447,160.985z"/>
			</g>
			<g>
				<path fill="#FFFF00" d="M172.04,158.28c-0.198,0.028-0.396,0.057-0.608-0.014c-1.047-0.254-1.797-1.258-1.642-2.29l2.03-11.202
					c0.254-1.047,1.258-1.797,2.29-1.642c1.047,0.254,1.797,1.258,1.642,2.29l-2.03,11.202
					C173.552,157.558,172.831,158.166,172.04,158.28z"/>
			</g>
			<g>
				<path fill="#FFFF00" d="M180.579,153.721c-0.198,0.028-0.396,0.057-0.608-0.014c-1.047-0.254-1.797-1.258-1.642-2.29l1.65-8.925
					c0.254-1.047,1.258-1.797,2.29-1.642c1.047,0.254,1.797,1.258,1.642,2.29l-1.65,8.925
					C182.092,152.999,181.371,153.608,180.579,153.721z"/>
			</g>
		</g>
	</g>
</g>
<g>
	<g>
		<circle fill="#FF0000" cx="191.8" cy="65" r="41.1"/>
		<path fill="#FF0000" d="M232.9,65c0,22.7-18.4,41.1-41.1,41.1S150.7,87.7,150.7,65"/>
	</g>
	<ellipse fill="none" stroke="#000000" stroke-width="1.4754" stroke-miterlimit="10" cx="191.6" cy="65.2" rx="40.8" ry="40.6"/>
</g>
<g>
	<path fill="#FFFFFF" d="M158.6,69.8c-0.1,0.1,0,0.4-0.2,0.4c-0.1,0-0.2-0.2-0.3-0.3c-0.3-0.3-0.6-0.6-0.7-1.1
		c-0.1-0.2-0.1-0.4-0.1-0.6c0-0.1,0.1-0.2,0.2-0.2c0.4,0,0.7-0.2,0.7-0.7c0.1-0.6,0.3-1.2,0.3-1.8c0-0.3,0-0.5,0-0.8
		c0-0.2-0.1-0.3-0.3-0.2c-0.1,0-0.3,0.1-0.4,0.2c-0.1,0.1-0.3,0.2,0,0.3c0.1,0.1,0.2,0.4,0,0.5c-0.2,0.2-0.4,0.4-0.7,0.5
		s-0.6-0.2-0.6-0.5c0-0.2,0.2-0.2,0.3-0.3c0.1,0,0.2,0,0.3-0.1l0.1-0.1h-0.1c-0.4,0-0.7-0.1-1-0.4c-0.2-0.1-0.3-0.1-0.4,0
		c-0.2,0.2-0.5,0.2-0.7,0.1c-0.1,0-0.1,0-0.2,0c-0.2,0-0.3,0-0.4,0.2c-0.1,0.2-0.2,0.2-0.4,0.1c-0.1-0.1-0.1-0.1-0.1-0.2
		s0.1-0.2,0.2-0.2c0.2-0.1,0.2-0.1,0-0.2c-0.3-0.2-0.5-0.5-0.5-0.9c0-0.3-0.1-0.5-0.4-0.7c-0.2-0.1-0.2-0.3-0.1-0.5
		c0-0.1,0.1-0.2,0-0.3c0-0.1,0-0.1,0-0.2c0.2-0.4,0.5-0.7,0.8-0.9c0.1-0.1,0.2-0.1,0.3,0c0.2,0.3,0.5,0.4,0.8,0.4
		c0.4,0,0.8-0.1,1.2-0.3c0.8-0.4,1.5-0.2,2.3,0c0.4,0.1,0.8,0.4,1.3,0.5c0.4,0.1,0.7,0.1,1.1-0.1c0.3-0.1,0.4-0.4,0.4-0.7
		c0-0.2-0.2-0.3-0.3-0.4c-0.1,0-0.1-0.1-0.2-0.1c-0.1,0-0.2,0-0.2-0.1s0.1-0.1,0.1-0.1c0.4-0.2,0.8-0.3,1.2-0.4
		c0.3,0,0.6,0.1,0.9,0.2c0.3,0.2,0.6,0.4,0.9,0.6c0.5,0.4,1.1,0.6,1.7,0.4c0.1,0,0.1,0,0.1,0.1c0.2,0.3,0.5,0.6,0.6,1
		c0.1,0.3,0.1,0.6,0,0.8c0,0.1-0.1,0.1-0.1,0.2c-0.1,0.3,0,0.5,0.3,0.7c0.4,0.2,0.8,0.4,1.3,0.6c0.4,0.2,0.7,0.1,0.9-0.1
		c0.2-0.3,0.3-0.7,0-1c-0.1-0.1-0.2-0.3-0.3-0.4c-0.1-0.1-0.2-0.2-0.2-0.3c-0.3-0.4-0.2-0.7,0.3-0.8c0.3-0.1,0.2,0,0.1-0.3
		c-0.1-0.2-0.2-0.4-0.5-0.3c-0.3,0.1-0.5-0.1-0.7-0.3s-0.4-0.3-0.7-0.4c-0.3-0.1-0.5-0.4-0.5-0.8c0-0.4,0.3-0.7,0.6-0.8
		c0.2,0,0.3-0.1,0.5-0.1c0.1,0,0.2-0.1,0.1-0.2c-0.2-0.2-0.4-0.5-0.7-0.6c-0.1,0-0.2-0.1-0.1-0.2c0.4-0.7,0.3-1.3-0.2-1.8
		c-0.1-0.2-0.3-0.3-0.4-0.5c-0.2-0.4-0.1-0.7,0.2-1c0.5-0.3,1.1-0.5,1.8-0.5c0.8-0.1,1.6,0,2.3,0.3c0.2,0.1,0.2,0,0.2-0.2
		c0-0.3-0.2-0.6-0.5-0.8c-0.3-0.3-0.7-0.4-1-0.6c-0.2-0.1-0.4-0.2-0.6-0.3c-0.7-0.4-0.8-0.9-0.7-1.7c0.1-0.4,0.2-0.8,0.3-1.2
		s0-0.9-0.1-1.3c-0.2-0.6-0.4-1.2-0.6-1.8c-0.1-0.3-0.1-0.6,0-1c0-0.2,0.1-0.3,0.3-0.4c0.2-0.1,0.4-0.2,0.6-0.3
		c0.1,0,0.2-0.1,0.3-0.1c0.3-0.2,0.5-0.2,0.8-0.1c0.2,0.1,0.4,0.1,0.7,0.2c0-0.2-0.1-0.3-0.3-0.3c-0.2-0.1-0.3-0.1-0.5-0.2
		c-0.4-0.2-0.6-0.6-0.6-1.1c0-0.1,0.1-0.3,0.1-0.4c0.3-0.3,1.1-0.5,1.5-0.4c0.2,0.1,0.4,0.2,0.6,0.4c0.2,0.2,0.4,0.5,0.6,0.7
		c0.1-0.1,0-0.2,0-0.3c0-0.3,0.2-0.5,0.5-0.4c0.7,0.2,1.1-0.1,1.6-0.5s1.1-0.7,1.8-0.6h0.1c0.2,0,0.3,0,0.2-0.3c0-0.3,0-0.5,0.4-0.5
		c0.5-0.1,0.9-0.1,1.4-0.2c0.2,0,0.4-0.1,0.6-0.1c0.4-0.1,0.8-0.1,1.2,0.1c0.2,0.1,0.4,0,0.6-0.1c0.1-0.2,0.3-0.3,0.5-0.4
		c0.6-0.3,1.1-0.3,1.7-0.1c0.1,0.1,0.3,0.1,0.4,0.2c0.2,0.1,0.5,0.2,0.7,0.1c0.7-0.1,1.4-0.1,2.1,0.1c0.3,0.1,0.5,0.2,0.7,0.3
		s0.3,0.2,0.2,0.4c0,0.2-0.1,0.3-0.3,0.4c-0.2,0.1-0.3,0.1-0.4,0.2c-0.1,0-0.2,0.1-0.2,0.2c0.3-0.1,0.6-0.1,0.8-0.1
		c0.3,0,0.6,0,0.9,0.1c0.1,0,0.3,0,0.4,0c1.1,0,2.2,0.1,3.2,0.1c0.7,0,1.5,0,2.2-0.1c0.5-0.1,1,0.1,1.5,0.4c0.3,0.2,0.6,0.4,1,0.6
		c0.5,0.3,1,0.3,1.4,0c0.3-0.2,0.6-0.1,0.9,0c0.3,0.1,0.7,0.1,1,0.1s0.4-0.1,0.3-0.4c0-0.2,0.1-0.3,0.2-0.3c0.5-0.2,1-0.2,1.5-0.1
		c0.6,0.1,1.1,0.1,1.7,0.2c0.6,0.1,1.2,0.3,1.8,0.5c0.7,0.2,1.3,0.4,2.1,0.3c0.3,0,0.6,0,0.8,0s0.4,0,0.6,0c0.5-0.1,1,0,1.4,0.3
		c0.5,0.3,1,0.4,1.6,0.4c0.2,0,0.4-0.1,0.6-0.1c0.6-0.1,1.1,0,1.7,0.1c0.2,0,0.5,0.1,0.7,0.1c0.1,0,0.2,0,0.3-0.1
		c0.2-0.3,0.5-0.4,0.8-0.3c0.4,0.1,0.9,0.1,1.3,0.2c0.9,0,1.7,0.2,2.6,0.5c0.6,0.2,1.3,0.3,2,0.5c0.8,0.2,1.6,0.3,2.3,0.7
		c0.2,0.1,0.4,0.1,0.6,0.1c0.8-0.1,1.5,0.2,2.1,0.8l0.1,0.1c0.1,0.2,0.1,0.4-0.1,0.5c-0.3,0.2-0.7,0.2-1,0.1c-0.5-0.2-1-0.3-1.5-0.4
		c-0.2-0.1-0.4-0.2-0.7-0.3c-0.1,0-0.2,0-0.2,0.1s0,0.2,0,0.2c0,0.1-0.1,0.1-0.1,0.2c-0.1,0-0.2,0-0.2,0.1c0.2,0.1,0.4,0.2,0.6,0.3
		c0.3,0.2,0.7,0.3,1.1,0.4c0.3,0.1,0.4,0.2,0.4,0.5c-0.1,0.2-0.3,0.4-0.5,0.4c-0.1,0-0.2,0-0.3,0c-0.4-0.1-0.7,0.1-0.9,0.4
		c-0.1,0.2-0.3,0.4-0.4,0.6c-0.3,0.3-0.5,0.3-0.8,0.2s-0.5-0.1-0.8-0.1c-0.4,0.1-0.8,0.2-1.1,0.3c-0.2,0.1-0.2,0.2-0.2,0.3
		c0,0.2,0.1,0.5,0.4,0.5c0.9,0.2,1.3,0.8,1.6,1.6c0.1,0.1,0.1,0.3,0.2,0.4c0.1,0.2,0.1,0.4,0,0.5c-0.2,0.4-0.1,0.8,0,1.2
		c0,0.2,0.2,0.3,0.1,0.5c-0.1,0.2-0.3,0.3-0.6,0.3c-0.2,0-0.4,0-0.5-0.3c-0.3-0.4-0.7-0.8-1.1-1.1c-0.5-0.4-1-0.7-1.3-1.2
		c-0.2-0.3-0.5-0.7-0.6-1s-0.1-0.6,0.1-0.8c0.2-0.4,0.3-0.8,0.4-1.2v-0.1c0.2-0.4-0.1-0.7-0.4-0.9c-0.1-0.1-0.1-0.1-0.2,0.1
		c0,0.1-0.1,0.2-0.1,0.4c-0.1,0.4-0.3,0.5-0.7,0.3c-0.2-0.1-0.4-0.2-0.7-0.3c-0.2-0.1-0.3-0.2-0.5-0.2c-0.4,0-0.7,0.2-0.7,0.6
		c0,0.2,0,0.4,0.1,0.6c0.1,0.2,0,0.3-0.2,0.4c-0.2,0.1-0.3,0.1-0.5,0.2c-0.1,0-0.2,0-0.3,0c-0.5-0.3-1.1-0.3-1.6-0.2
		c-0.3,0-0.7,0.1-1,0.1c-0.2,0-0.4,0-0.6-0.1c-0.6-0.2-1.4,0.4-1.6,0.9c-0.2,0.5-0.3,1-0.5,1.5c0,0.1,0,0.2,0.1,0.2
		c0.3,0.1,0.5,0.3,0.8,0.4c0.3,0.1,0.5,0.1,0.8,0c0.4-0.2,0.7-0.1,1,0.1c0.3,0.2,0.5,0.5,0.8,0.6c0.1,0.1,0.2,0.1,0.3-0.1
		c0.2-0.4,0.5-0.4,0.7,0c0.4,0.6,0.9,1,1.5,1.5c0.3,0.3,0.7,0.5,1,0.8c0.2,0.2,0.2,0.4-0.1,0.6c-0.2,0.1-0.2,0.2,0,0.3
		c0.3,0.3,0.6,0.6,0.8,0.9c0.1,0.1,0.2,0.3,0.1,0.4c-0.1,0.2-0.3,0.2-0.4,0.2c-0.4,0-0.6-0.2-0.8-0.5s-0.4-0.8-0.6-1.1
		c-0.4-0.8-1-1.5-1.7-2.1c0,0-0.1-0.1-0.2-0.1c0,0.2,0,0.3,0.1,0.4c0.1,0.1,0.1,0.1,0.2,0.2c0.4,0.3,0.7,0.7,0.7,1.3s0.1,1.2,0,1.7
		c-0.1,0.6-0.3,1.3-0.6,1.9c-0.2,0.3-0.5,0.5-0.8,0.5c-0.2,0-0.4,0-0.5,0c-0.4,0.1-0.6,0.3-0.5,0.7v0.1c0.1,0.6,0,0.7-0.5,1
		c-0.2,0.1-0.2,0.2,0,0.4c0.4,0.3,0.9,0.6,1.3,0.9c0.4,0.3,0.6,0.7,0.8,1.2c0.1,0.3,0,0.5-0.3,0.6s-0.6,0.3-0.9,0.4
		c-0.2,0.1-0.4,0-0.5-0.2c-0.1-0.3-0.3-0.5-0.4-0.8c-0.2-0.6-0.6-1-1.2-1.2c-0.3-0.1-0.5-0.3-0.6-0.7c-0.1-0.5-0.4-0.6-0.9-0.4
		c-0.2,0.1-0.4,0.2-0.6,0.3c-0.3,0.1-0.4,0.1-0.5-0.2c-0.1-0.2-0.1-0.4-0.2-0.5c-0.1-0.3-0.3-0.4-0.5-0.1c-0.1,0.1-0.2,0.2-0.3,0.3
		c-0.1,0.2-0.3,0.4-0.6,0.5c-0.2,0.1-0.2,0.2-0.1,0.3c0.2,0.3,1,0.6,1.3,0.5c0.6-0.2,1,0,1.5,0.3c0.2,0.1,0.2,0.2,0.1,0.4
		c-0.1,0.2-0.3,0.3-0.5,0.3c-0.2,0.1-0.4,0.3-0.6,0.5c-0.2,0.3-0.1,0.5,0.2,0.6s0.4,0.3,0.6,0.6c0.2,0.6,0.6,1,1.1,1.3
		c0.2,0.1,0.3,0.3,0.3,0.5s0,0.4,0.2,0.5s0.3,0.3,0.2,0.6c-0.3,0.9-0.4,1.9-0.8,2.8c-0.4,0.9-1.1,1.5-2,1.8c-0.5,0.1-1,0.2-1.5,0.3
		c-0.5,0.1-0.9,0.4-1.2,0.9c-0.2,0.3-0.4,0.2-0.6,0c0-0.1-0.1-0.2-0.1-0.3c-0.1-0.3-0.3-0.4-0.6-0.3c-0.4,0.2-0.8,0.4-1.1,0.8
		c-0.2,0.2-0.2,0.5-0.1,0.8c0.2,0.3,0.4,0.5,0.7,0.8c0.8,0.6,1.3,1.4,1.7,2.3c0.2,0.5,0.3,1,0.2,1.6c0,0.3-0.2,0.5-0.5,0.7
		c-0.4,0.2-0.7,0.5-1,0.8c-0.2,0.2-0.4,0.4-0.7,0.6s-0.5,0.1-0.6-0.3c0-0.1,0-0.3,0-0.4c0-0.3-0.1-0.3-0.3-0.3
		c-0.3,0.1-0.5,0-0.6-0.3c-0.2-0.5-0.6-0.8-1.1-1.1c-0.2-0.1-0.4-0.3-0.6-0.5c-0.1-0.1-0.2-0.1-0.3-0.1c-0.1,0.1,0,0.2,0,0.2
		c0.1,0.3,0.1,0.5,0,0.8c-0.2,0.7,0,1.3,0.3,1.8c0.3,0.6,0.7,1.1,1.3,1.5c0.5,0.3,0.8,0.9,0.9,1.5c0.1,0.4,0.2,0.8,0.4,1.2
		c0.1,0.3,0.1,0.5-0.1,0.6c-0.2,0.2-0.4,0.2-0.6,0c-1-0.5-1.6-1.3-1.8-2.4c0-0.2-0.1-0.5-0.2-0.7c-0.2-0.4-0.4-0.7-0.8-1
		c-0.5-0.3-0.6-0.6-0.5-1.1s0.2-1.1,0.2-1.6c0-0.3-0.1-0.7-0.3-0.9c-0.3-0.5-0.5-1-0.6-1.6c0-0.1-0.1-0.2-0.1-0.4
		c-0.1-0.2-0.2-0.2-0.3-0.1s-0.2,0.2-0.3,0.3c-0.4,0.4-1,0.2-1.1-0.3c-0.1-0.3,0-0.5-0.1-0.8c-0.1-0.6-0.4-1.1-0.9-1.4
		s-0.8-0.7-1.1-1.2c-0.1-0.3-0.3-0.4-0.6-0.3c-0.4,0.1-0.9,0.2-1.3,0.3c-0.4,0.1-0.5,0.3-0.5,0.7c0,0.2,0,0.3-0.2,0.4
		s-0.4,0.3-0.6,0.5c-0.6,0.6-1.2,1.2-1.8,1.8c-0.2,0.3-0.5,0.4-0.8,0.6s-0.3,0.2-0.2,0.5c0.1,1.2,0.1,2.4-0.5,3.4
		c-0.2,0.3-0.3,0.5-0.6,0.8c-0.2,0.1-0.3,0.2-0.5,0.1c-0.1,0-0.1-0.1-0.2-0.1c-0.3-0.1-0.5-0.3-0.5-0.5c-0.3-1.2-0.9-2.3-1.4-3.4
		c-0.4-0.9-0.9-1.9-1.2-2.9c-0.1-0.4-0.1-0.9,0-1.3c0-0.1,0-0.1,0-0.2s0-0.3-0.1-0.3s-0.1,0.1-0.1,0.2c-0.1,0.1-0.2,0.2-0.3,0.3
		c-0.6,0.3-1.5-0.2-1.6-0.8c-0.1-0.2,0.1-0.3,0.2-0.3c-0.1-0.1-0.3-0.2-0.4-0.2c-0.5-0.3-0.9-0.6-1.3-1.1c-0.2-0.2-0.4-0.4-0.7-0.4
		c-0.1,0-0.2,0-0.3,0.1c-0.2,0.1-0.3,0.1-0.5,0.1c-0.7-0.1-1.5-0.1-2.2,0c-0.4,0-0.7,0-1.1-0.1c-0.4-0.1-0.7-0.3-1-0.6
		c-0.1-0.1-0.1-0.2-0.2-0.2c-0.1,0-0.1,0.2-0.1,0.3c0,0.4,0.2,0.7,0.5,0.9c0.4,0.3,0.8,0.5,1.2,0.8c0.2,0.1,0.3,0.3,0.4,0.5
		c0.1,0.1,0.1,0.3,0.1,0.5c0,0.1-0.1,0.2-0.2,0.3c-0.4,0.4-0.7,0.8-0.9,1.3c-0.3,0.5-0.7,0.9-1.1,1.3c-0.2,0.2-0.5,0.3-0.9,0.3
		c-0.4,0.1-0.7,0.2-0.9,0.6c-0.3,0.5-0.8,0.8-1.3,0.9c-0.7,0.2-1.3,0.5-2,0.9c-0.5,0.2-0.9,0.3-1.5,0.3c-0.5,0-0.9-0.3-1-0.8
		c-0.1-0.3-0.1-0.6-0.1-0.9c-0.2-0.8-0.5-1.4-1-2c-0.2-0.3-0.5-0.6-0.8-0.8c-0.2-0.2-0.4-0.5-0.4-0.8c-0.2-0.9-0.7-1.6-1.2-2.3
		c-0.3-0.4-0.6-0.7-0.9-1c-0.4-0.4-0.5-0.9-0.6-1.4C158.7,69.9,158.7,69.8,158.6,69.8z M167.5,71.3
		C167.6,71.2,167.6,71.2,167.5,71.3c0.2-0.3,0.3-0.3,0.4-0.1c0.1,0.1,0.2,0.2,0.3,0.2c0.4,0.2,0.6,0.4,0.6,0.9
		c0,0.2,0.2,0.4,0.4,0.3c0.5-0.1,0.9-0.3,1.2-0.7c0.2-0.3,0.4-0.6,0.8-0.8c0,0,0.1,0,0.1-0.1c0,0,0-0.1-0.1-0.1s-0.2,0-0.3,0
		c-0.7,0.1-1.5,0.1-2.1-0.3c-0.5-0.3-0.9-0.8-1.1-1.3c-0.1-0.3-0.4-0.4-0.6-0.5c-0.2,0-0.3,0-0.4,0.2c-0.1,0.1-0.1,0.3,0,0.4
		c0.1,0.2,0.2,0.3,0.3,0.4C167.1,70.3,167.4,70.7,167.5,71.3z M171.7,44.4c0.1,0.1,0.1,0.1,0.1,0.1c0.3,0.4,0.4,0.8,0.1,1.2v0.1h0.1
		c0.2,0,0.4-0.2,0.5-0.4c0.1-0.3,0-0.5-0.2-0.8C172.2,44.5,172,44.4,171.7,44.4z"/>
	<path fill="#FFFFFF" d="M203.5,88c0-0.6,0.3-0.8,0.8-0.7c0.2,0,0.3,0,0.3-0.2c0.1-0.3,0.4-0.5,0.7-0.6c0.2-0.1,0.3-0.2,0.5-0.3
		c0.2-0.1,0.3-0.3,0.3-0.5c0.1-0.2,0.2-0.3,0.4-0.4c0.5-0.1,0.8-0.4,1.1-0.8c0,0,0-0.1,0.1-0.1c0.4-0.5,0.7-0.5,1.1-0.1
		c0.2,0.2,0.4,0.4,0.6,0.6c0.1,0.1,0.1,0.3,0,0.4c-0.1,0.2-0.3,0.4-0.4,0.5c-0.3,0.4-0.3,0.7,0,1c0.1,0.2,0.2,0.3,0.3,0.5
		s0.1,0.4-0.1,0.6c-0.1,0.2-0.3,0.4-0.5,0.5c-0.3,0.4-0.5,0.9-0.6,1.4c-0.1,0.3-0.2,0.5-0.3,0.8c-0.2,0.3-0.4,0.4-0.8,0.3
		c-0.7-0.2-1.5-0.3-2.2-0.3c-0.5,0-0.9-0.3-1-0.9c-0.1-0.5-0.3-1-0.4-1.5C203.5,88.2,203.5,88.1,203.5,88z"/>
	<path fill="#FFFFFF" d="M214.7,66.1c0.4,0.2,0.4,0.5,0.2,0.8s-0.4,0.4-0.6,0.3c-0.4-0.2-0.4-0.5-0.2-0.9c-0.3,0-0.5,0.1-0.7,0.2
		c0,0.1,0.1,0.1,0.1,0.2c0.4,0.4,0.6,0.8,0.4,1.3c0,0.2-0.2,0.3-0.4,0.3s-0.3-0.1-0.4-0.3c-0.1-0.3-0.3-0.5-0.5-0.7
		c-0.3-0.3-0.3-0.5,0-0.8c0.1-0.1,0.2-0.2,0.2-0.4c0-0.2,0.2-0.4,0.4-0.5c0.4-0.3,0.9-0.5,1.4-0.5c0.6-0.1,1-0.4,1.3-0.8
		c0.1-0.1,0.2-0.3,0.3-0.4c0.1-0.2,0.2-0.4,0-0.6c-0.1-0.3-0.3-0.5-0.4-0.8c-0.1-0.2-0.2-0.5,0-0.7c0.1-0.1,0-0.1-0.1-0.2
		c-0.4-0.1-0.6-0.3-0.7-0.7c-0.1-0.2,0-0.4,0.1-0.6c0.1-0.2,0.1-0.5,0-0.7c-0.1-0.1-0.1-0.3-0.1-0.4c0-0.1,0-0.2,0.1-0.3
		s0.2,0,0.3,0c0.2,0.1,0.4,0.3,0.5,0.4c0.5,0.3,1,0.5,1.5,0.6c0.5,0.2,0.5,0.3,0.2,0.7s-0.7,0.5-1.2,0.4c-0.1,0-0.1,0-0.2-0.1h-0.1
		c-0.1,0.1-0.1,0.3-0.1,0.4c0,0.1,0.1,0.1,0.2,0.1c0.6,0.1,1.1,0.4,1.4,1c0.1,0.3,0.2,0.6,0.1,0.9c0,0.2,0,0.4,0.1,0.6
		c0.1,0.2,0.2,0.4,0.2,0.6c0.1,0.5-0.1,1-0.7,1.2c-0.2,0.1-0.4,0.1-0.7,0.1s-0.5,0.2-0.6,0.4c0,0.1,0,0.1-0.1,0.2
		c0,0.1-0.1,0.2-0.2,0.3c-0.1,0-0.2-0.1-0.3-0.2s-0.1-0.2-0.2-0.3C215.1,66.1,214.9,66,214.7,66.1z"/>
	<path fill="#FFFFFF" d="M202,91.2c0,0.6-0.3,1-0.9,1.2c-0.3,0.1-0.5,0-0.7-0.2c-0.6-0.4-0.9-1-1.3-1.6c-0.7-1.2-1.4-2.3-2.1-3.4
		c-0.3-0.5-0.7-0.9-1.2-1.3c-0.2-0.2-0.4-0.4-0.5-0.6s-0.1-0.3,0-0.5s0.3-0.2,0.5-0.1c0.9,0.3,1.6,0.7,2.2,1.5
		c0.3,0.4,0.7,0.8,1.1,1c0,0,0,0,0.1,0c0.6,0.3,1,0.7,1.3,1.3c0.2,0.5,0.6,1,1,1.4C201.9,90.4,202,90.8,202,91.2z"/>
	<path fill="#FFFFFF" d="M209.4,90.8c0-0.3,0.1-0.6,0.2-0.9c0.2-0.4,0.3-0.9,0.3-1.4s0.4-0.8,0.8-0.9c0.3-0.1,0.6,0,0.9,0
		c0.5,0.1,0.9,0.1,1.3-0.2c0.1-0.1,0.3-0.1,0.5,0s0.1,0.3,0,0.4c-0.1,0.2-0.2,0.4-0.3,0.5c-0.3,0.3-0.6,0.3-1,0.2
		c-0.1-0.1-0.3-0.1-0.4-0.2c-0.3-0.2-0.6-0.1-0.9,0.1c-0.2,0.1-0.2,0.2-0.1,0.4c0,0.1,0.1,0.2,0.3,0.2s0.3,0,0.5-0.1
		s0.4-0.1,0.7-0.1c0.1,0,0.2,0.1,0.2,0.2s0,0.2-0.1,0.3c-0.1,0-0.1,0.1-0.2,0.1c-0.3,0.1-0.4,0.4-0.3,0.7c0.2,0.4,0.3,0.7,0.2,1.2
		c0,0.3-0.1,0.4-0.4,0.3c-0.3-0.1-0.5-0.3-0.6-0.5c-0.1-0.1-0.1-0.3-0.2-0.4c0,0,0-0.1-0.1-0.1s-0.1,0.1-0.1,0.1
		c-0.1,0.2-0.1,0.4,0,0.5c0,0.1,0.1,0.2,0.1,0.3c0.1,0.2,0.1,0.4-0.1,0.5c-0.2,0.1-0.4,0.3-0.7,0.1c-0.1-0.1-0.2-0.2-0.2-0.3
		c0-0.2,0-0.4-0.1-0.6C209.4,91.1,209.4,91,209.4,90.8z"/>
	<path fill="#FFFFFF" d="M211,77.6c0,0.1,0,0.2-0.1,0.4c0,0.1-0.1,0.2-0.1,0.3c-0.1,0.5,0.1,0.8,0.6,0.9c0.1,0,0.2,0,0.3,0
		c0.4,0,0.6,0.2,0.7,0.7c0,0.1,0,0.3-0.1,0.4s-0.2,0-0.3,0c-0.3-0.2-0.6-0.2-0.9,0c-0.1,0-0.2,0.1-0.2,0.3c0,0.1,0,0.2,0.1,0.3
		c0,0,0,0.1,0.1,0.1c0.2,0.1,0.5,0,0.6-0.3c0.1-0.2,0.2-0.2,0.4-0.1c0.1,0.1,0.2,0.2,0.1,0.3c-0.1,0.2-0.3,0.3-0.4,0.5
		c-0.2,0.2-0.1,0.3,0.1,0.5L212,82c0.2,0.1,0.3,0.2,0.3,0.4c0,0.3-0.2,0.5-0.4,0.6c-0.1,0.1-0.2,0-0.3,0c-0.2-0.1-0.3-0.4-0.2-0.7
		c0-0.1,0-0.2-0.1-0.2c-0.4-0.2-0.5-0.4-0.4-0.8c0-0.1,0-0.2-0.1-0.2h-0.1c-0.4-0.1-0.5-0.3-0.4-0.7c0-0.1,0-0.1,0.1-0.2
		c0.1-0.2,0-0.4-0.2-0.6c-0.2-0.1-0.4-0.3-0.5-0.5c-0.3-0.4-0.3-0.8-0.1-1.2c0.1-0.2,0.2-0.5,0.2-0.8c0-0.1,0-0.2,0.1-0.4
		c0.1-0.2,0.3-0.3,0.5-0.2c0.5,0.1,0.7,0.5,0.8,0.9C211,77.3,211,77.4,211,77.6z"/>
	<path fill="#FFFFFF" d="M202.3,92.4c0.4,0,0.7,0.1,1.1,0.2c0.4,0.1,0.8,0.3,1.2,0.2c0.5-0.2,0.8-0.1,1.2,0.2
		c0.4,0.3,0.9,0.4,1.3,0.6c0.3,0.1,0.4,0.2,0.3,0.4c-0.1,0.2-0.3,0.4-0.5,0.3c-0.6-0.1-1.2-0.1-1.7-0.2c-0.2,0-0.5-0.1-0.7-0.2
		c-0.6-0.2-1.1-0.1-1.7-0.2c-0.4-0.1-0.7-0.2-1.1-0.3c-0.2,0-0.3-0.2-0.3-0.4c0-0.2,0.1-0.4,0.4-0.5
		C201.9,92.4,202.1,92.4,202.3,92.4z"/>
	<path fill="#FFFFFF" d="M214.3,83.8c0,0.4-0.7,1.1-1.2,1.1c-0.3,0-0.5-0.2-0.6-0.4c-0.1-0.1-0.1-0.3-0.1-0.4
		c-0.1-0.3-0.3-0.4-0.6-0.4c-0.1,0-0.1,0-0.2,0c-0.2,0-0.3-0.1-0.3-0.3c0-0.5,0.3-0.7,0.8-0.6s0.9-0.2,1.1-0.8
		c0-0.1,0.1-0.2,0.2-0.2c0.2,0,0.2,0.1,0.2,0.2c0.2,0.5,0.3,0.9,0.5,1.4C214.2,83.6,214.3,83.7,214.3,83.8z"/>
	<path fill="#FFFFFF" d="M185.9,83.1c0-0.3,0.1-0.6,0.2-0.8c0.1-0.2,0.3-0.2,0.4,0c0.3,0.4,0.7,0.8,0.8,1.4c0.1,0.4,0,0.7-0.4,0.9
		h-0.1c-0.5,0.2-0.7,0.1-0.8-0.4c0-0.2-0.1-0.4-0.1-0.6C185.9,83.4,185.9,83.2,185.9,83.1z"/>
	<path fill="#FFFFFF" d="M209.9,72.7c0,0.1,0,0.2-0.1,0.3c-0.1,0.2-0.1,0.4-0.2,0.6c0,0.3-0.3,0.5-0.6,0.3c-0.4-0.2-0.6-0.8-0.5-1.2
		c0.1-0.2,0.2-0.4,0.3-0.6s0.2-0.3,0.4-0.2c0.2,0,0.4,0.1,0.4,0.3C209.9,72.4,209.9,72.6,209.9,72.7z"/>
	<path fill="#FFFFFF" d="M213.6,93.8c0.2,0,0.5,0.1,0.8,0.2c0.1,0,0.1,0.1,0.1,0.1c0,0.1,0,0.2-0.1,0.3c-0.1,0-0.1,0.1-0.2,0.1
		c-0.5,0-1,0.3-1.3,0.6c-0.2,0.2-0.4,0.3-0.7,0.3c-0.2,0-0.4-0.3-0.2-0.4c0.2-0.3,0.4-0.6,0.8-0.8C213,93.9,213.3,93.8,213.6,93.8z"
		/>
	<path fill="#FFFFFF" d="M209.9,81.5c0,0.6-0.6,1.4-1.2,1.6c-0.1,0-0.3,0-0.4-0.1c-0.1-0.1-0.1-0.3,0-0.4c0.3-0.4,0.5-0.7,0.9-1.1
		c0.1-0.1,0.1-0.1,0.2-0.2c0.1-0.1,0.2-0.1,0.3-0.1C209.9,81.2,209.9,81.4,209.9,81.5z"/>
	<path fill="#FFFFFF" d="M215.3,86.7c0.1,0,0.2,0,0.3,0.1c0.2,0.1,0.2,0.2,0.1,0.4c0,0.1-0.1,0.1-0.1,0.2c-0.1,0.2-0.1,0.3-0.1,0.5
		c0.1,0.2,0.1,0.5,0,0.7c-0.1,0.3-0.4,0.4-0.7,0.2c-0.2-0.2-0.4-0.4-0.2-0.7c0.1-0.1,0.1-0.3,0.1-0.4c0-0.2,0.1-0.4,0.2-0.6
		C215,86.8,215.1,86.7,215.3,86.7z"/>
	<path fill="#FFFFFF" d="M213.4,81.5c-0.1,0-0.2,0-0.3,0s-0.2,0-0.1,0.1c0,0.1,0,0.2,0.1,0.3c0,0.2,0,0.3-0.2,0.3s-0.4-0.1-0.4-0.2
		s-0.1-0.3-0.1-0.4c-0.1-0.2-0.1-0.3,0.1-0.4c0.2-0.1,0.2-0.2,0.1-0.3c0-0.1-0.1-0.1-0.1-0.2c-0.1-0.2,0-0.4,0.3-0.4
		s0.5,0.1,0.7,0.4c0.1,0.1,0.2,0.2,0.3,0.4c0.1,0.1,0.1,0.2,0,0.3C213.6,81.5,213.5,81.5,213.4,81.5z"/>
	<path fill="#FFFFFF" d="M203.4,75.3h0.1c0.3,0,0.4,0.1,0.3,0.4c-0.1,0.3-0.3,0.6-0.6,0.8c-0.2,0.1-0.4,0.1-0.6,0
		c-0.2-0.1-0.3-0.3-0.3-0.6c0.1-0.4,0.2-0.6,0.6-0.6C203.1,75.3,203.2,75.3,203.4,75.3L203.4,75.3z"/>
	<path fill="#FFFFFF" d="M210.6,93.7c0.3,0.1,0.7,0.2,1,0.2c0.1,0,0.2,0.1,0.2,0.3c0,0.1-0.1,0.2-0.2,0.3c-0.1,0-0.2,0.1-0.3,0.1
		c-0.2,0-0.3,0-0.5,0.1s-0.6-0.1-0.7-0.3C209.9,93.9,210.1,93.7,210.6,93.7z"/>
	<path fill="#FFFFFF" d="M208.6,93.8c0.2,0,0.4,0,0.6,0c0.2,0,0.3,0.2,0.3,0.3c0,0.2-0.1,0.2-0.3,0.2c-0.1,0-0.2,0-0.3,0.1
		c-0.3,0.1-0.5,0.1-0.8-0.1c-0.1-0.1-0.2-0.1-0.2-0.3c0-0.2,0.1-0.3,0.3-0.3C208.3,93.8,208.5,93.8,208.6,93.8z"/>
	<path fill="#FFFFFF" d="M215.5,90.2c0.2,0,0.3,0,0.5,0.1c0.1,0.1,0.2,0,0.3,0.1c0.2,0,0.3,0.2,0.2,0.3c0,0.1-0.1,0.1-0.2,0.1
		c-0.3,0.1-0.6,0.2-0.9,0.1c-0.1,0-0.1,0-0.2-0.1c-0.2-0.1-0.3-0.2-0.3-0.4c0-0.2,0.2-0.2,0.4-0.2C215.4,90.2,215.4,90.2,215.5,90.2
		z"/>
	<path fill="#FFFFFF" d="M182.1,85.2c0,0.1,0,0.2,0,0.4c0,0.1,0,0.2-0.2,0.3c-0.2,0.1-0.4,0-0.6-0.1c-0.2-0.1-0.2-0.3-0.2-0.5
		c0.1-0.3,0.3-0.5,0.6-0.6c0.1,0,0.2,0,0.2,0.2C182.1,85,182.1,85.1,182.1,85.2z"/>
	<path fill="#FFFFFF" d="M209.9,94.5c0.3,0,0.6,0.2,0.6,0.4c0,0.3-0.1,0.4-0.4,0.3c-0.1,0-0.3-0.1-0.4-0.1c-0.1,0-0.2-0.1-0.2-0.2
		c-0.1-0.2,0-0.3,0.2-0.3C209.8,94.6,209.8,94.5,209.9,94.5z"/>
</g>
<g>
	<g>
		<g>
			<path fill="#FFFF00" d="M28.102,128.333h-5.499l-0.41-3.066h-0.131l-0.371,3.066h-5.578l2.879-20.188h6.048L28.102,128.333z
				 M21.538,111.535h0.981l-0.059-0.389h-0.866L21.538,111.535z"/>
		</g>
		<g>
			<path fill="#FFFF00" d="M31.43,128.529c-2.364,0-3.533-1.084-4.097-1.994c-0.687-1.108-1.021-2.592-1.021-4.536v-3.033h2.331
				l-0.052-0.053c-0.703-0.734-1.255-1.506-1.649-2.303c-0.431-0.87-0.649-1.869-0.649-2.97c0-1.784,0.375-3.124,1.145-4.096
				c0.843-1.064,2.188-1.604,3.998-1.604c2.364,0,3.482,1.059,4.003,1.947c0.615,1.048,0.915,2.448,0.915,4.28v2.564h-2.01
				c0.664,0.773,1.187,1.57,1.556,2.376c0.45,0.981,0.679,2.06,0.679,3.204c0,1.943-0.354,3.392-1.084,4.428
				C34.658,127.927,33.291,128.529,31.43,128.529z"/>
		</g>
		<g>
			<rect x="35.589" y="108.146" fill="#FFFF00" width="5.617" height="20.188"/>
		</g>
		<g>
			<polygon fill="#FFFF00" points="49.761,128.333 40.882,128.333 40.882,108.146 49.644,108.146 49.644,113.402 46.5,113.402 
				46.5,115.402 49.488,115.402 49.488,120.609 46.5,120.609 46.5,123.078 49.761,123.078 			"/>
		</g>
		<g>
			<path fill="#FFFF00" d="M59.712,128.333h-4.419l-1.03-2.94v2.94h-5.412v-20.188h4.612l0.896,2.538v-2.538h5.354v20.188H59.712z
				 M55.644,120.264l1.068,3.048v-3.253L55.644,120.264z M51.851,112.59v3.481l1.153-0.216L51.851,112.59z"/>
		</g>
		<g>
			<path fill="#FFFF00" d="M64.067,128.529c-2.364,0-3.533-1.084-4.097-1.994c-0.687-1.108-1.021-2.592-1.021-4.536v-3.033h2.331
				l-0.052-0.053c-0.703-0.734-1.255-1.506-1.649-2.303c-0.431-0.87-0.649-1.869-0.649-2.97c0-1.784,0.375-3.124,1.145-4.096
				c0.843-1.064,2.188-1.604,3.998-1.604c2.364,0,3.482,1.059,4.003,1.947c0.615,1.048,0.915,2.448,0.915,4.28v2.564h-2.01
				c0.664,0.773,1.187,1.57,1.556,2.376c0.45,0.981,0.679,2.06,0.679,3.204c0,1.943-0.354,3.392-1.084,4.428
				C67.295,127.927,65.928,128.529,64.067,128.529z"/>
		</g>
		<g>
			<polygon fill="#FFFF00" points="22.73,152.333 17.113,152.333 17.113,132.146 26.011,132.146 26.011,137.421 22.73,137.421 
				22.73,138.991 25.777,138.991 25.777,144.276 22.73,144.276 			"/>
		</g>
		<g>
			<path fill="#FFFF00" d="M30.092,152.528c-1.796,0-3.162-0.566-4.06-1.684c-0.831-1.031-1.234-2.479-1.234-4.426v-14.283h10.578
				v14.283c0,1.953-0.402,3.402-1.229,4.431C33.253,151.964,31.889,152.528,30.092,152.528z"/>
		</g>
		<g>
			<path fill="#FFFF00" d="M39.633,152.528c-2.365,0-3.534-1.084-4.097-1.994c-0.687-1.106-1.021-2.591-1.021-4.535v-3.033h2.331
				l-0.052-0.053c-0.702-0.733-1.255-1.506-1.649-2.304c-0.431-0.87-0.649-1.869-0.649-2.97c0-1.783,0.375-3.123,1.145-4.096
				c0.844-1.064,2.189-1.604,3.998-1.604c2.364,0,3.481,1.059,4.003,1.946c0.616,1.049,0.915,2.449,0.915,4.28v2.564h-2.01
				c0.664,0.773,1.187,1.57,1.556,2.376c0.451,0.982,0.679,2.061,0.679,3.204c0,1.943-0.354,3.393-1.084,4.428
				C42.862,151.927,41.495,152.528,39.633,152.528z"/>
		</g>
		<g>
			<path fill="#FFFF00" d="M48.471,152.528c-2.365,0-3.534-1.084-4.097-1.994c-0.687-1.106-1.021-2.591-1.021-4.535v-3.033h2.331
				l-0.052-0.053c-0.702-0.733-1.255-1.506-1.649-2.304c-0.431-0.87-0.649-1.869-0.649-2.97c0-1.783,0.375-3.123,1.145-4.096
				c0.844-1.064,2.189-1.604,3.998-1.604c2.364,0,3.481,1.059,4.003,1.946c0.616,1.049,0.915,2.449,0.915,4.28v2.564h-2.01
				c0.664,0.773,1.187,1.57,1.556,2.376c0.451,0.982,0.679,2.061,0.679,3.204c0,1.943-0.354,3.393-1.084,4.428
				C51.7,151.927,50.333,152.528,48.471,152.528z"/>
		</g>
		<g>
			<path fill="#FFFF00" d="M57.929,152.333H52.63v-20.188h5.221c1.721,0,3.014,0.469,3.842,1.393
				c0.795,0.888,1.185,2.191,1.193,3.987v0.534c0,1.485-0.299,2.537-0.732,3.282c0.707,0.957,1.064,2.354,1.064,4.179v0.439
				c-0.016,2.094-0.414,3.61-1.217,4.648C61.116,151.753,59.746,152.333,57.929,152.333z"/>
		</g>
		<g>
			<path fill="#FFFF00" d="M73.238,152.333H67.74l-0.41-3.066h-0.131l-0.371,3.066H61.25l2.879-20.188h6.048L73.238,152.333z
				 M66.675,135.534h0.981l-0.059-0.389H66.73L66.675,135.534z"/>
		</g>
		<g>
			<polygon fill="#FFFF00" points="80.718,152.333 71.791,152.333 71.791,132.146 77.408,132.146 77.408,147.106 80.718,147.106 			
				"/>
		</g>
		<g>
			<polygon fill="#FFFF00" points="88.15,152.333 79.222,152.333 79.222,132.146 84.839,132.146 84.839,147.106 88.15,147.106 			
				"/>
		</g>
		<g>
			<polygon fill="#FFFF00" points="95.533,152.333 86.654,152.333 86.654,132.146 95.416,132.146 95.416,137.401 92.271,137.401 
				92.271,139.401 95.259,139.401 95.259,144.608 92.271,144.608 92.271,147.077 95.533,147.077 			"/>
		</g>
		<g>
			<path fill="#FFFF00" d="M105.888,152.333H94.623v-20.188h5.826c1.249,0,2.245,0.296,2.96,0.88
				c0.71,0.579,1.179,1.373,1.392,2.358c0.165,0.76,0.244,1.693,0.244,2.856c0,1.251-0.145,2.216-0.441,2.95
				c-0.079,0.194-0.171,0.377-0.278,0.547c0.12,0.209,0.228,0.446,0.319,0.717c0.185,0.55,0.43,1.647,0.43,4.829
				c0,2.172,0.033,2.904,0.052,3.146L105.888,152.333z M101.342,141.734c0.101,0.068,0.195,0.144,0.282,0.227l-0.024-0.445
				c-0.014,0.015-0.028,0.028-0.043,0.041C101.489,141.621,101.417,141.681,101.342,141.734z"/>
		</g>
		<g>
			<path fill="#FFFF00" d="M22.382,176.333h-5.27v-20.188h5.357c2.178,0,3.345,0.929,3.94,1.707c0.783,1.024,1.163,2.4,1.163,4.207
				l0.01,7.752c0,2.072-0.372,3.603-1.136,4.679C25.852,175.331,24.662,176.333,22.382,176.333z"/>
		</g>
		<g>
			<polygon fill="#FFFF00" points="35.816,176.333 26.937,176.333 26.937,156.146 35.699,156.146 35.699,161.401 32.554,161.401 
				32.554,163.401 35.542,163.401 35.542,168.608 32.554,168.608 32.554,171.077 35.816,171.077 			"/>
		</g>
		<g>
			<path fill="#FFFF00" d="M39.682,176.528c-2.365,0-3.534-1.084-4.097-1.994c-0.687-1.106-1.021-2.591-1.021-4.535v-3.033h2.331
				l-0.052-0.053c-0.702-0.733-1.255-1.506-1.649-2.304c-0.431-0.87-0.649-1.869-0.649-2.97c0-1.783,0.375-3.123,1.145-4.096
				c0.844-1.064,2.189-1.604,3.998-1.604c2.364,0,3.481,1.059,4.003,1.946c0.616,1.049,0.915,2.449,0.915,4.28v2.564h-2.01
				c0.664,0.773,1.187,1.57,1.556,2.376c0.451,0.982,0.679,2.061,0.679,3.204c0,1.943-0.354,3.393-1.084,4.428
				C42.911,175.927,41.543,176.528,39.682,176.528z"/>
		</g>
		<g>
			<path fill="#FFFF00" d="M51.752,176.528c-1.557,0-2.811-0.508-3.725-1.509c-0.879-0.961-1.325-2.303-1.325-3.985v-4.566h4.473
				v-10.322h5.617v14.479c0,1.752-0.424,3.166-1.262,4.2C54.63,175.938,53.324,176.528,51.752,176.528z"/>
		</g>
		<g>
			<path fill="#FFFF00" d="M67.252,176.333h-5.499l-0.41-3.066h-0.131l-0.371,3.066h-5.578l2.879-20.188h6.048L67.252,176.333z
				 M60.688,159.534h0.981l-0.059-0.389h-0.866L60.688,159.534z"/>
		</g>
		<g>
			<rect x="65.804" y="156.146" fill="#FFFF00" width="10.578" height="20.188"/>
		</g>
		<g>
			<path fill="#FFFF00" d="M87.226,176.333H75.96v-20.188h5.826c1.249,0,2.245,0.296,2.96,0.88c0.71,0.579,1.179,1.373,1.392,2.358
				c0.165,0.76,0.244,1.693,0.244,2.856c0,1.251-0.145,2.216-0.441,2.95c-0.079,0.194-0.171,0.377-0.278,0.547
				c0.12,0.209,0.228,0.446,0.319,0.717c0.185,0.55,0.43,1.647,0.43,4.829c0,2.172,0.033,2.904,0.052,3.146L87.226,176.333z
				 M82.68,165.734c0.101,0.068,0.195,0.144,0.282,0.227l-0.024-0.445c-0.014,0.015-0.028,0.028-0.043,0.041
				C82.827,165.621,82.755,165.681,82.68,165.734z"/>
		</g>
		<g>
			<polygon fill="#FFFF00" points="94.703,176.333 85.824,176.333 85.824,156.146 94.585,156.146 94.585,161.401 91.441,161.401 
				91.441,163.401 94.429,163.401 94.429,168.608 91.441,168.608 91.441,171.077 94.703,171.077 			"/>
		</g>
		<g>
			<path fill="#FFFF00" d="M98.569,176.528c-2.365,0-3.534-1.084-4.097-1.994c-0.687-1.106-1.021-2.591-1.021-4.535v-3.033h2.331
				l-0.052-0.053c-0.702-0.733-1.255-1.506-1.649-2.304c-0.431-0.87-0.649-1.869-0.649-2.97c0-1.783,0.375-3.123,1.145-4.096
				c0.844-1.064,2.189-1.604,3.998-1.604c2.364,0,3.481,1.059,4.003,1.946c0.616,1.049,0.915,2.449,0.915,4.28v2.564h-2.01
				c0.664,0.773,1.187,1.57,1.556,2.376c0.451,0.982,0.679,2.061,0.679,3.204c0,1.943-0.354,3.393-1.084,4.428
				C101.798,175.927,100.43,176.528,98.569,176.528z"/>
		</g>
	</g>
	<g>
		<g>
			<path d="M17.841,126.833l2.451-17.188h3.457l2.607,17.188h-2.441l-0.41-3.066h-2.773l-0.371,3.066
				C20.361,126.833,17.841,126.833,17.841,126.833z M23.232,121.667l-1.152-8.633h-0.039l-1.055,8.633H23.232z"/>
		</g>
		<g>
			<path d="M27.812,122v-1.533h2.48v1.729c0,0.957,0.082,1.629,0.244,2.017s0.469,0.581,0.918,0.581s0.747-0.16,0.894-0.479
				s0.22-0.84,0.22-1.562s-0.13-1.353-0.391-1.89s-0.674-1.099-1.24-1.685l-1.27-1.309c-0.592-0.619-1.053-1.26-1.382-1.924
				s-0.493-1.432-0.493-2.305c0-1.419,0.273-2.474,0.82-3.164s1.488-1.035,2.822-1.035s2.238,0.402,2.71,1.206
				s0.708,1.978,0.708,3.521v1.064H32.44v-1.23c0-0.833-0.072-1.431-0.215-1.792s-0.418-0.542-0.825-0.542s-0.7,0.137-0.879,0.41
				s-0.269,0.684-0.269,1.23s0.091,0.983,0.273,1.309s0.511,0.742,0.986,1.25l1.416,1.533c0.709,0.768,1.245,1.546,1.606,2.334
				s0.542,1.647,0.542,2.578c0,1.608-0.27,2.796-0.811,3.564s-1.486,1.152-2.837,1.152s-2.292-0.428-2.822-1.284
				S27.812,123.64,27.812,122z"/>
		</g>
		<g>
			<path d="M37.089,126.833v-17.188h2.617v17.188C39.706,126.833,37.089,126.833,37.089,126.833z"/>
		</g>
		<g>
			<path d="M42.382,126.833v-17.188h5.762v2.256H45v5h2.988v2.207H45v5.469h3.262v2.256H42.382z"/>
		</g>
		<g>
			<path d="M50.351,126.833v-17.188h2.051l3.643,10.312l-0.186-4.688v-5.625h2.354v17.188h-1.855l-3.74-10.674l0.146,4.512v6.162
				L50.351,126.833L50.351,126.833z"/>
		</g>
		<g>
			<path d="M60.449,122v-1.533h2.48v1.729c0,0.957,0.082,1.629,0.244,2.017s0.469,0.581,0.918,0.581c0.449,0,0.747-0.16,0.894-0.479
				s0.22-0.84,0.22-1.562s-0.13-1.353-0.391-1.89s-0.674-1.099-1.24-1.685l-1.27-1.309c-0.592-0.619-1.053-1.26-1.382-1.924
				s-0.493-1.432-0.493-2.305c0-1.419,0.273-2.474,0.82-3.164s1.488-1.035,2.822-1.035s2.238,0.402,2.71,1.206
				s0.708,1.978,0.708,3.521v1.064h-2.412v-1.23c0-0.833-0.072-1.431-0.215-1.792s-0.418-0.542-0.825-0.542s-0.7,0.137-0.879,0.41
				s-0.269,0.684-0.269,1.23s0.091,0.983,0.273,1.309s0.511,0.742,0.986,1.25l1.416,1.533c0.709,0.768,1.245,1.546,1.606,2.334
				s0.542,1.647,0.542,2.578c0,1.608-0.27,2.796-0.811,3.564s-1.486,1.152-2.837,1.152s-2.292-0.428-2.822-1.284
				S60.449,123.64,60.449,122z"/>
		</g>
		<g>
			<path d="M18.613,150.833v-17.188h5.898v2.275H21.23v4.57h3.047v2.285H21.23v8.057L18.613,150.833L18.613,150.833z"/>
		</g>
		<g>
			<path d="M32.978,149.91c-0.599,0.746-1.561,1.118-2.886,1.118s-2.289-0.374-2.891-1.123c-0.602-0.748-0.903-1.91-0.903-3.486
				v-12.783h2.617v12.734c0,0.905,0.042,1.455,0.127,1.65s0.187,0.373,0.308,0.532c0.121,0.16,0.37,0.239,0.747,0.239
				s0.648-0.11,0.811-0.332c0.163-0.221,0.262-0.496,0.298-0.825c0.036-0.328,0.054-0.75,0.054-1.265v-12.734h2.617v12.783
				C33.876,148.001,33.577,149.165,32.978,149.91z"/>
		</g>
		<g>
			<path d="M36.015,145.999v-1.533h2.48v1.729c0,0.957,0.082,1.63,0.244,2.017c0.163,0.388,0.469,0.581,0.918,0.581
				s0.747-0.159,0.894-0.479c0.146-0.318,0.22-0.84,0.22-1.562s-0.13-1.353-0.391-1.89s-0.674-1.099-1.24-1.685l-1.27-1.309
				c-0.592-0.618-1.053-1.26-1.382-1.924s-0.493-1.432-0.493-2.305c0-1.419,0.273-2.474,0.82-3.164
				c0.547-0.689,1.488-1.035,2.822-1.035s2.238,0.402,2.71,1.206c0.472,0.805,0.708,1.978,0.708,3.521v1.064h-2.412v-1.23
				c0-0.833-0.072-1.431-0.215-1.792s-0.418-0.542-0.825-0.542s-0.7,0.137-0.879,0.41s-0.269,0.684-0.269,1.23
				s0.091,0.983,0.273,1.309s0.511,0.742,0.986,1.25l1.416,1.533c0.709,0.769,1.245,1.547,1.606,2.334
				c0.361,0.788,0.542,1.647,0.542,2.578c0,1.608-0.27,2.797-0.811,3.564c-0.541,0.769-1.486,1.152-2.837,1.152
				s-2.292-0.428-2.822-1.284C36.28,148.889,36.015,147.64,36.015,145.999z"/>
		</g>
		<g>
			<path d="M44.853,145.999v-1.533h2.48v1.729c0,0.957,0.082,1.63,0.244,2.017c0.163,0.388,0.469,0.581,0.918,0.581
				s0.747-0.159,0.894-0.479c0.146-0.318,0.22-0.84,0.22-1.562s-0.13-1.353-0.391-1.89s-0.674-1.099-1.24-1.685l-1.27-1.309
				c-0.592-0.618-1.053-1.26-1.382-1.924s-0.493-1.432-0.493-2.305c0-1.419,0.273-2.474,0.82-3.164
				c0.547-0.689,1.488-1.035,2.822-1.035s2.238,0.402,2.71,1.206c0.472,0.805,0.708,1.978,0.708,3.521v1.064h-2.412v-1.23
				c0-0.833-0.072-1.431-0.215-1.792s-0.418-0.542-0.825-0.542s-0.7,0.137-0.879,0.41s-0.269,0.684-0.269,1.23
				s0.091,0.983,0.273,1.309s0.511,0.742,0.986,1.25l1.416,1.533c0.709,0.769,1.245,1.547,1.606,2.334
				c0.361,0.788,0.542,1.647,0.542,2.578c0,1.608-0.27,2.797-0.811,3.564c-0.541,0.769-1.486,1.152-2.837,1.152
				s-2.292-0.428-2.822-1.284C45.118,148.889,44.853,147.64,44.853,145.999z"/>
		</g>
		<g>
			<path d="M61.386,138.06c0,1.85-0.501,2.985-1.504,3.408c1.224,0.41,1.836,1.762,1.836,4.053v0.439
				c-0.013,1.726-0.314,2.969-0.903,3.73s-1.551,1.143-2.886,1.143H54.13v-17.188h3.721c1.283,0,2.191,0.298,2.725,0.894
				s0.804,1.594,0.811,2.993L61.386,138.06L61.386,138.06z M56.748,140.599h0.967c0.449,0,0.744-0.143,0.884-0.43
				c0.14-0.286,0.21-0.875,0.21-1.768v-1.035c-0.006-0.664-0.098-1.108-0.273-1.333s-0.479-0.337-0.908-0.337h-0.879L56.748,140.599
				L56.748,140.599z M56.748,148.802h0.928c0.521,0,0.885-0.179,1.094-0.537c0.208-0.357,0.312-0.999,0.312-1.924v-1.387
				c0-0.872-0.084-1.489-0.254-1.851s-0.495-0.542-0.977-0.542h-1.104L56.748,148.802L56.748,148.802z"/>
		</g>
		<g>
			<path d="M62.978,150.833l2.451-17.188h3.457l2.607,17.188h-2.441l-0.41-3.066h-2.773l-0.371,3.066H62.978z M68.369,145.667
				l-1.152-8.633h-0.039l-1.055,8.633H68.369z"/>
		</g>
		<g>
			<path d="M73.291,150.833v-17.188h2.617v14.961h3.311v2.227H73.291z"/>
		</g>
		<g>
			<path d="M80.722,150.833v-17.188h2.617v14.961h3.311v2.227H80.722z"/>
		</g>
		<g>
			<path d="M88.154,150.833v-17.188h5.762v2.256h-3.145v5h2.988v2.207h-2.988v5.469h3.262v2.256L88.154,150.833L88.154,150.833z"/>
		</g>
		<g>
			<path d="M99.58,142.757l-0.84-0.039v8.115h-2.617v-17.188h4.326c0.898,0,1.569,0.181,2.012,0.542s0.734,0.866,0.874,1.514
				c0.14,0.648,0.21,1.494,0.21,2.539s-0.111,1.841-0.332,2.388s-0.631,0.915-1.23,1.104c0.592,0.104,1.006,0.505,1.24,1.201
				c0.234,0.697,0.352,2.147,0.352,4.351s0.033,3.388,0.098,3.55h-2.617c-0.065-0.13-0.098-2.184-0.098-6.162
				c0-0.762-0.091-1.268-0.273-1.519C100.501,142.902,100.133,142.771,99.58,142.757z M98.75,140.687h1.045
				c0.332,0,0.578-0.074,0.737-0.225c0.16-0.149,0.27-0.406,0.332-0.771c0.062-0.364,0.093-0.921,0.093-1.67v-0.107
				c0-0.931-0.078-1.539-0.234-1.826c-0.156-0.286-0.518-0.43-1.084-0.43H98.75V140.687z"/>
		</g>
		<g>
			<path d="M18.613,174.833v-17.188h3.857c1.263,0,2.179,0.373,2.749,1.118c0.57,0.746,0.854,1.845,0.854,3.296l0.01,7.754
				c0,1.732-0.287,3.002-0.859,3.809c-0.573,0.808-1.52,1.211-2.842,1.211H18.613z M21.23,172.802h0.859
				c0.482,0,0.832-0.156,1.05-0.469s0.327-0.885,0.327-1.719l-0.01-8.486c0-0.892-0.109-1.526-0.327-1.904
				c-0.218-0.377-0.594-0.566-1.128-0.566H21.23V172.802z"/>
		</g>
		<g>
			<path d="M28.437,174.833v-17.188h5.762v2.256h-3.145v5h2.988v2.207h-2.988v5.469h3.262v2.256L28.437,174.833L28.437,174.833z"/>
		</g>
		<g>
			<path d="M36.064,169.999v-1.533h2.48v1.729c0,0.957,0.082,1.63,0.244,2.017c0.163,0.388,0.469,0.581,0.918,0.581
				s0.747-0.159,0.894-0.479c0.146-0.318,0.22-0.84,0.22-1.562s-0.13-1.353-0.391-1.89s-0.674-1.099-1.24-1.685l-1.27-1.309
				c-0.592-0.618-1.053-1.26-1.382-1.924s-0.493-1.432-0.493-2.305c0-1.419,0.273-2.474,0.82-3.164
				c0.547-0.689,1.488-1.035,2.822-1.035s2.238,0.402,2.71,1.206c0.472,0.805,0.708,1.978,0.708,3.521v1.064h-2.412v-1.23
				c0-0.833-0.072-1.431-0.215-1.792s-0.418-0.542-0.825-0.542s-0.7,0.137-0.879,0.41s-0.269,0.684-0.269,1.23
				s0.091,0.983,0.273,1.309s0.511,0.742,0.986,1.25l1.416,1.533c0.709,0.769,1.245,1.547,1.606,2.334
				c0.361,0.788,0.542,1.647,0.542,2.578c0,1.608-0.27,2.797-0.811,3.564c-0.541,0.769-1.486,1.152-2.837,1.152
				s-2.292-0.428-2.822-1.284C36.329,172.889,36.064,171.64,36.064,169.999z"/>
		</g>
		<g>
			<path d="M54.365,173.881c-0.619,0.766-1.489,1.147-2.612,1.147s-1.996-0.34-2.617-1.021c-0.622-0.68-0.933-1.671-0.933-2.974
				v-3.066h2.529v2.939c0,0.951,0.153,1.53,0.459,1.738c0.137,0.092,0.306,0.137,0.508,0.137c0.397,0,0.659-0.162,0.786-0.488
				c0.127-0.325,0.19-0.84,0.19-1.543v-13.105h2.617v12.979C55.292,172.03,54.983,173.116,54.365,173.881z"/>
		</g>
		<g>
			<path d="M56.992,174.833l2.451-17.188H62.9l2.607,17.188h-2.441l-0.41-3.066h-2.773l-0.371,3.066H56.992z M62.382,169.667
				l-1.152-8.633h-0.039l-1.055,8.633H62.382z"/>
		</g>
		<g>
			<path d="M67.304,174.833v-17.188h2.617v6.953h2.344v-6.953h2.617v17.188h-2.617v-7.988h-2.344v7.988H67.304z"/>
		</g>
		<g>
			<path d="M80.917,166.757l-0.84-0.039v8.115H77.46v-17.188h4.326c0.898,0,1.569,0.181,2.012,0.542s0.734,0.866,0.874,1.514
				c0.14,0.648,0.21,1.494,0.21,2.539s-0.111,1.841-0.332,2.388s-0.631,0.915-1.23,1.104c0.592,0.104,1.006,0.505,1.24,1.201
				c0.234,0.697,0.352,2.147,0.352,4.351s0.033,3.388,0.098,3.55h-2.617c-0.065-0.13-0.098-2.184-0.098-6.162
				c0-0.762-0.091-1.268-0.273-1.519C81.839,166.902,81.471,166.771,80.917,166.757z M80.087,164.687h1.045
				c0.332,0,0.578-0.074,0.737-0.225c0.16-0.149,0.27-0.406,0.332-0.771c0.062-0.364,0.093-0.921,0.093-1.67v-0.107
				c0-0.931-0.078-1.539-0.234-1.826c-0.156-0.286-0.518-0.43-1.084-0.43h-0.889V164.687z"/>
		</g>
		<g>
			<path d="M87.324,174.833v-17.188h5.762v2.256h-3.145v5h2.988v2.207h-2.988v5.469h3.262v2.256L87.324,174.833L87.324,174.833z"/>
		</g>
		<g>
			<path d="M94.951,169.999v-1.533h2.48v1.729c0,0.957,0.082,1.63,0.244,2.017c0.163,0.388,0.469,0.581,0.918,0.581
				s0.747-0.159,0.894-0.479c0.146-0.318,0.22-0.84,0.22-1.562s-0.13-1.353-0.391-1.89s-0.674-1.099-1.24-1.685l-1.27-1.309
				c-0.592-0.618-1.053-1.26-1.382-1.924s-0.493-1.432-0.493-2.305c0-1.419,0.273-2.474,0.82-3.164
				c0.547-0.689,1.488-1.035,2.822-1.035s2.238,0.402,2.71,1.206c0.472,0.805,0.708,1.978,0.708,3.521v1.064H99.58v-1.23
				c0-0.833-0.072-1.431-0.215-1.792s-0.418-0.542-0.825-0.542s-0.7,0.137-0.879,0.41s-0.269,0.684-0.269,1.23
				s0.091,0.983,0.273,1.309s0.511,0.742,0.986,1.25l1.416,1.533c0.709,0.769,1.245,1.547,1.606,2.334
				c0.361,0.788,0.542,1.647,0.542,2.578c0,1.608-0.27,2.797-0.811,3.564c-0.541,0.769-1.486,1.152-2.837,1.152
				s-2.292-0.428-2.822-1.284C95.216,172.889,94.951,171.64,94.951,169.999z"/>
		</g>
	</g>
</g>
</svg>
