<?xml version="1.0" encoding="utf-8"?>
<!-- Generator: Adobe Illustrator 17.0.0, SVG Export Plug-In . SVG Version: 6.00 Build 0)  -->
<!DOCTYPE svg PUBLIC "-//W3C//DTD SVG 1.1//EN" "http://www.w3.org/Graphics/SVG/1.1/DTD/svg11.dtd">
<svg version="1.1" id="Layer_1" xmlns="http://www.w3.org/2000/svg" xmlns:xlink="http://www.w3.org/1999/xlink" x="0px" y="0px"
	 width="256px" height="256px" viewBox="0 0 256 256" enable-background="new 0 0 256 256" xml:space="preserve">
	<polygon fill="#FFFF00" points="128,188.6 53.1,243.2 82,155.1 6.8,100.8 99.5,101 128,12.8 156.5,101 249.2,100.8 174,155.1 
	202.9,243.2 "/>
	<path fill="#FFFFFF" d="M192,10.3c-17.1,0-32.4,8-42.3,20.6h-0.3v0.3c-7.1,9.1-11.4,20.6-11.4,33c0,29.7,24.2,53.9,53.9,53.9
	s53.9-24.2,53.9-53.9S221.7,10.3,192,10.3z"/>
	<path d="M192,10.3c-17.1,0-32.4,8-42.3,20.6h-0.3v0.3c-7.1,9.1-11.4,20.6-11.4,33c0,29.7,24.2,53.9,53.9,53.9s53.9-24.2,53.9-53.9
	S221.7,10.3,192,10.3z M208.6,100.9l-23.1-3L183.7,78l17.6-10.7L217,82.4L208.6,100.9z M171.2,103.3L151.9,89l-2.1-14.7l11.8-7.4
	L181.5,78l1.9,20.2L171.2,103.3z M149.1,72.2L142,57.4l9.3-15.3l9.7,2l-0.2,20.8L149.1,72.2z M188.3,19l21.3,2.9l7.3,13.6l-16.1,7.9
	l-16.5-11.5L188.3,19z M231.4,74.4l-12.6,6.7l-16.9-16.2l0.2-19.7l16-7.9L232.3,50L231.4,74.4z M233.5,74.9l1-24.5l7.1-0.9
	c1.4,4.7,2.1,9.6,2.1,14.7c0,4.6-0.6,9-1.7,13.2L233.5,74.9z M240.9,47.4l-7.1,0.9l-14.6-13.1L212,21.9l6.1-2.4
	C228.7,25.7,236.9,35.6,240.9,47.4z M178.8,14.2l7.4,4.1L182,32.1L162.3,42l-10.5-2.1l-0.2-8.1C158.5,23.4,167.9,17,178.8,14.2z
	 M149.7,40.5l-8.5,14.1c1.4-7.3,4.3-14.1,8.4-20L149.7,40.5z M140.5,59.2l7.1,14.9l2.1,14.8l-2.9,0.4c-4.1-7.4-6.5-16-6.5-25.1
	C140.3,62.5,140.4,60.8,140.5,59.2z M172.4,112.1l-0.2-6.8l12.5-5.3l23.9,3.1l4.4,8.4c-6.4,2.9-13.5,4.5-21,4.5
	C185.1,115.9,178.5,114.5,172.4,112.1z"/>
	<g>
		<path fill="none" stroke="#000000" stroke-width="3" stroke-miterlimit="10" d="M157.6,137"/>
		<path fill="#FF0000" d="M157.6,137"/>
	</g>
	<g>
		<path fill="#FFFFFF" d="M212.018,169.811c20.339-9.811,34.116-31.569,34.955-34.882s-0.454-4.075-2.74-6.537
		c-2.286-2.462-7.013-0.628-7.013-0.628s-21.431,17.177-31.445,23.927c-10.103,6.86-52.208,17.284-57.917,20.233
		s-45.273,15.405-51.975,23.898c0.001,2.717-1.952,9.575,5.015,6.183C107.865,198.614,178.483,185.82,212.018,169.811z"/>
		<g>
			<path fill="none" stroke="#000000" stroke-width="3" stroke-miterlimit="10" d="M183.442,141.801
			c3.346-0.674,6.084-1.382,8.149-1.813c4.406-1.094,9.485-2.465,16.199-4.52c8.845-2.796,18.661-7.712,22.294-8.519
			c6.383-1.415,12.324,0.439,12.324,0.439c2.872,2.296-21.496,20.203-27.348,24.577c-15.06,11.135-61.958,21.891-95.835,34.819
			c-12.069,4.564-17.38,9.28-17.38,9.28s9.32-3.05,15.901-4.487c14.62-3.338,78.436-15.777,94.943-25.664
			c21.31-12.837,32.139-31.248,32.271-34.584c4.982,7.696,1.373,14.135-1.763,18.509c-3.146,4.274-0.683,6.516-1.964,7.664
			c-0.718,0.784-4.285-0.529-7.365,2.531c-3.08,3.06-4.195,5.699-7.971,8.836c-3.787,3.038-0.794,6.427-3.211,9.111
			c-2.429,2.585-5.069-2.152-8.658-0.042c-3.577,2.209-5.631,3.646-11.859,6.452c-6.128,2.795-2.439,7.013-4.824,8.184
			c-2.264,1.359-6.539-4.504-11.231-2.372c-4.693,2.132-22.9,13.92-29.139,17.532c-6.338,3.624-1.355,12.225-3.365,14.059
			c-1.281,1.149-5.544-2.804-9.487-2.968c-2.319-0.044-4.56,1.514-6.857,3.48c-6.15,5.313-0.804,10.856-3.432,12.557
			s-4.495-1.512-9.089-3.013s-8.514,1.25-13.341-3.244c-23.207-21.363-19.049-44.566-19.049-44.566
			c1.689-2.905,2.672-2.209,7.421-1.128c4.738,0.982,12.866,1.687,18.828-2.599c5.863-4.275,12.144-15.64,11.579-20.709
			c-0.564-5.069-1.979-8.735,4.636-8.968c2.706-0.1,10.723-1.295,19.998-2.931l4.24-0.774
			C161.479,146.058,161.479,146.058,183.442,141.801z"/>
			<path fill="#3F9500" d="M183.442,141.801c3.346-0.674,6.084-1.382,8.149-1.813c4.406-1.094,9.485-2.465,16.199-4.52
			c8.845-2.796,18.661-7.712,22.294-8.519c6.383-1.415,12.324,0.439,12.324,0.439c2.872,2.296-21.496,20.203-27.348,24.577
			c-15.06,11.135-61.958,21.891-95.835,34.819c-12.069,4.564-17.38,9.28-17.38,9.28s9.32-3.05,15.901-4.487
			c14.62-3.338,78.436-15.777,94.943-25.664c21.31-12.837,32.139-31.248,32.271-34.584c4.982,7.696,1.373,14.135-1.763,18.509
			c-3.146,4.274-0.683,6.516-1.964,7.664c-0.718,0.784-4.285-0.529-7.365,2.531c-3.08,3.06-4.195,5.699-7.971,8.836
			c-3.787,3.038-0.794,6.427-3.211,9.111c-2.429,2.585-5.069-2.152-8.658-0.042c-3.577,2.209-5.631,3.646-11.859,6.452
			c-6.128,2.795-2.439,7.013-4.824,8.184c-2.264,1.359-6.539-4.504-11.231-2.372c-4.693,2.132-22.9,13.92-29.139,17.532
			c-6.338,3.624-1.355,12.225-3.365,14.059c-1.281,1.149-5.544-2.804-9.487-2.968c-2.319-0.044-4.56,1.514-6.857,3.48
			c-6.15,5.313-0.804,10.856-3.432,12.557s-4.495-1.512-9.089-3.013s-8.514,1.25-13.341-3.244
			c-23.207-21.363-19.049-44.566-19.049-44.566c1.689-2.905,2.672-2.209,7.421-1.128c4.738,0.982,12.866,1.687,18.828-2.599
			c5.863-4.275,12.144-15.64,11.579-20.709c-0.564-5.069-1.979-8.735,4.636-8.968c2.706-0.1,10.723-1.295,19.998-2.931l4.24-0.774
			C161.479,146.058,161.479,146.058,183.442,141.801z"/>
		</g>
		<g>
			<g>
				<g>
					<path fill="none" stroke="#1D1D1B" stroke-width="3" d="M154.591,161.012c-0.199,0.022-0.398,0.044-0.607-0.033
					c-1.038-0.287-1.756-1.314-1.569-2.341l3.199-14.644c0.287-1.038,1.314-1.756,2.341-1.569c1.038,0.287,1.756,1.314,1.569,2.341
					l-3.199,14.644C156.126,160.338,155.386,160.923,154.591,161.012z"/>
				</g>
				<g>
					<path fill="none" stroke="#1D1D1B" stroke-width="3" d="M163.756,157.476c-0.199,0.022-0.398,0.044-0.607-0.033
					c-1.038-0.287-1.756-1.314-1.569-2.341l2.515-11.75c0.287-1.038,1.314-1.756,2.341-1.569c1.038,0.287,1.756,1.314,1.569,2.341
					l-2.515,11.75C165.291,156.802,164.551,157.387,163.756,157.476z"/>
				</g>
				<g>
					<path fill="none" stroke="#1D1D1B" stroke-width="3" d="M171.431,155.012c-0.199,0.022-0.398,0.044-0.607-0.033
					c-1.038-0.287-1.756-1.314-1.569-2.341l2.383-11.132c0.287-1.038,1.314-1.756,2.341-1.569c1.038,0.287,1.756,1.314,1.569,2.341
					l-2.383,11.132C172.965,154.338,172.226,154.923,171.431,155.012z"/>
				</g>
				<g>
					<path fill="none" stroke="#1D1D1B" stroke-width="3" d="M180.109,150.725c-0.199,0.022-0.398,0.044-0.607-0.033
					c-1.038-0.287-1.756-1.314-1.569-2.341l1.93-8.868c0.287-1.038,1.314-1.756,2.341-1.569c1.038,0.287,1.756,1.314,1.569,2.341
					l-1.93,8.868C181.644,150.051,180.905,150.636,180.109,150.725z"/>
				</g>
			</g>
			<g>
				<g>
					<path fill="#FFFF00" d="M154.591,161.012c-0.199,0.022-0.398,0.044-0.607-0.033c-1.038-0.287-1.756-1.314-1.569-2.341
					l3.199-14.644c0.287-1.038,1.314-1.756,2.341-1.569c1.038,0.287,1.756,1.314,1.569,2.341l-3.199,14.644
					C156.126,160.338,155.386,160.923,154.591,161.012z"/>
				</g>
				<g>
					<path fill="#FFFF00" d="M163.756,157.476c-0.199,0.022-0.398,0.044-0.607-0.033c-1.038-0.287-1.756-1.314-1.569-2.341
					l2.515-11.75c0.287-1.038,1.314-1.756,2.341-1.569c1.038,0.287,1.756,1.314,1.569,2.341l-2.515,11.75
					C165.291,156.802,164.551,157.387,163.756,157.476z"/>
				</g>
				<g>
					<path fill="#FFFF00" d="M171.431,155.012c-0.199,0.022-0.398,0.044-0.607-0.033c-1.038-0.287-1.756-1.314-1.569-2.341
					l2.383-11.132c0.287-1.038,1.314-1.756,2.341-1.569c1.038,0.287,1.756,1.314,1.569,2.341l-2.383,11.132
					C172.965,154.338,172.226,154.923,171.431,155.012z"/>
				</g>
				<g>
					<path fill="#FFFF00" d="M180.109,150.725c-0.199,0.022-0.398,0.044-0.607-0.033c-1.038-0.287-1.756-1.314-1.569-2.341
					l1.93-8.868c0.287-1.038,1.314-1.756,2.341-1.569c1.038,0.287,1.756,1.314,1.569,2.341l-1.93,8.868
					C181.644,150.051,180.905,150.636,180.109,150.725z"/>
				</g>
			</g>
		</g>
	</g>
	<g>
		<path fill="#D2132F" d="M153.2,51.2c-1.6,4.4-2.5,9.2-2.5,14.2s0.9,9.8,2.5,14.2l38.4,3.6l38.4-3.6c1.6-4.4,2.5-9.2,2.5-14.2
		s-0.9-9.8-2.5-14.2l-38.4-3.6L153.2,51.2z"/>
		<path fill="#FFFFFF" d="M191.6,24.5c-17.6,0-32.6,11.1-38.4,26.7H230C224.2,35.6,209.2,24.5,191.6,24.5z"/>
		<path fill="#FFFFFF" d="M191.6,106.4c17.6,0,32.6-11.1,38.4-26.7h-76.8C158.9,95.3,174,106.4,191.6,106.4z"/>
	</g>
	<ellipse fill="none" stroke="#000000" stroke-width="1.4754" stroke-miterlimit="10" cx="191.6" cy="65.2" rx="40.8" ry="40.6"/>
	<g>
		<g>
			<g>
				<path fill="#FFFF00" d="M23.519,129.334H18.22v-20.188h5.221c1.721,0,3.014,0.469,3.842,1.393
				c0.795,0.887,1.185,2.191,1.193,3.987v0.534c0,1.485-0.299,2.537-0.732,3.282c0.708,0.957,1.064,2.354,1.064,4.179v0.439
				c-0.016,2.094-0.414,3.611-1.217,4.648C26.706,128.753,25.335,129.334,23.519,129.334z"/>
			</g>
			<g>
				<polygon fill="#FFFF00" points="36.728,129.334 27.849,129.334 27.849,109.146 36.611,109.146 36.611,114.402 33.466,114.402 
				33.466,116.402 36.455,116.402 36.455,121.609 33.466,121.609 33.466,124.078 36.728,124.078 			"/>
			</g>
			<g>
				<polygon fill="#FFFF00" points="44.746,129.334 35.818,129.334 35.818,109.146 41.435,109.146 41.435,124.107 44.746,124.107 			
				"/>
			</g>
			<g>
				<path fill="#FFFF00" d="M54.229,129.334H48.73l-0.41-3.067h-0.131l-0.371,3.067H42.24l2.879-20.188h6.048L54.229,129.334z
				 M47.665,112.535h0.981l-0.059-0.389h-0.866L47.665,112.535z"/>
			</g>
			<g>
				<path fill="#FFFF00" d="M64.044,129.334H52.781v-20.188h5.826c1.249,0,2.245,0.296,2.96,0.88c0.71,0.58,1.179,1.373,1.392,2.359
				c0.164,0.758,0.244,1.693,0.244,2.856c0,1.25-0.145,2.216-0.441,2.95c-0.079,0.194-0.171,0.376-0.278,0.547
				c0.12,0.209,0.228,0.447,0.319,0.717c0.185,0.548,0.43,1.646,0.43,4.829c0,2.174,0.033,2.906,0.052,3.147L64.044,129.334z
				 M59.5,118.735c0.101,0.068,0.195,0.143,0.282,0.226l-0.025-0.443c-0.013,0.013-0.026,0.026-0.04,0.039
				C59.648,118.621,59.576,118.68,59.5,118.735z"/>
			</g>
			<g>
				<path fill="#FFFF00" d="M67.84,129.529c-1.795,0-3.161-0.566-4.06-1.684c-0.831-1.033-1.234-2.48-1.234-4.426v-14.283h10.578
				v14.283c0,1.952-0.402,3.401-1.229,4.431C71,128.964,69.636,129.529,67.84,129.529z"/>
			</g>
			<g>
				<path fill="#FFFF00" d="M77.381,129.529c-2.364,0-3.533-1.084-4.097-1.994c-0.687-1.108-1.021-2.592-1.021-4.536v-3.033h2.331
				l-0.052-0.053c-0.703-0.734-1.255-1.506-1.649-2.303c-0.431-0.87-0.649-1.869-0.649-2.97c0-1.784,0.375-3.124,1.145-4.096
				c0.843-1.064,2.188-1.604,3.998-1.604c2.364,0,3.482,1.059,4.003,1.947c0.615,1.048,0.915,2.448,0.915,4.28v2.564h-2.01
				c0.664,0.773,1.187,1.57,1.556,2.376c0.45,0.981,0.679,2.06,0.679,3.204c0,1.943-0.354,3.392-1.084,4.428
				C80.609,128.927,79.242,129.529,77.381,129.529z"/>
			</g>
			<g>
				<path fill="#FFFF00" d="M86.219,129.529c-2.364,0-3.533-1.084-4.097-1.994c-0.687-1.108-1.021-2.592-1.021-4.536v-3.033h2.331
				l-0.052-0.053c-0.703-0.734-1.255-1.506-1.649-2.303c-0.431-0.87-0.649-1.869-0.649-2.97c0-1.784,0.375-3.124,1.145-4.096
				c0.843-1.064,2.188-1.604,3.998-1.604c2.364,0,3.482,1.059,4.003,1.947c0.615,1.048,0.915,2.448,0.915,4.28v2.564h-2.01
				c0.664,0.773,1.187,1.57,1.556,2.376c0.45,0.981,0.679,2.06,0.679,3.204c0,1.943-0.354,3.392-1.084,4.428
				C89.447,128.927,88.08,129.529,86.219,129.529z"/>
			</g>
			<g>
				<rect x="90.378" y="109.146" fill="#FFFF00" width="5.617" height="20.188"/>
			</g>
			<g>
				<path fill="#FFFF00" d="M100.448,129.529c-2.364,0-3.533-1.084-4.097-1.994c-0.687-1.108-1.021-2.592-1.021-4.536v-3.033h2.331
				l-0.052-0.053c-0.703-0.734-1.255-1.506-1.649-2.303c-0.431-0.87-0.649-1.869-0.649-2.97c0-1.784,0.375-3.124,1.145-4.096
				c0.843-1.064,2.188-1.604,3.998-1.604c2.364,0,3.482,1.059,4.003,1.947c0.615,1.048,0.915,2.448,0.915,4.28v2.564h-2.01
				c0.664,0.773,1.187,1.57,1.556,2.376c0.45,0.981,0.679,2.06,0.679,3.204c0,1.943-0.354,3.392-1.084,4.428
				C103.676,128.927,102.309,129.529,100.448,129.529z"/>
			</g>
			<g>
				<path fill="#FFFF00" d="M109.583,129.528c-2.199,0-3.417-1.023-4.053-1.882c-0.82-1.109-1.236-2.643-1.236-4.559v-7.49
				c0-3.175,0.965-5.244,2.867-6.149c0.697-0.33,1.518-0.497,2.441-0.497c1.541,0,5.123,0.591,5.123,6.07v3.863h-4.795v0.33h4.834
				v3.932c0,2.009-0.388,3.508-1.185,4.581C112.97,128.549,111.781,129.528,109.583,129.528z"/>
			</g>
			<g>
				<rect x="113.894" y="109.146" fill="#FFFF00" width="10.578" height="20.188"/>
			</g>
			<g>
				<polygon fill="#FFFF00" points="132.929,129.334 124.05,129.334 124.05,109.146 132.812,109.146 132.812,114.402 
				129.667,114.402 129.667,116.402 132.655,116.402 132.655,121.609 129.667,121.609 129.667,124.078 132.929,124.078 			"/>
			</g>
			<g>
				<path fill="#FFFF00" d="M143.275,129.334h-11.257v-20.188h5.826c1.249,0,2.245,0.296,2.961,0.88
				c0.71,0.579,1.179,1.373,1.392,2.359c0.163,0.754,0.243,1.689,0.243,2.855c0,1.252-0.145,2.218-0.442,2.951
				c-0.078,0.194-0.17,0.376-0.277,0.546c0.12,0.209,0.229,0.446,0.319,0.717c0.185,0.548,0.43,1.646,0.43,4.829
				c0,2.177,0.033,2.908,0.052,3.149L143.275,129.334z M138.738,118.735c0.101,0.068,0.194,0.143,0.281,0.226l-0.024-0.443
				c-0.014,0.014-0.028,0.027-0.042,0.041C138.885,118.622,138.813,118.681,138.738,118.735z"/>
			</g>
			<g>
				<polygon fill="#FFFF00" points="23.73,153.333 18.113,153.333 18.113,133.146 27.011,133.146 27.011,138.421 23.73,138.421 
				23.73,139.991 26.777,139.991 26.777,145.276 23.73,145.276 			"/>
			</g>
			<g>
				<path fill="#FFFF00" d="M31.092,153.528c-1.796,0-3.162-0.566-4.06-1.684c-0.831-1.031-1.234-2.479-1.234-4.426v-14.283h10.578
				v14.283c0,1.953-0.402,3.402-1.229,4.431C34.253,152.964,32.889,153.528,31.092,153.528z"/>
			</g>
			<g>
				<path fill="#FFFF00" d="M40.633,153.528c-2.365,0-3.534-1.084-4.097-1.994c-0.687-1.106-1.021-2.591-1.021-4.535v-3.033h2.331
				l-0.052-0.053c-0.702-0.733-1.255-1.506-1.649-2.304c-0.431-0.87-0.649-1.869-0.649-2.97c0-1.783,0.375-3.123,1.145-4.096
				c0.844-1.064,2.189-1.604,3.998-1.604c2.364,0,3.481,1.059,4.003,1.946c0.616,1.049,0.915,2.449,0.915,4.28v2.564h-2.01
				c0.664,0.773,1.187,1.57,1.556,2.376c0.451,0.982,0.679,2.061,0.679,3.204c0,1.943-0.354,3.393-1.084,4.428
				C43.862,152.927,42.495,153.528,40.633,153.528z"/>
			</g>
			<g>
				<path fill="#FFFF00" d="M49.471,153.528c-2.365,0-3.534-1.084-4.097-1.994c-0.687-1.106-1.021-2.591-1.021-4.535v-3.033h2.331
				l-0.052-0.053c-0.702-0.733-1.255-1.506-1.649-2.304c-0.431-0.87-0.649-1.869-0.649-2.97c0-1.783,0.375-3.123,1.145-4.096
				c0.844-1.064,2.189-1.604,3.998-1.604c2.364,0,3.481,1.059,4.003,1.946c0.616,1.049,0.915,2.449,0.915,4.28v2.564h-2.01
				c0.664,0.773,1.187,1.57,1.556,2.376c0.451,0.982,0.679,2.061,0.679,3.204c0,1.943-0.354,3.393-1.084,4.428
				C52.7,152.927,51.333,153.528,49.471,153.528z"/>
			</g>
			<g>
				<path fill="#FFFF00" d="M58.929,153.333H53.63v-20.188h5.221c1.721,0,3.014,0.469,3.842,1.393
				c0.795,0.888,1.185,2.191,1.193,3.987v0.534c0,1.485-0.299,2.537-0.732,3.282c0.707,0.957,1.064,2.354,1.064,4.179v0.439
				c-0.016,2.094-0.414,3.61-1.217,4.648C62.116,152.753,60.746,153.333,58.929,153.333z"/>
			</g>
			<g>
				<path fill="#FFFF00" d="M74.238,153.333H68.74l-0.41-3.066h-0.131l-0.371,3.066H62.25l2.879-20.188h6.048L74.238,153.333z
				 M67.675,136.534h0.981l-0.059-0.389H67.73L67.675,136.534z"/>
			</g>
			<g>
				<polygon fill="#FFFF00" points="81.718,153.333 72.791,153.333 72.791,133.146 78.408,133.146 78.408,148.106 81.718,148.106 			
				"/>
			</g>
			<g>
				<polygon fill="#FFFF00" points="89.15,153.333 80.222,153.333 80.222,133.146 85.839,133.146 85.839,148.106 89.15,148.106 			
				"/>
			</g>
			<g>
				<polygon fill="#FFFF00" points="96.533,153.333 87.654,153.333 87.654,133.146 96.416,133.146 96.416,138.401 93.271,138.401 
				93.271,140.401 96.259,140.401 96.259,145.608 93.271,145.608 93.271,148.077 96.533,148.077 			"/>
			</g>
			<g>
				<path fill="#FFFF00" d="M106.888,153.333H95.623v-20.188h5.826c1.249,0,2.245,0.296,2.96,0.88
				c0.71,0.579,1.179,1.373,1.392,2.358c0.165,0.76,0.244,1.693,0.244,2.856c0,1.251-0.145,2.216-0.441,2.95
				c-0.079,0.194-0.171,0.377-0.278,0.547c0.12,0.209,0.228,0.446,0.319,0.717c0.185,0.55,0.43,1.647,0.43,4.829
				c0,2.172,0.033,2.904,0.052,3.146L106.888,153.333z M102.342,142.734c0.101,0.068,0.195,0.144,0.282,0.227l-0.024-0.445
				c-0.014,0.015-0.028,0.028-0.043,0.041C102.489,142.621,102.417,142.681,102.342,142.734z"/>
			</g>
			<g>
				<path fill="#FFFF00" d="M23.382,177.333h-5.27v-20.188h5.357c2.178,0,3.345,0.929,3.94,1.707c0.783,1.024,1.163,2.4,1.163,4.207
				l0.01,7.752c0,2.072-0.372,3.603-1.136,4.679C26.852,176.331,25.662,177.333,23.382,177.333z"/>
			</g>
			<g>
				<polygon fill="#FFFF00" points="36.816,177.333 27.937,177.333 27.937,157.146 36.699,157.146 36.699,162.401 33.554,162.401 
				33.554,164.401 36.542,164.401 36.542,169.608 33.554,169.608 33.554,172.077 36.816,172.077 			"/>
			</g>
			<g>
				<path fill="#FFFF00" d="M40.682,177.528c-2.365,0-3.534-1.084-4.097-1.994c-0.687-1.106-1.021-2.591-1.021-4.535v-3.033h2.331
				l-0.052-0.053c-0.702-0.733-1.255-1.506-1.649-2.304c-0.431-0.87-0.649-1.869-0.649-2.97c0-1.783,0.375-3.123,1.145-4.096
				c0.844-1.064,2.189-1.604,3.998-1.604c2.364,0,3.481,1.059,4.003,1.946c0.616,1.049,0.915,2.449,0.915,4.28v2.564h-2.01
				c0.664,0.773,1.187,1.57,1.556,2.376c0.451,0.982,0.679,2.061,0.679,3.204c0,1.943-0.354,3.393-1.084,4.428
				C43.911,176.927,42.543,177.528,40.682,177.528z"/>
			</g>
			<g>
				<path fill="#FFFF00" d="M52.752,177.528c-1.557,0-2.811-0.508-3.725-1.509c-0.879-0.961-1.325-2.303-1.325-3.985v-4.566h4.473
				v-10.322h5.617v14.479c0,1.752-0.424,3.166-1.262,4.2C55.63,176.938,54.324,177.528,52.752,177.528z"/>
			</g>
			<g>
				<path fill="#FFFF00" d="M68.252,177.333h-5.499l-0.41-3.066h-0.131l-0.371,3.066h-5.578l2.879-20.188h6.048L68.252,177.333z
				 M61.688,160.534h0.981l-0.059-0.389h-0.866L61.688,160.534z"/>
			</g>
			<g>
				<rect x="66.804" y="157.146" fill="#FFFF00" width="10.578" height="20.188"/>
			</g>
			<g>
				<path fill="#FFFF00" d="M88.226,177.333H76.96v-20.188h5.826c1.249,0,2.245,0.296,2.96,0.88c0.71,0.579,1.179,1.373,1.392,2.358
				c0.165,0.76,0.244,1.693,0.244,2.856c0,1.251-0.145,2.216-0.441,2.95c-0.079,0.194-0.171,0.377-0.278,0.547
				c0.12,0.209,0.228,0.446,0.319,0.717c0.185,0.55,0.43,1.647,0.43,4.829c0,2.172,0.033,2.904,0.052,3.146L88.226,177.333z
				 M83.68,166.734c0.101,0.068,0.195,0.144,0.282,0.227l-0.024-0.445c-0.014,0.015-0.028,0.028-0.043,0.041
				C83.827,166.621,83.755,166.681,83.68,166.734z"/>
			</g>
			<g>
				<polygon fill="#FFFF00" points="95.703,177.333 86.824,177.333 86.824,157.146 95.585,157.146 95.585,162.401 92.441,162.401 
				92.441,164.401 95.429,164.401 95.429,169.608 92.441,169.608 92.441,172.077 95.703,172.077 			"/>
			</g>
			<g>
				<path fill="#FFFF00" d="M99.569,177.528c-2.365,0-3.534-1.084-4.097-1.994c-0.687-1.106-1.021-2.591-1.021-4.535v-3.033h2.331
				l-0.052-0.053c-0.702-0.733-1.255-1.506-1.649-2.304c-0.431-0.87-0.649-1.869-0.649-2.97c0-1.783,0.375-3.123,1.145-4.096
				c0.844-1.064,2.189-1.604,3.998-1.604c2.364,0,3.481,1.059,4.003,1.946c0.616,1.049,0.915,2.449,0.915,4.28v2.564h-2.01
				c0.664,0.773,1.187,1.57,1.556,2.376c0.451,0.982,0.679,2.061,0.679,3.204c0,1.943-0.354,3.393-1.084,4.428
				C102.798,176.927,101.43,177.528,99.569,177.528z"/>
			</g>
		</g>
		<g>
			<g>
				<path d="M26.976,115.06c0,1.849-0.501,2.985-1.504,3.408c1.224,0.41,1.836,1.761,1.836,4.053v0.439
				c-0.013,1.725-0.314,2.969-0.903,3.73s-1.551,1.143-2.886,1.143H19.72v-17.188h3.721c1.283,0,2.191,0.298,2.725,0.894
				s0.804,1.593,0.811,2.993v0.528H26.976z M22.337,117.599h0.967c0.449,0,0.744-0.143,0.884-0.43s0.21-0.875,0.21-1.768v-1.035
				c-0.006-0.664-0.098-1.108-0.273-1.333s-0.479-0.337-0.908-0.337h-0.879L22.337,117.599L22.337,117.599z M22.337,125.802h0.928
				c0.521,0,0.885-0.179,1.094-0.537s0.312-1,0.312-1.924v-1.387c0-0.873-0.084-1.489-0.254-1.851s-0.495-0.542-0.977-0.542h-1.104
				L22.337,125.802L22.337,125.802z"/>
			</g>
			<g>
				<path d="M29.349,127.833v-17.188h5.762v2.256h-3.145v5h2.988v2.207h-2.988v5.469h3.262v2.256H29.349z"/>
			</g>
			<g>
				<path d="M37.318,127.833v-17.188h2.617v14.961h3.311v2.227H37.318z"/>
			</g>
			<g>
				<path d="M43.968,127.833l2.451-17.188h3.457l2.607,17.188h-2.441l-0.41-3.066h-2.773l-0.371,3.066
				C46.488,127.833,43.968,127.833,43.968,127.833z M49.359,122.667l-1.152-8.633h-0.039l-1.055,8.633H49.359z"/>
			</g>
			<g>
				<path d="M57.738,119.757l-0.84-0.039v8.115h-2.617v-17.188h4.326c0.898,0,1.569,0.181,2.012,0.542s0.734,0.866,0.874,1.514
				s0.21,1.494,0.21,2.539s-0.111,1.841-0.332,2.388s-0.631,0.915-1.23,1.104c0.592,0.104,1.006,0.504,1.24,1.201
				s0.352,2.147,0.352,4.351s0.033,3.387,0.098,3.55h-2.617c-0.065-0.13-0.098-2.184-0.098-6.162c0-0.762-0.091-1.268-0.273-1.519
				S58.291,119.771,57.738,119.757z M56.908,117.687h1.045c0.332,0,0.578-0.075,0.737-0.225s0.27-0.407,0.332-0.771
				s0.093-0.921,0.093-1.67v-0.107c0-0.931-0.078-1.54-0.234-1.826s-0.518-0.43-1.084-0.43h-0.889
				C56.908,112.658,56.908,117.687,56.908,117.687z"/>
			</g>
			<g>
				<path d="M70.726,126.911c-0.599,0.746-1.561,1.118-2.886,1.118s-2.289-0.375-2.891-1.123s-0.903-1.911-0.903-3.486v-12.783h2.617
				v12.734c0,0.905,0.042,1.455,0.127,1.65s0.187,0.373,0.308,0.532s0.37,0.239,0.747,0.239s0.648-0.111,0.811-0.332
				s0.262-0.497,0.298-0.825s0.054-0.75,0.054-1.265v-12.734h2.617v12.783C71.625,125.001,71.325,126.165,70.726,126.911z"/>
			</g>
			<g>
				<path d="M73.763,123v-1.533h2.48v1.729c0,0.957,0.082,1.629,0.244,2.017s0.469,0.581,0.918,0.581s0.747-0.16,0.894-0.479
				s0.22-0.84,0.22-1.562s-0.13-1.353-0.391-1.89s-0.674-1.099-1.24-1.685l-1.27-1.309c-0.592-0.619-1.053-1.26-1.382-1.924
				s-0.493-1.432-0.493-2.305c0-1.419,0.273-2.474,0.82-3.164s1.488-1.035,2.822-1.035s2.238,0.402,2.71,1.206
				s0.708,1.978,0.708,3.521v1.064h-2.412v-1.23c0-0.833-0.072-1.431-0.215-1.792s-0.418-0.542-0.825-0.542s-0.7,0.137-0.879,0.41
				s-0.269,0.684-0.269,1.23s0.091,0.983,0.273,1.309s0.511,0.742,0.986,1.25l1.416,1.533c0.709,0.768,1.245,1.546,1.606,2.334
				s0.542,1.647,0.542,2.578c0,1.608-0.27,2.796-0.811,3.564s-1.486,1.152-2.837,1.152s-2.292-0.428-2.822-1.284
				S73.763,124.64,73.763,123z"/>
			</g>
			<g>
				<path d="M82.601,123v-1.533h2.48v1.729c0,0.957,0.082,1.629,0.244,2.017s0.469,0.581,0.918,0.581s0.747-0.16,0.894-0.479
				s0.22-0.84,0.22-1.562s-0.13-1.353-0.391-1.89s-0.674-1.099-1.24-1.685l-1.27-1.309c-0.592-0.619-1.053-1.26-1.382-1.924
				s-0.493-1.432-0.493-2.305c0-1.419,0.273-2.474,0.82-3.164s1.488-1.035,2.822-1.035s2.238,0.402,2.71,1.206
				s0.708,1.978,0.708,3.521v1.064H87.23v-1.23c0-0.833-0.072-1.431-0.215-1.792s-0.418-0.542-0.825-0.542s-0.7,0.137-0.879,0.41
				s-0.269,0.684-0.269,1.23s0.091,0.983,0.273,1.309s0.511,0.742,0.986,1.25l1.416,1.533c0.709,0.768,1.245,1.546,1.606,2.334
				s0.542,1.647,0.542,2.578c0,1.608-0.27,2.796-0.811,3.564s-1.486,1.152-2.837,1.152s-2.292-0.428-2.822-1.284
				S82.601,124.64,82.601,123z"/>
			</g>
			<g>
				<path d="M91.878,127.833v-17.188h2.617v17.188C94.495,127.833,91.878,127.833,91.878,127.833z"/>
			</g>
			<g>
				<path d="M96.83,123v-1.533h2.48v1.729c0,0.957,0.082,1.629,0.244,2.017s0.469,0.581,0.918,0.581s0.747-0.16,0.894-0.479
				s0.22-0.84,0.22-1.562s-0.13-1.353-0.391-1.89s-0.674-1.099-1.24-1.685l-1.27-1.309c-0.592-0.619-1.053-1.26-1.382-1.924
				s-0.493-1.432-0.493-2.305c0-1.419,0.273-2.474,0.82-3.164s1.488-1.035,2.822-1.035s2.238,0.402,2.71,1.206
				s0.708,1.978,0.708,3.521v1.064h-2.412v-1.23c0-0.833-0.072-1.431-0.215-1.792s-0.418-0.542-0.825-0.542s-0.7,0.137-0.879,0.41
				s-0.269,0.684-0.269,1.23s0.091,0.983,0.273,1.309s0.511,0.742,0.986,1.25l1.416,1.533c0.709,0.768,1.245,1.546,1.606,2.334
				s0.542,1.647,0.542,2.578c0,1.608-0.27,2.796-0.811,3.564s-1.486,1.152-2.837,1.152s-2.292-0.428-2.822-1.284
				S96.83,124.64,96.83,123z"/>
			</g>
			<g>
				<path d="M112.376,126.833c-0.592,0.797-1.523,1.196-2.793,1.196s-2.218-0.425-2.847-1.274s-0.942-2.072-0.942-3.667v-7.49
				c0-2.559,0.67-4.157,2.012-4.795c0.495-0.234,1.094-0.352,1.797-0.352c2.416,0,3.623,1.523,3.623,4.57v2.363h-2.529v-2.197
				c0-0.885-0.075-1.519-0.225-1.899s-0.443-0.571-0.879-0.571s-0.739,0.202-0.908,0.605s-0.254,1.022-0.254,1.855v8.027
				c0,0.924,0.082,1.585,0.244,1.982s0.459,0.596,0.889,0.596s0.726-0.202,0.889-0.605s0.244-1.071,0.244-2.002v-2.461h2.568v2.432
				C113.265,124.806,112.969,126.035,112.376,126.833z"/>
			</g>
			<g>
				<path d="M115.394,127.833v-17.188h2.617v6.953h2.344v-6.953h2.617v17.188h-2.617v-7.988h-2.344v7.988
				C118.011,127.833,115.394,127.833,115.394,127.833z"/>
			</g>
			<g>
				<path d="M125.55,127.833v-17.188h5.761v2.256h-3.144v5h2.988v2.207h-2.988v5.469h3.261v2.256H125.55z"/>
			</g>
			<g>
				<path d="M136.976,119.757l-0.84-0.039v8.115h-2.617v-17.188h4.326c0.898,0,1.569,0.181,2.012,0.542s0.734,0.866,0.874,1.514
				c0.141,0.648,0.21,1.494,0.21,2.539s-0.11,1.841-0.332,2.388c-0.221,0.547-0.631,0.915-1.23,1.104
				c0.593,0.104,1.006,0.504,1.24,1.201s0.352,2.147,0.352,4.351s0.033,3.387,0.098,3.55h-2.617
				c-0.064-0.13-0.098-2.184-0.098-6.162c0-0.762-0.091-1.268-0.273-1.519C137.897,119.902,137.529,119.771,136.976,119.757z
				 M136.146,117.687h1.045c0.332,0,0.578-0.075,0.737-0.225c0.16-0.15,0.271-0.407,0.332-0.771c0.062-0.365,0.093-0.921,0.093-1.67
				v-0.107c0-0.931-0.078-1.54-0.234-1.826s-0.518-0.43-1.084-0.43h-0.889V117.687z"/>
			</g>
			<g>
				<path d="M19.613,151.833v-17.188h5.898v2.275H22.23v4.57h3.047v2.285H22.23v8.057L19.613,151.833L19.613,151.833z"/>
			</g>
			<g>
				<path d="M33.978,150.91c-0.599,0.746-1.561,1.118-2.886,1.118s-2.289-0.374-2.891-1.123c-0.602-0.748-0.903-1.91-0.903-3.486
				v-12.783h2.617v12.734c0,0.905,0.042,1.455,0.127,1.65s0.187,0.373,0.308,0.532c0.121,0.16,0.37,0.239,0.747,0.239
				s0.648-0.11,0.811-0.332c0.163-0.221,0.262-0.496,0.298-0.825c0.036-0.328,0.054-0.75,0.054-1.265v-12.734h2.617v12.783
				C34.876,149.001,34.577,150.165,33.978,150.91z"/>
			</g>
			<g>
				<path d="M37.015,146.999v-1.533h2.48v1.729c0,0.957,0.082,1.63,0.244,2.017c0.163,0.388,0.469,0.581,0.918,0.581
				s0.747-0.159,0.894-0.479c0.146-0.318,0.22-0.84,0.22-1.562s-0.13-1.353-0.391-1.89s-0.674-1.099-1.24-1.685l-1.27-1.309
				c-0.592-0.618-1.053-1.26-1.382-1.924s-0.493-1.432-0.493-2.305c0-1.419,0.273-2.474,0.82-3.164
				c0.547-0.689,1.488-1.035,2.822-1.035s2.238,0.402,2.71,1.206c0.472,0.805,0.708,1.978,0.708,3.521v1.064h-2.412v-1.23
				c0-0.833-0.072-1.431-0.215-1.792s-0.418-0.542-0.825-0.542s-0.7,0.137-0.879,0.41s-0.269,0.684-0.269,1.23
				s0.091,0.983,0.273,1.309s0.511,0.742,0.986,1.25l1.416,1.533c0.709,0.769,1.245,1.547,1.606,2.334
				c0.361,0.788,0.542,1.647,0.542,2.578c0,1.608-0.27,2.797-0.811,3.564c-0.541,0.769-1.486,1.152-2.837,1.152
				s-2.292-0.428-2.822-1.284C37.28,149.889,37.015,148.64,37.015,146.999z"/>
			</g>
			<g>
				<path d="M45.853,146.999v-1.533h2.48v1.729c0,0.957,0.082,1.63,0.244,2.017c0.163,0.388,0.469,0.581,0.918,0.581
				s0.747-0.159,0.894-0.479c0.146-0.318,0.22-0.84,0.22-1.562s-0.13-1.353-0.391-1.89s-0.674-1.099-1.24-1.685l-1.27-1.309
				c-0.592-0.618-1.053-1.26-1.382-1.924s-0.493-1.432-0.493-2.305c0-1.419,0.273-2.474,0.82-3.164
				c0.547-0.689,1.488-1.035,2.822-1.035s2.238,0.402,2.71,1.206c0.472,0.805,0.708,1.978,0.708,3.521v1.064h-2.412v-1.23
				c0-0.833-0.072-1.431-0.215-1.792s-0.418-0.542-0.825-0.542s-0.7,0.137-0.879,0.41s-0.269,0.684-0.269,1.23
				s0.091,0.983,0.273,1.309s0.511,0.742,0.986,1.25l1.416,1.533c0.709,0.769,1.245,1.547,1.606,2.334
				c0.361,0.788,0.542,1.647,0.542,2.578c0,1.608-0.27,2.797-0.811,3.564c-0.541,0.769-1.486,1.152-2.837,1.152
				s-2.292-0.428-2.822-1.284C46.118,149.889,45.853,148.64,45.853,146.999z"/>
			</g>
			<g>
				<path d="M62.386,139.06c0,1.85-0.501,2.985-1.504,3.408c1.224,0.41,1.836,1.762,1.836,4.053v0.439
				c-0.013,1.726-0.314,2.969-0.903,3.73s-1.551,1.143-2.886,1.143H55.13v-17.188h3.721c1.283,0,2.191,0.298,2.725,0.894
				s0.804,1.594,0.811,2.993L62.386,139.06L62.386,139.06z M57.748,141.599h0.967c0.449,0,0.744-0.143,0.884-0.43
				c0.14-0.286,0.21-0.875,0.21-1.768v-1.035c-0.006-0.664-0.098-1.108-0.273-1.333s-0.479-0.337-0.908-0.337h-0.879L57.748,141.599
				L57.748,141.599z M57.748,149.802h0.928c0.521,0,0.885-0.179,1.094-0.537c0.208-0.357,0.312-0.999,0.312-1.924v-1.387
				c0-0.872-0.084-1.489-0.254-1.851s-0.495-0.542-0.977-0.542h-1.104L57.748,149.802L57.748,149.802z"/>
			</g>
			<g>
				<path d="M63.978,151.833l2.451-17.188h3.457l2.607,17.188h-2.441l-0.41-3.066h-2.773l-0.371,3.066H63.978z M69.369,146.667
				l-1.152-8.633h-0.039l-1.055,8.633H69.369z"/>
			</g>
			<g>
				<path d="M74.291,151.833v-17.188h2.617v14.961h3.311v2.227H74.291z"/>
			</g>
			<g>
				<path d="M81.722,151.833v-17.188h2.617v14.961h3.311v2.227H81.722z"/>
			</g>
			<g>
				<path d="M89.154,151.833v-17.188h5.762v2.256h-3.145v5h2.988v2.207h-2.988v5.469h3.262v2.256L89.154,151.833L89.154,151.833z"/>
			</g>
			<g>
				<path d="M100.58,143.757l-0.84-0.039v8.115h-2.617v-17.188h4.326c0.898,0,1.569,0.181,2.012,0.542s0.734,0.866,0.874,1.514
				c0.14,0.648,0.21,1.494,0.21,2.539s-0.111,1.841-0.332,2.388s-0.631,0.915-1.23,1.104c0.592,0.104,1.006,0.505,1.24,1.201
				c0.234,0.697,0.352,2.147,0.352,4.351s0.033,3.388,0.098,3.55h-2.617c-0.065-0.13-0.098-2.184-0.098-6.162
				c0-0.762-0.091-1.268-0.273-1.519C101.501,143.902,101.133,143.771,100.58,143.757z M99.75,141.687h1.045
				c0.332,0,0.578-0.074,0.737-0.225c0.16-0.149,0.27-0.406,0.332-0.771c0.062-0.364,0.093-0.921,0.093-1.67v-0.107
				c0-0.931-0.078-1.539-0.234-1.826c-0.156-0.286-0.518-0.43-1.084-0.43H99.75V141.687z"/>
			</g>
			<g>
				<path d="M19.613,175.833v-17.188h3.857c1.263,0,2.179,0.373,2.749,1.118c0.57,0.746,0.854,1.845,0.854,3.296l0.01,7.754
				c0,1.732-0.287,3.002-0.859,3.809c-0.573,0.808-1.52,1.211-2.842,1.211H19.613z M22.23,173.802h0.859
				c0.482,0,0.832-0.156,1.05-0.469s0.327-0.885,0.327-1.719l-0.01-8.486c0-0.892-0.109-1.526-0.327-1.904
				c-0.218-0.377-0.594-0.566-1.128-0.566H22.23V173.802z"/>
			</g>
			<g>
				<path d="M29.437,175.833v-17.188h5.762v2.256h-3.145v5h2.988v2.207h-2.988v5.469h3.262v2.256L29.437,175.833L29.437,175.833z"/>
			</g>
			<g>
				<path d="M37.064,170.999v-1.533h2.48v1.729c0,0.957,0.082,1.63,0.244,2.017c0.163,0.388,0.469,0.581,0.918,0.581
				s0.747-0.159,0.894-0.479c0.146-0.318,0.22-0.84,0.22-1.562s-0.13-1.353-0.391-1.89s-0.674-1.099-1.24-1.685l-1.27-1.309
				c-0.592-0.618-1.053-1.26-1.382-1.924s-0.493-1.432-0.493-2.305c0-1.419,0.273-2.474,0.82-3.164
				c0.547-0.689,1.488-1.035,2.822-1.035s2.238,0.402,2.71,1.206c0.472,0.805,0.708,1.978,0.708,3.521v1.064h-2.412v-1.23
				c0-0.833-0.072-1.431-0.215-1.792s-0.418-0.542-0.825-0.542s-0.7,0.137-0.879,0.41s-0.269,0.684-0.269,1.23
				s0.091,0.983,0.273,1.309s0.511,0.742,0.986,1.25l1.416,1.533c0.709,0.769,1.245,1.547,1.606,2.334
				c0.361,0.788,0.542,1.647,0.542,2.578c0,1.608-0.27,2.797-0.811,3.564c-0.541,0.769-1.486,1.152-2.837,1.152
				s-2.292-0.428-2.822-1.284C37.329,173.889,37.064,172.64,37.064,170.999z"/>
			</g>
			<g>
				<path d="M55.365,174.881c-0.619,0.766-1.489,1.147-2.612,1.147s-1.996-0.34-2.617-1.021c-0.622-0.68-0.933-1.671-0.933-2.974
				v-3.066h2.529v2.939c0,0.951,0.153,1.53,0.459,1.738c0.137,0.092,0.306,0.137,0.508,0.137c0.397,0,0.659-0.162,0.786-0.488
				c0.127-0.325,0.19-0.84,0.19-1.543v-13.105h2.617v12.979C56.292,173.03,55.983,174.116,55.365,174.881z"/>
			</g>
			<g>
				<path d="M57.992,175.833l2.451-17.188H63.9l2.607,17.188h-2.441l-0.41-3.066h-2.773l-0.371,3.066H57.992z M63.382,170.667
				l-1.152-8.633h-0.039l-1.055,8.633H63.382z"/>
			</g>
			<g>
				<path d="M68.304,175.833v-17.188h2.617v6.953h2.344v-6.953h2.617v17.188h-2.617v-7.988h-2.344v7.988H68.304z"/>
			</g>
			<g>
				<path d="M81.917,167.757l-0.84-0.039v8.115H78.46v-17.188h4.326c0.898,0,1.569,0.181,2.012,0.542s0.734,0.866,0.874,1.514
				c0.14,0.648,0.21,1.494,0.21,2.539s-0.111,1.841-0.332,2.388s-0.631,0.915-1.23,1.104c0.592,0.104,1.006,0.505,1.24,1.201
				c0.234,0.697,0.352,2.147,0.352,4.351s0.033,3.388,0.098,3.55h-2.617c-0.065-0.13-0.098-2.184-0.098-6.162
				c0-0.762-0.091-1.268-0.273-1.519C82.839,167.902,82.471,167.771,81.917,167.757z M81.087,165.687h1.045
				c0.332,0,0.578-0.074,0.737-0.225c0.16-0.149,0.27-0.406,0.332-0.771c0.062-0.364,0.093-0.921,0.093-1.67v-0.107
				c0-0.931-0.078-1.539-0.234-1.826c-0.156-0.286-0.518-0.43-1.084-0.43h-0.889V165.687z"/>
			</g>
			<g>
				<path d="M88.324,175.833v-17.188h5.762v2.256h-3.145v5h2.988v2.207h-2.988v5.469h3.262v2.256L88.324,175.833L88.324,175.833z"/>
			</g>
			<g>
				<path d="M95.951,170.999v-1.533h2.48v1.729c0,0.957,0.082,1.63,0.244,2.017c0.163,0.388,0.469,0.581,0.918,0.581
				s0.747-0.159,0.894-0.479c0.146-0.318,0.22-0.84,0.22-1.562s-0.13-1.353-0.391-1.89s-0.674-1.099-1.24-1.685l-1.27-1.309
				c-0.592-0.618-1.053-1.26-1.382-1.924s-0.493-1.432-0.493-2.305c0-1.419,0.273-2.474,0.82-3.164
				c0.547-0.689,1.488-1.035,2.822-1.035s2.238,0.402,2.71,1.206c0.472,0.805,0.708,1.978,0.708,3.521v1.064h-2.412v-1.23
				c0-0.833-0.072-1.431-0.215-1.792s-0.418-0.542-0.825-0.542s-0.7,0.137-0.879,0.41s-0.269,0.684-0.269,1.23
				s0.091,0.983,0.273,1.309s0.511,0.742,0.986,1.25l1.416,1.533c0.709,0.769,1.245,1.547,1.606,2.334
				c0.361,0.788,0.542,1.647,0.542,2.578c0,1.608-0.27,2.797-0.811,3.564c-0.541,0.769-1.486,1.152-2.837,1.152
				s-2.292-0.428-2.822-1.284C96.216,173.889,95.951,172.64,95.951,170.999z"/>
			</g>
		</g>
	</g>
</svg>