<?xml version="1.0" encoding="utf-8"?>
<!-- Generator: Adobe Illustrator 17.0.0, SVG Export Plug-In . SVG Version: 6.00 Build 0)  -->
<!DOCTYPE svg PUBLIC "-//W3C//DTD SVG 1.1//EN" "http://www.w3.org/Graphics/SVG/1.1/DTD/svg11.dtd">
<svg version="1.1" id="Layer_1" xmlns="http://www.w3.org/2000/svg" xmlns:xlink="http://www.w3.org/1999/xlink" x="0px" y="0px"
	 width="256px" height="256px" viewBox="0 0 256 256" enable-background="new 0 0 256 256" xml:space="preserve">
<polygon fill="#FFFF00" points="128,188.6 53.1,243.2 82,155.1 6.8,100.8 99.5,101 128,12.8 156.5,101 249.2,100.8 174,155.1 
	202.9,243.2 "/>
<path fill="#FFFFFF" d="M192,10.3c-17.1,0-32.4,8-42.3,20.6h-0.3v0.3c-7.1,9.1-11.4,20.6-11.4,33c0,29.7,24.2,53.9,53.9,53.9
	s53.9-24.2,53.9-53.9S221.7,10.3,192,10.3z"/>
<path d="M192,10.3c-17.1,0-32.4,8-42.3,20.6h-0.3v0.3c-7.1,9.1-11.4,20.6-11.4,33c0,29.7,24.2,53.9,53.9,53.9s53.9-24.2,53.9-53.9
	S221.7,10.3,192,10.3z M208.6,100.9l-23.1-3L183.7,78l17.6-10.7L217,82.4L208.6,100.9z M171.2,103.3L151.9,89l-2.1-14.7l11.8-7.4
	L181.5,78l1.9,20.2L171.2,103.3z M149.1,72.2L142,57.4l9.3-15.3l9.7,2l-0.2,20.8L149.1,72.2z M188.3,19l21.3,2.9l7.3,13.6l-16.1,7.9
	l-16.5-11.5L188.3,19z M231.4,74.4l-12.6,6.7l-16.9-16.2l0.2-19.7l16-7.9L232.3,50L231.4,74.4z M233.5,74.9l1-24.5l7.1-0.9
	c1.4,4.7,2.1,9.6,2.1,14.7c0,4.6-0.6,9-1.7,13.2L233.5,74.9z M240.9,47.4l-7.1,0.9l-14.6-13.1L212,21.9l6.1-2.4
	C228.7,25.7,236.9,35.6,240.9,47.4z M178.8,14.2l7.4,4.1L182,32.1L162.3,42l-10.5-2.1l-0.2-8.1C158.5,23.4,167.9,17,178.8,14.2z
	 M149.7,40.5l-8.5,14.1c1.4-7.3,4.3-14.1,8.4-20L149.7,40.5z M140.5,59.2l7.1,14.9l2.1,14.8l-2.9,0.4c-4.1-7.4-6.5-16-6.5-25.1
	C140.3,62.5,140.4,60.8,140.5,59.2z M172.4,112.1l-0.2-6.8l12.5-5.3l23.9,3.1l4.4,8.4c-6.4,2.9-13.5,4.5-21,4.5
	C185.1,115.9,178.5,114.5,172.4,112.1z"/>
<g>
	<path fill="none" stroke="#000000" stroke-width="3" stroke-miterlimit="10" d="M157.6,137"/>
	<path fill="#FF0000" d="M157.6,137"/>
</g>
<g>
	<path fill="#FFFFFF" d="M212.018,170.541c20.328-9.834,34.081-31.607,34.916-34.921s-0.458-4.074-2.747-6.534
		c-2.289-2.46-7.013-0.62-7.013-0.62s-21.412,17.201-31.419,23.962c-10.095,6.871-52.189,17.342-57.894,20.298
		c-5.705,2.956-45.256,15.455-51.948,23.956c0.004,2.717-1.942,9.577,5.022,6.177S178.502,186.588,212.018,170.541z"/>
	<g>
		<path fill="none" stroke="#000000" stroke-width="3" stroke-miterlimit="10" d="M183.412,142.563
			c3.345-0.678,6.083-1.389,8.147-1.822c4.405-1.099,9.483-2.475,16.194-4.538c8.842-2.806,18.653-7.733,22.285-8.544
			c6.381-1.422,12.325,0.425,12.325,0.425c2.874,2.293-21.474,20.227-27.321,24.608c-15.048,11.152-61.934,21.96-95.797,34.926
			c-12.064,4.577-17.369,9.3-17.369,9.3s9.316-3.06,15.896-4.505c14.617-3.355,78.418-15.864,94.915-25.77
			c21.296-12.861,32.105-31.284,32.233-34.619c4.991,7.69,1.388,14.133-1.742,18.511c-3.142,4.278-0.676,6.516-1.955,7.667
			c-0.717,0.785-4.285-0.524-7.362,2.539s-4.189,5.704-7.961,8.845c-3.784,3.042-0.786,6.428-3.201,9.115
			c-2.426,2.587-5.072-2.147-8.658-0.033c-3.575,2.213-5.627,3.652-11.852,6.465c-6.125,2.802-2.431,7.016-4.815,8.189
			c-2.262,1.361-6.544-4.497-11.234-2.359c-4.69,2.138-22.885,13.945-29.119,17.565c-6.334,3.631-1.342,12.227-3.349,14.062
			c-1.279,1.15-5.547-2.798-9.49-2.958c-2.319-0.041-4.559,1.519-6.853,3.488c-6.144,5.32-0.792,10.856-3.418,12.561
			c-2.626,1.704-4.497-1.507-9.093-3.003c-4.596-1.496-8.513,1.259-13.344-3.229c-23.23-21.337-19.098-44.545-19.098-44.545
			c1.686-2.907,2.669-2.212,7.419-1.136c4.739,0.976,12.868,1.672,18.825-2.62c5.858-4.282,12.126-15.653,11.556-20.721
			s-1.988-8.732,4.626-8.973c2.705-0.103,10.721-1.306,19.995-2.953l4.24-0.779C161.453,146.844,161.453,146.844,183.412,142.563z"
			/>
		<path fill="#00A566" d="M183.412,142.563c3.345-0.678,6.083-1.389,8.147-1.822c4.405-1.099,9.483-2.475,16.194-4.538
			c8.842-2.806,18.653-7.733,22.285-8.544c6.381-1.422,12.325,0.425,12.325,0.425c2.874,2.293-21.474,20.227-27.321,24.608
			c-15.048,11.152-61.934,21.96-95.797,34.926c-12.064,4.577-17.369,9.3-17.369,9.3s9.316-3.06,15.896-4.505
			c14.617-3.355,78.418-15.864,94.915-25.77c21.296-12.861,32.105-31.284,32.233-34.619c4.991,7.69,1.388,14.133-1.742,18.511
			c-3.142,4.278-0.676,6.516-1.955,7.667c-0.717,0.785-4.285-0.524-7.362,2.539s-4.189,5.704-7.961,8.845
			c-3.784,3.042-0.786,6.428-3.201,9.115c-2.426,2.587-5.072-2.147-8.658-0.033c-3.575,2.213-5.627,3.652-11.852,6.465
			c-6.125,2.802-2.431,7.016-4.815,8.189c-2.262,1.361-6.544-4.497-11.234-2.359c-4.69,2.138-22.885,13.945-29.119,17.565
			c-6.334,3.631-1.342,12.227-3.349,14.062c-1.279,1.15-5.547-2.798-9.49-2.958c-2.319-0.041-4.559,1.519-6.853,3.488
			c-6.144,5.32-0.792,10.856-3.418,12.561c-2.626,1.704-4.497-1.507-9.093-3.003c-4.596-1.496-8.513,1.259-13.344-3.229
			c-23.23-21.337-19.098-44.545-19.098-44.545c1.686-2.907,2.669-2.212,7.419-1.136c4.739,0.976,12.868,1.672,18.825-2.62
			c5.858-4.282,12.126-15.653,11.556-20.721s-1.988-8.732,4.626-8.973c2.705-0.103,10.721-1.306,19.995-2.953l4.24-0.779
			C161.453,146.844,161.453,146.844,183.412,142.563z"/>
	</g>
	<g>
		<g>
			<g>
				<path fill="none" stroke="#1D1D1B" stroke-width="3" d="M154.582,161.806c-0.199,0.022-0.397,0.045-0.607-0.032
					c-1.038-0.286-1.758-1.312-1.571-2.339l3.183-14.648c0.286-1.038,1.312-1.758,2.339-1.571c1.038,0.286,1.758,1.312,1.571,2.339
					l-3.183,14.648C156.116,161.13,155.377,161.717,154.582,161.806z"/>
			</g>
			<g>
				<path fill="none" stroke="#1D1D1B" stroke-width="3" d="M163.743,158.26c-0.199,0.022-0.397,0.045-0.607-0.032
					c-1.038-0.286-1.758-1.312-1.571-2.339l2.502-11.753c0.286-1.038,1.312-1.758,2.339-1.571c1.038,0.286,1.758,1.312,1.571,2.339
					l-2.502,11.753C165.277,157.584,164.538,158.17,163.743,158.26z"/>
			</g>
			<g>
				<path fill="none" stroke="#1D1D1B" stroke-width="3" d="M171.415,155.787c-0.199,0.022-0.397,0.045-0.607-0.032
					c-1.038-0.286-1.758-1.312-1.571-2.339l2.37-11.135c0.286-1.038,1.312-1.758,2.339-1.571c1.038,0.286,1.758,1.312,1.571,2.339
					l-2.37,11.135C172.949,155.111,172.21,155.698,171.415,155.787z"/>
			</g>
			<g>
				<path fill="none" stroke="#1D1D1B" stroke-width="3" d="M180.089,151.491c-0.199,0.022-0.397,0.045-0.607-0.032
					c-1.038-0.286-1.758-1.312-1.571-2.339l1.921-8.87c0.286-1.038,1.312-1.758,2.339-1.571c1.038,0.286,1.758,1.312,1.571,2.339
					l-1.921,8.87C181.623,150.815,180.884,151.401,180.089,151.491z"/>
			</g>
		</g>
		<g>
			<g>
				<path fill="#FFFF00" d="M154.582,161.806c-0.199,0.022-0.397,0.045-0.607-0.032c-1.038-0.286-1.758-1.312-1.571-2.339
					l3.183-14.648c0.286-1.038,1.312-1.758,2.339-1.571c1.038,0.286,1.758,1.312,1.571,2.339l-3.183,14.648
					C156.116,161.13,155.377,161.717,154.582,161.806z"/>
			</g>
			<g>
				<path fill="#FFFF00" d="M163.743,158.26c-0.199,0.022-0.397,0.045-0.607-0.032c-1.038-0.286-1.758-1.312-1.571-2.339
					l2.502-11.753c0.286-1.038,1.312-1.758,2.339-1.571c1.038,0.286,1.758,1.312,1.571,2.339l-2.502,11.753
					C165.277,157.584,164.538,158.17,163.743,158.26z"/>
			</g>
			<g>
				<path fill="#FFFF00" d="M171.415,155.787c-0.199,0.022-0.397,0.045-0.607-0.032c-1.038-0.286-1.758-1.312-1.571-2.339
					l2.37-11.135c0.286-1.038,1.312-1.758,2.339-1.571c1.038,0.286,1.758,1.312,1.571,2.339l-2.37,11.135
					C172.949,155.111,172.21,155.698,171.415,155.787z"/>
			</g>
			<g>
				<path fill="#FFFF00" d="M180.089,151.491c-0.199,0.022-0.397,0.045-0.607-0.032c-1.038-0.286-1.758-1.312-1.571-2.339
					l1.921-8.87c0.286-1.038,1.312-1.758,2.339-1.571c1.038,0.286,1.758,1.312,1.571,2.339l-1.921,8.87
					C181.623,150.815,180.884,151.401,180.089,151.491z"/>
			</g>
		</g>
	</g>
</g>
<g>
	<g>
		<path fill="#FFDA44" d="M205.6,26.6c-4.4-1.6-9.2-2.5-14.2-2.5s-9.8,0.9-14.2,2.5L173.6,65l3.6,38.4c4.4,1.6,9.2,2.5,14.2,2.5
			s9.8-0.9,14.2-2.5l3.6-38.4L205.6,26.6z"/>
		<path fill="#D80027" d="M232.3,65c0-17.6-11.1-32.6-26.7-38.4v76.8C221.2,97.6,232.3,82.6,232.3,65z"/>
		<path d="M150.4,65c0,17.6,11.1,32.6,26.7,38.4V26.6C161.5,32.4,150.4,47.4,150.4,65z"/>
	</g>
	<ellipse fill="none" stroke="#000000" stroke-width="1.4754" stroke-miterlimit="10" cx="191.6" cy="65.2" rx="40.8" ry="40.6"/>
</g>
<g>
	<path d="M24.976,114.06c0,1.849-0.501,2.985-1.504,3.408c1.224,0.41,1.836,1.761,1.836,4.053v0.439
		c-0.013,1.725-0.314,2.969-0.903,3.73s-1.551,1.143-2.886,1.143H17.72v-17.188h3.721c1.283,0,2.191,0.298,2.725,0.894
		s0.804,1.593,0.811,2.993v0.528H24.976z M20.337,116.599h0.967c0.449,0,0.744-0.143,0.884-0.43s0.21-0.875,0.21-1.768v-1.035
		c-0.006-0.664-0.098-1.108-0.273-1.333s-0.479-0.337-0.908-0.337h-0.879L20.337,116.599L20.337,116.599z M20.337,124.802h0.928
		c0.521,0,0.885-0.179,1.094-0.537s0.312-1,0.312-1.924v-1.387c0-0.873-0.084-1.489-0.254-1.851s-0.495-0.542-0.977-0.542h-1.104
		L20.337,124.802L20.337,124.802z"/>
	<path d="M27.349,126.833v-17.188h5.762v2.256h-3.145v5h2.988v2.207h-2.988v5.469h3.262v2.256H27.349z"/>
	<path d="M35.318,126.833v-17.188h2.617v14.961h3.311v2.227H35.318z"/>
	<path d="M45.904,127.009c-1.081,0-1.925-0.425-2.534-1.274s-0.913-2.16-0.913-3.931v-7.471c0-1.588,0.311-2.799,0.933-3.633
		s1.61-1.25,2.964-1.25c1.686,0,2.757,0.628,3.213,1.885c0.273,0.755,0.41,1.787,0.41,3.096v1.221h-2.441v-1.797
		c0-0.788-0.083-1.341-0.249-1.66s-0.479-0.479-0.938-0.479s-0.783,0.19-0.972,0.571s-0.283,1.056-0.283,2.026v7.451
		c0,1.126,0.084,1.911,0.254,2.354s0.5,0.664,0.991,0.664s0.84-0.238,1.045-0.713s0.308-1.276,0.308-2.402v-2.314h-1.318v-1.904
		h3.604v9.385h-1.172l-0.4-1.689c-0.137,0.58-0.436,1.035-0.898,1.367S46.509,127.009,45.904,127.009z"/>
	<path d="M52.535,126.833v-17.188h2.617v17.188C55.152,126.833,52.535,126.833,52.535,126.833z"/>
	<path d="M57.486,122v-1.533h2.48v1.729c0,0.957,0.082,1.629,0.244,2.017s0.469,0.581,0.918,0.581s0.747-0.16,0.894-0.479
		s0.22-0.84,0.22-1.562s-0.13-1.353-0.391-1.89s-0.674-1.099-1.24-1.685l-1.27-1.309c-0.592-0.619-1.053-1.26-1.382-1.924
		s-0.493-1.432-0.493-2.305c0-1.419,0.273-2.474,0.82-3.164s1.488-1.035,2.822-1.035s2.238,0.402,2.71,1.206
		c0.472,0.804,0.708,1.978,0.708,3.521v1.064h-2.412v-1.23c0-0.833-0.072-1.431-0.215-1.792s-0.418-0.542-0.825-0.542
		s-0.7,0.137-0.879,0.41s-0.269,0.684-0.269,1.23s0.091,0.983,0.273,1.309s0.511,0.742,0.986,1.25l1.416,1.533
		c0.709,0.768,1.245,1.546,1.606,2.334c0.361,0.788,0.542,1.647,0.542,2.578c0,1.608-0.27,2.796-0.811,3.564
		s-1.486,1.152-2.837,1.152s-2.292-0.428-2.822-1.284S57.486,123.64,57.486,122z"/>
	<path d="M73.033,125.833c-0.592,0.797-1.523,1.196-2.793,1.196s-2.218-0.425-2.847-1.274s-0.942-2.072-0.942-3.667v-7.49
		c0-2.559,0.67-4.157,2.012-4.795c0.495-0.234,1.094-0.352,1.797-0.352c2.416,0,3.623,1.523,3.623,4.57v2.363h-2.529v-2.197
		c0-0.885-0.075-1.519-0.225-1.899s-0.443-0.571-0.879-0.571s-0.739,0.202-0.908,0.605s-0.254,1.022-0.254,1.855v8.027
		c0,0.924,0.082,1.585,0.244,1.982s0.459,0.596,0.889,0.596s0.726-0.202,0.889-0.605s0.244-1.071,0.244-2.002v-2.461h2.568v2.432
		C73.921,123.806,73.625,125.035,73.033,125.833z"/>
	<path d="M76.05,126.833v-17.188h2.617v6.953h2.344v-6.953h2.617v17.188h-2.617v-7.988h-2.344v7.988
		C78.667,126.833,76.05,126.833,76.05,126.833z"/>
	<path d="M86.207,126.833v-17.188h5.762v2.256h-3.145v5h2.988v2.207h-2.988v5.469h3.262v2.256H86.207z"/>
	<path d="M97.632,118.757l-0.84-0.039v8.115h-2.617v-17.188h4.326c0.898,0,1.569,0.181,2.012,0.542s0.734,0.866,0.874,1.514
		s0.21,1.494,0.21,2.539s-0.111,1.841-0.332,2.388s-0.631,0.915-1.23,1.104c0.592,0.104,1.006,0.504,1.24,1.201
		s0.352,2.147,0.352,4.351s0.033,3.387,0.098,3.55h-2.617c-0.065-0.13-0.098-2.184-0.098-6.162c0-0.762-0.091-1.268-0.273-1.519
		S98.186,118.771,97.632,118.757z M96.802,116.687h1.045c0.332,0,0.578-0.075,0.737-0.225s0.27-0.407,0.332-0.771
		s0.093-0.921,0.093-1.67v-0.107c0-0.931-0.078-1.54-0.234-1.826s-0.518-0.43-1.084-0.43h-0.889V116.687z"/>
	<path d="M17.613,150.833v-17.188h5.898v2.275H20.23v4.57h3.047v2.285H20.23v8.057L17.613,150.833L17.613,150.833z"/>
	<path d="M31.978,149.91c-0.599,0.746-1.561,1.118-2.886,1.118s-2.289-0.374-2.891-1.123c-0.602-0.748-0.903-1.91-0.903-3.486
		v-12.783h2.617v12.734c0,0.905,0.042,1.455,0.127,1.65s0.187,0.373,0.308,0.532c0.121,0.16,0.37,0.239,0.747,0.239
		s0.648-0.11,0.811-0.332c0.163-0.221,0.262-0.496,0.298-0.825c0.036-0.328,0.054-0.75,0.054-1.265v-12.734h2.617v12.783
		C32.876,148.001,32.577,149.165,31.978,149.91z"/>
	<path d="M35.015,145.999v-1.533h2.48v1.729c0,0.957,0.082,1.63,0.244,2.017c0.163,0.388,0.469,0.581,0.918,0.581
		s0.747-0.159,0.894-0.479c0.146-0.318,0.22-0.84,0.22-1.562s-0.13-1.353-0.391-1.89s-0.674-1.099-1.24-1.685l-1.27-1.309
		c-0.592-0.618-1.053-1.26-1.382-1.924s-0.493-1.432-0.493-2.305c0-1.419,0.273-2.474,0.82-3.164
		c0.547-0.689,1.488-1.035,2.822-1.035s2.238,0.402,2.71,1.206c0.472,0.805,0.708,1.978,0.708,3.521v1.064h-2.412v-1.23
		c0-0.833-0.072-1.431-0.215-1.792s-0.418-0.542-0.825-0.542s-0.7,0.137-0.879,0.41s-0.269,0.684-0.269,1.23
		s0.091,0.983,0.273,1.309s0.511,0.742,0.986,1.25l1.416,1.533c0.709,0.769,1.245,1.547,1.606,2.334
		c0.361,0.788,0.542,1.647,0.542,2.578c0,1.608-0.27,2.797-0.811,3.564c-0.541,0.769-1.486,1.152-2.837,1.152
		s-2.292-0.428-2.822-1.284C35.28,148.889,35.015,147.64,35.015,145.999z"/>
	<path d="M43.853,145.999v-1.533h2.48v1.729c0,0.957,0.082,1.63,0.244,2.017c0.163,0.388,0.469,0.581,0.918,0.581
		s0.747-0.159,0.894-0.479c0.146-0.318,0.22-0.84,0.22-1.562s-0.13-1.353-0.391-1.89s-0.674-1.099-1.24-1.685l-1.27-1.309
		c-0.592-0.618-1.053-1.26-1.382-1.924s-0.493-1.432-0.493-2.305c0-1.419,0.273-2.474,0.82-3.164
		c0.547-0.689,1.488-1.035,2.822-1.035s2.238,0.402,2.71,1.206c0.472,0.805,0.708,1.978,0.708,3.521v1.064h-2.412v-1.23
		c0-0.833-0.072-1.431-0.215-1.792s-0.418-0.542-0.825-0.542s-0.7,0.137-0.879,0.41s-0.269,0.684-0.269,1.23
		s0.091,0.983,0.273,1.309s0.511,0.742,0.986,1.25l1.416,1.533c0.709,0.769,1.245,1.547,1.606,2.334
		c0.361,0.788,0.542,1.647,0.542,2.578c0,1.608-0.27,2.797-0.811,3.564c-0.541,0.769-1.486,1.152-2.837,1.152
		s-2.292-0.428-2.822-1.284C44.118,148.889,43.853,147.64,43.853,145.999z"/>
	<path d="M60.386,138.06c0,1.85-0.501,2.985-1.504,3.408c1.224,0.41,1.836,1.762,1.836,4.053v0.439
		c-0.013,1.726-0.314,2.969-0.903,3.73s-1.551,1.143-2.886,1.143H53.13v-17.188h3.721c1.283,0,2.191,0.298,2.725,0.894
		s0.804,1.594,0.811,2.993L60.386,138.06L60.386,138.06z M55.748,140.599h0.967c0.449,0,0.744-0.143,0.884-0.43
		c0.14-0.286,0.21-0.875,0.21-1.768v-1.035c-0.006-0.664-0.098-1.108-0.273-1.333s-0.479-0.337-0.908-0.337h-0.879L55.748,140.599
		L55.748,140.599z M55.748,148.802h0.928c0.521,0,0.885-0.179,1.094-0.537c0.208-0.357,0.312-0.999,0.312-1.924v-1.387
		c0-0.872-0.084-1.489-0.254-1.851s-0.495-0.542-0.977-0.542h-1.104L55.748,148.802L55.748,148.802z"/>
	<path d="M61.978,150.833l2.451-17.188h3.457l2.607,17.188h-2.441l-0.41-3.066h-2.773l-0.371,3.066H61.978z M67.369,145.667
		l-1.152-8.633h-0.039l-1.055,8.633H67.369z"/>
	<path d="M72.291,150.833v-17.188h2.617v14.961h3.311v2.227H72.291z"/>
	<path d="M79.722,150.833v-17.188h2.617v14.961h3.311v2.227H79.722z"/>
	<path d="M87.154,150.833v-17.188h5.762v2.256h-3.145v5h2.988v2.207h-2.988v5.469h3.262v2.256L87.154,150.833L87.154,150.833z"/>
	<path d="M98.58,142.757l-0.84-0.039v8.115h-2.617v-17.188h4.326c0.898,0,1.569,0.181,2.012,0.542s0.734,0.866,0.874,1.514
		c0.14,0.648,0.21,1.494,0.21,2.539s-0.111,1.841-0.332,2.388s-0.631,0.915-1.23,1.104c0.592,0.104,1.006,0.505,1.24,1.201
		c0.234,0.697,0.352,2.147,0.352,4.351s0.033,3.388,0.098,3.55h-2.617c-0.065-0.13-0.098-2.184-0.098-6.162
		c0-0.762-0.091-1.268-0.273-1.519C99.501,142.902,99.133,142.771,98.58,142.757z M97.75,140.687h1.045
		c0.332,0,0.578-0.074,0.737-0.225c0.16-0.149,0.27-0.406,0.332-0.771c0.062-0.364,0.093-0.921,0.093-1.67v-0.107
		c0-0.931-0.078-1.539-0.234-1.826c-0.156-0.286-0.518-0.43-1.084-0.43H97.75V140.687z"/>
	<path d="M17.613,174.833v-17.188h3.857c1.263,0,2.179,0.373,2.749,1.118c0.57,0.746,0.854,1.845,0.854,3.296l0.01,7.754
		c0,1.732-0.287,3.002-0.859,3.809c-0.573,0.808-1.52,1.211-2.842,1.211H17.613z M20.23,172.802h0.859
		c0.482,0,0.832-0.156,1.05-0.469s0.327-0.885,0.327-1.719l-0.01-8.486c0-0.892-0.109-1.526-0.327-1.904
		c-0.218-0.377-0.594-0.566-1.128-0.566H20.23V172.802z"/>
	<path d="M27.437,174.833v-17.188h5.762v2.256h-3.145v5h2.988v2.207h-2.988v5.469h3.262v2.256L27.437,174.833L27.437,174.833z"/>
	<path d="M35.064,169.999v-1.533h2.48v1.729c0,0.957,0.082,1.63,0.244,2.017c0.163,0.388,0.469,0.581,0.918,0.581
		s0.747-0.159,0.894-0.479c0.146-0.318,0.22-0.84,0.22-1.562s-0.13-1.353-0.391-1.89s-0.674-1.099-1.24-1.685l-1.27-1.309
		c-0.592-0.618-1.053-1.26-1.382-1.924s-0.493-1.432-0.493-2.305c0-1.419,0.273-2.474,0.82-3.164
		c0.547-0.689,1.488-1.035,2.822-1.035s2.238,0.402,2.71,1.206c0.472,0.805,0.708,1.978,0.708,3.521v1.064h-2.412v-1.23
		c0-0.833-0.072-1.431-0.215-1.792s-0.418-0.542-0.825-0.542s-0.7,0.137-0.879,0.41s-0.269,0.684-0.269,1.23
		s0.091,0.983,0.273,1.309s0.511,0.742,0.986,1.25l1.416,1.533c0.709,0.769,1.245,1.547,1.606,2.334
		c0.361,0.788,0.542,1.647,0.542,2.578c0,1.608-0.27,2.797-0.811,3.564c-0.541,0.769-1.486,1.152-2.837,1.152
		s-2.292-0.428-2.822-1.284C35.329,172.889,35.064,171.64,35.064,169.999z"/>
	<path d="M53.365,173.881c-0.619,0.766-1.489,1.147-2.612,1.147s-1.996-0.34-2.617-1.021c-0.622-0.68-0.933-1.671-0.933-2.974
		v-3.066h2.529v2.939c0,0.951,0.153,1.53,0.459,1.738c0.137,0.092,0.306,0.137,0.508,0.137c0.397,0,0.659-0.162,0.786-0.488
		c0.127-0.325,0.19-0.84,0.19-1.543v-13.105h2.617v12.979C54.292,172.03,53.983,173.116,53.365,173.881z"/>
	<path d="M55.992,174.833l2.451-17.188H61.9l2.607,17.188h-2.441l-0.41-3.066h-2.773l-0.371,3.066H55.992z M61.382,169.667
		l-1.152-8.633h-0.039l-1.055,8.633H61.382z"/>
	<path d="M66.304,174.833v-17.188h2.617v6.953h2.344v-6.953h2.617v17.188h-2.617v-7.988h-2.344v7.988H66.304z"/>
	<path d="M79.917,166.757l-0.84-0.039v8.115H76.46v-17.188h4.326c0.898,0,1.569,0.181,2.012,0.542s0.734,0.866,0.874,1.514
		c0.14,0.648,0.21,1.494,0.21,2.539s-0.111,1.841-0.332,2.388s-0.631,0.915-1.23,1.104c0.592,0.104,1.006,0.505,1.24,1.201
		c0.234,0.697,0.352,2.147,0.352,4.351s0.033,3.388,0.098,3.55h-2.617c-0.065-0.13-0.098-2.184-0.098-6.162
		c0-0.762-0.091-1.268-0.273-1.519C80.839,166.902,80.471,166.771,79.917,166.757z M79.087,164.687h1.045
		c0.332,0,0.578-0.074,0.737-0.225c0.16-0.149,0.27-0.406,0.332-0.771c0.062-0.364,0.093-0.921,0.093-1.67v-0.107
		c0-0.931-0.078-1.539-0.234-1.826c-0.156-0.286-0.518-0.43-1.084-0.43h-0.889V164.687z"/>
	<path d="M86.324,174.833v-17.188h5.762v2.256h-3.145v5h2.988v2.207h-2.988v5.469h3.262v2.256L86.324,174.833L86.324,174.833z"/>
	<path d="M93.951,169.999v-1.533h2.48v1.729c0,0.957,0.082,1.63,0.244,2.017c0.163,0.388,0.469,0.581,0.918,0.581
		s0.747-0.159,0.894-0.479c0.146-0.318,0.22-0.84,0.22-1.562s-0.13-1.353-0.391-1.89s-0.674-1.099-1.24-1.685l-1.27-1.309
		c-0.592-0.618-1.053-1.26-1.382-1.924s-0.493-1.432-0.493-2.305c0-1.419,0.273-2.474,0.82-3.164
		c0.547-0.689,1.488-1.035,2.822-1.035s2.238,0.402,2.71,1.206c0.472,0.805,0.708,1.978,0.708,3.521v1.064H98.58v-1.23
		c0-0.833-0.072-1.431-0.215-1.792s-0.418-0.542-0.825-0.542s-0.7,0.137-0.879,0.41s-0.269,0.684-0.269,1.23
		s0.091,0.983,0.273,1.309s0.511,0.742,0.986,1.25l1.416,1.533c0.709,0.769,1.245,1.547,1.606,2.334
		c0.361,0.788,0.542,1.647,0.542,2.578c0,1.608-0.27,2.797-0.811,3.564c-0.541,0.769-1.486,1.152-2.837,1.152
		s-2.292-0.428-2.822-1.284C94.216,172.889,93.951,171.64,93.951,169.999z"/>
</g>
</svg>
