<?xml version="1.0" encoding="utf-8"?>
<!-- Generator: Adobe Illustrator 17.0.0, SVG Export Plug-In . SVG Version: 6.00 Build 0)  -->
<!DOCTYPE svg PUBLIC "-//W3C//DTD SVG 1.1//EN" "http://www.w3.org/Graphics/SVG/1.1/DTD/svg11.dtd">
<svg version="1.1" id="Layer_1" xmlns="http://www.w3.org/2000/svg" xmlns:xlink="http://www.w3.org/1999/xlink" x="0px" y="0px"
	 width="256px" height="256px" viewBox="0 0 256 256" enable-background="new 0 0 256 256" xml:space="preserve">
	<path fill="#FFFFFF" d="M192.1,10.3c-17.1,0-32.4,8-42.3,20.6h-0.3v0.3c-7.1,9.1-11.4,20.6-11.4,33c0,29.7,24.2,53.9,53.9,53.9
	s54-24.2,54-53.9S221.9,10.3,192.1,10.3z"/>
	<path d="M192,10.3c-17.1,0-32.4,8-42.3,20.6h-0.3v0.3c-7.1,9.1-11.4,20.6-11.4,33c0,29.7,24.2,53.9,53.9,53.9s53.9-24.2,53.9-53.9
	S221.7,10.3,192,10.3z M208.6,100.9l-23.1-3L183.7,78l17.6-10.7L217,82.4L208.6,100.9z M171.2,103.3L151.9,89l-2.1-14.7l11.8-7.4
	L181.5,78l1.9,20.2L171.2,103.3z M149.1,72.2L142,57.4l9.3-15.3l9.7,2l-0.2,20.8L149.1,72.2z M188.3,19l21.3,2.9l7.3,13.6l-16.1,7.9
	l-16.5-11.5L188.3,19z M231.4,74.4l-12.6,6.7l-16.9-16.2l0.2-19.7l16-7.9L232.3,50L231.4,74.4z M233.5,74.9l1-24.5l7.1-0.9
	c1.4,4.7,2.1,9.6,2.1,14.7c0,4.6-0.6,9-1.7,13.2L233.5,74.9z M240.9,47.4l-7.1,0.9l-14.6-13.1L212,21.9l6.1-2.4
	C228.7,25.7,236.9,35.6,240.9,47.4z M178.8,14.2l7.4,4.1L182,32.1L162.3,42l-10.5-2.1l-0.2-8.1C158.5,23.4,167.9,17,178.8,14.2z
	 M149.7,40.5l-8.5,14.1c1.4-7.3,4.3-14.1,8.4-20L149.7,40.5z M140.5,59.2l7.1,14.9l2.1,14.8l-2.9,0.4c-4.1-7.4-6.5-16-6.5-25.1
	C140.3,62.5,140.4,60.8,140.5,59.2z M172.4,112.1l-0.2-6.8l12.5-5.3l23.9,3.1l4.4,8.4c-6.4,2.9-13.5,4.5-21,4.5
	C185.1,115.9,178.5,114.5,172.4,112.1z"/>
	<g>
		<path fill="#FCFF00" stroke="#000000" stroke-miterlimit="10" d="M89.6,114.5c0,0-1.3-0.2-1.3,1.4c0.1,1.4,1.5,1.4,1.5,1.4
		s0.1,23.7,28.3,35.5c0,1.7-0.2,3.3-0.2,3.3s-4.9,5.1-6.3,5.7c0.7,1.1,8.7,17.1,9.9,38.3c0,0-2,0-2,2.3c0,1.8,2.7,2.6,2.7,2.6
		l-0.6,3.5c0,0-4.6,3.5-4.7,7.3c-1.7,0-4.4,0-4.4,0s-1.9,8.8-7.9,11.4c0,3.2,0,15.1,0,15.1s-3.7,0.1-4.9,0.1s-4.3,2.4-3.9,6.3
		c0,3.8,0.1,5.7,0.1,5.7h64.4c0,0,0.2-1.9,0.2-5.7c0.3-3.9-3.2-6.4-4.5-6.4s-5.4,0-5.4,0s0-11.9,0-15.1c-6-2.6-7-11.7-7-11.7
		s-2.7,0-4.3,0c-0.1-4-4.7-7.2-4.7-7.2l-0.5-3.4c0,0,2.7-0.7,2.7-2.5c0-2.3-2-2.3-2-2.3c1.2-21.2,9.3-37.1,9.9-38.2
		c-1.5-0.7-6.3-5.7-6.3-5.7s-0.2-1.6-0.2-3.3c28.2-11.8,28.3-35.5,28.3-35.5s1.4,0,1.5-1.3c0-1.6-1.3-1.4-1.3-1.4H89.6V114.5z"/>
		<path fill="#FFFFFF" d="M150.9,117h-26.8c0,0-0.3,3.6,0.8,5.8c1.1,2.2,3.1,5.4,13.3,5.4c10.5,0,11.1-3.3,12.2-5.7
		C151.5,120,150.9,117,150.9,117z"/>
		<rect x="130" y="154" fill="#FFFFFF" width="5" height="2"/>
		<path fill="#FFFFFF" d="M138.7,223H129v-8c0,0,6.4,0,8.1,0C137.1,219,138.7,223,138.7,223z"/>
		<rect x="130" y="212" fill="#FFFFFF" width="4" height="4"/>
		<rect x="130" y="205" fill="#FFFFFF" width="2" height="4"/>
		<polygon fill="#FFFFFF" points="129.2,202 133.2,202 133.2,202 	"/>
		<rect x="142" y="228" fill="#ABD100" width="5" height="14"/>
		<path fill="#ABD100" d="M136.7,163.5l4.2,0.2c0,0-4.8,13.3-7.4,37.3h-1.3C132.2,201,133.7,179,136.7,163.5z"/>
		<path fill="#ABD100" d="M138.2,146.3c0,0,24.8-9.4,25.5-28.5c0,19.8-19.4,32.5-29.8,33.3C123.4,151.9,129.3,149.3,138.2,146.3z"/>
		<rect x="106" y="228" fill="#FF9F00" width="3" height="14"/>
		<path fill="#FF9F00" d="M117.8,163l-4.2-0.2c0,0,6.8,12.8,8.6,37.1l1-0.1C123.2,199.9,121.7,178.3,117.8,163z"/>
		<path fill="#FF9F00" d="M118.2,146.3c0,0-24.8-9.4-25.5-28.5c0,19.8,19.4,32.5,29.8,33.3C133,151.9,127.1,149.3,118.2,146.3z"/>
		<line fill="none" stroke="#000000" stroke-miterlimit="10" x1="118" y1="153.5" x2="138" y2="153.5"/>
		<line fill="none" stroke="#957E78" stroke-width="0.6534" stroke-miterlimit="10" x1="117.9" y1="156" x2="137.8" y2="155.7"/>
		<line fill="none" stroke="#957E78" stroke-miterlimit="10" x1="121" y1="201.5" x2="135" y2="201.5"/>
		<line fill="none" stroke="#957E78" stroke-miterlimit="10" x1="121" y1="204.5" x2="134" y2="204.5"/>
		<line fill="none" stroke="#957E78" stroke-miterlimit="10" x1="121" y1="208.5" x2="134" y2="208.5"/>
		<line fill="none" stroke="#957E78" stroke-miterlimit="10" x1="116" y1="215.5" x2="139" y2="215.5"/>
		<line fill="none" stroke="#957E78" stroke-miterlimit="10" x1="105" y1="228.5" x2="150" y2="228.5"/>
		<line fill="none" stroke="#957E78" stroke-miterlimit="10" x1="104" y1="241.5" x2="150" y2="241.5"/>
		<line fill="none" stroke="#000000" stroke-miterlimit="10" x1="111" y1="160.5" x2="144" y2="160.5"/>
	</g>
	<g>
		<g>
			<path fill="#FFDA44" d="M205.6,26.6c-4.4-1.6-9.2-2.5-14.2-2.5s-9.8,0.9-14.2,2.5L173.6,65l3.6,38.4c4.4,1.6,9.2,2.5,14.2,2.5
			s9.8-0.9,14.2-2.5l3.6-38.4L205.6,26.6z"/>
			<path fill="#D80027" d="M232.3,65c0-17.6-11.1-32.6-26.7-38.4v76.8C221.2,97.6,232.3,82.6,232.3,65z"/>
			<path d="M150.4,65c0,17.6,11.1,32.6,26.7,38.4V26.6C161.5,32.4,150.4,47.4,150.4,65z"/>
		</g>
		<ellipse fill="none" stroke="#000000" stroke-width="1.4754" stroke-miterlimit="10" cx="191.6" cy="65.2" rx="40.8" ry="40.6"/>
	</g>
	<g>
		<path d="M21.323,185.452c0,3.115-0.845,5.029-2.534,5.741c2.062,0.691,3.093,2.967,3.093,6.827v0.74
		c-0.022,2.906-0.529,5.001-1.521,6.284c-0.993,1.283-2.613,1.925-4.861,1.925H9.101v-28.952h6.268c2.16,0,3.69,0.501,4.589,1.505
		c0.899,1.003,1.354,2.684,1.366,5.042L21.323,185.452L21.323,185.452z M13.509,189.729h1.628c0.757,0,1.253-0.241,1.489-0.724
		s0.354-1.475,0.354-2.978v-1.744c-0.011-1.118-0.164-1.866-0.46-2.245c-0.296-0.378-0.806-0.567-1.53-0.567h-1.48v8.258H13.509z
		 M13.509,203.548h1.562c0.877,0,1.492-0.302,1.843-0.904c0.351-0.604,0.526-1.684,0.526-3.241v-2.336
		c0-1.47-0.143-2.509-0.428-3.117s-0.833-0.913-1.645-0.913h-1.859v10.511H13.509z"/>
		<path d="M24.646,206.97v-28.952h9.706v3.8h-5.297v8.422h5.034v3.718h-5.034v9.213h5.494v3.8h-9.903V206.97z"/>
		<path d="M37.396,206.97v-28.952h4.409v25.201h5.577v3.751L37.396,206.97L37.396,206.97z"/>
		<path d="M54.554,207.266c-1.82,0-3.243-0.716-4.269-2.146c-1.025-1.432-1.538-3.639-1.538-6.621v-12.585
		c0-2.676,0.523-4.716,1.571-6.119c1.047-1.404,2.711-2.105,4.993-2.105c2.84,0,4.645,1.059,5.412,3.175
		c0.461,1.272,0.691,3.01,0.691,5.215v2.056h-4.112v-3.026c0-1.327-0.14-2.26-0.419-2.797c-0.28-0.537-0.806-0.806-1.58-0.806
		c-0.773,0-1.319,0.32-1.637,0.962s-0.477,1.779-0.477,3.413v12.552c0,1.897,0.143,3.219,0.428,3.965s0.842,1.118,1.67,1.118
		s1.415-0.4,1.76-1.2c0.345-0.801,0.518-2.149,0.518-4.047v-3.899h-2.221v-3.207h6.07v15.809H59.44l-0.674-2.846
		c-0.23,0.976-0.735,1.743-1.513,2.303C56.474,206.986,55.574,207.266,54.554,207.266z"/>
		<path d="M65.05,206.97v-28.952h4.409v28.952H65.05z"/>
		<path d="M72.717,198.826v-2.582h4.178v2.911c0,1.612,0.137,2.745,0.411,3.397c0.274,0.652,0.79,0.979,1.546,0.979
		c0.757,0,1.259-0.269,1.505-0.806s0.37-1.415,0.37-2.632c0-1.218-0.22-2.278-0.658-3.184c-0.438-0.904-1.135-1.851-2.089-2.838
		l-2.139-2.204c-0.998-1.042-1.774-2.122-2.328-3.24c-0.554-1.119-0.831-2.413-0.831-3.883c0-2.391,0.46-4.167,1.382-5.33
		c0.921-1.162,2.505-1.743,4.754-1.743c2.248,0,3.77,0.677,4.565,2.031c0.795,1.354,1.192,3.331,1.192,5.931v1.793h-4.063v-2.073
		c0-1.403-0.121-2.409-0.362-3.019c-0.241-0.608-0.705-0.913-1.39-0.913c-0.686,0-1.179,0.23-1.48,0.691
		c-0.302,0.461-0.453,1.151-0.453,2.072c0,0.922,0.154,1.656,0.461,2.205c0.307,0.548,0.861,1.25,1.661,2.105l2.385,2.582
		c1.195,1.295,2.098,2.605,2.706,3.932c0.609,1.327,0.913,2.775,0.913,4.344c0,2.708-0.455,4.71-1.365,6.004
		c-0.911,1.294-2.503,1.941-4.779,1.941s-3.86-0.722-4.754-2.163C73.164,203.693,72.717,201.59,72.717,198.826z"/>
		<path d="M98.231,205.283c-0.998,1.344-2.566,2.016-4.705,2.016s-3.737-0.716-4.795-2.147c-1.059-1.431-1.587-3.489-1.587-6.177
		v-12.617c0-4.31,1.129-7.002,3.389-8.077c0.833-0.395,1.842-0.592,3.027-0.592c4.068,0,6.103,2.565,6.103,7.698v3.981h-4.261
		v-3.702c0-1.491-0.126-2.558-0.378-3.199s-0.746-0.962-1.48-0.962s-1.245,0.34-1.53,1.02c-0.285,0.681-0.428,1.722-0.428,3.126
		v13.521c0,1.558,0.137,2.671,0.411,3.34c0.274,0.669,0.773,1.003,1.497,1.003s1.223-0.34,1.497-1.02
		c0.274-0.68,0.411-1.804,0.411-3.372v-4.146h4.327v4.096C99.729,201.87,99.229,203.94,98.231,205.283z"/>
		<path d="M102.641,206.97v-28.952h4.409v11.712h3.948v-11.712h4.409v28.952h-4.409v-13.456h-3.948v13.456H102.641z"/>
		<path d="M119.075,206.97v-28.952h9.705v3.8h-5.296v8.422h5.034v3.718h-5.034v9.213h5.494v3.8h-9.903V206.97z"/>
		<path d="M137.647,193.365l-1.414-0.065v13.67h-4.409v-28.952h7.288c1.513,0,2.643,0.304,3.389,0.912
		c0.745,0.609,1.236,1.459,1.472,2.55c0.236,1.092,0.354,2.518,0.354,4.277c0,1.761-0.187,3.101-0.559,4.022
		c-0.373,0.921-1.064,1.541-2.073,1.858c0.998,0.176,1.694,0.851,2.09,2.023c0.395,1.174,0.592,3.616,0.592,7.329
		c0,3.712,0.055,5.705,0.164,5.979h-4.408c-0.109-0.22-0.164-3.68-0.164-10.38c0-1.283-0.154-2.136-0.461-2.559
		C139.199,193.609,138.58,193.388,137.647,193.365z M136.25,189.878h1.76c0.56,0,0.973-0.126,1.242-0.379
		c0.269-0.252,0.455-0.685,0.56-1.299c0.104-0.614,0.156-1.552,0.156-2.813v-0.181c0-1.568-0.132-2.594-0.396-3.076
		c-0.263-0.482-0.871-0.724-1.826-0.724h-1.496V189.878z"/>
		<path d="M153.129,206.97v-28.952h5.479l4.112,21.154l3.865-21.154h5.512v28.952h-3.932v-10.792l0.164-9.902l-3.898,20.562h-3.504
		l-4.063-20.562l0.165,9.902v10.792H153.129z"/>
		<path d="M175.781,206.97v-28.952h9.706v3.8h-5.297v8.422h5.033v3.718h-5.033v9.213h5.494v3.8h-9.903V206.97z"/>
		<path d="M188.695,206.97v-28.952h4.409v28.952H188.695z"/>
		<path d="M196.362,198.826v-2.582h4.178v2.911c0,1.612,0.138,2.745,0.411,3.397c0.274,0.652,0.79,0.979,1.547,0.979
		s1.259-0.269,1.505-0.806c0.247-0.537,0.37-1.415,0.37-2.632c0-1.218-0.22-2.278-0.658-3.184c-0.438-0.904-1.135-1.851-2.089-2.838
		l-2.139-2.204c-0.998-1.042-1.773-2.122-2.327-3.24c-0.555-1.119-0.831-2.413-0.831-3.883c0-2.391,0.461-4.167,1.382-5.33
		c0.921-1.162,2.506-1.743,4.754-1.743s3.77,0.677,4.565,2.031s1.192,3.331,1.192,5.931v1.793h-4.063v-2.073
		c0-1.403-0.12-2.409-0.361-3.019c-0.241-0.608-0.705-0.913-1.391-0.913s-1.179,0.23-1.48,0.691s-0.452,1.151-0.452,2.072
		c0,0.922,0.153,1.656,0.461,2.205c0.307,0.548,0.86,1.25,1.661,2.105l2.385,2.582c1.195,1.295,2.098,2.605,2.706,3.932
		c0.609,1.327,0.913,2.775,0.913,4.344c0,2.708-0.455,4.71-1.365,6.004s-2.503,1.941-4.778,1.941c-2.276,0-3.86-0.722-4.754-2.163
		C196.809,203.693,196.362,201.59,196.362,198.826z"/>
		<path d="M212.632,206.97v-25.136h-3.389v-3.816h11.038v3.816h-3.257v25.136H212.632z"/>
		<path d="M222.042,206.97v-28.952h9.706v3.8h-5.297v8.422h5.033v3.718h-5.033v9.213h5.494v3.8h-9.903V206.97z"/>
		<path d="M240.615,193.365L239.2,193.3v13.67h-4.408v-28.952h7.287c1.514,0,2.643,0.304,3.389,0.912
		c0.746,0.609,1.236,1.459,1.473,2.55c0.235,1.092,0.354,2.518,0.354,4.277c0,1.761-0.187,3.101-0.56,4.022
		s-1.063,1.541-2.072,1.858c0.998,0.176,1.694,0.851,2.089,2.023c0.395,1.174,0.593,3.616,0.593,7.329
		c0,3.712,0.055,5.705,0.164,5.979H243.1c-0.11-0.22-0.165-3.68-0.165-10.38c0-1.283-0.153-2.136-0.461-2.559
		C242.167,193.609,241.547,193.388,240.615,193.365z M239.217,189.878h1.761c0.559,0,0.973-0.126,1.241-0.379
		c0.269-0.252,0.455-0.685,0.56-1.299s0.156-1.552,0.156-2.813v-0.181c0-1.568-0.132-2.594-0.395-3.076
		c-0.264-0.482-0.872-0.724-1.826-0.724h-1.497V189.878z"/>
	</g>
</svg>