<?xml version="1.0" encoding="utf-8"?>
<!-- Generator: Adobe Illustrator 17.0.0, SVG Export Plug-In . SVG Version: 6.00 Build 0)  -->
<!DOCTYPE svg PUBLIC "-//W3C//DTD SVG 1.1//EN" "http://www.w3.org/Graphics/SVG/1.1/DTD/svg11.dtd">
<svg version="1.1" id="Layer_1" xmlns="http://www.w3.org/2000/svg" xmlns:xlink="http://www.w3.org/1999/xlink" x="0px" y="0px"
	 width="256px" height="256px" viewBox="0 0 256 256" enable-background="new 0 0 256 256" xml:space="preserve">
	<polygon fill="#FFFF00" points="128,188.6 53.1,243.2 82,155.1 6.8,100.8 99.5,101 128,12.8 156.5,101 249.2,100.8 174,155.1 
	202.9,243.2 "/>
	<path fill="#FFFFFF" d="M192,10.3c-17.1,0-32.4,8-42.3,20.6h-0.3v0.3c-7.1,9.1-11.4,20.6-11.4,33c0,29.7,24.2,53.9,53.9,53.9
	s53.9-24.2,53.9-53.9S221.7,10.3,192,10.3z"/>
	<path d="M192,10.3c-17.1,0-32.4,8-42.3,20.6h-0.3v0.3c-7.1,9.1-11.4,20.6-11.4,33c0,29.7,24.2,53.9,53.9,53.9s53.9-24.2,53.9-53.9
	S221.7,10.3,192,10.3z M208.6,100.9l-23.1-3L183.7,78l17.6-10.7L217,82.4L208.6,100.9z M171.2,103.3L151.9,89l-2.1-14.7l11.8-7.4
	L181.5,78l1.9,20.2L171.2,103.3z M149.1,72.2L142,57.4l9.3-15.3l9.7,2l-0.2,20.8L149.1,72.2z M188.3,19l21.3,2.9l7.3,13.6l-16.1,7.9
	l-16.5-11.5L188.3,19z M231.4,74.4l-12.6,6.7l-16.9-16.2l0.2-19.7l16-7.9L232.3,50L231.4,74.4z M233.5,74.9l1-24.5l7.1-0.9
	c1.4,4.7,2.1,9.6,2.1,14.7c0,4.6-0.6,9-1.7,13.2L233.5,74.9z M240.9,47.4l-7.1,0.9l-14.6-13.1L212,21.9l6.1-2.4
	C228.7,25.7,236.9,35.6,240.9,47.4z M178.8,14.2l7.4,4.1L182,32.1L162.3,42l-10.5-2.1l-0.2-8.1C158.5,23.4,167.9,17,178.8,14.2z
	 M149.7,40.5l-8.5,14.1c1.4-7.3,4.3-14.1,8.4-20L149.7,40.5z M140.5,59.2l7.1,14.9l2.1,14.8l-2.9,0.4c-4.1-7.4-6.5-16-6.5-25.1
	C140.3,62.5,140.4,60.8,140.5,59.2z M172.4,112.1l-0.2-6.8l12.5-5.3l23.9,3.1l4.4,8.4c-6.4,2.9-13.5,4.5-21,4.5
	C185.1,115.9,178.5,114.5,172.4,112.1z"/>
	<g>
		<path fill="none" stroke="#000000" stroke-width="3" stroke-miterlimit="10" d="M157.6,137"/>
		<path fill="#FF0000" d="M157.6,137"/>
	</g>
	<g>
		<path fill="#FFFFFF" d="M219.669,180.459c19.789-10.858,32.385-33.306,33.079-36.684c0.594-3.369-0.674-4.055-3.094-6.343
		c-2.429-2.388-7.044-0.155-7.044-0.155s-20.514,18.256-30.085,25.563c-9.571,7.307-51.086,19.963-56.615,23.183
		c-5.519,3.319-44.353,17.837-50.672,26.653c0.148,2.698-1.42,9.671,5.357,5.834C117.273,214.682,187.168,198.311,219.669,180.459z"
		/>
		<g>
			<path fill="none" stroke="#000000" stroke-width="3" stroke-miterlimit="10" d="M189.719,153.991
			c3.231-0.9,6.073-1.663,8.028-2.245c4.29-1.399,9.367-2.971,15.874-5.377c8.634-3.305,18.179-8.702,21.809-9.638
			c6.263-1.781,12.331-0.23,12.331-0.23c2.908,2.143-20.429,21.361-26.029,25.993c-14.473,11.876-60.75,25.17-93.852,39.764
			c-11.773,5.2-16.937,10.194-16.937,10.194s9.113-3.55,15.675-5.358C141,202.959,204.123,187.211,220,176.412
			c20.609-13.946,30.421-32.824,30.409-36.238c5.404,7.436,2.097,14.067-0.705,18.542c-2.901,4.485-0.301,6.555-1.594,7.779
			c-0.633,0.761-4.346-0.303-7.167,2.869c-2.921,3.181-3.869,5.979-7.487,9.225c-3.618,3.245-0.41,6.465-2.77,9.192
			c-2.261,2.718-5.199-1.932-8.591,0.489c-3.501,2.33-5.365,3.908-11.5,7.083c-5.945,3.057-2.057,7.118-4.445,8.443
			c-2.271,1.514-6.813-4.194-11.409-1.762c-4.606,2.332-22.111,15.089-28.173,19.061s-0.675,12.314-2.61,14.199
			c-1.194,1.214-5.752-2.484-9.663-2.425c-2.309,0.012-4.462,1.716-6.677,3.828c-5.806,5.656-0.305,10.874-2.748,12.705
			c-2.443,1.831-4.537-1.29-9.274-2.561s-8.382,1.675-13.483-2.475c-24.339-20.055-21.377-43.525-21.377-43.525
			c1.527-3.053,2.596-2.348,7.386-1.583c4.79,0.764,12.948,1.018,18.647-3.623c5.608-4.533,11.363-16.209,10.488-21.35
			c-0.865-5.042-2.499-8.607,4.173-9.221c2.689-0.247,10.573-1.876,19.823-3.932l4.227-0.991
			C168.032,159.501,168.023,159.401,189.719,153.991z"/>
			<path fill="#9AC900" d="M189.719,153.991c3.231-0.9,6.073-1.663,8.028-2.245c4.29-1.399,9.367-2.971,15.874-5.377
			c8.634-3.305,18.179-8.702,21.809-9.638c6.263-1.781,12.331-0.23,12.331-0.23c2.908,2.143-20.429,21.361-26.029,25.993
			c-14.473,11.876-60.75,25.17-93.852,39.764c-11.773,5.2-16.937,10.194-16.937,10.194s9.113-3.55,15.675-5.358
			C141,202.959,204.123,187.211,220,176.412c20.609-13.946,30.421-32.824,30.409-36.238c5.404,7.436,2.097,14.067-0.705,18.542
			c-2.901,4.485-0.301,6.555-1.594,7.779c-0.633,0.761-4.346-0.303-7.167,2.869c-2.921,3.181-3.869,5.979-7.487,9.225
			c-3.618,3.245-0.41,6.465-2.77,9.192c-2.261,2.718-5.199-1.932-8.591,0.489c-3.501,2.33-5.365,3.908-11.5,7.083
			c-5.945,3.057-2.057,7.118-4.445,8.443c-2.271,1.514-6.813-4.194-11.409-1.762c-4.606,2.332-22.111,15.089-28.173,19.061
			s-0.675,12.314-2.61,14.199c-1.194,1.214-5.752-2.484-9.663-2.425c-2.309,0.012-4.462,1.716-6.677,3.828
			c-5.806,5.656-0.305,10.874-2.748,12.705c-2.443,1.831-4.537-1.29-9.274-2.561s-8.382,1.675-13.483-2.475
			c-24.339-20.055-21.377-43.525-21.377-43.525c1.527-3.053,2.596-2.348,7.386-1.583c4.79,0.764,12.948,1.018,18.647-3.623
			c5.608-4.533,11.363-16.209,10.488-21.35c-0.865-5.042-2.499-8.607,4.173-9.221c2.689-0.247,10.573-1.876,19.823-3.932
			l4.227-0.991C168.032,159.501,168.023,159.401,189.719,153.991z"/>
		</g>
		<g>
			<g>
				<g>
					<path fill="none" stroke="#1D1D1B" stroke-width="3" d="M161.91,174.826c-0.199,0.018-0.398,0.037-0.607-0.045
					c-1.123-0.198-1.821-1.238-1.614-2.262l2.356-14.778c0.198-1.123,1.238-1.821,2.262-1.614c1.123,0.198,1.821,1.238,1.614,2.262
					l-2.356,14.778C163.44,173.982,162.698,174.653,161.91,174.826z"/>
				</g>
				<g>
					<path fill="none" stroke="#1D1D1B" stroke-width="3" d="M170.878,170.788c-0.199,0.018-0.398,0.037-0.607-0.045
					c-1.123-0.198-1.821-1.238-1.614-2.262l1.925-11.826c0.198-1.123,1.238-1.821,2.262-1.614c1.123,0.198,1.821,1.238,1.614,2.262
					l-1.925,11.826C172.417,170.044,171.765,170.606,170.878,170.788z"/>
				</g>
				<g>
					<path fill="none" stroke="#1D1D1B" stroke-width="3" d="M178.444,167.882c-0.199,0.018-0.398,0.037-0.607-0.045
					c-1.123-0.198-1.821-1.238-1.614-2.262l1.88-11.219c0.198-1.123,1.238-1.821,2.262-1.614c1.123,0.198,1.821,1.238,1.614,2.262
					l-1.88,11.219C179.973,167.039,179.231,167.71,178.444,167.882z"/>
				</g>
				<g>
					<path fill="none" stroke="#1D1D1B" stroke-width="3" d="M186.841,163.093c-0.199,0.018-0.398,0.037-0.607-0.045
					c-1.123-0.198-1.821-1.238-1.614-2.262l1.484-8.974c0.198-1.123,1.238-1.821,2.262-1.614c1.123,0.198,1.821,1.238,1.614,2.262
					l-1.484,8.974C188.379,162.349,187.637,163.02,186.841,163.093z"/>
				</g>
			</g>
			<g>
				<g>
					<path fill="#FFFF00" d="M161.91,174.826c-0.199,0.018-0.398,0.037-0.607-0.045c-1.123-0.198-1.821-1.238-1.614-2.262
					l2.356-14.778c0.198-1.123,1.238-1.821,2.262-1.614c1.123,0.198,1.821,1.238,1.614,2.262l-2.356,14.778
					C163.44,173.982,162.698,174.653,161.91,174.826z"/>
				</g>
				<g>
					<path fill="#FFFF00" d="M170.878,170.788c-0.199,0.018-0.398,0.037-0.607-0.045c-1.123-0.198-1.821-1.238-1.614-2.262
					l1.925-11.826c0.198-1.123,1.238-1.821,2.262-1.614c1.123,0.198,1.821,1.238,1.614,2.262l-1.925,11.826
					C172.417,170.044,171.765,170.606,170.878,170.788z"/>
				</g>
				<g>
					<path fill="#FFFF00" d="M178.444,167.882c-0.199,0.018-0.398,0.037-0.607-0.045c-1.123-0.198-1.821-1.238-1.614-2.262
					l1.88-11.219c0.198-1.123,1.238-1.821,2.262-1.614c1.123,0.198,1.821,1.238,1.614,2.262l-1.88,11.219
					C179.973,167.039,179.231,167.71,178.444,167.882z"/>
				</g>
				<g>
					<path fill="#FFFF00" d="M186.841,163.093c-0.199,0.018-0.398,0.037-0.607-0.045c-1.123-0.198-1.821-1.238-1.614-2.262
					l1.484-8.974c0.198-1.123,1.238-1.821,2.262-1.614c1.123,0.198,1.821,1.238,1.614,2.262l-1.484,8.974
					C188.379,162.349,187.637,163.02,186.841,163.093z"/>
				</g>
			</g>
		</g>
	</g>
	<g>
		<circle fill="#F0F0F0" cx="192" cy="65.2" r="41"/>
		<path fill="#338AF3" d="M192,54.5h39.5c-1-3.8-2.6-7.4-4.6-10.7H192V54.5z"/>
		<path fill="#338AF3" d="M166.5,97.3h51c3.7-3,6.9-6.6,9.5-10.7h-70C159.5,90.7,162.7,94.3,166.5,97.3z"/>
		<path fill="#338AF3" d="M165.3,34.2c-3.2,2.8-6,6-8.2,9.7h8.2V34.2z"/>
		<path fill="#338AF3" d="M192,65.2c0-4.2,0-7.7,0-10.7h-16v10.7h-10.7V54.5h-12.8c-0.9,3.4-1.4,7-1.4,10.7s0.5,7.3,1.4,10.7h79.1
		c0.9-3.4,1.4-7,1.4-10.7H192z"/>
		<path fill="#338AF3" d="M192,24.3c-5.7,0-11.1,1.2-16,3.3v16.3h16c0-3.7,0-6.9,0-10.7h25.5C210.5,27.6,201.6,24.3,192,24.3z"/>
	</g>
	<ellipse fill="none" stroke="#000000" stroke-width="1.4754" stroke-miterlimit="10" cx="191.6" cy="65.2" rx="40.8" ry="40.6"/>
	<g>
		<path d="M27.976,113.06c0,1.849-0.501,2.985-1.504,3.408c1.224,0.41,1.836,1.761,1.836,4.053v0.439
		c-0.013,1.725-0.314,2.969-0.903,3.73s-1.551,1.143-2.886,1.143H20.72v-17.188h3.721c1.283,0,2.191,0.298,2.725,0.894
		s0.804,1.593,0.811,2.993v0.528H27.976z M23.337,115.599h0.967c0.449,0,0.744-0.143,0.884-0.43s0.21-0.875,0.21-1.768v-1.035
		c-0.006-0.664-0.098-1.108-0.273-1.333s-0.479-0.337-0.908-0.337h-0.879L23.337,115.599L23.337,115.599z M23.337,123.802h0.928
		c0.521,0,0.885-0.179,1.094-0.537s0.312-1,0.312-1.924v-1.387c0-0.873-0.084-1.489-0.254-1.851s-0.495-0.542-0.977-0.542h-1.104
		L23.337,123.802L23.337,123.802z"/>
		<path d="M30.349,125.833v-17.188h5.762v2.256h-3.145v5h2.988v2.207h-2.988v5.469h3.262v2.256H30.349z"/>
		<path d="M37.976,121v-1.533h2.48v1.729c0,0.957,0.082,1.629,0.244,2.017s0.469,0.581,0.918,0.581s0.747-0.16,0.894-0.479
		s0.22-0.84,0.22-1.562s-0.13-1.353-0.391-1.89s-0.674-1.099-1.24-1.685l-1.27-1.309c-0.592-0.619-1.053-1.26-1.382-1.924
		s-0.493-1.432-0.493-2.305c0-1.419,0.273-2.474,0.82-3.164s1.488-1.035,2.822-1.035s2.238,0.402,2.71,1.206
		s0.708,1.978,0.708,3.521v1.064h-2.412v-1.23c0-0.833-0.072-1.431-0.215-1.792s-0.418-0.542-0.825-0.542s-0.7,0.137-0.879,0.41
		s-0.269,0.684-0.269,1.23s0.091,0.983,0.273,1.309s0.511,0.742,0.986,1.25l1.416,1.533c0.709,0.768,1.245,1.546,1.606,2.334
		s0.542,1.647,0.542,2.578c0,1.608-0.27,2.796-0.811,3.564s-1.486,1.152-2.837,1.152s-2.292-0.428-2.822-1.284
		S37.976,122.64,37.976,121z"/>
		<path d="M48.035,125.833v-14.922h-2.012v-2.266h6.553v2.266h-1.934v14.922H48.035z"/>
		<path d="M54.021,125.833v-17.188h5.762v2.256h-3.145v5h2.988v2.207h-2.988v5.469H59.9v2.256H54.021z"/>
		<path d="M65.447,117.757l-0.84-0.039v8.115H61.99v-17.188h4.326c0.898,0,1.569,0.181,2.012,0.542s0.734,0.866,0.874,1.514
		s0.21,1.494,0.21,2.539s-0.111,1.841-0.332,2.388s-0.631,0.915-1.23,1.104c0.592,0.104,1.006,0.504,1.24,1.201
		s0.352,2.147,0.352,4.351s0.033,3.387,0.098,3.55h-2.617c-0.065-0.13-0.098-2.184-0.098-6.162c0-0.762-0.091-1.268-0.273-1.519
		S66,117.771,65.447,117.757z M64.617,115.687h1.045c0.332,0,0.578-0.075,0.737-0.225s0.27-0.407,0.332-0.771
		s0.093-0.921,0.093-1.67v-0.107c0-0.931-0.078-1.54-0.234-1.826s-0.518-0.43-1.084-0.43h-0.889V115.687z"/>
		<path d="M23.855,150.009c-1.081,0-1.925-0.425-2.534-1.274s-0.913-2.159-0.913-3.931v-7.471c0-1.588,0.311-2.799,0.933-3.633
		c0.622-0.833,1.61-1.25,2.964-1.25c1.686,0,2.757,0.629,3.213,1.885c0.273,0.756,0.41,1.787,0.41,3.096v1.221h-2.441v-1.797
		c0-0.787-0.083-1.341-0.249-1.66c-0.166-0.318-0.479-0.479-0.938-0.479s-0.783,0.19-0.972,0.571s-0.283,1.057-0.283,2.026v7.451
		c0,1.127,0.084,1.911,0.254,2.354c0.169,0.443,0.5,0.664,0.991,0.664s0.84-0.237,1.045-0.713c0.205-0.475,0.308-1.275,0.308-2.402
		v-2.314h-1.318v-1.904h3.604v9.385h-1.172l-0.4-1.689c-0.137,0.58-0.436,1.035-0.898,1.367S24.46,150.009,23.855,150.009z"/>
		<path d="M33.845,141.757l-0.84-0.039v8.115h-2.617v-17.188h4.326c0.898,0,1.569,0.181,2.012,0.542s0.734,0.866,0.874,1.514
		c0.14,0.648,0.21,1.494,0.21,2.539s-0.111,1.841-0.332,2.388s-0.631,0.915-1.23,1.104c0.592,0.104,1.006,0.505,1.24,1.201
		c0.234,0.697,0.352,2.147,0.352,4.351s0.033,3.388,0.098,3.55H35.32c-0.065-0.13-0.098-2.184-0.098-6.162
		c0-0.762-0.091-1.268-0.273-1.519C34.767,141.902,34.398,141.771,33.845,141.757z M33.015,139.687h1.045
		c0.332,0,0.578-0.074,0.737-0.225c0.16-0.149,0.27-0.406,0.332-0.771c0.062-0.364,0.093-0.921,0.093-1.67v-0.107
		c0-0.931-0.078-1.539-0.234-1.826c-0.156-0.286-0.518-0.43-1.084-0.43h-0.889C33.015,134.658,33.015,139.687,33.015,139.687z"/>
		<path d="M40.349,149.833v-17.188h2.617v17.188H40.349z"/>
		<path d="M45.642,149.833v-17.188h5.762v2.256h-3.145v5h2.988v2.207h-2.988v5.469h3.262v2.256L45.642,149.833L45.642,149.833z"/>
		<path d="M59.978,148.832c-0.592,0.798-1.523,1.196-2.793,1.196s-2.218-0.425-2.847-1.274s-0.942-2.071-0.942-3.667v-7.49
		c0-2.559,0.67-4.156,2.012-4.795c0.495-0.234,1.094-0.352,1.797-0.352c2.416,0,3.623,1.523,3.623,4.57v2.363h-2.529v-2.197
		c0-0.885-0.075-1.519-0.225-1.899s-0.443-0.571-0.879-0.571s-0.739,0.202-0.908,0.605c-0.169,0.404-0.254,1.022-0.254,1.855v8.027
		c0,0.925,0.082,1.586,0.244,1.982c0.163,0.397,0.459,0.596,0.889,0.596s0.726-0.201,0.889-0.605
		c0.163-0.403,0.244-1.07,0.244-2.002v-2.461h2.568v2.432C60.867,146.806,60.57,148.035,59.978,148.832z"/>
		<path d="M62.996,149.833v-17.188h2.617v6.953h2.344v-6.953h2.617v17.188h-2.617v-7.988h-2.344v7.988H62.996z"/>
		<path d="M73.25,149.833v-17.188h2.617v17.188H73.25z"/>
		<path d="M78.201,144.999v-1.533h2.48v1.729c0,0.957,0.082,1.63,0.244,2.017c0.163,0.388,0.469,0.581,0.918,0.581
		s0.747-0.159,0.894-0.479c0.146-0.318,0.22-0.84,0.22-1.562s-0.13-1.353-0.391-1.89s-0.674-1.099-1.24-1.685l-1.27-1.309
		c-0.592-0.618-1.053-1.26-1.382-1.924s-0.493-1.432-0.493-2.305c0-1.419,0.273-2.474,0.82-3.164
		c0.547-0.689,1.488-1.035,2.822-1.035s2.238,0.402,2.71,1.206c0.472,0.805,0.708,1.978,0.708,3.521v1.064H82.83v-1.23
		c0-0.833-0.072-1.431-0.215-1.792s-0.418-0.542-0.825-0.542s-0.7,0.137-0.879,0.41s-0.269,0.684-0.269,1.23
		s0.091,0.983,0.273,1.309s0.511,0.742,0.986,1.25l1.416,1.533c0.709,0.769,1.245,1.547,1.606,2.334
		c0.361,0.788,0.542,1.647,0.542,2.578c0,1.608-0.27,2.797-0.811,3.564c-0.541,0.769-1.486,1.152-2.837,1.152
		s-2.292-0.428-2.822-1.284C78.466,147.889,78.201,146.64,78.201,144.999z"/>
		<path d="M93.748,148.832c-0.592,0.798-1.523,1.196-2.793,1.196s-2.218-0.425-2.847-1.274s-0.942-2.071-0.942-3.667v-7.49
		c0-2.559,0.67-4.156,2.012-4.795c0.495-0.234,1.094-0.352,1.797-0.352c2.416,0,3.623,1.523,3.623,4.57v2.363h-2.529v-2.197
		c0-0.885-0.075-1.519-0.225-1.899s-0.443-0.571-0.879-0.571s-0.739,0.202-0.908,0.605c-0.169,0.404-0.254,1.022-0.254,1.855v8.027
		c0,0.925,0.082,1.586,0.244,1.982c0.163,0.397,0.459,0.596,0.889,0.596s0.726-0.201,0.889-0.605
		c0.163-0.403,0.244-1.07,0.244-2.002v-2.461h2.568v2.432C94.636,146.806,94.34,148.035,93.748,148.832z"/>
		<path d="M96.765,149.833v-17.188h2.617v6.953h2.344v-6.953h2.617v17.188h-2.617v-7.988h-2.344v7.988H96.765z"/>
		<path d="M106.921,149.833v-17.188h5.762v2.256h-3.145v5h2.988v2.207h-2.988v5.469h3.262v2.256L106.921,149.833L106.921,149.833z"/>
		<path d="M118.347,141.757l-0.84-0.039v8.115h-2.617v-17.188h4.326c0.898,0,1.569,0.181,2.012,0.542s0.734,0.866,0.874,1.514
		c0.14,0.648,0.21,1.494,0.21,2.539s-0.111,1.841-0.332,2.388s-0.631,0.915-1.23,1.104c0.592,0.104,1.006,0.505,1.24,1.201
		c0.234,0.697,0.352,2.147,0.352,4.351s0.033,3.388,0.098,3.55h-2.617c-0.065-0.13-0.098-2.184-0.098-6.162
		c0-0.762-0.091-1.268-0.273-1.519C119.269,141.902,118.9,141.771,118.347,141.757z M117.517,139.687h1.045
		c0.332,0,0.578-0.074,0.737-0.225c0.16-0.149,0.27-0.406,0.332-0.771c0.062-0.364,0.093-0.921,0.093-1.67v-0.107
		c0-0.931-0.078-1.539-0.234-1.826c-0.156-0.286-0.518-0.43-1.084-0.43h-0.889V139.687z"/>
		<path d="M127.996,144.999v-1.533h2.48v1.729c0,0.957,0.082,1.63,0.244,2.017c0.163,0.388,0.469,0.581,0.918,0.581
		s0.747-0.159,0.894-0.479c0.146-0.318,0.22-0.84,0.22-1.562s-0.13-1.353-0.391-1.89c-0.26-0.537-0.674-1.099-1.24-1.685
		l-1.27-1.309c-0.592-0.618-1.053-1.26-1.381-1.924s-0.493-1.432-0.493-2.305c0-1.419,0.273-2.474,0.82-3.164
		c0.547-0.689,1.488-1.035,2.822-1.035c1.335,0,2.238,0.402,2.71,1.206c0.473,0.805,0.708,1.978,0.708,3.521v1.064h-2.412v-1.23
		c0-0.833-0.071-1.431-0.215-1.792c-0.143-0.361-0.418-0.542-0.825-0.542c-0.406,0-0.699,0.137-0.879,0.41
		c-0.179,0.273-0.269,0.684-0.269,1.23s0.092,0.983,0.273,1.309c0.183,0.326,0.512,0.742,0.986,1.25l1.416,1.533
		c0.71,0.769,1.245,1.547,1.606,2.334c0.361,0.788,0.542,1.647,0.542,2.578c0,1.608-0.27,2.797-0.811,3.564
		c-0.54,0.769-1.485,1.152-2.837,1.152c-1.351,0-2.291-0.428-2.822-1.284C128.261,147.889,127.996,146.64,127.996,144.999z"/>
		<path d="M137.175,149.833v-17.188h3.945c1.335,0,2.248,0.405,2.739,1.216c0.492,0.811,0.751,2.021,0.776,3.628v0.361
		c0,1.706-0.242,3-0.728,3.882c-0.484,0.883-1.385,1.323-2.7,1.323h-1.416v6.777h-2.616V149.833z M139.792,140.897h0.898
		c0.554,0,0.913-0.213,1.079-0.64c0.166-0.426,0.249-1.238,0.249-2.437v-0.332c-0.006-1.016-0.096-1.741-0.269-2.178
		c-0.172-0.436-0.519-0.654-1.04-0.654h-0.918v6.241H139.792z"/>
		<path d="M146.491,149.833v-17.188h2.617v17.188H146.491z"/>
		<path d="M151.784,149.833v-17.188h5.762v2.256h-3.145v5h2.988v2.207h-2.988v5.469h3.262v2.256L151.784,149.833L151.784,149.833z"/>
		<path d="M159.753,149.833v-17.188h2.617v14.961h3.311v2.227H159.753z"/>
		<path d="M167.185,149.833v-17.188h5.762v2.256h-3.145v5h2.988v2.207h-2.988v5.469h3.262v2.256L167.185,149.833L167.185,149.833z"/>
		<path d="M178.61,141.757l-0.84-0.039v8.115h-2.617v-17.188h4.326c0.898,0,1.569,0.181,2.012,0.542
		c0.443,0.361,0.734,0.866,0.874,1.514c0.141,0.648,0.21,1.494,0.21,2.539s-0.11,1.841-0.332,2.388
		c-0.221,0.547-0.631,0.915-1.23,1.104c0.593,0.104,1.006,0.505,1.24,1.201c0.234,0.697,0.352,2.147,0.352,4.351
		s0.033,3.388,0.098,3.55h-2.617c-0.064-0.13-0.098-2.184-0.098-6.162c0-0.762-0.091-1.268-0.273-1.519
		C179.532,141.902,179.164,141.771,178.61,141.757z M177.78,139.687h1.045c0.332,0,0.578-0.074,0.737-0.225
		c0.16-0.149,0.271-0.406,0.332-0.771c0.062-0.364,0.093-0.921,0.093-1.67v-0.107c0-0.931-0.078-1.539-0.234-1.826
		c-0.156-0.286-0.518-0.43-1.084-0.43h-0.889V139.687z"/>
		<path d="M24.548,175.161c-0.762,0-1.38-0.062-1.855-0.186c-0.475-0.123-0.877-0.35-1.206-0.679
		c-0.329-0.328-0.56-0.774-0.693-1.338c-0.133-0.562-0.2-1.29-0.2-2.183v-10.361c0-0.892,0.067-1.619,0.2-2.183
		c0.133-0.562,0.365-1.009,0.693-1.338c0.329-0.328,0.731-0.555,1.206-0.679c0.475-0.123,1.094-0.186,1.855-0.186v1.953
		c-0.58,0-0.951,0.151-1.113,0.454s-0.244,0.949-0.244,1.938v10.439c0,0.99,0.082,1.636,0.244,1.938s0.534,0.454,1.113,0.454
		V175.161z"/>
		<path d="M26.326,168.999v-1.533h2.48v1.729c0,0.957,0.082,1.63,0.244,2.017c0.163,0.388,0.469,0.581,0.918,0.581
		s0.747-0.159,0.894-0.479c0.146-0.318,0.22-0.84,0.22-1.562s-0.13-1.353-0.391-1.89s-0.674-1.099-1.24-1.685l-1.27-1.309
		c-0.592-0.618-1.053-1.26-1.382-1.924s-0.493-1.432-0.493-2.305c0-1.419,0.273-2.474,0.82-3.164
		c0.547-0.689,1.488-1.035,2.822-1.035s2.238,0.402,2.71,1.206c0.472,0.805,0.708,1.978,0.708,3.521v1.064h-2.412v-1.23
		c0-0.833-0.072-1.431-0.215-1.792s-0.418-0.542-0.825-0.542s-0.7,0.137-0.879,0.41s-0.269,0.684-0.269,1.23
		s0.091,0.983,0.273,1.309c0.182,0.326,0.511,0.742,0.986,1.25l1.416,1.533c0.709,0.769,1.245,1.547,1.606,2.334
		c0.361,0.788,0.542,1.647,0.542,2.578c0,1.608-0.27,2.797-0.811,3.564c-0.541,0.769-1.486,1.152-2.837,1.152
		s-2.292-0.428-2.822-1.284C26.591,171.889,26.326,170.64,26.326,168.999z"/>
		<path d="M42.087,172.91c-0.599,0.746-1.561,1.118-2.886,1.118s-2.289-0.374-2.891-1.123c-0.602-0.748-0.903-1.91-0.903-3.486
		v-12.783h2.617v12.734c0,0.905,0.042,1.455,0.127,1.65s0.187,0.373,0.308,0.532c0.121,0.16,0.37,0.239,0.747,0.239
		s0.648-0.11,0.811-0.332c0.163-0.221,0.262-0.496,0.298-0.825c0.036-0.328,0.054-0.75,0.054-1.265v-12.734h2.617v12.783
		C42.986,171.001,42.687,172.165,42.087,172.91z"/>
		<path d="M45.466,173.833v-17.188h3.945c1.334,0,2.248,0.405,2.739,1.216s0.75,2.021,0.776,3.628v0.361c0,1.706-0.243,3-0.728,3.882
		c-0.485,0.883-1.385,1.323-2.7,1.323h-1.416v6.777h-2.616V173.833z M48.083,164.897h0.898c0.553,0,0.913-0.213,1.079-0.64
		c0.166-0.426,0.249-1.238,0.249-2.437v-0.332c-0.006-1.016-0.096-1.741-0.269-2.178c-0.172-0.436-0.519-0.654-1.04-0.654h-0.918
		v6.241H48.083z"/>
		<path d="M54.685,173.833v-17.188h5.762v2.256h-3.145v5h2.988v2.207h-2.988v5.469h3.262v2.256L54.685,173.833L54.685,173.833z"/>
		<path d="M66.111,165.757l-0.84-0.039v8.115h-2.617v-17.188h4.326c0.898,0,1.569,0.181,2.012,0.542s0.734,0.866,0.874,1.514
		c0.14,0.648,0.21,1.494,0.21,2.539s-0.111,1.841-0.332,2.388s-0.631,0.915-1.23,1.104c0.592,0.104,1.006,0.505,1.24,1.201
		c0.234,0.697,0.352,2.147,0.352,4.351s0.033,3.388,0.098,3.55h-2.617c-0.065-0.13-0.098-2.184-0.098-6.162
		c0-0.762-0.091-1.268-0.273-1.519C67.032,165.902,66.664,165.771,66.111,165.757z M65.281,163.687h1.045
		c0.332,0,0.578-0.074,0.737-0.225c0.16-0.149,0.27-0.406,0.332-0.771c0.062-0.364,0.093-0.921,0.093-1.67v-0.107
		c0-0.931-0.078-1.539-0.234-1.826c-0.156-0.286-0.518-0.43-1.084-0.43h-0.889V163.687z"/>
		<path d="M72.517,173.833v-17.188h2.617v14.961h3.311v2.227H72.517z"/>
		<path d="M79.949,173.833v-17.188h5.762v2.256h-3.145v5h2.988v2.207h-2.988v5.469h3.262v2.256L79.949,173.833L79.949,173.833z"/>
		<path d="M87.136,173.833l2.451-17.188h3.457l2.607,17.188H93.21l-0.41-3.066h-2.773l-0.371,3.066H87.136z M92.527,168.667
		l-1.152-8.633h-0.039l-1.055,8.633H92.527z"/>
		<path d="M100.632,174.009c-1.081,0-1.925-0.425-2.534-1.274s-0.913-2.159-0.913-3.931v-7.471c0-1.588,0.311-2.799,0.933-3.633
		c0.622-0.833,1.61-1.25,2.964-1.25c1.686,0,2.757,0.629,3.213,1.885c0.273,0.756,0.41,1.787,0.41,3.096v1.221h-2.441v-1.797
		c0-0.787-0.083-1.341-0.249-1.66c-0.166-0.318-0.479-0.479-0.938-0.479s-0.783,0.19-0.972,0.571s-0.283,1.057-0.283,2.026v7.451
		c0,1.127,0.084,1.911,0.254,2.354c0.169,0.443,0.5,0.664,0.991,0.664s0.84-0.237,1.045-0.713c0.205-0.475,0.308-1.275,0.308-2.402
		v-2.314h-1.318v-1.904h3.604v9.385h-1.172l-0.4-1.689c-0.137,0.58-0.436,1.035-0.898,1.367S101.238,174.009,100.632,174.009z"/>
		<path d="M113.748,172.91c-0.599,0.746-1.561,1.118-2.886,1.118s-2.289-0.374-2.891-1.123c-0.602-0.748-0.903-1.91-0.903-3.486
		v-12.783h2.617v12.734c0,0.905,0.042,1.455,0.127,1.65s0.187,0.373,0.308,0.532c0.121,0.16,0.37,0.239,0.747,0.239
		s0.648-0.11,0.811-0.332c0.163-0.221,0.262-0.496,0.298-0.825c0.036-0.328,0.054-0.75,0.054-1.265v-12.734h2.617v12.783
		C114.646,171.001,114.347,172.165,113.748,172.91z"/>
		<path d="M117.126,173.833v-17.188h5.762v2.256h-3.145v5h2.988v2.207h-2.988v5.469h3.262v2.256L117.126,173.833L117.126,173.833z"/>
		<path d="M124.646,175.161v-1.953c0.58,0,0.951-0.151,1.113-0.454s0.244-0.948,0.244-1.938v-10.439c0-0.989-0.082-1.636-0.244-1.938
		s-0.534-0.454-1.113-0.454v-1.953c0.762,0,1.38,0.062,1.855,0.186c0.475,0.124,0.875,0.351,1.201,0.679
		c0.326,0.329,0.555,0.775,0.688,1.338s0.2,1.291,0.2,2.183v10.361c0,0.893-0.066,1.62-0.2,2.183
		c-0.133,0.563-0.363,1.01-0.688,1.338c-0.326,0.329-0.726,0.556-1.201,0.679C126.026,175.1,125.408,175.161,124.646,175.161z"/>
	</g>
</svg>