<?xml version="1.0" encoding="utf-8"?>
<!-- Generator: Adobe Illustrator 17.0.0, SVG Export Plug-In . SVG Version: 6.00 Build 0)  -->
<!DOCTYPE svg PUBLIC "-//W3C//DTD SVG 1.1//EN" "http://www.w3.org/Graphics/SVG/1.1/DTD/svg11.dtd">
<svg version="1.1" id="Layer_1" xmlns="http://www.w3.org/2000/svg" xmlns:xlink="http://www.w3.org/1999/xlink" x="0px" y="0px"
	 width="256px" height="256px" viewBox="0 0 256 256" enable-background="new 0 0 256 256" xml:space="preserve">
<polygon fill="#FFFF00" points="128,188.6 53.1,243.2 82,155.1 6.8,100.8 99.5,101 128,12.8 156.5,101 249.2,100.8 174,155.1 
	202.9,243.2 "/>
<path fill="#FFFFFF" d="M192,10.3c-17.1,0-32.4,8-42.3,20.6h-0.3v0.3c-7.1,9.1-11.4,20.6-11.4,33c0,29.7,24.2,53.9,53.9,53.9
	s53.9-24.2,53.9-53.9S221.7,10.3,192,10.3z"/>
<path d="M192,10.3c-17.1,0-32.4,8-42.3,20.6h-0.3v0.3c-7.1,9.1-11.4,20.6-11.4,33c0,29.7,24.2,53.9,53.9,53.9s53.9-24.2,53.9-53.9
	S221.7,10.3,192,10.3z M208.6,100.9l-23.1-3L183.7,78l17.6-10.7L217,82.4L208.6,100.9z M171.2,103.3L151.9,89l-2.1-14.7l11.8-7.4
	L181.5,78l1.9,20.2L171.2,103.3z M149.1,72.2L142,57.4l9.3-15.3l9.7,2l-0.2,20.8L149.1,72.2z M188.3,19l21.3,2.9l7.3,13.6l-16.1,7.9
	l-16.5-11.5L188.3,19z M231.4,74.4l-12.6,6.7l-16.9-16.2l0.2-19.7l16-7.9L232.3,50L231.4,74.4z M233.5,74.9l1-24.5l7.1-0.9
	c1.4,4.7,2.1,9.6,2.1,14.7c0,4.6-0.6,9-1.7,13.2L233.5,74.9z M240.9,47.4l-7.1,0.9l-14.6-13.1L212,21.9l6.1-2.4
	C228.7,25.7,236.9,35.6,240.9,47.4z M178.8,14.2l7.4,4.1L182,32.1L162.3,42l-10.5-2.1l-0.2-8.1C158.5,23.4,167.9,17,178.8,14.2z
	 M149.7,40.5l-8.5,14.1c1.4-7.3,4.3-14.1,8.4-20L149.7,40.5z M140.5,59.2l7.1,14.9l2.1,14.8l-2.9,0.4c-4.1-7.4-6.5-16-6.5-25.1
	C140.3,62.5,140.4,60.8,140.5,59.2z M172.4,112.1l-0.2-6.8l12.5-5.3l23.9,3.1l4.4,8.4c-6.4,2.9-13.5,4.5-21,4.5
	C185.1,115.9,178.5,114.5,172.4,112.1z"/>
<g>
	<path fill="none" stroke="#000000" stroke-width="3" stroke-miterlimit="10" d="M157.6,137"/>
	<path fill="#FF0000" d="M157.6,137"/>
</g>
<g>
	<path fill="#FFFFFF" d="M211.4,170.2c20.6-9.3,34.8-30.8,35.7-34.1c0.9-3.3-0.4-4-2.6-6.6c-2.3-2.5-7-0.7-7-0.7
		s-21.8,16.7-31.9,23.3s-52.4,16.1-58.2,19s-45.6,14.5-52.5,22.8c-0.1,2.7-2.2,9.6,4.9,6.3C106.8,196.7,177.6,185.5,211.4,170.2z"/>
	<g>
		<path fill="none" stroke="#000000" stroke-width="3" stroke-miterlimit="10" d="M183.5,141.6c3.3-0.6,6.1-1.2,8.2-1.7
			c4.4-1,9.5-2.2,16.3-4.2c8.9-2.6,18.8-7.3,22.4-8c6.4-1.3,12.3,0.7,12.3,0.7c2.8,2.3-21.9,19.8-27.9,24
			c-15.3,10.8-62.4,20.6-96.5,32.7c-12.2,4.3-17.6,8.9-17.6,8.9s9.4-2.8,16-4.2c14.7-3,78.7-14.1,95.4-23.7
			c21.6-12.4,32.8-30.5,33-33.9c4.8,7.8,1.1,14.2-2.1,18.4c-3.2,4.2-0.8,6.5-2.2,7.6c-0.7,0.8-4.3-0.6-7.4,2.3
			c-3.1,3-4.3,5.6-8.1,8.6s-0.9,6.4-3.4,9s-5-2.3-8.7-0.2c-3.6,2.1-5.7,3.5-12,6.2c-6.2,2.6-2.6,7-5,8.1c-2.3,1.3-6.5-4.7-11.2-2.6
			c-4.7,2-23.1,13.4-29.5,16.9s-1.6,12.2-3.7,13.9c-1.3,1.1-5.5-2.9-9.4-3.2c-2.3-0.1-4.6,1.4-6.9,3.4c-6.2,5.2-1.1,10.8-3.7,12.5
			c-2.6,1.6-4.4-1.6-9-3.2s-8.5,1-13.2-3.5c-22.8-21.8-18.1-45-18.1-45c1.8-2.9,2.7-2.1,7.5-1s12.9,1.9,18.8-2.2
			c6-4.1,12.5-15.4,12-20.5s-1.8-8.8,4.9-8.8c2.7,0,10.7-1.1,20-2.5l4.3-0.7C161.4,145.4,161.4,145.4,183.5,141.6z"/>
		<path fill="#978300" d="M183.5,141.6c3.3-0.6,6.1-1.2,8.2-1.7c4.4-1,9.5-2.2,16.3-4.2c8.9-2.6,18.8-7.3,22.4-8
			c6.4-1.3,12.3,0.7,12.3,0.7c2.8,2.3-21.9,19.8-27.9,24c-15.3,10.8-62.4,20.6-96.5,32.7c-12.2,4.3-17.6,8.9-17.6,8.9
			s9.4-2.8,16-4.2c14.7-3,78.7-14.1,95.4-23.7c21.6-12.4,32.8-30.5,33-33.9c4.8,7.8,1.1,14.2-2.1,18.4c-3.2,4.2-0.8,6.5-2.2,7.6
			c-0.7,0.8-4.3-0.6-7.4,2.3c-3.1,3-4.3,5.6-8.1,8.6s-0.9,6.4-3.4,9s-5-2.3-8.7-0.2c-3.6,2.1-5.7,3.5-12,6.2c-6.2,2.6-2.6,7-5,8.1
			c-2.3,1.3-6.5-4.7-11.2-2.6c-4.7,2-23.1,13.4-29.5,16.9s-1.6,12.2-3.7,13.9c-1.3,1.1-5.5-2.9-9.4-3.2c-2.3-0.1-4.6,1.4-6.9,3.4
			c-6.2,5.2-1.1,10.8-3.7,12.5c-2.6,1.6-4.4-1.6-9-3.2s-8.5,1-13.2-3.5c-22.8-21.8-18.1-45-18.1-45c1.8-2.9,2.7-2.1,7.5-1
			s12.9,1.9,18.8-2.2c6-4.1,12.5-15.4,12-20.5s-1.8-8.8,4.9-8.8c2.7,0,10.7-1.1,20-2.5l4.3-0.7C161.4,145.4,161.4,145.4,183.5,141.6
			z"/>
	</g>
	<g>
		<g>
			<g>
				<path fill="none" stroke="#1D1D1B" stroke-width="3" d="M154.2,160.2c-0.2,0-0.4,0-0.6,0c-1.1-0.3-1.7-1.3-1.5-2.4l3.5-14.5
					c0.3-1.1,1.3-1.7,2.4-1.5c1.1,0.3,1.7,1.3,1.5,2.4l-3.5,14.5C155.8,159.5,155,160.1,154.2,160.2z"/>
			</g>
			<g>
				<path fill="none" stroke="#1D1D1B" stroke-width="3" d="M163.5,156.9c-0.2,0-0.4,0-0.6,0c-1.1-0.3-1.7-1.3-1.5-2.4l2.8-11.7
					c0.3-1.1,1.3-1.7,2.4-1.5c1.1,0.3,1.7,1.3,1.5,2.4l-2.8,11.7C165.1,156.2,164.3,156.8,163.5,156.9z"/>
			</g>
			<g>
				<path fill="none" stroke="#1D1D1B" stroke-width="3" d="M171.2,154.5c-0.2,0-0.4,0-0.6,0c-1.1-0.3-1.7-1.3-1.5-2.4l2.7-11.1
					c0.3-1.1,1.3-1.7,2.4-1.5c1.1,0.3,1.7,1.3,1.5,2.4L173,153C172.8,153.9,172.1,154.5,171.2,154.5z"/>
			</g>
			<g>
				<path fill="none" stroke="#1D1D1B" stroke-width="3" d="M180,150.5c-0.2,0-0.4,0-0.6,0c-1.1-0.3-1.7-1.3-1.5-2.4l2.1-8.8
					c0.3-1.1,1.3-1.7,2.4-1.5c1.1,0.3,1.7,1.3,1.5,2.4l-2.1,8.8C181.5,149.8,180.8,150.4,180,150.5z"/>
			</g>
		</g>
		<g>
			<g>
				<path fill="#FFFF00" d="M154.2,160.2c-0.2,0-0.4,0-0.6,0c-1.1-0.3-1.7-1.3-1.5-2.4l3.5-14.5c0.3-1.1,1.3-1.7,2.4-1.5
					c1.1,0.3,1.7,1.3,1.5,2.4l-3.5,14.5C155.8,159.5,155,160.1,154.2,160.2z"/>
			</g>
			<g>
				<path fill="#FFFF00" d="M163.5,156.9c-0.2,0-0.4,0-0.6,0c-1.1-0.3-1.7-1.3-1.5-2.4l2.8-11.7c0.3-1.1,1.3-1.7,2.4-1.5
					c1.1,0.3,1.7,1.3,1.5,2.4l-2.8,11.7C165.1,156.2,164.3,156.8,163.5,156.9z"/>
			</g>
			<g>
				<path fill="#FFFF00" d="M171.2,154.5c-0.2,0-0.4,0-0.6,0c-1.1-0.3-1.7-1.3-1.5-2.4l2.7-11.1c0.3-1.1,1.3-1.7,2.4-1.5
					c1.1,0.3,1.7,1.3,1.5,2.4L173,153C172.8,153.9,172.1,154.5,171.2,154.5z"/>
			</g>
			<g>
				<path fill="#FFFF00" d="M180,150.5c-0.2,0-0.4,0-0.6,0c-1.1-0.3-1.7-1.3-1.5-2.4l2.1-8.8c0.3-1.1,1.3-1.7,2.4-1.5
					c1.1,0.3,1.7,1.3,1.5,2.4l-2.1,8.8C181.5,149.8,180.8,150.4,180,150.5z"/>
			</g>
		</g>
	</g>
</g>
<g>
	<ellipse fill="#272A9B" stroke="#000000" stroke-miterlimit="10" cx="191.6" cy="65.2" rx="40.8" ry="40.6"/>
	<g>
		<path fill="#FFFFFF" d="M159.4,74.5V52.1h3.4v19.4h4.3v2.9h-7.7V74.5z"/>
		<path fill="#FFFFFF" d="M168,74.5l3.2-22.3h4.5l3.4,22.3h-3.2l-0.5-4h-3.6l-0.5,4H168z M175,67.7l-1.5-11.2h-0.1L172,67.7H175z"/>
		<path fill="#FFFFFF" d="M186.1,74.5V52.1h3.4v19.4h4.3v2.9h-7.7V74.5z"/>
		<path fill="#FFFFFF" d="M195.9,74.5V52.1h3.4v22.3h-3.4V74.5z"/>
		<path fill="#FFFFFF" d="M207,74.7c-1.4,0-2.5-0.6-3.3-1.7s-1.2-2.8-1.2-5.1v-9.7c0-2.1,0.4-3.6,1.2-4.7c0.8-1.1,2.1-1.6,3.9-1.6
			c2.2,0,3.6,0.8,4.2,2.5c0.4,1,0.5,2.3,0.5,4V60h-3.2v-2.3c0-1-0.1-1.7-0.3-2.2c-0.2-0.4-0.6-0.6-1.2-0.6s-1,0.2-1.3,0.7
			c-0.2,0.5-0.4,1.4-0.4,2.6v9.7c0,1.5,0.1,2.5,0.3,3.1s0.6,0.9,1.3,0.9c0.6,0,1.1-0.3,1.4-0.9c0.3-0.6,0.4-1.7,0.4-3.1v-3h-1.7
			v-2.5h4.7v12.2h-1.5l-0.5-2.2c-0.2,0.8-0.6,1.3-1.2,1.8C208.4,74.5,207.7,74.7,207,74.7z"/>
		<path fill="#FFFFFF" d="M214.4,74.5l3.2-22.3h4.5l3.4,22.3h-3.2l-0.5-4h-3.6l-0.5,4H214.4z M221.4,67.7l-1.5-11.2h-0.1l-1.4,11.2
			H221.4z"/>
	</g>
</g>
<g>
	<path d="M31.976,114.06c0,1.849-0.501,2.985-1.504,3.408c1.224,0.41,1.836,1.761,1.836,4.053v0.439
		c-0.013,1.725-0.314,2.969-0.903,3.73s-1.551,1.143-2.886,1.143H24.72v-17.188h3.721c1.283,0,2.191,0.298,2.725,0.894
		s0.804,1.593,0.811,2.993v0.528H31.976z M27.337,116.599h0.967c0.449,0,0.744-0.143,0.884-0.43s0.21-0.875,0.21-1.768v-1.035
		c-0.006-0.664-0.098-1.108-0.273-1.333s-0.479-0.337-0.908-0.337h-0.879L27.337,116.599L27.337,116.599z M27.337,124.802h0.928
		c0.521,0,0.885-0.179,1.094-0.537s0.312-1,0.312-1.924v-1.387c0-0.873-0.084-1.489-0.254-1.851s-0.495-0.542-0.977-0.542h-1.104
		L27.337,124.802L27.337,124.802z"/>
	<path d="M34.349,126.833v-17.188h5.762v2.256h-3.145v5h2.988v2.207h-2.988v5.469h3.262v2.256H34.349z"/>
	<path d="M41.976,122v-1.533h2.48v1.729c0,0.957,0.082,1.629,0.244,2.017s0.469,0.581,0.918,0.581s0.747-0.16,0.894-0.479
		s0.22-0.84,0.22-1.562s-0.13-1.353-0.391-1.89s-0.674-1.099-1.24-1.685l-1.27-1.309c-0.592-0.619-1.053-1.26-1.382-1.924
		s-0.493-1.432-0.493-2.305c0-1.419,0.273-2.474,0.82-3.164s1.488-1.035,2.822-1.035s2.238,0.402,2.71,1.206
		s0.708,1.978,0.708,3.521v1.064h-2.412v-1.23c0-0.833-0.072-1.431-0.215-1.792s-0.418-0.542-0.825-0.542s-0.7,0.137-0.879,0.41
		s-0.269,0.684-0.269,1.23s0.091,0.983,0.273,1.309s0.511,0.742,0.986,1.25l1.416,1.533c0.709,0.768,1.245,1.546,1.606,2.334
		s0.542,1.647,0.542,2.578c0,1.608-0.27,2.796-0.811,3.564s-1.486,1.152-2.837,1.152s-2.292-0.428-2.822-1.284
		S41.976,123.64,41.976,122z"/>
	<path d="M52.035,126.833v-14.922h-2.012v-2.266h6.553v2.266h-1.934v14.922H52.035z"/>
	<path d="M58.021,126.833v-17.188h5.762v2.256h-3.145v5h2.988v2.207h-2.988v5.469H63.9v2.256H58.021z"/>
	<path d="M69.447,118.757l-0.84-0.039v8.115H65.99v-17.188h4.326c0.898,0,1.569,0.181,2.012,0.542s0.734,0.866,0.874,1.514
		s0.21,1.494,0.21,2.539s-0.111,1.841-0.332,2.388s-0.631,0.915-1.23,1.104c0.592,0.104,1.006,0.504,1.24,1.201
		s0.352,2.147,0.352,4.351s0.033,3.387,0.098,3.55h-2.617c-0.065-0.13-0.098-2.184-0.098-6.162c0-0.762-0.091-1.268-0.273-1.519
		S70,118.771,69.447,118.757z M68.617,116.687h1.045c0.332,0,0.578-0.075,0.737-0.225s0.27-0.407,0.332-0.771
		s0.093-0.921,0.093-1.67v-0.107c0-0.931-0.078-1.54-0.234-1.826s-0.518-0.43-1.084-0.43h-0.889V116.687z"/>
	<path d="M24.281,145.999v-1.533h2.48v1.729c0,0.957,0.082,1.63,0.244,2.017c0.163,0.388,0.469,0.581,0.918,0.581
		s0.747-0.159,0.894-0.479c0.146-0.318,0.22-0.84,0.22-1.562s-0.13-1.353-0.391-1.89s-0.674-1.099-1.24-1.685l-1.27-1.309
		c-0.592-0.618-1.053-1.26-1.382-1.924s-0.493-1.432-0.493-2.305c0-1.419,0.273-2.474,0.82-3.164
		c0.547-0.689,1.488-1.035,2.822-1.035s2.238,0.402,2.71,1.206c0.472,0.805,0.708,1.978,0.708,3.521v1.064H28.91v-1.23
		c0-0.833-0.072-1.431-0.215-1.792s-0.418-0.542-0.825-0.542s-0.7,0.137-0.879,0.41s-0.269,0.684-0.269,1.23
		s0.091,0.983,0.273,1.309c0.182,0.326,0.511,0.742,0.986,1.25l1.416,1.533c0.709,0.769,1.245,1.547,1.606,2.334
		c0.361,0.788,0.542,1.647,0.542,2.578c0,1.608-0.27,2.797-0.811,3.564c-0.541,0.769-1.486,1.152-2.837,1.152
		s-2.292-0.428-2.822-1.284C24.546,148.889,24.281,147.64,24.281,145.999z"/>
	<path d="M33.46,150.833v-17.188h3.945c1.334,0,2.248,0.405,2.739,1.216s0.75,2.021,0.776,3.628v0.361c0,1.706-0.243,3-0.728,3.882
		c-0.485,0.883-1.385,1.323-2.7,1.323h-1.416v6.777H33.46V150.833z M36.078,141.897h0.898c0.553,0,0.913-0.213,1.079-0.64
		c0.166-0.426,0.249-1.238,0.249-2.437v-0.332c-0.006-1.016-0.096-1.741-0.269-2.178c-0.172-0.436-0.519-0.654-1.04-0.654h-0.918
		v6.241H36.078z"/>
	<path d="M42.777,150.833v-17.188h2.617v17.188H42.777z"/>
	<path d="M48.07,150.833v-17.188h5.762v2.256h-3.145v5h2.988v2.207h-2.988v5.469h3.262v2.256L48.07,150.833L48.07,150.833z"/>
	<path d="M56.039,150.833v-17.188h2.617v14.961h3.311v2.227H56.039z"/>
	<path d="M63.47,150.833v-17.188h5.762v2.256h-3.145v5h2.988v2.207h-2.988v5.469h3.262v2.256L63.47,150.833L63.47,150.833z"/>
	<path d="M74.896,142.757l-0.84-0.039v8.115h-2.617v-17.188h4.326c0.898,0,1.569,0.181,2.012,0.542s0.734,0.866,0.874,1.514
		c0.14,0.648,0.21,1.494,0.21,2.539s-0.111,1.841-0.332,2.388s-0.631,0.915-1.23,1.104c0.592,0.104,1.006,0.505,1.24,1.201
		c0.234,0.697,0.352,2.147,0.352,4.351s0.033,3.388,0.098,3.55h-2.617c-0.065-0.13-0.098-2.184-0.098-6.162
		c0-0.762-0.091-1.268-0.273-1.519C75.817,142.902,75.449,142.771,74.896,142.757z M74.066,140.687h1.045
		c0.332,0,0.578-0.074,0.737-0.225c0.16-0.149,0.27-0.406,0.332-0.771c0.062-0.364,0.093-0.921,0.093-1.67v-0.107
		c0-0.931-0.078-1.539-0.234-1.826c-0.156-0.286-0.518-0.43-1.084-0.43h-0.889V140.687z"/>
</g>
</svg>
