<?xml version="1.0" encoding="utf-8"?>
<!-- Generator: Adobe Illustrator 17.0.0, SVG Export Plug-In . SVG Version: 6.00 Build 0)  -->
<!DOCTYPE svg PUBLIC "-//W3C//DTD SVG 1.1//EN" "http://www.w3.org/Graphics/SVG/1.1/DTD/svg11.dtd">
<svg version="1.1" id="Layer_1" xmlns="http://www.w3.org/2000/svg" xmlns:xlink="http://www.w3.org/1999/xlink" x="0px" y="0px"
	 width="256px" height="256px" viewBox="0 0 256 256" enable-background="new 0 0 256 256" xml:space="preserve">
<g>
	<g>
		<polygon fill="#FF0000" points="78.5,160.3 44.2,83.8 76.3,57.2 194,55.9 211.1,86.4 177.4,163.2 144.4,138.3 164.5,87.7 
			87.5,88.1 113.6,136.3 		"/>
		<g>
			<g>
				<path fill="#FFFFFF" d="M78.5,166.5c-1.8,0-3.6-1-4.4-2.8L38.5,87.1c-0.9-2-0.4-4.4,1.3-5.8l34.5-28.6c1.2-1,2.7-1.3,4.1-1
					c1.5,0.3,2.7,1.3,3.3,2.7l35.7,76.7c1.1,2.4,0.1,5.3-2.3,6.4c-2.4,1.1-5.3,0.1-6.4-2.3l-33.1-71L48.8,86.4l34.1,73.1
					c1.1,2.4,0.1,5.3-2.3,6.4C79.9,166.3,79.2,166.5,78.5,166.5z"/>
			</g>
			<g>
				<path fill="#FFFFFF" d="M177,167.5c-0.7,0-1.4-0.1-2-0.5c-2.4-1.1-3.5-4-2.3-6.4l34.6-74.1l-26.8-22.3l-33.2,71.2
					c-1.1,2.4-4,3.5-6.4,2.3c-2.4-1.1-3.5-4-2.3-6.4l35.8-76.8c0.6-1.4,1.9-2.3,3.3-2.7c1.5-0.3,3,0,4.1,1l34.5,28.6
					c1.7,1.4,2.2,3.8,1.3,5.8l-36.1,77.5C180.6,166.4,178.8,167.5,177,167.5z"/>
			</g>
			<g>
				<path fill="#FFFFFF" d="M178.6,60L178.6,60L77.3,60.5c-2.7,0-4.8-1.6-4.8-4.3s2.2-4.3,4.8-4.3l0,0L178.6,52c2.7,0,4.8,1.3,4.8,4
					C183.4,58.7,181.3,60,178.6,60z"/>
			</g>
			<g>
				<path fill="#FFFFFF" d="M163.7,93L163.7,93l-71.4-0.1c-2.7,0-4.8-2.3-4.8-4.9c0-2.7,2.2-4.9,4.8-4.9l0,0l71.4,0.3
					c2.7,0,4.8,2.2,4.8,4.9C168.5,90.8,166.4,93,163.7,93z"/>
			</g>
		</g>
		<g>
			<g>
				<g>
					<path fill="#FFFFFF" d="M127.1,248.4c-12.7,0-24.7-4-34.9-11.5c-26-19.3-31.5-56.2-12.3-82.2c11-14.9,28.7-23.8,47.3-23.8
						c12.7,0,24.7,4,34.9,11.5c12.6,9.3,20.8,23,23.2,38.6c2.3,15.5-1.6,31-10.9,43.6C163.4,239.5,145.7,248.4,127.1,248.4z
						 M127.2,139.7c-15.8,0-30.8,7.6-40.2,20.2c-16.4,22.1-11.7,53.5,10.4,69.8c8.7,6.4,18.9,9.8,29.7,9.8
						c15.8,0,30.8-7.6,40.2-20.2c7.9-10.7,11.2-23.9,9.3-37.1c-2-13.2-9-24.8-19.7-32.8C148.2,143.1,138,139.7,127.2,139.7z"/>
				</g>
			</g>
			<g>
				<g>
					<polygon fill="#FFFFFF" points="113.7,137.1 104.1,158.8 80.4,161.3 					"/>
				</g>
			</g>
			<g>
				<g>
					<polygon fill="#FFFFFF" points="147,240.1 126.6,228.1 105.9,239.8 					"/>
				</g>
			</g>
			<g>
				<g>
					<polygon fill="#FFFFFF" points="174.1,162 150.6,159.3 141.2,137.4 					"/>
				</g>
			</g>
			<g>
				<g>
					<polygon fill="#FFFFFF" points="86,225.6 90.9,202.4 73.1,186.6 					"/>
				</g>
			</g>
			<g>
				<g>
					<polygon fill="#FFFFFF" points="181.4,185.9 163.7,201.6 168.5,224.9 					"/>
				</g>
			</g>
		</g>
	</g>
	<path fill="#FFFF00" d="M127.2,139.7c-15.8,0-30.8,7.6-40.2,20.2c-16.4,22.1-11.7,53.5,10.4,69.8c8.7,6.4,18.9,9.8,29.7,9.8
		c15.8,0,30.8-7.6,40.2-20.2c7.9-10.7,11.2-23.9,9.3-37.1c-2-13.2-9-24.8-19.7-32.8C148.2,143.1,138,139.7,127.2,139.7z"/>
	<path fill="#ABD100" d="M145.3,227.9c-4.8,5,11.8-7.4,16-13.1c6.7-9.1,9.5-20.3,7.9-31.5c-1.7-11.2-7.6-21.1-16.7-27.8
		c-1.8-1.4-3.8-2.6-5.8-3.6c0,0,13.9,19.1,12.9,36.9S152.8,220.2,145.3,227.9z"/>
	<path fill="#FF9F00" d="M95.4,188.3c-1-21.7,16.8-38.3,16.8-38.3c-7.5,2.9-14.2,7.8-19.1,14.4c-13.9,18.8-10,45.4,8.9,59.4
		c2.3,1.7,9.2,6.2,7.2,4.3C104.5,223.8,96.4,210,95.4,188.3z"/>
</g>
<g>
	<g>
		<path fill="none" stroke="#FFFF00" stroke-width="3" d="M57.717,185.413c0,3.114-0.845,5.028-2.533,5.741
			c2.062,0.69,3.093,2.967,3.093,6.827v0.74c-0.022,2.906-0.529,5-1.521,6.283c-0.993,1.283-2.613,1.925-4.861,1.925h-6.399v-28.952
			h6.268c2.16,0,3.69,0.502,4.59,1.505c0.899,1.004,1.354,2.685,1.365,5.042v0.889H57.717z M49.903,189.69h1.628
			c0.757,0,1.253-0.241,1.489-0.724c0.235-0.483,0.354-1.476,0.354-2.978v-1.744c-0.011-1.118-0.164-1.867-0.461-2.245
			c-0.296-0.379-0.806-0.567-1.529-0.567h-1.48L49.903,189.69L49.903,189.69z M49.903,203.508h1.562
			c0.877,0,1.491-0.301,1.843-0.904c0.351-0.603,0.526-1.684,0.526-3.24v-2.336c0-1.47-0.143-2.509-0.428-3.118
			c-0.285-0.608-0.834-0.912-1.646-0.912h-1.858v10.51H49.903z"/>
		<path fill="none" stroke="#FFFF00" stroke-width="3" d="M72.637,205.17c-1.009,1.393-2.623,2.089-4.844,2.089
			c-2.222,0-3.85-0.699-4.886-2.098c-1.037-1.397-1.555-3.506-1.555-6.324v-13.243c0-5.308,2.165-7.962,6.497-7.962
			c2.237,0,3.847,0.675,4.828,2.023c0.981,1.35,1.473,3.329,1.473,5.938v13.243C74.15,201.666,73.646,203.777,72.637,205.17z
			 M66.181,202.439c0.257,0.669,0.786,1.003,1.587,1.003s1.327-0.343,1.579-1.028c0.253-0.685,0.379-1.861,0.379-3.528v-13.489
			c0-1.371-0.129-2.371-0.387-3.002s-0.763-0.946-1.514-0.946s-1.277,0.315-1.579,0.946s-0.452,1.626-0.452,2.985v13.506
			C65.794,200.586,65.923,201.771,66.181,202.439z"/>
		<path fill="none" stroke="#FFFF00" stroke-width="3" d="M78.148,206.93v-28.952h4.408v25.202h5.577v3.75H78.148z"/>
		<path fill="none" stroke="#FFFF00" stroke-width="3" d="M89.351,206.93l4.129-28.952h5.823l4.393,28.952h-4.112l-0.691-5.165
			H94.22l-0.625,5.165H89.351z M98.432,198.228l-1.941-14.542h-0.065l-1.777,14.542H98.432z"/>
		<path fill="none" stroke="#FFFF00" stroke-width="3" d="M112.742,206.93v-28.952h6.498c2.128,0,3.671,0.628,4.631,1.884
			s1.439,3.106,1.439,5.552l0.017,13.062c0,2.917-0.482,5.056-1.447,6.415c-0.966,1.36-2.562,2.04-4.787,2.04L112.742,206.93
			L112.742,206.93z M117.151,203.508h1.447c0.812,0,1.401-0.263,1.769-0.789s0.551-1.491,0.551-2.896l-0.016-14.295
			c0-1.503-0.185-2.571-0.552-3.208c-0.367-0.636-1.001-0.954-1.899-0.954h-1.3C117.151,181.366,117.151,203.508,117.151,203.508z"
			/>
		<path fill="none" stroke="#FFFF00" stroke-width="3" d="M129.292,206.93v-28.952h9.705v3.8H133.7v8.423h5.034v3.718H133.7v9.212
			h5.494v3.8h-9.902V206.93z"/>
		<path fill="none" stroke="#FFFF00" stroke-width="3" d="M159.675,205.17c-1.009,1.393-2.623,2.089-4.844,2.089
			c-2.222,0-3.85-0.699-4.886-2.098c-1.037-1.397-1.555-3.506-1.555-6.324v-13.243c0-5.308,2.165-7.962,6.497-7.962
			c2.237,0,3.847,0.675,4.828,2.023c0.981,1.35,1.473,3.329,1.473,5.938v13.243C161.188,201.666,160.684,203.777,159.675,205.17z
			 M153.219,202.439c0.257,0.669,0.786,1.003,1.587,1.003s1.327-0.343,1.579-1.028c0.253-0.685,0.379-1.861,0.379-3.528v-13.489
			c0-1.371-0.129-2.371-0.387-3.002s-0.763-0.946-1.514-0.946s-1.277,0.315-1.579,0.946s-0.452,1.626-0.452,2.985v13.506
			C152.832,200.586,152.961,201.771,153.219,202.439z"/>
		<path fill="none" stroke="#FFFF00" stroke-width="3" d="M176.273,205.375c-1.01,1.256-2.63,1.884-4.861,1.884
			s-3.854-0.63-4.869-1.892c-1.015-1.261-1.521-3.219-1.521-5.873v-21.533h4.408v21.451c0,1.524,0.071,2.451,0.214,2.78
			s0.315,0.628,0.519,0.896s0.622,0.403,1.259,0.403c0.636,0,1.091-0.187,1.365-0.56c0.273-0.373,0.441-0.836,0.501-1.39
			c0.061-0.554,0.091-1.265,0.091-2.131v-21.451h4.409v21.533C177.787,202.159,177.282,204.12,176.273,205.375z"/>
		<path fill="none" stroke="#FFFF00" stroke-width="3" d="M187.788,193.325l-1.414-0.065v13.67h-4.409v-28.952h7.288
			c1.513,0,2.643,0.305,3.389,0.913c0.745,0.608,1.236,1.459,1.472,2.55c0.236,1.091,0.354,2.517,0.354,4.277
			s-0.187,3.101-0.559,4.021c-0.373,0.922-1.064,1.541-2.073,1.859c0.998,0.175,1.694,0.85,2.09,2.023
			c0.395,1.173,0.592,3.616,0.592,7.328c0,3.713,0.055,5.706,0.164,5.979h-4.408c-0.109-0.219-0.164-3.679-0.164-10.38
			c0-1.283-0.154-2.136-0.461-2.558C189.34,193.569,188.721,193.348,187.788,193.325z M186.391,189.838h1.76
			c0.56,0,0.973-0.126,1.242-0.378s0.455-0.686,0.56-1.3c0.104-0.614,0.156-1.552,0.156-2.812v-0.182
			c0-1.567-0.132-2.593-0.396-3.076c-0.263-0.482-0.871-0.724-1.826-0.724h-1.496V189.838z"/>
		<path fill="none" stroke="#FFFF00" stroke-width="3" d="M209.503,205.17c-1.009,1.393-2.624,2.089-4.845,2.089
			s-3.85-0.699-4.886-2.098c-1.036-1.397-1.555-3.506-1.555-6.324v-13.243c0-5.308,2.166-7.962,6.498-7.962
			c2.237,0,3.847,0.675,4.828,2.023c0.981,1.35,1.473,3.329,1.473,5.938v13.243C211.017,201.666,210.512,203.777,209.503,205.17z
			 M203.046,202.439c0.258,0.669,0.787,1.003,1.588,1.003c0.8,0,1.326-0.343,1.579-1.028c0.252-0.685,0.378-1.861,0.378-3.528
			v-13.489c0-1.371-0.129-2.371-0.387-3.002s-0.762-0.946-1.513-0.946c-0.752,0-1.278,0.315-1.579,0.946
			c-0.302,0.631-0.453,1.626-0.453,2.985v13.506C202.659,200.586,202.788,201.771,203.046,202.439z"/>
		<path fill="none" stroke="#FFFF00" stroke-width="3" d="M74.632,238.789c-1.066,0-1.933-0.087-2.598-0.26s-1.229-0.49-1.688-0.95
			s-0.784-1.084-0.971-1.873c-0.187-0.788-0.28-1.807-0.28-3.056v-14.506c0-1.248,0.094-2.267,0.28-3.056
			c0.187-0.788,0.511-1.412,0.971-1.873c0.46-0.46,1.023-0.776,1.688-0.95c0.665-0.173,1.531-0.26,2.598-0.26v2.734
			c-0.812,0-1.331,0.212-1.559,0.636s-0.342,1.329-0.342,2.714v14.615c0,1.386,0.114,2.29,0.342,2.714s0.747,0.636,1.559,0.636
			V238.789z"/>
		<path fill="none" stroke="#FFFF00" stroke-width="3" d="M87.894,219.047c0,2.589-0.702,4.18-2.105,4.771
			c1.714,0.574,2.57,2.466,2.57,5.674v0.615c-0.019,2.416-0.439,4.156-1.265,5.223s-2.172,1.6-4.04,1.6h-5.318v-24.062h5.209
			c1.796,0,3.067,0.417,3.814,1.251s1.126,2.231,1.135,4.19V219.047z M81.399,222.602h1.354c0.629,0,1.041-0.2,1.237-0.602
			c0.196-0.4,0.294-1.226,0.294-2.475v-1.449c-0.009-0.93-0.137-1.552-0.383-1.866s-0.67-0.472-1.271-0.472H81.4L81.399,222.602
			L81.399,222.602z M81.399,234.086h1.299c0.729,0,1.239-0.25,1.531-0.752c0.292-0.501,0.438-1.398,0.438-2.693V228.7
			c0-1.221-0.118-2.085-0.355-2.591s-0.692-0.759-1.367-0.759H81.4v8.736H81.399z"/>
		<path fill="none" stroke="#FFFF00" stroke-width="3" d="M96.056,225.623l-1.176-0.055v11.361h-3.664v-24.062h6.057
			c1.258,0,2.196,0.253,2.816,0.759s1.027,1.213,1.224,2.119c0.196,0.907,0.294,2.092,0.294,3.555s-0.155,2.577-0.465,3.343
			s-0.884,1.281-1.723,1.545c0.829,0.146,1.408,0.707,1.736,1.682c0.328,0.976,0.492,3.006,0.492,6.091
			c0,3.086,0.046,4.742,0.137,4.97H98.12c-0.091-0.182-0.137-3.058-0.137-8.627c0-1.066-0.128-1.774-0.383-2.126
			C97.346,225.826,96.83,225.642,96.056,225.623z M94.894,222.725h1.463c0.465,0,0.809-0.104,1.032-0.314
			c0.224-0.209,0.378-0.569,0.465-1.08c0.087-0.51,0.13-1.289,0.13-2.338v-0.15c0-1.303-0.109-2.155-0.328-2.557
			c-0.219-0.4-0.725-0.602-1.518-0.602h-1.244L94.894,222.725L94.894,222.725z"/>
		<path fill="none" stroke="#FFFF00" stroke-width="3" d="M103.931,236.93l3.432-24.062h4.84l3.65,24.062h-3.418l-0.574-4.293
			h-3.883l-0.52,4.293H103.931z M111.478,229.697l-1.613-12.086h-0.055l-1.477,12.086H111.478z"/>
		<path fill="none" stroke="#FFFF00" stroke-width="3" d="M117.89,230.162v-2.146h3.473v2.42c0,1.34,0.114,2.281,0.342,2.823
			c0.228,0.543,0.656,0.813,1.285,0.813s1.046-0.223,1.251-0.67c0.205-0.446,0.308-1.176,0.308-2.188s-0.183-1.894-0.547-2.646
			s-0.943-1.538-1.736-2.358l-1.777-1.832c-0.829-0.865-1.475-1.764-1.935-2.693s-0.69-2.005-0.69-3.227
			c0-1.986,0.383-3.463,1.148-4.43c0.766-0.966,2.083-1.449,3.951-1.449s3.133,0.563,3.794,1.688
			c0.661,1.126,0.991,2.769,0.991,4.929v1.49h-3.377v-1.723c0-1.166-0.101-2.003-0.301-2.509s-0.586-0.759-1.155-0.759
			s-0.979,0.191-1.23,0.574s-0.376,0.957-0.376,1.723s0.128,1.377,0.383,1.832c0.255,0.456,0.716,1.039,1.381,1.75l1.982,2.146
			c0.993,1.076,1.743,2.165,2.249,3.268c0.506,1.104,0.759,2.307,0.759,3.609c0,2.252-0.378,3.915-1.135,4.99
			c-0.757,1.076-2.08,1.613-3.972,1.613s-3.208-0.599-3.951-1.798C118.261,234.207,117.89,232.459,117.89,230.162z"/>
		<path fill="none" stroke="#FFFF00" stroke-width="3" d="M130.878,236.93v-24.062h3.664v24.062H130.878z"/>
		<path fill="none" stroke="#FFFF00" stroke-width="3" d="M138.288,236.93v-24.062h3.664v20.945h4.635v3.117H138.288z"/>
		<path fill="none" stroke="#FFFF00" stroke-width="3" d="M148.829,236.93v-24.062h3.664v24.062H148.829z"/>
		<path fill="none" stroke="#FFFF00" stroke-width="3" d="M156.239,236.93v-24.062h8.066v3.158h-4.402v7h4.184v3.09h-4.184v7.656
			h4.566v3.158L156.239,236.93L156.239,236.93z"/>
		<path fill="none" stroke="#FFFF00" stroke-width="3" d="M167.396,236.93v-24.062h2.871l5.1,14.438l-0.26-6.562v-7.875h3.295
			v24.062h-2.598l-5.236-14.943l0.205,6.316v8.627h-3.377V236.93z"/>
		<path fill="none" stroke="#FFFF00" stroke-width="3" d="M181.382,238.789v-2.734c0.812,0,1.331-0.212,1.559-0.636
			s0.342-1.328,0.342-2.714V218.09c0-1.385-0.114-2.29-0.342-2.714s-0.747-0.636-1.559-0.636v-2.734c1.066,0,1.933,0.087,2.598,0.26
			c0.665,0.174,1.226,0.49,1.682,0.95c0.456,0.461,0.777,1.085,0.964,1.873c0.187,0.789,0.28,1.808,0.28,3.056v14.506
			c0,1.249-0.094,2.268-0.28,3.056c-0.187,0.789-0.508,1.413-0.964,1.873s-1.017,0.777-1.682,0.95S182.448,238.789,181.382,238.789z
			"/>
	</g>
	<g>
		<path d="M57.717,185.413c0,3.114-0.845,5.028-2.533,5.741c2.062,0.69,3.093,2.967,3.093,6.827v0.74
			c-0.022,2.906-0.529,5-1.521,6.283c-0.993,1.283-2.613,1.925-4.861,1.925h-6.399v-28.952h6.268c2.16,0,3.69,0.502,4.59,1.505
			c0.899,1.004,1.354,2.685,1.365,5.042v0.889H57.717z M49.903,189.69h1.628c0.757,0,1.253-0.241,1.489-0.724
			c0.235-0.483,0.354-1.476,0.354-2.978v-1.744c-0.011-1.118-0.164-1.867-0.461-2.245c-0.296-0.379-0.806-0.567-1.529-0.567h-1.48
			L49.903,189.69L49.903,189.69z M49.903,203.508h1.562c0.877,0,1.491-0.301,1.843-0.904c0.351-0.603,0.526-1.684,0.526-3.24v-2.336
			c0-1.47-0.143-2.509-0.428-3.118c-0.285-0.608-0.834-0.912-1.646-0.912h-1.858v10.51H49.903z"/>
		<path d="M72.637,205.17c-1.009,1.393-2.623,2.089-4.844,2.089c-2.222,0-3.85-0.699-4.886-2.098
			c-1.037-1.397-1.555-3.506-1.555-6.324v-13.243c0-5.308,2.165-7.962,6.497-7.962c2.237,0,3.847,0.675,4.828,2.023
			c0.981,1.35,1.473,3.329,1.473,5.938v13.243C74.15,201.666,73.646,203.777,72.637,205.17z M66.181,202.439
			c0.257,0.669,0.786,1.003,1.587,1.003s1.327-0.343,1.579-1.028c0.253-0.685,0.379-1.861,0.379-3.528v-13.489
			c0-1.371-0.129-2.371-0.387-3.002s-0.763-0.946-1.514-0.946s-1.277,0.315-1.579,0.946s-0.452,1.626-0.452,2.985v13.506
			C65.794,200.586,65.923,201.771,66.181,202.439z"/>
		<path d="M78.148,206.93v-28.952h4.408v25.202h5.577v3.75H78.148z"/>
		<path d="M89.351,206.93l4.129-28.952h5.823l4.393,28.952h-4.112l-0.691-5.165H94.22l-0.625,5.165H89.351z M98.432,198.228
			l-1.941-14.542h-0.065l-1.777,14.542H98.432z"/>
		<path d="M112.742,206.93v-28.952h6.498c2.128,0,3.671,0.628,4.631,1.884s1.439,3.106,1.439,5.552l0.017,13.062
			c0,2.917-0.482,5.056-1.447,6.415c-0.966,1.36-2.562,2.04-4.787,2.04L112.742,206.93L112.742,206.93z M117.151,203.508h1.447
			c0.812,0,1.401-0.263,1.769-0.789s0.551-1.491,0.551-2.896l-0.016-14.295c0-1.503-0.185-2.571-0.552-3.208
			c-0.367-0.636-1.001-0.954-1.899-0.954h-1.3C117.151,181.366,117.151,203.508,117.151,203.508z"/>
		<path d="M129.292,206.93v-28.952h9.705v3.8H133.7v8.423h5.034v3.718H133.7v9.212h5.494v3.8h-9.902V206.93z"/>
		<path d="M159.675,205.17c-1.009,1.393-2.623,2.089-4.844,2.089c-2.222,0-3.85-0.699-4.886-2.098
			c-1.037-1.397-1.555-3.506-1.555-6.324v-13.243c0-5.308,2.165-7.962,6.497-7.962c2.237,0,3.847,0.675,4.828,2.023
			c0.981,1.35,1.473,3.329,1.473,5.938v13.243C161.188,201.666,160.684,203.777,159.675,205.17z M153.219,202.439
			c0.257,0.669,0.786,1.003,1.587,1.003s1.327-0.343,1.579-1.028c0.253-0.685,0.379-1.861,0.379-3.528v-13.489
			c0-1.371-0.129-2.371-0.387-3.002s-0.763-0.946-1.514-0.946s-1.277,0.315-1.579,0.946s-0.452,1.626-0.452,2.985v13.506
			C152.832,200.586,152.961,201.771,153.219,202.439z"/>
		<path d="M176.273,205.375c-1.01,1.256-2.63,1.884-4.861,1.884s-3.854-0.63-4.869-1.892c-1.015-1.261-1.521-3.219-1.521-5.873
			v-21.533h4.408v21.451c0,1.524,0.071,2.451,0.214,2.78s0.315,0.628,0.519,0.896s0.622,0.403,1.259,0.403
			c0.636,0,1.091-0.187,1.365-0.56c0.273-0.373,0.441-0.836,0.501-1.39c0.061-0.554,0.091-1.265,0.091-2.131v-21.451h4.409v21.533
			C177.787,202.159,177.282,204.12,176.273,205.375z"/>
		<path d="M187.788,193.325l-1.414-0.065v13.67h-4.409v-28.952h7.288c1.513,0,2.643,0.305,3.389,0.913
			c0.745,0.608,1.236,1.459,1.472,2.55c0.236,1.091,0.354,2.517,0.354,4.277s-0.187,3.101-0.559,4.021
			c-0.373,0.922-1.064,1.541-2.073,1.859c0.998,0.175,1.694,0.85,2.09,2.023c0.395,1.173,0.592,3.616,0.592,7.328
			c0,3.713,0.055,5.706,0.164,5.979h-4.408c-0.109-0.219-0.164-3.679-0.164-10.38c0-1.283-0.154-2.136-0.461-2.558
			C189.34,193.569,188.721,193.348,187.788,193.325z M186.391,189.838h1.76c0.56,0,0.973-0.126,1.242-0.378s0.455-0.686,0.56-1.3
			c0.104-0.614,0.156-1.552,0.156-2.812v-0.182c0-1.567-0.132-2.593-0.396-3.076c-0.263-0.482-0.871-0.724-1.826-0.724h-1.496
			V189.838z"/>
		<path d="M209.503,205.17c-1.009,1.393-2.624,2.089-4.845,2.089s-3.85-0.699-4.886-2.098c-1.036-1.397-1.555-3.506-1.555-6.324
			v-13.243c0-5.308,2.166-7.962,6.498-7.962c2.237,0,3.847,0.675,4.828,2.023c0.981,1.35,1.473,3.329,1.473,5.938v13.243
			C211.017,201.666,210.512,203.777,209.503,205.17z M203.046,202.439c0.258,0.669,0.787,1.003,1.588,1.003
			c0.8,0,1.326-0.343,1.579-1.028c0.252-0.685,0.378-1.861,0.378-3.528v-13.489c0-1.371-0.129-2.371-0.387-3.002
			s-0.762-0.946-1.513-0.946c-0.752,0-1.278,0.315-1.579,0.946c-0.302,0.631-0.453,1.626-0.453,2.985v13.506
			C202.659,200.586,202.788,201.771,203.046,202.439z"/>
		<path d="M74.632,238.789c-1.066,0-1.933-0.087-2.598-0.26s-1.229-0.49-1.688-0.95s-0.784-1.084-0.971-1.873
			c-0.187-0.788-0.28-1.807-0.28-3.056v-14.506c0-1.248,0.094-2.267,0.28-3.056c0.187-0.788,0.511-1.412,0.971-1.873
			c0.46-0.46,1.023-0.776,1.688-0.95c0.665-0.173,1.531-0.26,2.598-0.26v2.734c-0.812,0-1.331,0.212-1.559,0.636
			s-0.342,1.329-0.342,2.714v14.615c0,1.386,0.114,2.29,0.342,2.714s0.747,0.636,1.559,0.636V238.789z"/>
		<path d="M87.894,219.047c0,2.589-0.702,4.18-2.105,4.771c1.714,0.574,2.57,2.466,2.57,5.674v0.615
			c-0.019,2.416-0.439,4.156-1.265,5.223s-2.172,1.6-4.04,1.6h-5.318v-24.062h5.209c1.796,0,3.067,0.417,3.814,1.251
			s1.126,2.231,1.135,4.19V219.047z M81.399,222.602h1.354c0.629,0,1.041-0.2,1.237-0.602c0.196-0.4,0.294-1.226,0.294-2.475v-1.449
			c-0.009-0.93-0.137-1.552-0.383-1.866s-0.67-0.472-1.271-0.472H81.4L81.399,222.602L81.399,222.602z M81.399,234.086h1.299
			c0.729,0,1.239-0.25,1.531-0.752c0.292-0.501,0.438-1.398,0.438-2.693V228.7c0-1.221-0.118-2.085-0.355-2.591
			s-0.692-0.759-1.367-0.759H81.4v8.736H81.399z"/>
		<path d="M96.056,225.623l-1.176-0.055v11.361h-3.664v-24.062h6.057c1.258,0,2.196,0.253,2.816,0.759s1.027,1.213,1.224,2.119
			c0.196,0.907,0.294,2.092,0.294,3.555s-0.155,2.577-0.465,3.343s-0.884,1.281-1.723,1.545c0.829,0.146,1.408,0.707,1.736,1.682
			c0.328,0.976,0.492,3.006,0.492,6.091c0,3.086,0.046,4.742,0.137,4.97H98.12c-0.091-0.182-0.137-3.058-0.137-8.627
			c0-1.066-0.128-1.774-0.383-2.126C97.346,225.826,96.83,225.642,96.056,225.623z M94.894,222.725h1.463
			c0.465,0,0.809-0.104,1.032-0.314c0.224-0.209,0.378-0.569,0.465-1.08c0.087-0.51,0.13-1.289,0.13-2.338v-0.15
			c0-1.303-0.109-2.155-0.328-2.557c-0.219-0.4-0.725-0.602-1.518-0.602h-1.244L94.894,222.725L94.894,222.725z"/>
		<path d="M103.931,236.93l3.432-24.062h4.84l3.65,24.062h-3.418l-0.574-4.293h-3.883l-0.52,4.293H103.931z M111.478,229.697
			l-1.613-12.086h-0.055l-1.477,12.086H111.478z"/>
		<path d="M117.89,230.162v-2.146h3.473v2.42c0,1.34,0.114,2.281,0.342,2.823c0.228,0.543,0.656,0.813,1.285,0.813
			s1.046-0.223,1.251-0.67c0.205-0.446,0.308-1.176,0.308-2.188s-0.183-1.894-0.547-2.646s-0.943-1.538-1.736-2.358l-1.777-1.832
			c-0.829-0.865-1.475-1.764-1.935-2.693s-0.69-2.005-0.69-3.227c0-1.986,0.383-3.463,1.148-4.43
			c0.766-0.966,2.083-1.449,3.951-1.449s3.133,0.563,3.794,1.688c0.661,1.126,0.991,2.769,0.991,4.929v1.49h-3.377v-1.723
			c0-1.166-0.101-2.003-0.301-2.509s-0.586-0.759-1.155-0.759s-0.979,0.191-1.23,0.574s-0.376,0.957-0.376,1.723
			s0.128,1.377,0.383,1.832c0.255,0.456,0.716,1.039,1.381,1.75l1.982,2.146c0.993,1.076,1.743,2.165,2.249,3.268
			c0.506,1.104,0.759,2.307,0.759,3.609c0,2.252-0.378,3.915-1.135,4.99c-0.757,1.076-2.08,1.613-3.972,1.613
			s-3.208-0.599-3.951-1.798C118.261,234.207,117.89,232.459,117.89,230.162z"/>
		<path d="M130.878,236.93v-24.062h3.664v24.062H130.878z"/>
		<path d="M138.288,236.93v-24.062h3.664v20.945h4.635v3.117H138.288z"/>
		<path d="M148.829,236.93v-24.062h3.664v24.062H148.829z"/>
		<path d="M156.239,236.93v-24.062h8.066v3.158h-4.402v7h4.184v3.09h-4.184v7.656h4.566v3.158L156.239,236.93L156.239,236.93z"/>
		<path d="M167.396,236.93v-24.062h2.871l5.1,14.438l-0.26-6.562v-7.875h3.295v24.062h-2.598l-5.236-14.943l0.205,6.316v8.627
			h-3.377V236.93z"/>
		<path d="M181.382,238.789v-2.734c0.812,0,1.331-0.212,1.559-0.636s0.342-1.328,0.342-2.714V218.09c0-1.385-0.114-2.29-0.342-2.714
			s-0.747-0.636-1.559-0.636v-2.734c1.066,0,1.933,0.087,2.598,0.26c0.665,0.174,1.226,0.49,1.682,0.95
			c0.456,0.461,0.777,1.085,0.964,1.873c0.187,0.789,0.28,1.808,0.28,3.056v14.506c0,1.249-0.094,2.268-0.28,3.056
			c-0.187,0.789-0.508,1.413-0.964,1.873s-1.017,0.777-1.682,0.95S182.448,238.789,181.382,238.789z"/>
	</g>
</g>
<g>
	<path fill="#FFFFFF" d="M192,10.3c-17.1,0-32.4,8-42.3,20.6h-0.3v0.3c-7.1,9.1-11.4,20.6-11.4,33c0,29.7,24.2,53.9,53.9,53.9
		s53.9-24.2,53.9-53.9S221.7,10.3,192,10.3z"/>
	<path d="M192,10.3c-17.1,0-32.4,8-42.3,20.6h-0.3v0.3c-7.1,9.1-11.4,20.6-11.4,33c0,29.7,24.2,53.9,53.9,53.9s53.9-24.2,53.9-53.9
		S221.7,10.3,192,10.3z M208.6,100.9l-23.1-3L183.7,78l17.6-10.7L217,82.4L208.6,100.9z M171.2,103.3L151.9,89l-2.1-14.7l11.8-7.4
		L181.5,78l1.9,20.2L171.2,103.3z M149.1,72.2L142,57.4l9.3-15.3l9.7,2l-0.2,20.8L149.1,72.2z M188.3,19l21.3,2.9l7.3,13.6
		l-16.1,7.9l-16.5-11.5L188.3,19z M231.4,74.4l-12.6,6.7l-16.9-16.2l0.2-19.7l16-7.9L232.3,50L231.4,74.4z M233.5,74.9l1-24.5
		l7.1-0.9c1.4,4.7,2.1,9.6,2.1,14.7c0,4.6-0.6,9-1.7,13.2L233.5,74.9z M240.9,47.4l-7.1,0.9l-14.6-13.1L212,21.9l6.1-2.4
		C228.7,25.7,236.9,35.6,240.9,47.4z M178.8,14.2l7.4,4.1L182,32.1L162.3,42l-10.5-2.1l-0.2-8.1C158.5,23.4,167.9,17,178.8,14.2z
		 M149.7,40.5l-8.5,14.1c1.4-7.3,4.3-14.1,8.4-20L149.7,40.5z M140.5,59.2l7.1,14.9l2.1,14.8l-2.9,0.4c-4.1-7.4-6.5-16-6.5-25.1
		C140.3,62.5,140.4,60.8,140.5,59.2z M172.4,112.1l-0.2-6.8l12.5-5.3l23.9,3.1l4.4,8.4c-6.4,2.9-13.5,4.5-21,4.5
		C185.1,115.9,178.5,114.5,172.4,112.1z"/>
</g>
<g>
	<g>
		<path fill="#6DA544" d="M191.3,106.3c22.6,0,41-18.3,41-41c0-22.6-18.3-41-41-41c-22.6,0-41,18.3-41,41
			C150.3,87.9,168.7,106.3,191.3,106.3"/>
		<polygon fill="#FFDA44" points="191.3,40.4 225.1,65.3 191.3,90.3 157.5,65.3 		"/>
		<path fill="#F0F0F0" d="M191.3,79.6c7.9,0,14.2-6.4,14.2-14.2s-6.4-14.2-14.2-14.2c-7.9,0-14.2,6.4-14.2,14.2
			S183.4,79.6,191.3,79.6"/>
		<path fill="#0052B4" d="M184.2,64.4c-2.5,0-4.9,0.4-7.1,1.1c0.1,7.8,6.4,14.1,14.2,14.1c4.8,0,9.1-2.4,11.7-6.1
			C198.6,68,191.8,64.4,184.2,64.4"/>
		<path fill="#0052B4" d="M205.3,68.1c0.2-0.9,0.3-1.8,0.3-2.7c0-7.9-6.4-14.2-14.2-14.2c-5.9,0-10.9,3.6-13.1,8.6
			c1.9-0.4,3.9-0.6,6-0.6C192.5,59.1,199.9,62.5,205.3,68.1"/>
	</g>
	<ellipse fill="none" stroke="#000000" stroke-miterlimit="10" cx="191.6" cy="65.2" rx="40.8" ry="40.6"/>
</g>
</svg>
