<?xml version="1.0" encoding="utf-8"?>
<!-- Generator: Adobe Illustrator 17.0.0, SVG Export Plug-In . SVG Version: 6.00 Build 0)  -->
<!DOCTYPE svg PUBLIC "-//W3C//DTD SVG 1.1//EN" "http://www.w3.org/Graphics/SVG/1.1/DTD/svg11.dtd">
<svg version="1.1" id="Layer_1" xmlns="http://www.w3.org/2000/svg" xmlns:xlink="http://www.w3.org/1999/xlink" x="0px" y="0px"
	 width="256px" height="256px" viewBox="0 0 256 256" enable-background="new 0 0 256 256" xml:space="preserve">
<path fill="#FFFFFF" d="M192.1,10.3c-17.1,0-32.4,8-42.3,20.6h-0.3v0.3c-7.1,9.1-11.4,20.6-11.4,33c0,29.7,24.2,53.9,53.9,53.9
	s54-24.2,54-53.9S221.9,10.3,192.1,10.3z"/>
<path d="M192,10.3c-17.1,0-32.4,8-42.3,20.6h-0.3v0.3c-7.1,9.1-11.4,20.6-11.4,33c0,29.7,24.2,53.9,53.9,53.9s53.9-24.2,53.9-53.9
	S221.7,10.3,192,10.3z M208.6,100.9l-23.1-3L183.7,78l17.6-10.7L217,82.4L208.6,100.9z M171.2,103.3L151.9,89l-2.1-14.7l11.8-7.4
	L181.5,78l1.9,20.2L171.2,103.3z M149.1,72.2L142,57.4l9.3-15.3l9.7,2l-0.2,20.8L149.1,72.2z M188.3,19l21.3,2.9l7.3,13.6l-16.1,7.9
	l-16.5-11.5L188.3,19z M231.4,74.4l-12.6,6.7l-16.9-16.2l0.2-19.7l16-7.9L232.3,50L231.4,74.4z M233.5,74.9l1-24.5l7.1-0.9
	c1.4,4.7,2.1,9.6,2.1,14.7c0,4.6-0.6,9-1.7,13.2L233.5,74.9z M240.9,47.4l-7.1,0.9l-14.6-13.1L212,21.9l6.1-2.4
	C228.7,25.7,236.9,35.6,240.9,47.4z M178.8,14.2l7.4,4.1L182,32.1L162.3,42l-10.5-2.1l-0.2-8.1C158.5,23.4,167.9,17,178.8,14.2z
	 M149.7,40.5l-8.5,14.1c1.4-7.3,4.3-14.1,8.4-20L149.7,40.5z M140.5,59.2l7.1,14.9l2.1,14.8l-2.9,0.4c-4.1-7.4-6.5-16-6.5-25.1
	C140.3,62.5,140.4,60.8,140.5,59.2z M172.4,112.1l-0.2-6.8l12.5-5.3l23.9,3.1l4.4,8.4c-6.4,2.9-13.5,4.5-21,4.5
	C185.1,115.9,178.5,114.5,172.4,112.1z"/>
<g>
	<path fill="#FCFF00" stroke="#000000" stroke-miterlimit="10" d="M181.5,122.5v-7.2c0-0.7,0.8-1.9,0-1.9h-7.7c-0.5,0-1,0.6-1.2,1
		c-1.1,2.4-2.9,4.5-4.2,5.6c0.4-2.5,0.5-4.1,0.5-4.1c1.5-0.4,0.2-1.6,0.2-1.6H89c0,0-1.3,1.2,0.2,1.6c0,0,0,1.6,0.5,4.1
		c-1.3-1.2-3.1-3.3-4.2-5.8c-0.2-0.5-0.7-1-1.2-1h-7.7c-0.7,0-3.1,1.1-3.1,1.9v7.2c0,0.1,0.7,0.5,0.7,0.6
		c0.3,18.7,19,27.4,20.5,28.2s3.4,2.8,3.4,2.8c0,0.7-1.9,3.3,0.2,4.1c2.1,0.9,2.3-2,2.1-3.3c-0.2-1.1-0.9-3.4-3-4.9l4.4-5.7
		c4.7,4.7,11.3,8.6,20.3,10.8c0,0.8-0.3,2.2-0.3,2.2s-2.4,0.3-2.4,2.3s2.6,2.9,4.6,2.9c0,1.3-2.1,11.4,0.8,16.4
		c0.2,0.4-0.3,1.6-1.6,2.3c-1.3,0.7-2.7,3.2,0,4.6c0.1,0.1,0,1.1,0,1.1s-4.7,0.9-6.1,9.5s-4.5,15.1-6,15.9c-1.6,0-3.1,0.2-3.1,0.2
		s-0.3,2.6-3.3,3.6c0,2.3,0,26.3,0,26.3h-1.8c0,0-3.3-1-3.3,6.4c0,1.9,0.7,2.6,1.7,3.6c1.7,0,54,0,55.8,0c1.1-1,1.7-1.7,1.7-3.6
		c0-7.4-3.3-6.4-3.3-6.4h-3.9c0,0,0-24,0-26.3c-2-1-2.3-3.6-2.3-3.6s-0.8-0.2-2.4-0.2c-1.5-0.8-4.4-7.3-5.8-15.9
		c-1.4-8.6-6-9.5-6-9.5s-0.1-1,0-1.1c2.7-1.4,1.3-3.9,0-4.6c-1.3-0.7-1.8-1.9-1.6-2.3c2.8-5,0.8-15.1,0.8-16.4c2,0,4.6-1,4.6-2.9
		c0-2-2.4-2.3-2.4-2.3s-0.3-1.4-0.3-2.2c9-2.1,15.5-6.1,20.3-10.8l4.4,5.7c-2.1,1.5-2.8,3.7-3,4.9c-0.2,1.3,0,4.1,2.1,3.3
		c2.1-0.9,0.1-3.5,0.1-4.1c0,0,1.6-2.1,3.2-2.8c1.5-0.8,18.3-8.7,18.7-27.4C181.7,123.9,181.5,122.6,181.5,122.5z M95.1,149.2
		c-4.1-2.4-17.6-12.7-17.6-27.6c0-3.2,0-4.1,0-4.1h6c2.3,4,6.2,6.6,6.4,6.7c0.2,0.1,0.4,0,0.6,0c1.3,5.4,3.9,12.6,9.8,18.9
		L95.1,149.2z M177.5,121.6c0,14.9-12,25.1-16.1,27.6l-4.3-6.1c5.8-6.4,8.9-13.7,10.3-19c0.2,0,0.5,0.3,0.7,0.2
		c0.2-0.1,4.2-2.7,6.5-6.7h2.9C177.5,117.5,177.5,118.4,177.5,121.6z"/>
	<path fill="#FFFFFF" d="M152.3,116h-30.7c0,0,0.3,8.1,6.5,10.5c5.8,2.2,14.4,2,18.7-0.2C151.4,123.9,152.3,116,152.3,116z"/>
	<rect x="127" y="156" fill="#FFFFFF" width="4" height="2"/>
	<rect x="127" y="159" fill="#FFFFFF" width="6" height="1"/>
	<path fill="#FFFFFF" d="M131,174.8c0,0-0.4,1.7-2,1.7c-1.6,0-2-1.7-2-1.7V163h4V174.8z"/>
	<rect x="127" y="184" fill="#FFFFFF" width="4" height="1"/>
	<path fill="#FFFFFF" d="M136.2,211.3c-2.5,0-8,0-10.7,0c3.3,0,1.3-20.2,2.1-21.5c0.9-1.3,5.3-1.4,6.2,0
		C134.7,191.2,138.7,211.3,136.2,211.3z"/>
	<path fill="#FFFFFF" d="M125,212.4v4.6c0,0,11.8,0,13.6,0c1.9,0,1.5-4-1.3-4S125,212.4,125,212.4z"/>
	<rect x="140" y="217" fill="#ABD100" width="7" height="25"/>
	<rect x="107" y="217" fill="#FF9F00" width="4" height="25"/>
	<rect x="127" y="179" fill="#FFFFFF" width="4" height="1"/>
	<path fill="#ABD100" d="M132.3,163.7c0,0,0.1,10,0.1,11.1c0,0.9-0.5,2.5-1.1,3.3c-0.6,0.7,0.4,1.4,0.9,1c0.5-0.5,1.2-2.1,1.1-4.1
		C133.3,171.2,132.3,163.7,132.3,163.7z"/>
	<path fill="#ABD100" d="M133.1,182.9c0,0,0.7,1.3-1.1,1.6c0.2,0.2-0.2,0.8,1.1,0.7C134.3,185.2,135.3,183.1,133.1,182.9z"/>
	<path fill="#ABD100" d="M134.6,159.1c0,0,0.7,1.9-1.7,2.1c2.6,0,4.1-0.8,3.9-1.9C136.6,158.3,135.2,159.2,134.6,159.1z"/>
	<path fill="#ABD100" d="M133.1,148.4c0,0,34-7.8,33.8-31.9c0.2,0.2,1,0,1,0s-0.5,26.3-30.5,37.7c0-0.7-6.4-1.5-6.4-1.5
		S129.5,149.3,133.1,148.4z"/>
	<g>
		<path fill="#ABD100" d="M160.9,149.3c-0.1,0-0.2-0.1-0.2-0.1l-3.7-5c-0.1-0.1-0.1-0.3,0.1-0.5c0.1-0.1,0.4-0.1,0.5,0.1l3.7,5
			c0.1,0.1,0.1,0.3-0.1,0.5C161.1,149.3,161,149.3,160.9,149.3z"/>
	</g>
	<g>
		<path fill="#FF9F00" d="M96.8,149.8c-0.1,0-0.2,0-0.2-0.1c-0.1-0.1-0.2-0.3,0-0.5l4.1-5.4c0.1-0.1,0.3-0.2,0.5,0
			c0.1,0.1,0.2,0.3,0,0.5l-4.1,5.4C97,149.8,96.9,149.8,96.8,149.8z"/>
	</g>
	<path fill="#FF9F00" d="M125.7,163.7c0,0-0.1,10-0.1,11.1c0,0.9,0.5,2.5,1.1,3.3c0.6,0.7-0.4,1.4-0.9,1c-0.5-0.5-1.2-2.1-1.1-4.1
		C124.7,171.2,125.7,163.7,125.7,163.7z"/>
	<path fill="#FF9F00" d="M124.9,182.9c0,0-0.7,1.3,1.1,1.6c-0.2,0.2,0.2,0.8-1.1,0.7C123.7,185.2,122.7,183.1,124.9,182.9z"/>
	<path fill="#FF9F00" d="M123.4,159.1c0,0-0.7,1.9,1.7,2.1c-2.6,0-4.1-0.8-3.9-1.9C121.4,158.3,122.7,159.2,123.4,159.1z"/>
	<path fill="#FF9F00" d="M124.9,148.4c0,0-34-7.8-33.8-31.9c-0.2,0.2-1,0-1,0s0.5,26.3,30.5,37.7c0-0.7,6.4-1.5,6.4-1.5
		S128.5,149.3,124.9,148.4z"/>
	<line fill="none" stroke="#957E78" stroke-miterlimit="10" x1="122" y1="156.5" x2="136" y2="156.5"/>
	<line fill="none" stroke="#957E78" stroke-miterlimit="10" x1="123" y1="162.5" x2="133" y2="162.5"/>
	<line fill="none" stroke="#957E78" stroke-miterlimit="10" x1="123" y1="187.5" x2="134" y2="187.5"/>
	<line fill="none" stroke="#957E78" stroke-miterlimit="10" x1="110" y1="211.5" x2="147" y2="211.5"/>
	<line fill="none" stroke="#957E78" stroke-miterlimit="10" x1="104" y1="217.5" x2="151" y2="217.5"/>
	<line fill="none" stroke="#957E78" stroke-miterlimit="10" x1="104" y1="242.5" x2="151" y2="242.5"/>
	<line fill="none" stroke="#957E78" stroke-miterlimit="10" x1="121" y1="158.5" x2="137" y2="158.5"/>
</g>
<g>
	<path fill="#FFDA44" d="M232.5,65.5c0-5-0.9-9.8-2.5-14.2l-38.4-1.8l-38.4,1.8c-1.6,4.4-2.5,9.2-2.5,14.2s0.9,9.8,2.5,14.2
		l38.4,1.8l38.4-1.8C231.6,75.3,232.5,70.5,232.5,65.5"/>
	<path fill="#6DA544" d="M191.5,106.4c17.6,0,32.6-11.1,38.4-26.7h-76.8C158.9,95.3,173.9,106.4,191.5,106.4"/>
	<path fill="#D80027" d="M153.1,51.2h76.8c-5.8-15.6-20.8-26.7-38.4-26.7S158.9,35.6,153.1,51.2"/>
</g>
<g>
	<ellipse fill="none" stroke="#000000" stroke-miterlimit="10" cx="191.6" cy="65.2" rx="40.8" ry="40.6"/>
</g>
<g>
	<g>
		<path fill="none" stroke="#FFFF00" stroke-width="3" d="M42.583,153.401c0,3.115-0.845,5.029-2.534,5.741
			c2.062,0.691,3.093,2.967,3.093,6.827v0.74c-0.022,2.906-0.529,5.001-1.521,6.284c-0.993,1.283-2.613,1.925-4.861,1.925h-6.4
			v-28.952h6.268c2.16,0,3.69,0.501,4.589,1.505c0.899,1.003,1.354,2.684,1.366,5.042C42.583,152.513,42.583,153.401,42.583,153.401
			z M34.769,157.679h1.628c0.757,0,1.253-0.241,1.489-0.724s0.354-1.475,0.354-2.978v-1.744c-0.011-1.118-0.164-1.866-0.46-2.245
			c-0.296-0.378-0.806-0.567-1.53-0.567h-1.48L34.769,157.679L34.769,157.679z M34.769,171.497h1.562
			c0.877,0,1.492-0.302,1.843-0.904c0.351-0.604,0.526-1.684,0.526-3.241v-2.336c0-1.47-0.143-2.509-0.428-3.117
			s-0.833-0.913-1.645-0.913h-1.859v10.511H34.769z"/>
		<path fill="none" stroke="#FFFF00" stroke-width="3" d="M57.502,173.158c-1.009,1.394-2.624,2.09-4.844,2.09
			c-2.221,0-3.85-0.699-4.886-2.098c-1.037-1.398-1.555-3.507-1.555-6.325v-13.242c0-5.308,2.166-7.962,6.498-7.962
			c2.237,0,3.847,0.674,4.828,2.023s1.473,3.328,1.473,5.938v13.242C59.016,169.654,58.511,171.766,57.502,173.158z M51.046,170.428
			c0.257,0.669,0.787,1.004,1.587,1.004c0.8,0,1.327-0.343,1.579-1.028s0.378-1.861,0.378-3.528v-13.489
			c0-1.371-0.129-2.372-0.387-3.003c-0.258-0.63-0.762-0.945-1.513-0.945s-1.278,0.315-1.579,0.945
			c-0.302,0.631-0.453,1.626-0.453,2.986v13.506C50.659,168.574,50.788,169.759,51.046,170.428z"/>
		<path fill="none" stroke="#FFFF00" stroke-width="3" d="M63.014,174.919v-28.952h4.409v25.201H73v3.751L63.014,174.919
			L63.014,174.919z"/>
		<path fill="none" stroke="#FFFF00" stroke-width="3" d="M75.697,174.919v-28.952h4.409v28.952H75.697z"/>
		<path fill="none" stroke="#FFFF00" stroke-width="3" d="M87.853,174.919l-4.491-28.952h4.195l1.892,13.077l1.168,9.213h0.115
			l1.003-9.213l1.579-13.077h4.113l-4.129,28.952H87.853z"/>
		<path fill="none" stroke="#FFFF00" stroke-width="3" d="M100.668,174.919v-28.952h4.409v28.952H100.668z"/>
		<path fill="none" stroke="#FFFF00" stroke-width="3" d="M108.268,174.919l4.129-28.952h5.823l4.393,28.952H118.5l-0.691-5.166
			h-4.672l-0.625,5.166H108.268z M117.349,166.217l-1.941-14.542h-0.065l-1.777,14.542L117.349,166.217L117.349,166.217z"/>
		<path fill="none" stroke="#FFFF00" stroke-width="3" d="M125.639,174.919v-28.952h3.455l6.136,17.371l-0.312-7.896v-9.475h3.965
			v28.952h-3.126l-6.3-17.98l0.247,7.601v10.38h-4.065V174.919z"/>
		<path fill="none" stroke="#FFFF00" stroke-width="3" d="M143.39,174.919v-28.952h4.408v28.952H143.39z"/>
		<path fill="none" stroke="#FFFF00" stroke-width="3" d="M151.729,166.775v-2.582h4.179v2.911c0,1.612,0.137,2.745,0.411,3.397
			s0.79,0.979,1.546,0.979c0.757,0,1.259-0.269,1.506-0.806c0.246-0.537,0.37-1.415,0.37-2.632c0-1.218-0.22-2.278-0.658-3.184
			c-0.438-0.904-1.135-1.851-2.089-2.838l-2.139-2.204c-0.998-1.042-1.774-2.122-2.328-3.24c-0.554-1.119-0.83-2.413-0.83-3.883
			c0-2.391,0.46-4.167,1.382-5.33c0.921-1.162,2.505-1.743,4.754-1.743c2.248,0,3.77,0.677,4.564,2.031s1.192,3.331,1.192,5.931
			v1.793h-4.062v-2.073c0-1.403-0.121-2.409-0.362-3.019c-0.241-0.608-0.705-0.913-1.39-0.913c-0.686,0-1.18,0.23-1.48,0.691
			c-0.302,0.461-0.453,1.151-0.453,2.072c0,0.922,0.154,1.656,0.461,2.205c0.307,0.548,0.861,1.25,1.661,2.105l2.386,2.582
			c1.195,1.295,2.098,2.605,2.706,3.932c0.608,1.327,0.913,2.775,0.913,4.344c0,2.708-0.455,4.71-1.365,6.004
			c-0.911,1.294-2.504,1.941-4.779,1.941s-3.86-0.722-4.754-2.163C152.177,171.643,151.729,169.539,151.729,166.775z"/>
		<path fill="none" stroke="#FFFF00" stroke-width="3" d="M177.918,173.232c-0.998,1.344-2.566,2.016-4.704,2.016
			c-2.139,0-3.737-0.716-4.796-2.147s-1.587-3.489-1.587-6.177v-12.617c0-4.31,1.129-7.002,3.389-8.077
			c0.833-0.395,1.842-0.592,3.026-0.592c4.068,0,6.104,2.565,6.104,7.698v3.981h-4.261v-3.702c0-1.491-0.126-2.558-0.379-3.199
			c-0.252-0.642-0.745-0.962-1.48-0.962c-0.734,0-1.244,0.34-1.529,1.02c-0.285,0.681-0.428,1.722-0.428,3.126v13.521
			c0,1.558,0.137,2.671,0.411,3.34s0.773,1.003,1.497,1.003s1.223-0.34,1.497-1.02c0.273-0.68,0.411-1.804,0.411-3.372v-4.146h4.326
			v4.096C179.415,169.819,178.916,171.89,177.918,173.232z"/>
		<path fill="none" stroke="#FFFF00" stroke-width="3" d="M183.001,174.919v-28.952h4.409v11.712h3.948v-11.712h4.408v28.952h-4.408
			v-13.456h-3.948v13.456H183.001z"/>
		<path fill="none" stroke="#FFFF00" stroke-width="3" d="M200.109,174.919v-28.952h9.706v3.8h-5.297v8.422h5.033v3.718h-5.033
			v9.213h5.494v3.8h-9.903V174.919z"/>
		<path fill="none" stroke="#FFFF00" stroke-width="3" d="M219.356,161.314l-1.415-0.065v13.67h-4.408v-28.952h7.287
			c1.514,0,2.643,0.304,3.389,0.912c0.746,0.609,1.236,1.459,1.473,2.55c0.235,1.092,0.354,2.518,0.354,4.277
			c0,1.761-0.187,3.101-0.56,4.022s-1.063,1.541-2.072,1.858c0.998,0.176,1.694,0.851,2.089,2.023
			c0.395,1.174,0.593,3.616,0.593,7.329c0,3.712,0.055,5.705,0.164,5.979h-4.408c-0.11-0.22-0.165-3.68-0.165-10.38
			c0-1.283-0.153-2.136-0.461-2.559C220.908,161.559,220.288,161.337,219.356,161.314z M217.958,157.827h1.761
			c0.559,0,0.973-0.126,1.241-0.379c0.269-0.252,0.455-0.685,0.56-1.299s0.156-1.552,0.156-2.813v-0.181
			c0-1.568-0.132-2.594-0.395-3.076c-0.264-0.482-0.872-0.724-1.826-0.724h-1.497V157.827z"/>
		<path fill="none" stroke="#FFFF00" stroke-width="3" d="M79.011,208.919v-28.952h5.478l4.112,21.154l3.866-21.154h5.511v28.952
			h-3.932v-10.792l0.165-9.902l-3.899,20.562h-3.504l-4.063-20.562l0.165,9.902v10.792H79.011z"/>
		<path fill="none" stroke="#FFFF00" stroke-width="3" d="M102.337,208.919v-28.952h9.706v3.8h-5.297v8.422h5.034v3.718h-5.034
			v9.213h5.494v3.8h-9.903V208.919z"/>
		<path fill="none" stroke="#FFFF00" stroke-width="3" d="M115.925,208.919v-28.952h4.409v28.952H115.925z"/>
		<path fill="none" stroke="#FFFF00" stroke-width="3" d="M124.266,200.775v-2.582h4.178v2.911c0,1.612,0.137,2.745,0.412,3.397
			s0.79,0.979,1.546,0.979c0.757,0,1.259-0.269,1.506-0.806c0.246-0.537,0.37-1.415,0.37-2.632c0-1.218-0.22-2.278-0.658-3.184
			c-0.438-0.904-1.135-1.851-2.089-2.838l-2.139-2.204c-0.998-1.042-1.774-2.122-2.328-3.24c-0.554-1.119-0.831-2.413-0.831-3.883
			c0-2.391,0.46-4.167,1.382-5.33c0.921-1.162,2.505-1.743,4.754-1.743c2.248,0,3.77,0.677,4.564,2.031s1.192,3.331,1.192,5.931
			v1.793h-4.062v-2.073c0-1.403-0.121-2.409-0.362-3.019c-0.241-0.608-0.705-0.913-1.39-0.913c-0.686,0-1.18,0.23-1.48,0.691
			c-0.302,0.461-0.453,1.151-0.453,2.072c0,0.922,0.154,1.656,0.461,2.205c0.307,0.548,0.861,1.25,1.661,2.105l2.386,2.582
			c1.195,1.295,2.098,2.605,2.706,3.932c0.608,1.327,0.913,2.775,0.913,4.344c0,2.708-0.455,4.71-1.365,6.004
			c-0.911,1.294-2.504,1.941-4.779,1.941c-2.276,0-3.86-0.722-4.754-2.163C124.712,205.643,124.266,203.539,124.266,200.775z"/>
		<path fill="none" stroke="#FFFF00" stroke-width="3" d="M141.21,208.919v-25.136h-3.389v-3.816h11.038v3.816h-3.258v25.136H141.21
			z"/>
		<path fill="none" stroke="#FFFF00" stroke-width="3" d="M151.294,208.919v-28.952h9.705v3.8h-5.297v8.422h5.034v3.718h-5.034
			v9.213h5.494v3.8h-9.902V208.919z"/>
		<path fill="none" stroke="#FFFF00" stroke-width="3" d="M170.54,195.314l-1.414-0.065v13.67h-4.409v-28.952h7.288
			c1.513,0,2.643,0.304,3.389,0.912c0.745,0.609,1.236,1.459,1.472,2.55c0.236,1.092,0.354,2.518,0.354,4.277
			c0,1.761-0.187,3.101-0.559,4.022c-0.373,0.921-1.064,1.541-2.073,1.858c0.998,0.176,1.694,0.851,2.09,2.023
			c0.395,1.174,0.592,3.616,0.592,7.329c0,3.712,0.055,5.705,0.164,5.979h-4.408c-0.109-0.22-0.164-3.68-0.164-10.38
			c0-1.283-0.154-2.136-0.461-2.559C172.092,195.559,171.473,195.337,170.54,195.314z M169.143,191.827h1.76
			c0.56,0,0.973-0.126,1.242-0.379c0.269-0.252,0.455-0.685,0.56-1.299c0.104-0.614,0.156-1.552,0.156-2.813v-0.181
			c0-1.568-0.132-2.594-0.396-3.076c-0.263-0.482-0.871-0.724-1.826-0.724h-1.496V191.827z"/>
		<path fill="none" stroke="#FFFF00" stroke-width="3" d="M33.233,244.778c-1.066,0-1.933-0.087-2.598-0.26
			c-0.666-0.174-1.229-0.49-1.688-0.95c-0.46-0.461-0.784-1.085-0.971-1.873s-0.28-1.807-0.28-3.056v-14.506
			c0-1.249,0.093-2.268,0.28-3.056s0.51-1.413,0.971-1.873c0.46-0.46,1.023-0.777,1.688-0.95c0.665-0.173,1.531-0.26,2.598-0.26
			v2.734c-0.812,0-1.331,0.212-1.559,0.636s-0.342,1.328-0.342,2.714v14.615c0,1.386,0.114,2.29,0.342,2.714
			c0.228,0.424,0.747,0.636,1.559,0.636V244.778z"/>
		<path fill="none" stroke="#FFFF00" stroke-width="3" d="M36.2,242.919v-24.062h5.523c1.868,0,3.146,0.567,3.835,1.702
			c0.688,1.135,1.05,2.828,1.087,5.079v0.506c0,2.388-0.34,4.199-1.019,5.435c-0.679,1.235-1.939,1.853-3.78,1.853h-1.982v9.488
			L36.2,242.919L36.2,242.919z M39.864,230.409h1.258c0.774,0,1.278-0.299,1.511-0.896s0.349-1.734,0.349-3.411v-0.465
			c-0.009-1.422-0.135-2.438-0.376-3.049c-0.242-0.61-0.727-0.916-1.456-0.916h-1.285L39.864,230.409L39.864,230.409z"/>
		<path fill="none" stroke="#FFFF00" stroke-width="3" d="M53.946,231.612l-1.176-0.055v11.361h-3.664v-24.062h6.057
			c1.258,0,2.196,0.253,2.816,0.759s1.027,1.212,1.224,2.119c0.196,0.907,0.294,2.092,0.294,3.555s-0.155,2.577-0.465,3.343
			s-0.884,1.28-1.723,1.545c0.829,0.146,1.408,0.706,1.736,1.682s0.492,3.006,0.492,6.091s0.045,4.742,0.137,4.97H56.01
			c-0.091-0.183-0.137-3.058-0.137-8.627c0-1.066-0.128-1.775-0.383-2.126C55.236,231.815,54.721,231.631,53.946,231.612z
			 M52.784,228.714h1.463c0.465,0,0.809-0.104,1.032-0.314c0.223-0.21,0.378-0.569,0.465-1.08c0.086-0.511,0.13-1.29,0.13-2.338
			v-0.15c0-1.304-0.109-2.155-0.328-2.557s-0.725-0.602-1.518-0.602h-1.244C52.784,221.673,52.784,228.714,52.784,228.714z"/>
		<path fill="none" stroke="#FFFF00" stroke-width="3" d="M63.052,242.919v-24.062h3.664v24.062H63.052z"/>
		<path fill="none" stroke="#FFFF00" stroke-width="3" d="M70.462,242.919v-24.062h4.553l3.418,17.582l3.213-17.582h4.58v24.062
			h-3.268v-8.969l0.137-8.23l-3.24,17.09h-2.912l-3.377-17.09l0.137,8.23v8.969H70.462z"/>
		<path fill="none" stroke="#FFFF00" stroke-width="3" d="M89.849,242.919v-24.062h8.066v3.158h-4.402v7h4.184v3.09h-4.184v7.656
			h4.566v3.158L89.849,242.919L89.849,242.919z"/>
		<path fill="none" stroke="#FFFF00" stroke-width="3" d="M105.845,231.612l-1.176-0.055v11.361h-3.664v-24.062h6.057
			c1.258,0,2.196,0.253,2.816,0.759s1.027,1.212,1.224,2.119c0.196,0.907,0.294,2.092,0.294,3.555s-0.155,2.577-0.465,3.343
			s-0.884,1.28-1.723,1.545c0.829,0.146,1.408,0.706,1.736,1.682s0.492,3.006,0.492,6.091s0.045,4.742,0.137,4.97h-3.664
			c-0.091-0.183-0.137-3.058-0.137-8.627c0-1.066-0.128-1.775-0.383-2.126C107.134,231.815,106.619,231.631,105.845,231.612z
			 M104.683,228.714h1.463c0.465,0,0.809-0.104,1.032-0.314c0.223-0.21,0.378-0.569,0.465-1.08c0.086-0.511,0.13-1.29,0.13-2.338
			v-0.15c0-1.304-0.109-2.155-0.328-2.557s-0.725-0.602-1.518-0.602h-1.244L104.683,228.714L104.683,228.714z"/>
		<path fill="none" stroke="#FFFF00" stroke-width="3" d="M113.72,242.919l3.432-24.062h4.84l3.65,24.062h-3.418l-0.574-4.293
			h-3.883l-0.52,4.293H113.72z M121.267,235.687l-1.613-12.086h-0.055l-1.477,12.086H121.267z"/>
		<path fill="none" stroke="#FFFF00" stroke-width="3" d="M133.161,242.919v-24.062h5.4c1.769,0,3.051,0.521,3.849,1.565
			s1.196,2.582,1.196,4.614l0.014,10.855c0,2.425-0.401,4.202-1.203,5.332s-2.128,1.695-3.979,1.695L133.161,242.919
			L133.161,242.919z M136.825,240.075h1.203c0.675,0,1.164-0.219,1.47-0.656s0.458-1.239,0.458-2.406l-0.014-11.881
			c0-1.249-0.152-2.138-0.458-2.666s-0.832-0.793-1.579-0.793h-1.08V240.075z"/>
		<path fill="none" stroke="#FFFF00" stroke-width="3" d="M147.052,242.919v-24.062h3.664v24.062H147.052z"/>
		<path fill="none" stroke="#FFFF00" stroke-width="3" d="M157.155,242.919l-3.732-24.062h3.486l1.572,10.869l0.971,7.656h0.096
			l0.834-7.656l1.312-10.869h3.418l-3.432,24.062H157.155z"/>
		<path fill="none" stroke="#FFFF00" stroke-width="3" d="M167.806,242.919v-24.062h3.664v24.062H167.806z"/>
		<path fill="none" stroke="#FFFF00" stroke-width="3" d="M174.737,236.151v-2.146h3.473v2.42c0,1.34,0.114,2.281,0.342,2.823
			s0.656,0.813,1.285,0.813s1.046-0.224,1.251-0.67s0.308-1.176,0.308-2.188s-0.183-1.894-0.547-2.646s-0.943-1.538-1.736-2.358
			l-1.777-1.832c-0.829-0.866-1.475-1.764-1.935-2.693s-0.69-2.005-0.69-3.227c0-1.987,0.383-3.464,1.148-4.43
			s2.083-1.449,3.951-1.449s3.133,0.562,3.794,1.688s0.991,2.769,0.991,4.929v1.49h-3.377v-1.723c0-1.167-0.101-2.003-0.301-2.509
			s-0.586-0.759-1.155-0.759s-0.979,0.191-1.23,0.574s-0.376,0.957-0.376,1.723s0.128,1.376,0.383,1.832s0.716,1.039,1.381,1.75
			l1.982,2.146c0.993,1.075,1.743,2.165,2.249,3.268s0.759,2.306,0.759,3.609c0,2.251-0.378,3.915-1.135,4.99
			s-2.08,1.613-3.972,1.613s-3.208-0.6-3.951-1.798S174.737,238.448,174.737,236.151z"/>
		<path fill="none" stroke="#FFFF00" stroke-width="3" d="M187.726,242.919v-24.062h3.664v24.062H187.726z"/>
		<path fill="none" stroke="#FFFF00" stroke-width="3" d="M204.214,241.456c-0.839,1.157-2.181,1.736-4.026,1.736
			s-3.199-0.581-4.061-1.743s-1.292-2.914-1.292-5.257v-11.006c0-4.411,1.8-6.617,5.4-6.617c1.859,0,3.197,0.561,4.013,1.682
			s1.224,2.767,1.224,4.936v11.006C205.472,238.544,205.053,240.299,204.214,241.456z M197.351,216.915v-2.133l6.029-2.625v3.527
			L197.351,216.915z M198.848,239.187c0.214,0.556,0.654,0.834,1.319,0.834s1.103-0.285,1.312-0.854s0.314-1.547,0.314-2.933
			v-11.211c0-1.14-0.107-1.971-0.321-2.495s-0.634-0.786-1.258-0.786s-1.062,0.262-1.312,0.786s-0.376,1.352-0.376,2.481v11.225
			C198.526,237.646,198.634,238.631,198.848,239.187z"/>
		<path fill="none" stroke="#FFFF00" stroke-width="3" d="M208.794,242.919v-24.062h2.871l5.1,14.438l-0.26-6.562v-7.875h3.295
			v24.062h-2.598l-5.236-14.943l0.205,6.316v8.627h-3.377V242.919z"/>
		<path fill="none" stroke="#FFFF00" stroke-width="3" d="M222.78,244.778v-2.734c0.812,0,1.331-0.212,1.559-0.636
			s0.342-1.328,0.342-2.714v-14.615c0-1.386-0.114-2.29-0.342-2.714s-0.747-0.636-1.559-0.636v-2.734
			c1.066,0,1.933,0.087,2.598,0.26s1.226,0.49,1.682,0.95s0.777,1.085,0.964,1.873s0.28,1.807,0.28,3.056v14.506
			c0,1.249-0.094,2.268-0.28,3.056s-0.508,1.412-0.964,1.873c-0.456,0.46-1.017,0.776-1.682,0.95
			C224.713,244.691,223.847,244.778,222.78,244.778z"/>
	</g>
	<g>
		<path d="M42.583,153.401c0,3.115-0.845,5.029-2.534,5.741c2.062,0.691,3.093,2.967,3.093,6.827v0.74
			c-0.022,2.906-0.529,5.001-1.521,6.284c-0.993,1.283-2.613,1.925-4.861,1.925h-6.4v-28.952h6.268c2.16,0,3.69,0.501,4.589,1.505
			c0.899,1.003,1.354,2.684,1.366,5.042C42.583,152.513,42.583,153.401,42.583,153.401z M34.769,157.679h1.628
			c0.757,0,1.253-0.241,1.489-0.724s0.354-1.475,0.354-2.978v-1.744c-0.011-1.118-0.164-1.866-0.46-2.245
			c-0.296-0.378-0.806-0.567-1.53-0.567h-1.48L34.769,157.679L34.769,157.679z M34.769,171.497h1.562
			c0.877,0,1.492-0.302,1.843-0.904c0.351-0.604,0.526-1.684,0.526-3.241v-2.336c0-1.47-0.143-2.509-0.428-3.117
			s-0.833-0.913-1.645-0.913h-1.859v10.511H34.769z"/>
		<path d="M57.502,173.158c-1.009,1.394-2.624,2.09-4.844,2.09c-2.221,0-3.85-0.699-4.886-2.098
			c-1.037-1.398-1.555-3.507-1.555-6.325v-13.242c0-5.308,2.166-7.962,6.498-7.962c2.237,0,3.847,0.674,4.828,2.023
			s1.473,3.328,1.473,5.938v13.242C59.016,169.654,58.511,171.766,57.502,173.158z M51.046,170.428
			c0.257,0.669,0.787,1.004,1.587,1.004c0.8,0,1.327-0.343,1.579-1.028s0.378-1.861,0.378-3.528v-13.489
			c0-1.371-0.129-2.372-0.387-3.003c-0.258-0.63-0.762-0.945-1.513-0.945s-1.278,0.315-1.579,0.945
			c-0.302,0.631-0.453,1.626-0.453,2.986v13.506C50.659,168.574,50.788,169.759,51.046,170.428z"/>
		<path d="M63.014,174.919v-28.952h4.409v25.201H73v3.751L63.014,174.919L63.014,174.919z"/>
		<path d="M75.697,174.919v-28.952h4.409v28.952H75.697z"/>
		<path d="M87.853,174.919l-4.491-28.952h4.195l1.892,13.077l1.168,9.213h0.115l1.003-9.213l1.579-13.077h4.113l-4.129,28.952
			H87.853z"/>
		<path d="M100.668,174.919v-28.952h4.409v28.952H100.668z"/>
		<path d="M108.268,174.919l4.129-28.952h5.823l4.393,28.952H118.5l-0.691-5.166h-4.672l-0.625,5.166H108.268z M117.349,166.217
			l-1.941-14.542h-0.065l-1.777,14.542L117.349,166.217L117.349,166.217z"/>
		<path d="M125.639,174.919v-28.952h3.455l6.136,17.371l-0.312-7.896v-9.475h3.965v28.952h-3.126l-6.3-17.98l0.247,7.601v10.38
			h-4.065V174.919z"/>
		<path d="M143.39,174.919v-28.952h4.408v28.952H143.39z"/>
		<path d="M151.729,166.775v-2.582h4.179v2.911c0,1.612,0.137,2.745,0.411,3.397s0.79,0.979,1.546,0.979
			c0.757,0,1.259-0.269,1.506-0.806c0.246-0.537,0.37-1.415,0.37-2.632c0-1.218-0.22-2.278-0.658-3.184
			c-0.438-0.904-1.135-1.851-2.089-2.838l-2.139-2.204c-0.998-1.042-1.774-2.122-2.328-3.24c-0.554-1.119-0.83-2.413-0.83-3.883
			c0-2.391,0.46-4.167,1.382-5.33c0.921-1.162,2.505-1.743,4.754-1.743c2.248,0,3.77,0.677,4.564,2.031s1.192,3.331,1.192,5.931
			v1.793h-4.062v-2.073c0-1.403-0.121-2.409-0.362-3.019c-0.241-0.608-0.705-0.913-1.39-0.913c-0.686,0-1.18,0.23-1.48,0.691
			c-0.302,0.461-0.453,1.151-0.453,2.072c0,0.922,0.154,1.656,0.461,2.205c0.307,0.548,0.861,1.25,1.661,2.105l2.386,2.582
			c1.195,1.295,2.098,2.605,2.706,3.932c0.608,1.327,0.913,2.775,0.913,4.344c0,2.708-0.455,4.71-1.365,6.004
			c-0.911,1.294-2.504,1.941-4.779,1.941s-3.86-0.722-4.754-2.163C152.177,171.643,151.729,169.539,151.729,166.775z"/>
		<path d="M177.918,173.232c-0.998,1.344-2.566,2.016-4.704,2.016c-2.139,0-3.737-0.716-4.796-2.147s-1.587-3.489-1.587-6.177
			v-12.617c0-4.31,1.129-7.002,3.389-8.077c0.833-0.395,1.842-0.592,3.026-0.592c4.068,0,6.104,2.565,6.104,7.698v3.981h-4.261
			v-3.702c0-1.491-0.126-2.558-0.379-3.199c-0.252-0.642-0.745-0.962-1.48-0.962c-0.734,0-1.244,0.34-1.529,1.02
			c-0.285,0.681-0.428,1.722-0.428,3.126v13.521c0,1.558,0.137,2.671,0.411,3.34s0.773,1.003,1.497,1.003s1.223-0.34,1.497-1.02
			c0.273-0.68,0.411-1.804,0.411-3.372v-4.146h4.326v4.096C179.415,169.819,178.916,171.89,177.918,173.232z"/>
		<path d="M183.001,174.919v-28.952h4.409v11.712h3.948v-11.712h4.408v28.952h-4.408v-13.456h-3.948v13.456H183.001z"/>
		<path d="M200.109,174.919v-28.952h9.706v3.8h-5.297v8.422h5.033v3.718h-5.033v9.213h5.494v3.8h-9.903V174.919z"/>
		<path d="M219.356,161.314l-1.415-0.065v13.67h-4.408v-28.952h7.287c1.514,0,2.643,0.304,3.389,0.912
			c0.746,0.609,1.236,1.459,1.473,2.55c0.235,1.092,0.354,2.518,0.354,4.277c0,1.761-0.187,3.101-0.56,4.022
			s-1.063,1.541-2.072,1.858c0.998,0.176,1.694,0.851,2.089,2.023c0.395,1.174,0.593,3.616,0.593,7.329
			c0,3.712,0.055,5.705,0.164,5.979h-4.408c-0.11-0.22-0.165-3.68-0.165-10.38c0-1.283-0.153-2.136-0.461-2.559
			C220.908,161.559,220.288,161.337,219.356,161.314z M217.958,157.827h1.761c0.559,0,0.973-0.126,1.241-0.379
			c0.269-0.252,0.455-0.685,0.56-1.299s0.156-1.552,0.156-2.813v-0.181c0-1.568-0.132-2.594-0.395-3.076
			c-0.264-0.482-0.872-0.724-1.826-0.724h-1.497V157.827z"/>
		<path d="M79.011,208.919v-28.952h5.478l4.112,21.154l3.866-21.154h5.511v28.952h-3.932v-10.792l0.165-9.902l-3.899,20.562h-3.504
			l-4.063-20.562l0.165,9.902v10.792H79.011z"/>
		<path d="M102.337,208.919v-28.952h9.706v3.8h-5.297v8.422h5.034v3.718h-5.034v9.213h5.494v3.8h-9.903V208.919z"/>
		<path d="M115.925,208.919v-28.952h4.409v28.952H115.925z"/>
		<path d="M124.266,200.775v-2.582h4.178v2.911c0,1.612,0.137,2.745,0.412,3.397s0.79,0.979,1.546,0.979
			c0.757,0,1.259-0.269,1.506-0.806c0.246-0.537,0.37-1.415,0.37-2.632c0-1.218-0.22-2.278-0.658-3.184
			c-0.438-0.904-1.135-1.851-2.089-2.838l-2.139-2.204c-0.998-1.042-1.774-2.122-2.328-3.24c-0.554-1.119-0.831-2.413-0.831-3.883
			c0-2.391,0.46-4.167,1.382-5.33c0.921-1.162,2.505-1.743,4.754-1.743c2.248,0,3.77,0.677,4.564,2.031s1.192,3.331,1.192,5.931
			v1.793h-4.062v-2.073c0-1.403-0.121-2.409-0.362-3.019c-0.241-0.608-0.705-0.913-1.39-0.913c-0.686,0-1.18,0.23-1.48,0.691
			c-0.302,0.461-0.453,1.151-0.453,2.072c0,0.922,0.154,1.656,0.461,2.205c0.307,0.548,0.861,1.25,1.661,2.105l2.386,2.582
			c1.195,1.295,2.098,2.605,2.706,3.932c0.608,1.327,0.913,2.775,0.913,4.344c0,2.708-0.455,4.71-1.365,6.004
			c-0.911,1.294-2.504,1.941-4.779,1.941c-2.276,0-3.86-0.722-4.754-2.163C124.712,205.643,124.266,203.539,124.266,200.775z"/>
		<path d="M141.21,208.919v-25.136h-3.389v-3.816h11.038v3.816h-3.258v25.136H141.21z"/>
		<path d="M151.294,208.919v-28.952h9.705v3.8h-5.297v8.422h5.034v3.718h-5.034v9.213h5.494v3.8h-9.902V208.919z"/>
		<path d="M170.54,195.314l-1.414-0.065v13.67h-4.409v-28.952h7.288c1.513,0,2.643,0.304,3.389,0.912
			c0.745,0.609,1.236,1.459,1.472,2.55c0.236,1.092,0.354,2.518,0.354,4.277c0,1.761-0.187,3.101-0.559,4.022
			c-0.373,0.921-1.064,1.541-2.073,1.858c0.998,0.176,1.694,0.851,2.09,2.023c0.395,1.174,0.592,3.616,0.592,7.329
			c0,3.712,0.055,5.705,0.164,5.979h-4.408c-0.109-0.22-0.164-3.68-0.164-10.38c0-1.283-0.154-2.136-0.461-2.559
			C172.092,195.559,171.473,195.337,170.54,195.314z M169.143,191.827h1.76c0.56,0,0.973-0.126,1.242-0.379
			c0.269-0.252,0.455-0.685,0.56-1.299c0.104-0.614,0.156-1.552,0.156-2.813v-0.181c0-1.568-0.132-2.594-0.396-3.076
			c-0.263-0.482-0.871-0.724-1.826-0.724h-1.496V191.827z"/>
		<path d="M33.233,244.778c-1.066,0-1.933-0.087-2.598-0.26c-0.666-0.174-1.229-0.49-1.688-0.95
			c-0.46-0.461-0.784-1.085-0.971-1.873s-0.28-1.807-0.28-3.056v-14.506c0-1.249,0.093-2.268,0.28-3.056s0.51-1.413,0.971-1.873
			c0.46-0.46,1.023-0.777,1.688-0.95c0.665-0.173,1.531-0.26,2.598-0.26v2.734c-0.812,0-1.331,0.212-1.559,0.636
			s-0.342,1.328-0.342,2.714v14.615c0,1.386,0.114,2.29,0.342,2.714c0.228,0.424,0.747,0.636,1.559,0.636V244.778z"/>
		<path d="M36.2,242.919v-24.062h5.523c1.868,0,3.146,0.567,3.835,1.702c0.688,1.135,1.05,2.828,1.087,5.079v0.506
			c0,2.388-0.34,4.199-1.019,5.435c-0.679,1.235-1.939,1.853-3.78,1.853h-1.982v9.488L36.2,242.919L36.2,242.919z M39.864,230.409
			h1.258c0.774,0,1.278-0.299,1.511-0.896s0.349-1.734,0.349-3.411v-0.465c-0.009-1.422-0.135-2.438-0.376-3.049
			c-0.242-0.61-0.727-0.916-1.456-0.916h-1.285L39.864,230.409L39.864,230.409z"/>
		<path d="M53.946,231.612l-1.176-0.055v11.361h-3.664v-24.062h6.057c1.258,0,2.196,0.253,2.816,0.759s1.027,1.212,1.224,2.119
			c0.196,0.907,0.294,2.092,0.294,3.555s-0.155,2.577-0.465,3.343s-0.884,1.28-1.723,1.545c0.829,0.146,1.408,0.706,1.736,1.682
			s0.492,3.006,0.492,6.091s0.045,4.742,0.137,4.97H56.01c-0.091-0.183-0.137-3.058-0.137-8.627c0-1.066-0.128-1.775-0.383-2.126
			C55.236,231.815,54.721,231.631,53.946,231.612z M52.784,228.714h1.463c0.465,0,0.809-0.104,1.032-0.314
			c0.223-0.21,0.378-0.569,0.465-1.08c0.086-0.511,0.13-1.29,0.13-2.338v-0.15c0-1.304-0.109-2.155-0.328-2.557
			s-0.725-0.602-1.518-0.602h-1.244C52.784,221.673,52.784,228.714,52.784,228.714z"/>
		<path d="M63.052,242.919v-24.062h3.664v24.062H63.052z"/>
		<path d="M70.462,242.919v-24.062h4.553l3.418,17.582l3.213-17.582h4.58v24.062h-3.268v-8.969l0.137-8.23l-3.24,17.09h-2.912
			l-3.377-17.09l0.137,8.23v8.969H70.462z"/>
		<path d="M89.849,242.919v-24.062h8.066v3.158h-4.402v7h4.184v3.09h-4.184v7.656h4.566v3.158L89.849,242.919L89.849,242.919z"/>
		<path d="M105.845,231.612l-1.176-0.055v11.361h-3.664v-24.062h6.057c1.258,0,2.196,0.253,2.816,0.759s1.027,1.212,1.224,2.119
			c0.196,0.907,0.294,2.092,0.294,3.555s-0.155,2.577-0.465,3.343s-0.884,1.28-1.723,1.545c0.829,0.146,1.408,0.706,1.736,1.682
			s0.492,3.006,0.492,6.091s0.045,4.742,0.137,4.97h-3.664c-0.091-0.183-0.137-3.058-0.137-8.627c0-1.066-0.128-1.775-0.383-2.126
			C107.134,231.815,106.619,231.631,105.845,231.612z M104.683,228.714h1.463c0.465,0,0.809-0.104,1.032-0.314
			c0.223-0.21,0.378-0.569,0.465-1.08c0.086-0.511,0.13-1.29,0.13-2.338v-0.15c0-1.304-0.109-2.155-0.328-2.557
			s-0.725-0.602-1.518-0.602h-1.244L104.683,228.714L104.683,228.714z"/>
		<path d="M113.72,242.919l3.432-24.062h4.84l3.65,24.062h-3.418l-0.574-4.293h-3.883l-0.52,4.293H113.72z M121.267,235.687
			l-1.613-12.086h-0.055l-1.477,12.086H121.267z"/>
		<path d="M133.161,242.919v-24.062h5.4c1.769,0,3.051,0.521,3.849,1.565s1.196,2.582,1.196,4.614l0.014,10.855
			c0,2.425-0.401,4.202-1.203,5.332s-2.128,1.695-3.979,1.695L133.161,242.919L133.161,242.919z M136.825,240.075h1.203
			c0.675,0,1.164-0.219,1.47-0.656s0.458-1.239,0.458-2.406l-0.014-11.881c0-1.249-0.152-2.138-0.458-2.666
			s-0.832-0.793-1.579-0.793h-1.08V240.075z"/>
		<path d="M147.052,242.919v-24.062h3.664v24.062H147.052z"/>
		<path d="M157.155,242.919l-3.732-24.062h3.486l1.572,10.869l0.971,7.656h0.096l0.834-7.656l1.312-10.869h3.418l-3.432,24.062
			H157.155z"/>
		<path d="M167.806,242.919v-24.062h3.664v24.062H167.806z"/>
		<path d="M174.737,236.151v-2.146h3.473v2.42c0,1.34,0.114,2.281,0.342,2.823s0.656,0.813,1.285,0.813s1.046-0.224,1.251-0.67
			s0.308-1.176,0.308-2.188s-0.183-1.894-0.547-2.646s-0.943-1.538-1.736-2.358l-1.777-1.832c-0.829-0.866-1.475-1.764-1.935-2.693
			s-0.69-2.005-0.69-3.227c0-1.987,0.383-3.464,1.148-4.43s2.083-1.449,3.951-1.449s3.133,0.562,3.794,1.688
			s0.991,2.769,0.991,4.929v1.49h-3.377v-1.723c0-1.167-0.101-2.003-0.301-2.509s-0.586-0.759-1.155-0.759s-0.979,0.191-1.23,0.574
			s-0.376,0.957-0.376,1.723s0.128,1.376,0.383,1.832s0.716,1.039,1.381,1.75l1.982,2.146c0.993,1.075,1.743,2.165,2.249,3.268
			s0.759,2.306,0.759,3.609c0,2.251-0.378,3.915-1.135,4.99s-2.08,1.613-3.972,1.613s-3.208-0.6-3.951-1.798
			S174.737,238.448,174.737,236.151z"/>
		<path d="M187.726,242.919v-24.062h3.664v24.062H187.726z"/>
		<path d="M204.214,241.456c-0.839,1.157-2.181,1.736-4.026,1.736s-3.199-0.581-4.061-1.743s-1.292-2.914-1.292-5.257v-11.006
			c0-4.411,1.8-6.617,5.4-6.617c1.859,0,3.197,0.561,4.013,1.682s1.224,2.767,1.224,4.936v11.006
			C205.472,238.544,205.053,240.299,204.214,241.456z M197.351,216.915v-2.133l6.029-2.625v3.527L197.351,216.915z M198.848,239.187
			c0.214,0.556,0.654,0.834,1.319,0.834s1.103-0.285,1.312-0.854s0.314-1.547,0.314-2.933v-11.211c0-1.14-0.107-1.971-0.321-2.495
			s-0.634-0.786-1.258-0.786s-1.062,0.262-1.312,0.786s-0.376,1.352-0.376,2.481v11.225
			C198.526,237.646,198.634,238.631,198.848,239.187z"/>
		<path d="M208.794,242.919v-24.062h2.871l5.1,14.438l-0.26-6.562v-7.875h3.295v24.062h-2.598l-5.236-14.943l0.205,6.316v8.627
			h-3.377V242.919z"/>
		<path d="M222.78,244.778v-2.734c0.812,0,1.331-0.212,1.559-0.636s0.342-1.328,0.342-2.714v-14.615c0-1.386-0.114-2.29-0.342-2.714
			s-0.747-0.636-1.559-0.636v-2.734c1.066,0,1.933,0.087,2.598,0.26s1.226,0.49,1.682,0.95s0.777,1.085,0.964,1.873
			s0.28,1.807,0.28,3.056v14.506c0,1.249-0.094,2.268-0.28,3.056s-0.508,1.412-0.964,1.873c-0.456,0.46-1.017,0.776-1.682,0.95
			C224.713,244.691,223.847,244.778,222.78,244.778z"/>
	</g>
</g>
</svg>
