<?xml version="1.0" encoding="utf-8"?>
<!-- Generator: Adobe Illustrator 17.0.0, SVG Export Plug-In . SVG Version: 6.00 Build 0)  -->
<!DOCTYPE svg PUBLIC "-//W3C//DTD SVG 1.1//EN" "http://www.w3.org/Graphics/SVG/1.1/DTD/svg11.dtd">
<svg version="1.1" id="Layer_1" xmlns="http://www.w3.org/2000/svg" xmlns:xlink="http://www.w3.org/1999/xlink" x="0px" y="0px"
	 width="256px" height="256px" viewBox="0 0 256 256" enable-background="new 0 0 256 256" xml:space="preserve">
	<polygon fill="#FFFF00" points="128,188.6 53.1,243.2 82,155.1 6.8,100.8 99.5,101 128,12.8 156.5,101 249.2,100.8 174,155.1 
	202.9,243.2 "/>
	<path fill="#FFFFFF" d="M192,10.3c-17.1,0-32.4,8-42.3,20.6h-0.3v0.3c-7.1,9.1-11.4,20.6-11.4,33c0,29.7,24.2,53.9,53.9,53.9
	s53.9-24.2,53.9-53.9S221.7,10.3,192,10.3z"/>
	<path d="M192,10.3c-17.1,0-32.4,8-42.3,20.6h-0.3v0.3c-7.1,9.1-11.4,20.6-11.4,33c0,29.7,24.2,53.9,53.9,53.9s53.9-24.2,53.9-53.9
	S221.7,10.3,192,10.3z M208.6,100.9l-23.1-3L183.7,78l17.6-10.7L217,82.4L208.6,100.9z M171.2,103.3L151.9,89l-2.1-14.7l11.8-7.4
	L181.5,78l1.9,20.2L171.2,103.3z M149.1,72.2L142,57.4l9.3-15.3l9.7,2l-0.2,20.8L149.1,72.2z M188.3,19l21.3,2.9l7.3,13.6l-16.1,7.9
	l-16.5-11.5L188.3,19z M231.4,74.4l-12.6,6.7l-16.9-16.2l0.2-19.7l16-7.9L232.3,50L231.4,74.4z M233.5,74.9l1-24.5l7.1-0.9
	c1.4,4.7,2.1,9.6,2.1,14.7c0,4.6-0.6,9-1.7,13.2L233.5,74.9z M240.9,47.4l-7.1,0.9l-14.6-13.1L212,21.9l6.1-2.4
	C228.7,25.7,236.9,35.6,240.9,47.4z M178.8,14.2l7.4,4.1L182,32.1L162.3,42l-10.5-2.1l-0.2-8.1C158.5,23.4,167.9,17,178.8,14.2z
	 M149.7,40.5l-8.5,14.1c1.4-7.3,4.3-14.1,8.4-20L149.7,40.5z M140.5,59.2l7.1,14.9l2.1,14.8l-2.9,0.4c-4.1-7.4-6.5-16-6.5-25.1
	C140.3,62.5,140.4,60.8,140.5,59.2z M172.4,112.1l-0.2-6.8l12.5-5.3l23.9,3.1l4.4,8.4c-6.4,2.9-13.5,4.5-21,4.5
	C185.1,115.9,178.5,114.5,172.4,112.1z"/>
	<g>
		<path fill="none" stroke="#000000" stroke-width="3" stroke-miterlimit="10" d="M157.6,137"/>
		<path fill="#FF0000" d="M157.6,137"/>
	</g>
	<g>
		<path fill="#FFFFFF" d="M212.905,171.236c19.956-10.568,32.906-32.828,33.62-36.171c0.714-3.342-0.606-4.055-2.984-6.429
		c-2.377-2.374-7.031-0.364-7.031-0.364s-20.771,17.97-30.525,25.091c-9.838,7.235-51.522,19.232-57.116,22.394
		s-44.663,17.094-51.04,25.834c0.103,2.715-1.591,9.641,5.244,5.99C109.908,203.93,179.996,188.494,212.905,171.236z"/>
		<g>
			<path fill="none" stroke="#000000" stroke-width="3" stroke-miterlimit="10" d="M183.298,144.319
			c3.318-0.8,6.028-1.609,8.076-2.118c4.362-1.259,9.386-2.819,16.018-5.126c8.734-3.126,18.358-8.408,21.958-9.351
			c6.325-1.654,12.332-0.024,12.332-0.024c2.956,2.187-20.722,20.996-26.406,25.587c-14.631,11.693-61.092,24.202-94.46,38.394
			c-11.889,5.014-17.019,9.926-17.019,9.926s9.199-3.398,15.721-5.081c14.485-3.885,77.788-18.711,93.912-29.212
			c20.813-13.628,30.943-32.434,30.95-35.771c5.268,7.503,1.903,14.073-1.066,18.562c-2.984,4.39-0.438,6.537-1.675,7.733
			c-0.688,0.811-4.302-0.368-7.265,2.805c-2.963,3.173-3.978,5.853-7.634,9.13c-3.67,3.178-0.552,6.453-2.867,9.226
			c-2.33,2.674-5.147-1.96-8.653,0.283c-3.492,2.342-5.49,3.854-11.608,6.893c-6.019,3.024-2.174,7.1-4.513,8.359
			c-2.211,1.443-6.703-4.255-11.313-1.948s-22.361,14.77-28.46,18.614c-6.197,3.859-0.895,12.267-2.835,14.175
			c-1.237,1.196-5.646-2.593-9.592-2.61c-2.319,0.044-4.5,1.684-6.721,3.735c-5.946,5.54-0.395,10.878-2.957,12.677
			s-4.549-1.342-9.196-2.669c-4.647-1.327-8.461,1.569-13.453-2.74C90.58,213.292,93.864,189.95,93.864,189.95
			c1.579-2.966,2.587-2.308,7.373-1.406c4.771,0.803,12.92,1.202,18.717-3.305c5.698-4.492,11.548-16.085,10.794-21.129
			c-0.754-5.044-2.305-8.654,4.296-9.136c2.7-0.202,10.666-1.696,19.874-3.68l4.208-0.933
			C161.51,149.398,161.51,149.398,183.298,144.319z"/>
			<path fill="#3F9500" d="M183.298,144.319c3.318-0.8,6.028-1.609,8.076-2.118c4.362-1.259,9.386-2.819,16.018-5.126
			c8.734-3.126,18.358-8.408,21.958-9.351c6.325-1.654,12.332-0.024,12.332-0.024c2.956,2.187-20.722,20.996-26.406,25.587
			c-14.631,11.693-61.092,24.202-94.46,38.394c-11.889,5.014-17.019,9.926-17.019,9.926s9.199-3.398,15.721-5.081
			c14.485-3.885,77.788-18.711,93.912-29.212c20.813-13.628,30.943-32.434,30.95-35.771c5.268,7.503,1.903,14.073-1.066,18.562
			c-2.984,4.39-0.438,6.537-1.675,7.733c-0.688,0.811-4.302-0.368-7.265,2.805c-2.963,3.173-3.978,5.853-7.634,9.13
			c-3.67,3.178-0.552,6.453-2.867,9.226c-2.33,2.674-5.147-1.96-8.653,0.283c-3.492,2.342-5.49,3.854-11.608,6.893
			c-6.019,3.024-2.174,7.1-4.513,8.359c-2.211,1.443-6.703-4.255-11.313-1.948s-22.361,14.77-28.46,18.614
			c-6.197,3.859-0.895,12.267-2.835,14.175c-1.237,1.196-5.646-2.593-9.592-2.61c-2.319,0.044-4.5,1.684-6.721,3.735
			c-5.946,5.54-0.395,10.878-2.957,12.677s-4.549-1.342-9.196-2.669c-4.647-1.327-8.461,1.569-13.453-2.74
			C90.58,213.292,93.864,189.95,93.864,189.95c1.579-2.966,2.587-2.308,7.373-1.406c4.771,0.803,12.92,1.202,18.717-3.305
			c5.698-4.492,11.548-16.085,10.794-21.129c-0.754-5.044-2.305-8.654,4.296-9.136c2.7-0.202,10.666-1.696,19.874-3.68l4.208-0.933
			C161.51,149.398,161.51,149.398,183.298,144.319z"/>
		</g>
		<g>
			<g>
				<g>
					<path fill="none" stroke="#1D1D1B" stroke-width="3" d="M155.189,164.6c-0.198,0.03-0.396,0.059-0.608-0.01
					c-1.048-0.248-1.804-1.247-1.655-2.28l2.647-14.754c0.248-1.048,1.247-1.804,2.28-1.655c1.048,0.248,1.804,1.247,1.655,2.28
					l-2.647,14.754C156.697,163.869,155.98,164.482,155.189,164.6z"/>
				</g>
				<g>
					<path fill="none" stroke="#1D1D1B" stroke-width="3" d="M164.214,160.722c-0.198,0.03-0.396,0.059-0.608-0.01
					c-1.048-0.248-1.804-1.247-1.655-2.28l2.072-11.837c0.248-1.048,1.247-1.804,2.28-1.655c1.048,0.248,1.804,1.247,1.655,2.28
					l-2.072,11.837C165.723,159.991,165.006,160.604,164.214,160.722z"/>
				</g>
				<g>
					<path fill="none" stroke="#1D1D1B" stroke-width="3" d="M171.791,157.972c-0.198,0.03-0.396,0.059-0.608-0.01
					c-1.048-0.248-1.804-1.247-1.655-2.28l1.963-11.214c0.248-1.048,1.247-1.804,2.28-1.655c1.048,0.248,1.804,1.247,1.655,2.28
					l-1.963,11.214C173.299,157.24,172.582,157.853,171.791,157.972z"/>
				</g>
				<g>
					<path fill="none" stroke="#1D1D1B" stroke-width="3" d="M180.303,153.362c-0.198,0.03-0.396,0.059-0.608-0.01
					c-1.048-0.248-1.804-1.247-1.655-2.28l1.596-8.934c0.248-1.048,1.247-1.804,2.28-1.655c1.048,0.248,1.804,1.247,1.655,2.28
					l-1.596,8.934C181.811,152.631,181.094,153.243,180.303,153.362z"/>
				</g>
			</g>
			<g>
				<g>
					<path fill="#FFFF00" d="M155.189,164.6c-0.198,0.03-0.396,0.059-0.608-0.01c-1.048-0.248-1.804-1.247-1.655-2.28l2.647-14.754
					c0.248-1.048,1.247-1.804,2.28-1.655c1.048,0.248,1.804,1.247,1.655,2.28l-2.647,14.754
					C156.697,163.869,155.98,164.482,155.189,164.6z"/>
				</g>
				<g>
					<path fill="#FFFF00" d="M164.214,160.722c-0.198,0.03-0.396,0.059-0.608-0.01c-1.048-0.248-1.804-1.247-1.655-2.28l2.072-11.837
					c0.248-1.048,1.247-1.804,2.28-1.655c1.048,0.248,1.804,1.247,1.655,2.28l-2.072,11.837
					C165.723,159.991,165.006,160.604,164.214,160.722z"/>
				</g>
				<g>
					<path fill="#FFFF00" d="M171.791,157.972c-0.198,0.03-0.396,0.059-0.608-0.01c-1.048-0.248-1.804-1.247-1.655-2.28l1.963-11.214
					c0.248-1.048,1.247-1.804,2.28-1.655c1.048,0.248,1.804,1.247,1.655,2.28l-1.963,11.214
					C173.299,157.24,172.582,157.853,171.791,157.972z"/>
				</g>
				<g>
					<path fill="#FFFF00" d="M180.303,153.362c-0.198,0.03-0.396,0.059-0.608-0.01c-1.048-0.248-1.804-1.247-1.655-2.28l1.596-8.934
					c0.248-1.048,1.247-1.804,2.28-1.655c1.048,0.248,1.804,1.247,1.655,2.28l-1.596,8.934
					C181.811,152.631,181.094,153.243,180.303,153.362z"/>
				</g>
			</g>
		</g>
	</g>
	<g>
		<g>
			<ellipse fill="#F0F0F0" cx="191.5" cy="65.2" rx="40.8" ry="40.5"/>
			<path fill="#FFDA44" d="M191.5,24.7c-14.5,0-27.2,7.5-34.4,18.7l55.4,56.5c11.9-7.1,19.9-20,19.9-34.7
			C232.3,42.9,214,24.7,191.5,24.7z"/>
			<path fill="#0052B4" d="M232.3,65.2c0-10.5-4-20.1-10.6-27.3v54.5C228.3,85.3,232.3,75.7,232.3,65.2z"/>
			<path fill="#0052B4" d="M195,98.6l1.3-4l-3.5-2.5h4.3l1.3-4l1.3,4h4.3l-3.5,2.5l1.3,4l-3.5-2.5L195,98.6z M189.6,87.3l-3.5,2.5
			l1.3-4l-3.5-2.5h4.3l1.3-4l1.3,4h4.3l-3.5,2.5l1.3,4L189.6,87.3z M177.4,81l1.3-4l-3.5-2.5h4.3l1.3-4l1.3,4h4.3L183,77l1.3,4
			l-3.5-2.5L177.4,81z M168.6,72.2l1.3-4l-3.5-2.5h4.3l1.3-4l1.3,4h4.3l-3.5,2.5l1.3,4l-3.5-2.5L168.6,72.2z M159.8,63.4l1.3-4
			l-3.5-2.5h4.3l1.3-4l1.3,4h4.3l-3.5,2.5l1.3,4l-3.5-2.5L159.8,63.4z M201.6,100.9h4.3l1.3-4l1.3,4h2.1c1.3-0.7,2.6-1.5,3.8-2.3
			l-56.7-56.2c-0.9,1.4-1.8,2.8-2.6,4.2l0.5,1.5h4.3l-3.5,2.5l1.3,4l-3.5-2.5l-2.1,1.5c-1.1,3.7-1.7,7.5-1.7,11.6
			c0,22.3,18.3,40.5,40.8,40.5c4.8,0,9.3-0.8,13.6-2.3L201.6,100.9z"/>
		</g>
		<ellipse fill="none" stroke="#000000" stroke-width="1.4754" stroke-miterlimit="10" cx="191.6" cy="65.2" rx="40.8" ry="40.6"/>
	</g>
	<g>
		<g>
			<g>
				<path fill="#FFFF00" d="M24.519,133.333H19.22v-20.187h5.221c1.721,0,3.014,0.469,3.842,1.393
				c0.795,0.887,1.185,2.191,1.193,3.987v0.534c0,1.485-0.299,2.537-0.732,3.282c0.708,0.957,1.064,2.354,1.064,4.179v0.439
				c-0.016,2.093-0.414,3.61-1.217,4.648C27.706,132.753,26.335,133.333,24.519,133.333z"/>
			</g>
			<g>
				<path fill="#FFFF00" d="M33.958,133.528c-2.259,0-3.479-1.007-4.105-1.852c-0.819-1.106-1.218-2.626-1.218-4.648v-7.861
				c0-5.62,3.747-6.227,5.357-6.227c2.278,0,3.476,0.989,4.079,1.819c0.781,1.074,1.161,2.516,1.161,4.408v7.861
				c0,2.023-0.387,3.542-1.184,4.64C37.434,132.517,36.225,133.528,33.958,133.528z M33.976,118.207L33.976,118.207L33.976,118.207
				l0.001-1.5L33.976,118.207z M33.977,116.707v1.5h0.001L33.977,116.707z"/>
			</g>
			<g>
				<path fill="#FFFF00" d="M43.381,133.528c-2.365,0-3.534-1.084-4.097-1.994c-0.687-1.106-1.021-2.591-1.021-4.535v-3.033h2.331
				l-0.052-0.053c-0.703-0.734-1.255-1.506-1.649-2.303c-0.431-0.87-0.649-1.869-0.649-2.97c0-1.784,0.375-3.124,1.145-4.096
				c0.843-1.064,2.188-1.604,3.998-1.604c2.364,0,3.482,1.059,4.003,1.947c0.615,1.048,0.915,2.448,0.915,4.28v2.564h-2.01
				c0.664,0.773,1.187,1.57,1.556,2.376c0.45,0.981,0.679,2.06,0.679,3.204c0,1.944-0.354,3.392-1.084,4.427
				C46.61,132.927,45.243,133.528,43.381,133.528z"/>
			</g>
			<g>
				<path fill="#FFFF00" d="M58.304,133.333h-4.419l-1.03-2.939v2.939h-5.412v-20.187h4.612l0.896,2.538v-2.538h5.354v20.187H58.304z
				 M54.236,125.264l1.068,3.048v-3.253L54.236,125.264z M50.443,117.59v3.481l1.153-0.216L50.443,117.59z"/>
			</g>
			<g>
				<rect x="57.98" y="113.146" fill="#FFFF00" width="5.617" height="20.187"/>
			</g>
			<g>
				<path fill="#FFFF00" d="M68.049,133.528c-2.365,0-3.534-1.084-4.097-1.994c-0.687-1.106-1.021-2.591-1.021-4.535v-3.033h2.331
				l-0.052-0.053c-0.703-0.734-1.255-1.506-1.649-2.303c-0.431-0.87-0.649-1.869-0.649-2.97c0-1.784,0.375-3.124,1.145-4.096
				c0.843-1.064,2.188-1.604,3.998-1.604c2.364,0,3.482,1.059,4.003,1.947c0.615,1.048,0.915,2.448,0.915,4.28v2.564h-2.01
				c0.664,0.773,1.187,1.57,1.556,2.376c0.45,0.981,0.679,2.06,0.679,3.204c0,1.944-0.354,3.392-1.084,4.427
				C71.278,132.927,69.911,133.528,68.049,133.528z"/>
			</g>
			<g>
				<path fill="#FFFF00" d="M77.185,133.528c-2.199,0-3.417-1.023-4.053-1.883c-0.82-1.108-1.236-2.643-1.236-4.558v-7.49
				c0-3.175,0.965-5.244,2.867-6.149c0.697-0.33,1.518-0.497,2.441-0.497c1.541,0,5.123,0.591,5.123,6.07v3.863h-4.795v0.33h4.834
				v3.932c0,2.01-0.388,3.508-1.185,4.581C80.572,132.548,79.383,133.528,77.185,133.528z"/>
			</g>
			<g>
				<rect x="81.496" y="113.146" fill="#FFFF00" width="10.578" height="20.187"/>
			</g>
			<g>
				<polygon fill="#FFFF00" points="100.531,133.333 91.652,133.333 91.652,113.146 100.414,113.146 100.414,118.402 97.269,118.402 
				97.269,120.402 100.257,120.402 100.257,125.609 97.269,125.609 97.269,128.077 100.531,128.077 			"/>
			</g>
			<g>
				<path fill="#FFFF00" d="M110.886,133.333H99.621v-20.187h5.826c1.249,0,2.245,0.296,2.96,0.88c0.71,0.58,1.179,1.373,1.392,2.359
				c0.164,0.758,0.244,1.693,0.244,2.856c0,1.25-0.145,2.216-0.441,2.95c-0.079,0.194-0.171,0.376-0.278,0.547
				c0.12,0.209,0.228,0.447,0.319,0.717c0.185,0.548,0.43,1.646,0.43,4.829c0,2.172,0.033,2.904,0.052,3.146L110.886,133.333z
				 M106.34,122.735c0.101,0.068,0.195,0.143,0.282,0.226l-0.025-0.443c-0.013,0.013-0.026,0.026-0.04,0.039
				C106.488,122.621,106.416,122.68,106.34,122.735z"/>
			</g>
			<g>
				<polygon fill="#FFFF00" points="24.73,157.333 19.113,157.333 19.113,137.146 28.011,137.146 28.011,142.421 24.73,142.421 
				24.73,143.991 27.777,143.991 27.777,149.276 24.73,149.276 			"/>
			</g>
			<g>
				<path fill="#FFFF00" d="M32.092,157.528c-1.796,0-3.162-0.566-4.06-1.684c-0.831-1.031-1.234-2.479-1.234-4.426v-14.283h10.578
				v14.283c0,1.953-0.402,3.402-1.229,4.431C35.253,156.964,33.889,157.528,32.092,157.528z"/>
			</g>
			<g>
				<path fill="#FFFF00" d="M41.633,157.528c-2.365,0-3.534-1.084-4.097-1.994c-0.687-1.106-1.021-2.591-1.021-4.535v-3.033h2.331
				l-0.052-0.053c-0.702-0.733-1.255-1.506-1.649-2.304c-0.431-0.87-0.649-1.869-0.649-2.97c0-1.783,0.375-3.123,1.145-4.096
				c0.844-1.064,2.189-1.604,3.998-1.604c2.364,0,3.481,1.059,4.003,1.946c0.616,1.049,0.915,2.449,0.915,4.28v2.564h-2.01
				c0.664,0.773,1.187,1.57,1.556,2.376c0.451,0.982,0.679,2.061,0.679,3.204c0,1.943-0.354,3.393-1.084,4.428
				C44.862,156.927,43.495,157.528,41.633,157.528z"/>
			</g>
			<g>
				<path fill="#FFFF00" d="M50.471,157.528c-2.365,0-3.534-1.084-4.097-1.994c-0.687-1.106-1.021-2.591-1.021-4.535v-3.033h2.331
				l-0.052-0.053c-0.702-0.733-1.255-1.506-1.649-2.304c-0.431-0.87-0.649-1.869-0.649-2.97c0-1.783,0.375-3.123,1.145-4.096
				c0.844-1.064,2.189-1.604,3.998-1.604c2.364,0,3.481,1.059,4.003,1.946c0.616,1.049,0.915,2.449,0.915,4.28v2.564h-2.01
				c0.664,0.773,1.187,1.57,1.556,2.376c0.451,0.982,0.679,2.061,0.679,3.204c0,1.943-0.354,3.393-1.084,4.428
				C53.7,156.927,52.333,157.528,50.471,157.528z"/>
			</g>
			<g>
				<path fill="#FFFF00" d="M59.929,157.333H54.63v-20.188h5.221c1.721,0,3.014,0.469,3.842,1.393
				c0.795,0.888,1.185,2.191,1.193,3.987v0.534c0,1.485-0.299,2.537-0.732,3.282c0.707,0.957,1.064,2.354,1.064,4.179v0.439
				c-0.016,2.094-0.414,3.61-1.217,4.648C63.116,156.753,61.746,157.333,59.929,157.333z"/>
			</g>
			<g>
				<path fill="#FFFF00" d="M75.238,157.333H69.74l-0.41-3.066h-0.131l-0.371,3.066H63.25l2.879-20.188h6.048L75.238,157.333z
				 M68.675,140.534h0.981l-0.059-0.389H68.73L68.675,140.534z"/>
			</g>
			<g>
				<polygon fill="#FFFF00" points="82.718,157.333 73.791,157.333 73.791,137.146 79.408,137.146 79.408,152.106 82.718,152.106 			
				"/>
			</g>
			<g>
				<polygon fill="#FFFF00" points="90.15,157.333 81.222,157.333 81.222,137.146 86.839,137.146 86.839,152.106 90.15,152.106 			
				"/>
			</g>
			<g>
				<polygon fill="#FFFF00" points="97.533,157.333 88.654,157.333 88.654,137.146 97.416,137.146 97.416,142.401 94.271,142.401 
				94.271,144.401 97.259,144.401 97.259,149.608 94.271,149.608 94.271,152.077 97.533,152.077 			"/>
			</g>
			<g>
				<path fill="#FFFF00" d="M107.888,157.333H96.623v-20.188h5.826c1.249,0,2.245,0.296,2.96,0.88
				c0.71,0.579,1.179,1.373,1.392,2.358c0.165,0.76,0.244,1.693,0.244,2.856c0,1.251-0.145,2.216-0.441,2.95
				c-0.079,0.194-0.171,0.377-0.278,0.547c0.12,0.209,0.228,0.446,0.319,0.717c0.185,0.55,0.43,1.647,0.43,4.829
				c0,2.172,0.033,2.904,0.052,3.146L107.888,157.333z M103.342,146.734c0.101,0.068,0.195,0.144,0.282,0.227l-0.024-0.445
				c-0.014,0.015-0.028,0.028-0.043,0.041C103.489,146.621,103.417,146.681,103.342,146.734z"/>
			</g>
			<g>
				<path fill="#FFFF00" d="M24.382,181.333h-5.27v-20.188h5.357c2.178,0,3.345,0.929,3.94,1.707c0.783,1.024,1.163,2.4,1.163,4.207
				l0.01,7.752c0,2.072-0.372,3.603-1.136,4.679C27.852,180.331,26.662,181.333,24.382,181.333z"/>
			</g>
			<g>
				<polygon fill="#FFFF00" points="37.816,181.333 28.937,181.333 28.937,161.146 37.699,161.146 37.699,166.401 34.554,166.401 
				34.554,168.401 37.542,168.401 37.542,173.608 34.554,173.608 34.554,176.077 37.816,176.077 			"/>
			</g>
			<g>
				<path fill="#FFFF00" d="M41.682,181.528c-2.365,0-3.534-1.084-4.097-1.994c-0.687-1.106-1.021-2.591-1.021-4.535v-3.033h2.331
				l-0.052-0.053c-0.702-0.733-1.255-1.506-1.649-2.304c-0.431-0.87-0.649-1.869-0.649-2.97c0-1.783,0.375-3.123,1.145-4.096
				c0.844-1.064,2.189-1.604,3.998-1.604c2.364,0,3.481,1.059,4.003,1.946c0.616,1.049,0.915,2.449,0.915,4.28v2.564h-2.01
				c0.664,0.773,1.187,1.57,1.556,2.376c0.451,0.982,0.679,2.061,0.679,3.204c0,1.943-0.354,3.393-1.084,4.428
				C44.911,180.927,43.543,181.528,41.682,181.528z"/>
			</g>
			<g>
				<path fill="#FFFF00" d="M53.752,181.528c-1.557,0-2.811-0.508-3.725-1.509c-0.879-0.961-1.325-2.303-1.325-3.985v-4.566h4.473
				v-10.322h5.617v14.479c0,1.752-0.424,3.166-1.262,4.2C56.63,180.938,55.324,181.528,53.752,181.528z"/>
			</g>
			<g>
				<path fill="#FFFF00" d="M69.252,181.333h-5.499l-0.41-3.066h-0.131l-0.371,3.066h-5.578l2.879-20.188h6.048L69.252,181.333z
				 M62.688,164.534h0.981l-0.059-0.389h-0.866L62.688,164.534z"/>
			</g>
			<g>
				<rect x="67.804" y="161.146" fill="#FFFF00" width="10.578" height="20.188"/>
			</g>
			<g>
				<path fill="#FFFF00" d="M89.226,181.333H77.96v-20.188h5.826c1.249,0,2.245,0.296,2.96,0.88c0.71,0.579,1.179,1.373,1.392,2.358
				c0.165,0.76,0.244,1.693,0.244,2.856c0,1.251-0.145,2.216-0.441,2.95c-0.079,0.194-0.171,0.377-0.278,0.547
				c0.12,0.209,0.228,0.446,0.319,0.717c0.185,0.55,0.43,1.647,0.43,4.829c0,2.172,0.033,2.904,0.052,3.146L89.226,181.333z
				 M84.68,170.734c0.101,0.068,0.195,0.144,0.282,0.227l-0.024-0.445c-0.014,0.015-0.028,0.028-0.043,0.041
				C84.827,170.621,84.755,170.681,84.68,170.734z"/>
			</g>
			<g>
				<polygon fill="#FFFF00" points="96.703,181.333 87.824,181.333 87.824,161.146 96.585,161.146 96.585,166.401 93.441,166.401 
				93.441,168.401 96.429,168.401 96.429,173.608 93.441,173.608 93.441,176.077 96.703,176.077 			"/>
			</g>
			<g>
				<path fill="#FFFF00" d="M100.569,181.528c-2.365,0-3.534-1.084-4.097-1.994c-0.687-1.106-1.021-2.591-1.021-4.535v-3.033h2.331
				l-0.052-0.053c-0.702-0.733-1.255-1.506-1.649-2.304c-0.431-0.87-0.649-1.869-0.649-2.97c0-1.783,0.375-3.123,1.145-4.096
				c0.844-1.064,2.189-1.604,3.998-1.604c2.364,0,3.481,1.059,4.003,1.946c0.616,1.049,0.915,2.449,0.915,4.28v2.564h-2.01
				c0.664,0.773,1.187,1.57,1.556,2.376c0.451,0.982,0.679,2.061,0.679,3.204c0,1.943-0.354,3.393-1.084,4.428
				C103.798,180.927,102.43,181.528,100.569,181.528z"/>
			</g>
		</g>
		<g>
			<g>
				<path d="M27.976,119.06c0,1.849-0.501,2.985-1.504,3.408c1.224,0.41,1.836,1.761,1.836,4.053v0.439
				c-0.013,1.725-0.314,2.968-0.903,3.73s-1.551,1.143-2.886,1.143H20.72v-17.187h3.721c1.283,0,2.191,0.298,2.725,0.894
				s0.804,1.593,0.811,2.993v0.527H27.976z M23.337,121.599h0.967c0.449,0,0.744-0.143,0.884-0.43s0.21-0.875,0.21-1.768v-1.035
				c-0.006-0.664-0.098-1.108-0.273-1.333s-0.479-0.337-0.908-0.337h-0.879L23.337,121.599L23.337,121.599z M23.337,129.802h0.928
				c0.521,0,0.885-0.179,1.094-0.537c0.208-0.357,0.312-0.999,0.312-1.923v-1.387c0-0.873-0.084-1.489-0.254-1.851
				s-0.495-0.542-0.977-0.542h-1.104L23.337,129.802L23.337,129.802z"/>
			</g>
			<g>
				<path d="M36.833,130.788c-0.599,0.827-1.558,1.24-2.876,1.24s-2.285-0.415-2.9-1.245s-0.923-2.081-0.923-3.754v-7.861
				c0-3.151,1.286-4.727,3.857-4.727c1.328,0,2.284,0.4,2.866,1.201s0.874,1.976,0.874,3.525v7.861
				C37.732,128.708,37.433,129.962,36.833,130.788z M33,129.167c0.153,0.397,0.467,0.596,0.942,0.596s0.788-0.203,0.938-0.61
				c0.15-0.406,0.225-1.104,0.225-2.094v-8.008c0-0.814-0.077-1.408-0.229-1.782s-0.453-0.562-0.898-0.562s-0.758,0.187-0.938,0.562
				s-0.269,0.965-0.269,1.772v8.018C32.771,128.067,32.848,128.771,33,129.167z"/>
			</g>
			<g>
				<path d="M39.763,127v-1.533h2.48v1.729c0,0.957,0.082,1.629,0.244,2.016c0.163,0.388,0.469,0.581,0.918,0.581
				s0.747-0.159,0.894-0.479c0.146-0.318,0.22-0.839,0.22-1.562s-0.13-1.353-0.391-1.89s-0.674-1.099-1.24-1.685l-1.27-1.309
				c-0.592-0.619-1.053-1.26-1.382-1.924s-0.493-1.432-0.493-2.305c0-1.419,0.273-2.474,0.82-3.164s1.488-1.035,2.822-1.035
				s2.238,0.402,2.71,1.206s0.708,1.978,0.708,3.521v1.064h-2.412v-1.23c0-0.833-0.072-1.431-0.215-1.792s-0.418-0.542-0.825-0.542
				s-0.7,0.137-0.879,0.41s-0.269,0.684-0.269,1.23s0.091,0.983,0.273,1.309s0.511,0.742,0.986,1.25l1.416,1.533
				c0.709,0.768,1.245,1.546,1.606,2.334s0.542,1.647,0.542,2.578c0,1.608-0.27,2.796-0.811,3.564
				c-0.541,0.769-1.486,1.152-2.837,1.152s-2.292-0.428-2.822-1.284C40.028,129.889,39.763,128.64,39.763,127z"/>
			</g>
			<g>
				<path d="M48.943,131.833v-17.187h2.051l3.643,10.312l-0.186-4.688v-5.625h2.354v17.187H54.95l-3.74-10.673l0.146,4.512v6.162
				L48.943,131.833L48.943,131.833z"/>
			</g>
			<g>
				<path d="M59.48,131.833v-17.187h2.617v17.187H59.48z"/>
			</g>
			<g>
				<path d="M64.431,127v-1.533h2.48v1.729c0,0.957,0.082,1.629,0.244,2.016c0.163,0.388,0.469,0.581,0.918,0.581
				s0.747-0.159,0.894-0.479c0.146-0.318,0.22-0.839,0.22-1.562s-0.13-1.353-0.391-1.89s-0.674-1.099-1.24-1.685l-1.27-1.309
				c-0.592-0.619-1.053-1.26-1.382-1.924s-0.493-1.432-0.493-2.305c0-1.419,0.273-2.474,0.82-3.164s1.488-1.035,2.822-1.035
				s2.238,0.402,2.71,1.206s0.708,1.978,0.708,3.521v1.064H69.06v-1.23c0-0.833-0.072-1.431-0.215-1.792s-0.418-0.542-0.825-0.542
				s-0.7,0.137-0.879,0.41s-0.269,0.684-0.269,1.23s0.091,0.983,0.273,1.309s0.511,0.742,0.986,1.25l1.416,1.533
				c0.709,0.768,1.245,1.546,1.606,2.334s0.542,1.647,0.542,2.578c0,1.608-0.27,2.796-0.811,3.564
				c-0.541,0.769-1.486,1.152-2.837,1.152s-2.292-0.428-2.822-1.284C64.696,129.889,64.431,128.64,64.431,127z"/>
			</g>
			<g>
				<path d="M79.978,130.832c-0.592,0.798-1.523,1.196-2.793,1.196s-2.218-0.425-2.847-1.274s-0.942-2.071-0.942-3.667v-7.49
				c0-2.559,0.67-4.157,2.012-4.795c0.495-0.234,1.094-0.352,1.797-0.352c2.416,0,3.623,1.523,3.623,4.57v2.363h-2.529v-2.197
				c0-0.885-0.075-1.519-0.225-1.899s-0.443-0.571-0.879-0.571s-0.739,0.202-0.908,0.605s-0.254,1.022-0.254,1.855v8.027
				c0,0.924,0.082,1.585,0.244,1.982c0.163,0.397,0.459,0.596,0.889,0.596s0.726-0.201,0.889-0.605
				c0.163-0.403,0.244-1.07,0.244-2.001v-2.461h2.568v2.432C80.867,128.806,80.57,130.035,79.978,130.832z"/>
			</g>
			<g>
				<path d="M82.996,131.833v-17.187h2.617v6.953h2.344v-6.953h2.617v17.187h-2.617v-7.988h-2.344v7.988H82.996z"/>
			</g>
			<g>
				<path d="M93.152,131.833v-17.187h5.762v2.256h-3.145v5h2.988v2.207h-2.988v5.468h3.262v2.256H93.152z"/>
			</g>
			<g>
				<path d="M104.578,123.757l-0.84-0.039v8.115h-2.617v-17.187h4.326c0.898,0,1.569,0.181,2.012,0.542s0.734,0.866,0.874,1.514
				s0.21,1.494,0.21,2.539s-0.111,1.841-0.332,2.388s-0.631,0.915-1.23,1.104c0.592,0.104,1.006,0.504,1.24,1.201
				s0.352,2.147,0.352,4.351s0.033,3.387,0.098,3.549h-2.617c-0.065-0.13-0.098-2.184-0.098-6.162c0-0.762-0.091-1.268-0.273-1.519
				S105.131,123.771,104.578,123.757z M103.748,121.687h1.045c0.332,0,0.578-0.075,0.737-0.225s0.27-0.407,0.332-0.771
				s0.093-0.921,0.093-1.67v-0.107c0-0.931-0.078-1.54-0.234-1.826s-0.518-0.43-1.084-0.43h-0.889V121.687z"/>
			</g>
			<g>
				<path d="M20.613,155.833v-17.188h5.898v2.275H23.23v4.57h3.047v2.285H23.23v8.057L20.613,155.833L20.613,155.833z"/>
			</g>
			<g>
				<path d="M34.978,154.91c-0.599,0.746-1.561,1.118-2.886,1.118s-2.289-0.374-2.891-1.123c-0.602-0.748-0.903-1.91-0.903-3.486
				v-12.783h2.617v12.734c0,0.905,0.042,1.455,0.127,1.65s0.187,0.373,0.308,0.532c0.121,0.16,0.37,0.239,0.747,0.239
				s0.648-0.11,0.811-0.332c0.163-0.221,0.262-0.496,0.298-0.825c0.036-0.328,0.054-0.75,0.054-1.265v-12.734h2.617v12.783
				C35.876,153.001,35.577,154.165,34.978,154.91z"/>
			</g>
			<g>
				<path d="M38.015,150.999v-1.533h2.48v1.729c0,0.957,0.082,1.63,0.244,2.017c0.163,0.388,0.469,0.581,0.918,0.581
				s0.747-0.159,0.894-0.479c0.146-0.318,0.22-0.84,0.22-1.562s-0.13-1.353-0.391-1.89s-0.674-1.099-1.24-1.685l-1.27-1.309
				c-0.592-0.618-1.053-1.26-1.382-1.924s-0.493-1.432-0.493-2.305c0-1.419,0.273-2.474,0.82-3.164
				c0.547-0.689,1.488-1.035,2.822-1.035s2.238,0.402,2.71,1.206c0.472,0.805,0.708,1.978,0.708,3.521v1.064h-2.412v-1.23
				c0-0.833-0.072-1.431-0.215-1.792s-0.418-0.542-0.825-0.542s-0.7,0.137-0.879,0.41s-0.269,0.684-0.269,1.23
				s0.091,0.983,0.273,1.309s0.511,0.742,0.986,1.25l1.416,1.533c0.709,0.769,1.245,1.547,1.606,2.334
				c0.361,0.788,0.542,1.647,0.542,2.578c0,1.608-0.27,2.797-0.811,3.564c-0.541,0.769-1.486,1.152-2.837,1.152
				s-2.292-0.428-2.822-1.284C38.28,153.889,38.015,152.64,38.015,150.999z"/>
			</g>
			<g>
				<path d="M46.853,150.999v-1.533h2.48v1.729c0,0.957,0.082,1.63,0.244,2.017c0.163,0.388,0.469,0.581,0.918,0.581
				s0.747-0.159,0.894-0.479c0.146-0.318,0.22-0.84,0.22-1.562s-0.13-1.353-0.391-1.89s-0.674-1.099-1.24-1.685l-1.27-1.309
				c-0.592-0.618-1.053-1.26-1.382-1.924s-0.493-1.432-0.493-2.305c0-1.419,0.273-2.474,0.82-3.164
				c0.547-0.689,1.488-1.035,2.822-1.035s2.238,0.402,2.71,1.206c0.472,0.805,0.708,1.978,0.708,3.521v1.064h-2.412v-1.23
				c0-0.833-0.072-1.431-0.215-1.792s-0.418-0.542-0.825-0.542s-0.7,0.137-0.879,0.41s-0.269,0.684-0.269,1.23
				s0.091,0.983,0.273,1.309s0.511,0.742,0.986,1.25l1.416,1.533c0.709,0.769,1.245,1.547,1.606,2.334
				c0.361,0.788,0.542,1.647,0.542,2.578c0,1.608-0.27,2.797-0.811,3.564c-0.541,0.769-1.486,1.152-2.837,1.152
				s-2.292-0.428-2.822-1.284C47.118,153.889,46.853,152.64,46.853,150.999z"/>
			</g>
			<g>
				<path d="M63.386,143.06c0,1.85-0.501,2.985-1.504,3.408c1.224,0.41,1.836,1.762,1.836,4.053v0.439
				c-0.013,1.726-0.314,2.969-0.903,3.73s-1.551,1.143-2.886,1.143H56.13v-17.188h3.721c1.283,0,2.191,0.298,2.725,0.894
				s0.804,1.594,0.811,2.993L63.386,143.06L63.386,143.06z M58.748,145.599h0.967c0.449,0,0.744-0.143,0.884-0.43
				c0.14-0.286,0.21-0.875,0.21-1.768v-1.035c-0.006-0.664-0.098-1.108-0.273-1.333s-0.479-0.337-0.908-0.337h-0.879L58.748,145.599
				L58.748,145.599z M58.748,153.802h0.928c0.521,0,0.885-0.179,1.094-0.537c0.208-0.357,0.312-0.999,0.312-1.924v-1.387
				c0-0.872-0.084-1.489-0.254-1.851s-0.495-0.542-0.977-0.542h-1.104L58.748,153.802L58.748,153.802z"/>
			</g>
			<g>
				<path d="M64.978,155.833l2.451-17.188h3.457l2.607,17.188h-2.441l-0.41-3.066h-2.773l-0.371,3.066H64.978z M70.369,150.667
				l-1.152-8.633h-0.039l-1.055,8.633H70.369z"/>
			</g>
			<g>
				<path d="M75.291,155.833v-17.188h2.617v14.961h3.311v2.227H75.291z"/>
			</g>
			<g>
				<path d="M82.722,155.833v-17.188h2.617v14.961h3.311v2.227H82.722z"/>
			</g>
			<g>
				<path d="M90.154,155.833v-17.188h5.762v2.256h-3.145v5h2.988v2.207h-2.988v5.469h3.262v2.256L90.154,155.833L90.154,155.833z"/>
			</g>
			<g>
				<path d="M101.58,147.757l-0.84-0.039v8.115h-2.617v-17.188h4.326c0.898,0,1.569,0.181,2.012,0.542s0.734,0.866,0.874,1.514
				c0.14,0.648,0.21,1.494,0.21,2.539s-0.111,1.841-0.332,2.388s-0.631,0.915-1.23,1.104c0.592,0.104,1.006,0.505,1.24,1.201
				c0.234,0.697,0.352,2.147,0.352,4.351s0.033,3.388,0.098,3.55h-2.617c-0.065-0.13-0.098-2.184-0.098-6.162
				c0-0.762-0.091-1.268-0.273-1.519C102.501,147.902,102.133,147.771,101.58,147.757z M100.75,145.687h1.045
				c0.332,0,0.578-0.074,0.737-0.225c0.16-0.149,0.27-0.406,0.332-0.771c0.062-0.364,0.093-0.921,0.093-1.67v-0.107
				c0-0.931-0.078-1.539-0.234-1.826c-0.156-0.286-0.518-0.43-1.084-0.43h-0.889V145.687z"/>
			</g>
			<g>
				<path d="M20.613,179.833v-17.188h3.857c1.263,0,2.179,0.373,2.749,1.118c0.57,0.746,0.854,1.845,0.854,3.296l0.01,7.754
				c0,1.732-0.287,3.002-0.859,3.809c-0.573,0.808-1.52,1.211-2.842,1.211H20.613z M23.23,177.802h0.859
				c0.482,0,0.832-0.156,1.05-0.469s0.327-0.885,0.327-1.719l-0.01-8.486c0-0.892-0.109-1.526-0.327-1.904
				c-0.218-0.377-0.594-0.566-1.128-0.566H23.23V177.802z"/>
			</g>
			<g>
				<path d="M30.437,179.833v-17.188h5.762v2.256h-3.145v5h2.988v2.207h-2.988v5.469h3.262v2.256L30.437,179.833L30.437,179.833z"/>
			</g>
			<g>
				<path d="M38.064,174.999v-1.533h2.48v1.729c0,0.957,0.082,1.63,0.244,2.017c0.163,0.388,0.469,0.581,0.918,0.581
				s0.747-0.159,0.894-0.479c0.146-0.318,0.22-0.84,0.22-1.562s-0.13-1.353-0.391-1.89s-0.674-1.099-1.24-1.685l-1.27-1.309
				c-0.592-0.618-1.053-1.26-1.382-1.924s-0.493-1.432-0.493-2.305c0-1.419,0.273-2.474,0.82-3.164
				c0.547-0.689,1.488-1.035,2.822-1.035s2.238,0.402,2.71,1.206c0.472,0.805,0.708,1.978,0.708,3.521v1.064h-2.412v-1.23
				c0-0.833-0.072-1.431-0.215-1.792s-0.418-0.542-0.825-0.542s-0.7,0.137-0.879,0.41s-0.269,0.684-0.269,1.23
				s0.091,0.983,0.273,1.309s0.511,0.742,0.986,1.25l1.416,1.533c0.709,0.769,1.245,1.547,1.606,2.334
				c0.361,0.788,0.542,1.647,0.542,2.578c0,1.608-0.27,2.797-0.811,3.564c-0.541,0.769-1.486,1.152-2.837,1.152
				s-2.292-0.428-2.822-1.284C38.329,177.889,38.064,176.64,38.064,174.999z"/>
			</g>
			<g>
				<path d="M56.365,178.881c-0.619,0.766-1.489,1.147-2.612,1.147s-1.996-0.34-2.617-1.021c-0.622-0.68-0.933-1.671-0.933-2.974
				v-3.066h2.529v2.939c0,0.951,0.153,1.53,0.459,1.738c0.137,0.092,0.306,0.137,0.508,0.137c0.397,0,0.659-0.162,0.786-0.488
				c0.127-0.325,0.19-0.84,0.19-1.543v-13.105h2.617v12.979C57.292,177.03,56.983,178.116,56.365,178.881z"/>
			</g>
			<g>
				<path d="M58.992,179.833l2.451-17.188H64.9l2.607,17.188h-2.441l-0.41-3.066h-2.773l-0.371,3.066H58.992z M64.382,174.667
				l-1.152-8.633h-0.039l-1.055,8.633H64.382z"/>
			</g>
			<g>
				<path d="M69.304,179.833v-17.188h2.617v6.953h2.344v-6.953h2.617v17.188h-2.617v-7.988h-2.344v7.988H69.304z"/>
			</g>
			<g>
				<path d="M82.917,171.757l-0.84-0.039v8.115H79.46v-17.188h4.326c0.898,0,1.569,0.181,2.012,0.542s0.734,0.866,0.874,1.514
				c0.14,0.648,0.21,1.494,0.21,2.539s-0.111,1.841-0.332,2.388s-0.631,0.915-1.23,1.104c0.592,0.104,1.006,0.505,1.24,1.201
				c0.234,0.697,0.352,2.147,0.352,4.351s0.033,3.388,0.098,3.55h-2.617c-0.065-0.13-0.098-2.184-0.098-6.162
				c0-0.762-0.091-1.268-0.273-1.519C83.839,171.902,83.471,171.771,82.917,171.757z M82.087,169.687h1.045
				c0.332,0,0.578-0.074,0.737-0.225c0.16-0.149,0.27-0.406,0.332-0.771c0.062-0.364,0.093-0.921,0.093-1.67v-0.107
				c0-0.931-0.078-1.539-0.234-1.826c-0.156-0.286-0.518-0.43-1.084-0.43h-0.889V169.687z"/>
			</g>
			<g>
				<path d="M89.324,179.833v-17.188h5.762v2.256h-3.145v5h2.988v2.207h-2.988v5.469h3.262v2.256L89.324,179.833L89.324,179.833z"/>
			</g>
			<g>
				<path d="M96.951,174.999v-1.533h2.48v1.729c0,0.957,0.082,1.63,0.244,2.017c0.163,0.388,0.469,0.581,0.918,0.581
				s0.747-0.159,0.894-0.479c0.146-0.318,0.22-0.84,0.22-1.562s-0.13-1.353-0.391-1.89s-0.674-1.099-1.24-1.685l-1.27-1.309
				c-0.592-0.618-1.053-1.26-1.382-1.924s-0.493-1.432-0.493-2.305c0-1.419,0.273-2.474,0.82-3.164
				c0.547-0.689,1.488-1.035,2.822-1.035s2.238,0.402,2.71,1.206c0.472,0.805,0.708,1.978,0.708,3.521v1.064h-2.412v-1.23
				c0-0.833-0.072-1.431-0.215-1.792s-0.418-0.542-0.825-0.542s-0.7,0.137-0.879,0.41s-0.269,0.684-0.269,1.23
				s0.091,0.983,0.273,1.309s0.511,0.742,0.986,1.25l1.416,1.533c0.709,0.769,1.245,1.547,1.606,2.334
				c0.361,0.788,0.542,1.647,0.542,2.578c0,1.608-0.27,2.797-0.811,3.564c-0.541,0.769-1.486,1.152-2.837,1.152
				s-2.292-0.428-2.822-1.284C97.216,177.889,96.951,176.64,96.951,174.999z"/>
			</g>
		</g>
	</g>
</svg>