<?xml version="1.0" encoding="utf-8"?>
<!-- Generator: Adobe Illustrator 17.0.0, SVG Export Plug-In . SVG Version: 6.00 Build 0)  -->
<!DOCTYPE svg PUBLIC "-//W3C//DTD SVG 1.1//EN" "http://www.w3.org/Graphics/SVG/1.1/DTD/svg11.dtd">
<svg version="1.1" id="Layer_1" xmlns="http://www.w3.org/2000/svg" xmlns:xlink="http://www.w3.org/1999/xlink" x="0px" y="0px"
	 width="256px" height="256px" viewBox="0 0 256 256" enable-background="new 0 0 256 256" xml:space="preserve">
<path fill="#FFFFFF" d="M192.1,10.3c-17.1,0-32.4,8-42.3,20.6h-0.3v0.3c-7.1,9.1-11.4,20.6-11.4,33c0,29.7,24.2,53.9,53.9,53.9
	s54-24.2,54-53.9S221.9,10.3,192.1,10.3z"/>
<path d="M192,10.3c-17.1,0-32.4,8-42.3,20.6h-0.3v0.3c-7.1,9.1-11.4,20.6-11.4,33c0,29.7,24.2,53.9,53.9,53.9s53.9-24.2,53.9-53.9
	S221.7,10.3,192,10.3z M208.6,100.9l-23.1-3L183.7,78l17.6-10.7L217,82.4L208.6,100.9z M171.2,103.3L151.9,89l-2.1-14.7l11.8-7.4
	L181.5,78l1.9,20.2L171.2,103.3z M149.1,72.2L142,57.4l9.3-15.3l9.7,2l-0.2,20.8L149.1,72.2z M188.3,19l21.3,2.9l7.3,13.6l-16.1,7.9
	l-16.5-11.5L188.3,19z M231.4,74.4l-12.6,6.7l-16.9-16.2l0.2-19.7l16-7.9L232.3,50L231.4,74.4z M233.5,74.9l1-24.5l7.1-0.9
	c1.4,4.7,2.1,9.6,2.1,14.7c0,4.6-0.6,9-1.7,13.2L233.5,74.9z M240.9,47.4l-7.1,0.9l-14.6-13.1L212,21.9l6.1-2.4
	C228.7,25.7,236.9,35.6,240.9,47.4z M178.8,14.2l7.4,4.1L182,32.1L162.3,42l-10.5-2.1l-0.2-8.1C158.5,23.4,167.9,17,178.8,14.2z
	 M149.7,40.5l-8.5,14.1c1.4-7.3,4.3-14.1,8.4-20L149.7,40.5z M140.5,59.2l7.1,14.9l2.1,14.8l-2.9,0.4c-4.1-7.4-6.5-16-6.5-25.1
	C140.3,62.5,140.4,60.8,140.5,59.2z M172.4,112.1l-0.2-6.8l12.5-5.3l23.9,3.1l4.4,8.4c-6.4,2.9-13.5,4.5-21,4.5
	C185.1,115.9,178.5,114.5,172.4,112.1z"/>
<g>
	<path fill="#FCFF00" stroke="#000000" stroke-miterlimit="10" d="M177,110.6c-0.3-0.4-0.8-0.1-1.3-0.1h-19.3
		c-0.9,0-1.6,0.2-1.6,1.1l-0.2,10.9c-0.4-0.3-0.8-0.5-1-0.7c1.4-0.8-0.1-2.3-0.1-2.3H94c0,0-1.5,1.5-0.1,2.3c-0.2,0.2-0.6,0.4-1,0.7
		l-0.2-10.8c0-0.9-0.7-1.2-1.6-1.2H71.8c-0.5,0-0.9-0.2-1.3,0.2c-0.3,0.4-0.4,0.7-0.4,1.1c0.1,0.3,6,30.8,31.8,36.5
		c3.8,2.7,8.6,4.9,14.7,6.2c0,0.8-3.3,4.8,3.4,7.3c0.4,1.6-2,6.4-2,14.3s-0.4,16.2-1.7,17.9c-1.3,1.6-2.3,3.5-1.6,5.4
		c-1.7,0-8.5,3.8-8.1,15.4c-2.2,0-4.6,0.3-4.6,0.3s-1.6,4.1-4.6,4.9v24.6h0.4c0,0-3.7,0.2-3.4,6.5c0,1.7,0.7,3.5,2.6,3.5
		c1.6,0,51.6,0,53.2,0c2,0,2.6-1.7,2.6-3.5c0.3-6.3-3.4-6.5-3.4-6.5h-3.1v-24.9c-2-0.8-2.8-4.9-2.8-4.9s-1.1-0.3-3.3-0.3
		c0.4-11.5-6.1-15.4-7.8-15.4c0.7-2-0.2-3.8-1.5-5.4s-1.7-10-1.7-17.9c0-7.8-2.4-12.6-1.9-14.3c6.6-2.5,3.4-6.5,3.4-7.3
		c6.1-1.3,10.9-3.5,14.7-6.2c25.8-5.7,31.8-36.1,31.8-36.4C177.4,111.1,177.3,110.9,177,110.6z M73.8,113.5h15.6l0.3,14.9
		c0,0.2,0,0.2,0.1,0.3c0,0.4,0,0.6,0,1c0.2,2.8,2,8.3,6.2,13.3C81,136.1,75.3,117.5,73.8,113.5z M151.4,142.9c4.2-5,6-10.4,6.2-13.2
		c0-0.4,0-0.9,0-1.2c0-0.1,0.1,0.1,0.1-0.1l0.3-14.9h15.6C172.1,117.5,166.5,135.9,151.4,142.9z"/>
	<path fill="#FFFFFF" d="M115.5,125.1c0,0-0.7-2.7,14.6-2.7c15.7,0,13.5,2.6,13.5,2.6s-1.7,9-5.4,9c-3.5,0-16.8,0-16.8,0
		S116.8,131.9,115.5,125.1z"/>
	<path fill="#FFFFFF" d="M123.6,163c0,0-1.5,13.8-0.9,18.2c0.7,4.4,0.2,8.4-0.4,10.6c-0.7,2.2-0.1,4.1,2.7,4.1c3.1,0,2.5-3.3,2-4.6
		c-0.4-1.3-0.2-7.2,0.2-10.2c0.4-3-0.3-12.6-1.6-18.3C124.4,163.1,123.6,163,123.6,163z"/>
	<rect x="123" y="156" fill="#FFFFFF" width="6" height="2"/>
	<rect x="125" y="197" fill="#ABD100" width="6" height="4"/>
	<path fill="#FFFFFF" d="M123.2,202h5.4c0,0,2.8,0.8,2.8,4.2c0.2,1.7-0.2,5.8-0.2,5.8h-9.1c0,0-0.8-3.8-1.1-5.3
		C120.8,205.4,121.4,203,123.2,202z"/>
	<path fill="#FFFFFF" d="M121.4,215c0,0,8.1,0,10.2,0s4.1,3.8,0,4c-3.9,0.2-8.5-0.1-10.7-0.1S118.8,215,121.4,215z"/>
	<rect x="136" y="221" fill="#ABD100" width="7" height="22"/>
	<path fill="#ABD100" d="M132.4,215c0,0-0.1-4.1-0.2-5.5c-0.2-2.2,3.2-3.2,3.5,1c0.1,1.2,0.6,4.5,0.6,4.5H132.4z"/>
	<path fill="#ABD100" d="M129.6,153.5c0,0-4.7,0.5-4.7-3.4s10-6.4,15.4-7.5s16-3.3,14.7-14.9c-0.3-2.6-5.1-5.1-8-5.2
		c0,0,9,1,9.3,5.6C156.6,132.6,154.5,146.9,129.6,153.5z"/>
	<rect x="117" y="197" fill="#FF9F00" width="1" height="4"/>
	<rect x="102" y="221" fill="#FF9F00" width="3" height="22"/>
	<path fill="#FF9F00" d="M112.1,215c0,0-0.1-2.9,0-4.3c0.2-2.2-3.2-3.3-3.5,1c-0.1,1.2-0.4,3.3-0.4,3.3H112.1z"/>
	<path fill="#FF9F00" d="M117.4,153.5c0,0,4.7,0.5,4.7-3.4s-10-6.4-15.4-7.5s-15-5-14.7-14.9c0.3-2.6,5.1-5.1,8-5.2
		c0,0-8.7,0.7-9,5.2C90.8,132.2,94.3,148,117.4,153.5z"/>
	<line fill="none" stroke="#957E78" stroke-miterlimit="10" x1="97" y1="244.5" x2="146" y2="244.5"/>
	<line fill="none" stroke="#957E78" stroke-miterlimit="10" x1="97" y1="220.5" x2="146" y2="220.5"/>
	<line fill="none" stroke="#957E78" stroke-miterlimit="10" x1="106" y1="214.5" x2="141" y2="214.5"/>
	<line fill="none" stroke="#957E78" stroke-miterlimit="10" x1="113" y1="200.5" x2="132" y2="200.5"/>
	<path fill="#B9A9A5" stroke="#957E78" stroke-width="0.6534" stroke-miterlimit="10" d="M118.5,161.1c0,0,2.2,1.1,5.5,1.1
		c2.1,0,5.3-1.2,6.5-2.5"/>
	<path fill="none" stroke="#957E78" stroke-width="0.6534" stroke-miterlimit="10" d="M116.4,154.4c0,0,1.6,0.6,7.6,0.6
		c5.1,0,6.9-0.8,6.9-0.8"/>
</g>
<g>
	<g>
		<path fill="#6DA544" d="M191.3,106.3c22.6,0,41-18.3,41-41c0-22.6-18.3-41-41-41c-22.6,0-41,18.3-41,41
			C150.3,87.9,168.7,106.3,191.3,106.3"/>
		<polygon fill="#FFDA44" points="191.3,40.4 225.1,65.3 191.3,90.3 157.5,65.3 		"/>
		<path fill="#F0F0F0" d="M191.3,79.6c7.9,0,14.2-6.4,14.2-14.2s-6.4-14.2-14.2-14.2c-7.9,0-14.2,6.4-14.2,14.2
			S183.4,79.6,191.3,79.6"/>
		<path fill="#0052B4" d="M184.2,64.4c-2.5,0-4.9,0.4-7.1,1.1c0.1,7.8,6.4,14.1,14.2,14.1c4.8,0,9.1-2.4,11.7-6.1
			C198.6,68,191.8,64.4,184.2,64.4"/>
		<path fill="#0052B4" d="M205.3,68.1c0.2-0.9,0.3-1.8,0.3-2.7c0-7.9-6.4-14.2-14.2-14.2c-5.9,0-10.9,3.6-13.1,8.6
			c1.9-0.4,3.9-0.6,6-0.6C192.5,59.1,199.9,62.5,205.3,68.1"/>
	</g>
	<ellipse fill="none" stroke="#000000" stroke-miterlimit="10" cx="191.6" cy="65.2" rx="40.8" ry="40.6"/>
</g>
<g>
	<path d="M34.966,185.434c0,3.115-0.845,5.029-2.534,5.741c2.062,0.691,3.093,2.967,3.093,6.827v0.74
		c-0.022,2.906-0.529,5.001-1.521,6.284c-0.993,1.283-2.613,1.925-4.861,1.925h-6.399v-28.952h6.268c2.16,0,3.69,0.501,4.589,1.505
		c0.899,1.003,1.354,2.684,1.366,5.042L34.966,185.434L34.966,185.434z M27.152,189.711h1.628c0.757,0,1.253-0.241,1.489-0.724
		s0.354-1.475,0.354-2.978v-1.744c-0.011-1.118-0.164-1.866-0.46-2.245c-0.296-0.378-0.806-0.567-1.53-0.567h-1.48v8.258H27.152z
		 M27.152,203.529h1.562c0.877,0,1.492-0.302,1.843-0.904c0.351-0.604,0.526-1.684,0.526-3.241v-2.336
		c0-1.47-0.143-2.509-0.428-3.117s-0.833-0.913-1.645-0.913h-1.859L27.152,203.529L27.152,203.529z"/>
	<path d="M44.787,193.347l-1.415-0.065v13.67h-4.409V178h7.288c1.513,0,2.643,0.304,3.389,0.912c0.746,0.609,1.236,1.459,1.472,2.55
		c0.236,1.092,0.354,2.518,0.354,4.277c0,1.761-0.187,3.101-0.559,4.022c-0.373,0.921-1.064,1.541-2.073,1.858
		c0.998,0.176,1.694,0.851,2.089,2.023c0.395,1.174,0.592,3.616,0.592,7.329c0,3.712,0.055,5.705,0.164,5.979h-4.408
		c-0.11-0.22-0.165-3.68-0.165-10.38c0-1.283-0.154-2.136-0.461-2.559C46.338,193.591,45.719,193.369,44.787,193.347z
		 M43.389,189.859h1.76c0.559,0,0.973-0.126,1.242-0.379c0.269-0.252,0.455-0.685,0.56-1.299c0.104-0.614,0.156-1.552,0.156-2.813
		v-0.181c0-1.568-0.132-2.594-0.395-3.076s-0.872-0.724-1.826-0.724h-1.497C43.389,181.387,43.389,189.859,43.389,189.859z"/>
	<path d="M54.262,206.951l4.129-28.952h5.823l4.393,28.952h-4.113l-0.691-5.166h-4.672l-0.625,5.166H54.262z M63.343,198.249
		l-1.941-14.542h-0.065l-1.777,14.542H63.343z"/>
	<path d="M71.058,198.808v-2.582h4.178v2.911c0,1.612,0.137,2.745,0.411,3.397c0.274,0.652,0.79,0.979,1.546,0.979
		c0.757,0,1.259-0.269,1.505-0.806s0.37-1.415,0.37-2.632c0-1.218-0.22-2.278-0.658-3.184c-0.438-0.904-1.135-1.851-2.089-2.838
		l-2.139-2.204c-0.998-1.042-1.774-2.122-2.328-3.24c-0.554-1.119-0.831-2.413-0.831-3.883c0-2.391,0.46-4.167,1.382-5.33
		c0.921-1.162,2.505-1.743,4.754-1.743c2.248,0,3.77,0.677,4.565,2.031c0.795,1.354,1.192,3.331,1.192,5.931v1.793h-4.063v-2.073
		c0-1.403-0.121-2.409-0.362-3.019c-0.241-0.608-0.705-0.913-1.39-0.913c-0.686,0-1.179,0.23-1.48,0.691
		c-0.302,0.461-0.453,1.151-0.453,2.072c0,0.922,0.154,1.656,0.461,2.205c0.307,0.548,0.861,1.25,1.661,2.105l2.385,2.582
		c1.195,1.295,2.098,2.605,2.706,3.932c0.609,1.327,0.913,2.775,0.913,4.344c0,2.708-0.455,4.71-1.365,6.004
		c-0.911,1.294-2.503,1.941-4.779,1.941s-3.86-0.722-4.754-2.163C71.505,203.675,71.058,201.571,71.058,198.808z"/>
	<path d="M86.686,206.951v-28.952h4.409v28.952H86.686z"/>
	<path d="M95.602,206.951v-28.952h4.409V203.2h5.577v3.751H95.602z"/>
	<path d="M108.285,206.951v-28.952h4.409v28.952H108.285z"/>
	<path d="M115.885,206.951l4.129-28.952h5.823l4.393,28.952h-4.113l-0.691-5.166h-4.672l-0.625,5.166H115.885z M124.965,198.249
		l-1.941-14.542h-0.065l-1.777,14.542H124.965z"/>
	<path d="M133.256,206.951v-28.952h3.454l6.136,17.371l-0.312-7.896v-9.475h3.965v28.952h-3.126l-6.3-17.98l0.247,7.601v10.38
		h-4.064V206.951z"/>
	<path d="M151.006,206.951v-28.952h4.408v28.952H151.006z"/>
	<path d="M159.346,198.808v-2.582h4.179v2.911c0,1.612,0.137,2.745,0.411,3.397s0.79,0.979,1.546,0.979
		c0.757,0,1.259-0.269,1.506-0.806c0.246-0.537,0.37-1.415,0.37-2.632c0-1.218-0.22-2.278-0.658-3.184
		c-0.438-0.904-1.135-1.851-2.089-2.838l-2.139-2.204c-0.998-1.042-1.774-2.122-2.328-3.24c-0.554-1.119-0.83-2.413-0.83-3.883
		c0-2.391,0.46-4.167,1.382-5.33c0.921-1.162,2.505-1.743,4.754-1.743c2.248,0,3.77,0.677,4.564,2.031s1.192,3.331,1.192,5.931
		v1.793h-4.062v-2.073c0-1.403-0.121-2.409-0.362-3.019c-0.241-0.608-0.705-0.913-1.39-0.913c-0.686,0-1.18,0.23-1.48,0.691
		c-0.302,0.461-0.453,1.151-0.453,2.072c0,0.922,0.154,1.656,0.461,2.205c0.307,0.548,0.861,1.25,1.661,2.105l2.386,2.582
		c1.195,1.295,2.098,2.605,2.706,3.932c0.608,1.327,0.913,2.775,0.913,4.344c0,2.708-0.455,4.71-1.365,6.004
		c-0.911,1.294-2.504,1.941-4.779,1.941s-3.86-0.722-4.754-2.163C159.793,203.675,159.346,201.571,159.346,198.808z"/>
	<path d="M185.534,205.265c-0.998,1.344-2.566,2.016-4.704,2.016c-2.139,0-3.737-0.716-4.796-2.147s-1.587-3.489-1.587-6.177V186.34
		c0-4.31,1.129-7.002,3.389-8.077c0.833-0.395,1.842-0.592,3.026-0.592c4.068,0,6.104,2.565,6.104,7.698v3.981h-4.261v-3.702
		c0-1.491-0.126-2.558-0.379-3.199c-0.252-0.642-0.745-0.962-1.48-0.962c-0.734,0-1.244,0.34-1.529,1.02
		c-0.285,0.681-0.428,1.722-0.428,3.126v13.521c0,1.558,0.137,2.671,0.411,3.34s0.773,1.003,1.497,1.003s1.223-0.34,1.497-1.02
		c0.273-0.68,0.411-1.804,0.411-3.372v-4.146h4.326v4.096C187.031,201.852,186.532,203.922,185.534,205.265z"/>
	<path d="M190.617,206.951v-28.952h4.409v11.712h3.948v-11.712h4.408v28.952h-4.408v-13.456h-3.948v13.456H190.617z"/>
	<path d="M207.726,206.951v-28.952h9.706v3.8h-5.297v8.422h5.033v3.718h-5.033v9.213h5.494v3.8h-9.903V206.951z"/>
	<path d="M226.973,193.347l-1.415-0.065v13.67h-4.408V178h7.287c1.514,0,2.643,0.304,3.389,0.912
		c0.746,0.609,1.236,1.459,1.473,2.55c0.235,1.092,0.354,2.518,0.354,4.277c0,1.761-0.187,3.101-0.56,4.022
		s-1.063,1.541-2.072,1.858c0.998,0.176,1.694,0.851,2.089,2.023c0.395,1.174,0.593,3.616,0.593,7.329
		c0,3.712,0.055,5.705,0.164,5.979h-4.408c-0.11-0.22-0.165-3.68-0.165-10.38c0-1.283-0.153-2.136-0.461-2.559
		C228.524,193.591,227.904,193.369,226.973,193.347z M225.574,189.859h1.761c0.559,0,0.973-0.126,1.241-0.379
		c0.269-0.252,0.455-0.685,0.56-1.299s0.156-1.552,0.156-2.813v-0.181c0-1.568-0.132-2.594-0.395-3.076
		c-0.264-0.482-0.872-0.724-1.826-0.724h-1.497V189.859z"/>
	<path d="M30.329,240.951v-28.952h5.478l4.112,21.154l3.866-21.154h5.511v28.952h-3.932v-10.792l0.165-9.902l-3.899,20.562h-3.504
		l-4.063-20.562l0.165,9.902v10.792L30.329,240.951L30.329,240.951z"/>
	<path d="M53.655,240.951v-28.952h9.706v3.8h-5.297v8.422h5.034v3.718h-5.034v9.213h5.494v3.8h-9.903V240.951z"/>
	<path d="M67.243,240.951v-28.952h4.409v28.952H67.243z"/>
	<path d="M75.583,232.808v-2.582h4.178v2.911c0,1.612,0.137,2.745,0.411,3.397c0.274,0.652,0.79,0.979,1.546,0.979
		c0.757,0,1.259-0.269,1.505-0.806s0.37-1.415,0.37-2.632c0-1.218-0.22-2.278-0.658-3.184c-0.438-0.904-1.135-1.851-2.089-2.838
		l-2.139-2.204c-0.998-1.042-1.774-2.122-2.328-3.24c-0.554-1.119-0.831-2.413-0.831-3.883c0-2.391,0.46-4.167,1.382-5.33
		c0.921-1.162,2.505-1.743,4.754-1.743c2.248,0,3.77,0.677,4.565,2.031c0.795,1.354,1.192,3.331,1.192,5.931v1.793H83.38v-2.073
		c0-1.403-0.121-2.409-0.362-3.019c-0.241-0.608-0.705-0.913-1.39-0.913c-0.686,0-1.179,0.23-1.48,0.691
		c-0.302,0.461-0.453,1.151-0.453,2.072c0,0.922,0.154,1.656,0.461,2.205c0.307,0.548,0.861,1.25,1.661,2.105l2.385,2.582
		c1.195,1.295,2.098,2.605,2.706,3.932c0.609,1.327,0.913,2.775,0.913,4.344c0,2.708-0.455,4.71-1.365,6.004
		c-0.911,1.294-2.503,1.941-4.779,1.941s-3.86-0.722-4.754-2.163C76.03,237.675,75.583,235.571,75.583,232.808z"/>
	<path d="M92.527,240.951v-25.136h-3.389v-3.816h11.038v3.816h-3.257v25.136H92.527z"/>
	<path d="M102.611,240.951v-28.952h9.706v3.8h-5.297v8.422h5.034v3.718h-5.034v9.213h5.494v3.8h-9.903V240.951z"/>
	<path d="M121.857,227.347l-1.415-0.065v13.67h-4.409V212h7.288c1.513,0,2.643,0.304,3.389,0.912
		c0.746,0.609,1.236,1.459,1.472,2.55c0.236,1.092,0.354,2.518,0.354,4.277c0,1.761-0.187,3.101-0.559,4.022
		c-0.373,0.921-1.064,1.541-2.073,1.858c0.998,0.176,1.694,0.851,2.089,2.023c0.395,1.174,0.592,3.616,0.592,7.329
		c0,3.712,0.055,5.705,0.164,5.979h-4.408c-0.11-0.22-0.165-3.68-0.165-10.38c0-1.283-0.154-2.136-0.461-2.559
		C123.409,227.591,122.79,227.369,121.857,227.347z M120.459,223.859h1.76c0.559,0,0.973-0.126,1.242-0.379
		c0.269-0.252,0.455-0.685,0.56-1.299c0.104-0.614,0.156-1.552,0.156-2.813v-0.181c0-1.568-0.132-2.594-0.395-3.076
		s-0.872-0.724-1.826-0.724h-1.497V223.859z"/>
	<path d="M143.815,242.811c-1.066,0-1.933-0.087-2.598-0.26c-0.666-0.174-1.229-0.49-1.688-0.95
		c-0.461-0.461-0.784-1.085-0.971-1.873c-0.188-0.788-0.28-1.807-0.28-3.056v-14.506c0-1.249,0.093-2.268,0.28-3.056
		s0.51-1.413,0.971-1.873c0.46-0.46,1.022-0.777,1.688-0.95c0.665-0.173,1.531-0.26,2.598-0.26v2.734
		c-0.812,0-1.331,0.212-1.559,0.636c-0.229,0.424-0.342,1.328-0.342,2.714v14.615c0,1.386,0.113,2.29,0.342,2.714
		c0.228,0.424,0.747,0.636,1.559,0.636V242.811z"/>
	<path d="M146.304,234.184v-2.146h3.473v2.42c0,1.34,0.113,2.281,0.342,2.823c0.228,0.542,0.656,0.813,1.285,0.813
		s1.046-0.224,1.251-0.67s0.308-1.176,0.308-2.188s-0.183-1.894-0.547-2.646c-0.365-0.752-0.943-1.538-1.736-2.358l-1.777-1.832
		c-0.83-0.866-1.475-1.764-1.935-2.693c-0.461-0.93-0.69-2.005-0.69-3.227c0-1.987,0.383-3.464,1.148-4.43s2.082-1.449,3.951-1.449
		c1.868,0,3.133,0.562,3.794,1.688c0.66,1.126,0.991,2.769,0.991,4.929v1.49h-3.377v-1.723c0-1.167-0.101-2.003-0.301-2.509
		c-0.201-0.506-0.586-0.759-1.155-0.759c-0.57,0-0.98,0.191-1.23,0.574c-0.251,0.383-0.376,0.957-0.376,1.723
		s0.127,1.376,0.383,1.832c0.255,0.456,0.715,1.039,1.381,1.75l1.982,2.146c0.993,1.075,1.743,2.165,2.249,3.268
		s0.759,2.306,0.759,3.609c0,2.251-0.379,3.915-1.135,4.99c-0.757,1.075-2.081,1.613-3.972,1.613c-1.892,0-3.209-0.6-3.951-1.798
		C146.675,238.229,146.304,236.48,146.304,234.184z"/>
	<path d="M159.155,240.951v-24.062h8.066v3.158h-4.402v7h4.184v3.09h-4.184v7.656h4.566v3.158L159.155,240.951L159.155,240.951z
		 M160.536,215.002v-2.133l6.029-2.625v3.527L160.536,215.002z"/>
	<path d="M175.151,229.645l-1.176-0.055v11.361h-3.664v-24.062h6.057c1.258,0,2.196,0.253,2.816,0.759
		c0.619,0.506,1.027,1.212,1.224,2.119c0.195,0.907,0.294,2.092,0.294,3.555s-0.155,2.577-0.465,3.343
		c-0.311,0.766-0.885,1.28-1.723,1.545c0.829,0.146,1.408,0.706,1.736,1.682s0.492,3.006,0.492,6.091s0.045,4.742,0.137,4.97h-3.664
		c-0.092-0.183-0.137-3.058-0.137-8.627c0-1.066-0.128-1.775-0.383-2.126C176.44,229.848,175.926,229.663,175.151,229.645z
		 M173.989,226.746h1.463c0.465,0,0.809-0.104,1.032-0.314c0.223-0.21,0.378-0.569,0.465-1.08c0.086-0.511,0.13-1.29,0.13-2.338
		v-0.15c0-1.304-0.109-2.155-0.328-2.557s-0.725-0.602-1.518-0.602h-1.244L173.989,226.746L173.989,226.746z"/>
	<path d="M184.257,240.951v-24.062h3.664v24.062H184.257z"/>
	<path d="M191.667,240.951v-24.062h8.066v3.158h-4.402v7h4.184v3.09h-4.184v7.656h4.566v3.158L191.667,240.951L191.667,240.951z"/>
	<path d="M206.747,240.951l3.432-24.062h4.84l3.65,24.062h-3.418l-0.574-4.293h-3.883l-0.52,4.293H206.747z M214.294,233.719
		l-1.613-12.086h-0.055l-1.477,12.086H214.294z"/>
	<path d="M220.556,242.811v-2.734c0.811,0,1.33-0.212,1.559-0.636c0.228-0.424,0.342-1.328,0.342-2.714v-14.615
		c0-1.386-0.114-2.29-0.342-2.714c-0.229-0.424-0.748-0.636-1.559-0.636v-2.734c1.066,0,1.932,0.087,2.598,0.26
		c0.665,0.173,1.226,0.49,1.682,0.95c0.455,0.46,0.776,1.085,0.964,1.873c0.187,0.788,0.28,1.807,0.28,3.056v14.506
		c0,1.249-0.094,2.268-0.28,3.056c-0.188,0.788-0.509,1.412-0.964,1.873c-0.456,0.46-1.017,0.776-1.682,0.95
		C222.487,242.724,221.622,242.811,220.556,242.811z"/>
</g>
</svg>
