<?xml version="1.0" encoding="utf-8"?>
<!-- Generator: Adobe Illustrator 17.0.0, SVG Export Plug-In . SVG Version: 6.00 Build 0)  -->
<!DOCTYPE svg PUBLIC "-//W3C//DTD SVG 1.1//EN" "http://www.w3.org/Graphics/SVG/1.1/DTD/svg11.dtd">
<svg version="1.1" id="Layer_1" xmlns="http://www.w3.org/2000/svg" xmlns:xlink="http://www.w3.org/1999/xlink" x="0px" y="0px"
	 width="256px" height="256px" viewBox="0 0 256 256" enable-background="new 0 0 256 256" xml:space="preserve">
<polygon fill="#FFFF00" points="128,188.6 53.1,243.2 82,155.1 6.8,100.8 99.5,101 128,12.8 156.5,101 249.2,100.8 174,155.1 
	202.9,243.2 "/>
<path fill="#FFFFFF" d="M192,10.3c-17.1,0-32.4,8-42.3,20.6h-0.3v0.3c-7.1,9.1-11.4,20.6-11.4,33c0,29.7,24.2,53.9,53.9,53.9
	s53.9-24.2,53.9-53.9S221.7,10.3,192,10.3z"/>
<path d="M192,10.3c-17.1,0-32.4,8-42.3,20.6h-0.3v0.3c-7.1,9.1-11.4,20.6-11.4,33c0,29.7,24.2,53.9,53.9,53.9s53.9-24.2,53.9-53.9
	S221.7,10.3,192,10.3z M208.6,100.9l-23.1-3L183.7,78l17.6-10.7L217,82.4L208.6,100.9z M171.2,103.3L151.9,89l-2.1-14.7l11.8-7.4
	L181.5,78l1.9,20.2L171.2,103.3z M149.1,72.2L142,57.4l9.3-15.3l9.7,2l-0.2,20.8L149.1,72.2z M188.3,19l21.3,2.9l7.3,13.6l-16.1,7.9
	l-16.5-11.5L188.3,19z M231.4,74.4l-12.6,6.7l-16.9-16.2l0.2-19.7l16-7.9L232.3,50L231.4,74.4z M233.5,74.9l1-24.5l7.1-0.9
	c1.4,4.7,2.1,9.6,2.1,14.7c0,4.6-0.6,9-1.7,13.2L233.5,74.9z M240.9,47.4l-7.1,0.9l-14.6-13.1L212,21.9l6.1-2.4
	C228.7,25.7,236.9,35.6,240.9,47.4z M178.8,14.2l7.4,4.1L182,32.1L162.3,42l-10.5-2.1l-0.2-8.1C158.5,23.4,167.9,17,178.8,14.2z
	 M149.7,40.5l-8.5,14.1c1.4-7.3,4.3-14.1,8.4-20L149.7,40.5z M140.5,59.2l7.1,14.9l2.1,14.8l-2.9,0.4c-4.1-7.4-6.5-16-6.5-25.1
	C140.3,62.5,140.4,60.8,140.5,59.2z M172.4,112.1l-0.2-6.8l12.5-5.3l23.9,3.1l4.4,8.4c-6.4,2.9-13.5,4.5-21,4.5
	C185.1,115.9,178.5,114.5,172.4,112.1z"/>
<g>
	<path fill="none" stroke="#000000" stroke-width="3" stroke-miterlimit="10" d="M157.6,137"/>
	<path fill="#FF0000" d="M157.6,137"/>
</g>
<g>
	<path fill="#FFFFFF" d="M212.265,170.702c20.241-10.011,33.803-31.904,34.609-35.226c0.806-3.321-0.494-4.07-2.805-6.51
		c-2.311-2.439-7.018-0.559-7.018-0.559s-21.26,17.388-31.208,24.236c-10.035,6.96-52.035,17.798-57.714,20.804
		s-45.119,15.851-51.736,24.41c0.027,2.716-1.858,9.594,5.076,6.133S178.89,187.042,212.265,170.702z"/>
	<g>
		<path fill="none" stroke="#000000" stroke-width="3" stroke-miterlimit="10" d="M183.414,142.976
			c3.339-0.707,6.071-1.442,8.131-1.893c4.395-1.138,9.461-2.558,16.154-4.68c8.817-2.883,18.584-7.896,22.209-8.739
			c6.368-1.478,12.328,0.317,12.328,0.317c2.894,2.268-21.296,20.414-27.104,24.846c-14.95,11.283-61.739,22.501-95.487,35.763
			c-12.023,4.682-17.287,9.451-17.287,9.451s9.289-3.142,15.856-4.644c14.587-3.483,78.276-16.55,94.685-26.6
			c21.183-13.047,31.829-31.564,31.928-34.9c5.058,7.646,1.512,14.121-1.58,18.525c-3.104,4.305-0.619,6.522-1.888,7.683
			c-0.71,0.791-4.29-0.487-7.34,2.603s-4.139,5.74-7.884,8.915c-3.757,3.075-0.73,6.435-3.121,9.143
			c-2.403,2.609-5.09-2.102-8.658,0.043c-3.555,2.245-5.595,3.701-11.795,6.569c-6.1,2.856-2.37,7.037-4.743,8.231
			c-2.25,1.381-6.583-4.439-11.254-2.261c-4.672,2.179-22.762,14.145-28.964,17.819c-6.302,3.686-1.235,12.238-3.226,14.091
			c-1.269,1.161-5.572-2.749-9.516-2.875c-2.319-0.021-4.545,1.559-6.822,3.548c-6.097,5.374-0.696,10.863-3.307,12.59
			c-2.611,1.727-4.51-1.467-9.118-2.923c-4.609-1.455-8.501,1.334-13.372-3.112c-23.416-21.133-19.488-44.376-19.488-44.376
			c1.66-2.921,2.65-2.236,7.409-1.201c4.747,0.935,12.882,1.56,18.801-2.785c5.82-4.333,11.989-15.759,11.375-20.822
			c-0.614-5.063-2.065-8.715,4.547-9.013c2.704-0.127,10.709-1.4,19.969-3.128l4.233-0.816
			C161.494,147.449,161.494,147.449,183.414,142.976z"/>
		<path fill="#36F055" d="M183.414,142.976c3.339-0.707,6.071-1.442,8.131-1.893c4.395-1.138,9.461-2.558,16.154-4.68
			c8.817-2.883,18.584-7.896,22.209-8.739c6.368-1.478,12.328,0.317,12.328,0.317c2.894,2.268-21.296,20.414-27.104,24.846
			c-14.95,11.283-61.739,22.501-95.487,35.763c-12.023,4.682-17.287,9.451-17.287,9.451s9.289-3.142,15.856-4.644
			c14.587-3.483,78.276-16.55,94.685-26.6c21.183-13.047,31.829-31.564,31.928-34.9c5.058,7.646,1.512,14.121-1.58,18.525
			c-3.104,4.305-0.619,6.522-1.888,7.683c-0.71,0.791-4.29-0.487-7.34,2.603s-4.139,5.74-7.884,8.915
			c-3.757,3.075-0.73,6.435-3.121,9.143c-2.403,2.609-5.09-2.102-8.658,0.043c-3.555,2.245-5.595,3.701-11.795,6.569
			c-6.1,2.856-2.37,7.037-4.743,8.231c-2.25,1.381-6.583-4.439-11.254-2.261c-4.672,2.179-22.762,14.145-28.964,17.819
			c-6.302,3.686-1.235,12.238-3.226,14.091c-1.269,1.161-5.572-2.749-9.516-2.875c-2.319-0.021-4.545,1.559-6.822,3.548
			c-6.097,5.374-0.696,10.863-3.307,12.59c-2.611,1.727-4.51-1.467-9.118-2.923c-4.609-1.455-8.501,1.334-13.372-3.112
			c-23.416-21.133-19.488-44.376-19.488-44.376c1.66-2.921,2.65-2.236,7.409-1.201c4.747,0.935,12.882,1.56,18.801-2.785
			c5.82-4.333,11.989-15.759,11.375-20.822c-0.614-5.063-2.065-8.715,4.547-9.013c2.704-0.127,10.709-1.4,19.969-3.128l4.233-0.816
			C161.494,147.449,161.494,147.449,183.414,142.976z"/>
	</g>
	<g>
		<g>
			<g>
				<path fill="none" stroke="#1D1D1B" stroke-width="3" d="M154.754,162.47c-0.199,0.024-0.397,0.048-0.608-0.027
					c-1.041-0.277-1.769-1.296-1.592-2.325l3.054-14.675c0.277-1.041,1.296-1.769,2.325-1.592c1.041,0.277,1.769,1.296,1.592,2.325
					l-3.054,14.675C156.282,161.781,155.548,162.374,154.754,162.47z"/>
			</g>
			<g>
				<path fill="none" stroke="#1D1D1B" stroke-width="3" d="M163.884,158.844c-0.199,0.024-0.397,0.048-0.608-0.027
					c-1.041-0.277-1.769-1.296-1.592-2.325l2.399-11.775c0.277-1.041,1.296-1.769,2.325-1.592c1.041,0.277,1.769,1.296,1.592,2.325
					l-2.399,11.775C165.412,158.155,164.678,158.748,163.884,158.844z"/>
			</g>
			<g>
				<path fill="none" stroke="#1D1D1B" stroke-width="3" d="M171.533,156.304c-0.199,0.024-0.397,0.048-0.608-0.027
					c-1.041-0.277-1.769-1.296-1.592-2.325l2.273-11.155c0.277-1.041,1.296-1.769,2.325-1.592c1.041,0.277,1.769,1.296,1.592,2.325
					l-2.273,11.155C173.062,155.615,172.328,156.208,171.533,156.304z"/>
			</g>
			<g>
				<path fill="none" stroke="#1D1D1B" stroke-width="3" d="M180.17,151.932c-0.199,0.024-0.397,0.048-0.608-0.027
					c-1.041-0.277-1.769-1.296-1.592-2.325l1.843-8.887c0.277-1.041,1.296-1.769,2.325-1.592c1.041,0.277,1.769,1.296,1.592,2.325
					l-1.843,8.887C181.698,151.243,180.964,151.835,180.17,151.932z"/>
			</g>
		</g>
		<g>
			<g>
				<path fill="#FFFF00" d="M154.754,162.47c-0.199,0.024-0.397,0.048-0.608-0.027c-1.041-0.277-1.769-1.296-1.592-2.325
					l3.054-14.675c0.277-1.041,1.296-1.769,2.325-1.592c1.041,0.277,1.769,1.296,1.592,2.325l-3.054,14.675
					C156.282,161.781,155.548,162.374,154.754,162.47z"/>
			</g>
			<g>
				<path fill="#FFFF00" d="M163.884,158.844c-0.199,0.024-0.397,0.048-0.608-0.027c-1.041-0.277-1.769-1.296-1.592-2.325
					l2.399-11.775c0.277-1.041,1.296-1.769,2.325-1.592c1.041,0.277,1.769,1.296,1.592,2.325l-2.399,11.775
					C165.412,158.155,164.678,158.748,163.884,158.844z"/>
			</g>
			<g>
				<path fill="#FFFF00" d="M171.533,156.304c-0.199,0.024-0.397,0.048-0.608-0.027c-1.041-0.277-1.769-1.296-1.592-2.325
					l2.273-11.155c0.277-1.041,1.296-1.769,2.325-1.592c1.041,0.277,1.769,1.296,1.592,2.325l-2.273,11.155
					C173.062,155.615,172.328,156.208,171.533,156.304z"/>
			</g>
			<g>
				<path fill="#FFFF00" d="M180.17,151.932c-0.199,0.024-0.397,0.048-0.608-0.027c-1.041-0.277-1.769-1.296-1.592-2.325
					l1.843-8.887c0.277-1.041,1.296-1.769,2.325-1.592c1.041,0.277,1.769,1.296,1.592,2.325l-1.843,8.887
					C181.698,151.243,180.964,151.835,180.17,151.932z"/>
			</g>
		</g>
	</g>
</g>
<g>
	<path fill="#496E2D" d="M232.6,65.2c0-5-0.9-9.8-2.5-14.2l-38.4-1.8L153.3,51c-1.6,4.4-2.5,9.2-2.5,14.2s0.9,9.8,2.5,14.2l38.4,1.8
		l38.4-1.8C231.7,75,232.6,70.2,232.6,65.2z"/>
	<path fill="#D80027" d="M191.6,106.1c17.6,0,32.6-11.1,38.4-26.7h-76.8C159,95,174,106.1,191.6,106.1z"/>
	<path fill="#F0F0F0" d="M153.2,50.9H230c-5.8-15.6-20.8-26.7-38.4-26.7S159,35.3,153.2,50.9z"/>
</g>
<ellipse fill="none" stroke="#000000" stroke-width="1.4754" stroke-miterlimit="10" cx="191.6" cy="65.2" rx="40.8" ry="40.6"/>
<g>
	<path d="M29.976,115.06c0,1.849-0.501,2.985-1.504,3.408c1.224,0.41,1.836,1.761,1.836,4.053v0.439
		c-0.013,1.725-0.314,2.969-0.903,3.73s-1.551,1.143-2.886,1.143H22.72v-17.188h3.721c1.283,0,2.191,0.298,2.725,0.894
		s0.804,1.593,0.811,2.993v0.528H29.976z M25.337,117.599h0.967c0.449,0,0.744-0.143,0.884-0.43s0.21-0.875,0.21-1.768v-1.035
		c-0.006-0.664-0.098-1.108-0.273-1.333s-0.479-0.337-0.908-0.337h-0.879L25.337,117.599L25.337,117.599z M25.337,125.802h0.928
		c0.521,0,0.885-0.179,1.094-0.537s0.312-1,0.312-1.924v-1.387c0-0.873-0.084-1.489-0.254-1.851s-0.495-0.542-0.977-0.542h-1.104
		L25.337,125.802L25.337,125.802z"/>
	<path d="M38.931,126.911c-0.599,0.746-1.561,1.118-2.886,1.118s-2.289-0.375-2.891-1.123s-0.903-1.911-0.903-3.486v-12.783h2.617
		v12.734c0,0.905,0.042,1.455,0.127,1.65s0.187,0.373,0.308,0.532s0.37,0.239,0.747,0.239s0.648-0.111,0.811-0.332
		s0.262-0.497,0.298-0.825s0.054-0.75,0.054-1.265v-12.734h2.617v12.783C39.83,125.001,39.53,126.165,38.931,126.911z"/>
	<path d="M42.31,127.833v-17.188h2.617v14.961h3.311v2.227H42.31z"/>
	<path d="M52.896,128.009c-1.081,0-1.925-0.425-2.534-1.274s-0.913-2.16-0.913-3.931v-7.471c0-1.588,0.311-2.799,0.933-3.633
		s1.61-1.25,2.964-1.25c1.686,0,2.757,0.628,3.213,1.885c0.273,0.755,0.41,1.787,0.41,3.096v1.221h-2.441v-1.797
		c0-0.788-0.083-1.341-0.249-1.66s-0.479-0.479-0.938-0.479s-0.783,0.19-0.972,0.571s-0.283,1.056-0.283,2.026v7.451
		c0,1.126,0.084,1.911,0.254,2.354s0.5,0.664,0.991,0.664s0.84-0.238,1.045-0.713s0.308-1.276,0.308-2.402v-2.314h-1.318v-1.904
		h3.604v9.385h-1.172l-0.4-1.689c-0.137,0.58-0.436,1.035-0.898,1.367S53.501,128.009,52.896,128.009z"/>
	<path d="M58.648,127.833l2.451-17.188h3.457l2.607,17.188h-2.441l-0.41-3.066h-2.773l-0.371,3.066
		C61.168,127.833,58.648,127.833,58.648,127.833z M64.039,122.667l-1.152-8.633h-0.039l-1.055,8.633H64.039z"/>
	<path d="M72.417,119.757l-0.84-0.039v8.115H68.96v-17.188h4.326c0.898,0,1.569,0.181,2.012,0.542s0.734,0.866,0.874,1.514
		s0.21,1.494,0.21,2.539s-0.111,1.841-0.332,2.388s-0.631,0.915-1.23,1.104c0.592,0.104,1.006,0.504,1.24,1.201
		s0.352,2.147,0.352,4.351s0.033,3.387,0.098,3.55h-2.617c-0.065-0.13-0.098-2.184-0.098-6.162c0-0.762-0.091-1.268-0.273-1.519
		S72.971,119.771,72.417,119.757z M71.587,117.687h1.045c0.332,0,0.578-0.075,0.737-0.225s0.27-0.407,0.332-0.771
		s0.093-0.921,0.093-1.67v-0.107c0-0.931-0.078-1.54-0.234-1.826s-0.518-0.43-1.084-0.43h-0.889V117.687z"/>
	<path d="M78.921,127.833v-17.188h2.617v17.188C81.538,127.833,78.921,127.833,78.921,127.833z"/>
	<path d="M83.873,123v-1.533h2.48v1.729c0,0.957,0.082,1.629,0.244,2.017s0.469,0.581,0.918,0.581s0.747-0.16,0.894-0.479
		s0.22-0.84,0.22-1.562s-0.13-1.353-0.391-1.89s-0.674-1.099-1.24-1.685l-1.27-1.309c-0.592-0.619-1.053-1.26-1.382-1.924
		s-0.493-1.432-0.493-2.305c0-1.419,0.273-2.474,0.82-3.164s1.488-1.035,2.822-1.035s2.238,0.402,2.71,1.206
		s0.708,1.978,0.708,3.521v1.064h-2.412v-1.23c0-0.833-0.072-1.431-0.215-1.792s-0.418-0.542-0.825-0.542s-0.7,0.137-0.879,0.41
		s-0.269,0.684-0.269,1.23s0.091,0.983,0.273,1.309s0.511,0.742,0.986,1.25l1.416,1.533c0.709,0.768,1.245,1.546,1.606,2.334
		s0.542,1.647,0.542,2.578c0,1.608-0.27,2.796-0.811,3.564s-1.486,1.152-2.837,1.152s-2.292-0.428-2.822-1.284
		S83.873,124.64,83.873,123z"/>
	<path d="M99.419,126.833c-0.592,0.797-1.523,1.196-2.793,1.196s-2.218-0.425-2.847-1.274s-0.942-2.072-0.942-3.667v-7.49
		c0-2.559,0.67-4.157,2.012-4.795c0.495-0.234,1.094-0.352,1.797-0.352c2.416,0,3.623,1.523,3.623,4.57v2.363H97.74v-2.197
		c0-0.885-0.075-1.519-0.225-1.899s-0.443-0.571-0.879-0.571s-0.739,0.202-0.908,0.605s-0.254,1.022-0.254,1.855v8.027
		c0,0.924,0.082,1.585,0.244,1.982s0.459,0.596,0.889,0.596s0.726-0.202,0.889-0.605s0.244-1.071,0.244-2.002v-2.461h2.568v2.432
		C100.308,124.806,100.012,126.035,99.419,126.833z"/>
	<path d="M102.437,127.833v-17.188h2.617v6.953h2.344v-6.953h2.617v17.188h-2.617v-7.988h-2.344v7.988
		C105.054,127.833,102.437,127.833,102.437,127.833z"/>
	<path d="M112.593,127.833v-17.188h5.762v2.256h-3.145v5h2.988v2.207h-2.988v5.469h3.262v2.256H112.593z"/>
	<path d="M124.019,119.757l-0.84-0.039v8.115h-2.617v-17.188h4.326c0.898,0,1.569,0.181,2.012,0.542s0.734,0.866,0.874,1.514
		s0.21,1.494,0.21,2.539s-0.111,1.841-0.332,2.388s-0.631,0.915-1.23,1.104c0.592,0.104,1.006,0.504,1.24,1.201
		s0.352,2.147,0.352,4.351s0.033,3.387,0.098,3.55h-2.617c-0.065-0.13-0.098-2.184-0.098-6.162c0-0.762-0.091-1.268-0.273-1.519
		S124.572,119.771,124.019,119.757z M123.189,117.687h1.045c0.332,0,0.578-0.075,0.737-0.225s0.27-0.407,0.332-0.771
		s0.093-0.921,0.093-1.67v-0.107c0-0.931-0.078-1.54-0.234-1.826s-0.518-0.43-1.084-0.43h-0.889V117.687z"/>
	<path d="M22.613,151.833v-17.188h5.898v2.275H25.23v4.57h3.047v2.285H25.23v8.057L22.613,151.833L22.613,151.833z"/>
	<path d="M36.978,150.91c-0.599,0.746-1.561,1.118-2.886,1.118s-2.289-0.374-2.891-1.123c-0.602-0.748-0.903-1.91-0.903-3.486
		v-12.783h2.617v12.734c0,0.905,0.042,1.455,0.127,1.65s0.187,0.373,0.308,0.532c0.121,0.16,0.37,0.239,0.747,0.239
		s0.648-0.11,0.811-0.332c0.163-0.221,0.262-0.496,0.298-0.825c0.036-0.328,0.054-0.75,0.054-1.265v-12.734h2.617v12.783
		C37.876,149.001,37.577,150.165,36.978,150.91z"/>
	<path d="M40.015,146.999v-1.533h2.48v1.729c0,0.957,0.082,1.63,0.244,2.017c0.163,0.388,0.469,0.581,0.918,0.581
		s0.747-0.159,0.894-0.479c0.146-0.318,0.22-0.84,0.22-1.562s-0.13-1.353-0.391-1.89s-0.674-1.099-1.24-1.685l-1.27-1.309
		c-0.592-0.618-1.053-1.26-1.382-1.924s-0.493-1.432-0.493-2.305c0-1.419,0.273-2.474,0.82-3.164
		c0.547-0.689,1.488-1.035,2.822-1.035s2.238,0.402,2.71,1.206c0.472,0.805,0.708,1.978,0.708,3.521v1.064h-2.412v-1.23
		c0-0.833-0.072-1.431-0.215-1.792s-0.418-0.542-0.825-0.542s-0.7,0.137-0.879,0.41s-0.269,0.684-0.269,1.23
		s0.091,0.983,0.273,1.309s0.511,0.742,0.986,1.25l1.416,1.533c0.709,0.769,1.245,1.547,1.606,2.334
		c0.361,0.788,0.542,1.647,0.542,2.578c0,1.608-0.27,2.797-0.811,3.564c-0.541,0.769-1.486,1.152-2.837,1.152
		s-2.292-0.428-2.822-1.284C40.28,149.889,40.015,148.64,40.015,146.999z"/>
	<path d="M48.853,146.999v-1.533h2.48v1.729c0,0.957,0.082,1.63,0.244,2.017c0.163,0.388,0.469,0.581,0.918,0.581
		s0.747-0.159,0.894-0.479c0.146-0.318,0.22-0.84,0.22-1.562s-0.13-1.353-0.391-1.89s-0.674-1.099-1.24-1.685l-1.27-1.309
		c-0.592-0.618-1.053-1.26-1.382-1.924s-0.493-1.432-0.493-2.305c0-1.419,0.273-2.474,0.82-3.164
		c0.547-0.689,1.488-1.035,2.822-1.035s2.238,0.402,2.71,1.206c0.472,0.805,0.708,1.978,0.708,3.521v1.064h-2.412v-1.23
		c0-0.833-0.072-1.431-0.215-1.792s-0.418-0.542-0.825-0.542s-0.7,0.137-0.879,0.41s-0.269,0.684-0.269,1.23
		s0.091,0.983,0.273,1.309s0.511,0.742,0.986,1.25l1.416,1.533c0.709,0.769,1.245,1.547,1.606,2.334
		c0.361,0.788,0.542,1.647,0.542,2.578c0,1.608-0.27,2.797-0.811,3.564c-0.541,0.769-1.486,1.152-2.837,1.152
		s-2.292-0.428-2.822-1.284C49.118,149.889,48.853,148.64,48.853,146.999z"/>
	<path d="M65.386,139.06c0,1.85-0.501,2.985-1.504,3.408c1.224,0.41,1.836,1.762,1.836,4.053v0.439
		c-0.013,1.726-0.314,2.969-0.903,3.73s-1.551,1.143-2.886,1.143H58.13v-17.188h3.721c1.283,0,2.191,0.298,2.725,0.894
		s0.804,1.594,0.811,2.993L65.386,139.06L65.386,139.06z M60.748,141.599h0.967c0.449,0,0.744-0.143,0.884-0.43
		c0.14-0.286,0.21-0.875,0.21-1.768v-1.035c-0.006-0.664-0.098-1.108-0.273-1.333s-0.479-0.337-0.908-0.337h-0.879L60.748,141.599
		L60.748,141.599z M60.748,149.802h0.928c0.521,0,0.885-0.179,1.094-0.537c0.208-0.357,0.312-0.999,0.312-1.924v-1.387
		c0-0.872-0.084-1.489-0.254-1.851s-0.495-0.542-0.977-0.542h-1.104L60.748,149.802L60.748,149.802z"/>
	<path d="M66.978,151.833l2.451-17.188h3.457l2.607,17.188h-2.441l-0.41-3.066h-2.773l-0.371,3.066H66.978z M72.369,146.667
		l-1.152-8.633h-0.039l-1.055,8.633H72.369z"/>
	<path d="M77.291,151.833v-17.188h2.617v14.961h3.311v2.227H77.291z"/>
	<path d="M84.722,151.833v-17.188h2.617v14.961h3.311v2.227H84.722z"/>
	<path d="M92.154,151.833v-17.188h5.762v2.256h-3.145v5h2.988v2.207h-2.988v5.469h3.262v2.256L92.154,151.833L92.154,151.833z"/>
	<path d="M103.58,143.757l-0.84-0.039v8.115h-2.617v-17.188h4.326c0.898,0,1.569,0.181,2.012,0.542s0.734,0.866,0.874,1.514
		c0.14,0.648,0.21,1.494,0.21,2.539s-0.111,1.841-0.332,2.388s-0.631,0.915-1.23,1.104c0.592,0.104,1.006,0.505,1.24,1.201
		c0.234,0.697,0.352,2.147,0.352,4.351s0.033,3.388,0.098,3.55h-2.617c-0.065-0.13-0.098-2.184-0.098-6.162
		c0-0.762-0.091-1.268-0.273-1.519C104.501,143.902,104.133,143.771,103.58,143.757z M102.75,141.687h1.045
		c0.332,0,0.578-0.074,0.737-0.225c0.16-0.149,0.27-0.406,0.332-0.771c0.062-0.364,0.093-0.921,0.093-1.67v-0.107
		c0-0.931-0.078-1.539-0.234-1.826c-0.156-0.286-0.518-0.43-1.084-0.43h-0.889V141.687z"/>
	<path d="M22.613,175.833v-17.188h3.857c1.263,0,2.179,0.373,2.749,1.118c0.57,0.746,0.854,1.845,0.854,3.296l0.01,7.754
		c0,1.732-0.287,3.002-0.859,3.809c-0.573,0.808-1.52,1.211-2.842,1.211H22.613z M25.23,173.802h0.859
		c0.482,0,0.832-0.156,1.05-0.469s0.327-0.885,0.327-1.719l-0.01-8.486c0-0.892-0.109-1.526-0.327-1.904
		c-0.218-0.377-0.594-0.566-1.128-0.566H25.23V173.802z"/>
	<path d="M32.437,175.833v-17.188h5.762v2.256h-3.145v5h2.988v2.207h-2.988v5.469h3.262v2.256L32.437,175.833L32.437,175.833z"/>
	<path d="M40.064,170.999v-1.533h2.48v1.729c0,0.957,0.082,1.63,0.244,2.017c0.163,0.388,0.469,0.581,0.918,0.581
		s0.747-0.159,0.894-0.479c0.146-0.318,0.22-0.84,0.22-1.562s-0.13-1.353-0.391-1.89s-0.674-1.099-1.24-1.685l-1.27-1.309
		c-0.592-0.618-1.053-1.26-1.382-1.924s-0.493-1.432-0.493-2.305c0-1.419,0.273-2.474,0.82-3.164
		c0.547-0.689,1.488-1.035,2.822-1.035s2.238,0.402,2.71,1.206c0.472,0.805,0.708,1.978,0.708,3.521v1.064h-2.412v-1.23
		c0-0.833-0.072-1.431-0.215-1.792s-0.418-0.542-0.825-0.542s-0.7,0.137-0.879,0.41s-0.269,0.684-0.269,1.23
		s0.091,0.983,0.273,1.309s0.511,0.742,0.986,1.25l1.416,1.533c0.709,0.769,1.245,1.547,1.606,2.334
		c0.361,0.788,0.542,1.647,0.542,2.578c0,1.608-0.27,2.797-0.811,3.564c-0.541,0.769-1.486,1.152-2.837,1.152
		s-2.292-0.428-2.822-1.284C40.329,173.889,40.064,172.64,40.064,170.999z"/>
	<path d="M58.365,174.881c-0.619,0.766-1.489,1.147-2.612,1.147s-1.996-0.34-2.617-1.021c-0.622-0.68-0.933-1.671-0.933-2.974
		v-3.066h2.529v2.939c0,0.951,0.153,1.53,0.459,1.738c0.137,0.092,0.306,0.137,0.508,0.137c0.397,0,0.659-0.162,0.786-0.488
		c0.127-0.325,0.19-0.84,0.19-1.543v-13.105h2.617v12.979C59.292,173.03,58.983,174.116,58.365,174.881z"/>
	<path d="M60.992,175.833l2.451-17.188H66.9l2.607,17.188h-2.441l-0.41-3.066h-2.773l-0.371,3.066H60.992z M66.382,170.667
		l-1.152-8.633h-0.039l-1.055,8.633H66.382z"/>
	<path d="M71.304,175.833v-17.188h2.617v6.953h2.344v-6.953h2.617v17.188h-2.617v-7.988h-2.344v7.988H71.304z"/>
	<path d="M84.917,167.757l-0.84-0.039v8.115H81.46v-17.188h4.326c0.898,0,1.569,0.181,2.012,0.542s0.734,0.866,0.874,1.514
		c0.14,0.648,0.21,1.494,0.21,2.539s-0.111,1.841-0.332,2.388s-0.631,0.915-1.23,1.104c0.592,0.104,1.006,0.505,1.24,1.201
		c0.234,0.697,0.352,2.147,0.352,4.351s0.033,3.388,0.098,3.55h-2.617c-0.065-0.13-0.098-2.184-0.098-6.162
		c0-0.762-0.091-1.268-0.273-1.519C85.839,167.902,85.471,167.771,84.917,167.757z M84.087,165.687h1.045
		c0.332,0,0.578-0.074,0.737-0.225c0.16-0.149,0.27-0.406,0.332-0.771c0.062-0.364,0.093-0.921,0.093-1.67v-0.107
		c0-0.931-0.078-1.539-0.234-1.826c-0.156-0.286-0.518-0.43-1.084-0.43h-0.889V165.687z"/>
	<path d="M91.324,175.833v-17.188h5.762v2.256h-3.145v5h2.988v2.207h-2.988v5.469h3.262v2.256L91.324,175.833L91.324,175.833z"/>
	<path d="M98.951,170.999v-1.533h2.48v1.729c0,0.957,0.082,1.63,0.244,2.017c0.163,0.388,0.469,0.581,0.918,0.581
		s0.747-0.159,0.894-0.479c0.146-0.318,0.22-0.84,0.22-1.562s-0.13-1.353-0.391-1.89s-0.674-1.099-1.24-1.685l-1.27-1.309
		c-0.592-0.618-1.053-1.26-1.382-1.924s-0.493-1.432-0.493-2.305c0-1.419,0.273-2.474,0.82-3.164
		c0.547-0.689,1.488-1.035,2.822-1.035s2.238,0.402,2.71,1.206c0.472,0.805,0.708,1.978,0.708,3.521v1.064h-2.412v-1.23
		c0-0.833-0.072-1.431-0.215-1.792s-0.418-0.542-0.825-0.542s-0.7,0.137-0.879,0.41s-0.269,0.684-0.269,1.23
		s0.091,0.983,0.273,1.309s0.511,0.742,0.986,1.25l1.416,1.533c0.709,0.769,1.245,1.547,1.606,2.334
		c0.361,0.788,0.542,1.647,0.542,2.578c0,1.608-0.27,2.797-0.811,3.564c-0.541,0.769-1.486,1.152-2.837,1.152
		s-2.292-0.428-2.822-1.284C99.216,173.889,98.951,172.64,98.951,170.999z"/>
</g>
</svg>
