<?xml version="1.0" encoding="utf-8"?>
<!-- Generator: Adobe Illustrator 17.0.0, SVG Export Plug-In . SVG Version: 6.00 Build 0)  -->
<!DOCTYPE svg PUBLIC "-//W3C//DTD SVG 1.1//EN" "http://www.w3.org/Graphics/SVG/1.1/DTD/svg11.dtd">
<svg version="1.1" id="Layer_1" xmlns="http://www.w3.org/2000/svg" xmlns:xlink="http://www.w3.org/1999/xlink" x="0px" y="0px"
	 width="256px" height="256px" viewBox="0 0 256 256" enable-background="new 0 0 256 256" xml:space="preserve">
	<g>
		<path fill="#FFFFFF" d="M192,10.3c-17.1,0-32.4,8-42.3,20.6h-0.3v0.3c-7.1,9.1-11.4,20.6-11.4,33c0,29.7,24.2,53.9,53.9,53.9
		s53.9-24.2,53.9-53.9S221.7,10.3,192,10.3z"/>
		<path d="M192,10.3c-17.1,0-32.4,8-42.3,20.6h-0.3v0.3c-7.1,9.1-11.4,20.6-11.4,33c0,29.7,24.2,53.9,53.9,53.9s53.9-24.2,53.9-53.9
		S221.7,10.3,192,10.3z M208.6,100.9l-23.1-3L183.7,78l17.6-10.7L217,82.4L208.6,100.9z M171.2,103.3L151.9,89l-2.1-14.7l11.8-7.4
		L181.5,78l1.9,20.2L171.2,103.3z M149.1,72.2L142,57.4l9.3-15.3l9.7,2l-0.2,20.8L149.1,72.2z M188.3,19l21.3,2.9l7.3,13.6
		l-16.1,7.9l-16.5-11.5L188.3,19z M231.4,74.4l-12.6,6.7l-16.9-16.2l0.2-19.7l16-7.9L232.3,50L231.4,74.4z M233.5,74.9l1-24.5
		l7.1-0.9c1.4,4.7,2.1,9.6,2.1,14.7c0,4.6-0.6,9-1.7,13.2L233.5,74.9z M240.9,47.4l-7.1,0.9l-14.6-13.1L212,21.9l6.1-2.4
		C228.7,25.7,236.9,35.6,240.9,47.4z M178.8,14.2l7.4,4.1L182,32.1L162.3,42l-10.5-2.1l-0.2-8.1C158.5,23.4,167.9,17,178.8,14.2z
		 M149.7,40.5l-8.5,14.1c1.4-7.3,4.3-14.1,8.4-20L149.7,40.5z M140.5,59.2l7.1,14.9l2.1,14.8l-2.9,0.4c-4.1-7.4-6.5-16-6.5-25.1
		C140.3,62.5,140.4,60.8,140.5,59.2z M172.4,112.1l-0.2-6.8l12.5-5.3l23.9,3.1l4.4,8.4c-6.4,2.9-13.5,4.5-21,4.5
		C185.1,115.9,178.5,114.5,172.4,112.1z"/>
	</g>
	<g>
		<path fill="#FCFF00" stroke="#000000" stroke-miterlimit="10" d="M181.7,112c-0.3-0.4-0.8-0.5-1.3-0.5h-7.9c0.1,0,0.1-0.8,0.1-0.9
		c1.1,0,0.2-1.1,0.2-1.1H83.2c0,0-0.9,1.1,0.2,1.1c0,0.1,0,0.9,0.1,0.9h-7.9c-0.5,0-1,0.1-1.3,0.5s-0.4,0.8-0.3,1.3l11.3,50.6
		c0.2,0.7,0.8,1.6,1.6,1.6h9.4c0.4,0,0.9-0.5,1.2-0.8c0.3-0.3,0.5-0.9,0.5-1.3c0-0.2,0-17.2,9.1-20.3c0.2,0.9,1.1,1.6,2.1,1.6
		c1.2,0,2.2-1,2.2-2.2c0-0.1,0-0.2,0-0.4c2.8,1.2,6,2.3,9.4,3.2l0.1,2.1c0,0-2.5,0.3-2.5,2.7s3.2,3.4,3.2,3.4h1.9v10.7
		c0,0,1.1,0.9,0.2,1.3c-0.9,0.4-6.4,2.4-6.6,6.1c-0.2,3.7-1.4,31.9-7.3,42.9c-1.5,0-2.3,0-2.3,0v4h-4v25c0,0-1.1,0-2,0
		c-2.4,0-3,11-3,11h59c0,0-0.7-11-3-11c-0.9,0-3,0-3,0v-25h-3v-4c0,0-0.8,0-2.3,0c-5.9-11-7-39.2-7.2-42.9s-6.4-5.7-7.2-6.1
		c-0.9-0.4-0.3-1.3-0.3-1.3v-10.7h2.9c0,0,3.2-1,3.2-3.4s-2.5-2.6-2.5-2.6l0.1-2.1c3.4-0.9,6.5-2,9.4-3.2c0,0.1,0,0.2,0,0.3
		c0,1.2,1,2.2,2.2,2.2c1,0,1.9-0.7,2.1-1.6c9.2,3.1,9.1,20.1,9.1,20.2c0,0.4,0.2,1.2,0.5,1.5s0.7,0.8,1.2,0.8h9.4
		c0.8,0,1.4-0.9,1.6-1.6l11.3-50.4C182.1,113,182,112.4,181.7,112z M107.7,140.8v-0.1c-5.5,1.1-9.5,5.9-11.5,13.3
		c-1,3.5-1.3,6.5-1.4,8.5h-6.5l-10.6-48h6.8c2,6,7.9,18.2,23.6,26C107.9,140.6,107.8,140.7,107.7,140.8z M167.7,162.5h-6.5
		c-0.1-2-0.4-5.3-1.4-8.8c-2-7.3-6-12.2-11.5-13.2l0,0c-0.1,0-0.2,0-0.4-0.1c15.7-7.9,21.6-19.9,23.6-25.9h6.8L167.7,162.5z"/>
		<path fill="#FFFFFF" d="M120.3,110.6l32.7,0.2c0,0-0.2,7.8-11.1,7.8c-1.7,0-9.6-0.2-12.2-0.2C127,118.5,120.5,117.6,120.3,110.6z"
		/>
		<rect x="127" y="145" fill="#FFFFFF" width="4" height="1"/>
		<rect x="126" y="148" fill="#FFFFFF" width="6" height="2"/>
		<rect x="127" y="154" fill="#FFFFFF" width="3" height="9"/>
		<path fill="#ABD100" d="M139.4,212h-10.3l0.5-42h7.2c0,0-0.5,10.2,0.3,21.7C138,203.1,139.4,212,139.4,212z"/>
		<polygon fill="#FFFFFF" points="138.1,218 124.4,218 125.7,216 136.8,216 	"/>
		<path fill="#ABD100" d="M130.9,144h3.9l0.2,0.5c0,0,27.2-6.7,35.2-29.1c0.4-1.7-1.5-4.7-3.3,0c-2.8,7.6-17.3,23.2-35.8,25
		C127.7,141,128.7,144,130.9,144z"/>
		<rect x="131" y="145" fill="#ABD100" width="3" height="1"/>
		<rect x="132" y="148" fill="#ABD100" width="3" height="2"/>
		<rect x="130" y="154" fill="#ABD100" width="1" height="9"/>
		<path fill="#FFFFFF" d="M136.2,212h-10.3l0.5-42h7.2c0,0-0.5,10.2,0.3,21.7C134.7,203.1,136.2,212,136.2,212z"/>
		<rect x="137" y="212" fill="#ABD100" width="5" height="2"/>
		<rect x="138" y="214" fill="#ABD100" width="5" height="4"/>
		<rect x="140" y="218" fill="#ABD100" width="5" height="26"/>
		<path fill="#FF9F00" d="M112.5,212h3.6c0,0,3.6-12.5,3.6-20.5s0-21.6,0-21.6l-1,0.1c0,0-0.1,10.2-1,21.6
		C116.9,203.1,112.5,212,112.5,212z"/>
		<path fill="#FF9F00" d="M125.1,144h-3.9l-0.3,0.5c0,0-27.6-6.2-35.1-29.8c0.2,0.4-0.5-1.4,1.3-1.8c0.5-0.1,1.1,0.1,1.9,1.8
		c2.1,4.6,17.3,23.9,35.8,25.7C128.3,141,127.3,144,125.1,144z"/>
		<rect x="122" y="145" fill="#FF9F00" width="3" height="1"/>
		<rect x="121.3" y="148.4" fill="#FF9F00" width="1.4" height="1.4"/>
		<rect x="124" y="154" fill="#FF9F00" width="1" height="9"/>
		<rect x="111" y="212" fill="#FF9F00" width="4" height="2"/>
		<rect x="109" y="214" fill="#FF9F00" width="4" height="4"/>
		<rect x="108" y="218" fill="#FF9F00" width="2" height="26"/>
		<line fill="none" stroke="#957E78" stroke-miterlimit="10" x1="123" y1="153.5" x2="133" y2="153.5"/>
		<line fill="none" stroke="#957E78" stroke-miterlimit="10" x1="120" y1="145.5" x2="136" y2="145.5"/>
		<line fill="none" stroke="#957E78" stroke-miterlimit="10" x1="123" y1="164.5" x2="132" y2="164.5"/>
		<line fill="none" stroke="#957E78" stroke-miterlimit="10" x1="108" y1="214.5" x2="147" y2="214.5"/>
		<line fill="none" stroke="#957E78" stroke-miterlimit="10" x1="107" y1="218.5" x2="149" y2="218.5"/>
		<line fill="none" stroke="#957E78" stroke-miterlimit="10" x1="103" y1="243.5" x2="151" y2="243.5"/>
	</g>
	<g>
		<g>
			<path fill="#FFFF00" d="M48.013,208.447h-7.899v-31.952h7.768c2.594,0,4.514,0.674,5.706,2.003c1.164,1.3,1.736,3.273,1.749,6.037
			v0.896c0,2.465-0.499,4.344-1.487,5.618c1.36,1.414,2.046,3.74,2.046,6.95v0.74c-0.025,3.284-0.625,5.636-1.835,7.201
			C52.774,207.604,50.739,208.447,48.013,208.447z M43.114,205.447h4.899c1.774,0,2.976-0.439,3.675-1.343
			c0.538-0.695,1.184-2.192,1.208-5.377v-0.729c0-3.127-0.696-4.945-2.069-5.404l-0.561-0.188c0.304,0.302,0.499,0.627,0.619,0.884
			c0.389,0.831,0.569,2.023,0.569,3.755v2.336c0,1.869-0.232,3.139-0.73,3.994c-0.358,0.616-1.243,1.65-3.139,1.65h-3.062v-13.511
			h3.08l-0.54-0.181l0.298-0.126h-2.837V179.95h2.98c1.503,0,2.304,0.622,2.712,1.145c0.516,0.657,0.764,1.66,0.778,3.153v1.759
			c0,1.798-0.156,2.919-0.505,3.635c-0.048,0.1-0.11,0.21-0.188,0.325l0.42-0.177c1.073-0.453,1.617-1.92,1.617-4.359v-0.889
			c-0.012-2.445-0.541-3.548-0.983-4.041c-0.746-0.831-2.3-1.006-3.472-1.006h-4.768L43.114,205.447L43.114,205.447z
			 M47.523,202.025h0.062c0.454,0,0.521-0.115,0.546-0.158c0.054-0.093,0.323-0.648,0.323-2.486v-2.336
			c0-1.688-0.2-2.299-0.286-2.482c-0.014-0.02-0.106-0.048-0.287-0.048h-0.359L47.523,202.025L47.523,202.025z M47.523,188.208
			h0.128c0.077,0,0.137-0.004,0.181-0.01c0.06-0.234,0.161-0.834,0.161-2.191v-1.744c-0.007-0.768-0.091-1.134-0.138-1.279
			c-0.06-0.015-0.166-0.032-0.333-0.033v5.257H47.523z"/>
		</g>
		<g>
			<path fill="#FFFF00" d="M64.061,208.776c-2.699,0-4.73-0.825-6.038-2.452c-1.247-1.549-1.853-3.777-1.853-6.812v-23.033h7.409
			v22.951c0,1.781,0.104,2.209,0.116,2.252c0.043,0.094,0.104,0.207,0.175,0.32c0.108,0.008,0.329,0.006,0.401-0.008
			c0.089-0.149,0.147-0.35,0.174-0.596c0.055-0.498,0.082-1.16,0.082-1.969v-22.951h7.409v23.033c0,3.046-0.604,5.276-1.845,6.82
			C68.787,207.954,66.758,208.776,64.061,208.776z M59.169,179.479v20.033c0,2.291,0.4,3.951,1.19,4.933
			c0.721,0.896,1.931,1.332,3.701,1.332c1.769,0,2.976-0.433,3.691-1.323c0.785-0.977,1.183-2.639,1.183-4.941V179.48h-1.409v19.951
			c0,0.93-0.033,1.681-0.1,2.294c-0.088,0.815-0.352,1.526-0.784,2.114c-0.394,0.535-1.159,1.172-2.574,1.172
			c-1.128,0-1.954-0.336-2.455-0.998c-0.273-0.362-0.508-0.768-0.698-1.205c-0.203-0.468-0.337-1.221-0.337-3.377V179.48
			L59.169,179.479C59.169,179.48,59.169,179.479,59.169,179.479z"/>
		</g>
		<g>
			<path fill="#FFFF00" d="M86.099,208.447H73.113v-31.952h7.409v25.202h5.577V208.447z M76.113,205.447h6.985v-0.75h-5.577v-25.202
			h-1.409L76.113,205.447L76.113,205.447z"/>
		</g>
		<g>
			<path fill="#FFFF00" d="M92.445,208.743c-2.291,0-4.188-0.959-5.488-2.773c-1.224-1.707-1.819-4.158-1.819-7.494v-12.584
			c0-2.994,0.628-5.354,1.868-7.017c1.342-1.798,3.426-2.709,6.195-2.709c4.391,0,6.133,2.264,6.822,4.163
			c0.525,1.451,0.781,3.324,0.781,5.727v3.557h-7.112v-4.527c0-1.46-0.187-1.968-0.242-2.087c-0.013-0.001-0.1-0.016-0.257-0.016
			c-0.229,0-0.244,0.03-0.292,0.129c-0.076,0.152-0.321,0.8-0.321,2.747v3.78h8.225v18.809h-4.66l-0.186-0.782
			C94.938,208.38,93.756,208.743,92.445,208.743z M93.202,179.166c-1.796,0-3.036,0.491-3.791,1.503
			c-0.845,1.132-1.273,2.89-1.273,5.223v12.584c0,2.649,0.423,4.583,1.257,5.747c0.743,1.037,1.712,1.521,3.049,1.521
			c0.705,0,1.301-0.183,1.823-0.557c0.243-0.175,0.438-0.375,0.591-0.61c-0.487,0.274-1.053,0.417-1.681,0.417
			c-1.446,0-2.565-0.76-3.071-2.084c-0.359-0.938-0.526-2.368-0.526-4.499v-12.552c0-1.911,0.201-3.207,0.633-4.079
			c0.574-1.159,1.633-1.797,2.981-1.797c1.8,0,2.596,1.011,2.91,1.613c0.402,0.773,0.589,1.882,0.589,3.489v1.527h1.112v-0.557
			c0-2.02-0.202-3.603-0.601-4.704C96.864,180.414,96.079,179.166,93.202,179.166z M94.735,192.847h2.221v5.398
			c0,2.124-0.209,3.643-0.641,4.642c-0.141,0.325-0.312,0.616-0.51,0.87l2-0.001v-11.117h-3.07V192.847z M92.979,201.971
			c0.003,0,0.06,0.022,0.199,0.022c0.181,0,0.255,0,0.383-0.296c0.147-0.342,0.395-1.245,0.395-3.452v-2.398H92.58v2.563
			c0,2.235,0.206,3.107,0.329,3.428C92.945,201.933,92.975,201.966,92.979,201.971C92.978,201.971,92.978,201.971,92.979,201.971z"
			/>
		</g>
		<g>
			<path fill="#FFFF00" d="M118.224,208.447h-7.17l-0.691-5.165h-2.03l-0.625,5.165h-7.303l4.557-31.952h8.414L118.224,208.447z
			 M113.679,205.447h1.056l-3.938-25.952h-3.232l-3.701,25.952h1.186l0.625-5.165h7.314L113.679,205.447z M112.929,199.745h-7.191
			l2.144-17.542h2.706L112.929,199.745z M109.126,196.745h0.376l-0.196-1.47L109.126,196.745z"/>
		</g>
		<g>
			<path fill="#FFFF00" d="M134.438,208.447h-7.549l-0.415-0.827c-0.223-0.442-0.324-0.645-0.324-11.053
			c0-1.023-0.108-1.471-0.162-1.629c-0.081-0.029-0.255-0.075-0.572-0.092v13.601h-7.409v-31.952h8.788
			c1.886,0,3.304,0.409,4.336,1.251c1.012,0.824,1.681,1.967,1.99,3.395c0.261,1.209,0.388,2.711,0.388,4.595
			c0,1.974-0.219,3.473-0.669,4.585c-0.193,0.477-0.451,0.903-0.768,1.276c0.317,0.407,0.599,0.92,0.815,1.565
			c0.458,1.36,0.671,3.841,0.671,7.806c0,4.144,0.071,5.252,0.105,5.543L134.438,208.447z M129.216,205.447h1.387
			c-0.028-0.933-0.045-2.335-0.045-4.479c0-4.629-0.322-6.278-0.515-6.85c-0.308-0.916-0.726-0.989-0.926-1.024l-0.192-2.908
			c0.58-0.183,0.93-0.488,1.133-0.991c0.206-0.507,0.45-1.519,0.45-3.459c0-1.645-0.107-2.978-0.319-3.961
			c-0.164-0.756-0.477-1.313-0.955-1.704c-0.462-0.376-1.305-0.575-2.44-0.575h-5.788v25.952h1.409v-13.741l2.984,0.139
			c1.387,0.032,2.409,0.465,3.003,1.283c0.516,0.71,0.748,1.771,0.748,3.439C129.149,201.654,129.182,204.188,129.216,205.447z
			 M125.691,191.355h-3.26v-11.472h2.997c1.919,0,2.769,0.818,3.143,1.505c0.4,0.735,0.579,1.905,0.579,3.795v0.182
			c0,1.356-0.059,2.358-0.178,3.062c-0.163,0.957-0.494,1.657-1.012,2.144C127.403,191.092,126.641,191.355,125.691,191.355z
			 M125.431,188.355h0.26c0.101,0,0.173-0.007,0.221-0.015c0.022-0.064,0.064-0.197,0.102-0.415
			c0.061-0.362,0.135-1.103,0.135-2.561v-0.182c0-1.4-0.115-2.017-0.177-2.248c-0.092-0.023-0.262-0.052-0.541-0.052V188.355z"/>
		</g>
		<g>
			<path fill="#FFFF00" d="M142.193,208.447h-7.408v-31.952h7.408V208.447z M137.785,205.447h1.408v-25.952h-1.408V205.447z"/>
		</g>
		<g>
			<path fill="#FFFF00" d="M150.72,208.776c-2.819,0-4.848-0.967-6.029-2.873c-1.054-1.701-1.565-4.022-1.565-7.099v-4.083h5.325
			l-1.775-1.83c-1.107-1.155-1.979-2.371-2.597-3.621c-0.653-1.32-0.985-2.851-0.985-4.547c0-2.767,0.559-4.814,1.707-6.263
			c1.215-1.533,3.21-2.312,5.929-2.312c2.808,0,4.778,0.933,5.858,2.773c0.94,1.604,1.398,3.791,1.398,6.688v3.293h-4.687
			l1.048,1.135c1.298,1.405,2.297,2.859,2.968,4.324c0.696,1.52,1.05,3.19,1.05,4.968c0,3.054-0.536,5.3-1.639,6.867
			C155.522,207.909,153.501,208.776,150.72,208.776z M146.125,197.722v1.083c0,2.467,0.375,4.323,1.116,5.519
			c0.223,0.359,0.9,1.453,3.479,1.453c1.772,0,2.935-0.427,3.553-1.305c0.725-1.03,1.092-2.76,1.092-5.141
			c0-1.343-0.262-2.594-0.776-3.718c-0.539-1.176-1.361-2.366-2.444-3.539l-2.386-2.583c-0.889-0.95-1.502-1.734-1.869-2.392
			c-0.432-0.771-0.651-1.76-0.651-2.936c0-1.23,0.229-2.177,0.698-2.895c0.577-0.883,1.549-1.369,2.735-1.369
			c1.301,0,2.315,0.678,2.784,1.86c0.319,0.805,0.468,1.939,0.468,3.571v0.572h1.062v-0.293c0-2.316-0.332-4.056-0.986-5.171
			c-0.188-0.319-0.758-1.291-3.271-1.291c-1.756,0-2.96,0.396-3.578,1.176c-0.702,0.885-1.058,2.364-1.058,4.398
			c0,1.23,0.227,2.312,0.674,3.216c0.483,0.977,1.179,1.941,2.067,2.87l2.132,2.196c1.062,1.098,1.856,2.184,2.362,3.229
			c0.536,1.106,0.809,2.397,0.809,3.837c0,1.468-0.161,2.503-0.507,3.257c-0.288,0.629-1.044,1.682-2.869,1.682
			c-1.354,0-2.422-0.692-2.929-1.898c-0.36-0.856-0.528-2.12-0.528-3.978v-1.412h-1.179L146.125,197.722L146.125,197.722z
			 M150.304,196.956v2.178c0,1.91,0.205,2.604,0.294,2.814c0.004,0.073,0.239,0.065,0.337,0.05c0.072-0.206,0.202-0.743,0.202-1.927
			c0-0.982-0.171-1.833-0.508-2.528C150.536,197.352,150.428,197.155,150.304,196.956z M150.681,182.906
			c-0.207,0-0.26,0.026-0.261,0.026c-0.009,0.033-0.183,0.343-0.183,1.231c0,0.817,0.146,1.252,0.27,1.472
			c0.08,0.143,0.208,0.342,0.416,0.614v-0.918C150.923,183.79,150.765,183.141,150.681,182.906z"/>
		</g>
		<g>
			<path fill="#FFFF00" d="M166.109,208.776c-2.63,0-4.649-0.927-6.002-2.754c-1.248-1.688-1.881-4.066-1.881-7.069v-12.618
			c0-4.919,1.428-8.092,4.245-9.431c1.031-0.49,2.266-0.738,3.67-0.738c2.84,0,7.604,1.195,7.604,9.199v5.48h-7.261v-5.201
			c0-1.699-0.172-2.389-0.274-2.649c0.073,0-0.143-0.015-0.188-0.004c-0.002,0.009-0.021,0.038-0.042,0.091
			c-0.117,0.278-0.312,0.977-0.312,2.546v13.522c0,1.775,0.188,2.497,0.299,2.77c0.014,0.034,0.026,0.057,0.035,0.072
			c0.009-0.001,0.036,0.001,0.074,0.001c0.033,0,0.057-0.002,0.073-0.004c0.003-0.013,0.017-0.038,0.032-0.077
			c0.113-0.28,0.303-1.02,0.303-2.812v-5.646h7.326v5.597c0,3.156-0.587,5.48-1.793,7.104
			C170.726,207.895,168.737,208.776,166.109,208.776z M166.142,179.166c-0.955,0-1.757,0.15-2.383,0.448
			c-1.68,0.798-2.532,3.06-2.532,6.721v12.618c0,2.347,0.435,4.125,1.293,5.285c0.766,1.035,1.94,1.538,3.59,1.538
			s2.795-0.461,3.5-1.409c0.797-1.073,1.201-2.861,1.201-5.315v-2.597h-1.326v2.646c0,1.802-0.165,3.051-0.52,3.932
			c-0.503,1.247-1.556,1.961-2.889,1.961c-1.329,0-2.381-0.705-2.885-1.935c-0.357-0.87-0.523-2.112-0.523-3.908v-13.522
			c0-1.62,0.178-2.832,0.545-3.705c0.516-1.233,1.578-1.94,2.912-1.94c1.351,0,2.398,0.698,2.877,1.915
			c0.329,0.834,0.482,2.025,0.482,3.747v2.201h1.261v-2.48C170.745,179.871,168.285,179.166,166.142,179.166z"/>
		</g>
		<g>
			<path fill="#FFFF00" d="M190.162,208.447h-7.408v-13.456h-0.948v13.456h-7.409v-31.952h7.409v11.713h0.948v-11.713h7.408V208.447z
			 M185.754,205.447h1.408v-25.952h-1.408v11.713h-6.948v-11.713h-1.409v25.952h1.409v-13.456h6.948V205.447z"/>
		</g>
		<g>
			<path fill="#FFFF00" d="M204.408,208.447h-12.903v-31.952h12.706v6.8h-5.297v5.423h5.033v6.718h-5.033v6.212h5.494V208.447z
			 M194.505,205.447h6.903v-0.8h-5.494v-12.212h5.033v-0.718h-5.033v-11.423h5.297v-0.8h-6.706V205.447z"/>
		</g>
		<g>
			<path fill="#FFFF00" d="M221.36,208.447h-7.548l-0.415-0.824c-0.224-0.443-0.326-0.646-0.326-11.056
			c0-1.024-0.108-1.472-0.162-1.629c-0.081-0.029-0.255-0.075-0.572-0.092v13.601h-7.408v-31.952h8.787
			c1.886,0,3.305,0.409,4.337,1.251c1.012,0.824,1.681,1.967,1.99,3.395c0.261,1.209,0.388,2.711,0.388,4.595
			c0,1.974-0.219,3.473-0.669,4.585c-0.193,0.477-0.451,0.903-0.768,1.276c0.317,0.407,0.599,0.92,0.815,1.565
			c0.458,1.36,0.671,3.841,0.671,7.806c0,4.144,0.071,5.252,0.105,5.543L221.36,208.447z M216.139,205.447h1.387
			c-0.028-0.933-0.045-2.335-0.045-4.479c0-4.629-0.322-6.278-0.515-6.85c-0.308-0.916-0.726-0.989-0.926-1.024l-0.192-2.908
			c0.58-0.183,0.93-0.488,1.133-0.991c0.206-0.507,0.45-1.519,0.45-3.459c0-1.645-0.107-2.978-0.319-3.961
			c-0.164-0.756-0.477-1.313-0.955-1.704c-0.462-0.376-1.306-0.575-2.44-0.575h-5.787v25.952h1.408v-13.741l2.984,0.139
			c1.388,0.033,2.409,0.466,3.003,1.284c0.516,0.707,0.747,1.769,0.747,3.438C216.071,201.655,216.104,204.188,216.139,205.447z
			 M212.614,191.355h-3.261v-11.472h2.997c1.918,0,2.768,0.818,3.143,1.504c0.4,0.737,0.578,1.907,0.578,3.796v0.182
			c0,1.359-0.058,2.362-0.178,3.064c-0.162,0.954-0.493,1.655-1.012,2.142C214.327,191.092,213.564,191.355,212.614,191.355z
			 M212.354,188.355h0.261c0.101,0,0.173-0.007,0.221-0.015c0.021-0.064,0.064-0.197,0.102-0.415c0.062-0.361,0.135-1.1,0.135-2.561
			v-0.182c0-1.398-0.114-2.016-0.177-2.248c-0.093-0.023-0.262-0.052-0.541-0.052L212.354,188.355L212.354,188.355z"/>
		</g>
		<g>
			<path fill="#FFFF00" d="M32.005,242.447h-6.932v-5.364l-0.992,5.232h-5.979l-1.166-5.9v6.032h-6.899v-31.952h8.214l2.831,14.56
			l2.66-14.56h8.262v31.952H32.005z M28.074,239.447h0.932v-25.952h-2.76l-3.641,19.925l-2.948,0.017l-3.876-19.941h-2.742v25.952
			h0.899v-9.291l-0.165-9.878l2.972-0.316l3.824,19.354h1.029l3.667-19.342l2.974,0.305l-0.165,9.903
			C28.074,230.183,28.074,239.447,28.074,239.447z"/>
		</g>
		<g>
			<path fill="#FFFF00" d="M45.425,242.447H32.522v-31.952h12.706v6.8h-5.297v5.423h5.034v6.718h-5.034v6.212h5.494V242.447z
			 M35.522,239.447h6.903v-0.8h-5.494v-12.212h5.034v-0.718h-5.034v-11.423h5.297v-0.8h-6.706V239.447z"/>
		</g>
		<g>
			<path fill="#FFFF00" d="M52.677,242.447h-7.409v-31.952h7.409V242.447z M48.268,239.447h1.409v-25.952h-1.409V239.447z"/>
		</g>
		<g>
			<path fill="#FFFF00" d="M60.361,242.776c-2.819,0-4.848-0.967-6.029-2.873c-1.054-1.699-1.566-4.021-1.566-7.099v-4.083h5.325
			l-1.776-1.83c-1.106-1.155-1.977-2.371-2.595-3.621c-0.654-1.319-0.986-2.85-0.986-4.547c0-2.766,0.558-4.813,1.707-6.262
			c1.216-1.534,3.21-2.312,5.929-2.312c2.807,0,4.778,0.933,5.858,2.772c0.941,1.604,1.399,3.792,1.399,6.689v3.293H62.94
			l1.048,1.135c1.298,1.405,2.296,2.859,2.968,4.324c0.696,1.518,1.049,3.189,1.049,4.968c0,3.054-0.536,5.3-1.638,6.867
			C65.164,241.909,63.143,242.776,60.361,242.776z M55.766,231.722v1.083c0,2.467,0.375,4.324,1.116,5.519
			c0.223,0.359,0.9,1.453,3.479,1.453c1.773,0,2.935-0.427,3.552-1.305c0.725-1.03,1.092-2.76,1.092-5.141
			c0-1.344-0.261-2.595-0.776-3.717c-0.54-1.177-1.362-2.367-2.445-3.54l-2.385-2.583c-0.887-0.948-1.5-1.733-1.869-2.392
			c-0.438-0.781-0.651-1.742-0.651-2.936c0-1.23,0.228-2.178,0.698-2.895c0.578-0.883,1.549-1.369,2.735-1.369
			c1.301,0,2.316,0.678,2.785,1.86c0.319,0.805,0.467,1.939,0.467,3.571v0.572h1.063v-0.293c0-2.316-0.332-4.056-0.986-5.171
			c-0.188-0.318-0.759-1.291-3.271-1.291c-1.756,0-2.96,0.396-3.578,1.176c-0.702,0.885-1.058,2.365-1.058,4.398
			c0,1.23,0.227,2.312,0.674,3.216c0.484,0.978,1.179,1.942,2.067,2.87l2.132,2.196c1.062,1.098,1.856,2.184,2.362,3.229
			c0.536,1.106,0.808,2.397,0.808,3.837c0,1.469-0.161,2.504-0.507,3.258c-0.288,0.627-1.043,1.681-2.869,1.681
			c-1.355,0-2.422-0.692-2.929-1.898c-0.36-0.858-0.528-2.122-0.528-3.978v-1.412h-1.178
			C55.766,231.72,55.766,231.722,55.766,231.722z M59.944,230.956v2.178c0,1.909,0.206,2.605,0.294,2.815
			c0.002,0.072,0.24,0.065,0.337,0.049c0.073-0.207,0.202-0.743,0.202-1.927c0-0.982-0.171-1.833-0.508-2.528
			C60.177,231.352,60.068,231.155,59.944,230.956z M60.322,216.906c-0.208,0-0.261,0.026-0.261,0.026
			c-0.01,0.033-0.183,0.342-0.183,1.231c0,0.818,0.146,1.251,0.27,1.471c0.08,0.143,0.208,0.343,0.416,0.614v-0.917
			C60.563,217.789,60.405,217.141,60.322,216.906z"/>
		</g>
		<g>
			<path fill="#FFFF00" d="M76.259,242.447h-7.392v-25.136h-3.389v-6.816h14.038v6.816h-3.257V242.447z M71.867,239.447h1.392
			v-25.136h3.257v-0.816h-8.038v0.816h3.389C71.867,214.311,71.867,239.447,71.867,239.447z"/>
		</g>
		<g>
			<path fill="#FFFF00" d="M91.012,242.447H78.109v-31.952h12.706v6.8h-5.297v5.423h5.034v6.718h-5.034v6.212h5.494
			C91.012,235.648,91.012,242.447,91.012,242.447z M81.109,239.447h6.903v-0.8h-5.494v-12.212h5.034v-0.718h-5.034v-11.423h5.297
			v-0.8h-6.706C81.109,213.494,81.109,239.447,81.109,239.447z"/>
		</g>
		<g>
			<path fill="#FFFF00" d="M107.121,242.447h-7.549l-0.415-0.827c-0.223-0.442-0.324-0.645-0.324-11.053
			c0-1.023-0.108-1.471-0.162-1.629c-0.081-0.029-0.255-0.075-0.572-0.092v13.601H90.69v-31.952h8.788
			c1.886,0,3.305,0.409,4.336,1.251c1.013,0.825,1.682,1.968,1.991,3.395c0.26,1.206,0.387,2.709,0.387,4.595
			c0,1.973-0.219,3.472-0.668,4.584c-0.193,0.478-0.451,0.904-0.768,1.277c0.317,0.407,0.598,0.92,0.815,1.564
			c0.458,1.36,0.67,3.841,0.67,7.807c0,4.144,0.071,5.252,0.105,5.543L107.121,242.447z M101.9,239.447h1.387
			c-0.028-0.933-0.045-2.335-0.045-4.479c0-4.631-0.322-6.279-0.514-6.85c-0.308-0.916-0.726-0.989-0.926-1.024l-0.193-2.908
			c0.581-0.183,0.931-0.489,1.134-0.991c0.205-0.507,0.45-1.519,0.45-3.459c0-1.646-0.107-2.979-0.32-3.96
			c-0.164-0.757-0.476-1.314-0.954-1.705c-0.461-0.376-1.306-0.575-2.44-0.575H93.69v25.952h1.409v-13.741l2.984,0.139
			c1.387,0.032,2.409,0.465,3.003,1.283c0.516,0.71,0.747,1.771,0.747,3.439C101.833,235.654,101.866,238.188,101.9,239.447z
			 M98.375,225.355h-3.26v-11.472h2.997c1.919,0,2.769,0.818,3.143,1.505c0.4,0.735,0.578,1.905,0.578,3.795v0.182
			c0,1.356-0.058,2.358-0.177,3.062c-0.163,0.957-0.494,1.657-1.012,2.144C100.087,225.092,99.325,225.355,98.375,225.355z
			 M98.115,222.355h0.26c0.101,0,0.173-0.007,0.221-0.015c0.022-0.064,0.064-0.197,0.102-0.415c0.061-0.362,0.135-1.103,0.135-2.561
			v-0.182c0-1.4-0.115-2.017-0.177-2.248c-0.092-0.023-0.262-0.052-0.541-0.052V222.355z"/>
		</g>
		<g>
			<path fill="#FFFF00" d="M118.91,244.307h-1.5c-1.205,0-2.178-0.101-2.975-0.308c-0.923-0.24-1.722-0.691-2.372-1.342
			c-0.658-0.657-1.119-1.528-1.37-2.589c-0.215-0.908-0.32-2.021-0.32-3.4v-14.506c0-1.378,0.105-2.491,0.321-3.401
			c0.25-1.058,0.711-1.929,1.369-2.588c0.648-0.648,1.446-1.1,2.371-1.341c0.799-0.208,1.772-0.309,2.977-0.309h1.5v5.734h-1.5
			c-0.121,0-0.212,0.007-0.28,0.016c-0.048,0.242-0.121,0.779-0.121,1.834v14.615c0,1.047,0.071,1.584,0.123,1.834
			c0.067,0.009,0.158,0.016,0.278,0.016h1.5L118.91,244.307L118.91,244.307z M115.578,217.652c-0.14,0.023-0.269,0.052-0.389,0.083
			c-0.406,0.105-0.735,0.289-1.005,0.559c-0.258,0.259-0.451,0.648-0.572,1.158c-0.159,0.672-0.24,1.583-0.24,2.71v14.506
			c0,1.127,0.081,2.039,0.24,2.709c0.121,0.511,0.313,0.9,0.571,1.158c0.271,0.271,0.6,0.455,1.005,0.56
			c0.12,0.031,0.25,0.06,0.389,0.083c-0.537-0.283-0.857-0.676-1.049-1.031c-0.364-0.678-0.52-1.702-0.52-3.424v-14.615
			c0-1.722,0.156-2.746,0.521-3.425C114.721,218.328,115.041,217.936,115.578,217.652z"/>
		</g>
		<g>
			<path fill="#FFFF00" d="M124.827,242.447h-6.664v-27.062h11.258v6.186h-4.594v3.398h4.265v6.199h-4.265
			C124.827,231.168,124.827,242.447,124.827,242.447z M121.163,239.447h0.664v-11.279h4.266v-0.199h-4.266v-9.398h4.594v-0.186
			h-5.258V239.447z"/>
		</g>
		<g>
			<path fill="#FFFF00" d="M135.159,242.447h-6.664v-27.062h6.664V242.447z M131.495,239.447h0.664v-21.062h-0.664V239.447z"/>
		</g>
		<g>
			<path fill="#FFFF00" d="M149.497,242.447h-6.81l-0.416-0.823c-0.217-0.43-0.298-0.59-0.298-9.304c0-0.621-0.049-0.969-0.088-1.146
			c-0.005-0.001-0.01-0.002-0.016-0.003v11.275h-6.664v-27.062h7.557c1.629,0,2.86,0.358,3.765,1.097
			c0.887,0.725,1.473,1.722,1.741,2.964c0.221,1.025,0.328,2.291,0.328,3.872c0,1.672-0.188,2.949-0.574,3.905
			c-0.146,0.358-0.332,0.686-0.557,0.979c0.246,0.349,0.448,0.753,0.602,1.207c0.245,0.729,0.57,2.201,0.57,6.569
			c0,3.308,0.055,4.269,0.082,4.543L149.497,242.447z M145.023,239.447h0.646c-0.02-0.778-0.031-1.882-0.031-3.47
			c0-3.812-0.26-5.153-0.414-5.612c-0.208-0.618-0.447-0.66-0.575-0.683l-0.189-2.908c0.513-0.161,0.684-0.434,0.783-0.678
			c0.161-0.399,0.354-1.208,0.354-2.779c0-1.347-0.088-2.437-0.261-3.239c-0.123-0.568-0.354-0.985-0.706-1.273
			c-0.308-0.25-0.898-0.397-1.676-0.417c0.824,0.262,1.269,0.758,1.508,1.196c0.359,0.658,0.512,1.638,0.512,3.275v0.15
			c0,1.14-0.049,1.985-0.15,2.587c-0.146,0.853-0.445,1.481-0.918,1.925c-0.403,0.379-0.922,0.609-1.545,0.689
			c0.857,0.145,1.515,0.513,1.942,1.1c0.465,0.641,0.671,1.568,0.671,3.01C144.974,236.25,144.997,238.338,145.023,239.447z
			 M138.206,239.447h0.664v-11.433l0.014,0.001v-9.631h-0.678L138.206,239.447L138.206,239.447z M141.884,221.295v3.677
			c0.044-0.327,0.09-0.919,0.09-1.962v-0.15C141.974,222.045,141.927,221.564,141.884,221.295z"/>
		</g>
		<g>
			<path fill="#FFFF00" d="M154.401,242.721c-3.037,0-4.519-1.364-5.227-2.509c-0.9-1.452-1.339-3.426-1.339-6.032v-3.646h4.081
			l-1.06-1.092c-0.938-0.977-1.676-2.009-2.203-3.073c-0.561-1.132-0.846-2.441-0.846-3.892c0-2.356,0.481-4.109,1.473-5.361
			c1.062-1.339,2.786-2.018,5.127-2.018c3.025,0,4.437,1.32,5.087,2.429c0.807,1.375,1.198,3.235,1.198,5.688v2.99h-3.569
			l0.478,0.518c1.098,1.188,1.942,2.42,2.511,3.659c0.595,1.297,0.896,2.722,0.896,4.235c0,2.591-0.461,4.506-1.407,5.853
			C158.55,241.964,156.801,242.721,154.401,242.721z M150.836,233.533v0.646c0,2.003,0.299,3.501,0.889,4.452
			c0.168,0.271,0.674,1.089,2.677,1.089c2.059,0,2.575-0.734,2.745-0.977c0.393-0.559,0.861-1.729,0.861-4.127
			c0-1.079-0.209-2.083-0.622-2.984c-0.437-0.952-1.105-1.919-1.988-2.875l-1.981-2.146c-0.749-0.799-1.271-1.468-1.589-2.036
			c-0.385-0.685-0.573-1.524-0.573-2.563c0-1.074,0.203-1.907,0.621-2.545c0.527-0.807,1.41-1.252,2.485-1.252
			c1.189,0,2.118,0.621,2.549,1.704c0.278,0.703,0.407,1.675,0.407,3.063v0.223h0.377c-0.001-1.873-0.265-3.273-0.785-4.16
			c-0.137-0.233-0.557-0.947-2.5-0.947c-1.378,0-2.312,0.297-2.775,0.881c-0.539,0.681-0.824,1.891-0.824,3.498
			c0,0.983,0.18,1.845,0.534,2.561c0.392,0.791,0.954,1.571,1.673,2.321l1.771,1.825c0.9,0.932,1.576,1.855,2.01,2.748
			c0.463,0.956,0.697,2.066,0.697,3.301c0,1.26-0.142,2.153-0.444,2.813c-0.45,0.98-1.403,1.544-2.614,1.544
			c-1.234,0-2.207-0.632-2.669-1.733c-0.312-0.741-0.458-1.823-0.458-3.403v-0.92h-0.474L150.836,233.533L150.836,233.533z
			 M154.309,233.796v0.657c0,0.965,0.063,1.538,0.125,1.868c0.033-0.241,0.061-0.591,0.061-1.089
			C154.494,234.701,154.432,234.221,154.309,233.796z M154.261,221.743c-0.004,0.08-0.007,0.17-0.007,0.269
			c0,0.307,0.025,0.538,0.061,0.711C154.309,222.31,154.287,221.989,154.261,221.743z"/>
		</g>
		<g>
			<path fill="#FFFF00" d="M167.868,242.447h-6.65v-20.891h-2.816v-6.172h12.174v6.172h-2.707v20.891H167.868z M164.218,239.447h0.65
			v-20.891h2.707v-0.172h-6.174v0.172h2.816v20.891H164.218z"/>
		</g>
		<g>
			<path fill="#FFFF00" d="M184.515,242.447h-11.299v-27.062h6.664v20.945h4.635V242.447z M176.216,239.447h5.299v-0.117h-4.635
			v-20.945h-0.664V239.447z"/>
		</g>
		<g>
			<path fill="#FFFF00" d="M194.151,242.447h-11.23v-27.062h11.066v6.158h-4.402v4h4.184v6.09h-4.184v4.656h4.566V242.447z
			 M185.921,239.447h5.23v-0.158h-4.566v-10.656h4.184v-0.09h-4.184v-10h4.402v-0.158h-5.066V239.447z"/>
		</g>
		<g>
			<path fill="#FFFF00" d="M207.45,242.447h-6.476l-0.574-4.293h-1.241l-0.52,4.293h-6.586l3.86-27.062h7.431L207.45,242.447z
			 M203.6,239.447h0.36l-2.929-19.308l2.013,15.075h-0.01L203.6,239.447z M195.513,239.447h0.469l0.512-4.232h-0.002l1.843-15.086
			h2.695l-0.265-1.744h-2.249L195.513,239.447z"/>
		</g>
		<g>
			<path fill="#FFFF00" d="M211.978,242.693c-1.988,0-3.637-0.833-4.767-2.41c-1.05-1.464-1.56-3.55-1.56-6.377v-10.459
			c0-2.543,0.539-4.556,1.604-5.982c1.165-1.562,2.966-2.354,5.352-2.354c3.796,0,5.309,1.973,5.908,3.627
			c0.447,1.235,0.664,2.819,0.664,4.846v18.863h-4.327l-0.117-0.496C213.915,242.444,212.99,242.693,211.978,242.693z
			 M212.606,218.111c-1.407,0-2.371,0.375-2.947,1.147c-0.669,0.896-1.008,2.306-1.008,4.188v10.459
			c0,2.118,0.345,3.719,0.997,4.629c0.574,0.801,1.293,1.158,2.329,1.158c0.289,0,0.553-0.04,0.797-0.122
			c-1.355,0.057-2.495-0.628-2.978-1.889c-0.31-0.809-0.454-2.026-0.454-3.831v-10.43c0-1.631,0.176-2.744,0.553-3.504
			c0.516-1.038,1.501-1.633,2.704-1.633c1.63,0,2.355,0.926,2.643,1.478c0.354,0.681,0.519,1.639,0.519,3.017v1.016h0.418v-0.209
			c0-1.648-0.163-2.935-0.484-3.823C215.416,218.993,214.813,218.111,212.606,218.111z M215.979,229.309v4.406
			c0,1.825-0.176,3.083-0.554,3.958c-0.087,0.203-0.189,0.392-0.305,0.564l1.058-0.001v-8.928h-0.199V229.309z M212.585,236.57
			h0.047c0.005-0.015,0.021-0.044,0.039-0.086c0.094-0.215,0.309-0.914,0.309-2.77v-1.74h-0.637v1.877
			C212.343,235.629,212.502,236.327,212.585,236.57z M212.343,226.309h0.418v-3.531c0-0.859-0.079-1.297-0.132-1.494
			c-0.01,0-0.019,0-0.029,0l0,0c-0.014,0-0.022-0.001-0.028-0.004c-0.071,0.177-0.229,0.719-0.229,2.141L212.343,226.309
			L212.343,226.309z"/>
		</g>
		<g>
			<path fill="#FFFF00" d="M225.599,242.721c-2.324,0-4.079-0.718-5.216-2.133c-1.073-1.334-1.596-3.238-1.596-5.82v-19.396h6.664
			V234.7c0,1.415,0.079,1.771,0.088,1.808c0.012,0.021,0.027,0.05,0.046,0.083c0.007,0,0.014,0,0.021,0l0,0
			c0.034-0.095,0.052-0.198,0.061-0.281c0.044-0.408,0.066-0.949,0.066-1.609v-19.328h6.664v19.396c0,2.592-0.52,4.498-1.589,5.828
			C229.675,242.006,227.922,242.721,225.599,242.721z M221.787,218.371v16.396c0,1.818,0.323,3.182,0.934,3.94
			c0.548,0.682,1.488,1.013,2.878,1.013c1.389,0,2.327-0.329,2.871-1.005c0.606-0.754,0.927-2.119,0.927-3.948v-16.396h-0.664
			v16.328c0,0.778-0.027,1.41-0.084,1.932c-0.078,0.724-0.313,1.357-0.699,1.883c-0.359,0.49-1.059,1.076-2.344,1.076
			c-1.021,0-1.776-0.313-2.243-0.931c-0.238-0.314-0.444-0.67-0.61-1.055c-0.186-0.43-0.301-1.065-0.301-2.905v-16.328
			L221.787,218.371L221.787,218.371z"/>
		</g>
		<g>
			<path fill="#FFFF00" d="M243.399,242.447h-11.23v-27.062h11.066v6.158h-4.402v4h4.184v6.09h-4.184v4.656h4.566V242.447z
			 M235.169,239.447h5.23v-0.158h-4.566v-10.656h4.184v-0.09h-4.184v-10h4.402v-0.158h-5.066V239.447z"/>
		</g>
		<g>
			<path fill="#FFFF00" d="M243.497,244.307h-1.5v-5.734h1.5c0.121,0,0.213-0.007,0.279-0.016c0.049-0.241,0.121-0.779,0.121-1.834
			v-14.615c0-1.046-0.071-1.583-0.123-1.834c-0.066-0.009-0.157-0.016-0.277-0.016h-1.5v-5.734h1.5c1.203,0,2.176,0.101,2.975,0.308
			c0.928,0.243,1.725,0.695,2.37,1.347c0.65,0.659,1.106,1.526,1.357,2.581c0.217,0.915,0.321,2.027,0.321,3.403v14.506
			c0,1.377-0.104,2.489-0.32,3.401c-0.252,1.058-0.708,1.926-1.357,2.582c-0.648,0.654-1.445,1.106-2.371,1.348
			C245.673,244.206,244.7,244.307,243.497,244.307z M245.327,217.651c0.536,0.283,0.857,0.676,1.049,1.03
			c0.366,0.682,0.521,1.705,0.521,3.426v14.615c0,1.721-0.155,2.744-0.521,3.424c-0.191,0.355-0.513,0.749-1.05,1.032
			c0.141-0.024,0.271-0.053,0.391-0.084c0.402-0.104,0.728-0.285,0.993-0.554c0.256-0.259,0.448-0.65,0.57-1.164
			c0.158-0.672,0.239-1.583,0.239-2.709v-14.506c0-1.125-0.081-2.037-0.24-2.711c-0.121-0.511-0.313-0.903-0.571-1.164
			c-0.264-0.266-0.589-0.447-0.993-0.553C245.596,217.703,245.467,217.676,245.327,217.651z"/>
		</g>
	</g>
	<g>
		<g>
			<path d="M53.837,185.431c0,3.114-0.845,5.028-2.534,5.741c2.062,0.69,3.093,2.967,3.093,6.827v0.74
			c-0.022,2.906-0.529,5-1.521,6.283c-0.993,1.283-2.613,1.925-4.861,1.925h-6.399v-28.952h6.268c2.16,0,3.69,0.502,4.589,1.505
			c0.899,1.004,1.354,2.685,1.366,5.042L53.837,185.431L53.837,185.431z M46.023,189.708h1.628c0.757,0,1.253-0.241,1.489-0.724
			s0.354-1.476,0.354-2.978v-1.744c-0.011-1.118-0.164-1.867-0.46-2.245c-0.296-0.379-0.806-0.567-1.53-0.567h-1.48L46.023,189.708
			L46.023,189.708z M46.023,203.525h1.562c0.877,0,1.492-0.301,1.843-0.904c0.351-0.603,0.526-1.684,0.526-3.24v-2.336
			c0-1.47-0.143-2.509-0.428-3.118c-0.285-0.608-0.833-0.912-1.645-0.912h-1.859v10.51L46.023,203.525L46.023,203.525z"/>
		</g>
		<g>
			<path d="M68.921,205.393c-1.009,1.256-2.629,1.884-4.861,1.884c-2.232,0-3.855-0.63-4.869-1.892
			c-1.015-1.261-1.522-3.219-1.522-5.873v-21.533h4.409v21.451c0,1.524,0.071,2.451,0.214,2.78s0.315,0.628,0.518,0.896
			s0.623,0.403,1.259,0.403c0.636,0,1.091-0.187,1.365-0.56c0.274-0.373,0.441-0.836,0.501-1.39
			c0.061-0.554,0.091-1.265,0.091-2.131v-21.451h4.409v21.533C70.435,202.177,69.93,204.138,68.921,205.393z"/>
		</g>
		<g>
			<path d="M74.613,206.947v-28.952h4.409v25.202h5.577v3.75H74.613z"/>
		</g>
		<g>
			<path d="M92.445,207.243c-1.82,0-3.243-0.715-4.269-2.146c-1.025-1.431-1.538-3.638-1.538-6.621v-12.584
			c0-2.676,0.523-4.716,1.571-6.12c1.047-1.403,2.711-2.105,4.993-2.105c2.84,0,4.645,1.059,5.412,3.175
			c0.461,1.272,0.691,3.011,0.691,5.215v2.057h-4.112v-3.027c0-1.326-0.14-2.259-0.419-2.796c-0.28-0.537-0.806-0.807-1.58-0.807
			c-0.773,0-1.319,0.321-1.637,0.963s-0.477,1.779-0.477,3.413v12.552c0,1.897,0.143,3.219,0.428,3.964
			c0.285,0.746,0.842,1.119,1.67,1.119c0.828,0,1.415-0.4,1.76-1.201c0.345-0.8,0.518-2.149,0.518-4.047v-3.898h-2.221v-3.208h6.07
			v15.809h-1.974l-0.674-2.846c-0.23,0.977-0.735,1.744-1.513,2.303C94.365,206.964,93.465,207.243,92.445,207.243z"/>
		</g>
		<g>
			<path d="M102.135,206.947l4.129-28.952h5.823l4.393,28.952h-4.113l-0.691-5.165h-4.672l-0.625,5.165H102.135z M111.215,198.245
			l-1.941-14.542h-0.065l-1.777,14.542H111.215z"/>
		</g>
		<g>
			<path d="M125.329,193.343l-1.415-0.065v13.67h-4.409v-28.952h7.288c1.513,0,2.642,0.305,3.388,0.913s1.236,1.459,1.473,2.55
			c0.235,1.091,0.354,2.517,0.354,4.277s-0.187,3.101-0.56,4.021c-0.373,0.922-1.063,1.541-2.072,1.859
			c0.998,0.175,1.694,0.85,2.089,2.023c0.395,1.173,0.593,3.616,0.593,7.328c0,3.713,0.055,5.706,0.164,5.979h-4.408
			c-0.11-0.219-0.165-3.679-0.165-10.38c0-1.283-0.154-2.136-0.461-2.558C126.881,193.587,126.261,193.365,125.329,193.343z
			 M123.931,189.855h1.76c0.559,0,0.973-0.126,1.242-0.378s0.455-0.686,0.56-1.3c0.104-0.614,0.156-1.552,0.156-2.812v-0.182
			c0-1.567-0.132-2.593-0.395-3.076c-0.263-0.482-0.872-0.724-1.826-0.724h-1.497V189.855z"/>
		</g>
		<g>
			<path d="M136.285,206.947v-28.952h4.408v28.952H136.285z"/>
		</g>
		<g>
			<path d="M144.625,198.805v-2.583h4.179v2.912c0,1.612,0.137,2.744,0.411,3.396c0.274,0.653,0.79,0.979,1.546,0.979
			c0.757,0,1.259-0.269,1.506-0.807c0.246-0.537,0.37-1.414,0.37-2.632c0-1.217-0.22-2.278-0.658-3.183s-1.135-1.852-2.089-2.838
			l-2.139-2.204c-0.998-1.042-1.774-2.122-2.328-3.241c-0.554-1.118-0.83-2.412-0.83-3.882c0-2.391,0.46-4.168,1.382-5.33
			c0.921-1.162,2.505-1.744,4.754-1.744c2.248,0,3.77,0.678,4.564,2.032s1.192,3.331,1.192,5.93v1.793h-4.062v-2.072
			c0-1.403-0.121-2.41-0.362-3.019s-0.705-0.913-1.39-0.913c-0.686,0-1.18,0.23-1.48,0.69c-0.302,0.461-0.453,1.152-0.453,2.073
			s0.154,1.656,0.461,2.204c0.307,0.549,0.861,1.25,1.661,2.105l2.386,2.583c1.195,1.294,2.098,2.604,2.706,3.932
			s0.913,2.774,0.913,4.343c0,2.709-0.455,4.71-1.365,6.004c-0.911,1.295-2.504,1.941-4.779,1.941s-3.86-0.721-4.754-2.163
			S144.625,201.568,144.625,198.805z"/>
		</g>
		<g>
			<path d="M170.813,205.262c-0.998,1.343-2.566,2.015-4.704,2.015c-2.139,0-3.737-0.716-4.796-2.146
			c-1.059-1.432-1.587-3.49-1.587-6.177v-12.618c0-4.31,1.129-7.002,3.389-8.076c0.833-0.396,1.842-0.593,3.026-0.593
			c4.068,0,6.104,2.566,6.104,7.699v3.98h-4.261v-3.701c0-1.491-0.126-2.558-0.379-3.199c-0.252-0.642-0.745-0.963-1.48-0.963
			c-0.734,0-1.244,0.34-1.529,1.021c-0.285,0.68-0.428,1.722-0.428,3.125v13.522c0,1.557,0.137,2.67,0.411,3.339
			s0.773,1.004,1.497,1.004s1.223-0.34,1.497-1.021c0.273-0.68,0.411-1.804,0.411-3.372v-4.146h4.326v4.097
			C172.311,201.848,171.812,203.918,170.813,205.262z"/>
		</g>
		<g>
			<path d="M175.896,206.947v-28.952h4.409v11.713h3.948v-11.713h4.408v28.952h-4.408v-13.456h-3.948v13.456H175.896z"/>
		</g>
		<g>
			<path d="M193.005,206.947v-28.952h9.706v3.8h-5.297v8.423h5.033v3.718h-5.033v9.212h5.494v3.8h-9.903V206.947z"/>
		</g>
		<g>
			<path d="M212.252,193.343l-1.415-0.065v13.67h-4.408v-28.952h7.287c1.514,0,2.643,0.305,3.389,0.913s1.236,1.459,1.473,2.55
			c0.235,1.091,0.354,2.517,0.354,4.277s-0.187,3.101-0.56,4.021c-0.373,0.922-1.063,1.541-2.072,1.859
			c0.998,0.175,1.694,0.85,2.089,2.023c0.395,1.173,0.593,3.616,0.593,7.328c0,3.713,0.055,5.706,0.164,5.979h-4.408
			c-0.11-0.219-0.165-3.679-0.165-10.38c0-1.283-0.153-2.136-0.461-2.558C213.804,193.587,213.184,193.365,212.252,193.343z
			 M210.854,189.855h1.761c0.559,0,0.973-0.126,1.241-0.378s0.455-0.686,0.56-1.3s0.156-1.552,0.156-2.812v-0.182
			c0-1.567-0.132-2.593-0.395-3.076c-0.264-0.482-0.872-0.724-1.826-0.724h-1.497V189.855z"/>
		</g>
		<g>
			<path d="M11.538,240.947v-28.952h5.478l4.112,21.155l3.866-21.155h5.511v28.952h-3.932v-10.791l0.165-9.903l-3.899,20.562h-3.504
			l-4.063-20.562l0.165,9.903v10.791H11.538z"/>
		</g>
		<g>
			<path d="M34.022,240.947v-28.952h9.706v3.8h-5.297v8.423h5.034v3.718h-5.034v9.212h5.494v3.8h-9.903V240.947z"/>
		</g>
		<g>
			<path d="M46.768,240.947v-28.952h4.409v28.952H46.768z"/>
		</g>
		<g>
			<path d="M54.266,232.805v-2.583h4.178v2.912c0,1.612,0.137,2.744,0.411,3.396c0.274,0.653,0.79,0.979,1.546,0.979
			c0.757,0,1.259-0.269,1.505-0.807c0.247-0.537,0.37-1.414,0.37-2.632c0-1.217-0.22-2.278-0.658-3.183s-1.135-1.852-2.089-2.838
			l-2.139-2.204c-0.998-1.042-1.774-2.122-2.328-3.241c-0.554-1.118-0.831-2.412-0.831-3.882c0-2.391,0.46-4.168,1.382-5.33
			c0.921-1.162,2.505-1.744,4.754-1.744c2.248,0,3.77,0.678,4.565,2.032s1.192,3.331,1.192,5.93v1.793h-4.063v-2.072
			c0-1.403-0.121-2.41-0.362-3.019s-0.705-0.913-1.39-0.913c-0.686,0-1.179,0.23-1.48,0.69c-0.302,0.461-0.453,1.152-0.453,2.073
			s0.154,1.656,0.461,2.204c0.307,0.549,0.861,1.25,1.661,2.105l2.385,2.583c1.195,1.294,2.098,2.604,2.706,3.932
			c0.609,1.327,0.913,2.774,0.913,4.343c0,2.709-0.455,4.71-1.365,6.004c-0.911,1.295-2.503,1.941-4.779,1.941
			s-3.86-0.721-4.754-2.163C54.713,237.671,54.266,235.568,54.266,232.805z"/>
		</g>
		<g>
			<path d="M70.367,240.947v-25.136h-3.389v-3.816h11.038v3.816h-3.257v25.136H70.367z"/>
		</g>
		<g>
			<path d="M79.609,240.947v-28.952h9.706v3.8h-5.297v8.423h5.034v3.718h-5.034v9.212h5.494v3.8h-9.903
			C79.609,240.948,79.609,240.947,79.609,240.947z"/>
		</g>
		<g>
			<path d="M98.013,227.343l-1.415-0.065v13.67H92.19v-28.952h7.288c1.513,0,2.643,0.305,3.389,0.913s1.236,1.459,1.472,2.55
			s0.354,2.517,0.354,4.277s-0.187,3.101-0.559,4.021c-0.373,0.922-1.064,1.541-2.073,1.859c0.998,0.175,1.694,0.85,2.089,2.023
			c0.395,1.173,0.592,3.616,0.592,7.328c0,3.713,0.055,5.706,0.164,5.979h-4.408c-0.11-0.219-0.165-3.679-0.165-10.38
			c0-1.283-0.154-2.136-0.461-2.558C99.565,227.587,98.945,227.365,98.013,227.343z M96.615,223.855h1.76
			c0.559,0,0.973-0.126,1.242-0.378s0.455-0.686,0.56-1.3c0.104-0.614,0.156-1.552,0.156-2.812v-0.182
			c0-1.567-0.132-2.593-0.395-3.076c-0.263-0.482-0.872-0.724-1.826-0.724h-1.497V223.855z"/>
		</g>
		<g>
			<path d="M117.41,242.807c-1.066,0-1.933-0.087-2.598-0.26c-0.666-0.173-1.229-0.49-1.688-0.95c-0.46-0.46-0.784-1.084-0.971-1.873
			c-0.187-0.788-0.28-1.807-0.28-3.056v-14.506c0-1.248,0.093-2.267,0.28-3.056c0.187-0.788,0.51-1.412,0.971-1.873
			c0.46-0.46,1.023-0.776,1.688-0.95c0.665-0.173,1.531-0.26,2.598-0.26v2.734c-0.812,0-1.331,0.212-1.559,0.636
			s-0.342,1.329-0.342,2.714v14.615c0,1.386,0.114,2.29,0.342,2.714c0.228,0.424,0.747,0.636,1.559,0.636V242.807z"/>
		</g>
		<g>
			<path d="M119.663,240.947v-24.062h8.258v3.186h-4.594v6.398h4.266v3.199h-4.266v11.279L119.663,240.947L119.663,240.947z"/>
		</g>
		<g>
			<path d="M129.995,240.947v-24.062h3.664v24.062H129.995z"/>
		</g>
		<g>
			<path d="M141.546,229.641l-1.176-0.055v11.361h-3.664v-24.062h6.057c1.258,0,2.196,0.253,2.816,0.759
			c0.619,0.506,1.027,1.213,1.224,2.119c0.195,0.907,0.294,2.092,0.294,3.555s-0.155,2.577-0.465,3.343
			c-0.311,0.766-0.885,1.281-1.723,1.545c0.829,0.146,1.408,0.707,1.736,1.682c0.328,0.976,0.492,3.006,0.492,6.091
			c0,3.086,0.045,4.742,0.137,4.97h-3.664c-0.092-0.182-0.137-3.058-0.137-8.627c0-1.066-0.128-1.774-0.383-2.126
			C142.835,229.844,142.32,229.659,141.546,229.641z M140.384,226.742h1.463c0.465,0,0.809-0.104,1.032-0.314
			c0.223-0.209,0.378-0.569,0.465-1.08c0.086-0.51,0.13-1.289,0.13-2.338v-0.15c0-1.303-0.109-2.155-0.328-2.557
			c-0.219-0.4-0.725-0.602-1.518-0.602h-1.244L140.384,226.742L140.384,226.742z"/>
		</g>
		<g>
			<path d="M149.336,234.18v-2.146h3.473v2.42c0,1.34,0.113,2.281,0.342,2.823c0.228,0.543,0.656,0.813,1.285,0.813
			s1.046-0.223,1.251-0.67c0.205-0.446,0.308-1.176,0.308-2.188s-0.183-1.894-0.547-2.646c-0.365-0.752-0.943-1.538-1.736-2.358
			l-1.777-1.832c-0.83-0.865-1.475-1.764-1.935-2.693c-0.461-0.93-0.69-2.005-0.69-3.227c0-1.986,0.383-3.463,1.148-4.43
			c0.766-0.966,2.082-1.449,3.951-1.449c1.868,0,3.133,0.563,3.794,1.688c0.66,1.126,0.991,2.769,0.991,4.929v1.49h-3.377v-1.723
			c0-1.166-0.101-2.003-0.301-2.509c-0.201-0.506-0.586-0.759-1.155-0.759c-0.57,0-0.98,0.191-1.23,0.574
			c-0.251,0.383-0.376,0.957-0.376,1.723s0.127,1.377,0.383,1.832c0.255,0.456,0.715,1.039,1.381,1.75l1.982,2.146
			c0.993,1.076,1.743,2.165,2.249,3.268c0.506,1.104,0.759,2.307,0.759,3.609c0,2.252-0.379,3.915-1.135,4.99
			c-0.757,1.076-2.081,1.613-3.972,1.613c-1.892,0-3.209-0.599-3.951-1.798C149.707,238.225,149.336,236.477,149.336,234.18z"/>
		</g>
		<g>
			<path d="M162.718,240.947v-20.891h-2.816v-3.172h9.174v3.172h-2.707v20.891H162.718z"/>
		</g>
		<g>
			<path d="M174.716,240.947v-24.062h3.664v20.945h4.635v3.117L174.716,240.947L174.716,240.947z"/>
		</g>
		<g>
			<path d="M184.421,240.947v-24.062h8.066v3.158h-4.402v7h4.184v3.09h-4.184v7.656h4.566v3.158L184.421,240.947L184.421,240.947z"/>
		</g>
		<g>
			<path d="M193.783,240.947l3.432-24.062h4.84l3.65,24.062h-3.418l-0.574-4.293h-3.883l-0.52,4.293H193.783z M201.33,233.715
			l-1.613-12.086h-0.055l-1.477,12.086H201.33z"/>
		</g>
		<g>
			<path d="M211.978,241.193c-1.513,0-2.695-0.595-3.548-1.784s-1.278-3.023-1.278-5.503v-10.459c0-2.224,0.436-3.919,1.306-5.086
			c0.87-1.166,2.254-1.75,4.149-1.75c2.36,0,3.86,0.88,4.498,2.639c0.383,1.058,0.574,2.502,0.574,4.334v1.709h-3.418v-2.516
			c0-1.103-0.116-1.877-0.349-2.324c-0.232-0.446-0.67-0.67-1.312-0.67s-1.096,0.267-1.36,0.8s-0.396,1.479-0.396,2.837v10.432
			c0,1.577,0.118,2.676,0.355,3.295c0.237,0.62,0.699,0.93,1.388,0.93s1.176-0.332,1.463-0.998c0.287-0.665,0.431-1.786,0.431-3.363
			v-3.24h-1.846v-2.666h5.045v13.139h-1.641l-0.561-2.365c-0.191,0.812-0.61,1.449-1.258,1.914S212.825,241.193,211.978,241.193z"/>
		</g>
		<g>
			<path d="M229.639,239.655c-0.839,1.044-2.186,1.565-4.04,1.565s-3.204-0.523-4.047-1.572c-0.843-1.048-1.265-2.675-1.265-4.881
			v-17.896h3.664v17.828c0,1.268,0.06,2.037,0.178,2.311s0.262,0.522,0.431,0.745c0.169,0.224,0.518,0.335,1.046,0.335
			s0.907-0.154,1.135-0.465c0.228-0.31,0.367-0.694,0.417-1.155c0.05-0.46,0.075-1.05,0.075-1.771v-17.828h3.664v17.896
			C230.896,236.982,230.478,238.612,229.639,239.655z"/>
		</g>
		<g>
			<path d="M233.669,240.947v-24.062h8.066v3.158h-4.402v7h4.184v3.09h-4.184v7.656h4.566v3.158L233.669,240.947L233.669,240.947z"/>
		</g>
		<g>
			<path d="M243.497,242.807v-2.734c0.811,0,1.33-0.212,1.559-0.636c0.228-0.424,0.342-1.328,0.342-2.714v-14.615
			c0-1.385-0.114-2.29-0.342-2.714c-0.229-0.424-0.748-0.636-1.559-0.636v-2.734c1.066,0,1.932,0.087,2.598,0.26
			c0.665,0.174,1.226,0.49,1.682,0.95c0.455,0.461,0.776,1.085,0.964,1.873c0.187,0.789,0.28,1.808,0.28,3.056v14.506
			c0,1.249-0.094,2.268-0.28,3.056c-0.188,0.789-0.509,1.413-0.964,1.873c-0.456,0.46-1.017,0.777-1.682,0.95
			C245.429,242.72,244.563,242.807,243.497,242.807z"/>
		</g>
	</g>
	<g>
		<g>
			<path fill="#496E2D" d="M232.6,65.2c0-5-0.9-9.8-2.5-14.2l-38.4-1.8L153.3,51c-1.6,4.4-2.5,9.2-2.5,14.2s0.9,9.8,2.5,14.2
			l38.4,1.8l38.4-1.8C231.7,75,232.6,70.2,232.6,65.2z"/>
			<path fill="#D80027" d="M191.6,106.1c17.6,0,32.6-11.1,38.4-26.7h-76.8C159,95,174,106.1,191.6,106.1z"/>
			<path fill="#F0F0F0" d="M153.2,50.9H230c-5.8-15.6-20.8-26.7-38.4-26.7S159,35.3,153.2,50.9z"/>
		</g>
		<ellipse fill="none" stroke="#000000" stroke-width="1.4754" stroke-miterlimit="10" cx="191.6" cy="65.2" rx="40.8" ry="40.6"/>
	</g>
</svg>