<?xml version="1.0" encoding="utf-8"?>
<!-- Generator: Adobe Illustrator 17.0.0, SVG Export Plug-In . SVG Version: 6.00 Build 0)  -->
<!DOCTYPE svg PUBLIC "-//W3C//DTD SVG 1.1//EN" "http://www.w3.org/Graphics/SVG/1.1/DTD/svg11.dtd">
<svg version="1.1" id="Layer_1" xmlns="http://www.w3.org/2000/svg" xmlns:xlink="http://www.w3.org/1999/xlink" x="0px" y="0px"
	 width="256px" height="256px" viewBox="0 0 256 256" enable-background="new 0 0 256 256" xml:space="preserve">
<polygon fill="#FFFF00" points="128,188.6 53.1,243.2 82,155.1 6.8,100.8 99.5,101 128,12.8 156.5,101 249.2,100.8 174,155.1 
	202.9,243.2 "/>
<path fill="#FFFFFF" d="M192,10.3c-17.1,0-32.4,8-42.3,20.6h-0.3v0.3c-7.1,9.1-11.4,20.6-11.4,33c0,29.7,24.2,53.9,53.9,53.9
	s53.9-24.2,53.9-53.9S221.7,10.3,192,10.3z"/>
<path d="M192,10.3c-17.1,0-32.4,8-42.3,20.6h-0.3v0.3c-7.1,9.1-11.4,20.6-11.4,33c0,29.7,24.2,53.9,53.9,53.9s53.9-24.2,53.9-53.9
	S221.7,10.3,192,10.3z M208.6,100.9l-23.1-3L183.7,78l17.6-10.7L217,82.4L208.6,100.9z M171.2,103.3L151.9,89l-2.1-14.7l11.8-7.4
	L181.5,78l1.9,20.2L171.2,103.3z M149.1,72.2L142,57.4l9.3-15.3l9.7,2l-0.2,20.8L149.1,72.2z M188.3,19l21.3,2.9l7.3,13.6l-16.1,7.9
	l-16.5-11.5L188.3,19z M231.4,74.4l-12.6,6.7l-16.9-16.2l0.2-19.7l16-7.9L232.3,50L231.4,74.4z M233.5,74.9l1-24.5l7.1-0.9
	c1.4,4.7,2.1,9.6,2.1,14.7c0,4.6-0.6,9-1.7,13.2L233.5,74.9z M240.9,47.4l-7.1,0.9l-14.6-13.1L212,21.9l6.1-2.4
	C228.7,25.7,236.9,35.6,240.9,47.4z M178.8,14.2l7.4,4.1L182,32.1L162.3,42l-10.5-2.1l-0.2-8.1C158.5,23.4,167.9,17,178.8,14.2z
	 M149.7,40.5l-8.5,14.1c1.4-7.3,4.3-14.1,8.4-20L149.7,40.5z M140.5,59.2l7.1,14.9l2.1,14.8l-2.9,0.4c-4.1-7.4-6.5-16-6.5-25.1
	C140.3,62.5,140.4,60.8,140.5,59.2z M172.4,112.1l-0.2-6.8l12.5-5.3l23.9,3.1l4.4,8.4c-6.4,2.9-13.5,4.5-21,4.5
	C185.1,115.9,178.5,114.5,172.4,112.1z"/>
<g>
	<path fill="none" stroke="#000000" stroke-width="3" stroke-miterlimit="10" d="M157.6,137"/>
	<path fill="#FF0000" d="M157.6,137"/>
</g>
<g>
	<path fill="#FFFFFF" d="M213.295,171.233c20.074-10.342,33.275-32.455,34.026-35.789c0.751-3.334-0.561-4.062-2.911-6.463
		c-2.35-2.401-7.027-0.443-7.027-0.443s-20.972,17.734-30.806,24.745c-9.919,7.123-51.736,18.649-57.365,21.748
		s-44.853,16.589-51.329,25.255c0.072,2.716-1.7,9.623,5.176,6.049S180.193,188.118,213.295,171.233z"/>
	<g>
		<path fill="none" stroke="#000000" stroke-width="3" stroke-miterlimit="10" d="M183.994,143.984
			c3.327-0.762,6.046-1.541,8.099-2.026c4.376-1.21,9.417-2.713,16.075-4.944c8.768-3.027,18.452-8.2,22.063-9.102
			c6.343-1.582,12.332,0.115,12.332,0.115c2.931,2.22-20.958,20.761-26.693,25.287c-14.763,11.527-61.362,23.511-94.888,37.325
			c-11.945,4.879-17.13,9.734-17.13,9.734s9.236-3.294,15.778-4.903c14.528-3.721,77.994-17.832,94.236-28.149
			c20.966-13.392,31.307-32.082,31.352-35.419c5.183,7.562,1.743,14.094-1.276,18.549c-3.033,4.356-0.512,6.531-1.762,7.713
			c-0.697,0.803-4.297-0.416-7.296,2.723c-2.999,3.14-4.044,5.807-7.736,9.043c-3.706,3.136-0.624,6.446-2.971,9.193
			c-2.36,2.648-5.124-2.018-8.656,0.185c-3.518,2.303-5.533,3.792-11.685,6.761c-6.053,2.955-2.254,7.075-4.607,8.308
			c-2.227,1.418-6.655-4.331-11.29-2.076c-4.635,2.255-22.527,14.516-28.668,18.292c-6.241,3.789-1.034,12.256-2.994,14.142
			c-1.25,1.182-5.616-2.657-9.561-2.718c-2.319,0.017-4.519,1.633-6.763,3.659c-6.008,5.473-0.518,10.873-3.1,12.643
			s-4.533-1.393-9.165-2.773c-4.632-1.38-8.478,1.473-13.421-2.892c-23.76-20.746-20.213-44.05-20.213-44.05
			c1.612-2.948,2.613-2.279,7.389-1.323c4.762,0.857,12.906,1.348,18.753-3.093c5.749-4.428,11.729-15.954,11.031-21.006
			c-0.697-5.052-2.208-8.68,4.399-9.087c2.702-0.171,10.685-1.576,19.915-3.455l4.219-0.885
			C162.15,148.816,162.15,148.816,183.994,143.984z"/>
		<path fill="#FF3D00" d="M183.994,143.984c3.327-0.762,6.046-1.541,8.099-2.026c4.376-1.21,9.417-2.713,16.075-4.944
			c8.768-3.027,18.452-8.2,22.063-9.102c6.343-1.582,12.332,0.115,12.332,0.115c2.931,2.22-20.958,20.761-26.693,25.287
			c-14.763,11.527-61.362,23.511-94.888,37.325c-11.945,4.879-17.13,9.734-17.13,9.734s9.236-3.294,15.778-4.903
			c14.528-3.721,77.994-17.832,94.236-28.149c20.966-13.392,31.307-32.082,31.352-35.419c5.183,7.562,1.743,14.094-1.276,18.549
			c-3.033,4.356-0.512,6.531-1.762,7.713c-0.697,0.803-4.297-0.416-7.296,2.723c-2.999,3.14-4.044,5.807-7.736,9.043
			c-3.706,3.136-0.624,6.446-2.971,9.193c-2.36,2.648-5.124-2.018-8.656,0.185c-3.518,2.303-5.533,3.792-11.685,6.761
			c-6.053,2.955-2.254,7.075-4.607,8.308c-2.227,1.418-6.655-4.331-11.29-2.076c-4.635,2.255-22.527,14.516-28.668,18.292
			c-6.241,3.789-1.034,12.256-2.994,14.142c-1.25,1.182-5.616-2.657-9.561-2.718c-2.319,0.017-4.519,1.633-6.763,3.659
			c-6.008,5.473-0.518,10.873-3.1,12.643s-4.533-1.393-9.165-2.773c-4.632-1.38-8.478,1.473-13.421-2.892
			c-23.76-20.746-20.213-44.05-20.213-44.05c1.612-2.948,2.613-2.279,7.389-1.323c4.762,0.857,12.906,1.348,18.753-3.093
			c5.749-4.428,11.729-15.954,11.031-21.006c-0.697-5.052-2.208-8.68,4.399-9.087c2.702-0.171,10.685-1.576,19.915-3.455
			l4.219-0.885C162.15,148.816,162.15,148.816,183.994,143.984z"/>
	</g>
	<g>
		<g>
			<g>
				<path fill="none" stroke="#1D1D1B" stroke-width="3" d="M155.658,163.946c-0.198,0.027-0.396,0.055-0.608-0.017
					c-1.045-0.26-1.79-1.267-1.63-2.299l2.813-14.723c0.26-1.045,1.267-1.79,2.299-1.63c1.045,0.259,1.79,1.267,1.63,2.299
					l-2.813,14.723C157.174,163.232,156.45,163.836,155.658,163.946z"/>
			</g>
			<g>
				<path fill="none" stroke="#1D1D1B" stroke-width="3" d="M164.726,160.17c-0.198,0.027-0.396,0.055-0.608-0.017
					c-1.045-0.26-1.79-1.267-1.63-2.299l2.206-11.812c0.26-1.045,1.267-1.79,2.299-1.63c1.045,0.26,1.79,1.267,1.63,2.299
					l-2.206,11.812C166.243,159.456,165.519,160.061,164.726,160.17z"/>
			</g>
			<g>
				<path fill="none" stroke="#1D1D1B" stroke-width="3" d="M172.334,157.505c-0.198,0.027-0.396,0.055-0.608-0.017
					c-1.045-0.26-1.79-1.267-1.63-2.299l2.09-11.191c0.26-1.045,1.267-1.79,2.299-1.63c1.045,0.26,1.79,1.267,1.63,2.299
					l-2.089,11.191C173.85,156.791,173.126,157.396,172.334,157.505z"/>
			</g>
			<g>
				<path fill="none" stroke="#1D1D1B" stroke-width="3" d="M180.897,152.992c-0.198,0.027-0.396,0.055-0.608-0.017
					c-1.045-0.26-1.79-1.267-1.63-2.299l1.697-8.916c0.26-1.045,1.267-1.79,2.299-1.63c1.045,0.26,1.79,1.267,1.63,2.299
					l-1.697,8.916C182.413,152.278,181.689,152.882,180.897,152.992z"/>
			</g>
		</g>
		<g>
			<g>
				<path fill="#FFFF00" d="M155.658,163.946c-0.198,0.027-0.396,0.055-0.608-0.017c-1.045-0.26-1.79-1.267-1.63-2.299l2.813-14.723
					c0.26-1.045,1.267-1.79,2.299-1.63c1.045,0.259,1.79,1.267,1.63,2.299l-2.813,14.723
					C157.174,163.232,156.45,163.836,155.658,163.946z"/>
			</g>
			<g>
				<path fill="#FFFF00" d="M164.726,160.17c-0.198,0.027-0.396,0.055-0.608-0.017c-1.045-0.26-1.79-1.267-1.63-2.299l2.206-11.812
					c0.26-1.045,1.267-1.79,2.299-1.63c1.045,0.26,1.79,1.267,1.63,2.299l-2.206,11.812
					C166.243,159.456,165.519,160.061,164.726,160.17z"/>
			</g>
			<g>
				<path fill="#FFFF00" d="M172.334,157.505c-0.198,0.027-0.396,0.055-0.608-0.017c-1.045-0.26-1.79-1.267-1.63-2.299l2.09-11.191
					c0.26-1.045,1.267-1.79,2.299-1.63c1.045,0.26,1.79,1.267,1.63,2.299l-2.089,11.191
					C173.85,156.791,173.126,157.396,172.334,157.505z"/>
			</g>
			<g>
				<path fill="#FFFF00" d="M180.897,152.992c-0.198,0.027-0.396,0.055-0.608-0.017c-1.045-0.26-1.79-1.267-1.63-2.299l1.697-8.916
					c0.26-1.045,1.267-1.79,2.299-1.63c1.045,0.26,1.79,1.267,1.63,2.299l-1.697,8.916
					C182.413,152.278,181.689,152.882,180.897,152.992z"/>
			</g>
		</g>
	</g>
</g>
<g>
	<circle fill="#F0F0F0" cx="191.5" cy="65.2" r="41"/>
	<path fill="#D80027" d="M232.5,65.2c0,22.6-18.3,41-41,41s-41-18.3-41-41c0-22.6,41,0,41,0S222.5,65.2,232.5,65.2z"/>
	<path fill="#0052B4" d="M150.6,65.2c0-22.6,18.3-41,41-41v41C191.5,65.2,164.8,65.2,150.6,65.2z"/>
	<polygon fill="#F0F0F0" points="175,38.5 177.6,46.7 186.2,46.7 179.3,51.7 181.9,59.9 175,54.8 168,59.9 170.7,51.7 163.7,46.7 
		172.3,46.7 	"/>
</g>
<ellipse fill="none" stroke="#000000" stroke-miterlimit="10" cx="191.6" cy="65.2" rx="40.8" ry="40.6"/>
<text transform="matrix(1 0 0 1 15.3333 125.8333)" font-family="'Antonio-Bold'" font-size="20">CHILES</text>
<text transform="matrix(1 0 0 1 15.3333 149.8333)" font-family="'Antonio-Bold'" font-size="20">FUSSBALLER DES</text>
<text transform="matrix(1 0 0 1 15.3333 173.8333)" font-family="'Antonio-Bold'" font-size="20">JAHRES</text>
</svg>
