<?xml version="1.0" encoding="utf-8"?>
<!-- Generator: Adobe Illustrator 17.0.0, SVG Export Plug-In . SVG Version: 6.00 Build 0)  -->
<!DOCTYPE svg PUBLIC "-//W3C//DTD SVG 1.1//EN" "http://www.w3.org/Graphics/SVG/1.1/DTD/svg11.dtd">
<svg version="1.1" id="Layer_1" xmlns="http://www.w3.org/2000/svg" xmlns:xlink="http://www.w3.org/1999/xlink" x="0px" y="0px"
	 width="256px" height="256px" viewBox="0 0 256 256" enable-background="new 0 0 256 256" xml:space="preserve">
<path fill="#FFFFFF" d="M192.1,10.3c-17.1,0-32.4,8-42.3,20.6h-0.3v0.3c-7.1,9.1-11.4,20.6-11.4,33c0,29.7,24.2,53.9,53.9,53.9
	s54-24.2,54-53.9S221.9,10.3,192.1,10.3z"/>
<path d="M192,10.3c-17.1,0-32.4,8-42.3,20.6h-0.3v0.3c-7.1,9.1-11.4,20.6-11.4,33c0,29.7,24.2,53.9,53.9,53.9s53.9-24.2,53.9-53.9
	S221.7,10.3,192,10.3z M208.6,100.9l-23.1-3L183.7,78l17.6-10.7L217,82.4L208.6,100.9z M171.2,103.3L151.9,89l-2.1-14.7l11.8-7.4
	L181.5,78l1.9,20.2L171.2,103.3z M149.1,72.2L142,57.4l9.3-15.3l9.7,2l-0.2,20.8L149.1,72.2z M188.3,19l21.3,2.9l7.3,13.6l-16.1,7.9
	l-16.5-11.5L188.3,19z M231.4,74.4l-12.6,6.7l-16.9-16.2l0.2-19.7l16-7.9L232.3,50L231.4,74.4z M233.5,74.9l1-24.5l7.1-0.9
	c1.4,4.7,2.1,9.6,2.1,14.7c0,4.6-0.6,9-1.7,13.2L233.5,74.9z M240.9,47.4l-7.1,0.9l-14.6-13.1L212,21.9l6.1-2.4
	C228.7,25.7,236.9,35.6,240.9,47.4z M178.8,14.2l7.4,4.1L182,32.1L162.3,42l-10.5-2.1l-0.2-8.1C158.5,23.4,167.9,17,178.8,14.2z
	 M149.7,40.5l-8.5,14.1c1.4-7.3,4.3-14.1,8.4-20L149.7,40.5z M140.5,59.2l7.1,14.9l2.1,14.8l-2.9,0.4c-4.1-7.4-6.5-16-6.5-25.1
	C140.3,62.5,140.4,60.8,140.5,59.2z M172.4,112.1l-0.2-6.8l12.5-5.3l23.9,3.1l4.4,8.4c-6.4,2.9-13.5,4.5-21,4.5
	C185.1,115.9,178.5,114.5,172.4,112.1z"/>
<g>
	<path fill="#FCFF00" stroke="#000000" stroke-miterlimit="10" d="M174.6,104.7c0-1.2-1.2-1.2-1.2-1.2s-6.2,0-8.2,0
		s-0.7,0.6-0.7,0.6v2.1c0,3.3-2.1,3.3-2.6,3.3s-4.7-0.1-5.7-0.1c0.3-0.9-0.4-1.8-0.4-1.8h-55.5c0,0-0.5,0.9-0.2,1.8
		c-1,0-4.8,0-5.4,0c-0.5,0-2.1,0.1-2.1-3.1v-2.1c0,0-0.2-1-1.5-1c-2,0-8.3,0-8.3,0s-1.3,0.2-1.3,1.4s-0.1,27.6-0.1,29.6
		c0,2.1,0.5,6.1,7.1,9.2c6.5,3.2,19.5,9.3,19.6,10c-0.4,0.7-0.5,2.5,1.1,2.6c1,0,1.5-0.9,1.5-0.9s6.3,3,8.4,3.6c0,2,2.5,9.6,4.7,12
		c0,0.4-0.1,2.1-0.1,2.1s-2.9,0.2-2.9,2.7s2.3,3.7,3,3.8c0,1.1-3.3,10.6-5.2,12.8c0,1-0.3,2.5-0.3,2.5h-4.1c0,0-0.4,0.1-0.4,0.7
		s0,3.3,0,3.3h-2v14h-3v3H107l-0.5,1h-1.8c0,0-1.3,0.1-1.3,1.7c0,1.6,0,24.3,0,24.3h-2c0,0-3.6,2.5-3.6,8.1c0,1.1,0.7,3.9,2.5,3.9
		c1.9,0,53.2,0,55.1,0s2.5-2.8,2.5-3.9c0-5.6-3.6-8.1-3.6-8.1h-2.9c0,0,0-22.7,0-24.3s-0.3-1.7-0.3-1.7H149l-0.5-1h-1.1v-3h-2v-14
		h-2c0,0,0-2.6,0-3.3s-1.5-0.7-1.5-0.7h-4.1c0,0-0.3-1.5-0.3-2.5c-2-2.2-5.2-11.7-5.2-12.7c0.8-0.1,3-1.3,3-3.8s-2.9-2.7-2.9-2.7
		s-0.1-1.6-0.1-2.1c2.2-2.4,4.7-10,4.7-12c2.1-0.5,8.4-3.6,8.4-3.6s0.5,0.9,1.5,0.9c1.6-0.1,1.5-2,1.1-2.6c0.1-0.7,13.1-6.9,19.6-10
		c6.5-3.2,7.1-7,7.1-9.1C174.7,132.1,174.6,105.9,174.6,104.7z M89.3,140.6c-5.5-3-5.8-7.1-5.8-7.1v-27h6.2c0,0,0.1,0.9,0.1,1.9
		c0,3.7,2.9,4.1,4,4.1c1,0,7.7,0,7.7,0l0.2,0.3c5.8,16,7.8,36.8,7.8,39.9C108.7,151.1,94.9,143.5,89.3,140.6z M165.7,140.6
		c-5.5,2.9-18.9,10.5-19.7,12.1c0-3,2.4-23.9,8.2-39.9l0.3-0.3h8.5c0,0,3.2-0.4,3.2-4.1c0-1,0.1-1.9,0.1-1.9h4.2v27
		C170.5,133.5,171.2,137.6,165.7,140.6z"/>
	<line fill="none" stroke="#000000" stroke-miterlimit="10" x1="112" y1="198.5" x2="145" y2="198.5"/>
	<line fill="none" stroke="#000000" stroke-miterlimit="10" x1="124" y1="172.5" x2="132" y2="172.5"/>
	<line fill="none" stroke="#000000" stroke-miterlimit="10" x1="110" y1="212.5" x2="146" y2="212.5"/>
	<line fill="none" stroke="#000000" stroke-miterlimit="10" x1="107" y1="216.5" x2="150" y2="216.5"/>
	<line fill="none" stroke="#000000" stroke-miterlimit="10" x1="104" y1="242.5" x2="152" y2="242.5"/>
	<path fill="#FFFFFF" d="M125,110h14.4c0,0-0.9,16.4-2,22.6c-0.4,2.5-1.3,17.5-1.2,22.8c-2.4,0-2.2,0-11.2,0V110z"/>
	<path fill="#FFFFFF" d="M131.6,176H127c0,0-1-0.5-1-1.4c0-1.2,1-1.6,1-1.6h4.6c0,0,1,0.3,1,1.5S131.6,176,131.6,176z"/>
	<path fill="#FFFFFF" d="M127.3,179.6c0,0-2.2,11.4-0.9,14.4c2.1,0,5.5,0,5.5,0v-2.3c0,0-1.6-9.5-1.3-11.9
		C129.6,179.8,127.3,179.6,127.3,179.6z"/>
	<rect x="127" y="195" fill="#FFFFFF" width="7" height="1"/>
	<rect x="125" y="213" fill="#FFFFFF" width="12" height="2"/>
	<rect x="125" y="217" fill="#FFFFFF" width="14" height="1"/>
	<line fill="none" stroke="#000000" stroke-miterlimit="10" x1="118" y1="194.5" x2="140" y2="194.5"/>
	<line fill="none" stroke="#000000" stroke-miterlimit="10" x1="119" y1="192.5" x2="137" y2="192.5"/>
	<path fill="#ABD100" d="M139.4,110h7.8c0,0-3.9,18.6-4.8,25.9c-0.9,7.3-1.7,14.9-1.7,19.5c-2.9,0-5.1,0-5.1,0S136.2,125,139.4,110z
		"/>
	<path fill="#FF9F00" d="M108.7,110h-4.6c0,0,8.3,30,8.1,38.3c0,2.1,0.3,7.7,0.3,7.7h2.1c0,0-0.1-7.3-0.1-9.8S108.7,110,108.7,110z"
		/>
	<line fill="none" stroke="#000000" stroke-miterlimit="10" x1="112" y1="156.5" x2="145" y2="156.5"/>
	<path fill="#FF9F00" d="M121.7,158.8l-1.9,0.1c0,0,0.3,2.8,1.3,5.7c0.7,2.1,2,3.5,3.2,6.5c1.1,0,2,0,2,0s-2.1-2.9-3.3-6
		C121.9,162.4,121.7,159.3,121.7,158.8z"/>
	<path fill="#FF9F00" d="M121.8,174.5c0,0,0.6,2,2.8,2.7c1.7,0.6,1.1,1.2,0,1.1C124.2,178.3,120.7,177.6,121.8,174.5z"/>
	<rect x="119.4" y="192.8" fill="#FF9F00" width="1.5" height="0.8"/>
	<rect x="116" y="195" fill="#B9A9A5" width="2" height="3"/>
	<rect x="113" y="199" fill="#FF9F00" width="3" height="13"/>
	<rect x="111" y="213" fill="#FF9F00" width="4" height="1"/>
	<rect x="108" y="217" fill="#FF9F00" width="3" height="25"/>
	<path fill="#ABD100" d="M133.3,159h2c0,0-0.6,7-4.2,12c-1.1,0-1.5,0-1.5,0S133.3,165.5,133.3,159z"/>
	<path fill="#ABD100" d="M134.2,174.5c0,0-0.8,2.3-2.8,2.7c-1.9,0.4-0.8,1.2,0,1.1C132.2,178.2,135.2,177.3,134.2,174.5z"/>
	<rect x="134.4" y="193.1" fill="#ABD100" width="1.6" height="0.8"/>
	<rect x="134" y="195" fill="#ABD100" width="5" height="3"/>
	<rect x="115" y="195" fill="#FF9F00" width="4" height="3"/>
	<rect x="136" y="199" fill="#ABD100" width="5" height="13"/>
	<rect x="138" y="213" fill="#ABD100" width="6" height="1"/>
	<rect x="141" y="217" fill="#ABD100" width="5" height="25"/>
	<line fill="none" stroke="#000000" stroke-miterlimit="10" x1="120" y1="158.5" x2="137" y2="158.5"/>
	<line fill="none" stroke="#000000" stroke-miterlimit="10" x1="124" y1="179.5" x2="132" y2="179.5"/>
</g>
<path fill="#D80027" d="M191.4,106.1c22.6,0,41-18.3,41-41c0-22.6-18.3-41-41-41c-22.6,0-41,18.3-41,41S168.8,106.1,191.4,106.1"/>
<polygon fill="#FFDA44" points="172.9,49.1 176.4,60 187.8,60 178.6,66.7 182.1,77.6 172.9,70.9 163.6,77.6 167.1,66.7 157.9,60 
	169.3,60 "/>
<polygon fill="#FFDA44" points="199,87.6 196.3,84.3 192.3,85.8 194.6,82.2 191.9,78.9 196.1,80 198.4,76.4 198.6,80.7 202.8,81.8 
	198.8,83.3 "/>
<polygon fill="#FFDA44" points="204.4,77.9 205.7,73.8 202.1,71.3 206.4,71.2 207.7,67.1 209.1,71.2 213.4,71.1 209.9,73.7 
	211.3,77.8 207.8,75.3 "/>
<polygon fill="#FFDA44" points="211.6,54.2 209.7,58.1 212.8,61.1 208.6,60.5 206.7,64.3 205.9,60.1 201.7,59.5 205.5,57.5 
	204.8,53.2 207.8,56.2 "/>
<polygon fill="#FFDA44" points="199.1,42.6 198.8,46.8 202.8,48.4 198.6,49.5 198.3,53.8 196,50.1 191.9,51.1 194.6,47.9 
	192.4,44.2 196.3,45.8 "/>
<path fill="none" stroke="#1D1D1B" stroke-miterlimit="10" d="M191.6,106.3c22.6,0,41-18.3,41-41s-18.3-41-41-41
	c-22.6,0-41,18.3-41,41S169,106.3,191.6,106.3"/>
<g>
	<path d="M53.489,204.899c-0.998,1.343-2.566,2.015-4.705,2.015s-3.737-0.716-4.795-2.146c-1.059-1.432-1.587-3.49-1.587-6.177
		v-12.618c0-4.31,1.129-7.002,3.389-8.076c0.833-0.396,1.842-0.593,3.027-0.593c4.068,0,6.103,2.566,6.103,7.699v3.98H50.66v-3.701
		c0-1.491-0.126-2.558-0.378-3.199s-0.746-0.963-1.48-0.963s-1.245,0.34-1.53,1.021c-0.285,0.68-0.428,1.722-0.428,3.125v13.522
		c0,1.557,0.137,2.67,0.411,3.339s0.773,1.004,1.497,1.004c0.724,0,1.223-0.34,1.497-1.021c0.274-0.68,0.411-1.804,0.411-3.372
		v-4.146h4.327v4.097C54.986,201.485,54.486,203.556,53.489,204.899z"/>
	<path d="M58.572,206.585v-28.952h4.409v11.713h3.948v-11.713h4.409v28.952h-4.409v-13.456H62.98v13.456H58.572z"/>
	<path d="M75.845,206.585v-28.952h4.409v28.952H75.845z"/>
	<path d="M84.761,206.585v-28.952h3.455l6.136,17.371l-0.312-7.896v-9.476h3.965v28.952h-3.126l-6.3-17.979l0.247,7.6v10.38
		L84.761,206.585L84.761,206.585z"/>
	<path d="M102.346,206.585v-28.952h9.706v3.8h-5.297v8.423h5.034v3.718h-5.034v9.212h5.494v3.8h-9.903V206.585z"/>
	<path d="M115.193,198.442v-2.583h4.178v2.912c0,1.612,0.137,2.744,0.411,3.396c0.274,0.653,0.79,0.979,1.546,0.979
		c0.757,0,1.259-0.269,1.505-0.807c0.247-0.537,0.37-1.414,0.37-2.632c0-1.217-0.22-2.278-0.658-3.183
		c-0.438-0.905-1.135-1.852-2.089-2.838l-2.139-2.204c-0.998-1.042-1.774-2.122-2.328-3.241c-0.554-1.118-0.831-2.412-0.831-3.882
		c0-2.391,0.46-4.168,1.382-5.33c0.921-1.162,2.505-1.744,4.754-1.744c2.248,0,3.77,0.678,4.565,2.032
		c0.795,1.354,1.192,3.331,1.192,5.93v1.793h-4.063v-2.072c0-1.403-0.121-2.41-0.362-3.019s-0.705-0.913-1.39-0.913
		c-0.686,0-1.179,0.23-1.48,0.69c-0.302,0.461-0.453,1.152-0.453,2.073s0.154,1.656,0.461,2.204c0.307,0.549,0.861,1.25,1.661,2.105
		l2.385,2.583c1.195,1.294,2.098,2.604,2.706,3.932c0.609,1.327,0.913,2.774,0.913,4.343c0,2.709-0.455,4.71-1.365,6.004
		c-0.911,1.295-2.503,1.941-4.779,1.941s-3.86-0.721-4.754-2.163C115.64,203.309,115.193,201.206,115.193,198.442z"/>
	<path d="M130.821,206.585v-28.952h4.408v28.952H130.821z"/>
	<path d="M139.161,198.442v-2.583h4.178v2.912c0,1.612,0.138,2.744,0.411,3.396c0.274,0.653,0.79,0.979,1.547,0.979
		s1.259-0.269,1.505-0.807c0.247-0.537,0.37-1.414,0.37-2.632c0-1.217-0.22-2.278-0.658-3.183s-1.135-1.852-2.089-2.838
		l-2.139-2.204c-0.998-1.042-1.773-2.122-2.327-3.241c-0.555-1.118-0.831-2.412-0.831-3.882c0-2.391,0.461-4.168,1.382-5.33
		s2.506-1.744,4.754-1.744s3.77,0.678,4.565,2.032s1.192,3.331,1.192,5.93v1.793h-4.063v-2.072c0-1.403-0.12-2.41-0.361-3.019
		s-0.705-0.913-1.391-0.913s-1.179,0.23-1.48,0.69c-0.302,0.461-0.452,1.152-0.452,2.073s0.153,1.656,0.461,2.204
		c0.307,0.549,0.86,1.25,1.661,2.105l2.385,2.583c1.195,1.294,2.098,2.604,2.706,3.932c0.609,1.327,0.913,2.774,0.913,4.343
		c0,2.709-0.455,4.71-1.365,6.004c-0.91,1.295-2.503,1.941-4.778,1.941c-2.276,0-3.86-0.721-4.754-2.163
		C139.607,203.309,139.161,201.206,139.161,198.442z"/>
	<path d="M165.35,204.899c-0.998,1.343-2.566,2.015-4.704,2.015c-2.139,0-3.737-0.716-4.796-2.146
		c-1.059-1.432-1.587-3.49-1.587-6.177v-12.618c0-4.31,1.129-7.002,3.389-8.076c0.833-0.396,1.842-0.593,3.026-0.593
		c4.068,0,6.104,2.566,6.104,7.699v3.98h-4.261v-3.701c0-1.491-0.126-2.558-0.379-3.199c-0.252-0.642-0.745-0.963-1.48-0.963
		c-0.734,0-1.244,0.34-1.529,1.021c-0.285,0.68-0.428,1.722-0.428,3.125v13.522c0,1.557,0.137,2.67,0.411,3.339
		s0.773,1.004,1.497,1.004s1.223-0.34,1.497-1.021c0.273-0.68,0.411-1.804,0.411-3.372v-4.146h4.326v4.097
		C166.847,201.485,166.348,203.556,165.35,204.899z"/>
	<path d="M170.433,206.585v-28.952h4.409v11.713h3.948v-11.713h4.408v28.952h-4.408v-13.456h-3.948v13.456H170.433z"/>
	<path d="M187.541,206.585v-28.952h9.706v3.8h-5.297v8.423h5.033v3.718h-5.033v9.212h5.494v3.8h-9.903V206.585z"/>
	<path d="M206.788,192.98l-1.415-0.065v13.67h-4.408v-28.952h7.287c1.514,0,2.643,0.305,3.389,0.913s1.236,1.459,1.473,2.55
		c0.235,1.091,0.354,2.517,0.354,4.277s-0.187,3.101-0.56,4.021c-0.373,0.922-1.063,1.541-2.072,1.859
		c0.998,0.175,1.694,0.85,2.089,2.023c0.395,1.173,0.593,3.616,0.593,7.328c0,3.713,0.055,5.706,0.164,5.979h-4.408
		c-0.11-0.219-0.165-3.679-0.165-10.38c0-1.283-0.153-2.136-0.461-2.558C208.34,193.225,207.72,193.003,206.788,192.98z
		 M205.39,189.493h1.761c0.559,0,0.973-0.126,1.241-0.378s0.455-0.686,0.56-1.3s0.156-1.552,0.156-2.812v-0.182
		c0-1.567-0.132-2.593-0.395-3.076c-0.264-0.482-0.872-0.724-1.826-0.724h-1.497V189.493z"/>
	<path d="M6.049,240.585v-28.952h5.478l4.112,21.155l3.866-21.155h5.511v28.952h-3.932v-10.791l0.165-9.903l-3.899,20.562h-3.504
		l-4.063-20.562l0.165,9.903v10.791H6.049z"/>
	<path d="M28.364,240.585v-28.952h9.706v3.8h-5.297v8.423h5.034v3.718h-5.034v9.212h5.494v3.8h-9.903V240.585z"/>
	<path d="M40.942,240.585v-28.952h4.409v28.952H40.942z"/>
	<path d="M48.271,232.442v-2.583h4.178v2.912c0,1.612,0.137,2.744,0.411,3.396c0.274,0.653,0.79,0.979,1.546,0.979
		c0.757,0,1.259-0.269,1.505-0.807c0.247-0.537,0.37-1.414,0.37-2.632c0-1.217-0.22-2.278-0.658-3.183s-1.135-1.852-2.089-2.838
		l-2.139-2.204c-0.998-1.042-1.774-2.122-2.328-3.241c-0.554-1.118-0.831-2.412-0.831-3.882c0-2.391,0.46-4.168,1.382-5.33
		c0.921-1.162,2.505-1.744,4.754-1.744c2.248,0,3.77,0.678,4.565,2.032s1.192,3.331,1.192,5.93v1.793h-4.063v-2.072
		c0-1.403-0.121-2.41-0.362-3.019s-0.705-0.913-1.39-0.913c-0.686,0-1.179,0.23-1.48,0.69c-0.302,0.461-0.453,1.152-0.453,2.073
		s0.154,1.656,0.461,2.204c0.307,0.549,0.861,1.25,1.661,2.105l2.385,2.583c1.195,1.294,2.098,2.604,2.706,3.932
		c0.609,1.327,0.913,2.774,0.913,4.343c0,2.709-0.455,4.71-1.365,6.004c-0.911,1.295-2.503,1.941-4.779,1.941
		s-3.86-0.721-4.754-2.163C48.718,237.309,48.271,235.206,48.271,232.442z"/>
	<path d="M64.204,240.585v-25.136h-3.389v-3.816h11.038v3.816h-3.257v25.136H64.204z"/>
	<path d="M73.277,240.585v-28.952h9.706v3.8h-5.297v8.423h5.034v3.718h-5.034v9.212h5.494v3.8h-9.903V240.585z"/>
	<path d="M91.513,226.98l-1.415-0.065v13.67H85.69v-28.952h7.288c1.513,0,2.643,0.305,3.389,0.913s1.236,1.459,1.472,2.55
		s0.354,2.517,0.354,4.277s-0.187,3.101-0.559,4.021c-0.373,0.922-1.064,1.541-2.073,1.859c0.998,0.175,1.694,0.85,2.089,2.023
		c0.395,1.173,0.592,3.616,0.592,7.328c0,3.713,0.055,5.706,0.164,5.979h-4.408c-0.11-0.219-0.165-3.679-0.165-10.38
		c0-1.283-0.154-2.136-0.461-2.558C93.065,227.225,92.445,227.003,91.513,226.98z M90.115,223.493h1.76
		c0.559,0,0.973-0.126,1.242-0.378s0.455-0.686,0.56-1.3c0.104-0.614,0.156-1.552,0.156-2.812v-0.182
		c0-1.567-0.132-2.593-0.395-3.076c-0.263-0.482-0.872-0.724-1.826-0.724h-1.497V223.493z"/>
	<path d="M110.601,242.444c-1.066,0-1.933-0.087-2.598-0.26c-0.666-0.173-1.229-0.49-1.688-0.95c-0.46-0.46-0.784-1.084-0.971-1.873
		c-0.187-0.788-0.28-1.807-0.28-3.056V221.8c0-1.248,0.093-2.267,0.28-3.056c0.187-0.788,0.51-1.412,0.971-1.873
		c0.46-0.46,1.023-0.776,1.688-0.95c0.665-0.173,1.531-0.26,2.598-0.26v2.734c-0.812,0-1.331,0.212-1.559,0.636
		s-0.342,1.329-0.342,2.714v14.615c0,1.386,0.114,2.29,0.342,2.714c0.228,0.424,0.747,0.636,1.559,0.636V242.444z"/>
	<path d="M112.25,233.817v-2.146h3.473v2.42c0,1.34,0.114,2.281,0.342,2.823c0.228,0.543,0.656,0.813,1.285,0.813
		s1.046-0.223,1.251-0.67c0.205-0.446,0.308-1.176,0.308-2.188s-0.183-1.894-0.547-2.646c-0.365-0.752-0.943-1.538-1.736-2.358
		l-1.777-1.832c-0.83-0.865-1.475-1.764-1.935-2.693c-0.46-0.93-0.69-2.005-0.69-3.227c0-1.986,0.383-3.463,1.148-4.43
		c0.766-0.966,2.083-1.449,3.951-1.449c1.868,0,3.133,0.563,3.794,1.688c0.661,1.126,0.991,2.769,0.991,4.929v1.49h-3.377v-1.723
		c0-1.166-0.101-2.003-0.301-2.509c-0.201-0.506-0.586-0.759-1.155-0.759c-0.57,0-0.98,0.191-1.23,0.574
		c-0.251,0.383-0.376,0.957-0.376,1.723s0.127,1.377,0.383,1.832c0.255,0.456,0.715,1.039,1.381,1.75l1.982,2.146
		c0.993,1.076,1.743,2.165,2.249,3.268c0.506,1.104,0.759,2.307,0.759,3.609c0,2.252-0.378,3.915-1.135,4.99
		c-0.757,1.076-2.081,1.613-3.972,1.613c-1.892,0-3.208-0.599-3.951-1.798C112.621,237.862,112.25,236.114,112.25,233.817z"/>
	<path d="M133.476,239.293c-0.839,1.044-2.186,1.565-4.04,1.565c-1.855,0-3.204-0.523-4.047-1.572
		c-0.843-1.048-1.265-2.675-1.265-4.881v-17.896h3.664v17.828c0,1.268,0.059,2.037,0.178,2.311c0.118,0.273,0.262,0.522,0.431,0.745
		c0.168,0.224,0.517,0.335,1.046,0.335c0.528,0,0.906-0.154,1.135-0.465c0.228-0.31,0.366-0.694,0.417-1.155
		c0.05-0.46,0.075-1.05,0.075-1.771v-17.828h3.664v17.896C134.733,236.62,134.313,238.25,133.476,239.293z"/>
	<path d="M137.366,240.585v-24.062h5.523c1.868,0,3.146,0.567,3.835,1.702c0.688,1.135,1.05,2.828,1.087,5.079v0.506
		c0,2.389-0.34,4.2-1.019,5.435c-0.68,1.235-1.939,1.853-3.78,1.853h-1.982v9.488L137.366,240.585L137.366,240.585z M141.03,228.075
		h1.258c0.774,0,1.278-0.298,1.511-0.896c0.232-0.597,0.349-1.733,0.349-3.411v-0.465c-0.01-1.422-0.135-2.438-0.376-3.049
		c-0.242-0.61-0.728-0.916-1.456-0.916h-1.285L141.03,228.075L141.03,228.075z"/>
	<path d="M149.433,240.585v-24.062h8.066v3.158h-4.402v7h4.184v3.09h-4.184v7.656h4.566v3.158L149.433,240.585L149.433,240.585z"/>
	<path d="M164.588,229.278l-1.176-0.055v11.361h-3.664v-24.062h6.057c1.258,0,2.196,0.253,2.816,0.759s1.027,1.213,1.224,2.119
		c0.196,0.907,0.294,2.092,0.294,3.555s-0.155,2.577-0.465,3.343s-0.884,1.281-1.723,1.545c0.829,0.146,1.408,0.707,1.736,1.682
		c0.328,0.976,0.492,3.006,0.492,6.091c0,3.086,0.046,4.742,0.137,4.97h-3.664c-0.091-0.182-0.137-3.058-0.137-8.627
		c0-1.066-0.128-1.774-0.383-2.126C165.878,229.481,165.362,229.297,164.588,229.278z M163.426,226.38h1.463
		c0.465,0,0.809-0.104,1.032-0.314c0.224-0.209,0.378-0.569,0.465-1.08c0.087-0.51,0.13-1.289,0.13-2.338v-0.15
		c0-1.303-0.109-2.155-0.328-2.557c-0.219-0.4-0.725-0.602-1.518-0.602h-1.244L163.426,226.38L163.426,226.38z"/>
	<path d="M176.895,240.585v-24.062h3.664v20.945h4.635v3.117L176.895,240.585L176.895,240.585z"/>
	<path d="M186.459,240.585v-24.062h8.066v3.158h-4.402v7h4.184v3.09h-4.184v7.656h4.566v3.158L186.459,240.585L186.459,240.585z"/>
	<path d="M195.682,240.585l3.432-24.062h4.84l3.65,24.062h-3.418l-0.574-4.293h-3.883l-0.52,4.293H195.682z M203.229,233.353
		l-1.613-12.086h-0.055l-1.477,12.086H203.229z"/>
	<path d="M213.736,240.831c-1.514,0-2.696-0.595-3.548-1.784c-0.853-1.189-1.278-3.023-1.278-5.503v-10.459
		c0-2.224,0.435-3.919,1.306-5.086c0.87-1.166,2.253-1.75,4.149-1.75c2.36,0,3.859,0.88,4.498,2.639
		c0.383,1.058,0.574,2.502,0.574,4.334v1.709h-3.418v-2.516c0-1.103-0.116-1.877-0.349-2.324c-0.232-0.446-0.67-0.67-1.312-0.67
		s-1.097,0.267-1.36,0.8c-0.265,0.533-0.396,1.479-0.396,2.837v10.432c0,1.577,0.118,2.676,0.355,3.295
		c0.236,0.62,0.699,0.93,1.388,0.93c0.688,0,1.176-0.332,1.463-0.998c0.287-0.665,0.431-1.786,0.431-3.363v-3.24h-1.846v-2.666
		h5.045v13.139h-1.641l-0.561-2.365c-0.191,0.812-0.611,1.449-1.258,1.914C215.331,240.599,214.584,240.831,213.736,240.831z"/>
	<path d="M231.257,239.293c-0.839,1.044-2.186,1.565-4.04,1.565s-3.204-0.523-4.047-1.572c-0.843-1.048-1.265-2.675-1.265-4.881
		v-17.896h3.664v17.828c0,1.268,0.06,2.037,0.178,2.311s0.262,0.522,0.431,0.745c0.169,0.224,0.518,0.335,1.046,0.335
		s0.907-0.154,1.135-0.465c0.228-0.31,0.367-0.694,0.417-1.155c0.05-0.46,0.075-1.05,0.075-1.771v-17.828h3.664v17.896
		C232.515,236.62,232.096,238.25,231.257,239.293z"/>
	<path d="M235.147,240.585v-24.062h8.066v3.158h-4.402v7h4.184v3.09h-4.184v7.656h4.566v3.158L235.147,240.585L235.147,240.585z"/>
	<path d="M244.835,242.444v-2.734c0.812,0,1.331-0.212,1.559-0.636s0.342-1.328,0.342-2.714v-14.615c0-1.385-0.114-2.29-0.342-2.714
		s-0.747-0.636-1.559-0.636v-2.734c1.066,0,1.933,0.087,2.598,0.26c0.665,0.174,1.226,0.49,1.682,0.95
		c0.456,0.461,0.777,1.085,0.964,1.873c0.187,0.789,0.28,1.808,0.28,3.056v14.506c0,1.249-0.094,2.268-0.28,3.056
		c-0.187,0.789-0.508,1.413-0.964,1.873s-1.017,0.777-1.682,0.95S245.901,242.444,244.835,242.444z"/>
</g>
</svg>
