<?xml version="1.0" encoding="utf-8"?>
<!-- Generator: Adobe Illustrator 17.0.0, SVG Export Plug-In . SVG Version: 6.00 Build 0)  -->
<!DOCTYPE svg PUBLIC "-//W3C//DTD SVG 1.1//EN" "http://www.w3.org/Graphics/SVG/1.1/DTD/svg11.dtd">
<svg version="1.1" id="Layer_1" xmlns="http://www.w3.org/2000/svg" xmlns:xlink="http://www.w3.org/1999/xlink" x="0px" y="0px"
	 width="256px" height="256px" viewBox="0 0 256 256" enable-background="new 0 0 256 256" xml:space="preserve">
	<polygon fill="#FFFF00" points="128,188.6 53.1,243.2 82,155.1 6.8,100.8 99.5,101 128,12.8 156.5,101 249.2,100.8 174,155.1 
	202.9,243.2 "/>
	<path fill="#FFFFFF" d="M192,10.3c-17.1,0-32.4,8-42.3,20.6h-0.3v0.3c-7.1,9.1-11.4,20.6-11.4,33c0,29.7,24.2,53.9,53.9,53.9
	s53.9-24.2,53.9-53.9S221.7,10.3,192,10.3z"/>
	<path d="M192,10.3c-17.1,0-32.4,8-42.3,20.6h-0.3v0.3c-7.1,9.1-11.4,20.6-11.4,33c0,29.7,24.2,53.9,53.9,53.9s53.9-24.2,53.9-53.9
	S221.7,10.3,192,10.3z M208.6,100.9l-23.1-3L183.7,78l17.6-10.7L217,82.4L208.6,100.9z M171.2,103.3L151.9,89l-2.1-14.7l11.8-7.4
	L181.5,78l1.9,20.2L171.2,103.3z M149.1,72.2L142,57.4l9.3-15.3l9.7,2l-0.2,20.8L149.1,72.2z M188.3,19l21.3,2.9l7.3,13.6l-16.1,7.9
	l-16.5-11.5L188.3,19z M231.4,74.4l-12.6,6.7l-16.9-16.2l0.2-19.7l16-7.9L232.3,50L231.4,74.4z M233.5,74.9l1-24.5l7.1-0.9
	c1.4,4.7,2.1,9.6,2.1,14.7c0,4.6-0.6,9-1.7,13.2L233.5,74.9z M240.9,47.4l-7.1,0.9l-14.6-13.1L212,21.9l6.1-2.4
	C228.7,25.7,236.9,35.6,240.9,47.4z M178.8,14.2l7.4,4.1L182,32.1L162.3,42l-10.5-2.1l-0.2-8.1C158.5,23.4,167.9,17,178.8,14.2z
	 M149.7,40.5l-8.5,14.1c1.4-7.3,4.3-14.1,8.4-20L149.7,40.5z M140.5,59.2l7.1,14.9l2.1,14.8l-2.9,0.4c-4.1-7.4-6.5-16-6.5-25.1
	C140.3,62.5,140.4,60.8,140.5,59.2z M172.4,112.1l-0.2-6.8l12.5-5.3l23.9,3.1l4.4,8.4c-6.4,2.9-13.5,4.5-21,4.5
	C185.1,115.9,178.5,114.5,172.4,112.1z"/>
	<g>
		<path fill="none" stroke="#000000" stroke-width="3" stroke-miterlimit="10" d="M157.6,137"/>
		<path fill="#FF0000" d="M157.6,137"/>
	</g>
	<g>
		<path fill="#FFFFFF" d="M209,168.3c21.3-7.5,37.4-27.6,38.6-30.8s0-4.1-2-6.8s-6.9-1.4-6.9-1.4s-23.2,14.7-33.9,20.3
		C194,155.3,151,161,145,163.3s-46.7,10.3-54.3,18c-0.3,2.7-3,9.3,4.3,6.7S173.9,180.5,209,168.3z"/>
		<g>
			<path fill="none" stroke="#000000" stroke-width="3" stroke-miterlimit="10" d="M183.7,137.3c3.4-0.3,6.2-0.7,8.3-0.9
			c4.5-0.6,9.7-1.4,16.6-2.7c9.1-1.8,19.4-5.6,23.1-6c6.5-0.7,12.2,1.8,12.2,1.8c2.6,2.6-23.6,17.7-29.9,21.4
			c-16.2,9.4-64,14.9-99.1,24c-12.5,3.2-18.3,7.3-18.3,7.3s9.6-2,16.3-2.7c14.9-1.7,79.7-7,97.2-15c22.6-10.4,35.4-27.5,35.9-30.8
			c4.1,8.2-0.2,14.2-3.8,18.2c-3.6,3.9-1.4,6.4-2.8,7.4c-0.8,0.7-4.2-1-7.6,1.7c-3.4,2.7-4.8,5.2-8.9,7.9c-4.1,2.6-1.5,6.3-4.2,8.7
			c-2.7,2.3-4.8-2.7-8.6-1c-3.8,1.8-6,3-12.5,5.1c-6.4,2.1-3.2,6.7-5.7,7.6c-2.4,1.1-6-5.2-10.9-3.6c-4.9,1.6-24.3,11.3-30.9,14.2
			c-6.7,2.9-2.7,12-4.9,13.6c-1.4,1-5.2-3.4-9.1-4c-2.3-0.3-4.7,1-7.2,2.7c-6.7,4.6-2,10.7-4.8,12.1s-4.3-2-8.7-4s-8.6,0.3-12.9-4.7
			c-20.7-23.8-14-46.4-14-46.4c2-2.7,2.9-1.9,7.5-0.3c4.6,1.5,12.6,3.1,19-0.5c6.3-3.6,13.8-14.2,13.8-19.3s-1-8.9,5.6-8.4
			c2.7,0.2,10.8-0.1,20.2-0.7l4.3-0.3C161.4,139.1,161.4,139.1,183.7,137.3z"/>
			<path fill="#9AC900" d="M183.7,137.3c3.4-0.3,6.2-0.7,8.3-0.9c4.5-0.6,9.7-1.4,16.6-2.7c9.1-1.8,19.4-5.6,23.1-6
			c6.5-0.7,12.2,1.8,12.2,1.8c2.6,2.6-23.6,17.7-29.9,21.4c-16.2,9.4-64,14.9-99.1,24c-12.5,3.2-18.3,7.3-18.3,7.3s9.6-2,16.3-2.7
			c14.9-1.7,79.7-7,97.2-15c22.6-10.4,35.4-27.5,35.9-30.8c4.1,8.2-0.2,14.2-3.8,18.2c-3.6,3.9-1.4,6.4-2.8,7.4
			c-0.8,0.7-4.2-1-7.6,1.7c-3.4,2.7-4.8,5.2-8.9,7.9c-4.1,2.6-1.5,6.3-4.2,8.7c-2.7,2.3-4.8-2.7-8.6-1c-3.8,1.8-6,3-12.5,5.1
			c-6.4,2.1-3.2,6.7-5.7,7.6c-2.4,1.1-6-5.2-10.9-3.6c-4.9,1.6-24.3,11.3-30.9,14.2c-6.7,2.9-2.7,12-4.9,13.6c-1.4,1-5.2-3.4-9.1-4
			c-2.3-0.3-4.7,1-7.2,2.7c-6.7,4.6-2,10.7-4.8,12.1s-4.3-2-8.7-4s-8.6,0.3-12.9-4.7c-20.7-23.8-14-46.4-14-46.4
			c2-2.7,2.9-1.9,7.5-0.3c4.6,1.5,12.6,3.1,19-0.5c6.3-3.6,13.8-14.2,13.8-19.3s-1-8.9,5.6-8.4c2.7,0.2,10.8-0.1,20.2-0.7l4.3-0.3
			C161.4,139.1,161.4,139.1,183.7,137.3z"/>
		</g>
		<g>
			<g>
				<g>
					<path fill="none" stroke="#1D1D1B" stroke-width="3" d="M152.9,153.2c-0.2,0-0.4,0-0.6-0.1c-1-0.4-1.6-1.5-1.3-2.5l4.8-14.2
					c0.4-1,1.5-1.6,2.5-1.3c1,0.4,1.6,1.5,1.3,2.5l-4.8,14.2C154.5,152.7,153.7,153.2,152.9,153.2z"/>
				</g>
				<g>
					<path fill="none" stroke="#1D1D1B" stroke-width="3" d="M162.4,150.7c-0.2,0-0.4,0-0.6-0.1c-1-0.4-1.6-1.5-1.3-2.5l3.8-11.4
					c0.4-1,1.5-1.6,2.5-1.3c1,0.4,1.6,1.5,1.3,2.5l-3.8,11.4C164,150.2,163.2,150.7,162.4,150.7z"/>
				</g>
				<g>
					<path fill="none" stroke="#1D1D1B" stroke-width="3" d="M170.3,149.1c-0.2,0-0.4,0-0.6-0.1c-1-0.4-1.6-1.5-1.3-2.5l3.6-10.8
					c0.4-1,1.5-1.6,2.5-1.3c1,0.4,1.6,1.5,1.3,2.5l-3.6,10.8C171.9,148.6,171.1,149.1,170.3,149.1z"/>
				</g>
				<g>
					<path fill="none" stroke="#1D1D1B" stroke-width="3" d="M179.4,145.8c-0.2,0-0.4,0-0.6-0.1c-1-0.4-1.6-1.5-1.3-2.5l2.9-8.6
					c0.4-1,1.5-1.6,2.5-1.3c1,0.4,1.6,1.5,1.3,2.5l-2.9,8.6C181,145.3,180.2,145.8,179.4,145.8z"/>
				</g>
			</g>
			<g>
				<g>
					<path fill="#FFFF00" d="M152.9,153.2c-0.2,0-0.4,0-0.6-0.1c-1-0.4-1.6-1.5-1.3-2.5l4.8-14.2c0.4-1,1.5-1.6,2.5-1.3
					c1,0.4,1.6,1.5,1.3,2.5l-4.8,14.2C154.5,152.7,153.7,153.2,152.9,153.2z"/>
				</g>
				<g>
					<path fill="#FFFF00" d="M162.4,150.7c-0.2,0-0.4,0-0.6-0.1c-1-0.4-1.6-1.5-1.3-2.5l3.8-11.4c0.4-1,1.5-1.6,2.5-1.3
					c1,0.4,1.6,1.5,1.3,2.5l-3.8,11.4C164,150.2,163.2,150.7,162.4,150.7z"/>
				</g>
				<g>
					<path fill="#FFFF00" d="M170.3,149.1c-0.2,0-0.4,0-0.6-0.1c-1-0.4-1.6-1.5-1.3-2.5l3.6-10.8c0.4-1,1.5-1.6,2.5-1.3
					c1,0.4,1.6,1.5,1.3,2.5l-3.6,10.8C171.9,148.6,171.1,149.1,170.3,149.1z"/>
				</g>
				<g>
					<path fill="#FFFF00" d="M179.4,145.8c-0.2,0-0.4,0-0.6-0.1c-1-0.4-1.6-1.5-1.3-2.5l2.9-8.6c0.4-1,1.5-1.6,2.5-1.3
					c1,0.4,1.6,1.5,1.3,2.5l-2.9,8.6C181,145.3,180.2,145.8,179.4,145.8z"/>
				</g>
			</g>
		</g>
	</g>
	<g>
		<ellipse fill="#272A9B" stroke="#000000" stroke-miterlimit="10" cx="191.6" cy="65.2" rx="40.8" ry="40.6"/>
		<g>
			<path fill="#FFFFFF" d="M160.8,71.3c-0.6,0.8-1.5,1.2-2.8,1.2s-2.2-0.4-2.8-1.3c-0.6-0.8-0.9-2.1-0.9-3.7V60c0-2.6,0.7-4.2,2-4.8
			c0.5-0.2,1.1-0.4,1.8-0.4c2.4,0,3.6,1.5,3.6,4.6v2.4h-2.5v-2.2c0-0.9-0.1-1.5-0.2-1.9c-0.1-0.4-0.4-0.6-0.9-0.6
			c-0.4,0-0.7,0.2-0.9,0.6c-0.2,0.4-0.3,1-0.3,1.9v8c0,0.9,0.1,1.6,0.2,2c0.2,0.4,0.5,0.6,0.9,0.6s0.7-0.2,0.9-0.6s0.2-1.1,0.2-2
			v-2.5h2.6v2.4C161.6,69.3,161.4,70.6,160.8,71.3z"/>
			<path fill="#FFFFFF" d="M170.3,71.3c-0.6,0.8-1.6,1.2-2.9,1.2s-2.3-0.4-2.9-1.2s-0.9-2.1-0.9-3.8v-7.9c0-3.2,1.3-4.7,3.9-4.7
			c1.3,0,2.3,0.4,2.9,1.2c0.6,0.8,0.9,2,0.9,3.5v7.9C171.2,69.2,170.9,70.5,170.3,71.3z M166.4,69.7c0.2,0.4,0.5,0.6,0.9,0.6
			c0.5,0,0.8-0.2,0.9-0.6c0.2-0.4,0.2-1.1,0.2-2.1v-8c0-0.8-0.1-1.4-0.2-1.8c-0.2-0.4-0.5-0.6-0.9-0.6s-0.8,0.2-0.9,0.6
			c-0.2,0.4-0.3,1-0.3,1.8v8C166.2,68.6,166.3,69.3,166.4,69.7z"/>
			<path fill="#FFFFFF" d="M173.5,72.3V55.2h2.1l3.6,10.3l-0.2-4.7v-5.6h2.4v17.2h-1.9l-3.7-10.7l0.1,4.5v6.2h-2.4L173.5,72.3
			L173.5,72.3z"/>
			<path fill="#FFFFFF" d="M190.3,71.3c-0.6,0.8-1.5,1.2-2.8,1.2s-2.2-0.4-2.8-1.3c-0.6-0.8-0.9-2.1-0.9-3.7V60c0-2.6,0.7-4.2,2-4.8
			c0.5-0.2,1.1-0.4,1.8-0.4c2.4,0,3.6,1.5,3.6,4.6v2.4h-2.5v-2.2c0-0.9-0.1-1.5-0.2-1.9c-0.1-0.4-0.4-0.6-0.9-0.6
			c-0.4,0-0.7,0.2-0.9,0.6c-0.2,0.4-0.3,1-0.3,1.9v8c0,0.9,0.1,1.6,0.2,2c0.2,0.4,0.5,0.6,0.9,0.6s0.7-0.2,0.9-0.6s0.2-1.1,0.2-2
			v-2.5h2.6v2.4C191.2,69.3,190.9,70.6,190.3,71.3z"/>
			<path fill="#FFFFFF" d="M192.6,72.3l2.5-17.2h3.5l2.6,17.2h-2.4l-0.4-3.1h-2.8l-0.4,3.1H192.6z M198,67.2l-1.2-8.6l0,0l-1.1,8.6
			H198z"/>
			<path fill="#FFFFFF" d="M202.9,72.3V55.2h2.1l3.6,10.3l-0.2-4.7v-5.6h2.4v17.2h-1.9l-3.7-10.7l0.1,4.5v6.2h-2.4L202.9,72.3
			L202.9,72.3z"/>
			<path fill="#FFFFFF" d="M212.5,72.3l2.5-17.2h3.5l2.6,17.2h-2.4l-0.4-3.1h-2.8l-0.4,3.1H212.5z M217.9,67.2l-1.2-8.6l0,0l-1.1,8.6
			H217.9z"/>
			<path fill="#FFFFFF" d="M222.8,72.3V55.2h5.9v2.3h-3.3V62h3v2.3h-3v8.1h-2.6L222.8,72.3L222.8,72.3z"/>
		</g>
	</g>
	<g>
		<path d="M19.281,124v-1.533h2.48v1.729c0,0.957,0.082,1.629,0.244,2.017s0.469,0.581,0.918,0.581s0.747-0.16,0.894-0.479
		s0.22-0.84,0.22-1.562s-0.13-1.353-0.391-1.89s-0.674-1.099-1.24-1.685l-1.27-1.309c-0.592-0.619-1.053-1.26-1.382-1.924
		s-0.493-1.432-0.493-2.305c0-1.419,0.273-2.474,0.82-3.164s1.488-1.035,2.822-1.035s2.238,0.402,2.71,1.206
		s0.708,1.978,0.708,3.521v1.064H23.91v-1.23c0-0.833-0.072-1.431-0.215-1.792s-0.418-0.542-0.825-0.542s-0.7,0.137-0.879,0.41
		s-0.269,0.684-0.269,1.23s0.091,0.983,0.273,1.309s0.511,0.742,0.986,1.25l1.416,1.533c0.709,0.768,1.245,1.546,1.606,2.334
		s0.542,1.647,0.542,2.578c0,1.608-0.27,2.796-0.811,3.564s-1.486,1.152-2.837,1.152s-2.292-0.428-2.822-1.284
		S19.281,125.64,19.281,124z"/>
		<path d="M28.46,128.833v-17.187h3.945c1.334,0,2.248,0.405,2.739,1.216s0.75,2.02,0.776,3.628v0.361c0,1.706-0.243,3-0.728,3.882
		s-1.385,1.323-2.7,1.323h-1.416v6.777H28.46z M31.078,119.898h0.898c0.553,0,0.913-0.213,1.079-0.64s0.249-1.239,0.249-2.437
		v-0.332c-0.006-1.016-0.096-1.742-0.269-2.178s-0.519-0.654-1.04-0.654h-0.918L31.078,119.898L31.078,119.898z"/>
		<path d="M37.777,128.833v-17.187h2.617v17.187H37.777z"/>
		<path d="M43.07,128.833v-17.187h5.762v2.256h-3.145v5h2.988v2.207h-2.988v5.469h3.262v2.255H43.07z"/>
		<path d="M51.039,128.833v-17.187h2.617v14.961h3.311v2.226H51.039z"/>
		<path d="M58.47,128.833v-17.187h5.762v2.256h-3.145v5h2.988v2.207h-2.988v5.469h3.262v2.255H58.47z"/>
		<path d="M69.896,120.757l-0.84-0.039v8.115h-2.617v-17.187h4.326c0.898,0,1.569,0.181,2.012,0.542s0.734,0.866,0.874,1.514
		s0.21,1.494,0.21,2.539s-0.111,1.841-0.332,2.388s-0.631,0.915-1.23,1.104c0.592,0.104,1.006,0.504,1.24,1.201
		s0.352,2.147,0.352,4.351s0.033,3.387,0.098,3.549h-2.617c-0.065-0.13-0.098-2.184-0.098-6.162c0-0.762-0.091-1.268-0.273-1.519
		S70.449,120.771,69.896,120.757z M69.066,118.687h1.045c0.332,0,0.578-0.075,0.737-0.225s0.27-0.407,0.332-0.771
		s0.093-0.921,0.093-1.67v-0.107c0-0.931-0.078-1.54-0.234-1.826s-0.518-0.43-1.084-0.43h-0.889V118.687z"/>
		<path d="M19.613,152.833v-17.188h3.857c1.263,0,2.179,0.373,2.749,1.118c0.57,0.746,0.854,1.845,0.854,3.296l0.01,7.754
		c0,1.732-0.287,3.002-0.859,3.809c-0.573,0.808-1.52,1.211-2.842,1.211H19.613z M22.23,150.802h0.859
		c0.482,0,0.832-0.156,1.05-0.469s0.327-0.885,0.327-1.719l-0.01-8.486c0-0.892-0.109-1.526-0.327-1.904
		c-0.218-0.377-0.594-0.566-1.128-0.566H22.23V150.802z"/>
		<path d="M29.437,152.833v-17.188h5.762v2.256h-3.145v5h2.988v2.207h-2.988v5.469h3.262v2.256L29.437,152.833L29.437,152.833z"/>
		<path d="M37.064,147.999v-1.533h2.48v1.729c0,0.957,0.082,1.63,0.244,2.017c0.163,0.388,0.469,0.581,0.918,0.581
		s0.747-0.159,0.894-0.479c0.146-0.318,0.22-0.84,0.22-1.562s-0.13-1.353-0.391-1.89s-0.674-1.099-1.24-1.685l-1.27-1.309
		c-0.592-0.618-1.053-1.26-1.382-1.924s-0.493-1.432-0.493-2.305c0-1.419,0.273-2.474,0.82-3.164
		c0.547-0.689,1.488-1.035,2.822-1.035s2.238,0.402,2.71,1.206c0.472,0.805,0.708,1.978,0.708,3.521v1.064h-2.412v-1.23
		c0-0.833-0.072-1.431-0.215-1.792s-0.418-0.542-0.825-0.542s-0.7,0.137-0.879,0.41s-0.269,0.684-0.269,1.23
		s0.091,0.983,0.273,1.309s0.511,0.742,0.986,1.25l1.416,1.533c0.709,0.769,1.245,1.547,1.606,2.334
		c0.361,0.788,0.542,1.647,0.542,2.578c0,1.608-0.27,2.797-0.811,3.564c-0.541,0.769-1.486,1.152-2.837,1.152
		s-2.292-0.428-2.822-1.284C37.329,150.889,37.064,149.64,37.064,147.999z"/>
		<path d="M55.365,151.881c-0.619,0.766-1.489,1.147-2.612,1.147s-1.996-0.34-2.617-1.021c-0.622-0.68-0.933-1.671-0.933-2.974
		v-3.066h2.529v2.939c0,0.951,0.153,1.53,0.459,1.738c0.137,0.092,0.306,0.137,0.508,0.137c0.397,0,0.659-0.162,0.786-0.488
		c0.127-0.325,0.19-0.84,0.19-1.543v-13.105h2.617v12.979C56.292,150.03,55.983,151.116,55.365,151.881z"/>
		<path d="M57.992,152.833l2.451-17.188H63.9l2.607,17.188h-2.441l-0.41-3.066h-2.773l-0.371,3.066H57.992z M63.382,147.667
		l-1.152-8.633h-0.039l-1.055,8.633H63.382z"/>
		<path d="M68.304,152.833v-17.188h2.617v6.953h2.344v-6.953h2.617v17.188h-2.617v-7.988h-2.344v7.988H68.304z"/>
		<path d="M81.917,144.757l-0.84-0.039v8.115H78.46v-17.188h4.326c0.898,0,1.569,0.181,2.012,0.542s0.734,0.866,0.874,1.514
		c0.14,0.648,0.21,1.494,0.21,2.539s-0.111,1.841-0.332,2.388s-0.631,0.915-1.23,1.104c0.592,0.104,1.006,0.505,1.24,1.201
		c0.234,0.697,0.352,2.147,0.352,4.351s0.033,3.388,0.098,3.55h-2.617c-0.065-0.13-0.098-2.184-0.098-6.162
		c0-0.762-0.091-1.268-0.273-1.519C82.839,144.902,82.471,144.771,81.917,144.757z M81.087,142.687h1.045
		c0.332,0,0.578-0.074,0.737-0.225c0.16-0.149,0.27-0.406,0.332-0.771c0.062-0.364,0.093-0.921,0.093-1.67v-0.107
		c0-0.931-0.078-1.539-0.234-1.826c-0.156-0.286-0.518-0.43-1.084-0.43h-0.889V142.687z"/>
		<path d="M88.324,152.833v-17.188h5.762v2.256h-3.145v5h2.988v2.207h-2.988v5.469h3.262v2.256L88.324,152.833L88.324,152.833z"/>
		<path d="M95.951,147.999v-1.533h2.48v1.729c0,0.957,0.082,1.63,0.244,2.017c0.163,0.388,0.469,0.581,0.918,0.581
		s0.747-0.159,0.894-0.479c0.146-0.318,0.22-0.84,0.22-1.562s-0.13-1.353-0.391-1.89s-0.674-1.099-1.24-1.685l-1.27-1.309
		c-0.592-0.618-1.053-1.26-1.382-1.924s-0.493-1.432-0.493-2.305c0-1.419,0.273-2.474,0.82-3.164
		c0.547-0.689,1.488-1.035,2.822-1.035s2.238,0.402,2.71,1.206c0.472,0.805,0.708,1.978,0.708,3.521v1.064h-2.412v-1.23
		c0-0.833-0.072-1.431-0.215-1.792s-0.418-0.542-0.825-0.542s-0.7,0.137-0.879,0.41s-0.269,0.684-0.269,1.23
		s0.091,0.983,0.273,1.309s0.511,0.742,0.986,1.25l1.416,1.533c0.709,0.769,1.245,1.547,1.606,2.334
		c0.361,0.788,0.542,1.647,0.542,2.578c0,1.608-0.27,2.797-0.811,3.564c-0.541,0.769-1.486,1.152-2.837,1.152
		s-2.292-0.428-2.822-1.284C96.216,150.889,95.951,149.64,95.951,147.999z"/>
	</g>
</svg>