<?xml version="1.0" encoding="utf-8"?>
<!-- Generator: Adobe Illustrator 17.0.0, SVG Export Plug-In . SVG Version: 6.00 Build 0)  -->
<!DOCTYPE svg PUBLIC "-//W3C//DTD SVG 1.1//EN" "http://www.w3.org/Graphics/SVG/1.1/DTD/svg11.dtd">
<svg version="1.1" id="Layer_1" xmlns="http://www.w3.org/2000/svg" xmlns:xlink="http://www.w3.org/1999/xlink" x="0px" y="0px"
	 width="256px" height="256px" viewBox="0 0 256 256" enable-background="new 0 0 256 256" xml:space="preserve">
<path fill="#FFFFFF" d="M192.1,10.3c-17.1,0-32.4,8-42.3,20.6h-0.3v0.3c-7.1,9.1-11.4,20.6-11.4,33c0,29.7,24.2,53.9,53.9,53.9
	s54-24.2,54-53.9S221.9,10.3,192.1,10.3z"/>
<path d="M192,10.3c-17.1,0-32.4,8-42.3,20.6h-0.3v0.3c-7.1,9.1-11.4,20.6-11.4,33c0,29.7,24.2,53.9,53.9,53.9s53.9-24.2,53.9-53.9
	S221.7,10.3,192,10.3z M208.6,100.9l-23.1-3L183.7,78l17.6-10.7L217,82.4L208.6,100.9z M171.2,103.3L151.9,89l-2.1-14.7l11.8-7.4
	L181.5,78l1.9,20.2L171.2,103.3z M149.1,72.2L142,57.4l9.3-15.3l9.7,2l-0.2,20.8L149.1,72.2z M188.3,19l21.3,2.9l7.3,13.6l-16.1,7.9
	l-16.5-11.5L188.3,19z M231.4,74.4l-12.6,6.7l-16.9-16.2l0.2-19.7l16-7.9L232.3,50L231.4,74.4z M233.5,74.9l1-24.5l7.1-0.9
	c1.4,4.7,2.1,9.6,2.1,14.7c0,4.6-0.6,9-1.7,13.2L233.5,74.9z M240.9,47.4l-7.1,0.9l-14.6-13.1L212,21.9l6.1-2.4
	C228.7,25.7,236.9,35.6,240.9,47.4z M178.8,14.2l7.4,4.1L182,32.1L162.3,42l-10.5-2.1l-0.2-8.1C158.5,23.4,167.9,17,178.8,14.2z
	 M149.7,40.5l-8.5,14.1c1.4-7.3,4.3-14.1,8.4-20L149.7,40.5z M140.5,59.2l7.1,14.9l2.1,14.8l-2.9,0.4c-4.1-7.4-6.5-16-6.5-25.1
	C140.3,62.5,140.4,60.8,140.5,59.2z M172.4,112.1l-0.2-6.8l12.5-5.3l23.9,3.1l4.4,8.4c-6.4,2.9-13.5,4.5-21,4.5
	C185.1,115.9,178.5,114.5,172.4,112.1z"/>
<g>
	<path fill="#FCFF00" stroke="#000000" stroke-miterlimit="10" d="M146.3,157.8c0,0,0,1.3,1.1,1.6c1.1,0.2,1.5-1.5,1.5-2
		c26.1-1.1,26.6-22.9,26.6-31.4s-4-17.6-10.7-17.6s-10.3,8-10.3,8v-2h-54v2c0,0-3-8-9.7-8s-10.3,9.1-10.3,17.6s0.6,30.2,26.8,31.4
		c0,0.5,0.4,2.1,1.5,2c1.1-0.3,1.2-1.6,1.2-1.6s4.8,5.4,10,5.7c0,2.8-0.2,6.7-0.2,6.7s1.7,2.8,3.7,2.9c0,0.7,0,1.5,0,1.5
		s-2.9,1.6-2.9,3.6s2.9,4.2,2.9,4.2v2.6c0,0-4,1.1-5,1.5c0,1.1,0,5.1,0,5.1l-2,1.6v4.2h-6v6h-1v11h-2v2.6c0,0-4-0.3-4,4.1
		s0,22.3,0,22.3h-1.2c0,0-4.2,4-2.5,11c6.5,0,50,0,56.5,0c1.8-7-2.5-11-2.5-11h-3.4c0,0,0-17.9,0-22.3s-2-4.1-2-4.1v-2.6h-4v-11h-2
		v-6h-4v-4.2l-2-1.6c0,0,0-3.9,0-5.1c0-0.3-4-1.5-4-1.5v-2.6c0,0,2.9-2.3,2.9-4.2s-2.9-3.6-2.9-3.6s0-0.8,0-1.5
		c3-0.2,3.9-2.9,3.9-2.9s-0.2-3.9-0.2-6.7C141.4,163.2,146.3,157.8,146.3,157.8z M154.1,123c1.6,0.2,2.6-1.4,1.6-4
		c0,0,3.8-7.2,8.2-7.4c4.4-0.2,7.6,3.8,8.4,16.8c1.2,26.8-22.4,27.4-24.8,27.4C154.7,145.6,154.1,123,154.1,123z M84,128.4
		c0.8-13,4-17,8.4-16.8s8.2,7.4,8.2,7.4c-1,2.6,0,4.2,1.6,4c0,0-0.6,22.6,6.6,32.8C106.4,155.8,82.8,155.2,84,128.4z"/>
	<path fill="#FFFFFF" d="M142.8,117h-19.6c0,0,1.6,22.9,2.8,28.3c1.1,5.4,11.6,5.7,13.4-1.3S142,120,142.8,117z"/>
	<polygon fill="#FFFFFF" points="127,165 133.4,165 133.2,171 127,171 	"/>
	<rect x="127" y="177" fill="#FFFFFF" width="4" height="2"/>
	<rect x="127" y="183" fill="#FFFFFF" width="4" height="2"/>
	<rect x="127" y="187" fill="#FFFFFF" width="6" height="5"/>
	<rect x="127" y="194" fill="#FFFFFF" width="7" height="3"/>
	<rect x="127" y="203" fill="#FFFFFF" width="9" height="2"/>
	<rect x="127" y="218" fill="#FFFFFF" width="12" height="2"/>
	<path fill="#FF9F00" d="M110,137.4c0.8,6.6,3.7,18.3,15,20.2c0.9,0.3-0.3,2.8-5.8,2.2s-12.2-7.1-13-22.4c0-3.9,1.6-4.9,1.6-4.9
		S110,133,110,137.4z"/>
	<path fill="#ABD100" d="M132.1,160c0,0,13.7-3.3,13.6-29.5c0-3.9,4.3-3.6,4.3-0.2C149.9,133.9,150.8,164.3,132.1,160z"/>
	<path fill="#FF9F00" d="M108,243v-22c0,0,0-1.7,1.3-1.7c2,0,1.7,0.9,1.7,2s0,21.7,0,21.7H108z"/>
	<path fill="#ABD100" d="M141,243c0,0,0-20.6,0-22s0.5-2.1,2.5-2.1s3.5,1.4,3.5,2.4s0,21.7,0,21.7L141,243L141,243z"/>
	<rect x="110.3" y="215.2" fill="#FF9F00" width="1.9" height="1.9"/>
	<rect x="111" y="204" fill="#FF9F00" width="4" height="10"/>
	<rect x="115" y="198" fill="#FF9F00" width="2" height="5"/>
	<rect x="118" y="194" fill="#FF9F00" width="3" height="3"/>
	<rect x="134" y="194" fill="#ABD100" width="2" height="3"/>
	<rect x="136" y="198" fill="#ABD100" width="3" height="4"/>
	<rect x="137" y="204" fill="#ABD100" width="6" height="10"/>
	<rect x="139" y="214" fill="#ABD100" width="4" height="3"/>
	<rect x="122" y="187" fill="#FF9F00" width="2" height="3"/>
	<rect x="133" y="187" fill="#ABD100" width="3" height="5"/>
	<path fill="#FF9F00" d="M121.2,168.1c0,0,0.2,1.5,1.3,2.4c0.6,0.5,1.3,1,2.8,0.6c-2.9,2.1-4.3-1-4.3-1S121,169.4,121.2,168.1z"/>
	<path fill="#FF9F00" d="M126,181.2c0,0-2-0.5-2.5-2.2c-0.6-0.8-2-0.2-1.7,0.6S122.8,181.4,126,181.2z"/>
	<path fill="#ABD100" d="M130.6,181.1c0,0,2-0.3,2.2-1.7s1.7-0.9,1.7,0.2C134.3,180.6,131.7,181.1,130.6,181.1z"/>
	<path fill="#ABD100" d="M131.7,172.1c0,0,1.6-0.2,1.6-2.2c0-1.3,1.7-1.4,1.8-0.1C135.2,171.2,132.8,172.4,131.7,172.1z"/>
	<line fill="none" stroke="#000000" stroke-miterlimit="10" x1="111" y1="203.5" x2="143" y2="203.5"/>
	<line fill="none" stroke="#000000" stroke-miterlimit="10" x1="116" y1="197.5" x2="138" y2="197.5"/>
	<line fill="none" stroke="#000000" stroke-miterlimit="10" x1="118" y1="192.5" x2="136" y2="192.5"/>
	<line fill="none" stroke="#000000" stroke-miterlimit="10" x1="119" y1="187.5" x2="136" y2="187.5"/>
	<line fill="none" stroke="#000000" stroke-miterlimit="10" x1="124" y1="181.5" x2="133" y2="181.5"/>
	<line fill="none" stroke="#000000" stroke-miterlimit="10" x1="124" y1="173.5" x2="132" y2="173.5"/>
	<line fill="none" stroke="#000000" stroke-miterlimit="10" x1="120" y1="164.5" x2="136" y2="164.5"/>
	<line fill="none" stroke="#000000" stroke-miterlimit="10" x1="110" y1="214.5" x2="145" y2="214.5"/>
	<line fill="none" stroke="#000000" stroke-miterlimit="10" x1="104" y1="243.5" x2="151" y2="243.5"/>
</g>
<g>
	<g>
		<g>
			<path fill="#D80027" d="M153.2,79.5c5.8,15.5,20.8,26.6,38.4,26.6S224.2,95,230,79.5L191.6,76L153.2,79.5z"/>
			<path fill="#D80027" d="M191.6,24.5c-17.6,0-32.6,11.1-38.4,26.6l38.4,3.5l38.4-3.5C224.2,35.6,209.2,24.5,191.6,24.5z"/>
			<path fill="#D80027" d="M153.2,51.1c-1.6,4.4-2.5,9.2-2.5,14.2s0.9,9.8,2.5,14.2H230c1.6-4.4,2.5-9.2,2.5-14.2s-0.9-9.8-2.5-14.2
				C230,51.1,153.2,51.1,153.2,51.1z"/>
		</g>
		<ellipse fill="none" stroke="#020200" stroke-width="1.4754" stroke-miterlimit="10" cx="191.6" cy="65.2" rx="40.8" ry="40.6"/>
	</g>
	<path fill="#FFFFFF" d="M187.6,70.2c0-2,0.3-3.3,0.1-4.7c-0.2-1.6,0.1-2.3,2-2.5c9.2-1.4,18.3,0.9,27.4,1.2c1.1,0,2,0.6,2.4,1.7
		c0.6,1.7,2,1.6,3.3,1c1.8-0.8,3.6-1.8,5.3-2.7c0.7-0.4,1.6-0.8,1.4-1.7c-0.2-1-1.2-0.9-2-0.9c-4.2-0.1-8.2-1.1-12.1-2.7
		c-8-3.1-16.3-5.1-24.7-6.4c-0.8-0.1-1.9,0.3-2.3-1c-0.4-1.2,1.9-8.1,3.1-8.4c4-0.7,3.8-3.8,4.3-6.7c0.6-2.8-1.3-4-3.3-4.7
		c-2.1-0.8-4.9-0.5-5.4,1.9c-0.7,3.1-2.4,2.3-4.4,2.2c-5.2-0.5-9.9,0.2-13,5.2c-1.2,2-3,3.7-5.1,5.1c-1.4,0.9-3.1,2.2-1.7,3.7
		c1.5,1.6,3.4,0.1,4.3-1.3c1.7-2.5,4.2-4.1,6.3-6.1c1.2-1.1,2.5-1.2,3.6-0.5c1.3,0.8,0.1,2-0.1,2.9c-2.3,7.3-1.3,14.5,0.2,21.8
		c0.5,2.6,4.1,5.1,2.3,7.5c-1.6,2.1-4.5,3.6-6.7,5.6c-0.8,0.7-1.8,1.5-2.9,1c-2.4-1-3.6-0.2-4.5,2.3c-0.6,1.8-2.8,3-2.4,5.3
		c0.2,1.4,1,2.8,2.2,1.3c3.4-4.6,8.6-5.6,13.4-7.5C187,78.8,187.3,79.3,187.6,70.2z"/>
</g>
<g>
	<path d="M7.905,206.833v-28.952h6.498c2.127,0,3.671,0.628,4.631,1.884c0.959,1.256,1.439,3.106,1.439,5.552l0.016,13.062
		c0,2.917-0.482,5.056-1.447,6.415c-0.965,1.36-2.561,2.04-4.787,2.04L7.905,206.833L7.905,206.833z M12.314,203.411h1.448
		c0.812,0,1.401-0.263,1.769-0.789c0.367-0.526,0.551-1.491,0.551-2.896l-0.016-14.295c0-1.503-0.184-2.571-0.551-3.208
		c-0.368-0.636-1.001-0.954-1.9-0.954h-1.3v22.142H12.314z"/>
	<path d="M24.454,206.833v-28.952h9.706v3.8h-5.297v8.423h5.034v3.718h-5.034v9.212h5.494v3.8h-9.903V206.833z"/>
	<path d="M48.965,205.278c-1.009,1.256-2.629,1.884-4.861,1.884s-3.855-0.63-4.869-1.892c-1.015-1.261-1.522-3.219-1.522-5.873
		v-21.533h4.409v21.451c0,1.524,0.071,2.451,0.214,2.78s0.315,0.628,0.518,0.896s0.623,0.403,1.259,0.403
		c0.636,0,1.091-0.187,1.365-0.56c0.274-0.373,0.441-0.836,0.501-1.39c0.061-0.554,0.091-1.265,0.091-2.131v-21.451h4.409v21.533
		C50.479,202.062,49.974,204.023,48.965,205.278z"/>
	<path d="M56.137,206.833v-25.136h-3.389v-3.816h11.038v3.816h-3.257v25.136H56.137z"/>
	<path d="M65.646,198.69v-2.583h4.178v2.912c0,1.612,0.137,2.744,0.411,3.396c0.274,0.653,0.79,0.979,1.546,0.979
		c0.757,0,1.259-0.269,1.505-0.807c0.247-0.537,0.37-1.414,0.37-2.632c0-1.217-0.22-2.278-0.658-3.183
		c-0.438-0.905-1.135-1.852-2.089-2.838l-2.139-2.204c-0.998-1.042-1.774-2.122-2.328-3.241c-0.554-1.118-0.831-2.412-0.831-3.882
		c0-2.391,0.46-4.168,1.382-5.33c0.921-1.162,2.505-1.744,4.754-1.744c2.248,0,3.77,0.678,4.565,2.032
		c0.795,1.354,1.192,3.331,1.192,5.93v1.793h-4.063v-2.072c0-1.403-0.121-2.41-0.362-3.019s-0.705-0.913-1.39-0.913
		c-0.686,0-1.179,0.23-1.48,0.69c-0.302,0.461-0.453,1.152-0.453,2.073s0.154,1.656,0.461,2.204c0.307,0.549,0.861,1.25,1.661,2.105
		l2.385,2.583c1.195,1.294,2.098,2.604,2.706,3.932c0.609,1.327,0.913,2.774,0.913,4.343c0,2.709-0.455,4.71-1.365,6.004
		c-0.911,1.295-2.503,1.941-4.779,1.941s-3.86-0.721-4.754-2.163C66.092,203.557,65.646,201.454,65.646,198.69z"/>
	<path d="M91.834,205.147c-0.998,1.343-2.566,2.015-4.705,2.015s-3.737-0.716-4.795-2.146c-1.059-1.432-1.587-3.49-1.587-6.177
		v-12.618c0-4.31,1.129-7.002,3.389-8.076c0.833-0.396,1.842-0.593,3.027-0.593c4.068,0,6.103,2.566,6.103,7.699v3.98h-4.261v-3.701
		c0-1.491-0.126-2.558-0.378-3.199s-0.746-0.963-1.48-0.963s-1.245,0.34-1.53,1.021c-0.285,0.68-0.428,1.722-0.428,3.125v13.522
		c0,1.557,0.137,2.67,0.411,3.339s0.773,1.004,1.497,1.004s1.223-0.34,1.497-1.021c0.274-0.68,0.411-1.804,0.411-3.372v-4.146h4.327
		v4.097C93.332,201.733,92.832,203.804,91.834,205.147z"/>
	<path d="M96.917,206.833v-28.952h4.409v11.713h3.948v-11.713h4.409v28.952h-4.409v-13.456h-3.948v13.456H96.917z"/>
	<path d="M114.025,206.833v-28.952h9.706v3.8h-5.297v8.423h5.034v3.718h-5.034v9.212h5.494v3.8h-9.903V206.833z"/>
	<path d="M133.272,193.229l-1.415-0.065v13.67h-4.409v-28.952h7.288c1.514,0,2.643,0.305,3.389,0.913s1.236,1.459,1.473,2.55
		c0.235,1.091,0.354,2.517,0.354,4.277s-0.187,3.101-0.56,4.021c-0.373,0.922-1.063,1.541-2.072,1.859
		c0.998,0.175,1.694,0.85,2.089,2.023c0.395,1.173,0.593,3.616,0.593,7.328c0,3.713,0.055,5.706,0.164,5.979h-4.408
		c-0.11-0.219-0.165-3.679-0.165-10.38c0-1.283-0.153-2.136-0.461-2.558C134.824,193.473,134.204,193.251,133.272,193.229z
		 M131.874,189.741h1.761c0.559,0,0.973-0.126,1.241-0.378s0.455-0.686,0.56-1.3s0.156-1.552,0.156-2.812v-0.182
		c0-1.567-0.132-2.593-0.395-3.076c-0.264-0.482-0.872-0.724-1.826-0.724h-1.497V189.741z"/>
	<path d="M150.102,206.833v-28.952h5.478l4.112,21.155l3.866-21.155h5.511v28.952h-3.932v-10.791l0.165-9.903l-3.899,20.562h-3.504
		l-4.062-20.562l0.164,9.903v10.791H150.102z"/>
	<path d="M173.428,206.833v-28.952h9.705v3.8h-5.297v8.423h5.034v3.718h-5.034v9.212h5.494v3.8h-9.902V206.833z"/>
	<path d="M187.016,206.833v-28.952h4.408v28.952H187.016z"/>
	<path d="M195.355,198.69v-2.583h4.179v2.912c0,1.612,0.137,2.744,0.411,3.396c0.274,0.653,0.79,0.979,1.546,0.979
		c0.757,0,1.259-0.269,1.506-0.807c0.246-0.537,0.37-1.414,0.37-2.632c0-1.217-0.22-2.278-0.658-3.183s-1.135-1.852-2.089-2.838
		l-2.139-2.204c-0.998-1.042-1.774-2.122-2.328-3.241c-0.554-1.118-0.83-2.412-0.83-3.882c0-2.391,0.46-4.168,1.382-5.33
		c0.921-1.162,2.505-1.744,4.754-1.744c2.248,0,3.77,0.678,4.564,2.032s1.192,3.331,1.192,5.93v1.793h-4.062v-2.072
		c0-1.403-0.121-2.41-0.362-3.019s-0.705-0.913-1.39-0.913c-0.686,0-1.18,0.23-1.48,0.69c-0.302,0.461-0.453,1.152-0.453,2.073
		s0.154,1.656,0.461,2.204c0.307,0.549,0.861,1.25,1.661,2.105l2.386,2.583c1.195,1.294,2.098,2.604,2.706,3.932
		s0.913,2.774,0.913,4.343c0,2.709-0.455,4.71-1.365,6.004c-0.911,1.295-2.504,1.941-4.779,1.941s-3.86-0.721-4.754-2.163
		S195.355,201.454,195.355,198.69z"/>
	<path d="M212.299,206.833v-25.136h-3.389v-3.816h11.038v3.816h-3.257v25.136H212.299z"/>
	<path d="M222.383,206.833v-28.952h9.706v3.8h-5.297v8.423h5.033v3.718h-5.033v9.212h5.494v3.8h-9.903V206.833z"/>
	<path d="M241.63,193.229l-1.415-0.065v13.67h-4.408v-28.952h7.287c1.514,0,2.643,0.305,3.389,0.913s1.236,1.459,1.473,2.55
		c0.235,1.091,0.354,2.517,0.354,4.277s-0.187,3.101-0.56,4.021c-0.373,0.922-1.063,1.541-2.072,1.859
		c0.998,0.175,1.694,0.85,2.089,2.023c0.395,1.173,0.593,3.616,0.593,7.328c0,3.713,0.055,5.706,0.164,5.979h-4.408
		c-0.11-0.219-0.165-3.679-0.165-10.38c0-1.283-0.153-2.136-0.461-2.558C243.182,193.473,242.562,193.251,241.63,193.229z
		 M240.231,189.741h1.761c0.559,0,0.973-0.126,1.241-0.378s0.455-0.686,0.56-1.3s0.156-1.552,0.156-2.812v-0.182
		c0-1.567-0.132-2.593-0.395-3.076c-0.264-0.482-0.872-0.724-1.826-0.724h-1.497V189.741z"/>
	<path d="M73.684,236.427c-0.914,0-1.656-0.074-2.227-0.223s-1.053-0.42-1.447-0.814s-0.672-0.93-0.832-1.605
		s-0.24-1.549-0.24-2.619v-12.434c0-1.07,0.08-1.943,0.24-2.619s0.438-1.211,0.832-1.605s0.877-0.666,1.447-0.814
		s1.312-0.223,2.227-0.223v2.344c-0.695,0-1.141,0.182-1.336,0.545s-0.293,1.139-0.293,2.326v12.527
		c0,1.188,0.098,1.963,0.293,2.326s0.641,0.545,1.336,0.545V236.427z"/>
	<path d="M85.051,219.505c0,2.219-0.602,3.582-1.805,4.09c1.469,0.492,2.203,2.113,2.203,4.863v0.527
		c-0.016,2.07-0.377,3.562-1.084,4.477s-1.861,1.371-3.463,1.371h-4.559v-20.625h4.465c1.539,0,2.629,0.357,3.27,1.072
		s0.965,1.912,0.973,3.592C85.051,218.872,85.051,219.505,85.051,219.505z M79.484,222.552h1.16c0.539,0,0.893-0.172,1.061-0.516
		s0.252-1.051,0.252-2.121v-1.242c-0.008-0.797-0.117-1.33-0.328-1.6s-0.574-0.404-1.09-0.404h-1.055V222.552z M79.484,232.396
		h1.113c0.625,0,1.062-0.215,1.312-0.645s0.375-1.199,0.375-2.309v-1.664c0-1.047-0.102-1.787-0.305-2.221s-0.594-0.65-1.172-0.65
		h-1.324L79.484,232.396L79.484,232.396z"/>
	<path d="M95.797,233.726c-0.719,0.895-1.873,1.342-3.463,1.342s-2.746-0.449-3.469-1.348s-1.084-2.293-1.084-4.184v-15.34h3.141
		v15.281c0,1.086,0.051,1.746,0.152,1.98s0.225,0.447,0.369,0.639s0.443,0.287,0.896,0.287s0.777-0.133,0.973-0.398
		s0.314-0.596,0.357-0.99s0.064-0.9,0.064-1.518v-15.281h3.141v15.34C96.875,231.435,96.516,232.831,95.797,233.726z"/>
	<path d="M99.852,234.833v-20.625h2.461l4.371,12.375l-0.223-5.625v-6.75h2.824v20.625h-2.227l-4.488-12.809l0.176,5.414v7.395
		H99.852z"/>
	<path d="M112.367,234.833v-20.625h4.629c1.516,0,2.615,0.447,3.299,1.342s1.025,2.213,1.025,3.955l0.012,9.305
		c0,2.078-0.344,3.602-1.031,4.57s-1.824,1.453-3.41,1.453L112.367,234.833L112.367,234.833z M115.508,232.396h1.031
		c0.578,0,0.998-0.188,1.26-0.562s0.393-1.062,0.393-2.062l-0.012-10.184c0-1.07-0.131-1.832-0.393-2.285s-0.713-0.68-1.354-0.68
		h-0.926L115.508,232.396L115.508,232.396z"/>
	<path d="M124.156,234.833v-20.625h6.914v2.707h-3.773v6h3.586v2.648h-3.586v6.562h3.914v2.707h-7.055V234.833z"/>
	<path d="M133.309,229.032v-1.84h2.977v2.074c0,1.148,0.098,1.955,0.293,2.42s0.562,0.697,1.102,0.697s0.896-0.191,1.072-0.574
		s0.264-1.008,0.264-1.875s-0.156-1.623-0.469-2.268s-0.809-1.318-1.488-2.021l-1.523-1.57c-0.711-0.742-1.264-1.512-1.658-2.309
		s-0.592-1.719-0.592-2.766c0-1.703,0.328-2.969,0.984-3.797s1.785-1.242,3.387-1.242s2.686,0.482,3.252,1.447
		s0.85,2.373,0.85,4.225v1.277h-2.895v-1.477c0-1-0.086-1.717-0.258-2.15s-0.502-0.65-0.99-0.65s-0.84,0.164-1.055,0.492
		s-0.322,0.82-0.322,1.477s0.109,1.18,0.328,1.57s0.613,0.891,1.184,1.5l1.699,1.84c0.852,0.922,1.494,1.855,1.928,2.801
		s0.65,1.977,0.65,3.094c0,1.93-0.324,3.355-0.973,4.277s-1.783,1.383-3.404,1.383s-2.75-0.514-3.387-1.541
		S133.309,231.001,133.309,229.032z"/>
	<path d="M144.324,234.833v-20.625h3.141v17.953h3.973v2.672H144.324z"/>
	<path d="M153.359,234.833v-20.625h3.141v20.625H153.359z"/>
	<path d="M163.59,235.044c-1.297,0-2.311-0.51-3.041-1.529s-1.096-2.592-1.096-4.717v-8.965c0-1.906,0.373-3.359,1.119-4.359
		s1.932-1.5,3.557-1.5c2.023,0,3.309,0.754,3.855,2.262c0.328,0.906,0.492,2.145,0.492,3.715v1.465h-2.93v-2.156
		c0-0.945-0.1-1.609-0.299-1.992s-0.574-0.574-1.125-0.574s-0.939,0.229-1.166,0.686s-0.34,1.268-0.34,2.432v8.941
		c0,1.352,0.102,2.293,0.305,2.824s0.6,0.797,1.189,0.797s1.008-0.285,1.254-0.855s0.369-1.531,0.369-2.883v-2.777h-1.582v-2.285
		h4.324v11.262h-1.406l-0.48-2.027c-0.164,0.695-0.523,1.242-1.078,1.641S164.316,235.044,163.59,235.044z"/>
	<path d="M170.492,234.833l2.941-20.625h4.148l3.129,20.625h-2.93l-0.492-3.68h-3.328l-0.445,3.68H170.492z M176.961,228.634
		l-1.383-10.359h-0.047l-1.266,10.359H176.961z"/>
	<path d="M182.328,236.427v-2.344c0.695,0,1.141-0.182,1.336-0.545s0.293-1.139,0.293-2.326v-12.527
		c0-1.188-0.098-1.963-0.293-2.326s-0.641-0.545-1.336-0.545v-2.344c0.914,0,1.656,0.074,2.227,0.223s1.051,0.42,1.441,0.814
		s0.666,0.93,0.826,1.605s0.24,1.549,0.24,2.619v12.434c0,1.07-0.08,1.943-0.24,2.619s-0.436,1.211-0.826,1.605
		s-0.871,0.666-1.441,0.814S183.242,236.427,182.328,236.427z"/>
</g>
</svg>
