<?xml version="1.0" encoding="utf-8"?>
<!-- Generator: Adobe Illustrator 17.0.0, SVG Export Plug-In . SVG Version: 6.00 Build 0)  -->
<!DOCTYPE svg PUBLIC "-//W3C//DTD SVG 1.1//EN" "http://www.w3.org/Graphics/SVG/1.1/DTD/svg11.dtd">
<svg version="1.1" id="Layer_1" xmlns="http://www.w3.org/2000/svg" xmlns:xlink="http://www.w3.org/1999/xlink" x="0px" y="0px"
	 width="256px" height="256px" viewBox="0 0 256 256" enable-background="new 0 0 256 256" xml:space="preserve">
<polygon fill="#FFFF00" points="128,188.6 53.1,243.2 82,155.1 6.8,100.8 99.5,101 128,12.8 156.5,101 249.2,100.8 174,155.1 
	202.9,243.2 "/>
<path fill="#FFFFFF" d="M192,10.3c-17.1,0-32.4,8-42.3,20.6h-0.3v0.3c-7.1,9.1-11.4,20.6-11.4,33c0,29.7,24.2,53.9,53.9,53.9
	s53.9-24.2,53.9-53.9S221.7,10.3,192,10.3z"/>
<path d="M192,10.3c-17.1,0-32.4,8-42.3,20.6h-0.3v0.3c-7.1,9.1-11.4,20.6-11.4,33c0,29.7,24.2,53.9,53.9,53.9s53.9-24.2,53.9-53.9
	S221.7,10.3,192,10.3z M208.6,100.9l-23.1-3L183.7,78l17.6-10.7L217,82.4L208.6,100.9z M171.2,103.3L151.9,89l-2.1-14.7l11.8-7.4
	L181.5,78l1.9,20.2L171.2,103.3z M149.1,72.2L142,57.4l9.3-15.3l9.7,2l-0.2,20.8L149.1,72.2z M188.3,19l21.3,2.9l7.3,13.6l-16.1,7.9
	l-16.5-11.5L188.3,19z M231.4,74.4l-12.6,6.7l-16.9-16.2l0.2-19.7l16-7.9L232.3,50L231.4,74.4z M233.5,74.9l1-24.5l7.1-0.9
	c1.4,4.7,2.1,9.6,2.1,14.7c0,4.6-0.6,9-1.7,13.2L233.5,74.9z M240.9,47.4l-7.1,0.9l-14.6-13.1L212,21.9l6.1-2.4
	C228.7,25.7,236.9,35.6,240.9,47.4z M178.8,14.2l7.4,4.1L182,32.1L162.3,42l-10.5-2.1l-0.2-8.1C158.5,23.4,167.9,17,178.8,14.2z
	 M149.7,40.5l-8.5,14.1c1.4-7.3,4.3-14.1,8.4-20L149.7,40.5z M140.5,59.2l7.1,14.9l2.1,14.8l-2.9,0.4c-4.1-7.4-6.5-16-6.5-25.1
	C140.3,62.5,140.4,60.8,140.5,59.2z M172.4,112.1l-0.2-6.8l12.5-5.3l23.9,3.1l4.4,8.4c-6.4,2.9-13.5,4.5-21,4.5
	C185.1,115.9,178.5,114.5,172.4,112.1z"/>
<g>
	<g>
		<path fill="#FFDA44" d="M153.2,79.5c5.8,15.5,20.8,26.6,38.4,26.6S224.2,95,230,79.5L191.6,76L153.2,79.5z"/>
		<path d="M191.6,24.5c-17.6,0-32.6,11.1-38.4,26.6l38.4,3.5l38.4-3.5C224.2,35.6,209.2,24.5,191.6,24.5z"/>
		<path fill="#D80027" d="M153.2,51.1c-1.6,4.4-2.5,9.2-2.5,14.2s0.9,9.8,2.5,14.2H230c1.6-4.4,2.5-9.2,2.5-14.2s-0.9-9.8-2.5-14.2
			C230,51.1,153.2,51.1,153.2,51.1z"/>
	</g>
	<ellipse fill="none" stroke="#020200" stroke-width="1.4754" stroke-miterlimit="10" cx="191.6" cy="65.2" rx="40.8" ry="40.6"/>
</g>
<g>
	<path fill="none" stroke="#000000" stroke-width="3" stroke-miterlimit="10" d="M157.6,137"/>
	<path fill="#FF0000" d="M157.6,137"/>
</g>
<g>
	<path fill="#FFFFFF" d="M213.054,171.372c20.016-10.456,33.09-32.643,33.823-35.981s-0.584-4.058-2.948-6.446
		s-7.029-0.404-7.029-0.404s-20.871,17.853-30.665,24.919c-9.879,7.179-51.629,18.942-57.241,22.073
		c-5.611,3.131-44.758,16.843-51.185,25.546c0.087,2.715-1.646,9.632,5.21,6.02S180.048,188.444,213.054,171.372z"/>
	<g>
		<path fill="none" stroke="#000000" stroke-width="3" stroke-miterlimit="10" d="M183.599,144.289
			c3.323-0.781,6.037-1.575,8.087-2.072c4.369-1.234,9.402-2.766,16.047-5.035c8.751-3.077,18.405-8.304,22.011-9.227
			c6.334-1.618,12.332,0.045,12.332,0.045c2.944,2.203-20.84,20.879-26.549,25.438c-14.697,11.61-61.227,23.858-94.675,37.862
			c-11.917,4.947-17.075,9.831-17.075,9.831s9.218-3.346,15.75-4.993c14.506-3.804,77.892-18.274,94.075-28.683
			c20.889-13.511,31.125-32.259,31.15-35.597c5.225,7.533,1.823,14.084-1.171,18.556c-3.008,4.373-0.475,6.534-1.718,7.723
			c-0.692,0.807-4.3-0.392-7.281,2.765c-2.981,3.156-4.011,5.83-7.685,9.086c-3.688,3.157-0.588,6.449-2.919,9.209
			c-2.345,2.661-5.135-1.989-8.655,0.234c-3.505,2.323-5.512,3.824-11.647,6.827c-6.036,2.99-2.214,7.087-4.56,8.334
			c-2.219,1.43-6.679-4.293-11.301-2.012s-22.444,14.644-28.564,18.454c-6.219,3.824-0.964,12.262-2.914,14.159
			c-1.243,1.189-5.631-2.625-9.577-2.664c-2.319,0.03-4.51,1.659-6.742,3.697c-5.977,5.507-0.457,10.876-3.029,12.66
			s-4.541-1.368-9.181-2.721s-8.47,1.521-13.438-2.816c-23.877-20.611-20.462-43.935-20.462-43.935
			c1.595-2.957,2.6-2.293,7.381-1.365c4.767,0.83,12.913,1.275,18.735-3.199c5.723-4.46,11.638-16.02,10.912-21.068
			s-2.257-8.667,4.347-9.112c2.701-0.186,10.676-1.636,19.895-3.568l4.214-0.909C161.782,149.245,161.782,149.245,183.599,144.289z"
			/>
		<path fill="#0095EB" d="M183.599,144.289c3.323-0.781,6.037-1.575,8.087-2.072c4.369-1.234,9.402-2.766,16.047-5.035
			c8.751-3.077,18.405-8.304,22.011-9.227c6.334-1.618,12.332,0.045,12.332,0.045c2.944,2.203-20.84,20.879-26.549,25.438
			c-14.697,11.61-61.227,23.858-94.675,37.862c-11.917,4.947-17.075,9.831-17.075,9.831s9.218-3.346,15.75-4.993
			c14.506-3.804,77.892-18.274,94.075-28.683c20.889-13.511,31.125-32.259,31.15-35.597c5.225,7.533,1.823,14.084-1.171,18.556
			c-3.008,4.373-0.475,6.534-1.718,7.723c-0.692,0.807-4.3-0.392-7.281,2.765c-2.981,3.156-4.011,5.83-7.685,9.086
			c-3.688,3.157-0.588,6.449-2.919,9.209c-2.345,2.661-5.135-1.989-8.655,0.234c-3.505,2.323-5.512,3.824-11.647,6.827
			c-6.036,2.99-2.214,7.087-4.56,8.334c-2.219,1.43-6.679-4.293-11.301-2.012s-22.444,14.644-28.564,18.454
			c-6.219,3.824-0.964,12.262-2.914,14.159c-1.243,1.189-5.631-2.625-9.577-2.664c-2.319,0.03-4.51,1.659-6.742,3.697
			c-5.977,5.507-0.457,10.876-3.029,12.66s-4.541-1.368-9.181-2.721s-8.47,1.521-13.438-2.816
			c-23.877-20.611-20.462-43.935-20.462-43.935c1.595-2.957,2.6-2.293,7.381-1.365c4.767,0.83,12.913,1.275,18.735-3.199
			c5.723-4.46,11.638-16.02,10.912-21.068s-2.257-8.667,4.347-9.112c2.701-0.186,10.676-1.636,19.895-3.568l4.214-0.909
			C161.782,149.245,161.782,149.245,183.599,144.289z"/>
	</g>
	<g>
		<g>
			<g>
				<path fill="none" stroke="#1D1D1B" stroke-width="3" d="M155.376,164.412c-0.198,0.028-0.396,0.057-0.608-0.014
					c-1.047-0.254-1.797-1.257-1.643-2.29l2.73-14.739c0.254-1.047,1.257-1.797,2.289-1.643c1.047,0.254,1.797,1.257,1.643,2.29
					l-2.73,14.739C156.889,163.689,156.168,164.298,155.376,164.412z"/>
			</g>
			<g>
				<path fill="none" stroke="#1D1D1B" stroke-width="3" d="M164.423,160.585c-0.198,0.028-0.396,0.057-0.608-0.014
					c-1.047-0.254-1.797-1.257-1.643-2.289l2.139-11.825c0.254-1.047,1.257-1.797,2.29-1.643c1.047,0.254,1.797,1.257,1.643,2.289
					l-2.139,11.825C165.936,159.862,165.215,160.471,164.423,160.585z"/>
			</g>
			<g>
				<path fill="none" stroke="#1D1D1B" stroke-width="3" d="M172.015,157.877c-0.198,0.028-0.396,0.057-0.608-0.014
					c-1.047-0.254-1.797-1.257-1.643-2.289l2.026-11.202c0.254-1.047,1.257-1.797,2.289-1.643c1.047,0.254,1.797,1.257,1.643,2.29
					l-2.026,11.202C173.528,157.154,172.807,157.763,172.015,157.877z"/>
			</g>
			<g>
				<path fill="none" stroke="#1D1D1B" stroke-width="3" d="M180.553,153.315c-0.198,0.028-0.396,0.057-0.608-0.014
					c-1.047-0.254-1.797-1.257-1.643-2.289l1.646-8.925c0.254-1.047,1.257-1.797,2.289-1.643c1.047,0.254,1.797,1.257,1.643,2.289
					l-1.646,8.925C182.065,152.592,181.345,153.201,180.553,153.315z"/>
			</g>
		</g>
		<g>
			<g>
				<path fill="#FFFF00" d="M155.376,164.412c-0.198,0.028-0.396,0.057-0.608-0.014c-1.047-0.254-1.797-1.257-1.643-2.29
					l2.73-14.739c0.254-1.047,1.257-1.797,2.289-1.643c1.047,0.254,1.797,1.257,1.643,2.29l-2.73,14.739
					C156.889,163.689,156.168,164.298,155.376,164.412z"/>
			</g>
			<g>
				<path fill="#FFFF00" d="M164.423,160.585c-0.198,0.028-0.396,0.057-0.608-0.014c-1.047-0.254-1.797-1.257-1.643-2.289
					l2.139-11.825c0.254-1.047,1.257-1.797,2.29-1.643c1.047,0.254,1.797,1.257,1.643,2.289l-2.139,11.825
					C165.936,159.862,165.215,160.471,164.423,160.585z"/>
			</g>
			<g>
				<path fill="#FFFF00" d="M172.015,157.877c-0.198,0.028-0.396,0.057-0.608-0.014c-1.047-0.254-1.797-1.257-1.643-2.289
					l2.026-11.202c0.254-1.047,1.257-1.797,2.289-1.643c1.047,0.254,1.797,1.257,1.643,2.29l-2.026,11.202
					C173.528,157.154,172.807,157.763,172.015,157.877z"/>
			</g>
			<g>
				<path fill="#FFFF00" d="M180.553,153.315c-0.198,0.028-0.396,0.057-0.608-0.014c-1.047-0.254-1.797-1.257-1.643-2.289
					l1.646-8.925c0.254-1.047,1.257-1.797,2.289-1.643c1.047,0.254,1.797,1.257,1.643,2.289l-1.646,8.925
					C182.065,152.592,181.345,153.201,180.553,153.315z"/>
			</g>
		</g>
	</g>
</g>
<g>
	<path d="M15.612,126.833v-17.188h3.857c1.263,0,2.179,0.373,2.749,1.118s0.854,1.844,0.854,3.296l0.01,7.754
		c0,1.732-0.287,3.001-0.859,3.809s-1.52,1.211-2.842,1.211C19.381,126.833,15.612,126.833,15.612,126.833z M18.229,124.802h0.859
		c0.482,0,0.832-0.156,1.05-0.469s0.327-0.885,0.327-1.719l-0.01-8.486c0-0.892-0.109-1.527-0.327-1.904s-0.594-0.566-1.128-0.566
		h-0.771C18.229,111.658,18.229,124.802,18.229,124.802z"/>
	<path d="M25.437,126.833v-17.188h5.762v2.256h-3.145v5h2.988v2.207h-2.988v5.469h3.262v2.256H25.437z"/>
	<path d="M39.987,125.911c-0.599,0.746-1.561,1.118-2.886,1.118s-2.289-0.375-2.891-1.123s-0.903-1.911-0.903-3.486v-12.783h2.617
		v12.734c0,0.905,0.042,1.455,0.127,1.65s0.187,0.373,0.308,0.532s0.37,0.239,0.747,0.239s0.648-0.111,0.811-0.332
		s0.262-0.497,0.298-0.825s0.054-0.75,0.054-1.265v-12.734h2.617v12.783C40.886,124.001,40.586,125.165,39.987,125.911z"/>
	<path d="M44.245,126.833v-14.922h-2.012v-2.266h6.553v2.266h-1.934v14.922H44.245z"/>
	<path d="M49.89,122v-1.533h2.48v1.729c0,0.957,0.082,1.629,0.244,2.017s0.469,0.581,0.918,0.581s0.747-0.16,0.894-0.479
		s0.22-0.84,0.22-1.562s-0.13-1.353-0.391-1.89s-0.674-1.099-1.24-1.685l-1.27-1.309c-0.592-0.619-1.053-1.26-1.382-1.924
		s-0.493-1.432-0.493-2.305c0-1.419,0.273-2.474,0.82-3.164s1.488-1.035,2.822-1.035s2.238,0.402,2.71,1.206
		s0.708,1.978,0.708,3.521v1.064h-2.412v-1.23c0-0.833-0.072-1.431-0.215-1.792s-0.418-0.542-0.825-0.542s-0.7,0.137-0.879,0.41
		s-0.269,0.684-0.269,1.23s0.091,0.983,0.273,1.309s0.511,0.742,0.986,1.25l1.416,1.533c0.709,0.768,1.245,1.546,1.606,2.334
		s0.542,1.647,0.542,2.578c0,1.608-0.27,2.796-0.811,3.564s-1.486,1.152-2.837,1.152s-2.292-0.428-2.822-1.284
		S49.89,123.64,49.89,122z"/>
	<path d="M65.437,125.833c-0.592,0.797-1.523,1.196-2.793,1.196s-2.218-0.425-2.847-1.274s-0.942-2.072-0.942-3.667v-7.49
		c0-2.559,0.67-4.157,2.012-4.795c0.495-0.234,1.094-0.352,1.797-0.352c2.416,0,3.623,1.523,3.623,4.57v2.363h-2.529v-2.197
		c0-0.885-0.075-1.519-0.225-1.899s-0.443-0.571-0.879-0.571s-0.739,0.202-0.908,0.605s-0.254,1.022-0.254,1.855v8.027
		c0,0.924,0.082,1.585,0.244,1.982s0.459,0.596,0.889,0.596s0.726-0.202,0.889-0.605s0.244-1.071,0.244-2.002v-2.461h2.568v2.432
		C66.325,123.806,66.029,125.035,65.437,125.833z"/>
	<path d="M68.454,126.833v-17.188h2.617v6.953h2.344v-6.953h2.617v17.188h-2.617v-7.988h-2.344v7.988
		C71.071,126.833,68.454,126.833,68.454,126.833z"/>
	<path d="M78.61,126.833v-17.188h5.762v2.256h-3.145v5h2.988v2.207h-2.988v5.469h3.262v2.256H78.61z"/>
	<path d="M90.036,118.757l-0.84-0.039v8.115h-2.617v-17.188h4.326c0.898,0,1.569,0.181,2.012,0.542s0.734,0.866,0.874,1.514
		s0.21,1.494,0.21,2.539s-0.111,1.841-0.332,2.388s-0.631,0.915-1.23,1.104c0.592,0.104,1.006,0.504,1.24,1.201
		s0.352,2.147,0.352,4.351s0.033,3.387,0.098,3.55h-2.617c-0.065-0.13-0.098-2.184-0.098-6.162c0-0.762-0.091-1.268-0.273-1.519
		S90.589,118.771,90.036,118.757z M89.206,116.687h1.045c0.332,0,0.578-0.075,0.737-0.225s0.27-0.407,0.332-0.771
		s0.093-0.921,0.093-1.67v-0.107c0-0.931-0.078-1.54-0.234-1.826s-0.518-0.43-1.084-0.43h-0.889V116.687z"/>
	<path d="M15.612,150.833v-17.188h5.898v2.275h-3.281v4.57h3.047v2.285h-3.047v8.057L15.612,150.833L15.612,150.833z"/>
	<path d="M29.978,149.91c-0.599,0.746-1.561,1.118-2.886,1.118s-2.289-0.374-2.891-1.123c-0.602-0.748-0.903-1.91-0.903-3.486
		v-12.783h2.617v12.734c0,0.905,0.042,1.455,0.127,1.65s0.187,0.373,0.308,0.532c0.121,0.16,0.37,0.239,0.747,0.239
		s0.648-0.11,0.811-0.332c0.163-0.221,0.262-0.496,0.298-0.825c0.036-0.328,0.054-0.75,0.054-1.265v-12.734h2.617v12.783
		C30.876,148.001,30.577,149.165,29.978,149.91z"/>
	<path d="M33.015,145.999v-1.533h2.48v1.729c0,0.957,0.082,1.63,0.244,2.017c0.163,0.388,0.469,0.581,0.918,0.581
		s0.747-0.159,0.894-0.479c0.146-0.318,0.22-0.84,0.22-1.562s-0.13-1.353-0.391-1.89s-0.674-1.099-1.24-1.685l-1.27-1.309
		c-0.592-0.618-1.053-1.26-1.382-1.924s-0.493-1.432-0.493-2.305c0-1.419,0.273-2.474,0.82-3.164
		c0.547-0.689,1.488-1.035,2.822-1.035s2.238,0.402,2.71,1.206c0.472,0.805,0.708,1.978,0.708,3.521v1.064h-2.412v-1.23
		c0-0.833-0.072-1.431-0.215-1.792s-0.418-0.542-0.825-0.542s-0.7,0.137-0.879,0.41s-0.269,0.684-0.269,1.23
		s0.091,0.983,0.273,1.309s0.511,0.742,0.986,1.25l1.416,1.533c0.709,0.769,1.245,1.547,1.606,2.334
		c0.361,0.788,0.542,1.647,0.542,2.578c0,1.608-0.27,2.797-0.811,3.564c-0.541,0.769-1.486,1.152-2.837,1.152
		s-2.292-0.428-2.822-1.284C33.28,148.889,33.015,147.64,33.015,145.999z"/>
	<path d="M41.853,145.999v-1.533h2.48v1.729c0,0.957,0.082,1.63,0.244,2.017c0.163,0.388,0.469,0.581,0.918,0.581
		s0.747-0.159,0.894-0.479c0.146-0.318,0.22-0.84,0.22-1.562s-0.13-1.353-0.391-1.89s-0.674-1.099-1.24-1.685l-1.27-1.309
		c-0.592-0.618-1.053-1.26-1.382-1.924s-0.493-1.432-0.493-2.305c0-1.419,0.273-2.474,0.82-3.164
		c0.547-0.689,1.488-1.035,2.822-1.035s2.238,0.402,2.71,1.206c0.472,0.805,0.708,1.978,0.708,3.521v1.064h-2.412v-1.23
		c0-0.833-0.072-1.431-0.215-1.792s-0.418-0.542-0.825-0.542s-0.7,0.137-0.879,0.41s-0.269,0.684-0.269,1.23
		s0.091,0.983,0.273,1.309s0.511,0.742,0.986,1.25l1.416,1.533c0.709,0.769,1.245,1.547,1.606,2.334
		c0.361,0.788,0.542,1.647,0.542,2.578c0,1.608-0.27,2.797-0.811,3.564c-0.541,0.769-1.486,1.152-2.837,1.152
		s-2.292-0.428-2.822-1.284C42.118,148.889,41.853,147.64,41.853,145.999z"/>
	<path d="M58.386,138.06c0,1.85-0.501,2.985-1.504,3.408c1.224,0.41,1.836,1.762,1.836,4.053v0.439
		c-0.013,1.726-0.314,2.969-0.903,3.73s-1.551,1.143-2.886,1.143H51.13v-17.188h3.721c1.283,0,2.191,0.298,2.725,0.894
		s0.804,1.594,0.811,2.993L58.386,138.06L58.386,138.06z M53.747,140.599h0.967c0.449,0,0.744-0.143,0.884-0.43
		c0.14-0.286,0.21-0.875,0.21-1.768v-1.035c-0.006-0.664-0.098-1.108-0.273-1.333s-0.479-0.337-0.908-0.337h-0.879L53.747,140.599
		L53.747,140.599z M53.747,148.802h0.928c0.521,0,0.885-0.179,1.094-0.537c0.208-0.357,0.312-0.999,0.312-1.924v-1.387
		c0-0.872-0.084-1.489-0.254-1.851s-0.495-0.542-0.977-0.542h-1.104L53.747,148.802L53.747,148.802z"/>
	<path d="M59.978,150.833l2.451-17.188h3.457l2.607,17.188h-2.441l-0.41-3.066h-2.773l-0.371,3.066H59.978z M65.368,145.667
		l-1.152-8.633h-0.039l-1.055,8.633H65.368z"/>
	<path d="M70.29,150.833v-17.188h2.617v14.961h3.311v2.227H70.29z"/>
	<path d="M77.722,150.833v-17.188h2.617v14.961h3.311v2.227H77.722z"/>
	<path d="M85.153,150.833v-17.188h5.762v2.256H87.77v5h2.988v2.207H87.77v5.469h3.262v2.256L85.153,150.833L85.153,150.833z"/>
	<path d="M96.579,142.757l-0.84-0.039v8.115h-2.617v-17.188h4.326c0.898,0,1.569,0.181,2.012,0.542s0.734,0.866,0.874,1.514
		c0.14,0.648,0.21,1.494,0.21,2.539s-0.111,1.841-0.332,2.388s-0.631,0.915-1.23,1.104c0.592,0.104,1.006,0.505,1.24,1.201
		c0.234,0.697,0.352,2.147,0.352,4.351s0.033,3.388,0.098,3.55h-2.617c-0.065-0.13-0.098-2.184-0.098-6.162
		c0-0.762-0.091-1.268-0.273-1.519C97.5,142.902,97.132,142.771,96.579,142.757z M95.749,140.687h1.045
		c0.332,0,0.578-0.074,0.737-0.225c0.16-0.149,0.27-0.406,0.332-0.771c0.062-0.364,0.093-0.921,0.093-1.67v-0.107
		c0-0.931-0.078-1.539-0.234-1.826c-0.156-0.286-0.518-0.43-1.084-0.43h-0.889V140.687z"/>
	<path d="M106.56,150.833v-17.188h3.857c1.263,0,2.179,0.373,2.749,1.118c0.57,0.746,0.854,1.845,0.854,3.296l0.01,7.754
		c0,1.732-0.287,3.002-0.859,3.809c-0.573,0.808-1.52,1.211-2.842,1.211H106.56z M109.177,148.802h0.859
		c0.482,0,0.832-0.156,1.05-0.469s0.327-0.885,0.327-1.719l-0.01-8.486c0-0.892-0.109-1.526-0.327-1.904
		c-0.218-0.377-0.594-0.566-1.128-0.566h-0.771V148.802z"/>
	<path d="M116.384,150.833v-17.188h5.762v2.256h-3.145v5h2.988v2.207h-2.988v5.469h3.262v2.256L116.384,150.833L116.384,150.833z"/>
	<path d="M124.011,145.999v-1.533h2.48v1.729c0,0.957,0.082,1.63,0.244,2.017c0.163,0.388,0.469,0.581,0.918,0.581
		s0.747-0.159,0.894-0.479c0.146-0.318,0.22-0.84,0.22-1.562s-0.13-1.353-0.391-1.89c-0.26-0.537-0.674-1.099-1.24-1.685
		l-1.27-1.309c-0.592-0.618-1.053-1.26-1.382-1.924s-0.493-1.432-0.493-2.305c0-1.419,0.273-2.474,0.82-3.164
		c0.547-0.689,1.488-1.035,2.822-1.035c1.335,0,2.238,0.402,2.71,1.206c0.473,0.805,0.708,1.978,0.708,3.521v1.064h-2.412v-1.23
		c0-0.833-0.071-1.431-0.215-1.792c-0.143-0.361-0.418-0.542-0.825-0.542s-0.7,0.137-0.879,0.41s-0.269,0.684-0.269,1.23
		s0.091,0.983,0.273,1.309s0.511,0.742,0.986,1.25l1.416,1.533c0.71,0.769,1.245,1.547,1.606,2.334
		c0.361,0.788,0.542,1.647,0.542,2.578c0,1.608-0.27,2.797-0.811,3.564c-0.54,0.769-1.485,1.152-2.837,1.152
		c-1.351,0-2.292-0.428-2.822-1.284C124.276,148.889,124.011,147.64,124.011,145.999z"/>
	<path d="M21.159,173.881c-0.619,0.766-1.489,1.147-2.612,1.147s-1.996-0.34-2.617-1.021c-0.622-0.68-0.933-1.671-0.933-2.974
		v-3.066h2.529v2.939c0,0.951,0.153,1.53,0.459,1.738c0.137,0.092,0.306,0.137,0.508,0.137c0.397,0,0.659-0.162,0.786-0.488
		c0.127-0.325,0.19-0.84,0.19-1.543v-13.105h2.617v12.979C22.087,172.03,21.778,173.116,21.159,173.881z"/>
	<path d="M23.786,174.833l2.451-17.188h3.457l2.607,17.188H29.86l-0.41-3.066h-2.773l-0.371,3.066H23.786z M29.177,169.667
		l-1.152-8.633h-0.039l-1.055,8.633H29.177z"/>
	<path d="M34.099,174.833v-17.188h2.617v6.953h2.344v-6.953h2.617v17.188H39.06v-7.988h-2.344v7.988H34.099z"/>
	<path d="M47.712,166.757l-0.84-0.039v8.115h-2.617v-17.188h4.326c0.898,0,1.569,0.181,2.012,0.542s0.734,0.866,0.874,1.514
		c0.14,0.648,0.21,1.494,0.21,2.539s-0.111,1.841-0.332,2.388s-0.631,0.915-1.23,1.104c0.592,0.104,1.006,0.505,1.24,1.201
		c0.234,0.697,0.352,2.147,0.352,4.351s0.033,3.388,0.098,3.55h-2.617c-0.065-0.13-0.098-2.184-0.098-6.162
		c0-0.762-0.091-1.268-0.273-1.519C48.633,166.902,48.265,166.771,47.712,166.757z M46.882,164.687h1.045
		c0.332,0,0.578-0.074,0.737-0.225c0.16-0.149,0.27-0.406,0.332-0.771c0.062-0.364,0.093-0.921,0.093-1.67v-0.107
		c0-0.931-0.078-1.539-0.234-1.826c-0.156-0.286-0.518-0.43-1.084-0.43h-0.889C46.882,159.658,46.882,164.687,46.882,164.687z"/>
	<path d="M54.118,174.833v-17.188h5.762v2.256h-3.145v5h2.988v2.207h-2.988v5.469h3.262v2.256L54.118,174.833L54.118,174.833z"/>
	<path d="M61.745,169.999v-1.533h2.48v1.729c0,0.957,0.082,1.63,0.244,2.017c0.163,0.388,0.469,0.581,0.918,0.581
		s0.747-0.159,0.894-0.479c0.146-0.318,0.22-0.84,0.22-1.562s-0.13-1.353-0.391-1.89s-0.674-1.099-1.24-1.685l-1.27-1.309
		c-0.592-0.618-1.053-1.26-1.382-1.924s-0.493-1.432-0.493-2.305c0-1.419,0.273-2.474,0.82-3.164
		c0.547-0.689,1.488-1.035,2.822-1.035s2.238,0.402,2.71,1.206c0.472,0.805,0.708,1.978,0.708,3.521v1.064h-2.412v-1.23
		c0-0.833-0.072-1.431-0.215-1.792s-0.418-0.542-0.825-0.542s-0.7,0.137-0.879,0.41s-0.269,0.684-0.269,1.23
		s0.091,0.983,0.273,1.309s0.511,0.742,0.986,1.25l1.416,1.533c0.709,0.769,1.245,1.547,1.606,2.334
		c0.361,0.788,0.542,1.647,0.542,2.578c0,1.608-0.27,2.797-0.811,3.564c-0.541,0.769-1.486,1.152-2.837,1.152
		s-2.292-0.428-2.822-1.284C62.01,172.889,61.745,171.64,61.745,169.999z"/>
</g>
</svg>
