<?xml version="1.0" encoding="utf-8"?>
<!-- Generator: Adobe Illustrator 17.0.0, SVG Export Plug-In . SVG Version: 6.00 Build 0)  -->
<!DOCTYPE svg PUBLIC "-//W3C//DTD SVG 1.1//EN" "http://www.w3.org/Graphics/SVG/1.1/DTD/svg11.dtd">
<svg version="1.1" id="Layer_1" xmlns="http://www.w3.org/2000/svg" xmlns:xlink="http://www.w3.org/1999/xlink" x="0px" y="0px"
	 width="256px" height="256px" viewBox="0 0 256 256" enable-background="new 0 0 256 256" xml:space="preserve">
<path fill="#FFFFFF" d="M192.1,10.3c-17.1,0-32.4,8-42.3,20.6h-0.3v0.3c-7.1,9.1-11.4,20.6-11.4,33c0,29.7,24.2,53.9,53.9,53.9
	s54-24.2,54-53.9S221.9,10.3,192.1,10.3z"/>
<path d="M192,10.3c-17.1,0-32.4,8-42.3,20.6h-0.3v0.3c-7.1,9.1-11.4,20.6-11.4,33c0,29.7,24.2,53.9,53.9,53.9s53.9-24.2,53.9-53.9
	S221.7,10.3,192,10.3z M208.6,100.9l-23.1-3L183.7,78l17.6-10.7L217,82.4L208.6,100.9z M171.2,103.3L151.9,89l-2.1-14.7l11.8-7.4
	L181.5,78l1.9,20.2L171.2,103.3z M149.1,72.2L142,57.4l9.3-15.3l9.7,2l-0.2,20.8L149.1,72.2z M188.3,19l21.3,2.9l7.3,13.6l-16.1,7.9
	l-16.5-11.5L188.3,19z M231.4,74.4l-12.6,6.7l-16.9-16.2l0.2-19.7l16-7.9L232.3,50L231.4,74.4z M233.5,74.9l1-24.5l7.1-0.9
	c1.4,4.7,2.1,9.6,2.1,14.7c0,4.6-0.6,9-1.7,13.2L233.5,74.9z M240.9,47.4l-7.1,0.9l-14.6-13.1L212,21.9l6.1-2.4
	C228.7,25.7,236.9,35.6,240.9,47.4z M178.8,14.2l7.4,4.1L182,32.1L162.3,42l-10.5-2.1l-0.2-8.1C158.5,23.4,167.9,17,178.8,14.2z
	 M149.7,40.5l-8.5,14.1c1.4-7.3,4.3-14.1,8.4-20L149.7,40.5z M140.5,59.2l7.1,14.9l2.1,14.8l-2.9,0.4c-4.1-7.4-6.5-16-6.5-25.1
	C140.3,62.5,140.4,60.8,140.5,59.2z M172.4,112.1l-0.2-6.8l12.5-5.3l23.9,3.1l4.4,8.4c-6.4,2.9-13.5,4.5-21,4.5
	C185.1,115.9,178.5,114.5,172.4,112.1z"/>
<g>
	<path fill="#FCFF00" stroke="#000000" stroke-miterlimit="10" d="M133.2,168.1c2.5-0.1,4.4-2.8,4.9-4s2.6-1.2,2.8-1.9
		c0.3-0.9,0.6-2.4,0.9-4.2c10.7-4.7,18-14.4,21.4-28c2.5-10.4,1.8-18.6,1.8-18.9l-0.1-0.5h-17.1c0.3-3,0.5-5.5,0.5-5.5
		s1.1-0.3,1.1-1.3s-1.4-1.2-1.4-1.2h-40c0,0-1.4-0.1-1.4,0.9s1.1,1.7,1.1,1.7s0.2,2.4,0.5,5.4H91.1L91,111c0,0.4-0.7,8.9,1.8,19.3
		c3.3,13.6,10.7,23.1,21.4,27.9c0.3,1.8,0.6,3.2,0.9,4.1c0.1,0.7,2.3,0.7,2.8,1.9s2.4,3.8,4.9,3.9c0.4,0.1,0.2,0.8,0.2,0.8
		s-1.4,0.1-1.3,1.3s1.8,1.6,1.8,1.6s-0.4,14.7-0.5,15.8s0,2,0.5,3c-1.8,0-2.3,0.1-2.3,0.1s-0.1,3.8-1.3,5.5
		c-1.2,1.7-2.2,5.3-1.1,7.3c-1.6,0-1.6,0-1.6,0s-0.2,6.1-1.5,7c-1.3,0.8-4.5,2.9-5.2,5.3c-0.1,1.1-4,3.3-5,3.1c0,1.9,0,23.6,0,23.6
		h-3.4c0,0-3.9,0.6-4.1,6.6c0,2,1.1,3.4,2.8,3.4c1.5,0,52.9,0,54.5,0c1.7,0,2.8-1.4,2.8-3.4c-0.2-6-4.1-6.6-4.1-6.6h-4.4
		c0,0,0-21.6,0-23.6c-2,0.1-4.4-2.3-4.5-3.4c-0.6-2.4-3.6-4.2-4.9-5.1c-1.3-0.8-1.2-7-1.2-7s-0.1,0-1.6,0c1.1-2,0.1-5.6-1.1-7.3
		s-1.3-5.3-1.3-5.3s-0.5-0.3-2.3-0.3c0.5-1,0.6-1.9,0.5-3s-0.5-15.8-0.5-15.8s1.7-0.4,1.8-1.6c0.1-1.2-1.3-1.3-1.3-1.3
		S132.9,168.2,133.2,168.1z M147.5,112.5h14.9c0.2,6-0.1,32.9-20.1,43.1C144.2,144,146.4,122.5,147.5,112.5z M93.6,112.5h14.9
		c1.1,10,3.3,31.5,5.2,43.1C93.7,145.4,93.4,118.5,93.6,112.5z"/>
	<path fill="#FFFFFF" d="M123.7,106h15c0,0-2,50.6-7.8,50.6C125,156.6,123.7,106,123.7,106z"/>
	<rect x="126" y="170" fill="#FFFFFF" width="5" height="2"/>
	<rect x="127" y="173" fill="#FFFFFF" width="4" height="13"/>
	<path fill="#FFFFFF" d="M127.1,191c0,0,0,3.4-0.2,4.3c-0.2,0.9-0.9,3,0.2,4.9c2,0,5,0.1,5,0.1s0.8-2.8-0.1-4.7
		c-0.5-1.7-0.7-4.5-0.7-4.5h-4.2C127.1,191.1,127.1,191,127.1,191z"/>
	<path fill="#FFFFFF" d="M126.9,203c0,0,0.1,5.8-0.9,7c2.6,0,7.5,0.2,7.5,0.2s-0.9-2.3-0.9-7.3C131.3,203,126.9,203,126.9,203z"/>
	<path fill="#FFFFFF" d="M134.2,213.1c1.3,0,4.2,3.9,0.3,3.9c-4.6,0-6.5,0.1-8.5,0.1s-0.9-3.9,1-4.1
		C128.9,212.7,134.2,213.1,134.2,213.1z"/>
	<rect x="124" y="103" fill="#FFFFFF" width="15" height="2"/>
	<path fill="#FF9F00" d="M116.3,162c0,0-7-52.3-5.7-52.3s7.8,52.3,7.8,52.3H116.3z"/>
	<path fill="#ABD100" d="M134.2,162h3.3c0,0,5-47.5,5.2-50.2c0.2-2.6-2.6-3-3,0.5C139.2,115.8,134.2,162,134.2,162z"/>
	<rect x="107" y="219" fill="#FF9F00" width="3" height="23"/>
	<rect x="139" y="219" fill="#ABD100" width="5" height="23"/>
	<path fill="#FF9F00" d="M120.4,204h-2c0,0-0.6,4.2,0.5,4.2S120.4,204,120.4,204z"/>
	<path fill="#FF9F00" d="M121.7,202h-2c0,0-0.3-2.6,0.8-2.8C121.7,199.1,121.6,202,121.7,202z"/>
	<path fill="#ABD100" d="M130.9,172.9l-0.7,17.1h0.8v-5.7C131,184.3,131.2,174.8,130.9,172.9z"/>
	<path fill="#FF9F00" d="M125,172.8l0.6,17.2H124v-5.7C124,184.3,124.7,175.2,125,172.8z"/>
	<path fill="#ABD100" d="M132.7,202h2c0,0,0.9-2.7-1.1-2.7S131.4,202,132.7,202z"/>
	<path fill="#ABD100" d="M132.6,203h2.8l0.1,6h-2.4C133.2,209,132.6,208,132.6,203z"/>
	<line fill="none" stroke="#000000" stroke-miterlimit="10" x1="107" y1="105.5" x2="148" y2="105.5"/>
	<line fill="none" stroke="#957E78" stroke-miterlimit="10" x1="123" y1="191.5" x2="132" y2="191.5"/>
	<line fill="none" stroke="#957E78" stroke-miterlimit="10" x1="123" y1="169.5" x2="132" y2="169.5"/>
	<line fill="none" stroke="#957E78" stroke-miterlimit="10" x1="123" y1="172.5" x2="132" y2="172.5"/>
	<line fill="none" stroke="#957E78" stroke-miterlimit="10" x1="118" y1="203.5" x2="137" y2="203.5"/>
	<line fill="none" stroke="#957E78" stroke-miterlimit="10" x1="105" y1="219.5" x2="150" y2="219.5"/>
	<line fill="none" stroke="#957E78" stroke-miterlimit="10" x1="105" y1="242.5" x2="150" y2="242.5"/>
	<line fill="none" stroke="#957E78" stroke-miterlimit="10" x1="114" y1="161.5" x2="141" y2="161.5"/>
</g>
<g>
	<g>
		<g>
			<path fill="#D80027" d="M153.2,79.5c5.8,15.5,20.8,26.6,38.4,26.6S224.2,95,230,79.5L191.6,76L153.2,79.5z"/>
			<path fill="#D80027" d="M191.6,24.5c-17.6,0-32.6,11.1-38.4,26.6l38.4,3.5l38.4-3.5C224.2,35.6,209.2,24.5,191.6,24.5z"/>
			<path fill="#D80027" d="M153.2,51.1c-1.6,4.4-2.5,9.2-2.5,14.2s0.9,9.8,2.5,14.2H230c1.6-4.4,2.5-9.2,2.5-14.2s-0.9-9.8-2.5-14.2
				C230,51.1,153.2,51.1,153.2,51.1z"/>
		</g>
		<ellipse fill="none" stroke="#020200" stroke-width="1.4754" stroke-miterlimit="10" cx="191.6" cy="65.2" rx="40.8" ry="40.6"/>
	</g>
	<path fill="#FFFFFF" d="M187.6,70.2c0-2,0.3-3.3,0.1-4.7c-0.2-1.6,0.1-2.3,2-2.5c9.2-1.4,18.3,0.9,27.4,1.2c1.1,0,2,0.6,2.4,1.7
		c0.6,1.7,2,1.6,3.3,1c1.8-0.8,3.6-1.8,5.3-2.7c0.7-0.4,1.6-0.8,1.4-1.7c-0.2-1-1.2-0.9-2-0.9c-4.2-0.1-8.2-1.1-12.1-2.7
		c-8-3.1-16.3-5.1-24.7-6.4c-0.8-0.1-1.9,0.3-2.3-1c-0.4-1.2,1.9-8.1,3.1-8.4c4-0.7,3.8-3.8,4.3-6.7c0.6-2.8-1.3-4-3.3-4.7
		c-2.1-0.8-4.9-0.5-5.4,1.9c-0.7,3.1-2.4,2.3-4.4,2.2c-5.2-0.5-9.9,0.2-13,5.2c-1.2,2-3,3.7-5.1,5.1c-1.4,0.9-3.1,2.2-1.7,3.7
		c1.5,1.6,3.4,0.1,4.3-1.3c1.7-2.5,4.2-4.1,6.3-6.1c1.2-1.1,2.5-1.2,3.6-0.5c1.3,0.8,0.1,2-0.1,2.9c-2.3,7.3-1.3,14.5,0.2,21.8
		c0.5,2.6,4.1,5.1,2.3,7.5c-1.6,2.1-4.5,3.6-6.7,5.6c-0.8,0.7-1.8,1.5-2.9,1c-2.4-1-3.6-0.2-4.5,2.3c-0.6,1.8-2.8,3-2.4,5.3
		c0.2,1.4,1,2.8,2.2,1.3c3.4-4.6,8.6-5.6,13.4-7.5C187,78.8,187.3,79.3,187.6,70.2z"/>
</g>
<g>
	<path d="M27.917,206.925v-28.952h5.478l4.112,21.154l3.866-21.154h5.511v28.952h-3.932v-10.792l0.165-9.902l-3.899,20.562h-3.504
		l-4.063-20.562l0.165,9.902v10.792L27.917,206.925L27.917,206.925z"/>
	<path d="M51.243,206.925v-28.952h9.706v3.8h-5.297v8.422h5.034v3.718h-5.034v9.213h5.494v3.8h-9.903V206.925z"/>
	<path d="M64.831,206.925v-28.952h4.409v28.952H64.831z"/>
	<path d="M73.171,198.781v-2.582h4.178v2.911c0,1.612,0.137,2.745,0.411,3.397c0.274,0.652,0.79,0.979,1.546,0.979
		c0.757,0,1.259-0.269,1.505-0.806s0.37-1.415,0.37-2.632c0-1.218-0.22-2.278-0.658-3.184c-0.438-0.904-1.135-1.851-2.089-2.838
		l-2.139-2.204c-0.998-1.042-1.774-2.122-2.328-3.24c-0.554-1.119-0.831-2.413-0.831-3.883c0-2.391,0.46-4.167,1.382-5.33
		c0.921-1.162,2.505-1.743,4.754-1.743c2.248,0,3.77,0.677,4.565,2.031c0.795,1.354,1.192,3.331,1.192,5.931v1.793h-4.063v-2.073
		c0-1.403-0.121-2.409-0.362-3.019c-0.241-0.608-0.705-0.913-1.39-0.913c-0.686,0-1.179,0.23-1.48,0.691
		c-0.302,0.461-0.453,1.151-0.453,2.072c0,0.922,0.154,1.656,0.461,2.205c0.307,0.548,0.861,1.25,1.661,2.105l2.385,2.582
		c1.195,1.295,2.098,2.605,2.706,3.932c0.609,1.327,0.913,2.775,0.913,4.344c0,2.708-0.455,4.71-1.365,6.004
		c-0.911,1.294-2.503,1.941-4.779,1.941s-3.86-0.722-4.754-2.163C73.618,203.648,73.171,201.545,73.171,198.781z"/>
	<path d="M90.115,206.925v-25.136h-3.389v-3.816h11.038v3.816h-3.257v25.136H90.115z"/>
	<path d="M100.199,206.925v-28.952h9.706v3.8h-5.297v8.422h5.034v3.718h-5.034v9.213h5.494v3.8h-9.903V206.925z"/>
	<path d="M119.446,193.32l-1.415-0.065v13.67h-4.409v-28.952h7.288c1.513,0,2.643,0.304,3.389,0.912
		c0.746,0.609,1.236,1.459,1.472,2.55c0.236,1.092,0.354,2.518,0.354,4.277c0,1.761-0.187,3.101-0.559,4.022
		c-0.373,0.921-1.064,1.541-2.073,1.858c0.998,0.176,1.694,0.851,2.089,2.023c0.395,1.174,0.592,3.616,0.592,7.329
		c0,3.712,0.055,5.705,0.164,5.979h-4.408c-0.11-0.22-0.165-3.68-0.165-10.38c0-1.283-0.154-2.136-0.461-2.559
		C120.998,193.564,120.378,193.343,119.446,193.32z M118.048,189.833h1.76c0.559,0,0.973-0.126,1.242-0.379
		c0.269-0.252,0.455-0.685,0.56-1.299c0.104-0.614,0.156-1.552,0.156-2.813v-0.181c0-1.568-0.132-2.594-0.395-3.076
		s-0.872-0.724-1.826-0.724h-1.497V189.833z"/>
	<path d="M136.258,206.925v-28.952h6.498c2.127,0,3.671,0.628,4.631,1.883c0.959,1.256,1.439,3.106,1.439,5.552l0.016,13.062
		c0,2.918-0.482,5.057-1.447,6.416c-0.965,1.36-2.561,2.04-4.787,2.04L136.258,206.925L136.258,206.925z M140.666,203.503h1.448
		c0.812,0,1.4-0.264,1.769-0.79c0.367-0.526,0.551-1.491,0.551-2.895l-0.017-14.296c0-1.502-0.184-2.571-0.551-3.207
		c-0.368-0.637-1.001-0.954-1.9-0.954h-1.3V203.503z"/>
	<path d="M152.807,206.925v-28.952h9.705v3.8h-5.297v8.422h5.034v3.718h-5.034v9.213h5.494v3.8h-9.902V206.925z"/>
	<path d="M172.053,193.32l-1.414-0.065v13.67h-4.409v-28.952h7.288c1.513,0,2.643,0.304,3.389,0.912
		c0.745,0.609,1.236,1.459,1.472,2.55c0.236,1.092,0.354,2.518,0.354,4.277c0,1.761-0.187,3.101-0.559,4.022
		c-0.373,0.921-1.064,1.541-2.073,1.858c0.998,0.176,1.694,0.851,2.09,2.023c0.395,1.174,0.592,3.616,0.592,7.329
		c0,3.712,0.055,5.705,0.164,5.979h-4.408c-0.109-0.22-0.164-3.68-0.164-10.38c0-1.283-0.154-2.136-0.461-2.559
		C173.604,193.564,172.985,193.343,172.053,193.32z M170.655,189.833h1.76c0.56,0,0.973-0.126,1.242-0.379
		c0.269-0.252,0.455-0.685,0.56-1.299c0.104-0.614,0.156-1.552,0.156-2.813v-0.181c0-1.568-0.132-2.594-0.396-3.076
		c-0.263-0.482-0.871-0.724-1.826-0.724h-1.496V189.833z"/>
	<path d="M199.97,205.37c-1.01,1.256-2.63,1.884-4.861,1.884s-3.854-0.631-4.869-1.893c-1.015-1.261-1.521-3.218-1.521-5.872
		v-21.533h4.408v21.451c0,1.524,0.071,2.45,0.214,2.779s0.315,0.628,0.519,0.896c0.203,0.27,0.622,0.403,1.259,0.403
		c0.636,0,1.091-0.187,1.365-0.56c0.273-0.372,0.441-0.836,0.501-1.39c0.061-0.554,0.091-1.264,0.091-2.13v-21.451h4.409v21.533
		C201.483,202.154,200.979,204.114,199.97,205.37z"/>
	<path d="M207.733,206.925v-23.491c-0.373,0.45-0.899,0.798-1.579,1.045c-0.68,0.246-1.349,0.37-2.007,0.37v-3.273
		c0.932-0.132,1.817-0.511,2.657-1.136c0.839-0.625,1.478-1.453,1.916-2.483h3.422v28.969L207.733,206.925L207.733,206.925z"/>
	<path d="M222.835,206.908h-4.803c0.263-3.751,0.83-7.188,1.702-10.314c0.872-3.125,1.656-5.697,2.353-7.715s1.189-3.44,1.48-4.269
		c0.29-0.828,0.521-1.476,0.69-1.941s0.266-0.749,0.288-0.848h-8.225v-3.865h12.781v3.207c-0.055,0.516-0.23,1.183-0.526,1.999
		c-0.296,0.817-0.686,1.856-1.168,3.117C224.787,193.123,223.263,199.999,222.835,206.908z"/>
	<path d="M67.71,219.407c0,3.115-0.845,5.029-2.534,5.741c2.062,0.691,3.093,2.967,3.093,6.827v0.74
		c-0.022,2.906-0.529,5.001-1.521,6.284c-0.993,1.283-2.613,1.925-4.861,1.925h-6.399v-28.952h6.268c2.16,0,3.69,0.501,4.589,1.505
		c0.899,1.003,1.354,2.684,1.366,5.042L67.71,219.407L67.71,219.407z M59.896,223.685h1.628c0.757,0,1.253-0.241,1.489-0.724
		s0.354-1.475,0.354-2.978v-1.744c-0.011-1.118-0.164-1.866-0.46-2.245c-0.296-0.378-0.806-0.567-1.53-0.567h-1.48L59.896,223.685
		L59.896,223.685z M59.896,237.503h1.562c0.877,0,1.492-0.302,1.843-0.904c0.351-0.604,0.526-1.684,0.526-3.241v-2.336
		c0-1.47-0.143-2.509-0.428-3.117s-0.833-0.913-1.645-0.913h-1.859v10.511H59.896z"/>
	<path d="M82.795,239.37c-1.009,1.256-2.629,1.884-4.861,1.884s-3.855-0.631-4.869-1.893c-1.015-1.261-1.522-3.218-1.522-5.872
		v-21.533h4.409v21.451c0,1.524,0.071,2.45,0.214,2.779s0.315,0.628,0.518,0.896c0.203,0.27,0.623,0.403,1.259,0.403
		s1.091-0.187,1.365-0.56c0.274-0.372,0.441-0.836,0.501-1.39c0.061-0.554,0.091-1.264,0.091-2.13v-21.451h4.409v21.533
		C84.309,236.154,83.804,238.114,82.795,239.37z"/>
	<path d="M88.487,240.925v-28.952h3.455l6.136,17.371l-0.312-7.896v-9.475h3.965v28.952h-3.126l-6.3-17.98l0.247,7.601v10.38h-4.065
		V240.925z"/>
	<path d="M106.056,240.925v-28.952h6.498c2.127,0,3.671,0.628,4.631,1.883c0.959,1.256,1.439,3.106,1.439,5.552l0.016,13.062
		c0,2.918-0.482,5.057-1.447,6.416c-0.965,1.36-2.561,2.04-4.787,2.04L106.056,240.925L106.056,240.925z M110.464,237.503h1.448
		c0.812,0,1.401-0.264,1.769-0.79c0.367-0.526,0.551-1.491,0.551-2.895l-0.016-14.296c0-1.502-0.184-2.571-0.551-3.207
		c-0.368-0.637-1.001-0.954-1.9-0.954h-1.3L110.464,237.503L110.464,237.503z"/>
	<path d="M122.604,240.925v-28.952h9.705v3.8h-5.296v8.422h5.034v3.718h-5.034v9.213h5.494v3.8h-9.903V240.925z"/>
	<path d="M135.452,232.781v-2.582h4.178v2.911c0,1.612,0.138,2.745,0.411,3.397c0.274,0.652,0.79,0.979,1.547,0.979
		s1.259-0.269,1.505-0.806c0.247-0.537,0.37-1.415,0.37-2.632c0-1.218-0.22-2.278-0.658-3.184c-0.438-0.904-1.135-1.851-2.089-2.838
		l-2.139-2.204c-0.998-1.042-1.773-2.122-2.327-3.24c-0.555-1.119-0.831-2.413-0.831-3.883c0-2.391,0.461-4.167,1.382-5.33
		c0.921-1.162,2.506-1.743,4.754-1.743s3.77,0.677,4.565,2.031s1.192,3.331,1.192,5.931v1.793h-4.063v-2.073
		c0-1.403-0.12-2.409-0.361-3.019c-0.241-0.608-0.705-0.913-1.391-0.913s-1.179,0.23-1.48,0.691s-0.452,1.151-0.452,2.072
		c0,0.922,0.153,1.656,0.461,2.205c0.307,0.548,0.86,1.25,1.661,2.105l2.385,2.582c1.195,1.295,2.098,2.605,2.706,3.932
		c0.609,1.327,0.913,2.775,0.913,4.344c0,2.708-0.455,4.71-1.365,6.004s-2.503,1.941-4.778,1.941c-2.276,0-3.86-0.722-4.754-2.163
		C135.898,237.648,135.452,235.545,135.452,232.781z"/>
	<path d="M150.915,240.925v-28.952h4.409v25.201h5.576v3.751L150.915,240.925L150.915,240.925z"/>
	<path d="M163.599,240.925v-28.952h4.408v28.952H163.599z"/>
	<path d="M177.959,241.221c-1.82,0-3.243-0.716-4.269-2.146c-1.025-1.432-1.538-3.639-1.538-6.621v-12.585
		c0-2.676,0.523-4.716,1.57-6.119c1.048-1.404,2.712-2.105,4.993-2.105c2.84,0,4.645,1.059,5.412,3.175
		c0.461,1.272,0.69,3.01,0.69,5.215v2.056h-4.112v-3.026c0-1.327-0.14-2.26-0.419-2.797c-0.28-0.537-0.807-0.806-1.58-0.806
		c-0.772,0-1.318,0.32-1.637,0.962c-0.317,0.642-0.477,1.779-0.477,3.413v12.552c0,1.897,0.143,3.219,0.428,3.965
		s0.842,1.118,1.67,1.118c0.827,0,1.414-0.4,1.76-1.2c0.346-0.801,0.519-2.149,0.519-4.047v-3.899h-2.221v-3.207h6.069v15.809
		h-1.974l-0.675-2.846c-0.23,0.976-0.734,1.743-1.513,2.303C179.878,240.941,178.979,241.221,177.959,241.221z"/>
	<path d="M187.648,240.925l4.129-28.952h5.823l4.393,28.952h-4.113l-0.69-5.166h-4.672l-0.625,5.166H187.648z M196.729,232.223
		l-1.941-14.542h-0.065l-1.776,14.542L196.729,232.223L196.729,232.223z"/>
</g>
</svg>
