<?xml version="1.0" encoding="utf-8"?>
<!-- Generator: Adobe Illustrator 17.0.0, SVG Export Plug-In . SVG Version: 6.00 Build 0)  -->
<!DOCTYPE svg PUBLIC "-//W3C//DTD SVG 1.1//EN" "http://www.w3.org/Graphics/SVG/1.1/DTD/svg11.dtd">
<svg version="1.1" id="Layer_1" xmlns="http://www.w3.org/2000/svg" xmlns:xlink="http://www.w3.org/1999/xlink" x="0px" y="0px"
	 width="256px" height="256px" viewBox="0 0 256 256" enable-background="new 0 0 256 256" xml:space="preserve">
	<g>
		<g>
			<polygon fill="#FF0000" points="78.5,160.3 44.2,83.8 76.3,57.2 194,55.9 211.1,86.4 177.4,163.2 144.4,138.3 164.5,87.7 
			87.5,88.1 113.6,136.3 		"/>
			<g>
				<g>
					<path fill="#FFFFFF" d="M78.5,166.5c-1.8,0-3.6-1-4.4-2.8L38.5,87.1c-0.9-2-0.4-4.4,1.3-5.8l34.5-28.6c1.2-1,2.7-1.3,4.1-1
					c1.5,0.3,2.7,1.3,3.3,2.7l35.7,76.7c1.1,2.4,0.1,5.3-2.3,6.4c-2.4,1.1-5.3,0.1-6.4-2.3l-33.1-71L48.8,86.4l34.1,73.1
					c1.1,2.4,0.1,5.3-2.3,6.4C79.9,166.3,79.2,166.5,78.5,166.5z"/>
				</g>
				<g>
					<path fill="#FFFFFF" d="M177,167.5c-0.7,0-1.4-0.1-2-0.5c-2.4-1.1-3.5-4-2.3-6.4l34.6-74.1l-26.8-22.3l-33.2,71.2
					c-1.1,2.4-4,3.5-6.4,2.3c-2.4-1.1-3.5-4-2.3-6.4l35.8-76.8c0.6-1.4,1.9-2.3,3.3-2.7c1.5-0.3,3,0,4.1,1l34.5,28.6
					c1.7,1.4,2.2,3.8,1.3,5.8l-36.1,77.5C180.6,166.4,178.8,167.5,177,167.5z"/>
				</g>
				<g>
					<path fill="#FFFFFF" d="M178.6,60L178.6,60L77.3,60.5c-2.7,0-4.8-1.6-4.8-4.3s2.2-4.3,4.8-4.3l0,0L178.6,52c2.7,0,4.8,1.3,4.8,4
					C183.4,58.7,181.3,60,178.6,60z"/>
				</g>
				<g>
					<path fill="#FFFFFF" d="M163.7,93L163.7,93l-71.4-0.1c-2.7,0-4.8-2.3-4.8-4.9c0-2.7,2.2-4.9,4.8-4.9l0,0l71.4,0.3
					c2.7,0,4.8,2.2,4.8,4.9C168.5,90.8,166.4,93,163.7,93z"/>
				</g>
			</g>
			<g>
				<g>
					<g>
						<path fill="#FFFFFF" d="M127.1,248.4c-12.7,0-24.7-4-34.9-11.5c-26-19.3-31.5-56.2-12.3-82.2c11-14.9,28.7-23.8,47.3-23.8
						c12.7,0,24.7,4,34.9,11.5c12.6,9.3,20.8,23,23.2,38.6c2.3,15.5-1.6,31-10.9,43.6C163.4,239.5,145.7,248.4,127.1,248.4z
						 M127.2,139.7c-15.8,0-30.8,7.6-40.2,20.2c-16.4,22.1-11.7,53.5,10.4,69.8c8.7,6.4,18.9,9.8,29.7,9.8
						c15.8,0,30.8-7.6,40.2-20.2c7.9-10.7,11.2-23.9,9.3-37.1c-2-13.2-9-24.8-19.7-32.8C148.2,143.1,138,139.7,127.2,139.7z"/>
					</g>
				</g>
				<g>
					<g>
						<polygon fill="#FFFFFF" points="113.7,137.1 104.1,158.8 80.4,161.3 					"/>
					</g>
				</g>
				<g>
					<g>
						<polygon fill="#FFFFFF" points="147,240.1 126.6,228.1 105.9,239.8 					"/>
					</g>
				</g>
				<g>
					<g>
						<polygon fill="#FFFFFF" points="174.1,162 150.6,159.3 141.2,137.4 					"/>
					</g>
				</g>
				<g>
					<g>
						<polygon fill="#FFFFFF" points="86,225.6 90.9,202.4 73.1,186.6 					"/>
					</g>
				</g>
				<g>
					<g>
						<polygon fill="#FFFFFF" points="181.4,185.9 163.7,201.6 168.5,224.9 					"/>
					</g>
				</g>
			</g>
		</g>
		<path fill="#FFFF00" d="M127.2,139.7c-15.8,0-30.8,7.6-40.2,20.2c-16.4,22.1-11.7,53.5,10.4,69.8c8.7,6.4,18.9,9.8,29.7,9.8
		c15.8,0,30.8-7.6,40.2-20.2c7.9-10.7,11.2-23.9,9.3-37.1c-2-13.2-9-24.8-19.7-32.8C148.2,143.1,138,139.7,127.2,139.7z"/>
		<path fill="#ABD100" d="M145.3,227.9c-4.8,5,11.8-7.4,16-13.1c6.7-9.1,9.5-20.3,7.9-31.5c-1.7-11.2-7.6-21.1-16.7-27.8
		c-1.8-1.4-3.8-2.6-5.8-3.6c0,0,13.9,19.1,12.9,36.9S152.8,220.2,145.3,227.9z"/>
		<path fill="#FF9F00" d="M95.4,188.3c-1-21.7,16.8-38.3,16.8-38.3c-7.5,2.9-14.2,7.8-19.1,14.4c-13.9,18.8-10,45.4,8.9,59.4
		c2.3,1.7,9.2,6.2,7.2,4.3C104.5,223.8,96.4,210,95.4,188.3z"/>
	</g>
	<g>
		<path fill="#FFFFFF" d="M192,10.3c-17.1,0-32.4,8-42.3,20.6h-0.3v0.3c-7.1,9.1-11.4,20.6-11.4,33c0,29.7,24.2,53.9,53.9,53.9
		s53.9-24.2,53.9-53.9S221.7,10.3,192,10.3z"/>
		<path d="M192,10.3c-17.1,0-32.4,8-42.3,20.6h-0.3v0.3c-7.1,9.1-11.4,20.6-11.4,33c0,29.7,24.2,53.9,53.9,53.9s53.9-24.2,53.9-53.9
		S221.7,10.3,192,10.3z M208.6,100.9l-23.1-3L183.7,78l17.6-10.7L217,82.4L208.6,100.9z M171.2,103.3L151.9,89l-2.1-14.7l11.8-7.4
		L181.5,78l1.9,20.2L171.2,103.3z M149.1,72.2L142,57.4l9.3-15.3l9.7,2l-0.2,20.8L149.1,72.2z M188.3,19l21.3,2.9l7.3,13.6
		l-16.1,7.9l-16.5-11.5L188.3,19z M231.4,74.4l-12.6,6.7l-16.9-16.2l0.2-19.7l16-7.9L232.3,50L231.4,74.4z M233.5,74.9l1-24.5
		l7.1-0.9c1.4,4.7,2.1,9.6,2.1,14.7c0,4.6-0.6,9-1.7,13.2L233.5,74.9z M240.9,47.4l-7.1,0.9l-14.6-13.1L212,21.9l6.1-2.4
		C228.7,25.7,236.9,35.6,240.9,47.4z M178.8,14.2l7.4,4.1L182,32.1L162.3,42l-10.5-2.1l-0.2-8.1C158.5,23.4,167.9,17,178.8,14.2z
		 M149.7,40.5l-8.5,14.1c1.4-7.3,4.3-14.1,8.4-20L149.7,40.5z M140.5,59.2l7.1,14.9l2.1,14.8l-2.9,0.4c-4.1-7.4-6.5-16-6.5-25.1
		C140.3,62.5,140.4,60.8,140.5,59.2z M172.4,112.1l-0.2-6.8l12.5-5.3l23.9,3.1l4.4,8.4c-6.4,2.9-13.5,4.5-21,4.5
		C185.1,115.9,178.5,114.5,172.4,112.1z"/>
	</g>
	<g>
		<g>
			<g>
				<path fill="#FFFF00" d="M65,208.8h-8.4v-33h8.5c2.8,0,4.9,0.9,6.2,2.7c1.2,1.6,1.9,3.8,1.9,6.8v13.1c0,3.4-0.6,5.9-1.8,7.6
				C70.1,207.8,67.9,208.8,65,208.8z M60.7,204.8h0.4v-25h-0.4V204.8z M67.1,180.1c0.3,0.3,0.6,0.6,0.9,1c0.6,1,0.8,2.3,0.8,4.2
				v14.3c0,1.9-0.3,3.2-0.9,4c-0.1,0.2-0.3,0.3-0.4,0.5c0.4-0.2,0.6-0.5,0.7-0.6c0.5-0.7,1.1-2.2,1.1-5.3v-13.1c0-2-0.3-3.4-1-4.3
				C68.1,180.8,67.8,180.4,67.1,180.1z"/>
			</g>
			<g>
				<path fill="#FFFF00" d="M87.1,208.8H72.6v-6.2l5.4-19h-4.8v-7.8h14.1v5.8L81.9,201h5.2V208.8z M76.6,204.8L76.6,204.8l6.6-23.7
				v-1.3l-6.6,23.3V204.8z"/>
			</g>
			<g>
				<path fill="#FFFF00" d="M94.9,208.8h-8.4v-33h13.9v7.8h-5.5v3.7h5.1v7.8h-5.1V208.8z M90.5,204.8h0.4v-25h-0.4V204.8z"/>
			</g>
			<g>
				<path fill="#FFFF00" d="M107.7,209.1c-2.9,0-5.1-1-6.5-2.9c-1.3-1.8-1.9-4.2-1.9-7.5v-13.2c0-8.7,5.3-10,8.5-10
				c2.9,0,5.1,1,6.4,2.8c1.2,1.7,1.9,4,1.9,7.1v13.2c0,3.3-0.6,5.7-1.9,7.5C112.8,208.1,110.6,209.1,107.7,209.1z M109.5,179.7
				c0.7,0.4,1.3,1,1.6,1.8c0.4,0.9,0.5,2.1,0.5,3.8v13.5c0,2-0.2,3.3-0.5,4.2c-0.3,0.8-0.8,1.5-1.6,1.9c0.9-0.3,1.2-0.8,1.3-1
				c0.7-1,1.1-2.8,1.1-5.2v-13.2c0-2.2-0.4-3.8-1.1-4.8C110.8,180.5,110.5,180,109.5,179.7z M105.9,179.8c-1.5,0.5-2.6,2-2.6,5.7
				v13.2c0,2.3,0.4,4.1,1.2,5.1c0.1,0.2,0.5,0.6,1.2,0.9c-0.6-0.4-1.1-1-1.4-1.8c-0.4-0.9-0.5-2.3-0.5-4.3v-13.5
				c0-1.7,0.2-2.9,0.6-3.8C104.7,180.7,105.2,180.1,105.9,179.8z"/>
			</g>
			<g>
				<path fill="#FFFF00" d="M124.1,209.1c-2.9,0-5.1-1-6.5-2.9c-1.3-1.8-1.9-4.2-1.9-7.5v-13.2c0-8.7,5.3-10,8.5-10
				c2.9,0,5.1,1,6.4,2.8c1.2,1.7,1.9,4,1.9,7.1v13.2c0,3.3-0.6,5.7-1.9,7.5C129.2,208.1,127,209.1,124.1,209.1z M125.9,179.7
				c0.7,0.4,1.3,1,1.6,1.8c0.4,0.9,0.5,2.1,0.5,3.8v13.5c0,2-0.2,3.3-0.5,4.2c-0.3,0.8-0.8,1.5-1.6,1.9c0.9-0.3,1.2-0.8,1.3-1
				c0.7-1,1.1-2.8,1.1-5.2v-13.2c0-2.2-0.4-3.8-1.1-4.8C127.3,180.5,126.9,180,125.9,179.7z M122.3,179.8c-1.5,0.5-2.6,2-2.6,5.7
				v13.2c0,2.3,0.4,4.1,1.2,5.1c0.1,0.2,0.5,0.6,1.2,0.9c-0.6-0.4-1.1-1-1.4-1.8c-0.4-0.9-0.5-2.3-0.5-4.3v-13.5
				c0-1.7,0.2-2.9,0.6-3.8C121.1,180.7,121.6,180.1,122.3,179.8z"/>
			</g>
			<g>
				<path fill="#FFFF00" d="M142.4,208.8H134v-25.1h-3.4v-7.8h15v7.8h-3.3v25.1H142.4z M138,204.8h0.4v-25H138V204.8z"/>
			</g>
			<g>
				<path fill="#FFFF00" d="M158.4,208.8h-8.3v-33h8.5c2.8,0,4.9,0.9,6.2,2.7c1.2,1.6,1.9,3.9,1.9,6.8v13.1c0,3.4-0.6,5.9-1.8,7.6
				C163.5,207.8,161.3,208.8,158.4,208.8z M154.1,204.8h0.4v-25h-0.4V204.8z M160.6,180.1c0.3,0.3,0.6,0.6,0.9,1
				c0.6,1,0.8,2.3,0.8,4.2v14.3c0,1.9-0.3,3.2-0.9,4c-0.1,0.2-0.3,0.3-0.4,0.5c0.4-0.2,0.6-0.5,0.7-0.6c0.5-0.7,1.1-2.2,1.1-5.3
				v-13.1c0-2-0.3-3.4-1-4.3C161.5,180.8,161.2,180.4,160.6,180.1z"/>
			</g>
			<g>
				<path fill="#FFFF00" d="M174.7,209.1c-2.9,0-5.1-1-6.5-2.9c-1.3-1.8-1.9-4.2-1.9-7.5v-13.2c0-8.7,5.3-10,8.5-10
				c2.9,0,5.1,1,6.4,2.8c1.2,1.7,1.9,4,1.9,7.1v13.2c0,3.3-0.6,5.7-1.9,7.5C179.8,208.1,177.6,209.1,174.7,209.1z M176.5,179.7
				c0.7,0.4,1.3,1,1.6,1.8c0.4,0.9,0.5,2.1,0.5,3.8v13.5c0,2-0.2,3.3-0.5,4.2c-0.3,0.8-0.8,1.5-1.6,1.9c0.9-0.3,1.2-0.8,1.3-1
				c0.7-1,1.1-2.8,1.1-5.2v-13.2c0-2.2-0.4-3.8-1.1-4.8C177.8,180.5,177.5,180,176.5,179.7z M172.9,179.8c-1.5,0.5-2.6,2-2.6,5.7
				v13.2c0,2.3,0.4,4.1,1.2,5.1c0.2,0.3,0.6,0.7,1.3,1c-0.7-0.4-1.2-1-1.5-1.8c-0.4-0.9-0.5-2.3-0.5-4.3v-13.5
				c0-1.7,0.2-2.9,0.6-3.8C171.7,180.7,172.2,180.1,172.9,179.8z"/>
			</g>
			<g>
				<path fill="#FFFF00" d="M200.7,208.8h-8.6l-0.6-1.1c0-0.1-0.1-0.2-0.1-0.2v1.4H183v-33h9.3c2,0,3.5,0.5,4.7,1.4
				c1.1,0.9,1.8,2.1,2.2,3.7c0.3,1.2,0.4,2.8,0.4,4.7c0,2-0.2,3.6-0.7,4.8c-0.2,0.4-0.4,0.8-0.6,1.1c0.3,0.4,0.5,0.9,0.7,1.4
				c0.3,0.9,0.7,2.7,0.7,8c0,3.9,0.1,5.1,0.1,5.4L200.7,208.8z M195.3,204.8h0.4c0-0.9,0-2.2,0-4c0-4.6-0.3-6.1-0.5-6.7
				c-0.1-0.3-0.2-0.5-0.3-0.6c0.3,0.7,0.4,1.6,0.4,2.9C195.2,200.9,195.2,203.4,195.3,204.8z M187.1,204.8h0.4V191l0,0v-11.2h-0.4
				V204.8z M192.7,191.5c0.7,0.2,1.3,0.6,1.7,1.2c0.1,0.1,0.1,0.2,0.2,0.3l-0.2-2.8c-0.1,0.2-0.3,0.4-0.5,0.6
				C193.5,191.1,193.1,191.3,192.7,191.5z M193.6,179.9c0.4,0.3,0.7,0.7,0.9,1c0.4,0.8,0.6,2,0.6,4v0.2c0,1.4-0.1,2.4-0.2,3.1
				c-0.1,0.4-0.1,0.7-0.3,1c0.2-0.1,0.3-0.3,0.4-0.5c0.2-0.5,0.4-1.4,0.4-3.3c0-1.6-0.1-2.9-0.3-3.9c-0.1-0.6-0.4-1.1-0.8-1.4
				C194.3,180.2,194.1,180,193.6,179.9z"/>
			</g>
		</g>
		<g>
			<g>
				<path d="M58.7,206.8v-29h6.5c2.1,0,3.7,0.6,4.6,1.9c1,1.3,1.4,3.1,1.4,5.6v13.1c0,2.9-0.5,5.1-1.4,6.4c-1,1.4-2.6,2-4.8,2H58.7z
				 M63.1,203.4h1.4c0.8,0,1.4-0.3,1.8-0.8s0.6-1.5,0.6-2.9v-14.3c0-1.5-0.2-2.6-0.6-3.2s-1-1-1.9-1h-1.3
				C63.1,181.2,63.1,203.4,63.1,203.4z"/>
			</g>
			<g>
				<path d="M74.6,206.8v-3.9l6-21.2h-5.5v-3.8h10.1v3.6l-6,21.6h5.9v3.8H74.6V206.8z"/>
			</g>
			<g>
				<path d="M88.5,206.8v-29h9.9v3.8h-5.5v7.7H98v3.8h-5.1v13.6h-4.4V206.8z"/>
			</g>
			<g>
				<path d="M112.5,205c-1,1.4-2.6,2.1-4.8,2.1s-3.8-0.7-4.9-2.1s-1.6-3.5-1.6-6.3v-13.2c0-5.3,2.2-8,6.5-8c2.2,0,3.8,0.7,4.8,2
				s1.5,3.3,1.5,5.9v13.2C114.1,201.5,113.6,203.6,112.5,205z M106.1,202.3c0.3,0.7,0.8,1,1.6,1c0.8,0,1.3-0.3,1.6-1
				c0.3-0.7,0.4-1.9,0.4-3.5v-13.5c0-1.4-0.1-2.4-0.4-3s-0.8-0.9-1.5-0.9c-0.8,0-1.3,0.3-1.6,0.9c-0.3,0.6-0.5,1.6-0.5,3v13.5
				C105.7,200.4,105.8,201.6,106.1,202.3z"/>
			</g>
			<g>
				<path d="M129,205c-1,1.4-2.6,2.1-4.8,2.1s-3.8-0.7-4.9-2.1s-1.6-3.5-1.6-6.3v-13.2c0-5.3,2.2-8,6.5-8c2.2,0,3.8,0.7,4.8,2
				s1.5,3.3,1.5,5.9v13.2C130.5,201.5,130,203.6,129,205z M122.5,202.3c0.3,0.7,0.8,1,1.6,1c0.8,0,1.3-0.3,1.6-1
				c0.3-0.7,0.4-1.9,0.4-3.5v-13.5c0-1.4-0.1-2.4-0.4-3s-0.8-0.9-1.5-0.9c-0.8,0-1.3,0.3-1.6,0.9c-0.3,0.6-0.5,1.6-0.5,3v13.5
				C122.1,200.4,122.3,201.6,122.5,202.3z"/>
			</g>
			<g>
				<path d="M136,206.8v-25.1h-3.4v-3.8h11v3.8h-3.3v25.1H136z"/>
			</g>
			<g>
				<path d="M152.1,206.8v-29h6.5c2.1,0,3.7,0.6,4.6,1.9c1,1.3,1.4,3.1,1.4,5.6v13.1c0,2.9-0.5,5.1-1.4,6.4c-1,1.4-2.6,2-4.8,2H152.1
				z M156.5,203.4h1.4c0.8,0,1.4-0.3,1.8-0.8c0.4-0.5,0.6-1.5,0.6-2.9v-14.3c0-1.5-0.2-2.6-0.6-3.2c-0.4-0.6-1-1-1.9-1h-1.3V203.4z"
				/>
			</g>
			<g>
				<path d="M179.5,205c-1,1.4-2.6,2.1-4.8,2.1s-3.8-0.7-4.9-2.1c-1-1.4-1.6-3.5-1.6-6.3v-13.2c0-5.3,2.2-8,6.5-8
				c2.2,0,3.8,0.7,4.8,2s1.5,3.3,1.5,5.9v13.2C181.1,201.5,180.6,203.6,179.5,205z M173.1,202.3c0.3,0.7,0.8,1,1.6,1s1.3-0.3,1.6-1
				s0.4-1.9,0.4-3.5v-13.5c0-1.4-0.1-2.4-0.4-3c-0.3-0.6-0.8-0.9-1.5-0.9s-1.3,0.3-1.6,0.9c-0.3,0.6-0.5,1.6-0.5,3v13.5
				C172.7,200.4,172.8,201.6,173.1,202.3z"/>
			</g>
			<g>
				<path d="M190.9,193.2l-1.4-0.1v13.7h-4.4v-29h7.3c1.5,0,2.6,0.3,3.4,0.9c0.7,0.6,1.2,1.5,1.5,2.6c0.2,1.1,0.4,2.5,0.4,4.3
				s-0.2,3.1-0.6,4c-0.4,0.9-1.1,1.5-2.1,1.9c1,0.2,1.7,0.8,2.1,2c0.4,1.2,0.6,3.6,0.6,7.3s0.1,5.7,0.2,6h-4.4
				c-0.1-0.2-0.2-3.7-0.2-10.4c0-1.3-0.2-2.1-0.5-2.6C192.4,193.4,191.8,193.2,190.9,193.2z M189.5,189.7h1.8c0.6,0,1-0.1,1.2-0.4
				c0.3-0.3,0.5-0.7,0.6-1.3s0.2-1.6,0.2-2.8V185c0-1.6-0.1-2.6-0.4-3.1c-0.3-0.5-0.9-0.7-1.8-0.7h-1.5v8.5H189.5z"/>
			</g>
		</g>
	</g>
	<g>
		<path fill="#F0F0F0" d="M191.6,24c22.6,0,41,18.3,41,41c0,22.6-18.3,41-41,41c0-1.8-5.3-41-5.3-41L191.6,24z"/>
		<path fill="#496E2D" d="M191.6,105.9c-22.6,0-41-18.3-41-41c0-22.6,18.3-41,41-41"/>
		<polygon fill="#D80027" points="200.4,57.1 197,61.7 191.6,59.9 194.9,64.6 191.6,69.2 197,67.4 200.4,72.1 200.4,66.3 205.8,64.6 
		200.4,62.8 	"/>
		<path fill="#D80027" d="M195,76.5c-6.4,0-11.6-5.2-11.6-11.6s5.2-11.6,11.6-11.6c2,0,3.9,0.5,5.5,1.4c-2.6-2.5-6.1-4.1-10-4.1
		c-7.9,0-14.2,6.4-14.2,14.2c0,7.9,6.4,14.2,14.2,14.2c3.9,0,7.4-1.6,10-4.1C198.8,76,197,76.5,195,76.5"/>
	</g>
</svg>