<?xml version="1.0" encoding="utf-8"?>
<!-- Generator: Adobe Illustrator 17.0.0, SVG Export Plug-In . SVG Version: 6.00 Build 0)  -->
<!DOCTYPE svg PUBLIC "-//W3C//DTD SVG 1.1//EN" "http://www.w3.org/Graphics/SVG/1.1/DTD/svg11.dtd">
<svg version="1.1" id="Layer_1" xmlns="http://www.w3.org/2000/svg" xmlns:xlink="http://www.w3.org/1999/xlink" x="0px" y="0px"
	 width="256px" height="256px" viewBox="0 0 256 256" enable-background="new 0 0 256 256" xml:space="preserve">
<polygon fill="#FFFF00" points="128,188.6 53.1,243.2 82,155.1 6.8,100.8 99.5,101 128,12.8 156.5,101 249.2,100.8 174,155.1 
	202.9,243.2 "/>
<path fill="#FFFFFF" d="M192,10.3c-17.1,0-32.4,8-42.3,20.6h-0.3v0.3c-7.1,9.1-11.4,20.6-11.4,33c0,29.7,24.2,53.9,53.9,53.9
	s53.9-24.2,53.9-53.9S221.7,10.3,192,10.3z"/>
<path d="M192,10.3c-17.1,0-32.4,8-42.3,20.6h-0.3v0.3c-7.1,9.1-11.4,20.6-11.4,33c0,29.7,24.2,53.9,53.9,53.9s53.9-24.2,53.9-53.9
	S221.7,10.3,192,10.3z M208.6,100.9l-23.1-3L183.7,78l17.6-10.7L217,82.4L208.6,100.9z M171.2,103.3L151.9,89l-2.1-14.7l11.8-7.4
	L181.5,78l1.9,20.2L171.2,103.3z M149.1,72.2L142,57.4l9.3-15.3l9.7,2l-0.2,20.8L149.1,72.2z M188.3,19l21.3,2.9l7.3,13.6l-16.1,7.9
	l-16.5-11.5L188.3,19z M231.4,74.4l-12.6,6.7l-16.9-16.2l0.2-19.7l16-7.9L232.3,50L231.4,74.4z M233.5,74.9l1-24.5l7.1-0.9
	c1.4,4.7,2.1,9.6,2.1,14.7c0,4.6-0.6,9-1.7,13.2L233.5,74.9z M240.9,47.4l-7.1,0.9l-14.6-13.1L212,21.9l6.1-2.4
	C228.7,25.7,236.9,35.6,240.9,47.4z M178.8,14.2l7.4,4.1L182,32.1L162.3,42l-10.5-2.1l-0.2-8.1C158.5,23.4,167.9,17,178.8,14.2z
	 M149.7,40.5l-8.5,14.1c1.4-7.3,4.3-14.1,8.4-20L149.7,40.5z M140.5,59.2l7.1,14.9l2.1,14.8l-2.9,0.4c-4.1-7.4-6.5-16-6.5-25.1
	C140.3,62.5,140.4,60.8,140.5,59.2z M172.4,112.1l-0.2-6.8l12.5-5.3l23.9,3.1l4.4,8.4c-6.4,2.9-13.5,4.5-21,4.5
	C185.1,115.9,178.5,114.5,172.4,112.1z"/>
<g>
	<path fill="none" stroke="#000000" stroke-width="3" stroke-miterlimit="10" d="M157.6,137"/>
	<path fill="#FF0000" d="M157.6,137"/>
</g>
<g>
	<path fill="#FFFFFF" d="M213.296,172.078c19.889-10.695,32.696-33.038,33.388-36.384c0.692-3.347-0.632-4.051-3.025-6.41
		c-2.392-2.359-7.033-0.319-7.033-0.319s-20.655,18.102-30.364,25.285c-9.792,7.297-51.398,19.561-56.972,22.759
		s-44.553,17.379-50.874,26.159c0.12,2.714-1.53,9.651,5.282,5.957S180.497,189.545,213.296,172.078z"/>
	<g>
		<path fill="none" stroke="#000000" stroke-width="3" stroke-miterlimit="10" d="M183.518,145.351
			c3.313-0.821,6.018-1.648,8.062-2.169c4.354-1.287,9.368-2.879,15.985-5.228c8.714-3.182,18.304-8.525,21.898-9.491
			c6.314-1.694,12.332-0.103,12.332-0.103c2.97,2.168-20.588,21.128-26.242,25.755c-14.557,11.786-60.936,24.592-94.213,38.996
			c-11.857,5.089-16.955,10.035-16.955,10.035s9.177-3.457,15.689-5.182c14.46-3.978,77.667-19.208,93.724-29.811
			c20.726-13.761,30.735-32.63,30.72-35.968c5.316,7.47,1.992,14.061-0.948,18.568c-2.955,4.409-0.396,6.539-1.625,7.743
			c-0.682,0.815-4.304-0.34-7.247,2.852s-3.941,5.878-7.575,9.178c-3.65,3.201-0.51,6.456-2.808,9.244
			c-2.313,2.689-5.159-1.927-8.651,0.338c-3.477,2.365-5.466,3.889-11.564,6.967c-6,3.062-2.128,7.113-4.46,8.388
			c-2.202,1.457-6.73-4.212-11.325-1.876c-4.595,2.337-22.267,14.912-28.34,18.796c-6.173,3.899-0.817,12.273-2.744,14.193
			c-1.229,1.204-5.662-2.557-9.608-2.549c-2.319,0.058-4.49,1.713-6.697,3.778c-5.91,5.578-0.326,10.88-2.876,12.696
			c-2.551,1.815-4.557-1.313-9.213-2.61c-4.656-1.298-8.451,1.623-13.471-2.654c-24.123-20.323-20.988-43.686-20.988-43.686
			c1.56-2.976,2.572-2.325,7.364-1.453c4.776,0.773,12.927,1.12,18.696-3.424c5.669-4.529,11.445-16.158,10.658-21.197
			c-0.787-5.039-2.361-8.639,4.238-9.163c2.699-0.219,10.655-1.764,19.85-3.807l4.202-0.96
			C161.762,150.568,161.762,150.568,183.518,145.351z"/>
		<path fill="#3F9500" d="M183.518,145.351c3.313-0.821,6.018-1.648,8.062-2.169c4.354-1.287,9.368-2.879,15.985-5.228
			c8.714-3.182,18.304-8.525,21.898-9.491c6.314-1.694,12.332-0.103,12.332-0.103c2.97,2.168-20.588,21.128-26.242,25.755
			c-14.557,11.786-60.936,24.592-94.213,38.996c-11.857,5.089-16.955,10.035-16.955,10.035s9.177-3.457,15.689-5.182
			c14.46-3.978,77.667-19.208,93.724-29.811c20.726-13.761,30.735-32.63,30.72-35.968c5.316,7.47,1.992,14.061-0.948,18.568
			c-2.955,4.409-0.396,6.539-1.625,7.743c-0.682,0.815-4.304-0.34-7.247,2.852s-3.941,5.878-7.575,9.178
			c-3.65,3.201-0.51,6.456-2.808,9.244c-2.313,2.689-5.159-1.927-8.651,0.338c-3.477,2.365-5.466,3.889-11.564,6.967
			c-6,3.062-2.128,7.113-4.46,8.388c-2.202,1.457-6.73-4.212-11.325-1.876c-4.595,2.337-22.267,14.912-28.34,18.796
			c-6.173,3.899-0.817,12.273-2.744,14.193c-1.229,1.204-5.662-2.557-9.608-2.549c-2.319,0.058-4.49,1.713-6.697,3.778
			c-5.91,5.578-0.326,10.88-2.876,12.696c-2.551,1.815-4.557-1.313-9.213-2.61c-4.656-1.298-8.451,1.623-13.471-2.654
			c-24.123-20.323-20.988-43.686-20.988-43.686c1.56-2.976,2.572-2.325,7.364-1.453c4.776,0.773,12.927,1.12,18.696-3.424
			c5.669-4.529,11.445-16.158,10.658-21.197c-0.787-5.039-2.361-8.639,4.238-9.163c2.699-0.219,10.655-1.764,19.85-3.807l4.202-0.96
			C161.762,150.568,161.762,150.568,183.518,145.351z"/>
	</g>
	<g>
		<g>
			<g>
				<path fill="none" stroke="#1D1D1B" stroke-width="3" d="M155.538,165.811c-0.198,0.031-0.395,0.062-0.608-0.006
					c-1.05-0.241-1.812-1.235-1.67-2.27l2.553-14.77c0.241-1.05,1.235-1.812,2.27-1.67c1.05,0.241,1.812,1.235,1.67,2.27
					l-2.553,14.77C157.042,165.07,156.329,165.687,155.538,165.811z"/>
			</g>
			<g>
				<path fill="none" stroke="#1D1D1B" stroke-width="3" d="M164.539,161.875c-0.198,0.031-0.395,0.062-0.608-0.006
					c-1.05-0.241-1.812-1.235-1.67-2.27l1.996-11.85c0.241-1.05,1.235-1.812,2.27-1.67c1.05,0.241,1.812,1.235,1.67,2.27
					l-1.996,11.85C166.043,161.135,165.33,161.752,164.539,161.875z"/>
			</g>
			<g>
				<path fill="none" stroke="#1D1D1B" stroke-width="3" d="M172.098,159.076c-0.198,0.031-0.395,0.062-0.608-0.006
					c-1.05-0.241-1.812-1.235-1.67-2.27l1.891-11.226c0.241-1.05,1.235-1.812,2.27-1.67c1.05,0.241,1.812,1.235,1.67,2.27
					L173.76,157.4C173.602,158.336,172.888,158.953,172.098,159.076z"/>
			</g>
			<g>
				<path fill="none" stroke="#1D1D1B" stroke-width="3" d="M180.58,154.412c-0.198,0.031-0.395,0.062-0.608-0.006
					c-1.05-0.241-1.812-1.235-1.67-2.27l1.539-8.944c0.241-1.05,1.235-1.812,2.27-1.67c1.05,0.241,1.812,1.235,1.67,2.27
					l-1.539,8.944C182.084,153.672,181.371,154.289,180.58,154.412z"/>
			</g>
		</g>
		<g>
			<g>
				<path fill="#FFFF00" d="M155.538,165.811c-0.198,0.031-0.395,0.062-0.608-0.006c-1.05-0.241-1.812-1.235-1.67-2.27l2.553-14.77
					c0.241-1.05,1.235-1.812,2.27-1.67c1.05,0.241,1.812,1.235,1.67,2.27l-2.553,14.77
					C157.042,165.07,156.329,165.687,155.538,165.811z"/>
			</g>
			<g>
				<path fill="#FFFF00" d="M164.539,161.875c-0.198,0.031-0.395,0.062-0.608-0.006c-1.05-0.241-1.812-1.235-1.67-2.27l1.996-11.85
					c0.241-1.05,1.235-1.812,2.27-1.67c1.05,0.241,1.812,1.235,1.67,2.27l-1.996,11.85
					C166.043,161.135,165.33,161.752,164.539,161.875z"/>
			</g>
			<g>
				<path fill="#FFFF00" d="M172.098,159.076c-0.198,0.031-0.395,0.062-0.608-0.006c-1.05-0.241-1.812-1.235-1.67-2.27l1.891-11.226
					c0.241-1.05,1.235-1.812,2.27-1.67c1.05,0.241,1.812,1.235,1.67,2.27L173.76,157.4
					C173.602,158.336,172.888,158.953,172.098,159.076z"/>
			</g>
			<g>
				<path fill="#FFFF00" d="M180.58,154.412c-0.198,0.031-0.395,0.062-0.608-0.006c-1.05-0.241-1.812-1.235-1.67-2.27l1.539-8.944
					c0.241-1.05,1.235-1.812,2.27-1.67c1.05,0.241,1.812,1.235,1.67,2.27l-1.539,8.944
					C182.084,153.672,181.371,154.289,180.58,154.412z"/>
			</g>
		</g>
	</g>
</g>
<g>
	<circle fill="#F0F0F0" cx="191.2" cy="65.1" r="40.3"/>
	<path fill="#D80027" d="M182.4,59.8h48.8c-2.6-19.8-19.5-35.1-40-35.1c-3,0-5.9,0.3-8.8,1V59.8L182.4,59.8z"/>
	<path fill="#D80027" d="M171.9,59.8V29.6c-11.1,6-19,17.1-20.7,30.2L171.9,59.8L171.9,59.8z"/>
	<path fill="#D80027" d="M171.9,70.3h-20.7c1.7,13,9.6,24.1,20.7,30.2V70.3z"/>
	<path fill="#D80027" d="M182.4,70.3v34.1c2.8,0.6,5.8,1,8.8,1c20.5,0,37.4-15.3,40-35.1H182.4L182.4,70.3z"/>
	<ellipse fill="none" stroke="#000000" stroke-width="1.4754" stroke-miterlimit="10" cx="191.6" cy="65.2" rx="40.8" ry="40.6"/>
</g>
<g>
	<path d="M17.613,129.833v-17.187h3.857c1.263,0,2.179,0.373,2.749,1.118s0.854,1.844,0.854,3.296l0.01,7.754
		c0,1.732-0.287,3.001-0.859,3.808c-0.573,0.808-1.52,1.211-2.842,1.211H17.613z M20.23,127.802h0.859
		c0.482,0,0.832-0.156,1.05-0.469s0.327-0.885,0.327-1.719l-0.01-8.486c0-0.892-0.109-1.527-0.327-1.904s-0.594-0.566-1.128-0.566
		H20.23V127.802z"/>
	<path d="M26.558,129.833l2.451-17.187h3.457l2.607,17.187h-2.441l-0.41-3.066h-2.773l-0.371,3.066H26.558z M27.017,111.445v-2.207
		h2.754v2.207H27.017z M31.949,124.667l-1.152-8.633h-0.039l-1.055,8.633H31.949z M31.744,111.445v-2.207h2.754v2.207H31.744z"/>
	<path d="M36.871,129.833v-17.187h2.051l3.643,10.312l-0.186-4.688v-5.625h2.354v17.187h-1.855l-3.74-10.673l0.146,4.512v6.162
		L36.871,129.833L36.871,129.833z"/>
	<path d="M47.408,129.833v-17.187h2.617v17.187H47.408z"/>
	<path d="M52.359,125v-1.533h2.48v1.729c0,0.957,0.082,1.629,0.244,2.017s0.469,0.581,0.918,0.581s0.747-0.16,0.894-0.479
		s0.22-0.84,0.22-1.562s-0.13-1.353-0.391-1.89s-0.674-1.099-1.24-1.685l-1.27-1.309c-0.592-0.619-1.053-1.26-1.382-1.924
		s-0.493-1.432-0.493-2.305c0-1.419,0.273-2.474,0.82-3.164s1.488-1.035,2.822-1.035s2.238,0.402,2.71,1.206
		s0.708,1.978,0.708,3.521v1.064h-2.412v-1.23c0-0.833-0.072-1.431-0.215-1.792s-0.418-0.542-0.825-0.542s-0.7,0.137-0.879,0.41
		s-0.269,0.684-0.269,1.23s0.091,0.983,0.273,1.309s0.511,0.742,0.986,1.25l1.416,1.533c0.709,0.768,1.245,1.546,1.606,2.334
		s0.542,1.647,0.542,2.578c0,1.608-0.27,2.796-0.811,3.564c-0.541,0.769-1.486,1.152-2.837,1.152s-2.292-0.428-2.822-1.284
		C52.624,127.889,52.359,126.64,52.359,125z"/>
	<path d="M67.906,128.832c-0.592,0.798-1.523,1.196-2.793,1.196s-2.218-0.425-2.847-1.274c-0.628-0.849-0.942-2.071-0.942-3.667
		v-7.49c0-2.559,0.67-4.157,2.012-4.795c0.495-0.234,1.094-0.352,1.797-0.352c2.416,0,3.623,1.523,3.623,4.57v2.363h-2.529v-2.197
		c0-0.885-0.075-1.519-0.225-1.899s-0.443-0.571-0.879-0.571s-0.739,0.202-0.908,0.605s-0.254,1.022-0.254,1.855v8.027
		c0,0.924,0.082,1.585,0.244,1.982s0.459,0.596,0.889,0.596s0.726-0.202,0.889-0.605s0.244-1.071,0.244-2.002v-2.461h2.568v2.432
		C68.794,126.806,68.498,128.035,67.906,128.832z"/>
	<path d="M70.923,129.833v-17.187h2.617v6.953h2.344v-6.953h2.617v17.187h-2.617v-7.988H73.54v7.988H70.923z"/>
	<path d="M81.08,129.833v-17.187h5.762v2.256h-3.145v5h2.988v2.207h-2.988v5.469h3.262v2.255H81.08z"/>
	<path d="M92.505,121.757l-0.84-0.039v8.115h-2.617v-17.187h4.326c0.898,0,1.569,0.181,2.012,0.542s0.734,0.866,0.874,1.514
		s0.21,1.494,0.21,2.539s-0.111,1.841-0.332,2.388s-0.631,0.915-1.23,1.104c0.592,0.104,1.006,0.504,1.24,1.201
		s0.352,2.147,0.352,4.351s0.033,3.387,0.098,3.549H93.98c-0.065-0.13-0.098-2.184-0.098-6.162c0-0.762-0.091-1.268-0.273-1.519
		S93.059,121.771,92.505,121.757z M91.675,119.687h1.045c0.332,0,0.578-0.075,0.737-0.225s0.27-0.407,0.332-0.771
		s0.093-0.921,0.093-1.67v-0.107c0-0.931-0.078-1.54-0.234-1.826s-0.518-0.43-1.084-0.43h-0.889V119.687z"/>
	<path d="M17.613,153.833v-17.188h5.898v2.275H20.23v4.57h3.047v2.285H20.23v8.057L17.613,153.833L17.613,153.833z"/>
	<path d="M31.978,152.91c-0.599,0.746-1.561,1.118-2.886,1.118s-2.289-0.374-2.891-1.123c-0.602-0.748-0.903-1.91-0.903-3.486
		v-12.783h2.617v12.734c0,0.905,0.042,1.455,0.127,1.65s0.187,0.373,0.308,0.532c0.121,0.16,0.37,0.239,0.747,0.239
		s0.648-0.11,0.811-0.332c0.163-0.221,0.262-0.496,0.298-0.825c0.036-0.328,0.054-0.75,0.054-1.265v-12.734h2.617v12.783
		C32.876,151.001,32.577,152.165,31.978,152.91z"/>
	<path d="M35.015,148.999v-1.533h2.48v1.729c0,0.957,0.082,1.63,0.244,2.017c0.163,0.388,0.469,0.581,0.918,0.581
		s0.747-0.159,0.894-0.479c0.146-0.318,0.22-0.84,0.22-1.562s-0.13-1.353-0.391-1.89s-0.674-1.099-1.24-1.685l-1.27-1.309
		c-0.592-0.618-1.053-1.26-1.382-1.924s-0.493-1.432-0.493-2.305c0-1.419,0.273-2.474,0.82-3.164
		c0.547-0.689,1.488-1.035,2.822-1.035s2.238,0.402,2.71,1.206c0.472,0.805,0.708,1.978,0.708,3.521v1.064h-2.412v-1.23
		c0-0.833-0.072-1.431-0.215-1.792s-0.418-0.542-0.825-0.542s-0.7,0.137-0.879,0.41s-0.269,0.684-0.269,1.23
		s0.091,0.983,0.273,1.309s0.511,0.742,0.986,1.25l1.416,1.533c0.709,0.769,1.245,1.547,1.606,2.334
		c0.361,0.788,0.542,1.647,0.542,2.578c0,1.608-0.27,2.797-0.811,3.564c-0.541,0.769-1.486,1.152-2.837,1.152
		s-2.292-0.428-2.822-1.284C35.28,151.889,35.015,150.64,35.015,148.999z"/>
	<path d="M43.853,148.999v-1.533h2.48v1.729c0,0.957,0.082,1.63,0.244,2.017c0.163,0.388,0.469,0.581,0.918,0.581
		s0.747-0.159,0.894-0.479c0.146-0.318,0.22-0.84,0.22-1.562s-0.13-1.353-0.391-1.89s-0.674-1.099-1.24-1.685l-1.27-1.309
		c-0.592-0.618-1.053-1.26-1.382-1.924s-0.493-1.432-0.493-2.305c0-1.419,0.273-2.474,0.82-3.164
		c0.547-0.689,1.488-1.035,2.822-1.035s2.238,0.402,2.71,1.206c0.472,0.805,0.708,1.978,0.708,3.521v1.064h-2.412v-1.23
		c0-0.833-0.072-1.431-0.215-1.792s-0.418-0.542-0.825-0.542s-0.7,0.137-0.879,0.41s-0.269,0.684-0.269,1.23
		s0.091,0.983,0.273,1.309s0.511,0.742,0.986,1.25l1.416,1.533c0.709,0.769,1.245,1.547,1.606,2.334
		c0.361,0.788,0.542,1.647,0.542,2.578c0,1.608-0.27,2.797-0.811,3.564c-0.541,0.769-1.486,1.152-2.837,1.152
		s-2.292-0.428-2.822-1.284C44.118,151.889,43.853,150.64,43.853,148.999z"/>
	<path d="M60.386,141.06c0,1.85-0.501,2.985-1.504,3.408c1.224,0.41,1.836,1.762,1.836,4.053v0.439
		c-0.013,1.726-0.314,2.969-0.903,3.73s-1.551,1.143-2.886,1.143H53.13v-17.188h3.721c1.283,0,2.191,0.298,2.725,0.894
		s0.804,1.594,0.811,2.993L60.386,141.06L60.386,141.06z M55.748,143.599h0.967c0.449,0,0.744-0.143,0.884-0.43
		c0.14-0.286,0.21-0.875,0.21-1.768v-1.035c-0.006-0.664-0.098-1.108-0.273-1.333s-0.479-0.337-0.908-0.337h-0.879L55.748,143.599
		L55.748,143.599z M55.748,151.802h0.928c0.521,0,0.885-0.179,1.094-0.537c0.208-0.357,0.312-0.999,0.312-1.924v-1.387
		c0-0.872-0.084-1.489-0.254-1.851s-0.495-0.542-0.977-0.542h-1.104L55.748,151.802L55.748,151.802z"/>
	<path d="M61.978,153.833l2.451-17.188h3.457l2.607,17.188h-2.441l-0.41-3.066h-2.773l-0.371,3.066H61.978z M67.369,148.667
		l-1.152-8.633h-0.039l-1.055,8.633H67.369z"/>
	<path d="M72.291,153.833v-17.188h2.617v14.961h3.311v2.227H72.291z"/>
	<path d="M79.722,153.833v-17.188h2.617v14.961h3.311v2.227H79.722z"/>
	<path d="M87.154,153.833v-17.188h5.762v2.256h-3.145v5h2.988v2.207h-2.988v5.469h3.262v2.256L87.154,153.833L87.154,153.833z"/>
	<path d="M98.58,145.757l-0.84-0.039v8.115h-2.617v-17.188h4.326c0.898,0,1.569,0.181,2.012,0.542s0.734,0.866,0.874,1.514
		c0.14,0.648,0.21,1.494,0.21,2.539s-0.111,1.841-0.332,2.388s-0.631,0.915-1.23,1.104c0.592,0.104,1.006,0.505,1.24,1.201
		c0.234,0.697,0.352,2.147,0.352,4.351s0.033,3.388,0.098,3.55h-2.617c-0.065-0.13-0.098-2.184-0.098-6.162
		c0-0.762-0.091-1.268-0.273-1.519C99.501,145.902,99.133,145.771,98.58,145.757z M97.75,143.687h1.045
		c0.332,0,0.578-0.074,0.737-0.225c0.16-0.149,0.27-0.406,0.332-0.771c0.062-0.364,0.093-0.921,0.093-1.67v-0.107
		c0-0.931-0.078-1.539-0.234-1.826c-0.156-0.286-0.518-0.43-1.084-0.43H97.75V143.687z"/>
	<path d="M17.613,177.833v-17.188h3.857c1.263,0,2.179,0.373,2.749,1.118c0.57,0.746,0.854,1.845,0.854,3.296l0.01,7.754
		c0,1.732-0.287,3.002-0.859,3.809c-0.573,0.808-1.52,1.211-2.842,1.211H17.613z M20.23,175.802h0.859
		c0.482,0,0.832-0.156,1.05-0.469s0.327-0.885,0.327-1.719l-0.01-8.486c0-0.892-0.109-1.526-0.327-1.904
		c-0.218-0.377-0.594-0.566-1.128-0.566H20.23V175.802z"/>
	<path d="M27.437,177.833v-17.188h5.762v2.256h-3.145v5h2.988v2.207h-2.988v5.469h3.262v2.256L27.437,177.833L27.437,177.833z"/>
	<path d="M35.064,172.999v-1.533h2.48v1.729c0,0.957,0.082,1.63,0.244,2.017c0.163,0.388,0.469,0.581,0.918,0.581
		s0.747-0.159,0.894-0.479c0.146-0.318,0.22-0.84,0.22-1.562s-0.13-1.353-0.391-1.89s-0.674-1.099-1.24-1.685l-1.27-1.309
		c-0.592-0.618-1.053-1.26-1.382-1.924s-0.493-1.432-0.493-2.305c0-1.419,0.273-2.474,0.82-3.164
		c0.547-0.689,1.488-1.035,2.822-1.035s2.238,0.402,2.71,1.206c0.472,0.805,0.708,1.978,0.708,3.521v1.064h-2.412v-1.23
		c0-0.833-0.072-1.431-0.215-1.792s-0.418-0.542-0.825-0.542s-0.7,0.137-0.879,0.41s-0.269,0.684-0.269,1.23
		s0.091,0.983,0.273,1.309s0.511,0.742,0.986,1.25l1.416,1.533c0.709,0.769,1.245,1.547,1.606,2.334
		c0.361,0.788,0.542,1.647,0.542,2.578c0,1.608-0.27,2.797-0.811,3.564c-0.541,0.769-1.486,1.152-2.837,1.152
		s-2.292-0.428-2.822-1.284C35.329,175.889,35.064,174.64,35.064,172.999z"/>
	<path d="M53.365,176.881c-0.619,0.766-1.489,1.147-2.612,1.147s-1.996-0.34-2.617-1.021c-0.622-0.68-0.933-1.671-0.933-2.974
		v-3.066h2.529v2.939c0,0.951,0.153,1.53,0.459,1.738c0.137,0.092,0.306,0.137,0.508,0.137c0.397,0,0.659-0.162,0.786-0.488
		c0.127-0.325,0.19-0.84,0.19-1.543v-13.105h2.617v12.979C54.292,175.03,53.983,176.116,53.365,176.881z"/>
	<path d="M55.992,177.833l2.451-17.188H61.9l2.607,17.188h-2.441l-0.41-3.066h-2.773l-0.371,3.066H55.992z M61.382,172.667
		l-1.152-8.633h-0.039l-1.055,8.633H61.382z"/>
	<path d="M66.304,177.833v-17.188h2.617v6.953h2.344v-6.953h2.617v17.188h-2.617v-7.988h-2.344v7.988H66.304z"/>
	<path d="M79.917,169.757l-0.84-0.039v8.115H76.46v-17.188h4.326c0.898,0,1.569,0.181,2.012,0.542s0.734,0.866,0.874,1.514
		c0.14,0.648,0.21,1.494,0.21,2.539s-0.111,1.841-0.332,2.388s-0.631,0.915-1.23,1.104c0.592,0.104,1.006,0.505,1.24,1.201
		c0.234,0.697,0.352,2.147,0.352,4.351s0.033,3.388,0.098,3.55h-2.617c-0.065-0.13-0.098-2.184-0.098-6.162
		c0-0.762-0.091-1.268-0.273-1.519C80.839,169.902,80.471,169.771,79.917,169.757z M79.087,167.687h1.045
		c0.332,0,0.578-0.074,0.737-0.225c0.16-0.149,0.27-0.406,0.332-0.771c0.062-0.364,0.093-0.921,0.093-1.67v-0.107
		c0-0.931-0.078-1.539-0.234-1.826c-0.156-0.286-0.518-0.43-1.084-0.43h-0.889V167.687z"/>
	<path d="M86.324,177.833v-17.188h5.762v2.256h-3.145v5h2.988v2.207h-2.988v5.469h3.262v2.256L86.324,177.833L86.324,177.833z"/>
	<path d="M93.951,172.999v-1.533h2.48v1.729c0,0.957,0.082,1.63,0.244,2.017c0.163,0.388,0.469,0.581,0.918,0.581
		s0.747-0.159,0.894-0.479c0.146-0.318,0.22-0.84,0.22-1.562s-0.13-1.353-0.391-1.89s-0.674-1.099-1.24-1.685l-1.27-1.309
		c-0.592-0.618-1.053-1.26-1.382-1.924s-0.493-1.432-0.493-2.305c0-1.419,0.273-2.474,0.82-3.164
		c0.547-0.689,1.488-1.035,2.822-1.035s2.238,0.402,2.71,1.206c0.472,0.805,0.708,1.978,0.708,3.521v1.064H98.58v-1.23
		c0-0.833-0.072-1.431-0.215-1.792s-0.418-0.542-0.825-0.542s-0.7,0.137-0.879,0.41s-0.269,0.684-0.269,1.23
		s0.091,0.983,0.273,1.309s0.511,0.742,0.986,1.25l1.416,1.533c0.709,0.769,1.245,1.547,1.606,2.334
		c0.361,0.788,0.542,1.647,0.542,2.578c0,1.608-0.27,2.797-0.811,3.564c-0.541,0.769-1.486,1.152-2.837,1.152
		s-2.292-0.428-2.822-1.284C94.216,175.889,93.951,174.64,93.951,172.999z"/>
</g>
</svg>
