<?xml version="1.0" encoding="utf-8"?>
<!-- Generator: Adobe Illustrator 17.0.0, SVG Export Plug-In . SVG Version: 6.00 Build 0)  -->
<!DOCTYPE svg PUBLIC "-//W3C//DTD SVG 1.1//EN" "http://www.w3.org/Graphics/SVG/1.1/DTD/svg11.dtd">
<svg version="1.1" id="Layer_1" xmlns="http://www.w3.org/2000/svg" xmlns:xlink="http://www.w3.org/1999/xlink" x="0px" y="0px"
	 width="256px" height="256px" viewBox="0 0 256 256" enable-background="new 0 0 256 256" xml:space="preserve">
<path fill="#FFFFFF" d="M192.1,10.3c-17.1,0-32.4,8-42.3,20.6h-0.3v0.3c-7.1,9.1-11.4,20.6-11.4,33c0,29.7,24.2,53.9,53.9,53.9
	s54-24.2,54-53.9S221.9,10.3,192.1,10.3z"/>
<path d="M192,10.3c-17.1,0-32.4,8-42.3,20.6h-0.3v0.3c-7.1,9.1-11.4,20.6-11.4,33c0,29.7,24.2,53.9,53.9,53.9s53.9-24.2,53.9-53.9
	S221.7,10.3,192,10.3z M208.6,100.9l-23.1-3L183.7,78l17.6-10.7L217,82.4L208.6,100.9z M171.2,103.3L151.9,89l-2.1-14.7l11.8-7.4
	L181.5,78l1.9,20.2L171.2,103.3z M149.1,72.2L142,57.4l9.3-15.3l9.7,2l-0.2,20.8L149.1,72.2z M188.3,19l21.3,2.9l7.3,13.6l-16.1,7.9
	l-16.5-11.5L188.3,19z M231.4,74.4l-12.6,6.7l-16.9-16.2l0.2-19.7l16-7.9L232.3,50L231.4,74.4z M233.5,74.9l1-24.5l7.1-0.9
	c1.4,4.7,2.1,9.6,2.1,14.7c0,4.6-0.6,9-1.7,13.2L233.5,74.9z M240.9,47.4l-7.1,0.9l-14.6-13.1L212,21.9l6.1-2.4
	C228.7,25.7,236.9,35.6,240.9,47.4z M178.8,14.2l7.4,4.1L182,32.1L162.3,42l-10.5-2.1l-0.2-8.1C158.5,23.4,167.9,17,178.8,14.2z
	 M149.7,40.5l-8.5,14.1c1.4-7.3,4.3-14.1,8.4-20L149.7,40.5z M140.5,59.2l7.1,14.9l2.1,14.8l-2.9,0.4c-4.1-7.4-6.5-16-6.5-25.1
	C140.3,62.5,140.4,60.8,140.5,59.2z M172.4,112.1l-0.2-6.8l12.5-5.3l23.9,3.1l4.4,8.4c-6.4,2.9-13.5,4.5-21,4.5
	C185.1,115.9,178.5,114.5,172.4,112.1z"/>
<g>
	<path fill="#FCFF00" stroke="#000000" stroke-miterlimit="10" d="M181.7,112c-0.3-0.4-0.8-0.5-1.3-0.5h-7.9c0.1,0,0.1-0.8,0.1-0.9
		c1.1,0,0.2-1.1,0.2-1.1H83.2c0,0-0.9,1.1,0.2,1.1c0,0.1,0,0.9,0.1,0.9h-7.9c-0.5,0-1,0.1-1.3,0.5s-0.4,0.8-0.3,1.3l11.3,50.6
		c0.2,0.7,0.8,1.6,1.6,1.6h9.4c0.4,0,0.9-0.5,1.2-0.8c0.3-0.3,0.5-0.9,0.5-1.3c0-0.2,0-17.2,9.1-20.3c0.2,0.9,1.1,1.6,2.1,1.6
		c1.2,0,2.2-1,2.2-2.2c0-0.1,0-0.2,0-0.4c2.8,1.2,6,2.3,9.4,3.2l0.1,2.1c0,0-2.5,0.3-2.5,2.7s3.2,3.4,3.2,3.4h1.9v10.7
		c0,0,1.1,0.9,0.2,1.3c-0.9,0.4-6.4,2.4-6.6,6.1c-0.2,3.7-1.4,31.9-7.3,42.9c-1.5,0-2.3,0-2.3,0v4h-4v25c0,0-1.1,0-2,0
		c-2.4,0-3,11-3,11h59c0,0-0.7-11-3-11c-0.9,0-3,0-3,0v-25h-3v-4c0,0-0.8,0-2.3,0c-5.9-11-7-39.2-7.2-42.9s-6.4-5.7-7.2-6.1
		c-0.9-0.4-0.3-1.3-0.3-1.3v-10.7h2.9c0,0,3.2-1,3.2-3.4s-2.5-2.6-2.5-2.6l0.1-2.1c3.4-0.9,6.5-2,9.4-3.2c0,0.1,0,0.2,0,0.3
		c0,1.2,1,2.2,2.2,2.2c1,0,1.9-0.7,2.1-1.6c9.2,3.1,9.1,20.1,9.1,20.2c0,0.4,0.2,1.2,0.5,1.5s0.7,0.8,1.2,0.8h9.4
		c0.8,0,1.4-0.9,1.6-1.6l11.3-50.4C182.1,113,182,112.4,181.7,112z M107.7,140.8v-0.1c-5.5,1.1-9.5,5.9-11.5,13.3
		c-1,3.5-1.3,6.5-1.4,8.5h-6.5l-10.6-48h6.8c2,6,7.9,18.2,23.6,26C107.9,140.6,107.8,140.7,107.7,140.8z M167.7,162.5h-6.5
		c-0.1-2-0.4-5.3-1.4-8.8c-2-7.3-6-12.2-11.5-13.2l0,0c-0.1,0-0.2,0-0.4-0.1c15.7-7.9,21.6-19.9,23.6-25.9h6.8L167.7,162.5z"/>
	<path fill="#FFFFFF" d="M120.3,110.6l32.7,0.2c0,0-0.2,7.8-11.1,7.8c-1.7,0-9.6-0.2-12.2-0.2C127,118.5,120.5,117.6,120.3,110.6z"
		/>
	<rect x="127" y="145" fill="#FFFFFF" width="4" height="1"/>
	<rect x="126" y="148" fill="#FFFFFF" width="6" height="2"/>
	<rect x="127" y="154" fill="#FFFFFF" width="3" height="9"/>
	<path fill="#ABD100" d="M139.4,212h-10.3l0.5-42h7.2c0,0-0.5,10.2,0.3,21.7C138,203.1,139.4,212,139.4,212z"/>
	<polygon fill="#FFFFFF" points="138.1,218 124.4,218 125.7,216 136.8,216 	"/>
	<path fill="#ABD100" d="M130.9,144h3.9l0.2,0.5c0,0,27.2-6.7,35.2-29.1c0.4-1.7-1.5-4.7-3.3,0c-2.8,7.6-17.3,23.2-35.8,25
		C127.7,141,128.7,144,130.9,144z"/>
	<rect x="131" y="145" fill="#ABD100" width="3" height="1"/>
	<rect x="132" y="148" fill="#ABD100" width="3" height="2"/>
	<rect x="130" y="154" fill="#ABD100" width="1" height="9"/>
	<path fill="#FFFFFF" d="M136.2,212h-10.3l0.5-42h7.2c0,0-0.5,10.2,0.3,21.7C134.7,203.1,136.2,212,136.2,212z"/>
	<rect x="137" y="212" fill="#ABD100" width="5" height="2"/>
	<rect x="138" y="214" fill="#ABD100" width="5" height="4"/>
	<rect x="140" y="218" fill="#ABD100" width="5" height="26"/>
	<path fill="#FF9F00" d="M112.5,212h3.6c0,0,3.6-12.5,3.6-20.5s0-21.6,0-21.6l-1,0.1c0,0-0.1,10.2-1,21.6
		C116.9,203.1,112.5,212,112.5,212z"/>
	<path fill="#FF9F00" d="M125.1,144h-3.9l-0.3,0.5c0,0-27.6-6.2-35.1-29.8c0.2,0.4-0.5-1.4,1.3-1.8c0.5-0.1,1.1,0.1,1.9,1.8
		c2.1,4.6,17.3,23.9,35.8,25.7C128.3,141,127.3,144,125.1,144z"/>
	<rect x="122" y="145" fill="#FF9F00" width="3" height="1"/>
	<rect x="121.3" y="148.4" fill="#FF9F00" width="1.4" height="1.4"/>
	<rect x="124" y="154" fill="#FF9F00" width="1" height="9"/>
	<rect x="111" y="212" fill="#FF9F00" width="4" height="2"/>
	<rect x="109" y="214" fill="#FF9F00" width="4" height="4"/>
	<rect x="108" y="218" fill="#FF9F00" width="2" height="26"/>
	<line fill="none" stroke="#957E78" stroke-miterlimit="10" x1="123" y1="153.5" x2="133" y2="153.5"/>
	<line fill="none" stroke="#957E78" stroke-miterlimit="10" x1="120" y1="145.5" x2="136" y2="145.5"/>
	<line fill="none" stroke="#957E78" stroke-miterlimit="10" x1="123" y1="164.5" x2="132" y2="164.5"/>
	<line fill="none" stroke="#957E78" stroke-miterlimit="10" x1="108" y1="214.5" x2="147" y2="214.5"/>
	<line fill="none" stroke="#957E78" stroke-miterlimit="10" x1="107" y1="218.5" x2="149" y2="218.5"/>
	<line fill="none" stroke="#957E78" stroke-miterlimit="10" x1="103" y1="243.5" x2="151" y2="243.5"/>
</g>
<g>
	<path fill="#F0F0F0" d="M191.6,106.2c22.6,0,41-18.3,41-41c0-22.6-18.3-41-41-41c-22.6,0-41,18.3-41,41
		C150.7,87.9,169,106.2,191.6,106.2"/>
	<path fill="#D80027" d="M232.2,59.9H197l0,0V24.7c-1.7-0.2-3.5-0.3-5.3-0.3s-3.6,0.1-5.3,0.3V60H151c-0.2,1.7-0.3,3.5-0.3,5.3
		s0.1,3.6,0.3,5.3h35.3v35.3c1.7,0.2,3.5,0.3,5.3,0.3s3.6-0.1,5.3-0.3V70.6h35.3c0.2-1.7,0.3-3.5,0.3-5.3
		C232.6,63.5,232.5,61.7,232.2,59.9"/>
</g>
<g>
	<path d="M8.27,206.645v-28.952h9.706v3.8h-5.297v8.422h5.034v3.718h-5.034v9.213h5.494v3.8H8.27V206.645z"/>
	<path d="M21.02,206.645v-28.952h3.455l6.136,17.371l-0.312-7.896v-9.475h3.965v28.952h-3.126l-6.3-17.98l0.247,7.601v10.38H21.02
		V206.645z"/>
	<path d="M43.376,206.94c-1.82,0-3.243-0.716-4.269-2.146c-1.025-1.432-1.538-3.639-1.538-6.621v-12.585
		c0-2.676,0.523-4.716,1.571-6.119c1.047-1.404,2.711-2.105,4.993-2.105c2.84,0,4.645,1.059,5.412,3.175
		c0.461,1.272,0.691,3.01,0.691,5.215v2.056h-4.112v-3.026c0-1.327-0.14-2.26-0.419-2.797c-0.28-0.537-0.806-0.806-1.58-0.806
		c-0.773,0-1.319,0.32-1.637,0.962s-0.477,1.779-0.477,3.413v12.552c0,1.897,0.143,3.219,0.428,3.965s0.842,1.118,1.67,1.118
		s1.415-0.4,1.76-1.2c0.345-0.801,0.518-2.149,0.518-4.047v-3.899h-2.221v-3.207h6.07v15.809h-1.974l-0.674-2.846
		c-0.23,0.976-0.735,1.743-1.513,2.303C45.295,206.661,44.396,206.94,43.376,206.94z"/>
	<path d="M53.708,206.645v-28.952h4.409v25.201h5.577v3.751L53.708,206.645L53.708,206.645z"/>
	<path d="M65.717,206.645v-28.952h4.409v28.952H65.717z"/>
	<path d="M73.383,198.501v-2.582h4.178v2.911c0,1.612,0.137,2.745,0.411,3.397c0.274,0.652,0.79,0.979,1.546,0.979
		c0.757,0,1.259-0.269,1.505-0.806s0.37-1.415,0.37-2.632c0-1.218-0.22-2.278-0.658-3.184c-0.438-0.904-1.135-1.851-2.089-2.838
		l-2.139-2.204c-0.998-1.042-1.774-2.122-2.328-3.24c-0.554-1.119-0.831-2.413-0.831-3.883c0-2.391,0.46-4.167,1.382-5.33
		c0.921-1.162,2.505-1.743,4.754-1.743c2.248,0,3.77,0.677,4.565,2.031c0.795,1.354,1.192,3.331,1.192,5.931v1.793h-4.063v-2.073
		c0-1.403-0.121-2.409-0.362-3.019c-0.241-0.608-0.705-0.913-1.39-0.913c-0.686,0-1.179,0.23-1.48,0.691
		c-0.302,0.461-0.453,1.151-0.453,2.072c0,0.922,0.154,1.656,0.461,2.205c0.307,0.548,0.861,1.25,1.661,2.105L82,190.751
		c1.195,1.295,2.098,2.605,2.706,3.932c0.609,1.327,0.913,2.775,0.913,4.344c0,2.708-0.455,4.71-1.365,6.004
		c-0.911,1.294-2.503,1.941-4.779,1.941s-3.86-0.722-4.754-2.163C73.83,203.368,73.383,201.265,73.383,198.501z"/>
	<path d="M98.898,204.958c-0.998,1.344-2.566,2.016-4.705,2.016s-3.737-0.716-4.795-2.147c-1.059-1.431-1.587-3.489-1.587-6.177
		v-12.617c0-4.31,1.129-7.002,3.389-8.077c0.833-0.395,1.842-0.592,3.027-0.592c4.068,0,6.103,2.565,6.103,7.698v3.981h-4.261
		v-3.702c0-1.491-0.126-2.558-0.378-3.199s-0.746-0.962-1.48-0.962s-1.245,0.34-1.53,1.02c-0.285,0.681-0.428,1.722-0.428,3.126
		v13.521c0,1.558,0.137,2.671,0.411,3.34c0.274,0.669,0.773,1.003,1.497,1.003s1.223-0.34,1.497-1.02
		c0.274-0.68,0.411-1.804,0.411-3.372v-4.146h4.327v4.096C100.395,201.545,99.896,203.615,98.898,204.958z"/>
	<path d="M103.307,206.645v-28.952h4.409v11.712h3.948v-11.712h4.409v28.952h-4.409v-13.456h-3.948v13.456H103.307z"/>
	<path d="M119.742,206.645v-28.952h9.706v3.8h-5.297v8.422h5.033v3.718h-5.033v9.213h5.494v3.8h-9.903V206.645z"/>
	<path d="M138.314,193.04l-1.415-0.065v13.67h-4.408v-28.952h7.287c1.514,0,2.643,0.304,3.389,0.912
		c0.746,0.609,1.236,1.459,1.473,2.55c0.235,1.092,0.354,2.518,0.354,4.277c0,1.761-0.187,3.101-0.56,4.022
		s-1.063,1.541-2.072,1.858c0.998,0.176,1.694,0.851,2.089,2.023c0.395,1.174,0.593,3.616,0.593,7.329
		c0,3.712,0.055,5.705,0.164,5.979H140.8c-0.11-0.22-0.165-3.68-0.165-10.38c0-1.283-0.153-2.136-0.461-2.559
		C139.866,193.284,139.246,193.062,138.314,193.04z M136.916,189.553h1.761c0.559,0,0.973-0.126,1.241-0.379
		c0.269-0.252,0.455-0.685,0.56-1.299s0.156-1.552,0.156-2.813v-0.181c0-1.568-0.132-2.594-0.395-3.076
		c-0.264-0.482-0.872-0.724-1.826-0.724h-1.497V189.553z"/>
	<path d="M153.795,206.645v-28.952h5.479l4.112,21.154l3.865-21.154h5.512v28.952h-3.932v-10.792l0.164-9.902l-3.898,20.562h-3.504
		l-4.063-20.562l0.165,9.902v10.792L153.795,206.645L153.795,206.645z"/>
	<path d="M176.448,206.645v-28.952h9.705v3.8h-5.297v8.422h5.034v3.718h-5.034v9.213h5.494v3.8h-9.902V206.645z"/>
	<path d="M189.362,206.645v-28.952h4.408v28.952H189.362z"/>
	<path d="M197.028,198.501v-2.582h4.179v2.911c0,1.612,0.137,2.745,0.411,3.397s0.79,0.979,1.546,0.979
		c0.757,0,1.259-0.269,1.506-0.806c0.246-0.537,0.37-1.415,0.37-2.632c0-1.218-0.22-2.278-0.658-3.184
		c-0.438-0.904-1.135-1.851-2.089-2.838l-2.139-2.204c-0.998-1.042-1.774-2.122-2.328-3.24c-0.554-1.119-0.83-2.413-0.83-3.883
		c0-2.391,0.46-4.167,1.382-5.33c0.921-1.162,2.505-1.743,4.754-1.743c2.248,0,3.77,0.677,4.564,2.031s1.192,3.331,1.192,5.931
		v1.793h-4.062v-2.073c0-1.403-0.121-2.409-0.362-3.019c-0.241-0.608-0.705-0.913-1.39-0.913c-0.686,0-1.18,0.23-1.48,0.691
		c-0.302,0.461-0.453,1.151-0.453,2.072c0,0.922,0.154,1.656,0.461,2.205c0.307,0.548,0.861,1.25,1.661,2.105l2.386,2.582
		c1.195,1.295,2.098,2.605,2.706,3.932c0.608,1.327,0.913,2.775,0.913,4.344c0,2.708-0.455,4.71-1.365,6.004
		c-0.911,1.294-2.504,1.941-4.779,1.941s-3.86-0.722-4.754-2.163C197.476,203.368,197.028,201.265,197.028,198.501z"/>
	<path d="M213.298,206.645v-25.136h-3.389v-3.816h11.038v3.816h-3.257v25.136H213.298z"/>
	<path d="M222.709,206.645v-28.952h9.705v3.8h-5.297v8.422h5.034v3.718h-5.034v9.213h5.494v3.8h-9.902V206.645z"/>
	<path d="M241.281,193.04l-1.414-0.065v13.67h-4.409v-28.952h7.288c1.513,0,2.643,0.304,3.389,0.912
		c0.745,0.609,1.236,1.459,1.472,2.55c0.236,1.092,0.354,2.518,0.354,4.277c0,1.761-0.187,3.101-0.559,4.022
		c-0.373,0.921-1.064,1.541-2.073,1.858c0.998,0.176,1.694,0.851,2.09,2.023c0.395,1.174,0.592,3.616,0.592,7.329
		c0,3.712,0.055,5.705,0.164,5.979h-4.408c-0.109-0.22-0.164-3.68-0.164-10.38c0-1.283-0.154-2.136-0.461-2.559
		C242.833,193.284,242.214,193.062,241.281,193.04z M239.884,189.553h1.76c0.56,0,0.973-0.126,1.242-0.379
		c0.269-0.252,0.455-0.685,0.56-1.299c0.104-0.614,0.156-1.552,0.156-2.813v-0.181c0-1.568-0.132-2.594-0.396-3.076
		c-0.263-0.482-0.871-0.724-1.826-0.724h-1.496V189.553z"/>
	<path d="M42.64,238.504c-1.066,0-1.933-0.087-2.598-0.26c-0.666-0.174-1.229-0.49-1.688-0.95c-0.46-0.461-0.784-1.085-0.971-1.873
		s-0.28-1.807-0.28-3.056v-14.506c0-1.249,0.093-2.268,0.28-3.056s0.51-1.413,0.971-1.873c0.46-0.46,1.023-0.777,1.688-0.95
		s1.531-0.26,2.598-0.26v2.734c-0.812,0-1.331,0.212-1.559,0.636c-0.228,0.424-0.342,1.328-0.342,2.714v14.615
		c0,1.386,0.114,2.29,0.342,2.714c0.228,0.424,0.747,0.636,1.559,0.636V238.504z"/>
	<path d="M45.606,236.645v-24.062h5.523c1.868,0,3.146,0.567,3.835,1.702c0.688,1.135,1.05,2.828,1.087,5.079v0.506
		c0,2.388-0.34,4.199-1.019,5.435c-0.679,1.235-1.939,1.853-3.78,1.853H49.27v9.488L45.606,236.645L45.606,236.645z M49.271,224.135
		h1.258c0.774,0,1.278-0.299,1.511-0.896s0.349-1.734,0.349-3.411v-0.465c-0.009-1.422-0.135-2.438-0.376-3.049
		c-0.242-0.61-0.727-0.916-1.456-0.916h-1.285L49.271,224.135L49.271,224.135z"/>
	<path d="M63.353,225.338l-1.176-0.055v11.361h-3.664v-24.062h6.057c1.258,0,2.196,0.253,2.816,0.759s1.027,1.212,1.224,2.119
		c0.196,0.907,0.294,2.092,0.294,3.555s-0.155,2.577-0.465,3.343s-0.884,1.28-1.723,1.545c0.829,0.146,1.408,0.706,1.736,1.682
		s0.492,3.006,0.492,6.091s0.045,4.742,0.137,4.97h-3.664c-0.091-0.183-0.137-3.058-0.137-8.627c0-1.066-0.128-1.775-0.383-2.126
		C64.642,225.541,64.127,225.356,63.353,225.338z M62.19,222.439h1.463c0.465,0,0.809-0.104,1.032-0.314
		c0.223-0.21,0.378-0.569,0.465-1.08c0.086-0.511,0.13-1.29,0.13-2.338v-0.15c0-1.304-0.109-2.155-0.328-2.557
		s-0.725-0.602-1.518-0.602H62.19V222.439z"/>
	<path d="M72.321,236.645v-24.062h8.066v3.158h-4.402v7h4.184v3.09h-4.184v7.656h4.566v3.158L72.321,236.645L72.321,236.645z"/>
	<path d="M83.478,236.645v-24.062h4.553l3.418,17.582l3.213-17.582h4.58v24.062h-3.268v-8.969l0.137-8.23l-3.24,17.09h-2.912
		l-3.377-17.09l0.137,8.23v8.969H83.478z"/>
	<path d="M103.001,236.645v-24.062h3.664v24.062H103.001z"/>
	<path d="M110.411,236.645v-24.062h8.066v3.158h-4.402v7h4.184v3.09h-4.184v7.656h4.566v3.158L110.411,236.645L110.411,236.645z"/>
	<path d="M126.407,225.338l-1.176-0.055v11.361h-3.664v-24.062h6.057c1.258,0,2.196,0.253,2.816,0.759
		c0.619,0.506,1.027,1.212,1.224,2.119c0.195,0.907,0.294,2.092,0.294,3.555s-0.155,2.577-0.465,3.343
		c-0.311,0.766-0.885,1.28-1.723,1.545c0.829,0.146,1.408,0.706,1.736,1.682s0.492,3.006,0.492,6.091s0.045,4.742,0.137,4.97h-3.664
		c-0.091-0.183-0.137-3.058-0.137-8.627c0-1.066-0.128-1.775-0.383-2.126C127.697,225.541,127.182,225.356,126.407,225.338z
		 M125.245,222.439h1.463c0.465,0,0.809-0.104,1.032-0.314c0.223-0.21,0.378-0.569,0.465-1.08c0.086-0.511,0.13-1.29,0.13-2.338
		v-0.15c0-1.304-0.109-2.155-0.328-2.557s-0.725-0.602-1.518-0.602h-1.244V222.439z"/>
	<path d="M140.394,236.645v-24.062h3.664v20.945h4.635v3.117L140.394,236.645L140.394,236.645z"/>
	<path d="M150.798,236.645v-24.062h8.066v3.158h-4.402v7h4.184v3.09h-4.184v7.656h4.566v3.158L150.798,236.645L150.798,236.645z"/>
	<path d="M160.86,236.645l3.432-24.062h4.84l3.65,24.062h-3.418l-0.574-4.293h-3.883l-0.52,4.293H160.86z M168.407,229.412
		l-1.613-12.086h-0.055l-1.477,12.086H168.407z"/>
	<path d="M179.755,236.891c-1.514,0-2.696-0.595-3.548-1.784c-0.853-1.189-1.278-3.023-1.278-5.503v-10.459
		c0-2.224,0.435-3.919,1.306-5.086c0.87-1.167,2.253-1.75,4.149-1.75c2.36,0,3.859,0.88,4.498,2.639
		c0.383,1.058,0.574,2.502,0.574,4.334v1.709h-3.418v-2.516c0-1.103-0.116-1.878-0.349-2.324s-0.67-0.67-1.312-0.67
		s-1.097,0.267-1.36,0.8c-0.265,0.533-0.396,1.479-0.396,2.837v10.432c0,1.577,0.118,2.675,0.355,3.295
		c0.236,0.62,0.699,0.93,1.388,0.93c0.688,0,1.176-0.333,1.463-0.998s0.431-1.786,0.431-3.363v-3.24h-1.846v-2.666h5.045v13.139
		h-1.641l-0.561-2.365c-0.191,0.812-0.611,1.449-1.258,1.914C181.35,236.658,180.603,236.891,179.755,236.891z"/>
	<path d="M198.116,235.353c-0.839,1.044-2.186,1.565-4.04,1.565c-1.855,0-3.204-0.524-4.047-1.572
		c-0.844-1.048-1.265-2.675-1.265-4.881v-17.896h3.664v17.828c0,1.267,0.059,2.037,0.178,2.311c0.118,0.273,0.262,0.521,0.431,0.745
		c0.168,0.224,0.517,0.335,1.046,0.335c0.528,0,0.906-0.155,1.135-0.465c0.228-0.31,0.366-0.695,0.417-1.155
		c0.05-0.46,0.075-1.051,0.075-1.771v-17.828h3.664v17.896C199.374,232.68,198.954,234.309,198.116,235.353z"/>
	<path d="M202.847,236.645v-24.062h8.066v3.158h-4.402v7h4.184v3.09h-4.184v7.656h4.566v3.158L202.847,236.645L202.847,236.645z"/>
	<path d="M213.374,238.504v-2.734c0.811,0,1.33-0.212,1.559-0.636c0.228-0.424,0.342-1.328,0.342-2.714v-14.615
		c0-1.386-0.114-2.29-0.342-2.714c-0.229-0.424-0.748-0.636-1.559-0.636v-2.734c1.066,0,1.932,0.087,2.598,0.26
		c0.665,0.173,1.226,0.49,1.682,0.95c0.455,0.46,0.776,1.085,0.964,1.873c0.187,0.788,0.28,1.807,0.28,3.056v14.506
		c0,1.249-0.094,2.268-0.28,3.056c-0.188,0.788-0.509,1.412-0.964,1.873c-0.456,0.46-1.017,0.776-1.682,0.95
		C215.306,238.417,214.44,238.504,213.374,238.504z"/>
</g>
<g>
	<g>
		<ellipse fill="none" stroke="#000000" stroke-miterlimit="10" cx="191.6" cy="65.2" rx="40.8" ry="40.6"/>
	</g>
</g>
</svg>
