<?xml version="1.0" encoding="utf-8"?>
<!-- Generator: Adobe Illustrator 17.0.0, SVG Export Plug-In . SVG Version: 6.00 Build 0)  -->
<!DOCTYPE svg PUBLIC "-//W3C//DTD SVG 1.1//EN" "http://www.w3.org/Graphics/SVG/1.1/DTD/svg11.dtd">
<svg version="1.1" id="Layer_1" xmlns="http://www.w3.org/2000/svg" xmlns:xlink="http://www.w3.org/1999/xlink" x="0px" y="0px"
	 width="256px" height="256px" viewBox="0 0 256 256" enable-background="new 0 0 256 256" xml:space="preserve">
	<polygon fill="#FFFF00" points="128,188.6 53.1,243.2 82,155.1 6.8,100.8 99.5,101 128,12.8 156.5,101 249.2,100.8 174,155.1 
	202.9,243.2 "/>
	<path fill="#FFFFFF" d="M192,10.3c-17.1,0-32.4,8-42.3,20.6h-0.3v0.3c-7.1,9.1-11.4,20.6-11.4,33c0,29.7,24.2,53.9,53.9,53.9
	s53.9-24.2,53.9-53.9S221.7,10.3,192,10.3z"/>
	<path d="M192,10.3c-17.1,0-32.4,8-42.3,20.6h-0.3v0.3c-7.1,9.1-11.4,20.6-11.4,33c0,29.7,24.2,53.9,53.9,53.9s53.9-24.2,53.9-53.9
	S221.7,10.3,192,10.3z M208.6,100.9l-23.1-3L183.7,78l17.6-10.7L217,82.4L208.6,100.9z M171.2,103.3L151.9,89l-2.1-14.7l11.8-7.4
	L181.5,78l1.9,20.2L171.2,103.3z M149.1,72.2L142,57.4l9.3-15.3l9.7,2l-0.2,20.8L149.1,72.2z M188.3,19l21.3,2.9l7.3,13.6l-16.1,7.9
	l-16.5-11.5L188.3,19z M231.4,74.4l-12.6,6.7l-16.9-16.2l0.2-19.7l16-7.9L232.3,50L231.4,74.4z M233.5,74.9l1-24.5l7.1-0.9
	c1.4,4.7,2.1,9.6,2.1,14.7c0,4.6-0.6,9-1.7,13.2L233.5,74.9z M240.9,47.4l-7.1,0.9l-14.6-13.1L212,21.9l6.1-2.4
	C228.7,25.7,236.9,35.6,240.9,47.4z M178.8,14.2l7.4,4.1L182,32.1L162.3,42l-10.5-2.1l-0.2-8.1C158.5,23.4,167.9,17,178.8,14.2z
	 M149.7,40.5l-8.5,14.1c1.4-7.3,4.3-14.1,8.4-20L149.7,40.5z M140.5,59.2l7.1,14.9l2.1,14.8l-2.9,0.4c-4.1-7.4-6.5-16-6.5-25.1
	C140.3,62.5,140.4,60.8,140.5,59.2z M172.4,112.1l-0.2-6.8l12.5-5.3l23.9,3.1l4.4,8.4c-6.4,2.9-13.5,4.5-21,4.5
	C185.1,115.9,178.5,114.5,172.4,112.1z"/>
	<g>
		<path fill="none" stroke="#000000" stroke-width="3" stroke-miterlimit="10" d="M157.6,137"/>
		<path fill="#FF0000" d="M157.6,137"/>
	</g>
	<g>
		<path fill="#FFFFFF" d="M212.125,170.581c20.246-10.003,33.817-31.89,34.624-35.211s-0.492-4.07-2.802-6.511
		c-2.31-2.44-7.018-0.562-7.018-0.562s-21.268,17.379-31.218,24.222c-10.038,6.955-52.043,17.775-57.723,20.779
		c-5.681,3.004-45.126,15.831-51.747,24.388c0.026,2.716-1.862,9.593,5.073,6.135C108.249,200.365,178.743,186.906,212.125,170.581z
		"/>
		<g>
			<path fill="none" stroke="#000000" stroke-width="3" stroke-miterlimit="10" d="M183.287,142.842
			c3.339-0.706,6.071-1.439,8.132-1.89c4.395-1.136,9.462-2.554,16.156-4.673c8.818-2.879,18.588-7.888,22.213-8.729
			c6.369-1.475,12.328,0.323,12.328,0.323c2.893,2.269-21.305,20.405-27.115,24.834c-14.955,11.277-61.749,22.474-95.503,35.722
			c-12.026,4.677-17.291,9.444-17.291,9.444s9.291-3.138,15.858-4.637c14.588-3.476,78.284-16.516,94.697-26.559
			c21.188-13.038,31.843-31.55,31.943-34.887c5.055,7.649,1.506,14.121-1.588,18.525c-3.106,4.304-0.622,6.522-1.892,7.683
			c-0.71,0.791-4.29-0.489-7.341,2.6c-3.051,3.089-4.141,5.739-7.887,8.911c-3.758,3.073-0.733,6.434-3.125,9.141
			c-2.404,2.607-5.089-2.104-8.658,0.04c-3.556,2.243-5.597,3.699-11.797,6.564c-6.102,2.853-2.373,7.036-4.747,8.229
			c-2.251,1.38-6.581-4.442-11.253-2.266c-4.673,2.177-22.768,14.135-28.972,17.806c-6.303,3.683-1.24,12.237-3.232,14.09
			c-1.27,1.161-5.571-2.751-9.514-2.879c-2.319-0.022-4.546,1.557-6.824,3.545c-6.099,5.371-0.701,10.863-3.313,12.589
			s-4.509-1.469-9.117-2.927s-8.502,1.33-13.371-3.118c-23.407-21.143-19.468-44.384-19.468-44.384
			c1.661-2.921,2.651-2.234,7.41-1.198c4.747,0.937,12.881,1.565,18.803-2.777c5.822-4.33,11.996-15.754,11.384-20.817
			s-2.061-8.716,4.551-9.011c2.704-0.126,10.71-1.396,19.97-3.12l4.233-0.814C161.364,147.306,161.364,147.306,183.287,142.842z"/>
			<path fill="#0095EB" d="M183.287,142.842c3.339-0.706,6.071-1.439,8.132-1.89c4.395-1.136,9.462-2.554,16.156-4.673
			c8.818-2.879,18.588-7.888,22.213-8.729c6.369-1.475,12.328,0.323,12.328,0.323c2.893,2.269-21.305,20.405-27.115,24.834
			c-14.955,11.277-61.749,22.474-95.503,35.722c-12.026,4.677-17.291,9.444-17.291,9.444s9.291-3.138,15.858-4.637
			c14.588-3.476,78.284-16.516,94.697-26.559c21.188-13.038,31.843-31.55,31.943-34.887c5.055,7.649,1.506,14.121-1.588,18.525
			c-3.106,4.304-0.622,6.522-1.892,7.683c-0.71,0.791-4.29-0.489-7.341,2.6c-3.051,3.089-4.141,5.739-7.887,8.911
			c-3.758,3.073-0.733,6.434-3.125,9.141c-2.404,2.607-5.089-2.104-8.658,0.04c-3.556,2.243-5.597,3.699-11.797,6.564
			c-6.102,2.853-2.373,7.036-4.747,8.229c-2.251,1.38-6.581-4.442-11.253-2.266c-4.673,2.177-22.768,14.135-28.972,17.806
			c-6.303,3.683-1.24,12.237-3.232,14.09c-1.27,1.161-5.571-2.751-9.514-2.879c-2.319-0.022-4.546,1.557-6.824,3.545
			c-6.099,5.371-0.701,10.863-3.313,12.589s-4.509-1.469-9.117-2.927s-8.502,1.33-13.371-3.118
			c-23.407-21.143-19.468-44.384-19.468-44.384c1.661-2.921,2.651-2.234,7.41-1.198c4.747,0.937,12.881,1.565,18.803-2.777
			c5.822-4.33,11.996-15.754,11.384-20.817s-2.061-8.716,4.551-9.011c2.704-0.126,10.71-1.396,19.97-3.12l4.233-0.814
			C161.364,147.306,161.364,147.306,183.287,142.842z"/>
		</g>
		<g>
			<g>
				<g>
					<path fill="none" stroke="#1D1D1B" stroke-width="3" d="M154.618,162.325c-0.199,0.024-0.397,0.048-0.608-0.027
					c-1.041-0.277-1.768-1.297-1.591-2.326l3.061-14.673c0.277-1.041,1.297-1.768,2.326-1.591c1.041,0.277,1.768,1.297,1.591,2.326
					l-3.061,14.673C156.147,161.636,155.412,162.228,154.618,162.325z"/>
				</g>
				<g>
					<path fill="none" stroke="#1D1D1B" stroke-width="3" d="M163.749,158.702c-0.199,0.024-0.397,0.048-0.608-0.027
					c-1.041-0.277-1.768-1.297-1.591-2.326l2.404-11.774c0.277-1.041,1.297-1.768,2.326-1.591c1.041,0.277,1.768,1.297,1.591,2.326
					l-2.404,11.774C165.278,158.014,164.544,158.606,163.749,158.702z"/>
				</g>
				<g>
					<path fill="none" stroke="#1D1D1B" stroke-width="3" d="M171.4,156.166c-0.199,0.024-0.397,0.048-0.608-0.027
					c-1.041-0.277-1.768-1.297-1.591-2.326l2.278-11.154c0.277-1.041,1.297-1.768,2.326-1.591c1.041,0.277,1.768,1.297,1.591,2.326
					l-2.278,11.154C172.929,155.477,172.194,156.07,171.4,156.166z"/>
				</g>
				<g>
					<path fill="none" stroke="#1D1D1B" stroke-width="3" d="M180.038,151.797c-0.199,0.024-0.397,0.048-0.608-0.027
					c-1.041-0.277-1.768-1.297-1.591-2.326l1.847-8.886c0.277-1.041,1.297-1.768,2.326-1.591c1.041,0.277,1.768,1.297,1.591,2.326
					l-1.847,8.886C181.567,151.109,180.833,151.701,180.038,151.797z"/>
				</g>
			</g>
			<g>
				<g>
					<path fill="#FFFF00" d="M154.618,162.325c-0.199,0.024-0.397,0.048-0.608-0.027c-1.041-0.277-1.768-1.297-1.591-2.326
					l3.061-14.673c0.277-1.041,1.297-1.768,2.326-1.591c1.041,0.277,1.768,1.297,1.591,2.326l-3.061,14.673
					C156.147,161.636,155.412,162.228,154.618,162.325z"/>
				</g>
				<g>
					<path fill="#FFFF00" d="M163.749,158.702c-0.199,0.024-0.397,0.048-0.608-0.027c-1.041-0.277-1.768-1.297-1.591-2.326
					l2.404-11.774c0.277-1.041,1.297-1.768,2.326-1.591c1.041,0.277,1.768,1.297,1.591,2.326l-2.404,11.774
					C165.278,158.014,164.544,158.606,163.749,158.702z"/>
				</g>
				<g>
					<path fill="#FFFF00" d="M171.4,156.166c-0.199,0.024-0.397,0.048-0.608-0.027c-1.041-0.277-1.768-1.297-1.591-2.326
					l2.278-11.154c0.277-1.041,1.297-1.768,2.326-1.591c1.041,0.277,1.768,1.297,1.591,2.326l-2.278,11.154
					C172.929,155.477,172.194,156.07,171.4,156.166z"/>
				</g>
				<g>
					<path fill="#FFFF00" d="M180.038,151.797c-0.199,0.024-0.397,0.048-0.608-0.027c-1.041-0.277-1.768-1.297-1.591-2.326
					l1.847-8.886c0.277-1.041,1.297-1.768,2.326-1.591c1.041,0.277,1.768,1.297,1.591,2.326l-1.847,8.886
					C181.567,151.109,180.833,151.701,180.038,151.797z"/>
				</g>
			</g>
		</g>
	</g>
	<g>
		<g>
			<path d="M151.2,63.9c0,5,0.9,9.7,2.5,14.1l38.4,1.8l38.4-1.8c1.6-4.4,2.5-9.2,2.5-14.1s-0.9-9.7-2.5-14.1L192.2,48l-38.4,1.8
			C152.1,54.2,151.2,58.9,151.2,63.9z"/>
			<path fill="#0052B4" d="M192.2,23.3c-17.6,0-32.6,11-38.4,26.5h76.8C224.8,34.3,209.8,23.3,192.2,23.3z"/>
			<path fill="#F0F0F0" d="M230.6,78h-76.8c5.8,15.5,20.8,26.5,38.4,26.5S224.8,93.5,230.6,78z"/>
		</g>
		<ellipse fill="none" stroke="#020200" stroke-width="1.484" stroke-miterlimit="10" cx="192.1" cy="64" rx="41.3" ry="40.6"/>
	</g>
	<g>
		<path d="M21.623,126.833v-17.188h5.762v2.256H24.24v5h2.988v2.207H24.24v5.469h3.262v2.256H21.623z"/>
		<path d="M29.25,122v-1.533h2.48v1.729c0,0.957,0.082,1.629,0.244,2.017s0.469,0.581,0.918,0.581s0.747-0.16,0.894-0.479
		s0.22-0.84,0.22-1.562s-0.13-1.353-0.391-1.89s-0.674-1.099-1.24-1.685l-1.27-1.309c-0.592-0.619-1.053-1.26-1.382-1.924
		s-0.493-1.432-0.493-2.305c0-1.419,0.273-2.474,0.82-3.164s1.488-1.035,2.822-1.035c1.334,0,2.238,0.402,2.71,1.206
		s0.708,1.978,0.708,3.521v1.064h-2.412v-1.23c0-0.833-0.072-1.431-0.215-1.792s-0.418-0.542-0.825-0.542s-0.7,0.137-0.879,0.41
		s-0.269,0.684-0.269,1.23s0.091,0.983,0.273,1.309s0.511,0.742,0.986,1.25l1.416,1.533c0.709,0.768,1.245,1.546,1.606,2.334
		s0.542,1.647,0.542,2.578c0,1.608-0.27,2.796-0.811,3.564s-1.486,1.152-2.837,1.152s-2.292-0.428-2.822-1.284
		S29.25,123.64,29.25,122z"/>
		<path d="M39.308,126.833v-14.922h-2.012v-2.266h6.553v2.266h-1.934v14.922H39.308z"/>
		<path d="M45.294,126.833v-17.188h2.051l3.643,10.312l-0.186-4.688v-5.625h2.354v17.188H51.3l-3.74-10.674l0.146,4.512v6.162
		L45.294,126.833L45.294,126.833z"/>
		<path d="M55.832,126.833v-17.188h2.617v17.188C58.449,126.833,55.832,126.833,55.832,126.833z"/>
		<path d="M60.783,122v-1.533h2.48v1.729c0,0.957,0.082,1.629,0.244,2.017s0.469,0.581,0.918,0.581c0.449,0,0.747-0.16,0.894-0.479
		s0.22-0.84,0.22-1.562s-0.13-1.353-0.391-1.89s-0.674-1.099-1.24-1.685l-1.27-1.309c-0.592-0.619-1.053-1.26-1.382-1.924
		s-0.493-1.432-0.493-2.305c0-1.419,0.273-2.474,0.82-3.164s1.488-1.035,2.822-1.035s2.238,0.402,2.71,1.206
		s0.708,1.978,0.708,3.521v1.064h-2.412v-1.23c0-0.833-0.072-1.431-0.215-1.792s-0.418-0.542-0.825-0.542s-0.7,0.137-0.879,0.41
		s-0.269,0.684-0.269,1.23s0.091,0.983,0.273,1.309s0.511,0.742,0.986,1.25L65.9,117.4c0.709,0.768,1.245,1.546,1.606,2.334
		s0.542,1.647,0.542,2.578c0,1.608-0.27,2.796-0.811,3.564s-1.486,1.152-2.837,1.152s-2.292-0.428-2.822-1.284
		S60.783,123.64,60.783,122z"/>
		<path d="M76.33,125.833c-0.592,0.797-1.523,1.196-2.793,1.196s-2.218-0.425-2.847-1.274s-0.942-2.072-0.942-3.667v-7.49
		c0-2.559,0.67-4.157,2.012-4.795c0.495-0.234,1.094-0.352,1.797-0.352c2.416,0,3.623,1.523,3.623,4.57v2.363h-2.53v-2.197
		c0-0.885-0.075-1.519-0.225-1.899s-0.443-0.571-0.879-0.571s-0.739,0.202-0.908,0.605s-0.254,1.022-0.254,1.855v8.027
		c0,0.924,0.082,1.585,0.244,1.982s0.459,0.596,0.889,0.596s0.726-0.202,0.889-0.605s0.244-1.071,0.244-2.002v-2.461h2.568v2.432
		C77.218,123.806,76.922,125.035,76.33,125.833z"/>
		<path d="M79.347,126.833v-17.188h2.617v6.953h2.344v-6.953h2.617v17.188h-2.617v-7.988h-2.344v7.988
		C81.964,126.833,79.347,126.833,79.347,126.833z"/>
		<path d="M89.503,126.833v-17.188h5.762v2.256H92.12v5h2.988v2.207H92.12v5.469h3.262v2.256H89.503z"/>
		<path d="M100.929,118.757l-0.84-0.039v8.115h-2.617v-17.188h4.326c0.898,0,1.569,0.181,2.012,0.542s0.734,0.866,0.874,1.514
		s0.21,1.494,0.21,2.539s-0.111,1.841-0.332,2.388s-0.631,0.915-1.23,1.104c0.592,0.104,1.006,0.504,1.24,1.201
		s0.352,2.147,0.352,4.351s0.033,3.387,0.098,3.55h-2.617c-0.065-0.13-0.098-2.184-0.098-6.162c0-0.762-0.091-1.268-0.273-1.519
		S101.482,118.771,100.929,118.757z M100.099,116.687h1.045c0.332,0,0.578-0.075,0.737-0.225s0.27-0.407,0.332-0.771
		s0.093-0.921,0.093-1.67v-0.107c0-0.931-0.078-1.54-0.234-1.826s-0.518-0.43-1.084-0.43h-0.889V116.687z"/>
		<path d="M21.613,150.833v-17.188h5.898v2.275H24.23v4.57h3.047v2.285H24.23v8.057L21.613,150.833L21.613,150.833z"/>
		<path d="M35.978,149.91c-0.599,0.746-1.561,1.118-2.886,1.118s-2.289-0.374-2.891-1.123c-0.602-0.748-0.903-1.91-0.903-3.486
		v-12.783h2.617v12.734c0,0.905,0.042,1.455,0.127,1.65c0.085,0.195,0.187,0.373,0.308,0.532c0.121,0.16,0.37,0.239,0.747,0.239
		s0.648-0.11,0.811-0.332c0.163-0.221,0.262-0.496,0.298-0.825c0.036-0.328,0.054-0.75,0.054-1.265v-12.734h2.617v12.783
		C36.876,148.001,36.577,149.165,35.978,149.91z"/>
		<path d="M39.015,145.999v-1.533h2.48v1.729c0,0.957,0.082,1.63,0.244,2.017c0.163,0.388,0.469,0.581,0.918,0.581
		s0.747-0.159,0.894-0.479c0.146-0.318,0.22-0.84,0.22-1.562s-0.13-1.353-0.391-1.89s-0.674-1.099-1.24-1.685l-1.27-1.309
		c-0.592-0.618-1.053-1.26-1.382-1.924s-0.493-1.432-0.493-2.305c0-1.419,0.273-2.474,0.82-3.164
		c0.547-0.689,1.488-1.035,2.822-1.035s2.238,0.402,2.71,1.206c0.472,0.805,0.708,1.978,0.708,3.521v1.064h-2.412v-1.23
		c0-0.833-0.072-1.431-0.215-1.792s-0.418-0.542-0.825-0.542s-0.7,0.137-0.879,0.41s-0.269,0.684-0.269,1.23
		s0.091,0.983,0.273,1.309s0.511,0.742,0.986,1.25l1.416,1.533c0.709,0.769,1.245,1.547,1.606,2.334
		c0.361,0.788,0.542,1.647,0.542,2.578c0,1.608-0.27,2.797-0.811,3.564c-0.541,0.769-1.486,1.152-2.837,1.152
		s-2.292-0.428-2.822-1.284C39.28,148.889,39.015,147.64,39.015,145.999z"/>
		<path d="M47.853,145.999v-1.533h2.48v1.729c0,0.957,0.082,1.63,0.244,2.017c0.163,0.388,0.469,0.581,0.918,0.581
		s0.747-0.159,0.894-0.479c0.146-0.318,0.22-0.84,0.22-1.562s-0.13-1.353-0.391-1.89s-0.674-1.099-1.24-1.685l-1.27-1.309
		c-0.592-0.618-1.053-1.26-1.382-1.924s-0.493-1.432-0.493-2.305c0-1.419,0.273-2.474,0.82-3.164
		c0.547-0.689,1.488-1.035,2.822-1.035s2.238,0.402,2.71,1.206c0.472,0.805,0.708,1.978,0.708,3.521v1.064h-2.412v-1.23
		c0-0.833-0.072-1.431-0.215-1.792s-0.418-0.542-0.825-0.542s-0.7,0.137-0.879,0.41s-0.269,0.684-0.269,1.23
		s0.091,0.983,0.273,1.309s0.511,0.742,0.986,1.25l1.416,1.533c0.709,0.769,1.245,1.547,1.606,2.334
		c0.361,0.788,0.542,1.647,0.542,2.578c0,1.608-0.27,2.797-0.811,3.564c-0.541,0.769-1.486,1.152-2.837,1.152
		s-2.292-0.428-2.822-1.284C48.118,148.889,47.853,147.64,47.853,145.999z"/>
		<path d="M64.386,138.06c0,1.85-0.501,2.985-1.504,3.408c1.224,0.41,1.836,1.762,1.836,4.053v0.439
		c-0.013,1.726-0.314,2.969-0.903,3.73s-1.551,1.143-2.886,1.143H57.13v-17.188h3.721c1.283,0,2.191,0.298,2.725,0.894
		s0.804,1.594,0.811,2.993L64.386,138.06L64.386,138.06z M59.748,140.599h0.967c0.449,0,0.744-0.143,0.884-0.43
		c0.14-0.286,0.21-0.875,0.21-1.768v-1.035c-0.006-0.664-0.098-1.108-0.273-1.333s-0.479-0.337-0.908-0.337h-0.879L59.748,140.599
		L59.748,140.599z M59.748,148.802h0.928c0.521,0,0.885-0.179,1.094-0.537c0.208-0.357,0.312-0.999,0.312-1.924v-1.387
		c0-0.872-0.084-1.489-0.254-1.851s-0.495-0.542-0.977-0.542h-1.104L59.748,148.802L59.748,148.802z"/>
		<path d="M65.978,150.833l2.451-17.188h3.457l2.607,17.188h-2.441l-0.41-3.066h-2.773l-0.371,3.066H65.978z M71.369,145.667
		l-1.152-8.633h-0.039l-1.055,8.633H71.369z"/>
		<path d="M76.291,150.833v-17.188h2.617v14.961h3.311v2.227H76.291z"/>
		<path d="M83.722,150.833v-17.188h2.617v14.961h3.311v2.227H83.722z"/>
		<path d="M91.154,150.833v-17.188h5.762v2.256h-3.145v5h2.988v2.207h-2.988v5.469h3.262v2.256L91.154,150.833L91.154,150.833z"/>
		<path d="M102.58,142.757l-0.84-0.039v8.115h-2.617v-17.188h4.326c0.898,0,1.569,0.181,2.012,0.542s0.734,0.866,0.874,1.514
		c0.14,0.648,0.21,1.494,0.21,2.539s-0.111,1.841-0.332,2.388s-0.631,0.915-1.23,1.104c0.592,0.104,1.006,0.505,1.24,1.201
		c0.234,0.697,0.352,2.147,0.352,4.351s0.033,3.388,0.098,3.55h-2.617c-0.065-0.13-0.098-2.184-0.098-6.162
		c0-0.762-0.091-1.268-0.273-1.519C103.501,142.902,103.133,142.771,102.58,142.757z M101.75,140.687h1.045
		c0.332,0,0.578-0.074,0.737-0.225c0.16-0.149,0.27-0.406,0.332-0.771c0.062-0.364,0.093-0.921,0.093-1.67v-0.107
		c0-0.931-0.078-1.539-0.234-1.826c-0.156-0.286-0.518-0.43-1.084-0.43h-0.889V140.687z"/>
		<path d="M21.613,174.833v-17.188h3.857c1.263,0,2.179,0.373,2.749,1.118c0.57,0.746,0.854,1.845,0.854,3.296l0.01,7.754
		c0,1.732-0.287,3.002-0.859,3.809c-0.573,0.808-1.52,1.211-2.842,1.211H21.613z M24.23,172.802h0.859
		c0.482,0,0.832-0.156,1.05-0.469s0.327-0.885,0.327-1.719l-0.01-8.486c0-0.892-0.109-1.526-0.327-1.904
		c-0.218-0.377-0.594-0.566-1.128-0.566H24.23V172.802z"/>
		<path d="M31.437,174.833v-17.188h5.762v2.256h-3.145v5h2.988v2.207h-2.988v5.469h3.262v2.256L31.437,174.833L31.437,174.833z"/>
		<path d="M39.064,169.999v-1.533h2.48v1.729c0,0.957,0.082,1.63,0.244,2.017c0.163,0.388,0.469,0.581,0.918,0.581
		s0.747-0.159,0.894-0.479c0.146-0.318,0.22-0.84,0.22-1.562s-0.13-1.353-0.391-1.89s-0.674-1.099-1.24-1.685l-1.27-1.309
		c-0.592-0.618-1.053-1.26-1.382-1.924s-0.493-1.432-0.493-2.305c0-1.419,0.273-2.474,0.82-3.164
		c0.547-0.689,1.488-1.035,2.822-1.035s2.238,0.402,2.71,1.206c0.472,0.805,0.708,1.978,0.708,3.521v1.064h-2.412v-1.23
		c0-0.833-0.072-1.431-0.215-1.792s-0.418-0.542-0.825-0.542s-0.7,0.137-0.879,0.41s-0.269,0.684-0.269,1.23
		s0.091,0.983,0.273,1.309s0.511,0.742,0.986,1.25l1.416,1.533c0.709,0.769,1.245,1.547,1.606,2.334
		c0.361,0.788,0.542,1.647,0.542,2.578c0,1.608-0.27,2.797-0.811,3.564c-0.541,0.769-1.486,1.152-2.837,1.152
		s-2.292-0.428-2.822-1.284C39.329,172.889,39.064,171.64,39.064,169.999z"/>
		<path d="M57.365,173.881c-0.619,0.766-1.489,1.147-2.612,1.147s-1.996-0.34-2.617-1.021c-0.622-0.68-0.933-1.671-0.933-2.974
		v-3.066h2.529v2.939c0,0.951,0.153,1.53,0.459,1.738c0.137,0.092,0.306,0.137,0.508,0.137c0.397,0,0.659-0.162,0.786-0.488
		c0.127-0.325,0.19-0.84,0.19-1.543v-13.105h2.617v12.979C58.292,172.03,57.983,173.116,57.365,173.881z"/>
		<path d="M59.992,174.833l2.451-17.188H65.9l2.607,17.188h-2.441l-0.41-3.066h-2.773l-0.371,3.066H59.992z M65.382,169.667
		l-1.152-8.633h-0.039l-1.055,8.633H65.382z"/>
		<path d="M70.304,174.833v-17.188h2.617v6.953h2.344v-6.953h2.617v17.188h-2.617v-7.988h-2.344v7.988H70.304z"/>
		<path d="M83.917,166.757l-0.84-0.039v8.115H80.46v-17.188h4.326c0.898,0,1.569,0.181,2.012,0.542s0.734,0.866,0.874,1.514
		c0.14,0.648,0.21,1.494,0.21,2.539s-0.111,1.841-0.332,2.388s-0.631,0.915-1.23,1.104c0.592,0.104,1.006,0.505,1.24,1.201
		c0.234,0.697,0.352,2.147,0.352,4.351s0.033,3.388,0.098,3.55h-2.617c-0.065-0.13-0.098-2.184-0.098-6.162
		c0-0.762-0.091-1.268-0.273-1.519C84.839,166.902,84.471,166.771,83.917,166.757z M83.087,164.687h1.045
		c0.332,0,0.578-0.074,0.737-0.225c0.16-0.149,0.27-0.406,0.332-0.771c0.062-0.364,0.093-0.921,0.093-1.67v-0.107
		c0-0.931-0.078-1.539-0.234-1.826c-0.156-0.286-0.518-0.43-1.084-0.43h-0.889V164.687z"/>
		<path d="M90.324,174.833v-17.188h5.762v2.256h-3.145v5h2.988v2.207h-2.988v5.469h3.262v2.256L90.324,174.833L90.324,174.833z"/>
		<path d="M97.951,169.999v-1.533h2.48v1.729c0,0.957,0.082,1.63,0.244,2.017c0.163,0.388,0.469,0.581,0.918,0.581
		s0.747-0.159,0.894-0.479c0.146-0.318,0.22-0.84,0.22-1.562s-0.13-1.353-0.391-1.89s-0.674-1.099-1.24-1.685l-1.27-1.309
		c-0.592-0.618-1.053-1.26-1.382-1.924s-0.493-1.432-0.493-2.305c0-1.419,0.273-2.474,0.82-3.164
		c0.547-0.689,1.488-1.035,2.822-1.035s2.238,0.402,2.71,1.206c0.472,0.805,0.708,1.978,0.708,3.521v1.064h-2.412v-1.23
		c0-0.833-0.072-1.431-0.215-1.792s-0.418-0.542-0.825-0.542s-0.7,0.137-0.879,0.41s-0.269,0.684-0.269,1.23
		s0.091,0.983,0.273,1.309s0.511,0.742,0.986,1.25l1.416,1.533c0.709,0.769,1.245,1.547,1.606,2.334
		c0.361,0.788,0.542,1.647,0.542,2.578c0,1.608-0.27,2.797-0.811,3.564c-0.541,0.769-1.486,1.152-2.837,1.152
		s-2.292-0.428-2.822-1.284C98.216,172.889,97.951,171.64,97.951,169.999z"/>
	</g>
</svg>