<?xml version="1.0" encoding="utf-8"?>
<!-- Generator: Adobe Illustrator 17.0.0, SVG Export Plug-In . SVG Version: 6.00 Build 0)  -->
<!DOCTYPE svg PUBLIC "-//W3C//DTD SVG 1.1//EN" "http://www.w3.org/Graphics/SVG/1.1/DTD/svg11.dtd">
<svg version="1.1" id="Layer_1" xmlns="http://www.w3.org/2000/svg" xmlns:xlink="http://www.w3.org/1999/xlink" x="0px" y="0px"
	 width="256px" height="256px" viewBox="0 0 256 256" enable-background="new 0 0 256 256" xml:space="preserve">
<polygon fill="#FFFF00" points="128,188.6 53.1,243.2 82,155.1 6.8,100.8 99.5,101 128,12.8 156.5,101 249.2,100.8 174,155.1 
	202.9,243.2 "/>
<path fill="#FFFFFF" d="M192,10.3c-17.1,0-32.4,8-42.3,20.6h-0.3v0.3c-7.1,9.1-11.4,20.6-11.4,33c0,29.7,24.2,53.9,53.9,53.9
	s53.9-24.2,53.9-53.9S221.7,10.3,192,10.3z"/>
<path d="M192,10.3c-17.1,0-32.4,8-42.3,20.6h-0.3v0.3c-7.1,9.1-11.4,20.6-11.4,33c0,29.7,24.2,53.9,53.9,53.9s53.9-24.2,53.9-53.9
	S221.7,10.3,192,10.3z M208.6,100.9l-23.1-3L183.7,78l17.6-10.7L217,82.4L208.6,100.9z M171.2,103.3L151.9,89l-2.1-14.7l11.8-7.4
	L181.5,78l1.9,20.2L171.2,103.3z M149.1,72.2L142,57.4l9.3-15.3l9.7,2l-0.2,20.8L149.1,72.2z M188.3,19l21.3,2.9l7.3,13.6l-16.1,7.9
	l-16.5-11.5L188.3,19z M231.4,74.4l-12.6,6.7l-16.9-16.2l0.2-19.7l16-7.9L232.3,50L231.4,74.4z M233.5,74.9l1-24.5l7.1-0.9
	c1.4,4.7,2.1,9.6,2.1,14.7c0,4.6-0.6,9-1.7,13.2L233.5,74.9z M240.9,47.4l-7.1,0.9l-14.6-13.1L212,21.9l6.1-2.4
	C228.7,25.7,236.9,35.6,240.9,47.4z M178.8,14.2l7.4,4.1L182,32.1L162.3,42l-10.5-2.1l-0.2-8.1C158.5,23.4,167.9,17,178.8,14.2z
	 M149.7,40.5l-8.5,14.1c1.4-7.3,4.3-14.1,8.4-20L149.7,40.5z M140.5,59.2l7.1,14.9l2.1,14.8l-2.9,0.4c-4.1-7.4-6.5-16-6.5-25.1
	C140.3,62.5,140.4,60.8,140.5,59.2z M172.4,112.1l-0.2-6.8l12.5-5.3l23.9,3.1l4.4,8.4c-6.4,2.9-13.5,4.5-21,4.5
	C185.1,115.9,178.5,114.5,172.4,112.1z"/>
<g>
	<path fill="none" stroke="#000000" stroke-width="3" stroke-miterlimit="10" d="M157.6,137"/>
	<path fill="#FF0000" d="M157.6,137"/>
</g>
<g>
	<path fill="#FFFFFF" d="M213.659,171.542c19.91-10.656,32.762-32.973,33.461-36.318s-0.624-4.052-3.012-6.416
		s-7.033-0.333-7.033-0.333s-20.691,18.061-30.414,25.225c-9.806,7.278-51.437,19.458-57.017,22.645s-44.587,17.29-50.926,26.058
		c0.115,2.714-1.549,9.648,5.27,5.967S180.826,188.944,213.659,171.542z"/>
	<g>
		<path fill="none" stroke="#000000" stroke-width="3" stroke-miterlimit="10" d="M183.934,144.756
			c3.315-0.814,6.021-1.636,8.066-2.153c4.356-1.278,9.374-2.861,15.995-5.196c8.72-3.165,18.321-8.488,21.917-9.447
			c6.318-1.681,12.332-0.078,12.332-0.078c2.966,2.174-20.63,21.087-26.293,25.703c-14.58,11.757-60.985,24.471-94.291,38.809
			c-11.867,5.066-16.975,10.001-16.975,10.001s9.184-3.438,15.699-5.15c14.467-3.949,77.705-19.053,93.783-29.624
			c20.753-13.72,30.8-32.569,30.792-35.907c5.301,7.48,1.964,14.065-0.985,18.566c-2.964,4.403-0.409,6.539-1.641,7.74
			c-0.684,0.814-4.303-0.349-7.253,2.837c-2.949,3.186-3.952,5.87-7.593,9.163c-3.656,3.194-0.523,6.455-2.826,9.238
			c-2.318,2.684-5.155-1.938-8.652,0.321c-3.482,2.358-5.473,3.879-11.578,6.944c-6.006,3.05-2.143,7.109-4.476,8.379
			c-2.205,1.453-6.722-4.226-11.321-1.898c-4.599,2.327-22.296,14.868-28.378,18.739c-6.18,3.886-0.841,12.271-2.772,14.187
			c-1.231,1.202-5.657-2.569-9.603-2.568c-2.319,0.054-4.493,1.704-6.705,3.765c-5.922,5.566-0.348,10.88-2.902,12.69
			s-4.554-1.322-9.208-2.629c-4.653-1.307-8.454,1.606-13.465-2.681C91.519,214.136,94.7,190.78,94.7,190.78
			c1.566-2.973,2.577-2.319,7.367-1.438c4.775,0.782,12.925,1.145,18.702-3.387c5.678-4.517,11.477-16.136,10.701-21.176
			c-0.777-5.041-2.343-8.644,4.256-9.155c2.699-0.213,10.659-1.743,19.858-3.767l4.204-0.951
			C162.168,149.93,162.168,149.93,183.934,144.756z"/>
		<path fill="#00A566" d="M183.934,144.756c3.315-0.814,6.021-1.636,8.066-2.153c4.356-1.278,9.374-2.861,15.995-5.196
			c8.72-3.165,18.321-8.488,21.917-9.447c6.318-1.681,12.332-0.078,12.332-0.078c2.966,2.174-20.63,21.087-26.293,25.703
			c-14.58,11.757-60.985,24.471-94.291,38.809c-11.867,5.066-16.975,10.001-16.975,10.001s9.184-3.438,15.699-5.15
			c14.467-3.949,77.705-19.053,93.783-29.624c20.753-13.72,30.8-32.569,30.792-35.907c5.301,7.48,1.964,14.065-0.985,18.566
			c-2.964,4.403-0.409,6.539-1.641,7.74c-0.684,0.814-4.303-0.349-7.253,2.837c-2.949,3.186-3.952,5.87-7.593,9.163
			c-3.656,3.194-0.523,6.455-2.826,9.238c-2.318,2.684-5.155-1.938-8.652,0.321c-3.482,2.358-5.473,3.879-11.578,6.944
			c-6.006,3.05-2.143,7.109-4.476,8.379c-2.205,1.453-6.722-4.226-11.321-1.898c-4.599,2.327-22.296,14.868-28.378,18.739
			c-6.18,3.886-0.841,12.271-2.772,14.187c-1.231,1.202-5.657-2.569-9.603-2.568c-2.319,0.054-4.493,1.704-6.705,3.765
			c-5.922,5.566-0.348,10.88-2.902,12.69s-4.554-1.322-9.208-2.629c-4.653-1.307-8.454,1.606-13.465-2.681
			C91.519,214.136,94.7,190.78,94.7,190.78c1.566-2.973,2.577-2.319,7.367-1.438c4.775,0.782,12.925,1.145,18.702-3.387
			c5.678-4.517,11.477-16.136,10.701-21.176c-0.777-5.041-2.343-8.644,4.256-9.155c2.699-0.213,10.659-1.743,19.858-3.767
			l4.204-0.951C162.168,149.93,162.168,149.93,183.934,144.756z"/>
	</g>
	<g>
		<g>
			<g>
				<path fill="none" stroke="#1D1D1B" stroke-width="3" d="M155.914,165.16c-0.198,0.03-0.395,0.061-0.608-0.007
					c-1.049-0.243-1.81-1.239-1.665-2.273l2.582-14.765c0.243-1.049,1.239-1.81,2.273-1.665c1.049,0.243,1.81,1.239,1.665,2.273
					l-2.582,14.765C157.419,164.422,156.705,165.038,155.914,165.16z"/>
			</g>
			<g>
				<path fill="none" stroke="#1D1D1B" stroke-width="3" d="M164.923,161.242c-0.198,0.03-0.395,0.061-0.608-0.007
					c-1.049-0.243-1.81-1.239-1.665-2.273l2.02-11.846c0.243-1.049,1.239-1.81,2.273-1.665c1.049,0.243,1.81,1.239,1.665,2.273
					l-2.02,11.846C166.428,160.505,165.713,161.121,164.923,161.242z"/>
			</g>
			<g>
				<path fill="none" stroke="#1D1D1B" stroke-width="3" d="M172.487,158.458c-0.198,0.03-0.395,0.061-0.608-0.007
					c-1.049-0.243-1.81-1.239-1.665-2.273l1.914-11.222c0.243-1.049,1.239-1.81,2.273-1.665c1.049,0.243,1.81,1.239,1.665,2.273
					l-1.914,11.222C173.992,157.721,173.277,158.336,172.487,158.458z"/>
			</g>
			<g>
				<path fill="none" stroke="#1D1D1B" stroke-width="3" d="M180.978,153.811c-0.198,0.03-0.395,0.061-0.608-0.007
					c-1.049-0.243-1.81-1.239-1.665-2.273l1.557-8.941c0.243-1.049,1.239-1.81,2.273-1.665c1.049,0.243,1.81,1.239,1.665,2.273
					l-1.557,8.941C182.483,153.073,181.769,153.689,180.978,153.811z"/>
			</g>
		</g>
		<g>
			<g>
				<path fill="#FFFF00" d="M155.914,165.16c-0.198,0.03-0.395,0.061-0.608-0.007c-1.049-0.243-1.81-1.239-1.665-2.273l2.582-14.765
					c0.243-1.049,1.239-1.81,2.273-1.665c1.049,0.243,1.81,1.239,1.665,2.273l-2.582,14.765
					C157.419,164.422,156.705,165.038,155.914,165.16z"/>
			</g>
			<g>
				<path fill="#FFFF00" d="M164.923,161.242c-0.198,0.03-0.395,0.061-0.608-0.007c-1.049-0.243-1.81-1.239-1.665-2.273l2.02-11.846
					c0.243-1.049,1.239-1.81,2.273-1.665c1.049,0.243,1.81,1.239,1.665,2.273l-2.02,11.846
					C166.428,160.505,165.713,161.121,164.923,161.242z"/>
			</g>
			<g>
				<path fill="#FFFF00" d="M172.487,158.458c-0.198,0.03-0.395,0.061-0.608-0.007c-1.049-0.243-1.81-1.239-1.665-2.273
					l1.914-11.222c0.243-1.049,1.239-1.81,2.273-1.665c1.049,0.243,1.81,1.239,1.665,2.273l-1.914,11.222
					C173.992,157.721,173.277,158.336,172.487,158.458z"/>
			</g>
			<g>
				<path fill="#FFFF00" d="M180.978,153.811c-0.198,0.03-0.395,0.061-0.608-0.007c-1.049-0.243-1.81-1.239-1.665-2.273l1.557-8.941
					c0.243-1.049,1.239-1.81,2.273-1.665c1.049,0.243,1.81,1.239,1.665,2.273l-1.557,8.941
					C182.483,153.073,181.769,153.689,180.978,153.811z"/>
			</g>
		</g>
	</g>
</g>
<g>
	<g>
		<circle fill="#F0F0F0" cx="191.1" cy="65.1" r="41"/>
		<path fill="#0052B4" d="M231.7,59.8h-49.5l0,0V25.2c-3.8,0.8-7.4,2.2-10.7,4v30.6l0,0h-21c-0.2,1.7-0.3,3.5-0.3,5.3
			s0.1,3.6,0.3,5.3h21l0,0V101c3.3,1.8,6.9,3.2,10.7,4V70.5l0,0h49.5c0.2-1.7,0.3-3.5,0.3-5.3C232.1,63.3,232,61.5,231.7,59.8z"/>
	</g>
	<ellipse fill="none" stroke="#020200" stroke-width="1.4754" stroke-miterlimit="10" cx="191.6" cy="65.2" rx="40.8" ry="40.6"/>
</g>
<g>
	<path d="M18.613,126.833v-17.188h5.898v2.275H21.23v4.57h3.047v2.285H21.23v8.057L18.613,126.833L18.613,126.833z"/>
	<path d="M26.494,126.833v-17.188h2.617v17.188C29.111,126.833,26.494,126.833,26.494,126.833z"/>
	<path d="M31.787,126.833v-17.188h2.051l3.643,10.312l-0.186-4.688v-5.625h2.354v17.188h-1.855l-3.74-10.674l0.146,4.512v6.162
		L31.787,126.833L31.787,126.833z"/>
	<path d="M42.226,126.833v-17.188h2.051l3.643,10.312l-0.186-4.688v-5.625h2.354v17.188h-1.855l-3.74-10.674l0.146,4.512v6.162
		L42.226,126.833L42.226,126.833z"/>
	<path d="M52.763,126.833v-17.188h2.617v17.188C55.38,126.833,52.763,126.833,52.763,126.833z"/>
	<path d="M57.714,122v-1.533h2.48v1.729c0,0.957,0.082,1.629,0.244,2.017s0.469,0.581,0.918,0.581s0.747-0.16,0.894-0.479
		s0.22-0.84,0.22-1.562s-0.13-1.353-0.391-1.89s-0.674-1.099-1.24-1.685l-1.27-1.309c-0.592-0.619-1.053-1.26-1.382-1.924
		s-0.493-1.432-0.493-2.305c0-1.419,0.273-2.474,0.82-3.164s1.488-1.035,2.822-1.035s2.238,0.402,2.71,1.206
		s0.708,1.978,0.708,3.521v1.064h-2.412v-1.23c0-0.833-0.072-1.431-0.215-1.792s-0.418-0.542-0.825-0.542s-0.7,0.137-0.879,0.41
		s-0.269,0.684-0.269,1.23s0.091,0.983,0.273,1.309s0.511,0.742,0.986,1.25l1.416,1.533c0.709,0.768,1.245,1.546,1.606,2.334
		s0.542,1.647,0.542,2.578c0,1.608-0.27,2.796-0.811,3.564s-1.486,1.152-2.837,1.152s-2.292-0.428-2.822-1.284
		S57.714,123.64,57.714,122z"/>
	<path d="M73.261,125.833c-0.592,0.797-1.523,1.196-2.793,1.196s-2.218-0.425-2.847-1.274s-0.942-2.072-0.942-3.667v-7.49
		c0-2.559,0.67-4.157,2.012-4.795c0.495-0.234,1.094-0.352,1.797-0.352c2.416,0,3.623,1.523,3.623,4.57v2.363h-2.529v-2.197
		c0-0.885-0.075-1.519-0.225-1.899s-0.443-0.571-0.879-0.571s-0.739,0.202-0.908,0.605s-0.254,1.022-0.254,1.855v8.027
		c0,0.924,0.082,1.585,0.244,1.982s0.459,0.596,0.889,0.596s0.726-0.202,0.889-0.605s0.244-1.071,0.244-2.002v-2.461h2.568v2.432
		C74.15,123.806,73.854,125.035,73.261,125.833z"/>
	<path d="M76.279,126.833v-17.188h2.617v6.953h2.344v-6.953h2.617v17.188H81.24v-7.988h-2.344v7.988
		C78.896,126.833,76.279,126.833,76.279,126.833z"/>
	<path d="M86.435,126.833v-17.188h5.762v2.256h-3.145v5h2.988v2.207h-2.988v5.469h3.262v2.256H86.435z"/>
	<path d="M97.861,118.757l-0.84-0.039v8.115h-2.617v-17.188h4.326c0.898,0,1.569,0.181,2.012,0.542s0.734,0.866,0.874,1.514
		s0.21,1.494,0.21,2.539s-0.111,1.841-0.332,2.388s-0.631,0.915-1.23,1.104c0.592,0.104,1.006,0.504,1.24,1.201
		s0.352,2.147,0.352,4.351s0.033,3.387,0.098,3.55h-2.617c-0.065-0.13-0.098-2.184-0.098-6.162c0-0.762-0.091-1.268-0.273-1.519
		S98.414,118.771,97.861,118.757z M97.031,116.687h1.045c0.332,0,0.578-0.075,0.737-0.225s0.27-0.407,0.332-0.771
		s0.093-0.921,0.093-1.67v-0.107c0-0.931-0.078-1.54-0.234-1.826s-0.518-0.43-1.084-0.43h-0.889V116.687z"/>
	<path d="M18.613,150.833v-17.188h5.898v2.275H21.23v4.57h3.047v2.285H21.23v8.057L18.613,150.833L18.613,150.833z"/>
	<path d="M32.978,149.91c-0.599,0.746-1.561,1.118-2.886,1.118s-2.289-0.374-2.891-1.123c-0.602-0.748-0.903-1.91-0.903-3.486
		v-12.783h2.617v12.734c0,0.905,0.042,1.455,0.127,1.65s0.187,0.373,0.308,0.532c0.121,0.16,0.37,0.239,0.747,0.239
		s0.648-0.11,0.811-0.332c0.163-0.221,0.262-0.496,0.298-0.825c0.036-0.328,0.054-0.75,0.054-1.265v-12.734h2.617v12.783
		C33.876,148.001,33.577,149.165,32.978,149.91z"/>
	<path d="M36.015,145.999v-1.533h2.48v1.729c0,0.957,0.082,1.63,0.244,2.017c0.163,0.388,0.469,0.581,0.918,0.581
		s0.747-0.159,0.894-0.479c0.146-0.318,0.22-0.84,0.22-1.562s-0.13-1.353-0.391-1.89s-0.674-1.099-1.24-1.685l-1.27-1.309
		c-0.592-0.618-1.053-1.26-1.382-1.924s-0.493-1.432-0.493-2.305c0-1.419,0.273-2.474,0.82-3.164
		c0.547-0.689,1.488-1.035,2.822-1.035s2.238,0.402,2.71,1.206c0.472,0.805,0.708,1.978,0.708,3.521v1.064h-2.412v-1.23
		c0-0.833-0.072-1.431-0.215-1.792s-0.418-0.542-0.825-0.542s-0.7,0.137-0.879,0.41s-0.269,0.684-0.269,1.23
		s0.091,0.983,0.273,1.309s0.511,0.742,0.986,1.25l1.416,1.533c0.709,0.769,1.245,1.547,1.606,2.334
		c0.361,0.788,0.542,1.647,0.542,2.578c0,1.608-0.27,2.797-0.811,3.564c-0.541,0.769-1.486,1.152-2.837,1.152
		s-2.292-0.428-2.822-1.284C36.28,148.889,36.015,147.64,36.015,145.999z"/>
	<path d="M44.853,145.999v-1.533h2.48v1.729c0,0.957,0.082,1.63,0.244,2.017c0.163,0.388,0.469,0.581,0.918,0.581
		s0.747-0.159,0.894-0.479c0.146-0.318,0.22-0.84,0.22-1.562s-0.13-1.353-0.391-1.89s-0.674-1.099-1.24-1.685l-1.27-1.309
		c-0.592-0.618-1.053-1.26-1.382-1.924s-0.493-1.432-0.493-2.305c0-1.419,0.273-2.474,0.82-3.164
		c0.547-0.689,1.488-1.035,2.822-1.035s2.238,0.402,2.71,1.206c0.472,0.805,0.708,1.978,0.708,3.521v1.064h-2.412v-1.23
		c0-0.833-0.072-1.431-0.215-1.792s-0.418-0.542-0.825-0.542s-0.7,0.137-0.879,0.41s-0.269,0.684-0.269,1.23
		s0.091,0.983,0.273,1.309s0.511,0.742,0.986,1.25l1.416,1.533c0.709,0.769,1.245,1.547,1.606,2.334
		c0.361,0.788,0.542,1.647,0.542,2.578c0,1.608-0.27,2.797-0.811,3.564c-0.541,0.769-1.486,1.152-2.837,1.152
		s-2.292-0.428-2.822-1.284C45.118,148.889,44.853,147.64,44.853,145.999z"/>
	<path d="M61.386,138.06c0,1.85-0.501,2.985-1.504,3.408c1.224,0.41,1.836,1.762,1.836,4.053v0.439
		c-0.013,1.726-0.314,2.969-0.903,3.73s-1.551,1.143-2.886,1.143H54.13v-17.188h3.721c1.283,0,2.191,0.298,2.725,0.894
		s0.804,1.594,0.811,2.993L61.386,138.06L61.386,138.06z M56.748,140.599h0.967c0.449,0,0.744-0.143,0.884-0.43
		c0.14-0.286,0.21-0.875,0.21-1.768v-1.035c-0.006-0.664-0.098-1.108-0.273-1.333s-0.479-0.337-0.908-0.337h-0.879L56.748,140.599
		L56.748,140.599z M56.748,148.802h0.928c0.521,0,0.885-0.179,1.094-0.537c0.208-0.357,0.312-0.999,0.312-1.924v-1.387
		c0-0.872-0.084-1.489-0.254-1.851s-0.495-0.542-0.977-0.542h-1.104L56.748,148.802L56.748,148.802z"/>
	<path d="M62.978,150.833l2.451-17.188h3.457l2.607,17.188h-2.441l-0.41-3.066h-2.773l-0.371,3.066H62.978z M68.369,145.667
		l-1.152-8.633h-0.039l-1.055,8.633H68.369z"/>
	<path d="M73.291,150.833v-17.188h2.617v14.961h3.311v2.227H73.291z"/>
	<path d="M80.722,150.833v-17.188h2.617v14.961h3.311v2.227H80.722z"/>
	<path d="M88.154,150.833v-17.188h5.762v2.256h-3.145v5h2.988v2.207h-2.988v5.469h3.262v2.256L88.154,150.833L88.154,150.833z"/>
	<path d="M99.58,142.757l-0.84-0.039v8.115h-2.617v-17.188h4.326c0.898,0,1.569,0.181,2.012,0.542s0.734,0.866,0.874,1.514
		c0.14,0.648,0.21,1.494,0.21,2.539s-0.111,1.841-0.332,2.388s-0.631,0.915-1.23,1.104c0.592,0.104,1.006,0.505,1.24,1.201
		c0.234,0.697,0.352,2.147,0.352,4.351s0.033,3.388,0.098,3.55h-2.617c-0.065-0.13-0.098-2.184-0.098-6.162
		c0-0.762-0.091-1.268-0.273-1.519C100.501,142.902,100.133,142.771,99.58,142.757z M98.75,140.687h1.045
		c0.332,0,0.578-0.074,0.737-0.225c0.16-0.149,0.27-0.406,0.332-0.771c0.062-0.364,0.093-0.921,0.093-1.67v-0.107
		c0-0.931-0.078-1.539-0.234-1.826c-0.156-0.286-0.518-0.43-1.084-0.43H98.75V140.687z"/>
	<path d="M109.56,150.833v-17.188h3.857c1.263,0,2.179,0.373,2.749,1.118c0.57,0.746,0.854,1.845,0.854,3.296l0.01,7.754
		c0,1.732-0.287,3.002-0.859,3.809c-0.573,0.808-1.52,1.211-2.842,1.211H109.56z M112.177,148.802h0.859
		c0.482,0,0.832-0.156,1.05-0.469s0.327-0.885,0.327-1.719l-0.01-8.486c0-0.892-0.109-1.526-0.327-1.904
		c-0.218-0.377-0.594-0.566-1.128-0.566h-0.771V148.802z"/>
	<path d="M119.384,150.833v-17.188h5.762v2.256h-3.145v5h2.988v2.207h-2.988v5.469h3.262v2.256L119.384,150.833L119.384,150.833z"/>
	<path d="M127.011,145.999v-1.533h2.48v1.729c0,0.957,0.082,1.63,0.244,2.017c0.163,0.388,0.469,0.581,0.918,0.581
		s0.747-0.159,0.894-0.479c0.146-0.318,0.22-0.84,0.22-1.562s-0.13-1.353-0.391-1.89c-0.26-0.537-0.674-1.099-1.24-1.685
		l-1.27-1.309c-0.592-0.618-1.053-1.26-1.381-1.924s-0.493-1.432-0.493-2.305c0-1.419,0.273-2.474,0.82-3.164
		c0.547-0.689,1.488-1.035,2.822-1.035c1.335,0,2.238,0.402,2.71,1.206c0.473,0.805,0.708,1.978,0.708,3.521v1.064h-2.412v-1.23
		c0-0.833-0.071-1.431-0.215-1.792c-0.143-0.361-0.418-0.542-0.825-0.542c-0.406,0-0.699,0.137-0.879,0.41
		c-0.179,0.273-0.269,0.684-0.269,1.23s0.092,0.983,0.273,1.309c0.183,0.326,0.512,0.742,0.986,1.25l1.416,1.533
		c0.71,0.769,1.245,1.547,1.606,2.334c0.361,0.788,0.542,1.647,0.542,2.578c0,1.608-0.27,2.797-0.811,3.564
		c-0.54,0.769-1.485,1.152-2.837,1.152c-1.351,0-2.291-0.428-2.822-1.284C127.276,148.889,127.011,147.64,127.011,145.999z"/>
	<path d="M24.16,173.881c-0.619,0.766-1.489,1.147-2.612,1.147s-1.996-0.34-2.617-1.021c-0.622-0.68-0.933-1.671-0.933-2.974v-3.066
		h2.529v2.939c0,0.951,0.153,1.53,0.459,1.738c0.137,0.092,0.306,0.137,0.508,0.137c0.397,0,0.659-0.162,0.786-0.488
		c0.127-0.325,0.19-0.84,0.19-1.543v-13.105h2.617v12.979C25.087,172.03,24.778,173.116,24.16,173.881z"/>
	<path d="M26.787,174.833l2.451-17.188h3.457l2.607,17.188h-2.441l-0.41-3.066h-2.773l-0.371,3.066H26.787z M32.177,169.667
		l-1.152-8.633h-0.039l-1.055,8.633H32.177z"/>
	<path d="M37.099,174.833v-17.188h2.617v6.953h2.344v-6.953h2.617v17.188H42.06v-7.988h-2.344v7.988H37.099z"/>
	<path d="M50.712,166.757l-0.84-0.039v8.115h-2.617v-17.188h4.326c0.898,0,1.569,0.181,2.012,0.542s0.734,0.866,0.874,1.514
		c0.14,0.648,0.21,1.494,0.21,2.539s-0.111,1.841-0.332,2.388s-0.631,0.915-1.23,1.104c0.592,0.104,1.006,0.505,1.24,1.201
		c0.234,0.697,0.352,2.147,0.352,4.351s0.033,3.388,0.098,3.55h-2.617c-0.065-0.13-0.098-2.184-0.098-6.162
		c0-0.762-0.091-1.268-0.273-1.519C51.634,166.902,51.266,166.771,50.712,166.757z M49.882,164.687h1.045
		c0.332,0,0.578-0.074,0.737-0.225c0.16-0.149,0.27-0.406,0.332-0.771c0.062-0.364,0.093-0.921,0.093-1.67v-0.107
		c0-0.931-0.078-1.539-0.234-1.826c-0.156-0.286-0.518-0.43-1.084-0.43h-0.889C49.882,159.658,49.882,164.687,49.882,164.687z"/>
	<path d="M57.119,174.833v-17.188h5.762v2.256h-3.145v5h2.988v2.207h-2.988v5.469h3.262v2.256L57.119,174.833L57.119,174.833z"/>
	<path d="M64.746,169.999v-1.533h2.48v1.729c0,0.957,0.082,1.63,0.244,2.017c0.163,0.388,0.469,0.581,0.918,0.581
		s0.747-0.159,0.894-0.479c0.146-0.318,0.22-0.84,0.22-1.562s-0.13-1.353-0.391-1.89s-0.674-1.099-1.24-1.685l-1.27-1.309
		c-0.592-0.618-1.053-1.26-1.382-1.924s-0.493-1.432-0.493-2.305c0-1.419,0.273-2.474,0.82-3.164
		c0.547-0.689,1.488-1.035,2.822-1.035s2.238,0.402,2.71,1.206c0.472,0.805,0.708,1.978,0.708,3.521v1.064h-2.412v-1.23
		c0-0.833-0.072-1.431-0.215-1.792s-0.418-0.542-0.825-0.542s-0.7,0.137-0.879,0.41s-0.269,0.684-0.269,1.23
		s0.091,0.983,0.273,1.309s0.511,0.742,0.986,1.25l1.416,1.533c0.709,0.769,1.245,1.547,1.606,2.334
		c0.361,0.788,0.542,1.647,0.542,2.578c0,1.608-0.27,2.797-0.811,3.564c-0.541,0.769-1.486,1.152-2.837,1.152
		s-2.292-0.428-2.822-1.284C65.011,172.889,64.746,171.64,64.746,169.999z"/>
</g>
</svg>
