<?xml version="1.0" encoding="utf-8"?>
<!-- Generator: Adobe Illustrator 17.0.0, SVG Export Plug-In . SVG Version: 6.00 Build 0)  -->
<!DOCTYPE svg PUBLIC "-//W3C//DTD SVG 1.1//EN" "http://www.w3.org/Graphics/SVG/1.1/DTD/svg11.dtd">
<svg version="1.1" id="Layer_1" xmlns="http://www.w3.org/2000/svg" xmlns:xlink="http://www.w3.org/1999/xlink" x="0px" y="0px"
	 width="256px" height="256px" viewBox="0 0 256 256" enable-background="new 0 0 256 256" xml:space="preserve">
	<g>
		<path fill="#FFFFFF" d="M192,10.3c-17.1,0-32.4,8-42.3,20.6h-0.3v0.3c-7.1,9.1-11.4,20.6-11.4,33c0,29.7,24.2,53.9,53.9,53.9
		s53.9-24.2,53.9-53.9S221.7,10.3,192,10.3z"/>
		<path d="M192,10.3c-17.1,0-32.4,8-42.3,20.6h-0.3v0.3c-7.1,9.1-11.4,20.6-11.4,33c0,29.7,24.2,53.9,53.9,53.9s53.9-24.2,53.9-53.9
		S221.7,10.3,192,10.3z M208.6,100.9l-23.1-3L183.7,78l17.6-10.7L217,82.4L208.6,100.9z M171.2,103.3L151.9,89l-2.1-14.7l11.8-7.4
		L181.5,78l1.9,20.2L171.2,103.3z M149.1,72.2L142,57.4l9.3-15.3l9.7,2l-0.2,20.8L149.1,72.2z M188.3,19l21.3,2.9l7.3,13.6
		l-16.1,7.9l-16.5-11.5L188.3,19z M231.4,74.4l-12.6,6.7l-16.9-16.2l0.2-19.7l16-7.9L232.3,50L231.4,74.4z M233.5,74.9l1-24.5
		l7.1-0.9c1.4,4.7,2.1,9.6,2.1,14.7c0,4.6-0.6,9-1.7,13.2L233.5,74.9z M240.9,47.4l-7.1,0.9l-14.6-13.1L212,21.9l6.1-2.4
		C228.7,25.7,236.9,35.6,240.9,47.4z M178.8,14.2l7.4,4.1L182,32.1L162.3,42l-10.5-2.1l-0.2-8.1C158.5,23.4,167.9,17,178.8,14.2z
		 M149.7,40.5l-8.5,14.1c1.4-7.3,4.3-14.1,8.4-20L149.7,40.5z M140.5,59.2l7.1,14.9l2.1,14.8l-2.9,0.4c-4.1-7.4-6.5-16-6.5-25.1
		C140.3,62.5,140.4,60.8,140.5,59.2z M172.4,112.1l-0.2-6.8l12.5-5.3l23.9,3.1l4.4,8.4c-6.4,2.9-13.5,4.5-21,4.5
		C185.1,115.9,178.5,114.5,172.4,112.1z"/>
	</g>
	<g>
		<path fill="#FCFF00" stroke="#000000" stroke-miterlimit="10" d="M181.2,110.6c-0.3-0.4-0.8-0.1-1.3-0.1h-19.3
		c-0.9,0-1.6,0.2-1.6,1.1l-0.2,10.9c-0.4-0.3-0.8-0.5-1-0.7c1.4-0.8-0.1-2.3-0.1-2.3H98.2c0,0-1.5,1.5-0.1,2.3
		c-0.2,0.2-0.6,0.4-1,0.7l-0.2-10.8c0-0.9-0.7-1.2-1.6-1.2H76c-0.5,0-0.9-0.2-1.3,0.2c-0.3,0.4-0.4,0.7-0.4,1.1
		c0.1,0.3,6,30.8,31.8,36.5c3.8,2.7,8.6,4.9,14.7,6.2c0,0.8-3.3,4.8,3.4,7.3c0.4,1.6-2,6.4-2,14.3s-0.4,16.2-1.7,17.9
		c-1.3,1.6-2.3,3.5-1.6,5.4c-1.7,0-8.5,3.8-8.1,15.4c-2.2,0-4.7,0.3-4.7,0.3s-1.7,4.1-4.7,4.9v24.6h0.7c0,0-3.7,0.2-3.4,6.5
		c0,1.7,0.7,3.5,2.6,3.5c1.6,0,51.6,0,53.2,0c2,0,2.6-1.7,2.6-3.5c0.3-6.3-3.4-6.5-3.4-6.5h-3.4v-24.9c-2-0.8-2.7-4.9-2.7-4.9
		s-1-0.3-3.2-0.3c0.4-11.5-6.1-15.4-7.8-15.4c0.7-2-0.2-3.8-1.5-5.4c-1.3-1.6-1.7-10-1.7-17.9c0-7.8-2.4-12.6-1.9-14.3
		c6.6-2.5,3.4-6.5,3.4-7.3c6.1-1.3,10.9-3.5,14.7-6.2c25.8-5.7,31.8-36.1,31.8-36.4C181.7,111.1,181.6,110.9,181.2,110.6z
		 M78.1,113.5h15.6l0.3,14.9c0,0.2,0,0.2,0.1,0.3c0,0.4,0,0.6,0,1c0.2,2.8,2,8.3,6.2,13.3C85.3,136.1,79.6,117.5,78.1,113.5z
		 M155.7,142.9c4.2-5,6-10.4,6.2-13.2c0-0.4,0-0.9,0-1.2c0-0.1,0.1,0.1,0.1-0.1l0.3-14.9h15.6C176.4,117.5,170.7,135.9,155.7,142.9z
		"/>
		<path fill="#FFFFFF" d="M119.8,125.1c0,0-0.7-2.7,14.6-2.7c15.7,0,13.5,2.6,13.5,2.6s-1.7,9-5.4,9c-3.5,0-16.8,0-16.8,0
		S121.1,131.9,119.8,125.1z"/>
		<path fill="#FFFFFF" d="M127.9,163c0,0-1.5,13.8-0.9,18.2c0.7,4.4,0.2,8.4-0.4,10.6c-0.7,2.2-0.1,4.1,2.7,4.1c3.1,0,2.5-3.3,2-4.6
		c-0.4-1.3-0.2-7.2,0.2-10.2s-0.3-12.6-1.6-18.3C128.6,163.1,127.9,163,127.9,163z"/>
		<rect x="127" y="156" fill="#FFFFFF" width="6" height="2"/>
		<rect x="129" y="197" fill="#ABD100" width="6" height="4"/>
		<path fill="#FFFFFF" d="M127.4,202h5.4c0,0,2.8,0.8,2.8,4.2c0.2,1.7-0.2,5.8-0.2,5.8h-9.1c0,0-0.8-3.8-1.1-5.3
		C125,205.4,125.7,203,127.4,202z"/>
		<path fill="#FFFFFF" d="M125.7,215c0,0,8.1,0,10.2,0s4.1,3.8,0,4c-3.9,0.2-8.5-0.1-10.7-0.1S123.1,215,125.7,215z"/>
		<rect x="140" y="221" fill="#ABD100" width="7" height="22"/>
		<path fill="#ABD100" d="M136.7,215c0,0-0.1-4.1-0.2-5.5c-0.2-2.2,3.2-3.2,3.5,1c0.1,1.2,0.6,4.5,0.6,4.5H136.7z"/>
		<path fill="#ABD100" d="M133.8,153.5c0,0-4.7,0.5-4.7-3.4s10-6.4,15.4-7.5s16-3.3,14.7-14.9c-0.3-2.6-5.1-5.1-8-5.2
		c0,0,9,1,9.3,5.6C160.8,132.6,158.8,146.9,133.8,153.5z"/>
		<rect x="121" y="197" fill="#FF9F00" width="1" height="4"/>
		<rect x="106" y="221" fill="#FF9F00" width="3" height="22"/>
		<path fill="#FF9F00" d="M116.4,215c0,0-0.1-2.9,0-4.3c0.2-2.2-3.2-3.3-3.5,1c-0.1,1.2-0.4,3.3-0.4,3.3H116.4z"/>
		<path fill="#FF9F00" d="M121.6,153.5c0,0,4.7,0.5,4.7-3.4s-10-6.4-15.4-7.5s-15-5-14.7-14.9c0.3-2.6,5.1-5.1,8-5.2
		c0,0-8.7,0.7-9,5.2C95,132.2,98.5,148,121.6,153.5z"/>
		<line fill="none" stroke="#957E78" stroke-miterlimit="10" x1="101" y1="244.5" x2="150" y2="244.5"/>
		<line fill="none" stroke="#957E78" stroke-miterlimit="10" x1="101" y1="220.5" x2="150" y2="220.5"/>
		<line fill="none" stroke="#957E78" stroke-miterlimit="10" x1="110" y1="214.5" x2="145" y2="214.5"/>
		<line fill="none" stroke="#957E78" stroke-miterlimit="10" x1="117" y1="200.5" x2="136" y2="200.5"/>
		<path fill="#B9A9A5" stroke="#957E78" stroke-width="0.6534" stroke-miterlimit="10" d="M122.8,161.1c0,0,2.2,1.1,5.5,1.1
		c2.1,0,5.3-1.2,6.5-2.5"/>
		<path fill="none" stroke="#957E78" stroke-width="0.6534" stroke-miterlimit="10" d="M120.7,154.4c0,0,1.6,0.6,7.6,0.6
		c5.1,0,6.9-0.8,6.9-0.8"/>
	</g>
	<g>
		<path fill="#F0F0F0" d="M191.6,106.3c22.6,0,41-18.3,41-41s-18.3-41-41-41c-22.6,0-41,18.3-41,41S169,106.3,191.6,106.3"/>
		<path fill="#0052B4" d="M232.2,59.9h-49.5l0,0V25.3c-3.8,0.8-7.4,2.2-10.7,4v30.6h-21c-0.2,1.7-0.3,3.5-0.3,5.3s0.1,3.6,0.3,5.3h21
		v30.6c3.3,1.8,6.9,3.2,10.7,4V70.6l0,0h49.5c0.2-1.7,0.3-3.5,0.3-5.3C232.6,63.5,232.4,61.7,232.2,59.9"/>
	</g>
	<ellipse fill="none" stroke="#000000" stroke-miterlimit="10" cx="191.6" cy="65.2" rx="40.8" ry="40.6"/>
	<g>
		<g>
			<g>
				<path fill="#FFFF00" d="M17.331,208.085H9.922v-31.952h12.936v6.833h-5.527v4.698h5.133v6.85h-5.133V208.085z M12.922,205.085
				h1.409v-13.571h5.133v-0.85h-5.133v-10.698h5.527v-0.833h-6.936C12.922,179.133,12.922,205.085,12.922,205.085z"/>
			</g>
			<g>
				<path fill="#FFFF00" d="M29.764,208.085h-7.409v-31.952h7.409V208.085z M25.355,205.085h1.409v-25.952h-1.409V205.085z"/>
			</g>
			<g>
				<path fill="#FFFF00" d="M46.672,208.085h-5.69l-3.49-9.96v9.96h-7.063v-31.952h6.016l3.263,9.238l-0.001-9.238h6.965V208.085z
				 M43.11,205.085h0.562v-25.952h-0.965v7.976l0.312,7.836l-2.914,0.56l-5.782-16.371h-0.894v25.952h1.063v-8.88l-0.246-7.551
				l2.915-0.545L43.11,205.085z"/>
			</g>
			<g>
				<path fill="#FFFF00" d="M63.415,208.085h-5.69l-3.49-9.96v9.96h-7.063v-31.952h6.016l3.263,9.238l-0.001-9.238h6.965V208.085z
				 M59.853,205.085h0.562v-25.952H59.45v7.976l0.312,7.836l-2.914,0.56l-5.782-16.371h-0.894v25.952h1.063v-8.88l-0.246-7.551
				l2.915-0.545L59.853,205.085z"/>
			</g>
			<g>
				<path fill="#FFFF00" d="M71.489,208.085H64.08v-31.952h7.409V208.085z M67.08,205.085h1.409v-25.952H67.08V205.085z"/>
			</g>
			<g>
				<path fill="#FFFF00" d="M79.173,208.414c-2.819,0-4.848-0.967-6.029-2.873c-1.054-1.699-1.566-4.021-1.566-7.099v-4.083h5.325
				l-1.776-1.83c-1.106-1.155-1.977-2.371-2.595-3.621c-0.654-1.319-0.986-2.85-0.986-4.547c0-2.766,0.558-4.813,1.707-6.262
				c1.216-1.534,3.21-2.312,5.929-2.312c2.807,0,4.778,0.933,5.858,2.772c0.941,1.604,1.399,3.792,1.399,6.689v3.293h-4.687
				l1.048,1.135c1.298,1.405,2.296,2.859,2.968,4.324c0.696,1.518,1.049,3.189,1.049,4.968c0,3.054-0.536,5.3-1.638,6.867
				C83.976,207.547,81.955,208.414,79.173,208.414z M74.578,197.359v1.083c0,2.467,0.375,4.324,1.116,5.519
				c0.223,0.359,0.9,1.453,3.479,1.453c1.773,0,2.935-0.427,3.552-1.305c0.725-1.03,1.092-2.76,1.092-5.141
				c0-1.344-0.261-2.595-0.776-3.717c-0.54-1.177-1.362-2.367-2.445-3.54l-2.385-2.583c-0.887-0.948-1.5-1.733-1.869-2.392
				c-0.438-0.781-0.651-1.742-0.651-2.936c0-1.23,0.228-2.178,0.698-2.895c0.578-0.883,1.549-1.369,2.735-1.369
				c1.301,0,2.316,0.678,2.785,1.86c0.319,0.805,0.467,1.939,0.467,3.571v0.572h1.063v-0.293c0-2.316-0.332-4.056-0.986-5.171
				c-0.188-0.318-0.759-1.291-3.271-1.291c-1.756,0-2.96,0.396-3.578,1.176c-0.702,0.885-1.058,2.365-1.058,4.398
				c0,1.23,0.227,2.312,0.674,3.216c0.484,0.978,1.179,1.942,2.067,2.87l2.132,2.196c1.062,1.098,1.856,2.184,2.362,3.229
				c0.536,1.106,0.808,2.397,0.808,3.837c0,1.469-0.161,2.504-0.507,3.258c-0.288,0.627-1.043,1.681-2.869,1.681
				c-1.355,0-2.422-0.692-2.929-1.898c-0.36-0.858-0.528-2.122-0.528-3.978v-1.412h-1.178V197.359z M78.756,196.594v2.178
				c0,1.909,0.206,2.605,0.294,2.815c0.002,0.071,0.241,0.066,0.337,0.049c0.073-0.207,0.202-0.743,0.202-1.927
				c0-0.982-0.171-1.833-0.508-2.528C78.989,196.989,78.88,196.793,78.756,196.594z M79.134,182.544
				c-0.208,0-0.261,0.026-0.261,0.026c-0.01,0.033-0.183,0.342-0.183,1.231c0,0.818,0.146,1.251,0.27,1.471
				c0.08,0.143,0.208,0.343,0.416,0.614v-0.917C79.375,183.427,79.217,182.778,79.134,182.544z"/>
			</g>
			<g>
				<path fill="#FFFF00" d="M93.72,208.414c-2.63,0-4.649-0.927-6.001-2.755c-1.249-1.688-1.881-4.066-1.881-7.068v-12.618
				c0-4.919,1.428-8.092,4.245-9.431c1.032-0.49,2.267-0.738,3.671-0.738c2.839,0,7.603,1.195,7.603,9.199v5.48h-7.261v-5.201
				c0-1.699-0.172-2.39-0.274-2.65c0.04,0.001,0.008-0.012-0.084-0.012c-0.054,0-0.087,0.005-0.104,0.009
				c-0.002,0.009-0.02,0.038-0.042,0.092c-0.116,0.277-0.311,0.976-0.311,2.545v13.522c0,1.774,0.188,2.497,0.299,2.771
				c0.014,0.033,0.025,0.057,0.034,0.071c0.012-0.001,0.038,0.001,0.075,0.001c0.033,0,0.057-0.002,0.073-0.004
				c0.003-0.013,0.017-0.039,0.033-0.077c0.113-0.28,0.302-1.019,0.302-2.812v-5.646h7.327v5.597c0,3.155-0.586,5.479-1.792,7.104
				C98.336,207.532,96.348,208.414,93.72,208.414z M93.752,178.804c-0.956,0-1.757,0.15-2.384,0.448
				c-1.68,0.798-2.532,3.06-2.532,6.721v12.618c0,2.346,0.435,4.124,1.293,5.285c0.766,1.035,1.939,1.538,3.589,1.538
				c1.651,0,2.796-0.461,3.5-1.409c0.797-1.073,1.201-2.862,1.201-5.315v-2.597h-1.327v2.646c0,1.803-0.165,3.053-0.52,3.933
				c-0.502,1.246-1.555,1.96-2.888,1.96c-1.329,0-2.38-0.705-2.885-1.935c-0.357-0.872-0.523-2.114-0.523-3.908v-13.522
				c0-1.62,0.178-2.832,0.544-3.705c0.517-1.233,1.579-1.94,2.913-1.94c1.35,0,2.398,0.697,2.876,1.914
				c0.329,0.836,0.482,2.027,0.482,3.748v2.201h1.261v-2.48C98.355,179.509,95.896,178.804,93.752,178.804z"/>
			</g>
			<g>
				<path fill="#FFFF00" d="M116.931,208.085h-7.409v-13.456h-0.948v13.456h-7.409v-31.952h7.409v11.713h0.948v-11.713h7.409V208.085
				z M112.522,205.085h1.409v-25.952h-1.409v11.713h-6.948v-11.713h-1.409v25.952h1.409v-13.456h6.948V205.085z"/>
			</g>
			<g>
				<path fill="#FFFF00" d="M130.334,208.085h-12.903v-31.952h12.706v6.8h-5.297v5.423h5.033v6.718h-5.033v6.212h5.494V208.085z
				 M120.431,205.085h6.903v-0.8h-5.494v-12.212h5.034v-0.718h-5.034v-11.423h5.297v-0.8h-6.706
				C120.431,179.132,120.431,205.085,120.431,205.085z"/>
			</g>
			<g>
				<path fill="#FFFF00" d="M146.443,208.085h-7.551l-0.415-0.829c-0.222-0.442-0.322-0.645-0.322-11.051
				c0-1.022-0.108-1.471-0.162-1.629c-0.081-0.029-0.255-0.075-0.572-0.092v13.601h-7.409v-31.952h8.788
				c1.86,0,3.319,0.421,4.337,1.251c1.013,0.827,1.682,1.969,1.989,3.396c0.261,1.202,0.388,2.705,0.388,4.594
				c0,1.972-0.219,3.471-0.668,4.583c-0.193,0.479-0.451,0.905-0.768,1.278c0.316,0.407,0.598,0.919,0.815,1.564
				c0.457,1.359,0.67,3.84,0.67,7.807c0,4.144,0.071,5.252,0.105,5.543L146.443,208.085z M141.223,205.085h1.386
				c-0.028-0.933-0.045-2.335-0.045-4.479c0-4.399-0.279-6.153-0.514-6.85c-0.309-0.916-0.726-0.989-0.927-1.024l-0.192-2.908
				c0.581-0.184,0.931-0.489,1.134-0.991c0.205-0.507,0.449-1.519,0.449-3.459c0-1.648-0.107-2.981-0.319-3.96
				c-0.163-0.757-0.476-1.314-0.954-1.705c-0.462-0.376-1.306-0.575-2.44-0.575h-5.788v25.952h1.409v-13.741l2.983,0.139
				c1.387,0.032,2.408,0.465,3.003,1.282c0.518,0.712,0.748,1.773,0.748,3.44C141.155,201.292,141.188,203.825,141.223,205.085z
				 M137.697,190.993h-3.26v-11.472h2.996c1.92,0,2.77,0.819,3.144,1.506c0.399,0.733,0.578,1.903,0.578,3.794v0.182
				c0,1.354-0.058,2.354-0.177,3.062c-0.163,0.958-0.494,1.658-1.013,2.145C139.408,190.73,138.646,190.993,137.697,190.993z
				 M137.438,187.993h0.26c0.102,0,0.174-0.007,0.222-0.015c0.021-0.064,0.064-0.197,0.102-0.415
				c0.062-0.364,0.135-1.106,0.135-2.561v-0.182c0-1.41-0.113-2.018-0.177-2.248c-0.092-0.023-0.261-0.052-0.541-0.052
				L137.438,187.993L137.438,187.993z"/>
			</g>
			<g>
				<path fill="#FFFF00" d="M172.946,208.085h-6.932v-5.363l-0.992,5.231h-5.979l-1.166-5.901v6.033h-6.898v-31.952h8.214
				l2.83,14.561l2.661-14.561h8.262L172.946,208.085L172.946,208.085z M169.015,205.085h0.932v-25.952h-2.76l-3.642,19.925
				l-2.948,0.017l-3.876-19.941h-2.741v25.952h0.898v-9.291l-0.164-9.879l2.972-0.315l3.823,19.354h1.029l3.668-19.342l2.974,0.305
				l-0.165,9.903L169.015,205.085L169.015,205.085z"/>
			</g>
			<g>
				<path fill="#FFFF00" d="M186.366,208.085h-12.902v-31.952h12.705v6.8h-5.297v5.423h5.034v6.718h-5.034v6.212h5.494V208.085z
				 M176.464,205.085h6.902v-0.8h-5.494v-12.212h5.034v-0.718h-5.034v-11.423h5.297v-0.8h-6.705L176.464,205.085L176.464,205.085z"
				/>
			</g>
			<g>
				<path fill="#FFFF00" d="M193.618,208.085h-7.409v-31.952h7.409V208.085z M189.209,205.085h1.409v-25.952h-1.409V205.085z"/>
			</g>
			<g>
				<path fill="#FFFF00" d="M201.302,208.414c-2.819,0-4.848-0.967-6.029-2.873c-1.054-1.701-1.565-4.022-1.565-7.099v-4.083h5.325
				l-1.775-1.83c-1.107-1.155-1.979-2.371-2.597-3.621c-0.653-1.32-0.985-2.851-0.985-4.547c0-2.767,0.559-4.814,1.707-6.263
				c1.215-1.533,3.21-2.312,5.929-2.312c2.808,0,4.778,0.933,5.858,2.773c0.94,1.604,1.398,3.791,1.398,6.688v3.293h-4.687
				l1.048,1.135c1.298,1.405,2.297,2.859,2.968,4.324c0.696,1.52,1.05,3.19,1.05,4.968c0,3.054-0.536,5.3-1.639,6.867
				C206.104,207.547,204.083,208.414,201.302,208.414z M196.707,197.359v1.083c0,2.467,0.375,4.323,1.116,5.519
				c0.223,0.359,0.9,1.453,3.479,1.453c1.772,0,2.935-0.427,3.553-1.305c0.725-1.03,1.092-2.76,1.092-5.141
				c0-1.343-0.262-2.594-0.776-3.718c-0.539-1.176-1.361-2.366-2.444-3.539l-2.386-2.583c-0.889-0.95-1.502-1.734-1.869-2.392
				c-0.432-0.771-0.651-1.76-0.651-2.936c0-1.23,0.229-2.177,0.698-2.895c0.577-0.883,1.549-1.369,2.735-1.369
				c1.301,0,2.315,0.678,2.784,1.86c0.319,0.805,0.468,1.939,0.468,3.571v0.572h1.062v-0.293c0-2.316-0.332-4.056-0.986-5.171
				c-0.188-0.319-0.758-1.291-3.271-1.291c-1.756,0-2.96,0.396-3.578,1.176c-0.702,0.885-1.058,2.364-1.058,4.398
				c0,1.23,0.227,2.312,0.674,3.216c0.483,0.977,1.179,1.941,2.067,2.87l2.132,2.196c1.062,1.098,1.856,2.184,2.362,3.229
				c0.536,1.106,0.809,2.397,0.809,3.837c0,1.468-0.161,2.503-0.507,3.257c-0.288,0.629-1.044,1.682-2.869,1.682
				c-1.354,0-2.422-0.692-2.929-1.898c-0.36-0.856-0.528-2.12-0.528-3.978v-1.412h-1.179V197.359z M200.886,196.594v2.178
				c0,1.91,0.205,2.604,0.294,2.814c0.003,0.073,0.239,0.064,0.337,0.05c0.072-0.206,0.202-0.743,0.202-1.927
				c0-0.982-0.171-1.833-0.508-2.528C201.118,196.989,201.01,196.793,200.886,196.594z M201.263,182.544
				c-0.207,0-0.26,0.026-0.261,0.026c-0.009,0.033-0.183,0.343-0.183,1.231c0,0.817,0.146,1.252,0.27,1.472
				c0.08,0.143,0.208,0.342,0.416,0.614v-0.918C201.505,183.428,201.347,182.778,201.263,182.544z"/>
			</g>
			<g>
				<path fill="#FFFF00" d="M217.2,208.085h-7.392v-25.136h-3.389v-6.816h14.038v6.816H217.2V208.085z M212.809,205.085h1.392
				v-25.136h3.258v-0.816h-8.038v0.816h3.389L212.809,205.085L212.809,205.085z"/>
			</g>
			<g>
				<path fill="#FFFF00" d="M231.953,208.085H219.05v-31.952h12.706v6.8h-5.297v5.423h5.033v6.718h-5.033v6.212h5.494V208.085z
				 M222.05,205.085h6.903v-0.8h-5.494v-12.212h5.033v-0.718h-5.033v-11.423h5.297v-0.8h-6.706V205.085z"/>
			</g>
			<g>
				<path fill="#FFFF00" d="M248.062,208.085h-7.551l-0.415-0.829c-0.222-0.442-0.322-0.645-0.322-11.051
				c0-1.022-0.108-1.471-0.162-1.629c-0.081-0.029-0.255-0.075-0.572-0.092v13.601h-7.409v-31.952h8.788
				c1.86,0,3.319,0.421,4.337,1.251c1.013,0.827,1.682,1.969,1.989,3.396c0.261,1.202,0.388,2.705,0.388,4.594
				c0,1.972-0.219,3.471-0.668,4.583c-0.193,0.479-0.451,0.905-0.768,1.278c0.316,0.407,0.598,0.919,0.815,1.564
				c0.457,1.359,0.67,3.84,0.67,7.807c0,4.144,0.071,5.252,0.105,5.543L248.062,208.085z M242.842,205.085h1.386
				c-0.028-0.933-0.045-2.335-0.045-4.479c0-4.399-0.279-6.153-0.514-6.85c-0.309-0.916-0.726-0.989-0.927-1.024l-0.192-2.908
				c0.581-0.184,0.931-0.489,1.134-0.991c0.205-0.507,0.449-1.519,0.449-3.459c0-1.648-0.107-2.981-0.319-3.96
				c-0.163-0.757-0.476-1.314-0.954-1.705c-0.462-0.376-1.306-0.575-2.44-0.575h-5.788v25.952h1.409v-13.741l2.983,0.139
				c1.387,0.032,2.408,0.465,3.003,1.282c0.518,0.712,0.748,1.773,0.748,3.44C242.774,201.292,242.808,203.825,242.842,205.085z
				 M239.316,190.993h-3.26v-11.472h2.996c1.92,0,2.77,0.819,3.144,1.506c0.399,0.733,0.578,1.903,0.578,3.794v0.182
				c0,1.354-0.058,2.354-0.177,3.062c-0.163,0.958-0.494,1.658-1.013,2.145C241.027,190.73,240.266,190.993,239.316,190.993z
				 M239.057,187.993h0.26c0.102,0,0.174-0.007,0.222-0.015c0.021-0.064,0.064-0.197,0.102-0.415
				c0.062-0.364,0.135-1.106,0.135-2.561v-0.182c0-1.41-0.113-2.018-0.177-2.248c-0.092-0.023-0.261-0.052-0.541-0.052
				L239.057,187.993L239.057,187.993z"/>
			</g>
			<g>
				<path fill="#FFFF00" d="M53.53,239.944h-1.5c-1.205,0-2.178-0.101-2.975-0.308c-0.923-0.24-1.722-0.691-2.372-1.342
				c-0.658-0.657-1.119-1.528-1.37-2.589c-0.215-0.908-0.32-2.021-0.32-3.4V217.8c0-1.378,0.105-2.491,0.321-3.401
				c0.25-1.058,0.711-1.929,1.369-2.588c0.648-0.648,1.446-1.1,2.371-1.341c0.799-0.208,1.772-0.309,2.977-0.309h1.5v5.734h-1.5
				c-0.121,0-0.212,0.007-0.28,0.016c-0.048,0.242-0.121,0.779-0.121,1.834v14.615c0,1.047,0.071,1.584,0.123,1.834
				c0.067,0.009,0.158,0.016,0.278,0.016h1.5v5.734H53.53z M50.198,213.29c-0.14,0.023-0.269,0.052-0.389,0.083
				c-0.406,0.105-0.735,0.289-1.005,0.559c-0.258,0.259-0.451,0.648-0.572,1.158c-0.159,0.672-0.24,1.583-0.24,2.71v14.506
				c0,1.127,0.081,2.039,0.24,2.709c0.121,0.511,0.313,0.9,0.571,1.158c0.271,0.271,0.6,0.455,1.005,0.56
				c0.12,0.031,0.25,0.06,0.389,0.083c-0.537-0.283-0.857-0.676-1.049-1.031c-0.364-0.678-0.52-1.702-0.52-3.424v-14.615
				c0-1.722,0.156-2.746,0.521-3.425C49.341,213.966,49.661,213.573,50.198,213.29z"/>
			</g>
			<g>
				<path fill="#FFFF00" d="M63.517,238.085h-7.112l-4.198-27.062h6.536l1.175,8.126l0.981-8.126h6.477L63.517,238.085z
				 M58.975,235.085h1.939l0.362-2.537h-2.515l-0.262-1.312l-0.971-7.656l-1.383-9.558h-0.437L58.975,235.085z M63.559,214.022
				l-1.153,9.549l-0.486,4.463l1.999-14.012H63.559z"/>
			</g>
			<g>
				<path fill="#FFFF00" d="M77.934,238.085h-11.23v-27.062H77.77v6.158h-4.402v4h4.184v6.09h-4.184v4.656h4.566V238.085z
				 M69.704,235.085h5.23v-0.158h-4.566v-10.656h4.184v-0.09h-4.184v-10h4.402v-0.158h-5.066V235.085z"/>
			</g>
			<g>
				<path fill="#FFFF00" d="M84.661,238.085h-6.664v-27.062h6.664V238.085z M80.997,235.085h0.664v-21.062h-0.664V235.085z"/>
			</g>
			<g>
				<path fill="#FFFF00" d="M100.457,238.085h-7.06l-1.299-3.773v3.773h-6.691v-27.062h6.664v3.266l1.081-3.266h6.958l-4.493,13.355
				L100.457,238.085z M95.537,235.085h0.679l-3.772-10.684l3.491-10.379h-0.616l-3.323,10.045l-2.924-0.471v-9.574h-0.664v21.062
				h0.691v-9.738l2.918-0.488L95.537,235.085z"/>
			</g>
			<g>
				<path fill="#FFFF00" d="M113.719,238.085h-7.06l-1.299-3.773v3.773h-6.691v-27.062h6.664v3.266l1.081-3.266h6.958l-4.493,13.355
				L113.719,238.085z M108.799,235.085h0.679l-3.772-10.684l3.491-10.379h-0.616l-3.323,10.045l-2.924-0.471v-9.574h-0.664v21.062
				h0.691v-9.738l2.918-0.488L108.799,235.085z"/>
			</g>
			<g>
				<path fill="#FFFF00" d="M126.003,238.085h-6.475l-0.574-4.293h-1.241l-0.52,4.293h-6.586l3.859-27.062h7.431L126.003,238.085z
				 M122.153,235.085h0.361l-2.929-19.308l2.012,15.075h-0.01L122.153,235.085z M114.065,235.085h0.469l0.512-4.232h-0.002
				l1.843-15.086h2.696l-0.265-1.744h-2.249L114.065,235.085z"/>
			</g>
			<g>
				<path fill="#FFFF00" d="M131.798,238.358c-2.324,0-4.079-0.718-5.216-2.133c-1.073-1.334-1.595-3.237-1.595-5.82v-19.396h6.664
				v19.328c0,1.415,0.079,1.771,0.088,1.808c0.012,0.021,0.027,0.05,0.046,0.083c0.007,0,0.014,0,0.021,0l0,0
				c0.034-0.095,0.052-0.198,0.061-0.281c0.044-0.408,0.066-0.949,0.066-1.609V211.01h6.664v19.396c0,2.592-0.52,4.498-1.589,5.828
				C135.874,237.644,134.121,238.358,131.798,238.358z M127.987,214.009v16.396c0,1.819,0.323,3.182,0.933,3.94
				c0.548,0.682,1.488,1.013,2.878,1.013c1.389,0,2.327-0.329,2.871-1.005c0.606-0.754,0.927-2.119,0.927-3.948v-16.396h-0.664
				v16.328c0,0.778-0.027,1.41-0.084,1.932c-0.078,0.724-0.313,1.357-0.699,1.883c-0.359,0.49-1.059,1.076-2.344,1.076
				c-1.021,0-1.776-0.313-2.243-0.931c-0.238-0.314-0.444-0.67-0.61-1.055c-0.186-0.43-0.301-1.065-0.301-2.905v-16.328
				L127.987,214.009L127.987,214.009z"/>
			</g>
			<g>
				<path fill="#FFFF00" d="M145.155,238.358c-3.035,0-4.518-1.363-5.227-2.508c-0.9-1.453-1.339-3.427-1.339-6.033v-3.646h4.081
				l-1.06-1.092c-0.938-0.979-1.678-2.011-2.203-3.073c-0.562-1.135-0.846-2.444-0.846-3.892c0-2.356,0.481-4.109,1.473-5.361
				c1.062-1.339,2.786-2.018,5.127-2.018c3.025,0,4.437,1.32,5.087,2.429c0.807,1.373,1.198,3.233,1.198,5.688v2.99h-3.569
				l0.478,0.518c1.098,1.188,1.942,2.42,2.511,3.659c0.595,1.297,0.896,2.722,0.896,4.235c0,2.593-0.461,4.508-1.408,5.854
				C149.304,237.602,147.555,238.358,145.155,238.358z M141.59,229.171v0.646c0,2.003,0.299,3.501,0.889,4.452
				c0.167,0.27,0.675,1.089,2.677,1.089c2.059,0,2.575-0.734,2.745-0.977c0.393-0.559,0.861-1.728,0.861-4.127
				c0-1.079-0.209-2.083-0.622-2.984c-0.437-0.952-1.105-1.919-1.988-2.875l-1.981-2.146c-0.751-0.803-1.272-1.471-1.589-2.036
				c-0.386-0.688-0.573-1.527-0.573-2.563c0-1.074,0.203-1.907,0.621-2.545c0.529-0.808,1.412-1.252,2.485-1.252
				c1.191,0,2.121,0.622,2.55,1.707c0.277,0.7,0.406,1.672,0.406,3.061v0.223h0.377c-0.001-1.875-0.265-3.274-0.785-4.159
				c-0.137-0.234-0.557-0.948-2.5-0.948c-1.378,0-2.312,0.297-2.775,0.881c-0.539,0.681-0.824,1.891-0.824,3.498
				c0,0.982,0.18,1.844,0.535,2.562c0.39,0.788,0.953,1.569,1.673,2.32l1.771,1.825c0.903,0.934,1.578,1.858,2.01,2.749
				c0.463,0.955,0.697,2.065,0.697,3.3c0,1.26-0.142,2.153-0.444,2.813c-0.45,0.98-1.403,1.544-2.614,1.544
				c-1.234,0-2.207-0.632-2.669-1.733c-0.312-0.745-0.458-1.826-0.458-3.403v-0.92h-0.475V229.171z M145.062,229.434v0.657
				c0,0.961,0.063,1.536,0.125,1.866c0.033-0.24,0.061-0.59,0.061-1.087C145.248,230.339,145.186,229.858,145.062,229.434z
				 M145.015,217.381c-0.004,0.08-0.007,0.17-0.007,0.269c0,0.306,0.025,0.536,0.061,0.709
				C145.062,217.946,145.041,217.627,145.015,217.381z"/>
			</g>
			<g>
				<path fill="#FFFF00" d="M162.74,238.085h-11.299v-27.062h6.664v20.945h4.635V238.085z M154.441,235.085h5.299v-0.117h-4.635
				v-20.945h-0.664V235.085z"/>
			</g>
			<g>
				<path fill="#FFFF00" d="M168.646,238.085h-6.664v-27.062h6.664V238.085z M164.982,235.085h0.664v-21.062h-0.664V235.085z"/>
			</g>
			<g>
				<path fill="#FFFF00" d="M176.193,238.085h-6.664v-27.062h6.664V238.085z M172.529,235.085h0.664v-21.062h-0.664V235.085z"/>
			</g>
			<g>
				<path fill="#FFFF00" d="M182.965,238.331c-1.988,0-3.637-0.833-4.767-2.41c-1.05-1.464-1.56-3.55-1.56-6.377v-10.459
				c0-2.543,0.539-4.556,1.604-5.982c1.165-1.562,2.966-2.354,5.352-2.354c3.796,0,5.309,1.973,5.908,3.627
				c0.447,1.235,0.664,2.819,0.664,4.846v18.863h-4.327l-0.117-0.496C184.902,238.082,183.978,238.331,182.965,238.331z
				 M183.594,213.749c-1.407,0-2.371,0.375-2.947,1.147c-0.669,0.896-1.008,2.306-1.008,4.188v10.459
				c0,2.118,0.345,3.719,0.997,4.629c0.574,0.801,1.293,1.158,2.329,1.158c0.289,0,0.553-0.04,0.797-0.122
				c-1.355,0.062-2.495-0.628-2.978-1.889c-0.31-0.809-0.454-2.026-0.454-3.831v-10.432c0-1.631,0.176-2.744,0.553-3.504
				c0.516-1.038,1.501-1.633,2.704-1.633c1.63,0,2.355,0.926,2.643,1.478c0.354,0.681,0.519,1.639,0.519,3.017v1.016h0.418v-0.209
				c0-1.648-0.163-2.935-0.484-3.823C186.403,214.631,185.801,213.749,183.594,213.749z M186.967,224.946v4.406
				c0,1.825-0.176,3.083-0.554,3.958c-0.087,0.203-0.189,0.392-0.305,0.564l1.058-0.001v-8.928h-0.199V224.946z M183.572,232.208
				h0.047c0.005-0.015,0.021-0.044,0.039-0.086c0.094-0.215,0.309-0.914,0.309-2.77v-1.74h-0.637v1.877
				C183.33,231.267,183.489,231.965,183.572,232.208z M183.33,221.946h0.418v-3.531c0-0.859-0.079-1.297-0.132-1.494
				c-0.01,0-0.019,0-0.029,0l0,0c-0.014,0-0.022-0.001-0.028-0.004c-0.071,0.177-0.229,0.719-0.229,2.141L183.33,221.946
				L183.33,221.946z"/>
			</g>
			<g>
				<path fill="#FFFF00" d="M204.685,238.085h-6.476l-0.574-4.293h-1.241l-0.52,4.293h-6.586l3.86-27.062h7.431L204.685,238.085z
				 M200.834,235.085h0.36l-2.929-19.308l2.013,15.075h-0.01L200.834,235.085z M192.747,235.085h0.469l0.512-4.232h-0.002
				l1.843-15.086h2.695l-0.265-1.744h-2.249L192.747,235.085z"/>
			</g>
			<g>
				<path fill="#FFFF00" d="M204.826,239.944h-1.5v-5.734h1.5c0.121,0,0.213-0.007,0.279-0.016c0.049-0.242,0.121-0.78,0.121-1.834
				v-14.615c0-1.046-0.071-1.583-0.123-1.834c-0.066-0.009-0.157-0.016-0.277-0.016h-1.5v-5.734h1.5
				c1.204,0,2.178,0.101,2.975,0.308c0.928,0.243,1.725,0.695,2.37,1.347c0.651,0.658,1.108,1.527,1.358,2.583
				c0.216,0.913,0.32,2.025,0.32,3.401v14.506c0,1.377-0.104,2.489-0.32,3.401c-0.25,1.057-0.707,1.927-1.358,2.583
				c-0.647,0.653-1.444,1.105-2.37,1.347C207.004,239.844,206.03,239.944,204.826,239.944z M206.657,213.289
				c0.537,0.283,0.858,0.677,1.049,1.032c0.365,0.68,0.521,1.703,0.521,3.424v14.615c0,1.721-0.155,2.744-0.521,3.424
				c-0.19,0.355-0.512,0.748-1.049,1.031c0.14-0.023,0.27-0.052,0.39-0.083c0.402-0.104,0.728-0.285,0.993-0.554
				c0.257-0.26,0.448-0.65,0.569-1.162c0.159-0.674,0.24-1.585,0.24-2.711V217.8c0-1.125-0.081-2.037-0.24-2.711
				c-0.121-0.511-0.312-0.902-0.57-1.163c-0.265-0.267-0.59-0.448-0.994-0.554C206.926,213.341,206.796,213.313,206.657,213.289z"/>
			</g>
		</g>
		<g>
			<g>
				<path d="M11.422,206.585v-28.952h9.936v3.833h-5.527v7.698h5.133v3.85h-5.133v13.571H11.422z"/>
			</g>
			<g>
				<path d="M23.855,206.585v-28.952h4.409v28.952H23.855z"/>
			</g>
			<g>
				<path d="M31.929,206.585v-28.952h3.455l6.136,17.371l-0.312-7.896v-9.476h3.965v28.952h-3.126l-6.3-17.979l0.247,7.6v10.38
				L31.929,206.585L31.929,206.585z"/>
			</g>
			<g>
				<path d="M48.672,206.585v-28.952h3.455l6.136,17.371l-0.312-7.896v-9.476h3.965v28.952H58.79l-6.3-17.979l0.247,7.6v10.38
				L48.672,206.585L48.672,206.585z"/>
			</g>
			<g>
				<path d="M65.58,206.585v-28.952h4.409v28.952H65.58z"/>
			</g>
			<g>
				<path d="M73.078,198.442v-2.583h4.178v2.912c0,1.612,0.137,2.744,0.411,3.396c0.274,0.653,0.79,0.979,1.546,0.979
				c0.757,0,1.259-0.269,1.505-0.807c0.247-0.537,0.37-1.414,0.37-2.632c0-1.217-0.22-2.278-0.658-3.183
				c-0.438-0.905-1.135-1.852-2.089-2.838l-2.139-2.204c-0.998-1.042-1.774-2.122-2.328-3.241c-0.554-1.118-0.831-2.412-0.831-3.882
				c0-2.391,0.46-4.168,1.382-5.33c0.921-1.162,2.505-1.744,4.754-1.744c2.248,0,3.77,0.678,4.565,2.032
				c0.795,1.354,1.192,3.331,1.192,5.93v1.793h-4.063v-2.072c0-1.403-0.121-2.41-0.362-3.019s-0.705-0.913-1.39-0.913
				c-0.686,0-1.179,0.23-1.48,0.69c-0.302,0.461-0.453,1.152-0.453,2.073s0.154,1.656,0.461,2.204
				c0.307,0.549,0.861,1.25,1.661,2.105l2.385,2.583c1.195,1.294,2.098,2.604,2.706,3.932c0.609,1.327,0.913,2.774,0.913,4.343
				c0,2.709-0.455,4.71-1.365,6.004c-0.911,1.295-2.503,1.941-4.779,1.941s-3.86-0.721-4.754-2.163
				C73.525,203.309,73.078,201.206,73.078,198.442z"/>
			</g>
			<g>
				<path d="M98.424,204.899c-0.998,1.343-2.566,2.015-4.705,2.015s-3.737-0.716-4.795-2.146c-1.059-1.432-1.587-3.49-1.587-6.177
				v-12.618c0-4.31,1.129-7.002,3.389-8.076c0.833-0.396,1.842-0.593,3.027-0.593c4.068,0,6.103,2.566,6.103,7.699v3.98h-4.261
				v-3.701c0-1.491-0.126-2.558-0.378-3.199s-0.746-0.963-1.48-0.963s-1.245,0.34-1.53,1.021c-0.285,0.68-0.428,1.722-0.428,3.125
				v13.522c0,1.557,0.137,2.67,0.411,3.339s0.773,1.004,1.497,1.004s1.223-0.34,1.497-1.021c0.274-0.68,0.411-1.804,0.411-3.372
				v-4.146h4.327v4.097C99.921,201.485,99.422,203.556,98.424,204.899z"/>
			</g>
			<g>
				<path d="M102.665,206.585v-28.952h4.409v11.713h3.948v-11.713h4.409v28.952h-4.409v-13.456h-3.948v13.456H102.665z"/>
			</g>
			<g>
				<path d="M118.931,206.585v-28.952h9.706v3.8h-5.297v8.423h5.034v3.718h-5.034v9.212h5.494v3.8h-9.903V206.585z"/>
			</g>
			<g>
				<path d="M137.335,192.98l-1.414-0.065v13.67h-4.409v-28.952h7.288c1.513,0,2.643,0.305,3.389,0.913
				c0.745,0.608,1.236,1.459,1.472,2.55c0.236,1.091,0.354,2.517,0.354,4.277s-0.187,3.101-0.559,4.021
				c-0.373,0.922-1.064,1.541-2.073,1.859c0.998,0.175,1.694,0.85,2.09,2.023c0.395,1.173,0.592,3.616,0.592,7.328
				c0,3.713,0.055,5.706,0.164,5.979h-4.408c-0.109-0.219-0.164-3.679-0.164-10.38c0-1.283-0.154-2.136-0.461-2.558
				C138.887,193.225,138.268,193.003,137.335,192.98z M135.938,189.493h1.76c0.56,0,0.973-0.126,1.242-0.378s0.455-0.686,0.56-1.3
				c0.104-0.614,0.156-1.552,0.156-2.812v-0.182c0-1.567-0.132-2.593-0.396-3.076c-0.263-0.482-0.871-0.724-1.826-0.724h-1.496
				V189.493z"/>
			</g>
			<g>
				<path d="M152.479,206.585v-28.952h5.478l4.112,21.155l3.866-21.155h5.511v28.952h-3.932v-10.791l0.165-9.903l-3.899,20.562
				h-3.504l-4.062-20.562l0.164,9.903v10.791H152.479z"/>
			</g>
			<g>
				<path d="M174.964,206.585v-28.952h9.705v3.8h-5.297v8.423h5.034v3.718h-5.034v9.212h5.494v3.8h-9.902V206.585z"/>
			</g>
			<g>
				<path d="M187.709,206.585v-28.952h4.409v28.952H187.709z"/>
			</g>
			<g>
				<path d="M195.207,198.442v-2.583h4.179v2.912c0,1.612,0.137,2.744,0.411,3.396c0.274,0.653,0.79,0.979,1.546,0.979
				c0.757,0,1.259-0.269,1.506-0.807c0.246-0.537,0.37-1.414,0.37-2.632c0-1.217-0.22-2.278-0.658-3.183s-1.135-1.852-2.089-2.838
				l-2.139-2.204c-0.998-1.042-1.774-2.122-2.328-3.241c-0.554-1.118-0.83-2.412-0.83-3.882c0-2.391,0.46-4.168,1.382-5.33
				c0.921-1.162,2.505-1.744,4.754-1.744c2.248,0,3.77,0.678,4.564,2.032s1.192,3.331,1.192,5.93v1.793h-4.062v-2.072
				c0-1.403-0.121-2.41-0.362-3.019s-0.705-0.913-1.39-0.913c-0.686,0-1.18,0.23-1.48,0.69c-0.302,0.461-0.453,1.152-0.453,2.073
				s0.154,1.656,0.461,2.204c0.307,0.549,0.861,1.25,1.661,2.105l2.386,2.583c1.195,1.294,2.098,2.604,2.706,3.932
				s0.913,2.774,0.913,4.343c0,2.709-0.455,4.71-1.365,6.004c-0.911,1.295-2.504,1.941-4.779,1.941s-3.86-0.721-4.754-2.163
				S195.207,201.206,195.207,198.442z"/>
			</g>
			<g>
				<path d="M211.309,206.585v-25.136h-3.389v-3.816h11.038v3.816H215.7v25.136H211.309z"/>
			</g>
			<g>
				<path d="M220.55,206.585v-28.952h9.706v3.8h-5.297v8.423h5.033v3.718h-5.033v9.212h5.494v3.8h-9.903V206.585z"/>
			</g>
			<g>
				<path d="M238.954,192.98l-1.414-0.065v13.67h-4.409v-28.952h7.288c1.513,0,2.643,0.305,3.389,0.913
				c0.745,0.608,1.236,1.459,1.472,2.55c0.236,1.091,0.354,2.517,0.354,4.277s-0.187,3.101-0.559,4.021
				c-0.373,0.922-1.064,1.541-2.073,1.859c0.998,0.175,1.694,0.85,2.09,2.023c0.395,1.173,0.592,3.616,0.592,7.328
				c0,3.713,0.055,5.706,0.164,5.979h-4.408c-0.109-0.219-0.164-3.679-0.164-10.38c0-1.283-0.154-2.136-0.461-2.558
				C240.506,193.225,239.887,193.003,238.954,192.98z M237.557,189.493h1.76c0.56,0,0.973-0.126,1.242-0.378s0.455-0.686,0.56-1.3
				c0.104-0.614,0.156-1.552,0.156-2.812v-0.182c0-1.567-0.132-2.593-0.396-3.076c-0.263-0.482-0.871-0.724-1.826-0.724h-1.496
				V189.493z"/>
			</g>
			<g>
				<path d="M52.03,238.444c-1.066,0-1.933-0.087-2.598-0.26c-0.666-0.173-1.229-0.49-1.688-0.95c-0.46-0.46-0.784-1.084-0.971-1.873
				c-0.187-0.788-0.28-1.807-0.28-3.056V217.8c0-1.248,0.093-2.267,0.28-3.056c0.187-0.788,0.51-1.412,0.971-1.873
				c0.46-0.46,1.023-0.776,1.688-0.95c0.665-0.173,1.531-0.26,2.598-0.26v2.734c-0.812,0-1.331,0.212-1.559,0.636
				c-0.228,0.424-0.342,1.329-0.342,2.714v14.615c0,1.386,0.114,2.29,0.342,2.714c0.228,0.424,0.747,0.636,1.559,0.636V238.444z"/>
			</g>
			<g>
				<path d="M57.69,236.585l-3.732-24.062h3.486l1.572,10.869l0.971,7.656h0.096l0.834-7.656l1.312-10.869h3.418l-3.432,24.062H57.69
				z"/>
			</g>
			<g>
				<path d="M68.204,236.585v-24.062h8.066v3.158h-4.402v7h4.184v3.09h-4.184v7.656h4.566v3.158L68.204,236.585L68.204,236.585z"/>
			</g>
			<g>
				<path d="M79.497,236.585v-24.062h3.664v24.062H79.497z"/>
			</g>
			<g>
				<path d="M86.907,236.585v-24.062h3.664v11.074l3.664-11.074h3.787L94.03,224.39l4.307,12.195h-3.869l-3.869-11.238v11.238
				L86.907,236.585L86.907,236.585z"/>
			</g>
			<g>
				<path d="M100.168,236.585v-24.062h3.664v11.074l3.664-11.074h3.787l-3.992,11.867l4.307,12.195h-3.869l-3.869-11.238v11.238
				L100.168,236.585L100.168,236.585z"/>
			</g>
			<g>
				<path d="M112.336,236.585l3.432-24.062h4.84l3.65,24.062h-3.418l-0.574-4.293h-3.883l-0.52,4.293H112.336z M119.883,229.353
				l-1.613-12.086h-0.055l-1.477,12.086H119.883z"/>
			</g>
			<g>
				<path d="M135.838,235.293c-0.839,1.044-2.186,1.565-4.04,1.565s-3.204-0.523-4.046-1.572c-0.843-1.048-1.265-2.675-1.265-4.881
				v-17.896h3.664v17.828c0,1.268,0.06,2.037,0.178,2.311s0.262,0.522,0.431,0.745c0.169,0.224,0.518,0.335,1.046,0.335
				s0.907-0.154,1.135-0.465c0.228-0.31,0.367-0.694,0.417-1.155c0.05-0.46,0.075-1.05,0.075-1.771v-17.828h3.664v17.896
				C137.096,232.62,136.677,234.25,135.838,235.293z"/>
			</g>
			<g>
				<path d="M140.09,229.817v-2.146h3.473v2.42c0,1.34,0.114,2.281,0.342,2.823c0.228,0.543,0.656,0.813,1.285,0.813
				s1.046-0.223,1.251-0.67c0.205-0.446,0.308-1.176,0.308-2.188s-0.183-1.894-0.547-2.646s-0.943-1.538-1.736-2.358l-1.777-1.832
				c-0.829-0.865-1.475-1.764-1.935-2.693s-0.69-2.005-0.69-3.227c0-1.986,0.383-3.463,1.148-4.43
				c0.766-0.966,2.083-1.449,3.951-1.449s3.133,0.563,3.794,1.688c0.661,1.126,0.991,2.769,0.991,4.929v1.49h-3.377v-1.723
				c0-1.166-0.101-2.003-0.301-2.509s-0.586-0.759-1.155-0.759s-0.979,0.191-1.23,0.574s-0.376,0.957-0.376,1.723
				s0.128,1.377,0.383,1.832c0.255,0.456,0.716,1.039,1.381,1.75l1.982,2.146c0.993,1.076,1.743,2.165,2.249,3.268
				c0.506,1.104,0.759,2.307,0.759,3.609c0,2.252-0.378,3.915-1.135,4.99c-0.757,1.076-2.08,1.613-3.972,1.613
				s-3.208-0.599-3.951-1.798C140.461,233.862,140.09,232.114,140.09,229.817z"/>
			</g>
			<g>
				<path d="M152.941,236.585v-24.062h3.664v20.945h4.635v3.117L152.941,236.585L152.941,236.585z"/>
			</g>
			<g>
				<path d="M163.482,236.585v-24.062h3.664v24.062H163.482z"/>
			</g>
			<g>
				<path d="M171.029,236.585v-24.062h3.664v24.062H171.029z"/>
			</g>
			<g>
				<path d="M182.965,236.831c-1.513,0-2.695-0.595-3.548-1.784s-1.278-3.023-1.278-5.503v-10.459c0-2.224,0.436-3.919,1.306-5.086
				c0.87-1.166,2.254-1.75,4.149-1.75c2.36,0,3.86,0.88,4.498,2.639c0.383,1.058,0.574,2.502,0.574,4.334v1.709h-3.418v-2.516
				c0-1.103-0.116-1.877-0.349-2.324c-0.232-0.446-0.67-0.67-1.312-0.67s-1.096,0.267-1.36,0.8s-0.396,1.479-0.396,2.837v10.432
				c0,1.577,0.118,2.676,0.355,3.295c0.237,0.62,0.699,0.93,1.388,0.93s1.176-0.332,1.463-0.998
				c0.287-0.665,0.431-1.786,0.431-3.363v-3.24h-1.846v-2.666h5.045v13.139h-1.641l-0.561-2.365
				c-0.191,0.812-0.61,1.449-1.258,1.914S183.812,236.831,182.965,236.831z"/>
			</g>
			<g>
				<path d="M191.018,236.585l3.432-24.062h4.84l3.65,24.062h-3.418l-0.574-4.293h-3.883l-0.52,4.293H191.018z M198.564,229.353
				l-1.613-12.086h-0.055l-1.477,12.086H198.564z"/>
			</g>
			<g>
				<path d="M204.826,238.444v-2.734c0.812,0,1.331-0.212,1.559-0.636s0.342-1.328,0.342-2.714v-14.615
				c0-1.385-0.114-2.29-0.342-2.714s-0.747-0.636-1.559-0.636v-2.734c1.066,0,1.933,0.087,2.598,0.26
				c0.665,0.174,1.226,0.49,1.682,0.95c0.456,0.461,0.777,1.085,0.964,1.873c0.187,0.789,0.28,1.808,0.28,3.056v14.506
				c0,1.249-0.094,2.268-0.28,3.056c-0.187,0.789-0.508,1.413-0.964,1.873s-1.017,0.777-1.682,0.95S205.893,238.444,204.826,238.444
				z"/>
			</g>
		</g>
	</g>
</svg>