<?xml version="1.0" encoding="utf-8"?>
<!-- Generator: Adobe Illustrator 17.0.0, SVG Export Plug-In . SVG Version: 6.00 Build 0)  -->
<!DOCTYPE svg PUBLIC "-//W3C//DTD SVG 1.1//EN" "http://www.w3.org/Graphics/SVG/1.1/DTD/svg11.dtd">
<svg version="1.1" id="Layer_1" xmlns="http://www.w3.org/2000/svg" xmlns:xlink="http://www.w3.org/1999/xlink" x="0px" y="0px"
	 width="256px" height="256px" viewBox="0 0 256 256" enable-background="new 0 0 256 256" xml:space="preserve">
	<polygon fill="#FFFF00" points="128,188.6 53.1,243.2 82,155.1 6.8,100.8 99.5,101 128,12.8 156.5,101 249.2,100.8 174,155.1 
	202.9,243.2 "/>
	<path fill="#FFFFFF" d="M192,10.3c-17.1,0-32.4,8-42.3,20.6h-0.3v0.3c-7.1,9.1-11.4,20.6-11.4,33c0,29.7,24.2,53.9,53.9,53.9
	s53.9-24.2,53.9-53.9S221.7,10.3,192,10.3z"/>
	<path d="M192,10.3c-17.1,0-32.4,8-42.3,20.6h-0.3v0.3c-7.1,9.1-11.4,20.6-11.4,33c0,29.7,24.2,53.9,53.9,53.9s53.9-24.2,53.9-53.9
	S221.7,10.3,192,10.3z M208.6,100.9l-23.1-3L183.7,78l17.6-10.7L217,82.4L208.6,100.9z M171.2,103.3L151.9,89l-2.1-14.7l11.8-7.4
	L181.5,78l1.9,20.2L171.2,103.3z M149.1,72.2L142,57.4l9.3-15.3l9.7,2l-0.2,20.8L149.1,72.2z M188.3,19l21.3,2.9l7.3,13.6l-16.1,7.9
	l-16.5-11.5L188.3,19z M231.4,74.4l-12.6,6.7l-16.9-16.2l0.2-19.7l16-7.9L232.3,50L231.4,74.4z M233.5,74.9l1-24.5l7.1-0.9
	c1.4,4.7,2.1,9.6,2.1,14.7c0,4.6-0.6,9-1.7,13.2L233.5,74.9z M240.9,47.4l-7.1,0.9l-14.6-13.1L212,21.9l6.1-2.4
	C228.7,25.7,236.9,35.6,240.9,47.4z M178.8,14.2l7.4,4.1L182,32.1L162.3,42l-10.5-2.1l-0.2-8.1C158.5,23.4,167.9,17,178.8,14.2z
	 M149.7,40.5l-8.5,14.1c1.4-7.3,4.3-14.1,8.4-20L149.7,40.5z M140.5,59.2l7.1,14.9l2.1,14.8l-2.9,0.4c-4.1-7.4-6.5-16-6.5-25.1
	C140.3,62.5,140.4,60.8,140.5,59.2z M172.4,112.1l-0.2-6.8l12.5-5.3l23.9,3.1l4.4,8.4c-6.4,2.9-13.5,4.5-21,4.5
	C185.1,115.9,178.5,114.5,172.4,112.1z"/>
	<g>
		<path fill="none" stroke="#000000" stroke-width="3" stroke-miterlimit="10" d="M157.6,137"/>
		<path fill="#FF0000" d="M157.6,137"/>
	</g>
	<g>
		<path fill="#FFFFFF" d="M212.533,170.749c20.142-10.209,33.489-32.234,34.262-35.563c0.773-3.329-0.534-4.065-2.868-6.482
		c-2.334-2.417-7.024-0.49-7.024-0.49s-21.089,17.595-30.969,24.54c-9.966,7.057-51.858,18.306-57.508,21.368
		c-5.65,3.061-44.962,16.291-51.495,24.915c0.054,2.716-1.764,9.611,5.136,6.083C108.967,201.593,179.32,187.414,212.533,170.749z"
		/>
		<g>
			<path fill="none" stroke="#000000" stroke-width="3" stroke-miterlimit="10" d="M183.413,143.306
			c3.332-0.74,6.056-1.501,8.112-1.973c4.384-1.181,9.435-2.651,16.107-4.838c8.788-2.969,18.506-8.078,22.122-8.956
			c6.354-1.54,12.331,0.197,12.331,0.197c2.916,2.239-21.095,20.621-26.86,25.11c-14.839,11.429-61.516,23.104-95.133,36.696
			c-11.977,4.8-17.194,9.62-17.194,9.62s9.258-3.233,15.81-4.799c14.552-3.625,78.111-17.315,94.42-27.525
			c21.054-13.253,31.519-31.874,31.585-35.211c5.133,7.597,1.65,14.105-1.399,18.54c-3.062,4.335-0.555,6.528-1.813,7.702
			c-0.702,0.798-4.294-0.445-7.314,2.675c-3.02,3.12-4.082,5.781-7.796,8.991c-3.727,3.112-0.667,6.442-3.032,9.173
			c-2.378,2.632-5.111-2.052-8.657,0.128c-3.533,2.279-5.558,3.756-11.73,6.684c-6.072,2.915-2.301,7.06-4.662,8.277
			c-2.236,1.403-6.626-4.375-11.276-2.15c-4.65,2.224-22.622,14.367-28.789,18.102c-6.265,3.747-1.115,12.249-3.088,14.122
			c-1.258,1.174-5.598-2.694-9.543-2.781c-2.319,0.002-4.53,1.603-6.787,3.614c-6.044,5.433-0.59,10.869-3.184,12.622
			c-2.594,1.753-4.524-1.423-9.147-2.833c-4.623-1.41-8.488,1.417-13.402-2.981c-23.622-20.903-19.921-44.183-19.921-44.183
			c1.632-2.937,2.628-2.261,7.397-1.274c4.756,0.888,12.896,1.433,18.773-2.969c5.778-4.389,11.834-15.876,11.17-20.932
			c-0.664-5.057-2.15-8.694,4.459-9.057c2.703-0.153,10.695-1.505,19.937-3.324l4.224-0.857
			C161.537,147.994,161.537,147.994,183.413,143.306z"/>
			<path fill="#00A566" d="M183.413,143.306c3.332-0.74,6.056-1.501,8.112-1.973c4.384-1.181,9.435-2.651,16.107-4.838
			c8.788-2.969,18.506-8.078,22.122-8.956c6.354-1.54,12.331,0.197,12.331,0.197c2.916,2.239-21.095,20.621-26.86,25.11
			c-14.839,11.429-61.516,23.104-95.133,36.696c-11.977,4.8-17.194,9.62-17.194,9.62s9.258-3.233,15.81-4.799
			c14.552-3.625,78.111-17.315,94.42-27.525c21.054-13.253,31.519-31.874,31.585-35.211c5.133,7.597,1.65,14.105-1.399,18.54
			c-3.062,4.335-0.555,6.528-1.813,7.702c-0.702,0.798-4.294-0.445-7.314,2.675c-3.02,3.12-4.082,5.781-7.796,8.991
			c-3.727,3.112-0.667,6.442-3.032,9.173c-2.378,2.632-5.111-2.052-8.657,0.128c-3.533,2.279-5.558,3.756-11.73,6.684
			c-6.072,2.915-2.301,7.06-4.662,8.277c-2.236,1.403-6.626-4.375-11.276-2.15c-4.65,2.224-22.622,14.367-28.789,18.102
			c-6.265,3.747-1.115,12.249-3.088,14.122c-1.258,1.174-5.598-2.694-9.543-2.781c-2.319,0.002-4.53,1.603-6.787,3.614
			c-6.044,5.433-0.59,10.869-3.184,12.622c-2.594,1.753-4.524-1.423-9.147-2.833c-4.623-1.41-8.488,1.417-13.402-2.981
			c-23.622-20.903-19.921-44.183-19.921-44.183c1.632-2.937,2.628-2.261,7.397-1.274c4.756,0.888,12.896,1.433,18.773-2.969
			c5.778-4.389,11.834-15.876,11.17-20.932c-0.664-5.057-2.15-8.694,4.459-9.057c2.703-0.153,10.695-1.505,19.937-3.324l4.224-0.857
			C161.537,147.994,161.537,147.994,183.413,143.306z"/>
		</g>
		<g>
			<g>
				<g>
					<path fill="none" stroke="#1D1D1B" stroke-width="3" d="M154.945,163.08c-0.198,0.026-0.397,0.052-0.608-0.021
					c-1.044-0.266-1.782-1.279-1.614-2.309l2.911-14.704c0.266-1.044,1.279-1.782,2.31-1.614c1.044,0.266,1.782,1.279,1.614,2.31
					l-2.911,14.704C156.466,162.376,155.738,162.976,154.945,163.08z"/>
				</g>
				<g>
					<path fill="none" stroke="#1D1D1B" stroke-width="3" d="M164.038,159.365c-0.198,0.026-0.397,0.052-0.608-0.021
					c-1.044-0.266-1.782-1.279-1.614-2.309l2.284-11.798c0.266-1.044,1.279-1.782,2.31-1.614c1.044,0.266,1.782,1.279,1.614,2.309
					l-2.284,11.798C165.56,158.661,164.832,159.261,164.038,159.365z"/>
				</g>
				<g>
					<path fill="none" stroke="#1D1D1B" stroke-width="3" d="M171.663,156.75c-0.198,0.026-0.397,0.052-0.608-0.021
					c-1.044-0.266-1.782-1.279-1.614-2.31l2.163-11.177c0.266-1.044,1.279-1.782,2.309-1.614c1.044,0.266,1.782,1.279,1.614,2.31
					l-2.163,11.177C173.184,156.046,172.456,156.646,171.663,156.75z"/>
				</g>
				<g>
					<path fill="none" stroke="#1D1D1B" stroke-width="3" d="M180.256,152.294c-0.198,0.026-0.397,0.052-0.608-0.021
					c-1.044-0.266-1.782-1.279-1.614-2.309l1.756-8.904c0.266-1.044,1.279-1.782,2.31-1.614c1.044,0.266,1.782,1.279,1.614,2.309
					l-1.756,8.904C181.777,151.59,181.049,152.189,180.256,152.294z"/>
				</g>
			</g>
			<g>
				<g>
					<path fill="#FFFF00" d="M154.945,163.08c-0.198,0.026-0.397,0.052-0.608-0.021c-1.044-0.266-1.782-1.279-1.614-2.309
					l2.911-14.704c0.266-1.044,1.279-1.782,2.31-1.614c1.044,0.266,1.782,1.279,1.614,2.31l-2.911,14.704
					C156.466,162.376,155.738,162.976,154.945,163.08z"/>
				</g>
				<g>
					<path fill="#FFFF00" d="M164.038,159.365c-0.198,0.026-0.397,0.052-0.608-0.021c-1.044-0.266-1.782-1.279-1.614-2.309
					l2.284-11.798c0.266-1.044,1.279-1.782,2.31-1.614c1.044,0.266,1.782,1.279,1.614,2.309l-2.284,11.798
					C165.56,158.661,164.832,159.261,164.038,159.365z"/>
				</g>
				<g>
					<path fill="#FFFF00" d="M171.663,156.75c-0.198,0.026-0.397,0.052-0.608-0.021c-1.044-0.266-1.782-1.279-1.614-2.31
					l2.163-11.177c0.266-1.044,1.279-1.782,2.309-1.614c1.044,0.266,1.782,1.279,1.614,2.31l-2.163,11.177
					C173.184,156.046,172.456,156.646,171.663,156.75z"/>
				</g>
				<g>
					<path fill="#FFFF00" d="M180.256,152.294c-0.198,0.026-0.397,0.052-0.608-0.021c-1.044-0.266-1.782-1.279-1.614-2.309
					l1.756-8.904c0.266-1.044,1.279-1.782,2.31-1.614c1.044,0.266,1.782,1.279,1.614,2.309l-1.756,8.904
					C181.777,151.59,181.049,152.189,180.256,152.294z"/>
				</g>
			</g>
		</g>
	</g>
	<g>
		<circle fill="#F0F0F0" cx="191.8" cy="65.3" r="41"/>
		<path fill="#D80027" d="M232.8,65.3c0-17.6-11.1-32.6-26.7-38.4v76.8C221.6,98,232.8,83,232.8,65.3z"/>
		<path fill="#0052B4" d="M150.8,65.3c0,17.6,11.1,32.6,26.7,38.4V26.9C162,32.7,150.8,47.7,150.8,65.3z"/>
	</g>
	<ellipse fill="none" stroke="#000000" stroke-width="1.4754" stroke-miterlimit="10" cx="191.6" cy="65.2" rx="40.8" ry="40.6"/>
	<g>
		<path d="M19.613,126.833v-17.188h5.898v2.275H22.23v4.57h3.047v2.285H22.23v8.057L19.613,126.833L19.613,126.833z"/>
		<path d="M30.853,118.757l-0.84-0.039v8.115h-2.617v-17.188h4.326c0.898,0,1.569,0.181,2.012,0.542s0.734,0.866,0.874,1.514
		s0.21,1.494,0.21,2.539s-0.111,1.841-0.332,2.388s-0.631,0.915-1.23,1.104c0.592,0.104,1.006,0.504,1.24,1.201
		s0.352,2.147,0.352,4.351s0.033,3.387,0.098,3.55h-2.617c-0.065-0.13-0.098-2.184-0.098-6.162c0-0.762-0.091-1.268-0.273-1.519
		S31.406,118.771,30.853,118.757z M30.023,116.687h1.045c0.332,0,0.578-0.075,0.737-0.225s0.27-0.407,0.332-0.771
		s0.093-0.921,0.093-1.67v-0.107c0-0.931-0.078-1.54-0.234-1.826s-0.518-0.43-1.084-0.43h-0.889V116.687z"/>
		<path d="M36.478,126.833l2.451-17.188h3.457l2.607,17.188h-2.441l-0.41-3.066h-2.773l-0.371,3.066
		C38.998,126.833,36.478,126.833,36.478,126.833z M41.869,121.667l-1.152-8.633h-0.039l-1.055,8.633H41.869z"/>
		<path d="M46.791,126.833v-17.188h2.051l3.643,10.312l-0.186-4.688v-5.625h2.354v17.188h-1.855l-3.74-10.674l0.146,4.512v6.162
		L46.791,126.833L46.791,126.833z"/>
		<path d="M56.898,126.833v-2.324l3.564-12.607H57.22v-2.256h5.986v2.119l-3.564,12.812h3.486v2.256
		C63.128,126.833,56.898,126.833,56.898,126.833z"/>
		<path d="M71.625,125.789c-0.599,0.827-1.558,1.24-2.876,1.24s-2.285-0.415-2.9-1.245s-0.923-2.082-0.923-3.755v-7.861
		c0-3.151,1.286-4.727,3.857-4.727c1.328,0,2.284,0.4,2.866,1.201s0.874,1.976,0.874,3.525v7.861
		C72.523,123.708,72.224,124.962,71.625,125.789z M64.984,108.406v-2.207h2.754v2.207H64.984z M67.792,124.167
		c0.153,0.397,0.467,0.596,0.942,0.596s0.788-0.204,0.938-0.61s0.225-1.105,0.225-2.095v-8.008c0-0.814-0.077-1.408-0.229-1.782
		s-0.453-0.562-0.898-0.562s-0.758,0.187-0.938,0.562s-0.269,0.965-0.269,1.772v8.018C67.562,123.067,67.639,123.771,67.792,124.167
		z M69.71,108.406v-2.207h2.754v2.207H69.71z"/>
		<path d="M74.554,122v-1.533h2.48v1.729c0,0.957,0.082,1.629,0.244,2.017s0.469,0.581,0.918,0.581s0.747-0.16,0.894-0.479
		s0.22-0.84,0.22-1.562s-0.13-1.353-0.391-1.89s-0.674-1.099-1.24-1.685l-1.27-1.309c-0.592-0.619-1.053-1.26-1.382-1.924
		s-0.493-1.432-0.493-2.305c0-1.419,0.273-2.474,0.82-3.164s1.488-1.035,2.822-1.035s2.238,0.402,2.71,1.206
		s0.708,1.978,0.708,3.521v1.064h-2.412v-1.23c0-0.833-0.072-1.431-0.215-1.792s-0.418-0.542-0.825-0.542s-0.7,0.137-0.879,0.41
		s-0.269,0.684-0.269,1.23s0.091,0.983,0.273,1.309s0.511,0.742,0.986,1.25l1.416,1.533c0.709,0.768,1.245,1.546,1.606,2.334
		s0.542,1.647,0.542,2.578c0,1.608-0.27,2.796-0.811,3.564s-1.486,1.152-2.837,1.152s-2.292-0.428-2.822-1.284
		S74.554,123.64,74.554,122z"/>
		<path d="M83.832,126.833v-17.188h2.617v17.188C86.449,126.833,83.832,126.833,83.832,126.833z"/>
		<path d="M88.783,122v-1.533h2.48v1.729c0,0.957,0.082,1.629,0.244,2.017s0.469,0.581,0.918,0.581s0.747-0.16,0.894-0.479
		s0.22-0.84,0.22-1.562s-0.13-1.353-0.391-1.89s-0.674-1.099-1.24-1.685l-1.27-1.309c-0.592-0.619-1.053-1.26-1.382-1.924
		s-0.493-1.432-0.493-2.305c0-1.419,0.273-2.474,0.82-3.164s1.488-1.035,2.822-1.035s2.238,0.402,2.71,1.206
		s0.708,1.978,0.708,3.521v1.064h-2.412v-1.23c0-0.833-0.072-1.431-0.215-1.792s-0.418-0.542-0.825-0.542s-0.7,0.137-0.879,0.41
		s-0.269,0.684-0.269,1.23s0.091,0.983,0.273,1.309s0.511,0.742,0.986,1.25L93.9,117.4c0.709,0.768,1.245,1.546,1.606,2.334
		s0.542,1.647,0.542,2.578c0,1.608-0.27,2.796-0.811,3.564s-1.486,1.152-2.837,1.152s-2.292-0.428-2.822-1.284
		S88.783,123.64,88.783,122z"/>
		<path d="M104.33,125.833c-0.592,0.797-1.523,1.196-2.793,1.196s-2.218-0.425-2.847-1.274s-0.942-2.072-0.942-3.667v-7.49
		c0-2.559,0.67-4.157,2.012-4.795c0.495-0.234,1.094-0.352,1.797-0.352c2.416,0,3.623,1.523,3.623,4.57v2.363h-2.529v-2.197
		c0-0.885-0.075-1.519-0.225-1.899s-0.443-0.571-0.879-0.571s-0.739,0.202-0.908,0.605s-0.254,1.022-0.254,1.855v8.027
		c0,0.924,0.082,1.585,0.244,1.982s0.459,0.596,0.889,0.596s0.726-0.202,0.889-0.605s0.244-1.071,0.244-2.002v-2.461h2.568v2.432
		C105.218,123.806,104.922,125.035,104.33,125.833z"/>
		<path d="M107.347,126.833v-17.188h2.617v6.953h2.344v-6.953h2.617v17.188h-2.617v-7.988h-2.344v7.988
		C109.964,126.833,107.347,126.833,107.347,126.833z"/>
		<path d="M117.503,126.833v-17.188h5.762v2.256h-3.145v5h2.988v2.207h-2.988v5.469h3.262v2.256H117.503z"/>
		<path d="M128.929,118.757l-0.839-0.039v8.115h-2.617v-17.188h4.326c0.898,0,1.569,0.181,2.012,0.542s0.734,0.866,0.874,1.514
		c0.141,0.648,0.21,1.494,0.21,2.539s-0.11,1.841-0.332,2.388c-0.221,0.547-0.631,0.915-1.23,1.104
		c0.593,0.104,1.006,0.504,1.24,1.201s0.352,2.147,0.352,4.351s0.033,3.387,0.098,3.55h-2.617c-0.064-0.13-0.098-2.184-0.098-6.162
		c0-0.762-0.091-1.268-0.273-1.519C129.851,118.902,129.482,118.771,128.929,118.757z M128.099,116.687h1.044
		c0.332,0,0.578-0.075,0.737-0.225c0.16-0.15,0.271-0.407,0.332-0.771c0.062-0.365,0.093-0.921,0.093-1.67v-0.107
		c0-0.931-0.078-1.54-0.234-1.826s-0.518-0.43-1.084-0.43h-0.888L128.099,116.687L128.099,116.687z"/>
		<path d="M19.613,150.833v-17.188h5.898v2.275H22.23v4.57h3.047v2.285H22.23v8.057L19.613,150.833L19.613,150.833z"/>
		<path d="M33.978,149.91c-0.599,0.746-1.561,1.118-2.886,1.118s-2.289-0.374-2.891-1.123c-0.602-0.748-0.903-1.91-0.903-3.486
		v-12.783h2.617v12.734c0,0.905,0.042,1.455,0.127,1.65s0.187,0.373,0.308,0.532c0.121,0.16,0.37,0.239,0.747,0.239
		s0.648-0.11,0.811-0.332c0.163-0.221,0.262-0.496,0.298-0.825c0.036-0.328,0.054-0.75,0.054-1.265v-12.734h2.617v12.783
		C34.876,148.001,34.577,149.165,33.978,149.91z"/>
		<path d="M37.015,145.999v-1.533h2.48v1.729c0,0.957,0.082,1.63,0.244,2.017c0.163,0.388,0.469,0.581,0.918,0.581
		s0.747-0.159,0.894-0.479c0.146-0.318,0.22-0.84,0.22-1.562s-0.13-1.353-0.391-1.89s-0.674-1.099-1.24-1.685l-1.27-1.309
		c-0.592-0.618-1.053-1.26-1.382-1.924s-0.493-1.432-0.493-2.305c0-1.419,0.273-2.474,0.82-3.164
		c0.547-0.689,1.488-1.035,2.822-1.035s2.238,0.402,2.71,1.206c0.472,0.805,0.708,1.978,0.708,3.521v1.064h-2.412v-1.23
		c0-0.833-0.072-1.431-0.215-1.792s-0.418-0.542-0.825-0.542s-0.7,0.137-0.879,0.41s-0.269,0.684-0.269,1.23
		s0.091,0.983,0.273,1.309s0.511,0.742,0.986,1.25l1.416,1.533c0.709,0.769,1.245,1.547,1.606,2.334
		c0.361,0.788,0.542,1.647,0.542,2.578c0,1.608-0.27,2.797-0.811,3.564c-0.541,0.769-1.486,1.152-2.837,1.152
		s-2.292-0.428-2.822-1.284C37.28,148.889,37.015,147.64,37.015,145.999z"/>
		<path d="M45.853,145.999v-1.533h2.48v1.729c0,0.957,0.082,1.63,0.244,2.017c0.163,0.388,0.469,0.581,0.918,0.581
		s0.747-0.159,0.894-0.479c0.146-0.318,0.22-0.84,0.22-1.562s-0.13-1.353-0.391-1.89s-0.674-1.099-1.24-1.685l-1.27-1.309
		c-0.592-0.618-1.053-1.26-1.382-1.924s-0.493-1.432-0.493-2.305c0-1.419,0.273-2.474,0.82-3.164
		c0.547-0.689,1.488-1.035,2.822-1.035s2.238,0.402,2.71,1.206c0.472,0.805,0.708,1.978,0.708,3.521v1.064h-2.412v-1.23
		c0-0.833-0.072-1.431-0.215-1.792s-0.418-0.542-0.825-0.542s-0.7,0.137-0.879,0.41s-0.269,0.684-0.269,1.23
		s0.091,0.983,0.273,1.309s0.511,0.742,0.986,1.25l1.416,1.533c0.709,0.769,1.245,1.547,1.606,2.334
		c0.361,0.788,0.542,1.647,0.542,2.578c0,1.608-0.27,2.797-0.811,3.564c-0.541,0.769-1.486,1.152-2.837,1.152
		s-2.292-0.428-2.822-1.284C46.118,148.889,45.853,147.64,45.853,145.999z"/>
		<path d="M62.386,138.06c0,1.85-0.501,2.985-1.504,3.408c1.224,0.41,1.836,1.762,1.836,4.053v0.439
		c-0.013,1.726-0.314,2.969-0.903,3.73s-1.551,1.143-2.886,1.143H55.13v-17.188h3.721c1.283,0,2.191,0.298,2.725,0.894
		s0.804,1.594,0.811,2.993L62.386,138.06L62.386,138.06z M57.748,140.599h0.967c0.449,0,0.744-0.143,0.884-0.43
		c0.14-0.286,0.21-0.875,0.21-1.768v-1.035c-0.006-0.664-0.098-1.108-0.273-1.333s-0.479-0.337-0.908-0.337h-0.879L57.748,140.599
		L57.748,140.599z M57.748,148.802h0.928c0.521,0,0.885-0.179,1.094-0.537c0.208-0.357,0.312-0.999,0.312-1.924v-1.387
		c0-0.872-0.084-1.489-0.254-1.851s-0.495-0.542-0.977-0.542h-1.104L57.748,148.802L57.748,148.802z"/>
		<path d="M63.978,150.833l2.451-17.188h3.457l2.607,17.188h-2.441l-0.41-3.066h-2.773l-0.371,3.066H63.978z M69.369,145.667
		l-1.152-8.633h-0.039l-1.055,8.633H69.369z"/>
		<path d="M74.291,150.833v-17.188h2.617v14.961h3.311v2.227H74.291z"/>
		<path d="M81.722,150.833v-17.188h2.617v14.961h3.311v2.227H81.722z"/>
		<path d="M89.154,150.833v-17.188h5.762v2.256h-3.145v5h2.988v2.207h-2.988v5.469h3.262v2.256L89.154,150.833L89.154,150.833z"/>
		<path d="M100.58,142.757l-0.84-0.039v8.115h-2.617v-17.188h4.326c0.898,0,1.569,0.181,2.012,0.542s0.734,0.866,0.874,1.514
		c0.14,0.648,0.21,1.494,0.21,2.539s-0.111,1.841-0.332,2.388s-0.631,0.915-1.23,1.104c0.592,0.104,1.006,0.505,1.24,1.201
		c0.234,0.697,0.352,2.147,0.352,4.351s0.033,3.388,0.098,3.55h-2.617c-0.065-0.13-0.098-2.184-0.098-6.162
		c0-0.762-0.091-1.268-0.273-1.519C101.501,142.902,101.133,142.771,100.58,142.757z M99.75,140.687h1.045
		c0.332,0,0.578-0.074,0.737-0.225c0.16-0.149,0.27-0.406,0.332-0.771c0.062-0.364,0.093-0.921,0.093-1.67v-0.107
		c0-0.931-0.078-1.539-0.234-1.826c-0.156-0.286-0.518-0.43-1.084-0.43H99.75V140.687z"/>
		<path d="M19.613,174.833v-17.188h3.857c1.263,0,2.179,0.373,2.749,1.118c0.57,0.746,0.854,1.845,0.854,3.296l0.01,7.754
		c0,1.732-0.287,3.002-0.859,3.809c-0.573,0.808-1.52,1.211-2.842,1.211H19.613z M22.23,172.802h0.859
		c0.482,0,0.832-0.156,1.05-0.469s0.327-0.885,0.327-1.719l-0.01-8.486c0-0.892-0.109-1.526-0.327-1.904
		c-0.218-0.377-0.594-0.566-1.128-0.566H22.23V172.802z"/>
		<path d="M29.437,174.833v-17.188h5.762v2.256h-3.145v5h2.988v2.207h-2.988v5.469h3.262v2.256L29.437,174.833L29.437,174.833z"/>
		<path d="M37.064,169.999v-1.533h2.48v1.729c0,0.957,0.082,1.63,0.244,2.017c0.163,0.388,0.469,0.581,0.918,0.581
		s0.747-0.159,0.894-0.479c0.146-0.318,0.22-0.84,0.22-1.562s-0.13-1.353-0.391-1.89s-0.674-1.099-1.24-1.685l-1.27-1.309
		c-0.592-0.618-1.053-1.26-1.382-1.924s-0.493-1.432-0.493-2.305c0-1.419,0.273-2.474,0.82-3.164
		c0.547-0.689,1.488-1.035,2.822-1.035s2.238,0.402,2.71,1.206c0.472,0.805,0.708,1.978,0.708,3.521v1.064h-2.412v-1.23
		c0-0.833-0.072-1.431-0.215-1.792s-0.418-0.542-0.825-0.542s-0.7,0.137-0.879,0.41s-0.269,0.684-0.269,1.23
		s0.091,0.983,0.273,1.309s0.511,0.742,0.986,1.25l1.416,1.533c0.709,0.769,1.245,1.547,1.606,2.334
		c0.361,0.788,0.542,1.647,0.542,2.578c0,1.608-0.27,2.797-0.811,3.564c-0.541,0.769-1.486,1.152-2.837,1.152
		s-2.292-0.428-2.822-1.284C37.329,172.889,37.064,171.64,37.064,169.999z"/>
		<path d="M55.365,173.881c-0.619,0.766-1.489,1.147-2.612,1.147s-1.996-0.34-2.617-1.021c-0.622-0.68-0.933-1.671-0.933-2.974
		v-3.066h2.529v2.939c0,0.951,0.153,1.53,0.459,1.738c0.137,0.092,0.306,0.137,0.508,0.137c0.397,0,0.659-0.162,0.786-0.488
		c0.127-0.325,0.19-0.84,0.19-1.543v-13.105h2.617v12.979C56.292,172.03,55.983,173.116,55.365,173.881z"/>
		<path d="M57.992,174.833l2.451-17.188H63.9l2.607,17.188h-2.441l-0.41-3.066h-2.773l-0.371,3.066H57.992z M63.382,169.667
		l-1.152-8.633h-0.039l-1.055,8.633H63.382z"/>
		<path d="M68.304,174.833v-17.188h2.617v6.953h2.344v-6.953h2.617v17.188h-2.617v-7.988h-2.344v7.988H68.304z"/>
		<path d="M81.917,166.757l-0.84-0.039v8.115H78.46v-17.188h4.326c0.898,0,1.569,0.181,2.012,0.542s0.734,0.866,0.874,1.514
		c0.14,0.648,0.21,1.494,0.21,2.539s-0.111,1.841-0.332,2.388s-0.631,0.915-1.23,1.104c0.592,0.104,1.006,0.505,1.24,1.201
		c0.234,0.697,0.352,2.147,0.352,4.351s0.033,3.388,0.098,3.55h-2.617c-0.065-0.13-0.098-2.184-0.098-6.162
		c0-0.762-0.091-1.268-0.273-1.519C82.839,166.902,82.471,166.771,81.917,166.757z M81.087,164.687h1.045
		c0.332,0,0.578-0.074,0.737-0.225c0.16-0.149,0.27-0.406,0.332-0.771c0.062-0.364,0.093-0.921,0.093-1.67v-0.107
		c0-0.931-0.078-1.539-0.234-1.826c-0.156-0.286-0.518-0.43-1.084-0.43h-0.889V164.687z"/>
		<path d="M88.324,174.833v-17.188h5.762v2.256h-3.145v5h2.988v2.207h-2.988v5.469h3.262v2.256L88.324,174.833L88.324,174.833z"/>
		<path d="M95.951,169.999v-1.533h2.48v1.729c0,0.957,0.082,1.63,0.244,2.017c0.163,0.388,0.469,0.581,0.918,0.581
		s0.747-0.159,0.894-0.479c0.146-0.318,0.22-0.84,0.22-1.562s-0.13-1.353-0.391-1.89s-0.674-1.099-1.24-1.685l-1.27-1.309
		c-0.592-0.618-1.053-1.26-1.382-1.924s-0.493-1.432-0.493-2.305c0-1.419,0.273-2.474,0.82-3.164
		c0.547-0.689,1.488-1.035,2.822-1.035s2.238,0.402,2.71,1.206c0.472,0.805,0.708,1.978,0.708,3.521v1.064h-2.412v-1.23
		c0-0.833-0.072-1.431-0.215-1.792s-0.418-0.542-0.825-0.542s-0.7,0.137-0.879,0.41s-0.269,0.684-0.269,1.23
		s0.091,0.983,0.273,1.309s0.511,0.742,0.986,1.25l1.416,1.533c0.709,0.769,1.245,1.547,1.606,2.334
		c0.361,0.788,0.542,1.647,0.542,2.578c0,1.608-0.27,2.797-0.811,3.564c-0.541,0.769-1.486,1.152-2.837,1.152
		s-2.292-0.428-2.822-1.284C96.216,172.889,95.951,171.64,95.951,169.999z"/>
	</g>
</svg>