<?xml version="1.0" encoding="utf-8"?>
<!-- Generator: Adobe Illustrator 17.0.0, SVG Export Plug-In . SVG Version: 6.00 Build 0)  -->
<!DOCTYPE svg PUBLIC "-//W3C//DTD SVG 1.1//EN" "http://www.w3.org/Graphics/SVG/1.1/DTD/svg11.dtd">
<svg version="1.1" id="Layer_1" xmlns="http://www.w3.org/2000/svg" xmlns:xlink="http://www.w3.org/1999/xlink" x="0px" y="0px"
	 width="256px" height="256px" viewBox="0 0 256 256" enable-background="new 0 0 256 256" xml:space="preserve">
	<path fill="#FFFFFF" d="M192.1,10.3c-17.1,0-32.4,8-42.3,20.6h-0.3v0.3c-7.1,9.1-11.4,20.6-11.4,33c0,29.7,24.2,53.9,53.9,53.9
	s54-24.2,54-53.9S221.9,10.3,192.1,10.3z"/>
	<path d="M192,10.3c-17.1,0-32.4,8-42.3,20.6h-0.3v0.3c-7.1,9.1-11.4,20.6-11.4,33c0,29.7,24.2,53.9,53.9,53.9s53.9-24.2,53.9-53.9
	S221.7,10.3,192,10.3z M208.6,100.9l-23.1-3L183.7,78l17.6-10.7L217,82.4L208.6,100.9z M171.2,103.3L151.9,89l-2.1-14.7l11.8-7.4
	L181.5,78l1.9,20.2L171.2,103.3z M149.1,72.2L142,57.4l9.3-15.3l9.7,2l-0.2,20.8L149.1,72.2z M188.3,19l21.3,2.9l7.3,13.6l-16.1,7.9
	l-16.5-11.5L188.3,19z M231.4,74.4l-12.6,6.7l-16.9-16.2l0.2-19.7l16-7.9L232.3,50L231.4,74.4z M233.5,74.9l1-24.5l7.1-0.9
	c1.4,4.7,2.1,9.6,2.1,14.7c0,4.6-0.6,9-1.7,13.2L233.5,74.9z M240.9,47.4l-7.1,0.9l-14.6-13.1L212,21.9l6.1-2.4
	C228.7,25.7,236.9,35.6,240.9,47.4z M178.8,14.2l7.4,4.1L182,32.1L162.3,42l-10.5-2.1l-0.2-8.1C158.5,23.4,167.9,17,178.8,14.2z
	 M149.7,40.5l-8.5,14.1c1.4-7.3,4.3-14.1,8.4-20L149.7,40.5z M140.5,59.2l7.1,14.9l2.1,14.8l-2.9,0.4c-4.1-7.4-6.5-16-6.5-25.1
	C140.3,62.5,140.4,60.8,140.5,59.2z M172.4,112.1l-0.2-6.8l12.5-5.3l23.9,3.1l4.4,8.4c-6.4,2.9-13.5,4.5-21,4.5
	C185.1,115.9,178.5,114.5,172.4,112.1z"/>
	<g>
		<path fill="#FCFF00" stroke="#000000" stroke-miterlimit="10" d="M181.5,122.5v-7.2c0-0.7,0.8-1.9,0-1.9h-7.7c-0.5,0-1,0.6-1.2,1
		c-1.1,2.4-2.9,4.5-4.2,5.6c0.4-2.5,0.5-4.1,0.5-4.1c1.5-0.4,0.2-1.6,0.2-1.6H89c0,0-1.3,1.2,0.2,1.6c0,0,0,1.6,0.5,4.1
		c-1.3-1.2-3.1-3.3-4.2-5.8c-0.2-0.5-0.7-1-1.2-1h-7.7c-0.7,0-3.1,1.1-3.1,1.9v7.2c0,0.1,0.7,0.5,0.7,0.6
		c0.3,18.7,19,27.4,20.5,28.2s3.4,2.8,3.4,2.8c0,0.7-1.9,3.3,0.2,4.1c2.1,0.9,2.3-2,2.1-3.3c-0.2-1.1-0.9-3.4-3-4.9l4.4-5.7
		c4.7,4.7,11.3,8.6,20.3,10.8c0,0.8-0.3,2.2-0.3,2.2s-2.4,0.3-2.4,2.3s2.6,2.9,4.6,2.9c0,1.3-2.1,11.4,0.8,16.4
		c0.2,0.4-0.3,1.6-1.6,2.3c-1.3,0.7-2.7,3.2,0,4.6c0.1,0.1,0,1.1,0,1.1s-4.7,0.9-6.1,9.5s-4.5,15.1-6,15.9c-1.6,0-3.1,0.2-3.1,0.2
		s-0.3,2.6-3.3,3.6c0,2.3,0,26.3,0,26.3h-1.8c0,0-3.3-1-3.3,6.4c0,1.9,0.7,2.6,1.7,3.6c1.7,0,54,0,55.8,0c1.1-1,1.7-1.7,1.7-3.6
		c0-7.4-3.3-6.4-3.3-6.4h-3.9c0,0,0-24,0-26.3c-2-1-2.3-3.6-2.3-3.6s-0.8-0.2-2.4-0.2c-1.5-0.8-4.4-7.3-5.8-15.9
		c-1.4-8.6-6-9.5-6-9.5s-0.1-1,0-1.1c2.7-1.4,1.3-3.9,0-4.6c-1.3-0.7-1.8-1.9-1.6-2.3c2.8-5,0.8-15.1,0.8-16.4c2,0,4.6-1,4.6-2.9
		c0-2-2.4-2.3-2.4-2.3s-0.3-1.4-0.3-2.2c9-2.1,15.5-6.1,20.3-10.8l4.4,5.7c-2.1,1.5-2.8,3.7-3,4.9c-0.2,1.3,0,4.1,2.1,3.3
		c2.1-0.9,0.1-3.5,0.1-4.1c0,0,1.6-2.1,3.2-2.8c1.5-0.8,18.3-8.7,18.7-27.4C181.7,123.9,181.5,122.6,181.5,122.5z M95.1,149.2
		c-4.1-2.4-17.6-12.7-17.6-27.6c0-3.2,0-4.1,0-4.1h6c2.3,4,6.2,6.6,6.4,6.7c0.2,0.1,0.4,0,0.6,0c1.3,5.4,3.9,12.6,9.8,18.9
		L95.1,149.2z M177.5,121.6c0,14.9-12,25.1-16.1,27.6l-4.3-6.1c5.8-6.4,8.9-13.7,10.3-19c0.2,0,0.5,0.3,0.7,0.2
		c0.2-0.1,4.2-2.7,6.5-6.7h2.9C177.5,117.5,177.5,118.4,177.5,121.6z"/>
		<path fill="#FFFFFF" d="M152.3,116h-30.7c0,0,0.3,8.1,6.5,10.5c5.8,2.2,14.4,2,18.7-0.2C151.4,123.9,152.3,116,152.3,116z"/>
		<rect x="127" y="156" fill="#FFFFFF" width="4" height="2"/>
		<rect x="127" y="159" fill="#FFFFFF" width="6" height="1"/>
		<path fill="#FFFFFF" d="M131,174.8c0,0-0.4,1.7-2,1.7c-1.6,0-2-1.7-2-1.7V163h4V174.8z"/>
		<rect x="127" y="184" fill="#FFFFFF" width="4" height="1"/>
		<path fill="#FFFFFF" d="M136.2,211.3c-2.5,0-8,0-10.7,0c3.3,0,1.3-20.2,2.1-21.5c0.9-1.3,5.3-1.4,6.2,0
		C134.7,191.2,138.7,211.3,136.2,211.3z"/>
		<path fill="#FFFFFF" d="M125,212.4v4.6c0,0,11.8,0,13.6,0c1.9,0,1.5-4-1.3-4S125,212.4,125,212.4z"/>
		<rect x="140" y="217" fill="#ABD100" width="7" height="25"/>
		<rect x="107" y="217" fill="#FF9F00" width="4" height="25"/>
		<rect x="127" y="179" fill="#FFFFFF" width="4" height="1"/>
		<path fill="#ABD100" d="M132.3,163.7c0,0,0.1,10,0.1,11.1c0,0.9-0.5,2.5-1.1,3.3c-0.6,0.7,0.4,1.4,0.9,1c0.5-0.5,1.2-2.1,1.1-4.1
		C133.3,171.2,132.3,163.7,132.3,163.7z"/>
		<path fill="#ABD100" d="M133.1,182.9c0,0,0.7,1.3-1.1,1.6c0.2,0.2-0.2,0.8,1.1,0.7C134.3,185.2,135.3,183.1,133.1,182.9z"/>
		<path fill="#ABD100" d="M134.6,159.1c0,0,0.7,1.9-1.7,2.1c2.6,0,4.1-0.8,3.9-1.9C136.6,158.3,135.2,159.2,134.6,159.1z"/>
		<path fill="#ABD100" d="M133.1,148.4c0,0,34-7.8,33.8-31.9c0.2,0.2,1,0,1,0s-0.5,26.3-30.5,37.7c0-0.7-6.4-1.5-6.4-1.5
		S129.5,149.3,133.1,148.4z"/>
		<g>
			<path fill="#ABD100" d="M160.9,149.3c-0.1,0-0.2-0.1-0.2-0.1l-3.7-5c-0.1-0.1-0.1-0.3,0.1-0.5c0.1-0.1,0.4-0.1,0.5,0.1l3.7,5
			c0.1,0.1,0.1,0.3-0.1,0.5C161.1,149.3,161,149.3,160.9,149.3z"/>
		</g>
		<g>
			<path fill="#FF9F00" d="M96.8,149.8c-0.1,0-0.2,0-0.2-0.1c-0.1-0.1-0.2-0.3,0-0.5l4.1-5.4c0.1-0.1,0.3-0.2,0.5,0
			c0.1,0.1,0.2,0.3,0,0.5l-4.1,5.4C97,149.8,96.9,149.8,96.8,149.8z"/>
		</g>
		<path fill="#FF9F00" d="M125.7,163.7c0,0-0.1,10-0.1,11.1c0,0.9,0.5,2.5,1.1,3.3c0.6,0.7-0.4,1.4-0.9,1c-0.5-0.5-1.2-2.1-1.1-4.1
		C124.7,171.2,125.7,163.7,125.7,163.7z"/>
		<path fill="#FF9F00" d="M124.9,182.9c0,0-0.7,1.3,1.1,1.6c-0.2,0.2,0.2,0.8-1.1,0.7C123.7,185.2,122.7,183.1,124.9,182.9z"/>
		<path fill="#FF9F00" d="M123.4,159.1c0,0-0.7,1.9,1.7,2.1c-2.6,0-4.1-0.8-3.9-1.9C121.4,158.3,122.7,159.2,123.4,159.1z"/>
		<path fill="#FF9F00" d="M124.9,148.4c0,0-34-7.8-33.8-31.9c-0.2,0.2-1,0-1,0s0.5,26.3,30.5,37.7c0-0.7,6.4-1.5,6.4-1.5
		S128.5,149.3,124.9,148.4z"/>
		<line fill="none" stroke="#957E78" stroke-miterlimit="10" x1="122" y1="156.5" x2="136" y2="156.5"/>
		<line fill="none" stroke="#957E78" stroke-miterlimit="10" x1="123" y1="162.5" x2="133" y2="162.5"/>
		<line fill="none" stroke="#957E78" stroke-miterlimit="10" x1="123" y1="187.5" x2="134" y2="187.5"/>
		<line fill="none" stroke="#957E78" stroke-miterlimit="10" x1="110" y1="211.5" x2="147" y2="211.5"/>
		<line fill="none" stroke="#957E78" stroke-miterlimit="10" x1="104" y1="217.5" x2="151" y2="217.5"/>
		<line fill="none" stroke="#957E78" stroke-miterlimit="10" x1="104" y1="242.5" x2="151" y2="242.5"/>
		<line fill="none" stroke="#957E78" stroke-miterlimit="10" x1="121" y1="158.5" x2="137" y2="158.5"/>
	</g>
	<g>
		<g>
			<path fill="#F0F0F0" d="M205.6,26.6c-4.4-1.6-9.2-2.5-14.2-2.5s-9.8,0.9-14.2,2.5L173.6,65l3.6,38.4c4.4,1.6,9.2,2.5,14.2,2.5
			s9.8-0.9,14.2-2.5l3.6-38.4L205.6,26.6z"/>
			<path fill="#D80027" d="M232.3,65c0-17.6-11.1-32.6-26.7-38.4v76.8C221.2,97.6,232.3,82.6,232.3,65z"/>
			<path fill="#0052B4" d="M150.4,65c0,17.6,11.1,32.6,26.7,38.4V26.6C161.5,32.4,150.4,47.4,150.4,65z"/>
		</g>
		<ellipse fill="none" stroke="#000000" stroke-width="1.4754" stroke-miterlimit="10" cx="191.6" cy="65.2" rx="40.8" ry="40.6"/>
	</g>
	<g>
		<g>
			<g>
				<path fill="#FFFF00" d="M38.377,208.176h-7.409v-31.952h12.936v6.833h-5.527v4.698h5.133v6.85h-5.133V208.176z M33.968,205.176
				h1.409v-13.571h5.133v-0.85h-5.133v-10.698h5.527v-0.833h-6.936V205.176z"/>
			</g>
			<g>
				<path fill="#FFFF00" d="M60.51,208.176h-7.549l-0.415-0.827c-0.223-0.442-0.324-0.645-0.324-11.053
				c0-1.023-0.108-1.471-0.162-1.629c-0.081-0.029-0.255-0.075-0.572-0.092v13.601h-7.409v-31.952h8.788
				c1.886,0,3.305,0.409,4.336,1.251c1.013,0.825,1.682,1.968,1.991,3.395c0.26,1.206,0.387,2.709,0.387,4.595
				c0,1.973-0.219,3.472-0.668,4.584c-0.193,0.478-0.451,0.904-0.768,1.277c0.317,0.407,0.598,0.92,0.815,1.564
				c0.458,1.36,0.67,3.841,0.67,7.807c0,4.144,0.071,5.252,0.105,5.543L60.51,208.176z M55.29,205.176h1.387
				c-0.028-0.933-0.045-2.335-0.045-4.479c0-4.631-0.322-6.279-0.514-6.85c-0.308-0.916-0.726-0.989-0.926-1.024l-0.193-2.908
				c0.581-0.183,0.931-0.489,1.134-0.991c0.205-0.507,0.45-1.519,0.45-3.459c0-1.646-0.107-2.979-0.32-3.96
				c-0.164-0.757-0.476-1.314-0.954-1.705c-0.461-0.376-1.306-0.575-2.44-0.575h-5.788v25.952h1.409v-13.741l2.984,0.139
				c1.387,0.032,2.409,0.465,3.003,1.283c0.516,0.71,0.747,1.771,0.747,3.439C55.222,201.383,55.255,203.917,55.29,205.176z
				 M51.765,191.084h-3.26v-11.472h2.997c1.919,0,2.769,0.818,3.143,1.505c0.4,0.735,0.578,1.905,0.578,3.795v0.182
				c0,1.356-0.058,2.358-0.177,3.062c-0.163,0.957-0.494,1.657-1.012,2.144C53.477,190.82,52.714,191.084,51.765,191.084z
				 M51.504,188.084h0.26c0.101,0,0.173-0.007,0.221-0.015c0.022-0.064,0.064-0.197,0.102-0.415
				c0.061-0.362,0.135-1.103,0.135-2.561v-0.182c0-1.4-0.115-2.017-0.177-2.248c-0.092-0.023-0.262-0.052-0.541-0.052V188.084z"/>
			</g>
			<g>
				<path fill="#FFFF00" d="M76.967,208.176h-7.17l-0.691-5.165h-2.03l-0.625,5.165h-7.303l4.557-31.952h8.414L76.967,208.176z
				 M72.422,205.176h1.056l-3.938-25.952h-3.232l-3.701,25.952h1.186l0.625-5.165h7.314L72.422,205.176z M71.672,199.474H64.48
				l2.144-17.542h2.706L71.672,199.474z M67.869,196.474h0.376l-0.196-1.47L67.869,196.474z"/>
			</g>
			<g>
				<path fill="#FFFF00" d="M92.992,208.176h-5.69l-3.49-9.96v9.96H76.75v-31.952h6.016l3.263,9.238l-0.001-9.238h6.965
				L92.992,208.176L92.992,208.176z M89.43,205.176h0.562v-25.952h-0.965v7.976l0.312,7.836l-2.914,0.56l-5.782-16.371H79.75v25.952
				h1.063v-8.88l-0.246-7.551l2.915-0.545L89.43,205.176z"/>
			</g>
			<g>
				<path fill="#FFFF00" d="M107.271,208.176H93.775v-5.623l5.521-19.529h-4.979v-6.8h13.084v5.274l-5.53,19.878h5.398v6.8H107.271z
				 M96.775,205.176h7.495v-0.8h-6.347l6.478-23.288v-1.864h-7.084v0.8h5.944l-6.487,22.945L96.775,205.176L96.775,205.176z"/>
			</g>
			<g>
				<path fill="#FFFF00" d="M115.238,208.505c-2.712,0-4.761-0.91-6.091-2.705c-1.245-1.677-1.85-4.038-1.85-7.217V185.34
				c0-4.548,1.529-6.958,3.401-8.205h-3.302v-6.718h7.639v5.464c0.109-0.002,0.218-0.003,0.323-0.003v-5.461h7.639v6.718h-3.07
				c0.542,0.377,1.012,0.839,1.409,1.384c1.184,1.629,1.76,3.859,1.76,6.821v13.243c0,3.183-0.588,5.542-1.799,7.213
				C119.995,207.594,117.956,208.505,115.238,208.505z M115.295,178.878c-2.327,0-4.998,0.734-4.998,6.462v13.243
				c0,2.477,0.424,4.304,1.259,5.431c0.744,1.004,1.948,1.491,3.681,1.491c1.726,0,2.914-0.48,3.629-1.469
				c0.815-1.125,1.229-2.96,1.229-5.453V185.34c0-2.273-0.399-3.975-1.186-5.057C118.222,179.338,117.039,178.878,115.295,178.878z
				 M118.358,174.135h1.639v-0.718h-1.639V174.135z M110.396,174.135h1.639v-0.718h-1.639V174.135z M115.213,204.688
				c-1.418,0-2.507-0.716-2.987-1.965c-0.332-0.861-0.487-2.161-0.487-4.092v-13.506c0-1.601,0.196-2.789,0.6-3.633
				c0.554-1.159,1.595-1.799,2.932-1.799c1.356,0,2.414,0.685,2.902,1.879c0.335,0.82,0.498,1.988,0.498,3.569v13.489
				c0,1.89-0.15,3.176-0.471,4.047C117.729,203.956,116.641,204.688,115.213,204.688z M115.271,182.694
				c-0.137,0-0.188,0.023-0.188,0.024c-0.129,0.262-0.343,0.874-0.343,2.407v13.506c0,2.05,0.2,2.791,0.286,3.015
				c-0.018,0.019,0.039,0.042,0.188,0.042c0.137,0,0.189-0.021,0.19-0.021c0.088-0.315,0.268-1.091,0.268-3.035v-13.489
				c0-1.532-0.172-2.183-0.275-2.435C115.436,182.705,115.386,182.694,115.271,182.694z"/>
			</g>
			<g>
				<path fill="#FFFF00" d="M131.112,208.505c-2.82,0-4.849-0.967-6.029-2.873c-1.054-1.699-1.566-4.021-1.566-7.099v-4.083h5.325
				l-1.776-1.83c-1.106-1.155-1.977-2.371-2.595-3.621c-0.654-1.319-0.986-2.85-0.986-4.547c0-2.766,0.558-4.813,1.707-6.262
				c1.216-1.534,3.21-2.312,5.929-2.312c2.807,0,4.777,0.933,5.858,2.772c0.941,1.604,1.399,3.792,1.399,6.689v3.293h-4.687
				l1.048,1.135c1.297,1.405,2.296,2.859,2.967,4.324c0.696,1.517,1.05,3.188,1.05,4.968c0,3.054-0.536,5.3-1.639,6.867
				C135.915,207.638,133.895,208.505,131.112,208.505z M126.517,197.45v1.083c0,2.467,0.375,4.324,1.116,5.519
				c0.223,0.359,0.9,1.453,3.479,1.453c1.772,0,2.935-0.427,3.551-1.304c0.726-1.031,1.093-2.761,1.093-5.142
				c0-1.345-0.261-2.595-0.776-3.717c-0.539-1.177-1.361-2.367-2.444-3.54l-2.386-2.583c-0.886-0.947-1.499-1.731-1.868-2.392
				c-0.438-0.779-0.651-1.741-0.651-2.936c0-1.231,0.228-2.179,0.697-2.895c0.579-0.884,1.551-1.369,2.735-1.369
				c1.301,0,2.316,0.678,2.785,1.86c0.318,0.804,0.467,1.938,0.467,3.571v0.572h1.063v-0.293c0-2.316-0.332-4.056-0.986-5.171
				c-0.188-0.318-0.759-1.291-3.271-1.291c-1.756,0-2.96,0.396-3.578,1.176c-0.702,0.885-1.058,2.365-1.058,4.398
				c0,1.23,0.227,2.312,0.674,3.216c0.484,0.978,1.179,1.942,2.067,2.87l2.132,2.196c1.062,1.098,1.856,2.184,2.362,3.229
				c0.536,1.106,0.809,2.397,0.809,3.837c0,1.471-0.161,2.506-0.508,3.259c-0.285,0.625-1.041,1.68-2.867,1.68
				c-1.355,0-2.423-0.692-2.93-1.898c-0.361-0.86-0.528-2.124-0.528-3.978v-1.412h-1.179V197.45z M130.695,196.685v2.178
				c0,1.908,0.206,2.605,0.295,2.816c0.002,0.07,0.238,0.063,0.336,0.049c0.073-0.209,0.202-0.744,0.202-1.928
				c0-0.982-0.171-1.833-0.508-2.528C130.928,197.08,130.819,196.884,130.695,196.685z M131.074,182.635
				c-0.209,0-0.262,0.026-0.262,0.026c-0.01,0.032-0.183,0.341-0.183,1.231c0,0.819,0.146,1.251,0.269,1.47
				c0.08,0.144,0.209,0.344,0.416,0.615v-0.917C131.314,183.517,131.156,182.868,131.074,182.635z"/>
			</g>
			<g>
				<path fill="#FFFF00" d="M146.554,208.176h-7.408v-31.952h7.408V208.176z M142.146,205.176h1.408v-25.952h-1.408V205.176z"/>
			</g>
			<g>
				<path fill="#FFFF00" d="M155.08,208.505c-2.819,0-4.848-0.967-6.029-2.873c-1.054-1.701-1.565-4.022-1.565-7.099v-4.083h5.325
				l-1.775-1.83c-1.107-1.155-1.979-2.371-2.597-3.621c-0.653-1.32-0.985-2.851-0.985-4.547c0-2.767,0.559-4.814,1.707-6.263
				c1.215-1.533,3.21-2.312,5.929-2.312c2.808,0,4.778,0.933,5.858,2.773c0.94,1.604,1.398,3.791,1.398,6.688v3.293h-4.687
				l1.048,1.135c1.298,1.405,2.297,2.859,2.968,4.324c0.696,1.52,1.05,3.19,1.05,4.968c0,3.054-0.536,5.3-1.639,6.867
				C159.883,207.638,157.861,208.505,155.08,208.505z M150.485,197.45v1.083c0,2.467,0.375,4.323,1.116,5.519
				c0.223,0.359,0.9,1.453,3.479,1.453c1.772,0,2.935-0.427,3.553-1.305c0.725-1.03,1.092-2.76,1.092-5.141
				c0-1.343-0.262-2.594-0.776-3.718c-0.539-1.176-1.361-2.366-2.444-3.539l-2.386-2.583c-0.889-0.95-1.502-1.734-1.869-2.392
				c-0.432-0.771-0.651-1.76-0.651-2.936c0-1.23,0.229-2.177,0.698-2.895c0.577-0.883,1.549-1.369,2.735-1.369
				c1.301,0,2.315,0.678,2.784,1.86c0.319,0.805,0.468,1.939,0.468,3.571v0.572h1.062v-0.293c0-2.316-0.332-4.056-0.986-5.171
				c-0.188-0.319-0.758-1.291-3.271-1.291c-1.756,0-2.96,0.396-3.578,1.176c-0.702,0.885-1.058,2.364-1.058,4.398
				c0,1.23,0.227,2.312,0.674,3.216c0.483,0.977,1.179,1.941,2.067,2.87l2.132,2.196c1.062,1.098,1.856,2.184,2.362,3.229
				c0.536,1.106,0.809,2.397,0.809,3.837c0,1.468-0.161,2.503-0.507,3.257c-0.288,0.629-1.044,1.682-2.869,1.682
				c-1.354,0-2.422-0.692-2.929-1.898c-0.36-0.856-0.528-2.12-0.528-3.978v-1.412h-1.179V197.45z M154.664,196.685v2.178
				c0,1.91,0.205,2.604,0.294,2.814c0.004,0.073,0.239,0.064,0.337,0.05c0.072-0.206,0.202-0.743,0.202-1.927
				c0-0.982-0.171-1.833-0.508-2.528C154.896,197.08,154.788,196.884,154.664,196.685z M155.041,182.635
				c-0.207,0-0.26,0.026-0.261,0.026c-0.009,0.033-0.183,0.343-0.183,1.231c0,0.817,0.146,1.252,0.27,1.472
				c0.08,0.143,0.208,0.342,0.416,0.614v-0.918C155.283,183.519,155.125,182.869,155.041,182.635z"/>
			</g>
			<g>
				<path fill="#FFFF00" d="M170.47,208.505c-2.63,0-4.649-0.927-6.002-2.754c-1.248-1.688-1.881-4.066-1.881-7.069v-12.618
				c0-4.919,1.428-8.092,4.245-9.431c1.031-0.49,2.266-0.738,3.67-0.738c2.84,0,7.604,1.195,7.604,9.199v5.48h-7.261v-5.201
				c0-1.699-0.172-2.389-0.274-2.649c0.072,0-0.144-0.015-0.188-0.004c-0.002,0.009-0.021,0.038-0.042,0.091
				c-0.117,0.278-0.312,0.977-0.312,2.546v13.522c0,1.775,0.188,2.497,0.299,2.77c0.014,0.034,0.026,0.057,0.035,0.072
				c0.008,0,0.036,0.001,0.074,0.001c0.033,0,0.057-0.002,0.073-0.004c0.003-0.013,0.017-0.038,0.032-0.077
				c0.113-0.28,0.303-1.02,0.303-2.812v-5.646h7.326v5.597c0,3.156-0.587,5.48-1.793,7.104
				C175.086,207.623,173.098,208.505,170.47,208.505z M170.502,178.895c-0.955,0-1.757,0.15-2.383,0.448
				c-1.68,0.798-2.532,3.06-2.532,6.721v12.618c0,2.347,0.435,4.125,1.293,5.285c0.766,1.035,1.94,1.538,3.59,1.538
				s2.795-0.461,3.5-1.409c0.797-1.073,1.201-2.861,1.201-5.315v-2.597h-1.326v2.646c0,1.802-0.165,3.051-0.52,3.932
				c-0.503,1.247-1.556,1.961-2.889,1.961c-1.329,0-2.381-0.705-2.885-1.935c-0.357-0.87-0.523-2.112-0.523-3.908v-13.522
				c0-1.62,0.178-2.832,0.545-3.705c0.516-1.233,1.578-1.94,2.912-1.94c1.351,0,2.398,0.698,2.877,1.915
				c0.329,0.834,0.482,2.025,0.482,3.747v2.201h1.261v-2.48C175.105,179.6,172.646,178.895,170.502,178.895z"/>
			</g>
			<g>
				<path fill="#FFFF00" d="M194.522,208.176h-7.408V194.72h-0.948v13.456h-7.409v-31.952h7.409v11.713h0.948v-11.713h7.408V208.176z
				 M190.114,205.176h1.408v-25.952h-1.408v11.713h-6.948v-11.713h-1.409v25.952h1.409V191.72h6.948V205.176z"/>
			</g>
			<g>
				<path fill="#FFFF00" d="M208.769,208.176h-12.903v-31.952h12.706v6.8h-5.297v5.423h5.033v6.718h-5.033v6.212h5.494V208.176z
				 M198.865,205.176h6.903v-0.8h-5.494v-12.212h5.033v-0.718h-5.033v-11.423h5.297v-0.8h-6.706V205.176z"/>
			</g>
			<g>
				<path fill="#FFFF00" d="M225.721,208.176h-7.547l-0.416-0.824c-0.224-0.443-0.326-0.646-0.326-11.056
				c0-1.024-0.108-1.472-0.162-1.629c-0.081-0.029-0.255-0.075-0.572-0.092v13.601h-7.408v-31.952h8.787
				c1.886,0,3.305,0.409,4.337,1.251c1.012,0.824,1.681,1.967,1.99,3.395c0.261,1.209,0.388,2.711,0.388,4.595
				c0,1.974-0.219,3.473-0.669,4.585c-0.193,0.477-0.451,0.903-0.768,1.276c0.317,0.407,0.599,0.92,0.815,1.565
				c0.458,1.36,0.671,3.841,0.671,7.806c0,4.144,0.071,5.252,0.105,5.543L225.721,208.176z M220.499,205.176h1.387
				c-0.028-0.933-0.045-2.335-0.045-4.479c0-4.629-0.322-6.278-0.515-6.85c-0.308-0.916-0.726-0.989-0.926-1.024l-0.192-2.908
				c0.58-0.183,0.93-0.488,1.133-0.991c0.206-0.507,0.45-1.519,0.45-3.459c0-1.645-0.107-2.978-0.319-3.961
				c-0.164-0.756-0.477-1.313-0.955-1.704c-0.462-0.376-1.306-0.575-2.44-0.575h-5.787v25.952h1.408v-13.741l2.984,0.139
				c1.388,0.033,2.409,0.466,3.003,1.284c0.516,0.707,0.747,1.769,0.747,3.438C220.432,201.384,220.465,203.917,220.499,205.176z
				 M216.975,191.084h-3.261v-11.472h2.997c1.918,0,2.768,0.818,3.143,1.504c0.4,0.737,0.578,1.907,0.578,3.796v0.182
				c0,1.359-0.058,2.362-0.178,3.064c-0.162,0.955-0.493,1.655-1.012,2.142C218.688,190.82,217.925,191.084,216.975,191.084z
				 M216.714,188.084h0.261c0.101,0,0.173-0.007,0.221-0.015c0.021-0.064,0.064-0.197,0.102-0.415
				c0.062-0.361,0.135-1.1,0.135-2.561v-0.182c0-1.398-0.114-2.016-0.177-2.248c-0.093-0.023-0.262-0.052-0.541-0.052
				L216.714,188.084L216.714,188.084z"/>
			</g>
			<g>
				<path fill="#FFFF00" d="M52.787,242.176h-6.932v-5.364l-0.992,5.232h-5.979l-1.166-5.9v6.032H30.82v-31.952h8.214l2.831,14.56
				l2.66-14.56h8.262C52.787,210.224,52.787,242.176,52.787,242.176z M48.855,239.176h0.932v-25.952h-2.76l-3.641,19.925
				l-2.948,0.017l-3.876-19.941H33.82v25.952h0.899v-9.291l-0.165-9.878l2.972-0.316l3.824,19.354h1.029l3.667-19.342l2.974,0.305
				l-0.165,9.903C48.855,229.912,48.855,239.176,48.855,239.176z"/>
			</g>
			<g>
				<path fill="#FFFF00" d="M67.049,242.176H54.146v-31.952h12.706v6.8h-5.297v5.423h5.034v6.718h-5.034v6.212h5.494
				C67.049,235.377,67.049,242.176,67.049,242.176z M57.146,239.176h6.903v-0.8h-5.494v-12.212h5.034v-0.718h-5.034v-11.423h5.297
				v-0.8h-6.706C57.146,213.223,57.146,239.176,57.146,239.176z"/>
			</g>
			<g>
				<path fill="#FFFF00" d="M75.143,242.176h-7.409v-31.952h7.409V242.176z M70.734,239.176h1.409v-25.952h-1.409V239.176z"/>
			</g>
			<g>
				<path fill="#FFFF00" d="M83.669,242.505c-2.819,0-4.848-0.967-6.029-2.873c-1.054-1.699-1.566-4.021-1.566-7.099v-4.083h5.325
				l-1.776-1.83c-1.106-1.155-1.977-2.371-2.595-3.621c-0.654-1.319-0.986-2.85-0.986-4.547c0-2.766,0.558-4.813,1.707-6.262
				c1.216-1.534,3.21-2.312,5.929-2.312c2.807,0,4.778,0.933,5.858,2.772c0.941,1.604,1.399,3.792,1.399,6.689v3.293h-4.687
				l1.048,1.135c1.298,1.405,2.296,2.859,2.968,4.324c0.696,1.518,1.049,3.189,1.049,4.968c0,3.054-0.536,5.3-1.638,6.867
				C88.472,241.638,86.451,242.505,83.669,242.505z M79.074,231.45v1.083c0,2.467,0.375,4.324,1.116,5.519
				c0.223,0.359,0.9,1.453,3.479,1.453c1.773,0,2.935-0.427,3.552-1.305c0.725-1.03,1.092-2.76,1.092-5.141
				c0-1.344-0.261-2.595-0.776-3.717c-0.54-1.177-1.362-2.367-2.445-3.54l-2.385-2.583c-0.887-0.948-1.5-1.733-1.869-2.392
				c-0.438-0.781-0.651-1.742-0.651-2.936c0-1.23,0.228-2.178,0.698-2.895c0.578-0.883,1.549-1.369,2.735-1.369
				c1.301,0,2.316,0.678,2.785,1.86c0.319,0.805,0.467,1.939,0.467,3.571v0.572h1.063v-0.293c0-2.316-0.332-4.056-0.986-5.171
				c-0.188-0.318-0.759-1.291-3.271-1.291c-1.756,0-2.96,0.396-3.578,1.176c-0.702,0.885-1.058,2.365-1.058,4.398
				c0,1.23,0.227,2.312,0.674,3.216c0.484,0.978,1.179,1.942,2.067,2.87l2.132,2.196c1.062,1.098,1.856,2.184,2.362,3.229
				c0.536,1.106,0.808,2.397,0.808,3.837c0,1.469-0.161,2.504-0.507,3.258c-0.288,0.627-1.043,1.681-2.869,1.681
				c-1.355,0-2.422-0.692-2.929-1.898c-0.36-0.858-0.528-2.122-0.528-3.978v-1.412h-1.178V231.45z M83.252,230.685v2.178
				c0,1.909,0.206,2.605,0.294,2.815c0.002,0.071,0.24,0.066,0.337,0.049c0.073-0.207,0.202-0.743,0.202-1.927
				c0-0.982-0.171-1.833-0.508-2.528C83.485,231.08,83.376,230.884,83.252,230.685z M83.63,216.635
				c-0.208,0-0.261,0.026-0.261,0.026c-0.01,0.033-0.183,0.342-0.183,1.231c0,0.818,0.146,1.251,0.27,1.471
				c0.08,0.143,0.208,0.343,0.416,0.614v-0.917C83.872,217.518,83.713,216.869,83.63,216.635z"/>
			</g>
			<g>
				<path fill="#FFFF00" d="M100.41,242.176h-7.392V217.04h-3.389v-6.816h14.038v6.816h-3.257V242.176z M96.018,239.176h1.392V214.04
				h3.257v-0.816h-8.038v0.816h3.389C96.018,214.04,96.018,239.176,96.018,239.176z"/>
			</g>
			<g>
				<path fill="#FFFF00" d="M116.005,242.176h-12.903v-31.952h12.706v6.8h-5.297v5.423h5.034v6.718h-5.034v6.212h5.494
				C116.005,235.377,116.005,242.176,116.005,242.176z M106.102,239.176h6.903v-0.8h-5.494v-12.212h5.034v-0.718h-5.034v-11.423
				h5.297v-0.8h-6.706C106.102,213.223,106.102,239.176,106.102,239.176z"/>
			</g>
			<g>
				<path fill="#FFFF00" d="M132.957,242.176h-7.549l-0.415-0.827c-0.223-0.442-0.324-0.645-0.324-11.053
				c0-1.023-0.108-1.471-0.162-1.629c-0.081-0.029-0.255-0.075-0.572-0.092v13.601h-7.409v-31.952h8.788
				c1.886,0,3.304,0.409,4.336,1.25c1.014,0.828,1.683,1.97,1.99,3.396c0.261,1.202,0.388,2.705,0.388,4.594
				c0,1.972-0.219,3.471-0.668,4.583c-0.193,0.479-0.451,0.905-0.768,1.278c0.316,0.407,0.598,0.919,0.815,1.564
				c0.457,1.359,0.67,3.84,0.67,7.807c0,4.144,0.071,5.252,0.105,5.543L132.957,242.176z M127.736,239.176h1.386
				c-0.028-0.933-0.045-2.335-0.045-4.479c0-4.399-0.279-6.153-0.514-6.85c-0.309-0.916-0.726-0.989-0.927-1.024l-0.193-2.908
				c0.582-0.184,0.931-0.489,1.134-0.991c0.205-0.507,0.449-1.519,0.449-3.459c0-1.649-0.107-2.981-0.319-3.96
				c-0.163-0.757-0.476-1.314-0.955-1.705c-0.461-0.376-1.306-0.575-2.44-0.575h-5.788v25.952h1.409v-13.741l2.984,0.139
				c1.387,0.032,2.409,0.465,3.003,1.283c0.516,0.71,0.747,1.771,0.747,3.439C127.668,235.383,127.702,237.917,127.736,239.176z
				 M124.211,225.084h-3.26v-11.472h2.997c1.919,0,2.769,0.818,3.143,1.505c0.4,0.735,0.578,1.905,0.578,3.795v0.182
				c0,1.356-0.058,2.358-0.177,3.062c-0.163,0.957-0.494,1.657-1.012,2.144C125.923,224.82,125.16,225.084,124.211,225.084z
				 M123.951,222.084h0.26c0.101,0,0.173-0.007,0.221-0.015c0.022-0.064,0.064-0.197,0.102-0.415
				c0.061-0.362,0.135-1.103,0.135-2.561v-0.182c0-1.4-0.115-2.017-0.177-2.248c-0.092-0.023-0.262-0.052-0.541-0.052V222.084z"/>
			</g>
			<g>
				<path fill="#FFFF00" d="M146.287,244.035h-1.5c-1.204,0-2.178-0.101-2.975-0.308c-0.925-0.24-1.723-0.691-2.372-1.342
				c-0.659-0.658-1.119-1.529-1.37-2.589c-0.216-0.911-0.32-2.023-0.32-3.4V221.89c0-1.376,0.104-2.488,0.32-3.4
				c0.251-1.059,0.711-1.929,1.369-2.588c0.648-0.649,1.446-1.101,2.371-1.342c0.799-0.208,1.772-0.309,2.977-0.309h1.5v5.734h-1.5
				c-0.121,0-0.213,0.007-0.279,0.016c-0.049,0.242-0.121,0.78-0.121,1.834v14.615c0,1.047,0.071,1.584,0.123,1.834
				c0.066,0.009,0.157,0.016,0.277,0.016h1.5V244.035z M142.956,217.381c-0.14,0.023-0.27,0.052-0.39,0.083
				c-0.405,0.105-0.734,0.289-1.005,0.559c-0.259,0.259-0.451,0.649-0.571,1.158c-0.159,0.673-0.24,1.585-0.24,2.71v14.506
				c0,1.126,0.081,2.037,0.24,2.71c0.12,0.51,0.312,0.899,0.571,1.158c0.271,0.271,0.6,0.453,1.005,0.559
				c0.12,0.031,0.25,0.06,0.39,0.083c-0.537-0.283-0.858-0.676-1.049-1.031c-0.365-0.68-0.521-1.703-0.521-3.424v-14.615
				c0-1.721,0.155-2.744,0.521-3.424C142.098,218.057,142.419,217.664,142.956,217.381z"/>
			</g>
			<g>
				<path fill="#FFFF00" d="M157.553,242.176h-11.299v-27.062h6.664v20.945h4.635V242.176z M149.254,239.176h5.299v-0.117h-4.635
				v-20.945h-0.664V239.176z"/>
			</g>
			<g>
				<path fill="#FFFF00" d="M163.459,242.176h-6.664v-27.062h6.664V242.176z M159.795,239.176h0.664v-21.062h-0.664V239.176z"/>
			</g>
			<g>
				<path fill="#FFFF00" d="M170.23,242.422c-1.988,0-3.637-0.833-4.767-2.41c-1.05-1.464-1.56-3.55-1.56-6.377v-10.459
				c0-2.543,0.539-4.556,1.604-5.982c1.165-1.562,2.966-2.354,5.352-2.354c3.796,0,5.309,1.973,5.908,3.627
				c0.447,1.235,0.664,2.819,0.664,4.846v18.863h-4.327l-0.117-0.496C172.168,242.173,171.243,242.422,170.23,242.422z
				 M170.859,217.84c-1.407,0-2.371,0.375-2.947,1.147c-0.669,0.896-1.008,2.306-1.008,4.188v10.459
				c0,2.118,0.345,3.719,0.997,4.629c0.574,0.801,1.293,1.158,2.329,1.158c0.289,0,0.553-0.04,0.797-0.122
				c-1.355,0.063-2.495-0.627-2.978-1.889c-0.31-0.809-0.454-2.026-0.454-3.831v-10.432c0-1.631,0.176-2.744,0.553-3.504
				c0.516-1.038,1.501-1.633,2.704-1.633c1.63,0,2.355,0.926,2.643,1.478c0.354,0.681,0.519,1.639,0.519,3.017v1.016h0.418v-0.209
				c0-1.648-0.163-2.935-0.484-3.823C173.669,218.722,173.066,217.84,170.859,217.84z M174.232,229.037v4.406
				c0,1.825-0.176,3.083-0.554,3.958c-0.087,0.203-0.189,0.392-0.305,0.564l1.058-0.001v-8.928h-0.199V229.037z M170.838,236.299
				h0.047c0.005-0.015,0.021-0.044,0.039-0.086c0.094-0.215,0.309-0.914,0.309-2.77v-1.74h-0.637v1.877
				C170.596,235.357,170.755,236.056,170.838,236.299z M170.596,226.037h0.418v-3.531c0-0.859-0.079-1.297-0.132-1.494
				c-0.01,0-0.019,0-0.029,0l0,0c-0.014,0-0.022-0.001-0.028-0.004c-0.071,0.177-0.229,0.719-0.229,2.141L170.596,226.037
				L170.596,226.037z"/>
			</g>
			<g>
				<path fill="#FFFF00" d="M184.552,242.449c-2.324,0-4.079-0.718-5.216-2.133c-1.073-1.334-1.596-3.238-1.596-5.82V215.1h6.664
				v19.328c0,1.415,0.079,1.771,0.088,1.808c0.012,0.021,0.027,0.05,0.046,0.083c0.007,0,0.014,0,0.021,0l0,0
				c0.034-0.095,0.052-0.198,0.061-0.281c0.044-0.408,0.066-0.949,0.066-1.609V215.1h6.664v19.396c0,2.592-0.52,4.498-1.589,5.828
				C188.628,241.734,186.875,242.449,184.552,242.449z M180.74,218.1v16.396c0,1.818,0.323,3.182,0.934,3.94
				c0.548,0.682,1.488,1.013,2.878,1.013c1.389,0,2.327-0.329,2.871-1.005c0.606-0.754,0.927-2.119,0.927-3.948V218.1h-0.664v16.328
				c0,0.778-0.027,1.41-0.084,1.932c-0.078,0.724-0.313,1.357-0.699,1.883c-0.359,0.49-1.059,1.076-2.344,1.076
				c-1.021,0-1.776-0.313-2.243-0.931c-0.238-0.314-0.444-0.67-0.61-1.055c-0.186-0.43-0.301-1.065-0.301-2.905V218.1H180.74z"/>
			</g>
			<g>
				<path fill="#FFFF00" d="M203.053,242.176h-11.23v-27.062h11.066v6.158h-4.402v4h4.184v6.09h-4.184v4.656h4.566V242.176z
				 M194.822,239.176h5.23v-0.158h-4.566v-10.656h4.184v-0.09h-4.184v-10h4.402v-0.158h-5.066V239.176z"/>
			</g>
			<g>
				<path fill="#FFFF00" d="M216.383,242.176h-6.664v-18.532c-0.496,0.123-0.991,0.185-1.48,0.185h-1.5v-5.523l1.29-0.183
				c0.527-0.074,1.024-0.29,1.521-0.661c0.486-0.361,0.849-0.835,1.108-1.448l0.389-0.913h5.336V242.176z M212.719,239.176h0.664
				V218.1h-0.432c-0.074,0.121-0.151,0.238-0.232,0.354V239.176z"/>
			</g>
			<g>
				<path fill="#FFFF00" d="M218.109,244.035h-1.5v-5.734h1.5c0.121,0,0.213-0.007,0.279-0.016c0.049-0.242,0.121-0.78,0.121-1.834
				v-14.615c0-1.046-0.071-1.583-0.123-1.834c-0.066-0.009-0.157-0.016-0.277-0.016h-1.5v-5.734h1.5
				c1.204,0,2.178,0.101,2.975,0.308c0.928,0.243,1.725,0.695,2.37,1.347c0.651,0.658,1.108,1.527,1.358,2.583
				c0.216,0.913,0.32,2.025,0.32,3.401v14.506c0,1.377-0.104,2.489-0.32,3.401c-0.25,1.057-0.707,1.927-1.358,2.583
				c-0.647,0.653-1.444,1.105-2.37,1.347C220.287,243.935,219.313,244.035,218.109,244.035z M219.94,217.38
				c0.537,0.283,0.858,0.677,1.049,1.032c0.365,0.68,0.521,1.703,0.521,3.424v14.615c0,1.721-0.155,2.744-0.521,3.424
				c-0.19,0.355-0.512,0.748-1.049,1.031c0.14-0.023,0.27-0.052,0.39-0.083c0.402-0.104,0.728-0.285,0.993-0.554
				c0.257-0.26,0.448-0.65,0.569-1.162c0.159-0.674,0.24-1.585,0.24-2.711V221.89c0-1.125-0.081-2.037-0.24-2.711
				c-0.121-0.511-0.312-0.902-0.57-1.163c-0.265-0.267-0.59-0.448-0.994-0.554C220.209,217.432,220.079,217.404,219.94,217.38z"/>
			</g>
		</g>
		<g>
			<g>
				<path d="M32.468,206.676v-28.952h9.936v3.833h-5.527v7.698h5.133v3.85h-5.133v13.571H32.468z"/>
			</g>
			<g>
				<path d="M51.402,193.071l-1.415-0.065v13.67h-4.409v-28.952h7.288c1.513,0,2.643,0.305,3.389,0.913s1.236,1.459,1.472,2.55
				s0.354,2.517,0.354,4.277s-0.187,3.101-0.559,4.021c-0.373,0.922-1.064,1.541-2.073,1.859c0.998,0.175,1.694,0.85,2.089,2.023
				c0.395,1.173,0.592,3.616,0.592,7.328c0,3.713,0.055,5.706,0.164,5.979h-4.408c-0.11-0.219-0.165-3.679-0.165-10.38
				c0-1.283-0.154-2.136-0.461-2.558C52.954,193.315,52.334,193.094,51.402,193.071z M50.004,189.584h1.76
				c0.559,0,0.973-0.126,1.242-0.378s0.455-0.686,0.56-1.3c0.104-0.614,0.156-1.552,0.156-2.812v-0.182
				c0-1.567-0.132-2.593-0.395-3.076c-0.263-0.482-0.872-0.724-1.826-0.724h-1.497C50.004,181.112,50.004,189.584,50.004,189.584z"
				/>
			</g>
			<g>
				<path d="M60.878,206.676l4.129-28.952h5.823l4.393,28.952H71.11l-0.691-5.165h-4.672l-0.625,5.165H60.878z M69.958,197.974
				l-1.941-14.542h-0.065l-1.777,14.542H69.958z"/>
			</g>
			<g>
				<path d="M78.25,206.676v-28.952h3.455l6.136,17.371l-0.312-7.896v-9.476h3.965v28.952h-3.126l-6.3-17.979l0.247,7.6v10.38
				L78.25,206.676L78.25,206.676z"/>
			</g>
			<g>
				<path d="M95.275,206.676v-3.915l6.004-21.237h-5.461v-3.8h10.084v3.569l-6.004,21.583h5.873v3.8L95.275,206.676L95.275,206.676z"
				/>
			</g>
			<g>
				<path d="M120.082,204.916c-1.009,1.393-2.624,2.089-4.844,2.089c-2.221,0-3.85-0.699-4.886-2.098
				c-1.037-1.397-1.555-3.506-1.555-6.324V185.34c0-5.308,2.166-7.962,6.498-7.962c2.237,0,3.847,0.675,4.828,2.023
				c0.981,1.35,1.473,3.329,1.473,5.938v13.243C121.596,201.412,121.091,203.523,120.082,204.916z M108.896,175.635v-3.718h4.639
				v3.718H108.896z M113.625,202.186c0.257,0.669,0.787,1.003,1.587,1.003c0.8,0,1.327-0.343,1.579-1.028s0.378-1.861,0.378-3.528
				v-13.489c0-1.371-0.129-2.371-0.387-3.002s-0.762-0.946-1.513-0.946s-1.278,0.315-1.579,0.946
				c-0.302,0.631-0.453,1.626-0.453,2.985v13.506C113.239,200.332,113.368,201.517,113.625,202.186z M116.858,175.635v-3.718h4.639
				v3.718H116.858z"/>
			</g>
			<g>
				<path d="M125.017,198.533v-2.583h4.178v2.912c0,1.612,0.138,2.744,0.411,3.396c0.274,0.653,0.79,0.979,1.547,0.979
				s1.259-0.269,1.505-0.807c0.247-0.537,0.37-1.414,0.37-2.632c0-1.217-0.22-2.278-0.658-3.183s-1.135-1.852-2.089-2.838
				l-2.139-2.204c-0.998-1.042-1.774-2.122-2.328-3.241c-0.554-1.118-0.831-2.412-0.831-3.882c0-2.391,0.46-4.168,1.382-5.33
				c0.921-1.162,2.506-1.744,4.754-1.744s3.77,0.678,4.565,2.032s1.192,3.331,1.192,5.93v1.793h-4.063v-2.072
				c0-1.403-0.12-2.41-0.361-3.019s-0.705-0.913-1.391-0.913s-1.179,0.23-1.48,0.69c-0.302,0.461-0.452,1.152-0.452,2.073
				s0.153,1.656,0.461,2.204c0.307,0.549,0.86,1.25,1.661,2.105l2.385,2.583c1.195,1.294,2.098,2.604,2.706,3.932
				c0.609,1.327,0.913,2.774,0.913,4.343c0,2.709-0.455,4.71-1.365,6.004c-0.91,1.295-2.503,1.941-4.778,1.941
				c-2.276,0-3.861-0.721-4.754-2.163C125.464,203.399,125.017,201.297,125.017,198.533z"/>
			</g>
			<g>
				<path d="M140.646,206.676v-28.952h4.408v28.952H140.646z"/>
			</g>
			<g>
				<path d="M148.985,198.533v-2.583h4.179v2.912c0,1.612,0.137,2.744,0.411,3.396c0.274,0.653,0.79,0.979,1.546,0.979
				c0.757,0,1.259-0.269,1.506-0.807c0.246-0.537,0.37-1.414,0.37-2.632c0-1.217-0.22-2.278-0.658-3.183s-1.135-1.852-2.089-2.838
				l-2.139-2.204c-0.998-1.042-1.774-2.122-2.328-3.241c-0.554-1.118-0.83-2.412-0.83-3.882c0-2.391,0.46-4.168,1.382-5.33
				c0.921-1.162,2.505-1.744,4.754-1.744c2.248,0,3.77,0.678,4.564,2.032s1.192,3.331,1.192,5.93v1.793h-4.062v-2.072
				c0-1.403-0.121-2.41-0.362-3.019s-0.705-0.913-1.39-0.913c-0.686,0-1.18,0.23-1.48,0.69c-0.302,0.461-0.453,1.152-0.453,2.073
				s0.154,1.656,0.461,2.204c0.307,0.549,0.861,1.25,1.661,2.105l2.386,2.583c1.195,1.294,2.098,2.604,2.706,3.932
				s0.913,2.774,0.913,4.343c0,2.709-0.455,4.71-1.365,6.004c-0.911,1.295-2.504,1.941-4.779,1.941s-3.86-0.721-4.754-2.163
				S148.985,201.297,148.985,198.533z"/>
			</g>
			<g>
				<path d="M175.174,204.99c-0.998,1.343-2.566,2.015-4.704,2.015c-2.139,0-3.737-0.716-4.796-2.146
				c-1.059-1.432-1.587-3.49-1.587-6.177v-12.618c0-4.31,1.129-7.002,3.389-8.076c0.833-0.396,1.842-0.593,3.026-0.593
				c4.068,0,6.104,2.566,6.104,7.699v3.98h-4.261v-3.701c0-1.491-0.126-2.558-0.379-3.199c-0.252-0.642-0.745-0.963-1.48-0.963
				c-0.734,0-1.244,0.34-1.529,1.021c-0.285,0.68-0.428,1.722-0.428,3.125v13.522c0,1.557,0.137,2.67,0.411,3.339
				s0.773,1.004,1.497,1.004s1.223-0.34,1.497-1.021c0.273-0.68,0.411-1.804,0.411-3.372v-4.146h4.326v4.097
				C176.671,201.576,176.172,203.646,175.174,204.99z"/>
			</g>
			<g>
				<path d="M180.257,206.676v-28.952h4.409v11.713h3.948v-11.713h4.408v28.952h-4.408V193.22h-3.948v13.456H180.257z"/>
			</g>
			<g>
				<path d="M197.365,206.676v-28.952h9.706v3.8h-5.297v8.423h5.033v3.718h-5.033v9.212h5.494v3.8h-9.903V206.676z"/>
			</g>
			<g>
				<path d="M216.612,193.071l-1.415-0.065v13.67h-4.408v-28.952h7.287c1.514,0,2.643,0.305,3.389,0.913s1.236,1.459,1.473,2.55
				c0.235,1.091,0.354,2.517,0.354,4.277s-0.187,3.101-0.56,4.021c-0.373,0.922-1.063,1.541-2.072,1.859
				c0.998,0.175,1.694,0.85,2.089,2.023c0.395,1.173,0.593,3.616,0.593,7.328c0,3.713,0.055,5.706,0.164,5.979h-4.408
				c-0.11-0.219-0.165-3.679-0.165-10.38c0-1.283-0.153-2.136-0.461-2.558C218.164,193.315,217.544,193.094,216.612,193.071z
				 M215.214,189.584h1.761c0.559,0,0.973-0.126,1.241-0.378s0.455-0.686,0.56-1.3s0.156-1.552,0.156-2.812v-0.182
				c0-1.567-0.132-2.593-0.395-3.076c-0.264-0.482-0.872-0.724-1.826-0.724h-1.497V189.584z"/>
			</g>
			<g>
				<path d="M32.32,240.676v-28.952h5.478l4.112,21.155l3.866-21.155h5.511v28.952h-3.932v-10.791l0.165-9.903l-3.899,20.562h-3.504
				l-4.063-20.562l0.165,9.903v10.791H32.32z"/>
			</g>
			<g>
				<path d="M55.646,240.676v-28.952h9.706v3.8h-5.297v8.423h5.034v3.718h-5.034v9.212h5.494v3.8h-9.903V240.676z"/>
			</g>
			<g>
				<path d="M69.234,240.676v-28.952h4.409v28.952H69.234z"/>
			</g>
			<g>
				<path d="M77.574,232.533v-2.583h4.178v2.912c0,1.612,0.137,2.744,0.411,3.396c0.274,0.653,0.79,0.979,1.546,0.979
				c0.757,0,1.259-0.269,1.505-0.807c0.247-0.537,0.37-1.414,0.37-2.632c0-1.217-0.22-2.278-0.658-3.183
				c-0.438-0.905-1.135-1.852-2.089-2.838l-2.139-2.204c-0.998-1.042-1.774-2.122-2.328-3.241c-0.554-1.118-0.831-2.412-0.831-3.882
				c0-2.391,0.46-4.168,1.382-5.33c0.921-1.162,2.505-1.744,4.754-1.744c2.248,0,3.77,0.678,4.565,2.032
				c0.795,1.354,1.192,3.331,1.192,5.93v1.793h-4.063v-2.072c0-1.403-0.121-2.41-0.362-3.019s-0.705-0.913-1.39-0.913
				c-0.686,0-1.179,0.23-1.48,0.69c-0.302,0.461-0.453,1.152-0.453,2.073s0.154,1.656,0.461,2.204
				c0.307,0.549,0.861,1.25,1.661,2.105l2.385,2.583c1.195,1.294,2.098,2.604,2.706,3.932c0.609,1.327,0.913,2.774,0.913,4.343
				c0,2.709-0.455,4.71-1.365,6.004c-0.911,1.295-2.503,1.941-4.779,1.941s-3.86-0.721-4.754-2.163
				C78.021,237.399,77.574,235.297,77.574,232.533z"/>
			</g>
			<g>
				<path d="M94.518,240.676V215.54h-3.389v-3.816h11.038v3.816H98.91v25.136H94.518z"/>
			</g>
			<g>
				<path d="M104.602,240.676v-28.952h9.706v3.8h-5.297v8.423h5.034v3.718h-5.034v9.212h5.494v3.8h-9.903V240.676z"/>
			</g>
			<g>
				<path d="M123.849,227.071l-1.415-0.065v13.67h-4.409v-28.952h7.288c1.513,0,2.643,0.305,3.389,0.913
				c0.745,0.608,1.236,1.459,1.472,2.55c0.236,1.091,0.354,2.517,0.354,4.277s-0.187,3.101-0.559,4.021
				c-0.373,0.922-1.064,1.541-2.073,1.859c0.998,0.175,1.694,0.85,2.09,2.023c0.395,1.173,0.592,3.616,0.592,7.328
				c0,3.713,0.055,5.706,0.164,5.979h-4.408c-0.11-0.219-0.165-3.679-0.165-10.38c0-1.283-0.154-2.136-0.461-2.558
				C125.4,227.315,124.781,227.094,123.849,227.071z M122.451,223.584h1.76c0.559,0,0.973-0.126,1.242-0.378s0.455-0.686,0.56-1.3
				c0.104-0.614,0.156-1.552,0.156-2.812v-0.182c0-1.567-0.132-2.593-0.395-3.076c-0.263-0.482-0.872-0.724-1.826-0.724h-1.497
				V223.584z"/>
			</g>
			<g>
				<path d="M144.787,242.535c-1.066,0-1.933-0.087-2.598-0.26s-1.229-0.49-1.688-0.95s-0.784-1.084-0.971-1.873
				c-0.187-0.788-0.28-1.807-0.28-3.056V221.89c0-1.248,0.094-2.267,0.28-3.056c0.187-0.788,0.511-1.412,0.971-1.873
				c0.46-0.46,1.023-0.776,1.688-0.95c0.665-0.173,1.531-0.26,2.598-0.26v2.734c-0.812,0-1.331,0.212-1.559,0.636
				s-0.342,1.329-0.342,2.714v14.615c0,1.386,0.114,2.29,0.342,2.714s0.747,0.636,1.559,0.636V242.535z"/>
			</g>
			<g>
				<path d="M147.754,240.676v-24.062h3.664v20.945h4.635v3.117H147.754z"/>
			</g>
			<g>
				<path d="M158.295,240.676v-24.062h3.664v24.062H158.295z"/>
			</g>
			<g>
				<path d="M170.23,240.922c-1.513,0-2.695-0.595-3.548-1.784s-1.278-3.023-1.278-5.503v-10.459c0-2.224,0.436-3.919,1.306-5.086
				c0.87-1.166,2.254-1.75,4.149-1.75c2.36,0,3.86,0.88,4.498,2.639c0.383,1.058,0.574,2.502,0.574,4.334v1.709h-3.418v-2.516
				c0-1.103-0.116-1.877-0.349-2.324c-0.232-0.446-0.67-0.67-1.312-0.67s-1.096,0.267-1.36,0.8s-0.396,1.479-0.396,2.837v10.432
				c0,1.577,0.118,2.676,0.355,3.295c0.237,0.62,0.699,0.93,1.388,0.93s1.176-0.332,1.463-0.998
				c0.287-0.665,0.431-1.786,0.431-3.363v-3.24h-1.846v-2.666h5.045v13.139h-1.641l-0.561-2.365
				c-0.191,0.812-0.61,1.449-1.258,1.914S171.078,240.922,170.23,240.922z"/>
			</g>
			<g>
				<path d="M188.592,239.384c-0.839,1.044-2.186,1.565-4.04,1.565s-3.204-0.523-4.047-1.572c-0.843-1.048-1.265-2.675-1.265-4.881
				V216.6h3.664v17.828c0,1.268,0.06,2.037,0.178,2.311s0.262,0.522,0.431,0.745c0.169,0.224,0.518,0.335,1.046,0.335
				s0.907-0.154,1.135-0.465c0.228-0.31,0.367-0.694,0.417-1.155c0.05-0.46,0.075-1.05,0.075-1.771V216.6h3.664v17.896
				C189.85,236.711,189.431,238.341,188.592,239.384z"/>
			</g>
			<g>
				<path d="M193.322,240.676v-24.062h8.066v3.158h-4.402v7h4.184v3.09h-4.184v7.656h4.566v3.158L193.322,240.676L193.322,240.676z"
				/>
			</g>
			<g>
				<path d="M211.219,240.676v-19.523c-0.31,0.374-0.747,0.663-1.312,0.868s-1.121,0.308-1.668,0.308v-2.721
				c0.774-0.109,1.511-0.424,2.208-0.943s1.229-1.207,1.593-2.064h2.844v24.076h-3.665V240.676z"/>
			</g>
			<g>
				<path d="M218.109,242.535v-2.734c0.812,0,1.331-0.212,1.559-0.636s0.342-1.328,0.342-2.714v-14.615
				c0-1.385-0.114-2.29-0.342-2.714s-0.747-0.636-1.559-0.636v-2.734c1.066,0,1.933,0.087,2.598,0.26
				c0.665,0.174,1.226,0.49,1.682,0.95c0.456,0.461,0.777,1.085,0.964,1.873c0.187,0.789,0.28,1.808,0.28,3.056v14.506
				c0,1.249-0.094,2.268-0.28,3.056c-0.187,0.789-0.508,1.413-0.964,1.873s-1.017,0.777-1.682,0.95S219.176,242.535,218.109,242.535
				z"/>
			</g>
		</g>
	</g>
</svg>