<?xml version="1.0" encoding="utf-8"?>
<!-- Generator: Adobe Illustrator 17.0.0, SVG Export Plug-In . SVG Version: 6.00 Build 0)  -->
<!DOCTYPE svg PUBLIC "-//W3C//DTD SVG 1.1//EN" "http://www.w3.org/Graphics/SVG/1.1/DTD/svg11.dtd">
<svg version="1.1" id="Layer_1" xmlns="http://www.w3.org/2000/svg" xmlns:xlink="http://www.w3.org/1999/xlink" x="0px" y="0px"
	 width="256px" height="256px" viewBox="0 0 256 256" enable-background="new 0 0 256 256" xml:space="preserve">
<polygon fill="#FFFF00" points="128,188.6 53.1,243.2 82,155.1 6.8,100.8 99.5,101 128,12.8 156.5,101 249.2,100.8 174,155.1 
	202.9,243.2 "/>
<path fill="#FFFFFF" d="M192,10.3c-17.1,0-32.4,8-42.3,20.6h-0.3v0.3c-7.1,9.1-11.4,20.6-11.4,33c0,29.7,24.2,53.9,53.9,53.9
	s53.9-24.2,53.9-53.9S221.7,10.3,192,10.3z"/>
<path d="M192,10.3c-17.1,0-32.4,8-42.3,20.6h-0.3v0.3c-7.1,9.1-11.4,20.6-11.4,33c0,29.7,24.2,53.9,53.9,53.9s53.9-24.2,53.9-53.9
	S221.7,10.3,192,10.3z M208.6,100.9l-23.1-3L183.7,78l17.6-10.7L217,82.4L208.6,100.9z M171.2,103.3L151.9,89l-2.1-14.7l11.8-7.4
	L181.5,78l1.9,20.2L171.2,103.3z M149.1,72.2L142,57.4l9.3-15.3l9.7,2l-0.2,20.8L149.1,72.2z M188.3,19l21.3,2.9l7.3,13.6l-16.1,7.9
	l-16.5-11.5L188.3,19z M231.4,74.4l-12.6,6.7l-16.9-16.2l0.2-19.7l16-7.9L232.3,50L231.4,74.4z M233.5,74.9l1-24.5l7.1-0.9
	c1.4,4.7,2.1,9.6,2.1,14.7c0,4.6-0.6,9-1.7,13.2L233.5,74.9z M240.9,47.4l-7.1,0.9l-14.6-13.1L212,21.9l6.1-2.4
	C228.7,25.7,236.9,35.6,240.9,47.4z M178.8,14.2l7.4,4.1L182,32.1L162.3,42l-10.5-2.1l-0.2-8.1C158.5,23.4,167.9,17,178.8,14.2z
	 M149.7,40.5l-8.5,14.1c1.4-7.3,4.3-14.1,8.4-20L149.7,40.5z M140.5,59.2l7.1,14.9l2.1,14.8l-2.9,0.4c-4.1-7.4-6.5-16-6.5-25.1
	C140.3,62.5,140.4,60.8,140.5,59.2z M172.4,112.1l-0.2-6.8l12.5-5.3l23.9,3.1l4.4,8.4c-6.4,2.9-13.5,4.5-21,4.5
	C185.1,115.9,178.5,114.5,172.4,112.1z"/>
<g>
	<path fill="none" stroke="#000000" stroke-width="3" stroke-miterlimit="10" d="M157.6,137"/>
	<path fill="#FF0000" d="M157.6,137"/>
</g>
<g>
	<path fill="#FFFFFF" d="M209,168.3c21.3-7.5,37.4-27.6,38.6-30.8s0-4.1-2-6.8s-6.9-1.4-6.9-1.4s-23.2,14.7-33.9,20.3
		C194,155.3,151,161,145,163.3s-46.7,10.3-54.3,18c-0.3,2.7-3,9.3,4.3,6.7S173.9,180.5,209,168.3z"/>
	<g>
		<path fill="none" stroke="#000000" stroke-width="3" stroke-miterlimit="10" d="M183.7,137.3c3.4-0.3,6.2-0.7,8.3-0.9
			c4.5-0.6,9.7-1.4,16.6-2.7c9.1-1.8,19.4-5.6,23.1-6c6.5-0.7,12.2,1.8,12.2,1.8c2.6,2.6-23.6,17.7-29.9,21.4
			c-16.2,9.4-64,14.9-99.1,24c-12.5,3.2-18.3,7.3-18.3,7.3s9.6-2,16.3-2.7c14.9-1.7,79.7-7,97.2-15c22.6-10.4,35.4-27.5,35.9-30.8
			c4.1,8.2-0.2,14.2-3.8,18.2c-3.6,3.9-1.4,6.4-2.8,7.4c-0.8,0.7-4.2-1-7.6,1.7c-3.4,2.7-4.8,5.2-8.9,7.9c-4.1,2.6-1.5,6.3-4.2,8.7
			c-2.7,2.3-4.8-2.7-8.6-1c-3.8,1.8-6,3-12.5,5.1c-6.4,2.1-3.2,6.7-5.7,7.6c-2.4,1.1-6-5.2-10.9-3.6c-4.9,1.6-24.3,11.3-30.9,14.2
			c-6.7,2.9-2.7,12-4.9,13.6c-1.4,1-5.2-3.4-9.1-4c-2.3-0.3-4.7,1-7.2,2.7c-6.7,4.6-2,10.7-4.8,12.1s-4.3-2-8.7-4s-8.6,0.3-12.9-4.7
			c-20.7-23.8-14-46.4-14-46.4c2-2.7,2.9-1.9,7.5-0.3c4.6,1.5,12.6,3.1,19-0.5c6.3-3.6,13.8-14.2,13.8-19.3s-1-8.9,5.6-8.4
			c2.7,0.2,10.8-0.1,20.2-0.7l4.3-0.3C161.4,139.1,161.4,139.1,183.7,137.3z"/>
		<path fill="#FF3D00" d="M183.7,137.3c3.4-0.3,6.2-0.7,8.3-0.9c4.5-0.6,9.7-1.4,16.6-2.7c9.1-1.8,19.4-5.6,23.1-6
			c6.5-0.7,12.2,1.8,12.2,1.8c2.6,2.6-23.6,17.7-29.9,21.4c-16.2,9.4-64,14.9-99.1,24c-12.5,3.2-18.3,7.3-18.3,7.3s9.6-2,16.3-2.7
			c14.9-1.7,79.7-7,97.2-15c22.6-10.4,35.4-27.5,35.9-30.8c4.1,8.2-0.2,14.2-3.8,18.2c-3.6,3.9-1.4,6.4-2.8,7.4
			c-0.8,0.7-4.2-1-7.6,1.7c-3.4,2.7-4.8,5.2-8.9,7.9c-4.1,2.6-1.5,6.3-4.2,8.7c-2.7,2.3-4.8-2.7-8.6-1c-3.8,1.8-6,3-12.5,5.1
			c-6.4,2.1-3.2,6.7-5.7,7.6c-2.4,1.1-6-5.2-10.9-3.6c-4.9,1.6-24.3,11.3-30.9,14.2c-6.7,2.9-2.7,12-4.9,13.6c-1.4,1-5.2-3.4-9.1-4
			c-2.3-0.3-4.7,1-7.2,2.7c-6.7,4.6-2,10.7-4.8,12.1s-4.3-2-8.7-4s-8.6,0.3-12.9-4.7c-20.7-23.8-14-46.4-14-46.4
			c2-2.7,2.9-1.9,7.5-0.3c4.6,1.5,12.6,3.1,19-0.5c6.3-3.6,13.8-14.2,13.8-19.3s-1-8.9,5.6-8.4c2.7,0.2,10.8-0.1,20.2-0.7l4.3-0.3
			C161.4,139.1,161.4,139.1,183.7,137.3z"/>
	</g>
	<g>
		<g>
			<g>
				<path fill="none" stroke="#1D1D1B" stroke-width="3" d="M152.9,153.2c-0.2,0-0.4,0-0.6-0.1c-1-0.4-1.6-1.5-1.3-2.5l4.8-14.2
					c0.4-1,1.5-1.6,2.5-1.3c1,0.4,1.6,1.5,1.3,2.5l-4.8,14.2C154.5,152.7,153.7,153.2,152.9,153.2z"/>
			</g>
			<g>
				<path fill="none" stroke="#1D1D1B" stroke-width="3" d="M162.4,150.7c-0.2,0-0.4,0-0.6-0.1c-1-0.4-1.6-1.5-1.3-2.5l3.8-11.4
					c0.4-1,1.5-1.6,2.5-1.3c1,0.4,1.6,1.5,1.3,2.5l-3.8,11.4C164,150.2,163.2,150.7,162.4,150.7z"/>
			</g>
			<g>
				<path fill="none" stroke="#1D1D1B" stroke-width="3" d="M170.3,149.1c-0.2,0-0.4,0-0.6-0.1c-1-0.4-1.6-1.5-1.3-2.5l3.6-10.8
					c0.4-1,1.5-1.6,2.5-1.3c1,0.4,1.6,1.5,1.3,2.5l-3.6,10.8C171.9,148.6,171.1,149.1,170.3,149.1z"/>
			</g>
			<g>
				<path fill="none" stroke="#1D1D1B" stroke-width="3" d="M179.4,145.8c-0.2,0-0.4,0-0.6-0.1c-1-0.4-1.6-1.5-1.3-2.5l2.9-8.6
					c0.4-1,1.5-1.6,2.5-1.3c1,0.4,1.6,1.5,1.3,2.5l-2.9,8.6C181,145.3,180.2,145.8,179.4,145.8z"/>
			</g>
		</g>
		<g>
			<g>
				<path fill="#FFFF00" d="M152.9,153.2c-0.2,0-0.4,0-0.6-0.1c-1-0.4-1.6-1.5-1.3-2.5l4.8-14.2c0.4-1,1.5-1.6,2.5-1.3
					c1,0.4,1.6,1.5,1.3,2.5l-4.8,14.2C154.5,152.7,153.7,153.2,152.9,153.2z"/>
			</g>
			<g>
				<path fill="#FFFF00" d="M162.4,150.7c-0.2,0-0.4,0-0.6-0.1c-1-0.4-1.6-1.5-1.3-2.5l3.8-11.4c0.4-1,1.5-1.6,2.5-1.3
					c1,0.4,1.6,1.5,1.3,2.5l-3.8,11.4C164,150.2,163.2,150.7,162.4,150.7z"/>
			</g>
			<g>
				<path fill="#FFFF00" d="M170.3,149.1c-0.2,0-0.4,0-0.6-0.1c-1-0.4-1.6-1.5-1.3-2.5l3.6-10.8c0.4-1,1.5-1.6,2.5-1.3
					c1,0.4,1.6,1.5,1.3,2.5l-3.6,10.8C171.9,148.6,171.1,149.1,170.3,149.1z"/>
			</g>
			<g>
				<path fill="#FFFF00" d="M179.4,145.8c-0.2,0-0.4,0-0.6-0.1c-1-0.4-1.6-1.5-1.3-2.5l2.9-8.6c0.4-1,1.5-1.6,2.5-1.3
					c1,0.4,1.6,1.5,1.3,2.5l-2.9,8.6C181,145.3,180.2,145.8,179.4,145.8z"/>
			</g>
		</g>
	</g>
</g>
<g>
	<ellipse fill="#272A9B" stroke="#000000" stroke-miterlimit="10" cx="191.6" cy="65.2" rx="40.8" ry="40.6"/>
	<g>
		<path fill="#FFFFFF" d="M158.3,68.6v-2h3.2v2.2c0,1.2,0.1,2.1,0.3,2.6s0.6,0.8,1.2,0.8s1-0.2,1.2-0.6s0.3-1.1,0.3-2
			s-0.2-1.8-0.5-2.5s-0.9-1.4-1.6-2.2l-1.7-1.7c-0.8-0.8-1.4-1.6-1.8-2.5c-0.4-0.9-0.6-1.9-0.6-3c0-1.8,0.4-3.2,1.1-4.1
			c0.7-0.9,1.9-1.3,3.7-1.3c1.7,0,2.9,0.5,3.5,1.6c0.6,1,0.9,2.6,0.9,4.6v1.4h-3.1v-1.6c0-1.1-0.1-1.9-0.3-2.3
			c-0.2-0.5-0.5-0.7-1.1-0.7c-0.5,0-0.9,0.2-1.1,0.5c-0.2,0.4-0.3,0.9-0.3,1.6s0.1,1.3,0.4,1.7c0.2,0.4,0.7,1,1.3,1.6l1.8,2
			c0.9,1,1.6,2,2.1,3s0.7,2.1,0.7,3.4c0,2.1-0.4,3.6-1.1,4.6c-0.7,1-1.9,1.5-3.7,1.5s-3-0.6-3.7-1.7
			C158.7,72.4,158.3,70.8,158.3,68.6z"/>
		<path fill="#FFFFFF" d="M170.3,74.9V52.6h7.5v2.9h-4.1V62h3.9v2.9h-3.9V72h4.2v2.9H170.3z"/>
		<path fill="#FFFFFF" d="M185.1,64.4l-1.1-0.1v10.5h-3.4V52.6h5.6c1.2,0,2,0.2,2.6,0.7s1,1.1,1.1,2c0.2,0.8,0.3,1.9,0.3,3.3
			s-0.1,2.4-0.4,3.1c-0.3,0.7-0.8,1.2-1.6,1.4c0.8,0.1,1.3,0.7,1.6,1.6c0.3,0.9,0.5,2.8,0.5,5.7c0,2.9,0,4.4,0.1,4.6H187
			c-0.1-0.2-0.1-2.8-0.1-8c0-1-0.1-1.6-0.4-2C186.3,64.6,185.8,64.5,185.1,64.4z M184,61.7h1.4c0.4,0,0.8-0.1,1-0.3s0.4-0.5,0.4-1
			c0.1-0.5,0.1-1.2,0.1-2.2v-0.1c0-1.2-0.1-2-0.3-2.4s-0.7-0.6-1.4-0.6H184V61.7z"/>
		<path fill="#FFFFFF" d="M193.6,74.9V52.6h3.4v22.3C197,74.9,193.6,74.9,193.6,74.9z"/>
		<path fill="#FFFFFF" d="M200.5,74.9V52.6h7.5v2.9h-4.1V62h3.9v2.9h-3.9V72h4.2v2.9H200.5z"/>
		<path fill="#FFFFFF" d="M214.5,74.9l3.2-22.3h4.5l3.4,22.3h-3.2l-0.5-4h-3.6l-0.5,4H214.5z M221.5,68.2L220,57h-0.1l-1.4,11.2
			H221.5z"/>
	</g>
</g>
<g>
	<path d="M14.72,128.833v-17.187h2.617v17.187H14.72z"/>
	<path d="M20.892,128.833v-14.921H18.88v-2.266h6.553v2.266H23.5v14.921H20.892z"/>
	<path d="M26.097,128.833l2.451-17.187h3.457l2.607,17.187h-2.441l-0.41-3.066h-2.773l-0.371,3.066H26.097z M31.488,123.667
		l-1.152-8.633h-0.039l-1.055,8.633H31.488z"/>
	<path d="M36.41,128.833v-17.187h2.617v14.961h3.311v2.226H36.41z"/>
	<path d="M43.939,128.833v-17.187h2.617v17.187H43.939z"/>
	<path d="M49.232,128.833v-17.187h5.762v2.256h-3.145v5h2.988v2.207h-2.988v5.469h3.262v2.255H49.232z"/>
	<path d="M57.201,128.833v-17.187h2.051l3.643,10.312l-0.186-4.688v-5.625h2.354v17.187h-1.855l-3.74-10.673l0.146,4.512v6.162
		L57.201,128.833L57.201,128.833z"/>
	<path d="M67.298,124v-1.533h2.48v1.729c0,0.957,0.082,1.629,0.244,2.017s0.469,0.581,0.918,0.581s0.747-0.16,0.894-0.479
		s0.22-0.84,0.22-1.562s-0.13-1.353-0.391-1.89s-0.674-1.099-1.24-1.685l-1.27-1.309c-0.592-0.619-1.053-1.26-1.382-1.924
		s-0.493-1.432-0.493-2.305c0-1.419,0.273-2.474,0.82-3.164s1.488-1.035,2.822-1.035s2.238,0.402,2.71,1.206
		s0.708,1.978,0.708,3.521v1.064h-2.412v-1.23c0-0.833-0.072-1.431-0.215-1.792s-0.418-0.542-0.825-0.542s-0.7,0.137-0.879,0.41
		s-0.269,0.684-0.269,1.23s0.091,0.983,0.273,1.309s0.511,0.742,0.986,1.25l1.416,1.533c0.709,0.768,1.245,1.546,1.606,2.334
		s0.542,1.647,0.542,2.578c0,1.608-0.27,2.796-0.811,3.564s-1.486,1.152-2.837,1.152s-2.292-0.428-2.822-1.284
		S67.298,125.64,67.298,124z"/>
	<path d="M80.052,128.833v-17.187h5.898v2.275h-3.281v4.57h3.047v2.285h-3.047v8.056L80.052,128.833L80.052,128.833z"/>
	<path d="M94.417,127.911c-0.599,0.746-1.561,1.118-2.886,1.118s-2.289-0.374-2.891-1.123s-0.903-1.911-0.903-3.486v-12.783h2.617
		v12.734c0,0.905,0.042,1.455,0.127,1.65s0.187,0.373,0.308,0.532s0.37,0.239,0.747,0.239s0.648-0.111,0.811-0.332
		s0.262-0.497,0.298-0.825s0.054-0.75,0.054-1.265v-12.734h2.617v12.783C95.316,126.001,95.017,127.165,94.417,127.911z"/>
	<path d="M97.455,124v-1.533h2.48v1.729c0,0.957,0.082,1.629,0.244,2.017s0.469,0.581,0.918,0.581s0.747-0.16,0.894-0.479
		s0.22-0.84,0.22-1.562s-0.13-1.353-0.391-1.89s-0.674-1.099-1.24-1.685l-1.27-1.309c-0.592-0.619-1.053-1.26-1.382-1.924
		s-0.493-1.432-0.493-2.305c0-1.419,0.273-2.474,0.82-3.164s1.488-1.035,2.822-1.035s2.238,0.402,2.71,1.206
		s0.708,1.978,0.708,3.521v1.064h-2.412v-1.23c0-0.833-0.072-1.431-0.215-1.792s-0.418-0.542-0.825-0.542s-0.7,0.137-0.879,0.41
		s-0.269,0.684-0.269,1.23s0.091,0.983,0.273,1.309s0.511,0.742,0.986,1.25l1.416,1.533c0.709,0.768,1.245,1.546,1.606,2.334
		s0.542,1.647,0.542,2.578c0,1.608-0.27,2.796-0.811,3.564s-1.486,1.152-2.837,1.152s-2.292-0.428-2.822-1.284
		S97.455,125.64,97.455,124z"/>
	<path d="M106.292,124v-1.533h2.48v1.729c0,0.957,0.082,1.629,0.244,2.017s0.469,0.581,0.918,0.581s0.747-0.16,0.894-0.479
		s0.22-0.84,0.22-1.562s-0.13-1.353-0.391-1.89s-0.674-1.099-1.24-1.685l-1.27-1.309c-0.592-0.619-1.053-1.26-1.382-1.924
		s-0.493-1.432-0.493-2.305c0-1.419,0.273-2.474,0.82-3.164s1.488-1.035,2.822-1.035s2.238,0.402,2.71,1.206
		s0.708,1.978,0.708,3.521v1.064h-2.412v-1.23c0-0.833-0.072-1.431-0.215-1.792s-0.418-0.542-0.825-0.542s-0.7,0.137-0.879,0.41
		s-0.269,0.684-0.269,1.23s0.091,0.983,0.273,1.309s0.511,0.742,0.986,1.25l1.416,1.533c0.709,0.768,1.245,1.546,1.606,2.334
		s0.542,1.647,0.542,2.578c0,1.608-0.27,2.796-0.811,3.564s-1.486,1.152-2.837,1.152s-2.292-0.428-2.822-1.284
		S106.292,125.64,106.292,124z"/>
	<path d="M122.826,116.06c0,1.849-0.501,2.985-1.504,3.408c1.224,0.41,1.836,1.761,1.836,4.053v0.439
		c-0.013,1.725-0.314,2.969-0.903,3.73s-1.551,1.142-2.886,1.142h-3.799v-17.187h3.721c1.283,0,2.191,0.298,2.725,0.894
		s0.804,1.593,0.811,2.993L122.826,116.06L122.826,116.06z M118.187,118.599h0.967c0.449,0,0.744-0.143,0.884-0.43
		s0.21-0.875,0.21-1.768v-1.035c-0.006-0.664-0.098-1.108-0.273-1.333s-0.479-0.337-0.908-0.337h-0.879v4.903H118.187z
		 M118.187,126.802h0.928c0.521,0,0.885-0.179,1.094-0.537s0.312-1,0.312-1.924v-1.387c0-0.873-0.084-1.489-0.254-1.851
		s-0.495-0.542-0.977-0.542h-1.104L118.187,126.802L118.187,126.802z"/>
	<path d="M124.417,128.833l2.451-17.187h3.457l2.607,17.187h-2.441l-0.41-3.066h-2.773l-0.371,3.066H124.417z M129.808,123.667
		l-1.152-8.633h-0.039l-1.054,8.633H129.808z"/>
	<path d="M134.729,128.833v-17.187h2.617v14.961h3.311v2.226H134.729z"/>
	<path d="M142.161,128.833v-17.187h2.617v14.961h3.311v2.226H142.161z"/>
	<path d="M149.593,128.833v-17.187h5.762v2.256h-3.145v5h2.988v2.207h-2.988v5.469h3.262v2.255H149.593z"/>
	<path d="M161.019,120.757l-0.84-0.039v8.115h-2.617v-17.187h4.326c0.898,0,1.569,0.181,2.012,0.542s0.734,0.866,0.874,1.514
		c0.141,0.648,0.21,1.494,0.21,2.539s-0.11,1.841-0.332,2.388c-0.221,0.547-0.631,0.915-1.23,1.104
		c0.593,0.104,1.006,0.504,1.24,1.201s0.352,2.147,0.352,4.351s0.033,3.387,0.098,3.549h-2.617c-0.064-0.13-0.098-2.184-0.098-6.162
		c0-0.762-0.091-1.268-0.273-1.519C161.94,120.902,161.572,120.771,161.019,120.757z M160.188,118.687h1.045
		c0.332,0,0.578-0.075,0.737-0.225c0.16-0.15,0.271-0.407,0.332-0.771c0.062-0.365,0.093-0.921,0.093-1.67v-0.107
		c0-0.931-0.078-1.54-0.234-1.826s-0.518-0.43-1.084-0.43h-0.889V118.687z"/>
	<path d="M14.613,152.833v-17.188h3.857c1.263,0,2.179,0.373,2.749,1.118c0.57,0.746,0.854,1.845,0.854,3.296l0.01,7.754
		c0,1.732-0.287,3.002-0.859,3.809c-0.573,0.808-1.52,1.211-2.842,1.211H14.613z M17.23,150.802h0.859
		c0.482,0,0.832-0.156,1.05-0.469s0.327-0.885,0.327-1.719l-0.01-8.486c0-0.892-0.109-1.526-0.327-1.904
		c-0.218-0.377-0.594-0.566-1.128-0.566H17.23V150.802z"/>
	<path d="M24.437,152.833v-17.188h5.762v2.256h-3.145v5h2.988v2.207h-2.988v5.469h3.262v2.256L24.437,152.833L24.437,152.833z"/>
	<path d="M32.064,147.999v-1.533h2.48v1.729c0,0.957,0.082,1.63,0.244,2.017c0.163,0.388,0.469,0.581,0.918,0.581
		s0.747-0.159,0.894-0.479c0.146-0.318,0.22-0.84,0.22-1.562s-0.13-1.353-0.391-1.89s-0.674-1.099-1.24-1.685l-1.27-1.309
		c-0.592-0.618-1.053-1.26-1.382-1.924s-0.493-1.432-0.493-2.305c0-1.419,0.273-2.474,0.82-3.164
		c0.547-0.689,1.488-1.035,2.822-1.035s2.238,0.402,2.71,1.206c0.472,0.805,0.708,1.978,0.708,3.521v1.064h-2.412v-1.23
		c0-0.833-0.072-1.431-0.215-1.792s-0.418-0.542-0.825-0.542s-0.7,0.137-0.879,0.41s-0.269,0.684-0.269,1.23
		s0.091,0.983,0.273,1.309s0.511,0.742,0.986,1.25l1.416,1.533c0.709,0.769,1.245,1.547,1.606,2.334
		c0.361,0.788,0.542,1.647,0.542,2.578c0,1.608-0.27,2.797-0.811,3.564c-0.541,0.769-1.486,1.152-2.837,1.152
		s-2.292-0.428-2.822-1.284C32.329,150.889,32.064,149.64,32.064,147.999z"/>
	<path d="M50.365,151.881c-0.619,0.766-1.489,1.147-2.612,1.147s-1.996-0.34-2.617-1.021c-0.622-0.68-0.933-1.671-0.933-2.974
		v-3.066h2.529v2.939c0,0.951,0.153,1.53,0.459,1.738c0.137,0.092,0.306,0.137,0.508,0.137c0.397,0,0.659-0.162,0.786-0.488
		c0.127-0.325,0.19-0.84,0.19-1.543v-13.105h2.617v12.979C51.292,150.03,50.983,151.116,50.365,151.881z"/>
	<path d="M52.992,152.833l2.451-17.188H58.9l2.607,17.188h-2.441l-0.41-3.066h-2.773l-0.371,3.066H52.992z M58.382,147.667
		l-1.152-8.633h-0.039l-1.055,8.633H58.382z"/>
	<path d="M63.304,152.833v-17.188h2.617v6.953h2.344v-6.953h2.617v17.188h-2.617v-7.988h-2.344v7.988H63.304z"/>
	<path d="M76.917,144.757l-0.84-0.039v8.115H73.46v-17.188h4.326c0.898,0,1.569,0.181,2.012,0.542s0.734,0.866,0.874,1.514
		c0.14,0.648,0.21,1.494,0.21,2.539s-0.111,1.841-0.332,2.388s-0.631,0.915-1.23,1.104c0.592,0.104,1.006,0.505,1.24,1.201
		c0.234,0.697,0.352,2.147,0.352,4.351s0.033,3.388,0.098,3.55h-2.617c-0.065-0.13-0.098-2.184-0.098-6.162
		c0-0.762-0.091-1.268-0.273-1.519C77.839,144.902,77.471,144.771,76.917,144.757z M76.087,142.687h1.045
		c0.332,0,0.578-0.074,0.737-0.225c0.16-0.149,0.27-0.406,0.332-0.771c0.062-0.364,0.093-0.921,0.093-1.67v-0.107
		c0-0.931-0.078-1.539-0.234-1.826c-0.156-0.286-0.518-0.43-1.084-0.43h-0.889V142.687z"/>
	<path d="M83.324,152.833v-17.188h5.762v2.256h-3.145v5h2.988v2.207h-2.988v5.469h3.262v2.256L83.324,152.833L83.324,152.833z"/>
	<path d="M90.951,147.999v-1.533h2.48v1.729c0,0.957,0.082,1.63,0.244,2.017c0.163,0.388,0.469,0.581,0.918,0.581
		s0.747-0.159,0.894-0.479c0.146-0.318,0.22-0.84,0.22-1.562s-0.13-1.353-0.391-1.89s-0.674-1.099-1.24-1.685l-1.27-1.309
		c-0.592-0.618-1.053-1.26-1.382-1.924s-0.493-1.432-0.493-2.305c0-1.419,0.273-2.474,0.82-3.164
		c0.547-0.689,1.488-1.035,2.822-1.035s2.238,0.402,2.71,1.206c0.472,0.805,0.708,1.978,0.708,3.521v1.064H95.58v-1.23
		c0-0.833-0.072-1.431-0.215-1.792s-0.418-0.542-0.825-0.542s-0.7,0.137-0.879,0.41s-0.269,0.684-0.269,1.23
		s0.091,0.983,0.273,1.309s0.511,0.742,0.986,1.25l1.416,1.533c0.709,0.769,1.245,1.547,1.606,2.334
		c0.361,0.788,0.542,1.647,0.542,2.578c0,1.608-0.27,2.797-0.811,3.564c-0.541,0.769-1.486,1.152-2.837,1.152
		s-2.292-0.428-2.822-1.284C91.216,150.889,90.951,149.64,90.951,147.999z"/>
	<path d="M18.548,178.161c-0.762,0-1.38-0.062-1.855-0.186c-0.475-0.123-0.877-0.35-1.206-0.679
		c-0.329-0.328-0.56-0.774-0.693-1.338c-0.133-0.562-0.2-1.29-0.2-2.183v-10.361c0-0.892,0.067-1.619,0.2-2.183
		c0.133-0.562,0.365-1.009,0.693-1.338c0.329-0.328,0.731-0.555,1.206-0.679c0.475-0.123,1.094-0.186,1.855-0.186v1.953
		c-0.58,0-0.951,0.151-1.113,0.454s-0.244,0.949-0.244,1.938v10.439c0,0.99,0.082,1.636,0.244,1.938s0.534,0.454,1.113,0.454
		V178.161z"/>
	<path d="M20.326,171.999v-1.533h2.48v1.729c0,0.957,0.082,1.63,0.244,2.017c0.163,0.388,0.469,0.581,0.918,0.581
		s0.747-0.159,0.894-0.479c0.146-0.318,0.22-0.84,0.22-1.562s-0.13-1.353-0.391-1.89s-0.674-1.099-1.24-1.685l-1.27-1.309
		c-0.592-0.618-1.053-1.26-1.382-1.924s-0.493-1.432-0.493-2.305c0-1.419,0.273-2.474,0.82-3.164
		c0.547-0.689,1.488-1.035,2.822-1.035s2.238,0.402,2.71,1.206c0.472,0.805,0.708,1.978,0.708,3.521v1.064h-2.412v-1.23
		c0-0.833-0.072-1.431-0.215-1.792s-0.418-0.542-0.825-0.542s-0.7,0.137-0.879,0.41s-0.269,0.684-0.269,1.23
		s0.091,0.983,0.273,1.309c0.182,0.326,0.511,0.742,0.986,1.25l1.416,1.533c0.709,0.769,1.245,1.547,1.606,2.334
		c0.361,0.788,0.542,1.647,0.542,2.578c0,1.608-0.27,2.797-0.811,3.564c-0.541,0.769-1.486,1.152-2.837,1.152
		s-2.292-0.428-2.822-1.284C20.591,174.889,20.326,173.64,20.326,171.999z"/>
	<path d="M29.505,176.833v-17.188h5.762v2.256h-3.145v5h2.988v2.207h-2.988v5.469h3.262v2.256L29.505,176.833L29.505,176.833z"/>
	<path d="M40.931,168.757l-0.84-0.039v8.115h-2.617v-17.188H41.8c0.898,0,1.569,0.181,2.012,0.542s0.734,0.866,0.874,1.514
		c0.14,0.648,0.21,1.494,0.21,2.539s-0.111,1.841-0.332,2.388s-0.631,0.915-1.23,1.104c0.592,0.104,1.006,0.505,1.24,1.201
		c0.234,0.697,0.352,2.147,0.352,4.351s0.033,3.388,0.098,3.55h-2.617c-0.065-0.13-0.098-2.184-0.098-6.162
		c0-0.762-0.091-1.268-0.273-1.519C41.853,168.902,41.484,168.771,40.931,168.757z M40.101,166.687h1.045
		c0.332,0,0.578-0.074,0.737-0.225c0.16-0.149,0.27-0.406,0.332-0.771c0.062-0.364,0.093-0.921,0.093-1.67v-0.107
		c0-0.931-0.078-1.539-0.234-1.826c-0.156-0.286-0.518-0.43-1.084-0.43h-0.889C40.101,161.658,40.101,166.687,40.101,166.687z"/>
	<path d="M47.435,176.833v-17.188h2.617v17.188H47.435z"/>
	<path d="M52.728,176.833v-17.188h5.762v2.256h-3.145v5h2.988v2.207h-2.988v5.469h3.262v2.256L52.728,176.833L52.728,176.833z"/>
	<path d="M63.5,176.833l2.451-17.188h3.457l2.607,17.188h-2.441l-0.41-3.066H66.39l-0.371,3.066H63.5z M68.89,171.667l-1.152-8.633
		h-0.039l-1.055,8.633H68.89z"/>
	<path d="M73.363,178.161v-1.953c0.58,0,0.951-0.151,1.113-0.454s0.244-0.948,0.244-1.938v-10.439c0-0.989-0.082-1.636-0.244-1.938
		s-0.534-0.454-1.113-0.454v-1.953c0.762,0,1.38,0.062,1.855,0.186c0.475,0.124,0.875,0.351,1.201,0.679
		c0.326,0.329,0.555,0.775,0.688,1.338s0.2,1.291,0.2,2.183v10.361c0,0.893-0.067,1.62-0.2,2.183
		c-0.133,0.563-0.363,1.01-0.688,1.338c-0.326,0.329-0.726,0.556-1.201,0.679C74.743,178.1,74.125,178.161,73.363,178.161z"/>
</g>
</svg>
