<?xml version="1.0" encoding="utf-8"?>
<!-- Generator: Adobe Illustrator 17.0.0, SVG Export Plug-In . SVG Version: 6.00 Build 0)  -->
<!DOCTYPE svg PUBLIC "-//W3C//DTD SVG 1.1//EN" "http://www.w3.org/Graphics/SVG/1.1/DTD/svg11.dtd">
<svg version="1.1" id="Layer_1" xmlns="http://www.w3.org/2000/svg" xmlns:xlink="http://www.w3.org/1999/xlink" x="0px" y="0px"
	 width="256px" height="256px" viewBox="0 0 256 256" enable-background="new 0 0 256 256" xml:space="preserve">
<polygon fill="#FFFF00" points="128,188.6 53.1,243.2 82,155.1 6.8,100.8 99.5,101 128,12.8 156.5,101 249.2,100.8 174,155.1 
	202.9,243.2 "/>
<path fill="#FFFFFF" d="M192,10.3c-17.1,0-32.4,8-42.3,20.6h-0.3v0.3c-7.1,9.1-11.4,20.6-11.4,33c0,29.7,24.2,53.9,53.9,53.9
	s53.9-24.2,53.9-53.9S221.7,10.3,192,10.3z"/>
<path d="M192,10.3c-17.1,0-32.4,8-42.3,20.6h-0.3v0.3c-7.1,9.1-11.4,20.6-11.4,33c0,29.7,24.2,53.9,53.9,53.9s53.9-24.2,53.9-53.9
	S221.7,10.3,192,10.3z M208.6,100.9l-23.1-3L183.7,78l17.6-10.7L217,82.4L208.6,100.9z M171.2,103.3L151.9,89l-2.1-14.7l11.8-7.4
	L181.5,78l1.9,20.2L171.2,103.3z M149.1,72.2L142,57.4l9.3-15.3l9.7,2l-0.2,20.8L149.1,72.2z M188.3,19l21.3,2.9l7.3,13.6l-16.1,7.9
	l-16.5-11.5L188.3,19z M231.4,74.4l-12.6,6.7l-16.9-16.2l0.2-19.7l16-7.9L232.3,50L231.4,74.4z M233.5,74.9l1-24.5l7.1-0.9
	c1.4,4.7,2.1,9.6,2.1,14.7c0,4.6-0.6,9-1.7,13.2L233.5,74.9z M240.9,47.4l-7.1,0.9l-14.6-13.1L212,21.9l6.1-2.4
	C228.7,25.7,236.9,35.6,240.9,47.4z M178.8,14.2l7.4,4.1L182,32.1L162.3,42l-10.5-2.1l-0.2-8.1C158.5,23.4,167.9,17,178.8,14.2z
	 M149.7,40.5l-8.5,14.1c1.4-7.3,4.3-14.1,8.4-20L149.7,40.5z M140.5,59.2l7.1,14.9l2.1,14.8l-2.9,0.4c-4.1-7.4-6.5-16-6.5-25.1
	C140.3,62.5,140.4,60.8,140.5,59.2z M172.4,112.1l-0.2-6.8l12.5-5.3l23.9,3.1l4.4,8.4c-6.4,2.9-13.5,4.5-21,4.5
	C185.1,115.9,178.5,114.5,172.4,112.1z"/>
<g>
	<path fill="none" stroke="#000000" stroke-width="3" stroke-miterlimit="10" d="M157.6,137"/>
	<path fill="#FF0000" d="M157.6,137"/>
</g>
<g>
	<path fill="#FFFFFF" d="M209,168.3c21.3-7.5,37.4-27.6,38.6-30.8s0-4.1-2-6.8s-6.9-1.4-6.9-1.4s-23.2,14.7-33.9,20.3
		C194,155.3,151,161,145,163.3s-46.7,10.3-54.3,18c-0.3,2.7-3,9.3,4.3,6.7S173.9,180.5,209,168.3z"/>
	<g>
		<path fill="none" stroke="#000000" stroke-width="3" stroke-miterlimit="10" d="M183.7,137.3c3.4-0.3,6.2-0.7,8.3-0.9
			c4.5-0.6,9.7-1.4,16.6-2.7c9.1-1.8,19.4-5.6,23.1-6c6.5-0.7,12.2,1.8,12.2,1.8c2.6,2.6-23.6,17.7-29.9,21.4
			c-16.2,9.4-64,14.9-99.1,24c-12.5,3.2-18.3,7.3-18.3,7.3s9.6-2,16.3-2.7c14.9-1.7,79.7-7,97.2-15c22.6-10.4,35.4-27.5,35.9-30.8
			c4.1,8.2-0.2,14.2-3.8,18.2c-3.6,3.9-1.4,6.4-2.8,7.4c-0.8,0.7-4.2-1-7.6,1.7c-3.4,2.7-4.8,5.2-8.9,7.9c-4.1,2.6-1.5,6.3-4.2,8.7
			c-2.7,2.3-4.8-2.7-8.6-1c-3.8,1.8-6,3-12.5,5.1c-6.4,2.1-3.2,6.7-5.7,7.6c-2.4,1.1-6-5.2-10.9-3.6c-4.9,1.6-24.3,11.3-30.9,14.2
			c-6.7,2.9-2.7,12-4.9,13.6c-1.4,1-5.2-3.4-9.1-4c-2.3-0.3-4.7,1-7.2,2.7c-6.7,4.6-2,10.7-4.8,12.1s-4.3-2-8.7-4s-8.6,0.3-12.9-4.7
			c-20.7-23.8-14-46.4-14-46.4c2-2.7,2.9-1.9,7.5-0.3c4.6,1.5,12.6,3.1,19-0.5c6.3-3.6,13.8-14.2,13.8-19.3s-1-8.9,5.6-8.4
			c2.7,0.2,10.8-0.1,20.2-0.7l4.3-0.3C161.4,139.1,161.4,139.1,183.7,137.3z"/>
		<path fill="#36F055" d="M183.7,137.3c3.4-0.3,6.2-0.7,8.3-0.9c4.5-0.6,9.7-1.4,16.6-2.7c9.1-1.8,19.4-5.6,23.1-6
			c6.5-0.7,12.2,1.8,12.2,1.8c2.6,2.6-23.6,17.7-29.9,21.4c-16.2,9.4-64,14.9-99.1,24c-12.5,3.2-18.3,7.3-18.3,7.3s9.6-2,16.3-2.7
			c14.9-1.7,79.7-7,97.2-15c22.6-10.4,35.4-27.5,35.9-30.8c4.1,8.2-0.2,14.2-3.8,18.2c-3.6,3.9-1.4,6.4-2.8,7.4
			c-0.8,0.7-4.2-1-7.6,1.7c-3.4,2.7-4.8,5.2-8.9,7.9c-4.1,2.6-1.5,6.3-4.2,8.7c-2.7,2.3-4.8-2.7-8.6-1c-3.8,1.8-6,3-12.5,5.1
			c-6.4,2.1-3.2,6.7-5.7,7.6c-2.4,1.1-6-5.2-10.9-3.6c-4.9,1.6-24.3,11.3-30.9,14.2c-6.7,2.9-2.7,12-4.9,13.6c-1.4,1-5.2-3.4-9.1-4
			c-2.3-0.3-4.7,1-7.2,2.7c-6.7,4.6-2,10.7-4.8,12.1s-4.3-2-8.7-4s-8.6,0.3-12.9-4.7c-20.7-23.8-14-46.4-14-46.4
			c2-2.7,2.9-1.9,7.5-0.3c4.6,1.5,12.6,3.1,19-0.5c6.3-3.6,13.8-14.2,13.8-19.3s-1-8.9,5.6-8.4c2.7,0.2,10.8-0.1,20.2-0.7l4.3-0.3
			C161.4,139.1,161.4,139.1,183.7,137.3z"/>
	</g>
	<g>
		<g>
			<g>
				<path fill="none" stroke="#1D1D1B" stroke-width="3" d="M152.9,153.2c-0.2,0-0.4,0-0.6-0.1c-1-0.4-1.6-1.5-1.3-2.5l4.8-14.2
					c0.4-1,1.5-1.6,2.5-1.3c1,0.4,1.6,1.5,1.3,2.5l-4.8,14.2C154.5,152.7,153.7,153.2,152.9,153.2z"/>
			</g>
			<g>
				<path fill="none" stroke="#1D1D1B" stroke-width="3" d="M162.4,150.7c-0.2,0-0.4,0-0.6-0.1c-1-0.4-1.6-1.5-1.3-2.5l3.8-11.4
					c0.4-1,1.5-1.6,2.5-1.3c1,0.4,1.6,1.5,1.3,2.5l-3.8,11.4C164,150.2,163.2,150.7,162.4,150.7z"/>
			</g>
			<g>
				<path fill="none" stroke="#1D1D1B" stroke-width="3" d="M170.3,149.1c-0.2,0-0.4,0-0.6-0.1c-1-0.4-1.6-1.5-1.3-2.5l3.6-10.8
					c0.4-1,1.5-1.6,2.5-1.3c1,0.4,1.6,1.5,1.3,2.5l-3.6,10.8C171.9,148.6,171.1,149.1,170.3,149.1z"/>
			</g>
			<g>
				<path fill="none" stroke="#1D1D1B" stroke-width="3" d="M179.4,145.8c-0.2,0-0.4,0-0.6-0.1c-1-0.4-1.6-1.5-1.3-2.5l2.9-8.6
					c0.4-1,1.5-1.6,2.5-1.3c1,0.4,1.6,1.5,1.3,2.5l-2.9,8.6C181,145.3,180.2,145.8,179.4,145.8z"/>
			</g>
		</g>
		<g>
			<g>
				<path fill="#FFFF00" d="M152.9,153.2c-0.2,0-0.4,0-0.6-0.1c-1-0.4-1.6-1.5-1.3-2.5l4.8-14.2c0.4-1,1.5-1.6,2.5-1.3
					c1,0.4,1.6,1.5,1.3,2.5l-4.8,14.2C154.5,152.7,153.7,153.2,152.9,153.2z"/>
			</g>
			<g>
				<path fill="#FFFF00" d="M162.4,150.7c-0.2,0-0.4,0-0.6-0.1c-1-0.4-1.6-1.5-1.3-2.5l3.8-11.4c0.4-1,1.5-1.6,2.5-1.3
					c1,0.4,1.6,1.5,1.3,2.5l-3.8,11.4C164,150.2,163.2,150.7,162.4,150.7z"/>
			</g>
			<g>
				<path fill="#FFFF00" d="M170.3,149.1c-0.2,0-0.4,0-0.6-0.1c-1-0.4-1.6-1.5-1.3-2.5l3.6-10.8c0.4-1,1.5-1.6,2.5-1.3
					c1,0.4,1.6,1.5,1.3,2.5l-3.6,10.8C171.9,148.6,171.1,149.1,170.3,149.1z"/>
			</g>
			<g>
				<path fill="#FFFF00" d="M179.4,145.8c-0.2,0-0.4,0-0.6-0.1c-1-0.4-1.6-1.5-1.3-2.5l2.9-8.6c0.4-1,1.5-1.6,2.5-1.3
					c1,0.4,1.6,1.5,1.3,2.5l-2.9,8.6C181,145.3,180.2,145.8,179.4,145.8z"/>
			</g>
		</g>
	</g>
</g>
<g>
	<ellipse fill="#272A9B" stroke="#000000" stroke-miterlimit="10" cx="191.6" cy="65.2" rx="40.8" ry="40.6"/>
	<g>
		<path fill="#FFFFFF" d="M167.6,77.7V48.8h9.9v3.8H172v7.7h5.1v3.8H172v13.6H167.6z"/>
		<path fill="#FFFFFF" d="M183.1,77.7l-3.5-28.9h3.9l2.1,20.6l2.7-20.6h3.5l2.7,20.6l1.9-20.6h4l-3.3,28.9h-4.4l-2.6-19.2l-2.7,19.2
			H183.1z"/>
		<path fill="#FFFFFF" d="M201.8,77.7l4.1-28.9h5.8l4.4,28.9H212l-0.7-5.2h-4.7l-0.6,5.2H201.8z M210.8,69.1l-1.9-14.5h-0.1
			L207,69.1H210.8z"/>
	</g>
</g>
<g>
	<path d="M19.613,127.239v-17.188h5.898v2.275H22.23v4.57h3.047v2.285H22.23v8.057L19.613,127.239L19.613,127.239z"/>
	<path d="M33.978,126.316c-0.599,0.745-1.561,1.118-2.886,1.118s-2.289-0.374-2.891-1.123s-0.903-1.911-0.903-3.486v-12.783h2.617
		v12.734c0,0.905,0.042,1.455,0.127,1.65s0.187,0.373,0.308,0.532s0.37,0.239,0.747,0.239s0.648-0.11,0.811-0.332
		s0.262-0.496,0.298-0.825s0.054-0.75,0.054-1.265v-12.734h2.617v12.783C34.876,124.407,34.577,125.571,33.978,126.316z"/>
	<path d="M37.015,122.405v-1.533h2.48v1.729c0,0.957,0.082,1.629,0.244,2.017s0.469,0.581,0.918,0.581s0.747-0.159,0.894-0.479
		s0.22-0.84,0.22-1.562s-0.13-1.353-0.391-1.89s-0.674-1.099-1.24-1.685l-1.27-1.309c-0.592-0.618-1.053-1.26-1.382-1.924
		s-0.493-1.432-0.493-2.305c0-1.419,0.273-2.474,0.82-3.164s1.488-1.035,2.822-1.035s2.238,0.402,2.71,1.206
		s0.708,1.978,0.708,3.521v1.064h-2.412v-1.23c0-0.833-0.072-1.431-0.215-1.792s-0.418-0.542-0.825-0.542s-0.7,0.137-0.879,0.41
		s-0.269,0.684-0.269,1.23s0.091,0.983,0.273,1.309c0.182,0.325,0.511,0.742,0.986,1.25l1.416,1.533
		c0.709,0.769,1.245,1.546,1.606,2.334s0.542,1.647,0.542,2.578c0,1.608-0.27,2.796-0.811,3.564s-1.486,1.152-2.837,1.152
		s-2.292-0.428-2.822-1.284S37.015,124.046,37.015,122.405z"/>
	<path d="M45.853,122.405v-1.533h2.48v1.729c0,0.957,0.082,1.629,0.244,2.017s0.469,0.581,0.918,0.581s0.747-0.159,0.894-0.479
		s0.22-0.84,0.22-1.562s-0.13-1.353-0.391-1.89s-0.674-1.099-1.24-1.685l-1.27-1.309c-0.592-0.618-1.053-1.26-1.382-1.924
		s-0.493-1.432-0.493-2.305c0-1.419,0.273-2.474,0.82-3.164s1.488-1.035,2.822-1.035s2.238,0.402,2.71,1.206
		s0.708,1.978,0.708,3.521v1.064h-2.412v-1.23c0-0.833-0.072-1.431-0.215-1.792s-0.418-0.542-0.825-0.542s-0.7,0.137-0.879,0.41
		s-0.269,0.684-0.269,1.23s0.091,0.983,0.273,1.309c0.182,0.325,0.511,0.742,0.986,1.25l1.416,1.533
		c0.709,0.769,1.245,1.546,1.606,2.334s0.542,1.647,0.542,2.578c0,1.608-0.27,2.796-0.811,3.564s-1.486,1.152-2.837,1.152
		s-2.292-0.428-2.822-1.284S45.853,124.046,45.853,122.405z"/>
	<path d="M62.386,114.466c0,1.849-0.501,2.985-1.504,3.408c1.224,0.41,1.836,1.761,1.836,4.053v0.439
		c-0.013,1.726-0.314,2.969-0.903,3.73s-1.551,1.143-2.886,1.143H55.13v-17.188h3.721c1.283,0,2.191,0.298,2.725,0.894
		s0.804,1.593,0.811,2.993L62.386,114.466L62.386,114.466z M57.748,117.005h0.967c0.449,0,0.744-0.144,0.884-0.43
		s0.21-0.876,0.21-1.768v-1.035c-0.006-0.664-0.098-1.108-0.273-1.333s-0.479-0.337-0.908-0.337h-0.879L57.748,117.005
		L57.748,117.005z M57.748,125.208h0.928c0.521,0,0.885-0.179,1.094-0.537s0.312-0.999,0.312-1.924v-1.387
		c0-0.872-0.084-1.489-0.254-1.851s-0.495-0.542-0.977-0.542h-1.104L57.748,125.208L57.748,125.208z"/>
	<path d="M63.978,127.239l2.451-17.188h3.457l2.607,17.188h-2.441l-0.41-3.066h-2.773l-0.371,3.066H63.978z M69.369,122.073
		l-1.152-8.633h-0.039l-1.055,8.633H69.369z"/>
	<path d="M74.291,127.239v-17.188h2.617v14.961h3.311v2.227C80.219,127.239,74.291,127.239,74.291,127.239z"/>
	<path d="M81.722,127.239v-17.188h2.617v14.961h3.311v2.227C87.65,127.239,81.722,127.239,81.722,127.239z"/>
	<path d="M89.154,127.239v-17.188h5.762v2.256h-3.145v5h2.988v2.207h-2.988v5.469h3.262v2.256
		C95.033,127.239,89.154,127.239,89.154,127.239z"/>
	<path d="M100.58,119.163l-0.84-0.039v8.115h-2.617v-17.188h4.326c0.898,0,1.569,0.181,2.012,0.542s0.734,0.866,0.874,1.514
		s0.21,1.494,0.21,2.539s-0.111,1.841-0.332,2.388s-0.631,0.915-1.23,1.104c0.592,0.104,1.006,0.505,1.24,1.201
		s0.352,2.146,0.352,4.351s0.033,3.387,0.098,3.55h-2.617c-0.065-0.13-0.098-2.185-0.098-6.162c0-0.762-0.091-1.268-0.273-1.519
		S101.133,119.176,100.58,119.163z M99.75,117.093h1.045c0.332,0,0.578-0.075,0.737-0.225s0.27-0.407,0.332-0.771
		s0.093-0.921,0.093-1.67v-0.107c0-0.931-0.078-1.54-0.234-1.826s-0.518-0.43-1.084-0.43H99.75V117.093z"/>
	<path d="M19.613,151.239v-17.188h3.857c1.263,0,2.179,0.373,2.749,1.118s0.854,1.844,0.854,3.296l0.01,7.754
		c0,1.731-0.287,3.001-0.859,3.809s-1.52,1.211-2.842,1.211H19.613z M22.23,149.208h0.859c0.482,0,0.832-0.156,1.05-0.469
		s0.327-0.886,0.327-1.719l-0.01-8.486c0-0.892-0.109-1.526-0.327-1.904s-0.594-0.566-1.128-0.566H22.23V149.208z"/>
	<path d="M29.437,151.239v-17.188h5.762v2.256h-3.145v5h2.988v2.207h-2.988v5.469h3.262v2.256L29.437,151.239L29.437,151.239z"/>
	<path d="M37.064,146.405v-1.533h2.48v1.729c0,0.957,0.082,1.629,0.244,2.017s0.469,0.581,0.918,0.581s0.747-0.159,0.894-0.479
		s0.22-0.84,0.22-1.562s-0.13-1.353-0.391-1.89s-0.674-1.099-1.24-1.685l-1.27-1.309c-0.592-0.618-1.053-1.26-1.382-1.924
		s-0.493-1.433-0.493-2.305c0-1.419,0.273-2.474,0.82-3.164s1.488-1.035,2.822-1.035s2.238,0.402,2.71,1.206
		s0.708,1.978,0.708,3.521v1.064h-2.412v-1.23c0-0.833-0.072-1.431-0.215-1.792s-0.418-0.542-0.825-0.542s-0.7,0.137-0.879,0.41
		s-0.269,0.684-0.269,1.23s0.091,0.983,0.273,1.309s0.511,0.742,0.986,1.25l1.416,1.533c0.709,0.769,1.245,1.546,1.606,2.334
		s0.542,1.647,0.542,2.578c0,1.608-0.27,2.796-0.811,3.564s-1.486,1.152-2.837,1.152s-2.292-0.428-2.822-1.284
		S37.064,148.046,37.064,146.405z"/>
	<path d="M55.365,150.287c-0.619,0.765-1.489,1.147-2.612,1.147s-1.996-0.34-2.617-1.021s-0.933-1.672-0.933-2.974v-3.066h2.529
		v2.939c0,0.95,0.153,1.53,0.459,1.738c0.137,0.091,0.306,0.137,0.508,0.137c0.397,0,0.659-0.163,0.786-0.488s0.19-0.84,0.19-1.543
		v-13.105h2.617v12.979C56.292,148.437,55.983,149.522,55.365,150.287z"/>
	<path d="M57.992,151.239l2.451-17.188H63.9l2.607,17.188h-2.441l-0.41-3.066h-2.773l-0.371,3.066H57.992z M63.382,146.073
		l-1.152-8.633h-0.039l-1.055,8.633H63.382z"/>
	<path d="M68.304,151.239v-17.188h2.617v6.953h2.344v-6.953h2.617v17.188h-2.617v-7.988h-2.344v7.988H68.304z"/>
	<path d="M81.917,143.163l-0.84-0.039v8.115H78.46v-17.188h4.326c0.898,0,1.569,0.181,2.012,0.542s0.734,0.866,0.874,1.514
		s0.21,1.494,0.21,2.539s-0.111,1.841-0.332,2.388s-0.631,0.915-1.23,1.104c0.592,0.104,1.006,0.505,1.24,1.201
		s0.352,2.146,0.352,4.351s0.033,3.387,0.098,3.55h-2.617c-0.065-0.13-0.098-2.185-0.098-6.162c0-0.762-0.091-1.268-0.273-1.519
		S82.471,143.176,81.917,143.163z M81.087,141.093h1.045c0.332,0,0.578-0.075,0.737-0.225s0.27-0.407,0.332-0.771
		s0.093-0.921,0.093-1.67v-0.107c0-0.931-0.078-1.54-0.234-1.826s-0.518-0.43-1.084-0.43h-0.889V141.093z"/>
	<path d="M88.324,151.239v-17.188h5.762v2.256h-3.145v5h2.988v2.207h-2.988v5.469h3.262v2.256L88.324,151.239L88.324,151.239z"/>
	<path d="M95.951,146.405v-1.533h2.48v1.729c0,0.957,0.082,1.629,0.244,2.017s0.469,0.581,0.918,0.581s0.747-0.159,0.894-0.479
		s0.22-0.84,0.22-1.562s-0.13-1.353-0.391-1.89s-0.674-1.099-1.24-1.685l-1.27-1.309c-0.592-0.618-1.053-1.26-1.382-1.924
		s-0.493-1.433-0.493-2.305c0-1.419,0.273-2.474,0.82-3.164s1.488-1.035,2.822-1.035s2.238,0.402,2.71,1.206
		s0.708,1.978,0.708,3.521v1.064h-2.412v-1.23c0-0.833-0.072-1.431-0.215-1.792s-0.418-0.542-0.825-0.542s-0.7,0.137-0.879,0.41
		s-0.269,0.684-0.269,1.23s0.091,0.983,0.273,1.309s0.511,0.742,0.986,1.25l1.416,1.533c0.709,0.769,1.245,1.546,1.606,2.334
		s0.542,1.647,0.542,2.578c0,1.608-0.27,2.796-0.811,3.564s-1.486,1.152-2.837,1.152s-2.292-0.428-2.822-1.284
		S95.951,148.046,95.951,146.405z"/>
</g>
</svg>
