<?xml version="1.0" encoding="utf-8"?>
<!-- Generator: Adobe Illustrator 17.0.0, SVG Export Plug-In . SVG Version: 6.00 Build 0)  -->
<!DOCTYPE svg PUBLIC "-//W3C//DTD SVG 1.1//EN" "http://www.w3.org/Graphics/SVG/1.1/DTD/svg11.dtd">
<svg version="1.1" id="Layer_1" xmlns="http://www.w3.org/2000/svg" xmlns:xlink="http://www.w3.org/1999/xlink" x="0px" y="0px"
	 width="256px" height="256px" viewBox="0 0 256 256" enable-background="new 0 0 256 256" xml:space="preserve">
<g>
	<g>
		<polygon fill="#FF0000" points="78.5,160.3 44.2,83.8 76.3,57.2 194,55.9 211.1,86.4 177.4,163.2 144.4,138.3 164.5,87.7 
			87.5,88.1 113.6,136.3 		"/>
		<g>
			<g>
				<path fill="#FFFFFF" d="M78.5,166.5c-1.8,0-3.6-1-4.4-2.8L38.5,87.1c-0.9-2-0.4-4.4,1.3-5.8l34.5-28.6c1.2-1,2.7-1.3,4.1-1
					c1.5,0.3,2.7,1.3,3.3,2.7l35.7,76.7c1.1,2.4,0.1,5.3-2.3,6.4c-2.4,1.1-5.3,0.1-6.4-2.3l-33.1-71L48.8,86.4l34.1,73.1
					c1.1,2.4,0.1,5.3-2.3,6.4C79.9,166.3,79.2,166.5,78.5,166.5z"/>
			</g>
			<g>
				<path fill="#FFFFFF" d="M177,167.5c-0.7,0-1.4-0.1-2-0.5c-2.4-1.1-3.5-4-2.3-6.4l34.6-74.1l-26.8-22.3l-33.2,71.2
					c-1.1,2.4-4,3.5-6.4,2.3c-2.4-1.1-3.5-4-2.3-6.4l35.8-76.8c0.6-1.4,1.9-2.3,3.3-2.7c1.5-0.3,3,0,4.1,1l34.5,28.6
					c1.7,1.4,2.2,3.8,1.3,5.8l-36.1,77.5C180.6,166.4,178.8,167.5,177,167.5z"/>
			</g>
			<g>
				<path fill="#FFFFFF" d="M178.6,60L178.6,60L77.3,60.5c-2.7,0-4.8-1.6-4.8-4.3s2.2-4.3,4.8-4.3l0,0L178.6,52c2.7,0,4.8,1.3,4.8,4
					C183.4,58.7,181.3,60,178.6,60z"/>
			</g>
			<g>
				<path fill="#FFFFFF" d="M163.7,93L163.7,93l-71.4-0.1c-2.7,0-4.8-2.3-4.8-4.9c0-2.7,2.2-4.9,4.8-4.9l0,0l71.4,0.3
					c2.7,0,4.8,2.2,4.8,4.9C168.5,90.8,166.4,93,163.7,93z"/>
			</g>
		</g>
		<g>
			<g>
				<g>
					<path fill="#FFFFFF" d="M127.1,248.4c-12.7,0-24.7-4-34.9-11.5c-26-19.3-31.5-56.2-12.3-82.2c11-14.9,28.7-23.8,47.3-23.8
						c12.7,0,24.7,4,34.9,11.5c12.6,9.3,20.8,23,23.2,38.6c2.3,15.5-1.6,31-10.9,43.6C163.4,239.5,145.7,248.4,127.1,248.4z
						 M127.2,139.7c-15.8,0-30.8,7.6-40.2,20.2c-16.4,22.1-11.7,53.5,10.4,69.8c8.7,6.4,18.9,9.8,29.7,9.8
						c15.8,0,30.8-7.6,40.2-20.2c7.9-10.7,11.2-23.9,9.3-37.1c-2-13.2-9-24.8-19.7-32.8C148.2,143.1,138,139.7,127.2,139.7z"/>
				</g>
			</g>
			<g>
				<g>
					<polygon fill="#FFFFFF" points="113.7,137.1 104.1,158.8 80.4,161.3 					"/>
				</g>
			</g>
			<g>
				<g>
					<polygon fill="#FFFFFF" points="147,240.1 126.6,228.1 105.9,239.8 					"/>
				</g>
			</g>
			<g>
				<g>
					<polygon fill="#FFFFFF" points="174.1,162 150.6,159.3 141.2,137.4 					"/>
				</g>
			</g>
			<g>
				<g>
					<polygon fill="#FFFFFF" points="86,225.6 90.9,202.4 73.1,186.6 					"/>
				</g>
			</g>
			<g>
				<g>
					<polygon fill="#FFFFFF" points="181.4,185.9 163.7,201.6 168.5,224.9 					"/>
				</g>
			</g>
		</g>
	</g>
	<path fill="#FFFF00" d="M127.2,139.7c-15.8,0-30.8,7.6-40.2,20.2c-16.4,22.1-11.7,53.5,10.4,69.8c8.7,6.4,18.9,9.8,29.7,9.8
		c15.8,0,30.8-7.6,40.2-20.2c7.9-10.7,11.2-23.9,9.3-37.1c-2-13.2-9-24.8-19.7-32.8C148.2,143.1,138,139.7,127.2,139.7z"/>
	<path fill="#ABD100" d="M145.3,227.9c-4.8,5,11.8-7.4,16-13.1c6.7-9.1,9.5-20.3,7.9-31.5c-1.7-11.2-7.6-21.1-16.7-27.8
		c-1.8-1.4-3.8-2.6-5.8-3.6c0,0,13.9,19.1,12.9,36.9S152.8,220.2,145.3,227.9z"/>
	<path fill="#FF9F00" d="M95.4,188.3c-1-21.7,16.8-38.3,16.8-38.3c-7.5,2.9-14.2,7.8-19.1,14.4c-13.9,18.8-10,45.4,8.9,59.4
		c2.3,1.7,9.2,6.2,7.2,4.3C104.5,223.8,96.4,210,95.4,188.3z"/>
</g>
<g>
	<path fill="#FFFFFF" d="M192,10.3c-17.1,0-32.4,8-42.3,20.6h-0.3v0.3c-7.1,9.1-11.4,20.6-11.4,33c0,29.7,24.2,53.9,53.9,53.9
		s53.9-24.2,53.9-53.9S221.7,10.3,192,10.3z"/>
	<path d="M192,10.3c-17.1,0-32.4,8-42.3,20.6h-0.3v0.3c-7.1,9.1-11.4,20.6-11.4,33c0,29.7,24.2,53.9,53.9,53.9s53.9-24.2,53.9-53.9
		S221.7,10.3,192,10.3z M208.6,100.9l-23.1-3L183.7,78l17.6-10.7L217,82.4L208.6,100.9z M171.2,103.3L151.9,89l-2.1-14.7l11.8-7.4
		L181.5,78l1.9,20.2L171.2,103.3z M149.1,72.2L142,57.4l9.3-15.3l9.7,2l-0.2,20.8L149.1,72.2z M188.3,19l21.3,2.9l7.3,13.6
		l-16.1,7.9l-16.5-11.5L188.3,19z M231.4,74.4l-12.6,6.7l-16.9-16.2l0.2-19.7l16-7.9L232.3,50L231.4,74.4z M233.5,74.9l1-24.5
		l7.1-0.9c1.4,4.7,2.1,9.6,2.1,14.7c0,4.6-0.6,9-1.7,13.2L233.5,74.9z M240.9,47.4l-7.1,0.9l-14.6-13.1L212,21.9l6.1-2.4
		C228.7,25.7,236.9,35.6,240.9,47.4z M178.8,14.2l7.4,4.1L182,32.1L162.3,42l-10.5-2.1l-0.2-8.1C158.5,23.4,167.9,17,178.8,14.2z
		 M149.7,40.5l-8.5,14.1c1.4-7.3,4.3-14.1,8.4-20L149.7,40.5z M140.5,59.2l7.1,14.9l2.1,14.8l-2.9,0.4c-4.1-7.4-6.5-16-6.5-25.1
		C140.3,62.5,140.4,60.8,140.5,59.2z M172.4,112.1l-0.2-6.8l12.5-5.3l23.9,3.1l4.4,8.4c-6.4,2.9-13.5,4.5-21,4.5
		C185.1,115.9,178.5,114.5,172.4,112.1z"/>
</g>
<g>
	<g>
		<ellipse fill="#272A9B" stroke="#000000" stroke-miterlimit="10" cx="191.6" cy="65.2" rx="40.8" ry="40.6"/>
	</g>
	<g>
		<path fill="#FFFFFF" d="M168.2,76.7v-29h9.9v3.8h-5.5v7.7h5.1V63h-5.1v13.6h-4.4V76.7z"/>
		<path fill="#FFFFFF" d="M181.5,76.7v-29h4.4v29H181.5z"/>
		<path fill="#FFFFFF" d="M190.4,76.7v-29h9.9v3.8h-5.5v7.7h5.1V63h-5.1v13.6h-4.4V76.7z"/>
		<path fill="#FFFFFF" d="M201.8,76.7l4.1-29h5.8l4.4,29H212l-0.7-5.2h-4.7l-0.6,5.2H201.8z M210.9,68L209,53.4h-0.1L207.1,68H210.9
			z"/>
	</g>
</g>
<g>
	<path d="M42.369,184.751c-1.82,0-3.243-0.716-4.269-2.146c-1.025-1.432-1.538-3.639-1.538-6.621v-12.585
		c0-2.676,0.523-4.716,1.571-6.119c1.047-1.404,2.711-2.105,4.993-2.105c2.84,0,4.645,1.059,5.412,3.175
		c0.461,1.272,0.691,3.01,0.691,5.215v2.056h-4.112v-3.026c0-1.327-0.14-2.26-0.419-2.797c-0.28-0.537-0.806-0.806-1.58-0.806
		c-0.773,0-1.319,0.32-1.637,0.962s-0.477,1.779-0.477,3.413v12.552c0,1.897,0.143,3.219,0.428,3.965S42.273,181,43.101,181
		c0.828,0,1.415-0.4,1.76-1.2c0.345-0.801,0.518-2.149,0.518-4.047v-3.899h-2.221v-3.207h6.07v15.809h-1.974l-0.674-2.846
		c-0.23,0.976-0.735,1.743-1.513,2.303C44.288,184.472,43.389,184.751,42.369,184.751z"/>
	<path d="M64.297,182.694c-1.009,1.394-2.624,2.09-4.844,2.09c-2.221,0-3.85-0.699-4.886-2.098
		c-1.037-1.398-1.555-3.507-1.555-6.325v-13.242c0-5.308,2.166-7.962,6.498-7.962c2.237,0,3.847,0.674,4.828,2.023
		s1.473,3.328,1.473,5.938v13.242C65.811,179.19,65.306,181.302,64.297,182.694z M57.84,179.964
		c0.257,0.669,0.787,1.004,1.587,1.004c0.8,0,1.327-0.343,1.579-1.028s0.378-1.861,0.378-3.528v-13.489
		c0-1.371-0.129-2.372-0.387-3.003c-0.258-0.63-0.762-0.945-1.513-0.945s-1.278,0.315-1.579,0.945
		c-0.302,0.631-0.453,1.626-0.453,2.986v13.506C57.454,178.11,57.583,179.295,57.84,179.964z"/>
	<path d="M69.808,184.455v-28.952h4.409v25.201h5.577v3.751L69.808,184.455L69.808,184.455z"/>
	<path d="M82.31,184.455v-28.952h6.498c2.127,0,3.671,0.628,4.631,1.883c0.959,1.256,1.439,3.106,1.439,5.552L94.894,176
		c0,2.918-0.482,5.057-1.447,6.416c-0.965,1.36-2.561,2.04-4.787,2.04L82.31,184.455L82.31,184.455z M86.718,181.033h1.448
		c0.812,0,1.401-0.264,1.769-0.79c0.367-0.526,0.551-1.491,0.551-2.895l-0.016-14.296c0-1.502-0.184-2.571-0.551-3.207
		c-0.368-0.637-1.001-0.954-1.9-0.954h-1.3L86.718,181.033L86.718,181.033z"/>
	<path d="M98.859,184.455v-28.952h9.706v3.8h-5.297v8.422h5.034v3.718h-5.034v9.213h5.494v3.8h-9.903V184.455z"/>
	<path d="M112.282,184.455v-28.952h3.455l6.136,17.371l-0.312-7.896v-9.475h3.965v28.952H122.4l-6.3-17.98l0.247,7.601v10.38h-4.065
		V184.455z"/>
	<path d="M129.867,184.455v-28.952h9.705v3.8h-5.297v8.422h5.034v3.718h-5.034v9.213h5.494v3.8h-9.902V184.455z"/>
	<path d="M149.113,170.851l-1.414-0.065v13.67h-4.409v-28.952h7.288c1.513,0,2.643,0.304,3.389,0.912
		c0.745,0.609,1.236,1.459,1.472,2.55c0.236,1.092,0.354,2.518,0.354,4.277c0,1.761-0.187,3.101-0.559,4.022
		c-0.373,0.921-1.064,1.541-2.073,1.858c0.998,0.176,1.694,0.851,2.09,2.023c0.395,1.174,0.592,3.616,0.592,7.329
		c0,3.712,0.055,5.705,0.164,5.979h-4.408c-0.109-0.22-0.164-3.68-0.164-10.38c0-1.283-0.154-2.136-0.461-2.559
		C150.665,171.095,150.046,170.873,149.113,170.851z M147.716,167.363h1.76c0.56,0,0.973-0.126,1.242-0.379
		c0.269-0.252,0.455-0.685,0.56-1.299c0.104-0.614,0.156-1.552,0.156-2.813v-0.181c0-1.568-0.132-2.594-0.396-3.076
		c-0.263-0.482-0.871-0.724-1.826-0.724h-1.496V167.363z"/>
	<path d="M178.33,162.938c0,3.115-0.845,5.029-2.534,5.741c2.062,0.691,3.093,2.967,3.093,6.827v0.74
		c-0.021,2.906-0.529,5.001-1.521,6.284s-2.613,1.925-4.861,1.925h-6.398v-28.952h6.268c2.16,0,3.689,0.501,4.589,1.505
		c0.899,1.003,1.354,2.684,1.366,5.042v0.888H178.33z M170.516,167.215h1.629c0.757,0,1.253-0.241,1.488-0.724
		c0.236-0.482,0.354-1.475,0.354-2.978v-1.744c-0.011-1.118-0.164-1.866-0.46-2.245c-0.296-0.378-0.807-0.567-1.53-0.567h-1.48
		v8.258H170.516z M170.516,181.033h1.562c0.878,0,1.492-0.302,1.843-0.904c0.351-0.604,0.526-1.684,0.526-3.241v-2.336
		c0-1.47-0.143-2.509-0.428-3.117s-0.833-0.913-1.645-0.913h-1.859L170.516,181.033L170.516,181.033z"/>
	<path d="M181.011,184.455l4.129-28.952h5.823l4.393,28.952h-4.112l-0.691-5.166h-4.672l-0.625,5.166H181.011z M190.092,175.753
		l-1.941-14.542h-0.065l-1.777,14.542L190.092,175.753L190.092,175.753z"/>
	<path d="M198.382,184.455v-28.952h4.409v25.201h5.576v3.751L198.382,184.455L198.382,184.455z"/>
	<path d="M210.9,184.455v-28.952h4.409v25.201h5.576v3.751L210.9,184.455L210.9,184.455z"/>
	<path d="M80.772,218.455v-28.952h6.498c2.127,0,3.671,0.628,4.631,1.883c0.959,1.256,1.439,3.106,1.439,5.552L93.356,210
		c0,2.918-0.482,5.057-1.447,6.416c-0.965,1.36-2.561,2.04-4.787,2.04L80.772,218.455L80.772,218.455z M85.181,215.033h1.448
		c0.812,0,1.401-0.264,1.769-0.79c0.367-0.526,0.551-1.491,0.551-2.895l-0.016-14.296c0-1.502-0.184-2.571-0.551-3.207
		c-0.368-0.637-1.001-0.954-1.9-0.954h-1.3L85.181,215.033L85.181,215.033z"/>
	<path d="M97.321,218.455v-28.952h9.706v3.8h-5.297v8.422h5.034v3.718h-5.034v9.213h5.494v3.8h-9.903V218.455z"/>
	<path d="M116.567,204.851l-1.415-0.065v13.67h-4.409v-28.952h7.288c1.513,0,2.643,0.304,3.389,0.912
		c0.746,0.609,1.236,1.459,1.472,2.55c0.236,1.092,0.354,2.518,0.354,4.277c0,1.761-0.187,3.101-0.559,4.022
		c-0.373,0.921-1.064,1.541-2.073,1.858c0.998,0.176,1.694,0.851,2.089,2.023c0.395,1.174,0.592,3.616,0.592,7.329
		c0,3.712,0.055,5.705,0.164,5.979h-4.408c-0.11-0.22-0.165-3.68-0.165-10.38c0-1.283-0.154-2.136-0.461-2.559
		C118.119,205.095,117.5,204.873,116.567,204.851z M115.169,201.363h1.76c0.559,0,0.973-0.126,1.242-0.379
		c0.269-0.252,0.455-0.685,0.56-1.299c0.104-0.614,0.156-1.552,0.156-2.813v-0.181c0-1.568-0.132-2.594-0.395-3.076
		s-0.872-0.724-1.826-0.724h-1.497V201.363z"/>
	<path d="M135.749,218.455l-3.537-28.952h3.948l2.122,20.628l2.697-20.628h3.554l2.714,20.628l1.876-20.628h3.964l-3.322,28.952
		h-4.393l-2.566-19.247l-2.665,19.247H135.749z"/>
	<path d="M156.229,218.455v-28.952h5.479l4.112,21.154l3.865-21.154h5.512v28.952h-3.932v-10.792l0.164-9.902l-3.898,20.562h-3.504
		l-4.063-20.562l0.165,9.902v10.792L156.229,218.455L156.229,218.455z"/>
</g>
</svg>
