<?xml version="1.0" encoding="utf-8"?>
<!-- Generator: Adobe Illustrator 17.0.0, SVG Export Plug-In . SVG Version: 6.00 Build 0)  -->
<!DOCTYPE svg PUBLIC "-//W3C//DTD SVG 1.1//EN" "http://www.w3.org/Graphics/SVG/1.1/DTD/svg11.dtd">
<svg version="1.1" id="Layer_1" xmlns="http://www.w3.org/2000/svg" xmlns:xlink="http://www.w3.org/1999/xlink" x="0px" y="0px"
	 width="256px" height="256px" viewBox="0 0 256 256" enable-background="new 0 0 256 256" xml:space="preserve">
<path fill="#FFFFFF" d="M192.1,10.3c-17.1,0-32.4,8-42.3,20.6h-0.3v0.3c-7.1,9.1-11.4,20.6-11.4,33c0,29.7,24.2,53.9,53.9,53.9
	s54-24.2,54-53.9S221.9,10.3,192.1,10.3z"/>
<path d="M192,10.3c-17.1,0-32.4,8-42.3,20.6h-0.3v0.3c-7.1,9.1-11.4,20.6-11.4,33c0,29.7,24.2,53.9,53.9,53.9s53.9-24.2,53.9-53.9
	S221.7,10.3,192,10.3z M208.6,100.9l-23.1-3L183.7,78l17.6-10.7L217,82.4L208.6,100.9z M171.2,103.3L151.9,89l-2.1-14.7l11.8-7.4
	L181.5,78l1.9,20.2L171.2,103.3z M149.1,72.2L142,57.4l9.3-15.3l9.7,2l-0.2,20.8L149.1,72.2z M188.3,19l21.3,2.9l7.3,13.6l-16.1,7.9
	l-16.5-11.5L188.3,19z M231.4,74.4l-12.6,6.7l-16.9-16.2l0.2-19.7l16-7.9L232.3,50L231.4,74.4z M233.5,74.9l1-24.5l7.1-0.9
	c1.4,4.7,2.1,9.6,2.1,14.7c0,4.6-0.6,9-1.7,13.2L233.5,74.9z M240.9,47.4l-7.1,0.9l-14.6-13.1L212,21.9l6.1-2.4
	C228.7,25.7,236.9,35.6,240.9,47.4z M178.8,14.2l7.4,4.1L182,32.1L162.3,42l-10.5-2.1l-0.2-8.1C158.5,23.4,167.9,17,178.8,14.2z
	 M149.7,40.5l-8.5,14.1c1.4-7.3,4.3-14.1,8.4-20L149.7,40.5z M140.5,59.2l7.1,14.9l2.1,14.8l-2.9,0.4c-4.1-7.4-6.5-16-6.5-25.1
	C140.3,62.5,140.4,60.8,140.5,59.2z M172.4,112.1l-0.2-6.8l12.5-5.3l23.9,3.1l4.4,8.4c-6.4,2.9-13.5,4.5-21,4.5
	C185.1,115.9,178.5,114.5,172.4,112.1z"/>
<g>
	<path fill="#FCFF00" stroke="#000000" stroke-miterlimit="10" d="M172.2,105.2c-6.4,0-11.2,5.7-11.4,10.7c0,0.5,0,1,0.1,1.5
		c-0.6-1.4-1.4-2-1.7-2.4c1.4-0.9-0.1-1.6-0.1-1.6H96.9c0,0-1.5,0.7-0.1,1.6c-0.2,0.4-1.1,1.1-1.7,2.5c0.1-0.5,0.1-1,0.1-1.6
		c-0.2-5-5.1-10.7-11.4-10.7c-6.1,0-11.6,3.8-11.6,11.4c0,11.1,8.8,15.2,17.4,18.9c6.9,3,14.1,5.6,14.1,11.7c0,5.8-4.1,5.5-4.1,7.7
		c0,0.6,0.4,1.3,1.4,1.3c1.1,0,5.3-3.4,5.4-8.2c0.1-2.2-0.4-4.2-1.7-6.2c3.9,3.7,9.4,7,17.2,8.8c0.1-0.3,1,1-0.1,1.2
		s-2.2,1.2-2.1,2.7s1.7,2.9,2.8,2.8c0,1.5-0.1,21.3-0.1,24.5s0.9,12.6,1.4,15.6c-1.9,0-6.8,3.9-6.8,10.5l-3.6,1.1v17.6
		c0,0,0.7,0.1-1.8,0.1s-3.6,10.6-8.6,10.6c-0.2,2.9-0.3,4.9-0.3,4.9s-6.4,0-6.4,5.7c0,5.3,0,6.5,0,6.5h27.2h3.9h29.9
		c0,0,0-1.3,0-6.5c0-6.2-5.6-5.9-5.6-5.9s0.2-1.9,0.1-4.7c-5,0-6.5-10.6-9-10.6s-2.6-0.1-2.6-0.1V209l-2.6-1.1
		c0-6.5-4-10.5-5.9-10.5c0.5-2.9,1.5-12.4,1.5-15.6c0-3.2-0.1-23-0.1-24.5c1.1,0.1,2.7-1.3,2.8-2.8s-1-2.5-2.1-2.7s-0.2-1.5-0.1-1.2
		c7.8-1.9,13.3-5.1,17.2-8.8c-1.3,2-1.8,4.1-1.7,6.2c0.1,4.8,4.3,8.2,5.4,8.2c1.1,0,1.4-0.7,1.4-1.3c0.1-2.2-4.1-2-4.1-7.7
		c0-6.1,7.2-8.8,14.1-11.7c8.6-3.7,17.4-7.7,17.4-18.9C183.8,109.1,178.3,105.2,172.2,105.2z M90.2,132.4c-1.2-0.6-13.7-5.4-14-15.1
		c0-5.5,3.8-8.9,7.6-8.9c4.6,0,9,3.8,9,7.7c0,3.2-2.6,4-2.9,4.1c-1.1,0.3-1.6,0.9-1.6,1.5c0,0.7,0.6,1.3,1.9,1.3
		c0.6,0,3.4-1.1,4.5-4c-0.1,0.8-0.1,1.8,0.1,2.9c0.5,2.5,1.6,9.8,6.9,16.6C99.2,136.3,95.5,134.3,90.2,132.4z M165.8,132.4
		c-5.2,1.9-9,3.9-11.5,6c5.3-6.8,6.4-14.1,6.9-16.6c0.2-1.1,0.2-2.1,0.1-2.9c1.1,2.9,3.9,4,4.5,4c1.3,0,1.9-0.7,1.9-1.3
		c0-0.7-0.5-1.2-1.6-1.5c-0.3-0.1-2.9-0.9-2.9-4.1c0-4,4.4-7.7,9-7.7c3.8,0,7.6,3.4,7.6,8.9C179.5,127,167,131.8,165.8,132.4z"/>
	<path fill="#FFFFFF" d="M133.9,128.6c6.8,0,9.1-1.1,12-6.1c2.8-5,2.3-7.5-12.4-7.6s-13.9,3.3-11.8,7.4S126.1,128.6,133.9,128.6z"/>
	<path fill="#FFFFFF" d="M127.6,155c0,0-2.1-1.3-0.3-1.7c1.1-0.3,2.8-0.4,3.9-0.1c1.1,0.3-0.2,1.9-1.3,1.9
		C128.8,155,127.6,155,127.6,155z"/>
	<path fill="#FFFFFF" d="M127,158h3.3c0,0,0.7,22.7-1.3,22.7C126.5,180.7,127,161,127,158z"/>
	<path fill="#FFFFFF" d="M126.5,207.9c0,0,0.2-3.1,0.2-4.9c0-1.8,1.4-2.9,2.7-2.9s2.7,0.3,2.8,2.9c0.2,2.9,0.2,4.1,0.3,4.9H126.5z"
		/>
	<path fill="#FFFFFF" d="M126,228c0,0,7.2,0,8.9,0s3.2,6.5,0.4,6.5s-7.3,0.7-9.3,0.7S124,228,126,228z"/>
	<rect x="140" y="239" fill="#ABD100" width="7" height="3"/>
	<rect x="134" y="209" fill="#ABD100" width="3" height="18"/>
	<path fill="#ABD100" d="M130.3,197c0,0,1.4-24.7,0.5-39c0.7,0,1.1,0,1.1,0s0.9,23.7-0.4,39C130.8,197,130.3,197,130.3,197z"/>
	<path fill="#ABD100" d="M129.4,156.4c0,0,2.5,0.2,3.1-2.1c0.2-1,1.8-1,1.6,0C134,155.3,132.2,156.9,129.4,156.4z"/>
	<path fill="#ABD100" d="M130.1,145.1c0,0,33.6-10.1,28.1-28.3c1.5,1.8,6,21.9-23.7,32.7c-0.2-0.3-0.7-1.8-4.2-1.5
		C127.6,148.2,127.5,145.9,130.1,145.1z"/>
	<rect x="106" y="239" fill="#FF9F00" width="3" height="3"/>
	<polygon fill="#FF9F00" points="116.3,227 118.8,227 119,209 116.5,209 	"/>
	<path fill="#FF9F00" d="M125.5,197c0,0-2.1-24.7-1.2-39c-0.7,0-1.1,0-1.1,0s-0.2,23.7,1.1,39C125.1,197,125.5,197,125.5,197z"/>
	<path fill="#FF9F00" d="M125.8,156.4c0,0-2.5,0.2-3.1-2.1c-0.2-1-1.8-1-1.6,0S123,156.9,125.8,156.4z"/>
	<path fill="#FF9F00" d="M125.2,145.1c0,0-33.6-10.1-28.1-28.3c-1.5,1.8-6,21.9,23.7,32.7c0.2-0.3,0.7-1.8,4.2-1.5
		C127.6,148.2,127.8,145.9,125.2,145.1z"/>
	<path fill="none" stroke="#957E78" stroke-width="0.6534" stroke-miterlimit="10" d="M119.8,150.1c0,0,3.7,1,7.7,1s7.5-0.6,8.4-0.9
		"/>
	<line fill="none" stroke="#957E78" stroke-miterlimit="10" x1="122" y1="157.5" x2="133" y2="157.5"/>
	<path fill="#FCFF00" stroke="#000000" stroke-miterlimit="10" d="M122.3,198.1c0,0,0.8-0.6,2-0.6s7.9,0,7.9,0s0.8,0.1,1.5,0.6"/>
	<line fill="none" stroke="#000000" stroke-miterlimit="10" x1="117" y1="207.5" x2="138" y2="207.5"/>
	<line fill="none" stroke="#000000" stroke-miterlimit="10" x1="114" y1="208.5" x2="141" y2="208.5"/>
	<line fill="none" stroke="#000000" stroke-miterlimit="10" x1="114" y1="227.5" x2="141" y2="227.5"/>
	<line fill="none" stroke="#957E78" stroke-width="0.6534" stroke-miterlimit="10" x1="103.6" y1="237.7" x2="152.2" y2="237.4"/>
	<line fill="none" stroke="#957E78" stroke-width="0.6534" stroke-miterlimit="10" x1="103.1" y1="242.3" x2="152.5" y2="242"/>
</g>
<g>
	<g>
		<circle fill="#F0F0F0" cx="192" cy="65.2" r="41"/>
		<path fill="#338AF3" d="M192,54.5h39.5c-1-3.8-2.6-7.4-4.6-10.7H192V54.5z"/>
		<path fill="#338AF3" d="M166.5,97.3h51c3.7-3,6.9-6.6,9.5-10.7h-70C159.5,90.7,162.7,94.3,166.5,97.3z"/>
		<path fill="#338AF3" d="M165.3,34.2c-3.2,2.8-6,6-8.2,9.7h8.2V34.2z"/>
		<path fill="#338AF3" d="M192,65.2c0-4.2,0-7.7,0-10.7h-16v10.7h-10.7V54.5h-12.8c-0.9,3.4-1.4,7-1.4,10.7s0.5,7.3,1.4,10.7h79.1
			c0.9-3.4,1.4-7,1.4-10.7H192z"/>
		<path fill="#338AF3" d="M192,24.3c-5.7,0-11.1,1.2-16,3.3v16.3h16c0-3.7,0-6.9,0-10.7h25.5C210.5,27.6,201.6,24.3,192,24.3z"/>
	</g>
	<g>
		<ellipse fill="none" stroke="#000000" stroke-miterlimit="10" cx="191.6" cy="65.2" rx="40.8" ry="40.6"/>
	</g>
</g>
<g>
	<path d="M48.262,207.881c-1.82,0-3.243-0.715-4.269-2.146c-1.025-1.431-1.538-3.638-1.538-6.621V186.53
		c0-2.676,0.523-4.716,1.571-6.12c1.047-1.403,2.711-2.105,4.993-2.105c2.84,0,4.645,1.059,5.412,3.175
		c0.461,1.272,0.691,3.011,0.691,5.215v2.057H51.01v-3.027c0-1.326-0.14-2.259-0.419-2.796c-0.28-0.537-0.806-0.807-1.58-0.807
		c-0.773,0-1.319,0.321-1.637,0.963s-0.477,1.779-0.477,3.413v12.552c0,1.897,0.143,3.219,0.428,3.964
		c0.285,0.746,0.842,1.119,1.67,1.119s1.415-0.4,1.76-1.201c0.345-0.8,0.518-2.149,0.518-4.047v-3.898h-2.221v-3.208h6.07v15.809
		h-1.974l-0.674-2.846c-0.23,0.977-0.735,1.744-1.513,2.303C50.181,207.602,49.282,207.881,48.262,207.881z"/>
	<path d="M65.09,193.98l-1.415-0.065v13.67h-4.409v-28.952h7.288c1.513,0,2.643,0.305,3.389,0.913s1.236,1.459,1.472,2.55
		s0.354,2.517,0.354,4.277s-0.187,3.101-0.559,4.021c-0.373,0.922-1.064,1.541-2.073,1.859c0.998,0.175,1.694,0.85,2.089,2.023
		c0.395,1.173,0.592,3.616,0.592,7.328c0,3.713,0.055,5.706,0.164,5.979h-4.408c-0.11-0.219-0.165-3.679-0.165-10.38
		c0-1.283-0.154-2.136-0.461-2.558C66.642,194.225,66.022,194.003,65.09,193.98z M63.692,190.493h1.76
		c0.559,0,0.973-0.126,1.242-0.378s0.455-0.686,0.56-1.3c0.104-0.614,0.156-1.552,0.156-2.812v-0.182
		c0-1.567-0.132-2.593-0.395-3.076c-0.263-0.482-0.872-0.724-1.826-0.724h-1.497V190.493z"/>
	<path d="M76.046,207.585v-28.952h4.409v28.952H76.046z"/>
	<path d="M84.962,207.585v-28.952h9.706v3.8h-5.297v8.423h5.034v3.718h-5.034v9.212h5.494v3.8h-9.903V207.585z"/>
	<path d="M109.111,205.899c-0.998,1.343-2.566,2.015-4.705,2.015s-3.737-0.716-4.795-2.146c-1.059-1.432-1.587-3.49-1.587-6.177
		v-12.618c0-4.31,1.129-7.002,3.389-8.076c0.833-0.396,1.842-0.593,3.027-0.593c4.068,0,6.103,2.566,6.103,7.699v3.98h-4.261v-3.701
		c0-1.491-0.126-2.558-0.378-3.199s-0.746-0.963-1.48-0.963s-1.245,0.34-1.53,1.021c-0.285,0.68-0.428,1.722-0.428,3.125v13.522
		c0,1.557,0.137,2.67,0.411,3.339s0.773,1.004,1.497,1.004s1.223-0.34,1.497-1.021c0.274-0.68,0.411-1.804,0.411-3.372v-4.146h4.327
		v4.097C110.608,202.485,110.109,204.556,109.111,205.899z"/>
	<path d="M114.194,207.585v-28.952h4.409v11.713h3.948v-11.713h4.409v28.952h-4.409v-13.456h-3.948v13.456H114.194z"/>
	<path d="M131.467,207.585v-28.952h4.409v28.952H131.467z"/>
	<path d="M139.808,199.442v-2.583h4.178v2.912c0,1.612,0.138,2.744,0.411,3.396c0.274,0.653,0.79,0.979,1.547,0.979
		s1.259-0.269,1.505-0.807c0.247-0.537,0.37-1.414,0.37-2.632c0-1.217-0.22-2.278-0.658-3.183s-1.135-1.852-2.089-2.838
		l-2.139-2.204c-0.998-1.042-1.773-2.122-2.327-3.241c-0.555-1.118-0.831-2.412-0.831-3.882c0-2.391,0.461-4.168,1.382-5.33
		s2.506-1.744,4.754-1.744s3.77,0.678,4.565,2.032s1.192,3.331,1.192,5.93v1.793h-4.063v-2.072c0-1.403-0.12-2.41-0.361-3.019
		s-0.705-0.913-1.391-0.913s-1.179,0.23-1.48,0.69c-0.302,0.461-0.452,1.152-0.452,2.073s0.153,1.656,0.461,2.204
		c0.307,0.549,0.86,1.25,1.661,2.105l2.385,2.583c1.195,1.294,2.098,2.604,2.706,3.932c0.609,1.327,0.913,2.774,0.913,4.343
		c0,2.709-0.455,4.71-1.365,6.004c-0.91,1.295-2.503,1.941-4.778,1.941c-2.276,0-3.86-0.721-4.754-2.163
		C140.254,204.309,139.808,202.206,139.808,199.442z"/>
	<path d="M165.996,205.899c-0.998,1.343-2.566,2.015-4.704,2.015c-2.139,0-3.737-0.716-4.796-2.146
		c-1.059-1.432-1.587-3.49-1.587-6.177v-12.618c0-4.31,1.129-7.002,3.389-8.076c0.833-0.396,1.842-0.593,3.026-0.593
		c4.068,0,6.104,2.566,6.104,7.699v3.98h-4.261v-3.701c0-1.491-0.126-2.558-0.379-3.199c-0.252-0.642-0.745-0.963-1.48-0.963
		c-0.734,0-1.244,0.34-1.529,1.021c-0.285,0.68-0.428,1.722-0.428,3.125v13.522c0,1.557,0.137,2.67,0.411,3.339
		s0.773,1.004,1.497,1.004s1.223-0.34,1.497-1.021c0.273-0.68,0.411-1.804,0.411-3.372v-4.146h4.326v4.097
		C167.493,202.485,166.994,204.556,165.996,205.899z"/>
	<path d="M171.079,207.585v-28.952h4.409v11.713h3.948v-11.713h4.408v28.952h-4.408v-13.456h-3.948v13.456H171.079z"/>
	<path d="M188.188,207.585v-28.952h9.705v3.8h-5.297v8.423h5.034v3.718h-5.034v9.212h5.494v3.8h-9.902V207.585z"/>
	<path d="M207.434,193.98l-1.414-0.065v13.67h-4.409v-28.952h7.288c1.513,0,2.643,0.305,3.389,0.913
		c0.745,0.608,1.236,1.459,1.472,2.55c0.236,1.091,0.354,2.517,0.354,4.277s-0.187,3.101-0.559,4.021
		c-0.373,0.922-1.064,1.541-2.073,1.859c0.998,0.175,1.694,0.85,2.09,2.023c0.395,1.173,0.592,3.616,0.592,7.328
		c0,3.713,0.055,5.706,0.164,5.979h-4.408c-0.109-0.219-0.164-3.679-0.164-10.38c0-1.283-0.154-2.136-0.461-2.558
		C208.985,194.225,208.366,194.003,207.434,193.98z M206.036,190.493h1.76c0.56,0,0.973-0.126,1.242-0.378s0.455-0.686,0.56-1.3
		c0.104-0.614,0.156-1.552,0.156-2.812v-0.182c0-1.567-0.132-2.593-0.396-3.076c-0.263-0.482-0.871-0.724-1.826-0.724h-1.496
		V190.493z"/>
	<path d="M7.34,241.585v-28.952h5.478l4.112,21.155l3.866-21.155h5.511v28.952h-3.932v-10.791l0.165-9.903l-3.899,20.562h-3.504
		l-4.063-20.562l0.165,9.903v10.791H7.34z"/>
	<path d="M29.555,241.585v-28.952h9.706v3.8h-5.297v8.423h5.034v3.718h-5.034v9.212h5.494v3.8h-9.903V241.585z"/>
	<path d="M42.031,241.585v-28.952h4.409v28.952H42.031z"/>
	<path d="M49.26,233.442v-2.583h4.178v2.912c0,1.612,0.137,2.744,0.411,3.396c0.274,0.653,0.79,0.979,1.546,0.979
		c0.757,0,1.259-0.269,1.505-0.807c0.247-0.537,0.37-1.414,0.37-2.632c0-1.217-0.22-2.278-0.658-3.183s-1.135-1.852-2.089-2.838
		l-2.139-2.204c-0.998-1.042-1.774-2.122-2.328-3.241c-0.554-1.118-0.831-2.412-0.831-3.882c0-2.391,0.46-4.168,1.382-5.33
		c0.921-1.162,2.505-1.744,4.754-1.744c2.248,0,3.77,0.678,4.565,2.032s1.192,3.331,1.192,5.93v1.793h-4.063v-2.072
		c0-1.403-0.121-2.41-0.362-3.019s-0.705-0.913-1.39-0.913c-0.686,0-1.179,0.23-1.48,0.69c-0.302,0.461-0.453,1.152-0.453,2.073
		s0.154,1.656,0.461,2.204c0.307,0.549,0.861,1.25,1.661,2.105l2.385,2.583c1.195,1.294,2.098,2.604,2.706,3.932
		c0.609,1.327,0.913,2.774,0.913,4.343c0,2.709-0.455,4.71-1.365,6.004c-0.911,1.295-2.503,1.941-4.779,1.941
		s-3.86-0.721-4.754-2.163C49.707,238.309,49.26,236.206,49.26,233.442z"/>
	<path d="M65.091,241.585v-25.136h-3.389v-3.816H72.74v3.816h-3.257v25.136H65.091z"/>
	<path d="M74.063,241.585v-28.952h9.706v3.8h-5.297v8.423h5.034v3.718h-5.034v9.212h5.494v3.8h-9.903V241.585z"/>
	<path d="M92.198,227.98l-1.415-0.065v13.67h-4.409v-28.952h7.288c1.513,0,2.643,0.305,3.389,0.913s1.236,1.459,1.472,2.55
		s0.354,2.517,0.354,4.277s-0.187,3.101-0.559,4.021c-0.373,0.922-1.064,1.541-2.073,1.859c0.998,0.175,1.694,0.85,2.089,2.023
		c0.395,1.173,0.592,3.616,0.592,7.328c0,3.713,0.055,5.706,0.164,5.979h-4.408c-0.11-0.219-0.165-3.679-0.165-10.38
		c0-1.283-0.154-2.136-0.461-2.558C93.75,228.225,93.13,228.003,92.198,227.98z M90.8,224.493h1.76c0.559,0,0.973-0.126,1.242-0.378
		s0.455-0.686,0.56-1.3c0.104-0.614,0.156-1.552,0.156-2.812v-0.182c0-1.567-0.132-2.593-0.395-3.076
		c-0.263-0.482-0.872-0.724-1.826-0.724H90.8V224.493z"/>
	<path d="M111.101,243.444c-1.066,0-1.933-0.087-2.598-0.26c-0.666-0.173-1.229-0.49-1.688-0.95c-0.46-0.46-0.784-1.084-0.971-1.873
		c-0.187-0.788-0.28-1.807-0.28-3.056V222.8c0-1.248,0.093-2.267,0.28-3.056c0.187-0.788,0.51-1.412,0.971-1.873
		c0.46-0.46,1.023-0.776,1.688-0.95c0.665-0.173,1.531-0.26,2.598-0.26v2.734c-0.812,0-1.331,0.212-1.559,0.636
		s-0.342,1.329-0.342,2.714v14.615c0,1.386,0.114,2.29,0.342,2.714c0.228,0.424,0.747,0.636,1.559,0.636V243.444z"/>
	<path d="M112.666,234.817v-2.146h3.473v2.42c0,1.34,0.114,2.281,0.342,2.823c0.228,0.543,0.656,0.813,1.285,0.813
		s1.046-0.223,1.251-0.67c0.205-0.446,0.308-1.176,0.308-2.188s-0.183-1.894-0.547-2.646c-0.365-0.752-0.943-1.538-1.736-2.358
		l-1.777-1.832c-0.83-0.865-1.475-1.764-1.935-2.693c-0.46-0.93-0.69-2.005-0.69-3.227c0-1.986,0.383-3.463,1.148-4.43
		c0.766-0.966,2.083-1.449,3.951-1.449c1.868,0,3.133,0.563,3.794,1.688c0.661,1.126,0.991,2.769,0.991,4.929v1.49h-3.377v-1.723
		c0-1.166-0.101-2.003-0.301-2.509c-0.201-0.506-0.586-0.759-1.155-0.759c-0.57,0-0.98,0.191-1.23,0.574
		c-0.251,0.383-0.376,0.957-0.376,1.723s0.127,1.377,0.383,1.832c0.255,0.456,0.715,1.039,1.381,1.75l1.982,2.146
		c0.993,1.076,1.743,2.165,2.249,3.268c0.506,1.104,0.759,2.307,0.759,3.609c0,2.252-0.378,3.915-1.135,4.99
		c-0.757,1.076-2.081,1.613-3.972,1.613c-1.892,0-3.208-0.599-3.951-1.798C113.037,238.862,112.666,237.114,112.666,234.817z"/>
	<path d="M133.808,240.293c-0.839,1.044-2.186,1.565-4.04,1.565c-1.855,0-3.204-0.523-4.047-1.572
		c-0.843-1.048-1.265-2.675-1.265-4.881v-17.896h3.664v17.828c0,1.268,0.059,2.037,0.178,2.311c0.118,0.273,0.262,0.522,0.431,0.745
		c0.169,0.224,0.518,0.335,1.046,0.335s0.907-0.154,1.135-0.465c0.228-0.31,0.367-0.694,0.417-1.155
		c0.05-0.46,0.075-1.05,0.075-1.771v-17.828h3.664v17.896C135.065,237.62,134.646,239.25,133.808,240.293z"/>
	<path d="M137.614,241.585v-24.062h5.523c1.868,0,3.146,0.567,3.835,1.702s1.051,2.828,1.087,5.079v0.506
		c0,2.389-0.34,4.2-1.019,5.435s-1.939,1.853-3.78,1.853h-1.982v9.488L137.614,241.585L137.614,241.585z M141.278,229.075h1.258
		c0.774,0,1.278-0.298,1.511-0.896c0.232-0.597,0.349-1.733,0.349-3.411v-0.465c-0.009-1.422-0.135-2.438-0.376-3.049
		c-0.241-0.61-0.727-0.916-1.456-0.916h-1.285L141.278,229.075L141.278,229.075z"/>
	<path d="M149.597,241.585v-24.062h8.066v3.158h-4.402v7h4.184v3.09h-4.184v7.656h4.566v3.158L149.597,241.585L149.597,241.585z"/>
	<path d="M164.669,230.278l-1.176-0.055v11.361h-3.664v-24.062h6.057c1.258,0,2.196,0.253,2.816,0.759
		c0.619,0.506,1.027,1.213,1.224,2.119c0.195,0.907,0.294,2.092,0.294,3.555s-0.155,2.577-0.465,3.343
		c-0.311,0.766-0.885,1.281-1.723,1.545c0.829,0.146,1.408,0.707,1.736,1.682c0.328,0.976,0.492,3.006,0.492,6.091
		c0,3.086,0.045,4.742,0.137,4.97h-3.664c-0.092-0.182-0.137-3.058-0.137-8.627c0-1.066-0.128-1.774-0.383-2.126
		C165.958,230.481,165.443,230.297,164.669,230.278z M163.507,227.38h1.463c0.465,0,0.809-0.104,1.032-0.314
		c0.223-0.209,0.378-0.569,0.465-1.08c0.086-0.51,0.13-1.289,0.13-2.338v-0.15c0-1.303-0.109-2.155-0.328-2.557
		c-0.219-0.4-0.725-0.602-1.518-0.602h-1.244L163.507,227.38L163.507,227.38z"/>
	<path d="M176.808,241.585v-24.062h3.664v20.945h4.635v3.117L176.808,241.585L176.808,241.585z"/>
	<path d="M186.287,241.585v-24.062h8.066v3.158h-4.402v7h4.184v3.09h-4.184v7.656h4.566v3.158L186.287,241.585L186.287,241.585z"/>
	<path d="M195.426,241.585l3.432-24.062h4.84l3.65,24.062h-3.418l-0.574-4.293h-3.883l-0.52,4.293H195.426z M202.973,234.353
		l-1.613-12.086h-0.055l-1.477,12.086H202.973z"/>
	<path d="M213.396,241.831c-1.513,0-2.695-0.595-3.548-1.784s-1.278-3.023-1.278-5.503v-10.459c0-2.224,0.436-3.919,1.306-5.086
		c0.87-1.166,2.254-1.75,4.149-1.75c2.36,0,3.86,0.88,4.498,2.639c0.383,1.058,0.574,2.502,0.574,4.334v1.709h-3.418v-2.516
		c0-1.103-0.116-1.877-0.349-2.324c-0.232-0.446-0.67-0.67-1.312-0.67s-1.096,0.267-1.36,0.8s-0.396,1.479-0.396,2.837v10.432
		c0,1.577,0.118,2.676,0.355,3.295c0.237,0.62,0.699,0.93,1.388,0.93s1.176-0.332,1.463-0.998c0.287-0.665,0.431-1.786,0.431-3.363
		v-3.24h-1.846v-2.666h5.045v13.139h-1.641l-0.561-2.365c-0.191,0.812-0.61,1.449-1.258,1.914S214.244,241.831,213.396,241.831z"/>
	<path d="M230.834,240.293c-0.839,1.044-2.186,1.565-4.04,1.565c-1.855,0-3.204-0.523-4.047-1.572
		c-0.844-1.048-1.265-2.675-1.265-4.881v-17.896h3.664v17.828c0,1.268,0.059,2.037,0.178,2.311c0.118,0.273,0.262,0.522,0.431,0.745
		c0.168,0.224,0.517,0.335,1.046,0.335c0.528,0,0.906-0.154,1.135-0.465c0.228-0.31,0.366-0.694,0.417-1.155
		c0.05-0.46,0.075-1.05,0.075-1.771v-17.828h3.664v17.896C232.092,237.62,231.672,239.25,230.834,240.293z"/>
	<path d="M234.641,241.585v-24.062h8.066v3.158h-4.402v7h4.184v3.09h-4.184v7.656h4.566v3.158L234.641,241.585L234.641,241.585z"/>
	<path d="M244.243,243.444v-2.734c0.812,0,1.331-0.212,1.559-0.636s0.342-1.328,0.342-2.714v-14.615c0-1.385-0.114-2.29-0.342-2.714
		s-0.747-0.636-1.559-0.636v-2.734c1.066,0,1.933,0.087,2.598,0.26c0.665,0.174,1.226,0.49,1.682,0.95
		c0.456,0.461,0.777,1.085,0.964,1.873c0.187,0.789,0.28,1.808,0.28,3.056v14.506c0,1.249-0.094,2.268-0.28,3.056
		c-0.187,0.789-0.508,1.413-0.964,1.873s-1.017,0.777-1.682,0.95S245.31,243.444,244.243,243.444z"/>
</g>
</svg>
