<?xml version="1.0" encoding="utf-8"?>
<!-- Generator: Adobe Illustrator 17.0.0, SVG Export Plug-In . SVG Version: 6.00 Build 0)  -->
<!DOCTYPE svg PUBLIC "-//W3C//DTD SVG 1.1//EN" "http://www.w3.org/Graphics/SVG/1.1/DTD/svg11.dtd">
<svg version="1.1" id="Layer_1" xmlns="http://www.w3.org/2000/svg" xmlns:xlink="http://www.w3.org/1999/xlink" x="0px" y="0px"
	 width="256px" height="256px" viewBox="0 0 256 256" enable-background="new 0 0 256 256" xml:space="preserve">
<path fill="#FFFFFF" d="M192.1,10.3c-17.1,0-32.4,8-42.3,20.6h-0.3v0.3c-7.1,9.1-11.4,20.6-11.4,33c0,29.7,24.2,53.9,53.9,53.9
	s54-24.2,54-53.9S221.9,10.3,192.1,10.3z"/>
<path d="M192,10.3c-17.1,0-32.4,8-42.3,20.6h-0.3v0.3c-7.1,9.1-11.4,20.6-11.4,33c0,29.7,24.2,53.9,53.9,53.9s53.9-24.2,53.9-53.9
	S221.7,10.3,192,10.3z M208.6,100.9l-23.1-3L183.7,78l17.6-10.7L217,82.4L208.6,100.9z M171.2,103.3L151.9,89l-2.1-14.7l11.8-7.4
	L181.5,78l1.9,20.2L171.2,103.3z M149.1,72.2L142,57.4l9.3-15.3l9.7,2l-0.2,20.8L149.1,72.2z M188.3,19l21.3,2.9l7.3,13.6l-16.1,7.9
	l-16.5-11.5L188.3,19z M231.4,74.4l-12.6,6.7l-16.9-16.2l0.2-19.7l16-7.9L232.3,50L231.4,74.4z M233.5,74.9l1-24.5l7.1-0.9
	c1.4,4.7,2.1,9.6,2.1,14.7c0,4.6-0.6,9-1.7,13.2L233.5,74.9z M240.9,47.4l-7.1,0.9l-14.6-13.1L212,21.9l6.1-2.4
	C228.7,25.7,236.9,35.6,240.9,47.4z M178.8,14.2l7.4,4.1L182,32.1L162.3,42l-10.5-2.1l-0.2-8.1C158.5,23.4,167.9,17,178.8,14.2z
	 M149.7,40.5l-8.5,14.1c1.4-7.3,4.3-14.1,8.4-20L149.7,40.5z M140.5,59.2l7.1,14.9l2.1,14.8l-2.9,0.4c-4.1-7.4-6.5-16-6.5-25.1
	C140.3,62.5,140.4,60.8,140.5,59.2z M172.4,112.1l-0.2-6.8l12.5-5.3l23.9,3.1l4.4,8.4c-6.4,2.9-13.5,4.5-21,4.5
	C185.1,115.9,178.5,114.5,172.4,112.1z"/>
<g>
	<path fill="#FCFF00" stroke="#000000" stroke-miterlimit="10" d="M173.5,109.7c-6.7,0-9.2,2.8-10,9.8h-71c-0.8-7-3.3-9.8-10-9.8
		c-8.5,0-8.9,8.1-8.9,8.2c0,11,9.4,16,16.9,20.5c4.8,2.8,9.5,5.2,9.5,8.5c0,3.8-1.6,4.2-2.2,4.4h-0.2c-0.7,0.2-1.1,1-0.8,1.6
		c0.2,0.5,0.7,0.9,1.2,0.9c0.1,0,0.3,0,0.4-0.1h0.1c3.5-1,3.8-4.5,3.8-7.1c0-1.6-1-2.9-2.1-4.1c3.4,3.8,8.3,7.1,15.3,8.4
		c0,3.8,0,9.3,0,9.3s8,3.4,8.5,7c0,1.6,0,2.9,0,2.9s-4.9,0.2-6.7,4.1c0.7,1.8,4.2,21.9-2.8,41.7c0,1.1,0,2.5,0,2.5h-5.4l-4.6,3.4
		v20.6h-3.3c0,0-3.7,0.7-3.7,6.4c0,0.9,0,5.6,0,5.6h60c0,0,0-4.7,0-5.6c0-5.8-2.7-6.4-2.7-6.4h-6.3v-20.6l-1.6-3.4h-6.4
		c0,0,0-1.4,0-2.5c-8-19.8-3.1-39.9-2.4-41.7c-1.8-4-6.6-4.1-6.6-4.1s-0.2-1.3-0.2-2.9c0.5-3.6,8.2-7,8.2-7s0-5.6,0-9.3
		c8-1.4,12.4-4.6,15.8-8.4c-1.1,1.2-1.7,2.6-1.7,4.1c0,2.6,0.3,6.1,3.8,7.1h0.1c0.1,0,0.3,0.1,0.4,0.1c0.5,0,1.1-0.3,1.2-0.9
		c0.2-0.7-0.1-1.4-0.8-1.7h-0.2c-0.6-0.2-2.2-0.7-2.2-4.5c0-3.3,4.7-5.7,9.5-8.5c7.5-4.5,16.9-9.4,16.9-20.3
		C182.4,117.8,182.1,109.7,173.5,109.7z M91.9,136.4c-7.3-4.3-15.7-9.3-15.7-18.7c0-0.6,0.4-5.9,6.2-5.9c5.2,0,8.1,3,8.1,10.2
		c0,0.7-0.3,1.9-0.5,2.1c-0.3,0.2-0.3-0.1-0.4-0.2c-0.7-0.2-1.4,0.3-1.6,1s0.3,1.4,1,1.6c0.2,0,1.1,0.4,2.4-0.6
		c0.9-0.7,1.4-1.9,1.4-3.5c0-0.8,0-1.5-0.1-2.3c1,0,0.7,0.2,0.7,0.2s-0.9,12.8,7.1,22.1C98.5,140.2,95.3,138.4,91.9,136.4z
		 M164.1,136.4c-3.4,2-6.6,3.8-8.5,5.9c8-9.3,7.1-22.1,7.1-22.1s-0.4-0.2,0.7-0.2c-0.1,0.8-0.1,1.6-0.1,2.3c0,1.6,0.5,2.8,1.4,3.5
		c1.3,1,2.2,0.7,2.4,0.6c0.7-0.2,1.1-0.9,1-1.6c-0.2-0.7-0.9-1.1-1.6-1c-0.1,0-0.2,0.4-0.4,0.2c-0.3-0.2-0.5-1.4-0.5-2.1
		c0-7.2,2.8-10.2,8.1-10.2c5.9,0,6.2,5.3,6.2,5.9C179.8,127.2,171.4,132.1,164.1,136.4z"/>
	<path fill="#FFFFFF" d="M147.6,120h-26.8c0,0-0.3,3.5,0.8,5.7c1.1,2.2,3.1,5.3,13.3,5.3c10.5,0,11.1-3.3,12.2-5.7
		C148.3,123,147.6,120,147.6,120z"/>
	<rect x="127" y="152" fill="#FFFFFF" width="7" height="9"/>
	<polygon fill="#FFFFFF" points="133,177 126.4,177 126,174 133,174 	"/>
	<path fill="#FFFFFF" d="M134.4,216h-8.7c0,0,1.1-2.6,1.5-12.5s0.2-14.5,0.2-14.5h4.6c0,0,0.2,7.9,0.5,15.1
		C132.7,213.5,134.4,216,134.4,216z"/>
	<rect x="139" y="223" fill="#ABD100" width="5" height="20"/>
	<rect x="134.9" y="216.2" fill="#ABD100" width="1.9" height="1.9"/>
	<path fill="#ABD100" d="M132.7,174.6l3.3-0.1c0,0-4.6,20.7,0.2,38.1C136,212.7,131.6,208.2,132.7,174.6z"/>
	<rect x="108" y="223" fill="#FF9F00" width="5" height="20"/>
	<rect x="115" y="216" fill="#FF9F00" width="4" height="2"/>
	<path fill="#FF9F00" d="M122.8,174h-4.1c0,0,4.2,20.6-0.5,37.9C119.2,210.3,122.8,203,122.8,174z"/>
	<rect x="134" y="152" fill="#ABD100" width="1" height="9"/>
	<rect x="117" y="152" fill="#FF9F00" width="2" height="9"/>
	<rect x="128" y="167" fill="#FFFFFF" width="2" height="3"/>
	<path fill="#ABD100" d="M138.3,150c0,0-7.2,1.1-7.7-2.6c7.4-1,28.4-12.6,30.5-25C160.8,127.1,157.6,145.6,138.3,150z"/>
	<path fill="#FF9F00" d="M118.4,150c0,0,7.9,1.1,7.7-2.6c-7.4-1-28.4-12.6-30.5-25C95.8,127.1,99.1,145.6,118.4,150z"/>
	<line fill="none" stroke="#000000" stroke-miterlimit="10" x1="115" y1="160.5" x2="140" y2="160.5"/>
	<line fill="none" stroke="#000000" stroke-miterlimit="10" x1="122" y1="170.5" x2="134" y2="170.5"/>
	<line fill="none" stroke="#000000" stroke-miterlimit="10" x1="116" y1="173.5" x2="138" y2="173.5"/>
	<line fill="none" stroke="#000000" stroke-miterlimit="10" x1="114" y1="218.5" x2="141" y2="218.5"/>
	<line fill="none" stroke="#000000" stroke-miterlimit="10" x1="105" y1="222.5" x2="149" y2="222.5"/>
	<line fill="none" stroke="#000000" stroke-miterlimit="10" x1="105" y1="242.5" x2="149" y2="242.5"/>
	<line fill="none" stroke="#000000" stroke-miterlimit="10" x1="114" y1="216.5" x2="141" y2="216.5"/>
	<line fill="none" stroke="#000000" stroke-miterlimit="10" x1="115" y1="151.5" x2="140" y2="151.5"/>
</g>
<g>
	<path fill="#F0F0F0" d="M154.6,47.6c-2.6,5.4-4.1,11.4-4.1,17.8c0,6.4,1.5,12.4,4.1,17.8l36.9,3.6l36.9-3.6
		c2.6-5.4,4.1-11.4,4.1-17.8S231,53,228.4,47.6L191.5,44L154.6,47.6z"/>
	<path fill="#007B48" d="M154.6,83.2c6.6,13.7,20.7,23.2,36.9,23.2s30.3-9.4,36.9-23.2H154.6z"/>
	<path fill="#FF7E29" d="M154.6,47.6h73.8c-6.6-13.7-20.7-23.2-36.9-23.2S161.2,33.9,154.6,47.6"/>
	<path fill="none" stroke="#3239A0" stroke-width="2" stroke-miterlimit="10" d="M191.5,79.6c7.9,0,14.2-6.4,14.2-14.2
		s-6.4-14.2-14.2-14.2c-7.9,0-14.2,6.4-14.2,14.2S183.6,79.6,191.5,79.6"/>
	<path fill="#3239A0" d="M195.8,65.6c0,2.4-1.9,4.3-4.3,4.3l0,0c-2.4,0-4.3-1.9-4.3-4.3l0,0c0-2.4,1.9-4.3,4.3-4.3l0,0
		C193.9,61.3,195.8,63.2,195.8,65.6L195.8,65.6z"/>
</g>
<path fill="none" stroke="#1D1D1B" stroke-miterlimit="10" d="M191.6,106.3c22.6,0,41-18.3,41-41s-18.3-41-41-41
	c-22.6,0-41,18.3-41,41S169,106.3,191.6,106.3"/>
<g>
	<path d="M6.729,207.585v-28.952h5.478l4.112,21.155l3.866-21.155h5.511v28.952h-3.932v-10.791l0.165-9.903l-3.899,20.562h-3.504
		l-4.063-20.562l0.165,9.903v10.791H6.729z"/>
	<path d="M30.055,207.585v-28.952h9.706v3.8h-5.297v8.423h5.034v3.718h-5.034v9.212h5.494v3.8h-9.903V207.585z"/>
	<path d="M43.643,207.585v-28.952h4.409v28.952H43.643z"/>
	<path d="M51.983,199.442v-2.583h4.178v2.912c0,1.612,0.137,2.744,0.411,3.396c0.274,0.653,0.79,0.979,1.546,0.979
		c0.757,0,1.259-0.269,1.505-0.807c0.247-0.537,0.37-1.414,0.37-2.632c0-1.217-0.22-2.278-0.658-3.183s-1.135-1.852-2.089-2.838
		l-2.139-2.204c-0.998-1.042-1.774-2.122-2.328-3.241c-0.554-1.118-0.831-2.412-0.831-3.882c0-2.391,0.46-4.168,1.382-5.33
		c0.921-1.162,2.505-1.744,4.754-1.744c2.248,0,3.77,0.678,4.565,2.032s1.192,3.331,1.192,5.93v1.793h-4.063v-2.072
		c0-1.403-0.121-2.41-0.362-3.019s-0.705-0.913-1.39-0.913c-0.686,0-1.179,0.23-1.48,0.69c-0.302,0.461-0.453,1.152-0.453,2.073
		s0.154,1.656,0.461,2.204c0.307,0.549,0.861,1.25,1.661,2.105l2.385,2.583c1.195,1.294,2.098,2.604,2.706,3.932
		c0.609,1.327,0.913,2.774,0.913,4.343c0,2.709-0.455,4.71-1.365,6.004c-0.911,1.295-2.503,1.941-4.779,1.941
		s-3.86-0.721-4.754-2.163C52.43,204.309,51.983,202.206,51.983,199.442z"/>
	<path d="M68.927,207.585v-25.136h-3.389v-3.816h11.038v3.816h-3.257v25.136H68.927z"/>
	<path d="M79.011,207.585v-28.952h9.706v3.8H83.42v8.423h5.034v3.718H83.42v9.212h5.494v3.8h-9.903V207.585z"/>
	<path d="M98.258,193.98l-1.415-0.065v13.67h-4.409v-28.952h7.288c1.513,0,2.643,0.305,3.389,0.913s1.236,1.459,1.472,2.55
		s0.354,2.517,0.354,4.277s-0.187,3.101-0.559,4.021c-0.373,0.922-1.064,1.541-2.073,1.859c0.998,0.175,1.694,0.85,2.089,2.023
		c0.395,1.173,0.592,3.616,0.592,7.328c0,3.713,0.055,5.706,0.164,5.979h-4.408c-0.11-0.219-0.165-3.679-0.165-10.38
		c0-1.283-0.154-2.136-0.461-2.558C99.81,194.225,99.19,194.003,98.258,193.98z M96.86,190.493h1.76
		c0.559,0,0.973-0.126,1.242-0.378s0.455-0.686,0.56-1.3c0.104-0.614,0.156-1.552,0.156-2.812v-0.182
		c0-1.567-0.132-2.593-0.395-3.076c-0.263-0.482-0.872-0.724-1.826-0.724H96.86V190.493z"/>
	<path d="M115.07,207.585v-28.952h6.498c2.127,0,3.671,0.628,4.631,1.884c0.959,1.256,1.439,3.106,1.439,5.552l0.016,13.062
		c0,2.917-0.482,5.056-1.447,6.415c-0.965,1.36-2.561,2.04-4.787,2.04L115.07,207.585L115.07,207.585z M119.479,204.163h1.448
		c0.812,0,1.401-0.263,1.769-0.789c0.367-0.526,0.551-1.491,0.551-2.896l-0.016-14.295c0-1.503-0.184-2.571-0.551-3.208
		c-0.368-0.636-1.001-0.954-1.9-0.954h-1.3L119.479,204.163L119.479,204.163z"/>
	<path d="M131.619,207.585v-28.952h9.705v3.8h-5.297v8.423h5.034v3.718h-5.034v9.212h5.494v3.8h-9.902V207.585z"/>
	<path d="M150.865,193.98l-1.414-0.065v13.67h-4.409v-28.952h7.288c1.513,0,2.643,0.305,3.389,0.913
		c0.745,0.608,1.236,1.459,1.472,2.55c0.236,1.091,0.354,2.517,0.354,4.277s-0.187,3.101-0.559,4.021
		c-0.373,0.922-1.064,1.541-2.073,1.859c0.998,0.175,1.694,0.85,2.09,2.023c0.395,1.173,0.592,3.616,0.592,7.328
		c0,3.713,0.055,5.706,0.164,5.979h-4.408c-0.109-0.219-0.164-3.679-0.164-10.38c0-1.283-0.154-2.136-0.461-2.558
		C152.417,194.225,151.798,194.003,150.865,193.98z M149.468,190.493h1.76c0.56,0,0.973-0.126,1.242-0.378s0.455-0.686,0.56-1.3
		c0.104-0.614,0.156-1.552,0.156-2.812v-0.182c0-1.567-0.132-2.593-0.396-3.076c-0.263-0.482-0.871-0.724-1.826-0.724h-1.496
		V190.493z"/>
	<path d="M167.858,207.585v-28.952h4.409v28.952H167.858z"/>
	<path d="M176.774,207.585v-28.952h3.455l6.136,17.371l-0.312-7.896v-9.476h3.965v28.952h-3.126l-6.301-17.979l0.247,7.6v10.38
		L176.774,207.585L176.774,207.585z"/>
	<path d="M194.344,207.585v-28.952h6.498c2.127,0,3.671,0.628,4.631,1.884c0.959,1.256,1.439,3.106,1.439,5.552l0.016,13.062
		c0,2.917-0.482,5.056-1.447,6.415c-0.965,1.36-2.561,2.04-4.787,2.04L194.344,207.585L194.344,207.585z M198.752,204.163h1.448
		c0.812,0,1.4-0.263,1.769-0.789c0.367-0.526,0.551-1.491,0.551-2.896l-0.017-14.295c0-1.503-0.184-2.571-0.551-3.208
		c-0.368-0.636-1.001-0.954-1.9-0.954h-1.3V204.163z"/>
	<path d="M211.057,207.585v-28.952h4.409v28.952H211.057z"/>
	<path d="M218.657,207.585l4.129-28.952h5.823l4.393,28.952h-4.113l-0.69-5.165h-4.672l-0.625,5.165H218.657z M227.737,198.883
		l-1.941-14.542h-0.065l-1.776,14.542H227.737z"/>
	<path d="M236.028,207.585v-28.952h3.455l6.136,17.371l-0.312-7.896v-9.476h3.965v28.952h-3.126l-6.301-17.979l0.247,7.6v10.38
		L236.028,207.585L236.028,207.585z"/>
	<path d="M43.676,233.442v-2.583h4.178v2.912c0,1.612,0.137,2.744,0.411,3.396c0.274,0.653,0.79,0.979,1.546,0.979
		c0.757,0,1.259-0.269,1.505-0.807c0.247-0.537,0.37-1.414,0.37-2.632c0-1.217-0.22-2.278-0.658-3.183s-1.135-1.852-2.089-2.838
		l-2.139-2.204c-0.998-1.042-1.774-2.122-2.328-3.241c-0.554-1.118-0.831-2.412-0.831-3.882c0-2.391,0.46-4.168,1.382-5.33
		c0.921-1.162,2.505-1.744,4.754-1.744c2.248,0,3.77,0.678,4.565,2.032s1.192,3.331,1.192,5.93v1.793h-4.063v-2.072
		c0-1.403-0.121-2.41-0.362-3.019s-0.705-0.913-1.39-0.913c-0.686,0-1.179,0.23-1.48,0.69c-0.302,0.461-0.453,1.152-0.453,2.073
		s0.154,1.656,0.461,2.204c0.307,0.549,0.861,1.25,1.661,2.105l2.385,2.583c1.195,1.294,2.098,2.604,2.706,3.932
		c0.609,1.327,0.913,2.774,0.913,4.343c0,2.709-0.455,4.71-1.365,6.004c-0.911,1.295-2.503,1.941-4.779,1.941
		s-3.86-0.721-4.754-2.163C44.123,238.309,43.676,236.206,43.676,233.442z"/>
	<path d="M70.227,240.03c-1.009,1.256-2.629,1.884-4.861,1.884c-2.232,0-3.855-0.63-4.869-1.892
		c-1.015-1.261-1.522-3.219-1.522-5.873v-21.533h4.409v21.451c0,1.524,0.071,2.451,0.214,2.78s0.315,0.628,0.518,0.896
		c0.203,0.268,0.623,0.403,1.259,0.403s1.091-0.187,1.365-0.56c0.274-0.373,0.441-0.836,0.501-1.39
		c0.061-0.554,0.091-1.265,0.091-2.131v-21.451h4.409v21.533C71.74,236.814,71.235,238.775,70.227,240.03z"/>
	<path d="M75.918,241.585v-28.952h6.646c2.248,0,3.786,0.683,4.614,2.048c0.828,1.365,1.264,3.403,1.308,6.111v0.608
		c0,2.874-0.409,5.054-1.226,6.539c-0.817,1.486-2.333,2.229-4.548,2.229h-2.385v11.416L75.918,241.585L75.918,241.585z
		 M80.327,226.533h1.513c0.932,0,1.538-0.359,1.818-1.077c0.28-0.719,0.419-2.087,0.419-4.104v-0.56
		c-0.011-1.711-0.162-2.934-0.452-3.668c-0.291-0.734-0.875-1.103-1.752-1.103h-1.546V226.533z"/>
	<path d="M91.448,241.585v-28.952h9.706v3.8h-5.297v8.423h5.034v3.718h-5.034v9.212h5.494v3.8h-9.903V241.585z"/>
	<path d="M110.694,227.98l-1.415-0.065v13.67h-4.409v-28.952h7.288c1.513,0,2.643,0.305,3.389,0.913s1.236,1.459,1.472,2.55
		s0.354,2.517,0.354,4.277s-0.187,3.101-0.559,4.021c-0.373,0.922-1.064,1.541-2.073,1.859c0.998,0.175,1.694,0.85,2.089,2.023
		c0.395,1.173,0.592,3.616,0.592,7.328c0,3.713,0.055,5.706,0.164,5.979h-4.408c-0.11-0.219-0.165-3.679-0.165-10.38
		c0-1.283-0.154-2.136-0.461-2.558C112.246,228.225,111.626,228.003,110.694,227.98z M109.296,224.493h1.76
		c0.559,0,0.973-0.126,1.242-0.378s0.455-0.686,0.56-1.3c0.104-0.614,0.156-1.552,0.156-2.812v-0.182
		c0-1.567-0.132-2.593-0.395-3.076c-0.263-0.482-0.872-0.724-1.826-0.724h-1.497V224.493z"/>
	<path d="M127.523,241.585v-28.952h4.409v25.202h5.577v3.75H127.523z"/>
	<path d="M140.042,241.585v-28.952h9.705v3.8h-5.297v8.423h5.034v3.718h-5.034v9.212h5.494v3.8h-9.902V241.585z"/>
	<path d="M152.149,241.585l4.129-28.952h5.823l4.393,28.952h-4.113l-0.69-5.165h-4.672l-0.625,5.165H152.149z M161.229,232.883
		l-1.941-14.542h-0.065l-1.776,14.542H161.229z"/>
	<path d="M174.883,241.881c-1.82,0-3.243-0.715-4.269-2.146c-1.025-1.431-1.538-3.638-1.538-6.621V220.53
		c0-2.676,0.523-4.716,1.571-6.12c1.047-1.403,2.711-2.105,4.992-2.105c2.841,0,4.645,1.059,5.412,3.175
		c0.461,1.272,0.691,3.011,0.691,5.215v2.057h-4.112v-3.027c0-1.326-0.141-2.259-0.42-2.796s-0.806-0.807-1.579-0.807
		s-1.319,0.321-1.637,0.963s-0.478,1.779-0.478,3.413v12.552c0,1.897,0.143,3.219,0.428,3.964c0.285,0.746,0.842,1.119,1.67,1.119
		s1.415-0.4,1.761-1.201c0.345-0.8,0.518-2.149,0.518-4.047v-3.898h-2.221v-3.208h6.07v15.809h-1.975l-0.674-2.846
		c-0.23,0.977-0.735,1.744-1.514,2.303C176.803,241.602,175.903,241.881,174.883,241.881z"/>
	<path d="M196.976,240.03c-1.009,1.256-2.629,1.884-4.86,1.884c-2.232,0-3.855-0.63-4.869-1.892
		c-1.015-1.261-1.522-3.219-1.522-5.873v-21.533h4.409v21.451c0,1.524,0.071,2.451,0.214,2.78s0.314,0.628,0.518,0.896
		s0.623,0.403,1.259,0.403s1.091-0.187,1.365-0.56s0.441-0.836,0.502-1.39s0.091-1.265,0.091-2.131v-21.451h4.408v21.533
		C198.489,236.814,197.984,238.775,196.976,240.03z"/>
	<path d="M202.668,241.585v-28.952h9.705v3.8h-5.297v8.423h5.034v3.718h-5.034v9.212h5.494v3.8h-9.902V241.585z"/>
</g>
</svg>
