<?xml version="1.0" encoding="utf-8"?>
<!-- Generator: Adobe Illustrator 17.0.0, SVG Export Plug-In . SVG Version: 6.00 Build 0)  -->
<!DOCTYPE svg PUBLIC "-//W3C//DTD SVG 1.1//EN" "http://www.w3.org/Graphics/SVG/1.1/DTD/svg11.dtd">
<svg version="1.1" id="Layer_1" xmlns="http://www.w3.org/2000/svg" xmlns:xlink="http://www.w3.org/1999/xlink" x="0px" y="0px"
	 width="256px" height="256px" viewBox="0 0 256 256" enable-background="new 0 0 256 256" xml:space="preserve">
<polygon fill="#FFFF00" points="128,188.6 53.1,243.2 82,155.1 6.8,100.8 99.5,101 128,12.8 156.5,101 249.2,100.8 174,155.1 
	202.9,243.2 "/>
<path fill="#FFFFFF" d="M192,10.3c-17.1,0-32.4,8-42.3,20.6h-0.3v0.3c-7.1,9.1-11.4,20.6-11.4,33c0,29.7,24.2,53.9,53.9,53.9
	s53.9-24.2,53.9-53.9S221.7,10.3,192,10.3z"/>
<path d="M192,10.3c-17.1,0-32.4,8-42.3,20.6h-0.3v0.3c-7.1,9.1-11.4,20.6-11.4,33c0,29.7,24.2,53.9,53.9,53.9s53.9-24.2,53.9-53.9
	S221.7,10.3,192,10.3z M208.6,100.9l-23.1-3L183.7,78l17.6-10.7L217,82.4L208.6,100.9z M171.2,103.3L151.9,89l-2.1-14.7l11.8-7.4
	L181.5,78l1.9,20.2L171.2,103.3z M149.1,72.2L142,57.4l9.3-15.3l9.7,2l-0.2,20.8L149.1,72.2z M188.3,19l21.3,2.9l7.3,13.6l-16.1,7.9
	l-16.5-11.5L188.3,19z M231.4,74.4l-12.6,6.7l-16.9-16.2l0.2-19.7l16-7.9L232.3,50L231.4,74.4z M233.5,74.9l1-24.5l7.1-0.9
	c1.4,4.7,2.1,9.6,2.1,14.7c0,4.6-0.6,9-1.7,13.2L233.5,74.9z M240.9,47.4l-7.1,0.9l-14.6-13.1L212,21.9l6.1-2.4
	C228.7,25.7,236.9,35.6,240.9,47.4z M178.8,14.2l7.4,4.1L182,32.1L162.3,42l-10.5-2.1l-0.2-8.1C158.5,23.4,167.9,17,178.8,14.2z
	 M149.7,40.5l-8.5,14.1c1.4-7.3,4.3-14.1,8.4-20L149.7,40.5z M140.5,59.2l7.1,14.9l2.1,14.8l-2.9,0.4c-4.1-7.4-6.5-16-6.5-25.1
	C140.3,62.5,140.4,60.8,140.5,59.2z M172.4,112.1l-0.2-6.8l12.5-5.3l23.9,3.1l4.4,8.4c-6.4,2.9-13.5,4.5-21,4.5
	C185.1,115.9,178.5,114.5,172.4,112.1z"/>
<g>
	<path fill="none" stroke="#000000" stroke-width="3" stroke-miterlimit="10" d="M157.6,137"/>
	<path fill="#FF0000" d="M157.6,137"/>
</g>
<g>
	<path fill="#FFFFFF" d="M214.118,172.038c19.635-11.154,31.92-33.788,32.535-37.15c0.614-3.362-0.726-4.035-3.173-6.338
		c-2.447-2.303-7.039-0.156-7.039-0.156s-20.23,18.577-29.769,25.983c-9.62,7.523-50.93,20.748-56.428,24.075
		s-44.137,18.408-50.254,27.333c0.183,2.71-1.305,9.684,5.419,5.832C112.134,207.766,181.734,190.262,214.118,172.038z"/>
	<g>
		<path fill="none" stroke="#000000" stroke-width="3" stroke-miterlimit="10" d="M183.728,146.01
			c3.293-0.897,5.978-1.787,8.009-2.356c4.323-1.388,9.299-3.096,15.859-5.597c8.637-3.383,18.101-8.947,21.672-9.996
			c6.273-1.84,12.326-0.389,12.326-0.389c3.019,2.098-20.092,21.6-25.637,26.357c-14.279,12.121-60.349,26-93.283,41.173
			c-11.736,5.363-16.718,10.426-16.718,10.426s9.094-3.669,15.564-5.544c14.363-4.312,77.2-21.005,93.007-31.978
			c20.401-14.238,29.97-33.335,29.877-36.671c5.488,7.344,2.318,14.011-0.516,18.585c-2.852,4.476-0.244,6.547-1.445,7.779
			c-0.663,0.831-4.311-0.24-7.179,3.019s-3.803,5.968-7.36,9.351c-3.575,3.285-0.36,6.466-2.593,9.306
			c-2.25,2.742-5.202-1.807-8.641,0.539c-3.421,2.445-5.374,4.015-11.399,7.233c-5.927,3.2-1.963,7.161-4.264,8.489
			c-2.167,1.508-6.826-4.055-11.365-1.613c-4.539,2.443-21.914,15.425-27.896,19.448c-6.08,4.041-0.532,12.288-2.414,14.253
			c-1.201,1.232-5.72-2.425-9.665-2.325c-2.317,0.112-4.449,1.817-6.608,3.933c-5.779,5.714-0.073,10.885-2.581,12.759
			s-4.586-1.207-9.271-2.396s-8.411,1.818-13.528-2.341c-24.588-19.757-21.997-43.187-21.997-43.187
			c1.49-3.012,2.518-2.384,7.328-1.624c4.793,0.662,12.95,0.819,18.611-3.857c5.563-4.659,11.067-16.42,10.164-21.439
			s-2.561-8.582,4.024-9.259c2.693-0.281,10.612-2.011,19.757-4.267l4.179-1.057C162.099,151.731,162.099,151.731,183.728,146.01z"
			/>
		<path fill="#9933FF" d="M183.728,146.01c3.293-0.897,5.978-1.787,8.009-2.356c4.323-1.388,9.299-3.096,15.859-5.597
			c8.637-3.383,18.101-8.947,21.672-9.996c6.273-1.84,12.326-0.389,12.326-0.389c3.019,2.098-20.092,21.6-25.637,26.357
			c-14.279,12.121-60.349,26-93.283,41.173c-11.736,5.363-16.718,10.426-16.718,10.426s9.094-3.669,15.564-5.544
			c14.363-4.312,77.2-21.005,93.007-31.978c20.401-14.238,29.97-33.335,29.877-36.671c5.488,7.344,2.318,14.011-0.516,18.585
			c-2.852,4.476-0.244,6.547-1.445,7.779c-0.663,0.831-4.311-0.24-7.179,3.019s-3.803,5.968-7.36,9.351
			c-3.575,3.285-0.36,6.466-2.593,9.306c-2.25,2.742-5.202-1.807-8.641,0.539c-3.421,2.445-5.374,4.015-11.399,7.233
			c-5.927,3.2-1.963,7.161-4.264,8.489c-2.167,1.508-6.826-4.055-11.365-1.613c-4.539,2.443-21.914,15.425-27.896,19.448
			c-6.08,4.041-0.532,12.288-2.414,14.253c-1.201,1.232-5.72-2.425-9.665-2.325c-2.317,0.112-4.449,1.817-6.608,3.933
			c-5.779,5.714-0.073,10.885-2.581,12.759s-4.586-1.207-9.271-2.396s-8.411,1.818-13.528-2.341
			c-24.588-19.757-21.997-43.187-21.997-43.187c1.49-3.012,2.518-2.384,7.328-1.624c4.793,0.662,12.95,0.819,18.611-3.857
			c5.563-4.659,11.067-16.42,10.164-21.439s-2.561-8.582,4.024-9.259c2.693-0.281,10.612-2.011,19.757-4.267l4.179-1.057
			C162.099,151.731,162.099,151.731,183.728,146.01z"/>
	</g>
	<g>
		<g>
			<g>
				<path fill="none" stroke="#1D1D1B" stroke-width="3" d="M156.231,167.113c-0.197,0.035-0.394,0.071-0.608,0.008
					c-1.055-0.217-1.84-1.193-1.722-2.23l2.209-14.826c0.217-1.055,1.193-1.84,2.23-1.722c1.055,0.217,1.84,1.193,1.722,2.23
					l-2.209,14.826C157.717,166.338,157.018,166.972,156.231,167.113z"/>
			</g>
			<g>
				<path fill="none" stroke="#1D1D1B" stroke-width="3" d="M165.138,162.97c-0.197,0.035-0.394,0.071-0.608,0.008
					c-1.055-0.217-1.84-1.193-1.722-2.23l1.721-11.893c0.217-1.055,1.193-1.84,2.23-1.722c1.055,0.217,1.84,1.193,1.722,2.23
					l-1.721,11.893C166.624,162.195,165.925,162.828,165.138,162.97z"/>
			</g>
			<g>
				<path fill="none" stroke="#1D1D1B" stroke-width="3" d="M172.629,159.996c-0.197,0.035-0.394,0.071-0.608,0.008
					c-1.055-0.217-1.84-1.193-1.722-2.23l1.63-11.267c0.217-1.055,1.193-1.84,2.23-1.722c1.055,0.217,1.84,1.193,1.722,2.23
					l-1.63,11.267C174.116,159.221,173.417,159.855,172.629,159.996z"/>
			</g>
			<g>
				<path fill="none" stroke="#1D1D1B" stroke-width="3" d="M181.001,155.137c-0.197,0.035-0.394,0.071-0.608,0.008
					c-1.055-0.217-1.84-1.193-1.722-2.23l1.331-8.978c0.217-1.055,1.193-1.84,2.23-1.722c1.055,0.217,1.84,1.193,1.722,2.23
					l-1.331,8.978C182.487,154.361,181.788,154.995,181.001,155.137z"/>
			</g>
		</g>
		<g>
			<g>
				<path fill="#FFFF00" d="M156.231,167.113c-0.197,0.035-0.394,0.071-0.608,0.008c-1.055-0.217-1.84-1.193-1.722-2.23
					l2.209-14.826c0.217-1.055,1.193-1.84,2.23-1.722c1.055,0.217,1.84,1.193,1.722,2.23l-2.209,14.826
					C157.717,166.338,157.018,166.972,156.231,167.113z"/>
			</g>
			<g>
				<path fill="#FFFF00" d="M165.138,162.97c-0.197,0.035-0.394,0.071-0.608,0.008c-1.055-0.217-1.84-1.193-1.722-2.23l1.721-11.893
					c0.217-1.055,1.193-1.84,2.23-1.722c1.055,0.217,1.84,1.193,1.722,2.23l-1.721,11.893
					C166.624,162.195,165.925,162.828,165.138,162.97z"/>
			</g>
			<g>
				<path fill="#FFFF00" d="M172.629,159.996c-0.197,0.035-0.394,0.071-0.608,0.008c-1.055-0.217-1.84-1.193-1.722-2.23l1.63-11.267
					c0.217-1.055,1.193-1.84,2.23-1.722c1.055,0.217,1.84,1.193,1.722,2.23l-1.63,11.267
					C174.116,159.221,173.417,159.855,172.629,159.996z"/>
			</g>
			<g>
				<path fill="#FFFF00" d="M181.001,155.137c-0.197,0.035-0.394,0.071-0.608,0.008c-1.055-0.217-1.84-1.193-1.722-2.23l1.331-8.978
					c0.217-1.055,1.193-1.84,2.23-1.722c1.055,0.217,1.84,1.193,1.722,2.23l-1.331,8.978
					C182.487,154.361,181.788,154.995,181.001,155.137z"/>
			</g>
		</g>
	</g>
</g>
<g>
	<circle fill="#F0F0F0" cx="191.5" cy="65" r="41"/>
	<path fill="#0052B4" d="M198.6,59.6h2.4l-1.2,2L198.6,59.6z M201,70.5h-2.4l1.2-2L201,70.5z M191.5,76l-1.2-2h2.4L191.5,76z
		 M182,70.5l1.2-2l1.2,2H182z M182,59.6h2.4l-1.2,2L182,59.6z M191.5,54.1l1.2,2h-2.4L191.5,54.1z M197.8,65l-3.2,5.5h-6.3l-3.2-5.5
		l3.2-5.5h6.3L197.8,65z M206.9,56.1h-10.3l-5.1-8.9l-5.1,8.9h-10.3l5.1,8.9l-5.1,8.9h10.3l5.1,8.9l5.1-8.9h10.3l-5.1-8.9
		L206.9,56.1z"/>
	<path fill="#0052B4" d="M217,33h-51c-3.7,3-6.9,6.6-9.5,10.7h69.9C223.9,39.6,220.7,35.9,217,33z"/>
	<path fill="#0052B4" d="M166,97.1h51c3.7-3,6.9-6.6,9.5-10.7h-69.9C159,90.5,162.3,94.1,166,97.1z"/>
</g>
<ellipse fill="none" stroke="#020200" stroke-width="1.4754" stroke-miterlimit="10" cx="191.6" cy="65.2" rx="40.8" ry="40.6"/>
<g>
	<path d="M15.72,128.833v-17.187h2.617v17.187H15.72z"/>
	<path d="M20.671,124v-1.533h2.48v1.729c0,0.957,0.082,1.629,0.244,2.017s0.469,0.581,0.918,0.581s0.747-0.16,0.894-0.479
		s0.22-0.84,0.22-1.562s-0.13-1.353-0.391-1.89s-0.674-1.099-1.24-1.685l-1.27-1.309c-0.592-0.619-1.053-1.26-1.382-1.924
		s-0.493-1.432-0.493-2.305c0-1.419,0.273-2.474,0.82-3.164s1.488-1.035,2.822-1.035s2.238,0.402,2.71,1.206
		s0.708,1.978,0.708,3.521v1.064H25.3v-1.23c0-0.833-0.072-1.431-0.215-1.792s-0.418-0.542-0.825-0.542s-0.7,0.137-0.879,0.41
		s-0.269,0.684-0.269,1.23s0.091,0.983,0.273,1.309s0.511,0.742,0.986,1.25l1.416,1.533c0.709,0.768,1.245,1.546,1.606,2.334
		s0.542,1.647,0.542,2.578c0,1.608-0.27,2.796-0.811,3.564s-1.486,1.152-2.837,1.152s-2.292-0.428-2.822-1.284
		S20.671,125.64,20.671,124z"/>
	<path d="M33.308,120.757l-0.84-0.039v8.115h-2.617v-17.187h4.326c0.898,0,1.569,0.181,2.012,0.542s0.734,0.866,0.874,1.514
		s0.21,1.494,0.21,2.539s-0.111,1.841-0.332,2.388s-0.631,0.915-1.23,1.104c0.592,0.104,1.006,0.504,1.24,1.201
		s0.352,2.147,0.352,4.351s0.033,3.387,0.098,3.549h-2.617c-0.065-0.13-0.098-2.184-0.098-6.162c0-0.762-0.091-1.268-0.273-1.519
		S33.861,120.771,33.308,120.757z M32.478,118.687h1.045c0.332,0,0.578-0.075,0.737-0.225s0.27-0.407,0.332-0.771
		s0.093-0.921,0.093-1.67v-0.107c0-0.931-0.078-1.54-0.234-1.826s-0.518-0.43-1.084-0.43h-0.889
		C32.478,113.658,32.478,118.687,32.478,118.687z"/>
	<path d="M38.933,128.833l2.451-17.187h3.457l2.607,17.187h-2.441l-0.41-3.066h-2.773l-0.371,3.066H38.933z M44.324,123.667
		l-1.152-8.633h-0.039l-1.055,8.633H44.324z"/>
	<path d="M49.246,128.833v-17.187h5.762v2.256h-3.145v5h2.988v2.207h-2.988v5.469h3.262v2.255H49.246z"/>
	<path d="M57.214,128.833v-17.187h2.617v14.961h3.311v2.226H57.214z"/>
	<path d="M64.744,128.833v-17.187h2.617v17.187H64.744z"/>
	<path d="M69.695,124v-1.533h2.48v1.729c0,0.957,0.082,1.629,0.244,2.017s0.469,0.581,0.918,0.581s0.747-0.16,0.894-0.479
		s0.22-0.84,0.22-1.562s-0.13-1.353-0.391-1.89s-0.674-1.099-1.24-1.685l-1.27-1.309c-0.592-0.619-1.053-1.26-1.382-1.924
		s-0.493-1.432-0.493-2.305c0-1.419,0.273-2.474,0.82-3.164s1.488-1.035,2.822-1.035s2.238,0.402,2.71,1.206
		s0.708,1.978,0.708,3.521v1.064h-2.412v-1.23c0-0.833-0.072-1.431-0.215-1.792s-0.418-0.542-0.825-0.542s-0.7,0.137-0.879,0.41
		s-0.269,0.684-0.269,1.23s0.091,0.983,0.273,1.309s0.511,0.742,0.986,1.25l1.416,1.533c0.709,0.768,1.245,1.546,1.606,2.334
		s0.542,1.647,0.542,2.578c0,1.608-0.27,2.796-0.811,3.564s-1.486,1.152-2.837,1.152s-2.292-0.428-2.822-1.284
		S69.695,125.64,69.695,124z"/>
	<path d="M85.242,127.833c-0.592,0.797-1.523,1.196-2.793,1.196s-2.218-0.425-2.847-1.274c-0.628-0.85-0.942-2.072-0.942-3.667
		v-7.49c0-2.559,0.67-4.157,2.012-4.795c0.495-0.234,1.094-0.352,1.797-0.352c2.416,0,3.623,1.523,3.623,4.57v2.363h-2.529v-2.197
		c0-0.885-0.075-1.519-0.225-1.899s-0.443-0.571-0.879-0.571s-0.739,0.202-0.908,0.605s-0.254,1.022-0.254,1.855v8.027
		c0,0.924,0.082,1.585,0.244,1.982s0.459,0.596,0.889,0.596s0.726-0.202,0.889-0.605s0.244-1.071,0.244-2.002v-2.461h2.568v2.432
		C86.13,125.806,85.834,127.035,85.242,127.833z"/>
	<path d="M88.259,128.833v-17.187h2.617v6.953h2.344v-6.953h2.617v17.187H93.22v-7.988h-2.344v7.988H88.259z"/>
	<path d="M98.416,128.833v-17.187h5.762v2.256h-3.145v5h2.988v2.207h-2.988v5.469h3.262v2.255H98.416z"/>
	<path d="M109.841,120.757l-0.84-0.039v8.115h-2.617v-17.187h4.326c0.898,0,1.569,0.181,2.012,0.542s0.734,0.866,0.874,1.514
		s0.21,1.494,0.21,2.539s-0.111,1.841-0.332,2.388s-0.631,0.915-1.23,1.104c0.592,0.104,1.006,0.504,1.24,1.201
		s0.352,2.147,0.352,4.351s0.033,3.387,0.098,3.549h-2.617c-0.065-0.13-0.098-2.184-0.098-6.162c0-0.762-0.091-1.268-0.273-1.519
		S110.395,120.771,109.841,120.757z M109.011,118.687h1.045c0.332,0,0.578-0.075,0.737-0.225s0.27-0.407,0.332-0.771
		s0.093-0.921,0.093-1.67v-0.107c0-0.931-0.078-1.54-0.234-1.826s-0.518-0.43-1.084-0.43h-0.889V118.687z"/>
	<path d="M15.613,152.833v-17.188h5.898v2.275H18.23v4.57h3.047v2.285H18.23v8.057L15.613,152.833L15.613,152.833z"/>
	<path d="M29.978,151.91c-0.599,0.746-1.561,1.118-2.886,1.118s-2.289-0.374-2.891-1.123c-0.602-0.748-0.903-1.91-0.903-3.486
		v-12.783h2.617v12.734c0,0.905,0.042,1.455,0.127,1.65s0.187,0.373,0.308,0.532c0.121,0.16,0.37,0.239,0.747,0.239
		s0.648-0.11,0.811-0.332c0.163-0.221,0.262-0.496,0.298-0.825c0.036-0.328,0.054-0.75,0.054-1.265v-12.734h2.617v12.783
		C30.876,150.001,30.577,151.165,29.978,151.91z"/>
	<path d="M33.015,147.999v-1.533h2.48v1.729c0,0.957,0.082,1.63,0.244,2.017c0.163,0.388,0.469,0.581,0.918,0.581
		s0.747-0.159,0.894-0.479c0.146-0.318,0.22-0.84,0.22-1.562s-0.13-1.353-0.391-1.89s-0.674-1.099-1.24-1.685l-1.27-1.309
		c-0.592-0.618-1.053-1.26-1.382-1.924s-0.493-1.432-0.493-2.305c0-1.419,0.273-2.474,0.82-3.164
		c0.547-0.689,1.488-1.035,2.822-1.035s2.238,0.402,2.71,1.206c0.472,0.805,0.708,1.978,0.708,3.521v1.064h-2.412v-1.23
		c0-0.833-0.072-1.431-0.215-1.792s-0.418-0.542-0.825-0.542s-0.7,0.137-0.879,0.41s-0.269,0.684-0.269,1.23
		s0.091,0.983,0.273,1.309s0.511,0.742,0.986,1.25l1.416,1.533c0.709,0.769,1.245,1.547,1.606,2.334
		c0.361,0.788,0.542,1.647,0.542,2.578c0,1.608-0.27,2.797-0.811,3.564c-0.541,0.769-1.486,1.152-2.837,1.152
		s-2.292-0.428-2.822-1.284C33.28,150.889,33.015,149.64,33.015,147.999z"/>
	<path d="M41.853,147.999v-1.533h2.48v1.729c0,0.957,0.082,1.63,0.244,2.017c0.163,0.388,0.469,0.581,0.918,0.581
		s0.747-0.159,0.894-0.479c0.146-0.318,0.22-0.84,0.22-1.562s-0.13-1.353-0.391-1.89s-0.674-1.099-1.24-1.685l-1.27-1.309
		c-0.592-0.618-1.053-1.26-1.382-1.924s-0.493-1.432-0.493-2.305c0-1.419,0.273-2.474,0.82-3.164
		c0.547-0.689,1.488-1.035,2.822-1.035s2.238,0.402,2.71,1.206c0.472,0.805,0.708,1.978,0.708,3.521v1.064h-2.412v-1.23
		c0-0.833-0.072-1.431-0.215-1.792s-0.418-0.542-0.825-0.542s-0.7,0.137-0.879,0.41s-0.269,0.684-0.269,1.23
		s0.091,0.983,0.273,1.309s0.511,0.742,0.986,1.25l1.416,1.533c0.709,0.769,1.245,1.547,1.606,2.334
		c0.361,0.788,0.542,1.647,0.542,2.578c0,1.608-0.27,2.797-0.811,3.564c-0.541,0.769-1.486,1.152-2.837,1.152
		s-2.292-0.428-2.822-1.284C42.118,150.889,41.853,149.64,41.853,147.999z"/>
	<path d="M58.386,140.06c0,1.85-0.501,2.985-1.504,3.408c1.224,0.41,1.836,1.762,1.836,4.053v0.439
		c-0.013,1.726-0.314,2.969-0.903,3.73s-1.551,1.143-2.886,1.143H51.13v-17.188h3.721c1.283,0,2.191,0.298,2.725,0.894
		s0.804,1.594,0.811,2.993L58.386,140.06L58.386,140.06z M53.748,142.599h0.967c0.449,0,0.744-0.143,0.884-0.43
		c0.14-0.286,0.21-0.875,0.21-1.768v-1.035c-0.006-0.664-0.098-1.108-0.273-1.333s-0.479-0.337-0.908-0.337h-0.879L53.748,142.599
		L53.748,142.599z M53.748,150.802h0.928c0.521,0,0.885-0.179,1.094-0.537c0.208-0.357,0.312-0.999,0.312-1.924v-1.387
		c0-0.872-0.084-1.489-0.254-1.851s-0.495-0.542-0.977-0.542h-1.104L53.748,150.802L53.748,150.802z"/>
	<path d="M59.978,152.833l2.451-17.188h3.457l2.607,17.188h-2.441l-0.41-3.066h-2.773l-0.371,3.066H59.978z M65.369,147.667
		l-1.152-8.633h-0.039l-1.055,8.633H65.369z"/>
	<path d="M70.291,152.833v-17.188h2.617v14.961h3.311v2.227H70.291z"/>
	<path d="M77.722,152.833v-17.188h2.617v14.961h3.311v2.227H77.722z"/>
	<path d="M85.154,152.833v-17.188h5.762v2.256h-3.145v5h2.988v2.207h-2.988v5.469h3.262v2.256L85.154,152.833L85.154,152.833z"/>
	<path d="M96.58,144.757l-0.84-0.039v8.115h-2.617v-17.188h4.326c0.898,0,1.569,0.181,2.012,0.542s0.734,0.866,0.874,1.514
		c0.14,0.648,0.21,1.494,0.21,2.539s-0.111,1.841-0.332,2.388s-0.631,0.915-1.23,1.104c0.592,0.104,1.006,0.505,1.24,1.201
		c0.234,0.697,0.352,2.147,0.352,4.351s0.033,3.388,0.098,3.55h-2.617c-0.065-0.13-0.098-2.184-0.098-6.162
		c0-0.762-0.091-1.268-0.273-1.519C97.501,144.902,97.133,144.771,96.58,144.757z M95.75,142.687h1.045
		c0.332,0,0.578-0.074,0.737-0.225c0.16-0.149,0.27-0.406,0.332-0.771c0.062-0.364,0.093-0.921,0.093-1.67v-0.107
		c0-0.931-0.078-1.539-0.234-1.826c-0.156-0.286-0.518-0.43-1.084-0.43H95.75V142.687z"/>
	<path d="M106.56,152.833v-17.188h3.857c1.263,0,2.179,0.373,2.749,1.118c0.57,0.746,0.854,1.845,0.854,3.296l0.01,7.754
		c0,1.732-0.287,3.002-0.859,3.809c-0.573,0.808-1.52,1.211-2.842,1.211H106.56z M109.177,150.802h0.859
		c0.482,0,0.832-0.156,1.05-0.469s0.327-0.885,0.327-1.719l-0.01-8.486c0-0.892-0.109-1.526-0.327-1.904
		c-0.218-0.377-0.594-0.566-1.128-0.566h-0.771V150.802z"/>
	<path d="M116.384,152.833v-17.188h5.762v2.256h-3.145v5h2.988v2.207h-2.988v5.469h3.262v2.256L116.384,152.833L116.384,152.833z"/>
	<path d="M124.011,147.999v-1.533h2.48v1.729c0,0.957,0.082,1.63,0.244,2.017c0.163,0.388,0.469,0.581,0.918,0.581
		s0.747-0.159,0.893-0.479c0.146-0.318,0.22-0.84,0.22-1.562s-0.13-1.353-0.39-1.89s-0.674-1.099-1.24-1.685l-1.27-1.309
		c-0.592-0.618-1.053-1.26-1.382-1.924s-0.493-1.432-0.493-2.305c0-1.419,0.273-2.474,0.82-3.164
		c0.547-0.689,1.488-1.035,2.822-1.035s2.238,0.402,2.709,1.206c0.473,0.805,0.708,1.978,0.708,3.521v1.064h-2.412v-1.23
		c0-0.833-0.071-1.431-0.214-1.792s-0.418-0.542-0.825-0.542s-0.7,0.137-0.879,0.41s-0.269,0.684-0.269,1.23
		s0.091,0.983,0.273,1.309s0.511,0.742,0.986,1.25l1.416,1.533c0.71,0.769,1.245,1.547,1.606,2.334
		c0.361,0.788,0.542,1.647,0.542,2.578c0,1.608-0.27,2.797-0.811,3.564c-0.54,0.769-1.485,1.152-2.836,1.152
		s-2.292-0.428-2.822-1.284C124.276,150.889,124.011,149.64,124.011,147.999z"/>
	<path d="M21.16,175.881c-0.619,0.766-1.489,1.147-2.612,1.147s-1.996-0.34-2.617-1.021c-0.622-0.68-0.933-1.671-0.933-2.974v-3.066
		h2.529v2.939c0,0.951,0.153,1.53,0.459,1.738c0.137,0.092,0.306,0.137,0.508,0.137c0.397,0,0.659-0.162,0.786-0.488
		c0.127-0.325,0.19-0.84,0.19-1.543v-13.105h2.617v12.979C22.087,174.03,21.778,175.116,21.16,175.881z"/>
	<path d="M23.787,176.833l2.451-17.188h3.457l2.607,17.188h-2.441l-0.41-3.066h-2.773l-0.371,3.066H23.787z M29.177,171.667
		l-1.152-8.633h-0.039l-1.055,8.633H29.177z"/>
	<path d="M34.099,176.833v-17.188h2.617v6.953h2.344v-6.953h2.617v17.188H39.06v-7.988h-2.344v7.988H34.099z"/>
	<path d="M47.712,168.757l-0.84-0.039v8.115h-2.617v-17.188h4.326c0.898,0,1.569,0.181,2.012,0.542s0.734,0.866,0.874,1.514
		c0.14,0.648,0.21,1.494,0.21,2.539s-0.111,1.841-0.332,2.388s-0.631,0.915-1.23,1.104c0.592,0.104,1.006,0.505,1.24,1.201
		c0.234,0.697,0.352,2.147,0.352,4.351s0.033,3.388,0.098,3.55h-2.617c-0.065-0.13-0.098-2.184-0.098-6.162
		c0-0.762-0.091-1.268-0.273-1.519C48.634,168.902,48.266,168.771,47.712,168.757z M46.882,166.687h1.045
		c0.332,0,0.578-0.074,0.737-0.225c0.16-0.149,0.27-0.406,0.332-0.771c0.062-0.364,0.093-0.921,0.093-1.67v-0.107
		c0-0.931-0.078-1.539-0.234-1.826c-0.156-0.286-0.518-0.43-1.084-0.43h-0.889C46.882,161.658,46.882,166.687,46.882,166.687z"/>
	<path d="M54.119,176.833v-17.188h5.762v2.256h-3.145v5h2.988v2.207h-2.988v5.469h3.262v2.256L54.119,176.833L54.119,176.833z"/>
	<path d="M61.746,171.999v-1.533h2.48v1.729c0,0.957,0.082,1.63,0.244,2.017c0.163,0.388,0.469,0.581,0.918,0.581
		s0.747-0.159,0.894-0.479c0.146-0.318,0.22-0.84,0.22-1.562s-0.13-1.353-0.391-1.89s-0.674-1.099-1.24-1.685l-1.27-1.309
		c-0.592-0.618-1.053-1.26-1.382-1.924s-0.493-1.432-0.493-2.305c0-1.419,0.273-2.474,0.82-3.164
		c0.547-0.689,1.488-1.035,2.822-1.035s2.238,0.402,2.71,1.206c0.472,0.805,0.708,1.978,0.708,3.521v1.064h-2.412v-1.23
		c0-0.833-0.072-1.431-0.215-1.792s-0.418-0.542-0.825-0.542s-0.7,0.137-0.879,0.41s-0.269,0.684-0.269,1.23
		s0.091,0.983,0.273,1.309s0.511,0.742,0.986,1.25l1.416,1.533c0.709,0.769,1.245,1.547,1.606,2.334
		c0.361,0.788,0.542,1.647,0.542,2.578c0,1.608-0.27,2.797-0.811,3.564c-0.541,0.769-1.486,1.152-2.837,1.152
		s-2.292-0.428-2.822-1.284C62.011,174.889,61.746,173.64,61.746,171.999z"/>
</g>
</svg>
