<?xml version="1.0" encoding="utf-8"?>
<!-- Generator: Adobe Illustrator 17.0.0, SVG Export Plug-In . SVG Version: 6.00 Build 0)  -->
<!DOCTYPE svg PUBLIC "-//W3C//DTD SVG 1.1//EN" "http://www.w3.org/Graphics/SVG/1.1/DTD/svg11.dtd">
<svg version="1.1" id="Layer_1" xmlns="http://www.w3.org/2000/svg" xmlns:xlink="http://www.w3.org/1999/xlink" x="0px" y="0px"
	 width="256px" height="256px" viewBox="0 0 256 256" enable-background="new 0 0 256 256" xml:space="preserve">
<path fill="#FFFFFF" d="M192.1,10.3c-17.1,0-32.4,8-42.3,20.6h-0.3v0.3c-7.1,9.1-11.4,20.6-11.4,33c0,29.7,24.2,53.9,53.9,53.9
	s54-24.2,54-53.9S221.9,10.3,192.1,10.3z"/>
<path d="M192,10.3c-17.1,0-32.4,8-42.3,20.6h-0.3v0.3c-7.1,9.1-11.4,20.6-11.4,33c0,29.7,24.2,53.9,53.9,53.9s53.9-24.2,53.9-53.9
	S221.7,10.3,192,10.3z M208.6,100.9l-23.1-3L183.7,78l17.6-10.7L217,82.4L208.6,100.9z M171.2,103.3L151.9,89l-2.1-14.7l11.8-7.4
	L181.5,78l1.9,20.2L171.2,103.3z M149.1,72.2L142,57.4l9.3-15.3l9.7,2l-0.2,20.8L149.1,72.2z M188.3,19l21.3,2.9l7.3,13.6l-16.1,7.9
	l-16.5-11.5L188.3,19z M231.4,74.4l-12.6,6.7l-16.9-16.2l0.2-19.7l16-7.9L232.3,50L231.4,74.4z M233.5,74.9l1-24.5l7.1-0.9
	c1.4,4.7,2.1,9.6,2.1,14.7c0,4.6-0.6,9-1.7,13.2L233.5,74.9z M240.9,47.4l-7.1,0.9l-14.6-13.1L212,21.9l6.1-2.4
	C228.7,25.7,236.9,35.6,240.9,47.4z M178.8,14.2l7.4,4.1L182,32.1L162.3,42l-10.5-2.1l-0.2-8.1C158.5,23.4,167.9,17,178.8,14.2z
	 M149.7,40.5l-8.5,14.1c1.4-7.3,4.3-14.1,8.4-20L149.7,40.5z M140.5,59.2l7.1,14.9l2.1,14.8l-2.9,0.4c-4.1-7.4-6.5-16-6.5-25.1
	C140.3,62.5,140.4,60.8,140.5,59.2z M172.4,112.1l-0.2-6.8l12.5-5.3l23.9,3.1l4.4,8.4c-6.4,2.9-13.5,4.5-21,4.5
	C185.1,115.9,178.5,114.5,172.4,112.1z"/>
<g>
	<path fill="#FCFF00" stroke="#000000" stroke-miterlimit="10" d="M172.2,105.2c-6.4,0-11.2,5.7-11.4,10.7c0,0.5,0,1,0.1,1.5
		c-0.6-1.4-1.4-2-1.7-2.4c1.4-0.9-0.1-1.6-0.1-1.6H96.9c0,0-1.5,0.7-0.1,1.6c-0.2,0.4-1.1,1.1-1.7,2.5c0.1-0.5,0.1-1,0.1-1.6
		c-0.2-5-5.1-10.7-11.4-10.7c-6.1,0-11.6,3.8-11.6,11.4c0,11.1,8.8,15.2,17.4,18.9c6.9,3,14.1,5.6,14.1,11.7c0,5.8-4.1,5.5-4.1,7.7
		c0,0.6,0.4,1.3,1.4,1.3c1.1,0,5.3-3.4,5.4-8.2c0.1-2.2-0.4-4.2-1.7-6.2c3.9,3.7,9.4,7,17.2,8.8c0.1-0.3,1,1-0.1,1.2
		s-2.2,1.2-2.1,2.7s1.7,2.9,2.8,2.8c0,1.5-0.1,21.3-0.1,24.5s0.9,12.6,1.4,15.6c-1.9,0-6.8,3.9-6.8,10.5l-3.6,1.1v17.6
		c0,0,0.7,0.1-1.8,0.1s-3.6,10.6-8.6,10.6c-0.2,2.9-0.3,4.9-0.3,4.9s-6.4,0-6.4,5.7c0,5.3,0,6.5,0,6.5h27.2h3.9h29.9
		c0,0,0-1.3,0-6.5c0-6.2-5.6-5.9-5.6-5.9s0.2-1.9,0.1-4.7c-5,0-6.5-10.6-9-10.6s-2.6-0.1-2.6-0.1V209l-2.6-1.1
		c0-6.5-4-10.5-5.9-10.5c0.5-2.9,1.5-12.4,1.5-15.6c0-3.2-0.1-23-0.1-24.5c1.1,0.1,2.7-1.3,2.8-2.8s-1-2.5-2.1-2.7s-0.2-1.5-0.1-1.2
		c7.8-1.9,13.3-5.1,17.2-8.8c-1.3,2-1.8,4.1-1.7,6.2c0.1,4.8,4.3,8.2,5.4,8.2s1.4-0.7,1.4-1.3c0.1-2.2-4.1-2-4.1-7.7
		c0-6.1,7.2-8.8,14.1-11.7c8.6-3.7,17.4-7.7,17.4-18.9C183.8,109.1,178.3,105.2,172.2,105.2z M90.2,132.4c-1.2-0.6-13.7-5.4-14-15.1
		c0-5.5,3.8-8.9,7.6-8.9c4.6,0,9,3.8,9,7.7c0,3.2-2.6,4-2.9,4.1c-1.1,0.3-1.6,0.9-1.6,1.5c0,0.7,0.6,1.3,1.9,1.3
		c0.6,0,3.4-1.1,4.5-4c-0.1,0.8-0.1,1.8,0.1,2.9c0.5,2.5,1.6,9.8,6.9,16.6C99.2,136.3,95.5,134.3,90.2,132.4z M165.8,132.4
		c-5.2,1.9-9,3.9-11.5,6c5.3-6.8,6.4-14.1,6.9-16.6c0.2-1.1,0.2-2.1,0.1-2.9c1.1,2.9,3.9,4,4.5,4c1.3,0,1.9-0.7,1.9-1.3
		c0-0.7-0.5-1.2-1.6-1.5c-0.3-0.1-2.9-0.9-2.9-4.1c0-4,4.4-7.7,9-7.7c3.8,0,7.6,3.4,7.6,8.9C179.5,127,167,131.8,165.8,132.4z"/>
	<path fill="#FFFFFF" d="M133.9,128.6c6.8,0,9.1-1.1,12-6.1s2.3-7.5-12.4-7.6s-13.9,3.3-11.8,7.4S126.1,128.6,133.9,128.6z"/>
	<path fill="#FFFFFF" d="M127.6,155c0,0-2.1-1.3-0.3-1.7c1.1-0.3,2.8-0.4,3.9-0.1c1.1,0.3-0.2,1.9-1.3,1.9
		C128.8,155,127.6,155,127.6,155z"/>
	<path fill="#FFFFFF" d="M127,158h3.3c0,0,0.7,22.7-1.3,22.7C126.5,180.7,127,161,127,158z"/>
	<path fill="#FFFFFF" d="M126.5,207.9c0,0,0.2-3.1,0.2-4.9c0-1.8,1.4-2.9,2.7-2.9s2.7,0.3,2.8,2.9c0.2,2.9,0.2,4.1,0.3,4.9H126.5z"
		/>
	<path fill="#FFFFFF" d="M126,228c0,0,7.2,0,8.9,0s3.2,6.5,0.4,6.5s-7.3,0.7-9.3,0.7S124,228,126,228z"/>
	<rect x="140" y="239" fill="#ABD100" width="7" height="3"/>
	<rect x="134" y="209" fill="#ABD100" width="3" height="18"/>
	<path fill="#ABD100" d="M130.3,197c0,0,1.4-24.7,0.5-39c0.7,0,1.1,0,1.1,0s0.9,23.7-0.4,39C130.8,197,130.3,197,130.3,197z"/>
	<path fill="#ABD100" d="M129.4,156.4c0,0,2.5,0.2,3.1-2.1c0.2-1,1.8-1,1.6,0C134,155.3,132.2,156.9,129.4,156.4z"/>
	<path fill="#ABD100" d="M130.1,145.1c0,0,33.6-10.1,28.1-28.3c1.5,1.8,6,21.9-23.7,32.7c-0.2-0.3-0.7-1.8-4.2-1.5
		C127.6,148.2,127.5,145.9,130.1,145.1z"/>
	<rect x="106" y="239" fill="#FF9F00" width="3" height="3"/>
	<polygon fill="#FF9F00" points="116.3,227 118.8,227 119,209 116.5,209 	"/>
	<path fill="#FF9F00" d="M125.5,197c0,0-2.1-24.7-1.2-39c-0.7,0-1.1,0-1.1,0s-0.2,23.7,1.1,39C125.1,197,125.5,197,125.5,197z"/>
	<path fill="#FF9F00" d="M125.8,156.4c0,0-2.5,0.2-3.1-2.1c-0.2-1-1.8-1-1.6,0S123,156.9,125.8,156.4z"/>
	<path fill="#FF9F00" d="M125.2,145.1c0,0-33.6-10.1-28.1-28.3c-1.5,1.8-6,21.9,23.7,32.7c0.2-0.3,0.7-1.8,4.2-1.5
		C127.6,148.2,127.8,145.9,125.2,145.1z"/>
	<path fill="none" stroke="#957E78" stroke-width="0.6534" stroke-miterlimit="10" d="M119.8,150.1c0,0,3.7,1,7.7,1s7.5-0.6,8.4-0.9
		"/>
	<line fill="none" stroke="#957E78" stroke-miterlimit="10" x1="122" y1="157.5" x2="133" y2="157.5"/>
	<path fill="#FCFF00" stroke="#000000" stroke-miterlimit="10" d="M122.3,198.1c0,0,0.8-0.6,2-0.6s7.9,0,7.9,0s0.8,0.1,1.5,0.6"/>
	<line fill="none" stroke="#000000" stroke-miterlimit="10" x1="117" y1="207.5" x2="138" y2="207.5"/>
	<line fill="none" stroke="#000000" stroke-miterlimit="10" x1="114" y1="208.5" x2="141" y2="208.5"/>
	<line fill="none" stroke="#000000" stroke-miterlimit="10" x1="114" y1="227.5" x2="141" y2="227.5"/>
	<line fill="none" stroke="#957E78" stroke-width="0.6534" stroke-miterlimit="10" x1="103.6" y1="237.7" x2="152.2" y2="237.4"/>
	<line fill="none" stroke="#957E78" stroke-width="0.6534" stroke-miterlimit="10" x1="103.1" y1="242.3" x2="152.5" y2="242"/>
</g>
<g>
	<g>
		<path fill="#F0F0F0" d="M191.6,106.1c22.6,0,41-18.3,41-41s-18.3-41-41-41c-22.6,0-41,18.3-41,41S169,106.1,191.6,106.1"/>
		<path fill="#D80027" d="M232.6,65.1c0-17.6-11.1-32.6-26.7-38.4v76.8C221.5,97.7,232.6,82.7,232.6,65.1"/>
		<path fill="#6DA544" d="M150.7,65.1c0,17.6,11.1,32.6,26.7,38.4V26.7C161.8,32.5,150.7,47.5,150.7,65.1"/>
	</g>
	<ellipse fill="none" stroke="#000000" stroke-miterlimit="10" cx="191.6" cy="65.2" rx="40.8" ry="40.6"/>
</g>
<g>
	<path d="M42.221,205.919v-28.952h4.409v28.952H42.221z"/>
	<path d="M52.617,205.919v-25.136h-3.389v-3.816h11.038v3.816h-3.257v25.136H52.617z"/>
	<path d="M61.385,205.919l4.129-28.952h5.823l4.393,28.952h-4.113l-0.691-5.166h-4.672l-0.625,5.166H61.385z M70.466,197.217
		l-1.941-14.542H68.46l-1.777,14.542L70.466,197.217L70.466,197.217z"/>
	<path d="M78.756,205.919v-28.952h4.409v25.201h5.577v3.751L78.756,205.919L78.756,205.919z"/>
	<path d="M91.439,205.919v-28.952h4.409v28.952H91.439z"/>
	<path d="M100.355,205.919v-28.952h9.706v3.8h-5.297v8.422h5.034v3.718h-5.034v9.213h5.494v3.8h-9.903V205.919z"/>
	<path d="M113.779,205.919v-28.952h3.455l6.136,17.371l-0.312-7.896v-9.475h3.965v28.952h-3.126l-6.3-17.98l0.247,7.601v10.38
		h-4.065V205.919z"/>
	<path d="M131.529,205.919v-28.952h4.408v28.952H131.529z"/>
	<path d="M139.869,197.775v-2.582h4.179v2.911c0,1.612,0.137,2.745,0.411,3.397s0.79,0.979,1.546,0.979
		c0.757,0,1.259-0.269,1.506-0.806c0.246-0.537,0.37-1.415,0.37-2.632c0-1.218-0.22-2.278-0.658-3.184
		c-0.438-0.904-1.135-1.851-2.089-2.838l-2.139-2.204c-0.998-1.042-1.774-2.122-2.328-3.24c-0.554-1.119-0.83-2.413-0.83-3.883
		c0-2.391,0.46-4.167,1.382-5.33c0.921-1.162,2.505-1.743,4.754-1.743c2.248,0,3.77,0.677,4.564,2.031s1.192,3.331,1.192,5.931
		v1.793h-4.062v-2.073c0-1.403-0.121-2.409-0.362-3.019c-0.241-0.608-0.705-0.913-1.39-0.913c-0.686,0-1.18,0.23-1.48,0.691
		c-0.302,0.461-0.453,1.151-0.453,2.072c0,0.922,0.154,1.656,0.461,2.205c0.307,0.548,0.861,1.25,1.661,2.105l2.386,2.582
		c1.195,1.295,2.098,2.605,2.706,3.932c0.608,1.327,0.913,2.775,0.913,4.344c0,2.708-0.455,4.71-1.365,6.004
		c-0.911,1.294-2.504,1.941-4.779,1.941s-3.86-0.722-4.754-2.163C140.316,202.643,139.869,200.539,139.869,197.775z"/>
	<path d="M166.058,204.232c-0.998,1.344-2.566,2.016-4.704,2.016c-2.139,0-3.737-0.716-4.796-2.147s-1.587-3.489-1.587-6.177
		v-12.617c0-4.31,1.129-7.002,3.389-8.077c0.833-0.395,1.842-0.592,3.026-0.592c4.068,0,6.104,2.565,6.104,7.698v3.981h-4.261
		v-3.702c0-1.491-0.126-2.558-0.379-3.199c-0.252-0.642-0.745-0.962-1.48-0.962c-0.734,0-1.244,0.34-1.529,1.02
		c-0.285,0.681-0.428,1.722-0.428,3.126v13.521c0,1.558,0.137,2.671,0.411,3.34s0.773,1.003,1.497,1.003s1.223-0.34,1.497-1.02
		c0.273-0.68,0.411-1.804,0.411-3.372v-4.146h4.326v4.096C167.555,200.819,167.056,202.89,166.058,204.232z"/>
	<path d="M171.141,205.919v-28.952h4.409v11.712h3.948v-11.712h4.408v28.952h-4.408v-13.456h-3.948v13.456H171.141z"/>
	<path d="M188.249,205.919v-28.952h9.706v3.8h-5.297v8.422h5.033v3.718h-5.033v9.213h5.494v3.8h-9.903V205.919z"/>
	<path d="M207.496,192.314l-1.415-0.065v13.67h-4.408v-28.952h7.287c1.514,0,2.643,0.304,3.389,0.912
		c0.746,0.609,1.236,1.459,1.473,2.55c0.235,1.092,0.354,2.518,0.354,4.277c0,1.761-0.187,3.101-0.56,4.022
		s-1.063,1.541-2.072,1.858c0.998,0.176,1.694,0.851,2.089,2.023c0.395,1.174,0.593,3.616,0.593,7.329
		c0,3.712,0.055,5.705,0.164,5.979h-4.408c-0.11-0.22-0.165-3.68-0.165-10.38c0-1.283-0.153-2.136-0.461-2.559
		C209.048,192.559,208.428,192.337,207.496,192.314z M206.098,188.827h1.761c0.559,0,0.973-0.126,1.241-0.379
		c0.269-0.252,0.455-0.685,0.56-1.299s0.156-1.552,0.156-2.813v-0.181c0-1.568-0.132-2.594-0.395-3.076
		c-0.264-0.482-0.872-0.724-1.826-0.724h-1.497V188.827z"/>
	<path d="M30.329,239.919v-28.952h5.478l4.112,21.154l3.866-21.154h5.511v28.952h-3.932v-10.792l0.165-9.902l-3.899,20.562h-3.504
		l-4.063-20.562l0.165,9.902v10.792H30.329z"/>
	<path d="M53.655,239.919v-28.952h9.706v3.8h-5.297v8.422h5.034v3.718h-5.034v9.213h5.494v3.8h-9.903V239.919z"/>
	<path d="M67.243,239.919v-28.952h4.409v28.952H67.243z"/>
	<path d="M75.583,231.775v-2.582h4.178v2.911c0,1.612,0.137,2.745,0.411,3.397c0.274,0.652,0.79,0.979,1.546,0.979
		c0.757,0,1.259-0.269,1.505-0.806s0.37-1.415,0.37-2.632c0-1.218-0.22-2.278-0.658-3.184c-0.438-0.904-1.135-1.851-2.089-2.838
		l-2.139-2.204c-0.998-1.042-1.774-2.122-2.328-3.24c-0.554-1.119-0.831-2.413-0.831-3.883c0-2.391,0.46-4.167,1.382-5.33
		c0.921-1.162,2.505-1.743,4.754-1.743c2.248,0,3.77,0.677,4.565,2.031c0.795,1.354,1.192,3.331,1.192,5.931v1.793H83.38v-2.073
		c0-1.403-0.121-2.409-0.362-3.019c-0.241-0.608-0.705-0.913-1.39-0.913c-0.686,0-1.179,0.23-1.48,0.691
		c-0.302,0.461-0.453,1.151-0.453,2.072c0,0.922,0.154,1.656,0.461,2.205c0.307,0.548,0.861,1.25,1.661,2.105l2.385,2.582
		c1.195,1.295,2.098,2.605,2.706,3.932c0.609,1.327,0.913,2.775,0.913,4.344c0,2.708-0.455,4.71-1.365,6.004
		c-0.911,1.294-2.503,1.941-4.779,1.941s-3.86-0.722-4.754-2.163C76.03,236.643,75.583,234.539,75.583,231.775z"/>
	<path d="M92.527,239.919v-25.136h-3.389v-3.816h11.038v3.816h-3.257v25.136H92.527z"/>
	<path d="M102.611,239.919v-28.952h9.706v3.8h-5.297v8.422h5.034v3.718h-5.034v9.213h5.494v3.8h-9.903V239.919z"/>
	<path d="M121.857,226.314l-1.415-0.065v13.67h-4.409v-28.952h7.288c1.513,0,2.643,0.304,3.389,0.912
		c0.746,0.609,1.236,1.459,1.472,2.55c0.236,1.092,0.354,2.518,0.354,4.277c0,1.761-0.187,3.101-0.559,4.022
		c-0.373,0.921-1.064,1.541-2.073,1.858c0.998,0.176,1.694,0.851,2.089,2.023c0.395,1.174,0.592,3.616,0.592,7.329
		c0,3.712,0.055,5.705,0.164,5.979h-4.408c-0.11-0.22-0.165-3.68-0.165-10.38c0-1.283-0.154-2.136-0.461-2.559
		C123.409,226.559,122.79,226.337,121.857,226.314z M120.459,222.827h1.76c0.559,0,0.973-0.126,1.242-0.379
		c0.269-0.252,0.455-0.685,0.56-1.299c0.104-0.614,0.156-1.552,0.156-2.813v-0.181c0-1.568-0.132-2.594-0.395-3.076
		s-0.872-0.724-1.826-0.724h-1.497V222.827z"/>
	<path d="M143.815,241.778c-1.066,0-1.933-0.087-2.598-0.26c-0.665-0.174-1.229-0.49-1.688-0.95
		c-0.46-0.461-0.784-1.085-0.971-1.873s-0.28-1.807-0.28-3.056v-14.506c0-1.249,0.094-2.268,0.28-3.056s0.511-1.413,0.971-1.873
		s1.023-0.777,1.688-0.95s1.531-0.26,2.598-0.26v2.734c-0.812,0-1.331,0.212-1.559,0.636s-0.342,1.328-0.342,2.714v14.615
		c0,1.386,0.114,2.29,0.342,2.714s0.747,0.636,1.559,0.636V241.778z"/>
	<path d="M146.304,233.151v-2.146h3.473v2.42c0,1.34,0.114,2.281,0.342,2.823s0.656,0.813,1.285,0.813s1.046-0.224,1.251-0.67
		s0.308-1.176,0.308-2.188s-0.183-1.894-0.547-2.646s-0.943-1.538-1.736-2.358l-1.777-1.832c-0.829-0.866-1.475-1.764-1.935-2.693
		s-0.69-2.005-0.69-3.227c0-1.987,0.383-3.464,1.148-4.43s2.083-1.449,3.951-1.449s3.133,0.562,3.794,1.688s0.991,2.769,0.991,4.929
		v1.49h-3.377v-1.723c0-1.167-0.101-2.003-0.301-2.509s-0.586-0.759-1.155-0.759s-0.979,0.191-1.23,0.574s-0.376,0.957-0.376,1.723
		s0.128,1.376,0.383,1.832s0.716,1.039,1.381,1.75l1.982,2.146c0.993,1.075,1.743,2.165,2.249,3.268s0.759,2.306,0.759,3.609
		c0,2.251-0.378,3.915-1.135,4.99s-2.08,1.613-3.972,1.613s-3.208-0.6-3.951-1.798S146.304,235.448,146.304,233.151z"/>
	<path d="M159.155,239.919v-24.062h8.066v3.158h-4.402v7h4.184v3.09h-4.184v7.656h4.566v3.158L159.155,239.919L159.155,239.919z"/>
	<path d="M175.151,228.612l-1.176-0.055v11.361h-3.664v-24.062h6.057c1.258,0,2.196,0.253,2.816,0.759s1.027,1.212,1.224,2.119
		s0.294,2.092,0.294,3.555s-0.155,2.577-0.465,3.343s-0.884,1.28-1.723,1.545c0.829,0.146,1.408,0.706,1.736,1.682
		s0.492,3.006,0.492,6.091s0.046,4.742,0.137,4.97h-3.664c-0.091-0.183-0.137-3.058-0.137-8.627c0-1.066-0.128-1.775-0.383-2.126
		S175.926,228.631,175.151,228.612z M173.989,225.714h1.463c0.465,0,0.809-0.104,1.032-0.314s0.378-0.569,0.465-1.08
		s0.13-1.29,0.13-2.338v-0.15c0-1.304-0.109-2.155-0.328-2.557s-0.725-0.602-1.518-0.602h-1.244L173.989,225.714L173.989,225.714z"
		/>
	<path d="M184.257,239.919v-24.062h3.664v24.062H184.257z"/>
	<path d="M191.667,239.919v-24.062h8.066v3.158h-4.402v7h4.184v3.09h-4.184v7.656h4.566v3.158L191.667,239.919L191.667,239.919z"/>
	<path d="M206.747,239.919l3.432-24.062h4.84l3.65,24.062h-3.418l-0.574-4.293h-3.883l-0.52,4.293H206.747z M214.294,232.687
		l-1.613-12.086h-0.055l-1.477,12.086H214.294z"/>
	<path d="M220.556,241.778v-2.734c0.812,0,1.331-0.212,1.559-0.636s0.342-1.328,0.342-2.714v-14.615c0-1.386-0.114-2.29-0.342-2.714
		s-0.747-0.636-1.559-0.636v-2.734c1.066,0,1.933,0.087,2.598,0.26s1.226,0.49,1.682,0.95s0.777,1.085,0.964,1.873
		s0.28,1.807,0.28,3.056v14.506c0,1.249-0.094,2.268-0.28,3.056s-0.508,1.412-0.964,1.873c-0.456,0.46-1.017,0.776-1.682,0.95
		C222.488,241.691,221.622,241.778,220.556,241.778z"/>
</g>
</svg>
