<?xml version="1.0" encoding="utf-8"?>
<!-- Generator: Adobe Illustrator 17.0.0, SVG Export Plug-In . SVG Version: 6.00 Build 0)  -->
<!DOCTYPE svg PUBLIC "-//W3C//DTD SVG 1.1//EN" "http://www.w3.org/Graphics/SVG/1.1/DTD/svg11.dtd">
<svg version="1.1" id="Layer_1" xmlns="http://www.w3.org/2000/svg" xmlns:xlink="http://www.w3.org/1999/xlink" x="0px" y="0px"
	 width="256px" height="256px" viewBox="0 0 256 256" enable-background="new 0 0 256 256" xml:space="preserve">
<path fill="#FFFFFF" d="M192.1,10.3c-17.1,0-32.4,8-42.3,20.6h-0.3v0.3c-7.1,9.1-11.4,20.6-11.4,33c0,29.7,24.2,53.9,53.9,53.9
	s54-24.2,54-53.9S221.9,10.3,192.1,10.3z"/>
<path d="M192,10.3c-17.1,0-32.4,8-42.3,20.6h-0.3v0.3c-7.1,9.1-11.4,20.6-11.4,33c0,29.7,24.2,53.9,53.9,53.9s53.9-24.2,53.9-53.9
	S221.7,10.3,192,10.3z M208.6,100.9l-23.1-3L183.7,78l17.6-10.7L217,82.4L208.6,100.9z M171.2,103.3L151.9,89l-2.1-14.7l11.8-7.4
	L181.5,78l1.9,20.2L171.2,103.3z M149.1,72.2L142,57.4l9.3-15.3l9.7,2l-0.2,20.8L149.1,72.2z M188.3,19l21.3,2.9l7.3,13.6l-16.1,7.9
	l-16.5-11.5L188.3,19z M231.4,74.4l-12.6,6.7l-16.9-16.2l0.2-19.7l16-7.9L232.3,50L231.4,74.4z M233.5,74.9l1-24.5l7.1-0.9
	c1.4,4.7,2.1,9.6,2.1,14.7c0,4.6-0.6,9-1.7,13.2L233.5,74.9z M240.9,47.4l-7.1,0.9l-14.6-13.1L212,21.9l6.1-2.4
	C228.7,25.7,236.9,35.6,240.9,47.4z M178.8,14.2l7.4,4.1L182,32.1L162.3,42l-10.5-2.1l-0.2-8.1C158.5,23.4,167.9,17,178.8,14.2z
	 M149.7,40.5l-8.5,14.1c1.4-7.3,4.3-14.1,8.4-20L149.7,40.5z M140.5,59.2l7.1,14.9l2.1,14.8l-2.9,0.4c-4.1-7.4-6.5-16-6.5-25.1
	C140.3,62.5,140.4,60.8,140.5,59.2z M172.4,112.1l-0.2-6.8l12.5-5.3l23.9,3.1l4.4,8.4c-6.4,2.9-13.5,4.5-21,4.5
	C185.1,115.9,178.5,114.5,172.4,112.1z"/>
<g>
	<path fill="#FCFF00" stroke="#000000" stroke-miterlimit="10" d="M181.7,112c-0.3-0.4-0.8-0.5-1.3-0.5h-7.9c0.1,0,0.1-0.8,0.1-0.9
		c1.1,0,0.2-1.1,0.2-1.1H83.2c0,0-0.9,1.1,0.2,1.1c0,0.1,0,0.9,0.1,0.9h-7.9c-0.5,0-1,0.1-1.3,0.5s-0.4,0.8-0.3,1.3l11.3,50.6
		c0.2,0.7,0.8,1.6,1.6,1.6h9.4c0.4,0,0.9-0.5,1.2-0.8c0.3-0.3,0.5-0.9,0.5-1.3c0-0.2,0-17.2,9.1-20.3c0.2,0.9,1.1,1.6,2.1,1.6
		c1.2,0,2.2-1,2.2-2.2c0-0.1,0-0.2,0-0.4c2.8,1.2,6,2.3,9.4,3.2l0.1,2.1c0,0-2.5,0.3-2.5,2.7s3.2,3.4,3.2,3.4h1.9v10.7
		c0,0,1.1,0.9,0.2,1.3c-0.9,0.4-6.4,2.4-6.6,6.1c-0.2,3.7-1.4,31.9-7.3,42.9c-1.5,0-2.3,0-2.3,0v4h-4v25c0,0-1.1,0-2,0
		c-2.4,0-3,11-3,11h59c0,0-0.7-11-3-11c-0.9,0-3,0-3,0v-25h-3v-4c0,0-0.8,0-2.3,0c-5.9-11-7-39.2-7.2-42.9s-6.4-5.7-7.2-6.1
		c-0.9-0.4-0.3-1.3-0.3-1.3v-10.7h2.9c0,0,3.2-1,3.2-3.4s-2.5-2.6-2.5-2.6l0.1-2.1c3.4-0.9,6.5-2,9.4-3.2c0,0.1,0,0.2,0,0.3
		c0,1.2,1,2.2,2.2,2.2c1,0,1.9-0.7,2.1-1.6c9.2,3.1,9.1,20.1,9.1,20.2c0,0.4,0.2,1.2,0.5,1.5s0.7,0.8,1.2,0.8h9.4
		c0.8,0,1.4-0.9,1.6-1.6l11.3-50.4C182.1,113,182,112.4,181.7,112z M107.7,140.8v-0.1c-5.5,1.1-9.5,5.9-11.5,13.3
		c-1,3.5-1.3,6.5-1.4,8.5h-6.5l-10.6-48h6.8c2,6,7.9,18.2,23.6,26C107.9,140.6,107.8,140.7,107.7,140.8z M167.7,162.5h-6.5
		c-0.1-2-0.4-5.3-1.4-8.8c-2-7.3-6-12.2-11.5-13.2l0,0c-0.1,0-0.2,0-0.4-0.1c15.7-7.9,21.6-19.9,23.6-25.9h6.8L167.7,162.5z"/>
	<path fill="#FFFFFF" d="M120.3,110.6l32.7,0.2c0,0-0.2,7.8-11.1,7.8c-1.7,0-9.6-0.2-12.2-0.2C127,118.5,120.5,117.6,120.3,110.6z"
		/>
	<rect x="127" y="145" fill="#FFFFFF" width="4" height="1"/>
	<rect x="126" y="148" fill="#FFFFFF" width="6" height="2"/>
	<rect x="127" y="154" fill="#FFFFFF" width="3" height="9"/>
	<path fill="#ABD100" d="M139.4,212h-10.3l0.5-42h7.2c0,0-0.5,10.2,0.3,21.7C138,203.1,139.4,212,139.4,212z"/>
	<polygon fill="#FFFFFF" points="138.1,218 124.4,218 125.7,216 136.8,216 	"/>
	<path fill="#ABD100" d="M130.9,144h3.9l0.2,0.5c0,0,27.2-6.7,35.2-29.1c0.4-1.7-1.5-4.7-3.3,0c-2.8,7.6-17.3,23.2-35.8,25
		C127.7,141,128.7,144,130.9,144z"/>
	<rect x="131" y="145" fill="#ABD100" width="3" height="1"/>
	<rect x="132" y="148" fill="#ABD100" width="3" height="2"/>
	<rect x="130" y="154" fill="#ABD100" width="1" height="9"/>
	<path fill="#FFFFFF" d="M136.2,212h-10.3l0.5-42h7.2c0,0-0.5,10.2,0.3,21.7C134.7,203.1,136.2,212,136.2,212z"/>
	<rect x="137" y="212" fill="#ABD100" width="5" height="2"/>
	<rect x="138" y="214" fill="#ABD100" width="5" height="4"/>
	<rect x="140" y="218" fill="#ABD100" width="5" height="26"/>
	<path fill="#FF9F00" d="M112.5,212h3.6c0,0,3.6-12.5,3.6-20.5s0-21.6,0-21.6l-1,0.1c0,0-0.1,10.2-1,21.6
		C116.9,203.1,112.5,212,112.5,212z"/>
	<path fill="#FF9F00" d="M125.1,144h-3.9l-0.3,0.5c0,0-27.6-6.2-35.1-29.8c0.2,0.4-0.5-1.4,1.3-1.8c0.5-0.1,1.1,0.1,1.9,1.8
		c2.1,4.6,17.3,23.9,35.8,25.7C128.3,141,127.3,144,125.1,144z"/>
	<rect x="122" y="145" fill="#FF9F00" width="3" height="1"/>
	<rect x="121.3" y="148.4" fill="#FF9F00" width="1.4" height="1.4"/>
	<rect x="124" y="154" fill="#FF9F00" width="1" height="9"/>
	<rect x="111" y="212" fill="#FF9F00" width="4" height="2"/>
	<rect x="109" y="214" fill="#FF9F00" width="4" height="4"/>
	<rect x="108" y="218" fill="#FF9F00" width="2" height="26"/>
	<line fill="none" stroke="#957E78" stroke-miterlimit="10" x1="123" y1="153.5" x2="133" y2="153.5"/>
	<line fill="none" stroke="#957E78" stroke-miterlimit="10" x1="120" y1="145.5" x2="136" y2="145.5"/>
	<line fill="none" stroke="#957E78" stroke-miterlimit="10" x1="123" y1="164.5" x2="132" y2="164.5"/>
	<line fill="none" stroke="#957E78" stroke-miterlimit="10" x1="108" y1="214.5" x2="147" y2="214.5"/>
	<line fill="none" stroke="#957E78" stroke-miterlimit="10" x1="107" y1="218.5" x2="149" y2="218.5"/>
	<line fill="none" stroke="#957E78" stroke-miterlimit="10" x1="103" y1="243.5" x2="151" y2="243.5"/>
</g>
<g>
	<g>
		<circle fill="#F0F0F0" cx="191.4" cy="64.9" r="41"/>
		<circle fill="#D80027" cx="191.4" cy="64.9" r="17.8"/>
	</g>
	<ellipse fill="none" stroke="#000000" stroke-width="1.4754" stroke-miterlimit="10" cx="191.6" cy="65.2" rx="40.8" ry="40.6"/>
</g>
<g>
	<path d="M12.832,204.981c-1.042,1.289-2.508,1.933-4.4,1.933s-3.361-0.573-4.409-1.719c-1.047-1.146-1.571-2.815-1.571-5.009
		v-5.166h4.261v4.952c0,1.601,0.257,2.577,0.773,2.928c0.23,0.153,0.516,0.23,0.855,0.23c0.669,0,1.11-0.274,1.324-0.822
		c0.214-0.549,0.321-1.415,0.321-2.6v-22.076h4.409v21.862C14.395,201.864,13.874,203.692,12.832,204.981z"/>
	<path d="M16.112,206.585l4.129-28.952h5.823l4.393,28.952h-4.113l-0.691-5.165h-4.672l-0.625,5.165H16.112z M25.192,197.883
		l-1.941-14.542h-0.065l-1.777,14.542H25.192z"/>
	<path d="M32.338,206.585v-28.952h6.646c2.248,0,3.786,0.683,4.614,2.048s1.264,3.403,1.308,6.111v0.608
		c0,2.874-0.409,5.054-1.226,6.539c-0.817,1.486-2.333,2.229-4.548,2.229h-2.385v11.416L32.338,206.585L32.338,206.585z
		 M36.747,191.533h1.513c0.932,0,1.538-0.359,1.818-1.077c0.28-0.719,0.419-2.087,0.419-4.104v-0.56
		c-0.011-1.711-0.162-2.934-0.452-3.668c-0.291-0.734-0.875-1.103-1.752-1.103h-1.546V191.533z"/>
	<path d="M44.928,206.585l4.129-28.952h5.823l4.393,28.952H55.16l-0.691-5.165h-4.672l-0.625,5.165H44.928z M54.009,197.883
		l-1.941-14.542h-0.065l-1.777,14.542H54.009z"/>
	<path d="M61.154,206.585v-28.952h3.455l6.136,17.371l-0.312-7.896v-9.476h3.965v28.952h-3.126l-6.3-17.979l0.247,7.6v10.38
		L61.154,206.585L61.154,206.585z"/>
	<path d="M77.758,206.585v-28.952h4.409v28.952H77.758z"/>
	<path d="M84.953,198.442v-2.583h4.178v2.912c0,1.612,0.137,2.744,0.411,3.396c0.274,0.653,0.79,0.979,1.546,0.979
		c0.757,0,1.259-0.269,1.505-0.807c0.247-0.537,0.37-1.414,0.37-2.632c0-1.217-0.22-2.278-0.658-3.183
		c-0.438-0.905-1.135-1.852-2.089-2.838l-2.139-2.204c-0.998-1.042-1.774-2.122-2.328-3.241c-0.554-1.118-0.831-2.412-0.831-3.882
		c0-2.391,0.46-4.168,1.382-5.33c0.921-1.162,2.505-1.744,4.754-1.744c2.248,0,3.77,0.678,4.565,2.032
		c0.795,1.354,1.192,3.331,1.192,5.93v1.793H92.75v-2.072c0-1.403-0.121-2.41-0.362-3.019s-0.705-0.913-1.39-0.913
		c-0.686,0-1.179,0.23-1.48,0.69c-0.302,0.461-0.453,1.152-0.453,2.073s0.154,1.656,0.461,2.204c0.307,0.549,0.861,1.25,1.661,2.105
		l2.385,2.583c1.195,1.294,2.098,2.604,2.706,3.932c0.609,1.327,0.913,2.774,0.913,4.343c0,2.709-0.455,4.71-1.365,6.004
		c-0.911,1.295-2.503,1.941-4.779,1.941s-3.86-0.721-4.754-2.163C85.4,203.309,84.953,201.206,84.953,198.442z"/>
	<path d="M109.997,204.899c-0.998,1.343-2.566,2.015-4.705,2.015s-3.737-0.716-4.795-2.146c-1.059-1.432-1.587-3.49-1.587-6.177
		v-12.618c0-4.31,1.129-7.002,3.389-8.076c0.833-0.396,1.842-0.593,3.027-0.593c4.068,0,6.103,2.566,6.103,7.699v3.98h-4.261v-3.701
		c0-1.491-0.126-2.558-0.378-3.199s-0.746-0.963-1.48-0.963s-1.245,0.34-1.53,1.021c-0.285,0.68-0.428,1.722-0.428,3.125v13.522
		c0,1.557,0.137,2.67,0.411,3.339s0.773,1.004,1.497,1.004s1.223-0.34,1.497-1.021c0.274-0.68,0.411-1.804,0.411-3.372v-4.146h4.327
		v4.097C111.494,201.485,110.994,203.556,109.997,204.899z"/>
	<path d="M113.934,206.585v-28.952h4.409v11.713h3.948v-11.713h4.409v28.952h-4.409v-13.456h-3.948v13.456H113.934z"/>
	<path d="M129.897,206.585v-28.952h9.705v3.8h-5.297v8.423h5.034v3.718h-5.034v9.212h5.494v3.8h-9.902V206.585z"/>
	<path d="M147.998,192.98l-1.414-0.065v13.67h-4.409v-28.952h7.288c1.513,0,2.643,0.305,3.389,0.913
		c0.745,0.608,1.236,1.459,1.472,2.55c0.236,1.091,0.354,2.517,0.354,4.277s-0.187,3.101-0.559,4.021
		c-0.373,0.922-1.064,1.541-2.073,1.859c0.998,0.175,1.694,0.85,2.09,2.023c0.395,1.173,0.592,3.616,0.592,7.328
		c0,3.713,0.055,5.706,0.164,5.979h-4.408c-0.109-0.219-0.164-3.679-0.164-10.38c0-1.283-0.154-2.136-0.461-2.558
		C149.55,193.225,148.931,193.003,147.998,192.98z M146.601,189.493h1.76c0.56,0,0.973-0.126,1.242-0.378s0.455-0.686,0.56-1.3
		c0.104-0.614,0.156-1.552,0.156-2.812v-0.182c0-1.567-0.132-2.593-0.396-3.076c-0.263-0.482-0.871-0.724-1.826-0.724h-1.496
		V189.493z"/>
	<path d="M162.536,206.585v-28.952h5.478l4.112,21.155l3.866-21.155h5.511v28.952h-3.932v-10.791l0.165-9.903l-3.899,20.562h-3.504
		l-4.062-20.562l0.164,9.903v10.791H162.536z"/>
	<path d="M184.717,206.585v-28.952h9.706v3.8h-5.297v8.423h5.033v3.718h-5.033v9.212h5.494v3.8h-9.903V206.585z"/>
	<path d="M197.159,206.585v-28.952h4.409v28.952H197.159z"/>
	<path d="M204.354,198.442v-2.583h4.178v2.912c0,1.612,0.138,2.744,0.411,3.396c0.274,0.653,0.79,0.979,1.547,0.979
		s1.259-0.269,1.505-0.807c0.247-0.537,0.37-1.414,0.37-2.632c0-1.217-0.22-2.278-0.658-3.183s-1.135-1.852-2.089-2.838
		l-2.139-2.204c-0.998-1.042-1.773-2.122-2.327-3.241c-0.555-1.118-0.831-2.412-0.831-3.882c0-2.391,0.461-4.168,1.382-5.33
		s2.506-1.744,4.754-1.744s3.77,0.678,4.565,2.032s1.192,3.331,1.192,5.93v1.793h-4.063v-2.072c0-1.403-0.12-2.41-0.361-3.019
		s-0.705-0.913-1.391-0.913s-1.179,0.23-1.48,0.69c-0.302,0.461-0.452,1.152-0.452,2.073s0.153,1.656,0.461,2.204
		c0.307,0.549,0.86,1.25,1.661,2.105l2.385,2.583c1.195,1.294,2.098,2.604,2.706,3.932c0.609,1.327,0.913,2.774,0.913,4.343
		c0,2.709-0.455,4.71-1.365,6.004c-0.91,1.295-2.503,1.941-4.778,1.941c-2.276,0-3.86-0.721-4.754-2.163
		C204.801,203.309,204.354,201.206,204.354,198.442z"/>
	<path d="M220.152,206.585v-25.136h-3.389v-3.816h11.038v3.816h-3.258v25.136H220.152z"/>
	<path d="M229.091,206.585v-28.952h9.705v3.8h-5.297v8.423h5.034v3.718h-5.034v9.212h5.494v3.8h-9.902V206.585z"/>
	<path d="M247.191,192.98l-1.414-0.065v13.67h-4.409v-28.952h7.288c1.513,0,2.643,0.305,3.389,0.913
		c0.745,0.608,1.236,1.459,1.472,2.55c0.236,1.091,0.354,2.517,0.354,4.277s-0.187,3.101-0.559,4.021
		c-0.373,0.922-1.064,1.541-2.073,1.859c0.998,0.175,1.694,0.85,2.09,2.023c0.395,1.173,0.592,3.616,0.592,7.328
		c0,3.713,0.055,5.706,0.164,5.979h-4.408c-0.109-0.219-0.164-3.679-0.164-10.38c0-1.283-0.154-2.136-0.461-2.558
		C248.743,193.225,248.124,193.003,247.191,192.98z M245.794,189.493h1.76c0.56,0,0.973-0.126,1.242-0.378s0.455-0.686,0.56-1.3
		c0.104-0.614,0.156-1.552,0.156-2.812v-0.182c0-1.567-0.132-2.593-0.396-3.076c-0.263-0.482-0.871-0.724-1.826-0.724h-1.496
		V189.493z"/>
	<path d="M26.17,238.444c-1.066,0-1.933-0.087-2.598-0.26c-0.666-0.173-1.229-0.49-1.688-0.95c-0.46-0.46-0.784-1.084-0.971-1.873
		c-0.187-0.788-0.28-1.807-0.28-3.056V217.8c0-1.248,0.093-2.267,0.28-3.056c0.187-0.788,0.51-1.412,0.971-1.873
		c0.46-0.46,1.023-0.776,1.688-0.95c0.665-0.173,1.531-0.26,2.598-0.26v2.734c-0.812,0-1.331,0.212-1.559,0.636
		s-0.342,1.329-0.342,2.714v14.615c0,1.386,0.114,2.29,0.342,2.714c0.228,0.424,0.747,0.636,1.559,0.636V238.444z"/>
	<path d="M36.889,235.252c-0.866,1.071-2.085,1.606-3.657,1.606s-2.794-0.476-3.664-1.429c-0.871-0.952-1.306-2.34-1.306-4.163
		v-4.293h3.541v4.115c0,1.331,0.214,2.143,0.643,2.434c0.191,0.128,0.428,0.191,0.711,0.191c0.556,0,0.923-0.228,1.101-0.684
		c0.178-0.455,0.267-1.176,0.267-2.16v-18.348h3.664v18.17C38.188,232.661,37.755,234.182,36.889,235.252z"/>
	<path d="M41.456,236.585v-3.363h3.076v3.363H41.456z"/>
	<path d="M48.497,236.585v-24.062h3.664v20.945h4.635v3.117L48.497,236.585L48.497,236.585z"/>
	<path d="M58.901,236.585v-24.062h8.066v3.158h-4.402v7h4.184v3.09h-4.184v7.656h4.566v3.158L58.901,236.585L58.901,236.585z"/>
	<path d="M68.963,236.585l3.432-24.062h4.84l3.65,24.062h-3.418l-0.574-4.293H73.01l-0.52,4.293H68.963z M76.51,229.353
		l-1.613-12.086h-0.055l-1.477,12.086H76.51z"/>
	<path d="M87.858,236.831c-1.513,0-2.696-0.595-3.548-1.784c-0.853-1.189-1.278-3.023-1.278-5.503v-10.459
		c0-2.224,0.435-3.919,1.306-5.086c0.87-1.166,2.253-1.75,4.149-1.75c2.36,0,3.86,0.88,4.498,2.639
		c0.383,1.058,0.574,2.502,0.574,4.334v1.709h-3.418v-2.516c0-1.103-0.116-1.877-0.349-2.324c-0.232-0.446-0.67-0.67-1.312-0.67
		s-1.096,0.267-1.36,0.8c-0.265,0.533-0.396,1.479-0.396,2.837v10.432c0,1.577,0.118,2.676,0.355,3.295
		c0.237,0.62,0.699,0.93,1.388,0.93c0.688,0,1.176-0.332,1.463-0.998c0.287-0.665,0.431-1.786,0.431-3.363v-3.24h-1.846v-2.666
		h5.045v13.139h-1.641l-0.561-2.365c-0.191,0.812-0.611,1.449-1.258,1.914C89.453,236.599,88.706,236.831,87.858,236.831z"/>
	<path d="M106.219,235.293c-0.839,1.044-2.186,1.565-4.04,1.565c-1.855,0-3.204-0.523-4.047-1.572
		c-0.843-1.048-1.265-2.675-1.265-4.881v-17.896h3.664v17.828c0,1.268,0.059,2.037,0.178,2.311c0.118,0.273,0.262,0.522,0.431,0.745
		c0.168,0.224,0.517,0.335,1.046,0.335c0.528,0,0.907-0.154,1.135-0.465c0.228-0.31,0.367-0.694,0.417-1.155
		c0.05-0.46,0.075-1.05,0.075-1.771v-17.828h3.664v17.896C107.477,232.62,107.058,234.25,106.219,235.293z"/>
	<path d="M110.95,236.585v-24.062h8.066v3.158h-4.402v7h4.184v3.09h-4.184v7.656h4.566v3.158L110.95,236.585L110.95,236.585z"/>
	<path d="M127.11,236.585v-24.062h5.401c1.768,0,3.051,0.522,3.849,1.565c0.797,1.044,1.196,2.582,1.196,4.614l0.014,10.855
		c0,2.425-0.401,4.202-1.203,5.332c-0.803,1.131-2.129,1.695-3.979,1.695L127.11,236.585L127.11,236.585z M130.774,233.741h1.203
		c0.674,0,1.164-0.219,1.47-0.656c0.305-0.438,0.458-1.239,0.458-2.406l-0.014-11.881c0-1.248-0.153-2.137-0.458-2.666
		c-0.306-0.528-0.832-0.793-1.579-0.793h-1.08V233.741z"/>
	<path d="M141.001,236.585v-24.062h3.664v24.062H141.001z"/>
	<path d="M151.104,236.585l-3.732-24.062h3.486l1.572,10.869l0.971,7.656h0.096l0.834-7.656l1.312-10.869h3.418l-3.432,24.062
		H151.104z"/>
	<path d="M161.755,236.585v-24.062h3.664v24.062H161.755z"/>
	<path d="M168.687,229.817v-2.146h3.473v2.42c0,1.34,0.113,2.281,0.342,2.823c0.228,0.543,0.656,0.813,1.285,0.813
		s1.046-0.223,1.251-0.67c0.205-0.446,0.308-1.176,0.308-2.188s-0.183-1.894-0.547-2.646c-0.365-0.752-0.943-1.538-1.736-2.358
		l-1.777-1.832c-0.83-0.865-1.475-1.764-1.935-2.693c-0.461-0.93-0.69-2.005-0.69-3.227c0-1.986,0.383-3.463,1.148-4.43
		c0.766-0.966,2.082-1.449,3.951-1.449c1.868,0,3.133,0.563,3.794,1.688c0.66,1.126,0.991,2.769,0.991,4.929v1.49h-3.377v-1.723
		c0-1.166-0.101-2.003-0.301-2.509c-0.201-0.506-0.586-0.759-1.155-0.759c-0.57,0-0.98,0.191-1.23,0.574
		c-0.251,0.383-0.376,0.957-0.376,1.723s0.127,1.377,0.383,1.832c0.255,0.456,0.715,1.039,1.381,1.75l1.982,2.146
		c0.993,1.076,1.743,2.165,2.249,3.268c0.506,1.104,0.759,2.307,0.759,3.609c0,2.252-0.379,3.915-1.135,4.99
		c-0.757,1.076-2.081,1.613-3.972,1.613c-1.892,0-3.209-0.599-3.951-1.798C169.058,233.862,168.687,232.114,168.687,229.817z"/>
	<path d="M181.675,236.585v-24.062h3.664v24.062H181.675z"/>
	<path d="M198.163,235.122c-0.839,1.158-2.181,1.736-4.026,1.736s-3.199-0.581-4.061-1.743s-1.292-2.914-1.292-5.257v-11.006
		c0-4.411,1.8-6.617,5.4-6.617c1.859,0,3.196,0.561,4.013,1.682c0.815,1.121,1.224,2.767,1.224,4.936v11.006
		C199.421,232.21,199.001,233.965,198.163,235.122z M192.797,232.853c0.214,0.557,0.653,0.834,1.319,0.834
		c0.665,0,1.103-0.284,1.312-0.854c0.209-0.569,0.314-1.547,0.314-2.933v-11.211c0-1.139-0.107-1.971-0.321-2.495
		c-0.215-0.523-0.634-0.786-1.258-0.786c-0.625,0-1.062,0.263-1.312,0.786c-0.251,0.524-0.376,1.352-0.376,2.481V229.9
		C192.476,231.312,192.582,232.297,192.797,232.853z"/>
	<path d="M202.743,236.585v-24.062h2.871l5.1,14.438l-0.26-6.562v-7.875h3.295v24.062h-2.598l-5.236-14.943l0.205,6.316v8.627
		h-3.377V236.585z"/>
	<path d="M224.099,236.585v-19.523c-0.311,0.374-0.748,0.663-1.312,0.868c-0.565,0.205-1.121,0.308-1.668,0.308v-2.721
		c0.774-0.109,1.511-0.424,2.208-0.943s1.228-1.207,1.593-2.064h2.844v24.076h-3.665V236.585z"/>
	<path d="M230.989,238.444v-2.734c0.811,0,1.33-0.212,1.559-0.636c0.228-0.424,0.342-1.328,0.342-2.714v-14.615
		c0-1.385-0.114-2.29-0.342-2.714c-0.229-0.424-0.748-0.636-1.559-0.636v-2.734c1.066,0,1.932,0.087,2.598,0.26
		c0.665,0.174,1.226,0.49,1.682,0.95c0.455,0.461,0.776,1.085,0.964,1.873c0.187,0.789,0.28,1.808,0.28,3.056v14.506
		c0,1.249-0.094,2.268-0.28,3.056c-0.188,0.789-0.509,1.413-0.964,1.873c-0.456,0.46-1.017,0.777-1.682,0.95
		C232.921,238.357,232.056,238.444,230.989,238.444z"/>
</g>
</svg>
