<?xml version="1.0" encoding="utf-8"?>
<!-- Generator: Adobe Illustrator 17.0.0, SVG Export Plug-In . SVG Version: 6.00 Build 0)  -->
<!DOCTYPE svg PUBLIC "-//W3C//DTD SVG 1.1//EN" "http://www.w3.org/Graphics/SVG/1.1/DTD/svg11.dtd">
<svg version="1.1" id="Layer_1" xmlns="http://www.w3.org/2000/svg" xmlns:xlink="http://www.w3.org/1999/xlink" x="0px" y="0px"
	 width="256px" height="256px" viewBox="0 0 256 256" enable-background="new 0 0 256 256" xml:space="preserve">
	<g>
		<path fill="#FFFFFF" d="M192,10.3c-17.1,0-32.4,8-42.3,20.6h-0.3v0.3c-7.1,9.1-11.4,20.6-11.4,33c0,29.7,24.2,53.9,53.9,53.9
		s53.9-24.2,53.9-53.9S221.7,10.3,192,10.3z"/>
		<path d="M192,10.3c-17.1,0-32.4,8-42.3,20.6h-0.3v0.3c-7.1,9.1-11.4,20.6-11.4,33c0,29.7,24.2,53.9,53.9,53.9s53.9-24.2,53.9-53.9
		S221.7,10.3,192,10.3z M208.6,100.9l-23.1-3L183.7,78l17.6-10.7L217,82.4L208.6,100.9z M171.2,103.3L151.9,89l-2.1-14.7l11.8-7.4
		L181.5,78l1.9,20.2L171.2,103.3z M149.1,72.2L142,57.4l9.3-15.3l9.7,2l-0.2,20.8L149.1,72.2z M188.3,19l21.3,2.9l7.3,13.6
		l-16.1,7.9l-16.5-11.5L188.3,19z M231.4,74.4l-12.6,6.7l-16.9-16.2l0.2-19.7l16-7.9L232.3,50L231.4,74.4z M233.5,74.9l1-24.5
		l7.1-0.9c1.4,4.7,2.1,9.6,2.1,14.7c0,4.6-0.6,9-1.7,13.2L233.5,74.9z M240.9,47.4l-7.1,0.9l-14.6-13.1L212,21.9l6.1-2.4
		C228.7,25.7,236.9,35.6,240.9,47.4z M178.8,14.2l7.4,4.1L182,32.1L162.3,42l-10.5-2.1l-0.2-8.1C158.5,23.4,167.9,17,178.8,14.2z
		 M149.7,40.5l-8.5,14.1c1.4-7.3,4.3-14.1,8.4-20L149.7,40.5z M140.5,59.2l7.1,14.9l2.1,14.8l-2.9,0.4c-4.1-7.4-6.5-16-6.5-25.1
		C140.3,62.5,140.4,60.8,140.5,59.2z M172.4,112.1l-0.2-6.8l12.5-5.3l23.9,3.1l4.4,8.4c-6.4,2.9-13.5,4.5-21,4.5
		C185.1,115.9,178.5,114.5,172.4,112.1z"/>
	</g>
	<g>
		<path fill="#FCFF00" stroke="#000000" stroke-miterlimit="10" d="M181.7,112c-0.3-0.4-0.8-0.5-1.3-0.5h-7.9c0.1,0,0.1-0.8,0.1-0.9
		c1.1,0,0.2-1.1,0.2-1.1H83.2c0,0-0.9,1.1,0.2,1.1c0,0.1,0,0.9,0.1,0.9h-7.9c-0.5,0-1,0.1-1.3,0.5s-0.4,0.8-0.3,1.3l11.3,50.6
		c0.2,0.7,0.8,1.6,1.6,1.6h9.4c0.4,0,0.9-0.5,1.2-0.8c0.3-0.3,0.5-0.9,0.5-1.3c0-0.2,0-17.2,9.1-20.3c0.2,0.9,1.1,1.6,2.1,1.6
		c1.2,0,2.2-1,2.2-2.2c0-0.1,0-0.2,0-0.4c2.8,1.2,6,2.3,9.4,3.2l0.1,2.1c0,0-2.5,0.3-2.5,2.7s3.2,3.4,3.2,3.4h1.9v10.7
		c0,0,1.1,0.9,0.2,1.3c-0.9,0.4-6.4,2.4-6.6,6.1c-0.2,3.7-1.4,31.9-7.3,42.9c-1.5,0-2.3,0-2.3,0v4h-4v25c0,0-1.1,0-2,0
		c-2.4,0-3,11-3,11h59c0,0-0.7-11-3-11c-0.9,0-3,0-3,0v-25h-3v-4c0,0-0.8,0-2.3,0c-5.9-11-7-39.2-7.2-42.9s-6.4-5.7-7.2-6.1
		c-0.9-0.4-0.3-1.3-0.3-1.3v-10.7h2.9c0,0,3.2-1,3.2-3.4s-2.5-2.6-2.5-2.6l0.1-2.1c3.4-0.9,6.5-2,9.4-3.2c0,0.1,0,0.2,0,0.3
		c0,1.2,1,2.2,2.2,2.2c1,0,1.9-0.7,2.1-1.6c9.2,3.1,9.1,20.1,9.1,20.2c0,0.4,0.2,1.2,0.5,1.5s0.7,0.8,1.2,0.8h9.4
		c0.8,0,1.4-0.9,1.6-1.6l11.3-50.4C182.1,113,182,112.4,181.7,112z M107.7,140.8v-0.1c-5.5,1.1-9.5,5.9-11.5,13.3
		c-1,3.5-1.3,6.5-1.4,8.5h-6.5l-10.6-48h6.8c2,6,7.9,18.2,23.6,26C107.9,140.6,107.8,140.7,107.7,140.8z M167.7,162.5h-6.5
		c-0.1-2-0.4-5.3-1.4-8.8c-2-7.3-6-12.2-11.5-13.2l0,0c-0.1,0-0.2,0-0.4-0.1c15.7-7.9,21.6-19.9,23.6-25.9h6.8L167.7,162.5z"/>
		<path fill="#FFFFFF" d="M120.3,110.6l32.7,0.2c0,0-0.2,7.8-11.1,7.8c-1.7,0-9.6-0.2-12.2-0.2C127,118.5,120.5,117.6,120.3,110.6z"
		/>
		<rect x="127" y="145" fill="#FFFFFF" width="4" height="1"/>
		<rect x="126" y="148" fill="#FFFFFF" width="6" height="2"/>
		<rect x="127" y="154" fill="#FFFFFF" width="3" height="9"/>
		<path fill="#ABD100" d="M139.4,212h-10.3l0.5-42h7.2c0,0-0.5,10.2,0.3,21.7C138,203.1,139.4,212,139.4,212z"/>
		<polygon fill="#FFFFFF" points="138.1,218 124.4,218 125.7,216 136.8,216 	"/>
		<path fill="#ABD100" d="M130.9,144h3.9l0.2,0.5c0,0,27.2-6.7,35.2-29.1c0.4-1.7-1.5-4.7-3.3,0c-2.8,7.6-17.3,23.2-35.8,25
		C127.7,141,128.7,144,130.9,144z"/>
		<rect x="131" y="145" fill="#ABD100" width="3" height="1"/>
		<rect x="132" y="148" fill="#ABD100" width="3" height="2"/>
		<rect x="130" y="154" fill="#ABD100" width="1" height="9"/>
		<path fill="#FFFFFF" d="M136.2,212h-10.3l0.5-42h7.2c0,0-0.5,10.2,0.3,21.7C134.7,203.1,136.2,212,136.2,212z"/>
		<rect x="137" y="212" fill="#ABD100" width="5" height="2"/>
		<rect x="138" y="214" fill="#ABD100" width="5" height="4"/>
		<rect x="140" y="218" fill="#ABD100" width="5" height="26"/>
		<path fill="#FF9F00" d="M112.5,212h3.6c0,0,3.6-12.5,3.6-20.5s0-21.6,0-21.6l-1,0.1c0,0-0.1,10.2-1,21.6
		C116.9,203.1,112.5,212,112.5,212z"/>
		<path fill="#FF9F00" d="M125.1,144h-3.9l-0.3,0.5c0,0-27.6-6.2-35.1-29.8c0.2,0.4-0.5-1.4,1.3-1.8c0.5-0.1,1.1,0.1,1.9,1.8
		c2.1,4.6,17.3,23.9,35.8,25.7C128.3,141,127.3,144,125.1,144z"/>
		<rect x="122" y="145" fill="#FF9F00" width="3" height="1"/>
		<rect x="121.3" y="148.4" fill="#FF9F00" width="1.4" height="1.4"/>
		<rect x="124" y="154" fill="#FF9F00" width="1" height="9"/>
		<rect x="111" y="212" fill="#FF9F00" width="4" height="2"/>
		<rect x="109" y="214" fill="#FF9F00" width="4" height="4"/>
		<rect x="108" y="218" fill="#FF9F00" width="2" height="26"/>
		<line fill="none" stroke="#957E78" stroke-miterlimit="10" x1="123" y1="153.5" x2="133" y2="153.5"/>
		<line fill="none" stroke="#957E78" stroke-miterlimit="10" x1="120" y1="145.5" x2="136" y2="145.5"/>
		<line fill="none" stroke="#957E78" stroke-miterlimit="10" x1="123" y1="164.5" x2="132" y2="164.5"/>
		<line fill="none" stroke="#957E78" stroke-miterlimit="10" x1="108" y1="214.5" x2="147" y2="214.5"/>
		<line fill="none" stroke="#957E78" stroke-miterlimit="10" x1="107" y1="218.5" x2="149" y2="218.5"/>
		<line fill="none" stroke="#957E78" stroke-miterlimit="10" x1="103" y1="243.5" x2="151" y2="243.5"/>
	</g>
	<g>
		<g>
			<circle fill="#F0F0F0" cx="191.4" cy="64.9" r="41"/>
			<circle fill="#D80027" cx="191.4" cy="64.9" r="17.8"/>
		</g>
		<ellipse fill="none" stroke="#000000" stroke-width="1.4754" stroke-miterlimit="10" cx="191.6" cy="65.2" rx="40.8" ry="40.6"/>
	</g>
	<g>
		<g>
			<g>
				<path fill="#FFFF00" d="M51.729,208.562c-2.322,0-4.178-0.743-5.516-2.208c-1.303-1.425-1.963-3.45-1.963-6.021v-6.665h7.261
				v6.451c0,0.796,0.07,1.26,0.134,1.516c0.067-0.305,0.14-0.849,0.14-1.778v-23.576h7.409v23.362c0,2.71-0.638,4.873-1.897,6.429
				C55.959,207.725,54.086,208.562,51.729,208.562z M47.249,196.669v3.665c0,1.797,0.396,3.142,1.178,3.997
				c0.757,0.829,1.837,1.231,3.302,1.231c1.447,0,2.475-0.438,3.234-1.377c0.816-1.008,1.229-2.536,1.229-4.542v-20.362h-1.409
				v20.576c0,1.386-0.139,2.414-0.423,3.145c-0.44,1.129-1.432,1.776-2.722,1.776c-0.642,0-1.21-0.163-1.69-0.484
				c-1.276-0.867-1.438-2.686-1.438-4.174v-3.451L47.249,196.669L47.249,196.669z"/>
			</g>
			<g>
				<path fill="#FFFF00" d="M76.644,208.233h-7.17l-0.691-5.166h-2.03l-0.625,5.166h-7.303l4.557-31.952h8.414L76.644,208.233z
				 M72.099,205.233h1.056l-3.938-25.952h-3.232l-3.701,25.952h1.186l0.625-5.166h7.314L72.099,205.233z M71.348,199.531h-7.191
				l2.144-17.542h2.706L71.348,199.531z M67.545,196.531h0.376l-0.196-1.47L67.545,196.531z"/>
			</g>
			<g>
				<path fill="#FFFF00" d="M83.834,208.233h-7.409v-31.952h8.146c2.798,0,4.782,0.932,5.897,2.77
				c0.977,1.612,1.476,3.858,1.525,6.865v0.633c0,3.159-0.461,5.534-1.411,7.262c-0.753,1.371-2.382,3.006-5.863,3.006h-0.885
				V208.233z M79.425,205.233h1.409v-11.417h3.885c2.184,0,2.892-0.828,3.234-1.451c0.69-1.256,1.04-3.213,1.04-5.816v-0.608
				c-0.039-2.402-0.406-4.205-1.09-5.334c-0.199-0.327-0.804-1.325-3.332-1.325h-5.146V205.233z M83.847,193.182h-3.013V179.67
				h3.046c1.483,0,2.63,0.747,3.146,2.049c0.363,0.92,0.545,2.297,0.558,4.212v0.568c0,2.259-0.166,3.736-0.522,4.649
				C86.56,192.44,85.388,193.182,83.847,193.182z M83.834,190.182h0.013c0.25,0,0.369-0.045,0.391-0.062
				c0.125-0.306,0.347-1.143,0.347-3.621v-0.559c-0.012-1.979-0.223-2.803-0.347-3.118c-0.045-0.113-0.061-0.152-0.357-0.152h-0.046
				L83.834,190.182L83.834,190.182z"/>
			</g>
			<g>
				<path fill="#FFFF00" d="M107.751,208.233h-7.17l-0.691-5.166h-2.03l-0.625,5.166h-7.303l4.557-31.952h8.414L107.751,208.233z
				 M103.206,205.233h1.056l-3.938-25.952h-3.232l-3.701,25.952h1.186l0.625-5.166h7.314L103.206,205.233z M102.456,199.531h-7.191
				l2.144-17.542h2.706L102.456,199.531z M98.653,196.531h0.376l-0.196-1.47L98.653,196.531z"/>
			</g>
			<g>
				<path fill="#FFFF00" d="M123.775,208.233h-5.69l-3.49-9.96v9.96h-7.063v-31.952h6.016l3.263,9.238l-0.001-9.238h6.965
				C123.775,176.281,123.775,208.233,123.775,208.233z M120.213,205.233h0.562v-25.952h-0.965v7.975l0.312,7.837l-2.914,0.56
				l-5.782-16.371h-0.894v25.952h1.063v-8.88l-0.246-7.552l2.915-0.545L120.213,205.233z"/>
			</g>
			<g>
				<path fill="#FFFF00" d="M132.691,208.233h-7.409v-31.952h7.409V208.233z M128.283,205.233h1.409v-25.952h-1.409V205.233z"/>
			</g>
			<g>
				<path fill="#FFFF00" d="M141.218,208.562c-2.818,0-4.847-0.967-6.028-2.873c-1.054-1.698-1.566-4.021-1.566-7.1v-4.082h5.325
				l-1.776-1.831c-1.105-1.154-1.976-2.369-2.595-3.619c-0.655-1.321-0.987-2.852-0.987-4.549c0-2.764,0.558-4.812,1.706-6.261
				c1.216-1.535,3.211-2.312,5.93-2.312c2.807,0,4.778,0.933,5.858,2.771c0.941,1.604,1.399,3.793,1.399,6.69v3.293h-4.687
				l1.047,1.134c1.299,1.406,2.297,2.86,2.968,4.324c0.696,1.517,1.05,3.188,1.05,4.969c0,3.054-0.536,5.3-1.639,6.867
				C146.02,207.695,143.999,208.562,141.218,208.562z M136.623,197.508v1.082c0,2.469,0.375,4.325,1.115,5.519
				c0.224,0.36,0.901,1.454,3.479,1.454c1.772,0,2.934-0.427,3.552-1.305c0.725-1.03,1.092-2.76,1.092-5.141
				c0-1.345-0.261-2.596-0.776-3.718c-0.539-1.176-1.362-2.367-2.445-3.54l-2.384-2.582c-0.885-0.945-1.499-1.729-1.868-2.391
				c-0.438-0.782-0.652-1.743-0.652-2.938c0-1.23,0.229-2.178,0.697-2.894c0.578-0.884,1.55-1.37,2.735-1.37
				c1.301,0,2.316,0.678,2.785,1.86c0.318,0.805,0.467,1.939,0.467,3.571v0.573h1.063v-0.293c0-2.316-0.332-4.057-0.986-5.172
				c-0.187-0.318-0.758-1.29-3.271-1.29c-1.757,0-2.961,0.396-3.578,1.175c-0.702,0.886-1.058,2.366-1.058,4.398
				c0,1.23,0.228,2.312,0.675,3.217c0.484,0.978,1.18,1.942,2.066,2.869l2.132,2.196c1.062,1.1,1.856,2.185,2.362,3.229
				c0.537,1.107,0.809,2.398,0.809,3.838c0,1.471-0.161,2.506-0.508,3.259c-0.286,0.626-1.041,1.679-2.867,1.679
				c-1.354,0-2.423-0.691-2.93-1.896c-0.36-0.861-0.528-2.125-0.528-3.979v-1.411L136.623,197.508L136.623,197.508z
				 M140.801,196.741v2.178c0,1.909,0.206,2.606,0.295,2.817c0,0.068,0.24,0.064,0.336,0.047c0.073-0.207,0.202-0.742,0.202-1.926
				c0-0.982-0.171-1.834-0.508-2.529C141.033,197.137,140.925,196.94,140.801,196.741z M141.179,182.691
				c-0.207,0-0.26,0.026-0.261,0.026c-0.01,0.033-0.183,0.342-0.183,1.231c0,0.819,0.146,1.252,0.27,1.472
				c0.08,0.143,0.209,0.343,0.415,0.613v-0.917C141.42,183.576,141.262,182.927,141.179,182.691z"/>
			</g>
			<g>
				<path fill="#FFFF00" d="M156.606,208.562c-2.631,0-4.65-0.928-6.001-2.756c-1.249-1.688-1.882-4.065-1.882-7.068v-12.617
				c0-4.918,1.428-8.091,4.244-9.432c1.035-0.489,2.27-0.737,3.672-0.737c2.839,0,7.603,1.195,7.603,9.198v5.481h-7.261v-5.202
				c0-1.699-0.172-2.391-0.274-2.651c0.043,0.011,0.01-0.01-0.084-0.01c-0.055,0-0.088,0.005-0.105,0.009
				c-0.001,0.009-0.02,0.038-0.042,0.091c-0.115,0.277-0.311,0.977-0.311,2.546v13.521c0,1.774,0.188,2.499,0.3,2.772
				c0.013,0.032,0.024,0.055,0.033,0.069c0.011-0.002,0.04,0.001,0.075,0.001c0.033,0,0.058-0.002,0.073-0.004
				c0.004-0.013,0.018-0.038,0.033-0.077c0.112-0.279,0.302-1.016,0.302-2.811v-5.646h7.327v5.596c0,3.156-0.586,5.479-1.793,7.104
				C161.224,207.681,159.235,208.562,156.606,208.562z M156.64,178.952c-0.955,0-1.758,0.15-2.386,0.447
				c-1.678,0.799-2.53,3.061-2.53,6.722v12.617c0,2.347,0.436,4.124,1.294,5.284c0.766,1.037,1.939,1.54,3.589,1.54
				c1.651,0,2.796-0.461,3.501-1.41c0.797-1.073,1.201-2.861,1.201-5.315v-2.596h-1.327v2.646c0,1.805-0.165,3.055-0.521,3.934
				c-0.502,1.244-1.555,1.958-2.888,1.958c-1.329,0-2.381-0.705-2.885-1.934c-0.357-0.874-0.523-2.116-0.523-3.909v-13.521
				c0-1.619,0.178-2.831,0.544-3.706c0.518-1.232,1.579-1.939,2.914-1.939c1.349,0,2.397,0.697,2.876,1.912
				c0.329,0.839,0.482,2.029,0.482,3.749v2.202h1.261v-2.481C161.242,179.656,158.782,178.952,156.64,178.952z"/>
			</g>
			<g>
				<path fill="#FFFF00" d="M180.66,208.233h-7.409v-13.456h-0.948v13.456h-7.408v-31.952h7.408v11.712h0.948v-11.712h7.409V208.233z
				 M176.251,205.233h1.409v-25.952h-1.409v11.712h-6.948v-11.712h-1.408v25.952h1.408v-13.456h6.948V205.233z"/>
			</g>
			<g>
				<path fill="#FFFF00" d="M194.905,208.233h-12.902v-31.952h12.705v6.8h-5.297v5.422h5.034v6.718h-5.034v6.213h5.494V208.233z
				 M185.003,205.233h6.902v-0.8h-5.494V192.22h5.034v-0.718h-5.034V180.08h5.297v-0.8h-6.705L185.003,205.233L185.003,205.233z"/>
			</g>
			<g>
				<path fill="#FFFF00" d="M211.854,208.233h-7.55l-0.414-0.832c-0.214-0.429-0.321-0.645-0.321-11.048
				c0-1.021-0.108-1.469-0.162-1.629c-0.081-0.029-0.255-0.075-0.572-0.092v13.601h-7.409v-31.952h8.788
				c1.887,0,3.306,0.409,4.337,1.25c1.014,0.828,1.683,1.971,1.989,3.396c0.261,1.203,0.388,2.707,0.388,4.594
				c0,1.972-0.219,3.471-0.668,4.584c-0.193,0.478-0.451,0.905-0.769,1.278c0.317,0.406,0.599,0.919,0.815,1.562
				c0.458,1.361,0.671,3.842,0.671,7.809c0,4.146,0.071,5.254,0.105,5.544L211.854,208.233z M206.637,205.233h1.386
				c-0.028-0.933-0.045-2.334-0.045-4.479c0-4.399-0.279-6.154-0.514-6.852c-0.309-0.915-0.727-0.988-0.928-1.023l-0.19-2.908
				c0.58-0.183,0.93-0.488,1.133-0.991c0.205-0.506,0.449-1.519,0.449-3.459c0-1.648-0.107-2.98-0.319-3.96
				c-0.163-0.756-0.476-1.313-0.955-1.706c-0.46-0.375-1.304-0.573-2.439-0.573h-5.788v25.952h1.409v-13.741l2.983,0.139
				c1.386,0.032,2.407,0.464,3.002,1.28c0.519,0.715,0.749,1.776,0.749,3.442C206.569,201.44,206.603,203.974,206.637,205.233z
				 M203.111,191.142h-3.26V179.67h2.996c1.92,0,2.77,0.819,3.144,1.506c0.399,0.731,0.578,1.902,0.578,3.794v0.181
				c0,1.354-0.058,2.355-0.177,3.062c-0.163,0.957-0.494,1.657-1.013,2.144C204.825,190.878,204.062,191.142,203.111,191.142z
				 M202.852,188.142h0.26c0.102,0,0.174-0.007,0.222-0.015c0.021-0.064,0.064-0.197,0.102-0.415
				c0.062-0.364,0.135-1.106,0.135-2.562v-0.181c0-1.411-0.113-2.018-0.176-2.248c-0.093-0.022-0.262-0.052-0.542-0.052
				L202.852,188.142L202.852,188.142z"/>
			</g>
			<g>
				<path fill="#FFFF00" d="M38.27,242.233h-6.932v-5.364l-0.992,5.232h-5.979l-1.166-5.9v6.032h-6.899v-31.952h8.214l2.831,14.56
				l2.661-14.56h8.262C38.27,210.281,38.27,242.233,38.27,242.233z M34.338,239.233h0.932v-25.952h-2.76l-3.641,19.924l-2.948,0.017
				l-3.876-19.94h-2.742v25.952h0.899v-9.292l-0.165-9.877l2.972-0.316l3.824,19.354h1.029l3.667-19.342l2.974,0.305l-0.165,9.902
				C34.338,229.968,34.338,239.233,34.338,239.233z"/>
			</g>
			<g>
				<path fill="#FFFF00" d="M52.531,242.233H39.628v-31.952h12.706v6.8h-5.297v5.422h5.034v6.718h-5.034v6.213h5.494V242.233z
				 M42.628,239.233h6.903v-0.8h-5.494V226.22h5.034v-0.718h-5.034V214.08h5.297v-0.8h-6.706V239.233z"/>
			</g>
			<g>
				<path fill="#FFFF00" d="M60.625,242.233h-7.409v-31.952h7.409V242.233z M56.216,239.233h1.409v-25.952h-1.409V239.233z"/>
			</g>
			<g>
				<path fill="#FFFF00" d="M69.151,242.562c-2.819,0-4.847-0.967-6.029-2.873c-1.054-1.699-1.566-4.022-1.566-7.1v-4.082h5.326
				l-1.777-1.831c-1.105-1.154-1.977-2.37-2.595-3.619c-0.654-1.322-0.986-2.853-0.986-4.549c0-2.765,0.558-4.812,1.706-6.262
				c1.216-1.534,3.21-2.312,5.93-2.312c2.807,0,4.778,0.933,5.858,2.771c0.941,1.604,1.399,3.793,1.399,6.69v3.293h-4.686
				l1.047,1.134c1.298,1.406,2.296,2.86,2.967,4.324c0.697,1.518,1.05,3.189,1.05,4.969c0,3.054-0.536,5.3-1.638,6.867
				C73.953,241.695,71.932,242.562,69.151,242.562z M64.557,231.508v1.082c0,2.468,0.375,4.325,1.116,5.52
				c0.223,0.359,0.901,1.453,3.479,1.453c1.772,0,2.934-0.427,3.552-1.305c0.724-1.03,1.092-2.76,1.092-5.141
				c0-1.345-0.261-2.596-0.776-3.719c-0.54-1.175-1.362-2.366-2.445-3.539l-2.385-2.582c-0.886-0.946-1.499-1.73-1.868-2.391
				c-0.438-0.784-0.652-1.745-0.652-2.938c0-1.23,0.228-2.177,0.698-2.894c0.577-0.884,1.549-1.37,2.735-1.37
				c1.301,0,2.316,0.678,2.785,1.86c0.319,0.806,0.467,1.94,0.467,3.571v0.573h1.063v-0.293c0-2.316-0.332-4.057-0.986-5.172
				c-0.188-0.318-0.758-1.29-3.271-1.29c-1.757,0-2.96,0.396-3.578,1.175c-0.702,0.886-1.058,2.365-1.058,4.398
				c0,1.23,0.227,2.312,0.675,3.217c0.483,0.977,1.179,1.941,2.066,2.869l2.132,2.196c1.062,1.1,1.856,2.185,2.362,3.229
				c0.537,1.107,0.809,2.398,0.809,3.838c0,1.469-0.161,2.504-0.507,3.258c-0.288,0.627-1.044,1.68-2.869,1.68
				c-1.354,0-2.422-0.691-2.929-1.896c-0.36-0.859-0.528-2.123-0.528-3.979v-1.411L64.557,231.508L64.557,231.508z M68.735,230.741
				v2.178c0,1.91,0.206,2.606,0.294,2.816c0.002,0.07,0.24,0.062,0.337,0.048c0.072-0.206,0.202-0.742,0.202-1.926
				c0-0.982-0.171-1.834-0.508-2.529C68.967,231.137,68.858,230.94,68.735,230.741z M69.113,216.691
				c-0.208,0-0.26,0.026-0.261,0.026c-0.01,0.034-0.183,0.343-0.183,1.231c0,0.818,0.147,1.253,0.27,1.473
				c0.08,0.143,0.208,0.342,0.415,0.613v-0.918C69.354,217.576,69.196,216.927,69.113,216.691z"/>
			</g>
			<g>
				<path fill="#FFFF00" d="M85.893,242.233H78.5v-25.136h-3.389v-6.816H89.15v6.816h-3.257
				C85.893,217.097,85.893,242.233,85.893,242.233z M81.5,239.233h1.392v-25.136h3.257v-0.816h-8.038v0.816H81.5V239.233z"/>
			</g>
			<g>
				<path fill="#FFFF00" d="M101.487,242.233H88.584v-31.952h12.706v6.8h-5.297v5.422h5.034v6.718h-5.034v6.213h5.494
				C101.487,235.434,101.487,242.233,101.487,242.233z M91.584,239.233h6.903v-0.8h-5.494V226.22h5.034v-0.718h-5.034V214.08h5.297
				v-0.8h-6.706C91.584,213.28,91.584,239.233,91.584,239.233z"/>
			</g>
			<g>
				<path fill="#FFFF00" d="M118.436,242.233h-7.548l-0.415-0.829c-0.222-0.443-0.323-0.646-0.323-11.051
				c0-1.021-0.108-1.47-0.162-1.629c-0.081-0.029-0.255-0.075-0.572-0.092v13.601h-7.409v-31.952h8.788
				c1.887,0,3.306,0.409,4.336,1.25c1.013,0.827,1.682,1.97,1.991,3.395c0.261,1.207,0.387,2.71,0.387,4.595
				c0,1.972-0.219,3.472-0.668,4.585c-0.193,0.478-0.451,0.904-0.768,1.277c0.317,0.406,0.598,0.919,0.815,1.563
				c0.458,1.361,0.671,3.842,0.671,7.808c0,4.146,0.072,5.254,0.105,5.544L118.436,242.233z M113.218,239.233h1.387
				c-0.029-0.933-0.045-2.334-0.045-4.479c0-4.398-0.28-6.153-0.514-6.852c-0.308-0.915-0.727-0.988-0.928-1.023l-0.19-2.908
				c0.58-0.183,0.929-0.488,1.133-0.991c0.205-0.506,0.449-1.519,0.449-3.459c0-1.646-0.107-2.979-0.32-3.961
				c-0.163-0.755-0.476-1.312-0.955-1.705c-0.459-0.375-1.304-0.573-2.439-0.573h-5.788v25.952h1.409v-13.741l2.984,0.139
				c1.386,0.032,2.408,0.464,3.002,1.281c0.518,0.713,0.748,1.773,0.748,3.441C113.151,235.44,113.184,237.975,113.218,239.233z
				 M109.693,225.142h-3.26V213.67h2.997c1.919,0,2.769,0.818,3.143,1.505c0.4,0.733,0.578,1.903,0.578,3.795v0.181
				c0,1.357-0.058,2.359-0.177,3.063c-0.163,0.956-0.494,1.656-1.012,2.143C111.408,224.877,110.644,225.142,109.693,225.142z
				 M109.433,222.142h0.26c0.101,0,0.173-0.007,0.221-0.015c0.022-0.064,0.065-0.197,0.102-0.415
				c0.061-0.362,0.135-1.104,0.135-2.562v-0.181c0-1.409-0.113-2.017-0.176-2.248c-0.092-0.023-0.262-0.052-0.542-0.052V222.142z"/>
			</g>
			<g>
				<path fill="#FFFF00" d="M131.77,244.093h-1.5c-1.204,0-2.178-0.101-2.975-0.308c-0.926-0.242-1.724-0.693-2.372-1.342
				c-0.659-0.659-1.119-1.53-1.37-2.588c-0.216-0.909-0.321-2.021-0.321-3.401v-14.506c0-1.38,0.105-2.492,0.321-3.402
				c0.25-1.059,0.712-1.93,1.37-2.588c0.649-0.649,1.448-1.101,2.372-1.341c0.797-0.207,1.771-0.308,2.975-0.308h1.5v5.734h-1.5
				c-0.121,0-0.213,0.007-0.279,0.016c-0.049,0.242-0.121,0.779-0.121,1.834v14.615c0,1.047,0.071,1.584,0.122,1.834
				c0.067,0.009,0.158,0.016,0.278,0.016h1.5L131.77,244.093L131.77,244.093z M128.438,217.438c-0.14,0.023-0.269,0.052-0.389,0.083
				c-0.406,0.104-0.734,0.288-1.005,0.559c-0.259,0.259-0.451,0.648-0.572,1.158c-0.159,0.671-0.24,1.583-0.24,2.71v14.506
				c0,1.127,0.081,2.039,0.24,2.709c0.121,0.511,0.313,0.9,0.572,1.159c0.27,0.27,0.599,0.453,1.006,0.56
				c0.119,0.031,0.249,0.059,0.388,0.083c-0.538-0.284-0.858-0.677-1.049-1.032c-0.364-0.678-0.52-1.702-0.52-3.424v-14.615
				c0-1.722,0.156-2.746,0.521-3.425C127.581,218.114,127.901,217.722,128.438,217.438z"/>
			</g>
			<g>
				<path fill="#FFFF00" d="M137.331,242.507c-2.004,0-3.609-0.645-4.771-1.917c-1.127-1.231-1.698-2.973-1.698-5.175v-5.793h6.262
				v-14.451h6.664v19.67c0,2.311-0.549,4.161-1.632,5.502C140.994,241.779,139.371,242.507,137.331,242.507z M133.861,232.622v2.793
				c0,1.429,0.307,2.489,0.912,3.15c0.579,0.634,1.416,0.941,2.558,0.941c1.12,0,1.912-0.334,2.491-1.05
				c0.64-0.793,0.965-2.01,0.965-3.616v-16.67h-0.664v16.848c0,1.199-0.117,2.059-0.369,2.705c-0.406,1.041-1.316,1.639-2.498,1.639
				c-0.584,0-1.104-0.149-1.545-0.444c-1.161-0.791-1.309-2.382-1.309-3.681v-2.615L133.861,232.622L133.861,232.622z"/>
			</g>
			<g>
				<path fill="#FFFF00" d="M152.729,242.233h-6.664v-18.532c-0.496,0.123-0.991,0.185-1.48,0.185h-1.5v-5.523l1.29-0.183
				c0.527-0.074,1.024-0.29,1.521-0.661c0.484-0.36,0.848-0.835,1.109-1.45l0.389-0.911h5.335V242.233z M149.064,239.233h0.664
				v-21.076h-0.433c-0.074,0.12-0.151,0.238-0.231,0.353V239.233z"/>
			</g>
			<g>
				<path fill="#FFFF00" d="M169.9,242.233h-11.299v-27.062h6.664v20.945h4.635V242.233z M161.602,239.233h5.299v-0.117h-4.635
				v-20.945h-0.664V239.233z"/>
			</g>
			<g>
				<path fill="#FFFF00" d="M180.236,242.233h-11.23v-27.062h11.066v6.158h-4.402v4h4.184v6.09h-4.184v4.656h4.566V242.233z
				 M172.006,239.233h5.23v-0.158h-4.566v-10.656h4.184v-0.09h-4.184v-10h4.402v-0.158h-5.066V239.233z"/>
			</g>
			<g>
				<path fill="#FFFF00" d="M194.235,242.233h-6.476l-0.574-4.293h-1.241l-0.52,4.293h-6.586l3.86-27.062h7.431L194.235,242.233z
				 M190.385,239.233h0.36l-2.929-19.308L189.829,235h-0.01L190.385,239.233z M182.298,239.233h0.469l0.512-4.232h-0.002
				l1.843-15.086h2.695l-0.265-1.744h-2.249L182.298,239.233z"/>
			</g>
			<g>
				<path fill="#FFFF00" d="M199.463,242.479c-1.989,0-3.639-0.834-4.768-2.411c-1.049-1.463-1.559-3.549-1.559-6.376v-10.459
				c0-2.545,0.539-4.558,1.604-5.983c1.164-1.561,2.965-2.353,5.352-2.353c3.795,0,5.308,1.973,5.908,3.627
				c0.447,1.235,0.664,2.819,0.664,4.846v18.863h-4.327l-0.117-0.496C201.4,242.23,200.475,242.479,199.463,242.479z
				 M200.092,217.897c-1.407,0-2.372,0.375-2.947,1.146c-0.669,0.896-1.008,2.306-1.008,4.189v10.459
				c0,2.118,0.345,3.719,0.997,4.629c0.574,0.801,1.292,1.158,2.329,1.158c0.289,0,0.553-0.04,0.797-0.122
				c-1.353,0.064-2.496-0.627-2.978-1.891c-0.31-0.809-0.454-2.025-0.454-3.829v-10.432c0-1.631,0.176-2.744,0.553-3.504
				c0.513-1.037,1.499-1.633,2.704-1.633c1.63,0,2.355,0.926,2.643,1.478c0.354,0.679,0.519,1.637,0.519,3.017v1.016h0.418v-0.209
				c0-1.648-0.163-2.935-0.484-3.823C202.9,218.779,202.298,217.897,200.092,217.897z M203.465,229.095v4.406
				c0,1.825-0.176,3.083-0.554,3.958c-0.088,0.203-0.189,0.392-0.305,0.564l1.058-0.001v-8.928h-0.199V229.095z M200.07,236.356
				h0.047c0.005-0.015,0.021-0.044,0.04-0.087c0.093-0.214,0.308-0.913,0.308-2.769v-1.74h-0.637v1.877
				C199.828,235.413,199.987,236.112,200.07,236.356z M199.828,226.095h0.418v-3.531c0-0.86-0.079-1.297-0.132-1.494
				c-0.009,0-0.019,0-0.029,0l0,0c-0.014,0-0.022-0.001-0.028-0.004c-0.072,0.178-0.229,0.721-0.229,2.141L199.828,226.095
				L199.828,226.095z"/>
			</g>
			<g>
				<path fill="#FFFF00" d="M213.784,242.507c-2.323,0-4.078-0.718-5.216-2.132c-1.073-1.334-1.596-3.238-1.596-5.821v-19.396h6.664
				v19.328c0,1.227,0.059,1.656,0.08,1.772c0.02,0.041,0.039,0.08,0.06,0.118c0.005,0,0.01,0,0.015,0c0,0,0,0,0.001,0
				c0.032-0.095,0.051-0.199,0.06-0.285c0.044-0.404,0.066-0.945,0.066-1.605v-19.328h6.664v19.396c0,2.59-0.52,4.495-1.588,5.826
				C217.86,241.792,216.107,242.507,213.784,242.507z M209.973,218.157v16.396c0,1.819,0.322,3.182,0.933,3.94
				c0.549,0.682,1.49,1.013,2.879,1.013s2.327-0.329,2.871-1.005c0.606-0.756,0.927-2.121,0.927-3.948v-16.396h-0.664v16.328
				c0,0.768-0.028,1.418-0.084,1.932c-0.08,0.728-0.315,1.36-0.699,1.883c-0.364,0.492-1.063,1.076-2.344,1.076
				c-1.024,0-1.779-0.314-2.245-0.935c-0.238-0.314-0.443-0.669-0.608-1.051c-0.185-0.424-0.301-1.061-0.301-2.905v-16.328
				L209.973,218.157L209.973,218.157z"/>
			</g>
			<g>
				<path fill="#FFFF00" d="M232.285,242.233h-11.23v-27.062h11.066v6.158h-4.402v4h4.184v6.09h-4.184v4.656h4.566V242.233z
				 M224.055,239.233h5.23v-0.158h-4.566v-10.656h4.184v-0.09h-4.184v-10h4.402v-0.158h-5.066V239.233z"/>
			</g>
			<g>
				<path fill="#FFFF00" d="M233.082,244.093h-1.5v-5.734h1.5c0.121,0,0.213-0.007,0.279-0.016c0.049-0.241,0.121-0.779,0.121-1.834
				v-14.615c0-1.046-0.071-1.584-0.123-1.834c-0.066-0.009-0.157-0.016-0.277-0.016h-1.5v-5.734h1.5
				c1.203,0,2.176,0.101,2.975,0.308c0.926,0.241,1.723,0.693,2.37,1.347c0.649,0.656,1.106,1.525,1.357,2.581
				c0.217,0.914,0.321,2.026,0.321,3.403v14.506c0,1.377-0.104,2.489-0.32,3.401c-0.252,1.057-0.708,1.924-1.356,2.581
				c-0.647,0.653-1.444,1.105-2.37,1.348C235.258,243.992,234.285,244.093,233.082,244.093z M234.912,217.438
				c0.536,0.283,0.857,0.676,1.049,1.03c0.366,0.682,0.521,1.705,0.521,3.426v14.615c0,1.721-0.155,2.744-0.521,3.424
				c-0.191,0.355-0.513,0.749-1.05,1.032c0.141-0.024,0.271-0.053,0.391-0.084c0.402-0.104,0.728-0.286,0.993-0.554
				c0.256-0.259,0.448-0.651,0.57-1.165c0.158-0.671,0.239-1.582,0.239-2.708v-14.506c0-1.126-0.081-2.037-0.24-2.71
				c-0.121-0.513-0.313-0.904-0.57-1.164c-0.265-0.268-0.59-0.448-0.992-0.553C235.183,217.49,235.053,217.462,234.912,217.438z"/>
			</g>
		</g>
		<g>
			<g>
				<path d="M56.129,205.129c-1.042,1.289-2.508,1.934-4.4,1.934c-1.892,0-3.361-0.573-4.409-1.72
				c-1.047-1.146-1.571-2.815-1.571-5.009v-5.165h4.261v4.951c0,1.602,0.257,2.577,0.773,2.928c0.23,0.154,0.516,0.23,0.855,0.23
				c0.669,0,1.11-0.273,1.324-0.822c0.214-0.548,0.321-1.415,0.321-2.599v-22.076h4.409v21.862
				C57.692,202.012,57.171,203.841,56.129,205.129z"/>
			</g>
			<g>
				<path d="M60.554,206.733l4.129-28.952h5.823l4.393,28.952h-4.113l-0.691-5.166h-4.672l-0.625,5.166H60.554z M69.635,198.031
				l-1.941-14.542h-0.065l-1.777,14.542H69.635z"/>
			</g>
			<g>
				<path d="M77.925,206.733v-28.952h6.646c2.248,0,3.786,0.683,4.614,2.048c0.828,1.365,1.264,3.402,1.308,6.111v0.608
				c0,2.873-0.409,5.053-1.226,6.539s-2.333,2.229-4.548,2.229h-2.385v11.417H77.925z M82.334,191.682h1.513
				c0.932,0,1.538-0.359,1.818-1.078c0.28-0.718,0.419-2.086,0.419-4.104v-0.559c-0.011-1.711-0.162-2.934-0.452-3.669
				c-0.291-0.734-0.875-1.102-1.752-1.102h-1.546V191.682z"/>
			</g>
			<g>
				<path d="M91.662,206.733l4.129-28.952h5.823l4.393,28.952h-4.113l-0.691-5.166h-4.672l-0.625,5.166H91.662z M100.742,198.031
				l-1.941-14.542h-0.065l-1.777,14.542H100.742z"/>
			</g>
			<g>
				<path d="M109.033,206.733v-28.952h3.455l6.136,17.371l-0.312-7.896v-9.475h3.965v28.952h-3.126l-6.3-17.98l0.247,7.601v10.38
				h-4.065V206.733z"/>
			</g>
			<g>
				<path d="M126.783,206.733v-28.952h4.409v28.952H126.783z"/>
			</g>
			<g>
				<path d="M135.123,198.59v-2.582h4.178v2.911c0,1.612,0.138,2.745,0.411,3.397c0.274,0.652,0.79,0.979,1.547,0.979
				s1.259-0.269,1.505-0.806c0.247-0.537,0.37-1.415,0.37-2.632c0-1.218-0.22-2.278-0.658-3.184
				c-0.438-0.904-1.135-1.851-2.089-2.838l-2.139-2.204c-0.998-1.042-1.773-2.122-2.327-3.24c-0.555-1.119-0.831-2.413-0.831-3.883
				c0-2.391,0.461-4.167,1.382-5.33c0.921-1.162,2.506-1.743,4.754-1.743s3.77,0.677,4.565,2.031s1.192,3.331,1.192,5.931v1.793
				h-4.063v-2.073c0-1.403-0.12-2.409-0.361-3.019c-0.241-0.608-0.705-0.913-1.391-0.913s-1.179,0.23-1.48,0.691
				s-0.452,1.151-0.452,2.072c0,0.922,0.153,1.656,0.461,2.205c0.307,0.548,0.86,1.25,1.661,2.105l2.385,2.582
				c1.195,1.295,2.098,2.605,2.706,3.932c0.609,1.327,0.913,2.775,0.913,4.344c0,2.708-0.455,4.71-1.365,6.004
				s-2.503,1.941-4.778,1.941c-2.276,0-3.86-0.722-4.754-2.163C135.569,203.457,135.123,201.354,135.123,198.59z"/>
			</g>
			<g>
				<path d="M161.312,205.047c-0.998,1.344-2.566,2.016-4.705,2.016s-3.737-0.716-4.795-2.147c-1.059-1.431-1.588-3.489-1.588-6.177
				v-12.617c0-4.31,1.13-7.002,3.389-8.077c0.834-0.395,1.843-0.592,3.027-0.592c4.068,0,6.103,2.565,6.103,7.698v3.981h-4.261
				v-3.702c0-1.491-0.126-2.558-0.378-3.199c-0.253-0.642-0.746-0.962-1.48-0.962c-0.735,0-1.245,0.34-1.53,1.02
				c-0.285,0.681-0.428,1.722-0.428,3.126v13.521c0,1.558,0.138,2.671,0.411,3.34c0.274,0.669,0.773,1.003,1.497,1.003
				c0.725,0,1.223-0.34,1.497-1.02s0.411-1.804,0.411-3.372v-4.146h4.327v4.096C162.809,201.634,162.309,203.704,161.312,205.047z"
				/>
			</g>
			<g>
				<path d="M166.395,206.733v-28.952h4.408v11.712h3.948v-11.712h4.409v28.952h-4.409v-13.456h-3.948v13.456H166.395z"/>
			</g>
			<g>
				<path d="M183.503,206.733v-28.952h9.705v3.8h-5.297v8.422h5.034v3.718h-5.034v9.213h5.494v3.8h-9.902V206.733z"/>
			</g>
			<g>
				<path d="M202.749,193.129l-1.414-0.065v13.67h-4.409v-28.952h7.288c1.513,0,2.643,0.304,3.389,0.912
				c0.745,0.609,1.236,1.459,1.472,2.55c0.236,1.092,0.354,2.518,0.354,4.277c0,1.761-0.187,3.101-0.559,4.022
				c-0.373,0.921-1.064,1.541-2.073,1.858c0.998,0.176,1.694,0.851,2.09,2.023c0.395,1.174,0.592,3.616,0.592,7.329
				c0,3.712,0.055,5.705,0.164,5.979h-4.408c-0.109-0.22-0.164-3.68-0.164-10.38c0-1.283-0.154-2.136-0.461-2.559
				C204.301,193.373,203.682,193.151,202.749,193.129z M201.352,189.642h1.76c0.56,0,0.973-0.126,1.242-0.379
				c0.269-0.252,0.455-0.685,0.56-1.299c0.104-0.614,0.156-1.552,0.156-2.813v-0.181c0-1.568-0.132-2.594-0.396-3.076
				c-0.263-0.482-0.871-0.724-1.826-0.724h-1.496V189.642z"/>
			</g>
			<g>
				<path d="M17.802,240.733v-28.952h5.478l4.112,21.154l3.866-21.154h5.511v28.952h-3.932v-10.792l0.165-9.902l-3.899,20.562H25.6
				l-4.063-20.562l0.165,9.902v10.792H17.802z"/>
			</g>
			<g>
				<path d="M41.128,240.733v-28.952h9.706v3.8h-5.297v8.422h5.034v3.718h-5.034v9.213h5.494v3.8h-9.903V240.733z"/>
			</g>
			<g>
				<path d="M54.716,240.733v-28.952h4.409v28.952H54.716z"/>
			</g>
			<g>
				<path d="M63.057,232.59v-2.582h4.178v2.911c0,1.612,0.137,2.745,0.411,3.397c0.274,0.652,0.79,0.979,1.546,0.979
				c0.757,0,1.259-0.269,1.505-0.806s0.37-1.415,0.37-2.632c0-1.218-0.22-2.278-0.658-3.184c-0.438-0.904-1.135-1.851-2.089-2.838
				l-2.139-2.204c-0.998-1.042-1.774-2.122-2.328-3.24c-0.554-1.119-0.831-2.413-0.831-3.883c0-2.391,0.46-4.167,1.382-5.33
				c0.921-1.162,2.505-1.743,4.754-1.743c2.248,0,3.77,0.677,4.565,2.031c0.795,1.354,1.192,3.331,1.192,5.931v1.793h-4.063v-2.073
				c0-1.403-0.121-2.409-0.362-3.019c-0.241-0.608-0.705-0.913-1.39-0.913c-0.686,0-1.179,0.23-1.48,0.691
				c-0.302,0.461-0.453,1.151-0.453,2.072c0,0.922,0.154,1.656,0.461,2.205c0.307,0.548,0.861,1.25,1.661,2.105l2.385,2.582
				c1.195,1.295,2.098,2.605,2.706,3.932c0.609,1.327,0.913,2.775,0.913,4.344c0,2.708-0.455,4.71-1.365,6.004
				c-0.911,1.294-2.503,1.941-4.779,1.941s-3.86-0.722-4.754-2.163C63.503,237.457,63.057,235.354,63.057,232.59z"/>
			</g>
			<g>
				<path d="M80,240.733v-25.136h-3.389v-3.816H87.65v3.816h-3.257v25.136H80z"/>
			</g>
			<g>
				<path d="M90.084,240.733v-28.952h9.706v3.8h-5.297v8.422h5.034v3.718h-5.034v9.213h5.494v3.8h-9.903V240.733z"/>
			</g>
			<g>
				<path d="M109.331,227.129l-1.415-0.065v13.67h-4.409v-28.952h7.288c1.513,0,2.643,0.304,3.389,0.912
				c0.746,0.609,1.236,1.459,1.472,2.55c0.236,1.092,0.354,2.518,0.354,4.277c0,1.761-0.187,3.101-0.559,4.022
				c-0.373,0.921-1.064,1.541-2.073,1.858c0.998,0.176,1.694,0.851,2.089,2.023c0.395,1.174,0.592,3.616,0.592,7.329
				c0,3.712,0.055,5.705,0.164,5.979h-4.408c-0.11-0.22-0.165-3.68-0.165-10.38c0-1.283-0.154-2.136-0.461-2.559
				C110.883,227.373,110.263,227.151,109.331,227.129z M107.933,223.642h1.76c0.559,0,0.973-0.126,1.242-0.379
				c0.269-0.252,0.455-0.685,0.56-1.299c0.104-0.614,0.156-1.552,0.156-2.813v-0.181c0-1.568-0.132-2.594-0.395-3.076
				s-0.872-0.724-1.826-0.724h-1.497V223.642z"/>
			</g>
			<g>
				<path d="M130.27,242.593c-1.066,0-1.933-0.087-2.598-0.26c-0.666-0.174-1.229-0.49-1.688-0.95
				c-0.46-0.461-0.784-1.085-0.971-1.873c-0.187-0.788-0.28-1.807-0.28-3.056v-14.506c0-1.249,0.093-2.268,0.28-3.056
				s0.51-1.413,0.971-1.873c0.46-0.46,1.023-0.777,1.688-0.95s1.531-0.26,2.598-0.26v2.734c-0.812,0-1.331,0.212-1.559,0.636
				c-0.228,0.424-0.342,1.328-0.342,2.714v14.615c0,1.386,0.114,2.29,0.342,2.714c0.228,0.424,0.747,0.636,1.559,0.636V242.593z"/>
			</g>
			<g>
				<path d="M140.988,239.4c-0.866,1.071-2.085,1.606-3.657,1.606s-2.794-0.477-3.664-1.429c-0.871-0.952-1.306-2.34-1.306-4.163
				v-4.293h3.541v4.115c0,1.331,0.214,2.142,0.643,2.434c0.191,0.128,0.428,0.191,0.711,0.191c0.556,0,0.923-0.228,1.101-0.684
				s0.267-1.176,0.267-2.16v-18.348h3.664v18.17C142.287,236.81,141.854,238.329,140.988,239.4z"/>
			</g>
			<g>
				<path d="M147.564,240.733V221.21c-0.311,0.374-0.748,0.663-1.312,0.868c-0.565,0.205-1.121,0.308-1.668,0.308v-2.721
				c0.774-0.109,1.511-0.424,2.208-0.943s1.228-1.208,1.593-2.064h2.844v24.076h-3.665V240.733z"/>
			</g>
			<g>
				<path d="M160.102,240.733v-24.062h3.664v20.945h4.635v3.117H160.102z"/>
			</g>
			<g>
				<path d="M170.506,240.733v-24.062h8.066v3.158h-4.402v7h4.184v3.09h-4.184v7.656h4.566v3.158L170.506,240.733L170.506,240.733z"
				/>
			</g>
			<g>
				<path d="M180.568,240.733L184,216.671h4.84l3.65,24.062h-3.418l-0.574-4.293h-3.883l-0.52,4.293H180.568z M188.115,233.501
				l-1.613-12.086h-0.055l-1.477,12.086H188.115z"/>
			</g>
			<g>
				<path d="M199.463,240.979c-1.514,0-2.696-0.595-3.548-1.784c-0.853-1.189-1.278-3.023-1.278-5.503v-10.459
				c0-2.224,0.435-3.919,1.306-5.086c0.87-1.167,2.253-1.75,4.149-1.75c2.36,0,3.859,0.88,4.498,2.639
				c0.383,1.058,0.574,2.502,0.574,4.334v1.709h-3.418v-2.516c0-1.103-0.116-1.878-0.349-2.324s-0.67-0.67-1.312-0.67
				s-1.097,0.267-1.36,0.8c-0.265,0.533-0.396,1.479-0.396,2.837v10.432c0,1.577,0.118,2.675,0.355,3.295
				c0.236,0.62,0.699,0.93,1.388,0.93c0.688,0,1.176-0.333,1.463-0.998s0.431-1.786,0.431-3.363v-3.24h-1.846v-2.666h5.045v13.139
				h-1.641l-0.561-2.365c-0.191,0.812-0.611,1.449-1.258,1.914C201.058,240.747,200.311,240.979,199.463,240.979z"/>
			</g>
			<g>
				<path d="M217.824,239.441c-0.839,1.044-2.186,1.565-4.04,1.565c-1.855,0-3.204-0.524-4.047-1.572
				c-0.844-1.048-1.265-2.675-1.265-4.881v-17.896h3.664v17.828c0,1.267,0.059,2.037,0.178,2.311
				c0.118,0.273,0.262,0.521,0.431,0.745c0.168,0.224,0.517,0.335,1.046,0.335c0.528,0,0.906-0.155,1.135-0.465
				c0.228-0.31,0.366-0.695,0.417-1.155c0.05-0.46,0.075-1.051,0.075-1.771v-17.828h3.664v17.896
				C219.082,236.769,218.662,238.397,217.824,239.441z"/>
			</g>
			<g>
				<path d="M222.555,240.733v-24.062h8.066v3.158h-4.402v7h4.184v3.09h-4.184v7.656h4.566v3.158L222.555,240.733L222.555,240.733z"
				/>
			</g>
			<g>
				<path d="M233.082,242.593v-2.734c0.811,0,1.33-0.212,1.559-0.636c0.228-0.424,0.342-1.328,0.342-2.714v-14.615
				c0-1.386-0.114-2.29-0.342-2.714c-0.229-0.424-0.748-0.636-1.559-0.636v-2.734c1.066,0,1.932,0.087,2.598,0.26
				c0.665,0.173,1.226,0.49,1.682,0.95c0.455,0.46,0.776,1.085,0.964,1.873c0.187,0.788,0.28,1.807,0.28,3.056v14.506
				c0,1.249-0.094,2.268-0.28,3.056c-0.188,0.788-0.509,1.412-0.964,1.873c-0.456,0.46-1.017,0.776-1.682,0.95
				C235.014,242.506,234.148,242.593,233.082,242.593z"/>
			</g>
		</g>
	</g>
</svg>