<?xml version="1.0" encoding="utf-8"?>
<!-- Generator: Adobe Illustrator 17.0.0, SVG Export Plug-In . SVG Version: 6.00 Build 0)  -->
<!DOCTYPE svg PUBLIC "-//W3C//DTD SVG 1.1//EN" "http://www.w3.org/Graphics/SVG/1.1/DTD/svg11.dtd">
<svg version="1.1" id="Layer_1" xmlns="http://www.w3.org/2000/svg" xmlns:xlink="http://www.w3.org/1999/xlink" x="0px" y="0px"
	 width="256px" height="256px" viewBox="0 0 256 256" enable-background="new 0 0 256 256" xml:space="preserve">
<polygon fill="#FFFF00" points="128,188.6 53.1,243.2 82,155.1 6.8,100.8 99.5,101 128,12.8 156.5,101 249.2,100.8 174,155.1 
	202.9,243.2 "/>
<path fill="#FFFFFF" d="M192,10.3c-17.1,0-32.4,8-42.3,20.6h-0.3v0.3c-7.1,9.1-11.4,20.6-11.4,33c0,29.7,24.2,53.9,53.9,53.9
	s53.9-24.2,53.9-53.9S221.7,10.3,192,10.3z"/>
<path d="M192,10.3c-17.1,0-32.4,8-42.3,20.6h-0.3v0.3c-7.1,9.1-11.4,20.6-11.4,33c0,29.7,24.2,53.9,53.9,53.9s53.9-24.2,53.9-53.9
	S221.7,10.3,192,10.3z M208.6,100.9l-23.1-3L183.7,78l17.6-10.7L217,82.4L208.6,100.9z M171.2,103.3L151.9,89l-2.1-14.7l11.8-7.4
	L181.5,78l1.9,20.2L171.2,103.3z M149.1,72.2L142,57.4l9.3-15.3l9.7,2l-0.2,20.8L149.1,72.2z M188.3,19l21.3,2.9l7.3,13.6l-16.1,7.9
	l-16.5-11.5L188.3,19z M231.4,74.4l-12.6,6.7l-16.9-16.2l0.2-19.7l16-7.9L232.3,50L231.4,74.4z M233.5,74.9l1-24.5l7.1-0.9
	c1.4,4.7,2.1,9.6,2.1,14.7c0,4.6-0.6,9-1.7,13.2L233.5,74.9z M240.9,47.4l-7.1,0.9l-14.6-13.1L212,21.9l6.1-2.4
	C228.7,25.7,236.9,35.6,240.9,47.4z M178.8,14.2l7.4,4.1L182,32.1L162.3,42l-10.5-2.1l-0.2-8.1C158.5,23.4,167.9,17,178.8,14.2z
	 M149.7,40.5l-8.5,14.1c1.4-7.3,4.3-14.1,8.4-20L149.7,40.5z M140.5,59.2l7.1,14.9l2.1,14.8l-2.9,0.4c-4.1-7.4-6.5-16-6.5-25.1
	C140.3,62.5,140.4,60.8,140.5,59.2z M172.4,112.1l-0.2-6.8l12.5-5.3l23.9,3.1l4.4,8.4c-6.4,2.9-13.5,4.5-21,4.5
	C185.1,115.9,178.5,114.5,172.4,112.1z"/>
<g>
	<path fill="none" stroke="#000000" stroke-width="3" stroke-miterlimit="10" d="M157.6,137"/>
	<path fill="#FF0000" d="M157.6,137"/>
</g>
<g>
	<path fill="#FFFFFF" d="M213.088,171.135c20.106-10.308,33.231-32.548,33.899-35.877c0.768-3.333-0.559-3.981-2.957-6.387
		s-7.022-0.421-7.022-0.421s-21.01,17.75-30.736,24.843c-9.825,7.097-51.598,18.668-57.178,21.793
		c-5.58,3.125-44.771,16.695-51.331,25.363c0.008,2.702-1.716,9.676,5.243,5.996C109.965,202.764,180.139,188.16,213.088,171.135z"
		/>
	<g>
		<path fill="none" stroke="#000000" stroke-width="3" stroke-miterlimit="10" d="M183.784,143.98
			c3.27-0.831,6.043-1.542,8.122-2.125c4.353-1.274,9.401-2.676,16.012-5.041c8.686-3.048,18.387-8.238,22.056-9.085
			c6.343-1.554,12.314,0.11,12.314,0.11c2.889,2.187-20.887,20.848-26.615,25.279c-14.75,11.596-61.307,23.658-94.783,37.502
			c-11.915,4.878-17.124,9.789-17.124,9.789s9.277-3.272,15.816-4.933c14.561-3.782,77.949-17.916,94.146-28.369
			c20.882-13.442,31.249-32.069,31.213-35.47c5.207,7.599,1.764,14.141-1.162,18.561c-3.026,4.424-0.441,6.523-1.792,7.777
			c-0.668,0.827-4.32-0.428-7.299,2.693c-2.978,3.121-3.97,5.863-7.747,9.015c-3.678,3.149-0.645,6.431-2.939,9.124
			s-5.084-1.999-8.697,0.246c-3.514,2.242-5.552,3.824-11.74,6.773c-5.988,2.941-2.219,7.094-4.674,8.293
			c-2.246,1.391-6.678-4.338-11.291-2.052c-4.613,2.285-22.441,14.505-28.692,18.356c-6.152,3.848-1.013,12.25-2.94,14.128
			c-1.255,1.151-5.611-2.679-9.616-2.719c-2.302-0.008-4.537,1.682-6.759,3.672c-5.984,5.543-0.565,10.931-3.1,12.633
			c-2.534,1.702-4.46-1.424-9.22-2.835c-4.66-1.416-8.449,1.437-13.425-2.868c-23.841-20.668-20.268-44.028-20.268-44.028
			c1.683-2.969,2.61-2.306,7.35-1.394s12.961,1.285,18.69-3.146c5.728-4.431,11.773-15.981,10.971-21.053
			c-0.703-5.076-2.245-8.618,4.442-9.084c2.694-0.207,10.644-1.625,19.877-3.494l4.265-0.97
			C161.96,148.852,161.96,148.852,183.784,143.98z"/>
		<path fill="#FF3D00" d="M183.784,143.98c3.27-0.831,6.043-1.542,8.122-2.125c4.353-1.274,9.401-2.676,16.012-5.041
			c8.686-3.048,18.387-8.238,22.056-9.085c6.343-1.554,12.314,0.11,12.314,0.11c2.889,2.187-20.887,20.848-26.615,25.279
			c-14.75,11.596-61.307,23.658-94.783,37.502c-11.915,4.878-17.124,9.789-17.124,9.789s9.277-3.272,15.816-4.933
			c14.561-3.782,77.949-17.916,94.146-28.369c20.882-13.442,31.249-32.069,31.213-35.47c5.207,7.599,1.764,14.141-1.162,18.561
			c-3.026,4.424-0.441,6.523-1.792,7.777c-0.668,0.827-4.32-0.428-7.299,2.693c-2.978,3.121-3.97,5.863-7.747,9.015
			c-3.678,3.149-0.645,6.431-2.939,9.124s-5.084-1.999-8.697,0.246c-3.514,2.242-5.552,3.824-11.74,6.773
			c-5.988,2.941-2.219,7.094-4.674,8.293c-2.246,1.391-6.678-4.338-11.291-2.052c-4.613,2.285-22.441,14.505-28.692,18.356
			c-6.152,3.848-1.013,12.25-2.94,14.128c-1.255,1.151-5.611-2.679-9.616-2.719c-2.302-0.008-4.537,1.682-6.759,3.672
			c-5.984,5.543-0.565,10.931-3.1,12.633c-2.534,1.702-4.46-1.424-9.22-2.835c-4.66-1.416-8.449,1.437-13.425-2.868
			c-23.841-20.668-20.268-44.028-20.268-44.028c1.683-2.969,2.61-2.306,7.35-1.394s12.961,1.285,18.69-3.146
			c5.728-4.431,11.773-15.981,10.971-21.053c-0.703-5.076-2.245-8.618,4.442-9.084c2.694-0.207,10.644-1.625,19.877-3.494
			l4.265-0.97C161.96,148.852,161.96,148.852,183.784,143.98z"/>
	</g>
	<g>
		<g>
			<g>
				<path fill="none" stroke="#1D1D1B" stroke-width="3" d="M155.459,164.023c-0.2,0.008-0.4,0.016-0.6,0.024
					c-1.107-0.156-1.75-1.231-1.594-2.338l2.716-14.72c0.156-1.107,1.227-1.85,2.338-1.594c1.107,0.156,1.75,1.231,1.594,2.338
					l-2.716,14.72C157.03,163.26,156.254,163.891,155.459,164.023z"/>
			</g>
			<g>
				<path fill="none" stroke="#1D1D1B" stroke-width="3" d="M164.616,160.256c-0.2,0.008-0.4,0.016-0.6,0.024
					c-1.107-0.156-1.75-1.231-1.594-2.338l2.232-11.798c0.156-1.107,1.231-1.75,2.338-1.594s1.75,1.231,1.594,2.338l-2.232,11.798
					C166.087,159.496,165.412,160.124,164.616,160.256z"/>
			</g>
			<g>
				<path fill="none" stroke="#1D1D1B" stroke-width="3" d="M172.215,157.551c-0.2,0.008-0.4,0.016-0.6,0.024
					c-1.107-0.156-1.75-1.231-1.594-2.338l2.156-11.195c0.156-1.107,1.227-1.85,2.338-1.594c1.107,0.156,1.75,1.231,1.594,2.338
					l-2.156,11.195C173.686,156.792,173.01,157.419,172.215,157.551z"/>
			</g>
			<g>
				<path fill="none" stroke="#1D1D1B" stroke-width="3" d="M180.641,153.012c-0.2,0.008-0.4,0.016-0.6,0.024
					c-1.107-0.156-1.75-1.231-1.594-2.338l1.648-8.873c0.156-1.107,1.227-1.85,2.338-1.594c1.107,0.156,1.75,1.231,1.594,2.338
					l-1.648,8.873C182.211,152.249,181.536,152.876,180.641,153.012z"/>
			</g>
		</g>
		<g>
			<g>
				<path fill="#FFFF00" d="M155.459,164.023c-0.2,0.008-0.4,0.016-0.6,0.024c-1.107-0.156-1.75-1.231-1.594-2.338l2.716-14.72
					c0.156-1.107,1.227-1.85,2.338-1.594c1.107,0.156,1.75,1.231,1.594,2.338l-2.716,14.72
					C157.03,163.26,156.254,163.891,155.459,164.023z"/>
			</g>
			<g>
				<path fill="#FFFF00" d="M164.616,160.256c-0.2,0.008-0.4,0.016-0.6,0.024c-1.107-0.156-1.75-1.231-1.594-2.338l2.232-11.798
					c0.156-1.107,1.231-1.75,2.338-1.594s1.75,1.231,1.594,2.338l-2.232,11.798C166.087,159.496,165.412,160.124,164.616,160.256z"
					/>
			</g>
			<g>
				<path fill="#FFFF00" d="M172.215,157.551c-0.2,0.008-0.4,0.016-0.6,0.024c-1.107-0.156-1.75-1.231-1.594-2.338l2.156-11.195
					c0.156-1.107,1.227-1.85,2.338-1.594c1.107,0.156,1.75,1.231,1.594,2.338l-2.156,11.195
					C173.686,156.792,173.01,157.419,172.215,157.551z"/>
			</g>
			<g>
				<path fill="#FFFF00" d="M180.641,153.012c-0.2,0.008-0.4,0.016-0.6,0.024c-1.107-0.156-1.75-1.231-1.594-2.338l1.648-8.873
					c0.156-1.107,1.227-1.85,2.338-1.594c1.107,0.156,1.75,1.231,1.594,2.338l-1.648,8.873
					C182.211,152.249,181.536,152.876,180.641,153.012z"/>
			</g>
		</g>
	</g>
</g>
<g>
	<circle fill="#F0F0F0" cx="191.4" cy="64.9" r="41"/>
	<circle fill="#D80027" cx="191.4" cy="64.9" r="17.8"/>
</g>
<ellipse fill="none" stroke="#000000" stroke-width="1.4754" stroke-miterlimit="10" cx="191.6" cy="65.2" rx="40.8" ry="40.6"/>
<text transform="matrix(1 0 0 1 12.3333 122.9489)" font-family="'Antonio-Bold'" font-size="20">SPIELER DES JAHRES</text>
<text transform="matrix(1 0 0 1 12.3333 146.9489)" font-family="'Antonio-Bold'" font-size="20">DER JAPANISCHEN</text>
<text transform="matrix(1 0 0 1 12.3333 170.9489)" font-family="'Antonio-Bold'" font-size="20">LEAGUE</text>
</svg>
