<?xml version="1.0" encoding="utf-8"?>
<!-- Generator: Adobe Illustrator 17.0.0, SVG Export Plug-In . SVG Version: 6.00 Build 0)  -->
<!DOCTYPE svg PUBLIC "-//W3C//DTD SVG 1.1//EN" "http://www.w3.org/Graphics/SVG/1.1/DTD/svg11.dtd">
<svg version="1.1" id="Layer_1" xmlns="http://www.w3.org/2000/svg" xmlns:xlink="http://www.w3.org/1999/xlink" x="0px" y="0px"
	 width="256px" height="256px" viewBox="0 0 256 256" enable-background="new 0 0 256 256" xml:space="preserve">
<g>
	<polygon fill="#FF0000" points="78.5,160.3 44.2,83.8 76.3,57.2 194,55.9 211.1,86.4 177.4,163.2 144.4,138.3 164.5,87.7 
		87.5,88.1 113.6,136.3 	"/>
	<g>
		<g>
			<path fill="#FFFFFF" d="M78.5,166.5c-1.8,0-3.6-1-4.4-2.8L38.5,87.1c-0.9-2-0.4-4.4,1.3-5.8l34.5-28.6c1.2-1,2.7-1.3,4.1-1
				c1.5,0.3,2.7,1.3,3.3,2.7l35.7,76.7c1.1,2.4,0.1,5.3-2.3,6.4c-2.4,1.1-5.3,0.1-6.4-2.3l-33.1-71L48.8,86.4l34.1,73.1
				c1.1,2.4,0.1,5.3-2.3,6.4C79.9,166.3,79.2,166.5,78.5,166.5z"/>
		</g>
		<g>
			<path fill="#FFFFFF" d="M177,167.5c-0.7,0-1.4-0.1-2-0.5c-2.4-1.1-3.5-4-2.3-6.4l34.6-74.1l-26.8-22.3l-33.2,71.2
				c-1.1,2.4-4,3.5-6.4,2.3c-2.4-1.1-3.5-4-2.3-6.4l35.8-76.8c0.6-1.4,1.9-2.3,3.3-2.7c1.5-0.3,3,0,4.1,1l34.5,28.6
				c1.7,1.4,2.2,3.8,1.3,5.8l-36.1,77.5C180.6,166.4,178.8,167.5,177,167.5z"/>
		</g>
		<g>
			<path fill="#FFFFFF" d="M178.6,60L178.6,60L77.3,60.5c-2.7,0-4.8-1.6-4.8-4.3s2.2-4.3,4.8-4.3l0,0L178.6,52c2.7,0,4.8,1.3,4.8,4
				C183.4,58.7,181.3,60,178.6,60z"/>
		</g>
		<g>
			<path fill="#FFFFFF" d="M163.7,93L163.7,93l-71.4-0.1c-2.7,0-4.8-2.3-4.8-4.9c0-2.7,2.2-4.9,4.8-4.9l0,0l71.4,0.3
				c2.7,0,4.8,2.2,4.8,4.9C168.5,90.8,166.4,93,163.7,93z"/>
		</g>
	</g>
	<g>
		<g>
			<g>
				<path fill="#FFFFFF" d="M127.1,248.4c-12.7,0-24.7-4-34.9-11.5c-26-19.3-31.5-56.2-12.3-82.2c11-14.9,28.7-23.8,47.3-23.8
					c12.7,0,24.7,4,34.9,11.5c12.6,9.3,20.8,23,23.2,38.6c2.3,15.5-1.6,31-10.9,43.6C163.4,239.5,145.7,248.4,127.1,248.4z
					 M127.2,139.7c-15.8,0-30.8,7.6-40.2,20.2c-16.4,22.1-11.7,53.5,10.4,69.8c8.7,6.4,18.9,9.8,29.7,9.8c15.8,0,30.8-7.6,40.2-20.2
					c7.9-10.7,11.2-23.9,9.3-37.1c-2-13.2-9-24.8-19.7-32.8C148.2,143.1,138,139.7,127.2,139.7z"/>
			</g>
		</g>
		<g>
			<g>
				<polygon fill="#FFFFFF" points="113.7,137.1 104.1,158.8 80.4,161.3 				"/>
			</g>
		</g>
		<g>
			<g>
				<polygon fill="#FFFFFF" points="147,240.1 126.6,228.1 105.9,239.8 				"/>
			</g>
		</g>
		<g>
			<g>
				<polygon fill="#FFFFFF" points="174.1,162 150.6,159.3 141.2,137.4 				"/>
			</g>
		</g>
		<g>
			<g>
				<polygon fill="#FFFFFF" points="86,225.6 90.9,202.4 73.1,186.6 				"/>
			</g>
		</g>
		<g>
			<g>
				<polygon fill="#FFFFFF" points="181.4,185.9 163.7,201.6 168.5,224.9 				"/>
			</g>
		</g>
	</g>
</g>
<path fill="#FFFF00" d="M127.2,139.7c-15.8,0-30.8,7.6-40.2,20.2c-16.4,22.1-11.7,53.5,10.4,69.8c8.7,6.4,18.9,9.8,29.7,9.8
	c15.8,0,30.8-7.6,40.2-20.2c7.9-10.7,11.2-23.9,9.3-37.1c-2-13.2-9-24.8-19.7-32.8C148.2,143.1,138,139.7,127.2,139.7z"/>
<path fill="#ABD100" d="M145.3,227.9c-4.8,5,11.8-7.4,16-13.1c6.7-9.1,9.5-20.3,7.9-31.5c-1.7-11.2-7.6-21.1-16.7-27.8
	c-1.8-1.4-3.8-2.6-5.8-3.6c0,0,13.9,19.1,12.9,36.9S152.8,220.2,145.3,227.9z"/>
<path fill="#FF9F00" d="M95.4,188.3c-1-21.7,16.8-38.3,16.8-38.3c-7.5,2.9-14.2,7.8-19.1,14.4c-13.9,18.8-10,45.4,8.9,59.4
	c2.3,1.7,9.2,6.2,7.2,4.3C104.5,223.8,96.4,210,95.4,188.3z"/>
<g>
	<g>
		<g>
			<path fill="#FFFF00" d="M10.2,200.8c-2.3,0-4.2-0.7-5.5-2.2c-1.3-1.4-2-3.5-2-6v-6.7H10v6.5c0,0.8,0.1,1.3,0.1,1.5
				c0.1-0.3,0.1-0.8,0.1-1.8v-23.6h7.4v23.4c0,2.7-0.6,4.9-1.9,6.4C14.4,200,12.5,200.8,10.2,200.8z M5.7,188.9v3.7
				c0,1.8,0.4,3.1,1.2,4c0.8,0.8,1.8,1.2,3.3,1.2c1.4,0,2.5-0.4,3.2-1.4c0.8-1,1.2-2.5,1.2-4.5v-20.4h-1.4v20.6
				c0,1.4-0.1,2.4-0.4,3.1c-0.4,1.1-1.4,1.8-2.7,1.8c-0.6,0-1.2-0.2-1.7-0.5c-1.3-0.9-1.4-2.7-1.4-4.2v-3.5H5.7V188.9z"/>
		</g>
		<g>
			<path fill="#FFFF00" d="M26.1,200.8c-2.7,0-4.8-0.9-6.1-2.7c-1.2-1.7-1.8-4-1.8-7.2v-13.2c0-8.2,5-9.5,8-9.5c2.7,0,4.8,0.9,6,2.6
				c1.2,1.6,1.8,3.9,1.8,6.8v13.2c0,3.2-0.6,5.5-1.8,7.2C30.9,199.9,28.9,200.8,26.1,200.8z M26.2,171.2c-2.3,0-5,0.7-5,6.5v13.2
				c0,2.5,0.4,4.3,1.3,5.4c0.7,1,1.9,1.5,3.7,1.5c1.7,0,2.9-0.5,3.6-1.5c0.8-1.1,1.2-3,1.2-5.5v-13.2c0-2.3-0.4-4-1.2-5.1
				C29.1,171.6,27.9,171.2,26.2,171.2z M26.1,197c-1.4,0-2.5-0.7-3-2c-0.3-0.9-0.5-2.2-0.5-4.1v-13.5c0-1.6,0.2-2.8,0.6-3.6
				c0.6-1.2,1.6-1.8,2.9-1.8c1.4,0,2.4,0.7,2.9,1.9c0.3,0.8,0.5,2,0.5,3.6V191c0,1.9-0.1,3.2-0.5,4C28.6,196.3,27.5,197,26.1,197z
				 M26.2,175c-0.1,0-0.2,0-0.2,0c-0.1,0.3-0.3,0.9-0.3,2.4v13.5c0,2,0.2,2.8,0.3,3h0.4c0.1-0.3,0.3-1.1,0.3-3v-13.5
				c0-1.5-0.2-2.2-0.3-2.4C26.3,175,26.3,175,26.2,175z"/>
		</g>
		<g>
			<path fill="#FFFF00" d="M47.6,200.5H34.7v-32h12.7v6.8h-5.3v5.4h5v6.7h-5v6.2h5.5C47.6,193.6,47.6,200.5,47.6,200.5z M37.7,197.5
				h6.9v-0.8h-5.5v-12.2h5v-0.7h-5v-11.4h5.3v-0.8h-6.7V197.5z"/>
		</g>
		<g>
			<path fill="#FFFF00" d="M75.4,200.5h-6.9v-5.4l-1,5.2h-6l-1.2-5.9v6h-6.9v-32h8.2l2.8,14.6l2.7-14.6h8.3V200.5z M71.5,197.5h0.9
				v-26h-2.8l-3.6,20h-2.9l-3.9-19.9h-2.7v26h0.9v-9.4l-0.2-9.9l3-0.3l3.8,19.4h1l3.7-19.3l3,0.3l-0.2,9.9V197.5z"/>
		</g>
		<g>
			<path fill="#FFFF00" d="M92.7,200.5h-7.2l-0.7-5.2h-2l-0.6,5.2h-7.3l4.6-32h8.4L92.7,200.5z M88.2,197.5h1.1l-3.9-26h-3.2
				l-3.7,26h1.2l0.6-5.2h7.3L88.2,197.5z M87.4,191.8h-7.2l2.1-17.5H85L87.4,191.8z M83.6,188.8H84l-0.2-1.5L83.6,188.8z"/>
		</g>
		<g>
			<path fill="#FFFF00" d="M108.6,200.5H101l-0.4-0.8c-0.2-0.4-0.3-0.6-0.3-11c0-1-0.1-1.5-0.2-1.6c-0.1,0-0.3-0.1-0.6-0.1v13.6
				h-7.4v-32h8.8c1.9,0,3.3,0.4,4.3,1.2s1.7,2,2,3.4c0.3,1.2,0.4,2.7,0.4,4.6c0,2-0.2,3.5-0.7,4.6c-0.2,0.5-0.5,0.9-0.8,1.3
				c0.3,0.4,0.6,0.9,0.8,1.6c0.5,1.4,0.7,3.8,0.7,7.8c0,4.1,0.1,5.3,0.1,5.5L108.6,200.5z M103.4,197.5h1.4c0-0.9,0-2.3,0-4.5
				c0-4.4-0.3-6.2-0.5-6.9c-0.3-0.9-0.7-1-0.9-1l-0.2-2.9c0.6-0.2,0.9-0.5,1.1-1s0.4-1.5,0.4-3.5c0-1.6-0.1-3-0.3-4
				c-0.2-0.8-0.5-1.3-1-1.7s-1.3-0.6-2.4-0.6h-5.8v26h1.4v-13.7l3,0.1c1.4,0,2.4,0.5,3,1.3c0.5,0.7,0.7,1.8,0.7,3.4
				C103.3,193.7,103.3,196.2,103.4,197.5z M99.8,183.4h-3.3v-11.5h3c1.9,0,2.8,0.8,3.1,1.5c0.4,0.7,0.6,1.9,0.6,3.8v0.2
				c0,1.4-0.1,2.4-0.2,3.1c-0.2,1-0.5,1.7-1,2.1C101.6,183.1,100.8,183.4,99.8,183.4z M99.6,180.4h0.3c0.1,0,0.2,0,0.2,0
				c0-0.1,0.1-0.2,0.1-0.4c0.1-0.4,0.1-1.1,0.1-2.6v-0.2c0-1.4-0.1-2-0.2-2.2c-0.1,0-0.3-0.1-0.5-0.1V180.4z"/>
		</g>
		<g>
			<path fill="#FFFF00" d="M115.5,200.8c-2.8,0-4.8-1-6-2.9c-1.1-1.7-1.6-4-1.6-7.1v-4.1h5.3l-1.8-1.8c-1.1-1.2-2-2.4-2.6-3.6
				c-0.7-1.3-1-2.9-1-4.5c0-2.8,0.6-4.8,1.7-6.3c1.2-1.5,3.2-2.3,5.9-2.3c2.8,0,4.8,0.9,5.9,2.8c0.9,1.6,1.4,3.8,1.4,6.7v3.3H118
				l1,1.1c1.3,1.4,2.3,2.9,3,4.3c0.7,1.5,1,3.2,1,5c0,3.1-0.5,5.3-1.6,6.9C120.3,199.9,118.2,200.8,115.5,200.8z M110.9,189.8v1.1
				c0,2.5,0.4,4.3,1.1,5.5c0.2,0.4,0.9,1.5,3.5,1.5c1.8,0,2.9-0.4,3.6-1.3c0.7-1,1.1-2.8,1.1-5.1c0-1.3-0.3-2.6-0.8-3.7
				c-0.5-1.2-1.4-2.4-2.4-3.5l-2.4-2.6c-0.9-0.9-1.5-1.7-1.9-2.4c-0.4-0.8-0.7-1.7-0.7-2.9s0.2-2.2,0.7-2.9c0.6-0.9,1.5-1.4,2.7-1.4
				c1.3,0,2.3,0.7,2.8,1.9c0.3,0.8,0.5,1.9,0.5,3.6v0.6h1.1v-0.3c0-2.3-0.3-4.1-1-5.2c-0.2-0.3-0.8-1.3-3.3-1.3
				c-1.8,0-3,0.4-3.6,1.2c-0.7,0.9-1.1,2.4-1.1,4.4c0,1.2,0.2,2.3,0.7,3.2c0.5,1,1.2,1.9,2.1,2.9l2.1,2.2c1.1,1.1,1.9,2.2,2.4,3.2
				c0.5,1.1,0.8,2.4,0.8,3.8c0,1.5-0.2,2.5-0.5,3.3c-0.3,0.6-1,1.7-2.9,1.7c-1.4,0-2.4-0.7-2.9-1.9c-0.4-0.9-0.5-2.1-0.5-4V190h-1.2
				L110.9,189.8L110.9,189.8z M115,189v2.2c0,1.9,0.2,2.6,0.3,2.8c0,0.1,0.2,0.1,0.3,0c0.1-0.2,0.2-0.7,0.2-1.9c0-1-0.2-1.8-0.5-2.5
				C115.3,189.4,115.2,189.2,115,189z M115.4,174.9c-0.2,0-0.3,0-0.3,0s-0.2,0.3-0.2,1.2c0,0.8,0.1,1.3,0.3,1.5
				c0.1,0.1,0.2,0.3,0.4,0.6v-0.9C115.7,175.8,115.5,175.2,115.4,174.9z"/>
		</g>
		<g>
			<path fill="#FFFF00" d="M131.9,200.5h-7.4v-25.1h-3.4v-6.8h14v6.8h-3.3v25.1H131.9z M127.5,197.5h1.4v-25.1h3.3v-0.8h-8v0.8h3.4
				v25.1H127.5z"/>
		</g>
		<g>
			<path fill="#FFFF00" d="M141.8,200.8c-2.7,0-4.8-0.9-6.1-2.7c-1.2-1.7-1.8-4-1.8-7.2v-13.2c0-8.2,5-9.5,8-9.5
				c2.7,0,4.8,0.9,6,2.6c1.2,1.6,1.8,3.9,1.8,6.8v13.2c0,3.2-0.6,5.5-1.8,7.2C146.6,199.9,144.5,200.8,141.8,200.8z M141.9,171.2
				c-2.3,0-5,0.7-5,6.5v13.2c0,2.5,0.4,4.3,1.3,5.4c0.7,1,1.9,1.5,3.7,1.5c1.7,0,2.9-0.5,3.6-1.5c0.8-1.1,1.2-3,1.2-5.5v-13.2
				c0-2.3-0.4-4-1.2-5.1C144.8,171.6,143.6,171.2,141.9,171.2z M141.8,197c-1.4,0-2.5-0.7-3-2c-0.3-0.9-0.5-2.2-0.5-4.1v-13.5
				c0-1.6,0.2-2.8,0.6-3.6c0.6-1.2,1.6-1.8,2.9-1.8c1.4,0,2.4,0.7,2.9,1.9c0.3,0.8,0.5,2,0.5,3.6V191c0,1.9-0.1,3.2-0.5,4
				C144.3,196.3,143.2,197,141.8,197z M141.8,175c-0.1,0-0.2,0-0.2,0c-0.1,0.3-0.3,0.9-0.3,2.4v13.5c0,2,0.2,2.8,0.3,3
				c0,0,0,0,0.2,0c0.1,0,0.2,0,0.2,0c0.1-0.3,0.3-1.1,0.3-3v-13.5c0-1.5-0.2-2.2-0.3-2.4C142,175,141.9,175,141.8,175z"/>
		</g>
		<g>
			<path fill="#FFFF00" d="M166.6,200.5h-5.7l-3.5-10v10h-7.1v-32h6l3.3,9.2v-9.2h7V200.5z M163,197.5h0.6v-26h-1v8l0.3,7.8
				l-2.9,0.6l-5.8-16.4h-0.9v26h1.1v-8.9l-0.2-7.6l2.9-0.5L163,197.5z"/>
		</g>
		<g>
			<path fill="#FFFF00" d="M195.2,200.5h-6.9v-5.4l-1,5.2h-6l-1.2-5.9v6h-6.9v-32h8.2l2.8,14.6l2.7-14.6h8.3L195.2,200.5
				L195.2,200.5z M191.3,197.5h0.9v-26h-2.8l-3.6,19.9h-2.9l-3.9-19.9h-2.7v26h0.9v-9.3l-0.2-9.9l3-0.3l3.8,19.4h1l3.7-19.3l3,0.3
				l-0.2,9.9V197.5z"/>
		</g>
		<g>
			<path fill="#FFFF00" d="M209.2,200.5h-12.9v-32H209v6.8h-5.3v5.4h5v6.7h-5v6.2h5.5V200.5z M199.2,197.5h6.9v-0.8h-5.5v-12.2h5
				v-0.7h-5v-11.4h5.3v-0.8h-6.7V197.5z"/>
		</g>
		<g>
			<path fill="#FFFF00" d="M217.2,200.5h-7.8v-32h8c2.6,0,4.6,0.8,5.8,2.5c1.2,1.5,1.7,3.7,1.7,6.5v13.1c0,3.3-0.6,5.7-1.7,7.3
				C221.9,199.6,219.9,200.5,217.2,200.5z M212.3,197.5h4.8c1.7,0,2.9-0.5,3.6-1.4c0.8-1.1,1.2-3,1.2-5.5v-13.1
				c0-2.1-0.4-3.7-1.1-4.6c-0.7-0.9-1.8-1.3-3.4-1.3h-5v25.9L212.3,197.5L212.3,197.5z M216.7,197.1h-2.9V172h2.8
				c1.4,0,2.6,0.6,3.2,1.7c0.5,0.9,0.8,2.1,0.8,4V192c0,1.8-0.3,3-0.8,3.8C219.2,196.3,218.3,197.1,216.7,197.1z M216.7,174.9V194
				c0.3,0,0.4-0.1,0.5-0.1c0,0,0.3-0.4,0.3-2v-14.3c0-1.7-0.2-2.3-0.4-2.5C217.1,175.1,217,175,216.7,174.9z"/>
		</g>
		<g>
			<path fill="#FFFF00" d="M241.6,200.5h-7.2l-0.7-5.2h-2l-0.6,5.2h-7.3l4.6-32h8.4L241.6,200.5z M237.1,197.5h1.1l-3.9-26H231
				l-3.7,26h1.2l0.6-5.2h7.3L237.1,197.5z M236.3,191.8h-7.2l2.1-17.5h2.7L236.3,191.8z M232.5,188.8h0.4l-0.2-1.5L232.5,188.8z"/>
		</g>
		<g>
			<path fill="#FFFF00" d="M254.1,200.5h-13v-32h7.4v25.2h5.6V200.5z M244.1,197.5h7v-0.8h-5.6v-25.2h-1.4V197.5z"/>
		</g>
	</g>
	<g>
		<g>
			<path d="M14.6,197.4c-1,1.3-2.5,1.9-4.4,1.9s-3.4-0.6-4.4-1.7c-1-1.1-1.6-2.8-1.6-5v-5.2h4.3v5c0,1.6,0.3,2.6,0.8,2.9
				c0.2,0.2,0.5,0.2,0.9,0.2c0.7,0,1.1-0.3,1.3-0.8s0.3-1.4,0.3-2.6V170h4.4v21.9C16.1,194.3,15.6,196.1,14.6,197.4z"/>
		</g>
		<g>
			<path d="M31,197.2c-1,1.4-2.6,2.1-4.8,2.1s-3.8-0.7-4.9-2.1c-1-1.4-1.6-3.5-1.6-6.3v-13.2c0-5.3,2.2-8,6.5-8c2.2,0,3.8,0.7,4.8,2
				s1.5,3.3,1.5,5.9v13.2C32.5,193.7,32,195.8,31,197.2z M24.5,194.5c0.3,0.7,0.8,1,1.6,1s1.3-0.3,1.6-1c0.3-0.7,0.4-1.9,0.4-3.5
				v-13.5c0-1.4-0.1-2.4-0.4-3s-0.8-0.9-1.5-0.9s-1.3,0.3-1.6,0.9c-0.3,0.6-0.5,1.6-0.5,3V191C24.1,192.6,24.3,193.8,24.5,194.5z"/>
		</g>
		<g>
			<path d="M36.2,199v-29h9.7v3.8h-5.3v8.4h5v3.7h-5v9.2h5.5v3.8h-9.9C36.2,198.9,36.2,199,36.2,199z"/>
		</g>
		<g>
			<path d="M55,199v-29h5.5l4.1,21.2l3.9-21.2H74v29h-4v-10.8l0.2-9.9l-3.9,20.6h-3.5l-4.1-20.6l0.2,9.9V199H55z"/>
		</g>
		<g>
			<path d="M76.6,199l4.1-29h5.8l4.4,29h-4.1l-0.7-5.2h-4.7l-0.6,5.2H76.6z M85.7,190.3l-1.9-14.5h-0.1l-1.8,14.5H85.7z"/>
		</g>
		<g>
			<path d="M99.5,185.4l-1.4-0.1V199h-4.4v-29h7.3c1.5,0,2.6,0.3,3.4,0.9c0.7,0.6,1.2,1.5,1.5,2.5c0.2,1.1,0.4,2.5,0.4,4.3
				s-0.2,3.1-0.6,4s-1.1,1.5-2.1,1.9c1,0.2,1.7,0.9,2.1,2c0.4,1.2,0.6,3.6,0.6,7.3s0.1,5.7,0.2,6H102c-0.1-0.2-0.2-3.7-0.2-10.4
				c0-1.3-0.2-2.1-0.5-2.6C101,185.6,100.4,185.4,99.5,185.4z M98.1,181.9h1.8c0.6,0,1-0.1,1.2-0.4c0.3-0.3,0.5-0.7,0.6-1.3
				s0.2-1.6,0.2-2.8v-0.2c0-1.6-0.1-2.6-0.4-3.1s-0.9-0.7-1.8-0.7h-1.5v8.5H98.1z"/>
		</g>
		<g>
			<path d="M109.4,190.8v-2.6h4.2v2.9c0,1.6,0.1,2.7,0.4,3.4s0.8,1,1.5,1c0.8,0,1.3-0.3,1.5-0.8s0.4-1.4,0.4-2.6s-0.2-2.3-0.7-3.2
				s-1.1-1.9-2.1-2.8l-2.1-2.2c-1-1-1.8-2.1-2.3-3.2s-0.8-2.4-0.8-3.9c0-2.4,0.5-4.2,1.4-5.3c0.9-1.2,2.5-1.7,4.8-1.7
				c2.2,0,3.8,0.7,4.6,2s1.2,3.3,1.2,5.9v1.8h-4.1v-2.1c0-1.4-0.1-2.4-0.4-3c-0.2-0.6-0.7-0.9-1.4-0.9c-0.7,0-1.2,0.2-1.5,0.7
				s-0.5,1.2-0.5,2.1c0,0.9,0.2,1.7,0.5,2.2s0.9,1.2,1.7,2.1l2.4,2.6c1.2,1.3,2.1,2.6,2.7,3.9c0.6,1.3,0.9,2.8,0.9,4.3
				c0,2.7-0.5,4.7-1.4,6s-2.5,1.9-4.8,1.9s-3.9-0.7-4.8-2.2C109.8,195.7,109.4,193.6,109.4,190.8z"/>
		</g>
		<g>
			<path d="M126,199v-25.1h-3.4v-3.8h11v3.8h-3.3V199H126z"/>
		</g>
		<g>
			<path d="M146.6,197.2c-1,1.4-2.6,2.1-4.8,2.1s-3.8-0.7-4.9-2.1c-1-1.4-1.6-3.5-1.6-6.3v-13.2c0-5.3,2.2-8,6.5-8
				c2.2,0,3.8,0.7,4.8,2s1.5,3.3,1.5,5.9v13.2C148.2,193.7,147.6,195.8,146.6,197.2z M140.2,194.5c0.3,0.7,0.8,1,1.6,1
				s1.3-0.3,1.6-1s0.4-1.9,0.4-3.5v-13.5c0-1.4-0.1-2.4-0.4-3c-0.3-0.6-0.8-0.9-1.5-0.9s-1.3,0.3-1.6,0.9c-0.3,0.6-0.5,1.6-0.5,3
				V191C139.8,192.6,139.9,193.8,140.2,194.5z"/>
		</g>
		<g>
			<path d="M151.8,199v-29h3.5l6.1,17.4l-0.3-7.9V170h4v29H162l-6.3-18l0.2,7.6V199H151.8z"/>
		</g>
		<g>
			<path d="M174.8,199v-29h5.5l4.1,21.2l3.9-21.2h5.5v29h-3.9v-10.8l0.2-9.9l-3.9,20.6h-3.5l-4.1-20.6l0.2,9.9V199H174.8z"/>
		</g>
		<g>
			<path d="M197.8,199v-29h9.7v3.8h-5.3v8.4h5v3.7h-5v9.2h5.5v3.8h-9.9V199z"/>
		</g>
		<g>
			<path d="M210.8,199v-29h6.5c2.1,0,3.7,0.6,4.6,1.9c1,1.3,1.4,3.1,1.4,5.6v13.1c0,2.9-0.5,5.1-1.4,6.4c-1,1.4-2.6,2-4.8,2H210.8z
				 M215.2,195.6h1.4c0.8,0,1.4-0.3,1.8-0.8c0.4-0.5,0.6-1.5,0.6-2.9v-14.3c0-1.5-0.2-2.6-0.6-3.2c-0.4-0.6-1-1-1.9-1h-1.3V195.6z"
				/>
		</g>
		<g>
			<path d="M225.6,199l4.1-29h5.8l4.4,29h-4.1l-0.7-5.2h-4.7l-0.6,5.2H225.6z M234.6,190.3l-1.9-14.5h-0.1l-1.8,14.5H234.6z"/>
		</g>
		<g>
			<path d="M242.6,199v-29h4.4v25.2h5.6v3.8H242.6z"/>
		</g>
	</g>
</g>
<g>
	<path d="M84.3,230.1l3.3-23.2h4.7l3.5,23.2h-3.3l-0.6-4.1h-3.7l-0.5,4.1H84.3z M91.6,223.1L90,211.4l0,0l-1.4,11.7L91.6,223.1
		L91.6,223.1z"/>
	<path d="M103.1,230.1v-23.2h3.5v20.2h4.5v3H103.1z"/>
	<path d="M113.1,230.1v-23.2h7.8v3h-4.2v6.8h4v3h-4v7.4h4.4v3H113.1z"/>
	<path d="M122.8,230.1l3.3-23.2h4.7l3.5,23.2H131l-0.6-4.1h-3.7l-0.5,4.1H122.8z M130.1,223.1l-1.6-11.7h-0.1l-1.4,11.7H130.1z"/>
	<path d="M141.1,230.3c-1.5,0-2.6-0.6-3.4-1.7c-0.8-1.1-1.2-2.9-1.2-5.3v-10.1c0-2.1,0.4-3.8,1.3-4.9s2.2-1.7,4-1.7
		c2.3,0,3.7,0.8,4.3,2.5c0.4,1,0.6,2.4,0.6,4.2v1.6h-3.3v-2.4c0-1.1-0.1-1.8-0.3-2.2s-0.6-0.6-1.3-0.6c-0.6,0-1.1,0.3-1.3,0.8
		c-0.3,0.5-0.4,1.4-0.4,2.7v10.1c0,1.5,0.1,2.6,0.3,3.2s0.7,0.9,1.3,0.9s1.1-0.3,1.4-1c0.3-0.6,0.4-1.7,0.4-3.2v-3.1h-1.8v-2.6h4.9
		v12.7H145l-0.5-2.3c-0.2,0.8-0.6,1.4-1.2,1.8S141.9,230.3,141.1,230.3z"/>
	<path d="M158.8,228.8c-0.8,1-2.1,1.5-3.9,1.5c-1.8,0-3.1-0.5-3.9-1.5c-0.8-1-1.2-2.6-1.2-4.7v-17.3h3.5V224c0,1.2,0.1,2,0.2,2.2
		s0.3,0.5,0.4,0.7c0.2,0.2,0.5,0.3,1,0.3s0.9-0.1,1.1-0.4s0.4-0.7,0.4-1.1c0-0.4,0.1-1,0.1-1.7v-17.2h3.5v17.3
		C160,226.3,159.6,227.8,158.8,228.8z"/>
	<path d="M163.3,230.1v-23.2h7.8v3h-4.2v6.8h4v3h-4v7.4h4.4v3H163.3z"/>
</g>
<g>
	<path fill="#FFFFFF" d="M192,10.3c-17.1,0-32.4,8-42.3,20.6h-0.3v0.3c-7.1,9.1-11.4,20.6-11.4,33c0,29.7,24.2,53.9,53.9,53.9
		s53.9-24.2,53.9-53.9S221.7,10.3,192,10.3z"/>
	<path d="M192,10.3c-17.1,0-32.4,8-42.3,20.6h-0.3v0.3c-7.1,9.1-11.4,20.6-11.4,33c0,29.7,24.2,53.9,53.9,53.9s53.9-24.2,53.9-53.9
		S221.7,10.3,192,10.3z M208.6,100.9l-23.1-3L183.7,78l17.6-10.7L217,82.4L208.6,100.9z M171.2,103.3L151.9,89l-2.1-14.7l11.8-7.4
		L181.5,78l1.9,20.2L171.2,103.3z M149.1,72.2L142,57.4l9.3-15.3l9.7,2l-0.2,20.8L149.1,72.2z M188.3,19l21.3,2.9l7.3,13.6
		l-16.1,7.9l-16.5-11.5L188.3,19z M231.4,74.4l-12.6,6.7l-16.9-16.2l0.2-19.7l16-7.9L232.3,50L231.4,74.4z M233.5,74.9l1-24.5
		l7.1-0.9c1.4,4.7,2.1,9.6,2.1,14.7c0,4.6-0.6,9-1.7,13.2L233.5,74.9z M240.9,47.4l-7.1,0.9l-14.6-13.1L212,21.9l6.1-2.4
		C228.7,25.7,236.9,35.6,240.9,47.4z M178.8,14.2l7.4,4.1L182,32.1L162.3,42l-10.5-2.1l-0.2-8.1C158.5,23.4,167.9,17,178.8,14.2z
		 M149.7,40.5l-8.5,14.1c1.4-7.3,4.3-14.1,8.4-20L149.7,40.5z M140.5,59.2l7.1,14.9l2.1,14.8l-2.9,0.4c-4.1-7.4-6.5-16-6.5-25.1
		C140.3,62.5,140.4,60.8,140.5,59.2z M172.4,112.1l-0.2-6.8l12.5-5.3l23.9,3.1l4.4,8.4c-6.4,2.9-13.5,4.5-21,4.5
		C185.1,115.9,178.5,114.5,172.4,112.1z"/>
</g>
<g>
	<g>
		<ellipse fill="#FF0000" stroke="#000000" stroke-miterlimit="10" cx="191.6" cy="65.2" rx="40.8" ry="40.6"/>
	</g>
	<g>
		<g>
			<path fill="#FFFFFF" d="M224.3,65.5c-0.4,1.2-0.5,2.5-1.1,3.7c-2.5,5.1-8,6.5-13.4,3.6c-5.2-2.7-8.7-7-11.5-12
				c-4.8-8.7-7.2-18-7.3-27.9c1.3,0,2.6,0,3.9,0c0.8,0.8,1.9,0.7,2.9,0.8c2,0.1,3.2,0.7,3.4,3.1c0.4,5,1.6,10,3.3,14.7
				c1.9,5.2,4.7,9.7,8.6,13.6c0.8-0.9,0.8-1.7,0.8-2.6c-0.1-9-3.2-17.1-7.1-25.3c0.6,0.1,0.9,0.1,1.1,0.2c0.6,0.3,1.1,0.6,1.7,1
				c4.3,2.9,7.4,6.8,9.9,11.3c2.6,4.6,3.8,9.7,4.6,14.9C224.3,64.7,224.3,65.1,224.3,65.5z"/>
			<path fill="#FFFFFF" d="M157.9,62.1c1.1-1.8,0.9-4,1.6-5.9c2.6-7.8,7.1-14.2,13.8-18.9c3.4-2.4,7-3.4,10.7-1
				c3.8,2.4,4.7,6.4,4.4,10.6c-0.6,10-6.2,17.4-12.8,24.3c-3.1,3.2-6.6,6.1-10.3,8.7c-1.3,0.9-2.2,0.8-2.8-0.6
				c-0.2-0.4-0.5-0.8-0.7-1.2c-3-5.4-3-5.7,1.8-9.4c7-5.5,12.6-12,15.6-20.5c0.3-0.7,1.1-1.6,0.3-2.3s-1.6,0.3-2.2,0.7
				c-7.1,4-12.3,10-17,16.5c-0.6,0.9-1,2.1-2.4,2C157.9,64,157.9,63,157.9,62.1z"/>
			<path fill="#FFFFFF" d="M207.2,92.7c-7.3,4.9-15.3,5.4-23.5,3.9c-2.8-0.5-5.5-1.3-8-2.6c-7.8-3.9-8.3-11.5-1.2-16.6
				c3.5-2.5,7.6-3.7,11.8-4c10.6-0.8,20.6,1.7,30.2,6.1c1.9,0.9,1.9,1.7,0.9,3.3c-3.7,6.1-3.6,6.2-10.1,3.7c-7.9-3-16-4.7-24.5-3.2
				c-0.9,0.2-2.4-0.2-2.6,1.1c-0.2,1,1.2,1.3,2,1.7c7.3,4.3,15.4,5.5,23.7,6.3C206.3,92.6,206.8,92.7,207.2,92.7z"/>
		</g>
	</g>
</g>
</svg>
