<?xml version="1.0" encoding="utf-8"?>
<!-- Generator: Adobe Illustrator 17.0.0, SVG Export Plug-In . SVG Version: 6.00 Build 0)  -->
<!DOCTYPE svg PUBLIC "-//W3C//DTD SVG 1.1//EN" "http://www.w3.org/Graphics/SVG/1.1/DTD/svg11.dtd">
<svg version="1.1" id="Layer_1" xmlns="http://www.w3.org/2000/svg" xmlns:xlink="http://www.w3.org/1999/xlink" x="0px" y="0px"
	 width="256px" height="256px" viewBox="0 0 256 256" enable-background="new 0 0 256 256" xml:space="preserve">
	<g>
		<g>
			<polygon fill="#A500E6" points="78.5,160.3 44.2,83.8 76.3,57.2 194,55.9 211.1,86.4 177.4,163.2 144.4,138.3 164.5,87.7 
			87.5,88.1 113.6,136.3 		"/>
			<g>
				<g>
					<path fill="#FFFFFF" d="M78.5,166.5c-1.8,0-3.6-1-4.4-2.8L38.5,87.1c-0.9-2-0.4-4.4,1.3-5.8l34.5-28.6c1.2-1,2.7-1.3,4.1-1
					c1.5,0.3,2.7,1.3,3.3,2.7l35.7,76.7c1.1,2.4,0.1,5.3-2.3,6.4c-2.4,1.1-5.3,0.1-6.4-2.3l-33.1-71L48.8,86.4l34.1,73.1
					c1.1,2.4,0.1,5.3-2.3,6.4C79.9,166.3,79.2,166.5,78.5,166.5z"/>
				</g>
				<g>
					<path fill="#FFFFFF" d="M177,167.5c-0.7,0-1.4-0.1-2-0.5c-2.4-1.1-3.5-4-2.3-6.4l34.6-74.1l-26.8-22.3l-33.2,71.2
					c-1.1,2.4-4,3.5-6.4,2.3c-2.4-1.1-3.5-4-2.3-6.4l35.8-76.8c0.6-1.4,1.9-2.3,3.3-2.7c1.5-0.3,3,0,4.1,1l34.5,28.6
					c1.7,1.4,2.2,3.8,1.3,5.8l-36.1,77.5C180.6,166.4,178.8,167.5,177,167.5z"/>
				</g>
				<g>
					<path fill="#FFFFFF" d="M178.6,60L178.6,60L77.3,60.5c-2.7,0-4.8-1.6-4.8-4.3s2.2-4.3,4.8-4.3l0,0L178.6,52c2.7,0,4.8,1.3,4.8,4
					C183.4,58.7,181.3,60,178.6,60z"/>
				</g>
				<g>
					<path fill="#FFFFFF" d="M163.7,93L163.7,93l-71.4-0.1c-2.7,0-4.8-2.3-4.8-4.9c0-2.7,2.2-4.9,4.8-4.9l0,0l71.4,0.3
					c2.7,0,4.8,2.2,4.8,4.9C168.5,90.8,166.4,93,163.7,93z"/>
				</g>
			</g>
			<g>
				<g>
					<g>
						<path fill="#FFFFFF" d="M127.1,248.4c-12.7,0-24.7-4-34.9-11.5c-26-19.3-31.5-56.2-12.3-82.2c11-14.9,28.7-23.8,47.3-23.8
						c12.7,0,24.7,4,34.9,11.5c12.6,9.3,20.8,23,23.2,38.6c2.3,15.5-1.6,31-10.9,43.6C163.4,239.5,145.7,248.4,127.1,248.4z
						 M127.2,139.7c-15.8,0-30.8,7.6-40.2,20.2c-16.4,22.1-11.7,53.5,10.4,69.8c8.7,6.4,18.9,9.8,29.7,9.8
						c15.8,0,30.8-7.6,40.2-20.2c7.9-10.7,11.2-23.9,9.3-37.1c-2-13.2-9-24.8-19.7-32.8C148.2,143.1,138,139.7,127.2,139.7z"/>
					</g>
				</g>
				<g>
					<g>
						<polygon fill="#FFFFFF" points="113.7,137.1 104.1,158.8 80.4,161.3 					"/>
					</g>
				</g>
				<g>
					<g>
						<polygon fill="#FFFFFF" points="147,240.1 126.6,228.1 105.9,239.8 					"/>
					</g>
				</g>
				<g>
					<g>
						<polygon fill="#FFFFFF" points="174.1,162 150.6,159.3 141.2,137.4 					"/>
					</g>
				</g>
				<g>
					<g>
						<polygon fill="#FFFFFF" points="86,225.6 90.9,202.4 73.1,186.6 					"/>
					</g>
				</g>
				<g>
					<g>
						<polygon fill="#FFFFFF" points="181.4,185.9 163.7,201.6 168.5,224.9 					"/>
					</g>
				</g>
			</g>
		</g>
		<path fill="#FFFF00" d="M127.2,139.7c-15.8,0-30.8,7.6-40.2,20.2c-16.4,22.1-11.7,53.5,10.4,69.8c8.7,6.4,18.9,9.8,29.7,9.8
		c15.8,0,30.8-7.6,40.2-20.2c7.9-10.7,11.2-23.9,9.3-37.1c-2-13.2-9-24.8-19.7-32.8C148.2,143.1,138,139.7,127.2,139.7z"/>
		<path fill="#ABD100" d="M145.3,227.9c-4.8,5,11.8-7.4,16-13.1c6.7-9.1,9.5-20.3,7.9-31.5c-1.7-11.2-7.6-21.1-16.7-27.8
		c-1.8-1.4-3.8-2.6-5.8-3.6c0,0,13.9,19.1,12.9,36.9S152.8,220.2,145.3,227.9z"/>
		<path fill="#FF9F00" d="M95.4,188.3c-1-21.7,16.8-38.3,16.8-38.3c-7.5,2.9-14.2,7.8-19.1,14.4c-13.9,18.8-10,45.4,8.9,59.4
		c2.3,1.7,9.2,6.2,7.2,4.3C104.5,223.8,96.4,210,95.4,188.3z"/>
	</g>
	<g>
		<path d="M84.3,183.3l3.3-23.2h4.7l3.5,23.2h-3.3l-0.6-4.1h-3.7l-0.5,4.1H84.3z M91.6,176.3L90,164.6l0,0l-1.4,11.7H91.6z"/>
		<path d="M103.1,183.3v-23.2h3.5v20.2h4.5v3H103.1z"/>
		<path d="M113.1,183.3v-23.2h7.8v3h-4.2v6.8h4v3h-4v7.4h4.4v3H113.1z"/>
		<path d="M122.8,183.3l3.3-23.2h4.7l3.5,23.2H131l-0.6-4.1h-3.7l-0.5,4.1H122.8z M130.1,176.3l-1.6-11.7h-0.1l-1.4,11.7H130.1z"/>
		<path d="M141.1,183.5c-1.5,0-2.6-0.6-3.4-1.7c-0.8-1.1-1.2-2.9-1.2-5.3v-10.1c0-2.1,0.4-3.8,1.3-4.9c0.8-1.1,2.2-1.7,4-1.7
		c2.3,0,3.7,0.8,4.3,2.5c0.4,1,0.6,2.4,0.6,4.2v1.6h-3.3v-2.4c0-1.1-0.1-1.8-0.3-2.2s-0.6-0.6-1.3-0.6c-0.6,0-1.1,0.3-1.3,0.8
		c-0.3,0.5-0.4,1.4-0.4,2.7v10.1c0,1.5,0.1,2.6,0.3,3.2s0.7,0.9,1.3,0.9c0.7,0,1.1-0.3,1.4-1c0.3-0.6,0.4-1.7,0.4-3.2v-3.1h-1.8
		v-2.6h4.9v12.7H145l-0.5-2.3c-0.2,0.8-0.6,1.4-1.2,1.8S141.9,183.5,141.1,183.5z"/>
		<path d="M158.8,182c-0.8,1-2.1,1.5-3.9,1.5c-1.8,0-3.1-0.5-3.9-1.5c-0.8-1-1.2-2.6-1.2-4.7V160h3.5v17.2c0,1.2,0.1,2,0.2,2.2
		s0.3,0.5,0.4,0.7c0.2,0.2,0.5,0.3,1,0.3s0.9-0.1,1.1-0.4s0.4-0.7,0.4-1.1c0-0.4,0.1-1,0.1-1.7V160h3.5v17.3
		C160,179.5,159.6,181,158.8,182z"/>
		<path d="M163.3,183.3v-23.2h7.8v3h-4.2v6.8h4v3h-4v7.4h4.4v3H163.3z"/>
	</g>
	<g>
		<path fill="#FFFFFF" d="M192,10.3c-17.1,0-32.4,8-42.3,20.6h-0.3v0.3c-7.1,9.1-11.4,20.6-11.4,33c0,29.7,24.2,53.9,53.9,53.9
		s53.9-24.2,53.9-53.9S221.7,10.3,192,10.3z"/>
		<path d="M192,10.3c-17.1,0-32.4,8-42.3,20.6h-0.3v0.3c-7.1,9.1-11.4,20.6-11.4,33c0,29.7,24.2,53.9,53.9,53.9s53.9-24.2,53.9-53.9
		S221.7,10.3,192,10.3z M208.6,100.9l-23.1-3L183.7,78l17.6-10.7L217,82.4L208.6,100.9z M171.2,103.3L151.9,89l-2.1-14.7l11.8-7.4
		L181.5,78l1.9,20.2L171.2,103.3z M149.1,72.2L142,57.4l9.3-15.3l9.7,2l-0.2,20.8L149.1,72.2z M188.3,19l21.3,2.9l7.3,13.6
		l-16.1,7.9l-16.5-11.5L188.3,19z M231.4,74.4l-12.6,6.7l-16.9-16.2l0.2-19.7l16-7.9L232.3,50L231.4,74.4z M233.5,74.9l1-24.5
		l7.1-0.9c1.4,4.7,2.1,9.6,2.1,14.7c0,4.6-0.6,9-1.7,13.2L233.5,74.9z M240.9,47.4l-7.1,0.9l-14.6-13.1L212,21.9l6.1-2.4
		C228.7,25.7,236.9,35.6,240.9,47.4z M178.8,14.2l7.4,4.1L182,32.1L162.3,42l-10.5-2.1l-0.2-8.1C158.5,23.4,167.9,17,178.8,14.2z
		 M149.7,40.5l-8.5,14.1c1.4-7.3,4.3-14.1,8.4-20L149.7,40.5z M140.5,59.2l7.1,14.9l2.1,14.8l-2.9,0.4c-4.1-7.4-6.5-16-6.5-25.1
		C140.3,62.5,140.4,60.8,140.5,59.2z M172.4,112.1l-0.2-6.8l12.5-5.3l23.9,3.1l4.4,8.4c-6.4,2.9-13.5,4.5-21,4.5
		C185.1,115.9,178.5,114.5,172.4,112.1z"/>
	</g>
	<g>
		<g>
			<path d="M32,217.2c-1,1.3-2.5,1.9-4.4,1.9s-3.4-0.6-4.4-1.7c-1-1.1-1.6-2.8-1.6-5v-5.2h4.3v5c0,1.6,0.3,2.6,0.8,2.9
			c0.2,0.2,0.5,0.2,0.9,0.2c0.7,0,1.1-0.3,1.3-0.8s0.3-1.4,0.3-2.6v-22.1h4.4v21.9C33.5,214.1,33,215.9,32,217.2z"/>
			<path d="M37.1,218.8v-4h3.7v4H37.1z"/>
			<path d="M53.3,218.8l-3.5-29h3.9l2.1,20.6l2.7-20.6h3.6l2.7,20.6l1.9-20.6h4l-3.3,29H63l-2.6-19.2l-2.7,19.2H53.3z"/>
			<path d="M71.7,218.8l4.1-29h5.8l4.4,29h-4.1l-0.7-5.2h-4.7l-0.6,5.2H71.7z M80.8,210.1l-1.9-14.5h-0.1L77,210.1H80.8z"/>
			<path d="M94.6,205.2l-1.4-0.1v13.7h-4.4v-29H96c1.5,0,2.6,0.3,3.4,0.9c0.7,0.6,1.2,1.5,1.5,2.5c0.2,1.1,0.4,2.5,0.4,4.3
			s-0.2,3.1-0.6,4s-1.1,1.5-2.1,1.9c1,0.2,1.7,0.9,2.1,2s0.6,3.6,0.6,7.3s0.1,5.7,0.2,6h-4.4c-0.1-0.2-0.2-3.7-0.2-10.4
			c0-1.3-0.2-2.1-0.5-2.6C96.1,205.4,95.5,205.2,94.6,205.2z M93.2,201.7H95c0.6,0,1-0.1,1.2-0.4c0.3-0.3,0.5-0.7,0.6-1.3
			s0.2-1.6,0.2-2.8V197c0-1.6-0.1-2.6-0.4-3.1s-0.9-0.7-1.8-0.7h-1.5v8.5H93.2z"/>
			<path d="M110.8,205.2l-1.4-0.1v13.7H105v-29h7.3c1.5,0,2.6,0.3,3.4,0.9c0.7,0.6,1.2,1.5,1.5,2.5c0.2,1.1,0.4,2.5,0.4,4.3
			s-0.2,3.1-0.6,4s-1.1,1.5-2.1,1.9c1,0.2,1.7,0.9,2.1,2c0.4,1.2,0.6,3.6,0.6,7.3s0.1,5.7,0.2,6h-4.4c-0.1-0.2-0.2-3.7-0.2-10.4
			c0-1.3-0.2-2.1-0.5-2.6C112.4,205.4,111.8,205.2,110.8,205.2z M109.5,201.7h1.8c0.6,0,1-0.1,1.2-0.4c0.3-0.3,0.5-0.7,0.6-1.3
			s0.2-1.6,0.2-2.8V197c0-1.6-0.1-2.6-0.4-3.1s-0.9-0.7-1.8-0.7h-1.5v8.5H109.5z"/>
			<path d="M121.3,218.8v-29h9.7v3.8h-5.3v8.4h5v3.7h-5v9.2h5.5v3.8h-9.9V218.8z"/>
			<path d="M134.4,218.8v-29h3.5l6.1,17.4l-0.3-7.9v-9.5h4v29h-3.1l-6.3-18l0.2,7.6v10.4H134.4z"/>
			<path d="M157.3,218.8v-29h5.5l4.1,21.2l3.9-21.2h5.5v29h-3.9V208l0.2-9.9l-3.9,20.6h-3.5l-4.1-20.6l0.2,9.9v10.8H157.3z"/>
			<path d="M180.3,218.8v-29h9.7v3.8h-5.3v8.4h5v3.7h-5v9.2h5.5v3.8h-9.9V218.8z"/>
			<path d="M193.4,218.8v-29h6.5c2.1,0,3.7,0.6,4.6,1.9c1,1.3,1.4,3.1,1.4,5.6v13.1c0,2.9-0.5,5.1-1.4,6.4c-1,1.4-2.6,2-4.8,2H193.4z
			 M197.8,215.4h1.4c0.8,0,1.4-0.3,1.8-0.8s0.6-1.5,0.6-2.9v-14.3c0-1.5-0.2-2.6-0.6-3.2s-1-1-1.9-1h-1.3V215.4z"/>
			<path d="M208.1,218.8l4.1-29h5.8l4.4,29h-4.1l-0.7-5.2H213l-0.6,5.2H208.1z M217.2,210.1l-1.9-14.5h-0.1l-1.8,14.5H217.2z"/>
			<path d="M225.2,218.8v-29h4.4V215h5.6v3.8H225.2z"/>
		</g>
	</g>
	<g>
		<g>
			<ellipse fill="#FF0000" stroke="#000000" stroke-miterlimit="10" cx="191.6" cy="65.2" rx="40.8" ry="40.6"/>
		</g>
		<g>
			<g>
				<path fill="#FFFFFF" d="M224.3,65.5c-0.4,1.2-0.5,2.5-1.1,3.7c-2.5,5.1-8,6.5-13.4,3.6c-5.2-2.7-8.7-7-11.5-12
				c-4.8-8.7-7.2-18-7.3-27.9c1.3,0,2.6,0,3.9,0c0.8,0.8,1.9,0.7,2.9,0.8c2,0.1,3.2,0.7,3.4,3.1c0.4,5,1.6,10,3.3,14.7
				c1.9,5.2,4.7,9.7,8.6,13.6c0.8-0.9,0.8-1.7,0.8-2.6c-0.1-9-3.2-17.1-7.1-25.3c0.6,0.1,0.9,0.1,1.1,0.2c0.6,0.3,1.1,0.6,1.7,1
				c4.3,2.9,7.4,6.8,9.9,11.3c2.6,4.6,3.8,9.7,4.6,14.9C224.3,64.7,224.3,65.1,224.3,65.5z"/>
				<path fill="#FFFFFF" d="M157.9,62.1c1.1-1.8,0.9-4,1.6-5.9c2.6-7.8,7.1-14.2,13.8-18.9c3.4-2.4,7-3.4,10.7-1
				c3.8,2.4,4.7,6.4,4.4,10.6c-0.6,10-6.2,17.4-12.8,24.3c-3.1,3.2-6.6,6.1-10.3,8.7c-1.3,0.9-2.2,0.8-2.8-0.6
				c-0.2-0.4-0.5-0.8-0.7-1.2c-3-5.4-3-5.7,1.8-9.4c7-5.5,12.6-12,15.6-20.5c0.3-0.7,1.1-1.6,0.3-2.3s-1.6,0.3-2.2,0.7
				c-7.1,4-12.3,10-17,16.5c-0.6,0.9-1,2.1-2.4,2C157.9,64,157.9,63,157.9,62.1z"/>
				<path fill="#FFFFFF" d="M207.2,92.7c-7.3,4.9-15.3,5.4-23.5,3.9c-2.8-0.5-5.5-1.3-8-2.6c-7.8-3.9-8.3-11.5-1.2-16.6
				c3.5-2.5,7.6-3.7,11.8-4c10.6-0.8,20.6,1.7,30.2,6.1c1.9,0.9,1.9,1.7,0.9,3.3c-3.7,6.1-3.6,6.2-10.1,3.7c-7.9-3-16-4.7-24.5-3.2
				c-0.9,0.2-2.4-0.2-2.6,1.1c-0.2,1,1.2,1.3,2,1.7c7.3,4.3,15.4,5.5,23.7,6.3C206.3,92.6,206.8,92.7,207.2,92.7z"/>
			</g>
		</g>
	</g>
</svg>