<?xml version="1.0" encoding="utf-8"?>
<!-- Generator: Adobe Illustrator 17.0.0, SVG Export Plug-In . SVG Version: 6.00 Build 0)  -->
<!DOCTYPE svg PUBLIC "-//W3C//DTD SVG 1.1//EN" "http://www.w3.org/Graphics/SVG/1.1/DTD/svg11.dtd">
<svg version="1.1" id="Layer_1" xmlns="http://www.w3.org/2000/svg" xmlns:xlink="http://www.w3.org/1999/xlink" x="0px" y="0px"
	 width="256px" height="256px" viewBox="0 0 256 256" enable-background="new 0 0 256 256" xml:space="preserve">
	<polygon fill="#FFFF00" points="128,188.6 53.1,243.2 82,155.1 6.8,100.8 99.5,101 128,12.8 156.5,101 249.2,100.8 174,155.1 
	202.9,243.2 "/>
	<path fill="#FFFFFF" d="M192,10.3c-17.1,0-32.4,8-42.3,20.6h-0.3v0.3c-7.1,9.1-11.4,20.6-11.4,33c0,29.7,24.2,53.9,53.9,53.9
	s53.9-24.2,53.9-53.9S221.7,10.3,192,10.3z"/>
	<path d="M192,10.3c-17.1,0-32.4,8-42.3,20.6h-0.3v0.3c-7.1,9.1-11.4,20.6-11.4,33c0,29.7,24.2,53.9,53.9,53.9s53.9-24.2,53.9-53.9
	S221.7,10.3,192,10.3z M208.6,100.9l-23.1-3L183.7,78l17.6-10.7L217,82.4L208.6,100.9z M171.2,103.3L151.9,89l-2.1-14.7l11.8-7.4
	L181.5,78l1.9,20.2L171.2,103.3z M149.1,72.2L142,57.4l9.3-15.3l9.7,2l-0.2,20.8L149.1,72.2z M188.3,19l21.3,2.9l7.3,13.6l-16.1,7.9
	l-16.5-11.5L188.3,19z M231.4,74.4l-12.6,6.7l-16.9-16.2l0.2-19.7l16-7.9L232.3,50L231.4,74.4z M233.5,74.9l1-24.5l7.1-0.9
	c1.4,4.7,2.1,9.6,2.1,14.7c0,4.6-0.6,9-1.7,13.2L233.5,74.9z M240.9,47.4l-7.1,0.9l-14.6-13.1L212,21.9l6.1-2.4
	C228.7,25.7,236.9,35.6,240.9,47.4z M178.8,14.2l7.4,4.1L182,32.1L162.3,42l-10.5-2.1l-0.2-8.1C158.5,23.4,167.9,17,178.8,14.2z
	 M149.7,40.5l-8.5,14.1c1.4-7.3,4.3-14.1,8.4-20L149.7,40.5z M140.5,59.2l7.1,14.9l2.1,14.8l-2.9,0.4c-4.1-7.4-6.5-16-6.5-25.1
	C140.3,62.5,140.4,60.8,140.5,59.2z M172.4,112.1l-0.2-6.8l12.5-5.3l23.9,3.1l4.4,8.4c-6.4,2.9-13.5,4.5-21,4.5
	C185.1,115.9,178.5,114.5,172.4,112.1z"/>
	<g>
		<path fill="none" stroke="#000000" stroke-width="3" stroke-miterlimit="10" d="M157.6,137"/>
		<path fill="#FF0000" d="M157.6,137"/>
	</g>
	<g>
		<path fill="#FFFFFF" d="M212.832,171.611c20.102-10.288,33.363-32.365,34.123-35.697c0.76-3.332-0.55-4.063-2.894-6.471
		c-2.344-2.408-7.025-0.462-7.025-0.462s-21.02,17.677-30.873,24.661c-9.938,7.096-51.786,18.509-57.424,21.593
		s-44.898,16.467-51.397,25.117c0.065,2.716-1.726,9.618,5.159,6.063C109.387,202.86,179.684,188.406,212.832,171.611z"/>
		<g>
			<path fill="none" stroke="#000000" stroke-width="3" stroke-miterlimit="10" d="M183.605,144.282
			c3.329-0.753,6.05-1.525,8.104-2.005c4.379-1.198,9.425-2.688,16.088-4.901c8.777-3.004,18.474-8.15,22.087-9.043
			c6.347-1.565,12.331,0.148,12.331,0.148c2.925,2.228-21.014,20.704-26.761,25.215c-14.794,11.487-61.425,23.345-94.988,37.068
			c-11.958,4.847-17.156,9.687-17.156,9.687s9.245-3.269,15.791-4.861c14.538-3.682,78.042-17.621,94.312-27.895
			c21.002-13.336,31.394-31.997,31.447-35.335c5.162,7.576,1.705,14.099-1.326,18.545c-3.045,4.347-0.529,6.53-1.783,7.709
			c-0.699,0.801-4.296-0.428-7.304,2.703c-3.007,3.131-4.06,5.797-7.761,9.022c-3.714,3.126-0.642,6.444-2.996,9.185
			c-2.367,2.641-5.119-2.032-8.656,0.162c-3.524,2.293-5.544,3.777-11.703,6.73c-6.061,2.939-2.273,7.068-4.63,8.296
			c-2.231,1.412-6.643-4.349-11.284-2.106c-4.641,2.242-22.566,14.456-28.717,18.214c-6.251,3.772-1.067,12.254-3.033,14.134
			c-1.253,1.179-5.609-2.672-9.554-2.744c-2.319,0.011-4.524,1.621-6.773,3.641c-6.023,5.457-0.548,10.872-3.135,12.634
			s-4.529-1.406-9.158-2.798s-8.482,1.45-13.414-2.928C89.93,211.95,93.54,188.656,93.54,188.656
			c1.62-2.944,2.619-2.272,7.392-1.303c4.76,0.87,12.902,1.383,18.761-3.043c5.761-4.412,11.772-15.922,11.088-20.976
			s-2.184-8.686,4.423-9.075c2.702-0.164,10.689-1.547,19.924-3.402l4.221-0.874C161.747,149.055,161.747,149.055,183.605,144.282z"
			/>
			<path fill="#3F9500" d="M183.605,144.282c3.329-0.753,6.05-1.525,8.104-2.005c4.379-1.198,9.425-2.688,16.088-4.901
			c8.777-3.004,18.474-8.15,22.087-9.043c6.347-1.565,12.331,0.148,12.331,0.148c2.925,2.228-21.014,20.704-26.761,25.215
			c-14.794,11.487-61.425,23.345-94.988,37.068c-11.958,4.847-17.156,9.687-17.156,9.687s9.245-3.269,15.791-4.861
			c14.538-3.682,78.042-17.621,94.312-27.895c21.002-13.336,31.394-31.997,31.447-35.335c5.162,7.576,1.705,14.099-1.326,18.545
			c-3.045,4.347-0.529,6.53-1.783,7.709c-0.699,0.801-4.296-0.428-7.304,2.703c-3.007,3.131-4.06,5.797-7.761,9.022
			c-3.714,3.126-0.642,6.444-2.996,9.185c-2.367,2.641-5.119-2.032-8.656,0.162c-3.524,2.293-5.544,3.777-11.703,6.73
			c-6.061,2.939-2.273,7.068-4.63,8.296c-2.231,1.412-6.643-4.349-11.284-2.106c-4.641,2.242-22.566,14.456-28.717,18.214
			c-6.251,3.772-1.067,12.254-3.033,14.134c-1.253,1.179-5.609-2.672-9.554-2.744c-2.319,0.011-4.524,1.621-6.773,3.641
			c-6.023,5.457-0.548,10.872-3.135,12.634s-4.529-1.406-9.158-2.798s-8.482,1.45-13.414-2.928
			C89.93,211.95,93.54,188.656,93.54,188.656c1.62-2.944,2.619-2.272,7.392-1.303c4.76,0.87,12.902,1.383,18.761-3.043
			c5.761-4.412,11.772-15.922,11.088-20.976s-2.184-8.686,4.423-9.075c2.702-0.164,10.689-1.547,19.924-3.402l4.221-0.874
			C161.747,149.055,161.747,149.055,183.605,144.282z"/>
		</g>
		<g>
			<g>
				<g>
					<path fill="none" stroke="#1D1D1B" stroke-width="3" d="M155.214,164.167c-0.198,0.027-0.396,0.054-0.608-0.019
					c-1.045-0.262-1.787-1.272-1.623-2.303l2.853-14.715c0.262-1.045,1.272-1.787,2.303-1.623c1.045,0.262,1.787,1.272,1.623,2.303
					l-2.853,14.715C156.733,163.457,156.007,164.06,155.214,164.167z"/>
				</g>
				<g>
					<path fill="none" stroke="#1D1D1B" stroke-width="3" d="M164.293,160.416c-0.198,0.027-0.396,0.054-0.608-0.019
					c-1.045-0.262-1.787-1.272-1.623-2.303l2.237-11.807c0.262-1.045,1.272-1.787,2.303-1.623c1.045,0.262,1.787,1.272,1.623,2.303
					l-2.237,11.807C165.812,159.706,165.086,160.309,164.293,160.416z"/>
				</g>
				<g>
					<path fill="none" stroke="#1D1D1B" stroke-width="3" d="M171.907,157.772c-0.198,0.027-0.396,0.054-0.608-0.019
					c-1.045-0.262-1.787-1.272-1.623-2.303l2.12-11.185c0.262-1.045,1.272-1.787,2.303-1.623c1.045,0.262,1.787,1.272,1.623,2.303
					l-2.12,11.185C173.426,157.062,172.7,157.665,171.907,157.772z"/>
				</g>
				<g>
					<path fill="none" stroke="#1D1D1B" stroke-width="3" d="M180.483,153.282c-0.198,0.027-0.396,0.054-0.608-0.019
					c-1.045-0.262-1.787-1.272-1.623-2.303l1.721-8.911c0.262-1.045,1.272-1.787,2.303-1.623c1.045,0.262,1.787,1.272,1.623,2.303
					l-1.721,8.911C182.001,152.572,181.276,153.174,180.483,153.282z"/>
				</g>
			</g>
			<g>
				<g>
					<path fill="#FFFF00" d="M155.214,164.167c-0.198,0.027-0.396,0.054-0.608-0.019c-1.045-0.262-1.787-1.272-1.623-2.303
					l2.853-14.715c0.262-1.045,1.272-1.787,2.303-1.623c1.045,0.262,1.787,1.272,1.623,2.303l-2.853,14.715
					C156.733,163.457,156.007,164.06,155.214,164.167z"/>
				</g>
				<g>
					<path fill="#FFFF00" d="M164.293,160.416c-0.198,0.027-0.396,0.054-0.608-0.019c-1.045-0.262-1.787-1.272-1.623-2.303
					l2.237-11.807c0.262-1.045,1.272-1.787,2.303-1.623c1.045,0.262,1.787,1.272,1.623,2.303l-2.237,11.807
					C165.812,159.706,165.086,160.309,164.293,160.416z"/>
				</g>
				<g>
					<path fill="#FFFF00" d="M171.907,157.772c-0.198,0.027-0.396,0.054-0.608-0.019c-1.045-0.262-1.787-1.272-1.623-2.303
					l2.12-11.185c0.262-1.045,1.272-1.787,2.303-1.623c1.045,0.262,1.787,1.272,1.623,2.303l-2.12,11.185
					C173.426,157.062,172.7,157.665,171.907,157.772z"/>
				</g>
				<g>
					<path fill="#FFFF00" d="M180.483,153.282c-0.198,0.027-0.396,0.054-0.608-0.019c-1.045-0.262-1.787-1.272-1.623-2.303
					l1.721-8.911c0.262-1.045,1.272-1.787,2.303-1.623c1.045,0.262,1.787,1.272,1.623,2.303l-1.721,8.911
					C182.001,152.572,181.276,153.174,180.483,153.282z"/>
				</g>
			</g>
		</g>
	</g>
	<g>
		<path fill="#F0F0F0" d="M232.2,65.4c0-5-0.9-9.7-2.5-14.1l-38-1.8l-38,1.8c-1.6,4.4-2.5,9.1-2.5,14.1s0.9,9.7,2.5,14.1l38,1.8
		l38-1.8C231.3,75.1,232.2,70.3,232.2,65.4z"/>
		<path fill="#0052B4" d="M191.6,105.9c17.4,0,32.3-11,38-26.5h-76.1C159.3,94.9,174.2,105.9,191.6,105.9z"/>
		<path fill="#D80027" d="M153.6,51.3h76.1c-5.7-15.4-20.6-26.5-38-26.5C174.2,24.8,159.3,35.8,153.6,51.3z"/>
		<polygon fill="#338AF3" points="202.2,53 195.1,53 196.3,44.2 201,40.7 205.7,44.2 205.7,51.3 	"/>
		<polygon fill="#338AF3" points="181,53 188.1,53 186.9,44.2 182.2,40.7 177.5,44.2 177.5,51.3 	"/>
		<polygon fill="#0052B4" points="196.3,53 186.9,53 186.9,44.2 191.6,40.7 196.3,44.2 	"/>
		<path fill="#F0F0F0" d="M177.5,51.3v19.4c0,4.6,2.2,8.7,5.7,11.3l2.5-0.6l3.1,3.1c0.9,0.2,1.9,0.3,2.9,0.3s1.9-0.1,2.8-0.3l3.6-3
		l2,0.4c3.4-2.6,5.7-6.7,5.7-11.3V51.3H177.5z"/>
		<rect x="177.5" y="51.3" fill="#D80027" width="5.6" height="5.6"/>
		<rect x="188.8" y="51.3" fill="#D80027" width="5.6" height="5.6"/>
		<rect x="200.1" y="51.3" fill="#D80027" width="5.6" height="5.6"/>
		<rect x="183.1" y="56.9" fill="#D80027" width="5.6" height="5.6"/>
		<rect x="194.4" y="56.9" fill="#D80027" width="5.6" height="5.6"/>
		<rect x="177.5" y="62.6" fill="#D80027" width="5.6" height="5.6"/>
		<rect x="183.1" y="68.2" fill="#D80027" width="5.6" height="5.6"/>
		<rect x="188.8" y="62.6" fill="#D80027" width="5.6" height="5.6"/>
		<rect x="200.1" y="62.6" fill="#D80027" width="5.6" height="5.6"/>
		<rect x="194.4" y="68.2" fill="#D80027" width="5.6" height="5.6"/>
		<rect x="188.8" y="73.8" fill="#D80027" width="5.6" height="5.6"/>
		<path fill="#D80027" d="M183.1,73.8h-5.3c0.5,2.1,1.4,4,2.7,5.6h2.5v-5.6H183.1z"/>
		<path fill="#D80027" d="M200.1,79.5h2.5c1.3-1.6,2.3-3.5,2.7-5.6H200v5.6H200.1z"/>
		<path fill="#D80027" d="M183.1,79.5V82c1.6,1.2,3.6,2.1,5.6,2.5v-5H183.1z"/>
		<path fill="#D80027" d="M194.4,79.5v5c2.1-0.4,4-1.3,5.6-2.5v-2.5H194.4z"/>
	</g>
	<ellipse fill="none" stroke="#000000" stroke-width="1.4754" stroke-miterlimit="10" cx="191.6" cy="65.2" rx="40.8" ry="40.6"/>
	<g>
		<path d="M20.623,127.833v-17.188h2.617v7.91l2.617-7.91h2.705l-2.852,8.477l3.076,8.711h-2.764l-2.764-8.027v8.027H20.623z"/>
		<path d="M33.552,119.757l-0.84-0.039v8.115h-2.617v-17.188h4.326c0.898,0,1.569,0.181,2.012,0.542s0.734,0.866,0.874,1.514
		s0.21,1.494,0.21,2.539s-0.111,1.841-0.332,2.388s-0.631,0.915-1.23,1.104c0.592,0.104,1.006,0.504,1.24,1.201
		s0.352,2.147,0.352,4.351s0.033,3.387,0.098,3.55h-2.617c-0.065-0.13-0.098-2.184-0.098-6.162c0-0.762-0.091-1.268-0.273-1.519
		S34.105,119.771,33.552,119.757z M32.722,117.687h1.045c0.332,0,0.578-0.075,0.737-0.225s0.27-0.407,0.332-0.771
		s0.093-0.921,0.093-1.67v-0.107c0-0.931-0.078-1.54-0.234-1.826s-0.518-0.43-1.084-0.43h-0.889
		C32.722,112.658,32.722,117.687,32.722,117.687z"/>
		<path d="M46.443,126.789c-0.599,0.827-1.558,1.24-2.876,1.24s-2.285-0.415-2.9-1.245s-0.923-2.082-0.923-3.755v-7.861
		c0-3.151,1.286-4.727,3.857-4.727c1.328,0,2.284,0.4,2.866,1.201s0.874,1.976,0.874,3.525v7.861
		C47.341,124.708,47.042,125.962,46.443,126.789z M42.61,125.167c0.153,0.397,0.467,0.596,0.942,0.596s0.788-0.204,0.938-0.61
		s0.225-1.105,0.225-2.095v-8.008c0-0.814-0.077-1.408-0.229-1.782s-0.453-0.562-0.898-0.562s-0.758,0.187-0.938,0.562
		s-0.269,0.965-0.269,1.772v8.018C42.38,124.067,42.457,124.771,42.61,125.167z"/>
		<path d="M48.933,127.833l2.451-17.188h3.457l2.607,17.188h-2.441l-0.41-3.066h-2.773l-0.371,3.066
		C51.453,127.833,48.933,127.833,48.933,127.833z M54.324,122.667l-1.152-8.633h-0.039l-1.055,8.633H54.324z"/>
		<path d="M59.939,127.833v-14.922h-2.012v-2.266h6.553v2.266h-1.934v14.922H59.939z"/>
		<path d="M66.023,127.833v-17.188h2.617v17.188C68.64,127.833,66.023,127.833,66.023,127.833z"/>
		<path d="M70.974,123v-1.533h2.48v1.729c0,0.957,0.082,1.629,0.244,2.017s0.469,0.581,0.918,0.581s0.747-0.16,0.894-0.479
		s0.22-0.84,0.22-1.562s-0.13-1.353-0.391-1.89s-0.674-1.099-1.24-1.685l-1.27-1.309c-0.592-0.619-1.053-1.26-1.382-1.924
		s-0.493-1.432-0.493-2.305c0-1.419,0.273-2.474,0.82-3.164s1.488-1.035,2.822-1.035s2.238,0.402,2.71,1.206
		s0.708,1.978,0.708,3.521v1.064h-2.412v-1.23c0-0.833-0.072-1.431-0.215-1.792s-0.418-0.542-0.825-0.542s-0.7,0.137-0.879,0.41
		s-0.269,0.684-0.269,1.23s0.091,0.983,0.273,1.309s0.511,0.742,0.986,1.25l1.416,1.533c0.709,0.768,1.245,1.546,1.606,2.334
		s0.542,1.647,0.542,2.578c0,1.608-0.27,2.796-0.811,3.564s-1.486,1.152-2.837,1.152s-2.292-0.428-2.822-1.284
		S70.974,124.64,70.974,123z"/>
		<path d="M86.521,126.833c-0.592,0.797-1.523,1.196-2.793,1.196s-2.218-0.425-2.847-1.274s-0.942-2.072-0.942-3.667v-7.49
		c0-2.559,0.67-4.157,2.012-4.795c0.495-0.234,1.094-0.352,1.797-0.352c2.416,0,3.623,1.523,3.623,4.57v2.363h-2.529v-2.197
		c0-0.885-0.075-1.519-0.225-1.899s-0.443-0.571-0.879-0.571s-0.739,0.202-0.908,0.605s-0.254,1.022-0.254,1.855v8.027
		c0,0.924,0.082,1.585,0.244,1.982s0.459,0.596,0.889,0.596s0.726-0.202,0.889-0.605s0.244-1.071,0.244-2.002v-2.461h2.568v2.432
		C87.41,124.806,87.113,126.035,86.521,126.833z"/>
		<path d="M89.539,127.833v-17.188h2.617v6.953H94.5v-6.953h2.617v17.188H94.5v-7.988h-2.344v7.988
		C92.156,127.833,89.539,127.833,89.539,127.833z"/>
		<path d="M99.695,127.833v-17.188h5.762v2.256h-3.145v5h2.988v2.207h-2.988v5.469h3.262v2.256H99.695z"/>
		<path d="M111.121,119.757l-0.84-0.039v8.115h-2.617v-17.188h4.326c0.898,0,1.569,0.181,2.012,0.542s0.734,0.866,0.874,1.514
		s0.21,1.494,0.21,2.539s-0.111,1.841-0.332,2.388s-0.631,0.915-1.23,1.104c0.592,0.104,1.006,0.504,1.24,1.201
		s0.352,2.147,0.352,4.351s0.033,3.387,0.098,3.55h-2.617c-0.065-0.13-0.098-2.184-0.098-6.162c0-0.762-0.091-1.268-0.273-1.519
		S111.674,119.771,111.121,119.757z M110.291,117.687h1.045c0.332,0,0.578-0.075,0.737-0.225s0.27-0.407,0.332-0.771
		s0.093-0.921,0.093-1.67v-0.107c0-0.931-0.078-1.54-0.234-1.826s-0.518-0.43-1.084-0.43h-0.889V117.687z"/>
		<path d="M20.613,151.833v-17.188h5.898v2.275H23.23v4.57h3.047v2.285H23.23v8.057L20.613,151.833L20.613,151.833z"/>
		<path d="M34.978,150.91c-0.599,0.746-1.561,1.118-2.886,1.118s-2.289-0.374-2.891-1.123c-0.602-0.748-0.903-1.91-0.903-3.486
		v-12.783h2.617v12.734c0,0.905,0.042,1.455,0.127,1.65s0.187,0.373,0.308,0.532c0.121,0.16,0.37,0.239,0.747,0.239
		s0.648-0.11,0.811-0.332c0.163-0.221,0.262-0.496,0.298-0.825c0.036-0.328,0.054-0.75,0.054-1.265v-12.734h2.617v12.783
		C35.876,149.001,35.577,150.165,34.978,150.91z"/>
		<path d="M38.015,146.999v-1.533h2.48v1.729c0,0.957,0.082,1.63,0.244,2.017c0.163,0.388,0.469,0.581,0.918,0.581
		s0.747-0.159,0.894-0.479c0.146-0.318,0.22-0.84,0.22-1.562s-0.13-1.353-0.391-1.89s-0.674-1.099-1.24-1.685l-1.27-1.309
		c-0.592-0.618-1.053-1.26-1.382-1.924s-0.493-1.432-0.493-2.305c0-1.419,0.273-2.474,0.82-3.164
		c0.547-0.689,1.488-1.035,2.822-1.035s2.238,0.402,2.71,1.206c0.472,0.805,0.708,1.978,0.708,3.521v1.064h-2.412v-1.23
		c0-0.833-0.072-1.431-0.215-1.792s-0.418-0.542-0.825-0.542s-0.7,0.137-0.879,0.41s-0.269,0.684-0.269,1.23
		s0.091,0.983,0.273,1.309s0.511,0.742,0.986,1.25l1.416,1.533c0.709,0.769,1.245,1.547,1.606,2.334
		c0.361,0.788,0.542,1.647,0.542,2.578c0,1.608-0.27,2.797-0.811,3.564c-0.541,0.769-1.486,1.152-2.837,1.152
		s-2.292-0.428-2.822-1.284C38.28,149.889,38.015,148.64,38.015,146.999z"/>
		<path d="M46.853,146.999v-1.533h2.48v1.729c0,0.957,0.082,1.63,0.244,2.017c0.163,0.388,0.469,0.581,0.918,0.581
		s0.747-0.159,0.894-0.479c0.146-0.318,0.22-0.84,0.22-1.562s-0.13-1.353-0.391-1.89s-0.674-1.099-1.24-1.685l-1.27-1.309
		c-0.592-0.618-1.053-1.26-1.382-1.924s-0.493-1.432-0.493-2.305c0-1.419,0.273-2.474,0.82-3.164
		c0.547-0.689,1.488-1.035,2.822-1.035s2.238,0.402,2.71,1.206c0.472,0.805,0.708,1.978,0.708,3.521v1.064h-2.412v-1.23
		c0-0.833-0.072-1.431-0.215-1.792s-0.418-0.542-0.825-0.542s-0.7,0.137-0.879,0.41s-0.269,0.684-0.269,1.23
		s0.091,0.983,0.273,1.309s0.511,0.742,0.986,1.25l1.416,1.533c0.709,0.769,1.245,1.547,1.606,2.334
		c0.361,0.788,0.542,1.647,0.542,2.578c0,1.608-0.27,2.797-0.811,3.564c-0.541,0.769-1.486,1.152-2.837,1.152
		s-2.292-0.428-2.822-1.284C47.118,149.889,46.853,148.64,46.853,146.999z"/>
		<path d="M63.386,139.06c0,1.85-0.501,2.985-1.504,3.408c1.224,0.41,1.836,1.762,1.836,4.053v0.439
		c-0.013,1.726-0.314,2.969-0.903,3.73s-1.551,1.143-2.886,1.143H56.13v-17.188h3.721c1.283,0,2.191,0.298,2.725,0.894
		s0.804,1.594,0.811,2.993L63.386,139.06L63.386,139.06z M58.748,141.599h0.967c0.449,0,0.744-0.143,0.884-0.43
		c0.14-0.286,0.21-0.875,0.21-1.768v-1.035c-0.006-0.664-0.098-1.108-0.273-1.333s-0.479-0.337-0.908-0.337h-0.879L58.748,141.599
		L58.748,141.599z M58.748,149.802h0.928c0.521,0,0.885-0.179,1.094-0.537c0.208-0.357,0.312-0.999,0.312-1.924v-1.387
		c0-0.872-0.084-1.489-0.254-1.851s-0.495-0.542-0.977-0.542h-1.104L58.748,149.802L58.748,149.802z"/>
		<path d="M64.978,151.833l2.451-17.188h3.457l2.607,17.188h-2.441l-0.41-3.066h-2.773l-0.371,3.066H64.978z M70.369,146.667
		l-1.152-8.633h-0.039l-1.055,8.633H70.369z"/>
		<path d="M75.291,151.833v-17.188h2.617v14.961h3.311v2.227H75.291z"/>
		<path d="M82.722,151.833v-17.188h2.617v14.961h3.311v2.227H82.722z"/>
		<path d="M90.154,151.833v-17.188h5.762v2.256h-3.145v5h2.988v2.207h-2.988v5.469h3.262v2.256L90.154,151.833L90.154,151.833z"/>
		<path d="M101.58,143.757l-0.84-0.039v8.115h-2.617v-17.188h4.326c0.898,0,1.569,0.181,2.012,0.542s0.734,0.866,0.874,1.514
		c0.14,0.648,0.21,1.494,0.21,2.539s-0.111,1.841-0.332,2.388s-0.631,0.915-1.23,1.104c0.592,0.104,1.006,0.505,1.24,1.201
		c0.234,0.697,0.352,2.147,0.352,4.351s0.033,3.388,0.098,3.55h-2.617c-0.065-0.13-0.098-2.184-0.098-6.162
		c0-0.762-0.091-1.268-0.273-1.519C102.501,143.902,102.133,143.771,101.58,143.757z M100.75,141.687h1.045
		c0.332,0,0.578-0.074,0.737-0.225c0.16-0.149,0.27-0.406,0.332-0.771c0.062-0.364,0.093-0.921,0.093-1.67v-0.107
		c0-0.931-0.078-1.539-0.234-1.826c-0.156-0.286-0.518-0.43-1.084-0.43h-0.889V141.687z"/>
		<path d="M20.613,175.833v-17.188h3.857c1.263,0,2.179,0.373,2.749,1.118c0.57,0.746,0.854,1.845,0.854,3.296l0.01,7.754
		c0,1.732-0.287,3.002-0.859,3.809c-0.573,0.808-1.52,1.211-2.842,1.211H20.613z M23.23,173.802h0.859
		c0.482,0,0.832-0.156,1.05-0.469s0.327-0.885,0.327-1.719l-0.01-8.486c0-0.892-0.109-1.526-0.327-1.904
		c-0.218-0.377-0.594-0.566-1.128-0.566H23.23V173.802z"/>
		<path d="M30.437,175.833v-17.188h5.762v2.256h-3.145v5h2.988v2.207h-2.988v5.469h3.262v2.256L30.437,175.833L30.437,175.833z"/>
		<path d="M38.064,170.999v-1.533h2.48v1.729c0,0.957,0.082,1.63,0.244,2.017c0.163,0.388,0.469,0.581,0.918,0.581
		s0.747-0.159,0.894-0.479c0.146-0.318,0.22-0.84,0.22-1.562s-0.13-1.353-0.391-1.89s-0.674-1.099-1.24-1.685l-1.27-1.309
		c-0.592-0.618-1.053-1.26-1.382-1.924s-0.493-1.432-0.493-2.305c0-1.419,0.273-2.474,0.82-3.164
		c0.547-0.689,1.488-1.035,2.822-1.035s2.238,0.402,2.71,1.206c0.472,0.805,0.708,1.978,0.708,3.521v1.064h-2.412v-1.23
		c0-0.833-0.072-1.431-0.215-1.792s-0.418-0.542-0.825-0.542s-0.7,0.137-0.879,0.41s-0.269,0.684-0.269,1.23
		s0.091,0.983,0.273,1.309s0.511,0.742,0.986,1.25l1.416,1.533c0.709,0.769,1.245,1.547,1.606,2.334
		c0.361,0.788,0.542,1.647,0.542,2.578c0,1.608-0.27,2.797-0.811,3.564c-0.541,0.769-1.486,1.152-2.837,1.152
		s-2.292-0.428-2.822-1.284C38.329,173.889,38.064,172.64,38.064,170.999z"/>
		<path d="M56.365,174.881c-0.619,0.766-1.489,1.147-2.612,1.147s-1.996-0.34-2.617-1.021c-0.622-0.68-0.933-1.671-0.933-2.974
		v-3.066h2.529v2.939c0,0.951,0.153,1.53,0.459,1.738c0.137,0.092,0.306,0.137,0.508,0.137c0.397,0,0.659-0.162,0.786-0.488
		c0.127-0.325,0.19-0.84,0.19-1.543v-13.105h2.617v12.979C57.292,173.03,56.983,174.116,56.365,174.881z"/>
		<path d="M58.992,175.833l2.451-17.188H64.9l2.607,17.188h-2.441l-0.41-3.066h-2.773l-0.371,3.066H58.992z M64.382,170.667
		l-1.152-8.633h-0.039l-1.055,8.633H64.382z"/>
		<path d="M69.304,175.833v-17.188h2.617v6.953h2.344v-6.953h2.617v17.188h-2.617v-7.988h-2.344v7.988H69.304z"/>
		<path d="M82.917,167.757l-0.84-0.039v8.115H79.46v-17.188h4.326c0.898,0,1.569,0.181,2.012,0.542s0.734,0.866,0.874,1.514
		c0.14,0.648,0.21,1.494,0.21,2.539s-0.111,1.841-0.332,2.388s-0.631,0.915-1.23,1.104c0.592,0.104,1.006,0.505,1.24,1.201
		c0.234,0.697,0.352,2.147,0.352,4.351s0.033,3.388,0.098,3.55h-2.617c-0.065-0.13-0.098-2.184-0.098-6.162
		c0-0.762-0.091-1.268-0.273-1.519C83.839,167.902,83.471,167.771,82.917,167.757z M82.087,165.687h1.045
		c0.332,0,0.578-0.074,0.737-0.225c0.16-0.149,0.27-0.406,0.332-0.771c0.062-0.364,0.093-0.921,0.093-1.67v-0.107
		c0-0.931-0.078-1.539-0.234-1.826c-0.156-0.286-0.518-0.43-1.084-0.43h-0.889V165.687z"/>
		<path d="M89.324,175.833v-17.188h5.762v2.256h-3.145v5h2.988v2.207h-2.988v5.469h3.262v2.256L89.324,175.833L89.324,175.833z"/>
		<path d="M96.951,170.999v-1.533h2.48v1.729c0,0.957,0.082,1.63,0.244,2.017c0.163,0.388,0.469,0.581,0.918,0.581
		s0.747-0.159,0.894-0.479c0.146-0.318,0.22-0.84,0.22-1.562s-0.13-1.353-0.391-1.89s-0.674-1.099-1.24-1.685l-1.27-1.309
		c-0.592-0.618-1.053-1.26-1.382-1.924s-0.493-1.432-0.493-2.305c0-1.419,0.273-2.474,0.82-3.164
		c0.547-0.689,1.488-1.035,2.822-1.035s2.238,0.402,2.71,1.206c0.472,0.805,0.708,1.978,0.708,3.521v1.064h-2.412v-1.23
		c0-0.833-0.072-1.431-0.215-1.792s-0.418-0.542-0.825-0.542s-0.7,0.137-0.879,0.41s-0.269,0.684-0.269,1.23
		s0.091,0.983,0.273,1.309s0.511,0.742,0.986,1.25l1.416,1.533c0.709,0.769,1.245,1.547,1.606,2.334
		c0.361,0.788,0.542,1.647,0.542,2.578c0,1.608-0.27,2.797-0.811,3.564c-0.541,0.769-1.486,1.152-2.837,1.152
		s-2.292-0.428-2.822-1.284C97.216,173.889,96.951,172.64,96.951,170.999z"/>
	</g>
</svg>