<?xml version="1.0" encoding="utf-8"?>
<!-- Generator: Adobe Illustrator 17.0.0, SVG Export Plug-In . SVG Version: 6.00 Build 0)  -->
<!DOCTYPE svg PUBLIC "-//W3C//DTD SVG 1.1//EN" "http://www.w3.org/Graphics/SVG/1.1/DTD/svg11.dtd">
<svg version="1.1" id="Layer_1" xmlns="http://www.w3.org/2000/svg" xmlns:xlink="http://www.w3.org/1999/xlink" x="0px" y="0px"
	 width="256px" height="256px" viewBox="0 0 256 256" enable-background="new 0 0 256 256" xml:space="preserve">
	<g>
		<path fill="#FFFFFF" d="M192,10.3c-17.1,0-32.4,8-42.3,20.6h-0.3v0.3c-7.1,9.1-11.4,20.6-11.4,33c0,29.7,24.2,53.9,53.9,53.9
		s53.9-24.2,53.9-53.9S221.7,10.3,192,10.3z"/>
		<path d="M192,10.3c-17.1,0-32.4,8-42.3,20.6h-0.3v0.3c-7.1,9.1-11.4,20.6-11.4,33c0,29.7,24.2,53.9,53.9,53.9s53.9-24.2,53.9-53.9
		S221.7,10.3,192,10.3z M208.6,100.9l-23.1-3L183.7,78l17.6-10.7L217,82.4L208.6,100.9z M171.2,103.3L151.9,89l-2.1-14.7l11.8-7.4
		L181.5,78l1.9,20.2L171.2,103.3z M149.1,72.2L142,57.4l9.3-15.3l9.7,2l-0.2,20.8L149.1,72.2z M188.3,19l21.3,2.9l7.3,13.6
		l-16.1,7.9l-16.5-11.5L188.3,19z M231.4,74.4l-12.6,6.7l-16.9-16.2l0.2-19.7l16-7.9L232.3,50L231.4,74.4z M233.5,74.9l1-24.5
		l7.1-0.9c1.4,4.7,2.1,9.6,2.1,14.7c0,4.6-0.6,9-1.7,13.2L233.5,74.9z M240.9,47.4l-7.1,0.9l-14.6-13.1L212,21.9l6.1-2.4
		C228.7,25.7,236.9,35.6,240.9,47.4z M178.8,14.2l7.4,4.1L182,32.1L162.3,42l-10.5-2.1l-0.2-8.1C158.5,23.4,167.9,17,178.8,14.2z
		 M149.7,40.5l-8.5,14.1c1.4-7.3,4.3-14.1,8.4-20L149.7,40.5z M140.5,59.2l7.1,14.9l2.1,14.8l-2.9,0.4c-4.1-7.4-6.5-16-6.5-25.1
		C140.3,62.5,140.4,60.8,140.5,59.2z M172.4,112.1l-0.2-6.8l12.5-5.3l23.9,3.1l4.4,8.4c-6.4,2.9-13.5,4.5-21,4.5
		C185.1,115.9,178.5,114.5,172.4,112.1z"/>
	</g>
	<g>
		<path fill="#FCFF00" stroke="#000000" stroke-miterlimit="10" d="M181.7,112c-0.3-0.4-0.8-0.5-1.3-0.5h-7.9c0.1,0,0.1-0.8,0.1-0.9
		c1.1,0,0.2-1.1,0.2-1.1H83.2c0,0-0.9,1.1,0.2,1.1c0,0.1,0,0.9,0.1,0.9h-7.9c-0.5,0-1,0.1-1.3,0.5s-0.4,0.8-0.3,1.3l11.3,50.6
		c0.2,0.7,0.8,1.6,1.6,1.6h9.4c0.4,0,0.9-0.5,1.2-0.8c0.3-0.3,0.5-0.9,0.5-1.3c0-0.2,0-17.2,9.1-20.3c0.2,0.9,1.1,1.6,2.1,1.6
		c1.2,0,2.2-1,2.2-2.2c0-0.1,0-0.2,0-0.4c2.8,1.2,6,2.3,9.4,3.2l0.1,2.1c0,0-2.5,0.3-2.5,2.7s3.2,3.4,3.2,3.4h1.9v10.7
		c0,0,1.1,0.9,0.2,1.3c-0.9,0.4-6.4,2.4-6.6,6.1c-0.2,3.7-1.4,31.9-7.3,42.9c-1.5,0-2.3,0-2.3,0v4h-4v25c0,0-1.1,0-2,0
		c-2.4,0-3,11-3,11h59c0,0-0.7-11-3-11c-0.9,0-3,0-3,0v-25h-3v-4c0,0-0.8,0-2.3,0c-5.9-11-7-39.2-7.2-42.9s-6.4-5.7-7.2-6.1
		c-0.9-0.4-0.3-1.3-0.3-1.3v-10.7h2.9c0,0,3.2-1,3.2-3.4s-2.5-2.6-2.5-2.6l0.1-2.1c3.4-0.9,6.5-2,9.4-3.2c0,0.1,0,0.2,0,0.3
		c0,1.2,1,2.2,2.2,2.2c1,0,1.9-0.7,2.1-1.6c9.2,3.1,9.1,20.1,9.1,20.2c0,0.4,0.2,1.2,0.5,1.5s0.7,0.8,1.2,0.8h9.4
		c0.8,0,1.4-0.9,1.6-1.6l11.3-50.4C182.1,113,182,112.4,181.7,112z M107.7,140.8v-0.1c-5.5,1.1-9.5,5.9-11.5,13.3
		c-1,3.5-1.3,6.5-1.4,8.5h-6.5l-10.6-48h6.8c2,6,7.9,18.2,23.6,26C107.9,140.6,107.8,140.7,107.7,140.8z M167.7,162.5h-6.5
		c-0.1-2-0.4-5.3-1.4-8.8c-2-7.3-6-12.2-11.5-13.2l0,0c-0.1,0-0.2,0-0.4-0.1c15.7-7.9,21.6-19.9,23.6-25.9h6.8L167.7,162.5z"/>
		<path fill="#FFFFFF" d="M120.3,110.6l32.7,0.2c0,0-0.2,7.8-11.1,7.8c-1.7,0-9.6-0.2-12.2-0.2C127,118.5,120.5,117.6,120.3,110.6z"
		/>
		<rect x="127" y="145" fill="#FFFFFF" width="4" height="1"/>
		<rect x="126" y="148" fill="#FFFFFF" width="6" height="2"/>
		<rect x="127" y="154" fill="#FFFFFF" width="3" height="9"/>
		<path fill="#ABD100" d="M139.4,212h-10.3l0.5-42h7.2c0,0-0.5,10.2,0.3,21.7C138,203.1,139.4,212,139.4,212z"/>
		<polygon fill="#FFFFFF" points="138.1,218 124.4,218 125.7,216 136.8,216 	"/>
		<path fill="#ABD100" d="M130.9,144h3.9l0.2,0.5c0,0,27.2-6.7,35.2-29.1c0.4-1.7-1.5-4.7-3.3,0c-2.8,7.6-17.3,23.2-35.8,25
		C127.7,141,128.7,144,130.9,144z"/>
		<rect x="131" y="145" fill="#ABD100" width="3" height="1"/>
		<rect x="132" y="148" fill="#ABD100" width="3" height="2"/>
		<rect x="130" y="154" fill="#ABD100" width="1" height="9"/>
		<path fill="#FFFFFF" d="M136.2,212h-10.3l0.5-42h7.2c0,0-0.5,10.2,0.3,21.7C134.7,203.1,136.2,212,136.2,212z"/>
		<rect x="137" y="212" fill="#ABD100" width="5" height="2"/>
		<rect x="138" y="214" fill="#ABD100" width="5" height="4"/>
		<rect x="140" y="218" fill="#ABD100" width="5" height="26"/>
		<path fill="#FF9F00" d="M112.5,212h3.6c0,0,3.6-12.5,3.6-20.5s0-21.6,0-21.6l-1,0.1c0,0-0.1,10.2-1,21.6
		C116.9,203.1,112.5,212,112.5,212z"/>
		<path fill="#FF9F00" d="M125.1,144h-3.9l-0.3,0.5c0,0-27.6-6.2-35.1-29.8c0.2,0.4-0.5-1.4,1.3-1.8c0.5-0.1,1.1,0.1,1.9,1.8
		c2.1,4.6,17.3,23.9,35.8,25.7C128.3,141,127.3,144,125.1,144z"/>
		<rect x="122" y="145" fill="#FF9F00" width="3" height="1"/>
		<rect x="121.3" y="148.4" fill="#FF9F00" width="1.4" height="1.4"/>
		<rect x="124" y="154" fill="#FF9F00" width="1" height="9"/>
		<rect x="111" y="212" fill="#FF9F00" width="4" height="2"/>
		<rect x="109" y="214" fill="#FF9F00" width="4" height="4"/>
		<rect x="108" y="218" fill="#FF9F00" width="2" height="26"/>
		<line fill="none" stroke="#957E78" stroke-miterlimit="10" x1="123" y1="153.5" x2="133" y2="153.5"/>
		<line fill="none" stroke="#957E78" stroke-miterlimit="10" x1="120" y1="145.5" x2="136" y2="145.5"/>
		<line fill="none" stroke="#957E78" stroke-miterlimit="10" x1="123" y1="164.5" x2="132" y2="164.5"/>
		<line fill="none" stroke="#957E78" stroke-miterlimit="10" x1="108" y1="214.5" x2="147" y2="214.5"/>
		<line fill="none" stroke="#957E78" stroke-miterlimit="10" x1="107" y1="218.5" x2="149" y2="218.5"/>
		<line fill="none" stroke="#957E78" stroke-miterlimit="10" x1="103" y1="243.5" x2="151" y2="243.5"/>
	</g>
	<g>
		<g>
			<g>
				<g>
					<path fill="#FFFFFF" d="M153.2,79.5c5.8,15.5,20.8,26.6,38.4,26.6S224.2,95,230,79.5L191.6,76L153.2,79.5z"/>
					<path fill="#FFFFFF" d="M191.6,24.5c-17.6,0-32.6,11.1-38.4,26.6l38.4,3.5l38.4-3.5C224.2,35.6,209.2,24.5,191.6,24.5z"/>
					<path fill="#FFFFFF" d="M153.2,51.1c-1.6,4.4-2.5,9.2-2.5,14.2s0.9,9.8,2.5,14.2H230c1.6-4.4,2.5-9.2,2.5-14.2
					s-0.9-9.8-2.5-14.2C230,51.1,153.2,51.1,153.2,51.1z"/>
				</g>
				<ellipse fill="none" stroke="#020200" stroke-width="1.4754" stroke-miterlimit="10" cx="191.6" cy="65.2" rx="40.8" ry="40.6"/>
			</g>
		</g>
		<g>
			<g>
				<path d="M206.6,51.1c0,0-1.7,2-3.6,4.6c0,0-1.3,1.7-3.8,4.7c-1.5,1.8-1.5,3.1,0.2,4.7c2,1.9,3.9,4,5.8,6.1c0.6,0.6,1.8,1,1.2,2.3
				l0.1-0.1c-3.8-0.9-7.7-1.8-11.4-2.8c-1.9-0.5-3,0-4,1.6c-3.1,5.2-5.8,10.4-6.5,16.6c-0.3,2.7,0,4.4,2.7,5.3
				c1.5,0.5,1.5,0.5,1.5,0.5c1.5,1.2,1.5,2.3,0.2,2.4c0,0,0,0-1.2-0.2c-3.1-0.4-4,0.8-2.9,3.7c0.1,0.4,0.1,0.4,0.1,0.4
				c0,0.7-2,0.4-4.6-0.6c0,0,0,0-1.6-1.7c-1.7-1.8-3.5-2.7-5.9-3.2C170,95,170,95,170,95c-2.7-1.6-4.7-3.1-4.6-3.5c0,0,0,0,0.1,0
				c6.5-0.6,6.5-0.6,3.7-6.6c-0.5-1.2-0.5-1.2-0.5-1.2c-0.5-1.4-0.1-1.9,0.8-1.2c0,0,0,0,0.8,0.7c6.8,5.5,7.7,5.4,13.9-1.1
				c0.8-0.9,1.2-1.6,1-2.9c-0.6-3.3-1.1-6.7-1.6-10c-0.1-0.9-0.1-1.8-1.1-2.2c-3.5-1.2-7-3.4-10.4-3.3c-3,0.1-5,3.8-7.3,6.2
				c-1,1-1,2-0.5,3.2c0.9,2.4,0.9,2.4,0.9,2.4c1,2.7,1.3,4.6,0.8,4.3c0,0,0,0-0.5-0.3c-5-3.3-5-3.3-5-3.3c-1.6,2.8-3.4,3.4-4.1,1.3
				c0,0,0,0-0.2-1.9c-0.3-2.4-0.2-4.8-1.9-6.8c-0.5-0.6-0.9-1.7-0.1-2c4.1-1.6,3.9-6,5.9-8.9c0.2-0.3,0.2-0.3,0.2-0.3
				c0.2-0.3,0.7,0.2,1.1,1c0,0,0,0,0.1,0.7c0.4,4.9-0.3,4.2,5.1,3.8c5.4-0.4,10.1-2.6,14.9-4.5c1.3-0.5,1.9-1.3,1.9-2.7
				c0.1-3.2,0.5-6.3,1.2-9.4c0.6-2.3-1.1-3.4-2.1-4.8c-3.3-4.8-3.4-4.7-8.7-2.8c-1,0.4-1,0.4-1,0.4c-1.3,0.5-1.1-0.5,0.5-2.3
				c0,0,0,0,1.5-1.2c1.5-1.3,3.8-2.2,1.4-4.7c-0.7-0.7-0.1-1.3,0.7-1.3c7.3,0.5,16.3-1.6,16.3-1.6c3.2-0.7,4.8-0.8,3.7-0.2
				c-1.1,0.6-2.1,3-0.7,3.4c1.5,0.4,2.4,2.8-0.8,3.1c0,0-0.8,0.1-4,0.3c-1.3,0.1-2.2,0.5-2.9,1.7c-3.5,5.7-2.3,13.5,2.8,17.6
				c1,0.8,1.8,0.4,2.7,0.1C198.2,53.3,202.2,51.8,206.6,51.1L206.6,51.1z"/>
			</g>
			<g>
				<path d="M206.3,73.6c0,0,2.6,0.1,5.9,0.2c0,0,0.4,0,3.5,0.2c2.4,0.2,3.9-0.6,4.7-3c1.1-2.9,1.6-4.2,1.6-4.2
				c1.4-2.9,2.7-3.8,2.9-1.9c0.2,1.9,1.3,6.2,2.1,5.8c0.8-0.4,1.9,0.7,0.3,3.6L226,82c-1.3,3-4.6,4.4-7.2,3.3c0,0,0,0-2.5,1.6
				c-1.7,1.1-1.7,1.1-1.7,1.1c-2.5,0.6-3.4-0.7-2-3c0,0,0,0,1.2-1.8c0.8-1.1,1-2-0.3-3c-2.5-2.1-3-2.6-3-2.6
				C208.3,75.4,206.3,73.5,206.3,73.6z"/>
			</g>
			<g>
				<path d="M206.5,51c0,0,1.4-1.6,3-3.6c0,0,0,0,1.4-1.9c1.1-1.5,1.2-2.5-0.3-3.9c-2.4-2.2-3.4-3.1-3.4-3.1c-2.5-2-2-3.2,1.2-2.6
				c0,0,0.6,0.1,3.3,1.3c2.3,1,2.3,1,2.3,1c0.9-1.9,3.3-1.4,5.4,1.1l4.8,7.7c2.1,2.5,3.1,4.3,2.3,4.1c0,0,0,0-0.4-0.2
				c-2.2-1.1-2.9-0.6-2.4,1.9c0.5,2.3,0.5,2.3,0.5,2.3c-0.1,2.7-1.6,2.7-3.3,0c0,0-0.3-0.4-1.8-3.2c-1.2-2.1-2.7-2.4-4.9-2.1
				c-2.6,0.4-2.6,0.4-2.6,0.4C208.8,50.7,206.5,51,206.5,51z"/>
			</g>
			<g>
				<path d="M200,101.8c-3.2,0.7-5.2,1.1-4.4,0.8s1.4-2.4,0.7-3c-0.8-0.6-2.8-2.2-2.8-2.4c0-0.2,2.6-0.6,5.8-0.7l6.1-2.2
				c2.3-2.2,4.3-3.6,4.4-3.1c0,0,0,0,0,0.5c0,4.8,0,4.8,4.6,3.2c0.5-0.2,0.5-0.2,0.5-0.2c0.7-0.3-1,1-3.7,2.7L200,101.8z"/>
			</g>
			<g>
				<path d="M155.9,54.6c-0.6,1,0-0.7,1.2-3.7l5.7-9.7c2.1-2.5,3.4-3.8,2.9-3s-0.3,3.1,0.4,2.9c0.7-0.2,0.7,2-1.7,3.9
				c0,0,0,0-1.6,2.1c-1.6,2.2-1.6,2.2-1.6,2.2c-0.1,3.2-0.4,5.3-0.8,4.6C160.2,53.3,156.5,53.7,155.9,54.6z"/>
			</g>
		</g>
	</g>
	<g>
		<g>
			<g>
				<path fill="#FFFF00" d="M38.604,208.254h-7.409v-31.952h12.936v6.832h-5.527v4.699h5.133v6.85h-5.133V208.254z M34.196,205.254
				h1.409v-13.571h5.133v-0.85h-5.133v-10.699h5.527v-0.832h-6.936V205.254z"/>
			</g>
			<g>
				<path fill="#FFFF00" d="M60.735,208.254h-7.548l-0.415-0.829c-0.222-0.443-0.323-0.646-0.323-11.051
				c0-1.021-0.108-1.47-0.162-1.629c-0.081-0.029-0.255-0.075-0.572-0.092v13.601h-7.409v-31.952h8.788
				c1.887,0,3.306,0.409,4.336,1.25c1.013,0.827,1.682,1.97,1.991,3.395c0.261,1.207,0.387,2.71,0.387,4.595
				c0,1.972-0.219,3.472-0.668,4.585c-0.193,0.478-0.451,0.904-0.768,1.277c0.317,0.406,0.598,0.919,0.815,1.563
				c0.458,1.361,0.671,3.842,0.671,7.808c0,4.146,0.072,5.254,0.105,5.544L60.735,208.254z M55.517,205.254h1.387
				c-0.029-0.933-0.045-2.334-0.045-4.479c0-4.398-0.28-6.153-0.514-6.852c-0.308-0.915-0.727-0.988-0.928-1.023l-0.19-2.908
				c0.58-0.183,0.929-0.488,1.133-0.991c0.205-0.506,0.449-1.519,0.449-3.459c0-1.646-0.107-2.979-0.32-3.961
				c-0.163-0.755-0.476-1.312-0.955-1.705c-0.46-0.375-1.304-0.573-2.439-0.573h-5.788v25.952h1.409v-13.741l2.984,0.139
				c1.386,0.032,2.408,0.464,3.002,1.281c0.518,0.713,0.748,1.773,0.748,3.441C55.45,201.461,55.483,203.995,55.517,205.254z
				 M51.992,191.162h-3.26V179.69h2.997c1.919,0,2.769,0.818,3.143,1.505c0.4,0.733,0.578,1.903,0.578,3.795v0.181
				c0,1.357-0.058,2.359-0.177,3.063c-0.163,0.956-0.494,1.656-1.012,2.143C53.707,190.897,52.943,191.162,51.992,191.162z
				 M51.732,188.162h0.26c0.101,0,0.173-0.007,0.221-0.015c0.022-0.064,0.065-0.197,0.102-0.415
				c0.061-0.362,0.135-1.104,0.135-2.562v-0.181c0-1.409-0.113-2.017-0.176-2.248c-0.092-0.023-0.262-0.052-0.542-0.052V188.162z"/>
			</g>
			<g>
				<path fill="#FFFF00" d="M77.195,208.254h-7.17l-0.691-5.166h-2.03l-0.625,5.166h-7.303l4.557-31.952h8.414L77.195,208.254z
				 M72.65,205.254h1.056l-3.938-25.952h-3.232l-3.701,25.952h1.186l0.625-5.166h7.314L72.65,205.254z M71.899,199.552h-7.191
				l2.144-17.542h2.706L71.899,199.552z M68.097,196.552h0.376l-0.196-1.47L68.097,196.552z"/>
			</g>
			<g>
				<path fill="#FFFF00" d="M93.22,208.254h-5.69l-3.49-9.96v9.96h-7.063v-31.952h6.016l3.263,9.238l-0.001-9.238h6.965V208.254z
				 M89.658,205.254h0.562v-25.952h-0.965v7.975l0.312,7.837l-2.914,0.56l-5.782-16.371h-0.894v25.952h1.063v-8.88l-0.246-7.552
				l2.915-0.545L89.658,205.254z"/>
			</g>
			<g>
				<path fill="#FFFF00" d="M107.498,208.254H94.003v-5.623l5.521-19.529h-4.979v-6.8h13.084v5.274l-5.53,19.878h5.398
				L107.498,208.254L107.498,208.254z M97.003,205.254h7.495v-0.8h-6.347l6.478-23.288v-1.864h-7.084v0.8h5.944l-6.487,22.945
				L97.003,205.254L97.003,205.254z"/>
			</g>
			<g>
				<path fill="#FFFF00" d="M115.465,208.583c-2.712,0-4.761-0.91-6.091-2.705c-1.245-1.679-1.85-4.04-1.85-7.218v-13.242
				c0-4.549,1.53-6.959,3.402-8.206h-3.304v-6.718h7.639v5.465c0.109-0.002,0.217-0.002,0.323-0.003v-5.462h7.639v6.718h-3.071
				c0.542,0.378,1.013,0.84,1.41,1.386c1.184,1.626,1.759,3.857,1.759,6.82v13.242c0,3.183-0.588,5.542-1.799,7.213
				C120.223,207.671,118.184,208.583,115.465,208.583z M115.522,178.956c-2.327,0-4.998,0.734-4.998,6.462v13.242
				c0,2.477,0.424,4.305,1.26,5.432c0.743,1.004,1.947,1.491,3.681,1.491c1.726,0,2.914-0.48,3.629-1.47
				c0.815-1.125,1.229-2.96,1.229-5.453v-13.242c0-2.273-0.399-3.975-1.186-5.056C118.45,179.416,117.267,178.956,115.522,178.956z
				 M118.585,174.212h1.639v-0.718h-1.639V174.212z M110.624,174.212h1.639v-0.718h-1.639V174.212z M115.44,204.767
				c-1.418,0-2.507-0.717-2.987-1.966c-0.332-0.861-0.487-2.161-0.487-4.091v-13.506c0-1.602,0.196-2.79,0.6-3.634
				c0.554-1.159,1.596-1.798,2.932-1.798c1.355,0,2.413,0.685,2.901,1.877c0.335,0.821,0.499,1.989,0.499,3.571v13.489
				c0,1.889-0.149,3.175-0.471,4.047C117.957,204.034,116.868,204.767,115.44,204.767z M115.498,182.772
				c-0.138,0-0.188,0.023-0.189,0.024c-0.129,0.261-0.343,0.873-0.343,2.407v13.506c0,2.049,0.2,2.79,0.286,3.014
				c-0.032,0.038,0.377,0.021,0.378,0.021c0.088-0.315,0.268-1.092,0.268-3.035V185.22c0-1.533-0.172-2.184-0.275-2.436
				C115.665,182.796,115.613,182.772,115.498,182.772z"/>
			</g>
			<g>
				<path fill="#FFFF00" d="M131.339,208.583c-2.818,0-4.847-0.967-6.028-2.873c-1.054-1.699-1.566-4.022-1.566-7.1v-4.082h5.326
				l-1.777-1.831c-1.105-1.154-1.977-2.37-2.595-3.619c-0.654-1.322-0.986-2.853-0.986-4.549c0-2.765,0.558-4.812,1.706-6.262
				c1.216-1.534,3.211-2.312,5.93-2.312c2.808,0,4.778,0.933,5.858,2.772c0.94,1.604,1.398,3.792,1.398,6.689v3.293h-4.686
				l1.047,1.134c1.299,1.406,2.297,2.86,2.968,4.324c0.696,1.52,1.05,3.19,1.05,4.969c0,3.054-0.536,5.3-1.639,6.867
				C136.141,207.716,134.119,208.583,131.339,208.583z M126.745,197.528v1.082c0,2.468,0.375,4.325,1.116,5.52
				c0.223,0.359,0.901,1.453,3.479,1.453c1.772,0,2.935-0.427,3.553-1.305c0.725-1.03,1.092-2.76,1.092-5.141
				c0-1.344-0.262-2.595-0.776-3.719c-0.539-1.175-1.362-2.366-2.445-3.539l-2.385-2.582c-0.887-0.948-1.5-1.732-1.868-2.391
				c-0.439-0.785-0.652-1.746-0.652-2.938c0-1.229,0.229-2.176,0.698-2.894c0.576-0.883,1.548-1.37,2.735-1.37
				c1.301,0,2.315,0.678,2.784,1.86c0.319,0.807,0.468,1.941,0.468,3.571v0.573h1.062v-0.293c0-2.316-0.332-4.057-0.986-5.172
				c-0.188-0.318-0.757-1.29-3.271-1.29c-1.757,0-2.96,0.396-3.578,1.175c-0.702,0.886-1.058,2.365-1.058,4.398
				c0,1.23,0.227,2.312,0.675,3.217c0.483,0.977,1.179,1.941,2.066,2.869l2.132,2.196c1.062,1.1,1.856,2.185,2.362,3.229
				c0.537,1.107,0.809,2.398,0.809,3.838c0,1.468-0.161,2.503-0.507,3.257c-0.289,0.629-1.045,1.681-2.869,1.681
				c-1.354,0-2.422-0.691-2.929-1.896c-0.36-0.857-0.528-2.122-0.528-3.979v-1.411L126.745,197.528L126.745,197.528z
				 M130.923,196.762v2.178c0,1.911,0.205,2.605,0.294,2.815c0.001,0.072,0.242,0.063,0.337,0.049
				c0.072-0.206,0.202-0.742,0.202-1.926c0-0.982-0.171-1.834-0.508-2.529C131.155,197.157,131.047,196.961,130.923,196.762z
				 M131.3,182.712c-0.207,0-0.26,0.026-0.26,0.026c-0.01,0.034-0.184,0.344-0.184,1.231c0,0.817,0.147,1.253,0.271,1.474
				c0.079,0.142,0.208,0.341,0.415,0.612v-0.918C131.542,183.598,131.384,182.947,131.3,182.712z"/>
			</g>
			<g>
				<path fill="#FFFF00" d="M146.781,208.254h-7.409v-31.952h7.409V208.254z M142.372,205.254h1.409v-25.952h-1.409V205.254z"/>
			</g>
			<g>
				<path fill="#FFFF00" d="M155.308,208.583c-2.818,0-4.847-0.967-6.028-2.873c-1.054-1.698-1.566-4.021-1.566-7.1v-4.082h5.325
				l-1.776-1.831c-1.105-1.154-1.976-2.369-2.595-3.619c-0.655-1.321-0.987-2.852-0.987-4.549c0-2.764,0.558-4.812,1.706-6.261
				c1.216-1.535,3.211-2.312,5.93-2.312c2.807,0,4.778,0.933,5.858,2.771c0.941,1.604,1.399,3.793,1.399,6.69v3.293h-4.687
				l1.047,1.134c1.299,1.406,2.297,2.86,2.968,4.324c0.696,1.517,1.05,3.188,1.05,4.969c0,3.054-0.536,5.3-1.639,6.867
				C160.109,207.716,158.089,208.583,155.308,208.583z M150.713,197.528v1.082c0,2.469,0.375,4.325,1.115,5.519
				c0.224,0.36,0.901,1.454,3.479,1.454c1.772,0,2.934-0.427,3.552-1.305c0.725-1.03,1.092-2.76,1.092-5.141
				c0-1.345-0.261-2.596-0.776-3.718c-0.539-1.176-1.362-2.367-2.445-3.54l-2.384-2.582c-0.885-0.945-1.499-1.729-1.868-2.391
				c-0.438-0.782-0.652-1.743-0.652-2.938c0-1.23,0.229-2.178,0.697-2.894c0.578-0.884,1.55-1.37,2.735-1.37
				c1.301,0,2.316,0.678,2.785,1.86c0.318,0.805,0.467,1.939,0.467,3.571v0.573h1.063v-0.293c0-2.316-0.332-4.057-0.986-5.172
				c-0.187-0.318-0.758-1.29-3.271-1.29c-1.757,0-2.961,0.396-3.578,1.175c-0.702,0.886-1.058,2.366-1.058,4.398
				c0,1.23,0.228,2.312,0.675,3.217c0.484,0.978,1.18,1.942,2.066,2.869l2.132,2.196c1.062,1.1,1.856,2.185,2.362,3.229
				c0.537,1.107,0.809,2.398,0.809,3.838c0,1.471-0.161,2.506-0.508,3.259c-0.286,0.626-1.041,1.679-2.867,1.679
				c-1.354,0-2.423-0.691-2.93-1.896c-0.36-0.861-0.528-2.125-0.528-3.979v-1.411L150.713,197.528L150.713,197.528z
				 M154.891,196.762v2.178c0,1.909,0.206,2.606,0.295,2.817c0,0.068,0.24,0.064,0.336,0.047c0.073-0.207,0.202-0.742,0.202-1.926
				c0-0.982-0.171-1.834-0.508-2.529C155.123,197.157,155.015,196.961,154.891,196.762z M155.269,182.712
				c-0.207,0-0.26,0.026-0.261,0.026c-0.01,0.033-0.183,0.342-0.183,1.231c0,0.819,0.146,1.252,0.27,1.472
				c0.08,0.143,0.209,0.343,0.415,0.613v-0.917C155.51,183.597,155.352,182.947,155.269,182.712z"/>
			</g>
			<g>
				<path fill="#FFFF00" d="M170.696,208.583c-2.631,0-4.65-0.928-6.001-2.756c-1.249-1.688-1.882-4.065-1.882-7.068v-12.617
				c0-4.918,1.428-8.091,4.244-9.432c1.035-0.489,2.27-0.737,3.672-0.737c2.839,0,7.603,1.195,7.603,9.198v5.481h-7.261v-5.202
				c0-1.699-0.172-2.391-0.274-2.651c0.041,0.006,0.009-0.01-0.084-0.01c-0.055,0-0.088,0.005-0.105,0.009
				c-0.001,0.009-0.02,0.038-0.042,0.091c-0.115,0.277-0.311,0.977-0.311,2.546v13.521c0,1.774,0.188,2.498,0.3,2.772
				c0.013,0.032,0.024,0.055,0.033,0.069c0.01,0,0.039,0.001,0.075,0.001c0.033,0,0.058-0.002,0.073-0.004
				c0.004-0.013,0.018-0.038,0.033-0.077c0.112-0.279,0.302-1.016,0.302-2.811v-5.646h7.327v5.596c0,3.156-0.586,5.479-1.793,7.104
				C175.313,207.701,173.325,208.583,170.696,208.583z M170.729,178.973c-0.955,0-1.758,0.15-2.386,0.447
				c-1.678,0.799-2.53,3.061-2.53,6.722v12.617c0,2.347,0.436,4.124,1.294,5.284c0.766,1.037,1.939,1.54,3.589,1.54
				c1.651,0,2.796-0.461,3.501-1.41c0.797-1.073,1.201-2.861,1.201-5.315v-2.596h-1.327v2.646c0,1.805-0.165,3.055-0.521,3.934
				c-0.502,1.244-1.555,1.958-2.888,1.958c-1.329,0-2.381-0.705-2.885-1.934c-0.357-0.874-0.523-2.115-0.523-3.909v-13.521
				c0-1.619,0.178-2.831,0.544-3.706c0.518-1.232,1.579-1.939,2.914-1.939c1.349,0,2.397,0.697,2.876,1.912
				c0.329,0.839,0.482,2.029,0.482,3.749v2.202h1.261v-2.481C175.332,179.677,172.872,178.973,170.729,178.973z"/>
			</g>
			<g>
				<path fill="#FFFF00" d="M194.75,208.254h-7.409v-13.456h-0.948v13.456h-7.408v-31.952h7.408v11.712h0.948v-11.712h7.409V208.254z
				 M190.341,205.254h1.409v-25.952h-1.409v11.712h-6.948v-11.712h-1.408v25.952h1.408v-13.456h6.948V205.254z"/>
			</g>
			<g>
				<path fill="#FFFF00" d="M208.995,208.254h-12.902v-31.952h12.705v6.8h-5.297v5.422h5.034v6.718h-5.034v6.213h5.494V208.254z
				 M199.093,205.254h6.902v-0.8h-5.494v-12.213h5.034v-0.718h-5.034v-11.422h5.297v-0.8h-6.705L199.093,205.254L199.093,205.254z"
				/>
			</g>
			<g>
				<path fill="#FFFF00" d="M225.944,208.254h-7.55l-0.414-0.831c-0.214-0.43-0.321-0.646-0.321-11.049
				c0-1.021-0.108-1.469-0.162-1.629c-0.081-0.029-0.255-0.075-0.572-0.092v13.601h-7.409v-31.952h8.788
				c1.887,0,3.306,0.409,4.337,1.25c1.014,0.828,1.683,1.971,1.989,3.396c0.261,1.203,0.388,2.706,0.388,4.594
				c0,1.972-0.219,3.471-0.668,4.584c-0.193,0.478-0.451,0.905-0.769,1.278c0.317,0.406,0.599,0.919,0.815,1.562
				c0.458,1.361,0.671,3.842,0.671,7.809c0,4.146,0.071,5.254,0.105,5.544L225.944,208.254z M220.727,205.254h1.386
				c-0.028-0.933-0.045-2.334-0.045-4.479c0-4.399-0.279-6.154-0.514-6.852c-0.309-0.915-0.727-0.988-0.928-1.023l-0.19-2.908
				c0.58-0.183,0.93-0.488,1.133-0.991c0.205-0.506,0.449-1.519,0.449-3.459c0-1.648-0.107-2.98-0.319-3.96
				c-0.163-0.756-0.476-1.313-0.955-1.706c-0.46-0.375-1.304-0.573-2.439-0.573h-5.788v25.952h1.409v-13.741l2.983,0.139
				c1.386,0.032,2.407,0.464,3.002,1.28c0.519,0.715,0.749,1.776,0.749,3.442C220.659,201.461,220.692,203.994,220.727,205.254z
				 M217.201,191.162h-3.26V179.69h2.996c1.92,0,2.77,0.819,3.144,1.506c0.399,0.731,0.578,1.902,0.578,3.794v0.181
				c0,1.354-0.058,2.355-0.177,3.062c-0.163,0.957-0.494,1.657-1.013,2.144C218.915,190.898,218.151,191.162,217.201,191.162z
				 M216.941,188.162h0.26c0.102,0,0.174-0.007,0.222-0.015c0.021-0.064,0.064-0.197,0.102-0.415
				c0.062-0.364,0.135-1.106,0.135-2.562v-0.181c0-1.411-0.113-2.018-0.176-2.248c-0.093-0.022-0.262-0.052-0.542-0.052
				L216.941,188.162L216.941,188.162z"/>
			</g>
			<g>
				<path fill="#FFFF00" d="M34.484,242.254H21.499v-31.952h7.409v25.201h5.577L34.484,242.254L34.484,242.254z M24.499,239.254
				h6.985v-0.751h-5.577v-25.201h-1.409L24.499,239.254L24.499,239.254z"/>
			</g>
			<g>
				<path fill="#FFFF00" d="M41.59,242.254h-7.409v-31.952h7.409V242.254z M37.182,239.254h1.409v-25.952h-1.409V239.254z"/>
			</g>
			<g>
				<path fill="#FFFF00" d="M50.042,242.55c-2.29,0-4.188-0.959-5.488-2.772c-1.224-1.709-1.819-4.161-1.819-7.495v-12.585
				c0-2.994,0.629-5.354,1.869-7.017c1.34-1.797,3.425-2.708,6.195-2.708c4.391,0,6.133,2.264,6.822,4.163
				c0.525,1.451,0.781,3.324,0.781,5.727v3.556H51.29v-4.526c0-1.458-0.186-1.967-0.242-2.087c-0.016-0.002-0.099-0.016-0.257-0.016
				c-0.229,0-0.244,0.029-0.292,0.128c-0.076,0.152-0.321,0.8-0.321,2.747v3.781h8.225v18.809h-4.66l-0.186-0.783
				C52.535,242.188,51.353,242.55,50.042,242.55z M50.799,212.973c-1.796,0-3.036,0.491-3.79,1.502
				c-0.845,1.133-1.273,2.89-1.273,5.223v12.585c0,2.648,0.423,4.583,1.257,5.748c0.743,1.036,1.712,1.52,3.049,1.52
				c0.705,0,1.301-0.183,1.823-0.557c0.243-0.175,0.438-0.376,0.591-0.611c-0.488,0.274-1.054,0.417-1.682,0.417
				c-1.446,0-2.565-0.759-3.071-2.083c-0.359-0.939-0.526-2.37-0.526-4.5v-12.552c0-1.911,0.201-3.207,0.633-4.079
				c0.574-1.158,1.632-1.796,2.981-1.796c1.801,0,2.596,1.011,2.91,1.612c0.402,0.773,0.589,1.882,0.589,3.49v1.526h1.112v-0.556
				c0-2.02-0.202-3.603-0.601-4.704C54.461,214.221,53.676,212.973,50.799,212.973z M52.333,226.652h2.221v5.399
				c0,2.123-0.209,3.641-0.641,4.641c-0.141,0.326-0.312,0.617-0.511,0.871l2-0.001v-11.117h-3.07L52.333,226.652L52.333,226.652z
				 M50.575,235.776c0.003,0,0.061,0.022,0.2,0.022c0.181,0,0.256,0,0.383-0.295c0.147-0.342,0.395-1.246,0.395-3.452v-2.399h-1.376
				v2.563c0,2.235,0.206,3.108,0.329,3.43C50.542,235.738,50.571,235.771,50.575,235.776L50.575,235.776z"/>
			</g>
			<g>
				<path fill="#FFFF00" d="M75.821,242.254h-7.17l-0.691-5.166h-2.03l-0.625,5.166h-7.303l4.557-31.952h8.414L75.821,242.254z
				 M71.276,239.254h1.056l-3.938-25.952h-3.232l-3.701,25.952h1.186l0.625-5.166h7.314L71.276,239.254z M70.526,233.552h-7.191
				l2.144-17.542h2.706L70.526,233.552z M66.723,230.552h0.376l-0.196-1.47L66.723,230.552z"/>
			</g>
			<g>
				<path fill="#FFFF00" d="M83.012,242.254h-7.409v-31.952h8.146c2.798,0,4.782,0.932,5.897,2.77
				c0.977,1.612,1.476,3.858,1.525,6.865v0.633c0,3.159-0.461,5.534-1.411,7.262c-0.753,1.371-2.382,3.006-5.863,3.006h-0.885
				C83.012,230.838,83.012,242.254,83.012,242.254z M78.603,239.254h1.409v-11.417h3.885c2.184,0,2.892-0.828,3.234-1.451
				c0.69-1.256,1.04-3.213,1.04-5.816v-0.608c-0.039-2.402-0.406-4.205-1.09-5.334c-0.199-0.327-0.804-1.325-3.332-1.325h-5.146
				V239.254z M83.025,227.202h-3.013V213.69h3.046c1.483,0,2.63,0.747,3.146,2.049c0.363,0.92,0.545,2.297,0.558,4.212v0.568
				c0,2.259-0.166,3.736-0.522,4.649C85.737,226.461,84.565,227.202,83.025,227.202z M83.012,224.202h0.013
				c0.25,0,0.369-0.045,0.391-0.062c0.125-0.306,0.347-1.143,0.347-3.621v-0.559c-0.012-1.979-0.223-2.803-0.347-3.118
				c-0.045-0.113-0.061-0.152-0.357-0.152h-0.046L83.012,224.202L83.012,224.202z"/>
			</g>
			<g>
				<path fill="#FFFF00" d="M98.711,242.583c-2.712,0-4.761-0.91-6.091-2.705c-1.245-1.679-1.85-4.039-1.85-7.218v-13.242
				c0-8.232,5.011-9.462,7.998-9.462c2.734,0,4.767,0.889,6.042,2.642c1.184,1.626,1.759,3.857,1.759,6.82v13.242
				c0,3.183-0.588,5.542-1.799,7.213C103.468,241.671,101.43,242.583,98.711,242.583z M98.768,212.956
				c-2.327,0-4.998,0.734-4.998,6.462v13.242c0,2.477,0.424,4.305,1.26,5.432c0.743,1.004,1.947,1.491,3.681,1.491
				c1.726,0,2.914-0.48,3.629-1.47c0.815-1.125,1.229-2.96,1.229-5.453v-13.242c0-2.273-0.399-3.975-1.186-5.056
				C101.695,213.416,100.513,212.956,98.768,212.956z M98.686,238.767c-1.418,0-2.507-0.717-2.987-1.966
				c-0.332-0.861-0.487-2.161-0.487-4.091v-13.506c0-1.602,0.196-2.79,0.6-3.634c0.554-1.159,1.596-1.798,2.932-1.798
				c1.355,0,2.413,0.685,2.901,1.877c0.335,0.821,0.499,1.989,0.499,3.571v13.489c0,1.889-0.149,3.175-0.471,4.047
				C101.202,238.034,100.114,238.767,98.686,238.767z M98.744,216.772c-0.138,0-0.188,0.023-0.189,0.024
				c-0.129,0.261-0.343,0.873-0.343,2.407v13.506c0,2.049,0.2,2.79,0.286,3.014c-0.033,0.037,0.377,0.021,0.378,0.021
				c0.088-0.315,0.268-1.092,0.268-3.035V219.22c0-1.533-0.172-2.184-0.275-2.436C98.912,216.792,98.859,216.772,98.744,216.772z"/>
			</g>
			<g>
				<path fill="#FFFF00" d="M124.939,242.254h-7.846l-2.086-6.058v6.058h-7.441v-31.952h7.409v5.516l1.825-5.516h7.728l-5.304,15.767
				L124.939,242.254z M119.233,239.254h1.465l-4.647-13.162l4.302-12.79h-1.386l-4.068,12.295l-2.924-0.471v-11.824h-1.409v25.952
				h1.441v-12.022l2.918-0.488L119.233,239.254z"/>
			</g>
			<g>
				<path fill="#FFFF00" d="M139.796,242.254h-7.17l-0.691-5.166h-2.029l-0.625,5.166h-7.303l4.557-31.952h8.414L139.796,242.254z
				 M135.251,239.254h1.055l-3.938-25.952h-3.231l-3.701,25.952h1.186l0.625-5.166h7.314L135.251,239.254z M134.501,233.552h-7.192
				l2.144-17.542h2.707L134.501,233.552z M130.697,230.552h0.376l-0.196-1.471L130.697,230.552z"/>
			</g>
			<g>
				<path fill="#FFFF00" d="M152.563,242.254h-12.985v-31.952h7.408v25.201h5.577V242.254z M142.578,239.254h6.985v-0.751h-5.577
				v-25.201h-1.408V239.254z"/>
			</g>
			<g>
				<path fill="#FFFF00" d="M158.983,242.583c-2.818,0-4.847-0.967-6.029-2.873c-1.054-1.701-1.565-4.023-1.565-7.1v-4.082h5.326
				l-1.776-1.831c-1.106-1.155-1.978-2.37-2.596-3.619c-0.654-1.322-0.986-2.853-0.986-4.549c0-2.765,0.559-4.813,1.706-6.262
				c1.216-1.534,3.211-2.312,5.93-2.312c2.808,0,4.778,0.933,5.858,2.772c0.94,1.604,1.398,3.792,1.398,6.689v3.293h-4.686
				l1.047,1.134c1.299,1.406,2.297,2.86,2.968,4.324c0.696,1.52,1.05,3.19,1.05,4.969c0,3.054-0.536,5.3-1.639,6.867
				C163.785,241.716,161.764,242.583,158.983,242.583z M154.389,231.528v1.082c0,2.467,0.375,4.324,1.116,5.52
				c0.223,0.359,0.9,1.453,3.479,1.453c1.772,0,2.935-0.427,3.553-1.305c0.725-1.03,1.092-2.76,1.092-5.141
				c0-1.344-0.262-2.595-0.776-3.719c-0.539-1.175-1.362-2.366-2.445-3.539l-2.385-2.582c-0.887-0.948-1.5-1.732-1.868-2.391
				c-0.439-0.785-0.652-1.746-0.652-2.938c0-1.229,0.229-2.176,0.698-2.894c0.576-0.883,1.548-1.37,2.735-1.37
				c1.301,0,2.315,0.678,2.784,1.86c0.319,0.807,0.468,1.941,0.468,3.571v0.573h1.062v-0.293c0-2.316-0.332-4.057-0.986-5.172
				c-0.188-0.318-0.757-1.29-3.271-1.29c-1.757,0-2.961,0.396-3.578,1.175c-0.702,0.886-1.058,2.365-1.058,4.398
				c0,1.23,0.227,2.313,0.675,3.218c0.482,0.975,1.178,1.94,2.066,2.868l2.132,2.196c1.062,1.1,1.856,2.185,2.362,3.229
				c0.537,1.107,0.809,2.398,0.809,3.838c0,1.468-0.161,2.503-0.507,3.257c-0.289,0.629-1.045,1.681-2.869,1.681
				c-1.354,0-2.422-0.691-2.929-1.896c-0.36-0.857-0.528-2.122-0.528-3.979v-1.411L154.389,231.528L154.389,231.528z
				 M158.567,230.762v2.178c0,1.911,0.205,2.605,0.294,2.815c0.002,0.071,0.242,0.063,0.337,0.049
				c0.072-0.206,0.202-0.742,0.202-1.926c0-0.982-0.171-1.834-0.508-2.529C158.8,231.157,158.691,230.961,158.567,230.762z
				 M158.944,216.712c-0.207,0-0.26,0.026-0.26,0.026c-0.01,0.034-0.184,0.344-0.184,1.231c0,0.817,0.147,1.253,0.271,1.474
				c0.079,0.142,0.208,0.341,0.415,0.612v-0.918C159.187,217.598,159.028,216.947,158.944,216.712z"/>
			</g>
			<g>
				<path fill="#FFFF00" d="M174.426,242.254h-7.409v-31.952h7.409V242.254z M170.017,239.254h1.409v-25.952h-1.409V239.254z"/>
			</g>
			<g>
				<path fill="#FFFF00" d="M188.836,242.254h-12.903v-31.952h12.706v6.8h-5.297v5.422h5.033v6.718h-5.033v6.213h5.494V242.254z
				 M178.933,239.254h6.903v-0.8h-5.494v-12.213h5.033v-0.718h-5.033v-11.422h5.297v-0.8h-6.706V239.254z"/>
			</g>
			<g>
				<path fill="#FFFF00" d="M196.301,242.55c-2.29,0-4.188-0.959-5.487-2.772c-1.225-1.709-1.819-4.16-1.819-7.495v-12.585
				c0-2.995,0.629-5.355,1.869-7.017c1.34-1.797,3.424-2.708,6.194-2.708c4.391,0,6.134,2.264,6.822,4.163
				c0.525,1.452,0.781,3.324,0.781,5.727v3.556h-7.112v-4.526c0-1.457-0.186-1.967-0.242-2.087c-0.019,0-0.101-0.016-0.257-0.016
				c-0.229,0-0.244,0.029-0.292,0.127c-0.076,0.153-0.322,0.801-0.322,2.748v3.781h8.226v18.809H200l-0.186-0.782
				C198.794,242.188,197.612,242.55,196.301,242.55z M197.058,212.973c-1.797,0-3.036,0.491-3.79,1.502
				c-0.845,1.133-1.273,2.89-1.273,5.223v12.585c0,2.648,0.423,4.583,1.258,5.748c0.743,1.036,1.712,1.52,3.049,1.52
				c0.705,0,1.302-0.182,1.822-0.557c0.243-0.175,0.438-0.376,0.592-0.611c-0.487,0.274-1.054,0.417-1.682,0.417
				c-1.446,0-2.565-0.759-3.071-2.083c-0.359-0.939-0.526-2.37-0.526-4.5v-12.552c0-1.912,0.201-3.208,0.634-4.08
				c0.572-1.157,1.631-1.795,2.98-1.795c1.802,0,2.597,1.011,2.91,1.613c0.401,0.773,0.589,1.882,0.589,3.489v1.526h1.112v-0.556
				c0-2.02-0.202-3.602-0.602-4.704C200.719,214.221,199.934,212.973,197.058,212.973z M198.591,226.652h2.221v5.399
				c0,2.122-0.209,3.64-0.64,4.64c-0.142,0.327-0.312,0.618-0.512,0.872l2.001-0.001v-11.117h-3.07V226.652z M196.833,235.776
				c0.004,0,0.061,0.022,0.2,0.022c0.182,0,0.256,0,0.384-0.295c0.146-0.342,0.395-1.246,0.395-3.452v-2.399h-1.376v2.563
				c0,2.235,0.206,3.108,0.329,3.43C196.8,235.738,196.829,235.771,196.833,235.776L196.833,235.776z"/>
			</g>
			<g>
				<path fill="#FFFF00" d="M218.709,242.254h-12.902v-31.952h12.705v6.8h-5.297v5.422h5.034v6.718h-5.034v6.213h5.494
				L218.709,242.254L218.709,242.254z M208.807,239.254h6.902v-0.8h-5.494v-12.213h5.034v-0.718h-5.034v-11.422h5.297v-0.8h-6.705
				L208.807,239.254L208.807,239.254z"/>
			</g>
			<g>
				<path fill="#FFFF00" d="M235.658,242.254h-7.55l-0.414-0.831c-0.214-0.43-0.321-0.646-0.321-11.049
				c0-1.021-0.108-1.469-0.162-1.629c-0.081-0.029-0.255-0.075-0.572-0.092v13.601h-7.409v-31.952h8.788
				c1.887,0,3.306,0.409,4.337,1.25c1.014,0.828,1.683,1.971,1.989,3.396c0.261,1.203,0.388,2.706,0.388,4.594
				c0,1.972-0.219,3.471-0.668,4.584c-0.193,0.478-0.451,0.905-0.769,1.278c0.317,0.406,0.599,0.919,0.815,1.562
				c0.458,1.361,0.671,3.842,0.671,7.809c0,4.146,0.071,5.254,0.105,5.544L235.658,242.254z M230.44,239.254h1.386
				c-0.028-0.933-0.045-2.334-0.045-4.479c0-4.399-0.279-6.154-0.514-6.852c-0.309-0.915-0.727-0.988-0.928-1.023l-0.19-2.908
				c0.58-0.183,0.93-0.488,1.133-0.991c0.205-0.506,0.449-1.519,0.449-3.459c0-1.648-0.107-2.98-0.319-3.96
				c-0.163-0.756-0.476-1.313-0.955-1.706c-0.46-0.375-1.304-0.573-2.439-0.573h-5.788v25.952h1.409v-13.741l2.983,0.139
				c1.386,0.032,2.407,0.464,3.002,1.28c0.519,0.715,0.749,1.776,0.749,3.442C230.373,235.461,230.406,237.994,230.44,239.254z
				 M226.915,225.162h-3.26V213.69h2.996c1.92,0,2.77,0.819,3.144,1.506c0.399,0.731,0.578,1.902,0.578,3.794v0.181
				c0,1.354-0.058,2.355-0.177,3.062c-0.163,0.957-0.494,1.657-1.013,2.144C228.629,224.898,227.865,225.162,226.915,225.162z
				 M226.655,222.162h0.26c0.102,0,0.174-0.007,0.222-0.015c0.021-0.064,0.064-0.197,0.102-0.415
				c0.062-0.364,0.135-1.106,0.135-2.562v-0.181c0-1.411-0.113-2.018-0.176-2.248c-0.093-0.022-0.262-0.052-0.542-0.052
				L226.655,222.162L226.655,222.162z"/>
			</g>
		</g>
		<g>
			<g>
				<path d="M32.696,206.754v-28.952h9.936v3.832h-5.527v7.699h5.133v3.85h-5.133v13.571L32.696,206.754L32.696,206.754z"/>
			</g>
			<g>
				<path d="M51.63,193.149l-1.415-0.065v13.67h-4.409v-28.952h7.288c1.513,0,2.643,0.304,3.389,0.912
				c0.746,0.609,1.236,1.459,1.472,2.55c0.236,1.092,0.354,2.518,0.354,4.277c0,1.761-0.187,3.101-0.559,4.022
				c-0.373,0.921-1.064,1.541-2.073,1.858c0.998,0.176,1.694,0.851,2.089,2.023c0.395,1.174,0.592,3.616,0.592,7.329
				c0,3.712,0.055,5.705,0.164,5.979h-4.408c-0.11-0.22-0.165-3.68-0.165-10.38c0-1.283-0.154-2.136-0.461-2.559
				C53.182,193.394,52.562,193.172,51.63,193.149z M50.232,189.662h1.76c0.559,0,0.973-0.126,1.242-0.379
				c0.269-0.252,0.455-0.685,0.56-1.299c0.104-0.614,0.156-1.552,0.156-2.813v-0.181c0-1.568-0.132-2.594-0.395-3.076
				s-0.872-0.724-1.826-0.724h-1.497C50.232,181.19,50.232,189.662,50.232,189.662z"/>
			</g>
			<g>
				<path d="M61.105,206.754l4.129-28.952h5.823l4.393,28.952h-4.113l-0.691-5.166h-4.672l-0.625,5.166H61.105z M70.186,198.052
				l-1.941-14.542H68.18l-1.777,14.542H70.186z"/>
			</g>
			<g>
				<path d="M78.477,206.754v-28.952h3.455l6.136,17.371l-0.312-7.896v-9.475h3.965v28.952h-3.126l-6.3-17.98l0.247,7.601v10.38
				h-4.065V206.754z"/>
			</g>
			<g>
				<path d="M95.503,206.754v-3.915l6.004-21.237h-5.461v-3.8h10.084v3.569l-6.004,21.583h5.873v3.8L95.503,206.754L95.503,206.754z"
				/>
			</g>
			<g>
				<path d="M120.31,204.993c-1.009,1.394-2.624,2.09-4.844,2.09c-2.221,0-3.85-0.699-4.886-2.098
				c-1.037-1.398-1.555-3.507-1.555-6.325v-13.242c0-5.308,2.166-7.962,6.498-7.962c2.237,0,3.847,0.674,4.828,2.023
				s1.473,3.328,1.473,5.938v13.242C121.823,201.489,121.318,203.601,120.31,204.993z M109.124,175.712v-3.718h4.639v3.718H109.124z
				 M113.853,202.263c0.257,0.669,0.787,1.004,1.587,1.004c0.8,0,1.327-0.343,1.579-1.028s0.378-1.861,0.378-3.528v-13.489
				c0-1.371-0.129-2.372-0.387-3.003c-0.258-0.63-0.762-0.945-1.513-0.945s-1.278,0.315-1.579,0.945
				c-0.302,0.631-0.453,1.626-0.453,2.986v13.506C113.466,200.409,113.595,201.594,113.853,202.263z M117.085,175.712v-3.718h4.639
				v3.718H117.085z"/>
			</g>
			<g>
				<path d="M125.245,198.61v-2.582h4.178v2.911c0,1.612,0.137,2.745,0.411,3.397s0.79,0.979,1.546,0.979
				c0.757,0,1.259-0.269,1.506-0.806c0.246-0.537,0.37-1.415,0.37-2.632c0-1.218-0.22-2.278-0.658-3.184
				c-0.438-0.904-1.135-1.851-2.089-2.838l-2.139-2.204c-0.998-1.042-1.774-2.122-2.328-3.24c-0.554-1.119-0.831-2.413-0.831-3.883
				c0-2.391,0.46-4.167,1.382-5.33c0.921-1.162,2.505-1.743,4.754-1.743c2.248,0,3.77,0.677,4.564,2.031s1.192,3.331,1.192,5.931
				v1.793h-4.062v-2.073c0-1.403-0.121-2.409-0.362-3.019c-0.241-0.608-0.705-0.913-1.39-0.913c-0.686,0-1.18,0.23-1.48,0.691
				c-0.302,0.461-0.453,1.151-0.453,2.072c0,0.922,0.154,1.656,0.461,2.205c0.307,0.548,0.861,1.25,1.661,2.105l2.386,2.582
				c1.195,1.295,2.098,2.605,2.706,3.932c0.608,1.327,0.913,2.775,0.913,4.344c0,2.708-0.455,4.71-1.365,6.004
				c-0.911,1.294-2.504,1.941-4.779,1.941s-3.86-0.722-4.753-2.163C125.691,203.478,125.245,201.374,125.245,198.61z"/>
			</g>
			<g>
				<path d="M140.872,206.754v-28.952h4.409v28.952H140.872z"/>
			</g>
			<g>
				<path d="M149.213,198.61v-2.582h4.178v2.911c0,1.612,0.138,2.745,0.411,3.397c0.274,0.652,0.79,0.979,1.547,0.979
				s1.259-0.269,1.505-0.806c0.247-0.537,0.37-1.415,0.37-2.632c0-1.218-0.22-2.278-0.658-3.184
				c-0.438-0.904-1.135-1.851-2.089-2.838l-2.139-2.204c-0.998-1.042-1.773-2.122-2.327-3.24c-0.555-1.119-0.831-2.413-0.831-3.883
				c0-2.391,0.461-4.167,1.382-5.33c0.921-1.162,2.506-1.743,4.754-1.743s3.77,0.677,4.565,2.031s1.192,3.331,1.192,5.931v1.793
				h-4.063v-2.073c0-1.403-0.12-2.409-0.361-3.019c-0.241-0.608-0.705-0.913-1.391-0.913s-1.179,0.23-1.48,0.691
				s-0.452,1.151-0.452,2.072c0,0.922,0.153,1.656,0.461,2.205c0.307,0.548,0.86,1.25,1.661,2.105l2.385,2.582
				c1.195,1.295,2.098,2.605,2.706,3.932c0.609,1.327,0.913,2.775,0.913,4.344c0,2.708-0.455,4.71-1.365,6.004
				s-2.503,1.941-4.778,1.941c-2.276,0-3.86-0.722-4.754-2.163C149.659,203.478,149.213,201.374,149.213,198.61z"/>
			</g>
			<g>
				<path d="M175.401,205.067c-0.998,1.344-2.566,2.016-4.705,2.016s-3.737-0.716-4.795-2.147c-1.059-1.431-1.588-3.489-1.588-6.177
				v-12.617c0-4.31,1.13-7.002,3.389-8.077c0.834-0.395,1.843-0.592,3.027-0.592c4.068,0,6.103,2.565,6.103,7.698v3.981h-4.261
				v-3.702c0-1.491-0.126-2.558-0.378-3.199c-0.253-0.642-0.746-0.962-1.48-0.962c-0.735,0-1.245,0.34-1.53,1.02
				c-0.285,0.681-0.428,1.722-0.428,3.126v13.521c0,1.558,0.138,2.671,0.411,3.34c0.274,0.669,0.773,1.003,1.497,1.003
				c0.725,0,1.223-0.34,1.497-1.02s0.411-1.804,0.411-3.372v-4.146h4.327v4.096C176.898,201.654,176.398,203.725,175.401,205.067z"
				/>
			</g>
			<g>
				<path d="M180.484,206.754v-28.952h4.408v11.712h3.948v-11.712h4.409v28.952h-4.409v-13.456h-3.948v13.456H180.484z"/>
			</g>
			<g>
				<path d="M197.593,206.754v-28.952h9.705v3.8h-5.297v8.422h5.034v3.718h-5.034v9.213h5.494v3.8h-9.902V206.754z"/>
			</g>
			<g>
				<path d="M216.839,193.149l-1.414-0.065v13.67h-4.409v-28.952h7.288c1.513,0,2.643,0.304,3.389,0.912
				c0.745,0.609,1.236,1.459,1.472,2.55c0.236,1.092,0.354,2.518,0.354,4.277c0,1.761-0.187,3.101-0.559,4.022
				c-0.373,0.921-1.064,1.541-2.073,1.858c0.998,0.176,1.694,0.851,2.09,2.023c0.395,1.174,0.592,3.616,0.592,7.329
				c0,3.712,0.055,5.705,0.164,5.979h-4.408c-0.109-0.22-0.164-3.68-0.164-10.38c0-1.283-0.154-2.136-0.461-2.559
				C218.391,193.394,217.771,193.172,216.839,193.149z M215.441,189.662h1.76c0.56,0,0.973-0.126,1.242-0.379
				c0.269-0.252,0.455-0.685,0.56-1.299c0.104-0.614,0.156-1.552,0.156-2.813v-0.181c0-1.568-0.132-2.594-0.396-3.076
				c-0.263-0.482-0.871-0.724-1.826-0.724h-1.496V189.662z"/>
			</g>
			<g>
				<path d="M22.999,240.754v-28.952h4.409v25.201h5.577v3.751L22.999,240.754L22.999,240.754z"/>
			</g>
			<g>
				<path d="M35.682,240.754v-28.952h4.409v28.952H35.682z"/>
			</g>
			<g>
				<path d="M50.042,241.05c-1.82,0-3.243-0.716-4.269-2.146c-1.025-1.432-1.538-3.639-1.538-6.621v-12.585
				c0-2.676,0.523-4.716,1.571-6.119c1.047-1.404,2.711-2.105,4.993-2.105c2.84,0,4.645,1.059,5.412,3.175
				c0.461,1.272,0.691,3.01,0.691,5.215v2.056H52.79v-3.026c0-1.327-0.14-2.26-0.419-2.797c-0.28-0.537-0.806-0.806-1.58-0.806
				c-0.773,0-1.319,0.32-1.637,0.962s-0.477,1.779-0.477,3.413v12.552c0,1.897,0.143,3.219,0.428,3.965s0.842,1.118,1.67,1.118
				s1.415-0.4,1.76-1.2c0.345-0.801,0.518-2.149,0.518-4.047v-3.899h-2.221v-3.207h6.07v15.809h-1.974l-0.674-2.846
				c-0.23,0.976-0.735,1.743-1.513,2.303C51.962,240.771,51.062,241.05,50.042,241.05z"/>
			</g>
			<g>
				<path d="M59.732,240.754l4.129-28.952h5.823l4.393,28.952h-4.113l-0.691-5.166h-4.672l-0.625,5.166H59.732z M68.812,232.052
				l-1.941-14.542h-0.065l-1.777,14.542H68.812z"/>
			</g>
			<g>
				<path d="M77.103,240.754v-28.952h6.646c2.248,0,3.786,0.683,4.614,2.048c0.828,1.365,1.264,3.402,1.308,6.111v0.608
				c0,2.873-0.409,5.053-1.226,6.539s-2.333,2.229-4.548,2.229h-2.385v11.417H77.103z M81.512,225.702h1.513
				c0.932,0,1.538-0.359,1.818-1.078c0.28-0.718,0.419-2.086,0.419-4.104v-0.559c-0.011-1.711-0.162-2.934-0.452-3.669
				c-0.291-0.734-0.875-1.102-1.752-1.102h-1.546V225.702z"/>
			</g>
			<g>
				<path d="M103.555,238.993c-1.009,1.394-2.624,2.09-4.844,2.09c-2.221,0-3.85-0.699-4.886-2.098
				c-1.037-1.398-1.555-3.507-1.555-6.325v-13.242c0-5.308,2.166-7.962,6.498-7.962c2.237,0,3.847,0.674,4.828,2.023
				s1.473,3.328,1.473,5.938v13.242C105.069,235.489,104.564,237.601,103.555,238.993z M97.099,236.263
				c0.257,0.669,0.787,1.004,1.587,1.004c0.8,0,1.327-0.343,1.579-1.028s0.378-1.861,0.378-3.528v-13.489
				c0-1.371-0.129-2.372-0.387-3.003c-0.258-0.63-0.762-0.945-1.513-0.945s-1.278,0.315-1.579,0.945
				c-0.302,0.631-0.453,1.626-0.453,2.986v13.506C96.712,234.409,96.841,235.594,97.099,236.263z"/>
			</g>
			<g>
				<path d="M109.066,240.754v-28.952h4.409v13.324l4.409-13.324h4.557l-4.803,14.278l5.182,14.674h-4.655l-4.656-13.522v13.522
				H109.066z"/>
			</g>
			<g>
				<path d="M123.707,240.754l4.129-28.952h5.823l4.393,28.952h-4.112l-0.691-5.166h-4.672l-0.625,5.166H123.707z M132.787,232.052
				l-1.941-14.542h-0.065l-1.777,14.542H132.787z"/>
			</g>
			<g>
				<path d="M141.078,240.754v-28.952h4.408v25.201h5.577v3.751L141.078,240.754L141.078,240.754z"/>
			</g>
			<g>
				<path d="M152.889,232.61v-2.582h4.179v2.911c0,1.612,0.137,2.745,0.411,3.397s0.79,0.979,1.546,0.979
				c0.757,0,1.259-0.269,1.506-0.806c0.246-0.537,0.37-1.415,0.37-2.632c0-1.218-0.22-2.278-0.658-3.184
				c-0.438-0.904-1.135-1.851-2.089-2.838l-2.139-2.204c-0.998-1.042-1.774-2.122-2.328-3.24c-0.554-1.119-0.83-2.413-0.83-3.883
				c0-2.391,0.46-4.167,1.382-5.33c0.921-1.162,2.505-1.743,4.754-1.743c2.248,0,3.77,0.677,4.564,2.031s1.192,3.331,1.192,5.931
				v1.793h-4.062v-2.073c0-1.403-0.121-2.409-0.362-3.019c-0.241-0.608-0.705-0.913-1.39-0.913c-0.686,0-1.18,0.23-1.48,0.691
				c-0.302,0.461-0.453,1.151-0.453,2.072c0,0.922,0.154,1.656,0.461,2.205c0.307,0.548,0.861,1.25,1.661,2.105l2.386,2.582
				c1.195,1.295,2.098,2.605,2.706,3.932c0.608,1.327,0.913,2.775,0.913,4.344c0,2.708-0.455,4.71-1.365,6.004
				c-0.911,1.294-2.504,1.941-4.779,1.941s-3.86-0.722-4.754-2.163C153.336,237.478,152.889,235.374,152.889,232.61z"/>
			</g>
			<g>
				<path d="M168.517,240.754v-28.952h4.409v28.952H168.517z"/>
			</g>
			<g>
				<path d="M177.433,240.754v-28.952h9.706v3.8h-5.297v8.422h5.033v3.718h-5.033v9.213h5.494v3.8h-9.903V240.754z"/>
			</g>
			<g>
				<path d="M196.301,241.05c-1.82,0-3.243-0.716-4.269-2.146c-1.025-1.432-1.538-3.639-1.538-6.621v-12.585
				c0-2.676,0.523-4.716,1.571-6.119c1.047-1.404,2.711-2.105,4.992-2.105c2.841,0,4.645,1.059,5.412,3.175
				c0.461,1.272,0.691,3.01,0.691,5.215v2.056h-4.112v-3.026c0-1.327-0.141-2.26-0.42-2.797s-0.806-0.806-1.579-0.806
				s-1.319,0.32-1.637,0.962s-0.478,1.779-0.478,3.413v12.552c0,1.897,0.143,3.219,0.428,3.965s0.842,1.118,1.67,1.118
				s1.415-0.4,1.761-1.2c0.345-0.801,0.518-2.149,0.518-4.047v-3.899h-2.221v-3.207h6.07v15.809h-1.975l-0.674-2.846
				c-0.23,0.976-0.735,1.743-1.514,2.303S197.321,241.05,196.301,241.05z"/>
			</g>
			<g>
				<path d="M207.307,240.754v-28.952h9.705v3.8h-5.297v8.422h5.034v3.718h-5.034v9.213h5.494v3.8h-9.902V240.754z"/>
			</g>
			<g>
				<path d="M226.553,227.149l-1.414-0.065v13.67h-4.409v-28.952h7.288c1.513,0,2.643,0.304,3.389,0.912
				c0.745,0.609,1.236,1.459,1.472,2.55c0.236,1.092,0.354,2.518,0.354,4.277c0,1.761-0.187,3.101-0.559,4.022
				c-0.373,0.921-1.064,1.541-2.073,1.858c0.998,0.176,1.694,0.851,2.09,2.023c0.395,1.174,0.592,3.616,0.592,7.329
				c0,3.712,0.055,5.705,0.164,5.979h-4.408c-0.109-0.22-0.164-3.68-0.164-10.38c0-1.283-0.154-2.136-0.461-2.559
				C228.104,227.394,227.485,227.172,226.553,227.149z M225.155,223.662h1.76c0.56,0,0.973-0.126,1.242-0.379
				c0.269-0.252,0.455-0.685,0.56-1.299c0.104-0.614,0.156-1.552,0.156-2.813v-0.181c0-1.568-0.132-2.594-0.396-3.076
				c-0.263-0.482-0.871-0.724-1.826-0.724h-1.496V223.662z"/>
			</g>
		</g>
	</g>
</svg>