<?xml version="1.0" encoding="utf-8"?>
<!-- Generator: Adobe Illustrator 17.0.0, SVG Export Plug-In . SVG Version: 6.00 Build 0)  -->
<!DOCTYPE svg PUBLIC "-//W3C//DTD SVG 1.1//EN" "http://www.w3.org/Graphics/SVG/1.1/DTD/svg11.dtd">
<svg version="1.1" id="Layer_1" xmlns="http://www.w3.org/2000/svg" xmlns:xlink="http://www.w3.org/1999/xlink" x="0px" y="0px"
	 width="256px" height="256px" viewBox="0 0 256 256" enable-background="new 0 0 256 256" xml:space="preserve">
	<polygon fill="#FFFF00" points="128,188.6 53.1,243.2 82,155.1 6.8,100.8 99.5,101 128,12.8 156.5,101 249.2,100.8 174,155.1 
	202.9,243.2 "/>
	<path fill="#FFFFFF" d="M192,10.3c-17.1,0-32.4,8-42.3,20.6h-0.3v0.3c-7.1,9.1-11.4,20.6-11.4,33c0,29.7,24.2,53.9,53.9,53.9
	s53.9-24.2,53.9-53.9S221.7,10.3,192,10.3z"/>
	<path d="M192,10.3c-17.1,0-32.4,8-42.3,20.6h-0.3v0.3c-7.1,9.1-11.4,20.6-11.4,33c0,29.7,24.2,53.9,53.9,53.9s53.9-24.2,53.9-53.9
	S221.7,10.3,192,10.3z M208.6,100.9l-23.1-3L183.7,78l17.6-10.7L217,82.4L208.6,100.9z M171.2,103.3L151.9,89l-2.1-14.7l11.8-7.4
	L181.5,78l1.9,20.2L171.2,103.3z M149.1,72.2L142,57.4l9.3-15.3l9.7,2l-0.2,20.8L149.1,72.2z M188.3,19l21.3,2.9l7.3,13.6l-16.1,7.9
	l-16.5-11.5L188.3,19z M231.4,74.4l-12.6,6.7l-16.9-16.2l0.2-19.7l16-7.9L232.3,50L231.4,74.4z M233.5,74.9l1-24.5l7.1-0.9
	c1.4,4.7,2.1,9.6,2.1,14.7c0,4.6-0.6,9-1.7,13.2L233.5,74.9z M240.9,47.4l-7.1,0.9l-14.6-13.1L212,21.9l6.1-2.4
	C228.7,25.7,236.9,35.6,240.9,47.4z M178.8,14.2l7.4,4.1L182,32.1L162.3,42l-10.5-2.1l-0.2-8.1C158.5,23.4,167.9,17,178.8,14.2z
	 M149.7,40.5l-8.5,14.1c1.4-7.3,4.3-14.1,8.4-20L149.7,40.5z M140.5,59.2l7.1,14.9l2.1,14.8l-2.9,0.4c-4.1-7.4-6.5-16-6.5-25.1
	C140.3,62.5,140.4,60.8,140.5,59.2z M172.4,112.1l-0.2-6.8l12.5-5.3l23.9,3.1l4.4,8.4c-6.4,2.9-13.5,4.5-21,4.5
	C185.1,115.9,178.5,114.5,172.4,112.1z"/>
	<g>
		<path fill="none" stroke="#000000" stroke-width="3" stroke-miterlimit="10" d="M157.6,137"/>
		<path fill="#FF0000" d="M157.6,137"/>
	</g>
	<g>
		<path fill="#FFFFFF" d="M212.388,170.808c20.039-10.411,33.163-32.569,33.902-35.906c0.74-3.337-0.575-4.06-2.933-6.453
		c-2.359-2.393-7.028-0.419-7.028-0.419s-20.911,17.807-30.72,24.851c-9.895,7.157-51.671,18.828-57.29,21.946
		c-5.618,3.118-44.795,16.744-51.241,25.433c0.081,2.715-1.667,9.629,5.197,6.031S179.344,187.807,212.388,170.808z"/>
		<g>
			<path fill="none" stroke="#000000" stroke-width="3" stroke-miterlimit="10" d="M182.993,143.66
			c3.324-0.774,6.041-1.562,8.092-2.054c4.371-1.225,9.408-2.746,16.058-5c8.758-3.058,18.424-8.264,22.031-9.178
			c6.338-1.604,12.332,0.072,12.332,0.072c2.939,2.21-20.886,20.833-26.605,25.379c-14.723,11.578-61.28,23.723-94.758,37.653
			c-11.928,4.92-17.096,9.793-17.096,9.793s9.225-3.326,15.761-4.958c14.515-3.772,77.932-18.101,94.138-28.475
			c20.919-13.465,31.196-32.19,31.229-35.528c5.209,7.544,1.792,14.088-1.212,18.553c-3.018,4.366-0.489,6.533-1.735,7.719
			c-0.694,0.805-4.299-0.401-7.287,2.748c-2.988,3.15-4.024,5.821-7.705,9.069c-3.695,3.149-0.602,6.448-2.939,9.203
			c-2.351,2.656-5.131-2.001-8.655,0.215c-3.51,2.315-5.52,3.811-11.662,6.802c-6.042,2.976-2.229,7.082-4.579,8.324
			c-2.222,1.426-6.67-4.308-11.297-2.037s-22.476,14.594-28.605,18.391c-6.227,3.81-0.991,12.26-2.945,14.153
			c-1.246,1.186-5.625-2.638-9.571-2.685c-2.319,0.025-4.513,1.649-6.751,3.682c-5.989,5.494-0.481,10.875-3.057,12.653
			c-2.576,1.779-4.538-1.378-9.175-2.741s-8.473,1.502-13.431-2.846c-23.831-20.664-20.365-43.98-20.365-43.98
			c1.602-2.954,2.605-2.288,7.384-1.348c4.765,0.84,12.91,1.303,18.742-3.158c5.733-4.447,11.674-15.994,10.959-21.044
			s-2.238-8.672,4.367-9.102c2.701-0.18,10.679-1.613,19.903-3.524l4.215-0.9C161.165,148.568,161.165,148.568,182.993,143.66z"/>
			<path fill="#978300" d="M182.993,143.66c3.324-0.774,6.041-1.562,8.092-2.054c4.371-1.225,9.408-2.746,16.058-5
			c8.758-3.058,18.424-8.264,22.031-9.178c6.338-1.604,12.332,0.072,12.332,0.072c2.939,2.21-20.886,20.833-26.605,25.379
			c-14.723,11.578-61.28,23.723-94.758,37.653c-11.928,4.92-17.096,9.793-17.096,9.793s9.225-3.326,15.761-4.958
			c14.515-3.772,77.932-18.101,94.138-28.475c20.919-13.465,31.196-32.19,31.229-35.528c5.209,7.544,1.792,14.088-1.212,18.553
			c-3.018,4.366-0.489,6.533-1.735,7.719c-0.694,0.805-4.299-0.401-7.287,2.748c-2.988,3.15-4.024,5.821-7.705,9.069
			c-3.695,3.149-0.602,6.448-2.939,9.203c-2.351,2.656-5.131-2.001-8.655,0.215c-3.51,2.315-5.52,3.811-11.662,6.802
			c-6.042,2.976-2.229,7.082-4.579,8.324c-2.222,1.426-6.67-4.308-11.297-2.037s-22.476,14.594-28.605,18.391
			c-6.227,3.81-0.991,12.26-2.945,14.153c-1.246,1.186-5.625-2.638-9.571-2.685c-2.319,0.025-4.513,1.649-6.751,3.682
			c-5.989,5.494-0.481,10.875-3.057,12.653c-2.576,1.779-4.538-1.378-9.175-2.741s-8.473,1.502-13.431-2.846
			c-23.831-20.664-20.365-43.98-20.365-43.98c1.602-2.954,2.605-2.288,7.384-1.348c4.765,0.84,12.91,1.303,18.742-3.158
			c5.733-4.447,11.674-15.994,10.959-21.044s-2.238-8.672,4.367-9.102c2.701-0.18,10.679-1.613,19.903-3.524l4.215-0.9
			C161.165,148.568,161.165,148.568,182.993,143.66z"/>
		</g>
		<g>
			<g>
				<g>
					<path fill="none" stroke="#1D1D1B" stroke-width="3" d="M154.725,163.72c-0.198,0.028-0.396,0.056-0.608-0.015
					c-1.046-0.256-1.794-1.261-1.638-2.293l2.762-14.733c0.256-1.046,1.261-1.794,2.293-1.638c1.046,0.256,1.794,1.261,1.638,2.293
					l-2.762,14.733C156.24,163.001,155.518,163.608,154.725,163.72z"/>
				</g>
				<g>
					<path fill="none" stroke="#1D1D1B" stroke-width="3" d="M163.781,159.913c-0.198,0.028-0.396,0.056-0.608-0.015
					c-1.046-0.256-1.794-1.261-1.638-2.293l2.165-11.82c0.256-1.046,1.261-1.794,2.293-1.638c1.046,0.256,1.794,1.261,1.638,2.293
					l-2.165,11.82C165.295,159.194,164.573,159.801,163.781,159.913z"/>
				</g>
				<g>
					<path fill="none" stroke="#1D1D1B" stroke-width="3" d="M171.379,157.222c-0.198,0.028-0.396,0.056-0.608-0.015
					c-1.046-0.256-1.794-1.261-1.638-2.293l2.051-11.198c0.256-1.046,1.261-1.794,2.293-1.638c1.046,0.256,1.794,1.261,1.638,2.293
					l-2.051,11.198C172.893,156.502,172.171,157.109,171.379,157.222z"/>
				</g>
				<g>
					<path fill="none" stroke="#1D1D1B" stroke-width="3" d="M179.927,152.679c-0.198,0.028-0.396,0.056-0.608-0.015
					c-1.046-0.256-1.794-1.261-1.638-2.293l1.666-8.922c0.256-1.046,1.261-1.794,2.293-1.638c1.046,0.256,1.794,1.261,1.638,2.293
					l-1.666,8.922C181.441,151.959,180.719,152.567,179.927,152.679z"/>
				</g>
			</g>
			<g>
				<g>
					<path fill="#FFFF00" d="M154.725,163.72c-0.198,0.028-0.396,0.056-0.608-0.015c-1.046-0.256-1.794-1.261-1.638-2.293
					l2.762-14.733c0.256-1.046,1.261-1.794,2.293-1.638c1.046,0.256,1.794,1.261,1.638,2.293l-2.762,14.733
					C156.24,163.001,155.518,163.608,154.725,163.72z"/>
				</g>
				<g>
					<path fill="#FFFF00" d="M163.781,159.913c-0.198,0.028-0.396,0.056-0.608-0.015c-1.046-0.256-1.794-1.261-1.638-2.293
					l2.165-11.82c0.256-1.046,1.261-1.794,2.293-1.638c1.046,0.256,1.794,1.261,1.638,2.293l-2.165,11.82
					C165.295,159.194,164.573,159.801,163.781,159.913z"/>
				</g>
				<g>
					<path fill="#FFFF00" d="M171.379,157.222c-0.198,0.028-0.396,0.056-0.608-0.015c-1.046-0.256-1.794-1.261-1.638-2.293
					l2.051-11.198c0.256-1.046,1.261-1.794,2.293-1.638c1.046,0.256,1.794,1.261,1.638,2.293l-2.051,11.198
					C172.893,156.502,172.171,157.109,171.379,157.222z"/>
				</g>
				<g>
					<path fill="#FFFF00" d="M179.927,152.679c-0.198,0.028-0.396,0.056-0.608-0.015c-1.046-0.256-1.794-1.261-1.638-2.293
					l1.666-8.922c0.256-1.046,1.261-1.794,2.293-1.638c1.046,0.256,1.794,1.261,1.638,2.293l-1.666,8.922
					C181.441,151.959,180.719,152.567,179.927,152.679z"/>
				</g>
			</g>
		</g>
	</g>
	<g>
		<path fill="#216B41" d="M153.4,51c-1.6,4.4-2.5,9.2-2.5,14.2s0.9,9.8,2.5,14.2l38.4,3.6l38.4-3.6c1.6-4.4,2.5-9.2,2.5-14.2
		s-0.9-9.8-2.5-14.2l-38.4-3.6L153.4,51z"/>
		<path fill="#F3BE00" d="M191.8,24.3c-17.6,0-32.6,11.1-38.4,26.7h76.8C224.5,35.4,209.4,24.3,191.8,24.3z"/>
		<path fill="#B62C2A" d="M191.8,106.2c17.6,0,32.6-11.1,38.4-26.7h-76.8C159.2,95.1,174.2,106.2,191.8,106.2z"/>
	</g>
	<ellipse fill="none" stroke="#000000" stroke-width="1.4754" stroke-miterlimit="10" cx="191.6" cy="65.2" rx="40.8" ry="40.6"/>
	<g>
		<path d="M21.623,125.833v-17.188h2.617v14.961h3.311v2.227H21.623z"/>
		<path d="M29.152,125.833v-17.188h2.617v17.188C31.769,125.833,29.152,125.833,29.152,125.833z"/>
		<path d="M35.324,125.833v-14.922h-2.012v-2.266h6.553v2.266h-1.934v14.922H35.324z"/>
		<path d="M40.529,125.833l2.451-17.188h3.457l2.607,17.188h-2.441l-0.41-3.066H43.42l-0.371,3.066
		C43.049,125.833,40.529,125.833,40.529,125.833z M45.919,120.667l-1.152-8.633h-0.039l-1.055,8.633H45.919z"/>
		<path d="M57.316,124.911c-0.599,0.746-1.561,1.118-2.886,1.118s-2.289-0.375-2.891-1.123s-0.903-1.911-0.903-3.486v-12.783h2.617
		v12.734c0,0.905,0.042,1.455,0.127,1.65s0.187,0.373,0.308,0.532s0.37,0.239,0.747,0.239s0.648-0.111,0.811-0.332
		s0.262-0.497,0.298-0.825s0.054-0.75,0.054-1.265v-12.734h2.617v12.783C58.214,123.001,57.915,124.165,57.316,124.911z"/>
		<path d="M60.792,125.833v-17.188h2.617v17.188C63.409,125.833,60.792,125.833,60.792,125.833z"/>
		<path d="M65.744,121v-1.533h2.48v1.729c0,0.957,0.082,1.629,0.244,2.017s0.469,0.581,0.918,0.581s0.747-0.16,0.894-0.479
		s0.22-0.84,0.22-1.562s-0.13-1.353-0.391-1.89s-0.674-1.099-1.24-1.685l-1.27-1.309c-0.592-0.619-1.053-1.26-1.382-1.924
		s-0.493-1.432-0.493-2.305c0-1.419,0.273-2.474,0.82-3.164s1.488-1.035,2.822-1.035s2.238,0.402,2.71,1.206
		s0.708,1.978,0.708,3.521v1.064h-2.412v-1.23c0-0.833-0.072-1.431-0.215-1.792s-0.418-0.542-0.825-0.542s-0.7,0.137-0.879,0.41
		s-0.269,0.684-0.269,1.23s0.091,0.983,0.273,1.309s0.511,0.742,0.986,1.25l1.416,1.533c0.709,0.768,1.245,1.546,1.606,2.334
		s0.542,1.647,0.542,2.578c0,1.608-0.27,2.796-0.811,3.564s-1.486,1.152-2.837,1.152s-2.292-0.428-2.822-1.284
		S65.744,122.64,65.744,121z"/>
		<path d="M81.291,124.833c-0.592,0.797-1.523,1.196-2.793,1.196s-2.218-0.425-2.847-1.274s-0.942-2.072-0.942-3.667v-7.49
		c0-2.559,0.67-4.157,2.012-4.795c0.495-0.234,1.094-0.352,1.797-0.352c2.416,0,3.623,1.523,3.623,4.57v2.363h-2.529v-2.197
		c0-0.885-0.075-1.519-0.225-1.899s-0.443-0.571-0.879-0.571s-0.739,0.202-0.908,0.605s-0.254,1.022-0.254,1.855v8.027
		c0,0.924,0.082,1.585,0.244,1.982s0.459,0.596,0.889,0.596s0.726-0.202,0.889-0.605s0.244-1.071,0.244-2.002v-2.461h2.568v2.432
		C82.179,122.806,81.883,124.035,81.291,124.833z"/>
		<path d="M84.308,125.833v-17.188h2.617v6.953h2.344v-6.953h2.617v17.188h-2.617v-7.988h-2.344v7.988
		C86.925,125.833,84.308,125.833,84.308,125.833z"/>
		<path d="M94.464,125.833v-17.188h5.762v2.256h-3.145v5h2.988v2.207h-2.988v5.469h3.262v2.256H94.464z"/>
		<path d="M105.89,117.757l-0.84-0.039v8.115h-2.617v-17.188h4.326c0.898,0,1.569,0.181,2.012,0.542s0.734,0.866,0.874,1.514
		s0.21,1.494,0.21,2.539s-0.111,1.841-0.332,2.388s-0.631,0.915-1.23,1.104c0.592,0.104,1.006,0.504,1.24,1.201
		s0.352,2.147,0.352,4.351s0.033,3.387,0.098,3.55h-2.617c-0.065-0.13-0.098-2.184-0.098-6.162c0-0.762-0.091-1.268-0.273-1.519
		S106.443,117.771,105.89,117.757z M105.06,115.687h1.045c0.332,0,0.578-0.075,0.737-0.225s0.27-0.407,0.332-0.771
		s0.093-0.921,0.093-1.67v-0.107c0-0.931-0.078-1.54-0.234-1.826s-0.518-0.43-1.084-0.43h-0.889V115.687z"/>
		<path d="M21.613,149.833v-17.188h5.898v2.275H24.23v4.57h3.047v2.285H24.23v8.057L21.613,149.833L21.613,149.833z"/>
		<path d="M35.978,148.91c-0.599,0.746-1.561,1.118-2.886,1.118s-2.289-0.374-2.891-1.123c-0.602-0.748-0.903-1.91-0.903-3.486
		v-12.783h2.617v12.734c0,0.905,0.042,1.455,0.127,1.65c0.085,0.195,0.187,0.373,0.308,0.532c0.121,0.16,0.37,0.239,0.747,0.239
		s0.648-0.11,0.811-0.332c0.163-0.221,0.262-0.496,0.298-0.825c0.036-0.328,0.054-0.75,0.054-1.265v-12.734h2.617v12.783
		C36.876,147.001,36.577,148.165,35.978,148.91z"/>
		<path d="M39.015,144.999v-1.533h2.48v1.729c0,0.957,0.082,1.63,0.244,2.017c0.163,0.388,0.469,0.581,0.918,0.581
		s0.747-0.159,0.894-0.479c0.146-0.318,0.22-0.84,0.22-1.562s-0.13-1.353-0.391-1.89s-0.674-1.099-1.24-1.685l-1.27-1.309
		c-0.592-0.618-1.053-1.26-1.382-1.924s-0.493-1.432-0.493-2.305c0-1.419,0.273-2.474,0.82-3.164
		c0.547-0.689,1.488-1.035,2.822-1.035s2.238,0.402,2.71,1.206c0.472,0.805,0.708,1.978,0.708,3.521v1.064h-2.412v-1.23
		c0-0.833-0.072-1.431-0.215-1.792s-0.418-0.542-0.825-0.542s-0.7,0.137-0.879,0.41s-0.269,0.684-0.269,1.23
		s0.091,0.983,0.273,1.309s0.511,0.742,0.986,1.25l1.416,1.533c0.709,0.769,1.245,1.547,1.606,2.334
		c0.361,0.788,0.542,1.647,0.542,2.578c0,1.608-0.27,2.797-0.811,3.564c-0.541,0.769-1.486,1.152-2.837,1.152
		s-2.292-0.428-2.822-1.284C39.28,147.889,39.015,146.64,39.015,144.999z"/>
		<path d="M47.853,144.999v-1.533h2.48v1.729c0,0.957,0.082,1.63,0.244,2.017c0.163,0.388,0.469,0.581,0.918,0.581
		s0.747-0.159,0.894-0.479c0.146-0.318,0.22-0.84,0.22-1.562s-0.13-1.353-0.391-1.89s-0.674-1.099-1.24-1.685l-1.27-1.309
		c-0.592-0.618-1.053-1.26-1.382-1.924s-0.493-1.432-0.493-2.305c0-1.419,0.273-2.474,0.82-3.164
		c0.547-0.689,1.488-1.035,2.822-1.035s2.238,0.402,2.71,1.206c0.472,0.805,0.708,1.978,0.708,3.521v1.064h-2.412v-1.23
		c0-0.833-0.072-1.431-0.215-1.792s-0.418-0.542-0.825-0.542s-0.7,0.137-0.879,0.41s-0.269,0.684-0.269,1.23
		s0.091,0.983,0.273,1.309s0.511,0.742,0.986,1.25l1.416,1.533c0.709,0.769,1.245,1.547,1.606,2.334
		c0.361,0.788,0.542,1.647,0.542,2.578c0,1.608-0.27,2.797-0.811,3.564c-0.541,0.769-1.486,1.152-2.837,1.152
		s-2.292-0.428-2.822-1.284C48.118,147.889,47.853,146.64,47.853,144.999z"/>
		<path d="M64.386,137.06c0,1.85-0.501,2.985-1.504,3.408c1.224,0.41,1.836,1.762,1.836,4.053v0.439
		c-0.013,1.726-0.314,2.969-0.903,3.73s-1.551,1.143-2.886,1.143H57.13v-17.188h3.721c1.283,0,2.191,0.298,2.725,0.894
		s0.804,1.594,0.811,2.993L64.386,137.06L64.386,137.06z M59.748,139.599h0.967c0.449,0,0.744-0.143,0.884-0.43
		c0.14-0.286,0.21-0.875,0.21-1.768v-1.035c-0.006-0.664-0.098-1.108-0.273-1.333s-0.479-0.337-0.908-0.337h-0.879L59.748,139.599
		L59.748,139.599z M59.748,147.802h0.928c0.521,0,0.885-0.179,1.094-0.537c0.208-0.357,0.312-0.999,0.312-1.924v-1.387
		c0-0.872-0.084-1.489-0.254-1.851s-0.495-0.542-0.977-0.542h-1.104L59.748,147.802L59.748,147.802z"/>
		<path d="M65.978,149.833l2.451-17.188h3.457l2.607,17.188h-2.441l-0.41-3.066h-2.773l-0.371,3.066H65.978z M71.369,144.667
		l-1.152-8.633h-0.039l-1.055,8.633H71.369z"/>
		<path d="M76.291,149.833v-17.188h2.617v14.961h3.311v2.227H76.291z"/>
		<path d="M83.722,149.833v-17.188h2.617v14.961h3.311v2.227H83.722z"/>
		<path d="M91.154,149.833v-17.188h5.762v2.256h-3.145v5h2.988v2.207h-2.988v5.469h3.262v2.256L91.154,149.833L91.154,149.833z"/>
		<path d="M102.58,141.757l-0.84-0.039v8.115h-2.617v-17.188h4.326c0.898,0,1.569,0.181,2.012,0.542s0.734,0.866,0.874,1.514
		c0.14,0.648,0.21,1.494,0.21,2.539s-0.111,1.841-0.332,2.388s-0.631,0.915-1.23,1.104c0.592,0.104,1.006,0.505,1.24,1.201
		c0.234,0.697,0.352,2.147,0.352,4.351s0.033,3.388,0.098,3.55h-2.617c-0.065-0.13-0.098-2.184-0.098-6.162
		c0-0.762-0.091-1.268-0.273-1.519C103.501,141.902,103.133,141.771,102.58,141.757z M101.75,139.687h1.045
		c0.332,0,0.578-0.074,0.737-0.225c0.16-0.149,0.27-0.406,0.332-0.771c0.062-0.364,0.093-0.921,0.093-1.67v-0.107
		c0-0.931-0.078-1.539-0.234-1.826c-0.156-0.286-0.518-0.43-1.084-0.43h-0.889V139.687z"/>
		<path d="M21.613,173.833v-17.188h3.857c1.263,0,2.179,0.373,2.749,1.118c0.57,0.746,0.854,1.845,0.854,3.296l0.01,7.754
		c0,1.732-0.287,3.002-0.859,3.809c-0.573,0.808-1.52,1.211-2.842,1.211H21.613z M24.23,171.802h0.859
		c0.482,0,0.832-0.156,1.05-0.469s0.327-0.885,0.327-1.719l-0.01-8.486c0-0.892-0.109-1.526-0.327-1.904
		c-0.218-0.377-0.594-0.566-1.128-0.566H24.23V171.802z"/>
		<path d="M31.437,173.833v-17.188h5.762v2.256h-3.145v5h2.988v2.207h-2.988v5.469h3.262v2.256L31.437,173.833L31.437,173.833z"/>
		<path d="M39.064,168.999v-1.533h2.48v1.729c0,0.957,0.082,1.63,0.244,2.017c0.163,0.388,0.469,0.581,0.918,0.581
		s0.747-0.159,0.894-0.479c0.146-0.318,0.22-0.84,0.22-1.562s-0.13-1.353-0.391-1.89s-0.674-1.099-1.24-1.685l-1.27-1.309
		c-0.592-0.618-1.053-1.26-1.382-1.924s-0.493-1.432-0.493-2.305c0-1.419,0.273-2.474,0.82-3.164
		c0.547-0.689,1.488-1.035,2.822-1.035s2.238,0.402,2.71,1.206c0.472,0.805,0.708,1.978,0.708,3.521v1.064h-2.412v-1.23
		c0-0.833-0.072-1.431-0.215-1.792s-0.418-0.542-0.825-0.542s-0.7,0.137-0.879,0.41s-0.269,0.684-0.269,1.23
		s0.091,0.983,0.273,1.309s0.511,0.742,0.986,1.25l1.416,1.533c0.709,0.769,1.245,1.547,1.606,2.334
		c0.361,0.788,0.542,1.647,0.542,2.578c0,1.608-0.27,2.797-0.811,3.564c-0.541,0.769-1.486,1.152-2.837,1.152
		s-2.292-0.428-2.822-1.284C39.329,171.889,39.064,170.64,39.064,168.999z"/>
		<path d="M57.365,172.881c-0.619,0.766-1.489,1.147-2.612,1.147s-1.996-0.34-2.617-1.021c-0.622-0.68-0.933-1.671-0.933-2.974
		v-3.066h2.529v2.939c0,0.951,0.153,1.53,0.459,1.738c0.137,0.092,0.306,0.137,0.508,0.137c0.397,0,0.659-0.162,0.786-0.488
		c0.127-0.325,0.19-0.84,0.19-1.543v-13.105h2.617v12.979C58.292,171.03,57.983,172.116,57.365,172.881z"/>
		<path d="M59.992,173.833l2.451-17.188H65.9l2.607,17.188h-2.441l-0.41-3.066h-2.773l-0.371,3.066H59.992z M65.382,168.667
		l-1.152-8.633h-0.039l-1.055,8.633H65.382z"/>
		<path d="M70.304,173.833v-17.188h2.617v6.953h2.344v-6.953h2.617v17.188h-2.617v-7.988h-2.344v7.988H70.304z"/>
		<path d="M83.917,165.757l-0.84-0.039v8.115H80.46v-17.188h4.326c0.898,0,1.569,0.181,2.012,0.542s0.734,0.866,0.874,1.514
		c0.14,0.648,0.21,1.494,0.21,2.539s-0.111,1.841-0.332,2.388s-0.631,0.915-1.23,1.104c0.592,0.104,1.006,0.505,1.24,1.201
		c0.234,0.697,0.352,2.147,0.352,4.351s0.033,3.388,0.098,3.55h-2.617c-0.065-0.13-0.098-2.184-0.098-6.162
		c0-0.762-0.091-1.268-0.273-1.519C84.839,165.902,84.471,165.771,83.917,165.757z M83.087,163.687h1.045
		c0.332,0,0.578-0.074,0.737-0.225c0.16-0.149,0.27-0.406,0.332-0.771c0.062-0.364,0.093-0.921,0.093-1.67v-0.107
		c0-0.931-0.078-1.539-0.234-1.826c-0.156-0.286-0.518-0.43-1.084-0.43h-0.889V163.687z"/>
		<path d="M90.324,173.833v-17.188h5.762v2.256h-3.145v5h2.988v2.207h-2.988v5.469h3.262v2.256L90.324,173.833L90.324,173.833z"/>
		<path d="M97.951,168.999v-1.533h2.48v1.729c0,0.957,0.082,1.63,0.244,2.017c0.163,0.388,0.469,0.581,0.918,0.581
		s0.747-0.159,0.894-0.479c0.146-0.318,0.22-0.84,0.22-1.562s-0.13-1.353-0.391-1.89s-0.674-1.099-1.24-1.685l-1.27-1.309
		c-0.592-0.618-1.053-1.26-1.382-1.924s-0.493-1.432-0.493-2.305c0-1.419,0.273-2.474,0.82-3.164
		c0.547-0.689,1.488-1.035,2.822-1.035s2.238,0.402,2.71,1.206c0.472,0.805,0.708,1.978,0.708,3.521v1.064h-2.412v-1.23
		c0-0.833-0.072-1.431-0.215-1.792s-0.418-0.542-0.825-0.542s-0.7,0.137-0.879,0.41s-0.269,0.684-0.269,1.23
		s0.091,0.983,0.273,1.309s0.511,0.742,0.986,1.25l1.416,1.533c0.709,0.769,1.245,1.547,1.606,2.334
		c0.361,0.788,0.542,1.647,0.542,2.578c0,1.608-0.27,2.797-0.811,3.564c-0.541,0.769-1.486,1.152-2.837,1.152
		s-2.292-0.428-2.822-1.284C98.216,171.889,97.951,170.64,97.951,168.999z"/>
	</g>
</svg>