<?xml version="1.0" encoding="utf-8"?>
<!-- Generator: Adobe Illustrator 17.0.0, SVG Export Plug-In . SVG Version: 6.00 Build 0)  -->
<!DOCTYPE svg PUBLIC "-//W3C//DTD SVG 1.1//EN" "http://www.w3.org/Graphics/SVG/1.1/DTD/svg11.dtd">
<svg version="1.1" id="Layer_1" xmlns="http://www.w3.org/2000/svg" xmlns:xlink="http://www.w3.org/1999/xlink" x="0px" y="0px"
	 width="256px" height="256px" viewBox="0 0 256 256" enable-background="new 0 0 256 256" xml:space="preserve">
<polygon fill="#FFFF00" points="128,188.6 53.1,243.2 82,155.1 6.8,100.8 99.5,101 128,12.8 156.5,101 249.2,100.8 174,155.1 
	202.9,243.2 "/>
<path fill="#FFFFFF" d="M192,10.3c-17.1,0-32.4,8-42.3,20.6h-0.3v0.3c-7.1,9.1-11.4,20.6-11.4,33c0,29.7,24.2,53.9,53.9,53.9
	s53.9-24.2,53.9-53.9S221.7,10.3,192,10.3z"/>
<path d="M192,10.3c-17.1,0-32.4,8-42.3,20.6h-0.3v0.3c-7.1,9.1-11.4,20.6-11.4,33c0,29.7,24.2,53.9,53.9,53.9s53.9-24.2,53.9-53.9
	S221.7,10.3,192,10.3z M208.6,100.9l-23.1-3L183.7,78l17.6-10.7L217,82.4L208.6,100.9z M171.2,103.3L151.9,89l-2.1-14.7l11.8-7.4
	L181.5,78l1.9,20.2L171.2,103.3z M149.1,72.2L142,57.4l9.3-15.3l9.7,2l-0.2,20.8L149.1,72.2z M188.3,19l21.3,2.9l7.3,13.6l-16.1,7.9
	l-16.5-11.5L188.3,19z M231.4,74.4l-12.6,6.7l-16.9-16.2l0.2-19.7l16-7.9L232.3,50L231.4,74.4z M233.5,74.9l1-24.5l7.1-0.9
	c1.4,4.7,2.1,9.6,2.1,14.7c0,4.6-0.6,9-1.7,13.2L233.5,74.9z M240.9,47.4l-7.1,0.9l-14.6-13.1L212,21.9l6.1-2.4
	C228.7,25.7,236.9,35.6,240.9,47.4z M178.8,14.2l7.4,4.1L182,32.1L162.3,42l-10.5-2.1l-0.2-8.1C158.5,23.4,167.9,17,178.8,14.2z
	 M149.7,40.5l-8.5,14.1c1.4-7.3,4.3-14.1,8.4-20L149.7,40.5z M140.5,59.2l7.1,14.9l2.1,14.8l-2.9,0.4c-4.1-7.4-6.5-16-6.5-25.1
	C140.3,62.5,140.4,60.8,140.5,59.2z M172.4,112.1l-0.2-6.8l12.5-5.3l23.9,3.1l4.4,8.4c-6.4,2.9-13.5,4.5-21,4.5
	C185.1,115.9,178.5,114.5,172.4,112.1z"/>
<g>
	<path fill="none" stroke="#000000" stroke-width="3" stroke-miterlimit="10" d="M157.6,137"/>
	<path fill="#FF0000" d="M157.6,137"/>
</g>
<g>
	<path fill="#FFFFFF" d="M213.168,171.344c20.025-10.437,33.121-32.612,33.856-35.949c0.735-3.338-0.58-4.059-2.942-6.449
		s-7.029-0.41-7.029-0.41s-20.888,17.833-30.688,24.89c-9.885,7.17-51.647,18.894-57.262,22.019s-44.774,16.801-51.209,25.498
		c0.085,2.715-1.655,9.631,5.204,6.025C109.958,203.362,180.146,188.385,213.168,171.344z"/>
	<g>
		<path fill="none" stroke="#000000" stroke-width="3" stroke-miterlimit="10" d="M183.738,144.234
			c3.323-0.778,6.039-1.57,8.089-2.065c4.37-1.23,9.405-2.758,16.051-5.02c8.754-3.069,18.413-8.287,22.019-9.207
			c6.336-1.612,12.332,0.057,12.332,0.057c2.942,2.206-20.86,20.86-26.573,25.413c-14.708,11.597-61.25,23.801-94.71,37.774
			c-11.922,4.936-17.084,9.815-17.084,9.815s9.221-3.338,15.754-4.978c14.51-3.79,77.909-18.201,94.102-28.595
			c20.902-13.492,31.155-32.23,31.183-35.567c5.218,7.538,1.81,14.086-1.188,18.554c-3.012,4.37-0.481,6.534-1.725,7.722
			c-0.693,0.806-4.299-0.396-7.283,2.758c-2.984,3.154-4.016,5.827-7.693,9.079c-3.691,3.154-0.594,6.449-2.927,9.207
			c-2.348,2.659-5.134-1.994-8.655,0.226c-3.507,2.319-5.515,3.818-11.653,6.817c-6.039,2.984-2.22,7.085-4.568,8.33
			c-2.22,1.428-6.675-4.299-11.3-2.022c-4.624,2.277-22.458,14.623-28.581,18.427c-6.223,3.818-0.976,12.261-2.927,14.156
			c-1.245,1.188-5.629-2.63-9.574-2.673c-2.319,0.028-4.511,1.655-6.746,3.691c-5.982,5.501-0.467,10.875-3.041,12.657
			s-4.54-1.372-9.178-2.729c-4.639-1.358-8.471,1.513-13.435-2.828c-23.858-20.633-20.421-43.954-20.421-43.954
			c1.598-2.956,2.602-2.291,7.382-1.358c4.766,0.834,12.912,1.287,18.738-3.182c5.728-4.455,11.653-16.009,10.932-21.058
			s-2.249-8.669,4.356-9.108c2.701-0.184,10.677-1.626,19.898-3.55l4.214-0.905C161.917,149.169,161.917,149.169,183.738,144.234z"
			/>
		<path fill="#3F9500" d="M183.738,144.234c3.323-0.778,6.039-1.57,8.089-2.065c4.37-1.23,9.405-2.758,16.051-5.02
			c8.754-3.069,18.413-8.287,22.019-9.207c6.336-1.612,12.332,0.057,12.332,0.057c2.942,2.206-20.86,20.86-26.573,25.413
			c-14.708,11.597-61.25,23.801-94.71,37.774c-11.922,4.936-17.084,9.815-17.084,9.815s9.221-3.338,15.754-4.978
			c14.51-3.79,77.909-18.201,94.102-28.595c20.902-13.492,31.155-32.23,31.183-35.567c5.218,7.538,1.81,14.086-1.188,18.554
			c-3.012,4.37-0.481,6.534-1.725,7.722c-0.693,0.806-4.299-0.396-7.283,2.758c-2.984,3.154-4.016,5.827-7.693,9.079
			c-3.691,3.154-0.594,6.449-2.927,9.207c-2.348,2.659-5.134-1.994-8.655,0.226c-3.507,2.319-5.515,3.818-11.653,6.817
			c-6.039,2.984-2.22,7.085-4.568,8.33c-2.22,1.428-6.675-4.299-11.3-2.022c-4.624,2.277-22.458,14.623-28.581,18.427
			c-6.223,3.818-0.976,12.261-2.927,14.156c-1.245,1.188-5.629-2.63-9.574-2.673c-2.319,0.028-4.511,1.655-6.746,3.691
			c-5.982,5.501-0.467,10.875-3.041,12.657s-4.54-1.372-9.178-2.729c-4.639-1.358-8.471,1.513-13.435-2.828
			c-23.858-20.633-20.421-43.954-20.421-43.954c1.598-2.956,2.602-2.291,7.382-1.358c4.766,0.834,12.912,1.287,18.738-3.182
			c5.728-4.455,11.653-16.009,10.932-21.058s-2.249-8.669,4.356-9.108c2.701-0.184,10.677-1.626,19.898-3.55l4.214-0.905
			C161.917,149.169,161.917,149.169,183.738,144.234z"/>
	</g>
	<g>
		<g>
			<g>
				<path fill="none" stroke="#1D1D1B" stroke-width="3" d="M155.496,164.329c-0.198,0.028-0.396,0.057-0.608-0.014
					c-1.047-0.255-1.796-1.259-1.64-2.291l2.744-14.736c0.255-1.047,1.259-1.796,2.291-1.64c1.047,0.255,1.796,1.259,1.64,2.291
					l-2.744,14.736C157.009,163.608,156.288,164.216,155.496,164.329z"/>
			</g>
			<g>
				<path fill="none" stroke="#1D1D1B" stroke-width="3" d="M164.547,160.511c-0.198,0.028-0.396,0.057-0.608-0.014
					c-1.047-0.255-1.796-1.259-1.641-2.291l2.15-11.823c0.255-1.047,1.259-1.796,2.291-1.641c1.047,0.255,1.796,1.259,1.64,2.291
					l-2.15,11.823C166.06,159.79,165.339,160.398,164.547,160.511z"/>
			</g>
			<g>
				<path fill="none" stroke="#1D1D1B" stroke-width="3" d="M172.141,157.81c-0.198,0.028-0.396,0.057-0.608-0.014
					c-1.047-0.255-1.796-1.259-1.64-2.291l2.036-11.201c0.255-1.047,1.259-1.796,2.291-1.64c1.047,0.255,1.796,1.259,1.64,2.291
					l-2.036,11.201C173.655,157.089,172.933,157.697,172.141,157.81z"/>
			</g>
			<g>
				<path fill="none" stroke="#1D1D1B" stroke-width="3" d="M180.683,153.256c-0.198,0.028-0.396,0.057-0.608-0.014
					c-1.047-0.255-1.796-1.259-1.64-2.291l1.655-8.924c0.255-1.047,1.259-1.796,2.291-1.64c1.047,0.255,1.796,1.259,1.64,2.291
					l-1.655,8.924C182.196,152.535,181.475,153.143,180.683,153.256z"/>
			</g>
		</g>
		<g>
			<g>
				<path fill="#FFFF00" d="M155.496,164.329c-0.198,0.028-0.396,0.057-0.608-0.014c-1.047-0.255-1.796-1.259-1.64-2.291
					l2.744-14.736c0.255-1.047,1.259-1.796,2.291-1.64c1.047,0.255,1.796,1.259,1.64,2.291l-2.744,14.736
					C157.009,163.608,156.288,164.216,155.496,164.329z"/>
			</g>
			<g>
				<path fill="#FFFF00" d="M164.547,160.511c-0.198,0.028-0.396,0.057-0.608-0.014c-1.047-0.255-1.796-1.259-1.641-2.291
					l2.15-11.823c0.255-1.047,1.259-1.796,2.291-1.641c1.047,0.255,1.796,1.259,1.64,2.291l-2.15,11.823
					C166.06,159.79,165.339,160.398,164.547,160.511z"/>
			</g>
			<g>
				<path fill="#FFFF00" d="M172.141,157.81c-0.198,0.028-0.396,0.057-0.608-0.014c-1.047-0.255-1.796-1.259-1.64-2.291
					l2.036-11.201c0.255-1.047,1.259-1.796,2.291-1.64c1.047,0.255,1.796,1.259,1.64,2.291l-2.036,11.201
					C173.655,157.089,172.933,157.697,172.141,157.81z"/>
			</g>
			<g>
				<path fill="#FFFF00" d="M180.683,153.256c-0.198,0.028-0.396,0.057-0.608-0.014c-1.047-0.255-1.796-1.259-1.64-2.291
					l1.655-8.924c0.255-1.047,1.259-1.796,2.291-1.64c1.047,0.255,1.796,1.259,1.64,2.291l-1.655,8.924
					C182.196,152.535,181.475,153.143,180.683,153.256z"/>
			</g>
		</g>
	</g>
</g>
<g>
	<circle fill="#F0F0F0" cx="191.5" cy="65.2" r="41"/>
	<path fill="#D80027" d="M191.5,24.2c-17.6,0-32.6,11.1-38.4,26.7H230C224.2,35.3,209.2,24.2,191.5,24.2z"/>
	<path fill="#338AF3" d="M191.5,106.1c17.6,0,32.6-11.1,38.4-26.7h-76.8C158.9,95,173.9,106.1,191.5,106.1z"/>
</g>
<ellipse fill="none" stroke="#000000" stroke-width="1.4754" stroke-miterlimit="10" cx="191.6" cy="65.2" rx="40.8" ry="40.6"/>
<g>
	<g>
		<g>
			<polygon fill="#FFFF00" points="23.05,128.333 14.123,128.333 14.123,108.146 19.74,108.146 19.74,123.107 23.05,123.107 			"/>
		</g>
		<g>
			<path fill="#FFFF00" d="M26.75,128.529c-1.795,0-3.161-0.567-4.06-1.684c-0.831-1.033-1.234-2.48-1.234-4.426v-14.283h10.578
				v14.283c0,1.952-0.402,3.401-1.229,4.431C29.911,127.964,28.546,128.529,26.75,128.529z"/>
		</g>
		<g>
			<polygon fill="#FFFF00" points="42.109,128.333 36.678,128.333 36.164,126.781 35.748,128.333 30.077,128.333 33.145,117.646 
				30.001,108.146 35.364,108.146 35.839,109.564 36.222,108.146 41.829,108.146 38.796,118.417 			"/>
		</g>
		<g>
			<polygon fill="#FFFF00" points="48.978,128.333 40.099,128.333 40.099,108.146 48.861,108.146 48.861,113.402 45.716,113.402 
				45.716,115.402 48.705,115.402 48.705,120.609 45.716,120.609 45.716,123.078 48.978,123.078 			"/>
		</g>
		<g>
			<path fill="#FFFF00" d="M62.328,128.333h-5.334v-0.078h-3.611v0.078h-5.314v-20.188h5.988l1.16,5.964l1.09-5.964h6.022
				L62.328,128.333L62.328,128.333z M54.882,122.485l0.346,1.751l0.333-1.755L54.882,122.485z M58.216,114.381l1.112,0.114v-3.349
				h-0.521L58.216,114.381z M51.068,111.146v3.344l1.142-0.122l-0.626-3.223L51.068,111.146L51.068,111.146z"/>
		</g>
		<g>
			<path fill="#FFFF00" d="M67.312,128.333h-5.299v-20.188h5.221c1.721,0,3.014,0.469,3.842,1.393
				c0.795,0.887,1.185,2.191,1.193,3.987v0.534c0,1.485-0.299,2.537-0.732,3.282c0.708,0.957,1.064,2.354,1.064,4.179v0.439
				c-0.016,2.094-0.414,3.611-1.217,4.648C70.499,127.753,69.128,128.333,67.312,128.333z"/>
		</g>
		<g>
			<path fill="#FFFF00" d="M76.838,128.529c-1.795,0-3.161-0.567-4.06-1.684c-0.831-1.033-1.234-2.48-1.234-4.426v-14.283h10.578
				v14.283c0,1.952-0.402,3.401-1.229,4.431C79.999,127.964,78.634,128.529,76.838,128.529z"/>
		</g>
		<g>
			<path fill="#FFFF00" d="M92.866,128.333H81.603v-20.188h5.826c1.249,0,2.245,0.296,2.96,0.88c0.71,0.58,1.179,1.373,1.392,2.359
				c0.164,0.758,0.244,1.693,0.244,2.856c0,1.25-0.145,2.216-0.441,2.95c-0.079,0.194-0.171,0.376-0.278,0.547
				c0.12,0.209,0.228,0.447,0.319,0.717c0.185,0.548,0.43,1.646,0.43,4.829c0,2.174,0.033,2.906,0.052,3.147L92.866,128.333z
				 M88.322,117.735c0.101,0.068,0.195,0.143,0.282,0.226l-0.025-0.443c-0.013,0.013-0.026,0.026-0.04,0.039
				C88.47,117.621,88.398,117.68,88.322,117.735z"/>
		</g>
		<g>
			<path fill="#FFFF00" d="M96.199,128.51c-1.564,0-2.862-0.658-3.753-1.901c-0.803-1.121-1.194-2.692-1.194-4.804v-7.471
				c0-1.911,0.414-3.435,1.23-4.529c0.631-0.846,1.865-1.854,4.167-1.854c3.116,0,4.234,1.8,4.623,2.874
				c0.336,0.93,0.5,2.109,0.5,3.607v13.902h-3.858l-0.037-0.154C97.359,128.399,96.798,128.51,96.199,128.51z"/>
		</g>
		<g>
			<rect x="101.33" y="108.146" fill="#FFFF00" width="5.617" height="20.188"/>
		</g>
		<g>
			<path fill="#FFFF00" d="M111.399,128.529c-2.364,0-3.533-1.084-4.097-1.994c-0.687-1.108-1.021-2.592-1.021-4.536v-3.033h2.331
				l-0.052-0.053c-0.703-0.734-1.255-1.506-1.649-2.303c-0.431-0.87-0.649-1.869-0.649-2.97c0-1.784,0.375-3.124,1.145-4.096
				c0.843-1.064,2.188-1.604,3.998-1.604c2.364,0,3.482,1.059,4.003,1.947c0.615,1.048,0.915,2.448,0.915,4.28v2.564h-2.01
				c0.664,0.773,1.187,1.57,1.556,2.376c0.45,0.981,0.679,2.06,0.679,3.204c0,1.943-0.354,3.392-1.084,4.428
				C114.627,127.927,113.26,128.529,111.399,128.529z"/>
		</g>
		<g>
			<path fill="#FFFF00" d="M120.535,128.528c-2.199,0-3.417-1.023-4.053-1.882c-0.82-1.109-1.236-2.643-1.236-4.559v-7.49
				c0-3.175,0.965-5.244,2.867-6.149c0.697-0.33,1.518-0.497,2.441-0.497c1.541,0,5.123,0.591,5.123,6.07v3.863h-4.795v0.33h4.834
				v3.932c0,2.009-0.388,3.508-1.185,4.581C123.921,127.549,122.732,128.528,120.535,128.528z"/>
		</g>
		<g>
			<rect x="124.845" y="108.146" fill="#FFFF00" width="10.578" height="20.188"/>
		</g>
		<g>
			<polygon fill="#FFFF00" points="143.88,128.333 135.001,128.333 135.001,108.146 143.763,108.146 143.763,113.402 
				140.618,113.402 140.618,115.402 143.606,115.402 143.606,120.609 140.618,120.609 140.618,123.078 143.88,123.078 			"/>
		</g>
		<g>
			<path fill="#FFFF00" d="M154.227,128.333H142.97v-20.188h5.826c1.249,0,2.245,0.296,2.961,0.88
				c0.71,0.579,1.179,1.373,1.392,2.359c0.163,0.754,0.243,1.689,0.243,2.855c0,1.252-0.145,2.218-0.442,2.951
				c-0.078,0.194-0.17,0.376-0.277,0.546c0.12,0.209,0.229,0.446,0.319,0.717c0.185,0.548,0.43,1.646,0.43,4.829
				c0,2.177,0.033,2.908,0.052,3.149L154.227,128.333z M149.689,117.735c0.101,0.068,0.194,0.143,0.281,0.226l-0.024-0.443
				c-0.014,0.014-0.028,0.027-0.042,0.041C149.836,117.622,149.765,117.681,149.689,117.735z"/>
		</g>
		<g>
			<polygon fill="#FFFF00" points="19.73,152.333 14.113,152.333 14.113,132.146 23.011,132.146 23.011,137.421 19.73,137.421 
				19.73,138.991 22.777,138.991 22.777,144.276 19.73,144.276 			"/>
		</g>
		<g>
			<path fill="#FFFF00" d="M27.092,152.528c-1.796,0-3.162-0.566-4.06-1.684c-0.831-1.031-1.234-2.479-1.234-4.426v-14.283h10.578
				v14.283c0,1.953-0.402,3.402-1.229,4.431C30.253,151.964,28.889,152.528,27.092,152.528z"/>
		</g>
		<g>
			<path fill="#FFFF00" d="M36.633,152.528c-2.365,0-3.534-1.084-4.097-1.994c-0.687-1.106-1.021-2.591-1.021-4.535v-3.033h2.331
				l-0.052-0.053c-0.702-0.733-1.255-1.506-1.649-2.304c-0.431-0.87-0.649-1.869-0.649-2.97c0-1.783,0.375-3.123,1.145-4.096
				c0.844-1.064,2.189-1.604,3.998-1.604c2.364,0,3.481,1.059,4.003,1.946c0.616,1.049,0.915,2.449,0.915,4.28v2.564h-2.01
				c0.664,0.773,1.187,1.57,1.556,2.376c0.451,0.982,0.679,2.061,0.679,3.204c0,1.943-0.354,3.393-1.084,4.428
				C39.862,151.927,38.495,152.528,36.633,152.528z"/>
		</g>
		<g>
			<path fill="#FFFF00" d="M45.471,152.528c-2.365,0-3.534-1.084-4.097-1.994c-0.687-1.106-1.021-2.591-1.021-4.535v-3.033h2.331
				l-0.052-0.053c-0.702-0.733-1.255-1.506-1.649-2.304c-0.431-0.87-0.649-1.869-0.649-2.97c0-1.783,0.375-3.123,1.145-4.096
				c0.844-1.064,2.189-1.604,3.998-1.604c2.364,0,3.481,1.059,4.003,1.946c0.616,1.049,0.915,2.449,0.915,4.28v2.564h-2.01
				c0.664,0.773,1.187,1.57,1.556,2.376c0.451,0.982,0.679,2.061,0.679,3.204c0,1.943-0.354,3.393-1.084,4.428
				C48.7,151.927,47.333,152.528,45.471,152.528z"/>
		</g>
		<g>
			<path fill="#FFFF00" d="M54.929,152.333H49.63v-20.188h5.221c1.721,0,3.014,0.469,3.842,1.393
				c0.795,0.888,1.185,2.191,1.193,3.987v0.534c0,1.485-0.299,2.537-0.732,3.282c0.707,0.957,1.064,2.354,1.064,4.179v0.439
				c-0.016,2.094-0.414,3.61-1.217,4.648C58.116,151.753,56.746,152.333,54.929,152.333z"/>
		</g>
		<g>
			<path fill="#FFFF00" d="M70.238,152.333H64.74l-0.41-3.066h-0.131l-0.371,3.066H58.25l2.879-20.188h6.048L70.238,152.333z
				 M63.675,135.534h0.981l-0.059-0.389H63.73L63.675,135.534z"/>
		</g>
		<g>
			<polygon fill="#FFFF00" points="77.718,152.333 68.791,152.333 68.791,132.146 74.408,132.146 74.408,147.106 77.718,147.106 			
				"/>
		</g>
		<g>
			<polygon fill="#FFFF00" points="85.15,152.333 76.222,152.333 76.222,132.146 81.839,132.146 81.839,147.106 85.15,147.106 			
				"/>
		</g>
		<g>
			<polygon fill="#FFFF00" points="92.533,152.333 83.654,152.333 83.654,132.146 92.416,132.146 92.416,137.401 89.271,137.401 
				89.271,139.401 92.259,139.401 92.259,144.608 89.271,144.608 89.271,147.077 92.533,147.077 			"/>
		</g>
		<g>
			<path fill="#FFFF00" d="M102.888,152.333H91.623v-20.188h5.826c1.249,0,2.245,0.296,2.96,0.88
				c0.71,0.579,1.179,1.373,1.392,2.358c0.165,0.76,0.244,1.693,0.244,2.856c0,1.251-0.145,2.216-0.441,2.95
				c-0.079,0.194-0.171,0.377-0.278,0.547c0.12,0.209,0.228,0.446,0.319,0.717c0.185,0.55,0.43,1.647,0.43,4.829
				c0,2.172,0.033,2.904,0.052,3.146L102.888,152.333z M98.342,141.734c0.101,0.068,0.195,0.144,0.282,0.227l-0.024-0.445
				c-0.014,0.015-0.028,0.028-0.043,0.041C98.489,141.621,98.417,141.681,98.342,141.734z"/>
		</g>
		<g>
			<path fill="#FFFF00" d="M19.382,176.333h-5.27v-20.188h5.357c2.178,0,3.345,0.929,3.94,1.707c0.783,1.024,1.163,2.4,1.163,4.207
				l0.01,7.752c0,2.072-0.372,3.603-1.136,4.679C22.852,175.331,21.662,176.333,19.382,176.333z"/>
		</g>
		<g>
			<polygon fill="#FFFF00" points="32.816,176.333 23.937,176.333 23.937,156.146 32.699,156.146 32.699,161.401 29.554,161.401 
				29.554,163.401 32.542,163.401 32.542,168.608 29.554,168.608 29.554,171.077 32.816,171.077 			"/>
		</g>
		<g>
			<path fill="#FFFF00" d="M36.682,176.528c-2.365,0-3.534-1.084-4.097-1.994c-0.687-1.106-1.021-2.591-1.021-4.535v-3.033h2.331
				l-0.052-0.053c-0.702-0.733-1.255-1.506-1.649-2.304c-0.431-0.87-0.649-1.869-0.649-2.97c0-1.783,0.375-3.123,1.145-4.096
				c0.844-1.064,2.189-1.604,3.998-1.604c2.364,0,3.481,1.059,4.003,1.946c0.616,1.049,0.915,2.449,0.915,4.28v2.564h-2.01
				c0.664,0.773,1.187,1.57,1.556,2.376c0.451,0.982,0.679,2.061,0.679,3.204c0,1.943-0.354,3.393-1.084,4.428
				C39.911,175.927,38.543,176.528,36.682,176.528z"/>
		</g>
		<g>
			<path fill="#FFFF00" d="M48.752,176.528c-1.557,0-2.811-0.508-3.725-1.509c-0.879-0.961-1.325-2.303-1.325-3.985v-4.566h4.473
				v-10.322h5.617v14.479c0,1.752-0.424,3.166-1.262,4.2C51.63,175.938,50.324,176.528,48.752,176.528z"/>
		</g>
		<g>
			<path fill="#FFFF00" d="M64.252,176.333h-5.499l-0.41-3.066h-0.131l-0.371,3.066h-5.578l2.879-20.188h6.048L64.252,176.333z
				 M57.688,159.534h0.981l-0.059-0.389h-0.866L57.688,159.534z"/>
		</g>
		<g>
			<rect x="62.804" y="156.146" fill="#FFFF00" width="10.578" height="20.188"/>
		</g>
		<g>
			<path fill="#FFFF00" d="M84.226,176.333H72.96v-20.188h5.826c1.249,0,2.245,0.296,2.96,0.88c0.71,0.579,1.179,1.373,1.392,2.358
				c0.165,0.76,0.244,1.693,0.244,2.856c0,1.251-0.145,2.216-0.441,2.95c-0.079,0.194-0.171,0.377-0.278,0.547
				c0.12,0.209,0.228,0.446,0.319,0.717c0.185,0.55,0.43,1.647,0.43,4.829c0,2.172,0.033,2.904,0.052,3.146L84.226,176.333z
				 M79.68,165.734c0.101,0.068,0.195,0.144,0.282,0.227l-0.024-0.445c-0.014,0.015-0.028,0.028-0.043,0.041
				C79.827,165.621,79.755,165.681,79.68,165.734z"/>
		</g>
		<g>
			<polygon fill="#FFFF00" points="91.703,176.333 82.824,176.333 82.824,156.146 91.585,156.146 91.585,161.401 88.441,161.401 
				88.441,163.401 91.429,163.401 91.429,168.608 88.441,168.608 88.441,171.077 91.703,171.077 			"/>
		</g>
		<g>
			<path fill="#FFFF00" d="M95.569,176.528c-2.365,0-3.534-1.084-4.097-1.994c-0.687-1.106-1.021-2.591-1.021-4.535v-3.033h2.331
				l-0.052-0.053c-0.702-0.733-1.255-1.506-1.649-2.304c-0.431-0.87-0.649-1.869-0.649-2.97c0-1.783,0.375-3.123,1.145-4.096
				c0.844-1.064,2.189-1.604,3.998-1.604c2.364,0,3.481,1.059,4.003,1.946c0.616,1.049,0.915,2.449,0.915,4.28v2.564h-2.01
				c0.664,0.773,1.187,1.57,1.556,2.376c0.451,0.982,0.679,2.061,0.679,3.204c0,1.943-0.354,3.393-1.084,4.428
				C98.798,175.927,97.43,176.528,95.569,176.528z"/>
		</g>
	</g>
	<g>
		<g>
			<path d="M15.623,126.833v-17.188h2.617v14.961h3.311v2.227H15.623z"/>
		</g>
		<g>
			<path d="M29.636,125.911c-0.599,0.746-1.561,1.118-2.886,1.118s-2.289-0.375-2.891-1.123s-0.903-1.911-0.903-3.486v-12.783h2.617
				v12.734c0,0.905,0.042,1.455,0.127,1.65s0.187,0.373,0.308,0.532s0.37,0.239,0.747,0.239s0.648-0.111,0.811-0.332
				s0.262-0.497,0.298-0.825s0.054-0.75,0.054-1.265v-12.734h2.617v12.783C30.535,124.001,30.235,125.165,29.636,125.911z"/>
		</g>
		<g>
			<path d="M37.761,126.833l-1.748-5.283l-1.416,5.283h-2.529l2.646-9.219l-2.637-7.969h2.207l1.709,5.107l1.377-5.107h2.451
				l-2.598,8.799l2.803,8.389H37.761z"/>
		</g>
		<g>
			<path d="M41.599,126.833v-17.188h5.762v2.256h-3.145v5h2.988v2.207h-2.988v5.469h3.262v2.256H41.599z"/>
		</g>
		<g>
			<path d="M49.568,126.833v-17.188h3.252l2.441,12.559l2.295-12.559h3.271v17.188h-2.334v-6.406l0.098-5.879l-2.314,12.207h-2.08
				l-2.412-12.207l0.098,5.879v6.406C51.883,126.833,49.568,126.833,49.568,126.833z"/>
		</g>
		<g>
			<path d="M70.769,114.06c0,1.849-0.501,2.985-1.504,3.408c1.224,0.41,1.836,1.761,1.836,4.053v0.439
				c-0.013,1.725-0.314,2.969-0.903,3.73s-1.551,1.143-2.886,1.143h-3.799v-17.188h3.721c1.283,0,2.191,0.298,2.725,0.894
				s0.804,1.593,0.811,2.993L70.769,114.06L70.769,114.06z M66.13,116.599h0.967c0.449,0,0.744-0.143,0.884-0.43
				s0.21-0.875,0.21-1.768v-1.035c-0.006-0.664-0.098-1.108-0.273-1.333s-0.479-0.337-0.908-0.337h-0.88V116.599z M66.13,124.802
				h0.928c0.521,0,0.885-0.179,1.094-0.537s0.312-1,0.312-1.924v-1.387c0-0.873-0.084-1.489-0.254-1.851s-0.495-0.542-0.977-0.542
				H66.13V124.802z"/>
		</g>
		<g>
			<path d="M79.724,125.911c-0.599,0.746-1.561,1.118-2.886,1.118s-2.289-0.375-2.891-1.123s-0.903-1.911-0.903-3.486v-12.783h2.617
				v12.734c0,0.905,0.042,1.455,0.127,1.65s0.187,0.373,0.308,0.532s0.37,0.239,0.747,0.239s0.648-0.111,0.811-0.332
				s0.262-0.497,0.298-0.825s0.054-0.75,0.054-1.265v-12.734h2.617v12.783C80.623,124.001,80.323,125.165,79.724,125.911z"/>
		</g>
		<g>
			<path d="M86.56,118.757l-0.84-0.039v8.115h-2.617v-17.188h4.326c0.898,0,1.569,0.181,2.012,0.542s0.734,0.866,0.874,1.514
				s0.21,1.494,0.21,2.539s-0.111,1.841-0.332,2.388s-0.631,0.915-1.23,1.104c0.592,0.104,1.006,0.504,1.24,1.201
				s0.352,2.147,0.352,4.351s0.033,3.387,0.098,3.55h-2.617c-0.065-0.13-0.098-2.184-0.098-6.162c0-0.762-0.091-1.268-0.273-1.519
				S87.113,118.771,86.56,118.757z M85.73,116.687h1.045c0.332,0,0.578-0.075,0.737-0.225s0.27-0.407,0.332-0.771
				s0.093-0.921,0.093-1.67v-0.107c0-0.931-0.078-1.54-0.234-1.826s-0.518-0.43-1.084-0.43H85.73V116.687z"/>
		</g>
		<g>
			<path d="M96.199,127.009c-1.081,0-1.925-0.425-2.534-1.274s-0.913-2.16-0.913-3.931v-7.471c0-1.588,0.311-2.799,0.933-3.633
				s1.61-1.25,2.964-1.25c1.686,0,2.757,0.628,3.213,1.885c0.273,0.755,0.41,1.787,0.41,3.096v1.221H97.83v-1.797
				c0-0.788-0.083-1.341-0.249-1.66s-0.479-0.479-0.938-0.479s-0.783,0.19-0.972,0.571s-0.283,1.056-0.283,2.026v7.451
				c0,1.126,0.084,1.911,0.254,2.354s0.5,0.664,0.991,0.664s0.84-0.238,1.045-0.713s0.308-1.276,0.308-2.402v-2.314h-1.318v-1.904
				h3.604v9.385H99.1l-0.4-1.689c-0.137,0.58-0.436,1.035-0.898,1.367S96.804,127.009,96.199,127.009z"/>
		</g>
		<g>
			<path d="M102.83,126.833v-17.188h2.617v17.188C105.447,126.833,102.83,126.833,102.83,126.833z"/>
		</g>
		<g>
			<path d="M107.781,122v-1.533h2.48v1.729c0,0.957,0.082,1.629,0.244,2.017s0.469,0.581,0.918,0.581s0.747-0.16,0.894-0.479
				s0.22-0.84,0.22-1.562s-0.13-1.353-0.391-1.89s-0.674-1.099-1.24-1.685l-1.27-1.309c-0.592-0.619-1.053-1.26-1.382-1.924
				s-0.493-1.432-0.493-2.305c0-1.419,0.273-2.474,0.82-3.164s1.488-1.035,2.822-1.035s2.238,0.402,2.71,1.206
				s0.708,1.978,0.708,3.521v1.064h-2.412v-1.23c0-0.833-0.072-1.431-0.215-1.792s-0.418-0.542-0.825-0.542s-0.7,0.137-0.879,0.41
				s-0.269,0.684-0.269,1.23s0.091,0.983,0.273,1.309s0.511,0.742,0.986,1.25l1.416,1.533c0.709,0.768,1.245,1.546,1.606,2.334
				s0.542,1.647,0.542,2.578c0,1.608-0.27,2.796-0.811,3.564s-1.486,1.152-2.837,1.152s-2.292-0.428-2.822-1.284
				S107.781,123.64,107.781,122z"/>
		</g>
		<g>
			<path d="M123.328,125.833c-0.592,0.797-1.523,1.196-2.793,1.196s-2.218-0.425-2.847-1.274s-0.942-2.072-0.942-3.667v-7.49
				c0-2.559,0.67-4.157,2.012-4.795c0.495-0.234,1.094-0.352,1.797-0.352c2.416,0,3.623,1.523,3.623,4.57v2.363h-2.529v-2.197
				c0-0.885-0.075-1.519-0.225-1.899s-0.443-0.571-0.879-0.571s-0.739,0.202-0.908,0.605s-0.254,1.022-0.254,1.855v8.027
				c0,0.924,0.082,1.585,0.244,1.982s0.459,0.596,0.889,0.596s0.726-0.202,0.889-0.605s0.244-1.071,0.244-2.002v-2.461h2.568v2.432
				C124.216,123.806,123.92,125.035,123.328,125.833z"/>
		</g>
		<g>
			<path d="M126.345,126.833v-17.188h2.617v6.953h2.344v-6.953h2.617v17.188h-2.617v-7.988h-2.344v7.988
				C128.962,126.833,126.345,126.833,126.345,126.833z"/>
		</g>
		<g>
			<path d="M136.501,126.833v-17.188h5.762v2.256h-3.145v5h2.988v2.207h-2.988v5.469h3.262v2.256H136.501z"/>
		</g>
		<g>
			<path d="M147.927,118.757l-0.84-0.039v8.115h-2.617v-17.188h4.326c0.898,0,1.569,0.181,2.012,0.542s0.734,0.866,0.874,1.514
				c0.141,0.648,0.21,1.494,0.21,2.539s-0.11,1.841-0.332,2.388c-0.221,0.547-0.631,0.915-1.23,1.104
				c0.593,0.104,1.006,0.504,1.24,1.201s0.352,2.147,0.352,4.351s0.033,3.387,0.098,3.55h-2.617
				c-0.064-0.13-0.098-2.184-0.098-6.162c0-0.762-0.091-1.268-0.273-1.519C148.849,118.902,148.48,118.771,147.927,118.757z
				 M147.097,116.687h1.045c0.332,0,0.578-0.075,0.737-0.225c0.16-0.15,0.271-0.407,0.332-0.771c0.062-0.365,0.093-0.921,0.093-1.67
				v-0.107c0-0.931-0.078-1.54-0.234-1.826s-0.518-0.43-1.084-0.43h-0.889V116.687z"/>
		</g>
		<g>
			<path d="M15.613,150.833v-17.188h5.898v2.275H18.23v4.57h3.047v2.285H18.23v8.057L15.613,150.833L15.613,150.833z"/>
		</g>
		<g>
			<path d="M29.978,149.91c-0.599,0.746-1.561,1.118-2.886,1.118s-2.289-0.374-2.891-1.123c-0.602-0.748-0.903-1.91-0.903-3.486
				v-12.783h2.617v12.734c0,0.905,0.042,1.455,0.127,1.65s0.187,0.373,0.308,0.532c0.121,0.16,0.37,0.239,0.747,0.239
				s0.648-0.11,0.811-0.332c0.163-0.221,0.262-0.496,0.298-0.825c0.036-0.328,0.054-0.75,0.054-1.265v-12.734h2.617v12.783
				C30.876,148.001,30.577,149.165,29.978,149.91z"/>
		</g>
		<g>
			<path d="M33.015,145.999v-1.533h2.48v1.729c0,0.957,0.082,1.63,0.244,2.017c0.163,0.388,0.469,0.581,0.918,0.581
				s0.747-0.159,0.894-0.479c0.146-0.318,0.22-0.84,0.22-1.562s-0.13-1.353-0.391-1.89s-0.674-1.099-1.24-1.685l-1.27-1.309
				c-0.592-0.618-1.053-1.26-1.382-1.924s-0.493-1.432-0.493-2.305c0-1.419,0.273-2.474,0.82-3.164
				c0.547-0.689,1.488-1.035,2.822-1.035s2.238,0.402,2.71,1.206c0.472,0.805,0.708,1.978,0.708,3.521v1.064h-2.412v-1.23
				c0-0.833-0.072-1.431-0.215-1.792s-0.418-0.542-0.825-0.542s-0.7,0.137-0.879,0.41s-0.269,0.684-0.269,1.23
				s0.091,0.983,0.273,1.309s0.511,0.742,0.986,1.25l1.416,1.533c0.709,0.769,1.245,1.547,1.606,2.334
				c0.361,0.788,0.542,1.647,0.542,2.578c0,1.608-0.27,2.797-0.811,3.564c-0.541,0.769-1.486,1.152-2.837,1.152
				s-2.292-0.428-2.822-1.284C33.28,148.889,33.015,147.64,33.015,145.999z"/>
		</g>
		<g>
			<path d="M41.853,145.999v-1.533h2.48v1.729c0,0.957,0.082,1.63,0.244,2.017c0.163,0.388,0.469,0.581,0.918,0.581
				s0.747-0.159,0.894-0.479c0.146-0.318,0.22-0.84,0.22-1.562s-0.13-1.353-0.391-1.89s-0.674-1.099-1.24-1.685l-1.27-1.309
				c-0.592-0.618-1.053-1.26-1.382-1.924s-0.493-1.432-0.493-2.305c0-1.419,0.273-2.474,0.82-3.164
				c0.547-0.689,1.488-1.035,2.822-1.035s2.238,0.402,2.71,1.206c0.472,0.805,0.708,1.978,0.708,3.521v1.064h-2.412v-1.23
				c0-0.833-0.072-1.431-0.215-1.792s-0.418-0.542-0.825-0.542s-0.7,0.137-0.879,0.41s-0.269,0.684-0.269,1.23
				s0.091,0.983,0.273,1.309s0.511,0.742,0.986,1.25l1.416,1.533c0.709,0.769,1.245,1.547,1.606,2.334
				c0.361,0.788,0.542,1.647,0.542,2.578c0,1.608-0.27,2.797-0.811,3.564c-0.541,0.769-1.486,1.152-2.837,1.152
				s-2.292-0.428-2.822-1.284C42.118,148.889,41.853,147.64,41.853,145.999z"/>
		</g>
		<g>
			<path d="M58.386,138.06c0,1.85-0.501,2.985-1.504,3.408c1.224,0.41,1.836,1.762,1.836,4.053v0.439
				c-0.013,1.726-0.314,2.969-0.903,3.73s-1.551,1.143-2.886,1.143H51.13v-17.188h3.721c1.283,0,2.191,0.298,2.725,0.894
				s0.804,1.594,0.811,2.993L58.386,138.06L58.386,138.06z M53.748,140.599h0.967c0.449,0,0.744-0.143,0.884-0.43
				c0.14-0.286,0.21-0.875,0.21-1.768v-1.035c-0.006-0.664-0.098-1.108-0.273-1.333s-0.479-0.337-0.908-0.337h-0.879L53.748,140.599
				L53.748,140.599z M53.748,148.802h0.928c0.521,0,0.885-0.179,1.094-0.537c0.208-0.357,0.312-0.999,0.312-1.924v-1.387
				c0-0.872-0.084-1.489-0.254-1.851s-0.495-0.542-0.977-0.542h-1.104L53.748,148.802L53.748,148.802z"/>
		</g>
		<g>
			<path d="M59.978,150.833l2.451-17.188h3.457l2.607,17.188h-2.441l-0.41-3.066h-2.773l-0.371,3.066H59.978z M65.369,145.667
				l-1.152-8.633h-0.039l-1.055,8.633H65.369z"/>
		</g>
		<g>
			<path d="M70.291,150.833v-17.188h2.617v14.961h3.311v2.227H70.291z"/>
		</g>
		<g>
			<path d="M77.722,150.833v-17.188h2.617v14.961h3.311v2.227H77.722z"/>
		</g>
		<g>
			<path d="M85.154,150.833v-17.188h5.762v2.256h-3.145v5h2.988v2.207h-2.988v5.469h3.262v2.256L85.154,150.833L85.154,150.833z"/>
		</g>
		<g>
			<path d="M96.58,142.757l-0.84-0.039v8.115h-2.617v-17.188h4.326c0.898,0,1.569,0.181,2.012,0.542s0.734,0.866,0.874,1.514
				c0.14,0.648,0.21,1.494,0.21,2.539s-0.111,1.841-0.332,2.388s-0.631,0.915-1.23,1.104c0.592,0.104,1.006,0.505,1.24,1.201
				c0.234,0.697,0.352,2.147,0.352,4.351s0.033,3.388,0.098,3.55h-2.617c-0.065-0.13-0.098-2.184-0.098-6.162
				c0-0.762-0.091-1.268-0.273-1.519C97.501,142.902,97.133,142.771,96.58,142.757z M95.75,140.687h1.045
				c0.332,0,0.578-0.074,0.737-0.225c0.16-0.149,0.27-0.406,0.332-0.771c0.062-0.364,0.093-0.921,0.093-1.67v-0.107
				c0-0.931-0.078-1.539-0.234-1.826c-0.156-0.286-0.518-0.43-1.084-0.43H95.75V140.687z"/>
		</g>
		<g>
			<path d="M15.613,174.833v-17.188h3.857c1.263,0,2.179,0.373,2.749,1.118c0.57,0.746,0.854,1.845,0.854,3.296l0.01,7.754
				c0,1.732-0.287,3.002-0.859,3.809c-0.573,0.808-1.52,1.211-2.842,1.211H15.613z M18.23,172.802h0.859
				c0.482,0,0.832-0.156,1.05-0.469s0.327-0.885,0.327-1.719l-0.01-8.486c0-0.892-0.109-1.526-0.327-1.904
				c-0.218-0.377-0.594-0.566-1.128-0.566H18.23V172.802z"/>
		</g>
		<g>
			<path d="M25.437,174.833v-17.188h5.762v2.256h-3.145v5h2.988v2.207h-2.988v5.469h3.262v2.256L25.437,174.833L25.437,174.833z"/>
		</g>
		<g>
			<path d="M33.064,169.999v-1.533h2.48v1.729c0,0.957,0.082,1.63,0.244,2.017c0.163,0.388,0.469,0.581,0.918,0.581
				s0.747-0.159,0.894-0.479c0.146-0.318,0.22-0.84,0.22-1.562s-0.13-1.353-0.391-1.89s-0.674-1.099-1.24-1.685l-1.27-1.309
				c-0.592-0.618-1.053-1.26-1.382-1.924s-0.493-1.432-0.493-2.305c0-1.419,0.273-2.474,0.82-3.164
				c0.547-0.689,1.488-1.035,2.822-1.035s2.238,0.402,2.71,1.206c0.472,0.805,0.708,1.978,0.708,3.521v1.064h-2.412v-1.23
				c0-0.833-0.072-1.431-0.215-1.792s-0.418-0.542-0.825-0.542s-0.7,0.137-0.879,0.41s-0.269,0.684-0.269,1.23
				s0.091,0.983,0.273,1.309s0.511,0.742,0.986,1.25l1.416,1.533c0.709,0.769,1.245,1.547,1.606,2.334
				c0.361,0.788,0.542,1.647,0.542,2.578c0,1.608-0.27,2.797-0.811,3.564c-0.541,0.769-1.486,1.152-2.837,1.152
				s-2.292-0.428-2.822-1.284C33.329,172.889,33.064,171.64,33.064,169.999z"/>
		</g>
		<g>
			<path d="M51.365,173.881c-0.619,0.766-1.489,1.147-2.612,1.147s-1.996-0.34-2.617-1.021c-0.622-0.68-0.933-1.671-0.933-2.974
				v-3.066h2.529v2.939c0,0.951,0.153,1.53,0.459,1.738c0.137,0.092,0.306,0.137,0.508,0.137c0.397,0,0.659-0.162,0.786-0.488
				c0.127-0.325,0.19-0.84,0.19-1.543v-13.105h2.617v12.979C52.292,172.03,51.983,173.116,51.365,173.881z"/>
		</g>
		<g>
			<path d="M53.992,174.833l2.451-17.188H59.9l2.607,17.188h-2.441l-0.41-3.066h-2.773l-0.371,3.066H53.992z M59.382,169.667
				l-1.152-8.633h-0.039l-1.055,8.633H59.382z"/>
		</g>
		<g>
			<path d="M64.304,174.833v-17.188h2.617v6.953h2.344v-6.953h2.617v17.188h-2.617v-7.988h-2.344v7.988H64.304z"/>
		</g>
		<g>
			<path d="M77.917,166.757l-0.84-0.039v8.115H74.46v-17.188h4.326c0.898,0,1.569,0.181,2.012,0.542s0.734,0.866,0.874,1.514
				c0.14,0.648,0.21,1.494,0.21,2.539s-0.111,1.841-0.332,2.388s-0.631,0.915-1.23,1.104c0.592,0.104,1.006,0.505,1.24,1.201
				c0.234,0.697,0.352,2.147,0.352,4.351s0.033,3.388,0.098,3.55h-2.617c-0.065-0.13-0.098-2.184-0.098-6.162
				c0-0.762-0.091-1.268-0.273-1.519C78.839,166.902,78.471,166.771,77.917,166.757z M77.087,164.687h1.045
				c0.332,0,0.578-0.074,0.737-0.225c0.16-0.149,0.27-0.406,0.332-0.771c0.062-0.364,0.093-0.921,0.093-1.67v-0.107
				c0-0.931-0.078-1.539-0.234-1.826c-0.156-0.286-0.518-0.43-1.084-0.43h-0.889V164.687z"/>
		</g>
		<g>
			<path d="M84.324,174.833v-17.188h5.762v2.256h-3.145v5h2.988v2.207h-2.988v5.469h3.262v2.256L84.324,174.833L84.324,174.833z"/>
		</g>
		<g>
			<path d="M91.951,169.999v-1.533h2.48v1.729c0,0.957,0.082,1.63,0.244,2.017c0.163,0.388,0.469,0.581,0.918,0.581
				s0.747-0.159,0.894-0.479c0.146-0.318,0.22-0.84,0.22-1.562s-0.13-1.353-0.391-1.89s-0.674-1.099-1.24-1.685l-1.27-1.309
				c-0.592-0.618-1.053-1.26-1.382-1.924s-0.493-1.432-0.493-2.305c0-1.419,0.273-2.474,0.82-3.164
				c0.547-0.689,1.488-1.035,2.822-1.035s2.238,0.402,2.71,1.206c0.472,0.805,0.708,1.978,0.708,3.521v1.064H96.58v-1.23
				c0-0.833-0.072-1.431-0.215-1.792s-0.418-0.542-0.825-0.542s-0.7,0.137-0.879,0.41s-0.269,0.684-0.269,1.23
				s0.091,0.983,0.273,1.309s0.511,0.742,0.986,1.25l1.416,1.533c0.709,0.769,1.245,1.547,1.606,2.334
				c0.361,0.788,0.542,1.647,0.542,2.578c0,1.608-0.27,2.797-0.811,3.564c-0.541,0.769-1.486,1.152-2.837,1.152
				s-2.292-0.428-2.822-1.284C92.216,172.889,91.951,171.64,91.951,169.999z"/>
		</g>
	</g>
</g>
</svg>
