<?xml version="1.0" encoding="utf-8"?>
<!-- Generator: Adobe Illustrator 17.0.0, SVG Export Plug-In . SVG Version: 6.00 Build 0)  -->
<!DOCTYPE svg PUBLIC "-//W3C//DTD SVG 1.1//EN" "http://www.w3.org/Graphics/SVG/1.1/DTD/svg11.dtd">
<svg version="1.1" id="Layer_1" xmlns="http://www.w3.org/2000/svg" xmlns:xlink="http://www.w3.org/1999/xlink" x="0px" y="0px"
	 width="256px" height="256px" viewBox="0 0 256 256" enable-background="new 0 0 256 256" xml:space="preserve">
<path fill="#FFFFFF" d="M192.1,10.3c-17.1,0-32.4,8-42.3,20.6h-0.3v0.3c-7.1,9.1-11.4,20.6-11.4,33c0,29.7,24.2,53.9,53.9,53.9
	s54-24.2,54-53.9S221.9,10.3,192.1,10.3z"/>
<path d="M192,10.3c-17.1,0-32.4,8-42.3,20.6h-0.3v0.3c-7.1,9.1-11.4,20.6-11.4,33c0,29.7,24.2,53.9,53.9,53.9s53.9-24.2,53.9-53.9
	S221.7,10.3,192,10.3z M208.6,100.9l-23.1-3L183.7,78l17.6-10.7L217,82.4L208.6,100.9z M171.2,103.3L151.9,89l-2.1-14.7l11.8-7.4
	L181.5,78l1.9,20.2L171.2,103.3z M149.1,72.2L142,57.4l9.3-15.3l9.7,2l-0.2,20.8L149.1,72.2z M188.3,19l21.3,2.9l7.3,13.6l-16.1,7.9
	l-16.5-11.5L188.3,19z M231.4,74.4l-12.6,6.7l-16.9-16.2l0.2-19.7l16-7.9L232.3,50L231.4,74.4z M233.5,74.9l1-24.5l7.1-0.9
	c1.4,4.7,2.1,9.6,2.1,14.7c0,4.6-0.6,9-1.7,13.2L233.5,74.9z M240.9,47.4l-7.1,0.9l-14.6-13.1L212,21.9l6.1-2.4
	C228.7,25.7,236.9,35.6,240.9,47.4z M178.8,14.2l7.4,4.1L182,32.1L162.3,42l-10.5-2.1l-0.2-8.1C158.5,23.4,167.9,17,178.8,14.2z
	 M149.7,40.5l-8.5,14.1c1.4-7.3,4.3-14.1,8.4-20L149.7,40.5z M140.5,59.2l7.1,14.9l2.1,14.8l-2.9,0.4c-4.1-7.4-6.5-16-6.5-25.1
	C140.3,62.5,140.4,60.8,140.5,59.2z M172.4,112.1l-0.2-6.8l12.5-5.3l23.9,3.1l4.4,8.4c-6.4,2.9-13.5,4.5-21,4.5
	C185.1,115.9,178.5,114.5,172.4,112.1z"/>
<g>
	<path fill="#FCFF00" stroke="#000000" stroke-miterlimit="10" d="M174.6,104.7c0-1.2-1.2-1.2-1.2-1.2s-6.2,0-8.2,0
		s-0.7,0.6-0.7,0.6v2.1c0,3.3-2.1,3.3-2.6,3.3s-4.7-0.1-5.7-0.1c0.3-0.9-0.4-1.8-0.4-1.8h-55.5c0,0-0.5,0.9-0.2,1.8
		c-1,0-4.8,0-5.4,0c-0.5,0-2.1,0.1-2.1-3.1v-2.1c0,0-0.2-1-1.5-1c-2,0-8.3,0-8.3,0s-1.3,0.2-1.3,1.4s-0.1,27.6-0.1,29.6
		c0,2.1,0.5,6.1,7.1,9.2c6.5,3.2,19.5,9.3,19.6,10c-0.4,0.7-0.5,2.5,1.1,2.6c1,0,1.5-0.9,1.5-0.9s6.3,3,8.4,3.6c0,2,2.5,9.6,4.7,12
		c0,0.4-0.1,2.1-0.1,2.1s-2.9,0.2-2.9,2.7s2.3,3.7,3,3.8c0,1.1-3.3,10.6-5.2,12.8c0,1-0.3,2.5-0.3,2.5h-4.1c0,0-0.4,0.1-0.4,0.7
		s0,3.3,0,3.3h-2v14h-3v3H107l-0.5,1h-1.8c0,0-1.3,0.1-1.3,1.7c0,1.6,0,24.3,0,24.3h-2c0,0-3.6,2.5-3.6,8.1c0,1.1,0.7,3.9,2.5,3.9
		c1.9,0,53.2,0,55.1,0s2.5-2.8,2.5-3.9c0-5.6-3.6-8.1-3.6-8.1h-2.9c0,0,0-22.7,0-24.3s-0.3-1.7-0.3-1.7H149l-0.5-1h-1.1v-3h-2v-14
		h-2c0,0,0-2.6,0-3.3s-1.5-0.7-1.5-0.7h-4.1c0,0-0.3-1.5-0.3-2.5c-2-2.2-5.2-11.7-5.2-12.7c0.8-0.1,3-1.3,3-3.8s-2.9-2.7-2.9-2.7
		s-0.1-1.6-0.1-2.1c2.2-2.4,4.7-10,4.7-12c2.1-0.5,8.4-3.6,8.4-3.6s0.5,0.9,1.5,0.9c1.6-0.1,1.5-2,1.1-2.6c0.1-0.7,13.1-6.9,19.6-10
		c6.5-3.2,7.1-7,7.1-9.1C174.7,132.1,174.6,105.9,174.6,104.7z M89.3,140.6c-5.5-3-5.8-7.1-5.8-7.1v-27h6.2c0,0,0.1,0.9,0.1,1.9
		c0,3.7,2.9,4.1,4,4.1c1,0,7.7,0,7.7,0l0.2,0.3c5.8,16,7.8,36.8,7.8,39.9C108.7,151.1,94.9,143.5,89.3,140.6z M165.7,140.6
		c-5.5,2.9-18.9,10.5-19.7,12.1c0-3,2.4-23.9,8.2-39.9l0.3-0.3h8.5c0,0,3.2-0.4,3.2-4.1c0-1,0.1-1.9,0.1-1.9h4.2v27
		C170.5,133.5,171.2,137.6,165.7,140.6z"/>
	<line fill="none" stroke="#000000" stroke-miterlimit="10" x1="112" y1="198.5" x2="145" y2="198.5"/>
	<line fill="none" stroke="#000000" stroke-miterlimit="10" x1="124" y1="172.5" x2="132" y2="172.5"/>
	<line fill="none" stroke="#000000" stroke-miterlimit="10" x1="110" y1="212.5" x2="146" y2="212.5"/>
	<line fill="none" stroke="#000000" stroke-miterlimit="10" x1="107" y1="216.5" x2="150" y2="216.5"/>
	<line fill="none" stroke="#000000" stroke-miterlimit="10" x1="104" y1="242.5" x2="152" y2="242.5"/>
	<path fill="#FFFFFF" d="M125,110h14.4c0,0-0.9,16.4-2,22.6c-0.4,2.5-1.3,17.5-1.2,22.8c-2.4,0-2.2,0-11.2,0V110z"/>
	<path fill="#FFFFFF" d="M131.6,176H127c0,0-1-0.5-1-1.4c0-1.2,1-1.6,1-1.6h4.6c0,0,1,0.3,1,1.5S131.6,176,131.6,176z"/>
	<path fill="#FFFFFF" d="M127.3,179.6c0,0-2.2,11.4-0.9,14.4c2.1,0,5.5,0,5.5,0v-2.3c0,0-1.6-9.5-1.3-11.9
		C129.6,179.8,127.3,179.6,127.3,179.6z"/>
	<rect x="127" y="195" fill="#FFFFFF" width="7" height="1"/>
	<rect x="125" y="213" fill="#FFFFFF" width="12" height="2"/>
	<rect x="125" y="217" fill="#FFFFFF" width="14" height="1"/>
	<line fill="none" stroke="#000000" stroke-miterlimit="10" x1="118" y1="194.5" x2="140" y2="194.5"/>
	<line fill="none" stroke="#000000" stroke-miterlimit="10" x1="119" y1="192.5" x2="137" y2="192.5"/>
	<path fill="#ABD100" d="M139.4,110h7.8c0,0-3.9,18.6-4.8,25.9c-0.9,7.3-1.7,14.9-1.7,19.5c-2.9,0-5.1,0-5.1,0S136.2,125,139.4,110z
		"/>
	<path fill="#FF9F00" d="M108.7,110h-4.6c0,0,8.3,30,8.1,38.3c0,2.1,0.3,7.7,0.3,7.7h2.1c0,0-0.1-7.3-0.1-9.8S108.7,110,108.7,110z"
		/>
	<line fill="none" stroke="#000000" stroke-miterlimit="10" x1="112" y1="156.5" x2="145" y2="156.5"/>
	<path fill="#FF9F00" d="M121.7,158.8l-1.9,0.1c0,0,0.3,2.8,1.3,5.7c0.7,2.1,2,3.5,3.2,6.5c1.1,0,2,0,2,0s-2.1-2.9-3.3-6
		C121.9,162.4,121.7,159.3,121.7,158.8z"/>
	<path fill="#FF9F00" d="M121.8,174.5c0,0,0.6,2,2.8,2.7c1.7,0.6,1.1,1.2,0,1.1C124.2,178.3,120.7,177.6,121.8,174.5z"/>
	<rect x="119.4" y="192.8" fill="#FF9F00" width="1.5" height="0.8"/>
	<rect x="116" y="195" fill="#B9A9A5" width="2" height="3"/>
	<rect x="113" y="199" fill="#FF9F00" width="3" height="13"/>
	<rect x="111" y="213" fill="#FF9F00" width="4" height="1"/>
	<rect x="108" y="217" fill="#FF9F00" width="3" height="25"/>
	<path fill="#ABD100" d="M133.3,159h2c0,0-0.6,7-4.2,12c-1.1,0-1.5,0-1.5,0S133.3,165.5,133.3,159z"/>
	<path fill="#ABD100" d="M134.2,174.5c0,0-0.8,2.3-2.8,2.7c-1.9,0.4-0.8,1.2,0,1.1C132.2,178.2,135.2,177.3,134.2,174.5z"/>
	<rect x="134.4" y="193.1" fill="#ABD100" width="1.6" height="0.8"/>
	<rect x="134" y="195" fill="#ABD100" width="5" height="3"/>
	<rect x="115" y="195" fill="#FF9F00" width="4" height="3"/>
	<rect x="136" y="199" fill="#ABD100" width="5" height="13"/>
	<rect x="138" y="213" fill="#ABD100" width="6" height="1"/>
	<rect x="141" y="217" fill="#ABD100" width="5" height="25"/>
	<line fill="none" stroke="#000000" stroke-miterlimit="10" x1="120" y1="158.5" x2="137" y2="158.5"/>
	<line fill="none" stroke="#000000" stroke-miterlimit="10" x1="124" y1="179.5" x2="132" y2="179.5"/>
</g>
<g>
	<path fill="#F0F0F0" d="M191.6,106.2c22.6,0,41-18.3,41-41c0-22.6-18.3-41-41-41c-22.6,0-41,18.3-41,41
		C150.7,87.9,169,106.2,191.6,106.2"/>
	<path fill="#D80027" d="M232.2,59.9H197l0,0V24.7c-1.7-0.2-3.5-0.3-5.3-0.3s-3.6,0.1-5.3,0.3V60H151c-0.2,1.7-0.3,3.5-0.3,5.3
		s0.1,3.6,0.3,5.3h35.3v35.3c1.7,0.2,3.5,0.3,5.3,0.3s3.6-0.1,5.3-0.3V70.6h35.3c0.2-1.7,0.3-3.5,0.3-5.3
		C232.6,63.5,232.5,61.7,232.2,59.9"/>
</g>
<g>
	<g>
		<ellipse fill="none" stroke="#000000" stroke-miterlimit="10" cx="191.6" cy="65.2" rx="40.8" ry="40.6"/>
	</g>
</g>
<g>
	<path d="M4.476,206.585v-28.952h5.478l4.112,21.155l3.866-21.155h5.511v28.952h-3.932v-10.791l0.165-9.903l-3.899,20.562h-3.504
		L8.21,185.891l0.165,9.903v10.791H4.476z"/>
	<path d="M26.825,206.585v-28.952h9.706v3.8h-5.297v8.423h5.034v3.718h-5.034v9.212h5.494v3.8h-9.903V206.585z"/>
	<path d="M39.436,206.585v-28.952h4.409v28.952H39.436z"/>
	<path d="M46.799,198.442v-2.583h4.178v2.912c0,1.612,0.137,2.744,0.411,3.396c0.274,0.653,0.79,0.979,1.546,0.979
		c0.757,0,1.259-0.269,1.505-0.807c0.247-0.537,0.37-1.414,0.37-2.632c0-1.217-0.22-2.278-0.658-3.183s-1.135-1.852-2.089-2.838
		l-2.139-2.204c-0.998-1.042-1.774-2.122-2.328-3.241c-0.554-1.118-0.831-2.412-0.831-3.882c0-2.391,0.46-4.168,1.382-5.33
		c0.921-1.162,2.505-1.744,4.754-1.744c2.248,0,3.77,0.678,4.565,2.032s1.192,3.331,1.192,5.93v1.793h-4.063v-2.072
		c0-1.403-0.121-2.41-0.362-3.019s-0.705-0.913-1.39-0.913c-0.686,0-1.179,0.23-1.48,0.69c-0.302,0.461-0.453,1.152-0.453,2.073
		s0.154,1.656,0.461,2.204c0.307,0.549,0.861,1.25,1.661,2.105l2.385,2.583c1.195,1.294,2.098,2.604,2.706,3.932
		c0.609,1.327,0.913,2.774,0.913,4.343c0,2.709-0.455,4.71-1.365,6.004c-0.911,1.295-2.503,1.941-4.779,1.941
		s-3.86-0.721-4.754-2.163C47.246,203.309,46.799,201.206,46.799,198.442z"/>
	<path d="M62.766,206.585v-25.136h-3.389v-3.816h11.038v3.816h-3.257v25.136H62.766z"/>
	<path d="M71.873,206.585v-28.952h9.706v3.8h-5.297v8.423h5.034v3.718h-5.034v9.212h5.494v3.8h-9.903V206.585z"/>
	<path d="M90.142,192.98l-1.415-0.065v13.67h-4.409v-28.952h7.288c1.513,0,2.643,0.305,3.389,0.913s1.236,1.459,1.472,2.55
		s0.354,2.517,0.354,4.277s-0.187,3.101-0.559,4.021c-0.373,0.922-1.064,1.541-2.073,1.859c0.998,0.175,1.694,0.85,2.089,2.023
		c0.395,1.173,0.592,3.616,0.592,7.328c0,3.713,0.055,5.706,0.164,5.979h-4.408c-0.11-0.219-0.165-3.679-0.165-10.38
		c0-1.283-0.154-2.136-0.461-2.558C91.694,193.225,91.074,193.003,90.142,192.98z M88.744,189.493h1.76
		c0.559,0,0.973-0.126,1.242-0.378s0.455-0.686,0.56-1.3c0.104-0.614,0.156-1.552,0.156-2.812v-0.182
		c0-1.567-0.132-2.593-0.395-3.076c-0.263-0.482-0.872-0.724-1.826-0.724h-1.497V189.493z"/>
	<path d="M105,206.585v-28.952h6.498c2.127,0,3.671,0.628,4.631,1.884c0.959,1.256,1.439,3.106,1.439,5.552l0.016,13.062
		c0,2.917-0.482,5.056-1.447,6.415c-0.965,1.36-2.561,2.04-4.787,2.04L105,206.585L105,206.585z M109.409,203.163h1.448
		c0.812,0,1.401-0.263,1.769-0.789c0.367-0.526,0.551-1.491,0.551-2.896l-0.016-14.295c0-1.503-0.184-2.571-0.551-3.208
		c-0.368-0.636-1.001-0.954-1.9-0.954h-1.3L109.409,203.163L109.409,203.163z"/>
	<path d="M120.572,206.585v-28.952h9.706v3.8h-5.297v8.423h5.034v3.718h-5.034v9.212h5.495v3.8h-9.904V206.585z"/>
	<path d="M138.842,192.98l-1.414-0.065v13.67h-4.409v-28.952h7.288c1.513,0,2.643,0.305,3.389,0.913
		c0.745,0.608,1.236,1.459,1.472,2.55c0.236,1.091,0.354,2.517,0.354,4.277s-0.187,3.101-0.559,4.021
		c-0.373,0.922-1.064,1.541-2.073,1.859c0.998,0.175,1.694,0.85,2.09,2.023c0.395,1.173,0.592,3.616,0.592,7.328
		c0,3.713,0.055,5.706,0.164,5.979h-4.408c-0.109-0.219-0.164-3.679-0.164-10.38c0-1.283-0.154-2.136-0.461-2.558
		C140.394,193.225,139.774,193.003,138.842,192.98z M137.444,189.493h1.76c0.56,0,0.973-0.126,1.242-0.378s0.455-0.686,0.56-1.3
		c0.104-0.614,0.156-1.552,0.156-2.812v-0.182c0-1.567-0.132-2.593-0.396-3.076c-0.263-0.482-0.871-0.724-1.826-0.724h-1.496
		V189.493z"/>
	<path d="M153.717,206.585v-28.952h6.646c2.248,0,3.786,0.683,4.614,2.048c0.827,1.365,1.264,3.403,1.308,6.111v0.608
		c0,2.874-0.409,5.054-1.226,6.539c-0.817,1.486-2.333,2.229-4.549,2.229h-2.385v11.416L153.717,206.585L153.717,206.585z
		 M158.126,191.533h1.513c0.933,0,1.538-0.359,1.818-1.077c0.279-0.719,0.419-2.087,0.419-4.104v-0.56
		c-0.011-1.711-0.161-2.934-0.452-3.668s-0.875-1.103-1.752-1.103h-1.546V191.533z"/>
	<path d="M174.092,192.98l-1.414-0.065v13.67h-4.409v-28.952h7.288c1.513,0,2.643,0.305,3.389,0.913
		c0.745,0.608,1.236,1.459,1.472,2.55c0.236,1.091,0.354,2.517,0.354,4.277s-0.187,3.101-0.559,4.021
		c-0.373,0.922-1.064,1.541-2.073,1.859c0.998,0.175,1.694,0.85,2.09,2.023c0.395,1.173,0.592,3.616,0.592,7.328
		c0,3.713,0.055,5.706,0.164,5.979h-4.408c-0.109-0.219-0.164-3.679-0.164-10.38c0-1.283-0.154-2.136-0.461-2.558
		C175.644,193.225,175.024,193.003,174.092,192.98z M172.694,189.493h1.76c0.56,0,0.973-0.126,1.242-0.378s0.455-0.686,0.56-1.3
		c0.104-0.614,0.156-1.552,0.156-2.812v-0.182c0-1.567-0.132-2.593-0.396-3.076c-0.263-0.482-0.871-0.724-1.826-0.724h-1.496
		V189.493z"/>
	<path d="M183.906,206.585v-28.952h9.706v3.8h-5.297v8.423h5.033v3.718h-5.033v9.212h5.494v3.8h-9.903V206.585z"/>
	<path d="M196.353,206.585v-28.952h5.479l4.112,21.155l3.865-21.155h5.512v28.952h-3.932v-10.791l0.164-9.903l-3.898,20.562h-3.504
		l-4.063-20.562l0.165,9.903v10.791H196.353z"/>
	<path d="M218.867,206.585v-28.952h4.408v28.952H218.867z"/>
	<path d="M226.806,206.585v-28.952h9.705v3.8h-5.297v8.423h5.034v3.718h-5.034v9.212h5.494v3.8h-9.902V206.585z"/>
	<path d="M245.075,192.98l-1.414-0.065v13.67h-4.409v-28.952h7.288c1.513,0,2.643,0.305,3.389,0.913
		c0.745,0.608,1.236,1.459,1.472,2.55c0.236,1.091,0.354,2.517,0.354,4.277s-0.187,3.101-0.559,4.021
		c-0.373,0.922-1.064,1.541-2.073,1.859c0.998,0.175,1.694,0.85,2.09,2.023c0.395,1.173,0.592,3.616,0.592,7.328
		c0,3.713,0.055,5.706,0.164,5.979h-4.408c-0.109-0.219-0.164-3.679-0.164-10.38c0-1.283-0.154-2.136-0.461-2.558
		C246.627,193.225,246.008,193.003,245.075,192.98z M243.678,189.493h1.76c0.56,0,0.973-0.126,1.242-0.378s0.455-0.686,0.56-1.3
		c0.104-0.614,0.156-1.552,0.156-2.812v-0.182c0-1.567-0.132-2.593-0.396-3.076c-0.263-0.482-0.871-0.724-1.826-0.724h-1.496
		V189.493z"/>
	<path d="M11.318,240.585v-28.952h4.409v25.202h5.577v3.75H11.318z"/>
	<path d="M23.836,240.585v-28.952h9.706v3.8h-5.297v8.423h5.034v3.718h-5.034v9.212h5.494v3.8h-9.903V240.585z"/>
	<path d="M35.944,240.585l4.129-28.952h5.823l4.393,28.952h-4.113l-0.691-5.165h-4.672l-0.625,5.165H35.944z M45.024,231.883
		l-1.941-14.542h-0.065l-1.777,14.542H45.024z"/>
	<path d="M58.678,240.881c-1.82,0-3.243-0.715-4.269-2.146c-1.025-1.431-1.538-3.638-1.538-6.621V219.53
		c0-2.676,0.523-4.716,1.571-6.12c1.047-1.403,2.711-2.105,4.993-2.105c2.84,0,4.645,1.059,5.412,3.175
		c0.461,1.272,0.691,3.011,0.691,5.215v2.057h-4.112v-3.027c0-1.326-0.14-2.259-0.419-2.796c-0.28-0.537-0.806-0.807-1.58-0.807
		c-0.773,0-1.319,0.321-1.637,0.963s-0.477,1.779-0.477,3.413v12.552c0,1.897,0.143,3.219,0.428,3.964
		c0.285,0.746,0.842,1.119,1.67,1.119s1.415-0.4,1.76-1.201c0.345-0.8,0.518-2.149,0.518-4.047v-3.898h-2.221v-3.208h6.07v15.809
		h-1.974l-0.674-2.846c-0.23,0.977-0.735,1.744-1.513,2.303C60.597,240.602,59.698,240.881,58.678,240.881z"/>
	<path d="M80.771,239.03c-1.009,1.256-2.629,1.884-4.861,1.884s-3.855-0.63-4.869-1.892c-1.015-1.261-1.522-3.219-1.522-5.873
		v-21.533h4.409v21.451c0,1.524,0.071,2.451,0.214,2.78s0.315,0.628,0.518,0.896s0.623,0.403,1.259,0.403s1.091-0.187,1.365-0.56
		c0.274-0.373,0.441-0.836,0.501-1.39c0.061-0.554,0.091-1.265,0.091-2.131v-21.451h4.409v21.533
		C82.284,235.814,81.779,237.775,80.771,239.03z"/>
	<path d="M86.462,240.585v-28.952h9.706v3.8h-5.297v8.423h5.034v3.718h-5.034v9.212h5.494v3.8h-9.903V240.585z"/>
	<path d="M106.383,240.585v-1.711c0-1.513,0.25-3.002,0.749-4.466s1.28-3.128,2.344-4.993c0.044-0.065,0.444-0.751,1.201-2.056
		c0.757-1.305,1.311-2.204,1.662-2.698c0.855-1.403,1.283-3.348,1.283-5.831c0-2.484-0.526-3.727-1.579-3.727
		c-0.877,0-1.42,0.691-1.629,2.073c-0.088,0.592-0.131,1.332-0.131,2.221v3.668h-4.211v-1.776c0-3.586,0.337-6.01,1.012-7.271
		c0.675-1.262,1.604-2.067,2.789-2.419c0.658-0.197,1.453-0.296,2.385-0.296s1.771,0.209,2.517,0.625
		c0.724,0.417,1.305,0.998,1.744,1.744c0.855,1.459,1.283,3.358,1.283,5.7c0,2.341-0.455,4.395-1.365,6.16
		c-0.911,1.766-1.81,3.334-2.698,4.705c-1.623,2.512-2.676,4.809-3.159,6.893h6.679v3.454h-10.876V240.585z"/>
	<path d="M132.734,242.444c-1.066,0-1.933-0.087-2.598-0.26c-0.666-0.173-1.229-0.49-1.689-0.95s-0.784-1.084-0.971-1.873
		c-0.187-0.788-0.28-1.807-0.28-3.056V221.8c0-1.248,0.093-2.267,0.28-3.056c0.187-0.788,0.51-1.412,0.971-1.873
		c0.46-0.46,1.023-0.776,1.689-0.95c0.665-0.173,1.531-0.26,2.598-0.26v2.734c-0.812,0-1.331,0.212-1.559,0.636
		c-0.229,0.424-0.342,1.329-0.342,2.714v14.615c0,1.386,0.113,2.29,0.342,2.714c0.228,0.424,0.747,0.636,1.559,0.636V242.444z"/>
	<path d="M135.688,240.585v-24.062h5.4c1.768,0,3.051,0.522,3.849,1.565c0.797,1.044,1.196,2.582,1.196,4.614l0.014,10.855
		c0,2.425-0.401,4.202-1.203,5.332c-0.803,1.131-2.129,1.695-3.979,1.695L135.688,240.585L135.688,240.585z M139.352,237.741h1.203
		c0.674,0,1.164-0.219,1.47-0.656c0.305-0.438,0.458-1.239,0.458-2.406l-0.014-11.881c0-1.248-0.153-2.137-0.458-2.666
		c-0.306-0.528-0.832-0.793-1.579-0.793h-1.08V237.741z"/>
	<path d="M149.578,240.585v-24.062h3.664v24.062H149.578z"/>
	<path d="M159.682,240.585l-3.732-24.062h3.486l1.572,10.869l0.971,7.656h0.096l0.834-7.656l1.312-10.869h3.418l-3.432,24.062
		H159.682z"/>
	<path d="M170.332,240.585v-24.062h3.664v24.062H170.332z"/>
	<path d="M177.264,233.817v-2.146h3.473v2.42c0,1.34,0.113,2.281,0.342,2.823c0.228,0.543,0.656,0.813,1.285,0.813
		s1.046-0.223,1.251-0.67c0.205-0.446,0.308-1.176,0.308-2.188s-0.183-1.894-0.547-2.646c-0.365-0.752-0.943-1.538-1.736-2.358
		l-1.777-1.832c-0.83-0.865-1.475-1.764-1.935-2.693c-0.461-0.93-0.69-2.005-0.69-3.227c0-1.986,0.383-3.463,1.148-4.43
		c0.766-0.966,2.082-1.449,3.951-1.449c1.868,0,3.133,0.563,3.794,1.688c0.66,1.126,0.991,2.769,0.991,4.929v1.49h-3.377v-1.723
		c0-1.166-0.101-2.003-0.301-2.509c-0.201-0.506-0.586-0.759-1.155-0.759c-0.57,0-0.98,0.191-1.23,0.574
		c-0.251,0.383-0.376,0.957-0.376,1.723s0.127,1.377,0.383,1.832c0.255,0.456,0.715,1.039,1.381,1.75l1.982,2.146
		c0.993,1.076,1.743,2.165,2.249,3.268c0.506,1.104,0.759,2.307,0.759,3.609c0,2.252-0.379,3.915-1.135,4.99
		c-0.757,1.076-2.081,1.613-3.972,1.613c-1.892,0-3.209-0.599-3.951-1.798C177.635,237.862,177.264,236.114,177.264,233.817z"/>
	<path d="M190.252,240.585v-24.062h3.664v24.062H190.252z"/>
	<path d="M206.74,239.122c-0.839,1.158-2.181,1.736-4.026,1.736s-3.199-0.581-4.061-1.743s-1.292-2.914-1.292-5.257v-11.006
		c0-4.411,1.8-6.617,5.4-6.617c1.859,0,3.196,0.561,4.013,1.682c0.815,1.121,1.224,2.767,1.224,4.936v11.006
		C207.998,236.21,207.578,237.965,206.74,239.122z M201.374,236.853c0.214,0.557,0.653,0.834,1.319,0.834
		c0.665,0,1.103-0.284,1.312-0.854c0.209-0.569,0.314-1.547,0.314-2.933v-11.211c0-1.139-0.107-1.971-0.321-2.495
		c-0.215-0.523-0.634-0.786-1.258-0.786c-0.625,0-1.062,0.263-1.312,0.786c-0.251,0.524-0.376,1.352-0.376,2.481V233.9
		C201.053,235.312,201.159,236.297,201.374,236.853z"/>
	<path d="M211.32,240.585v-24.062h2.871l5.1,14.438l-0.26-6.562v-7.875h3.295v24.062h-2.598l-5.236-14.943l0.205,6.316v8.627h-3.377
		V240.585z"/>
	<path d="M232.676,240.585v-19.523c-0.311,0.374-0.748,0.663-1.312,0.868c-0.565,0.205-1.121,0.308-1.668,0.308v-2.721
		c0.774-0.109,1.511-0.424,2.208-0.943s1.228-1.207,1.593-2.064h2.844v24.076h-3.665V240.585z"/>
	<path d="M239.566,242.444v-2.734c0.811,0,1.33-0.212,1.559-0.636c0.228-0.424,0.342-1.328,0.342-2.714v-14.615
		c0-1.385-0.114-2.29-0.342-2.714c-0.229-0.424-0.748-0.636-1.559-0.636v-2.734c1.066,0,1.932,0.087,2.598,0.26
		c0.665,0.174,1.226,0.49,1.682,0.95c0.455,0.461,0.776,1.085,0.964,1.873c0.187,0.789,0.28,1.808,0.28,3.056v14.506
		c0,1.249-0.094,2.268-0.28,3.056c-0.188,0.789-0.509,1.413-0.964,1.873c-0.456,0.46-1.017,0.777-1.682,0.95
		C241.498,242.357,240.633,242.444,239.566,242.444z"/>
</g>
</svg>
