<?xml version="1.0" encoding="utf-8"?>
<!-- Generator: Adobe Illustrator 17.0.0, SVG Export Plug-In . SVG Version: 6.00 Build 0)  -->
<!DOCTYPE svg PUBLIC "-//W3C//DTD SVG 1.1//EN" "http://www.w3.org/Graphics/SVG/1.1/DTD/svg11.dtd">
<svg version="1.1" id="Layer_1" xmlns="http://www.w3.org/2000/svg" xmlns:xlink="http://www.w3.org/1999/xlink" x="0px" y="0px"
	 width="256px" height="256px" viewBox="0 0 256 256" enable-background="new 0 0 256 256" xml:space="preserve">
<path fill="#FFFFFF" d="M192.1,10.3c-17.1,0-32.4,8-42.3,20.6h-0.3v0.3c-7.1,9.1-11.4,20.6-11.4,33c0,29.7,24.2,53.9,53.9,53.9
	s54-24.2,54-53.9S221.9,10.3,192.1,10.3z"/>
<path d="M192,10.3c-17.1,0-32.4,8-42.3,20.6h-0.3v0.3c-7.1,9.1-11.4,20.6-11.4,33c0,29.7,24.2,53.9,53.9,53.9s53.9-24.2,53.9-53.9
	S221.7,10.3,192,10.3z M208.6,100.9l-23.1-3L183.7,78l17.6-10.7L217,82.4L208.6,100.9z M171.2,103.3L151.9,89l-2.1-14.7l11.8-7.4
	L181.5,78l1.9,20.2L171.2,103.3z M149.1,72.2L142,57.4l9.3-15.3l9.7,2l-0.2,20.8L149.1,72.2z M188.3,19l21.3,2.9l7.3,13.6l-16.1,7.9
	l-16.5-11.5L188.3,19z M231.4,74.4l-12.6,6.7l-16.9-16.2l0.2-19.7l16-7.9L232.3,50L231.4,74.4z M233.5,74.9l1-24.5l7.1-0.9
	c1.4,4.7,2.1,9.6,2.1,14.7c0,4.6-0.6,9-1.7,13.2L233.5,74.9z M240.9,47.4l-7.1,0.9l-14.6-13.1L212,21.9l6.1-2.4
	C228.7,25.7,236.9,35.6,240.9,47.4z M178.8,14.2l7.4,4.1L182,32.1L162.3,42l-10.5-2.1l-0.2-8.1C158.5,23.4,167.9,17,178.8,14.2z
	 M149.7,40.5l-8.5,14.1c1.4-7.3,4.3-14.1,8.4-20L149.7,40.5z M140.5,59.2l7.1,14.9l2.1,14.8l-2.9,0.4c-4.1-7.4-6.5-16-6.5-25.1
	C140.3,62.5,140.4,60.8,140.5,59.2z M172.4,112.1l-0.2-6.8l12.5-5.3l23.9,3.1l4.4,8.4c-6.4,2.9-13.5,4.5-21,4.5
	C185.1,115.9,178.5,114.5,172.4,112.1z"/>
<g>
	<path fill="#FCFF00" stroke="#000000" stroke-miterlimit="10" d="M173.5,109.7c-6.7,0-9.2,2.8-10,9.8h-71c-0.8-7-3.3-9.8-10-9.8
		c-8.5,0-8.9,8.1-8.9,8.2c0,11,9.4,16,16.9,20.5c4.8,2.8,9.5,5.2,9.5,8.5c0,3.8-1.6,4.2-2.2,4.4h-0.2c-0.7,0.2-1.1,1-0.8,1.6
		c0.2,0.5,0.7,0.9,1.2,0.9c0.1,0,0.3,0,0.4-0.1h0.1c3.5-1,3.8-4.5,3.8-7.1c0-1.6-1-2.9-2.1-4.1c3.4,3.8,8.3,7.1,15.3,8.4
		c0,3.8,0,9.3,0,9.3s8,3.4,8.5,7c0,1.6,0,2.9,0,2.9s-4.9,0.2-6.7,4.1c0.7,1.8,4.2,21.9-2.8,41.7c0,1.1,0,2.5,0,2.5h-5.4l-4.6,3.4
		v20.6h-3.3c0,0-3.7,0.7-3.7,6.4c0,0.9,0,5.6,0,5.6h60c0,0,0-4.7,0-5.6c0-5.8-2.7-6.4-2.7-6.4h-6.3v-20.6l-1.6-3.4h-6.4
		c0,0,0-1.4,0-2.5c-8-19.8-3.1-39.9-2.4-41.7c-1.8-4-6.6-4.1-6.6-4.1s-0.2-1.3-0.2-2.9c0.5-3.6,8.2-7,8.2-7s0-5.6,0-9.3
		c8-1.4,12.4-4.6,15.8-8.4c-1.1,1.2-1.7,2.6-1.7,4.1c0,2.6,0.3,6.1,3.8,7.1h0.1c0.1,0,0.3,0.1,0.4,0.1c0.5,0,1.1-0.3,1.2-0.9
		c0.2-0.7-0.1-1.4-0.8-1.7h-0.2c-0.6-0.2-2.2-0.7-2.2-4.5c0-3.3,4.7-5.7,9.5-8.5c7.5-4.5,16.9-9.4,16.9-20.3
		C182.4,117.8,182.1,109.7,173.5,109.7z M91.9,136.4c-7.3-4.3-15.7-9.3-15.7-18.7c0-0.6,0.4-5.9,6.2-5.9c5.2,0,8.1,3,8.1,10.2
		c0,0.7-0.3,1.9-0.5,2.1c-0.3,0.2-0.3-0.1-0.4-0.2c-0.7-0.2-1.4,0.3-1.6,1s0.3,1.4,1,1.6c0.2,0,1.1,0.4,2.4-0.6
		c0.9-0.7,1.4-1.9,1.4-3.5c0-0.8,0-1.5-0.1-2.3c1,0,0.7,0.2,0.7,0.2s-0.9,12.8,7.1,22.1C98.5,140.2,95.3,138.4,91.9,136.4z
		 M164.1,136.4c-3.4,2-6.6,3.8-8.5,5.9c8-9.3,7.1-22.1,7.1-22.1s-0.4-0.2,0.7-0.2c-0.1,0.8-0.1,1.6-0.1,2.3c0,1.6,0.5,2.8,1.4,3.5
		c1.3,1,2.2,0.7,2.4,0.6c0.7-0.2,1.1-0.9,1-1.6c-0.2-0.7-0.9-1.1-1.6-1c-0.1,0-0.2,0.4-0.4,0.2c-0.3-0.2-0.5-1.4-0.5-2.1
		c0-7.2,2.8-10.2,8.1-10.2c5.9,0,6.2,5.3,6.2,5.9C179.8,127.2,171.4,132.1,164.1,136.4z"/>
	<path fill="#FFFFFF" d="M147.6,120h-26.8c0,0-0.3,3.5,0.8,5.7c1.1,2.2,3.1,5.3,13.3,5.3c10.5,0,11.1-3.3,12.2-5.7
		C148.3,123,147.6,120,147.6,120z"/>
	<rect x="127" y="152" fill="#FFFFFF" width="7" height="9"/>
	<polygon fill="#FFFFFF" points="133,177 126.4,177 126,174 133,174 	"/>
	<path fill="#FFFFFF" d="M134.4,216h-8.7c0,0,1.1-2.6,1.5-12.5s0.2-14.5,0.2-14.5h4.6c0,0,0.2,7.9,0.5,15.1
		C132.7,213.5,134.4,216,134.4,216z"/>
	<rect x="139" y="223" fill="#ABD100" width="5" height="20"/>
	<rect x="134.9" y="216.2" fill="#ABD100" width="1.9" height="1.9"/>
	<path fill="#ABD100" d="M132.7,174.6l3.3-0.1c0,0-4.6,20.7,0.2,38.1C136,212.7,131.6,208.2,132.7,174.6z"/>
	<rect x="108" y="223" fill="#FF9F00" width="5" height="20"/>
	<rect x="115" y="216" fill="#FF9F00" width="4" height="2"/>
	<path fill="#FF9F00" d="M122.8,174h-4.1c0,0,4.2,20.6-0.5,37.9C119.2,210.3,122.8,203,122.8,174z"/>
	<rect x="134" y="152" fill="#ABD100" width="1" height="9"/>
	<rect x="117" y="152" fill="#FF9F00" width="2" height="9"/>
	<rect x="128" y="167" fill="#FFFFFF" width="2" height="3"/>
	<path fill="#ABD100" d="M138.3,150c0,0-7.2,1.1-7.7-2.6c7.4-1,28.4-12.6,30.5-25C160.8,127.1,157.6,145.6,138.3,150z"/>
	<path fill="#FF9F00" d="M118.4,150c0,0,7.9,1.1,7.7-2.6c-7.4-1-28.4-12.6-30.5-25C95.8,127.1,99.1,145.6,118.4,150z"/>
	<line fill="none" stroke="#000000" stroke-miterlimit="10" x1="115" y1="160.5" x2="140" y2="160.5"/>
	<line fill="none" stroke="#000000" stroke-miterlimit="10" x1="122" y1="170.5" x2="134" y2="170.5"/>
	<line fill="none" stroke="#000000" stroke-miterlimit="10" x1="116" y1="173.5" x2="138" y2="173.5"/>
	<line fill="none" stroke="#000000" stroke-miterlimit="10" x1="114" y1="218.5" x2="141" y2="218.5"/>
	<line fill="none" stroke="#000000" stroke-miterlimit="10" x1="105" y1="222.5" x2="149" y2="222.5"/>
	<line fill="none" stroke="#000000" stroke-miterlimit="10" x1="105" y1="242.5" x2="149" y2="242.5"/>
	<line fill="none" stroke="#000000" stroke-miterlimit="10" x1="114" y1="216.5" x2="141" y2="216.5"/>
	<line fill="none" stroke="#000000" stroke-miterlimit="10" x1="115" y1="151.5" x2="140" y2="151.5"/>
</g>
<g>
	<path d="M52.708,206v-28.952h5.478l4.112,21.154l3.866-21.154h5.511V206h-3.932v-10.792l0.165-9.902l-3.899,20.562h-3.504
		l-4.063-20.562l0.165,9.902V206H52.708z"/>
	<path d="M76.034,206v-28.952h9.706v3.8h-5.297v8.422h5.034v3.718h-5.034v9.213h5.494v3.8h-9.903V206z"/>
	<path d="M89.622,206v-28.952h4.409V206H89.622z"/>
	<path d="M97.962,197.856v-2.582h4.178v2.911c0,1.612,0.137,2.745,0.411,3.397c0.274,0.652,0.79,0.979,1.546,0.979
		c0.757,0,1.259-0.269,1.505-0.806s0.37-1.415,0.37-2.632c0-1.218-0.22-2.278-0.658-3.184c-0.438-0.904-1.135-1.851-2.089-2.838
		l-2.139-2.204c-0.998-1.042-1.774-2.122-2.328-3.24c-0.554-1.119-0.831-2.413-0.831-3.883c0-2.391,0.46-4.167,1.382-5.33
		c0.921-1.162,2.505-1.743,4.754-1.743c2.248,0,3.77,0.677,4.565,2.031c0.795,1.354,1.192,3.331,1.192,5.931v1.793h-4.063v-2.073
		c0-1.403-0.121-2.409-0.362-3.019c-0.241-0.608-0.705-0.913-1.39-0.913c-0.686,0-1.179,0.23-1.48,0.691
		c-0.302,0.461-0.453,1.151-0.453,2.072c0,0.922,0.154,1.656,0.461,2.205c0.307,0.548,0.861,1.25,1.661,2.105l2.385,2.582
		c1.195,1.295,2.098,2.605,2.706,3.932c0.609,1.327,0.913,2.775,0.913,4.344c0,2.708-0.455,4.71-1.365,6.004
		c-0.911,1.294-2.503,1.941-4.779,1.941s-3.86-0.722-4.754-2.163C98.409,202.724,97.962,200.62,97.962,197.856z"/>
	<path d="M114.906,206v-25.136h-3.389v-3.816h11.038v3.816h-3.257V206H114.906z"/>
	<path d="M124.99,206v-28.952h9.706v3.8h-5.297v8.422h5.033v3.718h-5.033v9.213h5.494v3.8h-9.903V206z"/>
	<path d="M144.236,192.396l-1.415-0.065V206h-4.408v-28.952h7.287c1.514,0,2.643,0.304,3.389,0.912
		c0.746,0.609,1.236,1.459,1.473,2.55c0.235,1.092,0.354,2.518,0.354,4.277c0,1.761-0.187,3.101-0.56,4.022
		s-1.063,1.541-2.072,1.858c0.998,0.176,1.694,0.851,2.089,2.023c0.395,1.174,0.593,3.616,0.593,7.329
		c0,3.712,0.055,5.705,0.164,5.979h-4.408c-0.11-0.22-0.165-3.68-0.165-10.38c0-1.283-0.153-2.136-0.461-2.559
		C145.788,192.64,145.168,192.418,144.236,192.396z M142.838,188.908h1.761c0.559,0,0.973-0.126,1.241-0.379
		c0.269-0.252,0.455-0.685,0.56-1.299s0.156-1.552,0.156-2.813v-0.181c0-1.568-0.132-2.594-0.395-3.076
		c-0.264-0.482-0.872-0.724-1.826-0.724h-1.497V188.908z"/>
	<path d="M161.048,206v-28.952h6.498c2.128,0,3.671,0.628,4.631,1.883c0.96,1.256,1.439,3.106,1.439,5.552l0.017,13.062
		c0,2.918-0.482,5.057-1.447,6.416c-0.966,1.36-2.562,2.04-4.787,2.04L161.048,206L161.048,206z M165.457,202.578h1.447
		c0.812,0,1.401-0.264,1.769-0.79s0.551-1.491,0.551-2.895l-0.016-14.296c0-1.502-0.185-2.571-0.552-3.207
		c-0.367-0.637-1.001-0.954-1.899-0.954h-1.3L165.457,202.578L165.457,202.578z"/>
	<path d="M177.597,206v-28.952h9.706v3.8h-5.297v8.422h5.033v3.718h-5.033v9.213h5.494v3.8h-9.903V206z"/>
	<path d="M196.844,192.396l-1.415-0.065V206h-4.408v-28.952h7.287c1.514,0,2.643,0.304,3.389,0.912
		c0.746,0.609,1.236,1.459,1.473,2.55c0.235,1.092,0.354,2.518,0.354,4.277c0,1.761-0.187,3.101-0.56,4.022
		s-1.063,1.541-2.072,1.858c0.998,0.176,1.694,0.851,2.089,2.023c0.395,1.174,0.593,3.616,0.593,7.329
		c0,3.712,0.055,5.705,0.164,5.979h-4.408c-0.11-0.22-0.165-3.68-0.165-10.38c0-1.283-0.153-2.136-0.461-2.559
		C198.396,192.64,197.775,192.418,196.844,192.396z M195.445,188.908h1.761c0.559,0,0.973-0.126,1.241-0.379
		c0.269-0.252,0.455-0.685,0.56-1.299s0.156-1.552,0.156-2.813v-0.181c0-1.568-0.132-2.594-0.395-3.076
		c-0.264-0.482-0.872-0.724-1.826-0.724h-1.497V188.908z"/>
	<path d="M67.291,240v-28.952h6.498c2.127,0,3.671,0.628,4.631,1.883c0.959,1.256,1.439,3.106,1.439,5.552l0.016,13.062
		c0,2.918-0.482,5.057-1.447,6.416c-0.965,1.36-2.561,2.04-4.787,2.04L67.291,240L67.291,240z M71.699,236.578h1.448
		c0.812,0,1.401-0.264,1.769-0.79c0.367-0.526,0.551-1.491,0.551-2.895l-0.016-14.296c0-1.502-0.184-2.571-0.551-3.207
		c-0.368-0.637-1.001-0.954-1.9-0.954h-1.3L71.699,236.578L71.699,236.578z"/>
	<path d="M84.004,240v-28.952h4.409V240H84.004z"/>
	<path d="M96.161,240l-4.491-28.952h4.195l1.892,13.077l1.168,9.213h0.115l1.003-9.213l1.579-13.077h4.113L101.605,240H96.161z"/>
	<path d="M108.976,240v-28.952h4.409V240H108.976z"/>
	<path d="M117.316,231.856v-2.582h4.178v2.911c0,1.612,0.137,2.745,0.411,3.397c0.274,0.652,0.79,0.979,1.546,0.979
		c0.757,0,1.259-0.269,1.505-0.806s0.37-1.415,0.37-2.632c0-1.218-0.22-2.278-0.658-3.184c-0.438-0.904-1.135-1.851-2.089-2.838
		l-2.139-2.204c-0.998-1.042-1.774-2.122-2.328-3.24c-0.554-1.119-0.831-2.413-0.831-3.883c0-2.391,0.46-4.167,1.382-5.33
		c0.921-1.162,2.505-1.743,4.754-1.743c2.248,0,3.77,0.677,4.565,2.031c0.794,1.354,1.192,3.331,1.192,5.931v1.793h-4.062v-2.073
		c0-1.403-0.121-2.409-0.362-3.019c-0.241-0.608-0.705-0.913-1.39-0.913c-0.686,0-1.179,0.23-1.48,0.691
		c-0.302,0.461-0.453,1.151-0.453,2.072c0,0.922,0.154,1.656,0.461,2.205c0.307,0.548,0.861,1.25,1.661,2.105l2.385,2.582
		c1.195,1.295,2.098,2.605,2.706,3.932c0.608,1.327,0.913,2.775,0.913,4.344c0,2.708-0.455,4.71-1.365,6.004
		c-0.911,1.294-2.503,1.941-4.779,1.941s-3.86-0.722-4.754-2.163C117.763,236.724,117.316,234.62,117.316,231.856z"/>
	<path d="M132.943,240v-28.952h4.408V240H132.943z"/>
	<path d="M152.782,238.239c-1.009,1.394-2.624,2.09-4.845,2.09s-3.85-0.699-4.886-2.098s-1.555-3.507-1.555-6.325v-13.242
		c0-5.308,2.166-7.962,6.498-7.962c2.237,0,3.847,0.674,4.828,2.023s1.473,3.328,1.473,5.938v13.242
		C154.296,234.735,153.791,236.847,152.782,238.239z M146.325,235.509c0.258,0.669,0.787,1.004,1.588,1.004
		c0.8,0,1.326-0.343,1.579-1.028c0.252-0.686,0.378-1.861,0.378-3.528v-13.489c0-1.371-0.129-2.372-0.387-3.003
		c-0.258-0.63-0.762-0.945-1.513-0.945c-0.752,0-1.278,0.315-1.579,0.945c-0.302,0.631-0.453,1.626-0.453,2.986v13.506
		C145.938,233.655,146.067,234.84,146.325,235.509z"/>
	<path d="M158.293,240v-28.952h3.454l6.136,17.371l-0.312-7.896v-9.475h3.965V240h-3.126l-6.3-17.98l0.247,7.601V240H158.293z"/>
	<path d="M183.988,240v-23.491c-0.373,0.45-0.899,0.798-1.579,1.045c-0.681,0.246-1.35,0.37-2.007,0.37v-3.273
		c0.932-0.132,1.817-0.511,2.656-1.136s1.478-1.453,1.916-2.483h3.422V240H183.988z"/>
</g>
</svg>
