<?xml version="1.0" encoding="utf-8"?>
<!-- Generator: Adobe Illustrator 17.0.0, SVG Export Plug-In . SVG Version: 6.00 Build 0)  -->
<!DOCTYPE svg PUBLIC "-//W3C//DTD SVG 1.1//EN" "http://www.w3.org/Graphics/SVG/1.1/DTD/svg11.dtd">
<svg version="1.1" id="Layer_1" xmlns="http://www.w3.org/2000/svg" xmlns:xlink="http://www.w3.org/1999/xlink" x="0px" y="0px"
	 width="256px" height="256px" viewBox="0 0 256 256" enable-background="new 0 0 256 256" xml:space="preserve">
<path fill="#FFFFFF" d="M192.1,10.3c-17.1,0-32.4,8-42.3,20.6h-0.3v0.3c-7.1,9.1-11.4,20.6-11.4,33c0,29.7,24.2,53.9,53.9,53.9
	s54-24.2,54-53.9S221.9,10.3,192.1,10.3z"/>
<path d="M192,10.3c-17.1,0-32.4,8-42.3,20.6h-0.3v0.3c-7.1,9.1-11.4,20.6-11.4,33c0,29.7,24.2,53.9,53.9,53.9s53.9-24.2,53.9-53.9
	S221.7,10.3,192,10.3z M208.6,100.9l-23.1-3L183.7,78l17.6-10.7L217,82.4L208.6,100.9z M171.2,103.3L151.9,89l-2.1-14.7l11.8-7.4
	L181.5,78l1.9,20.2L171.2,103.3z M149.1,72.2L142,57.4l9.3-15.3l9.7,2l-0.2,20.8L149.1,72.2z M188.3,19l21.3,2.9l7.3,13.6l-16.1,7.9
	l-16.5-11.5L188.3,19z M231.4,74.4l-12.6,6.7l-16.9-16.2l0.2-19.7l16-7.9L232.3,50L231.4,74.4z M233.5,74.9l1-24.5l7.1-0.9
	c1.4,4.7,2.1,9.6,2.1,14.7c0,4.6-0.6,9-1.7,13.2L233.5,74.9z M240.9,47.4l-7.1,0.9l-14.6-13.1L212,21.9l6.1-2.4
	C228.7,25.7,236.9,35.6,240.9,47.4z M178.8,14.2l7.4,4.1L182,32.1L162.3,42l-10.5-2.1l-0.2-8.1C158.5,23.4,167.9,17,178.8,14.2z
	 M149.7,40.5l-8.5,14.1c1.4-7.3,4.3-14.1,8.4-20L149.7,40.5z M140.5,59.2l7.1,14.9l2.1,14.8l-2.9,0.4c-4.1-7.4-6.5-16-6.5-25.1
	C140.3,62.5,140.4,60.8,140.5,59.2z M172.4,112.1l-0.2-6.8l12.5-5.3l23.9,3.1l4.4,8.4c-6.4,2.9-13.5,4.5-21,4.5
	C185.1,115.9,178.5,114.5,172.4,112.1z"/>
<g>
	<path fill="#FCFF00" stroke="#000000" stroke-miterlimit="10" d="M177,110.6c-0.3-0.4-0.8-0.1-1.3-0.1h-19.3
		c-0.9,0-1.6,0.2-1.6,1.1l-0.2,10.9c-0.4-0.3-0.8-0.5-1-0.7c1.4-0.8-0.1-2.3-0.1-2.3H94c0,0-1.5,1.5-0.1,2.3c-0.2,0.2-0.6,0.4-1,0.7
		l-0.2-10.8c0-0.9-0.7-1.2-1.6-1.2H71.8c-0.5,0-0.9-0.2-1.3,0.2c-0.3,0.4-0.4,0.7-0.4,1.1c0.1,0.3,6,30.8,31.8,36.5
		c3.8,2.7,8.6,4.9,14.7,6.2c0,0.8-3.3,4.8,3.4,7.3c0.4,1.6-2,6.4-2,14.3s-0.4,16.2-1.7,17.9c-1.3,1.6-2.3,3.5-1.6,5.4
		c-1.7,0-8.5,3.8-8.1,15.4c-2.2,0-4.6,0.3-4.6,0.3s-1.6,4.1-4.6,4.9v24.6h0.4c0,0-3.7,0.2-3.4,6.5c0,1.7,0.7,3.5,2.6,3.5
		c1.6,0,51.6,0,53.2,0c2,0,2.6-1.7,2.6-3.5c0.3-6.3-3.4-6.5-3.4-6.5h-3.1v-24.9c-2-0.8-2.8-4.9-2.8-4.9s-1.1-0.3-3.3-0.3
		c0.4-11.5-6.1-15.4-7.8-15.4c0.7-2-0.2-3.8-1.5-5.4s-1.7-10-1.7-17.9c0-7.8-2.4-12.6-1.9-14.3c6.6-2.5,3.4-6.5,3.4-7.3
		c6.1-1.3,10.9-3.5,14.7-6.2c25.8-5.7,31.8-36.1,31.8-36.4C177.4,111.1,177.3,110.9,177,110.6z M73.8,113.5h15.6l0.3,14.9
		c0,0.2,0,0.2,0.1,0.3c0,0.4,0,0.6,0,1c0.2,2.8,2,8.3,6.2,13.3C81,136.1,75.3,117.5,73.8,113.5z M151.4,142.9c4.2-5,6-10.4,6.2-13.2
		c0-0.4,0-0.9,0-1.2c0-0.1,0.1,0.1,0.1-0.1l0.3-14.9h15.6C172.1,117.5,166.5,135.9,151.4,142.9z"/>
	<path fill="#FFFFFF" d="M115.5,125.1c0,0-0.7-2.7,14.6-2.7c15.7,0,13.5,2.6,13.5,2.6s-1.7,9-5.4,9c-3.5,0-16.8,0-16.8,0
		S116.8,131.9,115.5,125.1z"/>
	<path fill="#FFFFFF" d="M123.6,163c0,0-1.5,13.8-0.9,18.2c0.7,4.4,0.2,8.4-0.4,10.6c-0.7,2.2-0.1,4.1,2.7,4.1c3.1,0,2.5-3.3,2-4.6
		c-0.4-1.3-0.2-7.2,0.2-10.2c0.4-3-0.3-12.6-1.6-18.3C124.4,163.1,123.6,163,123.6,163z"/>
	<rect x="123" y="156" fill="#FFFFFF" width="6" height="2"/>
	<rect x="125" y="197" fill="#ABD100" width="6" height="4"/>
	<path fill="#FFFFFF" d="M123.2,202h5.4c0,0,2.8,0.8,2.8,4.2c0.2,1.7-0.2,5.8-0.2,5.8h-9.1c0,0-0.8-3.8-1.1-5.3
		C120.8,205.4,121.4,203,123.2,202z"/>
	<path fill="#FFFFFF" d="M121.4,215c0,0,8.1,0,10.2,0s4.1,3.8,0,4c-3.9,0.2-8.5-0.1-10.7-0.1S118.8,215,121.4,215z"/>
	<rect x="136" y="221" fill="#ABD100" width="7" height="22"/>
	<path fill="#ABD100" d="M132.4,215c0,0-0.1-4.1-0.2-5.5c-0.2-2.2,3.2-3.2,3.5,1c0.1,1.2,0.6,4.5,0.6,4.5H132.4z"/>
	<path fill="#ABD100" d="M129.6,153.5c0,0-4.7,0.5-4.7-3.4s10-6.4,15.4-7.5s16-3.3,14.7-14.9c-0.3-2.6-5.1-5.1-8-5.2
		c0,0,9,1,9.3,5.6C156.6,132.6,154.5,146.9,129.6,153.5z"/>
	<rect x="117" y="197" fill="#FF9F00" width="1" height="4"/>
	<rect x="102" y="221" fill="#FF9F00" width="3" height="22"/>
	<path fill="#FF9F00" d="M112.1,215c0,0-0.1-2.9,0-4.3c0.2-2.2-3.2-3.3-3.5,1c-0.1,1.2-0.4,3.3-0.4,3.3H112.1z"/>
	<path fill="#FF9F00" d="M117.4,153.5c0,0,4.7,0.5,4.7-3.4s-10-6.4-15.4-7.5s-15-5-14.7-14.9c0.3-2.6,5.1-5.1,8-5.2
		c0,0-8.7,0.7-9,5.2C90.8,132.2,94.3,148,117.4,153.5z"/>
	<line fill="none" stroke="#957E78" stroke-miterlimit="10" x1="97" y1="244.5" x2="146" y2="244.5"/>
	<line fill="none" stroke="#957E78" stroke-miterlimit="10" x1="97" y1="220.5" x2="146" y2="220.5"/>
	<line fill="none" stroke="#957E78" stroke-miterlimit="10" x1="106" y1="214.5" x2="141" y2="214.5"/>
	<line fill="none" stroke="#957E78" stroke-miterlimit="10" x1="113" y1="200.5" x2="132" y2="200.5"/>
	<path fill="#B9A9A5" stroke="#957E78" stroke-width="0.6534" stroke-miterlimit="10" d="M118.5,161.1c0,0,2.2,1.1,5.5,1.1
		c2.1,0,5.3-1.2,6.5-2.5"/>
	<path fill="none" stroke="#957E78" stroke-width="0.6534" stroke-miterlimit="10" d="M116.4,154.4c0,0,1.6,0.6,7.6,0.6
		c5.1,0,6.9-0.8,6.9-0.8"/>
</g>
<g>
	<path fill="#F0F0F0" d="M191.7,106.4c22.6,0,41-18.3,41-41c0-22.6-18.3-41-41-41c-22.6,0-41,18.3-41,41
		C150.8,88,169.1,106.4,191.7,106.4"/>
	<path fill="#D80027" d="M232.7,65.4c0-16.2-9.5-30.3-23.2-36.9v73.8C223.2,95.7,232.7,81.7,232.7,65.4"/>
	<path fill="#008855" d="M150.8,65.4c0,16.2,9.4,30.3,23.2,36.9V28.5C160.2,35.1,150.8,49.2,150.8,65.4"/>
	<path fill="#6DA544" d="M181.1,65.4c0,5.9,4.8,10.7,10.7,10.7s10.7-4.8,10.7-10.7v-3.6h-21.4V65.4z"/>
	<path fill="#FF9811" d="M206,58.3h-10.7c0-2-1.6-3.6-3.6-3.6s-3.6,1.6-3.6,3.6h-10.7c0,2,1.7,3.6,3.7,3.6H181c0,2,1.6,3.6,3.6,3.6
		c0,2,1.6,3.6,3.6,3.6h7.1c2,0,3.6-1.6,3.6-3.6c2,0,3.6-1.6,3.6-3.6h-0.1C204.3,61.9,206,60.3,206,58.3"/>
</g>
<g>
	<ellipse fill="none" stroke="#020200" stroke-width="1.4754" stroke-miterlimit="10" cx="191.6" cy="65.2" rx="40.8" ry="40.6"/>
</g>
<g>
	<path d="M31.766,206.585v-28.952h5.478l4.112,21.155l3.866-21.155h5.511v28.952h-3.932v-10.791l0.165-9.903l-3.899,20.562h-3.504
		L35.5,185.891l0.165,9.903v10.791H31.766z"/>
	<path d="M55.092,206.585v-28.952h9.706v3.8h-5.297v8.423h5.034v3.718h-5.034v9.212h5.494v3.8h-9.903V206.585z"/>
	<path d="M76.51,206.585l-2.944-8.899l-2.385,8.899H66.92l4.458-15.528l-4.441-13.424h3.718l2.879,8.604l2.319-8.604h4.129
		l-4.376,14.821l4.721,14.131H76.51z"/>
	<path d="M83.14,206.585v-28.952h4.409v28.952H83.14z"/>
	<path d="M92.056,206.585v-28.952h4.409v13.325l4.409-13.325h4.557l-4.803,14.279l5.182,14.673h-4.655l-4.656-13.521v13.521
		L92.056,206.585L92.056,206.585z"/>
	<path d="M106.697,206.585l4.129-28.952h5.823l4.393,28.952h-4.113l-0.691-5.165h-4.672l-0.625,5.165H106.697z M115.777,197.883
		l-1.941-14.542h-0.065l-1.777,14.542H115.777z"/>
	<path d="M124.068,206.585v-28.952h3.455l6.135,17.371l-0.312-7.896v-9.476h3.965v28.952h-3.126l-6.3-17.979l0.247,7.6v10.38
		L124.068,206.585L124.068,206.585z"/>
	<path d="M141.817,206.585v-28.952h4.409v28.952H141.817z"/>
	<path d="M150.158,198.442v-2.583h4.178v2.912c0,1.612,0.138,2.744,0.411,3.396c0.274,0.653,0.79,0.979,1.547,0.979
		s1.259-0.269,1.505-0.807c0.247-0.537,0.37-1.414,0.37-2.632c0-1.217-0.22-2.278-0.658-3.183s-1.135-1.852-2.089-2.838
		l-2.139-2.204c-0.998-1.042-1.773-2.122-2.327-3.241c-0.555-1.118-0.831-2.412-0.831-3.882c0-2.391,0.461-4.168,1.382-5.33
		s2.506-1.744,4.754-1.744s3.77,0.678,4.565,2.032s1.192,3.331,1.192,5.93v1.793h-4.063v-2.072c0-1.403-0.12-2.41-0.361-3.019
		s-0.705-0.913-1.391-0.913s-1.179,0.23-1.48,0.69c-0.302,0.461-0.452,1.152-0.452,2.073s0.153,1.656,0.461,2.204
		c0.307,0.549,0.86,1.25,1.661,2.105l2.385,2.583c1.195,1.294,2.098,2.604,2.706,3.932c0.609,1.327,0.913,2.774,0.913,4.343
		c0,2.709-0.455,4.71-1.365,6.004c-0.91,1.295-2.503,1.941-4.778,1.941c-2.276,0-3.86-0.721-4.754-2.163
		C150.604,203.309,150.158,201.206,150.158,198.442z"/>
	<path d="M176.347,204.899c-0.998,1.343-2.566,2.015-4.705,2.015s-3.737-0.716-4.795-2.146c-1.059-1.432-1.588-3.49-1.588-6.177
		v-12.618c0-4.31,1.13-7.002,3.389-8.076c0.834-0.396,1.843-0.593,3.027-0.593c4.068,0,6.103,2.566,6.103,7.699v3.98h-4.261v-3.701
		c0-1.491-0.126-2.558-0.378-3.199c-0.253-0.642-0.746-0.963-1.48-0.963c-0.735,0-1.245,0.34-1.53,1.021
		c-0.285,0.68-0.428,1.722-0.428,3.125v13.522c0,1.557,0.138,2.67,0.411,3.339c0.274,0.669,0.773,1.004,1.497,1.004
		c0.725,0,1.223-0.34,1.497-1.021c0.274-0.68,0.411-1.804,0.411-3.372v-4.146h4.327v4.097
		C177.844,201.485,177.344,203.556,176.347,204.899z"/>
	<path d="M181.43,206.585v-28.952h4.409v11.713h3.948v-11.713h4.408v28.952h-4.408v-13.456h-3.948v13.456H181.43z"/>
	<path d="M198.538,206.585v-28.952h9.705v3.8h-5.297v8.423h5.034v3.718h-5.034v9.212h5.494v3.8h-9.902V206.585z"/>
	<path d="M217.784,192.98l-1.414-0.065v13.67h-4.409v-28.952h7.288c1.513,0,2.643,0.305,3.389,0.913
		c0.745,0.608,1.236,1.459,1.472,2.55c0.236,1.091,0.354,2.517,0.354,4.277s-0.187,3.101-0.559,4.021
		c-0.373,0.922-1.064,1.541-2.073,1.859c0.998,0.175,1.694,0.85,2.09,2.023c0.395,1.173,0.592,3.616,0.592,7.328
		c0,3.713,0.055,5.706,0.164,5.979h-4.408c-0.109-0.219-0.164-3.679-0.164-10.38c0-1.283-0.154-2.136-0.461-2.558
		C219.336,193.225,218.717,193.003,217.784,192.98z M216.387,189.493h1.76c0.56,0,0.973-0.126,1.242-0.378s0.455-0.686,0.56-1.3
		c0.104-0.614,0.156-1.552,0.156-2.812v-0.182c0-1.567-0.132-2.593-0.396-3.076c-0.263-0.482-0.871-0.724-1.826-0.724h-1.496
		V189.493z"/>
	<path d="M27.345,240.585v-28.952h5.478l4.112,21.155l3.866-21.155h5.511v28.952H42.38v-10.791l0.165-9.903l-3.899,20.562h-3.504
		l-4.063-20.562l0.165,9.903v10.791H27.345z"/>
	<path d="M50.671,240.585v-28.952h9.706v3.8H55.08v8.423h5.034v3.718H55.08v9.212h5.494v3.8h-9.903V240.585z"/>
	<path d="M64.259,240.585v-28.952h4.409v28.952H64.259z"/>
	<path d="M72.6,232.442v-2.583h4.178v2.912c0,1.612,0.137,2.744,0.411,3.396c0.274,0.653,0.79,0.979,1.546,0.979
		c0.757,0,1.259-0.269,1.505-0.807c0.247-0.537,0.37-1.414,0.37-2.632c0-1.217-0.22-2.278-0.658-3.183
		c-0.438-0.905-1.135-1.852-2.089-2.838l-2.139-2.204c-0.998-1.042-1.774-2.122-2.328-3.241c-0.554-1.118-0.831-2.412-0.831-3.882
		c0-2.391,0.46-4.168,1.382-5.33c0.921-1.162,2.505-1.744,4.754-1.744c2.248,0,3.77,0.678,4.565,2.032
		c0.795,1.354,1.192,3.331,1.192,5.93v1.793h-4.063v-2.072c0-1.403-0.121-2.41-0.362-3.019s-0.705-0.913-1.39-0.913
		c-0.686,0-1.179,0.23-1.48,0.69c-0.302,0.461-0.453,1.152-0.453,2.073s0.154,1.656,0.461,2.204c0.307,0.549,0.861,1.25,1.661,2.105
		l2.385,2.583c1.195,1.294,2.098,2.604,2.706,3.932c0.609,1.327,0.913,2.774,0.913,4.343c0,2.709-0.455,4.71-1.365,6.004
		c-0.911,1.295-2.503,1.941-4.779,1.941s-3.86-0.721-4.754-2.163C73.046,237.309,72.6,235.206,72.6,232.442z"/>
	<path d="M89.543,240.585v-25.136h-3.389v-3.816h11.038v3.816h-3.257v25.136H89.543z"/>
	<path d="M99.627,240.585v-28.952h9.706v3.8h-5.297v8.423h5.034v3.718h-5.034v9.212h5.494v3.8h-9.903V240.585z"/>
	<path d="M118.874,226.98l-1.415-0.065v13.67h-4.409v-28.952h7.288c1.513,0,2.643,0.305,3.389,0.913s1.236,1.459,1.472,2.55
		s0.354,2.517,0.354,4.277s-0.187,3.101-0.559,4.021c-0.373,0.922-1.064,1.541-2.073,1.859c0.998,0.175,1.694,0.85,2.089,2.023
		c0.395,1.173,0.592,3.616,0.592,7.328c0,3.713,0.055,5.706,0.164,5.979h-4.408c-0.11-0.219-0.165-3.679-0.165-10.38
		c0-1.283-0.154-2.136-0.461-2.558C120.426,227.225,119.806,227.003,118.874,226.98z M117.476,223.493h1.76
		c0.559,0,0.973-0.126,1.242-0.378s0.455-0.686,0.56-1.3c0.104-0.614,0.156-1.552,0.156-2.812v-0.182
		c0-1.567-0.132-2.593-0.395-3.076c-0.263-0.482-0.872-0.724-1.826-0.724h-1.497V223.493z"/>
	<path d="M139.812,242.444c-1.066,0-1.933-0.087-2.598-0.26c-0.666-0.173-1.229-0.49-1.688-0.95
		c-0.461-0.46-0.784-1.084-0.971-1.873c-0.188-0.788-0.28-1.807-0.28-3.056V221.8c0-1.248,0.093-2.267,0.28-3.056
		c0.187-0.788,0.51-1.412,0.971-1.873c0.46-0.46,1.022-0.776,1.688-0.95c0.665-0.173,1.531-0.26,2.598-0.26v2.734
		c-0.812,0-1.331,0.212-1.559,0.636c-0.229,0.424-0.342,1.329-0.342,2.714v14.615c0,1.386,0.113,2.29,0.342,2.714
		c0.228,0.424,0.747,0.636,1.559,0.636V242.444z"/>
	<path d="M142.779,240.585v-24.062h3.664v20.945h4.635v3.117L142.779,240.585L142.779,240.585z"/>
	<path d="M153.32,240.585v-24.062h3.664v24.062H153.32z"/>
	<path d="M165.256,240.831c-1.514,0-2.696-0.595-3.548-1.784c-0.853-1.189-1.278-3.023-1.278-5.503v-10.459
		c0-2.224,0.435-3.919,1.306-5.086c0.87-1.166,2.253-1.75,4.149-1.75c2.36,0,3.859,0.88,4.498,2.639
		c0.383,1.058,0.574,2.502,0.574,4.334v1.709h-3.418v-2.516c0-1.103-0.116-1.877-0.349-2.324c-0.232-0.446-0.67-0.67-1.312-0.67
		s-1.097,0.267-1.36,0.8c-0.265,0.533-0.396,1.479-0.396,2.837v10.432c0,1.577,0.118,2.676,0.355,3.295
		c0.236,0.62,0.699,0.93,1.388,0.93c0.688,0,1.176-0.332,1.463-0.998c0.287-0.665,0.431-1.786,0.431-3.363v-3.24h-1.846v-2.666
		h5.045v13.139h-1.641l-0.561-2.365c-0.191,0.812-0.611,1.449-1.258,1.914C166.851,240.599,166.104,240.831,165.256,240.831z"/>
	<path d="M173.309,240.585l3.432-24.062h4.84l3.65,24.062h-3.418l-0.574-4.293h-3.883l-0.52,4.293H173.309z M180.855,233.353
		l-1.613-12.086h-0.055l-1.477,12.086H180.855z"/>
	<path d="M192.764,240.585v-24.062h4.553l3.418,17.582l3.213-17.582h4.58v24.062h-3.268v-8.969l0.137-8.23l-3.24,17.09h-2.912
		l-3.377-17.09l0.137,8.23v8.969H192.764z"/>
	<path d="M218.795,240.585l-2.447-7.396l-1.982,7.396h-3.541l3.705-12.906l-3.691-11.156h3.09l2.393,7.15l1.928-7.15h3.432
		l-3.637,12.318l3.924,11.744L218.795,240.585L218.795,240.585z"/>
	<path d="M223.539,242.444v-2.734c0.811,0,1.33-0.212,1.559-0.636c0.228-0.424,0.342-1.328,0.342-2.714v-14.615
		c0-1.385-0.114-2.29-0.342-2.714c-0.229-0.424-0.748-0.636-1.559-0.636v-2.734c1.066,0,1.932,0.087,2.598,0.26
		c0.665,0.174,1.226,0.49,1.682,0.95c0.455,0.461,0.776,1.085,0.964,1.873c0.187,0.789,0.28,1.808,0.28,3.056v14.506
		c0,1.249-0.094,2.268-0.28,3.056c-0.188,0.789-0.509,1.413-0.964,1.873c-0.456,0.46-1.017,0.777-1.682,0.95
		C225.471,242.357,224.605,242.444,223.539,242.444z"/>
</g>
</svg>
