<?xml version="1.0" encoding="utf-8"?>
<!-- Generator: Adobe Illustrator 17.0.0, SVG Export Plug-In . SVG Version: 6.00 Build 0)  -->
<!DOCTYPE svg PUBLIC "-//W3C//DTD SVG 1.1//EN" "http://www.w3.org/Graphics/SVG/1.1/DTD/svg11.dtd">
<svg version="1.1" id="Layer_1" xmlns="http://www.w3.org/2000/svg" xmlns:xlink="http://www.w3.org/1999/xlink" x="0px" y="0px"
	 width="256px" height="256px" viewBox="0 0 256 256" enable-background="new 0 0 256 256" xml:space="preserve">
<path fill="#FFFFFF" d="M192.1,10.3c-17.1,0-32.4,8-42.3,20.6h-0.3v0.3c-7.1,9.1-11.4,20.6-11.4,33c0,29.7,24.2,53.9,53.9,53.9
	s54-24.2,54-53.9S221.9,10.3,192.1,10.3z"/>
<path d="M192,10.3c-17.1,0-32.4,8-42.3,20.6h-0.3v0.3c-7.1,9.1-11.4,20.6-11.4,33c0,29.7,24.2,53.9,53.9,53.9s53.9-24.2,53.9-53.9
	S221.7,10.3,192,10.3z M208.6,100.9l-23.1-3L183.7,78l17.6-10.7L217,82.4L208.6,100.9z M171.2,103.3L151.9,89l-2.1-14.7l11.8-7.4
	L181.5,78l1.9,20.2L171.2,103.3z M149.1,72.2L142,57.4l9.3-15.3l9.7,2l-0.2,20.8L149.1,72.2z M188.3,19l21.3,2.9l7.3,13.6l-16.1,7.9
	l-16.5-11.5L188.3,19z M231.4,74.4l-12.6,6.7l-16.9-16.2l0.2-19.7l16-7.9L232.3,50L231.4,74.4z M233.5,74.9l1-24.5l7.1-0.9
	c1.4,4.7,2.1,9.6,2.1,14.7c0,4.6-0.6,9-1.7,13.2L233.5,74.9z M240.9,47.4l-7.1,0.9l-14.6-13.1L212,21.9l6.1-2.4
	C228.7,25.7,236.9,35.6,240.9,47.4z M178.8,14.2l7.4,4.1L182,32.1L162.3,42l-10.5-2.1l-0.2-8.1C158.5,23.4,167.9,17,178.8,14.2z
	 M149.7,40.5l-8.5,14.1c1.4-7.3,4.3-14.1,8.4-20L149.7,40.5z M140.5,59.2l7.1,14.9l2.1,14.8l-2.9,0.4c-4.1-7.4-6.5-16-6.5-25.1
	C140.3,62.5,140.4,60.8,140.5,59.2z M172.4,112.1l-0.2-6.8l12.5-5.3l23.9,3.1l4.4,8.4c-6.4,2.9-13.5,4.5-21,4.5
	C185.1,115.9,178.5,114.5,172.4,112.1z"/>
<g>
	<g>
		<g>
			<ellipse fill="#D80027" stroke="#000000" stroke-miterlimit="10" cx="191.6" cy="65.2" rx="40.8" ry="40.6"/>
		</g>
	</g>
	<g>
		<path fill="#FFFFFF" d="M169,78.6V50.2h5.4l4,20.7l3.8-20.7h5.4v28.4h-3.9V68l0.2-9.7l-3.8,20.1h-3.4l-4-20.1l0.2,9.7v10.6H169z"
			/>
		<path fill="#FFFFFF" d="M191.9,78.6V50.2h4.3v24.7h5.5v3.7H191.9z"/>
		<path fill="#FFFFFF" d="M203.4,70.6v-2.5h4.1V71c0,1.6,0.1,2.7,0.4,3.3s0.8,1,1.5,1s1.2-0.3,1.5-0.8c0.2-0.5,0.4-1.4,0.4-2.6
			s-0.2-2.2-0.6-3.1c-0.4-0.9-1.1-1.8-2-2.8l-2.1-2.2c-1-1-1.7-2.1-2.3-3.2c-0.5-1.1-0.8-2.4-0.8-3.8c0-2.3,0.5-4.1,1.4-5.2
			s2.5-1.7,4.7-1.7s3.7,0.7,4.5,2s1.2,3.3,1.2,5.8v1.8h-4v-2c0-1.4-0.1-2.4-0.4-3c-0.2-0.6-0.7-0.9-1.4-0.9s-1.2,0.2-1.5,0.7
			s-0.4,1.1-0.4,2s0.2,1.6,0.5,2.2s0.8,1.2,1.6,2.1l2.3,2.5c1.2,1.3,2.1,2.6,2.7,3.9c0.6,1.3,0.9,2.7,0.9,4.3c0,2.7-0.4,4.6-1.3,5.9
			s-2.5,1.9-4.7,1.9s-3.8-0.7-4.7-2.1C203.9,75.4,203.4,73.3,203.4,70.6z"/>
	</g>
</g>
<g>
	<path fill="#FCFF00" stroke="#000000" stroke-miterlimit="10" d="M133.2,168.1c2.5-0.1,4.4-2.8,4.9-4s2.6-1.2,2.8-1.9
		c0.3-0.9,0.6-2.4,0.9-4.2c10.7-4.7,18-14.4,21.4-28c2.5-10.4,1.8-18.6,1.8-18.9l-0.1-0.5h-17.1c0.3-3,0.5-5.5,0.5-5.5
		s1.1-0.3,1.1-1.3s-1.4-1.2-1.4-1.2h-40c0,0-1.4-0.1-1.4,0.9s1.1,1.7,1.1,1.7s0.2,2.4,0.5,5.4H91.1L91,111c0,0.4-0.7,8.9,1.8,19.3
		c3.3,13.6,10.7,23.1,21.4,27.9c0.3,1.8,0.6,3.2,0.9,4.1c0.1,0.7,2.3,0.7,2.8,1.9s2.4,3.8,4.9,3.9c0.4,0.1,0.2,0.8,0.2,0.8
		s-1.4,0.1-1.3,1.3s1.8,1.6,1.8,1.6s-0.4,14.7-0.5,15.8s0,2,0.5,3c-1.8,0-2.3,0.1-2.3,0.1s-0.1,3.8-1.3,5.5
		c-1.2,1.7-2.2,5.3-1.1,7.3c-1.6,0-1.6,0-1.6,0s-0.2,6.1-1.5,7c-1.3,0.8-4.5,2.9-5.2,5.3c-0.1,1.1-4,3.3-5,3.1c0,1.9,0,23.6,0,23.6
		h-3.4c0,0-3.9,0.6-4.1,6.6c0,2,1.1,3.4,2.8,3.4c1.5,0,52.9,0,54.5,0c1.7,0,2.8-1.4,2.8-3.4c-0.2-6-4.1-6.6-4.1-6.6h-4.4
		c0,0,0-21.6,0-23.6c-2,0.1-4.4-2.3-4.5-3.4c-0.6-2.4-3.6-4.2-4.9-5.1c-1.3-0.8-1.2-7-1.2-7s-0.1,0-1.6,0c1.1-2,0.1-5.6-1.1-7.3
		s-1.3-5.3-1.3-5.3s-0.5-0.3-2.3-0.3c0.5-1,0.6-1.9,0.5-3s-0.5-15.8-0.5-15.8s1.7-0.4,1.8-1.6c0.1-1.2-1.3-1.3-1.3-1.3
		S132.9,168.2,133.2,168.1z M147.5,112.5h14.9c0.2,6-0.1,32.9-20.1,43.1C144.2,144,146.4,122.5,147.5,112.5z M93.6,112.5h14.9
		c1.1,10,3.3,31.5,5.2,43.1C93.7,145.4,93.4,118.5,93.6,112.5z"/>
	<path fill="#FFFFFF" d="M123.7,106h15c0,0-2,50.6-7.8,50.6C125,156.6,123.7,106,123.7,106z"/>
	<rect x="126" y="170" fill="#FFFFFF" width="5" height="2"/>
	<rect x="127" y="173" fill="#FFFFFF" width="4" height="13"/>
	<path fill="#FFFFFF" d="M127.1,191c0,0,0,3.4-0.2,4.3c-0.2,0.9-0.9,3,0.2,4.9c2,0,5,0.1,5,0.1s0.8-2.8-0.1-4.7
		c-0.5-1.7-0.7-4.5-0.7-4.5h-4.2C127.1,191.1,127.1,191,127.1,191z"/>
	<path fill="#FFFFFF" d="M126.9,203c0,0,0.1,5.8-0.9,7c2.6,0,7.5,0.2,7.5,0.2s-0.9-2.3-0.9-7.3C131.3,203,126.9,203,126.9,203z"/>
	<path fill="#FFFFFF" d="M134.2,213.1c1.3,0,4.2,3.9,0.3,3.9c-4.6,0-6.5,0.1-8.5,0.1s-0.9-3.9,1-4.1
		C128.9,212.7,134.2,213.1,134.2,213.1z"/>
	<rect x="124" y="103" fill="#FFFFFF" width="15" height="2"/>
	<path fill="#FF9F00" d="M116.3,162c0,0-7-52.3-5.7-52.3s7.8,52.3,7.8,52.3H116.3z"/>
	<path fill="#ABD100" d="M134.2,162h3.3c0,0,5-47.5,5.2-50.2c0.2-2.6-2.6-3-3,0.5C139.2,115.8,134.2,162,134.2,162z"/>
	<rect x="107" y="219" fill="#FF9F00" width="3" height="23"/>
	<rect x="139" y="219" fill="#ABD100" width="5" height="23"/>
	<path fill="#FF9F00" d="M120.4,204h-2c0,0-0.6,4.2,0.5,4.2S120.4,204,120.4,204z"/>
	<path fill="#FF9F00" d="M121.7,202h-2c0,0-0.3-2.6,0.8-2.8C121.7,199.1,121.6,202,121.7,202z"/>
	<path fill="#ABD100" d="M130.9,172.9l-0.7,17.1h0.8v-5.7C131,184.3,131.2,174.8,130.9,172.9z"/>
	<path fill="#FF9F00" d="M125,172.8l0.6,17.2H124v-5.7C124,184.3,124.7,175.2,125,172.8z"/>
	<path fill="#ABD100" d="M132.7,202h2c0,0,0.9-2.7-1.1-2.7S131.4,202,132.7,202z"/>
	<path fill="#ABD100" d="M132.6,203h2.8l0.1,6h-2.4C133.2,209,132.6,208,132.6,203z"/>
	<line fill="none" stroke="#000000" stroke-miterlimit="10" x1="107" y1="105.5" x2="148" y2="105.5"/>
	<line fill="none" stroke="#957E78" stroke-miterlimit="10" x1="123" y1="191.5" x2="132" y2="191.5"/>
	<line fill="none" stroke="#957E78" stroke-miterlimit="10" x1="123" y1="169.5" x2="132" y2="169.5"/>
	<line fill="none" stroke="#957E78" stroke-miterlimit="10" x1="123" y1="172.5" x2="132" y2="172.5"/>
	<line fill="none" stroke="#957E78" stroke-miterlimit="10" x1="118" y1="203.5" x2="137" y2="203.5"/>
	<line fill="none" stroke="#957E78" stroke-miterlimit="10" x1="105" y1="219.5" x2="150" y2="219.5"/>
	<line fill="none" stroke="#957E78" stroke-miterlimit="10" x1="105" y1="242.5" x2="150" y2="242.5"/>
	<line fill="none" stroke="#957E78" stroke-miterlimit="10" x1="114" y1="161.5" x2="141" y2="161.5"/>
</g>
<g>
	<path d="M13.049,193.585v-28.952h5.478l4.112,21.155l3.866-21.155h5.511v28.952h-3.932v-10.791l0.165-9.903l-3.899,20.562h-3.504
		l-4.063-20.562l0.165,9.903v10.791H13.049z"/>
	<path d="M35.533,193.585v-28.952h9.706v3.8h-5.297v8.423h5.034v3.718h-5.034v9.212h5.494v3.8h-9.903V193.585z"/>
	<path d="M48.279,193.585v-28.952h4.409v28.952H48.279z"/>
	<path d="M55.777,185.442v-2.583h4.178v2.912c0,1.612,0.137,2.744,0.411,3.396c0.274,0.653,0.79,0.979,1.546,0.979
		c0.757,0,1.259-0.269,1.505-0.807c0.247-0.537,0.37-1.414,0.37-2.632c0-1.217-0.22-2.278-0.658-3.183s-1.135-1.852-2.089-2.838
		l-2.139-2.204c-0.998-1.042-1.774-2.122-2.328-3.241c-0.554-1.118-0.831-2.412-0.831-3.882c0-2.391,0.46-4.168,1.382-5.33
		c0.921-1.162,2.505-1.744,4.754-1.744c2.248,0,3.77,0.678,4.565,2.032s1.192,3.331,1.192,5.93v1.793h-4.063v-2.072
		c0-1.403-0.121-2.41-0.362-3.019s-0.705-0.913-1.39-0.913c-0.686,0-1.179,0.23-1.48,0.69c-0.302,0.461-0.453,1.152-0.453,2.073
		s0.154,1.656,0.461,2.204c0.307,0.549,0.861,1.25,1.661,2.105l2.385,2.583c1.195,1.294,2.098,2.604,2.706,3.932
		c0.609,1.327,0.913,2.774,0.913,4.343c0,2.709-0.455,4.71-1.365,6.004c-0.911,1.295-2.503,1.941-4.779,1.941
		s-3.86-0.721-4.754-2.163C56.224,190.309,55.777,188.206,55.777,185.442z"/>
	<path d="M71.878,193.585v-25.136H68.49v-3.816h11.038v3.816h-3.257v25.136H71.878z"/>
	<path d="M81.12,193.585v-28.952h9.706v3.8h-5.297v8.423h5.034v3.718h-5.034v9.212h5.494v3.8H81.12V193.585z"/>
	<path d="M99.524,179.98l-1.415-0.065v13.67H93.7v-28.952h7.288c1.513,0,2.643,0.305,3.389,0.913s1.236,1.459,1.472,2.55
		s0.354,2.517,0.354,4.277s-0.187,3.101-0.559,4.021c-0.373,0.922-1.064,1.541-2.073,1.859c0.998,0.175,1.694,0.85,2.089,2.023
		c0.395,1.173,0.592,3.616,0.592,7.328c0,3.713,0.055,5.706,0.164,5.979h-4.408c-0.11-0.219-0.165-3.679-0.165-10.38
		c0-1.283-0.154-2.136-0.461-2.558C101.076,180.225,100.457,180.003,99.524,179.98z M98.126,176.493h1.76
		c0.559,0,0.973-0.126,1.242-0.378s0.455-0.686,0.56-1.3c0.104-0.614,0.156-1.552,0.156-2.812v-0.182
		c0-1.567-0.132-2.593-0.395-3.076c-0.263-0.482-0.872-0.724-1.826-0.724h-1.497V176.493z"/>
	<path d="M114.652,193.585v-28.952h6.498c2.127,0,3.671,0.628,4.631,1.884c0.959,1.256,1.439,3.106,1.439,5.552l0.016,13.062
		c0,2.917-0.482,5.056-1.447,6.415c-0.965,1.36-2.561,2.04-4.787,2.04L114.652,193.585L114.652,193.585z M119.061,190.163h1.448
		c0.812,0,1.401-0.263,1.769-0.789c0.367-0.526,0.551-1.491,0.551-2.896l-0.016-14.295c0-1.503-0.184-2.571-0.551-3.208
		c-0.368-0.636-1.001-0.954-1.9-0.954h-1.3L119.061,190.163L119.061,190.163z"/>
	<path d="M130.358,193.585v-28.952h9.706v3.8h-5.297v8.423h5.033v3.718h-5.033v9.212h5.494v3.8h-9.903V193.585z"/>
	<path d="M148.763,179.98l-1.414-0.065v13.67h-4.409v-28.952h7.288c1.513,0,2.643,0.305,3.389,0.913
		c0.745,0.608,1.236,1.459,1.472,2.55c0.236,1.091,0.354,2.517,0.354,4.277s-0.187,3.101-0.559,4.021
		c-0.373,0.922-1.064,1.541-2.073,1.859c0.998,0.175,1.694,0.85,2.09,2.023c0.395,1.173,0.592,3.616,0.592,7.328
		c0,3.713,0.055,5.706,0.164,5.979h-4.408c-0.109-0.219-0.164-3.679-0.164-10.38c0-1.283-0.154-2.136-0.461-2.558
		C150.314,180.225,149.695,180.003,148.763,179.98z M147.365,176.493h1.76c0.56,0,0.973-0.126,1.242-0.378s0.455-0.686,0.56-1.3
		c0.104-0.614,0.156-1.552,0.156-2.812v-0.182c0-1.567-0.132-2.593-0.396-3.076c-0.263-0.482-0.871-0.724-1.826-0.724h-1.496
		V176.493z"/>
	<path d="M163.907,193.585v-28.952h5.478l4.112,21.155l3.866-21.155h5.511v28.952h-3.932v-10.791l0.165-9.903l-3.899,20.562h-3.504
		l-4.062-20.562l0.164,9.903v10.791H163.907z"/>
	<path d="M185.075,193.585l4.129-28.952h5.823l4.393,28.952h-4.112l-0.691-5.165h-4.672l-0.625,5.165H185.075z M194.156,184.883
		l-1.941-14.542h-0.065l-1.777,14.542H194.156z"/>
	<path d="M210.932,191.981c-1.042,1.289-2.509,1.933-4.4,1.933s-3.361-0.573-4.409-1.719c-1.047-1.146-1.57-2.815-1.57-5.009v-5.166
		h4.261v4.952c0,1.601,0.257,2.577,0.772,2.928c0.23,0.153,0.516,0.23,0.855,0.23c0.669,0,1.11-0.274,1.324-0.822
		c0.214-0.549,0.321-1.415,0.321-2.6v-22.076h4.408v21.862C212.494,188.864,211.974,190.692,210.932,191.981z"/>
	<path d="M226.853,191.825c-1.009,1.393-2.624,2.089-4.845,2.089s-3.85-0.699-4.886-2.098c-1.036-1.397-1.555-3.506-1.555-6.324
		v-13.243c0-5.308,2.166-7.962,6.498-7.962c2.237,0,3.847,0.675,4.828,2.023c0.981,1.35,1.473,3.329,1.473,5.938v13.243
		C228.366,188.321,227.861,190.433,226.853,191.825z M220.396,189.095c0.258,0.669,0.787,1.003,1.588,1.003
		c0.8,0,1.326-0.343,1.579-1.028c0.252-0.685,0.378-1.861,0.378-3.528v-13.489c0-1.371-0.129-2.371-0.387-3.002
		s-0.762-0.946-1.513-0.946c-0.752,0-1.278,0.315-1.579,0.946c-0.302,0.631-0.453,1.626-0.453,2.985v13.506
		C220.009,187.241,220.138,188.426,220.396,189.095z"/>
	<path d="M237.344,179.98l-1.414-0.065v13.67h-4.409v-28.952h7.288c1.513,0,2.643,0.305,3.389,0.913
		c0.745,0.608,1.236,1.459,1.472,2.55c0.236,1.091,0.354,2.517,0.354,4.277s-0.187,3.101-0.559,4.021
		c-0.373,0.922-1.064,1.541-2.073,1.859c0.998,0.175,1.694,0.85,2.09,2.023c0.395,1.173,0.592,3.616,0.592,7.328
		c0,3.713,0.055,5.706,0.164,5.979h-4.408c-0.109-0.219-0.164-3.679-0.164-10.38c0-1.283-0.154-2.136-0.461-2.558
		C238.896,180.225,238.276,180.003,237.344,179.98z M235.946,176.493h1.76c0.56,0,0.973-0.126,1.242-0.378s0.455-0.686,0.56-1.3
		c0.104-0.614,0.156-1.552,0.156-2.812v-0.182c0-1.567-0.132-2.593-0.396-3.076c-0.263-0.482-0.871-0.724-1.826-0.724h-1.496
		V176.493z"/>
	<path d="M36.802,227.585v-28.952h4.409v25.202h5.577v3.75H36.802z"/>
	<path d="M49.32,227.585v-28.952h9.706v3.8h-5.297v8.423h5.034v3.718h-5.034v9.212h5.494v3.8H49.32V227.585z"/>
	<path d="M61.428,227.585l4.129-28.952h5.823l4.393,28.952H71.66l-0.691-5.165h-4.672l-0.625,5.165H61.428z M70.508,218.883
		l-1.941-14.542h-0.065l-1.777,14.542H70.508z"/>
	<path d="M84.162,227.881c-1.82,0-3.243-0.715-4.269-2.146c-1.025-1.431-1.538-3.638-1.538-6.621V206.53
		c0-2.676,0.523-4.716,1.571-6.12c1.047-1.403,2.711-2.105,4.993-2.105c2.84,0,4.645,1.059,5.412,3.175
		c0.461,1.272,0.691,3.011,0.691,5.215v2.057H86.91v-3.027c0-1.326-0.14-2.259-0.419-2.796c-0.28-0.537-0.806-0.807-1.58-0.807
		c-0.773,0-1.319,0.321-1.637,0.963s-0.477,1.779-0.477,3.413v12.552c0,1.897,0.143,3.219,0.428,3.964
		c0.285,0.746,0.842,1.119,1.67,1.119c0.828,0,1.415-0.4,1.76-1.201c0.345-0.8,0.518-2.149,0.518-4.047v-3.898h-2.221v-3.208h6.07
		v15.809h-1.974l-0.674-2.846c-0.23,0.977-0.735,1.744-1.513,2.303C86.081,227.602,85.182,227.881,84.162,227.881z"/>
	<path d="M106.254,226.03c-1.009,1.256-2.629,1.884-4.861,1.884s-3.855-0.63-4.869-1.892c-1.015-1.261-1.522-3.219-1.522-5.873
		v-21.533h4.409v21.451c0,1.524,0.071,2.451,0.214,2.78s0.315,0.628,0.518,0.896s0.623,0.403,1.259,0.403s1.091-0.187,1.365-0.56
		c0.274-0.373,0.441-0.836,0.501-1.39c0.061-0.554,0.091-1.265,0.091-2.131v-21.451h4.409v21.533
		C107.768,222.814,107.263,224.775,106.254,226.03z"/>
	<path d="M111.946,227.585v-28.952h9.706v3.8h-5.297v8.423h5.034v3.718h-5.034v9.212h5.494v3.8h-9.903V227.585z"/>
	<path d="M130.831,219.442v-2.583h4.178v2.912c0,1.612,0.138,2.744,0.411,3.396c0.274,0.653,0.79,0.979,1.547,0.979
		s1.259-0.269,1.505-0.807c0.247-0.537,0.37-1.414,0.37-2.632c0-1.217-0.22-2.278-0.658-3.183s-1.135-1.852-2.089-2.838
		l-2.139-2.204c-0.998-1.042-1.773-2.122-2.327-3.241c-0.555-1.118-0.831-2.412-0.831-3.882c0-2.391,0.461-4.168,1.382-5.33
		s2.506-1.744,4.754-1.744s3.77,0.678,4.565,2.032s1.192,3.331,1.192,5.93v1.793h-4.063v-2.072c0-1.403-0.12-2.41-0.361-3.019
		s-0.705-0.913-1.391-0.913s-1.179,0.23-1.48,0.69c-0.302,0.461-0.452,1.152-0.452,2.073s0.153,1.656,0.461,2.204
		c0.307,0.549,0.86,1.25,1.661,2.105l2.385,2.583c1.195,1.294,2.098,2.604,2.706,3.932c0.609,1.327,0.913,2.774,0.913,4.343
		c0,2.709-0.455,4.71-1.365,6.004c-0.91,1.295-2.503,1.941-4.778,1.941c-2.276,0-3.86-0.721-4.754-2.163
		C131.277,224.309,130.831,222.206,130.831,219.442z"/>
	<path d="M157.217,225.825c-1.009,1.393-2.623,2.089-4.844,2.089c-2.222,0-3.85-0.699-4.886-2.098
		c-1.037-1.397-1.555-3.506-1.555-6.324v-13.243c0-5.308,2.165-7.962,6.497-7.962c2.237,0,3.847,0.675,4.828,2.023
		c0.981,1.35,1.473,3.329,1.473,5.938v13.243C158.73,222.321,158.226,224.433,157.217,225.825z M150.761,223.095
		c0.257,0.669,0.786,1.003,1.587,1.003s1.327-0.343,1.579-1.028c0.253-0.685,0.379-1.861,0.379-3.528v-13.489
		c0-1.371-0.129-2.371-0.387-3.002s-0.763-0.946-1.514-0.946s-1.277,0.315-1.579,0.946s-0.452,1.626-0.452,2.985v13.506
		C150.374,221.241,150.503,222.426,150.761,223.095z"/>
	<path d="M173.453,225.899c-0.998,1.343-2.566,2.015-4.704,2.015c-2.139,0-3.737-0.716-4.796-2.146
		c-1.059-1.432-1.587-3.49-1.587-6.177v-12.618c0-4.31,1.129-7.002,3.389-8.076c0.833-0.396,1.842-0.593,3.026-0.593
		c4.068,0,6.104,2.566,6.104,7.699v3.98h-4.261v-3.701c0-1.491-0.126-2.558-0.379-3.199c-0.252-0.642-0.745-0.963-1.48-0.963
		c-0.734,0-1.244,0.34-1.529,1.021c-0.285,0.68-0.428,1.722-0.428,3.125v13.522c0,1.557,0.137,2.67,0.411,3.339
		s0.773,1.004,1.497,1.004s1.223-0.34,1.497-1.021c0.273-0.68,0.411-1.804,0.411-3.372v-4.146h4.326v4.097
		C174.95,222.485,174.451,224.556,173.453,225.899z"/>
	<path d="M189.262,225.899c-0.998,1.343-2.566,2.015-4.704,2.015c-2.139,0-3.737-0.716-4.796-2.146
		c-1.059-1.432-1.587-3.49-1.587-6.177v-12.618c0-4.31,1.129-7.002,3.389-8.076c0.833-0.396,1.842-0.593,3.026-0.593
		c4.068,0,6.104,2.566,6.104,7.699v3.98h-4.261v-3.701c0-1.491-0.126-2.558-0.379-3.199c-0.252-0.642-0.745-0.963-1.48-0.963
		c-0.734,0-1.244,0.34-1.529,1.021c-0.285,0.68-0.428,1.722-0.428,3.125v13.522c0,1.557,0.137,2.67,0.411,3.339
		s0.773,1.004,1.497,1.004s1.223-0.34,1.497-1.021c0.273-0.68,0.411-1.804,0.411-3.372v-4.146h4.326v4.097
		C190.759,222.485,190.26,224.556,189.262,225.899z"/>
	<path d="M194.345,227.585v-28.952h9.706v3.8h-5.297v8.423h5.033v3.718h-5.033v9.212h5.494v3.8h-9.903V227.585z"/>
	<path d="M213.592,213.98l-1.415-0.065v13.67h-4.408v-28.952h7.287c1.514,0,2.643,0.305,3.389,0.913s1.236,1.459,1.473,2.55
		c0.235,1.091,0.354,2.517,0.354,4.277s-0.187,3.101-0.56,4.021c-0.373,0.922-1.063,1.541-2.072,1.859
		c0.998,0.175,1.694,0.85,2.089,2.023c0.395,1.173,0.593,3.616,0.593,7.328c0,3.713,0.055,5.706,0.164,5.979h-4.408
		c-0.11-0.219-0.165-3.679-0.165-10.38c0-1.283-0.153-2.136-0.461-2.558C215.144,214.225,214.523,214.003,213.592,213.98z
		 M212.193,210.493h1.761c0.559,0,0.973-0.126,1.241-0.378s0.455-0.686,0.56-1.3s0.156-1.552,0.156-2.812v-0.182
		c0-1.567-0.132-2.593-0.395-3.076c-0.264-0.482-0.872-0.724-1.826-0.724h-1.497V210.493z"/>
</g>
</svg>
