<?xml version="1.0" encoding="utf-8"?>
<!-- Generator: Adobe Illustrator 17.0.0, SVG Export Plug-In . SVG Version: 6.00 Build 0)  -->
<!DOCTYPE svg PUBLIC "-//W3C//DTD SVG 1.1//EN" "http://www.w3.org/Graphics/SVG/1.1/DTD/svg11.dtd">
<svg version="1.1" id="Layer_1" xmlns="http://www.w3.org/2000/svg" xmlns:xlink="http://www.w3.org/1999/xlink" x="0px" y="0px"
	 width="256px" height="256px" viewBox="0 0 256 256" enable-background="new 0 0 256 256" xml:space="preserve">
	<polygon fill="#FFFF00" points="128,188.6 53.1,243.2 82,155.1 6.8,100.8 99.5,101 128,12.8 156.5,101 249.2,100.8 174,155.1 
	202.9,243.2 "/>
	<path fill="#FFFFFF" d="M192,10.3c-17.1,0-32.4,8-42.3,20.6h-0.3v0.3c-7.1,9.1-11.4,20.6-11.4,33c0,29.7,24.2,53.9,53.9,53.9
	s53.9-24.2,53.9-53.9S221.7,10.3,192,10.3z"/>
	<path d="M192,10.3c-17.1,0-32.4,8-42.3,20.6h-0.3v0.3c-7.1,9.1-11.4,20.6-11.4,33c0,29.7,24.2,53.9,53.9,53.9s53.9-24.2,53.9-53.9
	S221.7,10.3,192,10.3z M208.6,100.9l-23.1-3L183.7,78l17.6-10.7L217,82.4L208.6,100.9z M171.2,103.3L151.9,89l-2.1-14.7l11.8-7.4
	L181.5,78l1.9,20.2L171.2,103.3z M149.1,72.2L142,57.4l9.3-15.3l9.7,2l-0.2,20.8L149.1,72.2z M188.3,19l21.3,2.9l7.3,13.6l-16.1,7.9
	l-16.5-11.5L188.3,19z M231.4,74.4l-12.6,6.7l-16.9-16.2l0.2-19.7l16-7.9L232.3,50L231.4,74.4z M233.5,74.9l1-24.5l7.1-0.9
	c1.4,4.7,2.1,9.6,2.1,14.7c0,4.6-0.6,9-1.7,13.2L233.5,74.9z M240.9,47.4l-7.1,0.9l-14.6-13.1L212,21.9l6.1-2.4
	C228.7,25.7,236.9,35.6,240.9,47.4z M178.8,14.2l7.4,4.1L182,32.1L162.3,42l-10.5-2.1l-0.2-8.1C158.5,23.4,167.9,17,178.8,14.2z
	 M149.7,40.5l-8.5,14.1c1.4-7.3,4.3-14.1,8.4-20L149.7,40.5z M140.5,59.2l7.1,14.9l2.1,14.8l-2.9,0.4c-4.1-7.4-6.5-16-6.5-25.1
	C140.3,62.5,140.4,60.8,140.5,59.2z M172.4,112.1l-0.2-6.8l12.5-5.3l23.9,3.1l4.4,8.4c-6.4,2.9-13.5,4.5-21,4.5
	C185.1,115.9,178.5,114.5,172.4,112.1z"/>
	<g>
		<path fill="none" stroke="#000000" stroke-width="3" stroke-miterlimit="10" d="M157.6,137"/>
		<path fill="#FF0000" d="M157.6,137"/>
	</g>
	<g>
		<path fill="#FFFFFF" d="M212.612,170.489c20.053-10.384,33.207-32.524,33.951-35.859s-0.569-4.06-2.924-6.457
		s-7.028-0.429-7.028-0.429s-20.935,17.778-30.754,24.809c-9.904,7.144-51.697,18.757-57.32,21.867
		c-5.623,3.111-44.818,16.682-51.276,25.362c0.078,2.716-1.68,9.626,5.188,6.038C109.318,202.233,179.545,187.443,212.612,170.489z"
		/>
		<g>
			<path fill="none" stroke="#000000" stroke-width="3" stroke-miterlimit="10" d="M183.254,143.301
			c3.325-0.769,6.043-1.554,8.095-2.043c4.373-1.219,9.412-2.733,16.065-4.978c8.762-3.046,18.435-8.238,22.044-9.148
			c6.34-1.595,12.332,0.089,12.332,0.089c2.936,2.214-20.915,20.804-26.64,25.343c-14.738,11.558-61.312,23.639-94.81,37.522
			c-11.935,4.904-17.11,9.769-17.11,9.769s9.229-3.313,15.767-4.936c14.52-3.752,77.957-17.994,94.177-28.346
			c20.938-13.436,31.24-32.147,31.278-35.485c5.198,7.552,1.773,14.09-1.237,18.551c-3.024,4.362-0.498,6.532-1.746,7.717
			c-0.695,0.804-4.298-0.407-7.29,2.738s-4.032,5.816-7.717,9.059c-3.699,3.144-0.611,6.447-2.952,9.199
			c-2.355,2.652-5.128-2.008-8.656,0.203c-3.513,2.31-5.526,3.804-11.671,6.786c-6.047,2.968-2.239,7.079-4.59,8.318
			c-2.224,1.422-6.664-4.317-11.294-2.052s-22.496,14.563-28.63,18.351c-6.233,3.802-1.008,12.259-2.965,14.148
			c-1.248,1.185-5.622-2.645-9.567-2.698c-2.319,0.022-4.516,1.643-6.756,3.673c-5.997,5.485-0.496,10.874-3.074,12.649
			c-2.579,1.775-4.536-1.384-9.171-2.754s-8.475,1.491-13.427-2.864c-23.803-20.697-20.305-44.008-20.305-44.008
			c1.606-2.951,2.608-2.284,7.386-1.338c4.764,0.847,12.908,1.321,18.747-3.132c5.739-4.44,11.696-15.978,10.988-21.029
			s-2.226-8.675,4.38-9.096c2.702-0.177,10.682-1.598,19.907-3.497l4.217-0.894C161.419,148.178,161.419,148.178,183.254,143.301z"
			/>
			<path fill="#9AC900" d="M183.254,143.301c3.325-0.769,6.043-1.554,8.095-2.043c4.373-1.219,9.412-2.733,16.065-4.978
			c8.762-3.046,18.435-8.238,22.044-9.148c6.34-1.595,12.332,0.089,12.332,0.089c2.936,2.214-20.915,20.804-26.64,25.343
			c-14.738,11.558-61.312,23.639-94.81,37.522c-11.935,4.904-17.11,9.769-17.11,9.769s9.229-3.313,15.767-4.936
			c14.52-3.752,77.957-17.994,94.177-28.346c20.938-13.436,31.24-32.147,31.278-35.485c5.198,7.552,1.773,14.09-1.237,18.551
			c-3.024,4.362-0.498,6.532-1.746,7.717c-0.695,0.804-4.298-0.407-7.29,2.738s-4.032,5.816-7.717,9.059
			c-3.699,3.144-0.611,6.447-2.952,9.199c-2.355,2.652-5.128-2.008-8.656,0.203c-3.513,2.31-5.526,3.804-11.671,6.786
			c-6.047,2.968-2.239,7.079-4.59,8.318c-2.224,1.422-6.664-4.317-11.294-2.052s-22.496,14.563-28.63,18.351
			c-6.233,3.802-1.008,12.259-2.965,14.148c-1.248,1.185-5.622-2.645-9.567-2.698c-2.319,0.022-4.516,1.643-6.756,3.673
			c-5.997,5.485-0.496,10.874-3.074,12.649c-2.579,1.775-4.536-1.384-9.171-2.754s-8.475,1.491-13.427-2.864
			c-23.803-20.697-20.305-44.008-20.305-44.008c1.606-2.951,2.608-2.284,7.386-1.338c4.764,0.847,12.908,1.321,18.747-3.132
			c5.739-4.44,11.696-15.978,10.988-21.029s-2.226-8.675,4.38-9.096c2.702-0.177,10.682-1.598,19.907-3.497l4.217-0.894
			C161.419,148.178,161.419,148.178,183.254,143.301z"/>
		</g>
		<g>
			<g>
				<g>
					<path fill="none" stroke="#1D1D1B" stroke-width="3" d="M154.959,163.322c-0.198,0.028-0.396,0.056-0.608-0.016
					c-1.046-0.257-1.793-1.263-1.634-2.295l2.783-14.729c0.257-1.046,1.263-1.793,2.295-1.634c1.046,0.257,1.793,1.263,1.634,2.295
					l-2.783,14.729C156.474,162.604,155.751,163.211,154.959,163.322z"/>
				</g>
				<g>
					<path fill="none" stroke="#1D1D1B" stroke-width="3" d="M164.02,159.527c-0.198,0.028-0.396,0.056-0.608-0.016
					c-1.046-0.257-1.793-1.263-1.634-2.295l2.181-11.817c0.257-1.046,1.263-1.793,2.295-1.634c1.046,0.257,1.793,1.263,1.634,2.295
					l-2.181,11.817C165.535,158.81,164.812,159.416,164.02,159.527z"/>
				</g>
				<g>
					<path fill="none" stroke="#1D1D1B" stroke-width="3" d="M171.621,156.846c-0.198,0.028-0.396,0.056-0.608-0.016
					c-1.046-0.257-1.793-1.263-1.634-2.295l2.066-11.195c0.257-1.046,1.263-1.793,2.295-1.634c1.046,0.257,1.793,1.263,1.634,2.295
					l-2.066,11.195C173.136,156.129,172.413,156.735,171.621,156.846z"/>
				</g>
				<g>
					<path fill="none" stroke="#1D1D1B" stroke-width="3" d="M180.175,152.315c-0.198,0.028-0.396,0.056-0.608-0.016
					c-1.046-0.257-1.793-1.263-1.634-2.295l1.678-8.919c0.257-1.046,1.263-1.793,2.295-1.634c1.046,0.257,1.793,1.263,1.634,2.295
					l-1.678,8.919C181.69,151.598,180.967,152.204,180.175,152.315z"/>
				</g>
			</g>
			<g>
				<g>
					<path fill="#FFFF00" d="M154.959,163.322c-0.198,0.028-0.396,0.056-0.608-0.016c-1.046-0.257-1.793-1.263-1.634-2.295
					l2.783-14.729c0.257-1.046,1.263-1.793,2.295-1.634c1.046,0.257,1.793,1.263,1.634,2.295l-2.783,14.729
					C156.474,162.604,155.751,163.211,154.959,163.322z"/>
				</g>
				<g>
					<path fill="#FFFF00" d="M164.02,159.527c-0.198,0.028-0.396,0.056-0.608-0.016c-1.046-0.257-1.793-1.263-1.634-2.295
					l2.181-11.817c0.257-1.046,1.263-1.793,2.295-1.634c1.046,0.257,1.793,1.263,1.634,2.295l-2.181,11.817
					C165.535,158.81,164.812,159.416,164.02,159.527z"/>
				</g>
				<g>
					<path fill="#FFFF00" d="M171.621,156.846c-0.198,0.028-0.396,0.056-0.608-0.016c-1.046-0.257-1.793-1.263-1.634-2.295
					l2.066-11.195c0.257-1.046,1.263-1.793,2.295-1.634c1.046,0.257,1.793,1.263,1.634,2.295l-2.066,11.195
					C173.136,156.129,172.413,156.735,171.621,156.846z"/>
				</g>
				<g>
					<path fill="#FFFF00" d="M180.175,152.315c-0.198,0.028-0.396,0.056-0.608-0.016c-1.046-0.257-1.793-1.263-1.634-2.295
					l1.678-8.919c0.257-1.046,1.263-1.793,2.295-1.634c1.046,0.257,1.793,1.263,1.634,2.295l-1.678,8.919
					C181.69,151.598,180.967,152.204,180.175,152.315z"/>
				</g>
			</g>
		</g>
	</g>
	<g>
		<circle fill="#FFDA44" cx="191.6" cy="65.2" r="41"/>
		<path fill="#A2001D" d="M232.6,65.2c0-14.1-7.1-26.5-17.9-33.8h-46.2c-10.8,7.4-17.9,19.8-17.9,33.8c0,14.1,7.1,26.5,17.9,33.8
		h46.2C225.5,91.6,232.6,79.2,232.6,65.2z"/>
		<polygon fill="#FFDA44" points="182.7,54.5 200.5,54.5 200.5,47.4 197,49.1 191.6,43.8 186.3,49.1 182.7,47.4 	"/>
		<path fill="#FFDA44" d="M207.7,65.2h-8.9c0.3-0.6,0.6-1.3,0.6-2c0-2.3-1.8-4.1-4.1-4.1c-1.6,0-2.9,0.9-3.6,2.2
		c-0.7-1.3-2.1-2.2-3.6-2.2c-2.3,0-4.1,1.8-4.1,4.1c0,0.7,0.2,1.4,0.6,2h-8.8c0,2.7,2.4,4.9,5.1,4.9h-0.2c0,2.2,1.5,4.1,3.5,4.7
		l-4,4l3.8,3.8l5.4-5.4c0.2,0.1,0.4,0.1,0.7,0.2l-3.2,7.3c1.6,0.6,3.2,1,5,1s3.5-0.4,5-1l-3.2-7.3c0.2,0,0.4-0.1,0.7-0.2l5.4,5.4
		l3.8-3.8l-4-4c2-0.6,3.5-2.5,3.5-4.7h-0.2C205.3,70.1,207.7,67.9,207.7,65.2z"/>
		<polygon fill="#6DA544" points="191.6,67.8 185.9,70.5 185.9,75.9 191.6,79.4 197.4,75.9 197.4,70.5 	"/>
		<rect x="185.9" y="65.2" fill="#0052B4" width="11.6" height="7.1"/>
	</g>
	<ellipse fill="none" stroke="#000000" stroke-width="1.4754" stroke-miterlimit="10" cx="191.6" cy="65.2" rx="40.8" ry="40.6"/>
	<g>
		<path d="M21.623,127.833v-17.188h3.252l2.441,12.559l2.295-12.559h3.271v17.188h-2.334v-6.406l0.098-5.879l-2.314,12.207h-2.08
		l-2.412-12.207l0.098,5.879v6.406C23.938,127.833,21.623,127.833,21.623,127.833z"/>
		<path d="M41.955,126.789c-0.599,0.827-1.558,1.24-2.876,1.24s-2.285-0.415-2.9-1.245s-0.923-2.082-0.923-3.755v-7.861
		c0-3.151,1.286-4.727,3.857-4.727c1.328,0,2.284,0.4,2.866,1.201s0.874,1.976,0.874,3.525v7.861
		C42.853,124.708,42.554,125.962,41.955,126.789z M38.122,125.167c0.153,0.397,0.467,0.596,0.942,0.596s0.788-0.204,0.938-0.61
		s0.225-1.105,0.225-2.095v-8.008c0-0.814-0.077-1.408-0.229-1.782s-0.453-0.562-0.898-0.562s-0.758,0.187-0.938,0.562
		s-0.269,0.965-0.269,1.772v8.018C37.892,124.067,37.969,124.771,38.122,125.167z"/>
		<path d="M45.226,127.833v-17.188h2.051l3.643,10.312l-0.186-4.688v-5.625h2.354v17.188h-1.855l-3.74-10.674l0.146,4.512v6.162
		L45.226,127.833L45.226,127.833z"/>
		<path d="M56.544,127.833v-14.922h-2.012v-2.266h6.553v2.266h-1.934v14.922H56.544z"/>
		<path d="M62.531,127.833v-17.188h5.762v2.256h-3.145v5h2.988v2.207h-2.988v5.469h3.262v2.256H62.531z"/>
		<path d="M70.5,127.833v-17.188h2.051l3.643,10.312l-0.186-4.688v-5.625h2.354v17.188h-1.855l-3.74-10.674l0.146,4.512v6.162
		L70.5,127.833L70.5,127.833z"/>
		<path d="M80.939,127.833v-17.188h5.762v2.256h-3.145v5h2.988v2.207h-2.988v5.469h3.262v2.256H80.939z"/>
		<path d="M92.14,128.009c-1.081,0-1.925-0.425-2.534-1.274s-0.913-2.16-0.913-3.931v-7.471c0-1.588,0.311-2.799,0.933-3.633
		s1.61-1.25,2.964-1.25c1.686,0,2.757,0.628,3.213,1.885c0.273,0.755,0.41,1.787,0.41,3.096v1.221h-2.441v-1.797
		c0-0.788-0.083-1.341-0.249-1.66s-0.479-0.479-0.938-0.479s-0.783,0.19-0.972,0.571s-0.283,1.056-0.283,2.026v7.451
		c0,1.126,0.084,1.911,0.254,2.354s0.5,0.664,0.991,0.664s0.84-0.238,1.045-0.713s0.308-1.276,0.308-2.402v-2.314H92.61v-1.904
		h3.604v9.385h-1.172l-0.4-1.689c-0.137,0.58-0.436,1.035-0.898,1.367S92.746,128.009,92.14,128.009z"/>
		<path d="M102.13,119.757l-0.84-0.039v8.115h-2.617v-17.188H103c0.898,0,1.569,0.181,2.012,0.542s0.734,0.866,0.874,1.514
		s0.21,1.494,0.21,2.539s-0.111,1.841-0.332,2.388s-0.631,0.915-1.23,1.104c0.592,0.104,1.006,0.504,1.24,1.201
		s0.352,2.147,0.352,4.351s0.033,3.387,0.098,3.55h-2.617c-0.065-0.13-0.098-2.184-0.098-6.162c0-0.762-0.091-1.268-0.273-1.519
		S102.684,119.771,102.13,119.757z M101.3,117.687h1.045c0.332,0,0.578-0.075,0.737-0.225s0.27-0.407,0.332-0.771
		s0.093-0.921,0.093-1.67v-0.107c0-0.931-0.078-1.54-0.234-1.826s-0.518-0.43-1.084-0.43H101.3V117.687z"/>
		<path d="M108.634,127.833v-17.188h2.617v17.188C111.251,127.833,108.634,127.833,108.634,127.833z"/>
		<path d="M113.927,127.833v-17.188h2.051l3.643,10.312l-0.186-4.688v-5.625h2.354v17.188h-1.855l-3.74-10.674l0.146,4.512v6.162
		L113.927,127.833L113.927,127.833z"/>
		<path d="M21.613,151.833v-17.188h5.898v2.275H24.23v4.57h3.047v2.285H24.23v8.057L21.613,151.833L21.613,151.833z"/>
		<path d="M35.978,150.91c-0.599,0.746-1.561,1.118-2.886,1.118s-2.289-0.374-2.891-1.123c-0.602-0.748-0.903-1.91-0.903-3.486
		v-12.783h2.617v12.734c0,0.905,0.042,1.455,0.127,1.65c0.085,0.195,0.187,0.373,0.308,0.532c0.121,0.16,0.37,0.239,0.747,0.239
		s0.648-0.11,0.811-0.332c0.163-0.221,0.262-0.496,0.298-0.825c0.036-0.328,0.054-0.75,0.054-1.265v-12.734h2.617v12.783
		C36.876,149.001,36.577,150.165,35.978,150.91z"/>
		<path d="M39.015,146.999v-1.533h2.48v1.729c0,0.957,0.082,1.63,0.244,2.017c0.163,0.388,0.469,0.581,0.918,0.581
		s0.747-0.159,0.894-0.479c0.146-0.318,0.22-0.84,0.22-1.562s-0.13-1.353-0.391-1.89s-0.674-1.099-1.24-1.685l-1.27-1.309
		c-0.592-0.618-1.053-1.26-1.382-1.924s-0.493-1.432-0.493-2.305c0-1.419,0.273-2.474,0.82-3.164
		c0.547-0.689,1.488-1.035,2.822-1.035s2.238,0.402,2.71,1.206c0.472,0.805,0.708,1.978,0.708,3.521v1.064h-2.412v-1.23
		c0-0.833-0.072-1.431-0.215-1.792s-0.418-0.542-0.825-0.542s-0.7,0.137-0.879,0.41s-0.269,0.684-0.269,1.23
		s0.091,0.983,0.273,1.309s0.511,0.742,0.986,1.25l1.416,1.533c0.709,0.769,1.245,1.547,1.606,2.334
		c0.361,0.788,0.542,1.647,0.542,2.578c0,1.608-0.27,2.797-0.811,3.564c-0.541,0.769-1.486,1.152-2.837,1.152
		s-2.292-0.428-2.822-1.284C39.28,149.889,39.015,148.64,39.015,146.999z"/>
		<path d="M47.853,146.999v-1.533h2.48v1.729c0,0.957,0.082,1.63,0.244,2.017c0.163,0.388,0.469,0.581,0.918,0.581
		s0.747-0.159,0.894-0.479c0.146-0.318,0.22-0.84,0.22-1.562s-0.13-1.353-0.391-1.89s-0.674-1.099-1.24-1.685l-1.27-1.309
		c-0.592-0.618-1.053-1.26-1.382-1.924s-0.493-1.432-0.493-2.305c0-1.419,0.273-2.474,0.82-3.164
		c0.547-0.689,1.488-1.035,2.822-1.035s2.238,0.402,2.71,1.206c0.472,0.805,0.708,1.978,0.708,3.521v1.064h-2.412v-1.23
		c0-0.833-0.072-1.431-0.215-1.792s-0.418-0.542-0.825-0.542s-0.7,0.137-0.879,0.41s-0.269,0.684-0.269,1.23
		s0.091,0.983,0.273,1.309s0.511,0.742,0.986,1.25l1.416,1.533c0.709,0.769,1.245,1.547,1.606,2.334
		c0.361,0.788,0.542,1.647,0.542,2.578c0,1.608-0.27,2.797-0.811,3.564c-0.541,0.769-1.486,1.152-2.837,1.152
		s-2.292-0.428-2.822-1.284C48.118,149.889,47.853,148.64,47.853,146.999z"/>
		<path d="M64.386,139.06c0,1.85-0.501,2.985-1.504,3.408c1.224,0.41,1.836,1.762,1.836,4.053v0.439
		c-0.013,1.726-0.314,2.969-0.903,3.73s-1.551,1.143-2.886,1.143H57.13v-17.188h3.721c1.283,0,2.191,0.298,2.725,0.894
		s0.804,1.594,0.811,2.993L64.386,139.06L64.386,139.06z M59.748,141.599h0.967c0.449,0,0.744-0.143,0.884-0.43
		c0.14-0.286,0.21-0.875,0.21-1.768v-1.035c-0.006-0.664-0.098-1.108-0.273-1.333s-0.479-0.337-0.908-0.337h-0.879L59.748,141.599
		L59.748,141.599z M59.748,149.802h0.928c0.521,0,0.885-0.179,1.094-0.537c0.208-0.357,0.312-0.999,0.312-1.924v-1.387
		c0-0.872-0.084-1.489-0.254-1.851s-0.495-0.542-0.977-0.542h-1.104L59.748,149.802L59.748,149.802z"/>
		<path d="M65.978,151.833l2.451-17.188h3.457l2.607,17.188h-2.441l-0.41-3.066h-2.773l-0.371,3.066H65.978z M71.369,146.667
		l-1.152-8.633h-0.039l-1.055,8.633H71.369z"/>
		<path d="M76.291,151.833v-17.188h2.617v14.961h3.311v2.227H76.291z"/>
		<path d="M83.722,151.833v-17.188h2.617v14.961h3.311v2.227H83.722z"/>
		<path d="M91.154,151.833v-17.188h5.762v2.256h-3.145v5h2.988v2.207h-2.988v5.469h3.262v2.256L91.154,151.833L91.154,151.833z"/>
		<path d="M102.58,143.757l-0.84-0.039v8.115h-2.617v-17.188h4.326c0.898,0,1.569,0.181,2.012,0.542s0.734,0.866,0.874,1.514
		c0.14,0.648,0.21,1.494,0.21,2.539s-0.111,1.841-0.332,2.388s-0.631,0.915-1.23,1.104c0.592,0.104,1.006,0.505,1.24,1.201
		c0.234,0.697,0.352,2.147,0.352,4.351s0.033,3.388,0.098,3.55h-2.617c-0.065-0.13-0.098-2.184-0.098-6.162
		c0-0.762-0.091-1.268-0.273-1.519C103.501,143.902,103.133,143.771,102.58,143.757z M101.75,141.687h1.045
		c0.332,0,0.578-0.074,0.737-0.225c0.16-0.149,0.27-0.406,0.332-0.771c0.062-0.364,0.093-0.921,0.093-1.67v-0.107
		c0-0.931-0.078-1.539-0.234-1.826c-0.156-0.286-0.518-0.43-1.084-0.43h-0.889V141.687z"/>
		<path d="M21.613,175.833v-17.188h3.857c1.263,0,2.179,0.373,2.749,1.118c0.57,0.746,0.854,1.845,0.854,3.296l0.01,7.754
		c0,1.732-0.287,3.002-0.859,3.809c-0.573,0.808-1.52,1.211-2.842,1.211H21.613z M24.23,173.802h0.859
		c0.482,0,0.832-0.156,1.05-0.469s0.327-0.885,0.327-1.719l-0.01-8.486c0-0.892-0.109-1.526-0.327-1.904
		c-0.218-0.377-0.594-0.566-1.128-0.566H24.23V173.802z"/>
		<path d="M31.437,175.833v-17.188h5.762v2.256h-3.145v5h2.988v2.207h-2.988v5.469h3.262v2.256L31.437,175.833L31.437,175.833z"/>
		<path d="M39.064,170.999v-1.533h2.48v1.729c0,0.957,0.082,1.63,0.244,2.017c0.163,0.388,0.469,0.581,0.918,0.581
		s0.747-0.159,0.894-0.479c0.146-0.318,0.22-0.84,0.22-1.562s-0.13-1.353-0.391-1.89s-0.674-1.099-1.24-1.685l-1.27-1.309
		c-0.592-0.618-1.053-1.26-1.382-1.924s-0.493-1.432-0.493-2.305c0-1.419,0.273-2.474,0.82-3.164
		c0.547-0.689,1.488-1.035,2.822-1.035s2.238,0.402,2.71,1.206c0.472,0.805,0.708,1.978,0.708,3.521v1.064h-2.412v-1.23
		c0-0.833-0.072-1.431-0.215-1.792s-0.418-0.542-0.825-0.542s-0.7,0.137-0.879,0.41s-0.269,0.684-0.269,1.23
		s0.091,0.983,0.273,1.309s0.511,0.742,0.986,1.25l1.416,1.533c0.709,0.769,1.245,1.547,1.606,2.334
		c0.361,0.788,0.542,1.647,0.542,2.578c0,1.608-0.27,2.797-0.811,3.564c-0.541,0.769-1.486,1.152-2.837,1.152
		s-2.292-0.428-2.822-1.284C39.329,173.889,39.064,172.64,39.064,170.999z"/>
		<path d="M57.365,174.881c-0.619,0.766-1.489,1.147-2.612,1.147s-1.996-0.34-2.617-1.021c-0.622-0.68-0.933-1.671-0.933-2.974
		v-3.066h2.529v2.939c0,0.951,0.153,1.53,0.459,1.738c0.137,0.092,0.306,0.137,0.508,0.137c0.397,0,0.659-0.162,0.786-0.488
		c0.127-0.325,0.19-0.84,0.19-1.543v-13.105h2.617v12.979C58.292,173.03,57.983,174.116,57.365,174.881z"/>
		<path d="M59.992,175.833l2.451-17.188H65.9l2.607,17.188h-2.441l-0.41-3.066h-2.773l-0.371,3.066H59.992z M65.382,170.667
		l-1.152-8.633h-0.039l-1.055,8.633H65.382z"/>
		<path d="M70.304,175.833v-17.188h2.617v6.953h2.344v-6.953h2.617v17.188h-2.617v-7.988h-2.344v7.988H70.304z"/>
		<path d="M83.917,167.757l-0.84-0.039v8.115H80.46v-17.188h4.326c0.898,0,1.569,0.181,2.012,0.542s0.734,0.866,0.874,1.514
		c0.14,0.648,0.21,1.494,0.21,2.539s-0.111,1.841-0.332,2.388s-0.631,0.915-1.23,1.104c0.592,0.104,1.006,0.505,1.24,1.201
		c0.234,0.697,0.352,2.147,0.352,4.351s0.033,3.388,0.098,3.55h-2.617c-0.065-0.13-0.098-2.184-0.098-6.162
		c0-0.762-0.091-1.268-0.273-1.519C84.839,167.902,84.471,167.771,83.917,167.757z M83.087,165.687h1.045
		c0.332,0,0.578-0.074,0.737-0.225c0.16-0.149,0.27-0.406,0.332-0.771c0.062-0.364,0.093-0.921,0.093-1.67v-0.107
		c0-0.931-0.078-1.539-0.234-1.826c-0.156-0.286-0.518-0.43-1.084-0.43h-0.889V165.687z"/>
		<path d="M90.324,175.833v-17.188h5.762v2.256h-3.145v5h2.988v2.207h-2.988v5.469h3.262v2.256L90.324,175.833L90.324,175.833z"/>
		<path d="M97.951,170.999v-1.533h2.48v1.729c0,0.957,0.082,1.63,0.244,2.017c0.163,0.388,0.469,0.581,0.918,0.581
		s0.747-0.159,0.894-0.479c0.146-0.318,0.22-0.84,0.22-1.562s-0.13-1.353-0.391-1.89s-0.674-1.099-1.24-1.685l-1.27-1.309
		c-0.592-0.618-1.053-1.26-1.382-1.924s-0.493-1.432-0.493-2.305c0-1.419,0.273-2.474,0.82-3.164
		c0.547-0.689,1.488-1.035,2.822-1.035s2.238,0.402,2.71,1.206c0.472,0.805,0.708,1.978,0.708,3.521v1.064h-2.412v-1.23
		c0-0.833-0.072-1.431-0.215-1.792s-0.418-0.542-0.825-0.542s-0.7,0.137-0.879,0.41s-0.269,0.684-0.269,1.23
		s0.091,0.983,0.273,1.309s0.511,0.742,0.986,1.25l1.416,1.533c0.709,0.769,1.245,1.547,1.606,2.334
		c0.361,0.788,0.542,1.647,0.542,2.578c0,1.608-0.27,2.797-0.811,3.564c-0.541,0.769-1.486,1.152-2.837,1.152
		s-2.292-0.428-2.822-1.284C98.216,173.889,97.951,172.64,97.951,170.999z"/>
	</g>
</svg>