<?xml version="1.0" encoding="utf-8"?>
<!-- Generator: Adobe Illustrator 17.0.0, SVG Export Plug-In . SVG Version: 6.00 Build 0)  -->
<!DOCTYPE svg PUBLIC "-//W3C//DTD SVG 1.1//EN" "http://www.w3.org/Graphics/SVG/1.1/DTD/svg11.dtd">
<svg version="1.1" id="Layer_1" xmlns="http://www.w3.org/2000/svg" xmlns:xlink="http://www.w3.org/1999/xlink" x="0px" y="0px"
	 width="256px" height="256px" viewBox="0 0 256 256" enable-background="new 0 0 256 256" xml:space="preserve">
<polygon fill="#FFFF00" points="128,188.6 53.1,243.2 82,155.1 6.8,100.8 99.5,101 128,12.8 156.5,101 249.2,100.8 174,155.1 
	202.9,243.2 "/>
<path fill="#FFFFFF" d="M192,10.3c-17.1,0-32.4,8-42.3,20.6h-0.3v0.3c-7.1,9.1-11.4,20.6-11.4,33c0,29.7,24.2,53.9,53.9,53.9
	s53.9-24.2,53.9-53.9S221.7,10.3,192,10.3z"/>
<path d="M192,10.3c-17.1,0-32.4,8-42.3,20.6h-0.3v0.3c-7.1,9.1-11.4,20.6-11.4,33c0,29.7,24.2,53.9,53.9,53.9s53.9-24.2,53.9-53.9
	S221.7,10.3,192,10.3z M208.6,100.9l-23.1-3L183.7,78l17.6-10.7L217,82.4L208.6,100.9z M171.2,103.3L151.9,89l-2.1-14.7l11.8-7.4
	L181.5,78l1.9,20.2L171.2,103.3z M149.1,72.2L142,57.4l9.3-15.3l9.7,2l-0.2,20.8L149.1,72.2z M188.3,19l21.3,2.9l7.3,13.6l-16.1,7.9
	l-16.5-11.5L188.3,19z M231.4,74.4l-12.6,6.7l-16.9-16.2l0.2-19.7l16-7.9L232.3,50L231.4,74.4z M233.5,74.9l1-24.5l7.1-0.9
	c1.4,4.7,2.1,9.6,2.1,14.7c0,4.6-0.6,9-1.7,13.2L233.5,74.9z M240.9,47.4l-7.1,0.9l-14.6-13.1L212,21.9l6.1-2.4
	C228.7,25.7,236.9,35.6,240.9,47.4z M178.8,14.2l7.4,4.1L182,32.1L162.3,42l-10.5-2.1l-0.2-8.1C158.5,23.4,167.9,17,178.8,14.2z
	 M149.7,40.5l-8.5,14.1c1.4-7.3,4.3-14.1,8.4-20L149.7,40.5z M140.5,59.2l7.1,14.9l2.1,14.8l-2.9,0.4c-4.1-7.4-6.5-16-6.5-25.1
	C140.3,62.5,140.4,60.8,140.5,59.2z M172.4,112.1l-0.2-6.8l12.5-5.3l23.9,3.1l4.4,8.4c-6.4,2.9-13.5,4.5-21,4.5
	C185.1,115.9,178.5,114.5,172.4,112.1z"/>
<g>
	<g>
		<ellipse fill="#F0F0F0" cx="191.6" cy="65.2" rx="41" ry="40.6"/>
		<path fill="#A2001D" d="M191.6,24.6c-17.6,0-32.6,11-38.4,26.5H230C224.2,35.6,209.2,24.6,191.6,24.6z"/>
		<path fill="#0052B4" d="M191.6,105.8c17.6,0,32.6-11,38.4-26.5h-76.8C158.9,94.8,174,105.8,191.6,105.8z"/>
	</g>
	<ellipse fill="none" stroke="#000000" stroke-width="1.4754" stroke-miterlimit="10" cx="191.6" cy="65.2" rx="40.8" ry="40.6"/>
</g>
<g>
	<path fill="none" stroke="#000000" stroke-width="3" stroke-miterlimit="10" d="M157.6,137"/>
	<path fill="#FF0000" d="M157.6,137"/>
</g>
<g>
	<path fill="#FFFFFF" d="M212.808,171.267c20.193-10.109,33.648-32.067,34.438-35.393c0.79-3.325-0.514-4.068-2.836-6.496
		c-2.322-2.428-7.021-0.525-7.021-0.525s-21.176,17.49-31.09,24.387c-10.001,7.008-51.948,18.049-57.613,21.083
		c-5.665,3.033-45.042,16.069-51.618,24.66c0.041,2.716-1.811,9.603,5.105,6.109C109.091,201.598,179.513,187.768,212.808,171.267z"
		/>
	<g>
		<path fill="none" stroke="#000000" stroke-width="3" stroke-miterlimit="10" d="M183.825,143.681
			c3.336-0.724,6.063-1.471,8.122-1.933c4.389-1.159,9.448-2.604,16.131-4.758c8.803-2.926,18.546-7.986,22.166-8.846
			c6.361-1.509,12.329,0.258,12.329,0.258c2.905,2.254-21.197,20.517-26.984,24.977c-14.895,11.355-61.629,22.799-95.313,36.225
			c-12.001,4.741-17.241,9.535-17.241,9.535s9.274-3.187,15.833-4.721c14.57-3.553,78.195-16.928,94.555-27.057
			c21.119-13.149,31.676-31.718,31.759-35.054c5.095,7.622,1.58,14.113-1.49,18.533c-3.083,4.32-0.587,6.525-1.851,7.692
			c-0.706,0.795-4.292-0.466-7.327,2.639c-3.035,3.105-4.111,5.76-7.84,8.953c-3.742,3.093-0.699,6.438-3.077,9.158
			c-2.391,2.62-5.1-2.077-8.658,0.085c-3.545,2.262-5.577,3.728-11.763,6.626c-6.087,2.885-2.336,7.048-4.703,8.254
			c-2.243,1.392-6.604-4.407-11.265-2.206S164.515,206.296,158.33,210c-6.284,3.716-1.176,12.244-3.158,14.107
			c-1.264,1.167-5.585-2.722-9.529-2.829c-2.319-0.01-4.538,1.581-6.805,3.581c-6.071,5.403-0.644,10.866-3.247,12.606
			s-4.517-1.446-9.133-2.879c-4.616-1.433-8.495,1.375-13.387-3.047c-23.518-21.02-19.702-44.281-19.702-44.281
			c1.646-2.929,2.639-2.248,7.403-1.237c4.752,0.912,12.889,1.497,18.788-2.876c5.799-4.361,11.913-15.817,11.274-20.877
			s-2.107-8.705,4.504-9.035c2.704-0.14,10.702-1.452,19.953-3.225l4.229-0.836C161.926,148.26,161.926,148.26,183.825,143.681z"/>
		<path fill="#36F055" d="M183.825,143.681c3.336-0.724,6.063-1.471,8.122-1.933c4.389-1.159,9.448-2.604,16.131-4.758
			c8.803-2.926,18.546-7.986,22.166-8.846c6.361-1.509,12.329,0.258,12.329,0.258c2.905,2.254-21.197,20.517-26.984,24.977
			c-14.895,11.355-61.629,22.799-95.313,36.225c-12.001,4.741-17.241,9.535-17.241,9.535s9.274-3.187,15.833-4.721
			c14.57-3.553,78.195-16.928,94.555-27.057c21.119-13.149,31.676-31.718,31.759-35.054c5.095,7.622,1.58,14.113-1.49,18.533
			c-3.083,4.32-0.587,6.525-1.851,7.692c-0.706,0.795-4.292-0.466-7.327,2.639c-3.035,3.105-4.111,5.76-7.84,8.953
			c-3.742,3.093-0.699,6.438-3.077,9.158c-2.391,2.62-5.1-2.077-8.658,0.085c-3.545,2.262-5.577,3.728-11.763,6.626
			c-6.087,2.885-2.336,7.048-4.703,8.254c-2.243,1.392-6.604-4.407-11.265-2.206S164.515,206.296,158.33,210
			c-6.284,3.716-1.176,12.244-3.158,14.107c-1.264,1.167-5.585-2.722-9.529-2.829c-2.319-0.01-4.538,1.581-6.805,3.581
			c-6.071,5.403-0.644,10.866-3.247,12.606s-4.517-1.446-9.133-2.879c-4.616-1.433-8.495,1.375-13.387-3.047
			c-23.518-21.02-19.702-44.281-19.702-44.281c1.646-2.929,2.639-2.248,7.403-1.237c4.752,0.912,12.889,1.497,18.788-2.876
			c5.799-4.361,11.913-15.817,11.274-20.877s-2.107-8.705,4.504-9.035c2.704-0.14,10.702-1.452,19.953-3.225l4.229-0.836
			C161.926,148.26,161.926,148.26,183.825,143.681z"/>
	</g>
	<g>
		<g>
			<g>
				<path fill="none" stroke="#1D1D1B" stroke-width="3" d="M155.259,163.314c-0.198,0.025-0.397,0.05-0.608-0.024
					c-1.042-0.272-1.775-1.288-1.603-2.317l2.983-14.689c0.272-1.042,1.288-1.775,2.317-1.603c1.042,0.272,1.775,1.288,1.603,2.317
					l-2.983,14.689C156.784,162.617,156.053,163.213,155.259,163.314z"/>
			</g>
			<g>
				<path fill="none" stroke="#1D1D1B" stroke-width="3" d="M164.371,159.643c-0.198,0.025-0.397,0.05-0.608-0.024
					c-1.042-0.272-1.775-1.288-1.603-2.317l2.342-11.786c0.272-1.042,1.288-1.775,2.317-1.603c1.042,0.272,1.775,1.288,1.603,2.317
					l-2.342,11.786C165.896,158.947,165.165,159.543,164.371,159.643z"/>
			</g>
			<g>
				<path fill="none" stroke="#1D1D1B" stroke-width="3" d="M172.008,157.066c-0.198,0.025-0.397,0.05-0.608-0.024
					c-1.042-0.272-1.775-1.288-1.603-2.317l2.219-11.166c0.272-1.042,1.288-1.775,2.317-1.603c1.042,0.272,1.775,1.288,1.603,2.317
					l-2.219,11.166C173.533,156.37,172.802,156.966,172.008,157.066z"/>
			</g>
			<g>
				<path fill="none" stroke="#1D1D1B" stroke-width="3" d="M180.623,152.652c-0.198,0.025-0.397,0.05-0.608-0.024
					c-1.042-0.272-1.775-1.288-1.603-2.317l1.8-8.896c0.272-1.042,1.288-1.775,2.317-1.603c1.042,0.272,1.775,1.288,1.603,2.317
					l-1.8,8.896C182.148,151.956,181.417,152.552,180.623,152.652z"/>
			</g>
		</g>
		<g>
			<g>
				<path fill="#FFFF00" d="M155.259,163.314c-0.198,0.025-0.397,0.05-0.608-0.024c-1.042-0.272-1.775-1.288-1.603-2.317
					l2.983-14.689c0.272-1.042,1.288-1.775,2.317-1.603c1.042,0.272,1.775,1.288,1.603,2.317l-2.983,14.689
					C156.784,162.617,156.053,163.213,155.259,163.314z"/>
			</g>
			<g>
				<path fill="#FFFF00" d="M164.371,159.643c-0.198,0.025-0.397,0.05-0.608-0.024c-1.042-0.272-1.775-1.288-1.603-2.317
					l2.342-11.786c0.272-1.042,1.288-1.775,2.317-1.603c1.042,0.272,1.775,1.288,1.603,2.317l-2.342,11.786
					C165.896,158.947,165.165,159.543,164.371,159.643z"/>
			</g>
			<g>
				<path fill="#FFFF00" d="M172.008,157.066c-0.198,0.025-0.397,0.05-0.608-0.024c-1.042-0.272-1.775-1.288-1.603-2.317
					l2.219-11.166c0.272-1.042,1.288-1.775,2.317-1.603c1.042,0.272,1.775,1.288,1.603,2.317l-2.219,11.166
					C173.533,156.37,172.802,156.966,172.008,157.066z"/>
			</g>
			<g>
				<path fill="#FFFF00" d="M180.623,152.652c-0.198,0.025-0.397,0.05-0.608-0.024c-1.042-0.272-1.775-1.288-1.603-2.317l1.8-8.896
					c0.272-1.042,1.288-1.775,2.317-1.603c1.042,0.272,1.775,1.288,1.603,2.317l-1.8,8.896
					C182.148,151.956,181.417,152.552,180.623,152.652z"/>
			</g>
		</g>
	</g>
</g>
<g>
	<path d="M13.623,126.833v-17.188h2.051l3.643,10.312l-0.186-4.688v-5.625h2.354v17.188H19.63l-3.74-10.674l0.146,4.512v6.162
		L13.623,126.833L13.623,126.833z"/>
	<path d="M24.16,126.833v-17.188h2.617v17.188C26.777,126.833,24.16,126.833,24.16,126.833z"/>
	<path d="M29.453,126.833v-17.188h5.762v2.256H32.07v5h2.988v2.207H32.07v5.469h3.262v2.256H29.453z"/>
	<path d="M37.412,126.833v-17.188h3.857c1.263,0,2.179,0.373,2.749,1.118s0.854,1.844,0.854,3.296l0.01,7.754
		c0,1.732-0.287,3.001-0.859,3.809s-1.52,1.211-2.842,1.211C41.181,126.833,37.412,126.833,37.412,126.833z M40.029,124.802h0.859
		c0.482,0,0.832-0.156,1.05-0.469s0.327-0.885,0.327-1.719l-0.01-8.486c0-0.892-0.109-1.527-0.327-1.904s-0.594-0.566-1.128-0.566
		h-0.771C40.029,111.658,40.029,124.802,40.029,124.802z"/>
	<path d="M47.236,126.833v-17.188h5.762v2.256h-3.145v5h2.988v2.207h-2.988v5.469h3.262v2.256H47.236z"/>
	<path d="M58.662,118.757l-0.84-0.039v8.115h-2.617v-17.188h4.326c0.898,0,1.569,0.181,2.012,0.542s0.734,0.866,0.874,1.514
		s0.21,1.494,0.21,2.539s-0.111,1.841-0.332,2.388s-0.631,0.915-1.23,1.104c0.592,0.104,1.006,0.504,1.24,1.201
		s0.352,2.147,0.352,4.351s0.033,3.387,0.098,3.55h-2.617c-0.065-0.13-0.098-2.184-0.098-6.162c0-0.762-0.091-1.268-0.273-1.519
		S59.215,118.771,58.662,118.757z M57.832,116.687h1.045c0.332,0,0.578-0.075,0.737-0.225s0.27-0.407,0.332-0.771
		s0.093-0.921,0.093-1.67v-0.107c0-0.931-0.078-1.54-0.234-1.826s-0.518-0.43-1.084-0.43h-0.889
		C57.832,111.658,57.832,116.687,57.832,116.687z"/>
	<path d="M65.068,126.833v-17.188h2.617v14.961h3.311v2.227H65.068z"/>
	<path d="M71.718,126.833l2.451-17.188h3.457l2.607,17.188h-2.441l-0.41-3.066h-2.773l-0.371,3.066
		C74.238,126.833,71.718,126.833,71.718,126.833z M72.177,108.445v-2.207h2.754v2.207H72.177z M77.109,121.667l-1.152-8.633h-0.039
		l-1.055,8.633H77.109z M76.904,108.445v-2.207h2.754v2.207H76.904z"/>
	<path d="M82.031,126.833v-17.188h2.051l3.643,10.312l-0.186-4.688v-5.625h2.354v17.188h-1.855l-3.74-10.674l0.146,4.512v6.162
		L82.031,126.833L82.031,126.833z"/>
	<path d="M92.46,126.833v-17.188h3.857c1.263,0,2.179,0.373,2.749,1.118s0.854,1.844,0.854,3.296l0.01,7.754
		c0,1.732-0.287,3.001-0.859,3.809s-1.52,1.211-2.842,1.211C96.229,126.833,92.46,126.833,92.46,126.833z M95.078,124.802h0.859
		c0.482,0,0.832-0.156,1.05-0.469s0.327-0.885,0.327-1.719l-0.01-8.486c0-0.892-0.109-1.527-0.327-1.904s-0.594-0.566-1.128-0.566
		h-0.771V124.802z"/>
	<path d="M102.382,126.833v-17.188H105v17.188C105,126.833,102.382,126.833,102.382,126.833z"/>
	<path d="M107.333,122v-1.533h2.48v1.729c0,0.957,0.082,1.629,0.244,2.017s0.469,0.581,0.918,0.581s0.747-0.16,0.894-0.479
		s0.22-0.84,0.22-1.562s-0.13-1.353-0.391-1.89s-0.674-1.099-1.24-1.685l-1.27-1.309c-0.592-0.619-1.053-1.26-1.382-1.924
		s-0.493-1.432-0.493-2.305c0-1.419,0.273-2.474,0.82-3.164s1.488-1.035,2.822-1.035s2.238,0.402,2.71,1.206
		s0.708,1.978,0.708,3.521v1.064h-2.412v-1.23c0-0.833-0.072-1.431-0.215-1.792s-0.418-0.542-0.825-0.542s-0.7,0.137-0.879,0.41
		s-0.269,0.684-0.269,1.23s0.091,0.983,0.273,1.309s0.511,0.742,0.986,1.25l1.416,1.533c0.709,0.768,1.245,1.546,1.606,2.334
		s0.542,1.647,0.542,2.578c0,1.608-0.27,2.796-0.811,3.564s-1.486,1.152-2.837,1.152s-2.292-0.428-2.822-1.284
		S107.333,123.64,107.333,122z"/>
	<path d="M122.88,125.833c-0.592,0.797-1.523,1.196-2.793,1.196s-2.218-0.425-2.847-1.274s-0.942-2.072-0.942-3.667v-7.49
		c0-2.559,0.67-4.157,2.012-4.795c0.495-0.234,1.094-0.352,1.797-0.352c2.416,0,3.623,1.523,3.623,4.57v2.363h-2.529v-2.197
		c0-0.885-0.075-1.519-0.225-1.899s-0.443-0.571-0.879-0.571s-0.739,0.202-0.908,0.605s-0.254,1.022-0.254,1.855v8.027
		c0,0.924,0.082,1.585,0.244,1.982s0.459,0.596,0.889,0.596s0.726-0.202,0.889-0.605s0.244-1.071,0.244-2.002v-2.461h2.568v2.432
		C123.769,123.806,123.473,125.035,122.88,125.833z"/>
	<path d="M125.898,126.833v-17.188h2.617v6.953h2.344v-6.953h2.617v17.188h-2.617v-7.988h-2.344v7.988
		C128.515,126.833,125.898,126.833,125.898,126.833z"/>
	<path d="M136.054,126.833v-17.188h5.762v2.256h-3.145v5h2.988v2.207h-2.988v5.469h3.262v2.256H136.054z"/>
	<path d="M147.479,118.757l-0.84-0.039v8.115h-2.617v-17.188h4.326c0.898,0,1.569,0.181,2.012,0.542s0.734,0.866,0.874,1.514
		c0.141,0.648,0.21,1.494,0.21,2.539s-0.11,1.841-0.332,2.388c-0.221,0.547-0.631,0.915-1.23,1.104
		c0.593,0.104,1.006,0.504,1.24,1.201s0.352,2.147,0.352,4.351s0.033,3.387,0.098,3.55h-2.617c-0.064-0.13-0.098-2.184-0.098-6.162
		c0-0.762-0.091-1.268-0.273-1.519C148.401,118.902,148.033,118.771,147.479,118.757z M146.649,116.687h1.045
		c0.332,0,0.578-0.075,0.737-0.225c0.16-0.15,0.271-0.407,0.332-0.771c0.062-0.365,0.093-0.921,0.093-1.67v-0.107
		c0-0.931-0.078-1.54-0.234-1.826s-0.518-0.43-1.084-0.43h-0.889V116.687z"/>
	<path d="M13.613,150.833v-17.188h5.898v2.275H16.23v4.57h3.047v2.285H16.23v8.057L13.613,150.833L13.613,150.833z"/>
	<path d="M27.978,149.91c-0.599,0.746-1.561,1.118-2.886,1.118s-2.289-0.374-2.891-1.123c-0.602-0.748-0.903-1.91-0.903-3.486
		v-12.783h2.617v12.734c0,0.905,0.042,1.455,0.127,1.65s0.187,0.373,0.308,0.532c0.121,0.16,0.37,0.239,0.747,0.239
		s0.648-0.11,0.811-0.332c0.163-0.221,0.262-0.496,0.298-0.825c0.036-0.328,0.054-0.75,0.054-1.265v-12.734h2.617v12.783
		C28.876,148.001,28.577,149.165,27.978,149.91z"/>
	<path d="M31.015,145.999v-1.533h2.48v1.729c0,0.957,0.082,1.63,0.244,2.017c0.163,0.388,0.469,0.581,0.918,0.581
		s0.747-0.159,0.894-0.479c0.146-0.318,0.22-0.84,0.22-1.562s-0.13-1.353-0.391-1.89s-0.674-1.099-1.24-1.685l-1.27-1.309
		c-0.592-0.618-1.053-1.26-1.382-1.924s-0.493-1.432-0.493-2.305c0-1.419,0.273-2.474,0.82-3.164
		c0.547-0.689,1.488-1.035,2.822-1.035s2.238,0.402,2.71,1.206c0.472,0.805,0.708,1.978,0.708,3.521v1.064h-2.412v-1.23
		c0-0.833-0.072-1.431-0.215-1.792s-0.418-0.542-0.825-0.542s-0.7,0.137-0.879,0.41s-0.269,0.684-0.269,1.23
		s0.091,0.983,0.273,1.309s0.511,0.742,0.986,1.25l1.416,1.533c0.709,0.769,1.245,1.547,1.606,2.334
		c0.361,0.788,0.542,1.647,0.542,2.578c0,1.608-0.27,2.797-0.811,3.564c-0.541,0.769-1.486,1.152-2.837,1.152
		s-2.292-0.428-2.822-1.284C31.28,148.889,31.015,147.64,31.015,145.999z"/>
	<path d="M39.853,145.999v-1.533h2.48v1.729c0,0.957,0.082,1.63,0.244,2.017c0.163,0.388,0.469,0.581,0.918,0.581
		s0.747-0.159,0.894-0.479c0.146-0.318,0.22-0.84,0.22-1.562s-0.13-1.353-0.391-1.89s-0.674-1.099-1.24-1.685l-1.27-1.309
		c-0.592-0.618-1.053-1.26-1.382-1.924s-0.493-1.432-0.493-2.305c0-1.419,0.273-2.474,0.82-3.164
		c0.547-0.689,1.488-1.035,2.822-1.035s2.238,0.402,2.71,1.206c0.472,0.805,0.708,1.978,0.708,3.521v1.064h-2.412v-1.23
		c0-0.833-0.072-1.431-0.215-1.792s-0.418-0.542-0.825-0.542s-0.7,0.137-0.879,0.41s-0.269,0.684-0.269,1.23
		s0.091,0.983,0.273,1.309s0.511,0.742,0.986,1.25l1.416,1.533c0.709,0.769,1.245,1.547,1.606,2.334
		c0.361,0.788,0.542,1.647,0.542,2.578c0,1.608-0.27,2.797-0.811,3.564c-0.541,0.769-1.486,1.152-2.837,1.152
		s-2.292-0.428-2.822-1.284C40.118,148.889,39.853,147.64,39.853,145.999z"/>
	<path d="M56.386,138.06c0,1.85-0.501,2.985-1.504,3.408c1.224,0.41,1.836,1.762,1.836,4.053v0.439
		c-0.013,1.726-0.314,2.969-0.903,3.73s-1.551,1.143-2.886,1.143H49.13v-17.188h3.721c1.283,0,2.191,0.298,2.725,0.894
		s0.804,1.594,0.811,2.993L56.386,138.06L56.386,138.06z M51.748,140.599h0.967c0.449,0,0.744-0.143,0.884-0.43
		c0.14-0.286,0.21-0.875,0.21-1.768v-1.035c-0.006-0.664-0.098-1.108-0.273-1.333s-0.479-0.337-0.908-0.337h-0.879L51.748,140.599
		L51.748,140.599z M51.748,148.802h0.928c0.521,0,0.885-0.179,1.094-0.537c0.208-0.357,0.312-0.999,0.312-1.924v-1.387
		c0-0.872-0.084-1.489-0.254-1.851s-0.495-0.542-0.977-0.542h-1.104L51.748,148.802L51.748,148.802z"/>
	<path d="M57.978,150.833l2.451-17.188h3.457l2.607,17.188h-2.441l-0.41-3.066h-2.773l-0.371,3.066H57.978z M63.369,145.667
		l-1.152-8.633h-0.039l-1.055,8.633H63.369z"/>
	<path d="M68.291,150.833v-17.188h2.617v14.961h3.311v2.227H68.291z"/>
	<path d="M75.722,150.833v-17.188h2.617v14.961h3.311v2.227H75.722z"/>
	<path d="M83.154,150.833v-17.188h5.762v2.256h-3.145v5h2.988v2.207h-2.988v5.469h3.262v2.256L83.154,150.833L83.154,150.833z"/>
	<path d="M94.58,142.757l-0.84-0.039v8.115h-2.617v-17.188h4.326c0.898,0,1.569,0.181,2.012,0.542s0.734,0.866,0.874,1.514
		c0.14,0.648,0.21,1.494,0.21,2.539s-0.111,1.841-0.332,2.388s-0.631,0.915-1.23,1.104c0.592,0.104,1.006,0.505,1.24,1.201
		c0.234,0.697,0.352,2.147,0.352,4.351s0.033,3.388,0.098,3.55h-2.617c-0.065-0.13-0.098-2.184-0.098-6.162
		c0-0.762-0.091-1.268-0.273-1.519C95.501,142.902,95.133,142.771,94.58,142.757z M93.75,140.687h1.045
		c0.332,0,0.578-0.074,0.737-0.225c0.16-0.149,0.27-0.406,0.332-0.771c0.062-0.364,0.093-0.921,0.093-1.67v-0.107
		c0-0.931-0.078-1.539-0.234-1.826c-0.156-0.286-0.518-0.43-1.084-0.43H93.75V140.687z"/>
	<path d="M104.56,150.833v-17.188h3.857c1.263,0,2.179,0.373,2.749,1.118c0.57,0.746,0.854,1.845,0.854,3.296l0.01,7.754
		c0,1.732-0.287,3.002-0.859,3.809c-0.573,0.808-1.52,1.211-2.842,1.211H104.56z M107.177,148.802h0.859
		c0.482,0,0.832-0.156,1.05-0.469s0.327-0.885,0.327-1.719l-0.01-8.486c0-0.892-0.109-1.526-0.327-1.904
		c-0.218-0.377-0.594-0.566-1.128-0.566h-0.771V148.802z"/>
	<path d="M114.384,150.833v-17.188h5.762v2.256h-3.145v5h2.988v2.207h-2.988v5.469h3.262v2.256L114.384,150.833L114.384,150.833z"/>
	<path d="M122.011,145.999v-1.533h2.48v1.729c0,0.957,0.082,1.63,0.244,2.017c0.163,0.388,0.469,0.581,0.918,0.581
		s0.747-0.159,0.894-0.479c0.146-0.318,0.22-0.84,0.22-1.562s-0.13-1.353-0.391-1.89s-0.674-1.099-1.24-1.685l-1.27-1.309
		c-0.592-0.618-1.053-1.26-1.382-1.924s-0.493-1.432-0.493-2.305c0-1.419,0.273-2.474,0.82-3.164
		c0.547-0.689,1.488-1.035,2.822-1.035s2.238,0.402,2.71,1.206c0.472,0.805,0.708,1.978,0.708,3.521v1.064h-2.412v-1.23
		c0-0.833-0.072-1.431-0.215-1.792s-0.418-0.542-0.825-0.542s-0.7,0.137-0.879,0.41s-0.269,0.684-0.269,1.23
		s0.091,0.983,0.273,1.309s0.511,0.742,0.986,1.25l1.416,1.533c0.709,0.769,1.245,1.547,1.606,2.334
		c0.361,0.788,0.542,1.647,0.542,2.578c0,1.608-0.27,2.797-0.81,3.564c-0.541,0.769-1.486,1.152-2.837,1.152
		s-2.292-0.428-2.822-1.284C122.276,148.889,122.011,147.64,122.011,145.999z"/>
	<path d="M19.16,173.881c-0.619,0.766-1.489,1.147-2.612,1.147s-1.996-0.34-2.617-1.021c-0.622-0.68-0.933-1.671-0.933-2.974v-3.066
		h2.529v2.939c0,0.951,0.153,1.53,0.459,1.738c0.137,0.092,0.306,0.137,0.508,0.137c0.397,0,0.659-0.162,0.786-0.488
		c0.127-0.325,0.19-0.84,0.19-1.543v-13.105h2.617v12.979C20.087,172.03,19.778,173.116,19.16,173.881z"/>
	<path d="M21.787,174.833l2.451-17.188h3.457l2.607,17.188h-2.441l-0.41-3.066h-2.773l-0.371,3.066H21.787z M27.177,169.667
		l-1.152-8.633h-0.039l-1.055,8.633H27.177z"/>
	<path d="M32.099,174.833v-17.188h2.617v6.953h2.344v-6.953h2.617v17.188H37.06v-7.988h-2.344v7.988H32.099z"/>
	<path d="M45.712,166.757l-0.84-0.039v8.115h-2.617v-17.188h4.326c0.898,0,1.569,0.181,2.012,0.542s0.734,0.866,0.874,1.514
		c0.14,0.648,0.21,1.494,0.21,2.539s-0.111,1.841-0.332,2.388s-0.631,0.915-1.23,1.104c0.592,0.104,1.006,0.505,1.24,1.201
		c0.234,0.697,0.352,2.147,0.352,4.351s0.033,3.388,0.098,3.55h-2.617c-0.065-0.13-0.098-2.184-0.098-6.162
		c0-0.762-0.091-1.268-0.273-1.519C46.634,166.902,46.266,166.771,45.712,166.757z M44.882,164.687h1.045
		c0.332,0,0.578-0.074,0.737-0.225c0.16-0.149,0.27-0.406,0.332-0.771c0.062-0.364,0.093-0.921,0.093-1.67v-0.107
		c0-0.931-0.078-1.539-0.234-1.826c-0.156-0.286-0.518-0.43-1.084-0.43h-0.889C44.882,159.658,44.882,164.687,44.882,164.687z"/>
	<path d="M52.119,174.833v-17.188h5.762v2.256h-3.145v5h2.988v2.207h-2.988v5.469h3.262v2.256L52.119,174.833L52.119,174.833z"/>
	<path d="M59.746,169.999v-1.533h2.48v1.729c0,0.957,0.082,1.63,0.244,2.017c0.163,0.388,0.469,0.581,0.918,0.581
		s0.747-0.159,0.894-0.479c0.146-0.318,0.22-0.84,0.22-1.562s-0.13-1.353-0.391-1.89s-0.674-1.099-1.24-1.685l-1.27-1.309
		c-0.592-0.618-1.053-1.26-1.382-1.924s-0.493-1.432-0.493-2.305c0-1.419,0.273-2.474,0.82-3.164
		c0.547-0.689,1.488-1.035,2.822-1.035s2.238,0.402,2.71,1.206c0.472,0.805,0.708,1.978,0.708,3.521v1.064h-2.412v-1.23
		c0-0.833-0.072-1.431-0.215-1.792s-0.418-0.542-0.825-0.542s-0.7,0.137-0.879,0.41s-0.269,0.684-0.269,1.23
		s0.091,0.983,0.273,1.309s0.511,0.742,0.986,1.25l1.416,1.533c0.709,0.769,1.245,1.547,1.606,2.334
		c0.361,0.788,0.542,1.647,0.542,2.578c0,1.608-0.27,2.797-0.811,3.564c-0.541,0.769-1.486,1.152-2.837,1.152
		s-2.292-0.428-2.822-1.284C60.011,172.889,59.746,171.64,59.746,169.999z"/>
</g>
</svg>
