<?xml version="1.0" encoding="utf-8"?>
<!-- Generator: Adobe Illustrator 17.0.0, SVG Export Plug-In . SVG Version: 6.00 Build 0)  -->
<!DOCTYPE svg PUBLIC "-//W3C//DTD SVG 1.1//EN" "http://www.w3.org/Graphics/SVG/1.1/DTD/svg11.dtd">
<svg version="1.1" id="Layer_1" xmlns="http://www.w3.org/2000/svg" xmlns:xlink="http://www.w3.org/1999/xlink" x="0px" y="0px"
	 width="256px" height="256px" viewBox="0 0 256 256" enable-background="new 0 0 256 256" xml:space="preserve">
<path fill="#FFFFFF" d="M192.1,10.3c-17.1,0-32.4,8-42.3,20.6h-0.3v0.3c-7.1,9.1-11.4,20.6-11.4,33c0,29.7,24.2,53.9,53.9,53.9
	s54-24.2,54-53.9S221.9,10.3,192.1,10.3z"/>
<path d="M192,10.3c-17.1,0-32.4,8-42.3,20.6h-0.3v0.3c-7.1,9.1-11.4,20.6-11.4,33c0,29.7,24.2,53.9,53.9,53.9s53.9-24.2,53.9-53.9
	S221.7,10.3,192,10.3z M208.6,100.9l-23.1-3L183.7,78l17.6-10.7L217,82.4L208.6,100.9z M171.2,103.3L151.9,89l-2.1-14.7l11.8-7.4
	L181.5,78l1.9,20.2L171.2,103.3z M149.1,72.2L142,57.4l9.3-15.3l9.7,2l-0.2,20.8L149.1,72.2z M188.3,19l21.3,2.9l7.3,13.6l-16.1,7.9
	l-16.5-11.5L188.3,19z M231.4,74.4l-12.6,6.7l-16.9-16.2l0.2-19.7l16-7.9L232.3,50L231.4,74.4z M233.5,74.9l1-24.5l7.1-0.9
	c1.4,4.7,2.1,9.6,2.1,14.7c0,4.6-0.6,9-1.7,13.2L233.5,74.9z M240.9,47.4l-7.1,0.9l-14.6-13.1L212,21.9l6.1-2.4
	C228.7,25.7,236.9,35.6,240.9,47.4z M178.8,14.2l7.4,4.1L182,32.1L162.3,42l-10.5-2.1l-0.2-8.1C158.5,23.4,167.9,17,178.8,14.2z
	 M149.7,40.5l-8.5,14.1c1.4-7.3,4.3-14.1,8.4-20L149.7,40.5z M140.5,59.2l7.1,14.9l2.1,14.8l-2.9,0.4c-4.1-7.4-6.5-16-6.5-25.1
	C140.3,62.5,140.4,60.8,140.5,59.2z M172.4,112.1l-0.2-6.8l12.5-5.3l23.9,3.1l4.4,8.4c-6.4,2.9-13.5,4.5-21,4.5
	C185.1,115.9,178.5,114.5,172.4,112.1z"/>
<g>
	<path fill="#FCFF00" stroke="#000000" stroke-miterlimit="10" d="M146.2,157.8c0,0,0,1.3,1.1,1.6c1.1,0.2,1.5-1.5,1.5-2
		c26.1-1.1,26.6-22.9,26.6-31.4s-3.9-17.6-10.6-17.6c-6.7,0-10.3,8-10.3,8v-2h-54v2c0,0-3-8-9.7-8s-10.3,9.1-10.3,17.6
		s0.6,30.2,26.8,31.4c0,0.5,0.4,2.1,1.5,2c1.1-0.3,1.2-1.6,1.2-1.6s4.8,5.4,10,5.7c0,2.8-0.2,6.7-0.2,6.7s1.8,2.8,3.8,2.9
		c0,0.7,0,1.5,0,1.5s-2.9,1.6-2.9,3.6s2.9,4.2,2.9,4.2v2.6c0,0-4,1.1-5,1.5c0,1.1,0,5.1,0,5.1l-2,1.6v4.2h-6v6h-1v11h-2v2.6
		c0,0-4-0.3-4,4.1s0,22.3,0,22.3h-1.2c0,0-4.2,4-2.5,11c6.5,0,50,0,56.5,0c1.8-7-2.5-11-2.5-11h-3.4c0,0,0-17.9,0-22.3s-2-4.1-2-4.1
		v-2.6h-4v-11h-2v-6h-4v-4.2l-2-1.6c0,0,0-3.9,0-5.1c0-0.3-4-1.5-4-1.5v-2.6c0,0,2.9-2.3,2.9-4.2s-2.9-3.6-2.9-3.6s0-0.8,0-1.5
		c3-0.2,3.8-2.9,3.8-2.9s-0.2-3.9-0.2-6.7C141.4,163.2,146.2,157.8,146.2,157.8z M154,123c1.6,0.2,2.6-1.4,1.6-4
		c0,0,3.8-7.2,8.2-7.4c4.4-0.2,7.6,3.8,8.4,16.8c1.2,26.8-22.4,27.4-24.8,27.4C154.6,145.6,154,123,154,123z M84,128.4
		c0.8-13,4-17,8.4-16.8s8.2,7.4,8.2,7.4c-1,2.6,0,4.2,1.6,4c0,0-0.6,22.6,6.6,32.8C106.4,155.8,82.8,155.2,84,128.4z"/>
	<path fill="#FFFFFF" d="M142.8,117h-19.6c0,0,1.6,22.9,2.8,28.3s11.6,5.7,13.4-1.3C141.2,137,142,120,142.8,117z"/>
	<polygon fill="#FFFFFF" points="127,165 133.3,165 133.2,171 127,171 	"/>
	<rect x="127" y="177" fill="#FFFFFF" width="4" height="2"/>
	<rect x="127" y="183" fill="#FFFFFF" width="4" height="2"/>
	<rect x="127" y="187" fill="#FFFFFF" width="6" height="5"/>
	<rect x="127" y="194" fill="#FFFFFF" width="7" height="3"/>
	<rect x="127" y="203" fill="#FFFFFF" width="9" height="2"/>
	<rect x="127" y="218" fill="#FFFFFF" width="12" height="2"/>
	<path fill="#FF9F00" d="M110,137.4c0.8,6.6,3.7,18.3,15,20.2c0.9,0.3-0.3,2.8-5.8,2.2s-12.2-7.1-13-22.4c0-3.9,1.6-4.9,1.6-4.9
		S110,133,110,137.4z"/>
	<path fill="#ABD100" d="M132,160c0,0,13.7-3.3,13.6-29.5c0-3.9,4.3-3.6,4.3-0.2C149.8,133.9,150.8,164.3,132,160z"/>
	<path fill="#FF9F00" d="M108,243v-22c0,0,0-1.7,1.3-1.7c2,0,1.7,0.9,1.7,2s0,21.7,0,21.7H108z"/>
	<path fill="#ABD100" d="M141,243c0,0,0-20.6,0-22s0.5-2.1,2.5-2.1s3.5,1.4,3.5,2.4s0,21.7,0,21.7L141,243L141,243z"/>
	<rect x="110.3" y="215.2" fill="#FF9F00" width="1.9" height="1.9"/>
	<rect x="111" y="204" fill="#FF9F00" width="4" height="10"/>
	<rect x="115" y="198" fill="#FF9F00" width="2" height="5"/>
	<rect x="118" y="194" fill="#FF9F00" width="3" height="3"/>
	<rect x="134" y="194" fill="#ABD100" width="2" height="3"/>
	<rect x="136" y="198" fill="#ABD100" width="3" height="4"/>
	<rect x="137" y="204" fill="#ABD100" width="6" height="10"/>
	<rect x="139" y="214" fill="#ABD100" width="4" height="3"/>
	<rect x="122" y="187" fill="#FF9F00" width="2" height="3"/>
	<rect x="133" y="187" fill="#ABD100" width="3" height="5"/>
	<path fill="#FF9F00" d="M121.2,168.1c0,0,0.2,1.5,1.3,2.4c0.6,0.5,1.3,1,2.8,0.6c-2.9,2.1-4.3-1-4.3-1S121,169.4,121.2,168.1z"/>
	<path fill="#FF9F00" d="M125.9,181.2c0,0-2-0.5-2.5-2.2c-0.6-0.8-2-0.2-1.7,0.6S122.8,181.4,125.9,181.2z"/>
	<path fill="#ABD100" d="M130.5,181.1c0,0,2-0.3,2.2-1.7s1.7-0.9,1.7,0.2C134.3,180.6,131.6,181.1,130.5,181.1z"/>
	<path fill="#ABD100" d="M131.7,172.1c0,0,1.6-0.2,1.6-2.2c0-1.3,1.7-1.4,1.8-0.1C135.1,171.2,132.8,172.4,131.7,172.1z"/>
	<line fill="none" stroke="#000000" stroke-miterlimit="10" x1="111" y1="203.5" x2="143" y2="203.5"/>
	<line fill="none" stroke="#000000" stroke-miterlimit="10" x1="116" y1="197.5" x2="138" y2="197.5"/>
	<line fill="none" stroke="#000000" stroke-miterlimit="10" x1="118" y1="192.5" x2="136" y2="192.5"/>
	<line fill="none" stroke="#000000" stroke-miterlimit="10" x1="119" y1="187.5" x2="136" y2="187.5"/>
	<line fill="none" stroke="#000000" stroke-miterlimit="10" x1="124" y1="181.5" x2="133" y2="181.5"/>
	<line fill="none" stroke="#000000" stroke-miterlimit="10" x1="124" y1="173.5" x2="132" y2="173.5"/>
	<line fill="none" stroke="#000000" stroke-miterlimit="10" x1="120" y1="164.5" x2="136" y2="164.5"/>
	<line fill="none" stroke="#000000" stroke-miterlimit="10" x1="110" y1="214.5" x2="145" y2="214.5"/>
	<line fill="none" stroke="#000000" stroke-miterlimit="10" x1="104" y1="243.5" x2="151" y2="243.5"/>
</g>
<g>
	<g>
		<g>
			<ellipse fill="#272A9B" stroke="#000000" stroke-miterlimit="10" cx="191.6" cy="65.2" rx="40.8" ry="40.6"/>
		</g>
	</g>
	<g>
		<g>
			<path fill="#FFFFFF" d="M190.1,66.4c-1.2-2.3,0-4.3,2.6-4.3c0,0,2.5,0,6,0.1c3.2,0.1,3.1-1.2,1.7-3.4c-2.7-4.1-8.1-5.6-12.5-3.5
				c-4.6,2.2-6.8,7.4-5.2,12.4c1.4,4.5,6.4,7.4,11.2,6.6c4.4-0.8,4,4,1.4,4.6c0,0-8.5,1.5-13.7-3.2c-5-4.5-6.5-12.3-3.5-18.3
				c3-5.9,10.3-9.5,16.7-8.2c7.5,1.5,12.6,7.2,12.9,14.4c0.1,1.6-0.1,2.9-2.1,2.9c-4.4,0-8.9,0.1-13.3-0.1
				C190.1,66.5,190.1,66.4,190.1,66.4z"/>
		</g>
		<g>
			<path fill="#FFFFFF" d="M218.1,69.5c0,0-0.6,4.3-3.2,8.6c-0.6,1-1,3.7-3.2,1.9c-1.5-1.2-3.4-2.2-1.7-4.9c3.2-5.2,3.8-10.9,2-16.8
				c-3.9-12.8-18.4-18.9-30-12.1c-2.9,1.7-4.4,0.8-5.5-1.2c-1.6-2.8,1.5-3,2.8-3.7c7.1-3.8,19.9-2.8,26.3,1
				C220.9,51.2,218.5,66.9,218.1,69.5z"/>
		</g>
		<g>
			<path fill="#FFFFFF" d="M165.4,68.6c-0.6-2.5,0.4-8.8,0.9-11.4c0,0,0.5-2.3,2.8-6.3c0.6-1.1,0.9-3.7,3.1-2.2
				c1.6,1.1,3.6,2.2,1.8,5.3c-4.4,7.5-4,15.1,0.9,22.3c6,9,17.7,11.8,27.2,6.6c1.2-0.7,2.3-2.4,4.1-0.6s3.2,2.9-0.2,4.7
				c-9.1,4.9-17.9,4.8-27.1,0.3C167.8,81.9,165.4,68.6,165.4,68.6z"/>
		</g>
	</g>
</g>
<g>
	<g>
		<g>
			<path fill="#FFFF00" d="M26.777,208.267h-5.69l-3.49-9.96v9.96h-7.063v-31.952h6.016l3.263,9.238l-0.001-9.238h6.965V208.267z
				 M23.215,205.267h0.562v-25.952h-0.965v7.976l0.312,7.836l-2.914,0.56l-5.782-16.371h-0.894v25.952h1.063v-8.88l-0.246-7.551
				l2.915-0.545L23.215,205.267z"/>
		</g>
		<g>
			<path fill="#FFFF00" d="M35.693,208.267h-7.409v-31.952h7.409V208.267z M31.284,205.267h1.409v-25.952h-1.409V205.267z"/>
		</g>
		<g>
			<path fill="#FFFF00" d="M50.103,208.267H37.2v-31.952h12.706v6.8h-5.297v5.423h5.034v6.718h-5.034v6.212h5.494V208.267z
				 M40.2,205.267h6.903v-0.8h-5.494v-12.212h5.034v-0.718h-5.034v-11.423h5.297v-0.8H40.2V205.267z"/>
		</g>
		<g>
			<path fill="#FFFF00" d="M58.457,208.267h-7.85v-31.952h7.998c2.609,0,4.568,0.832,5.823,2.473
				c1.16,1.519,1.748,3.692,1.748,6.463l0.016,13.06c0,3.269-0.564,5.65-1.724,7.285C63.209,207.367,61.187,208.267,58.457,208.267z
				 M53.607,205.267h4.85c1.726,0,2.892-0.461,3.564-1.408c0.766-1.079,1.17-2.997,1.17-5.547l-0.016-13.06
				c0-2.099-0.381-3.66-1.131-4.644c-0.666-0.87-1.791-1.294-3.439-1.294h-4.998C53.607,179.314,53.607,205.267,53.607,205.267z
				 M57.963,204.845h-2.948v-25.142h2.8c1.427,0,2.563,0.604,3.198,1.703c0.514,0.891,0.753,2.148,0.753,3.959l0.016,14.293
				c0,1.761-0.261,2.953-0.82,3.756C60.506,204.067,59.616,204.845,57.963,204.845z M58.016,182.712v19.132
				c0.259-0.005,0.422-0.055,0.487-0.147c0.011-0.016,0.28-0.42,0.28-2.036l-0.016-14.293c0-1.672-0.245-2.277-0.351-2.461
				C58.382,182.848,58.322,182.744,58.016,182.712z"/>
		</g>
		<g>
			<path fill="#FFFF00" d="M80.059,208.267H67.156v-31.952h12.706v6.8h-5.297v5.423h5.034v6.718h-5.034v6.212h5.494
				C80.059,201.468,80.059,208.267,80.059,208.267z M70.156,205.267h6.903v-0.8h-5.494v-12.212h5.034v-0.718h-5.034v-11.423h5.297
				v-0.8h-6.706C70.156,179.314,70.156,205.267,70.156,205.267z"/>
		</g>
		<g>
			<path fill="#FFFF00" d="M97.01,208.267h-7.549l-0.415-0.827c-0.223-0.442-0.324-0.645-0.324-11.053
				c0-1.023-0.108-1.471-0.162-1.629c-0.081-0.029-0.255-0.075-0.572-0.092v13.601h-7.409v-31.952h8.788
				c1.886,0,3.305,0.409,4.336,1.251c1.013,0.825,1.682,1.968,1.991,3.395c0.26,1.206,0.387,2.709,0.387,4.595
				c0,1.973-0.219,3.472-0.668,4.584c-0.193,0.478-0.451,0.904-0.768,1.277c0.317,0.407,0.598,0.92,0.815,1.564
				c0.458,1.36,0.67,3.841,0.67,7.807c0,4.144,0.071,5.252,0.105,5.543L97.01,208.267z M91.79,205.267h1.387
				c-0.028-0.933-0.045-2.335-0.045-4.479c0-4.631-0.322-6.279-0.514-6.85c-0.308-0.916-0.726-0.989-0.926-1.024l-0.193-2.908
				c0.581-0.183,0.931-0.489,1.134-0.991c0.205-0.507,0.45-1.519,0.45-3.459c0-1.646-0.107-2.979-0.32-3.96
				c-0.164-0.757-0.476-1.314-0.954-1.705c-0.461-0.376-1.306-0.575-2.44-0.575h-5.788v25.952h1.409v-13.741l2.984,0.139
				c1.387,0.032,2.409,0.465,3.003,1.283c0.516,0.71,0.747,1.771,0.747,3.439C91.722,201.474,91.755,204.008,91.79,205.267z
				 M88.265,191.175h-3.26v-11.472h2.997c1.919,0,2.769,0.818,3.143,1.505c0.4,0.735,0.578,1.905,0.578,3.795v0.182
				c0,1.356-0.058,2.358-0.177,3.062c-0.163,0.957-0.494,1.657-1.012,2.144C89.977,190.911,89.214,191.175,88.265,191.175z
				 M88.004,188.175h0.26c0.101,0,0.173-0.007,0.221-0.015c0.022-0.064,0.064-0.197,0.102-0.415
				c0.061-0.362,0.135-1.103,0.135-2.561v-0.182c0-1.4-0.115-2.017-0.177-2.248c-0.092-0.023-0.262-0.052-0.541-0.052V188.175z"/>
		</g>
		<g>
			<path fill="#FFFF00" d="M110.179,208.267H97.194v-31.952h7.409v25.202h5.577L110.179,208.267L110.179,208.267z M100.194,205.267
				h6.985v-0.75h-5.577v-25.202h-1.409L100.194,205.267L100.194,205.267z"/>
		</g>
		<g>
			<path fill="#FFFF00" d="M125.986,208.267h-7.17l-0.691-5.165h-2.03l-0.625,5.165h-7.303l4.417-30.976h-3.416v-6.718h7.639v5.741
				h0.323v-5.741h7.639v6.718h-3.484L125.986,208.267z M121.441,205.267h1.056l-3.938-25.952h-3.232l-3.701,25.952h1.186
				l0.625-5.165h7.314L121.441,205.267z M120.131,174.291h1.639v-0.718h-1.639V174.291z M112.169,174.291h1.639v-0.718h-1.639
				V174.291z M120.69,199.564h-7.191l2.144-17.542h2.706L120.69,199.564z M116.888,196.564h0.376l-0.196-1.47L116.888,196.564z"/>
		</g>
		<g>
			<path fill="#FFFF00" d="M142.011,208.267h-5.689l-3.491-9.961l0.001,9.961h-7.063v-31.952h6.016l3.264,9.238l-0.001-9.238h6.965
				v31.952H142.011z M138.448,205.267h0.562v-25.952h-0.965v7.976l0.312,7.836l-2.913,0.56l-5.782-16.371h-0.895v25.952h1.063v-8.88
				l-0.246-7.551l2.915-0.545L138.448,205.267z"/>
		</g>
		<g>
			<path fill="#FFFF00" d="M151.187,208.267h-7.85v-31.952h7.998c2.609,0,4.568,0.832,5.822,2.473
				c1.16,1.52,1.748,3.693,1.748,6.463l0.016,13.06c0,3.269-0.563,5.65-1.724,7.285
				C155.939,207.367,153.917,208.267,151.187,208.267z M146.337,205.267h4.85c1.726,0,2.892-0.461,3.563-1.408
				c0.767-1.079,1.171-2.997,1.171-5.547l-0.016-13.06c0-2.099-0.381-3.66-1.132-4.644c-0.665-0.87-1.79-1.294-3.438-1.294h-4.998
				V205.267z M150.693,204.845h-2.948v-25.142h2.8c1.427,0,2.562,0.604,3.198,1.702c0.515,0.892,0.753,2.149,0.753,3.96
				l0.017,14.293c0,1.761-0.261,2.953-0.82,3.756C153.235,204.067,152.345,204.845,150.693,204.845z M150.745,182.712v19.132
				c0.259-0.005,0.423-0.055,0.487-0.147c0.011-0.016,0.28-0.42,0.28-2.036l-0.017-14.293c0-1.673-0.245-2.278-0.351-2.461
				C151.112,182.848,151.052,182.744,150.745,182.712z"/>
		</g>
		<g>
			<path fill="#FFFF00" d="M167.459,208.267h-7.409v-31.952h7.409V208.267z M163.05,205.267h1.409v-25.952h-1.409V205.267z"/>
		</g>
		<g>
			<path fill="#FFFF00" d="M175.985,208.596c-2.819,0-4.848-0.967-6.029-2.873c-1.053-1.698-1.565-4.021-1.565-7.099v-4.083h5.324
				l-1.775-1.83c-1.105-1.154-1.977-2.37-2.596-3.621c-0.654-1.319-0.986-2.85-0.986-4.547c0-2.765,0.558-4.812,1.706-6.262
				c1.216-1.534,3.211-2.312,5.93-2.312c2.807,0,4.777,0.933,5.858,2.772c0.941,1.604,1.399,3.792,1.399,6.689v3.293h-4.687
				l1.048,1.135c1.297,1.405,2.296,2.859,2.967,4.324c0.696,1.517,1.05,3.188,1.05,4.968c0,3.054-0.536,5.3-1.639,6.867
				C180.788,207.729,178.768,208.596,175.985,208.596z M171.391,197.541v1.083c0,2.468,0.375,4.324,1.115,5.518
				c0.224,0.36,0.901,1.454,3.479,1.454c1.772,0,2.935-0.427,3.551-1.304c0.726-1.031,1.093-2.761,1.093-5.142
				c0-1.345-0.261-2.595-0.776-3.717c-0.539-1.177-1.361-2.367-2.444-3.54l-2.386-2.583c-0.886-0.947-1.499-1.731-1.868-2.392
				c-0.438-0.779-0.651-1.741-0.651-2.936c0-1.231,0.229-2.179,0.697-2.895c0.579-0.884,1.551-1.369,2.735-1.369
				c1.301,0,2.316,0.678,2.785,1.86c0.318,0.804,0.467,1.938,0.467,3.571v0.572h1.063v-0.293c0-2.316-0.332-4.056-0.986-5.171
				c-0.188-0.318-0.759-1.291-3.271-1.291c-1.756,0-2.96,0.396-3.578,1.176c-0.702,0.886-1.058,2.365-1.058,4.398
				c0,1.23,0.227,2.312,0.675,3.215c0.484,0.979,1.18,1.944,2.066,2.871l2.132,2.196c1.062,1.098,1.856,2.184,2.362,3.229
				c0.536,1.106,0.809,2.397,0.809,3.837c0,1.471-0.161,2.506-0.508,3.259c-0.285,0.625-1.041,1.68-2.867,1.68
				c-1.355,0-2.423-0.692-2.93-1.898c-0.36-0.86-0.528-2.124-0.528-3.978v-1.412h-1.178V197.541z M175.568,196.775v2.178
				c0,1.908,0.206,2.605,0.295,2.816c0.002,0.07,0.238,0.063,0.336,0.049c0.073-0.209,0.202-0.744,0.202-1.928
				c0-0.982-0.171-1.833-0.508-2.528C175.801,197.171,175.692,196.975,175.568,196.775z M175.947,182.726
				c-0.209,0-0.262,0.026-0.262,0.026c-0.01,0.032-0.183,0.341-0.183,1.231c0,0.819,0.146,1.251,0.269,1.47
				c0.08,0.144,0.209,0.344,0.416,0.615v-0.917C176.188,183.607,176.029,182.959,175.947,182.726z"/>
		</g>
		<g>
			<path fill="#FFFF00" d="M191.375,208.596c-2.63,0-4.649-0.927-6.002-2.754c-1.248-1.688-1.881-4.066-1.881-7.069v-12.618
				c0-4.919,1.428-8.092,4.245-9.431c1.031-0.49,2.266-0.738,3.67-0.738c2.84,0,7.604,1.195,7.604,9.199v5.48h-7.261v-5.201
				c0-1.699-0.172-2.389-0.274-2.649c0.073,0-0.143-0.014-0.188-0.004c-0.002,0.009-0.021,0.038-0.042,0.092
				c-0.117,0.277-0.312,0.976-0.312,2.545v13.522c0,1.775,0.188,2.497,0.299,2.77c0.014,0.034,0.026,0.057,0.035,0.072
				c0.008,0,0.036,0.001,0.074,0.001c0.033,0,0.057-0.002,0.073-0.004c0.003-0.013,0.017-0.038,0.032-0.077
				c0.113-0.28,0.303-1.02,0.303-2.812v-5.646h7.326v5.597c0,3.156-0.587,5.48-1.793,7.104
				C195.991,207.714,194.003,208.596,191.375,208.596z M191.407,178.985c-0.955,0-1.757,0.15-2.383,0.448
				c-1.68,0.798-2.532,3.06-2.532,6.721v12.618c0,2.347,0.435,4.125,1.293,5.285c0.766,1.035,1.94,1.538,3.59,1.538
				s2.795-0.461,3.5-1.409c0.797-1.073,1.201-2.861,1.201-5.315v-2.597h-1.326v2.646c0,1.802-0.165,3.051-0.52,3.932
				c-0.503,1.247-1.556,1.961-2.889,1.961c-1.329,0-2.381-0.705-2.885-1.935c-0.357-0.87-0.523-2.112-0.523-3.908v-13.522
				c0-1.62,0.178-2.832,0.545-3.705c0.516-1.233,1.578-1.94,2.912-1.94c1.351,0,2.398,0.698,2.877,1.915
				c0.329,0.834,0.482,2.025,0.482,3.747v2.201h1.261v-2.48C196.011,179.69,193.551,178.985,191.407,178.985z"/>
		</g>
		<g>
			<path fill="#FFFF00" d="M215.428,208.267h-7.408v-13.456h-0.948v13.456h-7.409v-31.952h7.409v11.713h0.948v-11.713h7.408V208.267
				z M211.02,205.267h1.408v-25.952h-1.408v11.713h-6.948v-11.713h-1.409v25.952h1.409v-13.456h6.948V205.267z"/>
		</g>
		<g>
			<path fill="#FFFF00" d="M229.673,208.267h-12.902v-31.952h12.705v6.8h-5.297v5.423h5.034v6.718h-5.034v6.212h5.494V208.267z
				 M219.771,205.267h6.902v-0.8h-5.494v-12.212h5.034v-0.718h-5.034v-11.423h5.297v-0.8h-6.705L219.771,205.267L219.771,205.267z"
				/>
		</g>
		<g>
			<path fill="#FFFF00" d="M246.625,208.267h-7.551l-0.415-0.829c-0.222-0.442-0.322-0.645-0.322-11.051
				c0-1.022-0.108-1.471-0.162-1.629c-0.081-0.029-0.255-0.075-0.572-0.092v13.601h-7.409v-31.952h8.788
				c1.86,0,3.319,0.421,4.337,1.251c1.013,0.827,1.682,1.969,1.989,3.396c0.261,1.202,0.388,2.705,0.388,4.594
				c0,1.972-0.219,3.471-0.668,4.583c-0.193,0.479-0.451,0.905-0.768,1.278c0.316,0.407,0.598,0.919,0.815,1.564
				c0.457,1.359,0.67,3.84,0.67,7.807c0,4.144,0.071,5.252,0.105,5.543L246.625,208.267z M241.404,205.267h1.386
				c-0.028-0.933-0.045-2.335-0.045-4.479c0-4.399-0.279-6.153-0.514-6.85c-0.309-0.916-0.726-0.989-0.927-1.024l-0.192-2.908
				c0.581-0.184,0.931-0.489,1.134-0.991c0.205-0.507,0.449-1.519,0.449-3.459c0-1.648-0.107-2.981-0.319-3.96
				c-0.163-0.757-0.476-1.314-0.954-1.705c-0.462-0.376-1.306-0.575-2.44-0.575h-5.788v25.952h1.409v-13.741l2.983,0.139
				c1.387,0.032,2.408,0.465,3.003,1.282c0.518,0.712,0.748,1.773,0.748,3.44C241.337,201.474,241.37,204.007,241.404,205.267z
				 M237.879,191.175h-3.26v-11.472h2.996c1.92,0,2.77,0.819,3.144,1.506c0.399,0.733,0.578,1.903,0.578,3.794v0.182
				c0,1.354-0.058,2.354-0.177,3.062c-0.163,0.958-0.494,1.658-1.013,2.145C239.59,190.912,238.828,191.175,237.879,191.175z
				 M237.619,188.175h0.26c0.102,0,0.174-0.007,0.222-0.015c0.021-0.064,0.064-0.197,0.102-0.415
				c0.062-0.364,0.135-1.106,0.135-2.561v-0.182c0-1.41-0.113-2.018-0.177-2.248c-0.092-0.023-0.261-0.052-0.541-0.052
				L237.619,188.175L237.619,188.175z"/>
		</g>
		<g>
			<path fill="#FFFF00" d="M33.378,242.267h-6.932v-5.364l-0.992,5.232h-5.979l-1.166-5.9v6.032H11.41v-31.952h8.214l2.831,14.56
				l2.66-14.56h8.262v31.952H33.378z M29.446,239.267h0.932v-25.952h-2.76l-3.641,19.925l-2.948,0.017l-3.876-19.941h-2.742v25.952
				h0.899v-9.291l-0.165-9.878l2.972-0.316l3.824,19.354h1.029l3.667-19.342l2.974,0.305l-0.165,9.903
				C29.446,230.003,29.446,239.267,29.446,239.267z"/>
		</g>
		<g>
			<path fill="#FFFF00" d="M47.64,242.267H34.737v-31.952h12.706v6.8h-5.297v5.423h5.034v6.718h-5.034v6.212h5.494V242.267z
				 M37.737,239.267h6.903v-0.8h-5.494v-12.212h5.034v-0.718h-5.034v-11.423h5.297v-0.8h-6.706V239.267z"/>
		</g>
		<g>
			<path fill="#FFFF00" d="M55.733,242.267h-7.409v-31.952h7.409V242.267z M51.325,239.267h1.409v-25.952h-1.409V239.267z"/>
		</g>
		<g>
			<path fill="#FFFF00" d="M64.26,242.596c-2.819,0-4.848-0.967-6.029-2.873c-1.054-1.699-1.566-4.021-1.566-7.099v-4.083h5.325
				l-1.776-1.83c-1.106-1.155-1.977-2.371-2.595-3.621c-0.654-1.319-0.986-2.85-0.986-4.547c0-2.766,0.558-4.813,1.707-6.262
				c1.216-1.534,3.21-2.312,5.929-2.312c2.807,0,4.778,0.933,5.858,2.772c0.941,1.604,1.399,3.792,1.399,6.689v3.293h-4.687
				l1.048,1.135c1.298,1.405,2.296,2.859,2.968,4.324c0.696,1.518,1.049,3.189,1.049,4.968c0,3.054-0.536,5.3-1.638,6.867
				C69.062,241.729,67.042,242.596,64.26,242.596z M59.665,231.541v1.083c0,2.467,0.375,4.324,1.116,5.519
				c0.223,0.359,0.9,1.453,3.479,1.453c1.773,0,2.935-0.427,3.552-1.305c0.725-1.03,1.092-2.76,1.092-5.141
				c0-1.344-0.261-2.595-0.776-3.717c-0.54-1.177-1.362-2.367-2.445-3.54l-2.385-2.583c-0.887-0.948-1.5-1.733-1.869-2.392
				c-0.438-0.781-0.651-1.742-0.651-2.936c0-1.23,0.228-2.178,0.698-2.895c0.578-0.883,1.549-1.369,2.735-1.369
				c1.301,0,2.316,0.678,2.785,1.86c0.319,0.805,0.467,1.939,0.467,3.571v0.572h1.063v-0.293c0-2.316-0.332-4.056-0.986-5.171
				c-0.188-0.318-0.759-1.291-3.271-1.291c-1.756,0-2.96,0.396-3.578,1.176c-0.702,0.885-1.058,2.365-1.058,4.398
				c0,1.23,0.227,2.312,0.674,3.216c0.484,0.978,1.179,1.942,2.067,2.87l2.132,2.196c1.062,1.098,1.856,2.184,2.362,3.229
				c0.536,1.106,0.808,2.397,0.808,3.837c0,1.469-0.161,2.504-0.507,3.258c-0.288,0.627-1.043,1.681-2.869,1.681
				c-1.355,0-2.422-0.692-2.929-1.898c-0.36-0.858-0.528-2.122-0.528-3.978v-1.412h-1.178V231.541z M63.843,230.775v2.178
				c0,1.909,0.206,2.605,0.294,2.815c0.002,0.072,0.24,0.065,0.337,0.049c0.073-0.207,0.202-0.743,0.202-1.927
				c0-0.982-0.171-1.833-0.508-2.528C64.076,231.171,63.967,230.975,63.843,230.775z M64.221,216.726
				c-0.208,0-0.261,0.026-0.261,0.026c-0.01,0.033-0.183,0.342-0.183,1.231c0,0.818,0.146,1.251,0.27,1.471
				c0.08,0.143,0.208,0.343,0.416,0.614v-0.917C64.462,217.608,64.304,216.96,64.221,216.726z"/>
		</g>
		<g>
			<path fill="#FFFF00" d="M81.001,242.267h-7.392v-25.136H70.22v-6.816h14.038v6.816h-3.257
				C81.001,217.131,81.001,242.267,81.001,242.267z M76.609,239.267h1.392v-25.136h3.257v-0.816H73.22v0.816h3.389V239.267z"/>
		</g>
		<g>
			<path fill="#FFFF00" d="M96.596,242.267H83.693v-31.952h12.706v6.8h-5.297v5.423h5.034v6.718h-5.034v6.212h5.494
				C96.596,235.468,96.596,242.267,96.596,242.267z M86.693,239.267h6.903v-0.8h-5.494v-12.212h5.034v-0.718h-5.034v-11.423h5.297
				v-0.8h-6.706C86.693,213.314,86.693,239.267,86.693,239.267z"/>
		</g>
		<g>
			<path fill="#FFFF00" d="M113.547,242.267h-7.549l-0.415-0.827c-0.223-0.442-0.324-0.645-0.324-11.053
				c0-1.023-0.108-1.471-0.162-1.629c-0.081-0.029-0.255-0.075-0.572-0.092v13.601h-7.409v-31.952h8.788
				c1.886,0,3.305,0.409,4.336,1.251c1.013,0.825,1.682,1.968,1.991,3.395c0.26,1.206,0.387,2.709,0.387,4.595
				c0,1.973-0.219,3.472-0.668,4.584c-0.193,0.478-0.451,0.904-0.768,1.277c0.317,0.407,0.598,0.92,0.815,1.564
				c0.458,1.36,0.67,3.841,0.67,7.807c0,4.144,0.071,5.252,0.105,5.543L113.547,242.267z M108.327,239.267h1.387
				c-0.028-0.933-0.045-2.335-0.045-4.479c0-4.631-0.322-6.279-0.514-6.85c-0.308-0.916-0.726-0.989-0.926-1.024l-0.193-2.908
				c0.581-0.183,0.931-0.489,1.134-0.991c0.205-0.507,0.45-1.519,0.45-3.459c0-1.646-0.107-2.979-0.32-3.96
				c-0.164-0.757-0.476-1.314-0.954-1.705c-0.461-0.376-1.306-0.575-2.44-0.575h-5.788v25.952h1.409v-13.741l2.984,0.139
				c1.387,0.032,2.409,0.465,3.003,1.283c0.516,0.71,0.747,1.771,0.747,3.439C108.259,235.474,108.292,238.008,108.327,239.267z
				 M104.802,225.175h-3.26v-11.472h2.997c1.919,0,2.769,0.818,3.143,1.505c0.4,0.735,0.578,1.905,0.578,3.795v0.182
				c0,1.356-0.058,2.358-0.177,3.062c-0.163,0.957-0.494,1.657-1.012,2.144C106.514,224.911,105.751,225.175,104.802,225.175z
				 M104.542,222.175h0.26c0.101,0,0.173-0.007,0.221-0.015c0.022-0.064,0.064-0.197,0.102-0.415
				c0.061-0.362,0.135-1.103,0.135-2.561v-0.182c0-1.4-0.115-2.017-0.177-2.248c-0.092-0.023-0.262-0.052-0.541-0.052V222.175z"/>
		</g>
		<g>
			<path fill="#FFFF00" d="M127.897,244.126h-1.5c-1.205,0-2.178-0.101-2.975-0.308c-0.923-0.24-1.722-0.691-2.372-1.342
				c-0.658-0.657-1.119-1.528-1.37-2.589c-0.215-0.908-0.32-2.021-0.32-3.4v-14.506c0-1.378,0.105-2.491,0.321-3.401
				c0.25-1.058,0.711-1.929,1.369-2.588c0.648-0.648,1.446-1.1,2.371-1.341c0.799-0.208,1.772-0.309,2.977-0.309h1.5v5.734h-1.5
				c-0.121,0-0.212,0.007-0.28,0.016c-0.048,0.242-0.121,0.779-0.121,1.834v14.615c0,1.047,0.071,1.584,0.123,1.834
				c0.067,0.009,0.158,0.016,0.278,0.016h1.5L127.897,244.126L127.897,244.126z M124.566,217.472
				c-0.14,0.023-0.269,0.052-0.389,0.083c-0.406,0.105-0.735,0.289-1.005,0.559c-0.258,0.259-0.451,0.648-0.572,1.158
				c-0.159,0.672-0.24,1.583-0.24,2.71v14.506c0,1.127,0.081,2.039,0.24,2.709c0.121,0.511,0.313,0.9,0.571,1.158
				c0.271,0.271,0.6,0.455,1.005,0.56c0.12,0.031,0.25,0.06,0.389,0.083c-0.537-0.283-0.857-0.676-1.049-1.031
				c-0.364-0.678-0.52-1.702-0.52-3.424v-14.615c0-1.722,0.156-2.746,0.521-3.425C123.708,218.147,124.029,217.755,124.566,217.472z
				"/>
		</g>
		<g>
			<path fill="#FFFF00" d="M139.095,242.267h-11.23v-27.062h11.066v6.158h-4.402v4h4.184v6.09h-4.184v4.656h4.566V242.267z
				 M130.864,239.267h5.23v-0.158h-4.566v-10.656h4.184v-0.09h-4.184v-10h4.402v-0.158h-5.066V239.267z"/>
		</g>
		<g>
			<path fill="#FFFF00" d="M153.303,242.267h-6.805l-0.415-0.829c-0.215-0.43-0.295-0.59-0.295-9.298
				c0-0.621-0.049-0.969-0.088-1.146c-0.005-0.001-0.01-0.002-0.016-0.003v11.275h-6.664v-27.062h7.557
				c1.629,0,2.86,0.358,3.765,1.097c0.886,0.723,1.472,1.72,1.741,2.964c0.221,1.02,0.328,2.286,0.328,3.872
				c0,1.672-0.188,2.949-0.574,3.905c-0.146,0.359-0.331,0.687-0.556,0.979c0.245,0.35,0.447,0.753,0.601,1.207
				c0.245,0.729,0.57,2.201,0.57,6.569c0,3.312,0.055,4.272,0.083,4.546L153.303,242.267z M148.838,239.267h0.646
				c-0.02-0.777-0.031-1.881-0.031-3.47c0-3.812-0.26-5.153-0.414-5.612c-0.208-0.618-0.447-0.66-0.575-0.683l-0.189-2.908
				c0.414-0.13,0.641-0.326,0.782-0.677c0.162-0.4,0.355-1.209,0.355-2.78c0-1.351-0.088-2.44-0.26-3.237
				c-0.124-0.571-0.354-0.987-0.706-1.274c-0.308-0.251-0.899-0.398-1.677-0.418c0.824,0.262,1.269,0.758,1.508,1.196
				c0.359,0.658,0.512,1.638,0.512,3.275v0.15c0,1.146-0.05,1.993-0.151,2.59c-0.145,0.852-0.445,1.481-0.919,1.924
				c-0.401,0.377-0.92,0.607-1.543,0.688c0.859,0.145,1.517,0.514,1.943,1.102c0.464,0.639,0.67,1.566,0.67,3.008
				C148.788,236.068,148.812,238.157,148.838,239.267z M142.021,239.267h0.664v-11.433l0.014,0.001v-9.631h-0.678L142.021,239.267
				L142.021,239.267z M145.698,221.114v3.678c0.045-0.325,0.09-0.914,0.09-1.963v-0.15
				C145.788,221.864,145.741,221.384,145.698,221.114z"/>
		</g>
		<g>
			<path fill="#FFFF00" d="M164.06,242.267h-11.23v-27.062h11.066v6.158h-4.402v4h4.184v6.09h-4.184v4.656h4.566V242.267z
				 M155.829,239.267h5.23v-0.158h-4.566v-10.656h4.184v-0.09h-4.184v-10h4.402v-0.158h-5.066V239.267z"/>
		</g>
		<g>
			<path fill="#FFFF00" d="M170.749,242.267h-6.777v-27.062h6.9c2.251,0,3.946,0.725,5.04,2.154
				c1.013,1.325,1.505,3.132,1.505,5.525l0.014,10.854c0,2.771-0.484,4.799-1.479,6.202
				C174.856,241.483,173.105,242.267,170.749,242.267z M166.972,239.267h0.664v-21.062h-0.664V239.267z M171.504,218.233
				c0.678,0.245,1.224,0.697,1.59,1.329c0.45,0.779,0.659,1.865,0.659,3.417l0.014,11.879c0,1.519-0.231,2.556-0.729,3.268
				c-0.271,0.388-0.71,0.824-1.397,1.079c1.289-0.191,1.708-0.782,1.863-1.001c0.423-0.597,0.927-1.854,0.927-4.465l-0.014-10.854
				c0-1.688-0.299-2.935-0.888-3.705C173.366,218.968,172.912,218.373,171.504,218.233z M170.636,221.501v14.767
				c0.049-0.183,0.131-0.598,0.131-1.407l-0.014-11.879C170.753,222.262,170.696,221.795,170.636,221.501z"/>
		</g>
		<g>
			<path fill="#FFFF00" d="M184.526,242.267h-6.664v-27.062h6.664V242.267z M180.862,239.267h0.664v-21.062h-0.664V239.267z"/>
		</g>
		<g>
			<path fill="#FFFF00" d="M195.292,242.267h-7.111l-4.198-27.062h6.536l1.176,8.126l0.98-8.126h6.478L195.292,242.267z
				 M190.751,239.267h1.939l0.361-2.537h-2.516l-0.262-1.312l-0.971-7.656l-1.383-9.558h-0.437L190.751,239.267z M195.335,218.204
				l-1.153,9.549l-0.486,4.463l1.998-14.012H195.335z"/>
		</g>
		<g>
			<path fill="#FFFF00" d="M205.28,242.267h-6.664v-27.062h6.664V242.267z M201.616,239.267h0.664v-21.062h-0.664V239.267z"/>
		</g>
		<g>
			<path fill="#FFFF00" d="M212.113,242.54c-3.035,0-4.518-1.363-5.227-2.508c-0.9-1.453-1.339-3.427-1.339-6.033v-3.646h4.081
				l-1.06-1.092c-0.938-0.979-1.678-2.011-2.203-3.073c-0.562-1.135-0.846-2.444-0.846-3.892c0-2.356,0.481-4.109,1.473-5.361
				c1.062-1.339,2.786-2.018,5.127-2.018c3.025,0,4.437,1.32,5.087,2.429c0.807,1.373,1.198,3.233,1.198,5.688v2.99h-3.569
				l0.478,0.518c1.098,1.188,1.942,2.42,2.511,3.659c0.595,1.297,0.896,2.722,0.896,4.235c0,2.593-0.461,4.508-1.408,5.854
				C216.262,241.783,214.513,242.54,212.113,242.54z M208.548,233.353v0.646c0,2.003,0.299,3.501,0.889,4.452
				c0.167,0.27,0.675,1.089,2.677,1.089c2.059,0,2.575-0.734,2.745-0.977c0.393-0.559,0.861-1.728,0.861-4.127
				c0-1.079-0.209-2.083-0.622-2.984c-0.437-0.952-1.105-1.919-1.988-2.875l-1.981-2.146c-0.751-0.803-1.272-1.471-1.589-2.036
				c-0.386-0.688-0.573-1.527-0.573-2.563c0-1.074,0.203-1.907,0.621-2.545c0.529-0.808,1.412-1.252,2.485-1.252
				c1.191,0,2.121,0.622,2.55,1.707c0.277,0.7,0.406,1.672,0.406,3.061v0.223h0.377c-0.001-1.875-0.265-3.274-0.785-4.159
				c-0.137-0.234-0.557-0.948-2.5-0.948c-1.378,0-2.312,0.297-2.775,0.881c-0.539,0.681-0.824,1.891-0.824,3.498
				c0,0.982,0.18,1.844,0.535,2.562c0.39,0.788,0.953,1.569,1.673,2.32l1.771,1.825c0.903,0.934,1.578,1.858,2.01,2.749
				c0.463,0.955,0.697,2.065,0.697,3.3c0,1.26-0.142,2.153-0.444,2.813c-0.45,0.98-1.403,1.544-2.614,1.544
				c-1.234,0-2.207-0.632-2.669-1.733c-0.312-0.745-0.458-1.826-0.458-3.403v-0.92h-0.475V233.353z M212.021,233.615v0.657
				c0,0.961,0.063,1.536,0.125,1.866c0.033-0.24,0.061-0.59,0.061-1.087C212.206,234.521,212.144,234.04,212.021,233.615z
				 M211.973,221.562c-0.004,0.08-0.007,0.17-0.007,0.269c0,0.306,0.025,0.536,0.061,0.709
				C212.021,222.128,211.999,221.809,211.973,221.562z"/>
		</g>
		<g>
			<path fill="#FFFF00" d="M225.2,242.267h-6.664v-27.062h6.664V242.267z M221.536,239.267h0.664v-21.062h-0.664V239.267z"/>
		</g>
		<g>
			<path fill="#FFFF00" d="M237.177,242.267h-11.23v-27.062h11.066v6.158h-4.402v4h4.184v6.09h-4.184v4.656h4.566V242.267z
				 M228.946,239.267h5.23v-0.158h-4.566v-10.656h4.184v-0.09h-4.184v-10h4.402v-0.158h-5.066V239.267z"/>
		</g>
		<g>
			<path fill="#FFFF00" d="M237.974,244.126h-1.5v-5.734h1.5c0.121,0,0.213-0.007,0.279-0.016c0.049-0.242,0.121-0.78,0.121-1.834
				v-14.615c0-1.046-0.071-1.583-0.123-1.834c-0.066-0.009-0.157-0.016-0.277-0.016h-1.5v-5.734h1.5
				c1.204,0,2.178,0.101,2.975,0.308c0.928,0.243,1.725,0.695,2.37,1.347c0.651,0.658,1.108,1.527,1.358,2.583
				c0.216,0.913,0.32,2.025,0.32,3.401v14.506c0,1.377-0.104,2.489-0.32,3.401c-0.25,1.057-0.707,1.927-1.358,2.583
				c-0.647,0.653-1.444,1.105-2.37,1.347C240.151,244.025,239.178,244.126,237.974,244.126z M239.805,217.471
				c0.537,0.283,0.858,0.677,1.049,1.032c0.365,0.68,0.521,1.703,0.521,3.424v14.615c0,1.721-0.155,2.744-0.521,3.424
				c-0.19,0.355-0.512,0.748-1.049,1.031c0.14-0.023,0.27-0.052,0.39-0.083c0.402-0.104,0.728-0.285,0.993-0.554
				c0.257-0.26,0.448-0.65,0.569-1.162c0.159-0.674,0.24-1.585,0.24-2.711v-14.506c0-1.125-0.081-2.037-0.24-2.711
				c-0.121-0.511-0.312-0.902-0.57-1.163c-0.265-0.267-0.59-0.448-0.994-0.554C240.073,217.522,239.943,217.495,239.805,217.471z"/>
		</g>
	</g>
	<g>
		<g>
			<path d="M12.034,206.767v-28.952h3.455l6.136,17.371l-0.312-7.896v-9.476h3.965v28.952h-3.126l-6.3-17.979l0.247,7.6v10.38
				L12.034,206.767L12.034,206.767z"/>
		</g>
		<g>
			<path d="M29.784,206.767v-28.952h4.409v28.952H29.784z"/>
		</g>
		<g>
			<path d="M38.7,206.767v-28.952h9.706v3.8h-5.297v8.423h5.034v3.718h-5.034v9.212h5.494v3.8H38.7V206.767z"/>
		</g>
		<g>
			<path d="M52.107,206.767v-28.952h6.498c2.127,0,3.671,0.628,4.631,1.884c0.959,1.256,1.439,3.106,1.439,5.552l0.016,13.062
				c0,2.917-0.482,5.056-1.447,6.415c-0.965,1.36-2.561,2.04-4.787,2.04L52.107,206.767L52.107,206.767z M56.516,203.345h1.448
				c0.812,0,1.401-0.263,1.769-0.789c0.367-0.526,0.551-1.491,0.551-2.896l-0.016-14.295c0-1.503-0.184-2.571-0.551-3.208
				c-0.368-0.636-1.001-0.954-1.9-0.954h-1.3L56.516,203.345L56.516,203.345z"/>
		</g>
		<g>
			<path d="M68.656,206.767v-28.952h9.706v3.8h-5.297v8.423h5.034v3.718h-5.034v9.212h5.494v3.8h-9.903V206.767z"/>
		</g>
		<g>
			<path d="M87.902,193.162l-1.415-0.065v13.67h-4.409v-28.952h7.288c1.513,0,2.643,0.305,3.389,0.913s1.236,1.459,1.472,2.55
				s0.354,2.517,0.354,4.277s-0.187,3.101-0.559,4.021c-0.373,0.922-1.064,1.541-2.073,1.859c0.998,0.175,1.694,0.85,2.089,2.023
				c0.395,1.173,0.592,3.616,0.592,7.328c0,3.713,0.055,5.706,0.164,5.979h-4.408c-0.11-0.219-0.165-3.679-0.165-10.38
				c0-1.283-0.154-2.136-0.461-2.558C89.454,193.406,88.834,193.185,87.902,193.162z M86.504,189.675h1.76
				c0.559,0,0.973-0.126,1.242-0.378s0.455-0.686,0.56-1.3c0.104-0.614,0.156-1.552,0.156-2.812v-0.182
				c0-1.567-0.132-2.593-0.395-3.076c-0.263-0.482-0.872-0.724-1.826-0.724h-1.497V189.675z"/>
		</g>
		<g>
			<path d="M98.694,206.767v-28.952h4.409v25.202h5.577v3.75H98.694z"/>
		</g>
		<g>
			<path d="M109.896,206.767l4.129-28.952h5.823l4.393,28.952h-4.113l-0.691-5.165h-4.672l-0.625,5.165H109.896z M110.669,175.791
				v-3.718h4.639v3.718H110.669z M118.977,198.064l-1.941-14.542h-0.065l-1.777,14.542H118.977z M118.631,175.791v-3.718h4.639
				v3.718H118.631z"/>
		</g>
		<g>
			<path d="M127.268,206.767v-28.952h3.455l6.136,17.371l-0.312-7.896v-9.476h3.965v28.952h-3.126l-6.301-17.979l0.247,7.6v10.38
				L127.268,206.767L127.268,206.767z"/>
		</g>
		<g>
			<path d="M144.837,206.767v-28.952h6.498c2.127,0,3.671,0.628,4.631,1.884c0.959,1.256,1.439,3.106,1.439,5.552l0.016,13.062
				c0,2.917-0.482,5.056-1.447,6.415c-0.965,1.36-2.561,2.04-4.787,2.04L144.837,206.767L144.837,206.767z M149.245,203.345h1.448
				c0.812,0,1.4-0.263,1.769-0.789c0.367-0.526,0.551-1.491,0.551-2.896l-0.017-14.295c0-1.503-0.184-2.571-0.551-3.208
				c-0.368-0.636-1.001-0.954-1.9-0.954h-1.3V203.345z"/>
		</g>
		<g>
			<path d="M161.55,206.767v-28.952h4.409v28.952H161.55z"/>
		</g>
		<g>
			<path d="M169.891,198.624v-2.583h4.178v2.912c0,1.612,0.138,2.744,0.411,3.396c0.274,0.653,0.79,0.979,1.547,0.979
				s1.259-0.269,1.505-0.807c0.247-0.537,0.37-1.414,0.37-2.632c0-1.217-0.22-2.278-0.658-3.183s-1.135-1.852-2.089-2.838
				l-2.139-2.204c-0.998-1.042-1.773-2.122-2.327-3.241c-0.555-1.118-0.831-2.412-0.831-3.882c0-2.391,0.461-4.168,1.382-5.33
				s2.506-1.744,4.754-1.744s3.77,0.678,4.565,2.032s1.192,3.331,1.192,5.93v1.793h-4.063v-2.072c0-1.403-0.12-2.41-0.361-3.019
				s-0.705-0.913-1.391-0.913s-1.179,0.23-1.48,0.69c-0.302,0.461-0.452,1.152-0.452,2.073s0.153,1.656,0.461,2.204
				c0.307,0.549,0.86,1.25,1.661,2.105l2.385,2.583c1.195,1.294,2.098,2.604,2.706,3.932c0.609,1.327,0.913,2.774,0.913,4.343
				c0,2.709-0.455,4.71-1.365,6.004c-0.91,1.295-2.503,1.941-4.778,1.941c-2.276,0-3.86-0.721-4.754-2.163
				C170.337,203.49,169.891,201.388,169.891,198.624z"/>
		</g>
		<g>
			<path d="M196.079,205.081c-0.998,1.343-2.566,2.015-4.704,2.015c-2.139,0-3.737-0.716-4.796-2.146
				c-1.059-1.432-1.587-3.49-1.587-6.177v-12.618c0-4.31,1.129-7.002,3.389-8.076c0.833-0.396,1.842-0.593,3.026-0.593
				c4.068,0,6.104,2.566,6.104,7.699v3.98h-4.261v-3.701c0-1.491-0.126-2.558-0.379-3.199c-0.252-0.642-0.745-0.963-1.48-0.963
				c-0.734,0-1.244,0.34-1.529,1.021c-0.285,0.68-0.428,1.722-0.428,3.125v13.522c0,1.557,0.137,2.67,0.411,3.339
				s0.773,1.004,1.497,1.004s1.223-0.34,1.497-1.021c0.273-0.68,0.411-1.804,0.411-3.372v-4.146h4.326v4.097
				C197.576,201.667,197.077,203.737,196.079,205.081z"/>
		</g>
		<g>
			<path d="M201.162,206.767v-28.952h4.409v11.713h3.948v-11.713h4.408v28.952h-4.408v-13.456h-3.948v13.456H201.162z"/>
		</g>
		<g>
			<path d="M218.271,206.767v-28.952h9.705v3.8h-5.297v8.423h5.034v3.718h-5.034v9.212h5.494v3.8h-9.902V206.767z"/>
		</g>
		<g>
			<path d="M237.517,193.162l-1.414-0.065v13.67h-4.409v-28.952h7.288c1.513,0,2.643,0.305,3.389,0.913
				c0.745,0.608,1.236,1.459,1.472,2.55c0.236,1.091,0.354,2.517,0.354,4.277s-0.187,3.101-0.559,4.021
				c-0.373,0.922-1.064,1.541-2.073,1.859c0.998,0.175,1.694,0.85,2.09,2.023c0.395,1.173,0.592,3.616,0.592,7.328
				c0,3.713,0.055,5.706,0.164,5.979h-4.408c-0.109-0.219-0.164-3.679-0.164-10.38c0-1.283-0.154-2.136-0.461-2.558
				C239.068,193.406,238.449,193.185,237.517,193.162z M236.119,189.675h1.76c0.56,0,0.973-0.126,1.242-0.378s0.455-0.686,0.56-1.3
				c0.104-0.614,0.156-1.552,0.156-2.812v-0.182c0-1.567-0.132-2.593-0.396-3.076c-0.263-0.482-0.871-0.724-1.826-0.724h-1.496
				V189.675z"/>
		</g>
		<g>
			<path d="M12.911,240.767v-28.952h5.478l4.112,21.155l3.866-21.155h5.511v28.952h-3.932v-10.791l0.165-9.903l-3.899,20.562h-3.504
				l-4.063-20.562l0.165,9.903v10.791H12.911z"/>
		</g>
		<g>
			<path d="M36.237,240.767v-28.952h9.706v3.8h-5.297v8.423h5.034v3.718h-5.034v9.212h5.494v3.8h-9.903V240.767z"/>
		</g>
		<g>
			<path d="M49.825,240.767v-28.952h4.409v28.952H49.825z"/>
		</g>
		<g>
			<path d="M58.165,232.624v-2.583h4.178v2.912c0,1.612,0.137,2.744,0.411,3.396c0.274,0.653,0.79,0.979,1.546,0.979
				c0.757,0,1.259-0.269,1.505-0.807c0.247-0.537,0.37-1.414,0.37-2.632c0-1.217-0.22-2.278-0.658-3.183
				c-0.438-0.905-1.135-1.852-2.089-2.838l-2.139-2.204c-0.998-1.042-1.774-2.122-2.328-3.241c-0.554-1.118-0.831-2.412-0.831-3.882
				c0-2.391,0.46-4.168,1.382-5.33c0.921-1.162,2.505-1.744,4.754-1.744c2.248,0,3.77,0.678,4.565,2.032
				c0.795,1.354,1.192,3.331,1.192,5.93v1.793H65.96v-2.072c0-1.403-0.121-2.41-0.362-3.019s-0.705-0.913-1.39-0.913
				c-0.686,0-1.179,0.23-1.48,0.69c-0.302,0.461-0.453,1.152-0.453,2.073s0.154,1.656,0.461,2.204
				c0.307,0.549,0.861,1.25,1.661,2.105l2.385,2.583c1.195,1.294,2.098,2.604,2.706,3.932c0.609,1.327,0.913,2.774,0.913,4.343
				c0,2.709-0.455,4.71-1.365,6.004c-0.911,1.295-2.503,1.941-4.779,1.941s-3.86-0.721-4.754-2.163
				C58.612,237.49,58.165,235.388,58.165,232.624z"/>
		</g>
		<g>
			<path d="M75.109,240.767v-25.136H71.72v-3.816h11.038v3.816h-3.257v25.136H75.109z"/>
		</g>
		<g>
			<path d="M85.193,240.767v-28.952h9.706v3.8h-5.297v8.423h5.034v3.718h-5.034v9.212h5.494v3.8h-9.903V240.767z"/>
		</g>
		<g>
			<path d="M104.439,227.162l-1.415-0.065v13.67h-4.409v-28.952h7.288c1.513,0,2.643,0.305,3.389,0.913s1.236,1.459,1.472,2.55
				s0.354,2.517,0.354,4.277s-0.187,3.101-0.559,4.021c-0.373,0.922-1.064,1.541-2.073,1.859c0.998,0.175,1.694,0.85,2.089,2.023
				c0.395,1.173,0.592,3.616,0.592,7.328c0,3.713,0.055,5.706,0.164,5.979h-4.408c-0.11-0.219-0.165-3.679-0.165-10.38
				c0-1.283-0.154-2.136-0.461-2.558C105.991,227.406,105.372,227.185,104.439,227.162z M103.042,223.675h1.76
				c0.559,0,0.973-0.126,1.242-0.378s0.455-0.686,0.56-1.3c0.104-0.614,0.156-1.552,0.156-2.812v-0.182
				c0-1.567-0.132-2.593-0.395-3.076c-0.263-0.482-0.872-0.724-1.826-0.724h-1.497V223.675z"/>
		</g>
		<g>
			<path d="M126.397,242.626c-1.066,0-1.933-0.087-2.598-0.26c-0.666-0.173-1.229-0.49-1.688-0.95
				c-0.46-0.46-0.784-1.084-0.971-1.873c-0.187-0.788-0.28-1.807-0.28-3.056v-14.506c0-1.248,0.093-2.267,0.28-3.056
				c0.187-0.788,0.51-1.412,0.971-1.873c0.46-0.46,1.023-0.776,1.688-0.95c0.665-0.173,1.531-0.26,2.598-0.26v2.734
				c-0.812,0-1.331,0.212-1.559,0.636s-0.342,1.329-0.342,2.714v14.615c0,1.386,0.114,2.29,0.342,2.714
				c0.228,0.424,0.747,0.636,1.559,0.636V242.626z"/>
		</g>
		<g>
			<path d="M129.364,240.767v-24.062h8.066v3.158h-4.402v7h4.184v3.09h-4.184v7.656h4.566v3.158L129.364,240.767L129.364,240.767z"
				/>
		</g>
		<g>
			<path d="M145.36,229.46l-1.176-0.055v11.361h-3.664v-24.062h6.057c1.258,0,2.196,0.253,2.816,0.759s1.027,1.213,1.224,2.119
				c0.196,0.907,0.294,2.092,0.294,3.555s-0.155,2.577-0.465,3.343s-0.884,1.281-1.723,1.545c0.829,0.146,1.408,0.707,1.736,1.682
				c0.328,0.976,0.492,3.006,0.492,6.091c0,3.086,0.046,4.742,0.137,4.97h-3.664c-0.091-0.182-0.137-3.058-0.137-8.627
				c0-1.066-0.128-1.774-0.383-2.126C146.65,229.663,146.135,229.479,145.36,229.46z M144.198,226.562h1.463
				c0.465,0,0.809-0.104,1.032-0.314c0.224-0.209,0.378-0.569,0.465-1.08c0.087-0.51,0.13-1.289,0.13-2.338v-0.15
				c0-1.303-0.109-2.155-0.328-2.557c-0.219-0.4-0.725-0.602-1.518-0.602h-1.244L144.198,226.562L144.198,226.562z"/>
		</g>
		<g>
			<path d="M154.329,240.767v-24.062h8.066v3.158h-4.402v7h4.184v3.09h-4.184v7.656h4.566v3.158L154.329,240.767L154.329,240.767z"
				/>
		</g>
		<g>
			<path d="M165.472,240.767v-24.062h5.4c1.769,0,3.051,0.522,3.849,1.565c0.798,1.044,1.196,2.582,1.196,4.614l0.014,10.855
				c0,2.425-0.401,4.202-1.203,5.332c-0.802,1.131-2.128,1.695-3.979,1.695L165.472,240.767L165.472,240.767z M169.136,237.923
				h1.203c0.675,0,1.164-0.219,1.47-0.656s0.458-1.239,0.458-2.406l-0.014-11.881c0-1.248-0.152-2.137-0.458-2.666
				c-0.306-0.528-0.832-0.793-1.579-0.793h-1.08V237.923z"/>
		</g>
		<g>
			<path d="M179.362,240.767v-24.062h3.664v24.062H179.362z"/>
		</g>
		<g>
			<path d="M189.466,240.767l-3.732-24.062h3.486l1.572,10.869l0.971,7.656h0.096l0.834-7.656l1.312-10.869h3.418l-3.432,24.062
				H189.466z"/>
		</g>
		<g>
			<path d="M200.116,240.767v-24.062h3.664v24.062H200.116z"/>
		</g>
		<g>
			<path d="M207.048,233.999v-2.146h3.473v2.42c0,1.34,0.114,2.281,0.342,2.823c0.228,0.543,0.656,0.813,1.285,0.813
				s1.046-0.223,1.251-0.67c0.205-0.446,0.308-1.176,0.308-2.188s-0.183-1.894-0.547-2.646s-0.943-1.538-1.736-2.358l-1.777-1.832
				c-0.829-0.865-1.475-1.764-1.935-2.693s-0.69-2.005-0.69-3.227c0-1.986,0.383-3.463,1.148-4.43
				c0.766-0.966,2.083-1.449,3.951-1.449s3.133,0.563,3.794,1.688c0.661,1.126,0.991,2.769,0.991,4.929v1.49h-3.377V222.8
				c0-1.166-0.101-2.003-0.301-2.509s-0.586-0.759-1.155-0.759s-0.979,0.191-1.23,0.574s-0.376,0.957-0.376,1.723
				s0.128,1.377,0.383,1.832c0.255,0.456,0.716,1.039,1.381,1.75l1.982,2.146c0.993,1.076,1.743,2.165,2.249,3.268
				c0.506,1.104,0.759,2.307,0.759,3.609c0,2.252-0.378,3.915-1.135,4.99c-0.757,1.076-2.08,1.613-3.972,1.613
				s-3.208-0.599-3.951-1.798C207.419,238.044,207.048,236.296,207.048,233.999z"/>
		</g>
		<g>
			<path d="M220.036,240.767v-24.062h3.664v24.062H220.036z"/>
		</g>
		<g>
			<path d="M227.446,240.767v-24.062h8.066v3.158h-4.402v7h4.184v3.09h-4.184v7.656h4.566v3.158L227.446,240.767L227.446,240.767z"
				/>
		</g>
		<g>
			<path d="M237.974,242.626v-2.734c0.812,0,1.331-0.212,1.559-0.636s0.342-1.328,0.342-2.714v-14.615
				c0-1.385-0.114-2.29-0.342-2.714s-0.747-0.636-1.559-0.636v-2.734c1.066,0,1.933,0.087,2.598,0.26
				c0.665,0.174,1.226,0.49,1.682,0.95c0.456,0.461,0.777,1.085,0.964,1.873c0.187,0.789,0.28,1.808,0.28,3.056v14.506
				c0,1.249-0.094,2.268-0.28,3.056c-0.187,0.789-0.508,1.413-0.964,1.873s-1.017,0.777-1.682,0.95S239.04,242.626,237.974,242.626z
				"/>
		</g>
	</g>
</g>
</svg>
