<?xml version="1.0" encoding="utf-8"?>
<!-- Generator: Adobe Illustrator 17.0.0, SVG Export Plug-In . SVG Version: 6.00 Build 0)  -->
<!DOCTYPE svg PUBLIC "-//W3C//DTD SVG 1.1//EN" "http://www.w3.org/Graphics/SVG/1.1/DTD/svg11.dtd">
<svg version="1.1" id="Layer_1" xmlns="http://www.w3.org/2000/svg" xmlns:xlink="http://www.w3.org/1999/xlink" x="0px" y="0px"
	 width="256px" height="256px" viewBox="0 0 256 256" enable-background="new 0 0 256 256" xml:space="preserve">
<path fill="#FFFFFF" d="M192.1,10.3c-17.1,0-32.4,8-42.3,20.6h-0.3v0.3c-7.1,9.1-11.4,20.6-11.4,33c0,29.7,24.2,53.9,53.9,53.9
	s54-24.2,54-53.9S221.9,10.3,192.1,10.3z"/>
<path d="M192,10.3c-17.1,0-32.4,8-42.3,20.6h-0.3v0.3c-7.1,9.1-11.4,20.6-11.4,33c0,29.7,24.2,53.9,53.9,53.9s53.9-24.2,53.9-53.9
	S221.7,10.3,192,10.3z M208.6,100.9l-23.1-3L183.7,78l17.6-10.7L217,82.4L208.6,100.9z M171.2,103.3L151.9,89l-2.1-14.7l11.8-7.4
	L181.5,78l1.9,20.2L171.2,103.3z M149.1,72.2L142,57.4l9.3-15.3l9.7,2l-0.2,20.8L149.1,72.2z M188.3,19l21.3,2.9l7.3,13.6l-16.1,7.9
	l-16.5-11.5L188.3,19z M231.4,74.4l-12.6,6.7l-16.9-16.2l0.2-19.7l16-7.9L232.3,50L231.4,74.4z M233.5,74.9l1-24.5l7.1-0.9
	c1.4,4.7,2.1,9.6,2.1,14.7c0,4.6-0.6,9-1.7,13.2L233.5,74.9z M240.9,47.4l-7.1,0.9l-14.6-13.1L212,21.9l6.1-2.4
	C228.7,25.7,236.9,35.6,240.9,47.4z M178.8,14.2l7.4,4.1L182,32.1L162.3,42l-10.5-2.1l-0.2-8.1C158.5,23.4,167.9,17,178.8,14.2z
	 M149.7,40.5l-8.5,14.1c1.4-7.3,4.3-14.1,8.4-20L149.7,40.5z M140.5,59.2l7.1,14.9l2.1,14.8l-2.9,0.4c-4.1-7.4-6.5-16-6.5-25.1
	C140.3,62.5,140.4,60.8,140.5,59.2z M172.4,112.1l-0.2-6.8l12.5-5.3l23.9,3.1l4.4,8.4c-6.4,2.9-13.5,4.5-21,4.5
	C185.1,115.9,178.5,114.5,172.4,112.1z"/>
<g>
	<path fill="#FCFF00" stroke="#000000" stroke-miterlimit="10" d="M181.5,122.5v-7.2c0-0.7,0.8-1.9,0-1.9h-7.7c-0.5,0-1,0.6-1.2,1
		c-1.1,2.4-2.9,4.5-4.2,5.6c0.4-2.5,0.5-4.1,0.5-4.1c1.5-0.4,0.2-1.6,0.2-1.6H89c0,0-1.3,1.2,0.2,1.6c0,0,0,1.6,0.5,4.1
		c-1.3-1.2-3.1-3.3-4.2-5.8c-0.2-0.5-0.7-1-1.2-1h-7.7c-0.7,0-3.1,1.1-3.1,1.9v7.2c0,0.1,0.7,0.5,0.7,0.6
		c0.3,18.7,19,27.4,20.5,28.2s3.4,2.8,3.4,2.8c0,0.7-1.9,3.3,0.2,4.1c2.1,0.9,2.3-2,2.1-3.3c-0.2-1.1-0.9-3.4-3-4.9l4.4-5.7
		c4.7,4.7,11.3,8.6,20.3,10.8c0,0.8-0.3,2.2-0.3,2.2s-2.4,0.3-2.4,2.3s2.6,2.9,4.6,2.9c0,1.3-2.1,11.4,0.8,16.4
		c0.2,0.4-0.3,1.6-1.6,2.3c-1.3,0.7-2.7,3.2,0,4.6c0.1,0.1,0,1.1,0,1.1s-4.7,0.9-6.1,9.5s-4.5,15.1-6,15.9c-1.6,0-3.1,0.2-3.1,0.2
		s-0.3,2.6-3.3,3.6c0,2.3,0,26.3,0,26.3h-1.8c0,0-3.3-1-3.3,6.4c0,1.9,0.7,2.6,1.7,3.6c1.7,0,54,0,55.8,0c1.1-1,1.7-1.7,1.7-3.6
		c0-7.4-3.3-6.4-3.3-6.4h-3.9c0,0,0-24,0-26.3c-2-1-2.3-3.6-2.3-3.6s-0.8-0.2-2.4-0.2c-1.5-0.8-4.4-7.3-5.8-15.9
		c-1.4-8.6-6-9.5-6-9.5s-0.1-1,0-1.1c2.7-1.4,1.3-3.9,0-4.6c-1.3-0.7-1.8-1.9-1.6-2.3c2.8-5,0.8-15.1,0.8-16.4c2,0,4.6-1,4.6-2.9
		c0-2-2.4-2.3-2.4-2.3s-0.3-1.4-0.3-2.2c9-2.1,15.5-6.1,20.3-10.8l4.4,5.7c-2.1,1.5-2.8,3.7-3,4.9c-0.2,1.3,0,4.1,2.1,3.3
		c2.1-0.9,0.1-3.5,0.1-4.1c0,0,1.6-2.1,3.2-2.8c1.5-0.8,18.3-8.7,18.7-27.4C181.7,123.9,181.5,122.6,181.5,122.5z M95.1,149.2
		c-4.1-2.4-17.6-12.7-17.6-27.6c0-3.2,0-4.1,0-4.1h6c2.3,4,6.2,6.6,6.4,6.7c0.2,0.1,0.4,0,0.6,0c1.3,5.4,3.9,12.6,9.8,18.9
		L95.1,149.2z M177.5,121.6c0,14.9-12,25.1-16.1,27.6l-4.3-6.1c5.8-6.4,8.9-13.7,10.3-19c0.2,0,0.5,0.3,0.7,0.2
		c0.2-0.1,4.2-2.7,6.5-6.7h2.9C177.5,117.5,177.5,118.4,177.5,121.6z"/>
	<path fill="#FFFFFF" d="M152.3,116h-30.7c0,0,0.3,8.1,6.5,10.5c5.8,2.2,14.4,2,18.7-0.2C151.4,123.9,152.3,116,152.3,116z"/>
	<rect x="127" y="156" fill="#FFFFFF" width="4" height="2"/>
	<rect x="127" y="159" fill="#FFFFFF" width="6" height="1"/>
	<path fill="#FFFFFF" d="M131,174.8c0,0-0.4,1.7-2,1.7c-1.6,0-2-1.7-2-1.7V163h4V174.8z"/>
	<rect x="127" y="184" fill="#FFFFFF" width="4" height="1"/>
	<path fill="#FFFFFF" d="M136.2,211.3c-2.5,0-8,0-10.7,0c3.3,0,1.3-20.2,2.1-21.5c0.9-1.3,5.3-1.4,6.2,0
		C134.7,191.2,138.7,211.3,136.2,211.3z"/>
	<path fill="#FFFFFF" d="M125,212.4v4.6c0,0,11.8,0,13.6,0c1.9,0,1.5-4-1.3-4S125,212.4,125,212.4z"/>
	<rect x="140" y="217" fill="#ABD100" width="7" height="25"/>
	<rect x="107" y="217" fill="#FF9F00" width="4" height="25"/>
	<rect x="127" y="179" fill="#FFFFFF" width="4" height="1"/>
	<path fill="#ABD100" d="M132.3,163.7c0,0,0.1,10,0.1,11.1c0,0.9-0.5,2.5-1.1,3.3c-0.6,0.7,0.4,1.4,0.9,1c0.5-0.5,1.2-2.1,1.1-4.1
		C133.3,171.2,132.3,163.7,132.3,163.7z"/>
	<path fill="#ABD100" d="M133.1,182.9c0,0,0.7,1.3-1.1,1.6c0.2,0.2-0.2,0.8,1.1,0.7C134.3,185.2,135.3,183.1,133.1,182.9z"/>
	<path fill="#ABD100" d="M134.6,159.1c0,0,0.7,1.9-1.7,2.1c2.6,0,4.1-0.8,3.9-1.9C136.6,158.3,135.2,159.2,134.6,159.1z"/>
	<path fill="#ABD100" d="M133.1,148.4c0,0,34-7.8,33.8-31.9c0.2,0.2,1,0,1,0s-0.5,26.3-30.5,37.7c0-0.7-6.4-1.5-6.4-1.5
		S129.5,149.3,133.1,148.4z"/>
	<g>
		<path fill="#ABD100" d="M160.9,149.3c-0.1,0-0.2-0.1-0.2-0.1l-3.7-5c-0.1-0.1-0.1-0.3,0.1-0.5c0.1-0.1,0.4-0.1,0.5,0.1l3.7,5
			c0.1,0.1,0.1,0.3-0.1,0.5C161.1,149.3,161,149.3,160.9,149.3z"/>
	</g>
	<g>
		<path fill="#FF9F00" d="M96.8,149.8c-0.1,0-0.2,0-0.2-0.1c-0.1-0.1-0.2-0.3,0-0.5l4.1-5.4c0.1-0.1,0.3-0.2,0.5,0
			c0.1,0.1,0.2,0.3,0,0.5l-4.1,5.4C97,149.8,96.9,149.8,96.8,149.8z"/>
	</g>
	<path fill="#FF9F00" d="M125.7,163.7c0,0-0.1,10-0.1,11.1c0,0.9,0.5,2.5,1.1,3.3c0.6,0.7-0.4,1.4-0.9,1c-0.5-0.5-1.2-2.1-1.1-4.1
		C124.7,171.2,125.7,163.7,125.7,163.7z"/>
	<path fill="#FF9F00" d="M124.9,182.9c0,0-0.7,1.3,1.1,1.6c-0.2,0.2,0.2,0.8-1.1,0.7C123.7,185.2,122.7,183.1,124.9,182.9z"/>
	<path fill="#FF9F00" d="M123.4,159.1c0,0-0.7,1.9,1.7,2.1c-2.6,0-4.1-0.8-3.9-1.9C121.4,158.3,122.7,159.2,123.4,159.1z"/>
	<path fill="#FF9F00" d="M124.9,148.4c0,0-34-7.8-33.8-31.9c-0.2,0.2-1,0-1,0s0.5,26.3,30.5,37.7c0-0.7,6.4-1.5,6.4-1.5
		S128.5,149.3,124.9,148.4z"/>
	<line fill="none" stroke="#957E78" stroke-miterlimit="10" x1="122" y1="156.5" x2="136" y2="156.5"/>
	<line fill="none" stroke="#957E78" stroke-miterlimit="10" x1="123" y1="162.5" x2="133" y2="162.5"/>
	<line fill="none" stroke="#957E78" stroke-miterlimit="10" x1="123" y1="187.5" x2="134" y2="187.5"/>
	<line fill="none" stroke="#957E78" stroke-miterlimit="10" x1="110" y1="211.5" x2="147" y2="211.5"/>
	<line fill="none" stroke="#957E78" stroke-miterlimit="10" x1="104" y1="217.5" x2="151" y2="217.5"/>
	<line fill="none" stroke="#957E78" stroke-miterlimit="10" x1="104" y1="242.5" x2="151" y2="242.5"/>
	<line fill="none" stroke="#957E78" stroke-miterlimit="10" x1="121" y1="158.5" x2="137" y2="158.5"/>
</g>
<g>
	<g>
		<path fill="#F0F0F0" d="M191.7,105.9c22.6,0,41-18.3,41-41c0-22.6-18.3-41-41-41c-22.6,0-41,18.3-41,41
			C150.7,87.5,169,105.9,191.7,105.9"/>
		<path fill="#D80027" d="M152.1,75.6c2.4,8.8,7.6,16.4,14.6,21.8V75.6H152.1z"/>
		<path fill="#D80027" d="M188.1,105.7c1.2,0.1,2.4,0.2,3.6,0.2c18.9,0,34.8-12.8,39.5-30.3h-43.1V105.7z"/>
		<path fill="#D80027" d="M231.2,54.2C226.5,36.8,210.6,24,191.7,24c-1.2,0-2.4,0.1-3.6,0.2v30.1h43.1L231.2,54.2L231.2,54.2z"/>
		<path fill="#D80027" d="M166.7,32.4c-7,5.4-12.2,13-14.6,21.8h14.6V32.4z"/>
		<path fill="#0052B4" d="M232.3,59.6h-49.5V24.9c-3.8,0.8-7.4,2.2-10.7,4v30.6h-21c-0.2,1.7-0.3,3.5-0.3,5.3s0.1,3.6,0.3,5.3h21
			v30.6c3.3,1.8,6.9,3.2,10.7,4V70.3l0,0h49.5c0.2-1.7,0.3-3.5,0.3-5.3C232.6,63.1,232.5,61.3,232.3,59.6"/>
	</g>
	<ellipse fill="none" stroke="#000000" stroke-miterlimit="10" cx="191.6" cy="65.2" rx="40.8" ry="40.6"/>
</g>
<g>
	<g>
		<g>
			<path fill="#FFFF00" d="M50.079,208.242h-5.69l-3.49-9.96v9.96h-7.063V176.29h6.016l3.263,9.238l-0.001-9.238h6.965V208.242z
				 M46.517,205.242h0.562V179.29h-0.965v7.975l0.312,7.837l-2.914,0.56l-5.782-16.371h-0.894v25.952h1.063v-8.88l-0.246-7.552
				l2.915-0.545L46.517,205.242z"/>
		</g>
		<g>
			<path fill="#FFFF00" d="M59,208.571c-2.712,0-4.761-0.91-6.091-2.705c-1.245-1.679-1.85-4.039-1.85-7.218v-13.242
				c0-8.232,5.011-9.462,7.998-9.462c2.734,0,4.767,0.889,6.042,2.642c1.184,1.626,1.759,3.857,1.759,6.82v13.242
				c0,3.183-0.588,5.542-1.799,7.213C63.757,207.659,61.719,208.571,59,208.571z M59.057,178.944c-2.327,0-4.998,0.734-4.998,6.462
				v13.242c0,2.477,0.424,4.305,1.26,5.432c0.743,1.004,1.947,1.491,3.681,1.491c1.726,0,2.914-0.48,3.629-1.47
				c0.815-1.125,1.229-2.96,1.229-5.453v-13.242c0-2.273-0.399-3.975-1.186-5.056C61.984,179.404,60.802,178.944,59.057,178.944z
				 M58.975,204.755c-1.418,0-2.507-0.717-2.987-1.966c-0.332-0.861-0.487-2.161-0.487-4.091v-13.506c0-1.602,0.196-2.79,0.6-3.634
				c0.554-1.159,1.596-1.798,2.932-1.798c1.355,0,2.413,0.685,2.901,1.877c0.335,0.821,0.499,1.989,0.499,3.571v13.489
				c0,1.889-0.149,3.175-0.471,4.047C61.491,204.022,60.403,204.755,58.975,204.755z M59.033,182.761
				c-0.138,0-0.188,0.023-0.189,0.024c-0.129,0.261-0.343,0.873-0.343,2.407v13.506c0,2.049,0.2,2.79,0.286,3.014
				c-0.032,0.037,0.376,0.021,0.378,0.021c0.088-0.315,0.268-1.092,0.268-3.035v-13.489c0-1.533-0.172-2.184-0.275-2.436
				C59.197,182.781,59.148,182.761,59.033,182.761z"/>
		</g>
		<g>
			<path fill="#FFFF00" d="M84.283,208.242h-7.548l-0.415-0.829c-0.222-0.443-0.323-0.646-0.323-11.051
				c0-1.021-0.108-1.47-0.162-1.629c-0.081-0.029-0.255-0.075-0.572-0.092v13.601h-7.409V176.29h8.788
				c1.887,0,3.306,0.409,4.336,1.25c1.013,0.827,1.682,1.97,1.991,3.395c0.261,1.207,0.387,2.71,0.387,4.595
				c0,1.972-0.219,3.472-0.668,4.585c-0.193,0.478-0.451,0.904-0.768,1.277c0.317,0.406,0.598,0.919,0.815,1.563
				c0.458,1.361,0.671,3.842,0.671,7.808c0,4.146,0.072,5.254,0.105,5.544L84.283,208.242z M79.065,205.242h1.387
				c-0.029-0.933-0.045-2.334-0.045-4.479c0-4.398-0.28-6.153-0.514-6.852c-0.308-0.915-0.727-0.988-0.928-1.023l-0.19-2.908
				c0.58-0.183,0.929-0.488,1.133-0.991c0.205-0.506,0.449-1.519,0.449-3.459c0-1.646-0.107-2.979-0.32-3.961
				c-0.163-0.755-0.476-1.312-0.955-1.705c-0.46-0.375-1.304-0.573-2.439-0.573h-5.788v25.952h1.409v-13.741l2.984,0.139
				c1.386,0.032,2.408,0.464,3.002,1.281c0.518,0.713,0.748,1.773,0.748,3.441C78.998,201.449,79.031,203.983,79.065,205.242z
				 M75.541,191.15h-3.26v-11.472h2.997c1.919,0,2.769,0.818,3.143,1.505c0.4,0.733,0.578,1.903,0.578,3.795v0.181
				c0,1.357-0.058,2.359-0.177,3.063c-0.163,0.956-0.494,1.656-1.012,2.143C77.255,190.886,76.491,191.15,75.541,191.15z
				 M75.28,188.15h0.26c0.101,0,0.173-0.007,0.221-0.015c0.022-0.064,0.065-0.197,0.102-0.415c0.061-0.362,0.135-1.104,0.135-2.562
				v-0.181c0-1.409-0.113-2.017-0.176-2.248c-0.092-0.023-0.262-0.052-0.542-0.052V188.15z"/>
		</g>
		<g>
			<path fill="#FFFF00" d="M103.083,208.242H96.04l-1.281-9.607l-1.33,9.607h-7.027l-3.903-31.952h6.996l0.946,9.2l1.204-9.2h6.185
				l1.126,8.56l0.778-8.56h7.016L103.083,208.242z M98.667,205.242h1.741l2.979-25.952h-0.913l-1.751,19.264l-2.939,0.06
				L98.667,205.242z M89.058,205.242h1.757l0.918-6.63l-2.962-0.041l-1.983-19.281h-0.9L89.058,205.242z M94.277,179.29
				l-2.236,17.101l1.26-9.102l2.951,0.008l-1.054-8.007L94.277,179.29L94.277,179.29z"/>
		</g>
		<g>
			<path fill="#FFFF00" d="M119.613,208.242H106.71V176.29h12.706v6.8h-5.297v5.422h5.034v6.718h-5.034v6.213h5.494
				C119.613,201.443,119.613,208.242,119.613,208.242z M109.71,205.242h6.903v-0.8h-5.494v-12.213h5.034v-0.718h-5.034V180.09h5.297
				v-0.8h-6.706C109.71,179.29,109.71,205.242,109.71,205.242z"/>
		</g>
		<g>
			<path fill="#FFFF00" d="M127.079,208.538c-2.29,0-4.188-0.959-5.488-2.772c-1.224-1.709-1.819-4.161-1.819-7.495v-12.585
				c0-2.994,0.629-5.354,1.869-7.017c1.34-1.797,3.425-2.708,6.195-2.708c4.39,0,6.133,2.264,6.822,4.163
				c0.525,1.452,0.781,3.324,0.781,5.727v3.556h-7.112v-4.526c0-1.457-0.186-1.967-0.242-2.087
				c-0.011,0.004-0.101-0.016-0.257-0.016c-0.229,0-0.244,0.029-0.292,0.128c-0.076,0.152-0.321,0.8-0.321,2.747v3.781h8.225v18.809
				h-4.661l-0.186-0.782C129.571,208.176,128.39,208.538,127.079,208.538z M127.835,178.961c-1.796,0-3.036,0.491-3.79,1.502
				c-0.845,1.133-1.273,2.89-1.273,5.223v12.585c0,2.648,0.423,4.583,1.257,5.748c0.743,1.036,1.712,1.52,3.049,1.52
				c0.705,0,1.301-0.182,1.822-0.557c0.243-0.175,0.438-0.376,0.592-0.611c-0.487,0.274-1.054,0.417-1.681,0.417
				c-1.446,0-2.565-0.759-3.071-2.083c-0.359-0.939-0.526-2.37-0.526-4.5v-12.552c0-1.911,0.201-3.207,0.633-4.079
				c0.574-1.158,1.632-1.796,2.981-1.796c1.802,0,2.597,1.011,2.91,1.613c0.401,0.773,0.589,1.882,0.589,3.489v1.526h1.112v-0.556
				c0-2.02-0.202-3.602-0.602-4.704C131.496,180.209,130.711,178.961,127.835,178.961z M129.368,192.641h2.221v5.399
				c0,2.122-0.209,3.64-0.64,4.64c-0.142,0.327-0.312,0.618-0.512,0.872l2.001-0.001v-11.117h-3.07V192.641z M127.611,201.765
				c0.003,0,0.061,0.022,0.2,0.022c0.181,0,0.256,0,0.383-0.295c0.147-0.342,0.395-1.246,0.395-3.452v-2.399h-1.375v2.563
				c0,2.235,0.206,3.108,0.329,3.43C127.578,201.727,127.607,201.76,127.611,201.765L127.611,201.765z"/>
		</g>
		<g>
			<path fill="#FFFF00" d="M144.157,208.242h-7.409V176.29h7.409V208.242z M139.748,205.242h1.409V179.29h-1.409V205.242z"/>
		</g>
		<g>
			<path fill="#FFFF00" d="M152.684,208.571c-2.818,0-4.847-0.967-6.028-2.873c-1.054-1.698-1.566-4.021-1.566-7.1v-4.082h5.325
				l-1.776-1.831c-1.105-1.154-1.976-2.369-2.595-3.619c-0.655-1.321-0.987-2.852-0.987-4.549c0-2.764,0.558-4.812,1.706-6.261
				c1.216-1.535,3.211-2.312,5.93-2.312c2.807,0,4.778,0.933,5.858,2.771c0.941,1.604,1.399,3.793,1.399,6.69v3.293h-4.687
				l1.047,1.134c1.299,1.406,2.297,2.86,2.968,4.324c0.696,1.517,1.05,3.188,1.05,4.969c0,3.054-0.536,5.3-1.639,6.867
				C157.485,207.704,155.465,208.571,152.684,208.571z M148.089,197.517v1.082c0,2.469,0.375,4.325,1.115,5.519
				c0.224,0.36,0.901,1.454,3.479,1.454c1.772,0,2.934-0.427,3.552-1.305c0.725-1.03,1.092-2.76,1.092-5.141
				c0-1.345-0.261-2.596-0.776-3.718c-0.539-1.176-1.362-2.367-2.445-3.54l-2.384-2.582c-0.885-0.945-1.499-1.729-1.868-2.391
				c-0.438-0.782-0.652-1.743-0.652-2.938c0-1.23,0.229-2.178,0.697-2.894c0.578-0.884,1.55-1.37,2.735-1.37
				c1.301,0,2.316,0.678,2.785,1.86c0.318,0.805,0.467,1.939,0.467,3.571v0.573h1.063v-0.293c0-2.316-0.332-4.057-0.986-5.172
				c-0.187-0.318-0.758-1.29-3.271-1.29c-1.757,0-2.961,0.396-3.578,1.175c-0.702,0.886-1.058,2.366-1.058,4.398
				c0,1.23,0.228,2.312,0.675,3.217c0.484,0.978,1.18,1.942,2.066,2.869l2.132,2.196c1.062,1.1,1.856,2.185,2.362,3.229
				c0.537,1.107,0.809,2.398,0.809,3.838c0,1.471-0.161,2.506-0.508,3.259c-0.286,0.626-1.041,1.679-2.867,1.679
				c-1.354,0-2.423-0.691-2.93-1.896c-0.36-0.861-0.528-2.125-0.528-3.979v-1.411L148.089,197.517L148.089,197.517z M152.267,196.75
				v2.178c0,1.909,0.206,2.606,0.295,2.817c0,0.068,0.24,0.063,0.336,0.047c0.073-0.207,0.202-0.742,0.202-1.926
				c0-0.982-0.171-1.834-0.508-2.529C152.499,197.146,152.391,196.949,152.267,196.75z M152.645,182.7
				c-0.207,0-0.26,0.026-0.261,0.026c-0.01,0.033-0.183,0.342-0.183,1.231c0,0.819,0.146,1.252,0.27,1.472
				c0.08,0.143,0.209,0.343,0.415,0.613v-0.917C152.886,183.585,152.728,182.936,152.645,182.7z"/>
		</g>
		<g>
			<path fill="#FFFF00" d="M168.072,208.571c-2.631,0-4.65-0.928-6.001-2.756c-1.249-1.688-1.882-4.065-1.882-7.068V186.13
				c0-4.918,1.428-8.091,4.244-9.432c1.035-0.489,2.27-0.737,3.672-0.737c2.839,0,7.603,1.195,7.603,9.198v5.481h-7.261v-5.202
				c0-1.699-0.172-2.391-0.274-2.651c0.039,0.007,0.01-0.01-0.084-0.01c-0.055,0-0.088,0.005-0.105,0.009
				c-0.001,0.009-0.02,0.038-0.042,0.091c-0.115,0.277-0.311,0.977-0.311,2.546v13.521c0,1.774,0.188,2.499,0.3,2.772
				c0.013,0.032,0.024,0.055,0.033,0.069c0.011-0.002,0.039,0.001,0.075,0.001c0.033,0,0.058-0.002,0.073-0.004
				c0.004-0.013,0.018-0.038,0.033-0.077c0.112-0.279,0.302-1.016,0.302-2.811v-5.646h7.327v5.596c0,3.156-0.586,5.479-1.793,7.104
				C172.689,207.689,170.701,208.571,168.072,208.571z M168.105,178.961c-0.955,0-1.758,0.15-2.386,0.447
				c-1.678,0.799-2.53,3.061-2.53,6.722v12.617c0,2.347,0.436,4.124,1.294,5.284c0.766,1.037,1.939,1.54,3.589,1.54
				c1.651,0,2.796-0.461,3.501-1.41c0.797-1.073,1.201-2.861,1.201-5.315v-2.596h-1.327v2.646c0,1.805-0.165,3.055-0.521,3.934
				c-0.502,1.244-1.555,1.958-2.888,1.958c-1.329,0-2.381-0.705-2.885-1.934c-0.357-0.874-0.523-2.115-0.523-3.909v-13.521
				c0-1.619,0.178-2.831,0.544-3.706c0.518-1.232,1.579-1.939,2.914-1.939c1.349,0,2.397,0.697,2.876,1.912
				c0.329,0.839,0.482,2.029,0.482,3.749v2.202h1.261v-2.481C172.708,179.665,170.248,178.961,168.105,178.961z"/>
		</g>
		<g>
			<path fill="#FFFF00" d="M192.126,208.242h-7.409v-13.456h-0.948v13.456h-7.408V176.29h7.408v11.712h0.948V176.29h7.409V208.242z
				 M187.717,205.242h1.409V179.29h-1.409v11.712h-6.948V179.29h-1.408v25.952h1.408v-13.456h6.948V205.242z"/>
		</g>
		<g>
			<path fill="#FFFF00" d="M206.371,208.242h-12.902V176.29h12.705v6.8h-5.297v5.422h5.034v6.718h-5.034v6.213h5.494V208.242z
				 M196.469,205.242h6.902v-0.8h-5.494v-12.213h5.034v-0.718h-5.034V180.09h5.297v-0.8h-6.705L196.469,205.242L196.469,205.242z"/>
		</g>
		<g>
			<path fill="#FFFF00" d="M223.32,208.242h-7.55l-0.414-0.831c-0.214-0.43-0.321-0.646-0.321-11.049
				c0-1.021-0.108-1.469-0.162-1.629c-0.081-0.029-0.255-0.075-0.572-0.092v13.601h-7.409V176.29h8.788
				c1.887,0,3.306,0.409,4.337,1.25c1.014,0.828,1.683,1.971,1.989,3.396c0.261,1.203,0.388,2.706,0.388,4.594
				c0,1.972-0.219,3.471-0.668,4.584c-0.193,0.478-0.451,0.905-0.769,1.278c0.317,0.406,0.599,0.919,0.815,1.562
				c0.458,1.361,0.671,3.842,0.671,7.809c0,4.146,0.071,5.254,0.105,5.544L223.32,208.242z M218.103,205.242h1.386
				c-0.028-0.933-0.045-2.334-0.045-4.479c0-4.399-0.279-6.154-0.514-6.852c-0.309-0.915-0.727-0.988-0.928-1.023l-0.19-2.908
				c0.58-0.183,0.93-0.488,1.133-0.991c0.205-0.506,0.449-1.519,0.449-3.459c0-1.648-0.107-2.98-0.319-3.96
				c-0.163-0.756-0.476-1.313-0.955-1.706c-0.46-0.375-1.304-0.573-2.439-0.573h-5.788v25.952h1.409v-13.741l2.983,0.139
				c1.386,0.032,2.407,0.464,3.002,1.28c0.519,0.715,0.749,1.776,0.749,3.442C218.035,201.449,218.068,203.982,218.103,205.242z
				 M214.577,191.15h-3.26v-11.472h2.996c1.92,0,2.77,0.819,3.144,1.506c0.399,0.731,0.578,1.902,0.578,3.794v0.181
				c0,1.354-0.058,2.355-0.177,3.062c-0.163,0.957-0.494,1.657-1.013,2.144C216.291,190.887,215.527,191.15,214.577,191.15z
				 M214.317,188.15h0.26c0.102,0,0.174-0.007,0.222-0.015c0.021-0.064,0.064-0.197,0.102-0.415
				c0.062-0.364,0.135-1.106,0.135-2.562v-0.181c0-1.411-0.113-2.018-0.176-2.248c-0.093-0.022-0.262-0.052-0.542-0.052
				L214.317,188.15L214.317,188.15z"/>
		</g>
		<g>
			<path fill="#FFFF00" d="M33.133,242.242h-6.932v-5.364l-0.992,5.232H19.23l-1.166-5.9v6.032h-6.899V210.29h8.214l2.831,14.56
				l2.661-14.56h8.262C33.133,210.29,33.133,242.242,33.133,242.242z M29.202,239.242h0.932V213.29h-2.761l-3.641,19.924
				l-2.948,0.017l-3.876-19.94h-2.742v25.952h0.899v-9.292l-0.165-9.877l2.972-0.316l3.824,19.354h1.029l3.667-19.342l2.974,0.305
				l-0.165,9.902v9.265H29.202z"/>
		</g>
		<g>
			<path fill="#FFFF00" d="M46.553,242.242H33.65V210.29h12.706v6.8h-5.297v5.422h5.034v6.718h-5.034v6.213h5.494V242.242z
				 M36.65,239.242h6.903v-0.8h-5.494v-12.213h5.034v-0.718h-5.034V214.09h5.297v-0.8H36.65V239.242z"/>
		</g>
		<g>
			<path fill="#FFFF00" d="M53.805,242.242h-7.409V210.29h7.409V242.242z M49.396,239.242h1.409V213.29h-1.409V239.242z"/>
		</g>
		<g>
			<path fill="#FFFF00" d="M61.489,242.571c-2.819,0-4.847-0.967-6.029-2.873c-1.054-1.699-1.566-4.022-1.566-7.1v-4.082h5.326
				l-1.777-1.831c-1.105-1.154-1.977-2.37-2.595-3.619c-0.654-1.322-0.986-2.853-0.986-4.549c0-2.765,0.558-4.812,1.706-6.262
				c1.216-1.534,3.21-2.312,5.93-2.312c2.807,0,4.778,0.933,5.858,2.771c0.941,1.604,1.399,3.793,1.399,6.69v3.293h-4.686
				l1.047,1.134c1.298,1.406,2.296,2.86,2.967,4.324c0.697,1.518,1.05,3.189,1.05,4.969c0,3.054-0.536,5.3-1.638,6.867
				C66.291,241.704,64.27,242.571,61.489,242.571z M56.894,231.517v1.082c0,2.468,0.375,4.325,1.116,5.52
				c0.223,0.359,0.901,1.453,3.479,1.453c1.772,0,2.934-0.427,3.552-1.305c0.724-1.03,1.092-2.76,1.092-5.141
				c0-1.345-0.261-2.596-0.776-3.719c-0.54-1.175-1.362-2.366-2.445-3.539l-2.385-2.582c-0.886-0.946-1.499-1.73-1.868-2.391
				c-0.438-0.784-0.652-1.745-0.652-2.938c0-1.23,0.228-2.177,0.698-2.894c0.577-0.884,1.549-1.37,2.735-1.37
				c1.301,0,2.316,0.678,2.785,1.86c0.319,0.806,0.467,1.94,0.467,3.571v0.573h1.063v-0.293c0-2.316-0.332-4.057-0.986-5.172
				c-0.188-0.318-0.758-1.29-3.271-1.29c-1.757,0-2.96,0.396-3.578,1.175c-0.702,0.886-1.058,2.365-1.058,4.398
				c0,1.23,0.227,2.312,0.675,3.217c0.483,0.977,1.179,1.941,2.066,2.869l2.132,2.196c1.062,1.1,1.856,2.185,2.362,3.229
				c0.537,1.107,0.809,2.398,0.809,3.838c0,1.469-0.161,2.504-0.507,3.258c-0.288,0.627-1.044,1.68-2.869,1.68
				c-1.354,0-2.422-0.691-2.929-1.896c-0.36-0.859-0.528-2.123-0.528-3.979v-1.411L56.894,231.517L56.894,231.517z M61.072,230.75
				v2.178c0,1.91,0.206,2.606,0.294,2.816c0.002,0.07,0.239,0.063,0.337,0.048c0.072-0.206,0.202-0.742,0.202-1.926
				c0-0.982-0.171-1.834-0.508-2.529C61.304,231.146,61.196,230.949,61.072,230.75z M61.45,216.7c-0.208,0-0.26,0.026-0.261,0.026
				c-0.01,0.034-0.183,0.343-0.183,1.231c0,0.818,0.147,1.253,0.27,1.473c0.08,0.143,0.208,0.342,0.415,0.613v-0.918
				C61.691,217.585,61.533,216.936,61.45,216.7z"/>
		</g>
		<g>
			<path fill="#FFFF00" d="M77.387,242.242h-7.392v-25.136h-3.389v-6.816h14.038v6.816h-3.257
				C77.387,217.106,77.387,242.242,77.387,242.242z M72.995,239.242h1.392v-25.136h3.257v-0.816h-8.038v0.816h3.389
				C72.995,214.106,72.995,239.242,72.995,239.242z"/>
		</g>
		<g>
			<path fill="#FFFF00" d="M92.14,242.242H79.237V210.29h12.706v6.8h-5.297v5.422h5.034v6.718h-5.034v6.213h5.494
				C92.14,235.443,92.14,242.242,92.14,242.242z M82.237,239.242h6.903v-0.8h-5.494v-12.213h5.034v-0.718h-5.034V214.09h5.297v-0.8
				h-6.706C82.237,213.29,82.237,239.242,82.237,239.242z"/>
		</g>
		<g>
			<path fill="#FFFF00" d="M108.246,242.242h-7.548l-0.415-0.829c-0.222-0.443-0.323-0.646-0.323-11.051
				c0-1.021-0.108-1.47-0.162-1.629c-0.081-0.029-0.255-0.075-0.572-0.092v13.601h-7.409V210.29h8.788
				c1.887,0,3.306,0.409,4.336,1.25c1.013,0.827,1.682,1.97,1.991,3.395c0.261,1.207,0.387,2.71,0.387,4.595
				c0,1.972-0.219,3.472-0.668,4.585c-0.193,0.478-0.451,0.904-0.768,1.277c0.317,0.406,0.598,0.919,0.815,1.563
				c0.458,1.361,0.671,3.842,0.671,7.808c0,4.146,0.072,5.254,0.105,5.544L108.246,242.242z M103.028,239.242h1.387
				c-0.029-0.933-0.045-2.334-0.045-4.479c0-4.398-0.28-6.153-0.514-6.852c-0.308-0.915-0.727-0.988-0.928-1.023l-0.19-2.908
				c0.58-0.183,0.929-0.488,1.133-0.991c0.205-0.506,0.449-1.519,0.449-3.459c0-1.646-0.107-2.979-0.32-3.961
				c-0.163-0.755-0.476-1.312-0.955-1.705c-0.46-0.375-1.304-0.573-2.439-0.573h-5.788v25.952h1.409v-13.741l2.984,0.139
				c1.386,0.032,2.408,0.464,3.002,1.281c0.518,0.713,0.748,1.773,0.748,3.441C102.961,235.449,102.994,237.983,103.028,239.242z
				 M99.503,225.15h-3.26v-11.472h2.997c1.919,0,2.769,0.818,3.143,1.505c0.4,0.733,0.578,1.903,0.578,3.795v0.181
				c0,1.357-0.058,2.359-0.177,3.063c-0.163,0.956-0.494,1.656-1.012,2.143C101.218,224.886,100.454,225.15,99.503,225.15z
				 M99.243,222.15h0.26c0.101,0,0.173-0.007,0.221-0.015c0.022-0.064,0.065-0.197,0.102-0.415c0.061-0.362,0.135-1.104,0.135-2.562
				v-0.181c0-1.409-0.113-2.017-0.176-2.248c-0.092-0.023-0.262-0.052-0.542-0.052V222.15z"/>
		</g>
		<g>
			<path fill="#FFFF00" d="M120.915,244.102h-1.5c-1.205,0-2.178-0.101-2.975-0.308c-0.926-0.242-1.724-0.693-2.372-1.342
				c-0.659-0.659-1.119-1.53-1.37-2.588c-0.216-0.909-0.321-2.021-0.321-3.401v-14.506c0-1.38,0.105-2.492,0.321-3.402
				c0.25-1.059,0.712-1.93,1.37-2.588c0.649-0.649,1.448-1.101,2.372-1.341c0.797-0.207,1.77-0.308,2.975-0.308h1.5v5.734h-1.5
				c-0.121,0-0.212,0.007-0.28,0.016c-0.048,0.242-0.121,0.779-0.121,1.834v14.615c0,1.047,0.071,1.584,0.123,1.834
				c0.067,0.009,0.158,0.016,0.278,0.016h1.5V244.102z M117.583,217.447c-0.14,0.023-0.269,0.052-0.389,0.083
				c-0.406,0.104-0.734,0.288-1.005,0.559c-0.259,0.259-0.451,0.648-0.572,1.158c-0.159,0.671-0.24,1.583-0.24,2.71v14.506
				c0,1.127,0.081,2.039,0.24,2.709c0.121,0.511,0.313,0.9,0.572,1.159c0.27,0.27,0.599,0.453,1.006,0.56
				c0.119,0.031,0.249,0.059,0.388,0.083c-0.538-0.284-0.858-0.677-1.049-1.032c-0.364-0.678-0.52-1.702-0.52-3.424v-14.615
				c0-1.722,0.156-2.746,0.521-3.425C116.726,218.123,117.046,217.73,117.583,217.447z"/>
		</g>
		<g>
			<path fill="#FFFF00" d="M128.062,242.242h-6.65v-20.891h-2.816v-6.172h12.174v6.172h-2.707L128.062,242.242L128.062,242.242z
				 M124.412,239.242h0.65v-20.891h2.707v-0.172h-6.174v0.172h2.816L124.412,239.242L124.412,239.242z"/>
		</g>
		<g>
			<path fill="#FFFF00" d="M135.894,242.242h-6.664V215.18h6.664V242.242z M132.229,239.242h0.664V218.18h-0.664V239.242z"/>
		</g>
		<g>
			<path fill="#FFFF00" d="M142.604,242.242h-6.664V215.18h7.023c3.014,0,4.446,1.318,5.117,2.424
				c0.837,1.38,1.264,3.287,1.305,5.833v0.53c0,2.668-0.394,4.683-1.204,6.157c-0.659,1.199-2.078,2.63-5.095,2.63h-0.482V242.242z
				 M138.939,239.242h0.664v-9.488h3.482c1.681,0,2.212-0.613,2.466-1.075c0.553-1.006,0.833-2.592,0.833-4.712v-0.506
				c-0.039-2.431-0.494-3.683-0.869-4.301c-0.13-0.214-0.492-0.811-1.913-0.951c0.75,0.287,1.322,0.855,1.637,1.651
				c0.318,0.805,0.472,1.946,0.481,3.592v0.474c0,1.909-0.144,3.166-0.451,3.956c-0.458,1.176-1.518,1.851-2.908,1.851h-2.758
				V218.18h-0.664L138.939,239.242L138.939,239.242z M142.604,221.615v4.582c0.061-0.434,0.117-1.14,0.117-2.271v-0.465
				C142.716,222.597,142.663,222.009,142.604,221.615z"/>
		</g>
		<g>
			<path fill="#FFFF00" d="M154.81,242.242h-6.664V215.18h7.023c3.014,0,4.446,1.318,5.117,2.424
				c0.837,1.38,1.264,3.287,1.305,5.833v0.53c0,2.668-0.394,4.683-1.204,6.157c-0.659,1.199-2.078,2.63-5.095,2.63h-0.482V242.242z
				 M151.146,239.242h0.664v-9.488h3.482c1.681,0,2.212-0.613,2.466-1.075c0.553-1.006,0.833-2.592,0.833-4.712v-0.506
				c-0.039-2.431-0.494-3.683-0.869-4.301c-0.13-0.214-0.492-0.811-1.913-0.951c0.75,0.287,1.322,0.855,1.637,1.651
				c0.318,0.805,0.472,1.946,0.481,3.592v0.474c0,1.909-0.144,3.166-0.451,3.956c-0.458,1.176-1.518,1.851-2.908,1.851h-2.758
				V218.18h-0.664L151.146,239.242L151.146,239.242z M154.81,221.615v4.582c0.061-0.434,0.117-1.14,0.117-2.271v-0.465
				C154.922,222.597,154.869,222.009,154.81,221.615z"/>
		</g>
		<g>
			<path fill="#FFFF00" d="M171.583,242.242h-11.23V215.18h11.066v6.158h-4.402v4h4.184v6.09h-4.184v4.656h4.566V242.242z
				 M163.353,239.242h5.23v-0.158h-4.566v-10.656h4.184v-0.09h-4.184v-10h4.402v-0.158h-5.066V239.242z"/>
		</g>
		<g>
			<path fill="#FFFF00" d="M182.107,242.242h-11.299V215.18h6.664v20.945h4.635V242.242z M173.809,239.242h5.299v-0.117h-4.635
				V218.18h-0.664V239.242z"/>
		</g>
		<g>
			<path fill="#FFFF00" d="M187.313,242.242h-6.664V215.18h6.664V242.242z M183.649,239.242h0.664V218.18h-0.664V239.242z"/>
		</g>
		<g>
			<path fill="#FFFF00" d="M193.385,242.488c-1.988,0-3.637-0.833-4.767-2.41c-1.05-1.464-1.56-3.55-1.56-6.377v-10.459
				c0-2.543,0.539-4.556,1.604-5.982c1.164-1.562,2.965-2.354,5.352-2.354c3.796,0,5.309,1.973,5.908,3.627
				c0.447,1.235,0.664,2.819,0.664,4.846v18.863h-4.327l-0.117-0.496C195.322,242.239,194.397,242.488,193.385,242.488z
				 M194.014,217.906c-1.407,0-2.372,0.375-2.947,1.146c-0.669,0.897-1.008,2.307-1.008,4.189V233.7
				c0,2.118,0.345,3.719,0.997,4.629c0.574,0.801,1.293,1.158,2.329,1.158c0.289,0,0.553-0.04,0.797-0.122
				c-1.356,0.061-2.494-0.628-2.978-1.889c-0.31-0.811-0.454-2.027-0.454-3.831v-10.432c0-1.631,0.176-2.744,0.553-3.504
				c0.516-1.038,1.501-1.633,2.704-1.633c1.63,0,2.355,0.926,2.643,1.478c0.354,0.679,0.519,1.637,0.519,3.017v1.016h0.418v-0.209
				c0-1.648-0.163-2.935-0.484-3.823C196.823,218.788,196.221,217.906,194.014,217.906z M197.387,229.104v4.406
				c0,1.825-0.176,3.083-0.554,3.958c-0.088,0.203-0.189,0.392-0.305,0.564l1.058-0.001v-8.928h-0.199V229.104z M193.992,236.365
				h0.047c0.005-0.015,0.021-0.044,0.04-0.087c0.093-0.214,0.308-0.913,0.308-2.769v-1.74h-0.637v1.877
				C193.75,235.422,193.909,236.121,193.992,236.365z M193.75,226.104h0.418v-3.531c0-0.86-0.079-1.297-0.132-1.494
				c-0.009,0-0.019,0-0.029,0l0,0c-0.014,0-0.022-0.001-0.028-0.004c-0.071,0.177-0.229,0.719-0.229,2.141L193.75,226.104
				L193.75,226.104z"/>
		</g>
		<g>
			<path fill="#FFFF00" d="M214.404,242.242h-6.476l-0.574-4.293h-1.241l-0.52,4.293h-6.586l3.86-27.062h7.431L214.404,242.242z
				 M210.554,239.242h0.36l-2.929-19.308l2.013,15.075h-0.01L210.554,239.242z M202.467,239.242h0.469l0.512-4.232h-0.002
				l1.843-15.086h2.695l-0.265-1.744h-2.249L202.467,239.242z"/>
		</g>
		<g>
			<path fill="#FFFF00" d="M224.206,242.242h-11.23V215.18h11.066v6.158h-4.402v4h4.184v6.09h-4.184v4.656h4.566V242.242z
				 M215.976,239.242h5.23v-0.158h-4.566v-10.656h4.184v-0.09h-4.184v-10h4.402v-0.158h-5.066V239.242z"/>
		</g>
		<g>
			<path fill="#FFFF00" d="M237.438,242.242h-5.161l-2.469-7.043l0.001,7.043h-6.377V215.18h5.432l2.28,6.454l-0.001-6.454h6.295
				L237.438,242.242L237.438,242.242z M234.403,239.242h0.034V218.18h-0.295v6.375l0.259,6.503l-2.686,0.516L234.403,239.242z
				 M226.432,239.242h0.377v-7.127l-0.204-6.268l2.67-0.499l-2.532-7.169h-0.311V239.242z"/>
		</g>
		<g>
			<path fill="#FFFF00" d="M238.218,244.102h-1.5v-5.734h1.5c0.121,0,0.213-0.007,0.279-0.016c0.049-0.241,0.121-0.779,0.121-1.834
				v-14.615c0-1.046-0.071-1.584-0.123-1.834c-0.066-0.009-0.157-0.016-0.277-0.016h-1.5v-5.734h1.5
				c1.203,0,2.176,0.101,2.975,0.308c0.926,0.241,1.723,0.693,2.37,1.347c0.649,0.656,1.106,1.525,1.357,2.581
				c0.217,0.914,0.321,2.026,0.321,3.403v14.506c0,1.377-0.104,2.489-0.32,3.401c-0.252,1.057-0.708,1.924-1.356,2.581
				c-0.647,0.653-1.444,1.105-2.37,1.348C240.394,244.001,239.421,244.102,238.218,244.102z M240.048,217.446
				c0.536,0.283,0.857,0.676,1.049,1.03c0.366,0.682,0.521,1.705,0.521,3.426v14.615c0,1.721-0.155,2.744-0.521,3.424
				c-0.191,0.355-0.513,0.749-1.05,1.032c0.141-0.024,0.271-0.053,0.391-0.084c0.402-0.104,0.728-0.286,0.993-0.554
				c0.256-0.259,0.448-0.651,0.57-1.165c0.158-0.671,0.239-1.582,0.239-2.708v-14.506c0-1.126-0.081-2.037-0.24-2.71
				c-0.121-0.513-0.313-0.904-0.57-1.164c-0.265-0.268-0.59-0.448-0.992-0.553C240.318,217.499,240.188,217.471,240.048,217.446z"/>
		</g>
	</g>
	<g>
		<g>
			<path d="M35.336,206.742V177.79h3.455l6.136,17.371l-0.312-7.896v-9.475h3.965v28.952h-3.126l-6.3-17.98l0.247,7.601v10.38
				L35.336,206.742L35.336,206.742z"/>
		</g>
		<g>
			<path d="M63.844,204.981c-1.009,1.394-2.624,2.09-4.844,2.09c-2.221,0-3.85-0.699-4.886-2.098
				c-1.037-1.398-1.555-3.507-1.555-6.325v-13.242c0-5.308,2.166-7.962,6.498-7.962c2.237,0,3.847,0.674,4.828,2.023
				s1.473,3.328,1.473,5.938v13.242C65.358,201.478,64.853,203.589,63.844,204.981z M57.388,202.251
				c0.257,0.669,0.787,1.004,1.587,1.004c0.8,0,1.327-0.343,1.579-1.028s0.378-1.861,0.378-3.528V185.21
				c0-1.371-0.129-2.372-0.387-3.003c-0.258-0.63-0.762-0.945-1.513-0.945s-1.278,0.315-1.579,0.945
				c-0.302,0.631-0.453,1.626-0.453,2.986v13.506C57.001,200.397,57.13,201.582,57.388,202.251z"/>
		</g>
		<g>
			<path d="M75.178,193.138l-1.415-0.065v13.67h-4.409V177.79h7.288c1.513,0,2.643,0.304,3.389,0.912
				c0.746,0.609,1.236,1.459,1.472,2.55c0.236,1.092,0.354,2.518,0.354,4.277c0,1.761-0.187,3.101-0.559,4.022
				c-0.373,0.921-1.064,1.541-2.073,1.858c0.998,0.176,1.694,0.851,2.089,2.023c0.395,1.174,0.592,3.616,0.592,7.329
				c0,3.712,0.055,5.705,0.164,5.979h-4.408c-0.11-0.22-0.165-3.68-0.165-10.38c0-1.283-0.154-2.136-0.461-2.559
				C76.73,193.382,76.11,193.16,75.178,193.138z M73.78,189.65h1.76c0.559,0,0.973-0.126,1.242-0.379
				c0.269-0.252,0.455-0.685,0.56-1.299c0.104-0.614,0.156-1.552,0.156-2.813v-0.181c0-1.568-0.132-2.594-0.395-3.076
				s-0.872-0.724-1.826-0.724H73.78V189.65z"/>
		</g>
		<g>
			<path d="M87.73,206.742l-3.537-28.952h3.948l2.122,20.628l2.698-20.628h3.553l2.714,20.628l1.875-20.628h3.964l-3.323,28.952
				h-4.393l-2.566-19.247l-2.665,19.247H87.73z"/>
		</g>
		<g>
			<path d="M108.21,206.742V177.79h9.706v3.8h-5.297v8.422h5.034v3.718h-5.034v9.213h5.494v3.8L108.21,206.742L108.21,206.742z"/>
		</g>
		<g>
			<path d="M127.079,207.038c-1.82,0-3.243-0.716-4.269-2.146c-1.025-1.432-1.538-3.639-1.538-6.621v-12.585
				c0-2.676,0.523-4.716,1.571-6.119c1.047-1.404,2.711-2.105,4.993-2.105c2.84,0,4.644,1.059,5.412,3.175
				c0.461,1.272,0.691,3.01,0.691,5.215v2.056h-4.112v-3.026c0-1.327-0.141-2.26-0.42-2.797s-0.806-0.806-1.579-0.806
				s-1.319,0.32-1.637,0.962s-0.477,1.779-0.477,3.413v12.552c0,1.897,0.143,3.219,0.428,3.965s0.842,1.118,1.67,1.118
				c0.828,0,1.415-0.4,1.76-1.2c0.345-0.801,0.518-2.149,0.518-4.047v-3.899h-2.22v-3.207h6.07v15.809h-1.975l-0.674-2.846
				c-0.23,0.976-0.735,1.743-1.514,2.303S128.099,207.038,127.079,207.038z"/>
		</g>
		<g>
			<path d="M138.248,206.742V177.79h4.409v28.952L138.248,206.742L138.248,206.742z"/>
		</g>
		<g>
			<path d="M146.589,198.599v-2.582h4.178v2.911c0,1.612,0.138,2.745,0.411,3.397c0.274,0.652,0.79,0.979,1.547,0.979
				s1.259-0.269,1.505-0.806c0.247-0.537,0.37-1.415,0.37-2.632c0-1.218-0.22-2.278-0.658-3.184
				c-0.438-0.904-1.135-1.851-2.089-2.838l-2.139-2.204c-0.998-1.042-1.773-2.122-2.327-3.24c-0.555-1.119-0.831-2.413-0.831-3.883
				c0-2.391,0.461-4.167,1.382-5.33c0.921-1.162,2.506-1.743,4.754-1.743s3.77,0.677,4.565,2.031s1.192,3.331,1.192,5.931v1.793
				h-4.063v-2.073c0-1.403-0.12-2.409-0.361-3.019c-0.241-0.608-0.705-0.913-1.391-0.913s-1.179,0.23-1.48,0.691
				s-0.452,1.151-0.452,2.072c0,0.922,0.153,1.656,0.461,2.205c0.307,0.548,0.86,1.25,1.661,2.105l2.385,2.582
				c1.195,1.295,2.098,2.605,2.706,3.932c0.609,1.327,0.913,2.775,0.913,4.344c0,2.708-0.455,4.71-1.365,6.004
				s-2.503,1.941-4.778,1.941c-2.276,0-3.86-0.722-4.754-2.163C147.035,203.466,146.589,201.362,146.589,198.599z"/>
		</g>
		<g>
			<path d="M172.777,205.056c-0.998,1.344-2.566,2.016-4.705,2.016s-3.737-0.716-4.795-2.147c-1.059-1.431-1.588-3.489-1.588-6.177
				V186.13c0-4.31,1.13-7.002,3.389-8.077c0.834-0.395,1.843-0.592,3.027-0.592c4.068,0,6.103,2.565,6.103,7.698v3.981h-4.261
				v-3.702c0-1.491-0.126-2.558-0.378-3.199c-0.253-0.642-0.746-0.962-1.48-0.962c-0.735,0-1.245,0.34-1.53,1.02
				c-0.285,0.681-0.428,1.722-0.428,3.126v13.521c0,1.558,0.138,2.671,0.411,3.34c0.274,0.669,0.773,1.003,1.497,1.003
				c0.725,0,1.223-0.34,1.497-1.02s0.411-1.804,0.411-3.372v-4.146h4.327v4.096C174.274,201.643,173.774,203.713,172.777,205.056z"
				/>
		</g>
		<g>
			<path d="M177.86,206.742V177.79h4.408v11.712h3.948V177.79h4.409v28.952h-4.409v-13.456h-3.948v13.456L177.86,206.742
				L177.86,206.742z"/>
		</g>
		<g>
			<path d="M194.969,206.742V177.79h9.705v3.8h-5.297v8.422h5.034v3.718h-5.034v9.213h5.494v3.8L194.969,206.742L194.969,206.742z"
				/>
		</g>
		<g>
			<path d="M214.215,193.138l-1.414-0.065v13.67h-4.409V177.79h7.288c1.513,0,2.643,0.304,3.389,0.912
				c0.745,0.609,1.236,1.459,1.472,2.55c0.236,1.092,0.354,2.518,0.354,4.277c0,1.761-0.187,3.101-0.559,4.022
				c-0.373,0.921-1.064,1.541-2.073,1.858c0.998,0.176,1.694,0.851,2.09,2.023c0.395,1.174,0.592,3.616,0.592,7.329
				c0,3.712,0.055,5.705,0.164,5.979h-4.408c-0.109-0.22-0.164-3.68-0.164-10.38c0-1.283-0.154-2.136-0.461-2.559
				C215.767,193.382,215.147,193.16,214.215,193.138z M212.817,189.65h1.76c0.56,0,0.973-0.126,1.242-0.379
				c0.269-0.252,0.455-0.685,0.56-1.299c0.104-0.614,0.156-1.552,0.156-2.813v-0.181c0-1.568-0.132-2.594-0.396-3.076
				c-0.263-0.482-0.871-0.724-1.826-0.724h-1.496V189.65z"/>
		</g>
		<g>
			<path d="M12.666,240.742V211.79h5.478l4.112,21.154l3.866-21.154h5.511v28.952h-3.932V229.95l0.165-9.902l-3.899,20.562h-3.504
				L16.4,220.048l0.165,9.902v10.792H12.666z"/>
		</g>
		<g>
			<path d="M35.15,240.742V211.79h9.706v3.8h-5.297v8.422h5.034v3.718h-5.034v9.213h5.494v3.8L35.15,240.742L35.15,240.742z"/>
		</g>
		<g>
			<path d="M47.896,240.742V211.79h4.409v28.952L47.896,240.742L47.896,240.742z"/>
		</g>
		<g>
			<path d="M55.394,232.599v-2.582h4.178v2.911c0,1.612,0.137,2.745,0.411,3.397c0.274,0.652,0.79,0.979,1.546,0.979
				c0.757,0,1.259-0.269,1.505-0.806s0.37-1.415,0.37-2.632c0-1.218-0.22-2.278-0.658-3.184c-0.438-0.904-1.135-1.851-2.089-2.838
				l-2.139-2.204c-0.998-1.042-1.774-2.122-2.328-3.24c-0.554-1.119-0.831-2.413-0.831-3.883c0-2.391,0.46-4.167,1.382-5.33
				c0.921-1.162,2.505-1.743,4.754-1.743c2.248,0,3.77,0.677,4.565,2.031c0.795,1.354,1.192,3.331,1.192,5.931v1.793h-4.063v-2.073
				c0-1.403-0.121-2.409-0.362-3.019c-0.241-0.608-0.705-0.913-1.39-0.913c-0.686,0-1.179,0.23-1.48,0.691
				c-0.302,0.461-0.453,1.151-0.453,2.072c0,0.922,0.154,1.656,0.461,2.205c0.307,0.548,0.861,1.25,1.661,2.105l2.385,2.582
				c1.195,1.295,2.098,2.605,2.706,3.932c0.609,1.327,0.913,2.775,0.913,4.344c0,2.708-0.455,4.71-1.365,6.004
				c-0.911,1.294-2.503,1.941-4.779,1.941s-3.86-0.722-4.754-2.163C55.841,237.466,55.394,235.362,55.394,232.599z"/>
		</g>
		<g>
			<path d="M71.495,240.742v-25.136h-3.389v-3.816h11.038v3.816h-3.257v25.136H71.495z"/>
		</g>
		<g>
			<path d="M80.737,240.742V211.79h9.706v3.8h-5.297v8.422h5.034v3.718h-5.034v9.213h5.494v3.8L80.737,240.742L80.737,240.742z"/>
		</g>
		<g>
			<path d="M99.141,227.138l-1.415-0.065v13.67h-4.409V211.79h7.288c1.513,0,2.643,0.304,3.389,0.912
				c0.746,0.609,1.236,1.459,1.472,2.55c0.236,1.092,0.354,2.518,0.354,4.277c0,1.761-0.187,3.101-0.559,4.022
				c-0.373,0.921-1.064,1.541-2.073,1.858c0.998,0.176,1.694,0.851,2.089,2.023c0.395,1.174,0.592,3.616,0.592,7.329
				c0,3.712,0.055,5.705,0.164,5.979h-4.408c-0.11-0.22-0.165-3.68-0.165-10.38c0-1.283-0.154-2.136-0.461-2.559
				C100.693,227.382,100.073,227.16,99.141,227.138z M97.743,223.65h1.76c0.559,0,0.973-0.126,1.242-0.379
				c0.269-0.252,0.455-0.685,0.56-1.299c0.104-0.614,0.156-1.552,0.156-2.813v-0.181c0-1.568-0.132-2.594-0.395-3.076
				s-0.872-0.724-1.826-0.724h-1.497V223.65z"/>
		</g>
		<g>
			<path d="M119.415,242.602c-1.066,0-1.933-0.087-2.598-0.26c-0.666-0.174-1.229-0.49-1.688-0.95
				c-0.46-0.461-0.784-1.085-0.971-1.873c-0.187-0.788-0.28-1.807-0.28-3.056v-14.506c0-1.249,0.093-2.268,0.28-3.056
				s0.51-1.413,0.971-1.873c0.46-0.46,1.023-0.777,1.688-0.95s1.531-0.26,2.598-0.26v2.734c-0.812,0-1.331,0.212-1.559,0.636
				s-0.342,1.328-0.342,2.714v14.615c0,1.386,0.114,2.29,0.342,2.714c0.228,0.424,0.747,0.636,1.559,0.636V242.602z"/>
		</g>
		<g>
			<path d="M122.912,240.742v-20.891h-2.816v-3.172h9.174v3.172h-2.707v20.891H122.912z"/>
		</g>
		<g>
			<path d="M130.729,240.742V216.68h3.664v24.062L130.729,240.742L130.729,240.742z"/>
		</g>
		<g>
			<path d="M137.439,240.742V216.68h5.523c1.868,0,3.146,0.567,3.835,1.702s1.051,2.828,1.087,5.079v0.506
				c0,2.388-0.34,4.199-1.019,5.435s-1.939,1.853-3.78,1.853h-1.982v9.488L137.439,240.742L137.439,240.742z M141.104,228.232h1.258
				c0.774,0,1.278-0.299,1.511-0.896s0.349-1.734,0.349-3.411v-0.465c-0.009-1.422-0.135-2.438-0.376-3.049
				s-0.727-0.916-1.456-0.916h-1.285L141.104,228.232L141.104,228.232z"/>
		</g>
		<g>
			<path d="M149.646,240.742V216.68h5.523c1.868,0,3.146,0.567,3.835,1.702s1.051,2.828,1.087,5.079v0.506
				c0,2.388-0.34,4.199-1.019,5.435s-1.939,1.853-3.78,1.853h-1.982v9.488L149.646,240.742L149.646,240.742z M153.31,228.232h1.258
				c0.774,0,1.278-0.299,1.511-0.896s0.349-1.734,0.349-3.411v-0.465c-0.009-1.422-0.135-2.438-0.376-3.049
				s-0.727-0.916-1.456-0.916h-1.285L153.31,228.232L153.31,228.232z"/>
		</g>
		<g>
			<path d="M161.853,240.742V216.68h8.066v3.158h-4.402v7h4.184v3.09h-4.184v7.656h4.566v3.158H161.853z"/>
		</g>
		<g>
			<path d="M172.309,240.742V216.68h3.664v20.945h4.635v3.117H172.309z"/>
		</g>
		<g>
			<path d="M182.149,240.742V216.68h3.664v24.062L182.149,240.742L182.149,240.742z"/>
		</g>
		<g>
			<path d="M193.385,240.988c-1.513,0-2.695-0.595-3.548-1.784s-1.278-3.023-1.278-5.503v-10.459c0-2.224,0.436-3.919,1.306-5.086
				s2.254-1.75,4.149-1.75c2.36,0,3.86,0.88,4.498,2.639c0.383,1.058,0.574,2.502,0.574,4.334v1.709h-3.418v-2.516
				c0-1.103-0.116-1.878-0.349-2.324s-0.67-0.67-1.312-0.67s-1.096,0.267-1.36,0.8s-0.396,1.479-0.396,2.837v10.432
				c0,1.577,0.118,2.675,0.355,3.295s0.699,0.93,1.388,0.93s1.176-0.333,1.463-0.998s0.431-1.786,0.431-3.363v-3.24h-1.846v-2.666
				h5.045v13.139h-1.641l-0.561-2.365c-0.191,0.812-0.61,1.449-1.258,1.914S194.232,240.988,193.385,240.988z"/>
		</g>
		<g>
			<path d="M200.737,240.742l3.432-24.062h4.84l3.65,24.062h-3.418l-0.574-4.293h-3.883l-0.52,4.293H200.737z M208.284,233.51
				l-1.613-12.086h-0.055l-1.477,12.086H208.284z"/>
		</g>
		<g>
			<path d="M214.476,240.742V216.68h8.066v3.158h-4.402v7h4.184v3.09h-4.184v7.656h4.566v3.158H214.476z"/>
		</g>
		<g>
			<path d="M224.932,240.742V216.68h2.871l5.1,14.438l-0.26-6.562v-7.875h3.295v24.062h-2.598l-5.236-14.943l0.205,6.316v8.627
				L224.932,240.742L224.932,240.742z"/>
		</g>
		<g>
			<path d="M238.218,242.602v-2.734c0.811,0,1.33-0.212,1.559-0.636c0.228-0.424,0.342-1.328,0.342-2.714v-14.615
				c0-1.386-0.114-2.29-0.342-2.714c-0.229-0.424-0.748-0.636-1.559-0.636v-2.734c1.066,0,1.932,0.087,2.598,0.26
				c0.665,0.173,1.226,0.49,1.682,0.95c0.455,0.46,0.776,1.085,0.964,1.873c0.187,0.788,0.28,1.807,0.28,3.056v14.506
				c0,1.249-0.094,2.268-0.28,3.056c-0.188,0.788-0.509,1.412-0.964,1.873c-0.456,0.46-1.017,0.776-1.682,0.95
				C240.149,242.515,239.284,242.602,238.218,242.602z"/>
		</g>
	</g>
</g>
</svg>
