<?xml version="1.0" encoding="utf-8"?>
<!-- Generator: Adobe Illustrator 17.0.0, SVG Export Plug-In . SVG Version: 6.00 Build 0)  -->
<!DOCTYPE svg PUBLIC "-//W3C//DTD SVG 1.1//EN" "http://www.w3.org/Graphics/SVG/1.1/DTD/svg11.dtd">
<svg version="1.1" id="Layer_1" xmlns="http://www.w3.org/2000/svg" xmlns:xlink="http://www.w3.org/1999/xlink" x="0px" y="0px"
	 width="256px" height="256px" viewBox="0 0 256 256" enable-background="new 0 0 256 256" xml:space="preserve">
<polygon fill="#FFFF00" points="128,188.6 53.1,243.2 82,155.1 6.8,100.8 99.5,101 128,12.8 156.5,101 249.2,100.8 174,155.1 
	202.9,243.2 "/>
<path fill="#FFFFFF" d="M192,10.3c-17.1,0-32.4,8-42.3,20.6h-0.3v0.3c-7.1,9.1-11.4,20.6-11.4,33c0,29.7,24.2,53.9,53.9,53.9
	s53.9-24.2,53.9-53.9S221.7,10.3,192,10.3z"/>
<path d="M192,10.3c-17.1,0-32.4,8-42.3,20.6h-0.3v0.3c-7.1,9.1-11.4,20.6-11.4,33c0,29.7,24.2,53.9,53.9,53.9s53.9-24.2,53.9-53.9
	S221.7,10.3,192,10.3z M208.6,100.9l-23.1-3L183.7,78l17.6-10.7L217,82.4L208.6,100.9z M171.2,103.3L151.9,89l-2.1-14.7l11.8-7.4
	L181.5,78l1.9,20.2L171.2,103.3z M149.1,72.2L142,57.4l9.3-15.3l9.7,2l-0.2,20.8L149.1,72.2z M188.3,19l21.3,2.9l7.3,13.6l-16.1,7.9
	l-16.5-11.5L188.3,19z M231.4,74.4l-12.6,6.7l-16.9-16.2l0.2-19.7l16-7.9L232.3,50L231.4,74.4z M233.5,74.9l1-24.5l7.1-0.9
	c1.4,4.7,2.1,9.6,2.1,14.7c0,4.6-0.6,9-1.7,13.2L233.5,74.9z M240.9,47.4l-7.1,0.9l-14.6-13.1L212,21.9l6.1-2.4
	C228.7,25.7,236.9,35.6,240.9,47.4z M178.8,14.2l7.4,4.1L182,32.1L162.3,42l-10.5-2.1l-0.2-8.1C158.5,23.4,167.9,17,178.8,14.2z
	 M149.7,40.5l-8.5,14.1c1.4-7.3,4.3-14.1,8.4-20L149.7,40.5z M140.5,59.2l7.1,14.9l2.1,14.8l-2.9,0.4c-4.1-7.4-6.5-16-6.5-25.1
	C140.3,62.5,140.4,60.8,140.5,59.2z M172.4,112.1l-0.2-6.8l12.5-5.3l23.9,3.1l4.4,8.4c-6.4,2.9-13.5,4.5-21,4.5
	C185.1,115.9,178.5,114.5,172.4,112.1z"/>
<g>
	<path fill="none" stroke="#000000" stroke-width="3" stroke-miterlimit="10" d="M157.6,137"/>
	<path fill="#FF0000" d="M157.6,137"/>
</g>
<g>
	<path fill="#FFFFFF" d="M213.628,171.891c19.817-10.827,32.476-33.254,33.146-36.606c0.67-3.351-0.659-4.047-3.067-6.39
		s-7.035-0.272-7.035-0.272s-20.535,18.239-30.195,25.487c-9.743,7.362-51.267,19.902-56.819,23.137s-44.436,17.675-50.699,26.497
		c0.138,2.713-1.466,9.661,5.321,5.921C111.066,205.924,180.946,189.575,213.628,171.891z"/>
	<g>
		<path fill="none" stroke="#000000" stroke-width="3" stroke-miterlimit="10" d="M183.673,145.362
			c3.308-0.843,6.007-1.688,8.047-2.223c4.345-1.316,9.349-2.941,15.95-5.334c8.692-3.24,18.247-8.646,21.835-9.636
			c6.303-1.736,12.331-0.185,12.331-0.185c2.984,2.148-20.447,21.264-26.07,25.929c-14.478,11.882-60.772,24.996-93.952,39.622
			c-11.823,5.168-16.888,10.147-16.888,10.147s9.154-3.518,15.654-5.286c14.433-4.074,77.538-19.724,93.524-30.433
			c20.634-13.898,30.518-32.834,30.481-36.172c5.365,7.434,2.086,14.047-0.824,18.574c-2.926,4.428-0.353,6.542-1.574,7.754
			c-0.677,0.82-4.306-0.312-7.228,2.9c-2.922,3.212-3.901,5.904-7.514,9.228c-3.629,3.225-0.468,6.459-2.747,9.262
			c-2.295,2.704-5.172-1.893-8.649,0.396c-3.461,2.388-5.44,3.926-11.517,7.043c-5.979,3.102-2.081,7.127-4.404,8.418
			c-2.192,1.472-6.758-4.168-11.337-1.801s-22.167,15.06-28.215,18.984c-6.147,3.94-0.735,12.278-2.65,14.211
			c-1.221,1.212-5.679-2.52-9.625-2.485c-2.318,0.074-4.478,1.743-6.672,3.823c-5.873,5.617-0.254,10.882-2.792,12.714
			s-4.566-1.283-9.23-2.549c-4.664-1.267-8.44,1.679-13.488-2.565c-24.257-20.162-21.278-43.545-21.278-43.545
			c1.54-2.986,2.557-2.342,7.354-1.502c4.781,0.741,12.935,1.034,18.672-3.548c5.639-4.566,11.337-16.234,10.517-21.268
			c-0.82-5.034-2.418-8.623,4.177-9.191c2.697-0.237,10.643-1.835,19.825-3.939l4.196-0.987
			C161.952,150.724,161.952,150.724,183.673,145.362z"/>
		<path fill="#0095EB" d="M183.673,145.362c3.308-0.843,6.007-1.688,8.047-2.223c4.345-1.316,9.349-2.941,15.95-5.334
			c8.692-3.24,18.247-8.646,21.835-9.636c6.303-1.736,12.331-0.185,12.331-0.185c2.984,2.148-20.447,21.264-26.07,25.929
			c-14.478,11.882-60.772,24.996-93.952,39.622c-11.823,5.168-16.888,10.147-16.888,10.147s9.154-3.518,15.654-5.286
			c14.433-4.074,77.538-19.724,93.524-30.433c20.634-13.898,30.518-32.834,30.481-36.172c5.365,7.434,2.086,14.047-0.824,18.574
			c-2.926,4.428-0.353,6.542-1.574,7.754c-0.677,0.82-4.306-0.312-7.228,2.9c-2.922,3.212-3.901,5.904-7.514,9.228
			c-3.629,3.225-0.468,6.459-2.747,9.262c-2.295,2.704-5.172-1.893-8.649,0.396c-3.461,2.388-5.44,3.926-11.517,7.043
			c-5.979,3.102-2.081,7.127-4.404,8.418c-2.192,1.472-6.758-4.168-11.337-1.801s-22.167,15.06-28.215,18.984
			c-6.147,3.94-0.735,12.278-2.65,14.211c-1.221,1.212-5.679-2.52-9.625-2.485c-2.318,0.074-4.478,1.743-6.672,3.823
			c-5.873,5.617-0.254,10.882-2.792,12.714s-4.566-1.283-9.23-2.549c-4.664-1.267-8.44,1.679-13.488-2.565
			c-24.257-20.162-21.278-43.545-21.278-43.545c1.54-2.986,2.557-2.342,7.354-1.502c4.781,0.741,12.935,1.034,18.672-3.548
			c5.639-4.566,11.337-16.234,10.517-21.268c-0.82-5.034-2.418-8.623,4.177-9.191c2.697-0.237,10.643-1.835,19.825-3.939
			l4.196-0.987C161.952,150.724,161.952,150.724,183.673,145.362z"/>
	</g>
	<g>
		<g>
			<g>
				<path fill="none" stroke="#1D1D1B" stroke-width="3" d="M155.83,166.007c-0.197,0.032-0.395,0.064-0.608-0.002
					c-1.051-0.234-1.82-1.223-1.685-2.258l2.454-14.787c0.234-1.051,1.223-1.82,2.258-1.685c1.051,0.234,1.82,1.223,1.685,2.258
					l-2.454,14.787C157.329,165.256,156.619,165.879,155.83,166.007z"/>
			</g>
			<g>
				<path fill="none" stroke="#1D1D1B" stroke-width="3" d="M164.804,162.012c-0.197,0.032-0.395,0.064-0.608-0.002
					c-1.051-0.234-1.82-1.223-1.685-2.258l1.918-11.863c0.234-1.051,1.223-1.82,2.258-1.685c1.051,0.234,1.82,1.223,1.685,2.258
					l-1.918,11.863C166.303,161.261,165.594,161.884,164.804,162.012z"/>
			</g>
			<g>
				<path fill="none" stroke="#1D1D1B" stroke-width="3" d="M172.344,159.163c-0.197,0.032-0.395,0.064-0.608-0.002
					c-1.051-0.234-1.82-1.223-1.685-2.258l1.817-11.238c0.234-1.051,1.223-1.82,2.258-1.685c1.051,0.234,1.82,1.223,1.685,2.258
					l-1.817,11.238C173.843,158.412,173.134,159.034,172.344,159.163z"/>
			</g>
			<g>
				<path fill="none" stroke="#1D1D1B" stroke-width="3" d="M180.795,154.443c-0.197,0.032-0.395,0.064-0.608-0.002
					c-1.051-0.234-1.82-1.223-1.685-2.258l1.48-8.954c0.234-1.051,1.223-1.82,2.258-1.685c1.051,0.234,1.82,1.223,1.685,2.258
					l-1.479,8.954C182.294,153.692,181.585,154.314,180.795,154.443z"/>
			</g>
		</g>
		<g>
			<g>
				<path fill="#FFFF00" d="M155.83,166.007c-0.197,0.032-0.395,0.064-0.608-0.002c-1.051-0.234-1.82-1.223-1.685-2.258
					l2.454-14.787c0.234-1.051,1.223-1.82,2.258-1.685c1.051,0.234,1.82,1.223,1.685,2.258l-2.454,14.787
					C157.329,165.256,156.619,165.879,155.83,166.007z"/>
			</g>
			<g>
				<path fill="#FFFF00" d="M164.804,162.012c-0.197,0.032-0.395,0.064-0.608-0.002c-1.051-0.234-1.82-1.223-1.685-2.258
					l1.918-11.863c0.234-1.051,1.223-1.82,2.258-1.685c1.051,0.234,1.82,1.223,1.685,2.258l-1.918,11.863
					C166.303,161.261,165.594,161.884,164.804,162.012z"/>
			</g>
			<g>
				<path fill="#FFFF00" d="M172.344,159.163c-0.197,0.032-0.395,0.064-0.608-0.002c-1.051-0.234-1.82-1.223-1.685-2.258
					l1.817-11.238c0.234-1.051,1.223-1.82,2.258-1.685c1.051,0.234,1.82,1.223,1.685,2.258l-1.817,11.238
					C173.843,158.412,173.134,159.034,172.344,159.163z"/>
			</g>
			<g>
				<path fill="#FFFF00" d="M180.795,154.443c-0.197,0.032-0.395,0.064-0.608-0.002c-1.051-0.234-1.82-1.223-1.685-2.258l1.48-8.954
					c0.234-1.051,1.223-1.82,2.258-1.685c1.051,0.234,1.82,1.223,1.685,2.258l-1.479,8.954
					C182.294,153.692,181.585,154.314,180.795,154.443z"/>
			</g>
		</g>
	</g>
</g>
<g>
	<g>
		<circle fill="#F0F0F0" cx="191.3" cy="65.3" r="41"/>
		<path fill="#D80027" d="M191.3,24.4c-16.2,0-30.3,9.5-36.9,23.2h73.8C221.6,33.8,207.6,24.4,191.3,24.4z"/>
		<path fill="#0052B4" d="M191.3,106.3c16.2,0,30.3-9.5,36.9-23.2h-73.8C161.1,96.8,175.1,106.3,191.3,106.3z"/>
		<path fill="#6DA544" d="M201.4,53.5l-3.8,3.8c1.6,1.6,2.6,3.8,2.6,6.3c0,4.9-4,8.9-8.9,8.9s-8.9-4-8.9-8.9c0-2.5,1-4.7,2.6-6.3
			l-3.8-3.8c-2.6,2.6-4.2,6.1-4.2,10.1c0,7.9,6.4,14.2,14.2,14.2c7.9,0,14.2-6.4,14.2-14.2C205.6,59.6,204,56,201.4,53.5z"/>
		<polygon fill="#FFDA44" points="191.3,58.2 192.7,62.3 197,62.3 193.5,64.8 194.8,68.9 191.3,66.4 187.9,68.9 189.2,64.8 
			185.7,62.3 190,62.3 		"/>
	</g>
	<ellipse fill="none" stroke="#020200" stroke-width="1.4754" stroke-miterlimit="10" cx="191.6" cy="65.2" rx="40.8" ry="40.6"/>
</g>
<g>
	<path d="M17.623,126.833v-17.188h3.945c1.334,0,2.248,0.405,2.739,1.216s0.75,2.02,0.776,3.628v0.361c0,1.706-0.243,3-0.728,3.882
		s-1.385,1.323-2.7,1.323H20.24v6.777L17.623,126.833L17.623,126.833z M20.24,117.898h0.898c0.553,0,0.913-0.213,1.079-0.64
		s0.249-1.239,0.249-2.437v-0.332c-0.006-1.016-0.096-1.742-0.269-2.178s-0.519-0.654-1.04-0.654H20.24V117.898z"/>
	<path d="M25.777,126.833l2.451-17.188h3.457l2.607,17.188h-2.441l-0.41-3.066h-2.773l-0.371,3.066
		C28.297,126.833,25.777,126.833,25.777,126.833z M31.167,121.667l-1.152-8.633h-0.039l-1.055,8.633H31.167z"/>
	<path d="M39.546,118.757l-0.84-0.039v8.115h-2.617v-17.188h4.326c0.898,0,1.569,0.181,2.012,0.542s0.734,0.866,0.874,1.514
		s0.21,1.494,0.21,2.539s-0.111,1.841-0.332,2.388s-0.631,0.915-1.23,1.104c0.592,0.104,1.006,0.504,1.24,1.201
		s0.352,2.147,0.352,4.351s0.033,3.387,0.098,3.55h-2.617c-0.065-0.13-0.098-2.184-0.098-6.162c0-0.762-0.091-1.268-0.273-1.519
		S40.1,118.771,39.546,118.757z M38.716,116.687h1.045c0.332,0,0.578-0.075,0.737-0.225s0.27-0.407,0.332-0.771
		s0.093-0.921,0.093-1.67v-0.107c0-0.931-0.078-1.54-0.234-1.826s-0.518-0.43-1.084-0.43h-0.889
		C38.716,111.658,38.716,116.687,38.716,116.687z"/>
	<path d="M45.171,126.833l2.451-17.188h3.457l2.607,17.188h-2.441l-0.41-3.066h-2.773l-0.371,3.066
		C47.691,126.833,45.171,126.833,45.171,126.833z M50.562,121.667l-1.152-8.633h-0.039l-1.055,8.633H50.562z"/>
	<path d="M58.667,127.009c-1.081,0-1.925-0.425-2.534-1.274s-0.913-2.16-0.913-3.931v-7.471c0-1.588,0.311-2.799,0.933-3.633
		s1.61-1.25,2.964-1.25c1.686,0,2.757,0.628,3.213,1.885c0.273,0.755,0.41,1.787,0.41,3.096v1.221h-2.441v-1.797
		c0-0.788-0.083-1.341-0.249-1.66s-0.479-0.479-0.938-0.479s-0.783,0.19-0.972,0.571s-0.283,1.056-0.283,2.026v7.451
		c0,1.126,0.084,1.911,0.254,2.354s0.5,0.664,0.991,0.664s0.84-0.238,1.045-0.713s0.308-1.276,0.308-2.402v-2.314h-1.318v-1.904
		h3.604v9.385h-1.172l-0.4-1.689c-0.137,0.58-0.436,1.035-0.898,1.367S59.273,127.009,58.667,127.009z"/>
	<path d="M71.783,125.911c-0.599,0.746-1.561,1.118-2.886,1.118s-2.289-0.375-2.891-1.123s-0.903-1.911-0.903-3.486v-12.783h2.617
		v12.734c0,0.905,0.042,1.455,0.127,1.65s0.187,0.373,0.308,0.532s0.37,0.239,0.747,0.239s0.648-0.111,0.811-0.332
		s0.262-0.497,0.298-0.825s0.054-0.75,0.054-1.265v-12.734h2.617v12.783C72.681,124.001,72.382,125.165,71.783,125.911z"/>
	<path d="M74.38,126.833l2.451-17.188h3.457l2.607,17.188h-2.441l-0.41-3.066h-2.773l-0.371,3.066
		C76.9,126.833,74.38,126.833,74.38,126.833z M79.771,121.667l-1.152-8.633H78.58l-1.055,8.633H79.771z"/>
	<path d="M86.031,126.833v-6.865l-2.881-10.322h2.5l1.699,6.426h0.039l1.514-6.426h2.49l-2.744,10.322v6.865H86.031z"/>
	<path d="M92.427,122v-1.533h2.48v1.729c0,0.957,0.082,1.629,0.244,2.017s0.469,0.581,0.918,0.581s0.747-0.16,0.894-0.479
		s0.22-0.84,0.22-1.562s-0.13-1.353-0.391-1.89s-0.674-1.099-1.24-1.685l-1.27-1.309c-0.592-0.619-1.053-1.26-1.382-1.924
		s-0.493-1.432-0.493-2.305c0-1.419,0.273-2.474,0.82-3.164s1.488-1.035,2.822-1.035s2.238,0.402,2.71,1.206
		s0.708,1.978,0.708,3.521v1.064h-2.412v-1.23c0-0.833-0.072-1.431-0.215-1.792s-0.418-0.542-0.825-0.542s-0.7,0.137-0.879,0.41
		s-0.269,0.684-0.269,1.23s0.091,0.983,0.273,1.309s0.511,0.742,0.986,1.25l1.416,1.533c0.709,0.768,1.245,1.546,1.606,2.334
		s0.542,1.647,0.542,2.578c0,1.608-0.27,2.796-0.811,3.564s-1.486,1.152-2.837,1.152s-2.292-0.428-2.822-1.284
		S92.427,123.64,92.427,122z"/>
	<path d="M17.613,150.833v-17.188h5.898v2.275H20.23v4.57h3.047v2.285H20.23v8.057L17.613,150.833L17.613,150.833z"/>
	<path d="M31.978,149.91c-0.599,0.746-1.561,1.118-2.886,1.118s-2.289-0.374-2.891-1.123c-0.602-0.748-0.903-1.91-0.903-3.486
		v-12.783h2.617v12.734c0,0.905,0.042,1.455,0.127,1.65s0.187,0.373,0.308,0.532c0.121,0.16,0.37,0.239,0.747,0.239
		s0.648-0.11,0.811-0.332c0.163-0.221,0.262-0.496,0.298-0.825c0.036-0.328,0.054-0.75,0.054-1.265v-12.734h2.617v12.783
		C32.876,148.001,32.577,149.165,31.978,149.91z"/>
	<path d="M35.015,145.999v-1.533h2.48v1.729c0,0.957,0.082,1.63,0.244,2.017c0.163,0.388,0.469,0.581,0.918,0.581
		s0.747-0.159,0.894-0.479c0.146-0.318,0.22-0.84,0.22-1.562s-0.13-1.353-0.391-1.89s-0.674-1.099-1.24-1.685l-1.27-1.309
		c-0.592-0.618-1.053-1.26-1.382-1.924s-0.493-1.432-0.493-2.305c0-1.419,0.273-2.474,0.82-3.164
		c0.547-0.689,1.488-1.035,2.822-1.035s2.238,0.402,2.71,1.206c0.472,0.805,0.708,1.978,0.708,3.521v1.064h-2.412v-1.23
		c0-0.833-0.072-1.431-0.215-1.792s-0.418-0.542-0.825-0.542s-0.7,0.137-0.879,0.41s-0.269,0.684-0.269,1.23
		s0.091,0.983,0.273,1.309s0.511,0.742,0.986,1.25l1.416,1.533c0.709,0.769,1.245,1.547,1.606,2.334
		c0.361,0.788,0.542,1.647,0.542,2.578c0,1.608-0.27,2.797-0.811,3.564c-0.541,0.769-1.486,1.152-2.837,1.152
		s-2.292-0.428-2.822-1.284C35.28,148.889,35.015,147.64,35.015,145.999z"/>
	<path d="M43.853,145.999v-1.533h2.48v1.729c0,0.957,0.082,1.63,0.244,2.017c0.163,0.388,0.469,0.581,0.918,0.581
		s0.747-0.159,0.894-0.479c0.146-0.318,0.22-0.84,0.22-1.562s-0.13-1.353-0.391-1.89s-0.674-1.099-1.24-1.685l-1.27-1.309
		c-0.592-0.618-1.053-1.26-1.382-1.924s-0.493-1.432-0.493-2.305c0-1.419,0.273-2.474,0.82-3.164
		c0.547-0.689,1.488-1.035,2.822-1.035s2.238,0.402,2.71,1.206c0.472,0.805,0.708,1.978,0.708,3.521v1.064h-2.412v-1.23
		c0-0.833-0.072-1.431-0.215-1.792s-0.418-0.542-0.825-0.542s-0.7,0.137-0.879,0.41s-0.269,0.684-0.269,1.23
		s0.091,0.983,0.273,1.309s0.511,0.742,0.986,1.25l1.416,1.533c0.709,0.769,1.245,1.547,1.606,2.334
		c0.361,0.788,0.542,1.647,0.542,2.578c0,1.608-0.27,2.797-0.811,3.564c-0.541,0.769-1.486,1.152-2.837,1.152
		s-2.292-0.428-2.822-1.284C44.118,148.889,43.853,147.64,43.853,145.999z"/>
	<path d="M60.386,138.06c0,1.85-0.501,2.985-1.504,3.408c1.224,0.41,1.836,1.762,1.836,4.053v0.439
		c-0.013,1.726-0.314,2.969-0.903,3.73s-1.551,1.143-2.886,1.143H53.13v-17.188h3.721c1.283,0,2.191,0.298,2.725,0.894
		s0.804,1.594,0.811,2.993L60.386,138.06L60.386,138.06z M55.748,140.599h0.967c0.449,0,0.744-0.143,0.884-0.43
		c0.14-0.286,0.21-0.875,0.21-1.768v-1.035c-0.006-0.664-0.098-1.108-0.273-1.333s-0.479-0.337-0.908-0.337h-0.879L55.748,140.599
		L55.748,140.599z M55.748,148.802h0.928c0.521,0,0.885-0.179,1.094-0.537c0.208-0.357,0.312-0.999,0.312-1.924v-1.387
		c0-0.872-0.084-1.489-0.254-1.851s-0.495-0.542-0.977-0.542h-1.104L55.748,148.802L55.748,148.802z"/>
	<path d="M61.978,150.833l2.451-17.188h3.457l2.607,17.188h-2.441l-0.41-3.066h-2.773l-0.371,3.066H61.978z M67.369,145.667
		l-1.152-8.633h-0.039l-1.055,8.633H67.369z"/>
	<path d="M72.291,150.833v-17.188h2.617v14.961h3.311v2.227H72.291z"/>
	<path d="M79.722,150.833v-17.188h2.617v14.961h3.311v2.227H79.722z"/>
	<path d="M87.154,150.833v-17.188h5.762v2.256h-3.145v5h2.988v2.207h-2.988v5.469h3.262v2.256L87.154,150.833L87.154,150.833z"/>
	<path d="M98.58,142.757l-0.84-0.039v8.115h-2.617v-17.188h4.326c0.898,0,1.569,0.181,2.012,0.542s0.734,0.866,0.874,1.514
		c0.14,0.648,0.21,1.494,0.21,2.539s-0.111,1.841-0.332,2.388s-0.631,0.915-1.23,1.104c0.592,0.104,1.006,0.505,1.24,1.201
		c0.234,0.697,0.352,2.147,0.352,4.351s0.033,3.388,0.098,3.55h-2.617c-0.065-0.13-0.098-2.184-0.098-6.162
		c0-0.762-0.091-1.268-0.273-1.519C99.501,142.902,99.133,142.771,98.58,142.757z M97.75,140.687h1.045
		c0.332,0,0.578-0.074,0.737-0.225c0.16-0.149,0.27-0.406,0.332-0.771c0.062-0.364,0.093-0.921,0.093-1.67v-0.107
		c0-0.931-0.078-1.539-0.234-1.826c-0.156-0.286-0.518-0.43-1.084-0.43H97.75V140.687z"/>
	<path d="M108.56,150.833v-17.188h3.857c1.263,0,2.179,0.373,2.749,1.118c0.57,0.746,0.854,1.845,0.854,3.296l0.01,7.754
		c0,1.732-0.287,3.002-0.859,3.809c-0.573,0.808-1.52,1.211-2.842,1.211H108.56z M111.177,148.802h0.859
		c0.482,0,0.832-0.156,1.05-0.469s0.327-0.885,0.327-1.719l-0.01-8.486c0-0.892-0.109-1.526-0.327-1.904
		c-0.218-0.377-0.594-0.566-1.128-0.566h-0.771V148.802z"/>
	<path d="M118.384,150.833v-17.188h5.762v2.256h-3.145v5h2.988v2.207h-2.988v5.469h3.262v2.256L118.384,150.833L118.384,150.833z"/>
	<path d="M126.011,145.999v-1.533h2.48v1.729c0,0.957,0.082,1.63,0.244,2.017c0.163,0.388,0.469,0.581,0.918,0.581
		s0.747-0.159,0.894-0.479c0.146-0.318,0.22-0.84,0.22-1.562s-0.13-1.353-0.391-1.89c-0.26-0.537-0.674-1.099-1.24-1.685
		l-1.269-1.309c-0.592-0.618-1.053-1.26-1.382-1.924s-0.493-1.432-0.493-2.305c0-1.419,0.273-2.474,0.82-3.164
		c0.547-0.689,1.488-1.035,2.822-1.035c1.335,0,2.238,0.402,2.71,1.206c0.473,0.805,0.708,1.978,0.708,3.521v1.064h-2.412v-1.23
		c0-0.833-0.071-1.431-0.215-1.792c-0.143-0.361-0.418-0.542-0.825-0.542c-0.406,0-0.699,0.137-0.879,0.41
		c-0.179,0.273-0.268,0.684-0.268,1.23s0.091,0.983,0.273,1.309c0.183,0.326,0.512,0.742,0.986,1.25l1.416,1.533
		c0.71,0.769,1.245,1.547,1.606,2.334c0.361,0.788,0.542,1.647,0.542,2.578c0,1.608-0.27,2.797-0.811,3.564
		c-0.54,0.769-1.485,1.152-2.837,1.152c-1.351,0-2.291-0.428-2.822-1.284C126.276,148.889,126.011,147.64,126.011,145.999z"/>
	<path d="M23.16,173.881c-0.619,0.766-1.489,1.147-2.612,1.147s-1.996-0.34-2.617-1.021c-0.622-0.68-0.933-1.671-0.933-2.974v-3.066
		h2.529v2.939c0,0.951,0.153,1.53,0.459,1.738c0.137,0.092,0.306,0.137,0.508,0.137c0.397,0,0.659-0.162,0.786-0.488
		c0.127-0.325,0.19-0.84,0.19-1.543v-13.105h2.617v12.979C24.087,172.03,23.778,173.116,23.16,173.881z"/>
	<path d="M25.787,174.833l2.451-17.188h3.457l2.607,17.188h-2.441l-0.41-3.066h-2.773l-0.371,3.066H25.787z M31.177,169.667
		l-1.152-8.633h-0.039l-1.055,8.633H31.177z"/>
	<path d="M36.099,174.833v-17.188h2.617v6.953h2.344v-6.953h2.617v17.188H41.06v-7.988h-2.344v7.988H36.099z"/>
	<path d="M49.712,166.757l-0.84-0.039v8.115h-2.617v-17.188h4.326c0.898,0,1.569,0.181,2.012,0.542s0.734,0.866,0.874,1.514
		c0.14,0.648,0.21,1.494,0.21,2.539s-0.111,1.841-0.332,2.388s-0.631,0.915-1.23,1.104c0.592,0.104,1.006,0.505,1.24,1.201
		c0.234,0.697,0.352,2.147,0.352,4.351s0.033,3.388,0.098,3.55h-2.617c-0.065-0.13-0.098-2.184-0.098-6.162
		c0-0.762-0.091-1.268-0.273-1.519C50.634,166.902,50.266,166.771,49.712,166.757z M48.882,164.687h1.045
		c0.332,0,0.578-0.074,0.737-0.225c0.16-0.149,0.27-0.406,0.332-0.771c0.062-0.364,0.093-0.921,0.093-1.67v-0.107
		c0-0.931-0.078-1.539-0.234-1.826c-0.156-0.286-0.518-0.43-1.084-0.43h-0.889C48.882,159.658,48.882,164.687,48.882,164.687z"/>
	<path d="M56.119,174.833v-17.188h5.762v2.256h-3.145v5h2.988v2.207h-2.988v5.469h3.262v2.256L56.119,174.833L56.119,174.833z"/>
	<path d="M63.746,169.999v-1.533h2.48v1.729c0,0.957,0.082,1.63,0.244,2.017c0.163,0.388,0.469,0.581,0.918,0.581
		s0.747-0.159,0.894-0.479c0.146-0.318,0.22-0.84,0.22-1.562s-0.13-1.353-0.391-1.89s-0.674-1.099-1.24-1.685l-1.27-1.309
		c-0.592-0.618-1.053-1.26-1.382-1.924s-0.493-1.432-0.493-2.305c0-1.419,0.273-2.474,0.82-3.164
		c0.547-0.689,1.488-1.035,2.822-1.035s2.238,0.402,2.71,1.206c0.472,0.805,0.708,1.978,0.708,3.521v1.064h-2.412v-1.23
		c0-0.833-0.072-1.431-0.215-1.792s-0.418-0.542-0.825-0.542s-0.7,0.137-0.879,0.41s-0.269,0.684-0.269,1.23
		s0.091,0.983,0.273,1.309s0.511,0.742,0.986,1.25l1.416,1.533c0.709,0.769,1.245,1.547,1.606,2.334
		c0.361,0.788,0.542,1.647,0.542,2.578c0,1.608-0.27,2.797-0.811,3.564c-0.541,0.769-1.486,1.152-2.837,1.152
		s-2.292-0.428-2.822-1.284C64.011,172.889,63.746,171.64,63.746,169.999z"/>
</g>
</svg>
