<?xml version="1.0" encoding="utf-8"?>
<!-- Generator: Adobe Illustrator 17.0.0, SVG Export Plug-In . SVG Version: 6.00 Build 0)  -->
<!DOCTYPE svg PUBLIC "-//W3C//DTD SVG 1.1//EN" "http://www.w3.org/Graphics/SVG/1.1/DTD/svg11.dtd">
<svg version="1.1" id="Layer_1" xmlns="http://www.w3.org/2000/svg" xmlns:xlink="http://www.w3.org/1999/xlink" x="0px" y="0px"
	 width="256px" height="256px" viewBox="0 0 256 256" enable-background="new 0 0 256 256" xml:space="preserve">
<polygon fill="#FFFF00" points="128,188.6 53.1,243.2 82,155.1 6.8,100.8 99.5,101 128,12.8 156.5,101 249.2,100.8 174,155.1 
	202.9,243.2 "/>
<path fill="#FFFFFF" d="M192,10.3c-17.1,0-32.4,8-42.3,20.6h-0.3v0.3c-7.1,9.1-11.4,20.6-11.4,33c0,29.7,24.2,53.9,53.9,53.9
	s53.9-24.2,53.9-53.9S221.7,10.3,192,10.3z"/>
<path d="M192,10.3c-17.1,0-32.4,8-42.3,20.6h-0.3v0.3c-7.1,9.1-11.4,20.6-11.4,33c0,29.7,24.2,53.9,53.9,53.9s53.9-24.2,53.9-53.9
	S221.7,10.3,192,10.3z M208.6,100.9l-23.1-3L183.7,78l17.6-10.7L217,82.4L208.6,100.9z M171.2,103.3L151.9,89l-2.1-14.7l11.8-7.4
	L181.5,78l1.9,20.2L171.2,103.3z M149.1,72.2L142,57.4l9.3-15.3l9.7,2l-0.2,20.8L149.1,72.2z M188.3,19l21.3,2.9l7.3,13.6l-16.1,7.9
	l-16.5-11.5L188.3,19z M231.4,74.4l-12.6,6.7l-16.9-16.2l0.2-19.7l16-7.9L232.3,50L231.4,74.4z M233.5,74.9l1-24.5l7.1-0.9
	c1.4,4.7,2.1,9.6,2.1,14.7c0,4.6-0.6,9-1.7,13.2L233.5,74.9z M240.9,47.4l-7.1,0.9l-14.6-13.1L212,21.9l6.1-2.4
	C228.7,25.7,236.9,35.6,240.9,47.4z M178.8,14.2l7.4,4.1L182,32.1L162.3,42l-10.5-2.1l-0.2-8.1C158.5,23.4,167.9,17,178.8,14.2z
	 M149.7,40.5l-8.5,14.1c1.4-7.3,4.3-14.1,8.4-20L149.7,40.5z M140.5,59.2l7.1,14.9l2.1,14.8l-2.9,0.4c-4.1-7.4-6.5-16-6.5-25.1
	C140.3,62.5,140.4,60.8,140.5,59.2z M172.4,112.1l-0.2-6.8l12.5-5.3l23.9,3.1l4.4,8.4c-6.4,2.9-13.5,4.5-21,4.5
	C185.1,115.9,178.5,114.5,172.4,112.1z"/>
<g>
	<path fill="none" stroke="#000000" stroke-width="3" stroke-miterlimit="10" d="M157.6,137"/>
	<path fill="#FF0000" d="M157.6,137"/>
</g>
<g>
	<path fill="#FFFFFF" d="M208.323,166.973c21.52-6.865,38.129-26.609,39.366-29.771s0.142-4.017-1.899-6.818
		c-1.943-2.787-6.855-1.537-6.855-1.537s-23.606,14.05-34.431,19.442c-10.824,5.392-53.928,9.931-59.98,12.136
		c-6.052,2.205-46.961,9.161-54.731,16.583c-0.363,2.675-3.274,9.243,4.12,6.817C101.321,181.299,172.961,178.417,208.323,166.973z"
		/>
	<g>
		<path fill="none" stroke="#000000" stroke-width="3" stroke-miterlimit="10" d="M183.852,135.392
			c3.364-0.249,6.219-0.467,8.269-0.693c4.508-0.498,9.737-1.099,16.658-2.278c9.097-1.59,19.467-5.126,23.241-5.421
			c6.53-0.526,12.134,2.052,12.134,2.052c2.465,2.656-24.024,17.122-30.449,20.588c-16.457,8.966-64.37,13.255-99.685,21.375
			c-12.609,2.929-18.494,6.873-18.494,6.873s9.619-1.721,16.361-2.319c14.911-1.305,79.786-4.904,97.568-12.479
			c22.829-9.816,36.107-26.581,36.664-29.937c3.918,8.303-0.524,14.259-4.274,18.089c-3.651,3.844-1.569,6.347-3.018,7.361
			c-0.801,0.698-4.18-1.173-7.57,1.495c-3.377,2.569-4.929,5.083-9.112,7.643s-1.654,6.234-4.396,8.586
			c-2.728,2.253-4.757-2.867-8.621-1.171c-3.863,1.695-6.047,2.912-12.667,4.839c-6.408,1.854-3.32,6.613-5.959,7.466
			c-2.454,0.979-5.934-5.348-10.874-3.899c-4.94,1.448-24.563,10.691-31.29,13.41c-6.727,2.719-2.931,11.914-5.254,13.415
			c-1.436,0.915-5.172-3.528-9.01-4.252c-2.266-0.409-4.661,0.881-7.209,2.553c-6.758,4.431-2.359,10.68-5.052,11.929
			c-2.805,1.335-4.257-2.092-8.6-4.297c-4.343-2.205-8.584,0.045-12.748-4.961c-20.108-24.328-12.724-46.738-12.724-46.738
			c2.075-2.645,2.972-1.816,7.494-0.193c4.622,1.637,12.554,3.421,18.979-0.045s14.189-13.816,14.281-18.95
			c0.092-5.134-0.811-8.89,5.855-8.186c2.689,0.264,10.778,0.152,20.208-0.181l4.369-0.214
			C161.487,136.592,161.487,136.592,183.852,135.392z"/>
		<path fill="#00A566" d="M183.852,135.392c3.364-0.249,6.219-0.467,8.269-0.693c4.508-0.498,9.737-1.099,16.658-2.278
			c9.097-1.59,19.467-5.126,23.241-5.421c6.53-0.526,12.134,2.052,12.134,2.052c2.465,2.656-24.024,17.122-30.449,20.588
			c-16.457,8.966-64.37,13.255-99.685,21.375c-12.609,2.929-18.494,6.873-18.494,6.873s9.619-1.721,16.361-2.319
			c14.911-1.305,79.786-4.904,97.568-12.479c22.829-9.816,36.107-26.581,36.664-29.937c3.918,8.303-0.524,14.259-4.274,18.089
			c-3.651,3.844-1.569,6.347-3.018,7.361c-0.801,0.698-4.18-1.173-7.57,1.495c-3.377,2.569-4.929,5.083-9.112,7.643
			s-1.654,6.234-4.396,8.586c-2.728,2.253-4.757-2.867-8.621-1.171c-3.863,1.695-6.047,2.912-12.667,4.839
			c-6.408,1.854-3.32,6.613-5.959,7.466c-2.454,0.979-5.934-5.348-10.874-3.899c-4.94,1.448-24.563,10.691-31.29,13.41
			c-6.727,2.719-2.931,11.914-5.254,13.415c-1.436,0.915-5.172-3.528-9.01-4.252c-2.266-0.409-4.661,0.881-7.209,2.553
			c-6.758,4.431-2.359,10.68-5.052,11.929c-2.805,1.335-4.257-2.092-8.6-4.297c-4.343-2.205-8.584,0.045-12.748-4.961
			c-20.108-24.328-12.724-46.738-12.724-46.738c2.075-2.645,2.972-1.816,7.494-0.193c4.622,1.637,12.554,3.421,18.979-0.045
			s14.189-13.816,14.281-18.95c0.092-5.134-0.811-8.89,5.855-8.186c2.689,0.264,10.778,0.152,20.208-0.181l4.369-0.214
			C161.487,136.592,161.487,136.592,183.852,135.392z"/>
	</g>
	<g>
		<g>
			<g>
				<path fill="none" stroke="#1D1D1B" stroke-width="3" d="M152.631,150.526c-0.198-0.027-0.396-0.054-0.595-0.081
					c-1.063-0.346-1.609-1.53-1.163-2.58l5.136-14.036c0.346-1.063,1.53-1.609,2.58-1.163c1.063,0.346,1.609,1.53,1.163,2.58
					l-5.136,14.036C154.211,150.035,153.437,150.535,152.631,150.526z"/>
			</g>
			<g>
				<path fill="none" stroke="#1D1D1B" stroke-width="3" d="M162.218,148.297c-0.198-0.027-0.396-0.054-0.595-0.081
					c-1.063-0.346-1.609-1.53-1.163-2.58l4.165-11.343c0.346-1.063,1.53-1.609,2.58-1.163c1.063,0.346,1.609,1.53,1.163,2.58
					l-4.165,11.343C163.898,147.818,163.123,148.319,162.218,148.297z"/>
			</g>
			<g>
				<path fill="none" stroke="#1D1D1B" stroke-width="3" d="M170.184,146.856c-0.198-0.027-0.396-0.054-0.595-0.081
					c-1.063-0.346-1.609-1.53-1.163-2.58l3.872-10.676c0.346-1.063,1.53-1.609,2.58-1.163c1.063,0.346,1.609,1.53,1.163,2.58
					l-3.872,10.676C171.765,146.364,170.991,146.865,170.184,146.856z"/>
			</g>
			<g>
				<path fill="none" stroke="#1D1D1B" stroke-width="3" d="M179.285,143.753c-0.198-0.027-0.396-0.054-0.595-0.081
					c-1.063-0.346-1.609-1.53-1.163-2.58l3.081-8.563c0.346-1.063,1.53-1.609,2.58-1.163c1.063,0.346,1.609,1.53,1.163,2.58
					l-3.081,8.563C180.965,143.275,180.19,143.775,179.285,143.753z"/>
			</g>
		</g>
		<g>
			<g>
				<path fill="#FFFF00" d="M152.631,150.526c-0.198-0.027-0.396-0.054-0.595-0.081c-1.063-0.346-1.609-1.53-1.163-2.58
					l5.136-14.036c0.346-1.063,1.53-1.609,2.58-1.163c1.063,0.346,1.609,1.53,1.163,2.58l-5.136,14.036
					C154.211,150.035,153.437,150.535,152.631,150.526z"/>
			</g>
			<g>
				<path fill="#FFFF00" d="M162.218,148.297c-0.198-0.027-0.396-0.054-0.595-0.081c-1.063-0.346-1.609-1.53-1.163-2.58
					l4.165-11.343c0.346-1.063,1.53-1.609,2.58-1.163c1.063,0.346,1.609,1.53,1.163,2.58l-4.165,11.343
					C163.898,147.818,163.123,148.319,162.218,148.297z"/>
			</g>
			<g>
				<path fill="#FFFF00" d="M170.184,146.856c-0.198-0.027-0.396-0.054-0.595-0.081c-1.063-0.346-1.609-1.53-1.163-2.58
					l3.872-10.676c0.346-1.063,1.53-1.609,2.58-1.163c1.063,0.346,1.609,1.53,1.163,2.58l-3.872,10.676
					C171.765,146.364,170.991,146.865,170.184,146.856z"/>
			</g>
			<g>
				<path fill="#FFFF00" d="M179.285,143.753c-0.198-0.027-0.396-0.054-0.595-0.081c-1.063-0.346-1.609-1.53-1.163-2.58l3.081-8.563
					c0.346-1.063,1.53-1.609,2.58-1.163c1.063,0.346,1.609,1.53,1.163,2.58l-3.081,8.563
					C180.965,143.275,180.19,143.775,179.285,143.753z"/>
			</g>
		</g>
	</g>
</g>
<g>
	<ellipse fill="#272A9B" stroke="#000000" stroke-miterlimit="10" cx="191.6" cy="65.2" rx="40.8" ry="40.6"/>
	<g>
		<path fill="#FFFFFF" d="M171.3,78.3V49.4h6.6c2.2,0,3.8,0.7,4.6,2c0.8,1.4,1.3,3.4,1.3,6.1v0.6c0,2.9-0.4,5-1.2,6.5
			s-2.3,2.2-4.5,2.2h-2.4v11.4h-4.4L171.3,78.3L171.3,78.3z M175.7,63.3h1.5c0.9,0,1.5-0.4,1.8-1.1c0.3-0.7,0.4-2.1,0.4-4.1v-0.6
			c0-1.7-0.2-2.9-0.5-3.7s-0.9-1.1-1.7-1.1h-1.5V63.3z"/>
		<path fill="#FFFFFF" d="M186.7,78.3V49.4h9.9v3.8h-5.5v7.7h5.1v3.8h-5.1v13.6H186.7z"/>
		<path fill="#FFFFFF" d="M198.2,78.3l4.1-28.9h5.8l4.4,28.9h-4.1l-0.7-5.2H203l-0.6,5.2H198.2z M207.2,69.6l-1.9-14.5h-0.1
			l-1.8,14.5H207.2z"/>
	</g>
</g>
<g>
	<path d="M16.623,122.833v-17.188h3.945c1.334,0,2.248,0.405,2.739,1.216s0.75,2.02,0.776,3.628v0.361c0,1.706-0.243,3-0.728,3.882
		s-1.385,1.323-2.7,1.323H19.24v6.777L16.623,122.833L16.623,122.833z M19.24,113.898h0.898c0.553,0,0.913-0.213,1.079-0.64
		s0.249-1.239,0.249-2.437v-0.332c-0.006-1.016-0.096-1.742-0.269-2.178s-0.519-0.654-1.04-0.654H19.24V113.898z"/>
	<path d="M25.841,122.833v-17.188h2.617v14.961h3.311v2.227H25.841z"/>
	<path d="M32.492,122.833l2.451-17.188H38.4l2.607,17.188h-2.441l-0.41-3.066h-2.773l-0.371,3.066
		C35.012,122.833,32.492,122.833,32.492,122.833z M37.882,117.667l-1.152-8.633h-0.039l-1.055,8.633H37.882z"/>
	<path d="M44.142,122.833v-6.865l-2.881-10.322h2.5l1.699,6.426h0.04l1.514-6.426h2.49l-2.744,10.322v6.865H44.142z"/>
	<path d="M50.88,122.833v-17.188h5.762v2.256h-3.145v5h2.988v2.207h-2.988v5.469h3.262v2.256H50.88z"/>
	<path d="M62.306,114.757l-0.84-0.039v8.115h-2.617v-17.188h4.326c0.898,0,1.569,0.181,2.012,0.542s0.734,0.866,0.874,1.514
		s0.21,1.494,0.21,2.539s-0.111,1.841-0.332,2.388s-0.631,0.915-1.23,1.104c0.592,0.104,1.006,0.504,1.24,1.201
		s0.352,2.147,0.352,4.351s0.033,3.387,0.098,3.55h-2.617c-0.065-0.13-0.098-2.184-0.098-6.162c0-0.762-0.091-1.268-0.273-1.519
		S62.859,114.771,62.306,114.757z M61.476,112.687h1.045c0.332,0,0.578-0.075,0.737-0.225s0.27-0.407,0.332-0.771
		s0.093-0.921,0.093-1.67v-0.107c0-0.931-0.078-1.54-0.234-1.826s-0.518-0.43-1.084-0.43h-0.889
		C61.476,107.658,61.476,112.687,61.476,112.687z"/>
	<path d="M68.371,118v-1.533h2.48v1.729c0,0.957,0.082,1.629,0.244,2.017s0.469,0.581,0.918,0.581s0.747-0.16,0.894-0.479
		s0.22-0.84,0.22-1.562s-0.13-1.353-0.391-1.89s-0.674-1.099-1.24-1.685l-1.27-1.309c-0.592-0.619-1.053-1.26-1.382-1.924
		s-0.493-1.432-0.493-2.305c0-1.419,0.273-2.474,0.82-3.164s1.488-1.035,2.822-1.035s2.238,0.402,2.71,1.206
		s0.708,1.978,0.708,3.521v1.064H73v-1.23c0-0.833-0.072-1.431-0.215-1.792s-0.418-0.542-0.825-0.542s-0.7,0.137-0.879,0.41
		s-0.269,0.684-0.269,1.23s0.091,0.983,0.273,1.309s0.511,0.742,0.986,1.25l1.416,1.533c0.709,0.768,1.245,1.546,1.606,2.334
		s0.542,1.647,0.542,2.578c0,1.608-0.27,2.796-0.811,3.564s-1.486,1.152-2.837,1.152s-2.292-0.428-2.822-1.284
		S68.371,119.64,68.371,118z"/>
	<path d="M77.824,111.847l-0.586-6.211h2.324l-0.635,6.211H77.824z"/>
	<path d="M16.623,146.833v-17.188h3.945c1.334,0,2.248,0.405,2.739,1.216s0.75,2.021,0.776,3.628v0.361c0,1.706-0.243,3-0.728,3.882
		c-0.485,0.883-1.385,1.323-2.7,1.323H19.24v6.777h-2.617V146.833z M19.24,137.897h0.898c0.553,0,0.913-0.213,1.079-0.64
		c0.166-0.426,0.249-1.238,0.249-2.437v-0.332c-0.006-1.016-0.096-1.741-0.269-2.178c-0.172-0.436-0.519-0.654-1.04-0.654H19.24
		V137.897z"/>
	<path d="M25.841,146.833v-17.188h2.617v14.961h3.311v2.227H25.841z"/>
	<path d="M32.492,146.833l2.451-17.188H38.4l2.607,17.188h-2.441l-0.41-3.066h-2.773l-0.371,3.066H32.492z M37.882,141.667
		l-1.152-8.633h-0.039l-1.055,8.633H37.882z"/>
	<path d="M44.142,146.833v-6.865l-2.881-10.322h2.5l1.699,6.426h0.04l1.514-6.426h2.49l-2.744,10.322v6.865H44.142z"/>
	<path d="M50.88,146.833v-17.188h5.762v2.256h-3.145v5h2.988v2.207h-2.988v5.469h3.262v2.256L50.88,146.833L50.88,146.833z"/>
	<path d="M62.306,138.757l-0.84-0.039v8.115h-2.617v-17.188h4.326c0.898,0,1.569,0.181,2.012,0.542s0.734,0.866,0.874,1.514
		c0.14,0.648,0.21,1.494,0.21,2.539s-0.111,1.841-0.332,2.388s-0.631,0.915-1.23,1.104c0.592,0.104,1.006,0.505,1.24,1.201
		c0.234,0.697,0.352,2.147,0.352,4.351s0.033,3.388,0.098,3.55h-2.617c-0.065-0.13-0.098-2.184-0.098-6.162
		c0-0.762-0.091-1.268-0.273-1.519C63.228,138.902,62.859,138.771,62.306,138.757z M61.476,136.687h1.045
		c0.332,0,0.578-0.074,0.737-0.225c0.16-0.149,0.27-0.406,0.332-0.771c0.062-0.364,0.093-0.921,0.093-1.67v-0.107
		c0-0.931-0.078-1.539-0.234-1.826c-0.156-0.286-0.518-0.43-1.084-0.43h-0.889C61.476,131.658,61.476,136.687,61.476,136.687z"/>
	<path d="M78.781,145.788c-0.599,0.827-1.558,1.24-2.876,1.24s-2.285-0.415-2.9-1.245s-0.923-2.081-0.923-3.755v-7.861
		c0-3.15,1.286-4.727,3.857-4.727c1.328,0,2.284,0.4,2.866,1.201s0.874,1.977,0.874,3.525v7.861
		C79.679,143.708,79.38,144.962,78.781,145.788z M74.948,144.167c0.153,0.397,0.467,0.596,0.942,0.596s0.788-0.203,0.938-0.61
		c0.15-0.406,0.225-1.104,0.225-2.095v-8.008c0-0.813-0.077-1.407-0.229-1.782c-0.153-0.374-0.453-0.562-0.898-0.562
		s-0.758,0.188-0.938,0.562c-0.179,0.375-0.269,0.966-0.269,1.772v8.018C74.718,143.067,74.795,143.771,74.948,144.167z"/>
	<path d="M82.042,146.833v-17.188h5.898v2.275h-3.28v4.57h3.047v2.285H84.66v8.057L82.042,146.833L82.042,146.833z"/>
	<path d="M17.501,170.833v-14.922H15.49v-2.266h6.553v2.266h-1.934v14.922H17.501z"/>
	<path d="M23.488,170.833v-17.188h2.617v6.953h2.344v-6.953h2.617v17.188h-2.617v-7.988h-2.344v7.988H23.488z"/>
	<path d="M33.644,170.833v-17.188h5.762v2.256h-3.145v5h2.988v2.207h-2.988v5.469h3.262v2.256L33.644,170.833L33.644,170.833z"/>
	<path d="M46.876,170.833v-6.865l-2.881-10.322h2.5l1.699,6.426h0.039l1.514-6.426h2.49l-2.744,10.322v6.865H46.876z"/>
	<path d="M53.615,170.833v-17.188h5.762v2.256h-3.145v5h2.988v2.207h-2.988v5.469h3.262v2.256L53.615,170.833L53.615,170.833z"/>
	<path d="M60.802,170.833l2.451-17.188h3.457l2.607,17.188h-2.441l-0.41-3.066h-2.773l-0.371,3.066H60.802z M66.193,165.667
		l-1.152-8.633h-0.039l-1.055,8.633H66.193z"/>
	<path d="M74.572,162.757l-0.84-0.039v8.115h-2.617v-17.188h4.326c0.898,0,1.569,0.181,2.012,0.542s0.734,0.866,0.874,1.514
		c0.14,0.648,0.21,1.494,0.21,2.539s-0.111,1.841-0.332,2.388s-0.631,0.915-1.23,1.104c0.592,0.104,1.006,0.505,1.24,1.201
		c0.234,0.697,0.352,2.147,0.352,4.351s0.033,3.388,0.098,3.55h-2.617c-0.065-0.13-0.098-2.184-0.098-6.162
		c0-0.762-0.091-1.268-0.273-1.519C75.493,162.902,75.125,162.771,74.572,162.757z M73.742,160.687h1.045
		c0.332,0,0.578-0.074,0.737-0.225c0.16-0.149,0.27-0.406,0.332-0.771c0.062-0.364,0.093-0.921,0.093-1.67v-0.107
		c0-0.931-0.078-1.539-0.234-1.826c-0.156-0.286-0.518-0.43-1.084-0.43h-0.889V160.687z"/>
</g>
</svg>
