<?xml version="1.0" encoding="utf-8"?>
<!-- Generator: Adobe Illustrator 17.0.0, SVG Export Plug-In . SVG Version: 6.00 Build 0)  -->
<!DOCTYPE svg PUBLIC "-//W3C//DTD SVG 1.1//EN" "http://www.w3.org/Graphics/SVG/1.1/DTD/svg11.dtd">
<svg version="1.1" id="Layer_1" xmlns="http://www.w3.org/2000/svg" xmlns:xlink="http://www.w3.org/1999/xlink" x="0px" y="0px"
	 width="256px" height="256px" viewBox="0 0 256 256" enable-background="new 0 0 256 256" xml:space="preserve">
	<polygon fill="#FFFF00" points="128,188.6 53.1,243.2 82,155.1 6.8,100.8 99.5,101 128,12.8 156.5,101 249.2,100.8 174,155.1 
	202.9,243.2 "/>
	<path fill="#FFFFFF" d="M192,10.3c-17.1,0-32.4,8-42.3,20.6h-0.3v0.3c-7.1,9.1-11.4,20.6-11.4,33c0,29.7,24.2,53.9,53.9,53.9
	s53.9-24.2,53.9-53.9S221.7,10.3,192,10.3z"/>
	<path d="M192,10.3c-17.1,0-32.4,8-42.3,20.6h-0.3v0.3c-7.1,9.1-11.4,20.6-11.4,33c0,29.7,24.2,53.9,53.9,53.9s53.9-24.2,53.9-53.9
	S221.7,10.3,192,10.3z M208.6,100.9l-23.1-3L183.7,78l17.6-10.7L217,82.4L208.6,100.9z M171.2,103.3L151.9,89l-2.1-14.7l11.8-7.4
	L181.5,78l1.9,20.2L171.2,103.3z M149.1,72.2L142,57.4l9.3-15.3l9.7,2l-0.2,20.8L149.1,72.2z M188.3,19l21.3,2.9l7.3,13.6l-16.1,7.9
	l-16.5-11.5L188.3,19z M231.4,74.4l-12.6,6.7l-16.9-16.2l0.2-19.7l16-7.9L232.3,50L231.4,74.4z M233.5,74.9l1-24.5l7.1-0.9
	c1.4,4.7,2.1,9.6,2.1,14.7c0,4.6-0.6,9-1.7,13.2L233.5,74.9z M240.9,47.4l-7.1,0.9l-14.6-13.1L212,21.9l6.1-2.4
	C228.7,25.7,236.9,35.6,240.9,47.4z M178.8,14.2l7.4,4.1L182,32.1L162.3,42l-10.5-2.1l-0.2-8.1C158.5,23.4,167.9,17,178.8,14.2z
	 M149.7,40.5l-8.5,14.1c1.4-7.3,4.3-14.1,8.4-20L149.7,40.5z M140.5,59.2l7.1,14.9l2.1,14.8l-2.9,0.4c-4.1-7.4-6.5-16-6.5-25.1
	C140.3,62.5,140.4,60.8,140.5,59.2z M172.4,112.1l-0.2-6.8l12.5-5.3l23.9,3.1l4.4,8.4c-6.4,2.9-13.5,4.5-21,4.5
	C185.1,115.9,178.5,114.5,172.4,112.1z"/>
	<g>
		<path fill="none" stroke="#000000" stroke-width="3" stroke-miterlimit="10" d="M157.6,137"/>
		<path fill="#FF0000" d="M157.6,137"/>
	</g>
	<g>
		<path fill="#FFFFFF" d="M213.69,172.39c19.809-10.842,32.451-33.278,33.118-36.63s-0.662-4.046-3.072-6.388
		s-7.036-0.267-7.036-0.267s-20.521,18.254-30.176,25.509c-9.738,7.37-51.252,19.94-56.802,23.179s-44.423,17.708-50.68,26.534
		c0.14,2.713-1.458,9.662,5.326,5.917C111.153,206.499,181.021,190.099,213.69,172.39z"/>
		<g>
			<path fill="none" stroke="#000000" stroke-width="3" stroke-miterlimit="10" d="M183.715,145.883
			c3.307-0.845,6.006-1.692,8.046-2.229c4.344-1.319,9.347-2.948,15.946-5.346c8.69-3.246,18.241-8.66,21.828-9.652
			c6.302-1.741,12.331-0.194,12.331-0.194c2.986,2.146-20.431,21.279-26.051,25.948c-14.469,11.893-60.753,25.042-93.922,39.691
			c-11.819,5.177-16.881,10.16-16.881,10.16s9.151-3.524,15.65-5.297c14.43-4.084,77.523-19.781,93.501-30.503
			c20.623-13.914,30.493-32.857,30.454-36.194c5.371,7.43,2.096,14.046-0.81,18.575c-2.923,4.43-0.348,6.542-1.568,7.755
			c-0.676,0.82-4.306-0.308-7.226,2.905c-2.919,3.214-3.897,5.907-7.507,9.234c-3.626,3.228-0.463,6.46-2.74,9.264
			c-2.293,2.706-5.173-1.889-8.649,0.402c-3.459,2.39-5.437,3.93-11.512,7.052c-5.977,3.106-2.076,7.129-4.398,8.421
			c-2.191,1.473-6.761-4.163-11.338-1.792s-22.156,15.077-28.201,19.004c-6.144,3.944-0.726,12.279-2.639,14.213
			c-1.22,1.213-5.681-2.515-9.627-2.478c-2.318,0.075-4.477,1.746-6.669,3.827c-5.869,5.622-0.245,10.883-2.783,12.716
			s-4.567-1.279-9.232-2.542c-4.665-1.263-8.439,1.685-13.49-2.555c-24.272-20.144-21.311-43.529-21.311-43.529
			c1.538-2.988,2.555-2.343,7.353-1.507c4.782,0.737,12.935,1.024,18.67-3.562c5.636-4.57,11.325-16.243,10.501-21.276
			c-0.824-5.033-2.424-8.622,4.17-9.194c2.697-0.239,10.642-1.843,19.822-3.953l4.195-0.991
			C161.998,151.262,161.998,151.262,183.715,145.883z"/>
			<path fill="#9933FF" d="M183.715,145.883c3.307-0.845,6.006-1.692,8.046-2.229c4.344-1.319,9.347-2.948,15.946-5.346
			c8.69-3.246,18.241-8.66,21.828-9.652c6.302-1.741,12.331-0.194,12.331-0.194c2.986,2.146-20.431,21.279-26.051,25.948
			c-14.469,11.893-60.753,25.042-93.922,39.691c-11.819,5.177-16.881,10.16-16.881,10.16s9.151-3.524,15.65-5.297
			c14.43-4.084,77.523-19.781,93.501-30.503c20.623-13.914,30.493-32.857,30.454-36.194c5.371,7.43,2.096,14.046-0.81,18.575
			c-2.923,4.43-0.348,6.542-1.568,7.755c-0.676,0.82-4.306-0.308-7.226,2.905c-2.919,3.214-3.897,5.907-7.507,9.234
			c-3.626,3.228-0.463,6.46-2.74,9.264c-2.293,2.706-5.173-1.889-8.649,0.402c-3.459,2.39-5.437,3.93-11.512,7.052
			c-5.977,3.106-2.076,7.129-4.398,8.421c-2.191,1.473-6.761-4.163-11.338-1.792s-22.156,15.077-28.201,19.004
			c-6.144,3.944-0.726,12.279-2.639,14.213c-1.22,1.213-5.681-2.515-9.627-2.478c-2.318,0.075-4.477,1.746-6.669,3.827
			c-5.869,5.622-0.245,10.883-2.783,12.716s-4.567-1.279-9.232-2.542c-4.665-1.263-8.439,1.685-13.49-2.555
			c-24.272-20.144-21.311-43.529-21.311-43.529c1.538-2.988,2.555-2.343,7.353-1.507c4.782,0.737,12.935,1.024,18.67-3.562
			c5.636-4.57,11.325-16.243,10.501-21.276c-0.824-5.033-2.424-8.622,4.17-9.194c2.697-0.239,10.642-1.843,19.822-3.953l4.195-0.991
			C161.998,151.262,161.998,151.262,183.715,145.883z"/>
		</g>
		<g>
			<g>
				<g>
					<path fill="none" stroke="#1D1D1B" stroke-width="3" d="M155.887,166.549c-0.197,0.032-0.395,0.065-0.608-0.002
					c-1.051-0.233-1.821-1.222-1.687-2.257l2.443-14.789c0.233-1.051,1.222-1.821,2.257-1.687c1.051,0.233,1.821,1.222,1.687,2.257
					l-2.443,14.789C157.386,165.798,156.677,166.42,155.887,166.549z"/>
				</g>
				<g>
					<path fill="none" stroke="#1D1D1B" stroke-width="3" d="M164.859,162.548c-0.197,0.032-0.395,0.065-0.608-0.002
					c-1.051-0.233-1.821-1.222-1.687-2.257l1.909-11.864c0.233-1.051,1.222-1.821,2.257-1.687c1.051,0.233,1.821,1.222,1.687,2.257
					l-1.909,11.864C166.357,161.796,165.648,162.419,164.859,162.548z"/>
				</g>
				<g>
					<path fill="none" stroke="#1D1D1B" stroke-width="3" d="M172.397,159.693c-0.197,0.032-0.395,0.065-0.608-0.002
					c-1.051-0.233-1.821-1.222-1.687-2.257l1.808-11.24c0.233-1.051,1.222-1.821,2.257-1.687c1.051,0.233,1.821,1.222,1.687,2.257
					l-1.808,11.24C173.895,158.941,173.186,159.564,172.397,159.693z"/>
				</g>
				<g>
					<path fill="none" stroke="#1D1D1B" stroke-width="3" d="M180.844,154.966c-0.197,0.032-0.395,0.065-0.608-0.002
					c-1.051-0.233-1.821-1.222-1.687-2.257l1.473-8.955c0.233-1.051,1.222-1.821,2.257-1.687c1.051,0.233,1.821,1.222,1.687,2.257
					l-1.473,8.955C182.343,154.214,181.634,154.837,180.844,154.966z"/>
				</g>
			</g>
			<g>
				<g>
					<path fill="#FFFF00" d="M155.887,166.549c-0.197,0.032-0.395,0.065-0.608-0.002c-1.051-0.233-1.821-1.222-1.687-2.257
					l2.443-14.789c0.233-1.051,1.222-1.821,2.257-1.687c1.051,0.233,1.821,1.222,1.687,2.257l-2.443,14.789
					C157.386,165.798,156.677,166.42,155.887,166.549z"/>
				</g>
				<g>
					<path fill="#FFFF00" d="M164.859,162.548c-0.197,0.032-0.395,0.065-0.608-0.002c-1.051-0.233-1.821-1.222-1.687-2.257
					l1.909-11.864c0.233-1.051,1.222-1.821,2.257-1.687c1.051,0.233,1.821,1.222,1.687,2.257l-1.909,11.864
					C166.357,161.796,165.648,162.419,164.859,162.548z"/>
				</g>
				<g>
					<path fill="#FFFF00" d="M172.397,159.693c-0.197,0.032-0.395,0.065-0.608-0.002c-1.051-0.233-1.821-1.222-1.687-2.257
					l1.808-11.24c0.233-1.051,1.222-1.821,2.257-1.687c1.051,0.233,1.821,1.222,1.687,2.257l-1.808,11.24
					C173.895,158.941,173.186,159.564,172.397,159.693z"/>
				</g>
				<g>
					<path fill="#FFFF00" d="M180.844,154.966c-0.197,0.032-0.395,0.065-0.608-0.002c-1.051-0.233-1.821-1.222-1.687-2.257
					l1.473-8.955c0.233-1.051,1.222-1.821,2.257-1.687c1.051,0.233,1.821,1.222,1.687,2.257l-1.473,8.955
					C182.343,154.214,181.634,154.837,180.844,154.966z"/>
				</g>
			</g>
		</g>
	</g>
	<g>
		<circle fill="#F0F0F0" cx="191.8" cy="65" r="41.1"/>
		<path fill="#D80027" d="M232.9,65c0,22.7-18.4,41.1-41.1,41.1S150.7,87.7,150.7,65"/>
	</g>
	<ellipse fill="none" stroke="#020200" stroke-width="1.4754" stroke-miterlimit="10" cx="191.6" cy="65.2" rx="40.8" ry="40.6"/>
	<g>
		<path d="M16.623,128.833v-17.187h3.945c1.334,0,2.248,0.405,2.739,1.216s0.75,2.02,0.776,3.628v0.361c0,1.706-0.243,3-0.728,3.882
		s-1.385,1.323-2.7,1.323H19.24v6.777H16.623z M19.24,119.898h0.898c0.553,0,0.913-0.213,1.079-0.64s0.249-1.239,0.249-2.437v-0.332
		c-0.006-1.016-0.096-1.742-0.269-2.178s-0.519-0.654-1.04-0.654H19.24V119.898z"/>
		<path d="M32.326,127.789c-0.599,0.827-1.558,1.24-2.876,1.24s-2.285-0.415-2.9-1.245c-0.615-0.83-0.923-2.082-0.923-3.755v-7.861
		c0-3.151,1.286-4.727,3.857-4.727c1.328,0,2.284,0.4,2.866,1.201s0.874,1.976,0.874,3.525v7.861
		C33.224,125.708,32.925,126.962,32.326,127.789z M28.493,126.167c0.153,0.397,0.467,0.596,0.942,0.596s0.788-0.204,0.938-0.61
		s0.225-1.105,0.225-2.095v-8.008c0-0.814-0.077-1.408-0.229-1.782s-0.453-0.562-0.898-0.562s-0.758,0.187-0.938,0.562
		s-0.269,0.965-0.269,1.772v8.018C28.263,125.067,28.34,125.771,28.493,126.167z"/>
		<path d="M35.597,128.833v-17.187h2.617v14.961h3.311v2.226H35.597z"/>
		<path d="M43.029,128.833v-17.187h2.051l3.643,10.312l-0.186-4.688v-5.625h2.354v17.187h-1.855l-3.74-10.673l0.146,4.512v6.162
		L43.029,128.833L43.029,128.833z"/>
		<path d="M53.566,128.833v-17.187h2.617v17.187H53.566z"/>
		<path d="M58.517,124v-1.533h2.48v1.729c0,0.957,0.082,1.629,0.244,2.017s0.469,0.581,0.918,0.581s0.747-0.16,0.894-0.479
		s0.22-0.84,0.22-1.562s-0.13-1.353-0.391-1.89s-0.674-1.099-1.24-1.685l-1.27-1.309c-0.592-0.619-1.053-1.26-1.382-1.924
		s-0.493-1.432-0.493-2.305c0-1.419,0.273-2.474,0.82-3.164s1.488-1.035,2.822-1.035s2.238,0.402,2.71,1.206
		s0.708,1.978,0.708,3.521v1.064h-2.412v-1.23c0-0.833-0.072-1.431-0.215-1.792s-0.418-0.542-0.825-0.542s-0.7,0.137-0.879,0.41
		s-0.269,0.684-0.269,1.23s0.091,0.983,0.273,1.309s0.511,0.742,0.986,1.25l1.416,1.533c0.709,0.768,1.245,1.546,1.606,2.334
		s0.542,1.647,0.542,2.578c0,1.608-0.27,2.796-0.811,3.564s-1.486,1.152-2.837,1.152s-2.292-0.428-2.822-1.284
		S58.517,125.64,58.517,124z"/>
		<path d="M74.064,127.833c-0.592,0.797-1.523,1.196-2.793,1.196s-2.218-0.425-2.847-1.274c-0.628-0.85-0.942-2.072-0.942-3.667
		v-7.49c0-2.559,0.67-4.157,2.012-4.795c0.495-0.234,1.094-0.352,1.797-0.352c2.416,0,3.623,1.523,3.623,4.57v2.363h-2.529v-2.197
		c0-0.885-0.075-1.519-0.225-1.899s-0.443-0.571-0.879-0.571s-0.739,0.202-0.908,0.605s-0.254,1.022-0.254,1.855v8.027
		c0,0.924,0.082,1.585,0.244,1.982s0.459,0.596,0.889,0.596s0.726-0.202,0.889-0.605s0.244-1.071,0.244-2.002v-2.461h2.568v2.432
		C74.953,125.806,74.656,127.035,74.064,127.833z"/>
		<path d="M77.082,128.833v-17.187h2.617v6.953h2.344v-6.953h2.617v17.187h-2.617v-7.988h-2.344v7.988H77.082z"/>
		<path d="M87.238,128.833v-17.187H93v2.256h-3.145v5h2.988v2.207h-2.988v5.469h3.262v2.255H87.238z"/>
		<path d="M98.664,120.757l-0.84-0.039v8.115h-2.617v-17.187h4.326c0.898,0,1.569,0.181,2.012,0.542s0.734,0.866,0.874,1.514
		s0.21,1.494,0.21,2.539s-0.111,1.841-0.332,2.388s-0.631,0.915-1.23,1.104c0.592,0.104,1.006,0.504,1.24,1.201
		s0.352,2.147,0.352,4.351s0.033,3.387,0.098,3.549h-2.617c-0.065-0.13-0.098-2.184-0.098-6.162c0-0.762-0.091-1.268-0.273-1.519
		S99.217,120.771,98.664,120.757z M97.833,118.687h1.045c0.332,0,0.578-0.075,0.737-0.225s0.27-0.407,0.332-0.771
		s0.093-0.921,0.093-1.67v-0.107c0-0.931-0.078-1.54-0.234-1.826s-0.518-0.43-1.084-0.43h-0.889V118.687z"/>
		<path d="M16.613,152.833v-17.188h5.898v2.275H19.23v4.57h3.047v2.285H19.23v8.057L16.613,152.833L16.613,152.833z"/>
		<path d="M30.978,151.91c-0.599,0.746-1.561,1.118-2.886,1.118s-2.289-0.374-2.891-1.123c-0.602-0.748-0.903-1.91-0.903-3.486
		v-12.783h2.617v12.734c0,0.905,0.042,1.455,0.127,1.65s0.187,0.373,0.308,0.532c0.121,0.16,0.37,0.239,0.747,0.239
		s0.648-0.11,0.811-0.332c0.163-0.221,0.262-0.496,0.298-0.825c0.036-0.328,0.054-0.75,0.054-1.265v-12.734h2.617v12.783
		C31.876,150.001,31.577,151.165,30.978,151.91z"/>
		<path d="M34.015,147.999v-1.533h2.48v1.729c0,0.957,0.082,1.63,0.244,2.017c0.163,0.388,0.469,0.581,0.918,0.581
		s0.747-0.159,0.894-0.479c0.146-0.318,0.22-0.84,0.22-1.562s-0.13-1.353-0.391-1.89s-0.674-1.099-1.24-1.685l-1.27-1.309
		c-0.592-0.618-1.053-1.26-1.382-1.924s-0.493-1.432-0.493-2.305c0-1.419,0.273-2.474,0.82-3.164
		c0.547-0.689,1.488-1.035,2.822-1.035s2.238,0.402,2.71,1.206c0.472,0.805,0.708,1.978,0.708,3.521v1.064h-2.412v-1.23
		c0-0.833-0.072-1.431-0.215-1.792s-0.418-0.542-0.825-0.542s-0.7,0.137-0.879,0.41s-0.269,0.684-0.269,1.23
		s0.091,0.983,0.273,1.309s0.511,0.742,0.986,1.25l1.416,1.533c0.709,0.769,1.245,1.547,1.606,2.334
		c0.361,0.788,0.542,1.647,0.542,2.578c0,1.608-0.27,2.797-0.811,3.564c-0.541,0.769-1.486,1.152-2.837,1.152
		s-2.292-0.428-2.822-1.284C34.28,150.889,34.015,149.64,34.015,147.999z"/>
		<path d="M42.853,147.999v-1.533h2.48v1.729c0,0.957,0.082,1.63,0.244,2.017c0.163,0.388,0.469,0.581,0.918,0.581
		s0.747-0.159,0.894-0.479c0.146-0.318,0.22-0.84,0.22-1.562s-0.13-1.353-0.391-1.89s-0.674-1.099-1.24-1.685l-1.27-1.309
		c-0.592-0.618-1.053-1.26-1.382-1.924s-0.493-1.432-0.493-2.305c0-1.419,0.273-2.474,0.82-3.164
		c0.547-0.689,1.488-1.035,2.822-1.035s2.238,0.402,2.71,1.206c0.472,0.805,0.708,1.978,0.708,3.521v1.064h-2.412v-1.23
		c0-0.833-0.072-1.431-0.215-1.792s-0.418-0.542-0.825-0.542s-0.7,0.137-0.879,0.41s-0.269,0.684-0.269,1.23
		s0.091,0.983,0.273,1.309s0.511,0.742,0.986,1.25l1.416,1.533c0.709,0.769,1.245,1.547,1.606,2.334
		c0.361,0.788,0.542,1.647,0.542,2.578c0,1.608-0.27,2.797-0.811,3.564c-0.541,0.769-1.486,1.152-2.837,1.152
		s-2.292-0.428-2.822-1.284C43.118,150.889,42.853,149.64,42.853,147.999z"/>
		<path d="M59.386,140.06c0,1.85-0.501,2.985-1.504,3.408c1.224,0.41,1.836,1.762,1.836,4.053v0.439
		c-0.013,1.726-0.314,2.969-0.903,3.73s-1.551,1.143-2.886,1.143H52.13v-17.188h3.721c1.283,0,2.191,0.298,2.725,0.894
		s0.804,1.594,0.811,2.993L59.386,140.06L59.386,140.06z M54.748,142.599h0.967c0.449,0,0.744-0.143,0.884-0.43
		c0.14-0.286,0.21-0.875,0.21-1.768v-1.035c-0.006-0.664-0.098-1.108-0.273-1.333s-0.479-0.337-0.908-0.337h-0.879L54.748,142.599
		L54.748,142.599z M54.748,150.802h0.928c0.521,0,0.885-0.179,1.094-0.537c0.208-0.357,0.312-0.999,0.312-1.924v-1.387
		c0-0.872-0.084-1.489-0.254-1.851s-0.495-0.542-0.977-0.542h-1.104L54.748,150.802L54.748,150.802z"/>
		<path d="M60.978,152.833l2.451-17.188h3.457l2.607,17.188h-2.441l-0.41-3.066h-2.773l-0.371,3.066H60.978z M66.369,147.667
		l-1.152-8.633h-0.039l-1.055,8.633H66.369z"/>
		<path d="M71.291,152.833v-17.188h2.617v14.961h3.311v2.227H71.291z"/>
		<path d="M78.722,152.833v-17.188h2.617v14.961h3.311v2.227H78.722z"/>
		<path d="M86.154,152.833v-17.188h5.762v2.256h-3.145v5h2.988v2.207h-2.988v5.469h3.262v2.256L86.154,152.833L86.154,152.833z"/>
		<path d="M97.58,144.757l-0.84-0.039v8.115h-2.617v-17.188h4.326c0.898,0,1.569,0.181,2.012,0.542s0.734,0.866,0.874,1.514
		c0.14,0.648,0.21,1.494,0.21,2.539s-0.111,1.841-0.332,2.388s-0.631,0.915-1.23,1.104c0.592,0.104,1.006,0.505,1.24,1.201
		c0.234,0.697,0.352,2.147,0.352,4.351s0.033,3.388,0.098,3.55h-2.617c-0.065-0.13-0.098-2.184-0.098-6.162
		c0-0.762-0.091-1.268-0.273-1.519C98.501,144.902,98.133,144.771,97.58,144.757z M96.75,142.687h1.045
		c0.332,0,0.578-0.074,0.737-0.225c0.16-0.149,0.27-0.406,0.332-0.771c0.062-0.364,0.093-0.921,0.093-1.67v-0.107
		c0-0.931-0.078-1.539-0.234-1.826c-0.156-0.286-0.518-0.43-1.084-0.43H96.75V142.687z"/>
		<path d="M16.613,176.833v-17.188h3.857c1.263,0,2.179,0.373,2.749,1.118c0.57,0.746,0.854,1.845,0.854,3.296l0.01,7.754
		c0,1.732-0.287,3.002-0.859,3.809c-0.573,0.808-1.52,1.211-2.842,1.211H16.613z M19.23,174.802h0.859
		c0.482,0,0.832-0.156,1.05-0.469s0.327-0.885,0.327-1.719l-0.01-8.486c0-0.892-0.109-1.526-0.327-1.904
		c-0.218-0.377-0.594-0.566-1.128-0.566H19.23V174.802z"/>
		<path d="M26.437,176.833v-17.188h5.762v2.256h-3.145v5h2.988v2.207h-2.988v5.469h3.262v2.256L26.437,176.833L26.437,176.833z"/>
		<path d="M34.064,171.999v-1.533h2.48v1.729c0,0.957,0.082,1.63,0.244,2.017c0.163,0.388,0.469,0.581,0.918,0.581
		s0.747-0.159,0.894-0.479c0.146-0.318,0.22-0.84,0.22-1.562s-0.13-1.353-0.391-1.89s-0.674-1.099-1.24-1.685l-1.27-1.309
		c-0.592-0.618-1.053-1.26-1.382-1.924s-0.493-1.432-0.493-2.305c0-1.419,0.273-2.474,0.82-3.164
		c0.547-0.689,1.488-1.035,2.822-1.035s2.238,0.402,2.71,1.206c0.472,0.805,0.708,1.978,0.708,3.521v1.064h-2.412v-1.23
		c0-0.833-0.072-1.431-0.215-1.792s-0.418-0.542-0.825-0.542s-0.7,0.137-0.879,0.41s-0.269,0.684-0.269,1.23
		s0.091,0.983,0.273,1.309s0.511,0.742,0.986,1.25l1.416,1.533c0.709,0.769,1.245,1.547,1.606,2.334
		c0.361,0.788,0.542,1.647,0.542,2.578c0,1.608-0.27,2.797-0.811,3.564c-0.541,0.769-1.486,1.152-2.837,1.152
		s-2.292-0.428-2.822-1.284C34.329,174.889,34.064,173.64,34.064,171.999z"/>
		<path d="M52.365,175.881c-0.619,0.766-1.489,1.147-2.612,1.147s-1.996-0.34-2.617-1.021c-0.622-0.68-0.933-1.671-0.933-2.974
		v-3.066h2.529v2.939c0,0.951,0.153,1.53,0.459,1.738c0.137,0.092,0.306,0.137,0.508,0.137c0.397,0,0.659-0.162,0.786-0.488
		c0.127-0.325,0.19-0.84,0.19-1.543v-13.105h2.617v12.979C53.292,174.03,52.983,175.116,52.365,175.881z"/>
		<path d="M54.992,176.833l2.451-17.188H60.9l2.607,17.188h-2.441l-0.41-3.066h-2.773l-0.371,3.066H54.992z M60.382,171.667
		l-1.152-8.633h-0.039l-1.055,8.633H60.382z"/>
		<path d="M65.304,176.833v-17.188h2.617v6.953h2.344v-6.953h2.617v17.188h-2.617v-7.988h-2.344v7.988H65.304z"/>
		<path d="M78.917,168.757l-0.84-0.039v8.115H75.46v-17.188h4.326c0.898,0,1.569,0.181,2.012,0.542s0.734,0.866,0.874,1.514
		c0.14,0.648,0.21,1.494,0.21,2.539s-0.111,1.841-0.332,2.388s-0.631,0.915-1.23,1.104c0.592,0.104,1.006,0.505,1.24,1.201
		c0.234,0.697,0.352,2.147,0.352,4.351s0.033,3.388,0.098,3.55h-2.617c-0.065-0.13-0.098-2.184-0.098-6.162
		c0-0.762-0.091-1.268-0.273-1.519C79.839,168.902,79.471,168.771,78.917,168.757z M78.087,166.687h1.045
		c0.332,0,0.578-0.074,0.737-0.225c0.16-0.149,0.27-0.406,0.332-0.771c0.062-0.364,0.093-0.921,0.093-1.67v-0.107
		c0-0.931-0.078-1.539-0.234-1.826c-0.156-0.286-0.518-0.43-1.084-0.43h-0.889V166.687z"/>
		<path d="M85.324,176.833v-17.188h5.762v2.256h-3.145v5h2.988v2.207h-2.988v5.469h3.262v2.256L85.324,176.833L85.324,176.833z"/>
		<path d="M92.951,171.999v-1.533h2.48v1.729c0,0.957,0.082,1.63,0.244,2.017c0.163,0.388,0.469,0.581,0.918,0.581
		s0.747-0.159,0.894-0.479c0.146-0.318,0.22-0.84,0.22-1.562s-0.13-1.353-0.391-1.89s-0.674-1.099-1.24-1.685l-1.27-1.309
		c-0.592-0.618-1.053-1.26-1.382-1.924s-0.493-1.432-0.493-2.305c0-1.419,0.273-2.474,0.82-3.164
		c0.547-0.689,1.488-1.035,2.822-1.035s2.238,0.402,2.71,1.206c0.472,0.805,0.708,1.978,0.708,3.521v1.064H97.58v-1.23
		c0-0.833-0.072-1.431-0.215-1.792s-0.418-0.542-0.825-0.542s-0.7,0.137-0.879,0.41s-0.269,0.684-0.269,1.23
		s0.091,0.983,0.273,1.309s0.511,0.742,0.986,1.25l1.416,1.533c0.709,0.769,1.245,1.547,1.606,2.334
		c0.361,0.788,0.542,1.647,0.542,2.578c0,1.608-0.27,2.797-0.811,3.564c-0.541,0.769-1.486,1.152-2.837,1.152
		s-2.292-0.428-2.822-1.284C93.216,174.889,92.951,173.64,92.951,171.999z"/>
	</g>
</svg>