<?xml version="1.0" encoding="utf-8"?>
<!-- Generator: Adobe Illustrator 17.0.0, SVG Export Plug-In . SVG Version: 6.00 Build 0)  -->
<!DOCTYPE svg PUBLIC "-//W3C//DTD SVG 1.1//EN" "http://www.w3.org/Graphics/SVG/1.1/DTD/svg11.dtd">
<svg version="1.1" id="Layer_1" xmlns="http://www.w3.org/2000/svg" xmlns:xlink="http://www.w3.org/1999/xlink" x="0px" y="0px"
	 width="256px" height="256px" viewBox="0 0 256 256" enable-background="new 0 0 256 256" xml:space="preserve">
<path fill="#FFFFFF" d="M192.1,10.3c-17.1,0-32.4,8-42.3,20.6h-0.3v0.3c-7.1,9.1-11.4,20.6-11.4,33c0,29.7,24.2,53.9,53.9,53.9
	s54-24.2,54-53.9S221.9,10.3,192.1,10.3z"/>
<path d="M192,10.3c-17.1,0-32.4,8-42.3,20.6h-0.3v0.3c-7.1,9.1-11.4,20.6-11.4,33c0,29.7,24.2,53.9,53.9,53.9s53.9-24.2,53.9-53.9
	S221.7,10.3,192,10.3z M208.6,100.9l-23.1-3L183.7,78l17.6-10.7L217,82.4L208.6,100.9z M171.2,103.3L151.9,89l-2.1-14.7l11.8-7.4
	L181.5,78l1.9,20.2L171.2,103.3z M149.1,72.2L142,57.4l9.3-15.3l9.7,2l-0.2,20.8L149.1,72.2z M188.3,19l21.3,2.9l7.3,13.6l-16.1,7.9
	l-16.5-11.5L188.3,19z M231.4,74.4l-12.6,6.7l-16.9-16.2l0.2-19.7l16-7.9L232.3,50L231.4,74.4z M233.5,74.9l1-24.5l7.1-0.9
	c1.4,4.7,2.1,9.6,2.1,14.7c0,4.6-0.6,9-1.7,13.2L233.5,74.9z M240.9,47.4l-7.1,0.9l-14.6-13.1L212,21.9l6.1-2.4
	C228.7,25.7,236.9,35.6,240.9,47.4z M178.8,14.2l7.4,4.1L182,32.1L162.3,42l-10.5-2.1l-0.2-8.1C158.5,23.4,167.9,17,178.8,14.2z
	 M149.7,40.5l-8.5,14.1c1.4-7.3,4.3-14.1,8.4-20L149.7,40.5z M140.5,59.2l7.1,14.9l2.1,14.8l-2.9,0.4c-4.1-7.4-6.5-16-6.5-25.1
	C140.3,62.5,140.4,60.8,140.5,59.2z M172.4,112.1l-0.2-6.8l12.5-5.3l23.9,3.1l4.4,8.4c-6.4,2.9-13.5,4.5-21,4.5
	C185.1,115.9,178.5,114.5,172.4,112.1z"/>
<g>
	<path fill="#FCFF00" stroke="#000000" stroke-miterlimit="10" d="M173,123.7c-6.9,0-9.2,4.9-9.8,6.7c0.3-3.3,0.4-5.5,0.4-5.7
		c1.2-0.2,0.8-2.3-0.1-2.3c-0.8,0-70.2,0-71,0c-0.9,0-1.3,2.1-0.1,2.3c0,0.2,0.1,2.3,0.4,5.6c-0.7-1.9-2.9-6.7-9.8-6.7
		c-8.7,0-15.2,5.4-15.2,14.1c0,24,31,28.8,31,36.5c0,0-1.3,1.6-1.1,2.9c0.3,1.7,3.8,2,3.8-2.6c0-0.8-0.3-1.7-0.9-2.5
		c0.6-0.2,1.3-0.7,1.8-1.5c0.3-0.4,0.5-0.9,0.6-1.3c3.8,7.2,9,13,15.9,15c0.2,0.3,0.2,1.7-0.9,2c-1.1,0.2-2.5,5.3,4.7,5.6
		c0.2,1.4,0.6,4.9,0.7,15.1c0,0-4.4,0.1-4.4,2.9c0,2.8,3.8,3.6,3.8,3.6s-3,5.1-8.4,5.8c0,3.3,1.3,15.8-9.9,19.4
		c0,2.4,0.1,4.1,0.1,4.1s-2,0.1-3.5,0.1s-4.4,3.6-3.8,11.6c4.6,0,56.1,0,60.7,0c0.7-8-2-11.6-3.6-11.6c-1.5,0-3.5,0-3.5,0
		s0.1-1.8,0.1-4.2c-11.2-3.6-9.9-16.1-9.9-19.4c-5.3-0.7-8.4-5.8-8.4-5.8s3.8-0.8,3.8-3.6s-4.4-2.9-4.4-2.9
		c0.1-10.2,0.4-13.7,0.7-15.1c7.2-0.2,5.8-5.3,4.7-5.6c-1.1-0.2-1.1-1.6-0.9-2c6.9-2.1,12.1-7.8,15.9-15c0.1,0.4,0.3,0.9,0.6,1.3
		c0.6,0.8,1.2,1.2,1.8,1.5c-0.6,0.8-0.9,1.7-0.9,2.5c0,4.6,3.5,4.3,3.8,2.6c0.2-1.2-1.1-2.9-1.1-2.9c0-7.7,31-12.5,31-36.5
		C188.2,129.1,181.7,123.7,173,123.7z M100.4,169c-0.5,0.7-1.4,0.5-1.9,0.5l0,0c-0.1,0-0.8-1.6-0.3-2.3s1.3-0.3,1.6,0
		C100.2,167.5,101,168.3,100.4,169z M96.1,165.7c-0.3,0.5-0.5,1-0.6,1.4c-8.6-6.4-23.2-14.7-23.2-29.6c0-5.1,4.2-11.4,11.9-11.1
		c3.3,0,6.4,2.1,6.3,4.7c0,2.4-1.6,2.7-1.7,4.1c-0.2,1.4,2,2.4,3.4-0.1c0.5-0.8,0.7-2.1,0.8-3.1c0.9,8,3.1,21.5,8,32.8
		C99.3,163.8,97.3,164.1,96.1,165.7z M157.5,169.5c-0.5,0-1.4,0.2-1.9-0.5s0.3-1.6,0.6-1.8s1.1-0.7,1.6,0
		C158.3,167.9,157.6,169.5,157.5,169.5L157.5,169.5z M160.5,167.1c-0.1-0.5-0.3-0.9-0.6-1.4c-1.2-1.6-3.2-1.9-4.9-0.8
		c4.9-11.3,7.1-24.8,8-32.8c0.1,1,0.4,2.3,0.8,3.1c1.5,2.5,3.6,1.5,3.4,0.1s-1.7-1.7-1.7-4.1c-0.1-2.6,2.9-4.7,6.3-4.7
		c7.7-0.2,11.9,6,11.9,11.1C183.8,152.4,169.1,160.7,160.5,167.1z"/>
	<path fill="#FFFFFF" d="M146.7,126h-24.8c0,0,1.6,12.3,2.3,16.2c0.7,3.9,4.2,7.4,9.5,7.4c5.2,0,10.1-1.8,11.1-7.1
		C145.7,137.3,146.7,126,146.7,126z"/>
	<path fill="#FFFFFF" d="M133,189c-1,0-6,0-7,0c0,0-1-1,0-1s6.7,0,7.3,0C134.1,188,134,189,133,189z"/>
	<rect x="127" y="208" fill="#FFFFFF" width="4" height="1"/>
	<path fill="#FFFFFF" d="M126.6,227c0,0-0.6,6-1.6,8c3.4,0,10.6,0,10.6,0s-1.5-6-1.5-8C132.5,227,126.6,227,126.6,227z"/>
	<path fill="#FFFFFF" d="M126.8,207c0-2,0.8-2.3,1.8-2.3s1.8,0.3,1.8,2.3H126.8z"/>
	<path fill="#ABD100" d="M132.9,182.1c1.6,0.3,24.1-2.1,24.1-54.1h-6c0,0,3.4,38.1-14.4,49.6C135,178.9,129.9,181.4,132.9,182.1z"/>
	<path fill="#FF9F00" d="M120.6,179.9c-1.6,0.3-24.1-2.9-24.1-53.9h6c0,0-3.4,38.1,14.4,49.5C118.5,176.8,123.6,179.3,120.6,179.9z"
		/>
	<path fill="#ABD100" d="M129.9,190.8c0,0,4.8-0.2,4.9-2.1c0.1-2,2.1-2.5,2,0.1C136.8,190.3,134.5,191.4,129.9,190.8z"/>
	<path fill="#ABD100" d="M129.9,212c0,0,3.9-0.1,4-1.7c0.1-1.6,1.7-2,1.7,0.1C135.5,211.6,133.6,212.5,129.9,212z"/>
	<path fill="#FF9F00" d="M125.9,212c0,0-3.9-0.1-4-1.7c-0.1-1.6-1.7-2-1.7,0.1C120.2,211.6,122.2,212.5,125.9,212z"/>
	<path fill="#FF9F00" d="M126.3,190.8c0,0-4.8-0.2-4.9-2.1c-0.1-2-2.1-2.5-2,0.1C119.4,190.3,121.7,191.4,126.3,190.8z"/>
	<polygon fill="#ABD100" points="131,207 130,207 130,192 131.7,192 	"/>
	<polygon fill="#FF9F00" points="125,207 124.5,207 123.9,192 125,192 	"/>
	<path fill="#ABD100" d="M134.3,219.5h3.7c0,0-0.3,8.2,0.2,10c0.5,1.7-1.9,2.4-2.9-1.3C134.2,224.4,134.3,219.5,134.3,219.5z"/>
	<path fill="#FF9F00" d="M116,220h2.6c0,0,0.2,7-0.8,9.4c-1.1,2.5-2.5,2.1-2-1.3S116,220,116,220z"/>
	<rect x="140" y="240" fill="#ABD100" width="5" height="2"/>
	<rect x="108" y="240" fill="#FF9F00" width="3" height="2"/>
	<path fill="#FF9F00" d="M97,169.3c0,0,4.1,4.1,3.2,6.4C100.8,175,101.2,172,97,169.3z"/>
	<path fill="#FF9F00" d="M97.6,166.2c0,0,2.8-1,3.8,0.7c-0.3-1-1.5-1.8-2.7-1.8C97.4,165.1,97.9,165.7,97.6,166.2z"/>
	<path fill="#ABD100" d="M157.6,170.7c0,0-2.4,2.5-2,4.6c0.1,0.5,0.7,1.6,1.3,1.3s0.2-0.8-0.2-1.5
		C156.3,174.4,156.7,171.8,157.6,170.7z"/>
	<path fill="#ABD100" d="M156.2,166.1c-0.1,0.1,0.7-0.6,1.8-0.3c0.7,0.2,1,1,1,1s0.5-1.2-0.9-1.5C157,164.9,156.7,165.7,156.2,166.1
		z"/>
	<path fill="none" stroke="#957E78" stroke-width="0.6534" stroke-miterlimit="10" d="M117.1,183.5c4.9,2.2,18.3,2,22.8-0.4"/>
	<line fill="none" stroke="#957E78" stroke-miterlimit="10" x1="124" y1="191.5" x2="133" y2="191.5"/>
	<line fill="none" stroke="#957E78" stroke-miterlimit="10" x1="124" y1="206.5" x2="132" y2="206.5"/>
	<line fill="none" stroke="#957E78" stroke-width="0.6534" stroke-miterlimit="10" x1="122.1" y1="213.2" x2="133.7" y2="213.2"/>
	<line fill="none" stroke="#957E78" stroke-width="0.6534" stroke-miterlimit="10" x1="114.6" y1="219.5" x2="141.2" y2="219.5"/>
	<line fill="none" stroke="#957E78" stroke-width="0.6534" stroke-miterlimit="10" x1="104.8" y1="239" x2="151.2" y2="239"/>
	<line fill="none" stroke="#957E78" stroke-width="0.6534" stroke-miterlimit="10" x1="104.8" y1="242.5" x2="151.2" y2="242.5"/>
</g>
<g>
	<g>
		<ellipse fill="#272A9B" stroke="#000000" stroke-miterlimit="10" cx="191.6" cy="65.2" rx="40.8" ry="40.6"/>
	</g>
	<g>
		<path fill="#FFFFFF" d="M197.9,58c-0.4-1.1-0.5-2.5-2.3-2.5c-1.9,0.1-3.8,0-5.8,0l0,0c-1.9,0-3.8,0-5.8,0c-0.9,0-1.7,0.3-2,1.2
			c-0.8,3-1.6,6.1-2.4,9.2c-0.1,0.4-0.2,0.9,0.3,1.2c0.4,0.3,0.7,0,1.1-0.1c5.2-2.4,10.4-4.8,15.5-7.2
			C197.3,59.6,198.4,59.3,197.9,58z"/>
		<path fill="#FFFFFF" d="M216.7,72.3c-3-9.2-6.1-18.5-9-27.7c-0.5-1.4-1.2-1.8-2.6-1.8c-4.8,0.1-9.5,0-14.3,0v-0.1
			c-4.9,0-9.7,0-14.6,0c-1.1,0-1.9,0.3-2.3,1.5c-3.1,9.3-6.2,18.7-9.2,28c-0.4,1.2-0.1,2,1,2.7c8,5.7,15.9,11.4,23.9,17.1
			c1,0.7,1.6,0.7,2.5,0C200,86.2,208,80.4,216,74.6C216.7,74,217,73.4,216.7,72.3z M206.3,73.1c-4.8,3.2-9.5,6.5-14.3,9.8
			c-1,0.7-1.6,0.6-2.6-0.1c-4.9-3.6-9.8-7.1-14.8-10.6c-1.1-0.8-1.2-1.5-0.8-2.7c1.9-5.8,3.7-11.5,5.4-17.3c0.3-1.1,0.8-1.5,2-1.5
			c2.9,0.1,5.9,0,8.8,0c0-0.1,0-0.1,0-0.2c3,0,6,0,9,0c1,0,1.6,0.3,1.9,1.3c1,2.7,2,5.4,3,8.1c0.4,1-0.2,1.3-1,1.6
			c-6.4,2.8-12.7,5.7-19.1,8.5c-0.6,0.2-1.3,0.3-1.3,1.1c0,0.7,0.6,0.9,1,1.2c1.9,1.4,3.8,2.8,5.7,4.3c0.9,0.7,1.5,0.7,2.4,0.1
			c4.5-3.1,9.2-6.1,13.7-9.1c1.1-0.8,1.6-0.6,2,0.6C208.7,71.5,209.6,70.8,206.3,73.1z"/>
	</g>
</g>
<g>
	<path d="M8.657,207.585v-28.952h6.646c2.248,0,3.786,0.683,4.614,2.048s1.264,3.403,1.308,6.111v0.608
		c0,2.874-0.408,5.054-1.226,6.539c-0.816,1.486-2.333,2.229-4.548,2.229h-2.386v11.416L8.657,207.585L8.657,207.585z
		 M13.065,192.533h1.514c0.932,0,1.538-0.359,1.817-1.077c0.28-0.719,0.42-2.087,0.42-4.104v-0.56
		c-0.011-1.711-0.162-2.934-0.452-3.668c-0.291-0.734-0.875-1.103-1.752-1.103h-1.547C13.065,182.021,13.065,192.533,13.065,192.533
		z"/>
	<path d="M34.267,205.825c-1.009,1.393-2.624,2.089-4.845,2.089s-3.85-0.699-4.886-2.098c-1.036-1.397-1.555-3.506-1.555-6.324
		v-13.243c0-5.308,2.166-7.962,6.498-7.962c2.237,0,3.847,0.675,4.828,2.023c0.981,1.35,1.473,3.329,1.473,5.938v13.243
		C35.78,202.321,35.275,204.433,34.267,205.825z M27.81,203.095c0.258,0.669,0.787,1.003,1.588,1.003c0.8,0,1.326-0.343,1.579-1.028
		c0.252-0.685,0.378-1.861,0.378-3.528v-13.489c0-1.371-0.129-2.371-0.387-3.002s-0.762-0.946-1.513-0.946
		c-0.752,0-1.278,0.315-1.579,0.946c-0.302,0.631-0.453,1.626-0.453,2.985v13.506C27.423,201.241,27.552,202.426,27.81,203.095z"/>
	<path d="M38.936,207.585v-28.952h4.408v25.202h5.577v3.75H38.936z"/>
	<path d="M50.611,207.585v-28.952h3.455l6.136,17.371l-0.312-7.896v-9.476h3.965v28.952h-3.126l-6.301-17.979l0.247,7.6v10.38
		L50.611,207.585L50.611,207.585z"/>
	<path d="M67.52,207.585v-28.952h4.408v28.952H67.52z"/>
	<path d="M75.018,199.442v-2.583h4.178v2.912c0,1.612,0.138,2.744,0.411,3.396c0.274,0.653,0.79,0.979,1.547,0.979
		s1.259-0.269,1.505-0.807c0.247-0.537,0.37-1.414,0.37-2.632c0-1.217-0.22-2.278-0.658-3.183c-0.438-0.905-1.135-1.852-2.089-2.838
		l-2.139-2.204c-0.998-1.042-1.773-2.122-2.327-3.241c-0.555-1.118-0.831-2.412-0.831-3.882c0-2.391,0.461-4.168,1.382-5.33
		s2.506-1.744,4.754-1.744s3.77,0.678,4.565,2.032c0.795,1.354,1.192,3.331,1.192,5.93v1.793h-4.063v-2.072
		c0-1.403-0.12-2.41-0.361-3.019s-0.705-0.913-1.391-0.913s-1.179,0.23-1.48,0.69c-0.302,0.461-0.452,1.152-0.452,2.073
		s0.153,1.656,0.461,2.204c0.307,0.549,0.86,1.25,1.661,2.105l2.385,2.583c1.195,1.294,2.098,2.604,2.706,3.932
		c0.609,1.327,0.913,2.774,0.913,4.343c0,2.709-0.455,4.71-1.365,6.004c-0.91,1.295-2.503,1.941-4.778,1.941
		c-2.276,0-3.86-0.721-4.754-2.163C75.464,204.309,75.018,202.206,75.018,199.442z"/>
	<path d="M100.363,205.899c-0.998,1.343-2.566,2.015-4.704,2.015c-2.139,0-3.737-0.716-4.796-2.146
		c-1.059-1.432-1.587-3.49-1.587-6.177v-12.618c0-4.31,1.129-7.002,3.389-8.076c0.833-0.396,1.842-0.593,3.026-0.593
		c4.068,0,6.104,2.566,6.104,7.699v3.98h-4.261v-3.701c0-1.491-0.126-2.558-0.379-3.199c-0.252-0.642-0.745-0.963-1.48-0.963
		c-0.734,0-1.244,0.34-1.529,1.021c-0.285,0.68-0.428,1.722-0.428,3.125v13.522c0,1.557,0.137,2.67,0.411,3.339
		s0.773,1.004,1.497,1.004s1.223-0.34,1.497-1.021c0.273-0.68,0.411-1.804,0.411-3.372v-4.146h4.326v4.097
		C101.86,202.485,101.361,204.556,100.363,205.899z"/>
	<path d="M104.604,207.585v-28.952h4.408v11.713h3.948v-11.713h4.409v28.952h-4.409v-13.456h-3.948v13.456H104.604z"/>
	<path d="M120.87,207.585v-28.952h9.706v3.8h-5.297v8.423h5.033v3.718h-5.033v9.212h5.494v3.8h-9.903V207.585z"/>
	<path d="M139.274,193.98l-1.414-0.065v13.67h-4.409v-28.952h7.288c1.513,0,2.643,0.305,3.389,0.913
		c0.745,0.608,1.236,1.459,1.472,2.55c0.236,1.091,0.354,2.517,0.354,4.277s-0.187,3.101-0.559,4.021
		c-0.373,0.922-1.064,1.541-2.073,1.859c0.998,0.175,1.694,0.85,2.09,2.023c0.395,1.173,0.592,3.616,0.592,7.328
		c0,3.713,0.055,5.706,0.164,5.979h-4.408c-0.109-0.219-0.164-3.679-0.164-10.38c0-1.283-0.154-2.136-0.461-2.558
		C140.826,194.225,140.207,194.003,139.274,193.98z M137.877,190.493h1.76c0.56,0,0.973-0.126,1.242-0.378s0.455-0.686,0.56-1.3
		c0.104-0.614,0.156-1.552,0.156-2.812v-0.182c0-1.567-0.132-2.593-0.396-3.076c-0.263-0.482-0.871-0.724-1.826-0.724h-1.496
		V190.493z"/>
	<path d="M154.419,207.585v-28.952h5.478l4.112,21.155l3.866-21.155h5.511v28.952h-3.932v-10.791l0.165-9.903l-3.899,20.562h-3.504
		l-4.062-20.562l0.164,9.903v10.791H154.419z"/>
	<path d="M176.903,207.585v-28.952h9.705v3.8h-5.297v8.423h5.034v3.718h-5.034v9.212h5.494v3.8h-9.902V207.585z"/>
	<path d="M189.648,207.585v-28.952h4.409v28.952H189.648z"/>
	<path d="M197.146,199.442v-2.583h4.179v2.912c0,1.612,0.137,2.744,0.411,3.396c0.274,0.653,0.79,0.979,1.546,0.979
		c0.757,0,1.259-0.269,1.506-0.807c0.246-0.537,0.37-1.414,0.37-2.632c0-1.217-0.22-2.278-0.658-3.183s-1.135-1.852-2.089-2.838
		l-2.139-2.204c-0.998-1.042-1.774-2.122-2.328-3.241c-0.554-1.118-0.83-2.412-0.83-3.882c0-2.391,0.46-4.168,1.382-5.33
		c0.921-1.162,2.505-1.744,4.754-1.744c2.248,0,3.77,0.678,4.564,2.032s1.192,3.331,1.192,5.93v1.793h-4.062v-2.072
		c0-1.403-0.121-2.41-0.362-3.019s-0.705-0.913-1.39-0.913c-0.686,0-1.18,0.23-1.48,0.69c-0.302,0.461-0.453,1.152-0.453,2.073
		s0.154,1.656,0.461,2.204c0.307,0.549,0.861,1.25,1.661,2.105l2.386,2.583c1.195,1.294,2.098,2.604,2.706,3.932
		s0.913,2.774,0.913,4.343c0,2.709-0.455,4.71-1.365,6.004c-0.911,1.295-2.504,1.941-4.779,1.941s-3.86-0.721-4.754-2.163
		S197.146,202.206,197.146,199.442z"/>
	<path d="M213.248,207.585v-25.136h-3.389v-3.816h11.038v3.816h-3.258v25.136H213.248z"/>
	<path d="M222.489,207.585v-28.952h9.706v3.8h-5.297v8.423h5.033v3.718h-5.033v9.212h5.494v3.8h-9.903V207.585z"/>
	<path d="M240.894,193.98l-1.414-0.065v13.67h-4.409v-28.952h7.288c1.513,0,2.643,0.305,3.389,0.913
		c0.745,0.608,1.236,1.459,1.472,2.55c0.236,1.091,0.354,2.517,0.354,4.277s-0.187,3.101-0.559,4.021
		c-0.373,0.922-1.064,1.541-2.073,1.859c0.998,0.175,1.694,0.85,2.09,2.023c0.395,1.173,0.592,3.616,0.592,7.328
		c0,3.713,0.055,5.706,0.164,5.979h-4.408c-0.109-0.219-0.164-3.679-0.164-10.38c0-1.283-0.154-2.136-0.461-2.558
		C242.445,194.225,241.826,194.003,240.894,193.98z M239.496,190.493h1.76c0.56,0,0.973-0.126,1.242-0.378s0.455-0.686,0.56-1.3
		c0.104-0.614,0.156-1.552,0.156-2.812v-0.182c0-1.567-0.132-2.593-0.396-3.076c-0.263-0.482-0.871-0.724-1.826-0.724h-1.496
		V190.493z"/>
	<path d="M58.731,239.444c-1.066,0-1.933-0.087-2.598-0.26c-0.666-0.173-1.229-0.49-1.688-0.95c-0.461-0.46-0.784-1.084-0.971-1.873
		c-0.188-0.788-0.28-1.807-0.28-3.056V218.8c0-1.248,0.093-2.267,0.28-3.056c0.187-0.788,0.51-1.412,0.971-1.873
		c0.46-0.46,1.022-0.776,1.688-0.95c0.665-0.173,1.531-0.26,2.598-0.26v2.734c-0.812,0-1.331,0.212-1.559,0.636
		c-0.229,0.424-0.342,1.329-0.342,2.714v14.615c0,1.386,0.113,2.29,0.342,2.714c0.228,0.424,0.747,0.636,1.559,0.636
		C58.731,236.71,58.731,239.444,58.731,239.444z"/>
	<path d="M61.698,237.585v-24.062h8.066v3.158h-4.402v7h4.184v3.09h-4.184v7.656h4.566v3.158L61.698,237.585L61.698,237.585z"/>
	<path d="M72.854,237.585v-24.062h3.664v11.074l3.664-11.074h3.787l-3.992,11.867l4.307,12.195h-3.869l-3.869-11.238v11.238
		L72.854,237.585L72.854,237.585z"/>
	<path d="M85.569,230.817v-2.146h3.473v2.42c0,1.34,0.113,2.281,0.342,2.823c0.228,0.543,0.656,0.813,1.285,0.813
		s1.046-0.223,1.251-0.67c0.205-0.446,0.308-1.176,0.308-2.188s-0.183-1.894-0.547-2.646c-0.365-0.752-0.943-1.538-1.736-2.358
		l-1.777-1.832c-0.83-0.865-1.475-1.764-1.935-2.693c-0.461-0.93-0.69-2.005-0.69-3.227c0-1.986,0.383-3.463,1.148-4.43
		c0.766-0.966,2.082-1.449,3.951-1.449c1.868,0,3.133,0.563,3.794,1.688c0.66,1.126,0.991,2.769,0.991,4.929v1.49H92.05v-1.723
		c0-1.166-0.101-2.003-0.301-2.509c-0.201-0.506-0.586-0.759-1.155-0.759c-0.57,0-0.98,0.191-1.23,0.574
		c-0.251,0.383-0.376,0.957-0.376,1.723s0.127,1.377,0.383,1.832c0.255,0.456,0.715,1.039,1.381,1.75l1.982,2.146
		c0.993,1.076,1.743,2.165,2.249,3.268c0.506,1.104,0.759,2.307,0.759,3.609c0,2.252-0.379,3.915-1.135,4.99
		c-0.757,1.076-2.081,1.613-3.972,1.613c-1.892,0-3.209-0.599-3.951-1.798C85.94,234.862,85.569,233.114,85.569,230.817z"/>
	<path d="M99.651,237.585v-20.891h-2.816v-3.172h9.174v3.172h-2.707v20.891H99.651z"/>
	<path d="M112.872,226.278l-1.176-0.055v11.361h-3.664v-24.062h6.057c1.258,0,2.196,0.253,2.816,0.759
		c0.619,0.506,1.027,1.213,1.224,2.119c0.195,0.907,0.294,2.092,0.294,3.555s-0.155,2.577-0.465,3.343
		c-0.311,0.766-0.885,1.281-1.723,1.545c0.829,0.146,1.408,0.707,1.736,1.682c0.328,0.976,0.492,3.006,0.492,6.091
		c0,3.086,0.045,4.742,0.137,4.97h-3.664c-0.092-0.182-0.137-3.058-0.137-8.627c0-1.066-0.128-1.774-0.383-2.126
		C114.161,226.481,113.646,226.297,112.872,226.278z M111.71,223.38h1.463c0.465,0,0.809-0.104,1.032-0.314
		c0.223-0.209,0.378-0.569,0.465-1.08c0.086-0.51,0.13-1.289,0.13-2.338v-0.15c0-1.303-0.109-2.155-0.328-2.557
		c-0.219-0.4-0.725-0.602-1.518-0.602h-1.244L111.71,223.38L111.71,223.38z"/>
	<path d="M120.747,237.585l3.432-24.062h4.84l3.65,24.062h-3.418l-0.574-4.293h-3.883l-0.52,4.293H120.747z M128.294,230.353
		l-1.613-12.086h-0.055l-1.477,12.086H128.294z"/>
	<path d="M135.185,237.585v-24.062h3.664v11.074l3.664-11.074h3.787l-3.992,11.867l4.307,12.195h-3.869l-3.869-11.238v11.238
		L135.185,237.585L135.185,237.585z"/>
	<path d="M148.446,237.585v-24.062h3.664v20.945h4.635v3.117L148.446,237.585L148.446,237.585z"/>
	<path d="M157.757,237.585l3.432-24.062h4.84l3.65,24.062h-3.418l-0.574-4.293h-3.883l-0.52,4.293H157.757z M165.304,230.353
		l-1.613-12.086h-0.055l-1.477,12.086H165.304z"/>
	<path d="M171.716,230.817v-2.146h3.473v2.42c0,1.34,0.113,2.281,0.342,2.823c0.228,0.543,0.656,0.813,1.285,0.813
		s1.046-0.223,1.251-0.67c0.205-0.446,0.308-1.176,0.308-2.188s-0.183-1.894-0.547-2.646c-0.365-0.752-0.943-1.538-1.736-2.358
		l-1.777-1.832c-0.83-0.865-1.475-1.764-1.935-2.693c-0.461-0.93-0.69-2.005-0.69-3.227c0-1.986,0.383-3.463,1.148-4.43
		c0.766-0.966,2.082-1.449,3.951-1.449c1.868,0,3.133,0.563,3.794,1.688c0.66,1.126,0.991,2.769,0.991,4.929v1.49h-3.377v-1.723
		c0-1.166-0.101-2.003-0.301-2.509c-0.201-0.506-0.586-0.759-1.155-0.759c-0.57,0-0.98,0.191-1.23,0.574
		c-0.251,0.383-0.376,0.957-0.376,1.723s0.127,1.377,0.383,1.832c0.255,0.456,0.715,1.039,1.381,1.75l1.982,2.146
		c0.993,1.076,1.743,2.165,2.249,3.268c0.506,1.104,0.759,2.307,0.759,3.609c0,2.252-0.379,3.915-1.135,4.99
		c-0.757,1.076-2.081,1.613-3.972,1.613c-1.892,0-3.209-0.599-3.951-1.798C172.087,234.862,171.716,233.114,171.716,230.817z"/>
	<path d="M183.474,237.585l3.432-24.062h4.84l3.65,24.062h-3.418l-0.574-4.293h-3.883l-0.52,4.293H183.474z M191.021,230.353
		l-1.613-12.086h-0.055l-1.477,12.086H191.021z"/>
	<path d="M197.282,239.444v-2.734c0.811,0,1.33-0.212,1.559-0.636c0.228-0.424,0.342-1.328,0.342-2.714v-14.615
		c0-1.385-0.114-2.29-0.342-2.714c-0.229-0.424-0.748-0.636-1.559-0.636v-2.734c1.066,0,1.932,0.087,2.598,0.26
		c0.665,0.174,1.226,0.49,1.682,0.95c0.455,0.461,0.776,1.085,0.964,1.873c0.187,0.789,0.28,1.808,0.28,3.056v14.506
		c0,1.249-0.094,2.268-0.28,3.056c-0.188,0.789-0.509,1.413-0.964,1.873c-0.456,0.46-1.017,0.777-1.682,0.95
		C199.214,239.357,198.349,239.444,197.282,239.444z"/>
</g>
</svg>
