<?xml version="1.0" encoding="utf-8"?>
<!-- Generator: Adobe Illustrator 17.0.0, SVG Export Plug-In . SVG Version: 6.00 Build 0)  -->
<!DOCTYPE svg PUBLIC "-//W3C//DTD SVG 1.1//EN" "http://www.w3.org/Graphics/SVG/1.1/DTD/svg11.dtd">
<svg version="1.1" id="Layer_1" xmlns="http://www.w3.org/2000/svg" xmlns:xlink="http://www.w3.org/1999/xlink" x="0px" y="0px"
	 width="256px" height="256px" viewBox="0 0 256 256" enable-background="new 0 0 256 256" xml:space="preserve">
	<g>
		<path fill="#FFFFFF" d="M192,10.3c-17.1,0-32.4,8-42.3,20.6h-0.3v0.3c-7.1,9.1-11.4,20.6-11.4,33c0,29.7,24.2,53.9,53.9,53.9
		s53.9-24.2,53.9-53.9S221.7,10.3,192,10.3z"/>
		<path d="M192,10.3c-17.1,0-32.4,8-42.3,20.6h-0.3v0.3c-7.1,9.1-11.4,20.6-11.4,33c0,29.7,24.2,53.9,53.9,53.9s53.9-24.2,53.9-53.9
		S221.7,10.3,192,10.3z M208.6,100.9l-23.1-3L183.7,78l17.6-10.7L217,82.4L208.6,100.9z M171.2,103.3L151.9,89l-2.1-14.7l11.8-7.4
		L181.5,78l1.9,20.2L171.2,103.3z M149.1,72.2L142,57.4l9.3-15.3l9.7,2l-0.2,20.8L149.1,72.2z M188.3,19l21.3,2.9l7.3,13.6
		l-16.1,7.9l-16.5-11.5L188.3,19z M231.4,74.4l-12.6,6.7l-16.9-16.2l0.2-19.7l16-7.9L232.3,50L231.4,74.4z M233.5,74.9l1-24.5
		l7.1-0.9c1.4,4.7,2.1,9.6,2.1,14.7c0,4.6-0.6,9-1.7,13.2L233.5,74.9z M240.9,47.4l-7.1,0.9l-14.6-13.1L212,21.9l6.1-2.4
		C228.7,25.7,236.9,35.6,240.9,47.4z M178.8,14.2l7.4,4.1L182,32.1L162.3,42l-10.5-2.1l-0.2-8.1C158.5,23.4,167.9,17,178.8,14.2z
		 M149.7,40.5l-8.5,14.1c1.4-7.3,4.3-14.1,8.4-20L149.7,40.5z M140.5,59.2l7.1,14.9l2.1,14.8l-2.9,0.4c-4.1-7.4-6.5-16-6.5-25.1
		C140.3,62.5,140.4,60.8,140.5,59.2z M172.4,112.1l-0.2-6.8l12.5-5.3l23.9,3.1l4.4,8.4c-6.4,2.9-13.5,4.5-21,4.5
		C185.1,115.9,178.5,114.5,172.4,112.1z"/>
	</g>
	<g>
		<path fill="#FCFF00" stroke="#000000" stroke-miterlimit="10" d="M152.5,179.9c2.6-1.7,35.5-19.4,35.5-49.1c0-8.6-5-13.6-10.1-13.6
		c-5.7,0-6.9,5.4-13.5,5.4c0,0,1.8-4.6-1.1-4.5c0.3-3.3,0.4-5.1,0.4-5.4c2.6-1.8-0.1-3.2-0.1-3.2H92.4c0,0-2.7,1.5-0.1,3.2
		c0,0.4,0.1,2.3,0.4,5.6c-2.9-0.1-1.1,4.4-1.1,4.4c-6.6,0-7.8-5.5-13.5-5.5c-5.1,0-10.1,5-10.1,13.6c0,29.7,32.9,47.4,35.5,49.1
		c2.6,1.7,2.2,5.3,1.5,6c-0.8,0.8-0.5,2,0.4,2c0.6,0,2.9-2.8,1.6-6.2c4,8.4,8.9,15.1,14.5,18.8c-1.3,0.6-1.9,3-1.8,3.6
		c0.2,0.6,1.2,3,3.3,3.3c0,0,3.7,17.6-8.7,25.5c0,1.1-0.2,2.7-0.2,2.7h-3.6c-1.8,0-3.2,2.4-3.2,4.2s0,4.8,0,4.8h-4.7
		c0,0-5.3,0.1-5.3,6.2c0,1.3,0,3.8,0,3.8h58c0,0,0-2.5,0-3.8c0-6-2.3-6.2-2.3-6.2h-5.7c0,0,0-3,0-4.8s-0.4-4.2-2.2-4.2h-3.6
		c0,0-0.2-1.6-0.2-2.7c-12.4-7.8-8.7-25.6-8.7-25.6c2.1-0.4,3.1-2.6,3.3-3.2c0.2-0.6-0.5-3-1.8-3.6c5.6-3.7,10.5-10.4,14.5-18.8
		c-1.4,3.4,0.9,6.2,1.6,6.2c1,0,1.3-1.1,0.4-2C150.3,185.3,149.9,181.7,152.5,179.9z M103.7,177.7c-28.1-15.6-31.4-40.9-31.4-46.3
		c0-6.3,3.3-10.5,6.8-10.5s7.6,4,10.8,4c1.4,0,2.5-0.7,3.2-1.6c1.1,10.4,3.3,26.5,7.6,41.4c1.6,5.8,3.7,11.2,6,16.2
		C106.1,179.9,105.2,178.8,103.7,177.7z M149.3,180.9c2.3-4.9,4.3-10.4,6-16.2c4.3-14.9,6.5-31,7.6-41.4c0.7,0.9,1.8,1.6,3.2,1.6
		c3.2,0,7.4-4,10.8-4c3.5,0,6.8,4.2,6.8,10.5c0,5.4-3.3,30.7-31.4,46.3C150.8,178.8,149.9,179.9,149.3,180.9z"/>
		<path fill="#FFFFFF" d="M147.9,113h-26.1c0,0,2.6,30.1,3.7,39.2c1.1,9.1,14.4,9.7,16.6-0.1S147.9,113,147.9,113z"/>
		<path fill="#FFFFFF" d="M127.6,203c-1.5,0-1.7-2.3,0.1-2.3c1.8,0,3.1-0.1,3.9-0.1c1.4,0,1.6,2.4,0,2.4S127.6,203,127.6,203z"/>
		<path fill="#FFFFFF" d="M127.8,228.1c-0.5,0-0.8-0.4-0.8-1.9s0.4-4.1,1-8.6c0.2-1.1,1.7-1.2,2,0.1s1.1,7.4,1.4,8.7
		c0.3,1.3-0.2,1.5-1,1.6C129.6,228.3,127.8,228.1,127.8,228.1z"/>
		<path fill="#FFFFFF" d="M129,237.3c-3,0-3,1.5,0,1.5c1,0,6.1,0,7.7,0c1.6,0,2.1-1.4,0.3-1.4C134.2,237.3,129,237.3,129,237.3z"/>
		<path fill="#ABD100" d="M132,198.2c0,0,22.6-25,22.2-77.1c0-2.8-4.9-5.6-5.2,4.4c-0.4,11.5-4.6,52.5-17.2,65.3
		C130.7,191,130.1,198.2,132,198.2z"/>
		<path fill="#ABD100" d="M130.9,204.6c0,0,2.6-0.7,2.2-2.6c1.1,0,1.1,1.1,1.1,1.8s-1.4,1.9-2.5,2
		C130.5,205.7,129.8,204.8,130.9,204.6z"/>
		<path fill="#ABD100" d="M131,207h0.6c0,0,0.6,14.3,1,15.5c0.5,1.1-1.6-1.3-1.6-6.6C131,210.6,131,207,131,207z"/>
		<rect x="135" y="233" fill="#ABD100" width="3" height="2"/>
		<path fill="#ABD100" d="M138,243.5v-5.6c0,0,2.1,0,3.4,0c1.3,0,2.6,0.9,2.6,2.4s0,3.2,0,3.2L138,243.5z"/>
		<path fill="#FF9F00" d="M121.4,198.2c0,0-22.6-25-22.2-77.1c0-2.8,4.9-5.6,5.2,4.4c0.4,11.5,4.6,52.5,17.2,65.3
		C122.7,191,123.3,198.2,121.4,198.2z"/>
		<path fill="#FF9F00" d="M125.1,204.6c0,0-2.6-0.7-2.2-2.6c-1.1,0-1.1,1.1-1.1,1.8s1.4,1.9,2.5,2
		C125.5,205.7,126.2,204.8,125.1,204.6z"/>
		<path fill="#FF9F00" d="M126,207h-1.6c0,0-0.1,14.3-0.5,15.5c-0.5,1.1,2.1-1.3,2.1-6.6C126,210.6,126,207,126,207z"/>
		<rect x="115" y="233.1" fill="#FF9F00" width="2" height="2"/>
		<path fill="#FF9F00" d="M113.4,243.5v-5.7c0,0,0.4,0-0.9,0s-2.5,0.9-2.5,2.4s0,3.3,0,3.3H113.4z"/>
		<line fill="none" stroke="#957E78" stroke-miterlimit="10" x1="93" y1="112.5" x2="164" y2="112.5"/>
		<line fill="none" stroke="#957E78" stroke-miterlimit="10" x1="122" y1="199.5" x2="135" y2="199.5"/>
		<line fill="none" stroke="#957E78" stroke-miterlimit="10" x1="122" y1="207.5" x2="134" y2="207.5"/>
		<line fill="none" stroke="#957E78" stroke-miterlimit="10" x1="115" y1="232.5" x2="141" y2="232.5"/>
		<line fill="none" stroke="#957E78" stroke-miterlimit="10" x1="115" y1="235.5" x2="141" y2="235.5"/>
		<line fill="none" stroke="#957E78" stroke-miterlimit="10" x1="108" y1="244.5" x2="148" y2="244.5"/>
	</g>
	<g>
		<path fill="#6DA544" d="M150.5,65.5c0,17.6,11.1,32.6,26.7,38.4l3.6-38.4l-3.6-38.4C161.7,32.9,150.5,47.9,150.5,65.5"/>
		<path fill="#D80027" d="M232.5,65.5c0-22.6-18.3-41-41-41c-5,0-9.8,0.9-14.2,2.5v76.8c4.4,1.6,9.2,2.5,14.2,2.5
		C214.1,106.4,232.5,88.1,232.5,65.5"/>
		<path fill="#FFDA44" d="M177.3,79.7c7.9,0,14.2-6.4,14.2-14.2s-6.4-14.2-14.2-14.2c-7.9,0-14.2,6.4-14.2,14.2
		S169.4,79.7,177.3,79.7"/>
		<path fill="#D80027" d="M169.2,58.4v8.9c0,4.4,3.6,8,8,8s8-3.6,8-8v-8.9H169.2z"/>
		<path fill="#F0F0F0" d="M177.3,69.9c-1.5,0-2.7-1.2-2.7-2.7v-3.6h5.3v3.6C179.9,68.7,178.7,69.9,177.3,69.9"/>
	</g>
	<g>
		<g>
			<ellipse fill="none" stroke="#000000" stroke-miterlimit="10" cx="191.6" cy="65.2" rx="40.8" ry="40.6"/>
		</g>
	</g>
	<g>
		<path d="M21.749,206.904v-28.952h6.646c2.248,0,3.786,0.683,4.614,2.048s1.264,3.402,1.308,6.111v0.608
		c0,2.873-0.409,5.053-1.226,6.539s-2.333,2.229-4.548,2.229h-2.385v11.417L21.749,206.904L21.749,206.904z M26.157,191.853h1.513
		c0.932,0,1.538-0.359,1.818-1.078c0.28-0.718,0.419-2.086,0.419-4.104v-0.559c-0.011-1.711-0.162-2.934-0.452-3.669
		c-0.291-0.734-0.875-1.102-1.752-1.102h-1.546C26.157,181.341,26.157,191.853,26.157,191.853z"/>
		<path d="M48.2,205.144c-1.009,1.394-2.624,2.09-4.844,2.09c-2.221,0-3.85-0.699-4.886-2.098c-1.037-1.398-1.555-3.507-1.555-6.325
		v-13.242c0-5.308,2.166-7.962,6.498-7.962c2.237,0,3.847,0.674,4.828,2.023s1.473,3.328,1.473,5.938v13.242
		C49.714,201.64,49.209,203.751,48.2,205.144z M41.744,202.413c0.257,0.669,0.787,1.004,1.587,1.004c0.8,0,1.327-0.343,1.579-1.028
		s0.378-1.861,0.378-3.528v-13.489c0-1.371-0.129-2.372-0.387-3.003c-0.258-0.63-0.762-0.945-1.513-0.945s-1.278,0.315-1.579,0.945
		c-0.302,0.631-0.453,1.626-0.453,2.986v13.506C41.357,200.56,41.486,201.744,41.744,202.413z"/>
		<path d="M59.535,193.3l-1.415-0.065v13.67h-4.409v-28.952h7.288c1.513,0,2.643,0.304,3.389,0.912
		c0.746,0.609,1.236,1.459,1.472,2.55c0.236,1.092,0.354,2.518,0.354,4.277c0,1.761-0.187,3.101-0.559,4.022
		c-0.373,0.921-1.064,1.541-2.073,1.858c0.998,0.176,1.694,0.851,2.089,2.023c0.395,1.174,0.592,3.616,0.592,7.329
		c0,3.712,0.055,5.705,0.164,5.979h-4.408c-0.11-0.22-0.165-3.68-0.165-10.38c0-1.283-0.154-2.136-0.461-2.559
		C61.086,193.544,60.467,193.322,59.535,193.3z M58.137,189.812h1.76c0.559,0,0.973-0.126,1.242-0.379
		c0.269-0.252,0.455-0.685,0.56-1.299c0.104-0.614,0.156-1.552,0.156-2.813v-0.181c0-1.568-0.132-2.594-0.395-3.076
		s-0.872-0.724-1.826-0.724h-1.497C58.137,181.34,58.137,189.812,58.137,189.812z"/>
		<path d="M71.807,206.904v-25.136h-3.389v-3.816h11.038v3.816h-3.257v25.136H71.807z"/>
		<path d="M92.978,205.35c-1.009,1.256-2.629,1.884-4.861,1.884s-3.855-0.631-4.869-1.893c-1.015-1.261-1.522-3.218-1.522-5.872
		v-21.533h4.409v21.451c0,1.524,0.071,2.45,0.214,2.779s0.315,0.628,0.518,0.896c0.203,0.27,0.623,0.403,1.259,0.403
		s1.091-0.187,1.365-0.56c0.274-0.372,0.441-0.836,0.501-1.39c0.061-0.554,0.091-1.264,0.091-2.13v-21.451h4.409v21.533
		C94.492,202.134,93.987,204.094,92.978,205.35z"/>
		<path d="M104.114,207.2c-1.82,0-3.243-0.716-4.269-2.146c-1.025-1.432-1.538-3.639-1.538-6.621v-12.585
		c0-2.676,0.523-4.716,1.571-6.119c1.047-1.404,2.711-2.105,4.993-2.105c2.84,0,4.645,1.059,5.412,3.175
		c0.461,1.272,0.691,3.01,0.691,5.215v2.056h-4.112v-3.026c0-1.327-0.14-2.26-0.419-2.797c-0.28-0.537-0.806-0.806-1.58-0.806
		c-0.773,0-1.319,0.32-1.637,0.962s-0.477,1.779-0.477,3.413v12.552c0,1.897,0.143,3.219,0.428,3.965s0.842,1.118,1.67,1.118
		c0.828,0,1.415-0.4,1.76-1.2c0.345-0.801,0.518-2.149,0.518-4.047v-3.899h-2.221v-3.207h6.07v15.809H109l-0.674-2.846
		c-0.23,0.976-0.735,1.743-1.513,2.303C106.034,206.921,105.134,207.2,104.114,207.2z"/>
		<path d="M115.284,206.904v-28.952h4.409v28.952H115.284z"/>
		<path d="M124.2,206.904v-28.952h9.705v3.8h-5.297v8.422h5.034v3.718h-5.034v9.213h5.494v3.8H124.2V206.904z"/>
		<path d="M137.048,198.761v-2.582h4.178v2.911c0,1.612,0.138,2.745,0.411,3.397c0.274,0.652,0.79,0.979,1.547,0.979
		s1.259-0.269,1.505-0.806c0.247-0.537,0.37-1.415,0.37-2.632c0-1.218-0.22-2.278-0.658-3.184c-0.438-0.904-1.135-1.851-2.089-2.838
		l-2.139-2.204c-0.998-1.042-1.773-2.122-2.327-3.24c-0.555-1.119-0.831-2.413-0.831-3.883c0-2.391,0.461-4.167,1.382-5.33
		c0.921-1.162,2.506-1.743,4.754-1.743s3.77,0.677,4.565,2.031s1.192,3.331,1.192,5.931v1.793h-4.063v-2.073
		c0-1.403-0.12-2.409-0.361-3.019c-0.241-0.608-0.705-0.913-1.391-0.913s-1.179,0.23-1.48,0.691s-0.452,1.151-0.452,2.072
		c0,0.922,0.153,1.656,0.461,2.205c0.307,0.548,0.86,1.25,1.661,2.105l2.385,2.582c1.195,1.295,2.098,2.605,2.706,3.932
		c0.609,1.327,0.913,2.775,0.913,4.344c0,2.708-0.455,4.71-1.365,6.004s-2.503,1.941-4.778,1.941c-2.276,0-3.86-0.722-4.754-2.163
		C137.494,203.628,137.048,201.524,137.048,198.761z"/>
		<path d="M152.676,206.904v-28.952h4.408v28.952H152.676z"/>
		<path d="M161.016,198.761v-2.582h4.179v2.911c0,1.612,0.137,2.745,0.411,3.397s0.79,0.979,1.546,0.979
		c0.757,0,1.259-0.269,1.506-0.806c0.246-0.537,0.37-1.415,0.37-2.632c0-1.218-0.22-2.278-0.658-3.184
		c-0.438-0.904-1.135-1.851-2.089-2.838l-2.139-2.204c-0.998-1.042-1.774-2.122-2.328-3.24c-0.554-1.119-0.83-2.413-0.83-3.883
		c0-2.391,0.46-4.167,1.382-5.33c0.921-1.162,2.505-1.743,4.754-1.743c2.248,0,3.77,0.677,4.564,2.031s1.192,3.331,1.192,5.931
		v1.793h-4.062v-2.073c0-1.403-0.121-2.409-0.362-3.019c-0.241-0.608-0.705-0.913-1.39-0.913c-0.686,0-1.18,0.23-1.48,0.691
		c-0.302,0.461-0.453,1.151-0.453,2.072c0,0.922,0.154,1.656,0.461,2.205c0.307,0.548,0.861,1.25,1.661,2.105l2.386,2.582
		c1.195,1.295,2.098,2.605,2.706,3.932c0.608,1.327,0.913,2.775,0.913,4.344c0,2.708-0.455,4.71-1.365,6.004
		c-0.911,1.294-2.504,1.941-4.779,1.941s-3.86-0.722-4.754-2.163C161.463,203.628,161.016,201.524,161.016,198.761z"/>
		<path d="M187.204,205.218c-0.998,1.344-2.566,2.016-4.704,2.016c-2.139,0-3.737-0.716-4.796-2.147s-1.587-3.489-1.587-6.177
		v-12.617c0-4.31,1.129-7.002,3.389-8.077c0.833-0.395,1.842-0.592,3.026-0.592c4.068,0,6.104,2.565,6.104,7.698v3.981h-4.261
		v-3.702c0-1.491-0.126-2.558-0.379-3.199c-0.252-0.642-0.745-0.962-1.48-0.962c-0.734,0-1.244,0.34-1.529,1.02
		c-0.285,0.681-0.428,1.722-0.428,3.126v13.521c0,1.558,0.137,2.671,0.411,3.34s0.773,1.003,1.497,1.003s1.223-0.34,1.497-1.02
		c0.273-0.68,0.411-1.804,0.411-3.372v-4.146h4.326v4.096C188.701,201.805,188.202,203.875,187.204,205.218z"/>
		<path d="M192.287,206.904v-28.952h4.409v11.712h3.948v-11.712h4.408v28.952h-4.408v-13.456h-3.948v13.456H192.287z"/>
		<path d="M209.396,206.904v-28.952h9.706v3.8h-5.297v8.422h5.033v3.718h-5.033v9.213h5.494v3.8h-9.903V206.904z"/>
		<path d="M228.643,193.3l-1.415-0.065v13.67h-4.408v-28.952h7.287c1.514,0,2.643,0.304,3.389,0.912
		c0.746,0.609,1.236,1.459,1.473,2.55c0.235,1.092,0.354,2.518,0.354,4.277c0,1.761-0.187,3.101-0.56,4.022
		s-1.063,1.541-2.072,1.858c0.998,0.176,1.694,0.851,2.089,2.023c0.395,1.174,0.593,3.616,0.593,7.329
		c0,3.712,0.055,5.705,0.164,5.979h-4.408c-0.11-0.22-0.165-3.68-0.165-10.38c0-1.283-0.153-2.136-0.461-2.559
		C230.194,193.544,229.574,193.322,228.643,193.3z M227.244,189.812h1.761c0.559,0,0.973-0.126,1.241-0.379
		c0.269-0.252,0.455-0.685,0.56-1.299s0.156-1.552,0.156-2.813v-0.181c0-1.568-0.132-2.594-0.395-3.076
		c-0.264-0.482-0.872-0.724-1.826-0.724h-1.497V189.812z"/>
		<path d="M3.553,240.904v-28.952h5.478l4.112,21.154l3.866-21.154h5.511v28.952h-3.932v-10.792l0.165-9.902l-3.899,20.562H11.35
		L7.287,220.21l0.165,9.902v10.792L3.553,240.904L3.553,240.904z"/>
		<path d="M25.868,240.904v-28.952h9.706v3.8h-5.297v8.422h5.034v3.718h-5.034v9.213h5.494v3.8h-9.903V240.904z"/>
		<path d="M38.446,240.904v-28.952h4.409v28.952H38.446z"/>
		<path d="M45.775,232.761v-2.582h4.178v2.911c0,1.612,0.137,2.745,0.411,3.397c0.274,0.652,0.79,0.979,1.546,0.979
		c0.757,0,1.259-0.269,1.505-0.806s0.37-1.415,0.37-2.632c0-1.218-0.22-2.278-0.658-3.184c-0.438-0.904-1.135-1.851-2.089-2.838
		l-2.139-2.204c-0.998-1.042-1.774-2.122-2.328-3.24c-0.554-1.119-0.831-2.413-0.831-3.883c0-2.391,0.46-4.167,1.382-5.33
		c0.921-1.162,2.505-1.743,4.754-1.743c2.248,0,3.77,0.677,4.565,2.031s1.192,3.331,1.192,5.931v1.793H53.57v-2.073
		c0-1.403-0.121-2.409-0.362-3.019c-0.241-0.608-0.705-0.913-1.39-0.913c-0.686,0-1.179,0.23-1.48,0.691
		c-0.302,0.461-0.453,1.151-0.453,2.072c0,0.922,0.154,1.656,0.461,2.205c0.307,0.548,0.861,1.25,1.661,2.105l2.385,2.582
		c1.195,1.295,2.098,2.605,2.706,3.932c0.609,1.327,0.913,2.775,0.913,4.344c0,2.708-0.455,4.71-1.365,6.004
		c-0.911,1.294-2.503,1.941-4.779,1.941s-3.86-0.722-4.754-2.163C46.222,237.628,45.775,235.524,45.775,232.761z"/>
		<path d="M61.708,240.904v-25.136h-3.389v-3.816h11.038v3.816H66.1v25.136H61.708z"/>
		<path d="M70.781,240.904v-28.952h9.706v3.8H75.19v8.422h5.034v3.718H75.19v9.213h5.494v3.8h-9.903V240.904z"/>
		<path d="M89.017,227.3l-1.415-0.065v13.67h-4.409v-28.952h7.288c1.513,0,2.643,0.304,3.389,0.912
		c0.746,0.609,1.236,1.459,1.472,2.55c0.236,1.092,0.354,2.518,0.354,4.277c0,1.761-0.187,3.101-0.559,4.022
		c-0.373,0.921-1.064,1.541-2.073,1.858c0.998,0.176,1.694,0.851,2.089,2.023c0.395,1.174,0.592,3.616,0.592,7.329
		c0,3.712,0.055,5.705,0.164,5.979h-4.408c-0.11-0.22-0.165-3.68-0.165-10.38c0-1.283-0.154-2.136-0.461-2.559
		C90.569,227.544,89.949,227.322,89.017,227.3z M87.619,223.812h1.76c0.559,0,0.973-0.126,1.242-0.379
		c0.269-0.252,0.455-0.685,0.56-1.299c0.104-0.614,0.156-1.552,0.156-2.813v-0.181c0-1.568-0.132-2.594-0.395-3.076
		s-0.872-0.724-1.826-0.724h-1.497V223.812z"/>
		<path d="M108.105,242.764c-1.066,0-1.933-0.087-2.598-0.26c-0.666-0.174-1.229-0.49-1.688-0.95
		c-0.46-0.461-0.784-1.085-0.971-1.873c-0.187-0.788-0.28-1.807-0.28-3.056v-14.506c0-1.249,0.093-2.268,0.28-3.056
		s0.51-1.413,0.971-1.873c0.46-0.46,1.023-0.777,1.688-0.95s1.531-0.26,2.598-0.26v2.734c-0.812,0-1.331,0.212-1.559,0.636
		s-0.342,1.328-0.342,2.714v14.615c0,1.386,0.114,2.29,0.342,2.714c0.228,0.424,0.747,0.636,1.559,0.636V242.764z"/>
		<path d="M110.232,240.904v-24.062h5.523c1.868,0,3.146,0.567,3.835,1.702c0.688,1.135,1.05,2.828,1.087,5.079v0.506
		c0,2.388-0.34,4.199-1.019,5.435c-0.679,1.235-1.939,1.853-3.78,1.853h-1.982v9.488L110.232,240.904L110.232,240.904z
		 M113.896,228.395h1.258c0.774,0,1.278-0.299,1.511-0.896s0.349-1.734,0.349-3.411v-0.465c-0.009-1.422-0.135-2.438-0.376-3.049
		c-0.242-0.61-0.727-0.916-1.456-0.916h-1.285L113.896,228.395L113.896,228.395z"/>
		<path d="M127.138,229.598l-1.176-0.055v11.361h-3.664v-24.062h6.057c1.258,0,2.196,0.253,2.816,0.759
		c0.619,0.506,1.027,1.212,1.224,2.119c0.195,0.907,0.294,2.092,0.294,3.555s-0.155,2.577-0.465,3.343
		c-0.311,0.766-0.885,1.28-1.723,1.545c0.829,0.146,1.408,0.706,1.736,1.682s0.492,3.006,0.492,6.091s0.045,4.742,0.137,4.97h-3.664
		c-0.092-0.183-0.137-3.058-0.137-8.627c0-1.066-0.128-1.775-0.383-2.126C128.427,229.801,127.912,229.616,127.138,229.598z
		 M125.976,226.699h1.463c0.465,0,0.809-0.104,1.032-0.314c0.223-0.21,0.378-0.569,0.465-1.08c0.086-0.511,0.13-1.29,0.13-2.338
		v-0.15c0-1.304-0.109-2.155-0.328-2.557s-0.725-0.602-1.518-0.602h-1.244C125.976,219.658,125.976,226.699,125.976,226.699z"/>
		<path d="M135.403,240.904v-24.062h3.664v24.062H135.403z"/>
		<path d="M141.974,240.904v-24.062h4.553l3.418,17.582l3.213-17.582h4.58v24.062h-3.268v-8.969l0.137-8.23l-3.24,17.09h-2.912
		l-3.377-17.09l0.137,8.23v8.969H141.974z"/>
		<path d="M160.52,240.904v-24.062h8.066V220h-4.402v7h4.184v3.09h-4.184v7.656h4.566v3.158H160.52z"/>
		<path d="M170.973,240.904v-24.062h3.664v24.062H170.973z"/>
		<path d="M182.383,229.598l-1.176-0.055v11.361h-3.664v-24.062h6.057c1.258,0,2.196,0.253,2.816,0.759s1.027,1.212,1.224,2.119
		s0.294,2.092,0.294,3.555s-0.155,2.577-0.465,3.343s-0.884,1.28-1.723,1.545c0.829,0.146,1.408,0.706,1.736,1.682
		s0.492,3.006,0.492,6.091s0.046,4.742,0.137,4.97h-3.664c-0.091-0.183-0.137-3.058-0.137-8.627c0-1.066-0.128-1.775-0.383-2.126
		S183.157,229.616,182.383,229.598z M181.221,226.699h1.463c0.465,0,0.809-0.104,1.032-0.314s0.378-0.569,0.465-1.08
		s0.13-1.29,0.13-2.338v-0.15c0-1.304-0.109-2.155-0.328-2.557s-0.725-0.602-1.518-0.602h-1.244L181.221,226.699L181.221,226.699z"
		/>
		<path d="M189.418,240.904l3.432-24.062h4.84l3.65,24.062h-3.418l-0.574-4.293h-3.883l-0.52,4.293H189.418z M196.965,233.672
		l-1.613-12.086h-0.055l-1.477,12.086H196.965z"/>
		<path d="M207.193,240.904v-24.062h3.664v20.945h4.635v3.117L207.193,240.904L207.193,240.904z"/>
		<path d="M216.894,240.904v-24.062h3.664v24.062H216.894z"/>
		<path d="M227.989,241.15c-1.513,0-2.695-0.595-3.548-1.784s-1.278-3.023-1.278-5.503v-10.459c0-2.224,0.436-3.919,1.306-5.086
		s2.254-1.75,4.149-1.75c2.36,0,3.86,0.88,4.498,2.639c0.383,1.058,0.574,2.502,0.574,4.334v1.709h-3.418v-2.516
		c0-1.103-0.116-1.878-0.349-2.324s-0.67-0.67-1.312-0.67s-1.096,0.267-1.36,0.8s-0.396,1.479-0.396,2.837v10.432
		c0,1.577,0.118,2.675,0.355,3.295s0.699,0.93,1.388,0.93s1.176-0.333,1.463-0.998s0.431-1.786,0.431-3.363v-3.24h-1.846v-2.666
		h5.045v13.139h-1.641l-0.561-2.365c-0.191,0.812-0.61,1.449-1.258,1.914S228.837,241.15,227.989,241.15z"/>
		<path d="M235.202,240.904l3.432-24.062h4.84l3.65,24.062h-3.418l-0.574-4.293h-3.883l-0.52,4.293H235.202z M242.749,233.672
		l-1.613-12.086h-0.055l-1.477,12.086H242.749z"/>
		<path d="M248.171,242.764v-2.734c0.811,0,1.33-0.212,1.559-0.636c0.228-0.424,0.342-1.328,0.342-2.714v-14.615
		c0-1.386-0.114-2.29-0.342-2.714c-0.229-0.424-0.748-0.636-1.559-0.636v-2.734c1.066,0,1.932,0.087,2.598,0.26
		c0.665,0.173,1.226,0.49,1.682,0.95c0.455,0.46,0.776,1.085,0.964,1.873c0.187,0.788,0.28,1.807,0.28,3.056v14.506
		c0,1.249-0.094,2.268-0.28,3.056c-0.188,0.788-0.509,1.412-0.964,1.873c-0.456,0.46-1.017,0.776-1.682,0.95
		C250.103,242.677,249.237,242.764,248.171,242.764z"/>
	</g>
</svg>