<?xml version="1.0" encoding="utf-8"?>
<!-- Generator: Adobe Illustrator 17.0.0, SVG Export Plug-In . SVG Version: 6.00 Build 0)  -->
<!DOCTYPE svg PUBLIC "-//W3C//DTD SVG 1.1//EN" "http://www.w3.org/Graphics/SVG/1.1/DTD/svg11.dtd">
<svg version="1.1" id="Layer_1" xmlns="http://www.w3.org/2000/svg" xmlns:xlink="http://www.w3.org/1999/xlink" x="0px" y="0px"
	 width="256px" height="256px" viewBox="0 0 256 256" enable-background="new 0 0 256 256" xml:space="preserve">
<g>
	<g>
		<polygon fill="#A500E6" points="78.5,160.3 44.2,83.8 76.3,57.2 194,55.9 211.1,86.4 177.4,163.2 144.4,138.3 164.5,87.7 
			87.5,88.1 113.6,136.3 		"/>
		<g>
			<g>
				<path fill="#FFFFFF" d="M78.5,166.5c-1.8,0-3.6-1-4.4-2.8L38.5,87.1c-0.9-2-0.4-4.4,1.3-5.8l34.5-28.6c1.2-1,2.7-1.3,4.1-1
					c1.5,0.3,2.7,1.3,3.3,2.7l35.7,76.7c1.1,2.4,0.1,5.3-2.3,6.4c-2.4,1.1-5.3,0.1-6.4-2.3l-33.1-71L48.8,86.4l34.1,73.1
					c1.1,2.4,0.1,5.3-2.3,6.4C79.9,166.3,79.2,166.5,78.5,166.5z"/>
			</g>
			<g>
				<path fill="#FFFFFF" d="M177,167.5c-0.7,0-1.4-0.1-2-0.5c-2.4-1.1-3.5-4-2.3-6.4l34.6-74.1l-26.8-22.3l-33.2,71.2
					c-1.1,2.4-4,3.5-6.4,2.3c-2.4-1.1-3.5-4-2.3-6.4l35.8-76.8c0.6-1.4,1.9-2.3,3.3-2.7c1.5-0.3,3,0,4.1,1l34.5,28.6
					c1.7,1.4,2.2,3.8,1.3,5.8l-36.1,77.5C180.6,166.4,178.8,167.5,177,167.5z"/>
			</g>
			<g>
				<path fill="#FFFFFF" d="M178.6,60L178.6,60L77.3,60.5c-2.7,0-4.8-1.6-4.8-4.3s2.2-4.3,4.8-4.3l0,0L178.6,52c2.7,0,4.8,1.3,4.8,4
					C183.4,58.7,181.3,60,178.6,60z"/>
			</g>
			<g>
				<path fill="#FFFFFF" d="M163.7,93L163.7,93l-71.4-0.1c-2.7,0-4.8-2.3-4.8-4.9c0-2.7,2.2-4.9,4.8-4.9l0,0l71.4,0.3
					c2.7,0,4.8,2.2,4.8,4.9C168.5,90.8,166.4,93,163.7,93z"/>
			</g>
		</g>
		<g>
			<g>
				<g>
					<path fill="#FFFFFF" d="M127.1,248.4c-12.7,0-24.7-4-34.9-11.5c-26-19.3-31.5-56.2-12.3-82.2c11-14.9,28.7-23.8,47.3-23.8
						c12.7,0,24.7,4,34.9,11.5c12.6,9.3,20.8,23,23.2,38.6c2.3,15.5-1.6,31-10.9,43.6C163.4,239.5,145.7,248.4,127.1,248.4z
						 M127.2,139.7c-15.8,0-30.8,7.6-40.2,20.2c-16.4,22.1-11.7,53.5,10.4,69.8c8.7,6.4,18.9,9.8,29.7,9.8
						c15.8,0,30.8-7.6,40.2-20.2c7.9-10.7,11.2-23.9,9.3-37.1c-2-13.2-9-24.8-19.7-32.8C148.2,143.1,138,139.7,127.2,139.7z"/>
				</g>
			</g>
			<g>
				<g>
					<polygon fill="#FFFFFF" points="113.7,137.1 104.1,158.8 80.4,161.3 					"/>
				</g>
			</g>
			<g>
				<g>
					<polygon fill="#FFFFFF" points="147,240.1 126.6,228.1 105.9,239.8 					"/>
				</g>
			</g>
			<g>
				<g>
					<polygon fill="#FFFFFF" points="174.1,162 150.6,159.3 141.2,137.4 					"/>
				</g>
			</g>
			<g>
				<g>
					<polygon fill="#FFFFFF" points="86,225.6 90.9,202.4 73.1,186.6 					"/>
				</g>
			</g>
			<g>
				<g>
					<polygon fill="#FFFFFF" points="181.4,185.9 163.7,201.6 168.5,224.9 					"/>
				</g>
			</g>
		</g>
	</g>
	<path fill="#FFFF00" d="M127.2,139.7c-15.8,0-30.8,7.6-40.2,20.2c-16.4,22.1-11.7,53.5,10.4,69.8c8.7,6.4,18.9,9.8,29.7,9.8
		c15.8,0,30.8-7.6,40.2-20.2c7.9-10.7,11.2-23.9,9.3-37.1c-2-13.2-9-24.8-19.7-32.8C148.2,143.1,138,139.7,127.2,139.7z"/>
	<path fill="#ABD100" d="M145.3,227.9c-4.8,5,11.8-7.4,16-13.1c6.7-9.1,9.5-20.3,7.9-31.5c-1.7-11.2-7.6-21.1-16.7-27.8
		c-1.8-1.4-3.8-2.6-5.8-3.6c0,0,13.9,19.1,12.9,36.9S152.8,220.2,145.3,227.9z"/>
	<path fill="#FF9F00" d="M95.4,188.3c-1-21.7,16.8-38.3,16.8-38.3c-7.5,2.9-14.2,7.8-19.1,14.4c-13.9,18.8-10,45.4,8.9,59.4
		c2.3,1.7,9.2,6.2,7.2,4.3C104.5,223.8,96.4,210,95.4,188.3z"/>
</g>
<g>
	<path fill="#FFFFFF" d="M192,10.3c-17.1,0-32.4,8-42.3,20.6h-0.3v0.3c-7.1,9.1-11.4,20.6-11.4,33c0,29.7,24.2,53.9,53.9,53.9
		s53.9-24.2,53.9-53.9S221.7,10.3,192,10.3z"/>
	<path d="M192,10.3c-17.1,0-32.4,8-42.3,20.6h-0.3v0.3c-7.1,9.1-11.4,20.6-11.4,33c0,29.7,24.2,53.9,53.9,53.9s53.9-24.2,53.9-53.9
		S221.7,10.3,192,10.3z M208.6,100.9l-23.1-3L183.7,78l17.6-10.7L217,82.4L208.6,100.9z M171.2,103.3L151.9,89l-2.1-14.7l11.8-7.4
		L181.5,78l1.9,20.2L171.2,103.3z M149.1,72.2L142,57.4l9.3-15.3l9.7,2l-0.2,20.8L149.1,72.2z M188.3,19l21.3,2.9l7.3,13.6
		l-16.1,7.9l-16.5-11.5L188.3,19z M231.4,74.4l-12.6,6.7l-16.9-16.2l0.2-19.7l16-7.9L232.3,50L231.4,74.4z M233.5,74.9l1-24.5
		l7.1-0.9c1.4,4.7,2.1,9.6,2.1,14.7c0,4.6-0.6,9-1.7,13.2L233.5,74.9z M240.9,47.4l-7.1,0.9l-14.6-13.1L212,21.9l6.1-2.4
		C228.7,25.7,236.9,35.6,240.9,47.4z M178.8,14.2l7.4,4.1L182,32.1L162.3,42l-10.5-2.1l-0.2-8.1C158.5,23.4,167.9,17,178.8,14.2z
		 M149.7,40.5l-8.5,14.1c1.4-7.3,4.3-14.1,8.4-20L149.7,40.5z M140.5,59.2l7.1,14.9l2.1,14.8l-2.9,0.4c-4.1-7.4-6.5-16-6.5-25.1
		C140.3,62.5,140.4,60.8,140.5,59.2z M172.4,112.1l-0.2-6.8l12.5-5.3l23.9,3.1l4.4,8.4c-6.4,2.9-13.5,4.5-21,4.5
		C185.1,115.9,178.5,114.5,172.4,112.1z"/>
</g>
<g>
	<path fill="#F0F0F0" d="M191.6,106.2c22.6,0,41-18.3,41-41c0-22.6-18.3-41-41-41c-22.6,0-41,18.3-41,41
		C150.7,87.9,169,106.2,191.6,106.2"/>
	<path fill="#D80027" d="M232.2,59.9H197l0,0V24.7c-1.7-0.2-3.5-0.3-5.3-0.3s-3.6,0.1-5.3,0.3V60H151c-0.2,1.7-0.3,3.5-0.3,5.3
		s0.1,3.6,0.3,5.3h35.3v35.3c1.7,0.2,3.5,0.3,5.3,0.3s3.6-0.1,5.3-0.3V70.6h35.3c0.2-1.7,0.3-3.5,0.3-5.3
		C232.6,63.5,232.5,61.7,232.2,59.9"/>
</g>
<g>
	<g>
		<ellipse fill="none" stroke="#000000" stroke-miterlimit="10" cx="191.6" cy="65.2" rx="40.8" ry="40.6"/>
	</g>
</g>
<g>
	<path d="M8.07,188.108v-2.582h4.178v2.911c0,1.612,0.137,2.745,0.411,3.397c0.274,0.652,0.79,0.979,1.546,0.979
		c0.757,0,1.259-0.269,1.505-0.806s0.37-1.415,0.37-2.632c0-1.218-0.22-2.278-0.658-3.184c-0.438-0.904-1.135-1.851-2.089-2.838
		l-2.139-2.204c-0.998-1.042-1.774-2.122-2.328-3.24c-0.554-1.119-0.831-2.413-0.831-3.883c0-2.391,0.46-4.167,1.382-5.33
		c0.921-1.162,2.505-1.743,4.754-1.743c2.248,0,3.77,0.677,4.565,2.031s1.192,3.331,1.192,5.931v1.793h-4.063v-2.073
		c0-1.403-0.121-2.409-0.362-3.019c-0.241-0.608-0.705-0.913-1.39-0.913c-0.686,0-1.179,0.23-1.48,0.691
		c-0.302,0.461-0.453,1.151-0.453,2.072c0,0.922,0.154,1.656,0.461,2.205c0.307,0.548,0.861,1.25,1.661,2.105l2.385,2.582
		c1.195,1.295,2.098,2.605,2.706,3.932c0.609,1.327,0.913,2.775,0.913,4.344c0,2.708-0.455,4.71-1.365,6.004
		c-0.911,1.294-2.503,1.941-4.779,1.941s-3.86-0.722-4.754-2.163C8.517,192.976,8.07,190.872,8.07,188.108z"/>
	<path d="M23.533,196.252V167.3h6.646c2.248,0,3.786,0.683,4.614,2.048s1.264,3.402,1.308,6.111v0.608
		c0,2.873-0.409,5.053-1.226,6.539s-2.333,2.229-4.548,2.229h-2.385v11.417L23.533,196.252L23.533,196.252z M27.941,181.2h1.513
		c0.932,0,1.538-0.359,1.818-1.078c0.28-0.718,0.419-2.086,0.419-4.104v-0.559c-0.011-1.711-0.162-2.934-0.452-3.669
		c-0.291-0.734-0.875-1.102-1.752-1.102h-1.546C27.941,170.688,27.941,181.2,27.941,181.2z"/>
	<path d="M39.227,196.252V167.3h4.409v28.952H39.227z"/>
	<path d="M48.143,196.252V167.3h9.706v3.8h-5.297v8.422h5.034v3.718h-5.034v9.213h5.494v3.8h-9.903V196.252z"/>
	<path d="M61.566,196.252V167.3h4.409v25.201h5.577v3.751L61.566,196.252L61.566,196.252z"/>
	<path d="M74.084,196.252V167.3h9.706v3.8h-5.297v8.422h5.034v3.718h-5.034v9.213h5.494v3.8h-9.903V196.252z"/>
	<path d="M93.331,182.647l-1.415-0.065v13.67h-4.409V167.3h7.288c1.513,0,2.643,0.304,3.389,0.912
		c0.746,0.609,1.236,1.459,1.472,2.55c0.236,1.092,0.354,2.518,0.354,4.277c0,1.761-0.187,3.101-0.559,4.022
		c-0.373,0.921-1.064,1.541-2.073,1.858c0.998,0.176,1.694,0.851,2.089,2.023c0.395,1.174,0.592,3.616,0.592,7.329
		c0,3.712,0.055,5.705,0.164,5.979h-4.408c-0.11-0.22-0.165-3.68-0.165-10.38c0-1.283-0.154-2.136-0.461-2.559
		C94.883,182.892,94.263,182.67,93.331,182.647z M91.933,179.16h1.76c0.559,0,0.973-0.126,1.242-0.379
		c0.269-0.252,0.455-0.685,0.56-1.299c0.104-0.614,0.156-1.552,0.156-2.813v-0.181c0-1.568-0.132-2.594-0.395-3.076
		s-0.872-0.724-1.826-0.724h-1.497V179.16z"/>
	<path d="M110.143,196.252V167.3h6.498c2.127,0,3.671,0.628,4.631,1.883c0.959,1.256,1.439,3.106,1.439,5.552l0.016,13.062
		c0,2.918-0.482,5.057-1.447,6.416c-0.965,1.36-2.561,2.04-4.787,2.04L110.143,196.252L110.143,196.252z M114.552,192.83H116
		c0.812,0,1.401-0.264,1.769-0.79c0.367-0.526,0.551-1.491,0.551-2.895l-0.016-14.296c0-1.502-0.184-2.571-0.551-3.207
		c-0.368-0.637-1.001-0.954-1.9-0.954h-1.3L114.552,192.83L114.552,192.83z"/>
	<path d="M126.692,196.252V167.3h9.706v3.8h-5.297v8.422h5.034v3.718h-5.034v9.213h5.494v3.8h-9.903V196.252z"/>
	<path d="M145.938,182.647l-1.414-0.065v13.67h-4.409V167.3h7.288c1.513,0,2.643,0.304,3.389,0.912
		c0.745,0.609,1.236,1.459,1.472,2.55c0.236,1.092,0.354,2.518,0.354,4.277c0,1.761-0.187,3.101-0.559,4.022
		c-0.373,0.921-1.064,1.541-2.073,1.858c0.998,0.176,1.694,0.851,2.09,2.023c0.395,1.174,0.592,3.616,0.592,7.329
		c0,3.712,0.055,5.705,0.164,5.979h-4.408c-0.109-0.22-0.164-3.68-0.164-10.38c0-1.283-0.154-2.136-0.461-2.559
		C147.49,182.892,146.871,182.67,145.938,182.647z M144.541,179.16h1.76c0.56,0,0.973-0.126,1.242-0.379
		c0.269-0.252,0.455-0.685,0.56-1.299c0.104-0.614,0.156-1.552,0.156-2.813v-0.181c0-1.568-0.132-2.594-0.396-3.076
		c-0.263-0.482-0.871-0.724-1.826-0.724h-1.496V179.16z"/>
	<path d="M162.191,188.108v-2.582h4.179v2.911c0,1.612,0.137,2.745,0.411,3.397s0.79,0.979,1.546,0.979
		c0.757,0,1.259-0.269,1.506-0.806c0.246-0.537,0.37-1.415,0.37-2.632c0-1.218-0.22-2.278-0.658-3.184
		c-0.438-0.904-1.135-1.851-2.089-2.838l-2.139-2.204c-0.998-1.042-1.774-2.122-2.328-3.24c-0.554-1.119-0.83-2.413-0.83-3.883
		c0-2.391,0.46-4.167,1.382-5.33c0.921-1.162,2.505-1.743,4.754-1.743c2.248,0,3.77,0.677,4.564,2.031s1.192,3.331,1.192,5.931
		v1.793h-4.062v-2.073c0-1.403-0.121-2.409-0.362-3.019c-0.241-0.608-0.705-0.913-1.39-0.913c-0.686,0-1.18,0.23-1.48,0.691
		c-0.302,0.461-0.453,1.151-0.453,2.072c0,0.922,0.154,1.656,0.461,2.205c0.307,0.548,0.861,1.25,1.661,2.105l2.386,2.582
		c1.195,1.295,2.098,2.605,2.706,3.932c0.608,1.327,0.913,2.775,0.913,4.344c0,2.708-0.455,4.71-1.365,6.004
		c-0.911,1.294-2.504,1.941-4.779,1.941s-3.86-0.722-4.754-2.163C162.639,192.976,162.191,190.872,162.191,188.108z"/>
	<path d="M176.339,196.252l4.129-28.952h5.823l4.393,28.952h-4.112l-0.691-5.166h-4.672l-0.625,5.166H176.339z M185.42,187.55
		l-1.941-14.542h-0.065l-1.777,14.542L185.42,187.55L185.42,187.55z"/>
	<path d="M193.875,196.252V167.3h4.408v28.952H193.875z"/>
	<path d="M202.215,188.108v-2.582h4.179v2.911c0,1.612,0.137,2.745,0.411,3.397s0.79,0.979,1.546,0.979
		c0.757,0,1.259-0.269,1.506-0.806c0.246-0.537,0.37-1.415,0.37-2.632c0-1.218-0.22-2.278-0.658-3.184
		c-0.438-0.904-1.135-1.851-2.089-2.838l-2.139-2.204c-0.998-1.042-1.774-2.122-2.328-3.24c-0.554-1.119-0.83-2.413-0.83-3.883
		c0-2.391,0.46-4.167,1.382-5.33c0.921-1.162,2.505-1.743,4.754-1.743c2.248,0,3.77,0.677,4.564,2.031s1.192,3.331,1.192,5.931
		v1.793h-4.062v-2.073c0-1.403-0.121-2.409-0.362-3.019c-0.241-0.608-0.705-0.913-1.39-0.913c-0.686,0-1.18,0.23-1.48,0.691
		c-0.302,0.461-0.453,1.151-0.453,2.072c0,0.922,0.154,1.656,0.461,2.205c0.307,0.548,0.861,1.25,1.661,2.105l2.386,2.582
		c1.195,1.295,2.098,2.605,2.706,3.932c0.608,1.327,0.913,2.775,0.913,4.344c0,2.708-0.455,4.71-1.365,6.004
		c-0.911,1.294-2.504,1.941-4.779,1.941s-3.86-0.722-4.754-2.163C202.662,192.976,202.215,190.872,202.215,188.108z"/>
	<path d="M228.602,194.491c-1.009,1.394-2.624,2.09-4.845,2.09s-3.85-0.699-4.886-2.098s-1.555-3.507-1.555-6.325v-13.242
		c0-5.308,2.166-7.962,6.498-7.962c2.237,0,3.847,0.674,4.828,2.023s1.473,3.328,1.473,5.938v13.242
		C230.115,190.987,229.61,193.099,228.602,194.491z M222.145,191.761c0.258,0.669,0.787,1.004,1.588,1.004
		c0.8,0,1.326-0.343,1.579-1.028c0.252-0.686,0.378-1.861,0.378-3.528V174.72c0-1.371-0.129-2.372-0.387-3.003
		c-0.258-0.63-0.762-0.945-1.513-0.945c-0.752,0-1.278,0.315-1.579,0.945c-0.302,0.631-0.453,1.626-0.453,2.986v13.506
		C221.758,189.907,221.887,191.092,222.145,191.761z"/>
	<path d="M234.112,196.252V167.3h3.454l6.136,17.371l-0.312-7.896V167.3h3.965v28.952h-3.126l-6.3-17.98l0.247,7.601v10.38h-4.064
		V196.252z"/>
	<path d="M23.731,226.252V202.19h5.4c1.768,0,3.051,0.521,3.849,1.565c0.797,1.044,1.196,2.582,1.196,4.614l0.014,10.855
		c0,2.425-0.401,4.202-1.203,5.332s-2.128,1.695-3.979,1.695L23.731,226.252L23.731,226.252z M27.396,223.408h1.203
		c0.674,0,1.164-0.219,1.47-0.656c0.305-0.438,0.458-1.239,0.458-2.406l-0.014-11.881c0-1.249-0.153-2.138-0.458-2.666
		c-0.306-0.528-0.832-0.793-1.579-0.793h-1.08C27.396,205.006,27.396,223.408,27.396,223.408z"/>
	<path d="M37.485,226.252V202.19h8.066v3.158h-4.402v7h4.184v3.09h-4.184v7.656h4.566v3.158L37.485,226.252L37.485,226.252z"/>
	<path d="M53.481,214.945l-1.176-0.055v11.361h-3.664v-24.062h6.057c1.258,0,2.196,0.253,2.816,0.759
		c0.62,0.506,1.027,1.212,1.224,2.119c0.196,0.907,0.294,2.092,0.294,3.555s-0.155,2.577-0.465,3.343s-0.884,1.28-1.723,1.545
		c0.829,0.146,1.408,0.706,1.736,1.682s0.492,3.006,0.492,6.091s0.045,4.742,0.137,4.97h-3.664
		c-0.091-0.183-0.137-3.058-0.137-8.627c0-1.066-0.128-1.775-0.383-2.126C54.771,215.148,54.256,214.964,53.481,214.945z
		 M52.319,212.047h1.463c0.465,0,0.809-0.104,1.032-0.314c0.223-0.21,0.378-0.569,0.465-1.08c0.086-0.511,0.13-1.29,0.13-2.338
		v-0.15c0-1.304-0.109-2.155-0.328-2.557s-0.725-0.602-1.518-0.602h-1.244C52.319,205.006,52.319,212.047,52.319,212.047z"/>
	<path d="M67.468,226.252V202.19h5.523c1.868,0,3.146,0.567,3.835,1.702c0.688,1.135,1.05,2.828,1.087,5.079v0.506
		c0,2.388-0.34,4.199-1.019,5.435c-0.679,1.235-1.939,1.853-3.78,1.853h-1.982v9.488L67.468,226.252L67.468,226.252z
		 M71.132,213.742h1.258c0.774,0,1.278-0.299,1.511-0.896s0.349-1.734,0.349-3.411v-0.465c-0.009-1.422-0.135-2.438-0.376-3.049
		c-0.242-0.61-0.727-0.916-1.456-0.916h-1.285L71.132,213.742L71.132,213.742z"/>
	<path d="M85.214,214.945l-1.176-0.055v11.361h-3.664v-24.062h6.057c1.258,0,2.196,0.253,2.816,0.759s1.027,1.212,1.224,2.119
		c0.196,0.907,0.294,2.092,0.294,3.555s-0.155,2.577-0.465,3.343s-0.884,1.28-1.723,1.545c0.829,0.146,1.408,0.706,1.736,1.682
		s0.492,3.006,0.492,6.091s0.045,4.742,0.137,4.97h-3.664c-0.091-0.183-0.137-3.058-0.137-8.627c0-1.066-0.128-1.775-0.383-2.126
		C86.503,215.148,85.988,214.964,85.214,214.945z M84.052,212.047h1.463c0.465,0,0.809-0.104,1.032-0.314
		c0.223-0.21,0.378-0.569,0.465-1.08c0.086-0.511,0.13-1.29,0.13-2.338v-0.15c0-1.304-0.109-2.155-0.328-2.557
		s-0.725-0.602-1.518-0.602h-1.244L84.052,212.047L84.052,212.047z"/>
	<path d="M94.183,226.252V202.19h8.066v3.158h-4.402v7h4.184v3.09h-4.184v7.656h4.566v3.158L94.183,226.252L94.183,226.252z"/>
	<path d="M105.339,226.252V202.19h4.553l3.418,17.582l3.213-17.582h4.58v24.062h-3.268v-8.969l0.137-8.23l-3.24,17.09h-2.912
		l-3.377-17.09l0.137,8.23v8.969H105.339z"/>
	<path d="M124.862,226.252V202.19h3.664v24.062H124.862z"/>
	<path d="M132.272,226.252V202.19h8.066v3.158h-4.402v7h4.184v3.09h-4.184v7.656h4.566v3.158L132.272,226.252L132.272,226.252z"/>
	<path d="M148.269,214.945l-1.176-0.055v11.361h-3.664v-24.062h6.057c1.258,0,2.196,0.253,2.816,0.759s1.027,1.212,1.224,2.119
		s0.294,2.092,0.294,3.555s-0.155,2.577-0.465,3.343s-0.884,1.28-1.723,1.545c0.829,0.146,1.408,0.706,1.736,1.682
		s0.492,3.006,0.492,6.091s0.046,4.742,0.137,4.97h-3.664c-0.091-0.183-0.137-3.058-0.137-8.627c0-1.066-0.128-1.775-0.383-2.126
		S149.043,214.964,148.269,214.945z M147.106,212.047h1.463c0.465,0,0.809-0.104,1.032-0.314s0.378-0.569,0.465-1.08
		s0.13-1.29,0.13-2.338v-0.15c0-1.304-0.109-2.155-0.328-2.557s-0.725-0.602-1.518-0.602h-1.244L147.106,212.047L147.106,212.047z"
		/>
	<path d="M162.255,226.252V202.19h3.664v20.945h4.635v3.117L162.255,226.252L162.255,226.252z"/>
	<path d="M172.659,226.252V202.19h8.066v3.158h-4.402v7h4.184v3.09h-4.184v7.656h4.566v3.158L172.659,226.252L172.659,226.252z"/>
	<path d="M182.722,226.252l3.432-24.062h4.84l3.65,24.062h-3.418l-0.574-4.293h-3.883l-0.52,4.293H182.722z M190.269,219.02
		l-1.613-12.086h-0.055l-1.477,12.086H190.269z"/>
	<path d="M201.616,226.498c-1.513,0-2.695-0.595-3.548-1.784s-1.278-3.023-1.278-5.503v-10.459c0-2.224,0.436-3.919,1.306-5.086
		s2.254-1.75,4.149-1.75c2.36,0,3.86,0.88,4.498,2.639c0.383,1.058,0.574,2.502,0.574,4.334v1.709h-3.418v-2.516
		c0-1.103-0.116-1.878-0.349-2.324s-0.67-0.67-1.312-0.67s-1.096,0.267-1.36,0.8s-0.396,1.479-0.396,2.837v10.432
		c0,1.577,0.118,2.675,0.355,3.295s0.699,0.93,1.388,0.93s1.176-0.333,1.463-0.998s0.431-1.786,0.431-3.363v-3.24h-1.846v-2.666
		h5.045v13.139h-1.641l-0.561-2.365c-0.191,0.812-0.61,1.449-1.258,1.914S202.464,226.498,201.616,226.498z"/>
	<path d="M219.978,224.96c-0.839,1.044-2.186,1.565-4.04,1.565s-3.204-0.524-4.047-1.572s-1.265-2.675-1.265-4.881v-17.896h3.664
		v17.828c0,1.267,0.06,2.037,0.178,2.311s0.262,0.521,0.431,0.745s0.518,0.335,1.046,0.335s0.907-0.155,1.135-0.465
		s0.367-0.695,0.417-1.155s0.075-1.051,0.075-1.771v-17.828h3.664v17.896C221.235,222.287,220.816,223.916,219.978,224.96z"/>
	<path d="M224.708,226.252V202.19h8.066v3.158h-4.402v7h4.184v3.09h-4.184v7.656h4.566v3.158L224.708,226.252L224.708,226.252z"/>
</g>
</svg>
