<?xml version="1.0" encoding="utf-8"?>
<!-- Generator: Adobe Illustrator 17.0.0, SVG Export Plug-In . SVG Version: 6.00 Build 0)  -->
<!DOCTYPE svg PUBLIC "-//W3C//DTD SVG 1.1//EN" "http://www.w3.org/Graphics/SVG/1.1/DTD/svg11.dtd">
<svg version="1.1" id="Layer_1" xmlns="http://www.w3.org/2000/svg" xmlns:xlink="http://www.w3.org/1999/xlink" x="0px" y="0px"
	 width="256px" height="256px" viewBox="0 0 256 256" enable-background="new 0 0 256 256" xml:space="preserve">
<path fill="#FFFFFF" d="M192.1,10.3c-17.1,0-32.4,8-42.3,20.6h-0.3v0.3c-7.1,9.1-11.4,20.6-11.4,33c0,29.7,24.2,53.9,53.9,53.9
	s54-24.2,54-53.9S221.9,10.3,192.1,10.3z"/>
<path d="M192,10.3c-17.1,0-32.4,8-42.3,20.6h-0.3v0.3c-7.1,9.1-11.4,20.6-11.4,33c0,29.7,24.2,53.9,53.9,53.9s53.9-24.2,53.9-53.9
	S221.7,10.3,192,10.3z M208.6,100.9l-23.1-3L183.7,78l17.6-10.7L217,82.4L208.6,100.9z M171.2,103.3L151.9,89l-2.1-14.7l11.8-7.4
	L181.5,78l1.9,20.2L171.2,103.3z M149.1,72.2L142,57.4l9.3-15.3l9.7,2l-0.2,20.8L149.1,72.2z M188.3,19l21.3,2.9l7.3,13.6l-16.1,7.9
	l-16.5-11.5L188.3,19z M231.4,74.4l-12.6,6.7l-16.9-16.2l0.2-19.7l16-7.9L232.3,50L231.4,74.4z M233.5,74.9l1-24.5l7.1-0.9
	c1.4,4.7,2.1,9.6,2.1,14.7c0,4.6-0.6,9-1.7,13.2L233.5,74.9z M240.9,47.4l-7.1,0.9l-14.6-13.1L212,21.9l6.1-2.4
	C228.7,25.7,236.9,35.6,240.9,47.4z M178.8,14.2l7.4,4.1L182,32.1L162.3,42l-10.5-2.1l-0.2-8.1C158.5,23.4,167.9,17,178.8,14.2z
	 M149.7,40.5l-8.5,14.1c1.4-7.3,4.3-14.1,8.4-20L149.7,40.5z M140.5,59.2l7.1,14.9l2.1,14.8l-2.9,0.4c-4.1-7.4-6.5-16-6.5-25.1
	C140.3,62.5,140.4,60.8,140.5,59.2z M172.4,112.1l-0.2-6.8l12.5-5.3l23.9,3.1l4.4,8.4c-6.4,2.9-13.5,4.5-21,4.5
	C185.1,115.9,178.5,114.5,172.4,112.1z"/>
<g>
	<path fill="#FCFF00" stroke="#000000" stroke-miterlimit="10" d="M146.2,157.8c0,0,0,1.3,1.1,1.6c1.1,0.2,1.5-1.5,1.5-2
		c26.1-1.1,26.6-22.9,26.6-31.4s-3.9-17.6-10.6-17.6c-6.7,0-10.3,8-10.3,8v-2h-54v2c0,0-3-8-9.7-8s-10.3,9.1-10.3,17.6
		s0.6,30.2,26.8,31.4c0,0.5,0.4,2.1,1.5,2c1.1-0.3,1.2-1.6,1.2-1.6s4.8,5.4,10,5.7c0,2.8-0.2,6.7-0.2,6.7s1.8,2.8,3.8,2.9
		c0,0.7,0,1.5,0,1.5s-2.9,1.6-2.9,3.6s2.9,4.2,2.9,4.2v2.6c0,0-4,1.1-5,1.5c0,1.1,0,5.1,0,5.1l-2,1.6v4.2h-6v6h-1v11h-2v2.6
		c0,0-4-0.3-4,4.1s0,22.3,0,22.3h-1.2c0,0-4.2,4-2.5,11c6.5,0,50,0,56.5,0c1.8-7-2.5-11-2.5-11h-3.4c0,0,0-17.9,0-22.3s-2-4.1-2-4.1
		v-2.6h-4v-11h-2v-6h-4v-4.2l-2-1.6c0,0,0-3.9,0-5.1c0-0.3-4-1.5-4-1.5v-2.6c0,0,2.9-2.3,2.9-4.2s-2.9-3.6-2.9-3.6s0-0.8,0-1.5
		c3-0.2,3.8-2.9,3.8-2.9s-0.2-3.9-0.2-6.7C141.4,163.2,146.2,157.8,146.2,157.8z M154,123c1.6,0.2,2.6-1.4,1.6-4
		c0,0,3.8-7.2,8.2-7.4c4.4-0.2,7.6,3.8,8.4,16.8c1.2,26.8-22.4,27.4-24.8,27.4C154.6,145.6,154,123,154,123z M84,128.4
		c0.8-13,4-17,8.4-16.8s8.2,7.4,8.2,7.4c-1,2.6,0,4.2,1.6,4c0,0-0.6,22.6,6.6,32.8C106.4,155.8,82.8,155.2,84,128.4z"/>
	<path fill="#FFFFFF" d="M142.8,117h-19.6c0,0,1.6,22.9,2.8,28.3s11.6,5.7,13.4-1.3C141.2,137,142,120,142.8,117z"/>
	<polygon fill="#FFFFFF" points="127,165 133.3,165 133.2,171 127,171 	"/>
	<rect x="127" y="177" fill="#FFFFFF" width="4" height="2"/>
	<rect x="127" y="183" fill="#FFFFFF" width="4" height="2"/>
	<rect x="127" y="187" fill="#FFFFFF" width="6" height="5"/>
	<rect x="127" y="194" fill="#FFFFFF" width="7" height="3"/>
	<rect x="127" y="203" fill="#FFFFFF" width="9" height="2"/>
	<rect x="127" y="218" fill="#FFFFFF" width="12" height="2"/>
	<path fill="#FF9F00" d="M110,137.4c0.8,6.6,3.7,18.3,15,20.2c0.9,0.3-0.3,2.8-5.8,2.2s-12.2-7.1-13-22.4c0-3.9,1.6-4.9,1.6-4.9
		S110,133,110,137.4z"/>
	<path fill="#ABD100" d="M132,160c0,0,13.7-3.3,13.6-29.5c0-3.9,4.3-3.6,4.3-0.2C149.8,133.9,150.8,164.3,132,160z"/>
	<path fill="#FF9F00" d="M108,243v-22c0,0,0-1.7,1.3-1.7c2,0,1.7,0.9,1.7,2s0,21.7,0,21.7H108z"/>
	<path fill="#ABD100" d="M141,243c0,0,0-20.6,0-22s0.5-2.1,2.5-2.1s3.5,1.4,3.5,2.4s0,21.7,0,21.7L141,243L141,243z"/>
	<rect x="110.3" y="215.2" fill="#FF9F00" width="1.9" height="1.9"/>
	<rect x="111" y="204" fill="#FF9F00" width="4" height="10"/>
	<rect x="115" y="198" fill="#FF9F00" width="2" height="5"/>
	<rect x="118" y="194" fill="#FF9F00" width="3" height="3"/>
	<rect x="134" y="194" fill="#ABD100" width="2" height="3"/>
	<rect x="136" y="198" fill="#ABD100" width="3" height="4"/>
	<rect x="137" y="204" fill="#ABD100" width="6" height="10"/>
	<rect x="139" y="214" fill="#ABD100" width="4" height="3"/>
	<rect x="122" y="187" fill="#FF9F00" width="2" height="3"/>
	<rect x="133" y="187" fill="#ABD100" width="3" height="5"/>
	<path fill="#FF9F00" d="M121.2,168.1c0,0,0.2,1.5,1.3,2.4c0.6,0.5,1.3,1,2.8,0.6c-2.9,2.1-4.3-1-4.3-1S121,169.4,121.2,168.1z"/>
	<path fill="#FF9F00" d="M125.9,181.2c0,0-2-0.5-2.5-2.2c-0.6-0.8-2-0.2-1.7,0.6S122.8,181.4,125.9,181.2z"/>
	<path fill="#ABD100" d="M130.5,181.1c0,0,2-0.3,2.2-1.7s1.7-0.9,1.7,0.2C134.3,180.6,131.6,181.1,130.5,181.1z"/>
	<path fill="#ABD100" d="M131.7,172.1c0,0,1.6-0.2,1.6-2.2c0-1.3,1.7-1.4,1.8-0.1C135.1,171.2,132.8,172.4,131.7,172.1z"/>
	<line fill="none" stroke="#000000" stroke-miterlimit="10" x1="111" y1="203.5" x2="143" y2="203.5"/>
	<line fill="none" stroke="#000000" stroke-miterlimit="10" x1="116" y1="197.5" x2="138" y2="197.5"/>
	<line fill="none" stroke="#000000" stroke-miterlimit="10" x1="118" y1="192.5" x2="136" y2="192.5"/>
	<line fill="none" stroke="#000000" stroke-miterlimit="10" x1="119" y1="187.5" x2="136" y2="187.5"/>
	<line fill="none" stroke="#000000" stroke-miterlimit="10" x1="124" y1="181.5" x2="133" y2="181.5"/>
	<line fill="none" stroke="#000000" stroke-miterlimit="10" x1="124" y1="173.5" x2="132" y2="173.5"/>
	<line fill="none" stroke="#000000" stroke-miterlimit="10" x1="120" y1="164.5" x2="136" y2="164.5"/>
	<line fill="none" stroke="#000000" stroke-miterlimit="10" x1="110" y1="214.5" x2="145" y2="214.5"/>
	<line fill="none" stroke="#000000" stroke-miterlimit="10" x1="104" y1="243.5" x2="151" y2="243.5"/>
</g>
<g>
	<g>
		<circle fill="#F0F0F0" cx="191.5" cy="65.2" r="41"/>
		<path fill="#0052B4" d="M229.9,79.4c1.6-4.4,2.5-9.2,2.5-14.2s-0.9-9.8-2.5-14.2h-76.8c-1.6,4.4-2.5,9.2-2.5,14.2
			s0.9,9.8,2.5,14.2l38.4,3.6L229.9,79.4z"/>
		<path fill="#D80027" d="M191.5,106.2c17.6,0,32.6-11.1,38.4-26.7h-76.8C158.9,95,173.9,106.2,191.5,106.2z"/>
	</g>
	<ellipse fill="none" stroke="#020200" stroke-width="1.4754" stroke-miterlimit="10" cx="191.6" cy="65.2" rx="40.8" ry="40.6"/>
</g>
<g>
	<g>
		<g>
			<path fill="#FFFF00" d="M22.285,208.335h-7.547l-0.416-0.824c-0.224-0.443-0.326-0.646-0.326-11.056
				c0-1.024-0.108-1.472-0.162-1.629c-0.081-0.029-0.254-0.075-0.572-0.092v13.601H5.854v-31.952h8.787
				c1.886,0,3.305,0.409,4.336,1.251c1.012,0.824,1.682,1.967,1.991,3.395c0.261,1.209,0.388,2.711,0.388,4.595
				c0,1.974-0.219,3.473-0.669,4.585c-0.193,0.477-0.45,0.903-0.767,1.276c0.317,0.407,0.599,0.92,0.815,1.565
				c0.458,1.36,0.671,3.841,0.671,7.806c0,4.144,0.071,5.252,0.105,5.543L22.285,208.335z M17.063,205.335h1.387
				c-0.028-0.933-0.045-2.335-0.045-4.479c0-4.629-0.322-6.278-0.515-6.85c-0.308-0.916-0.725-0.989-0.926-1.024l-0.193-2.908
				c0.581-0.183,0.93-0.488,1.133-0.991c0.206-0.507,0.45-1.519,0.45-3.459c0-1.645-0.107-2.978-0.32-3.961
				c-0.164-0.756-0.476-1.313-0.954-1.704c-0.462-0.376-1.306-0.575-2.441-0.575H8.854v25.952h1.408v-13.741l2.984,0.139
				c1.388,0.033,2.41,0.466,3.003,1.284c0.516,0.707,0.747,1.769,0.747,3.438C16.996,201.543,17.029,204.076,17.063,205.335z
				 M13.539,191.243h-3.261v-11.472h2.997c1.917,0,2.767,0.818,3.143,1.504c0.4,0.737,0.578,1.907,0.578,3.796v0.182
				c0,1.359-0.058,2.362-0.177,3.064c-0.163,0.954-0.494,1.655-1.012,2.142C15.252,190.979,14.489,191.243,13.539,191.243z
				 M13.278,188.243h0.261c0.101,0,0.172-0.007,0.221-0.015c0.022-0.064,0.064-0.197,0.102-0.415c0.062-0.361,0.135-1.1,0.135-2.561
				v-0.182c0-1.398-0.115-2.016-0.177-2.248c-0.092-0.023-0.261-0.052-0.541-0.052L13.278,188.243L13.278,188.243z"/>
		</g>
		<g>
			<path fill="#FFFF00" d="M29.353,208.664c-2.7,0-4.731-0.825-6.039-2.452c-1.247-1.549-1.853-3.777-1.853-6.812v-23.033h7.409
				v22.951c0,1.781,0.104,2.209,0.116,2.252c0.043,0.095,0.104,0.207,0.175,0.32c0.11,0.01,0.329,0.007,0.401-0.008
				c0.089-0.15,0.148-0.351,0.175-0.597c0.055-0.497,0.082-1.159,0.082-1.968v-22.951h7.408v23.033c0,3.046-0.604,5.276-1.845,6.82
				C34.08,207.842,32.051,208.664,29.353,208.664z M24.461,179.366v20.033c0,2.291,0.401,3.95,1.191,4.933
				c0.721,0.896,1.931,1.332,3.701,1.332c1.769,0,2.976-0.433,3.691-1.323c0.785-0.977,1.183-2.639,1.183-4.941v-20.033h-1.408
				v19.951c0,0.93-0.033,1.681-0.1,2.294c-0.089,0.817-0.354,1.529-0.785,2.115c-0.393,0.534-1.159,1.171-2.574,1.171
				c-1.128,0-1.954-0.336-2.455-0.998c-0.273-0.361-0.507-0.767-0.698-1.205c-0.203-0.468-0.337-1.221-0.337-3.377v-19.951h-1.409
				V179.366z"/>
		</g>
		<g>
			<path fill="#FFFF00" d="M44.582,208.664c-2.819,0-4.848-0.967-6.029-2.873c-1.054-1.698-1.566-4.021-1.566-7.099v-4.083h5.325
				l-1.776-1.83c-1.105-1.154-1.976-2.37-2.595-3.621c-0.655-1.319-0.987-2.85-0.987-4.547c0-2.765,0.558-4.812,1.706-6.262
				c1.216-1.534,3.211-2.312,5.93-2.312c2.807,0,4.778,0.933,5.859,2.772c0.941,1.604,1.399,3.792,1.399,6.689v3.293h-4.687
				l1.048,1.135c1.298,1.405,2.296,2.859,2.968,4.324c0.696,1.517,1.049,3.188,1.049,4.968c0,3.054-0.536,5.3-1.638,6.867
				C49.385,207.797,47.364,208.664,44.582,208.664z M39.987,197.609v1.083c0,2.468,0.375,4.324,1.116,5.518
				c0.223,0.36,0.9,1.454,3.479,1.454c1.773,0,2.935-0.427,3.551-1.304c0.725-1.031,1.092-2.761,1.092-5.142
				c0-1.345-0.261-2.595-0.776-3.717c-0.54-1.177-1.362-2.367-2.445-3.54l-2.385-2.583c-0.886-0.947-1.5-1.731-1.869-2.392
				c-0.438-0.779-0.651-1.741-0.651-2.936c0-1.231,0.228-2.179,0.697-2.895c0.579-0.884,1.55-1.369,2.735-1.369
				c1.301,0,2.316,0.678,2.785,1.86c0.318,0.804,0.467,1.938,0.467,3.571v0.572h1.063v-0.293c0-2.316-0.332-4.056-0.986-5.171
				c-0.188-0.318-0.759-1.291-3.272-1.291c-1.756,0-2.96,0.396-3.578,1.176c-0.702,0.886-1.058,2.365-1.058,4.398
				c0,1.23,0.227,2.312,0.675,3.215c0.484,0.979,1.179,1.944,2.066,2.871l2.132,2.196c1.062,1.098,1.856,2.184,2.362,3.229
				c0.536,1.106,0.808,2.397,0.808,3.837c0,1.471-0.161,2.506-0.507,3.259c-0.286,0.625-1.041,1.68-2.868,1.68
				c-1.355,0-2.423-0.692-2.93-1.898c-0.361-0.86-0.528-2.124-0.528-3.978v-1.412h-1.175V197.609z M44.165,196.844v2.178
				c0,1.908,0.206,2.605,0.294,2.816c0.002,0.069,0.239,0.064,0.336,0.049c0.073-0.209,0.202-0.744,0.202-1.928
				c0-0.982-0.171-1.833-0.508-2.528C44.397,197.239,44.289,197.043,44.165,196.844z M44.543,182.794
				c-0.208,0-0.261,0.026-0.262,0.026c-0.01,0.032-0.182,0.341-0.182,1.231c0,0.819,0.146,1.251,0.269,1.47
				c0.08,0.144,0.208,0.344,0.416,0.615v-0.917C44.784,183.676,44.626,183.027,44.543,182.794z"/>
		</g>
		<g>
			<path fill="#FFFF00" d="M58.627,208.664c-2.819,0-4.848-0.967-6.029-2.873c-1.054-1.698-1.566-4.021-1.566-7.099v-4.083h5.325
				l-1.776-1.83c-1.105-1.154-1.976-2.37-2.595-3.621c-0.655-1.319-0.987-2.85-0.987-4.547c0-2.765,0.558-4.812,1.706-6.262
				c1.216-1.534,3.211-2.312,5.93-2.312c2.807,0,4.778,0.933,5.859,2.772c0.941,1.604,1.399,3.792,1.399,6.689v3.293h-4.687
				l1.048,1.135c1.298,1.405,2.296,2.859,2.968,4.324c0.696,1.517,1.049,3.188,1.049,4.968c0,3.054-0.536,5.3-1.638,6.867
				C63.43,207.797,61.409,208.664,58.627,208.664z M54.032,197.609v1.083c0,2.468,0.375,4.324,1.116,5.518
				c0.223,0.36,0.9,1.454,3.479,1.454c1.773,0,2.935-0.427,3.551-1.304c0.725-1.031,1.092-2.761,1.092-5.142
				c0-1.345-0.261-2.595-0.776-3.717c-0.54-1.177-1.362-2.367-2.445-3.54l-2.385-2.583c-0.886-0.947-1.5-1.731-1.869-2.392
				c-0.438-0.779-0.651-1.741-0.651-2.936c0-1.231,0.228-2.179,0.697-2.895c0.579-0.884,1.55-1.369,2.735-1.369
				c1.301,0,2.316,0.678,2.785,1.86c0.318,0.804,0.467,1.938,0.467,3.571v0.572h1.063v-0.293c0-2.316-0.332-4.056-0.986-5.171
				c-0.188-0.318-0.759-1.291-3.272-1.291c-1.756,0-2.96,0.396-3.578,1.176c-0.702,0.886-1.058,2.365-1.058,4.398
				c0,1.23,0.227,2.312,0.675,3.215c0.484,0.979,1.179,1.944,2.066,2.871l2.132,2.196c1.062,1.098,1.856,2.184,2.362,3.229
				c0.536,1.106,0.808,2.397,0.808,3.837c0,1.471-0.161,2.506-0.507,3.259c-0.286,0.625-1.041,1.68-2.868,1.68
				c-1.355,0-2.423-0.692-2.93-1.898c-0.361-0.86-0.528-2.124-0.528-3.978v-1.412h-1.175V197.609z M58.21,196.844v2.178
				c0,1.908,0.206,2.605,0.294,2.816c0.001,0.069,0.24,0.064,0.336,0.049c0.073-0.209,0.202-0.744,0.202-1.928
				c0-0.982-0.171-1.833-0.508-2.528C58.442,197.239,58.333,197.043,58.21,196.844z M58.588,182.794
				c-0.208,0-0.261,0.026-0.262,0.026c-0.01,0.032-0.182,0.341-0.182,1.231c0,0.819,0.146,1.251,0.269,1.47
				c0.08,0.144,0.208,0.344,0.416,0.615v-0.917C58.829,183.676,58.671,183.027,58.588,182.794z"/>
		</g>
		<g>
			<path fill="#FFFF00" d="M73.227,208.335h-7.409v-31.952h7.409V208.335z M68.817,205.335h1.409v-25.952h-1.409V205.335z"/>
		</g>
		<g>
			<path fill="#FFFF00" d="M80.91,208.664c-2.819,0-4.848-0.967-6.029-2.873c-1.054-1.701-1.566-4.022-1.566-7.099v-4.083h5.326
				l-1.776-1.83c-1.106-1.155-1.978-2.371-2.596-3.621c-0.654-1.32-0.986-2.851-0.986-4.547c0-2.767,0.558-4.814,1.707-6.263
				c1.216-1.533,3.21-2.312,5.929-2.312c2.807,0,4.778,0.933,5.858,2.773c0.941,1.604,1.399,3.791,1.399,6.688v3.293h-4.687
				l1.048,1.135c1.298,1.405,2.296,2.859,2.968,4.324c0.696,1.52,1.049,3.19,1.049,4.968c0,3.054-0.536,5.3-1.638,6.867
				C85.712,207.797,83.692,208.664,80.91,208.664z M76.315,197.609v1.083c0,2.467,0.375,4.323,1.116,5.519
				c0.223,0.359,0.9,1.453,3.479,1.453c1.773,0,2.935-0.427,3.553-1.305c0.724-1.03,1.092-2.76,1.092-5.141
				c0-1.343-0.261-2.594-0.777-3.718c-0.539-1.176-1.361-2.366-2.444-3.539l-2.386-2.583c-0.888-0.95-1.501-1.734-1.869-2.392
				c-0.432-0.771-0.651-1.76-0.651-2.936c0-1.23,0.229-2.177,0.698-2.895c0.577-0.883,1.549-1.369,2.735-1.369
				c1.301,0,2.315,0.678,2.784,1.86c0.319,0.805,0.468,1.939,0.468,3.571v0.572h1.062v-0.293c0-2.316-0.332-4.056-0.986-5.171
				c-0.188-0.319-0.758-1.291-3.271-1.291c-1.756,0-2.96,0.396-3.578,1.176c-0.702,0.885-1.058,2.364-1.058,4.398
				c0,1.23,0.227,2.312,0.674,3.216c0.483,0.977,1.178,1.941,2.067,2.87l2.132,2.196c1.062,1.098,1.856,2.184,2.362,3.229
				c0.536,1.106,0.808,2.397,0.808,3.837c0,1.468-0.161,2.503-0.506,3.257c-0.289,0.629-1.045,1.682-2.87,1.682
				c-1.354,0-2.422-0.692-2.929-1.898c-0.36-0.856-0.528-2.12-0.528-3.978v-1.412h-1.177V197.609z M80.494,196.844v2.178
				c0,1.91,0.206,2.604,0.294,2.814c0.003,0.073,0.241,0.064,0.337,0.05c0.072-0.206,0.202-0.743,0.202-1.927
				c0-0.982-0.171-1.833-0.508-2.528C80.727,197.239,80.618,197.043,80.494,196.844z M80.872,182.794
				c-0.208,0-0.261,0.026-0.261,0.026c-0.009,0.033-0.183,0.343-0.183,1.231c0,0.817,0.147,1.252,0.27,1.472
				c0.08,0.143,0.208,0.342,0.416,0.614v-0.918C81.113,183.678,80.955,183.028,80.872,182.794z"/>
		</g>
		<g>
			<path fill="#FFFF00" d="M95.457,208.664c-2.631,0-4.65-0.927-6.001-2.755c-1.249-1.688-1.882-4.066-1.882-7.068v-12.618
				c0-4.918,1.428-8.092,4.245-9.431c1.033-0.49,2.268-0.738,3.671-0.738c2.839,0,7.603,1.195,7.603,9.199v5.48h-7.261v-5.201
				c0-1.699-0.172-2.391-0.274-2.651c0.038,0.026,0.008-0.011-0.084-0.011c-0.055,0-0.088,0.005-0.104,0.009
				c-0.002,0.009-0.02,0.038-0.042,0.092c-0.116,0.277-0.311,0.976-0.311,2.545v13.522c0,1.773,0.188,2.498,0.3,2.771
				c0.013,0.032,0.025,0.056,0.034,0.07c0.012-0.003,0.038,0.001,0.075,0.001c0.033,0,0.057-0.002,0.073-0.004
				c0.003-0.013,0.017-0.039,0.033-0.077c0.113-0.28,0.302-1.017,0.302-2.812v-5.646h7.327v5.597c0,3.154-0.586,5.479-1.792,7.104
				C100.074,207.782,98.086,208.664,95.457,208.664z M95.49,179.054c-0.956,0-1.758,0.15-2.385,0.448
				c-1.679,0.799-2.531,3.06-2.531,6.721v12.618c0,2.346,0.436,4.124,1.294,5.285c0.765,1.035,1.939,1.538,3.589,1.538
				c1.651,0,2.796-0.461,3.501-1.409c0.797-1.074,1.201-2.862,1.201-5.315v-2.597h-1.327v2.646c0,1.805-0.166,3.055-0.52,3.934
				c-0.502,1.245-1.555,1.959-2.888,1.959c-1.329,0-2.38-0.705-2.885-1.935c-0.357-0.874-0.523-2.115-0.523-3.908v-13.522
				c0-1.62,0.178-2.832,0.544-3.705c0.517-1.233,1.579-1.94,2.914-1.94c1.349,0,2.397,0.697,2.876,1.913
				c0.33,0.839,0.482,2.029,0.482,3.749v2.201h1.261v-2.48C100.093,179.759,97.633,179.054,95.49,179.054z"/>
		</g>
		<g>
			<path fill="#FFFF00" d="M118.668,208.335h-7.408v-13.456h-0.948v13.456h-7.409v-31.952h7.409v11.713h0.948v-11.713h7.408V208.335
				z M114.26,205.335h1.408v-25.952h-1.408v11.713h-6.948v-11.713h-1.409v25.952h1.409v-13.456h6.948V205.335z"/>
		</g>
		<g>
			<path fill="#FFFF00" d="M132.071,208.335h-12.902v-31.952h12.705v6.8h-5.297v5.423h5.034v6.718h-5.034v6.212h5.494V208.335z
				 M122.169,205.335h6.902v-0.8h-5.494v-12.212h5.034v-0.718h-5.034v-11.423h5.297v-0.8h-6.705
				C122.169,179.382,122.169,205.335,122.169,205.335z"/>
		</g>
		<g>
			<path fill="#FFFF00" d="M148.182,208.335h-7.547l-0.416-0.824c-0.224-0.443-0.326-0.646-0.326-11.056
				c0-1.024-0.108-1.472-0.162-1.629c-0.081-0.029-0.255-0.075-0.572-0.092v13.601h-7.408v-31.952h8.787
				c1.886,0,3.305,0.409,4.337,1.251c1.012,0.824,1.681,1.967,1.99,3.395c0.261,1.209,0.388,2.711,0.388,4.595
				c0,1.974-0.219,3.473-0.669,4.585c-0.193,0.477-0.451,0.903-0.768,1.276c0.317,0.407,0.599,0.92,0.815,1.565
				c0.458,1.36,0.671,3.841,0.671,7.806c0,4.144,0.071,5.252,0.105,5.543L148.182,208.335z M142.96,205.335h1.387
				c-0.028-0.933-0.045-2.335-0.045-4.479c0-4.629-0.322-6.278-0.515-6.85c-0.308-0.916-0.726-0.989-0.926-1.024l-0.192-2.908
				c0.58-0.183,0.93-0.488,1.133-0.991c0.206-0.507,0.45-1.519,0.45-3.459c0-1.645-0.107-2.978-0.319-3.961
				c-0.164-0.756-0.477-1.313-0.955-1.704c-0.462-0.376-1.306-0.575-2.44-0.575h-5.787v25.952h1.408v-13.741l2.984,0.139
				c1.388,0.033,2.409,0.466,3.003,1.284c0.516,0.707,0.747,1.769,0.747,3.438C142.893,201.543,142.926,204.076,142.96,205.335z
				 M139.436,191.243h-3.261v-11.472h2.997c1.918,0,2.768,0.818,3.143,1.504c0.4,0.737,0.578,1.907,0.578,3.796v0.182
				c0,1.359-0.058,2.362-0.178,3.064c-0.162,0.955-0.493,1.655-1.012,2.142C141.148,190.979,140.386,191.243,139.436,191.243z
				 M139.175,188.243h0.261c0.101,0,0.173-0.007,0.221-0.015c0.021-0.064,0.064-0.197,0.102-0.415
				c0.062-0.361,0.135-1.1,0.135-2.561v-0.182c0-1.398-0.114-2.016-0.177-2.248c-0.093-0.023-0.262-0.052-0.541-0.052
				L139.175,188.243L139.175,188.243z"/>
		</g>
		<g>
			<path fill="#FFFF00" d="M174.685,208.335h-6.932v-5.364l-0.992,5.232h-5.979l-1.166-5.9v6.032h-6.899v-31.952h8.215l2.83,14.56
				l2.66-14.56h8.263L174.685,208.335L174.685,208.335z M170.753,205.335h0.932v-25.952h-2.761l-3.641,19.925l-2.948,0.017
				l-3.876-19.941h-2.742v25.952h0.899v-9.291l-0.165-9.878l2.972-0.316l3.824,19.354h1.029l3.667-19.342l2.974,0.304l-0.164,9.903
				L170.753,205.335L170.753,205.335z"/>
		</g>
		<g>
			<path fill="#FFFF00" d="M188.104,208.335h-12.903v-31.952h12.706v6.8h-5.297v5.423h5.033v6.718h-5.033v6.212h5.494V208.335z
				 M178.201,205.335h6.903v-0.8h-5.494v-12.212h5.033v-0.718h-5.033v-11.423h5.297v-0.8h-6.706V205.335z"/>
		</g>
		<g>
			<path fill="#FFFF00" d="M195.355,208.335h-7.408v-31.952h7.408V208.335z M190.947,205.335h1.408v-25.952h-1.408V205.335z"/>
		</g>
		<g>
			<path fill="#FFFF00" d="M203.04,208.664c-2.819,0-4.848-0.967-6.029-2.873c-1.053-1.698-1.565-4.021-1.565-7.099v-4.083h5.324
				l-1.775-1.83c-1.105-1.154-1.977-2.37-2.596-3.621c-0.654-1.319-0.986-2.85-0.986-4.547c0-2.765,0.558-4.812,1.706-6.262
				c1.216-1.534,3.211-2.312,5.93-2.312c2.807,0,4.777,0.933,5.858,2.772c0.941,1.604,1.399,3.792,1.399,6.689v3.293h-4.687
				l1.048,1.135c1.297,1.405,2.296,2.859,2.967,4.324c0.696,1.517,1.05,3.188,1.05,4.968c0,3.054-0.536,5.3-1.639,6.867
				C207.843,207.797,205.822,208.664,203.04,208.664z M198.445,197.609v1.083c0,2.468,0.375,4.324,1.115,5.518
				c0.224,0.36,0.901,1.454,3.479,1.454c1.772,0,2.935-0.427,3.551-1.304c0.726-1.031,1.093-2.761,1.093-5.142
				c0-1.345-0.261-2.595-0.776-3.717c-0.539-1.177-1.361-2.367-2.444-3.54l-2.386-2.583c-0.886-0.947-1.499-1.731-1.868-2.392
				c-0.438-0.779-0.651-1.741-0.651-2.936c0-1.231,0.229-2.179,0.697-2.895c0.579-0.884,1.551-1.369,2.735-1.369
				c1.301,0,2.316,0.678,2.785,1.86c0.318,0.804,0.467,1.938,0.467,3.571v0.572h1.063v-0.293c0-2.316-0.332-4.056-0.986-5.171
				c-0.188-0.318-0.759-1.291-3.271-1.291c-1.756,0-2.96,0.396-3.578,1.176c-0.702,0.886-1.058,2.365-1.058,4.398
				c0,1.23,0.227,2.312,0.675,3.215c0.484,0.979,1.18,1.944,2.066,2.871l2.132,2.196c1.062,1.098,1.856,2.184,2.362,3.229
				c0.536,1.106,0.809,2.397,0.809,3.837c0,1.471-0.161,2.506-0.508,3.259c-0.285,0.625-1.041,1.68-2.867,1.68
				c-1.355,0-2.423-0.692-2.93-1.898c-0.36-0.86-0.528-2.124-0.528-3.978v-1.412h-1.178V197.609z M202.623,196.844v2.178
				c0,1.908,0.206,2.605,0.295,2.816c0.002,0.07,0.238,0.063,0.336,0.049c0.073-0.209,0.202-0.744,0.202-1.928
				c0-0.982-0.171-1.833-0.508-2.528C202.855,197.239,202.747,197.043,202.623,196.844z M203.002,182.794
				c-0.209,0-0.262,0.026-0.262,0.026c-0.01,0.032-0.183,0.341-0.183,1.231c0,0.819,0.146,1.251,0.269,1.47
				c0.08,0.144,0.209,0.344,0.416,0.615v-0.917C203.242,183.676,203.084,183.027,203.002,182.794z"/>
		</g>
		<g>
			<path fill="#FFFF00" d="M218.938,208.335h-7.393v-25.136h-3.389v-6.816h14.038v6.816h-3.257v25.136H218.938z M214.546,205.335
				h1.393v-25.136h3.257v-0.816h-8.038v0.816h3.389v25.136H214.546z"/>
		</g>
		<g>
			<path fill="#FFFF00" d="M233.691,208.335h-12.903v-31.952h12.706v6.8h-5.297v5.423h5.033v6.718h-5.033v6.212h5.494V208.335z
				 M223.788,205.335h6.903v-0.8h-5.494v-12.212h5.033v-0.718h-5.033v-11.423h5.297v-0.8h-6.706V205.335z"/>
		</g>
		<g>
			<path fill="#FFFF00" d="M249.801,208.335h-7.551l-0.415-0.829c-0.222-0.442-0.322-0.645-0.322-11.051
				c0-1.022-0.108-1.471-0.162-1.629c-0.081-0.029-0.255-0.075-0.572-0.092v13.601h-7.409v-31.952h8.788
				c1.86,0,3.319,0.421,4.337,1.251c1.013,0.827,1.682,1.969,1.989,3.396c0.261,1.202,0.388,2.705,0.388,4.594
				c0,1.972-0.219,3.471-0.668,4.583c-0.193,0.479-0.451,0.905-0.768,1.278c0.316,0.407,0.598,0.919,0.815,1.564
				c0.457,1.359,0.67,3.84,0.67,7.807c0,4.144,0.071,5.252,0.105,5.543L249.801,208.335z M244.58,205.335h1.386
				c-0.028-0.933-0.045-2.335-0.045-4.479c0-4.399-0.279-6.153-0.514-6.85c-0.309-0.916-0.726-0.989-0.927-1.024l-0.192-2.908
				c0.581-0.184,0.931-0.489,1.134-0.991c0.205-0.507,0.449-1.519,0.449-3.459c0-1.648-0.107-2.981-0.319-3.96
				c-0.163-0.757-0.476-1.314-0.954-1.705c-0.462-0.376-1.306-0.575-2.44-0.575h-5.788v25.952h1.409v-13.741l2.983,0.139
				c1.387,0.032,2.408,0.465,3.003,1.282c0.518,0.712,0.748,1.773,0.748,3.44C244.513,201.542,244.546,204.075,244.58,205.335z
				 M241.055,191.243h-3.26v-11.472h2.996c1.92,0,2.77,0.819,3.144,1.506c0.399,0.733,0.578,1.903,0.578,3.794v0.182
				c0,1.354-0.058,2.354-0.177,3.062c-0.163,0.958-0.494,1.658-1.013,2.145C242.766,190.98,242.004,191.243,241.055,191.243z
				 M240.795,188.243h0.26c0.102,0,0.174-0.007,0.222-0.015c0.021-0.064,0.064-0.197,0.102-0.415
				c0.062-0.364,0.135-1.106,0.135-2.561v-0.182c0-1.41-0.113-2.018-0.177-2.248c-0.092-0.023-0.261-0.052-0.541-0.052
				L240.795,188.243L240.795,188.243z"/>
		</g>
		<g>
			<path fill="#FFFF00" d="M43.387,240.194h-1.5c-1.205,0-2.178-0.101-2.975-0.308c-0.924-0.24-1.722-0.691-2.372-1.342
				c-0.659-0.658-1.12-1.529-1.37-2.589c-0.215-0.911-0.32-2.023-0.32-3.4V218.05c0-1.376,0.105-2.488,0.32-3.4
				c0.25-1.059,0.711-1.929,1.369-2.588c0.649-0.649,1.447-1.101,2.371-1.342c0.799-0.208,1.772-0.309,2.977-0.309h1.5v5.734h-1.5
				c-0.121,0-0.212,0.007-0.279,0.016c-0.049,0.242-0.121,0.78-0.121,1.834v14.615c0,1.047,0.071,1.584,0.123,1.834
				c0.067,0.009,0.158,0.016,0.278,0.016h1.5v5.734H43.387z M40.055,213.54c-0.14,0.023-0.269,0.052-0.389,0.083
				c-0.406,0.105-0.735,0.289-1.005,0.559c-0.258,0.259-0.451,0.649-0.572,1.158c-0.159,0.673-0.24,1.585-0.24,2.71v14.506
				c0,1.126,0.081,2.037,0.24,2.71c0.121,0.51,0.313,0.899,0.572,1.158c0.271,0.271,0.6,0.453,1.005,0.559
				c0.12,0.031,0.249,0.06,0.389,0.083c-0.538-0.283-0.858-0.676-1.049-1.031c-0.364-0.68-0.52-1.703-0.52-3.424v-14.615
				c0-1.721,0.156-2.744,0.52-3.424C39.198,214.216,39.518,213.823,40.055,213.54z"/>
		</g>
		<g>
			<path fill="#FFFF00" d="M50.018,238.335h-6.664v-27.062h7.023c3.014,0,4.446,1.318,5.117,2.424
				c0.837,1.38,1.264,3.287,1.305,5.833v0.53c0,2.67-0.394,4.684-1.204,6.157c-0.659,1.199-2.078,2.63-5.095,2.63h-0.482V238.335z
				 M46.354,235.335h0.664v-9.488H50.5c1.681,0,2.212-0.613,2.466-1.075c0.553-1.005,0.833-2.591,0.833-4.712v-0.506
				c-0.039-2.431-0.495-3.683-0.869-4.301c-0.13-0.214-0.492-0.811-1.913-0.951c0.75,0.287,1.322,0.855,1.637,1.651
				c0.318,0.807,0.471,1.947,0.481,3.592v0.474c0,1.909-0.143,3.166-0.451,3.956c-0.458,1.176-1.518,1.851-2.909,1.851h-2.758
				v-11.553h-0.664L46.354,235.335L46.354,235.335z M50.018,217.709v4.58c0.061-0.434,0.117-1.14,0.117-2.271v-0.465
				C50.129,218.69,50.077,218.103,50.018,217.709z"/>
		</g>
		<g>
			<path fill="#FFFF00" d="M70.542,238.335h-6.805l-0.415-0.829c-0.214-0.43-0.295-0.59-0.295-9.298
				c0-0.621-0.049-0.969-0.088-1.146c-0.005-0.001-0.01-0.002-0.016-0.003v11.275H56.26v-27.062h7.557
				c1.629,0,2.86,0.358,3.765,1.097c0.886,0.723,1.472,1.72,1.741,2.964c0.221,1.02,0.328,2.286,0.328,3.872
				c0,1.672-0.188,2.949-0.574,3.905c-0.145,0.359-0.332,0.687-0.556,0.979c0.246,0.35,0.448,0.753,0.6,1.207
				c0.245,0.729,0.571,2.201,0.571,6.569c0,3.312,0.055,4.272,0.083,4.546L70.542,238.335z M66.077,235.335h0.646
				c-0.02-0.777-0.031-1.881-0.031-3.47c0-3.812-0.259-5.153-0.414-5.612c-0.208-0.618-0.447-0.66-0.575-0.683l-0.189-2.908
				c0.414-0.13,0.64-0.326,0.782-0.677c0.162-0.4,0.355-1.209,0.355-2.78c0-1.351-0.087-2.44-0.26-3.237
				c-0.124-0.571-0.354-0.987-0.706-1.274c-0.308-0.251-0.899-0.398-1.677-0.418c0.824,0.262,1.269,0.758,1.508,1.196
				c0.359,0.658,0.512,1.638,0.512,3.275v0.15c0,1.146-0.049,1.993-0.151,2.59c-0.145,0.852-0.446,1.481-0.919,1.924
				c-0.402,0.377-0.919,0.607-1.543,0.688c0.859,0.145,1.517,0.514,1.944,1.102c0.463,0.639,0.669,1.566,0.669,3.008
				C66.027,232.137,66.051,234.226,66.077,235.335z M59.26,235.335h0.664v-11.433l0.014,0.001v-9.631H59.26V235.335z
				 M62.938,217.183v3.678c0.044-0.325,0.09-0.914,0.09-1.963v-0.15C63.027,217.933,62.98,217.452,62.938,217.183z"/>
		</g>
		<g>
			<path fill="#FFFF00" d="M81.299,238.335h-11.23v-27.062h11.066v6.158h-4.402v4h4.184v6.09h-4.184v4.656h4.566V238.335z
				 M73.068,235.335h5.23v-0.158h-4.566v-10.656h4.184v-0.09h-4.184v-10h4.402v-0.158h-5.066V235.335z"/>
		</g>
		<g>
			<path fill="#FFFF00" d="M99.988,238.335H93.72v-2.015l-0.361,1.905h-5.387l-0.508-2.569v2.679h-6.24v-27.062h7.289l2.136,10.987
				l2.008-10.987h7.331C99.988,211.273,99.988,238.335,99.988,238.335z M96.721,235.335h0.268v-21.062H95.16l-0.936,5.118
				l2.634,0.271l-0.137,8.23V235.335z M84.225,235.335h0.24v-7.469l-0.137-8.205l2.705-0.288l-0.992-5.101h-1.816V235.335z
				 M90.438,235.226h0.438l0.872-4.599l-2.216,0.012L90.438,235.226z"/>
		</g>
		<g>
			<path fill="#FFFF00" d="M107.412,238.335h-6.664v-27.062h6.664V238.335z M103.748,235.335h0.664v-21.062h-0.664V235.335z"/>
		</g>
		<g>
			<path fill="#FFFF00" d="M119.389,238.335h-11.23v-27.062h11.066v6.158h-4.402v4h4.184v6.09h-4.184v4.656h4.566V238.335z
				 M111.158,235.335h5.23v-0.158h-4.566v-10.656h4.184v-0.09h-4.184v-10h4.402v-0.158h-5.066V235.335z"/>
		</g>
		<g>
			<path fill="#FFFF00" d="M133.597,238.335h-6.805l-0.415-0.829c-0.214-0.43-0.295-0.59-0.295-9.298
				c0-0.621-0.049-0.969-0.088-1.146c-0.005-0.001-0.01-0.002-0.016-0.003v11.275h-6.664v-27.062h7.557
				c1.629,0,2.86,0.358,3.765,1.097c0.886,0.723,1.472,1.72,1.741,2.964c0.221,1.02,0.328,2.286,0.328,3.872
				c0,1.672-0.188,2.949-0.574,3.905c-0.146,0.359-0.331,0.687-0.556,0.979c0.245,0.35,0.447,0.753,0.601,1.207
				c0.245,0.729,0.57,2.201,0.57,6.569c0,3.312,0.055,4.272,0.083,4.546L133.597,238.335z M129.132,235.335h0.646
				c-0.02-0.777-0.031-1.881-0.031-3.47c0-3.812-0.26-5.153-0.414-5.612c-0.208-0.618-0.447-0.66-0.575-0.683l-0.189-2.908
				c0.414-0.13,0.641-0.326,0.782-0.677c0.162-0.4,0.355-1.209,0.355-2.78c0-1.351-0.088-2.44-0.26-3.237
				c-0.124-0.571-0.354-0.987-0.706-1.274c-0.308-0.251-0.899-0.398-1.677-0.418c0.824,0.262,1.269,0.758,1.508,1.196
				c0.359,0.658,0.512,1.638,0.512,3.275v0.15c0,1.146-0.05,1.993-0.151,2.59c-0.145,0.852-0.446,1.481-0.919,1.924
				c-0.402,0.377-0.919,0.607-1.543,0.688c0.859,0.145,1.517,0.514,1.944,1.102c0.463,0.639,0.669,1.566,0.669,3.008
				C129.082,232.137,129.105,234.226,129.132,235.335z M122.314,235.335h0.664v-11.433l0.014,0.001v-9.631h-0.678V235.335z
				 M125.992,217.183v3.678c0.044-0.325,0.09-0.914,0.09-1.963v-0.15C126.082,217.933,126.035,217.452,125.992,217.183z"/>
		</g>
		<g>
			<path fill="#FFFF00" d="M149.439,238.335H138.14v-27.062h6.664v20.945h4.635V238.335z M141.141,235.335h5.299v-0.117h-4.635
				v-20.945h-0.664V235.335z"/>
		</g>
		<g>
			<path fill="#FFFF00" d="M159.775,238.335h-11.23v-27.062h11.066v6.158h-4.402v4h4.184v6.09h-4.184v4.656h4.566V238.335z
				 M151.545,235.335h5.23v-0.158h-4.566v-10.656h4.184v-0.09h-4.184v-10h4.402v-0.158h-5.066V235.335z"/>
		</g>
		<g>
			<path fill="#FFFF00" d="M173.774,238.335h-6.476l-0.574-4.293h-1.241l-0.52,4.293h-6.586l3.86-27.062h7.431L173.774,238.335z
				 M169.924,235.335h0.36l-2.929-19.308l2.013,15.075h-0.01L169.924,235.335z M161.837,235.335h0.469l0.512-4.232h-0.002
				l1.843-15.086h2.695l-0.265-1.744h-2.249L161.837,235.335z"/>
		</g>
		<g>
			<path fill="#FFFF00" d="M179.002,238.581c-1.988,0-3.637-0.833-4.767-2.41c-1.05-1.464-1.56-3.55-1.56-6.377v-10.459
				c0-2.543,0.539-4.556,1.604-5.982c1.165-1.562,2.966-2.354,5.352-2.354c3.796,0,5.309,1.973,5.908,3.627
				c0.447,1.235,0.664,2.819,0.664,4.846v18.863h-4.327l-0.117-0.496C180.939,238.332,180.015,238.581,179.002,238.581z
				 M179.631,213.999c-1.407,0-2.371,0.375-2.947,1.147c-0.669,0.896-1.008,2.306-1.008,4.188v10.459
				c0,2.118,0.345,3.719,0.997,4.629c0.574,0.801,1.293,1.158,2.329,1.158c0.289,0,0.553-0.04,0.797-0.122
				c-1.358,0.055-2.494-0.627-2.978-1.889c-0.31-0.809-0.454-2.026-0.454-3.831v-10.432c0-1.631,0.176-2.744,0.553-3.504
				c0.516-1.038,1.501-1.633,2.704-1.633c1.63,0,2.355,0.926,2.643,1.478c0.354,0.681,0.519,1.639,0.519,3.017v1.016h0.418v-0.209
				c0-1.648-0.163-2.935-0.484-3.823C182.44,214.881,181.838,213.999,179.631,213.999z M183.004,225.196v4.406
				c0,1.825-0.176,3.083-0.554,3.958c-0.087,0.203-0.189,0.392-0.305,0.564l1.058-0.001v-8.928h-0.199V225.196z M179.609,232.458
				h0.047c0.005-0.015,0.021-0.044,0.039-0.086c0.094-0.215,0.309-0.914,0.309-2.77v-1.74h-0.637v1.877
				C179.367,231.517,179.526,232.215,179.609,232.458z M179.367,222.196h0.418v-3.531c0-0.859-0.079-1.297-0.132-1.494
				c-0.01,0-0.019,0-0.029,0l0,0c-0.014,0-0.022-0.001-0.028-0.004c-0.071,0.177-0.229,0.719-0.229,2.141L179.367,222.196
				L179.367,222.196z"/>
		</g>
		<g>
			<path fill="#FFFF00" d="M193.323,238.608c-2.324,0-4.079-0.718-5.216-2.133c-1.073-1.334-1.596-3.238-1.596-5.82v-19.396h6.664
				v19.328c0,1.415,0.079,1.771,0.088,1.808c0.012,0.021,0.027,0.05,0.046,0.083c0.007,0,0.014,0,0.021,0l0,0
				c0.034-0.095,0.052-0.198,0.061-0.281c0.044-0.408,0.066-0.949,0.066-1.609V211.26h6.664v19.396c0,2.592-0.52,4.498-1.589,5.828
				C197.399,237.894,195.646,238.608,193.323,238.608z M189.512,214.259v16.396c0,1.818,0.323,3.182,0.934,3.94
				c0.548,0.682,1.488,1.013,2.878,1.013c1.389,0,2.327-0.329,2.871-1.005c0.606-0.754,0.927-2.119,0.927-3.948v-16.396h-0.664
				v16.328c0,0.778-0.027,1.41-0.084,1.932c-0.078,0.724-0.313,1.357-0.699,1.883c-0.359,0.49-1.059,1.076-2.344,1.076
				c-1.021,0-1.776-0.313-2.243-0.931c-0.238-0.314-0.444-0.67-0.61-1.055c-0.186-0.43-0.301-1.065-0.301-2.905v-16.328
				L189.512,214.259L189.512,214.259z"/>
		</g>
		<g>
			<path fill="#FFFF00" d="M211.824,238.335h-11.23v-27.062h11.066v6.158h-4.402v4h4.184v6.09h-4.184v4.656h4.566V238.335z
				 M203.594,235.335h5.23v-0.158h-4.566v-10.656h4.184v-0.09h-4.184v-10h4.402v-0.158h-5.066V235.335z"/>
		</g>
		<g>
			<path fill="#FFFF00" d="M212.621,240.194h-1.5v-5.734h1.5c0.121,0,0.213-0.007,0.279-0.016c0.049-0.242,0.121-0.78,0.121-1.834
				v-14.615c0-1.046-0.071-1.583-0.123-1.834c-0.066-0.009-0.157-0.016-0.277-0.016h-1.5v-5.734h1.5
				c1.204,0,2.178,0.101,2.975,0.308c0.928,0.243,1.725,0.695,2.37,1.347c0.651,0.658,1.108,1.527,1.358,2.583
				c0.216,0.913,0.32,2.025,0.32,3.401v14.506c0,1.377-0.104,2.489-0.32,3.401c-0.25,1.057-0.707,1.927-1.358,2.583
				c-0.647,0.653-1.444,1.105-2.37,1.347C214.799,240.094,213.825,240.194,212.621,240.194z M214.452,213.539
				c0.537,0.283,0.858,0.677,1.049,1.032c0.365,0.68,0.521,1.703,0.521,3.424v14.615c0,1.721-0.155,2.744-0.521,3.424
				c-0.19,0.355-0.512,0.748-1.049,1.031c0.14-0.023,0.27-0.052,0.39-0.083c0.402-0.104,0.728-0.285,0.993-0.554
				c0.257-0.26,0.448-0.65,0.569-1.162c0.159-0.674,0.24-1.585,0.24-2.711V218.05c0-1.125-0.081-2.037-0.24-2.711
				c-0.121-0.511-0.312-0.902-0.57-1.163c-0.265-0.267-0.59-0.448-0.994-0.554C214.721,213.591,214.591,213.563,214.452,213.539z"/>
		</g>
	</g>
	<g>
		<g>
			<path d="M13.177,193.23l-1.415-0.065v13.67H7.354v-28.952h7.287c1.514,0,2.643,0.305,3.389,0.913s1.236,1.459,1.473,2.55
				c0.235,1.091,0.354,2.517,0.354,4.277s-0.187,3.101-0.56,4.021c-0.373,0.922-1.063,1.541-2.072,1.859
				c0.998,0.175,1.694,0.85,2.089,2.023c0.395,1.173,0.593,3.616,0.593,7.328c0,3.713,0.055,5.706,0.164,5.979h-4.408
				c-0.11-0.219-0.165-3.679-0.165-10.38c0-1.283-0.153-2.136-0.461-2.558C14.729,193.475,14.108,193.253,13.177,193.23z
				 M11.778,189.743h1.761c0.559,0,0.973-0.126,1.241-0.378s0.455-0.686,0.56-1.3s0.156-1.552,0.156-2.812v-0.182
				c0-1.567-0.132-2.593-0.395-3.076c-0.264-0.482-0.872-0.724-1.826-0.724h-1.497V189.743z"/>
		</g>
		<g>
			<path d="M34.213,205.28c-1.009,1.256-2.629,1.884-4.86,1.884c-2.232,0-3.855-0.63-4.869-1.892
				c-1.015-1.261-1.522-3.219-1.522-5.873v-21.533h4.409v21.451c0,1.524,0.071,2.451,0.214,2.78s0.314,0.628,0.518,0.896
				s0.623,0.403,1.259,0.403s1.091-0.187,1.365-0.56s0.441-0.836,0.502-1.39s0.091-1.265,0.091-2.131v-21.451h4.408v21.533
				C35.727,202.064,35.222,204.025,34.213,205.28z"/>
		</g>
		<g>
			<path d="M38.487,198.692v-2.583h4.178v2.912c0,1.612,0.138,2.744,0.411,3.396c0.274,0.653,0.79,0.979,1.547,0.979
				s1.259-0.269,1.505-0.807c0.247-0.537,0.37-1.414,0.37-2.632c0-1.217-0.22-2.278-0.658-3.183s-1.135-1.852-2.089-2.838
				l-2.139-2.204c-0.998-1.042-1.773-2.122-2.327-3.241c-0.555-1.118-0.831-2.412-0.831-3.882c0-2.391,0.461-4.168,1.382-5.33
				s2.506-1.744,4.754-1.744s3.77,0.678,4.565,2.032s1.192,3.331,1.192,5.93v1.793h-4.063v-2.072c0-1.403-0.12-2.41-0.361-3.019
				s-0.705-0.913-1.391-0.913s-1.179,0.23-1.48,0.69c-0.302,0.461-0.452,1.152-0.452,2.073s0.153,1.656,0.461,2.204
				c0.307,0.549,0.86,1.25,1.661,2.105l2.385,2.583c1.195,1.294,2.098,2.604,2.706,3.932c0.609,1.327,0.913,2.774,0.913,4.343
				c0,2.709-0.455,4.71-1.365,6.004c-0.91,1.295-2.503,1.941-4.778,1.941c-2.276,0-3.86-0.721-4.754-2.163
				C38.934,203.559,38.487,201.456,38.487,198.692z"/>
		</g>
		<g>
			<path d="M52.532,198.692v-2.583h4.178v2.912c0,1.612,0.138,2.744,0.411,3.396c0.274,0.653,0.79,0.979,1.547,0.979
				s1.259-0.269,1.505-0.807c0.247-0.537,0.37-1.414,0.37-2.632c0-1.217-0.22-2.278-0.658-3.183s-1.135-1.852-2.089-2.838
				l-2.139-2.204c-0.998-1.042-1.773-2.122-2.327-3.241c-0.555-1.118-0.831-2.412-0.831-3.882c0-2.391,0.461-4.168,1.382-5.33
				s2.506-1.744,4.754-1.744s3.77,0.678,4.565,2.032s1.192,3.331,1.192,5.93v1.793h-4.063v-2.072c0-1.403-0.12-2.41-0.361-3.019
				s-0.705-0.913-1.391-0.913s-1.179,0.23-1.48,0.69c-0.302,0.461-0.452,1.152-0.452,2.073s0.153,1.656,0.461,2.204
				c0.307,0.549,0.86,1.25,1.661,2.105l2.385,2.583c1.195,1.294,2.098,2.604,2.706,3.932c0.609,1.327,0.913,2.774,0.913,4.343
				c0,2.709-0.455,4.71-1.365,6.004c-0.91,1.295-2.503,1.941-4.778,1.941c-2.276,0-3.86-0.721-4.754-2.163
				C52.979,203.559,52.532,201.456,52.532,198.692z"/>
		</g>
		<g>
			<path d="M67.317,206.835v-28.952h4.409v28.952H67.317z"/>
		</g>
		<g>
			<path d="M74.815,198.692v-2.583h4.179v2.912c0,1.612,0.137,2.744,0.411,3.396c0.274,0.653,0.79,0.979,1.546,0.979
				c0.757,0,1.259-0.269,1.506-0.807c0.246-0.537,0.37-1.414,0.37-2.632c0-1.217-0.22-2.278-0.658-3.183
				c-0.438-0.905-1.135-1.852-2.089-2.838l-2.139-2.204c-0.998-1.042-1.774-2.122-2.328-3.241c-0.554-1.118-0.83-2.412-0.83-3.882
				c0-2.391,0.46-4.168,1.382-5.33c0.921-1.162,2.505-1.744,4.754-1.744c2.248,0,3.77,0.678,4.564,2.032s1.192,3.331,1.192,5.93
				v1.793h-4.062v-2.072c0-1.403-0.121-2.41-0.362-3.019s-0.705-0.913-1.39-0.913c-0.686,0-1.18,0.23-1.48,0.69
				c-0.302,0.461-0.453,1.152-0.453,2.073s0.154,1.656,0.461,2.204c0.307,0.549,0.861,1.25,1.661,2.105l2.386,2.583
				c1.195,1.294,2.098,2.604,2.706,3.932s0.913,2.774,0.913,4.343c0,2.709-0.455,4.71-1.365,6.004
				c-0.911,1.295-2.504,1.941-4.779,1.941s-3.86-0.721-4.754-2.163S74.815,201.456,74.815,198.692z"/>
		</g>
		<g>
			<path d="M100.162,205.149c-0.998,1.343-2.566,2.015-4.705,2.015s-3.737-0.716-4.795-2.146c-1.059-1.432-1.588-3.49-1.588-6.177
				v-12.618c0-4.31,1.13-7.002,3.389-8.076c0.834-0.396,1.843-0.593,3.027-0.593c4.068,0,6.103,2.566,6.103,7.699v3.98h-4.261
				v-3.701c0-1.491-0.126-2.558-0.378-3.199c-0.253-0.642-0.746-0.963-1.48-0.963c-0.735,0-1.245,0.34-1.53,1.021
				c-0.285,0.68-0.428,1.722-0.428,3.125v13.522c0,1.557,0.138,2.67,0.411,3.339c0.274,0.669,0.773,1.004,1.497,1.004
				c0.725,0,1.223-0.34,1.497-1.021c0.274-0.68,0.411-1.804,0.411-3.372v-4.146h4.327v4.097
				C101.659,201.735,101.159,203.806,100.162,205.149z"/>
		</g>
		<g>
			<path d="M104.402,206.835v-28.952h4.409v11.713h3.948v-11.713h4.408v28.952h-4.408v-13.456h-3.948v13.456H104.402z"/>
		</g>
		<g>
			<path d="M120.669,206.835v-28.952h9.705v3.8h-5.297v8.423h5.034v3.718h-5.034v9.212h5.494v3.8h-9.902V206.835z"/>
		</g>
		<g>
			<path d="M139.073,193.23l-1.415-0.065v13.67h-4.408v-28.952h7.287c1.514,0,2.643,0.305,3.389,0.913s1.236,1.459,1.473,2.55
				c0.235,1.091,0.354,2.517,0.354,4.277s-0.187,3.101-0.56,4.021c-0.373,0.922-1.063,1.541-2.072,1.859
				c0.998,0.175,1.694,0.85,2.089,2.023c0.395,1.173,0.593,3.616,0.593,7.328c0,3.713,0.055,5.706,0.164,5.979h-4.408
				c-0.11-0.219-0.165-3.679-0.165-10.38c0-1.283-0.153-2.136-0.461-2.558C140.625,193.475,140.005,193.253,139.073,193.23z
				 M137.675,189.743h1.761c0.559,0,0.973-0.126,1.241-0.378s0.455-0.686,0.56-1.3s0.156-1.552,0.156-2.812v-0.182
				c0-1.567-0.132-2.593-0.395-3.076c-0.264-0.482-0.872-0.724-1.826-0.724h-1.497V189.743z"/>
		</g>
		<g>
			<path d="M154.217,206.835v-28.952h5.479l4.112,21.155l3.865-21.155h5.512v28.952h-3.932v-10.791l0.164-9.903l-3.898,20.562
				h-3.504l-4.063-20.562l0.165,9.903v10.791H154.217z"/>
		</g>
		<g>
			<path d="M176.701,206.835v-28.952h9.706v3.8h-5.297v8.423h5.033v3.718h-5.033v9.212h5.494v3.8h-9.903V206.835z"/>
		</g>
		<g>
			<path d="M189.447,206.835v-28.952h4.408v28.952H189.447z"/>
		</g>
		<g>
			<path d="M196.945,198.692v-2.583h4.178v2.912c0,1.612,0.138,2.744,0.411,3.396c0.274,0.653,0.79,0.979,1.547,0.979
				s1.259-0.269,1.505-0.807c0.247-0.537,0.37-1.414,0.37-2.632c0-1.217-0.22-2.278-0.658-3.183s-1.135-1.852-2.089-2.838
				l-2.139-2.204c-0.998-1.042-1.773-2.122-2.327-3.241c-0.555-1.118-0.831-2.412-0.831-3.882c0-2.391,0.461-4.168,1.382-5.33
				s2.506-1.744,4.754-1.744s3.77,0.678,4.565,2.032s1.192,3.331,1.192,5.93v1.793h-4.063v-2.072c0-1.403-0.12-2.41-0.361-3.019
				s-0.705-0.913-1.391-0.913s-1.179,0.23-1.48,0.69c-0.302,0.461-0.452,1.152-0.452,2.073s0.153,1.656,0.461,2.204
				c0.307,0.549,0.86,1.25,1.661,2.105l2.385,2.583c1.195,1.294,2.098,2.604,2.706,3.932c0.609,1.327,0.913,2.774,0.913,4.343
				c0,2.709-0.455,4.71-1.365,6.004c-0.91,1.295-2.503,1.941-4.778,1.941c-2.276,0-3.86-0.721-4.754-2.163
				C197.392,203.559,196.945,201.456,196.945,198.692z"/>
		</g>
		<g>
			<path d="M213.046,206.835v-25.136h-3.389v-3.816h11.038v3.816h-3.257v25.136H213.046z"/>
		</g>
		<g>
			<path d="M222.288,206.835v-28.952h9.706v3.8h-5.297v8.423h5.033v3.718h-5.033v9.212h5.494v3.8h-9.903V206.835z"/>
		</g>
		<g>
			<path d="M240.692,193.23l-1.414-0.065v13.67h-4.409v-28.952h7.288c1.513,0,2.643,0.305,3.389,0.913
				c0.745,0.608,1.236,1.459,1.472,2.55c0.236,1.091,0.354,2.517,0.354,4.277s-0.187,3.101-0.559,4.021
				c-0.373,0.922-1.064,1.541-2.073,1.859c0.998,0.175,1.694,0.85,2.09,2.023c0.395,1.173,0.592,3.616,0.592,7.328
				c0,3.713,0.055,5.706,0.164,5.979h-4.408c-0.109-0.219-0.164-3.679-0.164-10.38c0-1.283-0.154-2.136-0.461-2.558
				C242.244,193.475,241.625,193.253,240.692,193.23z M239.295,189.743h1.76c0.56,0,0.973-0.126,1.242-0.378s0.455-0.686,0.56-1.3
				c0.104-0.614,0.156-1.552,0.156-2.812v-0.182c0-1.567-0.132-2.593-0.396-3.076c-0.263-0.482-0.871-0.724-1.826-0.724h-1.496
				V189.743z"/>
		</g>
		<g>
			<path d="M41.887,238.694c-1.066,0-1.933-0.087-2.598-0.26s-1.229-0.49-1.688-0.95s-0.784-1.084-0.971-1.873
				c-0.187-0.788-0.28-1.807-0.28-3.056V218.05c0-1.248,0.094-2.267,0.28-3.056c0.187-0.788,0.511-1.412,0.971-1.873
				c0.46-0.46,1.023-0.776,1.688-0.95c0.665-0.173,1.531-0.26,2.598-0.26v2.734c-0.812,0-1.331,0.212-1.559,0.636
				s-0.342,1.329-0.342,2.714v14.615c0,1.386,0.114,2.29,0.342,2.714s0.747,0.636,1.559,0.636V238.694z"/>
		</g>
		<g>
			<path d="M44.854,236.835v-24.062h5.523c1.868,0,3.146,0.567,3.835,1.702s1.051,2.828,1.087,5.079v0.506
				c0,2.389-0.34,4.2-1.019,5.435s-1.939,1.853-3.78,1.853h-1.982v9.488L44.854,236.835L44.854,236.835z M48.518,224.325h1.258
				c0.774,0,1.278-0.298,1.511-0.896c0.232-0.597,0.349-1.733,0.349-3.411v-0.465c-0.009-1.422-0.135-2.438-0.376-3.049
				c-0.241-0.61-0.727-0.916-1.456-0.916h-1.285L48.518,224.325L48.518,224.325z"/>
		</g>
		<g>
			<path d="M62.6,225.528l-1.176-0.055v11.361H57.76v-24.062h6.057c1.258,0,2.196,0.253,2.816,0.759s1.027,1.213,1.224,2.119
				c0.196,0.907,0.294,2.092,0.294,3.555s-0.155,2.577-0.465,3.343s-0.884,1.281-1.723,1.545c0.829,0.146,1.408,0.707,1.736,1.682
				c0.328,0.976,0.492,3.006,0.492,6.091c0,3.086,0.046,4.742,0.137,4.97h-3.664c-0.091-0.182-0.137-3.058-0.137-8.627
				c0-1.066-0.128-1.774-0.383-2.126C63.89,225.731,63.374,225.547,62.6,225.528z M61.438,222.63H62.9
				c0.465,0,0.809-0.104,1.032-0.314c0.224-0.209,0.378-0.569,0.465-1.08c0.087-0.51,0.13-1.289,0.13-2.338v-0.15
				c0-1.303-0.109-2.155-0.328-2.557c-0.219-0.4-0.725-0.602-1.518-0.602h-1.244v7.041H61.438z"/>
		</g>
		<g>
			<path d="M71.568,236.835v-24.062h8.066v3.158h-4.402v7h4.184v3.09h-4.184v7.656h4.566v3.158L71.568,236.835L71.568,236.835z"/>
		</g>
		<g>
			<path d="M82.725,236.835v-24.062h4.553l3.418,17.582l3.213-17.582h4.58v24.062h-3.268v-8.969l0.137-8.23l-3.24,17.09h-2.912
				l-3.377-17.09l0.137,8.23v8.969H82.725z"/>
		</g>
		<g>
			<path d="M102.248,236.835v-24.062h3.664v24.062H102.248z"/>
		</g>
		<g>
			<path d="M109.658,236.835v-24.062h8.066v3.158h-4.402v7h4.184v3.09h-4.184v7.656h4.566v3.158L109.658,236.835L109.658,236.835z"
				/>
		</g>
		<g>
			<path d="M125.654,225.528l-1.176-0.055v11.361h-3.664v-24.062h6.057c1.258,0,2.196,0.253,2.816,0.759s1.027,1.213,1.224,2.119
				c0.196,0.907,0.294,2.092,0.294,3.555s-0.155,2.577-0.465,3.343s-0.884,1.281-1.723,1.545c0.829,0.146,1.408,0.707,1.736,1.682
				c0.328,0.976,0.492,3.006,0.492,6.091c0,3.086,0.046,4.742,0.137,4.97h-3.664c-0.091-0.182-0.137-3.058-0.137-8.627
				c0-1.066-0.128-1.774-0.383-2.126C126.944,225.731,126.429,225.547,125.654,225.528z M124.492,222.63h1.463
				c0.465,0,0.809-0.104,1.032-0.314c0.224-0.209,0.378-0.569,0.465-1.08c0.087-0.51,0.13-1.289,0.13-2.338v-0.15
				c0-1.303-0.109-2.155-0.328-2.557c-0.219-0.4-0.725-0.602-1.518-0.602h-1.244L124.492,222.63L124.492,222.63z"/>
		</g>
		<g>
			<path d="M139.641,236.835v-24.062h3.664v20.945h4.635v3.117L139.641,236.835L139.641,236.835z"/>
		</g>
		<g>
			<path d="M150.045,236.835v-24.062h8.066v3.158h-4.402v7h4.184v3.09h-4.184v7.656h4.566v3.158L150.045,236.835L150.045,236.835z"
				/>
		</g>
		<g>
			<path d="M160.107,236.835l3.432-24.062h4.84l3.65,24.062h-3.418l-0.574-4.293h-3.883l-0.52,4.293H160.107z M167.654,229.603
				l-1.613-12.086h-0.055l-1.477,12.086H167.654z"/>
		</g>
		<g>
			<path d="M179.002,237.081c-1.513,0-2.695-0.595-3.548-1.784s-1.278-3.023-1.278-5.503v-10.459c0-2.224,0.436-3.919,1.306-5.086
				c0.87-1.166,2.254-1.75,4.149-1.75c2.36,0,3.86,0.88,4.498,2.639c0.383,1.058,0.574,2.502,0.574,4.334v1.709h-3.418v-2.516
				c0-1.103-0.116-1.877-0.349-2.324c-0.232-0.446-0.67-0.67-1.312-0.67s-1.096,0.267-1.36,0.8s-0.396,1.479-0.396,2.837v10.432
				c0,1.577,0.118,2.676,0.355,3.295c0.237,0.62,0.699,0.93,1.388,0.93s1.176-0.332,1.463-0.998
				c0.287-0.665,0.431-1.786,0.431-3.363v-3.24h-1.846v-2.666h5.045v13.139h-1.641l-0.561-2.365
				c-0.191,0.812-0.61,1.449-1.258,1.914S179.85,237.081,179.002,237.081z"/>
		</g>
		<g>
			<path d="M197.363,235.543c-0.839,1.044-2.186,1.565-4.04,1.565s-3.204-0.523-4.047-1.572c-0.843-1.048-1.265-2.675-1.265-4.881
				v-17.896h3.664v17.828c0,1.268,0.06,2.037,0.178,2.311s0.262,0.522,0.431,0.745c0.169,0.224,0.518,0.335,1.046,0.335
				s0.907-0.154,1.135-0.465c0.228-0.31,0.367-0.694,0.417-1.155c0.05-0.46,0.075-1.05,0.075-1.771v-17.828h3.664v17.896
				C198.621,232.87,198.202,234.5,197.363,235.543z"/>
		</g>
		<g>
			<path d="M202.094,236.835v-24.062h8.066v3.158h-4.402v7h4.184v3.09h-4.184v7.656h4.566v3.158L202.094,236.835L202.094,236.835z"
				/>
		</g>
		<g>
			<path d="M212.621,238.694v-2.734c0.812,0,1.331-0.212,1.559-0.636s0.342-1.328,0.342-2.714v-14.615
				c0-1.385-0.114-2.29-0.342-2.714s-0.747-0.636-1.559-0.636v-2.734c1.066,0,1.933,0.087,2.598,0.26
				c0.665,0.174,1.226,0.49,1.682,0.95c0.456,0.461,0.777,1.085,0.964,1.873c0.187,0.789,0.28,1.808,0.28,3.056v14.506
				c0,1.249-0.094,2.268-0.28,3.056c-0.187,0.789-0.508,1.413-0.964,1.873s-1.017,0.777-1.682,0.95S213.688,238.694,212.621,238.694
				z"/>
		</g>
	</g>
</g>
</svg>
