<?xml version="1.0" encoding="utf-8"?>
<!-- Generator: Adobe Illustrator 17.0.0, SVG Export Plug-In . SVG Version: 6.00 Build 0)  -->
<!DOCTYPE svg PUBLIC "-//W3C//DTD SVG 1.1//EN" "http://www.w3.org/Graphics/SVG/1.1/DTD/svg11.dtd">
<svg version="1.1" id="Layer_1" xmlns="http://www.w3.org/2000/svg" xmlns:xlink="http://www.w3.org/1999/xlink" x="0px" y="0px"
	 width="256px" height="256px" viewBox="0 0 256 256" enable-background="new 0 0 256 256" xml:space="preserve">
<path fill="#FFFFFF" d="M192.1,10.3c-17.1,0-32.4,8-42.3,20.6h-0.3v0.3c-7.1,9.1-11.4,20.6-11.4,33c0,29.7,24.2,53.9,53.9,53.9
	s54-24.2,54-53.9S221.9,10.3,192.1,10.3z"/>
<path d="M192,10.3c-17.1,0-32.4,8-42.3,20.6h-0.3v0.3c-7.1,9.1-11.4,20.6-11.4,33c0,29.7,24.2,53.9,53.9,53.9s53.9-24.2,53.9-53.9
	S221.7,10.3,192,10.3z M208.6,100.9l-23.1-3L183.7,78l17.6-10.7L217,82.4L208.6,100.9z M171.2,103.3L151.9,89l-2.1-14.7l11.8-7.4
	L181.5,78l1.9,20.2L171.2,103.3z M149.1,72.2L142,57.4l9.3-15.3l9.7,2l-0.2,20.8L149.1,72.2z M188.3,19l21.3,2.9l7.3,13.6l-16.1,7.9
	l-16.5-11.5L188.3,19z M231.4,74.4l-12.6,6.7l-16.9-16.2l0.2-19.7l16-7.9L232.3,50L231.4,74.4z M233.5,74.9l1-24.5l7.1-0.9
	c1.4,4.7,2.1,9.6,2.1,14.7c0,4.6-0.6,9-1.7,13.2L233.5,74.9z M240.9,47.4l-7.1,0.9l-14.6-13.1L212,21.9l6.1-2.4
	C228.7,25.7,236.9,35.6,240.9,47.4z M178.8,14.2l7.4,4.1L182,32.1L162.3,42l-10.5-2.1l-0.2-8.1C158.5,23.4,167.9,17,178.8,14.2z
	 M149.7,40.5l-8.5,14.1c1.4-7.3,4.3-14.1,8.4-20L149.7,40.5z M140.5,59.2l7.1,14.9l2.1,14.8l-2.9,0.4c-4.1-7.4-6.5-16-6.5-25.1
	C140.3,62.5,140.4,60.8,140.5,59.2z M172.4,112.1l-0.2-6.8l12.5-5.3l23.9,3.1l4.4,8.4c-6.4,2.9-13.5,4.5-21,4.5
	C185.1,115.9,178.5,114.5,172.4,112.1z"/>
<g>
	<path fill="#FCFF00" stroke="#000000" stroke-miterlimit="10" d="M174.6,104.7c0-1.2-1.2-1.2-1.2-1.2s-6.2,0-8.2,0
		s-0.7,0.6-0.7,0.6v2.1c0,3.3-2.1,3.3-2.6,3.3s-4.7-0.1-5.7-0.1c0.3-0.9-0.4-1.8-0.4-1.8h-55.5c0,0-0.5,0.9-0.2,1.8
		c-1,0-4.8,0-5.4,0c-0.5,0-2.1,0.1-2.1-3.1v-2.1c0,0-0.2-1-1.5-1c-2,0-8.3,0-8.3,0s-1.3,0.2-1.3,1.4s-0.1,27.6-0.1,29.6
		c0,2.1,0.5,6.1,7.1,9.2c6.5,3.2,19.5,9.3,19.6,10c-0.4,0.7-0.5,2.5,1.1,2.6c1,0,1.5-0.9,1.5-0.9s6.3,3,8.4,3.6c0,2,2.5,9.6,4.7,12
		c0,0.4-0.1,2.1-0.1,2.1s-2.9,0.2-2.9,2.7s2.3,3.7,3,3.8c0,1.1-3.3,10.6-5.2,12.8c0,1-0.3,2.5-0.3,2.5H114c0,0-0.5,0.1-0.5,0.7
		s0,3.3,0,3.3h-2v14h-3v3H107l-0.5,1h-1.8c0,0-1.3,0.1-1.3,1.7c0,1.6,0,24.3,0,24.3h-2c0,0-3.6,2.5-3.6,8.1c0,1.1,0.7,3.9,2.5,3.9
		c1.9,0,53.2,0,55.1,0s2.5-2.8,2.5-3.9c0-5.6-3.6-8.1-3.6-8.1h-3c0,0,0-22.7,0-24.3s-0.3-1.7-0.3-1.7h-2.1l-0.5-1h-1.1v-3h-2v-14h-2
		c0,0,0-2.6,0-3.3s-1.5-0.7-1.5-0.7h-4.1c0,0-0.3-1.5-0.3-2.5c-2-2.2-5.2-11.7-5.2-12.7c0.8-0.1,3-1.3,3-3.8s-2.9-2.7-2.9-2.7
		s-0.1-1.6-0.1-2.1c2.2-2.4,4.7-10,4.7-12c2.1-0.5,8.4-3.6,8.4-3.6s0.5,0.9,1.5,0.9c1.6-0.1,1.5-2,1.1-2.6c0.1-0.7,13.1-6.9,19.6-10
		c6.5-3.2,7.1-7,7.1-9.1C174.7,132.1,174.6,105.9,174.6,104.7z M89.3,140.6c-5.5-3-5.8-7.1-5.8-7.1v-27h6.2c0,0,0.1,0.9,0.1,1.9
		c0,3.7,2.9,4.1,4,4.1c1,0,7.7,0,7.7,0l0.2,0.3c5.8,16,7.8,36.8,7.8,39.9C108.8,151.1,94.9,143.5,89.3,140.6z M165.7,140.6
		c-5.5,2.9-18.9,10.5-19.7,12.1c0-3,2.4-23.9,8.2-39.9l0.3-0.3h8.5c0,0,3.2-0.4,3.2-4.1c0-1,0.1-1.9,0.1-1.9h4.2v27
		C170.5,133.5,171.2,137.6,165.7,140.6z"/>
	<line fill="none" stroke="#000000" stroke-miterlimit="10" x1="112" y1="198.5" x2="145" y2="198.5"/>
	<line fill="none" stroke="#000000" stroke-miterlimit="10" x1="124" y1="172.5" x2="132" y2="172.5"/>
	<line fill="none" stroke="#000000" stroke-miterlimit="10" x1="110" y1="212.5" x2="146" y2="212.5"/>
	<line fill="none" stroke="#000000" stroke-miterlimit="10" x1="107" y1="216.5" x2="150" y2="216.5"/>
	<line fill="none" stroke="#000000" stroke-miterlimit="10" x1="104" y1="242.5" x2="152" y2="242.5"/>
	<path fill="#FFFFFF" d="M125,110h14.4c0,0-0.9,16.4-2,22.6c-0.4,2.5-1.3,17.5-1.2,22.8c-2.4,0-2.2,0-11.2,0V110z"/>
	<path fill="#FFFFFF" d="M131.6,176H127c0,0-1-0.5-1-1.4c0-1.2,1-1.6,1-1.6h4.6c0,0,1,0.3,1,1.5S131.6,176,131.6,176z"/>
	<path fill="#FFFFFF" d="M127.3,179.6c0,0-2.2,11.4-0.9,14.4c2.1,0,5.5,0,5.5,0v-2.3c0,0-1.6-9.5-1.3-11.9
		C129.6,179.8,127.3,179.6,127.3,179.6z"/>
	<rect x="127" y="195" fill="#FFFFFF" width="7" height="1"/>
	<rect x="125" y="213" fill="#FFFFFF" width="12" height="2"/>
	<rect x="125" y="217" fill="#FFFFFF" width="14" height="1"/>
	<line fill="none" stroke="#000000" stroke-miterlimit="10" x1="118" y1="194.5" x2="140" y2="194.5"/>
	<line fill="none" stroke="#000000" stroke-miterlimit="10" x1="119" y1="192.5" x2="137" y2="192.5"/>
	<path fill="#ABD100" d="M139.4,110h7.8c0,0-3.9,18.6-4.8,25.9c-0.9,7.3-1.7,14.9-1.7,19.5c-2.9,0-5.1,0-5.1,0S136.2,125,139.4,110z
		"/>
	<path fill="#FF9F00" d="M108.7,110h-4.6c0,0,8.3,30,8.1,38.3c0,2.1,0.3,7.7,0.3,7.7h2.1c0,0-0.1-7.3-0.1-9.8S108.7,110,108.7,110z"
		/>
	<line fill="none" stroke="#000000" stroke-miterlimit="10" x1="112" y1="156.5" x2="145" y2="156.5"/>
	<path fill="#FF9F00" d="M121.7,158.8l-1.9,0.1c0,0,0.3,2.8,1.3,5.7c0.7,2.1,2,3.5,3.2,6.5c1.1,0,2,0,2,0s-2.1-2.9-3.3-6
		C122,162.4,121.7,159.3,121.7,158.8z"/>
	<path fill="#FF9F00" d="M121.8,174.5c0,0,0.6,2,2.8,2.7c1.7,0.6,1.1,1.2,0,1.1C124.2,178.3,120.7,177.6,121.8,174.5z"/>
	<rect x="119.4" y="192.8" fill="#FF9F00" width="1.5" height="0.8"/>
	<rect x="116" y="195" fill="#B9A9A5" width="2" height="3"/>
	<rect x="113" y="199" fill="#FF9F00" width="3" height="13"/>
	<rect x="111" y="213" fill="#FF9F00" width="4" height="1"/>
	<rect x="108" y="217" fill="#FF9F00" width="3" height="25"/>
	<path fill="#ABD100" d="M133.3,159h2c0,0-0.6,7-4.2,12c-1.1,0-1.5,0-1.5,0S133.3,165.5,133.3,159z"/>
	<path fill="#ABD100" d="M134.2,174.5c0,0-0.8,2.3-2.8,2.7c-1.9,0.4-0.8,1.2,0,1.1C132.2,178.2,135.3,177.3,134.2,174.5z"/>
	<rect x="134.4" y="193.1" fill="#ABD100" width="1.6" height="0.8"/>
	<rect x="134" y="195" fill="#ABD100" width="5" height="3"/>
	<rect x="115" y="195" fill="#FF9F00" width="4" height="3"/>
	<rect x="136" y="199" fill="#ABD100" width="5" height="13"/>
	<rect x="138" y="213" fill="#ABD100" width="6" height="1"/>
	<rect x="141" y="217" fill="#ABD100" width="5" height="25"/>
	<line fill="none" stroke="#000000" stroke-miterlimit="10" x1="120" y1="158.5" x2="137" y2="158.5"/>
	<line fill="none" stroke="#000000" stroke-miterlimit="10" x1="124" y1="179.5" x2="132" y2="179.5"/>
</g>
<g>
	<g>
		<circle fill="#F0F0F0" cx="191.5" cy="65.2" r="41"/>
		<path fill="#0052B4" d="M229.9,79.4c1.6-4.4,2.5-9.2,2.5-14.2s-0.9-9.8-2.5-14.2h-76.8c-1.6,4.4-2.5,9.2-2.5,14.2
			s0.9,9.8,2.5,14.2l38.4,3.6L229.9,79.4z"/>
		<path fill="#D80027" d="M191.5,106.2c17.6,0,32.6-11.1,38.4-26.7h-76.8C158.9,95,173.9,106.2,191.5,106.2z"/>
	</g>
	<ellipse fill="none" stroke="#020200" stroke-width="1.4754" stroke-miterlimit="10" cx="191.6" cy="65.2" rx="40.8" ry="40.6"/>
</g>
<g>
	<path d="M15.241,193.032l-1.415-0.065v13.67H9.418v-28.952h7.288c1.513,0,2.643,0.304,3.389,0.912
		c0.746,0.609,1.236,1.459,1.472,2.55c0.236,1.092,0.354,2.518,0.354,4.277c0,1.761-0.187,3.101-0.559,4.022
		c-0.373,0.921-1.064,1.541-2.073,1.858c0.998,0.176,1.694,0.851,2.089,2.023c0.395,1.174,0.592,3.616,0.592,7.329
		c0,3.712,0.055,5.705,0.164,5.979h-4.408c-0.11-0.22-0.165-3.68-0.165-10.38c0-1.283-0.154-2.136-0.461-2.559
		C16.793,193.276,16.173,193.055,15.241,193.032z M13.843,189.545h1.76c0.559,0,0.973-0.126,1.242-0.379
		c0.269-0.252,0.455-0.685,0.56-1.299c0.104-0.614,0.156-1.552,0.156-2.813v-0.181c0-1.568-0.132-2.594-0.395-3.076
		s-0.872-0.724-1.826-0.724h-1.497V189.545z"/>
	<path d="M36.278,205.082c-1.009,1.256-2.629,1.884-4.861,1.884s-3.855-0.631-4.869-1.893c-1.015-1.261-1.522-3.218-1.522-5.872
		v-21.533h4.409v21.451c0,1.524,0.071,2.45,0.214,2.779s0.315,0.628,0.518,0.896c0.203,0.27,0.623,0.403,1.259,0.403
		s1.091-0.187,1.365-0.56c0.274-0.372,0.441-0.836,0.501-1.39c0.061-0.554,0.091-1.264,0.091-2.13v-21.451h4.409v21.533
		C37.792,201.866,37.287,203.826,36.278,205.082z"/>
	<path d="M40.552,198.493v-2.582h4.178v2.911c0,1.612,0.137,2.745,0.411,3.397c0.274,0.652,0.79,0.979,1.546,0.979
		c0.757,0,1.259-0.269,1.505-0.806s0.37-1.415,0.37-2.632c0-1.218-0.22-2.278-0.658-3.184c-0.438-0.904-1.135-1.851-2.089-2.838
		l-2.139-2.204c-0.998-1.042-1.774-2.122-2.328-3.24c-0.554-1.119-0.831-2.413-0.831-3.883c0-2.391,0.46-4.167,1.382-5.33
		c0.921-1.162,2.505-1.743,4.754-1.743c2.248,0,3.77,0.677,4.565,2.031s1.192,3.331,1.192,5.931v1.793h-4.063v-2.073
		c0-1.403-0.121-2.409-0.362-3.019c-0.241-0.608-0.705-0.913-1.39-0.913c-0.686,0-1.179,0.23-1.48,0.691
		c-0.302,0.461-0.453,1.151-0.453,2.072c0,0.922,0.154,1.656,0.461,2.205c0.307,0.548,0.861,1.25,1.661,2.105l2.385,2.582
		c1.195,1.295,2.098,2.605,2.706,3.932c0.609,1.327,0.913,2.775,0.913,4.344c0,2.708-0.455,4.71-1.365,6.004
		c-0.911,1.294-2.503,1.941-4.779,1.941s-3.86-0.722-4.754-2.163C40.999,203.36,40.552,201.257,40.552,198.493z"/>
	<path d="M54.597,198.493v-2.582h4.178v2.911c0,1.612,0.137,2.745,0.411,3.397c0.274,0.652,0.79,0.979,1.546,0.979
		c0.757,0,1.259-0.269,1.505-0.806s0.37-1.415,0.37-2.632c0-1.218-0.22-2.278-0.658-3.184c-0.438-0.904-1.135-1.851-2.089-2.838
		l-2.139-2.204c-0.998-1.042-1.774-2.122-2.328-3.24c-0.554-1.119-0.831-2.413-0.831-3.883c0-2.391,0.46-4.167,1.382-5.33
		c0.921-1.162,2.505-1.743,4.754-1.743c2.248,0,3.77,0.677,4.565,2.031s1.192,3.331,1.192,5.931v1.793h-4.063v-2.073
		c0-1.403-0.121-2.409-0.362-3.019c-0.241-0.608-0.705-0.913-1.39-0.913c-0.686,0-1.179,0.23-1.48,0.691
		c-0.302,0.461-0.453,1.151-0.453,2.072c0,0.922,0.154,1.656,0.461,2.205c0.307,0.548,0.861,1.25,1.661,2.105l2.385,2.582
		c1.195,1.295,2.098,2.605,2.706,3.932c0.609,1.327,0.913,2.775,0.913,4.344c0,2.708-0.455,4.71-1.365,6.004
		c-0.911,1.294-2.503,1.941-4.779,1.941s-3.86-0.722-4.754-2.163C55.043,203.36,54.597,201.257,54.597,198.493z"/>
	<path d="M69.382,206.637v-28.952h4.409v28.952H69.382z"/>
	<path d="M76.88,198.493v-2.582h4.178v2.911c0,1.612,0.137,2.745,0.411,3.397c0.274,0.652,0.79,0.979,1.546,0.979
		c0.757,0,1.259-0.269,1.505-0.806s0.37-1.415,0.37-2.632c0-1.218-0.22-2.278-0.658-3.184c-0.438-0.904-1.135-1.851-2.089-2.838
		l-2.139-2.204c-0.998-1.042-1.774-2.122-2.328-3.24c-0.554-1.119-0.831-2.413-0.831-3.883c0-2.391,0.46-4.167,1.382-5.33
		c0.921-1.162,2.505-1.743,4.754-1.743c2.248,0,3.77,0.677,4.565,2.031c0.795,1.354,1.192,3.331,1.192,5.931v1.793h-4.063v-2.073
		c0-1.403-0.121-2.409-0.362-3.019c-0.241-0.608-0.705-0.913-1.39-0.913c-0.686,0-1.179,0.23-1.48,0.691
		c-0.302,0.461-0.453,1.151-0.453,2.072c0,0.922,0.154,1.656,0.461,2.205c0.307,0.548,0.861,1.25,1.661,2.105l2.385,2.582
		c1.195,1.295,2.098,2.605,2.706,3.932c0.609,1.327,0.913,2.775,0.913,4.344c0,2.708-0.455,4.71-1.365,6.004
		c-0.911,1.294-2.503,1.941-4.779,1.941s-3.86-0.722-4.754-2.163C77.327,203.36,76.88,201.257,76.88,198.493z"/>
	<path d="M102.227,204.95c-0.998,1.344-2.566,2.016-4.705,2.016s-3.737-0.716-4.795-2.147c-1.059-1.431-1.587-3.489-1.587-6.177
		v-12.617c0-4.31,1.129-7.002,3.389-8.077c0.833-0.395,1.842-0.592,3.027-0.592c4.068,0,6.103,2.565,6.103,7.698v3.981h-4.261
		v-3.702c0-1.491-0.126-2.558-0.378-3.199s-0.746-0.962-1.48-0.962s-1.245,0.34-1.53,1.02c-0.285,0.681-0.428,1.722-0.428,3.126
		v13.521c0,1.558,0.137,2.671,0.411,3.34c0.274,0.669,0.773,1.003,1.497,1.003s1.223-0.34,1.497-1.02
		c0.274-0.68,0.411-1.804,0.411-3.372v-4.146h4.327v4.096C103.724,201.537,103.224,203.607,102.227,204.95z"/>
	<path d="M106.467,206.637v-28.952h4.409v11.712h3.948v-11.712h4.409v28.952h-4.409v-13.456h-3.948v13.456H106.467z"/>
	<path d="M122.733,206.637v-28.952h9.706v3.8h-5.297v8.422h5.034v3.718h-5.034v9.213h5.495v3.8h-9.904V206.637z"/>
	<path d="M141.138,193.032l-1.414-0.065v13.67h-4.409v-28.952h7.288c1.513,0,2.643,0.304,3.389,0.912
		c0.745,0.609,1.236,1.459,1.472,2.55c0.236,1.092,0.354,2.518,0.354,4.277c0,1.761-0.187,3.101-0.559,4.022
		c-0.373,0.921-1.064,1.541-2.073,1.858c0.998,0.176,1.694,0.851,2.09,2.023c0.395,1.174,0.592,3.616,0.592,7.329
		c0,3.712,0.055,5.705,0.164,5.979h-4.408c-0.109-0.22-0.164-3.68-0.164-10.38c0-1.283-0.154-2.136-0.461-2.559
		C142.689,193.276,142.07,193.055,141.138,193.032z M139.74,189.545h1.76c0.56,0,0.973-0.126,1.242-0.379
		c0.269-0.252,0.455-0.685,0.56-1.299c0.104-0.614,0.156-1.552,0.156-2.813v-0.181c0-1.568-0.132-2.594-0.396-3.076
		c-0.263-0.482-0.871-0.724-1.826-0.724h-1.496V189.545z"/>
	<path d="M156.282,206.637v-28.952h5.478l4.112,21.154l3.866-21.154h5.511v28.952h-3.932v-10.792l0.165-9.902l-3.899,20.562h-3.504
		l-4.062-20.562l0.164,9.902v10.792H156.282z"/>
	<path d="M178.767,206.637v-28.952h9.705v3.8h-5.297v8.422h5.034v3.718h-5.034v9.213h5.494v3.8h-9.902V206.637z"/>
	<path d="M191.512,206.637v-28.952h4.409v28.952H191.512z"/>
	<path d="M199.01,198.493v-2.582h4.179v2.911c0,1.612,0.137,2.745,0.411,3.397s0.79,0.979,1.546,0.979
		c0.757,0,1.259-0.269,1.506-0.806c0.246-0.537,0.37-1.415,0.37-2.632c0-1.218-0.22-2.278-0.658-3.184
		c-0.438-0.904-1.135-1.851-2.089-2.838l-2.139-2.204c-0.998-1.042-1.774-2.122-2.328-3.24c-0.554-1.119-0.83-2.413-0.83-3.883
		c0-2.391,0.46-4.167,1.382-5.33c0.921-1.162,2.505-1.743,4.754-1.743c2.248,0,3.77,0.677,4.564,2.031s1.192,3.331,1.192,5.931
		v1.793h-4.062v-2.073c0-1.403-0.121-2.409-0.362-3.019c-0.241-0.608-0.705-0.913-1.39-0.913c-0.686,0-1.18,0.23-1.48,0.691
		c-0.302,0.461-0.453,1.151-0.453,2.072c0,0.922,0.154,1.656,0.461,2.205c0.307,0.548,0.861,1.25,1.661,2.105l2.386,2.582
		c1.195,1.295,2.098,2.605,2.706,3.932c0.608,1.327,0.913,2.775,0.913,4.344c0,2.708-0.455,4.71-1.365,6.004
		c-0.911,1.294-2.504,1.941-4.779,1.941s-3.86-0.722-4.754-2.163C199.457,203.36,199.01,201.257,199.01,198.493z"/>
	<path d="M215.111,206.637v-25.136h-3.389v-3.816h11.038v3.816h-3.258v25.136H215.111z"/>
	<path d="M224.354,206.637v-28.952h9.705v3.8h-5.297v8.422h5.034v3.718h-5.034v9.213h5.494v3.8h-9.902V206.637z"/>
	<path d="M242.758,193.032l-1.415-0.065v13.67h-4.408v-28.952h7.287c1.514,0,2.643,0.304,3.389,0.912
		c0.746,0.609,1.236,1.459,1.473,2.55c0.235,1.092,0.354,2.518,0.354,4.277c0,1.761-0.187,3.101-0.56,4.022
		s-1.063,1.541-2.072,1.858c0.998,0.176,1.694,0.851,2.089,2.023c0.395,1.174,0.593,3.616,0.593,7.329
		c0,3.712,0.055,5.705,0.164,5.979h-4.408c-0.11-0.22-0.165-3.68-0.165-10.38c0-1.283-0.153-2.136-0.461-2.559
		C244.31,193.276,243.689,193.055,242.758,193.032z M241.359,189.545h1.761c0.559,0,0.973-0.126,1.241-0.379
		c0.269-0.252,0.455-0.685,0.56-1.299s0.156-1.552,0.156-2.813v-0.181c0-1.568-0.132-2.594-0.395-3.076
		c-0.264-0.482-0.872-0.724-1.826-0.724h-1.497V189.545z"/>
	<path d="M37.833,238.496c-1.066,0-1.933-0.087-2.598-0.26c-0.666-0.174-1.229-0.49-1.688-0.95c-0.46-0.461-0.784-1.085-0.971-1.873
		s-0.28-1.807-0.28-3.056v-14.506c0-1.249,0.093-2.268,0.28-3.056s0.51-1.413,0.971-1.873c0.46-0.46,1.023-0.777,1.688-0.95
		s1.531-0.26,2.598-0.26v2.734c-0.812,0-1.331,0.212-1.559,0.636c-0.228,0.424-0.342,1.328-0.342,2.714v14.615
		c0,1.386,0.114,2.29,0.342,2.714c0.228,0.424,0.747,0.636,1.559,0.636V238.496z"/>
	<path d="M49.878,235.174c-0.839,1.157-2.181,1.736-4.026,1.736s-3.199-0.581-4.061-1.743s-1.292-2.914-1.292-5.257v-11.006
		c0-4.411,1.8-6.617,5.4-6.617c1.859,0,3.197,0.561,4.013,1.682c0.815,1.121,1.224,2.767,1.224,4.936v11.006
		C51.136,232.262,50.717,234.017,49.878,235.174z M44.512,232.904c0.214,0.556,0.654,0.834,1.319,0.834s1.103-0.285,1.312-0.854
		s0.314-1.547,0.314-2.933V218.74c0-1.14-0.107-1.971-0.321-2.495s-0.634-0.786-1.258-0.786c-0.625,0-1.062,0.262-1.312,0.786
		c-0.251,0.524-0.376,1.352-0.376,2.481v11.225C44.191,231.364,44.298,232.349,44.512,232.904z"/>
	<path d="M64.753,218.754c0,2.589-0.702,4.179-2.105,4.771c1.713,0.574,2.57,2.466,2.57,5.674v0.615
		c-0.019,2.415-0.44,4.156-1.265,5.223c-0.825,1.066-2.172,1.6-4.04,1.6h-5.318v-24.062h5.209c1.795,0,3.067,0.417,3.814,1.251
		s1.125,2.23,1.135,4.19V218.754z M58.259,222.309h1.354c0.629,0,1.041-0.2,1.237-0.602c0.196-0.401,0.294-1.226,0.294-2.475v-1.449
		c-0.009-0.93-0.137-1.552-0.383-1.866s-0.67-0.472-1.271-0.472h-1.23L58.259,222.309L58.259,222.309z M58.259,233.793h1.299
		c0.729,0,1.239-0.251,1.531-0.752c0.292-0.501,0.438-1.399,0.438-2.693v-1.941c0-1.222-0.119-2.085-0.355-2.591
		c-0.237-0.506-0.693-0.759-1.367-0.759H58.26L58.259,233.793L58.259,233.793z"/>
	<path d="M68.076,236.637v-24.062h8.066v3.158H71.74v7h4.184v3.09H71.74v7.656h4.566v3.158L68.076,236.637L68.076,236.637z"/>
	<path d="M84.072,225.33l-1.176-0.055v11.361h-3.664v-24.062h6.057c1.258,0,2.196,0.253,2.816,0.759s1.027,1.212,1.224,2.119
		c0.196,0.907,0.294,2.092,0.294,3.555s-0.155,2.577-0.465,3.343s-0.884,1.28-1.723,1.545c0.829,0.146,1.408,0.706,1.736,1.682
		s0.492,3.006,0.492,6.091s0.045,4.742,0.137,4.97h-3.664C86.045,236.454,86,233.579,86,228.01c0-1.066-0.128-1.775-0.383-2.126
		C85.361,225.533,84.846,225.349,84.072,225.33z M82.91,222.432h1.463c0.465,0,0.809-0.104,1.032-0.314
		c0.223-0.21,0.378-0.569,0.465-1.08c0.086-0.511,0.13-1.29,0.13-2.338v-0.15c0-1.304-0.109-2.155-0.328-2.557
		s-0.725-0.602-1.518-0.602H82.91V222.432z"/>
	<path d="M92.562,229.869v-2.146h3.473v2.42c0,1.34,0.114,2.281,0.342,2.823c0.228,0.542,0.656,0.813,1.285,0.813
		s1.046-0.224,1.251-0.67s0.308-1.176,0.308-2.188s-0.183-1.894-0.547-2.646c-0.365-0.752-0.943-1.538-1.736-2.358l-1.777-1.832
		c-0.83-0.866-1.475-1.764-1.935-2.693c-0.46-0.93-0.69-2.005-0.69-3.227c0-1.987,0.383-3.464,1.148-4.43s2.083-1.449,3.951-1.449
		c1.868,0,3.133,0.562,3.794,1.688c0.661,1.126,0.991,2.769,0.991,4.929v1.49h-3.377v-1.723c0-1.167-0.101-2.003-0.301-2.509
		c-0.201-0.506-0.586-0.759-1.155-0.759c-0.57,0-0.98,0.191-1.23,0.574c-0.251,0.383-0.376,0.957-0.376,1.723
		s0.127,1.376,0.383,1.832c0.255,0.456,0.715,1.039,1.381,1.75l1.982,2.146c0.993,1.075,1.743,2.165,2.249,3.268
		s0.759,2.306,0.759,3.609c0,2.251-0.378,3.915-1.135,4.99c-0.757,1.075-2.081,1.613-3.972,1.613c-1.892,0-3.208-0.6-3.951-1.798
		C92.933,233.914,92.562,232.166,92.562,229.869z"/>
	<path d="M106.644,236.637v-20.891h-2.816v-3.172h9.174v3.172h-2.707v20.891H106.644z"/>
	<path d="M115.025,236.637v-24.062h8.066v3.158h-4.402v7h4.184v3.09h-4.184v7.656h4.566v3.158L115.025,236.637L115.025,236.637z"/>
	<path d="M131.186,236.637v-24.062h5.4c1.768,0,3.051,0.521,3.849,1.565c0.797,1.044,1.196,2.582,1.196,4.614l0.014,10.855
		c0,2.425-0.401,4.202-1.203,5.332c-0.803,1.13-2.129,1.695-3.979,1.695L131.186,236.637L131.186,236.637z M134.85,233.793h1.203
		c0.674,0,1.164-0.219,1.47-0.656c0.305-0.438,0.458-1.239,0.458-2.406l-0.014-11.881c0-1.249-0.153-2.138-0.458-2.666
		c-0.306-0.528-0.832-0.793-1.579-0.793h-1.08V233.793z"/>
	<path d="M145.076,236.637v-24.062h3.664v24.062H145.076z"/>
	<path d="M155.18,236.637l-3.732-24.062h3.486l1.572,10.869l0.971,7.656h0.096l0.834-7.656l1.312-10.869h3.418l-3.432,24.062H155.18
		z"/>
	<path d="M165.83,236.637v-24.062h3.664v24.062H165.83z"/>
	<path d="M172.762,229.869v-2.146h3.473v2.42c0,1.34,0.113,2.281,0.342,2.823c0.228,0.542,0.656,0.813,1.285,0.813
		s1.046-0.224,1.251-0.67s0.308-1.176,0.308-2.188s-0.183-1.894-0.547-2.646c-0.365-0.752-0.943-1.538-1.736-2.358l-1.777-1.832
		c-0.83-0.866-1.475-1.764-1.935-2.693c-0.461-0.93-0.69-2.005-0.69-3.227c0-1.987,0.383-3.464,1.148-4.43s2.082-1.449,3.951-1.449
		c1.868,0,3.133,0.562,3.794,1.688c0.66,1.126,0.991,2.769,0.991,4.929v1.49h-3.377v-1.723c0-1.167-0.101-2.003-0.301-2.509
		c-0.201-0.506-0.586-0.759-1.155-0.759c-0.57,0-0.98,0.191-1.23,0.574c-0.251,0.383-0.376,0.957-0.376,1.723
		s0.127,1.376,0.383,1.832c0.255,0.456,0.715,1.039,1.381,1.75l1.982,2.146c0.993,1.075,1.743,2.165,2.249,3.268
		s0.759,2.306,0.759,3.609c0,2.251-0.379,3.915-1.135,4.99c-0.757,1.075-2.081,1.613-3.972,1.613c-1.892,0-3.209-0.6-3.951-1.798
		C173.133,233.914,172.762,232.166,172.762,229.869z"/>
	<path d="M185.75,236.637v-24.062h3.664v24.062H185.75z"/>
	<path d="M202.238,235.174c-0.839,1.157-2.181,1.736-4.026,1.736s-3.199-0.581-4.061-1.743s-1.292-2.914-1.292-5.257v-11.006
		c0-4.411,1.8-6.617,5.4-6.617c1.859,0,3.196,0.561,4.013,1.682c0.815,1.121,1.224,2.767,1.224,4.936v11.006
		C203.496,232.262,203.076,234.017,202.238,235.174z M196.872,232.904c0.214,0.556,0.653,0.834,1.319,0.834
		c0.665,0,1.103-0.285,1.312-0.854s0.314-1.547,0.314-2.933V218.74c0-1.14-0.107-1.971-0.321-2.495
		c-0.215-0.524-0.634-0.786-1.258-0.786c-0.625,0-1.062,0.262-1.312,0.786c-0.251,0.524-0.376,1.352-0.376,2.481v11.225
		C196.551,231.364,196.657,232.349,196.872,232.904z"/>
	<path d="M206.818,236.637v-24.062h2.871l5.1,14.438l-0.26-6.562v-7.875h3.295v24.062h-2.598l-5.236-14.943l0.205,6.316v8.627
		h-3.377V236.637z"/>
	<path d="M220.805,238.496v-2.734c0.811,0,1.33-0.212,1.559-0.636c0.228-0.424,0.342-1.328,0.342-2.714v-14.615
		c0-1.386-0.114-2.29-0.342-2.714c-0.229-0.424-0.748-0.636-1.559-0.636v-2.734c1.066,0,1.932,0.087,2.598,0.26
		c0.665,0.173,1.226,0.49,1.682,0.95c0.455,0.46,0.776,1.085,0.964,1.873c0.187,0.788,0.28,1.807,0.28,3.056v14.506
		c0,1.249-0.094,2.268-0.28,3.056c-0.188,0.788-0.509,1.412-0.964,1.873c-0.456,0.46-1.017,0.776-1.682,0.95
		C222.736,238.409,221.871,238.496,220.805,238.496z"/>
</g>
</svg>
