<?xml version="1.0" encoding="utf-8"?>
<!-- Generator: Adobe Illustrator 17.0.0, SVG Export Plug-In . SVG Version: 6.00 Build 0)  -->
<!DOCTYPE svg PUBLIC "-//W3C//DTD SVG 1.1//EN" "http://www.w3.org/Graphics/SVG/1.1/DTD/svg11.dtd">
<svg version="1.1" id="Layer_1" xmlns="http://www.w3.org/2000/svg" xmlns:xlink="http://www.w3.org/1999/xlink" x="0px" y="0px"
	 width="256px" height="256px" viewBox="0 0 256 256" enable-background="new 0 0 256 256" xml:space="preserve">
<polygon fill="#FFFF00" points="128,188.6 53.1,243.2 82,155.1 6.8,100.8 99.5,101 128,12.8 156.5,101 249.2,100.8 174,155.1 
	202.9,243.2 "/>
<path fill="#FFFFFF" d="M192,10.3c-17.1,0-32.4,8-42.3,20.6h-0.3v0.3c-7.1,9.1-11.4,20.6-11.4,33c0,29.7,24.2,53.9,53.9,53.9
	s53.9-24.2,53.9-53.9S221.7,10.3,192,10.3z"/>
<path d="M192,10.3c-17.1,0-32.4,8-42.3,20.6h-0.3v0.3c-7.1,9.1-11.4,20.6-11.4,33c0,29.7,24.2,53.9,53.9,53.9s53.9-24.2,53.9-53.9
	S221.7,10.3,192,10.3z M208.6,100.9l-23.1-3L183.7,78l17.6-10.7L217,82.4L208.6,100.9z M171.2,103.3L151.9,89l-2.1-14.7l11.8-7.4
	L181.5,78l1.9,20.2L171.2,103.3z M149.1,72.2L142,57.4l9.3-15.3l9.7,2l-0.2,20.8L149.1,72.2z M188.3,19l21.3,2.9l7.3,13.6l-16.1,7.9
	l-16.5-11.5L188.3,19z M231.4,74.4l-12.6,6.7l-16.9-16.2l0.2-19.7l16-7.9L232.3,50L231.4,74.4z M233.5,74.9l1-24.5l7.1-0.9
	c1.4,4.7,2.1,9.6,2.1,14.7c0,4.6-0.6,9-1.7,13.2L233.5,74.9z M240.9,47.4l-7.1,0.9l-14.6-13.1L212,21.9l6.1-2.4
	C228.7,25.7,236.9,35.6,240.9,47.4z M178.8,14.2l7.4,4.1L182,32.1L162.3,42l-10.5-2.1l-0.2-8.1C158.5,23.4,167.9,17,178.8,14.2z
	 M149.7,40.5l-8.5,14.1c1.4-7.3,4.3-14.1,8.4-20L149.7,40.5z M140.5,59.2l7.1,14.9l2.1,14.8l-2.9,0.4c-4.1-7.4-6.5-16-6.5-25.1
	C140.3,62.5,140.4,60.8,140.5,59.2z M172.4,112.1l-0.2-6.8l12.5-5.3l23.9,3.1l4.4,8.4c-6.4,2.9-13.5,4.5-21,4.5
	C185.1,115.9,178.5,114.5,172.4,112.1z"/>
<g>
	<path fill="none" stroke="#000000" stroke-width="3" stroke-miterlimit="10" d="M157.6,137"/>
	<path fill="#FF0000" d="M157.6,137"/>
</g>
<g>
	<path fill="#FFFFFF" d="M212.694,171.305c20.232-10.031,33.771-31.938,34.574-35.26s-0.498-4.07-2.811-6.507
		s-7.019-0.552-7.019-0.552s-21.243,17.409-31.184,24.267c-10.028,6.969-52.017,17.849-57.694,20.861
		c-5.676,3.012-45.104,15.895-51.712,24.461c0.03,2.716-1.848,9.596,5.082,6.128C108.86,201.236,179.335,187.677,212.694,171.305z"
		/>
	<g>
		<path fill="none" stroke="#000000" stroke-width="3" stroke-miterlimit="10" d="M183.816,143.607
			c3.338-0.711,6.069-1.448,8.129-1.901c4.394-1.142,9.458-2.568,16.149-4.696c8.814-2.892,18.576-7.915,22.2-8.761
			c6.367-1.484,12.328,0.305,12.328,0.305c2.897,2.265-21.276,20.435-27.08,24.873c-14.939,11.298-61.717,22.562-95.452,35.857
			c-12.019,4.694-17.278,9.468-17.278,9.468s9.286-3.151,15.851-4.66c14.583-3.497,78.26-16.627,94.659-26.693
			c21.17-13.068,31.798-31.595,31.894-34.932c5.065,7.641,1.526,14.119-1.562,18.527c-3.1,4.308-0.612,6.523-1.881,7.685
			c-0.709,0.792-4.29-0.483-7.337,2.61c-3.047,3.093-4.133,5.744-7.875,8.922c-3.754,3.079-0.724,6.436-3.112,9.146
			c-2.401,2.611-5.092-2.097-8.658,0.052c-3.553,2.248-5.591,3.706-11.788,6.58c-6.098,2.862-2.363,7.039-4.735,8.236
			c-2.249,1.383-6.587-4.433-11.257-2.25c-4.669,2.183-22.748,14.167-28.947,17.847c-6.298,3.692-1.223,12.239-3.212,14.094
			c-1.268,1.163-5.574-2.743-9.518-2.865c-2.319-0.018-4.544,1.563-6.819,3.554c-6.092,5.38-0.686,10.864-3.295,12.593
			c-2.609,1.73-4.511-1.463-9.121-2.914s-8.5,1.342-13.375-3.099c-23.437-21.11-19.531-44.356-19.531-44.356
			c1.657-2.923,2.648-2.238,7.408-1.209c4.748,0.93,12.883,1.547,18.799-2.804c5.816-4.338,11.973-15.771,11.354-20.833
			c-0.619-5.062-2.073-8.713,4.538-9.018c2.704-0.129,10.708-1.411,19.965-3.148l4.232-0.82
			C161.9,148.102,161.9,148.102,183.816,143.607z"/>
		<path fill="#9933FF" d="M183.816,143.607c3.338-0.711,6.069-1.448,8.129-1.901c4.394-1.142,9.458-2.568,16.149-4.696
			c8.814-2.892,18.576-7.915,22.2-8.761c6.367-1.484,12.328,0.305,12.328,0.305c2.897,2.265-21.276,20.435-27.08,24.873
			c-14.939,11.298-61.717,22.562-95.452,35.857c-12.019,4.694-17.278,9.468-17.278,9.468s9.286-3.151,15.851-4.66
			c14.583-3.497,78.26-16.627,94.659-26.693c21.17-13.068,31.798-31.595,31.894-34.932c5.065,7.641,1.526,14.119-1.562,18.527
			c-3.1,4.308-0.612,6.523-1.881,7.685c-0.709,0.792-4.29-0.483-7.337,2.61c-3.047,3.093-4.133,5.744-7.875,8.922
			c-3.754,3.079-0.724,6.436-3.112,9.146c-2.401,2.611-5.092-2.097-8.658,0.052c-3.553,2.248-5.591,3.706-11.788,6.58
			c-6.098,2.862-2.363,7.039-4.735,8.236c-2.249,1.383-6.587-4.433-11.257-2.25c-4.669,2.183-22.748,14.167-28.947,17.847
			c-6.298,3.692-1.223,12.239-3.212,14.094c-1.268,1.163-5.574-2.743-9.518-2.865c-2.319-0.018-4.544,1.563-6.819,3.554
			c-6.092,5.38-0.686,10.864-3.295,12.593c-2.609,1.73-4.511-1.463-9.121-2.914s-8.5,1.342-13.375-3.099
			c-23.437-21.11-19.531-44.356-19.531-44.356c1.657-2.923,2.648-2.238,7.408-1.209c4.748,0.93,12.883,1.547,18.799-2.804
			c5.816-4.338,11.973-15.771,11.354-20.833c-0.619-5.062-2.073-8.713,4.538-9.018c2.704-0.129,10.708-1.411,19.965-3.148
			l4.232-0.82C161.9,148.102,161.9,148.102,183.816,143.607z"/>
	</g>
	<g>
		<g>
			<g>
				<path fill="none" stroke="#1D1D1B" stroke-width="3" d="M155.175,163.13c-0.199,0.024-0.397,0.049-0.608-0.026
					c-1.041-0.276-1.77-1.295-1.594-2.324l3.04-14.678c0.276-1.041,1.295-1.77,2.324-1.594c1.041,0.276,1.77,1.295,1.594,2.324
					l-3.04,14.678C156.703,162.439,155.969,163.032,155.175,163.13z"/>
			</g>
			<g>
				<path fill="none" stroke="#1D1D1B" stroke-width="3" d="M164.301,159.494c-0.199,0.024-0.397,0.049-0.608-0.026
					c-1.041-0.276-1.77-1.295-1.594-2.324l2.387-11.777c0.276-1.041,1.295-1.77,2.324-1.594c1.041,0.276,1.77,1.295,1.594,2.324
					l-2.387,11.777C165.829,158.804,165.095,159.397,164.301,159.494z"/>
			</g>
			<g>
				<path fill="none" stroke="#1D1D1B" stroke-width="3" d="M171.948,156.947c-0.199,0.024-0.397,0.049-0.608-0.026
					c-1.041-0.276-1.77-1.295-1.594-2.324l2.262-11.157c0.276-1.041,1.295-1.77,2.324-1.594c1.041,0.276,1.77,1.295,1.594,2.324
					l-2.262,11.157C173.476,156.256,172.742,156.85,171.948,156.947z"/>
			</g>
			<g>
				<path fill="none" stroke="#1D1D1B" stroke-width="3" d="M180.58,152.566c-0.199,0.024-0.397,0.049-0.608-0.026
					c-1.041-0.276-1.77-1.295-1.594-2.324l1.834-8.889c0.276-1.041,1.295-1.77,2.324-1.594c1.041,0.276,1.77,1.295,1.594,2.324
					l-1.834,8.889C182.108,151.876,181.374,152.469,180.58,152.566z"/>
			</g>
		</g>
		<g>
			<g>
				<path fill="#FFFF00" d="M155.175,163.13c-0.199,0.024-0.397,0.049-0.608-0.026c-1.041-0.276-1.77-1.295-1.594-2.324l3.04-14.678
					c0.276-1.041,1.295-1.77,2.324-1.594c1.041,0.276,1.77,1.295,1.594,2.324l-3.04,14.678
					C156.703,162.439,155.969,163.032,155.175,163.13z"/>
			</g>
			<g>
				<path fill="#FFFF00" d="M164.301,159.494c-0.199,0.024-0.397,0.049-0.608-0.026c-1.041-0.276-1.77-1.295-1.594-2.324
					l2.387-11.777c0.276-1.041,1.295-1.77,2.324-1.594c1.041,0.276,1.77,1.295,1.594,2.324l-2.387,11.777
					C165.829,158.804,165.095,159.397,164.301,159.494z"/>
			</g>
			<g>
				<path fill="#FFFF00" d="M171.948,156.947c-0.199,0.024-0.397,0.049-0.608-0.026c-1.041-0.276-1.77-1.295-1.594-2.324
					l2.262-11.157c0.276-1.041,1.295-1.77,2.324-1.594c1.041,0.276,1.77,1.295,1.594,2.324l-2.262,11.157
					C173.476,156.256,172.742,156.85,171.948,156.947z"/>
			</g>
			<g>
				<path fill="#FFFF00" d="M180.58,152.566c-0.199,0.024-0.397,0.049-0.608-0.026c-1.041-0.276-1.77-1.295-1.594-2.324l1.834-8.889
					c0.276-1.041,1.295-1.77,2.324-1.594c1.041,0.276,1.77,1.295,1.594,2.324l-1.834,8.889
					C182.108,151.876,181.374,152.469,180.58,152.566z"/>
			</g>
		</g>
	</g>
</g>
<g>
	<g>
		<circle fill="#F0F0F0" cx="191.5" cy="65.2" r="41"/>
		<path fill="#0052B4" d="M229.9,79.4c1.6-4.4,2.5-9.2,2.5-14.2s-0.9-9.8-2.5-14.2h-76.8c-1.6,4.4-2.5,9.2-2.5,14.2
			s0.9,9.8,2.5,14.2l38.4,3.6L229.9,79.4z"/>
		<path fill="#D80027" d="M191.5,106.2c17.6,0,32.6-11.1,38.4-26.7h-76.8C158.9,95,173.9,106.2,191.5,106.2z"/>
	</g>
	<ellipse fill="none" stroke="#020200" stroke-width="1.4754" stroke-miterlimit="10" cx="191.6" cy="65.2" rx="40.8" ry="40.6"/>
</g>
<g>
	<path d="M24.08,93.757l-0.84-0.039v8.115h-2.617V84.646h4.326c0.898,0,1.569,0.181,2.012,0.542s0.734,0.866,0.874,1.514
		s0.21,1.494,0.21,2.539s-0.111,1.841-0.332,2.388s-0.631,0.915-1.23,1.104c0.592,0.104,1.006,0.504,1.24,1.201
		s0.352,2.147,0.352,4.351s0.033,3.387,0.098,3.55h-2.617c-0.065-0.13-0.098-2.184-0.098-6.162c0-0.762-0.091-1.268-0.273-1.519
		S24.633,93.771,24.08,93.757z M23.25,91.687h1.045c0.332,0,0.578-0.075,0.737-0.225s0.27-0.407,0.332-0.771s0.093-0.921,0.093-1.67
		v-0.107c0-0.931-0.078-1.54-0.234-1.826s-0.518-0.43-1.084-0.43H23.25V91.687z"/>
	<path d="M37.068,100.911c-0.599,0.746-1.561,1.118-2.886,1.118s-2.289-0.375-2.891-1.123s-0.903-1.911-0.903-3.486V84.636h2.617
		V97.37c0,0.905,0.042,1.455,0.127,1.65s0.187,0.373,0.308,0.532s0.37,0.239,0.747,0.239s0.648-0.111,0.811-0.332
		s0.262-0.497,0.298-0.825s0.054-0.75,0.054-1.265V84.636h2.617v12.783C37.966,99.001,37.667,100.165,37.068,100.911z"/>
	<path d="M40.105,97v-1.533h2.48v1.729c0,0.957,0.082,1.629,0.244,2.017s0.469,0.581,0.918,0.581s0.747-0.16,0.894-0.479
		s0.22-0.84,0.22-1.562s-0.13-1.353-0.391-1.89s-0.674-1.099-1.24-1.685l-1.27-1.309c-0.592-0.619-1.053-1.26-1.382-1.924
		s-0.493-1.432-0.493-2.305c0-1.419,0.273-2.474,0.82-3.164s1.488-1.035,2.822-1.035s2.238,0.402,2.71,1.206
		s0.708,1.978,0.708,3.521v1.064h-2.412v-1.23c0-0.833-0.072-1.431-0.215-1.792s-0.418-0.542-0.825-0.542s-0.7,0.137-0.879,0.41
		s-0.269,0.684-0.269,1.23s0.091,0.983,0.273,1.309s0.511,0.742,0.986,1.25L45.22,92.4c0.709,0.768,1.245,1.546,1.606,2.334
		s0.542,1.647,0.542,2.578c0,1.608-0.27,2.796-0.811,3.564s-1.486,1.152-2.837,1.152s-2.292-0.428-2.822-1.284
		S40.105,98.64,40.105,97z"/>
	<path d="M48.943,97v-1.533h2.48v1.729c0,0.957,0.082,1.629,0.244,2.017s0.469,0.581,0.918,0.581s0.747-0.16,0.894-0.479
		s0.22-0.84,0.22-1.562s-0.13-1.353-0.391-1.89s-0.674-1.099-1.24-1.685l-1.27-1.309c-0.592-0.619-1.053-1.26-1.382-1.924
		s-0.493-1.432-0.493-2.305c0-1.419,0.273-2.474,0.82-3.164s1.488-1.035,2.822-1.035s2.238,0.402,2.71,1.206
		s0.708,1.978,0.708,3.521v1.064h-2.412v-1.23c0-0.833-0.072-1.431-0.215-1.792s-0.418-0.542-0.825-0.542s-0.7,0.137-0.879,0.41
		s-0.269,0.684-0.269,1.23s0.091,0.983,0.273,1.309s0.511,0.742,0.986,1.25L54.06,92.4c0.709,0.768,1.245,1.546,1.606,2.334
		s0.542,1.647,0.542,2.578c0,1.608-0.27,2.796-0.811,3.564s-1.486,1.152-2.837,1.152s-2.292-0.428-2.822-1.284
		S48.943,98.64,48.943,97z"/>
	<path d="M58.22,101.833V84.646h2.617v17.188L58.22,101.833L58.22,101.833z"/>
	<path d="M63.171,97v-1.533h2.48v1.729c0,0.957,0.082,1.629,0.244,2.017s0.469,0.581,0.918,0.581s0.747-0.16,0.894-0.479
		s0.22-0.84,0.22-1.562s-0.13-1.353-0.391-1.89s-0.674-1.099-1.24-1.685l-1.27-1.309c-0.592-0.619-1.053-1.26-1.382-1.924
		s-0.493-1.432-0.493-2.305c0-1.419,0.273-2.474,0.82-3.164c0.547-0.69,1.488-1.035,2.822-1.035s2.238,0.402,2.71,1.206
		s0.708,1.978,0.708,3.521v1.064H67.8v-1.23c0-0.833-0.072-1.431-0.215-1.792s-0.418-0.542-0.825-0.542s-0.7,0.137-0.879,0.41
		s-0.269,0.684-0.269,1.23s0.091,0.983,0.273,1.309s0.511,0.742,0.986,1.25l1.416,1.533c0.709,0.768,1.245,1.546,1.606,2.334
		s0.542,1.647,0.542,2.578c0,1.608-0.27,2.796-0.811,3.564s-1.486,1.152-2.837,1.152s-2.292-0.428-2.822-1.284
		S63.171,98.64,63.171,97z"/>
	<path d="M78.718,100.833c-0.592,0.797-1.523,1.196-2.793,1.196s-2.218-0.425-2.847-1.274s-0.942-2.072-0.942-3.667v-7.49
		c0-2.559,0.67-4.157,2.012-4.795c0.495-0.234,1.094-0.352,1.797-0.352c2.416,0,3.623,1.523,3.623,4.57v2.363h-2.529v-2.197
		c0-0.885-0.075-1.519-0.225-1.899s-0.443-0.571-0.879-0.571s-0.739,0.202-0.908,0.605s-0.254,1.022-0.254,1.855v8.027
		c0,0.924,0.082,1.585,0.244,1.982s0.459,0.596,0.889,0.596s0.726-0.202,0.889-0.605s0.244-1.071,0.244-2.002v-2.461h2.568v2.432
		C79.607,98.806,79.311,100.035,78.718,100.833z"/>
	<path d="M81.736,101.833V84.646h2.617v6.953h2.344v-6.953h2.617v17.188h-2.617v-7.988h-2.344v7.988L81.736,101.833L81.736,101.833z
		"/>
	<path d="M91.892,101.833V84.646h5.762v2.256h-3.145v5h2.988v2.207h-2.988v5.469h3.262v2.256L91.892,101.833L91.892,101.833z"/>
	<path d="M103.318,93.757l-0.84-0.039v8.115h-2.617V84.646h4.326c0.898,0,1.569,0.181,2.012,0.542s0.734,0.866,0.874,1.514
		s0.21,1.494,0.21,2.539s-0.111,1.841-0.332,2.388s-0.631,0.915-1.23,1.104c0.592,0.104,1.006,0.504,1.24,1.201
		s0.352,2.147,0.352,4.351s0.033,3.387,0.098,3.55h-2.617c-0.065-0.13-0.098-2.184-0.098-6.162c0-0.762-0.091-1.268-0.273-1.519
		S103.871,93.771,103.318,93.757z M102.488,91.687h1.045c0.332,0,0.578-0.075,0.737-0.225s0.27-0.407,0.332-0.771
		s0.093-0.921,0.093-1.67v-0.107c0-0.931-0.078-1.54-0.234-1.826s-0.518-0.43-1.084-0.43h-0.889V91.687z"/>
	<path d="M20.613,125.833v-17.188h5.898v2.275H23.23v4.57h3.047v2.285H23.23v8.057L20.613,125.833L20.613,125.833z"/>
	<path d="M34.978,124.911c-0.599,0.746-1.561,1.118-2.886,1.118s-2.289-0.375-2.891-1.123s-0.903-1.911-0.903-3.486v-12.783h2.617
		v12.734c0,0.905,0.042,1.455,0.127,1.65s0.187,0.373,0.308,0.532s0.37,0.239,0.747,0.239s0.648-0.111,0.811-0.332
		s0.262-0.497,0.298-0.825s0.054-0.75,0.054-1.265v-12.734h2.617v12.783C35.876,123.001,35.577,124.165,34.978,124.911z"/>
	<path d="M38.015,121v-1.533h2.48v1.729c0,0.957,0.082,1.629,0.244,2.017s0.469,0.581,0.918,0.581s0.747-0.16,0.894-0.479
		s0.22-0.84,0.22-1.562s-0.13-1.353-0.391-1.89s-0.674-1.099-1.24-1.685l-1.27-1.309c-0.592-0.619-1.053-1.26-1.382-1.924
		s-0.493-1.432-0.493-2.305c0-1.419,0.273-2.474,0.82-3.164s1.488-1.035,2.822-1.035s2.238,0.402,2.71,1.206
		s0.708,1.978,0.708,3.521v1.064h-2.412v-1.23c0-0.833-0.072-1.431-0.215-1.792s-0.418-0.542-0.825-0.542s-0.7,0.137-0.879,0.41
		s-0.269,0.684-0.269,1.23s0.091,0.983,0.273,1.309s0.511,0.742,0.986,1.25l1.416,1.533c0.709,0.768,1.245,1.546,1.606,2.334
		s0.542,1.647,0.542,2.578c0,1.608-0.27,2.796-0.811,3.564s-1.486,1.152-2.837,1.152s-2.292-0.428-2.822-1.284
		S38.015,122.64,38.015,121z"/>
	<path d="M46.853,121v-1.533h2.48v1.729c0,0.957,0.082,1.629,0.244,2.017s0.469,0.581,0.918,0.581s0.747-0.16,0.894-0.479
		s0.22-0.84,0.22-1.562s-0.13-1.353-0.391-1.89s-0.674-1.099-1.24-1.685l-1.27-1.309c-0.592-0.619-1.053-1.26-1.382-1.924
		s-0.493-1.432-0.493-2.305c0-1.419,0.273-2.474,0.82-3.164s1.488-1.035,2.822-1.035s2.238,0.402,2.71,1.206
		s0.708,1.978,0.708,3.521v1.064h-2.412v-1.23c0-0.833-0.072-1.431-0.215-1.792s-0.418-0.542-0.825-0.542s-0.7,0.137-0.879,0.41
		s-0.269,0.684-0.269,1.23s0.091,0.983,0.273,1.309s0.511,0.742,0.986,1.25l1.416,1.533c0.709,0.768,1.245,1.546,1.606,2.334
		s0.542,1.647,0.542,2.578c0,1.608-0.27,2.796-0.811,3.564s-1.486,1.152-2.837,1.152s-2.292-0.428-2.822-1.284
		S46.853,122.64,46.853,121z"/>
	<path d="M63.386,113.06c0,1.849-0.501,2.985-1.504,3.408c1.224,0.41,1.836,1.761,1.836,4.053v0.439
		c-0.013,1.725-0.314,2.969-0.903,3.73s-1.551,1.143-2.886,1.143H56.13v-17.188h3.721c1.283,0,2.191,0.298,2.725,0.894
		s0.804,1.593,0.811,2.993L63.386,113.06L63.386,113.06z M58.748,115.599h0.967c0.449,0,0.744-0.143,0.884-0.43
		s0.21-0.875,0.21-1.768v-1.035c-0.006-0.664-0.098-1.108-0.273-1.333s-0.479-0.337-0.908-0.337h-0.879L58.748,115.599
		L58.748,115.599z M58.748,123.802h0.928c0.521,0,0.885-0.179,1.094-0.537s0.312-1,0.312-1.924v-1.387
		c0-0.873-0.084-1.489-0.254-1.851s-0.495-0.542-0.977-0.542h-1.104L58.748,123.802L58.748,123.802z"/>
	<path d="M64.978,125.833l2.451-17.188h3.457l2.607,17.188h-2.441l-0.41-3.066h-2.773l-0.371,3.066
		C67.498,125.833,64.978,125.833,64.978,125.833z M70.369,120.667l-1.152-8.633h-0.039l-1.055,8.633H70.369z"/>
	<path d="M75.291,125.833v-17.188h2.617v14.961h3.311v2.227H75.291z"/>
	<path d="M82.722,125.833v-17.188h2.617v14.961h3.311v2.227H82.722z"/>
	<path d="M90.154,125.833v-17.188h5.762v2.256h-3.145v5h2.988v2.207h-2.988v5.469h3.262v2.256H90.154z"/>
	<path d="M101.58,117.757l-0.84-0.039v8.115h-2.617v-17.188h4.326c0.898,0,1.569,0.181,2.012,0.542s0.734,0.866,0.874,1.514
		s0.21,1.494,0.21,2.539s-0.111,1.841-0.332,2.388s-0.631,0.915-1.23,1.104c0.592,0.104,1.006,0.504,1.24,1.201
		s0.352,2.147,0.352,4.351s0.033,3.387,0.098,3.55h-2.617c-0.065-0.13-0.098-2.184-0.098-6.162c0-0.762-0.091-1.268-0.273-1.519
		S102.133,117.771,101.58,117.757z M100.75,115.687h1.045c0.332,0,0.578-0.075,0.737-0.225s0.27-0.407,0.332-0.771
		s0.093-0.921,0.093-1.67v-0.107c0-0.931-0.078-1.54-0.234-1.826s-0.518-0.43-1.084-0.43h-0.889V115.687z"/>
	<path d="M20.613,149.833v-17.188h3.857c1.263,0,2.179,0.373,2.749,1.118c0.57,0.746,0.854,1.845,0.854,3.296l0.01,7.754
		c0,1.732-0.287,3.002-0.859,3.809c-0.573,0.808-1.52,1.211-2.842,1.211H20.613z M23.23,147.802h0.859
		c0.482,0,0.832-0.156,1.05-0.469s0.327-0.885,0.327-1.719l-0.01-8.486c0-0.892-0.109-1.526-0.327-1.904
		c-0.218-0.377-0.594-0.566-1.128-0.566H23.23V147.802z"/>
	<path d="M30.437,149.833v-17.188h5.762v2.256h-3.145v5h2.988v2.207h-2.988v5.469h3.262v2.256L30.437,149.833L30.437,149.833z"/>
	<path d="M38.064,144.999v-1.533h2.48v1.729c0,0.957,0.082,1.63,0.244,2.017c0.163,0.388,0.469,0.581,0.918,0.581
		s0.747-0.159,0.894-0.479c0.146-0.318,0.22-0.84,0.22-1.562s-0.13-1.353-0.391-1.89s-0.674-1.099-1.24-1.685l-1.27-1.309
		c-0.592-0.618-1.053-1.26-1.382-1.924s-0.493-1.432-0.493-2.305c0-1.419,0.273-2.474,0.82-3.164
		c0.547-0.689,1.488-1.035,2.822-1.035s2.238,0.402,2.71,1.206c0.472,0.805,0.708,1.978,0.708,3.521v1.064h-2.412v-1.23
		c0-0.833-0.072-1.431-0.215-1.792s-0.418-0.542-0.825-0.542s-0.7,0.137-0.879,0.41s-0.269,0.684-0.269,1.23
		s0.091,0.983,0.273,1.309s0.511,0.742,0.986,1.25l1.416,1.533c0.709,0.769,1.245,1.547,1.606,2.334
		c0.361,0.788,0.542,1.647,0.542,2.578c0,1.608-0.27,2.797-0.811,3.564c-0.541,0.769-1.486,1.152-2.837,1.152
		s-2.292-0.428-2.822-1.284C38.329,147.889,38.064,146.64,38.064,144.999z"/>
	<path d="M56.365,148.881c-0.619,0.766-1.489,1.147-2.612,1.147s-1.996-0.34-2.617-1.021c-0.622-0.68-0.933-1.671-0.933-2.974
		v-3.066h2.529v2.939c0,0.951,0.153,1.53,0.459,1.738c0.137,0.092,0.306,0.137,0.508,0.137c0.397,0,0.659-0.162,0.786-0.488
		c0.127-0.325,0.19-0.84,0.19-1.543v-13.105h2.617v12.979C57.292,147.03,56.983,148.116,56.365,148.881z"/>
	<path d="M58.992,149.833l2.451-17.188H64.9l2.607,17.188h-2.441l-0.41-3.066h-2.773l-0.371,3.066H58.992z M64.382,144.667
		l-1.152-8.633h-0.039l-1.055,8.633H64.382z"/>
	<path d="M69.304,149.833v-17.188h2.617v6.953h2.344v-6.953h2.617v17.188h-2.617v-7.988h-2.344v7.988H69.304z"/>
	<path d="M82.917,141.757l-0.84-0.039v8.115H79.46v-17.188h4.326c0.898,0,1.569,0.181,2.012,0.542s0.734,0.866,0.874,1.514
		c0.14,0.648,0.21,1.494,0.21,2.539s-0.111,1.841-0.332,2.388s-0.631,0.915-1.23,1.104c0.592,0.104,1.006,0.505,1.24,1.201
		c0.234,0.697,0.352,2.147,0.352,4.351s0.033,3.388,0.098,3.55h-2.617c-0.065-0.13-0.098-2.184-0.098-6.162
		c0-0.762-0.091-1.268-0.273-1.519C83.839,141.902,83.471,141.771,82.917,141.757z M82.087,139.687h1.045
		c0.332,0,0.578-0.074,0.737-0.225c0.16-0.149,0.27-0.406,0.332-0.771c0.062-0.364,0.093-0.921,0.093-1.67v-0.107
		c0-0.931-0.078-1.539-0.234-1.826c-0.156-0.286-0.518-0.43-1.084-0.43h-0.889V139.687z"/>
	<path d="M89.324,149.833v-17.188h5.762v2.256h-3.145v5h2.988v2.207h-2.988v5.469h3.262v2.256L89.324,149.833L89.324,149.833z"/>
	<path d="M96.951,144.999v-1.533h2.48v1.729c0,0.957,0.082,1.63,0.244,2.017c0.163,0.388,0.469,0.581,0.918,0.581
		s0.747-0.159,0.894-0.479c0.146-0.318,0.22-0.84,0.22-1.562s-0.13-1.353-0.391-1.89s-0.674-1.099-1.24-1.685l-1.27-1.309
		c-0.592-0.618-1.053-1.26-1.382-1.924s-0.493-1.432-0.493-2.305c0-1.419,0.273-2.474,0.82-3.164
		c0.547-0.689,1.488-1.035,2.822-1.035s2.238,0.402,2.71,1.206c0.472,0.805,0.708,1.978,0.708,3.521v1.064h-2.412v-1.23
		c0-0.833-0.072-1.431-0.215-1.792s-0.418-0.542-0.825-0.542s-0.7,0.137-0.879,0.41s-0.269,0.684-0.269,1.23
		s0.091,0.983,0.273,1.309s0.511,0.742,0.986,1.25l1.416,1.533c0.709,0.769,1.245,1.547,1.606,2.334
		c0.361,0.788,0.542,1.647,0.542,2.578c0,1.608-0.27,2.797-0.811,3.564c-0.541,0.769-1.486,1.152-2.837,1.152
		s-2.292-0.428-2.822-1.284C97.216,147.889,96.951,146.64,96.951,144.999z"/>
	<path d="M24.548,175.161c-0.762,0-1.38-0.062-1.855-0.186c-0.475-0.123-0.877-0.35-1.206-0.679
		c-0.329-0.328-0.56-0.774-0.693-1.338c-0.133-0.562-0.2-1.29-0.2-2.183v-10.361c0-0.892,0.067-1.619,0.2-2.183
		c0.133-0.562,0.365-1.009,0.693-1.338c0.329-0.328,0.731-0.555,1.206-0.679c0.475-0.123,1.094-0.186,1.855-0.186v1.953
		c-0.58,0-0.951,0.151-1.113,0.454s-0.244,0.949-0.244,1.938v10.439c0,0.99,0.082,1.636,0.244,1.938s0.534,0.454,1.113,0.454
		V175.161z"/>
	<path d="M26.326,168.999v-1.533h2.48v1.729c0,0.957,0.082,1.63,0.244,2.017c0.163,0.388,0.469,0.581,0.918,0.581
		s0.747-0.159,0.894-0.479c0.146-0.318,0.22-0.84,0.22-1.562s-0.13-1.353-0.391-1.89s-0.674-1.099-1.24-1.685l-1.27-1.309
		c-0.592-0.618-1.053-1.26-1.382-1.924s-0.493-1.432-0.493-2.305c0-1.419,0.273-2.474,0.82-3.164
		c0.547-0.689,1.488-1.035,2.822-1.035s2.238,0.402,2.71,1.206c0.472,0.805,0.708,1.978,0.708,3.521v1.064h-2.412v-1.23
		c0-0.833-0.072-1.431-0.215-1.792s-0.418-0.542-0.825-0.542s-0.7,0.137-0.879,0.41s-0.269,0.684-0.269,1.23
		s0.091,0.983,0.273,1.309c0.182,0.326,0.511,0.742,0.986,1.25l1.416,1.533c0.709,0.769,1.245,1.547,1.606,2.334
		c0.361,0.788,0.542,1.647,0.542,2.578c0,1.608-0.27,2.797-0.811,3.564c-0.541,0.769-1.486,1.152-2.837,1.152
		s-2.292-0.428-2.822-1.284C26.591,171.889,26.326,170.64,26.326,168.999z"/>
	<path d="M35.505,173.833v-17.188h3.945c1.334,0,2.248,0.405,2.739,1.216s0.75,2.021,0.776,3.628v0.361c0,1.706-0.243,3-0.728,3.882
		c-0.485,0.883-1.385,1.323-2.7,1.323h-1.416v6.777h-2.616V173.833z M38.123,164.897h0.898c0.553,0,0.913-0.213,1.079-0.64
		c0.166-0.426,0.249-1.238,0.249-2.437v-0.332c-0.006-1.016-0.096-1.741-0.269-2.178c-0.172-0.436-0.519-0.654-1.04-0.654h-0.918
		v6.241H38.123z"/>
	<path d="M51.208,172.788c-0.599,0.827-1.558,1.24-2.876,1.24s-2.285-0.415-2.9-1.245s-0.923-2.081-0.923-3.755v-7.861
		c0-3.15,1.286-4.727,3.857-4.727c1.328,0,2.284,0.4,2.866,1.201s0.874,1.977,0.874,3.525v7.861
		C52.107,170.708,51.808,171.962,51.208,172.788z M47.375,171.167c0.153,0.397,0.467,0.596,0.942,0.596s0.788-0.203,0.938-0.61
		c0.15-0.406,0.225-1.104,0.225-2.095v-8.008c0-0.813-0.077-1.407-0.229-1.782c-0.153-0.374-0.453-0.562-0.898-0.562
		s-0.758,0.188-0.938,0.562c-0.179,0.375-0.269,0.966-0.269,1.772v8.018C47.146,170.067,47.223,170.771,47.375,171.167z"/>
	<path d="M57.937,165.757l-0.84-0.039v8.115H54.48v-17.188h4.326c0.898,0,1.569,0.181,2.012,0.542s0.734,0.866,0.874,1.514
		c0.14,0.648,0.21,1.494,0.21,2.539s-0.111,1.841-0.332,2.388s-0.631,0.915-1.23,1.104c0.592,0.104,1.006,0.505,1.24,1.201
		c0.234,0.697,0.352,2.147,0.352,4.351s0.033,3.388,0.098,3.55h-2.617c-0.065-0.13-0.098-2.184-0.098-6.162
		c0-0.762-0.091-1.268-0.273-1.519C58.858,165.902,58.49,165.771,57.937,165.757z M57.107,163.687h1.045
		c0.332,0,0.578-0.074,0.737-0.225c0.16-0.149,0.27-0.406,0.332-0.771c0.062-0.364,0.093-0.921,0.093-1.67v-0.107
		c0-0.931-0.078-1.539-0.234-1.826c-0.156-0.286-0.518-0.43-1.084-0.43h-0.889C57.107,158.658,57.107,163.687,57.107,163.687z"/>
	<path d="M65.222,173.833v-14.922H63.21v-2.266h6.553v2.266H67.83v14.922H65.222z"/>
	<path d="M70.789,167.378v-1.709h4.668v1.709H70.789z"/>
	<path d="M20.623,197.833v-17.188h5.762v2.256H23.24v5h2.988v2.207H23.24v5.469h3.262v2.256L20.623,197.833L20.623,197.833z"/>
	<path d="M33.337,197.833l-1.748-5.283l-1.416,5.283h-2.529l2.646-9.219l-2.637-7.969h2.207l1.709,5.107l1.377-5.107h2.451
		l-2.598,8.799l2.803,8.389L33.337,197.833L33.337,197.833z"/>
	<path d="M37.175,197.833v-17.188h3.945c1.334,0,2.248,0.405,2.739,1.216s0.75,2.021,0.776,3.628v0.361c0,1.706-0.243,3-0.728,3.882
		c-0.485,0.883-1.385,1.323-2.7,1.323h-1.416v6.777h-2.616V197.833z M39.792,188.897h0.898c0.553,0,0.913-0.213,1.079-0.64
		c0.166-0.426,0.249-1.238,0.249-2.437v-0.332c-0.006-1.016-0.096-1.741-0.269-2.178c-0.172-0.436-0.519-0.654-1.04-0.654h-0.918
		v6.241H39.792z"/>
	<path d="M49.851,189.757l-0.84-0.039v8.115h-2.617v-17.188h4.326c0.898,0,1.569,0.181,2.012,0.542s0.734,0.866,0.874,1.514
		c0.14,0.648,0.21,1.494,0.21,2.539s-0.111,1.841-0.332,2.388s-0.631,0.915-1.23,1.104c0.592,0.104,1.006,0.505,1.24,1.201
		c0.234,0.697,0.352,2.147,0.352,4.351s0.033,3.388,0.098,3.55h-2.617c-0.065-0.13-0.098-2.184-0.098-6.162
		c0-0.762-0.091-1.268-0.273-1.519C50.772,189.902,50.404,189.771,49.851,189.757z M49.021,187.687h1.045
		c0.332,0,0.578-0.074,0.737-0.225c0.16-0.149,0.27-0.406,0.332-0.771c0.062-0.364,0.093-0.921,0.093-1.67v-0.107
		c0-0.931-0.078-1.539-0.234-1.826c-0.156-0.286-0.518-0.43-1.084-0.43h-0.889C49.021,182.658,49.021,187.687,49.021,187.687z"/>
	<path d="M56.257,197.833v-17.188h5.762v2.256h-3.145v5h2.988v2.207h-2.988v5.469h3.262v2.256L56.257,197.833L56.257,197.833z"/>
	<path d="M63.884,192.999v-1.533h2.48v1.729c0,0.957,0.082,1.63,0.244,2.017c0.163,0.388,0.469,0.581,0.918,0.581
		s0.747-0.159,0.894-0.479c0.146-0.318,0.22-0.84,0.22-1.562s-0.13-1.353-0.391-1.89s-0.674-1.099-1.24-1.685l-1.27-1.309
		c-0.592-0.618-1.053-1.26-1.382-1.924s-0.493-1.432-0.493-2.305c0-1.419,0.273-2.474,0.82-3.164
		c0.547-0.689,1.488-1.035,2.822-1.035s2.238,0.402,2.71,1.206c0.472,0.805,0.708,1.978,0.708,3.521v1.064h-2.412v-1.23
		c0-0.833-0.072-1.431-0.215-1.792s-0.418-0.542-0.825-0.542s-0.7,0.137-0.879,0.41s-0.269,0.684-0.269,1.23
		s0.091,0.983,0.273,1.309s0.511,0.742,0.986,1.25l1.416,1.533c0.709,0.769,1.245,1.547,1.606,2.334
		c0.361,0.788,0.542,1.647,0.542,2.578c0,1.608-0.27,2.797-0.811,3.564c-0.541,0.769-1.486,1.152-2.837,1.152
		s-2.292-0.428-2.822-1.284C64.149,195.889,63.884,194.64,63.884,192.999z"/>
	<path d="M72.722,192.999v-1.533h2.48v1.729c0,0.957,0.082,1.63,0.244,2.017c0.163,0.388,0.469,0.581,0.918,0.581
		s0.747-0.159,0.894-0.479c0.146-0.318,0.22-0.84,0.22-1.562s-0.13-1.353-0.391-1.89s-0.674-1.099-1.24-1.685l-1.27-1.309
		c-0.592-0.618-1.053-1.26-1.382-1.924s-0.493-1.432-0.493-2.305c0-1.419,0.273-2.474,0.82-3.164
		c0.547-0.689,1.488-1.035,2.822-1.035s2.238,0.402,2.71,1.206c0.472,0.805,0.708,1.978,0.708,3.521v1.064H77.35v-1.23
		c0-0.833-0.072-1.431-0.215-1.792s-0.418-0.542-0.825-0.542s-0.7,0.137-0.879,0.41s-0.269,0.684-0.269,1.23
		s0.091,0.983,0.273,1.309s0.511,0.742,0.986,1.25l1.416,1.533c0.709,0.769,1.245,1.547,1.606,2.334
		c0.361,0.788,0.542,1.647,0.542,2.578c0,1.608-0.27,2.797-0.811,3.564c-0.541,0.769-1.486,1.152-2.837,1.152
		s-2.292-0.428-2.822-1.284C72.987,195.889,72.722,194.64,72.722,192.999z"/>
	<path d="M81.453,199.161v-1.953c0.58,0,0.951-0.151,1.113-0.454s0.244-0.948,0.244-1.938v-10.439c0-0.989-0.082-1.636-0.244-1.938
		s-0.534-0.454-1.113-0.454v-1.953c0.762,0,1.38,0.062,1.855,0.186c0.475,0.124,0.875,0.351,1.201,0.679
		c0.326,0.329,0.555,0.775,0.688,1.338s0.2,1.291,0.2,2.183v10.361c0,0.893-0.067,1.62-0.2,2.183
		c-0.133,0.563-0.363,1.01-0.688,1.338c-0.326,0.329-0.726,0.556-1.201,0.679C82.833,199.1,82.214,199.161,81.453,199.161z"/>
</g>
</svg>
