<?xml version="1.0" encoding="utf-8"?>
<!-- Generator: Adobe Illustrator 17.0.0, SVG Export Plug-In . SVG Version: 6.00 Build 0)  -->
<!DOCTYPE svg PUBLIC "-//W3C//DTD SVG 1.1//EN" "http://www.w3.org/Graphics/SVG/1.1/DTD/svg11.dtd">
<svg version="1.1" id="Layer_1" xmlns="http://www.w3.org/2000/svg" xmlns:xlink="http://www.w3.org/1999/xlink" x="0px" y="0px"
	 width="256px" height="256px" viewBox="0 0 256 256" enable-background="new 0 0 256 256" xml:space="preserve">
	<g>
		<path fill="#FFFFFF" d="M192,10.3c-17.1,0-32.4,8-42.3,20.6h-0.3v0.3c-7.1,9.1-11.4,20.6-11.4,33c0,29.7,24.2,53.9,53.9,53.9
		s53.9-24.2,53.9-53.9S221.7,10.3,192,10.3z"/>
		<path d="M192,10.3c-17.1,0-32.4,8-42.3,20.6h-0.3v0.3c-7.1,9.1-11.4,20.6-11.4,33c0,29.7,24.2,53.9,53.9,53.9s53.9-24.2,53.9-53.9
		S221.7,10.3,192,10.3z M208.6,100.9l-23.1-3L183.7,78l17.6-10.7L217,82.4L208.6,100.9z M171.2,103.3L151.9,89l-2.1-14.7l11.8-7.4
		L181.5,78l1.9,20.2L171.2,103.3z M149.1,72.2L142,57.4l9.3-15.3l9.7,2l-0.2,20.8L149.1,72.2z M188.3,19l21.3,2.9l7.3,13.6
		l-16.1,7.9l-16.5-11.5L188.3,19z M231.4,74.4l-12.6,6.7l-16.9-16.2l0.2-19.7l16-7.9L232.3,50L231.4,74.4z M233.5,74.9l1-24.5
		l7.1-0.9c1.4,4.7,2.1,9.6,2.1,14.7c0,4.6-0.6,9-1.7,13.2L233.5,74.9z M240.9,47.4l-7.1,0.9l-14.6-13.1L212,21.9l6.1-2.4
		C228.7,25.7,236.9,35.6,240.9,47.4z M178.8,14.2l7.4,4.1L182,32.1L162.3,42l-10.5-2.1l-0.2-8.1C158.5,23.4,167.9,17,178.8,14.2z
		 M149.7,40.5l-8.5,14.1c1.4-7.3,4.3-14.1,8.4-20L149.7,40.5z M140.5,59.2l7.1,14.9l2.1,14.8l-2.9,0.4c-4.1-7.4-6.5-16-6.5-25.1
		C140.3,62.5,140.4,60.8,140.5,59.2z M172.4,112.1l-0.2-6.8l12.5-5.3l23.9,3.1l4.4,8.4c-6.4,2.9-13.5,4.5-21,4.5
		C185.1,115.9,178.5,114.5,172.4,112.1z"/>
	</g>
	<g>
		<path fill="#FCFF00" stroke="#000000" stroke-miterlimit="10" d="M181.5,122.5v-7.2c0-0.7,0.8-1.9,0-1.9h-7.7c-0.5,0-1,0.6-1.2,1
		c-1.1,2.4-2.9,4.5-4.2,5.6c0.4-2.5,0.5-4.1,0.5-4.1c1.5-0.4,0.2-1.6,0.2-1.6H89c0,0-1.3,1.2,0.2,1.6c0,0,0,1.6,0.5,4.1
		c-1.3-1.2-3.1-3.3-4.2-5.8c-0.2-0.5-0.7-1-1.2-1h-7.7c-0.7,0-3.1,1.1-3.1,1.9v7.2c0,0.1,0.7,0.5,0.7,0.6
		c0.3,18.7,19,27.4,20.5,28.2s3.4,2.8,3.4,2.8c0,0.7-1.9,3.3,0.2,4.1c2.1,0.9,2.3-2,2.1-3.3c-0.2-1.1-0.9-3.4-3-4.9l4.4-5.7
		c4.7,4.7,11.3,8.6,20.3,10.8c0,0.8-0.3,2.2-0.3,2.2s-2.4,0.3-2.4,2.3s2.6,2.9,4.6,2.9c0,1.3-2.1,11.4,0.8,16.4
		c0.2,0.4-0.3,1.6-1.6,2.3c-1.3,0.7-2.7,3.2,0,4.6c0.1,0.1,0,1.1,0,1.1s-4.7,0.9-6.1,9.5s-4.5,15.1-6,15.9c-1.6,0-3.1,0.2-3.1,0.2
		s-0.3,2.6-3.3,3.6c0,2.3,0,26.3,0,26.3h-1.8c0,0-3.3-1-3.3,6.4c0,1.9,0.7,2.6,1.7,3.6c1.7,0,54,0,55.8,0c1.1-1,1.7-1.7,1.7-3.6
		c0-7.4-3.3-6.4-3.3-6.4h-3.9c0,0,0-24,0-26.3c-2-1-2.3-3.6-2.3-3.6s-0.8-0.2-2.4-0.2c-1.5-0.8-4.4-7.3-5.8-15.9
		c-1.4-8.6-6-9.5-6-9.5s-0.1-1,0-1.1c2.7-1.4,1.3-3.9,0-4.6c-1.3-0.7-1.8-1.9-1.6-2.3c2.8-5,0.8-15.1,0.8-16.4c2,0,4.6-1,4.6-2.9
		c0-2-2.4-2.3-2.4-2.3s-0.3-1.4-0.3-2.2c9-2.1,15.5-6.1,20.3-10.8l4.4,5.7c-2.1,1.5-2.8,3.7-3,4.9c-0.2,1.3,0,4.1,2.1,3.3
		c2.1-0.9,0.1-3.5,0.1-4.1c0,0,1.6-2.1,3.2-2.8c1.5-0.8,18.3-8.7,18.7-27.4C181.7,123.9,181.5,122.6,181.5,122.5z M95.1,149.2
		c-4.1-2.4-17.6-12.7-17.6-27.6c0-3.2,0-4.1,0-4.1h6c2.3,4,6.2,6.6,6.4,6.7c0.2,0.1,0.4,0,0.6,0c1.3,5.4,3.9,12.6,9.8,18.9
		L95.1,149.2z M177.5,121.6c0,14.9-12,25.1-16.1,27.6l-4.3-6.1c5.8-6.4,8.9-13.7,10.3-19c0.2,0,0.5,0.3,0.7,0.2
		c0.2-0.1,4.2-2.7,6.5-6.7h2.9C177.5,117.5,177.5,118.4,177.5,121.6z"/>
		<path fill="#FFFFFF" d="M152.3,116h-30.7c0,0,0.3,8.1,6.5,10.5c5.8,2.2,14.4,2,18.7-0.2C151.4,123.9,152.3,116,152.3,116z"/>
		<rect x="127" y="156" fill="#FFFFFF" width="4" height="2"/>
		<rect x="127" y="159" fill="#FFFFFF" width="6" height="1"/>
		<path fill="#FFFFFF" d="M131,174.8c0,0-0.4,1.7-2,1.7c-1.6,0-2-1.7-2-1.7V163h4V174.8z"/>
		<rect x="127" y="184" fill="#FFFFFF" width="4" height="1"/>
		<path fill="#FFFFFF" d="M136.2,211.3c-2.5,0-8,0-10.7,0c3.3,0,1.3-20.2,2.1-21.5c0.9-1.3,5.3-1.4,6.2,0
		C134.7,191.2,138.7,211.3,136.2,211.3z"/>
		<path fill="#FFFFFF" d="M125,212.4v4.6c0,0,11.8,0,13.6,0c1.9,0,1.5-4-1.3-4S125,212.4,125,212.4z"/>
		<rect x="140" y="217" fill="#ABD100" width="7" height="25"/>
		<rect x="107" y="217" fill="#FF9F00" width="4" height="25"/>
		<rect x="127" y="179" fill="#FFFFFF" width="4" height="1"/>
		<path fill="#ABD100" d="M132.3,163.7c0,0,0.1,10,0.1,11.1c0,0.9-0.5,2.5-1.1,3.3c-0.6,0.7,0.4,1.4,0.9,1c0.5-0.5,1.2-2.1,1.1-4.1
		C133.3,171.2,132.3,163.7,132.3,163.7z"/>
		<path fill="#ABD100" d="M133.1,182.9c0,0,0.7,1.3-1.1,1.6c0.2,0.2-0.2,0.8,1.1,0.7C134.3,185.2,135.3,183.1,133.1,182.9z"/>
		<path fill="#ABD100" d="M134.6,159.1c0,0,0.7,1.9-1.7,2.1c2.6,0,4.1-0.8,3.9-1.9C136.6,158.3,135.2,159.2,134.6,159.1z"/>
		<path fill="#ABD100" d="M133.1,148.4c0,0,34-7.8,33.8-31.9c0.2,0.2,1,0,1,0s-0.5,26.3-30.5,37.7c0-0.7-6.4-1.5-6.4-1.5
		S129.5,149.3,133.1,148.4z"/>
		<g>
			<path fill="#ABD100" d="M160.9,149.3c-0.1,0-0.2-0.1-0.2-0.1l-3.7-5c-0.1-0.1-0.1-0.3,0.1-0.5c0.1-0.1,0.4-0.1,0.5,0.1l3.7,5
			c0.1,0.1,0.1,0.3-0.1,0.5C161.1,149.3,161,149.3,160.9,149.3z"/>
		</g>
		<g>
			<path fill="#FF9F00" d="M96.8,149.8c-0.1,0-0.2,0-0.2-0.1c-0.1-0.1-0.2-0.3,0-0.5l4.1-5.4c0.1-0.1,0.3-0.2,0.5,0
			c0.1,0.1,0.2,0.3,0,0.5l-4.1,5.4C97,149.8,96.9,149.8,96.8,149.8z"/>
		</g>
		<path fill="#FF9F00" d="M125.7,163.7c0,0-0.1,10-0.1,11.1c0,0.9,0.5,2.5,1.1,3.3c0.6,0.7-0.4,1.4-0.9,1c-0.5-0.5-1.2-2.1-1.1-4.1
		C124.7,171.2,125.7,163.7,125.7,163.7z"/>
		<path fill="#FF9F00" d="M124.9,182.9c0,0-0.7,1.3,1.1,1.6c-0.2,0.2,0.2,0.8-1.1,0.7C123.7,185.2,122.7,183.1,124.9,182.9z"/>
		<path fill="#FF9F00" d="M123.4,159.1c0,0-0.7,1.9,1.7,2.1c-2.6,0-4.1-0.8-3.9-1.9C121.4,158.3,122.7,159.2,123.4,159.1z"/>
		<path fill="#FF9F00" d="M124.9,148.4c0,0-34-7.8-33.8-31.9c-0.2,0.2-1,0-1,0s0.5,26.3,30.5,37.7c0-0.7,6.4-1.5,6.4-1.5
		S128.5,149.3,124.9,148.4z"/>
		<line fill="none" stroke="#957E78" stroke-miterlimit="10" x1="122" y1="156.5" x2="136" y2="156.5"/>
		<line fill="none" stroke="#957E78" stroke-miterlimit="10" x1="123" y1="162.5" x2="133" y2="162.5"/>
		<line fill="none" stroke="#957E78" stroke-miterlimit="10" x1="123" y1="187.5" x2="134" y2="187.5"/>
		<line fill="none" stroke="#957E78" stroke-miterlimit="10" x1="110" y1="211.5" x2="147" y2="211.5"/>
		<line fill="none" stroke="#957E78" stroke-miterlimit="10" x1="104" y1="217.5" x2="151" y2="217.5"/>
		<line fill="none" stroke="#957E78" stroke-miterlimit="10" x1="104" y1="242.5" x2="151" y2="242.5"/>
		<line fill="none" stroke="#957E78" stroke-miterlimit="10" x1="121" y1="158.5" x2="137" y2="158.5"/>
	</g>
	<g>
		<path fill="#F0F0F0" d="M191.6,106.3c22.6,0,41-18.3,41-41c0-22.6-18.3-41-41-41c-22.6,0-41,18.3-41,41S169,106.3,191.6,106.3"/>
		<path fill="#0052B4" d="M216.5,32.8c-6.9-5.3-15.6-8.5-24.9-8.5s-18,3.2-24.9,8.5l24.9,24.9L216.5,32.8z"/>
		<path fill="#0052B4" d="M159.1,40.4c-5.3,6.9-8.5,15.6-8.5,24.9s3.2,18,8.5,24.9L184,65.3L159.1,40.4z"/>
		<path fill="#0052B4" d="M166.7,97.8c6.9,5.3,15.6,8.5,24.9,8.5s18-3.2,24.9-8.5l-24.9-24.9L166.7,97.8z"/>
		<path fill="#0052B4" d="M224.1,90.3c5.3-6.9,8.5-15.6,8.5-24.9s-3.2-18-8.5-24.9l-24.9,24.9L224.1,90.3z"/>
	</g>
	<g>
		<ellipse fill="none" stroke="#000000" stroke-miterlimit="10" cx="191.6" cy="65.2" rx="40.8" ry="40.6"/>
	</g>
	<g>
		<g>
			<g>
				<path fill="#FFFF00" d="M17.29,208.354c-2.819,0-4.847-0.967-6.029-2.873c-1.054-1.699-1.566-4.022-1.566-7.1V194.3h5.326
				l-1.777-1.831c-1.105-1.154-1.977-2.37-2.595-3.619c-0.654-1.322-0.986-2.853-0.986-4.549c0-2.765,0.558-4.812,1.706-6.262
				c1.216-1.534,3.21-2.312,5.93-2.312c2.807,0,4.778,0.933,5.858,2.771c0.941,1.604,1.399,3.793,1.399,6.69v3.293H19.87
				l1.047,1.134c1.298,1.406,2.296,2.86,2.967,4.324c0.697,1.518,1.05,3.189,1.05,4.969c0,3.054-0.536,5.3-1.638,6.867
				C22.092,207.487,20.071,208.354,17.29,208.354z M12.695,197.3v1.082c0,2.468,0.375,4.325,1.116,5.52
				c0.223,0.359,0.901,1.453,3.479,1.453c1.772,0,2.934-0.427,3.552-1.305c0.724-1.03,1.092-2.76,1.092-5.141
				c0-1.345-0.261-2.596-0.776-3.719c-0.54-1.175-1.362-2.366-2.445-3.539l-2.385-2.582c-0.886-0.946-1.499-1.73-1.868-2.391
				c-0.438-0.784-0.652-1.745-0.652-2.938c0-1.23,0.228-2.177,0.698-2.894c0.577-0.884,1.549-1.37,2.735-1.37
				c1.301,0,2.316,0.678,2.785,1.86c0.319,0.806,0.467,1.94,0.467,3.571v0.573h1.063v-0.293c0-2.316-0.332-4.057-0.986-5.172
				c-0.188-0.318-0.758-1.29-3.271-1.29c-1.757,0-2.96,0.396-3.578,1.175c-0.702,0.886-1.058,2.365-1.058,4.398
				c0,1.23,0.227,2.312,0.675,3.217c0.483,0.977,1.179,1.941,2.066,2.869l2.132,2.196c1.062,1.1,1.856,2.185,2.362,3.229
				c0.537,1.107,0.809,2.398,0.809,3.838c0,1.469-0.161,2.504-0.507,3.258c-0.288,0.627-1.044,1.68-2.869,1.68
				c-1.354,0-2.422-0.691-2.929-1.896c-0.36-0.859-0.528-2.123-0.528-3.979v-1.41H12.695z M16.874,196.533v2.178
				c0,1.91,0.206,2.606,0.294,2.816c0.003,0.07,0.24,0.062,0.337,0.048c0.072-0.206,0.202-0.742,0.202-1.926
				c0-0.982-0.171-1.834-0.508-2.529C17.105,196.929,16.997,196.732,16.874,196.533z M17.251,182.483
				c-0.208,0-0.26,0.026-0.261,0.026c-0.01,0.034-0.183,0.343-0.183,1.231c0,0.818,0.147,1.253,0.27,1.473
				c0.08,0.143,0.208,0.342,0.415,0.613v-0.918C17.493,183.368,17.334,182.719,17.251,182.483z"/>
			</g>
			<g>
				<path fill="#FFFF00" d="M32.679,208.354c-2.631,0-4.65-0.927-6.001-2.756c-1.248-1.687-1.881-4.065-1.881-7.068v-12.617
				c0-4.918,1.428-8.092,4.244-9.432c1.035-0.489,2.269-0.737,3.671-0.737c2.839,0,7.603,1.195,7.603,9.198v5.481h-7.261v-5.202
				c0-1.699-0.172-2.39-0.274-2.65c0.056,0.007,0.008-0.011-0.084-0.011c-0.055,0-0.088,0.005-0.104,0.009
				c-0.002,0.009-0.02,0.038-0.042,0.091c-0.116,0.277-0.311,0.977-0.311,2.546v13.521c0,1.775,0.188,2.498,0.299,2.771
				c0.013,0.032,0.025,0.056,0.034,0.07c0.012-0.001,0.038,0.001,0.075,0.001c0.033,0,0.057-0.002,0.074-0.004
				c0.003-0.013,0.017-0.038,0.032-0.077c0.113-0.279,0.302-1.018,0.302-2.811v-5.646h7.327v5.596c0,3.156-0.586,5.48-1.793,7.104
				C37.296,207.473,35.308,208.354,32.679,208.354z M32.712,178.744c-0.955,0-1.758,0.15-2.385,0.447
				c-1.678,0.799-2.53,3.061-2.53,6.722v12.617c0,2.347,0.435,4.125,1.293,5.284c0.766,1.036,1.94,1.54,3.59,1.54
				c1.651,0,2.796-0.461,3.5-1.41c0.797-1.073,1.201-2.861,1.201-5.315v-2.596h-1.327v2.646c0,1.803-0.165,3.053-0.52,3.933
				c-0.502,1.245-1.555,1.959-2.888,1.959c-1.329,0-2.381-0.705-2.885-1.934c-0.357-0.872-0.523-2.114-0.523-3.909v-13.521
				c0-1.619,0.178-2.831,0.544-3.706c0.517-1.232,1.579-1.939,2.913-1.939c1.35,0,2.398,0.697,2.876,1.913
				c0.329,0.836,0.482,2.027,0.482,3.748v2.202h1.261v-2.481C37.315,179.448,34.855,178.744,32.712,178.744z"/>
			</g>
			<g>
				<path fill="#FFFF00" d="M56.733,208.025h-7.409v-13.456h-0.948v13.456h-7.409v-31.952h7.409v11.712h0.948v-11.712h7.409V208.025z
				 M52.324,205.025h1.409v-25.952h-1.409v11.712h-6.948v-11.712h-1.409v25.952h1.409v-13.456h6.948
				C52.324,191.569,52.324,205.025,52.324,205.025z"/>
			</g>
			<g>
				<path fill="#FFFF00" d="M65.654,208.354c-2.712,0-4.761-0.91-6.091-2.705c-1.245-1.679-1.85-4.039-1.85-7.218v-13.242
				c0-8.232,5.011-9.462,7.998-9.462c2.734,0,4.767,0.889,6.042,2.642c1.184,1.626,1.759,3.857,1.759,6.82v13.242
				c0,3.183-0.588,5.542-1.799,7.213C70.411,207.442,68.373,208.354,65.654,208.354z M65.711,178.728
				c-2.327,0-4.998,0.734-4.998,6.462v13.242c0,2.477,0.424,4.305,1.26,5.432c0.743,1.004,1.947,1.491,3.681,1.491
				c1.726,0,2.914-0.48,3.629-1.47c0.815-1.125,1.229-2.96,1.229-5.453V185.19c0-2.273-0.399-3.975-1.186-5.056
				C68.638,179.188,67.456,178.728,65.711,178.728z M65.629,204.538c-1.418,0-2.507-0.717-2.987-1.966
				c-0.332-0.861-0.487-2.161-0.487-4.091v-13.506c0-1.602,0.196-2.79,0.6-3.634c0.554-1.159,1.596-1.798,2.932-1.798
				c1.355,0,2.413,0.685,2.901,1.877c0.335,0.821,0.499,1.989,0.499,3.571v13.489c0,1.889-0.149,3.175-0.471,4.047
				C68.145,203.806,67.057,204.538,65.629,204.538z M65.687,182.544c-0.138,0-0.188,0.023-0.189,0.024
				c-0.129,0.261-0.343,0.873-0.343,2.407v13.506c0,2.049,0.2,2.79,0.286,3.014c-0.032,0.037,0.376,0.021,0.378,0.021
				c0.088-0.315,0.268-1.092,0.268-3.035v-13.489c0-1.533-0.172-2.184-0.275-2.436C65.853,182.567,65.802,182.544,65.687,182.544z"
				/>
			</g>
			<g>
				<path fill="#FFFF00" d="M83.381,208.025h-7.392V182.89H72.6v-6.816h14.038v6.816h-3.257V208.025z M78.989,205.025h1.392V179.89
				h3.257v-0.816H75.6v0.816h3.389V205.025z"/>
			</g>
			<g>
				<path fill="#FFFF00" d="M94.946,208.025h-7.392V182.89h-3.389v-6.816h14.038v6.816h-3.257V208.025z M90.554,205.025h1.392V179.89
				h3.257v-0.816h-8.038v0.816h3.389V205.025z"/>
			</g>
			<g>
				<path fill="#FFFF00" d="M105.211,208.025h-7.409v-31.952h7.409V208.025z M100.803,205.025h1.409v-25.952h-1.409V205.025z"/>
			</g>
			<g>
				<path fill="#FFFF00" d="M113.737,208.354c-2.819,0-4.847-0.967-6.029-2.873c-1.054-1.699-1.566-4.022-1.566-7.1V194.3h5.326
				l-1.777-1.831c-1.105-1.154-1.977-2.37-2.595-3.619c-0.654-1.322-0.986-2.853-0.986-4.549c0-2.765,0.558-4.812,1.706-6.262
				c1.216-1.534,3.21-2.312,5.93-2.312c2.807,0,4.778,0.933,5.858,2.771c0.941,1.604,1.399,3.793,1.399,6.69v3.293h-4.686
				l1.047,1.134c1.298,1.406,2.296,2.86,2.967,4.324c0.697,1.518,1.05,3.189,1.05,4.969c0,3.054-0.536,5.3-1.638,6.867
				C118.539,207.487,116.518,208.354,113.737,208.354z M109.143,197.3v1.082c0,2.468,0.375,4.325,1.116,5.52
				c0.223,0.359,0.901,1.453,3.479,1.453c1.772,0,2.934-0.427,3.552-1.305c0.724-1.03,1.092-2.76,1.092-5.141
				c0-1.345-0.261-2.596-0.776-3.719c-0.54-1.175-1.362-2.366-2.445-3.539l-2.385-2.582c-0.886-0.946-1.499-1.73-1.868-2.391
				c-0.438-0.784-0.652-1.745-0.652-2.938c0-1.23,0.228-2.177,0.698-2.894c0.577-0.884,1.549-1.37,2.735-1.37
				c1.301,0,2.316,0.678,2.785,1.86c0.319,0.806,0.467,1.94,0.467,3.571v0.573h1.063v-0.293c0-2.316-0.332-4.057-0.986-5.172
				c-0.188-0.318-0.758-1.29-3.271-1.29c-1.757,0-2.96,0.396-3.578,1.175c-0.702,0.886-1.058,2.365-1.058,4.398
				c0,1.23,0.227,2.312,0.675,3.217c0.483,0.977,1.179,1.941,2.066,2.869l2.132,2.196c1.062,1.1,1.856,2.185,2.362,3.229
				c0.537,1.107,0.809,2.398,0.809,3.838c0,1.469-0.161,2.504-0.507,3.258c-0.288,0.627-1.044,1.68-2.869,1.68
				c-1.354,0-2.422-0.691-2.929-1.896c-0.36-0.859-0.528-2.123-0.528-3.979v-1.41H109.143z M113.321,196.533v2.178
				c0,1.91,0.206,2.606,0.294,2.816c0.002,0.07,0.239,0.062,0.337,0.048c0.072-0.206,0.202-0.742,0.202-1.926
				c0-0.982-0.171-1.834-0.508-2.529C113.553,196.929,113.444,196.732,113.321,196.533z M113.699,182.483
				c-0.208,0-0.26,0.026-0.261,0.026c-0.01,0.034-0.183,0.343-0.183,1.231c0,0.818,0.147,1.253,0.27,1.473
				c0.08,0.143,0.208,0.342,0.415,0.613v-0.918C113.94,183.368,113.782,182.719,113.699,182.483z"/>
			</g>
			<g>
				<path fill="#FFFF00" d="M137.372,208.025h-7.409v-13.456h-0.948v13.456h-7.409v-31.952h7.409v11.712h0.948v-11.712h7.409V208.025
				z M132.963,205.025h1.409v-25.952h-1.409v11.712h-6.948v-11.712h-1.409v25.952h1.409v-13.456h6.948V205.025z"/>
			</g>
			<g>
				<path fill="#FFFF00" d="M166.719,208.025h-6.932v-5.363l-0.992,5.231h-5.979l-1.166-5.901v6.033h-6.898v-31.952h8.214l2.83,14.56
				l2.661-14.56h8.262L166.719,208.025L166.719,208.025z M162.787,205.025h0.932v-25.952h-2.76l-3.642,19.924l-2.948,0.017
				l-3.876-19.94h-2.741v25.952h0.898v-9.292l-0.164-9.878l2.972-0.315l3.823,19.354h1.029l3.668-19.342l2.974,0.305l-0.165,9.902
				L162.787,205.025L162.787,205.025z"/>
			</g>
			<g>
				<path fill="#FFFF00" d="M180.98,208.025h-12.902v-31.952h12.705v6.8h-5.297v5.422h5.034v6.718h-5.034v6.213h5.494L180.98,208.025
				L180.98,208.025z M171.078,205.025h6.902v-0.8h-5.494v-12.213h5.034v-0.718h-5.034v-11.422h5.297v-0.8h-6.705L171.078,205.025
				L171.078,205.025z"/>
			</g>
			<g>
				<path fill="#FFFF00" d="M189.074,208.025h-7.408v-31.952h7.408V208.025z M184.666,205.025h1.408v-25.952h-1.408V205.025z"/>
			</g>
			<g>
				<path fill="#FFFF00" d="M197.601,208.354c-2.818,0-4.847-0.967-6.029-2.873c-1.054-1.701-1.565-4.023-1.565-7.1V194.3h5.326
				l-1.776-1.831c-1.106-1.155-1.978-2.37-2.596-3.619c-0.654-1.322-0.986-2.853-0.986-4.549c0-2.765,0.559-4.813,1.706-6.262
				c1.216-1.534,3.211-2.312,5.93-2.312c2.808,0,4.778,0.933,5.858,2.772c0.94,1.604,1.398,3.792,1.398,6.689v3.293h-4.686
				l1.047,1.134c1.299,1.406,2.297,2.86,2.968,4.324c0.696,1.52,1.05,3.19,1.05,4.969c0,3.054-0.536,5.3-1.639,6.867
				C202.402,207.487,200.381,208.354,197.601,208.354z M193.006,197.3v1.082c0,2.467,0.375,4.324,1.116,5.52
				c0.223,0.359,0.9,1.453,3.479,1.453c1.772,0,2.935-0.427,3.553-1.305c0.725-1.03,1.092-2.76,1.092-5.141
				c0-1.344-0.262-2.595-0.776-3.719c-0.539-1.175-1.362-2.366-2.445-3.539l-2.385-2.582c-0.887-0.948-1.5-1.732-1.868-2.391
				c-0.439-0.785-0.652-1.746-0.652-2.938c0-1.229,0.229-2.176,0.698-2.894c0.576-0.883,1.548-1.37,2.735-1.37
				c1.301,0,2.315,0.678,2.784,1.86c0.319,0.807,0.468,1.941,0.468,3.571v0.573h1.062v-0.293c0-2.316-0.332-4.057-0.986-5.172
				c-0.188-0.318-0.757-1.29-3.271-1.29c-1.757,0-2.961,0.396-3.578,1.175c-0.702,0.886-1.058,2.365-1.058,4.398
				c0,1.23,0.227,2.313,0.675,3.218c0.482,0.975,1.178,1.94,2.066,2.868l2.132,2.196c1.062,1.1,1.856,2.185,2.362,3.229
				c0.537,1.107,0.809,2.398,0.809,3.838c0,1.468-0.161,2.503-0.507,3.257c-0.289,0.629-1.045,1.681-2.869,1.681
				c-1.354,0-2.422-0.691-2.929-1.896c-0.36-0.857-0.528-2.122-0.528-3.979v-1.41H193.006z M197.185,196.533v2.178
				c0,1.911,0.205,2.605,0.294,2.815c0.002,0.071,0.241,0.063,0.337,0.049c0.072-0.206,0.202-0.742,0.202-1.926
				c0-0.982-0.171-1.834-0.508-2.529C197.417,196.929,197.309,196.732,197.185,196.533z M197.562,182.483
				c-0.207,0-0.26,0.026-0.26,0.026c-0.01,0.034-0.184,0.344-0.184,1.231c0,0.817,0.147,1.253,0.271,1.474
				c0.079,0.142,0.208,0.341,0.415,0.612v-0.918C197.804,183.369,197.646,182.719,197.562,182.483z"/>
			</g>
			<g>
				<path fill="#FFFF00" d="M214.342,208.025h-7.393V182.89h-3.389v-6.816h14.038v6.816h-3.257v25.135H214.342z M209.949,205.025
				h1.393V179.89h3.257v-0.816h-8.038v0.816h3.389v25.135H209.949z"/>
			</g>
			<g>
				<path fill="#FFFF00" d="M229.937,208.025h-12.903v-31.952h12.706v6.8h-5.297v5.422h5.033v6.718h-5.033v6.213h5.494V208.025z
				 M220.033,205.025h6.903v-0.8h-5.494v-12.213h5.033v-0.718h-5.033v-11.422h5.297v-0.8h-6.706V205.025z"/>
			</g>
			<g>
				<path fill="#FFFF00" d="M246.886,208.025h-7.546l-0.416-0.827c-0.223-0.443-0.324-0.646-0.324-11.053
				c0-1.022-0.108-1.471-0.162-1.629c-0.081-0.029-0.255-0.075-0.572-0.092v13.601h-7.408v-31.952h8.787
				c1.887,0,3.306,0.409,4.337,1.25c1.012,0.826,1.682,1.969,1.99,3.395c0.261,1.21,0.388,2.713,0.388,4.595
				c0,1.973-0.219,3.473-0.669,4.585c-0.193,0.478-0.451,0.904-0.768,1.277c0.317,0.406,0.599,0.919,0.815,1.563
				c0.458,1.362,0.671,3.844,0.671,7.808c0,4.146,0.071,5.254,0.105,5.544L246.886,208.025z M241.667,205.025h1.387
				c-0.028-0.933-0.045-2.334-0.045-4.479c0-4.629-0.322-6.279-0.515-6.852c-0.308-0.915-0.727-0.988-0.927-1.023l-0.19-2.908
				c0.579-0.183,0.929-0.488,1.132-0.991c0.205-0.507,0.45-1.519,0.45-3.459c0-1.644-0.107-2.977-0.32-3.961
				c-0.163-0.755-0.476-1.313-0.955-1.704c-0.46-0.376-1.304-0.574-2.439-0.574h-5.787v25.952h1.408v-13.741l2.984,0.139
				c1.387,0.033,2.408,0.465,3.002,1.282c0.518,0.711,0.748,1.771,0.748,3.44C241.6,201.233,241.633,203.767,241.667,205.025z
				 M238.143,190.934h-3.261v-11.472h2.997c1.918,0,2.768,0.818,3.143,1.504c0.4,0.735,0.578,1.905,0.578,3.796v0.181
				c0,1.36-0.058,2.363-0.178,3.065c-0.162,0.954-0.493,1.654-1.012,2.141C239.857,190.669,239.094,190.934,238.143,190.934z
				 M237.882,187.934h0.261c0.101,0,0.172-0.007,0.221-0.015c0.021-0.064,0.064-0.197,0.102-0.415
				c0.062-0.361,0.135-1.1,0.135-2.562v-0.181c0-1.399-0.114-2.016-0.177-2.248c-0.093-0.023-0.262-0.052-0.541-0.052
				L237.882,187.934L237.882,187.934z"/>
			</g>
			<g>
				<path fill="#FFFF00" d="M44.14,239.885h-1.5c-1.205,0-2.178-0.101-2.975-0.308c-0.926-0.242-1.724-0.693-2.372-1.342
				c-0.659-0.659-1.119-1.53-1.37-2.588c-0.216-0.909-0.321-2.021-0.321-3.401V217.74c0-1.38,0.105-2.492,0.321-3.402
				c0.25-1.059,0.712-1.93,1.37-2.588c0.649-0.649,1.448-1.101,2.372-1.341c0.797-0.207,1.77-0.308,2.975-0.308h1.5v5.734h-1.5
				c-0.121,0-0.212,0.007-0.28,0.016c-0.048,0.242-0.121,0.779-0.121,1.834V232.3c0,1.047,0.071,1.584,0.123,1.834
				c0.067,0.009,0.158,0.016,0.278,0.016h1.5C44.14,234.15,44.14,239.885,44.14,239.885z M40.808,213.23
				c-0.14,0.023-0.269,0.052-0.389,0.083c-0.406,0.104-0.734,0.288-1.005,0.559c-0.259,0.259-0.451,0.648-0.572,1.158
				c-0.159,0.671-0.24,1.583-0.24,2.71v14.506c0,1.127,0.081,2.039,0.24,2.709c0.121,0.511,0.313,0.9,0.572,1.159
				c0.27,0.27,0.599,0.453,1.006,0.56c0.119,0.031,0.249,0.059,0.388,0.083c-0.538-0.284-0.858-0.677-1.049-1.032
				c-0.364-0.678-0.52-1.702-0.52-3.424v-14.615c0-1.722,0.156-2.746,0.521-3.425C39.951,213.906,40.271,213.514,40.808,213.23z"/>
			</g>
			<g>
				<path fill="#FFFF00" d="M50.771,238.025h-6.664v-27.062h7.023c3.014,0,4.446,1.318,5.117,2.424
				c0.836,1.38,1.263,3.287,1.305,5.833v0.53c0,2.668-0.394,4.683-1.204,6.157c-0.66,1.2-2.079,2.63-5.095,2.63h-0.482V238.025z
				 M47.106,235.025h0.664v-9.488h3.482c1.68,0,2.212-0.613,2.466-1.075c0.553-1.006,0.833-2.592,0.833-4.712v-0.506
				c-0.04-2.431-0.495-3.684-0.87-4.302c-0.129-0.213-0.492-0.811-1.913-0.95c0.749,0.287,1.322,0.854,1.637,1.65
				c0.318,0.805,0.471,1.945,0.481,3.592v0.475c0,1.909-0.143,3.166-0.451,3.956c-0.458,1.176-1.519,1.851-2.909,1.851h-2.758
				v-11.553h-0.664v21.062H47.106z M50.771,217.4v4.58c0.061-0.434,0.117-1.14,0.117-2.271v-0.465
				C50.882,218.38,50.83,217.793,50.771,217.4z"/>
			</g>
			<g>
				<path fill="#FFFF00" d="M71.299,238.025h-6.81l-0.415-0.829c-0.214-0.43-0.295-0.59-0.295-9.298c0-0.621-0.049-0.969-0.087-1.146
				c-0.005-0.001-0.011-0.002-0.016-0.003v11.275h-6.664v-27.062h7.557c1.629,0,2.86,0.358,3.765,1.097
				c0.887,0.724,1.473,1.721,1.742,2.964c0.22,1.022,0.328,2.289,0.328,3.872c0,1.672-0.188,2.949-0.574,3.905
				c-0.146,0.358-0.332,0.686-0.556,0.978c0.246,0.35,0.448,0.754,0.601,1.208c0.245,0.729,0.57,2.201,0.57,6.569
				c0,3.31,0.055,4.271,0.083,4.545L71.299,238.025z M66.83,235.025h0.646c-0.02-0.777-0.031-1.881-0.031-3.47
				c0-3.812-0.259-5.153-0.414-5.612c-0.208-0.618-0.446-0.66-0.574-0.683l-0.192-2.908c0.415-0.131,0.642-0.327,0.784-0.678
				c0.162-0.399,0.355-1.208,0.355-2.779c0-1.349-0.087-2.438-0.26-3.238c-0.123-0.569-0.354-0.986-0.706-1.273
				c-0.308-0.251-0.899-0.397-1.676-0.418c0.825,0.263,1.27,0.759,1.508,1.197c0.358,0.657,0.511,1.637,0.511,3.274v0.15
				c0,1.142-0.049,1.988-0.151,2.588c-0.145,0.851-0.444,1.479-0.916,1.923c-0.404,0.379-0.923,0.61-1.547,0.69
				c0.859,0.145,1.516,0.514,1.943,1.101c0.464,0.638,0.67,1.565,0.67,3.009C66.78,231.827,66.804,233.916,66.83,235.025z
				 M60.013,235.025h0.664v-11.433l0.014,0.001v-9.631h-0.678V235.025z M63.69,216.873v3.677c0.044-0.326,0.09-0.917,0.09-1.962
				v-0.15C63.78,217.623,63.733,217.142,63.69,216.873z"/>
			</g>
			<g>
				<path fill="#FFFF00" d="M82.052,238.025h-11.23v-27.062h11.066v6.158h-4.402v4h4.184v6.09h-4.184v4.656h4.566
				C82.052,231.867,82.052,238.025,82.052,238.025z M73.821,235.025h5.23v-0.158h-4.566v-10.656h4.184v-0.09h-4.184v-10h4.402
				v-0.158h-5.066V235.025z"/>
			</g>
			<g>
				<path fill="#FFFF00" d="M100.741,238.025h-6.268v-2.015l-0.361,1.905h-5.387l-0.508-2.569v2.679h-6.24v-27.062h7.289
				l2.136,10.987l2.008-10.987h7.331C100.741,210.963,100.741,238.025,100.741,238.025z M97.474,235.025h0.268v-21.062h-1.829
				l-0.936,5.118l2.634,0.271l-0.137,8.23V235.025z M84.978,235.025h0.24v-7.469l-0.137-8.205l2.705-0.288l-0.992-5.101h-1.816
				V235.025z M91.19,234.916h0.438l0.872-4.599l-2.216,0.012L91.19,234.916z"/>
			</g>
			<g>
				<path fill="#FFFF00" d="M108.165,238.025h-6.664v-27.062h6.664V238.025z M104.501,235.025h0.664v-21.062h-0.664V235.025z"/>
			</g>
			<g>
				<path fill="#FFFF00" d="M120.142,238.025h-11.23v-27.062h11.066v6.158h-4.402v4h4.184v6.09h-4.184v4.656h4.566
				C120.142,231.867,120.142,238.025,120.142,238.025z M111.911,235.025h5.23v-0.158h-4.566v-10.656h4.184v-0.09h-4.184v-10h4.402
				v-0.158h-5.066V235.025z"/>
			</g>
			<g>
				<path fill="#FFFF00" d="M134.35,238.025h-6.805l-0.415-0.829c-0.214-0.43-0.295-0.59-0.295-9.298
				c0-0.621-0.049-0.969-0.087-1.146c-0.005-0.001-0.011-0.002-0.016-0.003v11.275h-6.664v-27.062h7.557
				c1.629,0,2.86,0.358,3.765,1.097c0.887,0.723,1.473,1.721,1.741,2.964c0.221,1.02,0.328,2.286,0.328,3.872
				c0,1.672-0.188,2.949-0.574,3.905c-0.146,0.358-0.331,0.686-0.556,0.979c0.246,0.349,0.447,0.753,0.601,1.207
				c0.245,0.729,0.57,2.201,0.57,6.569c0,3.312,0.055,4.272,0.083,4.546L134.35,238.025z M129.885,235.025h0.646
				c-0.02-0.777-0.031-1.881-0.031-3.47c0-3.812-0.26-5.153-0.414-5.612c-0.208-0.618-0.446-0.66-0.574-0.683l-0.191-2.908
				c0.415-0.131,0.642-0.327,0.783-0.677c0.162-0.4,0.355-1.209,0.355-2.78c0-1.351-0.088-2.44-0.26-3.237
				c-0.124-0.57-0.354-0.987-0.706-1.274c-0.308-0.251-0.899-0.397-1.677-0.418c0.825,0.263,1.27,0.759,1.509,1.197
				c0.358,0.657,0.511,1.637,0.511,3.274v0.15c0,1.142-0.05,1.988-0.151,2.588c-0.145,0.851-0.443,1.479-0.915,1.923
				c-0.405,0.379-0.923,0.61-1.547,0.69c0.859,0.145,1.516,0.514,1.944,1.101c0.464,0.638,0.67,1.565,0.67,3.009
				C129.835,231.827,129.858,233.916,129.885,235.025z M123.067,235.025h0.664v-11.433l0.014,0.001v-9.631h-0.678V235.025z
				 M126.745,216.873v3.677c0.044-0.326,0.09-0.917,0.09-1.962v-0.15C126.835,217.623,126.788,217.142,126.745,216.873z"/>
			</g>
			<g>
				<path fill="#FFFF00" d="M150.192,238.025h-11.299v-27.062h6.664v20.945h4.635V238.025z M141.894,235.025h5.299v-0.117h-4.635
				v-20.945h-0.664V235.025z"/>
			</g>
			<g>
				<path fill="#FFFF00" d="M160.528,238.025h-11.23v-27.062h11.066v6.158h-4.402v4h4.184v6.09h-4.184v4.656h4.566V238.025z
				 M152.298,235.025h5.23v-0.158h-4.566v-10.656h4.184v-0.09h-4.184v-10h4.402v-0.158h-5.066V235.025z"/>
			</g>
			<g>
				<path fill="#FFFF00" d="M174.527,238.025h-6.476l-0.574-4.293h-1.241l-0.52,4.293h-6.586l3.86-27.062h7.431L174.527,238.025z
				 M170.677,235.025h0.36l-2.929-19.308l2.013,15.075h-0.01L170.677,235.025z M162.59,235.025h0.469l0.512-4.232h-0.002
				l1.843-15.086h2.695l-0.265-1.744h-2.249L162.59,235.025z"/>
			</g>
			<g>
				<path fill="#FFFF00" d="M179.755,238.271c-1.988,0-3.637-0.833-4.767-2.41c-1.05-1.464-1.56-3.55-1.56-6.377v-10.459
				c0-2.543,0.539-4.556,1.604-5.982c1.164-1.562,2.965-2.354,5.352-2.354c3.796,0,5.309,1.973,5.908,3.627
				c0.447,1.235,0.664,2.819,0.664,4.846v18.863h-4.327l-0.117-0.496C181.692,238.022,180.768,238.271,179.755,238.271z
				 M180.384,213.689c-1.407,0-2.372,0.375-2.947,1.146c-0.669,0.897-1.008,2.307-1.008,4.189v10.459
				c0,2.118,0.345,3.719,0.997,4.629c0.574,0.801,1.293,1.158,2.329,1.158c0.289,0,0.553-0.04,0.797-0.122
				c-1.36,0.058-2.494-0.628-2.978-1.889c-0.31-0.811-0.454-2.027-0.454-3.831v-10.432c0-1.631,0.176-2.744,0.553-3.504
				c0.516-1.038,1.501-1.633,2.704-1.633c1.63,0,2.355,0.926,2.643,1.478c0.354,0.679,0.519,1.637,0.519,3.017v1.016h0.418v-0.209
				c0-1.648-0.163-2.935-0.484-3.823C183.193,214.571,182.591,213.689,180.384,213.689z M183.757,224.887v4.406
				c0,1.825-0.176,3.083-0.554,3.958c-0.088,0.203-0.189,0.392-0.305,0.564l1.058-0.001v-8.928h-0.199V224.887z M180.362,232.148
				h0.047c0.005-0.015,0.021-0.044,0.04-0.087c0.093-0.214,0.308-0.913,0.308-2.769v-1.74h-0.637v1.877
				C180.12,231.205,180.279,231.904,180.362,232.148z M180.12,221.887h0.418v-3.531c0-0.86-0.079-1.297-0.132-1.494
				c-0.009,0-0.019,0-0.029,0l0,0c-0.014,0-0.022-0.001-0.028-0.004c-0.071,0.177-0.229,0.719-0.229,2.141L180.12,221.887
				L180.12,221.887z"/>
			</g>
			<g>
				<path fill="#FFFF00" d="M194.076,238.299c-2.323,0-4.078-0.718-5.216-2.132c-1.073-1.335-1.596-3.239-1.596-5.821V210.95h6.664
				v19.328c0,1.415,0.079,1.771,0.088,1.808c0.012,0.021,0.027,0.05,0.046,0.083c0.007,0,0.014,0,0.021,0c0,0,0,0,0.001,0
				c0.033-0.095,0.051-0.198,0.06-0.281c0.044-0.408,0.066-0.949,0.066-1.609v-19.328h6.664v19.396c0,2.591-0.52,4.497-1.589,5.827
				C198.152,237.584,196.399,238.299,194.076,238.299z M190.265,213.949v16.396c0,1.818,0.323,3.182,0.934,3.94
				c0.548,0.682,1.489,1.013,2.878,1.013s2.327-0.329,2.871-1.005c0.606-0.755,0.927-2.12,0.927-3.948v-16.396h-0.664v16.328
				c0,0.768-0.028,1.418-0.084,1.932c-0.078,0.725-0.313,1.357-0.699,1.883c-0.361,0.491-1.061,1.076-2.344,1.076
				c-1.021,0-1.776-0.313-2.243-0.931c-0.24-0.318-0.445-0.673-0.61-1.055c-0.186-0.43-0.301-1.065-0.301-2.905v-16.328
				L190.265,213.949L190.265,213.949z"/>
			</g>
			<g>
				<path fill="#FFFF00" d="M212.577,238.025h-11.23v-27.062h11.066v6.158h-4.402v4h4.184v6.09h-4.184v4.656h4.566V238.025z
				 M204.347,235.025h5.23v-0.158h-4.566v-10.656h4.184v-0.09h-4.184v-10h4.402v-0.158h-5.066V235.025z"/>
			</g>
			<g>
				<path fill="#FFFF00" d="M213.374,239.885h-1.5v-5.734h1.5c0.121,0,0.213-0.007,0.279-0.016c0.049-0.242,0.121-0.78,0.121-1.834
				v-14.615c0-1.047-0.071-1.584-0.123-1.834c-0.066-0.009-0.157-0.016-0.277-0.016h-1.5v-5.734h1.5
				c1.204,0,2.178,0.101,2.975,0.308c0.926,0.241,1.723,0.693,2.37,1.347c0.65,0.656,1.107,1.525,1.358,2.583
				c0.216,0.912,0.32,2.024,0.32,3.401v14.506c0,1.377-0.104,2.489-0.32,3.401c-0.25,1.056-0.707,1.925-1.357,2.582
				c-0.646,0.652-1.443,1.104-2.369,1.347C215.552,239.784,214.578,239.885,213.374,239.885z M215.205,213.23
				c0.537,0.283,0.858,0.676,1.049,1.031c0.365,0.68,0.521,1.703,0.521,3.424V232.3c0,1.721-0.155,2.744-0.521,3.424
				c-0.19,0.355-0.512,0.748-1.049,1.031c0.14-0.023,0.27-0.052,0.39-0.083c0.402-0.104,0.728-0.286,0.993-0.554
				c0.257-0.26,0.448-0.651,0.569-1.163c0.159-0.673,0.24-1.584,0.24-2.71V217.74c0-1.126-0.081-2.037-0.24-2.71
				c-0.121-0.513-0.312-0.904-0.569-1.163c-0.266-0.269-0.591-0.449-0.993-0.554C215.475,213.282,215.345,213.254,215.205,213.23z"
				/>
			</g>
		</g>
		<g>
			<g>
				<path d="M11.195,198.382V195.8h4.178v2.911c0,1.612,0.137,2.745,0.411,3.397c0.274,0.652,0.79,0.979,1.546,0.979
				c0.757,0,1.259-0.269,1.505-0.806s0.37-1.415,0.37-2.632c0-1.218-0.22-2.278-0.658-3.184c-0.438-0.904-1.135-1.851-2.089-2.838
				l-2.139-2.204c-0.998-1.042-1.774-2.122-2.328-3.24c-0.554-1.119-0.831-2.413-0.831-3.883c0-2.391,0.46-4.167,1.382-5.33
				c0.921-1.162,2.505-1.743,4.754-1.743c2.248,0,3.77,0.677,4.565,2.031s1.192,3.331,1.192,5.931v1.793H18.99v-2.073
				c0-1.403-0.121-2.409-0.362-3.019c-0.241-0.608-0.705-0.913-1.39-0.913c-0.686,0-1.179,0.23-1.48,0.691
				c-0.302,0.461-0.453,1.151-0.453,2.072c0,0.922,0.154,1.656,0.461,2.205c0.307,0.548,0.861,1.25,1.661,2.105l2.385,2.582
				c1.195,1.295,2.098,2.605,2.706,3.932c0.609,1.327,0.913,2.775,0.913,4.344c0,2.708-0.455,4.71-1.365,6.004
				c-0.911,1.294-2.503,1.941-4.779,1.941s-3.86-0.722-4.754-2.163C11.642,203.249,11.195,201.146,11.195,198.382z"/>
			</g>
			<g>
				<path d="M37.384,204.839c-0.998,1.344-2.566,2.016-4.705,2.016s-3.737-0.716-4.795-2.147c-1.059-1.431-1.587-3.489-1.587-6.177
				v-12.617c0-4.31,1.129-7.002,3.389-8.077c0.833-0.395,1.842-0.592,3.027-0.592c4.068,0,6.103,2.565,6.103,7.698v3.981h-4.261
				v-3.702c0-1.491-0.126-2.558-0.378-3.199s-0.746-0.962-1.48-0.962s-1.245,0.34-1.53,1.02c-0.285,0.681-0.428,1.722-0.428,3.126
				v13.521c0,1.558,0.137,2.671,0.411,3.34c0.274,0.669,0.773,1.003,1.497,1.003c0.724,0,1.223-0.34,1.497-1.02
				c0.274-0.68,0.411-1.804,0.411-3.372v-4.146h4.327v4.096C38.881,201.426,38.381,203.496,37.384,204.839z"/>
			</g>
			<g>
				<path d="M42.467,206.525v-28.952h4.409v11.712h3.948v-11.712h4.409v28.952h-4.409v-13.456h-3.948v13.456H42.467z"/>
			</g>
			<g>
				<path d="M70.498,204.765c-1.009,1.394-2.624,2.09-4.844,2.09c-2.221,0-3.85-0.699-4.886-2.098
				c-1.037-1.398-1.555-3.507-1.555-6.325V185.19c0-5.308,2.166-7.962,6.498-7.962c2.237,0,3.847,0.674,4.828,2.023
				s1.473,3.328,1.473,5.938v13.242C72.012,201.261,71.507,203.372,70.498,204.765z M64.042,202.034
				c0.257,0.669,0.787,1.004,1.587,1.004c0.8,0,1.327-0.343,1.579-1.028s0.378-1.861,0.378-3.528v-13.489
				c0-1.371-0.129-2.372-0.387-3.003c-0.258-0.63-0.762-0.945-1.513-0.945s-1.278,0.315-1.579,0.945
				c-0.302,0.631-0.453,1.626-0.453,2.986v13.506C63.655,200.181,63.784,201.365,64.042,202.034z"/>
			</g>
			<g>
				<path d="M77.489,206.525V181.39H74.1v-3.816h11.038v3.816h-3.257v25.136h-4.392V206.525z"/>
			</g>
			<g>
				<path d="M89.054,206.525V181.39h-3.389v-3.816h11.038v3.816h-3.257v25.136h-4.392V206.525z"/>
			</g>
			<g>
				<path d="M99.303,206.525v-28.952h4.409v28.952H99.303z"/>
			</g>
			<g>
				<path d="M107.643,198.382V195.8h4.178v2.911c0,1.612,0.137,2.745,0.411,3.397c0.274,0.652,0.79,0.979,1.546,0.979
				c0.757,0,1.259-0.269,1.505-0.806s0.37-1.415,0.37-2.632c0-1.218-0.22-2.278-0.658-3.184c-0.438-0.904-1.135-1.851-2.089-2.838
				l-2.139-2.204c-0.998-1.042-1.774-2.122-2.328-3.24c-0.554-1.119-0.831-2.413-0.831-3.883c0-2.391,0.46-4.167,1.382-5.33
				c0.921-1.162,2.505-1.743,4.754-1.743c2.248,0,3.77,0.677,4.565,2.031c0.795,1.354,1.192,3.331,1.192,5.931v1.793h-4.063v-2.073
				c0-1.403-0.121-2.409-0.362-3.019c-0.241-0.608-0.705-0.913-1.39-0.913c-0.686,0-1.179,0.23-1.48,0.691
				c-0.302,0.461-0.453,1.151-0.453,2.072c0,0.922,0.154,1.656,0.461,2.205c0.307,0.548,0.861,1.25,1.661,2.105l2.385,2.582
				c1.195,1.295,2.098,2.605,2.706,3.932c0.609,1.327,0.913,2.775,0.913,4.344c0,2.708-0.455,4.71-1.365,6.004
				c-0.911,1.294-2.503,1.941-4.779,1.941s-3.86-0.722-4.754-2.163C108.089,203.249,107.643,201.146,107.643,198.382z"/>
			</g>
			<g>
				<path d="M123.106,206.525v-28.952h4.409v11.712h3.948v-11.712h4.409v28.952h-4.409v-13.456h-3.948v13.456H123.106z"/>
			</g>
			<g>
				<path d="M146.252,206.525v-28.952h5.478l4.112,21.154l3.866-21.154h5.511v28.952h-3.932v-10.792l0.165-9.902l-3.899,20.562
				h-3.504l-4.062-20.562l0.164,9.902v10.792H146.252z"/>
			</g>
			<g>
				<path d="M169.578,206.525v-28.952h9.705v3.8h-5.297v8.422h5.034v3.718h-5.034v9.213h5.494v3.8h-9.902V206.525z"/>
			</g>
			<g>
				<path d="M183.166,206.525v-28.952h4.408v28.952H183.166z"/>
			</g>
			<g>
				<path d="M191.506,198.382V195.8h4.179v2.911c0,1.612,0.137,2.745,0.411,3.397s0.79,0.979,1.546,0.979
				c0.757,0,1.259-0.269,1.506-0.806c0.246-0.537,0.37-1.415,0.37-2.632c0-1.218-0.22-2.278-0.658-3.184
				c-0.438-0.904-1.135-1.851-2.089-2.838l-2.139-2.204c-0.998-1.042-1.774-2.122-2.328-3.24c-0.554-1.119-0.83-2.413-0.83-3.883
				c0-2.391,0.46-4.167,1.382-5.33c0.921-1.162,2.505-1.743,4.754-1.743c2.248,0,3.77,0.677,4.564,2.031s1.192,3.331,1.192,5.931
				v1.793h-4.062v-2.073c0-1.403-0.121-2.409-0.362-3.019c-0.241-0.608-0.705-0.913-1.39-0.913c-0.686,0-1.18,0.23-1.48,0.691
				c-0.302,0.461-0.453,1.151-0.453,2.072c0,0.922,0.154,1.656,0.461,2.205c0.307,0.548,0.861,1.25,1.661,2.105l2.386,2.582
				c1.195,1.295,2.098,2.605,2.706,3.932c0.608,1.327,0.913,2.775,0.913,4.344c0,2.708-0.455,4.71-1.365,6.004
				c-0.911,1.294-2.504,1.941-4.779,1.941s-3.86-0.722-4.754-2.163C191.953,203.249,191.506,201.146,191.506,198.382z"/>
			</g>
			<g>
				<path d="M208.449,206.525V181.39h-3.389v-3.816h11.038v3.816h-3.257v25.136h-4.392V206.525z"/>
			</g>
			<g>
				<path d="M218.533,206.525v-28.952h9.706v3.8h-5.297v8.422h5.033v3.718h-5.033v9.213h5.494v3.8h-9.903V206.525z"/>
			</g>
			<g>
				<path d="M237.78,192.921l-1.415-0.065v13.67h-4.408v-28.952h7.287c1.514,0,2.643,0.304,3.389,0.912
				c0.746,0.609,1.236,1.459,1.473,2.55c0.235,1.092,0.354,2.518,0.354,4.277c0,1.761-0.187,3.101-0.56,4.022
				s-1.063,1.541-2.072,1.858c0.998,0.176,1.694,0.851,2.089,2.023c0.395,1.174,0.593,3.616,0.593,7.329
				c0,3.712,0.055,5.705,0.164,5.979h-4.408c-0.11-0.22-0.165-3.68-0.165-10.38c0-1.283-0.153-2.136-0.461-2.559
				C239.332,193.165,238.712,192.943,237.78,192.921z M236.382,189.434h1.761c0.559,0,0.973-0.126,1.241-0.379
				c0.269-0.252,0.455-0.685,0.56-1.299s0.156-1.552,0.156-2.813v-0.181c0-1.568-0.132-2.594-0.395-3.076
				c-0.264-0.482-0.872-0.724-1.826-0.724h-1.497V189.434z"/>
			</g>
			<g>
				<path d="M42.64,238.385c-1.066,0-1.933-0.087-2.598-0.26c-0.666-0.174-1.229-0.49-1.688-0.95
				c-0.46-0.461-0.784-1.085-0.971-1.873s-0.28-1.807-0.28-3.056V217.74c0-1.249,0.093-2.268,0.28-3.056s0.51-1.413,0.971-1.873
				c0.46-0.46,1.023-0.777,1.688-0.95s1.531-0.26,2.598-0.26v2.734c-0.812,0-1.331,0.212-1.559,0.636
				c-0.228,0.424-0.342,1.328-0.342,2.714V232.3c0,1.386,0.114,2.29,0.342,2.714c0.228,0.424,0.747,0.636,1.559,0.636V238.385z"/>
			</g>
			<g>
				<path d="M45.606,236.525v-24.062h5.523c1.868,0,3.146,0.567,3.835,1.702c0.688,1.135,1.05,2.828,1.087,5.079v0.506
				c0,2.388-0.34,4.199-1.019,5.435c-0.679,1.235-1.939,1.853-3.78,1.853H49.27v9.488L45.606,236.525L45.606,236.525z
				 M49.271,224.016h1.258c0.774,0,1.278-0.299,1.511-0.896s0.349-1.734,0.349-3.411v-0.465c-0.009-1.422-0.135-2.438-0.376-3.049
				c-0.242-0.61-0.727-0.916-1.456-0.916h-1.285L49.271,224.016L49.271,224.016z"/>
			</g>
			<g>
				<path d="M63.353,225.219l-1.176-0.055v11.361h-3.664v-24.062h6.057c1.258,0,2.196,0.253,2.816,0.759s1.027,1.212,1.224,2.119
				c0.196,0.907,0.294,2.092,0.294,3.555s-0.155,2.577-0.465,3.343s-0.884,1.28-1.723,1.545c0.829,0.146,1.408,0.706,1.736,1.682
				s0.492,3.006,0.492,6.091s0.045,4.742,0.137,4.97h-3.664c-0.091-0.183-0.137-3.058-0.137-8.627c0-1.066-0.128-1.775-0.383-2.126
				C64.642,225.422,64.127,225.237,63.353,225.219z M62.19,222.32h1.463c0.465,0,0.809-0.104,1.032-0.314
				c0.223-0.21,0.378-0.569,0.465-1.08c0.086-0.511,0.13-1.29,0.13-2.338v-0.15c0-1.304-0.109-2.155-0.328-2.557
				s-0.725-0.602-1.518-0.602H62.19V222.32z"/>
			</g>
			<g>
				<path d="M72.321,236.525v-24.062h8.066v3.158h-4.402v7h4.184v3.09h-4.184v7.656h4.566v3.158L72.321,236.525L72.321,236.525z"/>
			</g>
			<g>
				<path d="M83.478,236.525v-24.062h4.553l3.418,17.582l3.213-17.582h4.58v24.062h-3.268v-8.969l0.137-8.23l-3.24,17.09h-2.912
				l-3.377-17.09l0.137,8.23v8.969H83.478z"/>
			</g>
			<g>
				<path d="M103.001,236.525v-24.062h3.664v24.062H103.001z"/>
			</g>
			<g>
				<path d="M110.411,236.525v-24.062h8.066v3.158h-4.402v7h4.184v3.09h-4.184v7.656h4.566v3.158L110.411,236.525L110.411,236.525z"
				/>
			</g>
			<g>
				<path d="M126.407,225.219l-1.176-0.055v11.361h-3.664v-24.062h6.057c1.258,0,2.196,0.253,2.816,0.759s1.027,1.212,1.224,2.119
				s0.294,2.092,0.294,3.555s-0.155,2.577-0.465,3.343s-0.884,1.28-1.723,1.545c0.829,0.146,1.408,0.706,1.736,1.682
				s0.492,3.006,0.492,6.091s0.046,4.742,0.137,4.97h-3.664c-0.091-0.183-0.137-3.058-0.137-8.627c0-1.066-0.128-1.775-0.383-2.126
				C127.697,225.422,127.182,225.237,126.407,225.219z M125.245,222.32h1.463c0.465,0,0.809-0.104,1.032-0.314
				c0.223-0.21,0.378-0.569,0.465-1.08c0.086-0.511,0.13-1.29,0.13-2.338v-0.15c0-1.304-0.109-2.155-0.328-2.557
				s-0.725-0.602-1.518-0.602h-1.244V222.32z"/>
			</g>
			<g>
				<path d="M140.394,236.525v-24.062h3.664v20.945h4.635v3.117H140.394z"/>
			</g>
			<g>
				<path d="M150.798,236.525v-24.062h8.066v3.158h-4.402v7h4.184v3.09h-4.184v7.656h4.566v3.158L150.798,236.525L150.798,236.525z"
				/>
			</g>
			<g>
				<path d="M160.86,236.525l3.432-24.062h4.84l3.65,24.062h-3.418l-0.574-4.293h-3.883l-0.52,4.293H160.86z M168.407,229.293
				l-1.613-12.086h-0.055l-1.477,12.086H168.407z"/>
			</g>
			<g>
				<path d="M179.755,236.771c-1.513,0-2.695-0.595-3.548-1.784s-1.278-3.023-1.278-5.503v-10.459c0-2.224,0.436-3.919,1.306-5.086
				s2.254-1.75,4.149-1.75c2.36,0,3.86,0.88,4.498,2.639c0.383,1.058,0.574,2.502,0.574,4.334v1.709h-3.418v-2.516
				c0-1.103-0.116-1.878-0.349-2.324s-0.67-0.67-1.312-0.67s-1.096,0.267-1.36,0.8s-0.396,1.479-0.396,2.837v10.432
				c0,1.577,0.118,2.675,0.355,3.295s0.699,0.93,1.388,0.93s1.176-0.333,1.463-0.998s0.431-1.786,0.431-3.363v-3.24h-1.846v-2.666
				h5.045v13.139h-1.641l-0.561-2.365c-0.191,0.812-0.61,1.449-1.258,1.914S180.603,236.771,179.755,236.771z"/>
			</g>
			<g>
				<path d="M198.116,235.233c-0.839,1.044-2.186,1.565-4.04,1.565s-3.204-0.524-4.047-1.572s-1.265-2.675-1.265-4.881v-17.896h3.664
				v17.828c0,1.267,0.06,2.037,0.178,2.311s0.262,0.521,0.431,0.745s0.518,0.335,1.046,0.335s0.907-0.155,1.135-0.465
				s0.367-0.695,0.417-1.155s0.075-1.051,0.075-1.771v-17.828h3.664v17.896C199.374,232.561,198.955,234.189,198.116,235.233z"/>
			</g>
			<g>
				<path d="M202.847,236.525v-24.062h8.066v3.158h-4.402v7h4.184v3.09h-4.184v7.656h4.566v3.158L202.847,236.525L202.847,236.525z"
				/>
			</g>
			<g>
				<path d="M213.374,238.385v-2.734c0.812,0,1.331-0.212,1.559-0.636s0.342-1.328,0.342-2.714v-14.615
				c0-1.386-0.114-2.29-0.342-2.714s-0.747-0.636-1.559-0.636v-2.734c1.066,0,1.933,0.087,2.598,0.26s1.226,0.49,1.682,0.95
				s0.777,1.085,0.964,1.873s0.28,1.807,0.28,3.056v14.506c0,1.249-0.094,2.268-0.28,3.056s-0.508,1.412-0.964,1.873
				c-0.456,0.46-1.017,0.776-1.682,0.95C215.307,238.298,214.44,238.385,213.374,238.385z"/>
			</g>
		</g>
	</g>
</svg>