<?xml version="1.0" encoding="utf-8"?>
<!-- Generator: Adobe Illustrator 17.0.0, SVG Export Plug-In . SVG Version: 6.00 Build 0)  -->
<!DOCTYPE svg PUBLIC "-//W3C//DTD SVG 1.1//EN" "http://www.w3.org/Graphics/SVG/1.1/DTD/svg11.dtd">
<svg version="1.1" id="Layer_1" xmlns="http://www.w3.org/2000/svg" xmlns:xlink="http://www.w3.org/1999/xlink" x="0px" y="0px"
	 width="256px" height="256px" viewBox="0 0 256 256" enable-background="new 0 0 256 256" xml:space="preserve">
<polygon fill="#FFFF00" points="128,188.6 53.1,243.2 82,155.1 6.8,100.8 99.5,101 128,12.8 156.5,101 249.2,100.8 174,155.1 
	202.9,243.2 "/>
<path fill="#FFFFFF" d="M192,10.3c-17.1,0-32.4,8-42.3,20.6h-0.3v0.3c-7.1,9.1-11.4,20.6-11.4,33c0,29.7,24.2,53.9,53.9,53.9
	s53.9-24.2,53.9-53.9S221.7,10.3,192,10.3z"/>
<path d="M192,10.3c-17.1,0-32.4,8-42.3,20.6h-0.3v0.3c-7.1,9.1-11.4,20.6-11.4,33c0,29.7,24.2,53.9,53.9,53.9s53.9-24.2,53.9-53.9
	S221.7,10.3,192,10.3z M208.6,100.9l-23.1-3L183.7,78l17.6-10.7L217,82.4L208.6,100.9z M171.2,103.3L151.9,89l-2.1-14.7l11.8-7.4
	L181.5,78l1.9,20.2L171.2,103.3z M149.1,72.2L142,57.4l9.3-15.3l9.7,2l-0.2,20.8L149.1,72.2z M188.3,19l21.3,2.9l7.3,13.6l-16.1,7.9
	l-16.5-11.5L188.3,19z M231.4,74.4l-12.6,6.7l-16.9-16.2l0.2-19.7l16-7.9L232.3,50L231.4,74.4z M233.5,74.9l1-24.5l7.1-0.9
	c1.4,4.7,2.1,9.6,2.1,14.7c0,4.6-0.6,9-1.7,13.2L233.5,74.9z M240.9,47.4l-7.1,0.9l-14.6-13.1L212,21.9l6.1-2.4
	C228.7,25.7,236.9,35.6,240.9,47.4z M178.8,14.2l7.4,4.1L182,32.1L162.3,42l-10.5-2.1l-0.2-8.1C158.5,23.4,167.9,17,178.8,14.2z
	 M149.7,40.5l-8.5,14.1c1.4-7.3,4.3-14.1,8.4-20L149.7,40.5z M140.5,59.2l7.1,14.9l2.1,14.8l-2.9,0.4c-4.1-7.4-6.5-16-6.5-25.1
	C140.3,62.5,140.4,60.8,140.5,59.2z M172.4,112.1l-0.2-6.8l12.5-5.3l23.9,3.1l4.4,8.4c-6.4,2.9-13.5,4.5-21,4.5
	C185.1,115.9,178.5,114.5,172.4,112.1z"/>
<g>
	<path fill="none" stroke="#000000" stroke-width="3" stroke-miterlimit="10" d="M157.6,137"/>
	<path fill="#FF0000" d="M157.6,137"/>
</g>
<g>
	<path fill="#FFFFFF" d="M212.824,171.568c19.999-10.488,33.038-32.696,33.765-36.035s-0.59-4.057-2.958-6.441
		s-7.03-0.392-7.03-0.392s-20.843,17.886-30.625,24.968c-9.867,7.195-51.599,19.025-57.206,22.164s-44.731,16.914-51.144,25.628
		c0.092,2.715-1.63,9.635,5.22,6.011C109.697,203.847,179.846,188.693,212.824,171.568z"/>
	<g>
		<path fill="none" stroke="#000000" stroke-width="3" stroke-miterlimit="10" d="M183.326,144.532
			c3.321-0.786,6.035-1.585,8.084-2.085c4.367-1.241,9.398-2.782,16.039-5.061c8.746-3.091,18.392-8.334,21.996-9.262
			c6.332-1.628,12.332,0.025,12.332,0.025c2.947,2.199-20.807,20.912-26.509,25.481c-14.678,11.634-61.189,23.956-94.614,38.013
			c-11.909,4.966-17.059,9.858-17.059,9.858s9.212-3.361,15.742-5.018c14.5-3.827,77.863-18.398,94.029-28.834
			c20.868-13.544,31.073-32.309,31.093-35.646c5.238,7.525,1.846,14.081-1.141,18.557c-3.001,4.378-0.464,6.535-1.706,7.726
			c-0.691,0.808-4.3-0.385-7.276,2.776s-4.002,5.837-7.67,9.099c-3.683,3.163-0.578,6.45-2.904,9.214
			c-2.341,2.665-5.139-1.981-8.654,0.248c-3.501,2.328-5.506,3.832-11.636,6.846c-6.031,2.999-2.202,7.091-4.547,8.341
			c-2.217,1.434-6.686-4.282-11.305-1.994c-4.619,2.289-22.421,14.68-28.535,18.499c-6.213,3.834-0.945,12.264-2.892,14.164
			c-1.241,1.191-5.635-2.616-9.581-2.649c-2.319,0.034-4.507,1.666-6.736,3.708c-5.968,5.516-0.439,10.876-3.008,12.665
			c-2.569,1.788-4.543-1.36-9.185-2.706s-8.467,1.535-13.442-2.794c-23.91-20.573-20.532-43.902-20.532-43.902
			c1.591-2.96,2.596-2.298,7.379-1.376c4.768,0.822,12.915,1.254,18.73-3.229c5.716-4.469,11.613-16.038,10.879-21.085
			c-0.734-5.047-2.271-8.663,4.333-9.119c2.701-0.191,10.673-1.653,19.889-3.6l4.212-0.916
			C161.517,149.523,161.517,149.523,183.326,144.532z"/>
		<path fill="#3F9500" d="M183.326,144.532c3.321-0.786,6.035-1.585,8.084-2.085c4.367-1.241,9.398-2.782,16.039-5.061
			c8.746-3.091,18.392-8.334,21.996-9.262c6.332-1.628,12.332,0.025,12.332,0.025c2.947,2.199-20.807,20.912-26.509,25.481
			c-14.678,11.634-61.189,23.956-94.614,38.013c-11.909,4.966-17.059,9.858-17.059,9.858s9.212-3.361,15.742-5.018
			c14.5-3.827,77.863-18.398,94.029-28.834c20.868-13.544,31.073-32.309,31.093-35.646c5.238,7.525,1.846,14.081-1.141,18.557
			c-3.001,4.378-0.464,6.535-1.706,7.726c-0.691,0.808-4.3-0.385-7.276,2.776s-4.002,5.837-7.67,9.099
			c-3.683,3.163-0.578,6.45-2.904,9.214c-2.341,2.665-5.139-1.981-8.654,0.248c-3.501,2.328-5.506,3.832-11.636,6.846
			c-6.031,2.999-2.202,7.091-4.547,8.341c-2.217,1.434-6.686-4.282-11.305-1.994c-4.619,2.289-22.421,14.68-28.535,18.499
			c-6.213,3.834-0.945,12.264-2.892,14.164c-1.241,1.191-5.635-2.616-9.581-2.649c-2.319,0.034-4.507,1.666-6.736,3.708
			c-5.968,5.516-0.439,10.876-3.008,12.665c-2.569,1.788-4.543-1.36-9.185-2.706s-8.467,1.535-13.442-2.794
			c-23.91-20.573-20.532-43.902-20.532-43.902c1.591-2.96,2.596-2.298,7.379-1.376c4.768,0.822,12.915,1.254,18.73-3.229
			c5.716-4.469,11.613-16.038,10.879-21.085c-0.734-5.047-2.271-8.663,4.333-9.119c2.701-0.191,10.673-1.653,19.889-3.6l4.212-0.916
			C161.517,149.523,161.517,149.523,183.326,144.532z"/>
	</g>
	<g>
		<g>
			<g>
				<path fill="none" stroke="#1D1D1B" stroke-width="3" d="M155.135,164.7c-0.198,0.029-0.396,0.058-0.608-0.013
					c-1.047-0.252-1.799-1.254-1.646-2.287l2.706-14.743c0.252-1.047,1.254-1.799,2.287-1.646c1.047,0.252,1.799,1.254,1.646,2.287
					l-2.706,14.743C156.647,163.974,155.927,164.584,155.135,164.7z"/>
			</g>
			<g>
				<path fill="none" stroke="#1D1D1B" stroke-width="3" d="M164.177,160.858c-0.198,0.029-0.396,0.058-0.608-0.013
					c-1.047-0.252-1.799-1.254-1.646-2.287l2.12-11.828c0.252-1.047,1.254-1.799,2.287-1.646c1.047,0.252,1.799,1.254,1.646,2.287
					l-2.12,11.828C165.688,160.133,164.968,160.743,164.177,160.858z"/>
			</g>
			<g>
				<path fill="none" stroke="#1D1D1B" stroke-width="3" d="M171.764,158.138c-0.198,0.029-0.396,0.058-0.608-0.013
					c-1.047-0.252-1.799-1.254-1.646-2.287l2.008-11.206c0.252-1.047,1.254-1.799,2.287-1.646c1.047,0.252,1.799,1.254,1.646,2.287
					l-2.008,11.206C173.275,157.413,172.556,158.023,171.764,158.138z"/>
			</g>
			<g>
				<path fill="none" stroke="#1D1D1B" stroke-width="3" d="M180.294,153.563c-0.198,0.029-0.396,0.058-0.608-0.013
					c-1.047-0.252-1.799-1.254-1.646-2.287l1.632-8.928c0.252-1.047,1.254-1.799,2.287-1.646c1.047,0.252,1.799,1.254,1.646,2.287
					l-1.632,8.928C181.806,152.837,181.086,153.447,180.294,153.563z"/>
			</g>
		</g>
		<g>
			<g>
				<path fill="#FFFF00" d="M155.135,164.7c-0.198,0.029-0.396,0.058-0.608-0.013c-1.047-0.252-1.799-1.254-1.646-2.287
					l2.706-14.743c0.252-1.047,1.254-1.799,2.287-1.646c1.047,0.252,1.799,1.254,1.646,2.287l-2.706,14.743
					C156.647,163.974,155.927,164.584,155.135,164.7z"/>
			</g>
			<g>
				<path fill="#FFFF00" d="M164.177,160.858c-0.198,0.029-0.396,0.058-0.608-0.013c-1.047-0.252-1.799-1.254-1.646-2.287
					l2.12-11.828c0.252-1.047,1.254-1.799,2.287-1.646c1.047,0.252,1.799,1.254,1.646,2.287l-2.12,11.828
					C165.688,160.133,164.968,160.743,164.177,160.858z"/>
			</g>
			<g>
				<path fill="#FFFF00" d="M171.764,158.138c-0.198,0.029-0.396,0.058-0.608-0.013c-1.047-0.252-1.799-1.254-1.646-2.287
					l2.008-11.206c0.252-1.047,1.254-1.799,2.287-1.646c1.047,0.252,1.799,1.254,1.646,2.287l-2.008,11.206
					C173.275,157.413,172.556,158.023,171.764,158.138z"/>
			</g>
			<g>
				<path fill="#FFFF00" d="M180.294,153.563c-0.198,0.029-0.396,0.058-0.608-0.013c-1.047-0.252-1.799-1.254-1.646-2.287
					l1.632-8.928c0.252-1.047,1.254-1.799,2.287-1.646c1.047,0.252,1.799,1.254,1.646,2.287l-1.632,8.928
					C181.806,152.837,181.086,153.447,180.294,153.563z"/>
			</g>
		</g>
	</g>
</g>
<g>
	<circle fill="#D80027" cx="191.5" cy="65.2" r="41"/>
	<polygon fill="#F0F0F0" points="212.9,58 198.6,58 198.6,43.8 184.4,43.8 184.4,58 170.1,58 170.1,72.3 184.4,72.3 184.4,86.5 
		198.6,86.5 198.6,72.3 212.9,72.3 	"/>
</g>
<ellipse fill="none" stroke="#000000" stroke-width="1.4754" stroke-miterlimit="10" cx="191.6" cy="65.2" rx="40.8" ry="40.6"/>
<g>
	<path d="M18.281,126v-1.533h2.48v1.729c0,0.957,0.082,1.629,0.244,2.017s0.469,0.581,0.918,0.581s0.747-0.159,0.894-0.478
		s0.22-0.84,0.22-1.562s-0.13-1.353-0.391-1.89s-0.674-1.099-1.24-1.685l-1.27-1.309c-0.592-0.619-1.053-1.26-1.382-1.924
		s-0.493-1.432-0.493-2.305c0-1.419,0.273-2.474,0.82-3.164s1.488-1.035,2.822-1.035s2.238,0.402,2.71,1.206
		s0.708,1.978,0.708,3.521v1.064H22.91v-1.23c0-0.833-0.072-1.431-0.215-1.792s-0.418-0.542-0.825-0.542s-0.7,0.137-0.879,0.41
		s-0.269,0.684-0.269,1.23s0.091,0.983,0.273,1.309s0.511,0.742,0.986,1.25l1.416,1.533c0.709,0.768,1.245,1.546,1.606,2.334
		s0.542,1.647,0.542,2.578c0,1.608-0.27,2.796-0.811,3.564c-0.541,0.769-1.486,1.152-2.837,1.152s-2.292-0.428-2.822-1.284
		C18.546,128.889,18.281,127.64,18.281,126z"/>
	<path d="M33.828,129.832c-0.592,0.798-1.523,1.196-2.793,1.196s-2.218-0.425-2.847-1.274s-0.942-2.071-0.942-3.667v-7.49
		c0-2.559,0.67-4.157,2.012-4.795c0.495-0.234,1.094-0.352,1.797-0.352c2.416,0,3.623,1.523,3.623,4.57v2.363h-2.529v-2.197
		c0-0.885-0.075-1.519-0.225-1.899s-0.443-0.571-0.879-0.571s-0.739,0.202-0.908,0.605s-0.254,1.022-0.254,1.855v8.027
		c0,0.924,0.082,1.585,0.244,1.982s0.459,0.595,0.889,0.595s0.726-0.201,0.889-0.605s0.244-1.071,0.244-2.002v-2.461h2.568v2.432
		C34.716,127.806,34.42,129.035,33.828,129.832z"/>
	<path d="M36.845,130.833v-17.187h2.617v6.953h2.344v-6.953h2.617v17.187h-2.617v-7.988h-2.344v7.988H36.845z"/>
	<path d="M48.398,130.833l-2.1-17.187h2.344l1.26,12.246l1.602-12.246h2.109l1.611,12.246l1.113-12.246h2.354l-1.973,17.187h-2.607
		l-1.523-11.425l-1.582,11.425H48.398z"/>
	<path d="M60.556,130.833v-17.187h5.762v2.256h-3.145v5h2.988v2.207h-2.988v5.468h3.262v2.256H60.556z"/>
	<path d="M68.623,130.833v-17.187h2.617v17.187H68.623z"/>
	<path d="M73.583,130.833v-2.324l3.564-12.607h-3.242v-2.256h5.986v2.119l-3.564,12.812h3.486v2.256H73.583z"/>
	<path d="M81.826,130.833v-17.187h5.762v2.256h-3.145v5h2.988v2.207h-2.988v5.468h3.262v2.256H81.826z"/>
	<path d="M93.251,122.757l-0.84-0.039v8.115h-2.617v-17.187h4.326c0.898,0,1.569,0.181,2.012,0.542s0.734,0.866,0.874,1.514
		s0.21,1.494,0.21,2.539s-0.111,1.841-0.332,2.388s-0.631,0.915-1.23,1.104c0.592,0.104,1.006,0.504,1.24,1.201
		s0.352,2.147,0.352,4.351s0.033,3.387,0.098,3.549h-2.617c-0.065-0.13-0.098-2.184-0.098-6.162c0-0.762-0.091-1.268-0.273-1.519
		S93.805,122.771,93.251,122.757z M92.421,120.687h1.045c0.332,0,0.578-0.075,0.737-0.225s0.27-0.407,0.332-0.771
		s0.093-0.921,0.093-1.67v-0.107c0-0.931-0.078-1.54-0.234-1.826s-0.518-0.43-1.084-0.43h-0.889V120.687z"/>
	<path d="M18.613,154.833v-17.188h5.898v2.275H21.23v4.57h3.047v2.285H21.23v8.057L18.613,154.833L18.613,154.833z"/>
	<path d="M32.978,153.91c-0.599,0.746-1.561,1.118-2.886,1.118s-2.289-0.374-2.891-1.123c-0.602-0.748-0.903-1.91-0.903-3.486
		v-12.783h2.617v12.734c0,0.905,0.042,1.455,0.127,1.65s0.187,0.373,0.308,0.532c0.121,0.16,0.37,0.239,0.747,0.239
		s0.648-0.11,0.811-0.332c0.163-0.221,0.262-0.496,0.298-0.825c0.036-0.328,0.054-0.75,0.054-1.265v-12.734h2.617v12.783
		C33.876,152.001,33.577,153.165,32.978,153.91z"/>
	<path d="M36.015,149.999v-1.533h2.48v1.729c0,0.957,0.082,1.63,0.244,2.017c0.163,0.388,0.469,0.581,0.918,0.581
		s0.747-0.159,0.894-0.479c0.146-0.318,0.22-0.84,0.22-1.562s-0.13-1.353-0.391-1.89s-0.674-1.099-1.24-1.685l-1.27-1.309
		c-0.592-0.618-1.053-1.26-1.382-1.924s-0.493-1.432-0.493-2.305c0-1.419,0.273-2.474,0.82-3.164
		c0.547-0.689,1.488-1.035,2.822-1.035s2.238,0.402,2.71,1.206c0.472,0.805,0.708,1.978,0.708,3.521v1.064h-2.412v-1.23
		c0-0.833-0.072-1.431-0.215-1.792s-0.418-0.542-0.825-0.542s-0.7,0.137-0.879,0.41s-0.269,0.684-0.269,1.23
		s0.091,0.983,0.273,1.309s0.511,0.742,0.986,1.25l1.416,1.533c0.709,0.769,1.245,1.547,1.606,2.334
		c0.361,0.788,0.542,1.647,0.542,2.578c0,1.608-0.27,2.797-0.811,3.564c-0.541,0.769-1.486,1.152-2.837,1.152
		s-2.292-0.428-2.822-1.284C36.28,152.889,36.015,151.64,36.015,149.999z"/>
	<path d="M44.853,149.999v-1.533h2.48v1.729c0,0.957,0.082,1.63,0.244,2.017c0.163,0.388,0.469,0.581,0.918,0.581
		s0.747-0.159,0.894-0.479c0.146-0.318,0.22-0.84,0.22-1.562s-0.13-1.353-0.391-1.89s-0.674-1.099-1.24-1.685l-1.27-1.309
		c-0.592-0.618-1.053-1.26-1.382-1.924s-0.493-1.432-0.493-2.305c0-1.419,0.273-2.474,0.82-3.164
		c0.547-0.689,1.488-1.035,2.822-1.035s2.238,0.402,2.71,1.206c0.472,0.805,0.708,1.978,0.708,3.521v1.064h-2.412v-1.23
		c0-0.833-0.072-1.431-0.215-1.792s-0.418-0.542-0.825-0.542s-0.7,0.137-0.879,0.41s-0.269,0.684-0.269,1.23
		s0.091,0.983,0.273,1.309s0.511,0.742,0.986,1.25l1.416,1.533c0.709,0.769,1.245,1.547,1.606,2.334
		c0.361,0.788,0.542,1.647,0.542,2.578c0,1.608-0.27,2.797-0.811,3.564c-0.541,0.769-1.486,1.152-2.837,1.152
		s-2.292-0.428-2.822-1.284C45.118,152.889,44.853,151.64,44.853,149.999z"/>
	<path d="M61.386,142.06c0,1.85-0.501,2.985-1.504,3.408c1.224,0.41,1.836,1.762,1.836,4.053v0.439
		c-0.013,1.726-0.314,2.969-0.903,3.73s-1.551,1.143-2.886,1.143H54.13v-17.188h3.721c1.283,0,2.191,0.298,2.725,0.894
		s0.804,1.594,0.811,2.993L61.386,142.06L61.386,142.06z M56.748,144.599h0.967c0.449,0,0.744-0.143,0.884-0.43
		c0.14-0.286,0.21-0.875,0.21-1.768v-1.035c-0.006-0.664-0.098-1.108-0.273-1.333s-0.479-0.337-0.908-0.337h-0.879L56.748,144.599
		L56.748,144.599z M56.748,152.802h0.928c0.521,0,0.885-0.179,1.094-0.537c0.208-0.357,0.312-0.999,0.312-1.924v-1.387
		c0-0.872-0.084-1.489-0.254-1.851s-0.495-0.542-0.977-0.542h-1.104L56.748,152.802L56.748,152.802z"/>
	<path d="M62.978,154.833l2.451-17.188h3.457l2.607,17.188h-2.441l-0.41-3.066h-2.773l-0.371,3.066H62.978z M68.369,149.667
		l-1.152-8.633h-0.039l-1.055,8.633H68.369z"/>
	<path d="M73.291,154.833v-17.188h2.617v14.961h3.311v2.227H73.291z"/>
	<path d="M80.722,154.833v-17.188h2.617v14.961h3.311v2.227H80.722z"/>
	<path d="M88.154,154.833v-17.188h5.762v2.256h-3.145v5h2.988v2.207h-2.988v5.469h3.262v2.256L88.154,154.833L88.154,154.833z"/>
	<path d="M99.58,146.757l-0.84-0.039v8.115h-2.617v-17.188h4.326c0.898,0,1.569,0.181,2.012,0.542s0.734,0.866,0.874,1.514
		c0.14,0.648,0.21,1.494,0.21,2.539s-0.111,1.841-0.332,2.388s-0.631,0.915-1.23,1.104c0.592,0.104,1.006,0.505,1.24,1.201
		c0.234,0.697,0.352,2.147,0.352,4.351s0.033,3.388,0.098,3.55h-2.617c-0.065-0.13-0.098-2.184-0.098-6.162
		c0-0.762-0.091-1.268-0.273-1.519C100.501,146.902,100.133,146.771,99.58,146.757z M98.75,144.687h1.045
		c0.332,0,0.578-0.074,0.737-0.225c0.16-0.149,0.27-0.406,0.332-0.771c0.062-0.364,0.093-0.921,0.093-1.67v-0.107
		c0-0.931-0.078-1.539-0.234-1.826c-0.156-0.286-0.518-0.43-1.084-0.43H98.75V144.687z"/>
	<path d="M18.613,178.833v-17.188h3.857c1.263,0,2.179,0.373,2.749,1.118c0.57,0.746,0.854,1.845,0.854,3.296l0.01,7.754
		c0,1.732-0.287,3.002-0.859,3.809c-0.573,0.808-1.52,1.211-2.842,1.211H18.613z M21.23,176.802h0.859
		c0.482,0,0.832-0.156,1.05-0.469s0.327-0.885,0.327-1.719l-0.01-8.486c0-0.892-0.109-1.526-0.327-1.904
		c-0.218-0.377-0.594-0.566-1.128-0.566H21.23V176.802z"/>
	<path d="M28.437,178.833v-17.188h5.762v2.256h-3.145v5h2.988v2.207h-2.988v5.469h3.262v2.256L28.437,178.833L28.437,178.833z"/>
	<path d="M36.064,173.999v-1.533h2.48v1.729c0,0.957,0.082,1.63,0.244,2.017c0.163,0.388,0.469,0.581,0.918,0.581
		s0.747-0.159,0.894-0.479c0.146-0.318,0.22-0.84,0.22-1.562s-0.13-1.353-0.391-1.89s-0.674-1.099-1.24-1.685l-1.27-1.309
		c-0.592-0.618-1.053-1.26-1.382-1.924s-0.493-1.432-0.493-2.305c0-1.419,0.273-2.474,0.82-3.164
		c0.547-0.689,1.488-1.035,2.822-1.035s2.238,0.402,2.71,1.206c0.472,0.805,0.708,1.978,0.708,3.521v1.064h-2.412v-1.23
		c0-0.833-0.072-1.431-0.215-1.792s-0.418-0.542-0.825-0.542s-0.7,0.137-0.879,0.41s-0.269,0.684-0.269,1.23
		s0.091,0.983,0.273,1.309s0.511,0.742,0.986,1.25l1.416,1.533c0.709,0.769,1.245,1.547,1.606,2.334
		c0.361,0.788,0.542,1.647,0.542,2.578c0,1.608-0.27,2.797-0.811,3.564c-0.541,0.769-1.486,1.152-2.837,1.152
		s-2.292-0.428-2.822-1.284C36.329,176.889,36.064,175.64,36.064,173.999z"/>
	<path d="M54.365,177.881c-0.619,0.766-1.489,1.147-2.612,1.147s-1.996-0.34-2.617-1.021c-0.622-0.68-0.933-1.671-0.933-2.974
		v-3.066h2.529v2.939c0,0.951,0.153,1.53,0.459,1.738c0.137,0.092,0.306,0.137,0.508,0.137c0.397,0,0.659-0.162,0.786-0.488
		c0.127-0.325,0.19-0.84,0.19-1.543v-13.105h2.617v12.979C55.292,176.03,54.983,177.116,54.365,177.881z"/>
	<path d="M56.992,178.833l2.451-17.188H62.9l2.607,17.188h-2.441l-0.41-3.066h-2.773l-0.371,3.066H56.992z M62.382,173.667
		l-1.152-8.633h-0.039l-1.055,8.633H62.382z"/>
	<path d="M67.304,178.833v-17.188h2.617v6.953h2.344v-6.953h2.617v17.188h-2.617v-7.988h-2.344v7.988H67.304z"/>
	<path d="M80.917,170.757l-0.84-0.039v8.115H77.46v-17.188h4.326c0.898,0,1.569,0.181,2.012,0.542s0.734,0.866,0.874,1.514
		c0.14,0.648,0.21,1.494,0.21,2.539s-0.111,1.841-0.332,2.388s-0.631,0.915-1.23,1.104c0.592,0.104,1.006,0.505,1.24,1.201
		c0.234,0.697,0.352,2.147,0.352,4.351s0.033,3.388,0.098,3.55h-2.617c-0.065-0.13-0.098-2.184-0.098-6.162
		c0-0.762-0.091-1.268-0.273-1.519C81.839,170.902,81.471,170.771,80.917,170.757z M80.087,168.687h1.045
		c0.332,0,0.578-0.074,0.737-0.225c0.16-0.149,0.27-0.406,0.332-0.771c0.062-0.364,0.093-0.921,0.093-1.67v-0.107
		c0-0.931-0.078-1.539-0.234-1.826c-0.156-0.286-0.518-0.43-1.084-0.43h-0.889V168.687z"/>
	<path d="M87.324,178.833v-17.188h5.762v2.256h-3.145v5h2.988v2.207h-2.988v5.469h3.262v2.256L87.324,178.833L87.324,178.833z"/>
	<path d="M94.951,173.999v-1.533h2.48v1.729c0,0.957,0.082,1.63,0.244,2.017c0.163,0.388,0.469,0.581,0.918,0.581
		s0.747-0.159,0.894-0.479c0.146-0.318,0.22-0.84,0.22-1.562s-0.13-1.353-0.391-1.89s-0.674-1.099-1.24-1.685l-1.27-1.309
		c-0.592-0.618-1.053-1.26-1.382-1.924s-0.493-1.432-0.493-2.305c0-1.419,0.273-2.474,0.82-3.164
		c0.547-0.689,1.488-1.035,2.822-1.035s2.238,0.402,2.71,1.206c0.472,0.805,0.708,1.978,0.708,3.521v1.064H99.58v-1.23
		c0-0.833-0.072-1.431-0.215-1.792s-0.418-0.542-0.825-0.542s-0.7,0.137-0.879,0.41s-0.269,0.684-0.269,1.23
		s0.091,0.983,0.273,1.309s0.511,0.742,0.986,1.25l1.416,1.533c0.709,0.769,1.245,1.547,1.606,2.334
		c0.361,0.788,0.542,1.647,0.542,2.578c0,1.608-0.27,2.797-0.811,3.564c-0.541,0.769-1.486,1.152-2.837,1.152
		s-2.292-0.428-2.822-1.284C95.216,176.889,94.951,175.64,94.951,173.999z"/>
</g>
</svg>
