<?xml version="1.0" encoding="utf-8"?>
<!-- Generator: Adobe Illustrator 17.0.0, SVG Export Plug-In . SVG Version: 6.00 Build 0)  -->
<!DOCTYPE svg PUBLIC "-//W3C//DTD SVG 1.1//EN" "http://www.w3.org/Graphics/SVG/1.1/DTD/svg11.dtd">
<svg version="1.1" id="Layer_1" xmlns="http://www.w3.org/2000/svg" xmlns:xlink="http://www.w3.org/1999/xlink" x="0px" y="0px"
	 width="256px" height="256px" viewBox="0 0 256 256" enable-background="new 0 0 256 256" xml:space="preserve">
<path fill="#FFFFFF" d="M192.1,10.3c-17.1,0-32.4,8-42.3,20.6h-0.3v0.3c-7.1,9.1-11.4,20.6-11.4,33c0,29.7,24.2,53.9,53.9,53.9
	s54-24.2,54-53.9S221.9,10.3,192.1,10.3z"/>
<path d="M192,10.3c-17.1,0-32.4,8-42.3,20.6h-0.3v0.3c-7.1,9.1-11.4,20.6-11.4,33c0,29.7,24.2,53.9,53.9,53.9s53.9-24.2,53.9-53.9
	S221.7,10.3,192,10.3z M208.6,100.9l-23.1-3L183.7,78l17.6-10.7L217,82.4L208.6,100.9z M171.2,103.3L151.9,89l-2.1-14.7l11.8-7.4
	L181.5,78l1.9,20.2L171.2,103.3z M149.1,72.2L142,57.4l9.3-15.3l9.7,2l-0.2,20.8L149.1,72.2z M188.3,19l21.3,2.9l7.3,13.6l-16.1,7.9
	l-16.5-11.5L188.3,19z M231.4,74.4l-12.6,6.7l-16.9-16.2l0.2-19.7l16-7.9L232.3,50L231.4,74.4z M233.5,74.9l1-24.5l7.1-0.9
	c1.4,4.7,2.1,9.6,2.1,14.7c0,4.6-0.6,9-1.7,13.2L233.5,74.9z M240.9,47.4l-7.1,0.9l-14.6-13.1L212,21.9l6.1-2.4
	C228.7,25.7,236.9,35.6,240.9,47.4z M178.8,14.2l7.4,4.1L182,32.1L162.3,42l-10.5-2.1l-0.2-8.1C158.5,23.4,167.9,17,178.8,14.2z
	 M149.7,40.5l-8.5,14.1c1.4-7.3,4.3-14.1,8.4-20L149.7,40.5z M140.5,59.2l7.1,14.9l2.1,14.8l-2.9,0.4c-4.1-7.4-6.5-16-6.5-25.1
	C140.3,62.5,140.4,60.8,140.5,59.2z M172.4,112.1l-0.2-6.8l12.5-5.3l23.9,3.1l4.4,8.4c-6.4,2.9-13.5,4.5-21,4.5
	C185.1,115.9,178.5,114.5,172.4,112.1z"/>
<g>
	<path fill="#FCFF00" stroke="#000000" stroke-miterlimit="10" d="M146.2,157.8c0,0,0,1.3,1.1,1.6c1.1,0.2,1.5-1.5,1.5-2
		c26.1-1.1,26.6-22.9,26.6-31.4s-3.9-17.6-10.6-17.6c-6.7,0-10.3,8-10.3,8v-2h-54v2c0,0-3-8-9.7-8s-10.3,9.1-10.3,17.6
		s0.6,30.2,26.8,31.4c0,0.5,0.4,2.1,1.5,2c1.1-0.3,1.2-1.6,1.2-1.6s4.8,5.4,10,5.7c0,2.8-0.2,6.7-0.2,6.7s1.8,2.8,3.8,2.9
		c0,0.7,0,1.5,0,1.5s-2.9,1.6-2.9,3.6s2.9,4.2,2.9,4.2v2.6c0,0-4,1.1-5,1.5c0,1.1,0,5.1,0,5.1l-2,1.6v4.2h-6v6h-1v11h-2v2.6
		c0,0-4-0.3-4,4.1s0,22.3,0,22.3h-1.2c0,0-4.2,4-2.5,11c6.5,0,50,0,56.5,0c1.8-7-2.5-11-2.5-11h-3.4c0,0,0-17.9,0-22.3s-2-4.1-2-4.1
		v-2.6h-4v-11h-2v-6h-4v-4.2l-2-1.6c0,0,0-3.9,0-5.1c0-0.3-4-1.5-4-1.5v-2.6c0,0,2.9-2.3,2.9-4.2s-2.9-3.6-2.9-3.6s0-0.8,0-1.5
		c3-0.2,3.8-2.9,3.8-2.9s-0.2-3.9-0.2-6.7C141.4,163.2,146.2,157.8,146.2,157.8z M154,123c1.6,0.2,2.6-1.4,1.6-4
		c0,0,3.8-7.2,8.2-7.4c4.4-0.2,7.6,3.8,8.4,16.8c1.2,26.8-22.4,27.4-24.8,27.4C154.6,145.6,154,123,154,123z M84,128.4
		c0.8-13,4-17,8.4-16.8s8.2,7.4,8.2,7.4c-1,2.6,0,4.2,1.6,4c0,0-0.6,22.6,6.6,32.8C106.4,155.8,82.8,155.2,84,128.4z"/>
	<path fill="#FFFFFF" d="M142.8,117h-19.6c0,0,1.6,22.9,2.8,28.3s11.6,5.7,13.4-1.3C141.2,137,142,120,142.8,117z"/>
	<polygon fill="#FFFFFF" points="127,165 133.3,165 133.2,171 127,171 	"/>
	<rect x="127" y="177" fill="#FFFFFF" width="4" height="2"/>
	<rect x="127" y="183" fill="#FFFFFF" width="4" height="2"/>
	<rect x="127" y="187" fill="#FFFFFF" width="6" height="5"/>
	<rect x="127" y="194" fill="#FFFFFF" width="7" height="3"/>
	<rect x="127" y="203" fill="#FFFFFF" width="9" height="2"/>
	<rect x="127" y="218" fill="#FFFFFF" width="12" height="2"/>
	<path fill="#FF9F00" d="M110,137.4c0.8,6.6,3.7,18.3,15,20.2c0.9,0.3-0.3,2.8-5.8,2.2s-12.2-7.1-13-22.4c0-3.9,1.6-4.9,1.6-4.9
		S110,133,110,137.4z"/>
	<path fill="#ABD100" d="M132,160c0,0,13.7-3.3,13.6-29.5c0-3.9,4.3-3.6,4.3-0.2C149.8,133.9,150.8,164.3,132,160z"/>
	<path fill="#FF9F00" d="M108,243v-22c0,0,0-1.7,1.3-1.7c2,0,1.7,0.9,1.7,2s0,21.7,0,21.7H108z"/>
	<path fill="#ABD100" d="M141,243c0,0,0-20.6,0-22s0.5-2.1,2.5-2.1s3.5,1.4,3.5,2.4s0,21.7,0,21.7L141,243L141,243z"/>
	<rect x="110.3" y="215.2" fill="#FF9F00" width="1.9" height="1.9"/>
	<rect x="111" y="204" fill="#FF9F00" width="4" height="10"/>
	<rect x="115" y="198" fill="#FF9F00" width="2" height="5"/>
	<rect x="118" y="194" fill="#FF9F00" width="3" height="3"/>
	<rect x="134" y="194" fill="#ABD100" width="2" height="3"/>
	<rect x="136" y="198" fill="#ABD100" width="3" height="4"/>
	<rect x="137" y="204" fill="#ABD100" width="6" height="10"/>
	<rect x="139" y="214" fill="#ABD100" width="4" height="3"/>
	<rect x="122" y="187" fill="#FF9F00" width="2" height="3"/>
	<rect x="133" y="187" fill="#ABD100" width="3" height="5"/>
	<path fill="#FF9F00" d="M121.2,168.1c0,0,0.2,1.5,1.3,2.4c0.6,0.5,1.3,1,2.8,0.6c-2.9,2.1-4.3-1-4.3-1S121,169.4,121.2,168.1z"/>
	<path fill="#FF9F00" d="M125.9,181.2c0,0-2-0.5-2.5-2.2c-0.6-0.8-2-0.2-1.7,0.6S122.8,181.4,125.9,181.2z"/>
	<path fill="#ABD100" d="M130.5,181.1c0,0,2-0.3,2.2-1.7s1.7-0.9,1.7,0.2C134.3,180.6,131.6,181.1,130.5,181.1z"/>
	<path fill="#ABD100" d="M131.7,172.1c0,0,1.6-0.2,1.6-2.2c0-1.3,1.7-1.4,1.8-0.1C135.1,171.2,132.8,172.4,131.7,172.1z"/>
	<line fill="none" stroke="#000000" stroke-miterlimit="10" x1="111" y1="203.5" x2="143" y2="203.5"/>
	<line fill="none" stroke="#000000" stroke-miterlimit="10" x1="116" y1="197.5" x2="138" y2="197.5"/>
	<line fill="none" stroke="#000000" stroke-miterlimit="10" x1="118" y1="192.5" x2="136" y2="192.5"/>
	<line fill="none" stroke="#000000" stroke-miterlimit="10" x1="119" y1="187.5" x2="136" y2="187.5"/>
	<line fill="none" stroke="#000000" stroke-miterlimit="10" x1="124" y1="181.5" x2="133" y2="181.5"/>
	<line fill="none" stroke="#000000" stroke-miterlimit="10" x1="124" y1="173.5" x2="132" y2="173.5"/>
	<line fill="none" stroke="#000000" stroke-miterlimit="10" x1="120" y1="164.5" x2="136" y2="164.5"/>
	<line fill="none" stroke="#000000" stroke-miterlimit="10" x1="110" y1="214.5" x2="145" y2="214.5"/>
	<line fill="none" stroke="#000000" stroke-miterlimit="10" x1="104" y1="243.5" x2="151" y2="243.5"/>
</g>
<g>
	<g>
		<path fill="#D80027" d="M191.7,106.5c22.6,0,41-18.3,41-41s-18.3-41-41-41c-22.6,0-41,18.3-41,41S169.1,106.5,191.7,106.5"/>
		<polygon fill="#F0F0F0" points="213.1,58.4 198.8,58.4 198.8,44.2 184.6,44.2 184.6,58.4 170.3,58.4 170.3,72.6 184.6,72.6 
			184.6,86.9 198.8,86.9 198.8,72.6 213.1,72.6 		"/>
	</g>
	<g>
		<ellipse fill="none" stroke="#000000" stroke-miterlimit="10" cx="191.6" cy="65.2" rx="40.8" ry="40.6"/>
	</g>
</g>
<g>
	<g>
		<path fill="none" stroke="#FFFF00" stroke-width="3" d="M7.166,198.605v-2.583h4.178v2.912c0,1.612,0.137,2.744,0.411,3.396
			c0.274,0.653,0.79,0.979,1.546,0.979c0.757,0,1.259-0.269,1.505-0.807c0.247-0.537,0.37-1.414,0.37-2.632
			c0-1.217-0.22-2.278-0.658-3.183s-1.135-1.852-2.089-2.838l-2.139-2.204c-0.998-1.042-1.774-2.122-2.328-3.241
			c-0.554-1.118-0.831-2.412-0.831-3.882c0-2.391,0.46-4.168,1.382-5.33c0.921-1.162,2.505-1.744,4.754-1.744
			c2.248,0,3.77,0.678,4.565,2.032s1.192,3.331,1.192,5.93v1.793h-4.063v-2.072c0-1.403-0.121-2.41-0.362-3.019
			s-0.705-0.913-1.39-0.913c-0.686,0-1.179,0.23-1.48,0.69c-0.302,0.461-0.453,1.152-0.453,2.073s0.154,1.656,0.461,2.204
			c0.307,0.549,0.861,1.25,1.661,2.105l2.385,2.583c1.195,1.294,2.098,2.604,2.706,3.932c0.609,1.327,0.913,2.774,0.913,4.343
			c0,2.709-0.455,4.71-1.365,6.004c-0.911,1.295-2.503,1.941-4.779,1.941s-3.86-0.721-4.754-2.163
			C7.612,203.472,7.166,201.369,7.166,198.605z"/>
		<path fill="none" stroke="#FFFF00" stroke-width="3" d="M33.354,205.062c-0.998,1.343-2.566,2.015-4.705,2.015
			s-3.737-0.716-4.795-2.146c-1.059-1.432-1.587-3.49-1.587-6.177v-12.618c0-4.31,1.129-7.002,3.389-8.076
			c0.833-0.396,1.842-0.593,3.027-0.593c4.068,0,6.103,2.566,6.103,7.699v3.98h-4.261v-3.701c0-1.491-0.126-2.558-0.378-3.199
			s-0.746-0.963-1.48-0.963s-1.245,0.34-1.53,1.021c-0.285,0.68-0.428,1.722-0.428,3.125v13.522c0,1.557,0.137,2.67,0.411,3.339
			s0.773,1.004,1.497,1.004c0.724,0,1.223-0.34,1.497-1.021c0.274-0.68,0.411-1.804,0.411-3.372v-4.146h4.327v4.097
			C34.851,201.648,34.352,203.719,33.354,205.062z"/>
		<path fill="none" stroke="#FFFF00" stroke-width="3" d="M38.438,206.748v-28.952h4.409v11.713h3.948v-11.713h4.409v28.952h-4.409
			v-13.456h-3.948v13.456H38.438z"/>
		<path fill="none" stroke="#FFFF00" stroke-width="3" d="M57.898,206.748l-3.537-28.952h3.948l2.122,20.629l2.698-20.629h3.553
			l2.714,20.629l1.875-20.629h3.964l-3.323,28.952h-4.393l-2.566-19.246l-2.665,19.246H57.898z"/>
		<path fill="none" stroke="#FFFF00" stroke-width="3" d="M78.378,206.748v-28.952h9.706v3.8h-5.297v8.423h5.034v3.718h-5.034v9.212
			h5.494v3.8h-9.903V206.748z"/>
		<path fill="none" stroke="#FFFF00" stroke-width="3" d="M91.966,206.748v-28.952h4.409v28.952H91.966z"/>
		<path fill="none" stroke="#FFFF00" stroke-width="3" d="M100.323,206.748v-3.915l6.004-21.237h-5.461v-3.8h10.084v3.569
			l-6.004,21.583h5.873v3.8H100.323z"/>
		<path fill="none" stroke="#FFFF00" stroke-width="3" d="M114.207,206.748v-28.952h9.706v3.8h-5.297v8.423h5.034v3.718h-5.034
			v9.212h5.494v3.8h-9.903V206.748z"/>
		<path fill="none" stroke="#FFFF00" stroke-width="3" d="M133.453,193.144l-1.414-0.065v13.67h-4.409v-28.952h7.288
			c1.513,0,2.643,0.305,3.389,0.913c0.745,0.608,1.236,1.459,1.472,2.55c0.236,1.091,0.354,2.517,0.354,4.277
			s-0.187,3.101-0.559,4.021c-0.373,0.922-1.064,1.541-2.073,1.859c0.998,0.175,1.694,0.85,2.09,2.023
			c0.395,1.173,0.592,3.616,0.592,7.328c0,3.713,0.055,5.706,0.164,5.979h-4.408c-0.109-0.219-0.164-3.679-0.164-10.38
			c0-1.283-0.154-2.136-0.461-2.558C135.005,193.388,134.386,193.166,133.453,193.144z M132.056,189.656h1.76
			c0.56,0,0.973-0.126,1.242-0.378s0.455-0.686,0.56-1.3c0.104-0.614,0.156-1.552,0.156-2.812v-0.182
			c0-1.567-0.132-2.593-0.396-3.076c-0.263-0.482-0.871-0.724-1.826-0.724h-1.496V189.656z"/>
		<path fill="none" stroke="#FFFF00" stroke-width="3" d="M150.282,206.748v-28.952h5.478l4.112,21.155l3.866-21.155h5.511v28.952
			h-3.932v-10.791l0.165-9.903l-3.899,20.562h-3.504l-4.062-20.562l0.164,9.903v10.791H150.282z"/>
		<path fill="none" stroke="#FFFF00" stroke-width="3" d="M173.608,206.748v-28.952h9.705v3.8h-5.297v8.423h5.034v3.718h-5.034
			v9.212h5.494v3.8h-9.902V206.748z"/>
		<path fill="none" stroke="#FFFF00" stroke-width="3" d="M187.196,206.748v-28.952h4.408v28.952H187.196z"/>
		<path fill="none" stroke="#FFFF00" stroke-width="3" d="M195.536,198.605v-2.583h4.179v2.912c0,1.612,0.137,2.744,0.411,3.396
			c0.274,0.653,0.79,0.979,1.546,0.979c0.757,0,1.259-0.269,1.506-0.807c0.246-0.537,0.37-1.414,0.37-2.632
			c0-1.217-0.22-2.278-0.658-3.183s-1.135-1.852-2.089-2.838l-2.139-2.204c-0.998-1.042-1.774-2.122-2.328-3.241
			c-0.554-1.118-0.83-2.412-0.83-3.882c0-2.391,0.46-4.168,1.382-5.33c0.921-1.162,2.505-1.744,4.754-1.744
			c2.248,0,3.77,0.678,4.564,2.032s1.192,3.331,1.192,5.93v1.793h-4.062v-2.072c0-1.403-0.121-2.41-0.362-3.019
			s-0.705-0.913-1.39-0.913c-0.686,0-1.18,0.23-1.48,0.69c-0.302,0.461-0.453,1.152-0.453,2.073s0.154,1.656,0.461,2.204
			c0.307,0.549,0.861,1.25,1.661,2.105l2.386,2.583c1.195,1.294,2.098,2.604,2.706,3.932s0.913,2.774,0.913,4.343
			c0,2.709-0.455,4.71-1.365,6.004c-0.911,1.295-2.504,1.941-4.779,1.941s-3.86-0.721-4.754-2.163S195.536,201.369,195.536,198.605z
			"/>
		<path fill="none" stroke="#FFFF00" stroke-width="3" d="M212.479,206.748v-25.136h-3.389v-3.816h11.038v3.816h-3.257v25.136
			H212.479z"/>
		<path fill="none" stroke="#FFFF00" stroke-width="3" d="M222.564,206.748v-28.952h9.705v3.8h-5.297v8.423h5.034v3.718h-5.034
			v9.212h5.494v3.8h-9.902V206.748z"/>
		<path fill="none" stroke="#FFFF00" stroke-width="3" d="M241.811,193.144l-1.414-0.065v13.67h-4.409v-28.952h7.288
			c1.513,0,2.643,0.305,3.389,0.913c0.745,0.608,1.236,1.459,1.472,2.55c0.236,1.091,0.354,2.517,0.354,4.277
			s-0.187,3.101-0.559,4.021c-0.373,0.922-1.064,1.541-2.073,1.859c0.998,0.175,1.694,0.85,2.09,2.023
			c0.395,1.173,0.592,3.616,0.592,7.328c0,3.713,0.055,5.706,0.164,5.979h-4.408c-0.109-0.219-0.164-3.679-0.164-10.38
			c0-1.283-0.154-2.136-0.461-2.558C243.362,193.388,242.743,193.166,241.811,193.144z M240.413,189.656h1.76
			c0.56,0,0.973-0.126,1.242-0.378s0.455-0.686,0.56-1.3c0.104-0.614,0.156-1.552,0.156-2.812v-0.182
			c0-1.567-0.132-2.593-0.396-3.076c-0.263-0.482-0.871-0.724-1.826-0.724h-1.496V189.656z"/>
		<path fill="none" stroke="#FFFF00" stroke-width="3" d="M55.43,238.607c-1.066,0-1.933-0.087-2.598-0.26
			c-0.666-0.173-1.229-0.49-1.688-0.95c-0.46-0.46-0.784-1.084-0.971-1.873c-0.187-0.788-0.28-1.807-0.28-3.056v-14.506
			c0-1.248,0.093-2.267,0.28-3.056c0.187-0.788,0.51-1.412,0.971-1.873c0.46-0.46,1.023-0.776,1.688-0.95
			c0.665-0.173,1.531-0.26,2.598-0.26v2.734c-0.812,0-1.331,0.212-1.559,0.636c-0.228,0.424-0.342,1.329-0.342,2.714v14.615
			c0,1.386,0.114,2.29,0.342,2.714c0.228,0.424,0.747,0.636,1.559,0.636V238.607z"/>
		<path fill="none" stroke="#FFFF00" stroke-width="3" d="M57.918,229.98v-2.146h3.473v2.42c0,1.34,0.114,2.281,0.342,2.823
			c0.228,0.543,0.656,0.813,1.285,0.813s1.046-0.223,1.251-0.67c0.205-0.446,0.308-1.176,0.308-2.188s-0.183-1.894-0.547-2.646
			c-0.365-0.752-0.943-1.538-1.736-2.358l-1.777-1.832c-0.83-0.865-1.475-1.764-1.935-2.693c-0.46-0.93-0.69-2.005-0.69-3.227
			c0-1.986,0.383-3.463,1.148-4.43c0.766-0.966,2.083-1.449,3.951-1.449c1.868,0,3.133,0.563,3.794,1.688
			c0.661,1.126,0.991,2.769,0.991,4.929v1.49h-3.377v-1.723c0-1.166-0.101-2.003-0.301-2.509c-0.201-0.506-0.586-0.759-1.155-0.759
			c-0.57,0-0.98,0.191-1.23,0.574c-0.251,0.383-0.376,0.957-0.376,1.723s0.127,1.377,0.383,1.832
			c0.255,0.456,0.715,1.039,1.381,1.75l1.982,2.146c0.993,1.076,1.743,2.165,2.249,3.268c0.506,1.104,0.759,2.307,0.759,3.609
			c0,2.252-0.378,3.915-1.135,4.99c-0.757,1.076-2.081,1.613-3.972,1.613c-1.892,0-3.208-0.599-3.951-1.798
			C58.29,234.025,57.918,232.277,57.918,229.98z"/>
		<path fill="none" stroke="#FFFF00" stroke-width="3" d="M79.985,235.456c-0.839,1.044-2.186,1.565-4.04,1.565
			c-1.855,0-3.204-0.523-4.047-1.572c-0.843-1.048-1.265-2.675-1.265-4.881v-17.896h3.664V230.5c0,1.268,0.059,2.037,0.178,2.311
			c0.118,0.273,0.262,0.522,0.431,0.745c0.168,0.224,0.517,0.335,1.046,0.335c0.528,0,0.907-0.154,1.135-0.465
			c0.228-0.31,0.367-0.694,0.417-1.155c0.05-0.46,0.075-1.05,0.075-1.771v-17.828h3.664v17.896
			C81.243,232.783,80.823,234.413,79.985,235.456z"/>
		<path fill="none" stroke="#FFFF00" stroke-width="3" d="M84.715,236.748v-24.062h5.523c1.868,0,3.146,0.567,3.835,1.702
			c0.688,1.135,1.05,2.828,1.087,5.079v0.506c0,2.389-0.34,4.2-1.019,5.435s-1.939,1.853-3.78,1.853h-1.982v9.488L84.715,236.748
			L84.715,236.748z M88.379,224.238h1.258c0.774,0,1.278-0.298,1.511-0.896c0.232-0.597,0.349-1.733,0.349-3.411v-0.465
			c-0.009-1.422-0.135-2.438-0.376-3.049c-0.242-0.61-0.727-0.916-1.456-0.916H88.38L88.379,224.238L88.379,224.238z"/>
		<path fill="none" stroke="#FFFF00" stroke-width="3" d="M97.622,236.748v-24.062h8.066v3.158h-4.402v7h4.184v3.09h-4.184v7.656
			h4.566v3.158L97.622,236.748L97.622,236.748z"/>
		<path fill="none" stroke="#FFFF00" stroke-width="3" d="M113.618,225.441l-1.176-0.055v11.361h-3.664v-24.062h6.057
			c1.258,0,2.196,0.253,2.816,0.759s1.027,1.213,1.224,2.119c0.196,0.907,0.294,2.092,0.294,3.555s-0.155,2.577-0.465,3.343
			s-0.884,1.281-1.723,1.545c0.829,0.146,1.408,0.707,1.736,1.682c0.328,0.976,0.492,3.006,0.492,6.091
			c0,3.086,0.045,4.742,0.137,4.97h-3.664c-0.091-0.182-0.137-3.058-0.137-8.627c0-1.066-0.128-1.774-0.383-2.126
			C114.907,225.645,114.392,225.46,113.618,225.441z M112.456,222.543h1.463c0.465,0,0.809-0.104,1.032-0.314
			c0.223-0.209,0.378-0.569,0.465-1.08c0.086-0.51,0.13-1.289,0.13-2.338v-0.15c0-1.303-0.109-2.155-0.328-2.557
			c-0.219-0.4-0.725-0.602-1.518-0.602h-1.244L112.456,222.543L112.456,222.543z"/>
		<path fill="none" stroke="#FFFF00" stroke-width="3" d="M127.604,236.748v-24.062h3.664v20.945h4.635v3.117L127.604,236.748
			L127.604,236.748z"/>
		<path fill="none" stroke="#FFFF00" stroke-width="3" d="M138.008,236.748v-24.062h8.066v3.158h-4.402v7h4.184v3.09h-4.184v7.656
			h4.566v3.158L138.008,236.748L138.008,236.748z"/>
		<path fill="none" stroke="#FFFF00" stroke-width="3" d="M148.07,236.748l3.432-24.062h4.84l3.65,24.062h-3.418L156,232.455h-3.883
			l-0.52,4.293H148.07z M155.617,229.516l-1.613-12.086h-0.055l-1.477,12.086H155.617z"/>
		<path fill="none" stroke="#FFFF00" stroke-width="3" d="M166.965,236.994c-1.513,0-2.695-0.595-3.548-1.784
			s-1.278-3.023-1.278-5.503v-10.459c0-2.224,0.436-3.919,1.306-5.086c0.87-1.166,2.254-1.75,4.149-1.75
			c2.36,0,3.86,0.88,4.498,2.639c0.383,1.058,0.574,2.502,0.574,4.334v1.709h-3.418v-2.516c0-1.103-0.116-1.877-0.349-2.324
			c-0.232-0.446-0.67-0.67-1.312-0.67s-1.096,0.267-1.36,0.8s-0.396,1.479-0.396,2.837v10.432c0,1.577,0.118,2.676,0.355,3.295
			c0.237,0.62,0.699,0.93,1.388,0.93s1.176-0.332,1.463-0.998c0.287-0.665,0.431-1.786,0.431-3.363v-3.24h-1.846v-2.666h5.045
			v13.139h-1.641l-0.561-2.365c-0.191,0.812-0.61,1.449-1.258,1.914S167.812,236.994,166.965,236.994z"/>
		<path fill="none" stroke="#FFFF00" stroke-width="3" d="M185.326,235.456c-0.839,1.044-2.186,1.565-4.04,1.565
			s-3.204-0.523-4.047-1.572c-0.843-1.048-1.265-2.675-1.265-4.881v-17.896h3.664V230.5c0,1.268,0.06,2.037,0.178,2.311
			s0.262,0.522,0.431,0.745c0.169,0.224,0.518,0.335,1.046,0.335s0.907-0.154,1.135-0.465c0.228-0.31,0.367-0.694,0.417-1.155
			c0.05-0.46,0.075-1.05,0.075-1.771v-17.828h3.664v17.896C186.584,232.783,186.165,234.413,185.326,235.456z"/>
		<path fill="none" stroke="#FFFF00" stroke-width="3" d="M190.057,236.748v-24.062h8.066v3.158h-4.402v7h4.184v3.09h-4.184v7.656
			h4.566v3.158L190.057,236.748L190.057,236.748z"/>
		<path fill="none" stroke="#FFFF00" stroke-width="3" d="M200.584,238.607v-2.734c0.812,0,1.331-0.212,1.559-0.636
			s0.342-1.328,0.342-2.714v-14.615c0-1.385-0.114-2.29-0.342-2.714s-0.747-0.636-1.559-0.636v-2.734
			c1.066,0,1.933,0.087,2.598,0.26c0.665,0.174,1.226,0.49,1.682,0.95c0.456,0.461,0.777,1.085,0.964,1.873
			c0.187,0.789,0.28,1.808,0.28,3.056v14.506c0,1.249-0.094,2.268-0.28,3.056c-0.187,0.789-0.508,1.413-0.964,1.873
			s-1.017,0.777-1.682,0.95S201.65,238.607,200.584,238.607z"/>
	</g>
	<g>
		<path d="M7.166,198.605v-2.583h4.178v2.912c0,1.612,0.137,2.744,0.411,3.396c0.274,0.653,0.79,0.979,1.546,0.979
			c0.757,0,1.259-0.269,1.505-0.807c0.247-0.537,0.37-1.414,0.37-2.632c0-1.217-0.22-2.278-0.658-3.183s-1.135-1.852-2.089-2.838
			l-2.139-2.204c-0.998-1.042-1.774-2.122-2.328-3.241c-0.554-1.118-0.831-2.412-0.831-3.882c0-2.391,0.46-4.168,1.382-5.33
			c0.921-1.162,2.505-1.744,4.754-1.744c2.248,0,3.77,0.678,4.565,2.032s1.192,3.331,1.192,5.93v1.793h-4.063v-2.072
			c0-1.403-0.121-2.41-0.362-3.019s-0.705-0.913-1.39-0.913c-0.686,0-1.179,0.23-1.48,0.69c-0.302,0.461-0.453,1.152-0.453,2.073
			s0.154,1.656,0.461,2.204c0.307,0.549,0.861,1.25,1.661,2.105l2.385,2.583c1.195,1.294,2.098,2.604,2.706,3.932
			c0.609,1.327,0.913,2.774,0.913,4.343c0,2.709-0.455,4.71-1.365,6.004c-0.911,1.295-2.503,1.941-4.779,1.941
			s-3.86-0.721-4.754-2.163C7.612,203.472,7.166,201.369,7.166,198.605z"/>
		<path d="M33.354,205.062c-0.998,1.343-2.566,2.015-4.705,2.015s-3.737-0.716-4.795-2.146c-1.059-1.432-1.587-3.49-1.587-6.177
			v-12.618c0-4.31,1.129-7.002,3.389-8.076c0.833-0.396,1.842-0.593,3.027-0.593c4.068,0,6.103,2.566,6.103,7.699v3.98h-4.261
			v-3.701c0-1.491-0.126-2.558-0.378-3.199s-0.746-0.963-1.48-0.963s-1.245,0.34-1.53,1.021c-0.285,0.68-0.428,1.722-0.428,3.125
			v13.522c0,1.557,0.137,2.67,0.411,3.339s0.773,1.004,1.497,1.004c0.724,0,1.223-0.34,1.497-1.021
			c0.274-0.68,0.411-1.804,0.411-3.372v-4.146h4.327v4.097C34.851,201.648,34.352,203.719,33.354,205.062z"/>
		<path d="M38.438,206.748v-28.952h4.409v11.713h3.948v-11.713h4.409v28.952h-4.409v-13.456h-3.948v13.456H38.438z"/>
		<path d="M57.898,206.748l-3.537-28.952h3.948l2.122,20.629l2.698-20.629h3.553l2.714,20.629l1.875-20.629h3.964l-3.323,28.952
			h-4.393l-2.566-19.246l-2.665,19.246H57.898z"/>
		<path d="M78.378,206.748v-28.952h9.706v3.8h-5.297v8.423h5.034v3.718h-5.034v9.212h5.494v3.8h-9.903V206.748z"/>
		<path d="M91.966,206.748v-28.952h4.409v28.952H91.966z"/>
		<path d="M100.323,206.748v-3.915l6.004-21.237h-5.461v-3.8h10.084v3.569l-6.004,21.583h5.873v3.8H100.323z"/>
		<path d="M114.207,206.748v-28.952h9.706v3.8h-5.297v8.423h5.034v3.718h-5.034v9.212h5.494v3.8h-9.903V206.748z"/>
		<path d="M133.453,193.144l-1.414-0.065v13.67h-4.409v-28.952h7.288c1.513,0,2.643,0.305,3.389,0.913
			c0.745,0.608,1.236,1.459,1.472,2.55c0.236,1.091,0.354,2.517,0.354,4.277s-0.187,3.101-0.559,4.021
			c-0.373,0.922-1.064,1.541-2.073,1.859c0.998,0.175,1.694,0.85,2.09,2.023c0.395,1.173,0.592,3.616,0.592,7.328
			c0,3.713,0.055,5.706,0.164,5.979h-4.408c-0.109-0.219-0.164-3.679-0.164-10.38c0-1.283-0.154-2.136-0.461-2.558
			C135.005,193.388,134.386,193.166,133.453,193.144z M132.056,189.656h1.76c0.56,0,0.973-0.126,1.242-0.378s0.455-0.686,0.56-1.3
			c0.104-0.614,0.156-1.552,0.156-2.812v-0.182c0-1.567-0.132-2.593-0.396-3.076c-0.263-0.482-0.871-0.724-1.826-0.724h-1.496
			V189.656z"/>
		<path d="M150.282,206.748v-28.952h5.478l4.112,21.155l3.866-21.155h5.511v28.952h-3.932v-10.791l0.165-9.903l-3.899,20.562h-3.504
			l-4.062-20.562l0.164,9.903v10.791H150.282z"/>
		<path d="M173.608,206.748v-28.952h9.705v3.8h-5.297v8.423h5.034v3.718h-5.034v9.212h5.494v3.8h-9.902V206.748z"/>
		<path d="M187.196,206.748v-28.952h4.408v28.952H187.196z"/>
		<path d="M195.536,198.605v-2.583h4.179v2.912c0,1.612,0.137,2.744,0.411,3.396c0.274,0.653,0.79,0.979,1.546,0.979
			c0.757,0,1.259-0.269,1.506-0.807c0.246-0.537,0.37-1.414,0.37-2.632c0-1.217-0.22-2.278-0.658-3.183s-1.135-1.852-2.089-2.838
			l-2.139-2.204c-0.998-1.042-1.774-2.122-2.328-3.241c-0.554-1.118-0.83-2.412-0.83-3.882c0-2.391,0.46-4.168,1.382-5.33
			c0.921-1.162,2.505-1.744,4.754-1.744c2.248,0,3.77,0.678,4.564,2.032s1.192,3.331,1.192,5.93v1.793h-4.062v-2.072
			c0-1.403-0.121-2.41-0.362-3.019s-0.705-0.913-1.39-0.913c-0.686,0-1.18,0.23-1.48,0.69c-0.302,0.461-0.453,1.152-0.453,2.073
			s0.154,1.656,0.461,2.204c0.307,0.549,0.861,1.25,1.661,2.105l2.386,2.583c1.195,1.294,2.098,2.604,2.706,3.932
			s0.913,2.774,0.913,4.343c0,2.709-0.455,4.71-1.365,6.004c-0.911,1.295-2.504,1.941-4.779,1.941s-3.86-0.721-4.754-2.163
			S195.536,201.369,195.536,198.605z"/>
		<path d="M212.479,206.748v-25.136h-3.389v-3.816h11.038v3.816h-3.257v25.136H212.479z"/>
		<path d="M222.564,206.748v-28.952h9.705v3.8h-5.297v8.423h5.034v3.718h-5.034v9.212h5.494v3.8h-9.902V206.748z"/>
		<path d="M241.811,193.144l-1.414-0.065v13.67h-4.409v-28.952h7.288c1.513,0,2.643,0.305,3.389,0.913
			c0.745,0.608,1.236,1.459,1.472,2.55c0.236,1.091,0.354,2.517,0.354,4.277s-0.187,3.101-0.559,4.021
			c-0.373,0.922-1.064,1.541-2.073,1.859c0.998,0.175,1.694,0.85,2.09,2.023c0.395,1.173,0.592,3.616,0.592,7.328
			c0,3.713,0.055,5.706,0.164,5.979h-4.408c-0.109-0.219-0.164-3.679-0.164-10.38c0-1.283-0.154-2.136-0.461-2.558
			C243.362,193.388,242.743,193.166,241.811,193.144z M240.413,189.656h1.76c0.56,0,0.973-0.126,1.242-0.378s0.455-0.686,0.56-1.3
			c0.104-0.614,0.156-1.552,0.156-2.812v-0.182c0-1.567-0.132-2.593-0.396-3.076c-0.263-0.482-0.871-0.724-1.826-0.724h-1.496
			V189.656z"/>
		<path d="M55.43,238.607c-1.066,0-1.933-0.087-2.598-0.26c-0.666-0.173-1.229-0.49-1.688-0.95c-0.46-0.46-0.784-1.084-0.971-1.873
			c-0.187-0.788-0.28-1.807-0.28-3.056v-14.506c0-1.248,0.093-2.267,0.28-3.056c0.187-0.788,0.51-1.412,0.971-1.873
			c0.46-0.46,1.023-0.776,1.688-0.95c0.665-0.173,1.531-0.26,2.598-0.26v2.734c-0.812,0-1.331,0.212-1.559,0.636
			c-0.228,0.424-0.342,1.329-0.342,2.714v14.615c0,1.386,0.114,2.29,0.342,2.714c0.228,0.424,0.747,0.636,1.559,0.636V238.607z"/>
		<path d="M57.918,229.98v-2.146h3.473v2.42c0,1.34,0.114,2.281,0.342,2.823c0.228,0.543,0.656,0.813,1.285,0.813
			s1.046-0.223,1.251-0.67c0.205-0.446,0.308-1.176,0.308-2.188s-0.183-1.894-0.547-2.646c-0.365-0.752-0.943-1.538-1.736-2.358
			l-1.777-1.832c-0.83-0.865-1.475-1.764-1.935-2.693c-0.46-0.93-0.69-2.005-0.69-3.227c0-1.986,0.383-3.463,1.148-4.43
			c0.766-0.966,2.083-1.449,3.951-1.449c1.868,0,3.133,0.563,3.794,1.688c0.661,1.126,0.991,2.769,0.991,4.929v1.49h-3.377v-1.723
			c0-1.166-0.101-2.003-0.301-2.509c-0.201-0.506-0.586-0.759-1.155-0.759c-0.57,0-0.98,0.191-1.23,0.574
			c-0.251,0.383-0.376,0.957-0.376,1.723s0.127,1.377,0.383,1.832c0.255,0.456,0.715,1.039,1.381,1.75l1.982,2.146
			c0.993,1.076,1.743,2.165,2.249,3.268c0.506,1.104,0.759,2.307,0.759,3.609c0,2.252-0.378,3.915-1.135,4.99
			c-0.757,1.076-2.081,1.613-3.972,1.613c-1.892,0-3.208-0.599-3.951-1.798C58.29,234.025,57.918,232.277,57.918,229.98z"/>
		<path d="M79.985,235.456c-0.839,1.044-2.186,1.565-4.04,1.565c-1.855,0-3.204-0.523-4.047-1.572
			c-0.843-1.048-1.265-2.675-1.265-4.881v-17.896h3.664V230.5c0,1.268,0.059,2.037,0.178,2.311c0.118,0.273,0.262,0.522,0.431,0.745
			c0.168,0.224,0.517,0.335,1.046,0.335c0.528,0,0.907-0.154,1.135-0.465c0.228-0.31,0.367-0.694,0.417-1.155
			c0.05-0.46,0.075-1.05,0.075-1.771v-17.828h3.664v17.896C81.243,232.783,80.823,234.413,79.985,235.456z"/>
		<path d="M84.715,236.748v-24.062h5.523c1.868,0,3.146,0.567,3.835,1.702c0.688,1.135,1.05,2.828,1.087,5.079v0.506
			c0,2.389-0.34,4.2-1.019,5.435s-1.939,1.853-3.78,1.853h-1.982v9.488L84.715,236.748L84.715,236.748z M88.379,224.238h1.258
			c0.774,0,1.278-0.298,1.511-0.896c0.232-0.597,0.349-1.733,0.349-3.411v-0.465c-0.009-1.422-0.135-2.438-0.376-3.049
			c-0.242-0.61-0.727-0.916-1.456-0.916H88.38L88.379,224.238L88.379,224.238z"/>
		<path d="M97.622,236.748v-24.062h8.066v3.158h-4.402v7h4.184v3.09h-4.184v7.656h4.566v3.158L97.622,236.748L97.622,236.748z"/>
		<path d="M113.618,225.441l-1.176-0.055v11.361h-3.664v-24.062h6.057c1.258,0,2.196,0.253,2.816,0.759s1.027,1.213,1.224,2.119
			c0.196,0.907,0.294,2.092,0.294,3.555s-0.155,2.577-0.465,3.343s-0.884,1.281-1.723,1.545c0.829,0.146,1.408,0.707,1.736,1.682
			c0.328,0.976,0.492,3.006,0.492,6.091c0,3.086,0.045,4.742,0.137,4.97h-3.664c-0.091-0.182-0.137-3.058-0.137-8.627
			c0-1.066-0.128-1.774-0.383-2.126C114.907,225.645,114.392,225.46,113.618,225.441z M112.456,222.543h1.463
			c0.465,0,0.809-0.104,1.032-0.314c0.223-0.209,0.378-0.569,0.465-1.08c0.086-0.51,0.13-1.289,0.13-2.338v-0.15
			c0-1.303-0.109-2.155-0.328-2.557c-0.219-0.4-0.725-0.602-1.518-0.602h-1.244L112.456,222.543L112.456,222.543z"/>
		<path d="M127.604,236.748v-24.062h3.664v20.945h4.635v3.117L127.604,236.748L127.604,236.748z"/>
		<path d="M138.008,236.748v-24.062h8.066v3.158h-4.402v7h4.184v3.09h-4.184v7.656h4.566v3.158L138.008,236.748L138.008,236.748z"/>
		<path d="M148.07,236.748l3.432-24.062h4.84l3.65,24.062h-3.418L156,232.455h-3.883l-0.52,4.293H148.07z M155.617,229.516
			l-1.613-12.086h-0.055l-1.477,12.086H155.617z"/>
		<path d="M166.965,236.994c-1.513,0-2.695-0.595-3.548-1.784s-1.278-3.023-1.278-5.503v-10.459c0-2.224,0.436-3.919,1.306-5.086
			c0.87-1.166,2.254-1.75,4.149-1.75c2.36,0,3.86,0.88,4.498,2.639c0.383,1.058,0.574,2.502,0.574,4.334v1.709h-3.418v-2.516
			c0-1.103-0.116-1.877-0.349-2.324c-0.232-0.446-0.67-0.67-1.312-0.67s-1.096,0.267-1.36,0.8s-0.396,1.479-0.396,2.837v10.432
			c0,1.577,0.118,2.676,0.355,3.295c0.237,0.62,0.699,0.93,1.388,0.93s1.176-0.332,1.463-0.998c0.287-0.665,0.431-1.786,0.431-3.363
			v-3.24h-1.846v-2.666h5.045v13.139h-1.641l-0.561-2.365c-0.191,0.812-0.61,1.449-1.258,1.914S167.812,236.994,166.965,236.994z"/>
		<path d="M185.326,235.456c-0.839,1.044-2.186,1.565-4.04,1.565s-3.204-0.523-4.047-1.572c-0.843-1.048-1.265-2.675-1.265-4.881
			v-17.896h3.664V230.5c0,1.268,0.06,2.037,0.178,2.311s0.262,0.522,0.431,0.745c0.169,0.224,0.518,0.335,1.046,0.335
			s0.907-0.154,1.135-0.465c0.228-0.31,0.367-0.694,0.417-1.155c0.05-0.46,0.075-1.05,0.075-1.771v-17.828h3.664v17.896
			C186.584,232.783,186.165,234.413,185.326,235.456z"/>
		<path d="M190.057,236.748v-24.062h8.066v3.158h-4.402v7h4.184v3.09h-4.184v7.656h4.566v3.158L190.057,236.748L190.057,236.748z"/>
		<path d="M200.584,238.607v-2.734c0.812,0,1.331-0.212,1.559-0.636s0.342-1.328,0.342-2.714v-14.615
			c0-1.385-0.114-2.29-0.342-2.714s-0.747-0.636-1.559-0.636v-2.734c1.066,0,1.933,0.087,2.598,0.26
			c0.665,0.174,1.226,0.49,1.682,0.95c0.456,0.461,0.777,1.085,0.964,1.873c0.187,0.789,0.28,1.808,0.28,3.056v14.506
			c0,1.249-0.094,2.268-0.28,3.056c-0.187,0.789-0.508,1.413-0.964,1.873s-1.017,0.777-1.682,0.95S201.65,238.607,200.584,238.607z"
			/>
	</g>
</g>
</svg>
