<?xml version="1.0" encoding="utf-8"?>
<!-- Generator: Adobe Illustrator 17.0.0, SVG Export Plug-In . SVG Version: 6.00 Build 0)  -->
<!DOCTYPE svg PUBLIC "-//W3C//DTD SVG 1.1//EN" "http://www.w3.org/Graphics/SVG/1.1/DTD/svg11.dtd">
<svg version="1.1" id="Layer_1" xmlns="http://www.w3.org/2000/svg" xmlns:xlink="http://www.w3.org/1999/xlink" x="0px" y="0px"
	 width="256px" height="256px" viewBox="0 0 256 256" enable-background="new 0 0 256 256" xml:space="preserve">
<path fill="#FFFFFF" d="M192.1,10.3c-17.1,0-32.4,8-42.3,20.6h-0.3v0.3c-7.1,9.1-11.4,20.6-11.4,33c0,29.7,24.2,53.9,53.9,53.9
	s54-24.2,54-53.9S221.9,10.3,192.1,10.3z"/>
<path d="M192,10.3c-17.1,0-32.4,8-42.3,20.6h-0.3v0.3c-7.1,9.1-11.4,20.6-11.4,33c0,29.7,24.2,53.9,53.9,53.9s53.9-24.2,53.9-53.9
	S221.7,10.3,192,10.3z M208.6,100.9l-23.1-3L183.7,78l17.6-10.7L217,82.4L208.6,100.9z M171.2,103.3L151.9,89l-2.1-14.7l11.8-7.4
	L181.5,78l1.9,20.2L171.2,103.3z M149.1,72.2L142,57.4l9.3-15.3l9.7,2l-0.2,20.8L149.1,72.2z M188.3,19l21.3,2.9l7.3,13.6l-16.1,7.9
	l-16.5-11.5L188.3,19z M231.4,74.4l-12.6,6.7l-16.9-16.2l0.2-19.7l16-7.9L232.3,50L231.4,74.4z M233.5,74.9l1-24.5l7.1-0.9
	c1.4,4.7,2.1,9.6,2.1,14.7c0,4.6-0.6,9-1.7,13.2L233.5,74.9z M240.9,47.4l-7.1,0.9l-14.6-13.1L212,21.9l6.1-2.4
	C228.7,25.7,236.9,35.6,240.9,47.4z M178.8,14.2l7.4,4.1L182,32.1L162.3,42l-10.5-2.1l-0.2-8.1C158.5,23.4,167.9,17,178.8,14.2z
	 M149.7,40.5l-8.5,14.1c1.4-7.3,4.3-14.1,8.4-20L149.7,40.5z M140.5,59.2l7.1,14.9l2.1,14.8l-2.9,0.4c-4.1-7.4-6.5-16-6.5-25.1
	C140.3,62.5,140.4,60.8,140.5,59.2z M172.4,112.1l-0.2-6.8l12.5-5.3l23.9,3.1l4.4,8.4c-6.4,2.9-13.5,4.5-21,4.5
	C185.1,115.9,178.5,114.5,172.4,112.1z"/>
<g>
	<path fill="#FCFF00" stroke="#000000" stroke-miterlimit="10" d="M181.7,112c-0.3-0.4-0.8-0.5-1.3-0.5h-7.9c0.1,0,0.1-0.8,0.1-0.9
		c1.1,0,0.2-1.1,0.2-1.1H83.2c0,0-0.9,1.1,0.2,1.1c0,0.1,0,0.9,0.1,0.9h-7.9c-0.5,0-1,0.1-1.3,0.5s-0.4,0.8-0.3,1.3l11.3,50.6
		c0.2,0.7,0.8,1.6,1.6,1.6h9.4c0.4,0,0.9-0.5,1.2-0.8c0.3-0.3,0.5-0.9,0.5-1.3c0-0.2,0-17.2,9.1-20.3c0.2,0.9,1.1,1.6,2.1,1.6
		c1.2,0,2.2-1,2.2-2.2c0-0.1,0-0.2,0-0.4c2.8,1.2,6,2.3,9.4,3.2l0.1,2.1c0,0-2.5,0.3-2.5,2.7s3.2,3.4,3.2,3.4h1.9v10.7
		c0,0,1.1,0.9,0.2,1.3c-0.9,0.4-6.4,2.4-6.6,6.1c-0.2,3.7-1.4,31.9-7.3,42.9c-1.5,0-2.3,0-2.3,0v4h-4v25c0,0-1.1,0-2,0
		c-2.4,0-3,11-3,11h59c0,0-0.7-11-3-11c-0.9,0-3,0-3,0v-25h-3v-4c0,0-0.8,0-2.3,0c-5.9-11-7-39.2-7.2-42.9s-6.4-5.7-7.2-6.1
		c-0.9-0.4-0.3-1.3-0.3-1.3v-10.7h2.9c0,0,3.2-1,3.2-3.4s-2.5-2.6-2.5-2.6l0.1-2.1c3.4-0.9,6.5-2,9.4-3.2c0,0.1,0,0.2,0,0.3
		c0,1.2,1,2.2,2.2,2.2c1,0,1.9-0.7,2.1-1.6c9.2,3.1,9.1,20.1,9.1,20.2c0,0.4,0.2,1.2,0.5,1.5s0.7,0.8,1.2,0.8h9.4
		c0.8,0,1.4-0.9,1.6-1.6l11.3-50.4C182.1,113,182,112.4,181.7,112z M107.7,140.8v-0.1c-5.5,1.1-9.5,5.9-11.5,13.3
		c-1,3.5-1.3,6.5-1.4,8.5h-6.5l-10.6-48h6.8c2,6,7.9,18.2,23.6,26C107.9,140.6,107.8,140.7,107.7,140.8z M167.7,162.5h-6.5
		c-0.1-2-0.4-5.3-1.4-8.8c-2-7.3-6-12.2-11.5-13.2l0,0c-0.1,0-0.2,0-0.4-0.1c15.7-7.9,21.6-19.9,23.6-25.9h6.8L167.7,162.5z"/>
	<path fill="#FFFFFF" d="M120.3,110.6l32.7,0.2c0,0-0.2,7.8-11.1,7.8c-1.7,0-9.6-0.2-12.2-0.2C127,118.5,120.5,117.6,120.3,110.6z"
		/>
	<rect x="127" y="145" fill="#FFFFFF" width="4" height="1"/>
	<rect x="126" y="148" fill="#FFFFFF" width="6" height="2"/>
	<rect x="127" y="154" fill="#FFFFFF" width="3" height="9"/>
	<path fill="#ABD100" d="M139.4,212h-10.3l0.5-42h7.2c0,0-0.5,10.2,0.3,21.7C138,203.1,139.4,212,139.4,212z"/>
	<polygon fill="#FFFFFF" points="138.1,218 124.4,218 125.7,216 136.8,216 	"/>
	<path fill="#ABD100" d="M130.9,144h3.9l0.2,0.5c0,0,27.2-6.7,35.2-29.1c0.4-1.7-1.5-4.7-3.3,0c-2.8,7.6-17.3,23.2-35.8,25
		C127.7,141,128.7,144,130.9,144z"/>
	<rect x="131" y="145" fill="#ABD100" width="3" height="1"/>
	<rect x="132" y="148" fill="#ABD100" width="3" height="2"/>
	<rect x="130" y="154" fill="#ABD100" width="1" height="9"/>
	<path fill="#FFFFFF" d="M136.2,212h-10.3l0.5-42h7.2c0,0-0.5,10.2,0.3,21.7C134.7,203.1,136.2,212,136.2,212z"/>
	<rect x="137" y="212" fill="#ABD100" width="5" height="2"/>
	<rect x="138" y="214" fill="#ABD100" width="5" height="4"/>
	<rect x="140" y="218" fill="#ABD100" width="5" height="26"/>
	<path fill="#FF9F00" d="M112.5,212h3.6c0,0,3.6-12.5,3.6-20.5s0-21.6,0-21.6l-1,0.1c0,0-0.1,10.2-1,21.6
		C116.9,203.1,112.5,212,112.5,212z"/>
	<path fill="#FF9F00" d="M125.1,144h-3.9l-0.3,0.5c0,0-27.6-6.2-35.1-29.8c0.2,0.4-0.5-1.4,1.3-1.8c0.5-0.1,1.1,0.1,1.9,1.8
		c2.1,4.6,17.3,23.9,35.8,25.7C128.3,141,127.3,144,125.1,144z"/>
	<rect x="122" y="145" fill="#FF9F00" width="3" height="1"/>
	<rect x="121.3" y="148.4" fill="#FF9F00" width="1.4" height="1.4"/>
	<rect x="124" y="154" fill="#FF9F00" width="1" height="9"/>
	<rect x="111" y="212" fill="#FF9F00" width="4" height="2"/>
	<rect x="109" y="214" fill="#FF9F00" width="4" height="4"/>
	<rect x="108" y="218" fill="#FF9F00" width="2" height="26"/>
	<line fill="none" stroke="#957E78" stroke-miterlimit="10" x1="123" y1="153.5" x2="133" y2="153.5"/>
	<line fill="none" stroke="#957E78" stroke-miterlimit="10" x1="120" y1="145.5" x2="136" y2="145.5"/>
	<line fill="none" stroke="#957E78" stroke-miterlimit="10" x1="123" y1="164.5" x2="132" y2="164.5"/>
	<line fill="none" stroke="#957E78" stroke-miterlimit="10" x1="108" y1="214.5" x2="147" y2="214.5"/>
	<line fill="none" stroke="#957E78" stroke-miterlimit="10" x1="107" y1="218.5" x2="149" y2="218.5"/>
	<line fill="none" stroke="#957E78" stroke-miterlimit="10" x1="103" y1="243.5" x2="151" y2="243.5"/>
</g>
<g>
	<g>
		<ellipse fill="#272A9B" stroke="#000000" stroke-miterlimit="10" cx="191.6" cy="65.2" rx="40.8" ry="40.6"/>
	</g>
</g>
<g>
	<path d="M34.838,196.69v-2.583h4.178v2.912c0,1.612,0.137,2.744,0.411,3.396c0.274,0.653,0.79,0.979,1.546,0.979
		c0.757,0,1.259-0.269,1.505-0.807c0.247-0.537,0.37-1.414,0.37-2.632c0-1.217-0.22-2.278-0.658-3.183s-1.135-1.852-2.089-2.838
		l-2.139-2.204c-0.998-1.042-1.774-2.122-2.328-3.241c-0.554-1.118-0.831-2.412-0.831-3.882c0-2.391,0.46-4.168,1.382-5.33
		c0.921-1.162,2.505-1.744,4.754-1.744c2.248,0,3.77,0.678,4.565,2.032s1.192,3.331,1.192,5.93v1.793h-4.063v-2.072
		c0-1.403-0.121-2.41-0.362-3.019s-0.705-0.913-1.39-0.913c-0.686,0-1.179,0.23-1.48,0.69c-0.302,0.461-0.453,1.152-0.453,2.073
		s0.154,1.656,0.461,2.204c0.307,0.549,0.861,1.25,1.661,2.105l2.385,2.583c1.195,1.294,2.098,2.604,2.706,3.932
		c0.609,1.327,0.913,2.774,0.913,4.343c0,2.709-0.455,4.71-1.365,6.004c-0.911,1.295-2.503,1.941-4.779,1.941
		s-3.86-0.721-4.754-2.163C35.285,201.557,34.838,199.454,34.838,196.69z"/>
	<path d="M61.026,203.147c-0.998,1.343-2.566,2.015-4.705,2.015s-3.737-0.716-4.795-2.146c-1.059-1.432-1.587-3.49-1.587-6.177
		v-12.618c0-4.31,1.129-7.002,3.389-8.076c0.833-0.396,1.842-0.593,3.027-0.593c4.068,0,6.103,2.566,6.103,7.699v3.98h-4.261v-3.701
		c0-1.491-0.126-2.558-0.378-3.199s-0.746-0.963-1.48-0.963s-1.245,0.34-1.53,1.021c-0.285,0.68-0.428,1.722-0.428,3.125v13.522
		c0,1.557,0.137,2.67,0.411,3.339s0.773,1.004,1.497,1.004c0.724,0,1.223-0.34,1.497-1.021c0.274-0.68,0.411-1.804,0.411-3.372
		v-4.146h4.327v4.097C62.523,199.733,62.024,201.804,61.026,203.147z"/>
	<path d="M66.11,204.833v-28.952h4.409v11.713h3.948v-11.713h4.409v28.952h-4.409v-13.456h-3.948v13.456H66.11z"/>
	<path d="M85.57,204.833l-3.537-28.952h3.948l2.122,20.629l2.698-20.629h3.553l2.714,20.629l1.875-20.629h3.964l-3.323,28.952
		h-4.393l-2.566-19.246l-2.665,19.246H85.57z"/>
	<path d="M106.051,204.833v-28.952h9.706v3.8h-5.297v8.423h5.034v3.718h-5.034v9.212h5.494v3.8h-9.903V204.833z"/>
	<path d="M119.458,204.833v-28.952h6.498c2.127,0,3.671,0.628,4.63,1.884c0.96,1.256,1.439,3.106,1.439,5.552l0.017,13.062
		c0,2.917-0.482,5.056-1.447,6.415c-0.966,1.36-2.561,2.04-4.787,2.04L119.458,204.833L119.458,204.833z M123.866,201.411h1.448
		c0.812,0,1.401-0.263,1.769-0.789c0.367-0.526,0.551-1.491,0.551-2.896l-0.016-14.295c0-1.503-0.184-2.571-0.551-3.208
		c-0.368-0.636-1.001-0.954-1.9-0.954h-1.3L123.866,201.411L123.866,201.411z"/>
	<path d="M136.171,204.833v-28.952h4.409v28.952H136.171z"/>
	<path d="M144.512,196.69v-2.583h4.178v2.912c0,1.612,0.137,2.744,0.411,3.396c0.274,0.653,0.79,0.979,1.546,0.979
		c0.758,0,1.26-0.269,1.506-0.807c0.246-0.537,0.37-1.414,0.37-2.632c0-1.217-0.22-2.278-0.658-3.183s-1.135-1.852-2.089-2.838
		l-2.139-2.204c-0.998-1.042-1.773-2.122-2.328-3.241c-0.554-1.118-0.83-2.412-0.83-3.882c0-2.391,0.461-4.168,1.382-5.33
		s2.505-1.744,4.754-1.744c2.248,0,3.77,0.678,4.565,2.032s1.191,3.331,1.191,5.93v1.793h-4.062v-2.072
		c0-1.403-0.121-2.41-0.361-3.019c-0.242-0.608-0.705-0.913-1.391-0.913s-1.18,0.23-1.48,0.69c-0.302,0.461-0.453,1.152-0.453,2.073
		s0.154,1.656,0.461,2.204c0.307,0.549,0.861,1.25,1.662,2.105l2.385,2.583c1.195,1.294,2.098,2.604,2.706,3.932
		s0.913,2.774,0.913,4.343c0,2.709-0.455,4.71-1.365,6.004c-0.91,1.295-2.504,1.941-4.779,1.941s-3.859-0.721-4.754-2.163
		C144.958,201.557,144.512,199.454,144.512,196.69z"/>
	<path d="M170.7,203.147c-0.998,1.343-2.566,2.015-4.704,2.015c-2.139,0-3.738-0.716-4.796-2.146
		c-1.059-1.432-1.587-3.49-1.587-6.177v-12.618c0-4.31,1.129-7.002,3.389-8.076c0.833-0.396,1.842-0.593,3.026-0.593
		c4.068,0,6.103,2.566,6.103,7.699v3.98h-4.26v-3.701c0-1.491-0.127-2.558-0.379-3.199s-0.746-0.963-1.48-0.963
		s-1.244,0.34-1.529,1.021c-0.285,0.68-0.428,1.722-0.428,3.125v13.522c0,1.557,0.137,2.67,0.41,3.339
		c0.275,0.669,0.773,1.004,1.498,1.004c0.724,0,1.223-0.34,1.496-1.021c0.274-0.68,0.412-1.804,0.412-3.372v-4.146h4.326v4.097
		C172.197,199.733,171.697,201.804,170.7,203.147z"/>
	<path d="M175.783,204.833v-28.952h4.408v11.713h3.949v-11.713h4.408v28.952h-4.408v-13.456h-3.949v13.456H175.783z"/>
	<path d="M192.891,204.833v-28.952h9.706v3.8H197.3v8.423h5.034v3.718H197.3v9.212h5.494v3.8h-9.903V204.833z"/>
	<path d="M212.138,191.229l-1.415-0.065v13.67h-4.408v-28.952h7.287c1.514,0,2.643,0.305,3.389,0.913s1.236,1.459,1.473,2.55
		s0.354,2.517,0.354,4.277s-0.187,3.101-0.559,4.021c-0.373,0.922-1.064,1.541-2.073,1.859c0.998,0.175,1.694,0.85,2.089,2.023
		c0.395,1.173,0.593,3.616,0.593,7.328c0,3.713,0.055,5.706,0.164,5.979h-4.408c-0.11-0.219-0.165-3.679-0.165-10.38
		c0-1.283-0.153-2.136-0.461-2.558C213.689,191.473,213.07,191.251,212.138,191.229z M210.74,187.741h1.76
		c0.559,0,0.973-0.126,1.242-0.378c0.268-0.252,0.455-0.686,0.559-1.3s0.156-1.552,0.156-2.812v-0.182
		c0-1.567-0.131-2.593-0.395-3.076c-0.264-0.482-0.871-0.724-1.826-0.724h-1.496V187.741z"/>
	<path d="M78.011,238.833v-28.952h5.478l4.112,21.155l3.866-21.155h5.511v28.952h-3.932v-10.791l0.165-9.903l-3.899,20.562h-3.504
		l-4.063-20.562l0.165,9.903v10.791H78.011z"/>
	<path d="M101.337,238.833v-28.952h9.706v3.8h-5.297v8.423h5.034v3.718h-5.034v9.212h5.494v3.8h-9.903V238.833z"/>
	<path d="M114.925,238.833v-28.952h4.409v28.952H114.925z"/>
	<path d="M123.266,230.69v-2.583h4.178v2.912c0,1.612,0.137,2.744,0.411,3.396c0.274,0.653,0.79,0.979,1.546,0.979
		s1.259-0.269,1.505-0.807c0.247-0.537,0.371-1.414,0.371-2.632c0-1.217-0.221-2.278-0.658-3.183
		c-0.439-0.905-1.135-1.852-2.09-2.838l-2.138-2.204c-0.998-1.042-1.774-2.122-2.328-3.241c-0.554-1.118-0.831-2.412-0.831-3.882
		c0-2.391,0.46-4.168,1.382-5.33c0.921-1.162,2.505-1.744,4.754-1.744c2.248,0,3.77,0.678,4.564,2.032s1.192,3.331,1.192,5.93v1.793
		h-4.063v-2.072c0-1.403-0.12-2.41-0.361-3.019s-0.705-0.913-1.391-0.913s-1.179,0.23-1.48,0.69
		c-0.302,0.461-0.453,1.152-0.453,2.073s0.154,1.656,0.461,2.204c0.307,0.549,0.86,1.25,1.661,2.105l2.385,2.583
		c1.195,1.294,2.098,2.604,2.707,3.932c0.608,1.327,0.912,2.774,0.912,4.343c0,2.709-0.455,4.71-1.365,6.004
		c-0.91,1.295-2.503,1.941-4.778,1.941c-2.276,0-3.86-0.721-4.754-2.163C123.712,235.557,123.266,233.454,123.266,230.69z"/>
	<path d="M140.209,238.833v-25.136h-3.389v-3.816h11.039v3.816h-3.258v25.136H140.209z"/>
	<path d="M150.293,238.833v-28.952h9.706v3.8h-5.297v8.423h5.034v3.718h-5.034v9.212h5.494v3.8h-9.903V238.833z"/>
	<path d="M169.54,225.229l-1.415-0.065v13.67h-4.408v-28.952h7.287c1.514,0,2.643,0.305,3.389,0.913s1.236,1.459,1.473,2.55
		s0.354,2.517,0.354,4.277s-0.187,3.101-0.559,4.021c-0.373,0.922-1.064,1.541-2.073,1.859c0.998,0.175,1.694,0.85,2.089,2.023
		c0.395,1.173,0.593,3.616,0.593,7.328c0,3.713,0.055,5.706,0.164,5.979h-4.408c-0.11-0.219-0.165-3.679-0.165-10.38
		c0-1.283-0.153-2.136-0.461-2.558C171.092,225.473,170.473,225.251,169.54,225.229z M168.143,221.741h1.76
		c0.559,0,0.973-0.126,1.242-0.378c0.268-0.252,0.455-0.686,0.559-1.3s0.156-1.552,0.156-2.812v-0.182
		c0-1.567-0.131-2.593-0.395-3.076c-0.264-0.482-0.871-0.724-1.826-0.724h-1.496V221.741z"/>
</g>
<g>
	<g>
		<path fill="#FFFFFF" d="M154.949,71.294l1.838-12.891h2.593l1.956,12.891h-1.831l-0.308-2.3h-2.08l-0.278,2.3H154.949z
			 M158.992,67.419l-0.864-6.475h-0.029l-0.791,6.475H158.992z"/>
		<path fill="#FFFFFF" d="M162.684,71.294V58.403h1.963v11.221h2.482v1.67H162.684z"/>
		<path fill="#FFFFFF" d="M168.257,71.294V58.403h1.963v11.221h2.483v1.67H168.257z"/>
		<path fill="#FFFFFF" d="M173.516,67.668v-1.15h1.86v1.296c0,0.718,0.062,1.222,0.184,1.512c0.122,0.291,0.352,0.436,0.688,0.436
			s0.561-0.12,0.67-0.359c0.11-0.239,0.165-0.63,0.165-1.172s-0.098-1.015-0.293-1.417c-0.195-0.403-0.506-0.824-0.931-1.264
			l-0.952-0.981c-0.444-0.464-0.79-0.945-1.036-1.443c-0.247-0.498-0.37-1.074-0.37-1.729c0-1.064,0.205-1.855,0.615-2.373
			s1.116-0.776,2.117-0.776s1.678,0.302,2.032,0.905s0.531,1.483,0.531,2.64v0.798h-1.81V61.67c0-0.625-0.054-1.073-0.161-1.344
			c-0.107-0.271-0.313-0.407-0.618-0.407c-0.306,0-0.525,0.103-0.659,0.308c-0.135,0.205-0.202,0.513-0.202,0.923
			s0.068,0.737,0.205,0.981s0.384,0.557,0.74,0.938l1.062,1.15c0.532,0.576,0.935,1.16,1.205,1.75
			c0.271,0.591,0.406,1.235,0.406,1.934c0,1.206-0.202,2.097-0.607,2.673s-1.115,0.864-2.128,0.864
			c-1.014,0-1.719-0.321-2.116-0.963C173.715,69.835,173.516,68.899,173.516,67.668z"/>
		<path fill="#FFFFFF" d="M181.844,71.294l-2-12.891h1.868l0.842,5.823l0.521,4.102h0.051l0.447-4.102l0.703-5.823h1.831
			l-1.839,12.891H181.844z"/>
		<path fill="#FFFFFF" d="M187.476,71.294V58.403h4.321v1.692h-2.358v3.75h2.241V65.5h-2.241v4.102h2.446v1.692H187.476z"/>
		<path fill="#FFFFFF" d="M193.452,71.294V58.403h1.538l2.731,7.734l-0.139-3.516v-4.219h1.766v12.891h-1.393l-2.805-8.005
			l0.109,3.384v4.622H193.452z"/>
		<path fill="#FFFFFF" d="M201.025,67.668v-1.15h1.859v1.296c0,0.718,0.062,1.222,0.184,1.512c0.122,0.291,0.352,0.436,0.688,0.436
			s0.561-0.12,0.67-0.359c0.11-0.239,0.165-0.63,0.165-1.172s-0.098-1.015-0.293-1.417c-0.195-0.403-0.506-0.824-0.93-1.264
			l-0.953-0.981c-0.444-0.464-0.789-0.945-1.036-1.443c-0.246-0.498-0.37-1.074-0.37-1.729c0-1.064,0.205-1.855,0.615-2.373
			s1.116-0.776,2.117-0.776s1.679,0.302,2.032,0.905c0.354,0.603,0.531,1.483,0.531,2.64v0.798h-1.81V61.67
			c0-0.625-0.054-1.073-0.16-1.344c-0.108-0.271-0.314-0.407-0.619-0.407c-0.306,0-0.525,0.103-0.659,0.308
			c-0.135,0.205-0.202,0.513-0.202,0.923s0.068,0.737,0.205,0.981s0.384,0.557,0.74,0.938l1.062,1.15
			c0.531,0.576,0.934,1.16,1.204,1.75c0.271,0.591,0.407,1.235,0.407,1.934c0,1.206-0.203,2.097-0.608,2.673
			s-1.114,0.864-2.128,0.864c-1.013,0-1.719-0.321-2.116-0.963C201.224,69.835,201.025,68.899,201.025,67.668z"/>
		<path fill="#FFFFFF" d="M207.91,71.294V58.403h1.963v5.933l1.963-5.933h2.029l-2.139,6.357l2.307,6.533h-2.072l-2.073-6.021v6.021
			L207.91,71.294L207.91,71.294z"/>
		<path fill="#FFFFFF" d="M214.429,71.294l1.838-12.891h2.594l1.955,12.891h-1.831l-0.308-2.3h-2.08l-0.278,2.3H214.429z
			 M218.472,67.419l-0.864-6.475h-0.029l-0.791,6.475H218.472z"/>
		<path fill="#FFFFFF" d="M222.163,71.294V58.403h1.538l2.731,7.734l-0.139-3.516v-4.219h1.766v12.891h-1.393l-2.805-8.005
			l0.109,3.384v4.622H222.163z"/>
	</g>
</g>
</svg>
