<?xml version="1.0" encoding="utf-8"?>
<!-- Generator: Adobe Illustrator 17.0.0, SVG Export Plug-In . SVG Version: 6.00 Build 0)  -->
<!DOCTYPE svg PUBLIC "-//W3C//DTD SVG 1.1//EN" "http://www.w3.org/Graphics/SVG/1.1/DTD/svg11.dtd">
<svg version="1.1" id="Layer_1" xmlns="http://www.w3.org/2000/svg" xmlns:xlink="http://www.w3.org/1999/xlink" x="0px" y="0px"
	 width="256px" height="256px" viewBox="0 0 256 256" enable-background="new 0 0 256 256" xml:space="preserve">
<g>
	<g>
		<polygon fill="#56BD00" points="78.5,160.3 44.2,83.8 76.3,57.2 194,55.9 211.1,86.4 177.4,163.2 144.4,138.3 164.5,87.7 
			87.5,88.1 113.6,136.3 		"/>
		<g>
			<g>
				<path fill="#FFFFFF" d="M78.5,166.5c-1.8,0-3.6-1-4.4-2.8L38.5,87.1c-0.9-2-0.4-4.4,1.3-5.8l34.5-28.6c1.2-1,2.7-1.3,4.1-1
					c1.5,0.3,2.7,1.3,3.3,2.7l35.7,76.7c1.1,2.4,0.1,5.3-2.3,6.4c-2.4,1.1-5.3,0.1-6.4-2.3l-33.1-71L48.8,86.4l34.1,73.1
					c1.1,2.4,0.1,5.3-2.3,6.4C79.9,166.3,79.2,166.5,78.5,166.5z"/>
			</g>
			<g>
				<path fill="#FFFFFF" d="M177,167.5c-0.7,0-1.4-0.1-2-0.5c-2.4-1.1-3.5-4-2.3-6.4l34.6-74.1l-26.8-22.3l-33.2,71.2
					c-1.1,2.4-4,3.5-6.4,2.3c-2.4-1.1-3.5-4-2.3-6.4l35.8-76.8c0.6-1.4,1.9-2.3,3.3-2.7c1.5-0.3,3,0,4.1,1l34.5,28.6
					c1.7,1.4,2.2,3.8,1.3,5.8l-36.1,77.5C180.6,166.4,178.8,167.5,177,167.5z"/>
			</g>
			<g>
				<path fill="#FFFFFF" d="M178.6,60L178.6,60L77.3,60.5c-2.7,0-4.8-1.6-4.8-4.3s2.2-4.3,4.8-4.3l0,0L178.6,52c2.7,0,4.8,1.3,4.8,4
					C183.4,58.7,181.3,60,178.6,60z"/>
			</g>
			<g>
				<path fill="#FFFFFF" d="M163.7,93L163.7,93l-71.4-0.1c-2.7,0-4.8-2.3-4.8-4.9c0-2.7,2.2-4.9,4.8-4.9l0,0l71.4,0.3
					c2.7,0,4.8,2.2,4.8,4.9C168.5,90.8,166.4,93,163.7,93z"/>
			</g>
		</g>
		<g>
			<g>
				<g>
					<path fill="#FFFFFF" d="M127.1,248.4c-12.7,0-24.7-4-34.9-11.5c-26-19.3-31.5-56.2-12.3-82.2c11-14.9,28.7-23.8,47.3-23.8
						c12.7,0,24.7,4,34.9,11.5c12.6,9.3,20.8,23,23.2,38.6c2.3,15.5-1.6,31-10.9,43.6C163.4,239.5,145.7,248.4,127.1,248.4z
						 M127.2,139.7c-15.8,0-30.8,7.6-40.2,20.2c-16.4,22.1-11.7,53.5,10.4,69.8c8.7,6.4,18.9,9.8,29.7,9.8
						c15.8,0,30.8-7.6,40.2-20.2c7.9-10.7,11.2-23.9,9.3-37.1c-2-13.2-9-24.8-19.7-32.8C148.2,143.1,138,139.7,127.2,139.7z"/>
				</g>
			</g>
			<g>
				<g>
					<polygon fill="#FFFFFF" points="113.7,137.1 104.1,158.8 80.4,161.3 					"/>
				</g>
			</g>
			<g>
				<g>
					<polygon fill="#FFFFFF" points="147,240.1 126.6,228.1 105.9,239.8 					"/>
				</g>
			</g>
			<g>
				<g>
					<polygon fill="#FFFFFF" points="174.1,162 150.6,159.3 141.2,137.4 					"/>
				</g>
			</g>
			<g>
				<g>
					<polygon fill="#FFFFFF" points="86,225.6 90.9,202.4 73.1,186.6 					"/>
				</g>
			</g>
			<g>
				<g>
					<polygon fill="#FFFFFF" points="181.4,185.9 163.7,201.6 168.5,224.9 					"/>
				</g>
			</g>
		</g>
	</g>
	<path fill="#FFFF00" d="M127.2,139.7c-15.8,0-30.8,7.6-40.2,20.2c-16.4,22.1-11.7,53.5,10.4,69.8c8.7,6.4,18.9,9.8,29.7,9.8
		c15.8,0,30.8-7.6,40.2-20.2c7.9-10.7,11.2-23.9,9.3-37.1c-2-13.2-9-24.8-19.7-32.8C148.2,143.1,138,139.7,127.2,139.7z"/>
	<path fill="#ABD100" d="M145.3,227.9c-4.8,5,11.8-7.4,16-13.1c6.7-9.1,9.5-20.3,7.9-31.5c-1.7-11.2-7.6-21.1-16.7-27.8
		c-1.8-1.4-3.8-2.6-5.8-3.6c0,0,13.9,19.1,12.9,36.9S152.8,220.2,145.3,227.9z"/>
	<path fill="#FF9F00" d="M95.4,188.3c-1-21.7,16.8-38.3,16.8-38.3c-7.5,2.9-14.2,7.8-19.1,14.4c-13.9,18.8-10,45.4,8.9,59.4
		c2.3,1.7,9.2,6.2,7.2,4.3C104.5,223.8,96.4,210,95.4,188.3z"/>
</g>
<g>
	<path fill="#FFFFFF" d="M192,10.3c-17.1,0-32.4,8-42.3,20.6h-0.3v0.3c-7.1,9.1-11.4,20.6-11.4,33c0,29.7,24.2,53.9,53.9,53.9
		s53.9-24.2,53.9-53.9S221.7,10.3,192,10.3z"/>
	<path d="M192,10.3c-17.1,0-32.4,8-42.3,20.6h-0.3v0.3c-7.1,9.1-11.4,20.6-11.4,33c0,29.7,24.2,53.9,53.9,53.9s53.9-24.2,53.9-53.9
		S221.7,10.3,192,10.3z M208.6,100.9l-23.1-3L183.7,78l17.6-10.7L217,82.4L208.6,100.9z M171.2,103.3L151.9,89l-2.1-14.7l11.8-7.4
		L181.5,78l1.9,20.2L171.2,103.3z M149.1,72.2L142,57.4l9.3-15.3l9.7,2l-0.2,20.8L149.1,72.2z M188.3,19l21.3,2.9l7.3,13.6
		l-16.1,7.9l-16.5-11.5L188.3,19z M231.4,74.4l-12.6,6.7l-16.9-16.2l0.2-19.7l16-7.9L232.3,50L231.4,74.4z M233.5,74.9l1-24.5
		l7.1-0.9c1.4,4.7,2.1,9.6,2.1,14.7c0,4.6-0.6,9-1.7,13.2L233.5,74.9z M240.9,47.4l-7.1,0.9l-14.6-13.1L212,21.9l6.1-2.4
		C228.7,25.7,236.9,35.6,240.9,47.4z M178.8,14.2l7.4,4.1L182,32.1L162.3,42l-10.5-2.1l-0.2-8.1C158.5,23.4,167.9,17,178.8,14.2z
		 M149.7,40.5l-8.5,14.1c1.4-7.3,4.3-14.1,8.4-20L149.7,40.5z M140.5,59.2l7.1,14.9l2.1,14.8l-2.9,0.4c-4.1-7.4-6.5-16-6.5-25.1
		C140.3,62.5,140.4,60.8,140.5,59.2z M172.4,112.1l-0.2-6.8l12.5-5.3l23.9,3.1l4.4,8.4c-6.4,2.9-13.5,4.5-21,4.5
		C185.1,115.9,178.5,114.5,172.4,112.1z"/>
</g>
<path fill="#FFDA44" d="M192,106.3c22.6,0,41-18.3,41-41s-18.3-41-41-41c-22.6,0-41,18.3-41,41S169.3,106.3,192,106.3"/>
<path fill="#0052B4" d="M183.1,60h49.5C230,39.9,212.8,24.4,192,24.4c-3.1,0-6,0.3-8.9,1V60z"/>
<path fill="#0052B4" d="M172.4,60V29.3c-11.2,6.1-19.3,17.4-21,30.6h21V60z"/>
<path fill="#0052B4" d="M172.4,70.7h-21c1.7,13.2,9.8,24.5,21,30.6V70.7z"/>
<path fill="#0052B4" d="M183.1,70.7v34.6c2.9,0.6,5.8,1,8.9,1c20.8,0,38-15.5,40.6-35.6H183.1z"/>
<g>
	<ellipse fill="none" stroke="#000000" stroke-miterlimit="10" cx="191.6" cy="65.2" rx="40.8" ry="40.6"/>
</g>
<g>
	<path d="M60.119,173.881c-1.82,0-3.243-0.715-4.269-2.146c-1.025-1.431-1.538-3.638-1.538-6.621V152.53
		c0-2.676,0.523-4.716,1.571-6.12c1.047-1.403,2.711-2.105,4.993-2.105c2.84,0,4.645,1.059,5.412,3.175
		c0.461,1.272,0.691,3.011,0.691,5.215v2.057h-4.112v-3.027c0-1.326-0.14-2.259-0.419-2.796c-0.28-0.537-0.806-0.807-1.58-0.807
		c-0.773,0-1.319,0.321-1.637,0.963s-0.477,1.779-0.477,3.413v12.552c0,1.897,0.143,3.219,0.428,3.964
		c0.285,0.746,0.842,1.119,1.67,1.119s1.415-0.4,1.76-1.201c0.345-0.8,0.518-2.149,0.518-4.047v-3.898h-2.221v-3.208h6.07v15.809
		h-1.974l-0.674-2.846c-0.23,0.977-0.735,1.744-1.513,2.303C62.039,173.602,61.139,173.881,60.119,173.881z"/>
	<path d="M82.212,172.03c-1.009,1.256-2.629,1.884-4.861,1.884s-3.855-0.63-4.869-1.892c-1.015-1.261-1.522-3.219-1.522-5.873
		v-21.533h4.409v21.451c0,1.524,0.071,2.451,0.214,2.78s0.315,0.628,0.518,0.896s0.623,0.403,1.259,0.403s1.091-0.187,1.365-0.56
		c0.274-0.373,0.441-0.836,0.501-1.39c0.061-0.554,0.091-1.265,0.091-2.131v-21.451h4.409v21.533
		C83.726,168.814,83.221,170.775,82.212,172.03z"/>
	<path d="M87.904,173.585v-28.952h4.409v25.202h5.577v3.75H87.904z"/>
	<path d="M100.406,173.585v-28.952h6.498c2.127,0,3.671,0.628,4.631,1.884c0.959,1.256,1.439,3.106,1.439,5.552l0.016,13.062
		c0,2.917-0.482,5.056-1.447,6.415c-0.965,1.36-2.561,2.04-4.787,2.04L100.406,173.585L100.406,173.585z M104.814,170.163h1.448
		c0.812,0,1.401-0.263,1.769-0.789c0.367-0.526,0.551-1.491,0.551-2.896l-0.016-14.295c0-1.503-0.184-2.571-0.551-3.208
		c-0.368-0.636-1.001-0.954-1.9-0.954h-1.3L104.814,170.163L104.814,170.163z"/>
	<path d="M129.342,152.068c0,3.114-0.845,5.028-2.534,5.741c2.062,0.69,3.092,2.967,3.092,6.827v0.74
		c-0.021,2.906-0.529,5-1.521,6.283c-0.993,1.283-2.613,1.925-4.861,1.925h-6.399v-28.952h6.268c2.16,0,3.69,0.502,4.589,1.505
		c0.899,1.004,1.354,2.685,1.366,5.042V152.068z M121.528,156.346h1.628c0.757,0,1.253-0.241,1.489-0.724s0.354-1.476,0.354-2.978
		V150.9c-0.011-1.118-0.164-1.867-0.46-2.245c-0.296-0.379-0.806-0.567-1.53-0.567h-1.48L121.528,156.346L121.528,156.346z
		 M121.528,170.163h1.562c0.877,0,1.492-0.301,1.843-0.904c0.351-0.603,0.526-1.684,0.526-3.24v-2.336
		c0-1.47-0.143-2.509-0.428-3.118c-0.285-0.608-0.833-0.912-1.645-0.912h-1.859L121.528,170.163L121.528,170.163z"/>
	<path d="M144.262,171.825c-1.009,1.393-2.623,2.089-4.844,2.089c-2.222,0-3.85-0.699-4.886-2.098
		c-1.037-1.397-1.555-3.506-1.555-6.324v-13.243c0-5.308,2.165-7.962,6.497-7.962c2.237,0,3.847,0.675,4.828,2.023
		c0.981,1.35,1.473,3.329,1.473,5.938v13.243C145.775,168.321,145.271,170.433,144.262,171.825z M137.806,169.095
		c0.257,0.669,0.786,1.003,1.587,1.003s1.327-0.343,1.579-1.028c0.253-0.685,0.379-1.861,0.379-3.528v-13.489
		c0-1.371-0.129-2.371-0.387-3.002s-0.763-0.946-1.514-0.946s-1.277,0.315-1.579,0.946s-0.452,1.626-0.452,2.985v13.506
		C137.419,167.241,137.548,168.426,137.806,169.095z"/>
	<path d="M149.772,173.585v-28.952h4.409v25.202h5.576v3.75H149.772z"/>
	<path d="M162.291,173.585v-28.952h4.409v25.202h5.576v3.75H162.291z"/>
	<path d="M174.81,173.585v-28.952h9.706v3.8h-5.297v8.423h5.033v3.718h-5.033v9.212h5.494v3.8h-9.903V173.585z"/>
	<path d="M188.233,173.585v-28.952h3.454l6.136,17.371l-0.312-7.896v-9.476h3.965v28.952h-3.126l-6.3-17.979l0.247,7.6v10.38
		L188.233,173.585L188.233,173.585z"/>
	<path d="M13.607,205.444c-1.066,0-1.933-0.087-2.598-0.26c-0.666-0.173-1.229-0.49-1.688-0.95c-0.46-0.46-0.784-1.084-0.971-1.873
		c-0.187-0.788-0.28-1.807-0.28-3.056V184.8c0-1.248,0.093-2.267,0.28-3.056c0.187-0.788,0.51-1.412,0.971-1.873
		c0.46-0.46,1.023-0.776,1.688-0.95c0.665-0.173,1.531-0.26,2.598-0.26v2.734c-0.812,0-1.331,0.212-1.559,0.636
		s-0.342,1.329-0.342,2.714v14.615c0,1.386,0.114,2.29,0.342,2.714c0.228,0.424,0.747,0.636,1.559,0.636V205.444z"/>
	<path d="M15.396,196.817v-2.146h3.473v2.42c0,1.34,0.114,2.281,0.342,2.823c0.228,0.543,0.656,0.813,1.285,0.813
		s1.046-0.223,1.251-0.67c0.205-0.446,0.308-1.176,0.308-2.188s-0.183-1.894-0.547-2.646c-0.365-0.752-0.943-1.538-1.736-2.358
		l-1.777-1.832c-0.83-0.865-1.475-1.764-1.935-2.693c-0.46-0.93-0.69-2.005-0.69-3.227c0-1.986,0.383-3.463,1.148-4.43
		c0.766-0.966,2.083-1.449,3.951-1.449s3.133,0.563,3.794,1.688c0.661,1.126,0.991,2.769,0.991,4.929v1.49h-3.377v-1.723
		c0-1.166-0.101-2.003-0.301-2.509c-0.201-0.506-0.586-0.759-1.155-0.759c-0.57,0-0.98,0.191-1.23,0.574
		c-0.251,0.383-0.376,0.957-0.376,1.723s0.127,1.377,0.383,1.832c0.255,0.456,0.715,1.039,1.381,1.75l1.982,2.146
		c0.993,1.076,1.743,2.165,2.249,3.268c0.506,1.104,0.759,2.307,0.759,3.609c0,2.252-0.378,3.915-1.135,4.99
		c-0.757,1.076-2.081,1.613-3.972,1.613c-1.892,0-3.208-0.599-3.951-1.798C15.767,200.862,15.396,199.114,15.396,196.817z"/>
	<path d="M36.461,202.184c-0.83,1.117-2.133,1.675-3.91,1.675s-3.106-0.595-3.985-1.784c-0.88-1.189-1.319-2.9-1.319-5.134v-10.486
		c0-3.582,0.938-5.819,2.816-6.713c0.692-0.328,1.531-0.492,2.516-0.492c3.381,0,5.072,2.133,5.072,6.398v3.309H34.11v-3.076
		c0-1.239-0.105-2.126-0.314-2.659c-0.21-0.533-0.62-0.8-1.23-0.8c-0.611,0-1.035,0.283-1.271,0.848
		c-0.237,0.565-0.355,1.432-0.355,2.598v11.238c0,1.295,0.114,2.22,0.342,2.775c0.228,0.557,0.643,0.834,1.244,0.834
		c0.601,0,1.016-0.282,1.244-0.848c0.228-0.564,0.342-1.499,0.342-2.803v-3.445h3.596v3.404
		C37.706,199.347,37.291,201.067,36.461,202.184z"/>
	<path d="M39.986,203.585v-24.062h3.664v9.734h3.281v-9.734h3.664v24.062h-3.664v-11.184H43.65v11.184H39.986z"/>
	<path d="M55.46,203.585l-2.939-24.062h3.281l1.764,17.145l2.242-17.145h2.953l2.256,17.145l1.559-17.145h3.295l-2.762,24.062h-3.65
		l-2.133-15.996l-2.215,15.996H55.46z"/>
	<path d="M71.781,203.585v-24.062h8.066v3.158h-4.402v7h4.184v3.09h-4.184v7.656h4.566v3.158L71.781,203.585L71.781,203.585z"/>
	<path d="M82.224,203.585v-24.062h5.4c1.768,0,3.051,0.522,3.849,1.565c0.797,1.044,1.196,2.582,1.196,4.614l0.014,10.855
		c0,2.425-0.401,4.202-1.203,5.332c-0.802,1.131-2.128,1.695-3.979,1.695L82.224,203.585L82.224,203.585z M85.888,200.741h1.203
		c0.674,0,1.164-0.219,1.47-0.656c0.305-0.438,0.458-1.239,0.458-2.406l-0.014-11.881c0-1.248-0.153-2.137-0.458-2.666
		c-0.306-0.528-0.832-0.793-1.579-0.793h-1.08V200.741z"/>
	<path d="M95.278,203.585v-24.062h8.066v3.158h-4.402v7h4.184v3.09h-4.184v7.656h4.566v3.158L95.278,203.585L95.278,203.585z"/>
	<path d="M105.734,203.585v-24.062h2.871l5.1,14.438l-0.26-6.562v-7.875h3.295v24.062h-2.598l-5.236-14.943l0.205,6.316v8.627
		h-3.377V203.585z"/>
	<path d="M119.171,196.817v-2.146h3.473v2.42c0,1.34,0.114,2.281,0.342,2.823c0.228,0.543,0.656,0.813,1.285,0.813
		s1.046-0.223,1.251-0.67c0.205-0.446,0.308-1.176,0.308-2.188s-0.183-1.894-0.547-2.646c-0.365-0.752-0.943-1.538-1.736-2.358
		l-1.777-1.832c-0.83-0.865-1.475-1.764-1.935-2.693c-0.46-0.93-0.69-2.005-0.69-3.227c0-1.986,0.383-3.463,1.148-4.43
		c0.766-0.966,2.083-1.449,3.951-1.449s3.133,0.563,3.794,1.688c0.66,1.126,0.991,2.769,0.991,4.929v1.49h-3.377v-1.723
		c0-1.166-0.101-2.003-0.301-2.509c-0.201-0.506-0.586-0.759-1.155-0.759c-0.57,0-0.98,0.191-1.23,0.574
		c-0.251,0.383-0.376,0.957-0.376,1.723s0.127,1.377,0.383,1.832c0.255,0.456,0.715,1.039,1.381,1.75l1.982,2.146
		c0.993,1.076,1.743,2.165,2.249,3.268c0.506,1.104,0.759,2.307,0.759,3.609c0,2.252-0.379,3.915-1.135,4.99
		c-0.757,1.076-2.081,1.613-3.972,1.613c-1.892,0-3.208-0.599-3.951-1.798C119.542,200.862,119.171,199.114,119.171,196.817z"/>
	<path d="M135.626,203.585v-24.062h8.258v3.186h-4.594v6.398h4.266v3.199h-4.266v11.279L135.626,203.585L135.626,203.585z"/>
	<path d="M155.037,202.293c-0.839,1.044-2.186,1.565-4.04,1.565s-3.204-0.523-4.047-1.572c-0.843-1.048-1.265-2.675-1.265-4.881
		v-17.896h3.664v17.828c0,1.268,0.06,2.037,0.178,2.311s0.262,0.522,0.431,0.745c0.169,0.224,0.518,0.335,1.046,0.335
		s0.907-0.154,1.135-0.465c0.228-0.31,0.367-0.694,0.417-1.155c0.05-0.46,0.075-1.05,0.075-1.771v-17.828h3.664v17.896
		C156.295,199.62,155.876,201.25,155.037,202.293z"/>
	<path d="M158.589,196.817v-2.146h3.473v2.42c0,1.34,0.114,2.281,0.342,2.823c0.228,0.543,0.656,0.813,1.285,0.813
		s1.046-0.223,1.251-0.67c0.205-0.446,0.308-1.176,0.308-2.188s-0.183-1.894-0.547-2.646s-0.943-1.538-1.736-2.358l-1.777-1.832
		c-0.829-0.865-1.475-1.764-1.935-2.693s-0.69-2.005-0.69-3.227c0-1.986,0.383-3.463,1.148-4.43
		c0.766-0.966,2.083-1.449,3.951-1.449s3.133,0.563,3.794,1.688c0.661,1.126,0.991,2.769,0.991,4.929v1.49h-3.377v-1.723
		c0-1.166-0.101-2.003-0.301-2.509s-0.586-0.759-1.155-0.759s-0.979,0.191-1.23,0.574s-0.376,0.957-0.376,1.723
		s0.128,1.377,0.383,1.832c0.255,0.456,0.716,1.039,1.381,1.75l1.982,2.146c0.993,1.076,1.743,2.165,2.249,3.268
		c0.506,1.104,0.759,2.307,0.759,3.609c0,2.252-0.378,3.915-1.135,4.99c-0.757,1.076-2.08,1.613-3.972,1.613
		s-3.208-0.599-3.951-1.798C158.96,200.862,158.589,199.114,158.589,196.817z"/>
	<path d="M170.263,196.817v-2.146h3.473v2.42c0,1.34,0.113,2.281,0.342,2.823c0.228,0.543,0.656,0.813,1.285,0.813
		s1.046-0.223,1.251-0.67c0.205-0.446,0.308-1.176,0.308-2.188s-0.183-1.894-0.547-2.646c-0.365-0.752-0.943-1.538-1.736-2.358
		l-1.777-1.832c-0.83-0.865-1.475-1.764-1.935-2.693c-0.461-0.93-0.69-2.005-0.69-3.227c0-1.986,0.383-3.463,1.148-4.43
		c0.766-0.966,2.082-1.449,3.951-1.449c1.868,0,3.133,0.563,3.794,1.688c0.66,1.126,0.991,2.769,0.991,4.929v1.49h-3.377v-1.723
		c0-1.166-0.101-2.003-0.301-2.509c-0.201-0.506-0.586-0.759-1.155-0.759c-0.57,0-0.98,0.191-1.23,0.574
		c-0.251,0.383-0.376,0.957-0.376,1.723s0.127,1.377,0.383,1.832c0.255,0.456,0.715,1.039,1.381,1.75l1.982,2.146
		c0.993,1.076,1.743,2.165,2.249,3.268c0.506,1.104,0.759,2.307,0.759,3.609c0,2.252-0.379,3.915-1.135,4.99
		c-0.757,1.076-2.081,1.613-3.972,1.613c-1.892,0-3.209-0.599-3.951-1.798C170.634,200.862,170.263,199.114,170.263,196.817z"/>
	<path d="M192.709,185.702c0,2.589-0.702,4.18-2.105,4.771c1.713,0.574,2.57,2.466,2.57,5.674v0.615
		c-0.019,2.416-0.44,4.156-1.265,5.223c-0.825,1.066-2.172,1.6-4.04,1.6h-5.318v-24.062h5.209c1.795,0,3.066,0.417,3.814,1.251
		c0.747,0.834,1.125,2.231,1.135,4.19L192.709,185.702L192.709,185.702z M186.215,189.257h1.354c0.629,0,1.041-0.2,1.237-0.602
		c0.195-0.4,0.294-1.226,0.294-2.475v-1.449c-0.01-0.93-0.137-1.552-0.383-1.866s-0.67-0.472-1.271-0.472h-1.23v6.864H186.215z
		 M186.215,200.741h1.299c0.729,0,1.239-0.25,1.531-0.752c0.291-0.501,0.438-1.398,0.438-2.693v-1.941
		c0-1.221-0.119-2.085-0.355-2.591c-0.237-0.506-0.693-0.759-1.367-0.759h-1.545v8.736H186.215z"/>
	<path d="M194.237,203.585l3.432-24.062h4.84l3.65,24.062h-3.418l-0.574-4.293h-3.883l-0.52,4.293H194.237z M201.784,196.353
		l-1.613-12.086h-0.055l-1.477,12.086H201.784z"/>
	<path d="M207.975,203.585v-24.062h3.664v20.945h4.635v3.117L207.975,203.585L207.975,203.585z"/>
	<path d="M217.679,203.585v-24.062h3.664v20.945h4.635v3.117L217.679,203.585L217.679,203.585z"/>
	<path d="M227.384,203.585v-24.062h8.066v3.158h-4.402v7h4.184v3.09h-4.184v7.656h4.566v3.158L227.384,203.585L227.384,203.585z"/>
	<path d="M242.68,192.278l-1.176-0.055v11.361h-3.664v-24.062h6.057c1.258,0,2.196,0.253,2.816,0.759
		c0.619,0.506,1.027,1.213,1.224,2.119c0.195,0.907,0.294,2.092,0.294,3.555s-0.155,2.577-0.465,3.343
		c-0.311,0.766-0.885,1.281-1.723,1.545c0.829,0.146,1.408,0.707,1.736,1.682c0.328,0.976,0.492,3.006,0.492,6.091
		c0,3.086,0.045,4.742,0.137,4.97h-3.664c-0.092-0.182-0.137-3.058-0.137-8.627c0-1.066-0.128-1.774-0.383-2.126
		C243.969,192.481,243.454,192.297,242.68,192.278z M241.518,189.38h1.463c0.465,0,0.809-0.104,1.032-0.314
		c0.223-0.209,0.378-0.569,0.465-1.08c0.086-0.51,0.13-1.289,0.13-2.338v-0.15c0-1.303-0.109-2.155-0.328-2.557
		c-0.219-0.4-0.725-0.602-1.518-0.602h-1.244L241.518,189.38L241.518,189.38z"/>
	<path d="M65.779,233.585v-24.062h5.4c1.768,0,3.051,0.522,3.849,1.565c0.797,1.044,1.196,2.582,1.196,4.614l0.014,10.855
		c0,2.425-0.401,4.202-1.203,5.332c-0.802,1.131-2.128,1.695-3.979,1.695L65.779,233.585L65.779,233.585z M69.443,230.741h1.203
		c0.674,0,1.164-0.219,1.47-0.656c0.305-0.438,0.458-1.239,0.458-2.406l-0.014-11.881c0-1.248-0.153-2.137-0.458-2.666
		c-0.306-0.528-0.832-0.793-1.579-0.793h-1.08V230.741z"/>
	<path d="M79.533,233.585v-24.062H87.6v3.158h-4.402v7h4.184v3.09h-4.184v7.656h4.566v3.158L79.533,233.585L79.533,233.585z"/>
	<path d="M90.211,226.817v-2.146h3.473v2.42c0,1.34,0.114,2.281,0.342,2.823c0.228,0.543,0.656,0.813,1.285,0.813
		s1.046-0.223,1.251-0.67c0.205-0.446,0.308-1.176,0.308-2.188s-0.183-1.894-0.547-2.646c-0.365-0.752-0.943-1.538-1.736-2.358
		l-1.777-1.832c-0.83-0.865-1.475-1.764-1.935-2.693c-0.46-0.93-0.69-2.005-0.69-3.227c0-1.986,0.383-3.463,1.148-4.43
		c0.766-0.966,2.083-1.449,3.951-1.449c1.868,0,3.133,0.563,3.794,1.688c0.661,1.126,0.991,2.769,0.991,4.929v1.49h-3.377v-1.723
		c0-1.166-0.101-2.003-0.301-2.509c-0.201-0.506-0.586-0.759-1.155-0.759c-0.57,0-0.98,0.191-1.23,0.574
		c-0.251,0.383-0.376,0.957-0.376,1.723s0.127,1.377,0.383,1.832c0.255,0.456,0.715,1.039,1.381,1.75l1.982,2.146
		c0.993,1.076,1.743,2.165,2.249,3.268c0.506,1.104,0.759,2.307,0.759,3.609c0,2.252-0.378,3.915-1.135,4.99
		c-0.757,1.076-2.081,1.613-3.972,1.613c-1.892,0-3.208-0.599-3.951-1.798C90.582,230.862,90.211,229.114,90.211,226.817z"/>
	<path d="M115.832,232.252c-0.866,1.071-2.085,1.606-3.657,1.606s-2.794-0.476-3.664-1.429c-0.871-0.952-1.306-2.34-1.306-4.163
		v-4.293h3.541v4.115c0,1.331,0.214,2.143,0.643,2.434c0.191,0.128,0.428,0.191,0.711,0.191c0.556,0,0.923-0.228,1.101-0.684
		c0.178-0.455,0.267-1.176,0.267-2.16v-18.348h3.664v18.17C117.131,229.661,116.698,231.182,115.832,232.252z"/>
	<path d="M119.51,233.585l3.432-24.062h4.84l3.65,24.062h-3.418l-0.574-4.293h-3.883l-0.52,4.293H119.51z M127.057,226.353
		l-1.613-12.086h-0.055l-1.477,12.086H127.057z"/>
	<path d="M133.947,233.585v-24.062h3.664v9.734h3.281v-9.734h3.664v24.062h-3.664v-11.184h-3.281v11.184H133.947z"/>
	<path d="M153.006,222.278l-1.176-0.055v11.361h-3.664v-24.062h6.057c1.258,0,2.196,0.253,2.816,0.759
		c0.619,0.506,1.027,1.213,1.224,2.119c0.195,0.907,0.294,2.092,0.294,3.555s-0.155,2.577-0.465,3.343
		c-0.311,0.766-0.885,1.281-1.723,1.545c0.829,0.146,1.408,0.707,1.736,1.682c0.328,0.976,0.492,3.006,0.492,6.091
		c0,3.086,0.045,4.742,0.137,4.97h-3.664c-0.092-0.182-0.137-3.058-0.137-8.627c0-1.066-0.128-1.774-0.383-2.126
		C154.295,222.481,153.78,222.297,153.006,222.278z M151.844,219.38h1.463c0.465,0,0.809-0.104,1.032-0.314
		c0.223-0.209,0.378-0.569,0.465-1.08c0.086-0.51,0.13-1.289,0.13-2.338v-0.15c0-1.303-0.109-2.155-0.328-2.557
		c-0.219-0.4-0.725-0.602-1.518-0.602h-1.244L151.844,219.38L151.844,219.38z"/>
	<path d="M161.975,233.585v-24.062h8.066v3.158h-4.402v7h4.184v3.09h-4.184v7.656h4.566v3.158L161.975,233.585L161.975,233.585z"/>
	<path d="M172.652,226.817v-2.146h3.473v2.42c0,1.34,0.113,2.281,0.342,2.823c0.228,0.543,0.656,0.813,1.285,0.813
		s1.046-0.223,1.251-0.67c0.205-0.446,0.308-1.176,0.308-2.188s-0.183-1.894-0.547-2.646c-0.365-0.752-0.943-1.538-1.736-2.358
		l-1.777-1.832c-0.83-0.865-1.475-1.764-1.935-2.693c-0.461-0.93-0.69-2.005-0.69-3.227c0-1.986,0.383-3.463,1.148-4.43
		c0.766-0.966,2.082-1.449,3.951-1.449c1.868,0,3.133,0.563,3.794,1.688c0.66,1.126,0.991,2.769,0.991,4.929v1.49h-3.377v-1.723
		c0-1.166-0.101-2.003-0.301-2.509c-0.201-0.506-0.586-0.759-1.155-0.759c-0.57,0-0.98,0.191-1.23,0.574
		c-0.251,0.383-0.376,0.957-0.376,1.723s0.127,1.377,0.383,1.832c0.255,0.456,0.715,1.039,1.381,1.75l1.982,2.146
		c0.993,1.076,1.743,2.165,2.249,3.268c0.506,1.104,0.759,2.307,0.759,3.609c0,2.252-0.379,3.915-1.135,4.99
		c-0.757,1.076-2.081,1.613-3.972,1.613c-1.892,0-3.209-0.599-3.951-1.798C173.023,230.862,172.652,229.114,172.652,226.817z"/>
	<path d="M184.875,235.444v-2.734c0.811,0,1.33-0.212,1.559-0.636c0.228-0.424,0.342-1.328,0.342-2.714v-14.615
		c0-1.385-0.114-2.29-0.342-2.714c-0.229-0.424-0.748-0.636-1.559-0.636v-2.734c1.066,0,1.932,0.087,2.598,0.26
		c0.665,0.174,1.226,0.49,1.682,0.95c0.455,0.461,0.776,1.085,0.964,1.873c0.187,0.789,0.28,1.808,0.28,3.056v14.506
		c0,1.249-0.094,2.268-0.28,3.056c-0.188,0.789-0.509,1.413-0.964,1.873c-0.456,0.46-1.017,0.777-1.682,0.95
		C186.807,235.357,185.941,235.444,184.875,235.444z"/>
</g>
</svg>
