<?xml version="1.0" encoding="utf-8"?>
<!-- Generator: Adobe Illustrator 17.0.0, SVG Export Plug-In . SVG Version: 6.00 Build 0)  -->
<!DOCTYPE svg PUBLIC "-//W3C//DTD SVG 1.1//EN" "http://www.w3.org/Graphics/SVG/1.1/DTD/svg11.dtd">
<svg version="1.1" id="Layer_1" xmlns="http://www.w3.org/2000/svg" xmlns:xlink="http://www.w3.org/1999/xlink" x="0px" y="0px"
	 width="256px" height="256px" viewBox="0 0 256 256" enable-background="new 0 0 256 256" xml:space="preserve">
<path fill="#FFFFFF" d="M192.1,10.3c-17.1,0-32.4,8-42.3,20.6h-0.3v0.3c-7.1,9.1-11.4,20.6-11.4,33c0,29.7,24.2,53.9,53.9,53.9
	s54-24.2,54-53.9S221.9,10.3,192.1,10.3z"/>
<path d="M192,10.3c-17.1,0-32.4,8-42.3,20.6h-0.3v0.3c-7.1,9.1-11.4,20.6-11.4,33c0,29.7,24.2,53.9,53.9,53.9s53.9-24.2,53.9-53.9
	S221.7,10.3,192,10.3z M208.6,100.9l-23.1-3L183.7,78l17.6-10.7L217,82.4L208.6,100.9z M171.2,103.3L151.9,89l-2.1-14.7l11.8-7.4
	L181.5,78l1.9,20.2L171.2,103.3z M149.1,72.2L142,57.4l9.3-15.3l9.7,2l-0.2,20.8L149.1,72.2z M188.3,19l21.3,2.9l7.3,13.6l-16.1,7.9
	l-16.5-11.5L188.3,19z M231.4,74.4l-12.6,6.7l-16.9-16.2l0.2-19.7l16-7.9L232.3,50L231.4,74.4z M233.5,74.9l1-24.5l7.1-0.9
	c1.4,4.7,2.1,9.6,2.1,14.7c0,4.6-0.6,9-1.7,13.2L233.5,74.9z M240.9,47.4l-7.1,0.9l-14.6-13.1L212,21.9l6.1-2.4
	C228.7,25.7,236.9,35.6,240.9,47.4z M178.8,14.2l7.4,4.1L182,32.1L162.3,42l-10.5-2.1l-0.2-8.1C158.5,23.4,167.9,17,178.8,14.2z
	 M149.7,40.5l-8.5,14.1c1.4-7.3,4.3-14.1,8.4-20L149.7,40.5z M140.5,59.2l7.1,14.9l2.1,14.8l-2.9,0.4c-4.1-7.4-6.5-16-6.5-25.1
	C140.3,62.5,140.4,60.8,140.5,59.2z M172.4,112.1l-0.2-6.8l12.5-5.3l23.9,3.1l4.4,8.4c-6.4,2.9-13.5,4.5-21,4.5
	C185.1,115.9,178.5,114.5,172.4,112.1z"/>
<g>
	<path fill="#FCFF00" stroke="#000000" stroke-miterlimit="10" d="M173,123.7c-6.9,0-9.2,4.9-9.8,6.7c0.3-3.3,0.4-5.5,0.4-5.7
		c1.2-0.2,0.8-2.3-0.1-2.3c-0.8,0-70.2,0-71,0c-0.9,0-1.3,2.1-0.1,2.3c0,0.2,0.1,2.3,0.4,5.6c-0.7-1.9-2.9-6.7-9.8-6.7
		c-8.7,0-15.2,5.4-15.2,14.1c0,24,31,28.8,31,36.5c0,0-1.3,1.6-1.1,2.9c0.3,1.7,3.8,2,3.8-2.6c0-0.8-0.3-1.7-0.9-2.5
		c0.6-0.2,1.3-0.7,1.8-1.5c0.3-0.4,0.5-0.9,0.6-1.3c3.8,7.2,9,13,15.9,15c0.2,0.3,0.2,1.7-0.9,2c-1.1,0.2-2.5,5.3,4.7,5.6
		c0.2,1.4,0.6,4.9,0.7,15.1c0,0-4.4,0.1-4.4,2.9c0,2.8,3.8,3.6,3.8,3.6s-3,5.1-8.4,5.8c0,3.3,1.3,15.8-9.9,19.4
		c0,2.4,0.1,4.1,0.1,4.1s-2,0.1-3.5,0.1s-4.4,3.6-3.8,11.6c4.6,0,56.1,0,60.7,0c0.7-8-2-11.6-3.6-11.6c-1.5,0-3.5,0-3.5,0
		s0.1-1.8,0.1-4.2c-11.2-3.6-9.9-16.1-9.9-19.4c-5.3-0.7-8.4-5.8-8.4-5.8s3.8-0.8,3.8-3.6s-4.4-2.9-4.4-2.9
		c0.1-10.2,0.4-13.7,0.7-15.1c7.2-0.2,5.8-5.3,4.7-5.6c-1.1-0.2-1.1-1.6-0.9-2c6.9-2.1,12.1-7.8,15.9-15c0.1,0.4,0.3,0.9,0.6,1.3
		c0.6,0.8,1.2,1.2,1.8,1.5c-0.6,0.8-0.9,1.7-0.9,2.5c0,4.6,3.5,4.3,3.8,2.6c0.2-1.2-1.1-2.9-1.1-2.9c0-7.7,31-12.5,31-36.5
		C188.2,129.1,181.7,123.7,173,123.7z M100.4,169c-0.5,0.7-1.4,0.5-1.9,0.5l0,0c-0.1,0-0.8-1.6-0.3-2.3s1.3-0.3,1.6,0
		C100.2,167.5,101,168.3,100.4,169z M96.1,165.7c-0.3,0.5-0.5,1-0.6,1.4c-8.6-6.4-23.2-14.7-23.2-29.6c0-5.1,4.2-11.4,11.9-11.1
		c3.3,0,6.4,2.1,6.3,4.7c0,2.4-1.6,2.7-1.7,4.1c-0.2,1.4,2,2.4,3.4-0.1c0.5-0.8,0.7-2.1,0.8-3.1c0.9,8,3.1,21.5,8,32.8
		C99.3,163.8,97.3,164.1,96.1,165.7z M157.5,169.5c-0.5,0-1.4,0.2-1.9-0.5s0.3-1.6,0.6-1.8s1.1-0.7,1.6,0
		C158.3,167.9,157.6,169.5,157.5,169.5L157.5,169.5z M160.5,167.1c-0.1-0.5-0.3-0.9-0.6-1.4c-1.2-1.6-3.2-1.9-4.9-0.8
		c4.9-11.3,7.1-24.8,8-32.8c0.1,1,0.4,2.3,0.8,3.1c1.5,2.5,3.6,1.5,3.4,0.1s-1.7-1.7-1.7-4.1c-0.1-2.6,2.9-4.7,6.3-4.7
		c7.7-0.2,11.9,6,11.9,11.1C183.8,152.4,169.1,160.7,160.5,167.1z"/>
	<path fill="#FFFFFF" d="M146.7,126h-24.8c0,0,1.6,12.3,2.3,16.2c0.7,3.9,4.2,7.4,9.5,7.4c5.2,0,10.1-1.8,11.1-7.1
		C145.7,137.3,146.7,126,146.7,126z"/>
	<path fill="#FFFFFF" d="M133,189c-1,0-6,0-7,0c0,0-1-1,0-1s6.7,0,7.3,0C134.1,188,134,189,133,189z"/>
	<rect x="127" y="208" fill="#FFFFFF" width="4" height="1"/>
	<path fill="#FFFFFF" d="M126.6,227c0,0-0.6,6-1.6,8c3.4,0,10.6,0,10.6,0s-1.5-6-1.5-8C132.5,227,126.6,227,126.6,227z"/>
	<path fill="#FFFFFF" d="M126.8,207c0-2,0.8-2.3,1.8-2.3s1.8,0.3,1.8,2.3H126.8z"/>
	<path fill="#ABD100" d="M132.9,182.1c1.6,0.3,24.1-2.1,24.1-54.1h-6c0,0,3.4,38.1-14.4,49.6C135,178.9,129.9,181.4,132.9,182.1z"/>
	<path fill="#FF9F00" d="M120.6,179.9c-1.6,0.3-24.1-2.9-24.1-53.9h6c0,0-3.4,38.1,14.4,49.5C118.5,176.8,123.6,179.3,120.6,179.9z"
		/>
	<path fill="#ABD100" d="M129.9,190.8c0,0,4.8-0.2,4.9-2.1c0.1-2,2.1-2.5,2,0.1C136.8,190.3,134.5,191.4,129.9,190.8z"/>
	<path fill="#ABD100" d="M129.9,212c0,0,3.9-0.1,4-1.7c0.1-1.6,1.7-2,1.7,0.1C135.5,211.6,133.6,212.5,129.9,212z"/>
	<path fill="#FF9F00" d="M125.9,212c0,0-3.9-0.1-4-1.7c-0.1-1.6-1.7-2-1.7,0.1C120.2,211.6,122.2,212.5,125.9,212z"/>
	<path fill="#FF9F00" d="M126.3,190.8c0,0-4.8-0.2-4.9-2.1c-0.1-2-2.1-2.5-2,0.1C119.4,190.3,121.7,191.4,126.3,190.8z"/>
	<polygon fill="#ABD100" points="131,207 130,207 130,192 131.7,192 	"/>
	<polygon fill="#FF9F00" points="125,207 124.5,207 123.9,192 125,192 	"/>
	<path fill="#ABD100" d="M134.3,219.5h3.7c0,0-0.3,8.2,0.2,10c0.5,1.7-1.9,2.4-2.9-1.3C134.2,224.4,134.3,219.5,134.3,219.5z"/>
	<path fill="#FF9F00" d="M116,220h2.6c0,0,0.2,7-0.8,9.4c-1.1,2.5-2.5,2.1-2-1.3S116,220,116,220z"/>
	<rect x="140" y="240" fill="#ABD100" width="5" height="2"/>
	<rect x="108" y="240" fill="#FF9F00" width="3" height="2"/>
	<path fill="#FF9F00" d="M97,169.3c0,0,4.1,4.1,3.2,6.4C100.8,175,101.2,172,97,169.3z"/>
	<path fill="#FF9F00" d="M97.6,166.2c0,0,2.8-1,3.8,0.7c-0.3-1-1.5-1.8-2.7-1.8C97.4,165.1,97.9,165.7,97.6,166.2z"/>
	<path fill="#ABD100" d="M157.6,170.7c0,0-2.4,2.5-2,4.6c0.1,0.5,0.7,1.6,1.3,1.3s0.2-0.8-0.2-1.5
		C156.3,174.4,156.7,171.8,157.6,170.7z"/>
	<path fill="#ABD100" d="M156.2,166.1c-0.1,0.1,0.7-0.6,1.8-0.3c0.7,0.2,1,1,1,1s0.5-1.2-0.9-1.5C157,164.9,156.7,165.7,156.2,166.1
		z"/>
	<path fill="none" stroke="#957E78" stroke-width="0.6534" stroke-miterlimit="10" d="M117.1,183.5c4.9,2.2,18.3,2,22.8-0.4"/>
	<line fill="none" stroke="#957E78" stroke-miterlimit="10" x1="124" y1="191.5" x2="133" y2="191.5"/>
	<line fill="none" stroke="#957E78" stroke-miterlimit="10" x1="124" y1="206.5" x2="132" y2="206.5"/>
	<line fill="none" stroke="#957E78" stroke-width="0.6534" stroke-miterlimit="10" x1="122.1" y1="213.2" x2="133.7" y2="213.2"/>
	<line fill="none" stroke="#957E78" stroke-width="0.6534" stroke-miterlimit="10" x1="114.6" y1="219.5" x2="141.2" y2="219.5"/>
	<line fill="none" stroke="#957E78" stroke-width="0.6534" stroke-miterlimit="10" x1="104.8" y1="239" x2="151.2" y2="239"/>
	<line fill="none" stroke="#957E78" stroke-width="0.6534" stroke-miterlimit="10" x1="104.8" y1="242.5" x2="151.2" y2="242.5"/>
</g>
<g>
	<path fill="#F0F0F0" d="M191.6,106.1c22.6,0,41-18.3,41-41c0-22.6-18.3-41-41-41c-22.6,0-41,18.3-41,41
		C150.7,87.8,169,106.1,191.6,106.1"/>
	<path fill="#0052B4" d="M191.6,24.2c-22.6,0-41,18.3-41,41c0,5,0.9,9.8,2.5,14.2h76.8c1.6-4.4,2.5-9.2,2.5-14.2
		C232.6,42.6,214.3,24.2,191.6,24.2"/>
	<path fill="#D80027" d="M191.6,24.2c-17.6,0-32.6,11.1-38.4,26.7H230C224.3,35.3,209.3,24.2,191.6,24.2"/>
	<path fill="#D80027" d="M161.3,47.4v20.4c0,11.6,15.2,15.2,15.2,15.2s15.2-3.6,15.2-15.2V47.4H161.3z"/>
	<polygon fill="#FFDA44" points="167.6,50.9 185.4,50.9 185.4,43.8 181.8,45.6 176.5,40.2 171.1,45.6 167.6,43.8 	"/>
	<polygon fill="#FFDA44" points="188.1,70.6 176.5,59.1 164.9,70.6 168.7,74.4 176.5,66.6 184.3,74.4 	"/>
	<path fill="#F0F0F0" d="M188.1,59.8h-5.4c0.3-0.5,0.5-1.1,0.5-1.8c0-2-1.6-3.6-3.6-3.6c-1.4,0-2.5,0.8-3.1,1.9
		c-0.6-1.1-1.8-1.9-3.1-1.9c-2,0-3.6,1.6-3.6,3.6c0,0.6,0.2,1.3,0.5,1.8H165c0,2,1.7,3.6,3.7,3.6h-0.1c0,2,1.6,3.6,3.6,3.6
		c0,1.7,1.3,3.2,2.9,3.5l-2.8,6.3c1.3,0.5,2.8,0.9,4.4,0.9c1.5,0,3-0.3,4.4-0.9l-2.8-6.3c1.7-0.3,2.9-1.8,2.9-3.5
		c2,0,3.6-1.6,3.6-3.6h-0.1C186.4,63.4,188.1,61.8,188.1,59.8"/>
</g>
<path fill="none" stroke="#1D1D1B" stroke-miterlimit="10" d="M191.6,106.3c22.6,0,41-18.3,41-41s-18.3-41-41-41
	c-22.6,0-41,18.3-41,41S169,106.3,191.6,106.3"/>
<g>
	<path d="M8.46,198.772v-2.582h4.178v2.911c0,1.612,0.137,2.745,0.411,3.397c0.274,0.652,0.79,0.979,1.546,0.979
		c0.757,0,1.259-0.269,1.505-0.806c0.246-0.537,0.37-1.415,0.37-2.632c0-1.218-0.22-2.278-0.658-3.184
		c-0.438-0.904-1.135-1.851-2.089-2.838l-2.139-2.204c-0.998-1.042-1.774-2.122-2.328-3.24c-0.554-1.119-0.831-2.413-0.831-3.883
		c0-2.391,0.46-4.167,1.382-5.33c0.921-1.162,2.505-1.743,4.754-1.743c2.248,0,3.77,0.677,4.565,2.031s1.192,3.331,1.192,5.931
		v1.793h-4.063V185.3c0-1.403-0.121-2.409-0.362-3.019c-0.241-0.608-0.705-0.913-1.39-0.913c-0.686,0-1.179,0.23-1.48,0.691
		c-0.302,0.461-0.453,1.151-0.453,2.072c0,0.922,0.154,1.656,0.461,2.205c0.307,0.548,0.861,1.25,1.661,2.105l2.385,2.582
		c1.195,1.295,2.098,2.605,2.706,3.932c0.609,1.327,0.913,2.775,0.913,4.344c0,2.708-0.455,4.71-1.365,6.004
		c-0.911,1.294-2.503,1.941-4.779,1.941s-3.86-0.722-4.754-2.163C8.907,203.64,8.46,201.536,8.46,198.772z"/>
	<path d="M23.081,206.916v-28.952h9.706v3.8H27.49v8.422h5.034v3.718H27.49v9.213h5.494v3.8h-9.903V206.916z"/>
	<path d="M41.485,193.312l-1.415-0.065v13.67h-4.409v-28.952h7.288c1.513,0,2.643,0.304,3.389,0.912
		c0.746,0.609,1.236,1.459,1.472,2.55c0.236,1.092,0.354,2.518,0.354,4.277c0,1.761-0.187,3.101-0.559,4.022
		c-0.373,0.921-1.064,1.541-2.073,1.858c0.998,0.176,1.694,0.851,2.089,2.023c0.395,1.174,0.592,3.616,0.592,7.329
		c0,3.712,0.055,5.705,0.164,5.979H43.97c-0.11-0.22-0.165-3.68-0.165-10.38c0-1.283-0.154-2.136-0.461-2.559
		C43.037,193.556,42.417,193.334,41.485,193.312z M40.087,189.824h1.76c0.559,0,0.973-0.126,1.242-0.379
		c0.269-0.252,0.455-0.685,0.56-1.299c0.104-0.614,0.156-1.552,0.156-2.813v-0.181c0-1.568-0.132-2.594-0.395-3.076
		s-0.872-0.724-1.826-0.724h-1.497C40.087,181.352,40.087,189.824,40.087,189.824z"/>
	<path d="M63.822,185.398c0,3.115-0.845,5.029-2.534,5.741c2.062,0.691,3.093,2.967,3.093,6.827v0.74
		c-0.022,2.906-0.529,5.001-1.521,6.284c-0.993,1.283-2.613,1.925-4.861,1.925H51.6v-28.952h6.268c2.16,0,3.69,0.501,4.589,1.505
		c0.899,1.003,1.354,2.684,1.366,5.042v0.888H63.822z M56.008,189.676h1.628c0.757,0,1.253-0.241,1.489-0.724
		s0.354-1.475,0.354-2.978v-1.744c-0.011-1.118-0.164-1.866-0.46-2.245c-0.296-0.378-0.806-0.567-1.53-0.567h-1.48L56.008,189.676
		L56.008,189.676z M56.008,203.494h1.562c0.877,0,1.492-0.302,1.843-0.904c0.351-0.604,0.526-1.684,0.526-3.241v-2.336
		c0-1.47-0.143-2.509-0.428-3.117s-0.833-0.913-1.645-0.913h-1.859v10.511H56.008z"/>
	<path d="M67.141,206.916v-28.952h4.409v28.952H67.141z"/>
	<path d="M74.639,198.772v-2.582h4.178v2.911c0,1.612,0.137,2.745,0.411,3.397c0.274,0.652,0.79,0.979,1.546,0.979
		c0.757,0,1.259-0.269,1.505-0.806s0.37-1.415,0.37-2.632c0-1.218-0.22-2.278-0.658-3.184c-0.438-0.904-1.135-1.851-2.089-2.838
		l-2.139-2.204c-0.998-1.042-1.774-2.122-2.328-3.24c-0.554-1.119-0.831-2.413-0.831-3.883c0-2.391,0.46-4.167,1.382-5.33
		c0.921-1.162,2.505-1.743,4.754-1.743c2.248,0,3.77,0.677,4.565,2.031c0.795,1.354,1.192,3.331,1.192,5.931v1.793h-4.063V185.3
		c0-1.403-0.121-2.409-0.362-3.019c-0.241-0.608-0.705-0.913-1.39-0.913c-0.686,0-1.179,0.23-1.48,0.691
		c-0.302,0.461-0.453,1.151-0.453,2.072c0,0.922,0.154,1.656,0.461,2.205c0.307,0.548,0.861,1.25,1.661,2.105l2.385,2.582
		c1.195,1.295,2.098,2.605,2.706,3.932c0.609,1.327,0.913,2.775,0.913,4.344c0,2.708-0.455,4.71-1.365,6.004
		c-0.911,1.294-2.503,1.941-4.779,1.941s-3.86-0.722-4.754-2.163C75.086,203.64,74.639,201.536,74.639,198.772z"/>
	<path d="M99.985,205.229c-0.998,1.344-2.566,2.016-4.705,2.016s-3.737-0.716-4.795-2.147c-1.059-1.431-1.587-3.489-1.587-6.177
		v-12.617c0-4.31,1.129-7.002,3.389-8.077c0.833-0.395,1.842-0.592,3.027-0.592c4.068,0,6.103,2.565,6.103,7.698v3.981h-4.261
		v-3.702c0-1.491-0.126-2.558-0.378-3.199s-0.746-0.962-1.48-0.962s-1.245,0.34-1.53,1.02c-0.285,0.681-0.428,1.722-0.428,3.126
		v13.521c0,1.558,0.137,2.671,0.411,3.34c0.274,0.669,0.773,1.003,1.497,1.003s1.223-0.34,1.497-1.02
		c0.274-0.68,0.411-1.804,0.411-3.372v-4.146h4.327v4.096C101.482,201.816,100.983,203.887,99.985,205.229z"/>
	<path d="M104.226,206.916v-28.952h4.409v11.712h3.948v-11.712h4.409v28.952h-4.409V193.46h-3.948v13.456H104.226z"/>
	<path d="M120.492,206.916v-28.952h9.705v3.8h-5.296v8.422h5.034v3.718h-5.034v9.213h5.494v3.8h-9.903V206.916z"/>
	<path d="M138.896,193.312l-1.415-0.065v13.67h-4.408v-28.952h7.287c1.514,0,2.643,0.304,3.389,0.912
		c0.746,0.609,1.236,1.459,1.473,2.55c0.235,1.092,0.354,2.518,0.354,4.277c0,1.761-0.187,3.101-0.56,4.022
		s-1.063,1.541-2.072,1.858c0.998,0.176,1.694,0.851,2.089,2.023c0.395,1.174,0.593,3.616,0.593,7.329
		c0,3.712,0.055,5.705,0.164,5.979h-4.408c-0.11-0.22-0.165-3.68-0.165-10.38c0-1.283-0.153-2.136-0.461-2.559
		C140.448,193.556,139.828,193.334,138.896,193.312z M137.498,189.824h1.761c0.559,0,0.973-0.126,1.241-0.379
		c0.269-0.252,0.455-0.685,0.56-1.299s0.156-1.552,0.156-2.813v-0.181c0-1.568-0.132-2.594-0.395-3.076
		c-0.264-0.482-0.872-0.724-1.826-0.724h-1.497V189.824z"/>
	<path d="M154.04,206.916v-28.952h5.479l4.112,21.154l3.865-21.154h5.512v28.952h-3.932v-10.792l0.164-9.902l-3.898,20.562h-3.504
		l-4.063-20.562l0.165,9.902v10.792L154.04,206.916L154.04,206.916z"/>
	<path d="M176.524,206.916v-28.952h9.706v3.8h-5.297v8.422h5.033v3.718h-5.033v9.213h5.494v3.8h-9.903V206.916z"/>
	<path d="M189.271,206.916v-28.952h4.408v28.952H189.271z"/>
	<path d="M196.769,198.772v-2.582h4.178v2.911c0,1.612,0.138,2.745,0.411,3.397c0.274,0.652,0.79,0.979,1.547,0.979
		s1.259-0.269,1.505-0.806c0.247-0.537,0.37-1.415,0.37-2.632c0-1.218-0.22-2.278-0.658-3.184c-0.438-0.904-1.135-1.851-2.089-2.838
		l-2.139-2.204c-0.998-1.042-1.773-2.122-2.327-3.24c-0.555-1.119-0.831-2.413-0.831-3.883c0-2.391,0.461-4.167,1.382-5.33
		c0.921-1.162,2.506-1.743,4.754-1.743s3.77,0.677,4.565,2.031s1.192,3.331,1.192,5.931v1.793h-4.063V185.3
		c0-1.403-0.12-2.409-0.361-3.019c-0.241-0.608-0.705-0.913-1.391-0.913s-1.179,0.23-1.48,0.691s-0.452,1.151-0.452,2.072
		c0,0.922,0.153,1.656,0.461,2.205c0.307,0.548,0.86,1.25,1.661,2.105l2.385,2.582c1.195,1.295,2.098,2.605,2.706,3.932
		c0.609,1.327,0.913,2.775,0.913,4.344c0,2.708-0.455,4.71-1.365,6.004s-2.503,1.941-4.778,1.941c-2.276,0-3.86-0.722-4.754-2.163
		C197.215,203.64,196.769,201.536,196.769,198.772z"/>
	<path d="M212.869,206.916V181.78h-3.389v-3.816h11.038v3.816h-3.257v25.136H212.869z"/>
	<path d="M222.111,206.916v-28.952h9.706v3.8h-5.297v8.422h5.033v3.718h-5.033v9.213h5.494v3.8h-9.903V206.916z"/>
	<path d="M240.516,193.312l-1.414-0.065v13.67h-4.409v-28.952h7.288c1.513,0,2.643,0.304,3.389,0.912
		c0.745,0.609,1.236,1.459,1.472,2.55c0.236,1.092,0.354,2.518,0.354,4.277c0,1.761-0.187,3.101-0.559,4.022
		c-0.373,0.921-1.064,1.541-2.073,1.858c0.998,0.176,1.694,0.851,2.09,2.023c0.395,1.174,0.592,3.616,0.592,7.329
		c0,3.712,0.055,5.705,0.164,5.979H243c-0.109-0.22-0.164-3.68-0.164-10.38c0-1.283-0.154-2.136-0.461-2.559
		C242.067,193.556,241.448,193.334,240.516,193.312z M239.118,189.824h1.76c0.56,0,0.973-0.126,1.242-0.379
		c0.269-0.252,0.455-0.685,0.56-1.299c0.104-0.614,0.156-1.552,0.156-2.813v-0.181c0-1.568-0.132-2.594-0.396-3.076
		c-0.263-0.482-0.871-0.724-1.826-0.724h-1.496V189.824z"/>
	<path d="M72.26,238.775c-1.066,0-1.933-0.087-2.598-0.26c-0.666-0.174-1.229-0.49-1.688-0.95c-0.46-0.461-0.784-1.085-0.971-1.873
		c-0.187-0.788-0.28-1.807-0.28-3.056V218.13c0-1.249,0.093-2.268,0.28-3.056s0.51-1.413,0.971-1.873
		c0.46-0.46,1.023-0.777,1.688-0.95s1.531-0.26,2.598-0.26v2.734c-0.812,0-1.331,0.212-1.559,0.636s-0.342,1.328-0.342,2.714v14.615
		c0,1.386,0.114,2.29,0.342,2.714c0.228,0.424,0.747,0.636,1.559,0.636V238.775z"/>
	<path d="M74.748,230.148v-2.146h3.473v2.42c0,1.34,0.114,2.281,0.342,2.823c0.228,0.542,0.656,0.813,1.285,0.813
		s1.046-0.224,1.251-0.67s0.308-1.176,0.308-2.188s-0.183-1.894-0.547-2.646c-0.365-0.752-0.943-1.538-1.736-2.358l-1.777-1.832
		c-0.83-0.866-1.475-1.764-1.935-2.693c-0.46-0.93-0.69-2.005-0.69-3.227c0-1.987,0.383-3.464,1.148-4.43s2.083-1.449,3.951-1.449
		c1.868,0,3.133,0.562,3.794,1.688c0.661,1.126,0.991,2.769,0.991,4.929v1.49h-3.377v-1.723c0-1.167-0.101-2.003-0.301-2.509
		c-0.201-0.506-0.586-0.759-1.155-0.759c-0.57,0-0.98,0.191-1.23,0.574c-0.251,0.383-0.376,0.957-0.376,1.723
		s0.127,1.376,0.383,1.832c0.255,0.456,0.715,1.039,1.381,1.75l1.982,2.146c0.993,1.075,1.743,2.165,2.249,3.268
		s0.759,2.306,0.759,3.609c0,2.251-0.378,3.915-1.135,4.99c-0.757,1.075-2.081,1.613-3.972,1.613c-1.892,0-3.208-0.6-3.951-1.798
		C75.119,234.193,74.748,232.445,74.748,230.148z"/>
	<path d="M96.814,235.624c-0.839,1.044-2.186,1.565-4.04,1.565c-1.855,0-3.204-0.524-4.047-1.572
		c-0.843-1.048-1.265-2.675-1.265-4.881V212.84h3.664v17.828c0,1.267,0.059,2.037,0.178,2.311c0.118,0.273,0.262,0.521,0.431,0.745
		c0.168,0.224,0.517,0.335,1.046,0.335c0.528,0,0.907-0.155,1.135-0.465c0.228-0.31,0.367-0.695,0.417-1.155
		c0.05-0.46,0.075-1.051,0.075-1.771V212.84h3.664v17.896C98.072,232.951,97.653,234.58,96.814,235.624z"/>
	<path d="M101.545,236.916v-24.062h5.523c1.868,0,3.146,0.567,3.835,1.702c0.688,1.135,1.05,2.828,1.087,5.079v0.506
		c0,2.388-0.34,4.199-1.019,5.435c-0.679,1.235-1.939,1.853-3.78,1.853h-1.982v9.488L101.545,236.916L101.545,236.916z
		 M105.209,224.406h1.258c0.774,0,1.278-0.299,1.511-0.896s0.349-1.734,0.349-3.411v-0.465c-0.009-1.422-0.135-2.438-0.376-3.049
		c-0.242-0.61-0.727-0.916-1.456-0.916h-1.285L105.209,224.406L105.209,224.406z"/>
	<path d="M114.451,236.916v-24.062h8.066v3.158h-4.402v7h4.184v3.09h-4.184v7.656h4.566v3.158L114.451,236.916L114.451,236.916z"/>
	<path d="M130.447,225.609l-1.176-0.055v11.361h-3.664v-24.062h6.057c1.258,0,2.196,0.253,2.816,0.759
		c0.619,0.506,1.027,1.212,1.224,2.119c0.195,0.907,0.294,2.092,0.294,3.555s-0.155,2.577-0.465,3.343
		c-0.311,0.766-0.885,1.28-1.723,1.545c0.829,0.146,1.408,0.706,1.736,1.682s0.492,3.006,0.492,6.091s0.045,4.742,0.137,4.97h-3.664
		c-0.092-0.183-0.137-3.058-0.137-8.627c0-1.066-0.128-1.775-0.383-2.126C131.736,225.812,131.222,225.628,130.447,225.609z
		 M129.285,222.711h1.463c0.465,0,0.809-0.104,1.032-0.314c0.223-0.21,0.378-0.569,0.465-1.08c0.086-0.511,0.13-1.29,0.13-2.338
		v-0.15c0-1.304-0.109-2.155-0.328-2.557s-0.725-0.602-1.518-0.602h-1.244L129.285,222.711L129.285,222.711z"/>
	<path d="M139.416,236.916v-24.062h3.664v20.945h4.635v3.117L139.416,236.916L139.416,236.916z"/>
	<path d="M149.957,236.916v-24.062h3.664v24.062H149.957z"/>
	<path d="M161.893,237.162c-1.514,0-2.696-0.595-3.548-1.784c-0.853-1.189-1.278-3.023-1.278-5.503v-10.459
		c0-2.224,0.435-3.919,1.306-5.086c0.87-1.167,2.253-1.75,4.149-1.75c2.36,0,3.859,0.88,4.498,2.639
		c0.383,1.058,0.574,2.502,0.574,4.334v1.709h-3.418v-2.516c0-1.103-0.116-1.878-0.349-2.324s-0.67-0.67-1.312-0.67
		s-1.097,0.267-1.36,0.8c-0.265,0.533-0.396,1.479-0.396,2.837v10.432c0,1.577,0.118,2.675,0.355,3.295
		c0.236,0.62,0.699,0.93,1.388,0.93c0.688,0,1.176-0.333,1.463-0.998s0.431-1.786,0.431-3.363v-3.24h-1.846v-2.666h5.045v13.139
		h-1.641l-0.561-2.365c-0.191,0.812-0.611,1.449-1.258,1.914C163.487,236.93,162.74,237.162,161.893,237.162z"/>
	<path d="M169.945,236.916l3.432-24.062h4.84l3.65,24.062h-3.418l-0.574-4.293h-3.883l-0.52,4.293H169.945z M177.492,229.684
		l-1.613-12.086h-0.055l-1.477,12.086H177.492z"/>
	<path d="M183.754,238.775v-2.734c0.811,0,1.33-0.212,1.559-0.636c0.228-0.424,0.342-1.328,0.342-2.714v-14.615
		c0-1.386-0.114-2.29-0.342-2.714c-0.229-0.424-0.748-0.636-1.559-0.636v-2.734c1.066,0,1.932,0.087,2.598,0.26
		c0.665,0.173,1.226,0.49,1.682,0.95c0.455,0.46,0.776,1.085,0.964,1.873c0.187,0.788,0.28,1.807,0.28,3.056v14.506
		c0,1.249-0.094,2.268-0.28,3.056c-0.188,0.788-0.509,1.412-0.964,1.873c-0.456,0.46-1.017,0.776-1.682,0.95
		C185.686,238.688,184.82,238.775,183.754,238.775z"/>
</g>
</svg>
