<?xml version="1.0" encoding="utf-8"?>
<!-- Generator: Adobe Illustrator 17.0.0, SVG Export Plug-In . SVG Version: 6.00 Build 0)  -->
<!DOCTYPE svg PUBLIC "-//W3C//DTD SVG 1.1//EN" "http://www.w3.org/Graphics/SVG/1.1/DTD/svg11.dtd">
<svg version="1.1" id="Layer_1" xmlns="http://www.w3.org/2000/svg" xmlns:xlink="http://www.w3.org/1999/xlink" x="0px" y="0px"
	 width="256px" height="256px" viewBox="0 0 256 256" enable-background="new 0 0 256 256" xml:space="preserve">
<g>
	<g>
		<polygon fill="#FF0000" points="78.5,160.3 44.2,83.8 76.3,57.2 194,55.9 211.1,86.4 177.4,163.2 144.4,138.3 164.5,87.7 
			87.5,88.1 113.6,136.3 		"/>
		<g>
			<g>
				<path fill="#FFFFFF" d="M78.5,166.5c-1.8,0-3.6-1-4.4-2.8L38.5,87.1c-0.9-2-0.4-4.4,1.3-5.8l34.5-28.6c1.2-1,2.7-1.3,4.1-1
					c1.5,0.3,2.7,1.3,3.3,2.7l35.7,76.7c1.1,2.4,0.1,5.3-2.3,6.4c-2.4,1.1-5.3,0.1-6.4-2.3l-33.1-71L48.8,86.4l34.1,73.1
					c1.1,2.4,0.1,5.3-2.3,6.4C79.9,166.3,79.2,166.5,78.5,166.5z"/>
			</g>
			<g>
				<path fill="#FFFFFF" d="M177,167.5c-0.7,0-1.4-0.1-2-0.5c-2.4-1.1-3.5-4-2.3-6.4l34.6-74.1l-26.8-22.3l-33.2,71.2
					c-1.1,2.4-4,3.5-6.4,2.3c-2.4-1.1-3.5-4-2.3-6.4l35.8-76.8c0.6-1.4,1.9-2.3,3.3-2.7c1.5-0.3,3,0,4.1,1l34.5,28.6
					c1.7,1.4,2.2,3.8,1.3,5.8l-36.1,77.5C180.6,166.4,178.8,167.5,177,167.5z"/>
			</g>
			<g>
				<path fill="#FFFFFF" d="M178.6,60L178.6,60L77.3,60.5c-2.7,0-4.8-1.6-4.8-4.3s2.2-4.3,4.8-4.3l0,0L178.6,52c2.7,0,4.8,1.3,4.8,4
					C183.4,58.7,181.3,60,178.6,60z"/>
			</g>
			<g>
				<path fill="#FFFFFF" d="M163.7,93L163.7,93l-71.4-0.1c-2.7,0-4.8-2.3-4.8-4.9c0-2.7,2.2-4.9,4.8-4.9l0,0l71.4,0.3
					c2.7,0,4.8,2.2,4.8,4.9C168.5,90.8,166.4,93,163.7,93z"/>
			</g>
		</g>
		<g>
			<g>
				<g>
					<path fill="#FFFFFF" d="M127.1,248.4c-12.7,0-24.7-4-34.9-11.5c-26-19.3-31.5-56.2-12.3-82.2c11-14.9,28.7-23.8,47.3-23.8
						c12.7,0,24.7,4,34.9,11.5c12.6,9.3,20.8,23,23.2,38.6c2.3,15.5-1.6,31-10.9,43.6C163.4,239.5,145.7,248.4,127.1,248.4z
						 M127.2,139.7c-15.8,0-30.8,7.6-40.2,20.2c-16.4,22.1-11.7,53.5,10.4,69.8c8.7,6.4,18.9,9.8,29.7,9.8
						c15.8,0,30.8-7.6,40.2-20.2c7.9-10.7,11.2-23.9,9.3-37.1c-2-13.2-9-24.8-19.7-32.8C148.2,143.1,138,139.7,127.2,139.7z"/>
				</g>
			</g>
			<g>
				<g>
					<polygon fill="#FFFFFF" points="113.7,137.1 104.1,158.8 80.4,161.3 					"/>
				</g>
			</g>
			<g>
				<g>
					<polygon fill="#FFFFFF" points="147,240.1 126.6,228.1 105.9,239.8 					"/>
				</g>
			</g>
			<g>
				<g>
					<polygon fill="#FFFFFF" points="174.1,162 150.6,159.3 141.2,137.4 					"/>
				</g>
			</g>
			<g>
				<g>
					<polygon fill="#FFFFFF" points="86,225.6 90.9,202.4 73.1,186.6 					"/>
				</g>
			</g>
			<g>
				<g>
					<polygon fill="#FFFFFF" points="181.4,185.9 163.7,201.6 168.5,224.9 					"/>
				</g>
			</g>
		</g>
	</g>
	<path fill="#FFFF00" d="M127.2,139.7c-15.8,0-30.8,7.6-40.2,20.2c-16.4,22.1-11.7,53.5,10.4,69.8c8.7,6.4,18.9,9.8,29.7,9.8
		c15.8,0,30.8-7.6,40.2-20.2c7.9-10.7,11.2-23.9,9.3-37.1c-2-13.2-9-24.8-19.7-32.8C148.2,143.1,138,139.7,127.2,139.7z"/>
	<path fill="#ABD100" d="M145.3,227.9c-4.8,5,11.8-7.4,16-13.1c6.7-9.1,9.5-20.3,7.9-31.5c-1.7-11.2-7.6-21.1-16.7-27.8
		c-1.8-1.4-3.8-2.6-5.8-3.6c0,0,13.9,19.1,12.9,36.9S152.8,220.2,145.3,227.9z"/>
	<path fill="#FF9F00" d="M95.4,188.3c-1-21.7,16.8-38.3,16.8-38.3c-7.5,2.9-14.2,7.8-19.1,14.4c-13.9,18.8-10,45.4,8.9,59.4
		c2.3,1.7,9.2,6.2,7.2,4.3C104.5,223.8,96.4,210,95.4,188.3z"/>
</g>
<g>
	<path fill="#FFFFFF" d="M192,10.3c-17.1,0-32.4,8-42.3,20.6h-0.3v0.3c-7.1,9.1-11.4,20.6-11.4,33c0,29.7,24.2,53.9,53.9,53.9
		s53.9-24.2,53.9-53.9S221.7,10.3,192,10.3z"/>
	<path d="M192,10.3c-17.1,0-32.4,8-42.3,20.6h-0.3v0.3c-7.1,9.1-11.4,20.6-11.4,33c0,29.7,24.2,53.9,53.9,53.9s53.9-24.2,53.9-53.9
		S221.7,10.3,192,10.3z M208.6,100.9l-23.1-3L183.7,78l17.6-10.7L217,82.4L208.6,100.9z M171.2,103.3L151.9,89l-2.1-14.7l11.8-7.4
		L181.5,78l1.9,20.2L171.2,103.3z M149.1,72.2L142,57.4l9.3-15.3l9.7,2l-0.2,20.8L149.1,72.2z M188.3,19l21.3,2.9l7.3,13.6
		l-16.1,7.9l-16.5-11.5L188.3,19z M231.4,74.4l-12.6,6.7l-16.9-16.2l0.2-19.7l16-7.9L232.3,50L231.4,74.4z M233.5,74.9l1-24.5
		l7.1-0.9c1.4,4.7,2.1,9.6,2.1,14.7c0,4.6-0.6,9-1.7,13.2L233.5,74.9z M240.9,47.4l-7.1,0.9l-14.6-13.1L212,21.9l6.1-2.4
		C228.7,25.7,236.9,35.6,240.9,47.4z M178.8,14.2l7.4,4.1L182,32.1L162.3,42l-10.5-2.1l-0.2-8.1C158.5,23.4,167.9,17,178.8,14.2z
		 M149.7,40.5l-8.5,14.1c1.4-7.3,4.3-14.1,8.4-20L149.7,40.5z M140.5,59.2l7.1,14.9l2.1,14.8l-2.9,0.4c-4.1-7.4-6.5-16-6.5-25.1
		C140.3,62.5,140.4,60.8,140.5,59.2z M172.4,112.1l-0.2-6.8l12.5-5.3l23.9,3.1l4.4,8.4c-6.4,2.9-13.5,4.5-21,4.5
		C185.1,115.9,178.5,114.5,172.4,112.1z"/>
</g>
<g>
	<g>
		<ellipse fill="#272A9B" stroke="#000000" stroke-miterlimit="10" cx="191.6" cy="65.2" rx="40.8" ry="40.6"/>
	</g>
	<g>
		<path fill="#FFFFFF" d="M168.2,76.7v-29h9.9v3.8h-5.5v7.7h5.1V63h-5.1v13.6h-4.4V76.7z"/>
		<path fill="#FFFFFF" d="M181.5,76.7v-29h4.4v29H181.5z"/>
		<path fill="#FFFFFF" d="M190.4,76.7v-29h9.9v3.8h-5.5v7.7h5.1V63h-5.1v13.6h-4.4V76.7z"/>
		<path fill="#FFFFFF" d="M201.8,76.7l4.1-29h5.8l4.4,29H212l-0.7-5.2h-4.7l-0.6,5.2H201.8z M210.9,68L209,53.4h-0.1L207.1,68H210.9
			z"/>
	</g>
</g>
<g>
	<path d="M64.33,181.018v-2.582h4.178v2.911c0,1.612,0.137,2.745,0.411,3.397c0.274,0.652,0.79,0.979,1.546,0.979
		c0.757,0,1.259-0.269,1.505-0.806s0.37-1.415,0.37-2.632c0-1.218-0.22-2.278-0.658-3.184c-0.438-0.904-1.135-1.851-2.089-2.838
		l-2.139-2.204c-0.998-1.042-1.774-2.122-2.328-3.24c-0.554-1.119-0.831-2.413-0.831-3.883c0-2.391,0.46-4.167,1.382-5.33
		c0.921-1.162,2.505-1.743,4.754-1.743c2.248,0,3.77,0.677,4.565,2.031c0.795,1.354,1.192,3.331,1.192,5.931v1.793h-4.063v-2.073
		c0-1.403-0.121-2.409-0.362-3.019c-0.241-0.608-0.705-0.913-1.39-0.913c-0.686,0-1.179,0.23-1.48,0.691
		c-0.302,0.461-0.453,1.151-0.453,2.072c0,0.922,0.154,1.656,0.461,2.205c0.307,0.548,0.861,1.25,1.661,2.105l2.385,2.582
		c1.195,1.295,2.098,2.605,2.706,3.932c0.609,1.327,0.913,2.775,0.913,4.344c0,2.708-0.455,4.71-1.365,6.004
		c-0.911,1.294-2.503,1.941-4.779,1.941s-3.86-0.722-4.754-2.163C64.776,185.885,64.33,183.781,64.33,181.018z"/>
	<path d="M79.957,189.161v-28.952h4.409v28.952H79.957z"/>
	<path d="M88.873,189.161v-28.952h4.409v25.201h5.577v3.751L88.873,189.161L88.873,189.161z"/>
	<path d="M113.779,167.644c0,3.115-0.845,5.029-2.534,5.741c2.062,0.691,3.093,2.967,3.093,6.827v0.74
		c-0.022,2.906-0.529,5.001-1.521,6.284c-0.993,1.283-2.613,1.925-4.861,1.925h-6.399v-28.952h6.268c2.16,0,3.69,0.501,4.589,1.505
		c0.899,1.003,1.354,2.684,1.366,5.042L113.779,167.644L113.779,167.644z M105.965,171.921h1.628c0.757,0,1.253-0.241,1.489-0.724
		s0.354-1.475,0.354-2.978v-1.744c-0.011-1.118-0.164-1.866-0.46-2.245c-0.296-0.378-0.806-0.567-1.53-0.567h-1.48L105.965,171.921
		L105.965,171.921z M105.965,185.739h1.562c0.877,0,1.492-0.302,1.843-0.904c0.351-0.604,0.526-1.684,0.526-3.241v-2.336
		c0-1.47-0.143-2.509-0.428-3.117s-0.833-0.913-1.645-0.913h-1.859L105.965,185.739L105.965,185.739z"/>
	<path d="M117.776,189.161v-28.952h9.706v3.8h-5.297v8.422h5.034v3.718h-5.034v9.213h5.494v3.8h-9.903V189.161z"/>
	<path d="M137.023,175.557l-1.415-0.065v13.67H131.2V160.21h7.287c1.514,0,2.643,0.304,3.389,0.912
		c0.746,0.609,1.236,1.459,1.473,2.55c0.235,1.092,0.354,2.518,0.354,4.277c0,1.761-0.187,3.101-0.56,4.022
		s-1.063,1.541-2.072,1.858c0.998,0.176,1.694,0.851,2.089,2.023c0.395,1.174,0.593,3.616,0.593,7.329
		c0,3.712,0.055,5.705,0.164,5.979h-4.408c-0.11-0.22-0.165-3.68-0.165-10.38c0-1.283-0.153-2.136-0.461-2.559
		C138.575,175.801,137.955,175.579,137.023,175.557z M135.625,172.069h1.761c0.559,0,0.973-0.126,1.241-0.379
		c0.269-0.252,0.455-0.685,0.56-1.299s0.156-1.552,0.156-2.813v-0.181c0-1.568-0.132-2.594-0.395-3.076
		c-0.264-0.482-0.872-0.724-1.826-0.724h-1.497V172.069z"/>
	<path d="M147.814,189.161v-28.952h3.454l6.136,17.371l-0.312-7.896v-9.475h3.965v28.952h-3.126l-6.3-17.98l0.247,7.601v10.38
		h-4.064V189.161z"/>
	<path d="M165.399,189.161v-28.952h9.706v3.8h-5.297v8.422h5.033v3.718h-5.033v9.213h5.494v3.8h-9.903V189.161z"/>
	<path d="M184.646,175.557l-1.415-0.065v13.67h-4.408V160.21h7.287c1.514,0,2.643,0.304,3.389,0.912
		c0.746,0.609,1.236,1.459,1.473,2.55c0.235,1.092,0.354,2.518,0.354,4.277c0,1.761-0.187,3.101-0.56,4.022
		s-1.063,1.541-2.072,1.858c0.998,0.176,1.694,0.851,2.089,2.023c0.395,1.174,0.593,3.616,0.593,7.329
		c0,3.712,0.055,5.705,0.164,5.979h-4.408c-0.11-0.22-0.165-3.68-0.165-10.38c0-1.283-0.153-2.136-0.461-2.559
		C186.198,175.801,185.578,175.579,184.646,175.557z M183.248,172.069h1.761c0.559,0,0.973-0.126,1.241-0.379
		c0.269-0.252,0.455-0.685,0.56-1.299s0.156-1.552,0.156-2.813v-0.181c0-1.568-0.132-2.594-0.395-3.076
		c-0.264-0.482-0.872-0.724-1.826-0.724h-1.497V172.069z"/>
	<path d="M61.418,201.644c0,3.115-0.845,5.029-2.534,5.741c2.062,0.691,3.093,2.967,3.093,6.827v0.74
		c-0.022,2.906-0.529,5.001-1.521,6.284c-0.993,1.283-2.613,1.925-4.861,1.925h-6.399v-28.952h6.268c2.16,0,3.69,0.501,4.589,1.505
		c0.899,1.003,1.354,2.684,1.366,5.042v0.888H61.418z M53.604,205.921h1.628c0.757,0,1.253-0.241,1.489-0.724
		s0.354-1.475,0.354-2.978v-1.744c-0.011-1.118-0.164-1.866-0.46-2.245c-0.296-0.378-0.806-0.567-1.53-0.567h-1.48L53.604,205.921
		L53.604,205.921z M53.604,219.739h1.562c0.877,0,1.492-0.302,1.843-0.904c0.351-0.604,0.526-1.684,0.526-3.241v-2.336
		c0-1.47-0.143-2.509-0.428-3.117s-0.833-0.913-1.645-0.913h-1.859v10.511H53.604z"/>
	<path d="M64.099,223.161l4.129-28.952h5.823l4.393,28.952h-4.113l-0.691-5.166h-4.672l-0.625,5.166H64.099z M73.18,214.459
		l-1.941-14.542h-0.065l-1.777,14.542L73.18,214.459L73.18,214.459z"/>
	<path d="M81.471,223.161v-28.952h4.409v25.201h5.577v3.751L81.471,223.161L81.471,223.161z"/>
	<path d="M93.989,223.161v-28.952h4.409v25.201h5.577v3.751L93.989,223.161L93.989,223.161z"/>
	<path d="M112.528,223.161v-28.952h6.498c2.127,0,3.671,0.628,4.631,1.883c0.959,1.256,1.439,3.106,1.439,5.552l0.016,13.062
		c0,2.918-0.482,5.057-1.447,6.416c-0.965,1.36-2.561,2.04-4.787,2.04L112.528,223.161L112.528,223.161z M116.937,219.739h1.448
		c0.812,0,1.401-0.264,1.769-0.79c0.367-0.526,0.551-1.491,0.551-2.895l-0.016-14.296c0-1.502-0.184-2.571-0.551-3.207
		c-0.368-0.637-1.001-0.954-1.9-0.954h-1.3L116.937,219.739L116.937,219.739z"/>
	<path d="M129.077,223.161v-28.952h9.706v3.8h-5.297v8.422h5.033v3.718h-5.033v9.213h5.494v3.8h-9.903V223.161z"/>
	<path d="M148.324,209.557l-1.415-0.065v13.67h-4.408V194.21h7.287c1.514,0,2.643,0.304,3.389,0.912
		c0.746,0.609,1.236,1.459,1.473,2.55c0.235,1.092,0.354,2.518,0.354,4.277c0,1.761-0.187,3.101-0.56,4.022
		s-1.063,1.541-2.072,1.858c0.998,0.176,1.694,0.851,2.089,2.023c0.395,1.174,0.593,3.616,0.593,7.329
		c0,3.712,0.055,5.705,0.164,5.979h-4.408c-0.11-0.22-0.165-3.68-0.165-10.38c0-1.283-0.153-2.136-0.461-2.559
		C149.876,209.801,149.256,209.579,148.324,209.557z M146.926,206.069h1.761c0.559,0,0.973-0.126,1.241-0.379
		c0.269-0.252,0.455-0.685,0.56-1.299s0.156-1.552,0.156-2.813v-0.181c0-1.568-0.132-2.594-0.395-3.076
		c-0.264-0.482-0.872-0.724-1.826-0.724h-1.497V206.069z"/>
	<path d="M167.506,223.161l-3.537-28.952h3.948l2.122,20.628l2.697-20.628h3.554l2.714,20.628l1.876-20.628h3.964l-3.322,28.952
		h-4.393l-2.566-19.247l-2.665,19.247H167.506z"/>
	<path d="M187.985,223.161v-28.952h5.479l4.112,21.154l3.865-21.154h5.512v28.952h-3.932v-10.792l0.164-9.902l-3.898,20.562h-3.504
		l-4.063-20.562l0.165,9.902v10.792L187.985,223.161L187.985,223.161z"/>
</g>
</svg>
