<?xml version="1.0" encoding="utf-8"?>
<!-- Generator: Adobe Illustrator 17.0.0, SVG Export Plug-In . SVG Version: 6.00 Build 0)  -->
<!DOCTYPE svg PUBLIC "-//W3C//DTD SVG 1.1//EN" "http://www.w3.org/Graphics/SVG/1.1/DTD/svg11.dtd">
<svg version="1.1" id="Layer_1" xmlns="http://www.w3.org/2000/svg" xmlns:xlink="http://www.w3.org/1999/xlink" x="0px" y="0px"
	 width="256px" height="256px" viewBox="0 0 256 256" enable-background="new 0 0 256 256" xml:space="preserve">
<polygon fill="#FFFF00" points="128,188.6 53.1,243.2 82,155.1 6.8,100.8 99.5,101 128,12.8 156.5,101 249.2,100.8 174,155.1 
	202.9,243.2 "/>
<path fill="#FFFFFF" d="M192,10.3c-17.1,0-32.4,8-42.3,20.6h-0.3v0.3c-7.1,9.1-11.4,20.6-11.4,33c0,29.7,24.2,53.9,53.9,53.9
	s53.9-24.2,53.9-53.9S221.7,10.3,192,10.3z"/>
<path d="M192,10.3c-17.1,0-32.4,8-42.3,20.6h-0.3v0.3c-7.1,9.1-11.4,20.6-11.4,33c0,29.7,24.2,53.9,53.9,53.9s53.9-24.2,53.9-53.9
	S221.7,10.3,192,10.3z M208.6,100.9l-23.1-3L183.7,78l17.6-10.7L217,82.4L208.6,100.9z M171.2,103.3L151.9,89l-2.1-14.7l11.8-7.4
	L181.5,78l1.9,20.2L171.2,103.3z M149.1,72.2L142,57.4l9.3-15.3l9.7,2l-0.2,20.8L149.1,72.2z M188.3,19l21.3,2.9l7.3,13.6l-16.1,7.9
	l-16.5-11.5L188.3,19z M231.4,74.4l-12.6,6.7l-16.9-16.2l0.2-19.7l16-7.9L232.3,50L231.4,74.4z M233.5,74.9l1-24.5l7.1-0.9
	c1.4,4.7,2.1,9.6,2.1,14.7c0,4.6-0.6,9-1.7,13.2L233.5,74.9z M240.9,47.4l-7.1,0.9l-14.6-13.1L212,21.9l6.1-2.4
	C228.7,25.7,236.9,35.6,240.9,47.4z M178.8,14.2l7.4,4.1L182,32.1L162.3,42l-10.5-2.1l-0.2-8.1C158.5,23.4,167.9,17,178.8,14.2z
	 M149.7,40.5l-8.5,14.1c1.4-7.3,4.3-14.1,8.4-20L149.7,40.5z M140.5,59.2l7.1,14.9l2.1,14.8l-2.9,0.4c-4.1-7.4-6.5-16-6.5-25.1
	C140.3,62.5,140.4,60.8,140.5,59.2z M172.4,112.1l-0.2-6.8l12.5-5.3l23.9,3.1l4.4,8.4c-6.4,2.9-13.5,4.5-21,4.5
	C185.1,115.9,178.5,114.5,172.4,112.1z"/>
<g>
	<g>
		<circle fill="#F0F0F0" cx="192.4" cy="63.8" r="41"/>
		<path fill="#0052B4" d="M192.4,104.8c22.6,0,41-18.3,41-41c0-5-0.9-9.8-2.5-14.2H154c-1.6,4.4-2.5,9.2-2.5,14.2
			C151.5,86.4,169.8,104.8,192.4,104.8z"/>
		<path fill="#D80027" d="M192.4,104.8c17.6,0,32.6-11.1,38.4-26.7H154C159.8,93.6,174.8,104.8,192.4,104.8z"/>
		<path fill="#F0F0F0" d="M162,46v20.4c0,11.6,15.2,15.2,15.2,15.2s15.2-3.6,15.2-15.2V46H162z"/>
		<path fill="#D80027" d="M165.6,46v20.4c0,1.4,0.3,2.7,0.9,3.9h21.4c0.6-1.2,0.9-2.5,0.9-3.9V46H165.6z"/>
		<polygon fill="#F0F0F0" points="184.4,60.2 179,60.2 179,56.7 182.6,56.7 182.6,53.1 179,53.1 179,49.6 175.4,49.6 175.4,53.1 
			171.9,53.1 171.9,56.7 175.4,56.7 175.4,60.2 170.1,60.2 170.1,63.8 175.4,63.8 175.4,67.4 179,67.4 179,63.8 184.4,63.8 		"/>
		<path fill="#0052B4" d="M171.4,75.3c2.3,1.4,4.7,2.3,5.9,2.7c1.2-0.4,3.6-1.2,5.9-2.7c2.3-1.5,3.9-3.1,4.9-5
			c-1-0.7-2.3-1.1-3.6-1.1c-0.5,0-1,0.1-1.4,0.2c-1-2.2-3.2-3.7-5.7-3.7s-4.7,1.5-5.7,3.7c-0.5-0.1-0.9-0.2-1.4-0.2
			c-1.3,0-2.6,0.4-3.6,1.1C167.4,72.1,169.1,73.8,171.4,75.3z"/>
	</g>
	<ellipse fill="none" stroke="#020200" stroke-width="1.484" stroke-miterlimit="10" cx="192.1" cy="64" rx="41.3" ry="40.6"/>
</g>
<g>
	<path fill="none" stroke="#000000" stroke-width="3" stroke-miterlimit="10" d="M157.6,137"/>
	<path fill="#FF0000" d="M157.6,137"/>
</g>
<g>
	<path fill="#FFFFFF" d="M213.758,171.731c19.625-11.172,31.889-33.817,32.5-37.18s-0.73-4.035-3.179-6.335
		c-2.449-2.301-7.039-0.149-7.039-0.149s-20.213,18.595-29.745,26.011c-9.613,7.532-50.911,20.795-56.406,24.127
		s-44.12,18.449-50.228,27.379c0.185,2.71-1.297,9.686,5.424,5.827C111.807,207.553,181.391,189.985,213.758,171.731z"/>
	<g>
		<path fill="none" stroke="#000000" stroke-width="3" stroke-miterlimit="10" d="M183.344,145.73
			c3.292-0.9,5.976-1.793,8.007-2.363c4.321-1.392,9.296-3.104,15.854-5.612c8.634-3.391,18.093-8.964,21.663-10.016
			c6.272-1.846,12.326-0.401,12.326-0.401c3.021,2.096-20.072,21.619-25.613,26.381c-14.268,12.134-60.325,26.055-93.245,41.258
			c-11.731,5.374-16.708,10.441-16.708,10.441s9.091-3.677,15.559-5.559c14.359-4.325,77.181-21.076,92.977-32.064
			c20.388-14.257,29.939-33.363,29.844-36.699c5.494,7.339,2.331,14.009-0.499,18.586c-2.848,4.479-0.238,6.547-1.438,7.78
			c-0.663,0.831-4.311-0.236-7.176,3.026c-2.865,3.262-3.798,5.971-7.351,9.358c-3.572,3.288-0.355,6.466-2.584,9.309
			c-2.247,2.744-5.204-1.802-8.641,0.547c-3.419,2.448-5.37,4.02-11.392,7.244c-5.924,3.206-1.956,7.163-4.256,8.493
			c-2.166,1.51-6.83-4.049-11.367-1.602c-4.537,2.447-21.9,15.445-27.879,19.474c-6.077,4.046-0.521,12.289-2.401,14.255
			c-1.2,1.233-5.722-2.42-9.667-2.316c-2.317,0.114-4.447,1.821-6.604,3.939c-5.774,5.719-0.063,10.885-2.569,12.761
			s-4.587-1.203-9.273-2.387c-4.686-1.185-8.409,1.826-13.531-2.328c-24.606-19.735-22.036-43.167-22.036-43.167
			c1.487-3.013,2.515-2.386,7.327-1.63c4.794,0.657,12.951,0.807,18.608-3.874c5.559-4.664,11.052-16.43,10.144-21.448
			c-0.908-5.019-2.568-8.58,4.015-9.263c2.692-0.284,10.61-2.021,19.753-4.285l4.178-1.061
			C161.72,151.471,161.72,151.471,183.344,145.73z"/>
		<path fill="#978300" d="M183.344,145.73c3.292-0.9,5.976-1.793,8.007-2.363c4.321-1.392,9.296-3.104,15.854-5.612
			c8.634-3.391,18.093-8.964,21.663-10.016c6.272-1.846,12.326-0.401,12.326-0.401c3.021,2.096-20.072,21.619-25.613,26.381
			c-14.268,12.134-60.325,26.055-93.245,41.258c-11.731,5.374-16.708,10.441-16.708,10.441s9.091-3.677,15.559-5.559
			c14.359-4.325,77.181-21.076,92.977-32.064c20.388-14.257,29.939-33.363,29.844-36.699c5.494,7.339,2.331,14.009-0.499,18.586
			c-2.848,4.479-0.238,6.547-1.438,7.78c-0.663,0.831-4.311-0.236-7.176,3.026c-2.865,3.262-3.798,5.971-7.351,9.358
			c-3.572,3.288-0.355,6.466-2.584,9.309c-2.247,2.744-5.204-1.802-8.641,0.547c-3.419,2.448-5.37,4.02-11.392,7.244
			c-5.924,3.206-1.956,7.163-4.256,8.493c-2.166,1.51-6.83-4.049-11.367-1.602c-4.537,2.447-21.9,15.445-27.879,19.474
			c-6.077,4.046-0.521,12.289-2.401,14.255c-1.2,1.233-5.722-2.42-9.667-2.316c-2.317,0.114-4.447,1.821-6.604,3.939
			c-5.774,5.719-0.063,10.885-2.569,12.761s-4.587-1.203-9.273-2.387c-4.686-1.185-8.409,1.826-13.531-2.328
			c-24.606-19.735-22.036-43.167-22.036-43.167c1.487-3.013,2.515-2.386,7.327-1.63c4.794,0.657,12.951,0.807,18.608-3.874
			c5.559-4.664,11.052-16.43,10.144-21.448c-0.908-5.019-2.568-8.58,4.015-9.263c2.692-0.284,10.61-2.021,19.753-4.285l4.178-1.061
			C161.72,151.471,161.72,151.471,183.344,145.73z"/>
	</g>
	<g>
		<g>
			<g>
				<path fill="none" stroke="#1D1D1B" stroke-width="3" d="M155.866,166.859c-0.197,0.036-0.394,0.071-0.608,0.008
					c-1.055-0.216-1.841-1.191-1.724-2.229l2.195-14.828c0.216-1.055,1.191-1.841,2.229-1.724c1.055,0.216,1.841,1.191,1.724,2.229
					l-2.195,14.828C157.352,166.083,156.654,166.717,155.866,166.859z"/>
			</g>
			<g>
				<path fill="none" stroke="#1D1D1B" stroke-width="3" d="M164.769,162.708c-0.197,0.036-0.394,0.071-0.608,0.008
					c-1.055-0.216-1.841-1.191-1.724-2.229l1.71-11.894c0.216-1.055,1.191-1.841,2.229-1.724c1.055,0.216,1.841,1.191,1.724,2.229
					l-1.71,11.894C166.255,161.931,165.557,162.566,164.769,162.708z"/>
			</g>
			<g>
				<path fill="none" stroke="#1D1D1B" stroke-width="3" d="M172.258,159.727c-0.197,0.036-0.394,0.071-0.608,0.008
					c-1.055-0.216-1.841-1.191-1.724-2.229l1.62-11.268c0.216-1.055,1.191-1.841,2.229-1.724c1.055,0.216,1.841,1.191,1.724,2.229
					l-1.62,11.268C173.744,158.95,173.046,159.585,172.258,159.727z"/>
			</g>
			<g>
				<path fill="none" stroke="#1D1D1B" stroke-width="3" d="M180.626,154.86c-0.197,0.036-0.394,0.071-0.608,0.008
					c-1.055-0.216-1.841-1.191-1.724-2.229l1.323-8.979c0.216-1.055,1.191-1.841,2.229-1.724c1.055,0.216,1.841,1.191,1.724,2.229
					l-1.323,8.979C182.111,154.083,181.413,154.718,180.626,154.86z"/>
			</g>
		</g>
		<g>
			<g>
				<path fill="#FFFF00" d="M155.866,166.859c-0.197,0.036-0.394,0.071-0.608,0.008c-1.055-0.216-1.841-1.191-1.724-2.229
					l2.195-14.828c0.216-1.055,1.191-1.841,2.229-1.724c1.055,0.216,1.841,1.191,1.724,2.229l-2.195,14.828
					C157.352,166.083,156.654,166.717,155.866,166.859z"/>
			</g>
			<g>
				<path fill="#FFFF00" d="M164.769,162.708c-0.197,0.036-0.394,0.071-0.608,0.008c-1.055-0.216-1.841-1.191-1.724-2.229
					l1.71-11.894c0.216-1.055,1.191-1.841,2.229-1.724c1.055,0.216,1.841,1.191,1.724,2.229l-1.71,11.894
					C166.255,161.931,165.557,162.566,164.769,162.708z"/>
			</g>
			<g>
				<path fill="#FFFF00" d="M172.258,159.727c-0.197,0.036-0.394,0.071-0.608,0.008c-1.055-0.216-1.841-1.191-1.724-2.229
					l1.62-11.268c0.216-1.055,1.191-1.841,2.229-1.724c1.055,0.216,1.841,1.191,1.724,2.229l-1.62,11.268
					C173.744,158.95,173.046,159.585,172.258,159.727z"/>
			</g>
			<g>
				<path fill="#FFFF00" d="M180.626,154.86c-0.197,0.036-0.394,0.071-0.608,0.008c-1.055-0.216-1.841-1.191-1.724-2.229
					l1.323-8.979c0.216-1.055,1.191-1.841,2.229-1.724c1.055,0.216,1.841,1.191,1.724,2.229l-1.323,8.979
					C182.111,154.083,181.413,154.718,180.626,154.86z"/>
			</g>
		</g>
	</g>
</g>
<g>
	<path d="M22.281,126v-1.533h2.48v1.729c0,0.957,0.082,1.629,0.244,2.017s0.469,0.581,0.918,0.581s0.747-0.159,0.894-0.478
		s0.22-0.84,0.22-1.562s-0.13-1.353-0.391-1.89s-0.674-1.099-1.24-1.685l-1.27-1.309c-0.592-0.619-1.053-1.26-1.382-1.924
		s-0.493-1.432-0.493-2.305c0-1.419,0.273-2.474,0.82-3.164s1.488-1.035,2.822-1.035s2.238,0.402,2.71,1.206
		s0.708,1.978,0.708,3.521v1.064H26.91v-1.23c0-0.833-0.072-1.431-0.215-1.792s-0.418-0.542-0.825-0.542s-0.7,0.137-0.879,0.41
		s-0.269,0.684-0.269,1.23s0.091,0.983,0.273,1.309s0.511,0.742,0.986,1.25l1.416,1.533c0.709,0.768,1.245,1.546,1.606,2.334
		s0.542,1.647,0.542,2.578c0,1.608-0.27,2.796-0.811,3.564c-0.541,0.769-1.486,1.152-2.837,1.152s-2.292-0.428-2.822-1.284
		C22.546,128.889,22.281,127.64,22.281,126z"/>
	<path d="M31.46,130.833v-17.187h2.617v14.96h3.311v2.227L31.46,130.833L31.46,130.833z"/>
	<path d="M45.289,129.788c-0.599,0.827-1.558,1.24-2.876,1.24s-2.285-0.415-2.9-1.245s-0.923-2.081-0.923-3.754v-7.861
		c0-3.151,1.286-4.727,3.857-4.727c1.328,0,2.284,0.4,2.866,1.201s0.874,1.976,0.874,3.525v7.861
		C46.187,127.708,45.888,128.962,45.289,129.788z M41.456,128.167c0.153,0.397,0.467,0.595,0.942,0.595s0.788-0.203,0.938-0.61
		s0.225-1.105,0.225-2.095v-8.008c0-0.814-0.077-1.408-0.229-1.782s-0.453-0.562-0.898-0.562s-0.758,0.187-0.938,0.562
		s-0.269,0.965-0.269,1.772v8.018C41.226,127.067,41.303,127.771,41.456,128.167z"/>
	<path d="M49.957,130.833l-2.1-17.187h2.344l1.26,12.246l1.602-12.246h2.109l1.611,12.246l1.113-12.246h2.354l-1.973,17.187H55.67
		l-1.523-11.425l-1.582,11.425H49.957z"/>
	<path d="M61.07,130.833l2.451-17.187h3.457l2.607,17.187h-2.441l-0.41-3.066H63.96l-0.371,3.066H61.07z M66.46,125.667
		l-1.152-8.633h-0.039l-1.055,8.633H66.46z"/>
	<path d="M71.382,130.833v-17.187H74v7.91l2.617-7.91h2.705l-2.852,8.477l3.076,8.71h-2.764l-2.764-8.027v8.027H71.382z"/>
	<path d="M80.953,130.833v-17.187h2.617v17.187H80.953z"/>
	<path d="M85.904,126v-1.533h2.48v1.729c0,0.957,0.082,1.629,0.244,2.017s0.469,0.581,0.918,0.581s0.747-0.159,0.894-0.478
		s0.22-0.84,0.22-1.562s-0.13-1.353-0.391-1.89s-0.674-1.099-1.24-1.685l-1.27-1.309c-0.592-0.619-1.053-1.26-1.382-1.924
		s-0.493-1.432-0.493-2.305c0-1.419,0.273-2.474,0.82-3.164s1.488-1.035,2.822-1.035s2.238,0.402,2.71,1.206
		s0.708,1.978,0.708,3.521v1.064h-2.412v-1.23c0-0.833-0.072-1.431-0.215-1.792s-0.418-0.542-0.825-0.542s-0.7,0.137-0.879,0.41
		s-0.269,0.684-0.269,1.23s0.091,0.983,0.273,1.309s0.511,0.742,0.986,1.25l1.416,1.533c0.709,0.768,1.245,1.546,1.606,2.334
		s0.542,1.647,0.542,2.578c0,1.608-0.27,2.796-0.811,3.564c-0.541,0.769-1.486,1.152-2.837,1.152s-2.292-0.428-2.822-1.284
		C86.169,128.889,85.904,127.64,85.904,126z"/>
	<path d="M101.451,129.832c-0.592,0.798-1.523,1.196-2.793,1.196s-2.218-0.425-2.847-1.274s-0.942-2.071-0.942-3.667v-7.49
		c0-2.559,0.67-4.157,2.012-4.795c0.495-0.234,1.094-0.352,1.797-0.352c2.416,0,3.623,1.523,3.623,4.57v2.363h-2.529v-2.197
		c0-0.885-0.075-1.519-0.225-1.899s-0.443-0.571-0.879-0.571s-0.739,0.202-0.908,0.605s-0.254,1.022-0.254,1.855v8.027
		c0,0.924,0.082,1.585,0.244,1.982s0.459,0.595,0.889,0.595s0.726-0.201,0.889-0.605s0.244-1.071,0.244-2.002v-2.461h2.568v2.432
		C102.339,127.806,102.043,129.035,101.451,129.832z"/>
	<path d="M104.468,130.833v-17.187h2.617v6.953h2.344v-6.953h2.617v17.187h-2.617v-7.988h-2.344v7.988H104.468z"/>
	<path d="M114.625,130.833v-17.187h5.762v2.256h-3.145v5h2.988v2.207h-2.988v5.468h3.262v2.256H114.625z"/>
	<path d="M126.05,122.757l-0.84-0.039v8.115h-2.617v-17.187h4.326c0.898,0,1.569,0.181,2.011,0.542
		c0.443,0.361,0.734,0.866,0.874,1.514c0.141,0.648,0.21,1.494,0.21,2.539s-0.11,1.841-0.332,2.388
		c-0.221,0.547-0.631,0.915-1.23,1.104c0.592,0.104,1.005,0.504,1.24,1.201s0.352,2.147,0.352,4.351s0.033,3.387,0.098,3.549h-2.617
		c-0.065-0.13-0.098-2.184-0.098-6.162c0-0.762-0.091-1.268-0.273-1.519S126.604,122.771,126.05,122.757z M125.22,120.687h1.045
		c0.332,0,0.578-0.075,0.737-0.225s0.27-0.407,0.332-0.771s0.093-0.921,0.093-1.67v-0.107c0-0.931-0.078-1.54-0.234-1.826
		s-0.518-0.43-1.084-0.43h-0.889V120.687z"/>
	<path d="M22.613,154.833v-17.188h5.898v2.275H25.23v4.57h3.047v2.285H25.23v8.057L22.613,154.833L22.613,154.833z"/>
	<path d="M36.978,153.91c-0.599,0.746-1.561,1.118-2.886,1.118s-2.289-0.374-2.891-1.123c-0.602-0.748-0.903-1.91-0.903-3.486
		v-12.783h2.617v12.734c0,0.905,0.042,1.455,0.127,1.65s0.187,0.373,0.308,0.532c0.121,0.16,0.37,0.239,0.747,0.239
		s0.648-0.11,0.811-0.332c0.163-0.221,0.262-0.496,0.298-0.825c0.036-0.328,0.054-0.75,0.054-1.265v-12.734h2.617v12.783
		C37.876,152.001,37.577,153.165,36.978,153.91z"/>
	<path d="M40.015,149.999v-1.533h2.48v1.729c0,0.957,0.082,1.63,0.244,2.017c0.163,0.388,0.469,0.581,0.918,0.581
		s0.747-0.159,0.894-0.479c0.146-0.318,0.22-0.84,0.22-1.562s-0.13-1.353-0.391-1.89s-0.674-1.099-1.24-1.685l-1.27-1.309
		c-0.592-0.618-1.053-1.26-1.382-1.924s-0.493-1.432-0.493-2.305c0-1.419,0.273-2.474,0.82-3.164
		c0.547-0.689,1.488-1.035,2.822-1.035s2.238,0.402,2.71,1.206c0.472,0.805,0.708,1.978,0.708,3.521v1.064h-2.412v-1.23
		c0-0.833-0.072-1.431-0.215-1.792s-0.418-0.542-0.825-0.542s-0.7,0.137-0.879,0.41s-0.269,0.684-0.269,1.23
		s0.091,0.983,0.273,1.309s0.511,0.742,0.986,1.25l1.416,1.533c0.709,0.769,1.245,1.547,1.606,2.334
		c0.361,0.788,0.542,1.647,0.542,2.578c0,1.608-0.27,2.797-0.811,3.564c-0.541,0.769-1.486,1.152-2.837,1.152
		s-2.292-0.428-2.822-1.284C40.28,152.889,40.015,151.64,40.015,149.999z"/>
	<path d="M48.853,149.999v-1.533h2.48v1.729c0,0.957,0.082,1.63,0.244,2.017c0.163,0.388,0.469,0.581,0.918,0.581
		s0.747-0.159,0.894-0.479c0.146-0.318,0.22-0.84,0.22-1.562s-0.13-1.353-0.391-1.89s-0.674-1.099-1.24-1.685l-1.27-1.309
		c-0.592-0.618-1.053-1.26-1.382-1.924s-0.493-1.432-0.493-2.305c0-1.419,0.273-2.474,0.82-3.164
		c0.547-0.689,1.488-1.035,2.822-1.035s2.238,0.402,2.71,1.206c0.472,0.805,0.708,1.978,0.708,3.521v1.064h-2.412v-1.23
		c0-0.833-0.072-1.431-0.215-1.792s-0.418-0.542-0.825-0.542s-0.7,0.137-0.879,0.41s-0.269,0.684-0.269,1.23
		s0.091,0.983,0.273,1.309s0.511,0.742,0.986,1.25l1.416,1.533c0.709,0.769,1.245,1.547,1.606,2.334
		c0.361,0.788,0.542,1.647,0.542,2.578c0,1.608-0.27,2.797-0.811,3.564c-0.541,0.769-1.486,1.152-2.837,1.152
		s-2.292-0.428-2.822-1.284C49.118,152.889,48.853,151.64,48.853,149.999z"/>
	<path d="M65.386,142.06c0,1.85-0.501,2.985-1.504,3.408c1.224,0.41,1.836,1.762,1.836,4.053v0.439
		c-0.013,1.726-0.314,2.969-0.903,3.73s-1.551,1.143-2.886,1.143H58.13v-17.188h3.721c1.283,0,2.191,0.298,2.725,0.894
		s0.804,1.594,0.811,2.993L65.386,142.06L65.386,142.06z M60.748,144.599h0.967c0.449,0,0.744-0.143,0.884-0.43
		c0.14-0.286,0.21-0.875,0.21-1.768v-1.035c-0.006-0.664-0.098-1.108-0.273-1.333s-0.479-0.337-0.908-0.337h-0.879L60.748,144.599
		L60.748,144.599z M60.748,152.802h0.928c0.521,0,0.885-0.179,1.094-0.537c0.208-0.357,0.312-0.999,0.312-1.924v-1.387
		c0-0.872-0.084-1.489-0.254-1.851s-0.495-0.542-0.977-0.542h-1.104L60.748,152.802L60.748,152.802z"/>
	<path d="M66.978,154.833l2.451-17.188h3.457l2.607,17.188h-2.441l-0.41-3.066h-2.773l-0.371,3.066H66.978z M72.369,149.667
		l-1.152-8.633h-0.039l-1.055,8.633H72.369z"/>
	<path d="M77.291,154.833v-17.188h2.617v14.961h3.311v2.227H77.291z"/>
	<path d="M84.722,154.833v-17.188h2.617v14.961h3.311v2.227H84.722z"/>
	<path d="M92.154,154.833v-17.188h5.762v2.256h-3.145v5h2.988v2.207h-2.988v5.469h3.262v2.256L92.154,154.833L92.154,154.833z"/>
	<path d="M103.58,146.757l-0.84-0.039v8.115h-2.617v-17.188h4.326c0.898,0,1.569,0.181,2.012,0.542s0.734,0.866,0.874,1.514
		c0.14,0.648,0.21,1.494,0.21,2.539s-0.111,1.841-0.332,2.388s-0.631,0.915-1.23,1.104c0.592,0.104,1.006,0.505,1.24,1.201
		c0.234,0.697,0.352,2.147,0.352,4.351s0.033,3.388,0.098,3.55h-2.617c-0.065-0.13-0.098-2.184-0.098-6.162
		c0-0.762-0.091-1.268-0.273-1.519C104.501,146.902,104.133,146.771,103.58,146.757z M102.75,144.687h1.045
		c0.332,0,0.578-0.074,0.737-0.225c0.16-0.149,0.27-0.406,0.332-0.771c0.062-0.364,0.093-0.921,0.093-1.67v-0.107
		c0-0.931-0.078-1.539-0.234-1.826c-0.156-0.286-0.518-0.43-1.084-0.43h-0.889V144.687z"/>
	<path d="M22.613,178.833v-17.188h3.857c1.263,0,2.179,0.373,2.749,1.118c0.57,0.746,0.854,1.845,0.854,3.296l0.01,7.754
		c0,1.732-0.287,3.002-0.859,3.809c-0.573,0.808-1.52,1.211-2.842,1.211H22.613z M25.23,176.802h0.859
		c0.482,0,0.832-0.156,1.05-0.469s0.327-0.885,0.327-1.719l-0.01-8.486c0-0.892-0.109-1.526-0.327-1.904
		c-0.218-0.377-0.594-0.566-1.128-0.566H25.23V176.802z"/>
	<path d="M32.437,178.833v-17.188h5.762v2.256h-3.145v5h2.988v2.207h-2.988v5.469h3.262v2.256L32.437,178.833L32.437,178.833z"/>
	<path d="M40.064,173.999v-1.533h2.48v1.729c0,0.957,0.082,1.63,0.244,2.017c0.163,0.388,0.469,0.581,0.918,0.581
		s0.747-0.159,0.894-0.479c0.146-0.318,0.22-0.84,0.22-1.562s-0.13-1.353-0.391-1.89s-0.674-1.099-1.24-1.685l-1.27-1.309
		c-0.592-0.618-1.053-1.26-1.382-1.924s-0.493-1.432-0.493-2.305c0-1.419,0.273-2.474,0.82-3.164
		c0.547-0.689,1.488-1.035,2.822-1.035s2.238,0.402,2.71,1.206c0.472,0.805,0.708,1.978,0.708,3.521v1.064h-2.412v-1.23
		c0-0.833-0.072-1.431-0.215-1.792s-0.418-0.542-0.825-0.542s-0.7,0.137-0.879,0.41s-0.269,0.684-0.269,1.23
		s0.091,0.983,0.273,1.309s0.511,0.742,0.986,1.25l1.416,1.533c0.709,0.769,1.245,1.547,1.606,2.334
		c0.361,0.788,0.542,1.647,0.542,2.578c0,1.608-0.27,2.797-0.811,3.564c-0.541,0.769-1.486,1.152-2.837,1.152
		s-2.292-0.428-2.822-1.284C40.329,176.889,40.064,175.64,40.064,173.999z"/>
	<path d="M58.365,177.881c-0.619,0.766-1.489,1.147-2.612,1.147s-1.996-0.34-2.617-1.021c-0.622-0.68-0.933-1.671-0.933-2.974
		v-3.066h2.529v2.939c0,0.951,0.153,1.53,0.459,1.738c0.137,0.092,0.306,0.137,0.508,0.137c0.397,0,0.659-0.162,0.786-0.488
		c0.127-0.325,0.19-0.84,0.19-1.543v-13.105h2.617v12.979C59.292,176.03,58.983,177.116,58.365,177.881z"/>
	<path d="M60.992,178.833l2.451-17.188H66.9l2.607,17.188h-2.441l-0.41-3.066h-2.773l-0.371,3.066H60.992z M66.382,173.667
		l-1.152-8.633h-0.039l-1.055,8.633H66.382z"/>
	<path d="M71.304,178.833v-17.188h2.617v6.953h2.344v-6.953h2.617v17.188h-2.617v-7.988h-2.344v7.988H71.304z"/>
	<path d="M84.917,170.757l-0.84-0.039v8.115H81.46v-17.188h4.326c0.898,0,1.569,0.181,2.012,0.542s0.734,0.866,0.874,1.514
		c0.14,0.648,0.21,1.494,0.21,2.539s-0.111,1.841-0.332,2.388s-0.631,0.915-1.23,1.104c0.592,0.104,1.006,0.505,1.24,1.201
		c0.234,0.697,0.352,2.147,0.352,4.351s0.033,3.388,0.098,3.55h-2.617c-0.065-0.13-0.098-2.184-0.098-6.162
		c0-0.762-0.091-1.268-0.273-1.519C85.839,170.902,85.471,170.771,84.917,170.757z M84.087,168.687h1.045
		c0.332,0,0.578-0.074,0.737-0.225c0.16-0.149,0.27-0.406,0.332-0.771c0.062-0.364,0.093-0.921,0.093-1.67v-0.107
		c0-0.931-0.078-1.539-0.234-1.826c-0.156-0.286-0.518-0.43-1.084-0.43h-0.889V168.687z"/>
	<path d="M91.324,178.833v-17.188h5.762v2.256h-3.145v5h2.988v2.207h-2.988v5.469h3.262v2.256L91.324,178.833L91.324,178.833z"/>
	<path d="M98.951,173.999v-1.533h2.48v1.729c0,0.957,0.082,1.63,0.244,2.017c0.163,0.388,0.469,0.581,0.918,0.581
		s0.747-0.159,0.894-0.479c0.146-0.318,0.22-0.84,0.22-1.562s-0.13-1.353-0.391-1.89s-0.674-1.099-1.24-1.685l-1.27-1.309
		c-0.592-0.618-1.053-1.26-1.382-1.924s-0.493-1.432-0.493-2.305c0-1.419,0.273-2.474,0.82-3.164
		c0.547-0.689,1.488-1.035,2.822-1.035s2.238,0.402,2.71,1.206c0.472,0.805,0.708,1.978,0.708,3.521v1.064h-2.412v-1.23
		c0-0.833-0.072-1.431-0.215-1.792s-0.418-0.542-0.825-0.542s-0.7,0.137-0.879,0.41s-0.269,0.684-0.269,1.23
		s0.091,0.983,0.273,1.309s0.511,0.742,0.986,1.25l1.416,1.533c0.709,0.769,1.245,1.547,1.606,2.334
		c0.361,0.788,0.542,1.647,0.542,2.578c0,1.608-0.27,2.797-0.811,3.564c-0.541,0.769-1.486,1.152-2.837,1.152
		s-2.292-0.428-2.822-1.284C99.216,176.889,98.951,175.64,98.951,173.999z"/>
</g>
</svg>
