<?xml version="1.0" encoding="utf-8"?>
<!-- Generator: Adobe Illustrator 17.0.0, SVG Export Plug-In . SVG Version: 6.00 Build 0)  -->
<!DOCTYPE svg PUBLIC "-//W3C//DTD SVG 1.1//EN" "http://www.w3.org/Graphics/SVG/1.1/DTD/svg11.dtd">
<svg version="1.1" id="Layer_1" xmlns="http://www.w3.org/2000/svg" xmlns:xlink="http://www.w3.org/1999/xlink" x="0px" y="0px"
	 width="256px" height="256px" viewBox="0 0 256 256" enable-background="new 0 0 256 256" xml:space="preserve">
<polygon fill="#FFFF00" points="128,188.6 53.1,243.2 82,155.1 6.8,100.8 99.5,101 128,12.8 156.5,101 249.2,100.8 174,155.1 
	202.9,243.2 "/>
<path fill="#FFFFFF" d="M192,10.3c-17.1,0-32.4,8-42.3,20.6h-0.3v0.3c-7.1,9.1-11.4,20.6-11.4,33c0,29.7,24.2,53.9,53.9,53.9
	s53.9-24.2,53.9-53.9S221.7,10.3,192,10.3z"/>
<path d="M192,10.3c-17.1,0-32.4,8-42.3,20.6h-0.3v0.3c-7.1,9.1-11.4,20.6-11.4,33c0,29.7,24.2,53.9,53.9,53.9s53.9-24.2,53.9-53.9
	S221.7,10.3,192,10.3z M208.6,100.9l-23.1-3L183.7,78l17.6-10.7L217,82.4L208.6,100.9z M171.2,103.3L151.9,89l-2.1-14.7l11.8-7.4
	L181.5,78l1.9,20.2L171.2,103.3z M149.1,72.2L142,57.4l9.3-15.3l9.7,2l-0.2,20.8L149.1,72.2z M188.3,19l21.3,2.9l7.3,13.6l-16.1,7.9
	l-16.5-11.5L188.3,19z M231.4,74.4l-12.6,6.7l-16.9-16.2l0.2-19.7l16-7.9L232.3,50L231.4,74.4z M233.5,74.9l1-24.5l7.1-0.9
	c1.4,4.7,2.1,9.6,2.1,14.7c0,4.6-0.6,9-1.7,13.2L233.5,74.9z M240.9,47.4l-7.1,0.9l-14.6-13.1L212,21.9l6.1-2.4
	C228.7,25.7,236.9,35.6,240.9,47.4z M178.8,14.2l7.4,4.1L182,32.1L162.3,42l-10.5-2.1l-0.2-8.1C158.5,23.4,167.9,17,178.8,14.2z
	 M149.7,40.5l-8.5,14.1c1.4-7.3,4.3-14.1,8.4-20L149.7,40.5z M140.5,59.2l7.1,14.9l2.1,14.8l-2.9,0.4c-4.1-7.4-6.5-16-6.5-25.1
	C140.3,62.5,140.4,60.8,140.5,59.2z M172.4,112.1l-0.2-6.8l12.5-5.3l23.9,3.1l4.4,8.4c-6.4,2.9-13.5,4.5-21,4.5
	C185.1,115.9,178.5,114.5,172.4,112.1z"/>
<g>
	<path fill="none" stroke="#000000" stroke-width="3" stroke-miterlimit="10" d="M157.6,137"/>
	<path fill="#FF0000" d="M157.6,137"/>
</g>
<g>
	<path fill="#FFFFFF" d="M213.86,171.203c19.83-10.804,32.515-33.216,33.189-36.566s-0.654-4.047-3.06-6.394
		c-2.405-2.346-7.035-0.281-7.035-0.281s-20.556,18.215-30.225,25.451c-9.752,7.351-51.291,19.841-56.847,23.069
		s-44.457,17.622-50.731,26.436c0.135,2.713-1.477,9.66,5.314,5.928C111.257,205.114,181.157,188.849,213.86,171.203z"/>
	<g>
		<path fill="none" stroke="#000000" stroke-width="3" stroke-miterlimit="10" d="M183.936,144.638
			c3.309-0.839,6.009-1.681,8.05-2.213c4.347-1.311,9.352-2.93,15.956-5.315c8.696-3.229,18.257-8.625,21.846-9.61
			c6.305-1.729,12.331-0.17,12.331-0.17c2.982,2.152-20.472,21.24-26.101,25.898c-14.492,11.865-60.801,24.924-93.999,39.51
			c-11.829,5.154-16.9,10.127-16.9,10.127s9.158-3.507,15.66-5.267c14.438-4.056,77.561-19.631,93.56-30.322
			c20.65-13.874,30.557-32.798,30.524-36.135c5.356,7.44,2.069,14.05-0.846,18.573c-2.931,4.425-0.361,6.541-1.583,7.752
			c-0.678,0.819-4.306-0.317-7.231,2.891c-2.925,3.208-3.908,5.899-7.525,9.219c-3.632,3.221-0.475,6.459-2.758,9.259
			c-2.298,2.701-5.169-1.899-8.649,0.385c-3.464,2.383-5.444,3.919-11.526,7.03c-5.983,3.095-2.09,7.125-4.414,8.412
			c-2.194,1.469-6.753-4.176-11.335-1.814s-22.185,15.034-28.237,18.95c-6.151,3.932-0.75,12.277-2.666,14.208
			c-1.222,1.211-5.676-2.526-9.622-2.496c-2.318,0.071-4.48,1.737-6.677,3.815c-5.88,5.61-0.267,10.882-2.807,12.711
			s-4.564-1.288-9.227-2.56c-4.663-1.272-8.442,1.669-13.485-2.581c-24.233-20.191-21.226-43.571-21.226-43.571
			c1.543-2.985,2.56-2.339,7.356-1.493c4.78,0.747,12.933,1.049,18.677-3.526c5.645-4.559,11.357-16.221,10.543-21.255
			c-0.814-5.035-2.408-8.626,4.187-9.186c2.697-0.234,10.646-1.823,19.829-3.915l4.197-0.982
			C162.209,149.975,162.209,149.975,183.936,144.638z"/>
		<path fill="#9AC900" d="M183.936,144.638c3.309-0.839,6.009-1.681,8.05-2.213c4.347-1.311,9.352-2.93,15.956-5.315
			c8.696-3.229,18.257-8.625,21.846-9.61c6.305-1.729,12.331-0.17,12.331-0.17c2.982,2.152-20.472,21.24-26.101,25.898
			c-14.492,11.865-60.801,24.924-93.999,39.51c-11.829,5.154-16.9,10.127-16.9,10.127s9.158-3.507,15.66-5.267
			c14.438-4.056,77.561-19.631,93.56-30.322c20.65-13.874,30.557-32.798,30.524-36.135c5.356,7.44,2.069,14.05-0.846,18.573
			c-2.931,4.425-0.361,6.541-1.583,7.752c-0.678,0.819-4.306-0.317-7.231,2.891c-2.925,3.208-3.908,5.899-7.525,9.219
			c-3.632,3.221-0.475,6.459-2.758,9.259c-2.298,2.701-5.169-1.899-8.649,0.385c-3.464,2.383-5.444,3.919-11.526,7.03
			c-5.983,3.095-2.09,7.125-4.414,8.412c-2.194,1.469-6.753-4.176-11.335-1.814s-22.185,15.034-28.237,18.95
			c-6.151,3.932-0.75,12.277-2.666,14.208c-1.222,1.211-5.676-2.526-9.622-2.496c-2.318,0.071-4.48,1.737-6.677,3.815
			c-5.88,5.61-0.267,10.882-2.807,12.711s-4.564-1.288-9.227-2.56c-4.663-1.272-8.442,1.669-13.485-2.581
			c-24.233-20.191-21.226-43.571-21.226-43.571c1.543-2.985,2.56-2.339,7.356-1.493c4.78,0.747,12.933,1.049,18.677-3.526
			c5.645-4.559,11.357-16.221,10.543-21.255c-0.814-5.035-2.408-8.626,4.187-9.186c2.697-0.234,10.646-1.823,19.829-3.915
			l4.197-0.982C162.209,149.975,162.209,149.975,183.936,144.638z"/>
	</g>
	<g>
		<g>
			<g>
				<path fill="none" stroke="#1D1D1B" stroke-width="3" d="M156.069,165.251c-0.197,0.032-0.395,0.064-0.608-0.003
					c-1.051-0.235-1.819-1.225-1.682-2.26l2.472-14.784c0.235-1.051,1.225-1.819,2.26-1.682c1.051,0.235,1.819,1.225,1.682,2.26
					l-2.472,14.784C157.568,164.502,156.858,165.123,156.069,165.251z"/>
			</g>
			<g>
				<path fill="none" stroke="#1D1D1B" stroke-width="3" d="M165.048,161.266c-0.197,0.032-0.395,0.064-0.608-0.003
					c-1.051-0.235-1.819-1.225-1.682-2.26l1.932-11.86c0.235-1.051,1.225-1.819,2.26-1.682c1.051,0.235,1.819,1.225,1.682,2.26
					l-1.932,11.86C166.548,160.517,165.838,161.139,165.048,161.266z"/>
			</g>
			<g>
				<path fill="none" stroke="#1D1D1B" stroke-width="3" d="M172.591,158.426c-0.197,0.032-0.395,0.064-0.608-0.003
					c-1.051-0.235-1.819-1.225-1.682-2.26l1.83-11.236c0.235-1.051,1.225-1.819,2.26-1.682c1.051,0.235,1.819,1.225,1.682,2.26
					l-1.83,11.236C174.091,157.677,173.381,158.298,172.591,158.426z"/>
			</g>
			<g>
				<path fill="none" stroke="#1D1D1B" stroke-width="3" d="M181.048,153.716c-0.197,0.032-0.395,0.064-0.608-0.003
					c-1.051-0.235-1.819-1.225-1.682-2.26l1.49-8.953c0.235-1.051,1.225-1.819,2.26-1.682c1.051,0.235,1.819,1.225,1.682,2.26
					l-1.49,8.953C182.548,152.967,181.838,153.588,181.048,153.716z"/>
			</g>
		</g>
		<g>
			<g>
				<path fill="#FFFF00" d="M156.069,165.251c-0.197,0.032-0.395,0.064-0.608-0.003c-1.051-0.235-1.819-1.225-1.682-2.26
					l2.472-14.784c0.235-1.051,1.225-1.819,2.26-1.682c1.051,0.235,1.819,1.225,1.682,2.26l-2.472,14.784
					C157.568,164.502,156.858,165.123,156.069,165.251z"/>
			</g>
			<g>
				<path fill="#FFFF00" d="M165.048,161.266c-0.197,0.032-0.395,0.064-0.608-0.003c-1.051-0.235-1.819-1.225-1.682-2.26
					l1.932-11.86c0.235-1.051,1.225-1.819,2.26-1.682c1.051,0.235,1.819,1.225,1.682,2.26l-1.932,11.86
					C166.548,160.517,165.838,161.139,165.048,161.266z"/>
			</g>
			<g>
				<path fill="#FFFF00" d="M172.591,158.426c-0.197,0.032-0.395,0.064-0.608-0.003c-1.051-0.235-1.819-1.225-1.682-2.26
					l1.83-11.236c0.235-1.051,1.225-1.819,2.26-1.682c1.051,0.235,1.819,1.225,1.682,2.26l-1.83,11.236
					C174.091,157.677,173.381,158.298,172.591,158.426z"/>
			</g>
			<g>
				<path fill="#FFFF00" d="M181.048,153.716c-0.197,0.032-0.395,0.064-0.608-0.003c-1.051-0.235-1.819-1.225-1.682-2.26l1.49-8.953
					c0.235-1.051,1.225-1.819,2.26-1.682c1.051,0.235,1.819,1.225,1.682,2.26l-1.49,8.953
					C182.548,152.967,181.838,153.588,181.048,153.716z"/>
			</g>
		</g>
	</g>
</g>
<g>
	<circle fill="#F0F0F0" cx="191.5" cy="64.7" r="41"/>
	<path fill="#0052B4" d="M229.9,50.5h-43.8V39.8h-21.4v10.7H153c-1.6,4.4-2.5,9.2-2.5,14.2s0.9,9.8,2.5,14.2l38.4,3.6l38.4-3.6
		c1.6-4.4,2.5-9.2,2.5-14.2S231.5,54.9,229.9,50.5z"/>
	<path fill="#D80027" d="M191.5,105.7c17.6,0,32.6-11.1,38.4-26.7h-76.8C158.9,94.5,173.9,105.7,191.5,105.7z"/>
	<path fill="#F0F0F0" d="M164.8,50.5V54c0,8.2,10.7,10.7,10.7,10.7s10.7-2.5,10.7-10.7v-3.6l-3.6,3.6l-7.1-5.3l-7.1,5.3L164.8,50.5z
		"/>
</g>
<ellipse fill="none" stroke="#020200" stroke-width="1.4754" stroke-miterlimit="10" cx="191.6" cy="65.2" rx="40.8" ry="40.6"/>
<g>
	<path d="M15.081,124v-1.533h2.48v1.729c0,0.957,0.082,1.629,0.244,2.017s0.469,0.581,0.918,0.581s0.747-0.16,0.894-0.479
		s0.22-0.84,0.22-1.562s-0.13-1.353-0.391-1.89s-0.674-1.099-1.24-1.685l-1.27-1.309c-0.592-0.619-1.053-1.26-1.382-1.924
		s-0.493-1.432-0.493-2.305c0-1.419,0.273-2.474,0.82-3.164c0.547-0.69,1.488-1.035,2.822-1.035s2.238,0.402,2.71,1.206
		s0.708,1.978,0.708,3.521v1.064h-2.412v-1.23c0-0.833-0.072-1.431-0.215-1.792s-0.418-0.542-0.825-0.542s-0.7,0.137-0.879,0.41
		s-0.269,0.684-0.269,1.23s0.091,0.983,0.273,1.309s0.511,0.742,0.986,1.25l1.416,1.533c0.709,0.768,1.245,1.546,1.606,2.334
		s0.542,1.647,0.542,2.578c0,1.608-0.27,2.796-0.811,3.564s-1.486,1.152-2.837,1.152s-2.292-0.428-2.822-1.284
		S15.081,125.64,15.081,124z"/>
	<path d="M24.26,128.833v-17.187h2.617v14.961h3.311v2.226H24.26z"/>
	<path d="M38.088,127.789c-0.599,0.827-1.558,1.24-2.876,1.24s-2.285-0.415-2.9-1.245c-0.615-0.83-0.923-2.082-0.923-3.755v-7.861
		c0-3.151,1.286-4.727,3.857-4.727c1.328,0,2.284,0.4,2.866,1.201s0.874,1.976,0.874,3.525v7.861
		C38.987,125.708,38.688,126.962,38.088,127.789z M34.255,126.167c0.153,0.397,0.467,0.596,0.942,0.596s0.788-0.204,0.938-0.61
		s0.225-1.105,0.225-2.095v-8.008c0-0.814-0.077-1.408-0.229-1.782s-0.453-0.562-0.898-0.562s-0.758,0.187-0.938,0.562
		s-0.269,0.965-0.269,1.772v8.018C34.026,125.067,34.103,125.771,34.255,126.167z"/>
	<path d="M42.756,128.833l-2.1-17.187H43l1.26,12.246l1.602-12.246h2.109l1.611,12.246l1.113-12.246h2.354l-1.973,17.187h-2.607
		l-1.523-11.425l-1.582,11.425H42.756z"/>
	<path d="M54.915,128.833v-17.187h5.762v2.256h-3.145v5h2.988v2.207h-2.988v5.469h3.262v2.255H54.915z"/>
	<path d="M62.883,128.833v-17.187h2.051l3.643,10.312l-0.186-4.688v-5.625h2.354v17.187H68.89l-3.74-10.673l0.146,4.512v6.162
		L62.883,128.833L62.883,128.833z"/>
	<path d="M73.42,128.833v-17.187h2.617v17.187H73.42z"/>
	<path d="M78.372,124v-1.533h2.48v1.729c0,0.957,0.082,1.629,0.244,2.017s0.469,0.581,0.918,0.581s0.747-0.16,0.894-0.479
		s0.22-0.84,0.22-1.562s-0.13-1.353-0.391-1.89s-0.674-1.099-1.24-1.685l-1.27-1.309c-0.592-0.619-1.053-1.26-1.382-1.924
		s-0.493-1.432-0.493-2.305c0-1.419,0.273-2.474,0.82-3.164s1.488-1.035,2.822-1.035s2.238,0.402,2.71,1.206
		s0.708,1.978,0.708,3.521v1.064H83v-1.23c0-0.833-0.072-1.431-0.215-1.792s-0.418-0.542-0.825-0.542s-0.7,0.137-0.879,0.41
		s-0.269,0.684-0.269,1.23s0.091,0.983,0.273,1.309s0.511,0.742,0.986,1.25l1.416,1.533c0.709,0.768,1.245,1.546,1.606,2.334
		s0.542,1.647,0.542,2.578c0,1.608-0.27,2.796-0.811,3.564s-1.486,1.152-2.837,1.152s-2.292-0.428-2.822-1.284
		S78.372,125.64,78.372,124z"/>
	<path d="M93.918,127.833c-0.592,0.797-1.523,1.196-2.793,1.196s-2.218-0.425-2.847-1.274c-0.628-0.85-0.942-2.072-0.942-3.667
		v-7.49c0-2.559,0.67-4.157,2.012-4.795c0.495-0.234,1.094-0.352,1.797-0.352c2.416,0,3.623,1.523,3.623,4.57v2.363h-2.529v-2.197
		c0-0.885-0.075-1.519-0.225-1.899s-0.443-0.571-0.879-0.571s-0.739,0.202-0.908,0.605s-0.254,1.022-0.254,1.855v8.027
		c0,0.924,0.082,1.585,0.244,1.982s0.459,0.596,0.889,0.596s0.726-0.202,0.889-0.605s0.244-1.071,0.244-2.002v-2.461h2.568v2.432
		C94.807,125.806,94.511,127.035,93.918,127.833z"/>
	<path d="M96.936,128.833v-17.187h2.617v6.953h2.344v-6.953h2.617v17.187h-2.617v-7.988h-2.344v7.988H96.936z"/>
	<path d="M107.092,128.833v-17.187h5.762v2.256h-3.145v5h2.988v2.207h-2.988v5.469h3.262v2.255H107.092z"/>
	<path d="M118.518,120.757l-0.84-0.039v8.115h-2.617v-17.187h4.326c0.898,0,1.569,0.181,2.012,0.542s0.734,0.866,0.874,1.514
		s0.21,1.494,0.21,2.539s-0.111,1.841-0.332,2.388s-0.631,0.915-1.23,1.104c0.592,0.104,1.006,0.504,1.24,1.201
		s0.352,2.147,0.352,4.351s0.033,3.387,0.098,3.549h-2.617c-0.065-0.13-0.098-2.184-0.098-6.162c0-0.762-0.091-1.268-0.273-1.519
		S119.071,120.771,118.518,120.757z M117.688,118.687h1.045c0.332,0,0.578-0.075,0.737-0.225s0.27-0.407,0.332-0.771
		s0.093-0.921,0.093-1.67v-0.107c0-0.931-0.078-1.54-0.234-1.826s-0.518-0.43-1.084-0.43h-0.889V118.687z"/>
	<path d="M15.413,152.833v-17.188h5.898v2.275H18.03v4.57h3.047v2.285H18.03v8.057L15.413,152.833L15.413,152.833z"/>
	<path d="M29.778,151.91c-0.599,0.746-1.561,1.118-2.886,1.118s-2.289-0.374-2.891-1.123c-0.602-0.748-0.903-1.91-0.903-3.486
		v-12.783h2.617v12.734c0,0.905,0.042,1.455,0.127,1.65s0.187,0.373,0.308,0.532c0.121,0.16,0.37,0.239,0.747,0.239
		s0.648-0.11,0.811-0.332c0.163-0.221,0.262-0.496,0.298-0.825c0.036-0.328,0.054-0.75,0.054-1.265v-12.734h2.617v12.783
		C30.676,150.001,30.377,151.165,29.778,151.91z"/>
	<path d="M32.815,147.999v-1.533h2.48v1.729c0,0.957,0.082,1.63,0.244,2.017c0.163,0.388,0.469,0.581,0.918,0.581
		s0.747-0.159,0.894-0.479c0.146-0.318,0.22-0.84,0.22-1.562s-0.13-1.353-0.391-1.89s-0.674-1.099-1.24-1.685l-1.27-1.309
		c-0.592-0.618-1.053-1.26-1.382-1.924s-0.493-1.432-0.493-2.305c0-1.419,0.273-2.474,0.82-3.164
		c0.547-0.689,1.488-1.035,2.822-1.035s2.238,0.402,2.71,1.206c0.472,0.805,0.708,1.978,0.708,3.521v1.064h-2.412v-1.23
		c0-0.833-0.072-1.431-0.215-1.792s-0.418-0.542-0.825-0.542s-0.7,0.137-0.879,0.41s-0.269,0.684-0.269,1.23
		s0.091,0.983,0.273,1.309s0.511,0.742,0.986,1.25l1.416,1.533c0.709,0.769,1.245,1.547,1.606,2.334
		c0.361,0.788,0.542,1.647,0.542,2.578c0,1.608-0.27,2.797-0.811,3.564c-0.541,0.769-1.486,1.152-2.837,1.152
		s-2.292-0.428-2.822-1.284C33.08,150.889,32.815,149.64,32.815,147.999z"/>
	<path d="M41.653,147.999v-1.533h2.48v1.729c0,0.957,0.082,1.63,0.244,2.017c0.163,0.388,0.469,0.581,0.918,0.581
		s0.747-0.159,0.894-0.479c0.146-0.318,0.22-0.84,0.22-1.562s-0.13-1.353-0.391-1.89s-0.674-1.099-1.24-1.685l-1.27-1.309
		c-0.592-0.618-1.053-1.26-1.382-1.924s-0.493-1.432-0.493-2.305c0-1.419,0.273-2.474,0.82-3.164
		c0.547-0.689,1.488-1.035,2.822-1.035s2.238,0.402,2.71,1.206c0.472,0.805,0.708,1.978,0.708,3.521v1.064h-2.412v-1.23
		c0-0.833-0.072-1.431-0.215-1.792s-0.418-0.542-0.825-0.542s-0.7,0.137-0.879,0.41s-0.269,0.684-0.269,1.23
		s0.091,0.983,0.273,1.309s0.511,0.742,0.986,1.25l1.416,1.533c0.709,0.769,1.245,1.547,1.606,2.334
		c0.361,0.788,0.542,1.647,0.542,2.578c0,1.608-0.27,2.797-0.811,3.564c-0.541,0.769-1.486,1.152-2.837,1.152
		s-2.292-0.428-2.822-1.284C41.918,150.889,41.653,149.64,41.653,147.999z"/>
	<path d="M58.186,140.06c0,1.85-0.501,2.985-1.504,3.408c1.224,0.41,1.836,1.762,1.836,4.053v0.439
		c-0.013,1.726-0.314,2.969-0.903,3.73s-1.551,1.143-2.886,1.143H50.93v-17.188h3.721c1.283,0,2.191,0.298,2.725,0.894
		s0.804,1.594,0.811,2.993L58.186,140.06L58.186,140.06z M53.547,142.599h0.967c0.449,0,0.744-0.143,0.884-0.43
		c0.14-0.286,0.21-0.875,0.21-1.768v-1.035c-0.006-0.664-0.098-1.108-0.273-1.333s-0.479-0.337-0.908-0.337h-0.879L53.547,142.599
		L53.547,142.599z M53.547,150.802h0.928c0.521,0,0.885-0.179,1.094-0.537c0.208-0.357,0.312-0.999,0.312-1.924v-1.387
		c0-0.872-0.084-1.489-0.254-1.851s-0.495-0.542-0.977-0.542h-1.104L53.547,150.802L53.547,150.802z"/>
	<path d="M59.778,152.833l2.451-17.188h3.457l2.607,17.188h-2.441l-0.41-3.066h-2.773l-0.371,3.066H59.778z M65.168,147.667
		l-1.152-8.633h-0.039l-1.055,8.633H65.168z"/>
	<path d="M70.09,152.833v-17.188h2.617v14.961h3.311v2.227H70.09z"/>
	<path d="M77.522,152.833v-17.188h2.617v14.961h3.311v2.227H77.522z"/>
	<path d="M84.954,152.833v-17.188h5.762v2.256h-3.145v5h2.988v2.207h-2.988v5.469h3.262v2.256L84.954,152.833L84.954,152.833z"/>
	<path d="M96.379,144.757l-0.84-0.039v8.115h-2.617v-17.188h4.326c0.898,0,1.569,0.181,2.012,0.542s0.734,0.866,0.874,1.514
		c0.14,0.648,0.21,1.494,0.21,2.539s-0.111,1.841-0.332,2.388s-0.631,0.915-1.23,1.104c0.592,0.104,1.006,0.505,1.24,1.201
		c0.234,0.697,0.352,2.147,0.352,4.351s0.033,3.388,0.098,3.55h-2.617c-0.065-0.13-0.098-2.184-0.098-6.162
		c0-0.762-0.091-1.268-0.273-1.519C97.301,144.902,96.933,144.771,96.379,144.757z M95.549,142.687h1.045
		c0.332,0,0.578-0.074,0.737-0.225c0.16-0.149,0.27-0.406,0.332-0.771c0.062-0.364,0.093-0.921,0.093-1.67v-0.107
		c0-0.931-0.078-1.539-0.234-1.826c-0.156-0.286-0.518-0.43-1.084-0.43h-0.889V142.687z"/>
	<path d="M106.36,152.833v-17.188h3.857c1.263,0,2.179,0.373,2.749,1.118c0.57,0.746,0.854,1.845,0.854,3.296l0.01,7.754
		c0,1.732-0.287,3.002-0.859,3.809c-0.573,0.808-1.52,1.211-2.842,1.211H106.36z M108.977,150.802h0.859
		c0.482,0,0.832-0.156,1.05-0.469s0.327-0.885,0.327-1.719l-0.01-8.486c0-0.892-0.109-1.526-0.327-1.904
		c-0.218-0.377-0.594-0.566-1.128-0.566h-0.771V150.802z"/>
	<path d="M116.184,152.833v-17.188h5.762v2.256h-3.145v5h2.988v2.207h-2.988v5.469h3.262v2.256L116.184,152.833L116.184,152.833z"/>
	<path d="M123.811,147.999v-1.533h2.48v1.729c0,0.957,0.082,1.63,0.244,2.017c0.163,0.388,0.469,0.581,0.918,0.581
		s0.747-0.159,0.894-0.479c0.146-0.318,0.219-0.84,0.219-1.562s-0.13-1.353-0.39-1.89s-0.674-1.099-1.24-1.685l-1.27-1.309
		c-0.592-0.618-1.053-1.26-1.382-1.924s-0.493-1.432-0.493-2.305c0-1.419,0.273-2.474,0.82-3.164
		c0.547-0.689,1.488-1.035,2.822-1.035s2.238,0.402,2.709,1.206c0.473,0.805,0.708,1.978,0.708,3.521v1.064h-2.412v-1.23
		c0-0.833-0.072-1.431-0.215-1.792s-0.418-0.542-0.825-0.542s-0.7,0.137-0.879,0.41s-0.269,0.684-0.269,1.23
		s0.091,0.983,0.273,1.309s0.511,0.742,0.986,1.25l1.416,1.533c0.71,0.769,1.245,1.547,1.606,2.334
		c0.361,0.788,0.542,1.647,0.542,2.578c0,1.608-0.27,2.797-0.811,3.564c-0.54,0.769-1.485,1.152-2.836,1.152
		s-2.292-0.428-2.822-1.284C124.076,150.889,123.811,149.64,123.811,147.999z"/>
	<path d="M20.959,175.881c-0.619,0.766-1.489,1.147-2.612,1.147s-1.996-0.34-2.617-1.021c-0.622-0.68-0.933-1.671-0.933-2.974
		v-3.066h2.529v2.939c0,0.951,0.153,1.53,0.459,1.738c0.137,0.092,0.306,0.137,0.508,0.137c0.397,0,0.659-0.162,0.786-0.488
		c0.127-0.325,0.19-0.84,0.19-1.543v-13.105h2.617v12.979C21.887,174.03,21.578,175.116,20.959,175.881z"/>
	<path d="M23.586,176.833l2.451-17.188h3.457l2.607,17.188H29.66l-0.41-3.066h-2.773l-0.371,3.066H23.586z M28.977,171.667
		l-1.152-8.633h-0.039l-1.055,8.633H28.977z"/>
	<path d="M33.899,176.833v-17.188h2.617v6.953h2.344v-6.953h2.617v17.188H38.86v-7.988h-2.344v7.988H33.899z"/>
	<path d="M47.512,168.757l-0.84-0.039v8.115h-2.617v-17.188h4.326c0.898,0,1.569,0.181,2.012,0.542s0.734,0.866,0.874,1.514
		c0.14,0.648,0.21,1.494,0.21,2.539s-0.111,1.841-0.332,2.388s-0.631,0.915-1.23,1.104c0.592,0.104,1.006,0.505,1.24,1.201
		c0.234,0.697,0.352,2.147,0.352,4.351s0.033,3.388,0.098,3.55h-2.617c-0.065-0.13-0.098-2.184-0.098-6.162
		c0-0.762-0.091-1.268-0.273-1.519C48.434,168.902,48.065,168.771,47.512,168.757z M46.682,166.687h1.045
		c0.332,0,0.578-0.074,0.737-0.225c0.16-0.149,0.27-0.406,0.332-0.771c0.062-0.364,0.093-0.921,0.093-1.67v-0.107
		c0-0.931-0.078-1.539-0.234-1.826c-0.156-0.286-0.518-0.43-1.084-0.43h-0.889C46.682,161.658,46.682,166.687,46.682,166.687z"/>
	<path d="M53.918,176.833v-17.188h5.762v2.256h-3.145v5h2.988v2.207h-2.988v5.469h3.262v2.256L53.918,176.833L53.918,176.833z"/>
	<path d="M61.545,171.999v-1.533h2.48v1.729c0,0.957,0.082,1.63,0.244,2.017c0.163,0.388,0.469,0.581,0.918,0.581
		s0.747-0.159,0.894-0.479c0.146-0.318,0.22-0.84,0.22-1.562s-0.13-1.353-0.391-1.89s-0.674-1.099-1.24-1.685l-1.27-1.309
		c-0.592-0.618-1.053-1.26-1.382-1.924s-0.493-1.432-0.493-2.305c0-1.419,0.273-2.474,0.82-3.164
		c0.547-0.689,1.488-1.035,2.822-1.035c1.334,0,2.238,0.402,2.71,1.206c0.472,0.805,0.708,1.978,0.708,3.521v1.064h-2.412v-1.23
		c0-0.833-0.072-1.431-0.215-1.792s-0.418-0.542-0.825-0.542s-0.7,0.137-0.879,0.41s-0.269,0.684-0.269,1.23
		s0.091,0.983,0.273,1.309s0.511,0.742,0.986,1.25l1.416,1.533c0.709,0.769,1.245,1.547,1.606,2.334
		c0.361,0.788,0.542,1.647,0.542,2.578c0,1.608-0.27,2.797-0.811,3.564c-0.541,0.769-1.486,1.152-2.837,1.152
		s-2.292-0.428-2.822-1.284C61.811,174.889,61.545,173.64,61.545,171.999z"/>
</g>
</svg>
