<?xml version="1.0" encoding="utf-8"?>
<!-- Generator: Adobe Illustrator 17.0.0, SVG Export Plug-In . SVG Version: 6.00 Build 0)  -->
<!DOCTYPE svg PUBLIC "-//W3C//DTD SVG 1.1//EN" "http://www.w3.org/Graphics/SVG/1.1/DTD/svg11.dtd">
<svg version="1.1" id="Layer_1" xmlns="http://www.w3.org/2000/svg" xmlns:xlink="http://www.w3.org/1999/xlink" x="0px" y="0px"
	 width="256px" height="256px" viewBox="0 0 256 256" enable-background="new 0 0 256 256" xml:space="preserve">
<path fill="#FFFFFF" d="M192.1,10.3c-17.1,0-32.4,8-42.3,20.6h-0.3v0.3c-7.1,9.1-11.4,20.6-11.4,33c0,29.7,24.2,53.9,53.9,53.9
	s54-24.2,54-53.9S221.9,10.3,192.1,10.3z"/>
<path d="M192,10.3c-17.1,0-32.4,8-42.3,20.6h-0.3v0.3c-7.1,9.1-11.4,20.6-11.4,33c0,29.7,24.2,53.9,53.9,53.9s53.9-24.2,53.9-53.9
	S221.7,10.3,192,10.3z M208.6,100.9l-23.1-3L183.7,78l17.6-10.7L217,82.4L208.6,100.9z M171.2,103.3L151.9,89l-2.1-14.7l11.8-7.4
	L181.5,78l1.9,20.2L171.2,103.3z M149.1,72.2L142,57.4l9.3-15.3l9.7,2l-0.2,20.8L149.1,72.2z M188.3,19l21.3,2.9l7.3,13.6l-16.1,7.9
	l-16.5-11.5L188.3,19z M231.4,74.4l-12.6,6.7l-16.9-16.2l0.2-19.7l16-7.9L232.3,50L231.4,74.4z M233.5,74.9l1-24.5l7.1-0.9
	c1.4,4.7,2.1,9.6,2.1,14.7c0,4.6-0.6,9-1.7,13.2L233.5,74.9z M240.9,47.4l-7.1,0.9l-14.6-13.1L212,21.9l6.1-2.4
	C228.7,25.7,236.9,35.6,240.9,47.4z M178.8,14.2l7.4,4.1L182,32.1L162.3,42l-10.5-2.1l-0.2-8.1C158.5,23.4,167.9,17,178.8,14.2z
	 M149.7,40.5l-8.5,14.1c1.4-7.3,4.3-14.1,8.4-20L149.7,40.5z M140.5,59.2l7.1,14.9l2.1,14.8l-2.9,0.4c-4.1-7.4-6.5-16-6.5-25.1
	C140.3,62.5,140.4,60.8,140.5,59.2z M172.4,112.1l-0.2-6.8l12.5-5.3l23.9,3.1l4.4,8.4c-6.4,2.9-13.5,4.5-21,4.5
	C185.1,115.9,178.5,114.5,172.4,112.1z"/>
<g>
	<path fill="#FCFF00" stroke="#000000" stroke-miterlimit="10" d="M173,123.7c-6.9,0-9.2,4.9-9.8,6.7c0.3-3.3,0.4-5.5,0.4-5.7
		c1.2-0.2,0.8-2.3-0.1-2.3c-0.8,0-70.2,0-71,0c-0.9,0-1.3,2.1-0.1,2.3c0,0.2,0.1,2.3,0.4,5.6c-0.7-1.9-2.9-6.7-9.8-6.7
		c-8.7,0-15.2,5.4-15.2,14.1c0,24,31,28.8,31,36.5c0,0-1.3,1.6-1.1,2.9c0.3,1.7,3.8,2,3.8-2.6c0-0.8-0.3-1.7-0.9-2.5
		c0.6-0.2,1.3-0.7,1.8-1.5c0.3-0.4,0.5-0.9,0.6-1.3c3.8,7.2,9,13,15.9,15c0.2,0.3,0.2,1.7-0.9,2c-1.1,0.2-2.5,5.3,4.7,5.6
		c0.2,1.4,0.6,4.9,0.7,15.1c0,0-4.4,0.1-4.4,2.9c0,2.8,3.8,3.6,3.8,3.6s-3,5.1-8.4,5.8c0,3.3,1.3,15.8-9.9,19.4
		c0,2.4,0.1,4.1,0.1,4.1s-2,0.1-3.5,0.1s-4.4,3.6-3.8,11.6c4.6,0,56.1,0,60.7,0c0.7-8-2-11.6-3.6-11.6c-1.5,0-3.5,0-3.5,0
		s0.1-1.8,0.1-4.2c-11.2-3.6-9.9-16.1-9.9-19.4c-5.3-0.7-8.4-5.8-8.4-5.8s3.8-0.8,3.8-3.6s-4.4-2.9-4.4-2.9
		c0.1-10.2,0.4-13.7,0.7-15.1c7.2-0.2,5.8-5.3,4.7-5.6c-1.1-0.2-1.1-1.6-0.9-2c6.9-2.1,12.1-7.8,15.9-15c0.1,0.4,0.3,0.9,0.6,1.3
		c0.6,0.8,1.2,1.2,1.8,1.5c-0.6,0.8-0.9,1.7-0.9,2.5c0,4.6,3.5,4.3,3.8,2.6c0.2-1.2-1.1-2.9-1.1-2.9c0-7.7,31-12.5,31-36.5
		C188.2,129.1,181.7,123.7,173,123.7z M100.4,169c-0.5,0.7-1.4,0.5-1.9,0.5l0,0c-0.1,0-0.8-1.6-0.3-2.3s1.3-0.3,1.6,0
		C100.2,167.5,101,168.3,100.4,169z M96.1,165.7c-0.3,0.5-0.5,1-0.6,1.4c-8.6-6.4-23.2-14.7-23.2-29.6c0-5.1,4.2-11.4,11.9-11.1
		c3.3,0,6.4,2.1,6.3,4.7c0,2.4-1.6,2.7-1.7,4.1c-0.2,1.4,2,2.4,3.4-0.1c0.5-0.8,0.7-2.1,0.8-3.1c0.9,8,3.1,21.5,8,32.8
		C99.3,163.8,97.3,164.1,96.1,165.7z M157.5,169.5c-0.5,0-1.4,0.2-1.9-0.5s0.3-1.6,0.6-1.8s1.1-0.7,1.6,0
		C158.3,167.9,157.6,169.5,157.5,169.5L157.5,169.5z M160.5,167.1c-0.1-0.5-0.3-0.9-0.6-1.4c-1.2-1.6-3.2-1.9-4.9-0.8
		c4.9-11.3,7.1-24.8,8-32.8c0.1,1,0.4,2.3,0.8,3.1c1.5,2.5,3.6,1.5,3.4,0.1s-1.7-1.7-1.7-4.1c-0.1-2.6,2.9-4.7,6.3-4.7
		c7.7-0.2,11.9,6,11.9,11.1C183.8,152.4,169.1,160.7,160.5,167.1z"/>
	<path fill="#FFFFFF" d="M146.7,126h-24.8c0,0,1.6,12.3,2.3,16.2c0.7,3.9,4.2,7.4,9.5,7.4c5.2,0,10.1-1.8,11.1-7.1
		C145.7,137.3,146.7,126,146.7,126z"/>
	<path fill="#FFFFFF" d="M133,189c-1,0-6,0-7,0c0,0-1-1,0-1s6.7,0,7.3,0C134.1,188,134,189,133,189z"/>
	<rect x="127" y="208" fill="#FFFFFF" width="4" height="1"/>
	<path fill="#FFFFFF" d="M126.6,227c0,0-0.6,6-1.6,8c3.4,0,10.6,0,10.6,0s-1.5-6-1.5-8C132.5,227,126.6,227,126.6,227z"/>
	<path fill="#FFFFFF" d="M126.8,207c0-2,0.8-2.3,1.8-2.3s1.8,0.3,1.8,2.3H126.8z"/>
	<path fill="#ABD100" d="M132.9,182.1c1.6,0.3,24.1-2.1,24.1-54.1h-6c0,0,3.4,38.1-14.4,49.6C135,178.9,129.9,181.4,132.9,182.1z"/>
	<path fill="#FF9F00" d="M120.6,179.9c-1.6,0.3-24.1-2.9-24.1-53.9h6c0,0-3.4,38.1,14.4,49.5C118.5,176.8,123.6,179.3,120.6,179.9z"
		/>
	<path fill="#ABD100" d="M129.9,190.8c0,0,4.8-0.2,4.9-2.1c0.1-2,2.1-2.5,2,0.1C136.8,190.3,134.5,191.4,129.9,190.8z"/>
	<path fill="#ABD100" d="M129.9,212c0,0,3.9-0.1,4-1.7c0.1-1.6,1.7-2,1.7,0.1C135.5,211.6,133.6,212.5,129.9,212z"/>
	<path fill="#FF9F00" d="M125.9,212c0,0-3.9-0.1-4-1.7c-0.1-1.6-1.7-2-1.7,0.1C120.2,211.6,122.2,212.5,125.9,212z"/>
	<path fill="#FF9F00" d="M126.3,190.8c0,0-4.8-0.2-4.9-2.1c-0.1-2-2.1-2.5-2,0.1C119.4,190.3,121.7,191.4,126.3,190.8z"/>
	<polygon fill="#ABD100" points="131,207 130,207 130,192 131.7,192 	"/>
	<polygon fill="#FF9F00" points="125,207 124.5,207 123.9,192 125,192 	"/>
	<path fill="#ABD100" d="M134.3,219.5h3.7c0,0-0.3,8.2,0.2,10c0.5,1.7-1.9,2.4-2.9-1.3C134.2,224.4,134.3,219.5,134.3,219.5z"/>
	<path fill="#FF9F00" d="M116,220h2.6c0,0,0.2,7-0.8,9.4c-1.1,2.5-2.5,2.1-2-1.3S116,220,116,220z"/>
	<rect x="140" y="240" fill="#ABD100" width="5" height="2"/>
	<rect x="108" y="240" fill="#FF9F00" width="3" height="2"/>
	<path fill="#FF9F00" d="M97,169.3c0,0,4.1,4.1,3.2,6.4C100.8,175,101.2,172,97,169.3z"/>
	<path fill="#FF9F00" d="M97.6,166.2c0,0,2.8-1,3.8,0.7c-0.3-1-1.5-1.8-2.7-1.8C97.4,165.1,97.9,165.7,97.6,166.2z"/>
	<path fill="#ABD100" d="M157.6,170.7c0,0-2.4,2.5-2,4.6c0.1,0.5,0.7,1.6,1.3,1.3s0.2-0.8-0.2-1.5
		C156.3,174.4,156.7,171.8,157.6,170.7z"/>
	<path fill="#ABD100" d="M156.2,166.1c-0.1,0.1,0.7-0.6,1.8-0.3c0.7,0.2,1,1,1,1s0.5-1.2-0.9-1.5C157,164.9,156.7,165.7,156.2,166.1
		z"/>
	<path fill="none" stroke="#957E78" stroke-width="0.6534" stroke-miterlimit="10" d="M117.1,183.5c4.9,2.2,18.3,2,22.8-0.4"/>
	<line fill="none" stroke="#957E78" stroke-miterlimit="10" x1="124" y1="191.5" x2="133" y2="191.5"/>
	<line fill="none" stroke="#957E78" stroke-miterlimit="10" x1="124" y1="206.5" x2="132" y2="206.5"/>
	<line fill="none" stroke="#957E78" stroke-width="0.6534" stroke-miterlimit="10" x1="122.1" y1="213.2" x2="133.7" y2="213.2"/>
	<line fill="none" stroke="#957E78" stroke-width="0.6534" stroke-miterlimit="10" x1="114.6" y1="219.5" x2="141.2" y2="219.5"/>
	<line fill="none" stroke="#957E78" stroke-width="0.6534" stroke-miterlimit="10" x1="104.8" y1="239" x2="151.2" y2="239"/>
	<line fill="none" stroke="#957E78" stroke-width="0.6534" stroke-miterlimit="10" x1="104.8" y1="242.5" x2="151.2" y2="242.5"/>
</g>
<g>
	<g>
		<path fill="#FFDA44" d="M150.4,65.1c0,5,0.9,9.8,2.5,14.2l38.4,3.6l38.4-3.6c1.6-4.4,2.5-9.2,2.5-14.2s-0.9-9.8-2.5-14.2
			l-38.4-3.6l-38.4,3.6C151.3,55.3,150.4,60.1,150.4,65.1"/>
		<path fill="#D80027" d="M229.7,50.9c-5.8-15.6-20.8-26.7-38.4-26.7s-32.6,11.1-38.4,26.7H229.7z"/>
		<path fill="#D80027" d="M152.9,79.4c5.8,15.6,20.8,26.7,38.4,26.7s32.6-11.1,38.4-26.7C229.7,79.4,152.9,79.4,152.9,79.4z"/>
	</g>
	<ellipse fill="none" stroke="#020200" stroke-width="1.4754" stroke-miterlimit="10" cx="191.6" cy="65.2" rx="40.8" ry="40.6"/>
</g>
<g>
	<path d="M9.733,198.442v-2.583h4.178v2.912c0,1.612,0.137,2.744,0.411,3.396c0.274,0.653,0.79,0.979,1.546,0.979
		c0.757,0,1.259-0.269,1.505-0.807c0.247-0.537,0.37-1.414,0.37-2.632c0-1.217-0.22-2.278-0.658-3.183
		c-0.438-0.905-1.135-1.852-2.089-2.838l-2.139-2.204c-0.998-1.042-1.774-2.122-2.328-3.241c-0.554-1.118-0.831-2.412-0.831-3.882
		c0-2.391,0.46-4.168,1.382-5.33c0.921-1.162,2.505-1.744,4.754-1.744c2.248,0,3.77,0.678,4.565,2.032s1.192,3.331,1.192,5.93v1.793
		H17.53v-2.072c0-1.403-0.121-2.41-0.362-3.019s-0.705-0.913-1.39-0.913c-0.686,0-1.179,0.23-1.48,0.69
		c-0.302,0.461-0.453,1.152-0.453,2.073s0.154,1.656,0.461,2.204c0.307,0.549,0.861,1.25,1.661,2.105l2.385,2.583
		c1.195,1.294,2.098,2.604,2.706,3.932c0.609,1.327,0.913,2.774,0.913,4.343c0,2.709-0.455,4.71-1.365,6.004
		c-0.911,1.295-2.503,1.941-4.779,1.941s-3.86-0.721-4.754-2.163C10.18,203.309,9.733,201.206,9.733,198.442z"/>
	<path d="M24.354,206.585v-28.952H31c2.248,0,3.786,0.683,4.614,2.048s1.264,3.403,1.308,6.111v0.608
		c0,2.874-0.409,5.054-1.226,6.539c-0.817,1.486-2.333,2.229-4.548,2.229h-2.385v11.416L24.354,206.585L24.354,206.585z
		 M28.763,191.533h1.513c0.932,0,1.538-0.359,1.818-1.077c0.28-0.719,0.419-2.087,0.419-4.104v-0.56
		c-0.011-1.711-0.162-2.934-0.452-3.668c-0.291-0.734-0.875-1.103-1.752-1.103h-1.546V191.533z"/>
	<path d="M37.248,206.585l4.129-28.952H47.2l4.393,28.952H47.48l-0.691-5.165h-4.672l-0.625,5.165H37.248z M46.328,197.883
		l-1.941-14.542h-0.065l-1.777,14.542H46.328z"/>
	<path d="M53.776,206.585v-28.952h3.455l6.136,17.371l-0.312-7.896v-9.476h3.965v28.952h-3.126l-6.3-17.979l0.247,7.6v10.38
		L53.776,206.585L53.776,206.585z"/>
	<path d="M70.684,206.585v-28.952h4.409v28.952H70.684z"/>
	<path d="M78.182,198.442v-2.583h4.178v2.912c0,1.612,0.137,2.744,0.411,3.396c0.274,0.653,0.79,0.979,1.546,0.979
		c0.757,0,1.259-0.269,1.505-0.807c0.247-0.537,0.37-1.414,0.37-2.632c0-1.217-0.22-2.278-0.658-3.183
		c-0.438-0.905-1.135-1.852-2.089-2.838l-2.139-2.204c-0.998-1.042-1.774-2.122-2.328-3.241c-0.554-1.118-0.831-2.412-0.831-3.882
		c0-2.391,0.46-4.168,1.382-5.33c0.921-1.162,2.505-1.744,4.754-1.744c2.248,0,3.77,0.678,4.565,2.032
		c0.795,1.354,1.192,3.331,1.192,5.93v1.793h-4.063v-2.072c0-1.403-0.121-2.41-0.362-3.019s-0.705-0.913-1.39-0.913
		c-0.686,0-1.179,0.23-1.48,0.69c-0.302,0.461-0.453,1.152-0.453,2.073s0.154,1.656,0.461,2.204c0.307,0.549,0.861,1.25,1.661,2.105
		l2.385,2.583c1.195,1.294,2.098,2.604,2.706,3.932c0.609,1.327,0.913,2.774,0.913,4.343c0,2.709-0.455,4.71-1.365,6.004
		c-0.911,1.295-2.503,1.941-4.779,1.941s-3.86-0.721-4.754-2.163C78.629,203.309,78.182,201.206,78.182,198.442z"/>
	<path d="M103.529,204.899c-0.998,1.343-2.566,2.015-4.705,2.015s-3.737-0.716-4.795-2.146c-1.059-1.432-1.587-3.49-1.587-6.177
		v-12.618c0-4.31,1.129-7.002,3.389-8.076c0.833-0.396,1.842-0.593,3.027-0.593c4.068,0,6.103,2.566,6.103,7.699v3.98H100.7v-3.701
		c0-1.491-0.126-2.558-0.378-3.199s-0.746-0.963-1.48-0.963s-1.245,0.34-1.53,1.021c-0.285,0.68-0.428,1.722-0.428,3.125v13.522
		c0,1.557,0.137,2.67,0.411,3.339s0.773,1.004,1.497,1.004s1.223-0.34,1.497-1.021c0.274-0.68,0.411-1.804,0.411-3.372v-4.146h4.327
		v4.097C105.026,201.485,104.526,203.556,103.529,204.899z"/>
	<path d="M107.77,206.585v-28.952h4.409v11.713h3.948v-11.713h4.409v28.952h-4.409v-13.456h-3.948v13.456H107.77z"/>
	<path d="M124.035,206.585v-28.952h9.706v3.8h-5.297v8.423h5.034v3.718h-5.034v9.212h5.495v3.8h-9.904V206.585z"/>
	<path d="M142.439,192.98l-1.414-0.065v13.67h-4.409v-28.952h7.288c1.513,0,2.643,0.305,3.389,0.913
		c0.745,0.608,1.236,1.459,1.472,2.55c0.236,1.091,0.354,2.517,0.354,4.277s-0.187,3.101-0.559,4.021
		c-0.373,0.922-1.064,1.541-2.073,1.859c0.998,0.175,1.694,0.85,2.09,2.023c0.395,1.173,0.592,3.616,0.592,7.328
		c0,3.713,0.055,5.706,0.164,5.979h-4.408c-0.109-0.219-0.164-3.679-0.164-10.38c0-1.283-0.154-2.136-0.461-2.558
		C143.991,193.225,143.372,193.003,142.439,192.98z M141.042,189.493h1.76c0.56,0,0.973-0.126,1.242-0.378s0.455-0.686,0.56-1.3
		c0.104-0.614,0.156-1.552,0.156-2.812v-0.182c0-1.567-0.132-2.593-0.396-3.076c-0.263-0.482-0.871-0.724-1.826-0.724h-1.496
		V189.493z"/>
	<path d="M157.584,206.585v-28.952h5.479l4.112,21.155l3.865-21.155h5.512v28.952h-3.932v-10.791l0.164-9.903l-3.898,20.562h-3.504
		l-4.063-20.562l0.165,9.903v10.791H157.584z"/>
	<path d="M180.068,206.585v-28.952h9.705v3.8h-5.297v8.423h5.034v3.718h-5.034v9.212h5.494v3.8h-9.902V206.585z"/>
	<path d="M192.813,206.585v-28.952h4.409v28.952H192.813z"/>
	<path d="M200.312,198.442v-2.583h4.179v2.912c0,1.612,0.137,2.744,0.411,3.396c0.274,0.653,0.79,0.979,1.546,0.979
		c0.757,0,1.259-0.269,1.506-0.807c0.246-0.537,0.37-1.414,0.37-2.632c0-1.217-0.22-2.278-0.658-3.183s-1.135-1.852-2.089-2.838
		l-2.139-2.204c-0.998-1.042-1.774-2.122-2.328-3.241c-0.554-1.118-0.83-2.412-0.83-3.882c0-2.391,0.46-4.168,1.382-5.33
		c0.921-1.162,2.505-1.744,4.754-1.744c2.248,0,3.77,0.678,4.564,2.032s1.192,3.331,1.192,5.93v1.793h-4.062v-2.072
		c0-1.403-0.121-2.41-0.362-3.019s-0.705-0.913-1.39-0.913c-0.686,0-1.18,0.23-1.48,0.69c-0.302,0.461-0.453,1.152-0.453,2.073
		s0.154,1.656,0.461,2.204c0.307,0.549,0.861,1.25,1.661,2.105l2.386,2.583c1.195,1.294,2.098,2.604,2.706,3.932
		s0.913,2.774,0.913,4.343c0,2.709-0.455,4.71-1.365,6.004c-0.911,1.295-2.504,1.941-4.779,1.941s-3.86-0.721-4.754-2.163
		S200.312,201.206,200.312,198.442z"/>
	<path d="M216.413,206.585v-25.136h-3.389v-3.816h11.038v3.816h-3.257v25.136H216.413z"/>
	<path d="M225.655,206.585v-28.952h9.705v3.8h-5.297v8.423h5.034v3.718h-5.034v9.212h5.494v3.8h-9.902V206.585z"/>
	<path d="M244.06,192.98l-1.415-0.065v13.67h-4.408v-28.952h7.287c1.514,0,2.643,0.305,3.389,0.913s1.236,1.459,1.473,2.55
		c0.235,1.091,0.354,2.517,0.354,4.277s-0.187,3.101-0.56,4.021c-0.373,0.922-1.063,1.541-2.072,1.859
		c0.998,0.175,1.694,0.85,2.089,2.023c0.395,1.173,0.593,3.616,0.593,7.328c0,3.713,0.055,5.706,0.164,5.979h-4.408
		c-0.11-0.219-0.165-3.679-0.165-10.38c0-1.283-0.153-2.136-0.461-2.558C245.611,193.225,244.991,193.003,244.06,192.98z
		 M242.661,189.493h1.761c0.559,0,0.973-0.126,1.241-0.378s0.455-0.686,0.56-1.3s0.156-1.552,0.156-2.812v-0.182
		c0-1.567-0.132-2.593-0.395-3.076c-0.264-0.482-0.872-0.724-1.826-0.724h-1.497V189.493z"/>
	<path d="M92.38,238.444c-1.066,0-1.933-0.087-2.598-0.26c-0.666-0.173-1.229-0.49-1.688-0.95c-0.46-0.46-0.784-1.084-0.971-1.873
		c-0.187-0.788-0.28-1.807-0.28-3.056V217.8c0-1.248,0.093-2.267,0.28-3.056c0.187-0.788,0.51-1.412,0.971-1.873
		c0.46-0.46,1.023-0.776,1.688-0.95c0.665-0.173,1.531-0.26,2.598-0.26v2.734c-0.812,0-1.331,0.212-1.559,0.636
		s-0.342,1.329-0.342,2.714v14.615c0,1.386,0.114,2.29,0.342,2.714c0.228,0.424,0.747,0.636,1.559,0.636V238.444z"/>
	<path d="M95.347,236.585v-24.062h3.664v20.945h4.635v3.117L95.347,236.585L95.347,236.585z"/>
	<path d="M104.657,236.585l3.432-24.062h4.84l3.65,24.062h-3.418l-0.574-4.293h-3.883l-0.52,4.293H104.657z M112.204,229.353
		l-1.613-12.086h-0.055l-1.477,12.086H112.204z"/>
	<path d="M124.112,236.585v-24.062h3.664v20.945h4.635v3.117L124.112,236.585L124.112,236.585z"/>
	<path d="M134.653,236.585v-24.062h3.664v24.062H134.653z"/>
	<path d="M146.589,236.831c-1.513,0-2.695-0.595-3.548-1.784s-1.278-3.023-1.278-5.503v-10.459c0-2.224,0.436-3.919,1.306-5.086
		c0.87-1.166,2.254-1.75,4.149-1.75c2.36,0,3.86,0.88,4.498,2.639c0.383,1.058,0.574,2.502,0.574,4.334v1.709h-3.418v-2.516
		c0-1.103-0.116-1.877-0.349-2.324c-0.232-0.446-0.67-0.67-1.312-0.67s-1.096,0.267-1.36,0.8s-0.396,1.479-0.396,2.837v10.432
		c0,1.577,0.118,2.676,0.355,3.295c0.237,0.62,0.699,0.93,1.388,0.93s1.176-0.332,1.463-0.998c0.287-0.665,0.431-1.786,0.431-3.363
		v-3.24h-1.846v-2.666h5.045v13.139h-1.641l-0.561-2.365c-0.191,0.812-0.61,1.449-1.258,1.914S147.437,236.831,146.589,236.831z"/>
	<path d="M154.642,236.585l3.432-24.062h4.84l3.65,24.062h-3.418l-0.574-4.293h-3.883l-0.52,4.293H154.642z M162.188,229.353
		l-1.613-12.086h-0.055l-1.477,12.086H162.188z"/>
	<path d="M168.45,238.444v-2.734c0.812,0,1.331-0.212,1.559-0.636s0.342-1.328,0.342-2.714v-14.615c0-1.385-0.114-2.29-0.342-2.714
		s-0.747-0.636-1.559-0.636v-2.734c1.066,0,1.933,0.087,2.598,0.26c0.665,0.174,1.226,0.49,1.682,0.95
		c0.456,0.461,0.777,1.085,0.964,1.873c0.187,0.789,0.28,1.808,0.28,3.056v14.506c0,1.249-0.094,2.268-0.28,3.056
		c-0.187,0.789-0.508,1.413-0.964,1.873s-1.017,0.777-1.682,0.95S169.517,238.444,168.45,238.444z"/>
</g>
</svg>
