<?xml version="1.0" encoding="utf-8"?>
<!-- Generator: Adobe Illustrator 17.0.0, SVG Export Plug-In . SVG Version: 6.00 Build 0)  -->
<!DOCTYPE svg PUBLIC "-//W3C//DTD SVG 1.1//EN" "http://www.w3.org/Graphics/SVG/1.1/DTD/svg11.dtd">
<svg version="1.1" id="Layer_1" xmlns="http://www.w3.org/2000/svg" xmlns:xlink="http://www.w3.org/1999/xlink" x="0px" y="0px"
	 width="256px" height="256px" viewBox="0 0 256 256" enable-background="new 0 0 256 256" xml:space="preserve">
<polygon fill="#FFFF00" points="128,188.6 53.1,243.2 82,155.1 6.8,100.8 99.5,101 128,12.8 156.5,101 249.2,100.8 174,155.1 
	202.9,243.2 "/>
<path fill="#FFFFFF" d="M192,10.3c-17.1,0-32.4,8-42.3,20.6h-0.3v0.3c-7.1,9.1-11.4,20.6-11.4,33c0,29.7,24.2,53.9,53.9,53.9
	s53.9-24.2,53.9-53.9S221.7,10.3,192,10.3z"/>
<path d="M192,10.3c-17.1,0-32.4,8-42.3,20.6h-0.3v0.3c-7.1,9.1-11.4,20.6-11.4,33c0,29.7,24.2,53.9,53.9,53.9s53.9-24.2,53.9-53.9
	S221.7,10.3,192,10.3z M208.6,100.9l-23.1-3L183.7,78l17.6-10.7L217,82.4L208.6,100.9z M171.2,103.3L151.9,89l-2.1-14.7l11.8-7.4
	L181.5,78l1.9,20.2L171.2,103.3z M149.1,72.2L142,57.4l9.3-15.3l9.7,2l-0.2,20.8L149.1,72.2z M188.3,19l21.3,2.9l7.3,13.6l-16.1,7.9
	l-16.5-11.5L188.3,19z M231.4,74.4l-12.6,6.7l-16.9-16.2l0.2-19.7l16-7.9L232.3,50L231.4,74.4z M233.5,74.9l1-24.5l7.1-0.9
	c1.4,4.7,2.1,9.6,2.1,14.7c0,4.6-0.6,9-1.7,13.2L233.5,74.9z M240.9,47.4l-7.1,0.9l-14.6-13.1L212,21.9l6.1-2.4
	C228.7,25.7,236.9,35.6,240.9,47.4z M178.8,14.2l7.4,4.1L182,32.1L162.3,42l-10.5-2.1l-0.2-8.1C158.5,23.4,167.9,17,178.8,14.2z
	 M149.7,40.5l-8.5,14.1c1.4-7.3,4.3-14.1,8.4-20L149.7,40.5z M140.5,59.2l7.1,14.9l2.1,14.8l-2.9,0.4c-4.1-7.4-6.5-16-6.5-25.1
	C140.3,62.5,140.4,60.8,140.5,59.2z M172.4,112.1l-0.2-6.8l12.5-5.3l23.9,3.1l4.4,8.4c-6.4,2.9-13.5,4.5-21,4.5
	C185.1,115.9,178.5,114.5,172.4,112.1z"/>
<g>
	<path fill="none" stroke="#000000" stroke-width="3" stroke-miterlimit="10" d="M157.6,137"/>
	<path fill="#FF0000" d="M157.6,137"/>
</g>
<g>
	<path fill="#FFFFFF" d="M208.569,167.863c21.406-7.213,37.78-27.113,38.966-30.295c1.186-3.182,0.077-4.019-1.91-6.774
		s-6.88-1.426-6.88-1.426s-23.364,14.332-34.198,19.886c-10.736,5.567-53.847,10.693-59.851,12.896
		c-6.004,2.204-46.782,9.723-54.542,17.357c-0.32,2.681-3.124,9.295,4.23,6.749C101.749,183.612,173.321,179.668,208.569,167.863z"
		/>
	<g>
		<path fill="none" stroke="#000000" stroke-width="3" stroke-miterlimit="10" d="M183.7,136.595
			c3.36-0.304,6.211-0.568,8.256-0.827c4.499-0.571,9.718-1.257,16.619-2.548c9.07-1.737,19.469-5.33,23.138-5.697
			c6.521-0.632,12.154,1.954,12.154,1.954c2.508,2.616-23.83,17.398-30.198,20.968c-16.309,9.232-64.234,14.186-99.389,22.679
			c-12.548,3.034-18.467,7.061-18.467,7.061s9.59-1.876,16.321-2.584c14.888-1.546,79.772-5.986,97.329-13.861
			c22.655-10.086,35.759-27.052,36.261-30.416c4.052,8.238-0.392,14.254-3.98,18.156c-3.588,3.902-1.466,6.371-2.899,7.409
			c-0.79,0.711-4.199-1.105-7.632,1.506s-4.846,5.162-8.987,7.79c-4.129,2.528-1.553,6.26-4.355,8.645
			c-2.691,2.297-4.704-2.777-8.639-1.031c-3.835,1.758-5.987,2.911-12.575,4.944c-6.377,1.958-3.312,6.654-5.826,7.462
			c-2.438,1.018-6.008-5.35-10.924-3.822s-24.374,10.988-31.057,13.816c-6.682,2.828-2.836,11.948-5.036,13.498
			c-1.421,0.938-5.229-3.444-9.077-4.105c-2.272-0.372-4.646,0.956-7.167,2.669c-6.685,4.54-2.186,10.716-4.957,11.997
			c-2.783,1.38-4.29-2.023-8.668-4.157s-8.582,0.184-12.815-4.853c-20.389-24.087-13.369-46.613-13.369-46.613
			c2.032-2.678,2.942-1.864,7.478-0.215c4.648,1.562,12.608,3.217,18.964-0.254c6.356-3.471,14.062-14.032,14.071-19.167
			c0.108-5.123-0.955-8.876,5.722-8.28c2.693,0.221,10.767,0.077,20.191-0.41l4.365-0.285
			C161.369,138.058,161.369,138.058,183.7,136.595z"/>
		<path fill="#9AC900" d="M183.7,136.595c3.36-0.304,6.211-0.568,8.256-0.827c4.499-0.571,9.718-1.257,16.619-2.548
			c9.07-1.737,19.469-5.33,23.138-5.697c6.521-0.632,12.154,1.954,12.154,1.954c2.508,2.616-23.83,17.398-30.198,20.968
			c-16.309,9.232-64.234,14.186-99.389,22.679c-12.548,3.034-18.467,7.061-18.467,7.061s9.59-1.876,16.321-2.584
			c14.888-1.546,79.772-5.986,97.329-13.861c22.655-10.086,35.759-27.052,36.261-30.416c4.052,8.238-0.392,14.254-3.98,18.156
			c-3.588,3.902-1.466,6.371-2.899,7.409c-0.79,0.711-4.199-1.105-7.632,1.506s-4.846,5.162-8.987,7.79
			c-4.129,2.528-1.553,6.26-4.355,8.645c-2.691,2.297-4.704-2.777-8.639-1.031c-3.835,1.758-5.987,2.911-12.575,4.944
			c-6.377,1.958-3.312,6.654-5.826,7.462c-2.438,1.018-6.008-5.35-10.924-3.822s-24.374,10.988-31.057,13.816
			c-6.682,2.828-2.836,11.948-5.036,13.498c-1.421,0.938-5.229-3.444-9.077-4.105c-2.272-0.372-4.646,0.956-7.167,2.669
			c-6.685,4.54-2.186,10.716-4.957,11.997c-2.783,1.38-4.29-2.023-8.668-4.157s-8.582,0.184-12.815-4.853
			c-20.389-24.087-13.369-46.613-13.369-46.613c2.032-2.678,2.942-1.864,7.478-0.215c4.648,1.562,12.608,3.217,18.964-0.254
			c6.356-3.471,14.062-14.032,14.071-19.167c0.108-5.123-0.955-8.876,5.722-8.28c2.693,0.221,10.767,0.077,20.191-0.41l4.365-0.285
			C161.369,138.058,161.369,138.058,183.7,136.595z"/>
	</g>
	<g>
		<g>
			<g>
				<path fill="none" stroke="#1D1D1B" stroke-width="3" d="M152.641,152.123c-0.199-0.024-0.397-0.047-0.596-0.071
					c-1.069-0.329-1.633-1.504-1.205-2.561l4.908-14.118c0.329-1.069,1.504-1.633,2.561-1.205c1.069,0.329,1.633,1.504,1.205,2.561
					l-4.908,14.118C154.213,151.606,153.447,152.118,152.641,152.123z"/>
			</g>
			<g>
				<path fill="none" stroke="#1D1D1B" stroke-width="3" d="M162.191,149.738c-0.199-0.024-0.397-0.047-0.596-0.071
					c-1.069-0.329-1.633-1.504-1.205-2.561l3.969-11.309c0.329-1.069,1.504-1.633,2.561-1.205c1.069,0.329,1.633,1.504,1.205,2.561
					l-3.969,11.309C163.862,149.233,163.096,149.745,162.191,149.738z"/>
			</g>
			<g>
				<path fill="none" stroke="#1D1D1B" stroke-width="3" d="M170.133,148.168c-0.199-0.024-0.397-0.047-0.596-0.071
					c-1.069-0.329-1.633-1.504-1.205-2.561l3.798-10.725c0.329-1.069,1.504-1.633,2.561-1.205c1.069,0.329,1.633,1.504,1.205,2.561
					l-3.798,10.725C171.804,147.663,170.927,148.263,170.133,148.168z"/>
			</g>
			<g>
				<path fill="none" stroke="#1D1D1B" stroke-width="3" d="M179.269,145.029c-0.199-0.024-0.397-0.047-0.596-0.071
					c-1.069-0.329-1.633-1.504-1.205-2.561l3.029-8.501c0.329-1.069,1.504-1.633,2.561-1.205c1.069,0.329,1.633,1.504,1.205,2.561
					l-3.029,8.501C180.842,144.512,180.076,145.025,179.269,145.029z"/>
			</g>
		</g>
		<g>
			<g>
				<path fill="#FFFF00" d="M152.641,152.123c-0.199-0.024-0.397-0.047-0.596-0.071c-1.069-0.329-1.633-1.504-1.205-2.561
					l4.908-14.118c0.329-1.069,1.504-1.633,2.561-1.205c1.069,0.329,1.633,1.504,1.205,2.561l-4.908,14.118
					C154.213,151.606,153.447,152.118,152.641,152.123z"/>
			</g>
			<g>
				<path fill="#FFFF00" d="M162.191,149.738c-0.199-0.024-0.397-0.047-0.596-0.071c-1.069-0.329-1.633-1.504-1.205-2.561
					l3.969-11.309c0.329-1.069,1.504-1.633,2.561-1.205c1.069,0.329,1.633,1.504,1.205,2.561l-3.969,11.309
					C163.862,149.233,163.096,149.745,162.191,149.738z"/>
			</g>
			<g>
				<path fill="#FFFF00" d="M170.133,148.168c-0.199-0.024-0.397-0.047-0.596-0.071c-1.069-0.329-1.633-1.504-1.205-2.561
					l3.798-10.725c0.329-1.069,1.504-1.633,2.561-1.205c1.069,0.329,1.633,1.504,1.205,2.561l-3.798,10.725
					C171.804,147.663,170.927,148.263,170.133,148.168z"/>
			</g>
			<g>
				<path fill="#FFFF00" d="M179.269,145.029c-0.199-0.024-0.397-0.047-0.596-0.071c-1.069-0.329-1.633-1.504-1.205-2.561
					l3.029-8.501c0.329-1.069,1.504-1.633,2.561-1.205c1.069,0.329,1.633,1.504,1.205,2.561l-3.029,8.501
					C180.842,144.512,180.076,145.025,179.269,145.029z"/>
			</g>
		</g>
	</g>
</g>
<g>
	<ellipse fill="#272A9B" stroke="#000000" stroke-miterlimit="10" cx="191.6" cy="65.2" rx="40.8" ry="40.6"/>
	<g>
		<path fill="#FFFFFF" d="M166.1,74.5V52.1h3.4v19.4h4.3v2.9h-7.7V74.5z"/>
		<path fill="#FFFFFF" d="M175.9,74.5V52.1h3.4v22.3h-3.4V74.5z"/>
		<path fill="#FFFFFF" d="M187,74.7c-1.4,0-2.5-0.6-3.3-1.7s-1.2-2.8-1.2-5.1v-9.7c0-2.1,0.4-3.6,1.2-4.7c0.8-1.1,2.1-1.6,3.9-1.6
			c2.2,0,3.6,0.8,4.2,2.5c0.4,1,0.5,2.3,0.5,4V60h-3.2v-2.3c0-1-0.1-1.7-0.3-2.2c-0.2-0.4-0.6-0.6-1.2-0.6s-1,0.2-1.3,0.7
			c-0.2,0.5-0.4,1.4-0.4,2.6v9.7c0,1.5,0.1,2.5,0.3,3.1s0.6,0.9,1.3,0.9c0.6,0,1.1-0.3,1.4-0.9c0.3-0.6,0.4-1.7,0.4-3.1v-3h-1.7
			v-2.5h4.7v12.2h-1.5l-0.5-2.2c-0.2,0.8-0.6,1.3-1.2,1.8C188.5,74.5,187.8,74.7,187,74.7z"/>
		<path fill="#FFFFFF" d="M194.5,74.5l3.2-22.3h4.5l3.4,22.3h-3.2l-0.5-4h-3.6l-0.5,4H194.5z M201.5,67.7L200,56.5h-0.1l-1.4,11.2
			H201.5z"/>
		<path fill="#FFFFFF" d="M214.1,74.5V56.3c-0.3,0.3-0.7,0.6-1.2,0.8s-1,0.3-1.5,0.3v-2.5c0.7-0.1,1.4-0.4,2-0.9s1.1-1.1,1.5-1.9
			h2.6v22.4C217.5,74.5,214.1,74.5,214.1,74.5z"/>
	</g>
</g>
<g>
	<path d="M20.281,120.405v-1.533h2.48v1.729c0,0.957,0.082,1.629,0.244,2.017s0.469,0.581,0.918,0.581s0.747-0.159,0.894-0.479
		s0.22-0.84,0.22-1.562s-0.13-1.353-0.391-1.89s-0.674-1.099-1.24-1.685l-1.27-1.309c-0.592-0.618-1.053-1.26-1.382-1.924
		s-0.493-1.432-0.493-2.305c0-1.419,0.273-2.474,0.82-3.164s1.488-1.035,2.822-1.035s2.238,0.402,2.71,1.206
		s0.708,1.978,0.708,3.521v1.064H24.91v-1.23c0-0.833-0.072-1.431-0.215-1.792s-0.418-0.542-0.825-0.542s-0.7,0.137-0.879,0.41
		s-0.269,0.684-0.269,1.23s0.091,0.983,0.273,1.309c0.182,0.325,0.511,0.742,0.986,1.25l1.416,1.533
		c0.709,0.769,1.245,1.546,1.606,2.334s0.542,1.647,0.542,2.578c0,1.608-0.27,2.796-0.811,3.564s-1.486,1.152-2.837,1.152
		s-2.292-0.428-2.822-1.284S20.281,122.046,20.281,120.405z"/>
	<path d="M29.46,125.239v-17.188h3.945c1.334,0,2.248,0.405,2.739,1.216s0.75,2.02,0.776,3.628v0.361c0,1.706-0.243,3-0.728,3.882
		s-1.385,1.323-2.7,1.323h-1.416v6.777L29.46,125.239L29.46,125.239z M32.078,116.304h0.898c0.553,0,0.913-0.213,1.079-0.64
		s0.249-1.238,0.249-2.437v-0.332c-0.006-1.016-0.096-1.742-0.269-2.178s-0.519-0.654-1.04-0.654h-0.918v6.241H32.078z"/>
	<path d="M38.777,125.239v-17.188h2.617v17.188H38.777z"/>
	<path d="M44.07,125.239v-17.188h5.762v2.256h-3.145v5h2.988v2.207h-2.988v5.469h3.262v2.256
		C49.949,125.239,44.07,125.239,44.07,125.239z"/>
	<path d="M52.039,125.239v-17.188h2.617v14.961h3.311v2.227C57.967,125.239,52.039,125.239,52.039,125.239z"/>
	<path d="M59.47,125.239v-17.188h5.762v2.256h-3.145v5h2.988v2.207h-2.988v5.469h3.262v2.256
		C65.349,125.239,59.47,125.239,59.47,125.239z"/>
	<path d="M70.896,117.163l-0.84-0.039v8.115h-2.617v-17.188h4.326c0.898,0,1.569,0.181,2.012,0.542s0.734,0.866,0.874,1.514
		s0.21,1.494,0.21,2.539s-0.111,1.841-0.332,2.388s-0.631,0.915-1.23,1.104c0.592,0.104,1.006,0.505,1.24,1.201
		s0.352,2.146,0.352,4.351s0.033,3.387,0.098,3.55h-2.617c-0.065-0.13-0.098-2.185-0.098-6.162c0-0.762-0.091-1.268-0.273-1.519
		S71.449,117.176,70.896,117.163z M70.066,115.093h1.045c0.332,0,0.578-0.075,0.737-0.225s0.27-0.407,0.332-0.771
		s0.093-0.921,0.093-1.67v-0.107c0-0.931-0.078-1.54-0.234-1.826s-0.518-0.43-1.084-0.43h-0.889V115.093z"/>
	<path d="M20.613,149.239v-17.188h3.857c1.263,0,2.179,0.373,2.749,1.118s0.854,1.844,0.854,3.296l0.01,7.754
		c0,1.731-0.287,3.001-0.859,3.809s-1.52,1.211-2.842,1.211H20.613z M23.23,147.208h0.859c0.482,0,0.832-0.156,1.05-0.469
		s0.327-0.886,0.327-1.719l-0.01-8.486c0-0.892-0.109-1.526-0.327-1.904s-0.594-0.566-1.128-0.566H23.23V147.208z"/>
	<path d="M30.437,149.239v-17.188h5.762v2.256h-3.145v5h2.988v2.207h-2.988v5.469h3.262v2.256L30.437,149.239L30.437,149.239z"/>
	<path d="M38.064,144.405v-1.533h2.48v1.729c0,0.957,0.082,1.629,0.244,2.017s0.469,0.581,0.918,0.581s0.747-0.159,0.894-0.479
		s0.22-0.84,0.22-1.562s-0.13-1.353-0.391-1.89s-0.674-1.099-1.24-1.685l-1.27-1.309c-0.592-0.618-1.053-1.26-1.382-1.924
		s-0.493-1.433-0.493-2.305c0-1.419,0.273-2.474,0.82-3.164s1.488-1.035,2.822-1.035s2.238,0.402,2.71,1.206
		s0.708,1.978,0.708,3.521v1.064h-2.412v-1.23c0-0.833-0.072-1.431-0.215-1.792s-0.418-0.542-0.825-0.542s-0.7,0.137-0.879,0.41
		s-0.269,0.684-0.269,1.23s0.091,0.983,0.273,1.309s0.511,0.742,0.986,1.25l1.416,1.533c0.709,0.769,1.245,1.546,1.606,2.334
		s0.542,1.647,0.542,2.578c0,1.608-0.27,2.796-0.811,3.564s-1.486,1.152-2.837,1.152s-2.292-0.428-2.822-1.284
		S38.064,146.046,38.064,144.405z"/>
	<path d="M56.365,148.287c-0.619,0.765-1.489,1.147-2.612,1.147s-1.996-0.34-2.617-1.021s-0.933-1.672-0.933-2.974v-3.066h2.529
		v2.939c0,0.95,0.153,1.53,0.459,1.738c0.137,0.091,0.306,0.137,0.508,0.137c0.397,0,0.659-0.163,0.786-0.488s0.19-0.84,0.19-1.543
		v-13.105h2.617v12.979C57.292,146.437,56.983,147.522,56.365,148.287z"/>
	<path d="M58.992,149.239l2.451-17.188H64.9l2.607,17.188h-2.441l-0.41-3.066h-2.773l-0.371,3.066H58.992z M64.382,144.073
		l-1.152-8.633h-0.039l-1.055,8.633H64.382z"/>
	<path d="M69.304,149.239v-17.188h2.617v6.953h2.344v-6.953h2.617v17.188h-2.617v-7.988h-2.344v7.988H69.304z"/>
	<path d="M82.917,141.163l-0.84-0.039v8.115H79.46v-17.188h4.326c0.898,0,1.569,0.181,2.012,0.542s0.734,0.866,0.874,1.514
		s0.21,1.494,0.21,2.539s-0.111,1.841-0.332,2.388s-0.631,0.915-1.23,1.104c0.592,0.104,1.006,0.505,1.24,1.201
		s0.352,2.146,0.352,4.351s0.033,3.387,0.098,3.55h-2.617c-0.065-0.13-0.098-2.185-0.098-6.162c0-0.762-0.091-1.268-0.273-1.519
		S83.471,141.176,82.917,141.163z M82.087,139.093h1.045c0.332,0,0.578-0.075,0.737-0.225s0.27-0.407,0.332-0.771
		s0.093-0.921,0.093-1.67v-0.107c0-0.931-0.078-1.54-0.234-1.826s-0.518-0.43-1.084-0.43h-0.889V139.093z"/>
	<path d="M89.324,149.239v-17.188h5.762v2.256h-3.145v5h2.988v2.207h-2.988v5.469h3.262v2.256L89.324,149.239L89.324,149.239z"/>
	<path d="M96.951,144.405v-1.533h2.48v1.729c0,0.957,0.082,1.629,0.244,2.017s0.469,0.581,0.918,0.581s0.747-0.159,0.894-0.479
		s0.22-0.84,0.22-1.562s-0.13-1.353-0.391-1.89s-0.674-1.099-1.24-1.685l-1.27-1.309c-0.592-0.618-1.053-1.26-1.382-1.924
		s-0.493-1.433-0.493-2.305c0-1.419,0.273-2.474,0.82-3.164s1.488-1.035,2.822-1.035s2.238,0.402,2.71,1.206
		s0.708,1.978,0.708,3.521v1.064h-2.412v-1.23c0-0.833-0.072-1.431-0.215-1.792s-0.418-0.542-0.825-0.542s-0.7,0.137-0.879,0.41
		s-0.269,0.684-0.269,1.23s0.091,0.983,0.273,1.309s0.511,0.742,0.986,1.25l1.416,1.533c0.709,0.769,1.245,1.546,1.606,2.334
		s0.542,1.647,0.542,2.578c0,1.608-0.27,2.796-0.811,3.564s-1.486,1.152-2.837,1.152s-2.292-0.428-2.822-1.284
		S96.951,146.046,96.951,144.405z"/>
</g>
</svg>
