<?xml version="1.0" encoding="utf-8"?>
<!-- Generator: Adobe Illustrator 17.0.0, SVG Export Plug-In . SVG Version: 6.00 Build 0)  -->
<!DOCTYPE svg PUBLIC "-//W3C//DTD SVG 1.1//EN" "http://www.w3.org/Graphics/SVG/1.1/DTD/svg11.dtd">
<svg version="1.1" id="Layer_1" xmlns="http://www.w3.org/2000/svg" xmlns:xlink="http://www.w3.org/1999/xlink" x="0px" y="0px"
	 width="256px" height="256px" viewBox="0 0 256 256" enable-background="new 0 0 256 256" xml:space="preserve">
	<g>
		<path fill="#FFFFFF" d="M192,10.3c-17.1,0-32.4,8-42.3,20.6h-0.3v0.3c-7.1,9.1-11.4,20.6-11.4,33c0,29.7,24.2,53.9,53.9,53.9
		s53.9-24.2,53.9-53.9S221.7,10.3,192,10.3z"/>
		<path d="M192,10.3c-17.1,0-32.4,8-42.3,20.6h-0.3v0.3c-7.1,9.1-11.4,20.6-11.4,33c0,29.7,24.2,53.9,53.9,53.9s53.9-24.2,53.9-53.9
		S221.7,10.3,192,10.3z M208.6,100.9l-23.1-3L183.7,78l17.6-10.7L217,82.4L208.6,100.9z M171.2,103.3L151.9,89l-2.1-14.7l11.8-7.4
		L181.5,78l1.9,20.2L171.2,103.3z M149.1,72.2L142,57.4l9.3-15.3l9.7,2l-0.2,20.8L149.1,72.2z M188.3,19l21.3,2.9l7.3,13.6
		l-16.1,7.9l-16.5-11.5L188.3,19z M231.4,74.4l-12.6,6.7l-16.9-16.2l0.2-19.7l16-7.9L232.3,50L231.4,74.4z M233.5,74.9l1-24.5
		l7.1-0.9c1.4,4.7,2.1,9.6,2.1,14.7c0,4.6-0.6,9-1.7,13.2L233.5,74.9z M240.9,47.4l-7.1,0.9l-14.6-13.1L212,21.9l6.1-2.4
		C228.7,25.7,236.9,35.6,240.9,47.4z M178.8,14.2l7.4,4.1L182,32.1L162.3,42l-10.5-2.1l-0.2-8.1C158.5,23.4,167.9,17,178.8,14.2z
		 M149.7,40.5l-8.5,14.1c1.4-7.3,4.3-14.1,8.4-20L149.7,40.5z M140.5,59.2l7.1,14.9l2.1,14.8l-2.9,0.4c-4.1-7.4-6.5-16-6.5-25.1
		C140.3,62.5,140.4,60.8,140.5,59.2z M172.4,112.1l-0.2-6.8l12.5-5.3l23.9,3.1l4.4,8.4c-6.4,2.9-13.5,4.5-21,4.5
		C185.1,115.9,178.5,114.5,172.4,112.1z"/>
	</g>
	<g>
		<path fill="#FCFF00" stroke="#000000" stroke-miterlimit="10" d="M172.2,105.2c-6.4,0-11.2,5.7-11.4,10.7c0,0.5,0,1,0.1,1.5
		c-0.6-1.4-1.4-2-1.7-2.4c1.4-0.9-0.1-1.6-0.1-1.6H96.9c0,0-1.5,0.7-0.1,1.6c-0.2,0.4-1.1,1.1-1.7,2.5c0.1-0.5,0.1-1,0.1-1.6
		c-0.2-5-5.1-10.7-11.4-10.7c-6.1,0-11.6,3.8-11.6,11.4c0,11.1,8.8,15.2,17.4,18.9c6.9,3,14.1,5.6,14.1,11.7c0,5.8-4.1,5.5-4.1,7.7
		c0,0.6,0.4,1.3,1.4,1.3c1.1,0,5.3-3.4,5.4-8.2c0.1-2.2-0.4-4.2-1.7-6.2c3.9,3.7,9.4,7,17.2,8.8c0.1-0.3,1,1-0.1,1.2
		s-2.2,1.2-2.1,2.7s1.7,2.9,2.8,2.8c0,1.5-0.1,21.3-0.1,24.5s0.9,12.6,1.4,15.6c-1.9,0-6.8,3.9-6.8,10.5l-3.6,1.1v17.6
		c0,0,0.7,0.1-1.8,0.1s-3.6,10.6-8.6,10.6c-0.2,2.9-0.3,4.9-0.3,4.9s-6.4,0-6.4,5.7c0,5.3,0,6.5,0,6.5h27.2h3.9h29.9
		c0,0,0-1.3,0-6.5c0-6.2-5.6-5.9-5.6-5.9s0.2-1.9,0.1-4.7c-5,0-6.5-10.6-9-10.6s-2.6-0.1-2.6-0.1V209l-2.6-1.1
		c0-6.5-4-10.5-5.9-10.5c0.5-2.9,1.5-12.4,1.5-15.6c0-3.2-0.1-23-0.1-24.5c1.1,0.1,2.7-1.3,2.8-2.8s-1-2.5-2.1-2.7s-0.2-1.5-0.1-1.2
		c7.8-1.9,13.3-5.1,17.2-8.8c-1.3,2-1.8,4.1-1.7,6.2c0.1,4.8,4.3,8.2,5.4,8.2c1.1,0,1.4-0.7,1.4-1.3c0.1-2.2-4.1-2-4.1-7.7
		c0-6.1,7.2-8.8,14.1-11.7c8.6-3.7,17.4-7.7,17.4-18.9C183.8,109.1,178.3,105.2,172.2,105.2z M90.2,132.4c-1.2-0.6-13.7-5.4-14-15.1
		c0-5.5,3.8-8.9,7.6-8.9c4.6,0,9,3.8,9,7.7c0,3.2-2.6,4-2.9,4.1c-1.1,0.3-1.6,0.9-1.6,1.5c0,0.7,0.6,1.3,1.9,1.3
		c0.6,0,3.4-1.1,4.5-4c-0.1,0.8-0.1,1.8,0.1,2.9c0.5,2.5,1.6,9.8,6.9,16.6C99.2,136.3,95.5,134.3,90.2,132.4z M165.8,132.4
		c-5.2,1.9-9,3.9-11.5,6c5.3-6.8,6.4-14.1,6.9-16.6c0.2-1.1,0.2-2.1,0.1-2.9c1.1,2.9,3.9,4,4.5,4c1.3,0,1.9-0.7,1.9-1.3
		c0-0.7-0.5-1.2-1.6-1.5c-0.3-0.1-2.9-0.9-2.9-4.1c0-4,4.4-7.7,9-7.7c3.8,0,7.6,3.4,7.6,8.9C179.5,127,167,131.8,165.8,132.4z"/>
		<path fill="#FFFFFF" d="M133.9,128.6c6.8,0,9.1-1.1,12-6.1c2.8-5,2.3-7.5-12.4-7.6s-13.9,3.3-11.8,7.4S126.1,128.6,133.9,128.6z"/>
		<path fill="#FFFFFF" d="M127.6,155c0,0-2.1-1.3-0.3-1.7c1.1-0.3,2.8-0.4,3.9-0.1c1.1,0.3-0.2,1.9-1.3,1.9
		C128.8,155,127.6,155,127.6,155z"/>
		<path fill="#FFFFFF" d="M127,158h3.3c0,0,0.7,22.7-1.3,22.7C126.5,180.7,127,161,127,158z"/>
		<path fill="#FFFFFF" d="M126.5,207.9c0,0,0.2-3.1,0.2-4.9c0-1.8,1.4-2.9,2.7-2.9s2.7,0.3,2.8,2.9c0.2,2.9,0.2,4.1,0.3,4.9H126.5z"
		/>
		<path fill="#FFFFFF" d="M126,228c0,0,7.2,0,8.9,0s3.2,6.5,0.4,6.5s-7.3,0.7-9.3,0.7S124,228,126,228z"/>
		<rect x="140" y="239" fill="#ABD100" width="7" height="3"/>
		<rect x="134" y="209" fill="#ABD100" width="3" height="18"/>
		<path fill="#ABD100" d="M130.3,197c0,0,1.4-24.7,0.5-39c0.7,0,1.1,0,1.1,0s0.9,23.7-0.4,39C130.8,197,130.3,197,130.3,197z"/>
		<path fill="#ABD100" d="M129.4,156.4c0,0,2.5,0.2,3.1-2.1c0.2-1,1.8-1,1.6,0C134,155.3,132.2,156.9,129.4,156.4z"/>
		<path fill="#ABD100" d="M130.1,145.1c0,0,33.6-10.1,28.1-28.3c1.5,1.8,6,21.9-23.7,32.7c-0.2-0.3-0.7-1.8-4.2-1.5
		C127.6,148.2,127.5,145.9,130.1,145.1z"/>
		<rect x="106" y="239" fill="#FF9F00" width="3" height="3"/>
		<polygon fill="#FF9F00" points="116.3,227 118.8,227 119,209 116.5,209 	"/>
		<path fill="#FF9F00" d="M125.5,197c0,0-2.1-24.7-1.2-39c-0.7,0-1.1,0-1.1,0s-0.2,23.7,1.1,39C125.1,197,125.5,197,125.5,197z"/>
		<path fill="#FF9F00" d="M125.8,156.4c0,0-2.5,0.2-3.1-2.1c-0.2-1-1.8-1-1.6,0S123,156.9,125.8,156.4z"/>
		<path fill="#FF9F00" d="M125.2,145.1c0,0-33.6-10.1-28.1-28.3c-1.5,1.8-6,21.9,23.7,32.7c0.2-0.3,0.7-1.8,4.2-1.5
		C127.6,148.2,127.8,145.9,125.2,145.1z"/>
		<path fill="none" stroke="#957E78" stroke-width="0.6534" stroke-miterlimit="10" d="M119.8,150.1c0,0,3.7,1,7.7,1s7.5-0.6,8.4-0.9
		"/>
		<line fill="none" stroke="#957E78" stroke-miterlimit="10" x1="122" y1="157.5" x2="133" y2="157.5"/>
		<path fill="#FCFF00" stroke="#000000" stroke-miterlimit="10" d="M122.3,198.1c0,0,0.8-0.6,2-0.6s7.9,0,7.9,0s0.8,0.1,1.5,0.6"/>
		<line fill="none" stroke="#000000" stroke-miterlimit="10" x1="117" y1="207.5" x2="138" y2="207.5"/>
		<line fill="none" stroke="#000000" stroke-miterlimit="10" x1="114" y1="208.5" x2="141" y2="208.5"/>
		<line fill="none" stroke="#000000" stroke-miterlimit="10" x1="114" y1="227.5" x2="141" y2="227.5"/>
		<line fill="none" stroke="#957E78" stroke-width="0.6534" stroke-miterlimit="10" x1="103.6" y1="237.7" x2="152.2" y2="237.4"/>
		<line fill="none" stroke="#957E78" stroke-width="0.6534" stroke-miterlimit="10" x1="103.1" y1="242.3" x2="152.5" y2="242"/>
	</g>
	<g>
		<g>
			<path fill="#F0F0F0" d="M191.4,106.2c22.6,0,41-18.3,41-41s-18.3-41-41-41c-22.6,0-41,18.3-41,41S168.8,106.2,191.4,106.2"/>
			<path fill="#D80027" d="M205.7,65.2c0,3.6-6.4,12.5-14.2,12.5c-7.9,0-14.2-8.9-14.2-12.5c0-7.9,6.4-14.2,14.2-14.2
			C199.3,50.9,205.7,57.3,205.7,65.2"/>
			<path fill="#0052B4" d="M205.7,65.2c0,7.9-6.4,14.2-14.2,14.2c-7.9,0-14.2-6.4-14.2-14.2"/>
			<rect x="207.014" y="75.305" transform="matrix(-0.7071 0.7071 -0.7071 -0.7071 412.4408 -16.6279)" width="5.3" height="3.6"/>
			<rect x="200.717" y="81.595" transform="matrix(-0.7071 0.7071 -0.7071 -0.7071 406.1388 -1.4374)" width="5.3" height="3.6"/>
			<rect x="214.576" y="82.929" transform="matrix(-0.7071 0.7071 -0.7071 -0.7071 430.7404 -8.96)" width="5.3" height="3.6"/>
			<rect x="208.279" y="89.221" transform="matrix(-0.7071 0.7071 -0.7071 -0.7071 424.4388 6.2329)" width="5.3" height="3.6"/>
			<rect x="210.76" y="79.083" transform="matrix(-0.7071 0.7071 -0.7071 -0.7071 421.5069 -12.8284)" width="5.3" height="3.6"/>
			<rect x="204.535" y="85.443" transform="matrix(-0.7071 0.7071 -0.7071 -0.7071 415.3778 2.4309)" width="5.3" height="3.6"/>
			<rect x="203.213" y="44.488" transform="matrix(0.7071 0.7071 -0.7071 0.7071 94.3302 -135.1564)" width="14.2" height="3.6"/>
			<rect x="200.671" y="45.152" transform="matrix(0.7071 0.7071 -0.7071 0.7071 92.7515 -130.0173)" width="5.3" height="3.6"/>
			<rect x="206.967" y="51.454" transform="matrix(0.7071 0.7071 -0.7071 0.7071 99.0514 -132.6238)" width="5.3" height="3.6"/>
			<rect x="208.288" y="37.597" transform="matrix(0.7071 0.7071 -0.7071 0.7071 89.6406 -137.6168)" width="5.3" height="3.6"/>
			<rect x="214.586" y="43.898" transform="matrix(0.7071 0.7071 -0.7071 0.7071 95.94 -140.2247)" width="5.3" height="3.6"/>
			<rect x="161.748" y="86.067" transform="matrix(-0.7071 -0.7071 0.7071 -0.7071 226.1097 269.391)" width="14.2" height="3.6"/>
			<rect x="173.052" y="85.467" transform="matrix(-0.7071 -0.7071 0.7071 -0.7071 238.235 273.215)" width="5.3" height="3.6"/>
			<rect x="166.755" y="79.179" transform="matrix(-0.7071 -0.7071 0.7071 -0.7071 231.9306 258.0273)" width="5.3" height="3.6"/>
			<rect x="169.237" y="78.509" transform="matrix(-0.7071 -0.7071 0.7071 -0.7071 244.2388 261.7856)" width="14.2" height="3.6"/>
			<rect x="161.6" y="40.753" transform="matrix(0.7071 -0.7071 0.7071 0.7071 19.3216 131.7522)" width="14.2" height="3.6"/>
			<rect x="165.409" y="44.53" transform="matrix(0.7071 -0.7071 0.7071 0.7071 17.7665 135.5522)" width="14.2" height="3.6"/>
			<rect x="169.218" y="48.311" transform="matrix(0.7071 -0.7071 0.7071 0.7071 16.2084 139.3524)" width="14.2" height="3.6"/>
		</g>
		<ellipse fill="none" stroke="#020200" stroke-width="1.4754" stroke-miterlimit="10" cx="191.6" cy="65.2" rx="40.8" ry="40.6"/>
	</g>
	<g>
		<path d="M52.708,206.585v-28.952h5.478l4.112,21.155l3.866-21.155h5.511v28.952h-3.932v-10.791l0.165-9.903l-3.899,20.562h-3.504
		l-4.063-20.562l0.165,9.903v10.791H52.708z"/>
		<path d="M76.034,206.585v-28.952h9.706v3.8h-5.297v8.423h5.034v3.718h-5.034v9.212h5.494v3.8h-9.903V206.585z"/>
		<path d="M89.622,206.585v-28.952h4.409v28.952H89.622z"/>
		<path d="M97.962,198.442v-2.583h4.178v2.912c0,1.612,0.137,2.744,0.411,3.396c0.274,0.653,0.79,0.979,1.546,0.979
		c0.757,0,1.259-0.269,1.505-0.807c0.247-0.537,0.37-1.414,0.37-2.632c0-1.217-0.22-2.278-0.658-3.183
		c-0.438-0.905-1.135-1.852-2.089-2.838l-2.139-2.204c-0.998-1.042-1.774-2.122-2.328-3.241c-0.554-1.118-0.831-2.412-0.831-3.882
		c0-2.391,0.46-4.168,1.382-5.33c0.921-1.162,2.505-1.744,4.754-1.744c2.248,0,3.77,0.678,4.565,2.032
		c0.795,1.354,1.192,3.331,1.192,5.93v1.793h-4.063v-2.072c0-1.403-0.121-2.41-0.362-3.019s-0.705-0.913-1.39-0.913
		c-0.686,0-1.179,0.23-1.48,0.69c-0.302,0.461-0.453,1.152-0.453,2.073s0.154,1.656,0.461,2.204c0.307,0.549,0.861,1.25,1.661,2.105
		l2.385,2.583c1.195,1.294,2.098,2.604,2.706,3.932c0.609,1.327,0.913,2.774,0.913,4.343c0,2.709-0.455,4.71-1.365,6.004
		c-0.911,1.295-2.503,1.941-4.779,1.941s-3.86-0.721-4.754-2.163C98.409,203.309,97.962,201.206,97.962,198.442z"/>
		<path d="M114.906,206.585v-25.136h-3.389v-3.816h11.038v3.816h-3.257v25.136H114.906z"/>
		<path d="M124.99,206.585v-28.952h9.706v3.8h-5.297v8.423h5.033v3.718h-5.033v9.212h5.494v3.8h-9.903V206.585z"/>
		<path d="M144.236,192.98l-1.415-0.065v13.67h-4.408v-28.952h7.287c1.514,0,2.643,0.305,3.389,0.913s1.236,1.459,1.473,2.55
		c0.235,1.091,0.354,2.517,0.354,4.277s-0.187,3.101-0.56,4.021c-0.373,0.922-1.063,1.541-2.072,1.859
		c0.998,0.175,1.694,0.85,2.089,2.023c0.395,1.173,0.593,3.616,0.593,7.328c0,3.713,0.055,5.706,0.164,5.979h-4.408
		c-0.11-0.219-0.165-3.679-0.165-10.38c0-1.283-0.153-2.136-0.461-2.558C145.788,193.225,145.168,193.003,144.236,192.98z
		 M142.838,189.493h1.761c0.559,0,0.973-0.126,1.241-0.378s0.455-0.686,0.56-1.3s0.156-1.552,0.156-2.812v-0.182
		c0-1.567-0.132-2.593-0.395-3.076c-0.264-0.482-0.872-0.724-1.826-0.724h-1.497V189.493z"/>
		<path d="M161.048,206.585v-28.952h6.498c2.128,0,3.671,0.628,4.631,1.884s1.439,3.106,1.439,5.552l0.017,13.062
		c0,2.917-0.482,5.056-1.447,6.415c-0.966,1.36-2.562,2.04-4.787,2.04L161.048,206.585L161.048,206.585z M165.457,203.163h1.447
		c0.812,0,1.401-0.263,1.769-0.789s0.551-1.491,0.551-2.896l-0.016-14.295c0-1.503-0.185-2.571-0.552-3.208
		c-0.367-0.636-1.001-0.954-1.899-0.954h-1.3L165.457,203.163L165.457,203.163z"/>
		<path d="M177.597,206.585v-28.952h9.706v3.8h-5.297v8.423h5.033v3.718h-5.033v9.212h5.494v3.8h-9.903V206.585z"/>
		<path d="M196.844,192.98l-1.415-0.065v13.67h-4.408v-28.952h7.287c1.514,0,2.643,0.305,3.389,0.913s1.236,1.459,1.473,2.55
		c0.235,1.091,0.354,2.517,0.354,4.277s-0.187,3.101-0.56,4.021c-0.373,0.922-1.063,1.541-2.072,1.859
		c0.998,0.175,1.694,0.85,2.089,2.023c0.395,1.173,0.593,3.616,0.593,7.328c0,3.713,0.055,5.706,0.164,5.979h-4.408
		c-0.11-0.219-0.165-3.679-0.165-10.38c0-1.283-0.153-2.136-0.461-2.558C198.396,193.225,197.775,193.003,196.844,192.98z
		 M195.445,189.493h1.761c0.559,0,0.973-0.126,1.241-0.378s0.455-0.686,0.56-1.3s0.156-1.552,0.156-2.812v-0.182
		c0-1.567-0.132-2.593-0.395-3.076c-0.264-0.482-0.872-0.724-1.826-0.724h-1.497V189.493z"/>
		<path d="M66.312,240.585v-28.952h4.409v13.325l4.409-13.325h4.557l-4.803,14.279l5.182,14.673h-4.655l-4.656-13.521v13.521
		L66.312,240.585L66.312,240.585z"/>
		<path d="M88.305,240.585v-28.952h4.409v25.202h5.577v3.75H88.305z"/>
		<path d="M100.824,240.585v-28.952h9.706v3.8h-5.297v8.423h5.034v3.718h-5.034v9.212h5.494v3.8h-9.903V240.585z"/>
		<path d="M112.932,240.585l4.129-28.952h5.823l4.393,28.952h-4.113l-0.691-5.165h-4.672l-0.625,5.165H112.932z M122.012,231.883
		l-1.941-14.542h-0.065l-1.777,14.542H122.012z"/>
		<path d="M135.665,240.881c-1.82,0-3.243-0.715-4.269-2.146c-1.025-1.431-1.538-3.638-1.538-6.621V219.53
		c0-2.676,0.523-4.716,1.571-6.12c1.047-1.403,2.711-2.105,4.992-2.105c2.841,0,4.645,1.059,5.412,3.175
		c0.461,1.272,0.691,3.011,0.691,5.215v2.057h-4.112v-3.027c0-1.326-0.141-2.259-0.42-2.796s-0.806-0.807-1.579-0.807
		s-1.319,0.321-1.637,0.963s-0.478,1.779-0.478,3.413v12.552c0,1.897,0.143,3.219,0.428,3.964c0.285,0.746,0.842,1.119,1.67,1.119
		s1.415-0.4,1.761-1.201c0.345-0.8,0.518-2.149,0.518-4.047v-3.898h-2.221v-3.208h6.07v15.809h-1.975l-0.674-2.846
		c-0.23,0.977-0.735,1.744-1.514,2.303C137.585,240.602,136.686,240.881,135.665,240.881z"/>
		<path d="M157.758,239.03c-1.009,1.256-2.629,1.884-4.86,1.884c-2.232,0-3.855-0.63-4.869-1.892
		c-1.015-1.261-1.522-3.219-1.522-5.873v-21.533h4.409v21.451c0,1.524,0.071,2.451,0.214,2.78s0.314,0.628,0.518,0.896
		s0.623,0.403,1.259,0.403s1.091-0.187,1.365-0.56s0.441-0.836,0.502-1.39s0.091-1.265,0.091-2.131v-21.451h4.408v21.533
		C159.271,235.814,158.767,237.775,157.758,239.03z"/>
		<path d="M163.449,240.585v-28.952h9.706v3.8h-5.297v8.423h5.033v3.718h-5.033v9.212h5.494v3.8h-9.903V240.585z"/>
		<path d="M184.983,240.585v-23.49c-0.373,0.449-0.899,0.798-1.579,1.044c-0.681,0.247-1.35,0.37-2.007,0.37v-3.273
		c0.932-0.132,1.817-0.51,2.656-1.135s1.478-1.453,1.916-2.484h3.422v28.969h-4.408V240.585z"/>
	</g>
</svg>