<?xml version="1.0" standalone="no"?>
<!DOCTYPE svg PUBLIC "-//W3C//DTD SVG 20010904//EN"
 "http://www.w3.org/TR/2001/REC-SVG-20010904/DTD/svg10.dtd">
<svg version="1.0" xmlns="http://www.w3.org/2000/svg"
 width="1024.000000pt" height="1024.000000pt" viewBox="0 0 1024.000000 1024.000000"
 preserveAspectRatio="xMidYMid meet">

<g transform="translate(0.000000,1024.000000) scale(0.100000,-0.100000)"
fill="#000000" stroke="none">
<path d="M4830 9319 c-1056 -65 -2083 -366 -3245 -952 -121 -61 -223 -114
-226 -119 -12 -17 -71 -555 -93 -843 -41 -531 -46 -1271 -12 -1685 83 -988
330 -1766 790 -2485 113 -177 218 -319 400 -540 136 -164 485 -511 656 -651
19 -16 37 -31 40 -34 14 -15 298 -235 390 -301 362 -262 856 -544 1257 -718
136 -59 308 -123 328 -123 40 1 330 129 570 252 142 73 368 200 445 249 19 13
82 53 140 90 87 54 291 194 418 286 120 87 377 298 512 420 212 191 581 576
662 687 l19 28 -164 0 -164 0 -51 -59 c-112 -129 -416 -426 -547 -536 -38 -32
-72 -62 -75 -65 -12 -15 -177 -146 -313 -249 -398 -301 -849 -569 -1317 -784
-145 -66 -134 -65 -246 -19 -416 171 -918 452 -1314 736 -111 79 -344 259
-396 305 -22 20 -72 63 -110 96 -181 156 -465 445 -589 600 -22 28 -43 52 -46
55 -12 10 -188 248 -241 326 -67 98 -158 248 -220 364 -55 102 -158 307 -158
314 0 2 -13 33 -29 68 -148 321 -289 834 -352 1280 -48 341 -61 536 -66 1011
-7 588 14 998 79 1569 l22 197 206 100 c209 102 294 141 410 191 36 16 108 47
160 70 294 128 751 289 1060 374 1145 313 2122 327 3234 46 585 -148 1093
-341 1808 -688 180 -88 187 -92 192 -124 22 -134 61 -523 88 -868 17 -226 18
-1213 0 -1410 -89 -999 -318 -1700 -784 -2392 l-58 -88 63 -73 c35 -40 69 -83
76 -95 6 -12 16 -22 20 -22 7 0 150 209 246 360 206 324 414 825 524 1265 176
707 226 1608 145 2650 -14 191 -78 761 -92 835 -7 34 -12 37 -281 172 -907
455 -1693 723 -2498 854 -439 71 -886 97 -1273 73z"/>
<path d="M4830 8854 c-719 -51 -1392 -206 -2130 -491 -63 -24 -134 -53 -157
-64 -24 -10 -45 -19 -48 -19 -8 0 -354 -155 -490 -220 -71 -34 -151 -71 -177
-83 -26 -12 -50 -29 -52 -37 -8 -21 -43 -397 -61 -645 -17 -238 -38 -909 -31
-1000 2 -33 5 -95 5 -137 l1 -78 588 0 589 0 7 126 c3 69 11 160 17 202 59
426 286 877 604 1196 129 130 167 154 95 59 -58 -76 -122 -203 -139 -277 -7
-28 -11 -86 -10 -130 2 -80 1 -82 -52 -186 -89 -171 -177 -420 -194 -547 -5
-41 -12 -56 -33 -69 -66 -43 -176 -177 -230 -280 -53 -101 -70 -94 233 -94
146 0 265 3 265 6 0 3 -17 36 -39 72 -51 88 -120 226 -137 275 -12 35 -11 49
10 140 36 151 89 294 168 458 l70 147 162 80 c194 97 431 192 478 192 28 0
291 -207 441 -347 l48 -45 -25 -76 c-52 -158 -132 -530 -143 -665 l-6 -77 -51
-32 c-28 -17 -60 -36 -71 -43 -83 -46 -128 -80 -112 -83 10 -2 68 26 129 62
60 36 113 66 117 66 4 0 52 -29 106 -65 l100 -65 431 0 431 0 59 41 c32 23 85
61 116 85 31 24 62 44 70 44 7 0 33 -12 58 -26 86 -50 245 -132 269 -139 49
-15 14 17 -64 59 -44 23 -119 63 -166 89 l-86 47 -7 48 c-8 58 -89 383 -118
472 -11 36 -38 115 -59 177 -22 61 -39 114 -39 118 0 9 299 305 383 379 65 57
69 59 112 53 95 -13 390 -119 535 -192 63 -32 67 -37 127 -136 33 -57 81 -147
106 -199 53 -113 137 -340 137 -372 0 -33 -42 -180 -75 -263 -30 -76 -99 -218
-121 -249 -8 -11 -14 -24 -14 -28 0 -5 402 -8 894 -8 l893 0 7 46 c9 70 7 468
-4 739 -12 277 -68 980 -85 1060 -5 23 -134 91 -435 227 -445 203 -793 335
-1185 448 -419 121 -760 188 -1200 236 -133 14 -693 27 -815 18z m735 -259
c796 -70 1595 -304 2505 -733 l165 -78 7 -60 c40 -348 68 -855 68 -1236 l0
-268 -360 0 -360 0 -4 23 c-2 12 -10 67 -16 122 -35 303 -143 622 -302 895
-71 122 -67 116 -142 220 -167 231 -390 443 -643 612 -119 80 -363 207 -483
252 -176 66 -422 124 -630 147 -133 15 -468 6 -610 -16 -521 -80 -1005 -319
-1366 -672 -412 -403 -657 -887 -729 -1441 -8 -62 -15 -120 -15 -128 0 -12
-53 -14 -362 -14 l-361 0 6 388 c6 365 29 771 58 1051 l14 124 145 70 c940
448 1747 678 2635 750 127 11 628 5 780 -8z m-155 -315 c230 -29 502 -111 702
-211 115 -57 281 -160 294 -181 8 -12 5 -11 -61 23 -140 74 -392 150 -565 170
-52 7 -131 22 -175 34 -284 82 -561 92 -850 34 -92 -19 -240 -65 -283 -88 -10
-5 -73 -21 -139 -35 -188 -38 -424 -124 -561 -204 -74 -42 -56 -17 35 51 295
218 727 379 1118 417 108 10 367 5 485 -10z m-100 -161 c99 -12 190 -30 275
-54 51 -15 69 -27 118 -79 113 -120 286 -378 287 -427 0 -9 -44 -56 -97 -105
-53 -49 -154 -147 -223 -217 l-126 -128 -114 12 c-143 14 -391 6 -595 -21 -82
-11 -159 -20 -170 -20 -12 0 -56 31 -100 71 -126 113 -248 214 -326 271 -64
47 -70 54 -65 80 10 51 108 233 195 364 l86 129 80 32 c213 85 531 123 775 92z
m1285 -372 c143 -119 303 -299 411 -462 68 -102 194 -338 194 -363 0 -4 6 -19
14 -33 18 -35 60 -163 86 -264 20 -78 54 -285 47 -291 -2 -2 -26 31 -54 74
-61 91 -136 170 -215 223 -52 35 -58 44 -79 106 -55 167 -160 389 -250 526
-33 51 -39 69 -39 113 0 77 -46 211 -101 292 -16 24 -29 45 -29 48 0 3 -16 22
-35 42 -35 37 -46 60 -22 46 6 -4 39 -30 72 -57z"/>
<path d="M2484 5675 l0 -145 178 0 178 0 0 -535 0 -535 170 0 170 0 0 535 0
535 180 0 181 0 -3 143 -3 142 -525 3 -525 2 -1 -145z"/>
<path d="M3700 5140 l0 -680 470 0 470 0 0 140 0 140 -302 2 -303 3 0 125 0
125 248 3 247 2 0 145 0 145 -247 2 -248 3 0 115 0 115 298 3 297 2 0 145 0
145 -465 0 -465 0 0 -680z"/>
<path d="M4859 5816 c-2 -2 -3 -308 -1 -680 l2 -676 159 0 158 0 6 83 c3 45 6
197 6 337 0 140 1 259 1 264 0 25 29 -25 177 -307 l67 -128 120 3 120 3 38 70
c20 39 56 106 79 150 64 125 110 204 120 211 5 3 9 -133 9 -340 l0 -346 170 0
170 0 0 680 0 680 -168 0 -167 0 -62 -122 c-35 -68 -72 -139 -82 -158 -11 -19
-64 -116 -117 -215 -53 -99 -100 -184 -104 -189 -11 -11 -39 35 -145 239 -48
94 -111 213 -139 265 -28 52 -60 113 -72 135 l-20 40 -160 3 c-88 1 -162 0
-165 -2z"/>
<path d="M6530 5140 l0 -680 170 0 170 0 0 220 0 220 143 0 c253 0 397 55 501
193 85 112 92 367 16 518 -25 49 -113 127 -177 156 -99 46 -164 53 -505 53
l-318 0 0 -680z m633 374 c53 -25 77 -70 77 -142 0 -82 -19 -124 -70 -159 -40
-26 -51 -28 -171 -31 l-129 -4 0 176 0 176 130 0 c97 0 138 -4 163 -16z"/>
<path d="M3908 4214 c-125 -30 -223 -108 -275 -219 l-28 -60 -3 -273 c-2 -225
0 -283 13 -328 31 -108 95 -188 187 -235 194 -99 462 -71 599 62 108 104 122
165 117 509 -3 238 -5 259 -27 312 -47 119 -159 207 -299 237 -71 15 -214 13
-284 -5z m242 -251 c75 -48 82 -77 78 -349 -3 -215 -4 -221 -28 -256 -58 -86
-179 -100 -261 -31 -54 46 -59 71 -59 296 0 113 3 218 6 235 9 44 61 100 109
117 46 17 117 11 155 -12z"/>
<path d="M4995 4216 c-174 -43 -283 -160 -314 -337 -14 -82 -14 -402 0 -489
35 -221 205 -350 459 -350 161 0 274 42 357 133 82 90 96 139 101 355 l4 182
-229 -2 -228 -3 -3 -112 -3 -112 88 -3 88 -3 3 -33 c5 -55 -32 -117 -84 -143
-89 -43 -212 -9 -250 69 -17 33 -19 63 -19 262 0 255 7 285 71 329 41 29 117
38 167 22 47 -16 97 -73 97 -111 l0 -30 146 0 147 0 -5 49 c-3 26 -19 78 -35
114 -51 108 -131 172 -262 211 -65 19 -222 20 -296 2z"/>
<path d="M6063 4215 c-131 -36 -231 -116 -281 -222 l-27 -58 0 -295 c0 -285 1
-297 23 -352 61 -152 226 -248 425 -248 230 0 384 92 449 268 20 53 22 77 22
322 1 225 -2 274 -16 321 -37 119 -125 208 -247 250 -84 29 -269 36 -348 14z
m253 -256 c62 -38 68 -62 72 -273 5 -221 -1 -283 -31 -327 -39 -57 -71 -74
-140 -74 -73 0 -120 23 -154 75 -22 32 -23 41 -23 272 0 252 3 270 48 311 55
50 162 57 228 16z"/>
<path d="M2740 3635 l0 -575 380 0 380 0 0 120 0 120 -235 0 -235 0 0 455 0
455 -145 0 -145 0 0 -575z"/>
<path d="M7143 4190 c-113 -24 -211 -121 -228 -227 -10 -61 11 -145 51 -204
19 -28 34 -56 34 -63 0 -6 -23 -31 -50 -54 -64 -56 -96 -106 -116 -184 -64
-249 153 -449 444 -408 76 10 170 46 205 78 18 16 21 15 58 -26 l40 -43 145 3
146 3 -106 119 c-58 66 -106 125 -106 131 0 6 13 38 29 71 31 66 81 204 81
227 0 11 -18 16 -77 20 -43 3 -96 5 -118 3 l-40 -3 -18 -69 c-10 -37 -20 -70
-23 -73 -6 -7 -50 37 -97 98 l-42 54 25 16 c59 38 129 114 150 164 18 41 21
64 18 117 -8 108 -63 187 -162 231 -55 24 -175 34 -243 19z m140 -192 c32 -17
46 -39 47 -73 0 -38 -43 -106 -80 -129 -28 -16 -29 -15 -56 16 -31 38 -54 88
-54 118 0 12 13 35 29 51 32 31 75 38 114 17z m-103 -495 c13 -16 57 -65 98
-110 49 -55 72 -88 68 -98 -16 -44 -149 -59 -215 -25 -60 30 -91 122 -60 183
11 21 68 76 80 77 3 0 16 -12 29 -27z"/>
<path d="M2080 4156 c0 -6 67 -152 118 -256 66 -136 193 -355 287 -495 l80
-120 3 224 2 224 -29 46 c-17 25 -66 121 -111 214 l-82 167 -134 0 c-74 0
-134 -2 -134 -4z"/>
<path d="M7850 4103 c-13 -32 -47 -107 -77 -167 -30 -59 -53 -110 -50 -112 2
-2 38 -9 81 -15 62 -9 83 -17 104 -39 l27 -27 34 56 c42 70 171 333 171 349 0
9 -37 12 -133 12 l-133 0 -24 -57z"/>
<path d="M6840 2808 c-356 -349 -832 -700 -1335 -985 -153 -87 -384 -203 -403
-203 -23 0 -338 155 -497 245 -223 126 -555 338 -555 354 0 5 33 31 73 57 39
26 101 66 137 89 36 24 189 123 340 220 408 264 442 287 436 292 -26 27 -204
-29 -1200 -377 -65 -23 -123 -39 -130 -37 -21 9 -250 211 -436 385 l-45 42
-162 -2 c-90 -2 -163 -6 -163 -9 0 -16 383 -389 490 -476 14 -12 54 -45 90
-75 254 -212 638 -472 990 -671 201 -113 604 -307 639 -307 15 0 341 160 471
231 417 228 925 582 1235 859 205 183 435 410 435 429 0 3 -22 4 -49 3 -40 -3
-161 14 -236 33 -15 4 -45 -19 -125 -97z"/>
</g>
</svg>
