<?xml version="1.0" encoding="utf-8"?>
<!-- Generator: Adobe Illustrator 17.0.0, SVG Export Plug-In . SVG Version: 6.00 Build 0)  -->
<!DOCTYPE svg PUBLIC "-//W3C//DTD SVG 1.1//EN" "http://www.w3.org/Graphics/SVG/1.1/DTD/svg11.dtd">
<svg version="1.1" id="Layer_1" xmlns="http://www.w3.org/2000/svg" xmlns:xlink="http://www.w3.org/1999/xlink" x="0px" y="0px"
	 width="256px" height="256px" viewBox="0 0 256 256" enable-background="new 0 0 256 256" xml:space="preserve">
	<polygon fill="#FFFF00" points="128,188.6 53.1,243.2 82,155.1 6.8,100.8 99.5,101 128,12.8 156.5,101 249.2,100.8 174,155.1 
	202.9,243.2 "/>
	<path fill="#FFFFFF" stroke="#272A9B" stroke-miterlimit="10" d="M192,10.3c-17.1,0-32.4,8-42.3,20.6h-0.3v0.3
	c-7.1,9.1-11.4,20.6-11.4,33c0,29.7,24.2,53.9,53.9,53.9s53.9-24.2,53.9-53.9S221.7,10.3,192,10.3z"/>
	<path d="M192,10.3c-17.1,0-32.4,8-42.3,20.6h-0.3v0.3c-7.1,9.1-11.4,20.6-11.4,33c0,29.7,24.2,53.9,53.9,53.9s53.9-24.2,53.9-53.9
	S221.7,10.3,192,10.3z M208.6,100.9l-23.1-3L183.7,78l17.6-10.7L217,82.4L208.6,100.9z M171.2,103.3L151.9,89l-2.1-14.7l11.8-7.4
	L181.5,78l1.9,20.2L171.2,103.3z M149.1,72.2L142,57.4l9.3-15.3l9.7,2l-0.2,20.8L149.1,72.2z M188.3,19l21.3,2.9l7.3,13.6l-16.1,7.9
	l-16.5-11.5L188.3,19z M231.4,74.4l-12.6,6.7l-16.9-16.2l0.2-19.7l16-7.9L232.3,50L231.4,74.4z M233.5,74.9l1-24.5l7.1-0.9
	c1.4,4.7,2.1,9.6,2.1,14.7c0,4.6-0.6,9-1.7,13.2L233.5,74.9z M240.9,47.4l-7.1,0.9l-14.6-13.1L212,21.9l6.1-2.4
	C228.7,25.7,236.9,35.6,240.9,47.4z M178.8,14.2l7.4,4.1L182,32.1L162.3,42l-10.5-2.1l-0.2-8.1C158.5,23.4,167.9,17,178.8,14.2z
	 M149.7,40.5l-8.5,14.1c1.4-7.3,4.3-14.1,8.4-20L149.7,40.5z M140.5,59.2l7.1,14.9l2.1,14.8l-2.9,0.4c-4.1-7.4-6.5-16-6.5-25.1
	C140.3,62.5,140.4,60.8,140.5,59.2z M172.4,112.1l-0.2-6.8l12.5-5.3l23.9,3.1l4.4,8.4c-6.4,2.9-13.5,4.5-21,4.5
	C185.1,115.9,178.5,114.5,172.4,112.1z"/>
	<g>
		<path fill="none" stroke="#000000" stroke-width="3" stroke-miterlimit="10" d="M157.6,137"/>
		<path fill="#FF0000" d="M157.6,137"/>
	</g>
	<ellipse fill="#272A9B" stroke="#000000" stroke-miterlimit="10" cx="191.6" cy="65.2" rx="40.8" ry="40.6"/>
	<g>
		<path fill="#FFFFFF" d="M167.9,77.7V48.8h9.9v3.8h-5.5v7.7h5.1v3.8h-5.1v13.6H167.9z"/>
		<path fill="#FFFFFF" d="M181.2,77.7V48.8h4.4v28.9H181.2z"/>
		<path fill="#FFFFFF" d="M190.1,77.7V48.8h9.9v3.8h-5.5v7.7h5.1v3.8h-5.1v13.6H190.1z"/>
		<path fill="#FFFFFF" d="M201.5,77.7l4.1-28.9h5.8l4.4,28.9h-4.1l-0.7-5.2h-4.7l-0.6,5.2H201.5z M210.6,69.1l-1.9-14.5h-0.1
		l-1.8,14.5H210.6z"/>
	</g>
	<g>
		<path fill="#FFFFFF" d="M208.629,160.379c19.958-4.908,36.387-21.705,37.703-24.556s0.391-3.629-1.258-6.27
		c-1.65-2.642-6.11-1.916-6.11-1.916s-22.367,11.295-32.549,15.406c-10.209,4.207-49.625,5.545-55.371,7.157
		c-5.623,1.543-43.212,5.261-50.882,11.527c-0.55,2.338-3.552,8.248,3.389,6.45C110.463,166.475,175.749,168.424,208.629,160.379z"
		/>
		<g>
			<path fill="none" stroke="#000000" stroke-width="2.7336" stroke-miterlimit="10" d="M188.455,130.027
			c3.105,0.037,5.728-0.06,7.623-0.153c4.106-0.202,8.94-0.408,15.241-1.035c8.443-0.859,18.071-3.359,21.396-3.364
			c5.92-0.006,10.867,2.726,10.867,2.726c2.089,2.557-23.024,14.019-28.97,16.718c-15.578,7.067-59.419,7.894-92,13.012
			c-11.624,1.838-17.293,5.03-17.293,5.03s8.882-0.944,15.049-1.089c13.666-0.229,72.889,0.751,89.476-5.099
			c21.386-7.416,34.546-21.805,35.284-24.817c3.012,7.799-1.424,12.893-5.031,16.141s-1.781,5.628-3.26,6.461
			c-0.766,0.513-3.702-1.243-6.987,0.85s-4.852,4.355-8.741,6.382c-3.986,2.001-1.877,5.601-4.573,7.444
			c-2.599,1.869-4.069-2.903-7.743-1.645c-3.578,1.284-5.715,2.244-11.793,3.556c-5.981,1.339-3.483,5.775-5.925,6.339
			c-2.303,0.81-5.071-5.259-9.612-4.245s-23.031,8.099-29.324,10.181c-6.293,2.083-3.497,10.652-5.592,11.831
			c-1.356,0.763-4.416-3.519-7.91-4.392c-2.049-0.469-4.31,0.56-6.748,1.852c-6.408,3.608-2.762,9.508-5.434,10.526
			c-2.576,1.045-3.652-2.163-7.594-4.407c-3.845-2.217-7.846-0.532-11.28-5.334c-16.727-23.366-8.558-43.303-8.558-43.303
			c2.102-2.32,2.78-1.403,6.856,0.359s11.176,3.851,17.218,1.179c6.042-2.672,13.835-11.604,14.206-16.276
			c0.372-4.672-0.115-8.131,5.825-7.094c2.462,0.48,9.73,0.851,18.358,1.186l3.929,0.06
			C168.082,129.731,168.082,129.731,188.455,130.027z"/>
			<path fill="#FF3D00" d="M188.455,130.027c3.105,0.037,5.728-0.06,7.623-0.153c4.106-0.202,8.94-0.408,15.241-1.035
			c8.443-0.859,18.071-3.359,21.396-3.364c5.92-0.006,10.867,2.726,10.867,2.726c2.089,2.557-23.024,14.019-28.97,16.718
			c-15.578,7.067-59.419,7.894-92,13.012c-11.624,1.838-17.293,5.03-17.293,5.03s8.882-0.944,15.049-1.089
			c13.666-0.229,72.889,0.751,89.476-5.099c21.386-7.416,34.546-21.805,35.284-24.817c3.012,7.799-1.424,12.893-5.031,16.141
			s-1.781,5.628-3.26,6.461c-0.766,0.513-3.702-1.243-6.987,0.85s-4.852,4.355-8.741,6.382c-3.986,2.001-1.877,5.601-4.573,7.444
			c-2.599,1.869-4.069-2.903-7.743-1.645c-3.578,1.284-5.715,2.244-11.793,3.556c-5.981,1.339-3.483,5.775-5.925,6.339
			c-2.303,0.81-5.071-5.259-9.612-4.245s-23.031,8.099-29.324,10.181c-6.293,2.083-3.497,10.652-5.592,11.831
			c-1.356,0.763-4.416-3.519-7.91-4.392c-2.049-0.469-4.31,0.56-6.748,1.852c-6.408,3.608-2.762,9.508-5.434,10.526
			c-2.576,1.045-3.652-2.163-7.594-4.407c-3.845-2.217-7.846-0.532-11.28-5.334c-16.727-23.366-8.558-43.303-8.558-43.303
			c2.102-2.32,2.78-1.403,6.856,0.359s11.176,3.851,17.218,1.179c6.042-2.672,13.835-11.604,14.206-16.276
			c0.372-4.672-0.115-8.131,5.825-7.094c2.462,0.48,9.73,0.851,18.358,1.186l3.929,0.06
			C168.082,129.731,168.082,129.731,188.455,130.027z"/>
		</g>
		<g>
			<g>
				<g>
					<path fill="none" stroke="#1D1D1B" stroke-width="2.7336" d="M159.113,141.761c-0.193-0.054-0.385-0.108-0.578-0.162
					c-0.936-0.366-1.341-1.517-0.879-2.426l5.561-12.463c0.366-0.936,1.517-1.341,2.426-0.879c0.936,0.366,1.341,1.517,0.879,2.426
					l-5.561,12.463C160.65,141.463,159.814,141.853,159.113,141.761z"/>
				</g>
				<g>
					<path fill="none" stroke="#1D1D1B" stroke-width="2.7336" d="M168.006,140.405c-0.193-0.054-0.385-0.108-0.578-0.162
					c-0.936-0.366-1.341-1.517-0.879-2.426l4.449-9.97c0.366-0.936,1.517-1.341,2.426-0.879c0.936,0.366,1.341,1.517,0.879,2.426
					l-4.449,9.97C169.473,139.984,168.734,140.401,168.006,140.405z"/>
				</g>
				<g>
					<path fill="none" stroke="#1D1D1B" stroke-width="2.7336" d="M175.309,139.539c-0.193-0.054-0.385-0.108-0.578-0.162
					c-0.936-0.366-1.341-1.517-0.879-2.426l4.218-9.516c0.366-0.936,1.517-1.341,2.426-0.879c0.936,0.366,1.341,1.517,0.879,2.426
					l-4.218,9.516C176.846,139.242,176.01,139.631,175.309,139.539z"/>
				</g>
				<g>
					<path fill="none" stroke="#1D1D1B" stroke-width="2.7336" d="M183.813,137.347c-0.193-0.054-0.385-0.108-0.578-0.162
					c-0.936-0.366-1.341-1.517-0.879-2.426l3.363-7.574c0.366-0.936,1.517-1.341,2.426-0.879c0.936,0.366,1.341,1.517,0.879,2.426
					l-3.363,7.574C185.35,137.05,184.514,137.44,183.813,137.347z"/>
				</g>
			</g>
			<g>
				<g>
					<path fill="#FFFF00" d="M159.113,141.761c-0.193-0.054-0.385-0.108-0.578-0.162c-0.936-0.366-1.341-1.517-0.879-2.426
					l5.561-12.463c0.366-0.936,1.517-1.341,2.426-0.879c0.936,0.366,1.341,1.517,0.879,2.426l-5.561,12.463
					C160.65,141.463,159.814,141.853,159.113,141.761z"/>
				</g>
				<g>
					<path fill="#FFFF00" d="M168.006,140.405c-0.193-0.054-0.385-0.108-0.578-0.162c-0.936-0.366-1.341-1.517-0.879-2.426
					l4.449-9.97c0.366-0.936,1.517-1.341,2.426-0.879c0.936,0.366,1.341,1.517,0.879,2.426l-4.449,9.97
					C169.473,139.984,168.734,140.401,168.006,140.405z"/>
				</g>
				<g>
					<path fill="#FFFF00" d="M175.309,139.539c-0.193-0.054-0.385-0.108-0.578-0.162c-0.936-0.366-1.341-1.517-0.879-2.426
					l4.218-9.516c0.366-0.936,1.517-1.341,2.426-0.879c0.936,0.366,1.341,1.517,0.879,2.426l-4.218,9.516
					C176.846,139.242,176.01,139.631,175.309,139.539z"/>
				</g>
				<g>
					<path fill="#FFFF00" d="M183.813,137.347c-0.193-0.054-0.385-0.108-0.578-0.162c-0.936-0.366-1.341-1.517-0.879-2.426
					l3.363-7.574c0.366-0.936,1.517-1.341,2.426-0.879c0.936,0.366,1.341,1.517,0.879,2.426l-3.363,7.574
					C185.35,137.05,184.514,137.44,183.813,137.347z"/>
				</g>
			</g>
		</g>
	</g>
	<text transform="matrix(1 0 0 1 20.3333 129.8333)" font-family="'Antonio-Bold'" font-size="20">THE BEST</text>
	<text transform="matrix(1 0 0 1 20.3333 153.8333)" font-family="'Antonio-Bold'" font-size="20">SPIELER</text>
</svg>