<?xml version="1.0" encoding="utf-8"?>
<!-- Generator: Adobe Illustrator 17.0.0, SVG Export Plug-In . SVG Version: 6.00 Build 0)  -->
<!DOCTYPE svg PUBLIC "-//W3C//DTD SVG 1.1//EN" "http://www.w3.org/Graphics/SVG/1.1/DTD/svg11.dtd">
<svg version="1.1" id="Layer_1" xmlns="http://www.w3.org/2000/svg" xmlns:xlink="http://www.w3.org/1999/xlink" x="0px" y="0px"
	 width="256px" height="256px" viewBox="0 0 256 256" enable-background="new 0 0 256 256" xml:space="preserve">
<polygon fill="#FFFF00" points="128,188.6 53.1,243.2 82,155.1 6.8,100.8 99.5,101 128,12.8 156.5,101 249.2,100.8 174,155.1 
	202.9,243.2 "/>
<path fill="#FFFFFF" d="M192,10.3c-17.1,0-32.4,8-42.3,20.6h-0.3v0.3c-7.1,9.1-11.4,20.6-11.4,33c0,29.7,24.2,53.9,53.9,53.9
	s53.9-24.2,53.9-53.9S221.7,10.3,192,10.3z"/>
<path d="M192,10.3c-17.1,0-32.4,8-42.3,20.6h-0.3v0.3c-7.1,9.1-11.4,20.6-11.4,33c0,29.7,24.2,53.9,53.9,53.9s53.9-24.2,53.9-53.9
	S221.7,10.3,192,10.3z M208.6,100.9l-23.1-3L183.7,78l17.6-10.7L217,82.4L208.6,100.9z M171.2,103.3L151.9,89l-2.1-14.7l11.8-7.4
	L181.5,78l1.9,20.2L171.2,103.3z M149.1,72.2L142,57.4l9.3-15.3l9.7,2l-0.2,20.8L149.1,72.2z M188.3,19l21.3,2.9l7.3,13.6l-16.1,7.9
	l-16.5-11.5L188.3,19z M231.4,74.4l-12.6,6.7l-16.9-16.2l0.2-19.7l16-7.9L232.3,50L231.4,74.4z M233.5,74.9l1-24.5l7.1-0.9
	c1.4,4.7,2.1,9.6,2.1,14.7c0,4.6-0.6,9-1.7,13.2L233.5,74.9z M240.9,47.4l-7.1,0.9l-14.6-13.1L212,21.9l6.1-2.4
	C228.7,25.7,236.9,35.6,240.9,47.4z M178.8,14.2l7.4,4.1L182,32.1L162.3,42l-10.5-2.1l-0.2-8.1C158.5,23.4,167.9,17,178.8,14.2z
	 M149.7,40.5l-8.5,14.1c1.4-7.3,4.3-14.1,8.4-20L149.7,40.5z M140.5,59.2l7.1,14.9l2.1,14.8l-2.9,0.4c-4.1-7.4-6.5-16-6.5-25.1
	C140.3,62.5,140.4,60.8,140.5,59.2z M172.4,112.1l-0.2-6.8l12.5-5.3l23.9,3.1l4.4,8.4c-6.4,2.9-13.5,4.5-21,4.5
	C185.1,115.9,178.5,114.5,172.4,112.1z"/>
<g>
	<path fill="none" stroke="#000000" stroke-width="3" stroke-miterlimit="10" d="M157.6,137"/>
	<path fill="#FF0000" d="M157.6,137"/>
</g>
<g>
	<ellipse fill="#272A9B" stroke="#000000" stroke-miterlimit="10" cx="191.6" cy="65.2" rx="40.8" ry="40.6"/>
	<g>
		<path fill="#FFFFFF" d="M167.9,78.3V49.4h9.9v3.8h-5.5v7.7h5.1v3.8h-5.1v13.6H167.9z"/>
		<path fill="#FFFFFF" d="M181.2,78.3V49.4h4.4v28.9H181.2z"/>
		<path fill="#FFFFFF" d="M190.1,78.3V49.4h9.9v3.8h-5.5v7.7h5.1v3.8h-5.1v13.6H190.1z"/>
		<path fill="#FFFFFF" d="M201.5,78.3l4.1-28.9h5.8l4.4,28.9h-4.1l-0.7-5.2h-4.7l-0.6,5.2H201.5z M210.6,69.6l-1.9-14.5h-0.1
			l-1.8,14.5H210.6z"/>
	</g>
</g>
<g>
	<path fill="#FFFFFF" stroke="#000000" stroke-miterlimit="10" d="M195.2,250.5L195.2,250.5c-1.7-1-3.3-0.5-4.9-0.8
		c-17.4-3.6-21.3-14.7-21.5-15.2c-0.2-0.6-0.2-1.2-0.1-1.8l4.1-23.6c-4.4-3.8-17.2-14.9-20.8-17.6c-6.6-5.1-3.8-9.7-1.4-13.7
		c0.2-0.4,0.5-0.7,0.7-1.1c1.8-3,4.8-4.6,8.2-4.2c2.8,0.3,5,1.9,5.4,2.2c0.1,0.1,0.2,0.1,0.3,0.2c0.3,0.2,2.3,1.8,8.8,5.4
		c0.9,0.5,1.4,0.6,1.6,0.7c0.2-0.5,0.4-1.6,0.4-2.3v-0.1c0-0.3-0.6-32.9-1.5-41c-0.4-3,0.6-5.9,2.6-7.9c2.2-2.2,5.5-3.3,8.8-2.9
		c4.5,0.5,7.8,3.8,8.4,8.2c1.3-4.6,4.2-8.7,11.4-8.3c0.2,0,0.4,0,0.7,0.1c3.8,0.4,6.8,2.7,8.7,6.4c2-1.2,4.5-2.1,7.3-1.8
		c0.3,0,0.6,0.1,0.8,0.1c4.6,0.9,8.3,6.1,9.3,11.9c3.8,0.5,7.8,3.3,9.3,5.7c0.8,1.2,0.9,2.3,0.8,3.2c1.2,37.5-15.6,63.1-17.6,65.9
		c-2,4.2-4.5,18.4-5.7,26.5c-0.1,1.1-0.8,2-1.7,2.6C214.3,249,206.3,252.5,195.2,250.5z"/>
</g>
<g>
	<path fill="#FFFFFF" d="M222.5,179.3c-0.1,0-0.1,0-0.2,0c-2-0.3-3.3-2.2-2.9-4.2l5.5-31c0.3-2,2.2-3.3,4.2-2.9
		c2,0.3,3.3,2.2,2.9,4.2l-5.5,31C226.1,178.3,224.4,179.5,222.5,179.3z"/>
</g>
<g>
	<path fill="#FFFFFF" d="M209.2,174.2c-2-0.2-3.4-2-3.2-3.9l3.4-31.2c0.2-2,2-3.3,3.9-3.1l0,0c2,0.2,3.4,1.9,3.2,3.8l-3.4,31.3
		C213,173.1,211.2,174.4,209.2,174.2C209.3,174.2,209.2,174.2,209.2,174.2z"/>
</g>
<path fill="#36F055" d="M175.9,232.9c1.1,2,4.9,7.5,15.9,9.8c1.4,0.3,2.9,0.5,4.3,0.7c8.1,0.9,13.7-0.7,16.1-1.6
	c0.9-5.8,3.4-21.7,6.2-27.1c0.1-0.1,0.2-0.3,0.3-0.4c0.2-0.2,17.6-25.3,16.5-61.7c-0.7-0.7-2.5-1.8-3.8-2c-1,1.1-2.6,1.4-4,0.9
	c-1.6-0.6-2.5-2.3-2.2-3.9c0.7-4.2-2-8.6-3.6-8.9c-0.1,0-0.1,0-0.2,0c-2-0.2-4.7,2.1-5.5,3.1c-0.9,1.1-2.4,1.6-3.8,1.1
	c-1.4-0.4-2.4-1.7-2.5-3.1c0,0-0.6-5.4-4-5.8c-0.1,0-0.2,0-0.3,0c-2.3-0.1-4-0.2-4.6,6.9c-0.7,8.4-3.1,28.7-3.2,29.6
	c-0.2,1.8-1.8,3.2-3.6,3.2s-3.4-1.4-3.5-3.2c-0.1-1.1-2.9-28.2-3.1-34c0-0.6-0.1-2.1-2.1-2.3c-1.1-0.1-2.2,0.2-2.9,0.9
	c-0.3,0.3-0.7,0.9-0.6,2c1,8.4,1.5,39.8,1.5,41.6c0,1,0,5.4-2.8,8c-1.5,1.4-3.4,2-5.5,1.7c-1.4-0.2-2.8-0.7-4.4-1.5
	c-6.7-3.7-9.2-5.6-10-6.2c-0.3-0.2-1.1-0.7-1.9-0.7c-0.4,0-0.7-0.1-1.2,0.7c-0.3,0.4-0.5,0.8-0.7,1.2c-0.7,1.1-1.5,2.5-1.7,3
	c0.1,0.2,0.5,0.6,1.3,1.2c4.5,3.4,21.9,18.5,22.7,19.2c0.9,0.8,1.4,2.1,1.2,3.3L175.9,232.9z"/>
<g>
	<path fill="#FFFFFF" d="M195.1,215.3c-7.9-0.9-15.4-2.5-19.1-5.4c-0.9-0.7-1.1-2.1-0.4-3c0.7-0.9,2.1-1.1,3-0.4
		c5.8,4.6,26.5,5.6,37.7,5.6c-0.7-1-1.5-2.2-2.4-3.3c-4.3-5.7-6.9-7.3-8.1-7.7c-0.6-0.2-1.3-0.5-2.1-0.8
		c-6.6-2.4-16.5-6.1-15.6-14.3c0.3-2.3,1.3-4.3,3.1-5.5c3.9-2.8,9.7-1.7,10.4-1.5h0.1l31.4,7.8c1.2,0.3,1.9,1.5,1.6,2.6
		c-0.3,1.2-1.5,1.9-2.6,1.6l-31.3-7.8c-1.3-0.3-5-0.6-7,0.8c-0.8,0.6-1.2,1.4-1.4,2.5c-0.6,4.8,7.5,7.8,12.8,9.8
		c0.8,0.3,1.5,0.5,2.1,0.8c6.4,2.5,13.9,14.7,14.7,16.1c0.4,0.7,0.4,1.5,0,2.2s-1.1,1.1-1.8,1.1
		C218.3,216.5,206.4,216.6,195.1,215.3z"/>
</g>
<g>
	<path fill="#FFFFFF" d="M192.9,239.8c-7.5-0.9-15.4-2.7-21.7-6.4c-1-0.6-1.4-1.9-0.8-2.9c0.6-1,1.9-1.4,2.9-0.8
		c14.9,8.8,41.9,6.1,42.2,6c1.2-0.1,2.2,0.7,2.4,1.9c0.1,1.2-0.7,2.2-1.9,2.4C215.3,240.1,204.7,241.1,192.9,239.8z"/>
</g>
<g>
	<circle fill="#FFFF00" cx="193.1" cy="225.7" r="5.1"/>
</g>
<g>
	<path fill="#FFFFFF" d="M191.5,239.5c-7.6-0.9-13.1-7.8-12.2-15.4c0.9-7.9,8.1-14,15.5-13.2c1.2,0.1,2,1.2,1.9,2.4s-1.2,2-2.4,1.9
		c-5-0.6-10.1,3.9-10.7,9.4c-0.6,5.2,3.2,10,8.4,10.6c1.2,0.1,2,1.2,1.9,2.4C193.8,238.8,192.7,239.6,191.5,239.5z"/>
</g>
<path fill="none" stroke="#FFFFFF" stroke-width="5" stroke-linecap="round" stroke-miterlimit="10" d="M207.3,173.5
	c0,0,4.5-17.4,5.2-36.4"/>
<path fill="none" stroke="#FFFFFF" stroke-width="5" stroke-linecap="round" stroke-miterlimit="10" d="M223.3,177.8
	c0,0,4.5-17.4,5.2-36.4"/>
<g>
	<path d="M29.531,139.585v-25.136h-3.389v-3.816H37.18v3.816h-3.257v25.136H29.531z"/>
	<path d="M39.615,139.585v-28.952h4.409v11.713h3.948v-11.713h4.409v28.952h-4.409v-13.456h-3.948v13.456H39.615z"/>
	<path d="M56.723,139.585v-28.952h9.706v3.8h-5.297v8.423h5.034v3.718h-5.034v9.212h5.494v3.8h-9.903V139.585z"/>
	<path d="M88.571,118.068c0,3.114-0.845,5.028-2.534,5.741c2.062,0.69,3.093,2.967,3.093,6.827v0.74
		c-0.022,2.906-0.529,5-1.521,6.283c-0.993,1.283-2.613,1.925-4.861,1.925h-6.399v-28.952h6.268c2.16,0,3.69,0.502,4.589,1.505
		c0.899,1.004,1.354,2.685,1.366,5.042L88.571,118.068L88.571,118.068z M80.757,122.346h1.628c0.757,0,1.253-0.241,1.489-0.724
		s0.354-1.476,0.354-2.978V116.9c-0.011-1.118-0.164-1.867-0.46-2.245c-0.296-0.379-0.806-0.567-1.53-0.567h-1.48L80.757,122.346
		L80.757,122.346z M80.757,136.163h1.562c0.877,0,1.492-0.301,1.843-0.904c0.351-0.603,0.526-1.684,0.526-3.24v-2.336
		c0-1.47-0.143-2.509-0.428-3.118c-0.285-0.608-0.833-0.912-1.645-0.912h-1.859L80.757,136.163L80.757,136.163z"/>
	<path d="M92.568,139.585v-28.952h9.706v3.8h-5.297v8.423h5.034v3.718h-5.034v9.212h5.494v3.8h-9.903V139.585z"/>
	<path d="M105.416,131.442v-2.583h4.178v2.912c0,1.612,0.137,2.744,0.411,3.396c0.274,0.653,0.79,0.979,1.546,0.979
		c0.757,0,1.259-0.269,1.505-0.807c0.247-0.537,0.37-1.414,0.37-2.632c0-1.217-0.22-2.278-0.658-3.183
		c-0.438-0.905-1.135-1.852-2.089-2.838l-2.139-2.204c-0.998-1.042-1.774-2.122-2.328-3.241c-0.554-1.118-0.831-2.412-0.831-3.882
		c0-2.391,0.46-4.168,1.382-5.33c0.921-1.162,2.505-1.744,4.754-1.744c2.248,0,3.77,0.678,4.565,2.032
		c0.795,1.354,1.192,3.331,1.192,5.93v1.793h-4.063v-2.072c0-1.403-0.121-2.41-0.362-3.019s-0.705-0.913-1.39-0.913
		c-0.686,0-1.179,0.23-1.48,0.69c-0.302,0.461-0.453,1.152-0.453,2.073s0.154,1.656,0.461,2.204c0.307,0.549,0.861,1.25,1.661,2.105
		l2.385,2.583c1.195,1.294,2.098,2.604,2.706,3.932c0.609,1.327,0.913,2.774,0.913,4.343c0,2.709-0.455,4.71-1.365,6.004
		c-0.911,1.295-2.503,1.941-4.779,1.941s-3.86-0.721-4.754-2.163C105.862,136.309,105.416,134.206,105.416,131.442z"/>
	<path d="M122.359,139.585v-25.136h-3.389v-3.816h11.038v3.816h-3.257v25.136H122.359z"/>
	<path d="M21.676,177.585v-25.136h-3.389v-3.816h11.038v3.816h-3.257v25.136H21.676z"/>
	<path d="M42.683,175.825c-1.009,1.393-2.624,2.089-4.844,2.089c-2.221,0-3.85-0.699-4.886-2.098
		c-1.037-1.397-1.555-3.506-1.555-6.324v-13.243c0-5.308,2.166-7.962,6.498-7.962c2.237,0,3.847,0.675,4.828,2.023
		c0.981,1.35,1.473,3.329,1.473,5.938v13.243C44.196,172.321,43.691,174.433,42.683,175.825z M36.226,173.095
		c0.257,0.669,0.787,1.003,1.587,1.003c0.8,0,1.327-0.343,1.579-1.028s0.378-1.861,0.378-3.528v-13.489
		c0-1.371-0.129-2.371-0.387-3.002s-0.762-0.946-1.513-0.946s-1.278,0.315-1.579,0.946c-0.302,0.631-0.453,1.626-0.453,2.985v13.506
		C35.839,171.241,35.968,172.426,36.226,173.095z"/>
	<path d="M54.017,163.98l-1.415-0.065v13.67h-4.409v-28.952h7.288c1.513,0,2.643,0.305,3.389,0.913s1.236,1.459,1.472,2.55
		s0.354,2.517,0.354,4.277s-0.187,3.101-0.559,4.021c-0.373,0.922-1.064,1.541-2.073,1.859c0.998,0.175,1.694,0.85,2.089,2.023
		c0.395,1.173,0.592,3.616,0.592,7.328c0,3.713,0.055,5.706,0.164,5.979h-4.408c-0.11-0.219-0.165-3.679-0.165-10.38
		c0-1.283-0.154-2.136-0.461-2.558C55.568,164.225,54.949,164.003,54.017,163.98z M52.619,160.493h1.76
		c0.559,0,0.973-0.126,1.242-0.378s0.455-0.686,0.56-1.3c0.104-0.614,0.156-1.552,0.156-2.812v-0.182
		c0-1.567-0.132-2.593-0.395-3.076c-0.263-0.482-0.872-0.724-1.826-0.724h-1.497C52.619,152.021,52.619,160.493,52.619,160.493z"/>
	<path d="M64.808,177.585v-28.952h4.409v11.713h3.948v-11.713h4.409v28.952h-4.409v-13.456h-3.948v13.456H64.808z"/>
	<path d="M93.004,176.03c-1.009,1.256-2.629,1.884-4.861,1.884s-3.855-0.63-4.869-1.892c-1.015-1.261-1.522-3.219-1.522-5.873
		v-21.533h4.409v21.451c0,1.524,0.071,2.451,0.214,2.78s0.315,0.628,0.518,0.896s0.623,0.403,1.259,0.403s1.091-0.187,1.365-0.56
		c0.274-0.373,0.441-0.836,0.501-1.39c0.061-0.554,0.091-1.265,0.091-2.131v-21.451h4.409v21.533
		C94.518,172.814,94.013,174.775,93.004,176.03z M81.917,146.659v-3.718h4.639v3.718H81.917z M89.878,146.659v-3.718h4.639v3.718
		H89.878z"/>
	<path d="M100.176,177.585v-25.136h-3.389v-3.816h11.038v3.816h-3.257v25.136H100.176z"/>
	<path d="M110.26,177.585v-28.952h9.706v3.8h-5.297v8.423h5.034v3.718h-5.034v9.212h5.494v3.8h-9.903V177.585z"/>
	<path d="M129.507,163.98l-1.415-0.065v13.67h-4.409v-28.952h7.287c1.514,0,2.643,0.305,3.389,0.913s1.236,1.459,1.473,2.55
		c0.235,1.091,0.354,2.517,0.354,4.277s-0.187,3.101-0.56,4.021c-0.373,0.922-1.063,1.541-2.072,1.859
		c0.998,0.175,1.694,0.85,2.089,2.023c0.395,1.173,0.593,3.616,0.593,7.328c0,3.713,0.055,5.706,0.164,5.979h-4.408
		c-0.11-0.219-0.165-3.679-0.165-10.38c0-1.283-0.153-2.136-0.461-2.558C131.059,164.225,130.438,164.003,129.507,163.98z
		 M128.109,160.493h1.76c0.559,0,0.973-0.126,1.241-0.378s0.455-0.686,0.56-1.3s0.156-1.552,0.156-2.812v-0.182
		c0-1.567-0.132-2.593-0.395-3.076c-0.264-0.482-0.872-0.724-1.826-0.724h-1.497v8.472H128.109z"/>
</g>
</svg>
