<?xml version="1.0" encoding="utf-8"?>
<!-- Generator: Adobe Illustrator 17.0.0, SVG Export Plug-In . SVG Version: 6.00 Build 0)  -->
<!DOCTYPE svg PUBLIC "-//W3C//DTD SVG 1.1//EN" "http://www.w3.org/Graphics/SVG/1.1/DTD/svg11.dtd">
<svg version="1.1" id="Layer_1" xmlns="http://www.w3.org/2000/svg" xmlns:xlink="http://www.w3.org/1999/xlink" x="0px" y="0px"
	 width="256px" height="256px" viewBox="0 0 256 256" enable-background="new 0 0 256 256" xml:space="preserve">
<polygon fill="#FFFF00" points="128,188.6 53.1,243.2 82,155.1 6.8,100.8 99.5,101 128,12.8 156.5,101 249.2,100.8 174,155.1 
	202.9,243.2 "/>
<path fill="#FFFFFF" d="M192,10.3c-17.1,0-32.4,8-42.3,20.6h-0.3v0.3c-7.1,9.1-11.4,20.6-11.4,33c0,29.7,24.2,53.9,53.9,53.9
	s53.9-24.2,53.9-53.9S221.7,10.3,192,10.3z"/>
<path d="M192,10.3c-17.1,0-32.4,8-42.3,20.6h-0.3v0.3c-7.1,9.1-11.4,20.6-11.4,33c0,29.7,24.2,53.9,53.9,53.9s53.9-24.2,53.9-53.9
	S221.7,10.3,192,10.3z M208.6,100.9l-23.1-3L183.7,78l17.6-10.7L217,82.4L208.6,100.9z M171.2,103.3L151.9,89l-2.1-14.7l11.8-7.4
	L181.5,78l1.9,20.2L171.2,103.3z M149.1,72.2L142,57.4l9.3-15.3l9.7,2l-0.2,20.8L149.1,72.2z M188.3,19l21.3,2.9l7.3,13.6l-16.1,7.9
	l-16.5-11.5L188.3,19z M231.4,74.4l-12.6,6.7l-16.9-16.2l0.2-19.7l16-7.9L232.3,50L231.4,74.4z M233.5,74.9l1-24.5l7.1-0.9
	c1.4,4.7,2.1,9.6,2.1,14.7c0,4.6-0.6,9-1.7,13.2L233.5,74.9z M240.9,47.4l-7.1,0.9l-14.6-13.1L212,21.9l6.1-2.4
	C228.7,25.7,236.9,35.6,240.9,47.4z M178.8,14.2l7.4,4.1L182,32.1L162.3,42l-10.5-2.1l-0.2-8.1C158.5,23.4,167.9,17,178.8,14.2z
	 M149.7,40.5l-8.5,14.1c1.4-7.3,4.3-14.1,8.4-20L149.7,40.5z M140.5,59.2l7.1,14.9l2.1,14.8l-2.9,0.4c-4.1-7.4-6.5-16-6.5-25.1
	C140.3,62.5,140.4,60.8,140.5,59.2z M172.4,112.1l-0.2-6.8l12.5-5.3l23.9,3.1l4.4,8.4c-6.4,2.9-13.5,4.5-21,4.5
	C185.1,115.9,178.5,114.5,172.4,112.1z"/>
<g>
	<path fill="none" stroke="#000000" stroke-width="3" stroke-miterlimit="10" d="M157.6,137"/>
	<path fill="#FF0000" d="M157.6,137"/>
</g>
<g>
	<path fill="#FFFFFF" d="M211.758,170.368c20.419-9.644,34.373-31.289,35.239-34.595s-0.42-4.078-2.687-6.559
		c-2.266-2.481-7.007-0.685-7.007-0.685s-21.571,17.001-31.64,23.669c-10.159,6.777-52.348,16.856-58.08,19.759
		c-5.733,2.903-45.398,15.034-52.168,23.472c-0.022,2.717-2.031,9.559,4.964,6.224C107.374,198.318,178.094,186.103,211.758,170.368
		z"/>
	<g>
		<path fill="none" stroke="#000000" stroke-width="3" stroke-miterlimit="10" d="M183.413,142.126
			c3.351-0.647,6.096-1.332,8.164-1.746c4.415-1.058,9.505-2.387,16.236-4.388c8.868-2.724,18.724-7.559,22.363-8.337
			c6.394-1.363,12.32,0.54,12.32,0.54c2.853,2.32-21.661,20.026-27.548,24.353c-15.151,11.011-62.135,21.383-96.117,34.034
			c-12.106,4.465-17.455,9.138-17.455,9.138s9.344-2.974,15.937-4.357c14.647-3.219,78.562-15.134,95.15-24.886
			c21.415-12.662,32.394-30.984,32.553-34.318c4.919,7.736,1.257,14.146-1.914,18.494c-3.181,4.249-0.736,6.51-2.027,7.648
			c-0.724,0.778-4.28-0.564-7.386,2.47c-3.105,3.034-4.242,5.665-8.043,8.771c-3.812,3.007-0.846,6.421-3.286,9.085
			c-2.45,2.565-5.052-2.194-8.657-0.113c-3.595,2.18-5.661,3.599-11.911,6.355c-6.151,2.745-2.496,6.993-4.891,8.144
			c-2.275,1.34-6.502-4.557-11.212-2.464c-4.71,2.094-23.013,13.732-29.281,17.293c-6.367,3.572-1.455,12.214-3.48,14.031
			c-1.29,1.138-5.521-2.849-9.462-3.046c-2.319-0.063-4.573,1.477-6.885,3.424c-6.193,5.263-0.892,10.849-3.534,12.528
			s-4.482-1.549-9.064-3.087c-4.582-1.538-8.524,1.18-13.314-3.353c-23.031-21.552-18.683-44.72-18.683-44.72
			c1.713-2.891,2.69-2.187,7.43-1.067c4.73,1.02,12.851,1.792,18.849-2.445c5.898-4.227,12.271-15.54,11.749-20.613
			c-0.523-5.073-1.907-8.751,4.709-8.93c2.706-0.078,10.733-1.207,20.022-2.767l4.247-0.739
			C161.416,146.202,161.416,146.202,183.413,142.126z"/>
		<path fill="#9AC900" d="M183.413,142.126c3.351-0.647,6.096-1.332,8.164-1.746c4.415-1.058,9.505-2.387,16.236-4.388
			c8.868-2.724,18.724-7.559,22.363-8.337c6.394-1.363,12.32,0.54,12.32,0.54c2.853,2.32-21.661,20.026-27.548,24.353
			c-15.151,11.011-62.135,21.383-96.117,34.034c-12.106,4.465-17.455,9.138-17.455,9.138s9.344-2.974,15.937-4.357
			c14.647-3.219,78.562-15.134,95.15-24.886c21.415-12.662,32.394-30.984,32.553-34.318c4.919,7.736,1.257,14.146-1.914,18.494
			c-3.181,4.249-0.736,6.51-2.027,7.648c-0.724,0.778-4.28-0.564-7.386,2.47c-3.105,3.034-4.242,5.665-8.043,8.771
			c-3.812,3.007-0.846,6.421-3.286,9.085c-2.45,2.565-5.052-2.194-8.657-0.113c-3.595,2.18-5.661,3.599-11.911,6.355
			c-6.151,2.745-2.496,6.993-4.891,8.144c-2.275,1.34-6.502-4.557-11.212-2.464c-4.71,2.094-23.013,13.732-29.281,17.293
			c-6.367,3.572-1.455,12.214-3.48,14.031c-1.29,1.138-5.521-2.849-9.462-3.046c-2.319-0.063-4.573,1.477-6.885,3.424
			c-6.193,5.263-0.892,10.849-3.534,12.528s-4.482-1.549-9.064-3.087c-4.582-1.538-8.524,1.18-13.314-3.353
			c-23.031-21.552-18.683-44.72-18.683-44.72c1.713-2.891,2.69-2.187,7.43-1.067c4.73,1.02,12.851,1.792,18.849-2.445
			c5.898-4.227,12.271-15.54,11.749-20.613c-0.523-5.073-1.907-8.751,4.709-8.93c2.706-0.078,10.733-1.207,20.022-2.767l4.247-0.739
			C161.416,146.202,161.416,146.202,183.413,142.126z"/>
	</g>
	<g>
		<g>
			<g>
				<path fill="none" stroke="#1D1D1B" stroke-width="3" d="M154.406,161.1c-0.199,0.021-0.398,0.041-0.607-0.038
					c-1.036-0.295-1.745-1.328-1.549-2.354l3.319-14.617c0.295-1.036,1.328-1.745,2.354-1.549c1.036,0.295,1.745,1.328,1.549,2.354
					l-3.319,14.617C155.946,160.438,155.202,161.018,154.406,161.1z"/>
			</g>
			<g>
				<path fill="none" stroke="#1D1D1B" stroke-width="3" d="M163.6,157.639c-0.199,0.021-0.398,0.041-0.607-0.038
					c-1.036-0.295-1.745-1.328-1.549-2.354l2.611-11.73c0.295-1.036,1.328-1.745,2.354-1.549c1.036,0.295,1.745,1.328,1.549,2.354
					l-2.611,11.73C165.14,156.977,164.395,157.557,163.6,157.639z"/>
			</g>
			<g>
				<path fill="none" stroke="#1D1D1B" stroke-width="3" d="M171.294,155.237c-0.199,0.021-0.398,0.041-0.607-0.038
					c-1.036-0.295-1.745-1.328-1.549-2.354l2.474-11.112c0.295-1.036,1.328-1.745,2.354-1.549c1.036,0.295,1.745,1.328,1.549,2.354
					l-2.474,11.112C172.834,154.576,172.09,155.155,171.294,155.237z"/>
			</g>
			<g>
				<path fill="none" stroke="#1D1D1B" stroke-width="3" d="M180.008,151.022c-0.199,0.021-0.398,0.041-0.607-0.038
					c-1.036-0.295-1.745-1.328-1.549-2.354l2.003-8.852c0.295-1.036,1.328-1.745,2.354-1.549c1.036,0.295,1.745,1.328,1.549,2.354
					l-2.003,8.852C181.548,150.36,180.803,150.94,180.008,151.022z"/>
			</g>
		</g>
		<g>
			<g>
				<path fill="#FFFF00" d="M154.406,161.1c-0.199,0.021-0.398,0.041-0.607-0.038c-1.036-0.295-1.745-1.328-1.549-2.354
					l3.319-14.617c0.295-1.036,1.328-1.745,2.354-1.549c1.036,0.295,1.745,1.328,1.549,2.354l-3.319,14.617
					C155.946,160.438,155.202,161.018,154.406,161.1z"/>
			</g>
			<g>
				<path fill="#FFFF00" d="M163.6,157.639c-0.199,0.021-0.398,0.041-0.607-0.038c-1.036-0.295-1.745-1.328-1.549-2.354l2.611-11.73
					c0.295-1.036,1.328-1.745,2.354-1.549c1.036,0.295,1.745,1.328,1.549,2.354l-2.611,11.73
					C165.14,156.977,164.395,157.557,163.6,157.639z"/>
			</g>
			<g>
				<path fill="#FFFF00" d="M171.294,155.237c-0.199,0.021-0.398,0.041-0.607-0.038c-1.036-0.295-1.745-1.328-1.549-2.354
					l2.474-11.112c0.295-1.036,1.328-1.745,2.354-1.549c1.036,0.295,1.745,1.328,1.549,2.354l-2.474,11.112
					C172.834,154.576,172.09,155.155,171.294,155.237z"/>
			</g>
			<g>
				<path fill="#FFFF00" d="M180.008,151.022c-0.199,0.021-0.398,0.041-0.607-0.038c-1.036-0.295-1.745-1.328-1.549-2.354
					l2.003-8.852c0.295-1.036,1.328-1.745,2.354-1.549c1.036,0.295,1.745,1.328,1.549,2.354l-2.003,8.852
					C181.548,150.36,180.803,150.94,180.008,151.022z"/>
			</g>
		</g>
	</g>
</g>
<g>
	<g>
		<circle fill="#F0F0F0" cx="191.4" cy="65.4" r="40.6"/>
		<g>
			<path fill="#D80027" d="M187.8,65.4c0,0-25.1,28.7-25.2,28.7c7.3,7.3,17.5,11.9,28.7,11.9c22.4,0,40.6-18.2,40.6-40.6
				C231.9,65.4,187.8,65.4,187.8,65.4z"/>
		</g>
		<path fill="#0052B4" d="M162.7,36.7c-15.8,15.8-15.8,41.5,0,57.4c6.5-6.5,12.8-12.8,28.7-28.7L162.7,36.7z"/>
	</g>
	<ellipse fill="none" stroke="#000000" stroke-width="1.4754" stroke-miterlimit="10" cx="191.6" cy="65.2" rx="40.8" ry="40.6"/>
</g>
<g>
	<path d="M18.501,125.833v-14.922H16.49v-2.266h6.553v2.266h-1.934v14.922H18.501z"/>
	<path d="M24.146,121v-1.533h2.48v1.729c0,0.957,0.082,1.629,0.244,2.017s0.469,0.581,0.918,0.581s0.747-0.16,0.894-0.479
		s0.22-0.84,0.22-1.562s-0.13-1.353-0.391-1.89s-0.674-1.099-1.24-1.685l-1.27-1.309c-0.592-0.619-1.053-1.26-1.382-1.924
		s-0.493-1.432-0.493-2.305c0-1.419,0.273-2.474,0.82-3.164s1.488-1.035,2.822-1.035s2.238,0.402,2.71,1.206
		s0.708,1.978,0.708,3.521v1.064h-2.412v-1.23c0-0.833-0.072-1.431-0.215-1.792s-0.418-0.542-0.825-0.542s-0.7,0.137-0.879,0.41
		s-0.269,0.684-0.269,1.23s0.091,0.983,0.273,1.309s0.511,0.742,0.986,1.25l1.416,1.533c0.709,0.768,1.245,1.546,1.606,2.334
		s0.542,1.647,0.542,2.578c0,1.608-0.27,2.796-0.811,3.564s-1.486,1.152-2.837,1.152s-2.292-0.428-2.822-1.284
		S24.146,122.64,24.146,121z"/>
	<path d="M39.693,124.833c-0.592,0.797-1.523,1.196-2.793,1.196s-2.218-0.425-2.847-1.274s-0.942-2.072-0.942-3.667v-7.49
		c0-2.559,0.67-4.157,2.012-4.795c0.495-0.234,1.094-0.352,1.797-0.352c2.416,0,3.623,1.523,3.623,4.57v2.363h-2.529v-2.197
		c0-0.885-0.075-1.519-0.225-1.899s-0.443-0.571-0.879-0.571s-0.739,0.202-0.908,0.605s-0.254,1.022-0.254,1.855v8.027
		c0,0.924,0.082,1.585,0.244,1.982s0.459,0.596,0.889,0.596s0.726-0.202,0.889-0.605s0.244-1.071,0.244-2.002v-2.461h2.568v2.432
		C40.582,122.806,40.285,124.035,39.693,124.833z"/>
	<path d="M42.71,125.833v-17.188h2.617v6.953h2.344v-6.953h2.617v17.188h-2.617v-7.988h-2.344v7.988
		C45.327,125.833,42.71,125.833,42.71,125.833z"/>
	<path d="M52.867,125.833v-17.188h5.762v2.256h-3.145v5h2.988v2.207h-2.988v5.469h3.262v2.256H52.867z"/>
	<path d="M67.203,124.833c-0.592,0.797-1.523,1.196-2.793,1.196s-2.218-0.425-2.847-1.274s-0.942-2.072-0.942-3.667v-7.49
		c0-2.559,0.67-4.157,2.012-4.795c0.495-0.234,1.094-0.352,1.797-0.352c2.416,0,3.623,1.523,3.623,4.57v2.363h-2.529v-2.197
		c0-0.885-0.075-1.519-0.225-1.899s-0.443-0.571-0.879-0.571s-0.739,0.202-0.908,0.605s-0.254,1.022-0.254,1.855v8.027
		c0,0.924,0.082,1.585,0.244,1.982s0.459,0.596,0.889,0.596c0.43,0,0.726-0.202,0.889-0.605s0.244-1.071,0.244-2.002v-2.461h2.568
		v2.432C68.091,122.806,67.795,124.035,67.203,124.833z"/>
	<path d="M70.22,125.833v-17.188h2.617v6.953h2.344v-6.953h2.617v17.188h-2.617v-7.988h-2.344v7.988
		C72.837,125.833,70.22,125.833,70.22,125.833z"/>
	<path d="M80.474,125.833v-17.188h2.617v17.188C83.091,125.833,80.474,125.833,80.474,125.833z"/>
	<path d="M85.425,121v-1.533h2.48v1.729c0,0.957,0.082,1.629,0.244,2.017s0.469,0.581,0.918,0.581s0.747-0.16,0.894-0.479
		s0.22-0.84,0.22-1.562s-0.13-1.353-0.391-1.89s-0.674-1.099-1.24-1.685l-1.27-1.309c-0.592-0.619-1.053-1.26-1.382-1.924
		s-0.493-1.432-0.493-2.305c0-1.419,0.273-2.474,0.82-3.164s1.488-1.035,2.822-1.035s2.238,0.402,2.71,1.206
		s0.708,1.978,0.708,3.521v1.064h-2.412v-1.23c0-0.833-0.072-1.431-0.215-1.792s-0.418-0.542-0.825-0.542s-0.7,0.137-0.879,0.41
		s-0.269,0.684-0.269,1.23s0.091,0.983,0.273,1.309s0.511,0.742,0.986,1.25l1.416,1.533c0.709,0.768,1.245,1.546,1.606,2.334
		s0.542,1.647,0.542,2.578c0,1.608-0.27,2.796-0.811,3.564s-1.486,1.152-2.837,1.152s-2.292-0.428-2.822-1.284
		S85.425,122.64,85.425,121z"/>
	<path d="M100.972,124.833c-0.592,0.797-1.523,1.196-2.793,1.196s-2.218-0.425-2.847-1.274s-0.942-2.072-0.942-3.667v-7.49
		c0-2.559,0.67-4.157,2.012-4.795c0.495-0.234,1.094-0.352,1.797-0.352c2.416,0,3.623,1.523,3.623,4.57v2.363h-2.529v-2.197
		c0-0.885-0.075-1.519-0.225-1.899s-0.443-0.571-0.879-0.571s-0.739,0.202-0.908,0.605s-0.254,1.022-0.254,1.855v8.027
		c0,0.924,0.082,1.585,0.244,1.982s0.459,0.596,0.889,0.596s0.726-0.202,0.889-0.605s0.244-1.071,0.244-2.002v-2.461h2.568v2.432
		C101.861,122.806,101.564,124.035,100.972,124.833z"/>
	<path d="M103.99,125.833v-17.188h2.617v6.953h2.344v-6.953h2.617v17.188h-2.617v-7.988h-2.344v7.988
		C106.607,125.833,103.99,125.833,103.99,125.833z"/>
	<path d="M114.146,125.833v-17.188h5.762v2.256h-3.145v5h2.988v2.207h-2.988v5.469h3.262v2.256H114.146z"/>
	<path d="M125.572,117.757l-0.84-0.039v8.115h-2.617v-17.188h4.326c0.898,0,1.569,0.181,2.012,0.542s0.734,0.866,0.874,1.514
		c0.141,0.648,0.21,1.494,0.21,2.539s-0.11,1.841-0.332,2.388c-0.221,0.547-0.631,0.915-1.23,1.104
		c0.592,0.104,1.005,0.504,1.24,1.201s0.352,2.147,0.352,4.351s0.033,3.387,0.098,3.55h-2.617c-0.065-0.13-0.098-2.184-0.098-6.162
		c0-0.762-0.091-1.268-0.273-1.519S126.125,117.771,125.572,117.757z M124.742,115.687h1.045c0.332,0,0.578-0.075,0.737-0.225
		s0.27-0.407,0.332-0.771s0.093-0.921,0.093-1.67v-0.107c0-0.931-0.078-1.54-0.234-1.826s-0.518-0.43-1.084-0.43h-0.889V115.687z"/>
	<path d="M17.613,149.833v-17.188h5.898v2.275H20.23v4.57h3.047v2.285H20.23v8.057L17.613,149.833L17.613,149.833z"/>
	<path d="M31.978,148.91c-0.599,0.746-1.561,1.118-2.886,1.118s-2.289-0.374-2.891-1.123c-0.602-0.748-0.903-1.91-0.903-3.486
		v-12.783h2.617v12.734c0,0.905,0.042,1.455,0.127,1.65s0.187,0.373,0.308,0.532c0.121,0.16,0.37,0.239,0.747,0.239
		s0.648-0.11,0.811-0.332c0.163-0.221,0.262-0.496,0.298-0.825c0.036-0.328,0.054-0.75,0.054-1.265v-12.734h2.617v12.783
		C32.876,147.001,32.577,148.165,31.978,148.91z"/>
	<path d="M35.015,144.999v-1.533h2.48v1.729c0,0.957,0.082,1.63,0.244,2.017c0.163,0.388,0.469,0.581,0.918,0.581
		s0.747-0.159,0.894-0.479c0.146-0.318,0.22-0.84,0.22-1.562s-0.13-1.353-0.391-1.89s-0.674-1.099-1.24-1.685l-1.27-1.309
		c-0.592-0.618-1.053-1.26-1.382-1.924s-0.493-1.432-0.493-2.305c0-1.419,0.273-2.474,0.82-3.164
		c0.547-0.689,1.488-1.035,2.822-1.035s2.238,0.402,2.71,1.206c0.472,0.805,0.708,1.978,0.708,3.521v1.064h-2.412v-1.23
		c0-0.833-0.072-1.431-0.215-1.792s-0.418-0.542-0.825-0.542s-0.7,0.137-0.879,0.41s-0.269,0.684-0.269,1.23
		s0.091,0.983,0.273,1.309s0.511,0.742,0.986,1.25l1.416,1.533c0.709,0.769,1.245,1.547,1.606,2.334
		c0.361,0.788,0.542,1.647,0.542,2.578c0,1.608-0.27,2.797-0.811,3.564c-0.541,0.769-1.486,1.152-2.837,1.152
		s-2.292-0.428-2.822-1.284C35.28,147.889,35.015,146.64,35.015,144.999z"/>
	<path d="M43.853,144.999v-1.533h2.48v1.729c0,0.957,0.082,1.63,0.244,2.017c0.163,0.388,0.469,0.581,0.918,0.581
		s0.747-0.159,0.894-0.479c0.146-0.318,0.22-0.84,0.22-1.562s-0.13-1.353-0.391-1.89s-0.674-1.099-1.24-1.685l-1.27-1.309
		c-0.592-0.618-1.053-1.26-1.382-1.924s-0.493-1.432-0.493-2.305c0-1.419,0.273-2.474,0.82-3.164
		c0.547-0.689,1.488-1.035,2.822-1.035s2.238,0.402,2.71,1.206c0.472,0.805,0.708,1.978,0.708,3.521v1.064h-2.412v-1.23
		c0-0.833-0.072-1.431-0.215-1.792s-0.418-0.542-0.825-0.542s-0.7,0.137-0.879,0.41s-0.269,0.684-0.269,1.23
		s0.091,0.983,0.273,1.309s0.511,0.742,0.986,1.25l1.416,1.533c0.709,0.769,1.245,1.547,1.606,2.334
		c0.361,0.788,0.542,1.647,0.542,2.578c0,1.608-0.27,2.797-0.811,3.564c-0.541,0.769-1.486,1.152-2.837,1.152
		s-2.292-0.428-2.822-1.284C44.118,147.889,43.853,146.64,43.853,144.999z"/>
	<path d="M60.386,137.06c0,1.85-0.501,2.985-1.504,3.408c1.224,0.41,1.836,1.762,1.836,4.053v0.439
		c-0.013,1.726-0.314,2.969-0.903,3.73s-1.551,1.143-2.886,1.143H53.13v-17.188h3.721c1.283,0,2.191,0.298,2.725,0.894
		s0.804,1.594,0.811,2.993L60.386,137.06L60.386,137.06z M55.748,139.599h0.967c0.449,0,0.744-0.143,0.884-0.43
		c0.14-0.286,0.21-0.875,0.21-1.768v-1.035c-0.006-0.664-0.098-1.108-0.273-1.333s-0.479-0.337-0.908-0.337h-0.879L55.748,139.599
		L55.748,139.599z M55.748,147.802h0.928c0.521,0,0.885-0.179,1.094-0.537c0.208-0.357,0.312-0.999,0.312-1.924v-1.387
		c0-0.872-0.084-1.489-0.254-1.851s-0.495-0.542-0.977-0.542h-1.104L55.748,147.802L55.748,147.802z"/>
	<path d="M61.978,149.833l2.451-17.188h3.457l2.607,17.188h-2.441l-0.41-3.066h-2.773l-0.371,3.066H61.978z M67.369,144.667
		l-1.152-8.633h-0.039l-1.055,8.633H67.369z"/>
	<path d="M72.291,149.833v-17.188h2.617v14.961h3.311v2.227H72.291z"/>
	<path d="M79.722,149.833v-17.188h2.617v14.961h3.311v2.227H79.722z"/>
	<path d="M87.154,149.833v-17.188h5.762v2.256h-3.145v5h2.988v2.207h-2.988v5.469h3.262v2.256L87.154,149.833L87.154,149.833z"/>
	<path d="M98.58,141.757l-0.84-0.039v8.115h-2.617v-17.188h4.326c0.898,0,1.569,0.181,2.012,0.542s0.734,0.866,0.874,1.514
		c0.14,0.648,0.21,1.494,0.21,2.539s-0.111,1.841-0.332,2.388s-0.631,0.915-1.23,1.104c0.592,0.104,1.006,0.505,1.24,1.201
		c0.234,0.697,0.352,2.147,0.352,4.351s0.033,3.388,0.098,3.55h-2.617c-0.065-0.13-0.098-2.184-0.098-6.162
		c0-0.762-0.091-1.268-0.273-1.519C99.501,141.902,99.133,141.771,98.58,141.757z M97.75,139.687h1.045
		c0.332,0,0.578-0.074,0.737-0.225c0.16-0.149,0.27-0.406,0.332-0.771c0.062-0.364,0.093-0.921,0.093-1.67v-0.107
		c0-0.931-0.078-1.539-0.234-1.826c-0.156-0.286-0.518-0.43-1.084-0.43H97.75V139.687z"/>
	<path d="M17.613,173.833v-17.188h3.857c1.263,0,2.179,0.373,2.749,1.118c0.57,0.746,0.854,1.845,0.854,3.296l0.01,7.754
		c0,1.732-0.287,3.002-0.859,3.809c-0.573,0.808-1.52,1.211-2.842,1.211H17.613z M20.23,171.802h0.859
		c0.482,0,0.832-0.156,1.05-0.469s0.327-0.885,0.327-1.719l-0.01-8.486c0-0.892-0.109-1.526-0.327-1.904
		c-0.218-0.377-0.594-0.566-1.128-0.566H20.23V171.802z"/>
	<path d="M27.437,173.833v-17.188h5.762v2.256h-3.145v5h2.988v2.207h-2.988v5.469h3.262v2.256L27.437,173.833L27.437,173.833z"/>
	<path d="M35.064,168.999v-1.533h2.48v1.729c0,0.957,0.082,1.63,0.244,2.017c0.163,0.388,0.469,0.581,0.918,0.581
		s0.747-0.159,0.894-0.479c0.146-0.318,0.22-0.84,0.22-1.562s-0.13-1.353-0.391-1.89s-0.674-1.099-1.24-1.685l-1.27-1.309
		c-0.592-0.618-1.053-1.26-1.382-1.924s-0.493-1.432-0.493-2.305c0-1.419,0.273-2.474,0.82-3.164
		c0.547-0.689,1.488-1.035,2.822-1.035s2.238,0.402,2.71,1.206c0.472,0.805,0.708,1.978,0.708,3.521v1.064h-2.412v-1.23
		c0-0.833-0.072-1.431-0.215-1.792s-0.418-0.542-0.825-0.542s-0.7,0.137-0.879,0.41s-0.269,0.684-0.269,1.23
		s0.091,0.983,0.273,1.309s0.511,0.742,0.986,1.25l1.416,1.533c0.709,0.769,1.245,1.547,1.606,2.334
		c0.361,0.788,0.542,1.647,0.542,2.578c0,1.608-0.27,2.797-0.811,3.564c-0.541,0.769-1.486,1.152-2.837,1.152
		s-2.292-0.428-2.822-1.284C35.329,171.889,35.064,170.64,35.064,168.999z"/>
	<path d="M53.365,172.881c-0.619,0.766-1.489,1.147-2.612,1.147s-1.996-0.34-2.617-1.021c-0.622-0.68-0.933-1.671-0.933-2.974
		v-3.066h2.529v2.939c0,0.951,0.153,1.53,0.459,1.738c0.137,0.092,0.306,0.137,0.508,0.137c0.397,0,0.659-0.162,0.786-0.488
		c0.127-0.325,0.19-0.84,0.19-1.543v-13.105h2.617v12.979C54.292,171.03,53.983,172.116,53.365,172.881z"/>
	<path d="M55.992,173.833l2.451-17.188H61.9l2.607,17.188h-2.441l-0.41-3.066h-2.773l-0.371,3.066H55.992z M61.382,168.667
		l-1.152-8.633h-0.039l-1.055,8.633H61.382z"/>
	<path d="M66.304,173.833v-17.188h2.617v6.953h2.344v-6.953h2.617v17.188h-2.617v-7.988h-2.344v7.988H66.304z"/>
	<path d="M79.917,165.757l-0.84-0.039v8.115H76.46v-17.188h4.326c0.898,0,1.569,0.181,2.012,0.542s0.734,0.866,0.874,1.514
		c0.14,0.648,0.21,1.494,0.21,2.539s-0.111,1.841-0.332,2.388s-0.631,0.915-1.23,1.104c0.592,0.104,1.006,0.505,1.24,1.201
		c0.234,0.697,0.352,2.147,0.352,4.351s0.033,3.388,0.098,3.55h-2.617c-0.065-0.13-0.098-2.184-0.098-6.162
		c0-0.762-0.091-1.268-0.273-1.519C80.839,165.902,80.471,165.771,79.917,165.757z M79.087,163.687h1.045
		c0.332,0,0.578-0.074,0.737-0.225c0.16-0.149,0.27-0.406,0.332-0.771c0.062-0.364,0.093-0.921,0.093-1.67v-0.107
		c0-0.931-0.078-1.539-0.234-1.826c-0.156-0.286-0.518-0.43-1.084-0.43h-0.889V163.687z"/>
	<path d="M86.324,173.833v-17.188h5.762v2.256h-3.145v5h2.988v2.207h-2.988v5.469h3.262v2.256L86.324,173.833L86.324,173.833z"/>
	<path d="M93.951,168.999v-1.533h2.48v1.729c0,0.957,0.082,1.63,0.244,2.017c0.163,0.388,0.469,0.581,0.918,0.581
		s0.747-0.159,0.894-0.479c0.146-0.318,0.22-0.84,0.22-1.562s-0.13-1.353-0.391-1.89s-0.674-1.099-1.24-1.685l-1.27-1.309
		c-0.592-0.618-1.053-1.26-1.382-1.924s-0.493-1.432-0.493-2.305c0-1.419,0.273-2.474,0.82-3.164
		c0.547-0.689,1.488-1.035,2.822-1.035s2.238,0.402,2.71,1.206c0.472,0.805,0.708,1.978,0.708,3.521v1.064H98.58v-1.23
		c0-0.833-0.072-1.431-0.215-1.792s-0.418-0.542-0.825-0.542s-0.7,0.137-0.879,0.41s-0.269,0.684-0.269,1.23
		s0.091,0.983,0.273,1.309s0.511,0.742,0.986,1.25l1.416,1.533c0.709,0.769,1.245,1.547,1.606,2.334
		c0.361,0.788,0.542,1.647,0.542,2.578c0,1.608-0.27,2.797-0.811,3.564c-0.541,0.769-1.486,1.152-2.837,1.152
		s-2.292-0.428-2.822-1.284C94.216,171.889,93.951,170.64,93.951,168.999z"/>
</g>
</svg>
