<?xml version="1.0" encoding="utf-8"?>
<!-- Generator: Adobe Illustrator 17.0.0, SVG Export Plug-In . SVG Version: 6.00 Build 0)  -->
<!DOCTYPE svg PUBLIC "-//W3C//DTD SVG 1.1//EN" "http://www.w3.org/Graphics/SVG/1.1/DTD/svg11.dtd">
<svg version="1.1" id="Layer_1" xmlns="http://www.w3.org/2000/svg" xmlns:xlink="http://www.w3.org/1999/xlink" x="0px" y="0px"
	 width="256px" height="256px" viewBox="0 0 256 256" enable-background="new 0 0 256 256" xml:space="preserve">
<path fill="#FFFFFF" d="M192.1,10.3c-17.1,0-32.4,8-42.3,20.6h-0.3v0.3c-7.1,9.1-11.4,20.6-11.4,33c0,29.7,24.2,53.9,53.9,53.9
	s54-24.2,54-53.9S221.9,10.3,192.1,10.3z"/>
<path d="M192,10.3c-17.1,0-32.4,8-42.3,20.6h-0.3v0.3c-7.1,9.1-11.4,20.6-11.4,33c0,29.7,24.2,53.9,53.9,53.9s53.9-24.2,53.9-53.9
	S221.7,10.3,192,10.3z M208.6,100.9l-23.1-3L183.7,78l17.6-10.7L217,82.4L208.6,100.9z M171.2,103.3L151.9,89l-2.1-14.7l11.8-7.4
	L181.5,78l1.9,20.2L171.2,103.3z M149.1,72.2L142,57.4l9.3-15.3l9.7,2l-0.2,20.8L149.1,72.2z M188.3,19l21.3,2.9l7.3,13.6l-16.1,7.9
	l-16.5-11.5L188.3,19z M231.4,74.4l-12.6,6.7l-16.9-16.2l0.2-19.7l16-7.9L232.3,50L231.4,74.4z M233.5,74.9l1-24.5l7.1-0.9
	c1.4,4.7,2.1,9.6,2.1,14.7c0,4.6-0.6,9-1.7,13.2L233.5,74.9z M240.9,47.4l-7.1,0.9l-14.6-13.1L212,21.9l6.1-2.4
	C228.7,25.7,236.9,35.6,240.9,47.4z M178.8,14.2l7.4,4.1L182,32.1L162.3,42l-10.5-2.1l-0.2-8.1C158.5,23.4,167.9,17,178.8,14.2z
	 M149.7,40.5l-8.5,14.1c1.4-7.3,4.3-14.1,8.4-20L149.7,40.5z M140.5,59.2l7.1,14.9l2.1,14.8l-2.9,0.4c-4.1-7.4-6.5-16-6.5-25.1
	C140.3,62.5,140.4,60.8,140.5,59.2z M172.4,112.1l-0.2-6.8l12.5-5.3l23.9,3.1l4.4,8.4c-6.4,2.9-13.5,4.5-21,4.5
	C185.1,115.9,178.5,114.5,172.4,112.1z"/>
<g>
	<path fill="#FCFF00" stroke="#000000" stroke-miterlimit="10" d="M89.6,114.5c0,0-1.3-0.2-1.3,1.4c0.1,1.4,1.5,1.4,1.5,1.4
		s0.1,23.7,28.3,35.5c0,1.7-0.2,3.3-0.2,3.3s-4.9,5.1-6.3,5.7c0.7,1.1,8.7,17.1,9.9,38.3c0,0-2,0-2,2.3c0,1.8,2.7,2.6,2.7,2.6
		l-0.6,3.5c0,0-4.6,3.5-4.7,7.3c-1.7,0-4.4,0-4.4,0s-1.9,8.8-7.9,11.4c0,3.2,0,15.1,0,15.1s-3.7,0.1-4.9,0.1s-4.3,2.4-3.9,6.3
		c0,3.8,0.1,5.7,0.1,5.7h64.4c0,0,0.2-1.9,0.2-5.7c0.3-3.9-3.2-6.4-4.5-6.4s-5.4,0-5.4,0s0-11.9,0-15.1c-6-2.6-7-11.7-7-11.7
		s-2.7,0-4.3,0c-0.1-4-4.7-7.2-4.7-7.2l-0.5-3.4c0,0,2.7-0.7,2.7-2.5c0-2.3-2-2.3-2-2.3c1.2-21.2,9.3-37.1,9.9-38.2
		c-1.5-0.7-6.3-5.7-6.3-5.7s-0.2-1.6-0.2-3.3c28.2-11.8,28.3-35.5,28.3-35.5s1.4,0,1.5-1.3c0-1.6-1.3-1.4-1.3-1.4H89.6V114.5z"/>
	<path fill="#FFFFFF" d="M150.9,117h-26.8c0,0-0.3,3.6,0.8,5.8c1.1,2.2,3.1,5.4,13.3,5.4c10.5,0,11.1-3.3,12.2-5.7
		C151.5,120,150.9,117,150.9,117z"/>
	<rect x="130" y="154" fill="#FFFFFF" width="5" height="2"/>
	<path fill="#FFFFFF" d="M138.7,223H129v-8c0,0,6.4,0,8.1,0C137.1,219,138.7,223,138.7,223z"/>
	<rect x="130" y="212" fill="#FFFFFF" width="4" height="4"/>
	<rect x="130" y="205" fill="#FFFFFF" width="2" height="4"/>
	<polygon fill="#FFFFFF" points="129.2,202 133.2,202 133.2,202 	"/>
	<rect x="142" y="228" fill="#ABD100" width="5" height="14"/>
	<path fill="#ABD100" d="M136.7,163.5l4.2,0.2c0,0-4.8,13.3-7.4,37.3h-1.3C132.2,201,133.7,179,136.7,163.5z"/>
	<path fill="#ABD100" d="M138.2,146.3c0,0,24.8-9.4,25.5-28.5c0,19.8-19.4,32.5-29.8,33.3C123.4,151.9,129.3,149.3,138.2,146.3z"/>
	<rect x="106" y="228" fill="#FF9F00" width="3" height="14"/>
	<path fill="#FF9F00" d="M117.8,163l-4.2-0.2c0,0,6.8,12.8,8.6,37.1l1-0.1C123.2,199.9,121.7,178.3,117.8,163z"/>
	<path fill="#FF9F00" d="M118.2,146.3c0,0-24.8-9.4-25.5-28.5c0,19.8,19.4,32.5,29.8,33.3C133,151.9,127.1,149.3,118.2,146.3z"/>
	<line fill="none" stroke="#000000" stroke-miterlimit="10" x1="118" y1="153.5" x2="138" y2="153.5"/>
	<line fill="none" stroke="#957E78" stroke-width="0.6534" stroke-miterlimit="10" x1="117.9" y1="156" x2="137.8" y2="155.7"/>
	<line fill="none" stroke="#957E78" stroke-miterlimit="10" x1="121" y1="201.5" x2="135" y2="201.5"/>
	<line fill="none" stroke="#957E78" stroke-miterlimit="10" x1="121" y1="204.5" x2="134" y2="204.5"/>
	<line fill="none" stroke="#957E78" stroke-miterlimit="10" x1="121" y1="208.5" x2="134" y2="208.5"/>
	<line fill="none" stroke="#957E78" stroke-miterlimit="10" x1="116" y1="215.5" x2="139" y2="215.5"/>
	<line fill="none" stroke="#957E78" stroke-miterlimit="10" x1="105" y1="228.5" x2="150" y2="228.5"/>
	<line fill="none" stroke="#957E78" stroke-miterlimit="10" x1="104" y1="241.5" x2="150" y2="241.5"/>
	<line fill="none" stroke="#000000" stroke-miterlimit="10" x1="111" y1="160.5" x2="144" y2="160.5"/>
</g>
<g>
	<g>
		<circle fill="#D80027" cx="191.4" cy="65.2" r="41"/>
		<polygon fill="#F0F0F0" points="189.8,57.7 193.1,62.3 198.6,60.6 195.2,65.2 198.6,69.8 193.1,68.1 189.8,72.7 189.8,67 
			184.3,65.2 189.8,63.4 		"/>
		<path fill="#F0F0F0" d="M180.6,76.8c-6.4,0-11.6-5.2-11.6-11.6s5.2-11.6,11.6-11.6c2,0,3.9,0.5,5.5,1.4c-2.6-2.5-6.1-4.1-10-4.1
			c-7.9,0-14.2,6.4-14.2,14.2s6.4,14.2,14.2,14.2c3.9,0,7.4-1.6,10-4.1C184.5,76.3,182.6,76.8,180.6,76.8z"/>
	</g>
	<ellipse fill="none" stroke="#000000" stroke-miterlimit="10" cx="191.6" cy="65.2" rx="40.8" ry="40.6"/>
</g>
<g>
	<path d="M10.911,206.754v-25.136H7.522v-3.816H18.56v3.816h-3.257v25.136H10.911z"/>
	<path d="M31.24,205.199c-1.009,1.256-2.629,1.884-4.861,1.884s-3.855-0.631-4.869-1.893c-1.015-1.261-1.522-3.218-1.522-5.872
		v-21.533h4.409v21.451c0,1.524,0.071,2.45,0.214,2.779s0.315,0.628,0.518,0.896c0.203,0.27,0.623,0.403,1.259,0.403
		c0.636,0,1.091-0.187,1.365-0.56c0.274-0.372,0.441-0.836,0.501-1.39c0.061-0.554,0.091-1.264,0.091-2.13v-21.451h4.409v21.533
		C32.753,201.983,32.249,203.943,31.24,205.199z M20.152,175.827v-3.718h4.639v3.718H20.152z M28.114,175.827v-3.718h4.639v3.718
		H28.114z"/>
	<path d="M41.913,193.149l-1.415-0.065v13.67h-4.409v-28.952h7.288c1.513,0,2.643,0.304,3.389,0.912
		c0.746,0.609,1.236,1.459,1.472,2.55c0.236,1.092,0.354,2.518,0.354,4.277c0,1.761-0.187,3.101-0.559,4.022
		c-0.373,0.921-1.064,1.541-2.073,1.858c0.998,0.176,1.694,0.851,2.089,2.023c0.395,1.174,0.592,3.616,0.592,7.329
		c0,3.712,0.055,5.705,0.164,5.979h-4.408c-0.11-0.22-0.165-3.68-0.165-10.38c0-1.283-0.154-2.136-0.461-2.559
		C43.464,193.394,42.845,193.172,41.913,193.149z M40.515,189.662h1.76c0.559,0,0.973-0.126,1.242-0.379
		c0.269-0.252,0.455-0.685,0.56-1.299c0.104-0.614,0.156-1.552,0.156-2.813v-0.181c0-1.568-0.132-2.594-0.395-3.076
		s-0.872-0.724-1.826-0.724h-1.497C40.515,181.19,40.515,189.662,40.515,189.662z"/>
	<path d="M51.862,206.754v-28.952h4.409v13.324l4.409-13.324h4.557l-4.803,14.278l5.182,14.674h-4.655l-4.656-13.522v13.522H51.862z
		"/>
	<path d="M67.141,206.754v-28.952h4.409v28.952H67.141z"/>
	<path d="M74.639,198.61v-2.582h4.178v2.911c0,1.612,0.137,2.745,0.411,3.397c0.274,0.652,0.79,0.979,1.546,0.979
		c0.757,0,1.259-0.269,1.505-0.806s0.37-1.415,0.37-2.632c0-1.218-0.22-2.278-0.658-3.184c-0.438-0.904-1.135-1.851-2.089-2.838
		l-2.139-2.204c-0.998-1.042-1.774-2.122-2.328-3.24c-0.554-1.119-0.831-2.413-0.831-3.883c0-2.391,0.46-4.167,1.382-5.33
		c0.921-1.162,2.505-1.743,4.754-1.743c2.248,0,3.77,0.677,4.565,2.031c0.795,1.354,1.192,3.331,1.192,5.931v1.793h-4.063v-2.073
		c0-1.403-0.121-2.409-0.362-3.019c-0.241-0.608-0.705-0.913-1.39-0.913c-0.686,0-1.179,0.23-1.48,0.691
		c-0.302,0.461-0.453,1.151-0.453,2.072c0,0.922,0.154,1.656,0.461,2.205c0.307,0.548,0.861,1.25,1.661,2.105l2.385,2.582
		c1.195,1.295,2.098,2.605,2.706,3.932c0.609,1.327,0.913,2.775,0.913,4.344c0,2.708-0.455,4.71-1.365,6.004
		c-0.911,1.294-2.503,1.941-4.779,1.941s-3.86-0.722-4.754-2.163C75.085,203.478,74.639,201.374,74.639,198.61z"/>
	<path d="M99.985,205.067c-0.998,1.344-2.566,2.016-4.705,2.016s-3.737-0.716-4.795-2.147c-1.059-1.431-1.587-3.489-1.587-6.177
		v-12.617c0-4.31,1.129-7.002,3.389-8.077c0.833-0.395,1.842-0.592,3.027-0.592c4.068,0,6.103,2.565,6.103,7.698v3.981h-4.261
		v-3.702c0-1.491-0.126-2.558-0.378-3.199s-0.746-0.962-1.48-0.962s-1.245,0.34-1.53,1.02c-0.285,0.681-0.428,1.722-0.428,3.126
		v13.521c0,1.558,0.137,2.671,0.411,3.34c0.274,0.669,0.773,1.003,1.497,1.003s1.223-0.34,1.497-1.02
		c0.274-0.68,0.411-1.804,0.411-3.372v-4.146h4.327v4.096C101.482,201.654,100.983,203.725,99.985,205.067z"/>
	<path d="M104.226,206.754v-28.952h4.409v11.712h3.948v-11.712h4.409v28.952h-4.409v-13.456h-3.948v13.456H104.226z"/>
	<path d="M120.492,206.754v-28.952h9.706v3.8h-5.297v8.422h5.034v3.718h-5.034v9.213h5.495v3.8h-9.904V206.754z"/>
	<path d="M138.896,193.149l-1.414-0.065v13.67h-4.409v-28.952h7.288c1.513,0,2.643,0.304,3.389,0.912
		c0.745,0.609,1.236,1.459,1.472,2.55c0.236,1.092,0.354,2.518,0.354,4.277c0,1.761-0.187,3.101-0.559,4.022
		c-0.373,0.921-1.064,1.541-2.073,1.858c0.998,0.176,1.694,0.851,2.09,2.023c0.395,1.174,0.592,3.616,0.592,7.329
		c0,3.712,0.055,5.705,0.164,5.979h-4.408c-0.109-0.22-0.164-3.68-0.164-10.38c0-1.283-0.154-2.136-0.461-2.559
		C140.448,193.394,139.829,193.172,138.896,193.149z M137.499,189.662h1.76c0.56,0,0.973-0.126,1.242-0.379
		c0.269-0.252,0.455-0.685,0.56-1.299c0.104-0.614,0.156-1.552,0.156-2.813v-0.181c0-1.568-0.132-2.594-0.396-3.076
		c-0.263-0.482-0.871-0.724-1.826-0.724h-1.496V189.662z"/>
	<path d="M154.041,206.754v-28.952h5.478l4.112,21.154l3.866-21.154h5.511v28.952h-3.932v-10.792l0.165-9.902l-3.899,20.562h-3.504
		l-4.062-20.562l0.164,9.902v10.792H154.041z"/>
	<path d="M176.524,206.754v-28.952h9.706v3.8h-5.297v8.422h5.033v3.718h-5.033v9.213h5.494v3.8h-9.903V206.754z"/>
	<path d="M189.271,206.754v-28.952h4.408v28.952H189.271z"/>
	<path d="M196.769,198.61v-2.582h4.178v2.911c0,1.612,0.138,2.745,0.411,3.397c0.274,0.652,0.79,0.979,1.547,0.979
		s1.259-0.269,1.505-0.806c0.247-0.537,0.37-1.415,0.37-2.632c0-1.218-0.22-2.278-0.658-3.184c-0.438-0.904-1.135-1.851-2.089-2.838
		l-2.139-2.204c-0.998-1.042-1.773-2.122-2.327-3.24c-0.555-1.119-0.831-2.413-0.831-3.883c0-2.391,0.461-4.167,1.382-5.33
		c0.921-1.162,2.506-1.743,4.754-1.743s3.77,0.677,4.565,2.031s1.192,3.331,1.192,5.931v1.793h-4.063v-2.073
		c0-1.403-0.12-2.409-0.361-3.019c-0.241-0.608-0.705-0.913-1.391-0.913s-1.179,0.23-1.48,0.691s-0.452,1.151-0.452,2.072
		c0,0.922,0.153,1.656,0.461,2.205c0.307,0.548,0.86,1.25,1.661,2.105l2.385,2.582c1.195,1.295,2.098,2.605,2.706,3.932
		c0.609,1.327,0.913,2.775,0.913,4.344c0,2.708-0.455,4.71-1.365,6.004s-2.503,1.941-4.778,1.941c-2.276,0-3.86-0.722-4.754-2.163
		C197.215,203.478,196.769,201.374,196.769,198.61z"/>
	<path d="M212.87,206.754v-25.136h-3.389v-3.816h11.038v3.816h-3.258v25.136H212.87z"/>
	<path d="M222.111,206.754v-28.952h9.706v3.8h-5.297v8.422h5.033v3.718h-5.033v9.213h5.494v3.8h-9.903V206.754z"/>
	<path d="M240.516,193.149l-1.414-0.065v13.67h-4.409v-28.952h7.288c1.513,0,2.643,0.304,3.389,0.912
		c0.745,0.609,1.236,1.459,1.472,2.55c0.236,1.092,0.354,2.518,0.354,4.277c0,1.761-0.187,3.101-0.559,4.022
		c-0.373,0.921-1.064,1.541-2.073,1.858c0.998,0.176,1.694,0.851,2.09,2.023c0.395,1.174,0.592,3.616,0.592,7.329
		c0,3.712,0.055,5.705,0.164,5.979H243c-0.109-0.22-0.164-3.68-0.164-10.38c0-1.283-0.154-2.136-0.461-2.559
		C242.067,193.394,241.448,193.172,240.516,193.149z M239.118,189.662h1.76c0.56,0,0.973-0.126,1.242-0.379
		c0.269-0.252,0.455-0.685,0.56-1.299c0.104-0.614,0.156-1.552,0.156-2.813v-0.181c0-1.568-0.132-2.594-0.396-3.076
		c-0.263-0.482-0.871-0.724-1.826-0.724h-1.496V189.662z"/>
	<path d="M76.62,238.613c-1.066,0-1.933-0.087-2.598-0.26c-0.666-0.174-1.229-0.49-1.688-0.95c-0.46-0.461-0.784-1.085-0.971-1.873
		c-0.187-0.788-0.28-1.807-0.28-3.056v-14.506c0-1.249,0.093-2.268,0.28-3.056s0.51-1.413,0.971-1.873
		c0.46-0.46,1.023-0.777,1.688-0.95s1.531-0.26,2.598-0.26v2.734c-0.812,0-1.331,0.212-1.559,0.636s-0.342,1.328-0.342,2.714v14.615
		c0,1.386,0.114,2.29,0.342,2.714c0.228,0.424,0.747,0.636,1.559,0.636V238.613z"/>
	<path d="M79.108,229.986v-2.146h3.473v2.42c0,1.34,0.114,2.281,0.342,2.823c0.228,0.542,0.656,0.813,1.285,0.813
		s1.046-0.224,1.251-0.67s0.308-1.176,0.308-2.188s-0.183-1.894-0.547-2.646c-0.365-0.752-0.943-1.538-1.736-2.358l-1.777-1.832
		c-0.83-0.866-1.475-1.764-1.935-2.693c-0.46-0.93-0.69-2.005-0.69-3.227c0-1.987,0.383-3.464,1.148-4.43s2.083-1.449,3.951-1.449
		c1.868,0,3.133,0.562,3.794,1.688c0.661,1.126,0.991,2.769,0.991,4.929v1.49h-3.377v-1.723c0-1.167-0.101-2.003-0.301-2.509
		c-0.201-0.506-0.586-0.759-1.155-0.759c-0.57,0-0.98,0.191-1.23,0.574c-0.251,0.383-0.376,0.957-0.376,1.723
		s0.127,1.376,0.383,1.832c0.255,0.456,0.715,1.039,1.381,1.75l1.982,2.146c0.993,1.075,1.743,2.165,2.249,3.268
		s0.759,2.306,0.759,3.609c0,2.251-0.378,3.915-1.135,4.99c-0.757,1.075-2.081,1.613-3.972,1.613c-1.892,0-3.208-0.6-3.951-1.798
		C79.479,234.031,79.108,232.283,79.108,229.986z"/>
	<path d="M101.175,235.462c-0.839,1.044-2.186,1.565-4.04,1.565c-1.855,0-3.204-0.524-4.047-1.572
		c-0.843-1.048-1.265-2.675-1.265-4.881v-17.896h3.664v17.828c0,1.267,0.059,2.037,0.178,2.311c0.118,0.273,0.262,0.521,0.431,0.745
		c0.168,0.224,0.517,0.335,1.046,0.335c0.528,0,0.907-0.155,1.135-0.465c0.228-0.31,0.367-0.695,0.417-1.155
		c0.05-0.46,0.075-1.051,0.075-1.771v-17.828h3.664v17.896C102.433,232.789,102.013,234.418,101.175,235.462z M91.96,211.051v-3.09
		h3.855v3.09H91.96z M98.577,211.051v-3.09h3.855v3.09H98.577z"/>
	<path d="M105.905,236.754v-24.062h5.523c1.868,0,3.146,0.567,3.835,1.702c0.688,1.135,1.05,2.828,1.087,5.079v0.506
		c0,2.388-0.34,4.199-1.019,5.435c-0.679,1.235-1.939,1.853-3.78,1.853h-1.982v9.488L105.905,236.754L105.905,236.754z
		 M109.569,224.244h1.258c0.774,0,1.278-0.299,1.511-0.896s0.349-1.734,0.349-3.411v-0.465c-0.009-1.422-0.135-2.438-0.376-3.049
		c-0.242-0.61-0.727-0.916-1.456-0.916h-1.285L109.569,224.244L109.569,224.244z"/>
	<path d="M118.812,236.754v-24.062h8.066v3.158h-4.402v7h4.184v3.09h-4.184v7.656h4.566v3.158L118.812,236.754L118.812,236.754z"/>
	<path d="M134.808,225.447l-1.176-0.055v11.361h-3.664v-24.062h6.057c1.258,0,2.196,0.253,2.816,0.759s1.027,1.212,1.224,2.119
		s0.294,2.092,0.294,3.555s-0.155,2.577-0.465,3.343s-0.884,1.28-1.723,1.545c0.829,0.146,1.408,0.706,1.736,1.682
		s0.492,3.006,0.492,6.091s0.046,4.742,0.137,4.97h-3.664c-0.091-0.183-0.137-3.058-0.137-8.627c0-1.066-0.128-1.775-0.383-2.126
		S135.582,225.466,134.808,225.447z M133.646,222.549h1.463c0.465,0,0.809-0.104,1.032-0.314s0.378-0.569,0.465-1.08
		s0.13-1.29,0.13-2.338v-0.15c0-1.304-0.109-2.155-0.328-2.557s-0.725-0.602-1.518-0.602h-1.244L133.646,222.549L133.646,222.549z"
		/>
	<path d="M148.794,236.754v-24.062h3.664v20.945h4.635v3.117H148.794z"/>
	<path d="M159.335,236.754v-24.062h3.664v24.062H159.335z"/>
	<path d="M171.271,237c-1.513,0-2.695-0.595-3.548-1.784s-1.278-3.023-1.278-5.503v-10.459c0-2.224,0.436-3.919,1.306-5.086
		s2.254-1.75,4.149-1.75c2.36,0,3.86,0.88,4.498,2.639c0.383,1.058,0.574,2.502,0.574,4.334v1.709h-3.418v-2.516
		c0-1.103-0.116-1.878-0.349-2.324s-0.67-0.67-1.312-0.67s-1.096,0.267-1.36,0.8s-0.396,1.479-0.396,2.837v10.432
		c0,1.577,0.118,2.675,0.355,3.295s0.699,0.93,1.388,0.93s1.176-0.333,1.463-0.998s0.431-1.786,0.431-3.363v-3.24h-1.846v-2.666
		h5.045v13.139h-1.641l-0.561-2.365c-0.191,0.812-0.61,1.449-1.258,1.914S172.118,237,171.271,237z"/>
	<path d="M179.788,238.613v-2.734c0.812,0,1.331-0.212,1.559-0.636s0.342-1.328,0.342-2.714v-14.615c0-1.386-0.114-2.29-0.342-2.714
		s-0.747-0.636-1.559-0.636v-2.734c1.066,0,1.933,0.087,2.598,0.26s1.226,0.49,1.682,0.95s0.777,1.085,0.964,1.873
		s0.28,1.807,0.28,3.056v14.506c0,1.249-0.094,2.268-0.28,3.056s-0.508,1.412-0.964,1.873c-0.456,0.46-1.017,0.776-1.682,0.95
		C181.721,238.526,180.854,238.613,179.788,238.613z"/>
</g>
</svg>
