<?xml version="1.0" encoding="utf-8"?>
<!-- Generator: Adobe Illustrator 17.0.0, SVG Export Plug-In . SVG Version: 6.00 Build 0)  -->
<!DOCTYPE svg PUBLIC "-//W3C//DTD SVG 1.1//EN" "http://www.w3.org/Graphics/SVG/1.1/DTD/svg11.dtd">
<svg version="1.1" id="Layer_1" xmlns="http://www.w3.org/2000/svg" xmlns:xlink="http://www.w3.org/1999/xlink" x="0px" y="0px"
	 width="256px" height="256px" viewBox="0 0 256 256" enable-background="new 0 0 256 256" xml:space="preserve">
<polygon fill="#FFFF00" points="128,188.6 53.1,243.2 82,155.1 6.8,100.8 99.5,101 128,12.8 156.5,101 249.2,100.8 174,155.1 
	202.9,243.2 "/>
<path fill="#FFFFFF" d="M192,10.3c-17.1,0-32.4,8-42.3,20.6h-0.3v0.3c-7.1,9.1-11.4,20.6-11.4,33c0,29.7,24.2,53.9,53.9,53.9
	s53.9-24.2,53.9-53.9S221.7,10.3,192,10.3z"/>
<path d="M192,10.3c-17.1,0-32.4,8-42.3,20.6h-0.3v0.3c-7.1,9.1-11.4,20.6-11.4,33c0,29.7,24.2,53.9,53.9,53.9s53.9-24.2,53.9-53.9
	S221.7,10.3,192,10.3z M208.6,100.9l-23.1-3L183.7,78l17.6-10.7L217,82.4L208.6,100.9z M171.2,103.3L151.9,89l-2.1-14.7l11.8-7.4
	L181.5,78l1.9,20.2L171.2,103.3z M149.1,72.2L142,57.4l9.3-15.3l9.7,2l-0.2,20.8L149.1,72.2z M188.3,19l21.3,2.9l7.3,13.6l-16.1,7.9
	l-16.5-11.5L188.3,19z M231.4,74.4l-12.6,6.7l-16.9-16.2l0.2-19.7l16-7.9L232.3,50L231.4,74.4z M233.5,74.9l1-24.5l7.1-0.9
	c1.4,4.7,2.1,9.6,2.1,14.7c0,4.6-0.6,9-1.7,13.2L233.5,74.9z M240.9,47.4l-7.1,0.9l-14.6-13.1L212,21.9l6.1-2.4
	C228.7,25.7,236.9,35.6,240.9,47.4z M178.8,14.2l7.4,4.1L182,32.1L162.3,42l-10.5-2.1l-0.2-8.1C158.5,23.4,167.9,17,178.8,14.2z
	 M149.7,40.5l-8.5,14.1c1.4-7.3,4.3-14.1,8.4-20L149.7,40.5z M140.5,59.2l7.1,14.9l2.1,14.8l-2.9,0.4c-4.1-7.4-6.5-16-6.5-25.1
	C140.3,62.5,140.4,60.8,140.5,59.2z M172.4,112.1l-0.2-6.8l12.5-5.3l23.9,3.1l4.4,8.4c-6.4,2.9-13.5,4.5-21,4.5
	C185.1,115.9,178.5,114.5,172.4,112.1z"/>
<g>
	<path fill="none" stroke="#000000" stroke-width="3" stroke-miterlimit="10" d="M157.6,137"/>
	<path fill="#FF0000" d="M157.6,137"/>
</g>
<g>
	<path fill="#FFFFFF" d="M212.201,170.908c20.311-9.87,34.025-31.667,34.854-34.983s-0.465-4.074-2.759-6.529
		s-7.014-0.608-7.014-0.608s-21.381,17.239-31.376,24.017c-10.083,6.889-52.158,17.434-57.858,20.4s-45.229,15.535-51.906,24.048
		c0.008,2.717-1.925,9.58,5.033,6.169C108.132,200.01,178.713,187.014,212.201,170.908z"/>
	<g>
		<path fill="none" stroke="#000000" stroke-width="3" stroke-miterlimit="10" d="M183.545,142.981
			c3.344-0.684,6.08-1.399,8.144-1.836c4.403-1.107,9.478-2.492,16.186-4.567c8.837-2.821,18.639-7.766,22.27-8.584
			c6.379-1.433,12.325,0.403,12.325,0.403c2.878,2.288-21.438,20.265-27.277,24.656c-15.028,11.178-61.895,22.069-95.735,35.095
			c-12.056,4.598-17.353,9.33-17.353,9.33s9.311-3.077,15.888-4.533c14.611-3.381,78.39-16.003,94.869-25.938
			c21.273-12.898,32.049-31.341,32.171-34.676c5.004,7.682,1.413,14.131-1.709,18.514c-3.134,4.283-0.664,6.518-1.942,7.67
			c-0.715,0.786-4.286-0.517-7.358,2.552s-4.179,5.711-7.946,8.859c-3.778,3.049-0.775,6.43-3.185,9.121
			c-2.421,2.592-5.075-2.138-8.658-0.017c-3.571,2.22-5.621,3.662-11.84,6.486c-6.12,2.813-2.419,7.02-4.8,8.198
			c-2.26,1.365-6.552-4.485-11.238-2.339s-22.86,13.986-29.088,17.616c-6.327,3.642-1.32,12.229-3.324,14.068
			c-1.277,1.152-5.552-2.788-9.495-2.941c-2.319-0.037-4.556,1.527-6.847,3.5c-6.134,5.331-0.772,10.858-3.395,12.567
			s-4.499-1.499-9.098-2.986c-4.599-1.488-8.51,1.274-13.35-3.205c-23.268-21.296-19.177-44.511-19.177-44.511
			c1.681-2.91,2.666-2.217,7.417-1.149c4.741,0.968,12.87,1.65,18.82-2.654c5.851-4.292,12.099-15.675,11.52-20.742
			s-2.004-8.729,4.61-8.981c2.705-0.108,10.719-1.325,19.99-2.989l4.238-0.786C161.594,147.301,161.594,147.301,183.545,142.981z"/>
		<path fill="#00A566" d="M183.545,142.981c3.344-0.684,6.08-1.399,8.144-1.836c4.403-1.107,9.478-2.492,16.186-4.567
			c8.837-2.821,18.639-7.766,22.27-8.584c6.379-1.433,12.325,0.403,12.325,0.403c2.878,2.288-21.438,20.265-27.277,24.656
			c-15.028,11.178-61.895,22.069-95.735,35.095c-12.056,4.598-17.353,9.33-17.353,9.33s9.311-3.077,15.888-4.533
			c14.611-3.381,78.39-16.003,94.869-25.938c21.273-12.898,32.049-31.341,32.171-34.676c5.004,7.682,1.413,14.131-1.709,18.514
			c-3.134,4.283-0.664,6.518-1.942,7.67c-0.715,0.786-4.286-0.517-7.358,2.552s-4.179,5.711-7.946,8.859
			c-3.778,3.049-0.775,6.43-3.185,9.121c-2.421,2.592-5.075-2.138-8.658-0.017c-3.571,2.22-5.621,3.662-11.84,6.486
			c-6.12,2.813-2.419,7.02-4.8,8.198c-2.26,1.365-6.552-4.485-11.238-2.339s-22.86,13.986-29.088,17.616
			c-6.327,3.642-1.32,12.229-3.324,14.068c-1.277,1.152-5.552-2.788-9.495-2.941c-2.319-0.037-4.556,1.527-6.847,3.5
			c-6.134,5.331-0.772,10.858-3.395,12.567s-4.499-1.499-9.098-2.986c-4.599-1.488-8.51,1.274-13.35-3.205
			c-23.268-21.296-19.177-44.511-19.177-44.511c1.681-2.91,2.666-2.217,7.417-1.149c4.741,0.968,12.87,1.65,18.82-2.654
			c5.851-4.292,12.099-15.675,11.52-20.742s-2.004-8.729,4.61-8.981c2.705-0.108,10.719-1.325,19.99-2.989l4.238-0.786
			C161.594,147.301,161.594,147.301,183.545,142.981z"/>
	</g>
	<g>
		<g>
			<g>
				<path fill="none" stroke="#1D1D1B" stroke-width="3" d="M154.749,162.274c-0.199,0.023-0.397,0.045-0.607-0.031
					c-1.039-0.284-1.76-1.309-1.575-2.336l3.157-14.653c0.284-1.039,1.309-1.76,2.336-1.575c1.039,0.284,1.76,1.309,1.575,2.336
					l-3.157,14.653C156.282,161.596,155.544,162.184,154.749,162.274z"/>
			</g>
			<g>
				<path fill="none" stroke="#1D1D1B" stroke-width="3" d="M163.904,158.712c-0.199,0.023-0.397,0.045-0.607-0.031
					c-1.039-0.284-1.76-1.309-1.575-2.336l2.481-11.758c0.284-1.039,1.309-1.76,2.336-1.575c1.039,0.284,1.76,1.309,1.575,2.336
					l-2.481,11.758C165.437,158.034,164.699,158.621,163.904,158.712z"/>
			</g>
			<g>
				<path fill="none" stroke="#1D1D1B" stroke-width="3" d="M171.571,156.226c-0.199,0.023-0.397,0.045-0.607-0.031
					c-1.039-0.284-1.76-1.309-1.575-2.336l2.351-11.139c0.284-1.039,1.309-1.76,2.336-1.575c1.039,0.284,1.76,1.309,1.575,2.336
					L173.3,154.62C173.104,155.547,172.366,156.135,171.571,156.226z"/>
			</g>
			<g>
				<path fill="none" stroke="#1D1D1B" stroke-width="3" d="M180.238,151.914c-0.199,0.023-0.397,0.045-0.607-0.031
					c-1.039-0.284-1.76-1.309-1.575-2.336l1.905-8.874c0.284-1.039,1.309-1.76,2.336-1.575c1.039,0.284,1.76,1.309,1.575,2.336
					l-1.905,8.874C181.771,151.235,181.033,151.823,180.238,151.914z"/>
			</g>
		</g>
		<g>
			<g>
				<path fill="#FFFF00" d="M154.749,162.274c-0.199,0.023-0.397,0.045-0.607-0.031c-1.039-0.284-1.76-1.309-1.575-2.336
					l3.157-14.653c0.284-1.039,1.309-1.76,2.336-1.575c1.039,0.284,1.76,1.309,1.575,2.336l-3.157,14.653
					C156.282,161.596,155.544,162.184,154.749,162.274z"/>
			</g>
			<g>
				<path fill="#FFFF00" d="M163.904,158.712c-0.199,0.023-0.397,0.045-0.607-0.031c-1.039-0.284-1.76-1.309-1.575-2.336
					l2.481-11.758c0.284-1.039,1.309-1.76,2.336-1.575c1.039,0.284,1.76,1.309,1.575,2.336l-2.481,11.758
					C165.437,158.034,164.699,158.621,163.904,158.712z"/>
			</g>
			<g>
				<path fill="#FFFF00" d="M171.571,156.226c-0.199,0.023-0.397,0.045-0.607-0.031c-1.039-0.284-1.76-1.309-1.575-2.336
					l2.351-11.139c0.284-1.039,1.309-1.76,2.336-1.575c1.039,0.284,1.76,1.309,1.575,2.336L173.3,154.62
					C173.104,155.547,172.366,156.135,171.571,156.226z"/>
			</g>
			<g>
				<path fill="#FFFF00" d="M180.238,151.914c-0.199,0.023-0.397,0.045-0.607-0.031c-1.039-0.284-1.76-1.309-1.575-2.336
					l1.905-8.874c0.284-1.039,1.309-1.76,2.336-1.575c1.039,0.284,1.76,1.309,1.575,2.336l-1.905,8.874
					C181.771,151.235,181.033,151.823,180.238,151.914z"/>
			</g>
		</g>
	</g>
</g>
<g>
	<circle fill="#D80027" cx="191.4" cy="65.3" r="41"/>
	<polygon fill="#F0F0F0" points="189.8,57.8 193.1,62.4 198.6,60.7 195.2,65.3 198.6,69.9 193.1,68.1 189.7,72.8 189.8,67.1 
		184.3,65.3 189.8,63.5 	"/>
	<path fill="#F0F0F0" d="M180.6,76.9c-6.4,0-11.6-5.2-11.6-11.6s5.2-11.6,11.6-11.6c2,0,3.9,0.5,5.5,1.4c-2.6-2.5-6.1-4.1-10-4.1
		c-7.9,0-14.2,6.4-14.2,14.2s6.4,14.2,14.2,14.2c3.9,0,7.4-1.6,10-4.1C184.5,76.4,182.6,76.9,180.6,76.9z"/>
</g>
<ellipse fill="none" stroke="#000000" stroke-width="1.4754" stroke-miterlimit="10" cx="191.6" cy="65.2" rx="40.8" ry="40.6"/>
<g>
	<path d="M20.501,126.833v-14.922H18.49v-2.266h6.553v2.266h-1.934v14.922H20.501z"/>
	<path d="M33.07,125.911c-0.599,0.746-1.561,1.118-2.886,1.118s-2.289-0.375-2.891-1.123s-0.903-1.911-0.903-3.486v-12.783h2.617
		v12.734c0,0.905,0.042,1.455,0.127,1.65s0.187,0.373,0.308,0.532s0.37,0.239,0.747,0.239s0.648-0.111,0.811-0.332
		s0.262-0.497,0.298-0.825s0.054-0.75,0.054-1.265v-12.734h2.617v12.783C33.968,124.001,33.669,125.165,33.07,125.911z
		 M26.488,108.474v-2.207h2.754v2.207H26.488z M31.214,108.474v-2.207h2.754v2.207H31.214z"/>
	<path d="M39.906,118.757l-0.84-0.039v8.115h-2.617v-17.188h4.326c0.898,0,1.569,0.181,2.012,0.542s0.734,0.866,0.874,1.514
		s0.21,1.494,0.21,2.539s-0.111,1.841-0.332,2.388s-0.631,0.915-1.23,1.104c0.592,0.104,1.006,0.504,1.24,1.201
		s0.352,2.147,0.352,4.351s0.033,3.387,0.098,3.55H41.38c-0.065-0.13-0.098-2.184-0.098-6.162c0-0.762-0.091-1.268-0.273-1.519
		S40.459,118.771,39.906,118.757z M39.076,116.687h1.045c0.332,0,0.578-0.075,0.737-0.225s0.27-0.407,0.332-0.771
		s0.093-0.921,0.093-1.67v-0.107c0-0.931-0.078-1.54-0.234-1.826s-0.518-0.43-1.084-0.43h-0.889
		C39.076,111.658,39.076,116.687,39.076,116.687z"/>
	<path d="M46.312,126.833v-17.188h2.617v7.91l2.617-7.91h2.705l-2.852,8.477l3.076,8.711h-2.764l-2.764-8.027v8.027H46.312z"/>
	<path d="M55.882,126.833v-17.188H58.5v17.188C58.5,126.833,55.882,126.833,55.882,126.833z"/>
	<path d="M60.833,122v-1.533h2.48v1.729c0,0.957,0.082,1.629,0.244,2.017s0.469,0.581,0.918,0.581s0.747-0.16,0.894-0.479
		s0.22-0.84,0.22-1.562s-0.13-1.353-0.391-1.89s-0.674-1.099-1.24-1.685l-1.27-1.309c-0.592-0.619-1.053-1.26-1.382-1.924
		s-0.493-1.432-0.493-2.305c0-1.419,0.273-2.474,0.82-3.164s1.488-1.035,2.822-1.035s2.238,0.402,2.71,1.206
		s0.708,1.978,0.708,3.521v1.064h-2.412v-1.23c0-0.833-0.072-1.431-0.215-1.792s-0.418-0.542-0.825-0.542s-0.7,0.137-0.879,0.41
		s-0.269,0.684-0.269,1.23s0.091,0.983,0.273,1.309s0.511,0.742,0.986,1.25l1.416,1.533c0.709,0.768,1.245,1.546,1.606,2.334
		s0.542,1.647,0.542,2.578c0,1.608-0.27,2.796-0.811,3.564s-1.486,1.152-2.837,1.152s-2.292-0.428-2.822-1.284
		S60.833,123.64,60.833,122z"/>
	<path d="M76.38,125.833c-0.592,0.797-1.523,1.196-2.793,1.196s-2.218-0.425-2.847-1.274s-0.942-2.072-0.942-3.667v-7.49
		c0-2.559,0.67-4.157,2.012-4.795c0.495-0.234,1.094-0.352,1.797-0.352c2.416,0,3.623,1.523,3.623,4.57v2.363h-2.529v-2.197
		c0-0.885-0.075-1.519-0.225-1.899s-0.443-0.571-0.879-0.571s-0.739,0.202-0.908,0.605s-0.254,1.022-0.254,1.855v8.027
		c0,0.924,0.082,1.585,0.244,1.982s0.459,0.596,0.889,0.596s0.726-0.202,0.889-0.605s0.244-1.071,0.244-2.002v-2.461h2.568v2.432
		C77.269,123.806,76.973,125.035,76.38,125.833z"/>
	<path d="M79.398,126.833v-17.188h2.617v6.953h2.344v-6.953h2.617v17.188h-2.617v-7.988h-2.344v7.988
		C82.015,126.833,79.398,126.833,79.398,126.833z"/>
	<path d="M89.554,126.833v-17.188h5.762v2.256h-3.145v5h2.988v2.207h-2.988v5.469h3.262v2.256H89.554z"/>
	<path d="M100.98,118.757l-0.84-0.039v8.115h-2.617v-17.188h4.326c0.898,0,1.569,0.181,2.012,0.542s0.734,0.866,0.874,1.514
		s0.21,1.494,0.21,2.539s-0.111,1.841-0.332,2.388s-0.631,0.915-1.23,1.104c0.592,0.104,1.006,0.504,1.24,1.201
		s0.352,2.147,0.352,4.351s0.033,3.387,0.098,3.55h-2.617c-0.065-0.13-0.098-2.184-0.098-6.162c0-0.762-0.091-1.268-0.273-1.519
		S101.533,118.771,100.98,118.757z M100.15,116.687h1.045c0.332,0,0.578-0.075,0.737-0.225s0.27-0.407,0.332-0.771
		s0.093-0.921,0.093-1.67v-0.107c0-0.931-0.078-1.54-0.234-1.826s-0.518-0.43-1.084-0.43h-0.889V116.687z"/>
	<path d="M19.613,150.833v-17.188h5.898v2.275H22.23v4.57h3.047v2.285H22.23v8.057L19.613,150.833L19.613,150.833z"/>
	<path d="M33.978,149.91c-0.599,0.746-1.561,1.118-2.886,1.118s-2.289-0.374-2.891-1.123c-0.602-0.748-0.903-1.91-0.903-3.486
		v-12.783h2.617v12.734c0,0.905,0.042,1.455,0.127,1.65s0.187,0.373,0.308,0.532c0.121,0.16,0.37,0.239,0.747,0.239
		s0.648-0.11,0.811-0.332c0.163-0.221,0.262-0.496,0.298-0.825c0.036-0.328,0.054-0.75,0.054-1.265v-12.734h2.617v12.783
		C34.876,148.001,34.577,149.165,33.978,149.91z"/>
	<path d="M37.015,145.999v-1.533h2.48v1.729c0,0.957,0.082,1.63,0.244,2.017c0.163,0.388,0.469,0.581,0.918,0.581
		s0.747-0.159,0.894-0.479c0.146-0.318,0.22-0.84,0.22-1.562s-0.13-1.353-0.391-1.89s-0.674-1.099-1.24-1.685l-1.27-1.309
		c-0.592-0.618-1.053-1.26-1.382-1.924s-0.493-1.432-0.493-2.305c0-1.419,0.273-2.474,0.82-3.164
		c0.547-0.689,1.488-1.035,2.822-1.035s2.238,0.402,2.71,1.206c0.472,0.805,0.708,1.978,0.708,3.521v1.064h-2.412v-1.23
		c0-0.833-0.072-1.431-0.215-1.792s-0.418-0.542-0.825-0.542s-0.7,0.137-0.879,0.41s-0.269,0.684-0.269,1.23
		s0.091,0.983,0.273,1.309s0.511,0.742,0.986,1.25l1.416,1.533c0.709,0.769,1.245,1.547,1.606,2.334
		c0.361,0.788,0.542,1.647,0.542,2.578c0,1.608-0.27,2.797-0.811,3.564c-0.541,0.769-1.486,1.152-2.837,1.152
		s-2.292-0.428-2.822-1.284C37.28,148.889,37.015,147.64,37.015,145.999z"/>
	<path d="M45.853,145.999v-1.533h2.48v1.729c0,0.957,0.082,1.63,0.244,2.017c0.163,0.388,0.469,0.581,0.918,0.581
		s0.747-0.159,0.894-0.479c0.146-0.318,0.22-0.84,0.22-1.562s-0.13-1.353-0.391-1.89s-0.674-1.099-1.24-1.685l-1.27-1.309
		c-0.592-0.618-1.053-1.26-1.382-1.924s-0.493-1.432-0.493-2.305c0-1.419,0.273-2.474,0.82-3.164
		c0.547-0.689,1.488-1.035,2.822-1.035s2.238,0.402,2.71,1.206c0.472,0.805,0.708,1.978,0.708,3.521v1.064h-2.412v-1.23
		c0-0.833-0.072-1.431-0.215-1.792s-0.418-0.542-0.825-0.542s-0.7,0.137-0.879,0.41s-0.269,0.684-0.269,1.23
		s0.091,0.983,0.273,1.309s0.511,0.742,0.986,1.25l1.416,1.533c0.709,0.769,1.245,1.547,1.606,2.334
		c0.361,0.788,0.542,1.647,0.542,2.578c0,1.608-0.27,2.797-0.811,3.564c-0.541,0.769-1.486,1.152-2.837,1.152
		s-2.292-0.428-2.822-1.284C46.118,148.889,45.853,147.64,45.853,145.999z"/>
	<path d="M62.386,138.06c0,1.85-0.501,2.985-1.504,3.408c1.224,0.41,1.836,1.762,1.836,4.053v0.439
		c-0.013,1.726-0.314,2.969-0.903,3.73s-1.551,1.143-2.886,1.143H55.13v-17.188h3.721c1.283,0,2.191,0.298,2.725,0.894
		s0.804,1.594,0.811,2.993L62.386,138.06L62.386,138.06z M57.748,140.599h0.967c0.449,0,0.744-0.143,0.884-0.43
		c0.14-0.286,0.21-0.875,0.21-1.768v-1.035c-0.006-0.664-0.098-1.108-0.273-1.333s-0.479-0.337-0.908-0.337h-0.879L57.748,140.599
		L57.748,140.599z M57.748,148.802h0.928c0.521,0,0.885-0.179,1.094-0.537c0.208-0.357,0.312-0.999,0.312-1.924v-1.387
		c0-0.872-0.084-1.489-0.254-1.851s-0.495-0.542-0.977-0.542h-1.104L57.748,148.802L57.748,148.802z"/>
	<path d="M63.978,150.833l2.451-17.188h3.457l2.607,17.188h-2.441l-0.41-3.066h-2.773l-0.371,3.066H63.978z M69.369,145.667
		l-1.152-8.633h-0.039l-1.055,8.633H69.369z"/>
	<path d="M74.291,150.833v-17.188h2.617v14.961h3.311v2.227H74.291z"/>
	<path d="M81.722,150.833v-17.188h2.617v14.961h3.311v2.227H81.722z"/>
	<path d="M89.154,150.833v-17.188h5.762v2.256h-3.145v5h2.988v2.207h-2.988v5.469h3.262v2.256L89.154,150.833L89.154,150.833z"/>
	<path d="M100.58,142.757l-0.84-0.039v8.115h-2.617v-17.188h4.326c0.898,0,1.569,0.181,2.012,0.542s0.734,0.866,0.874,1.514
		c0.14,0.648,0.21,1.494,0.21,2.539s-0.111,1.841-0.332,2.388s-0.631,0.915-1.23,1.104c0.592,0.104,1.006,0.505,1.24,1.201
		c0.234,0.697,0.352,2.147,0.352,4.351s0.033,3.388,0.098,3.55h-2.617c-0.065-0.13-0.098-2.184-0.098-6.162
		c0-0.762-0.091-1.268-0.273-1.519C101.501,142.902,101.133,142.771,100.58,142.757z M99.75,140.687h1.045
		c0.332,0,0.578-0.074,0.737-0.225c0.16-0.149,0.27-0.406,0.332-0.771c0.062-0.364,0.093-0.921,0.093-1.67v-0.107
		c0-0.931-0.078-1.539-0.234-1.826c-0.156-0.286-0.518-0.43-1.084-0.43H99.75V140.687z"/>
	<path d="M19.613,174.833v-17.188h3.857c1.263,0,2.179,0.373,2.749,1.118c0.57,0.746,0.854,1.845,0.854,3.296l0.01,7.754
		c0,1.732-0.287,3.002-0.859,3.809c-0.573,0.808-1.52,1.211-2.842,1.211H19.613z M22.23,172.802h0.859
		c0.482,0,0.832-0.156,1.05-0.469s0.327-0.885,0.327-1.719l-0.01-8.486c0-0.892-0.109-1.526-0.327-1.904
		c-0.218-0.377-0.594-0.566-1.128-0.566H22.23V172.802z"/>
	<path d="M29.437,174.833v-17.188h5.762v2.256h-3.145v5h2.988v2.207h-2.988v5.469h3.262v2.256L29.437,174.833L29.437,174.833z"/>
	<path d="M37.064,169.999v-1.533h2.48v1.729c0,0.957,0.082,1.63,0.244,2.017c0.163,0.388,0.469,0.581,0.918,0.581
		s0.747-0.159,0.894-0.479c0.146-0.318,0.22-0.84,0.22-1.562s-0.13-1.353-0.391-1.89s-0.674-1.099-1.24-1.685l-1.27-1.309
		c-0.592-0.618-1.053-1.26-1.382-1.924s-0.493-1.432-0.493-2.305c0-1.419,0.273-2.474,0.82-3.164
		c0.547-0.689,1.488-1.035,2.822-1.035s2.238,0.402,2.71,1.206c0.472,0.805,0.708,1.978,0.708,3.521v1.064h-2.412v-1.23
		c0-0.833-0.072-1.431-0.215-1.792s-0.418-0.542-0.825-0.542s-0.7,0.137-0.879,0.41s-0.269,0.684-0.269,1.23
		s0.091,0.983,0.273,1.309s0.511,0.742,0.986,1.25l1.416,1.533c0.709,0.769,1.245,1.547,1.606,2.334
		c0.361,0.788,0.542,1.647,0.542,2.578c0,1.608-0.27,2.797-0.811,3.564c-0.541,0.769-1.486,1.152-2.837,1.152
		s-2.292-0.428-2.822-1.284C37.329,172.889,37.064,171.64,37.064,169.999z"/>
	<path d="M55.365,173.881c-0.619,0.766-1.489,1.147-2.612,1.147s-1.996-0.34-2.617-1.021c-0.622-0.68-0.933-1.671-0.933-2.974
		v-3.066h2.529v2.939c0,0.951,0.153,1.53,0.459,1.738c0.137,0.092,0.306,0.137,0.508,0.137c0.397,0,0.659-0.162,0.786-0.488
		c0.127-0.325,0.19-0.84,0.19-1.543v-13.105h2.617v12.979C56.292,172.03,55.983,173.116,55.365,173.881z"/>
	<path d="M57.992,174.833l2.451-17.188H63.9l2.607,17.188h-2.441l-0.41-3.066h-2.773l-0.371,3.066H57.992z M63.382,169.667
		l-1.152-8.633h-0.039l-1.055,8.633H63.382z"/>
	<path d="M68.304,174.833v-17.188h2.617v6.953h2.344v-6.953h2.617v17.188h-2.617v-7.988h-2.344v7.988H68.304z"/>
	<path d="M81.917,166.757l-0.84-0.039v8.115H78.46v-17.188h4.326c0.898,0,1.569,0.181,2.012,0.542s0.734,0.866,0.874,1.514
		c0.14,0.648,0.21,1.494,0.21,2.539s-0.111,1.841-0.332,2.388s-0.631,0.915-1.23,1.104c0.592,0.104,1.006,0.505,1.24,1.201
		c0.234,0.697,0.352,2.147,0.352,4.351s0.033,3.388,0.098,3.55h-2.617c-0.065-0.13-0.098-2.184-0.098-6.162
		c0-0.762-0.091-1.268-0.273-1.519C82.839,166.902,82.471,166.771,81.917,166.757z M81.087,164.687h1.045
		c0.332,0,0.578-0.074,0.737-0.225c0.16-0.149,0.27-0.406,0.332-0.771c0.062-0.364,0.093-0.921,0.093-1.67v-0.107
		c0-0.931-0.078-1.539-0.234-1.826c-0.156-0.286-0.518-0.43-1.084-0.43h-0.889V164.687z"/>
	<path d="M88.324,174.833v-17.188h5.762v2.256h-3.145v5h2.988v2.207h-2.988v5.469h3.262v2.256L88.324,174.833L88.324,174.833z"/>
	<path d="M95.951,169.999v-1.533h2.48v1.729c0,0.957,0.082,1.63,0.244,2.017c0.163,0.388,0.469,0.581,0.918,0.581
		s0.747-0.159,0.894-0.479c0.146-0.318,0.22-0.84,0.22-1.562s-0.13-1.353-0.391-1.89s-0.674-1.099-1.24-1.685l-1.27-1.309
		c-0.592-0.618-1.053-1.26-1.382-1.924s-0.493-1.432-0.493-2.305c0-1.419,0.273-2.474,0.82-3.164
		c0.547-0.689,1.488-1.035,2.822-1.035s2.238,0.402,2.71,1.206c0.472,0.805,0.708,1.978,0.708,3.521v1.064h-2.412v-1.23
		c0-0.833-0.072-1.431-0.215-1.792s-0.418-0.542-0.825-0.542s-0.7,0.137-0.879,0.41s-0.269,0.684-0.269,1.23
		s0.091,0.983,0.273,1.309s0.511,0.742,0.986,1.25l1.416,1.533c0.709,0.769,1.245,1.547,1.606,2.334
		c0.361,0.788,0.542,1.647,0.542,2.578c0,1.608-0.27,2.797-0.811,3.564c-0.541,0.769-1.486,1.152-2.837,1.152
		s-2.292-0.428-2.822-1.284C96.216,172.889,95.951,171.64,95.951,169.999z"/>
</g>
</svg>
