<?xml version="1.0" encoding="utf-8"?>
<!-- Generator: Adobe Illustrator 17.0.0, SVG Export Plug-In . SVG Version: 6.00 Build 0)  -->
<!DOCTYPE svg PUBLIC "-//W3C//DTD SVG 1.1//EN" "http://www.w3.org/Graphics/SVG/1.1/DTD/svg11.dtd">
<svg version="1.1" id="Layer_1" xmlns="http://www.w3.org/2000/svg" xmlns:xlink="http://www.w3.org/1999/xlink" x="0px" y="0px"
	 width="256px" height="256px" viewBox="0 0 256 256" enable-background="new 0 0 256 256" xml:space="preserve">
<polygon fill="#FFFF00" points="128,188.6 53.1,243.2 82,155.1 6.8,100.8 99.5,101 128,12.8 156.5,101 249.2,100.8 174,155.1 
	202.9,243.2 "/>
<path fill="#FFFFFF" d="M192,10.3c-17.1,0-32.4,8-42.3,20.6h-0.3v0.3c-7.1,9.1-11.4,20.6-11.4,33c0,29.7,24.2,53.9,53.9,53.9
	s53.9-24.2,53.9-53.9S221.7,10.3,192,10.3z"/>
<path d="M192,10.3c-17.1,0-32.4,8-42.3,20.6h-0.3v0.3c-7.1,9.1-11.4,20.6-11.4,33c0,29.7,24.2,53.9,53.9,53.9s53.9-24.2,53.9-53.9
	S221.7,10.3,192,10.3z M208.6,100.9l-23.1-3L183.7,78l17.6-10.7L217,82.4L208.6,100.9z M171.2,103.3L151.9,89l-2.1-14.7l11.8-7.4
	L181.5,78l1.9,20.2L171.2,103.3z M149.1,72.2L142,57.4l9.3-15.3l9.7,2l-0.2,20.8L149.1,72.2z M188.3,19l21.3,2.9l7.3,13.6l-16.1,7.9
	l-16.5-11.5L188.3,19z M231.4,74.4l-12.6,6.7l-16.9-16.2l0.2-19.7l16-7.9L232.3,50L231.4,74.4z M233.5,74.9l1-24.5l7.1-0.9
	c1.4,4.7,2.1,9.6,2.1,14.7c0,4.6-0.6,9-1.7,13.2L233.5,74.9z M240.9,47.4l-7.1,0.9l-14.6-13.1L212,21.9l6.1-2.4
	C228.7,25.7,236.9,35.6,240.9,47.4z M178.8,14.2l7.4,4.1L182,32.1L162.3,42l-10.5-2.1l-0.2-8.1C158.5,23.4,167.9,17,178.8,14.2z
	 M149.7,40.5l-8.5,14.1c1.4-7.3,4.3-14.1,8.4-20L149.7,40.5z M140.5,59.2l7.1,14.9l2.1,14.8l-2.9,0.4c-4.1-7.4-6.5-16-6.5-25.1
	C140.3,62.5,140.4,60.8,140.5,59.2z M172.4,112.1l-0.2-6.8l12.5-5.3l23.9,3.1l4.4,8.4c-6.4,2.9-13.5,4.5-21,4.5
	C185.1,115.9,178.5,114.5,172.4,112.1z"/>
<g>
	<path fill="none" stroke="#000000" stroke-width="3" stroke-miterlimit="10" d="M157.6,137"/>
	<path fill="#FF0000" d="M157.6,137"/>
</g>
<g>
	<path fill="#FFFFFF" d="M211.4,170.1c20.7-9,35.3-30.2,36.3-33.5c0.9-3.3-0.3-4.1-2.5-6.6c-2.2-2.6-7-0.8-7-0.8
		s-22.1,16.3-32.3,22.7s-52.7,15.2-58.5,18s-45.8,13.7-52.9,21.9c-0.1,2.7-2.3,9.5,4.8,6.3C106.3,194.8,177.3,184.8,211.4,170.1z"/>
	<g>
		<path fill="none" stroke="#000000" stroke-width="3" stroke-miterlimit="10" d="M183.9,141c3.3-0.6,6.2-1.1,8.2-1.5
			c4.4-1,9.6-2.1,16.3-3.9c8.9-2.5,18.9-7,22.6-7.6c6.4-1.2,12.3,0.9,12.3,0.9c2.7,2.4-22.3,19.4-28.3,23.5
			c-15.5,10.6-62.8,19.5-97.1,31.1c-12.2,4.1-17.8,8.6-17.8,8.6s9.4-2.7,16.1-3.9c14.7-2.8,79-12.7,95.8-22
			c21.8-12,33.3-29.9,33.6-33.3c4.7,7.9,0.8,14.2-2.4,18.4s-0.9,6.5-2.3,7.6c-0.7,0.7-4.3-0.7-7.4,2.2c-3.2,2.9-4.4,5.6-8.3,8.5
			c-3.9,2.9-1,6.4-3.6,8.9c-2.5,2.5-5-2.4-8.6-0.3c-3.7,2-5.7,3.4-12.1,6c-6.2,2.5-2.7,6.9-5.2,8c-2.4,1.3-6.4-4.8-11.2-2.8
			c-4.8,1.9-23.4,13-29.8,16.4c-6.4,3.4-1.8,12.2-3.9,13.9c-1.3,1.1-5.5-3-9.4-3.3c-2.3-0.2-4.6,1.3-7,3.2
			c-6.3,5.1-1.3,10.8-3.9,12.4c-2.6,1.6-4.4-1.7-9-3.4s-8.5,0.9-13.2-3.7C85.9,202.7,91,179.6,91,179.6c1.8-2.9,2.8-2.1,7.5-0.9
			c4.7,1.2,12.8,2.1,18.9-1.9c6-4,12.8-15.1,12.4-20.3c-0.4-5.1-1.7-8.8,5-8.8c2.7,0,10.7-0.9,20.1-2.1l4.3-0.6
			C161.8,144.4,161.8,144.4,183.9,141z"/>
		<path fill="#0095EB" d="M183.9,141c3.3-0.6,6.2-1.1,8.2-1.5c4.4-1,9.6-2.1,16.3-3.9c8.9-2.5,18.9-7,22.6-7.6
			c6.4-1.2,12.3,0.9,12.3,0.9c2.7,2.4-22.3,19.4-28.3,23.5c-15.5,10.6-62.8,19.5-97.1,31.1c-12.2,4.1-17.8,8.6-17.8,8.6
			s9.4-2.7,16.1-3.9c14.7-2.8,79-12.7,95.8-22c21.8-12,33.3-29.9,33.6-33.3c4.7,7.9,0.8,14.2-2.4,18.4s-0.9,6.5-2.3,7.6
			c-0.7,0.7-4.3-0.7-7.4,2.2c-3.2,2.9-4.4,5.6-8.3,8.5c-3.9,2.9-1,6.4-3.6,8.9c-2.5,2.5-5-2.4-8.6-0.3c-3.7,2-5.7,3.4-12.1,6
			c-6.2,2.5-2.7,6.9-5.2,8c-2.4,1.3-6.4-4.8-11.2-2.8c-4.8,1.9-23.4,13-29.8,16.4c-6.4,3.4-1.8,12.2-3.9,13.9
			c-1.3,1.1-5.5-3-9.4-3.3c-2.3-0.2-4.6,1.3-7,3.2c-6.3,5.1-1.3,10.8-3.9,12.4c-2.6,1.6-4.4-1.7-9-3.4s-8.5,0.9-13.2-3.7
			C85.9,202.7,91,179.6,91,179.6c1.8-2.9,2.8-2.1,7.5-0.9c4.7,1.2,12.8,2.1,18.9-1.9c6-4,12.8-15.1,12.4-20.3
			c-0.4-5.1-1.7-8.8,5-8.8c2.7,0,10.7-0.9,20.1-2.1l4.3-0.6C161.8,144.4,161.8,144.4,183.9,141z"/>
	</g>
	<g>
		<g>
			<g>
				<path fill="none" stroke="#1D1D1B" stroke-width="3" d="M154.3,159.1c-0.2,0-0.4,0-0.6-0.1c-1.1-0.3-1.7-1.4-1.4-2.4l3.7-14.5
					c0.3-1.1,1.4-1.7,2.4-1.4c1.1,0.3,1.7,1.4,1.4,2.4l-3.7,14.5C155.9,158.5,155.2,159,154.3,159.1z"/>
			</g>
			<g>
				<path fill="none" stroke="#1D1D1B" stroke-width="3" d="M163.7,156c-0.2,0-0.4,0-0.6-0.1c-1.1-0.3-1.7-1.4-1.4-2.4l3-11.6
					c0.3-1.1,1.4-1.7,2.4-1.4c1.1,0.3,1.7,1.4,1.4,2.4l-3,11.6C165.3,155.3,164.5,155.9,163.7,156z"/>
			</g>
			<g>
				<path fill="none" stroke="#1D1D1B" stroke-width="3" d="M171.4,153.7c-0.2,0-0.4,0-0.6-0.1c-1.1-0.3-1.7-1.4-1.4-2.4l2.9-11
					c0.3-1.1,1.4-1.7,2.4-1.4c1.1,0.3,1.7,1.4,1.4,2.4l-2.9,11C173,153.1,172.3,153.7,171.4,153.7z"/>
			</g>
			<g>
				<path fill="none" stroke="#1D1D1B" stroke-width="3" d="M180.2,149.8c-0.2,0-0.4,0-0.6-0.1c-1.1-0.3-1.7-1.4-1.4-2.4l2.3-8.8
					c0.3-1.1,1.4-1.7,2.4-1.4c1.1,0.3,1.7,1.4,1.4,2.4l-2.3,8.8C181.8,149.2,181.1,149.7,180.2,149.8z"/>
			</g>
		</g>
		<g>
			<g>
				<path fill="#FFFF00" d="M154.3,159.1c-0.2,0-0.4,0-0.6-0.1c-1.1-0.3-1.7-1.4-1.4-2.4l3.7-14.5c0.3-1.1,1.4-1.7,2.4-1.4
					c1.1,0.3,1.7,1.4,1.4,2.4l-3.7,14.5C155.9,158.5,155.2,159,154.3,159.1z"/>
			</g>
			<g>
				<path fill="#FFFF00" d="M163.7,156c-0.2,0-0.4,0-0.6-0.1c-1.1-0.3-1.7-1.4-1.4-2.4l3-11.6c0.3-1.1,1.4-1.7,2.4-1.4
					c1.1,0.3,1.7,1.4,1.4,2.4l-3,11.6C165.3,155.3,164.5,155.9,163.7,156z"/>
			</g>
			<g>
				<path fill="#FFFF00" d="M171.4,153.7c-0.2,0-0.4,0-0.6-0.1c-1.1-0.3-1.7-1.4-1.4-2.4l2.9-11c0.3-1.1,1.4-1.7,2.4-1.4
					c1.1,0.3,1.7,1.4,1.4,2.4l-2.9,11C173,153.1,172.3,153.7,171.4,153.7z"/>
			</g>
			<g>
				<path fill="#FFFF00" d="M180.2,149.8c-0.2,0-0.4,0-0.6-0.1c-1.1-0.3-1.7-1.4-1.4-2.4l2.3-8.8c0.3-1.1,1.4-1.7,2.4-1.4
					c1.1,0.3,1.7,1.4,1.4,2.4l-2.3,8.8C181.8,149.2,181.1,149.7,180.2,149.8z"/>
			</g>
		</g>
	</g>
</g>
<g>
	<ellipse fill="#272A9B" stroke="#000000" stroke-miterlimit="10" cx="191.6" cy="65.2" rx="40.8" ry="40.6"/>
	<g>
		<path fill="#FFFFFF" d="M175,76.8c-1,1.3-2.6,1.9-4.9,1.9s-3.8-0.6-4.9-1.9c-1-1.3-1.5-3.2-1.5-5.9V49.4h4.4v21.4
			c0,1.5,0.1,2.4,0.2,2.8c0.1,0.3,0.3,0.6,0.5,0.9s0.6,0.4,1.3,0.4s1.1-0.2,1.4-0.6c0.3-0.4,0.4-0.8,0.5-1.4s0.1-1.3,0.1-2.1V49.4
			h4.4v21.5C176.5,73.5,176,75.5,175,76.8z"/>
		<path fill="#FFFFFF" d="M180.7,78.3V49.4h9.7v3.8h-5.3v8.4h5v3.7h-5v9.2h5.5v3.8C190.6,78.3,180.7,78.3,180.7,78.3z"/>
		<path fill="#FFFFFF" d="M194.1,78.3V49.4h9.9v3.8h-5.5v7.7h5.1v3.8h-5.1v13.6H194.1z"/>
		<path fill="#FFFFFF" d="M205.5,78.3l4.1-28.9h5.8l4.4,28.9h-4.1l-0.7-5.2h-4.7l-0.6,5.2H205.5z M214.6,69.6l-1.9-14.5h-0.1
			l-1.8,14.5H214.6z"/>
	</g>
</g>
<g>
	<path d="M21.581,121.6v-1.533h2.48v1.729c0,0.957,0.082,1.629,0.244,2.017s0.469,0.581,0.918,0.581s0.747-0.16,0.894-0.479
		s0.22-0.84,0.22-1.562s-0.13-1.353-0.391-1.89s-0.674-1.099-1.24-1.685l-1.27-1.309c-0.592-0.619-1.053-1.26-1.382-1.924
		s-0.493-1.432-0.493-2.305c0-1.419,0.273-2.474,0.82-3.164s1.488-1.035,2.822-1.035s2.238,0.402,2.71,1.206
		s0.708,1.978,0.708,3.521v1.064h-2.412v-1.23c0-0.833-0.072-1.431-0.215-1.792s-0.418-0.542-0.825-0.542s-0.7,0.137-0.879,0.41
		s-0.269,0.684-0.269,1.23s0.091,0.983,0.273,1.309s0.511,0.742,0.986,1.25L26.698,117c0.709,0.768,1.245,1.546,1.606,2.334
		s0.542,1.647,0.542,2.578c0,1.608-0.27,2.796-0.811,3.564s-1.486,1.152-2.837,1.152s-2.292-0.428-2.822-1.284
		S21.581,123.24,21.581,121.6z"/>
	<path d="M30.76,126.433v-17.188h3.945c1.334,0,2.248,0.405,2.739,1.216s0.75,2.02,0.776,3.628v0.361c0,1.706-0.243,3-0.728,3.882
		s-1.385,1.323-2.7,1.323h-1.416v6.777L30.76,126.433L30.76,126.433z M33.377,117.498h0.898c0.553,0,0.913-0.213,1.079-0.64
		s0.249-1.239,0.249-2.437v-0.332c-0.006-1.016-0.096-1.742-0.269-2.178s-0.519-0.654-1.04-0.654h-0.918v6.241H33.377z"/>
	<path d="M40.077,126.433v-17.188h2.617v17.188H40.077z"/>
	<path d="M45.37,126.433v-17.188h5.762v2.256h-3.145v5h2.988v2.207h-2.988v5.469h3.262v2.256
		C51.249,126.433,45.37,126.433,45.37,126.433z"/>
	<path d="M53.338,126.433v-17.188h2.617v14.961h3.311v2.227C59.266,126.433,53.338,126.433,53.338,126.433z"/>
	<path d="M60.77,126.433v-17.188h5.762v2.256h-3.145v5h2.988v2.207h-2.988v5.469h3.262v2.256
		C66.649,126.433,60.77,126.433,60.77,126.433z"/>
	<path d="M72.196,118.357l-0.84-0.039v8.115h-2.617v-17.188h4.326c0.898,0,1.569,0.181,2.012,0.542s0.734,0.866,0.874,1.514
		s0.21,1.494,0.21,2.539s-0.111,1.841-0.332,2.388s-0.631,0.915-1.23,1.104c0.592,0.104,1.006,0.504,1.24,1.201
		s0.352,2.147,0.352,4.351s0.033,3.387,0.098,3.55H73.67c-0.065-0.13-0.098-2.184-0.098-6.162c0-0.762-0.091-1.268-0.273-1.519
		S72.749,118.371,72.196,118.357z M71.366,116.287h1.045c0.332,0,0.578-0.075,0.737-0.225s0.27-0.407,0.332-0.771
		s0.093-0.921,0.093-1.67v-0.107c0-0.931-0.078-1.54-0.234-1.826s-0.518-0.43-1.084-0.43h-0.889V116.287z"/>
	<path d="M82.176,126.433v-17.188h3.857c1.263,0,2.179,0.373,2.749,1.118s0.854,1.844,0.854,3.296l0.01,7.754
		c0,1.732-0.287,3.001-0.859,3.809s-1.52,1.211-2.842,1.211L82.176,126.433L82.176,126.433z M84.793,124.402h0.859
		c0.482,0,0.832-0.156,1.05-0.469s0.327-0.885,0.327-1.719l-0.01-8.486c0-0.892-0.109-1.527-0.327-1.904s-0.594-0.566-1.128-0.566
		h-0.771V124.402z"/>
	<path d="M92,126.433v-17.188h5.762v2.256h-3.145v5h2.988v2.207h-2.988v5.469h3.262v2.256C97.879,126.433,92,126.433,92,126.433z"/>
	<path d="M99.627,121.6v-1.533h2.48v1.729c0,0.957,0.082,1.629,0.244,2.017s0.469,0.581,0.918,0.581s0.747-0.16,0.894-0.479
		s0.22-0.84,0.22-1.562s-0.13-1.353-0.391-1.89s-0.674-1.099-1.24-1.685l-1.27-1.309c-0.592-0.619-1.053-1.26-1.382-1.924
		s-0.493-1.432-0.493-2.305c0-1.419,0.273-2.474,0.82-3.164s1.488-1.035,2.822-1.035s2.238,0.402,2.71,1.206
		s0.708,1.978,0.708,3.521v1.064h-2.412v-1.23c0-0.833-0.072-1.431-0.215-1.792s-0.418-0.542-0.825-0.542s-0.7,0.137-0.879,0.41
		s-0.269,0.684-0.269,1.23s0.091,0.983,0.273,1.309s0.511,0.742,0.986,1.25l1.416,1.533c0.709,0.768,1.245,1.546,1.606,2.334
		s0.542,1.647,0.542,2.578c0,1.608-0.27,2.796-0.811,3.564s-1.486,1.152-2.837,1.152s-2.292-0.428-2.822-1.284
		S99.627,123.24,99.627,121.6z"/>
	<path d="M27.459,149.481c-0.619,0.766-1.489,1.147-2.612,1.147s-1.996-0.34-2.617-1.021c-0.622-0.68-0.933-1.671-0.933-2.974
		v-3.066h2.529v2.939c0,0.951,0.153,1.53,0.459,1.738c0.137,0.092,0.306,0.137,0.508,0.137c0.397,0,0.659-0.162,0.786-0.488
		c0.127-0.325,0.19-0.84,0.19-1.543v-13.105h2.617v12.979C28.387,147.63,28.078,148.716,27.459,149.481z"/>
	<path d="M30.086,150.433l2.451-17.188h3.457l2.607,17.188H36.16l-0.41-3.066h-2.773l-0.371,3.066H30.086z M35.477,145.267
		l-1.152-8.633h-0.039l-1.055,8.633H35.477z"/>
	<path d="M40.399,150.433v-17.188h2.617v6.953h2.344v-6.953h2.617v17.188H45.36v-7.988h-2.344v7.988H40.399z"/>
	<path d="M54.012,142.357l-0.84-0.039v8.115h-2.617v-17.188h4.326c0.898,0,1.569,0.181,2.012,0.542s0.734,0.866,0.874,1.514
		c0.14,0.648,0.21,1.494,0.21,2.539s-0.111,1.841-0.332,2.388s-0.631,0.915-1.23,1.104c0.592,0.104,1.006,0.505,1.24,1.201
		c0.234,0.697,0.352,2.147,0.352,4.351s0.033,3.388,0.098,3.55h-2.617c-0.065-0.13-0.098-2.184-0.098-6.162
		c0-0.762-0.091-1.268-0.273-1.519C54.934,142.502,54.565,142.371,54.012,142.357z M53.182,140.287h1.045
		c0.332,0,0.578-0.074,0.737-0.225c0.16-0.149,0.27-0.406,0.332-0.771c0.062-0.364,0.093-0.921,0.093-1.67v-0.107
		c0-0.931-0.078-1.539-0.234-1.826c-0.156-0.286-0.518-0.43-1.084-0.43h-0.889C53.182,135.258,53.182,140.287,53.182,140.287z"/>
	<path d="M60.418,150.433v-17.188h5.762v2.256h-3.145v5h2.988v2.207h-2.988v5.469h3.262v2.256L60.418,150.433L60.418,150.433z"/>
	<path d="M68.045,145.599v-1.533h2.48v1.729c0,0.957,0.082,1.63,0.244,2.017c0.163,0.388,0.469,0.581,0.918,0.581
		s0.747-0.159,0.894-0.479c0.146-0.318,0.22-0.84,0.22-1.562s-0.13-1.353-0.391-1.89s-0.674-1.099-1.24-1.685l-1.27-1.309
		c-0.592-0.618-1.053-1.26-1.382-1.924s-0.493-1.432-0.493-2.305c0-1.419,0.273-2.474,0.82-3.164
		c0.547-0.689,1.488-1.035,2.822-1.035s2.238,0.402,2.71,1.206c0.472,0.805,0.708,1.978,0.708,3.521v1.064h-2.412v-1.23
		c0-0.833-0.072-1.431-0.215-1.792s-0.418-0.542-0.825-0.542s-0.7,0.137-0.879,0.41s-0.269,0.684-0.269,1.23
		s0.091,0.983,0.273,1.309s0.511,0.742,0.986,1.25l1.416,1.533c0.709,0.769,1.245,1.547,1.606,2.334
		c0.361,0.788,0.542,1.647,0.542,2.578c0,1.608-0.27,2.797-0.811,3.564c-0.541,0.769-1.486,1.152-2.837,1.152
		s-2.292-0.428-2.822-1.284C68.311,148.489,68.045,147.24,68.045,145.599z"/>
</g>
</svg>
