<?xml version="1.0" encoding="utf-8"?>
<!-- Generator: Adobe Illustrator 17.0.0, SVG Export Plug-In . SVG Version: 6.00 Build 0)  -->
<!DOCTYPE svg PUBLIC "-//W3C//DTD SVG 1.1//EN" "http://www.w3.org/Graphics/SVG/1.1/DTD/svg11.dtd">
<svg version="1.1" id="Layer_1" xmlns="http://www.w3.org/2000/svg" xmlns:xlink="http://www.w3.org/1999/xlink" x="0px" y="0px"
	 width="256px" height="256px" viewBox="0 0 256 256" enable-background="new 0 0 256 256" xml:space="preserve">
<path fill="#FFFFFF" d="M192.1,10.3c-17.1,0-32.4,8-42.3,20.6h-0.3v0.3c-7.1,9.1-11.4,20.6-11.4,33c0,29.7,24.2,53.9,53.9,53.9
	s54-24.2,54-53.9S221.9,10.3,192.1,10.3z"/>
<path d="M192,10.3c-17.1,0-32.4,8-42.3,20.6h-0.3v0.3c-7.1,9.1-11.4,20.6-11.4,33c0,29.7,24.2,53.9,53.9,53.9s53.9-24.2,53.9-53.9
	S221.7,10.3,192,10.3z M208.6,100.9l-23.1-3L183.7,78l17.6-10.7L217,82.4L208.6,100.9z M171.2,103.3L151.9,89l-2.1-14.7l11.8-7.4
	L181.5,78l1.9,20.2L171.2,103.3z M149.1,72.2L142,57.4l9.3-15.3l9.7,2l-0.2,20.8L149.1,72.2z M188.3,19l21.3,2.9l7.3,13.6l-16.1,7.9
	l-16.5-11.5L188.3,19z M231.4,74.4l-12.6,6.7l-16.9-16.2l0.2-19.7l16-7.9L232.3,50L231.4,74.4z M233.5,74.9l1-24.5l7.1-0.9
	c1.4,4.7,2.1,9.6,2.1,14.7c0,4.6-0.6,9-1.7,13.2L233.5,74.9z M240.9,47.4l-7.1,0.9l-14.6-13.1L212,21.9l6.1-2.4
	C228.7,25.7,236.9,35.6,240.9,47.4z M178.8,14.2l7.4,4.1L182,32.1L162.3,42l-10.5-2.1l-0.2-8.1C158.5,23.4,167.9,17,178.8,14.2z
	 M149.7,40.5l-8.5,14.1c1.4-7.3,4.3-14.1,8.4-20L149.7,40.5z M140.5,59.2l7.1,14.9l2.1,14.8l-2.9,0.4c-4.1-7.4-6.5-16-6.5-25.1
	C140.3,62.5,140.4,60.8,140.5,59.2z M172.4,112.1l-0.2-6.8l12.5-5.3l23.9,3.1l4.4,8.4c-6.4,2.9-13.5,4.5-21,4.5
	C185.1,115.9,178.5,114.5,172.4,112.1z"/>
<g>
	<path fill="#FCFF00" stroke="#000000" stroke-miterlimit="10" d="M177,110.6c-0.3-0.4-0.8-0.1-1.3-0.1h-19.3
		c-0.9,0-1.6,0.2-1.6,1.1l-0.2,10.9c-0.4-0.3-0.8-0.5-1-0.7c1.4-0.8-0.1-2.3-0.1-2.3H94c0,0-1.5,1.5-0.1,2.3c-0.2,0.2-0.6,0.4-1,0.7
		l-0.2-10.8c0-0.9-0.7-1.2-1.6-1.2H71.8c-0.5,0-0.9-0.2-1.3,0.2c-0.3,0.4-0.4,0.7-0.4,1.1c0.1,0.3,6,30.8,31.8,36.5
		c3.8,2.7,8.6,4.9,14.7,6.2c0,0.8-3.3,4.8,3.4,7.3c0.4,1.6-2,6.4-2,14.3s-0.4,16.2-1.7,17.9c-1.3,1.6-2.3,3.5-1.6,5.4
		c-1.7,0-8.5,3.8-8.1,15.4c-2.2,0-4.6,0.3-4.6,0.3s-1.6,4.1-4.6,4.9v24.6h0.4c0,0-3.7,0.2-3.4,6.5c0,1.7,0.7,3.5,2.6,3.5
		c1.6,0,51.6,0,53.2,0c2,0,2.6-1.7,2.6-3.5c0.3-6.3-3.4-6.5-3.4-6.5h-3.1v-24.9c-2-0.8-2.8-4.9-2.8-4.9s-1.1-0.3-3.3-0.3
		c0.4-11.5-6.1-15.4-7.8-15.4c0.7-2-0.2-3.8-1.5-5.4s-1.7-10-1.7-17.9c0-7.8-2.4-12.6-1.9-14.3c6.6-2.5,3.4-6.5,3.4-7.3
		c6.1-1.3,10.9-3.5,14.7-6.2c25.8-5.7,31.8-36.1,31.8-36.4C177.4,111.1,177.3,110.9,177,110.6z M73.8,113.5h15.6l0.3,14.9
		c0,0.2,0,0.2,0.1,0.3c0,0.4,0,0.6,0,1c0.2,2.8,2,8.3,6.2,13.3C81,136.1,75.3,117.5,73.8,113.5z M151.4,142.9c4.2-5,6-10.4,6.2-13.2
		c0-0.4,0-0.9,0-1.2c0-0.1,0.1,0.1,0.1-0.1l0.3-14.9h15.6C172.1,117.5,166.5,135.9,151.4,142.9z"/>
	<path fill="#FFFFFF" d="M115.5,125.1c0,0-0.7-2.7,14.6-2.7c15.7,0,13.5,2.6,13.5,2.6s-1.7,9-5.4,9c-3.5,0-16.8,0-16.8,0
		S116.8,131.9,115.5,125.1z"/>
	<path fill="#FFFFFF" d="M123.6,163c0,0-1.5,13.8-0.9,18.2c0.7,4.4,0.2,8.4-0.4,10.6c-0.7,2.2-0.1,4.1,2.7,4.1c3.1,0,2.5-3.3,2-4.6
		c-0.4-1.3-0.2-7.2,0.2-10.2c0.4-3-0.3-12.6-1.6-18.3C124.4,163.1,123.6,163,123.6,163z"/>
	<rect x="123" y="156" fill="#FFFFFF" width="6" height="2"/>
	<rect x="125" y="197" fill="#ABD100" width="6" height="4"/>
	<path fill="#FFFFFF" d="M123.2,202h5.4c0,0,2.8,0.8,2.8,4.2c0.2,1.7-0.2,5.8-0.2,5.8h-9.1c0,0-0.8-3.8-1.1-5.3
		C120.8,205.4,121.4,203,123.2,202z"/>
	<path fill="#FFFFFF" d="M121.4,215c0,0,8.1,0,10.2,0s4.1,3.8,0,4c-3.9,0.2-8.5-0.1-10.7-0.1S118.8,215,121.4,215z"/>
	<rect x="136" y="221" fill="#ABD100" width="7" height="22"/>
	<path fill="#ABD100" d="M132.4,215c0,0-0.1-4.1-0.2-5.5c-0.2-2.2,3.2-3.2,3.5,1c0.1,1.2,0.6,4.5,0.6,4.5H132.4z"/>
	<path fill="#ABD100" d="M129.6,153.5c0,0-4.7,0.5-4.7-3.4s10-6.4,15.4-7.5s16-3.3,14.7-14.9c-0.3-2.6-5.1-5.1-8-5.2
		c0,0,9,1,9.3,5.6C156.6,132.6,154.5,146.9,129.6,153.5z"/>
	<rect x="117" y="197" fill="#FF9F00" width="1" height="4"/>
	<rect x="102" y="221" fill="#FF9F00" width="3" height="22"/>
	<path fill="#FF9F00" d="M112.1,215c0,0-0.1-2.9,0-4.3c0.2-2.2-3.2-3.3-3.5,1c-0.1,1.2-0.4,3.3-0.4,3.3H112.1z"/>
	<path fill="#FF9F00" d="M117.4,153.5c0,0,4.7,0.5,4.7-3.4s-10-6.4-15.4-7.5s-15-5-14.7-14.9c0.3-2.6,5.1-5.1,8-5.2
		c0,0-8.7,0.7-9,5.2C90.8,132.2,94.3,148,117.4,153.5z"/>
	<line fill="none" stroke="#957E78" stroke-miterlimit="10" x1="97" y1="244.5" x2="146" y2="244.5"/>
	<line fill="none" stroke="#957E78" stroke-miterlimit="10" x1="97" y1="220.5" x2="146" y2="220.5"/>
	<line fill="none" stroke="#957E78" stroke-miterlimit="10" x1="106" y1="214.5" x2="141" y2="214.5"/>
	<line fill="none" stroke="#957E78" stroke-miterlimit="10" x1="113" y1="200.5" x2="132" y2="200.5"/>
	<path fill="#B9A9A5" stroke="#957E78" stroke-width="0.6534" stroke-miterlimit="10" d="M118.5,161.1c0,0,2.2,1.1,5.5,1.1
		c2.1,0,5.3-1.2,6.5-2.5"/>
	<path fill="none" stroke="#957E78" stroke-width="0.6534" stroke-miterlimit="10" d="M116.4,154.4c0,0,1.6,0.6,7.6,0.6
		c5.1,0,6.9-0.8,6.9-0.8"/>
</g>
<g>
	<g>
		<g>
			<g>
				<path fill="#FFFFFF" d="M153.2,79.5c5.8,15.5,20.8,26.6,38.4,26.6S224.2,95,230,79.5L191.6,76L153.2,79.5z"/>
				<path fill="#FFFFFF" d="M191.6,24.5c-17.6,0-32.6,11.1-38.4,26.6l38.4,3.5l38.4-3.5C224.2,35.6,209.2,24.5,191.6,24.5z"/>
				<path fill="#FFFFFF" d="M153.2,51.1c-1.6,4.4-2.5,9.2-2.5,14.2s0.9,9.8,2.5,14.2H230c1.6-4.4,2.5-9.2,2.5-14.2
					s-0.9-9.8-2.5-14.2C230,51.1,153.2,51.1,153.2,51.1z"/>
			</g>
			<ellipse fill="none" stroke="#020200" stroke-width="1.4754" stroke-miterlimit="10" cx="191.6" cy="65.2" rx="40.8" ry="40.6"/>
		</g>
	</g>
	<g>
		<g>
			<path d="M206.6,51.1c0,0-1.7,2-3.6,4.6c0,0-1.3,1.7-3.8,4.7c-1.5,1.8-1.5,3.1,0.2,4.7c2,1.9,3.9,4,5.8,6.1c0.6,0.6,1.8,1,1.2,2.3
				l0.1-0.1c-3.8-0.9-7.7-1.8-11.4-2.8c-1.9-0.5-3,0-4,1.6c-3.1,5.2-5.8,10.4-6.5,16.6c-0.3,2.7,0,4.4,2.7,5.3
				c1.5,0.5,1.5,0.5,1.5,0.5c1.5,1.2,1.5,2.3,0.2,2.4c0,0,0,0-1.2-0.2c-3.1-0.4-4,0.8-2.9,3.7c0.1,0.4,0.1,0.4,0.1,0.4
				c0,0.7-2,0.4-4.6-0.6c0,0,0,0-1.6-1.7c-1.7-1.8-3.5-2.7-5.9-3.2C170,95,170,95,170,95c-2.7-1.6-4.7-3.1-4.6-3.5c0,0,0,0,0.1,0
				c6.5-0.6,6.5-0.6,3.7-6.6c-0.5-1.2-0.5-1.2-0.5-1.2c-0.5-1.4-0.1-1.9,0.8-1.2c0,0,0,0,0.8,0.7c6.8,5.5,7.7,5.4,13.9-1.1
				c0.8-0.9,1.2-1.6,1-2.9c-0.6-3.3-1.1-6.7-1.6-10c-0.1-0.9-0.1-1.8-1.1-2.2c-3.5-1.2-7-3.4-10.4-3.3c-3,0.1-5,3.8-7.3,6.2
				c-1,1-1,2-0.5,3.2c0.9,2.4,0.9,2.4,0.9,2.4c1,2.7,1.3,4.6,0.8,4.3c0,0,0,0-0.5-0.3c-5-3.3-5-3.3-5-3.3c-1.6,2.8-3.4,3.4-4.1,1.3
				c0,0,0,0-0.2-1.9c-0.3-2.4-0.2-4.8-1.9-6.8c-0.5-0.6-0.9-1.7-0.1-2c4.1-1.6,3.9-6,5.9-8.9c0.2-0.3,0.2-0.3,0.2-0.3
				c0.2-0.3,0.7,0.2,1.1,1c0,0,0,0,0.1,0.7c0.4,4.9-0.3,4.2,5.1,3.8c5.4-0.4,10.1-2.6,14.9-4.5c1.3-0.5,1.9-1.3,1.9-2.7
				c0.1-3.2,0.5-6.3,1.2-9.4c0.6-2.3-1.1-3.4-2.1-4.8c-3.3-4.8-3.4-4.7-8.7-2.8c-1,0.4-1,0.4-1,0.4c-1.3,0.5-1.1-0.5,0.5-2.3
				c0,0,0,0,1.5-1.2c1.5-1.3,3.8-2.2,1.4-4.7c-0.7-0.7-0.1-1.3,0.7-1.3c7.3,0.5,16.3-1.6,16.3-1.6c3.2-0.7,4.8-0.8,3.7-0.2
				c-1.1,0.6-2.1,3-0.7,3.4c1.5,0.4,2.4,2.8-0.8,3.1c0,0-0.8,0.1-4,0.3c-1.3,0.1-2.2,0.5-2.9,1.7c-3.5,5.7-2.3,13.5,2.8,17.6
				c1,0.8,1.8,0.4,2.7,0.1C198.2,53.3,202.2,51.8,206.6,51.1L206.6,51.1z"/>
		</g>
		<g>
			<path d="M206.3,73.6c0,0,2.6,0.1,5.9,0.2c0,0,0.4,0,3.5,0.2c2.4,0.2,3.9-0.6,4.7-3c1.1-2.9,1.6-4.2,1.6-4.2
				c1.4-2.9,2.7-3.8,2.9-1.9c0.2,1.9,1.3,6.2,2.1,5.8c0.8-0.4,1.9,0.7,0.3,3.6L226,82c-1.3,3-4.6,4.4-7.2,3.3c0,0,0,0-2.5,1.6
				c-1.7,1.1-1.7,1.1-1.7,1.1c-2.5,0.6-3.4-0.7-2-3c0,0,0,0,1.2-1.8c0.8-1.1,1-2-0.3-3c-2.5-2.1-3-2.6-3-2.6
				C208.3,75.4,206.3,73.5,206.3,73.6z"/>
		</g>
		<g>
			<path d="M206.5,51c0,0,1.4-1.6,3-3.6c0,0,0,0,1.4-1.9c1.1-1.5,1.2-2.5-0.3-3.9c-2.4-2.2-3.4-3.1-3.4-3.1c-2.5-2-2-3.2,1.2-2.6
				c0,0,0.6,0.1,3.3,1.3c2.3,1,2.3,1,2.3,1c0.9-1.9,3.3-1.4,5.4,1.1l4.8,7.7c2.1,2.5,3.1,4.3,2.3,4.1c0,0,0,0-0.4-0.2
				c-2.2-1.1-2.9-0.6-2.4,1.9c0.5,2.3,0.5,2.3,0.5,2.3c-0.1,2.7-1.6,2.7-3.3,0c0,0-0.3-0.4-1.8-3.2c-1.2-2.1-2.7-2.4-4.9-2.1
				c-2.6,0.4-2.6,0.4-2.6,0.4C208.8,50.7,206.5,51,206.5,51z"/>
		</g>
		<g>
			<path d="M200,101.8c-3.2,0.7-5.2,1.1-4.4,0.8s1.4-2.4,0.7-3c-0.8-0.6-2.8-2.2-2.8-2.4c0-0.2,2.6-0.6,5.8-0.7l6.1-2.2
				c2.3-2.2,4.3-3.6,4.4-3.1c0,0,0,0,0,0.5c0,4.8,0,4.8,4.6,3.2c0.5-0.2,0.5-0.2,0.5-0.2c0.7-0.3-1,1-3.7,2.7L200,101.8z"/>
		</g>
		<g>
			<path d="M155.9,54.6c-0.6,1,0-0.7,1.2-3.7l5.7-9.7c2.1-2.5,3.4-3.8,2.9-3s-0.3,3.1,0.4,2.9c0.7-0.2,0.7,2-1.7,3.9
				c0,0,0,0-1.6,2.1c-1.6,2.2-1.6,2.2-1.6,2.2c-0.1,3.2-0.4,5.3-0.8,4.6C160.2,53.3,156.5,53.7,155.9,54.6z"/>
		</g>
	</g>
</g>
<g>
	<path d="M17.981,205.07c-0.998,1.344-2.566,2.016-4.705,2.016s-3.737-0.716-4.795-2.147c-1.059-1.431-1.587-3.489-1.587-6.177
		v-12.617c0-4.31,1.129-7.002,3.389-8.077c0.833-0.395,1.842-0.592,3.027-0.592c4.068,0,6.103,2.565,6.103,7.698v3.981h-4.261
		v-3.702c0-1.491-0.126-2.558-0.378-3.199s-0.746-0.962-1.48-0.962s-1.245,0.34-1.53,1.02c-0.285,0.681-0.428,1.722-0.428,3.126
		v13.521c0,1.558,0.137,2.671,0.411,3.34c0.274,0.669,0.773,1.003,1.497,1.003s1.223-0.34,1.497-1.02
		c0.274-0.68,0.411-1.804,0.411-3.372v-4.146h4.327v4.096C19.479,201.657,18.979,203.728,17.981,205.07z"/>
	<path d="M23.064,206.757v-28.952h4.409v11.712h3.948v-11.712h4.409v28.952h-4.409v-13.456h-3.948v13.456H23.064z"/>
	<path d="M38.857,206.757l4.129-28.952h5.823l4.393,28.952h-4.113l-0.691-5.166h-4.672l-0.625,5.166H38.857z M47.938,198.055
		l-1.941-14.542h-0.065l-1.777,14.542H47.938z"/>
	<path d="M56.228,206.757v-28.952h5.478l4.112,21.154l3.866-21.154h5.511v28.952h-3.932v-10.792l0.165-9.902l-3.899,20.562h-3.504
		l-4.063-20.562l0.165,9.902v10.792L56.228,206.757L56.228,206.757z"/>
	<path d="M79.555,206.757v-28.952h6.646c2.248,0,3.786,0.683,4.614,2.048c0.828,1.365,1.264,3.402,1.308,6.111v0.608
		c0,2.873-0.409,5.053-1.226,6.539s-2.333,2.229-4.548,2.229h-2.385v11.417L79.555,206.757L79.555,206.757z M83.963,191.705h1.513
		c0.932,0,1.538-0.359,1.818-1.078c0.28-0.718,0.419-2.086,0.419-4.104v-0.559c-0.011-1.711-0.162-2.934-0.452-3.669
		c-0.291-0.734-0.875-1.102-1.752-1.102h-1.546V191.705z"/>
	<path d="M95.248,206.757v-28.952h4.409v28.952H95.248z"/>
	<path d="M115.087,204.996c-1.009,1.394-2.624,2.09-4.844,2.09c-2.221,0-3.85-0.699-4.886-2.098
		c-1.037-1.398-1.555-3.507-1.555-6.325v-13.242c0-5.308,2.166-7.962,6.498-7.962c2.237,0,3.847,0.674,4.828,2.023
		s1.473,3.328,1.473,5.938v13.242C116.601,201.492,116.096,203.604,115.087,204.996z M108.63,202.266
		c0.257,0.669,0.787,1.004,1.587,1.004c0.8,0,1.327-0.343,1.579-1.028s0.378-1.861,0.378-3.528v-13.489
		c0-1.371-0.129-2.372-0.387-3.003c-0.258-0.63-0.762-0.945-1.513-0.945s-1.278,0.315-1.579,0.945
		c-0.302,0.631-0.453,1.626-0.453,2.986v13.506C108.244,200.412,108.373,201.597,108.63,202.266z"/>
	<path d="M120.598,206.757v-28.952h3.455l6.135,17.371l-0.312-7.896v-9.475h3.965v28.952h-3.126l-6.3-17.98l0.247,7.601v10.38
		h-4.064V206.757z"/>
	<path d="M137.607,198.613v-2.582h4.178v2.911c0,1.612,0.138,2.745,0.411,3.397c0.274,0.652,0.79,0.979,1.547,0.979
		s1.259-0.269,1.505-0.806c0.247-0.537,0.37-1.415,0.37-2.632c0-1.218-0.22-2.278-0.658-3.184c-0.438-0.904-1.135-1.851-2.089-2.838
		l-2.139-2.204c-0.998-1.042-1.773-2.122-2.327-3.24c-0.555-1.119-0.831-2.413-0.831-3.883c0-2.391,0.461-4.167,1.382-5.33
		c0.921-1.162,2.506-1.743,4.754-1.743s3.77,0.677,4.565,2.031s1.192,3.331,1.192,5.931v1.793h-4.063v-2.073
		c0-1.403-0.12-2.409-0.361-3.019c-0.241-0.608-0.705-0.913-1.391-0.913s-1.179,0.23-1.48,0.691s-0.452,1.151-0.452,2.072
		c0,0.922,0.153,1.656,0.461,2.205c0.307,0.548,0.86,1.25,1.661,2.105l2.385,2.582c1.195,1.295,2.098,2.605,2.706,3.932
		c0.609,1.327,0.913,2.775,0.913,4.344c0,2.708-0.455,4.71-1.365,6.004s-2.503,1.941-4.778,1.941c-2.276,0-3.86-0.722-4.754-2.163
		C138.054,203.48,137.607,201.377,137.607,198.613z"/>
	<path d="M152.362,195.883v-2.879h7.863v2.879H152.362z"/>
	<path d="M164.52,206.757v-28.952h4.408v25.201h5.577v3.751L164.52,206.757L164.52,206.757z"/>
	<path d="M177.038,206.757v-28.952h9.705v3.8h-5.297v8.422h5.034v3.718h-5.034v9.213h5.494v3.8h-9.902V206.757z"/>
	<path d="M189.146,206.757l4.129-28.952h5.823l4.393,28.952h-4.113l-0.69-5.166h-4.672l-0.625,5.166H189.146z M198.226,198.055
		l-1.941-14.542h-0.065l-1.776,14.542H198.226z"/>
	<path d="M211.879,207.053c-1.82,0-3.243-0.716-4.269-2.146c-1.025-1.432-1.538-3.639-1.538-6.621V185.7
		c0-2.676,0.523-4.716,1.571-6.119c1.047-1.404,2.711-2.105,4.992-2.105c2.841,0,4.645,1.059,5.412,3.175
		c0.461,1.272,0.691,3.01,0.691,5.215v2.056h-4.112v-3.026c0-1.327-0.141-2.26-0.42-2.797s-0.806-0.806-1.579-0.806
		s-1.319,0.32-1.637,0.962s-0.478,1.779-0.478,3.413v12.552c0,1.897,0.143,3.219,0.428,3.965s0.842,1.118,1.67,1.118
		s1.415-0.4,1.761-1.2c0.345-0.801,0.518-2.149,0.518-4.047v-3.899h-2.221v-3.207h6.07v15.809h-1.975l-0.674-2.846
		c-0.23,0.976-0.735,1.743-1.514,2.303S212.899,207.053,211.879,207.053z"/>
	<path d="M233.972,205.202c-1.009,1.256-2.629,1.884-4.86,1.884c-2.232,0-3.855-0.631-4.869-1.893
		c-1.015-1.261-1.522-3.218-1.522-5.872v-21.533h4.409v21.451c0,1.524,0.071,2.45,0.214,2.779s0.314,0.628,0.518,0.896
		c0.203,0.27,0.623,0.403,1.259,0.403s1.091-0.187,1.365-0.56c0.274-0.372,0.441-0.836,0.502-1.39s0.091-1.264,0.091-2.13v-21.451
		h4.408v21.533C235.485,201.986,234.98,203.946,233.972,205.202z"/>
	<path d="M239.664,206.757v-28.952h9.705v3.8h-5.297v8.422h5.034v3.718h-5.034v9.213h5.494v3.8h-9.902V206.757z"/>
	<path d="M87.656,232.613v-2.582h4.178v2.911c0,1.612,0.137,2.745,0.411,3.397c0.274,0.652,0.79,0.979,1.546,0.979
		c0.757,0,1.259-0.269,1.505-0.806s0.37-1.415,0.37-2.632c0-1.218-0.22-2.278-0.658-3.184c-0.438-0.904-1.135-1.851-2.089-2.838
		l-2.139-2.204c-0.998-1.042-1.774-2.122-2.328-3.24c-0.554-1.119-0.831-2.413-0.831-3.883c0-2.391,0.46-4.167,1.382-5.33
		c0.921-1.162,2.505-1.743,4.754-1.743c2.248,0,3.77,0.677,4.565,2.031c0.795,1.354,1.192,3.331,1.192,5.931v1.793h-4.063v-2.073
		c0-1.403-0.121-2.409-0.362-3.019c-0.241-0.608-0.705-0.913-1.39-0.913c-0.686,0-1.179,0.23-1.48,0.691
		c-0.302,0.461-0.453,1.151-0.453,2.072c0,0.922,0.154,1.656,0.461,2.205c0.307,0.548,0.861,1.25,1.661,2.105l2.385,2.582
		c1.195,1.295,2.098,2.605,2.706,3.932c0.609,1.327,0.913,2.775,0.913,4.344c0,2.708-0.455,4.71-1.365,6.004
		c-0.911,1.294-2.503,1.941-4.779,1.941s-3.86-0.722-4.754-2.163C88.103,237.48,87.656,235.377,87.656,232.613z"/>
	<path d="M103.284,240.757v-28.952h4.409v28.952H103.284z"/>
	<path d="M112.2,240.757v-28.952h9.706v3.8h-5.297v8.422h5.034v3.718h-5.034v9.213h5.494v3.8H112.2V240.757z"/>
	<path d="M131.067,241.053c-1.82,0-3.243-0.716-4.268-2.146c-1.025-1.432-1.538-3.639-1.538-6.621V219.7
		c0-2.676,0.523-4.716,1.571-6.119c1.047-1.404,2.711-2.105,4.992-2.105c2.841,0,4.645,1.059,5.412,3.175
		c0.461,1.272,0.691,3.01,0.691,5.215v2.056h-4.112v-3.026c0-1.327-0.141-2.26-0.42-2.797s-0.806-0.806-1.579-0.806
		s-1.319,0.32-1.637,0.962s-0.478,1.779-0.478,3.413v12.552c0,1.897,0.143,3.219,0.428,3.965s0.842,1.118,1.67,1.118
		s1.415-0.4,1.761-1.2c0.345-0.801,0.518-2.149,0.518-4.047v-3.899h-2.221v-3.207h6.07v15.809h-1.975l-0.674-2.846
		c-0.23,0.976-0.735,1.743-1.514,2.303S132.088,241.053,131.067,241.053z"/>
	<path d="M142.073,240.757v-28.952h9.705v3.8h-5.297v8.422h5.034v3.718h-5.034v9.213h5.494v3.8h-9.902V240.757z"/>
	<path d="M161.319,227.152l-1.414-0.065v13.67h-4.409v-28.952h7.288c1.513,0,2.643,0.304,3.389,0.912
		c0.745,0.609,1.236,1.459,1.472,2.55c0.236,1.092,0.354,2.518,0.354,4.277c0,1.761-0.187,3.101-0.559,4.022
		c-0.373,0.921-1.064,1.541-2.073,1.858c0.998,0.176,1.694,0.851,2.09,2.023c0.395,1.174,0.592,3.616,0.592,7.329
		c0,3.712,0.055,5.705,0.164,5.979h-4.408c-0.109-0.22-0.164-3.68-0.164-10.38c0-1.283-0.154-2.136-0.461-2.559
		C162.871,227.396,162.252,227.175,161.319,227.152z M159.922,223.665h1.76c0.56,0,0.973-0.126,1.242-0.379
		c0.269-0.252,0.455-0.685,0.56-1.299c0.104-0.614,0.156-1.552,0.156-2.813v-0.181c0-1.568-0.132-2.594-0.396-3.076
		c-0.263-0.482-0.871-0.724-1.826-0.724h-1.496V223.665z"/>
</g>
</svg>
