<?xml version="1.0" encoding="utf-8"?>
<!-- Generator: Adobe Illustrator 17.0.0, SVG Export Plug-In . SVG Version: 6.00 Build 0)  -->
<!DOCTYPE svg PUBLIC "-//W3C//DTD SVG 1.1//EN" "http://www.w3.org/Graphics/SVG/1.1/DTD/svg11.dtd">
<svg version="1.1" id="Layer_1" xmlns="http://www.w3.org/2000/svg" xmlns:xlink="http://www.w3.org/1999/xlink" x="0px" y="0px"
	 width="256px" height="256px" viewBox="0 0 256 256" enable-background="new 0 0 256 256" xml:space="preserve">
<polygon fill="#FFFF00" points="128,188.6 53.1,243.2 82,155.1 6.8,100.8 99.5,101 128,12.8 156.5,101 249.2,100.8 174,155.1 
	202.9,243.2 "/>
<path fill="#FFFFFF" d="M192,10.3c-17.1,0-32.4,8-42.3,20.6h-0.3v0.3c-7.1,9.1-11.4,20.6-11.4,33c0,29.7,24.2,53.9,53.9,53.9
	s53.9-24.2,53.9-53.9S221.7,10.3,192,10.3z"/>
<path d="M192,10.3c-17.1,0-32.4,8-42.3,20.6h-0.3v0.3c-7.1,9.1-11.4,20.6-11.4,33c0,29.7,24.2,53.9,53.9,53.9s53.9-24.2,53.9-53.9
	S221.7,10.3,192,10.3z M208.6,100.9l-23.1-3L183.7,78l17.6-10.7L217,82.4L208.6,100.9z M171.2,103.3L151.9,89l-2.1-14.7l11.8-7.4
	L181.5,78l1.9,20.2L171.2,103.3z M149.1,72.2L142,57.4l9.3-15.3l9.7,2l-0.2,20.8L149.1,72.2z M188.3,19l21.3,2.9l7.3,13.6l-16.1,7.9
	l-16.5-11.5L188.3,19z M231.4,74.4l-12.6,6.7l-16.9-16.2l0.2-19.7l16-7.9L232.3,50L231.4,74.4z M233.5,74.9l1-24.5l7.1-0.9
	c1.4,4.7,2.1,9.6,2.1,14.7c0,4.6-0.6,9-1.7,13.2L233.5,74.9z M240.9,47.4l-7.1,0.9l-14.6-13.1L212,21.9l6.1-2.4
	C228.7,25.7,236.9,35.6,240.9,47.4z M178.8,14.2l7.4,4.1L182,32.1L162.3,42l-10.5-2.1l-0.2-8.1C158.5,23.4,167.9,17,178.8,14.2z
	 M149.7,40.5l-8.5,14.1c1.4-7.3,4.3-14.1,8.4-20L149.7,40.5z M140.5,59.2l7.1,14.9l2.1,14.8l-2.9,0.4c-4.1-7.4-6.5-16-6.5-25.1
	C140.3,62.5,140.4,60.8,140.5,59.2z M172.4,112.1l-0.2-6.8l12.5-5.3l23.9,3.1l4.4,8.4c-6.4,2.9-13.5,4.5-21,4.5
	C185.1,115.9,178.5,114.5,172.4,112.1z"/>
<g>
	<path fill="none" stroke="#000000" stroke-width="3" stroke-miterlimit="10" d="M157.6,137"/>
	<path fill="#FF0000" d="M157.6,137"/>
</g>
<g>
	<path fill="#FFFFFF" d="M214.348,172.045c19.592-11.157,31.763-33.872,32.396-37.332s-0.71-3.957-3.197-6.27
		c-2.487-2.314-7.025-0.054-7.025-0.054s-20.213,18.628-29.654,26.185c-9.449,7.457-50.728,20.907-56.185,24.242
		s-43.989,18.576-50.207,27.587c0.11,2.7-1.248,9.726,5.467,5.792C112.549,208.169,182.078,190.41,214.348,172.045z"/>
	<g>
		<path fill="none" stroke="#000000" stroke-width="3" stroke-miterlimit="10" d="M183.842,146.139
			c3.236-0.954,5.98-1.77,7.936-2.424c4.301-1.439,9.285-3.131,15.801-5.746c8.556-3.476,18.053-9.031,21.579-10.108
			c6.272-1.893,12.302-0.458,12.302-0.458c2.97,2.075-19.972,21.719-25.52,26.464c-14.299,12.148-60.24,26.263-93.05,41.56
			c-11.714,5.427-16.732,10.533-16.732,10.533s9.039-3.714,15.609-5.631c14.307-4.325,77.081-21.257,92.861-32.418
			c20.348-14.325,29.792-33.417,29.727-36.823c5.484,7.296,2.4,14.056-0.456,18.592c-2.856,4.536-0.193,6.535-1.495,7.84
			c-0.636,0.852-4.334-0.264-7.191,2.968c-2.857,3.232-3.744,6.009-7.299,9.296s-0.3,6.443-2.583,9.329
			c-2.191,2.779-5.156-1.805-8.681,0.577c-3.418,2.473-5.303,4.024-11.366,7.306c-5.872,3.166-1.948,7.173-4.255,8.456
			c-2.192,1.475-6.938-4.073-11.46-1.614c-4.523,2.459-21.758,15.539-27.866,19.526c-6.001,4.079-0.447,12.272-2.401,14.23
			c-1.211,1.198-5.801-2.356-9.704-2.252c-2.301,0.079-4.469,1.853-6.607,4.026c-5.669,5.758-0.05,10.937-2.518,12.734
			s-4.603-1.146-9.313-2.383c-4.71-1.238-8.389,1.758-13.516-2.256c-24.702-19.639-22.119-43.111-22.119-43.111
			c1.569-3.031,2.521-2.403,7.292-1.672c4.764,0.632,12.993,0.692,18.549-3.954s11.05-16.509,10.063-21.447
			c-0.895-5.046-2.571-8.526,3.994-9.238c2.684-0.31,10.574-2.028,19.722-4.346l4.225-1.132
			C162.227,151.937,162.227,151.937,183.842,146.139z"/>
		<path fill="#9933FF" d="M183.842,146.139c3.236-0.954,5.98-1.77,7.936-2.424c4.301-1.439,9.285-3.131,15.801-5.746
			c8.556-3.476,18.053-9.031,21.579-10.108c6.272-1.893,12.302-0.458,12.302-0.458c2.97,2.075-19.972,21.719-25.52,26.464
			c-14.299,12.148-60.24,26.263-93.05,41.56c-11.714,5.427-16.732,10.533-16.732,10.533s9.039-3.714,15.609-5.631
			c14.307-4.325,77.081-21.257,92.861-32.418c20.348-14.325,29.792-33.417,29.727-36.823c5.484,7.296,2.4,14.056-0.456,18.592
			c-2.856,4.536-0.193,6.535-1.495,7.84c-0.636,0.852-4.334-0.264-7.191,2.968c-2.857,3.232-3.744,6.009-7.299,9.296
			s-0.3,6.443-2.583,9.329c-2.191,2.779-5.156-1.805-8.681,0.577c-3.418,2.473-5.303,4.024-11.366,7.306
			c-5.872,3.166-1.948,7.173-4.255,8.456c-2.192,1.475-6.938-4.073-11.46-1.614c-4.523,2.459-21.758,15.539-27.866,19.526
			c-6.001,4.079-0.447,12.272-2.401,14.23c-1.211,1.198-5.801-2.356-9.704-2.252c-2.301,0.079-4.469,1.853-6.607,4.026
			c-5.669,5.758-0.05,10.937-2.518,12.734s-4.603-1.146-9.313-2.383c-4.71-1.238-8.389,1.758-13.516-2.256
			c-24.702-19.639-22.119-43.111-22.119-43.111c1.569-3.031,2.521-2.403,7.292-1.672c4.764,0.632,12.993,0.692,18.549-3.954
			s11.05-16.509,10.063-21.447c-0.895-5.046-2.571-8.526,3.994-9.238c2.684-0.31,10.574-2.028,19.722-4.346l4.225-1.132
			C162.227,151.937,162.227,151.937,183.842,146.139z"/>
	</g>
	<g>
		<g>
			<g>
				<path fill="none" stroke="#1D1D1B" stroke-width="3" d="M156.414,167.435c-0.199,0.016-0.399,0.031-0.598,0.047
					c-1.112-0.114-1.896-1.156-1.682-2.276l2.155-14.812c0.114-1.112,1.156-1.896,2.276-1.682c1.112,0.114,1.896,1.156,1.682,2.276
					l-2.155,14.812C157.855,166.621,157.204,167.274,156.414,167.435z"/>
			</g>
			<g>
				<path fill="none" stroke="#1D1D1B" stroke-width="3" d="M165.314,163.231c-0.199,0.016-0.399,0.031-0.598,0.047
					c-1.112-0.114-1.896-1.156-1.682-2.276l1.682-11.867c0.114-1.112,1.156-1.896,2.276-1.682c1.112,0.114,1.896,1.156,1.682,2.276
					l-1.682,11.867C166.855,162.409,166.204,163.061,165.314,163.231z"/>
			</g>
			<g>
				<path fill="none" stroke="#1D1D1B" stroke-width="3" d="M172.797,160.14c-0.199,0.016-0.399,0.031-0.598,0.047
					c-1.112-0.114-1.896-1.156-1.682-2.276l1.629-11.261c0.114-1.112,1.156-1.896,2.276-1.682c1.112,0.114,1.896,1.156,1.682,2.276
					l-1.629,11.261C174.345,159.417,173.694,160.07,172.797,160.14z"/>
			</g>
			<g>
				<path fill="none" stroke="#1D1D1B" stroke-width="3" d="M181.144,155.276c-0.199,0.016-0.399,0.031-0.598,0.047
					c-1.112-0.114-1.896-1.156-1.682-2.276l1.31-8.929c0.114-1.112,1.156-1.896,2.276-1.682c1.112,0.114,1.896,1.156,1.682,2.276
					l-1.31,8.929C182.585,154.462,181.934,155.114,181.144,155.276z"/>
			</g>
		</g>
		<g>
			<g>
				<path fill="#FFFF00" d="M156.414,167.435c-0.199,0.016-0.399,0.031-0.598,0.047c-1.112-0.114-1.896-1.156-1.682-2.276
					l2.155-14.812c0.114-1.112,1.156-1.896,2.276-1.682c1.112,0.114,1.896,1.156,1.682,2.276l-2.155,14.812
					C157.855,166.621,157.204,167.274,156.414,167.435z"/>
			</g>
			<g>
				<path fill="#FFFF00" d="M165.314,163.231c-0.199,0.016-0.399,0.031-0.598,0.047c-1.112-0.114-1.896-1.156-1.682-2.276
					l1.682-11.867c0.114-1.112,1.156-1.896,2.276-1.682c1.112,0.114,1.896,1.156,1.682,2.276l-1.682,11.867
					C166.855,162.409,166.204,163.061,165.314,163.231z"/>
			</g>
			<g>
				<path fill="#FFFF00" d="M172.797,160.14c-0.199,0.016-0.399,0.031-0.598,0.047c-1.112-0.114-1.896-1.156-1.682-2.276
					l1.629-11.261c0.114-1.112,1.156-1.896,2.276-1.682c1.112,0.114,1.896,1.156,1.682,2.276l-1.629,11.261
					C174.345,159.417,173.694,160.07,172.797,160.14z"/>
			</g>
			<g>
				<path fill="#FFFF00" d="M181.144,155.276c-0.199,0.016-0.399,0.031-0.598,0.047c-1.112-0.114-1.896-1.156-1.682-2.276
					l1.31-8.929c0.114-1.112,1.156-1.896,2.276-1.682c1.112,0.114,1.896,1.156,1.682,2.276l-1.31,8.929
					C182.585,154.462,181.934,155.114,181.144,155.276z"/>
			</g>
		</g>
	</g>
</g>
<g>
	<g>
		<circle fill="#FFDA44" cx="191.5" cy="65.2" r="41"/>
		<path fill="#338AF3" d="M150.5,65.2c0-22.6,18.3-41,41-41c22.6,0,41,18.3,41,41"/>
	</g>
	<ellipse fill="none" stroke="#000000" stroke-width="1.4754" stroke-miterlimit="10" cx="191.6" cy="65.2" rx="40.8" ry="40.6"/>
</g>
<g>
	<path d="M23.709,128.263c-0.599,0.745-1.561,1.118-2.886,1.118s-2.289-0.375-2.891-1.123c-0.602-0.749-0.903-1.911-0.903-3.486
		v-12.783h2.617v12.734c0,0.905,0.042,1.455,0.127,1.65s0.187,0.373,0.308,0.532s0.37,0.239,0.747,0.239s0.648-0.111,0.811-0.332
		s0.262-0.497,0.298-0.825s0.054-0.75,0.054-1.265v-12.734h2.617v12.783C24.607,126.354,24.308,127.517,23.709,128.263z"/>
	<path d="M27.088,129.186v-17.188h2.617v7.91l2.617-7.91h2.705l-2.852,8.477l3.076,8.711h-2.764l-2.764-8.027v8.027H27.088z"/>
	<path d="M40.018,121.109l-0.84-0.039v8.115h-2.617v-17.188h4.326c0.898,0,1.569,0.181,2.012,0.542s0.734,0.866,0.874,1.514
		s0.21,1.494,0.21,2.539s-0.111,1.841-0.332,2.388s-0.631,0.915-1.23,1.104c0.592,0.104,1.006,0.504,1.24,1.201
		s0.352,2.147,0.352,4.351s0.033,3.387,0.098,3.55h-2.617c-0.065-0.131-0.098-2.184-0.098-6.162c0-0.762-0.091-1.268-0.273-1.519
		S40.571,121.123,40.018,121.109z M39.188,119.039h1.045c0.332,0,0.578-0.075,0.737-0.225s0.27-0.407,0.332-0.771
		s0.093-0.921,0.093-1.67v-0.107c0-0.931-0.078-1.54-0.234-1.826s-0.518-0.43-1.084-0.43h-0.889
		C39.188,114.01,39.188,119.039,39.188,119.039z"/>
	<path d="M45.643,129.186l2.451-17.188h3.457l2.607,17.188h-2.441l-0.41-3.066h-2.773l-0.371,3.066H45.643z M51.033,124.02
		l-1.152-8.633h-0.039l-1.055,8.633H51.033z"/>
	<path d="M56.053,129.186v-17.188h2.617v17.188H56.053z"/>
	<path d="M61.346,129.186v-17.188h2.051l3.643,10.312l-0.186-4.688v-5.625h2.354v17.188h-1.855l-3.74-10.674l0.146,4.512v6.162
		h-2.413V129.186z"/>
	<path d="M71.883,129.186v-17.188H74.5v17.188H71.883z"/>
	<path d="M76.834,124.352v-1.533h2.48v1.729c0,0.957,0.082,1.629,0.244,2.017s0.469,0.581,0.918,0.581s0.747-0.16,0.894-0.479
		s0.22-0.84,0.22-1.562s-0.13-1.353-0.391-1.89s-0.674-1.099-1.24-1.685l-1.27-1.309c-0.592-0.619-1.053-1.26-1.382-1.924
		s-0.493-1.432-0.493-2.305c0-1.419,0.273-2.474,0.82-3.164s1.488-1.035,2.822-1.035s2.238,0.402,2.71,1.206
		s0.708,1.978,0.708,3.521v1.064h-2.412v-1.23c0-0.833-0.072-1.431-0.215-1.792s-0.418-0.542-0.825-0.542s-0.7,0.137-0.879,0.41
		s-0.269,0.684-0.269,1.23s0.091,0.983,0.273,1.309s0.511,0.742,0.986,1.25l1.416,1.533c0.709,0.768,1.245,1.546,1.606,2.334
		s0.542,1.647,0.542,2.578c0,1.608-0.27,2.796-0.811,3.564s-1.486,1.152-2.837,1.152s-2.292-0.429-2.822-1.284
		C77.099,127.241,76.834,125.992,76.834,124.352z"/>
	<path d="M92.381,128.185c-0.592,0.797-1.523,1.196-2.793,1.196s-2.218-0.425-2.847-1.274s-0.942-2.072-0.942-3.667v-7.49
		c0-2.559,0.67-4.157,2.012-4.795c0.495-0.234,1.094-0.352,1.797-0.352c2.416,0,3.623,1.523,3.623,4.57v2.363h-2.529v-2.197
		c0-0.885-0.075-1.519-0.225-1.899s-0.443-0.571-0.879-0.571s-0.739,0.202-0.908,0.605s-0.254,1.022-0.254,1.855v8.027
		c0,0.924,0.082,1.585,0.244,1.982s0.459,0.596,0.889,0.596s0.726-0.202,0.889-0.605s0.244-1.071,0.244-2.002v-2.461h2.568v2.432
		C93.27,126.158,92.973,127.387,92.381,128.185z"/>
	<path d="M95.398,129.186v-17.188h2.617v6.953h2.344v-6.953h2.617v17.188h-2.617v-7.988h-2.344v7.988H95.398z"/>
	<path d="M105.555,129.186v-17.188h5.762v2.256h-3.145v5h2.988v2.207h-2.988v5.469h3.262v2.256H105.555z"/>
	<path d="M116.98,121.109l-0.84-0.039v8.115h-2.617v-17.188h4.326c0.898,0,1.569,0.181,2.012,0.542s0.734,0.866,0.874,1.514
		s0.21,1.494,0.21,2.539s-0.111,1.841-0.332,2.388s-0.631,0.915-1.23,1.104c0.592,0.104,1.006,0.504,1.24,1.201
		s0.352,2.147,0.352,4.351s0.033,3.387,0.098,3.55h-2.617c-0.065-0.131-0.098-2.184-0.098-6.162c0-0.762-0.091-1.268-0.273-1.519
		S117.534,121.123,116.98,121.109z M116.15,119.039h1.045c0.332,0,0.578-0.075,0.737-0.225s0.27-0.407,0.332-0.771
		s0.093-0.921,0.093-1.67v-0.107c0-0.931-0.078-1.54-0.234-1.826s-0.518-0.43-1.084-0.43h-0.889V119.039z"/>
	<path d="M17.117,153.186v-17.188h5.898v2.275h-3.281v4.57h3.047v2.285h-3.047v8.057L17.117,153.186L17.117,153.186z"/>
	<path d="M31.482,152.263c-0.599,0.745-1.561,1.118-2.886,1.118s-2.289-0.375-2.891-1.123c-0.602-0.749-0.903-1.911-0.903-3.486
		v-12.783h2.617v12.734c0,0.904,0.042,1.455,0.127,1.65s0.187,0.372,0.308,0.532c0.121,0.159,0.37,0.239,0.747,0.239
		s0.648-0.111,0.811-0.332c0.163-0.222,0.262-0.497,0.298-0.825c0.036-0.329,0.054-0.751,0.054-1.265v-12.734h2.617v12.783
		C32.381,150.354,32.082,151.517,31.482,152.263z"/>
	<path d="M34.52,148.352v-1.533H37v1.729c0,0.957,0.082,1.629,0.244,2.017c0.163,0.387,0.469,0.581,0.918,0.581
		s0.747-0.16,0.894-0.479c0.146-0.319,0.22-0.84,0.22-1.562s-0.13-1.353-0.391-1.89s-0.674-1.099-1.24-1.685l-1.27-1.309
		c-0.592-0.619-1.053-1.26-1.382-1.924s-0.493-1.433-0.493-2.305c0-1.42,0.273-2.475,0.82-3.164c0.547-0.69,1.488-1.035,2.822-1.035
		s2.238,0.401,2.71,1.206c0.472,0.804,0.708,1.978,0.708,3.521v1.064h-2.412v-1.23c0-0.834-0.072-1.431-0.215-1.792
		s-0.418-0.542-0.825-0.542s-0.7,0.137-0.879,0.41s-0.269,0.684-0.269,1.23s0.091,0.982,0.273,1.309
		c0.182,0.325,0.511,0.742,0.986,1.25l1.416,1.533c0.709,0.768,1.245,1.546,1.606,2.334c0.361,0.787,0.542,1.646,0.542,2.578
		c0,1.607-0.27,2.796-0.811,3.564c-0.541,0.768-1.486,1.152-2.837,1.152s-2.292-0.429-2.822-1.284
		C34.785,151.24,34.52,149.992,34.52,148.352z"/>
	<path d="M43.357,148.352v-1.533h2.48v1.729c0,0.957,0.082,1.629,0.244,2.017c0.163,0.387,0.469,0.581,0.918,0.581
		s0.747-0.16,0.894-0.479c0.146-0.319,0.22-0.84,0.22-1.562s-0.13-1.353-0.391-1.89s-0.674-1.099-1.24-1.685l-1.27-1.309
		c-0.592-0.619-1.053-1.26-1.382-1.924s-0.493-1.433-0.493-2.305c0-1.42,0.273-2.475,0.82-3.164c0.547-0.69,1.488-1.035,2.822-1.035
		s2.238,0.401,2.71,1.206c0.472,0.804,0.708,1.978,0.708,3.521v1.064h-2.412v-1.23c0-0.834-0.072-1.431-0.215-1.792
		s-0.418-0.542-0.825-0.542s-0.7,0.137-0.879,0.41s-0.269,0.684-0.269,1.23s0.091,0.982,0.273,1.309
		c0.182,0.325,0.511,0.742,0.986,1.25l1.416,1.533c0.709,0.768,1.245,1.546,1.606,2.334c0.361,0.787,0.542,1.646,0.542,2.578
		c0,1.607-0.27,2.796-0.811,3.564c-0.541,0.768-1.486,1.152-2.837,1.152s-2.292-0.429-2.822-1.284
		C43.623,151.24,43.357,149.992,43.357,148.352z"/>
	<path d="M59.891,140.412c0,1.849-0.501,2.984-1.504,3.408c1.224,0.41,1.836,1.761,1.836,4.053v0.439
		c-0.013,1.725-0.314,2.969-0.903,3.73s-1.551,1.143-2.886,1.143h-3.799v-17.188h3.721c1.283,0,2.191,0.298,2.725,0.894
		s0.804,1.593,0.811,2.993L59.891,140.412L59.891,140.412z M55.252,142.951h0.967c0.449,0,0.744-0.144,0.884-0.43
		c0.14-0.287,0.21-0.876,0.21-1.768v-1.035c-0.006-0.664-0.098-1.108-0.273-1.333s-0.479-0.337-0.908-0.337h-0.879L55.252,142.951
		L55.252,142.951z M55.252,151.154h0.928c0.521,0,0.885-0.18,1.094-0.537c0.208-0.358,0.312-1,0.312-1.924v-1.387
		c0-0.873-0.084-1.489-0.254-1.851s-0.495-0.542-0.977-0.542h-1.104L55.252,151.154L55.252,151.154z"/>
	<path d="M61.482,153.186l2.451-17.188h3.457l2.607,17.188h-2.441l-0.41-3.066h-2.773l-0.371,3.066H61.482z M66.873,148.02
		l-1.152-8.633h-0.039l-1.055,8.633H66.873z"/>
	<path d="M71.795,153.186v-17.188h2.617v14.961h3.311v2.227H71.795z"/>
	<path d="M79.227,153.186v-17.188h2.617v14.961h3.311v2.227H79.227z"/>
	<path d="M86.658,153.186v-17.188h5.762v2.256h-3.145v5h2.988v2.207h-2.988v5.469h3.262v2.256L86.658,153.186L86.658,153.186z"/>
	<path d="M98.084,145.109l-0.84-0.039v8.115h-2.617v-17.188h4.326c0.898,0,1.569,0.181,2.012,0.542s0.734,0.865,0.874,1.514
		c0.14,0.647,0.21,1.494,0.21,2.539s-0.111,1.841-0.332,2.388s-0.631,0.914-1.23,1.104c0.592,0.104,1.006,0.504,1.24,1.201
		c0.234,0.696,0.352,2.146,0.352,4.351c0,2.203,0.033,3.387,0.098,3.55H99.56c-0.065-0.131-0.098-2.185-0.098-6.162
		c0-0.762-0.091-1.269-0.273-1.519C99.005,145.254,98.637,145.122,98.084,145.109z M97.254,143.039h1.045
		c0.332,0,0.578-0.075,0.737-0.225c0.16-0.15,0.27-0.407,0.332-0.771c0.062-0.365,0.093-0.922,0.093-1.67v-0.107
		c0-0.932-0.078-1.54-0.234-1.826c-0.156-0.287-0.518-0.43-1.084-0.43h-0.889V143.039z"/>
	<path d="M17.117,177.186v-17.188h3.857c1.263,0,2.179,0.372,2.749,1.118c0.57,0.745,0.854,1.844,0.854,3.296l0.01,7.754
		c0,1.731-0.287,3.001-0.859,3.809c-0.573,0.807-1.52,1.211-2.842,1.211H17.117z M19.734,175.154h0.859
		c0.482,0,0.832-0.156,1.05-0.469s0.327-0.886,0.327-1.719l-0.01-8.486c0-0.893-0.109-1.527-0.327-1.904
		c-0.218-0.378-0.594-0.566-1.128-0.566h-0.771C19.734,162.01,19.734,175.154,19.734,175.154z"/>
	<path d="M26.941,177.186v-17.188h5.762v2.256h-3.145v5h2.988v2.207h-2.988v5.469h3.262v2.256L26.941,177.186L26.941,177.186z"/>
	<path d="M34.568,172.352v-1.533h2.48v1.729c0,0.957,0.082,1.629,0.244,2.017c0.163,0.387,0.469,0.581,0.918,0.581
		s0.747-0.16,0.894-0.479c0.146-0.319,0.22-0.84,0.22-1.562s-0.13-1.353-0.391-1.89s-0.674-1.099-1.24-1.685l-1.27-1.309
		c-0.592-0.619-1.053-1.26-1.382-1.924s-0.493-1.433-0.493-2.305c0-1.42,0.273-2.475,0.82-3.164c0.547-0.69,1.488-1.035,2.822-1.035
		s2.238,0.401,2.71,1.206c0.472,0.804,0.708,1.978,0.708,3.521v1.064h-2.412v-1.23c0-0.834-0.072-1.431-0.215-1.792
		s-0.418-0.542-0.825-0.542s-0.7,0.137-0.879,0.41s-0.269,0.684-0.269,1.23s0.091,0.982,0.273,1.309
		c0.182,0.325,0.511,0.742,0.986,1.25l1.416,1.533c0.709,0.768,1.245,1.546,1.606,2.334c0.361,0.787,0.542,1.646,0.542,2.578
		c0,1.607-0.27,2.796-0.811,3.564c-0.541,0.768-1.486,1.152-2.837,1.152s-2.292-0.429-2.822-1.284
		C34.833,175.24,34.568,173.992,34.568,172.352z"/>
	<path d="M52.869,176.233c-0.619,0.765-1.489,1.147-2.612,1.147s-1.996-0.341-2.617-1.021c-0.622-0.681-0.933-1.672-0.933-2.974
		v-3.066h2.529v2.939c0,0.95,0.153,1.529,0.459,1.738c0.137,0.091,0.306,0.137,0.508,0.137c0.397,0,0.659-0.163,0.786-0.488
		c0.127-0.326,0.19-0.84,0.19-1.543v-13.105h2.617v12.979C53.797,174.383,53.488,175.468,52.869,176.233z"/>
	<path d="M55.496,177.186l2.451-17.188h3.457l2.607,17.188H61.57l-0.41-3.066h-2.773l-0.371,3.066H55.496z M60.887,172.02
		l-1.152-8.633h-0.039l-1.055,8.633H60.887z"/>
	<path d="M65.809,177.186v-17.188h2.617v6.953h2.344v-6.953h2.617v17.188H70.77v-7.988h-2.344v7.988H65.809z"/>
	<path d="M79.422,169.109l-0.84-0.039v8.115h-2.617v-17.188h4.326c0.898,0,1.569,0.181,2.012,0.542s0.734,0.865,0.874,1.514
		c0.14,0.647,0.21,1.494,0.21,2.539s-0.111,1.841-0.332,2.388s-0.631,0.914-1.23,1.104c0.592,0.104,1.006,0.504,1.24,1.201
		c0.234,0.696,0.352,2.146,0.352,4.351c0,2.203,0.033,3.387,0.098,3.55h-2.617c-0.065-0.131-0.098-2.185-0.098-6.162
		c0-0.762-0.091-1.269-0.273-1.519C80.343,169.254,79.975,169.122,79.422,169.109z M78.592,167.039h1.045
		c0.332,0,0.578-0.075,0.737-0.225c0.16-0.15,0.27-0.407,0.332-0.771c0.062-0.365,0.093-0.922,0.093-1.67v-0.107
		c0-0.932-0.078-1.54-0.234-1.826c-0.156-0.287-0.518-0.43-1.084-0.43h-0.889V167.039z"/>
	<path d="M85.828,177.186v-17.188h5.762v2.256h-3.145v5h2.988v2.207h-2.988v5.469h3.262v2.256L85.828,177.186L85.828,177.186z"/>
	<path d="M93.455,172.352v-1.533h2.48v1.729c0,0.957,0.082,1.629,0.244,2.017c0.163,0.387,0.469,0.581,0.918,0.581
		s0.747-0.16,0.894-0.479c0.146-0.319,0.22-0.84,0.22-1.562s-0.13-1.353-0.391-1.89s-0.674-1.099-1.24-1.685l-1.27-1.309
		c-0.592-0.619-1.053-1.26-1.382-1.924s-0.493-1.433-0.493-2.305c0-1.42,0.273-2.475,0.82-3.164c0.547-0.69,1.488-1.035,2.822-1.035
		s2.238,0.401,2.71,1.206c0.472,0.804,0.708,1.978,0.708,3.521v1.064h-2.412v-1.23c0-0.834-0.072-1.431-0.215-1.792
		s-0.418-0.542-0.825-0.542s-0.7,0.137-0.879,0.41s-0.269,0.684-0.269,1.23s0.091,0.982,0.273,1.309
		c0.182,0.325,0.511,0.742,0.986,1.25l1.416,1.533c0.709,0.768,1.245,1.546,1.606,2.334c0.361,0.787,0.542,1.646,0.542,2.578
		c0,1.607-0.27,2.796-0.811,3.564c-0.541,0.768-1.486,1.152-2.837,1.152s-2.292-0.429-2.822-1.284
		C93.72,175.24,93.455,173.992,93.455,172.352z"/>
	<path d="M21.053,202.514c-0.762,0-1.38-0.062-1.855-0.186c-0.475-0.124-0.877-0.351-1.206-0.679
		c-0.329-0.329-0.56-0.775-0.693-1.338c-0.133-0.563-0.2-1.291-0.2-2.183v-10.361c0-0.893,0.067-1.62,0.2-2.183
		c0.133-0.563,0.365-1.01,0.693-1.338c0.329-0.329,0.731-0.556,1.206-0.679c0.475-0.124,1.094-0.186,1.855-0.186v1.953
		c-0.58,0-0.951,0.151-1.113,0.454s-0.244,0.948-0.244,1.938v10.439c0,0.989,0.082,1.636,0.244,1.938s0.534,0.454,1.113,0.454
		V202.514z"/>
	<path d="M23.172,201.186v-17.188h2.617v7.91l2.617-7.91h2.705l-2.852,8.477l3.076,8.711h-2.764l-2.764-8.027v8.027H23.172z"/>
	<path d="M39.07,200.141c-0.599,0.826-1.558,1.24-2.876,1.24s-2.285-0.415-2.9-1.245s-0.923-2.082-0.923-3.755v-7.861
		c0-3.151,1.286-4.727,3.857-4.727c1.328,0,2.284,0.4,2.866,1.201s0.874,1.976,0.874,3.525v7.861
		C39.969,198.061,39.669,199.313,39.07,200.141z M35.237,198.52c0.153,0.396,0.467,0.596,0.942,0.596s0.788-0.204,0.938-0.61
		c0.15-0.407,0.225-1.105,0.225-2.095v-8.008c0-0.814-0.077-1.408-0.229-1.782c-0.153-0.375-0.453-0.562-0.898-0.562
		s-0.758,0.187-0.938,0.562c-0.179,0.374-0.269,0.965-0.269,1.772v8.018C35.008,197.419,35.084,198.122,35.237,198.52z"/>
	<path d="M42.342,201.186v-17.188h3.252l2.441,12.559l2.295-12.559h3.271v17.188h-2.334v-6.406l0.098-5.879l-2.314,12.207h-2.08
		L44.559,188.9l0.098,5.879v6.406h-2.315V201.186z"/>
	<path d="M55.408,201.186l2.451-17.188h3.457l2.607,17.188h-2.441l-0.41-3.066h-2.773l-0.371,3.066H55.408z M60.799,196.02
		l-1.152-8.633h-0.039l-1.055,8.633H60.799z"/>
	<path d="M65.721,201.186v-17.188h2.051l3.643,10.312l-0.186-4.688v-5.625h2.354v17.188h-1.855l-3.74-10.674l0.146,4.512v6.162
		h-2.413V201.186z"/>
	<path d="M76.15,201.186v-17.188h3.857c1.263,0,2.179,0.372,2.749,1.118c0.57,0.745,0.854,1.844,0.854,3.296l0.01,7.754
		c0,1.731-0.287,3.001-0.859,3.809c-0.573,0.807-1.52,1.211-2.842,1.211H76.15z M78.768,199.154h0.859
		c0.482,0,0.832-0.156,1.05-0.469s0.327-0.886,0.327-1.719l-0.01-8.486c0-0.893-0.109-1.527-0.327-1.904
		c-0.218-0.378-0.594-0.566-1.128-0.566h-0.771V199.154z"/>
	<path d="M85.096,201.186l2.451-17.188h3.457l2.607,17.188H91.17l-0.41-3.066h-2.773l-0.371,3.066H85.096z M90.486,196.02
		l-1.152-8.633h-0.039l-1.055,8.633H90.486z"/>
	<path d="M94.959,202.514v-1.953c0.58,0,0.951-0.151,1.113-0.454s0.244-0.949,0.244-1.938V187.73c0-0.99-0.082-1.636-0.244-1.938
		s-0.534-0.454-1.113-0.454v-1.953c0.762,0,1.38,0.062,1.855,0.186c0.475,0.123,0.875,0.35,1.201,0.679
		c0.326,0.328,0.555,0.774,0.688,1.338c0.133,0.562,0.2,1.29,0.2,2.183v10.361c0,0.892-0.067,1.619-0.2,2.183
		c-0.133,0.562-0.363,1.009-0.688,1.338c-0.326,0.328-0.726,0.555-1.201,0.679C96.339,202.451,95.721,202.514,94.959,202.514z"/>
</g>
</svg>
