<?xml version="1.0" encoding="utf-8"?>
<!-- Generator: Adobe Illustrator 17.0.0, SVG Export Plug-In . SVG Version: 6.00 Build 0)  -->
<!DOCTYPE svg PUBLIC "-//W3C//DTD SVG 1.1//EN" "http://www.w3.org/Graphics/SVG/1.1/DTD/svg11.dtd">
<svg version="1.1" id="Layer_1" xmlns="http://www.w3.org/2000/svg" xmlns:xlink="http://www.w3.org/1999/xlink" x="0px" y="0px"
	 width="256px" height="256px" viewBox="0 0 256 256" enable-background="new 0 0 256 256" xml:space="preserve">
<path fill="#FFFFFF" d="M192.1,10.3c-17.1,0-32.4,8-42.3,20.6h-0.3v0.3c-7.1,9.1-11.4,20.6-11.4,33c0,29.7,24.2,53.9,53.9,53.9
	s54-24.2,54-53.9S221.9,10.3,192.1,10.3z"/>
<path d="M192,10.3c-17.1,0-32.4,8-42.3,20.6h-0.3v0.3c-7.1,9.1-11.4,20.6-11.4,33c0,29.7,24.2,53.9,53.9,53.9s53.9-24.2,53.9-53.9
	S221.7,10.3,192,10.3z M208.6,100.9l-23.1-3L183.7,78l17.6-10.7L217,82.4L208.6,100.9z M171.2,103.3L151.9,89l-2.1-14.7l11.8-7.4
	L181.5,78l1.9,20.2L171.2,103.3z M149.1,72.2L142,57.4l9.3-15.3l9.7,2l-0.2,20.8L149.1,72.2z M188.3,19l21.3,2.9l7.3,13.6l-16.1,7.9
	l-16.5-11.5L188.3,19z M231.4,74.4l-12.6,6.7l-16.9-16.2l0.2-19.7l16-7.9L232.3,50L231.4,74.4z M233.5,74.9l1-24.5l7.1-0.9
	c1.4,4.7,2.1,9.6,2.1,14.7c0,4.6-0.6,9-1.7,13.2L233.5,74.9z M240.9,47.4l-7.1,0.9l-14.6-13.1L212,21.9l6.1-2.4
	C228.7,25.7,236.9,35.6,240.9,47.4z M178.8,14.2l7.4,4.1L182,32.1L162.3,42l-10.5-2.1l-0.2-8.1C158.5,23.4,167.9,17,178.8,14.2z
	 M149.7,40.5l-8.5,14.1c1.4-7.3,4.3-14.1,8.4-20L149.7,40.5z M140.5,59.2l7.1,14.9l2.1,14.8l-2.9,0.4c-4.1-7.4-6.5-16-6.5-25.1
	C140.3,62.5,140.4,60.8,140.5,59.2z M172.4,112.1l-0.2-6.8l12.5-5.3l23.9,3.1l4.4,8.4c-6.4,2.9-13.5,4.5-21,4.5
	C185.1,115.9,178.5,114.5,172.4,112.1z"/>
<g>
	<g>
		<g>
			<ellipse fill="#272A9B" stroke="#000000" stroke-miterlimit="10" cx="191.6" cy="65.2" rx="40.8" ry="40.6"/>
		</g>
	</g>
	<g>
		<path fill="#FFFFFF" d="M169.8,78.6V50.2h3.4l6,17l-0.3-7.7v-9.3h3.9v28.4h-3.1L173.5,61l0.2,7.4v10.2H169.8z"/>
		<path fill="#FFFFFF" d="M199.1,57.5c0,3.1-0.8,4.9-2.5,5.6c2,0.7,3,2.9,3,6.7v0.7c0,2.8-0.5,4.9-1.5,6.2s-2.6,1.9-4.8,1.9H187
			V50.2h6.1c2.1,0,3.6,0.5,4.5,1.5s1.3,2.6,1.3,4.9v0.9C198.9,57.5,199.1,57.5,199.1,57.5z M191.5,61.7h1.6c0.7,0,1.2-0.2,1.5-0.7
			c0.2-0.5,0.3-1.4,0.3-2.9v-1.7c0-1.1-0.2-1.8-0.5-2.2s-0.8-0.6-1.5-0.6h-1.5L191.5,61.7L191.5,61.7z M191.5,75.2h1.5
			c0.9,0,1.5-0.3,1.8-0.9s0.5-1.6,0.5-3.2v-2.3c0-1.4-0.1-2.5-0.4-3.1c-0.3-0.6-0.8-0.9-1.6-0.9h-1.8V75.2z"/>
		<path fill="#FFFFFF" d="M209.1,78.6V50.2h4.3v28.4H209.1z"/>
	</g>
</g>
<g>
	<path fill="#FCFF00" stroke="#000000" stroke-miterlimit="10" d="M146.3,157.8c0,0,0,1.3,1.1,1.6c1.1,0.2,1.5-1.5,1.5-2
		c26.1-1.1,26.6-22.9,26.6-31.4s-4-17.6-10.7-17.6s-10.3,8-10.3,8v-2h-54v2c0,0-3-8-9.7-8s-10.3,9.1-10.3,17.6s0.6,30.2,26.8,31.4
		c0,0.5,0.4,2.1,1.5,2c1.1-0.3,1.2-1.6,1.2-1.6s4.8,5.4,10,5.7c0,2.8-0.2,6.7-0.2,6.7s1.7,2.8,3.7,2.9c0,0.7,0,1.5,0,1.5
		s-2.9,1.6-2.9,3.6s2.9,4.2,2.9,4.2v2.6c0,0-4,1.1-5,1.5c0,1.1,0,5.1,0,5.1l-2,1.6v4.2h-6v6h-1v11h-2v2.6c0,0-4-0.3-4,4.1
		s0,22.3,0,22.3h-1.2c0,0-4.2,4-2.5,11c6.5,0,50,0,56.5,0c1.8-7-2.5-11-2.5-11h-3.4c0,0,0-17.9,0-22.3s-2-4.1-2-4.1v-2.6h-4v-11h-2
		v-6h-4v-4.2l-2-1.6c0,0,0-3.9,0-5.1c0-0.3-4-1.5-4-1.5v-2.6c0,0,2.9-2.3,2.9-4.2s-2.9-3.6-2.9-3.6s0-0.8,0-1.5
		c3-0.2,3.9-2.9,3.9-2.9s-0.2-3.9-0.2-6.7C141.4,163.2,146.3,157.8,146.3,157.8z M154.1,123c1.6,0.2,2.6-1.4,1.6-4
		c0,0,3.8-7.2,8.2-7.4c4.4-0.2,7.6,3.8,8.4,16.8c1.2,26.8-22.4,27.4-24.8,27.4C154.7,145.6,154.1,123,154.1,123z M84,128.4
		c0.8-13,4-17,8.4-16.8s8.2,7.4,8.2,7.4c-1,2.6,0,4.2,1.6,4c0,0-0.6,22.6,6.6,32.8C106.4,155.8,82.8,155.2,84,128.4z"/>
	<path fill="#FFFFFF" d="M142.8,117h-19.6c0,0,1.6,22.9,2.8,28.3c1.1,5.4,11.6,5.7,13.4-1.3S142,120,142.8,117z"/>
	<polygon fill="#FFFFFF" points="127,165 133.4,165 133.2,171 127,171 	"/>
	<rect x="127" y="177" fill="#FFFFFF" width="4" height="2"/>
	<rect x="127" y="183" fill="#FFFFFF" width="4" height="2"/>
	<rect x="127" y="187" fill="#FFFFFF" width="6" height="5"/>
	<rect x="127" y="194" fill="#FFFFFF" width="7" height="3"/>
	<rect x="127" y="203" fill="#FFFFFF" width="9" height="2"/>
	<rect x="127" y="218" fill="#FFFFFF" width="12" height="2"/>
	<path fill="#FF9F00" d="M110,137.4c0.8,6.6,3.7,18.3,15,20.2c0.9,0.3-0.3,2.8-5.8,2.2s-12.2-7.1-13-22.4c0-3.9,1.6-4.9,1.6-4.9
		S110,133,110,137.4z"/>
	<path fill="#ABD100" d="M132.1,160c0,0,13.7-3.3,13.6-29.5c0-3.9,4.3-3.6,4.3-0.2C149.9,133.9,150.8,164.3,132.1,160z"/>
	<path fill="#FF9F00" d="M108,243v-22c0,0,0-1.7,1.3-1.7c2,0,1.7,0.9,1.7,2s0,21.7,0,21.7H108z"/>
	<path fill="#ABD100" d="M141,243c0,0,0-20.6,0-22s0.5-2.1,2.5-2.1s3.5,1.4,3.5,2.4s0,21.7,0,21.7L141,243L141,243z"/>
	<rect x="110.3" y="215.2" fill="#FF9F00" width="1.9" height="1.9"/>
	<rect x="111" y="204" fill="#FF9F00" width="4" height="10"/>
	<rect x="115" y="198" fill="#FF9F00" width="2" height="5"/>
	<rect x="118" y="194" fill="#FF9F00" width="3" height="3"/>
	<rect x="134" y="194" fill="#ABD100" width="2" height="3"/>
	<rect x="136" y="198" fill="#ABD100" width="3" height="4"/>
	<rect x="137" y="204" fill="#ABD100" width="6" height="10"/>
	<rect x="139" y="214" fill="#ABD100" width="4" height="3"/>
	<rect x="122" y="187" fill="#FF9F00" width="2" height="3"/>
	<rect x="133" y="187" fill="#ABD100" width="3" height="5"/>
	<path fill="#FF9F00" d="M121.2,168.1c0,0,0.2,1.5,1.3,2.4c0.6,0.5,1.3,1,2.8,0.6c-2.9,2.1-4.3-1-4.3-1S121,169.4,121.2,168.1z"/>
	<path fill="#FF9F00" d="M126,181.2c0,0-2-0.5-2.5-2.2c-0.6-0.8-2-0.2-1.7,0.6S122.8,181.4,126,181.2z"/>
	<path fill="#ABD100" d="M130.6,181.1c0,0,2-0.3,2.2-1.7s1.7-0.9,1.7,0.2C134.3,180.6,131.7,181.1,130.6,181.1z"/>
	<path fill="#ABD100" d="M131.7,172.1c0,0,1.6-0.2,1.6-2.2c0-1.3,1.7-1.4,1.8-0.1C135.2,171.2,132.8,172.4,131.7,172.1z"/>
	<line fill="none" stroke="#000000" stroke-miterlimit="10" x1="111" y1="203.5" x2="143" y2="203.5"/>
	<line fill="none" stroke="#000000" stroke-miterlimit="10" x1="116" y1="197.5" x2="138" y2="197.5"/>
	<line fill="none" stroke="#000000" stroke-miterlimit="10" x1="118" y1="192.5" x2="136" y2="192.5"/>
	<line fill="none" stroke="#000000" stroke-miterlimit="10" x1="119" y1="187.5" x2="136" y2="187.5"/>
	<line fill="none" stroke="#000000" stroke-miterlimit="10" x1="124" y1="181.5" x2="133" y2="181.5"/>
	<line fill="none" stroke="#000000" stroke-miterlimit="10" x1="124" y1="173.5" x2="132" y2="173.5"/>
	<line fill="none" stroke="#000000" stroke-miterlimit="10" x1="120" y1="164.5" x2="136" y2="164.5"/>
	<line fill="none" stroke="#000000" stroke-miterlimit="10" x1="110" y1="214.5" x2="145" y2="214.5"/>
	<line fill="none" stroke="#000000" stroke-miterlimit="10" x1="104" y1="243.5" x2="151" y2="243.5"/>
</g>
<g>
	<path d="M56.056,205.901c-1.01,1.256-2.63,1.884-4.861,1.884s-3.854-0.63-4.869-1.892c-1.015-1.261-1.521-3.219-1.521-5.873
		v-21.533h4.408v21.451c0,1.524,0.071,2.451,0.214,2.78s0.315,0.628,0.519,0.896s0.622,0.403,1.259,0.403
		c0.636,0,1.091-0.187,1.365-0.56c0.273-0.373,0.441-0.836,0.501-1.39c0.061-0.554,0.091-1.265,0.091-2.131v-21.451h4.409v21.533
		C57.569,202.686,57.064,204.646,56.056,205.901z"/>
	<path d="M61.747,207.456v-28.952h3.455l6.136,17.371l-0.312-7.896v-9.476h3.965v28.952h-3.126l-6.301-17.979l0.247,7.6v10.38
		L61.747,207.456L61.747,207.456z"/>
	<path d="M84.777,207.752c-1.82,0-3.243-0.715-4.269-2.146c-1.025-1.431-1.538-3.638-1.538-6.621V186.4
		c0-2.676,0.523-4.716,1.57-6.12c1.048-1.403,2.712-2.105,4.993-2.105c2.84,0,4.645,1.059,5.412,3.175
		c0.461,1.272,0.69,3.011,0.69,5.215v2.057h-4.112v-3.027c0-1.326-0.14-2.259-0.419-2.796c-0.28-0.537-0.807-0.807-1.58-0.807
		c-0.772,0-1.318,0.321-1.637,0.963c-0.317,0.642-0.477,1.779-0.477,3.413v12.552c0,1.897,0.143,3.219,0.428,3.964
		c0.285,0.746,0.842,1.119,1.67,1.119c0.827,0,1.414-0.4,1.76-1.201c0.346-0.8,0.519-2.149,0.519-4.047v-3.898h-2.221v-3.208h6.069
		v15.809h-1.974l-0.675-2.846c-0.23,0.977-0.734,1.744-1.513,2.303C86.696,207.473,85.797,207.752,84.777,207.752z"/>
	<path d="M94.467,207.456l4.129-28.952h5.823l4.393,28.952h-4.113l-0.69-5.165h-4.672l-0.625,5.165H94.467z M103.547,198.754
		l-1.941-14.542h-0.065l-1.776,14.542H103.547z"/>
	<path d="M117.661,193.852l-1.414-0.065v13.67h-4.409v-28.952h7.288c1.513,0,2.643,0.305,3.389,0.913
		c0.745,0.608,1.236,1.459,1.472,2.55s0.354,2.517,0.354,4.277s-0.187,3.101-0.559,4.021c-0.373,0.922-1.064,1.541-2.073,1.859
		c0.998,0.175,1.694,0.85,2.09,2.023c0.395,1.173,0.592,3.616,0.592,7.328c0,3.713,0.055,5.706,0.164,5.979h-4.408
		c-0.109-0.219-0.164-3.679-0.164-10.38c0-1.283-0.154-2.136-0.461-2.558C119.213,194.096,118.594,193.874,117.661,193.852z
		 M116.264,190.364h1.76c0.56,0,0.973-0.126,1.242-0.378s0.455-0.686,0.56-1.3c0.104-0.614,0.156-1.552,0.156-2.812v-0.182
		c0-1.567-0.132-2.593-0.396-3.076c-0.263-0.482-0.871-0.724-1.826-0.724h-1.496C116.264,181.892,116.264,190.364,116.264,190.364z"
		/>
	<path d="M128.617,207.456v-28.952h4.409v28.952H128.617z"/>
	<path d="M136.958,199.313v-2.583h4.178v2.912c0,1.612,0.138,2.744,0.411,3.396c0.274,0.653,0.79,0.979,1.547,0.979
		s1.259-0.269,1.505-0.807c0.247-0.537,0.37-1.414,0.37-2.632c0-1.217-0.22-2.278-0.658-3.183s-1.135-1.852-2.089-2.838
		l-2.139-2.204c-0.998-1.042-1.773-2.122-2.327-3.241c-0.555-1.118-0.831-2.412-0.831-3.882c0-2.391,0.461-4.168,1.382-5.33
		s2.506-1.744,4.754-1.744s3.77,0.678,4.565,2.032s1.192,3.331,1.192,5.93v1.793h-4.063v-2.072c0-1.403-0.12-2.41-0.361-3.019
		s-0.705-0.913-1.391-0.913s-1.179,0.23-1.48,0.69c-0.302,0.461-0.452,1.152-0.452,2.073s0.153,1.656,0.461,2.204
		c0.307,0.549,0.86,1.25,1.661,2.105l2.385,2.583c1.195,1.294,2.098,2.604,2.706,3.932c0.609,1.327,0.913,2.774,0.913,4.343
		c0,2.709-0.455,4.71-1.365,6.004c-0.91,1.295-2.503,1.941-4.778,1.941c-2.276,0-3.86-0.721-4.754-2.163
		C137.404,204.18,136.958,202.077,136.958,199.313z"/>
	<path d="M163.146,205.771c-0.998,1.343-2.566,2.015-4.705,2.015s-3.737-0.716-4.795-2.146c-1.059-1.432-1.588-3.49-1.588-6.177
		v-12.618c0-4.31,1.13-7.002,3.389-8.076c0.834-0.396,1.843-0.593,3.027-0.593c4.068,0,6.103,2.566,6.103,7.699v3.98h-4.261v-3.701
		c0-1.491-0.126-2.558-0.378-3.199c-0.253-0.642-0.746-0.963-1.48-0.963c-0.735,0-1.245,0.34-1.53,1.021
		c-0.285,0.68-0.428,1.722-0.428,3.125v13.522c0,1.557,0.138,2.67,0.411,3.339c0.274,0.669,0.773,1.004,1.497,1.004
		c0.725,0,1.223-0.34,1.497-1.021c0.274-0.68,0.411-1.804,0.411-3.372v-4.146h4.327v4.097
		C164.644,202.356,164.144,204.427,163.146,205.771z"/>
	<path d="M168.229,207.456v-28.952h4.408v11.713h3.948v-11.713h4.409v28.952h-4.409V194h-3.948v13.456H168.229z"/>
	<path d="M185.338,207.456v-28.952h9.705v3.8h-5.297v8.423h5.034v3.718h-5.034v9.212h5.494v3.8h-9.902V207.456z"/>
	<path d="M204.584,193.852l-1.414-0.065v13.67h-4.409v-28.952h7.288c1.513,0,2.643,0.305,3.389,0.913
		c0.745,0.608,1.236,1.459,1.472,2.55c0.236,1.091,0.354,2.517,0.354,4.277s-0.187,3.101-0.559,4.021
		c-0.373,0.922-1.064,1.541-2.073,1.859c0.998,0.175,1.694,0.85,2.09,2.023c0.395,1.173,0.592,3.616,0.592,7.328
		c0,3.713,0.055,5.706,0.164,5.979h-4.408c-0.109-0.219-0.164-3.679-0.164-10.38c0-1.283-0.154-2.136-0.461-2.558
		C206.136,194.096,205.517,193.874,204.584,193.852z M203.187,190.364h1.76c0.56,0,0.973-0.126,1.242-0.378s0.455-0.686,0.56-1.3
		c0.104-0.614,0.156-1.552,0.156-2.812v-0.182c0-1.567-0.132-2.593-0.396-3.076c-0.263-0.482-0.871-0.724-1.826-0.724h-1.496
		V190.364z"/>
	<path d="M79.012,241.456v-28.952h5.478l4.112,21.155l3.866-21.155h5.511v28.952h-3.932v-10.791l0.165-9.903l-3.899,20.562h-3.504
		l-4.062-20.562l0.164,9.903v10.791H79.012z"/>
	<path d="M102.338,241.456v-28.952h9.705v3.8h-5.297v8.423h5.034v3.718h-5.034v9.212h5.494v3.8h-9.902V241.456z"/>
	<path d="M115.926,241.456v-28.952h4.408v28.952H115.926z"/>
	<path d="M124.266,233.313v-2.583h4.179v2.912c0,1.612,0.137,2.744,0.411,3.396c0.274,0.653,0.79,0.979,1.546,0.979
		c0.757,0,1.259-0.269,1.506-0.807c0.246-0.537,0.37-1.414,0.37-2.632c0-1.217-0.22-2.278-0.658-3.183s-1.135-1.852-2.089-2.838
		l-2.139-2.204c-0.998-1.042-1.774-2.122-2.328-3.241c-0.554-1.118-0.83-2.412-0.83-3.882c0-2.391,0.46-4.168,1.382-5.33
		c0.921-1.162,2.505-1.744,4.754-1.744c2.248,0,3.77,0.678,4.564,2.032s1.192,3.331,1.192,5.93v1.793h-4.062v-2.072
		c0-1.403-0.121-2.41-0.362-3.019s-0.705-0.913-1.39-0.913c-0.686,0-1.18,0.23-1.48,0.69c-0.302,0.461-0.453,1.152-0.453,2.073
		s0.154,1.656,0.461,2.204c0.307,0.549,0.861,1.25,1.661,2.105l2.386,2.583c1.195,1.294,2.098,2.604,2.706,3.932
		s0.913,2.774,0.913,4.343c0,2.709-0.455,4.71-1.365,6.004c-0.911,1.295-2.504,1.941-4.779,1.941s-3.86-0.721-4.754-2.163
		S124.266,236.077,124.266,233.313z"/>
	<path d="M141.21,241.456V216.32h-3.389v-3.816h11.038v3.816h-3.258v25.136L141.21,241.456L141.21,241.456z"/>
	<path d="M151.294,241.456v-28.952h9.705v3.8h-5.297v8.423h5.034v3.718h-5.034v9.212h5.494v3.8h-9.902V241.456z"/>
	<path d="M170.54,227.852l-1.414-0.065v13.67h-4.409v-28.952h7.288c1.513,0,2.643,0.305,3.389,0.913
		c0.745,0.608,1.236,1.459,1.472,2.55c0.236,1.091,0.354,2.517,0.354,4.277s-0.187,3.101-0.559,4.021
		c-0.373,0.922-1.064,1.541-2.073,1.859c0.998,0.175,1.694,0.85,2.09,2.023c0.395,1.173,0.592,3.616,0.592,7.328
		c0,3.713,0.055,5.706,0.164,5.979h-4.408c-0.109-0.219-0.164-3.679-0.164-10.38c0-1.283-0.154-2.136-0.461-2.558
		C172.092,228.096,171.473,227.874,170.54,227.852z M169.143,224.364h1.76c0.56,0,0.973-0.126,1.242-0.378s0.455-0.686,0.56-1.3
		c0.104-0.614,0.156-1.552,0.156-2.812v-0.182c0-1.567-0.132-2.593-0.396-3.076c-0.263-0.482-0.871-0.724-1.826-0.724h-1.496
		V224.364z"/>
</g>
</svg>
