<?xml version="1.0" encoding="utf-8"?>
<!-- Generator: Adobe Illustrator 17.0.0, SVG Export Plug-In . SVG Version: 6.00 Build 0)  -->
<!DOCTYPE svg PUBLIC "-//W3C//DTD SVG 1.1//EN" "http://www.w3.org/Graphics/SVG/1.1/DTD/svg11.dtd">
<svg version="1.1" id="Layer_1" xmlns="http://www.w3.org/2000/svg" xmlns:xlink="http://www.w3.org/1999/xlink" x="0px" y="0px"
	 width="256px" height="256px" viewBox="0 0 256 256" enable-background="new 0 0 256 256" xml:space="preserve">
<g>
	<circle fill="#FCFF00" stroke="#000000" stroke-miterlimit="10" cx="139.9" cy="91" r="24"/>
	<g>
		<g>
			<circle fill="#FCFF00" cx="128.2" cy="48.7" r="45.3"/>
		</g>
		<g>
			<circle fill="none" stroke="#000000" stroke-miterlimit="10" cx="128.2" cy="48.7" r="45.3"/>
		</g>
	</g>
	<path fill="#FCFF00" stroke="#000000" stroke-miterlimit="10" d="M95.1,68.1c4.1,4.3,8.9,7.5,13.7,7.2c14-1.3,15.3-12.7,13.3-22.7
		c-1.3-9.3,3.3,0.7,5.3,8c2,7.3,7.3,32.7,12.7,32.7c5.3-0.7-2.7-18,2-19.3s10.7,3.3,10.7,11.3c-0.7,7.3-2.7,6.7-0.7,7.3
		c2,0.7,12.7-21.3,13.3-28.7c0.7-7.3,2.1-12.5,4.8-14.5c0,0,1.2,1.4,0.2,2.6c0.3,9.1,0.4,25.5-2.3,37.8c-4,18-7.3,27.3-7.3,33.3
		s-10.7,31.3-11.3,36c-0.7,4.7,1.3,14.7,0,20s-3.3,10-0.7,17.3c2.7,7.3,10.2,14.8,15.3,26.7c6.7,15.3,10,27.3,10,27.3s-78.3,0-88,0
		c-0.7-13.3,19.3-49.3,19.3-49.3s2.7-26.7,2.7-36s-6-26-10-31.3s-4-34-7.3-47.3C76.1,65.2,83.5,48,84.2,50.1
		c0.3,1.1,0.8,2.3,1.4,3.7"/>
	<path fill="none" stroke="#000000" stroke-linecap="round" stroke-miterlimit="10" d="M105.6,200.6c3.5-12.7,8.2-22.1,13.7-34.1
		c3.9-8.4,7.7-18.4,11-32.4c8-34-38.5-47-38.5-47s7,32,27,58c0,0,2,11.5-0.5,18"/>
	<path fill="none" stroke="#000000" stroke-linecap="round" stroke-miterlimit="10" d="M124.4,73.5c0,0,3,29.5,6.5,37"/>
	<path fill="none" stroke="#000000" stroke-linecap="round" stroke-miterlimit="10" d="M111.6,245.2c-1.8,1.9-3.7,3.7-5.2,5.3"/>
	<path fill="none" stroke="#000000" stroke-linecap="round" stroke-miterlimit="10" d="M130,225.3c-2.7,3.2-5.9,6.8-9.5,10.6"/>
	<path fill="none" stroke="#000000" stroke-linecap="round" stroke-miterlimit="10" d="M159.9,109.5c-1.5,1-11.5,25-11,38.5
		s1,25.5-13.5,35s-29.5,22.5-29.5,22.5l40-13.5c0,0,7.2,2.6-7.5,22.7"/>
	<polygon fill="none" stroke="#000000" stroke-linecap="round" stroke-linejoin="round" stroke-miterlimit="10" points="107.9,64.2 
		105.6,66.8 106.8,72.8 109.4,71.6 	"/>
	<polygon fill="none" stroke="#000000" stroke-linecap="round" stroke-linejoin="round" stroke-miterlimit="10" points="128.6,49.2 
		127.4,52.7 129.7,55.3 129.7,51.3 	"/>
	<polyline fill="none" stroke="#000000" stroke-linecap="round" stroke-linejoin="round" stroke-miterlimit="10" points="
		143.2,54.1 147.3,57.9 153,60.2 155.9,62.2 159.6,62.5 163.1,61.9 165.1,63.9 	"/>
	<polyline fill="none" stroke="#000000" stroke-linecap="round" stroke-linejoin="round" stroke-miterlimit="10" points="
		160.5,48.7 161.3,44.6 158.5,43.8 	"/>
	
		<line fill="none" stroke="#000000" stroke-linecap="round" stroke-linejoin="round" stroke-miterlimit="10" x1="158.5" y1="42.1" x2="157.9" y2="37.5"/>
	<polygon fill="none" stroke="#000000" stroke-linecap="round" stroke-linejoin="round" stroke-miterlimit="10" points="116.8,19.1 
		113.9,20.5 115.1,26 117.7,24.3 115.7,21.4 	"/>
	<path fill="none" stroke="#000000" stroke-linecap="round" stroke-linejoin="round" stroke-miterlimit="10" d="M159,52.1l-4.6,1.1
		l-4,0.3L151,57c0,0,7.2,2.6,6.6,1.7c-0.6-0.9-1.4-2.9-1.4-2.9L159,52.1z"/>
	<polyline fill="none" stroke="#000000" stroke-linecap="round" stroke-linejoin="round" stroke-miterlimit="10" points="
		159.9,55.3 160.5,58.4 163.6,59.6 	"/>
	<path fill="#03A036" d="M164.2,224.7H94.5c1.5-3.4,1.4-3.3,2.2-4.9c1.1-2.4,2-4.3,2-4.3h60.7c0,0,1,1.4,2.5,4.6
		C163.5,222.9,164.2,224.7,164.2,224.7z"/>
	<path fill="#03A036" d="M172.1,245.6H87.2c0,0,0.4-2,1.1-4.8c0.8-2.8-1.2-4.4-1.2-4.4H169c0,0,2.1,5.6,2.4,7
		S172.1,245.6,172.1,245.6z"/>
	<path fill="#FF9F00" d="M114.2,9.7c0,0-41.8,19.3-22.3,72.3c2.5,5,8.5,3.5,8.5,3.5S74.7,37.2,114.2,9.7z"/>
	<path fill="#FF9F00" d="M96.4,91.5l6.5,4c0,0,9.5,35,14,42.5C103.9,114,97.9,101.5,96.4,91.5z"/>
	<path fill="#FF9F00" d="M133.9,121.5c-1.8,13-5.3,27.5-8.1,35c-5.5,14.9-8,15.3-17.2,40.9c6.5-7,15.8-26.2,18.3-32.9
		C133.2,146.9,133.9,121.5,133.9,121.5z"/>
	<path fill="#ABD100" d="M168.2,69.3c0,0-2,27.3-6.3,35.3c-3.3,3.3-10,15.7-10.3,18.3C153.9,115,168.5,84.3,168.2,69.3z"/>
	<ellipse fill="#FFFFFF" cx="131.5" cy="12" rx="12.7" ry="4.7"/>
	<path fill="none" stroke="#000000" stroke-linecap="round" stroke-miterlimit="10" d="M90.2,24.5c-0.3,0.9,4.8,6.9,4.8,6.9l5.5-2.9
		c0,0,7.2-0.6,6-0.9s-4.9-4-4.9-4l4-1.1l4.9,1.1l0.6-4.6l-5.7-2c0,0-3.7,1.4-4,2.3s-2.9,3.2-2.9,3.2l-3.4-4"/>
	<path fill="none" stroke="#000000" stroke-miterlimit="10" d="M85.7,54c2,4.3,5.4,9.8,9.5,14.1"/>
	<path fill="#ABD100" d="M170.5,44c0,0-5.7-22-20.3-31c12,16.3,16,30.7,15,38C168.5,46,167.9,44.3,170.5,44z"/>
	<polyline fill="none" stroke="#000000" stroke-linecap="round" stroke-linejoin="round" stroke-miterlimit="10" points="
		161.9,18.5 158.7,18.2 162.8,23.1 161.9,27.1 158.5,30 	"/>
	<path fill="none" stroke="#000000" stroke-linecap="round" stroke-linejoin="round" stroke-miterlimit="10" d="M101.6,73.2
		c-0.2-2.2-0.6-5.1-0.6-5.1l2-2.3l-2-5.7l-0.6-5.5l2.3-2.6l4-6.6H101l-1.4-7.2l-2-3.7l1.7-3.4c0,0,3.2,2,2.9,2.9
		c-0.3,0.9,0.9,7.5,0.9,7.5l2.9,1.4l7.8-5.2l-6-4.3l-0.9-4l10.6,6.3l4.9,1.7l2.3,13.8L129,42l8-4.3l4.6,5.7c0,0-0.6,6,2.9,7.8
		c-0.6-2.3-1.4-7.5-1.4-7.5l4.6,3.4l0.9-2.9c0,0-2-2.6-1.1-2.6s3.7-1.7,3.7-1.7l1.1,2.6V37l1.4-8.9l-3.2-1.1l3.4-3.7l2.3,2.6
		l-1.1-8.6l-4-6l6.3,2.6"/>
	<path fill="#ABD100" d="M146.4,149.8c0,0,1,14-2,19.5S132.6,181,132.6,181S144.6,168.8,146.4,149.8z"/>
	<path fill="#ABD100" d="M145.6,196c-1.5,8.2-4.8,11.5-10.2,18.2c-4.5,0.5-8-0.2-8-0.2S136.1,209.8,145.6,196z"/>
</g>
<g>
	<path d="M51.293,185.427l-3.537-28.952h3.948l2.122,20.629l2.697-20.629h3.554l2.714,20.629l1.876-20.629h3.964l-3.322,28.952
		h-4.393l-2.566-19.246l-2.665,19.246H51.293z"/>
	<path d="M71.773,185.427v-28.952h9.705v3.8h-5.297v8.423h5.034v3.718h-5.034v9.212h5.494v3.8h-9.902V185.427z"/>
	<path d="M85.196,185.427v-28.952h4.409v25.202h5.576v3.75H85.196z"/>
	<path d="M98.998,185.427v-25.136h-3.389v-3.816h11.038v3.816h-3.257v25.136H98.998z"/>
	<path d="M109.082,185.427v-28.952h5.479l4.112,21.155l3.865-21.155h5.512v28.952h-3.932v-10.791l0.164-9.903l-3.898,20.562h-3.504
		l-4.063-20.562l0.165,9.903v10.791H109.082z"/>
	<path d="M132.408,185.427v-28.952h9.706v3.8h-5.297v8.423h5.033v3.718h-5.033v9.212h5.494v3.8h-9.903V185.427z"/>
	<path d="M145.996,185.427v-28.952h4.409v28.952H145.996z"/>
	<path d="M154.337,177.284v-2.583h4.178v2.912c0,1.612,0.138,2.744,0.411,3.396c0.274,0.653,0.79,0.979,1.547,0.979
		s1.259-0.269,1.505-0.807c0.247-0.537,0.37-1.414,0.37-2.632c0-1.217-0.22-2.278-0.658-3.183s-1.135-1.852-2.089-2.838
		l-2.139-2.204c-0.998-1.042-1.773-2.122-2.327-3.241c-0.555-1.118-0.831-2.412-0.831-3.882c0-2.391,0.461-4.168,1.382-5.33
		s2.506-1.744,4.754-1.744s3.77,0.678,4.565,2.032s1.192,3.331,1.192,5.93v1.793h-4.063v-2.072c0-1.403-0.12-2.41-0.361-3.019
		s-0.705-0.913-1.391-0.913s-1.179,0.23-1.48,0.69c-0.302,0.461-0.452,1.152-0.452,2.073s0.153,1.656,0.461,2.204
		c0.307,0.549,0.86,1.25,1.661,2.105l2.385,2.583c1.195,1.294,2.098,2.604,2.706,3.932c0.609,1.327,0.913,2.774,0.913,4.343
		c0,2.709-0.455,4.71-1.365,6.004c-0.91,1.295-2.503,1.941-4.778,1.941c-2.276,0-3.86-0.721-4.754-2.163
		C154.783,182.15,154.337,180.048,154.337,177.284z"/>
	<path d="M171.28,185.427v-25.136h-3.389v-3.816h11.038v3.816h-3.258v25.136H171.28z"/>
	<path d="M181.364,185.427v-28.952h9.705v3.8h-5.297v8.423h5.034v3.718h-5.034v9.212h5.494v3.8h-9.902V185.427z"/>
	<path d="M200.61,171.822l-1.414-0.065v13.67h-4.409v-28.952h7.288c1.513,0,2.643,0.305,3.389,0.913
		c0.745,0.608,1.236,1.459,1.472,2.55c0.236,1.091,0.354,2.517,0.354,4.277s-0.187,3.101-0.559,4.021
		c-0.373,0.922-1.064,1.541-2.073,1.859c0.998,0.175,1.694,0.85,2.09,2.023c0.395,1.173,0.592,3.616,0.592,7.328
		c0,3.713,0.055,5.706,0.164,5.979h-4.408c-0.109-0.219-0.164-3.679-0.164-10.38c0-1.283-0.154-2.136-0.461-2.558
		C202.162,172.066,201.543,171.845,200.61,171.822z M199.213,168.335h1.76c0.56,0,0.973-0.126,1.242-0.378s0.455-0.686,0.56-1.3
		c0.104-0.614,0.156-1.552,0.156-2.812v-0.182c0-1.567-0.132-2.593-0.396-3.076c-0.263-0.482-0.871-0.724-1.826-0.724h-1.496
		V168.335z"/>
</g>
</svg>
