<?xml version="1.0" encoding="utf-8"?>
<!-- Generator: Adobe Illustrator 17.0.0, SVG Export Plug-In . SVG Version: 6.00 Build 0)  -->
<!DOCTYPE svg PUBLIC "-//W3C//DTD SVG 1.1//EN" "http://www.w3.org/Graphics/SVG/1.1/DTD/svg11.dtd">
<svg version="1.1" id="Layer_1" xmlns="http://www.w3.org/2000/svg" xmlns:xlink="http://www.w3.org/1999/xlink" x="0px" y="0px"
	 width="256px" height="256px" viewBox="0 0 256 256" enable-background="new 0 0 256 256" xml:space="preserve">
<g>
	<g>
		<polygon fill="#56BD00" points="78.5,160.3 44.2,83.8 76.3,57.2 194,55.9 211.1,86.4 177.4,163.2 144.4,138.3 164.5,87.7 
			87.5,88.1 113.6,136.3 		"/>
		<g>
			<g>
				<path fill="#FFFFFF" d="M78.5,166.5c-1.8,0-3.6-1-4.4-2.8L38.5,87.1c-0.9-2-0.4-4.4,1.3-5.8l34.5-28.6c1.2-1,2.7-1.3,4.1-1
					c1.5,0.3,2.7,1.3,3.3,2.7l35.7,76.7c1.1,2.4,0.1,5.3-2.3,6.4c-2.4,1.1-5.3,0.1-6.4-2.3l-33.1-71L48.8,86.4l34.1,73.1
					c1.1,2.4,0.1,5.3-2.3,6.4C79.9,166.3,79.2,166.5,78.5,166.5z"/>
			</g>
			<g>
				<path fill="#FFFFFF" d="M177,167.5c-0.7,0-1.4-0.1-2-0.5c-2.4-1.1-3.5-4-2.3-6.4l34.6-74.1l-26.8-22.3l-33.2,71.2
					c-1.1,2.4-4,3.5-6.4,2.3c-2.4-1.1-3.5-4-2.3-6.4l35.8-76.8c0.6-1.4,1.9-2.3,3.3-2.7c1.5-0.3,3,0,4.1,1l34.5,28.6
					c1.7,1.4,2.2,3.8,1.3,5.8l-36.1,77.5C180.6,166.4,178.8,167.5,177,167.5z"/>
			</g>
			<g>
				<path fill="#FFFFFF" d="M178.6,60L178.6,60L77.3,60.5c-2.7,0-4.8-1.6-4.8-4.3s2.2-4.3,4.8-4.3l0,0L178.6,52c2.7,0,4.8,1.3,4.8,4
					C183.4,58.7,181.3,60,178.6,60z"/>
			</g>
			<g>
				<path fill="#FFFFFF" d="M163.7,93L163.7,93l-71.4-0.1c-2.7,0-4.8-2.3-4.8-4.9c0-2.7,2.2-4.9,4.8-4.9l0,0l71.4,0.3
					c2.7,0,4.8,2.2,4.8,4.9C168.5,90.8,166.4,93,163.7,93z"/>
			</g>
		</g>
		<g>
			<g>
				<g>
					<path fill="#FFFFFF" d="M127.1,248.4c-12.7,0-24.7-4-34.9-11.5c-26-19.3-31.5-56.2-12.3-82.2c11-14.9,28.7-23.8,47.3-23.8
						c12.7,0,24.7,4,34.9,11.5c12.6,9.3,20.8,23,23.2,38.6c2.3,15.5-1.6,31-10.9,43.6C163.4,239.5,145.7,248.4,127.1,248.4z
						 M127.2,139.7c-15.8,0-30.8,7.6-40.2,20.2c-16.4,22.1-11.7,53.5,10.4,69.8c8.7,6.4,18.9,9.8,29.7,9.8
						c15.8,0,30.8-7.6,40.2-20.2c7.9-10.7,11.2-23.9,9.3-37.1c-2-13.2-9-24.8-19.7-32.8C148.2,143.1,138,139.7,127.2,139.7z"/>
				</g>
			</g>
			<g>
				<g>
					<polygon fill="#FFFFFF" points="113.7,137.1 104.1,158.8 80.4,161.3 					"/>
				</g>
			</g>
			<g>
				<g>
					<polygon fill="#FFFFFF" points="147,240.1 126.6,228.1 105.9,239.8 					"/>
				</g>
			</g>
			<g>
				<g>
					<polygon fill="#FFFFFF" points="174.1,162 150.6,159.3 141.2,137.4 					"/>
				</g>
			</g>
			<g>
				<g>
					<polygon fill="#FFFFFF" points="86,225.6 90.9,202.4 73.1,186.6 					"/>
				</g>
			</g>
			<g>
				<g>
					<polygon fill="#FFFFFF" points="181.4,185.9 163.7,201.6 168.5,224.9 					"/>
				</g>
			</g>
		</g>
	</g>
	<path fill="#FFFF00" d="M127.2,139.7c-15.8,0-30.8,7.6-40.2,20.2c-16.4,22.1-11.7,53.5,10.4,69.8c8.7,6.4,18.9,9.8,29.7,9.8
		c15.8,0,30.8-7.6,40.2-20.2c7.9-10.7,11.2-23.9,9.3-37.1c-2-13.2-9-24.8-19.7-32.8C148.2,143.1,138,139.7,127.2,139.7z"/>
	<path fill="#ABD100" d="M145.3,227.9c-4.8,5,11.8-7.4,16-13.1c6.7-9.1,9.5-20.3,7.9-31.5c-1.7-11.2-7.6-21.1-16.7-27.8
		c-1.8-1.4-3.8-2.6-5.8-3.6c0,0,13.9,19.1,12.9,36.9S152.8,220.2,145.3,227.9z"/>
	<path fill="#FF9F00" d="M95.4,188.3c-1-21.7,16.8-38.3,16.8-38.3c-7.5,2.9-14.2,7.8-19.1,14.4c-13.9,18.8-10,45.4,8.9,59.4
		c2.3,1.7,9.2,6.2,7.2,4.3C104.5,223.8,96.4,210,95.4,188.3z"/>
</g>
<g>
	<path fill="#FFFFFF" d="M192,10.3c-17.1,0-32.4,8-42.3,20.6h-0.3v0.3c-7.1,9.1-11.4,20.6-11.4,33c0,29.7,24.2,53.9,53.9,53.9
		s53.9-24.2,53.9-53.9S221.7,10.3,192,10.3z"/>
	<path d="M192,10.3c-17.1,0-32.4,8-42.3,20.6h-0.3v0.3c-7.1,9.1-11.4,20.6-11.4,33c0,29.7,24.2,53.9,53.9,53.9s53.9-24.2,53.9-53.9
		S221.7,10.3,192,10.3z M208.6,100.9l-23.1-3L183.7,78l17.6-10.7L217,82.4L208.6,100.9z M171.2,103.3L151.9,89l-2.1-14.7l11.8-7.4
		L181.5,78l1.9,20.2L171.2,103.3z M149.1,72.2L142,57.4l9.3-15.3l9.7,2l-0.2,20.8L149.1,72.2z M188.3,19l21.3,2.9l7.3,13.6
		l-16.1,7.9l-16.5-11.5L188.3,19z M231.4,74.4l-12.6,6.7l-16.9-16.2l0.2-19.7l16-7.9L232.3,50L231.4,74.4z M233.5,74.9l1-24.5
		l7.1-0.9c1.4,4.7,2.1,9.6,2.1,14.7c0,4.6-0.6,9-1.7,13.2L233.5,74.9z M240.9,47.4l-7.1,0.9l-14.6-13.1L212,21.9l6.1-2.4
		C228.7,25.7,236.9,35.6,240.9,47.4z M178.8,14.2l7.4,4.1L182,32.1L162.3,42l-10.5-2.1l-0.2-8.1C158.5,23.4,167.9,17,178.8,14.2z
		 M149.7,40.5l-8.5,14.1c1.4-7.3,4.3-14.1,8.4-20L149.7,40.5z M140.5,59.2l7.1,14.9l2.1,14.8l-2.9,0.4c-4.1-7.4-6.5-16-6.5-25.1
		C140.3,62.5,140.4,60.8,140.5,59.2z M172.4,112.1l-0.2-6.8l12.5-5.3l23.9,3.1l4.4,8.4c-6.4,2.9-13.5,4.5-21,4.5
		C185.1,115.9,178.5,114.5,172.4,112.1z"/>
</g>
<g>
	<g>
		<path fill="#F0F0F0" d="M191.4,106.2c22.6,0,41-18.3,41-41s-18.3-41-41-41c-22.6,0-41,18.3-41,41S168.8,106.2,191.4,106.2"/>
		<path fill="#D80027" d="M205.7,65.2c0,3.6-6.4,12.5-14.2,12.5c-7.9,0-14.2-8.9-14.2-12.5c0-7.9,6.4-14.2,14.2-14.2
			C199.3,50.9,205.7,57.3,205.7,65.2"/>
		<path fill="#0052B4" d="M205.7,65.2c0,7.9-6.4,14.2-14.2,14.2c-7.9,0-14.2-6.4-14.2-14.2"/>
		<rect x="207.014" y="75.305" transform="matrix(-0.7071 0.7071 -0.7071 -0.7071 412.4406 -16.6281)" width="5.3" height="3.6"/>
		<rect x="200.716" y="81.596" transform="matrix(-0.7071 0.7071 -0.7071 -0.7071 406.1379 -1.4358)" width="5.3" height="3.6"/>
		<rect x="214.576" y="82.929" transform="matrix(-0.7071 0.7071 -0.7071 -0.7071 430.7403 -8.9602)" width="5.3" height="3.6"/>
		<rect x="208.278" y="89.222" transform="matrix(-0.7071 0.7071 -0.7071 -0.7071 424.4397 6.2354)" width="5.3" height="3.6"/>
		<rect x="210.76" y="79.083" transform="matrix(-0.7071 0.7071 -0.7071 -0.7071 421.5068 -12.8285)" width="5.3" height="3.6"/>
		<rect x="204.535" y="85.443" transform="matrix(-0.7071 0.7071 -0.7071 -0.7071 415.3777 2.4307)" width="5.3" height="3.6"/>
		<rect x="203.213" y="44.488" transform="matrix(0.7071 0.7071 -0.7071 0.7071 94.3302 -135.1564)" width="14.2" height="3.6"/>
		<rect x="200.671" y="45.152" transform="matrix(0.7071 0.7071 -0.7071 0.7071 92.7515 -130.0173)" width="5.3" height="3.6"/>
		<rect x="206.967" y="51.454" transform="matrix(0.7071 0.7071 -0.7071 0.7071 99.0514 -132.6238)" width="5.3" height="3.6"/>
		<rect x="208.289" y="37.597" transform="matrix(0.7071 0.7071 -0.7071 0.7071 89.6407 -137.6169)" width="5.3" height="3.6"/>
		<rect x="214.587" y="43.898" transform="matrix(0.7071 0.7071 -0.7071 0.7071 95.9402 -140.2249)" width="5.3" height="3.6"/>
		<rect x="161.747" y="86.067" transform="matrix(-0.7071 -0.7071 0.7071 -0.7071 226.1083 269.3919)" width="14.2" height="3.6"/>
		<rect x="173.052" y="85.467" transform="matrix(-0.7071 -0.7071 0.7071 -0.7071 238.235 273.215)" width="5.3" height="3.6"/>
		<rect x="166.755" y="79.179" transform="matrix(-0.7071 -0.7071 0.7071 -0.7071 231.9305 258.0275)" width="5.3" height="3.6"/>
		<rect x="169.237" y="78.509" transform="matrix(-0.7071 -0.7071 0.7071 -0.7071 244.2388 261.7856)" width="14.2" height="3.6"/>
		<rect x="161.6" y="40.753" transform="matrix(0.7071 -0.7071 0.7071 0.7071 19.3215 131.7522)" width="14.2" height="3.6"/>
		<rect x="165.409" y="44.53" transform="matrix(0.7071 -0.7071 0.7071 0.7071 17.7665 135.5522)" width="14.2" height="3.6"/>
		<rect x="169.218" y="48.311" transform="matrix(0.7071 -0.7071 0.7071 0.7071 16.2084 139.3524)" width="14.2" height="3.6"/>
	</g>
	<ellipse fill="none" stroke="#020200" stroke-width="1.4754" stroke-miterlimit="10" cx="191.6" cy="65.2" rx="40.8" ry="40.6"/>
</g>
<g>
	<path d="M76.495,172.702V143.75h5.478l4.112,21.155l3.866-21.155h5.511v28.952H91.53v-10.791l0.165-9.903l-3.899,20.562h-3.504
		l-4.063-20.562l0.165,9.903v10.791H76.495z"/>
	<path d="M103.062,172.702l-4.491-28.952h4.195l1.892,13.078l1.168,9.212h0.115l1.003-9.212l1.579-13.078h4.113l-4.129,28.952
		H103.062z"/>
	<path d="M115.712,172.702V143.75h6.646c2.248,0,3.786,0.683,4.614,2.048c0.828,1.365,1.264,3.403,1.308,6.111v0.608
		c0,2.874-0.409,5.054-1.226,6.539c-0.817,1.486-2.333,2.229-4.548,2.229h-2.385v11.416L115.712,172.702L115.712,172.702z
		 M120.121,157.65h1.513c0.932,0,1.538-0.359,1.818-1.077c0.28-0.719,0.419-2.087,0.419-4.104v-0.56
		c-0.011-1.711-0.162-2.934-0.452-3.668c-0.291-0.734-0.875-1.103-1.752-1.103h-1.546V157.65z"/>
	<path d="M137.261,172.702V143.75h6.498c2.128,0,3.671,0.628,4.631,1.884s1.439,3.106,1.439,5.552l0.017,13.062
		c0,2.917-0.482,5.056-1.447,6.415c-0.966,1.36-2.562,2.04-4.787,2.04L137.261,172.702L137.261,172.702z M141.67,169.28h1.447
		c0.812,0,1.401-0.263,1.769-0.789s0.551-1.491,0.551-2.896l-0.016-14.295c0-1.503-0.185-2.571-0.552-3.208
		c-0.367-0.636-1.001-0.954-1.899-0.954h-1.3L141.67,169.28L141.67,169.28z"/>
	<path d="M153.811,172.702V143.75h9.705v3.8h-5.297v8.423h5.034v3.718h-5.034v9.212h5.494v3.8h-9.902V172.702z"/>
	<path d="M173.057,159.098l-1.414-0.065v13.67h-4.409V143.75h7.288c1.513,0,2.643,0.305,3.389,0.913
		c0.745,0.608,1.236,1.459,1.472,2.55c0.236,1.091,0.354,2.517,0.354,4.277s-0.187,3.101-0.559,4.021
		c-0.373,0.922-1.064,1.541-2.073,1.859c0.998,0.175,1.694,0.85,2.09,2.023c0.395,1.173,0.592,3.616,0.592,7.328
		c0,3.713,0.055,5.706,0.164,5.979h-4.408c-0.109-0.219-0.164-3.679-0.164-10.38c0-1.283-0.154-2.136-0.461-2.558
		C174.608,159.342,173.989,159.12,173.057,159.098z M171.659,155.61h1.76c0.56,0,0.973-0.126,1.242-0.378s0.455-0.686,0.56-1.3
		c0.104-0.614,0.156-1.552,0.156-2.812v-0.182c0-1.567-0.132-2.593-0.396-3.076c-0.263-0.482-0.871-0.724-1.826-0.724h-1.496V155.61
		z"/>
	<path d="M13.564,198.56v-2.583h4.178v2.912c0,1.612,0.137,2.744,0.411,3.396c0.274,0.653,0.79,0.979,1.546,0.979
		c0.757,0,1.259-0.269,1.505-0.807c0.247-0.537,0.37-1.414,0.37-2.632c0-1.217-0.22-2.278-0.658-3.183s-1.135-1.852-2.089-2.838
		l-2.139-2.204c-0.998-1.042-1.774-2.122-2.328-3.241c-0.554-1.118-0.831-2.412-0.831-3.882c0-2.391,0.46-4.168,1.382-5.33
		c0.921-1.162,2.505-1.744,4.754-1.744c2.248,0,3.77,0.678,4.565,2.032s1.192,3.331,1.192,5.93v1.793h-4.063v-2.072
		c0-1.403-0.121-2.41-0.362-3.019s-0.705-0.913-1.39-0.913c-0.686,0-1.179,0.23-1.48,0.69c-0.302,0.461-0.453,1.152-0.453,2.073
		s0.154,1.656,0.461,2.204c0.307,0.549,0.861,1.25,1.661,2.105l2.385,2.583c1.195,1.294,2.098,2.604,2.706,3.932
		c0.609,1.327,0.913,2.774,0.913,4.343c0,2.709-0.455,4.71-1.365,6.004c-0.911,1.295-2.503,1.941-4.779,1.941
		s-3.86-0.721-4.754-2.163C14.011,203.426,13.564,201.323,13.564,198.56z"/>
	<path d="M40.115,205.147c-1.009,1.256-2.629,1.884-4.861,1.884s-3.855-0.63-4.869-1.892c-1.015-1.261-1.522-3.219-1.522-5.873
		v-21.533h4.409v21.451c0,1.524,0.071,2.451,0.214,2.78s0.315,0.628,0.518,0.896s0.623,0.403,1.259,0.403
		c0.636,0,1.091-0.187,1.365-0.56c0.274-0.373,0.441-0.836,0.501-1.39c0.061-0.554,0.091-1.265,0.091-2.131v-21.451h4.409v21.533
		C41.628,201.932,41.124,203.893,40.115,205.147z M29.027,175.776v-3.718h4.639v3.718H29.027z M36.989,175.776v-3.718h4.639v3.718
		H36.989z"/>
	<path d="M45.79,206.702V177.75h6.498c2.127,0,3.671,0.628,4.631,1.884c0.959,1.256,1.439,3.106,1.439,5.552l0.016,13.062
		c0,2.917-0.482,5.056-1.447,6.415c-0.965,1.36-2.561,2.04-4.787,2.04L45.79,206.702L45.79,206.702z M50.199,203.28h1.448
		c0.812,0,1.401-0.263,1.769-0.789c0.367-0.526,0.551-1.491,0.551-2.896L53.951,185.3c0-1.503-0.184-2.571-0.551-3.208
		c-0.368-0.636-1.001-0.954-1.9-0.954h-1.3v22.142H50.199z"/>
	<path d="M62.339,206.702V177.75h4.409v13.325l4.409-13.325h4.557l-4.803,14.279l5.182,14.673h-4.655l-4.656-13.521v13.521
		L62.339,206.702L62.339,206.702z"/>
	<path d="M89.12,204.942c-1.009,1.393-2.624,2.089-4.844,2.089c-2.221,0-3.85-0.699-4.886-2.098
		c-1.037-1.397-1.555-3.506-1.555-6.324v-13.243c0-5.308,2.166-7.962,6.498-7.962c2.237,0,3.847,0.675,4.828,2.023
		c0.981,1.35,1.473,3.329,1.473,5.938v13.243C90.634,201.438,90.129,203.55,89.12,204.942z M82.664,202.212
		c0.257,0.669,0.787,1.003,1.587,1.003c0.8,0,1.327-0.343,1.579-1.028s0.378-1.861,0.378-3.528V185.17
		c0-1.371-0.129-2.371-0.387-3.002s-0.762-0.946-1.513-0.946s-1.278,0.315-1.579,0.946c-0.302,0.631-0.453,1.626-0.453,2.985v13.506
		C82.277,200.358,82.406,201.543,82.664,202.212z"/>
	<path d="M100.454,193.098l-1.415-0.065v13.67H94.63V177.75h7.288c1.513,0,2.643,0.305,3.389,0.913s1.236,1.459,1.472,2.55
		s0.354,2.517,0.354,4.277s-0.187,3.101-0.559,4.021c-0.373,0.922-1.064,1.541-2.073,1.859c0.998,0.175,1.694,0.85,2.089,2.023
		c0.395,1.173,0.592,3.616,0.592,7.328c0,3.713,0.055,5.706,0.164,5.979h-4.408c-0.11-0.219-0.165-3.679-0.165-10.38
		c0-1.283-0.154-2.136-0.461-2.558C102.006,193.342,101.386,193.12,100.454,193.098z M99.056,189.61h1.76
		c0.559,0,0.973-0.126,1.242-0.378s0.455-0.686,0.56-1.3c0.104-0.614,0.156-1.552,0.156-2.812v-0.182
		c0-1.567-0.132-2.593-0.395-3.076c-0.263-0.482-0.872-0.724-1.826-0.724h-1.497V189.61z"/>
	<path d="M111.246,206.702V177.75h9.706v3.8h-5.297v8.423h5.034v3.718h-5.034v9.212h5.494v3.8h-9.903V206.702z"/>
	<path d="M123.353,206.702l4.129-28.952h5.823l4.393,28.952h-4.112l-0.691-5.165h-4.671l-0.625,5.165H123.353z M132.434,198
		l-1.941-14.542h-0.065L128.649,198H132.434z"/>
	<path d="M140.724,206.702V177.75h3.455l6.136,17.371l-0.312-7.896v-9.476h3.965v28.952h-3.126l-6.301-17.979l0.247,7.6v10.38
		L140.724,206.702L140.724,206.702z"/>
	<path d="M158.474,206.702V177.75h4.409v28.952H158.474z"/>
	<path d="M166.814,198.56v-2.583h4.178v2.912c0,1.612,0.138,2.744,0.411,3.396c0.274,0.653,0.79,0.979,1.547,0.979
		s1.259-0.269,1.505-0.807c0.247-0.537,0.37-1.414,0.37-2.632c0-1.217-0.22-2.278-0.658-3.183s-1.135-1.852-2.089-2.838
		l-2.139-2.204c-0.998-1.042-1.773-2.122-2.327-3.241c-0.555-1.118-0.831-2.412-0.831-3.882c0-2.391,0.461-4.168,1.382-5.33
		s2.506-1.744,4.754-1.744s3.77,0.678,4.565,2.032s1.192,3.331,1.192,5.93v1.793h-4.063v-2.072c0-1.403-0.12-2.41-0.361-3.019
		s-0.705-0.913-1.391-0.913s-1.179,0.23-1.48,0.69c-0.302,0.461-0.452,1.152-0.452,2.073s0.153,1.656,0.461,2.204
		c0.307,0.549,0.86,1.25,1.661,2.105l2.385,2.583c1.195,1.294,2.098,2.604,2.706,3.932c0.609,1.327,0.913,2.774,0.913,4.343
		c0,2.709-0.455,4.71-1.365,6.004c-0.91,1.295-2.503,1.941-4.778,1.941c-2.276,0-3.86-0.721-4.754-2.163
		C167.261,203.426,166.814,201.323,166.814,198.56z"/>
	<path d="M193.003,205.017c-0.998,1.343-2.566,2.015-4.705,2.015s-3.737-0.716-4.795-2.146c-1.059-1.432-1.588-3.49-1.588-6.177
		V186.09c0-4.31,1.13-7.002,3.389-8.076c0.834-0.396,1.843-0.593,3.027-0.593c4.068,0,6.103,2.566,6.103,7.699v3.98h-4.261v-3.701
		c0-1.491-0.126-2.558-0.378-3.199c-0.253-0.642-0.746-0.963-1.48-0.963c-0.735,0-1.245,0.34-1.53,1.021
		c-0.285,0.68-0.428,1.722-0.428,3.125v13.522c0,1.557,0.138,2.67,0.411,3.339c0.274,0.669,0.773,1.004,1.497,1.004
		c0.725,0,1.223-0.34,1.497-1.021c0.274-0.68,0.411-1.804,0.411-3.372v-4.146h4.327v4.097
		C194.5,201.603,194,203.673,193.003,205.017z"/>
	<path d="M198.086,206.702V177.75h4.408v11.713h3.948V177.75h4.409v28.952h-4.409v-13.456h-3.948v13.456H198.086z"/>
	<path d="M215.194,206.702V177.75h9.705v3.8h-5.297v8.423h5.034v3.718h-5.034v9.212h5.494v3.8h-9.902V206.702z"/>
	<path d="M228.617,206.702V177.75h3.455l6.136,17.371l-0.312-7.896v-9.476h3.965v28.952h-3.126l-6.301-17.979l0.247,7.6v10.38
		L228.617,206.702L228.617,206.702z"/>
	<path d="M66.312,240.702V211.75h4.409v13.325l4.409-13.325h4.557l-4.803,14.279l5.182,14.673h-4.655l-4.656-13.521v13.521
		L66.312,240.702L66.312,240.702z"/>
	<path d="M88.305,240.702V211.75h4.409v25.202h5.577v3.75H88.305z"/>
	<path d="M100.824,240.702V211.75h9.706v3.8h-5.297v8.423h5.034v3.718h-5.034v9.212h5.494v3.8h-9.903V240.702z"/>
	<path d="M112.932,240.702l4.129-28.952h5.823l4.393,28.952h-4.113l-0.691-5.165h-4.672l-0.625,5.165H112.932z M122.012,232
		l-1.941-14.542h-0.065L118.229,232H122.012z"/>
	<path d="M135.665,240.998c-1.82,0-3.243-0.715-4.269-2.146c-1.025-1.431-1.538-3.638-1.538-6.621v-12.584
		c0-2.676,0.523-4.716,1.571-6.12c1.047-1.403,2.711-2.105,4.992-2.105c2.841,0,4.645,1.059,5.412,3.175
		c0.461,1.272,0.691,3.011,0.691,5.215v2.057h-4.112v-3.027c0-1.326-0.141-2.259-0.42-2.796s-0.806-0.807-1.579-0.807
		s-1.319,0.321-1.637,0.963s-0.478,1.779-0.478,3.413v12.552c0,1.897,0.143,3.219,0.428,3.964c0.285,0.746,0.842,1.119,1.67,1.119
		s1.415-0.4,1.761-1.201c0.345-0.8,0.518-2.149,0.518-4.047v-3.898h-2.221v-3.208h6.07v15.809h-1.975l-0.674-2.846
		c-0.23,0.977-0.735,1.744-1.514,2.303C137.585,240.719,136.686,240.998,135.665,240.998z"/>
	<path d="M157.758,239.147c-1.009,1.256-2.629,1.884-4.86,1.884c-2.232,0-3.855-0.63-4.869-1.892
		c-1.015-1.261-1.522-3.219-1.522-5.873v-21.533h4.409v21.451c0,1.524,0.071,2.451,0.214,2.78s0.314,0.628,0.518,0.896
		s0.623,0.403,1.259,0.403s1.091-0.187,1.365-0.56s0.441-0.836,0.502-1.39s0.091-1.265,0.091-2.131v-21.451h4.408v21.533
		C159.271,235.932,158.767,237.893,157.758,239.147z"/>
	<path d="M163.449,240.702V211.75h9.706v3.8h-5.297v8.423h5.033v3.718h-5.033v9.212h5.494v3.8h-9.903V240.702z"/>
	<path d="M184.983,240.702v-23.49c-0.373,0.449-0.899,0.798-1.579,1.044c-0.681,0.247-1.35,0.37-2.007,0.37v-3.273
		c0.932-0.132,1.817-0.51,2.656-1.135s1.478-1.453,1.916-2.484h3.422v28.969h-4.408V240.702z"/>
</g>
</svg>
