<?xml version="1.0" encoding="utf-8"?>
<!-- Generator: Adobe Illustrator 17.0.0, SVG Export Plug-In . SVG Version: 6.00 Build 0)  -->
<!DOCTYPE svg PUBLIC "-//W3C//DTD SVG 1.1//EN" "http://www.w3.org/Graphics/SVG/1.1/DTD/svg11.dtd">
<svg version="1.1" id="Layer_1" xmlns="http://www.w3.org/2000/svg" xmlns:xlink="http://www.w3.org/1999/xlink" x="0px" y="0px"
	 width="256px" height="256px" viewBox="0 0 256 256" enable-background="new 0 0 256 256" xml:space="preserve">
<polygon fill="#FFFF00" points="128,188.6 53.1,243.2 82,155.1 6.8,100.8 99.5,101 128,12.8 156.5,101 249.2,100.8 174,155.1 
	202.9,243.2 "/>
<path fill="#FFFFFF" d="M192,10.3c-17.1,0-32.4,8-42.3,20.6h-0.3v0.3c-7.1,9.1-11.4,20.6-11.4,33c0,29.7,24.2,53.9,53.9,53.9
	s53.9-24.2,53.9-53.9S221.7,10.3,192,10.3z"/>
<path d="M192,10.3c-17.1,0-32.4,8-42.3,20.6h-0.3v0.3c-7.1,9.1-11.4,20.6-11.4,33c0,29.7,24.2,53.9,53.9,53.9s53.9-24.2,53.9-53.9
	S221.7,10.3,192,10.3z M208.6,100.9l-23.1-3L183.7,78l17.6-10.7L217,82.4L208.6,100.9z M171.2,103.3L151.9,89l-2.1-14.7l11.8-7.4
	L181.5,78l1.9,20.2L171.2,103.3z M149.1,72.2L142,57.4l9.3-15.3l9.7,2l-0.2,20.8L149.1,72.2z M188.3,19l21.3,2.9l7.3,13.6l-16.1,7.9
	l-16.5-11.5L188.3,19z M231.4,74.4l-12.6,6.7l-16.9-16.2l0.2-19.7l16-7.9L232.3,50L231.4,74.4z M233.5,74.9l1-24.5l7.1-0.9
	c1.4,4.7,2.1,9.6,2.1,14.7c0,4.6-0.6,9-1.7,13.2L233.5,74.9z M240.9,47.4l-7.1,0.9l-14.6-13.1L212,21.9l6.1-2.4
	C228.7,25.7,236.9,35.6,240.9,47.4z M178.8,14.2l7.4,4.1L182,32.1L162.3,42l-10.5-2.1l-0.2-8.1C158.5,23.4,167.9,17,178.8,14.2z
	 M149.7,40.5l-8.5,14.1c1.4-7.3,4.3-14.1,8.4-20L149.7,40.5z M140.5,59.2l7.1,14.9l2.1,14.8l-2.9,0.4c-4.1-7.4-6.5-16-6.5-25.1
	C140.3,62.5,140.4,60.8,140.5,59.2z M172.4,112.1l-0.2-6.8l12.5-5.3l23.9,3.1l4.4,8.4c-6.4,2.9-13.5,4.5-21,4.5
	C185.1,115.9,178.5,114.5,172.4,112.1z"/>
<g>
	<path fill="none" stroke="#000000" stroke-width="3" stroke-miterlimit="10" d="M157.6,137"/>
	<path fill="#FF0000" d="M157.6,137"/>
</g>
<g>
	<path fill="#FFFFFF" d="M212.637,171.124c20.205-10.084,33.688-32.026,34.482-35.35s-0.509-4.068-2.828-6.499
		s-7.02-0.533-7.02-0.533s-21.198,17.464-31.12,24.348c-10.01,6.996-51.971,17.985-57.639,21.011s-45.062,16.013-51.648,24.596
		c0.037,2.716-1.823,9.6,5.098,6.115C108.882,201.327,179.322,187.584,212.637,171.124z"/>
	<g>
		<path fill="none" stroke="#000000" stroke-width="3" stroke-miterlimit="10" d="M183.688,143.502
			c3.337-0.719,6.065-1.464,8.124-1.923c4.391-1.154,9.451-2.592,16.137-4.738c8.806-2.915,18.556-7.963,22.177-8.819
			c6.363-1.501,12.329,0.273,12.329,0.273c2.902,2.257-21.222,20.491-27.015,24.943c-14.909,11.337-61.658,22.723-95.358,36.107
			c-12.007,4.726-17.253,9.513-17.253,9.513s9.278-3.175,15.839-4.701c14.574-3.535,78.216-16.832,94.589-26.94
			c21.136-13.123,31.716-31.678,31.803-35.015c5.085,7.628,1.563,14.115-1.513,18.531c-3.088,4.316-0.595,6.524-1.861,7.69
			c-0.707,0.794-4.292-0.471-7.33,2.63c-3.039,3.101-4.118,5.755-7.851,8.943c-3.746,3.088-0.707,6.437-3.088,9.154
			c-2.394,2.617-5.098-2.084-8.658,0.074c-3.547,2.257-5.582,3.721-11.771,6.611c-6.09,2.878-2.344,7.045-4.713,8.248
			c-2.245,1.389-6.599-4.416-11.262-2.22c-4.664,2.195-22.711,14.227-28.9,17.923c-6.289,3.709-1.191,12.242-3.175,14.103
			c-1.265,1.166-5.582-2.729-9.526-2.84c-2.319-0.012-4.54,1.575-6.81,3.572c-6.078,5.396-0.657,10.865-3.262,12.602
			c-2.605,1.736-4.515-1.451-9.129-2.89s-8.496,1.364-13.383-3.064C89.334,210.22,93.18,186.963,93.18,186.963
			c1.65-2.927,2.642-2.245,7.405-1.228c4.751,0.918,12.887,1.513,18.791-2.853c5.805-4.354,11.932-15.802,11.3-20.863
			c-0.633-5.061-2.096-8.707,4.515-9.03c2.704-0.136,10.704-1.439,19.957-3.2l4.23-0.831
			C161.783,148.054,161.783,148.054,183.688,143.502z"/>
		<path fill="#36F055" d="M183.688,143.502c3.337-0.719,6.065-1.464,8.124-1.923c4.391-1.154,9.451-2.592,16.137-4.738
			c8.806-2.915,18.556-7.963,22.177-8.819c6.363-1.501,12.329,0.273,12.329,0.273c2.902,2.257-21.222,20.491-27.015,24.943
			c-14.909,11.337-61.658,22.723-95.358,36.107c-12.007,4.726-17.253,9.513-17.253,9.513s9.278-3.175,15.839-4.701
			c14.574-3.535,78.216-16.832,94.589-26.94c21.136-13.123,31.716-31.678,31.803-35.015c5.085,7.628,1.563,14.115-1.513,18.531
			c-3.088,4.316-0.595,6.524-1.861,7.69c-0.707,0.794-4.292-0.471-7.33,2.63c-3.039,3.101-4.118,5.755-7.851,8.943
			c-3.746,3.088-0.707,6.437-3.088,9.154c-2.394,2.617-5.098-2.084-8.658,0.074c-3.547,2.257-5.582,3.721-11.771,6.611
			c-6.09,2.878-2.344,7.045-4.713,8.248c-2.245,1.389-6.599-4.416-11.262-2.22c-4.664,2.195-22.711,14.227-28.9,17.923
			c-6.289,3.709-1.191,12.242-3.175,14.103c-1.265,1.166-5.582-2.729-9.526-2.84c-2.319-0.012-4.54,1.575-6.81,3.572
			c-6.078,5.396-0.657,10.865-3.262,12.602c-2.605,1.736-4.515-1.451-9.129-2.89s-8.496,1.364-13.383-3.064
			C89.334,210.22,93.18,186.963,93.18,186.963c1.65-2.927,2.642-2.245,7.405-1.228c4.751,0.918,12.887,1.513,18.791-2.853
			c5.805-4.354,11.932-15.802,11.3-20.863c-0.633-5.061-2.096-8.707,4.515-9.03c2.704-0.136,10.704-1.439,19.957-3.2l4.23-0.831
			C161.783,148.054,161.783,148.054,183.688,143.502z"/>
	</g>
	<g>
		<g>
			<g>
				<path fill="none" stroke="#1D1D1B" stroke-width="3" d="M155.098,163.099c-0.198,0.025-0.397,0.05-0.608-0.025
					c-1.042-0.273-1.774-1.29-1.6-2.319l3.002-14.686c0.273-1.042,1.29-1.774,2.319-1.6c1.042,0.273,1.774,1.29,1.6,2.319
					l-3.002,14.686C156.623,162.405,155.891,163,155.098,163.099z"/>
			</g>
			<g>
				<path fill="none" stroke="#1D1D1B" stroke-width="3" d="M164.214,159.44c-0.198,0.025-0.397,0.05-0.608-0.025
					c-1.042-0.273-1.774-1.29-1.6-2.319l2.357-11.783c0.273-1.042,1.29-1.774,2.319-1.6c1.042,0.273,1.774,1.29,1.6,2.319
					l-2.357,11.783C165.74,158.746,165.008,159.341,164.214,159.44z"/>
			</g>
			<g>
				<path fill="none" stroke="#1D1D1B" stroke-width="3" d="M171.855,156.873c-0.198,0.025-0.397,0.05-0.608-0.025
					c-1.042-0.273-1.774-1.29-1.6-2.319l2.233-11.163c0.273-1.042,1.29-1.774,2.319-1.6c1.042,0.273,1.774,1.29,1.6,2.319
					l-2.233,11.163C173.38,156.178,172.649,156.773,171.855,156.873z"/>
			</g>
			<g>
				<path fill="none" stroke="#1D1D1B" stroke-width="3" d="M180.475,152.469c-0.198,0.025-0.397,0.05-0.608-0.025
					c-1.042-0.273-1.774-1.29-1.6-2.319l1.811-8.893c0.273-1.042,1.29-1.774,2.319-1.6c1.042,0.273,1.774,1.29,1.6,2.319
					l-1.811,8.893C182.001,151.775,181.269,152.37,180.475,152.469z"/>
			</g>
		</g>
		<g>
			<g>
				<path fill="#FFFF00" d="M155.098,163.099c-0.198,0.025-0.397,0.05-0.608-0.025c-1.042-0.273-1.774-1.29-1.6-2.319l3.002-14.686
					c0.273-1.042,1.29-1.774,2.319-1.6c1.042,0.273,1.774,1.29,1.6,2.319l-3.002,14.686
					C156.623,162.405,155.891,163,155.098,163.099z"/>
			</g>
			<g>
				<path fill="#FFFF00" d="M164.214,159.44c-0.198,0.025-0.397,0.05-0.608-0.025c-1.042-0.273-1.774-1.29-1.6-2.319l2.357-11.783
					c0.273-1.042,1.29-1.774,2.319-1.6c1.042,0.273,1.774,1.29,1.6,2.319l-2.357,11.783
					C165.74,158.746,165.008,159.341,164.214,159.44z"/>
			</g>
			<g>
				<path fill="#FFFF00" d="M171.855,156.873c-0.198,0.025-0.397,0.05-0.608-0.025c-1.042-0.273-1.774-1.29-1.6-2.319l2.233-11.163
					c0.273-1.042,1.29-1.774,2.319-1.6c1.042,0.273,1.774,1.29,1.6,2.319l-2.233,11.163
					C173.38,156.178,172.649,156.773,171.855,156.873z"/>
			</g>
			<g>
				<path fill="#FFFF00" d="M180.475,152.469c-0.198,0.025-0.397,0.05-0.608-0.025c-1.042-0.273-1.774-1.29-1.6-2.319l1.811-8.893
					c0.273-1.042,1.29-1.774,2.319-1.6c1.042,0.273,1.774,1.29,1.6,2.319l-1.811,8.893
					C182.001,151.775,181.269,152.37,180.475,152.469z"/>
			</g>
		</g>
	</g>
</g>
<g>
	<path fill="#F0F0F0" d="M230.9,78.5c1.7-4.5,2.6-9.3,2.6-14.4s-0.9-9.9-2.6-14.4L192,46.1l-38.9,3.6c-1.7,4.5-2.6,9.3-2.6,14.4
		s0.9,9.9,2.6,14.4l38.9,3.6L230.9,78.5z"/>
	<path fill="#D80027" d="M192,105.5c17.8,0,33-11.2,38.9-27h-77.7C159,94.3,174.2,105.5,192,105.5z"/>
	<path fill="#D80027" d="M192,22.7c-17.8,0-33,11.2-38.9,27h77.7C225,33.9,209.8,22.7,192,22.7z"/>
</g>
<ellipse fill="none" stroke="#020200" stroke-width="1.484" stroke-miterlimit="10" cx="192.1" cy="64" rx="41.3" ry="40.6"/>
<g>
	<path d="M22.247,125.004c-0.659,0.91-1.713,1.364-3.164,1.364s-2.514-0.457-3.19-1.37s-1.015-2.29-1.015-4.13v-8.647
		c0-3.466,1.414-5.199,4.243-5.199c1.461,0,2.512,0.44,3.153,1.321c0.641,0.881,0.961,2.174,0.961,3.878v8.647
		C23.235,122.716,22.905,124.094,22.247,125.004z M14.942,105.883v-2.428h3.029v2.428H14.942z M18.03,123.22
		c0.168,0.437,0.514,0.655,1.037,0.655c0.522,0,0.866-0.224,1.031-0.671s0.247-1.215,0.247-2.304v-8.809
		c0-0.895-0.084-1.548-0.252-1.96c-0.168-0.412-0.498-0.618-0.988-0.618c-0.491,0-0.834,0.206-1.031,0.618
		c-0.197,0.412-0.295,1.062-0.295,1.95v8.819C17.778,122.01,17.862,122.784,18.03,123.22z M20.141,105.883v-2.428h3.029v2.428
		H20.141z"/>
	<path d="M25.469,120.836v-1.687h2.729v1.901c0,1.053,0.089,1.792,0.269,2.218c0.179,0.426,0.516,0.639,1.01,0.639
		s0.822-0.175,0.983-0.526s0.242-0.924,0.242-1.719s-0.144-1.488-0.43-2.079c-0.287-0.591-0.741-1.208-1.364-1.853l-1.396-1.439
		c-0.652-0.68-1.159-1.386-1.52-2.116c-0.362-0.73-0.542-1.575-0.542-2.535c0-1.561,0.301-2.721,0.902-3.48
		c0.602-0.759,1.636-1.139,3.104-1.139s2.461,0.442,2.981,1.327c0.519,0.885,0.779,2.175,0.779,3.873v1.171h-2.653v-1.354
		c0-0.917-0.079-1.574-0.236-1.971c-0.158-0.397-0.46-0.596-0.908-0.596c-0.448,0-0.77,0.15-0.967,0.451
		c-0.197,0.301-0.295,0.752-0.295,1.354s0.1,1.082,0.301,1.439c0.2,0.358,0.562,0.816,1.085,1.375l1.558,1.687
		c0.78,0.845,1.37,1.701,1.767,2.567c0.397,0.867,0.596,1.812,0.596,2.836c0,1.769-0.297,3.076-0.892,3.921
		c-0.595,0.845-1.635,1.268-3.121,1.268s-2.521-0.471-3.104-1.413C25.761,124.014,25.469,122.64,25.469,120.836z"/>
	<path d="M36.534,126.153v-16.414h-2.213v-2.492h7.208v2.492h-2.127v16.414H36.534z"/>
	<path d="M43.119,126.153v-18.906h6.338v2.481h-3.459v5.5h3.287v2.428h-3.287v6.016h3.588v2.481
		C49.586,126.153,43.119,126.153,43.119,126.153z"/>
	<path d="M55.687,117.269l-0.924-0.043v8.927h-2.879v-18.906h4.759c0.988,0,1.726,0.199,2.213,0.596s0.807,0.953,0.961,1.665
		c0.154,0.713,0.231,1.644,0.231,2.793s-0.122,2.025-0.365,2.626c-0.244,0.602-0.695,1.006-1.354,1.214
		c0.651,0.115,1.106,0.555,1.364,1.321c0.258,0.767,0.387,2.362,0.387,4.786s0.036,3.726,0.107,3.905h-2.879
		c-0.072-0.143-0.107-2.402-0.107-6.778c0-0.838-0.101-1.395-0.301-1.67C56.7,117.429,56.295,117.284,55.687,117.269z
		 M54.774,114.992h1.149c0.365,0,0.635-0.082,0.811-0.247c0.175-0.165,0.297-0.447,0.365-0.849c0.068-0.401,0.102-1.013,0.102-1.837
		v-0.118c0-1.024-0.086-1.693-0.258-2.009c-0.172-0.315-0.569-0.473-1.192-0.473h-0.978L54.774,114.992L54.774,114.992z"/>
	<path d="M66.537,117.269l-0.924-0.043v8.927h-2.879v-18.906h4.759c0.988,0,1.726,0.199,2.213,0.596s0.807,0.953,0.961,1.665
		c0.154,0.713,0.231,1.644,0.231,2.793s-0.122,2.025-0.365,2.626c-0.244,0.602-0.695,1.006-1.354,1.214
		c0.651,0.115,1.106,0.555,1.364,1.321c0.258,0.767,0.387,2.362,0.387,4.786s0.036,3.726,0.107,3.905h-2.879
		c-0.072-0.143-0.107-2.402-0.107-6.778c0-0.838-0.101-1.395-0.301-1.67C67.55,117.429,67.145,117.284,66.537,117.269z
		 M65.624,114.992h1.149c0.365,0,0.635-0.082,0.811-0.247c0.175-0.165,0.297-0.447,0.365-0.849c0.068-0.401,0.102-1.013,0.102-1.837
		v-0.118c0-1.024-0.086-1.693-0.258-2.009c-0.172-0.315-0.569-0.473-1.192-0.473h-0.978v5.533H65.624z"/>
	<path d="M73.583,126.153v-18.906h6.338v2.481h-3.459v5.5h3.287v2.428h-3.287v6.016h3.588v2.481
		C80.05,126.153,73.583,126.153,73.583,126.153z"/>
	<path d="M82.457,126.153v-18.906h2.879v18.906H82.457z"/>
	<path d="M95.283,125.052c-0.652,0.877-1.676,1.316-3.072,1.316s-2.44-0.467-3.131-1.402c-0.691-0.935-1.037-2.279-1.037-4.034
		v-8.239c0-2.814,0.737-4.572,2.213-5.274c0.544-0.258,1.203-0.387,1.977-0.387c2.657,0,3.985,1.676,3.985,5.027v2.6h-2.782v-2.417
		c0-0.974-0.083-1.67-0.247-2.089c-0.165-0.419-0.487-0.628-0.967-0.628s-0.813,0.222-0.999,0.666
		c-0.187,0.444-0.279,1.125-0.279,2.041v8.83c0,1.017,0.089,1.744,0.269,2.181c0.179,0.437,0.505,0.655,0.978,0.655
		s0.798-0.222,0.978-0.666c0.179-0.444,0.269-1.178,0.269-2.202v-2.707h2.825v2.675C96.26,122.823,95.934,124.175,95.283,125.052z"
		/>
	<path d="M98.602,126.153v-18.906h2.879v7.648h2.578v-7.648h2.879v18.906h-2.879v-8.787h-2.578v8.787H98.602z"/>
	<path d="M109.398,120.836v-1.687h2.729v1.901c0,1.053,0.089,1.792,0.269,2.218c0.179,0.426,0.516,0.639,1.01,0.639
		s0.822-0.175,0.983-0.526s0.242-0.924,0.242-1.719s-0.144-1.488-0.43-2.079c-0.287-0.591-0.741-1.208-1.364-1.853l-1.396-1.439
		c-0.652-0.68-1.159-1.386-1.52-2.116c-0.362-0.73-0.542-1.575-0.542-2.535c0-1.561,0.301-2.721,0.902-3.48
		c0.602-0.759,1.636-1.139,3.104-1.139c1.468,0,2.461,0.442,2.981,1.327c0.519,0.885,0.779,2.175,0.779,3.873v1.171h-2.653v-1.354
		c0-0.917-0.079-1.574-0.236-1.971c-0.158-0.397-0.46-0.596-0.908-0.596s-0.77,0.15-0.967,0.451
		c-0.197,0.301-0.295,0.752-0.295,1.354s0.1,1.082,0.301,1.439c0.2,0.358,0.562,0.816,1.085,1.375l1.558,1.687
		c0.78,0.845,1.37,1.701,1.767,2.567c0.397,0.867,0.596,1.812,0.596,2.836c0,1.769-0.297,3.076-0.892,3.921
		s-1.635,1.268-3.121,1.268s-2.521-0.471-3.104-1.413C109.689,124.014,109.398,122.64,109.398,120.836z"/>
	<path d="M15.103,152.553v-18.906h6.488v2.503h-3.609v5.027h3.352v2.514h-3.352v8.862L15.103,152.553L15.103,152.553z"/>
	<path d="M30.905,151.538c-0.659,0.82-1.717,1.229-3.174,1.229c-1.458,0-2.518-0.411-3.18-1.235
		c-0.663-0.823-0.994-2.102-0.994-3.835v-14.062h2.879v14.008c0,0.996,0.046,1.601,0.14,1.815c0.093,0.215,0.206,0.41,0.338,0.586
		s0.406,0.263,0.822,0.263c0.415,0,0.712-0.121,0.892-0.365c0.179-0.243,0.288-0.546,0.328-0.907
		c0.039-0.361,0.059-0.825,0.059-1.392v-14.008h2.879v14.062C31.893,149.438,31.563,150.718,30.905,151.538z"/>
	<path d="M34.246,147.236v-1.687h2.729v1.901c0,1.053,0.089,1.793,0.269,2.219c0.179,0.426,0.516,0.639,1.01,0.639
		s0.822-0.175,0.983-0.526c0.161-0.351,0.242-0.924,0.242-1.719s-0.144-1.487-0.43-2.078c-0.287-0.591-0.741-1.209-1.364-1.854
		l-1.396-1.439c-0.652-0.68-1.159-1.386-1.52-2.116c-0.362-0.73-0.542-1.575-0.542-2.535c0-1.561,0.301-2.721,0.902-3.48
		c0.602-0.759,1.636-1.139,3.104-1.139s2.461,0.442,2.981,1.327c0.519,0.885,0.779,2.175,0.779,3.872v1.171H39.34v-1.354
		c0-0.916-0.079-1.573-0.236-1.971c-0.158-0.397-0.46-0.597-0.908-0.597s-0.77,0.15-0.967,0.451
		c-0.197,0.301-0.295,0.752-0.295,1.354s0.1,1.082,0.301,1.439c0.2,0.358,0.562,0.816,1.085,1.375l1.558,1.687
		c0.78,0.846,1.37,1.701,1.767,2.567c0.397,0.867,0.596,1.812,0.596,2.836c0,1.77-0.297,3.076-0.892,3.921
		c-0.595,0.846-1.635,1.268-3.121,1.268s-2.521-0.471-3.104-1.412C34.537,150.414,34.246,149.04,34.246,147.236z"/>
	<path d="M43.967,147.236v-1.687h2.729v1.901c0,1.053,0.089,1.793,0.269,2.219c0.179,0.426,0.516,0.639,1.01,0.639
		s0.822-0.175,0.983-0.526c0.161-0.351,0.242-0.924,0.242-1.719s-0.144-1.487-0.43-2.078c-0.287-0.591-0.741-1.209-1.364-1.854
		l-1.396-1.439c-0.652-0.68-1.159-1.386-1.52-2.116c-0.362-0.73-0.542-1.575-0.542-2.535c0-1.561,0.301-2.721,0.902-3.48
		c0.602-0.759,1.636-1.139,3.104-1.139s2.461,0.442,2.981,1.327c0.519,0.885,0.779,2.175,0.779,3.872v1.171h-2.653v-1.354
		c0-0.916-0.079-1.573-0.236-1.971c-0.158-0.397-0.46-0.597-0.908-0.597s-0.77,0.15-0.967,0.451
		c-0.197,0.301-0.295,0.752-0.295,1.354s0.1,1.082,0.301,1.439c0.2,0.358,0.562,0.816,1.085,1.375l1.558,1.687
		c0.78,0.846,1.37,1.701,1.767,2.567c0.397,0.867,0.596,1.812,0.596,2.836c0,1.77-0.297,3.076-0.892,3.921
		c-0.595,0.846-1.635,1.268-3.121,1.268s-2.521-0.471-3.104-1.412C44.259,150.414,43.967,149.04,43.967,147.236z"/>
	<path d="M62.154,138.502c0,2.034-0.552,3.284-1.654,3.749c1.346,0.451,2.02,1.938,2.02,4.458v0.483
		c-0.015,1.898-0.346,3.266-0.994,4.104s-1.707,1.257-3.174,1.257h-4.179v-18.906h4.093c1.411,0,2.41,0.328,2.997,0.983
		s0.884,1.753,0.892,3.292L62.154,138.502L62.154,138.502z M57.051,141.295h1.063c0.494,0,0.818-0.157,0.972-0.473
		c0.154-0.314,0.231-0.963,0.231-1.944v-1.139c-0.007-0.73-0.107-1.219-0.301-1.466s-0.526-0.371-0.999-0.371H57.05L57.051,141.295
		L57.051,141.295z M57.051,150.319h1.021c0.573,0,0.974-0.196,1.203-0.591c0.229-0.394,0.344-1.099,0.344-2.116v-1.525
		c0-0.959-0.093-1.638-0.279-2.035c-0.187-0.397-0.544-0.597-1.074-0.597h-1.214L57.051,150.319L57.051,150.319z"/>
	<path d="M63.905,152.553l2.696-18.906h3.803l2.868,18.906h-2.686l-0.451-3.373h-3.051l-0.408,3.373H63.905z M69.834,146.87
		l-1.268-9.496h-0.043l-1.16,9.496H69.834z"/>
	<path d="M75.249,152.553v-18.906h2.879v16.457h3.642v2.449H75.249z"/>
	<path d="M83.423,152.553v-18.906h2.879v16.457h3.642v2.449H83.423z"/>
	<path d="M91.598,152.553v-18.906h6.338v2.481h-3.459v5.5h3.287v2.428h-3.287v6.016h3.588v2.481H91.598z"/>
	<path d="M104.167,143.669l-0.924-0.043v8.927h-2.879v-18.906h4.759c0.988,0,1.726,0.199,2.213,0.597
		c0.487,0.397,0.807,0.952,0.961,1.665s0.231,1.644,0.231,2.793s-0.122,2.024-0.365,2.626c-0.244,0.602-0.695,1.007-1.354,1.214
		c0.651,0.115,1.106,0.556,1.364,1.321c0.258,0.767,0.387,2.362,0.387,4.786s0.036,3.726,0.107,3.904h-2.879
		c-0.072-0.143-0.107-2.402-0.107-6.778c0-0.838-0.101-1.395-0.301-1.67C105.18,143.829,104.775,143.684,104.167,143.669z
		 M103.253,141.392h1.149c0.365,0,0.635-0.082,0.811-0.247c0.175-0.164,0.297-0.447,0.365-0.849c0.068-0.4,0.102-1.013,0.102-1.837
		v-0.118c0-1.023-0.086-1.693-0.258-2.009c-0.172-0.314-0.569-0.473-1.192-0.473h-0.978v5.533H103.253z"/>
	<path d="M15.103,178.953v-18.906h4.243c1.389,0,2.397,0.41,3.024,1.229c0.626,0.82,0.94,2.029,0.94,3.626l0.011,8.529
		c0,1.905-0.315,3.302-0.945,4.189c-0.63,0.888-1.672,1.332-3.126,1.332L15.103,178.953L15.103,178.953z M17.982,176.719h0.945
		c0.53,0,0.915-0.172,1.155-0.516c0.24-0.344,0.36-0.974,0.36-1.891l-0.011-9.335c0-0.981-0.12-1.68-0.36-2.095
		c-0.24-0.415-0.654-0.623-1.241-0.623h-0.849L17.982,176.719L17.982,176.719z"/>
	<path d="M25.91,178.953v-18.906h6.338v2.481h-3.459v5.5h3.287v2.428h-3.287v6.016h3.588v2.481H25.91z"/>
	<path d="M34.299,173.636v-1.687h2.729v1.901c0,1.053,0.089,1.792,0.269,2.218c0.179,0.427,0.516,0.64,1.01,0.64
		s0.822-0.176,0.983-0.526s0.242-0.924,0.242-1.719s-0.144-1.488-0.43-2.079c-0.287-0.591-0.741-1.208-1.364-1.853l-1.396-1.439
		c-0.652-0.681-1.159-1.386-1.52-2.116c-0.362-0.73-0.542-1.575-0.542-2.535c0-1.562,0.301-2.722,0.902-3.48
		s1.636-1.139,3.104-1.139s2.461,0.442,2.981,1.326c0.519,0.885,0.779,2.176,0.779,3.873v1.171h-2.653v-1.354
		c0-0.917-0.079-1.574-0.236-1.972c-0.158-0.397-0.46-0.596-0.908-0.596s-0.77,0.15-0.967,0.451
		c-0.197,0.301-0.295,0.752-0.295,1.354s0.1,1.081,0.301,1.439c0.2,0.358,0.562,0.816,1.085,1.375l1.558,1.687
		c0.78,0.845,1.37,1.701,1.767,2.567s0.596,1.812,0.596,2.836c0,1.769-0.297,3.076-0.892,3.921
		c-0.595,0.845-1.635,1.268-3.121,1.268s-2.521-0.471-3.104-1.413C34.591,176.814,34.299,175.441,34.299,173.636z"/>
	<path d="M54.43,177.905c-0.681,0.842-1.638,1.263-2.874,1.263s-2.195-0.374-2.879-1.123c-0.684-0.748-1.026-1.838-1.026-3.271
		v-3.373h2.782v3.233c0,1.046,0.168,1.683,0.505,1.912c0.15,0.101,0.336,0.15,0.559,0.15c0.437,0,0.725-0.179,0.865-0.537
		s0.209-0.924,0.209-1.697v-14.416h2.879v14.276C55.451,175.87,55.11,177.065,54.43,177.905z"/>
	<path d="M57.32,178.953l2.696-18.906h3.803l2.868,18.906h-2.686l-0.451-3.373H60.5l-0.408,3.373H57.32z M63.25,173.271
		l-1.268-9.496h-0.043l-1.16,9.496H63.25z"/>
	<path d="M68.664,178.953v-18.906h2.879v7.648h2.578v-7.648H77v18.906h-2.879v-8.787h-2.578v8.787H68.664z"/>
	<path d="M83.638,170.07l-0.924-0.043v8.927h-2.879v-18.906h4.759c0.988,0,1.726,0.198,2.213,0.596
		c0.487,0.397,0.807,0.953,0.961,1.665c0.154,0.713,0.231,1.644,0.231,2.793s-0.122,2.025-0.365,2.627
		c-0.244,0.602-0.695,1.006-1.354,1.214c0.651,0.114,1.106,0.555,1.364,1.321s0.387,2.361,0.387,4.785
		c0,2.425,0.036,3.727,0.107,3.905H85.26c-0.072-0.144-0.107-2.402-0.107-6.778c0-0.838-0.101-1.395-0.301-1.671
		C84.651,170.229,84.247,170.084,83.638,170.07z M82.725,167.792h1.149c0.365,0,0.635-0.082,0.811-0.247
		c0.175-0.165,0.297-0.447,0.365-0.849c0.068-0.401,0.102-1.014,0.102-1.837v-0.118c0-1.024-0.086-1.693-0.258-2.009
		s-0.569-0.473-1.192-0.473h-0.978v5.533H82.725z"/>
	<path d="M90.685,178.953v-18.906h6.338v2.481h-3.459v5.5h3.287v2.428h-3.287v6.016h3.588v2.481H90.685z"/>
	<path d="M99.075,173.636v-1.687h2.729v1.901c0,1.053,0.089,1.792,0.269,2.218c0.179,0.427,0.516,0.64,1.01,0.64
		s0.822-0.176,0.983-0.526s0.242-0.924,0.242-1.719s-0.144-1.488-0.43-2.079c-0.287-0.591-0.741-1.208-1.364-1.853l-1.396-1.439
		c-0.652-0.681-1.159-1.386-1.52-2.116c-0.362-0.73-0.542-1.575-0.542-2.535c0-1.562,0.301-2.722,0.902-3.48
		s1.636-1.139,3.104-1.139c1.468,0,2.461,0.442,2.981,1.326c0.519,0.885,0.779,2.176,0.779,3.873v1.171h-2.653v-1.354
		c0-0.917-0.079-1.574-0.236-1.972c-0.158-0.397-0.46-0.596-0.908-0.596s-0.77,0.15-0.967,0.451
		c-0.197,0.301-0.295,0.752-0.295,1.354s0.1,1.081,0.301,1.439c0.2,0.358,0.562,0.816,1.085,1.375l1.558,1.687
		c0.78,0.845,1.37,1.701,1.767,2.567s0.596,1.812,0.596,2.836c0,1.769-0.297,3.076-0.892,3.921s-1.635,1.268-3.121,1.268
		s-2.521-0.471-3.104-1.413C99.366,176.814,99.075,175.441,99.075,173.636z"/>
</g>
</svg>
