<?xml version="1.0" encoding="utf-8"?>
<!-- Generator: Adobe Illustrator 17.0.0, SVG Export Plug-In . SVG Version: 6.00 Build 0)  -->
<!DOCTYPE svg PUBLIC "-//W3C//DTD SVG 1.1//EN" "http://www.w3.org/Graphics/SVG/1.1/DTD/svg11.dtd">
<svg version="1.1" id="Layer_1" xmlns="http://www.w3.org/2000/svg" xmlns:xlink="http://www.w3.org/1999/xlink" x="0px" y="0px"
	 width="256px" height="256px" viewBox="0 0 256 256" enable-background="new 0 0 256 256" xml:space="preserve">
	<g>
		<path fill="#FFFFFF" d="M190.7,10.3c-17.1,0-32.4,8-42.3,20.6h-0.3v0.3c-7.1,9.1-11.4,20.6-11.4,33c0,29.7,24.2,53.9,53.9,53.9
		s53.9-24.2,53.9-53.9S220.4,10.3,190.7,10.3z"/>
		<path d="M190.7,10.3c-17.1,0-32.4,8-42.3,20.6h-0.3v0.3c-7.1,9.1-11.4,20.6-11.4,33c0,29.7,24.2,53.9,53.9,53.9
		s53.9-24.2,53.9-53.9S220.4,10.3,190.7,10.3z M207.3,100.9l-23.1-3L182.4,78L200,67.3l15.7,15.1L207.3,100.9z M169.9,103.3
		L150.6,89l-2.1-14.7l11.8-7.4L180.2,78l1.9,20.2L169.9,103.3z M147.8,72.2l-7.1-14.9L150,42l9.7,2l-0.2,20.8L147.8,72.2z M186.9,19
		l21.3,2.9l7.3,13.6l-16.1,7.9L183,31.9L186.9,19z M230.1,74.4l-12.6,6.7l-16.9-16.2l0.2-19.7l16-7.9L231,49.9L230.1,74.4z
		 M232.2,74.9l1-24.5l7.1-0.9c1.4,4.7,2.1,9.6,2.1,14.7c0,4.6-0.6,9-1.7,13.2L232.2,74.9z M239.6,47.4l-7.1,0.9l-14.6-13.1
		l-7.2-13.3l6.1-2.4C227.3,25.7,235.5,35.6,239.6,47.4z M177.5,14.2l7.4,4.1l-4.2,13.9L161,42.1L150.5,40l-0.2-8.1
		C157.2,23.4,166.6,17,177.5,14.2z M148.4,40.5l-8.5,14.1c1.4-7.3,4.3-14.1,8.4-20L148.4,40.5z M139.2,59.2l7.1,14.9l2.1,14.8
		l-2.9,0.4c-4.1-7.4-6.5-16-6.5-25.1C138.9,62.5,139,60.8,139.2,59.2z M171.1,112.1l-0.2-6.8l12.5-5.3l23.9,3.1l4.4,8.4
		c-6.4,2.9-13.5,4.5-21,4.5C183.7,115.9,177.1,114.5,171.1,112.1z"/>
	</g>
	<g>
		<path fill="#FCFF00" stroke="#000000" stroke-miterlimit="10" d="M151.2,179.9c2.6-1.7,35.5-19.4,35.5-49.1c0-8.6-5-13.6-10.1-13.6
		c-5.7,0-6.9,5.4-13.5,5.4c0,0,1.8-4.6-1.1-4.5c0.3-3.3,0.4-5.1,0.4-5.4c2.6-1.8-0.1-3.2-0.1-3.2H91.1c0,0-2.7,1.5-0.1,3.2
		c0,0.4,0.1,2.3,0.4,5.6c-2.9-0.1-1.1,4.4-1.1,4.4c-6.6,0-7.8-5.5-13.5-5.5c-5.1,0-10.1,5-10.1,13.6c0,29.7,32.9,47.4,35.5,49.1
		c2.6,1.7,2.2,5.3,1.5,6c-0.8,0.8-0.5,2,0.4,2c0.6,0,2.9-2.8,1.6-6.2c4,8.4,8.9,15.1,14.5,18.8c-1.3,0.6-1.9,3-1.8,3.6
		c0.2,0.6,1.2,3,3.3,3.3c0,0,3.7,17.6-8.7,25.5c0,1.1-0.2,2.7-0.2,2.7h-3.6c-1.8,0-2.9,2.4-2.9,4.2s0,4.8,0,4.8h-5c0,0-5,0.1-5,6.2
		c0,1.3,0,3.8,0,3.8h58c0,0,0-2.5,0-3.8c0-6-2.7-6.2-2.7-6.2h-5.3c0,0,0-3,0-4.8s-0.7-4.2-2.5-4.2h-3.6c0,0-0.2-1.6-0.2-2.7
		c-12.4-7.8-8.7-25.6-8.7-25.6c2.1-0.4,3.1-2.6,3.3-3.2c0.2-0.6-0.5-3-1.8-3.6c5.6-3.7,10.5-10.4,14.5-18.8
		c-1.4,3.4,0.9,6.2,1.6,6.2c1,0,1.3-1.1,0.4-2C149,185.3,148.6,181.7,151.2,179.9z M102.4,177.7C74.3,162.2,71,136.8,71,131.5
		c0-6.3,3.3-10.5,6.8-10.5s7.6,4,10.8,4c1.4,0,2.5-0.7,3.2-1.6c1.1,10.4,3.3,26.5,7.6,41.4c1.6,5.8,3.7,11.2,6,16.2
		C104.8,179.9,103.8,178.8,102.4,177.7z M148,180.9c2.3-4.9,4.3-10.4,6-16.2c4.3-14.9,6.5-31,7.6-41.4c0.7,0.9,1.8,1.6,3.2,1.6
		c3.2,0,7.4-4,10.8-4c3.5,0,6.8,4.2,6.8,10.5c0,5.4-3.3,30.7-31.4,46.3C149.5,178.8,148.6,179.9,148,180.9z"/>
		<path fill="#FFFFFF" d="M146.6,113h-26.1c0,0,2.6,30.1,3.7,39.2c1.1,9.1,14.4,9.7,16.6-0.1S146.6,113,146.6,113z"/>
		<path fill="#FFFFFF" d="M126.3,203c-1.5,0-1.7-2.3,0.1-2.3s3.1-0.1,3.9-0.1c1.4,0,1.6,2.4,0,2.4C128.6,203,126.3,203,126.3,203z"/>
		<path fill="#FFFFFF" d="M126.5,228.1c-0.5,0-0.8-0.4-0.8-1.9s0.4-4.1,1-8.6c0.2-1.1,1.7-1.2,2,0.1s1.1,7.4,1.4,8.7
		c0.3,1.3-0.2,1.5-1,1.6C128.3,228.3,126.5,228.1,126.5,228.1z"/>
		<path fill="#FFFFFF" d="M128,237.3c-3,0-3,1.5,0,1.5c1,0,5.9,0,7.6,0c1.6,0,2.1-1.4,0.3-1.4C133.2,237.3,128,237.3,128,237.3z"/>
		<path fill="#ABD100" d="M130.7,198.2c0,0,22.6-25,22.2-77.1c0-2.8-4.9-5.6-5.2,4.4c-0.4,11.5-4.6,52.5-17.2,65.3
		C129.4,191,128.7,198.2,130.7,198.2z"/>
		<path fill="#ABD100" d="M129.5,204.6c0,0,2.6-0.7,2.2-2.6c1.1,0,1.1,1.1,1.1,1.8s-1.4,1.9-2.5,2
		C129.1,205.7,128.5,204.8,129.5,204.6z"/>
		<path fill="#ABD100" d="M130,207h0.3c0,0,0.8,14.3,1.2,15.5c0.5,1.1-1.4-1.3-1.4-6.6C130,210.6,130,207,130,207z"/>
		<rect x="134" y="233" fill="#ABD100" width="3" height="2"/>
		<path fill="#ABD100" d="M137,243.5v-5.6c0,0,2.1,0,3.4,0c1.3,0,2.6,0.9,2.6,2.4s0,3.2,0,3.2L137,243.5z"/>
		<path fill="#FF9F00" d="M120,198.2c0,0-22.6-25-22.2-77.1c0-2.8,4.9-5.6,5.2,4.4c0.4,11.5,4.6,52.5,17.2,65.3
		C121.3,191,122,198.2,120,198.2z"/>
		<path fill="#FF9F00" d="M123.8,204.6c0,0-2.6-0.7-2.2-2.6c-1.1,0-1.1,1.1-1.1,1.8s1.4,1.9,2.5,2
		C124.2,205.7,124.9,204.8,123.8,204.6z"/>
		<path fill="#FF9F00" d="M125,207h-1.9c0,0,0.1,14.3-0.3,15.5c-0.5,1.1,2.3-1.3,2.3-6.6C125,210.6,125,207,125,207z"/>
		<rect x="113.7" y="233.1" fill="#FF9F00" width="2" height="2"/>
		<path fill="#FF9F00" d="M112.2,243.5l-0.1-5.7c0,0,0.5,0-0.8,0s-2.4,0.9-2.4,2.4s0,3.3,0,3.3H112.2z"/>
		<line fill="none" stroke="#957E78" stroke-miterlimit="10" x1="92" y1="112.5" x2="163" y2="112.5"/>
		<line fill="none" stroke="#957E78" stroke-miterlimit="10" x1="121" y1="199.5" x2="134" y2="199.5"/>
		<line fill="none" stroke="#957E78" stroke-miterlimit="10" x1="121" y1="207.5" x2="133" y2="207.5"/>
		<line fill="none" stroke="#957E78" stroke-miterlimit="10" x1="114" y1="232.5" x2="140" y2="232.5"/>
		<line fill="none" stroke="#957E78" stroke-miterlimit="10" x1="114" y1="235.5" x2="140" y2="235.5"/>
		<line fill="none" stroke="#957E78" stroke-miterlimit="10" x1="107" y1="244.5" x2="147" y2="244.5"/>
	</g>
	<g>
		<ellipse fill="#FFFFFF" stroke="#000000" stroke-miterlimit="10" cx="190.3" cy="65.2" rx="40.8" ry="40.6"/>
	</g>
	<g>
		<g>
			<path fill="#FAF7F7" d="M169.9,88.4c0.5,0.5,0.9,1.5,1.6,0.8c0.4-0.4-0.3-1.3-1-1.7c-6.7-11.8-7.7-23.8-1.2-36
			c-5.6,0.2-8.6,2.5-9.3,7.6C158.4,70.5,161,80.5,169.9,88.4z M189.9,96.2c-5-5-6.2-11-5.1-17.6c0.5-2.8,0.6-5.9,2.1-8.2
			c3.3-5.1,0.6-8.2-2.7-11.3c-0.9-0.8-1.9-1.6-2.7-2.5c-1.8-2-2.9-1.1-3.8,0.8c-4.8,9.8-4.8,19.7-0.3,29.6
			C179.7,92.2,183.8,95.4,189.9,96.2z M164.3,49.3c3.8-1.6,7.4-1.7,11.1-0.2c5.4,2.2,10.1,5.5,13.2,10.2c2.6,3.8,5.4,4.6,9.4,3.3
			c0.9-0.3,1.8-0.5,2.7-0.8c5.4-1.6,5.7-2.1,2-6.5c-6.9-8.1-15-13.4-26.6-12.5C170.7,43.3,167.1,45.1,164.3,49.3z M219.8,56.8
			c0.1-2.7-0.3-4.1-1-4c-0.8,0.2-1.8,0.6-2.2,1.5c-3.6,7.1-10.2,10-17.3,11.2c-6.4,1.2-9.8,4.1-10.8,10.7c-0.6,3.8,0.5,4.6,3.7,4.2
			c10.5-1.2,18.9-6,24.8-14.9C218.7,63,219.7,60,219.8,56.8z M180,36.3c14.4-0.6,25.8,4.8,33.7,17.1c2-3.8,2-7.2-0.5-10.4
			C206.7,34.6,190,31,180,36.3z M221.3,70.7c-7,12.1-17.1,19.2-31.4,19.9c1.7,3,3.6,4.4,6.9,4.4c8.8,0,14.4-5.1,19.4-11.3
			C219.2,80.1,221,75.7,221.3,70.7z"/>
			<path fill="#EA2615" d="M189.9,96.2c-6.1-0.8-10.2-4-12.6-9.1c-4.5-9.9-4.5-19.8,0.3-29.6c0.9-1.9,2-2.8,3.8-0.8
			c0.8,0.9,1.8,1.6,2.7,2.5c3.3,3.2,6,6.3,2.7,11.3c-1.4,2.2-1.6,5.4-2.1,8.2C183.7,85.2,184.9,91.2,189.9,96.2z"/>
			<path fill="#EA2615" d="M164.3,49.3c2.8-4.2,6.4-6,11.9-6.4c11.6-1,19.7,4.4,26.6,12.5c3.7,4.3,3.3,4.9-2,6.5
			c-0.9,0.3-1.8,0.5-2.7,0.8c-4,1.3-6.9,0.5-9.4-3.3c-3.2-4.7-7.9-8-13.2-10.2C171.7,47.6,168.1,47.7,164.3,49.3z"/>
			<path fill="#EA2615" d="M219.8,56.8c-0.1,3.2-1.1,6.1-2.8,8.7c-5.9,8.8-14.3,13.6-24.8,14.9c-3.3,0.4-4.3-0.4-3.7-4.2
			c1-6.6,4.5-9.5,10.8-10.7c7.1-1.3,13.7-4.1,17.3-11.2c0.5-0.9,1.4-1.3,2.2-1.5C219.5,52.7,219.9,54.2,219.8,56.8z"/>
			<path fill="#EA2615" d="M180,36.3c10-5.2,26.7-1.7,33.2,6.7c2.5,3.2,2.5,6.6,0.5,10.4C205.7,41.1,194.4,35.7,180,36.3z"/>
			<path fill="#EA2615" d="M221.3,70.7c-0.3,5-2.1,9.3-5.1,13.1c-5,6.2-10.6,11.3-19.4,11.3c-3.4,0-5.2-1.4-6.9-4.4
			C204.2,89.9,214.4,82.9,221.3,70.7z"/>
			<path fill="#EA2615" d="M169.9,88.4c-8.9-7.9-11.5-17.9-9.9-29.3c0.7-5.1,3.8-7.4,9.3-7.6c-6.4,12.3-5.5,24.3,1.2,36
			C170.3,87.8,170.1,88.1,169.9,88.4z"/>
			<path fill="#EA2615" d="M170.5,87.5c0.7,0.4,1.4,1.3,1,1.7c-0.7,0.7-1.2-0.3-1.6-0.8C170.1,88.1,170.3,87.8,170.5,87.5z"/>
		</g>
	</g>
	<g>
		<path d="M32.47,205.073c-1.009,1.393-2.624,2.089-4.844,2.089c-2.221,0-3.85-0.699-4.886-2.098
		c-1.037-1.397-1.555-3.506-1.555-6.324v-13.243c0-5.308,2.166-7.962,6.498-7.962c2.237,0,3.847,0.675,4.828,2.023
		c0.981,1.35,1.473,3.329,1.473,5.938v13.243C33.984,201.569,33.479,203.681,32.47,205.073z M21.284,175.792v-3.718h4.639v3.718
		H21.284z M26.014,202.343c0.257,0.669,0.787,1.003,1.587,1.003s1.327-0.343,1.579-1.028s0.378-1.861,0.378-3.528V185.3
		c0-1.371-0.129-2.371-0.387-3.002s-0.762-0.946-1.513-0.946c-0.751,0-1.278,0.315-1.579,0.946
		c-0.302,0.631-0.453,1.626-0.453,2.985v13.506C25.627,200.489,25.756,201.674,26.014,202.343z M29.246,175.792v-3.718h4.639v3.718
		H29.246z"/>
		<path d="M36.563,198.69v-2.583h4.178v2.912c0,1.612,0.137,2.744,0.411,3.396c0.274,0.653,0.79,0.979,1.546,0.979
		c0.757,0,1.259-0.269,1.505-0.807c0.247-0.537,0.37-1.414,0.37-2.632c0-1.217-0.22-2.278-0.658-3.183s-1.135-1.852-2.089-2.838
		l-2.139-2.204c-0.998-1.042-1.774-2.122-2.328-3.241c-0.554-1.118-0.831-2.412-0.831-3.882c0-2.391,0.46-4.168,1.382-5.33
		c0.921-1.162,2.505-1.744,4.754-1.744c2.248,0,3.77,0.678,4.565,2.032s1.192,3.331,1.192,5.93v1.793H44.36v-2.072
		c0-1.403-0.121-2.41-0.362-3.019s-0.705-0.913-1.39-0.913c-0.686,0-1.179,0.23-1.48,0.69c-0.302,0.461-0.453,1.152-0.453,2.073
		s0.154,1.656,0.461,2.204c0.307,0.549,0.861,1.25,1.661,2.105l2.385,2.583c1.195,1.294,2.098,2.604,2.706,3.932
		c0.609,1.327,0.913,2.774,0.913,4.343c0,2.709-0.455,4.71-1.365,6.004c-0.911,1.295-2.503,1.941-4.779,1.941
		s-3.86-0.721-4.754-2.163C37.01,203.557,36.563,201.454,36.563,198.69z"/>
		<path d="M52.665,206.833v-25.136h-3.389v-3.816h11.038v3.816h-3.257v25.136H52.665z"/>
		<path d="M61.906,206.833v-28.952h9.706v3.8h-5.297v8.423h5.034v3.718h-5.034v9.212h5.494v3.8h-9.903V206.833z"/>
		<path d="M80.311,193.229l-1.415-0.065v13.67h-4.409v-28.952h7.288c1.513,0,2.643,0.305,3.389,0.913s1.236,1.459,1.472,2.55
		s0.354,2.517,0.354,4.277s-0.187,3.101-0.559,4.021c-0.373,0.922-1.064,1.541-2.073,1.859c0.998,0.175,1.694,0.85,2.089,2.023
		c0.395,1.173,0.592,3.616,0.592,7.328c0,3.713,0.055,5.706,0.164,5.979h-4.408c-0.11-0.219-0.165-3.679-0.165-10.38
		c0-1.283-0.154-2.136-0.461-2.558C81.862,193.473,81.243,193.251,80.311,193.229z M78.913,189.741h1.76
		c0.559,0,0.973-0.126,1.242-0.378s0.455-0.686,0.56-1.3c0.104-0.614,0.156-1.552,0.156-2.812v-0.182
		c0-1.567-0.132-2.593-0.395-3.076c-0.263-0.482-0.872-0.724-1.826-0.724h-1.497V189.741z"/>
		<path d="M96.083,193.229l-1.415-0.065v13.67H90.26v-28.952h7.288c1.513,0,2.643,0.305,3.389,0.913s1.236,1.459,1.472,2.55
		s0.354,2.517,0.354,4.277s-0.187,3.101-0.559,4.021c-0.373,0.922-1.064,1.541-2.073,1.859c0.998,0.175,1.694,0.85,2.089,2.023
		c0.395,1.173,0.592,3.616,0.592,7.328c0,3.713,0.055,5.706,0.164,5.979h-4.408c-0.11-0.219-0.165-3.679-0.165-10.38
		c0-1.283-0.154-2.136-0.461-2.558C97.635,193.473,97.015,193.251,96.083,193.229z M94.685,189.741h1.76
		c0.559,0,0.973-0.126,1.242-0.378s0.455-0.686,0.56-1.3c0.104-0.614,0.156-1.552,0.156-2.812v-0.182
		c0-1.567-0.132-2.593-0.395-3.076c-0.263-0.482-0.872-0.724-1.826-0.724h-1.497V189.741z"/>
		<path d="M106.032,206.833v-28.952h9.706v3.8h-5.297v8.423h5.034v3.718h-5.034v9.212h5.494v3.8h-9.903V206.833z"/>
		<path d="M118.778,206.833v-28.952h4.409v28.952H118.778z"/>
		<path d="M137.577,205.147c-0.998,1.343-2.566,2.015-4.704,2.015c-2.139,0-3.738-0.716-4.796-2.146
		c-1.059-1.432-1.587-3.49-1.587-6.177v-12.618c0-4.31,1.129-7.002,3.389-8.076c0.833-0.396,1.842-0.593,3.026-0.593
		c4.068,0,6.103,2.566,6.103,7.699v3.98h-4.26v-3.701c0-1.491-0.127-2.558-0.379-3.199s-0.746-0.963-1.48-0.963
		s-1.244,0.34-1.529,1.021c-0.285,0.68-0.428,1.722-0.428,3.125v13.522c0,1.557,0.137,2.67,0.41,3.339
		c0.275,0.669,0.773,1.004,1.498,1.004c0.724,0,1.223-0.34,1.496-1.021c0.274-0.68,0.412-1.804,0.412-3.372v-4.146h4.326v4.097
		C139.074,201.733,138.574,203.804,137.577,205.147z"/>
		<path d="M141.818,206.833v-28.952h4.408v11.713h3.948v-11.713h4.409v28.952h-4.409v-13.456h-3.948v13.456H141.818z"/>
		<path d="M158.248,206.833v-28.952h4.409v28.952H158.248z"/>
		<path d="M165.746,198.69v-2.583h4.179v2.912c0,1.612,0.138,2.744,0.411,3.396c0.274,0.653,0.79,0.979,1.547,0.979
		c0.756,0,1.258-0.269,1.505-0.807c0.247-0.537,0.37-1.414,0.37-2.632c0-1.217-0.22-2.278-0.658-3.183s-1.135-1.852-2.089-2.838
		l-2.139-2.204c-0.998-1.042-1.774-2.122-2.327-3.241c-0.555-1.118-0.831-2.412-0.831-3.882c0-2.391,0.46-4.168,1.382-5.33
		c0.921-1.162,2.506-1.744,4.754-1.744s3.77,0.678,4.564,2.032s1.193,3.331,1.193,5.93v1.793h-4.063v-2.072
		c0-1.403-0.12-2.41-0.362-3.019c-0.24-0.608-0.705-0.913-1.39-0.913c-0.686,0-1.179,0.23-1.48,0.69
		c-0.302,0.461-0.452,1.152-0.452,2.073s0.153,1.656,0.461,2.204c0.307,0.549,0.86,1.25,1.66,2.105l2.386,2.583
		c1.195,1.294,2.098,2.604,2.706,3.932c0.609,1.327,0.913,2.774,0.913,4.343c0,2.709-0.455,4.71-1.365,6.004
		c-0.911,1.295-2.503,1.941-4.778,1.941c-2.276,0-3.861-0.721-4.754-2.163C166.193,203.557,165.746,201.454,165.746,198.69z"/>
		<path d="M191.093,205.147c-0.998,1.343-2.566,2.015-4.704,2.015c-2.139,0-3.738-0.716-4.796-2.146
		c-1.059-1.432-1.587-3.49-1.587-6.177v-12.618c0-4.31,1.129-7.002,3.389-8.076c0.833-0.396,1.842-0.593,3.026-0.593
		c4.068,0,6.103,2.566,6.103,7.699v3.98h-4.26v-3.701c0-1.491-0.127-2.558-0.379-3.199s-0.746-0.963-1.48-0.963
		s-1.244,0.34-1.529,1.021c-0.285,0.68-0.428,1.722-0.428,3.125v13.522c0,1.557,0.137,2.67,0.41,3.339
		c0.275,0.669,0.773,1.004,1.498,1.004c0.724,0,1.223-0.34,1.496-1.021c0.274-0.68,0.412-1.804,0.412-3.372v-4.146h4.326v4.097
		C192.59,201.733,192.09,203.804,191.093,205.147z"/>
		<path d="M195.334,206.833v-28.952h4.408v11.713h3.948v-11.713h4.409v28.952h-4.409v-13.456h-3.948v13.456H195.334z"/>
		<path d="M211.6,206.833v-28.952h9.705v3.8h-5.297v8.423h5.034v3.718h-5.034v9.212h5.494v3.8H211.6V206.833z"/>
		<path d="M230.004,193.229l-1.414-0.065v13.67h-4.409v-28.952h7.288c1.513,0,2.643,0.305,3.389,0.913
		c0.745,0.608,1.236,1.459,1.472,2.55s0.354,2.517,0.354,4.277s-0.187,3.101-0.56,4.021c-0.373,0.922-1.063,1.541-2.072,1.859
		c0.998,0.175,1.694,0.85,2.09,2.023c0.395,1.173,0.592,3.616,0.592,7.328c0,3.713,0.055,5.706,0.164,5.979h-4.408
		c-0.109-0.219-0.164-3.679-0.164-10.38c0-1.283-0.154-2.136-0.461-2.558C231.556,193.473,230.936,193.251,230.004,193.229z
		 M228.605,189.741h1.761c0.56,0,0.973-0.126,1.241-0.378c0.27-0.252,0.455-0.686,0.561-1.3c0.104-0.614,0.156-1.552,0.156-2.812
		v-0.182c0-1.567-0.133-2.593-0.396-3.076c-0.263-0.482-0.872-0.724-1.826-0.724h-1.497L228.605,189.741L228.605,189.741z"/>
		<path d="M23.087,240.833v-28.952h5.478l4.112,21.155l3.866-21.155h5.511v28.952h-3.932v-10.791l0.165-9.903l-3.899,20.562h-3.504
		l-4.063-20.562l0.165,9.903v10.791H23.087z"/>
		<path d="M45.571,240.833v-28.952h9.706v3.8H49.98v8.423h5.034v3.718H49.98v9.212h5.494v3.8h-9.903V240.833z"/>
		<path d="M58.317,240.833v-28.952h4.409v28.952H58.317z"/>
		<path d="M65.815,232.69v-2.583h4.178v2.912c0,1.612,0.137,2.744,0.411,3.396c0.274,0.653,0.79,0.979,1.546,0.979
		c0.757,0,1.259-0.269,1.505-0.807c0.247-0.537,0.37-1.414,0.37-2.632c0-1.217-0.22-2.278-0.658-3.183
		c-0.438-0.905-1.135-1.852-2.089-2.838l-2.139-2.204c-0.998-1.042-1.774-2.122-2.328-3.241c-0.554-1.118-0.831-2.412-0.831-3.882
		c0-2.391,0.46-4.168,1.382-5.33c0.921-1.162,2.505-1.744,4.754-1.744c2.248,0,3.77,0.678,4.565,2.032
		c0.795,1.354,1.192,3.331,1.192,5.93v1.793H73.61v-2.072c0-1.403-0.121-2.41-0.362-3.019s-0.705-0.913-1.39-0.913
		c-0.686,0-1.179,0.23-1.48,0.69c-0.302,0.461-0.453,1.152-0.453,2.073s0.154,1.656,0.461,2.204c0.307,0.549,0.861,1.25,1.661,2.105
		l2.385,2.583c1.195,1.294,2.098,2.604,2.706,3.932c0.609,1.327,0.913,2.774,0.913,4.343c0,2.709-0.455,4.71-1.365,6.004
		c-0.911,1.295-2.503,1.941-4.779,1.941s-3.86-0.721-4.754-2.163C66.262,237.557,65.815,235.454,65.815,232.69z"/>
		<path d="M81.917,240.833v-25.136h-3.389v-3.816h11.038v3.816h-3.257v25.136H81.917z"/>
		<path d="M91.158,240.833v-28.952h9.706v3.8h-5.297v8.423h5.034v3.718h-5.034v9.212h5.494v3.8h-9.903V240.833z"/>
		<path d="M109.562,227.229l-1.415-0.065v13.67h-4.409v-28.952h7.288c1.513,0,2.643,0.305,3.389,0.913s1.236,1.459,1.472,2.55
		s0.354,2.517,0.354,4.277s-0.187,3.101-0.559,4.021c-0.373,0.922-1.064,1.541-2.073,1.859c0.998,0.175,1.694,0.85,2.089,2.023
		c0.395,1.173,0.592,3.616,0.592,7.328c0,3.713,0.055,5.706,0.164,5.979h-4.408c-0.11-0.219-0.165-3.679-0.165-10.38
		c0-1.283-0.154-2.136-0.461-2.558C111.114,227.473,110.495,227.251,109.562,227.229z M108.165,223.741h1.76
		c0.559,0,0.973-0.126,1.242-0.378s0.455-0.686,0.56-1.3c0.104-0.614,0.156-1.552,0.156-2.812v-0.182
		c0-1.567-0.132-2.593-0.395-3.076c-0.263-0.482-0.872-0.724-1.826-0.724h-1.497V223.741z"/>
		<path d="M128.793,242.427c-0.914,0-1.656-0.074-2.226-0.223s-1.053-0.42-1.447-0.814s-0.672-0.93-0.832-1.605
		s-0.24-1.549-0.24-2.619v-12.434c0-1.07,0.08-1.943,0.24-2.619s0.438-1.211,0.832-1.605s0.877-0.666,1.447-0.814
		s1.312-0.223,2.226-0.223v2.344c-0.695,0-1.14,0.182-1.335,0.545s-0.293,1.139-0.293,2.326v12.527c0,1.188,0.098,1.963,0.293,2.326
		s0.641,0.545,1.335,0.545V242.427z"/>
		<path d="M139.561,225.505c0,2.219-0.602,3.582-1.805,4.09c1.469,0.492,2.203,2.113,2.203,4.863v0.527
		c-0.016,2.07-0.377,3.562-1.084,4.477s-1.861,1.371-3.463,1.371h-4.559v-20.625h4.465c1.539,0,2.629,0.357,3.27,1.072
		s0.965,1.912,0.973,3.592L139.561,225.505L139.561,225.505z M133.994,228.552h1.16c0.539,0,0.893-0.172,1.061-0.516
		s0.252-1.051,0.252-2.121v-1.242c-0.008-0.797-0.117-1.33-0.328-1.6s-0.574-0.404-1.09-0.404h-1.055L133.994,228.552
		L133.994,228.552z M133.994,238.396h1.113c0.625,0,1.062-0.215,1.312-0.645s0.375-1.199,0.375-2.309v-1.664
		c0-1.047-0.102-1.787-0.305-2.221s-0.594-0.65-1.172-0.65h-1.324L133.994,238.396L133.994,238.396z"/>
		<path d="M149.707,239.726c-0.719,0.895-1.873,1.342-3.463,1.342s-2.746-0.449-3.469-1.348s-1.084-2.293-1.084-4.184v-15.34h3.141
		v15.281c0,1.086,0.051,1.746,0.152,1.98s0.225,0.447,0.369,0.639s0.443,0.287,0.896,0.287s0.777-0.133,0.973-0.398
		s0.314-0.596,0.357-0.99s0.064-0.9,0.064-1.518v-15.281h3.141v15.34C150.785,237.435,150.426,238.831,149.707,239.726z"/>
		<path d="M153.161,240.833v-20.625h2.461l4.371,12.375l-0.223-5.625v-6.75h2.824v20.625h-2.227l-4.488-12.809l0.176,5.414v7.395
		H153.161z"/>
		<path d="M165.076,240.833v-20.625h4.629c1.516,0,2.615,0.447,3.299,1.342s1.025,2.213,1.025,3.955l0.012,9.305
		c0,2.078-0.344,3.602-1.031,4.57s-1.824,1.453-3.41,1.453L165.076,240.833L165.076,240.833z M168.217,238.396h1.031
		c0.578,0,0.998-0.188,1.26-0.562s0.393-1.062,0.393-2.062l-0.012-10.184c0-1.07-0.131-1.832-0.393-2.285s-0.713-0.68-1.354-0.68
		h-0.926L168.217,238.396L168.217,238.396z"/>
		<path d="M176.266,240.833v-20.625h6.914v2.707h-3.773v6h3.586v2.648h-3.586v6.562h3.914v2.707h-7.055V240.833z"/>
		<path d="M184.818,235.032v-1.84h2.977v2.074c0,1.148,0.098,1.955,0.293,2.42s0.562,0.697,1.102,0.697s0.896-0.191,1.072-0.574
		s0.264-1.008,0.264-1.875s-0.156-1.623-0.469-2.268s-0.809-1.318-1.488-2.021l-1.523-1.57c-0.711-0.742-1.264-1.512-1.658-2.309
		s-0.592-1.719-0.592-2.766c0-1.703,0.328-2.969,0.984-3.797s1.785-1.242,3.387-1.242s2.686,0.482,3.252,1.447
		s0.85,2.373,0.85,4.225v1.277h-2.895v-1.477c0-1-0.086-1.717-0.258-2.15s-0.502-0.65-0.99-0.65s-0.84,0.164-1.055,0.492
		s-0.322,0.82-0.322,1.477s0.109,1.18,0.328,1.57s0.613,0.891,1.184,1.5l1.699,1.84c0.852,0.922,1.494,1.855,1.928,2.801
		s0.65,1.977,0.65,3.094c0,1.93-0.324,3.355-0.973,4.277s-1.783,1.383-3.404,1.383s-2.75-0.514-3.387-1.541
		S184.818,237.001,184.818,235.032z"/>
		<path d="M195.234,240.833v-20.625h3.141v17.953h3.973v2.672H195.234z"/>
		<path d="M203.669,240.833v-20.625h3.141v20.625H203.669z"/>
		<path d="M213.299,241.044c-1.297,0-2.311-0.51-3.041-1.529s-1.096-2.592-1.096-4.717v-8.965c0-1.906,0.373-3.359,1.119-4.359
		s1.932-1.5,3.557-1.5c2.023,0,3.309,0.754,3.855,2.262c0.328,0.906,0.492,2.145,0.492,3.715v1.465h-2.93v-2.156
		c0-0.945-0.1-1.609-0.299-1.992s-0.574-0.574-1.125-0.574s-0.939,0.229-1.166,0.686s-0.34,1.268-0.34,2.432v8.941
		c0,1.352,0.102,2.293,0.305,2.824s0.6,0.797,1.189,0.797s1.008-0.285,1.254-0.855s0.369-1.531,0.369-2.883v-2.777h-1.582v-2.285
		h4.324v11.262h-1.406l-0.48-2.027c-0.164,0.695-0.523,1.242-1.078,1.641S214.025,241.044,213.299,241.044z"/>
		<path d="M219.602,240.833l2.941-20.625h4.148l3.129,20.625h-2.93l-0.492-3.68h-3.328l-0.445,3.68H219.602z M226.07,234.634
		l-1.383-10.359h-0.047l-1.266,10.359H226.07z"/>
		<path d="M230.838,242.427v-2.344c0.695,0,1.141-0.182,1.336-0.545s0.293-1.139,0.293-2.326v-12.527
		c0-1.188-0.098-1.963-0.293-2.326s-0.641-0.545-1.336-0.545v-2.344c0.914,0,1.656,0.074,2.227,0.223s1.051,0.42,1.441,0.814
		s0.666,0.93,0.826,1.605s0.24,1.549,0.24,2.619v12.434c0,1.07-0.08,1.943-0.24,2.619s-0.436,1.211-0.826,1.605
		s-0.871,0.666-1.441,0.814S231.752,242.427,230.838,242.427z"/>
	</g>
</svg>