<svg xmlns="http://www.w3.org/2000/svg" viewBox="0 0 240.0001 240.00009">
  <defs>
    <style>
      .cls-1, .cls-2 {
        fill: #dcedf2;
      }

      .cls-1, .cls-4, .cls-6, .cls-7, .cls-8, .cls-9 {
        fill-rule: evenodd;
      }

      .cls-3, .cls-6 {
        fill: #475569;
      }

      .cls-4 {
        fill: #fff;
      }

      .cls-5 {
        fill: #e2e8f0;
        stroke: #475569;
        stroke-miterlimit: 22.9256;
        stroke-width: 0.4799px;
      }

      .cls-7 {
        fill: #df1f36;
      }

      .cls-8 {
        fill: #fefefe;
      }

      .cls-9 {
        fill: #284069;
      }
    </style>
  </defs>
  <g id="_1-6" data-name="1">
    <g>
      <path class="cls-1" d="M214.27713,207.5536h-9.8799V86.4026l-175.5541-.0185a7.9218,7.9218,0,0,0-7.9132,7.9127V207.5536H11.05V94.2968a17.81306,17.81306,0,0,1,17.7931-17.7925h175.5365a9.90843,9.90843,0,0,1,9.8975,9.8983Z"/>
      <polygon class="cls-1" points="17.759 202.764 14.221 196.658 48.705 176.676 28.766 82.172 35.674 80.716 56.663 180.219 17.759 202.764"/>
      <polygon class="cls-1" points="207.568 202.764 168.665 180.219 189.655 80.716 196.561 82.172 176.625 176.676 211.108 196.658 207.568 202.764"/>
      <rect class="cls-2" x="52.68473" y="174.9203" width="119.9602" height="7.0566"/>
      <path class="cls-1" d="M45.42463,169.6584l-1.6911-3.2868-.2753-.4125.159-.4694,1.4352-5.1001,1.7031,2.7709.1564.2041a5.11436,5.11436,0,0,0-.2191.7152l-1.2682,5.5786Zm-.4173,5.0507a8.26575,8.26575,0,0,0-.1689-3.1031l-2.1994-4.2808-.0626.231-1.6886,7.0642a8.45725,8.45725,0,0,0,.1542,3.1652l2.2022,3.5158.0323-.1211,1.7308-6.4712Zm-5.2092-1.599-1.7827-3.4566-.2857-.4271.1718-.4859,1.5814-5.3736,1.7997,2.9046.1619.2121a5.416,5.416,0,0,0-.2387.7424l-1.4077,5.8841Zm-.4617,5.1126a8.35678,8.35678,0,0,0-.1443-3.2103l-2.3063-4.4651-.0944.3387-1.8453,7.3248a8.55835,8.55835,0,0,0,.132,3.2743l2.3165,3.6674.0669-.2208,1.8749-6.709Zm-5.478-1.4723-1.8791-3.6278-.2976-.4419.1856-.5069,1.7433-5.663,1.899,3.0393.1718.2182a5.60085,5.60085,0,0,0-.2583.7748l-1.5647,6.2073Zm-.506,5.1794a8.49248,8.49248,0,0,0-.1216-3.3227l-2.4114-4.6531-.1386.4518-2.0118,7.5986a8.68207,8.68207,0,0,0,.1049,3.3911l2.4355,3.8196.1069-.318,2.0361-6.9673Zm-5.7708-1.3337-1.9834-3.8086-.3081-.4595.2033-.5306,1.9193-5.9692,2.0066,3.1804.1741.2203a5.35131,5.35131,0,0,0-.2761.8152l-1.7357,6.552Zm-.5558,5.2563a6.73492,6.73492,0,0,0,.1267-1.8765v-.0048a5.39355,5.39355,0,0,0-.2191-1.5648l-2.5226-4.8466a4.9425,4.9425,0,0,0-.1905.5666l-2.1954,7.8908a7.27582,7.27582,0,0,0-.1386,1.8842l.0071.1891a5.1085,5.1085,0,0,0,.2032,1.447l2.5656,3.9782.1514-.4201,2.2122-7.2431Zm-6.0911-1.1888-2.0931-3.9977-.3203-.474.2236-.5567,2.1158-6.2972,2.12,3.3299.1817.2287a5.69406,5.69406,0,0,0-.3007.8496l-1.927,6.9174Zm-.6052,5.3407a8.66751,8.66751,0,0,0-.0627-3.5776l-2.6416-5.0431a4.67245,4.67245,0,0,0-.2454.6806l-2.4016,8.2088a8.84191,8.84191,0,0,0,.04,3.6545l2.6986,4.1419a4.21872,4.21872,0,0,0,.2013-.5272l2.4114-7.5379Zm-5.7257-14.4927,2.6365,4.0964.1661-.4218,2.3593-7.0214a8.132,8.132,0,0,0-.057-3.3679l-2.5824-4.9558a4.49118,4.49118,0,0,0-.2092.5661l-2.3513,7.6626a8.32483,8.32483,0,0,0,.038,3.4418Zm-.3929-17.5226a7.57092,7.57092,0,0,1-.0371-3.2448l2.2991-7.1519.1789-.4643,2.5226,4.8643a7.47128,7.47128,0,0,1,.0598,3.1762L16.92,161.7109l-.1344.3279-2.5747-4.0498Zm-.3773-16.6901a6.98355,6.98355,0,0,1-.0351-3.0589l2.2524-6.6858.1462-.3725,2.4684,4.7826a6.8791,6.8791,0,0,1,.059,2.9943l-2.2691,6.1016-.1012.2454-2.5206-4.0067Zm-.3574-15.9166a6.58851,6.58851,0,0,1-.0375-2.8845l2.2102-6.2535.1168-.2892,2.4157,4.701a6.33506,6.33506,0,0,1,.057,2.8236l-2.2249,5.692-.0718.1709-2.4655-3.9603Zm-.3399-15.1965a6.036,6.036,0,0,1-.0403-2.7204l2.168-5.8524.0864-.2132,2.3664,4.6199a4.0677,4.0677,0,0,1,.1766,1.2529l.0023.0817a4.137,4.137,0,0,1-.1219,1.3308l-2.1799,5.3127-.0442.1041-2.4134-3.9161Zm-.328-14.5208a5.53126,5.53126,0,0,1-.0402-2.5699l2.1257-5.4793.0598-.1443,2.319,4.5439a3.61456,3.61456,0,0,1,.1709,1.1705l.0029.1238a3.83664,3.83664,0,0,1-.1146,1.2206L15.192,99.4901l-.0204.0451-2.3633-3.8702Zm5.4848.2013-1.8051,4.1828-.1542.2872.2562.3906,1.8544,3.6184,1.6464-4.6602.2231-.5249-.1239-.1633-1.8969-3.1306Zm.6701-4.0056,1.9695-5.3218.0224-.0604,2.2192,4.3688a3.57459,3.57459,0,0,1,.1738,1.1344l.0051.1276a3.85365,3.85365,0,0,1-.0944,1.1795L21.28023,98.07l-2.2521-3.7157a5.65226,5.65226,0,0,1-.0649-2.4936Zm5.2571,2.7955-1.6492,3.9866-.1366.2654.2435.3877,1.7654,3.4594,1.4922-4.4362.206-.506-.119-.1584-1.8023-2.9985Zm.6304-3.9688,1.8145-5.1471,2.1257,4.1955a3.77627,3.77627,0,0,1,.1789,1.1058l.0048.123a3.72418,3.72418,0,0,1-.0817,1.1447l-1.8102,4.5691-2.1452-3.5677a5.56775,5.56775,0,0,1-.0868-2.4233Zm5.0057,2.8202-1.5026,3.7964-.1267.2557.2364.3765,1.6781,3.3023,1.3536-4.2179.1913-.4893-.1148-.1533-1.7153-2.8704Zm2.9648,3.9971,2.0755,4.0941a3.87236,3.87236,0,0,1,.1857,1.1531l.0057.0817a4.25451,4.25451,0,0,1-.0675,1.2036l-1.7033,4.7154-2.0855-3.4634a5.86589,5.86589,0,0,1-.1091-2.4874l1.6985-5.2971Zm2.8624,17.5536a4.27743,4.27743,0,0,1,.1936,1.2211l.0029.0508a4.49081,4.49081,0,0,1-.0698,1.3036l-1.7478,5.0902-2.1283-3.5025a6.36179,6.36179,0,0,1-.1119-2.6246l1.7413-5.6905.0048-.0111,2.1152,4.163Zm1.1424,3.9648-1.4528,4.2364-.1338.3342.2435.3886,1.6631,3.263,1.2989-4.6735a4.12847,4.12847,0,0,1,.2012-.5757l-.129-.1695-1.6911-2.8035Zm2.5724,16.9877.1367.1795a4.45992,4.45992,0,0,0-.2092.6321l-1.3332,5.0465-1.703-3.3242-.2634-.3963.1514-.3886,1.495-4.5839,1.7257,2.8349Zm1.2938,1.1727-1.6512,6.2408a7.15448,7.15448,0,0,0,.1414,2.8372l2.1107,3.437,1.6758-5.6591a7.00816,7.00816,0,0,0-.1542-2.7836l-2.1078-4.1321-.0147.0598Zm-.7475,21.4929a7.7832,7.7832,0,0,0,.1462,2.997l2.1552,3.4742.0128-.0403,1.7081-6.0655a7.6769,7.6769,0,0,0-.1613-2.9398l-2.1551-4.2041-.0372.1392-1.6687,6.6393Zm-2.8106-4.9213-.273-.4096.1582-.439,1.5401-4.9615,1.7603,2.8655.1465.1933a4.893,4.893,0,0,0-.2211.6886l-1.3702,5.4499-1.7408-3.3872Zm-3.0223,8.0006a7.88667,7.88667,0,0,0,.1267,3.0934l2.2672,3.6283.0394-.1343,1.8496-6.2819a7.694,7.694,0,0,0-.1386-3.037l-2.2544-4.3849-.0717.2463-1.8182,6.8701Zm-2.9024-5.0457-.2803-.4224.1712-.4566,1.6962-5.226,1.8567,3.0039.1619.2089a5.149,5.149,0,0,0-.2486.7075l-1.5194,5.7424-1.8377-3.5577Zm-3.2505,8.291a8.01578,8.01578,0,0,0,.1001,3.2055l2.3831,3.776.0774-.2251,2.0032-6.5106a7.85906,7.85906,0,0,0-.1139-3.1414l-2.3616-4.5685-.1091.3497-1.9792,7.1144Zm-2.999-5.1675-.2957-.4371.1916-.4762,1.8624-5.5049,1.9587,3.1413.1639.2084a5.09149,5.09149,0,0,0-.2631.7452l-1.6837,6.0559-1.9341-3.7326Zm-3.5059,8.6009a8.15183,8.15183,0,0,0,.0692,3.3202l2.5078,3.9356.1196-.3251,2.1719-6.7561a7.96166,7.96166,0,0,0-.0887-3.2502l-2.4682-4.7602-.1564.4569-2.1552,7.3789Zm-1.1548-12.0518,2.0707,3.287.1689.216a5.30938,5.30938,0,0,0-.2857.775l-1.8666,6.3888-2.0362-3.9161-.3055-.4519.206-.4991,2.0484-5.7997Zm-.5364-16.1739-1.9834,5.3427-.1916.4448.2908.4314,1.9883,3.8338,1.8076-5.8988a5.00049,5.00049,0,0,1,.2787-.6954l-.167-.2132-2.0234-3.2453Zm-.511-15.4457-1.9222,4.9218-.1786.39.2806.4187,1.9392,3.7584,1.7524-5.4518a4.1922,4.1922,0,0,1,.2534-.6427l-.1463-.1893-1.9785-3.2051Zm1.447-11.5986-1.936-3.168-1.8652,4.5369-.159.3407.263.4006,1.8947,3.6867,1.6985-5.0397a4.41907,4.41907,0,0,1,.2384-.5814l-.1344-.1758Zm3.1167-6.1081-2.0242,5.148-.0099.0253-2.2986-3.7619a5.96861,5.96861,0,0,1-.0649-2.6388l2.0038-5.6743.0473-.1253,2.2669,4.4427a4.14846,4.14846,0,0,1,.178,1.2212l.0028.0697a4.04956,4.04956,0,0,1-.1012,1.2934Zm2.8279,4.3773-1.8397-3.0322-1.6982,4.3194-.1494.3303.2534.3821,1.8045,3.5229,1.5372-4.7926a3.98323,3.98323,0,0,1,.2212-.5604l-.129-.1695Zm4.1788,3.615,1.393-4.5552.2032-.542-.1239-.1633-1.7481-2.9004-1.5491,4.1102-.129.307.2378.3835,1.7161,3.3602Zm2.1424,9.4933a4.3772,4.3772,0,0,1,.214-.5976l-.1315-.1732-1.783-2.9341-1.5962,4.4543-.1493.3578.2585.3906,1.7524,3.4234,1.4351-4.9212Zm1.8771,12.7675-2.1719-3.5425a4.27262,4.27262,0,0,1-.1944-1.2379l-.002-.0402a5.23377,5.23377,0,0,1,.0796-1.4956l1.7652-6.0559.0275-.0816,2.16,4.2343a6.60786,6.60786,0,0,1,.1287,2.7205l-1.7927,5.4989Zm-1.5244,8.7213a7.2683,7.2683,0,0,0,.1168,2.9271l2.22,3.5884.0196-.057,1.8221-5.8822a7.19659,7.19659,0,0,0-.1335-2.8757l-2.2073-4.3067-.0471.1582-1.7906,6.4479Zm-2.8401-4.9952,1.7949,3.4861,1.4752-5.3161.2358-.6455-.1513-.197-1.8179-2.9667-1.6464,4.822-.1613.4048.271.4124Zm-3.196,7.7437a7.36637,7.36637,0,0,0,.0944,3.0271l2.3346,3.7367.0493-.1463,1.9712-6.0883a7.2192,7.2192,0,0,0-.1117-2.9673l-2.3088-4.4912-.0822.2605-1.9468,6.6688Zm-2.9322-5.1196-.2809-.4196.1766-.4271,1.8077-5.0749,1.917,3.1034.1585.204a4.84725,4.84725,0,0,0-.2554.6702l-1.6365,5.599-1.887-3.655Zm-1.326,1.1177-2.1158,6.9023a7.52527,7.52527,0,0,0,.0697,3.1315l2.4537,3.8928.0864-.2379,2.1354-6.307a7.304,7.304,0,0,0-.0865-3.0688l-2.4134-4.6755-.1295.3626Zm-.5562-15.5458.0995-.2767,2.3613,4.5961a6.74152,6.74152,0,0,1,.0844,2.8979l-2.0953,5.8895-.0627.1591-2.3987-3.8472a6.93024,6.93024,0,0,1-.0669-2.9568l2.0784-6.4619Zm1.9344-7.8021-2.0608,5.5055-.0346.0881-2.3465-3.8035a6.5152,6.5152,0,0,1-.0678-2.7935l2.0418-6.0537.072-.1965,2.3114,4.5173a6.40071,6.40071,0,0,1,.0845,2.7363Zm2.8899,4.3858L25.414,122.747l-1.7504,4.6828-.1636.3736.2682.4034,1.8419,3.5875,1.5894-5.1789a4.0323,4.0323,0,0,1,.2308-.6174l-.1392-.1828Zm1.3161,1.036,2.2572,4.4116a6.69538,6.69538,0,0,1,.1112,2.8077l-1.9412,5.6931-.0247.0749-2.2847-3.6953a6.78155,6.78155,0,0,1-.0921-2.8624l1.9151-6.253.0592-.1766Zm-.2681-2.0369v.0048l-2.2369-3.6499a6.4742,6.4742,0,0,1-.0901-2.7071l1.885-5.8671.0352-.1035,2.2121,4.3379a6.36787,6.36787,0,0,1,.1063,2.6532l-1.9116,5.3317Zm-1.0679-26.0448.0128-.036,2.1699,4.2662a3.901,3.901,0,0,1,.1837,1.1781l.0048.0935a4.24647,4.24647,0,0,1-.0844,1.2373l-1.8624,4.9388-2.1895-3.609a5.96085,5.96085,0,0,1-.0873-2.5614l1.8553-5.5075Zm16.7627,46.6481,1.6659,2.7386.1415.1836a4.66885,4.66885,0,0,0-.2032.6659l-1.234,5.1698-1.654-3.2258-.2633-.3977.1494-.4192,1.3977-4.7152Zm6.4063,25.4781-.055.4816-1.5962,6.2464-.0051.0252-2.0902-3.3692a8.24559,8.24559,0,0,1-.1766-3.0589l1.5519-6.8284h-.0028l.0323-.121,1.656,3.2397-1.5244-7.5282-.5383,2.0029-2.0489-3.329a7.72893,7.72893,0,0,1-.169-2.8998l1.0304-4.301-1.4224-7.0314-.4419-.7251a7.397,7.397,0,0,1-.2064-2.4732l-.6602-3.261-.3475,1.3825-1.6169-3.1672-.2455-.3957.1344-.3611.9459-3.0385-.5913-2.9188-.0371.1978-1.6365,5.2422-2.0659-3.3974a6.83746,6.83746,0,0,1-.1366-2.69l1.624-5.8559,1.5548,3.0552-1.3683-6.7561-.4816,1.4689-2.0262-3.3587a6.25294,6.25294,0,0,1-.1315-2.5498l1.0275-3.5257-.5885-2.9038-.1836.5102-1.2634,4.3322-1.6294-3.2097-.231-.3688.1199-.2956,1.4125-3.9132,1.6588,2.7737.1114.1479-.8314-4.1006-.271-.4561a5.74063,5.74063,0,0,1-.1984-1.8666l-.6284-3.0963-.288.9454-1.5962-3.1538-.2288-.366.1168-.2449.9312-2.4523-.5264-2.5928-1.6563,4.3679L30.556,91.9276a3.76756,3.76756,0,0,1-.1737-1.0735l-.002-.0542a4.11916,4.11916,0,0,1,.0717-1.2296l1.654-4.9227,1.9389,3.8404-.328-3.7826-.4614-.9136c-.3351-.663-.7674-.9805-1.2643-.945-.7869.0555-1.0874.9493-1.1837,1.2415l-1.3162,3.9082L27.845,84.7471c-.3379-.6687-.7849-.9961-1.2762-.9572-.8022.0513-1.1197.9578-1.2245,1.2549l-1.45,4.1048-1.728-3.3996c-.3427-.6735-.775-1.0023-1.2934-.97-.5386.0317-.9638.4598-1.2643,1.2699l-1.5962,4.311-1.8153-3.5572c-.3449-.6778-.7818-1.0242-1.3084-.982-.5511.0275-.991.4609-1.3113,1.2853l-2.1249,5.4773a6.22686,6.22686,0,0,0,.1485,3.8118l2.4509,4.0141.1295.1681-.2406.5434-2.168,5.8539a6.71419,6.71419,0,0,0,.1562,3.9464l2.5078,4.0646.1415.1831a4.13651,4.13651,0,0,0-.2602.6046l-2.2102,6.2512a7.08988,7.08988,0,0,0,.1661,4.0958l2.5653,4.1182.1514.1962a4.43209,4.43209,0,0,0-.2758.6681l-2.2544,6.6844a7.50563,7.50563,0,0,0,.1738,4.2553l2.6246,4.1687.1641.2106a5.51633,5.51633,0,0,0-.2937.7353l-2.2986,7.1532c-.3104.9607-.3356,3.6108.1837,4.4277l2.6867,4.2231.1757.2211a5.53808,5.53808,0,0,0-.3104.8121l-2.3485,7.6598c-.3126,1.0207-.335,3.7868.1936,4.6088l2.7511,4.2781.1887.2355a5.86759,5.86759,0,0,0-.3251.8918l-2.4009,8.206c-.3181,1.0849-.3357,3.983.2035,4.8121l2.8202,4.3302a1.2914,1.2914,0,0,0,1.0825.6903l.1372-.0105c.7892-.1063,1.1741-1.0347,1.395-1.7223l2.1855-6.8434,2.1722,3.3743a1.27241,1.27241,0,0,0,1.0675.6883l.1366-.0105c.7727-.1072,1.1325-1.008,1.336-1.6759l1.9811-6.478,2.056,3.2227a1.24519,1.24519,0,0,0,1.0508.6835l.1386-.0105c.7523-.1063,1.0925-.9834,1.281-1.6308l1.7954-6.139,1.944,3.0765a1.231,1.231,0,0,0,1.0384.6834l.1392-.0105c.737-.1083,1.0573-.9601,1.2339-1.5905l1.6265-5.821,1.84,2.9379a1.21287,1.21287,0,0,0,1.0247.6777l.142-.0105c.7223-.1091,1.0227-.9402,1.1869-1.5562l1.4751-5.5173,1.7405,2.8034a1.19506,1.19506,0,0,0,1.0128.6758l.1415-.0136c.7075-.1083.9952-.9176,1.1474-1.5188l.9559-3.75Z"/>
      <path class="cls-1" d="M178.63623,164.0798a5.238,5.238,0,0,0-.2211-.7152l.159-.2041,1.7034-2.7709,1.4352,5.1001.1562.4694-.2733.4125-1.6934,3.2868-1.266-5.5786Zm1.8525,7.5262a8.26928,8.26928,0,0,0-.167,3.1031l1.7286,6.4712.0346.1211,2.2022-3.5158a8.50183,8.50183,0,0,0,.1542-3.1658l-1.6906-7.0636-.0598-.231-2.2022,4.2808Zm3.6323-4.38a5.15558,5.15558,0,0,0-.2356-.7424l.161-.2121,1.8006-2.9046,1.5814,5.3736.171.4859-.2849.4271-1.783,3.4566-1.4105-5.8841Zm2.0165,7.7864a8.35811,8.35811,0,0,0-.1471,3.2103l1.8751,6.709.0698.2208,2.3133-3.6669a8.55669,8.55669,0,0,0,.1324-3.2757l-1.8425-7.3239-.0972-.3387-2.3038,4.4651Zm3.7664-4.4693a4.98865,4.98865,0,0,0-.2585-.7748l.1718-.2182,1.8989-3.0393,1.7436,5.663.1865.5069-.2956.4419-1.8822,3.6278-1.5645-6.2073Zm2.1924,8.064a8.53274,8.53274,0,0,0-.1219,3.3227l2.0392,6.9673.104.318,2.4353-3.8188a8.678,8.678,0,0,0,.1049-3.3925l-2.0087-7.598-.1414-.4518-2.4114,4.6531Zm3.9132-4.5638a5.34289,5.34289,0,0,0-.2758-.8136l.1737-.2211,2.0067-3.1804,1.9193,5.9692.2064.5306-.3104.4595-1.982,3.8086-1.7379-6.5528Zm2.1679,9.9326a6.73549,6.73549,0,0,0,.1239,1.8765l2.215,7.2431.1491.4201,2.5648-3.9782a5.00148,5.00148,0,0,0,.2063-1.4476l.0071-.1879a7.44122,7.44122,0,0,0-.1389-1.8856l-2.198-7.89a5.0654,5.0654,0,0,0-.1885-.5666l-2.5253,4.8472a5.43035,5.43035,0,0,0-.2155,1.5633v.0057Zm4.2905-6.2297a5.78092,5.78092,0,0,0-.3004-.8496l.1788-.2287,2.1226-3.3299,2.113,6.2972.2239.5567-.3203.474-2.0931,3.9977-1.9245-6.9174Zm2.5943,8.6805a8.54054,8.54054,0,0,0-.059,3.5776l2.4058,7.5388a4.58367,4.58367,0,0,0,.2013.5263l2.6983-4.1414a8.84149,8.84149,0,0,0,.0402-3.6555l-2.4015-8.2083a4.21971,4.21971,0,0,0-.2455-.6806l-2.6396,5.0431Zm3.0274-6.8187,2.6337-4.0964a8.32478,8.32478,0,0,0,.038-3.4418l-2.3466-7.6621a5.35007,5.35007,0,0,0-.2111-.5666l-2.5824,4.9567a8.147,8.147,0,0,0-.0598,3.3664l2.3593,7.022.1689.4218Zm.4519-17.5692-.1319-.3279-2.3142-6.5424a7.47116,7.47116,0,0,1,.0573-3.1756l2.5251-4.8649.1769.4643,2.3014,7.1513a7.53417,7.53417,0,0,1-.0402,3.2454l-2.5744,4.0498Zm.432-16.7332-.1021-.2454-2.2669-6.1016a6.89009,6.89009,0,0,1,.057-2.9934l2.4704-4.7835.1443.3725,2.255,6.6849a6.98325,6.98325,0,0,1-.038,3.0598l-2.5197,4.0067Zm.4124-15.963-.0723-.1709-2.2249-5.692a6.2843,6.2843,0,0,1,.059-2.823l2.4142-4.7016.1162.2892,2.2128,6.2535a6.54993,6.54993,0,0,1-.04,2.8845l-2.465,3.9603Zm.3915-15.2407-.0417-.1041-2.1824-5.3127a4.14791,4.14791,0,0,1-.1196-1.3303v-.083a4.14317,4.14317,0,0,1,.1766-1.2512l2.3663-4.6208.0893.2132,2.1677,5.8524a6.13117,6.13117,0,0,1-.04,2.721l-2.4162,3.9155Zm.3801-14.5667-.0199-.0451-2.1404-4.9598a3.7649,3.7649,0,0,1-.1168-1.2206l.0051-.1238a3.679,3.679,0,0,1,.169-1.1696l2.3196-4.5448.0592.1443,2.1257,5.4788a5.56535,5.56535,0,0,1-.0383,2.5704l-2.3632,3.8702Zm-1.3184.5139-1.8026-4.1828-1.8995,3.1306-.1238.1633.2231.5249,1.6469,4.6602,1.8544-3.6184.2557-.3906-.1542-.2872Zm-2.5373-5.6948-2.2524,3.7157-1.9792-4.7812a3.77712,3.77712,0,0,1-.0969-1.1795l.0054-.1276a3.73326,3.73326,0,0,1,.1732-1.1344l2.2229-4.3688.0224.0604,1.9687,5.3218a5.68412,5.68412,0,0,1-.0641,2.4936Zm-3.5459,4.2885-1.6463-3.9866-1.8026,2.9985-.1216.1584.2084.506,1.4899,4.4362,1.7651-3.4594.2463-.3877-.1392-.2654Zm-2.3643-5.5321-2.1473,3.5677-1.8102-4.5691a3.67081,3.67081,0,0,1-.0796-1.1447l.0048-.1238a3.7064,3.7064,0,0,1,.1769-1.105l2.1276-4.1955,1.8151,5.1471a5.60315,5.60315,0,0,1-.0873,2.4233Zm-3.4164,4.1933-1.5049-3.7964-1.7152,2.8704-.1145.1533.1913.4893,1.3536,4.2179,1.6806-3.3023.2336-.3765-.1245-.2557Zm-2.7683,5.497a5.95274,5.95274,0,0,1-.1097,2.4882l-2.0874,3.4634-1.7014-4.7154a4.14225,4.14225,0,0,1-.0697-1.2031l.0051-.083a3.99123,3.99123,0,0,1,.1865-1.1523l2.0756-4.0941,1.701,5.2963Zm-2.4457,8.0943.0023.0111,1.7433,5.6905a6.401,6.401,0,0,1-.112,2.6255l-2.1305,3.5016-1.7476-5.091a4.3795,4.3795,0,0,1-.0674-1.3028l.0025-.0508a4.37362,4.37362,0,0,1,.1916-1.2211l2.1178-4.163Zm-1.8054,12.3642-1.4547-4.2364-1.6906,2.8035-.1247.1695a4.82272,4.82272,0,0,1,.1987.5757l1.2963,4.6735,1.6659-3.263.2438-.3886-.1347-.3342Zm-2.3014,9.9164,1.495,4.5839.1513.3886-.2633.3963-1.7011,3.3242-1.3359-5.0465a4.05113,4.05113,0,0,0-.2084-.6321l.1366-.1795,1.7258-2.8349Zm-1.3683,10.2478-1.6484-6.2402-.0147-.0598-2.111,4.1329a7.04873,7.04873,0,0,0-.1539,2.7828l1.6784,5.6591,2.1101-3.4362a7.20218,7.20218,0,0,0,.1395-2.8386Zm-1.048,18.2497a7.83493,7.83493,0,0,0,.1471-2.997l-1.6716-6.6393-.0374-.1392-2.1552,4.2041a7.66,7.66,0,0,0-.1581,2.9398l1.7081,6.0655.0099.0403,2.1572-3.4742Zm1.2149-4.5311-1.3711-5.4508a5.269,5.269,0,0,0-.2182-.6868l.1462-.1942,1.7603-2.8655,1.5373,4.9615.159.439-.271.4096-1.7425,3.3872Zm4.6375,7.7068a7.869,7.869,0,0,0,.1245-3.0934l-1.8173-6.8701-.0698-.2463-2.2549,4.3855a7.74908,7.74908,0,0,0-.1415,3.0359l1.8505,6.2824.0422.1343,2.2663-3.6283Zm1.1894-4.5814-1.5168-5.7424a5.314,5.314,0,0,0-.2483-.7075l.161-.2089,1.8576-3.0039,1.6934,5.226.1709.4566-.2801.4224-1.8377,3.5577Zm4.9887,7.9388a8.02646,8.02646,0,0,0,.0992-3.2055l-1.9791-7.1144-.1089-.3497-2.3592,4.5694a7.80993,7.80993,0,0,0-.1162,3.1405l2.0057,6.5106.0749.2251,2.3836-3.776Zm1.1642-4.6404-1.6835-6.0565a5.1116,5.1116,0,0,0-.2605-.7446l.1613-.2084,1.9593-3.1413,1.8618,5.5049.1914.4762-.2957.4371-1.9341,3.7326Zm5.3711,8.1885a8.10527,8.10527,0,0,0,.0689-3.3202l-2.1524-7.3789-.1561-.4569-2.4685,4.7602a8.01859,8.01859,0,0,0-.0921,3.2496l2.1728,6.7567.1196.3251,2.5078-3.9356Zm3.272-9.5723.2064.4991-.3047.4519-2.037,3.9161-1.8666-6.3888a5.07486,5.07486,0,0,0-.2857-.7741l.1689-.2169,2.0707-3.287,2.048,5.7997Zm.4723-16.6309-1.984-5.3427-2.0236,3.2453-.1667.2132a5.14523,5.14523,0,0,1,.2806.6948l1.8077,5.8994,1.989-3.8338.2878-.4314-.1908-.4448ZM208,129.6848l-1.9241-4.9218-1.9792,3.2051-.1443.1893a4.68943,4.68943,0,0,1,.2535.6427l1.7504,5.4518,1.944-3.7584.2786-.4187-.1789-.39Zm-1.4349-19.6884-1.9372,3.168-.1343.1766a3.796,3.796,0,0,1,.2387.58l1.701,5.0403,1.8919-3.6867.2661-.4006-.1618-.3407-1.8644-4.5369Zm-5.155-4.2335.0022-.0706a4.05534,4.05534,0,0,1,.1814-1.2203l2.2672-4.4427.0442.1253,2.0067,5.6743a5.97458,5.97458,0,0,1-.0675,2.6394l-2.2966,3.7613-.01-.0253-2.0256-5.148a4.07234,4.07234,0,0,1-.102-1.2934Zm-.8867,2.6385-1.84,3.0322-.1287.1695a4.1479,4.1479,0,0,1,.2208.5604l1.5395,4.7926,1.8026-3.5229.2531-.3821-.1491-.3303-1.6982-4.3194Zm-7.4115,2.092,1.3958,4.5552,1.7152-3.3602.2384-.3835-.1315-.307-1.5491-4.1102-1.7484,2.9004-.1239.1633.2035.542Zm-.9607,13.4509a4.49138,4.49138,0,0,1,.2132.5976l1.4352,4.9212,1.7532-3.4234.2554-.3906-.1485-.3578-1.5971-4.4543-1.7827,2.9341-.1287.1732Zm-3.4588,7.8662a6.64806,6.64806,0,0,1,.131-2.7196l2.1608-4.2352.0247.0816,1.768,6.0559a5.34361,5.34361,0,0,1,.0788,1.4956l-.002.0402a4.39752,4.39752,0,0,1-.1936,1.2379l-2.1728,3.5425-1.7949-5.4989Zm3.2003,17.1473a7.31093,7.31093,0,0,0,.1191-2.9271l-1.7926-6.4479-.0446-.1582-2.2079,4.3072a7.16307,7.16307,0,0,0-.1363,2.8747l1.8249,5.8827.0205.057,2.2169-3.5884Zm1.1642-4.4362,1.7926-3.4861.2739-.4124-.1639-.4048-1.6463-4.822-1.8179,2.9667-.1485.197.233.6455,1.4771,5.3161Zm4.8966,7.2847a7.34859,7.34859,0,0,0,.0944-3.0271l-1.9469-6.6688-.0836-.2605-2.3074,4.4918a7.26694,7.26694,0,0,0-.1139,2.9667l1.9743,6.0883.0493.1463,2.3338-3.7367Zm1.1375-4.4917-1.6364-5.599a4.57708,4.57708,0,0,0-.2534-.6702l.157-.204,1.9193-3.1034,1.8046,5.0749.1766.4271-.2806.4196-1.8871,3.655Zm5.3286,4.365-2.1155-6.9023-.1267-.3626-2.4163,4.6755a7.32047,7.32047,0,0,0-.0844,3.0688l2.1333,6.307.0893.2379,2.4528-3.8928a7.5215,7.5215,0,0,0,.0675-3.1315Zm.5187-15.9868a6.84855,6.84855,0,0,1-.0674,2.9574l-2.3979,3.8472-.0601-.1591-2.095-5.8895a6.73885,6.73885,0,0,1,.0816-2.8979l2.3641-4.5961.0964.2767,2.0783,6.4613Zm-3.9279-16.9997,2.3142-4.5173.0717.1965,2.0384,6.0537a6.54354,6.54354,0,0,1-.0649,2.7935l-2.3485,3.8035-.0346-.0881-2.0608-5.5055a6.43147,6.43147,0,0,1,.0845-2.7363Zm-1.0973,4.0539-1.8771,3.0682-.1395.1828a4.48543,4.48543,0,0,1,.2339.6166l1.5862,5.1797,1.8448-3.5875.2682-.4034-.1639-.3736-1.7526-4.6828Zm-3.1315,4.2808,1.9117,6.2521a6.77183,6.77183,0,0,1-.0915,2.8633l-2.2819,3.6953-.0247-.0749-1.9446-5.6931a6.70845,6.70845,0,0,1,.112-2.8071l2.2621-4.4122.0569.1766Zm-1.7053-7.5452a6.34853,6.34853,0,0,1,.1063-2.6527l2.215-4.3384.0343.1035,1.8822,5.8665a6.39558,6.39558,0,0,1-.0893,2.7077l-2.2348,3.6499-.002-.0048-1.9117-5.3317Zm2.9792-20.7131,1.8547,5.5075a5.94677,5.94677,0,0,1-.0873,2.5614l-2.1917,3.609-1.8601-4.9393a4.15635,4.15635,0,0,1-.0845-1.2359l.0048-.095a3.82836,3.82836,0,0,1,.1837-1.1769l2.168-4.2668.0124.036Zm-15.3646,51.3633.1491.4192-.2631.3977-1.6511,3.2258-1.2368-5.1704a4.33467,4.33467,0,0,0-.2012-.6644l.1394-.1845,1.6679-2.7386,1.3958,4.7152Zm-8.477,24.0893.9558,3.7494c.152.6018.44,1.4111,1.1495,1.5202l.1392.012a1.19779,1.19779,0,0,0,1.0156-.675l1.7385-2.8034,1.4774,5.5167c.1633.6166.4638,1.4486,1.1866,1.5577l.1415.0096a1.21588,1.21588,0,0,0,1.0255-.6777l1.8372-2.9379,1.6265,5.8201c.1786.6307.496,1.4831,1.2336,1.5922l.1395.0091a1.23609,1.23609,0,0,0,1.0403-.682l1.9417-3.0773,1.7949,6.1382c.1894.6482.5315,1.5253,1.2816,1.6316l.1389.0099a1.2462,1.2462,0,0,0,1.0528-.6829l2.0559-3.2227,1.9812,6.478c.2043.6679.5609,1.5696,1.3359,1.6764l.1367.0094a1.26607,1.26607,0,0,0,1.0649-.6877l2.1734-3.3743,2.1869,6.8434c.2208.6876.6038,1.616,1.3955,1.7231l.1346.0091a1.28387,1.28387,0,0,0,1.0817-.6897l2.8216-4.3307c.5415-.8286.523-3.7262.2056-4.8116l-2.4007-8.2065a6.23955,6.23955,0,0,0-.328-.8913l.1885-.2355,2.7536-4.2781c.5292-.822.5066-3.5881.1933-4.6088l-2.3485-7.6598a6.09606,6.09606,0,0,0-.3104-.8116l.1766-.2216,2.6844-4.2231c.5208-.8169.4935-3.4662.186-4.4271l-2.3017-7.1538a5.1315,5.1315,0,0,0-.2934-.7348l.1666-.2111,2.6227-4.1695a7.49241,7.49241,0,0,0,.1732-4.254l-2.2544-6.6849a4.24707,4.24707,0,0,0-.2761-.6673l.1513-.197,2.5657-4.1182a7.07068,7.07068,0,0,0,.1661-4.0949l-2.2102-6.253a3.81942,3.81942,0,0,0-.2582-.6032l.142-.1836,2.505-4.0646a6.70429,6.70429,0,0,0,.1584-3.9464l-2.1671-5.8539-.2429-.5434.129-.1681,2.4528-4.0141a6.20357,6.20357,0,0,0,.1491-3.8112l-2.1277-5.4779c-.3203-.8249-.7599-1.2572-1.3113-1.2853-.5235-.0422-.9635.3042-1.3082.9825l-1.8153,3.5567-1.5942-4.311c-.3005-.8101-.7248-1.2382-1.2662-1.2699-.5188-.0329-.9508.2965-1.2938.9706l-1.7277,3.399-1.4479-4.1048c-.1069-.2977-.4252-1.2031-1.224-1.2549-.4941-.0394-.9388.2885-1.2787.9578l-1.6464,3.2488-1.3133-3.9082c-.0992-.2922-.3977-1.186-1.1874-1.2415-.4961-.0355-.9284.282-1.2634.9459l-.4595.9127-.3302,3.7826,1.9391-3.8404,1.656,4.9221a4.272,4.272,0,0,1,.072,1.2302l-.0042.0542a3.56752,3.56752,0,0,1-.1746,1.0735l-2.0455,3.4262-1.6588-4.3679-.5264,2.5928.9311,2.4523.1168.2449-.2259.366-1.5993,3.1538-.2877-.9454-.6256,3.0963a5.88033,5.88033,0,0,1-.1993,1.8672l-.2724.4555-.832,4.1006.112-.1479,1.6611-2.7737,1.4097,3.9132.1196.2956-.2288.3688-1.6313,3.2097-1.2614-4.3322-.1857-.5102-.5865,2.9038,1.0284,3.5249a6.3125,6.3125,0,0,1-.1343,2.5514l-2.0237,3.3579-.4813-1.4689-1.3683,6.7561,1.552-3.0552,1.6259,5.8559a6.78321,6.78321,0,0,1-.1389,2.6906l-2.0656,3.3968-1.6364-5.2422-.0346-.1978-.5939,2.9188.9488,3.0385.1344.3611-.2486.3957-1.6138,3.1672-.3504-1.3825-.6582,3.261a7.39569,7.39569,0,0,1-.2063,2.4732l-.4411.7251-1.4233,7.0314,1.0284,4.301a7.647,7.647,0,0,1-.1689,2.8998l-2.0489,3.329-.5386-2.0029-1.5244,7.5282,1.6582-3.2397.0304.121,1.5519,6.8284a8.32015,8.32015,0,0,1-.1766,3.0589l-2.0905,3.3692-.0077-.0252-1.5942-6.2464-.0541-.4816Z"/>
      <path class="cls-1" d="M189.53913,91.1222l-8.132,4.337a3.6149,3.6149,0,0,1-3.4988,0l-8.1315-4.337a1.02807,1.02807,0,0,1-.4243-.881,1.10289,1.10289,0,0,1,.3943-.9748l7.899-4.9657a3.66517,3.66517,0,0,1,4.0218.0008l7.8985,4.9649a1.1,1.1,0,0,1,.3948.9734,1.02346,1.02346,0,0,1-.4218.8824Zm-12.6456,5.607.1984-.1063-7.9801-4.2554-.4674-.347-.4666.347L160.2,96.6229l.1961.1063,7.8957,4.964.3526.3047.3554-.3047,7.8937-4.964Zm.1984,13.5156-.1984.1071-7.8937,4.9635-.3554.3047-.3526-.3047-7.8928-4.9635-.199-.1071,7.9778-4.2546.4666-.3469.4674.3469,7.9801,4.2546Zm0,13.6227-.1984.1071-7.8937,4.9621-.3554.3061-.3526-.3061-7.8928-4.9621-.199-.1071,7.9778-4.2554.4666-.3469.4674.3469,7.9801,4.2554Zm0,13.6222-.1984.1068-7.8937,4.9635-.3554.3047-.3526-.3047-7.8928-4.9635-.199-.1068,7.9778-4.2548.4666-.347.4674.347,7.9801,4.2548Zm0,13.6241-.1984.1041-7.8937,4.9634-.3554.3056-.3526-.3056-7.8928-4.9634-.199-.1041,7.9778-4.2562.4666-.3475.4674.3475,7.9801,4.2562Zm-9.5771,8.1187a1.01974,1.01974,0,0,0,.4243-.8804,1.09978,1.09978,0,0,0-.3968-.9743l-7.8957-4.9626a3.65179,3.65179,0,0,0-4.0223-.0008h-.0028l-7.8985,4.9643a1.10067,1.10067,0,0,0-.3949.9734,1.02382,1.02382,0,0,0,.4252.8804l8.1312,4.3385a3.61684,3.61684,0,0,0,3.496,0l8.1343-4.3385Zm.0275,11.7647a1.11242,1.11242,0,0,1,.3968.9762,1.01972,1.01972,0,0,1-.4243.881l-8.1343,4.3379a3.61578,3.61578,0,0,1-3.496,0l-8.1312-4.3379a1.02566,1.02566,0,0,1-.4252-.881,1.11292,1.11292,0,0,1,.3949-.9762l7.8985-4.9607h.0028a3.65432,3.65432,0,0,1,4.0223,0l7.8957,4.9607Zm-20.5691-1.1946-.3503.3056-.3549-.3056-7.8934-4.9634-.2012-.1041,7.9806-4.2562.4689-.3475.4646.3475,7.9801,4.2562-.1959.1041-7.8985,4.9634Zm-1.4822,3.0518a1.02179,1.02179,0,0,0,.4246-.881,1.10914,1.10914,0,0,0-.3971-.9762l-7.8962-4.9607a3.65482,3.65482,0,0,0-4.0226,0h-.002l-7.8965,4.9607a1.11171,1.11171,0,0,0-.3968.9762,1.02044,1.02044,0,0,0,.4271.881l8.1315,4.3379a3.61578,3.61578,0,0,0,3.496,0l8.132-4.3379Zm-20.5393-3.0518-.3526.3056-.3546-.3056-7.8965-4.9634-.1956-.1041,7.9801-4.2562.4666-.3475.4666.3475,7.9809,4.2562-.1993.1041-7.8956,4.9634Zm-1.4822,3.0518a1.03206,1.03206,0,0,0,.4243-.881,1.11143,1.11143,0,0,0-.3997-.9762l-7.8936-4.9607a3.65448,3.65448,0,0,0-4.0224,0h-.0019l-7.8985,4.9607a1.10911,1.10911,0,0,0-.3949.9762,1.02741,1.02741,0,0,0,.4244.881l8.132,4.3379a3.61578,3.61578,0,0,0,3.496,0l8.1343-4.3379Zm-20.5416-3.0518-.3503.3056-.3549-.3056-7.8962-4.9634-.1984-.1041,7.9801-4.2562.4671-.3475.4669.3475,7.9801,4.2562-.1987.1041h.0022l-7.8979,4.9634Zm-1.485,3.0518a1.0131,1.0131,0,0,0,.4243-.881,1.10563,1.10563,0,0,0-.3948-.9762l-7.8957-4.9607a3.65766,3.65766,0,0,0-4.0243,0l-7.8965,4.9607a1.10467,1.10467,0,0,0-.3968.9762,1.019,1.019,0,0,0,.4243.881l8.1315,4.3379a3.61675,3.61675,0,0,0,3.4965,0l8.1315-4.3379Zm-20.5365-3.0518-.3554.3056-.3527-.3056-7.8956-4.9634-.1964-.1041,7.9781-4.2562.4666-.3475.4674.3475,7.9801,4.2562-.1984.1041h.002l-7.8957,4.9634Zm-1.485,3.0518a1.025,1.025,0,0,0,.4243-.881,1.11267,1.11267,0,0,0-.3968-.9762l-7.8985-4.9607a3.65449,3.65449,0,0,0-4.0224,0l-7.8956,4.9607a1.10958,1.10958,0,0,0-.3977.9762,1.02622,1.02622,0,0,0,.4249.881l8.1315,4.3379a3.60842,3.60842,0,0,0,3.496,0l8.1343-4.3379Zm-19.7618-13.6219,8.1315,4.3385a3.60921,3.60921,0,0,0,3.496,0l8.1343-4.3379a1.027,1.027,0,0,0,.4243-.881,1.1,1.1,0,0,0-.3968-.9743l-7.8985-4.9626a3.652,3.652,0,0,0-4.0224-.0008l-7.8956,4.9643a1.09421,1.09421,0,0,0-.3977.9734,1.02438,1.02438,0,0,0,.4249.8804Zm-.7798-3.0512-.3526.3056-.3504-.3056-7.8956-4.9634-.2013-.1041,7.9807-4.2562.4689-.3475.4671.3475,7.9773,4.2562-.1956.1041-7.8985,4.9634Zm-8.5986-18.5848-.2013-.1068,7.9807-4.2548.4689-.347.4671.347,7.9773,4.2548-.1956.1068-7.8985,4.9635-.3503.3047-.3527-.3047-7.8956-4.9635Zm0-13.6219-.2013-.1071,7.9827-4.2554.4669-.3469.4671.3469,7.9801,4.2554-.1984.1071-7.8985,4.9621-.3503.3061-.3527-.3061-7.8956-4.9621Zm0-13.6227-.2013-.1071,7.9827-4.2546.4669-.3469.4671.3469,7.9801,4.2546-.1984.1071-7.8985,4.9635-.3526.3047-.3504-.3047-7.8956-4.9635Zm0-13.6227-.2013-.1063,7.9827-4.2554.4669-.347.4671.347,7.9801,4.2554-.1984.1063-7.8985,4.964-.3526.3042-.3504-.3042-7.8956-4.964Zm-1.0179-1.27,8.1343-4.337a1.02987,1.02987,0,0,0,.4243-.8824,1.1029,1.1029,0,0,0-.3968-.9734l-7.8965-4.9649a3.66445,3.66445,0,0,0-4.0224-.0008l-7.8984,4.9657a1.10214,1.10214,0,0,0-.3969.9734,1.03112,1.03112,0,0,0,.4244.8824l8.1343,4.337a3.6087,3.6087,0,0,0,3.4937,0Zm10.3691-6.1928a1.09976,1.09976,0,0,0-.3977.9734,1.03138,1.03138,0,0,0,.4249.8824l8.1315,4.337a3.61315,3.61315,0,0,0,3.496,0l8.1343-4.337a1.02841,1.02841,0,0,0,.4243-.8824,1.10315,1.10315,0,0,0-.3968-.9734l-7.8985-4.9649a3.66445,3.66445,0,0,0-4.0224-.0008l-7.8956,4.9657ZM80.551,92.0205l.4674.347,7.9801,4.2554-.1964.1063-7.8957,4.964-.3554.3042-.3527-.3042-7.8956-4.964-.1964-.1063,7.9781-4.2554.4666-.347Zm1.1049-2.7541a1.09492,1.09492,0,0,0-.3968.9734,1.02219,1.02219,0,0,0,.4243.8824l8.1315,4.337a3.61412,3.61412,0,0,0,3.4965,0l8.1315-4.337a1.01762,1.01762,0,0,0,.4243-.8824,1.09954,1.09954,0,0,0-.3948-.9734l-7.8957-4.9649a3.665,3.665,0,0,0-4.0243-.0008l-7.8965,4.9657Zm20.9194,2.7541.4669.347,7.9801,4.2554-.1965.1063-7.8979,4.964-.3503.3042-.3549-.3042-7.8985-4.964-.1961-.1063,7.9801-4.2554.4671-.347Zm1.1024-2.7541a1.09928,1.09928,0,0,0-.3949.9734,1.03258,1.03258,0,0,0,.4244.8824l8.132,4.337a3.60948,3.60948,0,0,0,3.496,0l8.1343-4.337a1.03464,1.03464,0,0,0,.4243-.881,1.10375,1.10375,0,0,0-.3997-.9748l-7.8936-4.9649a3.66668,3.66668,0,0,0-4.0243-.0008l-7.8985,4.9657Zm20.9214,2.7541.4666.347,7.9809,4.2554-.1993.1063-7.8956,4.964-.3526.3047-.3546-.3047-7.8965-4.964-.1956-.1063,7.9801-4.2554.4666-.347Zm1.1021-2.7541a1.10185,1.10185,0,0,0-.3968.9734,1.02554,1.02554,0,0,0,.4271.8824l8.1315,4.337a3.60948,3.60948,0,0,0,3.496,0l8.132-4.337a1.02638,1.02638,0,0,0,.4246-.8824,1.103,1.103,0,0,0-.3971-.9734l-7.8962-4.9649a3.66546,3.66546,0,0,0-4.0246-.0008l-7.8965,4.9657Zm20.9217,2.7541.4646.347,7.9801,4.2554-.1959.1063-7.8985,4.964-.3503.3042-.3549-.3042-7.8956-4.964-.199-.1063,7.9806-4.2554.4689-.347Zm12.7576,17.0609a3.61052,3.61052,0,0,1-3.496,0l-8.1312-4.3364a1.03081,1.03081,0,0,1-.4252-.8824,1.10321,1.10321,0,0,1,.3949-.9735l7.8985-4.9657a3.66629,3.66629,0,0,1,4.0251.0009l7.8957,4.964a1.10292,1.10292,0,0,1,.3968.9743,1.02628,1.02628,0,0,1-.4243.8824l-8.1343,4.3364Zm0,13.6228,8.1343-4.3371a1.02488,1.02488,0,0,0,.4243-.8827,1.10318,1.10318,0,0,0-.3968-.9739l-7.8957-4.9644a3.65888,3.65888,0,0,0-4.0223,0h-.0028l-7.8985,4.9649a1.10441,1.10441,0,0,0-.3949.9734,1.03019,1.03019,0,0,0,.4252.8827l8.1312,4.3371a3.61157,3.61157,0,0,0,3.496,0Zm0,13.6207,8.1343-4.3364a1.023,1.023,0,0,0,.4243-.8805,1.10615,1.10615,0,0,0-.3968-.9757l-7.8957-4.9634a3.65989,3.65989,0,0,0-4.0223-.0006h-.0028l-7.8985,4.964a1.11,1.11,0,0,0-.3949.9749,1.02825,1.02825,0,0,0,.4252.8813l8.1312,4.337a3.60633,3.60633,0,0,0,3.496-.0006Zm-11.6272,9.2863,8.1312,4.3356a3.60319,3.60319,0,0,0,3.496,0l8.1343-4.3356a1.02294,1.02294,0,0,0,.4243-.8813,1.10643,1.10643,0,0,0-.3968-.9762l-7.8957-4.9626a3.65685,3.65685,0,0,0-4.0223,0h-.0028l-7.8985,4.9634a1.109,1.109,0,0,0-.3949.9754,1.02825,1.02825,0,0,0,.4252.8813Zm-22.0521,11.7666a1.09909,1.09909,0,0,0-.3968.9743,1.01862,1.01862,0,0,0,.4271.8804l8.1315,4.3385a3.61684,3.61684,0,0,0,3.496,0l8.132-4.3379a1.02378,1.02378,0,0,0,.4246-.881,1.093,1.093,0,0,0-.3971-.9743l-7.8962-4.9626a3.65229,3.65229,0,0,0-4.0226-.0008h-.002l-7.8965,4.9634Zm-9.3532-6.1599-.1956-.1041,7.9801-4.2562.4666-.3475.4666.3475,7.9809,4.2562-.1993.1041-7.8956,4.9634-.3526.3056-.3546-.3056-7.8965-4.9634Zm-12.6703,6.1599a1.09655,1.09655,0,0,0-.3949.9743,1.02557,1.02557,0,0,0,.4244.8804l8.132,4.3385a3.61684,3.61684,0,0,0,3.496,0l8.1343-4.3379a1.03409,1.03409,0,0,0,.4243-.881,1.10149,1.10149,0,0,0-.3997-.9743l-7.8936-4.9626a3.652,3.652,0,0,0-4.0224-.0008h-.0019l-7.8985,4.9634Zm-9.3512-6.1599-.1984-.1041,7.9801-4.2562.4671-.3475.4669.3475,7.9801,4.2562-.1987.1041h.0022l-7.8979,4.9634-.3503.3056-.3549-.3056-7.8962-4.9634Zm-12.6706,6.1599a1.09222,1.09222,0,0,0-.3968.9743,1.01713,1.01713,0,0,0,.4243.8804l8.1315,4.3385a3.61781,3.61781,0,0,0,3.4965,0l8.1315-4.3379a1.015,1.015,0,0,0,.4243-.881,1.09083,1.09083,0,0,0-.3948-.9743l-7.8957-4.9626a3.65513,3.65513,0,0,0-4.0243-.0008l-7.8965,4.9634Zm-1.5715-10.5202.4666-.3475.4674.3475,7.9801,4.2562-.1984.1041h.002l-7.8957,4.9634-.3554.3056-.3527-.3056-7.8956-4.9634-.1964-.1041,7.9781-4.2562Zm-10.5449-8.6698a3.77834,3.77834,0,0,0-2.0115.6033l-7.8956,4.9634a1.10241,1.10241,0,0,0-.3977.9754,1.02882,1.02882,0,0,0,.4249.8813l8.1315,4.3356a3.598,3.598,0,0,0,3.496,0l8.1343-4.3356a1.02826,1.02826,0,0,0,.4243-.8813,1.10669,1.10669,0,0,0-.3968-.9762l-7.8985-4.9626a3.76089,3.76089,0,0,0-2.0109-.6033Zm0-13.6221a3.77918,3.77918,0,0,0-2.0115.6026l-7.8956,4.964a1.1034,1.1034,0,0,0-.3977.9749,1.02882,1.02882,0,0,0,.4249.8813l8.1315,4.337a3.60241,3.60241,0,0,0,3.496-.0006l8.1343-4.3364a1.02829,1.02829,0,0,0,.4243-.8805,1.1064,1.1064,0,0,0-.3968-.9757l-7.8985-4.9634a3.76076,3.76076,0,0,0-2.0109-.6032Zm0-13.6219a3.77178,3.77178,0,0,0-2.0115.6023l-7.8956,4.9649a1.09894,1.09894,0,0,0-.3977.9734,1.03076,1.03076,0,0,0,.4249.8827l8.1315,4.3371a3.61525,3.61525,0,0,0,3.496,0l8.1343-4.3371a1.0302,1.0302,0,0,0,.4243-.8827,1.10343,1.10343,0,0,0-.3968-.9739l-7.8985-4.9644a3.75961,3.75961,0,0,0-2.0109-.6023Zm9.8819-6.1988a1.02975,1.02975,0,0,0,.4243-.8824,1.10317,1.10317,0,0,0-.3968-.9743l-7.8985-4.964a3.66445,3.66445,0,0,0-4.0224-.0009l-7.8956,4.9657a1.09833,1.09833,0,0,0-.3977.9735,1.03138,1.03138,0,0,0,.4249.8824l8.1315,4.3364a3.61262,3.61262,0,0,0,3.496,0l8.1343-4.3364Zm9.5771,5.4998-.1984.1071h.002l-7.8957,4.9635-.3554.3047-.3527-.3047-7.8956-4.9635-.1964-.1071,7.9781-4.2546.4666-.3469.4674.3469,7.9801,4.2546Zm12.4444-5.4998a1.01957,1.01957,0,0,0,.4243-.8824,1.09888,1.09888,0,0,0-.3948-.9743l-7.8957-4.964a3.665,3.665,0,0,0-4.0243-.0009l-7.8965,4.9657a1.09352,1.09352,0,0,0-.3968.9735,1.02219,1.02219,0,0,0,.4243.8824l8.1315,4.3364a3.6136,3.6136,0,0,0,3.4965,0l8.1315-4.3364Zm9.5794,5.4998-.1987.1071h.0022l-7.8979,4.9635-.3503.3047-.3549-.3047-7.8962-4.9635-.1984-.1071,7.9801-4.2546.4671-.3469.4669.3469,7.9801,4.2546Zm12.4472-5.4998a1.03656,1.03656,0,0,0,.4243-.8819,1.10235,1.10235,0,0,0-.3997-.9748l-7.8936-4.964a3.66648,3.66648,0,0,0-4.0243-.0009l-7.8985,4.9657a1.09786,1.09786,0,0,0-.3949.9735,1.03258,1.03258,0,0,0,.4244.8824l8.132,4.3364a3.61052,3.61052,0,0,0,3.496,0l8.1343-4.3364Zm9.5771,5.4998-.1993.1071-7.8956,4.9635-.3526.3047-.3546-.3047-7.8965-4.9635-.1956-.1071,7.9801-4.2546.4666-.3469.4666.3469,7.9809,4.2546Zm12.4444-5.4998a1.02837,1.02837,0,0,0,.4246-.8824,1.10235,1.10235,0,0,0-.3971-.9743l-7.8962-4.964a3.66546,3.66546,0,0,0-4.0246-.0009l-7.8965,4.9657a1.10041,1.10041,0,0,0-.3968.9735,1.02554,1.02554,0,0,0,.4271.8824l8.1315,4.3364a3.61052,3.61052,0,0,0,3.496,0l8.132-4.3364Zm-19.7898,39.0087a1.107,1.107,0,0,0-.3968.9762,1.023,1.023,0,0,0,.4271.8813l8.1315,4.3356a3.60319,3.60319,0,0,0,3.496,0l8.132-4.3356a1.025,1.025,0,0,0,.4246-.8813,1.10084,1.10084,0,0,0-.3999-.9762l-7.8934-4.9626a3.65735,3.65735,0,0,0-4.0226,0h-.002l-7.8965,4.9626Zm-9.3532-6.1572-.1956-.1068,7.9801-4.2548.4666-.347.4666.347,7.9809,4.2548-.1993.1068-7.8956,4.9635-.3526.3047-.3546-.3047-7.8965-4.9635Zm-12.6703,6.1572a1.09751,1.09751,0,0,0-.3949.9762,1.03,1.03,0,0,0,.4244.8813l8.132,4.3356a3.60319,3.60319,0,0,0,3.496,0l8.1343-4.3356a1.03537,1.03537,0,0,0,.4243-.8813,1.10545,1.10545,0,0,0-.3997-.9762l-7.8936-4.9626a3.657,3.657,0,0,0-4.0224,0h-.0019l-7.8985,4.9626Zm-9.3512-6.1572-.1984-.1068,7.9801-4.2548.4671-.347.4669.347,7.9801,4.2548-.1987.1068h.0022l-7.8979,4.9635-.3526.3027-.3526-.3027-7.8962-4.9635Zm-12.6706,6.1572a1.10006,1.10006,0,0,0-.3968.9762,1.0215,1.0215,0,0,0,.4243.8813l8.1315,4.3356a3.60416,3.60416,0,0,0,3.4965,0l8.1315-4.3356a1.01627,1.01627,0,0,0,.4243-.8813,1.099,1.099,0,0,0-.3968-.9762l-7.8937-4.9626a3.66019,3.66019,0,0,0-4.0243,0l-7.8965,4.9626ZM80.551,132.8879l.4674.347,7.9801,4.2548-.1984.1068h.002l-7.8957,4.9635-.3554.3047-.3527-.3047-7.8956-4.9635-.1964-.1068,7.9781-4.2548.4666-.347Zm8.4475-9.0204-.1984.1071h.002l-7.8957,4.9621-.3554.3061-.3527-.3061-7.8956-4.9621-.1964-.1071,7.9781-4.2554.4666-.3469.4674.3469,7.9801,4.2554Zm12.4444-5.5004a1.0182,1.0182,0,0,0,.4243-.8827,1.09821,1.09821,0,0,0-.3948-.9739l-7.8957-4.9644a3.66222,3.66222,0,0,0-4.0243,0l-7.8965,4.9649a1.09412,1.09412,0,0,0-.3968.9734,1.02344,1.02344,0,0,0,.4243.8827l8.1315,4.3371a3.61623,3.61623,0,0,0,3.4965,0l8.1315-4.3371Zm.4243,12.7401a1.09805,1.09805,0,0,0-.3968-.9749l-7.8937-4.9634a3.66324,3.66324,0,0,0-4.0243-.0006l-7.8965,4.964a1.09919,1.09919,0,0,0-.3968.9757,1.021,1.021,0,0,0,.4243.8805l8.1315,4.337a3.61465,3.61465,0,0,0,3.4965-.0006l8.1315-4.3364a1.01679,1.01679,0,0,0,.4243-.8813Zm9.1551-7.2397-.1987.1071h.0022l-7.8979,4.9621-.3526.3047-.3526-.3047-7.8962-4.9621-.1984-.1071,7.9801-4.2554.4671-.3469.4669.3469,7.9801,4.2554Zm12.4472-5.5004a1.03639,1.03639,0,0,0,.4243-.8812,1.10341,1.10341,0,0,0-.3997-.9754l-7.8936-4.9644a3.66617,3.66617,0,0,0-4.0224,0h-.0019l-7.8985,4.9649a1.09847,1.09847,0,0,0-.3949.9734,1.032,1.032,0,0,0,.4244.8827l8.132,4.3371a3.61158,3.61158,0,0,0,3.496,0l8.1343-4.3371Zm.4243,12.7409a1.10517,1.10517,0,0,0-.3997-.9757l-7.8936-4.9634a3.66006,3.66006,0,0,0-4.0224-.0006h-.0019l-7.8985,4.964a1.09665,1.09665,0,0,0-.3949.9757,1.02929,1.02929,0,0,0,.4244.881l8.132,4.3365a3.60633,3.60633,0,0,0,3.496-.0006l8.1343-4.3364a1.03351,1.03351,0,0,0,.4243-.8805Zm9.1528-7.2405-.1993.1071-7.8956,4.9621-.3526.3061-.3546-.3061-7.8965-4.9621-.1956-.1071,7.9801-4.2554.4666-.3469.4666.3469,7.9809,4.2554Zm4.5757,1.3008a3.66192,3.66192,0,0,0-4.0226,0h-.002l-7.8965,4.964a1.10615,1.10615,0,0,0-.3968.9757,1.02251,1.02251,0,0,0,.4271.8805l8.1315,4.337a3.60633,3.60633,0,0,0,3.496-.0006l8.132-4.3364a1.02556,1.02556,0,0,0,.4246-.8813,1.09991,1.09991,0,0,0-.3999-.9749l-7.8934-4.964Zm-.2633-2.4641,8.132-4.3371a1.027,1.027,0,0,0,.4246-.8827,1.10168,1.10168,0,0,0-.3971-.9739l-7.8962-4.9644a3.65938,3.65938,0,0,0-4.0226,0h-.002l-7.8965,4.9649a1.101,1.101,0,0,0-.3968.9734,1.02493,1.02493,0,0,0,.4271.8827l8.1315,4.3371a3.61158,3.61158,0,0,0,3.496,0Zm17.5127,14.8923-7.8985,4.9635-.3503.3027-.3549-.3027-7.8934-4.9635-.2012-.1068,7.9806-4.2548.4689-.347.4646.347,7.9801,4.2548-.1959.1068Zm0-13.6219-7.8985,4.9621-.3503.3047-.3549-.3047-7.8934-4.9621-.2012-.1071,7.9806-4.2554.4689-.3469.4646.3469,7.9801,4.2554-.1959.1071Zm0-13.6227.1959-.1071-7.9801-4.2546-.4646-.3469-.4689.3469-7.9778,4.2546.1984.1071,7.8934,4.9635.3549.3047.3503-.3047,7.8985-4.9635Zm0,40.866-7.8985,4.9634-.3503.3056-.3549-.3056-7.8934-4.9634-.2012-.1041,7.9806-4.2562.4689-.3475.4646.3475,7.9801,4.2562-.1959.1041ZM147.723,89.2664l7.8985-4.9657a3.66629,3.66629,0,0,1,4.0251.0008l7.8957,4.9649a1.1029,1.1029,0,0,1,.3968.9734,1.02429,1.02429,0,0,1-.4243.8824l-8.1343,4.337a3.60947,3.60947,0,0,1-3.496,0l-8.1312-4.337a1.03081,1.03081,0,0,1-.4252-.8824,1.10629,1.10629,0,0,1,.3949-.9734Zm42.5905-1.1959-7.8956-4.9635a5.09425,5.09425,0,0,0-5.5253,0l-7.8928,4.9635-.3554.3061-.3526-.3061-7.8957-4.9635a5.08545,5.08545,0,0,0-5.5244,0l-7.8985,4.9635-.3503.3047-.3549-.3047-7.8956-4.9635a5.08663,5.08663,0,0,0-5.5251,0l-7.8956,4.9635-.3526.3061-.3546-.3061L116.348,83.107a5.09017,5.09017,0,0,0-5.5222,0l-7.8979,4.9635-.3503.3047-.3549-.3047-7.8985-4.9635a5.08155,5.08155,0,0,0-5.5221,0l-7.8957,4.9635-.3554.3047-.3527-.3047-7.8956-4.9635a5.08839,5.08839,0,0,0-5.5244,0l-7.8985,4.9635-.3526.3047-.3504-.3047-7.8956-4.9635a5.09331,5.09331,0,0,0-5.5273,0l-7.8956,4.9635a2.48243,2.48243,0,0,0-1.0579,2.2192,2.38311,2.38311,0,0,0,1.1719,2.0778l7.9809,4.2554-.1993.1063-7.8956,4.964-.0621.0522.4247,1.9635a1.03714,1.03714,0,0,1,.3869-.8198l7.8984-4.9657a3.66445,3.66445,0,0,1,4.0224.0009l7.8965,4.964a1.10292,1.10292,0,0,1,.3968.9743,1.03121,1.03121,0,0,1-.4243.8824l-8.1343,4.3364a3.60817,3.60817,0,0,1-3.4937,0l-8.1343-4.3364-.2455-.2583.4221,1.9517,7.1413,3.8064-.1993.1071-5.3654,3.3727.3155,1.4675,5.8022-3.646a3.659,3.659,0,0,1,4.0224,0l7.8965,4.9644a1.10318,1.10318,0,0,1,.3968.9739,1.03166,1.03166,0,0,1-.4243.8827l-8.1343,4.3371a3.6108,3.6108,0,0,1-3.4937,0l-5.0176-2.6759.3892,1.8073,3.812,2.0319-.1993.1071-2.7731,1.7419.3175,1.4675,3.2079-2.0157a3.66006,3.66006,0,0,1,4.0224.0006l7.8965,4.9634a1.10615,1.10615,0,0,1,.3968.9757,1.02976,1.02976,0,0,1-.4243.8805l-8.1343,4.3364a3.60189,3.60189,0,0,1-3.4937.0006l-1.6886-.9003.3929,1.8091.4793.2554-.1993.1068-.1788.112.3183,1.4675.6128-.3849a3.657,3.657,0,0,1,4.0224,0l7.8965,4.9626a1.10643,1.10643,0,0,1,.3968.9762,1.02972,1.02972,0,0,1-.4243.8813l-8.1343,4.3356a3.62783,3.62783,0,0,1-1.9469.4272l.3127,1.4522a3.77809,3.77809,0,0,1,1.8995.589l7.8965,4.9626a1.09978,1.09978,0,0,1,.3968.9743,1.02846,1.02846,0,0,1-.4243.881l-7.3199,3.903.3104,1.4349,7.6725-4.0921.4689-.3475.4671.3475,7.9773,4.2562-.1956.1041-7.8985,4.9634-.3526.3056-.3504-.3056-7.7071-4.8415.4175,1.9292,6.5379,4.1069a1.11242,1.11242,0,0,1,.3968.9762,1.02645,1.02645,0,0,1-.4243.881l-4.6806,2.4959.3104,1.4352,5.0352-2.6844.4669-.3478.4671.3478,8.1315,4.3376a5.04516,5.04516,0,0,0,4.8243,0l8.132-4.3376.4666-.345.4674.345,8.134,4.3376a5.04516,5.04516,0,0,0,4.8243,0l8.1315-4.3376.4671-.3478.4669.3478,8.1312,4.3376a5.05066,5.05066,0,0,0,4.8271,0l8.132-4.3376.4666-.345.4666.345,8.1343,4.3376a5.03894,5.03894,0,0,0,4.8248-.002l8.1292-4.3356.4689-.3478.4646.3478,8.134,4.3376a5.04516,5.04516,0,0,0,4.8243,0l8.132-4.3376.4666-.345.4674.345,2.4029,1.281.3357-1.4205-2.0736-1.1072a1.02566,1.02566,0,0,1-.4243-.881,1.10986,1.10986,0,0,1,.3943-.9762l3.2904-2.0659.4615-1.9565-4.4989,2.8278-.3554.3056-.3526-.3056-7.8928-4.9634-.199-.1041,7.9778-4.2562.4666-.3475.4674.3475,5.2583,2.8041.3331-1.4202-4.9264-2.6303a1.02382,1.02382,0,0,1-.4243-.8804,1.09782,1.09782,0,0,1,.3943-.9734l7.0622-4.4405.7495-3.1779-7.7817-4.1491a1.02826,1.02826,0,0,1-.4243-.8813,1.10269,1.10269,0,0,1,.3943-.9754l7.899-4.9634a3.64591,3.64591,0,0,1,2.6189-.5131l.3929-1.6583a3.59341,3.59341,0,0,1-2.7493-.2942l-8.1315-4.337a1.02589,1.02589,0,0,1-.4243-.8805,1.10432,1.10432,0,0,1,.3943-.9757l7.899-4.964a3.65906,3.65906,0,0,1,4.0218.0006l1.4703.9235.3447-1.4513-1.0627-.6665-.1956-.1071,1.6461-.8782.4323-1.83-2.8956,1.5449a3.617,3.617,0,0,1-3.4988,0l-8.1315-4.3371a1.02927,1.02927,0,0,1-.4243-.8812,1.10043,1.10043,0,0,1,.3943-.9749l7.899-4.9649a3.66135,3.66135,0,0,1,4.0218,0l4.2687,2.683.3427-1.4524-3.8591-2.4248-.1956-.1071,5.3209-2.8378.4295-1.8301-6.5676,3.5045a3.616,3.616,0,0,1-3.4988,0l-8.1315-4.3364a1.02863,1.02863,0,0,1-.4243-.8819,1.099,1.099,0,0,1,.3943-.974l7.899-4.9657a3.665,3.665,0,0,1,4.0218.0009l7.067,4.4404.3402-1.4513-6.6569-4.1842-.1964-.1063,7.9829-4.2554a2.37493,2.37493,0,0,0,1.167-2.0778A2.47458,2.47458,0,0,0,190.31353,88.0705Z"/>
      <g>
        <path class="cls-1" d="M228.46083,146.2802a1.82882,1.82882,0,0,1,.4487,1.3138,1.785,1.785,0,0,1-.1874.6682,1.88646,1.88646,0,0,1-.4368.5729,1.829,1.829,0,0,1-1.3028.4359,1.8561,1.8561,0,0,1-1.6866-1.938,1.82975,1.82975,0,0,1,.612-1.23,1.606,1.606,0,0,1,.6273-.3537,1.75134,1.75134,0,0,1,.6877-.0933l.341.0618.3498.1261.2835.1868Z"/>
        <path class="cls-1" d="M80.68313,26.2517a1.78014,1.78014,0,1,1-.2333-.351l.2333.351Zm6.6775-3.0274a1.81505,1.81505,0,0,1-3.3324,1.4397,1.80778,1.80778,0,0,1,3.0325-1.8961l.2999.4564Zm6.8511-2.5269a1.81412,1.81412,0,1,1-.3439-.5904,1.73924,1.73924,0,0,1,.3439.5904Zm7.0225-2.0542a1.79457,1.79457,0,0,1-1.2829,2.2218l.0093.0113a1.817,1.817,0,0,1-.9603-3.5047,1.82887,1.82887,0,0,1,1.8603.5643,1.76436,1.76436,0,0,1,.3736.7073Zm7.1433-1.5585a1.81271,1.81271,0,1,1-3.5537.7172,1.81191,1.81191,0,0,1,3.1481-1.5404,1.74757,1.74757,0,0,1,.4056.8232Zm7.2329-1.0403a1.8078,1.8078,0,1,1-2.0083-1.563,1.79644,1.79644,0,0,1,2.0083,1.563Zm114.9699,124.6728a1.80144,1.80144,0,0,1-2.1379,1.4037,1.80881,1.80881,0,1,1,.7339-3.5424,1.77382,1.77382,0,0,1,1.0122.5828,1.80145,1.80145,0,0,1,.3918,1.5559ZM122.91333,15.5265a1.814,1.814,0,0,1-1.7112,1.8975,1.79463,1.79463,0,0,1-1.9089-1.6991,1.80371,1.80371,0,0,1,3.1691-1.2946,1.8698,1.8698,0,0,1,.451,1.0962Zm108.9088,117.8424h0a1.80967,1.80967,0,0,1-3.5875-.479l-.0133.0116a1.84468,1.84468,0,0,1,2.0469-1.5633,1.87538,1.87538,0,0,1,1.1267.6032,1.82619,1.82619,0,0,1,.4272,1.4275ZM130.23043,15.4959a1.80412,1.80412,0,0,1-1.8303,1.7844,1.82682,1.82682,0,0,1-1.7978-1.8445,1.81437,1.81437,0,0,1,3.6281.0601Zm102.2975,110.4667.0114.013a1.8107,1.8107,0,1,1-.4468-1.3153,1.77328,1.77328,0,0,1,.4354,1.3023ZM137.52513,15.9885a1.81152,1.81152,0,1,1-1.6487-1.9516,1.77258,1.77258,0,0,1,1.2155.5987,1.85,1.85,0,0,1,.4332,1.3529Zm95.212,102.5439a1.81066,1.81066,0,1,1-1.8269-1.7966,1.76563,1.76563,0,0,1,1.3808.6205,1.82752,1.82752,0,0,1,.4461,1.1761ZM144.77443,16.9775a1.806,1.806,0,1,1-1.5007-2.0545,1.73891,1.73891,0,0,1,1.0741.6012,1.79661,1.79661,0,0,1,.4266,1.4533Zm87.6302,94.11a1.79109,1.79109,0,1,1-.4271-1.0426,1.72574,1.72574,0,0,1,.4271,1.0426Zm-80.4577-92.598a1.814,1.814,0,1,1-1.3652-2.1724,1.77456,1.77456,0,0,1,.9607.5794,1.8087,1.8087,0,0,1,.4045,1.593Zm79.6235,85.2118a1.81575,1.81575,0,0,1-3.5918.5349,1.83188,1.83188,0,0,1,1.5423-2.0628,1.79971,1.79971,0,0,1,2.0495,1.5279ZM158.98333,20.482a1.81118,1.81118,0,0,1-3.4707-1.0372,1.82893,1.82893,0,0,1,2.2558-1.2172,1.88958,1.88958,0,0,1,.8337.546,1.79886,1.79886,0,0,1,.3812,1.7084Zm71.2338,75.9008h0a1.8326,1.8326,0,0,1-1.383,2.1617,1.81078,1.81078,0,1,1,.9768-2.9594,1.92049,1.92049,0,0,1,.4062.7977Zm-64.3595-73.4097a1.798,1.798,0,1,1-.3223-1.8312,1.76664,1.76664,0,0,1,.3223,1.8312ZM228.342,89.1782a1.81625,1.81625,0,0,1-1.2345,2.2513,1.81094,1.81094,0,0,1-1.0275-3.473,1.81724,1.81724,0,0,1,1.8873.5409,1.91449,1.91449,0,0,1,.3747.6808Zm-55.7835-63.2233a1.81673,1.81673,0,1,1-.8876-2.3987,1.75777,1.75777,0,0,1,.5984.4408,1.828,1.828,0,0,1,.2892,1.9579Zm53.3987,56.1792a1.79515,1.79515,0,0,1-1.0465,2.3262,1.81674,1.81674,0,1,1,.7268-2.888,1.6575,1.6575,0,0,1,.3197.5618Zm-46.9519-52.7417a1.81047,1.81047,0,1,1-.7021-2.4621,1.95765,1.95765,0,0,1,.4867.3948,1.80436,1.80436,0,0,1,.2154,2.0673Zm44.0912,45.868a1.81149,1.81149,0,1,1-3.2899,1.5174,1.81136,1.81136,0,0,1,3.0124-1.9468l.2775.4294Zm-37.8799-41.9839a1.80823,1.80823,0,1,1-3.0331-1.9695,1.83059,1.83059,0,0,1,2.5166-.5313l.3606.3323a1.77908,1.77908,0,0,1,.1559,2.1685Zm34.5265,35.3466a1.73581,1.73581,0,1,1-.2061-.3232l.2061.3232Zm-28.6242-31.0218a1.78818,1.78818,0,0,1-2.5271.3509,1.81268,1.81268,0,1,1,2.1875-2.891l.2662.2508a1.80587,1.80587,0,0,1,.0734,2.2893Zm24.8077,24.6203a1.81032,1.81032,0,1,1-3.0368,1.9715,1.811,1.811,0,0,1,2.8854-2.175l.1514.2035Zm-19.2204-19.9069a1.80888,1.80888,0,0,1-2.7207-2.3845,1.82747,1.82747,0,0,1,2.5654-.1686l.1687.1678a1.8102,1.8102,0,0,1-.0134,2.3853Zm14.9857,13.7985a1.866,1.866,0,1,1-.0947-.1097l.0947.1097Zm-9.7302-8.6986a1.807,1.807,0,0,1-2.5654.0028,1.81466,1.81466,0,1,1,2.5773-2.5552l.0708.0817a1.81306,1.81306,0,0,1-.0827,2.4707Zm4.8716,5.4598a1.81078,1.81078,0,0,1-2.3638-2.7437,1.81079,1.81079,0,1,1,2.3638,2.7437Z"/>
        <path class="cls-1" d="M73.98253,29.5625l.2004.2826.1551.3175.0666.3529.0162.3478a1.82135,1.82135,0,0,1-1.9401,1.6881l-.3444-.0621-.326-.127-.3055-.1865a2.28454,2.28454,0,0,1-.4644-.5346l-.1437-.3289-.0805-.3398-.0136-.3495a2.20072,2.20072,0,0,1,.1908-.6914,1.86471,1.86471,0,0,1,1.7492-.9967l.3419.0638.3399.114.2939.1981Z"/>
      </g>
      <polygon class="cls-1" points="48.095 18.72 52.425 26.552 61.33 27.427 55.218 33.964 57.138 42.705 49.033 38.911 41.314 43.438 42.417 34.558 35.725 28.615 44.512 26.92 48.095 18.72"/>
      <polygon class="cls-1" points="74.037 38.139 73.892 43.823 78.492 47.165 73.041 48.783 71.285 54.191 68.062 49.507 62.375 49.507 65.833 44.994 64.077 39.586 69.439 41.482 74.037 38.139"/>
      <polygon class="cls-1" points="34.568 42.271 35.315 47.908 40.38 50.488 35.251 52.94 34.363 58.556 30.445 54.434 24.83 55.326 27.539 50.327 24.958 45.261 30.548 46.292 34.568 42.271"/>
    </g>
    <circle class="cls-3" cx="120.00028" cy="67.0669" r="46.55991" transform="translate(12.11645 152.26734) rotate(-67.50002)"/>
    <path class="cls-4" d="M116.17173,79.3528a8.43366,8.43366,0,0,1-.3705-2.6547,13.36031,13.36031,0,0,1,.5556-4.0748,17.809,17.809,0,0,1,1.3584-3.1793,24.5515,24.5515,0,0,1,1.7903-2.7782,21.13457,21.13457,0,0,0,1.7904-2.871,18.65706,18.65706,0,0,0,1.3583-3.488,17.12837,17.12837,0,0,0,.5556-4.6613,4.80723,4.80723,0,0,0-.8952-3.3029,3.745,3.745,0,0,0-5.0008,0,4.80723,4.80723,0,0,0-.8952,3.3029v4.6922h-6.4208V56.0775q0-5.2473,2.5005-8.0566,2.50005-2.80935,7.501-2.8092,5.0007,0,7.5013,2.8092,2.5002,2.80875,2.5005,8.0566a18.11317,18.11317,0,0,1-.5868,4.9082,18.5721,18.5721,0,0,1-1.4817,3.7352,23.48742,23.48742,0,0,1-1.9445,3.056q-1.04985,1.38915-1.9449,2.7474a14.82836,14.82836,0,0,0-1.4817,2.9018,9.85547,9.85547,0,0,0-.5864,3.5189,10.56249,10.56249,0,0,0,.2469,2.4078Zm6.2354,3.0251v6.5444H115.863V82.3779Z"/>
    <g>
      <circle class="cls-5" cx="40.17996" cy="197.31118" r="16.10139" transform="translate(-127.75163 86.20262) rotate(-45)"/>
      <circle class="cls-5" cx="80.04616" cy="197.31118" r="16.10139" transform="translate(-116.07509 114.39228) rotate(-45)"/>
      <circle class="cls-5" cx="119.91198" cy="197.31118" r="16.10137" transform="translate(-103.68163 254.90008) rotate(-73.1549)"/>
      <circle class="cls-5" cx="159.95481" cy="197.31118" r="16.10132" transform="translate(-41.05396 42.02848) rotate(-13.28256)"/>
      <circle class="cls-5" cx="199.82096" cy="197.31118" r="16.10139" transform="translate(-80.99387 199.08586) rotate(-45)"/>
    </g>
    <circle class="cls-3" cx="159.95483" cy="197.3112" r="10.6855"/>
    <path class="cls-4" d="M153.90563,197.7888l-.0104-.0113-.0017-.0017-.0094-.0108-.0023-.0025-.0113-.0134-.0111-.0139-.0105-.0138-.0102-.0139-.0096-.0145-.0093-.0144-.0046-.0077-.0042-.0071-.0043-.0074-.0042-.0076-.004-.0071-.0043-.0077-.0034-.007-.0042-.0083-.0031-.0068-.0043-.0085-.0031-.0065-.0037-.0091-.0031-.0065-.0034-.009-.0028-.0066-.0034-.009-.0029-.0068-.0028-.0091-.0105-.032-.0023-.0074-.0022-.0085-.0003-.0017-.0006-.0014-.0003-.0015-.0005-.0014-.0003-.0017-.0003-.0014-.0006-.0014-.0003-.0017-.0002-.0014-.0003-.0014-.0006-.0015v-.0002l-.0003-.0015-.0003-.0014-.0005-.0014-.0006-.0031-.0006-.0017-.0002-.0014-.0003-.0017-.0003-.0014-.0003-.0015-.0003-.0008v-.0006l-.0005-.0017-.0003-.0014-.0003-.0014-.0003-.0017-.0003-.0014-.0003-.0015-.0002-.0017-.0006-.0014-.0003-.0017-.0003-.0014v-.0006l-.0003-.0011-.0002-.0014-.0003-.0017-.0003-.0014-.0003-.0017-.0003-.0014-.0003-.0017v-.0015l-.0005-.0017-.0003-.0014v-.0017l-.0003-.0014-.0003-.0014-.0003-.0017-.0011-.0063v-.0014l-.0006-.0031v-.0008l-.0005-.0023v-.0017l-.0009-.0045v-.0017l-.0005-.0032-.0003-.0014v-.0017l-.0014-.0122-.0003-.0042-.0014-.0167-.0012-.0142v-.0026l-.0005-.0249-.0003-.0082.0003-.0083.0005-.0249v-.0026l.0012-.0141.0014-.0167.0003-.0043.0014-.0122v-.0017l.0003-.0014.0005-.0031v-.0017l.0009-.0046v-.0017l.0005-.0022v-.0009l.0017-.0108v-.0017l.0006-.0014v-.0014l.0003-.0003v-.0014l.0003-.0014.0003-.0017.0002-.0014.0003-.0017.0003-.0014.0003-.0017.0003-.0015.0003-.0017.0002-.0014.0003-.0011v-.0006l.0003-.0014.0003-.0014.0006-.0017.0002-.0014.0029-.0136.0003-.0017.0002-.0015.0006-.0017.0014-.0059.0003-.0014v-.0003l.0003-.0011.0008-.0032.0003-.0017.0009-.0028.0003-.0014.0005-.0017.0003-.0014.0006-.0015.0003-.0017.0022-.0085.0023-.0073.0105-.0321.0028-.009.0029-.0068.0034-.0091.0028-.0065.0034-.0091.0031-.0065.0037-.0091.0031-.0065.0043-.0085.0031-.0068.0042-.0082.0034-.0071.0043-.0077.004-.0071.0042-.0076.0043-.0074.0042-.0071.0046-.0076.0093-.0145.0096-.0144.0102-.0139.0105-.0139.0111-.0139.0113-.0133.0023-.0026.0094-.0108.0017-.0017.0104-.0113.0122-.0127,4.3144-4.3144a.69321.69321,0,1,1,.9805.9802l-3.1309,3.1309h9.4198a.69335.69335,0,1,1,0,1.3867h-9.4198l3.1309,3.1309a.69321.69321,0,1,1-.9805.9802l-4.3144-4.3143Z"/>
    <path class="cls-6" d="M109.42153,193.2299a2.424,2.424,0,0,0,.7699-.1027,1.36989,1.36989,0,0,0,.4913-.2786,1.41794,1.41794,0,0,0,.3078-.4107,3.79321,3.79321,0,0,0,.2053-.4987h1.0851v10.2649h-1.613v-7.8305h-1.2464Z"/>
    <path class="cls-6" d="M115.22833,193.2299a2.424,2.424,0,0,0,.7699-.1027,1.36989,1.36989,0,0,0,.4913-.2786,1.41973,1.41973,0,0,0,.3078-.4107,3.80667,3.80667,0,0,0,.2052-.4987h1.0851v10.2649h-1.6129v-7.8305h-1.2464Z"/>
    <polygon class="cls-6" points="122.15 198.113 121.651 199.051 121.651 202.204 120.038 202.204 120.038 191.939 121.651 191.939 121.651 196.412 123.792 191.939 125.376 191.939 123.132 196.514 125.376 202.204 123.719 202.204 122.15 198.113"/>
    <path class="cls-6" d="M128.75613,194.1072l.0074-.0068.0011-.0012.0068-.0059.0017-.0014.0088-.0074.0088-.0071.0091-.0068.009-.0065.0094-.0062.0093-.006.0049-.0031.0048-.0028.0045-.0026.0051-.0028.0045-.0026.0051-.0028.0043-.0023.0054-.0025.0045-.0023.0054-.0026.0043-.0019.0059-.0026.0043-.0017.0056-.0025.0043-.0017.0059-.0023.0046-.0017.0056-.002.0207-.0065.0049-.0017.0056-.0014.0009-.0003.0008-.0003.0012-.0003.0008-.0003h.0011l.0009-.0003.0008-.0002.0012-.0003.0008-.0003.0012-.0003h.0008v-.0003h.0011l.0009-.0003.0008-.0002.002-.0006h.0012l.0008-.0003.0011-.0003.0009-.0003h.0011l.0006-.0002h.0003l.0011-.0003.0009-.0003h.0008l.0011-.0003.0012-.0003.0008-.0003h.0012l.0008-.0002.0009-.0003.0011-.0003h.0009l.0011-.0003.0011-.0003h.0009l.0011-.0003h.0009l.0011-.0002.0008-.0003h.0012l.0008-.0003h.0012l.0008-.0003.0011-.0003h.0009l.0042-.0008h.0009l.002-.0003h.0005l.0017-.0003.0009-.0003.0031-.0003h.0009l.0022-.0005h.002l.0077-.0012h.0028l.0108-.0008.0093-.0009h.0014l.0162-.0002.0054-.0003.0054.0003.0161.0002h.0015l.0093.0009.0108.0008h.0028l.0077.0012h.002l.0022.0005h.0009l.0031.0003.0008.0003.0017.0003h.0006l.0071.0011h.0008l.0012.0003h.0008v.0003h.0012l.0008.0003h.0011l.0009.0003.0011.0002h.0009l.0011.0003h.0009l.0011.0003.0008.0003h.0012l.0008.0003.0012.0003.0008.0002h.0011l.0088.002.0009.0003.0011.0003h.0012l.0036.0011h.0012v.0003h.0008l.002.0006.0011.0003.0017.0005h.0012l.0008.0003.0012.0003.0008.0003.0009.0003.0056.0014.0049.0017.0206.0065.0057.002.0045.0017.006.0023.0043.0017.0056.0025.0043.0017.0059.0026.0043.0019.0054.0026.0045.0023.0054.0025.0042.0023.0051.0028.0046.0026.0051.0028.0045.0026.0048.0028.0049.0031.0093.006.0094.0062.009.0065.0091.0068.0088.0071.0088.0074.0017.0014.0068.0059.0011.0012.0074.0068.0082.0079,2.7887,2.7887a.4482.4482,0,1,1-.6338.6339l-2.0237-2.0237v6.0886a.44815.44815,0,0,1-.8963,0V195.514l-2.0236,2.0237a.4482.4482,0,1,1-.6338-.6339l2.7887-2.7887Z"/>
    <path class="cls-6" d="M66.84233,193.4382a2.42713,2.42713,0,0,0,.7699-.1026,1.37,1.37,0,0,0,.4913-.2787,1.41527,1.41527,0,0,0,.3078-.4107,3.79719,3.79719,0,0,0,.2052-.4986h1.0851v10.2648h-1.6129V194.582h-1.2464Z"/>
    <path class="cls-6" d="M76.38833,199.8609a2.91651,2.91651,0,0,1-.6012,1.9868,2.3564,2.3564,0,0,1-1.8621.6821,2.31091,2.31091,0,0,1-1.7966-.6673,2.74224,2.74224,0,0,1-.6083-1.9137v-.2639h1.525v.3665a1.09036,1.09036,0,0,0,.2273.7847.823.823,0,0,0,.6084.2273.838.838,0,0,0,.6599-.2639,1.54744,1.54744,0,0,0,.2347-.9972v-1.8771a1.51592,1.51592,0,0,1-1.4959.9093,1.56506,1.56506,0,0,1-1.3416-.6012,2.89161,2.89161,0,0,1-.4473-1.745v-1.8771a2.681,2.681,0,0,1,.6307-1.9137,2.811,2.811,0,0,1,3.6366,0,2.68134,2.68134,0,0,1,.6304,1.9137v5.2497Zm-2.4489-2.4927a.82254.82254,0,0,0,.6086-.2274,1.0896,1.0896,0,0,0,.2274-.7846v-1.8476a1.06155,1.06155,0,0,0-.2274-.7773.9518.9518,0,0,0-1.2172,0,1.06339,1.06339,0,0,0-.227.7773v1.8476a1.09151,1.09151,0,0,0,.227.7846A.82379.82379,0,0,0,73.93943,197.3682Z"/>
    <path class="cls-6" d="M78.93983,200.0514a1.08989,1.08989,0,0,0,.2273.7847.92842.92842,0,0,0,1.2172,0,1.09133,1.09133,0,0,0,.227-.7847v-5.5428a1.09133,1.09133,0,0,0-.227-.7847.92935.92935,0,0,0-1.2172,0,1.08989,1.08989,0,0,0-.2273.7847v5.5428Zm-1.613-5.4402a2.68093,2.68093,0,0,1,.6305-1.9137,2.81082,2.81082,0,0,1,3.6365,0,2.681,2.681,0,0,1,.6307,1.9137v5.3376a2.68066,2.68066,0,0,1-.6307,1.9137,2.81082,2.81082,0,0,1-3.6365,0,2.6806,2.6806,0,0,1-.6305-1.9137Z"/>
    <path class="cls-6" d="M86.37423,194.6699a1.39306,1.39306,0,0,0-.2274-.9312.79449.79449,0,0,0-.6083-.2418.823.823,0,0,0-.6086.227,1.09036,1.09036,0,0,0-.2273.7847v.6599h-1.5251v-.5573a2.7417,2.7417,0,0,1,.6086-1.9137,2.75151,2.75151,0,0,1,3.5927,0,2.74314,2.74314,0,0,1,.6086,1.9137v.2639a2.02839,2.02839,0,0,1-1.1293,2.1118,1.62048,1.62048,0,0,1,.8725.8138,3.15666,3.15666,0,0,1,.2568,1.3417v.8064a2.7428,2.7428,0,0,1-.6086,1.9137,2.75151,2.75151,0,0,1-3.5927,0,2.74136,2.74136,0,0,1-.6086-1.9137v-.8504h1.5251v.953a1.09036,1.09036,0,0,0,.2273.7847.82318.82318,0,0,0,.6086.2273.80728.80728,0,0,0,.6083-.2347,1.361,1.361,0,0,0,.2274-.9238v-.8065a1.58035,1.58035,0,0,0-.2492-1.0119,1.004,1.004,0,0,0-.8064-.2931H84.776V196.327h.6304a1.01455,1.01455,0,0,0,.7112-.2347,1.1266,1.1266,0,0,0,.2566-.8504Z"/>
    <path class="cls-6" d="M91.45873,194.1931l.0074-.0068.0011-.0012.0068-.0059.0017-.0014.0088-.0074.0088-.0071.009-.0068.0091-.0065.0094-.0063.0093-.0059.0048-.0031.0049-.0029.0045-.0025.0051-.0028.0045-.0026.0051-.0028.0043-.0023.0054-.0025.0045-.0023.0054-.0026.0042-.002.006-.0025.0042-.0017.0057-.0026.0043-.0017.0059-.0022.0046-.0017.0056-.002.0207-.0065.0048-.0017.0057-.0014.0009-.0003.0008-.0003.0011-.0003.0009-.0003h.0011l.0009-.0003.0008-.0002.0012-.0003.0008-.0003.0011-.0003h.0009v-.0003h.0011l.0009-.0003.0008-.0002.002-.0006h.0011l.0009-.0003.0011-.0003.0009-.0003h.0011l.0006-.0002h.0003l.0011-.0003.0008-.0003h.0009l.0011-.0003.0012-.0003.0008-.0003h.0011l.0009-.0002.0009-.0003.0011-.0003h.0008l.0012-.0003.0011-.0003h.0009l.0011-.0003h.0008l.0012-.0002.0008-.0003h.0012l.0008-.0003h.0011l.0009-.0003.0011-.0003h.0009l.0042-.0008h.0009l.002-.0003h.0005l.0017-.0003.0009-.0003.0031-.0003h.0008l.0023-.0005h.002l.0077-.0012h.0028l.0108-.0008.0093-.0009h.0014l.0162-.0003.0054-.0002.0054.0002.0161.0003h.0014l.0094.0009.0108.0008h.0028l.0076.0012h.002l.0023.0005h.0009l.0031.0003.0008.0003.0017.0003h.0006l.0071.0011h.0008l.0012.0003h.0008v.0003h.0011l.0009.0003h.0011l.0009.0003.0011.0002h.0009l.0011.0003h.0008l.0012.0003.0008.0003h.0012l.0008.0003.0011.0003.0009.0002h.0011l.0088.002.0009.0003.0011.0003h.0011l.0037.0011h.0012v.0003h.0008l.002.0006.0011.0003.0017.0005h.0012l.0008.0003.0011.0003.0009.0003.0008.0003.0057.0014.0048.0017.0207.0065.0057.002.0045.0017.006.0022.0042.0017.0057.0026.0043.0017.0059.0025.0043.002.0053.0026.0046.0023.0054.0025.0042.0023.0051.0028.0046.0026.0051.0028.0045.0025.0048.0029.0048.0031.0094.0059.0093.0063.0091.0065.0091.0068.0088.0071.0088.0074.0017.0014.0068.0059.0011.0012.0074.0068.0082.0079,2.7887,2.7887a.4482.4482,0,0,1-.6338.6339l-2.0237-2.0237v6.0885a.44815.44815,0,1,1-.8963,0v-6.0885l-2.0236,2.0237a.44823.44823,0,0,1-.6339-.6339l2.7888-2.7887Z"/>
    <path class="cls-6" d="M191.46273,199.1151l2.9327-6.936h1.7598v6.936h.7625v1.4664h-.7625v1.8624h-1.6129v-1.8624h-3.0796v-1.4664Zm3.0796,0v-3.7978l-1.5985,3.7978Z"/>
    <path class="cls-6" d="M199.10263,199.1299v.953a1.06277,1.06277,0,0,0,.2271.7773.95214.95214,0,0,0,1.2172,0,1.0614,1.0614,0,0,0,.2273-.7773v-2.2581a1.08962,1.08962,0,0,0-.2273-.7846.92842.92842,0,0,0-1.2172,0,1.091,1.091,0,0,0-.2271.7846v.3079h-1.525l.2931-5.9536h4.2525v1.4663h-2.8006l-.1321,2.4489a1.53153,1.53153,0,0,1,1.4077-.7478,1.56527,1.56527,0,0,1,1.3419.6012,2.893,2.893,0,0,1,.4471,1.745v2.2876a2.74227,2.74227,0,0,1-.6084,1.9137,2.75209,2.75209,0,0,1-3.5929,0,2.74272,2.74272,0,0,1-.6083-1.9137v-.8504Z"/>
    <path class="cls-6" d="M206.56633,194.7013a1.39306,1.39306,0,0,0-.2274-.9312.79484.79484,0,0,0-.6083-.2418.82267.82267,0,0,0-.6086.2271,1.09024,1.09024,0,0,0-.2273.7846v.6599h-1.5251v-.5573a2.74143,2.74143,0,0,1,.6086-1.9136,2.75151,2.75151,0,0,1,3.5927,0,2.74286,2.74286,0,0,1,.6086,1.9136v.264a2.0284,2.0284,0,0,1-1.1294,2.1118,1.6198,1.6198,0,0,1,.8725.8138,3.15462,3.15462,0,0,1,.2569,1.3416v.8065a2.7428,2.7428,0,0,1-.6086,1.9137,2.75182,2.75182,0,0,1-3.5927,0,2.74136,2.74136,0,0,1-.6086-1.9137v-.8504h1.5251v.953a1.09008,1.09008,0,0,0,.2273.7846.82285.82285,0,0,0,.6086.2274.80766.80766,0,0,0,.6083-.2347,1.36127,1.36127,0,0,0,.2274-.9239v-.8064a1.58068,1.58068,0,0,0-.2492-1.012,1.00447,1.00447,0,0,0-.8065-.2931h-.5425v-1.4663h.6304a1.01476,1.01476,0,0,0,.7112-.2348,1.12618,1.12618,0,0,0,.2566-.8503Z"/>
    <g>
      <polygon class="cls-7" points="29.161 198.98 32.43 200.804 33.088 195.226 29.161 198.98"/>
      <polygon class="cls-7" points="51.199 198.98 47.931 200.804 47.273 195.226 51.199 198.98"/>
      <path class="cls-6" d="M41.13383,187.7026c1.4221,3.7372,5.2155,6.0545,9.032,6.6776a1.02123,1.02123,0,0,1,.8433,1.1715,18.39673,18.39673,0,0,1-10.3807,13.3282.99241.99241,0,0,1-.8963,0,18.39764,18.39764,0,0,1-10.3816-13.3282,1.02265,1.02265,0,0,1,.843-1.1715c3.8166-.6231,7.6113-2.9404,9.032-6.6776a1.02068,1.02068,0,0,1,1.9083,0Z"/>
      <path class="cls-8" d="M40.18023,207.9643a17.3656,17.3656,0,0,1-9.822-12.5753c4.6499-.7577,8.4073-3.6025,9.822-7.3227,1.4139,3.7202,5.1713,6.565,9.8221,7.3227a17.37047,17.37047,0,0,1-9.8221,12.5753Z"/>
      <path class="cls-6" d="M40.18023,189.9074a13.91592,13.91592,0,0,1-8.5206,5.7469,16.38268,16.38268,0,0,0,8.5206,10.4701,16.3806,16.3806,0,0,0,8.5196-10.4701,13.91125,13.91125,0,0,1-8.5196-5.7469Z"/>
      <path class="cls-4" d="M40.18023,193.6366a6.34735,6.34735,0,1,1-6.3479,6.3468,6.3473,6.3473,0,0,1,6.3479-6.3468Z"/>
      <path class="cls-8" d="M41.775,194.4556a5.754,5.754,0,1,1-7.1238,3.933,5.75409,5.75409,0,0,1,7.1238-3.933Z"/>
      <path class="cls-6" d="M43.50553,204.6793a5.78393,5.78393,0,0,1-2.679,1.023,6.87725,6.87725,0,0,1-.9278-.9354,2.92547,2.92547,0,0,0,1.8071-1.3788,3.72953,3.72953,0,0,0,1.9083.0683,3.71245,3.71245,0,0,1-.1086,1.2229Z"/>
      <path class="cls-6" d="M45.49723,197.7857a5.7325,5.7325,0,0,1,.3345,3.2771,6.96669,6.96669,0,0,1-.8742.4289,2.92561,2.92561,0,0,0-.7838-2.1345,3.70826,3.70826,0,0,0,.629-1.8017,3.679,3.679,0,0,1,.6945.2302Z"/>
      <path class="cls-6" d="M41.775,194.4556a5.73083,5.73083,0,0,1,1.6078.7466,6.87984,6.87984,0,0,1,.0663.9697,2.82433,2.82433,0,0,0-2.1965-.0844,3.58727,3.58727,0,0,0-1.3799-1.2249,3.5503,3.5503,0,0,1,.5607-.6281,5.788,5.788,0,0,1,1.3416.2211Z"/>
      <path class="cls-6" d="M34.88433,197.7324a5.73142,5.73142,0,0,1,1.9698-2.444,3.72039,3.72039,0,0,1,.8552.193,3.72774,3.72774,0,0,0-.4284,1.8601,2.92494,2.92494,0,0,0-1.7997,1.3887,7.03343,7.03343,0,0,1-.5969-.9978Z"/>
      <path class="cls-6" d="M36.69333,204.5628a5.75914,5.75914,0,0,1-1.7546-2.2057,3.67406,3.67406,0,0,1,.5859-1.1789,3.72949,3.72949,0,0,0,1.6509.9578,2.92154,2.92154,0,0,0,.7948,2.1294,6.90527,6.90527,0,0,1-1.277.2974Z"/>
      <polygon class="cls-6" points="40.996 197.468 41.776 198.47 42.557 199.472 41.844 200.524 41.133 201.575 39.913 201.224 38.693 200.871 38.651 199.603 38.609 198.333 39.802 197.9 40.996 197.468"/>
      <path class="cls-6" d="M45.14143,197.244a5.66712,5.66712,0,1,0,.4845,4.3112,5.64657,5.64657,0,0,0-.4845-4.3112Zm-3.3432-2.8709a5.83936,5.83936,0,1,1-4.4407.4983,5.82517,5.82517,0,0,1,4.4407-.4983Z"/>
      <path class="cls-9" d="M42.22513,205.3505a5.77331,5.77331,0,0,0,1.2702-.6772,3.60936,3.60936,0,0,0,.1035-.5919,3.76835,3.76835,0,0,0,.0051-.612,3.187,3.187,0,0,1-.9547.0874,4.57245,4.57245,0,0,1-.9386-.1565,2.91189,2.91189,0,0,1-.7474.8572,3.13954,3.13954,0,0,1-1.0463.5153c.1437.1729.2894.3337.4391.4853.1528.1539.3106.2976.4734.4331a5.77075,5.77075,0,0,0,1.3957-.3404v-.0003Zm1.2864-.6622a5.79265,5.79265,0,0,1-2.6841,1.0251h-.004l-.004-.0032c-.1649-.1366-.3237-.2823-.4785-.4371-.1536-.1556-.3044-.3214-.4509-.4991l-.0102-.0131.0161-.0042a3.10439,3.10439,0,0,0,1.0542-.5165,2.88306,2.88306,0,0,0,.7464-.8581l.0042-.007.008.0019a4.51269,4.51269,0,0,0,.9416.1588,3.21186,3.21186,0,0,0,.9607-.0893l.0122-.0031.0008.0119a3.65232,3.65232,0,0,1-.0039.6281,3.742,3.742,0,0,1-.1046.599l-.0009.0028Z"/>
      <path class="cls-9" d="M45.89523,199.4026a5.74369,5.74369,0,0,0-.406-1.609c-.1077-.047-.2182-.0901-.3328-.1284-.1105-.0374-.2259-.0694-.3435-.0966a3.24127,3.24127,0,0,1-.199.9385,4.51041,4.51041,0,0,1-.4272.8493,2.8998,2.8998,0,0,1,.599.9689,3.11716,3.11716,0,0,1,.1828,1.1503c.1508-.0621.2957-.1276.4363-.1968.1437-.0703.2823-.1448.4169-.2231a5.73878,5.73878,0,0,0,.0735-1.6531Zm-.3878-1.6209a5.73492,5.73492,0,0,1,.3345,3.2831l-.0009.0048-.0042.002c-.1367.0805-.2773.1559-.423.2274q-.2172.10665-.4521.2029l-.0153.006.0011-.0162a3.10581,3.10581,0,0,0-.182-1.1596,2.89626,2.89626,0,0,0-.5998-.9667l-.0051-.0059.004-.0071a4.51889,4.51889,0,0,0,.4292-.8532,3.1838,3.1838,0,0,0,.1978-.9445l.0012-.0122.0119.0031a3.50928,3.50928,0,0,1,.3588.0995,3.25965,3.25965,0,0,1,.3376.1315l.004.0012Z"/>
      <path class="cls-9" d="M42.60413,194.777a5.67683,5.67683,0,0,0-.8319-.3115,5.81363,5.81363,0,0,0-.6633-.1497,5.68627,5.68627,0,0,0-.6713-.0703,3.5361,3.5361,0,0,0-.2914.2883,3.59527,3.59527,0,0,0-.2574.3246,3.11688,3.11688,0,0,1,.7648.5227,4.38037,4.38037,0,0,1,.6029.6933,2.812,2.812,0,0,1,1.0854-.178,2.997,2.997,0,0,1,1.0962.2594c0-.1627-.006-.3215-.0159-.4774-.0113-.1598-.0283-.3155-.0493-.4702a5.63339,5.63339,0,0,0-.7688-.4312Zm-.826-.3316a5.80242,5.80242,0,0,1,1.6098.7477l.004.0029.0011.0051c.0221.1556.0391.3146.0502.4753.011.1619.0161.3266.0161.4955v.0159l-.0153-.0059a2.97577,2.97577,0,0,0-1.1032-.2642,2.78614,2.78614,0,0,0-1.0843.1797l-.0082.0031-.0048-.0071a4.41874,4.41874,0,0,0-.6041-.6973,3.12983,3.12983,0,0,0-.7718-.5247l-.0108-.0048.0068-.0102a3.57557,3.57557,0,0,1,.563-.6302l.0028-.0028.0051.0009a5.77617,5.77617,0,0,1,.6772.0703,5.66249,5.66249,0,0,1,.6664.1508Z"/>
      <path class="cls-9" d="M35.70633,196.3809a5.69522,5.69522,0,0,0-.8099,1.3515c.0814.167.1718.3328.2693.4964.0964.1618.201.3217.3147.4824a3.12379,3.12379,0,0,1,.7687-.8773,2.91775,2.91775,0,0,1,1.0219-.5003,4.51,4.51,0,0,1,.0916-.9468,3.215,3.215,0,0,1,.3314-.8991,3.69647,3.69647,0,0,0-.8371-.188,5.71707,5.71707,0,0,0-1.1506,1.0812Zm-.832,1.3475a5.73954,5.73954,0,0,1,1.9738-2.448l.0028-.0028.004.0009a3.49309,3.49309,0,0,1,.4283.0694,3.77342,3.77342,0,0,1,.43.1236l.0119.004-.0068.011a3.1929,3.1929,0,0,0-.3347.9054,4.53047,4.53047,0,0,0-.0916.9496v.0082l-.0079.0029a2.88385,2.88385,0,0,0-1.0219.4986,3.10841,3.10841,0,0,0-.7719.8841l-.0079.0142-.0102-.0131c-.1174-.1649-.2251-.3296-.3246-.4963q-.14925-.2487-.2721-.5034l-.0023-.0043Z"/>
      <path class="cls-9" d="M35.68843,203.5638a5.81313,5.81313,0,0,0,1.0078.9879c.2092-.028.4181-.0663.6281-.1145.2069-.0482.415-.1066.627-.1769a3.12391,3.12391,0,0,1-.61-.9927,2.9193,2.9193,0,0,1-.1769-1.1236,4.64309,4.64309,0,0,1-.8773-.3668,3.23391,3.23391,0,0,1-.7616-.5828,3.68553,3.68553,0,0,0-.5758,1.1616,5.80009,5.80009,0,0,0,.7387,1.2078Zm.9987,1.0069a5.77933,5.77933,0,0,1-1.7586-2.2096l-.0009-.0031.0009-.004a3.70036,3.70036,0,0,1,.587-1.1829l.008-.0099.0079.0091a3.25144,3.25144,0,0,0,.7659.5879,4.59919,4.59919,0,0,0,.8813.3676l.008.002v.0082a2.87909,2.87909,0,0,0,.1749,1.1245,3.10726,3.10726,0,0,0,.6171.9978l.011.0122-.015.006c-.2183.0711-.4323.1315-.6452.1808-.212.0493-.4232.0873-.6352.1157l-.004.0008Z"/>
      <path class="cls-9" d="M41.07973,201.344c.0935.3175.2381.7266.3826,1.1367.146.415.2926.8289.385,1.1444l-.1639.0484c-.0932-.3177-.2381-.7265-.3826-1.1366-.1457-.4139-.2926-.8292-.385-1.1447l.1639-.0482Zm1.042-1.9494c.2092-.015.792-.0564,1.3708-.0966.4952-.0352.9899-.0703,1.3725-.0964l.0111.1698c-.2089.0142-.7897.0553-1.3717.0967-.4963.0351-.9898.0703-1.3717.0963l-.011-.1698Zm-1.26-1.7937.3294-1.7847.1678.0312-.3294,1.7847-.1678-.0312Zm-2.0713.9737c-.246-.1559-.6009-.4161-.9556-.6764-.3557-.2602-.7106-.5196-.9467-.6692l.0915-.1437c.2452.1547.601.415.9556.6752.3549.2605.7095.5207.9468.6692l-.0916.1449Zm-1.3516-3.045c.1046-.0553.199-.1074.2883-.1548a3.59989,3.59989,0,0,1,2.5968-.5887l-.009.1698a3.47617,3.47617,0,0,0-2.5061.5689q-.13575.0723-.2895.1556l-.0805-.1508Zm7.3931,2.2059a3.99374,3.99374,0,0,0-.635-.9808,2.67142,2.67142,0,0,0-.9468-.6743l.0664-.1576a2.84,2.84,0,0,1,1.0068.7174,4.15652,4.15652,0,0,1,.6625,1.0219l-.1539.0734Zm-1.431,5.8153a6.37245,6.37245,0,0,0,.9247-1.0077,5.34726,5.34726,0,0,0,.6319-1.1991l.159.0624a5.48518,5.48518,0,0,1-.6523,1.235,6.46949,6.46949,0,0,1-.9487,1.0361l-.1146-.1267Zm-7.9778-2.0441a4.85349,4.85349,0,0,1-.2795-1.6387,4.77024,4.77024,0,0,1,.3096-1.5959l.1607.0593a4.56328,4.56328,0,0,0-.2993,1.5375,4.68362,4.68362,0,0,0,.2701,1.5837l-.1616.0541Zm2.4789,2.6601a3.859,3.859,0,0,0,1.8119.4994c.0947.0083.197.017.3439.0312l-.0162.1698c-.1077-.0099-.2313-.021-.3427-.0312a3.98066,3.98066,0,0,1-1.8711-.5153l.0742-.1539Zm-.8138-2.073,1.5908-1.3073.1083.1326-1.5905,1.3062Z"/>
      <rect class="cls-3" x="29.16053" y="197.3115" width="22.0386" height="3.8046"/>
      <polygon class="cls-6" points="40.18 184.817 40.406 185.351 40.984 185.401 40.547 185.782 40.677 186.347 40.18 186.048 39.683 186.347 39.813 185.782 39.376 185.401 39.953 185.351 40.18 184.817"/>
      <polygon class="cls-6" points="47.783 190.532 48.079 191.228 48.832 191.294 48.262 191.79 48.431 192.526 47.783 192.137 47.135 192.526 47.305 191.79 46.735 191.294 47.487 191.228 47.783 190.532"/>
      <polygon class="cls-6" points="44.375 187.62 44.64 188.244 45.314 188.303 44.804 188.749 44.956 189.409 44.375 189.06 43.794 189.409 43.946 188.749 43.435 188.303 44.109 188.244 44.375 187.62"/>
      <polygon class="cls-6" points="32.577 190.532 32.281 191.228 31.528 191.294 32.099 191.79 31.929 192.526 32.577 192.137 33.224 192.526 33.055 191.79 33.625 191.294 32.873 191.228 32.577 190.532"/>
      <polygon class="cls-6" points="35.985 187.62 35.721 188.244 35.045 188.303 35.556 188.749 35.404 189.409 35.985 189.06 36.567 189.409 36.414 188.749 36.925 188.303 36.25 188.244 35.985 187.62"/>
    </g>
    <g>
      <circle class="cls-5" cx="40.17996" cy="150.71983" r="16.10138" transform="translate(-33.55338 13.26332) rotate(-13.28249)"/>
      <circle class="cls-5" cx="80.04616" cy="150.71983" r="16.10138" transform="translate(-32.48692 22.42268) rotate(-13.28249)"/>
      <circle class="cls-5" cx="119.91198" cy="150.71983" r="16.10132" transform="translate(-50.76448 239.96608) rotate(-79.09935)"/>
      <circle class="cls-5" cx="159.95481" cy="150.71983" r="16.10131" transform="translate(-59.72533 157.24994) rotate(-45)"/>
      <circle class="cls-5" cx="199.82096" cy="150.71983" r="16.10138" transform="translate(-29.28284 49.94121) rotate(-13.28249)"/>
    </g>
    <circle class="cls-3" cx="159.95483" cy="150.7198" r="10.6855"/>
    <path class="cls-4" d="M155.33973,146.7802l.0006-.0153.0002-.0025.0009-.0142.0003-.0034.0014-.0176.002-.0173.0022-.0173.0029-.0173.0034-.017.0037-.0167.0019-.0085.002-.0082.0023-.0082.0023-.0083.0022-.0079.0026-.0085.0023-.0074.0031-.0088.0025-.007.0031-.0091.0026-.0068.0034-.0088.0028-.0071.0037-.0088.0026-.0065.0039-.0088.0032-.0068.0039-.0085.0156-.03.0037-.0068.0042-.0077.0009-.0014.0008-.0014.0006-.0012.0009-.0014.0008-.0014.0009-.0011.0005-.0015.0009-.0014.0008-.0011.0009-.0014.0006-.0012.0002-.0002.0009-.0015.0008-.0011.0006-.0014.0017-.0026.0009-.0014.0008-.0011.0009-.0014.0008-.0014.0009-.0012.0005-.0008.0003-.0006.0009-.0014.0008-.0011.0009-.0015.0008-.0014.0009-.0011.0008-.0014.0009-.0012.0008-.0014.0009-.0011.0008-.0014.0003-.0003.0006-.0009.0011-.0014.0006-.0014.0008-.0011.0011-.0015.0009-.0011.0008-.0014.0009-.0011.0011-.0015.0006-.0014.0011-.0011h0l.0009-.0014.0011-.0012.0009-.0014.0037-.0051.0008-.0011.002-.0026.0003-.0005.0014-.002.0011-.0011.0029-.004.0011-.0012.0017-.0025.0008-.0011.0012-.0015.0076-.0096.0029-.0031.0107-.0128.0094-.0107.0017-.0017.017-.0182.0057-.0062.0062-.0057.0181-.017.0017-.0017.0108-.0093.0128-.0108.0031-.0029.0096-.0076.0014-.0011.0012-.0009.0025-.0017.0012-.0011.0039-.0029.0012-.0011.002-.0014.0005-.0003.0088-.0065.0011-.0011.0015-.0009.0011-.0008h.0003l.0011-.0012.0014-.0006.0012-.0011.0014-.0008.0011-.0009.0014-.0008.0012-.0009.0014-.0011.0014-.0006.0011-.0011.0012-.0006.0002-.0003.0012-.0008.0014-.0009.0014-.0008.0011-.0009.012-.0076.0011-.0009.0014-.0008.0014-.0009.0051-.0031.0014-.0008.0003-.0003.0009-.0006.0028-.0017.0014-.0008.0026-.0015.0014-.0008.0014-.0009.0011-.0005.0015-.0009.0014-.0008.0076-.0043.0068-.0037.0301-.0156.0085-.0039.0068-.0031.0088-.004.0065-.0026.0088-.0037.0071-.0028.0088-.0034.0068-.0025.009-.0032.0071-.0025.0088-.0031.0074-.0023.0085-.0025.0079-.0023.0082-.0023.0083-.0022.0082-.002.0085-.002.0167-.0037.017-.0034.0173-.0028.0173-.0023.0173-.002.0176-.0014.0034-.0003.0141-.0008.0026-.0003.0153-.0006.0179-.0003h6.1013a.6932.6932,0,1,1,0,1.3864h-4.4278l6.6609,6.6609a.69332.69332,0,0,1-.9805.9805l-6.6609-6.6608v4.4277a.6932.6932,0,1,1-1.3864,0v-6.1013Z"/>
    <path class="cls-6" d="M111.62123,147.8701a1.39453,1.39453,0,0,0-.2273-.9311.79531.79531,0,0,0-.6086-.2418.82331.82331,0,0,0-.6086.227,1.09128,1.09128,0,0,0-.2273.7847v1.0998h-1.5251v-.9972a2.74314,2.74314,0,0,1,.6086-1.9137,2.75137,2.75137,0,0,1,3.5926,0,2.74266,2.74266,0,0,1,.6086,1.9137,4.223,4.223,0,0,1-.2565,1.5103,5.86447,5.86447,0,0,1-.6381,1.2319,8.11525,8.11525,0,0,1-.8212,1.0191q-.43965.4617-.7917.8798a4.24521,4.24521,0,0,0-.5573.8286,1.39143,1.39143,0,0,0-.1318.8651h3.0501v1.4664h-4.6633v-1.2611a3.45687,3.45687,0,0,1,.2347-1.3199,4.68835,4.68835,0,0,1,.5939-1.0482,9.00088,9.00088,0,0,1,.7699-.8946,9.531,9.531,0,0,0,.7699-.8873,4.63772,4.63772,0,0,0,.5938-1.0264A3.34252,3.34252,0,0,0,111.62123,147.8701Z"/>
    <path class="cls-6" d="M115.71223,153.2517a1.09008,1.09008,0,0,0,.2273.7846.92811.92811,0,0,0,1.2172,0,1.091,1.091,0,0,0,.2271-.7846v-5.5428a1.09131,1.09131,0,0,0-.2271-.7847.92935.92935,0,0,0-1.2172,0,1.09036,1.09036,0,0,0-.2273.7847v5.5428Zm-1.6129-5.4402a2.6809,2.6809,0,0,1,.6304-1.9137,2.811,2.811,0,0,1,3.6366,0,2.68144,2.68144,0,0,1,.6307,1.9137v5.3376a2.68111,2.68111,0,0,1-.6307,1.9137,2.81128,2.81128,0,0,1-3.6366,0,2.68057,2.68057,0,0,1-.6304-1.9137Z"/>
    <polygon class="cls-6" points="122.15 151.521 121.651 152.46 121.651 155.613 120.038 155.613 120.038 145.348 121.651 145.348 121.651 149.82 123.792 145.348 125.376 145.348 123.132 149.923 125.376 155.613 123.719 155.613 122.15 151.521"/>
    <path class="cls-6" d="M128.75613,147.5158l.0074-.0068.0011-.0011.0068-.006.0017-.0014.0088-.0074.0088-.0071.0091-.0068.009-.0065.0094-.0062.0093-.006.0049-.0031.0048-.0028.0045-.0026.0051-.0028.0045-.0026.0051-.0028.0043-.0023.0054-.0025.0045-.0023.0054-.0025.0043-.002.0059-.0026.0043-.0017.0056-.0025.0043-.0017.0059-.0023.0046-.0017.0056-.002.0207-.0065.0049-.0017.0056-.0014.0009-.0003.0008-.0003.0012-.0003.0008-.0002h.0011l.0009-.0003.0008-.0003.0012-.0003.0008-.0003.0012-.0003h.0008v-.0002h.0011l.0009-.0003.0008-.0003.002-.0006h.0012l.0008-.0003.0011-.0002.0009-.0003h.0011l.0006-.0003h.0003l.0011-.0003.0009-.0003h.0008l.0011-.0003.0012-.0002.0008-.0003h.0012l.0008-.0003.0009-.0003.0011-.0003h.0009l.0011-.0003.0011-.0002h.0009l.0011-.0003h.0009l.0011-.0003.0008-.0003h.0012l.0008-.0003h.0012l.0008-.0003.0011-.0002h.0009l.0042-.0009h.0009l.002-.0003h.0005l.0017-.0003.0009-.0002.0031-.0003h.0009l.0022-.0006h.002l.0077-.0011h.0028l.0108-.0009.0093-.0008h.0014l.0162-.0003.0054-.0003.0054.0003.0161.0003h.0015l.0093.0008.0108.0009h.0028l.0077.0011h.002l.0022.0006h.0009l.0031.0003.0008.0002.0017.0003h.0006l.0071.0012h.0008l.0012.0002h.0008v.0003h.0012l.0008.0003h.0011l.0009.0003.0011.0003h.0009l.0011.0003h.0009l.0011.0002.0008.0003h.0012l.0008.0003.0012.0003.0008.0003h.0011l.0088.002.0009.0002.0011.0003h.0012l.0036.0012h.0012v.0002h.0008l.002.0006.0011.0003.0017.0006h.0012l.0008.0002.0012.0003.0008.0003.0009.0003.0056.0014.0049.0017.0206.0065.0057.002.0045.0017.006.0023.0043.0017.0056.0025.0043.0017.0059.0026.0043.002.0054.0025.0045.0023.0054.0025.0042.0023.0051.0028.0046.0026.0051.0028.0045.0026.0048.0028.0049.0031.0093.006.0094.0062.009.0065.0091.0068.0088.0071.0088.0074.0017.0014.0068.006.0011.0011.0074.0068.0082.0079,2.7887,2.7888a.44816.44816,0,0,1-.6338.6338l-2.0237-2.0237v6.0886a.44815.44815,0,0,1-.8963,0v-6.0886l-2.0236,2.0237a.44816.44816,0,1,1-.6338-.6338l2.7887-2.7888Z"/>
    <path class="cls-6" d="M66.84233,146.8468a2.42713,2.42713,0,0,0,.7699-.1026,1.37138,1.37138,0,0,0,.4913-.2786,1.417,1.417,0,0,0,.3078-.4108,3.78591,3.78591,0,0,0,.2052-.4986h1.0851V155.821h-1.6129v-7.8304h-1.2464Z"/>
    <path class="cls-6" d="M76.49093,153.3574a2.64171,2.64171,0,0,1-.6452,1.9137,2.97335,2.97335,0,0,1-3.7539,0,2.643,2.643,0,0,1-.6452-1.9137v-.8064a3.28816,3.28816,0,0,1,.2348-1.2977,1.70585,1.70585,0,0,1,.7625-.8433,2.13793,2.13793,0,0,1-.9973-2.0676v-.3226a2.64381,2.64381,0,0,1,.6452-1.9137,2.97369,2.97369,0,0,1,3.7539,0,2.64251,2.64251,0,0,1,.6452,1.9137v.3226a2.15713,2.15713,0,0,1-.9969,2.0676,1.70954,1.70954,0,0,1,.7625.8433,3.29013,3.29013,0,0,1,.2344,1.2977v.8064Zm-3.4313-.0439a1.225,1.225,0,0,0,.2642.9238.93525.93525,0,0,0,.6451.2347.90926.90926,0,0,0,.6378-.2347,1.28652,1.28652,0,0,0,.2713-.9238v-.9533a1.31669,1.31669,0,0,0-.2421-.8869.95594.95594,0,0,0-1.3343,0,1.31889,1.31889,0,0,0-.242.8869v.9533Zm0-4.663a1.12561,1.12561,0,0,0,.2568.8504,1.01423,1.01423,0,0,0,1.2977,0,1.10589,1.10589,0,0,0,.2639-.8504v-.572a1.25335,1.25335,0,0,0-.2639-.9312.98157.98157,0,0,0-1.2903,0,1.25283,1.25283,0,0,0-.2642.9312Z"/>
    <path class="cls-6" d="M77.07743,152.4923l2.9327-6.9361h1.7598v6.9361h.7625v1.4664h-.7625v1.8623h-1.613v-1.8623h-3.0795v-1.4664Zm3.0795,0v-3.7978l-1.5984,3.7978Z"/>
    <path class="cls-6" d="M83.16283,148.1077a2.91721,2.91721,0,0,1,.6012-1.9868,2.35663,2.35663,0,0,1,1.8624-.682,2.31017,2.31017,0,0,1,1.7963.6672,2.74283,2.74283,0,0,1,.6086,1.9137v.2639h-1.525v-.3665a1.0896,1.0896,0,0,0-.2274-.7846.82282.82282,0,0,0-.6086-.2271.837.837,0,0,0-.6599.2639,1.54666,1.54666,0,0,0-.2344.997v1.8771a1.5159,1.5159,0,0,1,1.4956-.9091,1.56433,1.56433,0,0,1,1.3416.6012,2.89161,2.89161,0,0,1,.4473,1.745v1.8768a2.68024,2.68024,0,0,1-.6304,1.9137,2.811,2.811,0,0,1-3.6366,0,2.68033,2.68033,0,0,1-.6307-1.9137v-5.2497Zm2.4489,2.4931a.82223.82223,0,0,0-.6086.2273,1.09036,1.09036,0,0,0-.2271.7843v1.8477a1.06233,1.06233,0,0,0,.2271.7772.9518.9518,0,0,0,1.2172,0,1.06141,1.06141,0,0,0,.2273-.7772v-1.8477a1.0894,1.0894,0,0,0-.2273-.7843A.82207.82207,0,0,0,85.61173,150.6008Z"/>
    <path class="cls-6" d="M91.45873,147.6017l.0074-.0068.0011-.0011.0068-.006.0017-.0014.0088-.0074.0088-.0071.009-.0068.0091-.0065.0094-.0062.0093-.006.0048-.0031.0049-.0028.0045-.0026.0051-.0028.0045-.0026.0051-.0028.0043-.0023.0054-.0025.0045-.0023.0054-.0025.0042-.002.006-.0026.0042-.0017.0057-.0025.0043-.0017.0059-.0023.0046-.0017.0056-.002.0207-.0065.0048-.0017.0057-.0014.0009-.0003.0008-.0003.0011-.0003.0009-.0002h.0011l.0009-.0003.0008-.0003.0012-.0003.0008-.0003.0011-.0003h.0009v-.0003h.0011l.0009-.0002.0008-.0003.002-.0006h.0011l.0009-.0003.0011-.0003.0009-.0002h.0011l.0006-.0003h.0003l.0011-.0003.0008-.0003h.0009l.0011-.0003.0012-.0003.0008-.0002h.0011l.0009-.0003.0009-.0003.0011-.0003h.0008l.0012-.0003.0011-.0003h.0009l.0011-.0002h.0008l.0012-.0003.0008-.0003h.0012l.0008-.0003h.0011l.0009-.0003.0011-.0003h.0009l.0042-.0008h.0009l.002-.0003h.0005l.0017-.0003.0009-.0003.0031-.0002h.0008l.0023-.0006h.002l.0077-.0011h.0028l.0108-.0009.0093-.0008h.0014l.0162-.0003.0054-.0003.0054.0003.0161.0003h.0014l.0094.0008.0108.0009h.0028l.0076.0011h.002l.0023.0006h.0009l.0031.0002.0008.0003.0017.0003h.0006l.0071.0011h.0008l.0012.0003h.0008v.0003h.0011l.0009.0003h.0011l.0009.0003.0011.0003h.0009l.0011.0002h.0008l.0012.0003.0008.0003h.0012l.0008.0003.0011.0003.0009.0003h.0011l.0088.0019.0009.0003.0011.0003h.0011l.0037.0011h.0012v.0003h.0008l.002.0006.0011.0003.0017.0006h.0012l.0008.0002.0011.0003.0009.0003.0008.0003.0057.0014.0048.0017.0207.0065.0057.002.0045.0017.006.0023.0042.0017.0057.0025.0043.0017.0059.0026.0043.002.0053.0025.0046.0023.0054.0025.0042.0023.0051.0028.0046.0026.0051.0028.0045.0026.0048.0028.0048.0031.0094.006.0093.0062.0091.0065.0091.0068.0088.0071.0088.0074.0017.0014.0068.006.0011.0011.0074.0068.0082.0079,2.7887,2.7888a.44816.44816,0,1,1-.6338.6338l-2.0237-2.0237v6.0886a.44815.44815,0,0,1-.8963,0v-6.0886l-2.0236,2.0237a.4482.4482,0,1,1-.6339-.6338l2.7888-2.7888Z"/>
    <path class="cls-6" d="M194.95273,148.11a1.39371,1.39371,0,0,0-.2273-.9312.79464.79464,0,0,0-.6083-.2418.82269.82269,0,0,0-.6086.227,1.08988,1.08988,0,0,0-.2274.7847v.6599h-1.525v-.5573a2.7417,2.7417,0,0,1,.6086-1.9137,2.75137,2.75137,0,0,1,3.5926,0,2.74266,2.74266,0,0,1,.6086,1.9137v.2639a2.02834,2.02834,0,0,1-1.1293,2.1118,1.62014,1.62014,0,0,1,.8725.8138,3.15635,3.15635,0,0,1,.2568,1.3417v.8064a2.74232,2.74232,0,0,1-.6086,1.9137,2.75137,2.75137,0,0,1-3.5926,0,2.74136,2.74136,0,0,1-.6086-1.9137v-.8504h1.525v.953a1.09,1.09,0,0,0,.2274.7847.82287.82287,0,0,0,.6086.2273.80743.80743,0,0,0,.6083-.2347,1.36158,1.36158,0,0,0,.2273-.9238v-.8065a1.58041,1.58041,0,0,0-.2491-1.0119,1.00431,1.00431,0,0,0-.8065-.2932h-.5425v-1.4663h.6304a1.01472,1.01472,0,0,0,.7112-.2347,1.127,1.127,0,0,0,.2565-.8504Z"/>
    <path class="cls-6" d="M202.38723,153.301a2.9167,2.9167,0,0,1-.6013,1.9868,2.35626,2.35626,0,0,1-1.8621.6821,2.31105,2.31105,0,0,1-1.7966-.6673,2.74272,2.74272,0,0,1-.6083-1.9137v-.2639h1.5251v.3665a1.09052,1.09052,0,0,0,.2273.7847.82279.82279,0,0,0,.6083.2273.83768.83768,0,0,0,.6599-.2639,1.54682,1.54682,0,0,0,.2347-.9972v-1.8771a1.51569,1.51569,0,0,1-1.4958.9093,1.56506,1.56506,0,0,1-1.3416-.6012,2.89161,2.89161,0,0,1-.4473-1.745v-1.8771a2.681,2.681,0,0,1,.6307-1.9137,2.81082,2.81082,0,0,1,3.6365,0,2.68093,2.68093,0,0,1,.6305,1.9137v5.2497Zm-2.4489-2.4927a.82269.82269,0,0,0,.6086-.2274,1.08962,1.08962,0,0,0,.2273-.7846v-1.8476a1.06156,1.06156,0,0,0-.2273-.7773.9518.9518,0,0,0-1.2172,0,1.06293,1.06293,0,0,0-.2271.7773v1.8476a1.091,1.091,0,0,0,.2271.7846A.82363.82363,0,0,0,199.93833,150.8083Z"/>
    <path class="cls-6" d="M204.45473,146.8783a2.42713,2.42713,0,0,0,.7699-.1026,1.37,1.37,0,0,0,.4913-.2787,1.41527,1.41527,0,0,0,.3078-.4107,3.78353,3.78353,0,0,0,.2052-.4986h1.0852v10.2648h-1.613v-7.8304h-1.2464Z"/>
    <g>
      <path class="cls-6" d="M40.34073,140.1602a7.0788,7.0788,0,0,1,5.6854,3.2527,13.57063,13.57063,0,0,1,0,14.8122,7.08094,7.08094,0,0,1-5.6854,3.2528,7.08126,7.08126,0,0,1-5.6855-3.2528,13.57063,13.57063,0,0,1,0-14.8122,7.07912,7.07912,0,0,1,5.6855-3.2527Z"/>
      <path class="cls-8" d="M40.34073,141.1903c3.7851,0,6.8544,4.3104,6.8544,9.6287,0,5.3173-3.0693,9.6287-6.8544,9.6287s-6.8545-4.3114-6.8545-9.6287c0-5.3183,3.0694-9.6287,6.8545-9.6287Z"/>
      <path class="cls-6" d="M35.00423,153.93a9.46189,9.46189,0,0,0,1.3991,3.0498,4.99112,4.99112,0,0,0,3.9374,2.3517,4.9914,4.9914,0,0,0,3.9373-2.3517,9.46,9.46,0,0,0,1.3992-3.0498Z"/>
      <path class="cls-6" d="M40.34073,144.5071a5.16915,5.16915,0,1,1-5.1693,5.1693,5.16938,5.16938,0,0,1,5.1693-5.1693Z"/>
      <path class="cls-8" d="M41.63953,145.1733a4.68615,4.68615,0,1,1-5.8008,3.204,4.68588,4.68588,0,0,1,5.8008-3.204Z"/>
      <path class="cls-6" d="M44.67143,147.8857a4.67032,4.67032,0,0,1,.2716,2.6686,5.73853,5.73853,0,0,1-.7106.35,2.38162,2.38162,0,0,0-.639-1.7379,3.03862,3.03862,0,0,0,.5122-1.4683,3.05359,3.05359,0,0,1,.5656.1876Z"/>
      <path class="cls-6" d="M41.63953,145.1733a4.68442,4.68442,0,0,1,1.309.6083,5.51669,5.51669,0,0,1,.0547.79,2.306,2.306,0,0,0-1.7895-.0692,2.92811,2.92811,0,0,0-1.1236-.9975,2.87421,2.87421,0,0,1,.4575-.5111,4.71231,4.71231,0,0,1,1.0919.1795Z"/>
      <path class="cls-6" d="M36.02833,147.8421a4.66183,4.66183,0,0,1,1.6039-1.9894,2.99193,2.99193,0,0,1,.6967.1571,3.02493,3.02493,0,0,0-.3486,1.5148,2.38041,2.38041,0,0,0-1.4664,1.1307,5.70461,5.70461,0,0,1-.4856-.8132Z"/>
      <path class="cls-6" d="M37.50153,153.4045a4.69983,4.69983,0,0,1-1.4298-1.7955,3.00027,3.00027,0,0,1,.4776-.9603,3.02827,3.02827,0,0,0,1.3445.7798,2.37866,2.37866,0,0,0,.648,1.7348,5.61514,5.61514,0,0,1-1.0403.2412Z"/>
      <polygon class="cls-6" points="41.006 147.627 41.641 148.443 42.276 149.259 41.697 150.115 41.116 150.972 40.123 150.685 39.13 150.398 39.095 149.365 39.061 148.332 40.033 147.98 41.006 147.627"/>
      <path class="cls-6" d="M44.38153,147.4447a4.616,4.616,0,1,0,.3943,3.5112,4.59654,4.59654,0,0,0-.3943-3.5112Zm-2.7227-2.3383a4.75564,4.75564,0,1,1-3.6167.4065,4.74416,4.74416,0,0,1,3.6167-.4065Z"/>
      <path class="cls-9" d="M44.99493,149.2027a4.68219,4.68219,0,0,0-.3308-1.3099,2.748,2.748,0,0,0-.2707-.1054c-.0902-.0295-.1834-.0559-.2798-.0783a2.59782,2.59782,0,0,1-.1622.7645,3.66743,3.66743,0,0,1-.3466.6917,2.39589,2.39589,0,0,1,.4867.7877,2.54861,2.54861,0,0,1,.1488.938c.1227-.0507.2415-.1034.3549-.1601.1176-.0579.2302-.1177.3407-.1815a4.68285,4.68285,0,0,0,.059-1.3467Zm-.3155-1.3201a4.72249,4.72249,0,0,1,.3328,1.3181,4.66714,4.66714,0,0,1-.0601,1.3558l-.0009.004-.0031.002c-.1125.0649-.2262.1258-.3447.1845-.1188.0579-.2412.1126-.3682.1653l-.0119.0051v-.0131a2.53474,2.53474,0,0,0-.1483-.945,2.35827,2.35827,0,0,0-.4875-.7869l-.0051-.0051.0039-.006a3.77735,3.77735,0,0,0,.349-.6936,2.60561,2.60561,0,0,0,.161-.7696l.0011-.0102.0102.002a2.98025,2.98025,0,0,1,.292.081,2.6591,2.6591,0,0,1,.2747.1077l.0031.0009Z"/>
      <path class="cls-9" d="M42.315,145.4357a4.6949,4.6949,0,0,0-.6775-.2534,5.06557,5.06557,0,0,0-.5406-.1227,4.76506,4.76506,0,0,0-.5465-.0567,2.72709,2.72709,0,0,0-.2372.2353,2.89173,2.89173,0,0,0-.2098.2636,2.54127,2.54127,0,0,1,.6236.4258,3.62724,3.62724,0,0,1,.4907.5649,2.28424,2.28424,0,0,1,.8833-.1451,2.43458,2.43458,0,0,1,.8932.2109c0-.1327-.0051-.2617-.0133-.3884-.0091-.1298-.0222-.2574-.0403-.3832a4.55921,4.55921,0,0,0-.6256-.351Zm-.6735-.2707a4.68666,4.68666,0,0,1,1.3121.6095l.0032.002.0008.0042c.0173.1276.0315.2566.0405.3872.0094.1318.0134.2656.0134.4037v.013l-.0122-.0051a2.43309,2.43309,0,0,0-.8983-.2148,2.29442,2.29442,0,0,0-.8841.1459l-.0063.0032-.004-.0063a3.65032,3.65032,0,0,0-.4918-.5678,2.51537,2.51537,0,0,0-.6287-.4268l-.0091-.004.006-.0091a3.083,3.083,0,0,1,.2171-.2738,2.94614,2.94614,0,0,1,.2413-.2384l.0031-.0028.0031.0008a4.91738,4.91738,0,0,1,.5516.0567,4.97594,4.97594,0,0,1,.5423.1227Z"/>
      <path class="cls-9" d="M36.69733,146.742a4.631,4.631,0,0,0-.6599,1.1001c.0669.1369.1397.2707.22.4045.0782.1318.1632.2616.2565.3923a2.53645,2.53645,0,0,1,.6256-.7138,2.37331,2.37331,0,0,1,.8325-.4076,3.68514,3.68514,0,0,1,.074-.7704,2.6683,2.6683,0,0,1,.2696-.7334,3.06324,3.06324,0,0,0-.3376-.0963,2.8835,2.8835,0,0,0-.3436-.0556,4.631,4.631,0,0,0-.9371.8802Zm-.6772,1.097a4.65622,4.65622,0,0,1,1.6072-1.9936l.002-.002h.004a3.03437,3.03437,0,0,1,.3489.0569,3.228,3.228,0,0,1,.3498.1012l.0091.0032-.0051.009a2.61923,2.61923,0,0,0-.2727.7373,3.704,3.704,0,0,0-.074.7736v.0062l-.0071.002a2.37006,2.37006,0,0,0-.8325.4065,2.52548,2.52548,0,0,0-.6276.72l-.0071.0122-.0082-.0111c-.0952-.1349-.1834-.2687-.2647-.4047q-.12-.2025-.222-.4097l-.0011-.0031Z"/>
      <path class="cls-9" d="M36.68313,152.5915a4.67592,4.67592,0,0,0,.8204.8039q.25545-.03315.5122-.0932c.1681-.0386.3376-.0862.5099-.1429a2.54688,2.54688,0,0,1-.4969-.8093,2.36234,2.36234,0,0,1-.144-.9156,3.64459,3.64459,0,0,1-.7137-.2979,2.62515,2.62515,0,0,1-.6205-.4745,2.98128,2.98128,0,0,0-.4695.9459,4.75279,4.75279,0,0,0,.6021.9836Zm.8124.8201a4.693,4.693,0,0,1-1.4309-1.7997l-.002-.0029.0012-.0031a3.00165,3.00165,0,0,1,.4784-.9623l.0063-.008.0071.0071a2.638,2.638,0,0,0,.6233.4785,3.67993,3.67993,0,0,0,.7169.2991l.0074.0019v.0063a2.34081,2.34081,0,0,0,.1417.9156,2.54454,2.54454,0,0,0,.5031.8132l.0091.0099-.0133.0043c-.1775.0587-.3518.1074-.5241.148q-.26025.0594-.5171.0944h-.0042Z"/>
      <path class="cls-6" d="M41.07373,150.7836c.0751.2585.1936.5921.3112.9258.1188.3376.2384.6752.3136.9329l-.1341.0382c-.0749-.2585-.1925-.5918-.3113-.9255-.1185-.3379-.2381-.6755-.3132-.932l.1338-.0394Zm.8478-1.588c.1704-.011.6449-.0456,1.1175-.0779.4025-.0287.8059-.0579,1.1171-.0791l.0094.1389c-.1704.0122-.6441.0445-1.1166.0779-.4045.0295-.8062.0579-1.1174.0791l-.01-.1389Zm-1.0252-1.4601.2678-1.4539.1367.0252-.2688,1.4531-.1357-.0244Zm-1.6872.7928c-.1999-.1267-.4899-.3384-.7787-.5504-.2891-.2121-.578-.4238-.7707-.5454l.0739-.1177c.2007.1267.4899.3385.779.5505.2889.2118.5777.4238.7705.5457l-.074.1173Zm-1.1013-2.48c.0853-.0448.1633-.0873.2353-.1258a2.93446,2.93446,0,0,1,2.1152-.4797l-.0082.1389a2.83108,2.83108,0,0,0-2.0412.4626l-.235.1268-.0661-.1228Zm6.0211,1.7966a3.25858,3.25858,0,0,0-.5171-.7988,2.18585,2.18585,0,0,0-.7707-.5496l.0539-.1279a2.30493,2.30493,0,0,1,.82.5843,3.3933,3.3933,0,0,1,.5395.8322l-.1256.0598Zm-1.1651,4.7353a5.14553,5.14553,0,0,0,.7524-.8201,4.38,4.38,0,0,0,.5162-.9765l.1286.0507a4.47069,4.47069,0,0,1-.5312,1.0058,5.29176,5.29176,0,0,1-.7727.8436l-.0933-.1035Zm-6.4975-1.6639a3.97475,3.97475,0,0,1-.2271-1.3354,3.86506,3.86506,0,0,1,.2523-1.2989l.1298.0488a3.71682,3.71682,0,0,0-.2432,1.2523,3.83184,3.83184,0,0,0,.22,1.2886l-.1318.0446Zm2.0188,2.1659a3.14884,3.14884,0,0,0,1.4763.4068c.076.0071.1601.0141.2798.0252l-.0131.1389c-.0873-.0082-.1876-.0173-.2789-.0255a3.24493,3.24493,0,0,1-1.5239-.4195l.0598-.1259Zm-.6622-1.6883,1.2949-1.0636.0882.1075-1.2949,1.0635Z"/>
      <polygon class="cls-6" points="52.143 153.266 47.336 153.266 47.336 157.165 52.143 157.165 50.949 155.216 52.143 153.266"/>
      <polygon class="cls-6" points="28.538 153.266 33.345 153.266 33.345 157.165 28.538 157.165 29.733 155.216 28.538 153.266"/>
      <rect class="cls-3" x="30.97563" y="151.8707" width="18.7302" height="4.3336"/>
      <polygon class="cls-6" points="40.341 142.049 40.647 142.77 41.427 142.838 40.836 143.352 41.012 144.114 40.341 143.712 39.669 144.114 39.845 143.352 39.255 142.838 40.035 142.77 40.341 142.049"/>
      <polygon class="cls-6" points="37.302 143.204 37.479 143.622 37.932 143.661 37.59 143.96 37.691 144.402 37.302 144.168 36.912 144.402 37.015 143.96 36.672 143.661 37.124 143.622 37.302 143.204"/>
      <polygon class="cls-6" points="43.379 143.204 43.557 143.622 44.009 143.661 43.667 143.96 43.769 144.402 43.379 144.168 42.99 144.402 43.092 143.96 42.75 143.661 43.202 143.622 43.379 143.204"/>
    </g>
  </g>
</svg>
