<svg xmlns="http://www.w3.org/2000/svg" xmlns:xlink="http://www.w3.org/1999/xlink" viewBox="0 0 240.0001 240.00009">
  <defs>
    <style>
      .cls-1, .cls-2, .cls-24, .cls-6 {
        fill: none;
      }

      .cls-2 {
        clip-rule: evenodd;
      }

      .cls-3 {
        fill: #effefc;
      }

      .cls-4 {
        clip-path: url(#clip-path);
      }

      .cls-5 {
        fill: #c7fff6;
      }

      .cls-24, .cls-6 {
        stroke: #00b4ab;
        stroke-miterlimit: 22.9256;
        stroke-width: 0.9598px;
      }

      .cls-7 {
        fill: #f8fafc;
      }

      .cls-10, .cls-11, .cls-12, .cls-13, .cls-14, .cls-15, .cls-16, .cls-17, .cls-18, .cls-19, .cls-20, .cls-21, .cls-22, .cls-23, .cls-24, .cls-25, .cls-26, .cls-28, .cls-29, .cls-30, .cls-31, .cls-7, .cls-9 {
        fill-rule: evenodd;
      }

      .cls-8 {
        clip-path: url(#clip-path-2);
      }

      .cls-9 {
        fill: #e0e0e1;
      }

      .cls-10 {
        fill: #fff;
      }

      .cls-11 {
        fill: #f8bea1;
      }

      .cls-12 {
        fill: #fbd4bc;
      }

      .cls-13 {
        fill: #3c3b3b;
      }

      .cls-14 {
        fill: #78c3a6;
      }

      .cls-15 {
        fill: #78c2a4;
      }

      .cls-16 {
        fill: #fefefe;
      }

      .cls-17 {
        fill: #74c1a3;
      }

      .cls-18 {
        fill: #74c1a2;
      }

      .cls-19 {
        fill: #72c0a0;
      }

      .cls-20 {
        fill: #facdb5;
      }

      .cls-21 {
        fill: #fcdcc8;
      }

      .cls-22 {
        fill: #71c0a2;
      }

      .cls-23 {
        fill: #605f60;
      }

      .cls-25, .cls-27 {
        fill: #284069;
      }

      .cls-26 {
        fill: #df1f36;
      }

      .cls-28 {
        fill: #475569;
      }

      .cls-29 {
        fill: #21468b;
      }

      .cls-30 {
        fill: #ae1c28;
      }

      .cls-31 {
        fill: #4d7c0f;
      }

      .cls-32 {
        fill: #83a457;
      }
    </style>
    <clipPath id="clip-path">
      <path class="cls-1" d="M26.48526,33.9545h82.4646a6.0466,6.0466,0,0,1,6.0466,6.0466V199.9998a6.0461,6.0461,0,0,1-6.0461,6.0461h-82.464a6.0471,6.0471,0,0,1-6.0471-6.0471V40.0005a6.046,6.046,0,0,1,6.046-6.046Z"/>
    </clipPath>
    <clipPath id="clip-path-2">
      <path class="cls-2" d="M26.48666,33.9545h82.4627a6.06458,6.06458,0,0,1,6.0471,6.0469V95.874H20.43926V40.0014A6.06458,6.06458,0,0,1,26.48666,33.9545Z"/>
    </clipPath>
  </defs>
  <g id="_1-11" data-name="1">
    <path class="cls-3" d="M26.48526,33.9545h82.4646a6.0466,6.0466,0,0,1,6.0466,6.0466V199.9998a6.0461,6.0461,0,0,1-6.0461,6.0461h-82.464a6.0471,6.0471,0,0,1-6.0471-6.0471V40.0005a6.046,6.046,0,0,1,6.046-6.046Z"/>
    <g class="cls-4">
      <g>
        <rect class="cls-5" x="20.43896" y="95.874" width="94.5572" height="22.083"/>
        <rect class="cls-5" x="20.43896" y="140.04" width="94.5572" height="22.0827"/>
        <rect class="cls-5" x="20.43896" y="184.2058" width="94.5572" height="22.083"/>
      </g>
    </g>
    <path class="cls-6" d="M26.48526,33.9545h82.4646a6.0466,6.0466,0,0,1,6.0466,6.0466V199.9998a6.0461,6.0461,0,0,1-6.0461,6.0461h-82.464a6.0471,6.0471,0,0,1-6.0471-6.0471V40.0005a6.046,6.046,0,0,1,6.046-6.046Z"/>
    <path class="cls-7" d="M26.48666,33.9545h82.4627a6.06458,6.06458,0,0,1,6.0471,6.0469V95.874H20.43926V40.0014A6.06458,6.06458,0,0,1,26.48666,33.9545Z"/>
    <g class="cls-8">
      <g>
        <path class="cls-9" d="M84.33976,81.561c-5.4504-1.2385-10.6531-2.7247-10.6531-2.7247l-5.4508.4952-5.451-.4952s-5.2024,1.4862-10.6532,2.7247c-5.3061,1.2061-8.4994,3.8231-8.6646,16.0764h49.536C92.82586,85.4416,89.63576,82.7649,84.33976,81.561Z"/>
        <path class="cls-10" d="M59.96126,79.6119l8.2746,6.1041,8.337-6.0874c-1.7569-.47-2.8862-.7923-2.8862-.7923l-5.4508.4952-5.451-.4952S61.68216,79.151,59.96126,79.6119Z"/>
        <path class="cls-11" d="M61.80686,70.8749v8.4566l6.4106,4.2117,6.4103-4.2117V70.9089c-2.1598,2.0277-4.5596,3.2196-6.3919,3.2196C66.39336,74.1285,63.97656,72.9232,61.80686,70.8749Z"/>
        <path class="cls-12" d="M75.96536,49.1876c-1.8003-.847-4.4472.6355-7.7295.6355-3.2822-.0005-5.9292-1.4825-7.7292-.6355-1.7833.8388-3.9008,11.6544-3.939,11.8528a17.27111,17.27111,0,0,0,5.2392,9.8345c2.1697,2.0483,4.5865,3.2536,6.429,3.2536,1.8323,0,4.2321-1.1916,6.3919-3.2196a17.26925,17.26925,0,0,0,5.2767-9.8662C79.87526,60.8927,77.75236,50.0289,75.96536,49.1876Z"/>
        <path class="cls-13" d="M56.56766,61.0404c.0385-.1987,2.1557-11.0134,3.939-11.8528,1.8-.847,4.447.6355,7.7292.6355,3.2823-.0005,5.9292-1.4825,7.7295-.6355,1.787.8413,3.9099,11.7051,3.9391,11.8551l.0014.0068s1.3527-5.4026-.129-9.6381c-1.4828-4.2358-3.494-8.0473-11.541-8.0473-8.0467,0-10.0584,3.8121-11.5407,8.0473-1.4825,4.235-.1295,9.6381-.1295,9.6381Z"/>
        <path class="cls-14" d="M91.57576,87.4933h-.0003q.0966.25815.1874.5315h.0003Q91.673,87.7515,91.57576,87.4933Z"/>
        <path class="cls-15" d="M91.57546,87.4933h.0003q-.16365-.4362-.3447-.83l-.0003-.0002Q91.412,87.0576,91.57546,87.4933Z"/>
        <path class="cls-15" d="M91.23076,86.6631h.0003q-.20835-.4542-.4399-.855l-.0006-.0005Q91.02186,86.20975,91.23076,86.6631Z"/>
        <path class="cls-15" d="M90.79056,85.8076l.0006.0005a8.73722,8.73722,0,0,0-.6066-.9198l-.0003-.0006A8.90194,8.90194,0,0,1,90.79056,85.8076Z"/>
        <path class="cls-15" d="M90.18426,84.8877l.0003.0006a7.69178,7.69178,0,0,0-.9369-1.0349h-.0008A7.7294,7.7294,0,0,1,90.18426,84.8877Z"/>
        <path class="cls-15" d="M89.24686,83.8531l.0008.0003a8.29938,8.29938,0,0,0-2.467-1.5421l-.0036-.0014a8.30124,8.30124,0,0,1,2.4698,1.5432Zm-4.7583-2.2578-.0025-.0006-.1454-.0337c-1.7544-.3986-3.483-.8229-5.0205-1.215H79.32c1.5375.3921,3.266.8164,5.0198,1.215Z"/>
        <path class="cls-15" d="M79.31846,80.3458h.0006c-1.014-.2586-1.9449-.5032-2.7454-.7169h-.0002c.8002.2137,1.7311.4583,2.745.7169Zm5.1676,1.2489.0025.0006a14.69947,14.69947,0,0,1,2.2885.7146l.0036.0014A14.65042,14.65042,0,0,0,84.48606,81.5947Z"/>
        <path class="cls-16" d="M93.00386,97.6374a32.87214,32.87214,0,0,0-1.241-9.6126h.0003A32.88413,32.88413,0,0,1,93.00386,97.6374Z"/>
        <path class="cls-15" d="M74.66256,79.0228l-.0348-.0037v.0806l.0538.0147Z"/>
        <polygon class="cls-17" points="74.628 79.019 74.663 79.023 74.628 78.855 74.628 79.019"/>
        <path class="cls-17" d="M75.03786,70.5115h-.0005c-.1355.1355-.2716.2685-.4096.3974v.0009h0Q74.83476,70.71555,75.03786,70.5115Z"/>
        <path class="cls-17" d="M75.03736,70.5115h.0005q.26625-.26655.5259-.5507l-.0003-.0003Q75.30411,70.24445,75.03736,70.5115Z"/>
        <path class="cls-17" d="M75.56346,69.9605l.0003.0003q.2466-.2709.4867-.5556h-.0003Q75.81076,69.69005,75.56346,69.9605Z"/>
        <path class="cls-17" d="M76.05016,69.4052h.0003q.2295-.27345.4515-.5593h-.0005Q76.27991,69.1321,76.05016,69.4052Z"/>
        <path class="cls-17" d="M76.50146,68.8459h.0005q.21345-.276.419-.5633h0Q76.71561,68.57015,76.50146,68.8459Z"/>
        <path class="cls-17" d="M76.921,68.2826h0q.1965-.2754.3849-.5606h0Q77.11761,68.0076,76.921,68.2826Z"/>
        <path class="cls-17" d="M77.30586,67.722h0q.1824-.27735.3561-.563h0Q77.48841,67.4452,77.30586,67.722Z"/>
        <path class="cls-18" d="M77.662,67.159h0q.1692-.2793.3294-.5672Q77.831,66.87965,77.662,67.159Z"/>
        <path class="cls-18" d="M77.99136,66.5918c.0609-.1092.1204-.2191.1794-.3303-.059.1112-.1185.2211-.1794.3303Zm.1805-.3317.0091-.0175-.0091.0175Zm.0105-.0207.0082-.0153-.0082.0153Zm.0111-.0209.0073-.0142-.0073.0142Zm.0107-.0199.0066-.0127-.0066.0127Zm.0108-.0215.0057-.01-.0057.01Zm.0113-.021.004-.0077-.004.0077Zm.0108-.0213.0026-.0054-.0026.0054Zm.0108-.0201.0023-.0048-.0023.0048Zm.011-.0224.0006-.0006Z"/>
        <path class="cls-18" d="M79.41546,63.2347Zm.0037-.013.0306-.1038-.0306.1038Z"/>
        <path class="cls-18" d="M79.44976,63.1179h0q.08505-.2925.1599-.5904h-.0003Q79.535,62.8251,79.44976,63.1179Z"/>
        <path class="cls-18" d="M79.74536,61.9333h0q-.0621.2994-.1357.5939Q79.68271,62.2329,79.74536,61.9333Z"/>
        <path class="cls-18" d="M79.74536,61.9333h0q.0621-.2964.1123-.597Q79.80741,61.63705,79.74536,61.9333Z"/>
        <path class="cls-18" d="M79.85766,61.3363q.0246-.14655.0468-.2936h0v.0005C79.88966,61.1413,79.87406,61.2386,79.85766,61.3363Z"/>
        <path class="cls-19" d="M70.81906,49.5621h-.0005a15.40311,15.40311,0,0,1-2.1042.2506h0A15.37737,15.37737,0,0,0,70.81906,49.5621Z"/>
        <path class="cls-19" d="M70.81856,49.5621h.0005c.8924-.1624,1.7195-.3643,2.4752-.4964C72.53806,49.1978,71.71086,49.3997,70.81856,49.5621Z"/>
        <path class="cls-19" d="M73.29426,49.0657l.1625-.0275-.1625.0275Zm2.6711.1219-.0136-.0062.0136.0062Zm-.0275-.0127-.0093-.0037.0093.0037Zm-.0105-.0046a3.10051,3.10051,0,0,0-1.2843-.2443,3.10051,3.10051,0,0,1,1.2843.2443Zm-1.2954-.2437.0105-.0006h0Z"/>
        <path class="cls-9" d="M68.71436,97.6374V85.3665l7.8591-5.7376c2.0148.5383,4.8551,1.2708,7.7663,1.9321,3.4532.7849,6.012,2.1963,7.4231,6.4638a32.87214,32.87214,0,0,1,1.241,9.6126Z"/>
        <path class="cls-10" d="M68.71436,85.3665V83.2173l5.9134-3.8858v-.2318l.0535.0147.055.2662,1.8372.2483Z"/>
        <path class="cls-20" d="M68.71436,83.2173v-9.114a11.12888,11.12888,0,0,0,5.9134-3.1944v.0009c-.0281.0266-.0567.0533-.0859.0796v7.4509l.0859.415v.4762Z"/>
        <path class="cls-21" d="M68.71436,74.1033V49.8127a35.8798,35.8798,0,0,0,4.7424-.7745,7.42554,7.42554,0,0,1,1.1752-.1116l.0105-.0006h.0006a3.10051,3.10051,0,0,1,1.2843.2443l.0012.0009.0093.0037.0139.0065.0136.0062h0c1.787.8413,3.9099,11.7051,3.9391,11.8551a15.66,15.66,0,0,1-.4853,2.179l-.0037.013h0a16.69079,16.69079,0,0,1-1.156,2.857l-.0006.0006-.0087.0176-.0023.0048-.0082.0147-.0026.0054-.0068.0136-.004.0077-.0056.011-.0057.01-.0042.0088-.0066.0127-.0034.0057-.0073.0142-.0029.0056-.0082.0153-.0014.0032-.0091.0175-.0011.0014a17.90119,17.90119,0,0,1-3.543,4.6474h0A11.12888,11.12888,0,0,1,68.71436,74.1033Z"/>
        <path class="cls-18" d="M79.97646,60.7405l-.0009-.0006c-.0402.1891-.0672.298-.0697.309l.0003.0006h0S79.93366,60.9401,79.97646,60.7405Z"/>
        <path class="cls-18" d="M79.97556,60.7399l.0009.0006c.032-.1505.0728-.3515.117-.5961H80.093C80.04846,60.389,80.00756,60.59,79.97556,60.7399Z"/>
        <path class="cls-18" d="M80.093,60.1444h.0005c.0321-.178.0661-.3784.1001-.5987l-.0003-.0003C80.15926,59.7657,80.12526,59.9664,80.093,60.1444Z"/>
        <path class="cls-18" d="M80.19326,59.5454l.0003.0003c.0289-.1871.0575-.3881.0856-.6015h-.0009Q80.237,59.26475,80.19326,59.5454Z"/>
        <path class="cls-18" d="M80.27826,58.9442h.0009c.0244-.1916.0485-.3935.0703-.6038h-.0009C80.32676,58.5507,80.30326,58.7526,80.27826,58.9442Z"/>
        <path class="cls-18" d="M80.34856,58.3404h.0009c.0198-.1947.0385-.3974.0544-.6058l-.0003-.0002C80.38746,57.943,80.36876,58.1454,80.34856,58.3404Z"/>
        <path class="cls-18" d="M80.40356,57.7344h.0003c.0153-.197.0286-.4.0394-.6075h-.0005Q80.427,57.43815,80.40356,57.7344Z"/>
        <path class="cls-22" d="M80.44276,57.1269h.0005c.0099-.199.0179-.4025.0224-.6097h-.0003Q80.45771,56.828,80.44276,57.1269Z"/>
        <path class="cls-22" d="M80.46536,56.5172h.0003q.00675-.302.0045-.6123H80.47Q80.47206,56.21525,80.46536,56.5172Z"/>
        <path class="cls-22" d="M80.47,55.9049h.0002q-.0021-.30405-.0144-.6149l-.0003-.0005Q80.46776,55.60075,80.47,55.9049Z"/>
        <path class="cls-22" d="M80.45546,55.2895h.0003q-.0123-.30615-.0357-.618h0Q80.44346,54.98275,80.45546,55.2895Z"/>
        <path class="cls-22" d="M80.42006,54.6715h0c-.0159-.2061-.0352-.4133-.0593-.6208h-.0003Q80.39631,54.362,80.42006,54.6715Z"/>
        <path class="cls-22" d="M80.36046,54.0507h.0003q-.03615-.3129-.0859-.6253h0Q80.32421,53.73755,80.36046,54.0507Z"/>
        <path class="cls-22" d="M80.27486,53.4254h0q-.05055-.31545-.1156-.629H80.159Q80.22451,53.10975,80.27486,53.4254Z"/>
        <path class="cls-22" d="M80.159,52.7961l.0003.0003q-.0672-.31935-.1517-.6344h-.0002Q80.09151,52.47715,80.159,52.7961Z"/>
        <path class="cls-19" d="M80.00736,52.162h.0002c-.0575-.2151-.1219-.4289-.1927-.64h-.0006Q79.92061,51.83865,80.00736,52.162Z"/>
        <path class="cls-19" d="M79.81426,51.522h.0006c-.0125-.0372-.0247-.074-.0377-.1106q-.094-.26865-.1908-.5346h-.0008q.09735.2658.1913.5346C79.78986,51.448,79.80206,51.4848,79.81426,51.522Z"/>
        <path class="cls-19" d="M79.58556,50.8774h.0008q-.11985-.32655-.2466-.6478h0Q79.46651,50.55075,79.58556,50.8774Z"/>
        <path class="cls-19" d="M79.33976,50.2296h0q-.1275-.324-.2656-.642h-.0003Q79.21156,49.90515,79.33976,50.2296Z"/>
        <path class="cls-19" d="M79.07386,49.5876h.0003c-.036-.0825-.0723-.1641-.1091-.2458C79.00156,49.4235,79.03816,49.5051,79.07386,49.5876Z"/>
        <path class="cls-23" d="M79.90586,61.0489l-.0012-.0076-.0002.0019v-.0005c-.0292-.15-2.1521-11.0138-3.9391-11.8551h0l-.0136-.0062-.0139-.0065-.0093-.0037-.0012-.0009a3.10051,3.10051,0,0,0-1.2843-.2443h-.0006l-.0105.0006a7.4288,7.4288,0,0,0-1.1752.1116,35.81389,35.81389,0,0,1-4.7424.7745V43.3715c6.3434.1244,8.7761,2.7207,10.2507,5.9703.3021.6676.5643,1.3626.8118,2.0696C81.24776,55.6143,79.926,60.9684,79.90586,61.0489Z"/>
      </g>
    </g>
    <path class="cls-24" d="M26.48666,33.9545h82.4627a6.06458,6.06458,0,0,1,6.0471,6.0469V95.874H20.43926V40.0014A6.06458,6.06458,0,0,1,26.48666,33.9545Z"/>
    <g>
      <path class="cls-25" d="M99.57766,59.0221l5.1571.4547a.80923.80923,0,0,1,.4601,1.4162l-3.9047,3.3987,1.1613,5.0449a.80983.80983,0,0,1-1.2056.8756l-4.4387-2.6634-4.4391,2.6634a.8097.8097,0,0,1-1.2053-.8756l1.1611-5.0449-3.9045-3.3987a.80918.80918,0,0,1,.4607-1.4162l5.1565-.4547.4521-1.0647h4.6369Z"/>
      <polygon class="cls-16" points="98.246 57.957 99.023 59.785 104.663 60.283 100.393 64 101.663 69.518 96.807 66.606 91.952 69.518 93.221 64 88.951 60.283 94.591 59.785 95.368 57.957 98.246 57.957"/>
      <path class="cls-26" d="M97.72466,58.7455h-1.8351l-.5732,1.3479a.77014.77014,0,0,1-.6562.477l-3.7945.3342,2.873,2.5016a.77126.77126,0,0,1,.2505.771l-.8538,3.712,3.2661-1.9593a.77266.77266,0,0,1,.8113,0l3.2661,1.9593-.8538-3.712a.77155.77155,0,0,1,.2503-.771l2.8732-2.5016-3.7945-.3342a.77027.77027,0,0,1-.6562-.477Z"/>
      <path class="cls-25" d="M96.80716,54.9323a4.168,4.168,0,1,1-4.1684,4.1684,4.16843,4.16843,0,0,1,4.1684-4.1684Z"/>
      <path class="cls-16" d="M97.85426,55.4698a3.77831,3.77831,0,1,1-4.6772,2.5829,3.77876,3.77876,0,0,1,4.6772-2.5829Z"/>
      <path class="cls-25" d="M100.29886,57.6573a3.76071,3.76071,0,0,1,.2197,2.1515,4.66215,4.66215,0,0,1-.5741.2823,1.91575,1.91575,0,0,0-.515-1.4015,2.44052,2.44052,0,0,0,.4136-1.1837,2.45237,2.45237,0,0,1,.4558.1514Z"/>
      <path class="cls-25" d="M97.85426,55.4698a3.7636,3.7636,0,0,1,1.0556.4912,4.43414,4.43414,0,0,1,.0442.6358,1.85843,1.85843,0,0,0-1.4428-.055,2.35784,2.35784,0,0,0-.906-.8044,2.31227,2.31227,0,0,1,.3685-.4125,3.7846,3.7846,0,0,1,.8805.1449Z"/>
      <path class="cls-25" d="M93.32986,57.6224a3.76312,3.76312,0,0,1,1.2932-1.605,2.4727,2.4727,0,0,1,.5615.1264,2.44259,2.44259,0,0,0-.2809,1.2218,1.91911,1.91911,0,0,0-1.182.9122,4.68537,4.68537,0,0,1-.3918-.6554Z"/>
      <path class="cls-25" d="M94.51756,62.1071a3.78155,3.78155,0,0,1-1.152-1.4482,2.41479,2.41479,0,0,1,.3847-.7742,2.44346,2.44346,0,0,0,1.0837.629,1.91977,1.91977,0,0,0,.5227,1.3986,4.59807,4.59807,0,0,1-.8391.1948Z"/>
      <polygon class="cls-25" points="97.343 57.449 97.856 58.106 98.368 58.764 97.9 59.455 97.433 60.145 96.632 59.914 95.831 59.683 95.803 58.85 95.775 58.016 96.559 57.732 97.343 57.449"/>
      <path class="cls-25" d="M100.06556,57.3012a3.72244,3.72244,0,1,0,.318,2.831,3.711,3.711,0,0,0-.318-2.831Zm-2.1957-1.8847a3.83344,3.83344,0,1,1-2.9166.3271,3.81952,3.81952,0,0,1,2.9166-.3271Z"/>
      <path class="cls-25" d="M100.55966,58.7183a3.76018,3.76018,0,0,0-.2662-1.0557,2.26,2.26,0,0,0-.218-.0844c-.0737-.025-.1488-.0459-.2262-.0638a2.12853,2.12853,0,0,1-.1304.616,2.9888,2.9888,0,0,1-.2801.5584,1.90949,1.90949,0,0,1,.3924.6352,2.04965,2.04965,0,0,1,.1204.7563c.0992-.0411.1948-.0839.2861-.1295q.1419-.06885.2746-.146a3.75319,3.75319,0,0,0,.0474-1.0865Zm-.2543-1.0636a3.77224,3.77224,0,0,1,.22,2.1555l-.0006.0031-.0031.0017q-.13485.07785-.2778.1488c-.0953.0465-.1939.0916-.2962.1335l-.0102.004v-.0111a2.01823,2.01823,0,0,0-.1194-.7608,1.89284,1.89284,0,0,0-.3931-.6352l-.004-.004.0031-.0045a3.01654,3.01654,0,0,0,.2815-.5602,2.09191,2.09191,0,0,0,.1304-.6205v-.0076l.0085.0014c.0808.0187.159.0405.235.0661a2.06955,2.06955,0,0,1,.2219.0861l.0031.0009Z"/>
      <path class="cls-25" d="M98.39966,55.6809a3.84154,3.84154,0,0,0-.5471-.204,3.754,3.754,0,0,0-.4357-.0984,3.69349,3.69349,0,0,0-.4408-.0459,2.24035,2.24035,0,0,0-.1908.1893,2.44451,2.44451,0,0,0-.1698.2126,2.0272,2.0272,0,0,1,.5026.3436,2.87927,2.87927,0,0,1,.3957.4552,1.85178,1.85178,0,0,1,.7127-.117,1.96988,1.96988,0,0,1,.7205.1706c-.0005-.1072-.0036-.2118-.0107-.3135-.0077-.1046-.0187-.2078-.0326-.3087a3.77479,3.77479,0,0,0-.504-.2838Zm-.5432-.2171a3.76958,3.76958,0,0,1,.5486.2047,3.72994,3.72994,0,0,1,.5088.2863l.0028.0014v.0031c.015.1032.0258.2072.0335.3127.007.1063.0107.2148.0107.3248v.0111l-.0099-.004a1.968,1.968,0,0,0-.7245-.1738,1.8361,1.8361,0,0,0-.7127.1188l-.0048.0014-.0031-.0045a2.939,2.939,0,0,0-.3971-.4578,2.03874,2.03874,0,0,0-.5063-.3444l-.0079-.0037.0048-.0062a2.2987,2.2987,0,0,1,.3699-.4136l.0023-.0023h.0022a4.04281,4.04281,0,0,1,.4454.0465,3.86586,3.86586,0,0,1,.4373.0995Z"/>
      <path class="cls-25" d="M93.86906,56.7349a3.75988,3.75988,0,0,0-.5313.8866q.0804.165.1769.3266c.0635.1063.1318.2109.2061.3163a2.06254,2.06254,0,0,1,.5051-.5754,1.90147,1.90147,0,0,1,.671-.3288,3.00434,3.00434,0,0,1,.0604-.6214,2.1075,2.1075,0,0,1,.2171-.591,2.529,2.529,0,0,0-.2721-.0782,2.42017,2.42017,0,0,0-.277-.0451,3.7494,3.7494,0,0,0-.7562.7104Zm-.5454.8844a3.75518,3.75518,0,0,1,.5346-.8938,3.79746,3.79746,0,0,1,.7608-.7135l.0023-.0014h.0022a2.30548,2.30548,0,0,1,.2818.0457,2.42373,2.42373,0,0,1,.2815.0813l.0085.0026-.0046.0068a2.11456,2.11456,0,0,0-.2202.595,2.9598,2.9598,0,0,0-.0598.6236v.0054l-.0048.0014a1.89658,1.89658,0,0,0-.6716.3274,2.04831,2.04831,0,0,0-.5065.5811l-.0054.0091-.0062-.0086c-.0777-.1085-.1483-.2171-.2132-.3257q-.0978-.1641-.1794-.3305l-.0015-.0028Z"/>
      <path class="cls-25" d="M93.85826,61.4509a3.76583,3.76583,0,0,0,.6616.6491c.1372-.0187.2744-.0434.4124-.0754.1358-.0317.2724-.0697.4119-.1154a2.03612,2.03612,0,0,1-.4008-.6522,1.90879,1.90879,0,0,1-.1165-.7384,2.99443,2.99443,0,0,1-.5755-.2407,2.14649,2.14649,0,0,1-.5011-.3824,2.41272,2.41272,0,0,0-.3776.7625,3.797,3.797,0,0,0,.4856.7929Zm.6554.6616a3.79681,3.79681,0,0,1-1.1549-1.4505l-.0008-.0023.0008-.0031a2.44635,2.44635,0,0,1,.3852-.7764l.0057-.0062.0054.0053a2.12437,2.12437,0,0,0,.5026.3864,2.97129,2.97129,0,0,0,.5785.2412l.0054.0014-.0005.0054a1.89662,1.89662,0,0,0,.1153.7385,2.05038,2.05038,0,0,0,.4048.6553l.0079.008-.0107.0031a4.36722,4.36722,0,0,1-.423.1193c-.1394.0326-.2783.0576-.4172.076l-.0023.0008Z"/>
      <path class="cls-25" d="M97.39816,59.9941c.0612.2078.1559.4771.2506.7461.0961.2724.1922.5446.2537.7518l-.108.0309c-.0613-.2078-.1559-.4771-.2512-.7461-.0964-.2724-.1925-.5445-.2528-.7518l.1077-.0309Zm.684-1.2807c.1375-.0099.5199-.0371.9006-.0634.3251-.0233.6499-.0457.9005-.0635l.0077.1116c-.1372.01-.5188.0363-.9006.0635-.3257.0233-.65.046-.9011.0635l-.0071-.1117Zm-.8274-1.178.2162-1.1719.1112.0207-.2175,1.1713-.1099-.0201Zm-1.3598.6392c-.1613-.1018-.3949-.2724-.6282-.4436-.2327-.1707-.4663-.3413-.6213-.4391l.0598-.0956c.1613.1027.3948.2733.6281.4445.2328.1707.4663.3413.6214.4391l-.0598.0947Zm-.8881-1.999c.0691-.0363.1309-.0706.1902-.1015a2.358,2.358,0,0,1,1.7047-.3869l-.0062.1117a2.284,2.284,0,0,0-1.6458.3736c-.059.032-.1227.066-.1902.1017l-.0527-.0986Zm4.8554,1.4482a2.63507,2.63507,0,0,0-.4172-.6437,1.73754,1.73754,0,0,0-.6222-.4428l.0436-.1032a1.85048,1.85048,0,0,1,.6616.4708,2.75149,2.75149,0,0,1,.4352.6707l-.101.0482Zm-.9399,3.8186a4.1165,4.1165,0,0,0,.6066-.6619,3.49784,3.49784,0,0,0,.4155-.7872l.1049.0411a3.6138,3.6138,0,0,1-.4291.8113,4.21278,4.21278,0,0,1-.6228.6794l-.0751-.0827Zm-5.2387-1.3411a3.18337,3.18337,0,0,1-.1832-1.0775,3.10719,3.10719,0,0,1,.2024-1.0471l.1058.0389a2.99893,2.99893,0,0,0-.1965,1.0097,3.08889,3.08889,0,0,0,.1778,1.0394l-.1063.0366Zm1.6273,1.7458a2.53731,2.53731,0,0,0,1.1897.328c.0621.0057.1304.0111.2265.0201l-.0107.112c-.0706-.0071-.1514-.0142-.2251-.0204a2.61433,2.61433,0,0,1-1.2286-.3387l.0482-.101Zm-.5337-1.3611,1.044-.8581.0714.0862-1.0448.858Z"/>
      <polygon class="cls-26" points="105.877 62.353 102.183 62.353 102.183 65.349 105.877 65.349 104.959 63.851 105.877 62.353"/>
      <polygon class="cls-26" points="87.738 62.353 91.431 62.353 91.431 65.349 87.738 65.349 88.655 63.851 87.738 62.353"/>
      <rect class="cls-27" x="89.61076" y="61.2808" width="14.3927" height="3.3298"/>
      <polygon class="cls-26" points="102.158 57.529 102.331 57.937 102.772 57.976 102.439 58.267 102.538 58.698 102.158 58.471 101.778 58.698 101.877 58.267 101.544 57.976 101.984 57.937 102.158 57.529"/>
      <polygon class="cls-26" points="101.228 55.863 101.362 56.177 101.702 56.207 101.445 56.432 101.521 56.764 101.228 56.588 100.935 56.764 101.012 56.432 100.754 56.207 101.094 56.177 101.228 55.863"/>
      <polygon class="cls-26" points="99.907 54.766 100.015 55.019 100.289 55.043 100.082 55.224 100.144 55.492 99.907 55.35 99.672 55.492 99.734 55.224 99.526 55.043 99.8 55.019 99.907 54.766"/>
      <polygon class="cls-26" points="91.456 57.529 91.283 57.937 90.842 57.976 91.176 58.267 91.077 58.698 91.456 58.471 91.836 58.698 91.737 58.267 92.071 57.976 91.63 57.937 91.456 57.529"/>
      <polygon class="cls-26" points="92.386 55.863 92.253 56.177 91.912 56.207 92.17 56.432 92.094 56.764 92.386 56.588 92.679 56.764 92.602 56.432 92.86 56.207 92.52 56.177 92.386 55.863"/>
      <polygon class="cls-26" points="93.707 54.766 93.599 55.019 93.325 55.043 93.532 55.224 93.471 55.492 93.707 55.35 93.943 55.492 93.881 55.224 94.088 55.043 93.814 55.019 93.707 54.766"/>
    </g>
    <polygon class="cls-28" points="92.155 45.173 94.109 45.173 94.109 46.549 92.155 46.549 92.155 50.526 90.641 50.526 90.641 40.894 94.645 40.894 94.645 42.27 92.155 42.27 92.155 45.173"/>
    <polygon class="cls-28" points="98.732 45.394 98.181 50.526 96.104 50.526 95.03 40.894 96.503 40.894 97.315 48.489 98.044 40.894 99.502 40.894 100.259 48.544 101.043 40.894 102.364 40.894 101.291 50.526 99.282 50.526 98.732 45.394"/>
    <g>
      <path class="cls-29" d="M96.66146,75.473a7.05515,7.05515,0,1,1-7.0552,7.0552A7.05509,7.05509,0,0,1,96.66146,75.473Z"/>
      <path class="cls-30" d="M99.06636,75.8937a7.05779,7.05779,0,0,1,0,13.2689Z"/>
      <path class="cls-10" d="M96.66146,75.473a7.04071,7.04071,0,0,1,2.4049.4207V89.1626a7.0862,7.0862,0,0,1-4.6505.0556V75.8381A7.04652,7.04652,0,0,1,96.66146,75.473Z"/>
    </g>
    <path class="cls-28" d="M32.23616,110.0676a2.73658,2.73658,0,0,1-.5641,1.8643,2.21118,2.21118,0,0,1-1.7476.6398,2.16739,2.16739,0,0,1-1.6854-.6259,2.57341,2.57341,0,0,1-.5709-1.7957v-.2475h1.4309v.3439a1.02346,1.02346,0,0,0,.2132.7361.77139.77139,0,0,0,.5711.2132.7855.7855,0,0,0,.6191-.2475,1.45106,1.45106,0,0,0,.2203-.9357v-1.7612a1.42263,1.42263,0,0,1-1.4034.853,1.46879,1.46879,0,0,1-1.2592-.5641,2.71331,2.71331,0,0,1-.4195-1.6373v-1.7612a2.51505,2.51505,0,0,1,.5916-1.7957,2.63836,2.63836,0,0,1,3.4123,0,2.5164,2.5164,0,0,1,.5916,1.7957v4.9258Zm-2.2978-2.3392a.77188.77188,0,0,0,.5709-.2131,1.0226,1.0226,0,0,0,.2135-.7362v-1.7337a.99645.99645,0,0,0-.2135-.7293.893.893,0,0,0-1.142,0,.99739.99739,0,0,0-.2132.7293v1.7337a1.02358,1.02358,0,0,0,.2132.7362A.77251.77251,0,0,0,29.93836,107.7284Z"/>
    <path class="cls-28" d="M34.63026,110.2465a1.02249,1.02249,0,0,0,.2135.7361.871.871,0,0,0,1.1418,0,1.0225,1.0225,0,0,0,.2134-.7361v-5.2011a1.0225,1.0225,0,0,0-.2134-.7361.871.871,0,0,0-1.1418,0,1.02249,1.02249,0,0,0-.2135.7361v5.2011Zm-1.5134-5.1047a2.51505,2.51505,0,0,1,.5916-1.7957,2.6385,2.6385,0,0,1,3.4124,0,2.5164,2.5164,0,0,1,.5916,1.7957v5.0083a2.5164,2.5164,0,0,1-.5916,1.7957,2.6385,2.6385,0,0,1-3.4124,0,2.51505,2.51505,0,0,1-.5916-1.7957Z"/>
    <path class="cls-31" d="M131.05106,33.4746h82.4635a6.54393,6.54393,0,0,1,6.5265,6.5259V199.9998a6.54393,6.54393,0,0,1-6.5265,6.526h-82.4635a6.54738,6.54738,0,0,1-6.5271-6.526V40.0005a6.54393,6.54393,0,0,1,6.5271-6.5259Z"/>
    <circle class="cls-32" cx="172.28236" cy="120.00013" r="28.79996"/>
    <path class="cls-10" d="M169.99256,127.3499a5.04717,5.04717,0,0,1-.2217-1.5883,7.992,7.992,0,0,1,.3325-2.4375,10.66053,10.66053,0,0,1,.8125-1.9021,14.71529,14.71529,0,0,1,1.0712-1.6619,12.61541,12.61541,0,0,0,1.0709-1.7175,11.1745,11.1745,0,0,0,.8127-2.0866,10.24873,10.24873,0,0,0,.3322-2.7884,2.87512,2.87512,0,0,0-.5355-1.9761,2.24,2.24,0,0,0-2.9916,0,2.87669,2.87669,0,0,0-.5355,1.9761v2.8068h-3.8409v-2.5483a7.0182,7.0182,0,0,1,1.4958-4.8198,6.83124,6.83124,0,0,1,8.9748,0,7.01814,7.01814,0,0,1,1.4955,4.8198,10.84749,10.84749,0,0,1-.3506,2.9361,11.15761,11.15761,0,0,1-.8864,2.2346,14.07818,14.07818,0,0,1-1.1636,1.828q-.6276.83085-1.1634,1.6435a8.87091,8.87091,0,0,0-.8864,1.736,5.89821,5.89821,0,0,0-.3509,2.105,6.31158,6.31158,0,0,0,.148,1.4406Zm3.7304,1.8096v3.9149h-3.9149v-3.9149Z"/>
    <path class="cls-28" d="M30.79136,126.7968a1.30719,1.30719,0,0,0-.2132-.8736.74612.74612,0,0,0-.5709-.2271.77147.77147,0,0,0-.5712.2132,1.02394,1.02394,0,0,0-.2131.7361v1.0319H27.792v-.9355a2.57341,2.57341,0,0,1,.5709-1.7957,2.16762,2.16762,0,0,1,1.6855-.6259,2.16748,2.16748,0,0,1,1.6855.6259,2.57349,2.57349,0,0,1,.5712,1.7957,3.95321,3.95321,0,0,1-.241,1.4171,5.49987,5.49987,0,0,1-.5984,1.1559,7.67285,7.67285,0,0,1-.7704.9562q-.413.43365-.7433.8257a3.98679,3.98679,0,0,0-.5227.7773,1.30628,1.30628,0,0,0-.1238.8118h2.8618v1.3759H27.792v-1.1831a3.24239,3.24239,0,0,1,.22-1.2385,4.4031,4.4031,0,0,1,.5573-.9839,8.53555,8.53555,0,0,1,.7223-.8393,8.93329,8.93329,0,0,0,.7225-.8323,4.36236,4.36236,0,0,0,.5573-.9632A3.14284,3.14284,0,0,0,30.79136,126.7968Z"/>
    <path class="cls-28" d="M34.63026,131.8465a1.02249,1.02249,0,0,0,.2135.7361.871.871,0,0,0,1.1418,0,1.0225,1.0225,0,0,0,.2134-.7361v-5.2011a1.0225,1.0225,0,0,0-.2134-.7361.871.871,0,0,0-1.1418,0,1.02249,1.02249,0,0,0-.2135.7361v5.2011Zm-1.5134-5.1047a2.51505,2.51505,0,0,1,.5916-1.7957,2.6385,2.6385,0,0,1,3.4124,0,2.5164,2.5164,0,0,1,.5916,1.7957v5.0083a2.5164,2.5164,0,0,1-.5916,1.7957,2.6385,2.6385,0,0,1-3.4124,0,2.51505,2.51505,0,0,1-.5916-1.7957Z"/>
    <path class="cls-28" d="M30.79136,148.8767a1.30719,1.30719,0,0,0-.2132-.8736.74612.74612,0,0,0-.5709-.2271.77147.77147,0,0,0-.5712.2132,1.02406,1.02406,0,0,0-.2131.7362v1.0318H27.792v-.9355a2.57341,2.57341,0,0,1,.5709-1.7957,2.16762,2.16762,0,0,1,1.6855-.6259,2.16748,2.16748,0,0,1,1.6855.6259,2.57349,2.57349,0,0,1,.5712,1.7957,3.95321,3.95321,0,0,1-.241,1.4171,5.49743,5.49743,0,0,1-.5984,1.1559,7.67285,7.67285,0,0,1-.7704.9562q-.413.43365-.7433.8257a3.98978,3.98978,0,0,0-.5227.7773,1.30628,1.30628,0,0,0-.1238.8118h2.8618v1.3759H27.792v-1.1831a3.24239,3.24239,0,0,1,.22-1.2385,4.4031,4.4031,0,0,1,.5573-.9839,8.53555,8.53555,0,0,1,.7223-.8393,8.93329,8.93329,0,0,0,.7225-.8323,4.36007,4.36007,0,0,0,.5573-.9632A3.14284,3.14284,0,0,0,30.79136,148.8767Z"/>
    <path class="cls-28" d="M36.15766,148.8767a1.3089,1.3089,0,0,0-.2132-.8736.74634.74634,0,0,0-.5712-.2271.77076.77076,0,0,0-.5709.2132,1.02265,1.02265,0,0,0-.2132.7362v.619H33.158v-.5227a2.57349,2.57349,0,0,1,.5712-1.7957,2.58241,2.58241,0,0,1,3.371,0,2.57341,2.57341,0,0,1,.5709,1.7957v.2475a1.90255,1.90255,0,0,1-1.0593,1.9814,1.52349,1.52349,0,0,1,.8186.7637,2.96635,2.96635,0,0,1,.2407,1.2591v.7566a2.57341,2.57341,0,0,1-.5709,1.7957,2.58241,2.58241,0,0,1-3.371,0,2.57349,2.57349,0,0,1-.5712-1.7957v-.798h1.4312v.8944a1.02254,1.02254,0,0,0,.2132.7361.77076.77076,0,0,0,.5709.2132.75918.75918,0,0,0,.5712-.22,1.279,1.279,0,0,0,.2132-.8668v-.7569a1.48177,1.48177,0,0,0-.2339-.9493.9412.9412,0,0,0-.7569-.2752h-.5091v-1.376h.5916a.95266.95266,0,0,0,.6676-.2202,1.05723,1.05723,0,0,0,.2407-.798Z"/>
    <path class="cls-28" d="M40.07906,153.9264a1.0225,1.0225,0,0,0,.2134.7361.871.871,0,0,0,1.1418,0,1.02249,1.02249,0,0,0,.2135-.7361v-5.201a1.0226,1.0226,0,0,0-.2135-.7362.871.871,0,0,0-1.1418,0,1.02262,1.02262,0,0,0-.2134.7362v5.201Zm-1.5134-5.1047a2.51505,2.51505,0,0,1,.5916-1.7957,2.63836,2.63836,0,0,1,3.4123,0,2.5164,2.5164,0,0,1,.5916,1.7957V153.83a2.5164,2.5164,0,0,1-.5916,1.7957,2.63836,2.63836,0,0,1-3.4123,0,2.51505,2.51505,0,0,1-.5916-1.7957Z"/>
    <path class="cls-28" d="M27.69566,171.7041a2.73658,2.73658,0,0,1,.5641-1.8643,2.2113,2.2113,0,0,1,1.7475-.6398,2.16748,2.16748,0,0,1,1.6855.6259,2.57341,2.57341,0,0,1,.5709,1.7957v.2475h-1.4309v-.3438a1.024,1.024,0,0,0-.2132-.7362.77147.77147,0,0,0-.5712-.2132.78564.78564,0,0,0-.6191.2475,1.452,1.452,0,0,0-.2202.9357v1.7612a1.42277,1.42277,0,0,1,1.4034-.853,1.46879,1.46879,0,0,1,1.2592.5641,2.71421,2.71421,0,0,1,.4195,1.6373v1.7612a2.5164,2.5164,0,0,1-.5916,1.7957,2.63836,2.63836,0,0,1-3.4123,0,2.5164,2.5164,0,0,1-.5916-1.7957v-4.9258Zm2.2977,2.3392a.77188.77188,0,0,0-.5709.2131,1.02262,1.02262,0,0,0-.2134.7362v1.7337a.99631.99631,0,0,0,.2134.7293.89275.89275,0,0,0,1.1418,0,.99629.99629,0,0,0,.2135-.7293v-1.7337a1.0226,1.0226,0,0,0-.2135-.7362A.77188.77188,0,0,0,29.99336,174.0433Z"/>
    <path class="cls-28" d="M36.24006,171.6766a1.30726,1.30726,0,0,0-.2131-.8736.74612.74612,0,0,0-.5709-.2271.77147.77147,0,0,0-.5712.2132,1.024,1.024,0,0,0-.2132.7362v1.0318h-1.4309v-.9355a2.57341,2.57341,0,0,1,.5709-1.7957,2.58241,2.58241,0,0,1,3.371,0,2.57346,2.57346,0,0,1,.5711,1.7957,3.95541,3.95541,0,0,1-.2409,1.4171,5.49743,5.49743,0,0,1-.5984,1.1559,7.67346,7.67346,0,0,1-.7705.9562q-.4128.43365-.7432.8257a3.98529,3.98529,0,0,0-.5227.7773,1.307,1.307,0,0,0-.1239.8118h2.8619v1.3759h-4.3753v-1.1831a3.24048,3.24048,0,0,1,.22-1.2385,4.4031,4.4031,0,0,1,.5573-.9839,8.52118,8.52118,0,0,1,.7222-.8393,8.93431,8.93431,0,0,0,.7226-.8323,4.364,4.364,0,0,0,.5573-.9632A3.14472,3.14472,0,0,0,36.24006,171.6766Z"/>
    <path class="cls-28" d="M41.60636,171.6766a1.30833,1.30833,0,0,0-.2132-.8736.74627.74627,0,0,0-.5711-.2271.77076.77076,0,0,0-.5709.2132,1.02265,1.02265,0,0,0-.2132.7362v.619h-1.4312v-.5227a2.57349,2.57349,0,0,1,.5712-1.7957,2.58228,2.58228,0,0,1,3.3709,0,2.57341,2.57341,0,0,1,.5709,1.7957v.2475a1.90255,1.90255,0,0,1-1.0593,1.9814,1.524,1.524,0,0,1,.8187.7637,2.9664,2.9664,0,0,1,.2406,1.2591v.7566a2.57341,2.57341,0,0,1-.5709,1.7957,2.58228,2.58228,0,0,1-3.3709,0,2.57349,2.57349,0,0,1-.5712-1.7957v-.798H40.038v.8944a1.02254,1.02254,0,0,0,.2132.7361.77076.77076,0,0,0,.5709.2132.75911.75911,0,0,0,.5711-.22,1.27844,1.27844,0,0,0,.2132-.8668v-.7569a1.48115,1.48115,0,0,0-.2339-.9493.941.941,0,0,0-.7568-.2752h-.5091v-1.376h.5916a.9524.9524,0,0,0,.6675-.2202,1.05682,1.05682,0,0,0,.2407-.798Z"/>
    <path class="cls-28" d="M45.07366,170.5209a2.28177,2.28177,0,0,0,.7226-.0963,1.27948,1.27948,0,0,0,.4609-.2617,1.33065,1.33065,0,0,0,.2889-.3852,3.55431,3.55431,0,0,0,.1927-.4677H47.757v9.6315h-1.5137v-7.3474h-1.1696Z"/>
    <path class="cls-28" d="M30.70886,192.5566a1.3089,1.3089,0,0,0-.2132-.8736.74634.74634,0,0,0-.5712-.2271.77068.77068,0,0,0-.5708.2132,1.02265,1.02265,0,0,0-.2132.7362v.619h-1.4312v-.5227a2.57349,2.57349,0,0,1,.5712-1.7957,2.16725,2.16725,0,0,1,1.6854-.6259,2.16748,2.16748,0,0,1,1.6855.6259,2.57341,2.57341,0,0,1,.5709,1.7957v.2475a1.90255,1.90255,0,0,1-1.0593,1.9814,1.524,1.524,0,0,1,.8187.7637,2.9664,2.9664,0,0,1,.2406,1.2591v.7566a2.57341,2.57341,0,0,1-.5709,1.7957,2.16748,2.16748,0,0,1-1.6855.6259,2.16725,2.16725,0,0,1-1.6854-.6259,2.57349,2.57349,0,0,1-.5712-1.7957v-.798h1.4312v.8944a1.02254,1.02254,0,0,0,.2132.7361.77068.77068,0,0,0,.5708.2132.75918.75918,0,0,0,.5712-.22,1.279,1.279,0,0,0,.2132-.8668v-.7569a1.48177,1.48177,0,0,0-.2339-.9493.94111.94111,0,0,0-.7568-.2752h-.5091v-1.376h.5916a.9524.9524,0,0,0,.6675-.2202,1.05682,1.05682,0,0,0,.2407-.798Z"/>
    <path class="cls-28" d="M34.63026,197.6063a1.02249,1.02249,0,0,0,.2135.7361.871.871,0,0,0,1.1418,0,1.0225,1.0225,0,0,0,.2134-.7361v-5.201a1.02262,1.02262,0,0,0-.2134-.7362.871.871,0,0,0-1.1418,0,1.0226,1.0226,0,0,0-.2135.7362v5.201Zm-1.5134-5.1047a2.51505,2.51505,0,0,1,.5916-1.7957,2.6385,2.6385,0,0,1,3.4124,0,2.5164,2.5164,0,0,1,.5916,1.7957v5.0083a2.5164,2.5164,0,0,1-.5916,1.7957,2.6385,2.6385,0,0,1-3.4124,0,2.51505,2.51505,0,0,1-.5916-1.7957Z"/>
  </g>
</svg>
