<svg xmlns="http://www.w3.org/2000/svg" viewBox="0 0 240.00009 240.00009">
  <defs>
    <style>
      .cls-1, .cls-2 {
        fill: #dcdff2;
      }

      .cls-1, .cls-3, .cls-4, .cls-5 {
        fill-rule: evenodd;
      }

      .cls-3, .cls-6 {
        fill: #a3e635;
      }

      .cls-4 {
        fill: #03827c;
      }

      .cls-5 {
        fill: #475569;
      }

      .cls-6 {
        stroke: #03827c;
        stroke-miterlimit: 22.9256;
        stroke-width: 1.9199px;
      }
    </style>
  </defs>
  <g id="_1-9" data-name="1">
    <g>
      <path class="cls-1" d="M214.27714,207.5536h-9.8799V86.4026L28.843,86.3841a7.92187,7.92187,0,0,0-7.9132,7.9127V207.5536H11.05V94.2968A17.813,17.813,0,0,1,28.843,76.5043h175.5366a9.90843,9.90843,0,0,1,9.8975,9.8983Z"/>
      <polygon class="cls-1" points="17.759 202.764 14.221 196.658 48.705 176.676 28.766 82.172 35.674 80.716 56.663 180.219 17.759 202.764"/>
      <polygon class="cls-1" points="207.568 202.764 168.665 180.219 189.655 80.716 196.561 82.172 176.625 176.676 211.108 196.658 207.568 202.764"/>
      <rect class="cls-2" x="52.68474" y="174.9203" width="119.9602" height="7.0566"/>
      <path class="cls-1" d="M45.42464,169.6584l-1.6912-3.2868-.2752-.4125.159-.4694,1.4352-5.1001,1.7031,2.7709.1564.2041a5.101,5.101,0,0,0-.2191.7152l-1.2682,5.5786Zm-.4173,5.0507a8.26575,8.26575,0,0,0-.1689-3.1031l-2.1994-4.2808-.0627.231-1.6886,7.0642a8.46145,8.46145,0,0,0,.1542,3.1652l2.2023,3.5158.0323-.1211,1.7308-6.4712Zm-5.2092-1.599-1.7827-3.4566-.2857-.4271.1717-.4859,1.5815-5.3736,1.7997,2.9046.1619.2121a5.416,5.416,0,0,0-.2387.7424l-1.4077,5.8841Zm-.4618,5.1126a8.357,8.357,0,0,0-.1442-3.2103l-2.3063-4.4651-.0944.3387-1.8454,7.3248a8.56011,8.56011,0,0,0,.1321,3.2743l2.3165,3.6674.0669-.2208,1.8748-6.709Zm-5.4779-1.4723-1.8791-3.6278-.2976-.4419.1856-.5069,1.7433-5.663,1.899,3.0393.1717.2182a5.61366,5.61366,0,0,0-.2582.7748l-1.5647,6.2073Zm-.506,5.1794a8.49248,8.49248,0,0,0-.1216-3.3227l-2.4114-4.6531-.1387.4518-2.0117,7.5986a8.68207,8.68207,0,0,0,.1049,3.3911l2.4355,3.8196.1069-.318,2.0361-6.9673Zm-5.7708-1.3337-1.9834-3.8086-.3081-.4595.2032-.5306,1.9194-5.9692,2.0066,3.1804.1741.2203a5.35131,5.35131,0,0,0-.2761.8152l-1.7357,6.552Zm-.5558,5.2563a6.73492,6.73492,0,0,0,.1267-1.8765v-.0048a5.389,5.389,0,0,0-.2192-1.5648l-2.5225-4.8466a4.9425,4.9425,0,0,0-.1905.5666l-2.1954,7.8908a7.2714,7.2714,0,0,0-.1386,1.8842l.007.1891a5.11119,5.11119,0,0,0,.2033,1.447l2.5656,3.9782.1514-.4201,2.2122-7.2431Zm-6.0911-1.1888-2.0931-3.9977-.3204-.474.2237-.5567,2.1158-6.2972,2.12,3.3299.1817.2287a5.69406,5.69406,0,0,0-.3007.8496l-1.927,6.9174Zm-.6052,5.3407a8.66751,8.66751,0,0,0-.0627-3.5776l-2.6416-5.0431a4.6822,4.6822,0,0,0-.2455.6806l-2.4015,8.2088a8.84191,8.84191,0,0,0,.04,3.6545l2.6986,4.1419a4.20551,4.20551,0,0,0,.2012-.5272l2.4115-7.5379Zm-5.7257-14.4927,2.6365,4.0964.1661-.4218,2.3593-7.0214a8.132,8.132,0,0,0-.057-3.3679l-2.5824-4.9558a4.49118,4.49118,0,0,0-.2092.5661l-2.3513,7.6626a8.32483,8.32483,0,0,0,.038,3.4418Zm-.3929-17.5226a7.57092,7.57092,0,0,1-.0371-3.2448l2.2991-7.1519.1789-.4643,2.5225,4.8643a7.46957,7.46957,0,0,1,.0599,3.1762L16.92,161.7109l-.1344.3279-2.5747-4.0498Zm-.3773-16.6901a6.9849,6.9849,0,0,1-.0352-3.0589l2.2525-6.6858.1462-.3725,2.4684,4.7826a6.8791,6.8791,0,0,1,.059,2.9943l-2.2691,6.1016-.1012.2454-2.5206-4.0067Zm-.3575-15.9166a6.59018,6.59018,0,0,1-.0374-2.8845l2.2102-6.2535.1168-.2892,2.4157,4.701a6.33513,6.33513,0,0,1,.0569,2.8236l-2.2249,5.692-.0717.1709-2.4656-3.9603Zm-.3398-15.1965a6.036,6.036,0,0,1-.0403-2.7204l2.168-5.8524.0864-.2132,2.3664,4.6199a4.0677,4.0677,0,0,1,.1766,1.2529l.0022.0817a4.13471,4.13471,0,0,1-.1218,1.3308l-2.1799,5.3127-.0442.1041-2.4134-3.9161Zm-.328-14.5208a5.53126,5.53126,0,0,1-.0402-2.5699l2.1257-5.4793.0598-.1443,2.319,4.5439a3.61456,3.61456,0,0,1,.1709,1.1705l.0028.1238a3.83432,3.83432,0,0,1-.1145,1.2206L15.192,99.4901l-.0205.0451-2.3632-3.8702Zm5.4848.2013-1.8051,4.1828-.1542.2872.2562.3906,1.8544,3.6184,1.6464-4.6602.2231-.5249-.1239-.1633-1.8969-3.1306Zm.6701-4.0056,1.9695-5.3218.0224-.0604,2.2192,4.3688a3.57459,3.57459,0,0,1,.1738,1.1344l.0051.1276a3.85365,3.85365,0,0,1-.0944,1.1795L21.28024,98.07l-2.2521-3.7157a5.65226,5.65226,0,0,1-.0649-2.4936Zm5.2571,2.7955-1.6492,3.9866-.1366.2654.2435.3877,1.7654,3.4594,1.4921-4.4362.2061-.506-.119-.1584-1.8023-2.9985Zm.6304-3.9688,1.8145-5.1471,2.1257,4.1955a3.77627,3.77627,0,0,1,.1789,1.1058l.0048.123a3.72737,3.72737,0,0,1-.0817,1.1447l-1.8102,4.5691-2.1452-3.5677a5.56623,5.56623,0,0,1-.0868-2.4233Zm5.0057,2.8202-1.5026,3.7964-.1267.2557.2364.3765,1.6781,3.3023,1.3535-4.2179.1914-.4893-.1148-.1533-1.7153-2.8704Zm2.9648,3.9971,2.0755,4.0941a3.879,3.879,0,0,1,.1857,1.1531l.0057.0817a4.25451,4.25451,0,0,1-.0675,1.2036l-1.7034,4.7154-2.0854-3.4634a5.86589,5.86589,0,0,1-.1091-2.4874l1.6985-5.2971Zm2.8624,17.5536a4.27743,4.27743,0,0,1,.1936,1.2211l.0029.0508a4.49081,4.49081,0,0,1-.0698,1.3036l-1.7478,5.0902-2.1283-3.5025a6.36179,6.36179,0,0,1-.1119-2.6246l1.7413-5.6905.0048-.0111,2.1152,4.163Zm1.1424,3.9648-1.4528,4.2364-.1338.3342.2435.3886,1.6631,3.263,1.2988-4.6735a4.13119,4.13119,0,0,1,.2013-.5757l-.129-.1695-1.6911-2.8035Zm2.5724,16.9877.1366.1795a4.486,4.486,0,0,0-.2092.6321l-1.3331,5.0465-1.703-3.3242-.2634-.3963.1514-.3886,1.495-4.5839,1.7257,2.8349Zm1.2937,1.1727-1.6511,6.2408a7.15448,7.15448,0,0,0,.1414,2.8372l2.1107,3.437,1.6758-5.6591a7.01,7.01,0,0,0-.1542-2.7836l-2.1078-4.1321-.0148.0598Zm-.7475,21.4929a7.783,7.783,0,0,0,.1463,2.997l2.1552,3.4742.0128-.0403,1.7081-6.0655a7.67888,7.67888,0,0,0-.1613-2.9398l-2.1552-4.2041-.0371.1392-1.6688,6.6393Zm-2.8105-4.9213-.273-.4096.1582-.439,1.5401-4.9615,1.7603,2.8655.1465.1933a4.893,4.893,0,0,0-.2211.6886l-1.3702,5.4499-1.7408-3.3872Zm-3.0223,8.0006a7.88476,7.88476,0,0,0,.1267,3.0934l2.2672,3.6283.0394-.1343,1.8496-6.2819a7.694,7.694,0,0,0-.1386-3.037l-2.2544-4.3849-.0718.2463-1.8181,6.8701Zm-2.9024-5.0457-.2803-.4224.1712-.4566,1.6962-5.226,1.8567,3.0039.1619.2089a5.149,5.149,0,0,0-.2486.7075l-1.5194,5.7424-1.8377-3.5577Zm-3.2505,8.291a8.01578,8.01578,0,0,0,.1001,3.2055l2.3831,3.776.0774-.2251,2.0032-6.5106a7.85711,7.85711,0,0,0-.114-3.1414l-2.3615-4.5685-.1091.3497-1.9792,7.1144Zm-2.999-5.1675-.2957-.4371.1916-.4762,1.8624-5.5049,1.9587,3.1413.1639.2084a5.09149,5.09149,0,0,0-.2631.7452l-1.6838,6.0559-1.934-3.7326Zm-3.5059,8.6009a8.15382,8.15382,0,0,0,.0691,3.3202l2.5078,3.9356.1197-.3251,2.1719-6.7561a7.96166,7.96166,0,0,0-.0887-3.2502l-2.4682-4.7602-.1564.4569-2.1552,7.3789Zm-1.1549-12.0518,2.0707,3.287.169.216a5.29782,5.29782,0,0,0-.2857.775l-1.8667,6.3888-2.0361-3.9161-.3056-.4519.2061-.4991,2.0483-5.7997Zm-.5363-16.1739-1.9834,5.3427-.1916.4448.2908.4314,1.9883,3.8338,1.8076-5.8988a4.98815,4.98815,0,0,1,.2787-.6954l-.167-.2132-2.0234-3.2453Zm-.5111-15.4457-1.9221,4.9218-.1786.39.2806.4187,1.9392,3.7584,1.7524-5.4518a4.1922,4.1922,0,0,1,.2534-.6427l-.1463-.1893-1.9786-3.2051Zm1.4471-11.5986-1.936-3.168-1.8652,4.5369-.1591.3407.2631.4006,1.8947,3.6867,1.6985-5.0397a4.41907,4.41907,0,0,1,.2384-.5814l-.1344-.1758Zm3.1167-6.1081-2.0242,5.148-.0099.0253-2.2986-3.7619a5.97,5.97,0,0,1-.065-2.6388l2.0039-5.6743.0473-.1253,2.2669,4.4427a4.15189,4.15189,0,0,1,.178,1.2212l.0028.0697a4.04956,4.04956,0,0,1-.1012,1.2934Zm2.8279,4.3773-1.8397-3.0322-1.6983,4.3194-.1493.3303.2534.3821,1.8045,3.5229,1.5372-4.7926a3.99272,3.99272,0,0,1,.2211-.5604l-.1289-.1695Zm4.1788,3.615,1.3929-4.5552.2033-.542-.1239-.1633-1.7481-2.9004-1.5492,4.1102-.1289.307.2378.3835,1.7161,3.3602Zm2.1424,9.4933a4.3772,4.3772,0,0,1,.214-.5976l-.1315-.1732-1.783-2.9341-1.5962,4.4543-.1494.3578.2586.3906,1.7523,3.4234,1.4352-4.9212Zm1.8771,12.7675-2.1719-3.5425a4.27262,4.27262,0,0,1-.1944-1.2379l-.002-.0402a5.23377,5.23377,0,0,1,.0796-1.4956l1.7652-6.0559.0275-.0816,2.16,4.2343a6.60622,6.60622,0,0,1,.1286,2.7205l-1.7926,5.4989Zm-1.5245,8.7213a7.2719,7.2719,0,0,0,.1168,2.9271l2.2201,3.5884.0196-.057,1.8221-5.8822a7.19841,7.19841,0,0,0-.1335-2.8757l-2.2074-4.3067-.047.1582-1.7907,6.4479Zm-2.84-4.9952,1.7949,3.4861,1.4752-5.3161.2358-.6455-.1514-.197-1.8178-2.9667-1.6464,4.822-.1613.4048.271.4124Zm-3.196,7.7437a7.36829,7.36829,0,0,0,.0943,3.0271l2.3347,3.7367.0493-.1463,1.9712-6.0883a7.2192,7.2192,0,0,0-.1117-2.9673l-2.3088-4.4912-.0822.2605-1.9468,6.6688Zm-2.9322-5.1196-.2809-.4196.1766-.4271,1.8076-5.0749,1.9171,3.1034.1585.204a4.84725,4.84725,0,0,0-.2554.6702l-1.6365,5.599-1.887-3.655Zm-1.3261,1.1177-2.1157,6.9023a7.52527,7.52527,0,0,0,.0697,3.1315l2.4537,3.8928.0864-.2379,2.1354-6.307a7.30567,7.30567,0,0,0-.0865-3.0688l-2.4134-4.6755-.1296.3626Zm-.5561-15.5458.0995-.2767,2.3612,4.5961a6.73987,6.73987,0,0,1,.0845,2.8979l-2.0954,5.8895-.0626.1591-2.3987-3.8472a6.93024,6.93024,0,0,1-.0669-2.9568l2.0784-6.4619Zm1.9344-7.8021-2.0608,5.5055-.0346.0881-2.3465-3.8035a6.5152,6.5152,0,0,1-.0678-2.7935l2.0418-6.0537.072-.1965,2.3114,4.5173a6.40071,6.40071,0,0,1,.0845,2.7363Zm2.8899,4.3858L25.414,122.747l-1.7504,4.6828-.1636.3736.2682.4034,1.8419,3.5875,1.5894-5.1789a4.0323,4.0323,0,0,1,.2308-.6174l-.1392-.1828Zm1.3161,1.036,2.2572,4.4116a6.69381,6.69381,0,0,1,.1111,2.8077l-1.9411,5.6931-.0247.0749-2.2847-3.6953a6.77992,6.77992,0,0,1-.0921-2.8624l1.9151-6.253.0592-.1766Zm-.2682-2.0369v.0048l-2.2368-3.6499a6.47254,6.47254,0,0,1-.0901-2.7071l1.885-5.8671.0352-.1035,2.2121,4.3379a6.36954,6.36954,0,0,1,.1063,2.6532l-1.9117,5.3317Zm-1.0678-26.0448.0128-.036,2.1699,4.2662a3.901,3.901,0,0,1,.1837,1.1781l.0048.0935a4.24212,4.24212,0,0,1-.0845,1.2373l-1.8623,4.9388-2.1895-3.609a5.95928,5.95928,0,0,1-.0873-2.5614l1.8553-5.5075Zm16.7627,46.6481,1.6659,2.7386.1415.1836a4.67145,4.67145,0,0,0-.2033.6659l-1.2339,5.1698-1.654-3.2258-.2633-.3977.1493-.4192,1.3978-4.7152Zm6.4063,25.4781-.055.4816-1.5962,6.2464-.0051.0252-2.0902-3.3692a8.24559,8.24559,0,0,1-.1766-3.0589l1.5519-6.8284h-.0028l.0323-.121,1.656,3.2397L48.23,159.9829l-.5383,2.0029-2.0488-3.329a7.72893,7.72893,0,0,1-.169-2.8998l1.0304-4.301-1.4224-7.0314-.4419-.7251a7.397,7.397,0,0,1-.2064-2.4732l-.6602-3.261-.3475,1.3825-1.6169-3.1672-.2455-.3957.1344-.3611.9459-3.0385-.5913-2.9188-.0371.1978-1.6365,5.2422-2.0659-3.3974a6.83746,6.83746,0,0,1-.1366-2.69l1.624-5.8559,1.5548,3.0552-1.3683-6.7561-.4816,1.4689-2.0262-3.3587a6.25279,6.25279,0,0,1-.1316-2.5498l1.0276-3.5257-.5885-2.9038-.1837.5102-1.2634,4.3322-1.6293-3.2097-.231-.3688.1199-.2956,1.4125-3.9132,1.6588,2.7737.1114.1479-.8314-4.1006-.271-.4561a5.74063,5.74063,0,0,1-.1984-1.8666l-.6284-3.0963-.288.9454-1.5962-3.1538-.2288-.366.1168-.2449.9312-2.4523-.5264-2.5928-1.6563,4.3679L30.556,91.9276a3.76756,3.76756,0,0,1-.1737-1.0735l-.002-.0542a4.1158,4.1158,0,0,1,.0717-1.2296l1.654-4.9227,1.9389,3.8404-.328-3.7826-.4614-.9136c-.3351-.663-.7674-.9805-1.2643-.945-.7869.0555-1.0874.9493-1.1837,1.2415l-1.3162,3.9082L27.845,84.7471c-.3379-.6687-.7849-.9961-1.2762-.9572-.8022.0513-1.1197.9578-1.2246,1.2549l-1.4499,4.1048-1.728-3.3996c-.3427-.6735-.775-1.0023-1.2934-.97-.5386.0317-.9638.4598-1.2643,1.2699l-1.5962,4.311-1.8153-3.5572c-.345-.6778-.7818-1.0242-1.3085-.982-.551.0275-.9909.4609-1.3113,1.2853l-2.1248,5.4773a6.22686,6.22686,0,0,0,.1485,3.8118l2.4509,4.0141.1295.1681-.2407.5434-2.1679,5.8539a6.71338,6.71338,0,0,0,.1562,3.9464l2.5078,4.0646.1415.1831a4.15048,4.15048,0,0,0-.2603.6046l-2.2101,6.2512a7.08988,7.08988,0,0,0,.1661,4.0958l2.5653,4.1182.1514.1962a4.42143,4.42143,0,0,0-.2758.6681l-2.2544,6.6844a7.50563,7.50563,0,0,0,.1738,4.2553l2.6246,4.1687.1641.2106a5.50286,5.50286,0,0,0-.2937.7353l-2.2986,7.1532c-.3104.9607-.3356,3.6108.1837,4.4277l2.6867,4.2231.1757.2211a5.53808,5.53808,0,0,0-.3104.8121l-2.3485,7.6598c-.3127,1.0207-.335,3.7868.1936,4.6088l2.751,4.2781.1888.2355a5.86759,5.86759,0,0,0-.3251.8918l-2.401,8.206c-.318,1.0849-.3356,3.983.2036,4.8121l2.8202,4.3302a1.2914,1.2914,0,0,0,1.0825.6903l.1372-.0105c.7892-.1063,1.1741-1.0347,1.3949-1.7223l2.1856-6.8434,2.1721,3.3743a1.27242,1.27242,0,0,0,1.0676.6883l.1366-.0105c.7727-.1072,1.1324-1.008,1.336-1.6759l1.9811-6.478,2.056,3.2227a1.24519,1.24519,0,0,0,1.0508.6835l.1386-.0105c.7523-.1063,1.0925-.9834,1.281-1.6308l1.7954-6.139,1.944,3.0765a1.231,1.231,0,0,0,1.0384.6834l.1391-.0105c.737-.1083,1.0574-.9601,1.234-1.5905l1.6265-5.821,1.8399,2.9379a1.21288,1.21288,0,0,0,1.0248.6777l.142-.0105c.7223-.1091,1.0227-.9402,1.1869-1.5562l1.4751-5.5173,1.7405,2.8034a1.195,1.195,0,0,0,1.0128.6758l.1414-.0136c.7076-.1083.9953-.9176,1.1475-1.5188l.9559-3.75Z"/>
      <path class="cls-1" d="M178.63624,164.0798a5.238,5.238,0,0,0-.2211-.7152l.159-.2041,1.7034-2.7709,1.4351,5.1001.1562.4694-.2732.4125-1.6934,3.2868-1.266-5.5786Zm1.8524,7.5262a8.27154,8.27154,0,0,0-.1669,3.1031l1.7286,6.4712.0345.1211,2.2023-3.5158a8.50183,8.50183,0,0,0,.1542-3.1658l-1.6906-7.0636-.0598-.231-2.2023,4.2808Zm3.6324-4.38a5.15558,5.15558,0,0,0-.2356-.7424l.161-.2121,1.8006-2.9046,1.5814,5.3736.171.4859-.2849.4271-1.783,3.4566-1.4105-5.8841Zm2.0165,7.7864a8.35811,8.35811,0,0,0-.1471,3.2103l1.8751,6.709.0698.2208,2.3133-3.6669a8.5607,8.5607,0,0,0,.1324-3.2757l-1.8425-7.3239-.0973-.3387-2.3037,4.4651Zm3.7664-4.4693a4.99924,4.99924,0,0,0-.2585-.7748l.1718-.2182,1.8989-3.0393,1.7436,5.663.1865.5069-.2956.4419-1.8822,3.6278-1.5645-6.2073Zm2.1923,8.064a8.5366,8.5366,0,0,0-.1219,3.3227l2.0393,6.9673.104.318,2.4353-3.8188a8.68185,8.68185,0,0,0,.1049-3.3925l-2.0087-7.598-.1414-.4518-2.4115,4.6531Zm3.9133-4.5638a5.34289,5.34289,0,0,0-.2758-.8136l.1737-.2211,2.0067-3.1804,1.9193,5.9692.2064.5306-.3104.4595-1.982,3.8086-1.7379-6.5528Zm2.1679,9.9326a6.73549,6.73549,0,0,0,.1239,1.8765l2.215,7.2431.1491.4201,2.5648-3.9782a5.00148,5.00148,0,0,0,.2063-1.4476l.0071-.1879a7.44122,7.44122,0,0,0-.1389-1.8856l-2.198-7.89a5.0654,5.0654,0,0,0-.1885-.5666l-2.5254,4.8472a5.435,5.435,0,0,0-.2154,1.5633v.0057Zm4.2905-6.2297a5.79254,5.79254,0,0,0-.3004-.8496l.1788-.2287,2.1226-3.3299,2.1129,6.2972.224.5567-.3203.474-2.0931,3.9977-1.9245-6.9174Zm2.5943,8.6805a8.53888,8.53888,0,0,0-.059,3.5776l2.4058,7.5388a4.58367,4.58367,0,0,0,.2013.5263l2.6983-4.1414a8.84321,8.84321,0,0,0,.0402-3.6555l-2.4015-8.2083a4.21971,4.21971,0,0,0-.2455-.6806l-2.6396,5.0431Zm3.0274-6.8187,2.6337-4.0964a8.32328,8.32328,0,0,0,.0379-3.4418l-2.3465-7.6621a5.34608,5.34608,0,0,0-.2112-.5666l-2.5823,4.9567a8.147,8.147,0,0,0-.0598,3.3664l2.3592,7.022.169.4218Zm.4518-17.5692-.1318-.3279-2.3142-6.5424a7.46955,7.46955,0,0,1,.0573-3.1756l2.5251-4.8649.1769.4643,2.3014,7.1513a7.53417,7.53417,0,0,1-.0402,3.2454l-2.5745,4.0498Zm.432-16.7332-.102-.2454-2.2669-6.1016a6.89009,6.89009,0,0,1,.057-2.9934l2.4704-4.7835.1443.3725,2.2549,6.6849a6.98191,6.98191,0,0,1-.0379,3.0598l-2.5198,4.0067Zm.4125-15.963-.0723-.1709-2.2249-5.692a6.2858,6.2858,0,0,1,.0589-2.823l2.4143-4.7016.1162.2892,2.2128,6.2535a6.54993,6.54993,0,0,1-.04,2.8845l-2.465,3.9603Zm.3914-15.2407-.0416-.1041-2.1824-5.3127a4.14791,4.14791,0,0,1-.1196-1.3303v-.083a4.14317,4.14317,0,0,1,.1766-1.2512l2.3663-4.6208.0893.2132,2.1677,5.8524a6.13117,6.13117,0,0,1-.04,2.721l-2.4163,3.9155Zm.3802-14.5667-.0199-.0451-2.1404-4.9598a3.7649,3.7649,0,0,1-.1168-1.2206l.0051-.1238a3.67967,3.67967,0,0,1,.1689-1.1696l2.3196-4.5448.0593.1443,2.1257,5.4788a5.56535,5.56535,0,0,1-.0383,2.5704l-2.3632,3.8702Zm-1.3184.5139-1.8026-4.1828-1.8995,3.1306-.1238.1633.223.5249,1.647,4.6602,1.8544-3.6184.2557-.3906-.1542-.2872Zm-2.5373-5.6948-2.2524,3.7157-1.9792-4.7812a3.77712,3.77712,0,0,1-.0969-1.1795l.0054-.1276a3.73326,3.73326,0,0,1,.1732-1.1344l2.2229-4.3688.0224.0604,1.9686,5.3218a5.6827,5.6827,0,0,1-.064,2.4936Zm-3.5459,4.2885-1.6463-3.9866-1.8026,2.9985-.1216.1584.2084.506,1.4898,4.4362,1.7652-3.4594.2463-.3877-.1392-.2654Zm-2.3644-5.5321-2.1472,3.5677-1.8102-4.5691a3.67321,3.67321,0,0,1-.0797-1.1447l.0049-.1238a3.7104,3.7104,0,0,1,.1768-1.105l2.1277-4.1955,1.8151,5.1471a5.60154,5.60154,0,0,1-.0874,2.4233Zm-3.4163,4.1933-1.5049-3.7964-1.7152,2.8704-.1145.1533.1913.4893,1.3535,4.2179,1.6807-3.3023.2336-.3765-.1245-.2557Zm-2.7683,5.497a5.95274,5.95274,0,0,1-.1097,2.4882l-2.0874,3.4634-1.7014-4.7154a4.14225,4.14225,0,0,1-.0697-1.2031l.0051-.083a3.99123,3.99123,0,0,1,.1865-1.1523l2.0755-4.0941,1.7011,5.2963Zm-2.4457,8.0943.0023.0111,1.7433,5.6905a6.40268,6.40268,0,0,1-.112,2.6255l-2.1305,3.5016-1.7476-5.091a4.38222,4.38222,0,0,1-.0675-1.3028l.0026-.0508a4.37362,4.37362,0,0,1,.1916-1.2211l2.1178-4.163Zm-1.8054,12.3642-1.4547-4.2364-1.6906,2.8035-.1247.1695a4.82272,4.82272,0,0,1,.1987.5757l1.2962,4.6735,1.666-3.263.2437-.3886-.1346-.3342Zm-2.3015,9.9164,1.495,4.5839.1514.3886-.2633.3963-1.7011,3.3242-1.336-5.0465a4.03822,4.03822,0,0,0-.2083-.6321l.1366-.1795,1.7257-2.8349Zm-1.3682,10.2478-1.6484-6.2402-.0147-.0598-2.111,4.1329a7.04873,7.04873,0,0,0-.1539,2.7828l1.6784,5.6591,2.1101-3.4362a7.20406,7.20406,0,0,0,.1395-2.8386Zm-1.048,18.2497a7.83493,7.83493,0,0,0,.1471-2.997l-1.6716-6.6393-.0374-.1392-2.1552,4.2041a7.66,7.66,0,0,0-.1581,2.9398l1.7081,6.0655.0099.0403,2.1572-3.4742Zm1.2149-4.5311-1.3711-5.4508a5.25663,5.25663,0,0,0-.2183-.6868l.1463-.1942,1.7603-2.8655,1.5373,4.9615.159.439-.271.4096-1.7425,3.3872Zm4.6375,7.7068a7.86733,7.86733,0,0,0,.1244-3.0934l-1.8172-6.8701-.0698-.2463-2.2549,4.3855a7.74719,7.74719,0,0,0-.1415,3.0359l1.8505,6.2824.0422.1343,2.2663-3.6283Zm1.1894-4.5814-1.5168-5.7424a5.314,5.314,0,0,0-.2483-.7075l.161-.2089,1.8575-3.0039,1.6935,5.226.1709.4566-.2801.4224-1.8377,3.5577Zm4.9887,7.9388a8.02646,8.02646,0,0,0,.0992-3.2055l-1.9791-7.1144-.1089-.3497-2.3592,4.5694a7.80981,7.80981,0,0,0-.1163,3.1405l2.0058,6.5106.0749.2251,2.3836-3.776Zm1.1642-4.6404-1.6835-6.0565a5.12348,5.12348,0,0,0-.2605-.7446l.1613-.2084,1.9593-3.1413,1.8618,5.5049.1913.4762-.2956.4371-1.9341,3.7326Zm5.3711,8.1885a8.10527,8.10527,0,0,0,.0689-3.3202l-2.1524-7.3789-.1562-.4569-2.4684,4.7602a8.01859,8.01859,0,0,0-.0921,3.2496l2.1728,6.7567.1196.3251,2.5078-3.9356Zm3.272-9.5723.2064.4991-.3047.4519-2.037,3.9161-1.8666-6.3888a5.07563,5.07563,0,0,0-.2858-.7741l.169-.2169,2.0707-3.287,2.048,5.7997Zm.4723-16.6309-1.984-5.3427-2.0236,3.2453-.1667.2132a5.14523,5.14523,0,0,1,.2806.6948l1.8077,5.8994,1.989-3.8338.2877-.4314-.1907-.4448ZM208,129.6848l-1.9241-4.9218-1.9792,3.2051-.1443.1893a4.69945,4.69945,0,0,1,.2534.6427l1.7504,5.4518,1.944-3.7584.2787-.4187-.1789-.39Zm-1.4349-19.6884-1.9372,3.168-.1343.1766a3.7934,3.7934,0,0,1,.2386.58l1.7011,5.0403,1.8919-3.6867.2661-.4006-.1618-.3407-1.8644-4.5369Zm-5.1551-4.2335.0023-.0706a4.05534,4.05534,0,0,1,.1814-1.2203l2.2672-4.4427.0442.1253,2.0066,5.6743a5.97471,5.97471,0,0,1-.0674,2.6394l-2.2967,3.7613-.0099-.0253-2.0256-5.148a4.07472,4.07472,0,0,1-.1021-1.2934Zm-.8866,2.6385-1.84,3.0322-.1287.1695a4.1615,4.1615,0,0,1,.2208.5604l1.5395,4.7926,1.8026-3.5229.2531-.3821-.1491-.3303-1.6982-4.3194Zm-7.4115,2.092,1.3958,4.5552,1.7152-3.3602.2384-.3835-.1315-.307-1.5492-4.1102-1.7484,2.9004-.1238.1633.2035.542Zm-.9607,13.4509a4.49138,4.49138,0,0,1,.2132.5976l1.4352,4.9212,1.7532-3.4234.2554-.3906-.1485-.3578-1.5971-4.4543-1.7827,2.9341-.1287.1732Zm-3.4588,7.8662a6.64806,6.64806,0,0,1,.131-2.7196l2.1608-4.2352.0247.0816,1.7679,6.0559a5.336,5.336,0,0,1,.0788,1.4956l-.0019.0402a4.39752,4.39752,0,0,1-.1936,1.2379l-2.1728,3.5425-1.7949-5.4989Zm3.2003,17.1473a7.31093,7.31093,0,0,0,.1191-2.9271l-1.7927-6.4479-.0445-.1582-2.2079,4.3072a7.16307,7.16307,0,0,0-.1363,2.8747l1.8249,5.8827.0204.057,2.217-3.5884Zm1.1642-4.4362,1.7926-3.4861.2739-.4124-.1639-.4048-1.6463-4.822-1.8179,2.9667-.1485.197.233.6455,1.4771,5.3161Zm4.8966,7.2847a7.34859,7.34859,0,0,0,.0944-3.0271l-1.9469-6.6688-.0836-.2605-2.3074,4.4918a7.26694,7.26694,0,0,0-.1139,2.9667l1.9743,6.0883.0493.1463,2.3338-3.7367Zm1.1375-4.4917-1.6364-5.599a4.57708,4.57708,0,0,0-.2534-.6702l.157-.204,1.9193-3.1034,1.8046,5.0749.1766.4271-.2807.4196-1.887,3.655Zm5.3286,4.365-2.1155-6.9023-.1267-.3626-2.4163,4.6755a7.32037,7.32037,0,0,0-.0845,3.0688l2.1334,6.307.0893.2379,2.4528-3.8928a7.5215,7.5215,0,0,0,.0675-3.1315Zm.5187-15.9868a6.85011,6.85011,0,0,1-.0674,2.9574l-2.3979,3.8472-.0601-.1591-2.0951-5.8895a6.74034,6.74034,0,0,1,.0817-2.8979l2.3641-4.5961.0964.2767,2.0783,6.4613Zm-3.928-16.9997,2.3143-4.5173.0717.1965,2.0384,6.0537a6.54354,6.54354,0,0,1-.0649,2.7935l-2.3486,3.8035-.0345-.0881-2.0608-5.5055a6.43153,6.43153,0,0,1,.0844-2.7363Zm-1.0972,4.0539-1.8771,3.0682-.1395.1828a4.48227,4.48227,0,0,1,.2338.6166l1.5863,5.1797,1.8448-3.5875.2682-.4034-.1639-.3736-1.7526-4.6828Zm-3.1315,4.2808,1.9117,6.2521a6.77346,6.77346,0,0,1-.0915,2.8633l-2.2819,3.6953-.0247-.0749-1.9446-5.6931a6.70845,6.70845,0,0,1,.112-2.8071l2.262-4.4122.057.1766Zm-1.7053-7.5452a6.34853,6.34853,0,0,1,.1063-2.6527l2.215-4.3384.0343.1035,1.8822,5.8665a6.39558,6.39558,0,0,1-.0893,2.7077l-2.2348,3.6499-.002-.0048-1.9117-5.3317Zm2.9792-20.7131,1.8547,5.5075a5.94677,5.94677,0,0,1-.0873,2.5614l-2.1917,3.609-1.8601-4.9393a4.15635,4.15635,0,0,1-.0845-1.2359l.0048-.095a3.82836,3.82836,0,0,1,.1837-1.1769l2.1679-4.2668.0125.036Zm-15.3646,51.3633.1491.4192-.2631.3977-1.6511,3.2258-1.2368-5.1704a4.337,4.337,0,0,0-.2013-.6644l.1395-.1845,1.6679-2.7386,1.3958,4.7152Zm-8.477,24.0893.9558,3.7494c.152.6018.44,1.4111,1.1495,1.5202l.1391.012a1.19791,1.19791,0,0,0,1.0157-.675l1.7385-2.8034,1.4774,5.5167c.1633.6166.4638,1.4486,1.1866,1.5577l.1414.0096a1.21589,1.21589,0,0,0,1.0256-.6777l1.8371-2.9379,1.6266,5.8201c.1786.6307.496,1.4831,1.2336,1.5922l.1395.0091a1.2362,1.2362,0,0,0,1.0403-.682l1.9417-3.0773,1.7949,6.1382c.1894.6482.5315,1.5253,1.2816,1.6316l.1389.0099a1.246,1.246,0,0,0,1.0527-.6829l2.056-3.2227,1.9811,6.478c.2044.6679.561,1.5696,1.336,1.6764l.1366.0094a1.26608,1.26608,0,0,0,1.065-.6877l2.1733-3.3743,2.187,6.8434c.2208.6876.6038,1.616,1.3955,1.7231l.1346.0091a1.284,1.284,0,0,0,1.0817-.6897l2.8216-4.3307c.5414-.8286.523-3.7262.2055-4.8116l-2.4006-8.2065a6.23955,6.23955,0,0,0-.328-.8913l.1885-.2355,2.7536-4.2781c.5292-.822.5065-3.5881.1933-4.6088l-2.3485-7.6598a6.10985,6.10985,0,0,0-.3104-.8116l.1766-.2216,2.6844-4.2231c.5207-.8169.4935-3.4662.186-4.4271l-2.3018-7.1538a5.11889,5.11889,0,0,0-.2933-.7348l.1666-.2111,2.6226-4.1695a7.49154,7.49154,0,0,0,.1732-4.254l-2.2544-6.6849a4.23481,4.23481,0,0,0-.276-.6673l.1513-.197,2.5657-4.1182a7.07235,7.07235,0,0,0,.1661-4.0949l-2.2102-6.253a3.81942,3.81942,0,0,0-.2582-.6032l.142-.1836,2.505-4.0646a6.70429,6.70429,0,0,0,.1584-3.9464l-2.1671-5.8539-.2429-.5434.129-.1681,2.4528-4.0141a6.2043,6.2043,0,0,0,.1491-3.8112l-2.1277-5.4779c-.3203-.8249-.76-1.2572-1.3113-1.2853-.5236-.0422-.9635.3042-1.3082.9825l-1.8153,3.5567-1.5942-4.311c-.3005-.8101-.7248-1.2382-1.2662-1.2699-.5188-.0329-.9508.2965-1.2938.9706l-1.7277,3.399-1.4479-4.1048c-.1069-.2977-.4252-1.2031-1.224-1.2549-.4941-.0394-.9389.2885-1.2787.9578l-1.6464,3.2488-1.3133-3.9082c-.0992-.2922-.3977-1.186-1.1874-1.2415-.4961-.0355-.9284.282-1.2634.9459l-.4595.9127-.3303,3.7826,1.9392-3.8404,1.656,4.9221a4.272,4.272,0,0,1,.072,1.2302l-.0042.0542a3.56752,3.56752,0,0,1-.1746,1.0735l-2.0455,3.4262-1.6589-4.3679-.5263,2.5928.9311,2.4523.1168.2449-.2259.366-1.5993,3.1538-.2877-.9454-.6256,3.0963a5.88327,5.88327,0,0,1-.1993,1.8672l-.2724.4555-.832,4.1006.112-.1479,1.6611-2.7737,1.4097,3.9132.1196.2956-.2288.3688-1.6313,3.2097-1.2614-4.3322-.1857-.5102-.5865,2.9038,1.0284,3.5249a6.3125,6.3125,0,0,1-.1343,2.5514l-2.0237,3.3579-.4813-1.4689-1.3683,6.7561,1.552-3.0552,1.6259,5.8559a6.78321,6.78321,0,0,1-.1389,2.6906l-2.0656,3.3968-1.6364-5.2422-.0346-.1978-.5939,2.9188.9488,3.0385.1343.3611-.2485.3957-1.6138,3.1672-.3504-1.3825-.6582,3.261a7.39834,7.39834,0,0,1-.2063,2.4732l-.4411.7251-1.4233,7.0314,1.0284,4.301a7.647,7.647,0,0,1-.1689,2.8998l-2.0489,3.329-.5386-2.0029-1.5245,7.5282,1.6583-3.2397.0303.121,1.552,6.8284a8.32015,8.32015,0,0,1-.1766,3.0589l-2.0905,3.3692-.0077-.0252-1.5942-6.2464-.0541-.4816Z"/>
      <path class="cls-1" d="M189.53914,91.1222l-8.132,4.337a3.6149,3.6149,0,0,1-3.4988,0l-8.1315-4.337a1.02807,1.02807,0,0,1-.4243-.881,1.10289,1.10289,0,0,1,.3943-.9748l7.899-4.9657a3.66517,3.66517,0,0,1,4.0218.0008l7.8984,4.9649a1.09983,1.09983,0,0,1,.3949.9734,1.0237,1.0237,0,0,1-.4218.8824Zm-12.6456,5.607.1984-.1063-7.9801-4.2554-.4674-.347-.4666.347L160.2,96.6229l.1961.1063,7.8956,4.964.3527.3047.3554-.3047,7.8937-4.964Zm.1984,13.5156-.1984.1071-7.8937,4.9635-.3554.3047-.3527-.3047-7.8928-4.9635-.1989-.1071,7.9778-4.2546.4666-.3469.4674.3469,7.9801,4.2546Zm0,13.6227-.1984.1071-7.8937,4.9621-.3554.3061-.3527-.3061-7.8928-4.9621-.1989-.1071,7.9778-4.2554.4666-.3469.4674.3469,7.9801,4.2554Zm0,13.6222-.1984.1068-7.8937,4.9635-.3554.3047-.3527-.3047-7.8928-4.9635-.1989-.1068,7.9778-4.2548.4666-.347.4674.347,7.9801,4.2548Zm0,13.6241-.1984.1041-7.8937,4.9634-.3554.3056-.3527-.3056-7.8928-4.9634-.1989-.1041,7.9778-4.2562.4666-.3475.4674.3475,7.9801,4.2562Zm-9.5771,8.1187a1.01974,1.01974,0,0,0,.4243-.8804,1.1,1.1,0,0,0-.3968-.9743l-7.8957-4.9626a3.65179,3.65179,0,0,0-4.0223-.0008h-.0029l-7.8984,4.9643a1.10067,1.10067,0,0,0-.3949.9734,1.02382,1.02382,0,0,0,.4252.8804l8.1312,4.3385a3.61684,3.61684,0,0,0,3.496,0l8.1343-4.3385Zm.0275,11.7647a1.11267,1.11267,0,0,1,.3968.9762,1.01972,1.01972,0,0,1-.4243.881l-8.1343,4.3379a3.61578,3.61578,0,0,1-3.496,0l-8.1312-4.3379a1.02566,1.02566,0,0,1-.4252-.881,1.11292,1.11292,0,0,1,.3949-.9762l7.8984-4.9607h.0029a3.65432,3.65432,0,0,1,4.0223,0l7.8957,4.9607Zm-20.5691-1.1946-.3503.3056-.3549-.3056-7.8934-4.9634-.2013-.1041,7.9807-4.2562.4689-.3475.4646.3475,7.98,4.2562-.1958.1041-7.8985,4.9634Zm-1.4822,3.0518a1.02179,1.02179,0,0,0,.4246-.881,1.10939,1.10939,0,0,0-.3971-.9762l-7.8962-4.9607a3.655,3.655,0,0,0-4.0227,0h-.0019l-7.8965,4.9607a1.112,1.112,0,0,0-.3969.9762,1.02073,1.02073,0,0,0,.4272.881l8.1315,4.3379a3.61559,3.61559,0,0,0,3.4959,0l8.1321-4.3379Zm-20.5393-3.0518-.3526.3056-.3546-.3056-7.8965-4.9634-.1956-.1041,7.9801-4.2562.4666-.3475.4666.3475,7.9809,4.2562-.1993.1041-7.8956,4.9634Zm-1.4822,3.0518a1.03206,1.03206,0,0,0,.4243-.881,1.11143,1.11143,0,0,0-.3997-.9762l-7.8936-4.9607a3.65448,3.65448,0,0,0-4.0224,0h-.002l-7.8984,4.9607a1.10886,1.10886,0,0,0-.3949.9762,1.02717,1.02717,0,0,0,.4244.881l8.132,4.3379a3.61578,3.61578,0,0,0,3.496,0l8.1343-4.3379Zm-20.5416-3.0518-.3503.3056-.3549-.3056-7.8962-4.9634-.1984-.1041,7.98-4.2562.4672-.3475.4669.3475,7.9801,4.2562-.1988.1041h.0023l-7.8979,4.9634Zm-1.485,3.0518a1.0131,1.0131,0,0,0,.4243-.881,1.10542,1.10542,0,0,0-.3949-.9762l-7.8956-4.9607a3.65766,3.65766,0,0,0-4.0243,0l-7.8965,4.9607a1.105,1.105,0,0,0-.3969.9762,1.019,1.019,0,0,0,.4244.881l8.1315,4.3379a3.61675,3.61675,0,0,0,3.4965,0l8.1315-4.3379Zm-20.5365-3.0518-.3555.3056-.3526-.3056-7.8956-4.9634-.1964-.1041,7.9781-4.2562.4665-.3475.4675.3475,7.9801,4.2562-.1984.1041h.0019l-7.8956,4.9634Zm-1.4851,3.0518a1.02529,1.02529,0,0,0,.4244-.881,1.11271,1.11271,0,0,0-.3969-.9762l-7.8984-4.9607a3.65449,3.65449,0,0,0-4.0224,0l-7.8956,4.9607a1.10933,1.10933,0,0,0-.3977.9762,1.026,1.026,0,0,0,.4249.881l8.1315,4.3379a3.60823,3.60823,0,0,0,3.4959,0l8.1343-4.3379Zm-19.7617-13.6219,8.1315,4.3385a3.609,3.609,0,0,0,3.4959,0l8.1343-4.3379a1.02729,1.02729,0,0,0,.4244-.881,1.10007,1.10007,0,0,0-.3969-.9743l-7.8984-4.9626a3.652,3.652,0,0,0-4.0224-.0008l-7.8956,4.9643a1.094,1.094,0,0,0-.3977.9734,1.02414,1.02414,0,0,0,.4249.8804Zm-.7798-3.0512-.3526.3056-.3504-.3056-7.8956-4.9634-.2013-.1041,7.9807-4.2562.4688-.3475.4672.3475,7.9772,4.2562-.1955.1041-7.8985,4.9634Zm-8.5986-18.5848-.2013-.1068,7.9807-4.2548.4688-.347.4672.347,7.9772,4.2548-.1955.1068-7.8985,4.9635-.3504.3047-.3526-.3047-7.8956-4.9635Zm0-13.6219-.2013-.1071,7.9827-4.2554.4668-.3469.4672.3469,7.9801,4.2554-.1984.1071-7.8985,4.9621-.3504.3061-.3526-.3061-7.8956-4.9621Zm0-13.6227-.2013-.1071,7.9827-4.2546.4668-.3469.4672.3469,7.9801,4.2546-.1984.1071-7.8985,4.9635-.3526.3047-.3504-.3047-7.8956-4.9635Zm0-13.6227-.2013-.1063,7.9827-4.2554.4668-.347.4672.347,7.9801,4.2554-.1984.1063-7.8985,4.964-.3526.3042-.3504-.3042-7.8956-4.964Zm-1.0179-1.27,8.1343-4.337a1.02987,1.02987,0,0,0,.4243-.8824,1.10315,1.10315,0,0,0-.3968-.9734l-7.8965-4.9649a3.66445,3.66445,0,0,0-4.0224-.0008l-7.8984,4.9657a1.10214,1.10214,0,0,0-.3969.9734,1.03112,1.03112,0,0,0,.4244.8824l8.1343,4.337a3.6087,3.6087,0,0,0,3.4937,0Zm10.3691-6.1928a1.09951,1.09951,0,0,0-.3977.9734,1.03114,1.03114,0,0,0,.4249.8824l8.1315,4.337a3.613,3.613,0,0,0,3.4959,0l8.1343-4.337a1.0287,1.0287,0,0,0,.4244-.8824,1.10319,1.10319,0,0,0-.3969-.9734l-7.8984-4.9649a3.66445,3.66445,0,0,0-4.0224-.0008l-7.8956,4.9657Zm20.9185,2.7541.4675.347,7.9801,4.2554-.1965.1063-7.8956,4.964-.3555.3042-.3526-.3042-7.8956-4.964-.1964-.1063,7.9781-4.2554.4665-.347Zm1.105-2.7541a1.09521,1.09521,0,0,0-.3969.9734,1.02225,1.02225,0,0,0,.4244.8824l8.1315,4.337a3.61412,3.61412,0,0,0,3.4965,0l8.1315-4.337a1.01762,1.01762,0,0,0,.4243-.8824,1.09933,1.09933,0,0,0-.3949-.9734l-7.8956-4.9649a3.665,3.665,0,0,0-4.0243-.0008l-7.8965,4.9657Zm20.9194,2.7541.4669.347,7.9801,4.2554-.1965.1063-7.8979,4.964-.3503.3042-.3549-.3042-7.8985-4.964-.1961-.1063,7.98-4.2554.4672-.347Zm1.1024-2.7541a1.099,1.099,0,0,0-.3949.9734,1.03234,1.03234,0,0,0,.4244.8824l8.132,4.337a3.60948,3.60948,0,0,0,3.496,0l8.1343-4.337a1.03464,1.03464,0,0,0,.4243-.881,1.10375,1.10375,0,0,0-.3997-.9748l-7.8936-4.9649a3.66684,3.66684,0,0,0-4.0244-.0008l-7.8984,4.9657Zm20.9214,2.7541.4666.347,7.9809,4.2554-.1993.1063-7.8956,4.964-.3526.3047-.3546-.3047-7.8965-4.964-.1956-.1063,7.9801-4.2554.4666-.347Zm1.1021-2.7541a1.10214,1.10214,0,0,0-.3969.9734,1.02583,1.02583,0,0,0,.4272.8824l8.1315,4.337a3.60928,3.60928,0,0,0,3.4959,0l8.1321-4.337a1.02638,1.02638,0,0,0,.4246-.8824,1.10328,1.10328,0,0,0-.3971-.9734l-7.8962-4.9649a3.66546,3.66546,0,0,0-4.0246-.0008l-7.8965,4.9657Zm20.9217,2.7541.4646.347,7.98,4.2554-.1958.1063-7.8985,4.964-.3503.3042-.3549-.3042-7.8957-4.964-.199-.1063,7.9807-4.2554.4689-.347Zm12.7576,17.0609a3.61052,3.61052,0,0,1-3.496,0l-8.1312-4.3364a1.03081,1.03081,0,0,1-.4252-.8824,1.10321,1.10321,0,0,1,.3949-.9735l7.8984-4.9657a3.66646,3.66646,0,0,1,4.0252.0009l7.8957,4.964a1.10317,1.10317,0,0,1,.3968.9743,1.02628,1.02628,0,0,1-.4243.8824l-8.1343,4.3364Zm0,13.6228,8.1343-4.3371a1.02488,1.02488,0,0,0,.4243-.8827,1.10343,1.10343,0,0,0-.3968-.9739l-7.8957-4.9644a3.65888,3.65888,0,0,0-4.0223,0h-.0029l-7.8984,4.9649a1.10441,1.10441,0,0,0-.3949.9734,1.03019,1.03019,0,0,0,.4252.8827l8.1312,4.3371a3.61157,3.61157,0,0,0,3.496,0Zm0,13.6207,8.1343-4.3364a1.023,1.023,0,0,0,.4243-.8805,1.1064,1.1064,0,0,0-.3968-.9757l-7.8957-4.9634a3.65989,3.65989,0,0,0-4.0223-.0006h-.0029l-7.8984,4.964a1.11,1.11,0,0,0-.3949.9749,1.02825,1.02825,0,0,0,.4252.8813l8.1312,4.337a3.60633,3.60633,0,0,0,3.496-.0006Zm-11.6272,9.2863,8.1312,4.3356a3.60319,3.60319,0,0,0,3.496,0l8.1343-4.3356a1.02294,1.02294,0,0,0,.4243-.8813,1.10669,1.10669,0,0,0-.3968-.9762l-7.8957-4.9626a3.65685,3.65685,0,0,0-4.0223,0h-.0029l-7.8984,4.9634a1.109,1.109,0,0,0-.3949.9754,1.02825,1.02825,0,0,0,.4252.8813Zm-22.0521,11.7666a1.09938,1.09938,0,0,0-.3969.9743,1.01891,1.01891,0,0,0,.4272.8804l8.1315,4.3385a3.61664,3.61664,0,0,0,3.4959,0l8.1321-4.3379a1.02378,1.02378,0,0,0,.4246-.881,1.09328,1.09328,0,0,0-.3971-.9743l-7.8962-4.9626a3.65246,3.65246,0,0,0-4.0227-.0008h-.0019l-7.8965,4.9634Zm-9.3532-6.1599-.1956-.1041,7.9801-4.2562.4666-.3475.4666.3475,7.9809,4.2562-.1993.1041-7.8956,4.9634-.3526.3056-.3546-.3056-7.8965-4.9634Zm-12.6703,6.1599a1.0963,1.0963,0,0,0-.3949.9743,1.02533,1.02533,0,0,0,.4244.8804l8.132,4.3385a3.61684,3.61684,0,0,0,3.496,0l8.1343-4.3379a1.03409,1.03409,0,0,0,.4243-.881,1.10149,1.10149,0,0,0-.3997-.9743l-7.8936-4.9626a3.652,3.652,0,0,0-4.0224-.0008h-.002l-7.8984,4.9634Zm-9.3512-6.1599-.1984-.1041,7.98-4.2562.4672-.3475.4669.3475,7.9801,4.2562-.1988.1041h.0023l-7.8979,4.9634-.3503.3056-.3549-.3056-7.8962-4.9634Zm-12.6706,6.1599a1.0925,1.0925,0,0,0-.3969.9743,1.01718,1.01718,0,0,0,.4244.8804l8.1315,4.3385a3.61781,3.61781,0,0,0,3.4965,0l8.1315-4.3379a1.015,1.015,0,0,0,.4243-.881,1.09063,1.09063,0,0,0-.3949-.9743l-7.8956-4.9626a3.65513,3.65513,0,0,0-4.0243-.0008l-7.8965,4.9634Zm-1.5715-10.5202.4665-.3475.4675.3475,7.9801,4.2562-.1984.1041h.0019l-7.8956,4.9634-.3555.3056-.3526-.3056-7.8956-4.9634-.1964-.1041,7.9781-4.2562Zm-10.5449-8.6698a3.77834,3.77834,0,0,0-2.0115.6033l-7.8956,4.9634a1.10216,1.10216,0,0,0-.3977.9754,1.02857,1.02857,0,0,0,.4249.8813l8.1315,4.3356a3.59778,3.59778,0,0,0,3.4959,0l8.1343-4.3356a1.02855,1.02855,0,0,0,.4244-.8813,1.10673,1.10673,0,0,0-.3969-.9762l-7.8984-4.9626a3.76089,3.76089,0,0,0-2.0109-.6033Zm0-13.6221a3.77918,3.77918,0,0,0-2.0115.6026l-7.8956,4.964a1.10315,1.10315,0,0,0-.3977.9749,1.02857,1.02857,0,0,0,.4249.8813l8.1315,4.337a3.60221,3.60221,0,0,0,3.4959-.0006l8.1343-4.3364a1.02859,1.02859,0,0,0,.4244-.8805,1.10644,1.10644,0,0,0-.3969-.9757l-7.8984-4.9634a3.76076,3.76076,0,0,0-2.0109-.6032Zm0-13.6219a3.77178,3.77178,0,0,0-2.0115.6023l-7.8956,4.9649a1.0987,1.0987,0,0,0-.3977.9734,1.03052,1.03052,0,0,0,.4249.8827l8.1315,4.3371a3.61506,3.61506,0,0,0,3.4959,0l8.1343-4.3371a1.0305,1.0305,0,0,0,.4244-.8827,1.10348,1.10348,0,0,0-.3969-.9739l-7.8984-4.9644a3.75961,3.75961,0,0,0-2.0109-.6023Zm9.8818-6.1988a1.03,1.03,0,0,0,.4244-.8824,1.10321,1.10321,0,0,0-.3969-.9743l-7.8984-4.964a3.66445,3.66445,0,0,0-4.0224-.0009l-7.8956,4.9657a1.09808,1.09808,0,0,0-.3977.9735,1.03114,1.03114,0,0,0,.4249.8824l8.1315,4.3364a3.61243,3.61243,0,0,0,3.4959,0l8.1343-4.3364Zm9.5772,5.4998-.1984.1071h.0019l-7.8956,4.9635-.3555.3047-.3526-.3047-7.8956-4.9635-.1964-.1071,7.9781-4.2546.4665-.3469.4675.3469,7.9801,4.2546Zm12.4444-5.4998a1.01957,1.01957,0,0,0,.4243-.8824,1.09867,1.09867,0,0,0-.3949-.9743l-7.8956-4.964a3.665,3.665,0,0,0-4.0243-.0009l-7.8965,4.9657a1.0938,1.0938,0,0,0-.3969.9735,1.02225,1.02225,0,0,0,.4244.8824l8.1315,4.3364a3.6136,3.6136,0,0,0,3.4965,0l8.1315-4.3364Zm9.5794,5.4998-.1988.1071h.0023l-7.8979,4.9635-.3503.3047-.3549-.3047-7.8962-4.9635-.1984-.1071,7.98-4.2546.4672-.3469.4669.3469,7.9801,4.2546Zm12.4472-5.4998a1.03656,1.03656,0,0,0,.4243-.8819,1.10235,1.10235,0,0,0-.3997-.9748l-7.8936-4.964a3.66665,3.66665,0,0,0-4.0244-.0009l-7.8984,4.9657a1.09761,1.09761,0,0,0-.3949.9735,1.03234,1.03234,0,0,0,.4244.8824l8.132,4.3364a3.61052,3.61052,0,0,0,3.496,0l8.1343-4.3364Zm9.5771,5.4998-.1993.1071-7.8956,4.9635-.3526.3047-.3546-.3047-7.8965-4.9635-.1956-.1071,7.9801-4.2546.4666-.3469.4666.3469,7.9809,4.2546Zm12.4444-5.4998a1.02837,1.02837,0,0,0,.4246-.8824,1.1026,1.1026,0,0,0-.3971-.9743l-7.8962-4.964a3.66546,3.66546,0,0,0-4.0246-.0009l-7.8965,4.9657a1.10071,1.10071,0,0,0-.3969.9735,1.02583,1.02583,0,0,0,.4272.8824l8.1315,4.3364a3.61033,3.61033,0,0,0,3.4959,0l8.1321-4.3364Zm-19.7898,39.0087a1.10731,1.10731,0,0,0-.3969.9762,1.0233,1.0233,0,0,0,.4272.8813l8.1315,4.3356a3.603,3.603,0,0,0,3.4959,0l8.1321-4.3356a1.025,1.025,0,0,0,.4246-.8813,1.10088,1.10088,0,0,0-.4-.9762l-7.8933-4.9626a3.65752,3.65752,0,0,0-4.0227,0h-.0019l-7.8965,4.9626Zm-9.3532-6.1572-.1956-.1068,7.9801-4.2548.4666-.347.4666.347,7.9809,4.2548-.1993.1068-7.8956,4.9635-.3526.3047-.3546-.3047-7.8965-4.9635Zm-12.6703,6.1572a1.097,1.097,0,0,0-.3949.9762,1.02977,1.02977,0,0,0,.4244.8813l8.132,4.3356a3.60319,3.60319,0,0,0,3.496,0l8.1343-4.3356a1.03537,1.03537,0,0,0,.4243-.8813,1.10545,1.10545,0,0,0-.3997-.9762l-7.8936-4.9626a3.657,3.657,0,0,0-4.0224,0h-.002l-7.8984,4.9626Zm-9.3512-6.1572-.1984-.1068,7.98-4.2548.4672-.347.4669.347,7.9801,4.2548-.1988.1068h.0023l-7.8979,4.9635-.3526.3027-.3526-.3027-7.8962-4.9635Zm-12.6706,6.1572a1.10035,1.10035,0,0,0-.3969.9762,1.02156,1.02156,0,0,0,.4244.8813l8.1315,4.3356a3.60416,3.60416,0,0,0,3.4965,0l8.1315-4.3356a1.01627,1.01627,0,0,0,.4243-.8813,1.09879,1.09879,0,0,0-.3969-.9762l-7.8936-4.9626a3.66019,3.66019,0,0,0-4.0243,0l-7.8965,4.9626Zm-1.105-10.8658.4675.347,7.9801,4.2548-.1984.1068h.0019l-7.8956,4.9635-.3555.3047-.3526-.3047-7.8956-4.9635-.1964-.1068,7.9781-4.2548.4665-.347Zm8.4476-9.0204-.1984.1071h.0019l-7.8956,4.9621-.3555.3061-.3526-.3061-7.8956-4.9621-.1964-.1071,7.9781-4.2554.4665-.3469.4675.3469,7.9801,4.2554Zm12.4444-5.5004a1.0182,1.0182,0,0,0,.4243-.8827,1.098,1.098,0,0,0-.3949-.9739l-7.8956-4.9644a3.66222,3.66222,0,0,0-4.0243,0l-7.8965,4.9649a1.09441,1.09441,0,0,0-.3969.9734,1.02349,1.02349,0,0,0,.4244.8827l8.1315,4.3371a3.61623,3.61623,0,0,0,3.4965,0l8.1315-4.3371Zm.4243,12.7401a1.09785,1.09785,0,0,0-.3969-.9749l-7.8936-4.9634a3.66324,3.66324,0,0,0-4.0243-.0006l-7.8965,4.964a1.09948,1.09948,0,0,0-.3969.9757,1.02106,1.02106,0,0,0,.4244.8805l8.1315,4.337a3.61465,3.61465,0,0,0,3.4965-.0006l8.1315-4.3364a1.01679,1.01679,0,0,0,.4243-.8813Zm9.1551-7.2397-.1988.1071h.0023l-7.8979,4.9621-.3526.3047-.3526-.3047-7.8962-4.9621-.1984-.1071,7.98-4.2554.4672-.3469.4669.3469,7.9801,4.2554Zm12.4472-5.5004a1.03639,1.03639,0,0,0,.4243-.8812,1.10341,1.10341,0,0,0-.3997-.9754l-7.8936-4.9644a3.66617,3.66617,0,0,0-4.0224,0h-.002l-7.8984,4.9649a1.09823,1.09823,0,0,0-.3949.9734,1.03172,1.03172,0,0,0,.4244.8827l8.132,4.3371a3.61158,3.61158,0,0,0,3.496,0l8.1343-4.3371Zm.4243,12.7409a1.10517,1.10517,0,0,0-.3997-.9757l-7.8936-4.9634a3.66006,3.66006,0,0,0-4.0224-.0006h-.002l-7.8984,4.964a1.09615,1.09615,0,0,0-.3949.9757,1.029,1.029,0,0,0,.4244.881l8.132,4.3365a3.60633,3.60633,0,0,0,3.496-.0006l8.1343-4.3364a1.03351,1.03351,0,0,0,.4243-.8805Zm9.1528-7.2405-.1993.1071-7.8956,4.9621-.3526.3061-.3546-.3061-7.8965-4.9621-.1956-.1071,7.9801-4.2554.4666-.3469.4666.3469,7.9809,4.2554Zm4.5757,1.3008a3.66209,3.66209,0,0,0-4.0227,0h-.0019l-7.8965,4.964a1.10644,1.10644,0,0,0-.3969.9757,1.0228,1.0228,0,0,0,.4272.8805l8.1315,4.337a3.60614,3.60614,0,0,0,3.4959-.0006l8.1321-4.3364a1.02556,1.02556,0,0,0,.4246-.8813,1.1,1.1,0,0,0-.4-.9749l-7.8933-4.964Zm-.2634-2.4641,8.1321-4.3371a1.027,1.027,0,0,0,.4246-.8827,1.10193,1.10193,0,0,0-.3971-.9739l-7.8962-4.9644a3.65955,3.65955,0,0,0-4.0227,0h-.0019l-7.8965,4.9649a1.10132,1.10132,0,0,0-.3969.9734,1.02522,1.02522,0,0,0,.4272.8827l8.1315,4.3371a3.61138,3.61138,0,0,0,3.4959,0Zm17.5128,14.8923-7.8985,4.9635-.3503.3027-.3549-.3027-7.8934-4.9635-.2013-.1068,7.9807-4.2548.4689-.347.4646.347,7.98,4.2548-.1958.1068Zm0-13.6219-7.8985,4.9621-.3503.3047-.3549-.3047-7.8934-4.9621-.2013-.1071,7.9807-4.2554.4689-.3469.4646.3469,7.98,4.2554-.1958.1071Zm0-13.6227.1958-.1071-7.98-4.2546-.4646-.3469-.4689.3469-7.9778,4.2546.1984.1071,7.8934,4.9635.3549.3047.3503-.3047,7.8985-4.9635Zm0,40.866-7.8985,4.9634-.3503.3056-.3549-.3056-7.8934-4.9634-.2013-.1041,7.9807-4.2562.4689-.3475.4646.3475,7.98,4.2562-.1958.1041ZM147.723,89.2664l7.8984-4.9657a3.66646,3.66646,0,0,1,4.0252.0008l7.8957,4.9649a1.10315,1.10315,0,0,1,.3968.9734,1.02429,1.02429,0,0,1-.4243.8824l-8.1343,4.337a3.60947,3.60947,0,0,1-3.496,0l-8.1312-4.337a1.03081,1.03081,0,0,1-.4252-.8824,1.10629,1.10629,0,0,1,.3949-.9734Zm42.5905-1.1959-7.8956-4.9635a5.09425,5.09425,0,0,0-5.5253,0l-7.8928,4.9635-.3554.3061-.3527-.3061-7.8956-4.9635a5.08545,5.08545,0,0,0-5.5244,0l-7.8985,4.9635-.3503.3047-.3549-.3047-7.8957-4.9635a5.08646,5.08646,0,0,0-5.525,0l-7.8956,4.9635-.3526.3061-.3546-.3061L116.348,83.107a5.09017,5.09017,0,0,0-5.5222,0l-7.8979,4.9635-.3503.3047-.3549-.3047-7.8985-4.9635a5.08172,5.08172,0,0,0-5.5222,0l-7.8956,4.9635-.3555.3047-.3526-.3047-7.8956-4.9635a5.08839,5.08839,0,0,0-5.5244,0l-7.8985,4.9635-.3526.3047-.3504-.3047-7.8956-4.9635a5.09331,5.09331,0,0,0-5.5273,0l-7.8956,4.9635a2.48243,2.48243,0,0,0-1.0579,2.2192,2.383,2.383,0,0,0,1.1718,2.0778l7.981,4.2554-.1993.1063-7.8956,4.964-.0621.0522.4246,1.9635a1.0375,1.0375,0,0,1,.387-.8198l7.8984-4.9657a3.66445,3.66445,0,0,1,4.0224.0009l7.8965,4.964a1.10317,1.10317,0,0,1,.3968.9743,1.03121,1.03121,0,0,1-.4243.8824l-8.1343,4.3364a3.60817,3.60817,0,0,1-3.4937,0l-8.1343-4.3364-.2455-.2583.4221,1.9517,7.1413,3.8064-.1993.1071-5.3654,3.3727.3155,1.4675,5.8022-3.646a3.659,3.659,0,0,1,4.0224,0l7.8965,4.9644a1.10343,1.10343,0,0,1,.3968.9739,1.03166,1.03166,0,0,1-.4243.8827l-8.1343,4.3371a3.6108,3.6108,0,0,1-3.4937,0l-5.0176-2.6759.3892,1.8073,3.812,2.0319-.1993.1071-2.7731,1.7419.3175,1.4675,3.2079-2.0157a3.66006,3.66006,0,0,1,4.0224.0006l7.8965,4.9634a1.1064,1.1064,0,0,1,.3968.9757,1.02976,1.02976,0,0,1-.4243.8805l-8.1343,4.3364a3.60189,3.60189,0,0,1-3.4937.0006l-1.6886-.9003.3928,1.8091.4794.2554-.1993.1068-.1789.112.3184,1.4675.6128-.3849a3.657,3.657,0,0,1,4.0224,0l7.8965,4.9626a1.10669,1.10669,0,0,1,.3968.9762,1.02972,1.02972,0,0,1-.4243.8813l-8.1343,4.3356a3.62783,3.62783,0,0,1-1.9469.4272l.3127,1.4522a3.77809,3.77809,0,0,1,1.8995.589l7.8965,4.9626a1.1,1.1,0,0,1,.3968.9743,1.02846,1.02846,0,0,1-.4243.881l-7.3199,3.903.3104,1.4349,7.6725-4.0921.4688-.3475.4672.3475,7.9772,4.2562-.1955.1041-7.8985,4.9634-.3526.3056-.3504-.3056-7.7071-4.8415.4175,1.9292,6.5379,4.1069a1.11267,1.11267,0,0,1,.3968.9762,1.02645,1.02645,0,0,1-.4243.881l-4.6806,2.4959.3104,1.4352,5.0352-2.6844.4668-.3478.4672.3478,8.1315,4.3376a5.045,5.045,0,0,0,4.8242,0l8.1321-4.3376.4665-.345.4675.345,8.134,4.3376a5.04516,5.04516,0,0,0,4.8243,0l8.1314-4.3376.4672-.3478.4669.3478,8.1311,4.3376a5.05086,5.05086,0,0,0,4.8272,0l8.132-4.3376.4666-.345.4666.345,8.1343,4.3376a5.03894,5.03894,0,0,0,4.8248-.002l8.1292-4.3356.4689-.3478.4646.3478,8.134,4.3376a5.04516,5.04516,0,0,0,4.8243,0l8.132-4.3376.4666-.345.4674.345,2.4029,1.281.3356-1.4205-2.0735-1.1072a1.02566,1.02566,0,0,1-.4243-.881,1.10986,1.10986,0,0,1,.3943-.9762l3.2904-2.0659.4615-1.9565-4.4989,2.8278-.3554.3056-.3527-.3056-7.8928-4.9634-.1989-.1041,7.9778-4.2562.4666-.3475.4674.3475,5.2583,2.8041.333-1.4202-4.9263-2.6303a1.02382,1.02382,0,0,1-.4243-.8804,1.09782,1.09782,0,0,1,.3943-.9734l7.0622-4.4405.7495-3.1779-7.7817-4.1491a1.02826,1.02826,0,0,1-.4243-.8813,1.10269,1.10269,0,0,1,.3943-.9754l7.899-4.9634a3.64591,3.64591,0,0,1,2.6189-.5131l.3929-1.6583a3.59341,3.59341,0,0,1-2.7493-.2942l-8.1315-4.337a1.02589,1.02589,0,0,1-.4243-.8805,1.10432,1.10432,0,0,1,.3943-.9757l7.899-4.964a3.65906,3.65906,0,0,1,4.0218.0006l1.4703.9235.3447-1.4513-1.0627-.6665-.1956-.1071,1.6461-.8782.4323-1.83-2.8956,1.5449a3.617,3.617,0,0,1-3.4988,0l-8.1315-4.3371a1.02927,1.02927,0,0,1-.4243-.8812,1.10043,1.10043,0,0,1,.3943-.9749l7.899-4.9649a3.66135,3.66135,0,0,1,4.0218,0l4.2687,2.683.3427-1.4524-3.8591-2.4248-.1956-.1071,5.3209-2.8378.4295-1.8301-6.5676,3.5045a3.616,3.616,0,0,1-3.4988,0l-8.1315-4.3364a1.02863,1.02863,0,0,1-.4243-.8819,1.099,1.099,0,0,1,.3943-.974l7.899-4.9657a3.665,3.665,0,0,1,4.0218.0009l7.067,4.4404.3402-1.4513-6.6569-4.1842-.1964-.1063,7.9829-4.2554a2.37493,2.37493,0,0,0,1.167-2.0778A2.47458,2.47458,0,0,0,190.31354,88.0705Z"/>
      <g>
        <path class="cls-1" d="M228.46084,146.2802a1.82882,1.82882,0,0,1,.4487,1.3138,1.785,1.785,0,0,1-.1874.6682,1.88806,1.88806,0,0,1-.4368.5729,1.829,1.829,0,0,1-1.3028.4359,1.8561,1.8561,0,0,1-1.6866-1.938,1.82975,1.82975,0,0,1,.612-1.23,1.606,1.606,0,0,1,.6273-.3537,1.75134,1.75134,0,0,1,.6877-.0933l.341.0618.3498.1261.2835.1868Z"/>
        <path class="cls-1" d="M80.683,26.2517a1.77973,1.77973,0,1,1-.2332-.351l.2332.351Zm6.6776-3.0274a1.81505,1.81505,0,0,1-3.3324,1.4397,1.80778,1.80778,0,0,1,3.0325-1.8961l.2999.4564Zm6.8511-2.5269a1.81412,1.81412,0,1,1-.3439-.5904,1.74087,1.74087,0,0,1,.3439.5904Zm7.0225-2.0542a1.79457,1.79457,0,0,1-1.2829,2.2218l.0093.0113a1.817,1.817,0,0,1-.9604-3.5047,1.829,1.829,0,0,1,1.8604.5643,1.76436,1.76436,0,0,1,.3736.7073Zm7.1433-1.5585a1.81276,1.81276,0,1,1-3.5538.7172,1.812,1.812,0,0,1,3.1482-1.5404,1.74757,1.74757,0,0,1,.4056.8232Zm7.2329-1.0403a1.8078,1.8078,0,1,1-2.0083-1.563,1.79644,1.79644,0,0,1,2.0083,1.563Zm114.9698,124.6728a1.80134,1.80134,0,0,1-2.1379,1.4037,1.80881,1.80881,0,1,1,.7339-3.5424,1.77408,1.77408,0,0,1,1.0123.5828,1.80109,1.80109,0,0,1,.3917,1.5559ZM122.91334,15.5265a1.814,1.814,0,0,1-1.7113,1.8975,1.7946,1.7946,0,0,1-1.9088-1.6991,1.80371,1.80371,0,0,1,3.1691-1.2946,1.8698,1.8698,0,0,1,.451,1.0962Zm108.9088,117.8424h0a1.80967,1.80967,0,0,1-3.5875-.479l-.0134.0116a1.84473,1.84473,0,0,1,2.0469-1.5633,1.87536,1.87536,0,0,1,1.1268.6032,1.82619,1.82619,0,0,1,.4272,1.4275ZM130.23044,15.4959a1.80412,1.80412,0,0,1-1.8303,1.7844,1.82675,1.82675,0,0,1-1.7978-1.8445,1.81437,1.81437,0,0,1,3.6281.0601Zm102.2975,110.4667.0114.013a1.8107,1.8107,0,1,1-.4468-1.3153,1.77371,1.77371,0,0,1,.4354,1.3023ZM137.52514,15.9885a1.81152,1.81152,0,1,1-1.6487-1.9516,1.77279,1.77279,0,0,1,1.2155.5987,1.85,1.85,0,0,1,.4332,1.3529Zm95.212,102.5439a1.81066,1.81066,0,1,1-1.8269-1.7966,1.76529,1.76529,0,0,1,1.3807.6205,1.82761,1.82761,0,0,1,.4462,1.1761ZM144.77444,16.9775a1.806,1.806,0,1,1-1.5007-2.0545,1.73891,1.73891,0,0,1,1.0741.6012,1.79661,1.79661,0,0,1,.4266,1.4533Zm87.6302,94.11a1.79128,1.79128,0,1,1-.4272-1.0426,1.72524,1.72524,0,0,1,.4272,1.0426Zm-80.4577-92.598a1.814,1.814,0,1,1-1.3652-2.1724,1.77456,1.77456,0,0,1,.9607.5794,1.8087,1.8087,0,0,1,.4045,1.593Zm79.6235,85.2118a1.81575,1.81575,0,0,1-3.5918.5349,1.8318,1.8318,0,0,1,1.5423-2.0628,1.79971,1.79971,0,0,1,2.0495,1.5279ZM158.98334,20.482a1.81118,1.81118,0,0,1-3.4707-1.0372,1.82893,1.82893,0,0,1,2.2558-1.2172,1.89014,1.89014,0,0,1,.8337.546,1.79886,1.79886,0,0,1,.3812,1.7084Zm71.2338,75.9008h0a1.8326,1.8326,0,0,1-1.383,2.1617,1.81078,1.81078,0,1,1,.9768-2.9594,1.92167,1.92167,0,0,1,.4062.7977Zm-64.3595-73.4097a1.798,1.798,0,1,1-.3223-1.8312,1.76664,1.76664,0,0,1,.3223,1.8312ZM228.342,89.1782a1.81641,1.81641,0,0,1-1.2345,2.2513,1.81094,1.81094,0,0,1-1.0275-3.473,1.81724,1.81724,0,0,1,1.8873.5409,1.91449,1.91449,0,0,1,.3747.6808Zm-55.7836-63.2233a1.81668,1.81668,0,1,1-.8875-2.3987,1.75777,1.75777,0,0,1,.5984.4408,1.82782,1.82782,0,0,1,.2891,1.9579Zm53.3988,56.1792a1.79515,1.79515,0,0,1-1.0465,2.3262,1.81676,1.81676,0,1,1,.7268-2.888,1.6575,1.6575,0,0,1,.3197.5618Zm-46.9519-52.7417a1.81047,1.81047,0,1,1-.7022-2.4621,1.954,1.954,0,0,1,.4867.3948,1.8042,1.8042,0,0,1,.2155,2.0673Zm44.0912,45.868a1.81149,1.81149,0,1,1-3.2899,1.5174,1.81136,1.81136,0,0,1,3.0124-1.9468l.2775.4294Zm-37.8799-41.9839a1.80823,1.80823,0,1,1-3.0331-1.9695,1.83059,1.83059,0,0,1,2.5166-.5313l.3605.3323a1.779,1.779,0,0,1,.156,2.1685Zm34.5265,35.3466a1.73581,1.73581,0,1,1-.2061-.3232l.2061.3232Zm-28.6242-31.0218a1.78818,1.78818,0,0,1-2.5271.3509,1.81268,1.81268,0,1,1,2.1875-2.891l.2661.2508a1.806,1.806,0,0,1,.0735,2.2893Zm24.8076,24.6203a1.81027,1.81027,0,1,1-3.0367,1.9715,1.811,1.811,0,0,1,2.8854-2.175l.1513.2035Zm-19.2203-19.9069a1.80888,1.80888,0,0,1-2.7207-2.3845,1.82747,1.82747,0,0,1,2.5654-.1686l.1686.1678a1.81009,1.81009,0,0,1-.0133,2.3853Zm14.9857,13.7985a1.8661,1.8661,0,1,1-.0947-.1097l.0947.1097Zm-9.7302-8.6986a1.807,1.807,0,0,1-2.5654.0028,1.81466,1.81466,0,1,1,2.5773-2.5552l.0708.0817a1.81306,1.81306,0,0,1-.0827,2.4707Zm4.8716,5.4598a1.81078,1.81078,0,0,1-2.3638-2.7437,1.81079,1.81079,0,1,1,2.3638,2.7437Z"/>
        <path class="cls-1" d="M73.98254,29.5625l.2004.2826.1551.3175.0666.3529.0161.3478a1.82122,1.82122,0,0,1-1.94,1.6881l-.3444-.0621-.326-.127-.3056-.1865a2.28644,2.28644,0,0,1-.4643-.5346l-.1437-.3289-.0805-.3398-.0136-.3495a2.19805,2.19805,0,0,1,.1908-.6914,1.86471,1.86471,0,0,1,1.7492-.9967l.3419.0638.3399.114.2939.1981Z"/>
      </g>
      <polygon class="cls-1" points="48.095 18.72 52.425 26.552 61.33 27.427 55.218 33.964 57.138 42.705 49.033 38.911 41.314 43.438 42.417 34.558 35.725 28.615 44.512 26.92 48.095 18.72"/>
      <polygon class="cls-1" points="74.037 38.139 73.892 43.823 78.492 47.165 73.041 48.783 71.285 54.191 68.062 49.507 62.375 49.507 65.833 44.994 64.077 39.586 69.439 41.482 74.037 38.139"/>
      <polygon class="cls-1" points="34.568 42.271 35.315 47.908 40.38 50.488 35.251 52.94 34.363 58.556 30.445 54.434 24.83 55.326 27.539 50.327 24.958 45.261 30.548 46.292 34.568 42.271"/>
    </g>
    <g>
      <path class="cls-3" d="M120.00014,50.9054a42.9599,42.9599,0,1,1-42.9599,42.9599,42.96011,42.96011,0,0,1,42.9599-42.9599Zm0,7.92a35.0399,35.0399,0,1,0,35.04,35.0399A35.04016,35.04016,0,0,0,120.00014,58.8254Z"/>
      <path class="cls-4" d="M118.91364,136.8116l-.0374-.0008q-.53535-.0141-1.0675-.0406l-.0437-.0022q-.52215-.02685-1.0406-.0661l-.07-.0056q-.49485-.0384-.9859-.0874l-.1335-.0136q-.47925-.0492-.9553-.1094a42.962,42.962,0,0,1,5.4204-85.5805v7.92a35.04169,35.04169,0,0,0-5.5199,69.6456l.3751.0572q.25035.037.502.0703l.3489.0445q.2892.0354.5797.0664l.2557.026q.3252.0324.6525.0581l.2019.0154q.3771.02805.7562.0479l.0794.0042q.4197.0213.8416.032l.0349.0012q.44475.0114.892.011a35.04012,35.04012,0,0,0,35.04-35.0399c0-.1281-.0035-.2551-.0049-.3829h7.92c.0012.1278.0049.2548.0049.3829a42.96011,42.96011,0,0,1-42.96,42.9599Q119.45549,136.8252,118.91364,136.8116Z"/>
    </g>
    <polygon class="cls-5" points="119.002 83.159 119.002 86.062 114.103 104.329 110.776 104.329 115.645 86.183 109.022 86.183 109.022 83.159 119.002 83.159"/>
    <path class="cls-5" d="M124.20394,97.4945v1.9658a2.18978,2.18978,0,0,0,.4689,1.6028,1.96241,1.96241,0,0,0,2.5101,0,2.19024,2.19024,0,0,0,.4688-1.6028V94.8027a2.24789,2.24789,0,0,0-.4688-1.618,1.91438,1.91438,0,0,0-2.5101,0,2.24741,2.24741,0,0,0-.4689,1.618v.6353h-3.1453l.6049-12.2789h8.7707v3.0243h-5.7764l-.2725,5.0505a3.1589,3.1589,0,0,1,2.9036-1.5423,3.22759,3.22759,0,0,1,2.7672,1.2399,5.96621,5.96621,0,0,1,.9223,3.5991v4.718a5.65537,5.65537,0,0,1-1.2551,3.9467,5.67472,5.67472,0,0,1-7.4095,0,5.6554,5.6554,0,0,1-1.2552-3.9467V97.4945Z"/>
    <rect class="cls-6" x="33.47604" y="156.9053" width="173.0483" height="32.1894" rx="8.9138"/>
  </g>
</svg>
