<svg xmlns="http://www.w3.org/2000/svg" viewBox="0 0 240.0001 240.00009">
  <defs>
    <style>
      .cls-1, .cls-2 {
        fill: #dcedf2;
      }

      .cls-1, .cls-10, .cls-11, .cls-12, .cls-13, .cls-14, .cls-15, .cls-16, .cls-17, .cls-18, .cls-19, .cls-21, .cls-23, .cls-25, .cls-26, .cls-27, .cls-4, .cls-5, .cls-6, .cls-7, .cls-8, .cls-9 {
        fill-rule: evenodd;
      }

      .cls-3 {
        fill: #64748b;
        stroke: #434e5e;
        stroke-width: 0.9598px;
      }

      .cls-20, .cls-21, .cls-22, .cls-3 {
        stroke-miterlimit: 22.9256;
      }

      .cls-4 {
        fill: #e0e0e1;
      }

      .cls-5 {
        fill: #fff;
      }

      .cls-6 {
        fill: #f8bea1;
      }

      .cls-7 {
        fill: #fbd4bc;
      }

      .cls-8 {
        fill: #3c3b3b;
      }

      .cls-9 {
        fill: #78c3a6;
      }

      .cls-10 {
        fill: #78c2a4;
      }

      .cls-11 {
        fill: #fefefe;
      }

      .cls-12 {
        fill: #74c1a3;
      }

      .cls-13 {
        fill: #74c1a2;
      }

      .cls-14 {
        fill: #72c0a0;
      }

      .cls-15 {
        fill: #facdb5;
      }

      .cls-16 {
        fill: #fcdcc8;
      }

      .cls-17 {
        fill: #71c0a2;
      }

      .cls-18 {
        fill: #605f60;
      }

      .cls-19 {
        fill: #434e5e;
      }

      .cls-20 {
        fill: #e2e8f0;
      }

      .cls-20, .cls-21, .cls-22 {
        stroke: #475569;
        stroke-width: 0.4799px;
      }

      .cls-21, .cls-22 {
        fill: #00b4ab;
      }

      .cls-23 {
        fill: #475569;
      }

      .cls-24 {
        fill: #21468b;
      }

      .cls-25 {
        fill: #ae1c28;
      }

      .cls-26 {
        fill: #df1f36;
      }

      .cls-27, .cls-28 {
        fill: #284069;
      }
    </style>
  </defs>
  <g id="_1-15" data-name="1">
    <g>
      <path class="cls-1" d="M214.27708,207.5536h-9.8798V86.4026l-175.5542-.0185a7.92187,7.92187,0,0,0-7.9132,7.9127V207.5536H11.05V94.2968a17.81312,17.81312,0,0,1,17.7931-17.7925h175.5366a9.90834,9.90834,0,0,1,9.8974,9.8983Z"/>
      <polygon class="cls-1" points="17.759 202.764 14.221 196.658 48.705 176.676 28.766 82.172 35.674 80.716 56.663 180.219 17.759 202.764"/>
      <polygon class="cls-1" points="207.568 202.764 168.665 180.219 189.655 80.716 196.561 82.172 176.625 176.676 211.108 196.658 207.568 202.764"/>
      <rect class="cls-2" x="52.68468" y="174.9203" width="119.9603" height="7.0566"/>
      <path class="cls-1" d="M45.42468,169.6584l-1.6912-3.2868-.2752-.4125.159-.4694,1.4352-5.1001,1.703,2.7709.1565.2041a5.08778,5.08778,0,0,0-.2191.7152l-1.2682,5.5786Zm-.4173,5.0507a8.26556,8.26556,0,0,0-.169-3.1031l-2.1994-4.2808-.0626.231-1.6886,7.0642a8.45725,8.45725,0,0,0,.1542,3.1652l2.2022,3.5158.0324-.1211,1.7308-6.4712Zm-5.2092-1.599-1.7827-3.4566-.2858-.4271.1718-.4859,1.5815-5.3736,1.7997,2.9046.1618.2121a5.44364,5.44364,0,0,0-.2387.7424l-1.4076,5.8841Zm-.4618,5.1126a8.35678,8.35678,0,0,0-.1443-3.2103l-2.3063-4.4651-.0943.3387-1.8454,7.3248a8.56011,8.56011,0,0,0,.1321,3.2743l2.3165,3.6674.0669-.2208,1.8748-6.709Zm-5.478-1.4723-1.879-3.6278-.2977-.4419.1857-.5069,1.7433-5.663,1.8989,3.0393.1718.2182a5.60029,5.60029,0,0,0-.2582.7748l-1.5648,6.2073Zm-.5059,5.1794a8.49248,8.49248,0,0,0-.1216-3.3227l-2.4115-4.6531-.1386.4518-2.0117,7.5986a8.68424,8.68424,0,0,0,.1048,3.3911l2.4356,3.8196.1068-.318,2.0362-6.9673Zm-5.7708-1.3337-1.9834-3.8086-.3081-.4595.2032-.5306,1.9193-5.9692,2.0067,3.1804.174.2203a5.35131,5.35131,0,0,0-.2761.8152l-1.7356,6.552Zm-.5559,5.2563a6.73492,6.73492,0,0,0,.1267-1.8765v-.0048a5.39,5.39,0,0,0-.2191-1.5648l-2.5225-4.8466a4.9425,4.9425,0,0,0-.1905.5666l-2.1955,7.8908a7.28023,7.28023,0,0,0-.1386,1.8842l.0071.1891a5.11119,5.11119,0,0,0,.2033,1.447l2.5656,3.9782.1514-.4201,2.2121-7.2431Zm-6.0911-1.1888-2.0931-3.9977-.3203-.474.2237-.5567,2.1157-6.2972,2.1201,3.3299.1817.2287a5.69485,5.69485,0,0,0-.3008.8496l-1.927,6.9174Zm-.6052,5.3407a8.666,8.666,0,0,0-.0626-3.5776l-2.6416-5.0431a4.6822,4.6822,0,0,0-.2455.6806l-2.4015,8.2088a8.84191,8.84191,0,0,0,.04,3.6545l2.6985,4.1419a4.20286,4.20286,0,0,0,.2013-.5272l2.4114-7.5379Zm-5.7257-14.4927,2.6365,4.0964.1661-.4218,2.3593-7.0214a8.12863,8.12863,0,0,0-.057-3.3679l-2.5823-4.9558a4.49118,4.49118,0,0,0-.2092.5661l-2.3514,7.6626a8.32483,8.32483,0,0,0,.038,3.4418ZM14.211,157.989a7.57232,7.57232,0,0,1-.0372-3.2448l2.2992-7.1519.1789-.4643,2.5225,4.8643a7.46807,7.46807,0,0,1,.0598,3.1762L16.92,161.7109l-.1343.3279L14.211,157.989Zm-.3773-16.6901a6.98338,6.98338,0,0,1-.0352-3.0589l2.2524-6.6858.1463-.3725,2.4684,4.7826a6.8791,6.8791,0,0,1,.059,2.9943l-2.2692,6.1016-.1012.2454-2.5205-4.0067Zm-.3575-15.9166a6.58715,6.58715,0,0,1-.0374-2.8845l2.2102-6.2535.1168-.2892,2.4156,4.701a6.33361,6.33361,0,0,1,.057,2.8236l-2.2249,5.692-.0717.1709-2.4656-3.9603Zm-.3399-15.1965a6.03614,6.03614,0,0,1-.0402-2.7204l2.1679-5.8524.0865-.2132,2.3663,4.6199a4.06457,4.06457,0,0,1,.1766,1.2529l.0023.0817a4.13129,4.13129,0,0,1-.1219,1.3308l-2.1798,5.3127-.0442.1041-2.4135-3.9161Zm-.3279-14.5208a5.53118,5.53118,0,0,1-.0403-2.5699l2.1257-5.4793.0598-.1443,2.3191,4.5439a3.62017,3.62017,0,0,1,.1709,1.1705l.0028.1238a3.83728,3.83728,0,0,1-.1145,1.2206L15.192,99.4901l-.0204.0451-2.3632-3.8702Zm5.4847.2013-1.8051,4.1828-.1542.2872.2563.3906,1.8544,3.6184,1.6464-4.6602.223-.5249-.1238-.1633-1.897-3.1306Zm.6701-4.0056,1.9695-5.3218.0224-.0604,2.2193,4.3688a3.5723,3.5723,0,0,1,.1737,1.1344l.0052.1276a3.85687,3.85687,0,0,1-.0944,1.1795L21.28028,98.07l-2.2522-3.7157a5.65524,5.65524,0,0,1-.0649-2.4936Zm5.2572,2.7955-1.6492,3.9866-.1367.2654.2435.3877,1.7655,3.4594,1.4921-4.4362.2061-.506-.1191-.1584-1.8022-2.9985Zm.6304-3.9688,1.8145-5.1471,2.1257,4.1955a3.78042,3.78042,0,0,1,.1788,1.1058l.0048.123a3.7281,3.7281,0,0,1-.0816,1.1447l-1.8102,4.5691-2.1453-3.5677a5.56782,5.56782,0,0,1-.0867-2.4233Zm5.0057,2.8202-1.5027,3.7964-.1267.2557.2365.3765,1.6781,3.3023,1.3535-4.2179.1913-.4893-.1148-.1533-1.7152-2.8704Zm2.9648,3.9971,2.0755,4.0941a3.87638,3.87638,0,0,1,.1856,1.1531l.0057.0817a4.25917,4.25917,0,0,1-.0674,1.2036l-1.7034,4.7154-2.0854-3.4634a5.86742,5.86742,0,0,1-.1092-2.4874l1.6986-5.2971Zm2.8624,17.5536a4.28107,4.28107,0,0,1,.1936,1.2211l.0028.0508a4.49511,4.49511,0,0,1-.0697,1.3036l-1.7479,5.0902-2.1282-3.5025a6.36164,6.36164,0,0,1-.112-2.6246l1.7413-5.6905.0049-.0111,2.1152,4.163Zm1.1423,3.9648-1.4527,4.2364-.1338.3342.2435.3886,1.6631,3.263,1.2988-4.6735a4.118,4.118,0,0,1,.2013-.5757l-.129-.1695-1.6912-2.8035Zm2.5725,16.9877.1366.1795a4.486,4.486,0,0,0-.2092.6321l-1.3331,5.0465-1.7031-3.3242-.2633-.3963.1514-.3886,1.4949-4.5839,1.7258,2.8349Zm1.2937,1.1727-1.6512,6.2408a7.15243,7.15243,0,0,0,.1415,2.8372l2.1107,3.437,1.6758-5.6591a7.01184,7.01184,0,0,0-.1542-2.7836l-2.1078-4.1321-.0148.0598Zm-.7475,21.4929a7.781,7.781,0,0,0,.1463,2.997l2.1552,3.4742.0127-.0403,1.7082-6.0655a7.67888,7.67888,0,0,0-.1613-2.9398l-2.1552-4.2041-.0371.1392-1.6688,6.6393Zm-2.8105-4.9213-.273-.4096.1582-.439,1.54-4.9615,1.7603,2.8655.1466.1933a4.87975,4.87975,0,0,0-.2211.6886l-1.3703,5.4499-1.7407-3.3872Zm-3.0223,8.0006a7.88286,7.88286,0,0,0,.1267,3.0934l2.2671,3.6283.0394-.1343,1.8496-6.2819a7.69215,7.69215,0,0,0-.1386-3.037l-2.2544-4.3849-.0717.2463-1.8181,6.8701Zm-2.9024-5.0457-.2804-.4224.1712-.4566,1.6963-5.226,1.8567,3.0039.1618.2089a5.17579,5.17579,0,0,0-.2486.7075l-1.5193,5.7424-1.8377-3.5577Zm-3.2505,8.291a8.016,8.016,0,0,0,.1,3.2055l2.3831,3.776.0774-.2251,2.0033-6.5106a7.85894,7.85894,0,0,0-.114-3.1414l-2.3615-4.5685-.1092.3497L27.959,165.001Zm-2.9991-5.1675-.2956-.4371.1916-.4762,1.8624-5.5049,1.9587,3.1413.1638.2084a5.09066,5.09066,0,0,0-.263.7452l-1.6838,6.0559-1.9341-3.7326Zm-3.5059,8.6009a8.1536,8.1536,0,0,0,.0692,3.3202l2.5078,3.9356.1196-.3251,2.1719-6.7561a7.95991,7.95991,0,0,0-.0887-3.2502l-2.4681-4.7602-.1565.4569-2.1552,7.3789Zm-1.1548-12.0518,2.0707,3.287.169.216a5.31021,5.31021,0,0,0-.2858.775l-1.8666,6.3888-2.0361-3.9161-.3056-.4519.2061-.4991,2.0483-5.7997Zm-.5363-16.1739-1.9834,5.3427-.1916.4448.2908.4314,1.9882,3.8338,1.8077-5.8988a4.98719,4.98719,0,0,1,.2786-.6954l-.1669-.2132-2.0234-3.2453Zm-.5111-15.4457-1.9222,4.9218-.1786.39.2807.4187,1.9392,3.7584,1.7523-5.4518a4.20536,4.20536,0,0,1,.2535-.6427l-.1463-.1893-1.9786-3.2051Zm1.4471-11.5986-1.9361-3.168-1.8652,4.5369-.159.3407.2631.4006,1.8946,3.6867,1.6986-5.0397a4.40506,4.40506,0,0,1,.2384-.5814l-.1344-.1758Zm3.1167-6.1081-2.0242,5.148-.01.0253-2.2986-3.7619a5.9701,5.9701,0,0,1-.0649-2.6388l2.0038-5.6743.0474-.1253,2.2668,4.4427a4.14846,4.14846,0,0,1,.178,1.2212l.0029.0697a4.05542,4.05542,0,0,1-.1012,1.2934Zm2.8278,4.3773-1.8397-3.0322-1.6982,4.3194-.1494.3303.2534.3821,1.8046,3.5229,1.5372-4.7926a3.98021,3.98021,0,0,1,.2211-.5604l-.129-.1695Zm4.1789,3.615,1.3929-4.5552.2032-.542-.1238-.1633-1.7482-2.9004-1.5491,4.1102-.129.307.2379.3835,1.7161,3.3602Zm2.1424,9.4933a4.3636,4.3636,0,0,1,.214-.5976l-.1315-.1732-1.783-2.9341-1.5962,4.4543-.1494.3578.2585.3906,1.7524,3.4234,1.4352-4.9212Zm1.8771,12.7675-2.1719-3.5425a4.27522,4.27522,0,0,1-.1945-1.2379l-.002-.0402a5.23326,5.23326,0,0,1,.0797-1.4956l1.7651-6.0559.0275-.0816,2.16,4.2343a6.60445,6.60445,0,0,1,.1287,2.7205l-1.7926,5.4989Zm-1.5245,8.7213a7.2701,7.2701,0,0,0,.1168,2.9271l2.2201,3.5884.0196-.057,1.8221-5.8822a7.19841,7.19841,0,0,0-.1335-2.8757l-2.2074-4.3067-.047.1582-1.7907,6.4479Zm-2.84-4.9952,1.7949,3.4861,1.4751-5.3161.2359-.6455-.1514-.197-1.8179-2.9667-1.6463,4.822-.1613.4048.271.4124Zm-3.1961,7.7437a7.36983,7.36983,0,0,0,.0944,3.0271l2.3346,3.7367.0494-.1463,1.9712-6.0883a7.2192,7.2192,0,0,0-.1117-2.9673l-2.3088-4.4912-.0822.2605-1.9469,6.6688Zm-2.9321-5.1196-.281-.4196.1766-.4271,1.8077-5.0749,1.9171,3.1034.1584.204a4.86006,4.86006,0,0,0-.2554.6702l-1.6364,5.599-1.887-3.655Zm-1.3261,1.1177-2.1158,6.9023a7.52676,7.52676,0,0,0,.0698,3.1315l2.4536,3.8928.0865-.2379,2.1353-6.307a7.30413,7.30413,0,0,0-.0864-3.0688l-2.4134-4.6755-.1296.3626Zm-.5561-15.5458.0995-.2767,2.3612,4.5961a6.74144,6.74144,0,0,1,.0845,2.8979l-2.0954,5.8895-.0626.1591-2.3987-3.8472a6.927,6.927,0,0,1-.0669-2.9568l2.0784-6.4619Zm1.9343-7.8021-2.0608,5.5055-.0346.0881-2.3465-3.8035a6.51536,6.51536,0,0,1-.0677-2.7935l2.0418-6.0537.072-.1965,2.3113,4.5173a6.39754,6.39754,0,0,1,.0845,2.7363Zm2.8899,4.3858L25.414,122.747l-1.7504,4.6828-.1635.3736.2681.4034,1.842,3.5875,1.5894-5.1789a4.04049,4.04049,0,0,1,.2307-.6174l-.1392-.1828Zm1.3162,1.036,2.2572,4.4116a6.6971,6.6971,0,0,1,.1111,2.8077l-1.9412,5.6931-.0246.0749-2.2847-3.6953a6.78139,6.78139,0,0,1-.0922-2.8624l1.9151-6.253.0593-.1766Zm-.2682-2.0369v.0048l-2.2368-3.6499a6.47238,6.47238,0,0,1-.0902-2.7071l1.8851-5.8671.0351-.1035,2.2122,4.3379a6.36954,6.36954,0,0,1,.1063,2.6532l-1.9117,5.3317Zm-1.0678-26.0448.0128-.036,2.1699,4.2662a3.901,3.901,0,0,1,.1837,1.1781l.0048.0935a4.24212,4.24212,0,0,1-.0845,1.2373l-1.8624,4.9388-2.1894-3.609a5.95928,5.95928,0,0,1-.0873-2.5614l1.8552-5.5075ZM44.034,145.4176l1.6659,2.7386.1414.1836a4.66885,4.66885,0,0,0-.2032.6659l-1.2339,5.1698-1.654-3.2258-.2634-.3977.1494-.4192,1.3978-4.7152Zm6.4063,25.4781-.055.4816-1.5962,6.2464-.0051.0252-2.0903-3.3692a8.24772,8.24772,0,0,1-.1766-3.0589l1.552-6.8284h-.0028l.0323-.121,1.656,3.2397-1.5245-7.5282-.5383,2.0029-2.0489-3.329a7.72915,7.72915,0,0,1-.1689-2.8998l1.0304-4.301-1.4225-7.0314-.4419-.7251a7.3974,7.3974,0,0,1-.2063-2.4732l-.6602-3.261-.3476,1.3825-1.6168-3.1672-.2455-.3957.1343-.3611.946-3.0385-.5913-2.9188-.0372.1978-1.6364,5.2422-2.0659-3.3974a6.83746,6.83746,0,0,1-.1366-2.69l1.6239-5.8559,1.5548,3.0552-1.3682-6.7561-.4817,1.4689-2.0262-3.3587a6.25294,6.25294,0,0,1-.1315-2.5498l1.0276-3.5257-.5885-2.9038-.1837.5102-1.2634,4.3322-1.6293-3.2097-.2311-.3688.1199-.2956,1.4125-3.9132,1.6589,2.7737.1114.1479-.8314-4.1006-.271-.4561a5.73784,5.73784,0,0,1-.1984-1.8666l-.6285-3.0963-.288.9454-1.5962-3.1538-.2287-.366.1168-.2449.9311-2.4523-.5263-2.5928L32.605,95.3538l-2.0489-3.4262a3.76668,3.76668,0,0,1-.1738-1.0735l-.002-.0542a4.11854,4.11854,0,0,1,.0718-1.2296l1.654-4.9227L34.045,88.488l-.328-3.7826-.4615-.9136c-.335-.663-.7673-.9805-1.2642-.945-.7869.0555-1.0874.9493-1.1838,1.2415l-1.3161,3.9082L27.845,84.7471c-.3379-.6687-.7849-.9961-1.2761-.9572-.8022.0513-1.1197.9578-1.2246,1.2549l-1.4499,4.1048-1.728-3.3996c-.3427-.6735-.775-1.0023-1.2935-.97-.5385.0317-.9637.4598-1.2642,1.2699l-1.5962,4.311-1.8153-3.5572c-.345-.6778-.7818-1.0242-1.3085-.982-.551.0275-.991.4609-1.3113,1.2853l-2.1248,5.4773a6.22612,6.22612,0,0,0,.1485,3.8118l2.4508,4.0141.1296.1681-.2407.5434-2.1679,5.8539a6.71257,6.71257,0,0,0,.1562,3.9464l2.5078,4.0646.1414.1831a4.15893,4.15893,0,0,0-.2602.6046l-2.2102,6.2512a7.09073,7.09073,0,0,0,.1661,4.0958l2.5654,4.1182.1514.1962a4.42143,4.42143,0,0,0-.2758.6681l-2.2544,6.6844a7.50654,7.50654,0,0,0,.1737,4.2553l2.6246,4.1687.1641.2106a5.51527,5.51527,0,0,0-.2936.7353l-2.2986,7.1532c-.3104.9607-.3357,3.6108.1836,4.4277l2.6867,4.2231.1758.2211a5.52677,5.52677,0,0,0-.3104.8121l-2.3485,7.6598c-.3127,1.0207-.3351,3.7868.1936,4.6088l2.751,4.2781.1888.2355a5.85688,5.85688,0,0,0-.3251.8918l-2.401,8.206c-.318,1.0849-.3356,3.983.2035,4.8121l2.8202,4.3302a1.29153,1.29153,0,0,0,1.0826.6903l.1372-.0105c.7891-.1063,1.1741-1.0347,1.3949-1.7223l2.1855-6.8434,2.1722,3.3743a1.27241,1.27241,0,0,0,1.0675.6883l.1367-.0105c.7727-.1072,1.1324-1.008,1.3359-1.6759l1.9812-6.478,2.0559,3.2227a1.2453,1.2453,0,0,0,1.0508.6835l.1387-.0105c.7523-.1063,1.0924-.9834,1.2809-1.6308l1.7955-6.139,1.944,3.0765a1.23093,1.23093,0,0,0,1.0383.6834l.1392-.0105c.737-.1083,1.0573-.9601,1.2339-1.5905l1.6265-5.821,1.84,2.9379a1.21287,1.21287,0,0,0,1.0247.6777l.1421-.0105c.7222-.1091,1.0227-.9402,1.1868-1.5562l1.4752-5.5173,1.7404,2.8034a1.19518,1.19518,0,0,0,1.0129.6758l.1414-.0136c.7075-.1083.9953-.9176,1.1475-1.5188l.9558-3.75Z"/>
      <path class="cls-1" d="M178.63628,164.0798a5.252,5.252,0,0,0-.2211-.7152l.159-.2041,1.7033-2.7709,1.4352,5.1001.1562.4694-.2733.4125-1.6934,3.2868-1.2659-5.5786Zm1.8524,7.5262a8.26947,8.26947,0,0,0-.1669,3.1031l1.7285,6.4712.0346.1211,2.2022-3.5158a8.50183,8.50183,0,0,0,.1542-3.1658l-1.6905-7.0636-.0598-.231-2.2023,4.2808Zm3.6323-4.38a5.15507,5.15507,0,0,0-.2355-.7424l.161-.2121,1.8005-2.9046,1.5815,5.3736.1709.4859-.2849.4271-1.7829,3.4566-1.4106-5.8841Zm2.0166,7.7864a8.35811,8.35811,0,0,0-.1471,3.2103l1.8751,6.709.0697.2208,2.3134-3.6669a8.5607,8.5607,0,0,0,.1324-3.2757l-1.8426-7.3239-.0972-.3387-2.3037,4.4651Zm3.7664-4.4693a5.00987,5.00987,0,0,0-.2585-.7748l.1718-.2182,1.8989-3.0393,1.7436,5.663.1865.5069-.2957.4419-1.8822,3.6278-1.5644-6.2073Zm2.1923,8.064a8.5366,8.5366,0,0,0-.1219,3.3227l2.0393,6.9673.104.318,2.4352-3.8188a8.678,8.678,0,0,0,.1049-3.3925l-2.0086-7.598-.1415-.4518-2.4114,4.6531Zm3.9132-4.5638a5.34289,5.34289,0,0,0-.2758-.8136l.1738-.2211,2.0066-3.1804,1.9194,5.9692.2063.5306-.3104.4595-1.9819,3.8086-1.738-6.5528Zm2.168,9.9326a6.736,6.736,0,0,0,.1238,1.8765l2.215,7.2431.1491.4201,2.5648-3.9782a5.00045,5.00045,0,0,0,.2064-1.4476l.0071-.1879a7.44122,7.44122,0,0,0-.1389-1.8856l-2.198-7.89a5.0654,5.0654,0,0,0-.1885-.5666l-2.5254,4.8472a5.435,5.435,0,0,0-.2154,1.5633v.0057Zm4.2905-6.2297a5.79336,5.79336,0,0,0-.3005-.8496l.1789-.2287,2.1226-3.3299,2.1129,6.2972.2239.5567-.3203.474-2.0931,3.9977-1.9244-6.9174Zm2.5943,8.6805a8.53888,8.53888,0,0,0-.059,3.5776l2.4058,7.5388a4.58689,4.58689,0,0,0,.2012.5263l2.6983-4.1414a8.84124,8.84124,0,0,0,.0403-3.6555l-2.4015-8.2083a4.21971,4.21971,0,0,0-.2455-.6806l-2.6396,5.0431Zm3.0274-6.8187,2.6336-4.0964a8.32478,8.32478,0,0,0,.038-3.4418l-2.3465-7.6621a5.36856,5.36856,0,0,0-.2112-.5666l-2.5823,4.9567a8.14687,8.14687,0,0,0-.0599,3.3664l2.3593,7.022.169.4218Zm.4518-17.5692-.1318-.3279-2.3142-6.5424a7.47127,7.47127,0,0,1,.0572-3.1756l2.5251-4.8649.1769.4643,2.3015,7.1513a7.5324,7.5324,0,0,1-.0403,3.2454l-2.5744,4.0498Zm.432-16.7332-.102-.2454-2.2669-6.1016a6.88855,6.88855,0,0,1,.057-2.9934l2.4704-4.7835.1442.3725,2.255,6.6849a6.98174,6.98174,0,0,1-.038,3.0598l-2.5197,4.0067Zm.4124-15.963-.0722-.1709-2.225-5.692a6.28573,6.28573,0,0,1,.059-2.823l2.4143-4.7016.1162.2892,2.2127,6.2535a6.55009,6.55009,0,0,1-.0399,2.8845l-2.4651,3.9603Zm.3915-15.2407-.0417-.1041-2.1824-5.3127a4.15081,4.15081,0,0,1-.1196-1.3303v-.083a4.14317,4.14317,0,0,1,.1766-1.2512l2.3664-4.6208.0893.2132,2.1676,5.8524a6.12983,6.12983,0,0,1-.0399,2.721l-2.4163,3.9155Zm.3801-14.5667-.0198-.0451-2.1404-4.9598a3.76206,3.76206,0,0,1-.1168-1.2206l.0051-.1238a3.67676,3.67676,0,0,1,.1689-1.1696l2.3196-4.5448.0592.1443,2.1257,5.4788a5.56543,5.56543,0,0,1-.0382,2.5704l-2.3633,3.8702Zm-1.3184.5139-1.8025-4.1828-1.8995,3.1306-.1239.1633.2231.5249,1.6469,4.6602,1.8545-3.6184.2556-.3906-.1542-.2872Zm-2.5373-5.6948-2.2524,3.7157-1.9791-4.7812a3.77644,3.77644,0,0,1-.097-1.1795l.0054-.1276a3.73963,3.73963,0,0,1,.1732-1.1344l2.223-4.3688.0224.0604,1.9686,5.3218a5.68262,5.68262,0,0,1-.0641,2.4936Zm-3.5458,4.2885-1.6464-3.9866-1.8025,2.9985-.1216.1584.2083.506,1.4899,4.4362,1.7651-3.4594.2464-.3877-.1392-.2654Zm-2.3644-5.5321-2.1472,3.5677-1.8102-4.5691a3.67011,3.67011,0,0,1-.0797-1.1447l.0048-.1238a3.7064,3.7064,0,0,1,.1769-1.105l2.1277-4.1955,1.815,5.1471a5.60006,5.60006,0,0,1-.0873,2.4233Zm-3.4163,4.1933-1.5049-3.7964-1.7153,2.8704-.1145.1533.1914.4893,1.3535,4.2179,1.6807-3.3023.2335-.3765-.1244-.2557Zm-2.7683,5.497a5.95274,5.95274,0,0,1-.1097,2.4882l-2.0875,3.4634-1.7013-4.7154a4.13866,4.13866,0,0,1-.0697-1.2031l.0051-.083a3.99123,3.99123,0,0,1,.1865-1.1523l2.0755-4.0941,1.7011,5.2963Zm-2.4457,8.0943.0022.0111,1.7433,5.6905a6.4011,6.4011,0,0,1-.1119,2.6255l-2.1306,3.5016-1.7475-5.091a4.38222,4.38222,0,0,1-.0675-1.3028l.0026-.0508a4.36982,4.36982,0,0,1,.1916-1.2211l2.1178-4.163Zm-1.8054,12.3642-1.4548-4.2364-1.6906,2.8035-.1247.1695a4.82272,4.82272,0,0,1,.1987.5757l1.2963,4.6735,1.6659-3.263.2438-.3886-.1346-.3342Zm-2.3015,9.9164,1.495,4.5839.1514.3886-.2634.3963-1.701,3.3242-1.336-5.0465a4.05964,4.05964,0,0,0-.2083-.6321l.1366-.1795,1.7257-2.8349Zm-1.3683,10.2478-1.6483-6.2402-.0148-.0598-2.1109,4.1329a7.045,7.045,0,0,0-.1539,2.7828l1.6784,5.6591,2.1101-3.4362a7.20425,7.20425,0,0,0,.1394-2.8386Zm-1.0479,18.2497a7.83693,7.83693,0,0,0,.1471-2.997l-1.6716-6.6393-.0374-.1392-2.1552,4.2041a7.65787,7.65787,0,0,0-.1582,2.9398l1.7082,6.0655.0099.0403,2.1572-3.4742Zm1.2149-4.5311-1.3711-5.4508a5.28775,5.28775,0,0,0-.2183-.6868l.1463-.1942,1.7603-2.8655,1.5372,4.9615.159.439-.2709.4096-1.7425,3.3872Zm4.6375,7.7068a7.86922,7.86922,0,0,0,.1244-3.0934l-1.8173-6.8701-.0697-.2463-2.255,4.3855a7.7473,7.7473,0,0,0-.1414,3.0359l1.8504,6.2824.0423.1343,2.2663-3.6283Zm1.1894-4.5814-1.5168-5.7424a5.314,5.314,0,0,0-.2483-.7075l.161-.2089,1.8575-3.0039,1.6934,5.226.171.4566-.2801.4224-1.8377,3.5577Zm4.9887,7.9388a8.02646,8.02646,0,0,0,.0992-3.2055l-1.9792-7.1144-.1088-.3497-2.3593,4.5694a7.80993,7.80993,0,0,0-.1162,3.1405l2.0058,6.5106.0748.2251,2.3837-3.776Zm1.1642-4.6404-1.6835-6.0565a5.12348,5.12348,0,0,0-.2605-.7446l.1613-.2084,1.9593-3.1413,1.8618,5.5049.1913.4762-.2956.4371-1.9341,3.7326Zm5.3711,8.1885a8.10374,8.10374,0,0,0,.0688-3.3202l-2.1523-7.3789-.1562-.4569-2.4684,4.7602a8.01859,8.01859,0,0,0-.0921,3.2496l2.1727,6.7567.1196.3251,2.5079-3.9356Zm3.272-9.5723.2064.4991-.3048.4519-2.0369,3.9161-1.8667-6.3888a5.07486,5.07486,0,0,0-.2857-.7741l.169-.2169,2.0707-3.287,2.048,5.7997Zm.4722-16.6309-1.9839-5.3427-2.0237,3.2453-.1667.2132a5.14624,5.14624,0,0,1,.2807.6948l1.8076,5.8994,1.9891-3.8338.2877-.4314-.1908-.4448Zm.4519-15.8666-1.9242-4.9218-1.9791,3.2051-.1443.1893a4.69945,4.69945,0,0,1,.2534.6427l1.7504,5.4518,1.944-3.7584.2787-.4187-.1789-.39Zm-1.4349-19.6884-1.9372,3.168-.1344.1766a3.78561,3.78561,0,0,1,.2387.58l1.7011,5.0403,1.8918-3.6867.2662-.4006-.1619-.3407-1.8643-4.5369Zm-5.1551-4.2335.0023-.0706a4.05534,4.05534,0,0,1,.1814-1.2203l2.2671-4.4427.0443.1253,2.0066,5.6743a5.9731,5.9731,0,0,1-.0675,2.6394l-2.2966,3.7613-.0099-.0253-2.0257-5.148a4.07531,4.07531,0,0,1-.102-1.2934Zm-.8867,2.6385-1.8399,3.0322-.1287.1695a4.1615,4.1615,0,0,1,.2208.5604l1.5395,4.7926,1.8025-3.5229.2532-.3821-.1491-.3303-1.6983-4.3194Zm-7.4114,2.092,1.3957,4.5552,1.7153-3.3602.2384-.3835-.1316-.307-1.5491-4.1102-1.7484,2.9004-.1239.1633.2036.542Zm-.9607,13.4509a4.50581,4.50581,0,0,1,.2132.5976l1.4351,4.9212,1.7533-3.4234.2554-.3906-.1486-.3578-1.597-4.4543-1.7827,2.9341-.1287.1732Zm-3.4588,7.8662a6.64986,6.64986,0,0,1,.1309-2.7196l2.1609-4.2352.0246.0816,1.768,6.0559a5.33981,5.33981,0,0,1,.0788,1.4956l-.002.0402a4.39376,4.39376,0,0,1-.1936,1.2379l-2.1727,3.5425-1.7949-5.4989Zm3.2003,17.1473a7.31113,7.31113,0,0,0,.119-2.9271l-1.7926-6.4479-.0445-.1582-2.2079,4.3072a7.16478,7.16478,0,0,0-.1364,2.8747l1.825,5.8827.0204.057,2.217-3.5884Zm1.1642-4.4362,1.7926-3.4861.2738-.4124-.1638-.4048-1.6464-4.822-1.8178,2.9667-.1486.197.233.6455,1.4772,5.3161Zm4.8965,7.2847a7.34514,7.34514,0,0,0,.0944-3.0271l-1.9468-6.6688-.0836-.2605-2.3074,4.4918a7.26684,7.26684,0,0,0-.114,2.9667l1.9743,6.0883.0494.1463,2.3337-3.7367Zm1.1376-4.4917-1.6365-5.599a4.57708,4.57708,0,0,0-.2534-.6702l.1571-.204,1.9193-3.1034,1.8045,5.0749.1766.4271-.2806.4196-1.887,3.655Zm5.3285,4.365-2.1155-6.9023-.1267-.3626-2.4162,4.6755a7.32037,7.32037,0,0,0-.0845,3.0688l2.1334,6.307.0893.2379,2.4528-3.8928a7.5217,7.5217,0,0,0,.0674-3.1315Zm.5188-15.9868a6.84994,6.84994,0,0,1-.0675,2.9574l-2.3978,3.8472-.0601-.1591-2.0951-5.8895a6.7372,6.7372,0,0,1,.0817-2.8979l2.364-4.5961.0964.2767,2.0784,6.4613Zm-3.928-16.9997,2.3142-4.5173.0717.1965,2.0384,6.0537a6.54194,6.54194,0,0,1-.0649,2.7935l-2.3485,3.8035-.0346-.0881-2.0608-5.5055a6.43307,6.43307,0,0,1,.0845-2.7363Zm-1.0973,4.0539-1.8771,3.0682-.1394.1828a4.48227,4.48227,0,0,1,.2338.6166l1.5863,5.1797,1.8448-3.5875.2681-.4034-.1638-.3736-1.7527-4.6828Zm-3.1314,4.2808,1.9117,6.2521a6.77166,6.77166,0,0,1-.0916,2.8633l-2.2819,3.6953-.0246-.0749-1.9446-5.6931a6.70514,6.70514,0,0,1,.112-2.8071l2.262-4.4122.057.1766Zm-1.7053-7.5452a6.34687,6.34687,0,0,1,.1063-2.6527l2.215-4.3384.0343.1035,1.8822,5.8665a6.39883,6.39883,0,0,1-.0893,2.7077l-2.2349,3.6499-.0019-.0048-1.9117-5.3317Zm2.9792-20.7131,1.8547,5.5075a5.94677,5.94677,0,0,1-.0873,2.5614l-2.1918,3.609-1.8601-4.9393a4.15711,4.15711,0,0,1-.0844-1.2359l.0048-.095a3.82836,3.82836,0,0,1,.1837-1.1769l2.1679-4.2668.0125.036ZM182.691,150.1328l.1491.4192-.2631.3977-1.6512,3.2258-1.2367-5.1704a4.34834,4.34834,0,0,0-.2013-.6644l.1395-.1845,1.6679-2.7386,1.3958,4.7152Zm-8.4771,24.0893.9559,3.7494c.1519.6018.4399,1.4111,1.1494,1.5202l.1392.012a1.198,1.198,0,0,0,1.0157-.675l1.7385-2.8034,1.4774,5.5167c.1633.6166.4637,1.4486,1.1866,1.5577l.1414.0096a1.216,1.216,0,0,0,1.0256-.6777l1.8371-2.9379,1.6265,5.8201c.1786.6307.4961,1.4831,1.2337,1.5922l.1394.0091a1.23621,1.23621,0,0,0,1.0404-.682l1.9417-3.0773,1.7949,6.1382c.1893.6482.5315,1.5253,1.2815,1.6316l.1389.0099a1.24608,1.24608,0,0,0,1.0528-.6829l2.056-3.2227,1.9811,6.478c.2044.6679.561,1.5696,1.336,1.6764l.1366.0094a1.2662,1.2662,0,0,0,1.065-.6877l2.1733-3.3743,2.1869,6.8434c.2209.6876.6038,1.616,1.3955,1.7231l.1347.0091a1.284,1.284,0,0,0,1.0817-.6897l2.8216-4.3307c.5414-.8286.523-3.7262.2055-4.8116l-2.4007-8.2065a6.22661,6.22661,0,0,0-.3279-.8913l.1885-.2355,2.7535-4.2781c.5293-.822.5066-3.5881.1934-4.6088l-2.3485-7.6598a6.1237,6.1237,0,0,0-.3104-.8116l.1766-.2216,2.6844-4.2231c.5207-.8169.4935-3.4662.1859-4.4271l-2.3017-7.1538a5.10823,5.10823,0,0,0-.2934-.7348l.1667-.2111,2.6226-4.1695a7.49154,7.49154,0,0,0,.1732-4.254l-2.2544-6.6849a4.22752,4.22752,0,0,0-.2761-.6673l.1514-.197,2.5656-4.1182a7.07068,7.07068,0,0,0,.1661-4.0949l-2.2101-6.253a3.82186,3.82186,0,0,0-.2583-.6032l.142-.1836,2.505-4.0646a6.70429,6.70429,0,0,0,.1585-3.9464l-2.1671-5.8539-.2429-.5434.1289-.1681,2.4529-4.0141a6.2043,6.2043,0,0,0,.1491-3.8112l-2.1277-5.4779c-.3203-.8249-.76-1.2572-1.3113-1.2853-.5236-.0422-.9635.3042-1.3082.9825l-1.8153,3.5567-1.5942-4.311c-.3005-.8101-.7249-1.2382-1.2663-1.2699-.5187-.0329-.9507.2965-1.2937.9706l-1.7277,3.399-1.448-4.1048c-.1068-.2977-.4252-1.2031-1.224-1.2549-.494-.0394-.9388.2885-1.2787.9578l-1.6463,3.2488-1.3133-3.9082c-.0992-.2922-.3977-1.186-1.1875-1.2415-.496-.0355-.9283.282-1.2634.9459l-.4595.9127-.3302,3.7826,1.9392-3.8404,1.656,4.9221a4.27562,4.27562,0,0,1,.072,1.2302l-.0043.0542a3.56427,3.56427,0,0,1-.1746,1.0735l-2.0455,3.4262-1.6588-4.3679-.5264,2.5928.9312,2.4523.1168.2449-.2259.366-1.5993,3.1538-.2878-.9454-.6256,3.0963a5.88382,5.88382,0,0,1-.1992,1.8672l-.2724.4555-.832,4.1006.112-.1479,1.6611-2.7737,1.4096,3.9132.1196.2956-.2287.3688-1.6313,3.2097-1.2615-4.3322-.1856-.5102-.5865,2.9038,1.0284,3.5249a6.31235,6.31235,0,0,1-.1344,2.5514l-2.0236,3.3579-.4814-1.4689-1.3682,6.7561,1.5519-3.0552,1.626,5.8559a6.78692,6.78692,0,0,1-.1389,2.6906l-2.0656,3.3968-1.6365-5.2422-.0345-.1978-.5939,2.9188.9488,3.0385.1343.3611-.2486.3957-1.6137,3.1672-.3504-1.3825-.6582,3.261a7.39524,7.39524,0,0,1-.2064,2.4732l-.441.7251-1.4233,7.0314,1.0284,4.301a7.64683,7.64683,0,0,1-.169,2.8998l-2.0488,3.329-.5386-2.0029-1.5245,7.5282,1.6583-3.2397.0303.121,1.552,6.8284a8.32232,8.32232,0,0,1-.1766,3.0589l-2.0906,3.3692-.0076-.0252-1.5942-6.2464-.0542-.4816Z"/>
      <path class="cls-1" d="M189.53918,91.1222l-8.1321,4.337a3.6149,3.6149,0,0,1-3.4988,0l-8.1314-4.337a1.02837,1.02837,0,0,1-.4244-.881,1.10339,1.10339,0,0,1,.3943-.9748l7.899-4.9657a3.66517,3.66517,0,0,1,4.0218.0008l7.8985,4.9649a1.10032,1.10032,0,0,1,.3949.9734,1.0237,1.0237,0,0,1-.4218.8824Zm-12.6457,5.607.1985-.1063-7.9801-4.2554-.4675-.347-.4666.347L160.2,96.6229l.1962.1063,7.8956,4.964.3526.3047.3555-.3047,7.8936-4.964Zm.1985,13.5156-.1985.1071-7.8936,4.9635-.3555.3047-.3526-.3047-7.8928-4.9635-.199-.1071,7.9778-4.2546.4666-.3469.4675.3469,7.9801,4.2546Zm0,13.6227-.1985.1071-7.8936,4.9621-.3555.3061-.3526-.3061-7.8928-4.9621-.199-.1071,7.9778-4.2554.4666-.3469.4675.3469,7.9801,4.2554Zm0,13.6222-.1985.1068-7.8936,4.9635-.3555.3047-.3526-.3047-7.8928-4.9635-.199-.1068,7.9778-4.2548.4666-.347.4675.347,7.9801,4.2548Zm0,13.6241-.1985.1041-7.8936,4.9634-.3555.3056-.3526-.3056-7.8928-4.9634-.199-.1041,7.9778-4.2562.4666-.3475.4675.3475,7.9801,4.2562Zm-9.5772,8.1187a1.01979,1.01979,0,0,0,.4244-.8804,1.10007,1.10007,0,0,0-.3969-.9743l-7.8956-4.9626a3.652,3.652,0,0,0-4.0224-.0008h-.0028l-7.8985,4.9643a1.10038,1.10038,0,0,0-.3948.9734,1.02358,1.02358,0,0,0,.4252.8804l8.1312,4.3385a3.61664,3.61664,0,0,0,3.4959,0l8.1343-4.3385Zm.0275,11.7647a1.11271,1.11271,0,0,1,.3969.9762,1.01977,1.01977,0,0,1-.4244.881l-8.1343,4.3379a3.61559,3.61559,0,0,1-3.4959,0l-8.1312-4.3379a1.02542,1.02542,0,0,1-.4252-.881,1.11262,1.11262,0,0,1,.3948-.9762l7.8985-4.9607h.0028a3.65448,3.65448,0,0,1,4.0224,0l7.8956,4.9607Zm-20.569-1.1946-.3504.3056-.3549-.3056-7.8933-4.9634-.2013-.1041,7.9807-4.2562.4688-.3475.4646.3475,7.9801,4.2562-.1959.1041-7.8984,4.9634Zm-1.4823,3.0518a1.02184,1.02184,0,0,0,.4247-.881,1.10944,1.10944,0,0,0-.3972-.9762l-7.8961-4.9607a3.655,3.655,0,0,0-4.0227,0h-.002l-7.8964,4.9607a1.11175,1.11175,0,0,0-.3969.9762,1.0205,1.0205,0,0,0,.4272.881l8.1314,4.3379a3.61578,3.61578,0,0,0,3.496,0l8.132-4.3379Zm-20.5392-3.0518-.3527.3056-.3546-.3056-7.8964-4.9634-.1956-.1041,7.9801-4.2562.4665-.3475.4666.3475,7.981,4.2562-.1993.1041-7.8956,4.9634Zm-1.4823,3.0518a1.03211,1.03211,0,0,0,.4244-.881,1.11194,1.11194,0,0,0-.3997-.9762l-7.8936-4.9607a3.65448,3.65448,0,0,0-4.0224,0h-.002l-7.8984,4.9607a1.1086,1.1086,0,0,0-.3949.9762,1.02712,1.02712,0,0,0,.4243.881l8.1321,4.3379a3.61559,3.61559,0,0,0,3.4959,0l8.1343-4.3379Zm-20.5415-3.0518-.3504.3056-.3549-.3056-7.8962-4.9634-.1984-.1041,7.9801-4.2562.4672-.3475.4668.3475,7.9801,4.2562-.1987.1041h.0023l-7.8979,4.9634Zm-1.4851,3.0518a1.01292,1.01292,0,0,0,.4244-.881,1.10542,1.10542,0,0,0-.3949-.9762l-7.8956-4.9607a3.65782,3.65782,0,0,0-4.0244,0l-7.8964,4.9607a1.10472,1.10472,0,0,0-.3969.9762,1.019,1.019,0,0,0,.4244.881l8.1314,4.3379a3.617,3.617,0,0,0,3.4966,0l8.1314-4.3379Zm-20.5364-3.0518-.3555.3056-.3526-.3056-7.8956-4.9634-.1965-.1041,7.9781-4.2562.4666-.3475.4674.3475,7.9801,4.2562-.1984.1041h.002l-7.8956,4.9634Zm-1.4851,3.0518a1.02529,1.02529,0,0,0,.4244-.881,1.11271,1.11271,0,0,0-.3969-.9762l-7.8985-4.9607a3.65432,3.65432,0,0,0-4.0223,0l-7.8956,4.9607a1.10908,1.10908,0,0,0-.3977.9762,1.026,1.026,0,0,0,.4249.881l8.1314,4.3379a3.60842,3.60842,0,0,0,3.496,0l8.1343-4.3379Zm-19.7617-13.6219,8.1314,4.3385a3.60921,3.60921,0,0,0,3.496,0l8.1343-4.3379a1.02729,1.02729,0,0,0,.4244-.881,1.10007,1.10007,0,0,0-.3969-.9743l-7.8985-4.9626a3.6518,3.6518,0,0,0-4.0223-.0008l-7.8956,4.9643a1.09372,1.09372,0,0,0-.3977.9734,1.02414,1.02414,0,0,0,.4249.8804Zm-.7798-3.0512-.3527.3056-.3503-.3056-7.8956-4.9634-.2013-.1041,7.9807-4.2562.4688-.3475.4672.3475,7.9772,4.2562-.1956.1041-7.8984,4.9634Zm-8.5986-18.5848-.2013-.1068,7.9807-4.2548.4688-.347.4672.347,7.9772,4.2548-.1956.1068-7.8984,4.9635-.3504.3047-.3526-.3047-7.8956-4.9635Zm0-13.6219-.2013-.1071,7.9826-4.2554.4669-.3469.4672.3469,7.98,4.2554-.1984.1071-7.8984,4.9621-.3504.3061-.3526-.3061-7.8956-4.9621Zm0-13.6227-.2013-.1071,7.9826-4.2546.4669-.3469.4672.3469,7.98,4.2546-.1984.1071-7.8984,4.9635-.3527.3047-.3503-.3047-7.8956-4.9635Zm0-13.6227-.2013-.1063,7.9826-4.2554.4669-.347.4672.347,7.98,4.2554-.1984.1063-7.8984,4.964-.3527.3042-.3503-.3042-7.8956-4.964Zm-1.018-1.27,8.1343-4.337a1.02992,1.02992,0,0,0,.4244-.8824,1.10319,1.10319,0,0,0-.3969-.9734l-7.8964-4.9649a3.66445,3.66445,0,0,0-4.0224-.0008l-7.8985,4.9657a1.10185,1.10185,0,0,0-.3968.9734,1.03082,1.03082,0,0,0,.4243.8824l8.1343,4.337a3.6087,3.6087,0,0,0,3.4937,0Zm10.3692-6.1928a1.09926,1.09926,0,0,0-.3977.9734,1.03114,1.03114,0,0,0,.4249.8824l8.1314,4.337a3.61315,3.61315,0,0,0,3.496,0l8.1343-4.337a1.0287,1.0287,0,0,0,.4244-.8824,1.10319,1.10319,0,0,0-.3969-.9734l-7.8985-4.9649a3.66429,3.66429,0,0,0-4.0223-.0008l-7.8956,4.9657ZM80.551,92.0205l.4674.347,7.9801,4.2554-.1964.1063-7.8956,4.964-.3555.3042-.3526-.3042-7.8956-4.964-.1965-.1063,7.9781-4.2554.4666-.347Zm1.105-2.7541a1.095,1.095,0,0,0-.3969.9734,1.02225,1.02225,0,0,0,.4244.8824l8.1314,4.337a3.61431,3.61431,0,0,0,3.4966,0l8.1314-4.337a1.01743,1.01743,0,0,0,.4244-.8824,1.09933,1.09933,0,0,0-.3949-.9734l-7.8956-4.9649a3.66512,3.66512,0,0,0-4.0244-.0008L81.656,89.2664Zm20.9194,2.7541.4668.347,7.9801,4.2554-.1964.1063-7.8979,4.964-.3504.3042-.3549-.3042-7.8984-4.964-.1962-.1063,7.9801-4.2554.4672-.347Zm1.1024-2.7541a1.09879,1.09879,0,0,0-.3949.9734,1.03228,1.03228,0,0,0,.4243.8824l8.1321,4.337a3.60928,3.60928,0,0,0,3.4959,0l8.1343-4.337a1.03469,1.03469,0,0,0,.4244-.881,1.10425,1.10425,0,0,0-.3997-.9748l-7.8936-4.9649a3.66684,3.66684,0,0,0-4.0244-.0008l-7.8984,4.9657Zm20.9213,2.7541.4666.347,7.981,4.2554-.1993.1063-7.8956,4.964-.3527.3047-.3546-.3047-7.8964-4.964-.1956-.1063,7.9801-4.2554.4665-.347Zm1.1022-2.7541a1.10189,1.10189,0,0,0-.3969.9734,1.02559,1.02559,0,0,0,.4272.8824l8.1314,4.337a3.60948,3.60948,0,0,0,3.496,0l8.132-4.337a1.02643,1.02643,0,0,0,.4247-.8824,1.10332,1.10332,0,0,0-.3972-.9734l-7.8961-4.9649a3.66562,3.66562,0,0,0-4.0247-.0008l-7.8964,4.9657Zm20.9216,2.7541.4646.347,7.9801,4.2554-.1959.1063-7.8984,4.964-.3504.3042-.3549-.3042-7.8956-4.964-.199-.1063,7.9807-4.2554.4688-.347Zm12.7576,17.0609a3.61033,3.61033,0,0,1-3.4959,0l-8.1312-4.3364a1.03056,1.03056,0,0,1-.4252-.8824,1.10291,1.10291,0,0,1,.3948-.9735l7.8985-4.9657a3.66646,3.66646,0,0,1,4.0252.0009l7.8956,4.964a1.10321,1.10321,0,0,1,.3969.9743,1.02633,1.02633,0,0,1-.4244.8824l-8.1343,4.3364Zm0,13.6228,8.1343-4.3371a1.02493,1.02493,0,0,0,.4244-.8827,1.10348,1.10348,0,0,0-.3969-.9739l-7.8956-4.9644a3.659,3.659,0,0,0-4.0224,0h-.0028l-7.8985,4.9649a1.10412,1.10412,0,0,0-.3948.9734,1.03,1.03,0,0,0,.4252.8827l8.1312,4.3371a3.61138,3.61138,0,0,0,3.4959,0Zm0,13.6207,8.1343-4.3364a1.023,1.023,0,0,0,.4244-.8805,1.10644,1.10644,0,0,0-.3969-.9757l-7.8956-4.9634a3.66006,3.66006,0,0,0-4.0224-.0006h-.0028l-7.8985,4.964a1.10968,1.10968,0,0,0-.3948.9749,1.028,1.028,0,0,0,.4252.8813l8.1312,4.337a3.60614,3.60614,0,0,0,3.4959-.0006Zm-11.6271,9.2863,8.1312,4.3356a3.603,3.603,0,0,0,3.4959,0l8.1343-4.3356a1.023,1.023,0,0,0,.4244-.8813,1.10673,1.10673,0,0,0-.3969-.9762l-7.8956-4.9626a3.657,3.657,0,0,0-4.0224,0h-.0028l-7.8985,4.9634a1.10867,1.10867,0,0,0-.3948.9754,1.028,1.028,0,0,0,.4252.8813Zm-22.0521,11.7666a1.09913,1.09913,0,0,0-.3969.9743,1.01868,1.01868,0,0,0,.4272.8804l8.1314,4.3385a3.61684,3.61684,0,0,0,3.496,0l8.132-4.3379a1.02383,1.02383,0,0,0,.4247-.881,1.09308,1.09308,0,0,0-.3972-.9743l-7.8961-4.9626a3.65246,3.65246,0,0,0-4.0227-.0008h-.002l-7.8964,4.9634Zm-9.3532-6.1599-.1956-.1041,7.9801-4.2562.4665-.3475.4666.3475,7.981,4.2562-.1993.1041-7.8956,4.9634-.3527.3056-.3546-.3056-7.8964-4.9634Zm-12.6703,6.1599a1.09606,1.09606,0,0,0-.3949.9743,1.02527,1.02527,0,0,0,.4243.8804l8.1321,4.3385a3.61664,3.61664,0,0,0,3.4959,0l8.1343-4.3379a1.03414,1.03414,0,0,0,.4244-.881,1.102,1.102,0,0,0-.3997-.9743l-7.8936-4.9626a3.652,3.652,0,0,0-4.0224-.0008h-.002l-7.8984,4.9634Zm-9.3513-6.1599-.1984-.1041,7.9801-4.2562.4672-.3475.4668.3475,7.9801,4.2562-.1987.1041h.0023l-7.8979,4.9634-.3504.3056-.3549-.3056-7.8962-4.9634ZM81.656,157.3778a1.09226,1.09226,0,0,0-.3969.9743,1.01718,1.01718,0,0,0,.4244.8804l8.1314,4.3385a3.618,3.618,0,0,0,3.4966,0l8.1314-4.3379a1.01486,1.01486,0,0,0,.4244-.881,1.09087,1.09087,0,0,0-.3949-.9743l-7.8956-4.9626a3.65529,3.65529,0,0,0-4.0244-.0008l-7.8964,4.9634Zm-1.5716-10.5202.4666-.3475.4674.3475,7.9801,4.2562-.1984.1041h.002l-7.8956,4.9634-.3555.3056-.3526-.3056-7.8956-4.9634-.1965-.1041,7.9781-4.2562Zm-10.5448-8.6698a3.77782,3.77782,0,0,0-2.0115.6033l-7.8956,4.9634a1.10191,1.10191,0,0,0-.3977.9754,1.02857,1.02857,0,0,0,.4249.8813l8.1314,4.3356a3.598,3.598,0,0,0,3.496,0l8.1343-4.3356a1.02855,1.02855,0,0,0,.4244-.8813,1.10673,1.10673,0,0,0-.3969-.9762l-7.8985-4.9626a3.76056,3.76056,0,0,0-2.0108-.6033Zm0-13.6221a3.77867,3.77867,0,0,0-2.0115.6026l-7.8956,4.964a1.1029,1.1029,0,0,0-.3977.9749,1.02857,1.02857,0,0,0,.4249.8813l8.1314,4.337a3.60241,3.60241,0,0,0,3.496-.0006l8.1343-4.3364a1.02859,1.02859,0,0,0,.4244-.8805,1.10644,1.10644,0,0,0-.3969-.9757l-7.8985-4.9634a3.76044,3.76044,0,0,0-2.0108-.6032Zm0-13.6219a3.77127,3.77127,0,0,0-2.0115.6023l-7.8956,4.9649a1.09845,1.09845,0,0,0-.3977.9734,1.03052,1.03052,0,0,0,.4249.8827l8.1314,4.3371a3.61525,3.61525,0,0,0,3.496,0l8.1343-4.3371a1.0305,1.0305,0,0,0,.4244-.8827,1.10348,1.10348,0,0,0-.3969-.9739l-7.8985-4.9644a3.75929,3.75929,0,0,0-2.0108-.6023Zm9.8818-6.1988a1.03,1.03,0,0,0,.4244-.8824,1.10321,1.10321,0,0,0-.3969-.9743l-7.8985-4.964a3.66429,3.66429,0,0,0-4.0223-.0009l-7.8956,4.9657a1.09784,1.09784,0,0,0-.3977.9735,1.03114,1.03114,0,0,0,.4249.8824l8.1314,4.3364a3.61262,3.61262,0,0,0,3.496,0l8.1343-4.3364Zm9.5771,5.4998-.1984.1071h.002l-7.8956,4.9635-.3555.3047-.3526-.3047-7.8956-4.9635-.1965-.1071,7.9781-4.2546.4666-.3469.4674.3469,7.9801,4.2546Zm12.4444-5.4998a1.01939,1.01939,0,0,0,.4244-.8824,1.09867,1.09867,0,0,0-.3949-.9743l-7.8956-4.964a3.66512,3.66512,0,0,0-4.0244-.0009l-7.8964,4.9657a1.09356,1.09356,0,0,0-.3969.9735,1.02225,1.02225,0,0,0,.4244.8824l8.1314,4.3364a3.61379,3.61379,0,0,0,3.4966,0l8.1314-4.3364Zm9.5794,5.4998-.1987.1071h.0023l-7.8979,4.9635-.3504.3047-.3549-.3047-7.8962-4.9635-.1984-.1071,7.9801-4.2546.4672-.3469.4668.3469,7.9801,4.2546Zm12.4472-5.4998a1.03661,1.03661,0,0,0,.4244-.8819,1.10285,1.10285,0,0,0-.3997-.9748l-7.8936-4.964a3.66665,3.66665,0,0,0-4.0244-.0009l-7.8984,4.9657a1.09737,1.09737,0,0,0-.3949.9735,1.03228,1.03228,0,0,0,.4243.8824l8.1321,4.3364a3.61033,3.61033,0,0,0,3.4959,0l8.1343-4.3364Zm9.5772,5.4998-.1993.1071-7.8956,4.9635-.3527.3047-.3546-.3047-7.8964-4.9635-.1956-.1071,7.9801-4.2546.4665-.3469.4666.3469,7.981,4.2546Zm12.4443-5.4998a1.02843,1.02843,0,0,0,.4247-.8824,1.10264,1.10264,0,0,0-.3972-.9743l-7.8961-4.964a3.66562,3.66562,0,0,0-4.0247-.0009l-7.8964,4.9657a1.10046,1.10046,0,0,0-.3969.9735,1.02559,1.02559,0,0,0,.4272.8824l8.1314,4.3364a3.61052,3.61052,0,0,0,3.496,0l8.132-4.3364Zm-19.7897,39.0087a1.10706,1.10706,0,0,0-.3969.9762,1.02306,1.02306,0,0,0,.4272.8813l8.1314,4.3356a3.60319,3.60319,0,0,0,3.496,0l8.132-4.3356a1.02508,1.02508,0,0,0,.4247-.8813,1.10113,1.10113,0,0,0-.4-.9762l-7.8933-4.9626a3.65752,3.65752,0,0,0-4.0227,0h-.002l-7.8964,4.9626Zm-9.3532-6.1572-.1956-.1068,7.9801-4.2548.4665-.347.4666.347,7.981,4.2548-.1993.1068-7.8956,4.9635-.3527.3047-.3546-.3047-7.8964-4.9635Zm-12.6703,6.1572a1.097,1.097,0,0,0-.3949.9762,1.02972,1.02972,0,0,0,.4243.8813l8.1321,4.3356a3.603,3.603,0,0,0,3.4959,0l8.1343-4.3356a1.03542,1.03542,0,0,0,.4244-.8813,1.106,1.106,0,0,0-.3997-.9762l-7.8936-4.9626a3.657,3.657,0,0,0-4.0224,0h-.002l-7.8984,4.9626Zm-9.3513-6.1572-.1984-.1068,7.9801-4.2548.4672-.347.4668.347,7.9801,4.2548-.1987.1068h.0023L102.928,142.56l-.3526.3027-.3527-.3027-7.8962-4.9635ZM81.656,143.7537a1.1001,1.1001,0,0,0-.3969.9762,1.02156,1.02156,0,0,0,.4244.8813l8.1314,4.3356a3.60435,3.60435,0,0,0,3.4966,0l8.1314-4.3356a1.01609,1.01609,0,0,0,.4244-.8813,1.09879,1.09879,0,0,0-.3969-.9762l-7.8936-4.9626a3.66036,3.66036,0,0,0-4.0244,0l-7.8964,4.9626Zm-1.105-10.8658.4674.347,7.9801,4.2548-.1984.1068h.002l-7.8956,4.9635-.3555.3047-.3526-.3047-7.8956-4.9635-.1965-.1068,7.9781-4.2548.4666-.347Zm8.4475-9.0204-.1984.1071h.002l-7.8956,4.9621-.3555.3061-.3526-.3061-7.8956-4.9621-.1965-.1071,7.9781-4.2554.4666-.3469.4674.3469,7.9801,4.2554Zm12.4444-5.5004a1.018,1.018,0,0,0,.4244-.8827,1.098,1.098,0,0,0-.3949-.9739l-7.8956-4.9644a3.66239,3.66239,0,0,0-4.0244,0L81.656,116.511a1.09417,1.09417,0,0,0-.3969.9734,1.02349,1.02349,0,0,0,.4244.8827l8.1314,4.3371a3.61642,3.61642,0,0,0,3.4966,0l8.1314-4.3371Zm.4244,12.7401a1.09785,1.09785,0,0,0-.3969-.9749l-7.8936-4.9634a3.66341,3.66341,0,0,0-4.0244-.0006l-7.8964,4.964a1.09924,1.09924,0,0,0-.3969.9757,1.02106,1.02106,0,0,0,.4244.8805l8.1314,4.337a3.61484,3.61484,0,0,0,3.4966-.0006l8.1314-4.3364a1.01661,1.01661,0,0,0,.4244-.8813Zm9.155-7.2397-.1987.1071h.0023l-7.8979,4.9621-.3526.3047-.3527-.3047-7.8962-4.9621-.1984-.1071,7.9801-4.2554.4672-.3469.4668.3469,7.9801,4.2554Zm12.4472-5.5004a1.03645,1.03645,0,0,0,.4244-.8812,1.10391,1.10391,0,0,0-.3997-.9754l-7.8936-4.9644a3.66617,3.66617,0,0,0-4.0224,0h-.002l-7.8984,4.9649a1.098,1.098,0,0,0-.3949.9734,1.03166,1.03166,0,0,0,.4243.8827l8.1321,4.3371a3.61138,3.61138,0,0,0,3.4959,0l8.1343-4.3371Zm.4244,12.7409a1.10567,1.10567,0,0,0-.3997-.9757l-7.8936-4.9634a3.66006,3.66006,0,0,0-4.0224-.0006h-.002l-7.8984,4.964a1.09615,1.09615,0,0,0-.3949.9757,1.029,1.029,0,0,0,.4243.881l8.1321,4.3365a3.60614,3.60614,0,0,0,3.4959-.0006l8.1343-4.3364a1.03356,1.03356,0,0,0,.4244-.8805Zm9.1528-7.2405-.1993.1071-7.8956,4.9621-.3527.3061-.3546-.3061-7.8964-4.9621-.1956-.1071,7.9801-4.2554.4665-.3469.4666.3469,7.981,4.2554Zm4.5757,1.3008a3.66209,3.66209,0,0,0-4.0227,0h-.002l-7.8964,4.964a1.10619,1.10619,0,0,0-.3969.9757,1.02256,1.02256,0,0,0,.4272.8805l8.1314,4.337a3.60633,3.60633,0,0,0,3.496-.0006l8.132-4.3364a1.02561,1.02561,0,0,0,.4247-.8813,1.10021,1.10021,0,0,0-.4-.9749l-7.8933-4.964Zm-.2634-2.4641,8.132-4.3371a1.027,1.027,0,0,0,.4247-.8827,1.102,1.102,0,0,0-.3972-.9739l-7.8961-4.9644a3.65955,3.65955,0,0,0-4.0227,0h-.002l-7.8964,4.9649a1.10108,1.10108,0,0,0-.3969.9734,1.025,1.025,0,0,0,.4272.8827l8.1314,4.3371a3.61158,3.61158,0,0,0,3.496,0Zm17.5127,14.8923-7.8984,4.9635-.3504.3027-.3549-.3027-7.8933-4.9635-.2013-.1068,7.9807-4.2548.4688-.347.4646.347,7.9801,4.2548-.1959.1068Zm0-13.6219-7.8984,4.9621-.3504.3047-.3549-.3047-7.8933-4.9621-.2013-.1071,7.9807-4.2554.4688-.3469.4646.3469,7.9801,4.2554-.1959.1071Zm0-13.6227.1959-.1071-7.9801-4.2546-.4646-.3469-.4688.3469-7.9779,4.2546.1985.1071,7.8933,4.9635.3549.3047.3504-.3047,7.8984-4.9635Zm0,40.866-7.8984,4.9634-.3504.3056-.3549-.3056-7.8933-4.9634-.2013-.1041,7.9807-4.2562.4688-.3475.4646.3475,7.9801,4.2562-.1959.1041ZM147.723,89.2664l7.8985-4.9657a3.66646,3.66646,0,0,1,4.0252.0008l7.8956,4.9649a1.10319,1.10319,0,0,1,.3969.9734,1.02434,1.02434,0,0,1-.4244.8824l-8.1343,4.337a3.60928,3.60928,0,0,1-3.4959,0l-8.1312-4.337a1.03056,1.03056,0,0,1-.4252-.8824,1.106,1.106,0,0,1,.3948-.9734Zm42.5906-1.1959L182.418,83.107a5.09425,5.09425,0,0,0-5.5253,0l-7.8928,4.9635-.3555.3061-.3526-.3061-7.8956-4.9635a5.08561,5.08561,0,0,0-5.5245,0l-7.8984,4.9635-.3504.3047-.3549-.3047-7.8956-4.9635a5.08646,5.08646,0,0,0-5.525,0l-7.8956,4.9635-.3527.3061-.3546-.3061-7.8964-4.9635a5.09017,5.09017,0,0,0-5.5222,0l-7.8979,4.9635-.3504.3047-.3549-.3047-7.8984-4.9635a5.08172,5.08172,0,0,0-5.5222,0l-7.8956,4.9635-.3555.3047-.3526-.3047-7.8956-4.9635a5.08856,5.08856,0,0,0-5.5245,0l-7.8984,4.9635-.3527.3047-.3503-.3047-7.8956-4.9635a5.09331,5.09331,0,0,0-5.5273,0l-7.8956,4.9635a2.48221,2.48221,0,0,0-1.0579,2.2192,2.38282,2.38282,0,0,0,1.1718,2.0778l7.981,4.2554-.1993.1063-7.8956,4.964-.0621.0522.4246,1.9635a1.03744,1.03744,0,0,1,.3869-.8198l7.8985-4.9657a3.66445,3.66445,0,0,1,4.0224.0009l7.8964,4.964a1.10321,1.10321,0,0,1,.3969.9743,1.03126,1.03126,0,0,1-.4244.8824l-8.1343,4.3364a3.60817,3.60817,0,0,1-3.4937,0l-8.1343-4.3364-.2455-.2583.4221,1.9517,7.1414,3.8064-.1993.1071-5.3654,3.3727.3155,1.4675,5.8022-3.646a3.659,3.659,0,0,1,4.0224,0l7.8964,4.9644a1.10348,1.10348,0,0,1,.3969.9739,1.03172,1.03172,0,0,1-.4244.8827l-8.1343,4.3371a3.6108,3.6108,0,0,1-3.4937,0l-5.0176-2.6759.3892,1.8073,3.8121,2.0319-.1993.1071-2.7732,1.7419.3175,1.4675,3.208-2.0157a3.66006,3.66006,0,0,1,4.0224.0006l7.8964,4.9634a1.10644,1.10644,0,0,1,.3969.9757,1.02981,1.02981,0,0,1-.4244.8805l-8.1343,4.3364a3.60189,3.60189,0,0,1-3.4937.0006l-1.6886-.9003.3929,1.8091.4794.2554-.1993.1068-.1789.112.3183,1.4675.6129-.3849a3.657,3.657,0,0,1,4.0224,0l7.8964,4.9626a1.10673,1.10673,0,0,1,.3969.9762,1.02977,1.02977,0,0,1-.4244.8813l-8.1343,4.3356a3.62729,3.62729,0,0,1-1.9468.4272l.3127,1.4522a3.77869,3.77869,0,0,1,1.8995.589l7.8964,4.9626a1.10007,1.10007,0,0,1,.3969.9743,1.02851,1.02851,0,0,1-.4244.881l-7.3199,3.903.3104,1.4349,7.6726-4.0921.4688-.3475.4672.3475,7.9772,4.2562-.1956.1041-7.8984,4.9634-.3527.3056-.3503-.3056-7.7071-4.8415.4175,1.9292,6.5378,4.1069a1.11271,1.11271,0,0,1,.3969.9762,1.0265,1.0265,0,0,1-.4244.881l-4.6805,2.4959.3104,1.4352,5.0351-2.6844.4669-.3478.4672.3478,8.1314,4.3376a5.04516,5.04516,0,0,0,4.8243,0l8.132-4.3376.4666-.345.4674.345,8.1341,4.3376a5.045,5.045,0,0,0,4.8242,0l8.1315-4.3376.4672-.3478.4668.3478,8.1312,4.3376a5.05066,5.05066,0,0,0,4.8271,0l8.1321-4.3376.4665-.345.4666.345,8.1343,4.3376a5.03914,5.03914,0,0,0,4.8249-.002l8.1292-4.3356.4688-.3478.4646.3478,8.134,4.3376a5.04516,5.04516,0,0,0,4.8243,0l8.132-4.3376.4666-.345.4675.345,2.4029,1.281.3356-1.4205-2.0735-1.1072a1.026,1.026,0,0,1-.4244-.881,1.11036,1.11036,0,0,1,.3943-.9762l3.2905-2.0659.4615-1.9565-4.4989,2.8278-.3555.3056-.3526-.3056-7.8928-4.9634-.199-.1041,7.9778-4.2562.4666-.3475.4675.3475,5.2582,2.8041.3331-1.4202-4.9263-2.6303a1.02412,1.02412,0,0,1-.4244-.8804,1.09832,1.09832,0,0,1,.3943-.9734l7.0623-4.4405.7494-3.1779-7.7816-4.1491a1.02855,1.02855,0,0,1-.4244-.8813,1.10318,1.10318,0,0,1,.3943-.9754l7.899-4.9634a3.64626,3.64626,0,0,1,2.619-.5131l.3929-1.6583a3.59371,3.59371,0,0,1-2.7494-.2942l-8.1314-4.337a1.02618,1.02618,0,0,1-.4244-.8805,1.10482,1.10482,0,0,1,.3943-.9757l7.899-4.964a3.65906,3.65906,0,0,1,4.0218.0006l1.4704.9235.3447-1.4513-1.0627-.6665-.1956-.1071,1.646-.8782.4323-1.83-2.8956,1.5449a3.617,3.617,0,0,1-3.4988,0l-8.1314-4.3371a1.02956,1.02956,0,0,1-.4244-.8812,1.10092,1.10092,0,0,1,.3943-.9749l7.899-4.9649a3.66135,3.66135,0,0,1,4.0218,0l4.2687,2.683.3427-1.4524-3.859-2.4248-.1956-.1071,5.3209-2.8378.4294-1.8301-6.5676,3.5045a3.616,3.616,0,0,1-3.4988,0l-8.1314-4.3364a1.02893,1.02893,0,0,1-.4244-.8819,1.0995,1.0995,0,0,1,.3943-.974l7.899-4.9657a3.665,3.665,0,0,1,4.0218.0009l7.0671,4.4404.3402-1.4513-6.6569-4.1842-.1965-.1063,7.983-4.2554a2.37514,2.37514,0,0,0,1.167-2.0778A2.47458,2.47458,0,0,0,190.31358,88.0705Z"/>
      <g>
        <path class="cls-1" d="M228.46078,146.2802a1.82846,1.82846,0,0,1,.4488,1.3138,1.78684,1.78684,0,0,1-.1874.6682,1.88965,1.88965,0,0,1-.4368.5729,1.829,1.829,0,0,1-1.3028.4359,1.856,1.856,0,0,1-1.6866-1.938,1.82933,1.82933,0,0,1,.612-1.23,1.60531,1.60531,0,0,1,.6273-.3537,1.75134,1.75134,0,0,1,.6877-.0933l.341.0618.3498.1261.2834.1868Z"/>
        <path class="cls-1" d="M80.68308,26.2517a1.78014,1.78014,0,1,1-.2333-.351l.2333.351Zm6.6776-3.0274a1.81505,1.81505,0,0,1-3.3324,1.4397,1.80778,1.80778,0,0,1,3.0325-1.8961l.2999.4564Zm6.851-2.5269a1.81382,1.81382,0,1,1-.3438-.5904,1.74065,1.74065,0,0,1,.3438.5904Zm7.0226-2.0542a1.79463,1.79463,0,0,1-1.283,2.2218l.0094.0113a1.817,1.817,0,0,1-.9604-3.5047,1.829,1.829,0,0,1,1.8604.5643,1.76559,1.76559,0,0,1,.3736.7073Zm7.1433-1.5585a1.81276,1.81276,0,1,1-3.5538.7172,1.812,1.812,0,0,1,3.1482-1.5404,1.74757,1.74757,0,0,1,.4056.8232Zm7.2329-1.0403a1.8078,1.8078,0,1,1-2.0084-1.563,1.79646,1.79646,0,0,1,2.0084,1.563Zm114.9698,124.6728a1.80134,1.80134,0,0,1-2.1379,1.4037,1.80881,1.80881,0,1,1,.7339-3.5424,1.7744,1.7744,0,0,1,1.0123.5828,1.8014,1.8014,0,0,1,.3917,1.5559ZM122.91338,15.5265a1.8141,1.8141,0,0,1-1.7113,1.8975,1.79454,1.79454,0,0,1-1.9088-1.6991,1.80371,1.80371,0,0,1,3.1691-1.2946,1.8698,1.8698,0,0,1,.451,1.0962Zm108.9088,117.8424h0a1.80972,1.80972,0,0,1-3.5876-.479l-.0133.0116a1.84473,1.84473,0,0,1,2.0469-1.5633,1.87536,1.87536,0,0,1,1.1268.6032,1.82657,1.82657,0,0,1,.4272,1.4275ZM130.23038,15.4959a1.80406,1.80406,0,0,1-1.8303,1.7844,1.82673,1.82673,0,0,1-1.7977-1.8445,1.81432,1.81432,0,0,1,3.628.0601ZM232.528,125.9626l.0113.013a1.81052,1.81052,0,1,1-.4467-1.3153,1.77413,1.77413,0,0,1,.4354,1.3023ZM137.52508,15.9885a1.81147,1.81147,0,1,1-1.6486-1.9516,1.77279,1.77279,0,0,1,1.2155.5987,1.84988,1.84988,0,0,1,.4331,1.3529Zm95.2121,102.5439a1.81071,1.81071,0,1,1-1.8269-1.7966,1.76529,1.76529,0,0,1,1.3807.6205,1.82815,1.82815,0,0,1,.4462,1.1761ZM144.77438,16.9775a1.806,1.806,0,1,1-1.5006-2.0545,1.73867,1.73867,0,0,1,1.074.6012,1.79591,1.79591,0,0,1,.4266,1.4533Zm87.6303,94.11a1.79128,1.79128,0,1,1-.4272-1.0426,1.72583,1.72583,0,0,1,.4272,1.0426ZM151.947,18.4895a1.814,1.814,0,1,1-1.3652-2.1724,1.77393,1.77393,0,0,1,.9606.5794,1.80874,1.80874,0,0,1,.4046,1.593Zm79.6234,85.2118a1.8157,1.8157,0,0,1-3.5917.5349,1.83173,1.83173,0,0,1,1.5423-2.0628,1.79949,1.79949,0,0,1,2.0494,1.5279Zm-72.587-83.2193a1.81118,1.81118,0,0,1-3.4707-1.0372,1.82889,1.82889,0,0,1,2.2558-1.2172,1.88925,1.88925,0,0,1,.8336.546,1.7989,1.7989,0,0,1,.3813,1.7084Zm71.2338,75.9008h0a1.83268,1.83268,0,0,1-1.383,2.1617,1.81078,1.81078,0,1,1,.9768-2.9594,1.92167,1.92167,0,0,1,.4062.7977Zm-64.3595-73.4097a1.798,1.798,0,1,1-.3223-1.8312,1.76684,1.76684,0,0,1,.3223,1.8312Zm62.4844,66.2051a1.81641,1.81641,0,0,1-1.2345,2.2513,1.811,1.811,0,0,1-1.0276-3.473,1.81719,1.81719,0,0,1,1.8873.5409,1.91468,1.91468,0,0,1,.3748.6808Zm-55.7836-63.2233a1.81673,1.81673,0,1,1-.8875-2.3987,1.75874,1.75874,0,0,1,.5984.4408,1.82822,1.82822,0,0,1,.2891,1.9579Zm53.3988,56.1792a1.79512,1.79512,0,0,1-1.0466,2.3262,1.81674,1.81674,0,1,1,.7268-2.888,1.65766,1.65766,0,0,1,.3198.5618Zm-46.952-52.7417a1.81047,1.81047,0,1,1-.7021-2.4621,1.954,1.954,0,0,1,.4867.3948,1.80436,1.80436,0,0,1,.2154,2.0673Zm44.0913,45.868a1.81149,1.81149,0,1,1-3.2899,1.5174,1.81131,1.81131,0,0,1,3.0123-1.9468l.2776.4294Zm-37.88-41.9839a1.80819,1.80819,0,1,1-3.033-1.9695,1.83047,1.83047,0,0,1,2.5165-.5313l.3606.3323a1.77894,1.77894,0,0,1,.1559,2.1685Zm34.5266,35.3466a1.73587,1.73587,0,1,1-.2061-.3232l.2061.3232Zm-28.6243-31.0218a1.78816,1.78816,0,0,1-2.5271.3509,1.81268,1.81268,0,1,1,2.1875-2.891l.2662.2508a1.80587,1.80587,0,0,1,.0734,2.2893Zm24.8077,24.6203a1.81032,1.81032,0,1,1-3.0368,1.9715,1.811,1.811,0,0,1,2.8854-2.175l.1514.2035Zm-19.2203-19.9069a1.80888,1.80888,0,0,1-2.7207-2.3845,1.82747,1.82747,0,0,1,2.5654-.1686l.1686.1678a1.81009,1.81009,0,0,1-.0133,2.3853Zm14.9856,13.7985a1.865,1.865,0,1,1-.0946-.1097l.0946.1097Zm-9.7302-8.6986a1.80691,1.80691,0,0,1-2.5653.0028,1.81462,1.81462,0,1,1,2.5772-2.5552l.0709.0817a1.81317,1.81317,0,0,1-.0828,2.4707Zm4.8716,5.4598a1.81078,1.81078,0,0,1-2.3638-2.7437,1.81079,1.81079,0,1,1,2.3638,2.7437Z"/>
        <path class="cls-1" d="M73.98258,29.5625l.2004.2826.155.3175.0667.3529.0161.3478a1.82122,1.82122,0,0,1-1.94,1.6881l-.3444-.0621-.326-.127-.3056-.1865a2.28644,2.28644,0,0,1-.4643-.5346l-.1437-.3289-.0805-.3398-.0136-.3495a2.20058,2.20058,0,0,1,.1907-.6914,1.86512,1.86512,0,0,1,1.7493-.9967l.3419.0638.3398.114.294.1981Z"/>
      </g>
      <polygon class="cls-1" points="48.095 18.72 52.424 26.552 61.33 27.427 55.218 33.964 57.138 42.705 49.033 38.911 41.314 43.438 42.417 34.558 35.725 28.615 44.512 26.92 48.095 18.72"/>
      <polygon class="cls-1" points="74.037 38.139 73.892 43.823 78.492 47.165 73.041 48.783 71.285 54.191 68.062 49.507 62.375 49.507 65.833 44.994 64.077 39.586 69.439 41.482 74.037 38.139"/>
      <polygon class="cls-1" points="34.568 42.271 35.315 47.908 40.38 50.488 35.251 52.94 34.363 58.556 30.445 54.434 24.83 55.326 27.539 50.327 24.958 45.261 30.548 46.292 34.568 42.271"/>
    </g>
    <rect class="cls-3" x="13.67998" y="44.7588" width="212.6404" height="107.0399" rx="7.4364"/>
    <g>
      <path class="cls-4" d="M148.55728,123.2912c-9.665-2.1963-18.8909-4.8316-18.8909-4.8316l-9.6656.8784-9.6659-.8784s-9.2251,2.6353-18.8906,4.8316c-9.4093,2.139-15.0716,6.7794-15.3647,28.5072h87.8395C163.605,130.1726,157.94818,125.426,148.55728,123.2912Z"/>
      <path class="cls-5" d="M105.32778,119.8349l14.673,10.8244,14.7838-10.7946c-3.1153-.8334-5.1182-1.4051-5.1182-1.4051l-9.6656.8784-9.6659-.8784S108.37958,119.018,105.32778,119.8349Z"/>
      <path class="cls-6" d="M108.601,104.3422V119.338l11.3672,7.4682,11.3672-7.4682V104.4026c-3.8299,3.5951-8.0853,5.7089-11.3346,5.7089C116.73378,110.1115,112.44808,107.9742,108.601,104.3422Z"/>
      <path class="cls-7" d="M133.70708,65.8851c-3.1918-1.5018-7.8857,1.1271-13.7063,1.1271-5.8201-.0009-10.5137-2.6289-13.7058-1.1271-3.1621,1.4876-6.9171,20.6663-6.9849,21.018a30.626,30.626,0,0,0,9.2909,17.4391c3.8471,3.632,8.1328,5.7693,11.3998,5.7693,3.2493,0,7.5047-2.1129,11.3346-5.7089a30.62088,30.62088,0,0,0,9.3566-17.4952C140.64038,86.6412,136.876,67.377,133.70708,65.8851Z"/>
      <path class="cls-8" d="M99.31008,86.9031c.0686-.3526,3.8228-19.5295,6.9849-21.018,3.1921-1.5018,7.8857,1.1271,13.7058,1.1271,5.8206-.0009,10.5145-2.6289,13.7063-1.1271,3.1689,1.4919,6.9333,20.7561,6.9849,21.0223l.0025.0122s2.3987-9.5805-.2287-17.0912c-2.6294-7.5107-6.1957-14.2696-20.465-14.2696-14.2688,0-17.8356,6.7595-20.4645,14.2696-2.6288,7.5101-.2296,17.0912-.2296,17.0912Z"/>
      <path class="cls-9" d="M161.38858,133.8106h-.0009q.1719.458.3325.9428h.0006Q161.56043,134.2683,161.38858,133.8106Z"/>
      <path class="cls-10" d="M161.38768,133.8106h.0009q-.2904-.77385-.6112-1.4715l-.0008-.0005Q161.09758,133.03805,161.38768,133.8106Z"/>
      <path class="cls-10" d="M160.77658,132.3386h.0008q-.36945-.80535-.7803-1.5163l-.0009-.0006Q160.40658,131.53435,160.77658,132.3386Z"/>
      <path class="cls-10" d="M159.99618,130.8217l.0009.0006a15.55074,15.55074,0,0,0-1.0755-1.6311l-.0009-.0005A15.698,15.698,0,0,1,159.99618,130.8217Z"/>
      <path class="cls-10" d="M158.92068,129.1907l.0009.0005a13.68279,13.68279,0,0,0-1.6617-1.8348h-.0014A13.64614,13.64614,0,0,1,158.92068,129.1907Z"/>
      <path class="cls-10" d="M157.25848,127.3558l.0014.0006a14.70313,14.70313,0,0,0-4.3744-2.7343l-.0068-.0029a14.71553,14.71553,0,0,1,4.3798,2.7366Zm-8.4373-4.0036-.0045-.0012-.258-.0598c-3.1107-.7064-6.1761-1.459-8.9022-2.1543h-.0009c2.7264.6953,5.7918,1.4479,8.9017,2.1543Z"/>
      <path class="cls-10" d="M139.65308,121.1363h.0011c-1.7983-.4581-3.4489-.892-4.8682-1.271h-.0008c1.4193.379,3.0702.8129,4.8679,1.271Zm9.1636,2.2147.0045.0012a26.06915,26.06915,0,0,1,4.0575,1.267l.0068.0029A25.921,25.921,0,0,0,148.81668,123.351Z"/>
      <path class="cls-11" d="M163.92048,151.7984c-.1083-7.5254-.8649-13.0065-2.2003-17.045h.0006C163.05558,138.7919,163.81218,144.273,163.92048,151.7984Z"/>
      <path class="cls-10" d="M131.39718,118.7904l-.0618-.0066v.1426l.0955.0264Z"/>
      <polygon class="cls-12" points="131.335 118.784 131.397 118.79 131.335 118.493 131.335 118.784"/>
      <path class="cls-12" d="M132.06248,103.6979h-.0009q-.36015.36045-.7262.7047v.0014h0Q131.70183,104.0596,132.06248,103.6979Z"/>
      <path class="cls-12" d="M132.06158,103.6979h.0009q.4719-.473.9326-.9766l-.0006-.0005Q132.53443,103.2242,132.06158,103.6979Z"/>
      <path class="cls-12" d="M132.99448,102.7208l.0006.0005q.43755-.48.8628-.9853h-.0005Q133.433,102.2415,132.99448,102.7208Z"/>
      <path class="cls-12" d="M133.85738,101.736h.0005q.4074-.48435.8008-.9916h-.0005Q134.26518,101.2517,133.85738,101.736Z"/>
      <path class="cls-12" d="M134.65818,100.7444h.0005q.3789-.4893.7433-.9992h0Q135.03718,100.25505,134.65818,100.7444Z"/>
      <path class="cls-12" d="M135.402,99.7452h0q.34815-.4881.682-.9941h0Q135.75023,99.2575,135.402,99.7452Z"/>
      <path class="cls-12" d="M136.084,98.7511h0q.324-.49155.6316-.9983h0Q136.40808,98.2604,136.084,98.7511Z"/>
      <path class="cls-13" d="M136.71558,97.7528h0q.3006-.49545.5842-1.0058Q137.01523,97.25775,136.71558,97.7528Z"/>
      <path class="cls-13" d="M137.29978,96.747c.1083-.1936.2137-.3886.318-.5853-.1043.1967-.2097.3917-.318.5853Zm.32-.5882.0162-.0311-.0162.0311Zm.019-.0365.0142-.027-.0142.027Zm.0196-.0372.013-.0252-.013.0252Zm.0189-.0351.0117-.0224-.0117.0224Zm.019-.038.0102-.0176-.0102.0176Zm.0204-.0371.0066-.0136-.0066.0136Zm.0188-.038.0048-.0097-.0048.0097Zm.0189-.036.0043-.008-.0043.008Zm.0199-.0391.0011-.0015Z"/>
      <path class="cls-13" d="M139.82488,90.7943Zm.0068-.023.0541-.184-.0541.184Z"/>
      <path class="cls-13" d="M139.88578,90.5873h0q.15135-.51915.2838-1.0471h-.0009Q140.03683,90.0679,139.88578,90.5873Z"/>
      <path class="cls-13" d="M140.41048,88.4863h0q-.111.531-.2409,1.0531Q140.29918,89.0177,140.41048,88.4863Z"/>
      <path class="cls-13" d="M140.41048,88.4863h0q.10935-.5247.199-1.0585Q140.51978,87.9606,140.41048,88.4863Z"/>
      <path class="cls-13" d="M140.60948,87.4278q.04335-.2598.0825-.5204h0v.0006C140.66618,87.082,140.63838,87.2546,140.60948,87.4278Z"/>
      <path class="cls-14" d="M124.58158,66.5493h-.0009a27.29463,27.29463,0,0,1-3.7312.4444h0A27.28674,27.28674,0,0,0,124.58158,66.5493Z"/>
      <path class="cls-14" d="M124.58068,66.5493h.0009c1.5823-.2878,3.0489-.6458,4.3891-.8799C127.62988,65.9035,126.16328,66.2615,124.58068,66.5493Z"/>
      <path class="cls-14" d="M128.97068,65.6694l.2883-.0488-.2883.0488Zm4.7364.2157-.0238-.0108.0238.0108Zm-.0487-.0224-.0162-.0065.0162.0065Zm-.0182-.0079a5.49135,5.49135,0,0,0-2.2776-.4332,5.49135,5.49135,0,0,1,2.2776.4332Zm-2.2972-.4326.0182-.0006h0Z"/>
      <path class="cls-4" d="M120.84948,151.7984v-21.759l13.9357-10.1741c3.573.9544,8.6099,2.2532,13.7721,3.4259,6.1231,1.3918,10.6608,3.8945,13.1629,11.4622,1.3354,4.0385,2.092,9.5196,2.2003,17.045Z"/>
      <path class="cls-5" d="M120.84948,130.0394v-3.8112l10.4859-6.8902v-.4116l.095.0264.0975.472,3.2573.4405Z"/>
      <path class="cls-15" d="M120.84948,126.2282V110.067c3.1201-.3243,6.9814-2.3737,10.4859-5.6644v.0014c-.0499.0473-.1006.0946-.1522.1414v13.2123l.1522.7356v.8447Z"/>
      <path class="cls-16" d="M120.84948,110.067V66.9937a63.65987,63.65987,0,0,0,8.4095-1.3731,13.18777,13.18777,0,0,1,2.084-.1984l.0182-.0006h.0014a5.49135,5.49135,0,0,1,2.2776.4332l.002.0014.0162.0065.0249.0116.0238.0108h0c3.1689,1.4919,6.9333,20.7561,6.9849,21.0223a27.76511,27.76511,0,0,1-.8603,3.8639l-.0068.023h0a29.6031,29.6031,0,0,1-2.0495,5.066l-.0011.0015-.0156.0311-.0043.008-.0141.0263-.0048.0097-.0122.0244-.0066.0136-.0102.0195-.0102.0176-.0073.0156-.0117.0224-.0059.0099-.013.0252-.0054.0102-.0142.027-.0028.0054-.0162.0311-.002.0029a31.747,31.747,0,0,1-6.2824,8.2409h0C127.83088,107.6933,123.96958,109.7427,120.84948,110.067Z"/>
      <path class="cls-13" d="M140.81978,86.3714l-.0014-.0009c-.0717.3351-.119.5281-.1239.5477l.0009.0014h0S140.74408,86.7251,140.81978,86.3714Z"/>
      <path class="cls-13" d="M140.81838,86.3705l.0014.0009c.057-.2668.1293-.6234.2078-1.0574h-.0014C140.94768,85.748,140.87538,86.1046,140.81838,86.3705Z"/>
      <path class="cls-13" d="M141.02618,85.314h.0014c.057-.3154.1171-.6706.1775-1.0612l-.0009-.0006C141.14408,84.6428,141.08368,84.9986,141.02618,85.314Z"/>
      <path class="cls-13" d="M141.20418,84.2522l.0009.0006c.0513-.3317.102-.6883.1516-1.0667h-.0014Q141.28208,83.7546,141.20418,84.2522Z"/>
      <path class="cls-13" d="M141.35528,83.1861h.0014c.0431-.3396.0859-.6976.1245-1.0707h-.0015C141.44118,82.4885,141.39918,82.8465,141.35528,83.1861Z"/>
      <path class="cls-13" d="M141.47968,82.1154h.0015c.0351-.3452.0683-.7047.0966-1.074l-.0005-.0009C141.54888,81.4107,141.51568,81.7696,141.47968,82.1154Z"/>
      <path class="cls-13" d="M141.57728,81.0405h.0005c.0272-.3492.0508-.7092.0698-1.0768h-.0006Q141.61848,80.5151,141.57728,81.0405Z"/>
      <path class="cls-17" d="M141.647,79.9637h.0006c.0175-.3532.0317-.7141.0399-1.0815h-.0005Q141.67378,79.4333,141.647,79.9637Z"/>
      <path class="cls-17" d="M141.687,78.8822h.0005q.0123-.5349.0082-1.0856h-.0008Q141.69908,78.3468,141.687,78.8822Z"/>
      <path class="cls-17" d="M141.69488,77.7966h.0008c-.0028-.3595-.0107-.7234-.0258-1.0902l-.0005-.0009Q141.69143,77.257,141.69488,77.7966Z"/>
      <path class="cls-17" d="M141.66938,76.7055h.0005q-.0225-.543-.0635-1.0956h0Q141.64763,76.161,141.66938,76.7055Z"/>
      <path class="cls-17" d="M141.60638,75.6099h0q-.04155-.5484-.1051-1.1012h-.0006Q141.56488,75.061,141.60638,75.6099Z"/>
      <path class="cls-17" d="M141.50068,74.5087h.0006q-.06375-.55455-.1522-1.1087h0Q141.43668,73.9532,141.50068,74.5087Z"/>
      <path class="cls-17" d="M141.34908,73.4h0q-.0894-.5595-.205-1.1154h-.0008Q141.26013,72.8399,141.34908,73.4Z"/>
      <path class="cls-17" d="M141.14328,72.2837l.0008.0009q-.1191-.56685-.2687-1.1251h-.0009Q141.02373,71.71825,141.14328,72.2837Z"/>
      <path class="cls-14" d="M140.87448,71.1595h.0009q-.15345-.57225-.3419-1.135h-.0014Q140.72093,70.58625,140.87448,71.1595Z"/>
      <path class="cls-14" d="M140.53208,70.0245h.0014c-.0224-.0654-.0439-.1312-.0669-.1961q-.16665-.47625-.3384-.9476h-.0014q.1725.471.339.9476C140.489,69.8933,140.51058,69.9591,140.53208,70.0245Z"/>
      <path class="cls-14" d="M140.12678,68.8816h.0014q-.21225-.5787-.4374-1.1486h0Q139.91533,68.3024,140.12678,68.8816Z"/>
      <path class="cls-14" d="M139.69078,67.733h0c-.1508-.3832-.3078-.7636-.4708-1.1384h-.0009Q139.464,67.158,139.69078,67.733Z"/>
      <path class="cls-14" d="M139.21908,66.5946h.0009c-.0638-.1463-.1282-.2911-.1936-.436C139.09128,66.3035,139.15618,66.4483,139.21908,66.5946Z"/>
      <path class="cls-18" d="M140.69448,86.9182l-.0019-.0136-.0006.0034v-.0006c-.0516-.2662-3.816-19.5304-6.9849-21.0223h0l-.0238-.0108-.0249-.0116-.0162-.0065-.002-.0014a5.49135,5.49135,0,0,0-2.2776-.4332h-.0014l-.0182.0006a13.19653,13.19653,0,0,0-2.084.1984,63.62684,63.62684,0,0,1-8.4095,1.3731V55.5718c11.2481.2205,15.5622,4.8243,18.1769,10.5868.536,1.1838,1.0009,2.4163,1.4394,3.6698C143.07418,77.2815,140.73048,86.7753,140.69448,86.9182Z"/>
    </g>
    <path class="cls-19" d="M116.90728,108.2055a6.8234,6.8234,0,0,1-.299-2.145,10.80045,10.80045,0,0,1,.4487-3.2921,14.39394,14.39394,0,0,1,1.0976-2.5691,19.83651,19.83651,0,0,1,1.4465-2.2447,17.0678,17.0678,0,0,0,1.4468-2.3196,15.0964,15.0964,0,0,0,1.0973-2.8185,13.83362,13.83362,0,0,0,.449-3.7664,3.88309,3.88309,0,0,0-.7234-2.6688,3.02648,3.02648,0,0,0-4.0405,0,3.88465,3.88465,0,0,0-.7234,2.6688v3.7913h-5.1877V89.3993q0-4.24005,2.0203-6.5097,2.02-2.2698,6.0607-2.2697,4.0407,0,6.0611,2.2697,2.02,2.26965,2.0202,6.5097a14.64283,14.64283,0,0,1-.4739,3.966,15.018,15.018,0,0,1-1.1974,3.0178,18.953,18.953,0,0,1-1.5712,2.4692q-.848,1.1226-1.5713,2.2198a11.98107,11.98107,0,0,0-1.1973,2.3446,7.9683,7.9683,0,0,0-.4737,2.8434,8.53941,8.53941,0,0,0,.1993,1.9454Zm5.0383,2.4443v5.2878h-5.2874v-5.2878Z"/>
    <g>
      <circle class="cls-20" cx="40.17996" cy="182.38423" r="16.10131" transform="translate(-117.19669 81.83062) rotate(-45)"/>
      <circle class="cls-20" cx="80.04616" cy="182.38423" r="16.10131" transform="translate(-105.52015 110.02028) rotate(-45)"/>
      <path class="cls-21" d="M119.91208,198.4856a16.10135,16.10135,0,1,0-16.1017-16.1014A16.13267,16.13267,0,0,0,119.91208,198.4856Z"/>
      <circle class="cls-20" cx="159.95481" cy="182.38423" r="16.10138" transform="translate(-37.62427 41.62892) rotate(-13.28249)"/>
      <circle class="cls-22" cx="199.82098" cy="182.38423" r="16.10136"/>
    </g>
    <polygon class="cls-23" points="117.236 184.3 118.335 177.012 120.579 177.012 120.579 187.277 119.054 187.277 119.054 179.916 117.939 187.277 116.414 187.277 115.212 180.018 115.212 187.277 113.804 187.277 113.804 177.012 116.048 177.012 117.236 184.3"/>
    <polygon class="cls-23" points="123.365 181.573 125.447 181.573 125.447 183.039 123.365 183.039 123.365 187.277 121.752 187.277 121.752 177.012 126.019 177.012 126.019 178.479 123.365 178.479 123.365 181.573"/>
    <path class="cls-23" d="M195.048,178.5427a2.42713,2.42713,0,0,0,.7699-.1026,1.37,1.37,0,0,0,.4913-.2787,1.417,1.417,0,0,0,.3078-.4107,3.79719,3.79719,0,0,0,.2052-.4986h1.0851v10.2648h-1.6129v-7.8304H195.048Z"/>
    <path class="cls-23" d="M204.594,184.9654a2.91647,2.91647,0,0,1-.6013,1.9869,2.35648,2.35648,0,0,1-1.862.682,2.31091,2.31091,0,0,1-1.7966-.6673,2.74224,2.74224,0,0,1-.6083-1.9137v-.2639h1.525v.3665a1.09036,1.09036,0,0,0,.2273.7847.82294.82294,0,0,0,.6083.2273.838.838,0,0,0,.66-.2639,1.54744,1.54744,0,0,0,.2347-.9972v-1.8771a1.51592,1.51592,0,0,1-1.4959.9093,1.56506,1.56506,0,0,1-1.3416-.6012,2.89161,2.89161,0,0,1-.4473-1.745v-1.8771a2.68116,2.68116,0,0,1,.6307-1.9137,2.811,2.811,0,0,1,3.6366,0,2.68151,2.68151,0,0,1,.6304,1.9137v5.2497Zm-2.4489-2.4927a.82254.82254,0,0,0,.6086-.2274,1.0896,1.0896,0,0,0,.2274-.7846v-1.8476a1.06155,1.06155,0,0,0-.2274-.7773.9518.9518,0,0,0-1.2172,0,1.06339,1.06339,0,0,0-.227.7773v1.8476a1.09151,1.09151,0,0,0,.227.7846A.82363.82363,0,0,0,202.14508,182.4727Z"/>
    <g>
      <circle class="cls-24" cx="40.17968" cy="182.5217" r="12.1399"/>
      <path class="cls-25" d="M28.76368,178.3834a12.14449,12.14449,0,0,1,22.832,0Z"/>
      <path class="cls-5" d="M28.03978,182.5217a12.11938,12.11938,0,0,1,.7239-4.1383h22.832a12.19459,12.19459,0,0,1,.0958,8.0022H28.66788A12.12367,12.12367,0,0,1,28.03978,182.5217Z"/>
    </g>
    <g>
      <polygon class="cls-26" points="68.581 184.12 71.982 186.019 72.667 180.215 68.581 184.12"/>
      <polygon class="cls-26" points="91.51 184.12 88.11 186.019 87.425 180.215 91.51 184.12"/>
      <path class="cls-26" d="M81.03828,172.3878c1.4794,3.8883,5.4261,6.2992,9.3968,6.9475a1.06257,1.06257,0,0,1,.8774,1.2189,19.13949,19.13949,0,0,1-10.8,13.8662,1.03183,1.03183,0,0,1-.9326,0A19.14064,19.14064,0,0,1,68.779,180.5542a1.064,1.064,0,0,1,.8773-1.2189c3.9708-.6483,7.9186-3.0592,9.3969-6.9475a1.0617,1.0617,0,0,1,1.9851,0Z"/>
      <path class="cls-11" d="M80.04618,193.468a18.0651,18.0651,0,0,1-10.2184-13.0833c4.8374-.7881,8.7463-3.748,10.2184-7.6184,1.4711,3.8704,5.3801,6.8303,10.2186,7.6184a18.07009,18.07009,0,0,1-10.2186,13.0833Z"/>
      <path class="cls-26" d="M80.04618,174.6816a14.47646,14.47646,0,0,1-8.8645,5.9792,17.0428,17.0428,0,0,0,8.8645,10.8929,17.04177,17.04177,0,0,0,8.8636-10.8929,14.47173,14.47173,0,0,1-8.8636-5.9792Z"/>
      <path class="cls-27" d="M80.04618,178.5614a6.6039,6.6039,0,1,1-6.6042,6.6033,6.60369,6.60369,0,0,1,6.6042-6.6033Z"/>
      <path class="cls-11" d="M81.70558,179.4135a5.98651,5.98651,0,1,1-7.4115,4.0921,5.98617,5.98617,0,0,1,7.4115-4.0921Z"/>
      <path class="cls-27" d="M83.50578,190.0502a6.01556,6.01556,0,0,1-2.7873,1.0644,7.13313,7.13313,0,0,1-.9649-.9734,3.04253,3.04253,0,0,0,1.8797-1.4343,3.88093,3.88093,0,0,0,1.9854.0711,3.85286,3.85286,0,0,1-.1129,1.2722Z"/>
      <path class="cls-27" d="M85.578,182.8783a5.96456,5.96456,0,0,1,.3481,3.4092,7.246,7.246,0,0,1-.9097.4465,3.04289,3.04289,0,0,0-.8155-2.2207,3.86129,3.86129,0,0,0,.6545-1.8745,3.82838,3.82838,0,0,1,.7226.2395Z"/>
      <path class="cls-27" d="M81.70558,179.4135a5.99046,5.99046,0,0,1,1.6727.7767,7.17838,7.17838,0,0,1,.0689,1.0091,2.93788,2.93788,0,0,0-2.2853-.0878,3.73127,3.73127,0,0,0-1.4355-1.2745,3.69429,3.69429,0,0,1,.5834-.6534,6.03341,6.03341,0,0,1,1.3958.2299Z"/>
      <path class="cls-27" d="M74.53648,182.8227a5.96281,5.96281,0,0,1,2.0491-2.5424,3.83833,3.83833,0,0,1,.8898.2007,3.87748,3.87748,0,0,0-.4453,1.9353,3.04058,3.04058,0,0,0-1.8726,1.4448,7.33512,7.33512,0,0,1-.621-1.0384Z"/>
      <path class="cls-27" d="M76.41838,189.9289a5.99148,5.99148,0,0,1-1.8252-2.2946,3.82038,3.82038,0,0,1,.6094-1.2266,3.87587,3.87587,0,0,0,1.7178.9964,3.03893,3.03893,0,0,0,.8269,2.2156,7.17736,7.17736,0,0,1-1.3289.3092Z"/>
      <polygon class="cls-27" points="80.895 182.548 81.706 183.59 82.519 184.633 81.778 185.727 81.037 186.821 79.768 186.455 78.499 186.088 78.455 184.768 78.411 183.448 79.653 182.997 80.895 182.548"/>
      <path class="cls-27" d="M85.20778,182.3148a5.896,5.896,0,1,0,.504,4.4849,5.87375,5.87375,0,0,0-.504-4.4849Zm-3.4781-2.9869a6.07535,6.07535,0,1,1-4.6202.5185,6.05928,6.05928,0,0,1,4.6202-.5185Z"/>
      <path class="cls-27" d="M82.17378,190.7487a6.01521,6.01521,0,0,0,1.3216-.7047,3.81146,3.81146,0,0,0,.1077-.6157,3.93531,3.93531,0,0,0,.0051-.6366,3.32672,3.32672,0,0,1-.9933.0907,4.76828,4.76828,0,0,1-.9765-.163,3.02222,3.02222,0,0,1-.7776.8917,3.26152,3.26152,0,0,1-1.0885.5364c.1494.1797.3011.3472.457.5051.1587.1599.3231.3093.4924.4504a6.01168,6.01168,0,0,0,1.4521-.3543Zm1.3383-.6891a6.01739,6.01739,0,0,1-2.7924,1.0664h-.0043l-.0042-.0031c-.1715-.142-.3368-.2937-.4978-.4547-.1599-.1622-.3166-.3345-.4691-.5196l-.0105-.0136.0167-.0043a3.224,3.224,0,0,0,1.0967-.5374,2.998,2.998,0,0,0,.7767-.8926l.0043-.0074.0082.002a4.70865,4.70865,0,0,0,.9797.1652,3.3314,3.3314,0,0,0,.9995-.0929l.0124-.0032.0012.0125a3.784,3.784,0,0,1-.0043.6534,3.85479,3.85479,0,0,1-.1086.6231l-.0011.0031Z"/>
      <path class="cls-27" d="M85.99178,184.5604a5.95824,5.95824,0,0,0-.4223-1.6739q-.16755-.0735-.3459-.1338c-.115-.0385-.2352-.072-.3577-.1003a3.37966,3.37966,0,0,1-.2069.9765,4.69431,4.69431,0,0,1-.4445.8836,3.01437,3.01437,0,0,1,.6231,1.0077,3.2553,3.2553,0,0,1,.1905,1.1971c.1567-.065.3072-.1327.4538-.205q.2241-.10965.4337-.2321a5.96862,5.96862,0,0,0,.0762-1.7198Zm-.4033-1.6864a5.96373,5.96373,0,0,1,.3481,3.4158l-.0012.0051-.0042.002q-.213.1254-.44.2364c-.1508.0743-.3075.1443-.4705.2112l-.0156.0062.0011-.0167a3.23792,3.23792,0,0,0-.1893-1.2064,3.01753,3.01753,0,0,0-.6242-1.0058l-.0054-.0062.0043-.0074a4.6988,4.6988,0,0,0,.4464-.8878,3.31133,3.31133,0,0,0,.2061-.9825l.0008-.0127.0128.0031a3.73826,3.73826,0,0,1,.373.1037,3.43416,3.43416,0,0,1,.3515.1369l.004.0012Z"/>
      <path class="cls-27" d="M82.56788,179.748a5.91462,5.91462,0,0,0-.8655-.324,6.0889,6.0889,0,0,0-.6902-.1559,5.92815,5.92815,0,0,0-.6982-.0731,3.55749,3.55749,0,0,0-.5709.6378,3.23765,3.23765,0,0,1,.7957.5436,4.55883,4.55883,0,0,1,.6273.7215,2.92063,2.92063,0,0,1,1.1291-.1851,3.12557,3.12557,0,0,1,1.1406.2695c0-.1692-.0065-.3342-.0167-.4963-.0116-.1664-.0295-.3283-.0513-.4893a5.8563,5.8563,0,0,0-.7999-.4487Zm-.8592-.345a6.033,6.033,0,0,1,1.6747.7779l.0042.0031.0009.0054c.0232.1618.0408.3271.0524.4943.0117.1684.0168.3399.0168.5156v.0168l-.0156-.0066a3.10375,3.10375,0,0,0-1.1481-.2749,2.90268,2.90268,0,0,0-1.1279.1874l-.0085.0031-.0051-.0074a4.607,4.607,0,0,0-.6284-.7257,3.26394,3.26394,0,0,0-.8031-.5456l-.0113-.0051.0074-.0105a3.65019,3.65019,0,0,1,.278-.3504,3.73391,3.73391,0,0,1,.3073-.3053l.0031-.0031.0054.0011a5.9807,5.9807,0,0,1,1.3978.2299Z"/>
      <path class="cls-27" d="M75.39168,181.4168a5.9216,5.9216,0,0,0-.8425,1.4059c.0845.1738.1786.3462.2801.5165.1003.1684.2092.3348.3274.502a3.25535,3.25535,0,0,1,.7996-.9127,3.04106,3.04106,0,0,1,1.0633-.5208,4.67583,4.67583,0,0,1,.0953-.9847,3.348,3.348,0,0,1,.3449-.9357,3.70471,3.70471,0,0,0-.432-.1233,3.79022,3.79022,0,0,0-.4391-.0723,5.9521,5.9521,0,0,0-1.197,1.1251Zm-.8654,1.402a5.97128,5.97128,0,0,1,2.0531-2.547l.0031-.0031.0043.0012a3.658,3.658,0,0,1,.4453.072,4.00484,4.00484,0,0,1,.4476.1287l.0124.0042-.0073.0113a3.33357,3.33357,0,0,0-.3481.942,4.72825,4.72825,0,0,0-.0953.9882v.0082l-.0082.0031a2.99951,2.99951,0,0,0-1.0633.5187,3.2393,3.2393,0,0,0-.803.9199l-.0082.0147-.0105-.0136c-.1222-.1715-.2342-.343-.3376-.5165q-.15525-.2589-.2835-.5238l-.002-.0043Z"/>
      <path class="cls-27" d="M75.373,188.8897a6.06814,6.06814,0,0,0,1.0485,1.0279q.3261-.04425.6534-.1194c.2154-.0501.432-.1108.6525-.1839a3.25108,3.25108,0,0,1-.6347-1.033,3.03249,3.03249,0,0,1-.1839-1.1687,4.80994,4.80994,0,0,1-.9128-.3818,3.36166,3.36166,0,0,1-.7923-.6064,3.8317,3.8317,0,0,0-.5992,1.2087,6.033,6.033,0,0,0,.7685,1.2566Zm1.0391,1.0477a6.00933,6.00933,0,0,1-1.8294-2.2989l-.0012-.0034.0012-.004a3.8424,3.8424,0,0,1,.6106-1.2305l.0082-.0105.0085.0094a3.37572,3.37572,0,0,0,.7965.6117,4.773,4.773,0,0,0,.917.3824l.0082.0023v.0082a2.997,2.997,0,0,0,.182,1.1699,3.24124,3.24124,0,0,0,.6418,1.0383l.0116.0125-.0156.0062c-.227.0743-.4496.1369-.6712.1882-.2206.0513-.4402.091-.6608.1202l-.0042.0011Z"/>
      <path class="cls-27" d="M80.98188,186.5803c.0972.3303.248.7558.3982,1.1824.1517.4317.3045.8626.4006,1.1908l-.1704.0502c-.0972-.3303-.2477-.7557-.3982-1.1823-.1517-.4309-.3042-.8626-.4006-1.1909l.1704-.0502Zm1.0842-2.0281c.2175-.0156.8238-.0587,1.4261-.1004.5154-.0366,1.0299-.0731,1.4281-.1003l.0117.1766c-.2177.0147-.8218.0575-1.4273.1003-.5165.0366-1.0298.0731-1.4272.1004l-.0114-.1766Zm-1.311-1.8664.343-1.8567.1746.0323-.343,1.857-.1746-.0326Zm-2.1546,1.0131c-.2563-.1621-.6253-.4328-.9944-.7035-.3702-.2707-.7393-.5406-.9848-.6962l.095-.1497c.2551.161.6253.4317.9944.7027.3691.2707.7381.5414.9848.6962l-.095.1505Zm-1.4063-3.1677c.1089-.0575.207-.112.2999-.161a3.745,3.745,0,0,1,2.7017-.6126l-.0093.1766a3.61878,3.61878,0,0,0-2.6076.5916q-.14115.07575-.3011.1622l-.0836-.1568Zm7.6916,2.2947a4.15335,4.15335,0,0,0-.6608-1.0202,2.77882,2.77882,0,0,0-.9848-.7016l.0689-.1641a2.95612,2.95612,0,0,1,1.0477.7463,4.32313,4.32313,0,0,1,.6888,1.0633l-.1598.0763Zm-1.4888,6.0502a6.61381,6.61381,0,0,0,.9618-1.0485,5.54959,5.54959,0,0,0,.6576-1.2473l.1653.065a5.69662,5.69662,0,0,1-.6786,1.2849,6.732,6.732,0,0,1-.9868,1.0777l-.1193-.1318Zm-8.3001-2.1265a5.052,5.052,0,0,1-.2906-1.7051,4.95958,4.95958,0,0,1,.322-1.6602l.1673.0618a4.74987,4.74987,0,0,0-.3115,1.5996,4.87549,4.87549,0,0,0,.2812,1.6475l-.1684.0564Zm2.5792,2.7674a4.01043,4.01043,0,0,0,1.8851.5196c.0983.0085.2049.0179.3574.0323l-.0167.1769c-.1117-.0105-.2404-.0218-.3563-.0323a4.13956,4.13956,0,0,1-1.9469-.5366l.0774-.1599Zm-.8467-2.1568,1.6549-1.3601.1128.138-1.6549,1.359Z"/>
      <rect class="cls-28" x="68.58138" y="182.3848" width="22.9286" height="3.9583"/>
      <polygon class="cls-26" points="80.046 169.386 80.281 169.942 80.883 169.994 80.428 170.39 80.563 170.978 80.046 170.667 79.529 170.978 79.665 170.39 79.21 169.994 79.81 169.942 80.046 169.386"/>
      <polygon class="cls-26" points="87.956 175.332 88.264 176.056 89.047 176.124 88.454 176.64 88.63 177.406 87.956 177.002 87.282 177.406 87.459 176.64 86.866 176.124 87.648 176.056 87.956 175.332"/>
      <polygon class="cls-26" points="84.41 172.302 84.686 172.951 85.387 173.013 84.857 173.476 85.014 174.163 84.41 173.8 83.806 174.163 83.964 173.476 83.433 173.013 84.134 172.951 84.41 172.302"/>
      <polygon class="cls-26" points="72.136 175.332 71.828 176.056 71.045 176.124 71.639 176.64 71.462 177.406 72.136 177.002 72.81 177.406 72.634 176.64 73.227 176.124 72.444 176.056 72.136 175.332"/>
      <polygon class="cls-26" points="75.681 172.302 75.406 172.951 74.704 173.013 75.235 173.476 75.077 174.163 75.681 173.8 76.287 174.163 76.128 173.476 76.66 173.013 75.957 172.951 75.681 172.302"/>
    </g>
    <path class="cls-23" d="M148.23528,178.3029a2.428,2.428,0,0,0,.7699-.1026,1.36955,1.36955,0,0,0,.4912-.2787,1.41527,1.41527,0,0,0,.3078-.4107,3.79746,3.79746,0,0,0,.2053-.4986h1.0851v10.2648h-1.6129v-7.8304h-1.2464Z"/>
    <path class="cls-23" d="M154.042,178.3029a2.42713,2.42713,0,0,0,.7699-.1026,1.37,1.37,0,0,0,.4913-.2787,1.41527,1.41527,0,0,0,.3078-.4107,3.78353,3.78353,0,0,0,.2052-.4986h1.0851v10.2648h-1.6129v-7.8304H154.042Z"/>
    <polygon class="cls-23" points="163.588 177.012 163.588 178.42 161.213 187.277 159.6 187.277 161.96 178.479 158.749 178.479 158.749 177.012 163.588 177.012"/>
    <path class="cls-23" d="M167.56978,179.1802l.0074-.0068.0011-.0011.0068-.006.0017-.0014.0088-.0074.0088-.007.0091-.0068.009-.0066.0094-.0062.0094-.006.0048-.0031.0048-.0028.0045-.0026.0051-.0028.0046-.0025.0051-.0029.0042-.0022.0054-.0026.0045-.0023.0054-.0025.0043-.002.0059-.0026.0043-.0017.0056-.0025.0043-.0017.006-.0023.0045-.0017.0057-.002.0207-.0065.0048-.0017.0056-.0014.0009-.0003.0008-.0003.0012-.0002.0008-.0003h.0012l.0008-.0003.0009-.0003.0011-.0003.0008-.0003.0012-.0002h.0008v-.0003h.0012l.0008-.0003.0009-.0003.0019-.0006h.0012l.0008-.0002.0012-.0003.0008-.0003h.0011l.0006-.0003h.0003l.0011-.0003.0009-.0003h.0008l.0012-.0002.0011-.0003.0009-.0003h.0011l.0008-.0003.0009-.0003.0011-.0003h.0009l.0011-.0002.0011-.0003h.0009l.0011-.0003h.0009l.0011-.0003.0009-.0003h.0011l.0008-.0003h.0012l.0008-.0003.0012-.0002h.0008l.0043-.0009h.0008l.002-.0003h.0006l.0017-.0003.0008-.0002.0031-.0003h.0009l.0023-.0006h.0019l.0077-.0011h.0028l.0108-.0009.0094-.0008h.0014l.0161-.0003.0054-.0003.0054.0003.0162.0003h.0014l.0093.0008.0108.0009h.0028l.0077.0011h.002l.0022.0006h.0009l.0031.0003.0009.0002.0017.0003h.0005l.0071.0012h.0009l.0011.0002h.0008v.0003h.0012l.0008.0003h.0012l.0008.0003.0011.0003h.0009l.0011.0003h.0009l.0011.0003.0009.0002h.0011l.0009.0003.0011.0003.0008.0003h.0012l.0088.002.0008.0003.0011.0002h.0012l.0037.0012h.0011v.0003h.0008l.002.0005.0012.0003.0017.0006h.0011l.0008.0003.0012.0002.0008.0003.0009.0003.0057.0014.0048.0017.0207.0065.0056.002.0046.0017.0059.0023.0043.0017.0056.0025.0043.0017.0059.0026.0043.002.0054.0025.0045.0023.0054.0026.0043.0022.0051.0029.0045.0025.0051.0028.0045.0026.0049.0028.0048.0031.0093.006.0094.0062.0091.0066.009.0068.0088.007.0088.0074.0017.0014.0068.006.0011.0011.0074.0068.0082.008,2.7887,2.7887a.44816.44816,0,0,1-.6338.6338l-2.0236-2.0236v6.0885a.44815.44815,0,0,1-.8963,0v-6.0885l-2.0237,2.0236a.44816.44816,0,0,1-.6338-.6338l2.7887-2.7887Z"/>
  </g>
</svg>
