<svg xmlns="http://www.w3.org/2000/svg" xmlns:xlink="http://www.w3.org/1999/xlink" viewBox="0 0 240.00009 240.00009">
  <defs>
    <style>
      .cls-1, .cls-15, .cls-9 {
        fill: none;
      }

      .cls-2 {
        isolation: isolate;
      }

      .cls-3, .cls-4 {
        fill: #f2f2dc;
      }

      .cls-16, .cls-17, .cls-18, .cls-19, .cls-20, .cls-22, .cls-23, .cls-24, .cls-25, .cls-26, .cls-27, .cls-28, .cls-29, .cls-3, .cls-30, .cls-32, .cls-36, .cls-37 {
        fill-rule: evenodd;
      }

      .cls-5 {
        fill: #64748b;
        stroke: #434e5e;
      }

      .cls-15, .cls-5, .cls-9 {
        stroke-miterlimit: 22.9256;
        stroke-width: 0.9598px;
      }

      .cls-6 {
        fill: #c2f2dc;
      }

      .cls-7 {
        clip-path: url(#clip-path);
      }

      .cls-8 {
        fill: #5cd69f;
      }

      .cls-9 {
        stroke: #1ccf7c;
      }

      .cls-10, .cls-30 {
        fill: #475569;
      }

      .cls-11 {
        clip-path: url(#clip-path-2);
      }

      .cls-12 {
        fill: #de9e9e;
      }

      .cls-13 {
        clip-path: url(#clip-path-3);
      }

      .cls-14 {
        fill: #d46464;
      }

      .cls-15 {
        stroke: #cf6161;
      }

      .cls-16 {
        fill: #bfbfbf;
      }

      .cls-17 {
        fill: #bbb;
        mix-blend-mode: multiply;
      }

      .cls-18, .cls-33 {
        fill: #fff;
      }

      .cls-19 {
        fill: #fe0000;
      }

      .cls-20, .cls-27 {
        opacity: 0.3;
      }

      .cls-21 {
        clip-path: url(#clip-path-4);
      }

      .cls-22 {
        fill: #c8102e;
      }

      .cls-23 {
        fill: #003265;
      }

      .cls-24, .cls-27 {
        fill: #1f1a1d;
      }

      .cls-25 {
        fill: #004788;
      }

      .cls-26 {
        fill: #e6d700;
      }

      .cls-28 {
        fill: #f12515;
      }

      .cls-29 {
        fill: #c9180c;
      }

      .cls-31 {
        fill: #21468b;
      }

      .cls-32 {
        fill: #ae1c28;
      }

      .cls-34 {
        fill: #008753;
      }

      .cls-35 {
        fill: #ffce00;
      }

      .cls-37 {
        fill: #d00;
      }
    </style>
    <clipPath id="clip-path">
      <path class="cls-1" d="M70.62839,13.03h145.4849a3.4005,3.4005,0,0,1,3.4005,3.4005V28.3861a3.4005,3.4005,0,0,1-3.4005,3.4005H70.62829a3.4004,3.4004,0,0,1-3.4004-3.4004V16.4305a3.4005,3.4005,0,0,1,3.4005-3.4005Z"/>
    </clipPath>
    <clipPath id="clip-path-2">
      <path class="cls-1" d="M70.62829,68.2492h145.4851a3.4004,3.4004,0,0,1,3.4004,3.4004V83.6053a3.4005,3.4005,0,0,1-3.4005,3.4005H70.62829a3.4004,3.4004,0,0,1-3.4004-3.4004V71.6496a3.4004,3.4004,0,0,1,3.4004-3.4004Z"/>
    </clipPath>
    <clipPath id="clip-path-3">
      <rect class="cls-1" x="67.22789" y="123.4684" width="152.2859" height="18.7565" rx="3.4004"/>
    </clipPath>
    <clipPath id="clip-path-4">
      <rect class="cls-1" x="67.22789" y="178.6876" width="152.2859" height="18.7565" rx="3.4004"/>
    </clipPath>
  </defs>
  <g class="cls-2">
    <g id="_1-18" data-name="1">
      <g>
        <path class="cls-3" d="M214.27709,207.5536h-9.8799V86.4026l-175.5541-.0185a7.92187,7.92187,0,0,0-7.9132,7.9127V207.5536H11.05V94.2968a17.81312,17.81312,0,0,1,17.7931-17.7925h175.5366a9.90834,9.90834,0,0,1,9.8974,9.8983Z"/>
        <polygon class="cls-3" points="17.759 202.764 14.221 196.658 48.705 176.676 28.766 82.172 35.674 80.716 56.663 180.219 17.759 202.764"/>
        <polygon class="cls-3" points="207.568 202.764 168.665 180.219 189.655 80.716 196.561 82.172 176.625 176.676 211.108 196.658 207.568 202.764"/>
        <rect class="cls-4" x="52.68469" y="174.9203" width="119.9603" height="7.0566"/>
        <path class="cls-3" d="M45.42459,169.6584l-1.6911-3.2868-.2753-.4125.1591-.4694,1.4351-5.1001,1.7031,2.7709.1565.2041a5.08778,5.08778,0,0,0-.2191.7152l-1.2683,5.5786Zm-.4172,5.0507a8.26556,8.26556,0,0,0-.169-3.1031l-2.1994-4.2808-.0626.231-1.6886,7.0642a8.45725,8.45725,0,0,0,.1542,3.1652l2.2022,3.5158.0323-.1211,1.7309-6.4712Zm-5.2093-1.599-1.7827-3.4566-.2857-.4271.1718-.4859,1.5814-5.3736,1.7998,2.9046.1618.2121a5.42981,5.42981,0,0,0-.2387.7424l-1.4077,5.8841Zm-.4617,5.1126a8.35678,8.35678,0,0,0-.1443-3.2103l-2.3063-4.4651-.0944.3387-1.8453,7.3248a8.5561,8.5561,0,0,0,.1321,3.2743l2.3165,3.6674.0668-.2208,1.8749-6.709Zm-5.478-1.4723-1.8791-3.6278-.2976-.4419.1857-.5069,1.7433-5.663,1.8989,3.0393.1718.2182a5.60029,5.60029,0,0,0-.2582.7748l-1.5648,6.2073Zm-.506,5.1794a8.49056,8.49056,0,0,0-.1216-3.3227l-2.4114-4.6531-.1386.4518-2.0118,7.5986a8.68207,8.68207,0,0,0,.1049,3.3911l2.4356,3.8196.1068-.318,2.0361-6.9673Zm-5.7707-1.3337-1.9834-3.8086-.3082-.4595.2033-.5306,1.9193-5.9692,2.0067,3.1804.174.2203a5.35131,5.35131,0,0,0-.2761.8152l-1.7356,6.552Zm-.5559,5.2563a6.73492,6.73492,0,0,0,.1267-1.8765v-.0048a5.39,5.39,0,0,0-.2191-1.5648l-2.5226-4.8466a4.94552,4.94552,0,0,0-.1904.5666l-2.1955,7.8908a7.28023,7.28023,0,0,0-.1386,1.8842l.0071.1891a5.116,5.116,0,0,0,.2032,1.447l2.5657,3.9782.1513-.4201,2.2122-7.2431Zm-6.0911-1.1888-2.0931-3.9977-.3203-.474.2237-.5567,2.1157-6.2972,2.1201,3.3299.1817.2287a5.68362,5.68362,0,0,0-.3008.8496l-1.927,6.9174Zm-.6052,5.3407a8.666,8.666,0,0,0-.0626-3.5776l-2.6416-5.0431a4.67018,4.67018,0,0,0-.2455.6806l-2.4015,8.2088a8.84215,8.84215,0,0,0,.0399,3.6545l2.6986,4.1419a4.21872,4.21872,0,0,0,.2013-.5272l2.4114-7.5379Zm-5.7257-14.4927,2.6365,4.0964.1661-.4218,2.3593-7.0214a8.12863,8.12863,0,0,0-.057-3.3679l-2.5823-4.9558a4.49118,4.49118,0,0,0-.2092.5661l-2.3514,7.6626a8.32483,8.32483,0,0,0,.038,3.4418Zm-.3929-17.5226a7.5741,7.5741,0,0,1-.0371-3.2448l2.2992-7.1519.1788-.4643,2.5226,4.8643a7.47128,7.47128,0,0,1,.0598,3.1762L16.92,161.7109l-.1344.3279-2.5747-4.0498Zm-.3773-16.6901a6.98355,6.98355,0,0,1-.0351-3.0589l2.2524-6.6858.1463-.3725,2.4684,4.7826a6.87766,6.87766,0,0,1,.0589,2.9943l-2.2691,6.1016-.1012.2454-2.5206-4.0067Zm-.3574-15.9166a6.58715,6.58715,0,0,1-.0374-2.8845l2.2102-6.2535.1167-.2892,2.4157,4.701a6.33361,6.33361,0,0,1,.057,2.8236l-2.2249,5.692-.0717.1709-2.4656-3.9603Zm-.3399-15.1965a6.03614,6.03614,0,0,1-.0402-2.7204l2.1679-5.8524.0865-.2132,2.3663,4.6199a4.0677,4.0677,0,0,1,.1766,1.2529l.0023.0817a4.13416,4.13416,0,0,1-.1219,1.3308l-2.1798,5.3127-.0443.1041-2.4134-3.9161Zm-.3279-14.5208a5.53118,5.53118,0,0,1-.0403-2.5699l2.1257-5.4793.0598-.1443,2.319,4.5439a3.61676,3.61676,0,0,1,.171,1.1705l.0028.1238a3.83728,3.83728,0,0,1-.1145,1.2206L15.192,99.4901l-.0204.0451-2.3632-3.8702Zm5.4847.2013-1.8051,4.1828-.1542.2872.2563.3906,1.8544,3.6184,1.6463-4.6602.2231-.5249-.1238-.1633-1.897-3.1306Zm.6701-4.0056,1.9695-5.3218.0224-.0604,2.2193,4.3688a3.5723,3.5723,0,0,1,.1737,1.1344l.0051.1276a3.85365,3.85365,0,0,1-.0944,1.1795L21.28029,98.07l-2.2522-3.7157a5.65375,5.65375,0,0,1-.0649-2.4936Zm5.2572,2.7955-1.6492,3.9866-.1367.2654.2435.3877,1.7654,3.4594,1.4922-4.4362.2061-.506-.1191-.1584-1.8022-2.9985Zm.6304-3.9688,1.8144-5.1471,2.1257,4.1955a3.77627,3.77627,0,0,1,.1789,1.1058l.0048.123a3.7281,3.7281,0,0,1-.0816,1.1447l-1.8102,4.5691-2.1453-3.5677a5.5663,5.5663,0,0,1-.0867-2.4233Zm5.0057,2.8202-1.5027,3.7964-.1267.2557.2364.3765,1.6781,3.3023,1.3536-4.2179.1913-.4893-.1148-.1533-1.7152-2.8704Zm2.9647,3.9971,2.0756,4.0941a3.87638,3.87638,0,0,1,.1856,1.1531l.0057.0817a4.25451,4.25451,0,0,1-.0675,1.2036l-1.7033,4.7154-2.0855-3.4634a5.86911,5.86911,0,0,1-.1091-2.4874l1.6985-5.2971Zm2.8625,17.5536a4.28107,4.28107,0,0,1,.1936,1.2211l.0028.0508a4.49511,4.49511,0,0,1-.0697,1.3036l-1.7479,5.0902-2.1282-3.5025a6.36164,6.36164,0,0,1-.112-2.6246l1.7413-5.6905.0048-.0111,2.1153,4.163Zm1.1423,3.9648-1.4527,4.2364-.1338.3342.2435.3886,1.6631,3.263,1.2988-4.6735a4.12847,4.12847,0,0,1,.2012-.5757l-.1289-.1695-1.6912-2.8035Zm2.5725,16.9877.1366.1795a4.45992,4.45992,0,0,0-.2092.6321l-1.3331,5.0465-1.7031-3.3242-.2633-.3963.1513-.3886,1.495-4.5839,1.7258,2.8349Zm1.2937,1.1727-1.6512,6.2408a7.15243,7.15243,0,0,0,.1415,2.8372l2.1106,3.437,1.6759-5.6591a7.01184,7.01184,0,0,0-.1542-2.7836l-2.1079-4.1321-.0147.0598Zm-.7475,21.4929a7.781,7.781,0,0,0,.1463,2.997l2.1551,3.4742.0128-.0403,1.7082-6.0655a7.68087,7.68087,0,0,0-.1613-2.9398l-2.1552-4.2041-.0371.1392-1.6688,6.6393Zm-2.8106-4.9213-.2729-.4096.1581-.439,1.5401-4.9615,1.7603,2.8655.1466.1933a4.86657,4.86657,0,0,0-.2211.6886l-1.3703,5.4499-1.7408-3.3872Zm-3.0223,8.0006a7.88455,7.88455,0,0,0,.1268,3.0934l2.2671,3.6283.0394-.1343,1.8496-6.2819a7.69215,7.69215,0,0,0-.1386-3.037l-2.2544-4.3849-.0717.2463-1.8182,6.8701Zm-2.9023-5.0457-.2804-.4224.1712-.4566,1.6963-5.226,1.8567,3.0039.1618.2089a5.17579,5.17579,0,0,0-.2486.7075l-1.5193,5.7424-1.8377-3.5577Zm-3.2505,8.291a8.016,8.016,0,0,0,.1,3.2055l2.3831,3.776.0774-.2251,2.0032-6.5106a7.85906,7.85906,0,0,0-.1139-3.1414l-2.3615-4.5685-.1092.3497L27.959,165.001Zm-2.9991-5.1675-.2956-.4371.1916-.4762,1.8623-5.5049,1.9588,3.1413.1638.2084a5.079,5.079,0,0,0-.263.7452l-1.6838,6.0559-1.9341-3.7326Zm-3.5059,8.6009a8.1536,8.1536,0,0,0,.0692,3.3202l2.5078,3.9356.1196-.3251,2.1719-6.7561a7.96166,7.96166,0,0,0-.0887-3.2502l-2.4681-4.7602-.1565.4569-2.1552,7.3789Zm-1.1548-12.0518,2.0707,3.287.1689.216a5.321,5.321,0,0,0-.2857.775l-1.8666,6.3888-2.0361-3.9161-.3056-.4519.2061-.4991,2.0483-5.7997Zm-.5363-16.1739-1.9834,5.3427-.1917.4448.2909.4314,1.9882,3.8338,1.8077-5.8988a4.98719,4.98719,0,0,1,.2786-.6954l-.167-.2132-2.0233-3.2453Zm-.5111-15.4457-1.9222,4.9218-.1786.39.2807.4187,1.9391,3.7584,1.7524-5.4518a4.20275,4.20275,0,0,1,.2534-.6427l-.1462-.1893-1.9786-3.2051Zm1.4471-11.5986-1.9361-3.168-1.8652,4.5369-.159.3407.263.4006,1.8947,3.6867,1.6985-5.0397a4.43318,4.43318,0,0,1,.2384-.5814l-.1343-.1758Zm3.1167-6.1081-2.0243,5.148-.0099.0253-2.2986-3.7619a5.9701,5.9701,0,0,1-.0649-2.6388l2.0038-5.6743.0473-.1253,2.2669,4.4427a4.14846,4.14846,0,0,1,.178,1.2212l.0029.0697a4.05542,4.05542,0,0,1-.1012,1.2934Zm2.8278,4.3773-1.8397-3.0322-1.6982,4.3194-.1494.3303.2534.3821,1.8046,3.5229,1.5372-4.7926a3.98021,3.98021,0,0,1,.2211-.5604l-.129-.1695Zm4.1788,3.615,1.393-4.5552.2032-.542-.1238-.1633-1.7482-2.9004-1.5491,4.1102-.129.307.2378.3835,1.7161,3.3602Zm2.1425,9.4933a4.35009,4.35009,0,0,1,.214-.5976l-.1315-.1732-1.783-2.9341-1.5962,4.4543-.1494.3578.2585.3906,1.7524,3.4234,1.4352-4.9212Zm1.8771,12.7675-2.1719-3.5425a4.27167,4.27167,0,0,1-.1945-1.2379l-.002-.0402a5.22961,5.22961,0,0,1,.0797-1.4956l1.7651-6.0559.0275-.0816,2.16,4.2343a6.60616,6.60616,0,0,1,.1287,2.7205l-1.7926,5.4989Zm-1.5245,8.7213a7.2683,7.2683,0,0,0,.1168,2.9271l2.2201,3.5884.0195-.057,1.8221-5.8822a7.19659,7.19659,0,0,0-.1335-2.8757l-2.2073-4.3067-.0471.1582-1.7906,6.4479Zm-2.84-4.9952,1.7949,3.4861,1.4751-5.3161.2359-.6455-.1514-.197-1.8179-2.9667-1.6463,4.822-.1613.4048.271.4124Zm-3.1961,7.7437a7.36637,7.36637,0,0,0,.0944,3.0271l2.3346,3.7367.0493-.1463,1.9712-6.0883a7.21757,7.21757,0,0,0-.1116-2.9673l-2.3089-4.4912-.0822.2605-1.9468,6.6688Zm-2.9322-5.1196-.2809-.4196.1766-.4271,1.8077-5.0749,1.9171,3.1034.1584.204a4.86006,4.86006,0,0,0-.2554.6702l-1.6364,5.599-1.8871-3.655Zm-1.326,1.1177-2.1158,6.9023a7.52676,7.52676,0,0,0,.0698,3.1315l2.4536,3.8928.0865-.2379,2.1353-6.307a7.30577,7.30577,0,0,0-.0864-3.0688l-2.4135-4.6755-.1295.3626Zm-.5562-15.5458.0995-.2767,2.3613,4.5961a6.74144,6.74144,0,0,1,.0845,2.8979l-2.0954,5.8895-.0626.1591-2.3987-3.8472a6.927,6.927,0,0,1-.0669-2.9568l2.0783-6.4619Zm1.9344-7.8021-2.0608,5.5055-.0346.0881-2.3465-3.8035a6.51377,6.51377,0,0,1-.0677-2.7935l2.0418-6.0537.072-.1965,2.3113,4.5173a6.39912,6.39912,0,0,1,.0845,2.7363Zm2.8899,4.3858L25.414,122.747l-1.7504,4.6828-.1635.3736.2681.4034,1.842,3.5875,1.5894-5.1789a4.02972,4.02972,0,0,1,.2307-.6174l-.1392-.1828Zm1.3162,1.036,2.2572,4.4116a6.6971,6.6971,0,0,1,.1111,2.8077l-1.9412,5.6931-.0246.0749-2.2848-3.6953a6.78319,6.78319,0,0,1-.0921-2.8624l1.9151-6.253.0593-.1766Zm-.2682-2.0369v.0048l-2.2368-3.6499a6.47238,6.47238,0,0,1-.0902-2.7071l1.8851-5.8671.0351-.1035,2.2122,4.3379a6.37121,6.37121,0,0,1,.1063,2.6532l-1.9117,5.3317Zm-1.0678-26.0448.0127-.036,2.17,4.2662a3.89847,3.89847,0,0,1,.1836,1.1781l.0049.0935a4.24924,4.24924,0,0,1-.0845,1.2373l-1.8624,4.9388-2.1895-3.609a5.96242,5.96242,0,0,1-.0873-2.5614l1.8553-5.5075ZM44.034,145.4176l1.6659,2.7386.1414.1836a4.66885,4.66885,0,0,0-.2032.6659l-1.2339,5.1698-1.6541-3.2258-.2633-.3977.1494-.4192,1.3978-4.7152Zm6.4063,25.4781-.055.4816-1.5962,6.2464-.0051.0252-2.0903-3.3692a8.24772,8.24772,0,0,1-.1766-3.0589l1.552-6.8284h-.0029l.0324-.121,1.656,3.2397-1.5245-7.5282-.5383,2.0029-2.0489-3.329a7.72707,7.72707,0,0,1-.1689-2.8998l1.0304-4.301-1.4225-7.0314-.4419-.7251a7.3996,7.3996,0,0,1-.2064-2.4732l-.6601-3.261-.3476,1.3825-1.6169-3.1672-.2454-.3957.1343-.3611.9459-3.0385-.5913-2.9188-.0371.1978-1.6364,5.2422-2.0659-3.3974a6.83917,6.83917,0,0,1-.1367-2.69l1.624-5.8559,1.5548,3.0552-1.3683-6.7561-.4816,1.4689-2.0262-3.3587a6.25294,6.25294,0,0,1-.1315-2.5498l1.0276-3.5257-.5885-2.9038-.1837.5102-1.2634,4.3322-1.6294-3.2097-.231-.3688.1199-.2956,1.4125-3.9132,1.6589,2.7737.1114.1479-.8314-4.1006-.271-.4561a5.73731,5.73731,0,0,1-.1985-1.8666l-.6284-3.0963-.288.9454-1.5962-3.1538-.2287-.366.1167-.2449.9312-2.4523-.5264-2.5928L32.605,95.3538l-2.0489-3.4262a3.763,3.763,0,0,1-.1738-1.0735l-.002-.0542a4.12252,4.12252,0,0,1,.0717-1.2296l1.6541-4.9227L34.045,88.488l-.328-3.7826-.4615-.9136c-.3351-.663-.7673-.9805-1.2642-.945-.7869.0555-1.0874.9493-1.1838,1.2415l-1.3161,3.9082L27.845,84.7471c-.3379-.6687-.7849-.9961-1.2761-.9572-.8022.0513-1.1197.9578-1.2246,1.2549l-1.4499,4.1048-1.728-3.3996c-.3427-.6735-.775-1.0023-1.2935-.97-.5386.0317-.9638.4598-1.2642,1.2699l-1.5962,4.311-1.8153-3.5572c-.345-.6778-.7818-1.0242-1.3085-.982-.5511.0275-.991.4609-1.3113,1.2853l-2.1249,5.4773a6.22686,6.22686,0,0,0,.1486,3.8118l2.4508,4.0141.1296.1681-.2407.5434-2.1679,5.8539a6.71339,6.71339,0,0,0,.1561,3.9464l2.5079,4.0646.1414.1831a4.14769,4.14769,0,0,0-.2602.6046l-2.2102,6.2512a7.08988,7.08988,0,0,0,.1661,4.0958l2.5654,4.1182.1513.1962a4.44279,4.44279,0,0,0-.2758.6681l-2.2544,6.6844a7.50738,7.50738,0,0,0,.1738,4.2553l2.6246,4.1687.1641.2106a5.50181,5.50181,0,0,0-.2936.7353l-2.2987,7.1532c-.3103.9607-.3356,3.6108.1837,4.4277l2.6867,4.2231.1758.2211a5.52677,5.52677,0,0,0-.3104.8121l-2.3485,7.6598c-.3127,1.0207-.3351,3.7868.1936,4.6088l2.751,4.2781.1888.2355a5.86838,5.86838,0,0,0-.3252.8918l-2.4009,8.206c-.318,1.0849-.3356,3.983.2035,4.8121l2.8202,4.3302a1.29153,1.29153,0,0,0,1.0826.6903l.1372-.0105c.7891-.1063,1.1741-1.0347,1.3949-1.7223l2.1855-6.8434,2.1722,3.3743a1.27241,1.27241,0,0,0,1.0675.6883l.1366-.0105c.7728-.1072,1.1325-1.008,1.336-1.6759l1.9812-6.478,2.0559,3.2227a1.24519,1.24519,0,0,0,1.0508.6835l.1386-.0105c.7524-.1063,1.0925-.9834,1.281-1.6308l1.7955-6.139,1.944,3.0765a1.23081,1.23081,0,0,0,1.0383.6834l.1392-.0105c.737-.1083,1.0573-.9601,1.2339-1.5905l1.6265-5.821,1.84,2.9379a1.21287,1.21287,0,0,0,1.0247.6777l.142-.0105c.7223-.1091,1.0228-.9402,1.1869-1.5562l1.4752-5.5173,1.7404,2.8034a1.19517,1.19517,0,0,0,1.0128.6758l.1415-.0136c.7075-.1083.9952-.9176,1.1475-1.5188l.9558-3.75Z"/>
        <path class="cls-3" d="M178.63629,164.0798a5.252,5.252,0,0,0-.2211-.7152l.159-.2041,1.7033-2.7709,1.4352,5.1001.1562.4694-.2733.4125-1.6934,3.2868-1.2659-5.5786Zm1.8524,7.5262a8.26928,8.26928,0,0,0-.167,3.1031l1.7286,6.4712.0346.1211,2.2022-3.5158a8.50183,8.50183,0,0,0,.1542-3.1658l-1.6906-7.0636-.0598-.231-2.2022,4.2808Zm3.6323-4.38a5.16758,5.16758,0,0,0-.2355-.7424l.161-.2121,1.8005-2.9046,1.5815,5.3736.1709.4859-.2849.4271-1.783,3.4566-1.4105-5.8841Zm2.0166,7.7864a8.35613,8.35613,0,0,0-.1471,3.2103l1.8751,6.709.0697.2208,2.3134-3.6669a8.55894,8.55894,0,0,0,.1323-3.2757l-1.8425-7.3239-.0972-.3387-2.3037,4.4651Zm3.7664-4.4693a5.00987,5.00987,0,0,0-.2585-.7748l.1717-.2182,1.899-3.0393,1.7436,5.663.1865.5069-.2957.4419-1.8822,3.6278-1.5644-6.2073Zm2.1923,8.064a8.5366,8.5366,0,0,0-.1219,3.3227l2.0392,6.9673.1041.318,2.4352-3.8188a8.678,8.678,0,0,0,.1049-3.3925l-2.0086-7.598-.1415-.4518-2.4114,4.6531Zm3.9132-4.5638a5.34289,5.34289,0,0,0-.2758-.8136l.1738-.2211,2.0066-3.1804,1.9194,5.9692.2063.5306-.3104.4595-1.982,3.8086-1.7379-6.5528Zm2.168,9.9326a6.736,6.736,0,0,0,.1238,1.8765l2.215,7.2431.1491.4201,2.5648-3.9782a5.00405,5.00405,0,0,0,.2064-1.4476l.0071-.1879a7.45046,7.45046,0,0,0-.1389-1.8856l-2.198-7.89a5.0654,5.0654,0,0,0-.1885-.5666l-2.5254,4.8472a5.435,5.435,0,0,0-.2154,1.5633v.0057Zm4.2905-6.2297a5.79336,5.79336,0,0,0-.3005-.8496l.1789-.2287,2.1226-3.3299,2.1129,6.2972.2239.5567-.3203.474-2.0931,3.9977-1.9244-6.9174Zm2.5942,8.6805a8.54073,8.54073,0,0,0-.0589,3.5776l2.4057,7.5388a4.60261,4.60261,0,0,0,.2013.5263l2.6983-4.1414a8.84124,8.84124,0,0,0,.0403-3.6555l-2.4016-8.2083a4.22149,4.22149,0,0,0-.2454-.6806l-2.6397,5.0431Zm3.0274-6.8187,2.6337-4.0964a8.32478,8.32478,0,0,0,.038-3.4418l-2.3465-7.6621a5.36856,5.36856,0,0,0-.2112-.5666l-2.5824,4.9567a8.147,8.147,0,0,0-.0598,3.3664l2.3593,7.022.1689.4218Zm.4519-17.5692-.1318-.3279-2.3142-6.5424a7.46966,7.46966,0,0,1,.0572-3.1756l2.5251-4.8649.1769.4643,2.3015,7.1513a7.5324,7.5324,0,0,1-.0403,3.2454l-2.5744,4.0498Zm.432-16.7332-.1021-.2454-2.2668-6.1016a6.89017,6.89017,0,0,1,.0569-2.9934l2.4704-4.7835.1443.3725,2.255,6.6849a6.98174,6.98174,0,0,1-.038,3.0598l-2.5197,4.0067Zm.4124-15.963-.0723-.1709-2.2249-5.692a6.28573,6.28573,0,0,1,.059-2.823l2.4143-4.7016.1162.2892,2.2127,6.2535a6.54993,6.54993,0,0,1-.04,2.8845l-2.465,3.9603Zm.3915-15.2407-.0417-.1041-2.1824-5.3127a4.15081,4.15081,0,0,1-.1196-1.3303v-.083a4.14317,4.14317,0,0,1,.1766-1.2512l2.3664-4.6208.0893.2132,2.1676,5.8524a6.12822,6.12822,0,0,1-.04,2.721l-2.4162,3.9155Zm.3801-14.5667-.0198-.0451-2.1405-4.9598a3.76774,3.76774,0,0,1-.1168-1.2206l.0051-.1238a3.679,3.679,0,0,1,.169-1.1696l2.3196-4.5448.0592.1443,2.1257,5.4788a5.56543,5.56543,0,0,1-.0382,2.5704l-2.3633,3.8702Zm-1.3184.5139-1.8025-4.1828-1.8995,3.1306-.1239.1633.2231.5249,1.6469,4.6602,1.8544-3.6184.2557-.3906-.1542-.2872Zm-2.5373-5.6948-2.2524,3.7157-1.9791-4.7812a3.77337,3.77337,0,0,1-.097-1.1795l.0054-.1276a3.73644,3.73644,0,0,1,.1732-1.1344l2.2229-4.3688.0224.0604,1.9687,5.3218a5.68412,5.68412,0,0,1-.0641,2.4936Zm-3.5458,4.2885-1.6464-3.9866-1.8025,2.9985-.1216.1584.2083.506,1.4899,4.4362,1.7651-3.4594.2464-.3877-.1392-.2654Zm-2.3644-5.5321-2.1472,3.5677-1.8103-4.5691a3.67391,3.67391,0,0,1-.0796-1.1447l.0048-.1238a3.7064,3.7064,0,0,1,.1769-1.105l2.1277-4.1955,1.815,5.1471a5.60161,5.60161,0,0,1-.0873,2.4233Zm-3.4163,4.1933-1.5049-3.7964-1.7153,2.8704-.1145.1533.1913.4893,1.3536,4.2179,1.6806-3.3023.2336-.3765-.1244-.2557Zm-2.7683,5.497a5.95274,5.95274,0,0,1-.1097,2.4882l-2.0875,3.4634-1.7013-4.7154a4.14144,4.14144,0,0,1-.0698-1.2031l.0051-.083a3.99046,3.99046,0,0,1,.1866-1.1523l2.0755-4.0941,1.7011,5.2963Zm-2.4458,8.0943.0023.0111,1.7433,5.6905a6.39922,6.39922,0,0,1-.112,2.6255l-2.1305,3.5016-1.7475-5.091a4.37882,4.37882,0,0,1-.0675-1.3028l.0025-.0508a4.37269,4.37269,0,0,1,.1917-1.2211l2.1177-4.163Zm-1.8054,12.3642-1.4547-4.2364-1.6906,2.8035-.1247.1695a4.82272,4.82272,0,0,1,.1987.5757l1.2963,4.6735,1.6659-3.263.2438-.3886-.1347-.3342Zm-2.3014,9.9164,1.495,4.5839.1514.3886-.2634.3963-1.701,3.3242-1.336-5.0465a4.05113,4.05113,0,0,0-.2084-.6321l.1367-.1795,1.7257-2.8349Zm-1.3683,10.2478-1.6483-6.2402-.0148-.0598-2.1109,4.1329a7.04678,7.04678,0,0,0-.154,2.7828l1.6784,5.6591,2.1102-3.4362a7.20425,7.20425,0,0,0,.1394-2.8386Zm-1.048,18.2497a7.83671,7.83671,0,0,0,.1472-2.997l-1.6716-6.6393-.0374-.1392-2.1552,4.2041a7.65787,7.65787,0,0,0-.1582,2.9398l1.7082,6.0655.0099.0403,2.1571-3.4742Zm1.215-4.5311-1.3711-5.4508a5.28775,5.28775,0,0,0-.2183-.6868l.1463-.1942,1.7603-2.8655,1.5372,4.9615.159.439-.271.4096-1.7424,3.3872Zm4.6375,7.7068a7.86922,7.86922,0,0,0,.1244-3.0934l-1.8173-6.8701-.0697-.2463-2.255,4.3855a7.7473,7.7473,0,0,0-.1414,3.0359l1.8504,6.2824.0423.1343,2.2663-3.6283Zm1.1894-4.5814-1.5168-5.7424a5.32913,5.32913,0,0,0-.2484-.7075l.161-.2089,1.8576-3.0039,1.6934,5.226.1709.4566-.28.4224-1.8377,3.5577Zm4.9887,7.9388a8.0283,8.0283,0,0,0,.0992-3.2055l-1.9792-7.1144-.1088-.3497-2.3593,4.5694a7.80993,7.80993,0,0,0-.1162,3.1405l2.0058,6.5106.0748.2251,2.3837-3.776Zm1.1642-4.6404-1.6835-6.0565a5.12348,5.12348,0,0,0-.2605-.7446l.1612-.2084,1.9594-3.1413,1.8618,5.5049.1913.4762-.2957.4371-1.934,3.7326Zm5.371,8.1885a8.10178,8.10178,0,0,0,.0689-3.3202l-2.1523-7.3789-.1562-.4569-2.4684,4.7602a8.01682,8.01682,0,0,0-.0921,3.2496l2.1727,6.7567.1196.3251,2.5078-3.9356Zm3.2721-9.5723.2063.4991-.3047.4519-2.037,3.9161-1.8666-6.3888a5.07486,5.07486,0,0,0-.2857-.7741l.1689-.2169,2.0707-3.287,2.0481,5.7997Zm.4722-16.6309-1.9839-5.3427-2.0237,3.2453-.1667.2132a5.14624,5.14624,0,0,1,.2807.6948l1.8076,5.8994,1.9891-3.8338.2877-.4314-.1908-.4448Zm.4519-15.8666-1.9242-4.9218-1.9791,3.2051-.1443.1893a4.69945,4.69945,0,0,1,.2534.6427l1.7504,5.4518,1.944-3.7584.2786-.4187-.1788-.39Zm-1.4349-19.6884-1.9372,3.168-.1344.1766a3.796,3.796,0,0,1,.2387.58l1.7011,5.0403,1.8918-3.6867.2662-.4006-.1619-.3407-1.8643-4.5369Zm-5.1551-4.2335.0023-.0706a4.0488,4.0488,0,0,1,.1814-1.2203l2.2671-4.4427.0442.1253,2.0067,5.6743a5.9731,5.9731,0,0,1-.0675,2.6394l-2.2966,3.7613-.0099-.0253-2.0257-5.148a4.07531,4.07531,0,0,1-.102-1.2934Zm-.8867,2.6385-1.84,3.0322-.1287.1695a4.15114,4.15114,0,0,1,.2209.5604l1.5395,4.7926,1.8025-3.5229.2531-.3821-.1491-.3303-1.6982-4.3194Zm-7.4115,2.092,1.3958,4.5552,1.7153-3.3602.2384-.3835-.1316-.307-1.5491-4.1102-1.7484,2.9004-.1239.1633.2035.542Zm-.9606,13.4509a4.48846,4.48846,0,0,1,.2131.5976l1.4352,4.9212,1.7533-3.4234.2554-.3906-.1486-.3578-1.597-4.4543-1.7827,2.9341-.1287.1732Zm-3.4589,7.8662a6.64806,6.64806,0,0,1,.131-2.7196l2.1609-4.2352.0246.0816,1.768,6.0559a5.33981,5.33981,0,0,1,.0788,1.4956l-.002.0402a4.39376,4.39376,0,0,1-.1936,1.2379l-2.1728,3.5425-1.7949-5.4989Zm3.2004,17.1473a7.313,7.313,0,0,0,.119-2.9271l-1.7926-6.4479-.0445-.1582-2.2079,4.3072a7.16478,7.16478,0,0,0-.1364,2.8747l1.825,5.8827.0204.057,2.217-3.5884Zm1.1642-4.4362,1.7926-3.4861.2738-.4124-.1638-.4048-1.6464-4.822-1.8179,2.9667-.1485.197.233.6455,1.4772,5.3161Zm4.8965,7.2847a7.34859,7.34859,0,0,0,.0944-3.0271l-1.9468-6.6688-.0836-.2605-2.3074,4.4918a7.26684,7.26684,0,0,0-.114,2.9667l1.9743,6.0883.0494.1463,2.3337-3.7367Zm1.1376-4.4917-1.6365-5.599a4.57708,4.57708,0,0,0-.2534-.6702l.157-.204,1.9194-3.1034,1.8045,5.0749.1766.4271-.2806.4196-1.887,3.655Zm5.3285,4.365-2.1155-6.9023-.1267-.3626-2.4162,4.6755a7.32037,7.32037,0,0,0-.0845,3.0688l2.1334,6.307.0892.2379,2.4529-3.8928a7.5217,7.5217,0,0,0,.0674-3.1315Zm.5188-15.9868a6.84994,6.84994,0,0,1-.0675,2.9574l-2.3978,3.8472-.0601-.1591-2.0951-5.8895a6.73885,6.73885,0,0,1,.0816-2.8979l2.3641-4.5961.0964.2767,2.0784,6.4613Zm-3.928-16.9997,2.3142-4.5173.0717.1965,2.0384,6.0537a6.54194,6.54194,0,0,1-.0649,2.7935l-2.3485,3.8035-.0346-.0881-2.0608-5.5055a6.43307,6.43307,0,0,1,.0845-2.7363Zm-1.0973,4.0539-1.8771,3.0682-.1395.1828a4.47218,4.47218,0,0,1,.2339.6166l1.5863,5.1797,1.8448-3.5875.2681-.4034-.1638-.3736-1.7527-4.6828Zm-3.1314,4.2808,1.9117,6.2521a6.77329,6.77329,0,0,1-.0916,2.8633l-2.2819,3.6953-.0246-.0749-1.9446-5.6931a6.70514,6.70514,0,0,1,.112-2.8071l2.262-4.4122.057.1766Zm-1.7053-7.5452a6.34687,6.34687,0,0,1,.1063-2.6527l2.2149-4.3384.0343.1035,1.8822,5.8665a6.39735,6.39735,0,0,1-.0892,2.7077l-2.2349,3.6499-.002-.0048-1.9116-5.3317Zm2.9792-20.7131,1.8547,5.5075a5.94677,5.94677,0,0,1-.0873,2.5614l-2.1918,3.609-1.8601-4.9393a4.15711,4.15711,0,0,1-.0844-1.2359l.0048-.095a3.82526,3.82526,0,0,1,.1837-1.1769l2.1679-4.2668.0125.036Zm-15.3647,51.3633.1491.4192-.263.3977-1.6512,3.2258-1.2368-5.1704a4.33467,4.33467,0,0,0-.2012-.6644l.1395-.1845,1.6679-2.7386,1.3957,4.7152Zm-8.477,24.0893.9559,3.7494c.1519.6018.4399,1.4111,1.1494,1.5202l.1392.012a1.198,1.198,0,0,0,1.0157-.675l1.7384-2.8034,1.4775,5.5167c.1632.6166.4637,1.4486,1.1865,1.5577l.1415.0096a1.21612,1.21612,0,0,0,1.0256-.6777l1.8371-2.9379,1.6265,5.8201c.1786.6307.4961,1.4831,1.2337,1.5922l.1394.0091a1.236,1.236,0,0,0,1.0403-.682l1.9418-3.0773,1.7949,6.1382c.1893.6482.5315,1.5253,1.2815,1.6316l.1389.0099a1.2462,1.2462,0,0,0,1.0528-.6829l2.056-3.2227,1.9811,6.478c.2044.6679.561,1.5696,1.336,1.6764l.1366.0094a1.2662,1.2662,0,0,0,1.065-.6877l2.1733-3.3743,2.1869,6.8434c.2208.6876.6038,1.616,1.3955,1.7231l.1347.0091a1.28409,1.28409,0,0,0,1.0817-.6897l2.8216-4.3307c.5414-.8286.523-3.7262.2055-4.8116l-2.4007-8.2065a6.2387,6.2387,0,0,0-.3279-.8913l.1885-.2355,2.7535-4.2781c.5293-.822.5066-3.5881.1934-4.6088l-2.3485-7.6598a6.1237,6.1237,0,0,0-.3104-.8116l.1766-.2216,2.6844-4.2231c.5207-.8169.4935-3.4662.1859-4.4271l-2.3017-7.1538a5.1315,5.1315,0,0,0-.2934-.7348l.1667-.2111,2.6226-4.1695a7.49241,7.49241,0,0,0,.1732-4.254l-2.2544-6.6849a4.23727,4.23727,0,0,0-.2761-.6673l.1514-.197,2.5656-4.1182a7.07068,7.07068,0,0,0,.1661-4.0949l-2.2102-6.253a3.81942,3.81942,0,0,0-.2582-.6032l.142-.1836,2.505-4.0646a6.70429,6.70429,0,0,0,.1585-3.9464l-2.1671-5.8539-.243-.5434.129-.1681,2.4528-4.0141a6.20283,6.20283,0,0,0,.1491-3.8112l-2.1276-5.4779c-.3204-.8249-.76-1.2572-1.3114-1.2853-.5235-.0422-.9634.3042-1.3081.9825l-1.8153,3.5567-1.5943-4.311c-.3004-.8101-.7248-1.2382-1.2662-1.2699-.5187-.0329-.9507.2965-1.2937.9706l-1.7277,3.399-1.448-4.1048c-.1068-.2977-.4252-1.2031-1.224-1.2549-.4941-.0394-.9388.2885-1.2787.9578l-1.6463,3.2488-1.3133-3.9082c-.0992-.2922-.3977-1.186-1.1875-1.2415-.496-.0355-.9283.282-1.2634.9459l-.4595.9127-.3302,3.7826,1.9392-3.8404,1.656,4.9221a4.27562,4.27562,0,0,1,.072,1.2302l-.0043.0542a3.56427,3.56427,0,0,1-.1746,1.0735l-2.0455,3.4262-1.6588-4.3679-.5264,2.5928.9312,2.4523.1168.2449-.226.366-1.5993,3.1538-.2877-.9454-.6256,3.0963a5.88033,5.88033,0,0,1-.1993,1.8672l-.2724.4555-.8319,4.1006.1119-.1479,1.6611-2.7737,1.4097,3.9132.1196.2956-.2287.3688-1.6314,3.2097-1.2614-4.3322-.1857-.5102-.5864,2.9038,1.0284,3.5249a6.31413,6.31413,0,0,1-.1344,2.5514l-2.0236,3.3579-.4814-1.4689-1.3683,6.7561,1.552-3.0552,1.626,5.8559a6.78692,6.78692,0,0,1-.1389,2.6906l-2.0656,3.3968-1.6365-5.2422-.0346-.1978-.5938,2.9188.9487,3.0385.1344.3611-.2486.3957-1.6138,3.1672-.3503-1.3825-.6582,3.261a7.39789,7.39789,0,0,1-.2064,2.4732l-.4411.7251-1.4232,7.0314,1.0284,4.301a7.64683,7.64683,0,0,1-.169,2.8998l-2.0489,3.329-.5385-2.0029-1.5245,7.5282,1.6583-3.2397.0303.121,1.552,6.8284a8.32449,8.32449,0,0,1-.1766,3.0589l-2.0906,3.3692-.0076-.0252-1.5943-6.2464-.0541-.4816Z"/>
        <path class="cls-3" d="M189.53919,91.1222l-8.1321,4.337a3.6149,3.6149,0,0,1-3.4988,0l-8.1314-4.337a1.02837,1.02837,0,0,1-.4244-.881,1.10314,1.10314,0,0,1,.3943-.9748l7.899-4.9657a3.66517,3.66517,0,0,1,4.0218.0008l7.8985,4.9649a1.10032,1.10032,0,0,1,.3949.9734,1.0237,1.0237,0,0,1-.4218.8824Zm-12.6457,5.607.1984-.1063-7.9801-4.2554-.4674-.347-.4666.347L160.2,96.6229l.1962.1063,7.8956,4.964.3526.3047.3555-.3047,7.8936-4.964Zm.1984,13.5156-.1984.1071-7.8936,4.9635-.3555.3047-.3526-.3047-7.8928-4.9635-.199-.1071,7.9778-4.2546.4666-.3469.4674.3469,7.9801,4.2546Zm0,13.6227-.1984.1071-7.8936,4.9621-.3555.3061-.3526-.3061-7.8928-4.9621-.199-.1071,7.9778-4.2554.4666-.3469.4674.3469,7.9801,4.2554Zm0,13.6222-.1984.1068-7.8936,4.9635-.3555.3047-.3526-.3047-7.8928-4.9635-.199-.1068,7.9778-4.2548.4666-.347.4674.347,7.9801,4.2548Zm0,13.6241-.1984.1041-7.8936,4.9634-.3555.3056-.3526-.3056-7.8928-4.9634-.199-.1041,7.9778-4.2562.4666-.3475.4674.3475,7.9801,4.2562Zm-9.5771,8.1187a1.01979,1.01979,0,0,0,.4244-.8804,1.10007,1.10007,0,0,0-.3969-.9743l-7.8956-4.9626a3.652,3.652,0,0,0-4.0224-.0008h-.0028l-7.8985,4.9643a1.10038,1.10038,0,0,0-.3948.9734,1.02358,1.02358,0,0,0,.4252.8804l8.1311,4.3385a3.61684,3.61684,0,0,0,3.496,0l8.1343-4.3385Zm.0275,11.7647a1.11271,1.11271,0,0,1,.3969.9762,1.01977,1.01977,0,0,1-.4244.881l-8.1343,4.3379a3.61578,3.61578,0,0,1-3.496,0l-8.1311-4.3379a1.02542,1.02542,0,0,1-.4252-.881,1.11262,1.11262,0,0,1,.3948-.9762l7.8985-4.9607h.0028a3.65448,3.65448,0,0,1,4.0224,0l7.8956,4.9607Zm-20.569-1.1946-.3504.3056-.3549-.3056-7.8933-4.9634-.2013-.1041,7.9807-4.2562.4688-.3475.4646.3475,7.9801,4.2562-.1959.1041-7.8984,4.9634Zm-1.4823,3.0518a1.02184,1.02184,0,0,0,.4247-.881,1.10944,1.10944,0,0,0-.3972-.9762l-7.8962-4.9607a3.65482,3.65482,0,0,0-4.0226,0h-.002l-7.8965,4.9607a1.11171,1.11171,0,0,0-.3968.9762,1.02026,1.02026,0,0,0,.4272.881l8.1314,4.3379a3.61578,3.61578,0,0,0,3.496,0l8.132-4.3379Zm-20.5392-3.0518-.3527.3056-.3546-.3056-7.8965-4.9634-.1956-.1041,7.9801-4.2562.4666-.3475.4666.3475,7.981,4.2562-.1993.1041-7.8956,4.9634Zm-1.4823,3.0518a1.03211,1.03211,0,0,0,.4244-.881,1.11194,1.11194,0,0,0-.3997-.9762l-7.8937-4.9607a3.65432,3.65432,0,0,0-4.0223,0h-.002l-7.8985,4.9607a1.10881,1.10881,0,0,0-.3948.9762,1.02712,1.02712,0,0,0,.4243.881l8.1321,4.3379a3.61559,3.61559,0,0,0,3.4959,0l8.1343-4.3379Zm-20.5415-3.0518-.3504.3056-.3549-.3056-7.8962-4.9634-.1984-.1041,7.9801-4.2562.4671-.3475.4669.3475,7.9801,4.2562-.1987.1041h.0023l-7.8979,4.9634Zm-1.4851,3.0518a1.01316,1.01316,0,0,0,.4244-.881,1.10567,1.10567,0,0,0-.3949-.9762l-7.8956-4.9607a3.65782,3.65782,0,0,0-4.0244,0l-7.8965,4.9607a1.10492,1.10492,0,0,0-.3968.9762,1.019,1.019,0,0,0,.4243.881l8.1315,4.3379a3.61675,3.61675,0,0,0,3.4965,0l8.1315-4.3379Zm-20.5364-3.0518-.3555.3056-.3526-.3056-7.8957-4.9634-.1964-.1041,7.9781-4.2562.4666-.3475.4674.3475,7.9801,4.2562-.1984.1041h.002l-7.8956,4.9634Zm-1.4851,3.0518a1.025,1.025,0,0,0,.4243-.881,1.11242,1.11242,0,0,0-.3968-.9762l-7.8985-4.9607a3.65432,3.65432,0,0,0-4.0223,0l-7.8957,4.9607a1.10958,1.10958,0,0,0-.3977.9762,1.02628,1.02628,0,0,0,.425.881l8.1314,4.3379a3.60842,3.60842,0,0,0,3.496,0l8.1343-4.3379Zm-19.7617-13.6219,8.1314,4.3385a3.60921,3.60921,0,0,0,3.496,0l8.1343-4.3379a1.027,1.027,0,0,0,.4243-.881,1.09978,1.09978,0,0,0-.3968-.9743l-7.8985-4.9626a3.6518,3.6518,0,0,0-4.0223-.0008l-7.8957,4.9643a1.09421,1.09421,0,0,0-.3977.9734,1.02443,1.02443,0,0,0,.425.8804Zm-.7799-3.0512-.3526.3056-.3503-.3056-7.8957-4.9634-.2012-.1041,7.9806-4.2562.4689-.3475.4671.3475,7.9773,4.2562-.1956.1041-7.8985,4.9634Zm-8.5986-18.5848-.2012-.1068,7.9806-4.2548.4689-.347.4671.347,7.9773,4.2548-.1956.1068-7.8985,4.9635-.3503.3047-.3526-.3047-7.8957-4.9635Zm0-13.6219-.2012-.1071,7.9826-4.2554.4669-.3469.4671.3469,7.9801,4.2554-.1984.1071-7.8985,4.9621-.3503.3061-.3526-.3061-7.8957-4.9621Zm0-13.6227-.2012-.1071,7.9826-4.2546.4669-.3469.4671.3469,7.9801,4.2546-.1984.1071-7.8985,4.9635-.3526.3047-.3503-.3047-7.8957-4.9635Zm0-13.6227-.2012-.1063,7.9826-4.2554.4669-.347.4671.347,7.9801,4.2554-.1984.1063-7.8985,4.964-.3526.3042-.3503-.3042-7.8957-4.964Zm-1.0179-1.27,8.1343-4.337a1.03016,1.03016,0,0,0,.4244-.8824,1.10319,1.10319,0,0,0-.3969-.9734l-7.8965-4.9649a3.66429,3.66429,0,0,0-4.0223-.0008l-7.8985,4.9657a1.10185,1.10185,0,0,0-.3968.9734,1.03082,1.03082,0,0,0,.4243.8824l8.1343,4.337a3.6087,3.6087,0,0,0,3.4937,0Zm10.3691-6.1928a1.09976,1.09976,0,0,0-.3977.9734,1.03143,1.03143,0,0,0,.425.8824l8.1314,4.337a3.61315,3.61315,0,0,0,3.496,0l8.1343-4.337a1.02841,1.02841,0,0,0,.4243-.8824,1.1029,1.1029,0,0,0-.3968-.9734l-7.8985-4.9649a3.66429,3.66429,0,0,0-4.0223-.0008l-7.8957,4.9657ZM80.551,92.0205l.4674.347,7.9801,4.2554-.1964.1063-7.8956,4.964-.3555.3042-.3526-.3042-7.8957-4.964-.1964-.1063,7.9781-4.2554.4666-.347Zm1.1049-2.7541a1.09517,1.09517,0,0,0-.3968.9734,1.02219,1.02219,0,0,0,.4243.8824l8.1315,4.337a3.61412,3.61412,0,0,0,3.4965,0l8.1315-4.337a1.01767,1.01767,0,0,0,.4244-.8824,1.09958,1.09958,0,0,0-.3949-.9734l-7.8956-4.9649a3.66512,3.66512,0,0,0-4.0244-.0008l-7.8965,4.9657Zm20.9194,2.7541.4669.347,7.9801,4.2554-.1964.1063-7.8979,4.964-.3504.3042-.3549-.3042-7.8984-4.964-.1962-.1063,7.9801-4.2554.4671-.347Zm1.1024-2.7541a1.099,1.099,0,0,0-.3948.9734,1.03228,1.03228,0,0,0,.4243.8824l8.1321,4.337a3.60928,3.60928,0,0,0,3.4959,0l8.1343-4.337a1.03469,1.03469,0,0,0,.4244-.881,1.10425,1.10425,0,0,0-.3997-.9748l-7.8937-4.9649a3.66668,3.66668,0,0,0-4.0243-.0008l-7.8985,4.9657Zm20.9214,2.7541.4666.347,7.981,4.2554-.1993.1063-7.8956,4.964-.3527.3047-.3546-.3047-7.8965-4.964-.1956-.1063,7.9801-4.2554.4666-.347Zm1.1021-2.7541a1.10185,1.10185,0,0,0-.3968.9734,1.02535,1.02535,0,0,0,.4272.8824l8.1314,4.337a3.60948,3.60948,0,0,0,3.496,0l8.132-4.337a1.02643,1.02643,0,0,0,.4247-.8824,1.10332,1.10332,0,0,0-.3972-.9734l-7.8962-4.9649a3.66546,3.66546,0,0,0-4.0246-.0008l-7.8965,4.9657Zm20.9217,2.7541.4646.347,7.9801,4.2554-.1959.1063-7.8984,4.964-.3504.3042-.3549-.3042-7.8956-4.964-.199-.1063,7.9807-4.2554.4688-.347Zm12.7576,17.0609a3.61052,3.61052,0,0,1-3.496,0l-8.1311-4.3364a1.03056,1.03056,0,0,1-.4252-.8824,1.10291,1.10291,0,0,1,.3948-.9735l7.8985-4.9657a3.66646,3.66646,0,0,1,4.0252.0009l7.8956,4.964a1.10321,1.10321,0,0,1,.3969.9743,1.02633,1.02633,0,0,1-.4244.8824l-8.1343,4.3364Zm0,13.6228,8.1343-4.3371a1.02493,1.02493,0,0,0,.4244-.8827,1.10348,1.10348,0,0,0-.3969-.9739l-7.8956-4.9644a3.659,3.659,0,0,0-4.0224,0h-.0028l-7.8985,4.9649a1.10412,1.10412,0,0,0-.3948.9734,1.03,1.03,0,0,0,.4252.8827l8.1311,4.3371a3.61157,3.61157,0,0,0,3.496,0Zm0,13.6207,8.1343-4.3364a1.023,1.023,0,0,0,.4244-.8805,1.10644,1.10644,0,0,0-.3969-.9757l-7.8956-4.9634a3.66006,3.66006,0,0,0-4.0224-.0006h-.0028l-7.8985,4.964a1.10968,1.10968,0,0,0-.3948.9749,1.028,1.028,0,0,0,.4252.8813l8.1311,4.337a3.60633,3.60633,0,0,0,3.496-.0006Zm-11.6271,9.2863,8.1311,4.3356a3.60319,3.60319,0,0,0,3.496,0l8.1343-4.3356a1.023,1.023,0,0,0,.4244-.8813,1.10673,1.10673,0,0,0-.3969-.9762l-7.8956-4.9626a3.657,3.657,0,0,0-4.0224,0h-.0028l-7.8985,4.9634a1.10867,1.10867,0,0,0-.3948.9754,1.028,1.028,0,0,0,.4252.8813Zm-22.0522,11.7666a1.09909,1.09909,0,0,0-.3968.9743,1.01844,1.01844,0,0,0,.4272.8804l8.1314,4.3385a3.61684,3.61684,0,0,0,3.496,0l8.132-4.3379a1.02383,1.02383,0,0,0,.4247-.881,1.09308,1.09308,0,0,0-.3972-.9743l-7.8962-4.9626a3.65229,3.65229,0,0,0-4.0226-.0008h-.002l-7.8965,4.9634Zm-9.3532-6.1599-.1956-.1041,7.9801-4.2562.4666-.3475.4666.3475,7.981,4.2562-.1993.1041-7.8956,4.9634-.3527.3056-.3546-.3056-7.8965-4.9634Zm-12.6703,6.1599a1.09626,1.09626,0,0,0-.3948.9743,1.02527,1.02527,0,0,0,.4243.8804l8.1321,4.3385a3.61664,3.61664,0,0,0,3.4959,0l8.1343-4.3379a1.03414,1.03414,0,0,0,.4244-.881,1.102,1.102,0,0,0-.3997-.9743l-7.8937-4.9626a3.65179,3.65179,0,0,0-4.0223-.0008h-.002l-7.8985,4.9634Zm-9.3512-6.1599-.1984-.1041,7.9801-4.2562.4671-.3475.4669.3475,7.9801,4.2562-.1987.1041h.0023l-7.8979,4.9634-.3504.3056-.3549-.3056-7.8962-4.9634Zm-12.6706,6.1599a1.09246,1.09246,0,0,0-.3968.9743,1.01713,1.01713,0,0,0,.4243.8804l8.1315,4.3385a3.61781,3.61781,0,0,0,3.4965,0l8.1315-4.3379a1.0151,1.0151,0,0,0,.4244-.881,1.09087,1.09087,0,0,0-.3949-.9743l-7.8956-4.9626a3.65529,3.65529,0,0,0-4.0244-.0008l-7.8965,4.9634Zm-1.5715-10.5202.4666-.3475.4674.3475,7.9801,4.2562-.1984.1041h.002l-7.8956,4.9634-.3555.3056-.3526-.3056-7.8957-4.9634-.1964-.1041,7.9781-4.2562Zm-10.5449-8.6698a3.77775,3.77775,0,0,0-2.0114.6033l-7.8957,4.9634a1.10241,1.10241,0,0,0-.3977.9754,1.02887,1.02887,0,0,0,.425.8813l8.1314,4.3356a3.598,3.598,0,0,0,3.496,0l8.1343-4.3356a1.02826,1.02826,0,0,0,.4243-.8813,1.10643,1.10643,0,0,0-.3968-.9762l-7.8985-4.9626a3.76064,3.76064,0,0,0-2.0109-.6033Zm0-13.6221a3.7786,3.7786,0,0,0-2.0114.6026l-7.8957,4.964a1.1034,1.1034,0,0,0-.3977.9749,1.02887,1.02887,0,0,0,.425.8813l8.1314,4.337a3.60241,3.60241,0,0,0,3.496-.0006l8.1343-4.3364a1.02829,1.02829,0,0,0,.4243-.8805,1.10615,1.10615,0,0,0-.3968-.9757l-7.8985-4.9634a3.76051,3.76051,0,0,0-2.0109-.6032Zm0-13.6219a3.77119,3.77119,0,0,0-2.0114.6023l-7.8957,4.9649a1.09894,1.09894,0,0,0-.3977.9734,1.03081,1.03081,0,0,0,.425.8827l8.1314,4.3371a3.61525,3.61525,0,0,0,3.496,0l8.1343-4.3371a1.0302,1.0302,0,0,0,.4243-.8827,1.10318,1.10318,0,0,0-.3968-.9739l-7.8985-4.9644a3.75936,3.75936,0,0,0-2.0109-.6023Zm9.8819-6.1988a1.02975,1.02975,0,0,0,.4243-.8824,1.10292,1.10292,0,0,0-.3968-.9743l-7.8985-4.964a3.66429,3.66429,0,0,0-4.0223-.0009l-7.8957,4.9657a1.09833,1.09833,0,0,0-.3977.9735,1.03143,1.03143,0,0,0,.425.8824l8.1314,4.3364a3.61262,3.61262,0,0,0,3.496,0l8.1343-4.3364Zm9.5771,5.4998-.1984.1071h.002l-7.8956,4.9635-.3555.3047-.3526-.3047-7.8957-4.9635-.1964-.1071,7.9781-4.2546.4666-.3469.4674.3469,7.9801,4.2546Zm12.4444-5.4998a1.01963,1.01963,0,0,0,.4244-.8824,1.09892,1.09892,0,0,0-.3949-.9743l-7.8956-4.964a3.66512,3.66512,0,0,0-4.0244-.0009l-7.8965,4.9657a1.09376,1.09376,0,0,0-.3968.9735,1.02219,1.02219,0,0,0,.4243.8824l8.1315,4.3364a3.6136,3.6136,0,0,0,3.4965,0l8.1315-4.3364Zm9.5794,5.4998-.1987.1071h.0023l-7.8979,4.9635-.3504.3047-.3549-.3047-7.8962-4.9635-.1984-.1071,7.9801-4.2546.4671-.3469.4669.3469,7.9801,4.2546Zm12.4472-5.4998a1.03661,1.03661,0,0,0,.4244-.8819,1.10285,1.10285,0,0,0-.3997-.9748l-7.8937-4.964a3.66648,3.66648,0,0,0-4.0243-.0009l-7.8985,4.9657a1.09757,1.09757,0,0,0-.3948.9735,1.03228,1.03228,0,0,0,.4243.8824l8.1321,4.3364a3.61033,3.61033,0,0,0,3.4959,0l8.1343-4.3364Zm9.5772,5.4998-.1993.1071-7.8956,4.9635-.3527.3047-.3546-.3047-7.8965-4.9635-.1956-.1071,7.9801-4.2546.4666-.3469.4666.3469,7.981,4.2546Zm12.4443-5.4998a1.02843,1.02843,0,0,0,.4247-.8824,1.10264,1.10264,0,0,0-.3972-.9743l-7.8962-4.964a3.66546,3.66546,0,0,0-4.0246-.0009l-7.8965,4.9657a1.10041,1.10041,0,0,0-.3968.9735,1.02535,1.02535,0,0,0,.4272.8824l8.1314,4.3364a3.61052,3.61052,0,0,0,3.496,0l8.132-4.3364Zm-19.7898,39.0087a1.107,1.107,0,0,0-.3968.9762,1.02282,1.02282,0,0,0,.4272.8813l8.1314,4.3356a3.60319,3.60319,0,0,0,3.496,0l8.132-4.3356a1.02508,1.02508,0,0,0,.4247-.8813,1.10113,1.10113,0,0,0-.4-.9762l-7.8934-4.9626a3.65735,3.65735,0,0,0-4.0226,0h-.002l-7.8965,4.9626Zm-9.3532-6.1572-.1956-.1068,7.9801-4.2548.4666-.347.4666.347,7.981,4.2548-.1993.1068-7.8956,4.9635-.3527.3047-.3546-.3047-7.8965-4.9635Zm-12.6703,6.1572a1.09722,1.09722,0,0,0-.3948.9762,1.02972,1.02972,0,0,0,.4243.8813l8.1321,4.3356a3.603,3.603,0,0,0,3.4959,0l8.1343-4.3356a1.03542,1.03542,0,0,0,.4244-.8813,1.106,1.106,0,0,0-.3997-.9762l-7.8937-4.9626a3.65685,3.65685,0,0,0-4.0223,0h-.002l-7.8985,4.9626Zm-9.3512-6.1572-.1984-.1068,7.9801-4.2548.4671-.347.4669.347,7.9801,4.2548-.1987.1068h.0023L102.928,142.56l-.3527.3027-.3526-.3027-7.8962-4.9635Zm-12.6706,6.1572a1.1003,1.1003,0,0,0-.3968.9762,1.0215,1.0215,0,0,0,.4243.8813l8.1315,4.3356a3.60416,3.60416,0,0,0,3.4965,0l8.1315-4.3356a1.01633,1.01633,0,0,0,.4244-.8813,1.099,1.099,0,0,0-.3969-.9762l-7.8936-4.9626a3.66036,3.66036,0,0,0-4.0244,0l-7.8965,4.9626ZM80.551,132.8879l.4674.347,7.9801,4.2548-.1984.1068h.002l-7.8956,4.9635-.3555.3047-.3526-.3047-7.8957-4.9635-.1964-.1068,7.9781-4.2548.4666-.347Zm8.4475-9.0204-.1984.1071h.002l-7.8956,4.9621-.3555.3061-.3526-.3061-7.8957-4.9621-.1964-.1071,7.9781-4.2554.4666-.3469.4674.3469,7.9801,4.2554Zm12.4444-5.5004a1.01825,1.01825,0,0,0,.4244-.8827,1.09825,1.09825,0,0,0-.3949-.9739l-7.8956-4.9644a3.66239,3.66239,0,0,0-4.0244,0l-7.8965,4.9649a1.09437,1.09437,0,0,0-.3968.9734,1.02344,1.02344,0,0,0,.4243.8827l8.1315,4.3371a3.61623,3.61623,0,0,0,3.4965,0l8.1315-4.3371Zm.4244,12.7401a1.0981,1.0981,0,0,0-.3969-.9749l-7.8936-4.9634a3.66341,3.66341,0,0,0-4.0244-.0006l-7.8965,4.964a1.09944,1.09944,0,0,0-.3968.9757,1.021,1.021,0,0,0,.4243.8805l8.1315,4.337a3.61465,3.61465,0,0,0,3.4965-.0006l8.1315-4.3364a1.01685,1.01685,0,0,0,.4244-.8813Zm9.155-7.2397-.1987.1071h.0023l-7.8979,4.9621-.3527.3047-.3526-.3047-7.8962-4.9621-.1984-.1071,7.9801-4.2554.4671-.3469.4669.3469,7.9801,4.2554Zm12.4472-5.5004a1.03645,1.03645,0,0,0,.4244-.8812,1.10391,1.10391,0,0,0-.3997-.9754l-7.8937-4.9644a3.666,3.666,0,0,0-4.0223,0h-.002l-7.8985,4.9649a1.09818,1.09818,0,0,0-.3948.9734,1.03166,1.03166,0,0,0,.4243.8827l8.1321,4.3371a3.61138,3.61138,0,0,0,3.4959,0l8.1343-4.3371Zm.4244,12.7409a1.10567,1.10567,0,0,0-.3997-.9757l-7.8937-4.9634a3.65989,3.65989,0,0,0-4.0223-.0006h-.002l-7.8985,4.964a1.09636,1.09636,0,0,0-.3948.9757,1.029,1.029,0,0,0,.4243.881l8.1321,4.3365a3.60614,3.60614,0,0,0,3.4959-.0006l8.1343-4.3364a1.03356,1.03356,0,0,0,.4244-.8805Zm9.1528-7.2405-.1993.1071-7.8956,4.9621-.3527.3061-.3546-.3061-7.8965-4.9621-.1956-.1071,7.9801-4.2554.4666-.3469.4666.3469,7.981,4.2554Zm4.5756,1.3008a3.66192,3.66192,0,0,0-4.0226,0h-.002l-7.8965,4.964a1.10615,1.10615,0,0,0-.3968.9757,1.02232,1.02232,0,0,0,.4272.8805l8.1314,4.337a3.60633,3.60633,0,0,0,3.496-.0006l8.132-4.3364a1.02561,1.02561,0,0,0,.4247-.8813,1.10021,1.10021,0,0,0-.4-.9749l-7.8934-4.964Zm-.2633-2.4641,8.132-4.3371a1.027,1.027,0,0,0,.4247-.8827,1.102,1.102,0,0,0-.3972-.9739l-7.8962-4.9644a3.65938,3.65938,0,0,0-4.0226,0h-.002l-7.8965,4.9649a1.101,1.101,0,0,0-.3968.9734,1.02475,1.02475,0,0,0,.4272.8827l8.1314,4.3371a3.61158,3.61158,0,0,0,3.496,0Zm17.5127,14.8923-7.8984,4.9635-.3504.3027-.3549-.3027-7.8933-4.9635-.2013-.1068,7.9807-4.2548.4688-.347.4646.347,7.9801,4.2548-.1959.1068Zm0-13.6219-7.8984,4.9621-.3504.3047-.3549-.3047-7.8933-4.9621-.2013-.1071,7.9807-4.2554.4688-.3469.4646.3469,7.9801,4.2554-.1959.1071Zm0-13.6227.1959-.1071-7.9801-4.2546-.4646-.3469-.4688.3469-7.9779,4.2546.1985.1071,7.8933,4.9635.3549.3047.3504-.3047,7.8984-4.9635Zm0,40.866-7.8984,4.9634-.3504.3056-.3549-.3056-7.8933-4.9634-.2013-.1041,7.9807-4.2562.4688-.3475.4646.3475,7.9801,4.2562-.1959.1041ZM147.723,89.2664l7.8985-4.9657a3.66646,3.66646,0,0,1,4.0252.0008l7.8956,4.9649a1.10319,1.10319,0,0,1,.3969.9734,1.02434,1.02434,0,0,1-.4244.8824l-8.1343,4.337a3.60947,3.60947,0,0,1-3.496,0l-8.1311-4.337a1.03056,1.03056,0,0,1-.4252-.8824,1.106,1.106,0,0,1,.3948-.9734Zm42.5906-1.1959L182.418,83.107a5.09425,5.09425,0,0,0-5.5253,0l-7.8928,4.9635-.3555.3061-.3526-.3061-7.8956-4.9635a5.08561,5.08561,0,0,0-5.5245,0l-7.8984,4.9635-.3504.3047-.3549-.3047-7.8956-4.9635a5.08646,5.08646,0,0,0-5.525,0l-7.8956,4.9635-.3527.3061-.3546-.3061L116.348,83.107a5.09,5.09,0,0,0-5.5221,0l-7.8979,4.9635-.3504.3047-.3549-.3047-7.8984-4.9635a5.08172,5.08172,0,0,0-5.5222,0l-7.8956,4.9635-.3555.3047-.3526-.3047-7.8957-4.9635a5.08839,5.08839,0,0,0-5.5244,0l-7.8985,4.9635-.3526.3047-.3503-.3047-7.8957-4.9635a5.09314,5.09314,0,0,0-5.5272,0l-7.8957,4.9635a2.48243,2.48243,0,0,0-1.0579,2.2192,2.38311,2.38311,0,0,0,1.1719,2.0778l7.9809,4.2554-.1992.1063-7.8957,4.964-.062.0522.4246,1.9635a1.03714,1.03714,0,0,1,.3869-.8198l7.8985-4.9657a3.66429,3.66429,0,0,1,4.0223.0009l7.8965,4.964a1.10321,1.10321,0,0,1,.3969.9743,1.03151,1.03151,0,0,1-.4244.8824l-8.1343,4.3364a3.60817,3.60817,0,0,1-3.4937,0l-8.1343-4.3364-.2455-.2583.4221,1.9517,7.1413,3.8064-.1992.1071-5.3655,3.3727.3155,1.4675,5.8023-3.646a3.65888,3.65888,0,0,1,4.0223,0l7.8965,4.9644a1.10348,1.10348,0,0,1,.3969.9739,1.032,1.032,0,0,1-.4244.8827l-8.1343,4.3371a3.6108,3.6108,0,0,1-3.4937,0l-5.0176-2.6759.3892,1.8073,3.812,2.0319-.1992.1071-2.7732,1.7419.3175,1.4675,3.208-2.0157a3.6599,3.6599,0,0,1,4.0223.0006l7.8965,4.9634a1.10644,1.10644,0,0,1,.3969.9757,1.03006,1.03006,0,0,1-.4244.8805l-8.1343,4.3364a3.60189,3.60189,0,0,1-3.4937.0006l-1.6886-.9003.3929,1.8091.4793.2554-.1992.1068-.1789.112.3183,1.4675.6129-.3849a3.65685,3.65685,0,0,1,4.0223,0l7.8965,4.9626a1.10673,1.10673,0,0,1,.3969.9762,1.03,1.03,0,0,1-.4244.8813l-8.1343,4.3356a3.62729,3.62729,0,0,1-1.9468.4272l.3126,1.4522a3.77809,3.77809,0,0,1,1.8995.589l7.8965,4.9626a1.10007,1.10007,0,0,1,.3969.9743,1.02875,1.02875,0,0,1-.4244.881l-7.3199,3.903.3104,1.4349,7.6725-4.0921.4689-.3475.4671.3475,7.9773,4.2562-.1956.1041-7.8985,4.9634-.3526.3056-.3503-.3056-7.7072-4.8415.4176,1.9292,6.5378,4.1069a1.11271,1.11271,0,0,1,.3969.9762,1.02674,1.02674,0,0,1-.4244.881l-4.6806,2.4959.3104,1.4352,5.0352-2.6844.4669-.3478.4671.3478,8.1315,4.3376a5.04516,5.04516,0,0,0,4.8243,0l8.132-4.3376.4666-.345.4674.345,8.134,4.3376a5.04516,5.04516,0,0,0,4.8243,0l8.1315-4.3376.4671-.3478.4669.3478,8.1312,4.3376a5.05066,5.05066,0,0,0,4.8271,0l8.132-4.3376.4666-.345.4666.345,8.1343,4.3376a5.03914,5.03914,0,0,0,4.8249-.002l8.1292-4.3356.4688-.3478.4646.3478,8.134,4.3376a5.04516,5.04516,0,0,0,4.8243,0l8.132-4.3376.4666-.345.4674.345,2.403,1.281.3356-1.4205-2.0735-1.1072a1.026,1.026,0,0,1-.4244-.881,1.11011,1.11011,0,0,1,.3943-.9762l3.2905-2.0659.4614-1.9565-4.4988,2.8278-.3555.3056-.3526-.3056-7.8928-4.9634-.199-.1041,7.9778-4.2562.4666-.3475.4674.3475,5.2583,2.8041.3331-1.4202-4.9263-2.6303a1.02412,1.02412,0,0,1-.4244-.8804,1.09807,1.09807,0,0,1,.3943-.9734l7.0622-4.4405.7495-3.1779-7.7816-4.1491a1.02855,1.02855,0,0,1-.4244-.8813,1.10294,1.10294,0,0,1,.3943-.9754l7.899-4.9634a3.64626,3.64626,0,0,1,2.619-.5131l.3928-1.6583a3.59341,3.59341,0,0,1-2.7493-.2942l-8.1314-4.337a1.02618,1.02618,0,0,1-.4244-.8805,1.10457,1.10457,0,0,1,.3943-.9757l7.899-4.964a3.65906,3.65906,0,0,1,4.0218.0006l1.4704.9235.3447-1.4513-1.0628-.6665-.1955-.1071,1.646-.8782.4323-1.83-2.8956,1.5449a3.617,3.617,0,0,1-3.4988,0l-8.1314-4.3371a1.02956,1.02956,0,0,1-.4244-.8812,1.10067,1.10067,0,0,1,.3943-.9749l7.899-4.9649a3.66135,3.66135,0,0,1,4.0218,0l4.2687,2.683.3427-1.4524-3.8591-2.4248-.1955-.1071,5.3209-2.8378.4294-1.8301-6.5676,3.5045a3.616,3.616,0,0,1-3.4988,0l-8.1314-4.3364a1.02893,1.02893,0,0,1-.4244-.8819,1.09925,1.09925,0,0,1,.3943-.974l7.899-4.9657a3.665,3.665,0,0,1,4.0218.0009l7.0671,4.4404.3401-1.4513-6.6568-4.1842-.1965-.1063,7.9829-4.2554a2.375,2.375,0,0,0,1.1671-2.0778A2.47458,2.47458,0,0,0,190.31359,88.0705Z"/>
        <g>
          <path class="cls-3" d="M228.46079,146.2802a1.82794,1.82794,0,0,1,.4487,1.3138,1.78669,1.78669,0,0,1-.1873.6682,1.88965,1.88965,0,0,1-.4368.5729,1.82933,1.82933,0,0,1-1.3028.4359,1.85611,1.85611,0,0,1-1.6867-1.938,1.83018,1.83018,0,0,1,.612-1.23,1.60641,1.60641,0,0,1,.6274-.3537,1.7511,1.7511,0,0,1,.6876-.0933l.341.0618.3498.1261.2835.1868Z"/>
          <path class="cls-3" d="M80.68309,26.2517a1.78014,1.78014,0,1,1-.2333-.351l.2333.351Zm6.6776-3.0274a1.81505,1.81505,0,0,1-3.3324,1.4397,1.80778,1.80778,0,0,1,3.0325-1.8961l.2999.4564Zm6.851-2.5269a1.81386,1.81386,0,1,1-.3438-.5904,1.74065,1.74065,0,0,1,.3438.5904Zm7.0226-2.0542a1.79463,1.79463,0,0,1-1.283,2.2218l.0094.0113a1.817,1.817,0,0,1-.9604-3.5047,1.8291,1.8291,0,0,1,1.8604.5643,1.76559,1.76559,0,0,1,.3736.7073Zm7.1433-1.5585a1.81276,1.81276,0,1,1-3.5538.7172,1.81191,1.81191,0,0,1,3.1481-1.5404,1.74773,1.74773,0,0,1,.4057.8232Zm7.2329-1.0403a1.8078,1.8078,0,1,1-2.0084-1.563,1.79646,1.79646,0,0,1,2.0084,1.563Zm114.9698,124.6728a1.80144,1.80144,0,0,1-2.1379,1.4037,1.80881,1.80881,0,1,1,.7339-3.5424,1.77382,1.77382,0,0,1,1.0122.5828,1.80114,1.80114,0,0,1,.3918,1.5559ZM122.91339,15.5265a1.8141,1.8141,0,0,1-1.7113,1.8975,1.79469,1.79469,0,0,1-1.9089-1.6991,1.80378,1.80378,0,0,1,3.1692-1.2946,1.8698,1.8698,0,0,1,.451,1.0962Zm108.9087,117.8424h0a1.80967,1.80967,0,0,1-3.5875-.479l-.0133.0116a1.84473,1.84473,0,0,1,2.0469-1.5633,1.87564,1.87564,0,0,1,1.1268.6032,1.82613,1.82613,0,0,1,.4271,1.4275ZM130.23039,15.4959a1.80406,1.80406,0,0,1-1.8303,1.7844,1.82673,1.82673,0,0,1-1.7977-1.8445,1.81432,1.81432,0,0,1,3.628.0601ZM232.528,125.9626l.0113.013a1.81052,1.81052,0,1,1-.4467-1.3153,1.77413,1.77413,0,0,1,.4354,1.3023ZM137.52509,15.9885a1.81147,1.81147,0,1,1-1.6486-1.9516,1.77279,1.77279,0,0,1,1.2155.5987,1.85031,1.85031,0,0,1,.4331,1.3529Zm95.2121,102.5439a1.81071,1.81071,0,1,1-1.827-1.7966,1.76549,1.76549,0,0,1,1.3808.6205,1.82815,1.82815,0,0,1,.4462,1.1761ZM144.77439,16.9775a1.806,1.806,0,1,1-1.5006-2.0545,1.73867,1.73867,0,0,1,1.074.6012,1.79626,1.79626,0,0,1,.4266,1.4533Zm87.6303,94.11a1.79128,1.79128,0,1,1-.4272-1.0426,1.72583,1.72583,0,0,1,.4272,1.0426Zm-80.4578-92.598a1.81395,1.81395,0,1,1-1.3651-2.1724,1.77429,1.77429,0,0,1,.9606.5794,1.8084,1.8084,0,0,1,.4045,1.593Zm79.6235,85.2118a1.8157,1.8157,0,0,1-3.5917.5349,1.83173,1.83173,0,0,1,1.5423-2.0628,1.79949,1.79949,0,0,1,2.0494,1.5279Zm-72.587-83.2193a1.81123,1.81123,0,0,1-3.4708-1.0372,1.829,1.829,0,0,1,2.2558-1.2172,1.88958,1.88958,0,0,1,.8337.546,1.79915,1.79915,0,0,1,.3813,1.7084Zm71.2338,75.9008h0a1.83275,1.83275,0,0,1-1.3831,2.1617,1.81077,1.81077,0,1,1,.9769-2.9594,1.92285,1.92285,0,0,1,.4062.7977Zm-64.3595-73.4097a1.798,1.798,0,1,1-.3223-1.8312,1.76684,1.76684,0,0,1,.3223,1.8312Zm62.4844,66.2051a1.81641,1.81641,0,0,1-1.2345,2.2513,1.811,1.811,0,0,1-1.0276-3.473,1.81719,1.81719,0,0,1,1.8873.5409,1.91468,1.91468,0,0,1,.3748.6808Zm-55.7836-63.2233a1.81673,1.81673,0,1,1-.8875-2.3987,1.75874,1.75874,0,0,1,.5984.4408,1.82822,1.82822,0,0,1,.2891,1.9579Zm53.3988,56.1792a1.7952,1.7952,0,0,1-1.0466,2.3262,1.81674,1.81674,0,1,1,.7268-2.888,1.65766,1.65766,0,0,1,.3198.5618Zm-46.952-52.7417a1.81047,1.81047,0,1,1-.7021-2.4621,1.95583,1.95583,0,0,1,.4867.3948,1.80436,1.80436,0,0,1,.2154,2.0673Zm44.0912,45.868a1.81144,1.81144,0,1,1-3.2898,1.5174,1.81131,1.81131,0,0,1,3.0123-1.9468l.2775.4294Zm-37.8799-41.9839a1.80823,1.80823,0,1,1-3.0331-1.9695,1.83061,1.83061,0,0,1,2.5166-.5313l.3606.3323a1.77908,1.77908,0,0,1,.1559,2.1685Zm34.5266,35.3466a1.73587,1.73587,0,1,1-.2061-.3232l.2061.3232Zm-28.6243-31.0218a1.78816,1.78816,0,0,1-2.5271.3509,1.81268,1.81268,0,1,1,2.1875-2.891l.2662.2508a1.80587,1.80587,0,0,1,.0734,2.2893Zm24.8077,24.6203a1.81032,1.81032,0,1,1-3.0368,1.9715,1.811,1.811,0,0,1,2.8854-2.175l.1514.2035Zm-19.2203-19.9069a1.80888,1.80888,0,0,1-2.7207-2.3845,1.82734,1.82734,0,0,1,2.5653-.1686l.1687.1678a1.8102,1.8102,0,0,1-.0133,2.3853Zm14.9856,13.7985a1.866,1.866,0,1,1-.0947-.1097l.0947.1097Zm-9.7302-8.6986a1.80691,1.80691,0,0,1-2.5653.0028,1.81462,1.81462,0,1,1,2.5772-2.5552l.0709.0817a1.81317,1.81317,0,0,1-.0828,2.4707Zm4.8716,5.4598a1.81078,1.81078,0,0,1-2.3638-2.7437,1.81079,1.81079,0,1,1,2.3638,2.7437Z"/>
          <path class="cls-3" d="M73.98259,29.5625l.2004.2826.155.3175.0666.3529.0162.3478a1.82122,1.82122,0,0,1-1.94,1.6881l-.3444-.0621-.326-.127-.3056-.1865a2.28644,2.28644,0,0,1-.4643-.5346l-.1437-.3289-.0805-.3398-.0136-.3495a2.20058,2.20058,0,0,1,.1907-.6914,1.86472,1.86472,0,0,1,1.7493-.9967l.3418.0638.3399.114.294.1981Z"/>
        </g>
        <polygon class="cls-3" points="48.095 18.72 52.424 26.552 61.33 27.427 55.218 33.964 57.138 42.705 49.033 38.911 41.314 43.438 42.417 34.558 35.725 28.615 44.512 26.92 48.095 18.72"/>
        <polygon class="cls-3" points="74.037 38.139 73.892 43.823 78.492 47.165 73.041 48.783 71.285 54.191 68.062 49.507 62.375 49.507 65.833 44.994 64.077 39.586 69.439 41.482 74.037 38.139"/>
        <polygon class="cls-3" points="34.568 42.271 35.315 47.908 40.38 50.488 35.251 52.94 34.363 58.556 30.445 54.434 24.83 55.326 27.539 50.327 24.958 45.261 30.548 46.292 34.568 42.271"/>
      </g>
      <rect class="cls-5" x="20.48679" y="12.8333" width="39.7557" height="48.6762" rx="2.9279"/>
      <path class="cls-6" d="M70.62839,13.03h145.4849a3.4005,3.4005,0,0,1,3.4005,3.4005V28.3861a3.4005,3.4005,0,0,1-3.4005,3.4005H70.62829a3.4004,3.4004,0,0,1-3.4004-3.4004V16.4305a3.4005,3.4005,0,0,1,3.4005-3.4005Z"/>
      <g class="cls-7">
        <rect class="cls-8" x="54.71999" y="-5.2798" width="144.4802" height="49.68"/>
      </g>
      <path class="cls-9" d="M70.62839,13.03h145.4849a3.4005,3.4005,0,0,1,3.4005,3.4005V28.3861a3.4005,3.4005,0,0,1-3.4005,3.4005H70.62829a3.4004,3.4004,0,0,1-3.4004-3.4004V16.4305a3.4005,3.4005,0,0,1,3.4005-3.4005Z"/>
      <circle class="cls-10" cx="78.58062" cy="48.3324" r="12.1402" transform="translate(25.9766 124.11994) rotate(-86.82988)"/>
      <rect class="cls-5" x="20.48679" y="68.0525" width="39.7557" height="48.6762" rx="2.9279"/>
      <path class="cls-6" d="M70.62829,68.2492h145.4851a3.4004,3.4004,0,0,1,3.4004,3.4004V83.6053a3.4005,3.4005,0,0,1-3.4005,3.4005H70.62829a3.4004,3.4004,0,0,1-3.4004-3.4004V71.6496a3.4004,3.4004,0,0,1,3.4004-3.4004Z"/>
      <g class="cls-11">
        <rect class="cls-8" x="44.50029" y="50.2974" width="144.4801" height="49.68"/>
      </g>
      <path class="cls-9" d="M70.62829,68.2492h145.4851a3.4004,3.4004,0,0,1,3.4004,3.4004V83.6053a3.4005,3.4005,0,0,1-3.4005,3.4005H70.62829a3.4004,3.4004,0,0,1-3.4004-3.4004V71.6496a3.4004,3.4004,0,0,1,3.4004-3.4004Z"/>
      <circle class="cls-10" cx="78.58062" cy="103.5516" r="12.1402" transform="translate(-29.1581 176.28547) rotate(-86.82988)"/>
      <rect class="cls-5" x="20.48679" y="123.2717" width="39.7557" height="48.6762" rx="2.9279"/>
      <rect class="cls-12" x="67.22789" y="123.4684" width="152.2859" height="18.7565" rx="3.4004"/>
      <g class="cls-13">
        <rect class="cls-14" x="-17.80101" y="109.5352" width="144.4802" height="49.68"/>
      </g>
      <rect class="cls-15" x="67.22789" y="123.4684" width="152.2859" height="18.7565" rx="3.4004"/>
      <circle class="cls-10" cx="78.58062" cy="158.7705" r="12.1402" transform="translate(-84.2925 228.45072) rotate(-86.82988)"/>
      <rect class="cls-5" x="20.48679" y="178.4908" width="39.7557" height="48.6763" rx="2.9279"/>
      <circle class="cls-10" cx="78.58062" cy="213.98967" r="12.14028" transform="translate(-138.48994 283.60913) rotate(-87.61814)"/>
      <polygon class="cls-16" points="35.937 19.831 44.793 19.831 46.46 21.499 46.46 25.256 34.383 25.256 34.383 21.764 35.937 19.831"/>
      <path class="cls-17" d="M44.79309,19.8312c0,2.4454-1.9829,2.9775-4.4289,2.9775-2.4449,0-4.4268-.5321-4.4268-2.9775l-1.5543,1.9326v3.4923h12.077V21.4988Z"/>
      <path class="cls-18" d="M58.08049,32.1004l-6.2734-9.4096-5.9958-2.8599h-1.0182v.0003a4.42785,4.42785,0,1,1-8.8557,0v-.0003h-1.0197l-5.9964,2.8599-6.2725,9.4096,4.6123,3.7825,4.0127-4.428s-.1369,13.93-.6911,23.8011h19.5642c-.5536-9.8711-.6922-23.8011-.6922-23.8011l4.0132,4.428Z"/>
      <path class="cls-19" d="M30.84829,49.498c-.0317.8286-.0655,1.6529-.1015,2.4645h19.2359c-.036-.8116-.0697-1.6359-.1012-2.4645Z"/>
      <path class="cls-19" d="M31.01189,44.5694c-.0233.8124-.0488,1.6365-.0763,2.4645H49.794c-.0275-.828-.0528-1.6521-.0763-2.4645Z"/>
      <path class="cls-19" d="M31.13629,39.6405c-.0173.7901-.0365,1.6155-.0578,2.4645h18.5726c-.0213-.849-.0405-1.6744-.0581-2.4645Z"/>
      <path class="cls-19" d="M31.23209,34.5557c-.0113.7243-.0255,1.5537-.0422,2.4642h18.3495c-.0167-.9105-.0312-1.7399-.0425-2.4642Z"/>
      <polygon class="cls-19" points="57.97 31.935 56.327 29.471 24.402 29.471 22.759 31.935 30.839 31.935 31.274 31.455 31.269 31.935 49.46 31.935 49.455 31.455 49.89 31.935 57.97 31.935"/>
      <path class="cls-19" d="M54.43479,26.6321l-1.6432-2.4645H41.26509a4.45977,4.45977,0,0,1-1.8014,0H27.93689l-1.6427,2.4645Z"/>
      <path class="cls-19" d="M49.40989,21.5473l-3.5986-1.7164h-1.0182v.0003a4.41828,4.41828,0,0,1-.3447,1.7161Zm-13.1278,0a4.41646,4.41646,0,0,1-.3447-1.7161v-.0003h-1.0197l-3.5988,1.7164Z"/>
      <path class="cls-20" d="M54.95239,27.4085s.2331,5.2687-2.3516,7.5177l.8671.9567,4.6126-3.7825Z"/>
      <path class="cls-20" d="M27.26109,35.8829l4.0127-4.428a42.85909,42.85909,0,0,1-6.944,2.0237Z"/>
      <path class="cls-20" d="M31.18849,37.0854c-.0933,4.9583-.2755,12.2853-.6058,18.1706h19.5642c-.0845-1.5106-.1591-3.1155-.2257-4.7517C41.42409,49.4167,33.73459,40.3826,31.18849,37.0854Z"/>
      <rect class="cls-12" x="67.22789" y="178.6876" width="152.2859" height="18.7565" rx="3.4004"/>
      <g class="cls-21">
        <rect class="cls-14" x="-60.76181" y="162.5939" width="144.4799" height="49.68"/>
      </g>
      <rect class="cls-15" x="67.22789" y="178.6876" width="152.2859" height="18.7565" rx="3.4004"/>
      <polygon class="cls-16" points="35.937 129.897 44.793 129.897 46.46 131.565 46.46 135.322 34.383 135.322 34.383 131.83 35.937 129.897"/>
      <path class="cls-17" d="M44.79309,129.8974c0,2.4454-1.9829,2.9775-4.4289,2.9775-2.4449,0-4.4268-.5321-4.4268-2.9775l-1.5543,1.9326v3.4923h12.077V131.565Z"/>
      <path class="cls-18" d="M58.08049,142.1666l-6.2734-9.4097-5.9958-2.8598h-1.0182v.0003a4.42785,4.42785,0,1,1-8.8557,0v-.0003h-1.0197l-5.9964,2.8598-6.2725,9.4097,4.6123,3.7825,4.0127-4.428s-.1369,13.93-.6911,23.8011h19.5642c-.5536-9.8711-.6922-23.8011-.6922-23.8011l4.0132,4.428Z"/>
      <path class="cls-22" d="M40.32029,134.3251a4.42737,4.42737,0,0,1-4.3829-4.4277v-.0003h-1.0197l-5.9964,2.8598-6.2725,9.4097,4.6123,3.7825,4.0127-4.428s-.1369,13.93-.6911,23.8011h9.7376Z"/>
      <path class="cls-20" d="M54.95239,137.4746s.2331,5.2688-2.3516,7.5178l.8671.9567,4.6126-3.7825Z"/>
      <path class="cls-20" d="M27.26109,145.9491l4.0127-4.428a42.85909,42.85909,0,0,1-6.944,2.0237Z"/>
      <path class="cls-20" d="M31.18849,147.1516c-.0933,4.9583-.2755,12.2853-.6058,18.1706h19.5642c-.0845-1.5106-.1591-3.1156-.2257-4.7517C41.42409,159.4828,33.73459,150.4488,31.18849,147.1516Z"/>
      <polygon class="cls-23" points="35.937 74.666 44.793 74.666 46.46 76.333 46.46 80.091 34.384 80.091 34.384 76.598 35.937 74.666"/>
      <path class="cls-24" d="M44.79279,74.6657c0,2.4454-1.9823,2.9778-4.4283,2.9778-2.4452,0-4.4274-.5324-4.4274-2.9778l-1.5534,1.9327v3.4922h12.0764V76.3333Z"/>
      <path class="cls-25" d="M58.08019,86.9349l-6.2728-9.4096L45.811,74.6657h-1.0182a4.42785,4.42785,0,1,1-8.8557,0H34.918l-5.9964,2.8596-6.2728,9.4096,4.6123,3.7825,4.0127-4.428s-.1369,13.9301-.6908,23.8009h19.5642c-.5539-9.8708-.692-23.8009-.692-23.8009l4.0125,4.428Z"/>
      <polygon class="cls-26" points="27.261 90.717 28.905 88.904 24.012 84.891 22.649 86.935 27.261 90.717"/>
      <polygon class="cls-26" points="27.261 90.717 28.905 88.904 24.012 84.891 22.649 86.935 27.261 90.717"/>
      <path class="cls-26" d="M27.32769,87.611a25.42275,25.42275,0,0,1-2.9979.7021l2.9313,2.4043,1.6438-1.8138Z"/>
      <polygon class="cls-26" points="53.468 90.717 51.824 88.904 56.718 84.891 58.08 86.935 53.468 90.717"/>
      <path class="cls-26" d="M56.71729,84.8914l-2.3658,1.94a6.35851,6.35851,0,0,1-1.7507,2.9294l.8669.9566,4.6125-3.7825Z"/>
      <path class="cls-26" d="M40.36479,80.6207a5.99056,5.99056,0,0,0,5.9811-5.6999l-.5349-.2551h-1.0182a4.42785,4.42785,0,1,1-8.8557,0H34.918l-.5343.2548A5.99033,5.99033,0,0,0,40.36479,80.6207Z"/>
      <path class="cls-26" d="M46.82689,83.9548a1.8663,1.8663,0,1,1-1.8666-1.8669A1.86685,1.86685,0,0,1,46.82689,83.9548Z"/>
      <path class="cls-26" d="M49.78659,101.6388h-18.843q-.0222.6564-.0448,1.3152h18.9326Q49.808,102.2958,49.78659,101.6388Z"/>
      <path class="cls-26" d="M43.24389,102.954c-.7134-.4064-1.4099-.8475-2.0863-1.3152h-10.214c-.0017.0431-.0032.0859-.0046.1292q-.0195.5928-.0402,1.186Z"/>
      <path class="cls-26" d="M31.22649,89.7608c-.0236,1.4425-.057,3.251-.1024,5.2605h18.4808c-.0448-2.0095-.0785-3.818-.1018-5.2605Z"/>
      <path class="cls-26" d="M31.07509,97.0574c-.0216.8564-.0451,1.7362-.0714,2.6303h18.7228c-.0264-.8941-.0502-1.7739-.0723-2.6303Z"/>
      <path class="cls-26" d="M35.72249,97.0574h-4.6474q-.01575.61785-.0329,1.2509c-.0028.1154-.0062.2333-.0093.3498q-.01365.48645-.0278.9788l-.0014.0508h7.5957C37.56469,98.8243,36.60069,97.9316,35.72249,97.0574Z"/>
      <path class="cls-26" d="M31.18849,91.9199c-.0012.0578-.0023.1205-.0037.1794-.0031.1718-.0062.3478-.0099.5259-.0029.14-.006.28-.0088.4243q-.0069.36105-.0148.7336c-.0017.0618-.0025.1225-.0039.1843-.0074.3452-.015.695-.0233,1.0539h2.6603C32.67349,93.7894,31.78719,92.6949,31.18849,91.9199Z"/>
      <polygon class="cls-16" points="35.937 185.117 44.793 185.117 46.46 186.784 46.46 190.542 34.383 190.542 34.383 187.049 35.937 185.117"/>
      <path class="cls-27" d="M44.79339,185.1168c0,2.4455-1.9832,2.9775-4.4292,2.9775-2.4446,0-4.4268-.532-4.4268-2.9775l-1.554,1.9327v3.4923h12.0767v-3.7574Z"/>
      <path class="cls-18" d="M58.08019,197.386l-6.2731-9.4096-5.9958-2.8596h-1.0179a4.428,4.428,0,1,1-8.856,0H34.918l-5.9961,2.8596-6.2725,9.4096,4.6122,3.7823,4.0125-4.428s-.1369,13.93-.6911,23.8008h19.5639c-.5539-9.8708-.6922-23.8008-.6922-23.8008l4.0132,4.428Z"/>
      <path class="cls-20" d="M54.95219,192.6941s.2333,5.2685-2.3514,7.5175l.8671.9567,4.6123-3.7823Z"/>
      <path class="cls-20" d="M27.26159,201.1683l4.0125-4.428a42.84517,42.84517,0,0,1-6.944,2.0236Z"/>
      <path class="cls-20" d="M31.18879,202.371c-.0933,4.9581-.2756,12.2848-.6058,18.1701h19.5639c-.0845-1.5106-.1591-3.1156-.2257-4.7514C41.42409,214.7017,33.73479,205.668,31.18879,202.371Z"/>
      <polygon class="cls-28" points="27.262 201.168 28.905 199.355 24.012 195.342 22.649 197.386 27.262 201.168"/>
      <path class="cls-27" d="M27.328,198.0618a25.33154,25.33154,0,0,1-2.9979.7021l2.9315,2.4044,1.6433-1.8136Z"/>
      <polygon class="cls-28" points="53.468 201.168 51.824 199.355 56.718 195.342 58.08 197.386 53.468 201.168"/>
      <path class="cls-27" d="M56.71759,195.3422l-2.3661,1.9404a6.35774,6.35774,0,0,1-1.7507,2.929l.8671.9567,4.6123-3.7823Z"/>
      <path class="cls-28" d="M40.36539,191.0718a5.99063,5.99063,0,0,0,5.9808-5.6999l-.5349-.2551h-1.0179a4.428,4.428,0,1,1-8.856,0H34.918l-.5346.2549A5.99127,5.99127,0,0,0,40.36539,191.0718Z"/>
      <path class="cls-28" d="M50.33079,187.2723l-2.7555-1.3142a155.37012,155.37012,0,0,1-16.6737,27.3581c-.0598,1.7265-.1292,3.4537-.2089,5.11C40.96939,206.2199,48.13539,191.9126,50.33079,187.2723Z"/>
      <path class="cls-29" d="M30.69269,218.4262c2.5041-2.9747,4.8226-6.0741,6.9301-9.127-.7968-.7095-1.5463-1.4273-2.2376-2.1288-1.4001,2.0426-2.8968,4.1085-4.4836,6.1458C30.84179,215.0427,30.77239,216.7699,30.69269,218.4262Z"/>
      <path class="cls-20" d="M31.18849,91.9199c-.0936,4.9584-.2755,12.2851-.6055,18.1704h19.5642c-.0848-1.5103-.1596-3.1156-.226-4.7515C41.42439,104.2509,33.73479,95.2172,31.18849,91.9199Z"/>
      <path class="cls-20" d="M54.95219,82.243s.2333,5.2687-2.3514,7.5178l.8669.9566,4.6125-3.7825Z"/>
      <path class="cls-20" d="M27.26109,90.7174l4.0127-4.428a42.86958,42.86958,0,0,1-6.944,2.0237Z"/>
      <path class="cls-30" d="M143.46059,24.5883a2.15716,2.15716,0,0,1-.527,1.563,2.42848,2.42848,0,0,1-3.0662,0,2.15716,2.15716,0,0,1-.527-1.563v-.6588a2.68606,2.68606,0,0,1,.1916-1.0599,1.393,1.393,0,0,1,.6228-.6888,1.74588,1.74588,0,0,1-.8144-1.6889v-.2636a2.15813,2.15813,0,0,1,.527-1.563,2.42848,2.42848,0,0,1,3.0662,0,2.15813,2.15813,0,0,1,.527,1.563v.2636a1.76212,1.76212,0,0,1-.8144,1.6889,1.393,1.393,0,0,1,.6228.6888,2.68606,2.68606,0,0,1,.1916,1.0599v.6588Zm-2.8026-.036a1.00116,1.00116,0,0,0,.2154.7546.76511.76511,0,0,0,.527.1919.74335.74335,0,0,0,.5212-.1919,1.05124,1.05124,0,0,0,.2214-.7546v-.7784a1.078,1.078,0,0,0-.1975-.7248.78149.78149,0,0,0-1.09,0,1.078,1.078,0,0,0-.1975.7248v.7784Zm0-3.8089a.92019.92019,0,0,0,.2094.6947.82876.82876,0,0,0,1.0602,0,.90371.90371,0,0,0,.2154-.6947v-.4672a1.02386,1.02386,0,0,0-.2154-.7605.80182.80182,0,0,0-1.0542,0,1.02386,1.02386,0,0,0-.2154.7605Z"/>
      <path class="cls-30" d="M145.06579,19.2702a1.98349,1.98349,0,0,0,.6288-.0839,1.11246,1.11246,0,0,0,.4011-.2276,1.15485,1.15485,0,0,0,.2517-.3354,3.10145,3.10145,0,0,0,.1675-.4073h.8864v8.3846h-1.3175V20.2045h-1.018Z"/>
      <polygon class="cls-30" points="143.377 73.435 143.377 74.585 141.436 81.82 140.119 81.82 142.047 74.633 139.424 74.633 139.424 73.435 143.377 73.435"/>
      <path class="cls-30" d="M146.79039,75.4954a1.13837,1.13837,0,0,0-.1856-.7605.64912.64912,0,0,0-.497-.1976.67124.67124,0,0,0-.4971.1857.89135.89135,0,0,0-.1857.6409v.5388h-1.2456v-.4552a2.24,2.24,0,0,1,.497-1.563,2.24752,2.24752,0,0,1,2.9347,0,2.2405,2.2405,0,0,1,.4969,1.563v.2157a1.65689,1.65689,0,0,1-.9221,1.7249,1.32514,1.32514,0,0,1,.7126.6647,2.58041,2.58041,0,0,1,.2095,1.0959v.6588a2.23948,2.23948,0,0,1-.4969,1.563,2.24752,2.24752,0,0,1-2.9347,0,2.239,2.239,0,0,1-.497-1.563v-.6948h1.2456v.7787a.892.892,0,0,0,.1857.6409.67242.67242,0,0,0,.4971.1857.65962.65962,0,0,0,.497-.192,1.11159,1.11159,0,0,0,.1856-.7545v-.6588a1.28926,1.28926,0,0,0-.2035-.8263.81961.81961,0,0,0-.6588-.2395h-.4433v-1.198h.515a.82864.82864,0,0,0,.5812-.1916.92019.92019,0,0,0,.2094-.6947Z"/>
      <rect class="cls-10" x="137.83099" y="132.2476" width="2.3955" height="1.1976"/>
      <path class="cls-30" d="M141.04089,130.7384a2.38315,2.38315,0,0,1,.4913-1.6231,1.92469,1.92469,0,0,1,1.521-.557,1.886,1.886,0,0,1,1.4672.5451,2.23866,2.23866,0,0,1,.4972,1.563v.2157h-1.2455v-.2993a.89135.89135,0,0,0-.1857-.6409.67179.67179,0,0,0-.4972-.1857.68184.68184,0,0,0-.5388.2157,1.26191,1.26191,0,0,0-.1919.8144v1.5333a1.23812,1.23812,0,0,1,1.2217-.7427,1.27832,1.27832,0,0,1,1.0962.4909,2.36347,2.36347,0,0,1,.3653,1.4256v1.533a2.18915,2.18915,0,0,1-.515,1.563,2.29627,2.29627,0,0,1-2.9707,0,2.18919,2.18919,0,0,1-.5151-1.563v-4.288Zm2.0004,2.0361a.67313.67313,0,0,0-.4972.1857.89153.89153,0,0,0-.1856.6409v1.5092a.86764.86764,0,0,0,.1856.6346.77735.77735,0,0,0,.9944,0,.86762.86762,0,0,0,.1857-.6346v-1.5092a.89152.89152,0,0,0-.1857-.6409A.673.673,0,0,0,143.04129,132.7745Z"/>
      <path class="cls-30" d="M148.47929,130.7143a1.13944,1.13944,0,0,0-.1857-.7605.64941.64941,0,0,0-.4972-.1976.67092.67092,0,0,0-.4969.1857.89045.89045,0,0,0-.1856.6409v.8983H145.868v-.8147a2.24057,2.24057,0,0,1,.4972-1.563,2.24725,2.24725,0,0,1,2.9345,0,2.24057,2.24057,0,0,1,.4972,1.563,3.44919,3.44919,0,0,1-.2098,1.2339,4.78378,4.78378,0,0,1-.521,1.006,6.66741,6.66741,0,0,1-.6707.8326q-.35925.3771-.6469.7185a3.47285,3.47285,0,0,0-.4549.6767,1.13607,1.13607,0,0,0-.108.7067h2.4914v1.1979h-3.809v-1.0301a2.82587,2.82587,0,0,1,.1917-1.078,3.8161,3.8161,0,0,1,.4853-.8564,7.35162,7.35162,0,0,1,.6287-.7308,7.79847,7.79847,0,0,0,.6287-.7245,3.79181,3.79181,0,0,0,.4853-.8385A2.7351,2.7351,0,0,0,148.47929,130.7143Z"/>
      <rect class="cls-10" x="137.83099" y="187.467" width="2.3955" height="1.1977"/>
      <path class="cls-30" d="M140.81359,189.5391l2.3955-5.6656h1.4372v5.6656h.6228v1.198h-.6228v1.521h-1.3175v-1.521h-2.5152v-1.198Zm2.5152,0v-3.1022l-1.3057,3.1022Z"/>
      <path class="cls-30" d="M146.68269,184.9277a1.97953,1.97953,0,0,0,.6287-.0839,1.11076,1.11076,0,0,0,.4011-.2276,1.15429,1.15429,0,0,0,.2518-.3353,3.12235,3.12235,0,0,0,.1675-.4074h.8864v8.3846h-1.3176V185.862h-1.0179Z"/>
      <g>
        <circle class="cls-31" cx="78.58037" cy="158.77078" r="12.13998" transform="translate(-93.99717 198.77113) rotate(-76.71752)"/>
        <path class="cls-32" d="M67.16439,154.6325a12.14436,12.14436,0,0,1,22.8319,0Z"/>
        <path class="cls-18" d="M66.44039,158.7708a12.11661,12.11661,0,0,1,.724-4.1383h22.8319a12.19288,12.19288,0,0,1,.0958,8.0022H67.06859A12.12094,12.12094,0,0,1,66.44039,158.7708Z"/>
      </g>
      <circle class="cls-33" cx="78.58062" cy="103.5516" r="12.13998" transform="translate(-15.57242 13.9243) rotate(-9.21746)"/>
      <path class="cls-22" d="M90.557,101.5614a12.20566,12.20566,0,0,1,0,3.9798H66.60369a12.20566,12.20566,0,0,1,0-3.9798Z"/>
      <path class="cls-22" d="M78.58039,91.4117a12.21929,12.21929,0,0,1,1.9899.1632v23.9534a12.21548,12.21548,0,0,1-3.9802,0V91.5749A12.226,12.226,0,0,1,78.58039,91.4117Z"/>
      <circle class="cls-34" cx="78.45362" cy="213.98968" r="12.21229" transform="translate(-128.33502 118.15121) rotate(-45)"/>
      <path class="cls-18" d="M78.45339,201.7777a12.184,12.184,0,0,1,4.1626.7283v22.968a12.26572,12.26572,0,0,1-8.0495.0963V202.4096A12.1906,12.1906,0,0,1,78.45339,201.7777Z"/>
      <g>
        <circle class="cls-35" cx="78.58062" cy="48.2519" r="12.13998" transform="translate(-6.71441 13.21025) rotate(-9.21746)"/>
        <path class="cls-36" d="M78.58039,36.112a12.14511,12.14511,0,0,1,11.3913,7.9333l.0705.1993.0145.0405H67.104l.0057-.0164c.1091-.3138.2341-.6299.3736-.9457l.0176-.0397.0328-.0722A12.14179,12.14179,0,0,1,78.58039,36.112Z"/>
        <path class="cls-37" d="M90.05669,44.2851a12.18519,12.18519,0,0,1-.0422,8.0532H67.14619a12.18519,12.18519,0,0,1-.0422-8.0532Z"/>
      </g>
    </g>
  </g>
</svg>
