<svg xmlns="http://www.w3.org/2000/svg" xmlns:xlink="http://www.w3.org/1999/xlink" viewBox="0 0 240.0001 240.00009">
  <defs>
    <style>
      .cls-1, .cls-7 {
        fill: none;
      }

      .cls-2 {
        fill: #e2e8f0;
      }

      .cls-3 {
        clip-path: url(#clip-path);
      }

      .cls-4 {
        fill: #4ec928;
      }

      .cls-5, .cls-6 {
        fill: #fff;
      }

      .cls-25, .cls-5 {
        fill-rule: evenodd;
      }

      .cls-7 {
        stroke: #b1bccc;
        stroke-miterlimit: 22.9256;
        stroke-width: 0.5669px;
      }

      .cls-8 {
        clip-path: url(#clip-path-2);
      }

      .cls-9 {
        fill: #687cff;
      }

      .cls-10 {
        clip-path: url(#clip-path-3);
      }

      .cls-11 {
        fill: #12b3ff;
      }

      .cls-12 {
        clip-path: url(#clip-path-4);
      }

      .cls-13 {
        fill: #6536ff;
      }

      .cls-14 {
        clip-path: url(#clip-path-5);
      }

      .cls-15 {
        fill: #c06aff;
      }

      .cls-16 {
        clip-path: url(#clip-path-6);
      }

      .cls-17 {
        fill: #c90faa;
      }

      .cls-18 {
        clip-path: url(#clip-path-7);
      }

      .cls-19 {
        fill: #ff5a79;
      }

      .cls-20 {
        clip-path: url(#clip-path-8);
      }

      .cls-21 {
        fill: #ff6a14;
      }

      .cls-22 {
        clip-path: url(#clip-path-9);
      }

      .cls-23 {
        clip-path: url(#clip-path-10);
      }

      .cls-24, .cls-25 {
        fill: #475569;
      }
    </style>
    <clipPath id="clip-path">
      <path class="cls-1" d="M29.23369,11.918h81.0374a5.4374,5.4374,0,0,1,5.4374,5.4374V46.1651a5.4374,5.4374,0,0,1-5.4374,5.4374H29.23379a5.4375,5.4375,0,0,1-5.4375-5.4375V17.3554A5.4374,5.4374,0,0,1,29.23369,11.918Z"/>
    </clipPath>
    <clipPath id="clip-path-2">
      <rect class="cls-1" x="23.79629" y="56.0378" width="91.9122" height="39.6845" rx="5.4374"/>
    </clipPath>
    <clipPath id="clip-path-3">
      <path class="cls-1" d="M129.729,11.918h81.0374a5.4374,5.4374,0,0,1,5.4374,5.4374V46.165a5.4375,5.4375,0,0,1-5.4375,5.4375h-81.0372a5.4375,5.4375,0,0,1-5.4375-5.4375V17.3554a5.4374,5.4374,0,0,1,5.4374-5.4374Z"/>
    </clipPath>
    <clipPath id="clip-path-4">
      <rect class="cls-1" x="124.29159" y="56.0378" width="91.9122" height="39.6845" rx="5.4374"/>
    </clipPath>
    <clipPath id="clip-path-5">
      <rect class="cls-1" x="23.79629" y="100.1577" width="91.9122" height="39.6844" rx="5.4374"/>
    </clipPath>
    <clipPath id="clip-path-6">
      <path class="cls-1" d="M129.729,100.1577h81.0371a5.4377,5.4377,0,0,1,5.4377,5.4377v28.8093a5.4374,5.4374,0,0,1-5.4374,5.4374h-81.0377a5.4371,5.4371,0,0,1-5.4371-5.4371V105.5951A5.4374,5.4374,0,0,1,129.729,100.1577Z"/>
    </clipPath>
    <clipPath id="clip-path-7">
      <path class="cls-1" d="M29.23369,144.2775h81.0374a5.4374,5.4374,0,0,1,5.4374,5.4374v28.8097a5.4377,5.4377,0,0,1-5.4377,5.4377H29.23369a5.4374,5.4374,0,0,1-5.4374-5.4374v-28.81A5.4374,5.4374,0,0,1,29.23369,144.2775Z"/>
    </clipPath>
    <clipPath id="clip-path-8">
      <path class="cls-1" d="M129.729,144.2775h81.0371a5.4377,5.4377,0,0,1,5.4377,5.4377v28.8094a5.4377,5.4377,0,0,1-5.4377,5.4377h-81.0374a5.4371,5.4371,0,0,1-5.4371-5.4371V149.7149A5.4374,5.4374,0,0,1,129.729,144.2775Z"/>
    </clipPath>
    <clipPath id="clip-path-9">
      <path class="cls-1" d="M29.23369,188.3974h81.0374a5.4374,5.4374,0,0,1,5.4374,5.4374v28.8096a5.4377,5.4377,0,0,1-5.4377,5.4377H29.234a5.4377,5.4377,0,0,1-5.4377-5.4377V193.8348A5.4374,5.4374,0,0,1,29.23369,188.3974Z"/>
    </clipPath>
    <clipPath id="clip-path-10">
      <path class="cls-1" d="M129.729,188.3974h81.0371a5.4377,5.4377,0,0,1,5.4377,5.4377v28.8093a5.4377,5.4377,0,0,1-5.4377,5.4377h-81.0368a5.4377,5.4377,0,0,1-5.4377-5.4377V193.8348A5.4374,5.4374,0,0,1,129.729,188.3974Z"/>
    </clipPath>
  </defs>
  <g id="_1-17" data-name="1">
    <path class="cls-2" d="M29.23369,11.918h81.0374a5.4374,5.4374,0,0,1,5.4374,5.4374V46.1651a5.4374,5.4374,0,0,1-5.4374,5.4374H29.23379a5.4375,5.4375,0,0,1-5.4375-5.4375V17.3554A5.4374,5.4374,0,0,1,29.23369,11.918Z"/>
    <g class="cls-3">
      <g>
        <rect class="cls-4" x="23.79599" y="11.9509" width="39.5924" height="39.5926"/>
        <g>
          <g>
            <path class="cls-5" d="M46.97769,24.6668a3.39175,3.39175,0,1,0-3.3916,3.3917A3.39827,3.39827,0,0,0,46.97769,24.6668Z"/>
            <path class="cls-5" d="M41.21039,32.2948a6.21518,6.21518,0,0,1-2.5076-.4949,5.003,5.003,0,0,1-2.1974-1.7617l2.2173-1.3859a.07449.07449,0,0,1-.0133-.0198,2.54489,2.54489,0,0,0,1.1613.8249,5.85234,5.85234,0,0,0,4.309-.4882c2.8374-1.2407,4.3288-1.8082,5.7475-1.6696,1.5837.1585,2.6198,1.1549,4.144,2.7715a1.30712,1.30712,0,0,1-1.9069,1.7883c-1.3065-1.3923-1.8808-1.9003-2.4945-1.9598-.8314-.0791-2.3689.5541-4.4476,1.4649A10.05337,10.05337,0,0,1,41.21039,32.2948Z"/>
            <rect class="cls-6" x="44.65794" y="28.871" width="3.99256" height="8.49954" transform="translate(-9.07311 20.15672) rotate(-22.27571)"/>
            <path class="cls-5" d="M40.03569,46.9641a1.26239,1.26239,0,0,1-.4881-.0992,1.30763,1.30763,0,0,1-.7195-1.7025l2.2899-5.6616a1.30183,1.30183,0,0,1,.6599-.6928l6.6186-3.0685a1.3098,1.3098,0,0,1,1.7354.6335l1.8805,4.0187,4.9294-1.0823a1.30731,1.30731,0,1,1,.5607,2.5538l-5.9519,1.3065a1.31269,1.31269,0,0,1-1.465-.7192l-1.775-3.7879-4.9689,2.3031-2.0984,5.1801A1.30422,1.30422,0,0,1,40.03569,46.9641Z"/>
            <path class="cls-5" d="M45.14319,18.6489c-.7918,0-1.4386-.7458-1.4848-1.8213-.0528,1.0755-.6928,1.8144-1.4845,1.8144a2.19692,2.19692,0,0,1-1.927-1.8739h-.0065l.7985,3.4313h5.2194l.7656-3.2664A2.23049,2.23049,0,0,1,45.14319,18.6489Z"/>
          </g>
          <path class="cls-5" d="M36.123,44.1595a2.83745,2.83745,0,1,0-2.8374,2.8375A2.84308,2.84308,0,0,0,36.123,44.1595Z"/>
        </g>
      </g>
    </g>
    <path class="cls-7" d="M29.23369,11.918h81.0374a5.4374,5.4374,0,0,1,5.4374,5.4374V46.1651a5.4374,5.4374,0,0,1-5.4374,5.4374H29.23379a5.4375,5.4375,0,0,1-5.4375-5.4375V17.3554A5.4374,5.4374,0,0,1,29.23369,11.918Z"/>
    <rect class="cls-2" x="23.79629" y="56.0378" width="91.9122" height="39.6845" rx="5.4374"/>
    <g class="cls-8">
      <g>
        <g>
          <rect class="cls-9" x="23.79599" y="56.1821" width="39.5926" height="39.5924"/>
          <polygon class="cls-5" points="41.421 76.843 43.896 74.929 43.955 75.998 45.869 74.929 43.163 77.179 43.276 76.11 41.421 76.843"/>
        </g>
        <g>
          <path class="cls-5" d="M57.153,85.2826H29.83409a.69277.69277,0,0,1-.6931-.6928V67.5649a.69277.69277,0,0,1,.6931-.6928H57.153a.6927.6927,0,0,1,.6928.6928V84.5898a.6927.6927,0,0,1-.6928.6928Zm-26.6261-1.3859h25.933V68.2577h-25.933Z"/>
          <path class="cls-5" d="M43.59229,72.6789a.66183.66183,0,0,1-.6599-.6599V67.7299a.6599.6599,0,0,1,1.3198,0V72.019A.66164.66164,0,0,1,43.59229,72.6789Z"/>
          <path class="cls-5" d="M43.59229,84.9526a.662.662,0,0,1-.6599-.6599V79.9376a.6599.6599,0,0,1,1.3198,0v4.3551A.66177.66177,0,0,1,43.59229,84.9526Z"/>
          <path class="cls-5" d="M56.78989,80.3996h-3.6292a.3269.3269,0,0,1-.33-.3299V72.019a.32679.32679,0,0,1,.33-.33h3.5631a.33.33,0,1,1,0,.6599h-3.2332v7.3908h3.2993a.33.33,0,0,1,0,.6599Z"/>
          <path class="cls-5" d="M33.89219,80.3996h-3.7613a.33.33,0,1,1,0-.6599h3.4313V72.3489h-3.4974a.33.33,0,0,1,0-.6599h3.8274a.32671.32671,0,0,1,.3299.33v8.0507A.32681.32681,0,0,1,33.89219,80.3996Z"/>
          <path class="cls-5" d="M43.59229,79.469a3.55665,3.55665,0,1,1,3.5569-3.5566,3.56226,3.56226,0,0,1-3.5569,3.5566Zm0-6.4536a2.89685,2.89685,0,1,0,2.897,2.897A2.90068,2.90068,0,0,0,43.59229,73.0154Z"/>
        </g>
      </g>
    </g>
    <rect class="cls-7" x="23.79629" y="56.0378" width="91.9122" height="39.6845" rx="5.4374"/>
    <path class="cls-2" d="M129.729,11.918h81.0374a5.4374,5.4374,0,0,1,5.4374,5.4374V46.165a5.4375,5.4375,0,0,1-5.4375,5.4375h-81.0372a5.4375,5.4375,0,0,1-5.4375-5.4375V17.3554a5.4374,5.4374,0,0,1,5.4374-5.4374Z"/>
    <g class="cls-10">
      <g>
        <rect class="cls-11" x="124.29159" y="12.0101" width="39.5923" height="39.5924"/>
        <g>
          <g>
            <path class="cls-5" d="M137.02709,34.5382a.68275.68275,0,0,1-.6271-.4025l-5.1205-10.9738a.68933.68933,0,0,1,.1849-.8249l4.9424-4.1111a.68941.68941,0,0,1,1.069.2376l5.1273,11.0001a.69535.69535,0,0,1-1.2606.5873l-4.7511-10.1817L132.751,23.063l4.8898,10.4918a.69183.69183,0,0,1-.3368.9238A.67206.67206,0,0,1,137.02709,34.5382Z"/>
            <path class="cls-5" d="M151.14839,34.6833a.64494.64494,0,0,1-.2905-.066.69779.69779,0,0,1-.3365-.9239l4.9558-10.637-3.8407-3.1938-4.7576,10.2082a.69523.69523,0,0,1-1.2603-.5874l5.1403-11.0199a.68023.68023,0,0,1,.4751-.3827.68979.68979,0,0,1,.5939.1451l4.9425,4.1111a.68938.68938,0,0,1,.1848.8249l-5.1866,11.1189A.65961.65961,0,0,1,151.14839,34.6833Z"/>
            <path class="cls-5" d="M151.37939,19.4666h0l-14.5306-.0263a.67987.67987,0,1,1,0-1.3595h0l14.5306.0263a.67987.67987,0,1,1,0,1.3595Z"/>
            <path class="cls-5" d="M149.24129,24.0197h0l-10.2478-.0264a.71293.71293,0,0,1,0-1.4253h0l10.2413.0397a.704.704,0,0,1,.6927.7058A.69428.69428,0,0,1,149.24129,24.0197Z"/>
          </g>
          <g>
            <path class="cls-5" d="M143.99519,46.2906a8.42991,8.42991,0,0,1-6.7635-13.4484,8.46916,8.46916,0,0,1,6.7833-3.4115,8.43027,8.43027,0,0,1,6.7638,13.4484,8.46959,8.46959,0,0,1-6.7836,3.4115Zm.0133-15.5928a7.16514,7.16514,0,0,0-4.2692,12.9203,7.11309,7.11309,0,0,0,4.2559,1.4054A7.18488,7.18488,0,0,0,149.756,42.12a7.163,7.163,0,0,0-5.7475-11.4222Z"/>
            <polygon class="cls-5" points="142.062 30.335 140.689 33.443 137.297 33.806 142.062 30.335"/>
            <polygon class="cls-5" points="146.846 45.109 143.916 43.381 140.947 45.063 146.846 45.109"/>
            <polygon class="cls-5" points="150.739 33.892 147.361 33.509 146.008 30.374 150.739 33.892"/>
            <polygon class="cls-5" points="138.096 43.031 138.796 39.705 136.248 37.428 138.096 43.031"/>
            <polygon class="cls-5" points="151.775 37.323 149.235 39.586 149.927 42.925 151.775 37.323"/>
            <polygon class="cls-5" points="140.663 39.012 141.923 35.231 145.916 35.271 147.123 39.078 143.876 41.394 140.663 39.012"/>
            <rect class="cls-6" x="144.11985" y="34.12206" width="4.97548" height="0.63347" transform="translate(29.62601 129.28144) rotate(-52.25273)"/>
            <rect class="cls-6" x="141.09046" y="31.96716" width="0.6334" height="4.97538" transform="translate(7.41656 91.28477) rotate(-36.67712)"/>
            <rect class="cls-6" x="137.40905" y="38.92582" width="4.97532" height="0.63347" transform="translate(-5.1768 47.28887) rotate(-18.84397)"/>
            <rect class="cls-6" x="143.53467" y="39.72226" width="0.6336" height="4.97549" transform="translate(-0.51481 1.79582) rotate(-0.71399)"/>
            <rect class="cls-6" x="147.73953" y="36.79296" width="0.63352" height="4.98204" transform="translate(71.46992 171.94303) rotate(-74.86138)"/>
          </g>
        </g>
      </g>
    </g>
    <path class="cls-7" d="M129.729,11.918h81.0374a5.4374,5.4374,0,0,1,5.4374,5.4374V46.165a5.4375,5.4375,0,0,1-5.4375,5.4375h-81.0372a5.4375,5.4375,0,0,1-5.4375-5.4375V17.3554a5.4374,5.4374,0,0,1,5.4374-5.4374Z"/>
    <rect class="cls-2" x="124.29159" y="56.0378" width="91.9122" height="39.6845" rx="5.4374"/>
    <g class="cls-12">
      <g>
        <rect class="cls-13" x="124.29159" y="56.13" width="39.5926" height="39.5926"/>
        <g>
          <g>
            <path class="cls-5" d="M144.08139,84.7026A8.77556,8.77556,0,0,1,137.03389,70.7a8.8318,8.8318,0,0,1,7.0605-3.5566,8.77618,8.77618,0,0,1,7.0475,14.0023,8.81274,8.81274,0,0,1-7.0605,3.5569Zm.013-16.2329a7.45954,7.45954,0,0,0-4.4408,13.4547,7.40023,7.40023,0,0,0,4.4343,1.4649,7.4598,7.4598,0,1,0,.0065-14.9196Z"/>
            <polygon class="cls-5" points="142.069 68.094 140.637 71.327 137.106 71.703 142.069 68.094"/>
            <polygon class="cls-5" points="147.044 83.469 143.995 81.674 140.907 83.429 147.044 83.469"/>
            <polygon class="cls-5" points="151.102 71.795 147.585 71.393 146.173 68.133 151.102 71.795"/>
            <polygon class="cls-5" points="137.938 81.311 138.664 77.846 136.011 75.477 137.938 81.311"/>
            <polygon class="cls-5" points="152.178 75.365 149.532 77.721 150.258 81.199 152.178 75.365"/>
            <polygon class="cls-5" points="140.604 77.127 141.917 73.188 146.081 73.234 147.334 77.193 143.949 79.602 140.604 77.127"/>
            <rect class="cls-6" x="144.20786" y="72.03604" width="5.18" height="0.65982" transform="translate(-0.27628 144.16873) rotate(-52.2636)"/>
            <rect class="cls-6" x="141.05146" y="69.78442" width="0.6598" height="5.18006" transform="translate(-15.23807 98.77717) rotate(-36.67722)"/>
            <rect class="cls-6" x="137.21961" y="77.03681" width="5.17991" height="0.65992" transform="translate(-17.49126 49.28148) rotate(-18.83573)"/>
            <rect class="cls-6" x="143.59661" y="77.86455" width="0.6598" height="5.17985" transform="translate(-0.99371 1.80404) rotate(-0.71569)"/>
            <rect class="cls-6" x="147.97506" y="74.8118" width="0.65981" height="5.18659" transform="translate(34.851 200.34456) rotate(-74.8593)"/>
          </g>
          <g>
            <path class="cls-5" d="M138.68359,81.6406a.327.327,0,0,0-.4685,0l-13.8376,13.8376a.28738.28738,0,0,0-.0859.165v.0794h.7786l13.6134-13.6134A.3271.3271,0,0,0,138.68359,81.6406Z"/>
            <path class="cls-5" d="M141.68609,83.0594a.3271.3271,0,0,0-.4686,0l-12.6564,12.6632h.9303l12.1947-12.1947A.327.327,0,0,0,141.68609,83.0594Z"/>
            <path class="cls-5" d="M137.31759,78.658a.33121.33121,0,0,0-.4685-.4683l-12.5575,12.564v.904a.29962.29962,0,0,0,.0924-.066Z"/>
            <path class="cls-5" d="M136.40679,74.2173a.32611.32611,0,0,0-.4682,0l-11.647,11.6532v.9303l12.1152-12.1153A.32611.32611,0,0,0,136.40679,74.2173Z"/>
            <path class="cls-5" d="M145.73079,83.6402a.32611.32611,0,0,0-.4682,0l-12.0824,12.0824h.9303l11.6203-11.6206A.33009.33009,0,0,0,145.73079,83.6402Z"/>
          </g>
        </g>
      </g>
    </g>
    <rect class="cls-7" x="124.29159" y="56.0378" width="91.9122" height="39.6845" rx="5.4374"/>
    <rect class="cls-2" x="23.79629" y="100.1577" width="91.9122" height="39.6844" rx="5.4374"/>
    <g class="cls-14">
      <g>
        <rect class="cls-15" x="23.79599" y="100.2498" width="39.5924" height="39.5926"/>
        <g>
          <g>
            <path class="cls-5" d="M40.11479,126.8889a7.52368,7.52368,0,0,1-.0921-13.435,7.5599,7.5599,0,0,1,6.7767-.0462,7.52308,7.52308,0,0,1,.0925,13.435,7.58291,7.58291,0,0,1-6.7771.0462Zm6.1767-12.4783a6.395,6.395,0,1,0,.0856,11.4224,6.39583,6.39583,0,0,0-.0856-11.4224Z"/>
            <polygon class="cls-5" points="44.879 113.355 42.55 115.301 39.693 114.246 44.879 113.355"/>
            <polygon class="cls-5" points="42.86 127.067 41.197 124.527 38.155 124.698 42.86 127.067"/>
            <polygon class="cls-5" points="50.416 119.637 47.862 117.987 48.02 114.945 50.416 119.637"/>
            <polygon class="cls-5" points="36.683 121.947 38.558 119.558 37.416 116.733 36.683 121.947"/>
            <polygon class="cls-5" points="49.887 122.791 46.958 123.596 46.192 126.539 49.887 122.791"/>
            <polygon class="cls-5" points="40.319 119.743 42.827 117.215 46.008 118.832 45.467 122.355 41.949 122.923 40.319 119.743"/>
            <rect class="cls-6" x="44.66704" y="118.15315" width="4.44109" height="0.56759" transform="translate(-47.08049 32.43836) rotate(-25.93763)"/>
            <rect class="cls-6" x="42.43541" y="114.17089" width="0.56772" height="4.44118" transform="translate(-20.25066 9.58933) rotate(-10.36866)"/>
            <rect class="cls-6" x="39.33639" y="117.40595" width="0.56751" height="4.44099" transform="translate(-84.13858 143.3756) rotate(-82.53812)"/>
            <rect class="cls-6" x="39.38754" y="123.28051" width="4.44089" height="0.56738" transform="translate(-87.80772 107.72407) rotate(-64.41185)"/>
            <rect class="cls-6" x="45.84983" y="120.66095" width="0.56766" height="4.4476" transform="translate(-76.51558 76.12857) rotate(-48.55497)"/>
          </g>
          <g>
            <path class="cls-5" d="M51.32609,131.6597a.29152.29152,0,0,1-.1979-.0791.29509.29509,0,0,1-.0198-.4224,16.60991,16.60991,0,0,0,3.9328-11.0132,17.292,17.292,0,0,0-2.2502-8.6907.30767.30767,0,0,1,.1058-.409.30123.30123,0,0,1,.409.1057,17.91019,17.91019,0,0,1,2.336,8.994,17.21219,17.21219,0,0,1-4.0912,11.4157A.31655.31655,0,0,1,51.32609,131.6597Z"/>
            <g>
              <path class="cls-5" d="M55.68119,109.9366a3.25831,3.25831,0,0,0-1.6693,1.5772,2.98915,2.98915,0,0,0,.0859,2.0061,3.02885,3.02885,0,0,0-1.5179-1.3133,3.22592,3.22592,0,0,0-2.27.3234,3.25527,3.25527,0,0,0,1.6563,1.5838,3.21921,3.21921,0,0,0,2.2634-.3169v-.0066a3.16963,3.16963,0,0,0,1.643-1.5638A3.257,3.257,0,0,0,55.68119,109.9366Z"/>
              <path class="cls-5" d="M57.15949,113.1304a3.276,3.276,0,0,0-1.927,1.2538,3.05021,3.05021,0,0,0-.2769,1.9927,3.04453,3.04453,0,0,0-1.2538-1.5638,3.2802,3.2802,0,0,0-2.2963-.0924,3.20449,3.20449,0,0,0,1.3461,1.8544,3.24173,3.24173,0,0,0,2.2831.0924v-.0068a3.17622,3.17622,0,0,0,1.8938-1.247A3.234,3.234,0,0,0,57.15949,113.1304Z"/>
              <path class="cls-5" d="M58.06349,116.5221a3.25981,3.25981,0,0,0-2.1116.8974,2.9824,2.9824,0,0,0-.6202,1.9137,2.9874,2.9874,0,0,0-.9635-1.7552,3.24169,3.24169,0,0,0-2.2436-.4884,2.634,2.634,0,0,0,3.24,2.5605v-.0068a3.15964,3.15964,0,0,0,2.0852-.8972A3.34094,3.34094,0,0,0,58.06349,116.5221Z"/>
              <path class="cls-5" d="M58.41329,120.0263a3.244,3.244,0,0,0-2.2371.5079,2.98738,2.98738,0,0,0-.9502,1.7686,2.99966,2.99966,0,0,0-.6335-1.9004,3.27486,3.27486,0,0,0-2.1181-.8844,2.62321,2.62321,0,0,0,2.7318,3.0816v-.0066a3.20373,3.20373,0,0,0,2.2107-.5079A3.27234,3.27234,0,0,0,58.41329,120.0263Z"/>
              <path class="cls-5" d="M58.15589,123.2728a3.2459,3.2459,0,0,0-2.2765.2968,3.01964,3.01964,0,0,0-1.1152,1.6761,3.03561,3.03561,0,0,0-.4555-1.9531,3.26293,3.26293,0,0,0-2.0256-1.0757,2.62749,2.62749,0,0,0,2.4281,3.3324v-.0065a3.17151,3.17151,0,0,0,2.2504-.3036A3.276,3.276,0,0,0,58.15589,123.2728Z"/>
              <path class="cls-5" d="M57.41689,126.7503a3.27807,3.27807,0,0,0-2.2898-.1386,3.00187,3.00187,0,0,0-1.4055,1.4386,3.01193,3.01193,0,0,0-.0793-1.9996,3.25711,3.25711,0,0,0-1.7881-1.4383,2.62313,2.62313,0,0,0,1.7617,3.7216v-.0065a3.18882,3.18882,0,0,0,2.2635.1253A3.25485,3.25485,0,0,0,57.41689,126.7503Z"/>
              <path class="cls-5" d="M56.07719,129.7264a3.26338,3.26338,0,0,0-2.2699-.3563,3.03434,3.03434,0,0,0-1.5376,1.2932,3.03879,3.03879,0,0,0,.1123-1.9993,3.24543,3.24543,0,0,0-1.643-1.6036,2.62969,2.62969,0,0,0,1.3989,3.8801v-.0065a3.1896,3.1896,0,0,0,2.2437.343A3.2955,3.2955,0,0,0,56.07719,129.7264Z"/>
            </g>
            <path class="cls-5" d="M35.50219,131.6597a.30526.30526,0,0,1-.2242-.099,17.19981,17.19981,0,0,1-4.0912-11.4157,17.84091,17.84091,0,0,1,2.336-8.994.29862.29862,0,1,1,.5145.3033,17.29189,17.29189,0,0,0-2.2501,8.6907,16.59712,16.59712,0,0,0,3.933,11.0132.30118.30118,0,0,1-.0198.4224A.3044.3044,0,0,1,35.50219,131.6597Z"/>
            <g>
              <path class="cls-5" d="M36.53179,112.4969a3.2765,3.2765,0,0,0-2.2765-.2968,3.04858,3.04858,0,0,0-1.5046,1.3328,3.0428,3.0428,0,0,0,.0595-1.9992,3.24591,3.24591,0,0,0-1.6895-1.5574,2.63145,2.63145,0,0,0,1.4981,3.8404v-.0065a3.19588,3.19588,0,0,0,2.2502.2837A3.30347,3.30347,0,0,0,36.53179,112.4969Z"/>
              <path class="cls-5" d="M35.42319,114.6813a3.25757,3.25757,0,0,0-2.2899.1187,3.03561,3.03561,0,0,0-1.2404,1.5837,3.039,3.039,0,0,0-.3036-1.9797,3.24315,3.24315,0,0,0-1.94-1.2274,3.21266,3.21266,0,0,0,.2375,2.2833,3.25271,3.25271,0,0,0,1.9335,1.2274v-.0068a3.17031,3.17031,0,0,0,2.2632-.1253A3.292,3.292,0,0,0,35.42319,114.6813Z"/>
              <path class="cls-5" d="M34.704,117.0369a3.2657,3.2657,0,0,0-2.2371.5147,3.02412,3.02412,0,0,0-.9436,1.7751,2.99591,2.99591,0,0,0-.6466-1.8938,3.25023,3.25023,0,0,0-2.1249-.8711,3.22073,3.22073,0,0,0,.6336,2.2039,3.23788,3.23788,0,0,0,2.118.8711v-.0065a3.19726,3.19726,0,0,0,2.2108-.5213A3.29668,3.29668,0,0,0,34.704,117.0369Z"/>
              <path class="cls-5" d="M34.35419,119.4786a3.28031,3.28031,0,0,0-2.1115.904,3.02033,3.02033,0,0,0-.6137,1.9137,3.04025,3.04025,0,0,0-.97-1.7555,3.26538,3.26538,0,0,0-2.2436-.4817,3.24369,3.24369,0,0,0,1.0094,2.0589,3.24454,3.24454,0,0,0,2.2371.4816v-.0066a3.18726,3.18726,0,0,0,2.0786-.9039A3.2571,3.2571,0,0,0,34.35419,119.4786Z"/>
              <path class="cls-5" d="M34.539,122.1775a3.24994,3.24994,0,0,0-2.0126,1.0953,3.04857,3.04857,0,0,0-.4356,1.9664,3.06259,3.06259,0,0,0-1.1285-1.6563,3.288,3.288,0,0,0-2.283-.2639,3.23,3.23,0,0,0,1.201,1.9531,3.23209,3.23209,0,0,0,2.27.2707v-.0065a3.191,3.191,0,0,0,1.9862-1.0956A3.27891,3.27891,0,0,0,34.539,122.1775Z"/>
              <path class="cls-5" d="M34.96789,124.5728a3.26945,3.26945,0,0,0-1.775,1.4581,3.07486,3.07486,0,0,0-.0596,2.0129,3.03026,3.03026,0,0,0-1.4187-1.4122,3.24654,3.24654,0,0,0-2.2895.1649,3.2203,3.2203,0,0,0,1.544,1.696,3.24334,3.24334,0,0,0,2.2833-.1585v-.0065a3.19548,3.19548,0,0,0,1.7484-1.4519A3.31274,3.31274,0,0,0,34.96789,124.5728Z"/>
              <path class="cls-5" d="M36.06969,127.0276a3.235,3.235,0,0,0-1.6231,1.6231,2.98533,2.98533,0,0,0,.1386,2.0061,3.00729,3.00729,0,0,0-1.5508-1.2671,3.26514,3.26514,0,0,0-2.2635.3829,3.20786,3.20786,0,0,0,1.7025,1.5375,3.24481,3.24481,0,0,0,2.257-.3761v-.0068a3.15056,3.15056,0,0,0,1.5967-1.6101A3.28751,3.28751,0,0,0,36.06969,127.0276Z"/>
            </g>
          </g>
        </g>
      </g>
    </g>
    <rect class="cls-7" x="23.79629" y="100.1577" width="91.9122" height="39.6844" rx="5.4374"/>
    <path class="cls-2" d="M129.729,100.1577h81.0371a5.4377,5.4377,0,0,1,5.4377,5.4377v28.8093a5.4374,5.4374,0,0,1-5.4374,5.4374h-81.0377a5.4371,5.4371,0,0,1-5.4371-5.4371V105.5951A5.4374,5.4374,0,0,1,129.729,100.1577Z"/>
    <g class="cls-16">
      <g>
        <rect class="cls-17" x="124.29159" y="100.1577" width="39.6844" height="39.6844"/>
        <g>
          <g>
            <path class="cls-5" d="M144.12729,132.0177c-5.9066,0-8.5587-2.0373-9.7362-3.7435a7.17857,7.17857,0,0,1-.5224-6.7926,18.15726,18.15726,0,0,1,7.2754-8.572c.5491-.8467.053-1.9446-.648-3.274a8.40673,8.40673,0,0,1-.5887-1.2699,1.25919,1.25919,0,0,1,.3044-1.4551,1.09615,1.09615,0,0,1,.7075-.2579,3.20346,3.20346,0,0,1,1.9579,1.2169,1.22751,1.22751,0,0,1,.2313-.8334.86013.86013,0,0,1,.688-.324c.43,0,.8929.2778,1.5477.9326.1191.1191.2316.2381.3308.3439a6.3042,6.3042,0,0,1,2.6257-1.025,1.09369,1.09369,0,0,1,1.1044.7341.65741.65741,0,0,1-.1454.6613,8.53693,8.53693,0,0,0-1.9381,4.6761,19.37187,19.37187,0,0,1,7.0507,8.4262,6.97326,6.97326,0,0,1-.4629,6.6737c-1.6798,2.5069-5.1591,3.8826-9.7821,3.8826Zm-2.8772-23.8371c.1126.2579.2843.5887.4167.8399.6679,1.2699,1.6866,3.1881.4629,4.7885a.79138.79138,0,0,1-.1916.1721,16.77785,16.77785,0,0,0-6.8326,7.9699,5.90609,5.90609,0,0,0,.3704,5.5692,6.53984,6.53984,0,0,0,3.0493,2.2686,15.2931,15.2931,0,0,0,5.6021.9059c4.1669,0,7.2555-1.1704,8.6907-3.2935a5.68217,5.68217,0,0,0,.3308-5.4434,17.78074,17.78074,0,0,0-6.8522-7.9965.649.649,0,0,1-.324-.6152,10.59574,10.59574,0,0,1,1.4948-4.8018,12.14579,12.14579,0,0,0-1.5543.8597.65766.65766,0,0,1-.8799-.1321,8.54716,8.54716,0,0,0-.7341-.7937,1.44957,1.44957,0,0,1-.1123,1.2566.75757.75757,0,0,1-.5953.2713h0c-.4563,0-.8135-.3507-1.4023-.9525A9.53687,9.53687,0,0,0,141.25009,108.1806Z"/>
            <path class="cls-5" d="M147.57309,113.5182h-6.3496a.72765.72765,0,0,1,0-1.4553h6.3496a.72765.72765,0,0,1,0,1.4553Z"/>
          </g>
          <g>
            <path class="cls-5" d="M144.73559,126.3098a9.98884,9.98884,0,0,1-4.5638-1.0054,2.9967,2.9967,0,0,1,0-5.741,9.98885,9.98885,0,0,1,4.5638-1.0055,11.0311,11.0311,0,0,1,3.2278.4632.71966.71966,0,0,1-.4232,1.3757,9.69414,9.69414,0,0,0-2.7978-.3969c-3.1022,0-5.2648,1.2832-5.2648,2.4406s2.1629,2.4407,5.2648,2.4407a9.26025,9.26025,0,0,0,3.1748-.5227.722.722,0,0,1,.4961,1.3561A11.22879,11.22879,0,0,1,144.73559,126.3098Z"/>
            <path class="cls-5" d="M145.39039,123.0423h-6.2833a.7275.7275,0,1,1,0-1.455h6.2833a.7275.7275,0,1,1,0,1.455Z"/>
            <path class="cls-5" d="M142.54639,128.6643a.72545.72545,0,0,1-.7276-.7274v-2.5795a.72765.72765,0,1,1,1.4553,0v2.5795A.72553.72553,0,0,1,142.54639,128.6643Z"/>
            <path class="cls-5" d="M142.54639,120.2644a.72545.72545,0,0,1-.7276-.7274v-2.315a.72765.72765,0,0,1,1.4553,0v2.315A.72553.72553,0,0,1,142.54639,120.2644Z"/>
            <path class="cls-5" d="M144.79509,128.6643a.72525.72525,0,0,1-.7273-.7274v-2.0506a.7275.7275,0,0,1,1.455,0v2.0506A.72534.72534,0,0,1,144.79509,128.6643Z"/>
            <path class="cls-5" d="M144.79509,119.9999a.7253.7253,0,0,1-.7273-.7276V117.222a.7275.7275,0,0,1,1.455,0v2.0503A.72538.72538,0,0,1,144.79509,119.9999Z"/>
          </g>
        </g>
      </g>
    </g>
    <path class="cls-7" d="M129.729,100.1577h81.0371a5.4377,5.4377,0,0,1,5.4377,5.4377v28.8093a5.4374,5.4374,0,0,1-5.4374,5.4374h-81.0377a5.4371,5.4371,0,0,1-5.4371-5.4371V105.5951A5.4374,5.4374,0,0,1,129.729,100.1577Z"/>
    <path class="cls-2" d="M29.23369,144.2775h81.0374a5.4374,5.4374,0,0,1,5.4374,5.4374v28.8097a5.4377,5.4377,0,0,1-5.4377,5.4377H29.23369a5.4374,5.4374,0,0,1-5.4374-5.4374v-28.81A5.4374,5.4374,0,0,1,29.23369,144.2775Z"/>
    <g class="cls-18">
      <g>
        <rect class="cls-19" x="23.24379" y="144.3696" width="39.5927" height="39.5927"/>
        <g>
          <path class="cls-5" d="M43.10619,177.3768a13.3625,13.3625,0,1,1,13.3622-13.3625,13.37424,13.37424,0,0,1-13.3622,13.3625Zm0-25.3394a11.9768,11.9768,0,1,0,11.9766,11.9769A11.9888,11.9888,0,0,0,43.10619,152.0374Z"/>
          <path class="cls-5" d="M42.908,171.9986a7.98445,7.98445,0,1,1,7.9847-7.9843,7.9949,7.9949,0,0,1-7.9847,7.9843Zm0-14.6491a6.66465,6.66465,0,1,0,6.6649,6.6648A6.67162,6.67162,0,0,0,42.908,157.3495Z"/>
          <path class="cls-5" d="M50.78689,174.6975l-4.6851-4.6851a7.83354,7.83354,0,0,0,2.7978-2.7978l4.7183,4.7183Z"/>
          <path class="cls-5" d="M36.91649,160.8205l-4.4873-4.4872,2.7519-2.8506,4.5331,4.5332A10.68764,10.68764,0,0,0,36.91649,160.8205Z"/>
          <path class="cls-5" d="M32.73929,172.1769l4.5071-4.507a8.39476,8.39476,0,0,0,2.7978,2.798l-4.4212,4.421Z"/>
          <path class="cls-5" d="M46.544,158.3657l4.718-4.718,2.7321,2.8639-4.7183,4.7179A8.47331,8.47331,0,0,0,46.544,158.3657Z"/>
        </g>
      </g>
    </g>
    <path class="cls-7" d="M29.23369,144.2775h81.0374a5.4374,5.4374,0,0,1,5.4374,5.4374v28.8097a5.4377,5.4377,0,0,1-5.4377,5.4377H29.23369a5.4374,5.4374,0,0,1-5.4374-5.4374v-28.81A5.4374,5.4374,0,0,1,29.23369,144.2775Z"/>
    <path class="cls-2" d="M129.729,144.2775h81.0371a5.4377,5.4377,0,0,1,5.4377,5.4377v28.8094a5.4377,5.4377,0,0,1-5.4377,5.4377h-81.0374a5.4371,5.4371,0,0,1-5.4371-5.4371V149.7149A5.4374,5.4374,0,0,1,129.729,144.2775Z"/>
    <g class="cls-20">
      <g>
        <rect class="cls-21" x="124.29159" y="144.396" width="39.6844" height="39.6845"/>
        <g>
          <path class="cls-5" d="M136.10439,164.397a5.61165,5.61165,0,1,1,4.028-1.7,5.59538,5.59538,0,0,1-4.028,1.7Zm0-9.908a4.302,4.302,0,1,0,2.9894,1.217A4.246,4.246,0,0,0,136.10439,154.489Z"/>
          <path class="cls-5" d="M145.86659,165.4288a1.417,1.417,0,0,1-1.0119-.4232c-.6679-.6616-4.3189-4.2001-4.3586-4.233a.65951.65951,0,0,1,.9193-.9459c.1522.1454,3.6972,3.5782,4.3719,4.2463a.12385.12385,0,0,0,.1258.0397c.2183-.0332,1.078-.3439,2.9631-3.0425.7605-1.0913,1.4023-2.1693,1.7129-2.7051a4.486,4.486,0,0,1-.82-3.2343,2.02657,2.02657,0,0,1,1.3031-1.3362l.4495-.1718,1.6073,1.9907a.66317.66317,0,1,1-1.0318.8334l-.9391-1.1642a.622.622,0,0,0-.1191.2251,2.32225,2.32225,0,0,0,.2976,1.4814,5.489,5.489,0,0,0,.5622.9592l.2514.3439-.2052.3705c-.0329.066-.8796,1.5874-1.984,3.168-2.1101,3.0359-3.2145,3.5056-3.8563,3.598C146.01879,165.4223,145.93949,165.4288,145.86659,165.4288Z"/>
          <path class="cls-5" d="M145.82689,174.6754l-.3305-.1587a37.13,37.13,0,0,1-5.7807-3.6312,26.89967,26.89967,0,0,1-7.2558-7.7913.6592.6592,0,1,1,1.1443-.6548c3.3798,5.9196,10.5231,9.8813,12.1303,10.7215,3.5122-2.3349,5.9857-6.2042,7.454-9.0814a29.11374,29.11374,0,0,0,2.7116-7.2292c.1588-1.3757-1.2696-3.1878-2.0831-3.6179-.258,0-1.0253.7541-1.5676,1.647a.66015.66015,0,0,1-1.131-.6812,9.05188,9.05188,0,0,1,.9258-1.2436c.602-.6613,1.5015-1.3558,2.3811-.8994,1.078.5621,3.0424,2.8177,2.7978,4.9538a30.22127,30.22127,0,0,1-2.8506,7.6791c-1.5874,3.1085-4.3123,7.3284-8.2411,9.8019Z"/>
          <path class="cls-5" d="M138.73659,169.5492l-.2381-1.3028a9.984,9.984,0,0,0,5.4105-2.8905,8.56605,8.56605,0,0,0,1.2501-1.6004l1.1242.6945a9.75807,9.75807,0,0,1-1.4286,1.832A11.35083,11.35083,0,0,1,138.73659,169.5492Z"/>
          <path class="cls-5" d="M140.37049,166.8044a1.42977,1.42977,0,0,1-1.0187-.4167l-.1718-.1652a1.47594,1.47594,0,0,1-.4434-1.0318,1.44844,1.44844,0,0,1,.4167-1.0452l.1656-.1717a1.46481,1.46481,0,0,1,2.0766-.0267l.1721.1656a.39749.39749,0,0,1-.5556.5686l-.1721-.1653a.67653.67653,0,0,0-.9524.0134l-.1653.1717a.67132.67132,0,0,0-.1919.4763.65563.65563,0,0,0,.2053.4762l.1718.1655a.67022.67022,0,0,0,.4762.1916.65507.65507,0,0,0,.4762-.2049.3976.3976,0,0,1,.5689.5556,1.47427,1.47427,0,0,1-1.0318.443Z"/>
        </g>
      </g>
    </g>
    <path class="cls-7" d="M129.729,144.2775h81.0371a5.4377,5.4377,0,0,1,5.4377,5.4377v28.8094a5.4377,5.4377,0,0,1-5.4377,5.4377h-81.0374a5.4371,5.4371,0,0,1-5.4371-5.4371V149.7149A5.4374,5.4374,0,0,1,129.729,144.2775Z"/>
    <path class="cls-2" d="M29.23369,188.3974h81.0374a5.4374,5.4374,0,0,1,5.4374,5.4374v28.8096a5.4377,5.4377,0,0,1-5.4377,5.4377H29.234a5.4377,5.4377,0,0,1-5.4377-5.4377V193.8348A5.4374,5.4374,0,0,1,29.23369,188.3974Z"/>
    <g class="cls-22">
      <g>
        <rect class="cls-4" x="22.32029" y="188.4895" width="39.5926" height="39.5926"/>
        <g>
          <polygon class="cls-5" points="42.149 198.836 40.209 200.183 40.896 197.926 39.008 196.494 41.371 196.448 42.149 194.217 42.928 196.448 45.291 196.494 43.403 197.926 44.089 200.183 42.149 198.836"/>
          <polygon class="cls-5" points="45.647 205.963 43.707 207.309 44.393 205.052 42.506 203.621 44.868 203.574 45.647 201.344 46.426 203.574 48.788 203.621 46.901 205.052 47.587 207.309 45.647 205.963"/>
          <polygon class="cls-5" points="52.773 205.963 50.833 207.309 51.52 205.052 49.632 203.621 51.995 203.574 52.773 201.344 53.552 203.574 55.914 203.621 54.027 205.052 54.713 207.309 52.773 205.963"/>
          <polygon class="cls-5" points="38.586 205.963 36.646 207.309 37.333 205.052 35.445 203.621 37.808 203.574 38.586 201.344 39.365 203.574 41.727 203.621 39.84 205.052 40.526 207.309 38.586 205.963"/>
          <polygon class="cls-5" points="49.342 212.826 47.402 214.172 48.088 211.915 46.201 210.483 48.563 210.437 49.342 208.207 50.121 210.437 52.483 210.483 50.596 211.915 51.282 214.172 49.342 212.826"/>
          <polygon class="cls-5" points="31.459 205.963 29.519 207.309 30.206 205.052 28.319 203.621 30.681 203.574 31.459 201.344 32.238 203.574 34.6 203.621 32.713 205.052 33.399 207.309 31.459 205.963"/>
          <polygon class="cls-5" points="35.089 212.826 33.149 214.172 33.835 211.915 31.948 210.483 34.31 210.437 35.089 208.207 35.868 210.437 38.23 210.483 36.343 211.915 37.029 214.172 35.089 212.826"/>
          <polygon class="cls-5" points="42.215 212.826 40.275 214.172 40.962 211.915 39.074 210.483 41.437 210.437 42.215 208.207 42.994 210.437 45.357 210.483 43.469 211.915 44.156 214.172 42.215 212.826"/>
          <polygon class="cls-5" points="49.342 219.292 47.402 220.639 48.088 218.382 46.201 216.95 48.563 216.904 49.342 214.673 50.121 216.904 52.483 216.95 50.596 218.382 51.282 220.639 49.342 219.292"/>
          <polygon class="cls-5" points="35.089 219.292 33.149 220.639 33.835 218.382 31.948 216.95 34.31 216.904 35.089 214.673 35.868 216.904 38.23 216.95 36.343 218.382 37.029 220.639 35.089 219.292"/>
          <polygon class="cls-5" points="42.215 219.292 40.275 220.639 40.962 218.382 39.074 216.95 41.437 216.904 42.215 214.673 42.994 216.904 45.357 216.95 43.469 218.382 44.156 220.639 42.215 219.292"/>
        </g>
      </g>
    </g>
    <path class="cls-7" d="M29.23369,188.3974h81.0374a5.4374,5.4374,0,0,1,5.4374,5.4374v28.8096a5.4377,5.4377,0,0,1-5.4377,5.4377H29.234a5.4377,5.4377,0,0,1-5.4377-5.4377V193.8348A5.4374,5.4374,0,0,1,29.23369,188.3974Z"/>
    <path class="cls-2" d="M129.729,188.3974h81.0371a5.4377,5.4377,0,0,1,5.4377,5.4377v28.8093a5.4377,5.4377,0,0,1-5.4377,5.4377h-81.0368a5.4377,5.4377,0,0,1-5.4377-5.4377V193.8348A5.4374,5.4374,0,0,1,129.729,188.3974Z"/>
    <g class="cls-23">
      <g>
        <rect class="cls-11" x="124.29159" y="188.4895" width="39.5923" height="39.5926"/>
        <g>
          <g>
            <g>
              <path class="cls-5" d="M137.89159,214.3106l-3.8338-3.8339,13.2304-13.2304,5.2064-1.3726-1.3725,5.2064-13.2305,13.2305Zm-2.336-3.8339,2.3426,2.3425,12.2867-12.287.8382-3.1805-3.1807.8379Z"/>
              <path class="cls-5" d="M140.61689,215.4654s-3.6032-2.5736-4.3223-3.2927c-.7192-.7195-3.2927-4.3223-3.2927-4.3223l-1.5375,1.7552,3.7811,3.6227,3.6227,3.7811Z"/>
              <rect class="cls-6" x="130.33768" y="213.8658" width="5.74761" height="2.69234" transform="translate(-113.16263 157.23535) rotate(-45.0015)"/>
              <path class="cls-5" d="M132.08459,218.1047a1.8543,1.8543,0,1,0-1.8544,1.8544A1.85781,1.85781,0,0,0,132.08459,218.1047Z"/>
            </g>
            <path class="cls-5" d="M135.76029,213.0633a.40255.40255,0,0,1-.2838-.6863l8.7432-8.7431a.40128.40128,0,0,1,.5675.5675l-8.75,8.7431A.37865.37865,0,0,1,135.76029,213.0633Z"/>
          </g>
          <g>
            <g>
              <polygon class="cls-5" points="140.722 204.749 137.053 201.08 135.681 195.874 140.887 197.246 144.424 200.783 143.679 201.529 140.34 198.196 137.159 197.352 137.997 200.532 141.468 204.003 140.722 204.749"/>
              <polygon class="cls-5" points="150.284 214.311 143.685 207.712 144.431 206.966 150.284 212.819 152.62 210.477 146.806 204.657 147.552 203.911 154.118 210.477 150.284 214.311"/>
              <path class="cls-5" d="M147.55859,215.4654s3.6031-2.5736,4.3223-3.2927c.7191-.7195,3.2927-4.3223,3.2927-4.3223l1.544,1.7487-3.7876,3.6292-3.6227,3.7811Z"/>
              <rect class="cls-6" x="153.61896" y="212.33356" width="2.69231" height="5.74743" transform="translate(-106.78517 172.60276) rotate(-44.9985)"/>
              <path class="cls-5" d="M159.79949,218.1047a1.8543,1.8543,0,1,0-1.8544,1.8544A1.85781,1.85781,0,0,0,159.79949,218.1047Z"/>
            </g>
            <path class="cls-5" d="M152.41549,213.0633a.39421.39421,0,0,1-.2837-.1188l-6.7111-6.711a.40118.40118,0,0,1,.5675-.5672l6.7111,6.7107a.39879.39879,0,0,1,0,.5675A.39422.39422,0,0,1,152.41549,213.0633Z"/>
          </g>
        </g>
      </g>
    </g>
    <path class="cls-7" d="M129.729,188.3974h81.0371a5.4377,5.4377,0,0,1,5.4377,5.4377v28.8093a5.4377,5.4377,0,0,1-5.4377,5.4377h-81.0368a5.4377,5.4377,0,0,1-5.4377-5.4377V193.8348A5.4374,5.4374,0,0,1,129.729,188.3974Z"/>
    <g>
      <circle class="cls-24" cx="95.04059" cy="31.7602" r="10.68535"/>
      <path class="cls-5" d="M101.08939,32.2376l.0105-.0114.0017-.0017.0094-.0107.0022-.0026.0114-.0133.0108-.0139.0104-.0139.0102-.0139.0097-.0144.0093-.0145.0046-.0076.0042-.0071.0043-.0074.0042-.0077.004-.007.0042-.0077.0037-.0071.004-.0082.0034-.0068.004-.0085.0031-.0065.004-.0091.0028-.0065.0037-.0091.0028-.0065.0034-.0091.0026-.0068.0031-.0091.0102-.032.0023-.0074.0022-.0085.0006-.0017.0003-.0014.0005-.0014.0003-.0014.0003-.0017.0006-.0014.0003-.0015.0002-.0017.0006-.0014.0003-.0014.0003-.0014.0003-.0003.0002-.0014.0003-.0014.0003-.0014.0009-.0032.0002-.0017.0003-.0014.0003-.0017.0003-.0014.0006-.0014V31.909l.0002-.0005.0003-.0017.0003-.0014.0003-.0015.0003-.0017.0005-.0014.0003-.0014.0003-.0017.0003-.0014.0003-.0017.0003-.0014v-.0006l.0002-.0011.0003-.0015.0003-.0017.0003-.0014.0003-.0017.0003-.0014.0002-.0017.0003-.0014.0003-.0017.0003-.0014.0003-.0014v-.0003l.0003-.0014V31.873l.0005-.0017.0009-.0062.0003-.0014.0002-.0031v-.0009l.0006-.0023.0003-.0017.0006-.0045.0002-.0017.0003-.0031.0003-.0014.0003-.0017.0014-.0122.0003-.0043.0011-.0167.0012-.0142v-.0025l.0008-.025V31.752l-.0008-.0249v-.0026l-.0012-.0142-.0011-.0167-.0003-.0042-.0014-.0122-.0003-.0017-.0003-.0015-.0003-.0031-.0002-.0017-.0006-.0045-.0003-.0017-.0006-.0023v-.0008l-.0014-.0108-.0003-.0017-.0002-.0014-.0003-.0014v-.0003l-.0003-.0014-.0003-.0015-.0003-.0017-.0003-.0014-.0002-.0017v-.0014l-.0006-.0017-.0003-.0014-.0003-.0017V31.629l-.0005-.0012v-.0005l-.0003-.0014-.0003-.0015-.0003-.0017-.0003-.0014-.0031-.0136-.0003-.0017-.0003-.0014-.0002-.0017-.0015-.006-.0002-.0014-.0003-.0003-.0003-.0011-.0009-.0031-.0002-.0017-.0009-.0028-.0003-.0015-.0003-.0017-.0005-.0014-.0003-.0014-.0006-.0017-.0022-.0085-.0023-.0074-.0102-.032-.0031-.0091-.0026-.0068-.0034-.009-.0028-.0066-.0037-.009-.0028-.0066-.004-.009-.0031-.0065-.004-.0086-.0034-.0068-.004-.0082-.0037-.0071-.0042-.0076-.004-.0071-.0042-.0077-.0043-.0073-.0042-.0071-.0046-.0077-.0093-.0144-.0097-.0145-.0102-.0139-.0104-.0139-.0108-.0138-.0114-.0134-.0022-.0025-.0094-.0108-.0017-.0017-.0105-.0113-.0124-.0128-4.3144-4.3143a.69311.69311,0,0,0-.9802.9802l3.1309,3.1309h-9.4196a.69335.69335,0,0,0,0,1.3867h9.4196l-3.1309,3.1308a.69314.69314,0,0,0,.9802.9803l4.3144-4.3144Z"/>
    </g>
    <g>
      <circle class="cls-24" cx="192.96029" cy="31.7602" r="10.68535"/>
      <path class="cls-5" d="M199.00939,32.2376l.0105-.0114.0017-.0017.0094-.0107.0022-.0026.0114-.0133.0108-.0139.0104-.0139.0102-.0139.0097-.0144.0093-.0145.0046-.0076.0042-.0071.0043-.0074.0042-.0077.004-.007.0042-.0077.0037-.0071.004-.0082.0034-.0068.004-.0085.0031-.0065.004-.0091.0028-.0065.0037-.0091.0028-.0065.0034-.0091.0026-.0068.0031-.0091.0102-.032.0023-.0074.0022-.0085.0006-.0017.0003-.0014.0005-.0014.0003-.0014.0003-.0017.0006-.0014.0003-.0015.0002-.0017.0006-.0014.0003-.0014.0003-.0014.0003-.0003.0002-.0014.0003-.0014.0003-.0014.0009-.0032.0002-.0017.0003-.0014.0003-.0017.0003-.0014.0006-.0014V31.909l.0002-.0005.0003-.0017.0003-.0014.0003-.0015.0003-.0017.0005-.0014.0003-.0014.0003-.0017.0003-.0014.0003-.0017.0003-.0014v-.0006l.0002-.0011.0003-.0015.0003-.0017.0003-.0014.0003-.0017.0003-.0014.0002-.0017.0003-.0014.0003-.0017.0003-.0014.0003-.0014v-.0003l.0003-.0014V31.873l.0005-.0017.0009-.0062.0003-.0014.0002-.0031v-.0009l.0006-.0023.0003-.0017.0006-.0045.0002-.0017.0003-.0031.0003-.0014.0003-.0017.0014-.0122.0003-.0043.0011-.0167.0012-.0142v-.0025l.0008-.025V31.752l-.0008-.0249v-.0026l-.0012-.0142-.0011-.0167-.0003-.0042-.0014-.0122-.0003-.0017-.0003-.0015-.0003-.0031-.0002-.0017-.0006-.0045-.0003-.0017-.0006-.0023v-.0008l-.0014-.0108-.0003-.0017-.0002-.0014-.0003-.0014v-.0003l-.0003-.0014-.0003-.0015-.0003-.0017-.0003-.0014-.0002-.0017v-.0014l-.0006-.0017-.0003-.0014-.0003-.0017V31.629l-.0005-.0012v-.0005l-.0003-.0014-.0003-.0015-.0003-.0017-.0003-.0014-.0031-.0136-.0003-.0017-.0003-.0014-.0002-.0017-.0015-.006-.0002-.0014-.0003-.0003-.0003-.0011-.0009-.0031-.0002-.0017-.0009-.0028-.0003-.0015-.0003-.0017-.0005-.0014-.0003-.0014-.0006-.0017-.0022-.0085-.0023-.0074-.0102-.032-.0031-.0091-.0026-.0068-.0034-.009-.0028-.0066-.0037-.009-.0028-.0066-.004-.009-.0031-.0065-.004-.0086-.0034-.0068-.004-.0082-.0037-.0071-.0042-.0076-.004-.0071-.0042-.0077-.0043-.0073-.0042-.0071-.0046-.0077-.0093-.0144-.0097-.0145-.0102-.0139-.0104-.0139-.0108-.0138-.0114-.0134-.0022-.0025-.0094-.0108-.0017-.0017-.0105-.0113-.0124-.0128-4.3144-4.3143a.69311.69311,0,0,0-.9802.9802l3.1309,3.1309h-9.4196a.69335.69335,0,0,0,0,1.3867h9.4196l-3.1309,3.1308a.69314.69314,0,0,0,.9802.9803l4.3144-4.3144Z"/>
    </g>
    <g>
      <circle class="cls-24" cx="95.04059" cy="76.05352" r="10.68531"/>
      <path class="cls-5" d="M101.08939,76.5309l.0105-.0113.0017-.0017.0094-.0108.0022-.0026.0114-.0133.0108-.0139.0104-.0139.0102-.0139.0097-.0144.0093-.0145.0046-.0076.0042-.0071.0043-.0074.0042-.0076.004-.0071.0042-.0077.0037-.0071.004-.0082.0034-.0068.004-.0085.0031-.0065.004-.0091.0028-.0065.0037-.0091.0028-.0065.0034-.0091.0026-.0068.0031-.009.0102-.0321.0023-.0073.0022-.0085.0006-.0017.0003-.0015.0005-.0014.0003-.0014.0003-.0017.0006-.0014.0003-.0014.0002-.0017.0006-.0014.0003-.0015.0003-.0014.0003-.0003.0002-.0014.0003-.0014.0003-.0014.0009-.0031.0002-.0017.0003-.0015.0003-.0017.0003-.0014.0006-.0014v-.0008l.0002-.0006.0003-.0017.0003-.0014.0003-.0014.0003-.0017.0005-.0015.0003-.0014.0003-.0017.0003-.0014.0003-.0017.0003-.0014v-.0006l.0002-.0011.0003-.0014.0003-.0017.0003-.0014.0003-.0017.0003-.0015.0002-.0017.0003-.0014.0003-.0017.0003-.0014.0003-.0014v-.0003l.0003-.0014v-.0014l.0005-.0017.0009-.0063.0003-.0014.0002-.0031V76.153l.0006-.0022.0003-.0017.0006-.0046.0002-.0017.0003-.0031.0003-.0014.0003-.0017.0014-.0122.0003-.0042.0011-.0168.0012-.0141v-.0026l.0008-.0249v-.0165l-.0008-.0249v-.0026l-.0012-.0141-.0011-.0168-.0003-.0042-.0014-.0122-.0003-.0017-.0003-.0014-.0003-.0031-.0002-.0017-.0006-.0046-.0003-.0017-.0006-.0023v-.0008l-.0014-.0108-.0003-.0017-.0002-.0014-.0003-.0014v-.0003l-.0003-.0014-.0003-.0014-.0003-.0017-.0003-.0014-.0002-.0017v-.0015l-.0006-.0017-.0003-.0014-.0003-.0017v-.0014l-.0005-.0011v-.0006l-.0003-.0014-.0003-.0014-.0003-.0017-.0003-.0015-.0031-.0136-.0003-.0017-.0003-.0014-.0002-.0017-.0015-.0059-.0002-.0014-.0003-.0003-.0003-.0012-.0009-.0031-.0002-.0017-.0009-.0028-.0003-.0014-.0003-.0017-.0005-.0015-.0003-.0014-.0006-.0017-.0022-.0085-.0023-.0073-.0102-.0321-.0031-.0091-.0026-.0068-.0034-.009-.0028-.0065-.0037-.0091-.0028-.0065-.004-.0091-.0031-.0065-.004-.0085-.0034-.0068-.004-.0083-.0037-.007-.0042-.0077-.004-.0071-.0042-.0076-.0043-.0074-.0042-.0071-.0046-.0076-.0093-.0145-.0097-.0145-.0102-.0138-.0104-.0139-.0108-.0139-.0114-.0133L101.111,75.6l-.0094-.0108-.0017-.0017-.0105-.0113-.0124-.0128-4.3144-4.3143a.69311.69311,0,0,0-.9802.9802l3.1309,3.1309h-9.4196a.69335.69335,0,0,0,0,1.3867h9.4196l-3.1309,3.1309a.69311.69311,0,0,0,.9802.9802l4.3144-4.3143Z"/>
    </g>
    <g>
      <circle class="cls-24" cx="192.96029" cy="76.05352" r="10.68531"/>
      <path class="cls-5" d="M199.00939,76.5309l.0105-.0113.0017-.0017.0094-.0108.0022-.0026.0114-.0133.0108-.0139.0104-.0139.0102-.0139.0097-.0144.0093-.0145.0046-.0076.0042-.0071.0043-.0074.0042-.0076.004-.0071.0042-.0077.0037-.0071.004-.0082.0034-.0068.004-.0085.0031-.0065.004-.0091.0028-.0065.0037-.0091.0028-.0065.0034-.0091.0026-.0068.0031-.009.0102-.0321.0023-.0073.0022-.0085.0006-.0017.0003-.0015.0005-.0014.0003-.0014.0003-.0017.0006-.0014.0003-.0014.0002-.0017.0006-.0014.0003-.0015.0003-.0014.0003-.0003.0002-.0014.0003-.0014.0003-.0014.0009-.0031.0002-.0017.0003-.0015.0003-.0017.0003-.0014.0006-.0014v-.0008l.0002-.0006.0003-.0017.0003-.0014.0003-.0014.0003-.0017.0005-.0015.0003-.0014.0003-.0017.0003-.0014.0003-.0017.0003-.0014v-.0006l.0002-.0011.0003-.0014.0003-.0017.0003-.0014.0003-.0017.0003-.0015.0002-.0017.0003-.0014.0003-.0017.0003-.0014.0003-.0014v-.0003l.0003-.0014v-.0014l.0005-.0017.0009-.0063.0003-.0014.0002-.0031V76.153l.0006-.0022.0003-.0017.0006-.0046.0002-.0017.0003-.0031.0003-.0014.0003-.0017.0014-.0122.0003-.0042.0011-.0168.0012-.0141v-.0026l.0008-.0249v-.0165l-.0008-.0249v-.0026l-.0012-.0141-.0011-.0168-.0003-.0042-.0014-.0122-.0003-.0017-.0003-.0014-.0003-.0031-.0002-.0017-.0006-.0046-.0003-.0017-.0006-.0023v-.0008l-.0014-.0108-.0003-.0017-.0002-.0014-.0003-.0014v-.0003l-.0003-.0014-.0003-.0014-.0003-.0017-.0003-.0014-.0002-.0017v-.0015l-.0006-.0017-.0003-.0014-.0003-.0017v-.0014l-.0005-.0011v-.0006l-.0003-.0014-.0003-.0014-.0003-.0017-.0003-.0015-.0031-.0136-.0003-.0017-.0003-.0014-.0002-.0017-.0015-.0059-.0002-.0014-.0003-.0003-.0003-.0012-.0009-.0031-.0002-.0017-.0009-.0028-.0003-.0014-.0003-.0017-.0005-.0015-.0003-.0014-.0006-.0017-.0022-.0085-.0023-.0073-.0102-.0321-.0031-.0091-.0026-.0068-.0034-.009-.0028-.0065-.0037-.0091-.0028-.0065-.004-.0091-.0031-.0065-.004-.0085-.0034-.0068-.004-.0083-.0037-.007-.0042-.0077-.004-.0071-.0042-.0076-.0043-.0074-.0042-.0071-.0046-.0076-.0093-.0145-.0097-.0145-.0102-.0138-.0104-.0139-.0108-.0139-.0114-.0133L199.031,75.6l-.0094-.0108-.0017-.0017-.0105-.0113-.0124-.0128-4.3144-4.3143a.69311.69311,0,0,0-.9802.9802l3.1309,3.1309h-9.4196a.69335.69335,0,0,0,0,1.3867h9.4196l-3.1309,3.1309a.69311.69311,0,0,0,.9802.9802l4.3144-4.3143Z"/>
    </g>
    <g>
      <path class="cls-25" d="M95.04059,130.4719a10.6853,10.6853,0,1,0-10.6852-10.6852A10.70591,10.70591,0,0,0,95.04059,130.4719Z"/>
      <path class="cls-5" d="M101.08939,120.2641l.0105-.0113.0017-.0017.0094-.0108.0022-.0026.0114-.0133.0108-.0139.0104-.0139.0102-.0139.0097-.0144.0093-.0145.0046-.0076.0042-.0071.0043-.0074.0042-.0076.004-.0071.0042-.0077.0037-.0071.004-.0082.0034-.0068.004-.0085.0031-.0065.004-.0091.0028-.0065.0037-.0091.0028-.0065.0034-.0091.0026-.0068.0031-.009.0102-.0321.0023-.0073.0022-.0085.0006-.0017.0003-.0015.0005-.0014.0003-.0014.0003-.0017.0006-.0014.0003-.0014.0002-.0017.0006-.0014.0003-.0015.0003-.0014.0003-.0003.0002-.0014.0003-.0014.0003-.0014.0009-.0031.0002-.0017.0003-.0015.0003-.0017.0003-.0014.0006-.0014v-.0008l.0002-.0006.0003-.0017.0003-.0014.0003-.0014.0003-.0017.0005-.0015.0003-.0014.0003-.0017.0003-.0014.0003-.0017.0003-.0014v-.0006l.0002-.0011.0003-.0014.0003-.0017.0003-.0015.0003-.0017.0003-.0014.0002-.0017.0003-.0014.0003-.0017.0003-.0014.0003-.0014v-.0003l.0003-.0014v-.0014l.0005-.0017.0009-.0063.0003-.0014.0002-.0031v-.0009l.0006-.0022.0003-.0017.0006-.0046.0002-.0017.0003-.0031.0003-.0014.0003-.0017.0014-.0122.0003-.0042.0011-.0168.0012-.0141v-.0026l.0008-.0249v-.0165l-.0008-.0249v-.0026l-.0012-.0141-.0011-.0168-.0003-.0042-.0014-.0122-.0003-.0017-.0003-.0014-.0003-.0032-.0002-.0017-.0006-.0045-.0003-.0017-.0006-.0023v-.0008l-.0014-.0108-.0003-.0017-.0002-.0014-.0003-.0014v-.0003l-.0003-.0014-.0003-.0014-.0003-.0017-.0003-.0014-.0002-.0018v-.0014l-.0006-.0017-.0003-.0014-.0003-.0017v-.0014l-.0005-.0011v-.0006l-.0003-.0014-.0003-.0014-.0003-.0017-.0003-.0015-.0031-.0136-.0003-.0017-.0003-.0014-.0002-.0017-.0015-.0059-.0002-.0015-.0003-.0002-.0003-.0012-.0009-.0031-.0002-.0017-.0009-.0028-.0003-.0014-.0003-.0017-.0005-.0015-.0003-.0014-.0006-.0017-.0022-.0085-.0023-.0074-.0102-.032-.0031-.0091-.0026-.0068-.0034-.009-.0028-.0065-.0037-.0091-.0028-.0065-.004-.0091-.0031-.0065-.004-.0085-.0034-.0068-.004-.0083-.0037-.007-.0042-.0077-.004-.0071-.0042-.0076-.0043-.0074-.0042-.0071-.0046-.0076-.0093-.0145-.0097-.0145-.0102-.0138-.0104-.0139-.0108-.0139-.0114-.0134-.0022-.0025-.0094-.0108-.0017-.0017-.0105-.0113-.0124-.0128-4.3144-4.3143a.69311.69311,0,1,0-.9802.9802l3.1309,3.1309h-9.4196a.69335.69335,0,0,0,0,1.3867h9.4196l-3.1309,3.1309a.69311.69311,0,0,0,.9802.9802l4.3144-4.3143Z"/>
    </g>
    <g>
      <path class="cls-25" d="M192.96029,130.4719a10.6853,10.6853,0,1,0-10.6852-10.6852A10.70591,10.70591,0,0,0,192.96029,130.4719Z"/>
      <path class="cls-5" d="M199.00939,120.2641l.0105-.0113.0017-.0017.0094-.0108.0022-.0026.0114-.0133.0108-.0139.0104-.0139.0102-.0139.0097-.0144.0093-.0145.0046-.0076.0042-.0071.0043-.0074.0042-.0076.004-.0071.0042-.0077.0037-.0071.004-.0082.0034-.0068.004-.0085.0031-.0065.004-.0091.0028-.0065.0037-.0091.0028-.0065.0034-.0091.0026-.0068.0031-.009.0102-.0321.0023-.0073.0022-.0085.0006-.0017.0003-.0015.0005-.0014.0003-.0014.0003-.0017.0006-.0014.0003-.0014.0002-.0017.0006-.0014.0003-.0015.0003-.0014.0003-.0003.0002-.0014.0003-.0014.0003-.0014.0009-.0031.0002-.0017.0003-.0015.0003-.0017.0003-.0014.0006-.0014v-.0008l.0002-.0006.0003-.0017.0003-.0014.0003-.0014.0003-.0017.0005-.0015.0003-.0014.0003-.0017.0003-.0014.0003-.0017.0003-.0014v-.0006l.0002-.0011.0003-.0014.0003-.0017.0003-.0015.0003-.0017.0003-.0014.0002-.0017.0003-.0014.0003-.0017.0003-.0014.0003-.0014v-.0003l.0003-.0014v-.0014l.0005-.0017.0009-.0063.0003-.0014.0002-.0031v-.0009l.0006-.0022.0003-.0017.0006-.0046.0002-.0017.0003-.0031.0003-.0014.0003-.0017.0014-.0122.0003-.0042.0011-.0168.0012-.0141v-.0026l.0008-.0249v-.0165l-.0008-.0249v-.0026l-.0012-.0141-.0011-.0168-.0003-.0042-.0014-.0122-.0003-.0017-.0003-.0014-.0003-.0032-.0002-.0017-.0006-.0045-.0003-.0017-.0006-.0023v-.0008l-.0014-.0108-.0003-.0017-.0002-.0014-.0003-.0014v-.0003l-.0003-.0014-.0003-.0014-.0003-.0017-.0003-.0014-.0002-.0018v-.0014l-.0006-.0017-.0003-.0014-.0003-.0017v-.0014l-.0005-.0011v-.0006l-.0003-.0014-.0003-.0014-.0003-.0017-.0003-.0015-.0031-.0136-.0003-.0017-.0003-.0014-.0002-.0017-.0015-.0059-.0002-.0015-.0003-.0002-.0003-.0012-.0009-.0031-.0002-.0017-.0009-.0028-.0003-.0014-.0003-.0017-.0005-.0015-.0003-.0014-.0006-.0017-.0022-.0085-.0023-.0074-.0102-.032-.0031-.0091-.0026-.0068-.0034-.009-.0028-.0065-.0037-.0091-.0028-.0065-.004-.0091-.0031-.0065-.004-.0085-.0034-.0068-.004-.0083-.0037-.007-.0042-.0077-.004-.0071-.0042-.0076-.0043-.0074-.0042-.0071-.0046-.0076-.0093-.0145-.0097-.0145-.0102-.0138-.0104-.0139-.0108-.0139-.0114-.0134-.0022-.0025-.0094-.0108-.0017-.0017-.0105-.0113-.0124-.0128-4.3144-4.3143a.69311.69311,0,0,0-.9802.9802l3.1309,3.1309h-9.4196a.69335.69335,0,0,0,0,1.3867h9.4196l-3.1309,3.1309a.69311.69311,0,0,0,.9802.9802l4.3144-4.3143Z"/>
    </g>
    <g>
      <circle class="cls-24" cx="95.04059" cy="164.0798" r="10.68535"/>
      <path class="cls-5" d="M101.08939,164.5574l.0105-.0113.0017-.0017.0094-.0108.0022-.0025.0114-.0134.0108-.0139.0104-.0138.0102-.0139.0097-.0145.0093-.0145.0046-.0076.0042-.0071.0043-.0074.0042-.0076.004-.0071.0042-.0077.0037-.007.004-.0083.0034-.0068.004-.0085.0031-.0065.004-.0091.0028-.0065.0037-.009.0028-.0066.0034-.009.0026-.0068.0031-.0091.0102-.032.0023-.0074.0022-.0085.0006-.0017.0003-.0014.0005-.0015.0003-.0014.0003-.0017.0006-.0014.0003-.0014.0002-.0017.0006-.0014.0003-.0014.0003-.0015.0003-.0002.0002-.0015.0003-.0014.0003-.0014.0009-.0031.0002-.0017.0003-.0014.0003-.0017.0003-.0015.0006-.0014v-.0008l.0002-.0006.0003-.0017.0003-.0014.0003-.0014.0003-.0017.0005-.0014.0003-.0015.0003-.0017.0003-.0014.0003-.0017.0003-.0014v-.0006l.0002-.0011.0003-.0014.0003-.0017.0003-.0014.0003-.0017.0003-.0014.0002-.0017.0003-.0015.0003-.0017.0003-.0014.0003-.0014v-.0003l.0003-.0014v-.0014l.0005-.0017.0009-.0063.0003-.0014.0002-.0031v-.0008l.0006-.0023.0003-.0017.0006-.0045.0002-.0017.0003-.0032.0003-.0014.0003-.0017.0014-.0122.0003-.0042.0011-.0167.0012-.0142v-.0026l.0008-.0249v-.0165l-.0008-.0249v-.0026l-.0012-.0141-.0011-.0168-.0003-.0042-.0014-.0122-.0003-.0017-.0003-.0014-.0003-.0031-.0002-.0017-.0006-.0046-.0003-.0017-.0006-.0022v-.0009l-.0014-.0108-.0003-.0017-.0002-.0014-.0003-.0014v-.0003l-.0003-.0014-.0003-.0014-.0003-.0017-.0003-.0014-.0002-.0017v-.0014l-.0006-.0017-.0003-.0015-.0003-.0017v-.0014l-.0005-.0011v-.0006l-.0003-.0014-.0003-.0014-.0003-.0017-.0003-.0014-.0031-.0136-.0003-.0017-.0003-.0015-.0002-.0017-.0015-.0059-.0002-.0014-.0003-.0003-.0003-.0011-.0009-.0032-.0002-.0017-.0009-.0028-.0003-.0014-.0003-.0017-.0005-.0014-.0003-.0015-.0006-.0017-.0022-.0085-.0023-.0073-.0102-.0321-.0031-.009-.0026-.0068-.0034-.0091-.0028-.0065-.0037-.0091-.0028-.0065-.004-.0091-.0031-.0065-.004-.0085-.0034-.0068-.004-.0082-.0037-.0071-.0042-.0077-.004-.0071-.0042-.0076-.0043-.0074-.0042-.0071-.0046-.0076-.0093-.0145-.0097-.0144-.0102-.0139-.0104-.0139-.0108-.0139-.0114-.0133-.0022-.0026-.0094-.0108-.0017-.0017-.0105-.0113-.0124-.0127-4.3144-4.3144a.69311.69311,0,1,0-.9802.9802l3.1309,3.1309h-9.4196a.69335.69335,0,0,0,0,1.3867h9.4196l-3.1309,3.1309a.69311.69311,0,1,0,.9802.9802l4.3144-4.3143Z"/>
    </g>
    <g>
      <circle class="cls-24" cx="192.96029" cy="164.0798" r="10.68535"/>
      <path class="cls-5" d="M199.00939,164.5574l.0105-.0113.0017-.0017.0094-.0108.0022-.0025.0114-.0134.0108-.0139.0104-.0138.0102-.0139.0097-.0145.0093-.0145.0046-.0076.0042-.0071.0043-.0074.0042-.0076.004-.0071.0042-.0077.0037-.007.004-.0083.0034-.0068.004-.0085.0031-.0065.004-.0091.0028-.0065.0037-.009.0028-.0066.0034-.009.0026-.0068.0031-.0091.0102-.032.0023-.0074.0022-.0085.0006-.0017.0003-.0014.0005-.0015.0003-.0014.0003-.0017.0006-.0014.0003-.0014.0002-.0017.0006-.0014.0003-.0014.0003-.0015.0003-.0002.0002-.0015.0003-.0014.0003-.0014.0009-.0031.0002-.0017.0003-.0014.0003-.0017.0003-.0015.0006-.0014v-.0008l.0002-.0006.0003-.0017.0003-.0014.0003-.0014.0003-.0017.0005-.0014.0003-.0015.0003-.0017.0003-.0014.0003-.0017.0003-.0014v-.0006l.0002-.0011.0003-.0014.0003-.0017.0003-.0014.0003-.0017.0003-.0014.0002-.0017.0003-.0015.0003-.0017.0003-.0014.0003-.0014v-.0003l.0003-.0014v-.0014l.0005-.0017.0009-.0063.0003-.0014.0002-.0031v-.0008l.0006-.0023.0003-.0017.0006-.0045.0002-.0017.0003-.0032.0003-.0014.0003-.0017.0014-.0122.0003-.0042.0011-.0167.0012-.0142v-.0026l.0008-.0249v-.0165l-.0008-.0249v-.0026l-.0012-.0141-.0011-.0168-.0003-.0042-.0014-.0122-.0003-.0017-.0003-.0014-.0003-.0031-.0002-.0017-.0006-.0046-.0003-.0017-.0006-.0022v-.0009l-.0014-.0108-.0003-.0017-.0002-.0014-.0003-.0014v-.0003l-.0003-.0014-.0003-.0014-.0003-.0017-.0003-.0014-.0002-.0017v-.0014l-.0006-.0017-.0003-.0015-.0003-.0017v-.0014l-.0005-.0011v-.0006l-.0003-.0014-.0003-.0014-.0003-.0017-.0003-.0014-.0031-.0136-.0003-.0017-.0003-.0015-.0002-.0017-.0015-.0059-.0002-.0014-.0003-.0003-.0003-.0011-.0009-.0032-.0002-.0017-.0009-.0028-.0003-.0014-.0003-.0017-.0005-.0014-.0003-.0015-.0006-.0017-.0022-.0085-.0023-.0073-.0102-.0321-.0031-.009-.0026-.0068-.0034-.0091-.0028-.0065-.0037-.0091-.0028-.0065-.004-.0091-.0031-.0065-.004-.0085-.0034-.0068-.004-.0082-.0037-.0071-.0042-.0077-.004-.0071-.0042-.0076-.0043-.0074-.0042-.0071-.0046-.0076-.0093-.0145-.0097-.0144-.0102-.0139-.0104-.0139-.0108-.0139-.0114-.0133-.0022-.0026-.0094-.0108-.0017-.0017-.0105-.0113-.0124-.0127-4.3144-4.3144a.69311.69311,0,0,0-.9802.9802l3.1309,3.1309h-9.4196a.69335.69335,0,0,0,0,1.3867h9.4196l-3.1309,3.1309a.69311.69311,0,0,0,.9802.9802l4.3144-4.3143Z"/>
    </g>
    <g>
      <circle class="cls-24" cx="95.04059" cy="207.81327" r="10.68534"/>
      <path class="cls-5" d="M101.08939,208.2909l.0105-.0113.0017-.0017.0094-.0108.0022-.0026.0114-.0133.0108-.0139.0104-.0139.0102-.0139.0097-.0144.0093-.0145.0046-.0076.0042-.0071.0043-.0074.0042-.0076.004-.0071.0042-.0077.0037-.0071.004-.0082.0034-.0068.004-.0085.0031-.0065.004-.0091.0028-.0065.0037-.0091.0028-.0065.0034-.0091.0026-.0068.0031-.009.0102-.0321.0023-.0073.0022-.0085.0006-.0017.0003-.0015.0005-.0014.0003-.0014.0003-.0017.0006-.0014.0003-.0014.0002-.0017.0006-.0014.0003-.0015.0003-.0014.0003-.0003.0002-.0014.0003-.0014.0003-.0014.0009-.0031.0002-.0017.0003-.0015.0003-.0017.0003-.0014.0006-.0014v-.0008l.0002-.0006.0003-.0017.0003-.0014.0003-.0014.0003-.0017.0005-.0015.0003-.0014.0003-.0017.0003-.0014.0003-.0017.0003-.0014v-.0006l.0002-.0011.0003-.0014.0003-.0017.0003-.0014.0003-.0017.0003-.0015.0002-.0017.0003-.0014.0003-.0017.0003-.0014.0003-.0014v-.0003l.0003-.0014v-.0014l.0005-.0017.0009-.0063.0003-.0014.0002-.0031v-.0009l.0006-.0022.0003-.0017.0006-.0046.0002-.0017.0003-.0031.0003-.0014.0003-.0017.0014-.0122.0003-.0042.0011-.0168.0012-.0141v-.0026l.0008-.0249v-.0165l-.0008-.0249v-.0026l-.0012-.0141-.0011-.0168-.0003-.0042-.0014-.0122-.0003-.0017-.0003-.0014-.0003-.0031-.0002-.0017-.0006-.0046-.0003-.0017-.0006-.0023v-.0008l-.0014-.0108-.0003-.0017-.0002-.0014-.0003-.0014v-.0003l-.0003-.0014-.0003-.0014-.0003-.0017-.0003-.0014-.0002-.0017v-.0015l-.0006-.0017-.0003-.0014-.0003-.0017v-.0014l-.0005-.0011v-.0006l-.0003-.0014-.0003-.0014-.0003-.0017-.0003-.0015-.0031-.0136-.0003-.0017-.0003-.0014-.0002-.0017-.0015-.0059-.0002-.0014-.0003-.0003-.0003-.0012-.0009-.0031-.0002-.0017-.0009-.0028-.0003-.0014-.0003-.0017-.0005-.0015-.0003-.0014-.0006-.0017-.0022-.0085-.0023-.0073-.0102-.0321-.0031-.0091-.0026-.0068-.0034-.009-.0028-.0065-.0037-.0091-.0028-.0065-.004-.0091-.0031-.0065-.004-.0085-.0034-.0068-.004-.0083-.0037-.007-.0042-.0077-.004-.0071-.0042-.0076-.0043-.0074-.0042-.0071-.0046-.0076-.0093-.0145-.0097-.0145-.0102-.0138-.0104-.0139-.0108-.0139-.0114-.0133-.0022-.0026-.0094-.0108-.0017-.0017-.0105-.0113-.0124-.0128-4.3144-4.3143a.69311.69311,0,1,0-.9802.9802l3.1309,3.1309h-9.4196a.69335.69335,0,0,0,0,1.3867h9.4196l-3.1309,3.1309a.69311.69311,0,1,0,.9802.9802l4.3144-4.3143Z"/>
    </g>
    <g>
      <circle class="cls-24" cx="192.96029" cy="207.81327" r="10.68534"/>
      <path class="cls-5" d="M199.00939,208.2909l.0105-.0113.0017-.0017.0094-.0108.0022-.0026.0114-.0133.0108-.0139.0104-.0139.0102-.0139.0097-.0144.0093-.0145.0046-.0076.0042-.0071.0043-.0074.0042-.0076.004-.0071.0042-.0077.0037-.0071.004-.0082.0034-.0068.004-.0085.0031-.0065.004-.0091.0028-.0065.0037-.0091.0028-.0065.0034-.0091.0026-.0068.0031-.009.0102-.0321.0023-.0073.0022-.0085.0006-.0017.0003-.0015.0005-.0014.0003-.0014.0003-.0017.0006-.0014.0003-.0014.0002-.0017.0006-.0014.0003-.0015.0003-.0014.0003-.0003.0002-.0014.0003-.0014.0003-.0014.0009-.0031.0002-.0017.0003-.0015.0003-.0017.0003-.0014.0006-.0014v-.0008l.0002-.0006.0003-.0017.0003-.0014.0003-.0014.0003-.0017.0005-.0015.0003-.0014.0003-.0017.0003-.0014.0003-.0017.0003-.0014v-.0006l.0002-.0011.0003-.0014.0003-.0017.0003-.0014.0003-.0017.0003-.0015.0002-.0017.0003-.0014.0003-.0017.0003-.0014.0003-.0014v-.0003l.0003-.0014v-.0014l.0005-.0017.0009-.0063.0003-.0014.0002-.0031v-.0009l.0006-.0022.0003-.0017.0006-.0046.0002-.0017.0003-.0031.0003-.0014.0003-.0017.0014-.0122.0003-.0042.0011-.0168.0012-.0141v-.0026l.0008-.0249v-.0165l-.0008-.0249v-.0026l-.0012-.0141-.0011-.0168-.0003-.0042-.0014-.0122-.0003-.0017-.0003-.0014-.0003-.0031-.0002-.0017-.0006-.0046-.0003-.0017-.0006-.0023v-.0008l-.0014-.0108-.0003-.0017-.0002-.0014-.0003-.0014v-.0003l-.0003-.0014-.0003-.0014-.0003-.0017-.0003-.0014-.0002-.0017v-.0015l-.0006-.0017-.0003-.0014-.0003-.0017v-.0014l-.0005-.0011v-.0006l-.0003-.0014-.0003-.0014-.0003-.0017-.0003-.0015-.0031-.0136-.0003-.0017-.0003-.0014-.0002-.0017-.0015-.0059-.0002-.0014-.0003-.0003-.0003-.0012-.0009-.0031-.0002-.0017-.0009-.0028-.0003-.0014-.0003-.0017-.0005-.0015-.0003-.0014-.0006-.0017-.0022-.0085-.0023-.0073-.0102-.0321-.0031-.0091-.0026-.0068-.0034-.009-.0028-.0065-.0037-.0091-.0028-.0065-.004-.0091-.0031-.0065-.004-.0085-.0034-.0068-.004-.0083-.0037-.007-.0042-.0077-.004-.0071-.0042-.0076-.0043-.0074-.0042-.0071-.0046-.0076-.0093-.0145-.0097-.0145-.0102-.0138-.0104-.0139-.0108-.0139-.0114-.0133-.0022-.0026-.0094-.0108-.0017-.0017-.0105-.0113-.0124-.0128-4.3144-4.3143a.69311.69311,0,0,0-.9802.9802l3.1309,3.1309h-9.4196a.69335.69335,0,0,0,0,1.3867h9.4196l-3.1309,3.1309a.69311.69311,0,0,0,.9802.9802l4.3144-4.3143Z"/>
    </g>
  </g>
</svg>
