<svg xmlns="http://www.w3.org/2000/svg" xmlns:xlink="http://www.w3.org/1999/xlink" viewBox="0 0 240.00009 240.00009">
  <defs>
    <style>
      .cls-1, .cls-22 {
        fill: none;
      }

      .cls-2, .cls-3 {
        fill: #e9dcf2;
      }

      .cls-10, .cls-11, .cls-12, .cls-13, .cls-14, .cls-15, .cls-16, .cls-17, .cls-18, .cls-19, .cls-2, .cls-20, .cls-21, .cls-23, .cls-24, .cls-27, .cls-28, .cls-30, .cls-7, .cls-8, .cls-9 {
        fill-rule: evenodd;
      }

      .cls-4 {
        fill: #ecdafe;
        stroke: #b167f8;
      }

      .cls-22, .cls-23, .cls-29, .cls-30, .cls-31, .cls-4 {
        stroke-miterlimit: 22.9256;
      }

      .cls-23, .cls-30, .cls-4 {
        stroke-width: 0.5669px;
      }

      .cls-5 {
        fill: #00b4ab;
      }

      .cls-6 {
        clip-path: url(#clip-path);
      }

      .cls-7 {
        fill: #e0e0e1;
      }

      .cls-8 {
        fill: #fff;
      }

      .cls-9 {
        fill: #f8bea1;
      }

      .cls-10 {
        fill: #fbd4bc;
      }

      .cls-11 {
        fill: #3c3b3b;
      }

      .cls-12 {
        fill: #78c3a6;
      }

      .cls-13 {
        fill: #78c2a4;
      }

      .cls-14 {
        fill: #fefefe;
      }

      .cls-15 {
        fill: #74c1a3;
      }

      .cls-16 {
        fill: #74c1a2;
      }

      .cls-17 {
        fill: #72c0a0;
      }

      .cls-18 {
        fill: #facdb5;
      }

      .cls-19 {
        fill: #fcdcc8;
      }

      .cls-20 {
        fill: #71c0a2;
      }

      .cls-21 {
        fill: #605f60;
      }

      .cls-22, .cls-23 {
        stroke: #03827c;
      }

      .cls-22, .cls-29, .cls-31 {
        stroke-width: 0.9598px;
      }

      .cls-23, .cls-30 {
        fill: #90ffed;
      }

      .cls-24 {
        fill: #475569;
      }

      .cls-25 {
        clip-path: url(#clip-path-2);
      }

      .cls-26 {
        clip-path: url(#clip-path-3);
      }

      .cls-27 {
        fill: #cf9166;
      }

      .cls-28 {
        fill: #e3b08b;
      }

      .cls-29 {
        fill: #ddfffa;
      }

      .cls-29, .cls-30, .cls-31 {
        stroke: #1de4d3;
      }

      .cls-31 {
        fill: #d0e5f9;
      }
    </style>
    <clipPath id="clip-path">
      <path class="cls-1" d="M103.05046,15.3604h33.8998a2.9279,2.9279,0,0,1,2.9279,2.9279V61.1087a2.9276,2.9276,0,0,1-2.9276,2.9276h-33.9001a2.9279,2.9279,0,0,1-2.9279-2.9279V18.2883A2.9279,2.9279,0,0,1,103.05046,15.3604Z"/>
    </clipPath>
    <clipPath id="clip-path-2">
      <path class="cls-1" d="M79.80346,68.5647h33.8996a2.9282,2.9282,0,0,1,2.9282,2.9282v42.8204a2.9276,2.9276,0,0,1-2.9276,2.9276H79.80346a2.9279,2.9279,0,0,1-2.9279-2.9279V71.4926A2.9279,2.9279,0,0,1,79.80346,68.5647Z"/>
    </clipPath>
    <clipPath id="clip-path-3">
      <path class="cls-1" d="M126.29766,68.5647h33.8992a2.9279,2.9279,0,0,1,2.9279,2.9279v42.8207a2.9276,2.9276,0,0,1-2.9276,2.9276h-33.9001a2.9276,2.9276,0,0,1-2.9276-2.9276V71.4929A2.9282,2.9282,0,0,1,126.29766,68.5647Z"/>
    </clipPath>
  </defs>
  <g id="_1-12" data-name="1">
    <g>
      <path class="cls-2" d="M214.27706,207.5536h-9.8798V86.4026l-175.5542-.0185a7.92187,7.92187,0,0,0-7.9132,7.9127V207.5536h-9.8798V94.2968a17.813,17.813,0,0,1,17.793-17.7925h175.5366a9.90834,9.90834,0,0,1,9.8974,9.8983Z"/>
      <polygon class="cls-2" points="17.759 202.764 14.221 196.658 48.705 176.676 28.766 82.172 35.674 80.716 56.663 180.219 17.759 202.764"/>
      <polygon class="cls-2" points="207.568 202.764 168.665 180.219 189.655 80.716 196.561 82.172 176.625 176.676 211.108 196.658 207.568 202.764"/>
      <rect class="cls-3" x="52.68476" y="174.9203" width="119.9602" height="7.0566"/>
      <path class="cls-2" d="M45.42466,169.6584l-1.6912-3.2868-.2752-.4125.159-.4694,1.4352-5.1001,1.703,2.7709.1565.2041a5.08778,5.08778,0,0,0-.2191.7152l-1.2682,5.5786Zm-.4173,5.0507a8.26782,8.26782,0,0,0-.1689-3.1031l-2.1994-4.2808-.0627.231-1.6886,7.0642a8.45725,8.45725,0,0,0,.1542,3.1652l2.2023,3.5158.0323-.1211,1.7308-6.4712Zm-5.2092-1.599-1.7827-3.4566-.2858-.4271.1718-.4859,1.5815-5.3736,1.7997,2.9046.1618.2121a5.42928,5.42928,0,0,0-.2386.7424l-1.4077,5.8841Zm-.4618,5.1126a8.3548,8.3548,0,0,0-.1443-3.2103l-2.3062-4.4651-.0944.3387-1.8454,7.3248a8.56011,8.56011,0,0,0,.1321,3.2743l2.3165,3.6674.0669-.2208,1.8748-6.709Zm-5.4779-1.4723-1.8791-3.6278-.2977-.4419.1857-.5069,1.7433-5.663,1.8989,3.0393.1718.2182a5.61366,5.61366,0,0,0-.2582.7748l-1.5647,6.2073Zm-.506,5.1794a8.49248,8.49248,0,0,0-.1216-3.3227l-2.4115-4.6531-.1386.4518-2.0117,7.5986a8.68207,8.68207,0,0,0,.1049,3.3911l2.4355,3.8196.1069-.318,2.0361-6.9673Zm-5.7708-1.3337-1.9834-3.8086-.3081-.4595.2032-.5306,1.9194-5.9692,2.0066,3.1804.1741.2203a5.35131,5.35131,0,0,0-.2761.8152l-1.7357,6.552Zm-.5559,5.2563a6.73109,6.73109,0,0,0,.1267-1.8765v-.0048a5.39,5.39,0,0,0-.2191-1.5648l-2.5225-4.8466a4.9425,4.9425,0,0,0-.1905.5666l-2.1954,7.8908a7.27532,7.27532,0,0,0-.1387,1.8842l.0071.1891a5.11119,5.11119,0,0,0,.2033,1.447l2.5656,3.9782.1514-.4201,2.2121-7.2431Zm-6.0911-1.1888-2.0931-3.9977-.3203-.474.2237-.5567,2.1158-6.2972,2.12,3.3299.1817.2287a5.70612,5.70612,0,0,0-.3008.8496l-1.927,6.9174Zm-.6051,5.3407a8.66751,8.66751,0,0,0-.0627-3.5776l-2.6416-5.0431a4.6822,4.6822,0,0,0-.2455.6806l-2.4015,8.2088a8.84191,8.84191,0,0,0,.04,3.6545l2.6986,4.1419a4.22139,4.22139,0,0,0,.2012-.5272l2.4115-7.5379Zm-5.7257-14.4927,2.6365,4.0964.1661-.4218,2.3592-7.0214a8.13051,8.13051,0,0,0-.0569-3.3679l-2.5824-4.9558a4.49118,4.49118,0,0,0-.2092.5661l-2.3513,7.6626a8.32312,8.32312,0,0,0,.038,3.4418ZM14.211,157.989a7.57232,7.57232,0,0,1-.0372-3.2448l2.2992-7.1519.1789-.4643,2.5225,4.8643a7.46807,7.46807,0,0,1,.0598,3.1762L16.92,161.7109l-.1343.3279L14.211,157.989Zm-.3773-16.6901a6.98338,6.98338,0,0,1-.0352-3.0589l2.2524-6.6858.1463-.3725,2.4684,4.7826a6.8791,6.8791,0,0,1,.059,2.9943l-2.2692,6.1016-.1012.2454-2.5205-4.0067Zm-.3575-15.9166a6.58867,6.58867,0,0,1-.0374-2.8845l2.2102-6.2535.1168-.2892,2.4157,4.701a6.33513,6.33513,0,0,1,.0569,2.8236l-2.2249,5.692-.0717.1709-2.4656-3.9603Zm-.3398-15.1965a6.03458,6.03458,0,0,1-.0403-2.7204l2.1679-5.8524.0865-.2132,2.3664,4.6199a4.0677,4.0677,0,0,1,.1766,1.2529l.0022.0817a4.13129,4.13129,0,0,1-.1219,1.3308l-2.1798,5.3127-.0442.1041-2.4134-3.9161Zm-.328-14.5208a5.53252,5.53252,0,0,1-.0403-2.5699l2.1257-5.4793.0598-.1443,2.3191,4.5439a3.61736,3.61736,0,0,1,.1709,1.1705l.0028.1238a3.83432,3.83432,0,0,1-.1145,1.2206L15.192,99.4901l-.0204.0451-2.3632-3.8702Zm5.4847.2013-1.8051,4.1828-.1542.2872.2563.3906,1.8544,3.6184,1.6464-4.6602.2231-.5249-.1239-.1633-1.897-3.1306Zm.6702-4.0056,1.9695-5.3218.0224-.0604,2.2192,4.3688a3.57459,3.57459,0,0,1,.1738,1.1344l.0051.1276a3.85687,3.85687,0,0,1-.0944,1.1795L21.28026,98.07l-2.2521-3.7157a5.65226,5.65226,0,0,1-.0649-2.4936Zm5.2571,2.7955-1.6492,3.9866-.1366.2654.2435.3877,1.7654,3.4594,1.4921-4.4362.2061-.506-.119-.1584-1.8023-2.9985Zm.6304-3.9688,1.8145-5.1471,2.1257,4.1955a3.777,3.777,0,0,1,.1788,1.1058l.0049.123a3.73058,3.73058,0,0,1-.0817,1.1447l-1.8102,4.5691-2.1452-3.5677a5.56623,5.56623,0,0,1-.0868-2.4233Zm5.0057,2.8202-1.5026,3.7964-.1267.2557.2364.3765,1.6781,3.3023,1.3535-4.2179.1914-.4893-.1148-.1533-1.7153-2.8704Zm2.9648,3.9971,2.0755,4.0941a3.879,3.879,0,0,1,.1857,1.1531l.0056.0817a4.25537,4.25537,0,0,1-.0674,1.2036l-1.7034,4.7154-2.0854-3.4634a5.86742,5.86742,0,0,1-.1092-2.4874l1.6986-5.2971Zm2.8624,17.5536a4.28107,4.28107,0,0,1,.1936,1.2211l.0028.0508a4.49511,4.49511,0,0,1-.0697,1.3036l-1.7478,5.0902-2.1283-3.5025a6.36335,6.36335,0,0,1-.112-2.6246l1.7414-5.6905.0048-.0111,2.1152,4.163Zm1.1424,3.9648-1.4528,4.2364-.1338.3342.2435.3886,1.6631,3.263,1.2988-4.6735a4.118,4.118,0,0,1,.2013-.5757l-.129-.1695-1.6911-2.8035Zm2.5724,16.9877.1366.1795a4.486,4.486,0,0,0-.2092.6321l-1.3331,5.0465-1.7031-3.3242-.2633-.3963.1514-.3886,1.495-4.5839,1.7257,2.8349Zm1.2937,1.1727-1.6512,6.2408a7.15614,7.15614,0,0,0,.1415,2.8372l2.1107,3.437,1.6758-5.6591a7.01,7.01,0,0,0-.1542-2.7836l-2.1078-4.1321-.0148.0598Zm-.7475,21.4929a7.781,7.781,0,0,0,.1463,2.997l2.1552,3.4742.0127-.0403,1.7082-6.0655a7.67888,7.67888,0,0,0-.1613-2.9398l-2.1552-4.2041-.0371.1392-1.6688,6.6393Zm-2.8105-4.9213-.273-.4096.1582-.439,1.54-4.9615,1.7604,2.8655.1465.1933a4.87975,4.87975,0,0,0-.2211.6886l-1.3703,5.4499-1.7407-3.3872Zm-3.0223,8.0006a7.88286,7.88286,0,0,0,.1267,3.0934l2.2671,3.6283.0394-.1343,1.8496-6.2819a7.69028,7.69028,0,0,0-.1386-3.037l-2.2544-4.3849-.0717.2463-1.8181,6.8701Zm-2.9024-5.0457-.2804-.4224.1713-.4566,1.6962-5.226,1.8567,3.0039.1619.2089a5.149,5.149,0,0,0-.2486.7075l-1.5194,5.7424-1.8377-3.5577Zm-3.2505,8.291a8.01394,8.01394,0,0,0,.1001,3.2055l2.383,3.776.0774-.2251,2.0033-6.5106a7.85894,7.85894,0,0,0-.114-3.1414l-2.3615-4.5685-.1092.3497L27.959,165.001Zm-2.9991-5.1675-.2956-.4371.1916-.4762,1.8624-5.5049,1.9587,3.1413.1639.2084a5.09149,5.09149,0,0,0-.2631.7452l-1.6838,6.0559-1.9341-3.7326Zm-3.5058,8.6009a8.15382,8.15382,0,0,0,.0691,3.3202l2.5078,3.9356.1197-.3251,2.1719-6.7561a7.96149,7.96149,0,0,0-.0888-3.2502l-2.4681-4.7602-.1565.4569-2.1551,7.3789Zm-1.1549-12.0518,2.0707,3.287.169.216a5.31021,5.31021,0,0,0-.2858.775l-1.8666,6.3888-2.0361-3.9161-.3056-.4519.2061-.4991,2.0483-5.7997Zm-.5363-16.1739-1.9834,5.3427-.1916.4448.2908.4314,1.9882,3.8338,1.8077-5.8988a4.98719,4.98719,0,0,1,.2786-.6954l-.1669-.2132-2.0234-3.2453Zm-.5111-15.4457-1.9222,4.9218-.1785.39.2806.4187,1.9392,3.7584,1.7524-5.4518a4.1922,4.1922,0,0,1,.2534-.6427l-.1463-.1893-1.9786-3.2051Zm1.4471-11.5986-1.9361-3.168-1.8652,4.5369-.159.3407.2631.4006,1.8947,3.6867,1.6985-5.0397a4.40506,4.40506,0,0,1,.2384-.5814l-.1344-.1758Zm3.1167-6.1081-2.0242,5.148-.0099.0253-2.2987-3.7619a5.9701,5.9701,0,0,1-.0649-2.6388l2.0038-5.6743.0474-.1253,2.2668,4.4427a4.15106,4.15106,0,0,1,.1781,1.2212l.0028.0697a4.05542,4.05542,0,0,1-.1012,1.2934Zm2.8278,4.3773-1.8396-3.0322-1.6983,4.3194-.1494.3303.2535.3821,1.8045,3.5229,1.5372-4.7926a3.98021,3.98021,0,0,1,.2211-.5604l-.129-.1695Zm4.1789,3.615,1.3929-4.5552.2033-.542-.1239-.1633-1.7481-2.9004-1.5492,4.1102-.1289.307.2378.3835,1.7161,3.3602Zm2.1424,9.4933a4.3636,4.3636,0,0,1,.214-.5976l-.1315-.1732-1.783-2.9341-1.5962,4.4543-.1494.3578.2585.3906,1.7524,3.4234,1.4352-4.9212Zm1.8771,12.7675-2.1719-3.5425a4.27522,4.27522,0,0,1-.1945-1.2379l-.0019-.0402a5.23012,5.23012,0,0,1,.0796-1.4956l1.7651-6.0559.0275-.0816,2.16,4.2343a6.60445,6.60445,0,0,1,.1287,2.7205l-1.7926,5.4989Zm-1.5245,8.7213a7.2701,7.2701,0,0,0,.1168,2.9271l2.2201,3.5884.0196-.057,1.8221-5.8822a7.19841,7.19841,0,0,0-.1335-2.8757l-2.2074-4.3067-.047.1582-1.7907,6.4479Zm-2.84-4.9952,1.7949,3.4861,1.4751-5.3161.2359-.6455-.1514-.197-1.8178-2.9667-1.6464,4.822-.1613.4048.271.4124Zm-3.1961,7.7437a7.36983,7.36983,0,0,0,.0944,3.0271l2.3346,3.7367.0494-.1463,1.9712-6.0883a7.2192,7.2192,0,0,0-.1117-2.9673l-2.3088-4.4912-.0822.2605-1.9469,6.6688Zm-2.9321-5.1196-.2809-.4196.1766-.4271,1.8076-5.0749,1.9171,3.1034.1584.204a4.86006,4.86006,0,0,0-.2554.6702l-1.6364,5.599-1.887-3.655Zm-1.3261,1.1177-2.1157,6.9023a7.52527,7.52527,0,0,0,.0697,3.1315l2.4537,3.8928.0864-.2379,2.1353-6.307a7.30413,7.30413,0,0,0-.0864-3.0688l-2.4134-4.6755-.1296.3626Zm-.5561-15.5458.0995-.2767,2.3612,4.5961a6.74144,6.74144,0,0,1,.0845,2.8979l-2.0954,5.8895-.0626.1591-2.3987-3.8472a6.92864,6.92864,0,0,1-.0669-2.9568l2.0784-6.4619Zm1.9343-7.8021-2.0608,5.5055-.0345.0881-2.3466-3.8035a6.51694,6.51694,0,0,1-.0677-2.7935l2.0418-6.0537.072-.1965,2.3114,4.5173a6.39919,6.39919,0,0,1,.0844,2.7363Zm2.89,4.3858-1.8771-3.0682-1.7504,4.6828-.1636.3736.2682.4034,1.8419,3.5875,1.5894-5.1789a4.04049,4.04049,0,0,1,.2307-.6174l-.1391-.1828Zm1.3161,1.036,2.2572,4.4116a6.69545,6.69545,0,0,1,.1111,2.8077l-1.9411,5.6931-.0247.0749-2.2847-3.6953a6.77992,6.77992,0,0,1-.0921-2.8624l1.915-6.253.0593-.1766Zm-.2682-2.0369v.0048l-2.2368-3.6499a6.47087,6.47087,0,0,1-.0901-2.7071l1.885-5.8671.0352-.1035,2.2121,4.3379a6.36954,6.36954,0,0,1,.1063,2.6532l-1.9117,5.3317Zm-1.0678-26.0448.0128-.036,2.1699,4.2662a3.901,3.901,0,0,1,.1837,1.1781l.0048.0935a4.24212,4.24212,0,0,1-.0845,1.2373l-1.8623,4.9388-2.1895-3.609a5.95928,5.95928,0,0,1-.0873-2.5614l1.8552-5.5075ZM44.034,145.4176l1.6659,2.7386.1415.1836a4.67145,4.67145,0,0,0-.2033.6659l-1.2339,5.1698-1.654-3.2258-.2634-.3977.1494-.4192,1.3978-4.7152Zm6.4063,25.4781-.055.4816-1.5962,6.2464-.0051.0252-2.0903-3.3692a8.24772,8.24772,0,0,1-.1766-3.0589l1.552-6.8284h-.0028l.0323-.121,1.656,3.2397-1.5245-7.5282-.5383,2.0029-2.0489-3.329a7.72915,7.72915,0,0,1-.1689-2.8998l1.0304-4.301-1.4224-7.0314-.442-.7251a7.4,7.4,0,0,1-.2063-2.4732l-.6602-3.261-.3475,1.3825-1.6169-3.1672-.2455-.3957.1344-.3611.9459-3.0385-.5913-2.9188-.0372.1978-1.6364,5.2422-2.0659-3.3974a6.83746,6.83746,0,0,1-.1366-2.69l1.6239-5.8559,1.5549,3.0552-1.3683-6.7561-.4816,1.4689-2.0262-3.3587a6.25279,6.25279,0,0,1-.1316-2.5498l1.0276-3.5257-.5885-2.9038-.1837.5102-1.2634,4.3322-1.6293-3.2097-.231-.3688.1199-.2956,1.4125-3.9132,1.6588,2.7737.1114.1479-.8314-4.1006-.271-.4561a5.74063,5.74063,0,0,1-.1984-1.8666l-.6285-3.0963-.288.9454-1.5962-3.1538-.2287-.366.1168-.2449.9312-2.4523-.5264-2.5928L32.605,95.3538l-2.0489-3.4262a3.77032,3.77032,0,0,1-.1738-1.0735l-.0019-.0542a4.1158,4.1158,0,0,1,.0717-1.2296l1.654-4.9227L34.045,88.488l-.328-3.7826-.4615-.9136c-.335-.663-.7673-.9805-1.2642-.945-.7869.0555-1.0874.9493-1.1838,1.2415l-1.3161,3.9082L27.845,84.7471c-.3378-.6687-.7849-.9961-1.2761-.9572-.8022.0513-1.1197.9578-1.2246,1.2549l-1.4499,4.1048-1.728-3.3996c-.3427-.6735-.775-1.0023-1.2934-.97-.5386.0317-.9638.4598-1.2643,1.2699l-1.5962,4.311-1.8153-3.5572c-.345-.6778-.7818-1.0242-1.3085-.982-.551.0275-.991.4609-1.3113,1.2853l-2.1248,5.4773a6.22612,6.22612,0,0,0,.1485,3.8118l2.4508,4.0141.1296.1681-.2407.5434-2.1679,5.8539a6.71257,6.71257,0,0,0,.1562,3.9464l2.5078,4.0646.1414.1831a4.15893,4.15893,0,0,0-.2602.6046l-2.2102,6.2512a7.09071,7.09071,0,0,0,.1662,4.0958l2.5653,4.1182.1514.1962a4.42143,4.42143,0,0,0-.2758.6681l-2.2544,6.6844a7.50654,7.50654,0,0,0,.1737,4.2553l2.6246,4.1687.1642.2106a5.50286,5.50286,0,0,0-.2937.7353l-2.2986,7.1532c-.3104.9607-.3356,3.6108.1837,4.4277l2.6866,4.2231.1758.2211a5.53808,5.53808,0,0,0-.3104.8121l-2.3485,7.6598c-.3127,1.0207-.3351,3.7868.1936,4.6088l2.751,4.2781.1888.2355a5.85688,5.85688,0,0,0-.3251.8918l-2.401,8.206c-.318,1.0849-.3356,3.983.2036,4.8121l2.8201,4.3302a1.29164,1.29164,0,0,0,1.0826.6903l.1372-.0105c.7892-.1063,1.1741-1.0347,1.3949-1.7223l2.1855-6.8434,2.1722,3.3743a1.27242,1.27242,0,0,0,1.0676.6883l.1366-.0105c.7727-.1072,1.1324-1.008,1.336-1.6759l1.9811-6.478,2.056,3.2227a1.24508,1.24508,0,0,0,1.0508.6835l.1386-.0105c.7523-.1063,1.0924-.9834,1.2809-1.6308l1.7955-6.139,1.944,3.0765a1.23093,1.23093,0,0,0,1.0383.6834l.1392-.0105c.737-.1083,1.0573-.9601,1.2339-1.5905l1.6266-5.821,1.8399,2.9379a1.21288,1.21288,0,0,0,1.0248.6777l.142-.0105c.7222-.1091,1.0227-.9402,1.1868-1.5562l1.4752-5.5173,1.7405,2.8034a1.195,1.195,0,0,0,1.0128.6758l.1414-.0136c.7076-.1083.9953-.9176,1.1475-1.5188l.9558-3.75Z"/>
      <path class="cls-2" d="M178.63626,164.0798a5.252,5.252,0,0,0-.2211-.7152l.159-.2041,1.7034-2.7709,1.4351,5.1001.1562.4694-.2732.4125-1.6935,3.2868-1.2659-5.5786Zm1.8524,7.5262a8.26947,8.26947,0,0,0-.1669,3.1031l1.7285,6.4712.0346.1211,2.2023-3.5158a8.50607,8.50607,0,0,0,.1542-3.1658l-1.6906-7.0636-.0598-.231-2.2023,4.2808Zm3.6323-4.38a5.14263,5.14263,0,0,0-.2355-.7424l.161-.2121,1.8006-2.9046,1.5814,5.3736.1709.4859-.2848.4271-1.783,3.4566-1.4106-5.8841Zm2.0166,7.7864a8.35811,8.35811,0,0,0-.1471,3.2103l1.8751,6.709.0697.2208,2.3134-3.6669a8.5607,8.5607,0,0,0,.1324-3.2757l-1.8425-7.3239-.0973-.3387-2.3037,4.4651Zm3.7664-4.4693a5.00987,5.00987,0,0,0-.2585-.7748l.1718-.2182,1.8989-3.0393,1.7436,5.663.1865.5069-.2956.4419-1.8823,3.6278-1.5644-6.2073Zm2.1923,8.064a8.5366,8.5366,0,0,0-.1219,3.3227l2.0393,6.9673.104.318,2.4353-3.8188a8.68017,8.68017,0,0,0,.1048-3.3925l-2.0086-7.598-.1414-.4518-2.4115,4.6531Zm3.9133-4.5638a5.33272,5.33272,0,0,0-.2759-.8136l.1738-.2211,2.0066-3.1804,1.9194,5.9692.2064.5306-.3104.4595-1.982,3.8086-1.7379-6.5528Zm2.1679,9.9326a6.73549,6.73549,0,0,0,.1239,1.8765l2.215,7.2431.1491.4201,2.5647-3.9782a4.99686,4.99686,0,0,0,.2064-1.4476l.0071-.1879a7.44122,7.44122,0,0,0-.1389-1.8856l-2.198-7.89a5.0654,5.0654,0,0,0-.1885-.5666l-2.5254,4.8472a5.435,5.435,0,0,0-.2154,1.5633v.0057Zm4.2905-6.2297a5.78173,5.78173,0,0,0-.3005-.8496l.1789-.2287,2.1226-3.3299,2.1129,6.2972.224.5567-.3203.474-2.0932,3.9977-1.9244-6.9174Zm2.5943,8.6805a8.53888,8.53888,0,0,0-.059,3.5776l2.4058,7.5388a4.60585,4.60585,0,0,0,.2012.5263l2.6983-4.1414a8.84124,8.84124,0,0,0,.0403-3.6555l-2.4015-8.2083a4.21971,4.21971,0,0,0-.2455-.6806l-2.6396,5.0431Zm3.0274-6.8187,2.6336-4.0964a8.32306,8.32306,0,0,0,.038-3.4418l-2.3465-7.6621a5.36856,5.36856,0,0,0-.2112-.5666l-2.5823,4.9567a8.14533,8.14533,0,0,0-.0598,3.3664l2.3592,7.022.169.4218Zm.4518-17.5692-.1318-.3279-2.3142-6.5424a7.46955,7.46955,0,0,1,.0573-3.1756l2.5251-4.8649.1768.4643,2.3015,7.1513a7.5324,7.5324,0,0,1-.0403,3.2454l-2.5744,4.0498Zm.432-16.7332-.102-.2454-2.2669-6.1016a6.88855,6.88855,0,0,1,.057-2.9934l2.4704-4.7835.1443.3725,2.2549,6.6849a6.98174,6.98174,0,0,1-.038,3.0598l-2.5197,4.0067Zm.4125-15.963-.0723-.1709-2.2249-5.692a6.28437,6.28437,0,0,1,.0589-2.823l2.4143-4.7016.1162.2892,2.2127,6.2535a6.55009,6.55009,0,0,1-.0399,2.8845l-2.465,3.9603Zm.3914-15.2407-.0416-.1041-2.1824-5.3127a4.14735,4.14735,0,0,1-.1197-1.3303v-.083a4.14317,4.14317,0,0,1,.1766-1.2512l2.3664-4.6208.0893.2132,2.1676,5.8524a6.12983,6.12983,0,0,1-.0399,2.721l-2.4163,3.9155Zm.3802-14.5667-.0199-.0451-2.1404-4.9598a3.7649,3.7649,0,0,1-.1168-1.2206l.0051-.1238a3.67676,3.67676,0,0,1,.1689-1.1696l2.3196-4.5448.0593.1443,2.1257,5.4788a5.5667,5.5667,0,0,1-.0383,2.5704l-2.3632,3.8702Zm-1.3184.5139-1.8026-4.1828-1.8995,3.1306-.1239.1633.2231.5249,1.647,4.6602,1.8544-3.6184.2557-.3906-.1542-.2872Zm-2.5373-5.6948-2.2524,3.7157-1.9792-4.7812a3.774,3.774,0,0,1-.0969-1.1795l.0053-.1276a3.73963,3.73963,0,0,1,.1732-1.1344l2.223-4.3688.0224.0604,1.9686,5.3218a5.6842,5.6842,0,0,1-.064,2.4936Zm-3.5459,4.2885-1.6464-3.9866-1.8025,2.9985-.1216.1584.2083.506,1.4899,4.4362,1.7652-3.4594.2463-.3877-.1392-.2654Zm-2.3644-5.5321-2.1472,3.5677-1.8102-4.5691a3.67321,3.67321,0,0,1-.0797-1.1447l.0048-.1238a3.713,3.713,0,0,1,.1769-1.105l2.1277-4.1955,1.815,5.1471a5.60006,5.60006,0,0,1-.0873,2.4233Zm-3.4163,4.1933-1.5049-3.7964-1.7152,2.8704-.1146.1533.1914.4893,1.3535,4.2179,1.6807-3.3023.2336-.3765-.1245-.2557Zm-2.7683,5.497a5.95274,5.95274,0,0,1-.1097,2.4882l-2.0874,3.4634-1.7014-4.7154a4.14225,4.14225,0,0,1-.0697-1.2031l.0051-.083a3.99123,3.99123,0,0,1,.1865-1.1523l2.0755-4.0941,1.7011,5.2963Zm-2.4457,8.0943.0022.0111,1.7433,5.6905a6.4011,6.4011,0,0,1-.1119,2.6255l-2.1305,3.5016-1.7476-5.091a4.38222,4.38222,0,0,1-.0675-1.3028l.0026-.0508a4.36982,4.36982,0,0,1,.1916-1.2211l2.1178-4.163Zm-1.8054,12.3642-1.4548-4.2364-1.6905,2.8035-.1248.1695a4.80472,4.80472,0,0,1,.1987.5757l1.2963,4.6735,1.6659-3.263.2438-.3886-.1346-.3342Zm-2.3015,9.9164,1.495,4.5839.1514.3886-.2633.3963-1.7011,3.3242-1.336-5.0465a4.0489,4.0489,0,0,0-.2083-.6321l.1366-.1795,1.7257-2.8349Zm-1.3683,10.2478-1.6483-6.2402-.0147-.0598-2.111,4.1329a7.04686,7.04686,0,0,0-.1539,2.7828l1.6784,5.6591,2.1101-3.4362a7.20425,7.20425,0,0,0,.1394-2.8386Zm-1.0479,18.2497a7.83693,7.83693,0,0,0,.1471-2.997l-1.6716-6.6393-.0374-.1392-2.1552,4.2041a7.66183,7.66183,0,0,0-.1582,2.9398l1.7082,6.0655.0099.0403,2.1572-3.4742Zm1.2149-4.5311-1.3711-5.4508a5.27214,5.27214,0,0,0-.2183-.6868l.1463-.1942,1.7603-2.8655,1.5372,4.9615.1591.439-.271.4096-1.7425,3.3872Zm4.6375,7.7068a7.86733,7.86733,0,0,0,.1244-3.0934l-1.8173-6.8701-.0697-.2463-2.255,4.3855a7.7473,7.7473,0,0,0-.1414,3.0359l1.8505,6.2824.0422.1343,2.2663-3.6283Zm1.1894-4.5814-1.5168-5.7424a5.314,5.314,0,0,0-.2483-.7075l.161-.2089,1.8575-3.0039,1.6934,5.226.171.4566-.2801.4224-1.8377,3.5577Zm4.9887,7.9388a8.02646,8.02646,0,0,0,.0992-3.2055l-1.9791-7.1144-.1089-.3497-2.3593,4.5694a7.81173,7.81173,0,0,0-.1162,3.1405l2.0058,6.5106.0748.2251,2.3837-3.776Zm1.1642-4.6404-1.6835-6.0565a5.12348,5.12348,0,0,0-.2605-.7446l.1613-.2084,1.9593-3.1413,1.8618,5.5049.1913.4762-.2956.4371-1.9341,3.7326Zm5.3711,8.1885a8.10527,8.10527,0,0,0,.0689-3.3202l-2.1524-7.3789-.1562-.4569-2.4684,4.7602a8.01859,8.01859,0,0,0-.0921,3.2496l2.1727,6.7567.1197.3251,2.5078-3.9356Zm3.272-9.5723.2064.4991-.3048.4519-2.0369,3.9161-1.8666-6.3888a5.07563,5.07563,0,0,0-.2858-.7741l.169-.2169,2.0707-3.287,2.048,5.7997Zm.4723-16.6309-1.984-5.3427-2.0237,3.2453-.1666.2132a5.15835,5.15835,0,0,1,.2806.6948l1.8076,5.8994,1.9891-3.8338.2877-.4314-.1907-.4448Zm.4518-15.8666-1.9242-4.9218-1.9791,3.2051-.1443.1893a4.69945,4.69945,0,0,1,.2534.6427l1.7504,5.4518,1.944-3.7584.2787-.4187-.1789-.39Zm-1.4349-19.6884-1.9372,3.168-.1344.1766a3.78561,3.78561,0,0,1,.2387.58l1.7011,5.0403,1.8918-3.6867.2662-.4006-.1618-.3407-1.8644-4.5369Zm-5.1551-4.2335.0023-.0706a4.05534,4.05534,0,0,1,.1814-1.2203l2.2672-4.4427.0442.1253,2.0066,5.6743a5.97471,5.97471,0,0,1-.0674,2.6394l-2.2967,3.7613-.0099-.0253-2.0256-5.148a4.07176,4.07176,0,0,1-.1021-1.2934Zm-.8867,2.6385-1.8399,3.0322-.1287.1695a4.1615,4.1615,0,0,1,.2208.5604l1.5395,4.7926,1.8025-3.5229.2532-.3821-.1491-.3303-1.6983-4.3194Zm-7.4114,2.092,1.3958,4.5552,1.7152-3.3602.2384-.3835-.1315-.307-1.5492-4.1102-1.7484,2.9004-.1239.1633.2036.542Zm-.9607,13.4509a4.50581,4.50581,0,0,1,.2132.5976l1.4352,4.9212,1.7532-3.4234.2554-.3906-.1485-.3578-1.5971-4.4543-1.7827,2.9341-.1287.1732Zm-3.4588,7.8662a6.64986,6.64986,0,0,1,.1309-2.7196l2.1609-4.2352.0247.0816,1.7679,6.0559a5.33981,5.33981,0,0,1,.0788,1.4956l-.002.0402a4.39376,4.39376,0,0,1-.1936,1.2379l-2.1727,3.5425-1.7949-5.4989Zm3.2003,17.1473a7.31093,7.31093,0,0,0,.1191-2.9271l-1.7927-6.4479-.0445-.1582-2.2079,4.3072a7.16307,7.16307,0,0,0-.1363,2.8747l1.8249,5.8827.0204.057,2.217-3.5884Zm1.1642-4.4362,1.7926-3.4861.2738-.4124-.1638-.4048-1.6464-4.822-1.8178,2.9667-.1486.197.2331.6455,1.4771,5.3161Zm4.8966,7.2847a7.34706,7.34706,0,0,0,.0943-3.0271l-1.9468-6.6688-.0836-.2605-2.3074,4.4918a7.26684,7.26684,0,0,0-.114,2.9667l1.9744,6.0883.0493.1463,2.3338-3.7367Zm1.1375-4.4917-1.6364-5.599a4.578,4.578,0,0,0-.2535-.6702l.1571-.204,1.9193-3.1034,1.8045,5.0749.1766.4271-.2806.4196-1.887,3.655Zm5.3286,4.365-2.1155-6.9023-.1267-.3626-2.4163,4.6755a7.32037,7.32037,0,0,0-.0845,3.0688l2.1334,6.307.0893.2379,2.4528-3.8928a7.52319,7.52319,0,0,0,.0675-3.1315Zm.5187-15.9868a6.84994,6.84994,0,0,1-.0675,2.9574l-2.3978,3.8472-.0601-.1591-2.0951-5.8895a6.7372,6.7372,0,0,1,.0817-2.8979l2.3641-4.5961.0963.2767,2.0784,6.4613Zm-3.928-16.9997,2.3142-4.5173.0718.1965,2.0383,6.0537a6.54194,6.54194,0,0,1-.0649,2.7935l-2.3485,3.8035-.0346-.0881-2.0607-5.5055a6.43153,6.43153,0,0,1,.0844-2.7363Zm-1.0973,4.0539-1.8771,3.0682-.1394.1828a4.48227,4.48227,0,0,1,.2338.6166l1.5863,5.1797,1.8448-3.5875.2681-.4034-.1638-.3736-1.7527-4.6828Zm-3.1314,4.2808,1.9117,6.2521a6.77166,6.77166,0,0,1-.0916,2.8633l-2.2819,3.6953-.0246-.0749-1.9446-5.6931a6.70679,6.70679,0,0,1,.112-2.8071l2.262-4.4122.057.1766Zm-1.7053-7.5452a6.34853,6.34853,0,0,1,.1063-2.6527l2.215-4.3384.0343.1035,1.8822,5.8665a6.3972,6.3972,0,0,1-.0893,2.7077l-2.2348,3.6499-.002-.0048-1.9117-5.3317Zm2.9792-20.7131,1.8547,5.5075a5.94677,5.94677,0,0,1-.0873,2.5614l-2.1917,3.609-1.8601-4.9393a4.15294,4.15294,0,0,1-.0845-1.2359l.0048-.095a3.82836,3.82836,0,0,1,.1837-1.1769l2.1679-4.2668.0125.036ZM182.691,150.1328l.1491.4192-.2631.3977-1.6512,3.2258-1.2367-5.1704a4.337,4.337,0,0,0-.2013-.6644l.1395-.1845,1.6679-2.7386,1.3958,4.7152Zm-8.477,24.0893.9558,3.7494c.1519.6018.4399,1.4111,1.1495,1.5202l.1391.012a1.19791,1.19791,0,0,0,1.0157-.675l1.7385-2.8034,1.4774,5.5167c.1633.6166.4637,1.4486,1.1866,1.5577l.1414.0096a1.216,1.216,0,0,0,1.0256-.6777l1.8371-2.9379,1.6266,5.8201c.1785.6307.496,1.4831,1.2336,1.5922l.1395.0091a1.2362,1.2362,0,0,0,1.0403-.682l1.9417-3.0773,1.7949,6.1382c.1894.6482.5315,1.5253,1.2815,1.6316l.1389.0099a1.246,1.246,0,0,0,1.0528-.6829l2.056-3.2227,1.9811,6.478c.2044.6679.561,1.5696,1.336,1.6764l.1366.0094a1.26608,1.26608,0,0,0,1.065-.6877l2.1733-3.3743,2.187,6.8434c.2208.6876.6037,1.616,1.3955,1.7231l.1346.0091a1.284,1.284,0,0,0,1.0817-.6897l2.8216-4.3307c.5414-.8286.523-3.7262.2055-4.8116l-2.4006-8.2065a6.23955,6.23955,0,0,0-.328-.8913l.1885-.2355,2.7536-4.2781c.5292-.822.5065-3.5881.1933-4.6088l-2.3485-7.6598a6.1237,6.1237,0,0,0-.3104-.8116l.1766-.2216,2.6844-4.2231c.5207-.8169.4935-3.4662.186-4.4271l-2.3018-7.1538a5.10823,5.10823,0,0,0-.2934-.7348l.1667-.2111,2.6226-4.1695a7.49154,7.49154,0,0,0,.1732-4.254l-2.2544-6.6849a4.22752,4.22752,0,0,0-.2761-.6673l.1514-.197,2.5656-4.1182a7.0715,7.0715,0,0,0,.1662-4.0949l-2.2102-6.253a3.8123,3.8123,0,0,0-.2583-.6032l.1421-.1836,2.5049-4.0646a6.70348,6.70348,0,0,0,.1585-3.9464l-2.1671-5.8539-.2429-.5434.129-.1681,2.4528-4.0141a6.2043,6.2043,0,0,0,.1491-3.8112l-2.1277-5.4779c-.3203-.8249-.76-1.2572-1.3113-1.2853-.5236-.0422-.9635.3042-1.3082.9825l-1.8153,3.5567-1.5942-4.311c-.3005-.8101-.7248-1.2382-1.2663-1.2699-.5187-.0329-.9507.2965-1.2937.9706l-1.7277,3.399-1.4479-4.1048c-.1069-.2977-.4252-1.2031-1.224-1.2549-.4941-.0394-.9389.2885-1.2788.9578l-1.6463,3.2488-1.3133-3.9082c-.0992-.2922-.3977-1.186-1.1874-1.2415-.4961-.0355-.9284.282-1.2634.9459l-.4595.9127-.3303,3.7826,1.9392-3.8404,1.656,4.9221a4.272,4.272,0,0,1,.072,1.2302l-.0042.0542a3.56349,3.56349,0,0,1-.1747,1.0735l-2.0454,3.4262-1.6589-4.3679-.5264,2.5928.9312,2.4523.1168.2449-.2259.366-1.5993,3.1538-.2877-.9454-.6256,3.0963a5.88621,5.88621,0,0,1-.1993,1.8672l-.2724.4555-.832,4.1006.112-.1479,1.6611-2.7737,1.4096,3.9132.1197.2956-.2288.3688-1.6313,3.2097-1.2615-4.3322-.1856-.5102-.5865,2.9038,1.0284,3.5249a6.31235,6.31235,0,0,1-.1344,2.5514l-2.0236,3.3579-.4813-1.4689-1.3683,6.7561,1.5519-3.0552,1.626,5.8559a6.78506,6.78506,0,0,1-.1389,2.6906l-2.0656,3.3968-1.6364-5.2422-.0346-.1978-.5939,2.9188.9488,3.0385.1343.3611-.2486.3957-1.6137,3.1672-.3504-1.3825-.6582,3.261a7.39524,7.39524,0,0,1-.2064,2.4732l-.441.7251-1.4233,7.0314,1.0284,4.301a7.64908,7.64908,0,0,1-.1689,2.8998l-2.0489,3.329-.5386-2.0029-1.5245,7.5282,1.6583-3.2397.0303.121,1.552,6.8284a8.32015,8.32015,0,0,1-.1766,3.0589l-2.0906,3.3692-.0076-.0252-1.5942-6.2464-.0542-.4816Z"/>
      <path class="cls-2" d="M189.53916,91.1222l-8.132,4.337a3.6149,3.6149,0,0,1-3.4988,0l-8.1315-4.337a1.02837,1.02837,0,0,1-.4244-.881,1.10339,1.10339,0,0,1,.3943-.9748l7.8991-4.9657a3.66517,3.66517,0,0,1,4.0218.0008l7.8984,4.9649a1.10008,1.10008,0,0,1,.3949.9734,1.0237,1.0237,0,0,1-.4218.8824Zm-12.6456,5.607.1984-.1063-7.9801-4.2554-.4675-.347-.4665.347L160.2,96.6229l.1962.1063,7.8956,4.964.3526.3047.3555-.3047,7.8937-4.964Zm.1984,13.5156-.1984.1071-7.8937,4.9635-.3555.3047-.3526-.3047-7.8928-4.9635-.199-.1071,7.9779-4.2546.4665-.3469.4675.3469,7.9801,4.2546Zm0,13.6227-.1984.1071-7.8937,4.9621-.3555.3061-.3526-.3061-7.8928-4.9621-.199-.1071,7.9779-4.2554.4665-.3469.4675.3469,7.9801,4.2554Zm0,13.6222-.1984.1068-7.8937,4.9635-.3555.3047-.3526-.3047-7.8928-4.9635-.199-.1068,7.9779-4.2548.4665-.347.4675.347,7.9801,4.2548Zm0,13.6241-.1984.1041-7.8937,4.9634-.3555.3056-.3526-.3056-7.8928-4.9634-.199-.1041,7.9779-4.2562.4665-.3475.4675.3475,7.9801,4.2562Zm-9.5772,8.1187a1.01979,1.01979,0,0,0,.4244-.8804,1.10007,1.10007,0,0,0-.3969-.9743l-7.8956-4.9626a3.65179,3.65179,0,0,0-4.0223-.0008h-.0029l-7.8984,4.9643a1.10042,1.10042,0,0,0-.3949.9734,1.02358,1.02358,0,0,0,.4252.8804l8.1312,4.3385a3.61664,3.61664,0,0,0,3.4959,0l8.1343-4.3385Zm.0275,11.7647a1.11271,1.11271,0,0,1,.3969.9762,1.01977,1.01977,0,0,1-.4244.881l-8.1343,4.3379a3.61559,3.61559,0,0,1-3.4959,0l-8.1312-4.3379a1.02542,1.02542,0,0,1-.4252-.881,1.11266,1.11266,0,0,1,.3949-.9762l7.8984-4.9607h.0029a3.65432,3.65432,0,0,1,4.0223,0l7.8956,4.9607Zm-20.569-1.1946-.3504.3056-.3549-.3056-7.8933-4.9634-.2013-.1041,7.9807-4.2562.4688-.3475.4646.3475,7.9801,4.2562-.1958.1041-7.8985,4.9634Zm-1.4822,3.0518a1.022,1.022,0,0,0,.4246-.881,1.10939,1.10939,0,0,0-.3971-.9762l-7.8962-4.9607a3.655,3.655,0,0,0-4.0227,0h-.002l-7.8964,4.9607a1.112,1.112,0,0,0-.3969.9762,1.02073,1.02073,0,0,0,.4272.881l8.1315,4.3379a3.61559,3.61559,0,0,0,3.4959,0l8.1321-4.3379Zm-20.5393-3.0518-.3526.3056-.3547-.3056-7.8964-4.9634-.1956-.1041,7.9801-4.2562.4666-.3475.4665.3475,7.981,4.2562-.1993.1041-7.8956,4.9634Zm-1.4822,3.0518a1.03206,1.03206,0,0,0,.4243-.881,1.11169,1.11169,0,0,0-.3997-.9762l-7.8936-4.9607a3.65448,3.65448,0,0,0-4.0224,0h-.002l-7.8984,4.9607a1.10886,1.10886,0,0,0-.3949.9762,1.02693,1.02693,0,0,0,.4244.881l8.132,4.3379a3.61578,3.61578,0,0,0,3.496,0l8.1343-4.3379Zm-20.5416-3.0518-.3504.3056-.3549-.3056-7.8961-4.9634-.1985-.1041,7.9801-4.2562.4672-.3475.4668.3475,7.9801,4.2562-.1987.1041h.0023l-7.8979,4.9634Zm-1.4851,3.0518a1.01292,1.01292,0,0,0,.4244-.881,1.10542,1.10542,0,0,0-.3949-.9762l-7.8956-4.9607a3.65782,3.65782,0,0,0-4.0244,0l-7.8964,4.9607a1.10472,1.10472,0,0,0-.3969.9762,1.019,1.019,0,0,0,.4244.881l8.1314,4.3379a3.617,3.617,0,0,0,3.4966,0l8.1314-4.3379Zm-20.5364-3.0518-.3555.3056-.3526-.3056-7.8956-4.9634-.1965-.1041,7.9781-4.2562.4666-.3475.4675.3475,7.9801,4.2562-.1985.1041h.002l-7.8956,4.9634Zm-1.4851,3.0518a1.02529,1.02529,0,0,0,.4244-.881,1.11271,1.11271,0,0,0-.3969-.9762l-7.8984-4.9607a3.65449,3.65449,0,0,0-4.0224,0l-7.8956,4.9607a1.10933,1.10933,0,0,0-.3977.9762,1.026,1.026,0,0,0,.4249.881l8.1315,4.3379a3.60823,3.60823,0,0,0,3.4959,0l8.1343-4.3379Zm-19.7617-13.6219,8.1315,4.3385a3.609,3.609,0,0,0,3.4959,0l8.1343-4.3379a1.02729,1.02729,0,0,0,.4244-.881,1.10007,1.10007,0,0,0-.3969-.9743l-7.8984-4.9626a3.652,3.652,0,0,0-4.0224-.0008l-7.8956,4.9643a1.094,1.094,0,0,0-.3977.9734,1.02414,1.02414,0,0,0,.4249.8804Zm-.7798-3.0512-.3526.3056-.3504-.3056-7.8956-4.9634-.2013-.1041,7.9807-4.2562.4688-.3475.4672.3475,7.9772,4.2562-.1956.1041-7.8984,4.9634Zm-8.5986-18.5848-.2013-.1068,7.9807-4.2548.4688-.347.4672.347,7.9772,4.2548-.1956.1068-7.8984,4.9635-.3504.3047-.3526-.3047-7.8956-4.9635Zm0-13.6219-.2013-.1071,7.9827-4.2554.4668-.3469.4672.3469,7.9801,4.2554-.1985.1071-7.8984,4.9621-.3504.3061-.3526-.3061-7.8956-4.9621Zm0-13.6227-.2013-.1071,7.9827-4.2546.4668-.3469.4672.3469,7.9801,4.2546-.1985.1071-7.8984,4.9635-.3526.3047-.3504-.3047-7.8956-4.9635Zm0-13.6227-.2013-.1063,7.9827-4.2554.4668-.347.4672.347,7.9801,4.2554-.1985.1063-7.8984,4.964-.3526.3042-.3504-.3042-7.8956-4.964Zm-1.018-1.27,8.1343-4.337a1.02968,1.02968,0,0,0,.4244-.8824,1.10319,1.10319,0,0,0-.3969-.9734l-7.8964-4.9649a3.66445,3.66445,0,0,0-4.0224-.0008l-7.8984,4.9657a1.10189,1.10189,0,0,0-.3969.9734,1.03106,1.03106,0,0,0,.4243.8824l8.1343,4.337a3.6087,3.6087,0,0,0,3.4937,0Zm10.3692-6.1928a1.09951,1.09951,0,0,0-.3977.9734,1.03114,1.03114,0,0,0,.4249.8824l8.1315,4.337a3.613,3.613,0,0,0,3.4959,0l8.1343-4.337a1.0287,1.0287,0,0,0,.4244-.8824,1.10319,1.10319,0,0,0-.3969-.9734l-7.8984-4.9649a3.66445,3.66445,0,0,0-4.0224-.0008l-7.8956,4.9657ZM80.551,92.0205l.4675.347,7.9801,4.2554-.1965.1063-7.8956,4.964-.3555.3042-.3526-.3042-7.8956-4.964-.1965-.1063,7.9781-4.2554.4666-.347Zm1.105-2.7541a1.095,1.095,0,0,0-.3969.9734,1.02225,1.02225,0,0,0,.4244.8824l8.1314,4.337a3.61431,3.61431,0,0,0,3.4966,0l8.1314-4.337a1.01743,1.01743,0,0,0,.4244-.8824,1.09933,1.09933,0,0,0-.3949-.9734l-7.8956-4.9649a3.66512,3.66512,0,0,0-4.0244-.0008L81.656,89.2664Zm20.9194,2.7541.4668.347,7.9801,4.2554-.1964.1063-7.8979,4.964-.3504.3042-.3549-.3042-7.8984-4.964-.1962-.1063,7.9801-4.2554.4672-.347Zm1.1024-2.7541a1.099,1.099,0,0,0-.3949.9734,1.03209,1.03209,0,0,0,.4244.8824l8.132,4.337a3.60948,3.60948,0,0,0,3.496,0l8.1343-4.337a1.03464,1.03464,0,0,0,.4243-.881,1.104,1.104,0,0,0-.3997-.9748l-7.8936-4.9649a3.66684,3.66684,0,0,0-4.0244-.0008l-7.8984,4.9657Zm20.9214,2.7541.4665.347,7.981,4.2554-.1993.1063-7.8956,4.964-.3526.3047-.3547-.3047-7.8964-4.964-.1956-.1063,7.9801-4.2554.4666-.347Zm1.1021-2.7541a1.10214,1.10214,0,0,0-.3969.9734,1.02583,1.02583,0,0,0,.4272.8824l8.1315,4.337a3.60928,3.60928,0,0,0,3.4959,0l8.1321-4.337a1.02662,1.02662,0,0,0,.4246-.8824,1.10328,1.10328,0,0,0-.3971-.9734l-7.8962-4.9649a3.66562,3.66562,0,0,0-4.0247-.0008l-7.8964,4.9657Zm20.9216,2.7541.4646.347,7.9801,4.2554-.1958.1063-7.8985,4.964-.3504.3042-.3549-.3042-7.8956-4.964-.199-.1063,7.9807-4.2554.4688-.347Zm12.7576,17.0609a3.61033,3.61033,0,0,1-3.4959,0l-8.1312-4.3364a1.03056,1.03056,0,0,1-.4252-.8824,1.103,1.103,0,0,1,.3949-.9735l7.8984-4.9657a3.66646,3.66646,0,0,1,4.0252.0009l7.8956,4.964a1.10321,1.10321,0,0,1,.3969.9743,1.02633,1.02633,0,0,1-.4244.8824l-8.1343,4.3364Zm0,13.6228,8.1343-4.3371a1.02493,1.02493,0,0,0,.4244-.8827,1.10348,1.10348,0,0,0-.3969-.9739l-7.8956-4.9644a3.65888,3.65888,0,0,0-4.0223,0h-.0029l-7.8984,4.9649a1.10416,1.10416,0,0,0-.3949.9734,1.03,1.03,0,0,0,.4252.8827l8.1312,4.3371a3.61138,3.61138,0,0,0,3.4959,0Zm0,13.6207,8.1343-4.3364a1.023,1.023,0,0,0,.4244-.8805,1.10644,1.10644,0,0,0-.3969-.9757l-7.8956-4.9634a3.65989,3.65989,0,0,0-4.0223-.0006h-.0029l-7.8984,4.964a1.10972,1.10972,0,0,0-.3949.9749,1.028,1.028,0,0,0,.4252.8813l8.1312,4.337a3.60614,3.60614,0,0,0,3.4959-.0006Zm-11.6271,9.2863,8.1312,4.3356a3.603,3.603,0,0,0,3.4959,0l8.1343-4.3356a1.023,1.023,0,0,0,.4244-.8813,1.10673,1.10673,0,0,0-.3969-.9762l-7.8956-4.9626a3.65685,3.65685,0,0,0-4.0223,0h-.0029l-7.8984,4.9634a1.10871,1.10871,0,0,0-.3949.9754,1.028,1.028,0,0,0,.4252.8813Zm-22.0521,11.7666a1.09938,1.09938,0,0,0-.3969.9743,1.01891,1.01891,0,0,0,.4272.8804l8.1315,4.3385a3.61664,3.61664,0,0,0,3.4959,0l8.1321-4.3379a1.024,1.024,0,0,0,.4246-.881,1.09328,1.09328,0,0,0-.3971-.9743l-7.8962-4.9626a3.65246,3.65246,0,0,0-4.0227-.0008h-.002l-7.8964,4.9634Zm-9.3532-6.1599-.1956-.1041,7.9801-4.2562.4666-.3475.4665.3475,7.981,4.2562-.1993.1041-7.8956,4.9634-.3526.3056-.3547-.3056-7.8964-4.9634Zm-12.6703,6.1599a1.0963,1.0963,0,0,0-.3949.9743,1.02508,1.02508,0,0,0,.4244.8804l8.132,4.3385a3.61684,3.61684,0,0,0,3.496,0l8.1343-4.3379a1.03409,1.03409,0,0,0,.4243-.881,1.10173,1.10173,0,0,0-.3997-.9743l-7.8936-4.9626a3.652,3.652,0,0,0-4.0224-.0008h-.002l-7.8984,4.9634Zm-9.3512-6.1599-.1985-.1041,7.9801-4.2562.4672-.3475.4668.3475,7.9801,4.2562-.1987.1041h.0023l-7.8979,4.9634-.3504.3056-.3549-.3056-7.8961-4.9634ZM81.656,157.3778a1.09226,1.09226,0,0,0-.3969.9743,1.01718,1.01718,0,0,0,.4244.8804l8.1314,4.3385a3.618,3.618,0,0,0,3.4966,0l8.1314-4.3379a1.01486,1.01486,0,0,0,.4244-.881,1.09087,1.09087,0,0,0-.3949-.9743l-7.8956-4.9626a3.65529,3.65529,0,0,0-4.0244-.0008l-7.8964,4.9634Zm-1.5716-10.5202.4666-.3475.4675.3475,7.9801,4.2562-.1985.1041h.002l-7.8956,4.9634-.3555.3056-.3526-.3056-7.8956-4.9634-.1965-.1041,7.9781-4.2562Zm-10.5448-8.6698a3.77808,3.77808,0,0,0-2.0115.6033l-7.8956,4.9634a1.10216,1.10216,0,0,0-.3977.9754,1.02857,1.02857,0,0,0,.4249.8813l8.1315,4.3356a3.59778,3.59778,0,0,0,3.4959,0l8.1343-4.3356a1.02855,1.02855,0,0,0,.4244-.8813,1.10673,1.10673,0,0,0-.3969-.9762l-7.8984-4.9626a3.76089,3.76089,0,0,0-2.0109-.6033Zm0-13.6221a3.77893,3.77893,0,0,0-2.0115.6026l-7.8956,4.964a1.10315,1.10315,0,0,0-.3977.9749,1.02857,1.02857,0,0,0,.4249.8813l8.1315,4.337a3.60221,3.60221,0,0,0,3.4959-.0006l8.1343-4.3364a1.02859,1.02859,0,0,0,.4244-.8805,1.10644,1.10644,0,0,0-.3969-.9757l-7.8984-4.9634a3.76076,3.76076,0,0,0-2.0109-.6032Zm0-13.6219a3.77152,3.77152,0,0,0-2.0115.6023l-7.8956,4.9649a1.0987,1.0987,0,0,0-.3977.9734,1.03052,1.03052,0,0,0,.4249.8827l8.1315,4.3371a3.61506,3.61506,0,0,0,3.4959,0l8.1343-4.3371a1.0305,1.0305,0,0,0,.4244-.8827,1.10348,1.10348,0,0,0-.3969-.9739l-7.8984-4.9644a3.75961,3.75961,0,0,0-2.0109-.6023Zm9.8818-6.1988a1.03,1.03,0,0,0,.4244-.8824,1.10321,1.10321,0,0,0-.3969-.9743l-7.8984-4.964a3.66445,3.66445,0,0,0-4.0224-.0009l-7.8956,4.9657a1.09808,1.09808,0,0,0-.3977.9735,1.03114,1.03114,0,0,0,.4249.8824l8.1315,4.3364a3.61243,3.61243,0,0,0,3.4959,0l8.1343-4.3364Zm9.5772,5.4998-.1985.1071h.002l-7.8956,4.9635-.3555.3047-.3526-.3047-7.8956-4.9635-.1965-.1071,7.9781-4.2546.4666-.3469.4675.3469,7.9801,4.2546Zm12.4443-5.4998a1.01939,1.01939,0,0,0,.4244-.8824,1.09867,1.09867,0,0,0-.3949-.9743l-7.8956-4.964a3.66512,3.66512,0,0,0-4.0244-.0009l-7.8964,4.9657a1.09356,1.09356,0,0,0-.3969.9735,1.02225,1.02225,0,0,0,.4244.8824l8.1314,4.3364a3.61379,3.61379,0,0,0,3.4966,0l8.1314-4.3364Zm9.5794,5.4998-.1987.1071h.0023l-7.8979,4.9635-.3504.3047-.3549-.3047-7.8961-4.9635-.1985-.1071,7.9801-4.2546.4672-.3469.4668.3469,7.9801,4.2546Zm12.4473-5.4998a1.03656,1.03656,0,0,0,.4243-.8819,1.1026,1.1026,0,0,0-.3997-.9748l-7.8936-4.964a3.66665,3.66665,0,0,0-4.0244-.0009l-7.8984,4.9657a1.09761,1.09761,0,0,0-.3949.9735,1.03209,1.03209,0,0,0,.4244.8824l8.132,4.3364a3.61052,3.61052,0,0,0,3.496,0l8.1343-4.3364Zm9.5771,5.4998-.1993.1071-7.8956,4.9635-.3526.3047-.3547-.3047-7.8964-4.9635-.1956-.1071,7.9801-4.2546.4666-.3469.4665.3469,7.981,4.2546Zm12.4444-5.4998a1.02862,1.02862,0,0,0,.4246-.8824,1.1026,1.1026,0,0,0-.3971-.9743l-7.8962-4.964a3.66562,3.66562,0,0,0-4.0247-.0009l-7.8964,4.9657a1.10071,1.10071,0,0,0-.3969.9735,1.02583,1.02583,0,0,0,.4272.8824l8.1315,4.3364a3.61033,3.61033,0,0,0,3.4959,0l8.1321-4.3364Zm-19.7898,39.0087a1.10731,1.10731,0,0,0-.3969.9762,1.0233,1.0233,0,0,0,.4272.8813l8.1315,4.3356a3.603,3.603,0,0,0,3.4959,0l8.1321-4.3356a1.02527,1.02527,0,0,0,.4246-.8813,1.10088,1.10088,0,0,0-.4-.9762l-7.8933-4.9626a3.65752,3.65752,0,0,0-4.0227,0h-.002l-7.8964,4.9626Zm-9.3532-6.1572-.1956-.1068,7.9801-4.2548.4666-.347.4665.347,7.981,4.2548-.1993.1068-7.8956,4.9635-.3526.3047-.3547-.3047-7.8964-4.9635Zm-12.6703,6.1572a1.097,1.097,0,0,0-.3949.9762,1.02953,1.02953,0,0,0,.4244.8813l8.132,4.3356a3.60319,3.60319,0,0,0,3.496,0l8.1343-4.3356a1.03537,1.03537,0,0,0,.4243-.8813,1.1057,1.1057,0,0,0-.3997-.9762l-7.8936-4.9626a3.657,3.657,0,0,0-4.0224,0h-.002l-7.8984,4.9626Zm-9.3512-6.1572-.1985-.1068,7.9801-4.2548.4672-.347.4668.347,7.9801,4.2548-.1987.1068h.0023L102.928,142.56l-.3526.3027-.3527-.3027-7.8961-4.9635ZM81.656,143.7537a1.1001,1.1001,0,0,0-.3969.9762,1.02156,1.02156,0,0,0,.4244.8813l8.1314,4.3356a3.60435,3.60435,0,0,0,3.4966,0l8.1314-4.3356a1.01609,1.01609,0,0,0,.4244-.8813,1.09879,1.09879,0,0,0-.3969-.9762l-7.8936-4.9626a3.66036,3.66036,0,0,0-4.0244,0l-7.8964,4.9626Zm-1.105-10.8658.4675.347,7.9801,4.2548-.1985.1068h.002l-7.8956,4.9635-.3555.3047-.3526-.3047-7.8956-4.9635-.1965-.1068,7.9781-4.2548.4666-.347Zm8.4476-9.0204-.1985.1071h.002l-7.8956,4.9621-.3555.3061-.3526-.3061-7.8956-4.9621-.1965-.1071,7.9781-4.2554.4666-.3469.4675.3469,7.9801,4.2554Zm12.4443-5.5004a1.018,1.018,0,0,0,.4244-.8827,1.098,1.098,0,0,0-.3949-.9739l-7.8956-4.9644a3.66239,3.66239,0,0,0-4.0244,0L81.656,116.511a1.09417,1.09417,0,0,0-.3969.9734,1.02349,1.02349,0,0,0,.4244.8827l8.1314,4.3371a3.61642,3.61642,0,0,0,3.4966,0l8.1314-4.3371Zm.4244,12.7401a1.09785,1.09785,0,0,0-.3969-.9749l-7.8936-4.9634a3.66341,3.66341,0,0,0-4.0244-.0006l-7.8964,4.964a1.09924,1.09924,0,0,0-.3969.9757,1.02106,1.02106,0,0,0,.4244.8805l8.1314,4.337a3.61484,3.61484,0,0,0,3.4966-.0006l8.1314-4.3364a1.01661,1.01661,0,0,0,.4244-.8813Zm9.155-7.2397-.1987.1071h.0023l-7.8979,4.9621-.3526.3047-.3527-.3047-7.8961-4.9621-.1985-.1071,7.9801-4.2554.4672-.3469.4668.3469,7.9801,4.2554Zm12.4473-5.5004a1.03639,1.03639,0,0,0,.4243-.8812,1.10366,1.10366,0,0,0-.3997-.9754l-7.8936-4.9644a3.66617,3.66617,0,0,0-4.0224,0h-.002l-7.8984,4.9649a1.09823,1.09823,0,0,0-.3949.9734,1.03147,1.03147,0,0,0,.4244.8827l8.132,4.3371a3.61158,3.61158,0,0,0,3.496,0l8.1343-4.3371Zm.4243,12.7409a1.10542,1.10542,0,0,0-.3997-.9757l-7.8936-4.9634a3.66006,3.66006,0,0,0-4.0224-.0006h-.002l-7.8984,4.964a1.09615,1.09615,0,0,0-.3949.9757,1.0288,1.0288,0,0,0,.4244.881l8.132,4.3365a3.60633,3.60633,0,0,0,3.496-.0006l8.1343-4.3364a1.03351,1.03351,0,0,0,.4243-.8805Zm9.1528-7.2405-.1993.1071-7.8956,4.9621-.3526.3061-.3547-.3061-7.8964-4.9621-.1956-.1071,7.9801-4.2554.4666-.3469.4665.3469,7.981,4.2554Zm4.5757,1.3008a3.66209,3.66209,0,0,0-4.0227,0h-.002l-7.8964,4.964a1.10644,1.10644,0,0,0-.3969.9757,1.0228,1.0228,0,0,0,.4272.8805l8.1315,4.337a3.60614,3.60614,0,0,0,3.4959-.0006l8.1321-4.3364a1.0258,1.0258,0,0,0,.4246-.8813,1.1,1.1,0,0,0-.4-.9749l-7.8933-4.964Zm-.2634-2.4641,8.1321-4.3371a1.02721,1.02721,0,0,0,.4246-.8827,1.10193,1.10193,0,0,0-.3971-.9739l-7.8962-4.9644a3.65955,3.65955,0,0,0-4.0227,0h-.002l-7.8964,4.9649a1.10132,1.10132,0,0,0-.3969.9734,1.02522,1.02522,0,0,0,.4272.8827l8.1315,4.3371a3.61138,3.61138,0,0,0,3.4959,0Zm17.5128,14.8923-7.8985,4.9635-.3504.3027-.3549-.3027-7.8933-4.9635-.2013-.1068,7.9807-4.2548.4688-.347.4646.347,7.9801,4.2548-.1958.1068Zm0-13.6219-7.8985,4.9621-.3504.3047-.3549-.3047-7.8933-4.9621-.2013-.1071,7.9807-4.2554.4688-.3469.4646.3469,7.9801,4.2554-.1958.1071Zm0-13.6227.1958-.1071-7.9801-4.2546-.4646-.3469-.4688.3469-7.9778,4.2546.1984.1071,7.8933,4.9635.3549.3047.3504-.3047,7.8985-4.9635Zm0,40.866-7.8985,4.9634-.3504.3056-.3549-.3056-7.8933-4.9634-.2013-.1041,7.9807-4.2562.4688-.3475.4646.3475,7.9801,4.2562-.1958.1041Zm-7.1487-61.9515,7.8984-4.9657a3.66646,3.66646,0,0,1,4.0252.0008l7.8956,4.9649a1.10319,1.10319,0,0,1,.3969.9734,1.02434,1.02434,0,0,1-.4244.8824l-8.1343,4.337a3.60928,3.60928,0,0,1-3.4959,0l-8.1312-4.337a1.03056,1.03056,0,0,1-.4252-.8824,1.106,1.106,0,0,1,.3949-.9734Zm42.5905-1.1959L182.418,83.107a5.09425,5.09425,0,0,0-5.5253,0l-7.8928,4.9635-.3555.3061-.3526-.3061-7.8956-4.9635a5.08545,5.08545,0,0,0-5.5244,0l-7.8985,4.9635-.3504.3047-.3549-.3047-7.8956-4.9635a5.08646,5.08646,0,0,0-5.525,0l-7.8956,4.9635-.3526.3061-.3547-.3061-7.8964-4.9635a5.09017,5.09017,0,0,0-5.5222,0l-7.8979,4.9635-.3504.3047-.3549-.3047-7.8984-4.9635a5.08172,5.08172,0,0,0-5.5222,0l-7.8956,4.9635-.3555.3047-.3526-.3047-7.8956-4.9635a5.08856,5.08856,0,0,0-5.5245,0l-7.8984,4.9635-.3526.3047-.3504-.3047-7.8956-4.9635a5.09331,5.09331,0,0,0-5.5273,0l-7.8956,4.9635a2.48243,2.48243,0,0,0-1.0579,2.2192,2.383,2.383,0,0,0,1.1718,2.0778l7.981,4.2554-.1993.1063-7.8956,4.964-.0621.0522.4246,1.9635a1.0375,1.0375,0,0,1,.387-.8198l7.8984-4.9657a3.66445,3.66445,0,0,1,4.0224.0009l7.8964,4.964a1.10321,1.10321,0,0,1,.3969.9743,1.031,1.031,0,0,1-.4244.8824l-8.1343,4.3364a3.60817,3.60817,0,0,1-3.4937,0l-8.1343-4.3364-.2454-.2583.422,1.9517,7.1414,3.8064-.1993.1071-5.3654,3.3727.3155,1.4675,5.8022-3.646a3.659,3.659,0,0,1,4.0224,0l7.8964,4.9644a1.10348,1.10348,0,0,1,.3969.9739,1.03147,1.03147,0,0,1-.4244.8827l-8.1343,4.3371a3.6108,3.6108,0,0,1-3.4937,0l-5.0176-2.6759.3892,1.8073,3.8121,2.0319-.1993.1071-2.7731,1.7419.3174,1.4675,3.208-2.0157a3.66006,3.66006,0,0,1,4.0224.0006l7.8964,4.9634a1.10644,1.10644,0,0,1,.3969.9757,1.02957,1.02957,0,0,1-.4244.8805l-8.1343,4.3364a3.60189,3.60189,0,0,1-3.4937.0006l-1.6886-.9003.3929,1.8091.4794.2554-.1993.1068-.1789.112.3184,1.4675.6128-.3849a3.657,3.657,0,0,1,4.0224,0l7.8964,4.9626a1.10673,1.10673,0,0,1,.3969.9762,1.02953,1.02953,0,0,1-.4244.8813l-8.1343,4.3356a3.62729,3.62729,0,0,1-1.9468.4272l.3127,1.4522a3.77809,3.77809,0,0,1,1.8995.589l7.8964,4.9626a1.10007,1.10007,0,0,1,.3969.9743,1.02827,1.02827,0,0,1-.4244.881l-7.3199,3.903.3104,1.4349,7.6726-4.0921.4688-.3475.4672.3475,7.9772,4.2562-.1956.1041-7.8984,4.9634-.3526.3056-.3504-.3056-7.7071-4.8415.4175,1.9292,6.5378,4.1069a1.11271,1.11271,0,0,1,.3969.9762,1.02626,1.02626,0,0,1-.4244.881l-4.6805,2.4959.3104,1.4352,5.0352-2.6844.4668-.3478.4672.3478,8.1314,4.3376a5.04516,5.04516,0,0,0,4.8243,0l8.132-4.3376.4666-.345.4675.345,8.134,4.3376a5.04516,5.04516,0,0,0,4.8243,0l8.1314-4.3376.4672-.3478.4668.3478,8.1312,4.3376a5.05066,5.05066,0,0,0,4.8271,0l8.1321-4.3376.4666-.345.4665.345,8.1343,4.3376a5.03914,5.03914,0,0,0,4.8249-.002l8.1292-4.3356.4688-.3478.4646.3478,8.1341,4.3376a5.045,5.045,0,0,0,4.8242,0l8.1321-4.3376.4665-.345.4675.345,2.4029,1.281.3356-1.4205-2.0735-1.1072a1.026,1.026,0,0,1-.4244-.881,1.11036,1.11036,0,0,1,.3943-.9762l3.2905-2.0659.4615-1.9565-4.4989,2.8278-.3555.3056-.3526-.3056-7.8928-4.9634-.199-.1041,7.9779-4.2562.4665-.3475.4675.3475,5.2582,2.8041.3331-1.4202-4.9263-2.6303a1.02412,1.02412,0,0,1-.4244-.8804,1.09832,1.09832,0,0,1,.3943-.9734l7.0623-4.4405.7495-3.1779-7.7817-4.1491a1.02855,1.02855,0,0,1-.4244-.8813,1.10318,1.10318,0,0,1,.3943-.9754l7.8991-4.9634a3.64591,3.64591,0,0,1,2.6189-.5131l.3929-1.6583a3.59341,3.59341,0,0,1-2.7493-.2942l-8.1315-4.337a1.02618,1.02618,0,0,1-.4244-.8805,1.10482,1.10482,0,0,1,.3943-.9757l7.8991-4.964a3.65906,3.65906,0,0,1,4.0218.0006l1.4703.9235.3447-1.4513-1.0627-.6665-.1956-.1071,1.6461-.8782.4322-1.83-2.8955,1.5449a3.617,3.617,0,0,1-3.4988,0l-8.1315-4.3371a1.02956,1.02956,0,0,1-.4244-.8812,1.10092,1.10092,0,0,1,.3943-.9749l7.8991-4.9649a3.66135,3.66135,0,0,1,4.0218,0l4.2687,2.683.3427-1.4524-3.8591-2.4248-.1956-.1071,5.3209-2.8378.4294-1.8301-6.5675,3.5045a3.616,3.616,0,0,1-3.4988,0l-8.1315-4.3364a1.02893,1.02893,0,0,1-.4244-.8819,1.0995,1.0995,0,0,1,.3943-.974l7.8991-4.9657a3.665,3.665,0,0,1,4.0218.0009l7.067,4.4404.3402-1.4513-6.6569-4.1842-.1964-.1063,7.9829-4.2554a2.37514,2.37514,0,0,0,1.167-2.0778A2.47458,2.47458,0,0,0,190.31356,88.0705Z"/>
      <g>
        <path class="cls-2" d="M228.46086,146.2802a1.82882,1.82882,0,0,1,.4487,1.3138,1.785,1.785,0,0,1-.1874.6682,1.88806,1.88806,0,0,1-.4368.5729,1.829,1.829,0,0,1-1.3028.4359,1.8561,1.8561,0,0,1-1.6866-1.938,1.82975,1.82975,0,0,1,.612-1.23,1.60531,1.60531,0,0,1,.6273-.3537,1.75134,1.75134,0,0,1,.6877-.0933l.341.0618.3498.1261.2834.1868Z"/>
        <path class="cls-2" d="M80.68306,26.2517a1.78009,1.78009,0,1,1-.2333-.351l.2333.351Zm6.6776-3.0274a1.81505,1.81505,0,0,1-3.3324,1.4397,1.80778,1.80778,0,0,1,3.0325-1.8961l.2999.4564Zm6.8511-2.5269a1.81412,1.81412,0,1,1-.3439-.5904,1.7425,1.7425,0,0,1,.3439.5904Zm7.0225-2.0542a1.79455,1.79455,0,0,1-1.283,2.2218l.0094.0113a1.817,1.817,0,0,1-.9604-3.5047,1.829,1.829,0,0,1,1.8604.5643,1.76436,1.76436,0,0,1,.3736.7073Zm7.1433-1.5585a1.81276,1.81276,0,1,1-3.5538.7172,1.812,1.812,0,0,1,3.1482-1.5404,1.74757,1.74757,0,0,1,.4056.8232Zm7.2329-1.0403a1.8078,1.8078,0,1,1-2.0084-1.563,1.79646,1.79646,0,0,1,2.0084,1.563Zm114.9698,124.6728a1.80134,1.80134,0,0,1-2.1379,1.4037,1.80881,1.80881,0,1,1,.7339-3.5424,1.7744,1.7744,0,0,1,1.0123.5828,1.80109,1.80109,0,0,1,.3917,1.5559ZM122.91336,15.5265a1.814,1.814,0,0,1-1.7113,1.8975,1.79454,1.79454,0,0,1-1.9088-1.6991,1.80371,1.80371,0,0,1,3.1691-1.2946,1.8698,1.8698,0,0,1,.451,1.0962Zm108.9088,117.8424h0a1.80967,1.80967,0,0,1-3.5875-.479l-.0134.0116a1.84473,1.84473,0,0,1,2.0469-1.5633,1.87536,1.87536,0,0,1,1.1268.6032,1.82619,1.82619,0,0,1,.4272,1.4275ZM130.23046,15.4959a1.8042,1.8042,0,0,1-1.8304,1.7844,1.82673,1.82673,0,0,1-1.7977-1.8445,1.81437,1.81437,0,0,1,3.6281.0601ZM232.528,125.9626l.0113.013a1.81053,1.81053,0,1,1-.4467-1.3153,1.77371,1.77371,0,0,1,.4354,1.3023ZM137.52506,15.9885a1.81147,1.81147,0,1,1-1.6486-1.9516,1.77279,1.77279,0,0,1,1.2155.5987,1.84988,1.84988,0,0,1,.4331,1.3529Zm95.2121,102.5439a1.81071,1.81071,0,1,1-1.8269-1.7966,1.76529,1.76529,0,0,1,1.3807.6205,1.82815,1.82815,0,0,1,.4462,1.1761ZM144.77446,16.9775a1.806,1.806,0,1,1-1.5007-2.0545,1.73918,1.73918,0,0,1,1.0741.6012,1.79661,1.79661,0,0,1,.4266,1.4533Zm87.6302,94.11a1.79128,1.79128,0,1,1-.4272-1.0426,1.72583,1.72583,0,0,1,.4272,1.0426ZM151.947,18.4895a1.814,1.814,0,1,1-1.3652-2.1724,1.77456,1.77456,0,0,1,.9607.5794,1.8087,1.8087,0,0,1,.4045,1.593Zm79.6235,85.2118a1.81575,1.81575,0,0,1-3.5918.5349,1.83173,1.83173,0,0,1,1.5423-2.0628,1.79971,1.79971,0,0,1,2.0495,1.5279ZM158.98336,20.482a1.81118,1.81118,0,0,1-3.4707-1.0372,1.82893,1.82893,0,0,1,2.2558-1.2172,1.88925,1.88925,0,0,1,.8336.546,1.79865,1.79865,0,0,1,.3813,1.7084Zm71.2338,75.9008h0a1.8326,1.8326,0,0,1-1.383,2.1617,1.81078,1.81078,0,1,1,.9768-2.9594,1.92167,1.92167,0,0,1,.4062.7977Zm-64.3595-73.4097a1.798,1.798,0,1,1-.3223-1.8312,1.76684,1.76684,0,0,1,.3223,1.8312Zm62.4844,66.2051a1.81641,1.81641,0,0,1-1.2345,2.2513,1.811,1.811,0,0,1-1.0276-3.473,1.81713,1.81713,0,0,1,1.8873.5409,1.91468,1.91468,0,0,1,.3748.6808Zm-55.7836-63.2233a1.81668,1.81668,0,1,1-.8875-2.3987,1.75874,1.75874,0,0,1,.5984.4408,1.828,1.828,0,0,1,.2891,1.9579Zm53.3988,56.1792a1.79512,1.79512,0,0,1-1.0466,2.3262,1.81674,1.81674,0,1,1,.7269-2.888,1.6575,1.6575,0,0,1,.3197.5618Zm-46.9519-52.7417a1.81047,1.81047,0,1,1-.7022-2.4621,1.954,1.954,0,0,1,.4867.3948,1.80437,1.80437,0,0,1,.2155,2.0673Zm44.0912,45.868a1.81149,1.81149,0,1,1-3.2899,1.5174,1.81136,1.81136,0,0,1,3.0124-1.9468l.2775.4294Zm-37.88-41.9839a1.80819,1.80819,0,1,1-3.033-1.9695,1.83059,1.83059,0,0,1,2.5166-.5313l.3605.3323a1.77894,1.77894,0,0,1,.1559,2.1685Zm34.5266,35.3466a1.73587,1.73587,0,1,1-.2061-.3232l.2061.3232Zm-28.6243-31.0218a1.78806,1.78806,0,0,1-2.527.3509,1.81265,1.81265,0,1,1,2.1874-2.891l.2662.2508a1.80587,1.80587,0,0,1,.0734,2.2893Zm24.8077,24.6203a1.81027,1.81027,0,1,1-3.0367,1.9715,1.811,1.811,0,0,1,2.8854-2.175l.1513.2035Zm-19.2203-19.9069a1.80888,1.80888,0,0,1-2.7207-2.3845,1.82747,1.82747,0,0,1,2.5654-.1686l.1686.1678a1.81009,1.81009,0,0,1-.0133,2.3853Zm14.9856,13.7985a1.865,1.865,0,1,1-.0946-.1097l.0946.1097Zm-9.7302-8.6986a1.80691,1.80691,0,0,1-2.5653.0028,1.81462,1.81462,0,1,1,2.5772-2.5552l.0709.0817a1.813,1.813,0,0,1-.0828,2.4707Zm4.8717,5.4598a1.81078,1.81078,0,0,1-2.3638-2.7437,1.81079,1.81079,0,1,1,2.3638,2.7437Z"/>
        <path class="cls-2" d="M73.98256,29.5625l.2004.2826.1551.3175.0666.3529.0161.3478a1.82122,1.82122,0,0,1-1.94,1.6881l-.3444-.0621-.326-.127-.3056-.1865a2.28644,2.28644,0,0,1-.4643-.5346l-.1437-.3289-.0805-.3398-.0136-.3495a2.19805,2.19805,0,0,1,.1908-.6914,1.86471,1.86471,0,0,1,1.7492-.9967l.3419.0638.3398.114.294.1981Z"/>
      </g>
      <polygon class="cls-2" points="48.095 18.72 52.424 26.552 61.33 27.427 55.218 33.964 57.138 42.705 49.033 38.911 41.314 43.438 42.417 34.558 35.725 28.615 44.512 26.92 48.095 18.72"/>
      <polygon class="cls-2" points="74.037 38.139 73.892 43.823 78.492 47.165 73.041 48.783 71.285 54.191 68.062 49.507 62.375 49.507 65.833 44.994 64.077 39.586 69.439 41.482 74.037 38.139"/>
      <polygon class="cls-2" points="34.568 42.271 35.315 47.908 40.38 50.488 35.251 52.94 34.363 58.556 30.445 54.434 24.83 55.326 27.539 50.327 24.958 45.261 30.548 46.292 34.568 42.271"/>
    </g>
    <rect class="cls-4" x="28.80026" y="173.0401" width="182.16" height="54.2401" rx="3.3483"/>
    <path class="cls-5" d="M103.05046,15.3604h33.8998a2.9279,2.9279,0,0,1,2.9279,2.9279V61.1087a2.9276,2.9276,0,0,1-2.9276,2.9276h-33.9001a2.9279,2.9279,0,0,1-2.9279-2.9279V18.2883A2.9279,2.9279,0,0,1,103.05046,15.3604Z"/>
    <g class="cls-6">
      <g>
        <path class="cls-7" d="M131.04056,44.3636c-3.5989-.8178-7.0342-1.7991-7.0342-1.7991l-3.5991.3271-3.5989-.3271s-3.435.9813-7.0342,1.7991c-3.5033.7963-5.6117,2.5243-5.7208,10.6146h32.7072C136.64356,46.9259,134.53706,45.1585,131.04056,44.3636Z"/>
        <path class="cls-8" d="M114.94406,43.0764l5.4632,4.0306,5.5049-4.0193c-1.16-.3103-1.9058-.5232-1.9058-.5232l-3.5991.3271-3.5989-.3271S116.08016,42.7723,114.94406,43.0764Z"/>
        <path class="cls-9" d="M116.16266,37.3079v5.5837l4.2327,2.7808,4.2327-2.7808V37.3303a6.88192,6.88192,0,0,1-4.2208,2.1257A6.90653,6.90653,0,0,1,116.16266,37.3079Z"/>
        <path class="cls-10" d="M125.51106,22.9881c-1.1886-.559-2.9364.4198-5.1038.4198-2.1671-.0002-3.9147-.9788-5.1032-.4198-1.1775.5542-2.5756,7.6952-2.6008,7.8262a11.40252,11.40252,0,0,0,3.4594,6.4936,6.90653,6.90653,0,0,0,4.2446,2.1481,6.88031,6.88031,0,0,0,4.2208-2.1257,11.4017,11.4017,0,0,0,3.4838-6.5143C128.09256,30.7168,126.69076,23.5437,125.51106,22.9881Z"/>
        <path class="cls-11" d="M112.70326,30.8143c.0255-.1312,1.4233-7.2717,2.6008-7.8262,1.1885-.559,2.9361.4198,5.1032.4198,2.1674-.0002,3.9152-.9788,5.1038-.4198,1.1797.5556,2.5815,7.7287,2.6008,7.8279l.0008.0045a12.99885,12.99885,0,0,0-.085-6.364c-.9791-2.7967-2.3069-5.3133-7.6204-5.3133-5.313,0-6.641,2.5169-7.6198,5.3133a12.99449,12.99449,0,0,0-.0856,6.364Z"/>
        <path class="cls-12" d="M135.81806,48.2805h0q.06375.17055.1236.351h.0003Q135.88241,48.45075,135.81806,48.2805Z"/>
        <path class="cls-13" d="M135.81806,48.2805h0q-.108-.2883-.2273-.5479l-.0003-.0003Q135.70986,47.99255,135.81806,48.2805Z"/>
        <path class="cls-13" d="M135.59046,47.7323h.0003c-.0919-.1998-.1885-.3875-.2906-.5646h-.0003Q135.45256,47.4329,135.59046,47.7323Z"/>
        <path class="cls-13" d="M135.29986,47.1677h.0003a5.78047,5.78047,0,0,0-.4005-.6072l-.0003-.0003A5.88148,5.88148,0,0,1,135.29986,47.1677Z"/>
        <path class="cls-13" d="M134.89936,46.5602l.0003.0003a5.08225,5.08225,0,0,0-.6188-.6832h-.0006A5.06234,5.06234,0,0,1,134.89936,46.5602Z"/>
        <path class="cls-13" d="M134.28026,45.877l.0006.0003a5.4735,5.4735,0,0,0-1.6288-1.0182l-.0025-.0011a5.47544,5.47544,0,0,1,1.6307,1.019Zm-3.1416-1.4907-.0017-.0006-.0961-.0221c-1.1582-.263-2.2995-.5434-3.3146-.8022h-.0002c1.015.2588,2.1563.5392,3.3145.8022Z"/>
        <path class="cls-13" d="M127.72486,43.5611h.0006c-.6696-.1706-1.2844-.3322-1.8128-.4734h-.0003c.5284.1412,1.1433.3028,1.8125.4734Zm3.4121.8246.0017.0006a9.67276,9.67276,0,0,1,1.5109.4717l.0025.0011A9.65245,9.65245,0,0,0,131.137,44.3857Z"/>
        <path class="cls-14" d="M136.76086,54.9782a21.70072,21.70072,0,0,0-.8192-6.3467h.0003A21.7127,21.7127,0,0,1,136.76086,54.9782Z"/>
        <path class="cls-13" d="M124.65066,42.6878l-.0226-.0026v.053l.0354.01Z"/>
        <polygon class="cls-15" points="124.628 42.685 124.651 42.688 124.628 42.577 124.628 42.685"/>
        <path class="cls-15" d="M124.89846,37.0678h0c-.0896.0896-.1794.1772-.2704.2625v.0006h0C124.71906,37.2453,124.80916,37.158,124.89846,37.0678Z"/>
        <path class="cls-15" d="M124.89846,37.0678h0q.1761-.176.3475-.3634l-.0003-.0003Q125.07436,36.8916,124.89846,37.0678Z"/>
        <path class="cls-15" d="M125.24566,36.7041l.0003.0003q.1629-.179.3212-.3671h-.0003Q125.40906,36.5257,125.24566,36.7041Z"/>
        <path class="cls-15" d="M125.56686,36.3373h.0003q.1518-.1803.2982-.369h-.0003Q125.71881,36.157,125.56686,36.3373Z"/>
        <path class="cls-15" d="M125.86506,35.9683h.0003q.1407-.18255.2767-.3722h0Q126.00631,35.78615,125.86506,35.9683Z"/>
        <path class="cls-15" d="M126.14206,35.5961h0c.0864-.1211.1715-.2444.2539-.3702h0Q126.27191,35.4146,126.14206,35.5961Z"/>
        <path class="cls-15" d="M126.396,35.2259h0q.12075-.18285.2353-.3717h0Q126.51651,35.0435,126.396,35.2259Z"/>
        <path class="cls-16" d="M126.63126,34.8542h0q.1119-.1845.2174-.3744Q126.74276,34.66985,126.63126,34.8542Z"/>
        <path class="cls-16" d="M126.84866,34.4798q.06045-.108.1185-.218-.0582.1101-.1185.218Zm.1191-.2191.0062-.0117-.0062.0117Zm.0071-.0136.0054-.01-.0054.01Zm.0073-.0139.0049-.0094-.0049.0094Zm.0071-.0131.0043-.0082-.0043.0082Zm.0071-.0141.0037-.0066-.0037.0066Zm.0077-.0139.0022-.0049-.0022.0049Zm.0071-.0139.0017-.0037-.0017.0037Zm.0068-.0133.0017-.0032-.0017.0032Zm.0073-.0148.0006-.0006Z"/>
        <path class="cls-16" d="M127.789,32.2634Zm.0025-.0088.0202-.0686-.0202.0686Z"/>
        <path class="cls-16" d="M127.81166,32.186h0c.0377-.1287.0725-.2588.1057-.3898h-.0003C127.88416,31.9272,127.84936,32.057,127.81166,32.186Z"/>
        <path class="cls-16" d="M128.007,31.4039h0q-.04125.1977-.0896.392Q127.96536,31.60165,128.007,31.4039Z"/>
        <path class="cls-16" d="M128.007,31.4039h0q.0408-.1956.074-.3943Q128.04766,31.2082,128.007,31.4039Z"/>
        <path class="cls-16" d="M128.081,31.0096c.011-.0643.0212-.129.0309-.1936h0v.0003Q128.09731,30.9132,128.081,31.0096Z"/>
        <path class="cls-17" d="M122.11316,23.2356h-.0003a10.17189,10.17189,0,0,1-1.3896.1655h0A10.21986,10.21986,0,0,0,122.11316,23.2356Z"/>
        <path class="cls-17" d="M122.11286,23.2356h.0003c.589-.1072,1.1352-.2407,1.6341-.3277C123.24816,22.9949,122.70186,23.1284,122.11286,23.2356Z"/>
        <path class="cls-17" d="M123.74726,22.9079l.1075-.0181-.1075.0181Zm1.7638.0802-.0088-.0039.0088.0039Zm-.0182-.0082-.0062-.0025.0062.0025Zm-.0068-.0031a2.04578,2.04578,0,0,0-.8481-.1613,2.04578,2.04578,0,0,1,.8481.1613Zm-.8555-.161.0068-.0003h0Z"/>
        <path class="cls-7" d="M120.72326,54.9782V46.8763l5.1891-3.7886c1.3303.3555,3.206.8391,5.1282,1.2759a5.85114,5.85114,0,0,1,4.9011,4.2679,21.70072,21.70072,0,0,1,.8192,6.3467Z"/>
        <path class="cls-8" d="M120.72326,46.8763V45.4569l3.9048-2.5653v-.1534l.0351.01.0363.1757,1.2129.1638Z"/>
        <path class="cls-18" d="M120.72326,45.4569V39.4396a7.34954,7.34954,0,0,0,3.9048-2.1093v.0006l-.0567.0527v4.9195l.0567.2738v.3147Z"/>
        <path class="cls-19" d="M120.72326,39.4396V23.4011a23.69971,23.69971,0,0,0,3.1315-.5113,4.91014,4.91014,0,0,1,.7758-.074l.0068-.0003h.0006a2.04578,2.04578,0,0,1,.8481.1613l.0006.0006.0062.0025.0094.0043.0088.0039h0c1.1797.5556,2.5815,7.7287,2.6008,7.8279a10.3487,10.3487,0,0,1-.3204,1.4386l-.0025.0088h0a11.04279,11.04279,0,0,1-.7631,1.8861l-.0006.0006-.0056.0116-.0017.0032-.0051.0096-.0017.0037-.0049.009-.0022.0049-.004.0073-.0037.0066-.0028.0059-.0043.0082-.0022.0037-.0049.0094-.0019.0039-.0054.01-.0009.0019-.0062.0117-.0006.0011a11.8246,11.8246,0,0,1-2.3391,3.0685h0A7.34954,7.34954,0,0,1,120.72326,39.4396Z"/>
        <path class="cls-16" d="M128.15946,30.6164l-.0006-.0002c-.0266.1247-.0442.1964-.0462.2038l.0003.0005h0S128.13106,30.7483,128.15946,30.6164Z"/>
        <path class="cls-16" d="M128.15886,30.6162l.0006.0002c.0212-.0995.0482-.2321.0774-.3937h-.0006C128.20706,30.3843,128.18016,30.5169,128.15886,30.6162Z"/>
        <path class="cls-16" d="M128.23626,30.2227h.0006c.0212-.1173.0436-.2497.066-.3951l-.0003-.0003C128.28016,29.9727,128.25776,30.1054,128.23626,30.2227Z"/>
        <path class="cls-16" d="M128.30256,29.8273l.0003.0003c.019-.1236.038-.2563.0564-.3972h-.0006C128.34056,29.5713,128.32186,29.704,128.30256,29.8273Z"/>
        <path class="cls-16" d="M128.35866,29.4304h.0006c.0162-.1267.032-.2599.0465-.3988h-.0006C128.39076,29.1705,128.37516,29.3037,128.35866,29.4304Z"/>
        <path class="cls-16" d="M128.40516,29.0316h.0006c.013-.1284.0252-.2622.036-.4l-.0003-.0003Q128.42526,28.83845,128.40516,29.0316Z"/>
        <path class="cls-16" d="M128.44146,28.6313h.0003c.0099-.1298.0187-.2639.0258-.4008h-.0003Q128.45661,28.43585,128.44146,28.6313Z"/>
        <path class="cls-20" d="M128.46726,28.2305h.0003c.0065-.1315.0119-.2659.015-.4028h-.0003Q128.47716,28.03305,128.46726,28.2305Z"/>
        <path class="cls-20" d="M128.48226,27.8277h.0003c.0029-.1326.004-.2676.0029-.4042h0C128.48626,27.5601,128.48546,27.6951,128.48226,27.8277Z"/>
        <path class="cls-20" d="M128.48546,27.4235h0q-.00135-.2007-.0094-.4059l-.0003-.0003Q128.48386,27.22265,128.48546,27.4235Z"/>
        <path class="cls-20" d="M128.47576,27.0173h.0003q-.00855-.20235-.0238-.4082h0Q128.46756,26.81445,128.47576,27.0173Z"/>
        <path class="cls-20" d="M128.45226,26.6091h0q-.0153-.20415-.0391-.4099h-.0003Q128.43671,26.405,128.45226,26.6091Z"/>
        <path class="cls-20" d="M128.41286,26.1992h.0003q-.02385-.20625-.0567-.4127h0C128.37826,25.9237,128.397,26.0617,128.41286,26.1992Z"/>
        <path class="cls-20" d="M128.35646,25.7865h0q-.03315-.20835-.0763-.4153h-.0003Q128.32336,25.5779,128.35646,25.7865Z"/>
        <path class="cls-20" d="M128.27986,25.3709l.0003.0003q-.04425-.21135-.1-.4189h-.0003Q128.23551,25.1602,128.27986,25.3709Z"/>
        <path class="cls-17" d="M128.17986,24.9523h.0003c-.038-.1423-.0808-.2832-.1273-.4227h-.0006Q128.12246,24.73885,128.17986,24.9523Z"/>
        <path class="cls-17" d="M128.05226,24.5296h.0006l-.025-.0731q-.062-.1773-.1261-.3529h-.0003q.0642.1755.1262.3529C128.03616,24.4806,128.04436,24.5052,128.05226,24.5296Z"/>
        <path class="cls-17" d="M127.90146,24.1038h.0003c-.0524-.1434-.1069-.2863-.1627-.4274h0C127.79466,23.8175,127.84906,23.9604,127.90146,24.1038Z"/>
        <path class="cls-17" d="M127.73906,23.6764h0q-.08415-.21435-.1755-.4241h-.0003Q127.65476,23.4623,127.73906,23.6764Z"/>
        <path class="cls-17" d="M127.56326,23.2523h.0003c-.0235-.0544-.0476-.1083-.072-.1621C127.51566,23.144,127.54006,23.1979,127.56326,23.2523Z"/>
        <path class="cls-21" d="M128.11266,30.82l-.0006-.0051-.0002.0014V30.816c-.0193-.0992-1.4211-7.2723-2.6008-7.8279h0l-.0088-.0039-.0094-.0043-.0062-.0025-.0006-.0006a2.04578,2.04578,0,0,0-.8481-.1613h-.0006l-.0068.0003a4.91343,4.91343,0,0,0-.7758.074,23.69971,23.69971,0,0,1-3.1315.5113V19.148c4.1885.0822,5.7946,1.7963,6.7683,3.9422.1996.4408.3728.8997.5361,1.3663A12.97672,12.97672,0,0,1,128.11266,30.82Z"/>
      </g>
    </g>
    <path class="cls-22" d="M103.05046,15.3604h33.8998a2.9279,2.9279,0,0,1,2.9279,2.9279V61.1087a2.9276,2.9276,0,0,1-2.9276,2.9276h-33.9001a2.9279,2.9279,0,0,1-2.9279-2.9279V18.2883A2.9279,2.9279,0,0,1,103.05046,15.3604Z"/>
    <path class="cls-23" d="M103.05016,54.237h36.716v2.0993a2.86367,2.86367,0,0,1,.1117.7946v4.0116a2.90193,2.90193,0,0,1-2.8936,2.8938h-33.9341a2.90212,2.90212,0,0,1-2.8939-2.8938V54.237Z"/>
    <path class="cls-24" d="M102.90186,18.8932a1.48843,1.48843,0,0,0,.4737-.0632.8331.8331,0,0,0,.3022-.1715.86777.86777,0,0,0,.1896-.2526,2.30481,2.30481,0,0,0,.1262-.3067h.6678v6.3153h-.9924V19.5968h-.7671Z"/>
    <path class="cls-5" d="M79.80346,68.5647h33.8996a2.9282,2.9282,0,0,1,2.9282,2.9282v42.8204a2.9276,2.9276,0,0,1-2.9276,2.9276H79.80346a2.9279,2.9279,0,0,1-2.9279-2.9279V71.4926A2.9279,2.9279,0,0,1,79.80346,68.5647Z"/>
    <g class="cls-25">
      <g>
        <path class="cls-7" d="M107.79366,97.5682c-3.5989-.8178-7.0339-1.7991-7.0339-1.7991l-3.5992.3271-3.5991-.3271s-3.435.9813-7.0339,1.7991c-3.5036.7963-5.612,2.5243-5.7212,10.6146h32.7073C113.39686,100.1305,111.29046,98.3631,107.79366,97.5682Z"/>
        <path class="cls-8" d="M91.69706,96.281l5.4635,4.0306,5.5049-4.0195c-1.1602-.3101-1.9057-.523-1.9057-.523l-3.5992.3271-3.5991-.3271S92.83356,95.9769,91.69706,96.281Z"/>
        <path class="cls-9" d="M92.91576,90.5125v5.5837l4.2326,2.7808,4.2327-2.7808V90.5349a6.881,6.881,0,0,1-4.2205,2.1257A6.9088,6.9088,0,0,1,92.91576,90.5125Z"/>
        <path class="cls-10" d="M102.26406,76.1927c-1.1885-.559-2.9361.4198-5.1035.4198-2.167-.0002-3.9149-.9788-5.1035-.4198-1.1772.5542-2.5755,7.6952-2.6007,7.8262a11.40544,11.40544,0,0,0,3.4594,6.4936,6.9088,6.9088,0,0,0,4.2448,2.1481,6.881,6.881,0,0,0,4.2205-2.1257,11.40112,11.40112,0,0,0,3.4838-6.5143C104.84586,83.9214,103.44416,76.7483,102.26406,76.1927Z"/>
        <path class="cls-11" d="M89.45636,84.0189c.0255-.1312,1.4235-7.272,2.6007-7.8262,1.1886-.559,2.9365.4198,5.1035.4198,2.1674-.0002,3.915-.9788,5.1035-.4198,1.1801.5556,2.5818,7.7287,2.6008,7.8279l.0012.0045a12.99582,12.99582,0,0,0-.0854-6.364c-.9791-2.7967-2.3068-5.3133-7.6201-5.3133-5.3129,0-6.6413,2.5169-7.6201,5.3133a12.99284,12.99284,0,0,0-.0853,6.364Z"/>
        <path class="cls-12" d="M112.57146,101.4851h-.0003q.06375.17055.1239.351h0Q112.63551,101.65535,112.57146,101.4851Z"/>
        <path class="cls-13" d="M112.57116,101.4851h.0003q-.108-.2883-.2276-.5479l-.0003-.0003Q112.463,101.19715,112.57116,101.4851Z"/>
        <path class="cls-13" d="M112.34356,100.9369h.0003q-.13785-.2997-.2906-.5646l-.0003-.0003Q112.20566,100.63765,112.34356,100.9369Z"/>
        <path class="cls-13" d="M112.053,100.372l.0003.0003a5.81216,5.81216,0,0,0-.4005-.6072l-.0003-.0003A5.8601,5.8601,0,0,1,112.053,100.372Z"/>
        <path class="cls-13" d="M111.65246,99.7648l.0003.0003a5.08393,5.08393,0,0,0-.6186-.6835h-.0005A5.11541,5.11541,0,0,1,111.65246,99.7648Z"/>
        <path class="cls-13" d="M111.03366,99.0816h.0005a5.48,5.48,0,0,0-1.6287-1.0179l-.0026-.0011a5.47718,5.47718,0,0,1,1.6308,1.019Zm-3.1417-1.4907-.0017-.0006-.0961-.0221c-1.1582-.263-2.2997-.5434-3.3148-.8022h-.0003c1.0151.2588,2.1566.5392,3.3146.8022Z"/>
        <path class="cls-13" d="M104.47826,96.7657h.0003c-.6696-.1706-1.2841-.3322-1.8128-.4734h0c.5284.1412,1.1429.3028,1.8125.4734Zm3.412.8246.0017.0006a9.6895,9.6895,0,0,1,1.5109.4717l.0026.0011A9.67029,9.67029,0,0,0,107.89026,97.5903Z"/>
        <path class="cls-14" d="M113.51426,108.1828a21.70415,21.70415,0,0,0-.8192-6.3467h0A21.70415,21.70415,0,0,1,113.51426,108.1828Z"/>
        <path class="cls-13" d="M101.40406,95.8924l-.023-.0026v.053l.0355.01Z"/>
        <polygon class="cls-15" points="101.381 95.89 101.404 95.892 101.381 95.782 101.381 95.89"/>
        <path class="cls-15" d="M101.65186,90.2724h-.0003q-.1344.1344-.2705.2625v.0006h0C101.47206,90.4499,101.56226,90.3626,101.65186,90.2724Z"/>
        <path class="cls-15" d="M101.65156,90.2724h.0003q.1755-.176.3472-.3637h-.0003Q101.82746,90.0962,101.65156,90.2724Z"/>
        <path class="cls-15" d="M101.99876,89.9087h.0003q.1629-.1785.3214-.3668h-.0002Q102.162,89.7303,101.99876,89.9087Z"/>
        <path class="cls-15" d="M102.32026,89.5419h.0002q.1515-.1803.298-.369h-.0003Q102.47191,89.3616,102.32026,89.5419Z"/>
        <path class="cls-15" d="M102.61816,89.1729h.0003q.14115-.18255.2766-.3722h0Q102.75946,88.99075,102.61816,89.1729Z"/>
        <path class="cls-15" d="M102.89506,88.8007h0q.12975-.18165.2543-.3702h0Q103.02471,88.6192,102.89506,88.8007Z"/>
        <path class="cls-15" d="M103.14936,88.4305h0q.1203-.18285.235-.3717h0Q103.26991,88.24765,103.14936,88.4305Z"/>
        <path class="cls-16" d="M103.38436,88.0588h0q.11175-.1845.2174-.3744Q103.49586,87.87445,103.38436,88.0588Z"/>
        <path class="cls-16" d="M103.60176,87.6844c.0405-.0723.0797-.1449.1185-.218-.0388.0731-.078.1457-.1185.218Zm.1193-.2191.006-.0117-.006.0117Zm.0071-.0136.0051-.01-.0051.01Zm.0074-.0139.0045-.0094-.0045.0094Zm.0068-.0131.0045-.0082-.0045.0082Zm.0071-.0141.004-.0066-.004.0066Zm.0076-.0139.0026-.0049-.0026.0049Zm.0071-.0139.0017-.0037-.0017.0037Zm.0071-.0136.0014-.0029-.0014.0029Zm.0074-.0145.0003-.0006Z"/>
        <path class="cls-16" d="M104.54206,85.4677Zm.0025-.0085.0201-.0686-.0201.0686Z"/>
        <path class="cls-16" d="M104.56466,85.3906h0q.05655-.19305.1058-.3898h-.0003Q104.62126,85.1973,104.56466,85.3906Z"/>
        <path class="cls-16" d="M104.76026,84.6085h0q-.04125.1977-.0898.392Q104.71891,84.80625,104.76026,84.6085Z"/>
        <path class="cls-16" d="M104.76026,84.6085h0q.0408-.1956.074-.3943Q104.80111,84.4128,104.76026,84.6085Z"/>
        <path class="cls-16" d="M104.83426,84.2142c.0108-.0643.0213-.129.0306-.1936h0C104.85556,84.0855,104.84506,84.1499,104.83426,84.2142Z"/>
        <path class="cls-17" d="M98.86616,76.4402H98.866a10.19507,10.19507,0,0,1-1.3893.1655h0A10.20814,10.20814,0,0,0,98.86616,76.4402Z"/>
        <path class="cls-17" d="M98.866,76.4402h.0002c.5894-.1072,1.1353-.2407,1.6345-.3277C100.00116,76.1995,99.45526,76.333,98.866,76.4402Z"/>
        <path class="cls-17" d="M100.50066,76.1125l.1072-.0181-.1072.0181Zm1.7634.0802-.0088-.0039.0088.0039Zm-.0181-.0082-.006-.0025.006.0025Zm-.0068-.0031a2.04484,2.04484,0,0,0-.8479-.1613,2.04484,2.04484,0,0,1,.8479.1613Zm-.8552-.161.0068-.0003h0Z"/>
        <path class="cls-7" d="M97.47666,108.1828v-8.1019l5.1891-3.7886c1.3303.3555,3.2057.8391,5.1279,1.2759a5.85117,5.85117,0,0,1,4.9014,4.2679,21.70415,21.70415,0,0,1,.8192,6.3467Z"/>
        <path class="cls-8" d="M97.47666,100.0809V98.6615l3.9044-2.5653v-.1534l.0352.01.0363.1757,1.2132.1638Z"/>
        <path class="cls-18" d="M97.47666,98.6615V92.6439a7.34888,7.34888,0,0,0,3.9044-2.109v.0006c-.0187.0175-.0374.0351-.0567.0524v4.9198l.0567.2738v.3147Z"/>
        <path class="cls-19" d="M97.47666,92.6439V76.6057a23.70289,23.70289,0,0,0,3.1312-.5113,4.87854,4.87854,0,0,1,.7761-.074l.0068-.0003h.0005a2.04484,2.04484,0,0,1,.8479.1613l.0008.0006.006.0025.0093.0043.0088.0039h0c1.1801.5556,2.5818,7.7287,2.6008,7.8279a10.29132,10.29132,0,0,1-.3203,1.4386l-.0025.0085h0a11.00361,11.00361,0,0,1-.7631,1.8864l-.0003.0006-.006.0116-.0014.0029-.0054.0099-.0017.0037-.0045.009-.0026.0049-.0036.0073-.004.0066-.0026.0059-.0045.0082-.0023.0037-.0045.0094-.0023.0039-.0051.01-.0011.0019-.006.0117-.0008.0011a11.82269,11.82269,0,0,1-2.3392,3.0685h0A7.34888,7.34888,0,0,1,97.47666,92.6439Z"/>
        <path class="cls-16" d="M104.91246,83.8208h-.0002c-.027.1247-.0445.1964-.0462.2038l.0002.0005h0S104.88446,83.9526,104.91246,83.8208Z"/>
        <path class="cls-16" d="M104.91226,83.8208h.0002c.0213-.0993.0482-.2319.0774-.3935h-.0003C104.96016,83.5889,104.93316,83.7215,104.91226,83.8208Z"/>
        <path class="cls-16" d="M104.98956,83.4273h.0003c.0213-.1176.0437-.2497.0661-.3951l-.0003-.0003C105.03326,83.1773,105.01086,83.3097,104.98956,83.4273Z"/>
        <path class="cls-16" d="M105.05566,83.0319l.0003.0003c.0193-.1236.0382-.2563.0564-.3972h-.0003C105.094,82.7759,105.075,82.9086,105.05566,83.0319Z"/>
        <path class="cls-16" d="M105.11206,82.635h.0003c.0161-.1267.032-.2599.0465-.3988h-.0006C105.14406,82.3751,105.12826,82.5083,105.11206,82.635Z"/>
        <path class="cls-16" d="M105.15826,82.2362h.0006c.013-.1284.0255-.2622.036-.4l-.0003-.0003C105.18406,81.974,105.17156,82.1075,105.15826,82.2362Z"/>
        <path class="cls-16" d="M105.19456,81.8359h.0003c.0102-.1301.019-.2642.0261-.4008h-.0003C105.21356,81.5717,105.20506,81.7058,105.19456,81.8359Z"/>
        <path class="cls-20" d="M105.22066,81.4351h.0003q.00975-.19725.0147-.4028h-.0003Q105.23071,81.23765,105.22066,81.4351Z"/>
        <path class="cls-20" d="M105.23536,81.0323h.0003q.00465-.19935.0031-.4042h-.0003Q105.23981,80.833,105.23536,81.0323Z"/>
        <path class="cls-20" d="M105.23846,80.6281h.0003c-.0011-.1338-.004-.2693-.0096-.4059l-.0003-.0003C105.23456,80.3588,105.23736,80.494,105.23846,80.6281Z"/>
        <path class="cls-20" d="M105.22886,80.2219h.0003c-.0057-.1349-.0133-.271-.0238-.4082h0Q105.22111,80.019,105.22886,80.2219Z"/>
        <path class="cls-20" d="M105.20536,79.8137h0q-.0153-.20415-.0389-.4099h-.0003Q105.19,79.6096,105.20536,79.8137Z"/>
        <path class="cls-20" d="M105.16616,79.4038h.0003q-.0237-.2067-.0567-.4127h0Q105.14216,79.1969,105.16616,79.4038Z"/>
        <path class="cls-20" d="M105.10976,78.9911h0c-.0224-.1389-.0476-.2775-.0765-.4156h-.0003C105.06216,78.7136,105.08736,78.8522,105.10976,78.9911Z"/>
        <path class="cls-20" d="M105.033,78.5755h.0003q-.04425-.2109-.1001-.4186h-.0002Q104.98861,78.3648,105.033,78.5755Z"/>
        <path class="cls-17" d="M104.933,78.1569h.0002q-.05685-.21345-.1272-.4227h-.0003Q104.87571,77.94345,104.933,78.1569Z"/>
        <path class="cls-17" d="M104.80566,77.7342h.0003c-.0083-.0244-.0162-.049-.025-.0731-.0414-.1182-.083-.2359-.1258-.3529h-.0006q.0642.1755.1261.3529C104.78946,77.6852,104.79746,77.7098,104.80566,77.7342Z"/>
        <path class="cls-17" d="M104.65456,77.3084h.0006q-.0792-.21555-.163-.4274h0Q104.57586,77.09265,104.65456,77.3084Z"/>
        <path class="cls-17" d="M104.49216,76.881h0q-.0843-.21435-.1752-.4241h-.0003Q104.40771,76.6669,104.49216,76.881Z"/>
        <path class="cls-17" d="M104.31666,76.4569h.0003c-.0238-.0544-.0476-.1083-.0723-.1621C104.26906,76.3486,104.29316,76.4025,104.31666,76.4569Z"/>
        <path class="cls-21" d="M104.86606,84.0246l-.0009-.0051-.0003.0011h0c-.019-.0992-1.4207-7.2723-2.6008-7.8279h0l-.0088-.0039-.0093-.0043-.006-.0025-.0008-.0006a2.04484,2.04484,0,0,0-.8479-.1613h-.0005l-.0068.0003a4.88179,4.88179,0,0,0-.7761.074,23.70289,23.70289,0,0,1-3.1312.5113V72.3526c4.1882.0822,5.7946,1.7963,6.768,3.9422.1998.4408.3728.8994.536,1.3663A12.97763,12.97763,0,0,1,104.86606,84.0246Z"/>
      </g>
    </g>
    <path class="cls-22" d="M79.80346,68.5647h33.8996a2.9282,2.9282,0,0,1,2.9282,2.9282v42.8204a2.9276,2.9276,0,0,1-2.9276,2.9276H79.80346a2.9279,2.9279,0,0,1-2.9279-2.9279V71.4926A2.9279,2.9279,0,0,1,79.80346,68.5647Z"/>
    <path class="cls-23" d="M79.80326,107.4416h36.7163v2.0993a2.87866,2.87866,0,0,1,.1117.7946v4.0116a2.90238,2.90238,0,0,1-2.8939,2.8938H79.80326a2.90214,2.90214,0,0,1-2.8937-2.8938v-6.9055Z"/>
    <path class="cls-24" d="M81.00826,72.8555a.85741.85741,0,0,0-.1398-.5729.48927.48927,0,0,0-.3744-.1488.5068.5068,0,0,0-.3745.14.67108.67108,0,0,0-.1397.4825v.6766h-.9383v-.6134a1.68633,1.68633,0,0,1,.3744-1.1772,1.69223,1.69223,0,0,1,2.2105,0,1.68771,1.68771,0,0,1,.3742,1.1772,2.5936,2.5936,0,0,1-.1579.9292,3.60966,3.60966,0,0,1-.3923.758,5.04752,5.04752,0,0,1-.5052.627q-.27075.2841-.4872.5411a2.61961,2.61961,0,0,0-.343.51.8564.8564,0,0,0-.0811.5321h1.8765v.9022h-2.8689v-.7758a2.13114,2.13114,0,0,1,.1443-.8122,2.88447,2.88447,0,0,1,.3654-.6448,5.56206,5.56206,0,0,1,.4736-.5505,5.84232,5.84232,0,0,0,.4737-.5457,2.856,2.856,0,0,0,.3654-.6315A2.05581,2.05581,0,0,0,81.00826,72.8555Z"/>
    <path class="cls-5" d="M126.29766,68.5647h33.8992a2.9279,2.9279,0,0,1,2.9279,2.9279v42.8207a2.9276,2.9276,0,0,1-2.9276,2.9276h-33.9001a2.9276,2.9276,0,0,1-2.9276-2.9276V71.4929A2.9282,2.9282,0,0,1,126.29766,68.5647Z"/>
    <g class="cls-26">
      <g>
        <path class="cls-7" d="M134.07926,98.0379c3.4277-.7787,6.6994-1.7135,6.6994-1.7135l3.4277.3118,3.4279-.3118s3.2715.9348,6.6992,1.7135c3.3369.7586,5.345,2.4041,5.4487,10.1098h-31.1505C128.74306,100.4783,130.74916,98.7951,134.07926,98.0379Z"/>
        <path class="cls-8" d="M149.41,96.8122l-5.2036,3.8387-5.2427-3.8282c1.1047-.2954,1.815-.4983,1.815-.4983l3.4277.3118,3.4279-.3118S148.32766,96.5225,149.41,96.8122Z"/>
        <path class="cls-27" d="M148.24916,91.3181v5.3181l-4.0312,2.6484-4.0311-2.6484V91.3394a6.55449,6.55449,0,0,0,4.0195,2.0248A6.57813,6.57813,0,0,0,148.24916,91.3181Z"/>
        <path class="cls-27" d="M139.34576,77.6801c1.1319-.5327,2.7964.3994,4.8606.3994s3.7287-.9321,4.8606-.3994c1.1214.5275,2.4531,7.3287,2.4772,7.4537a10.86143,10.86143,0,0,1-3.295,6.1843,6.57813,6.57813,0,0,1-4.0428,2.0461,6.55288,6.55288,0,0,1-4.0195-2.0248,10.85986,10.85986,0,0,1-3.3183-6.2042C136.88706,85.0408,138.22186,78.209,139.34576,77.6801Z"/>
        <path class="cls-11" d="M151.54416,85.1338c-.0244-.1253-1.3558-6.9259-2.4772-7.4537-1.1319-.5327-2.7964.3994-4.8606.3994s-3.7287-.9321-4.8606-.3994c-1.1239.5289-2.4587,7.3607-2.4772,7.4551l-.0008.0042a12.37853,12.37853,0,0,1,.0811-6.061c.9326-2.6637,2.1971-5.0604,7.2575-5.0604s6.3252,2.397,7.2575,5.0604a12.37653,12.37653,0,0,1,.0814,6.061Z"/>
        <path class="cls-12" d="M129.52916,101.7686h.0003q-.06135.162-.118.3342h-.0002C129.44916,101.988,129.48856,101.8769,129.52916,101.7686Z"/>
        <path class="cls-13" d="M129.52946,101.7686h-.0003q.1029-.27465.2165-.5219l.0003-.0002Q129.63241,101.4943,129.52946,101.7686Z"/>
        <path class="cls-13" d="M129.746,101.2465h-.0003c.0876-.1905.1798-.3691.277-.5378v-.0003C129.92566,100.8771,129.83326,101.056,129.746,101.2465Z"/>
        <path class="cls-13" d="M130.02266,100.7084v.0003a5.49929,5.49929,0,0,1,.3812-.5785h.0003A5.62459,5.62459,0,0,0,130.02266,100.7084Z"/>
        <path class="cls-13" d="M130.40416,100.1302h-.0003a4.83788,4.83788,0,0,1,.5894-.6506h.0005A4.84089,4.84089,0,0,0,130.40416,100.1302Z"/>
        <path class="cls-13" d="M130.99376,99.4793l-.0005.0003a5.21333,5.21333,0,0,1,1.5511-.9697l.0025-.0009a5.22475,5.22475,0,0,0-1.5531.9703Zm2.992-1.4196.0017-.0005.0916-.0213c1.1029-.2506,2.19-.5173,3.1569-.7639h.0003c-.9669.2466-2.054.5133-3.157.7639Z"/>
        <path class="cls-13" d="M137.23706,97.2737h-.0005c.6378-.1624,1.2234-.3163,1.7266-.4507h.0002c-.5034.1344-1.0887.2883-1.7263.4507Zm-3.2496.7855-.0017.0005a9.22684,9.22684,0,0,0-1.4389.4493l-.0025.0009A9.2168,9.2168,0,0,1,133.98746,98.0592Z"/>
        <path class="cls-14" d="M128.63116,108.1477a20.66432,20.66432,0,0,1,.7803-6.0449h-.0002A20.6723,20.6723,0,0,0,128.63116,108.1477Z"/>
        <path class="cls-13" d="M140.165,96.4417l.0219-.0022v.0507l-.034.0094Z"/>
        <polygon class="cls-15" points="140.187 96.44 140.165 96.442 140.187 96.337 140.187 96.44"/>
        <path class="cls-15" d="M139.92886,91.0896h.0003c.0853.0851.1709.1687.2577.2498v.0005h0Q140.05666,91.218,139.92886,91.0896Z"/>
        <path class="cls-15" d="M139.92916,91.0896h-.0003q-.1671-.16785-.3305-.3464V90.743Q139.76171,90.9215,139.92916,91.0896Z"/>
        <path class="cls-15" d="M139.59836,90.743v.0002q-.15525-.1704-.3061-.3495h.0002Q139.44306,90.57325,139.59836,90.743Z"/>
        <path class="cls-15" d="M139.29246,90.3937h-.0002q-.1446-.17175-.2841-.3515h.0003Q139.148,90.22205,139.29246,90.3937Z"/>
        <path class="cls-15" d="M139.00846,90.0422h-.0003q-.13395-.17385-.2633-.3543h0Q138.87416,89.86865,139.00846,90.0422Z"/>
        <path class="cls-15" d="M138.74486,89.6879h0q-.12375-.1731-.2421-.3526h0Q138.62141,89.5147,138.74486,89.6879Z"/>
        <path class="cls-15" d="M138.50276,89.3353h0q-.11475-.1743-.2239-.3541h0Q138.38806,89.16105,138.50276,89.3353Z"/>
        <path class="cls-16" d="M138.27886,88.9812h0q-.1068-.1755-.2072-.3566Q138.17231,88.8058,138.27886,88.9812Z"/>
        <path class="cls-16" d="M138.07166,88.6246c-.0383-.0686-.0757-.1377-.1129-.2077.0372.07.0746.1391.1129.2077Zm-.1134-.2086-.006-.0111.006.0111Zm-.0068-.013-.0051-.0097.0051.0097Zm-.0068-.0131-.0048-.009.0048.009Zm-.0068-.0125-.0043-.0079.0043.0079Zm-.0068-.0136-.0037-.0062.0037.0062Zm-.0071-.013-.0026-.0048.0026.0048Zm-.0068-.0136-.0017-.0034.0017.0034Zm-.0068-.0128-.0014-.0028.0014.0028Zm-.0068-.0138-.0006-.0006Z"/>
        <path class="cls-16" d="M137.17616,86.5137Zm-.0023-.0083-.0192-.0654.0192.0654Z"/>
        <path class="cls-16" d="M137.15466,86.44h0q-.0537-.18375-.1007-.3711h.0003Q137.10106,86.256,137.15466,86.44Z"/>
        <path class="cls-16" d="M136.96866,85.695h0q.03915.1884.0853.3736Q137.00806,85.8832,136.96866,85.695Z"/>
        <path class="cls-16" d="M136.96866,85.695h0q-.03915-.18615-.0706-.3753Q136.92956,85.50855,136.96866,85.695Z"/>
        <path class="cls-16" d="M136.89806,85.3197c-.0105-.0615-.0201-.123-.0295-.1845h0v.0003C136.878,85.197,136.88756,85.2582,136.89806,85.3197Z"/>
        <path class="cls-17" d="M142.58206,77.9153h0a9.66751,9.66751,0,0,0,1.3235.1579h0A9.65809,9.65809,0,0,1,142.58206,77.9153Z"/>
        <path class="cls-17" d="M142.58206,77.9153h0c-.5612-.102-1.0814-.2287-1.5567-.3118C141.501,77.6866,142.02116,77.8133,142.58206,77.9153Z"/>
        <path class="cls-17" d="M141.02536,77.6035l-.1021-.0173.1021.0173Zm-1.6796.0766.0085-.004-.0085.004Zm.0173-.008.0057-.0025-.0057.0025Zm.0065-.0028a1.94155,1.94155,0,0,1,.8076-.1536,1.94155,1.94155,0,0,0-.8076.1536Zm.8147-.1536h0Z"/>
        <path class="cls-7" d="M143.90556,108.1477v-7.7168l-4.9422-3.6079c-1.267.3384-3.0532.7991-4.8841,1.2149a5.57274,5.57274,0,0,0-4.6678,4.0649,20.66432,20.66432,0,0,0-.7803,6.0449Z"/>
        <path class="cls-8" d="M143.90556,100.4309V99.0794l-3.7187-2.4432v-.146l-.0338.0094-.0345.1672-1.1552.1562Z"/>
        <path class="cls-28" d="M143.90556,99.0794V93.3483a6.99935,6.99935,0,0,1-3.7187-2.0089v.0005c.0178.0168.0357.0338.0538.0502v4.6854l-.0538.2611v.2996Z"/>
        <path class="cls-28" d="M143.90556,93.3483V78.0732a22.60636,22.60636,0,0,1-2.9823-.487,4.6656,4.6656,0,0,0-.739-.0705h-.0071a1.94155,1.94155,0,0,0-.8076.1536l-.0008.0003-.0057.0025-.0088.004-.0085.004h0c-1.1239.5289-2.4587,7.3607-2.4772,7.4551a9.8536,9.8536,0,0,0,.3053,1.3702l.0023.0083h0a10.49791,10.49791,0,0,0,.7268,1.7963l.0006.0006.0054.011.0014.0028.0051.0094.0017.0034.0042.0088.0026.0048.0034.0068.0037.0062.0025.0057.0043.0079.002.0035.0048.009.0017.0034.0051.0097.0008.0019.006.0111.0005.0009a11.26412,11.26412,0,0,0,2.2281,2.9225h0A6.99935,6.99935,0,0,0,143.90556,93.3483Z"/>
        <path class="cls-16" d="M136.82326,84.945l.0006-.0003c.0255.1188.0422.1874.0439.1942l-.0003.0005h0S136.85016,85.0706,136.82326,84.945Z"/>
        <path class="cls-16" d="M136.82386,84.9447l-.0006.0003c-.0201-.0947-.0457-.2211-.0737-.375h.0005C136.77786,84.7239,136.80366,84.8503,136.82386,84.9447Z"/>
        <path class="cls-16" d="M136.75006,84.57h-.0005c-.0201-.1117-.0414-.2379-.0627-.3762v-.0003C136.70846,84.3318,136.72966,84.4583,136.75006,84.57Z"/>
        <path class="cls-16" d="M136.68686,84.1935v.0003c-.0184-.1176-.0362-.2441-.0538-.3784h.0005C136.65086,83.9497,136.66876,84.0762,136.68686,84.1935Z"/>
        <path class="cls-16" d="M136.63356,83.8154h-.0005c-.0153-.1205-.0306-.2475-.0442-.3796h.0005C136.603,83.5679,136.61806,83.6949,136.63356,83.8154Z"/>
        <path class="cls-16" d="M136.58936,83.4358h-.0005c-.0125-.1224-.0241-.25-.0343-.381l.0002-.0002C136.56476,83.1858,136.57666,83.3131,136.58936,83.4358Z"/>
        <path class="cls-16" d="M136.55476,83.0546h-.0002c-.0097-.1239-.0179-.2515-.0247-.3819h.0003Q136.53991,82.8683,136.55476,83.0546Z"/>
        <path class="cls-20" d="M136.53016,82.6727h-.0003c-.0062-.1253-.0113-.2531-.0142-.3835h.0003Q136.52061,82.4848,136.53016,82.6727Z"/>
        <path class="cls-20" d="M136.516,82.2892h-.0003q-.0042-.1896-.0028-.3849h.0003C136.512,82.0344,136.51316,82.1628,136.516,82.2892Z"/>
        <path class="cls-20" d="M136.51316,81.9043h-.0003c.0008-.1276.0037-.2569.0091-.387h.0002Q136.51421,81.71245,136.51316,81.9043Z"/>
        <path class="cls-20" d="M136.52216,81.5173h-.0002c.0051-.1284.0127-.2582.0224-.3886h0Q136.52981,81.3243,136.52216,81.5173Z"/>
        <path class="cls-20" d="M136.54436,81.1287h0c.0099-.1298.0221-.2599.0374-.3906h.0003Q136.559,80.93415,136.54436,81.1287Z"/>
        <path class="cls-20" d="M136.58206,80.7381h-.0003q.0225-.1965.0538-.3932h0Q136.60451,80.5414,136.58206,80.7381Z"/>
        <path class="cls-20" d="M136.63556,80.3449h0c.0213-.1321.0454-.2642.0729-.3954h.0003C136.681,80.0807,136.65686,80.2128,136.63556,80.3449Z"/>
        <path class="cls-20" d="M136.70876,79.9492l-.0003.0003q.042-.20115.0952-.3991h.0003Q136.75086,79.74855,136.70876,79.9492Z"/>
        <path class="cls-17" d="M136.804,79.5504h-.0003q.05445-.203.1213-.4026h.0003Q136.85851,79.3473,136.804,79.5504Z"/>
        <path class="cls-17" d="M136.92526,79.1478h-.0003l.0236-.0694q.0591-.16875.1202-.3362h.0002q-.06075.1671-.1201.3362C136.94056,79.1014,136.933,79.1246,136.92526,79.1478Z"/>
        <path class="cls-17" d="M137.069,78.7425h-.0002q.07515-.2049.155-.4074h0Q137.14426,78.53715,137.069,78.7425Z"/>
        <path class="cls-17" d="M137.22376,78.3351h0c.0536-.1357.1092-.2707.167-.4036h.0003Q137.30421,78.1313,137.22376,78.3351Z"/>
        <path class="cls-17" d="M137.39106,77.9315h-.0003c.0227-.0519.0453-.1032.0686-.1545C137.43636,77.8283,137.41346,77.8796,137.39106,77.9315Z"/>
        <path class="cls-21" d="M136.86776,85.1389l.0008-.0049v.0012c.0185-.0944,1.3533-6.9262,2.4772-7.4551h0l.0085-.004.0088-.004.0057-.0025.0008-.0003a1.94155,1.94155,0,0,1,.8076-.1536h.0071a4.66887,4.66887,0,0,1,.739.0705,22.5898,22.5898,0,0,0,2.9823.487V74.0225c-3.9892.0783-5.519,1.711-6.4462,3.7545-.1899.4198-.3549.8569-.5105,1.3014A12.35957,12.35957,0,0,0,136.86776,85.1389Z"/>
      </g>
    </g>
    <path class="cls-22" d="M126.29766,68.5647h33.8992a2.9279,2.9279,0,0,1,2.9279,2.9279v42.8207a2.9276,2.9276,0,0,1-2.9276,2.9276h-33.9001a2.9276,2.9276,0,0,1-2.9276-2.9276V71.4929A2.9282,2.9282,0,0,1,126.29766,68.5647Z"/>
    <path class="cls-23" d="M126.29676,107.4416h36.7163v2.0993a2.8749,2.8749,0,0,1,.1117.7946v4.0116a2.90232,2.90232,0,0,1-2.8939,2.8938h-33.9341a2.90212,2.90212,0,0,1-2.8936-2.8938v-6.9055Z"/>
    <path class="cls-24" d="M127.44766,72.8555a.85741.85741,0,0,0-.1398-.5729.48912.48912,0,0,0-.3744-.1488.5068.5068,0,0,0-.3745.14.67155.67155,0,0,0-.1397.4825v.4059h-.9383v-.3427a1.68587,1.68587,0,0,1,.3745-1.1772,1.69209,1.69209,0,0,1,2.2104,0,1.68723,1.68723,0,0,1,.3742,1.1772v.1624a1.248,1.248,0,0,1-.6945,1.2991.99876.99876,0,0,1,.5366.5006,1.94126,1.94126,0,0,1,.1579.8258v.496a1.68716,1.68716,0,0,1-.3742,1.1773,1.69241,1.69241,0,0,1-2.2104,0,1.68581,1.68581,0,0,1-.3745-1.1773v-.5232h.9383v.5864a.67288.67288,0,0,0,.1397.4828.50741.50741,0,0,0,.3745.1397.49778.49778,0,0,0,.3744-.1442.83809.83809,0,0,0,.1398-.5684v-.4963a.9704.9704,0,0,0-.1534-.6225.61737.61737,0,0,0-.496-.1806h-.3339v-.902h.388a.62435.62435,0,0,0,.4374-.1443.69194.69194,0,0,0,.1579-.5232Z"/>
    <rect class="cls-29" x="54.46826" y="122.1863" width="39.7556" height="48.6762" rx="2.9279"/>
    <path class="cls-30" d="M57.39586,161.0631H94.112v2.0994a2.87491,2.87491,0,0,1,.1117.7943v4.0118a2.902,2.902,0,0,1-2.8939,2.8936H57.39586a2.90186,2.90186,0,0,1-2.8938-2.8936v-6.9055Z"/>
    <path class="cls-24" d="M56.39956,129.1924l1.8042-4.2673h1.0826v4.2673h.4691v.9022h-.4691v1.1458H58.294v-1.1458h-1.8944v-.9022Zm1.8944,0v-2.3366l-.9834,2.3366Z"/>
    <rect class="cls-29" x="100.25776" y="122.1863" width="39.7556" height="48.6762" rx="2.9279"/>
    <path class="cls-30" d="M103.18536,161.0631h36.716v2.0994a2.86,2.86,0,0,1,.1117.7943v4.0118a2.90182,2.90182,0,0,1-2.8936,2.8936h-33.9341a2.90208,2.90208,0,0,1-2.8939-2.8936v-6.9055Z"/>
    <path class="cls-24" d="M103.31686,129.2014v.5865a.65362.65362,0,0,0,.1398.4782.58581.58581,0,0,0,.7489,0,.65408.65408,0,0,0,.1397-.4782v-1.3895a.67065.67065,0,0,0-.1397-.4825.57076.57076,0,0,0-.7489,0,.67017.67017,0,0,0-.1398.4825v.1896h-.9382l.1802-3.6629h2.6164v.9023h-1.7232l-.081,1.5066a.94205.94205,0,0,1,.8659-.4601.96253.96253,0,0,1,.8255.3699,1.77735,1.77735,0,0,1,.2752,1.0735v1.4074a1.68626,1.68626,0,0,1-.3744,1.1773,1.69214,1.69214,0,0,1-2.2102,0,1.68626,1.68626,0,0,1-.3744-1.1773v-.5233Z"/>
    <path class="cls-29" d="M148.705,122.1863h33.8995a2.9279,2.9279,0,0,1,2.9279,2.9279v42.8204a2.9279,2.9279,0,0,1-2.9279,2.9279h-33.8998a2.9276,2.9276,0,0,1-2.9276-2.9276V125.1142A2.9279,2.9279,0,0,1,148.705,122.1863Z"/>
    <path class="cls-30" d="M148.70436,161.0631h36.7163v2.0994a2.87116,2.87116,0,0,1,.1117.7943v4.0118a2.90208,2.90208,0,0,1-2.8939,2.8936h-33.9341a2.90189,2.90189,0,0,1-2.8936-2.8936v-6.9055Z"/>
    <path class="cls-24" d="M147.87946,126.4949a1.7951,1.7951,0,0,1,.37-1.2226,1.45069,1.45069,0,0,1,1.1457-.4195,1.42041,1.42041,0,0,1,1.1052.4108,1.68587,1.68587,0,0,1,.3745,1.1772v.1624h-.9383v-.2256a.67108.67108,0,0,0-.1397-.4825.5068.5068,0,0,0-.3745-.14.51517.51517,0,0,0-.4062.1624.95248.95248,0,0,0-.1443.6134v1.1549a.93338.93338,0,0,1,.9205-.5593.96271.96271,0,0,1,.8254.3699,1.77924,1.77924,0,0,1,.2752,1.0735v1.1548a1.64946,1.64946,0,0,1-.388,1.1773,1.729,1.729,0,0,1-2.2374,0,1.64815,1.64815,0,0,1-.3881-1.1773v-3.2298Zm1.5066,1.5339a.505.505,0,0,0-.3741.1397.67035.67035,0,0,0-.1401.4827v1.1367a.65357.65357,0,0,0,.1401.4782.58539.58539,0,0,0,.7486,0,.65359.65359,0,0,0,.14-.4782v-1.1367a.67037.67037,0,0,0-.14-.4827A.50575.50575,0,0,0,149.38606,128.0288Z"/>
    <path class="cls-31" d="M34.706,175.9637h33.8996a2.9279,2.9279,0,0,1,2.9279,2.9279v42.8205a2.9279,2.9279,0,0,1-2.9279,2.9279H34.70536a2.9276,2.9276,0,0,1-2.9276-2.9276V178.8919A2.9282,2.9282,0,0,1,34.706,175.9637Z"/>
    <path class="cls-30" d="M34.70546,214.8406h36.7163V216.94a2.8742,2.8742,0,0,1,.1117.7942v4.0119a2.90214,2.90214,0,0,1-2.8939,2.8936H34.70546a2.90182,2.90182,0,0,1-2.8936-2.8936v-6.9055Z"/>
    <polygon class="cls-24" points="36.858 178.703 36.858 179.569 35.396 185.018 34.404 185.018 35.856 179.605 33.881 179.605 33.881 178.703 36.858 178.703"/>
    <path class="cls-31" d="M80.49576,175.9637h33.8995a2.9276,2.9276,0,0,1,2.9276,2.9276v42.8211a2.9276,2.9276,0,0,1-2.9276,2.9276H80.49516a2.9276,2.9276,0,0,1-2.9276-2.9276V178.8919A2.9282,2.9282,0,0,1,80.49576,175.9637Z"/>
    <path class="cls-30" d="M80.49486,214.8406h36.7163V216.94a2.87044,2.87044,0,0,1,.1117.7942v4.0119a2.90189,2.90189,0,0,1-2.8939,2.8936H80.49486a2.90189,2.90189,0,0,1-2.8936-2.8936v-6.9055Z"/>
    <path class="cls-24" d="M82.71046,183.5022a1.62564,1.62564,0,0,1-.3969,1.1772,1.82867,1.82867,0,0,1-2.3097,0,1.62475,1.62475,0,0,1-.3968-1.1772v-.4961a2.02147,2.02147,0,0,1,.1443-.7985,1.04853,1.04853,0,0,1,.4691-.5187,1.31531,1.31531,0,0,1-.6134-1.2722v-.1984a1.62564,1.62564,0,0,1,.3968-1.1773,1.829,1.829,0,0,1,2.3097,0,1.62654,1.62654,0,0,1,.3969,1.1773v.1984a1.32707,1.32707,0,0,1-.6135,1.2722,1.0501,1.0501,0,0,1,.4692.5187,2.02682,2.02682,0,0,1,.1443.7985v.4961Zm-2.1113-.0269a.75456.75456,0,0,0,.1624.5683.57726.57726,0,0,0,.3972.1443.56014.56014,0,0,0,.3923-.1443.79191.79191,0,0,0,.167-.5683v-.5865a.81245.81245,0,0,0-.1489-.546.58815.58815,0,0,0-.8209,0,.81239.81239,0,0,0-.1491.546v.5865Zm0-2.869a.69343.69343,0,0,0,.1579.5233.62446.62446,0,0,0,.7985,0,.68067.68067,0,0,0,.1625-.5233v-.352a.77106.77106,0,0,0-.1625-.5729.604.604,0,0,0-.794,0,.77153.77153,0,0,0-.1624.5729Z"/>
    <path class="cls-31" d="M126.01476,175.9637h33.8995a2.9279,2.9279,0,0,1,2.9279,2.9279v42.8208a2.9276,2.9276,0,0,1-2.9276,2.9276h-33.9001a2.9279,2.9279,0,0,1-2.9279-2.9279V178.8919A2.9282,2.9282,0,0,1,126.01476,175.9637Z"/>
    <path class="cls-30" d="M126.01416,214.8406h36.7163V216.94a2.87032,2.87032,0,0,1,.1114.7942v4.0119a2.90182,2.90182,0,0,1-2.8936,2.8936h-33.9341a2.90214,2.90214,0,0,1-2.8939-2.8936v-6.9055Z"/>
    <path class="cls-24" d="M128.16656,183.4481a1.79429,1.79429,0,0,1-.37,1.2225,1.45039,1.45039,0,0,1-1.1457.4196,1.42121,1.42121,0,0,1-1.1053-.4108,1.68717,1.68717,0,0,1-.3741-1.1772v-.1624h.9382v.2256a.671.671,0,0,0,.1398.4828.50709.50709,0,0,0,.3744.1397.51459.51459,0,0,0,.406-.1624.95257.95257,0,0,0,.1442-.6134v-1.1549a.93248.93248,0,0,1-.9201.5593.96271.96271,0,0,1-.8254-.3699,1.77921,1.77921,0,0,1-.2753-1.0735v-1.1548a1.64864,1.64864,0,0,1,.3881-1.1773,1.729,1.729,0,0,1,2.2374,0,1.64989,1.64989,0,0,1,.3878,1.1773v3.2298Zm-1.5067-1.5336a.50633.50633,0,0,0,.3745-.14.67054.67054,0,0,0,.1397-.4828v-1.1366a.65364.65364,0,0,0-.1397-.4782.58581.58581,0,0,0-.7489,0,.65362.65362,0,0,0-.1398.4782v1.1366a.67052.67052,0,0,0,.1398.4828A.50609.50609,0,0,0,126.65986,181.9145Z"/>
    <path class="cls-31" d="M171.39576,175.9637h33.8995a2.9279,2.9279,0,0,1,2.9279,2.9279v42.8208a2.9276,2.9276,0,0,1-2.9276,2.9276h-33.9001a2.9279,2.9279,0,0,1-2.9279-2.9279V178.8919A2.9282,2.9282,0,0,1,171.39576,175.9637Z"/>
    <path class="cls-30" d="M171.39516,214.8406h36.716V216.94a2.85924,2.85924,0,0,1,.1117.7942v4.0119a2.90182,2.90182,0,0,1-2.8936,2.8936h-33.9341a2.90208,2.90208,0,0,1-2.8939-2.8936v-6.9055Z"/>
    <path class="cls-24" d="M171.24686,179.4966a1.48843,1.48843,0,0,0,.4737-.0632.83455.83455,0,0,0,.3022-.1715.86777.86777,0,0,0,.1896-.2526,2.30481,2.30481,0,0,0,.1262-.3067h.6678v6.3153h-.9924v-4.8178h-.7671Z"/>
    <path class="cls-24" d="M175.11736,183.5654a.67149.67149,0,0,0,.1397.4828.57169.57169,0,0,0,.7489,0,.6724.6724,0,0,0,.1398-.4828v-3.4103a.67107.67107,0,0,0-.1398-.4825.57076.57076,0,0,0-.7489,0,.67016.67016,0,0,0-.1397.4825v3.4103Zm-.9924-3.3471a1.64986,1.64986,0,0,1,.3877-1.1773,1.729,1.729,0,0,1,2.2374,0,1.64864,1.64864,0,0,1,.3881,1.1773v3.2839a1.64772,1.64772,0,0,1-.3881,1.1772,1.72863,1.72863,0,0,1-2.2374,0,1.64894,1.64894,0,0,1-.3877-1.1772Z"/>
  </g>
</svg>
