<svg xmlns="http://www.w3.org/2000/svg" xmlns:xlink="http://www.w3.org/1999/xlink" viewBox="0 0 240.0001 240.00009">
  <defs>
    <style>
      .cls-1, .cls-7 {
        fill: none;
      }

      .cls-2 {
        clip-path: url(#clip-path);
      }

      .cls-3 {
        fill: url(#GradientFill_1);
      }

      .cls-4, .cls-5 {
        fill: #fff;
      }

      .cls-4, .cls-6 {
        fill-rule: evenodd;
      }

      .cls-6 {
        fill: #ca8a04;
        stroke-width: 0.7197px;
      }

      .cls-6, .cls-7 {
        stroke: #ffc226;
        stroke-miterlimit: 22.9256;
      }

      .cls-7 {
        stroke-linecap: round;
        stroke-width: 1.1999px;
      }
    </style>
    <clipPath id="clip-path">
      <rect class="cls-1" x="20.85477" y="40.5601" width="198.2908" height="158.8805" rx="12.1286"/>
    </clipPath>
    <radialGradient id="GradientFill_1" data-name="GradientFill 1" cx="120.00017" cy="53.95373" r="186.68755" gradientUnits="userSpaceOnUse">
      <stop offset="0" stop-color="#559c2b"/>
      <stop offset="0.58" stop-color="#42922d"/>
      <stop offset="0.98" stop-color="#3e8529"/>
      <stop offset="1" stop-color="#3e8529"/>
    </radialGradient>
  </defs>
  <g id="_1-13" data-name="1">
    <g>
      <g class="cls-2">
        <g>
          <rect class="cls-3" x="20.85447" y="40.5601" width="198.2914" height="158.8805"/>
          <polygon class="cls-4" points="211.545 188.324 211.545 40.56 212.841 40.56 212.841 189.621 27.519 189.621 27.519 40.56 28.815 40.56 28.815 188.324 211.545 188.324"/>
          <rect class="cls-5" x="27.94597" y="53.0972" width="184.4679" height="1.296"/>
          <path class="cls-4" d="M173.80317,188.3242V136.9063H66.55717v51.4179Zm-108.5411,1.2966V135.6114h109.8377v54.0094Z"/>
          <path class="cls-4" d="M37.27277,188.9722h-1.2954a7.999,7.999,0,0,0-7.9898-7.99v-1.2954A9.2956,9.2956,0,0,1,37.27277,188.9722Z"/>
          <path class="cls-4" d="M203.85327,188.9722h-1.2952a9.29573,9.29573,0,0,1,9.2855-9.2854v1.2954A7.99924,7.99924,0,0,0,203.85327,188.9722Z"/>
          <path class="cls-4" d="M95.94317,40.5601a28.2972,28.2972,0,1,0,48.4744,0h1.5015a29.59255,29.59255,0,1,1-51.4777,0Z"/>
          <path class="cls-4" d="M154.52447,188.3242V166.3909H85.83507v21.9333Zm-69.9846,1.2966V165.0954h71.2815v24.5254Z"/>
          <path class="cls-4" d="M145.29057,192.9606v-3.3398H95.06977v3.3398Zm-51.5165,1.2951v-5.9315h52.8131v5.9315Z"/>
        </g>
      </g>
      <g>
        <path class="cls-6" d="M80.92747,73.0826a6.4694,6.4694,0,1,0-6.4693-6.4693A6.48173,6.48173,0,0,0,80.92747,73.0826Z"/>
        <line class="cls-7" x1="80.92687" y1="63.2965" x2="80.92687" y2="69.9301"/>
        <line class="cls-7" x1="77.61007" y1="66.6133" x2="84.24397" y2="66.6133"/>
      </g>
      <g>
        <path class="cls-6" d="M158.81467,73.0826a6.4694,6.4694,0,1,0-6.4692-6.4693A6.48175,6.48175,0,0,0,158.81467,73.0826Z"/>
        <line class="cls-7" x1="158.81447" y1="63.2965" x2="158.81447" y2="69.9301"/>
        <line class="cls-7" x1="155.49757" y1="66.6133" x2="162.13127" y2="66.6133"/>
      </g>
      <g>
        <path class="cls-6" d="M53.28707,105.251a6.46925,6.46925,0,1,0-6.4692-6.4693A6.48167,6.48167,0,0,0,53.28707,105.251Z"/>
        <line class="cls-7" x1="53.28657" y1="95.4646" x2="53.28657" y2="102.0986"/>
        <line class="cls-7" x1="49.96967" y1="98.7814" x2="56.60337" y2="98.7814"/>
      </g>
      <g>
        <path class="cls-6" d="M99.86427,105.251a6.46925,6.46925,0,1,0-6.4692-6.4693A6.48167,6.48167,0,0,0,99.86427,105.251Z"/>
        <line class="cls-7" x1="99.86377" y1="95.4646" x2="99.86377" y2="102.0986"/>
        <line class="cls-7" x1="96.54687" y1="98.7814" x2="103.18057" y2="98.7814"/>
      </g>
      <g>
        <path class="cls-6" d="M53.28707,132.6796a6.4691,6.4691,0,1,0-6.4692-6.4693A6.48167,6.48167,0,0,0,53.28707,132.6796Z"/>
        <line class="cls-7" x1="53.28657" y1="122.8935" x2="53.28657" y2="129.5274"/>
        <line class="cls-7" x1="49.96967" y1="126.2106" x2="56.60337" y2="126.2106"/>
      </g>
      <g>
        <path class="cls-6" d="M99.86427,132.6796a6.4691,6.4691,0,1,0-6.4692-6.4693A6.48167,6.48167,0,0,0,99.86427,132.6796Z"/>
        <line class="cls-7" x1="99.86377" y1="122.8935" x2="99.86377" y2="129.5274"/>
        <line class="cls-7" x1="96.54687" y1="126.2106" x2="103.18057" y2="126.2106"/>
      </g>
      <g>
        <path class="cls-6" d="M142.51267,105.251a6.46925,6.46925,0,1,0-6.4692-6.4693A6.48173,6.48173,0,0,0,142.51267,105.251Z"/>
        <line class="cls-7" x1="142.51237" y1="95.4646" x2="142.51237" y2="102.0986"/>
        <line class="cls-7" x1="139.19557" y1="98.7814" x2="145.82917" y2="98.7814"/>
      </g>
      <g>
        <path class="cls-6" d="M189.08987,105.251a6.46925,6.46925,0,1,0-6.4692-6.4693A6.48173,6.48173,0,0,0,189.08987,105.251Z"/>
        <line class="cls-7" x1="189.08957" y1="95.4646" x2="189.08957" y2="102.0986"/>
        <line class="cls-7" x1="185.77277" y1="98.7814" x2="192.40637" y2="98.7814"/>
      </g>
      <g>
        <path class="cls-6" d="M142.51267,132.6796a6.4691,6.4691,0,1,0-6.4692-6.4693A6.48173,6.48173,0,0,0,142.51267,132.6796Z"/>
        <line class="cls-7" x1="142.51237" y1="122.8935" x2="142.51237" y2="129.5274"/>
        <line class="cls-7" x1="139.19557" y1="126.2106" x2="145.82917" y2="126.2106"/>
      </g>
      <g>
        <path class="cls-6" d="M189.08987,132.6796a6.4691,6.4691,0,1,0-6.4692-6.4693A6.48173,6.48173,0,0,0,189.08987,132.6796Z"/>
        <line class="cls-7" x1="189.08957" y1="122.8935" x2="189.08957" y2="129.5274"/>
        <line class="cls-7" x1="185.77277" y1="126.2106" x2="192.40637" y2="126.2106"/>
      </g>
      <g>
        <path class="cls-6" d="M120.00017,170.2468a6.4692,6.4692,0,1,0-6.4692-6.4692A6.48184,6.48184,0,0,0,120.00017,170.2468Z"/>
        <line class="cls-7" x1="120.00017" y1="160.4611" x2="120.00017" y2="167.0947"/>
        <line class="cls-7" x1="116.68337" y1="163.7779" x2="123.31697" y2="163.7779"/>
      </g>
    </g>
  </g>
</svg>
