<svg xmlns="http://www.w3.org/2000/svg" viewBox="0 0 240.00009 240.00009">
  <defs>
    <style>
      .cls-1 {
        fill: #00b4ab;
      }

      .cls-2 {
        fill: #fff;
      }

      .cls-2, .cls-5 {
        fill-rule: evenodd;
      }

      .cls-3 {
        fill: #03827c;
      }

      .cls-4 {
        fill: #a3e635;
      }

      .cls-5 {
        fill: #006661;
      }
    </style>
  </defs>
  <g id="_1-14" data-name="1">
    <rect class="cls-1" x="26.64027" y="11.1416" width="186.7201" height="17.2797" rx="2.9489"/>
    <path class="cls-2" d="M118.39547,15.4701a2.72971,2.72971,0,0,0,.864-.1151,1.52931,1.52931,0,0,0,.5511-.3127,1.591,1.591,0,0,0,.3458-.4609,4.27511,4.27511,0,0,0,.2302-.5595h1.2177V25.5413h-1.8102V16.7536h-1.3986Z"/>
    <path class="cls-1" d="M29.58907,31.1854h180.8224a2.9489,2.9489,0,0,1,2.9489,2.9489V45.5162a2.9489,2.9489,0,0,1-2.9489,2.9489H29.58917a2.9489,2.9489,0,0,1-2.9489-2.9489V34.1342a2.9488,2.9488,0,0,1,2.9488-2.9488Z"/>
    <rect class="cls-1" x="26.64027" y="51.2291" width="186.7201" height="17.2798" rx="2.9489"/>
    <rect class="cls-1" x="26.64027" y="71.2729" width="186.7201" height="17.2797" rx="2.9489"/>
    <rect class="cls-1" x="26.64027" y="91.3167" width="186.7201" height="17.2797" rx="2.9489"/>
    <rect class="cls-3" x="26.64027" y="111.3605" width="186.7201" height="17.2797" rx="2.9489"/>
    <path class="cls-4" d="M29.58907,131.4043h180.8224a2.9489,2.9489,0,0,1,2.9489,2.9489v11.3819a2.9489,2.9489,0,0,1-2.9489,2.9489H29.58917a2.9489,2.9489,0,0,1-2.9489-2.9489v-11.382A2.9488,2.9488,0,0,1,29.58907,131.4043Z"/>
    <rect class="cls-4" x="26.64027" y="151.448" width="186.7201" height="17.2797" rx="2.9489"/>
    <rect class="cls-4" x="26.64027" y="171.4918" width="186.7201" height="17.2797" rx="2.9489"/>
    <rect class="cls-4" x="26.64027" y="191.5356" width="186.7201" height="17.2797" rx="2.9489"/>
    <rect class="cls-4" x="26.64027" y="211.5794" width="186.7201" height="17.2797" rx="2.9489"/>
    <path class="cls-2" d="M120.86417,36.9618a1.56429,1.56429,0,0,0-.2551-1.0449.89218.89218,0,0,0-.6829-.2715.92257.92257,0,0,0-.6828.2551,1.2233,1.2233,0,0,0-.2552.8804v1.2342h-1.7115V36.896a3.07784,3.07784,0,0,1,.6829-2.1475,3.08887,3.08887,0,0,1,4.032,0,3.07829,3.07829,0,0,1,.6828,2.1475,4.7377,4.7377,0,0,1-.288,1.6951,6.57719,6.57719,0,0,1-.7157,1.3822,9.13863,9.13863,0,0,1-.9216,1.1438q-.4941.51825-.8886.9873a4.75853,4.75853,0,0,0-.6254.9298,1.5649,1.5649,0,0,0-.1482.9711h3.4228v1.6455h-5.233V44.2355a3.88258,3.88258,0,0,1,.2633-1.4811,5.25563,5.25563,0,0,1,.6665-1.1764,10.10131,10.10131,0,0,1,.864-1.004,10.68884,10.68884,0,0,0,.864-.9955,5.215,5.215,0,0,0,.6664-1.152A3.75594,3.75594,0,0,0,120.86417,36.9618Z"/>
    <path class="cls-2" d="M120.79017,57.0056a1.56429,1.56429,0,0,0-.2551-1.0449.89218.89218,0,0,0-.6829-.2715.923.923,0,0,0-.6831.2551,1.22315,1.22315,0,0,0-.2551.8804v.7404h-1.7113v-.6253a3.07784,3.07784,0,0,1,.6829-2.1475,3.08847,3.08847,0,0,1,4.0317,0,3.07837,3.07837,0,0,1,.6831,2.1475v.2962a2.276,2.276,0,0,1-1.2673,2.3698,1.82268,1.82268,0,0,1,.9793.9133,3.546,3.546,0,0,1,.288,1.5058V62.93a3.07786,3.07786,0,0,1-.6831,2.1475,3.08847,3.08847,0,0,1-4.0317,0,3.07733,3.07733,0,0,1-.6829-2.1475v-.9544h1.7113v1.0695a1.22332,1.22332,0,0,0,.2551.8804.923.923,0,0,0,.6831.2551.90718.90718,0,0,0,.6829-.2633,1.52768,1.52768,0,0,0,.2551-1.0366v-.9051a1.77246,1.77246,0,0,0-.2797-1.1356,1.12714,1.12714,0,0,0-.9051-.3291h-.6089V58.8654h.7075a1.13939,1.13939,0,0,0,.7982-.2634,1.26435,1.26435,0,0,0,.288-.9544Z"/>
    <path class="cls-2" d="M116.97217,81.9371l3.2914-7.7839h1.9746v7.7839h.8557v1.6455h-.8557v2.09H120.428v-2.09h-3.4558V81.9371Zm3.4558,0V77.675l-1.7938,4.2621Z"/>
    <path class="cls-2" d="M118.99647,101.9974v1.0695a1.19152,1.19152,0,0,0,.2548.8722,1.06814,1.06814,0,0,0,1.366,0,1.19147,1.19147,0,0,0,.2551-.8722v-2.5342a1.223,1.223,0,0,0-.2551-.8804,1.04157,1.04157,0,0,0-1.366,0,1.223,1.223,0,0,0-.2548.8804v.3455h-1.7116l.3291-6.6812h4.7724v1.6458h-3.1433l-.148,2.7482a1.71855,1.71855,0,0,1,1.5798-.8394,1.75583,1.75583,0,0,1,1.5057.6747,3.24626,3.24626,0,0,1,.502,1.9584v2.5671a3.07643,3.07643,0,0,1-.6831,2.1475,3.08847,3.08847,0,0,1-4.0317,0,3.07733,3.07733,0,0,1-.6829-2.1475v-.9544Z"/>
    <path class="cls-5" d="M117.16127,137.1478a3.2738,3.2738,0,0,1,.6747-2.23,2.645,2.645,0,0,1,2.0899-.7651,2.59171,2.59171,0,0,1,2.0158.7487,3.07677,3.07677,0,0,1,.6831,2.1475v.2962h-1.7115v-.4113a1.223,1.223,0,0,0-.2552-.8804.92263.92263,0,0,0-.6828-.2552.93832.93832,0,0,0-.7404.2963,1.7347,1.7347,0,0,0-.2634,1.1191V139.32a1.70111,1.70111,0,0,1,1.6784-1.0205,1.7561,1.7561,0,0,1,1.5058.675,3.24276,3.24276,0,0,1,.502,1.9581v2.1065a3.00726,3.00726,0,0,1-.7078,2.1475,3.15539,3.15539,0,0,1-4.0811,0,3.009,3.009,0,0,1-.7075-2.1475v-5.8913Zm2.7482,2.7975a.92273.92273,0,0,0-.6829.2551,1.22389,1.22389,0,0,0-.2551.8805v2.0732a1.192,1.192,0,0,0,.2551.8723,1.06787,1.06787,0,0,0,1.3658,0,1.19158,1.19158,0,0,0,.2551-.8723v-2.0732a1.22343,1.22343,0,0,0-.2551-.8805A.9232.9232,0,0,0,119.90947,139.9453Z"/>
    <polygon class="cls-5" points="122.592 154.394 122.592 155.974 119.926 165.913 118.116 165.913 120.766 156.04 117.162 156.04 117.162 154.394 122.592 154.394"/>
    <path class="cls-5" d="M122.732,183.1924a2.96569,2.96569,0,0,1-.724,2.1475,3.33792,3.33792,0,0,1-4.2129,0,2.96576,2.96576,0,0,1-.7242-2.1475v-.9051a3.696,3.696,0,0,1,.2633-1.4565,1.91766,1.91766,0,0,1,.8558-.9462,2.39893,2.39893,0,0,1-1.1191-2.3204v-.362a2.96625,2.96625,0,0,1,.7242-2.1475,3.33757,3.33757,0,0,1,4.2129,0,2.96617,2.96617,0,0,1,.724,2.1475v.362a2.42077,2.42077,0,0,1-1.1192,2.3204,1.91444,1.91444,0,0,1,.8558.9462,3.6942,3.6942,0,0,1,.2634,1.4565v.9051Zm-3.8509-.0493a1.37589,1.37589,0,0,0,.2962,1.0366,1.052,1.052,0,0,0,.7243.2633,1.02131,1.02131,0,0,0,.7157-.2633,1.44608,1.44608,0,0,0,.3045-1.0366v-1.0698a1.47985,1.47985,0,0,0-.2716-.9956,1.07307,1.07307,0,0,0-1.4975,0,1.48094,1.48094,0,0,0-.2716.9956v1.0698Zm0-5.2331a1.26451,1.26451,0,0,0,.288.9544,1.13827,1.13827,0,0,0,1.4564,0,1.24107,1.24107,0,0,0,.2963-.9544v-.642a1.406,1.406,0,0,0-.2963-1.0449,1.10135,1.10135,0,0,0-1.4482,0,1.40736,1.40736,0,0,0-.2962,1.0449Z"/>
    <path class="cls-5" d="M122.71547,203.0717a3.27379,3.27379,0,0,1-.6749,2.2298,2.64388,2.64388,0,0,1-2.0897.7651,2.592,2.592,0,0,1-2.016-.7487,3.07781,3.07781,0,0,1-.6829-2.1475v-.2962h1.7113v.4113a1.22315,1.22315,0,0,0,.2551.8804.9228.9228,0,0,0,.6829.2551.93877.93877,0,0,0,.7407-.2962,1.7369,1.7369,0,0,0,.2633-1.1191v-2.1064a1.70162,1.70162,0,0,1-1.6787,1.0204,1.7569,1.7569,0,0,1-1.5057-.6746,3.24685,3.24685,0,0,1-.5018-1.9585v-2.1064a3.009,3.009,0,0,1,.7076-2.1475,3.15525,3.15525,0,0,1,4.081,0,3.0091,3.0091,0,0,1,.7078,2.1475v5.8915Zm-2.7482-2.7977a.92387.92387,0,0,0,.6829-.2549,1.22364,1.22364,0,0,0,.2551-.8804v-2.0736a1.192,1.192,0,0,0-.2551-.8722,1.06814,1.06814,0,0,0-1.366,0,1.192,1.192,0,0,0-.2548.8722v2.0736a1.22369,1.22369,0,0,0,.2548.8804A.924.924,0,0,0,119.96727,200.274Z"/>
    <path class="cls-5" d="M114.62737,215.9076a2.72971,2.72971,0,0,0,.864-.1151,1.52931,1.52931,0,0,0,.5511-.3127,1.58918,1.58918,0,0,0,.3458-.4609,4.27511,4.27511,0,0,0,.2302-.5595h1.2177v11.5194H116.026v-8.7877h-1.3986Z"/>
    <path class="cls-5" d="M121.68707,223.3293a1.22521,1.22521,0,0,0,.2548.8804,1.042,1.042,0,0,0,1.3661,0,1.22378,1.22378,0,0,0,.2551-.8804v-6.2204a1.22361,1.22361,0,0,0-.2551-.8804,1.042,1.042,0,0,0-1.3661,0,1.22505,1.22505,0,0,0-.2548.8804v6.2204Zm-1.8102-6.1053a3.00945,3.00945,0,0,1,.7075-2.1475,3.15507,3.15507,0,0,1,4.0811,0,3.0082,3.0082,0,0,1,.7078,2.1475v5.9902a3.00771,3.00771,0,0,1-.7078,2.1475,3.15539,3.15539,0,0,1-4.0811,0,3.009,3.009,0,0,1-.7075-2.1475Z"/>
    <polygon class="cls-2" points="98.36 114.175 103.956 114.175 103.956 115.82 102.063 115.82 102.063 125.694 100.253 125.694 100.253 115.82 98.36 115.82 98.36 114.175"/>
    <polygon class="cls-2" points="106.588 119.029 109.073 119.029 109.073 120.675 106.588 120.675 106.588 124.049 109.715 124.049 109.715 125.694 104.778 125.694 104.778 114.175 109.715 114.175 109.715 115.82 106.588 115.82 106.588 119.029"/>
    <polygon class="cls-2" points="112.447 117.351 112.447 125.694 110.818 125.694 110.818 114.175 113.089 114.175 114.948 121.07 114.948 114.175 116.561 114.175 116.561 125.694 114.701 125.694 112.447 117.351"/>
    <path class="cls-2" d="M120.59267,114.1747a2.74321,2.74321,0,0,1,2.0488.6582,2.773,2.773,0,0,1,.6336,1.9914v.4113a3.35225,3.35225,0,0,1-.2798,1.4646,1.77735,1.77735,0,0,1-.8887.8558,1.808,1.808,0,0,1,1.0452.9133,3.5738,3.5738,0,0,1,.3044,1.5551v.938a2.44424,2.44424,0,0,1-2.7482,2.7317h-2.8471V114.1747Zm-.9216,6.3357v3.5382h1.0369a.92961.92961,0,0,0,.6993-.2469,1.27768,1.27768,0,0,0,.2387-.8886v-1.0038a1.6651,1.6651,0,0,0-.2715-1.1027,1.16956,1.16956,0,0,0-.8969-.2962Zm0-4.6899v3.0444h.7075a1.13958,1.13958,0,0,0,.7983-.2633,1.26477,1.26477,0,0,0,.288-.9545v-.642a1.45954,1.45954,0,0,0-.2223-.9048.83873.83873,0,0,0-.6993-.2798Z"/>
    <path class="cls-2" d="M130.40047,125.6941h-1.8266l-.3127-2.0899h-2.2215l-.3126,2.0899h-1.662l1.8431-11.5194h2.6492l1.8431,11.5194Zm-4.1303-3.6532h1.7444l-.8722-5.8255Z"/>
    <polygon class="cls-2" points="131.24 114.175 133.05 114.175 133.05 124.049 136.029 124.049 136.029 125.694 131.24 125.694 131.24 114.175"/>
    <polygon class="cls-2" points="136.851 114.175 138.661 114.175 138.661 124.049 141.64 124.049 141.64 125.694 136.851 125.694 136.851 114.175"/>
  </g>
</svg>
