<svg xmlns="http://www.w3.org/2000/svg" viewBox="0 0 240.00009 240.00009">
  <defs>
    <style>
      .cls-1 {
        fill: #00b4ab;
      }

      .cls-2 {
        fill: #03827c;
      }

      .cls-2, .cls-6, .cls-8 {
        fill-rule: evenodd;
      }

      .cls-3, .cls-4 {
        fill: none;
        stroke-linecap: round;
        stroke-width: 0.9598px;
      }

      .cls-3 {
        stroke: #03827c;
      }

      .cls-3, .cls-4, .cls-5, .cls-7 {
        stroke-miterlimit: 22.9256;
      }

      .cls-4 {
        stroke: #9ab2b5;
      }

      .cls-5 {
        fill: #a3e635;
      }

      .cls-5, .cls-7 {
        stroke: #fff;
        stroke-width: 0.5669px;
      }

      .cls-7, .cls-8 {
        fill: #006661;
      }
    </style>
  </defs>
  <g id="_1-3" data-name="1">
    <path class="cls-1" d="M28.42069,17.1677h183.1587a11.2529,11.2529,0,0,1,11.2529,11.2529V211.5797a11.2529,11.2529,0,0,1-11.2529,11.2529H28.42069a11.253,11.253,0,0,1-11.253-11.253V28.4207A11.253,11.253,0,0,1,28.42069,17.1677Z"/>
    <path class="cls-2" d="M28.42069,17.1677h183.1587a11.28606,11.28606,0,0,1,11.2529,11.253V60.3451H17.16769V28.4207A11.28628,11.28628,0,0,1,28.42069,17.1677Z"/>
    <line class="cls-3" x1="30.95999" y1="91.9202" x2="209.04009" y2="91.9202"/>
    <line class="cls-3" x1="30.95999" y1="124.5603" x2="209.04009" y2="124.5603"/>
    <line class="cls-4" x1="30.95999" y1="157.2004" x2="209.04009" y2="157.2004"/>
    <line class="cls-3" x1="30.95999" y1="157.2004" x2="209.04009" y2="157.2004"/>
    <line class="cls-3" x1="30.95999" y1="189.8405" x2="209.04009" y2="189.8405"/>
    <path class="cls-5" d="M33.28949,29.4755h29.9171a2.5535,2.5535,0,0,1,2.5535,2.5535V45.4022a2.5535,2.5535,0,0,1-2.5535,2.5535H33.28949a2.5534,2.5534,0,0,1-2.5534-2.5534V32.0289A2.5534,2.5534,0,0,1,33.28949,29.4755Z"/>
    <path class="cls-6" d="M37.33619,41.7101a2.0078,2.0078,0,0,0,.2274.0122h.2276a.90286.90286,0,0,0,.5332-.1559.75247.75247,0,0,0,.2214-.6466V34.5234h1.3175V40.824a2.955,2.955,0,0,1-.1556,1.042,1.59685,1.59685,0,0,1-.4192.6406,1.51376,1.51376,0,0,1-.605.3294,2.61606,2.61606,0,0,1-.7126.0961h-.3234a2.22093,2.22093,0,0,1-.3113-.0241Z"/>
    <path class="cls-6" d="M45.02579,42.908h-1.3295l-.2276-1.521h-1.6172l-.2273,1.521h-1.2098l1.3413-8.3846h1.9284l1.3417,8.3846Zm-3.0064-2.6591H43.289l-.635-4.2401Z"/>
    <polygon class="cls-6" points="46.954 42.908 45.637 42.908 45.637 34.523 46.954 34.523 46.954 38.117 48.451 38.117 48.451 34.523 49.793 34.523 49.793 42.908 48.451 42.908 48.451 39.315 46.954 39.315 46.954 42.908"/>
    <path class="cls-6" d="M53.50619,42.908c-.0159-.0558-.032-.1077-.0479-.1556a1.17425,1.17425,0,0,1-.042-.1797,2.28756,2.28756,0,0,1-.0241-.2755q-.00585-.16755-.0059-.4193V40.5604a1.29144,1.29144,0,0,0-.2035-.8266.8206.8206,0,0,0-.6588-.2395h-.4553V42.908h-1.3175V34.5234h1.9885a1.99568,1.99568,0,0,1,1.491.4794,2.01706,2.01706,0,0,1,.4612,1.4493v.6588a1.68629,1.68629,0,0,1-.8623,1.7008,1.17826,1.17826,0,0,1,.6886.6647,3.00046,3.00046,0,0,1,.1856,1.12v1.2934q0,.3117.0241.5451a1.75643,1.75643,0,0,0,.1196.4731Zm-1.4375-7.1866v2.5752h.5151a.83012.83012,0,0,0,.5811-.1916.91988.91988,0,0,0,.2095-.6948v-.8265a1.06519,1.06519,0,0,0-.1616-.6588.61084.61084,0,0,0-.5091-.2035Z"/>
    <polygon class="cls-6" points="56.884 38.057 58.693 38.057 58.693 39.255 56.884 39.255 56.884 41.71 59.16 41.71 59.16 42.908 55.566 42.908 55.566 34.523 59.16 34.523 59.16 35.721 56.884 35.721 56.884 38.057"/>
    <path class="cls-5" d="M85.60909,29.4755h29.9172a2.5534,2.5534,0,0,1,2.5534,2.5534V45.4022a2.5535,2.5535,0,0,1-2.5535,2.5535H85.60909a2.5534,2.5534,0,0,1-2.5534-2.5534V32.0289A2.5534,2.5534,0,0,1,85.60909,29.4755Z"/>
    <polygon class="cls-6" points="90.83 34.523 94.902 34.523 94.902 35.721 93.525 35.721 93.525 42.908 92.207 42.908 92.207 35.721 90.83 35.721 90.83 34.523"/>
    <polygon class="cls-6" points="96.818 38.057 98.627 38.057 98.627 39.255 96.818 39.255 96.818 41.71 99.094 41.71 99.094 42.908 95.501 42.908 95.501 34.523 99.094 34.523 99.094 35.721 96.818 35.721 96.818 38.057"/>
    <path class="cls-6" d="M104.17289,42.908h-1.3294l-.2276-1.521h-1.6172l-.2273,1.521h-1.2099l1.3414-8.3846h1.9284l1.3416,8.3846Zm-3.0064-2.6591h1.2696l-.6349-4.2401Z"/>
    <polygon class="cls-6" points="107.575 40.476 108.473 34.523 110.306 34.523 110.306 42.908 109.06 42.908 109.06 36.895 108.15 42.908 106.904 42.908 105.922 36.979 105.922 42.908 104.772 42.908 104.772 34.523 106.604 34.523 107.575 40.476"/>
    <path class="cls-5" d="M173.68719,29.4755h29.9172a2.5534,2.5534,0,0,1,2.5534,2.5534V45.4022a2.5535,2.5535,0,0,1-2.5535,2.5535h-29.9171a2.5534,2.5534,0,0,1-2.5534-2.5534V32.0289A2.5534,2.5534,0,0,1,173.68719,29.4755Z"/>
    <path class="cls-6" d="M184.26779,42.908h-1.3294l-.2276-1.521h-1.6172l-.2273,1.521h-1.2099l1.3414-8.3846h1.9284l1.3416,8.3846Zm-3.0064-2.6591h1.2696l-.6349-4.2401Z"/>
    <path class="cls-6" d="M186.81929,34.5234a1.91474,1.91474,0,0,1,1.4791.5273,2.20574,2.20574,0,0,1,.485,1.5451v1.09a2.20675,2.20675,0,0,1-.485,1.5451,1.91572,1.91572,0,0,1-1.4791.527h-.6231V42.908h-1.3175V34.5234Zm-.6231,1.198V38.56h.6231a.64908.64908,0,0,0,.4791-.1676.88265.88265,0,0,0,.1675-.6227V36.5119a.88181.88181,0,0,0-.1675-.6227.64794.64794,0,0,0-.4791-.1678Z"/>
    <path class="cls-6" d="M191.33489,34.5234a1.91474,1.91474,0,0,1,1.4791.5273,2.20574,2.20574,0,0,1,.485,1.5451v1.09a2.20675,2.20675,0,0,1-.485,1.5451,1.91572,1.91572,0,0,1-1.4791.527h-.6231V42.908h-1.3175V34.5234Zm-.6231,1.198V38.56h.6231a.64867.64867,0,0,0,.479-.1676.88211.88211,0,0,0,.1676-.6227V36.5119a.88127.88127,0,0,0-.1676-.6227.64754.64754,0,0,0-.479-.1678Z"/>
    <path class="cls-6" d="M193.74239,36.5357a2.27576,2.27576,0,0,1,.485-1.563,2.21522,2.21522,0,0,1,2.9106,0,2.27626,2.27626,0,0,1,.485,1.563v.3235h-1.2456v-.4071a.93384.93384,0,0,0-.1737-.6409.72659.72659,0,0,0-.9703,0,.93339.93339,0,0,0-.1735.6409,1.48451,1.48451,0,0,0,.1916.7606,3.16135,3.16135,0,0,0,.4791.6227q.2874.2934.6168.5871a5.83873,5.83873,0,0,1,.6168.6406,3.26,3.26,0,0,1,.4791.7906,2.60935,2.60935,0,0,1,.1919,1.042,2.23956,2.23956,0,0,1-.4972,1.563,2.24752,2.24752,0,0,1-2.9347,0,2.239,2.239,0,0,1-.4969-1.563v-.5748h1.2455v.6587a.8679.8679,0,0,0,.1857.6347.77768.77768,0,0,0,.9944,0,.86841.86841,0,0,0,.1853-.6347,1.48264,1.48264,0,0,0-.1916-.7605,3.163,3.163,0,0,0-.479-.6231q-.28755-.2934-.6169-.5867a5.86139,5.86139,0,0,1-.6168-.641,3.2527,3.2527,0,0,1-.479-.7903A2.6089,2.6089,0,0,1,193.74239,36.5357Z"/>
    <rect class="cls-7" x="30.73609" y="71.5201" width="35.024" height="7.6802" rx="1.061"/>
    <rect class="cls-7" x="82.33229" y="71.5201" width="35.024" height="7.6802" rx="1.061"/>
    <path class="cls-7" d="M171.70889,71.5201h32.902a1.0611,1.0611,0,0,1,1.0611,1.0611v5.5581a1.061,1.061,0,0,1-1.061,1.061h-32.9021a1.061,1.061,0,0,1-1.061-1.061V72.5811A1.061,1.061,0,0,1,171.70889,71.5201Z"/>
    <rect class="cls-7" x="30.73609" y="103.68" width="35.024" height="7.6802" rx="1.061"/>
    <rect class="cls-7" x="82.33229" y="103.68" width="35.024" height="7.6802" rx="1.061"/>
    <rect class="cls-7" x="170.64789" y="103.68" width="35.0241" height="7.6802" rx="1.061"/>
    <path class="cls-8" d="M39.58069,145.7342a2.9125,2.9125,0,0,1-.1281-.917,4.621,4.621,0,0,1,.1919-1.4077,6.1649,6.1649,0,0,1,.4694-1.0984,8.48,8.48,0,0,1,.6185-.9598,7.3183,7.3183,0,0,0,.6185-.9916,6.45136,6.45136,0,0,0,.4692-1.205,5.92054,5.92054,0,0,0,.1919-1.6103,1.66082,1.66082,0,0,0-.3093-1.141,1.29381,1.29381,0,0,0-1.7274,0,1.65926,1.65926,0,0,0-.3093,1.141v1.6208h-2.2181v-1.4714a4.05379,4.05379,0,0,1,.8637-2.7834,3.29086,3.29086,0,0,1,2.5912-.9703,3.29075,3.29075,0,0,1,2.5914.9703,4.05379,4.05379,0,0,1,.8637,2.7834,6.25529,6.25529,0,0,1-.2026,1.6954,6.41746,6.41746,0,0,1-.5117,1.2903,8.163,8.163,0,0,1-.6718,1.0559q-.3627.47955-.6718.949a5.09452,5.09452,0,0,0-.5119,1.0024,3.40078,3.40078,0,0,0-.2027,1.2158,3.64375,3.64375,0,0,0,.0853.8316Zm2.1541,1.0452V149.04h-2.261v-2.2606Z"/>
    <path class="cls-8" d="M48.57389,145.7342a2.9125,2.9125,0,0,1-.1281-.917,4.61788,4.61788,0,0,1,.1919-1.4077,6.1649,6.1649,0,0,1,.4694-1.0984,8.48,8.48,0,0,1,.6185-.9598,7.3183,7.3183,0,0,0,.6185-.9916,6.45136,6.45136,0,0,0,.4692-1.205,5.92054,5.92054,0,0,0,.1919-1.6103,1.66082,1.66082,0,0,0-.3093-1.141,1.29381,1.29381,0,0,0-1.7274,0,1.65926,1.65926,0,0,0-.3093,1.141v1.6208h-2.2181v-1.4714a4.05379,4.05379,0,0,1,.8637-2.7834,3.94534,3.94534,0,0,1,5.1826,0,4.05379,4.05379,0,0,1,.8637,2.7834,6.25529,6.25529,0,0,1-.2026,1.6954,6.41746,6.41746,0,0,1-.5117,1.2903,8.163,8.163,0,0,1-.6718,1.0559q-.3627.47955-.6718.949a5.10033,5.10033,0,0,0-.512,1.0024,3.403,3.403,0,0,0-.2026,1.2158,3.64375,3.64375,0,0,0,.0853.8316Zm2.1541,1.0452V149.04H48.467v-2.2606Z"/>
    <path class="cls-8" d="M57.80719,145.7342a2.9125,2.9125,0,0,1-.1281-.917,4.61788,4.61788,0,0,1,.1919-1.4077,6.1649,6.1649,0,0,1,.4694-1.0984,8.48,8.48,0,0,1,.6185-.9598,7.3183,7.3183,0,0,0,.6185-.9916,6.45828,6.45828,0,0,0,.4692-1.205,5.92054,5.92054,0,0,0,.1919-1.6103,1.66082,1.66082,0,0,0-.3093-1.141,1.29381,1.29381,0,0,0-1.7274,0,1.65926,1.65926,0,0,0-.3093,1.141v1.6208h-2.2181v-1.4714a4.05379,4.05379,0,0,1,.8637-2.7834,3.94534,3.94534,0,0,1,5.1826,0,4.05379,4.05379,0,0,1,.8637,2.7834,6.25529,6.25529,0,0,1-.2026,1.6954,6.41746,6.41746,0,0,1-.5117,1.2903,8.163,8.163,0,0,1-.6718,1.0559q-.3627.47955-.6718.949a5.10033,5.10033,0,0,0-.512,1.0024,3.403,3.403,0,0,0-.2026,1.2158,3.64375,3.64375,0,0,0,.0853.8316Zm2.154,1.0452V149.04h-2.2609v-2.2606Z"/>
    <path class="cls-8" d="M90.48469,145.7342a2.9125,2.9125,0,0,1-.1281-.917,4.621,4.621,0,0,1,.1919-1.4077,6.1649,6.1649,0,0,1,.4694-1.0984,8.48,8.48,0,0,1,.6185-.9598,7.3183,7.3183,0,0,0,.6185-.9916,6.45136,6.45136,0,0,0,.4692-1.205,5.92054,5.92054,0,0,0,.1919-1.6103,1.66082,1.66082,0,0,0-.3093-1.141,1.29381,1.29381,0,0,0-1.7274,0,1.65926,1.65926,0,0,0-.3093,1.141v1.6208h-2.2181v-1.4714a4.05379,4.05379,0,0,1,.8637-2.7834,3.94534,3.94534,0,0,1,5.1826,0,4.05379,4.05379,0,0,1,.8637,2.7834,6.25529,6.25529,0,0,1-.2026,1.6954,6.41746,6.41746,0,0,1-.5117,1.2903,8.163,8.163,0,0,1-.6718,1.0559q-.3627.47955-.6718.949a5.09452,5.09452,0,0,0-.5119,1.0024,3.40078,3.40078,0,0,0-.2027,1.2158,3.64375,3.64375,0,0,0,.0853.8316Zm2.1541,1.0452V149.04h-2.261v-2.2606Z"/>
    <path class="cls-8" d="M99.47789,145.7342a2.9125,2.9125,0,0,1-.1281-.917,4.61788,4.61788,0,0,1,.1919-1.4077,6.1649,6.1649,0,0,1,.4694-1.0984,8.48,8.48,0,0,1,.6185-.9598,7.3183,7.3183,0,0,0,.6185-.9916,6.45136,6.45136,0,0,0,.4692-1.205,5.92054,5.92054,0,0,0,.1919-1.6103,1.66082,1.66082,0,0,0-.3093-1.141,1.29381,1.29381,0,0,0-1.7274,0,1.65926,1.65926,0,0,0-.3093,1.141v1.6208h-2.2181v-1.4714a4.05379,4.05379,0,0,1,.8637-2.7834,3.94534,3.94534,0,0,1,5.1826,0,4.05379,4.05379,0,0,1,.8637,2.7834,6.25529,6.25529,0,0,1-.2026,1.6954,6.41746,6.41746,0,0,1-.5117,1.2903,8.163,8.163,0,0,1-.6718,1.0559q-.3627.47955-.6718.949a5.10033,5.10033,0,0,0-.512,1.0024,3.403,3.403,0,0,0-.2026,1.2158,3.64375,3.64375,0,0,0,.0853.8316Zm2.1541,1.0452V149.04H99.371v-2.2606Z"/>
    <path class="cls-8" d="M108.71119,145.7342a2.9125,2.9125,0,0,1-.1281-.917,4.61788,4.61788,0,0,1,.1919-1.4077,6.1649,6.1649,0,0,1,.4694-1.0984,8.48,8.48,0,0,1,.6185-.9598,7.3183,7.3183,0,0,0,.6185-.9916,6.45828,6.45828,0,0,0,.4692-1.205,5.92054,5.92054,0,0,0,.1919-1.6103,1.66082,1.66082,0,0,0-.3093-1.141,1.29381,1.29381,0,0,0-1.7274,0,1.65926,1.65926,0,0,0-.3093,1.141v1.6208h-2.2181v-1.4714a4.05379,4.05379,0,0,1,.8637-2.7834,3.94534,3.94534,0,0,1,5.1826,0,4.05379,4.05379,0,0,1,.8637,2.7834,6.25529,6.25529,0,0,1-.2026,1.6954,6.41746,6.41746,0,0,1-.5117,1.2903,8.163,8.163,0,0,1-.6718,1.0559q-.3627.47955-.6718.949a5.10033,5.10033,0,0,0-.512,1.0024,3.403,3.403,0,0,0-.2026,1.2158,3.64375,3.64375,0,0,0,.0853.8316Zm2.154,1.0452V149.04h-2.2609v-2.2606Z"/>
    <path class="cls-8" d="M179.28449,145.7342a2.9125,2.9125,0,0,1-.1281-.917,4.621,4.621,0,0,1,.1919-1.4077,6.1649,6.1649,0,0,1,.4694-1.0984,8.48,8.48,0,0,1,.6185-.9598,7.31879,7.31879,0,0,0,.6186-.9916,6.45827,6.45827,0,0,0,.4691-1.205,5.92054,5.92054,0,0,0,.1919-1.6103,1.66082,1.66082,0,0,0-.3093-1.141,1.29381,1.29381,0,0,0-1.7274,0,1.65926,1.65926,0,0,0-.3093,1.141v1.6208h-2.2181v-1.4714a4.05331,4.05331,0,0,1,.8638-2.7834,3.9452,3.9452,0,0,1,5.1825,0,4.05331,4.05331,0,0,1,.8638,2.7834,6.255,6.255,0,0,1-.2027,1.6954,6.41746,6.41746,0,0,1-.5117,1.2903,8.15225,8.15225,0,0,1-.6718,1.0559q-.3627.47955-.6718.949a5.09452,5.09452,0,0,0-.5119,1.0024,3.403,3.403,0,0,0-.2027,1.2158,3.64375,3.64375,0,0,0,.0853.8316Zm2.1541,1.0452V149.04h-2.2609v-2.2606Z"/>
    <path class="cls-8" d="M188.27769,145.7342a2.9125,2.9125,0,0,1-.1281-.917,4.621,4.621,0,0,1,.1919-1.4077,6.1649,6.1649,0,0,1,.4694-1.0984,8.48,8.48,0,0,1,.6185-.9598,7.31879,7.31879,0,0,0,.6186-.9916,6.45827,6.45827,0,0,0,.4691-1.205,5.92054,5.92054,0,0,0,.1919-1.6103,1.66082,1.66082,0,0,0-.3093-1.141,1.29381,1.29381,0,0,0-1.7274,0,1.65926,1.65926,0,0,0-.3093,1.141v1.6208h-2.2181v-1.4714a4.05331,4.05331,0,0,1,.8638-2.7834,3.9452,3.9452,0,0,1,5.1825,0,4.05379,4.05379,0,0,1,.8637,2.7834,6.25529,6.25529,0,0,1-.2026,1.6954,6.41746,6.41746,0,0,1-.5117,1.2903,8.15225,8.15225,0,0,1-.6718,1.0559q-.3627.47955-.6718.949a5.09452,5.09452,0,0,0-.5119,1.0024,3.40078,3.40078,0,0,0-.2027,1.2158,3.64375,3.64375,0,0,0,.0853.8316Zm2.1541,1.0452V149.04h-2.2609v-2.2606Z"/>
    <path class="cls-8" d="M197.511,145.7342a2.9125,2.9125,0,0,1-.1281-.917,4.61788,4.61788,0,0,1,.1919-1.4077,6.1649,6.1649,0,0,1,.4694-1.0984,8.48,8.48,0,0,1,.6185-.9598,7.3183,7.3183,0,0,0,.6185-.9916,6.45136,6.45136,0,0,0,.4692-1.205,5.92054,5.92054,0,0,0,.1919-1.6103,1.66082,1.66082,0,0,0-.3093-1.141,1.29381,1.29381,0,0,0-1.7274,0,1.65926,1.65926,0,0,0-.3093,1.141v1.6208h-2.2181v-1.4714a4.05379,4.05379,0,0,1,.8637-2.7834,3.94534,3.94534,0,0,1,5.1826,0,4.05379,4.05379,0,0,1,.8637,2.7834,6.25529,6.25529,0,0,1-.2026,1.6954,6.41746,6.41746,0,0,1-.5117,1.2903,8.163,8.163,0,0,1-.6718,1.0559q-.3627.47955-.6718.949a5.09452,5.09452,0,0,0-.5119,1.0024,3.40078,3.40078,0,0,0-.2027,1.2158,3.64375,3.64375,0,0,0,.0853.8316Zm2.1541,1.0452V149.04h-2.261v-2.2606Z"/>
    <path class="cls-8" d="M39.58069,177.0446a2.91293,2.91293,0,0,1-.1281-.917,4.621,4.621,0,0,1,.1919-1.4077,6.16177,6.16177,0,0,1,.4694-1.0984,8.47107,8.47107,0,0,1,.6185-.9598,7.3183,7.3183,0,0,0,.6185-.9916,6.45409,6.45409,0,0,0,.4692-1.205,5.92182,5.92182,0,0,0,.1919-1.6104,1.66052,1.66052,0,0,0-.3093-1.1409,1.29381,1.29381,0,0,0-1.7274,0,1.659,1.659,0,0,0-.3093,1.1409v1.6209h-2.2181v-1.4715a4.05351,4.05351,0,0,1,.8637-2.7833,3.29052,3.29052,0,0,1,2.5912-.9703,3.2904,3.2904,0,0,1,2.5914.9703,4.05351,4.05351,0,0,1,.8637,2.7833,6.25426,6.25426,0,0,1-.2026,1.6954,6.42079,6.42079,0,0,1-.5117,1.2904,8.1698,8.1698,0,0,1-.6718,1.0559q-.3627.47955-.6718.949a5.09647,5.09647,0,0,0-.5119,1.0023,3.40155,3.40155,0,0,0-.2027,1.2158,3.64405,3.64405,0,0,0,.0853.8317Zm2.1541,1.0451v2.2607h-2.261v-2.2607Z"/>
    <path class="cls-8" d="M48.57389,177.0446a2.91293,2.91293,0,0,1-.1281-.917,4.61788,4.61788,0,0,1,.1919-1.4077,6.16177,6.16177,0,0,1,.4694-1.0984,8.47107,8.47107,0,0,1,.6185-.9598,7.3183,7.3183,0,0,0,.6185-.9916,6.45409,6.45409,0,0,0,.4692-1.205,5.92182,5.92182,0,0,0,.1919-1.6104,1.66052,1.66052,0,0,0-.3093-1.1409,1.29381,1.29381,0,0,0-1.7274,0,1.659,1.659,0,0,0-.3093,1.1409v1.6209h-2.2181v-1.4715a4.05351,4.05351,0,0,1,.8637-2.7833,3.94534,3.94534,0,0,1,5.1826,0,4.05351,4.05351,0,0,1,.8637,2.7833,6.25426,6.25426,0,0,1-.2026,1.6954,6.42079,6.42079,0,0,1-.5117,1.2904,8.1698,8.1698,0,0,1-.6718,1.0559q-.3627.47955-.6718.949a5.10229,5.10229,0,0,0-.512,1.0023,3.4038,3.4038,0,0,0-.2026,1.2158,3.64405,3.64405,0,0,0,.0853.8317Zm2.1541,1.0451v2.2607H48.467v-2.2607Z"/>
    <path class="cls-8" d="M57.80719,177.0446a2.91293,2.91293,0,0,1-.1281-.917,4.61788,4.61788,0,0,1,.1919-1.4077,6.16177,6.16177,0,0,1,.4694-1.0984,8.47107,8.47107,0,0,1,.6185-.9598,7.3183,7.3183,0,0,0,.6185-.9916,6.461,6.461,0,0,0,.4692-1.205,5.92182,5.92182,0,0,0,.1919-1.6104,1.66052,1.66052,0,0,0-.3093-1.1409,1.29381,1.29381,0,0,0-1.7274,0,1.659,1.659,0,0,0-.3093,1.1409v1.6209h-2.2181v-1.4715a4.05351,4.05351,0,0,1,.8637-2.7833,3.94534,3.94534,0,0,1,5.1826,0,4.05351,4.05351,0,0,1,.8637,2.7833,6.25426,6.25426,0,0,1-.2026,1.6954,6.42079,6.42079,0,0,1-.5117,1.2904,8.1698,8.1698,0,0,1-.6718,1.0559q-.3627.47955-.6718.949a5.10229,5.10229,0,0,0-.512,1.0023,3.4038,3.4038,0,0,0-.2026,1.2158,3.64405,3.64405,0,0,0,.0853.8317Zm2.154,1.0451v2.2607h-2.2609v-2.2607Z"/>
    <path class="cls-8" d="M90.48469,177.0446a2.91293,2.91293,0,0,1-.1281-.917,4.621,4.621,0,0,1,.1919-1.4077,6.16177,6.16177,0,0,1,.4694-1.0984,8.47107,8.47107,0,0,1,.6185-.9598,7.3183,7.3183,0,0,0,.6185-.9916,6.45409,6.45409,0,0,0,.4692-1.205,5.92182,5.92182,0,0,0,.1919-1.6104,1.66052,1.66052,0,0,0-.3093-1.1409,1.29381,1.29381,0,0,0-1.7274,0,1.659,1.659,0,0,0-.3093,1.1409v1.6209h-2.2181v-1.4715a4.05351,4.05351,0,0,1,.8637-2.7833,3.94534,3.94534,0,0,1,5.1826,0,4.05351,4.05351,0,0,1,.8637,2.7833,6.25426,6.25426,0,0,1-.2026,1.6954,6.42079,6.42079,0,0,1-.5117,1.2904,8.1698,8.1698,0,0,1-.6718,1.0559q-.3627.47955-.6718.949a5.09647,5.09647,0,0,0-.5119,1.0023,3.40155,3.40155,0,0,0-.2027,1.2158,3.64405,3.64405,0,0,0,.0853.8317Zm2.1541,1.0451v2.2607h-2.261v-2.2607Z"/>
    <path class="cls-8" d="M99.47789,177.0446a2.91293,2.91293,0,0,1-.1281-.917,4.61788,4.61788,0,0,1,.1919-1.4077,6.16177,6.16177,0,0,1,.4694-1.0984,8.47107,8.47107,0,0,1,.6185-.9598,7.3183,7.3183,0,0,0,.6185-.9916,6.45409,6.45409,0,0,0,.4692-1.205,5.92182,5.92182,0,0,0,.1919-1.6104,1.66052,1.66052,0,0,0-.3093-1.1409,1.29381,1.29381,0,0,0-1.7274,0,1.659,1.659,0,0,0-.3093,1.1409v1.6209h-2.2181v-1.4715a4.05351,4.05351,0,0,1,.8637-2.7833,3.94534,3.94534,0,0,1,5.1826,0,4.05351,4.05351,0,0,1,.8637,2.7833,6.25426,6.25426,0,0,1-.2026,1.6954,6.42079,6.42079,0,0,1-.5117,1.2904,8.1698,8.1698,0,0,1-.6718,1.0559q-.3627.47955-.6718.949a5.10229,5.10229,0,0,0-.512,1.0023,3.4038,3.4038,0,0,0-.2026,1.2158,3.64405,3.64405,0,0,0,.0853.8317Zm2.1541,1.0451v2.2607H99.371v-2.2607Z"/>
    <path class="cls-8" d="M108.71119,177.0446a2.91293,2.91293,0,0,1-.1281-.917,4.61788,4.61788,0,0,1,.1919-1.4077,6.16177,6.16177,0,0,1,.4694-1.0984,8.47107,8.47107,0,0,1,.6185-.9598,7.3183,7.3183,0,0,0,.6185-.9916,6.461,6.461,0,0,0,.4692-1.205,5.92182,5.92182,0,0,0,.1919-1.6104,1.66052,1.66052,0,0,0-.3093-1.1409,1.29381,1.29381,0,0,0-1.7274,0,1.659,1.659,0,0,0-.3093,1.1409v1.6209h-2.2181v-1.4715a4.05351,4.05351,0,0,1,.8637-2.7833,3.94534,3.94534,0,0,1,5.1826,0,4.05351,4.05351,0,0,1,.8637,2.7833,6.25426,6.25426,0,0,1-.2026,1.6954,6.42079,6.42079,0,0,1-.5117,1.2904,8.1698,8.1698,0,0,1-.6718,1.0559q-.3627.47955-.6718.949a5.10229,5.10229,0,0,0-.512,1.0023,3.4038,3.4038,0,0,0-.2026,1.2158,3.64405,3.64405,0,0,0,.0853.8317Zm2.154,1.0451v2.2607h-2.2609v-2.2607Z"/>
    <path class="cls-8" d="M179.28449,177.0446a2.91293,2.91293,0,0,1-.1281-.917,4.621,4.621,0,0,1,.1919-1.4077,6.16177,6.16177,0,0,1,.4694-1.0984,8.47107,8.47107,0,0,1,.6185-.9598,7.31879,7.31879,0,0,0,.6186-.9916,6.461,6.461,0,0,0,.4691-1.205,5.92182,5.92182,0,0,0,.1919-1.6104,1.66052,1.66052,0,0,0-.3093-1.1409,1.29381,1.29381,0,0,0-1.7274,0,1.659,1.659,0,0,0-.3093,1.1409v1.6209h-2.2181v-1.4715a4.053,4.053,0,0,1,.8638-2.7833,3.9452,3.9452,0,0,1,5.1825,0,4.053,4.053,0,0,1,.8638,2.7833,6.254,6.254,0,0,1-.2027,1.6954,6.42079,6.42079,0,0,1-.5117,1.2904,8.15908,8.15908,0,0,1-.6718,1.0559q-.3627.47955-.6718.949a5.09647,5.09647,0,0,0-.5119,1.0023,3.40375,3.40375,0,0,0-.2027,1.2158,3.64405,3.64405,0,0,0,.0853.8317Zm2.1541,1.0451v2.2607h-2.2609v-2.2607Z"/>
    <path class="cls-8" d="M188.27769,177.0446a2.91293,2.91293,0,0,1-.1281-.917,4.621,4.621,0,0,1,.1919-1.4077,6.16177,6.16177,0,0,1,.4694-1.0984,8.47107,8.47107,0,0,1,.6185-.9598,7.31879,7.31879,0,0,0,.6186-.9916,6.461,6.461,0,0,0,.4691-1.205,5.92182,5.92182,0,0,0,.1919-1.6104,1.66052,1.66052,0,0,0-.3093-1.1409,1.29381,1.29381,0,0,0-1.7274,0,1.659,1.659,0,0,0-.3093,1.1409v1.6209h-2.2181v-1.4715a4.053,4.053,0,0,1,.8638-2.7833,3.9452,3.9452,0,0,1,5.1825,0,4.05351,4.05351,0,0,1,.8637,2.7833,6.25426,6.25426,0,0,1-.2026,1.6954,6.42079,6.42079,0,0,1-.5117,1.2904,8.15908,8.15908,0,0,1-.6718,1.0559q-.3627.47955-.6718.949a5.09647,5.09647,0,0,0-.5119,1.0023,3.40155,3.40155,0,0,0-.2027,1.2158,3.64405,3.64405,0,0,0,.0853.8317Zm2.1541,1.0451v2.2607h-2.2609v-2.2607Z"/>
    <path class="cls-8" d="M197.511,177.0446a2.91293,2.91293,0,0,1-.1281-.917,4.61788,4.61788,0,0,1,.1919-1.4077,6.16177,6.16177,0,0,1,.4694-1.0984,8.47107,8.47107,0,0,1,.6185-.9598,7.3183,7.3183,0,0,0,.6185-.9916,6.45409,6.45409,0,0,0,.4692-1.205,5.92182,5.92182,0,0,0,.1919-1.6104,1.66052,1.66052,0,0,0-.3093-1.1409,1.29381,1.29381,0,0,0-1.7274,0,1.659,1.659,0,0,0-.3093,1.1409v1.6209h-2.2181v-1.4715a4.05351,4.05351,0,0,1,.8637-2.7833,3.94534,3.94534,0,0,1,5.1826,0,4.05351,4.05351,0,0,1,.8637,2.7833,6.25426,6.25426,0,0,1-.2026,1.6954,6.42079,6.42079,0,0,1-.5117,1.2904,8.1698,8.1698,0,0,1-.6718,1.0559q-.3627.47955-.6718.949a5.09647,5.09647,0,0,0-.5119,1.0023,3.40155,3.40155,0,0,0-.2027,1.2158,3.64405,3.64405,0,0,0,.0853.8317Zm2.1541,1.0451v2.2607h-2.261v-2.2607Z"/>
    <path class="cls-8" d="M39.58069,207.714a2.9125,2.9125,0,0,1-.1281-.917,4.62029,4.62029,0,0,1,.1919-1.4076,6.16281,6.16281,0,0,1,.4694-1.0985,8.48,8.48,0,0,1,.6185-.9598,7.32335,7.32335,0,0,0,.6185-.9915,6.45681,6.45681,0,0,0,.4692-1.205,5.92182,5.92182,0,0,0,.1919-1.6104,1.66082,1.66082,0,0,0-.3093-1.141,1.29381,1.29381,0,0,0-1.7274,0,1.65926,1.65926,0,0,0-.3093,1.141v1.6208h-2.2181v-1.4714a4.05379,4.05379,0,0,1,.8637-2.7834,3.29086,3.29086,0,0,1,2.5912-.9703,3.29075,3.29075,0,0,1,2.5914.9703,4.05379,4.05379,0,0,1,.8637,2.7834,6.25477,6.25477,0,0,1-.2026,1.6954,6.41746,6.41746,0,0,1-.5117,1.2903,8.163,8.163,0,0,1-.6718,1.0559q-.3627.4797-.6718.9491a5.09093,5.09093,0,0,0-.5119,1.0023,3.40078,3.40078,0,0,0-.2027,1.2158,3.64314,3.64314,0,0,0,.0853.8316Zm2.1541,1.0452v2.2606h-2.261v-2.2606Z"/>
    <path class="cls-8" d="M48.57389,207.714a2.9125,2.9125,0,0,1-.1281-.917,4.6172,4.6172,0,0,1,.1919-1.4076,6.16281,6.16281,0,0,1,.4694-1.0985,8.48,8.48,0,0,1,.6185-.9598,7.32335,7.32335,0,0,0,.6185-.9915,6.45681,6.45681,0,0,0,.4692-1.205,5.92182,5.92182,0,0,0,.1919-1.6104,1.66082,1.66082,0,0,0-.3093-1.141,1.29381,1.29381,0,0,0-1.7274,0,1.65926,1.65926,0,0,0-.3093,1.141v1.6208h-2.2181v-1.4714a4.05379,4.05379,0,0,1,.8637-2.7834,3.94534,3.94534,0,0,1,5.1826,0,4.05379,4.05379,0,0,1,.8637,2.7834,6.25477,6.25477,0,0,1-.2026,1.6954,6.41746,6.41746,0,0,1-.5117,1.2903,8.163,8.163,0,0,1-.6718,1.0559q-.3627.4797-.6718.9491a5.09673,5.09673,0,0,0-.512,1.0023,3.403,3.403,0,0,0-.2026,1.2158,3.64314,3.64314,0,0,0,.0853.8316Zm2.1541,1.0452v2.2606H48.467v-2.2606Z"/>
    <path class="cls-8" d="M57.80719,207.714a2.9125,2.9125,0,0,1-.1281-.917,4.6172,4.6172,0,0,1,.1919-1.4076,6.16281,6.16281,0,0,1,.4694-1.0985,8.48,8.48,0,0,1,.6185-.9598,7.32335,7.32335,0,0,0,.6185-.9915,6.46373,6.46373,0,0,0,.4692-1.205,5.92182,5.92182,0,0,0,.1919-1.6104,1.66082,1.66082,0,0,0-.3093-1.141,1.29381,1.29381,0,0,0-1.7274,0,1.65926,1.65926,0,0,0-.3093,1.141v1.6208h-2.2181v-1.4714a4.05379,4.05379,0,0,1,.8637-2.7834,3.94534,3.94534,0,0,1,5.1826,0,4.05379,4.05379,0,0,1,.8637,2.7834,6.25477,6.25477,0,0,1-.2026,1.6954,6.41746,6.41746,0,0,1-.5117,1.2903,8.163,8.163,0,0,1-.6718,1.0559q-.3627.4797-.6718.9491a5.09673,5.09673,0,0,0-.512,1.0023,3.403,3.403,0,0,0-.2026,1.2158,3.64314,3.64314,0,0,0,.0853.8316Zm2.154,1.0452v2.2606h-2.2609v-2.2606Z"/>
    <path class="cls-8" d="M90.48469,207.714a2.9125,2.9125,0,0,1-.1281-.917,4.62029,4.62029,0,0,1,.1919-1.4076,6.16281,6.16281,0,0,1,.4694-1.0985,8.48,8.48,0,0,1,.6185-.9598,7.32335,7.32335,0,0,0,.6185-.9915,6.45681,6.45681,0,0,0,.4692-1.205,5.92182,5.92182,0,0,0,.1919-1.6104,1.66082,1.66082,0,0,0-.3093-1.141,1.29381,1.29381,0,0,0-1.7274,0,1.65926,1.65926,0,0,0-.3093,1.141v1.6208h-2.2181v-1.4714a4.05379,4.05379,0,0,1,.8637-2.7834,3.94534,3.94534,0,0,1,5.1826,0,4.05379,4.05379,0,0,1,.8637,2.7834,6.25477,6.25477,0,0,1-.2026,1.6954,6.41746,6.41746,0,0,1-.5117,1.2903,8.163,8.163,0,0,1-.6718,1.0559q-.3627.4797-.6718.9491a5.09093,5.09093,0,0,0-.5119,1.0023,3.40078,3.40078,0,0,0-.2027,1.2158,3.64314,3.64314,0,0,0,.0853.8316Zm2.1541,1.0452v2.2606h-2.261v-2.2606Z"/>
    <path class="cls-8" d="M99.47789,207.714a2.9125,2.9125,0,0,1-.1281-.917,4.6172,4.6172,0,0,1,.1919-1.4076,6.16281,6.16281,0,0,1,.4694-1.0985,8.48,8.48,0,0,1,.6185-.9598,7.32335,7.32335,0,0,0,.6185-.9915,6.45681,6.45681,0,0,0,.4692-1.205,5.92182,5.92182,0,0,0,.1919-1.6104,1.66082,1.66082,0,0,0-.3093-1.141,1.29381,1.29381,0,0,0-1.7274,0,1.65926,1.65926,0,0,0-.3093,1.141v1.6208h-2.2181v-1.4714a4.05379,4.05379,0,0,1,.8637-2.7834,3.94534,3.94534,0,0,1,5.1826,0,4.05379,4.05379,0,0,1,.8637,2.7834,6.25477,6.25477,0,0,1-.2026,1.6954,6.41746,6.41746,0,0,1-.5117,1.2903,8.163,8.163,0,0,1-.6718,1.0559q-.3627.4797-.6718.9491a5.09673,5.09673,0,0,0-.512,1.0023,3.403,3.403,0,0,0-.2026,1.2158,3.64314,3.64314,0,0,0,.0853.8316Zm2.1541,1.0452v2.2606H99.371v-2.2606Z"/>
    <path class="cls-8" d="M108.71119,207.714a2.9125,2.9125,0,0,1-.1281-.917,4.6172,4.6172,0,0,1,.1919-1.4076,6.16281,6.16281,0,0,1,.4694-1.0985,8.48,8.48,0,0,1,.6185-.9598,7.32335,7.32335,0,0,0,.6185-.9915,6.46373,6.46373,0,0,0,.4692-1.205,5.92182,5.92182,0,0,0,.1919-1.6104,1.66082,1.66082,0,0,0-.3093-1.141,1.29381,1.29381,0,0,0-1.7274,0,1.65926,1.65926,0,0,0-.3093,1.141v1.6208h-2.2181v-1.4714a4.05379,4.05379,0,0,1,.8637-2.7834,3.94534,3.94534,0,0,1,5.1826,0,4.05379,4.05379,0,0,1,.8637,2.7834,6.25477,6.25477,0,0,1-.2026,1.6954,6.41746,6.41746,0,0,1-.5117,1.2903,8.163,8.163,0,0,1-.6718,1.0559q-.3627.4797-.6718.9491a5.09673,5.09673,0,0,0-.512,1.0023,3.403,3.403,0,0,0-.2026,1.2158,3.64314,3.64314,0,0,0,.0853.8316Zm2.154,1.0452v2.2606h-2.2609v-2.2606Z"/>
    <path class="cls-8" d="M179.28449,207.714a2.9125,2.9125,0,0,1-.1281-.917,4.62029,4.62029,0,0,1,.1919-1.4076,6.16281,6.16281,0,0,1,.4694-1.0985,8.48,8.48,0,0,1,.6185-.9598,7.32384,7.32384,0,0,0,.6186-.9915,6.46372,6.46372,0,0,0,.4691-1.205,5.92182,5.92182,0,0,0,.1919-1.6104,1.66082,1.66082,0,0,0-.3093-1.141,1.29381,1.29381,0,0,0-1.7274,0,1.65926,1.65926,0,0,0-.3093,1.141v1.6208h-2.2181v-1.4714a4.05331,4.05331,0,0,1,.8638-2.7834,3.9452,3.9452,0,0,1,5.1825,0,4.05331,4.05331,0,0,1,.8638,2.7834,6.25449,6.25449,0,0,1-.2027,1.6954,6.41746,6.41746,0,0,1-.5117,1.2903,8.15225,8.15225,0,0,1-.6718,1.0559q-.3627.4797-.6718.9491a5.09093,5.09093,0,0,0-.5119,1.0023,3.403,3.403,0,0,0-.2027,1.2158,3.64314,3.64314,0,0,0,.0853.8316Zm2.1541,1.0452v2.2606h-2.2609v-2.2606Z"/>
    <path class="cls-8" d="M188.27769,207.714a2.9125,2.9125,0,0,1-.1281-.917,4.62029,4.62029,0,0,1,.1919-1.4076,6.16281,6.16281,0,0,1,.4694-1.0985,8.48,8.48,0,0,1,.6185-.9598,7.32384,7.32384,0,0,0,.6186-.9915,6.46372,6.46372,0,0,0,.4691-1.205,5.92182,5.92182,0,0,0,.1919-1.6104,1.66082,1.66082,0,0,0-.3093-1.141,1.29381,1.29381,0,0,0-1.7274,0,1.65926,1.65926,0,0,0-.3093,1.141v1.6208h-2.2181v-1.4714a4.05331,4.05331,0,0,1,.8638-2.7834,3.9452,3.9452,0,0,1,5.1825,0,4.05379,4.05379,0,0,1,.8637,2.7834,6.25477,6.25477,0,0,1-.2026,1.6954,6.41746,6.41746,0,0,1-.5117,1.2903,8.15225,8.15225,0,0,1-.6718,1.0559q-.3627.4797-.6718.9491a5.09093,5.09093,0,0,0-.5119,1.0023,3.40078,3.40078,0,0,0-.2027,1.2158,3.64314,3.64314,0,0,0,.0853.8316Zm2.1541,1.0452v2.2606h-2.2609v-2.2606Z"/>
    <path class="cls-8" d="M197.511,207.714a2.9125,2.9125,0,0,1-.1281-.917,4.6172,4.6172,0,0,1,.1919-1.4076,6.16281,6.16281,0,0,1,.4694-1.0985,8.48,8.48,0,0,1,.6185-.9598,7.32335,7.32335,0,0,0,.6185-.9915,6.45681,6.45681,0,0,0,.4692-1.205,5.92182,5.92182,0,0,0,.1919-1.6104,1.66082,1.66082,0,0,0-.3093-1.141,1.29381,1.29381,0,0,0-1.7274,0,1.65926,1.65926,0,0,0-.3093,1.141v1.6208h-2.2181v-1.4714a4.05379,4.05379,0,0,1,.8637-2.7834,3.94534,3.94534,0,0,1,5.1826,0,4.05379,4.05379,0,0,1,.8637,2.7834,6.25477,6.25477,0,0,1-.2026,1.6954,6.41746,6.41746,0,0,1-.5117,1.2903,8.163,8.163,0,0,1-.6718,1.0559q-.3627.4797-.6718.9491a5.09093,5.09093,0,0,0-.5119,1.0023,3.40078,3.40078,0,0,0-.2027,1.2158,3.64314,3.64314,0,0,0,.0853.8316Zm2.1541,1.0452v2.2606h-2.261v-2.2606Z"/>
  </g>
</svg>
