<svg xmlns="http://www.w3.org/2000/svg" viewBox="0 0 240.00009 240.00009">
  <defs>
    <style>
      .cls-1 {
        fill: #434e5e;
      }

      .cls-1, .cls-4 {
        fill-rule: evenodd;
      }

      .cls-2 {
        fill: #aad4c8;
      }

      .cls-3, .cls-4 {
        fill: #82bfab;
      }

      .cls-5 {
        fill: #03827c;
      }

      .cls-6 {
        fill: #00b4ab;
      }
    </style>
  </defs>
  <g id="_1-16" data-name="1">
    <g>
      <g>
        <path class="cls-1" d="M42.67138,154.4559a4.79014,4.79014,0,0,0-4.58,4.9753v.1324h163.817v-.1324a4.79094,4.79094,0,0,0-4.5782-4.9753Z"/>
        <rect class="cls-2" x="38.09138" y="159.5636" width="163.817" height="2.0954"/>
        <path class="cls-1" d="M46.19958,210.8443h9.2501v9.6123h-9.2501v-9.6123Zm0-15.5038h18.459v9.6126h-18.459v-9.6126Zm0-15.5007h9.2501v9.6089h-9.2501v-9.6089Zm0-15.5043h9.2501v9.6122h-9.2501v-9.6122ZM60.037,179.8398h9.2449v9.6089H60.037v-9.6089Zm0-15.5043h9.2449v9.6122H60.037v-9.6122Zm13.8353,15.5043h9.2469v9.6089h-9.2469v-9.6089Zm0-15.5043h9.2469v9.6122h-9.2469v-9.6122Zm13.8322,15.5043h9.2486v9.6089h-9.2486v-9.6089Zm0-15.5043h9.2486v9.6122h-9.2486v-9.6122Zm13.8373,15.5043h9.245v9.6089h-9.245v-9.6089Zm0-15.5043h9.245v9.6122h-9.245v-9.6122Zm13.834,15.5043h9.2488v9.6089h-9.2488v-9.6089Zm0-15.5043h9.2488v9.6122h-9.2488v-9.6122ZM129.21,179.8398h9.2483v9.6089H129.21v-9.6089Zm0-15.5043h9.2483v9.6122H129.21v-9.6122Zm13.837,15.5043h9.2449v9.6089H143.047v-9.6089Zm0-15.5043h9.2449v9.6122H143.047v-9.6122Zm13.8322,15.5043h9.25v9.6089h-9.25v-9.6089Zm0-15.5043h9.25v9.6122h-9.25v-9.6122Zm13.8371,15.5043h9.2469v9.6089h-9.2469v-9.6089Zm0-15.5043h9.2469v9.6122h-9.2469v-9.6122Zm13.8356,15.5043h9.2469v9.6089h-9.2469v-9.6089Zm0-15.5043h9.2469v9.6122h-9.2469v-9.6122Zm9.2469,56.1211h-9.2469v-9.6123h9.2469v9.6123Zm-18.4782-15.5035v-9.6126h18.4592v9.6126Zm4.6426,15.5035h-9.2469v-9.6123h9.2469v9.6123ZM162.993,204.9531v-9.6126h9.2503v9.6126Zm3.1362,15.5035h-9.25v-9.6123h9.25v9.6123Zm-16.7468-15.5035v-9.6126h9.2469v9.6126Zm-13.6153,0v-9.6126h9.2466v9.6126Zm-13.6174,0v-9.6126H131.4v9.6126Zm-13.6102,0v-9.6126h9.2468v9.6126Zm-13.6174,0v-9.6126h9.2469v9.6126Zm57.3698,15.5035H86.82268v-9.6123h65.4692v9.6123Zm-70.9801-15.5035v-9.6126H90.557v9.6126Zm1.8074,15.5035h-9.2469v-9.6123h9.2469v9.6123Zm-15.423-15.5035v-9.6126h9.2452v9.6126Zm1.5857,15.5035H60.037v-9.6123h9.2449v9.6123Zm-31.1905,2.808a4.79017,4.79017,0,0,0,4.58,4.9754h154.6591a4.79092,4.79092,0,0,0,4.5779-4.9754V161.659H38.09138Z"/>
        <rect class="cls-3" x="46.19958" y="164.3355" width="9.2501" height="9.6122"/>
        <rect class="cls-3" x="60.03698" y="164.3355" width="9.2449" height="9.6122"/>
        <rect class="cls-3" x="73.87228" y="164.3355" width="9.2469" height="9.6122"/>
        <rect class="cls-3" x="87.70448" y="164.3355" width="9.2486" height="9.6122"/>
        <rect class="cls-3" x="101.54178" y="164.3355" width="9.245" height="9.6122"/>
        <rect class="cls-3" x="115.37578" y="164.3355" width="9.2488" height="9.6122"/>
        <rect class="cls-3" x="129.20998" y="164.3355" width="9.2483" height="9.6122"/>
        <rect class="cls-3" x="143.04698" y="164.3355" width="9.2449" height="9.6122"/>
        <rect class="cls-3" x="156.87918" y="164.3355" width="9.25" height="9.6122"/>
        <rect class="cls-3" x="170.71628" y="164.3355" width="9.2469" height="9.6122"/>
        <rect class="cls-3" x="184.55188" y="164.3355" width="9.2469" height="9.6122"/>
        <rect class="cls-3" x="46.19958" y="179.8398" width="9.2501" height="9.6089"/>
        <rect class="cls-3" x="60.03698" y="179.8398" width="9.2449" height="9.6089"/>
        <rect class="cls-3" x="73.87228" y="179.8398" width="9.2469" height="9.6089"/>
        <rect class="cls-3" x="87.70448" y="179.8398" width="9.2486" height="9.6089"/>
        <rect class="cls-3" x="101.54178" y="179.8398" width="9.245" height="9.6089"/>
        <rect class="cls-3" x="115.37578" y="179.8398" width="9.2488" height="9.6089"/>
        <rect class="cls-3" x="129.20998" y="179.8398" width="9.2483" height="9.6089"/>
        <rect class="cls-3" x="143.04698" y="179.8398" width="9.2449" height="9.6089"/>
        <rect class="cls-3" x="156.87918" y="179.8398" width="9.25" height="9.6089"/>
        <rect class="cls-3" x="170.71628" y="179.8398" width="9.2469" height="9.6089"/>
        <rect class="cls-3" x="184.55188" y="179.8398" width="9.2469" height="9.6089"/>
        <rect class="cls-3" x="46.19958" y="195.3405" width="18.459" height="9.6126"/>
        <rect class="cls-3" x="175.32058" y="195.3405" width="18.4592" height="9.6126"/>
        <rect class="cls-3" x="67.69618" y="195.3405" width="9.2452" height="9.6126"/>
        <rect class="cls-3" x="81.31178" y="195.3405" width="9.2452" height="9.6126"/>
        <rect class="cls-3" x="94.92208" y="195.3405" width="9.2469" height="9.6126"/>
        <rect class="cls-3" x="108.53948" y="195.3405" width="9.2468" height="9.6126"/>
        <rect class="cls-3" x="122.14968" y="195.3405" width="9.2503" height="9.6126"/>
        <rect class="cls-3" x="135.76708" y="195.3405" width="9.2466" height="9.6126"/>
        <rect class="cls-3" x="149.38238" y="195.3405" width="9.2469" height="9.6126"/>
        <rect class="cls-3" x="162.99298" y="195.3405" width="9.2503" height="9.6126"/>
        <rect class="cls-3" x="46.19958" y="210.8443" width="9.2501" height="9.6123"/>
        <rect class="cls-3" x="60.03698" y="210.8443" width="9.2449" height="9.6123"/>
        <rect class="cls-3" x="73.87228" y="210.8443" width="9.2469" height="9.6123"/>
        <polygon class="cls-4" points="129.21 210.844 124.625 210.844 115.376 210.844 86.823 210.844 86.823 220.457 115.376 220.457 124.625 220.457 129.21 220.457 138.458 220.457 152.292 220.457 152.292 210.844 138.458 210.844 129.21 210.844"/>
        <rect class="cls-3" x="156.87918" y="210.8443" width="9.25" height="9.6123"/>
        <rect class="cls-3" x="170.71628" y="210.8443" width="9.2469" height="9.6123"/>
        <rect class="cls-3" x="184.55188" y="210.8443" width="9.2469" height="9.6123"/>
      </g>
      <g>
        <path class="cls-5" d="M40.08388,11.7601h21.3494a1.9919,1.9919,0,0,1,1.9919,1.9919V35.1017a1.9919,1.9919,0,0,1-1.9919,1.9919H40.08388a1.9922,1.9922,0,0,1-1.9922-1.9922V13.7523A1.9922,1.9922,0,0,1,40.08388,11.7601Z"/>
        <rect class="cls-5" x="65.78848" y="11.7601" width="25.3335" height="25.3335" rx="1.9922"/>
        <rect class="cls-5" x="93.48518" y="11.7601" width="25.3335" height="25.3335" rx="1.9922"/>
        <path class="cls-5" d="M123.17388,11.7601h21.3494a1.9919,1.9919,0,0,1,1.9919,1.9919V35.1017a1.9919,1.9919,0,0,1-1.9919,1.9919h-21.3494a1.9922,1.9922,0,0,1-1.9922-1.9922V13.7523a1.9922,1.9922,0,0,1,1.9922-1.9922Z"/>
        <rect class="cls-5" x="148.87838" y="11.7601" width="25.3336" height="25.3335" rx="1.9922"/>
        <rect class="cls-5" x="176.57518" y="11.7601" width="25.3335" height="25.3335" rx="1.9922"/>
      </g>
      <g>
        <path class="cls-6" d="M40.08358,38.7751h21.3497a1.9919,1.9919,0,0,1,1.9919,1.9919V62.1167a1.9919,1.9919,0,0,1-1.9919,1.9919H40.08388a1.9922,1.9922,0,0,1-1.9922-1.9922V40.767A1.9919,1.9919,0,0,1,40.08358,38.7751Z"/>
        <path class="cls-6" d="M67.78058,38.7751h21.3492a1.9922,1.9922,0,0,1,1.9922,1.9922V62.1164a1.9922,1.9922,0,0,1-1.9922,1.9922H67.78068a1.9922,1.9922,0,0,1-1.9922-1.9922V40.7672A1.9921,1.9921,0,0,1,67.78058,38.7751Z"/>
        <path class="cls-6" d="M95.47708,38.7751h21.3494a1.9922,1.9922,0,0,1,1.9922,1.9922V62.1164a1.9922,1.9922,0,0,1-1.9922,1.9922H95.47738a1.9922,1.9922,0,0,1-1.9922-1.9922V40.767A1.9919,1.9919,0,0,1,95.47708,38.7751Z"/>
        <path class="cls-6" d="M123.17358,38.7751h21.3497a1.9919,1.9919,0,0,1,1.9919,1.9919V62.1167a1.9919,1.9919,0,0,1-1.9919,1.9919h-21.3494a1.9922,1.9922,0,0,1-1.9922-1.9922V40.767a1.9919,1.9919,0,0,1,1.9919-1.9919Z"/>
        <path class="cls-6" d="M150.87028,38.7751h21.3495a1.9922,1.9922,0,0,1,1.9922,1.9922V62.1164a1.9922,1.9922,0,0,1-1.9922,1.9922h-21.3492a1.9922,1.9922,0,0,1-1.9922-1.9922V40.767A1.9919,1.9919,0,0,1,150.87028,38.7751Z"/>
        <path class="cls-6" d="M178.56708,38.7751h21.3494a1.9922,1.9922,0,0,1,1.9922,1.9922V62.1164a1.9922,1.9922,0,0,1-1.9922,1.9922h-21.3491a1.9922,1.9922,0,0,1-1.9922-1.9922V40.767A1.9919,1.9919,0,0,1,178.56708,38.7751Z"/>
      </g>
      <g>
        <path class="cls-6" d="M40.08358,65.7901h21.3497a1.9919,1.9919,0,0,1,1.9919,1.9919V89.1315a1.9922,1.9922,0,0,1-1.9922,1.9922H40.08388a1.9922,1.9922,0,0,1-1.9922-1.9922V67.782A1.9919,1.9919,0,0,1,40.08358,65.7901Z"/>
        <path class="cls-6" d="M67.78038,65.7901h21.3494a1.9922,1.9922,0,0,1,1.9922,1.9922V89.1315a1.9922,1.9922,0,0,1-1.9922,1.9922H67.78058a1.9921,1.9921,0,0,1-1.9921-1.9921V67.782A1.9919,1.9919,0,0,1,67.78038,65.7901Z"/>
        <path class="cls-6" d="M95.47708,65.7901h21.3494a1.9922,1.9922,0,0,1,1.9922,1.9922V89.1315a1.9922,1.9922,0,0,1-1.9922,1.9922H95.47708a1.9919,1.9919,0,0,1-1.9919-1.9919V67.782A1.9919,1.9919,0,0,1,95.47708,65.7901Z"/>
        <path class="cls-6" d="M123.17358,65.7901h21.3497a1.9919,1.9919,0,0,1,1.9919,1.9919V89.1315a1.9922,1.9922,0,0,1-1.9922,1.9922h-21.3491a1.9922,1.9922,0,0,1-1.9922-1.9922V67.782A1.9919,1.9919,0,0,1,123.17358,65.7901Z"/>
        <path class="cls-6" d="M150.87028,65.7901h21.3495a1.9922,1.9922,0,0,1,1.9922,1.9922V89.1315a1.9922,1.9922,0,0,1-1.9922,1.9922h-21.3492a1.9922,1.9922,0,0,1-1.9922-1.9922V67.782A1.9919,1.9919,0,0,1,150.87028,65.7901Z"/>
        <path class="cls-6" d="M178.56708,65.7901h21.3494a1.9922,1.9922,0,0,1,1.9922,1.9922V89.1315a1.9922,1.9922,0,0,1-1.9922,1.9922h-21.3494a1.9919,1.9919,0,0,1-1.9919-1.9919V67.782A1.9919,1.9919,0,0,1,178.56708,65.7901Z"/>
      </g>
      <g>
        <path class="cls-6" d="M40.08358,92.8052h21.3497a1.9919,1.9919,0,0,1,1.9919,1.9919v21.3497a1.9919,1.9919,0,0,1-1.9919,1.9919H40.08388a1.9922,1.9922,0,0,1-1.9922-1.9922V94.7971A1.9919,1.9919,0,0,1,40.08358,92.8052Z"/>
        <path class="cls-6" d="M67.78038,92.8052h21.3494a1.9922,1.9922,0,0,1,1.9922,1.9922v21.3491a1.9922,1.9922,0,0,1-1.9922,1.9922H67.78058a1.9921,1.9921,0,0,1-1.9921-1.9921V94.7971A1.9919,1.9919,0,0,1,67.78038,92.8052Z"/>
        <path class="cls-6" d="M95.47708,92.8052h21.3494a1.9922,1.9922,0,0,1,1.9922,1.9922v21.3491a1.9922,1.9922,0,0,1-1.9922,1.9922H95.47708a1.9919,1.9919,0,0,1-1.9919-1.9919V94.7971A1.9919,1.9919,0,0,1,95.47708,92.8052Z"/>
        <path class="cls-6" d="M123.17358,92.8052h21.3497a1.9919,1.9919,0,0,1,1.9919,1.9919v21.3497a1.9919,1.9919,0,0,1-1.9919,1.9919h-21.3494a1.9922,1.9922,0,0,1-1.9922-1.9922V94.7971A1.9919,1.9919,0,0,1,123.17358,92.8052Z"/>
        <path class="cls-6" d="M150.87028,92.8052h21.3495a1.9922,1.9922,0,0,1,1.9922,1.9922v21.3491a1.9922,1.9922,0,0,1-1.9922,1.9922h-21.3492a1.9922,1.9922,0,0,1-1.9922-1.9922V94.7971A1.9919,1.9919,0,0,1,150.87028,92.8052Z"/>
        <path class="cls-6" d="M178.56708,92.8052h21.3494a1.9922,1.9922,0,0,1,1.9922,1.9922v21.3491a1.9922,1.9922,0,0,1-1.9922,1.9922h-21.3494a1.9919,1.9919,0,0,1-1.9919-1.9919V94.7971A1.9919,1.9919,0,0,1,178.56708,92.8052Z"/>
      </g>
      <g>
        <path class="cls-6" d="M40.08388,119.8199h21.3494a1.9919,1.9919,0,0,1,1.9919,1.9919v21.3497a1.9919,1.9919,0,0,1-1.9919,1.9919H40.08388a1.9922,1.9922,0,0,1-1.9922-1.9922V121.8121a1.9922,1.9922,0,0,1,1.9922-1.9922Z"/>
        <path class="cls-6" d="M67.78068,119.8199h21.3491a1.9922,1.9922,0,0,1,1.9922,1.9922v21.3491a1.9922,1.9922,0,0,1-1.9922,1.9922H67.78058a1.9921,1.9921,0,0,1-1.9921-1.9921V121.8121A1.9922,1.9922,0,0,1,67.78068,119.8199Z"/>
        <path class="cls-6" d="M95.47738,119.8199h21.3491a1.9922,1.9922,0,0,1,1.9922,1.9922v21.3491a1.9922,1.9922,0,0,1-1.9922,1.9922H95.47708a1.9919,1.9919,0,0,1-1.9919-1.9919V121.8121a1.9922,1.9922,0,0,1,1.9922-1.9922Z"/>
        <path class="cls-6" d="M123.17388,119.8199h21.3494a1.9919,1.9919,0,0,1,1.9919,1.9919v21.3497a1.9919,1.9919,0,0,1-1.9919,1.9919h-21.3494a1.9922,1.9922,0,0,1-1.9922-1.9922V121.8121a1.9922,1.9922,0,0,1,1.9922-1.9922Z"/>
        <rect class="cls-6" x="148.87838" y="119.8199" width="25.3336" height="25.3335" rx="1.9922"/>
        <path class="cls-6" d="M178.56738,119.8199h21.3491a1.9922,1.9922,0,0,1,1.9922,1.9922v21.3491a1.9922,1.9922,0,0,1-1.9922,1.9922h-21.3494a1.9919,1.9919,0,0,1-1.9919-1.9919V121.8121a1.9922,1.9922,0,0,1,1.9922-1.9922Z"/>
      </g>
    </g>
  </g>
</svg>
