<svg xmlns="http://www.w3.org/2000/svg" id="flag-icons-wls" viewBox="0 0 640 480"><path style="fill:#00b140;fill-opacity:1;stroke:none" d="M0 0h640v480H0z"/><path style="stroke:none;fill-rule:nonzero;fill:#fff;fill-opacity:1" d="M0 0h640v240H0Zm0 0"/><g transform="translate(0 60)"><path style="fill-rule:nonzero;fill:#c8102e;fill-opacity:1;stroke-width:1.157;stroke-linecap:butt;stroke-linejoin:miter;stroke:#000;stroke-opacity:1;stroke-miterlimit:4" d="M246.665 113.816c-25.981 3.938-91.821 10.121-117.51 5.907l5.02 12.09c42.514-3.934 83.257 9.843 121.05-4.5Zm0 0" transform="scale(.8 .8)"/><path style="fill-rule:nonzero;fill:#c8102e;fill-opacity:1;stroke-width:1.157;stroke-linecap:butt;stroke-linejoin:miter;stroke:#000;stroke-opacity:1;stroke-miterlimit:4" d="M145.986 143.344c-16.24-4.781-43.11-32.621-47.534-49.492 12.69 8.714 43.1 19.964 54.028 18.84-3.544 2.53-12.402 9.28-19.194 10.124 3.252 6.188 9.448 14.059 12.7 20.528Zm52.256-8.438c4.727 6.469 29.527 3.797 42.07-4.074l-3.393-5.484-2.51 4.636-3.984-4.355-1.035 6.887-6.934-5.063-1.186 6.05-4.43-5.343-1.62 6.61-6.494-5.067-2.51 6.895a13.2 13.2 0 0 1-3.1-8.297c-2.51.98-4.576 4.215-4.874 6.605Zm2.066-20.949c0 1.688 2.065 6.61 5.908 8.016.146-2.11-2.51-7.032-.889-9.137l3.399 3.09 1.03-5.906 4.58 3.234.44-6.887 4.726 3.09v-7.59c-7.68.7-17.129 9.559-19.194 12.09Zm479.111 76.629c-1.992-4.496-8.193-9.98-13.652-13.356 2.983-7 5.913-14.023 8.779-21.074-8.267 1.688-25.46 2.938-35.503 1.813 18.896-18 58.462-55.121 71.45-71.992-4.722 23.058-1.177 74.8 8.272 92.8-10.044-3.937-21.646-12.09-28.14-21.09-3.828 12.918-8.53 26.997-11.128 32.758" transform="scale(.8 .8)"/><path style="fill-rule:nonzero;fill:#c8102e;fill-opacity:1;stroke-width:1.157;stroke-linecap:butt;stroke-linejoin:miter;stroke:#000;stroke-opacity:1;stroke-miterlimit:4" d="M310.732 91.883c1.182 5.906 1.475 10.402 5.904 12.09 4.428 1.687 14.17 5.062 20.37 15.187-7.377-1.969-17.714-4.781-18.598 1.969-.845 6.426 2.114 6.234 7.085 7.308 6.494 1.407 12.695 9 12.993 19.125-5.317-3.093-12.695-5.625-17.422-5.625-4.721 0-6.054.844-7.231 6.47-1.948 9.273 1.626 9.84 6.05 10.402 4.433.562 13.877 4.78 14.468 20.25-5.02-4.22-15.088-6.57-21.26-7.594-3.394-.563-3.985 1.125-4.424 7.031-.444 5.906.293 7.875 6.196 9.559 5.908 1.691 12.696 5.906 14.468 14.906-5.61-2.531-14.468-1.688-17.124-.563s-4.097 7.41 1.514 19.5a176 176 0 0 1 37.163-7.687c27.905-2.8 21.26-21.371 21.26-50.621 0-29.246 61.41-61.863 154.707-113.61-22.437 54.555 8.271 49.493 25.39 43.31 17.124-6.188 57.28-21.935 88.58-34.872-43.111 27.559-64.957 56.805-27.164 69.738-48.423 14.625-70.864 54.559-44.292 79.867-18.12-6.113-43.232 5.418-53.75 21.48 18.897-1.687 55.523 2.704 77.964 8.892 21.367 5.886 56.636-1.008 59.961-19.16.176-.915.264-1.844.269-2.774 0-6.328-1.631-11.106-4.126-14.586-5.484-7.66-15.103-9.32-20.381-9.32-7.676 0-15.645 3.093-15.645 8.437s4.722 7.594 14.17 7.594c5.166 0 13.13.855 21.856-6.711 2.495 3.48 4.126 8.258 4.126 14.586a15 15 0 0 1-.279 2.734 56.84 56.84 0 0 1-26.884 6.825c-18.897 0-36.612-7.313-36.612-26.997 0-19.683 21.26-30.933 38.384-30.933 23.618 0 56.685 9 56.685 44.992 0 45.559-62.715 66.863-99.917 66.863 6.24 4.989 13.261 9.63 20.79 12.442 26.348 9.84 49.605 21.933 57.872 40.496-10.04 0-26.573-7.875-34.253-15.75 21.26 24.746-4.522 70.27-1.768 85.488 2.95 16.309 23.027 6.188 23.027 18.844 0 11.246-11.811 9.277-16.235 4.215-4.433-5.063-18.628-9.313-25.986-4.215-6.494 4.5-16.529 6.746-20.962 2.25-4.424-4.5-20.664-2.817-27.456 3.37-6.787 6.188-16.275 6.673-19.19 1.97-3.125-5.032-2.324-11.153 10.308-13.27-5.61-5.625-22.71 3.988-25.66-6.695-2.123-7.68 2.36-11.25 17.12-10.125-1.475-3.656-12.397-5.34-10.923-12.938 1.475-7.59 10.01-12.293 20.078-1.12 26.865 29.808 39.268 13.214 48.418.28-2.949-6.75.298-11.25 5.908-15.468-2.954-4.781-1.181-11.528.884-16.028-4.429-2.53-7.085-13.78-2.358-17.718-3.843 0-9.746-4.22-9.746-11.528a13.774 13.774 0 0 1-16.533-1.687c-5.61 3.094-20.372 3.656-26.87-3.094-8.858 3.375-24.503 2.527-28.638-3.937-7.793 1.968-22.144-4.5-25.093-11.532a30.55 30.55 0 0 1-12.944-3.933c-11.812 8.437-27.803 24.746-11.86 37.12 15.947 12.372 49.013 2.247 49.604 33.18-7.676-6.183-21.85-4.5-26.573-10.683-15.942 22.496-38.974 43.023-72.924 51.46 5.014 3.09 14.17 3.376 17.71 3.09 7.363-.581 13.584 5.344 7.973 12.376-5.61 7.03-17.124 1.125-23.916-4.782-9.77-8.5-16.235-3.656-18.896-1.687-2.652 1.969-6.197 3.098-10.923-1.406-4.722-4.5-9.155-1.403-11.514 1.406-3.838 4.57-12.695-5.906-26.865 6.469-6.816 5.949-23.032-1.688-16.538-10.407-6.787 1.692-18.799-7.707-8.853-16.87 9.15-8.434 26.568 10.968 40.743 5.343-3.184-3.86-9.825-11.012-23.619-12.652-7.09-.848-8.344-8.696-5.024-14.344 4.136-7.031 16.831-2.25 25.395 8.719 6.744 8.64 15.65 8.715 24.8 7.031 6.431-4.086 16.387-4.223 20.816-2.816 0-4.215 6.938-7.872 12.25-7.872-.292-5.625 1.475-10.687 10.04-12.093.713-.117 1.45-.23 2.212-.301a20.28 20.28 0 0 1-15.801-6.477c-11.826 2.883-24.932-2.675-26.856-13.312-18.696-1.305-20.551-20.168-15.947-26.309.376-.507.796-.98 1.26-1.41-5.566 4.184-12.676 6.121-21.465 3.074a33.35 33.35 0 0 1-36.06 12.293 27.3 27.3 0 0 1-15.898 11.36c.552 6.816-.918 14.539-9.917 23.613 2.363-12.375-14.17-16.309-10.625-36.555-1.182 14.621-45.767 38.805-52.851 70.864 6.494 2.812 13.583 4.78 18.012 3.937 11.133-2.121 14.761 9 11.514 13.496-3.252 4.5-12.402 6.75-16.24 2.813-3.838-3.938-11.812 1.406-15.65-5.907-3.838-7.308-14.468-4.777-18.896 0-4.424 4.782-19.19-6.183-29.82 4.782-3.974 4.101-17.417 8.437-25.39 6.187-7.969-2.25-12.696-10.125-10.04-14.34-5.312-4.785-5.385-10.636-.292-15.75-1.92-7.172 4.34-21.34 14.912-15.746 6.64 3.512 30.185 20.106 50.708 1.125 17.788-16.664 7.427-30.015 18.818-31.777-1.386-6.766 2.954-15.188 7.68-16.875a12.22 12.22 0 0 1-.697-9.016 29 29 0 0 1-7.852-1.718 105.6 105.6 0 0 1-27.178 3.988c0 6.746-8.266 23.058-15.351 30.933-2.363-61.867-61.411-68.054-69.385-117.265-.293 7.308-8.267 14.62-9.15 20.808-.889 6.188-4.727 10.965-11.812 8.157-7.085-2.817-8.857-14.625-1.772-16.313 7.09-1.687 5.761-12.937 10.185-14.344 4.429-1.406 5.166-5.906 3.399-11.527-1.773-5.625.883-12.375 2.656-16.59 1.767-4.222-.889-11.25-7.09-13.781-6.196-2.531-8.262-8.719-5.903-14.059-6.494-4.5-4.644-14.222 4.135-16.03 10.923-2.25 10.63 14.901 16.827 16.874-.884-3.375.297-9.844 2.954-14.062-3.545-7.313.888-13.215 7.973-13.215 12.398 0 8.267 19.683 5.313 25.87 4.13-5.624 10.63-12.093 15.65-7.593 5.019 4.496 4.199 13.895-1.182 17.996-4.43 3.375-13.584 8.719-10.923 14.625 5.312 8.996 8.56 19.684 9.15 33.461 7.383 5.348 12.105 11.531 12.105 16.594 4.873.281 14.199 4.129 15.503 9.562 5.903-.566 14.721.563 17.27 5.762 1.92-.984 7.041-1.312 10.142-1.031a19.08 19.08 0 0 1 4.326-12.043c-10.04-10.688-9.746-27.559.59-34.309-2.944-7.008-1.772-19.965 7.97-26.715-.21-7.035 1.772-16.308 11.513-22.214-1.474-7.594 3.545-17.996 9.746-18.563-1.48-7.309-.361-16.336 8.198-20.555a10.56 10.56 0 0 1-2.895-7.89c-15.015 3.094-20.884 11.847-25.674 20.012-.59-3.375-1.48-7.875-3.545-11.25 0 8.714-6.792 11.812-7.085 23.902-5.02-5.063-6.787-13.219-6.494-18.84.234-4.504-7.676-8.719-5.317-16.59 11.811 10.403 35.727-12.375 56.396-5.062-20.376-40.778-35.137-21.094-45.473-14.063-10.332 7.031-17.715-3.375-16.529-10.125-13.877-3.09-30.415-2.527-48.423.848 13.287-16.594 44.58-23.906 67.613-22.219 10.034-17.715 22.143-15.184 33.95-13.5 7.72 1.106 16.738 1.133 25.688.703 5.61-14.906 38.384-16.445 41.631-28.258 2.954 2.246 1.157 10.711-1.792 18.02 8.535-2.434 15.865-5.031 18.325-10.145 1.475 4.778-.883 17.715-4.135 21.653a34.3 34.3 0 0 1 10.337-1.125c-10.337 5.62-23.326 14.058-25.391 15.465-2.07 1.406-3.252 4.218 2.065 7.03-5.908 1.126-22.441 6.75-29.228 2.25" transform="scale(.8 .8)"/><path style="fill-rule:nonzero;fill:#c8102e;fill-opacity:1;stroke-width:1.157;stroke-linecap:butt;stroke-linejoin:miter;stroke:#000;stroke-opacity:1;stroke-miterlimit:4" d="M86.343 167.95c7.827-5.345 18.52-1.395 20.815 6.468 1.48 5.062-7.49 8.82-8.266 4.078-1.03-6.328-5.313-10.266-12.55-10.547Zm30.683-16.348c9.107-2.985 18.164 3.718 17.998 11.878-.112 5.25-9.834 6.403-9.15 1.653.913-6.348-2.002-11.285-8.848-13.531Zm33.863 14.394c8.681 3.957 10.2 14.79 4.072 20.492-3.945 3.668-11.724-2.008-7.734-4.937 5.322-3.91 6.884-9.383 3.662-15.555ZM81.733 279.66c7.579 5.652 18.443 2.14 21.084-5.62 1.7-4.997-7.094-9.114-8.076-4.407-1.313 6.277-5.771 10.039-13.008 10.027Zm53.327 113.72c3.173-8.656 14.311-11.29 20.932-6.117 4.263 3.336-.8 11.32-4.297 7.867-4.668-4.61-10.551-5.484-16.635-1.75Zm-9.961 23.281c.527-9.152 13.408-14.906 21.279-11.687 5.073 2.078 2.53 11.09-1.84 8.691-5.826-3.191-14.679-2.2-19.44 2.996Zm13.999 21.606c-3.301-8.614 3.56-17.371 12.129-17.364 5.517.004 6.909 9.243 1.904 8.68-6.675-.75-11.807 2.125-14.033 8.684Zm138.862-7.688c1.143-9.105-7.651-16.129-15.986-14.25-5.371 1.211-4.497 10.508.234 8.863 6.318-2.187 12.007-.515 15.752 5.387Zm53.267 2.906c-1.973-8.972 6.132-16.707 14.609-15.53 5.464.753 5.454 10.081.586 8.847-6.494-1.653-12.002.488-15.195 6.683Zm132.832-2.195c.737-9.14-8.355-15.805-16.602-13.594-5.312 1.422-4.033 10.676.625 8.848 6.216-2.441 11.968-.996 15.977 4.746ZM315.46 414.442c-1.416-9.07 8.032-16.875 16.42-15.222 5.406 1.062 3.946 10.926-.839 9.414-6.382-2.016-12.017-.192-15.581 5.808Zm12.363-26.09c.528-9.156 11.43-14.996 19.302-11.773 5.068 2.078 1.553 11.457-2.808 9.063-5.83-3.196-11.733-2.485-16.494 2.71Zm203.286 49.915c-1.977-8.977 6.133-16.707 14.61-15.536 5.459.758 5.454 10.09.58 8.852-6.493-1.652-12.001.492-15.19 6.684Zm131.934-4.297c2.041-8.961-6.01-16.746-14.497-15.63-5.464.72-5.527 10.052-.65 8.845 6.51-1.606 12.002.57 15.142 6.785Zm-148.926-16.504c-1.391-9.07 7.207-16.313 15.591-14.64 5.4 1.077 4.785 10.39.005 8.866-6.377-2.03-12.012-.214-15.596 5.774Zm4.912-24.762c.181-9.168 9.898-14.976 17.886-12.027 5.142 1.898 2.944 10.992-1.509 8.75-5.942-2.992-11.816-2.078-16.377 3.277Zm0 0" transform="scale(.8 .8)"/><path style="fill:none;stroke-width:1.157;stroke-linecap:butt;stroke-linejoin:miter;stroke:#000;stroke-opacity:1;stroke-miterlimit:4" d="M552.241 93.29c-22.436 7.312-109.238 39.929-125.18 44.991-15.943 5.063-24.214 6.188-33.658 26.996" transform="scale(.8 .8)"/><path style="fill:none;stroke-width:1.157;stroke-linecap:butt;stroke-linejoin:miter;stroke:#000;stroke-opacity:1;stroke-miterlimit:4" d="M510.317 69.102c-56.684 34.87-102.744 65.242-115.737 93.925-12.988 28.684-12.104 46.121-43.696 51.184m-90.933 53.992c14.17-15.75 43.696-34.871 72.041-35.996a169 169 0 0 0-14.175 26.996" transform="scale(.8 .8)"/><path style="fill:none;stroke-width:1.157;stroke-linecap:butt;stroke-linejoin:miter;stroke:#000;stroke-opacity:1;stroke-miterlimit:4" d="M317.227 269.89c7.09-9 24.8-28.12 36.02-35.995-5.312 15.187-14.17 51.18-9.448 75.925 2.949-23.62 15.942-60.175 29.526-80.988 10.04 23.059 23.618 55.68 23.618 76.492 2.954-24.75-2.949-67.492-11.811-86.05 24.214 11.808 54.326 45.554 67.32 66.363-8.858-29.246-38.975-64.68-54.918-75.93 39.56 6.75 96.841 30.938 118.096 48.934-34.834-30.934-77.354-55.118-107.466-66.368 47.236-3.933 135.81 6.188 161.201 15.75-37.197-20.25-113.965-30.933-160.02-28.12 48.419-19.688 134.63-42.184 204.307-51.743-53.144 2.809-121.64 16.309-191.909 31.492 31.299-20.246 128.14-58.488 151.167-65.238M274.121 79.79c4.219-13.27 21.426-16.793 35.41-20.785m-12.085 30.629c-11.811-.844-13.906-4.84-7.383-9.281 4.136-2.813 12.696-7.313 18.604-7.875-1.48-.278-5.61-1.407-7.676-1.684 6.197-2.531 16.533-6.188 20.073-9.563" transform="scale(.8 .8)"/><path style="fill:none;stroke-width:1.157;stroke-linecap:butt;stroke-linejoin:miter;stroke:#000;stroke-opacity:1;stroke-miterlimit:4" d="M283.716 68.262c-4.517.39-9.258.75-14.024.976m-16.533 65.106c-2.88.144-5.747.508-8.574 1.082m-39.448 142.289a32.45 32.45 0 0 0 8.164 21.98c4.721 5.063 33.657 6.75 34.839-2.808m-38.677-31.215c10.039 10.683 42.515 4.219 42.515-3.656m-41.924-30.653c3.54 8.438 41.333 16.032 41.924 6.188m-33.956-32.903c.298 9.84 34.712 16.235 35.728 9m-24.214-31.214c1.48 7.59 24.214 14.906 27.461 11.53m-17.715-30.093c1.074 5.336 17.422 10.125 23.028 8.156m-14.83-28.71c3.35 3.874 9.85 7.476 21.03 9.308m-77.646-49.215c.293-5.902 6.197-6.746 5.313-12.652m56.69 36.84c2.065 3.09 7.377 9.558 7.968 14.34 2.954-2.25 5.312-7.032 6.201-9.278a18.44 18.44 0 0 1 5.903 8.996c1.182-3.375 3.252-9.277 3.545-12.933a27.4 27.4 0 0 1 11.514 5.62c.59-3.655-1.182-8.437-4.136-10.405 3.267.136 6.514-.54 9.449-1.965-2.066-2.813-5.313-6.47-8.56-8.157 2.954-.843 7.085-4.214 8.857-5.625-2.656-1.12-7.382-3.656-10.337-5.058 1.773-1.692 3.252-5.063 4.136-7.598m-83.554-13.637c-1.92 0-2.808 4.22.737 6.891 2.549 1.922 2.51 9.844-2.066 11.813" transform="scale(.8 .8)"/><path style="fill:none;stroke-width:1.157;stroke-linecap:butt;stroke-linejoin:miter;stroke:#000;stroke-opacity:1;stroke-miterlimit:4" d="M272.94 141.656c-12.989 28.684-24.947 83.098-20.816 122.469m14.023 53.852c0 5.906 9.747 7.03 9.449-7.032" transform="scale(.8 .8)"/><path style="fill:none;stroke-width:1.157;stroke-linecap:butt;stroke-linejoin:miter;stroke:#000;stroke-opacity:1;stroke-miterlimit:4" d="M274.712 317.977c1.182 5.062 11.22 6.187 9.15-8.72" transform="scale(.8 .8)"/><path style="fill:none;stroke-width:1.157;stroke-linecap:butt;stroke-linejoin:miter;stroke:#000;stroke-opacity:1;stroke-miterlimit:4" d="M270.581 321.914c.586 10.969 7.969 10.406 8.56 0m5.02-7.594c2.948 6.75 11.215 3.375 8.857-11.53" transform="scale(.8 .8)"/><path style="fill:none;stroke-width:1.157;stroke-linecap:butt;stroke-linejoin:miter;stroke:#000;stroke-opacity:1;stroke-miterlimit:4" d="M293.31 309.258c3.252 5.625 10.928 1.129 11.812-8.715m-50.19-22.496c-5.069 5.281-10.88 17.144-3.843 28.398 4.136 6.61 15.503 10.266 16.684 6.328m-16.684-6.328c-4.575.707-11.304 10.047-7.969 18.98 2.363 6.329 15.942 10.13 18.008 5.49m128.73-16.595c14.761 1.688 34.248-7.875 35.43-26.996" transform="scale(.8 .8)"/><path style="fill:none;stroke-width:1.157;stroke-linecap:butt;stroke-linejoin:miter;stroke:#000;stroke-opacity:1;stroke-miterlimit:4" d="M423.516 296.324c8.266 5.059 25.39 6.75 32.475-6.187m-24.8 10.125c-7.675 16.87-14.633 34.797 1.182 47.804 12.988 10.688 22.642-5.246 38.384 10.688 4.722 4.777-.889 13.777-48.423 39.93M194.995 278.746c3.1 6.328 2.803 18.703-3.1 17.016m-43.55 122.886c10.039-14.62 21.89-2.804 30.41-5.34" transform="scale(.8 .8)"/><path style="fill-rule:nonzero;fill:#fff;fill-opacity:1;stroke-width:1.157;stroke-linecap:butt;stroke-linejoin:miter;stroke:#000;stroke-opacity:1;stroke-miterlimit:4" d="M226.733 84.43c-1.772 4.078 2.945 9.78 7.383 10.265 5.166.563 12.549-2.672 10.923-7.875" transform="scale(.8 .8)"/><path style="fill:none;stroke-width:1.157;stroke-linecap:butt;stroke-linejoin:miter;stroke:#000;stroke-opacity:1;stroke-miterlimit:4" d="M221.567 84.852c2.657-3.516 33.658 7.593 46.06-.282M121.182 189.746c-1.177 2.527-.738 9.98 3.842 14.059m215.23 212.593c2.363-2.808 11.108-5.648 17.568-4.074 6.348 1.543 17.715-.562 25.098-3.375M272.94 141.656c-2.95 27.559 3.69 69.883 20.668 88.723m-29.585-64.254c.489 24.523 6.792 53.637 19.253 69.664m-26.074-42.941c2.451 18.558 7.979 37.218 16.71 49.34m-20.992-21.172c2.95 11.011 7.104 21.12 12.495 28.722m-14.014-2.07a67 67 0 0 0 5.88 10.137" transform="scale(.8 .8)"/><path style="fill:none;stroke-width:1.157;stroke-linecap:butt;stroke-linejoin:miter;stroke:#000;stroke-opacity:1;stroke-miterlimit:4" d="M272.349 158.809c-.884 8.718-6.495 15.468-11.514 19.406m12.104-7.313c-.883 8.72-7.085 16.59-15.205 20.387m16.978-8.293c-.884 8.715-9.746 19.402-19.78 24.184m22.143-12.094c-.884 8.719-12.402 21.934-24.126 26.176m27.818-14.082c-3.399 11.808-16.978 25.59-28.936 28.683m34.248-16.59c-.889 8.715-19.043 26.43-34.692 31.493m-73.662 22.218c1.919 8.012-4.43 15.325-7.676 13.356" transform="scale(.8 .8)"/><path style="fill:none;stroke-width:1.157;stroke-linecap:butt;stroke-linejoin:miter;stroke:#000;stroke-opacity:1;stroke-miterlimit:4" d="M211.528 300.824c-30.703-6.187-53.535-16.496-66.132-40.496-3.252-6.187 5.312-7.875 4.721-13.5m-9.15-33.46c-5.318-9-6.5-18.845-3.545-25.028" transform="scale(.8 .8)"/><path style="fill:none;stroke-width:1.157;stroke-linecap:butt;stroke-linejoin:miter;stroke:#000;stroke-opacity:1;stroke-miterlimit:4" d="M162.222 263.422c0 5.062-6.348 11.527-8.56 9.137m59.639 27.136c-3.54 8.192 3.305 23.825 18.32 29.2m11.5-3.465a9.5 9.5 0 0 0-3.648 5.183m15.752 11.547c-2.657 4.219-12.989 1.125-15.054-2.531m-26.5 48.652c-12.519 11.723-25.273 12.383-40.522 14.059-15.356 1.687-19.633-4.918-25.097.562m165.63-102.64c1.777 7.87 1.181 15.746-5.904 27.558-3.91 6.516-.205 13.547.47 21.942m73.422-26.727c6.767-5.086 11.235-13.48 13.5-19.96m-34.97 23.034a32.6 32.6 0 0 0 3.086-34.847m-39.14 47.14c4.536-6.675 7.255-16.183 7.255-28.582m-98.91 46.684c1.18 5.762 10.336 8.293 11.81 5.484" transform="scale(.8 .8)"/><path style="fill:none;stroke-width:1.157;stroke-linecap:butt;stroke-linejoin:miter;stroke:#000;stroke-opacity:1;stroke-miterlimit:4" d="M305.713 288.73c0 5.625-5.903 9.844-10.337 6.47.59 8.152-5.605 10.687-10.034 6.75.884 11.527-9.15 12.652-15.65 3.652-7.382 34.59-32.182 60.46-33.955 77.336-.586 3.933-16.386 2.812-12.25-8.72m189.399-53.71c-8.858-1.055-24.434-3.645-31.216 2.527m34.76 23.906c-8.188 3.094-14.8 4.18-20.073 3.813m42.657 19.793c8.159-.309 16.577-5.473 19.931-18.262m-35.732 11.781a24.45 24.45 0 0 0 15.952-12.343" transform="scale(.8 .8)"/><path style="fill:none;stroke-width:1.157;stroke-linecap:butt;stroke-linejoin:miter;stroke:#000;stroke-opacity:1;stroke-miterlimit:4" d="M463.374 373.375c-5.142-1.547-15.991-3.59-24.36-2.828m-4.868 21.672c3.247-1.692-2.066-9.281-7.383-9.281m-54.62 21.933a130.4 130.4 0 0 0 21.553-11.25m20.816-2.812c4.009 1.277 9.892 6.187 7.822 7.875m30.117-113.047c4.722 7.875 13.58 12.937 25.39 7.875.83 2.37 3.638 4.804 7.135 6.75m32.724-16.594c5.904 4.5-4.429 21.09-19.78 20.527" transform="scale(.8 .8)"/><path style="fill:none;stroke-width:1.157;stroke-linecap:butt;stroke-linejoin:miter;stroke:#000;stroke-opacity:1;stroke-miterlimit:4" d="M600.366 385.188c2.051 4.68 9.746 4.214 12.7 0 3.37-4.82 9.449-19.688 5.904-49.497-3.545-29.804-33.658-33.742-68.496-40.492-34.844-6.75-43.702-17.437-50.782-37.12" transform="scale(.8 .8)"/><path style="fill:none;stroke-width:1.157;stroke-linecap:butt;stroke-linejoin:miter;stroke:#000;stroke-opacity:1;stroke-miterlimit:4" d="M606.274 369.719c2.95 4.781 11.216 3.656 12.398-1.125m-11.514-14.903c4.429 2.532 12.993 1.688 12.696-3.937m-15.06-13.781c3.839 0 14.176.562 13.585-3.938m-23.325-7.59c3.247-2.25 12.402-11.812 7.378-14.625m-23.911 12.938c5.61-3.094 11.811-19.121 5.019-20.531m-31.89 17.437c8.858-3.375 17.13-20.812 11.221-21.934m-39.858 17.997c14.467-3.657 18.896-22.215 13.286-23.903m6.494 107.14c15.068 1.15 23.325 8.72 29.233 11.813m-32.773-164.511c13.726-1.262 27.222 18.734 45.933 33.68m105.439-122.259c2.583-8.71 4.746-16.898 5.698-21.656M551.328 415.785c3.526-.558 7.09-.82 10.66-.789m123.115-285.715c-1.993 5.383-6.285 16.34-10.557 26.875M313.72 221.898c-26.04 8.551-53.008 24.973-70.303 55.301 9.448 2.25 27.749 0 36.016-2.812.59 7.312.59 16.875.59 23.062 8.272-6.187 18.306-15.187 25.987-17.433-.596 7.308-.596 20.242-.596 25.308 11.22-11.25 32.476-12.375 38.384 4.496 4.726-24.746 43.696-25.87 53.144-4.496 10.63-19.687 37.793-27 55.508-19.687 7.676-20.809 41.333-32.059 63.179-26.996-7.241-9.536-5.947-20.075-.01-29.137" transform="scale(.8 .8)"/><path style="fill-rule:nonzero;fill:#000;fill-opacity:1;stroke-width:1.692;stroke-linecap:butt;stroke-linejoin:round;stroke:#000;stroke-opacity:1;stroke-miterlimit:4" d="m230.23 85.39 11.577 2.04s-8.15 10.406-11.578-2.04Zm0 0" transform="scale(.8 .8)"/></g></svg>