<?xml version="1.0" encoding="utf-8"?>
<!-- Generator: Adobe Illustrator 17.0.0, SVG Export Plug-In . SVG Version: 6.00 Build 0)  -->
<!DOCTYPE svg PUBLIC "-//W3C//DTD SVG 1.1//EN" "http://www.w3.org/Graphics/SVG/1.1/DTD/svg11.dtd" [
	<!ENTITY ns_flows "http://ns.adobe.com/Flows/1.0/">
	<!ENTITY ns_extend "http://ns.adobe.com/Extensibility/1.0/">
	<!ENTITY ns_ai "http://ns.adobe.com/AdobeIllustrator/10.0/">
	<!ENTITY ns_graphs "http://ns.adobe.com/Graphs/1.0/">
]>
<svg version="1.1" id="Layer_2" xmlns:x="&ns_extend;" xmlns:i="&ns_ai;" xmlns:graph="&ns_graphs;"
	 xmlns="http://www.w3.org/2000/svg" xmlns:xlink="http://www.w3.org/1999/xlink" xmlns:a="http://ns.adobe.com/AdobeSVGViewerExtensions/3.0/"
	 x="0px" y="0px" width="256px" height="256px" viewBox="0 0 256 256" style="enable-background:new 0 0 256 256;"
	 xml:space="preserve">
<style type="text/css">
	.st0{fill:#FFFFFF;}
	.st1{fill:#54B948;}
	.st2{fill:#1D8C8E;}
	.st3{fill:#14DEAC;}
	.st4{fill:#1466AC;}
	.st5{fill:#757575;}
	.st6{fill:#B69442;}
	.st7{fill:#1A234D;}
	.st8{fill:#AA0629;}
	.st9{fill:#FF4A49;}
	.st10{fill:#3C6643;}
	.st11{fill:none;stroke:#FF4A49;stroke-miterlimit:10;}
	.st12{fill:#E70084;}
	.st13{fill:#508A72;}
	.st14{fill:#01A663;}
	.st15{fill:#015297;}
	.st16{fill:#B0B0B0;}
	.st17{fill:#E1062F;}
	.st18{fill:#D80000;stroke:#FFFFFF;stroke-width:2;stroke-miterlimit:10;}
	.st19{fill:#D80000;}
	.st20{fill:#8ABE23;}
	.st21{fill:#1D1D1B;}
	.st22{fill:#FEFEFE;}
	.st23{fill:#FF0000;}
	.st24{fill:#FF1D1B;}
	.st25{fill:#6DB2DE;}
	.st26{fill:#FF1D25;}
	.st27{fill:#FFDA00;}
	.st28{fill:#024D9E;}
	.st29{fill:#6B97C6;}
	.st30{fill:#000078;}
	.st31{fill:none;stroke:#FFFFFF;stroke-width:6;stroke-linecap:round;stroke-miterlimit:10;}
	.st32{fill:#FFEE34;}
	.st33{fill:none;stroke:#000000;stroke-width:4;stroke-miterlimit:10;}
	.st34{fill:#D11E24;}
	.st35{fill:#D71F26;}
	.st36{fill:#020000;}
	.st37{fill:none;stroke:#000000;stroke-width:2;stroke-miterlimit:10;}
	.st38{clip-path:url(#SVGID_2_);}
	.st39{fill:#00317D;}
	.st40{fill:#00737D;}
	.st41{fill:#ED1C24;}
	.st42{fill:#2678C7;}
	.st43{fill:#1853A6;}
	.st44{fill:#CB0000;}
	.st45{fill:#E61C21;}
	.st46{clip-path:url(#SVGID_4_);}
	.st47{fill:#6BDEF1;}
	.st48{clip-path:url(#SVGID_6_);}
	.st49{fill:#0165B2;}
	.st50{fill:#DE1134;}
	.st51{fill:#00A668;}
	.st52{fill:#FFE60B;}
	.st53{fill:#843D00;stroke:#000000;stroke-miterlimit:10;}
	.st54{fill:#EC1F27;}
	.st55{fill:#162984;}
	.st56{fill:#1853A6;stroke:#1853A6;stroke-miterlimit:10;}
	.st57{fill:none;}
	.st58{fill:none;stroke:#1853A6;stroke-width:0.9;stroke-miterlimit:10;}
	.st59{fill:#1853A6;stroke:#1853A6;stroke-width:0.9;stroke-miterlimit:10;}
	.st60{fill:#B5985A;}
	.st61{fill:#FFE60B;stroke:#000000;stroke-width:6;stroke-miterlimit:10;}
	.st62{fill:#008DCD;}
	.st63{fill:#009939;}
	.st64{fill:#2E3092;}
	.st65{fill:#EE3224;}
	.st66{fill:#005BAB;}
	.st67{fill:#D30027;}
	.st68{fill:#FFFFFF;stroke:#D30027;stroke-width:10;stroke-miterlimit:10;}
	.st69{fill:#E81C2F;}
	.st70{fill:#DC032B;}
	.st71{fill:#F25448;}
	.st72{fill:#FFFFFF;stroke:#F25448;stroke-width:6;stroke-miterlimit:10;}
	.st73{fill:#05A08D;}
	.st74{fill:#1875CE;}
	.st75{fill:#D72427;}
	.st76{fill:#004993;}
	.st77{fill:#007BB0;}
	.st78{fill:#FFEB00;}
	.st79{fill:#664A9E;}
	.st80{fill:#F4C701;}
	.st81{fill:#EBBE12;}
	.st82{fill:#44B3DB;}
	.st83{fill:#F6FF82;}
	.st84{fill:#FFC918;}
	.st85{fill:#0361A4;}
	.st86{fill:#009FE3;}
	.st87{fill:#E30217;}
	.st88{fill:#FDEA00;}
	.st89{fill:#E91B00;}
	.st90{fill:#2B2763;}
	.st91{fill:#EE1A22;}
	.st92{fill:#F1AA25;}
	.st93{fill:#93000C;}
	.st94{fill:none;stroke:#1D1D1B;stroke-width:4;}
	.st95{fill:#3E4E70;}
	.st96{fill:#096CB6;}
	.st97{fill:#0559A8;}
	.st98{fill:#F9ED1A;}
	.st99{fill:#949494;}
	.st100{fill:#FFD033;}
	.st101{fill:#243D89;}
	.st102{fill:#F8C936;}
	.st103{fill:#D44128;}
	.st104{fill:#ED1B23;}
	.st105{fill:#0C529C;}
	.st106{fill:#E31E24;}
	.st107{fill:#0263B0;}
	.st108{fill:#007AC2;}
	.st109{fill:#EF3D1F;}
	.st110{fill:#EE1C24;}
	.st111{fill:#FDEA00;stroke:#000000;stroke-width:0.6509;}
	.st112{fill:#FDEA00;stroke:#000000;stroke-width:0.6979;}
	.st113{fill:#46A0BE;}
	.st114{fill:#005FA5;}
	.st115{fill:#00904C;}
	.st116{fill:#E21F26;}
	.st117{fill:#FD0001;}
	.st118{fill:#0066B3;}
	.st119{fill:#E20019;}
	.st120{fill:#0171BC;}
	.st121{fill:#01305D;}
	.st122{fill:#1B7EE9;}
	.st123{fill:#BA0D0B;}
	.st124{fill:none;stroke:#000000;stroke-width:3;stroke-miterlimit:10;}
	.st125{fill:#FFFFFF;stroke:#000000;stroke-width:0.8836;stroke-miterlimit:10;}
	.st126{fill:#FFFFFF;stroke:#000000;stroke-width:0.9759;stroke-miterlimit:10;}
	.st127{fill:#0053A1;}
	.st128{fill:#FFE100;}
	.st129{fill:#FFE500;}
	.st130{fill:none;stroke:#FFE500;stroke-width:2;stroke-miterlimit:10;}
	.st131{fill:#01AFF3;}
	.st132{fill:#ED1B28;}
	.st133{fill:#E2000A;}
</style>
<g>
	<g>
		<path class="st0" d="M128,247.5C62.1,247.5,8.5,193.9,8.5,128S62.1,8.5,128,8.5S247.5,62.1,247.5,128S193.9,247.5,128,247.5z"/>
		<path d="M128,13c30.7,0,59.6,12,81.3,33.7S243,97.3,243,128s-12,59.6-33.7,81.3S158.7,243,128,243s-59.6-12-81.3-33.7
			S13,158.7,13,128s12-59.6,33.7-81.3S97.3,13,128,13 M128,4C59.5,4,4,59.5,4,128s55.5,124,124,124s124-55.5,124-124S196.5,4,128,4
			L128,4z"/>
	</g>
	<g>
		<circle class="st0" cx="128" cy="128" r="105.4"/>
		<path d="M128,235.9c-59.5,0-107.9-48.4-107.9-107.9S68.5,20.1,128,20.1S235.9,68.5,235.9,128S187.5,235.9,128,235.9z M128,25.1
			C71.3,25.1,25.1,71.3,25.1,128S71.3,230.9,128,230.9S230.9,184.7,230.9,128S184.7,25.1,128,25.1z"/>
	</g>
	<g>
		<path d="M200.5,53.5L51.5,202.5c19.1,19.1,45.4,30.9,74.5,30.9c58.2,0,105.4-47.2,105.4-105.4C231.4,98.9,219.6,72.5,200.5,53.5z"
			/>
	</g>
	<path d="M101.7,129.3c1.4,0.1,0.9,1.1,0.9,1.8c-0.1,4-1.5,7.8-3.4,12c7-4.4,11.2-10.4,14.8-17.7c0.6,3.2,0.1,5.6,0,8.2
		c10.2-10,13.2-22.1,9.9-36.7c2.6,2.3,4.8,4.2,7.3,6.5c-0.7-8.7-4.4-15.6-9.1-22.4c1.7-0.2,2.7,1.3,4.2,1.4c0.4-0.4,0-0.8-0.2-1.1
		c-5.3-8.7-11.9-16-20.7-21.2C96,54.6,86,53.6,75.6,56.4c-3.2,0.9-6.1,2.3-8.1,5c-0.6,0.8-1.2,1-2.1,1.1c-2.1,0.2-4.2,0.3-6.1,1
		c-4,1.4-6.6,4.1-7.4,8.3c-0.7,4.1,0.3,7.6,3.7,10.2c0.2,0.2,0.4,0.3,0.6,0.4c0.1,0,0.2,0,0.3,0c0.5-0.4,0.1-0.9,0.1-1.4
		c0.1-3.2,1.2-4.3,4.4-4.2C70,77.1,75,84.2,73.1,94.2c-0.8,4.6-2.7,8.9-4.5,13.2c-3,7-4.8,14.2-4.3,21.8c0.1,0.9-0.1,1.8,0.6,3
		c5.5-4.1,10.1-9,14.3-15.1c0,7.2-1.5,13.3-3.6,19.9c3.8-2.1,6.3-4.9,8.9-7.7c0,2-0.5,3.5-2,5.6c-0.8,1.1-1.1,2.1-0.8,3.4
		c1,4.7,0.3,9.3-0.6,13.9c-0.1,0.6-0.5,1.2-0.1,2.1c6.8-4.8,12.4-10.6,16.8-17.6C99.3,134.2,100.9,131.9,101.7,129.3
		c-0.8,0-0.9,1.3-2,1.3c2.4-12,0.7-23.4-5.6-33.9c0.5,10.6-2.6,20-7.8,23c1.5-6,1.6-11.8-0.4-17.5c-1.2,0-1.4,1.3-2.6,1.2
		c1-2.5,1.7-4.8,1.9-7.4c0.2-2.5-0.5-4.8-0.9-7.4c1.8,0.8,2.9,2.3,4.9,3.7c-3.4-9.9-10.4-14.3-19.6-16.1c4-1.1,8-0.7,12.1-0.4
		c-0.4-0.6-0.9-0.7-1.3-0.9c-4.8-1.7-9.8-1.7-14.8-1.7c-3.6,0-7.3,0-9.8,3.6c-1.5-5.2,0.7-9.3,5.6-10.3c2.3-0.5,4.6-0.6,6.9-0.8
		c0.7-0.1,1.5,0,1.8-1c1.3-3.5,4.4-4.4,7.4-5.2c17.1-4.2,30.7,4.6,39,15.6c0.1,0.1,0,0.3,0,0.6c-1.6-0.3-3.1-1.3-5.2-1.3
		c5.5,5.3,9.6,11.1,12.1,17.9c-3.7-2.3-6.9-5.2-10.8-7.1c3.3,4.7,5.1,9.8,5.8,15.4c0.7,5.6-0.9,13.5-3.2,15.7
		c-0.9-9.1-4.1-16.3-8.9-19.8c1.2,3.1,2,6.1,2.2,9.1c0.3,3.2,0.2,6.3-0.4,9.4C107.2,120.2,104.7,124.8,101.7,129.3z"/>
	<path d="M96.9,67.2C89.6,60.8,81.6,64.3,74,65c2,3.6,7,5.9,10.6,4.9c0.7-0.2,1.6-0.4,2-1c2.3-3.8,5.7-2.3,8.9-1.9
		c0.3,0,0.6,0.1,1,0.1C96.4,67.3,96.5,67.2,96.9,67.2z"/>
	<path d="M67.5,70c0.7,0,1.2-0.3,1.2-1c-0.1-1-0.8-1.6-1.8-1.7c-0.7,0-1.2,0.2-1.1,1C65.9,69.3,66.6,69.8,67.5,70z"/>
	<path class="st0" d="M214,164h-35.5c-2.7-2.6-5-5.2-5-9c0-2.9,2.7-3,3.2-3s3.2,0.1,3.2,3h6c0-5.9-4.6-9-9.2-9s-9.2,3.1-9.2,9
		c0,3.7,1.2,6.6,3,9H156v-20h32v-6h-32h-6v6v45h6v-19h20.2c2.8,2.5,5.2,4.7,5.2,7.2l0,0.5c0.1,0.9,0.3,3.7-0.9,5
		c-0.2,0.2-0.8,0.9-2.6,0.9c-1.6,0-2.7-0.4-3.5-1.2c-1.3-1.5-1.4-4.2-1.3-5.1l-3-0.3l-3-0.3c-0.1,0.6-0.6,6,2.8,9.7
		c1.3,1.5,3.8,3.2,7.9,3.2c3.8,0,6-1.7,7.2-3.1c2.9-3.4,2.5-8.4,2.3-9.6c-0.1-2.8-1.2-5-2.8-7H207l0.7,0
		c-3,18.7-19.7,33.5-39.1,33.5c-21.8,0-39.6-17.9-39.6-39.8c0-21.8,17.8-39.6,39.7-39.6c10.5,0,20.7,4.3,28.1,11.7l4.2-4.2
		c-8.5-8.5-20.4-13.5-32.4-13.5c-25.2,0-45.7,20.5-45.7,45.6c0,25.2,20.4,45.8,45.5,45.8c25.1,0,45.5-20.3,45.5-45.3
		C214,164.1,214,164.1,214,164z"/>
</g>
</svg>
