<?xml version="1.0" encoding="utf-8"?>
<!-- Generator: Adobe Illustrator 17.0.0, SVG Export Plug-In . SVG Version: 6.00 Build 0)  -->
<!DOCTYPE svg PUBLIC "-//W3C//DTD SVG 1.1//EN" "http://www.w3.org/Graphics/SVG/1.1/DTD/svg11.dtd" [
	<!ENTITY ns_flows "http://ns.adobe.com/Flows/1.0/">
	<!ENTITY ns_extend "http://ns.adobe.com/Extensibility/1.0/">
	<!ENTITY ns_ai "http://ns.adobe.com/AdobeIllustrator/10.0/">
	<!ENTITY ns_graphs "http://ns.adobe.com/Graphs/1.0/">
]>
<svg version="1.1" id="Layer_2" xmlns:x="&ns_extend;" xmlns:i="&ns_ai;" xmlns:graph="&ns_graphs;"
	 xmlns="http://www.w3.org/2000/svg" xmlns:xlink="http://www.w3.org/1999/xlink" xmlns:a="http://ns.adobe.com/AdobeSVGViewerExtensions/3.0/"
	 x="0px" y="0px" width="256px" height="256px" viewBox="0 0 256 256" style="enable-background:new 0 0 256 256;"
	 xml:space="preserve">
<style type="text/css">
	.st0{fill:#FFFFFF;}
	.st1{fill:#54B948;}
	.st2{fill:#1D8C8E;}
	.st3{fill:#14DEAC;}
	.st4{fill:#1466AC;}
	.st5{fill:#757575;}
	.st6{fill:#B69442;}
	.st7{fill:#1A234D;}
	.st8{fill:#AA0629;}
	.st9{fill:#FF4A49;}
	.st10{fill:#3C6643;}
	.st11{fill:none;stroke:#FF4A49;stroke-miterlimit:10;}
	.st12{fill:#E70084;}
	.st13{fill:#508A72;}
	.st14{fill:#01A663;}
	.st15{fill:#015297;}
	.st16{fill:#B0B0B0;}
	.st17{fill:#E1062F;}
	.st18{fill:#D80000;stroke:#FFFFFF;stroke-width:2;stroke-miterlimit:10;}
	.st19{fill:#D80000;}
	.st20{fill:#8ABE23;}
	.st21{fill:#1D1D1B;}
	.st22{fill:#FEFEFE;}
	.st23{fill:#FF0000;}
	.st24{fill:#FF1D1B;}
	.st25{fill:#6DB2DE;}
	.st26{fill:#FF1D25;}
	.st27{fill:#FFDA00;}
	.st28{fill:#024D9E;}
	.st29{fill:#6B97C6;}
	.st30{fill:#000078;}
	.st31{fill:none;stroke:#FFFFFF;stroke-width:6;stroke-linecap:round;stroke-miterlimit:10;}
	.st32{fill:#FFEE34;}
	.st33{fill:none;stroke:#000000;stroke-width:4;stroke-miterlimit:10;}
	.st34{fill:#D11E24;}
	.st35{fill:#D71F26;}
	.st36{fill:#020000;}
	.st37{fill:none;stroke:#000000;stroke-width:2;stroke-miterlimit:10;}
	.st38{clip-path:url(#SVGID_2_);}
	.st39{fill:#00317D;}
	.st40{fill:#00737D;}
	.st41{fill:#ED1C24;}
	.st42{fill:#2678C7;}
	.st43{fill:#1853A6;}
	.st44{fill:#CB0000;}
	.st45{fill:#E61C21;}
	.st46{clip-path:url(#SVGID_4_);}
	.st47{fill:#6BDEF1;}
	.st48{clip-path:url(#SVGID_6_);}
	.st49{fill:#0165B2;}
	.st50{fill:#DE1134;}
	.st51{fill:#00A668;}
	.st52{fill:#FFE60B;}
	.st53{fill:#843D00;stroke:#000000;stroke-miterlimit:10;}
	.st54{fill:#EC1F27;}
	.st55{fill:#162984;}
	.st56{fill:#1853A6;stroke:#1853A6;stroke-miterlimit:10;}
	.st57{fill:none;}
	.st58{fill:none;stroke:#1853A6;stroke-width:0.9;stroke-miterlimit:10;}
	.st59{fill:#1853A6;stroke:#1853A6;stroke-width:0.9;stroke-miterlimit:10;}
	.st60{fill:#B5985A;}
	.st61{fill:#FFE60B;stroke:#000000;stroke-width:6;stroke-miterlimit:10;}
	.st62{fill:#008DCD;}
	.st63{fill:#009939;}
	.st64{fill:#2E3092;}
	.st65{fill:#EE3224;}
	.st66{fill:#005BAB;}
	.st67{fill:#D30027;}
	.st68{fill:#FFFFFF;stroke:#D30027;stroke-width:10;stroke-miterlimit:10;}
	.st69{fill:#E81C2F;}
	.st70{fill:#DC032B;}
	.st71{fill:#F25448;}
	.st72{fill:#FFFFFF;stroke:#F25448;stroke-width:6;stroke-miterlimit:10;}
	.st73{fill:#05A08D;}
	.st74{fill:#1875CE;}
	.st75{fill:#D72427;}
	.st76{fill:#004993;}
	.st77{fill:#007BB0;}
	.st78{fill:#FFEB00;}
	.st79{fill:#664A9E;}
	.st80{fill:#F4C701;}
	.st81{fill:#EBBE12;}
	.st82{fill:#44B3DB;}
	.st83{fill:#F6FF82;}
	.st84{fill:#FFC918;}
	.st85{fill:#0361A4;}
	.st86{fill:#009FE3;}
	.st87{fill:#E30217;}
	.st88{fill:#FDEA00;}
	.st89{fill:#E91B00;}
	.st90{fill:#2B2763;}
	.st91{fill:#EE1A22;}
	.st92{fill:#F1AA25;}
	.st93{fill:#93000C;}
	.st94{fill:none;stroke:#1D1D1B;stroke-width:4;}
	.st95{fill:#3E4E70;}
	.st96{fill:#096CB6;}
	.st97{fill:#0559A8;}
	.st98{fill:#F9ED1A;}
	.st99{fill:#949494;}
	.st100{fill:#FFD033;}
	.st101{fill:#243D89;}
	.st102{fill:#F8C936;}
	.st103{fill:#D44128;}
	.st104{fill:#ED1B23;}
	.st105{fill:#0C529C;}
	.st106{fill:#E31E24;}
	.st107{fill:#0263B0;}
	.st108{fill:#007AC2;}
	.st109{fill:#EF3D1F;}
	.st110{fill:#EE1C24;}
	.st111{fill:#FDEA00;stroke:#000000;stroke-width:0.6509;}
	.st112{fill:#FDEA00;stroke:#000000;stroke-width:0.6979;}
	.st113{fill:#46A0BE;}
	.st114{fill:#005FA5;}
	.st115{fill:#00904C;}
	.st116{fill:#E21F26;}
	.st117{fill:#FD0001;}
	.st118{fill:#0066B3;}
	.st119{fill:#E20019;}
	.st120{fill:#0171BC;}
	.st121{fill:#01305D;}
	.st122{fill:#1B7EE9;}
	.st123{fill:#BA0D0B;}
	.st124{fill:none;stroke:#000000;stroke-width:3;stroke-miterlimit:10;}
	.st125{fill:#FFFFFF;stroke:#000000;stroke-width:0.8836;stroke-miterlimit:10;}
	.st126{fill:#FFFFFF;stroke:#000000;stroke-width:0.9759;stroke-miterlimit:10;}
	.st127{fill:#0053A1;}
	.st128{fill:#FFE100;}
	.st129{fill:#FFE500;}
	.st130{fill:none;stroke:#FFE500;stroke-width:2;stroke-miterlimit:10;}
	.st131{fill:#01AFF3;}
	.st132{fill:#ED1B28;}
	.st133{fill:#E2000A;}
</style>
<g>
	<g>
		<path class="st0" d="M127,245.3c-4.5-7.1-14.9-10.9-27.1-15.5c-18.7-7-42.1-15.8-61.3-39.3c-22.7-27.8-33.8-69-34.1-126
			c9-0.3,29-2.5,38-15.7C47.1,42,48,34.1,45,24.2C53.6,25.7,62,27,69.9,27c0,0,0,0,0,0c33.9,0,50.9-14.1,56.6-20
			c5.2,6.5,21.3,22,57.1,22c0,0,0,0,0,0c9.3,0,19.5-1.6,30.1-3.7c-3.1,10.3-2.3,18.8,2.5,25.8c7.4,10.7,22.6,14.9,35.2,15.4
			c-0.3,56.1-11.6,96.7-34.5,124.1c-19.5,23.3-43.1,32-62.2,39C142.3,234.3,131.7,238.1,127,245.3z"/>
		<path class="st43" d="M126.4,9.6c7,7.6,23.9,20.9,57.3,20.9c8.4,0,17.3-0.8,26.7-2.5c-2.1,9.4-0.8,17.5,3.9,24.3
			c7.4,10.8,22,15.5,34.7,16.4c-0.3,28.3-3.6,53.1-9.9,73.6c-5.6,18.5-13.7,34.1-24.1,46.6c-19.1,22.8-42.4,31.4-61.1,38.3
			c-11.1,4.1-21.2,7.8-26.9,14c-5.6-6.1-15.5-9.8-26.3-13.8c-18.5-6.9-41.4-15.5-60.2-38.6c-10.3-12.6-18.3-28.5-23.8-47.2
			C10.6,120.7,7.3,95.6,7,66.8c10.2-0.6,28.7-3.7,37.6-16.6c4.5-6.5,5.7-14.3,3.8-23.3c7.5,1.2,14.7,1.7,21.6,1.7
			C101.4,28.5,118.9,16.5,126.4,9.6 M126.7,2c0,0-15.5,21.6-56.8,21.6c-8.5,0-18-0.9-28.7-3.1C54.2,53.3,22.7,62,2,62
			c0,192.7,124.9,154.5,125,192c0.1-37.5,127,0,127-190c-19.5,0-49.4-9.6-36.4-42.5c-12.9,2.9-24.2,4.1-33.9,4.1
			C140.2,25.6,126.7,2,126.7,2L126.7,2z"/>
	</g>
	<g>
		<g>
			<path class="st43" d="M244,73.3c-12.8-1.8-26.3-7.2-33.8-18.1c-3.2-4.7-6.1-11.9-5.6-21.4c-7.3,1-14.3,1.3-20.9,1.3c0,0,0,0,0,0
				c-25,0-41.1-7.1-50.3-13.2c-2.9-1.9-5.3-4-7.3-5.8c-9.6,7.5-27.5,17-56.2,17c0,0,0,0,0,0c-5.1,0-10.4-0.1-15.8-0.7
				c0.5,9.2-2.3,16-5.4,20.5C39.9,65.6,23.4,70,12,71.3c0.5,21.1,2.5,38.7,5.8,54.7h220.5C241.5,111,243.5,93.6,244,73.3z"/>
		</g>
	</g>
	<g>
		<path class="st0" d="M38.4,82.3h-7.4v-7.1h23.2v7.1h-7.5v24.9h-8.2V82.3z"/>
		<path class="st0" d="M57.8,99.1c1.8,0.9,4.7,1.8,7.5,1.8c2.9,0,4.3-1.1,4.3-2.7c0-1.7-1.4-2.6-4.8-3.9c-5.3-2.3-8.1-5.4-8.1-9.4
			c0-5.5,4.4-10,12.3-10c3.3,0,5.9,0.7,7.7,1.5l-1.6,6.7c-1.3-0.6-3.3-1.4-6.2-1.4c-2.6,0-4,1-4,2.5c0,1.6,1.4,2.3,5.3,4
			c5.4,2.2,7.6,5.4,7.6,9.5c0,5.6-4.4,10.1-13,10.1c-3.6,0-7-0.9-8.6-1.7L57.8,99.1z"/>
		<path class="st0" d="M107.3,105.9c-2.1,0.7-6.2,1.6-9.9,1.6c-5.7,0-9.5-1.4-12.2-3.9c-3-2.8-4.5-7.2-4.5-12
			c0.1-11.2,7.9-16.6,17.5-16.6c3.8,0,6.7,0.7,8.2,1.4l-1.6,6.7c-1.6-0.7-3.4-1.2-6.4-1.2c-5.1,0-9,2.8-9,9.6c0,6.2,3.5,9.4,8,9.4
			c0.9,0,1.8-0.1,2.1-0.2v-5.8h-3.7v-6.5h11.5V105.9z"/>
		<path class="st0" d="M128.7,83.7L128.7,83.7l-6,2.7l-1.3-6.2l8.4-3.8h6.9v30.8h-8V83.7z"/>
		<path class="st0" d="M156.9,75.9c6.8,0,10.2,3.9,10.2,8c0,2.4-1.2,5-4.2,6.6v0.1c2.7,1.1,5.2,3.7,5.2,7.6c0,5.8-4.7,9.4-11.7,9.4
			c-7.5,0-11.3-4.1-11.3-8.6c0-3.7,2-6.2,5-7.7v-0.1c-2.8-1.6-4.1-4.1-4.1-6.7C146,79.2,150.8,75.9,156.9,75.9L156.9,75.9z
			 M156.7,102.2c2,0,3.1-1.6,3.1-3.5c0-2.4-1.8-3.9-3.8-4.6c-1.7,0.6-2.7,2.1-2.7,4.1S154.6,102.2,156.7,102.2L156.7,102.2z
			 M156.5,81.3c-2,0-2.8,1.5-2.8,3.1c0,1.7,1.4,3,3.4,3.7c1.2-0.3,2.2-1.8,2.2-3.4C159.4,83,158.6,81.3,156.5,81.3L156.5,81.3z"/>
		<path class="st0" d="M173.3,101.2c1.1,0.1,1.8,0,3.1,0c1.8-0.1,3.7-0.6,5.1-1.5c1.8-1.1,3-2.9,3.5-4.8l-0.1,0
			c-1.1,1.1-2.9,1.7-5.3,1.7c-4.8,0-9.2-3.4-9.2-9.5c0-5.8,4.6-11.1,11.4-11.1c7.9,0,11.4,6.1,11.4,13.2c0,6.6-2.1,11.3-5.5,14.4
			c-2.9,2.6-6.8,3.9-11.5,4.1c-1,0-2.2,0-3.1,0V101.2z M181.7,81.8c-1.8,0-3.1,1.9-3,4.6c0,2.2,1,4.5,3.3,4.5c1.4,0,2.3-0.7,2.7-1.4
			c0.2-0.5,0.3-1.1,0.3-2.5C185,84.4,184.1,81.8,181.7,81.8L181.7,81.8z"/>
		<path class="st0" d="M198.8,101.2c1.1,0.1,1.8,0,3.1,0c1.8-0.1,3.7-0.6,5.1-1.5c1.8-1.1,3-2.9,3.5-4.8l-0.1,0
			c-1.1,1.1-2.9,1.7-5.3,1.7c-4.8,0-9.2-3.4-9.2-9.5c0-5.8,4.6-11.1,11.4-11.1c7.9,0,11.4,6.1,11.4,13.2c0,6.6-2.1,11.3-5.5,14.4
			c-2.9,2.6-6.8,3.9-11.5,4.1c-1,0-2.2,0-3.1,0V101.2z M207.1,81.8c-1.8,0-3.1,1.9-3,4.6c0,2.2,1,4.5,3.3,4.5c1.4,0,2.3-0.7,2.7-1.4
			c0.2-0.5,0.3-1.1,0.3-2.5C210.5,84.4,209.6,81.8,207.1,81.8L207.1,81.8z"/>
		<path class="st44" d="M38.6,136.3v9.5h7v-9.5h6.5v25.2h-6.5v-10h-7v10h-6.5v-25.2H38.6z"/>
		<path class="st44" d="M64.5,161.9c-5.3,0-9.1-3.5-9.1-9.5c0-6.1,3.8-9.7,9.4-9.7c5.5,0,8.9,3.9,8.9,9.4
			C73.7,159.2,69,161.9,64.5,161.9L64.5,161.9z M64.7,157.3c1.7,0,2.4-2.1,2.4-4.9c0-2.5-0.7-4.9-2.5-4.9c-2,0-2.6,2.5-2.6,4.9
			C62,155.2,62.8,157.3,64.7,157.3L64.7,157.3z"/>
		<path class="st44" d="M88.8,161.5v-13.7h-4.7v13.7h-6.5v-13.7h-2.4v-4.7h2.4V143c0-1.9,0.5-4.1,2-5.6c1.2-1.2,3.1-2.1,5.8-2.1
			c0.8,0,1.8,0.2,2.3,0.4l-0.9,4.8c-0.4-0.1-0.8-0.2-1.2-0.2c-1.3,0-1.7,1.1-1.7,2.4v0.4h4.7v-0.6c0-2.1,0.6-4.4,2.3-5.9
			c1.4-1.3,3.3-1.9,5.2-1.9c1.3,0,2.3,0.1,3.2,0.4l-0.3,4.9c-0.5-0.1-1-0.2-1.7-0.2c-1.5,0-2.3,1-2.3,2.4v0.9h3.3v4.7h-3.3v13.7
			H88.8z"/>
		<path class="st44" d="M106.1,154.7c0.2,1.5,2.1,2.4,4.4,2.4c1.7,0,3.2-0.2,4.7-0.7l0.8,4.4c-2,0.7-4.3,1-6.5,1
			c-6.2,0-9.6-3.5-9.6-9.3c0-4.9,3-9.8,9.1-9.8c5.4,0,8,3.9,8,9.3c0,1.2-0.1,2.2-0.2,2.7H106.1z M111,150.3c0-1.3-0.5-3.2-2.4-3.2
			c-1.8,0-2.6,1.9-2.6,3.2H111z"/>
		<path class="st44" d="M119.8,149.3c0-2.3-0.1-4.4-0.1-6.1h5.6l0.3,2.3h0.1c0.8-1.1,2.5-2.7,5.3-2.7c4.2,0,6.2,3,6.2,7.7v11.1h-6.5
			v-10.4c0-1.9-0.6-3.1-2.1-3.1c-1.1,0-1.7,0.7-2,1.5c-0.2,0.3-0.2,0.9-0.2,1.5v10.6h-6.5V149.3z"/>
		<path class="st44" d="M141,135.2h6.5v9.9h0.1c0.6-0.7,1.2-1.2,2-1.6c0.8-0.4,1.8-0.6,2.7-0.6c4.1,0,6,3.1,6,8.1v10.6h-6.5v-10.2
			c0-2-0.6-3.3-2.1-3.3c-1.1,0-1.7,0.6-2,1.4c-0.1,0.3-0.2,0.9-0.2,1.2v10.9H141V135.2z"/>
		<path class="st44" d="M167.5,154.7c0.2,1.5,2.1,2.4,4.4,2.4c1.7,0,3.2-0.2,4.7-0.7l0.8,4.4c-2,0.7-4.3,1-6.5,1
			c-6.2,0-9.6-3.5-9.6-9.3c0-4.9,3-9.8,9.1-9.8c5.4,0,8,3.9,8,9.3c0,1.2-0.1,2.2-0.2,2.7H167.5z M172.5,150.3c0-1.3-0.5-3.2-2.4-3.2
			c-1.8,0-2.6,1.9-2.6,3.2H172.5z"/>
		<path class="st44" d="M184.5,141.2c-1.9,0-3.2-1.3-3.2-3.1c0-1.8,1.4-3.1,3.3-3.1c2,0,3.2,1.3,3.3,3.1
			C187.8,139.9,186.5,141.2,184.5,141.2L184.5,141.2z M181.3,161.5v-18.4h6.5v18.4H181.3z"/>
		<path class="st44" d="M191.7,149.3c0-2.3-0.1-4.4-0.1-6.1h5.5l0.3,2.2h0.1c0.8-1,2.4-2.6,5.2-2.6c2.3,0,4,1.1,4.7,2.8h0.1
			c0.7-0.9,1.5-1.6,2.4-2.1c0.9-0.4,1.9-0.7,3.1-0.7c3.9,0,5.9,2.9,5.9,7.8v11h-6.3v-10c0-2.2-0.5-3.5-1.9-3.5c-1,0-1.6,0.6-1.9,1.5
			c-0.1,0.3-0.1,0.9-0.1,1.3v10.8H202v-10.4c0-1.7-0.5-3.1-1.9-3.1c-1,0-1.6,0.7-1.9,1.4c-0.1,0.4-0.2,0.9-0.2,1.3v10.8h-6.3V149.3z
			"/>
	</g>
</g>
</svg>
