<?xml version="1.0" encoding="utf-8"?>
<!-- Generator: Adobe Illustrator 17.0.0, SVG Export Plug-In . SVG Version: 6.00 Build 0)  -->
<!DOCTYPE svg PUBLIC "-//W3C//DTD SVG 1.1//EN" "http://www.w3.org/Graphics/SVG/1.1/DTD/svg11.dtd" [
	<!ENTITY ns_flows "http://ns.adobe.com/Flows/1.0/">
	<!ENTITY ns_extend "http://ns.adobe.com/Extensibility/1.0/">
	<!ENTITY ns_ai "http://ns.adobe.com/AdobeIllustrator/10.0/">
	<!ENTITY ns_graphs "http://ns.adobe.com/Graphs/1.0/">
]>
<svg version="1.1" id="Layer_2" xmlns:x="&ns_extend;" xmlns:i="&ns_ai;" xmlns:graph="&ns_graphs;"
	 xmlns="http://www.w3.org/2000/svg" xmlns:xlink="http://www.w3.org/1999/xlink" xmlns:a="http://ns.adobe.com/AdobeSVGViewerExtensions/3.0/"
	 x="0px" y="0px" width="256px" height="256px" viewBox="0 0 256 256" style="enable-background:new 0 0 256 256;"
	 xml:space="preserve">
<style type="text/css">
	.st0{fill:#FFFFFF;}
	.st1{fill:#54B948;}
	.st2{fill:#1D8C8E;}
	.st3{fill:#14DEAC;}
	.st4{fill:#1466AC;}
	.st5{fill:#757575;}
	.st6{fill:#B69442;}
	.st7{fill:#1A234D;}
	.st8{fill:#AA0629;}
	.st9{fill:#FF4A49;}
	.st10{fill:#3C6643;}
	.st11{fill:none;stroke:#FF4A49;stroke-miterlimit:10;}
	.st12{fill:#E70084;}
	.st13{fill:#508A72;}
	.st14{fill:#01A663;}
	.st15{fill:#015297;}
	.st16{fill:#B0B0B0;}
	.st17{fill:#E1062F;}
	.st18{fill:#D80000;stroke:#FFFFFF;stroke-width:2;stroke-miterlimit:10;}
	.st19{fill:#D80000;}
	.st20{fill:#8ABE23;}
	.st21{fill:#1D1D1B;}
	.st22{fill:#FEFEFE;}
	.st23{fill:#FF0000;}
	.st24{fill:#FF1D1B;}
	.st25{fill:#6DB2DE;}
	.st26{fill:#FF1D25;}
	.st27{fill:#FFDA00;}
	.st28{fill:#024D9E;}
	.st29{fill:#6B97C6;}
	.st30{fill:#000078;}
	.st31{fill:none;stroke:#FFFFFF;stroke-width:6;stroke-linecap:round;stroke-miterlimit:10;}
	.st32{fill:#FFEE34;}
	.st33{fill:none;stroke:#000000;stroke-width:4;stroke-miterlimit:10;}
	.st34{fill:#D11E24;}
	.st35{fill:#D71F26;}
	.st36{fill:#020000;}
	.st37{fill:none;stroke:#000000;stroke-width:2;stroke-miterlimit:10;}
	.st38{clip-path:url(#SVGID_2_);}
	.st39{fill:#00317D;}
	.st40{fill:#00737D;}
	.st41{fill:#ED1C24;}
	.st42{fill:#2678C7;}
	.st43{fill:#1853A6;}
	.st44{fill:#CB0000;}
	.st45{fill:#E61C21;}
	.st46{clip-path:url(#SVGID_4_);}
	.st47{fill:#6BDEF1;}
	.st48{clip-path:url(#SVGID_6_);}
	.st49{fill:#0165B2;}
	.st50{fill:#DE1134;}
	.st51{fill:#00A668;}
	.st52{fill:#FFE60B;}
	.st53{fill:#843D00;stroke:#000000;stroke-miterlimit:10;}
	.st54{fill:#EC1F27;}
	.st55{fill:#162984;}
	.st56{fill:#1853A6;stroke:#1853A6;stroke-miterlimit:10;}
	.st57{fill:none;}
	.st58{fill:none;stroke:#1853A6;stroke-width:0.9;stroke-miterlimit:10;}
	.st59{fill:#1853A6;stroke:#1853A6;stroke-width:0.9;stroke-miterlimit:10;}
	.st60{fill:#B5985A;}
	.st61{fill:#FFE60B;stroke:#000000;stroke-width:6;stroke-miterlimit:10;}
	.st62{fill:#008DCD;}
	.st63{fill:#009939;}
	.st64{fill:#2E3092;}
	.st65{fill:#EE3224;}
	.st66{fill:#005BAB;}
	.st67{fill:#D30027;}
	.st68{fill:#FFFFFF;stroke:#D30027;stroke-width:10;stroke-miterlimit:10;}
	.st69{fill:#E81C2F;}
	.st70{fill:#DC032B;}
	.st71{fill:#F25448;}
	.st72{fill:#FFFFFF;stroke:#F25448;stroke-width:6;stroke-miterlimit:10;}
	.st73{fill:#05A08D;}
	.st74{fill:#1875CE;}
	.st75{fill:#D72427;}
	.st76{fill:#004993;}
	.st77{fill:#007BB0;}
	.st78{fill:#FFEB00;}
	.st79{fill:#664A9E;}
	.st80{fill:#F4C701;}
	.st81{fill:#EBBE12;}
	.st82{fill:#44B3DB;}
	.st83{fill:#F6FF82;}
	.st84{fill:#FFC918;}
	.st85{fill:#0361A4;}
	.st86{fill:#009FE3;}
	.st87{fill:#E30217;}
	.st88{fill:#FDEA00;}
	.st89{fill:#E91B00;}
	.st90{fill:#2B2763;}
	.st91{fill:#EE1A22;}
	.st92{fill:#F1AA25;}
	.st93{fill:#93000C;}
	.st94{fill:none;stroke:#1D1D1B;stroke-width:4;}
	.st95{fill:#3E4E70;}
	.st96{fill:#096CB6;}
	.st97{fill:#0559A8;}
	.st98{fill:#F9ED1A;}
	.st99{fill:#949494;}
	.st100{fill:#FFD033;}
	.st101{fill:#243D89;}
	.st102{fill:#F8C936;}
	.st103{fill:#D44128;}
	.st104{fill:#ED1B23;}
	.st105{fill:#0C529C;}
	.st106{fill:#E31E24;}
	.st107{fill:#0263B0;}
	.st108{fill:#007AC2;}
	.st109{fill:#EF3D1F;}
	.st110{fill:#EE1C24;}
	.st111{fill:#FDEA00;stroke:#000000;stroke-width:0.6509;}
	.st112{fill:#FDEA00;stroke:#000000;stroke-width:0.6979;}
	.st113{fill:#46A0BE;}
	.st114{fill:#005FA5;}
	.st115{fill:#00904C;}
	.st116{fill:#E21F26;}
	.st117{fill:#FD0001;}
	.st118{fill:#0066B3;}
	.st119{fill:#E20019;}
	.st120{fill:#0171BC;}
	.st121{fill:#01305D;}
	.st122{fill:#1B7EE9;}
	.st123{fill:#BA0D0B;}
	.st124{fill:none;stroke:#000000;stroke-width:3;stroke-miterlimit:10;}
	.st125{fill:#FFFFFF;stroke:#000000;stroke-width:0.8836;stroke-miterlimit:10;}
	.st126{fill:#FFFFFF;stroke:#000000;stroke-width:0.9759;stroke-miterlimit:10;}
	.st127{fill:#0053A1;}
	.st128{fill:#FFE100;}
	.st129{fill:#FFE500;}
	.st130{fill:none;stroke:#FFE500;stroke-width:2;stroke-miterlimit:10;}
	.st131{fill:#01AFF3;}
	.st132{fill:#ED1B28;}
	.st133{fill:#E2000A;}
</style>
<g>
	<g>
		<g>
			<path class="st0" d="M128,247.5C62.1,247.5,8.5,193.9,8.5,128S62.1,8.5,128,8.5S247.5,62.1,247.5,128S193.9,247.5,128,247.5z"/>
		</g>
	</g>
	<g>
		<defs>
			<circle id="SVGID_5_" cx="128" cy="128" r="105.4"/>
		</defs>
		<clipPath id="SVGID_2_">
			<use xlink:href="#SVGID_5_"  style="overflow:visible;"/>
		</clipPath>
		<g class="st38">
			<g>
				<polygon class="st0" points="159,8.7 143.5,-20.4 159.1,-49.6 174.6,-20.5 				"/>
				<polygon class="st49" points="174.5,37.7 159,8.7 174.6,-20.5 190,8.6 				"/>
				<polygon class="st0" points="190,66.8 174.5,37.7 190,8.6 205.5,37.6 				"/>
				<polygon class="st49" points="205.5,95.9 190,66.8 205.5,37.6 221,66.7 				"/>
				<polygon class="st0" points="221,124.9 205.5,95.9 221,66.7 236.5,95.8 				"/>
				<polygon class="st49" points="236.5,154 221,124.9 236.5,95.8 252,124.8 				"/>
				<polygon class="st0" points="128,8.8 112.5,-20.3 128,-49.5 143.5,-20.4 				"/>
				<polygon class="st49" points="143.5,37.8 128,8.8 143.5,-20.4 159,8.7 				"/>
				<polygon class="st0" points="159,66.9 143.5,37.8 159,8.7 174.5,37.7 				"/>
				<polygon class="st49" points="174.5,96 159,66.9 174.5,37.7 190,66.8 				"/>
				<polygon class="st0" points="189.9,125 174.5,96 190,66.8 205.5,95.9 				"/>
				<polygon class="st49" points="205.4,154.1 189.9,125 205.5,95.9 221,124.9 				"/>
				<polygon class="st0" points="97,8.9 81.5,-20.2 97,-49.4 112.5,-20.3 				"/>
				<polygon class="st49" points="112.4,37.9 97,8.9 112.5,-20.3 128,8.8 				"/>
				<polygon class="st0" points="127.9,67 112.4,37.9 128,8.8 143.5,37.8 				"/>
				<polygon class="st49" points="143.4,96.1 127.9,67 143.5,37.8 159,66.9 				"/>
				<polygon class="st0" points="158.9,125.1 143.4,96.1 159,66.9 174.5,96 				"/>
				<polygon class="st49" points="174.4,154.2 158.9,125.1 174.5,96 189.9,125 				"/>
				<polygon class="st0" points="189.9,183.3 174.4,154.2 189.9,125 205.4,154.1 				"/>
				<polygon class="st49" points="205.4,212.3 189.9,183.3 205.4,154.1 220.9,183.2 				"/>
				<polygon class="st0" points="220.9,183.2 205.4,154.1 221,124.9 236.5,154 				"/>
				<polygon class="st49" points="81.6,37.8 66.1,8.7 81.6,-20.5 97.1,8.6 				"/>
				<polygon class="st0" points="97,66.8 81.6,37.8 97.1,8.6 112.6,37.7 				"/>
				<polygon class="st49" points="112.5,95.9 97,66.8 112.6,37.7 128.1,66.7 				"/>
				<polygon class="st0" points="128,125 112.5,95.9 128.1,66.7 143.6,95.8 				"/>
				<polygon class="st49" points="143.5,154 128,125 143.6,95.8 159,124.9 				"/>
				<polygon class="st0" points="159,183.1 143.5,154 159,124.9 174.5,154 				"/>
				<polygon class="st49" points="174.5,212.2 159,183.1 174.5,154 190,183 				"/>
				<polygon class="st0" points="190,241.3 174.5,212.2 190,183 205.5,212.1 				"/>
			</g>
			<g>
				<polygon class="st0" points="66,67 50.5,37.9 66,8.8 81.5,37.8 				"/>
				<polygon class="st49" points="81.5,96.1 66,67 81.5,37.8 97,66.9 				"/>
				<polygon class="st0" points="97,125.1 81.5,96.1 97,66.9 112.5,96 				"/>
				<polygon class="st49" points="112.4,154.2 97,125.1 112.5,96 128,125 				"/>
				<polygon class="st0" points="127.9,183.3 112.4,154.2 128,125 143.5,154.1 				"/>
				<polygon class="st49" points="143.4,212.3 127.9,183.3 143.5,154.1 159,183.2 				"/>
				<polygon class="st0" points="158.9,241.4 143.4,212.3 159,183.2 174.4,212.2 				"/>
				<polygon class="st49" points="174.4,270.5 158.9,241.4 174.4,212.2 189.9,241.3 				"/>
				<polygon class="st49" points="50.4,96.2 34.9,67.1 50.5,37.9 66,67 				"/>
				<polygon class="st0" points="65.9,125.2 50.4,96.2 66,67 81.5,96.1 				"/>
				<polygon class="st49" points="81.4,154.3 65.9,125.2 81.5,96.1 97,125.1 				"/>
				<polygon class="st0" points="96.9,183.4 81.4,154.3 97,125.1 112.4,154.2 				"/>
				<polygon class="st49" points="112.4,212.4 96.9,183.4 112.4,154.2 127.9,183.3 				"/>
				<polygon class="st0" points="127.9,241.5 112.4,212.4 127.9,183.3 143.4,212.3 				"/>
				<polygon class="st49" points="143.4,270.6 127.9,241.5 143.4,212.3 158.9,241.4 				"/>
				<polygon class="st0" points="34.9,125.3 19.4,96.3 34.9,67.1 50.4,96.2 				"/>
				<polygon class="st49" points="50.4,154.4 34.9,125.3 50.4,96.2 65.9,125.2 				"/>
				<polygon class="st0" points="65.9,183.5 50.4,154.4 65.9,125.2 81.4,154.3 				"/>
				<polygon class="st49" points="81.4,212.5 65.9,183.5 81.4,154.3 96.9,183.4 				"/>
				<polygon class="st0" points="96.8,241.6 81.4,212.5 96.9,183.4 112.4,212.4 				"/>
				<polygon class="st49" points="112.3,270.7 96.8,241.6 112.4,212.4 127.9,241.5 				"/>
				<polygon class="st0" points="127.8,299.7 112.3,270.7 127.9,241.5 143.4,270.6 				"/>
				<polygon class="st0" points="158.9,299.6 143.4,270.6 158.9,241.4 174.4,270.5 				"/>
				<polygon class="st49" points="19.5,154.3 4,125.2 19.5,96 35,125.1 				"/>
				<polygon class="st0" points="35,183.3 19.5,154.3 35,125.1 50.5,154.2 				"/>
				<polygon class="st49" points="50.5,212.4 35,183.3 50.5,154.2 66,183.2 				"/>
				<polygon class="st0" points="66,241.5 50.5,212.4 66,183.2 81.5,212.3 				"/>
				<polygon class="st49" points="81.4,270.5 66,241.5 81.5,212.3 97,241.4 				"/>
				<polygon class="st0" points="96.9,299.6 81.4,270.5 97,241.4 112.5,270.4 				"/>
			</g>
		</g>
	</g>
	<rect x="10" y="89" class="st50" width="235" height="73"/>
	<path class="st49" d="M128,13c30.7,0,59.6,12,81.3,33.7S243,97.3,243,128s-12,59.6-33.7,81.3S158.7,243,128,243s-59.6-12-81.3-33.7
		S13,158.7,13,128s12-59.6,33.7-81.3S97.3,13,128,13 M128,4C59.5,4,4,59.5,4,128s55.5,124,124,124s124-55.5,124-124S196.5,4,128,4
		L128,4z"/>
	<g>
		<path class="st0" d="M25.4,98.1h17.9v5H33.3v4.6h9.5v5h-9.5v9.1h-7.8V98.1z"/>
		<path class="st0" d="M68.8,121.3c-1,0.4-3.6,0.8-6.7,0.8c-10.6,0-15.1-5.5-15.1-11.8c0-8.5,7.5-12.6,15.8-12.6
			c3.1,0,5.6,0.5,6.6,0.9l-1.4,4.9c-1.1-0.4-2.7-0.7-4.8-0.7c-4.3,0-8,2.2-8,7.2c0,4.5,3.1,7.1,8.1,7.1c1.6,0,3.5-0.2,4.6-0.6
			L68.8,121.3z"/>
		<path class="st0" d="M81.3,98.4c1.9-0.3,5.5-0.5,9-0.5c3.9,0,6.6,0.2,9,1.3c2.2,0.9,3.6,2.6,3.6,4.8c0,2-1.4,4-4.8,5v0.1
			c3.7,0.8,5.7,3,5.7,5.7c0,2.2-1.2,3.8-3.1,5c-2.2,1.4-5.8,2.3-12.1,2.3c-3.3,0-5.7-0.2-7.4-0.4V98.4z M89,107.4h1.5
			c3,0,4.5-1.1,4.5-2.6c0-1.4-1.2-2.4-3.7-2.4c-1.1,0-1.8,0-2.3,0.1V107.4z M89,117.5c0.5,0.1,1.1,0.1,2,0.1c2.4,0,4.6-0.9,4.6-3
			c0-2-2.2-2.9-4.9-2.9H89V117.5z"/>
		<path class="st0" d="M115.2,116.6l-1.5,5.3h-8l8.1-23.8H124l8.1,23.8h-8.2l-1.7-5.3H115.2z M121.3,112.1l-1.2-4.3
			c-0.4-1.3-0.9-3.5-1.3-4.9h-0.1c-0.5,1.4-0.9,3.6-1.3,4.9l-1.2,4.3H121.3z"/>
		<path class="st0" d="M138.2,121.9v-9.3l-8.7-14.5h8.8l2.4,5.4c0.8,1.6,1.3,3,1.9,4.6h0.1c0.5-1.5,1-2.9,1.7-4.6l2.2-5.4h8.6
			l-9,14.2v9.6H138.2z"/>
		<path class="st0" d="M174.6,112.1h-9.7v4.7h10.8v5h-18.6V98.1h18.1v5h-10.2v4h9.7V112.1z"/>
		<path class="st0" d="M180.1,98.4c2.2-0.3,5.4-0.5,9-0.5c4.3,0,7.6,0.5,9.9,1.8c1.9,1.2,2.9,2.9,2.9,5.2c0,2.8-2.4,5-5,5.8v0.1
			c2,0.7,3.1,2.2,3.8,4.3c0.8,2.4,1.8,5.9,2.4,6.8h-8.1c-0.4-0.7-1.2-2.7-1.9-5.5c-0.7-2.9-1.8-3.5-4-3.5h-1.1v9h-7.7V98.4z
			 M187.9,108.4h1.8c2.9,0,4.4-1.3,4.4-3.1c0-1.8-1.3-2.9-3.9-2.9c-1.2,0-1.9,0-2.3,0.1V108.4z"/>
		<path class="st0" d="M206.4,121.9V98.1h8.6l4.7,7.7c1.4,2.1,3.1,5.2,4.2,7.7h0.1c-0.4-2.8-0.6-6.5-0.6-10.3v-5.1h7.1v23.8h-8
			l-4.8-7.9c-1.4-2.3-3.3-5.5-4.4-8h-0.1c0.2,2.9,0.3,6.6,0.3,10.7v5.3H206.4z"/>
		<path class="st0" d="M53.4,146.3c-0.1-2.4-0.2-5.5-0.2-8.9h-0.1c-0.8,3-1.9,6.4-2.8,8.6l-2.8,8h-6l-2.4-8
			c-0.7-2.3-1.6-5.6-2.2-8.6h-0.1c-0.2,3.1-0.4,6.5-0.5,8.9l-0.5,8.2h-7.1l2-23.8h9.9l2,6.7c0.8,2.8,1.7,5.8,2.3,8.6h0.1
			c0.7-2.8,1.7-6,2.5-8.7l2.2-6.7h9.7l1.6,23.8h-7.4L53.4,146.3z"/>
		<path class="st0" d="M73.7,130.7v14c0,3.5,1.4,5.2,4.1,5.2c2.7,0,4.1-1.5,4.1-5.2v-14h7.9v13.4c0,7-4.1,10.7-12.1,10.7
			c-8,0-11.8-3.7-11.8-10.8v-13.3H73.7z M73.3,129.5c-1.9,0-3.3-1.2-3.3-2.6c0-1.5,1.5-2.6,3.4-2.6c1.8,0,3.2,1.1,3.2,2.6
			C76.6,128.3,75.1,129.5,73.3,129.5L73.3,129.5z M82.8,129.5c-1.9,0-3.3-1.2-3.3-2.6c0-1.5,1.5-2.6,3.3-2.6s3.3,1.1,3.3,2.6
			C86.1,128.3,84.7,129.5,82.8,129.5L82.8,129.5z"/>
		<path class="st0" d="M95.1,154.5v-23.8h8.6l4.7,7.7c1.4,2.1,3.1,5.2,4.2,7.7h0.1c-0.4-2.8-0.6-6.5-0.6-10.3v-5.1h7.1v23.8h-8
			l-4.8-7.9c-1.4-2.3-3.3-5.5-4.4-8h-0.1c0.2,2.9,0.3,6.6,0.3,10.7v5.3H95.1z"/>
		<path class="st0" d="M145.3,154c-1,0.4-3.6,0.8-6.7,0.8c-10.6,0-15.1-5.5-15.1-11.8c0-8.5,7.5-12.6,15.8-12.6
			c3.1,0,5.6,0.5,6.6,0.9l-1.4,4.9c-1.1-0.4-2.7-0.7-4.8-0.7c-4.3,0-8,2.2-8,7.2c0,4.5,3.1,7.1,8.1,7.1c1.6,0,3.5-0.2,4.6-0.6
			L145.3,154z"/>
		<path class="st0" d="M157.2,130.7v9h8.5v-9h7.8v23.8h-7.8v-9.4h-8.5v9.4h-7.8v-23.8H157.2z"/>
		<path class="st0" d="M196.5,144.8h-9.7v4.7h10.8v5H179v-23.8h18.1v5h-10.2v4h9.7V144.8z"/>
		<path class="st0" d="M202.1,154.5v-23.8h8.6l4.7,7.7c1.4,2.1,3.1,5.2,4.2,7.7h0.1c-0.4-2.8-0.6-6.5-0.6-10.3v-5.1h7.1v23.8h-8
			l-4.8-7.9c-1.4-2.3-3.3-5.5-4.4-8h-0.1c0.2,2.9,0.3,6.6,0.3,10.7v5.3H202.1z"/>
	</g>
</g>
</svg>
