<?xml version="1.0" encoding="utf-8"?>
<!-- Generator: Adobe Illustrator 17.0.0, SVG Export Plug-In . SVG Version: 6.00 Build 0)  -->
<!DOCTYPE svg PUBLIC "-//W3C//DTD SVG 1.1//EN" "http://www.w3.org/Graphics/SVG/1.1/DTD/svg11.dtd" [
	<!ENTITY ns_flows "http://ns.adobe.com/Flows/1.0/">
	<!ENTITY ns_extend "http://ns.adobe.com/Extensibility/1.0/">
	<!ENTITY ns_ai "http://ns.adobe.com/AdobeIllustrator/10.0/">
	<!ENTITY ns_graphs "http://ns.adobe.com/Graphs/1.0/">
]>
<svg version="1.1" id="Layer_2" xmlns:x="&ns_extend;" xmlns:i="&ns_ai;" xmlns:graph="&ns_graphs;"
	 xmlns="http://www.w3.org/2000/svg" xmlns:xlink="http://www.w3.org/1999/xlink" xmlns:a="http://ns.adobe.com/AdobeSVGViewerExtensions/3.0/"
	 x="0px" y="0px" width="256px" height="256px" viewBox="0 0 256 256" style="enable-background:new 0 0 256 256;"
	 xml:space="preserve">
<style type="text/css">
	.st0{fill:#FFFFFF;}
	.st1{fill:#54B948;}
	.st2{fill:#1D8C8E;}
	.st3{fill:#14DEAC;}
	.st4{fill:#1466AC;}
	.st5{fill:#757575;}
	.st6{fill:#B69442;}
	.st7{fill:#1A234D;}
	.st8{fill:#AA0629;}
	.st9{fill:#FF4A49;}
	.st10{fill:#3C6643;}
	.st11{fill:none;stroke:#FF4A49;stroke-miterlimit:10;}
	.st12{fill:#E70084;}
	.st13{fill:#508A72;}
	.st14{fill:#01A663;}
	.st15{fill:#015297;}
	.st16{fill:#B0B0B0;}
	.st17{fill:#E1062F;}
	.st18{fill:#D80000;stroke:#FFFFFF;stroke-width:2;stroke-miterlimit:10;}
	.st19{fill:#D80000;}
	.st20{fill:#8ABE23;}
	.st21{fill:#1D1D1B;}
	.st22{fill:#FEFEFE;}
	.st23{fill:#FF0000;}
	.st24{fill:#FF1D1B;}
	.st25{fill:#6DB2DE;}
	.st26{fill:#FF1D25;}
	.st27{fill:#FFDA00;}
	.st28{fill:#024D9E;}
	.st29{fill:#6B97C6;}
	.st30{fill:#000078;}
	.st31{fill:none;stroke:#FFFFFF;stroke-width:6;stroke-linecap:round;stroke-miterlimit:10;}
	.st32{fill:#FFEE34;}
	.st33{fill:none;stroke:#000000;stroke-width:4;stroke-miterlimit:10;}
	.st34{fill:#D11E24;}
	.st35{fill:#D71F26;}
	.st36{fill:#020000;}
	.st37{fill:none;stroke:#000000;stroke-width:2;stroke-miterlimit:10;}
	.st38{clip-path:url(#SVGID_2_);}
	.st39{fill:#00317D;}
	.st40{fill:#00737D;}
	.st41{fill:#ED1C24;}
	.st42{fill:#2678C7;}
	.st43{fill:#1853A6;}
	.st44{fill:#CB0000;}
	.st45{fill:#E61C21;}
	.st46{clip-path:url(#SVGID_4_);}
	.st47{fill:#6BDEF1;}
	.st48{clip-path:url(#SVGID_6_);}
	.st49{fill:#0165B2;}
	.st50{fill:#DE1134;}
	.st51{fill:#00A668;}
	.st52{fill:#FFE60B;}
	.st53{fill:#843D00;stroke:#000000;stroke-miterlimit:10;}
	.st54{fill:#EC1F27;}
	.st55{fill:#162984;}
	.st56{fill:#1853A6;stroke:#1853A6;stroke-miterlimit:10;}
	.st57{fill:none;}
	.st58{fill:none;stroke:#1853A6;stroke-width:0.9;stroke-miterlimit:10;}
	.st59{fill:#1853A6;stroke:#1853A6;stroke-width:0.9;stroke-miterlimit:10;}
	.st60{fill:#B5985A;}
	.st61{fill:#FFE60B;stroke:#000000;stroke-width:6;stroke-miterlimit:10;}
	.st62{fill:#008DCD;}
	.st63{fill:#009939;}
	.st64{fill:#2E3092;}
	.st65{fill:#EE3224;}
	.st66{fill:#005BAB;}
	.st67{fill:#D30027;}
	.st68{fill:#FFFFFF;stroke:#D30027;stroke-width:10;stroke-miterlimit:10;}
	.st69{fill:#E81C2F;}
	.st70{fill:#DC032B;}
	.st71{fill:#F25448;}
	.st72{fill:#FFFFFF;stroke:#F25448;stroke-width:6;stroke-miterlimit:10;}
	.st73{fill:#05A08D;}
	.st74{fill:#1875CE;}
	.st75{fill:#D72427;}
	.st76{fill:#004993;}
	.st77{fill:#007BB0;}
	.st78{fill:#FFEB00;}
	.st79{fill:#664A9E;}
	.st80{fill:#F4C701;}
	.st81{fill:#EBBE12;}
	.st82{fill:#44B3DB;}
	.st83{fill:#F6FF82;}
	.st84{fill:#FFC918;}
	.st85{fill:#0361A4;}
	.st86{fill:#009FE3;}
	.st87{fill:#E30217;}
	.st88{fill:#FDEA00;}
	.st89{fill:#E91B00;}
	.st90{fill:#2B2763;}
	.st91{fill:#EE1A22;}
	.st92{fill:#F1AA25;}
	.st93{fill:#93000C;}
	.st94{fill:none;stroke:#1D1D1B;stroke-width:4;}
	.st95{fill:#3E4E70;}
	.st96{fill:#096CB6;}
	.st97{fill:#0559A8;}
	.st98{fill:#F9ED1A;}
	.st99{fill:#949494;}
	.st100{fill:#FFD033;}
	.st101{fill:#243D89;}
	.st102{fill:#F8C936;}
	.st103{fill:#D44128;}
	.st104{fill:#ED1B23;}
	.st105{fill:#0C529C;}
	.st106{fill:#E31E24;}
	.st107{fill:#0263B0;}
	.st108{fill:#007AC2;}
	.st109{fill:#EF3D1F;}
	.st110{fill:#EE1C24;}
	.st111{fill:#FDEA00;stroke:#000000;stroke-width:0.6509;}
	.st112{fill:#FDEA00;stroke:#000000;stroke-width:0.6979;}
	.st113{fill:#46A0BE;}
	.st114{fill:#005FA5;}
	.st115{fill:#00904C;}
	.st116{fill:#E21F26;}
	.st117{fill:#FD0001;}
	.st118{fill:#0066B3;}
	.st119{fill:#E20019;}
	.st120{fill:#0171BC;}
	.st121{fill:#01305D;}
	.st122{fill:#1B7EE9;}
	.st123{fill:#BA0D0B;}
	.st124{fill:none;stroke:#000000;stroke-width:3;stroke-miterlimit:10;}
	.st125{fill:#FFFFFF;stroke:#000000;stroke-width:0.8836;stroke-miterlimit:10;}
	.st126{fill:#FFFFFF;stroke:#000000;stroke-width:0.9759;stroke-miterlimit:10;}
	.st127{fill:#0053A1;}
	.st128{fill:#FFE100;}
	.st129{fill:#FFE500;}
	.st130{fill:none;stroke:#FFE500;stroke-width:2;stroke-miterlimit:10;}
	.st131{fill:#01AFF3;}
	.st132{fill:#ED1B28;}
	.st133{fill:#E2000A;}
</style>
<g>
	<g>
		<path class="st25" d="M1.1,1c0,0-0.1,137.1,2.4,150.5c2.4,13.5,11,38.7,29.2,50.5C50.9,213.9,128,255,128,255s53.8-28.7,82.1-45
			L1.1,1L1.1,1z"/>
		<path class="st26" d="M252.4,151.5C254.9,138.1,255.1,1,255.1,1H1.1l209,209c5.6-3.2,10.2-6,13.2-7.9
			C241.5,190.3,250,165,252.4,151.5z"/>
	</g>
	<g>
		<path class="st27" d="M65.1,202.2L88,126.5L25,78.7l79.1-1.6l26-74.8l26,74.8l79.1,1.6l-63.1,47.8l22.9,75.8l-65-45.2L65.1,202.2z
			 M130.1,146.1l48.9,34l-17.2-57l47.4-36l-59.5-1.2l-19.5-56.2l-19.5,56.2L51,87.1l47.4,36l-17.2,57L130.1,146.1z"/>
	</g>
	<g>
		<g>
			<g>
				<path class="st26" d="M126.6,243.1c-5,0-7.2-4.8-11-13.9L63.3,107.5c-5.4-11.9-7-12.7-12.4-13.8l-0.1,0c-1.4-0.4-3-0.5-3.9-0.5
					l-0.5,0c-5.1-0.9-5.7-3.9-5.7-5.2c0-2.2,1.2-4.8,7.2-4.8c5.8,0,12,0.2,17.5,0.3c4.7,0.1,9.2,0.3,12.9,0.3
					c2.8,0,6.2-0.1,10.2-0.2c6.1-0.2,13.8-0.4,23.2-0.4c7.1,0,7.6,3.8,7.6,5c0,2.5-2,4.9-5.9,5c-0.5,0-1,0.1-1.5,0.1
					c-1.4,0.1-2.3,0.2-3.4,0.4l-0.2,0c-3.5,0.5-3.5,1.4-3.5,2c0,2.2,1.2,6.1,4.4,14.1c4.7,12.2,10.3,26,15.7,39.3
					c4.3,10.6,8.8,21.6,12.7,31.6c9.7-22.1,26.9-63.1,32.6-79.3l0.1-0.2c0.9-2,1.3-4.2,1.3-5.4c0-0.9,0-1.3-2.3-1.6l-0.2,0
					c-1.8-0.4-4.3-0.6-6.3-0.8l-1.2-0.1c-5.2-0.4-6.3-2.9-6.3-5c0-2.3,1.3-5,7.4-5c9,0,16.3,0.3,21.2,0.5c2.2,0.1,3.9,0.1,4.8,0.1
					c1.2,0,4.1-0.1,7.5-0.2c4.9-0.2,11-0.4,14.7-0.4c6.1,0,7.4,2.7,7.4,5c0,1.9-0.8,5-6.5,5c-0.3,0-0.6,0-1,0.1
					c-2.1,0.1-4.4,0.3-6.6,1.4c-3.4,1.6-5.9,5.3-11.2,16.6c-6.6,14.1-12.6,27.5-20.9,46l-5.7,12.7c-14.4,31.9-22.4,48.7-26.6,57.1
					C134,238.7,131.3,243.1,126.6,243.1z"/>
			</g>
		</g>
		<g>
			<g>
				<path class="st0" d="M66,106.3c-5.6-12.4-7.8-14.2-14.6-15.6c-1.6-0.4-3.4-0.6-4.6-0.6c-2.2-0.4-3.2-1.2-3.2-2.2
					c0-1.4,1.6-1.8,4.2-1.8c10.8,0,22.4,0.6,30.4,0.6c7,0,17.8-0.6,33.4-0.6c3,0,4.6,0.8,4.6,2s-1.2,2-3,2c-2.4,0.2-3.6,0.2-5.4,0.6
					c-5.2,0.8-6,3-6,5c0,2.6,1.2,6.6,4.6,15.2c9.4,24.4,22,54.2,31,77.6c8.2-18.4,29-67.4,35.6-86.2c1-2.2,1.6-4.8,1.6-6.6
					c0-2.6-1.2-4-4.8-4.6c-2.4-0.6-5.8-0.8-8-1c-2.6-0.2-3.6-0.8-3.6-2s1-2,4.4-2c13.2,0,23,0.6,26,0.6s16-0.6,22.2-0.6
					c3,0,4.4,0.6,4.4,2c0,1.4-1,2-3.6,2c-2.4,0.2-5.6,0.2-8.8,1.8c-4.2,2-7,6.2-12.6,18c-8,17.2-15.2,33.4-26.6,58.8
					c-12.8,28.4-21.4,46.6-26.6,57c-5.8,11.8-7.8,14.4-10.4,14.4c-2.8,0-4.4-2.8-8.2-12L66,106.3z"/>
			</g>
		</g>
	</g>
	<g>
		<path class="st0" d="M140.2,113.2v5.3h-19.4l9.9-10.7c1.4-1.5,2.8-3.7,2.8-5.9c0-1.5-1.1-3.1-2.8-3.1c-1.7,0-2.6,1.3-2.6,2.9
			c0,0.3,0,0.7,0.1,1h-6.9c0.2-5.5,3.7-9.3,9.4-9.3c5.1,0,9.3,3.3,9.3,8.6c0,3.5-1.4,5.5-3.9,7.7l-3.7,3.5H140.2z"/>
	</g>
</g>
</svg>
