<?xml version="1.0" encoding="utf-8"?>
<!-- Generator: Adobe Illustrator 17.0.0, SVG Export Plug-In . SVG Version: 6.00 Build 0)  -->
<!DOCTYPE svg PUBLIC "-//W3C//DTD SVG 1.1//EN" "http://www.w3.org/Graphics/SVG/1.1/DTD/svg11.dtd" [
	<!ENTITY ns_flows "http://ns.adobe.com/Flows/1.0/">
	<!ENTITY ns_extend "http://ns.adobe.com/Extensibility/1.0/">
	<!ENTITY ns_ai "http://ns.adobe.com/AdobeIllustrator/10.0/">
	<!ENTITY ns_graphs "http://ns.adobe.com/Graphs/1.0/">
]>
<svg version="1.1" id="Layer_2" xmlns:x="&ns_extend;" xmlns:i="&ns_ai;" xmlns:graph="&ns_graphs;"
	 xmlns="http://www.w3.org/2000/svg" xmlns:xlink="http://www.w3.org/1999/xlink" xmlns:a="http://ns.adobe.com/AdobeSVGViewerExtensions/3.0/"
	 x="0px" y="0px" width="256px" height="256px" viewBox="0 0 256 256" style="enable-background:new 0 0 256 256;"
	 xml:space="preserve">
<style type="text/css">
	.st0{fill:#FFFFFF;}
	.st1{fill:#54B948;}
	.st2{fill:#1D8C8E;}
	.st3{fill:#14DEAC;}
	.st4{fill:#1466AC;}
	.st5{fill:#757575;}
	.st6{fill:#B69442;}
	.st7{fill:#1A234D;}
	.st8{fill:#AA0629;}
	.st9{fill:#FF4A49;}
	.st10{fill:#3C6643;}
	.st11{fill:none;stroke:#FF4A49;stroke-miterlimit:10;}
	.st12{fill:#E70084;}
	.st13{fill:#508A72;}
	.st14{fill:#01A663;}
	.st15{fill:#015297;}
	.st16{fill:#B0B0B0;}
	.st17{fill:#E1062F;}
	.st18{fill:#D80000;stroke:#FFFFFF;stroke-width:2;stroke-miterlimit:10;}
	.st19{fill:#D80000;}
	.st20{fill:#8ABE23;}
	.st21{fill:#1D1D1B;}
	.st22{fill:#FEFEFE;}
	.st23{fill:#FF0000;}
	.st24{fill:#FF1D1B;}
	.st25{fill:#6DB2DE;}
	.st26{fill:#FF1D25;}
	.st27{fill:#FFDA00;}
	.st28{fill:#024D9E;}
	.st29{fill:#6B97C6;}
	.st30{fill:#000078;}
	.st31{fill:none;stroke:#FFFFFF;stroke-width:6;stroke-linecap:round;stroke-miterlimit:10;}
	.st32{fill:#FFEE34;}
	.st33{fill:none;stroke:#000000;stroke-width:4;stroke-miterlimit:10;}
	.st34{fill:#D11E24;}
	.st35{fill:#D71F26;}
	.st36{fill:#020000;}
	.st37{fill:none;stroke:#000000;stroke-width:2;stroke-miterlimit:10;}
	.st38{clip-path:url(#SVGID_2_);}
	.st39{fill:#00317D;}
	.st40{fill:#00737D;}
	.st41{fill:#ED1C24;}
	.st42{fill:#2678C7;}
	.st43{fill:#1853A6;}
	.st44{fill:#CB0000;}
	.st45{fill:#E61C21;}
	.st46{clip-path:url(#SVGID_4_);}
	.st47{fill:#6BDEF1;}
	.st48{clip-path:url(#SVGID_6_);}
	.st49{fill:#0165B2;}
	.st50{fill:#DE1134;}
	.st51{fill:#00A668;}
	.st52{fill:#FFE60B;}
	.st53{fill:#843D00;stroke:#000000;stroke-miterlimit:10;}
	.st54{fill:#EC1F27;}
	.st55{fill:#162984;}
	.st56{fill:#1853A6;stroke:#1853A6;stroke-miterlimit:10;}
	.st57{fill:none;}
	.st58{fill:none;stroke:#1853A6;stroke-width:0.9;stroke-miterlimit:10;}
	.st59{fill:#1853A6;stroke:#1853A6;stroke-width:0.9;stroke-miterlimit:10;}
	.st60{fill:#B5985A;}
	.st61{fill:#FFE60B;stroke:#000000;stroke-width:6;stroke-miterlimit:10;}
	.st62{fill:#008DCD;}
	.st63{fill:#009939;}
	.st64{fill:#2E3092;}
	.st65{fill:#EE3224;}
	.st66{fill:#005BAB;}
	.st67{fill:#D30027;}
	.st68{fill:#FFFFFF;stroke:#D30027;stroke-width:10;stroke-miterlimit:10;}
	.st69{fill:#E81C2F;}
	.st70{fill:#DC032B;}
	.st71{fill:#F25448;}
	.st72{fill:#FFFFFF;stroke:#F25448;stroke-width:6;stroke-miterlimit:10;}
	.st73{fill:#05A08D;}
	.st74{fill:#1875CE;}
	.st75{fill:#D72427;}
	.st76{fill:#004993;}
	.st77{fill:#007BB0;}
	.st78{fill:#FFEB00;}
	.st79{fill:#664A9E;}
	.st80{fill:#F4C701;}
	.st81{fill:#EBBE12;}
	.st82{fill:#44B3DB;}
	.st83{fill:#F6FF82;}
	.st84{fill:#FFC918;}
	.st85{fill:#0361A4;}
	.st86{fill:#009FE3;}
	.st87{fill:#E30217;}
	.st88{fill:#FDEA00;}
	.st89{fill:#E91B00;}
	.st90{fill:#2B2763;}
	.st91{fill:#EE1A22;}
	.st92{fill:#F1AA25;}
	.st93{fill:#93000C;}
	.st94{fill:none;stroke:#1D1D1B;stroke-width:4;}
	.st95{fill:#3E4E70;}
	.st96{fill:#096CB6;}
	.st97{fill:#0559A8;}
	.st98{fill:#F9ED1A;}
	.st99{fill:#949494;}
	.st100{fill:#FFD033;}
	.st101{fill:#243D89;}
	.st102{fill:#F8C936;}
	.st103{fill:#D44128;}
	.st104{fill:#ED1B23;}
	.st105{fill:#0C529C;}
	.st106{fill:#E31E24;}
	.st107{fill:#0263B0;}
	.st108{fill:#007AC2;}
	.st109{fill:#EF3D1F;}
	.st110{fill:#EE1C24;}
	.st111{fill:#FDEA00;stroke:#000000;stroke-width:0.6509;}
	.st112{fill:#FDEA00;stroke:#000000;stroke-width:0.6979;}
	.st113{fill:#46A0BE;}
	.st114{fill:#005FA5;}
	.st115{fill:#00904C;}
	.st116{fill:#E21F26;}
	.st117{fill:#FD0001;}
	.st118{fill:#0066B3;}
	.st119{fill:#E20019;}
	.st120{fill:#0171BC;}
	.st121{fill:#01305D;}
	.st122{fill:#1B7EE9;}
	.st123{fill:#BA0D0B;}
	.st124{fill:none;stroke:#000000;stroke-width:3;stroke-miterlimit:10;}
	.st125{fill:#FFFFFF;stroke:#000000;stroke-width:0.8836;stroke-miterlimit:10;}
	.st126{fill:#FFFFFF;stroke:#000000;stroke-width:0.9759;stroke-miterlimit:10;}
	.st127{fill:#0053A1;}
	.st128{fill:#FFE100;}
	.st129{fill:#FFE500;}
	.st130{fill:none;stroke:#FFE500;stroke-width:2;stroke-miterlimit:10;}
	.st131{fill:#01AFF3;}
	.st132{fill:#ED1B28;}
	.st133{fill:#E2000A;}
</style>
<g>
	<g>
		<path class="st0" d="M189.6,2c-39.7,0-83.7,0-122.1,0c0,35.1-29.1,63.5-65.5,64.6C22.1,253.4,128,254,128,254s105.9-0.4,126-187.3
			C218.1,65.1,189.6,36.1,189.6,2L189.6,2z"/>
		<path class="st4" d="M189.6,2c-39.7,0-83.7,0-122.1,0c0,35.1-29.1,63.5-65.5,64.6C22.1,253.4,128,254,128,254s105.9-0.4,126-187.3
			C218.1,65.1,189.6,36.1,189.6,2L189.6,2z"/>
	</g>
	<g>
		<path class="st0" d="M237.3,79.5c-15-3.6-28.6-11.3-39.6-22.4c-11.2-11.3-18.6-40-21.6-40L176,17H81c-3,15-10.6,29.2-22.1,40.6
			c-11.1,11-25,18.5-40.2,22c2.4,16.9,5.6,32.4,9.6,47.4h199.4C231.7,112,235,96.5,237.3,79.5z"/>
		<path class="st4" d="M28.3,127c4,14,8.9,27.6,14.6,39.5c10.1,21.2,22.6,38.2,37.4,50.7c23.7,20,45.1,21.6,47.7,21.7
			c2.6-0.1,24-1.7,47.7-21.7c14.8-12.5,27.3-29.3,37.4-50.5c5.7-12,10.6-25.6,14.6-39.6H28.3z"/>
	</g>
	<g>
		<path class="st69" d="M95.4,44.3h-7.7v-7.4h24v7.4H104v26h-8.6V44.3z"/>
		<path class="st69" d="M115.5,61.8c1.8,0.9,4.8,1.8,7.8,1.8c3,0,4.5-1.1,4.5-2.8c0-1.7-1.4-2.7-5-4.1c-5.5-2.4-8.4-5.6-8.4-9.8
			c0-5.8,4.5-10.4,12.8-10.4c3.5,0,6.1,0.7,8,1.5l-1.6,7c-1.3-0.6-3.5-1.4-6.4-1.4c-2.7,0-4.1,1.1-4.1,2.6c0,1.6,1.4,2.4,5.5,4.2
			c5.6,2.3,7.9,5.6,7.9,9.9c0,5.9-4.5,10.5-13.5,10.5c-3.7,0-7.2-0.9-8.9-1.8L115.5,61.8z"/>
		<path class="st69" d="M166.8,68.9c-2.2,0.7-6.4,1.7-10.2,1.7c-5.9,0-9.9-1.5-12.7-4.1c-3.1-3-4.7-7.5-4.6-12.6
			c0.1-11.7,8.2-17.4,18.1-17.4c4,0,7,0.7,8.5,1.4l-1.6,7c-1.6-0.7-3.6-1.2-6.7-1.2c-5.2,0-9.3,2.9-9.3,10c0,6.5,3.7,9.8,8.3,9.8
			c0.9,0,1.8-0.1,2.2-0.2v-6.1h-3.9v-6.7h12V68.9z"/>
		<path class="st69" d="M92.8,84.7L92.8,84.7l-5.2,2.8L86.5,81l7.3-4h6v32.1h-7V84.7z"/>
		<path class="st69" d="M117.2,76.6c5.9,0,8.8,4.1,8.8,8.3c0,2.5-1.1,5.2-3.6,6.9v0.1c2.4,1.1,4.6,3.9,4.6,8c0,6.1-4.1,9.8-10.2,9.8
			c-6.5,0-9.8-4.3-9.8-9c0-3.8,1.7-6.5,4.3-8v-0.1c-2.4-1.6-3.6-4.3-3.6-7C107.8,80.1,111.9,76.6,117.2,76.6L117.2,76.6z M117,104
			c1.7,0,2.7-1.6,2.7-3.6c0-2.5-1.5-4.1-3.3-4.7c-1.4,0.6-2.4,2.2-2.4,4.3S115.2,104,117,104L117,104z M116.9,82.2
			c-1.7,0-2.4,1.6-2.4,3.2c0,1.8,1.2,3.1,3,3.9c1-0.3,1.9-1.9,1.9-3.5C119.4,84,118.7,82.2,116.9,82.2L116.9,82.2z"/>
		<path class="st69" d="M131.5,103c1,0.1,1.5,0,2.7,0c1.5-0.1,3.2-0.6,4.5-1.5c1.5-1.1,2.6-3,3-5l-0.1,0c-1,1.1-2.5,1.8-4.6,1.8
			c-4.2,0-7.9-3.6-7.9-9.9c0-6.1,4-11.6,9.9-11.6c6.8,0,9.9,6.3,9.9,13.7c0,6.9-1.9,11.8-4.8,15c-2.5,2.7-5.9,4.1-10,4.3
			c-0.9,0-1.9,0-2.6,0V103z M138.7,82.7c-1.5,0-2.6,1.9-2.6,4.8c0,2.3,0.8,4.6,2.9,4.6c1.2,0,2-0.7,2.4-1.4c0.2-0.5,0.3-1.1,0.3-2.6
			C141.6,85.5,140.8,82.7,138.7,82.7L138.7,82.7z"/>
		<path class="st69" d="M153.6,103c1,0.1,1.5,0,2.7,0c1.5-0.1,3.2-0.6,4.5-1.5c1.5-1.1,2.6-3,3-5l-0.1,0c-1,1.1-2.5,1.8-4.6,1.8
			c-4.2,0-7.9-3.6-7.9-9.9c0-6.1,4-11.6,9.9-11.6c6.8,0,9.9,6.3,9.9,13.7c0,6.9-1.9,11.8-4.8,15c-2.5,2.7-5.9,4.1-10,4.3
			c-0.9,0-1.9,0-2.6,0V103z M160.8,82.7c-1.5,0-2.6,1.9-2.6,4.8c0,2.3,0.8,4.6,2.9,4.6c1.2,0,2-0.7,2.4-1.4c0.2-0.5,0.3-1.1,0.3-2.6
			C163.7,85.5,162.9,82.7,160.8,82.7L160.8,82.7z"/>
	</g>
	<g>
		<path class="st0" d="M54.7,152.2v9.7h5.9v-9.7h5.5v25.6h-5.5v-10.1h-5.9v10.1h-5.5v-25.6H54.7z"/>
		<path class="st0" d="M76.6,178.2c-4.5,0-7.7-3.6-7.7-9.6c0-6.2,3.2-9.8,7.9-9.8c4.6,0,7.6,4,7.6,9.6
			C84.4,175.4,80.4,178.2,76.6,178.2L76.6,178.2z M76.8,173.5c1.4,0,2.1-2.1,2.1-5c0-2.5-0.6-5-2.1-5c-1.7,0-2.2,2.5-2.2,5
			C74.5,171.4,75.2,173.5,76.8,173.5L76.8,173.5z"/>
		<path class="st0" d="M97.2,177.8v-13.9h-4v13.9h-5.5v-13.9h-2.1v-4.7h2.1v-0.2c0-2,0.4-4.1,1.7-5.7c1-1.3,2.6-2.1,4.9-2.1
			c0.7,0,1.5,0.2,2,0.4l-0.7,4.9c-0.3-0.1-0.7-0.2-1-0.2c-1.1,0-1.4,1.1-1.4,2.5v0.4h4v-0.6c0-2.1,0.5-4.4,1.9-6
			c1.2-1.4,2.8-1.9,4.4-1.9c1.1,0,2,0.2,2.7,0.4l-0.2,5c-0.4-0.1-0.9-0.2-1.4-0.2c-1.3,0-1.9,1.1-1.9,2.4v0.9h2.8v4.7h-2.8v13.9
			H97.2z"/>
		<path class="st0" d="M111.8,170.8c0.1,1.6,1.7,2.4,3.8,2.4c1.4,0,2.7-0.2,3.9-0.7l0.7,4.5c-1.7,0.8-3.6,1.1-5.5,1.1
			c-5.2,0-8.1-3.5-8.1-9.4c0-4.9,2.5-10,7.7-10c4.6,0,6.8,4,6.8,9.4c0,1.3-0.1,2.2-0.2,2.7H111.8z M116,166.4c0-1.3-0.4-3.3-2-3.3
			c-1.6,0-2.2,1.9-2.2,3.3H116z"/>
		<path class="st0" d="M123.5,165.3c0-2.3-0.1-4.4-0.1-6.2h4.7l0.3,2.3h0.1c0.7-1.1,2.1-2.7,4.5-2.7c3.5,0,5.2,3,5.2,7.8v11.2h-5.5
			v-10.6c0-1.9-0.5-3.2-1.8-3.2c-1,0-1.4,0.8-1.7,1.5c-0.1,0.3-0.2,0.9-0.2,1.5v10.8h-5.5V165.3z"/>
		<path class="st0" d="M141.4,151h5.5v10h0.1c0.5-0.7,1-1.3,1.7-1.7c0.7-0.4,1.5-0.6,2.3-0.6c3.4,0,5.1,3.1,5.1,8.2v10.8h-5.5v-10.4
			c0-2.1-0.5-3.4-1.8-3.4c-0.9,0-1.4,0.6-1.7,1.4c-0.1,0.3-0.2,0.9-0.2,1.2v11.1h-5.5V151z"/>
		<path class="st0" d="M163.8,170.8c0.1,1.6,1.7,2.4,3.8,2.4c1.4,0,2.7-0.2,3.9-0.7l0.7,4.5c-1.7,0.8-3.6,1.1-5.5,1.1
			c-5.2,0-8.1-3.5-8.1-9.4c0-4.9,2.5-10,7.7-10c4.6,0,6.8,4,6.8,9.4c0,1.3-0.1,2.2-0.2,2.7H163.8z M168,166.4c0-1.3-0.4-3.3-2-3.3
			c-1.6,0-2.2,1.9-2.2,3.3H168z"/>
		<path class="st0" d="M178.2,157.2c-1.6,0-2.7-1.4-2.7-3.2c0-1.9,1.1-3.2,2.8-3.2c1.7,0,2.7,1.3,2.8,3.2
			C181,155.8,179.9,157.2,178.2,157.2L178.2,157.2z M175.5,177.8v-18.7h5.5v18.7H175.5z"/>
		<path class="st0" d="M184.3,165.3c0-2.3-0.1-4.4-0.1-6.2h4.6l0.3,2.3h0.1c0.6-1.1,2-2.7,4.4-2.7c1.9,0,3.4,1.1,4,2.8h0.1
			c0.6-0.9,1.2-1.6,2-2.1c0.8-0.5,1.6-0.7,2.6-0.7c3.3,0,5,3,5,7.9v11.2h-5.4v-10.2c0-2.2-0.4-3.6-1.6-3.6c-0.8,0-1.4,0.6-1.6,1.5
			c-0.1,0.3-0.1,0.9-0.1,1.3v11H193v-10.6c0-1.7-0.4-3.2-1.6-3.2c-0.9,0-1.3,0.7-1.6,1.4c-0.1,0.4-0.2,0.9-0.2,1.4v11h-5.4V165.3z"
			/>
	</g>
</g>
</svg>
