<?xml version="1.0" encoding="utf-8"?>
<!-- Generator: Adobe Illustrator 17.0.0, SVG Export Plug-In . SVG Version: 6.00 Build 0)  -->
<!DOCTYPE svg PUBLIC "-//W3C//DTD SVG 1.1//EN" "http://www.w3.org/Graphics/SVG/1.1/DTD/svg11.dtd" [
	<!ENTITY ns_flows "http://ns.adobe.com/Flows/1.0/">
	<!ENTITY ns_extend "http://ns.adobe.com/Extensibility/1.0/">
	<!ENTITY ns_ai "http://ns.adobe.com/AdobeIllustrator/10.0/">
	<!ENTITY ns_graphs "http://ns.adobe.com/Graphs/1.0/">
]>
<svg version="1.1" id="Layer_2" xmlns:x="&ns_extend;" xmlns:i="&ns_ai;" xmlns:graph="&ns_graphs;"
	 xmlns="http://www.w3.org/2000/svg" xmlns:xlink="http://www.w3.org/1999/xlink" xmlns:a="http://ns.adobe.com/AdobeSVGViewerExtensions/3.0/"
	 x="0px" y="0px" width="256px" height="256px" viewBox="0 0 256 256" style="enable-background:new 0 0 256 256;"
	 xml:space="preserve">
<style type="text/css">
	.st0{fill:#FFFFFF;}
	.st1{fill:#54B948;}
	.st2{fill:#1D8C8E;}
	.st3{fill:#14DEAC;}
	.st4{fill:#1466AC;}
	.st5{fill:#757575;}
	.st6{fill:#B69442;}
	.st7{fill:#1A234D;}
	.st8{fill:#AA0629;}
	.st9{fill:#FF4A49;}
	.st10{fill:#3C6643;}
	.st11{fill:none;stroke:#FF4A49;stroke-miterlimit:10;}
	.st12{fill:#E70084;}
	.st13{fill:#508A72;}
	.st14{fill:#01A663;}
	.st15{fill:#015297;}
	.st16{fill:#B0B0B0;}
	.st17{fill:#E1062F;}
	.st18{fill:#D80000;stroke:#FFFFFF;stroke-width:2;stroke-miterlimit:10;}
	.st19{fill:#D80000;}
	.st20{fill:#8ABE23;}
	.st21{fill:#1D1D1B;}
	.st22{fill:#FEFEFE;}
	.st23{fill:#FF0000;}
	.st24{fill:#FF1D1B;}
	.st25{fill:#6DB2DE;}
	.st26{fill:#FF1D25;}
	.st27{fill:#FFDA00;}
	.st28{fill:#024D9E;}
	.st29{fill:#6B97C6;}
	.st30{fill:#000078;}
	.st31{fill:none;stroke:#FFFFFF;stroke-width:6;stroke-linecap:round;stroke-miterlimit:10;}
	.st32{fill:#FFEE34;}
	.st33{fill:none;stroke:#000000;stroke-width:4;stroke-miterlimit:10;}
	.st34{fill:#D11E24;}
	.st35{fill:#D71F26;}
	.st36{fill:#020000;}
	.st37{fill:none;stroke:#000000;stroke-width:2;stroke-miterlimit:10;}
	.st38{clip-path:url(#SVGID_2_);}
	.st39{fill:#00317D;}
	.st40{fill:#00737D;}
	.st41{fill:#ED1C24;}
	.st42{fill:#2678C7;}
	.st43{fill:#1853A6;}
	.st44{fill:#CB0000;}
	.st45{fill:#E61C21;}
	.st46{clip-path:url(#SVGID_4_);}
	.st47{fill:#6BDEF1;}
	.st48{clip-path:url(#SVGID_6_);}
	.st49{fill:#0165B2;}
	.st50{fill:#DE1134;}
	.st51{fill:#00A668;}
	.st52{fill:#FFE60B;}
	.st53{fill:#843D00;stroke:#000000;stroke-miterlimit:10;}
	.st54{fill:#EC1F27;}
	.st55{fill:#162984;}
	.st56{fill:#1853A6;stroke:#1853A6;stroke-miterlimit:10;}
	.st57{fill:none;}
	.st58{fill:none;stroke:#1853A6;stroke-width:0.9;stroke-miterlimit:10;}
	.st59{fill:#1853A6;stroke:#1853A6;stroke-width:0.9;stroke-miterlimit:10;}
	.st60{fill:#B5985A;}
	.st61{fill:#FFE60B;stroke:#000000;stroke-width:6;stroke-miterlimit:10;}
	.st62{fill:#008DCD;}
	.st63{fill:#009939;}
	.st64{fill:#2E3092;}
	.st65{fill:#EE3224;}
	.st66{fill:#005BAB;}
	.st67{fill:#D30027;}
	.st68{fill:#FFFFFF;stroke:#D30027;stroke-width:10;stroke-miterlimit:10;}
	.st69{fill:#E81C2F;}
	.st70{fill:#DC032B;}
	.st71{fill:#F25448;}
	.st72{fill:#FFFFFF;stroke:#F25448;stroke-width:6;stroke-miterlimit:10;}
	.st73{fill:#05A08D;}
	.st74{fill:#1875CE;}
	.st75{fill:#D72427;}
	.st76{fill:#004993;}
	.st77{fill:#007BB0;}
	.st78{fill:#FFEB00;}
	.st79{fill:#664A9E;}
	.st80{fill:#F4C701;}
	.st81{fill:#EBBE12;}
	.st82{fill:#44B3DB;}
	.st83{fill:#F6FF82;}
	.st84{fill:#FFC918;}
	.st85{fill:#0361A4;}
	.st86{fill:#009FE3;}
	.st87{fill:#E30217;}
	.st88{fill:#FDEA00;}
	.st89{fill:#E91B00;}
	.st90{fill:#2B2763;}
	.st91{fill:#EE1A22;}
	.st92{fill:#F1AA25;}
	.st93{fill:#93000C;}
	.st94{fill:none;stroke:#1D1D1B;stroke-width:4;}
	.st95{fill:#3E4E70;}
	.st96{fill:#096CB6;}
	.st97{fill:#0559A8;}
	.st98{fill:#F9ED1A;}
	.st99{fill:#949494;}
	.st100{fill:#FFD033;}
	.st101{fill:#243D89;}
	.st102{fill:#F8C936;}
	.st103{fill:#D44128;}
	.st104{fill:#ED1B23;}
	.st105{fill:#0C529C;}
	.st106{fill:#E31E24;}
	.st107{fill:#0263B0;}
	.st108{fill:#007AC2;}
	.st109{fill:#EF3D1F;}
	.st110{fill:#EE1C24;}
	.st111{fill:#FDEA00;stroke:#000000;stroke-width:0.6509;}
	.st112{fill:#FDEA00;stroke:#000000;stroke-width:0.6979;}
	.st113{fill:#46A0BE;}
	.st114{fill:#005FA5;}
	.st115{fill:#00904C;}
	.st116{fill:#E21F26;}
	.st117{fill:#FD0001;}
	.st118{fill:#0066B3;}
	.st119{fill:#E20019;}
	.st120{fill:#0171BC;}
	.st121{fill:#01305D;}
	.st122{fill:#1B7EE9;}
	.st123{fill:#BA0D0B;}
	.st124{fill:none;stroke:#000000;stroke-width:3;stroke-miterlimit:10;}
	.st125{fill:#FFFFFF;stroke:#000000;stroke-width:0.8836;stroke-miterlimit:10;}
	.st126{fill:#FFFFFF;stroke:#000000;stroke-width:0.9759;stroke-miterlimit:10;}
	.st127{fill:#0053A1;}
	.st128{fill:#FFE100;}
	.st129{fill:#FFE500;}
	.st130{fill:none;stroke:#FFE500;stroke-width:2;stroke-miterlimit:10;}
	.st131{fill:#01AFF3;}
	.st132{fill:#ED1B28;}
	.st133{fill:#E2000A;}
</style>
<g>
	<g>
		<path class="st86" d="M38.6,190.4c7.5,9.2,15.6,16.1,23.8,21.6h130.3c8.4-5.4,16.6-12.3,24.3-21.4c1.8-2.1,3.5-4.3,5.1-6.6H33.7
			C35.3,186.2,36.9,188.4,38.6,190.4z"/>
		<path class="st87" d="M33.7,184h188.3c5.9-8.3,10.9-17.6,15.1-28H18.9C23,166.4,27.9,175.7,33.7,184z"/>
		<path class="st87" d="M99.9,229.8c12.2,4.6,22.6,8.5,27.1,15.5c4.6-7.1,15.2-11,27.8-15.7c11.6-4.3,24.9-9.2,37.9-17.6H62.4
			C75.3,220.5,88.5,225.5,99.9,229.8z"/>
		<path class="st87" d="M6.3,100c1,9.9,2.5,19.3,4.4,28h234.8c1.9-8.7,3.3-18.1,4.3-28H6.3z"/>
		<path class="st86" d="M18.9,156h218.2c3.4-8.6,6.2-17.9,8.4-28H10.7C12.8,138.1,15.6,147.4,18.9,156z"/>
		<path class="st86" d="M251.4,72H4.6c0.2,9.8,0.8,19.1,1.7,28h243.5C250.7,91.1,251.3,81.8,251.4,72z"/>
		<path class="st87" d="M251.5,66.5c-12.6-0.5-27.8-4.6-35.2-15.4c-4.8-7-5.7-15.6-2.5-25.8C203.1,27.4,193,29,183.7,29c0,0,0,0,0,0
			c-35.8,0-51.9-15.5-57.1-22c-5.7,6-22.7,20-56.6,20c0,0,0,0,0,0C62,27,53.6,25.7,45,24.2c3,9.9,2.2,17.8-2.4,24.5
			c-9,13.2-29.1,15.4-38,15.7c0,2.6,0.1,5.1,0.1,7.6h246.8C251.5,70.2,251.5,68.4,251.5,66.5z"/>
	</g>
	<path d="M126.4,9.6c7,7.6,23.9,20.9,57.3,20.9c8.4,0,17.3-0.8,26.7-2.5c-2.1,9.4-0.8,17.5,3.9,24.3c7.4,10.8,22,15.5,34.7,16.4
		c-0.3,28.3-3.6,53.1-9.9,73.6c-5.6,18.5-13.7,34.1-24.1,46.6c-19.1,22.8-42.4,31.4-61.1,38.3c-11.1,4.1-21.2,7.8-26.9,14
		c-5.6-6.1-15.5-9.8-26.3-13.8c-18.5-6.9-41.4-15.5-60.2-38.6c-10.3-12.6-18.3-28.5-23.8-47.2C10.6,120.7,7.3,95.6,7,66.8
		c10.2-0.6,28.7-3.7,37.6-16.6c4.5-6.5,5.7-14.3,3.8-23.3c7.5,1.2,14.7,1.7,21.6,1.7C101.4,28.5,118.9,16.5,126.4,9.6 M126.7,2
		c0,0-15.5,21.6-56.8,21.6c-8.5,0-18-0.9-28.7-3.1C54.2,53.3,22.7,62,2,62c0,192.7,124.9,154.5,125,192c0.1-37.5,127,0,127-190
		c-19.5,0-49.4-9.6-36.4-42.5c-12.9,2.9-24.2,4.1-33.9,4.1C140.2,25.6,126.7,2,126.7,2L126.7,2z"/>
	<g>
		<path class="st0" d="M72,37.2h13v11h0.2c1-1,2-2,3-3l8.6-8h15.7l-14.7,11l15.2,14.6h-15l-9.3-10.2L85,55v7.8H72V37.2z"/>
		<path class="st0" d="M117.3,37.2h30.1v5.4h-16.9v5h15.9v5.4h-15.9v9.8h-13.1V37.2z"/>
		<path class="st0" d="M190.1,62.2c-1.7,0.4-6,0.9-11.3,0.9c-17.8,0-25.4-6-25.4-12.7c0-9.2,12.5-13.6,26.4-13.6
			c5.2,0,9.3,0.5,11.1,1l-2.4,5.2c-1.9-0.4-4.6-0.8-8-0.8c-7.3,0-13.4,2.4-13.4,7.7c0,4.9,5.2,7.6,13.5,7.6c2.7,0,5.9-0.3,7.8-0.6
			L190.1,62.2z"/>
	</g>
	<g>
		<path class="st0" d="M62.9,75.3V88c0,3.1,1,4.7,2.9,4.7s2.9-1.3,2.9-4.7V75.3h5.5v12.2c0,6.3-2.9,9.7-8.5,9.7
			c-5.7,0-8.3-3.3-8.3-9.8V75.3H62.9z"/>
		<path class="st0" d="M82.3,91c0.1,1.3,1.8,2,3.8,2c1.4,0,2.7-0.2,4-0.6l0.7,3.8c-1.7,0.6-3.6,0.9-5.5,0.9c-5.2,0-8.2-3-8.2-7.9
			c0-4.2,2.6-8.4,7.7-8.4c4.6,0,6.8,3.3,6.8,7.9c0,1.1-0.1,1.9-0.2,2.3H82.3z M86.5,87.3c0-1.1-0.4-2.8-2-2.8
			c-1.6,0-2.2,1.6-2.2,2.8H86.5z"/>
		<path class="st0" d="M94.1,86.4c0-2.2,0-3.8-0.1-5.2h4.7l0.2,2.7H99c0.8-2.2,2.6-3,3.8-3c0.5,0,0.7,0,1.1,0.1v5.2
			c-0.4-0.1-0.8-0.1-1.3-0.1c-1.4,0-2.5,0.6-2.9,1.9c-0.1,0.3-0.1,0.7-0.1,1.2v7.7h-5.5V86.4z"/>
		<path class="st0" d="M120.8,74.3v17.6c0,1.9,0.1,3.8,0.1,5h-4.9l-0.2-2h-0.1c-0.9,1.6-2.6,2.3-4.3,2.3c-3.7,0-6.2-3.4-6.2-8.1
			c0-5.3,3-8.3,6.5-8.3c1.7,0,2.9,0.6,3.5,1.5h0.1v-8H120.8z M115.3,87.7c0-0.3,0-0.5,0-0.8c-0.2-1-0.9-1.8-2-1.8
			c-1.7,0-2.5,1.8-2.5,3.9c0,2.5,1.1,3.7,2.4,3.7c1,0,1.7-0.6,1.9-1.6c0.1-0.3,0.1-0.6,0.1-1V87.7z"/>
		<path class="st0" d="M126.8,79.5c-1.6,0-2.8-1.2-2.8-2.7c0-1.6,1.2-2.7,2.8-2.7c1.7,0,2.8,1.1,2.8,2.7
			C129.6,78.4,128.5,79.5,126.8,79.5L126.8,79.5z M124.1,96.9V81.1h5.5v15.7H124.1z"/>
		<path class="st0" d="M132.9,86.4c0-2-0.1-3.7-0.1-5.2h4.8l0.3,2h0.1c0.7-1,2.1-2.3,4.5-2.3c3.6,0,5.3,2.6,5.3,6.6v9.5h-5.5V88
			c0-1.6-0.5-2.7-1.8-2.7c-1,0-1.4,0.6-1.7,1.2c-0.1,0.3-0.2,0.8-0.2,1.2v9.1h-5.5V86.4z"/>
		<path class="st0" d="M165.5,94.8c0,2.8-0.6,5.2-2.3,6.8c-1.6,1.4-3.8,1.9-6.3,1.9c-2,0-3.9-0.4-5.3-1l1-4.2c0.9,0.5,2.5,1,4.1,1
			c2.1,0,3.4-1.2,3.4-3.5v-0.7H160c-0.8,1.1-2.2,1.7-3.6,1.7c-3.9,0-6.1-3.4-6.1-7.6c0-5,2.9-8.3,6.6-8.3c1.7,0,2.9,0.7,3.7,2h0.1
			l0.2-1.6h4.7c-0.1,1.2-0.1,2.6-0.1,4.9V94.8z M160,87.5c0-0.3,0-0.6-0.1-0.9c-0.3-1-0.9-1.5-1.7-1.5c-1.4,0-2.4,1.5-2.4,3.9
			c0,2.1,0.9,3.6,2.3,3.6c0.9,0,1.5-0.6,1.7-1.3c0.1-0.3,0.1-0.8,0.1-1.2V87.5z"/>
		<path class="st0" d="M173.4,91c0.1,1.3,1.8,2,3.8,2c1.4,0,2.7-0.2,4-0.6l0.7,3.8c-1.7,0.6-3.6,0.9-5.5,0.9c-5.2,0-8.2-3-8.2-7.9
			c0-4.2,2.6-8.4,7.7-8.4c4.6,0,6.8,3.3,6.8,7.9c0,1.1-0.1,1.9-0.2,2.3H173.4z M177.6,87.3c0-1.1-0.4-2.8-2-2.8
			c-1.6,0-2.2,1.6-2.2,2.8H177.6z"/>
		<path class="st0" d="M185.1,86.4c0-2-0.1-3.7-0.1-5.2h4.8l0.3,2h0.1c0.7-1,2.1-2.3,4.5-2.3c3.6,0,5.3,2.6,5.3,6.6v9.5h-5.5V88
			c0-1.6-0.5-2.7-1.8-2.7c-1,0-1.4,0.6-1.7,1.2c-0.1,0.3-0.2,0.8-0.2,1.2v9.1h-5.5V86.4z"/>
	</g>
	<g>
		<path class="st0" d="M202.3,150.9c-4.4,0-5.9-4.2-5.9-8.3c0-4.3,1.7-8.4,6-8.4c4.6,0,5.9,4.4,5.9,8.3
			C208.2,147.6,206.2,150.9,202.3,150.9L202.3,150.9z M202.3,147.6c1,0,1.6-1.5,1.6-5c0-3.4-0.5-5-1.6-5c-1.1,0-1.7,1.4-1.7,5
			C200.6,146.1,201.2,147.6,202.3,147.6L202.3,147.6z"/>
		<path class="st0" d="M220.3,138h-5.7l-0.2,1.9c0.3,0,0.5,0,0.8,0c1.3,0,3,0.4,4.1,1.3c1.1,0.9,1.7,2.2,1.7,3.9
			c0,3-2.5,5.7-6.9,5.7c-1.8,0-3.4-0.4-4.2-0.8l0.7-3.3c0.7,0.3,2,0.7,3.3,0.7c1.4,0,2.8-0.6,2.8-2.1c0-1.6-1.4-2.4-4.2-2.4
			c-0.7,0-1.3,0-1.8,0.1l1-8.7h8.7V138z"/>
	</g>
	<g>
		<path class="st0" d="M126.9,112.9c-29,0-52.6,23.6-52.6,52.5s23.6,52.5,52.6,52.5s52.6-23.6,52.6-52.5S156,112.9,126.9,112.9z"/>
		<path class="st34" d="M127.1,116.6c-26.9,0-48.8,21.9-48.8,48.8s21.9,48.8,48.8,48.8s48.8-21.9,48.8-48.8S154,116.6,127.1,116.6z
			 M172.2,153.9l-6.5-6.5c-1.2-6.7-4.1-12.1-7.2-16.2C165.1,137.2,169.9,145,172.2,153.9z M142.3,194.3c-3.7-0.7-15.9-3.2-19.4-4.7
			c-2.1-6.5-3.8-15.7-4.9-22c0.1,0,0.1,0.1,0.2,0.1c2.4-4.7,15.4-18.9,15.4-18.9s0-0.1-0.1-0.1c6,1.2,15.7,3.6,22.2,7.4
			c2,9.2,2.7,16.4,2.9,20.2C156.7,179.1,149.6,188.7,142.3,194.3z M109.6,199.5c-9.4-2.9-16.8-9-20.2-12.1c-1.4-4.6-3.5-15-3.7-19.7
			c2.5-2.6,7-7.2,12.2-11.1c1.7,1,12.9,7.6,18.5,10.3c1,6.1,2.7,15.4,4.8,22.4C120.1,190.3,112.5,197.7,109.6,199.5z M155.9,154.4
			c-7.1-4-17.2-6.4-23-7.4c-1.5-3.8-5-12.4-7.5-16.4c3.6-3.2,7.4-5.9,9.7-7.5c2.1,0,8.2,0.1,12.8,0.8c1.2,0.6,2.4,1.3,3.6,2
			c3.7,3.2,9.9,9.9,12.3,19.8L155.9,154.4z M135,119.6l-0.3,1.9c-2.6,1.8-7.1,5-11.4,8.9c-5.2,0.7-15.7,3.1-19.2,3.9
			c-2.8-2.3-5.2-4-6.5-4.8c8-6.6,18.4-10.6,29.6-10.6C129.8,118.9,132.4,119.2,135,119.6z M96.3,130.6c1,0.6,3.4,2.2,6.1,4.5
			c-2,3.2-3.9,15-4.5,19.6c-5.3,3.8-9.9,8.4-12.7,11.3c-1.7-1.4-3.3-4.7-4.2-7C82.6,147.7,88.2,137.8,96.3,130.6z M88.9,192.1
			c0.2-0.6,0.4-1.4,0.8-2.2c4,3.5,11.3,8.9,20.4,11.5c2.4,2.9,6,7.4,8.9,10C106.6,209.1,95.9,202,88.9,192.1z M142.5,209.4
			c0.2-3.7,0.5-10.8,0.6-13.8c6.6-4.9,12.9-12.9,15.8-16.9c0,0.4,0,0.6,0,0.6s8.3,0.9,12.3,1C166.6,193.9,156,204.7,142.5,209.4z"/>
	</g>
</g>
</svg>
