<?xml version="1.0" encoding="utf-8"?>
<!-- Generator: Adobe Illustrator 17.0.0, SVG Export Plug-In . SVG Version: 6.00 Build 0)  -->
<!DOCTYPE svg PUBLIC "-//W3C//DTD SVG 1.1//EN" "http://www.w3.org/Graphics/SVG/1.1/DTD/svg11.dtd" [
	<!ENTITY ns_flows "http://ns.adobe.com/Flows/1.0/">
	<!ENTITY ns_extend "http://ns.adobe.com/Extensibility/1.0/">
	<!ENTITY ns_ai "http://ns.adobe.com/AdobeIllustrator/10.0/">
	<!ENTITY ns_graphs "http://ns.adobe.com/Graphs/1.0/">
]>
<svg version="1.1" id="Layer_2" xmlns:x="&ns_extend;" xmlns:i="&ns_ai;" xmlns:graph="&ns_graphs;"
	 xmlns="http://www.w3.org/2000/svg" xmlns:xlink="http://www.w3.org/1999/xlink" xmlns:a="http://ns.adobe.com/AdobeSVGViewerExtensions/3.0/"
	 x="0px" y="0px" width="256px" height="256px" viewBox="0 0 256 256" style="enable-background:new 0 0 256 256;"
	 xml:space="preserve">
<style type="text/css">
	.st0{fill:#FFFFFF;}
	.st1{fill:#54B948;}
	.st2{fill:#1D8C8E;}
	.st3{fill:#14DEAC;}
	.st4{fill:#1466AC;}
	.st5{fill:#757575;}
	.st6{fill:#B69442;}
	.st7{fill:#1A234D;}
	.st8{fill:#AA0629;}
	.st9{fill:#FF4A49;}
	.st10{fill:#3C6643;}
	.st11{fill:none;stroke:#FF4A49;stroke-miterlimit:10;}
	.st12{fill:#E70084;}
	.st13{fill:#508A72;}
	.st14{fill:#01A663;}
	.st15{fill:#015297;}
	.st16{fill:#B0B0B0;}
	.st17{fill:#E1062F;}
	.st18{fill:#D80000;stroke:#FFFFFF;stroke-width:2;stroke-miterlimit:10;}
	.st19{fill:#D80000;}
	.st20{fill:#8ABE23;}
	.st21{fill:#1D1D1B;}
	.st22{fill:#FEFEFE;}
	.st23{fill:#FF0000;}
	.st24{fill:#FF1D1B;}
	.st25{fill:#6DB2DE;}
	.st26{fill:#FF1D25;}
	.st27{fill:#FFDA00;}
	.st28{fill:#024D9E;}
	.st29{fill:#6B97C6;}
	.st30{fill:#000078;}
	.st31{fill:none;stroke:#FFFFFF;stroke-width:6;stroke-linecap:round;stroke-miterlimit:10;}
	.st32{fill:#FFEE34;}
	.st33{fill:none;stroke:#000000;stroke-width:4;stroke-miterlimit:10;}
	.st34{fill:#D11E24;}
	.st35{fill:#D71F26;}
	.st36{fill:#020000;}
	.st37{fill:none;stroke:#000000;stroke-width:2;stroke-miterlimit:10;}
	.st38{clip-path:url(#SVGID_2_);}
	.st39{fill:#00317D;}
	.st40{fill:#00737D;}
	.st41{fill:#ED1C24;}
	.st42{fill:#2678C7;}
	.st43{fill:#1853A6;}
	.st44{fill:#CB0000;}
	.st45{fill:#E61C21;}
	.st46{clip-path:url(#SVGID_4_);}
	.st47{fill:#6BDEF1;}
	.st48{clip-path:url(#SVGID_6_);}
	.st49{fill:#0165B2;}
	.st50{fill:#DE1134;}
	.st51{fill:#00A668;}
	.st52{fill:#FFE60B;}
	.st53{fill:#843D00;stroke:#000000;stroke-miterlimit:10;}
	.st54{fill:#EC1F27;}
	.st55{fill:#162984;}
	.st56{fill:#1853A6;stroke:#1853A6;stroke-miterlimit:10;}
	.st57{fill:none;}
	.st58{fill:none;stroke:#1853A6;stroke-width:0.9;stroke-miterlimit:10;}
	.st59{fill:#1853A6;stroke:#1853A6;stroke-width:0.9;stroke-miterlimit:10;}
	.st60{fill:#B5985A;}
	.st61{fill:#FFE60B;stroke:#000000;stroke-width:6;stroke-miterlimit:10;}
	.st62{fill:#008DCD;}
	.st63{fill:#009939;}
	.st64{fill:#2E3092;}
	.st65{fill:#EE3224;}
	.st66{fill:#005BAB;}
	.st67{fill:#D30027;}
	.st68{fill:#FFFFFF;stroke:#D30027;stroke-width:10;stroke-miterlimit:10;}
	.st69{fill:#E81C2F;}
	.st70{fill:#DC032B;}
	.st71{fill:#F25448;}
	.st72{fill:#FFFFFF;stroke:#F25448;stroke-width:6;stroke-miterlimit:10;}
	.st73{fill:#05A08D;}
	.st74{fill:#1875CE;}
	.st75{fill:#D72427;}
	.st76{fill:#004993;}
	.st77{fill:#007BB0;}
	.st78{fill:#FFEB00;}
	.st79{fill:#664A9E;}
	.st80{fill:#F4C701;}
	.st81{fill:#EBBE12;}
	.st82{fill:#44B3DB;}
	.st83{fill:#F6FF82;}
	.st84{fill:#FFC918;}
	.st85{fill:#0361A4;}
	.st86{fill:#009FE3;}
	.st87{fill:#E30217;}
	.st88{fill:#FDEA00;}
	.st89{fill:#E91B00;}
	.st90{fill:#2B2763;}
	.st91{fill:#EE1A22;}
	.st92{fill:#F1AA25;}
	.st93{fill:#93000C;}
	.st94{fill:none;stroke:#1D1D1B;stroke-width:4;}
	.st95{fill:#3E4E70;}
	.st96{fill:#096CB6;}
	.st97{fill:#0559A8;}
	.st98{fill:#F9ED1A;}
	.st99{fill:#949494;}
	.st100{fill:#FFD033;}
	.st101{fill:#243D89;}
	.st102{fill:#F8C936;}
	.st103{fill:#D44128;}
	.st104{fill:#ED1B23;}
	.st105{fill:#0C529C;}
	.st106{fill:#E31E24;}
	.st107{fill:#0263B0;}
	.st108{fill:#007AC2;}
	.st109{fill:#EF3D1F;}
	.st110{fill:#EE1C24;}
	.st111{fill:#FDEA00;stroke:#000000;stroke-width:0.6509;}
	.st112{fill:#FDEA00;stroke:#000000;stroke-width:0.6979;}
	.st113{fill:#46A0BE;}
	.st114{fill:#005FA5;}
	.st115{fill:#00904C;}
	.st116{fill:#E21F26;}
	.st117{fill:#FD0001;}
	.st118{fill:#0066B3;}
	.st119{fill:#E20019;}
	.st120{fill:#0171BC;}
	.st121{fill:#01305D;}
	.st122{fill:#1B7EE9;}
	.st123{fill:#BA0D0B;}
	.st124{fill:none;stroke:#000000;stroke-width:3;stroke-miterlimit:10;}
	.st125{fill:#FFFFFF;stroke:#000000;stroke-width:0.8836;stroke-miterlimit:10;}
	.st126{fill:#FFFFFF;stroke:#000000;stroke-width:0.9759;stroke-miterlimit:10;}
	.st127{fill:#0053A1;}
	.st128{fill:#FFE100;}
	.st129{fill:#FFE500;}
	.st130{fill:none;stroke:#FFE500;stroke-width:2;stroke-miterlimit:10;}
	.st131{fill:#01AFF3;}
	.st132{fill:#ED1B28;}
	.st133{fill:#E2000A;}
</style>
<g>
	<path class="st0" d="M127.6,252c-28.3,0-52.4-4.7-71.7-13.9c-15.2-7.3-27.5-17.5-36.4-30.2C4.3,186.1,4,163.9,4,163.6V4h248v159.7
		c0,0.2-0.3,22.4-15.6,44.2c-8.9,12.7-21.3,22.9-36.6,30.2C180.5,247.3,156.2,252,127.6,252z"/>
	<path class="st9" d="M0,0v163.7c0,0,0.3,92.3,127.6,92.3C256,256,256,163.7,256,163.7V0H0z M127.6,248c-27.6,0-51-4.5-69.7-13.4
		c-8.3-3.9-15.6-8.8-22-14.4l93.2-93.1L10,8h238v0.3L129.1,127.1l92.1,92.1c-6.7,6.1-14.5,11.3-23.3,15.4
		C179.1,243.5,155.5,248,127.6,248z"/>
	<g>
		<path d="M70.3,27.7h25.8V33H80.6v4.1h14.6v5.3H80.6v8.8H70.3V27.7z"/>
		<path d="M132.9,50.5c-1.5,0.5-5.4,1.1-10.5,1.1c-14.9,0-21.5-5.5-21.5-11.8c0-8.2,10-12.6,22-12.6c4.7,0,8.7,0.6,10.5,1.2
			l-2.1,5.1c-1.9-0.5-4.6-1-8-1c-6.2,0-11.6,2.1-11.6,6.8c0,4,4.3,6.9,11.9,6.9c2.8,0,5.9-0.3,7.7-0.8L132.9,50.5z"/>
		<path d="M85.9,212.5L85.9,212.5l-5.9,2.2l-1.3-5.3l8.5-3.2h6.6v24.6h-7.9V212.5z"/>
		<path d="M105.5,225.8c0.7,0.1,1.4,0.1,2.8,0.1c2.3,0,4.6-0.4,6.2-1.1c2.1-0.9,3.4-2.3,3.8-3.6l-0.1-0.1c-1.2,0.9-3,1.4-5.7,1.4
			c-5,0-9.7-2.6-9.7-7.8c0-5.1,5.2-9,11.8-9c8.8,0,12.2,5.6,12.2,10.8c0,4.7-1.6,8.4-5,11c-3.3,2.5-7.8,3.7-13.5,3.7
			c-1,0-2.2-0.1-2.8-0.2V225.8z M114.4,211c-1.9,0-3.5,1.3-3.5,3.4c0,1.7,1.1,3.2,3.8,3.2c1.7,0,2.7-0.6,3.3-1.3
			c0.2-0.3,0.3-0.6,0.3-1C118.3,213.5,117.5,211,114.4,211L114.4,211z"/>
		<path d="M141.7,231.3c-8.5,0-11.9-6-11.9-12.7c0-6.7,3.4-12.7,11.9-12.7s11.9,6,11.9,12.7C153.7,225.3,150.3,231.3,141.7,231.3
			L141.7,231.3z M141.8,226.2c2.2,0,3.7-2.4,3.7-7.6c0-5.2-1.5-7.6-3.7-7.6s-3.7,2.3-3.7,7.6C138,223.8,139.5,226.2,141.8,226.2
			L141.8,226.2z"/>
		<path d="M179.7,206.3v4.3l-12.2,20.2h-9l12.4-18.8V212h-13.7v-5.7H179.7z"/>
	</g>
	<g>
		<g>
			<g>
				<g>
					<path class="st0" d="M116.3,143l-0.1-0.1c-4.1-0.2-7.6-3.7-7.7-7.9c-0.1-2.2,0.7-4.4,2.3-6c1.5-1.6,3.6-2.5,5.8-2.5
						c4.5,0,8,3.5,8.2,7.9c0.1,2.2-0.7,4.4-2.3,6c-1.5,1.6-3.6,2.5-5.8,2.5h-0.1c-0.1,0-0.1,0-0.2,0L116.3,143z"/>
				</g>
				<g>
					<path class="st0" d="M116.3,143l-2.8-3.5c-0.1-0.2-0.3-0.3-0.4-0.5c-0.8-0.8-1.9-2-2.3-3.9c-0.4-2.3,0.9-4,1.7-4.9
						c0.1-0.1,0.2-0.3,0.3-0.4l1.2-1.8l5.4-0.1l1.2,1.8c0.1,0.2,0.3,0.3,0.4,0.5c0.8,1,2.2,2.6,1.9,4.9c-0.3,2.2-1.9,3.5-2.9,4.2
						c-0.2,0.1-0.4,0.3-0.5,0.4L116.3,143z"/>
				</g>
			</g>
			<path class="st0" d="M181.8,145.2l-11.9-27l-2.5,2.2c-2-3.8-4.2-7.5-8-10.2c-2.6-1.9-5.2-3.5-7.9-4.8l0.9-1.9
				c-1.3-0.9-2.6-1.8-4-2.6c0.9-1.1,1.6-2.4,2.2-4.1l1.4-4l-4.1-1.1c-0.4-0.1-0.7-0.2-1.1-0.3c3.4-7.4,8.6-13,15.2-16.6l5.5-2.9
				l-5-3.8c-2.5-1.9-5-2.9-7.5-2.9l0.2-0.3l-5.2-1.3c-0.3-0.1-0.7-0.2-1.1-0.2c-0.6-0.1-1.2-0.3-1.6-0.4c-1.5-0.7-3-1-4.4-1
				c-0.4,0-0.9,0-1.3,0.1l0.1-0.6l-12-0.7l-0.1-0.7l-4.1,0.4l-0.1,0l-11.8,1.2l0,0.2c-0.2,0-0.4,0-0.6,0c-1.4,0-2.9,0.4-4.9,1
				l-5.2,2.4c0,0.1-0.1,0.1-0.1,0.2c-0.7-0.2-1.6-0.4-2.4-0.4c-2.9,0-5.4,1.7-7.5,3.4l-4.9,3.8l5.5,2.9c6.4,3.4,11.4,8.9,15,16.5
				c-0.4,0.1-0.9,0.2-1.3,0.4l-4.8,1.4l2.5,4.4c0.4,0.8,1,1.7,1.6,2.6c-8.1,4.7-14.2,12.3-16.9,21.7l1.6,0.8
				c-3.8,7.6-4.6,15.8-2.3,23.3c0.9,2.8,1.6,5,2.4,7c1.1,2.9,2.2,5.8,3.3,8.6c0.1,0.2,0.2,0.4,0.3,0.7l-1,0.7
				c-0.9,0.5-1.8,1-2.7,1.5c-2.7,1.6-5.6,3.2-8.3,4.9c-1.4,0.9-2.1,2.2-2.5,3c-0.1,0.1-0.1,0.2-0.2,0.3l-2.6,4.3l0.4,0.1l-0.1,0.1
				l2.2,6.9h2.9c0.3,0,0.6,0,0.9,0c0.4,0,0.7,0,1.1,0c0.5,0,1,0,1.5-0.1c2.4-0.2,4.7-0.4,7.1-0.6c4.5-0.4,9.2-0.8,13.8-1.1
				c4.7-0.3,6.5-3.2,7.3-5.6l0-0.1c2.7-1.1,4.5-3.2,5.8-6.4c6.3,9.7,18.9,22.4,28.7,28.9c2,1.4,4.2,2,6.4,2c2.4,0,4.7-0.8,7-2.4
				c0.3,0.1,0.5,0.2,0.8,0.4c0.5,0.2,1,0.4,1.6,0.7l5.4,2.5l0.3-5.9c0.1-2.1,0.2-4.2,0.3-6.3c0-0.2,0-0.4,0-0.5l0.1-1.7
				c0.2-4.3,0.4-8.5,0.6-12.7c0.1-2.6,0.6-4.7,1.7-6.8c2-3.9,3.9-7.8,5.8-11.6c0.6-1.3,1.3-2.7,1.9-4c0.3-0.6,0.5-1.2,0.7-1.7
				c0.1-0.2,0.2-0.4,0.2-0.6l1.7-4.3L181.8,145.2z"/>
		</g>
		<g>
			<g>
				<g>
					<g>
						<path class="st10" d="M99.6,167.1c2.8,0.1,5.5,0,8.3,0.1c2.2,0.1,4.4,0.6,6.5,0.9c-1.6-1-3.4-1.5-5.1-2
							c-3.7-1.1-7.3-2.7-10.8,0.5C97.9,167.2,99.6,167.1,99.6,167.1z M96.2,166.2c1.2-0.9,2.2-1.6,3.6-2.7c-1.6-4-3.2-8-4.7-12.1
							c-0.8-2.2-1.6-4.5-2.3-6.8c-4.9-15.8,7-31.4,17.9-36.2c16.4-7.3,31.9-5.5,46.4,4.9c4,2.9,6,7.2,8.4,11.9
							c-3.4,2.2-6.8,4.3-10.1,6.5c-5.6,3.7-11,3.7-17.1,0.8c-5.8-2.7-12.1-4.4-18.1-6.6c-4.4-1.6-9.2,0.3-11.4,4.5
							c-2.1,4.1-0.8,9.1,3.2,11.8c2.1,1.4,4.2,2.7,6.2,4c2.1,1.3,4.1,2.7,6.4,4.2c-2.5,5.9-5.2,11.6-7.4,17.6
							c-1.4,3.8-3.3,5.3-7.4,5.5c-7.9,0.3-15.8,1.3-23.7,2c-0.8,0.1-1.6-0.5-2.4-0.8c0.4-0.7,0.7-1.7,1.3-2
							C88.7,170.5,92.4,168.4,96.2,166.2L96.2,166.2z M146.5,109.6c-12.7-6.9-38.6-2.6-43.3,6.9
							C116.4,107.4,130.9,105.1,146.5,109.6z"/>
					</g>
					<g>
						<path class="st10" d="M175.4,140.6c-8.2-0.8-15.8-1.5-23.8-2.2c0.3,2.5,0.4,4.7,0.9,6.8c0.1,0.6,1.4,1.2,2.2,1.3
							c7.5,0.8,15,1.4,22.5,2.1c0.3,0,0.6,0.1,1.2,0.3c-0.3,0.8-0.5,1.4-0.8,2.1c-2.5,5.2-5,10.4-7.7,15.6c-1.4,2.7-2.1,5.5-2.2,8.5
							c-0.2,6.9-0.6,13.9-1,21.2c-1.7-0.8-3.2-1.4-4.6-2.1c-11.3-6.2-20.3-14.9-28.9-24.3c-2.3-2.5-4.4-5.2-6.7-7.7
							c-1-1.1-1.3-2.2-0.5-3.5c0.7-1.3,1.2-2.7,1.9-4c1.2-2.1,0.8-3.6-1.3-4.9c-4.5-2.8-8.9-5.7-13.3-8.6c-3.6-2.3-4.7-6.4-2.8-9.9
							c1.8-3.4,5.7-4.6,9.6-3.2c8.5,3.1,16.9,6.1,25.5,9c1,0.3,2.4,0.2,3.5-0.2c7.1-2.7,13.5-6.6,19.4-11.8
							C170.8,130.1,173,135.1,175.4,140.6z M116.7,138.9c2.3,0,4.2-2,4.1-4.3c-0.1-2.3-1.9-4-4.2-4c-2.3,0-4.2,1.9-4.1,4.3
							C112.6,137.1,114.5,138.9,116.7,138.9z M130.1,164.2c-4.1-3.5-1.1-6.5,0.3-9.7c0.2-0.4,0.5-0.8,0.5-1.1
							c-0.2-1.3-0.1-3-0.9-3.7c-1.9-1.6-4.3-2.6-6.4-3.8c0.4,0.9,1.1,1.3,1.8,1.8c6.6,4.2,5.7,2.9,2.9,9.4
							C126.5,161.1,126.4,161.1,130.1,164.2z M149,154.7c-1,1.6-1.7,2.6-2,3.6c-0.1,0.3,0.8,1,1.2,1.5c0.7-0.9,1.6-1.7,2.1-2.7
							C150.5,156.8,149.8,156,149,154.7z M156.4,159.1c-0.9-0.7-1.8-1.5-1.9-1.5c-0.8,0.8-1.6,1.6-2.1,2.6c-0.1,0.2,0.8,1,1.2,1.5
							C154.4,161,155.3,160.2,156.4,159.1z M159.7,158.6c-0.9,1.7-1.6,2.6-1.9,3.7c-0.1,0.3,0.8,1,1.2,1.5c0.7-0.9,1.5-1.8,2-2.8
							C161.2,160.6,160.5,159.9,159.7,158.6z M163.9,165.8c0.3,0.1,0.5,0.1,0.8,0.2c0.6-1,1.3-1.9,1.7-2.9c0.1-0.4-0.7-1-1-1.6
							c-0.7,0.8-1.7,1.4-2.1,2.3C163,164.3,163.6,165.1,163.9,165.8z M153.8,168.1c-0.9-1-1.5-1.7-2.1-2.3c-0.5,0.7-1.3,1.4-1.3,2
							c0.1,0.9,0.9,1.7,1.3,2.5C152.3,169.6,152.9,169,153.8,168.1z M164.5,172c-0.8-1-1.4-1.6-2-2.3c-0.5,0.7-1.4,1.5-1.4,2.2
							c0,0.8,0.9,1.6,1.4,2.3C163,173.5,163.6,172.9,164.5,172z M159,170.1c-0.7-1-1.2-1.7-1.8-2.4c-0.5,0.7-1.5,1.4-1.5,2.1
							c0.1,0.8,1,1.6,1.5,2.4C157.8,171.6,158.3,171,159,170.1z M160.9,151.8c-1.9-0.7-3.1-0.2-4,1.1c-0.2,0.3,0.1,1.3,0.4,1.4
							C159.1,154.7,160.2,153.7,160.9,151.8z M166.1,153.8c-1.6-0.9-2.8-0.4-3.8,0.9c-0.2,0.3,0.1,1,0.1,1.5
							c1.2-0.5,2.4-1.1,3.5-1.6C166.1,154.6,166.1,154.2,166.1,153.8z M162.7,178c-0.3,0.1-0.5,0.2-0.8,0.3c-1,2.1-0.3,3.4,2.9,4.6
							C164,180.9,163.3,179.5,162.7,178z M171.4,155.6c-1.7-0.6-2.9-0.2-3.8,1.3c-0.2,0.3,0.3,0.9,0.4,1.4c1.1-0.7,2.3-1.4,3.4-2.2
							C171.5,156.1,171.5,156,171.4,155.6z M157.4,176.1c-1.9,2.2-1.2,3.8,2,4.6C158.6,178.9,158,177.5,157.4,176.1z"/>
					</g>
					<g>
						<path d="M124,167.8c1-0.8,1.9-1.6,2.9-2.5c9.9,11.5,20.4,22.3,33.8,29.9c-3.1,2.3-6.1,2.5-9.1,0.5
							C142.4,189.6,130,177.2,124,167.8z"/>
					</g>
					<g>
						<path class="st10" d="M150.1,106.7c-27.6-8.5-42.2-4.2-56.6,16.2C100.2,99.8,128.5,91.2,150.1,106.7z"/>
					</g>
					<g>
						<path d="M177.8,146.7c-7.5-0.6-14.8-1.2-22.1-1.9c-2.9-0.3-1.2-2.7-2.4-4.4c5,0.4,9.3,0.8,13.7,1.2c1.9,0.2,3.8,0.5,5.7,0.5
							C175.7,142,177.3,143.4,177.8,146.7z M154.7,142.2c0.1,0.2,0.3,0.4,0.4,0.5c4.5,0,9,0,13.5,0c-4-0.5-8-0.9-12-1.2
							C155.9,141.4,155.3,141.9,154.7,142.2z"/>
					</g>
					<g>
						<path d="M82.8,179.1c1-0.6,2.1-1.5,3.1-1.7c8.2-0.8,16.4-1.5,24.6-2.2c0.1,0,0.3,0.1,0.4,0.2c-0.6,1.8-1.7,2.7-3.7,2.8
							c-7,0.5-14,1.1-20.9,1.7c-1.1,0.1-2.2,0-3.3,0C83,179.7,82.9,179.4,82.8,179.1z"/>
					</g>
					<g>
						<path class="st0" d="M146.5,109.6c-15.6-4.4-30-2.2-43.3,6.9C107.9,106.9,133.8,102.6,146.5,109.6z"/>
					</g>
					<g>
						<path class="st0" d="M116.7,138.9c-2.2,0-4.1-1.8-4.1-4c-0.1-2.4,1.8-4.3,4.1-4.3c2.3,0,4.1,1.8,4.2,4
							C120.9,136.9,119,138.9,116.7,138.9z M117.2,132c-0.4,0-0.7,0-1.1,0c-0.5,0.8-1.5,1.7-1.4,2.4c0.2,0.9,1.2,1.7,1.9,2.6
							c0.8-0.8,2.1-1.5,2.2-2.3C119,133.9,117.8,132.9,117.2,132z"/>
					</g>
					<g>
						<path d="M117.2,132c0.6,0.9,1.8,1.9,1.6,2.7c-0.1,0.9-1.4,1.6-2.2,2.3c-0.7-0.9-1.7-1.6-1.9-2.6c-0.1-0.7,0.9-1.6,1.4-2.4
							C116.5,132,116.9,132,117.2,132z"/>
					</g>
				</g>
				<g>
					<path class="st9" d="M114.7,81.3c-2.7-4.5-5.4-9.1-8.3-13.9c-0.2,0.3-0.1,0,0,0c8.7-2.3,7.8-3.4,11.9,5.5
						c1.1,2.4,1.6,5.1,2.3,7.7c0.3-0.1,0.6-0.1,0.9-0.2c-1-5-2-10-3.1-15.3c2.2-0.2,4.7-0.5,7.6-0.8c0.5,5.9,0.9,11.5,1.4,17.1
						c0.1,0,0.3,0,0.4,0c0.4-5.5,0.9-10.9,1.3-16.8c2.7,0.2,5.2,0.3,7.7,0.4c-1.1,5.3-2.1,10.4-3.2,15.6c0.3,0,0.5,0.1,0.8,0.1
						c1.2-3.5,2.4-7,3.7-10.5c1.3-3.6,3.5-5.6,7.6-3.8c1.1,0.5,2.4,0.6,3.3,0.9c-2.9,4.8-5.7,9.5-8.5,14.1c0.2,0.1,0.4,0.2,0.6,0.3
						c2.8-3.3,5.5-6.7,8.4-9.9c3-3.3,6.5-3.7,10.5-0.6c-8.4,4.5-13.9,11.3-17.4,19.2c-10.1,0-19.8,0-30.2,0
						c-3.5-7.5-8.8-14.6-17.1-19.1c4-3.1,5.8-3.4,9.1-0.4c3.5,3.2,6.4,6.9,9.5,10.4C114.3,81.4,114.5,81.4,114.7,81.3z"/>
				</g>
			</g>
			<g>
				<path class="st10" d="M146.9,95.5c-1.4,4.3-3.4,4.8-7.3,3.6c-6.9-2.2-14-2.5-22.8-0.8c-5,0.4-5.4,2.4-8.3-2.7
					C121.3,91.8,133.9,92,146.9,95.5z"/>
			</g>
		</g>
	</g>
	<rect x="70" y="16" class="st9" width="29" height="6"/>
	<rect x="99" y="16" class="st10" width="28" height="6"/>
	<rect x="70.5" y="16.5" class="st11" width="84" height="6"/>
	<g>
		<path d="M151,41l-4.9,10.2H136L153.9,16h12.6l18.4,35.2h-10.6L169,41H151z M167.3,36l-4.6-8.9c-1.1-2.1-2-4.2-2.9-6.1h-0.1
			c-0.8,1.9-1.6,4-2.6,6.1l-4.5,8.9H167.3z"/>
	</g>
</g>
</svg>
