<?xml version="1.0" encoding="utf-8"?>
<!-- Generator: Adobe Illustrator 17.0.0, SVG Export Plug-In . SVG Version: 6.00 Build 0)  -->
<!DOCTYPE svg PUBLIC "-//W3C//DTD SVG 1.1//EN" "http://www.w3.org/Graphics/SVG/1.1/DTD/svg11.dtd" [
	<!ENTITY ns_flows "http://ns.adobe.com/Flows/1.0/">
	<!ENTITY ns_extend "http://ns.adobe.com/Extensibility/1.0/">
	<!ENTITY ns_ai "http://ns.adobe.com/AdobeIllustrator/10.0/">
	<!ENTITY ns_graphs "http://ns.adobe.com/Graphs/1.0/">
]>
<svg version="1.1" id="Layer_2" xmlns:x="&ns_extend;" xmlns:i="&ns_ai;" xmlns:graph="&ns_graphs;"
	 xmlns="http://www.w3.org/2000/svg" xmlns:xlink="http://www.w3.org/1999/xlink" xmlns:a="http://ns.adobe.com/AdobeSVGViewerExtensions/3.0/"
	 x="0px" y="0px" width="256px" height="256px" viewBox="0 0 256 256" style="enable-background:new 0 0 256 256;"
	 xml:space="preserve">
<style type="text/css">
	.st0{fill:#FFFFFF;}
	.st1{fill:#54B948;}
	.st2{fill:#1D8C8E;}
	.st3{fill:#14DEAC;}
	.st4{fill:#1466AC;}
	.st5{fill:#757575;}
	.st6{fill:#B69442;}
	.st7{fill:#1A234D;}
	.st8{fill:#AA0629;}
	.st9{fill:#FF4A49;}
	.st10{fill:#3C6643;}
	.st11{fill:none;stroke:#FF4A49;stroke-miterlimit:10;}
	.st12{fill:#E70084;}
	.st13{fill:#508A72;}
	.st14{fill:#01A663;}
	.st15{fill:#015297;}
	.st16{fill:#B0B0B0;}
	.st17{fill:#E1062F;}
	.st18{fill:#D80000;stroke:#FFFFFF;stroke-width:2;stroke-miterlimit:10;}
	.st19{fill:#D80000;}
	.st20{fill:#8ABE23;}
	.st21{fill:#1D1D1B;}
	.st22{fill:#FEFEFE;}
	.st23{fill:#FF0000;}
	.st24{fill:#FF1D1B;}
	.st25{fill:#6DB2DE;}
	.st26{fill:#FF1D25;}
	.st27{fill:#FFDA00;}
	.st28{fill:#024D9E;}
	.st29{fill:#6B97C6;}
	.st30{fill:#000078;}
	.st31{fill:none;stroke:#FFFFFF;stroke-width:6;stroke-linecap:round;stroke-miterlimit:10;}
	.st32{fill:#FFEE34;}
	.st33{fill:none;stroke:#000000;stroke-width:4;stroke-miterlimit:10;}
	.st34{fill:#D11E24;}
	.st35{fill:#D71F26;}
	.st36{fill:#020000;}
	.st37{fill:none;stroke:#000000;stroke-width:2;stroke-miterlimit:10;}
	.st38{clip-path:url(#SVGID_2_);}
	.st39{fill:#00317D;}
	.st40{fill:#00737D;}
	.st41{fill:#ED1C24;}
	.st42{fill:#2678C7;}
	.st43{fill:#1853A6;}
	.st44{fill:#CB0000;}
	.st45{fill:#E61C21;}
	.st46{clip-path:url(#SVGID_4_);}
	.st47{fill:#6BDEF1;}
	.st48{clip-path:url(#SVGID_6_);}
	.st49{fill:#0165B2;}
	.st50{fill:#DE1134;}
	.st51{fill:#00A668;}
	.st52{fill:#FFE60B;}
	.st53{fill:#843D00;stroke:#000000;stroke-miterlimit:10;}
	.st54{fill:#EC1F27;}
	.st55{fill:#162984;}
	.st56{fill:#1853A6;stroke:#1853A6;stroke-miterlimit:10;}
	.st57{fill:none;}
	.st58{fill:none;stroke:#1853A6;stroke-width:0.9;stroke-miterlimit:10;}
	.st59{fill:#1853A6;stroke:#1853A6;stroke-width:0.9;stroke-miterlimit:10;}
	.st60{fill:#B5985A;}
	.st61{fill:#FFE60B;stroke:#000000;stroke-width:6;stroke-miterlimit:10;}
	.st62{fill:#008DCD;}
	.st63{fill:#009939;}
	.st64{fill:#2E3092;}
	.st65{fill:#EE3224;}
	.st66{fill:#005BAB;}
	.st67{fill:#D30027;}
	.st68{fill:#FFFFFF;stroke:#D30027;stroke-width:10;stroke-miterlimit:10;}
	.st69{fill:#E81C2F;}
	.st70{fill:#DC032B;}
	.st71{fill:#F25448;}
	.st72{fill:#FFFFFF;stroke:#F25448;stroke-width:6;stroke-miterlimit:10;}
	.st73{fill:#05A08D;}
	.st74{fill:#1875CE;}
	.st75{fill:#D72427;}
	.st76{fill:#004993;}
	.st77{fill:#007BB0;}
	.st78{fill:#FFEB00;}
	.st79{fill:#664A9E;}
	.st80{fill:#F4C701;}
	.st81{fill:#EBBE12;}
	.st82{fill:#44B3DB;}
	.st83{fill:#F6FF82;}
	.st84{fill:#FFC918;}
	.st85{fill:#0361A4;}
	.st86{fill:#009FE3;}
	.st87{fill:#E30217;}
	.st88{fill:#FDEA00;}
	.st89{fill:#E91B00;}
	.st90{fill:#2B2763;}
	.st91{fill:#EE1A22;}
	.st92{fill:#F1AA25;}
	.st93{fill:#93000C;}
	.st94{fill:none;stroke:#1D1D1B;stroke-width:4;}
	.st95{fill:#3E4E70;}
	.st96{fill:#096CB6;}
	.st97{fill:#0559A8;}
	.st98{fill:#F9ED1A;}
	.st99{fill:#949494;}
	.st100{fill:#FFD033;}
	.st101{fill:#243D89;}
	.st102{fill:#F8C936;}
	.st103{fill:#D44128;}
	.st104{fill:#ED1B23;}
	.st105{fill:#0C529C;}
	.st106{fill:#E31E24;}
	.st107{fill:#0263B0;}
	.st108{fill:#007AC2;}
	.st109{fill:#EF3D1F;}
	.st110{fill:#EE1C24;}
	.st111{fill:#FDEA00;stroke:#000000;stroke-width:0.6509;}
	.st112{fill:#FDEA00;stroke:#000000;stroke-width:0.6979;}
	.st113{fill:#46A0BE;}
	.st114{fill:#005FA5;}
	.st115{fill:#00904C;}
	.st116{fill:#E21F26;}
	.st117{fill:#FD0001;}
	.st118{fill:#0066B3;}
	.st119{fill:#E20019;}
	.st120{fill:#0171BC;}
	.st121{fill:#01305D;}
	.st122{fill:#1B7EE9;}
	.st123{fill:#BA0D0B;}
	.st124{fill:none;stroke:#000000;stroke-width:3;stroke-miterlimit:10;}
	.st125{fill:#FFFFFF;stroke:#000000;stroke-width:0.8836;stroke-miterlimit:10;}
	.st126{fill:#FFFFFF;stroke:#000000;stroke-width:0.9759;stroke-miterlimit:10;}
	.st127{fill:#0053A1;}
	.st128{fill:#FFE100;}
	.st129{fill:#FFE500;}
	.st130{fill:none;stroke:#FFE500;stroke-width:2;stroke-miterlimit:10;}
	.st131{fill:#01AFF3;}
	.st132{fill:#ED1B28;}
	.st133{fill:#E2000A;}
</style>
<g>
	<circle class="st0" cx="128" cy="128" r="127"/>
	<path class="st1" d="M128,1C57.9,1,1,57.9,1,128c0,40.6,19.1,76.8,48.7,100c2.9-6.3,6.1-12.5,9.6-18.6
		c10.6-18.4,23.4-35.2,37.3-51.2c7.9-9.1,16.1-17.9,24.6-26.5c0.1-0.1,0.1-0.2,0.4-0.7c-3.2,2-5.7,4.1-8.2,6.3
		c-3.1,2.8-5.5,6.1-8,9.3c-7.1,8.9-15.1,16.8-25.8,21.5c-9.3,4.1-18.7,4.1-27.9-0.3c-13.5-6.5-16.2-22.9-5.7-33.6
		c2.3-2.4,5-4.3,7.9-5.9c0.4-0.2,0.9-0.5,1.5-0.8c-3.4-1.5-6.5-3.3-9.3-5.6c-9.1-8-10.3-21.2-2.5-30c4.6-5.1,10.6-7.4,17.2-8.3
		c9.7-1.3,18.2,1.9,26.1,7.1c7.5,4.9,13.7,11.1,19.7,17.6c5.5,5.9,12.3,10.2,19.5,13.9c0.2,0.1,0.5,0.4,1,0.1
		c-1.2-2.4-2.7-4.7-4.2-6.9c-3.7-5.3-8-9.8-13.2-13.7c-8.7-6.5-16.3-14-21.5-23.6c-5.5-10-6.4-20.3-1.7-30.8
		c6.5-14.4,23.7-17.1,34.6-5.6c2.4,2.5,4.3,5.4,5.8,8.5c0.6-0.2,0.6-0.8,0.8-1.3c2.9-6.3,7.1-11.3,13.7-14
		c9.5-3.9,20.3-0.3,25.5,8.7c5.6,9.8,5.8,20,1.4,30.3c-3.6,8.4-9.4,15.4-15.8,21.8c-4,4.1-8.4,7.7-11.9,12.3
		c-3,4.1-5.8,8.4-8.1,12.9c-0.2,0.3-0.5,0.7-0.3,1.4c1.8-1.1,3.5-2,5.1-3.1c6.3-4.1,11.7-9.3,16.2-15.3c6.5-8.7,14.2-16.2,24.1-21.2
		c9.9-5,20-5.6,30.1-0.8c13.6,6.4,16.3,22.8,5.8,33.6c-2.7,2.8-5.8,4.9-9.4,6.7c1.7,0.9,3.3,1.6,4.7,2.5
		c7.7,4.7,12.5,11.3,12.1,20.7c-0.4,9-5.4,15-13.4,18.4c-9.5,4.1-19,3.6-28.3-0.9c-8.2-3.9-15.2-9.6-21.4-16.1
		c-5.1-5.3-10.1-10.6-16.5-14.5c-2.9-1.8-5.8-3.6-9.2-5.1c1.1,2.6,2.6,4.7,4,6.8c3.9,5.7,8.6,10.5,14.1,14.7
		c9.1,6.9,17.1,15,22.1,25.5c4.5,9.6,4.8,19.3,0.2,28.9c-6.9,14.4-24.4,16.6-35.4,4c-1.9-2.2-3.5-4.7-5-7.7c-1.3,3.1-2.7,5.7-4.6,8
		c-4.5,5.6-10.3,9.1-17.6,9c-8.5-0.1-14.8-4.3-18.6-11.9c-5.2-10.5-4.6-21,0.8-31.3c4.5-8.7,10.8-16,18-22.5
		c5.5-5,10.1-10.7,13.8-17c0.2-0.3,0.3-0.5,0.5-1c-0.7,0.2-0.9,0.5-1.2,0.8c-15.6,17.1-30.5,34.9-43.4,54.1
		c-9.6,14.3-18,29.2-24.4,45.1c20.5,14.1,45.3,22.4,72,22.4c70.1,0,127-56.9,127-127S198.1,1,128,1z"/>
</g>
</svg>
