<?xml version="1.0" encoding="utf-8"?>
<!-- Generator: Adobe Illustrator 17.0.0, SVG Export Plug-In . SVG Version: 6.00 Build 0)  -->
<!DOCTYPE svg PUBLIC "-//W3C//DTD SVG 1.1//EN" "http://www.w3.org/Graphics/SVG/1.1/DTD/svg11.dtd" [
	<!ENTITY ns_flows "http://ns.adobe.com/Flows/1.0/">
	<!ENTITY ns_extend "http://ns.adobe.com/Extensibility/1.0/">
	<!ENTITY ns_ai "http://ns.adobe.com/AdobeIllustrator/10.0/">
	<!ENTITY ns_graphs "http://ns.adobe.com/Graphs/1.0/">
]>
<svg version="1.1" id="Layer_2" xmlns:x="&ns_extend;" xmlns:i="&ns_ai;" xmlns:graph="&ns_graphs;"
	 xmlns="http://www.w3.org/2000/svg" xmlns:xlink="http://www.w3.org/1999/xlink" xmlns:a="http://ns.adobe.com/AdobeSVGViewerExtensions/3.0/"
	 x="0px" y="0px" width="256px" height="256px" viewBox="0 0 256 256" style="enable-background:new 0 0 256 256;"
	 xml:space="preserve">
<style type="text/css">
	.st0{fill:#FFFFFF;}
	.st1{fill:#54B948;}
	.st2{fill:#1D8C8E;}
	.st3{fill:#14DEAC;}
	.st4{fill:#1466AC;}
	.st5{fill:#757575;}
	.st6{fill:#B69442;}
	.st7{fill:#1A234D;}
	.st8{fill:#AA0629;}
	.st9{fill:#FF4A49;}
	.st10{fill:#3C6643;}
	.st11{fill:none;stroke:#FF4A49;stroke-miterlimit:10;}
	.st12{fill:#E70084;}
	.st13{fill:#508A72;}
	.st14{fill:#01A663;}
	.st15{fill:#015297;}
	.st16{fill:#B0B0B0;}
	.st17{fill:#E1062F;}
	.st18{fill:#D80000;stroke:#FFFFFF;stroke-width:2;stroke-miterlimit:10;}
	.st19{fill:#D80000;}
	.st20{fill:#8ABE23;}
	.st21{fill:#1D1D1B;}
	.st22{fill:#FEFEFE;}
	.st23{fill:#FF0000;}
	.st24{fill:#FF1D1B;}
	.st25{fill:#6DB2DE;}
	.st26{fill:#FF1D25;}
	.st27{fill:#FFDA00;}
	.st28{fill:#024D9E;}
	.st29{fill:#6B97C6;}
	.st30{fill:#000078;}
	.st31{fill:none;stroke:#FFFFFF;stroke-width:6;stroke-linecap:round;stroke-miterlimit:10;}
	.st32{fill:#FFEE34;}
	.st33{fill:none;stroke:#000000;stroke-width:4;stroke-miterlimit:10;}
	.st34{fill:#D11E24;}
	.st35{fill:#D71F26;}
	.st36{fill:#020000;}
	.st37{fill:none;stroke:#000000;stroke-width:2;stroke-miterlimit:10;}
	.st38{clip-path:url(#SVGID_2_);}
	.st39{fill:#00317D;}
	.st40{fill:#00737D;}
	.st41{fill:#ED1C24;}
	.st42{fill:#2678C7;}
	.st43{fill:#1853A6;}
	.st44{fill:#CB0000;}
	.st45{fill:#E61C21;}
	.st46{clip-path:url(#SVGID_4_);}
	.st47{fill:#6BDEF1;}
	.st48{clip-path:url(#SVGID_6_);}
	.st49{fill:#0165B2;}
	.st50{fill:#DE1134;}
	.st51{fill:#00A668;}
	.st52{fill:#FFE60B;}
	.st53{fill:#843D00;stroke:#000000;stroke-miterlimit:10;}
	.st54{fill:#EC1F27;}
	.st55{fill:#162984;}
	.st56{fill:#1853A6;stroke:#1853A6;stroke-miterlimit:10;}
	.st57{fill:none;}
	.st58{fill:none;stroke:#1853A6;stroke-width:0.9;stroke-miterlimit:10;}
	.st59{fill:#1853A6;stroke:#1853A6;stroke-width:0.9;stroke-miterlimit:10;}
	.st60{fill:#B5985A;}
	.st61{fill:#FFE60B;stroke:#000000;stroke-width:6;stroke-miterlimit:10;}
	.st62{fill:#008DCD;}
	.st63{fill:#009939;}
	.st64{fill:#2E3092;}
	.st65{fill:#EE3224;}
	.st66{fill:#005BAB;}
	.st67{fill:#D30027;}
	.st68{fill:#FFFFFF;stroke:#D30027;stroke-width:10;stroke-miterlimit:10;}
	.st69{fill:#E81C2F;}
	.st70{fill:#DC032B;}
	.st71{fill:#F25448;}
	.st72{fill:#FFFFFF;stroke:#F25448;stroke-width:6;stroke-miterlimit:10;}
	.st73{fill:#05A08D;}
	.st74{fill:#1875CE;}
	.st75{fill:#D72427;}
	.st76{fill:#004993;}
	.st77{fill:#007BB0;}
	.st78{fill:#FFEB00;}
	.st79{fill:#664A9E;}
	.st80{fill:#F4C701;}
	.st81{fill:#EBBE12;}
	.st82{fill:#44B3DB;}
	.st83{fill:#F6FF82;}
	.st84{fill:#FFC918;}
	.st85{fill:#0361A4;}
	.st86{fill:#009FE3;}
	.st87{fill:#E30217;}
	.st88{fill:#FDEA00;}
	.st89{fill:#E91B00;}
	.st90{fill:#2B2763;}
	.st91{fill:#EE1A22;}
	.st92{fill:#F1AA25;}
	.st93{fill:#93000C;}
	.st94{fill:none;stroke:#1D1D1B;stroke-width:4;}
	.st95{fill:#3E4E70;}
	.st96{fill:#096CB6;}
	.st97{fill:#0559A8;}
	.st98{fill:#F9ED1A;}
	.st99{fill:#949494;}
	.st100{fill:#FFD033;}
	.st101{fill:#243D89;}
	.st102{fill:#F8C936;}
	.st103{fill:#D44128;}
	.st104{fill:#ED1B23;}
	.st105{fill:#0C529C;}
	.st106{fill:#E31E24;}
	.st107{fill:#0263B0;}
	.st108{fill:#007AC2;}
	.st109{fill:#EF3D1F;}
	.st110{fill:#EE1C24;}
	.st111{fill:#FDEA00;stroke:#000000;stroke-width:0.6509;}
	.st112{fill:#FDEA00;stroke:#000000;stroke-width:0.6979;}
	.st113{fill:#46A0BE;}
	.st114{fill:#005FA5;}
	.st115{fill:#00904C;}
	.st116{fill:#E21F26;}
	.st117{fill:#FD0001;}
	.st118{fill:#0066B3;}
	.st119{fill:#E20019;}
	.st120{fill:#0171BC;}
	.st121{fill:#01305D;}
	.st122{fill:#1B7EE9;}
	.st123{fill:#BA0D0B;}
	.st124{fill:none;stroke:#000000;stroke-width:3;stroke-miterlimit:10;}
	.st125{fill:#FFFFFF;stroke:#000000;stroke-width:0.8836;stroke-miterlimit:10;}
	.st126{fill:#FFFFFF;stroke:#000000;stroke-width:0.9759;stroke-miterlimit:10;}
	.st127{fill:#0053A1;}
	.st128{fill:#FFE100;}
	.st129{fill:#FFE500;}
	.st130{fill:none;stroke:#FFE500;stroke-width:2;stroke-miterlimit:10;}
	.st131{fill:#01AFF3;}
	.st132{fill:#ED1B28;}
	.st133{fill:#E2000A;}
</style>
<g>
	<g>
		<path class="st0" d="M127,252C58.6,252,3,196.4,3,128S58.6,4,127,4s124,55.6,124,124S195.4,252,127,252z"/>
		<path d="M127,6c32.6,0,63.2,12.7,86.3,35.7c23,23,35.7,53.7,35.7,86.3s-12.7,63.2-35.7,86.3S159.6,250,127,250
			s-63.2-12.7-86.3-35.7C17.7,191.2,5,160.6,5,128s12.7-63.2,35.7-86.3C63.8,18.7,94.4,6,127,6 M127,2C57.4,2,1,58.4,1,128
			s56.4,126,126,126s126-56.4,126-126S196.6,2,127,2L127,2z"/>
	</g>
	<g>
		<path class="st35" d="M238.6,127C238.3,66,189,16.2,128,15.4V127H238.6z"/>
		<path class="st0" d="M128,15.4c0,0-0.7,0.2-1.2,0.2C65.4,15.6,15.7,65,15.4,127H128V15.4z"/>
		<path class="st36" d="M128,127v111.6c61-0.8,110.4-50.3,110.4-111.3c0-0.2,0.2-0.2,0.2-0.2H128z"/>
		<path class="st35" d="M15.4,127c0,0,0,0.1,0,0.2c0,61.5,49.8,111.5,111.3,111.5c0.5,0,1.2-0.1,1.2-0.1V127H15.4z"/>
	</g>
	<path class="st37" d="M127,239.6c-61.5,0-111.6-50.1-111.6-111.6S65.5,16.4,127,16.4S238.6,66.5,238.6,128S188.5,239.6,127,239.6z"
		/>
	<g>
		<path class="st0" d="M78,163.4c2.2,4.2,2.6,9.8,2,14.1c-0.8,5.3-2.5,9.1-5.6,11c-2.4,1.5-5.7,1.2-8.3-2.2
			c-2.7-3.5-3.7-9.2-3.5-13.4c0.1-4.3,1.4-9.3,4.4-12.4c1.1-1,2.1-1.6,3.1-1.9C72.3,157.9,75.6,158.9,78,163.4z M68.8,180.9
			c1.1,1.7,2.5,2,3.6,1.4c1.5-0.8,2.4-2.9,2.8-5.5c0.4-2.6,0.2-7.3-1.1-9.8c-1.2-2.2-2.6-2.2-3.7-1.7c-1.8,0.8-2.6,3.2-3,5.9
			C67.1,174.1,67.4,178.6,68.8,180.9z"/>
		<path class="st0" d="M98,158.8v0.6c-0.3,0-0.7,0.2-0.7,1.1v1.6v15.9H99c0.1,0,0.6,0,0.8,0c0.3-0.3,0.3-0.9,0.3-1.3l0.3,0.1v8.3
			h-0.3l-0.5-1.3h-2.2v2.6c0,0.2,0,1.2,0.1,1.3c0.2,0.6,0.3,0.5,0.7,0.7l0,0.8h-5.7v-0.8c0.4-0.3,0.4,0,0.6-0.7c0.1-0.2,0-1.1,0-1.3
			l-0.1-2.6h-9.4l-0.6,1.5c-0.2-0.3-0.1-0.7-0.1-1.1V178l7.5-16.8c0.1-0.3,0.2-0.6,0.3-0.8c0.1-0.2,0.2-0.3,0.1-0.7h-0.5v-1H98z
			 M93,178v-13.2L86.8,178H93z"/>
	</g>
	<path class="st0" d="M131.5,170.1c0.5,1.4,1.9,0.9,2.5,2c-0.9,1.3-3,2-2.7,4.1c1.8,0.7,2.4-1.9,4.3-1.3c-0.4,1.7-2.8,3-0.9,5
		c1.1-0.2,1.2-1.2,1.6-1.9c1.1-1.9,2.3-2.4,3.6-0.1c0.2,0.4,0.6,0.7,0.9,1c0.6,0.6,1.3,1.1,2,0.5c0.7-0.6,0-1.2-0.3-1.7
		c-1.3-1.9-0.5-3.2,1.4-3.2c5.5-0.1,10.9-0.5,15.8-3.9c0.2,2.3-3,2.1-2.2,3.9c0.6,1.3,2.3,2,3.2,3.7c-1.9-0.5-3.6-1.3-5.1,0.3
		c-1.3,1.4-1.5,3.2-1.7,4.9c-0.3,3.2,0.6,6.1,1.8,9c1.8,4.3-1.5,9.4-6.2,8.9c-4.5-0.4-2.7,3.5-4.9,5.7c2.6-0.8,3.8-0.6,3,1.7
		c-0.1,0.3,0.3,0.9,0.6,1c0.5,0.3,0.8-0.2,1-0.6c0.3-0.4,0.5-0.7,0.8-1.1c0.9-1.1,2.1-2,3.4-1.5c1.4,0.6-0.2,2,0.6,3.2
		c1.8-0.6,2.5-2.2,2.7-3.9c0.4-2.6,0.3-5.1,3.6-6.1c0.9-0.3,1.7-2.4,3.6-2.5c-3.3-5.8-3-7.3,3-14.2c-2.7,8.4,2.4,11.9,8,15.1
		c2.6,1.5,4.1,5.7,3,8.3c-0.7,1.8-1.9,0.9-3,0.7c-4.6-0.9-4.5-1.1-5.7,3.6c-0.1,0.6-0.3,1.3,0.5,1.2c1.8-0.3,1.8,0.5,1.4,1.8
		c-0.1,0.5-0.1,1.2,0.7,1.3c0.3,0,0.7-0.3,1-0.6c0.2-0.2,0.4-0.5,0.6-0.8c0.8-1.2,1.9-2,3.4-1.6c1.5,0.5-0.1,2,1.3,3.7
		c3.6-6.2,3.8-13,6-19.3c-1.5-0.4-3-0.4-4.3-1.3c-3.2-2.2-3.4-6.1-0.4-8.4c1.8-1.4,2.4,0.5,3,1.4c1.7,2.8,3.6,5.7,4.8,8.7
		c1.4,3.5,3.8,3.7,6.5,4.1c4,0.6,7.3-1.5,10.6-3.1c2.1-1,2.8-8.3,1.7-10.8c-0.8-2-2.1-3.6-3.5-5.2c-0.8-0.9-2.6-1.6-0.7-3.3
		c0.7-0.6-0.4-1.1-0.9-1.3c-1.4-0.6-2.4-2.3-4-2c-0.9,0.2-0.5,1.5-0.4,2.4c0.3,1.7,0.3,3.5,1.4,5.1c2-2.3,2-2.4,3.6,0
		c0.9,1.3,1.9,2.5,1.8,4.4c-0.2,3.5,0.6,7.2-4,8.8c-2.8,1-4.9,0.5-6.4-1.8c-1.3-1.9-3.3-4.4-3-6.1c0.8-3.8-2.2-4.6-3.7-6.7
		c-1.8-2.5-3.9-4.8-6.4-6.7c-0.6-0.5-1.3-0.8-1.7-2.1c3.3-0.2,5.5,1.9,8.7,3.5c-1.1-1.9-1.9-3.3-2.7-4.6c0.3-0.1,0.6-0.3,0.6-0.3
		c2,2.4,3.6,2.5,5.7-0.2c1.6-2.1,4.6-1.7,7.5-2.4c-2.4-3-5.9-4.1-8.1-7c2.1,1,4.3,1.9,6.8,3.1c-0.1-4.2,1.6-7.2,5.2-9.3
		c1.6-0.9,0.2-1.5-0.7-1.9c-2.7-1.1-5.5-2.1-8.1-3.4c2.3-0.2,4.5,0.4,6.7,1c0.8,0.2,1.9,0.4,1.5-0.8c-1.5-5.7,1.1-9.8,5.6-13.8
		c-10-1.3-17.5,2.6-24.8,7.7c3.2-5.7,10.6-5.6,14.2-11c-7.8-0.3-18.7,7.8-20.6,14.7c-0.4,1.5,0,2.8,0.4,4.2c1.4,5.1-1,7.5-6.2,6.2
		c3-4.2,5.1-8.6,3.6-13.9c-0.4-1.5,0.7-1.5,1.4-1.6c2.1-0.4,2.7-1.6,3.1-3.6c0.5-2.6,3.7-4,3.8-7.3c-2.8,0.9-5.3,2.2-8,3
		c-2.5,0.7-4.7,0.5-7.2,0.1c-2.3-0.3-5.4-0.1-7.6,1.7c-2.6,2.2-5.7,2.5-8.7,1.7c-1.9-0.5-3-1.4-3.4,1.5c-0.4,2.6,0.5,3.9,2.9,4.1
		c1.7,0.2,3.5-0.1,5.3-0.2c1.2,0,2.4-0.2,3.5,1.8c-3.2,0-6,0.4-8.7-0.1c-2.2-0.4-2.7,0.4-3.3,2c-0.5,1.2-0.8,1.9,1.2,1.9
		c3.1,0,6.1,0.2,9.1-1c1.4-0.6,3.4-0.8,4.3,0.6c1,1.5-0.1,3.1-1.2,4.4c-1.4,1.7-2.9,3.4-4,5.2c-1.7,2.8-2.9,1.4-3.4-0.5
		c-0.5-1.6-0.7-1.9-2-0.9c-0.2,0.2-0.9,0-0.9,0c-0.4-3-3.7-2-5.2-3.7c-0.8-0.9-1.2-1.7-1.4-2.8c-0.4-2.1-1.1-4.1-3.5-4.8
		c-1.1,0.9,0.4,1.9-0.2,2.9c-1.6,0.1-3.4-1.1-4.9,0.4c0.6,1.7,2.8,0.8,3.5,2.2c-0.1,0.8-0.8,0.5-1.3,0.6c-1.2,0.2-3,0.3-2.9,1.6
		c0.1,1.7,1.8,0.5,2.7,0.5c2,0,2.6,0.8,1.9,2.7c-0.5,1.2-0.7,2.6,0.4,3.7c3.2-4.3,3.2-4.3,6.9,0.2c1.3,1.6,2.6,3.3,4.4,4.5
		c0.5,0.4,1.3,0.7,0.9,1.5c-0.4,0.8-1.3,1.2-1.9,0.7c-1.5-1.1-2-0.7-2.1,1c0,0.2-0.4,0.5-0.4,0.5c-2-1.7-2.8,1-4.4,1.3
		c-2.3,0.4-4.3,0.3-6.4-0.8C134.4,169,132.9,168.7,131.5,170.1z"/>
	<g>
		<path d="M59.5,87.2L57.3,95l-0.3-0.2c-0.1-1.2,0-1.3-0.7-1.8c-0.2-0.1-0.5-0.3-1.2-0.7c-0.9-0.5-1.6-0.7-2.5-0.9
			c-1.1-0.3-4.9-1-6,1.4c-0.3,0.6-0.4,1.2-0.2,1.7c0.4,1.3,2.8,1.7,3.2,1.8l3.6,0.8c2.1,0.5,5.5,0.9,6.4,6c0.5,2.6,0.3,6.3-1.2,9.2
			c-3.8,6.7-11.8,4.1-15.7,1.9l-0.8-0.3l-0.5,0.9l-0.3-0.2l2.4-10.2l0.3,0.3c-0.1,1.2-0.2,1.5,0.6,2.6c1.8,2.3,6.6,3.3,9.1,2.1
			c0.8-0.4,1.6-1,1.8-2.2c0.1-0.6,0.1-1.2-0.1-1.7c-0.5-1.2-3-1.4-3.2-1.5l-3-0.5c-1.3-0.2-5.8-0.8-6.9-5.8
			c-0.5-2.3-0.3-5.5,0.9-7.8c3.2-6.4,10-4.2,13.2-2.8l1.4,0.7c0.1,0.1,0.6,0.2,0.8,0.2h0.2l0.2-0.2c0.2-0.3,0.2-0.4,0.4-0.6
			L59.5,87.2z"/>
		<path d="M81.9,87.6l0.3,0.2L79.3,97L79,96.7v-0.9c-2.2-2.9-6-3.3-8.3-1.9c-1.6,1.1-2.6,2.5-3,5.4c-0.2,1.7,0,4.3,1,6.3
			c1.7,3.3,5,3.5,6.7,3c0.3-0.1,1.1-0.4,2-0.9c0.3-0.2,0.8-0.4,1.1-0.8c0.5-0.6,0.6-0.6,0.6-1.6L79,105l0.3-0.4l3.3,9l-0.3,0.3
			c-0.5-0.9-0.5-0.5-1.2-0.1l-0.5,0.3c-4.1,2.6-10.4,3.6-14.3-0.9c-2.7-3.2-3.8-7.4-3.8-11.6c-0.1-3.8,0.6-8.3,3.3-11.9
			c4.2-5.6,9.6-4.3,13.9-2.1l1.7,0.7L81.9,87.6z"/>
		<path d="M91.9,85.9v0.7c-0.2,0-0.6,0.1-0.8,0.8C91,87.5,91,88.8,91,89v3.3v4.6h8.5v-9.6l-0.9-0.6v-0.7h6.7v0.5l-0.9,0.6
			c-0.1,0.6-0.1,1-0.1,1.7v24.5c0,0.3,0.1,1.2,0.2,1.4c0.2,0.9,0.5,0.5,0.8,0.7v0.8h-6.6v-0.8c0.3-0.1,0.6,0.1,0.8-0.8
			c0.1-0.2,0.1-1.3,0.1-1.6v-0.8c0-0.7-0.1-1.4-0.1-2.1v-6.5h-8.4v6.4c0,0.5,0,1,0,1.6v1.7c0,0.3,0,1.3,0.1,1.6
			c0.3,0.8,0.6,0.5,0.9,0.6l0,0.8h-6.7l0.1-0.8c0.2,0,0.7-0.1,0.8-0.8V113v-0.9c0-0.3,0-0.6,0-0.9V87.3l-1-0.7l0.1-0.7H91.9z"/>
		<path d="M122.6,86l0,0.8l-0.5,0.3c-0.1,0.4,0,1.1,0.2,1.4l5.7,25.3l0.3,1.2c0.2,0.6,0.3,0.6,0.6,0.8l0,0.5h-5.7l-0.4,0.1
			c-0.2,0-0.3,0.1-0.3-0.4l0.6-0.8v-0.2v-0.2l0-0.2l-0.1-0.3l-0.9-4.4h-7.7l-0.3,1.2c-0.1,0.2-0.2,0.8-0.2,1.1l-0.3,1.1
			c-0.1,0.4-0.2,0.8-0.2,1.2c-0.1,0.5-0.3,0.7,0,1.1l0.4,0.2l-0.1,0.5H108v-0.7c0.2-0.1,0.4-0.1,0.6-0.6l0.1-0.3l0.1-0.3
			c0-0.1,0.1-0.3,0.2-0.7l5.5-25.1c0-0.2,0.1-0.5,0.1-0.8l0.1-0.3l0-0.2l0-0.2h-0.6V86H122.6z M121.1,104.9L118,91.6l-2.9,13.3
			H121.1z"/>
		<path d="M139,86v0.6l-0.9,0.6v0.5l7.9,15.1V87.3l-0.7-0.8l0.1-0.6h5.7l-0.1,0.7c-0.2,0-0.5,0.2-0.6,0.9v1.3v24.5
			c0,0.2,0,1.1,0.1,1.3c0.1,0.7,0.3,0.6,0.6,0.8l0,0.8h-5.9v-0.8l0.7-0.3v-0.5l-9.4-18v18.4l0.8,0.5v0.7h-5.7l0-0.8
			c0.4,0,0.6-0.2,0.6-0.9c0.1-0.3,0-1.1,0-1.5V89c0-0.3,0-0.9,0-1.4c-0.2-0.8-0.2-0.6-0.7-0.9V86H139z"/>
		<path d="M154.8,84.5c0,0.5,0,1,0.4,1.4c0.1,0.1,0.8,0.1,0.9,0.1h15.3v0.6l-9.2,22.6h7.6c0.1,0,0.7,0.1,0.8,0
			c0.5,0,0.4-0.8,0.5-1.2l0.4,0.1v9.5l-0.4,0c0-0.4,0.1-0.9-0.4-1.2c-0.1-0.1-0.7-0.1-0.9-0.1h-16v-0.8l9.2-22.6h-6.8
			c-0.1,0.1-0.7,0-0.8,0.1c-0.4,0.2-0.5,0.4-0.5,1.2l-0.4-0.1v-9.5H154.8z"/>
		<path d="M191.2,84.3v9.9l-0.4,0c0-0.5-0.2-1.2-0.6-1.4c-0.2-0.2-0.7-0.1-0.9-0.1h-9.4v4.8h3.9c0.3,0,0.6,0,0.9,0h0.6
			c0.2,0,0.7,0,0.9-0.1c0.4-0.2,0.5-0.4,0.6-1.2h0.3v9h-0.3c-0.2-0.5-0.1-0.9-0.5-1.3c-0.1-0.1-0.7-0.1-0.9-0.1c-0.1,0-0.6,0-0.8,0
			h-0.8h-3.9v5.4h9.5c1.1,0,1,0.3,1.5-1.7l0.3,0.1v9.9l-0.4-0.2c0-0.5-0.2-1.1-0.6-1.1c-0.2-0.1-0.6,0.1-0.9,0.1h-15.2v-0.7
			c0.3-0.1,0.6,0.1,0.7-0.7c0.1-0.2,0-1.3,0-1.5V87.1l-0.8-0.5v-0.8h15.4c0.1,0,0.8,0.1,0.9,0c0.6-0.4,0.4-0.9,0.5-1.5L191.2,84.3z"
			/>
		<path d="M205.3,85.8c1.3,0,5-0.3,6.6,3.9c1,2.8,1.1,6.8,0.4,9.5c-0.8,3.2-2.4,4.3-4.2,5.5l3.5,8.8c0,0,0.5,1.1,0.6,1.2
			c0.4,0.6,0.3,0.2,0.7,0.6l-0.1,0.8H206v-0.8l0.7-0.7c0-0.6-0.1-0.7-0.4-1.4l-3.6-8.6h-3.2v8.7c0,0.5-0.1,1.5,0.3,2h0.5v0.8h-6.3
			v-0.8c0.1,0,0.5-0.2,0.6-0.6c0.1-0.2,0-1.1,0-1.4V86.9l-0.8-0.4l0-0.7H205.3z M203.1,98.6c0.4,0,3.6,0.5,4.3-1.8
			c0.3-0.9,0.3-2.2,0-2.9c-0.7-2.3-4.1-1.7-4.1-1.7h-3.7v6.5H203.1z"/>
	</g>
	<g>
		<path d="M54.3,55.1v6.5h-0.2c-0.1-0.6,0-0.7-0.3-0.9c-0.1-0.1-0.5,0-0.6-0.1h-6.6v3.5h3.2c0.1,0,0.3,0,0.5,0h0.5h0.6
			c0.2-0.1,0.3-0.3,0.3-0.9h0.3v6.4l-0.3,0c0-0.2,0-0.7-0.2-0.9c-0.1,0-0.5,0-0.6,0h-1.1h-3.2v3.5v2.3c0,1.4,0,1.2,0.7,1.4v0.5h-4.8
			l0-0.5c0.2-0.1,0.4,0.1,0.7-0.6c0.1-0.2,0-1,0-1.2V58.2c0-1.3,0.1-1.4-0.8-1.6l0-0.5h10.5c0.1,0,0.5,0,0.6,0
			c0.3-0.2,0.2-0.6,0.3-1L54.3,55.1z"/>
		<path d="M68.8,57.3l0.2,0.1l-1.9,6.1l-0.2-0.2v-0.6c-1.5-1.9-3.9-2.2-5.5-1.2c-1.1,0.7-1.7,1.7-2,3.6c-0.2,1.1,0,2.9,0.7,4.2
			c1.1,2.2,3.3,2.3,4.4,2c0.2-0.1,0.8-0.3,1.3-0.6c0.2-0.1,0.5-0.3,0.7-0.5c0.3-0.4,0.4-0.4,0.4-1.1l-0.1-0.3l0.2-0.3l2.2,5.9
			l-0.2,0.2c-0.3-0.6-0.3-0.4-0.8-0.1L68,74.8c-2.7,1.8-6.9,2.4-9.4-0.6c-1.8-2.1-2.5-4.9-2.5-7.7C56,64,56.4,61,58.2,58.6
			c2.8-3.7,6.4-2.8,9.2-1.4l1.2,0.5L68.8,57.3z"/>
		<path d="M80.9,56.2v0.4c-0.2,0.1-0.5-0.1-0.5,0.7c0,0.2,0,1.1,0,1.3v15.7c0,0.1,0.1,0.9,0.1,1c0.2,0.5,0.3,0.3,0.6,0.4v0.5h-4.5
			v-0.4c0.2-0.1,0.5,0,0.6-0.6c0-0.1,0-1,0-1.2V58.1c0-1.2,0.1-1.1-0.7-1.4v-0.4H80.9z"/>
		<path d="M87.7,56.2v0.4L87.1,57v0.3l5.2,10V57.1l-0.5-0.5l0-0.4h3.8l-0.1,0.5c-0.1,0-0.3,0.1-0.4,0.6v0.9v16.2c0,0.2,0,0.7,0,0.9
			c0.1,0.5,0.2,0.4,0.4,0.5l0,0.5h-3.9v-0.5l0.5-0.2v-0.4L86,63.2v12.2l0.5,0.4v0.5h-3.8l0-0.5c0.2,0,0.4-0.1,0.4-0.6
			c0-0.2,0-0.8,0-1V58.2c0-0.2,0-0.6,0-0.9c-0.1-0.5-0.1-0.4-0.4-0.6v-0.5H87.7z"/>
		<path d="M109.8,57.5l0.2,0.2l-1.3,4.9l-0.2-0.2v-0.5c-1.6-1.8-4.8-1.9-6.2-0.8c-1.1,1-1.6,2.6-1.7,4.4c-0.1,1.5,0.2,3.8,1.3,5.2
			c1.5,2,4.1,1.6,5.9,0.7c0-0.2,0-1.1,0-1.2c0-0.2,0-1-0.1-1.2h-3l-0.1,0.7l-0.2,0v-5.3l0.3,0.1l0.2,0.6h6.5v0.4h-0.2l-0.2,0.3v4.1
			c0,0.4,0,0.8,0,1.2v0.8c0,1.1-0.1,0.9,0.4,1.7c-3.1,2.9-8.6,4.1-11.2,1.3c-2.1-2.2-2.7-5-2.8-8.1c0-2.8,0.6-6.4,2.6-8.6
			c2.8-3.2,6.7-2,9.5-0.1L109.8,57.5z"/>
		<path d="M125.4,59.7c1.2,2.4,1.5,6.7,1.1,9.1c-0.6,3.4-1.9,5.7-4,6.9c-1.9,1-5.3,1-7.4-2c-1.8-2.6-2.1-5.8-1.9-8.6
			c0.2-3.2,0.9-5.9,3.1-7.8c0.8-0.7,1.7-1.2,2.4-1.3C120.3,55.6,123.6,56,125.4,59.7z M117.9,70.7c1.2,1.3,2.9,1.2,3.9,0.4
			c1.1-0.9,1.6-2.4,1.7-4.2c0.1-1.6-0.1-3.6-1.1-5c-1.1-1.5-2.9-1.5-3.9-0.9c-1.5,0.9-2.1,2.8-2.1,5.1
			C116.5,67.6,116.9,69.4,117.9,70.7z"/>
		<path d="M133.2,56.2l0,0.5c-0.8,0.4-0.7,0.3-0.7,1.7v0.5c0,0.2,0,0.5,0,0.7v11.9h6.7c0.1,0,0.5,0.1,0.6,0c0.3-0.1,0.3-0.4,0.4-0.9
			h0.3v5.9c0,0.1,0,0.3,0,0.5c0,0.2,0.1,0.4-0.1,0.4c-0.3-1.2-0.4-1-1-1h-10.8v-0.5c0.8-0.4,0.7-0.1,0.7-1.7V58.1
			c0-1.4,0.1-1.3-0.7-1.5l0-0.5H133.2z"/>
		<path d="M154.4,57l-1.5,5.2l-0.2-0.2c0-0.8,0-0.9-0.5-1.2c-0.1-0.1-0.3-0.2-0.8-0.5c-0.6-0.3-1.1-0.5-1.6-0.6
			c-0.7-0.2-3.3-0.6-3.9,0.9c-0.2,0.4-0.2,0.8-0.1,1.2c0.3,0.9,1.8,1.2,2.1,1.2l2.4,0.5c1.4,0.3,3.6,0.6,4.3,4
			c0.4,1.7,0.2,4.2-0.8,6.1c-2.5,4.4-7.8,2.7-10.4,1.3l-0.5-0.2l-0.3,0.6l-0.2-0.1l1.6-6.8l0.2,0.2c0,0.8-0.1,1,0.4,1.8
			c1.2,1.6,4.4,2.2,6,1.4c0.5-0.3,1-0.6,1.2-1.5c0.1-0.4,0.1-0.8-0.1-1.2c-0.3-0.8-2-1-2.1-1l-2-0.4c-0.9-0.2-3.8-0.5-4.5-3.9
			c-0.3-1.5-0.2-3.6,0.6-5.2c2.1-4.2,6.6-2.8,8.8-1.9l0.9,0.5c0.1,0.1,0.4,0.2,0.5,0.2h0.1l0.1-0.1c0.2-0.2,0.2-0.3,0.3-0.4
			L154.4,57z"/>
		<path d="M156.7,55.2c0,0.1,0,0.6,0.2,0.9c0.2,0.2,0.4,0,0.6,0h9.6l0.7-0.1c0.3-0.2,0.2-0.4,0.4-1h0.2v6.7h-0.2l-0.3-0.9h-3.8v14.4
			l0.5,0.4v0.5h-4.3v-0.5c0.2-0.1,0.5-0.1,0.5-0.7c0-0.1,0-0.9,0-1.1V61.8c0-0.2,0-0.7-0.1-0.8h-3.8l-0.3,1h-0.2v-6.8L156.7,55.2z"
			/>
		<path d="M179.8,56.2l0,0.5l-0.3,0.2c-0.1,0.2,0,0.7,0.1,1l3.8,16.7l0.2,0.8c0.1,0.4,0.2,0.4,0.4,0.5l0,0.3h-3.8l-0.3,0
			c-0.2,0-0.2,0.1-0.2-0.3l0.4-0.5v-0.2v-0.1l0-0.1l-0.1-0.2l-0.6-2.9h-5.1l-0.2,0.8c0,0.1-0.1,0.5-0.2,0.7l-0.2,0.8
			c0,0.3-0.1,0.5-0.1,0.8c-0.1,0.3-0.2,0.5,0,0.8l0.3,0.1l0,0.4h-3.7v-0.5c0.2-0.1,0.3-0.1,0.4-0.4l0-0.2l0-0.2c0-0.1,0-0.2,0.1-0.5
			l3.7-16.6c0-0.2,0-0.4,0.1-0.5l0-0.2l0-0.1l0-0.1h-0.4v-0.6H179.8z M178.8,68.7l-2.1-8.8l-1.9,8.8H178.8z"/>
		<path d="M192,56.2c1.9,0,4.4,0,5.9,4.4c0.9,2.9,0.9,8,0,10.7c-1.5,4.4-3.8,4.8-5.9,4.9h-6.2l0-0.5h0.2c0.3-0.4,0.2-0.9,0.2-1.3
			V57.5c0-0.1,0-0.5-0.1-0.7l-0.4-0.2v-0.4H192z M195,68.9c0.6-1.8,0.5-4.5,0-6c-0.9-2.5-2.9-2.2-3.9-2.2h-1.7v10.9h1.5
			C192.4,71.5,194,72,195,68.9z"/>
		<path d="M200.6,55.2c0,0.1,0,0.6,0.2,0.9c0.2,0.2,0.4,0,0.6,0h9.6l0.7-0.1c0.3-0.2,0.2-0.4,0.4-1h0.2v6.7h-0.2l-0.3-0.9H208v14.4
			l0.5,0.4v0.5h-4.3v-0.5c0.2-0.1,0.5-0.1,0.5-0.7c0-0.1,0-0.9,0-1.1V61.8c0-0.2,0-0.7-0.1-0.8h-3.8l-0.3,1h-0.2v-6.8L200.6,55.2z"
			/>
	</g>
	<g>
		<defs>
			<path id="SVGID_1_" d="M128,45H55c0,0,28.4-27.7,73-27c0,17.6,0,29,0,29"/>
		</defs>
		<clipPath id="SVGID_2_">
			<use xlink:href="#SVGID_1_"  style="overflow:visible;"/>
		</clipPath>
		<g class="st38">
			<rect x="54" y="14" class="st0" width="10" height="10"/>
			<rect x="64" y="14" width="10" height="10"/>
			<rect x="74" y="14" class="st0" width="10" height="10"/>
			<rect x="84" y="14" width="10" height="10"/>
			<rect x="94" y="14" class="st0" width="10" height="10"/>
			<rect x="104" y="14" width="10" height="10"/>
			<rect x="114" y="14" class="st0" width="10" height="10"/>
			<rect x="124" y="14" width="10" height="10"/>
			<rect x="54" y="24" width="10" height="10"/>
			<rect x="64" y="24" class="st0" width="10" height="10"/>
			<rect x="74" y="24" width="10" height="10"/>
			<rect x="84" y="24" class="st0" width="10" height="10"/>
			<rect x="94" y="24" width="10" height="10"/>
			<rect x="104" y="24" class="st0" width="10" height="10"/>
			<rect x="114" y="24" width="10" height="10"/>
			<rect x="54" y="34" class="st0" width="10" height="10"/>
			<rect x="64" y="34" width="10" height="10"/>
			<rect x="74" y="34" class="st0" width="10" height="10"/>
			<rect x="84" y="34" width="10" height="10"/>
			<rect x="94" y="34" class="st0" width="10" height="10"/>
			<rect x="104" y="34" width="10" height="10"/>
			<rect x="114" y="34" class="st0" width="10" height="10"/>
			<rect x="124" y="34" width="10" height="10"/>
			<rect x="124" y="24" class="st0" width="10" height="10"/>
			<rect x="54" y="43" width="10" height="10"/>
			<rect x="64" y="43" class="st0" width="10" height="10"/>
			<rect x="74" y="43" width="10" height="10"/>
			<rect x="84" y="43" class="st0" width="10" height="10"/>
			<rect x="94" y="43" width="10" height="10"/>
			<rect x="104" y="43" class="st0" width="10" height="10"/>
			<rect x="114" y="43" width="10" height="10"/>
			<rect x="124" y="43" class="st0" width="10" height="10"/>
		</g>
	</g>
</g>
</svg>
