<?xml version="1.0" encoding="utf-8"?>
<!-- Generator: Adobe Illustrator 17.0.0, SVG Export Plug-In . SVG Version: 6.00 Build 0)  -->
<!DOCTYPE svg PUBLIC "-//W3C//DTD SVG 1.1//EN" "http://www.w3.org/Graphics/SVG/1.1/DTD/svg11.dtd" [
	<!ENTITY ns_flows "http://ns.adobe.com/Flows/1.0/">
	<!ENTITY ns_extend "http://ns.adobe.com/Extensibility/1.0/">
	<!ENTITY ns_ai "http://ns.adobe.com/AdobeIllustrator/10.0/">
	<!ENTITY ns_graphs "http://ns.adobe.com/Graphs/1.0/">
]>
<svg version="1.1" id="Layer_2" xmlns:x="&ns_extend;" xmlns:i="&ns_ai;" xmlns:graph="&ns_graphs;"
	 xmlns="http://www.w3.org/2000/svg" xmlns:xlink="http://www.w3.org/1999/xlink" xmlns:a="http://ns.adobe.com/AdobeSVGViewerExtensions/3.0/"
	 x="0px" y="0px" width="256px" height="256px" viewBox="0 0 256 256" style="enable-background:new 0 0 256 256;"
	 xml:space="preserve">
<style type="text/css">
	.st0{fill:#FFFFFF;}
	.st1{fill:#54B948;}
	.st2{fill:#1D8C8E;}
	.st3{fill:#14DEAC;}
	.st4{fill:#1466AC;}
	.st5{fill:#757575;}
	.st6{fill:#B69442;}
	.st7{fill:#1A234D;}
	.st8{fill:#AA0629;}
	.st9{fill:#FF4A49;}
	.st10{fill:#3C6643;}
	.st11{fill:none;stroke:#FF4A49;stroke-miterlimit:10;}
	.st12{fill:#E70084;}
	.st13{fill:#508A72;}
	.st14{fill:#01A663;}
	.st15{fill:#015297;}
	.st16{fill:#B0B0B0;}
	.st17{fill:#E1062F;}
	.st18{fill:#D80000;stroke:#FFFFFF;stroke-width:2;stroke-miterlimit:10;}
	.st19{fill:#D80000;}
	.st20{fill:#8ABE23;}
	.st21{fill:#1D1D1B;}
	.st22{fill:#FEFEFE;}
	.st23{fill:#FF0000;}
	.st24{fill:#FF1D1B;}
	.st25{fill:#6DB2DE;}
	.st26{fill:#FF1D25;}
	.st27{fill:#FFDA00;}
	.st28{fill:#024D9E;}
	.st29{fill:#6B97C6;}
	.st30{fill:#000078;}
	.st31{fill:none;stroke:#FFFFFF;stroke-width:6;stroke-linecap:round;stroke-miterlimit:10;}
	.st32{fill:#FFEE34;}
	.st33{fill:none;stroke:#000000;stroke-width:4;stroke-miterlimit:10;}
	.st34{fill:#D11E24;}
	.st35{fill:#D71F26;}
	.st36{fill:#020000;}
	.st37{fill:none;stroke:#000000;stroke-width:2;stroke-miterlimit:10;}
	.st38{clip-path:url(#SVGID_2_);}
	.st39{fill:#00317D;}
	.st40{fill:#00737D;}
	.st41{fill:#ED1C24;}
	.st42{fill:#2678C7;}
	.st43{fill:#1853A6;}
	.st44{fill:#CB0000;}
	.st45{fill:#E61C21;}
	.st46{clip-path:url(#SVGID_4_);}
	.st47{fill:#6BDEF1;}
	.st48{clip-path:url(#SVGID_6_);}
	.st49{fill:#0165B2;}
	.st50{fill:#DE1134;}
	.st51{fill:#00A668;}
	.st52{fill:#FFE60B;}
	.st53{fill:#843D00;stroke:#000000;stroke-miterlimit:10;}
	.st54{fill:#EC1F27;}
	.st55{fill:#162984;}
	.st56{fill:#1853A6;stroke:#1853A6;stroke-miterlimit:10;}
	.st57{fill:none;}
	.st58{fill:none;stroke:#1853A6;stroke-width:0.9;stroke-miterlimit:10;}
	.st59{fill:#1853A6;stroke:#1853A6;stroke-width:0.9;stroke-miterlimit:10;}
	.st60{fill:#B5985A;}
	.st61{fill:#FFE60B;stroke:#000000;stroke-width:6;stroke-miterlimit:10;}
	.st62{fill:#008DCD;}
	.st63{fill:#009939;}
	.st64{fill:#2E3092;}
	.st65{fill:#EE3224;}
	.st66{fill:#005BAB;}
	.st67{fill:#D30027;}
	.st68{fill:#FFFFFF;stroke:#D30027;stroke-width:10;stroke-miterlimit:10;}
	.st69{fill:#E81C2F;}
	.st70{fill:#DC032B;}
	.st71{fill:#F25448;}
	.st72{fill:#FFFFFF;stroke:#F25448;stroke-width:6;stroke-miterlimit:10;}
	.st73{fill:#05A08D;}
	.st74{fill:#1875CE;}
	.st75{fill:#D72427;}
	.st76{fill:#004993;}
	.st77{fill:#007BB0;}
	.st78{fill:#FFEB00;}
	.st79{fill:#664A9E;}
	.st80{fill:#F4C701;}
	.st81{fill:#EBBE12;}
	.st82{fill:#44B3DB;}
	.st83{fill:#F6FF82;}
	.st84{fill:#FFC918;}
	.st85{fill:#0361A4;}
	.st86{fill:#009FE3;}
	.st87{fill:#E30217;}
	.st88{fill:#FDEA00;}
	.st89{fill:#E91B00;}
	.st90{fill:#2B2763;}
	.st91{fill:#EE1A22;}
	.st92{fill:#F1AA25;}
	.st93{fill:#93000C;}
	.st94{fill:none;stroke:#1D1D1B;stroke-width:4;}
	.st95{fill:#3E4E70;}
	.st96{fill:#096CB6;}
	.st97{fill:#0559A8;}
	.st98{fill:#F9ED1A;}
	.st99{fill:#949494;}
	.st100{fill:#FFD033;}
	.st101{fill:#243D89;}
	.st102{fill:#F8C936;}
	.st103{fill:#D44128;}
	.st104{fill:#ED1B23;}
	.st105{fill:#0C529C;}
	.st106{fill:#E31E24;}
	.st107{fill:#0263B0;}
	.st108{fill:#007AC2;}
	.st109{fill:#EF3D1F;}
	.st110{fill:#EE1C24;}
	.st111{fill:#FDEA00;stroke:#000000;stroke-width:0.6509;}
	.st112{fill:#FDEA00;stroke:#000000;stroke-width:0.6979;}
	.st113{fill:#46A0BE;}
	.st114{fill:#005FA5;}
	.st115{fill:#00904C;}
	.st116{fill:#E21F26;}
	.st117{fill:#FD0001;}
	.st118{fill:#0066B3;}
	.st119{fill:#E20019;}
	.st120{fill:#0171BC;}
	.st121{fill:#01305D;}
	.st122{fill:#1B7EE9;}
	.st123{fill:#BA0D0B;}
	.st124{fill:none;stroke:#000000;stroke-width:3;stroke-miterlimit:10;}
	.st125{fill:#FFFFFF;stroke:#000000;stroke-width:0.8836;stroke-miterlimit:10;}
	.st126{fill:#FFFFFF;stroke:#000000;stroke-width:0.9759;stroke-miterlimit:10;}
	.st127{fill:#0053A1;}
	.st128{fill:#FFE100;}
	.st129{fill:#FFE500;}
	.st130{fill:none;stroke:#FFE500;stroke-width:2;stroke-miterlimit:10;}
	.st131{fill:#01AFF3;}
	.st132{fill:#ED1B28;}
	.st133{fill:#E2000A;}
</style>
<g>
	<path class="st0" d="M189.6,2c-39.7,0-83.7,0-122.1,0c0,35.1-29.1,63.5-65.5,64.6C22.1,253.4,128,254,128,254s105.9-0.4,126-187.3
		C218.1,65.1,189.6,36.1,189.6,2L189.6,2z"/>
	<path d="M176.1,17c3,0,10.4,28.6,21.6,39.9c11,11.1,24.7,18.7,39.6,22.3c-4.7,33.9-12.9,63.1-24.2,87.1
		c-10.1,21.2-22.6,38.3-37.4,50.8c-23.7,20-45.1,21.6-47.7,21.7c-2.6-0.1-24-1.7-47.7-21.8c-14.8-12.5-27.3-29.6-37.4-50.8
		c-11.3-23.9-19.4-53.1-24.2-86.9c15.2-3.4,29.1-10.7,40.2-21.7C70.4,46.2,78,32,81,17h95 M189.6,2c-39.7,0-83.7,0-122.1,0
		c0,35.1-29.1,63.5-65.5,64.6C22.1,253.4,128,254,128,254s105.9-0.4,126-187.3C218.1,65.1,189.6,36.1,189.6,2L189.6,2z"/>
	<g>
		<path d="M37.2,104.9c2.1,1,5.3,1.9,8.5,1.9c3.8,0,5.7-1.5,5.7-3.7c0-2.2-1.8-3.4-5.9-5c-5.9-2.3-9.4-5.5-9.4-9.9
			c0-5.7,5-10.1,13.6-10.1c3.8,0,6.6,0.7,8.5,1.6l-1.7,6c-1.3-0.6-3.8-1.5-6.9-1.5c-3.5,0-5.2,1.6-5.2,3.4c0,2.1,1.8,3.1,6.4,4.9
			c6.2,2.4,8.8,5.6,8.8,10c0,5.8-4.9,10.4-14.3,10.4c-3.9,0-7.8-1-9.6-1.9L37.2,104.9z"/>
		<path d="M89.8,111.6c-1.4,0.6-4.5,1.3-8.5,1.3c-12,0-18.1-7.3-18.1-16.9c0-11.9,8.8-17.8,19-17.8c3.9,0,6.8,0.7,8.1,1.3l-1.6,5.9
			c-1.4-0.6-3.4-1.1-6-1.1c-5.9,0-10.8,3.6-10.8,11.3c0,7.2,4.1,11.1,10.8,11.1c2.2,0,4.6-0.4,6-0.9L89.8,111.6z"/>
		<path d="M103.6,112.4l-11-33.8h9l4,14.4c1.1,3.9,2.1,7.8,3,12h0.1c0.8-4.1,1.8-8.1,3-11.9l4.1-14.4h8.8L113,112.4H103.6z"/>
	</g>
	<g>
		<path d="M133,143.4L133,143.4l-4.8,2.1l-1-4l6.6-2.8h4.9v23.3H133V143.4z"/>
		<path d="M148.2,158.1c0.8,0,1.4,0,2.6-0.1c1.6-0.1,3.3-0.6,4.5-1.4c1.5-1,2.6-2.6,3-4.4l-0.1,0c-1.1,1-2.6,1.6-4.8,1.6
			c-4.1,0-7.5-2.7-7.5-7.2c0-4.4,3.7-8.3,9.2-8.3c6.2,0,9.1,4.4,9.1,9.9c0,5-1.8,8.6-4.5,10.9c-2.2,1.9-5.3,2.9-8.9,3.2
			c-1,0.1-1.9,0.1-2.6,0V158.1z M154.9,142.1c-1.8,0-3.2,1.6-3.2,4.2c0,2.1,1.1,3.9,3.3,3.9c1.4,0,2.5-0.7,3-1.4
			c0.2-0.4,0.3-0.8,0.3-1.7C158.4,144.3,157.3,142.1,154.9,142.1L154.9,142.1z"/>
		<path d="M167,161.9v-3.3l3.1-2.8c5-4.4,7.8-7.2,7.8-10.1c0-1.9-1.2-3.3-4-3.3c-2.1,0-3.8,0.9-5.1,1.7l-1.5-3.8
			c1.7-1.1,4.5-2.1,7.7-2.1c5.8,0,8.6,3.2,8.6,7.1c0,4.1-3.1,7.3-6.6,10.3l-2.2,1.8v0.1h9.3v4.4H167z"/>
		<path d="M197.7,161.9v-5.6H187v-3.4l9.4-14.3h6.7v13.8h3v4h-3v5.6H197.7z M197.7,152.4v-5.1c0-1.3,0.1-2.8,0.2-4.2h-0.1
			c-0.8,1.5-1.4,2.7-2.2,4.1l-3.3,5.1v0.1H197.7z"/>
		<path d="M142.2,183.6c0.1,2.4,2.4,3.4,5.1,3.4c1.9,0,3.4-0.3,4.9-0.7l0.8,3.6c-1.8,0.6-4.2,1-6.6,1c-6.2,0-9.8-3.4-9.8-8.8
			c0-4.9,3.2-9.4,9.2-9.4c5.7,0,8.1,4,8.1,8.6c0,1-0.1,1.8-0.2,2.3H142.2z M148.6,180c0-1.6-0.6-3.7-3-3.7c-2.3,0-3.2,2.1-3.4,3.7
			H148.6z"/>
		<path d="M160,191c-1.9,0-3.4-1.3-3.4-3.3c0-1.9,1.5-3.3,3.4-3.3s3.4,1.3,3.4,3.3C163.5,189.7,162.1,191,160,191L160,191z"/>
		<path d="M172.9,190.6l-7.9-24.2h6.4l2.9,10.3c0.8,2.8,1.5,5.6,2.1,8.6h0.1c0.6-2.9,1.3-5.8,2.1-8.5l2.9-10.3h6.3l-8.2,24.2H172.9z
			"/>
		<path d="M190.9,191c-1.9,0-3.4-1.3-3.4-3.3c0-1.9,1.5-3.3,3.4-3.3s3.4,1.3,3.4,3.3C194.4,189.7,193,191,190.9,191L190.9,191z"/>
	</g>
	<g>
		<g>
			<path d="M166.2,81.6c-0.5-1.6-1.3-2.5-2.6-1.6c-1.1,0.7-2,1.7-2.9,2.7c-18.8,18.9-37.7,37.7-56.5,56.7c-2.3,2.3-3.7,4.2-7,0.7
				c-2.8-3-2.3-4.4,0.3-7c18.1-18,36.3-35.9,54-54.3c6.2-6.4,12.9-10.9,21.5-12.4c2.8-0.5,6-3.4,8.2-1.4c1,0.9-1.1,5.1-1.7,7.9
				c-1.7,8.6-6.1,15.3-12.5,21.5c-18.2,17.6-35.9,35.7-53.8,53.8c-2.5,2.5-3.9,4.1-7.3,0.6c-3.3-3.4-1.6-4.7,0.7-7
				c19-19,37.9-38,56.8-57C164.4,83.7,165.4,82.6,166.2,81.6z"/>
			<path d="M115.3,164c-0.4,2.2-1.8,3.2-3.9,2.5c-1-0.3-1.9-1.3-2.7-2.1c-9.1-9.1-18.1-18.1-27.1-27.2c-1.7-1.7-3.7-3.5-1.3-5.8
				c2.4-2.2,3.9,0.3,5.3,1.7c9.1,9,18.1,18.1,27.2,27.2C113.9,161.4,115,162.4,115.3,164z"/>
			<path d="M87,148.5c1.2,0,1.7,0.9,2.4,1.6c1.7,1.6,3.1,3.6,5,4.9c3.9,2.8,3,4.9-0.1,7.6c-2.2,2-3.6,2.5-5.6,0
				c-1.5-1.8-3.4-3.2-4.9-5c-1-1.1-3.4-2-2.1-3.9C83.2,151.8,85.2,150.2,87,148.5z"/>
			<path d="M75.1,178.9c-5.5-0.1-8.7-4.2-7.8-9.1c0.4-2.3,1.7-4.2,3.6-5c1.8-0.8,2.6,1.6,3.8,2.6c1.3,1.1,2.5,2.2,3.5,3.5
				c1.1,1.4,4,2.3,3,4.5C79.9,177.8,77.4,179.1,75.1,178.9z"/>
			<path d="M88.7,167.8c-1.1,1.2-2.1,2.3-3.2,3.3c-1.3,1.1-2.1,0.1-2.9-0.8c-2.1-2.1-4.1-4.4-6.4-6.4c-1.8-1.6-2.3-2.8-0.3-4.8
				c1.9-1.9,3.1-1.7,4.8,0.2c2,2.3,4.2,4.3,6.3,6.4C87.6,166.4,88.1,167.1,88.7,167.8z"/>
		</g>
	</g>
	<polygon points="129.5,62.3 81.3,15.9 175.8,16.4 	"/>
	<polygon points="94.6,236.3 129.5,201.3 162.4,234.3 128.5,249.4 	"/>
</g>
</svg>
