<?xml version="1.0" encoding="utf-8"?>
<!-- Generator: Adobe Illustrator 17.0.0, SVG Export Plug-In . SVG Version: 6.00 Build 0)  -->
<!DOCTYPE svg PUBLIC "-//W3C//DTD SVG 1.1//EN" "http://www.w3.org/Graphics/SVG/1.1/DTD/svg11.dtd" [
	<!ENTITY ns_flows "http://ns.adobe.com/Flows/1.0/">
	<!ENTITY ns_extend "http://ns.adobe.com/Extensibility/1.0/">
	<!ENTITY ns_ai "http://ns.adobe.com/AdobeIllustrator/10.0/">
	<!ENTITY ns_graphs "http://ns.adobe.com/Graphs/1.0/">
]>
<svg version="1.1" id="Layer_2" xmlns:x="&ns_extend;" xmlns:i="&ns_ai;" xmlns:graph="&ns_graphs;"
	 xmlns="http://www.w3.org/2000/svg" xmlns:xlink="http://www.w3.org/1999/xlink" xmlns:a="http://ns.adobe.com/AdobeSVGViewerExtensions/3.0/"
	 x="0px" y="0px" width="256px" height="256px" viewBox="0 0 256 256" style="enable-background:new 0 0 256 256;"
	 xml:space="preserve">
<style type="text/css">
	.st0{fill:#FFFFFF;}
	.st1{fill:#54B948;}
	.st2{fill:#1D8C8E;}
	.st3{fill:#14DEAC;}
	.st4{fill:#1466AC;}
	.st5{fill:#757575;}
	.st6{fill:#B69442;}
	.st7{fill:#1A234D;}
	.st8{fill:#AA0629;}
	.st9{fill:#FF4A49;}
	.st10{fill:#3C6643;}
	.st11{fill:none;stroke:#FF4A49;stroke-miterlimit:10;}
	.st12{fill:#E70084;}
	.st13{fill:#508A72;}
	.st14{fill:#01A663;}
	.st15{fill:#015297;}
	.st16{fill:#B0B0B0;}
	.st17{fill:#E1062F;}
	.st18{fill:#D80000;stroke:#FFFFFF;stroke-width:2;stroke-miterlimit:10;}
	.st19{fill:#D80000;}
	.st20{fill:#8ABE23;}
	.st21{fill:#1D1D1B;}
	.st22{fill:#FEFEFE;}
	.st23{fill:#FF0000;}
	.st24{fill:#FF1D1B;}
	.st25{fill:#6DB2DE;}
	.st26{fill:#FF1D25;}
	.st27{fill:#FFDA00;}
	.st28{fill:#024D9E;}
	.st29{fill:#6B97C6;}
	.st30{fill:#000078;}
	.st31{fill:none;stroke:#FFFFFF;stroke-width:6;stroke-linecap:round;stroke-miterlimit:10;}
	.st32{fill:#FFEE34;}
	.st33{fill:none;stroke:#000000;stroke-width:4;stroke-miterlimit:10;}
	.st34{fill:#D11E24;}
	.st35{fill:#D71F26;}
	.st36{fill:#020000;}
	.st37{fill:none;stroke:#000000;stroke-width:2;stroke-miterlimit:10;}
	.st38{clip-path:url(#SVGID_2_);}
	.st39{fill:#00317D;}
	.st40{fill:#00737D;}
	.st41{fill:#ED1C24;}
	.st42{fill:#2678C7;}
	.st43{fill:#1853A6;}
	.st44{fill:#CB0000;}
	.st45{fill:#E61C21;}
	.st46{clip-path:url(#SVGID_4_);}
	.st47{fill:#6BDEF1;}
	.st48{clip-path:url(#SVGID_6_);}
	.st49{fill:#0165B2;}
	.st50{fill:#DE1134;}
	.st51{fill:#00A668;}
	.st52{fill:#FFE60B;}
	.st53{fill:#843D00;stroke:#000000;stroke-miterlimit:10;}
	.st54{fill:#EC1F27;}
	.st55{fill:#162984;}
	.st56{fill:#1853A6;stroke:#1853A6;stroke-miterlimit:10;}
	.st57{fill:none;}
	.st58{fill:none;stroke:#1853A6;stroke-width:0.9;stroke-miterlimit:10;}
	.st59{fill:#1853A6;stroke:#1853A6;stroke-width:0.9;stroke-miterlimit:10;}
	.st60{fill:#B5985A;}
	.st61{fill:#FFE60B;stroke:#000000;stroke-width:6;stroke-miterlimit:10;}
	.st62{fill:#008DCD;}
	.st63{fill:#009939;}
	.st64{fill:#2E3092;}
	.st65{fill:#EE3224;}
	.st66{fill:#005BAB;}
	.st67{fill:#D30027;}
	.st68{fill:#FFFFFF;stroke:#D30027;stroke-width:10;stroke-miterlimit:10;}
	.st69{fill:#E81C2F;}
	.st70{fill:#DC032B;}
	.st71{fill:#F25448;}
	.st72{fill:#FFFFFF;stroke:#F25448;stroke-width:6;stroke-miterlimit:10;}
	.st73{fill:#05A08D;}
	.st74{fill:#1875CE;}
	.st75{fill:#D72427;}
	.st76{fill:#004993;}
	.st77{fill:#007BB0;}
	.st78{fill:#FFEB00;}
	.st79{fill:#664A9E;}
	.st80{fill:#F4C701;}
	.st81{fill:#EBBE12;}
	.st82{fill:#44B3DB;}
	.st83{fill:#F6FF82;}
	.st84{fill:#FFC918;}
	.st85{fill:#0361A4;}
	.st86{fill:#009FE3;}
	.st87{fill:#E30217;}
	.st88{fill:#FDEA00;}
	.st89{fill:#E91B00;}
	.st90{fill:#2B2763;}
	.st91{fill:#EE1A22;}
	.st92{fill:#F1AA25;}
	.st93{fill:#93000C;}
	.st94{fill:none;stroke:#1D1D1B;stroke-width:4;}
	.st95{fill:#3E4E70;}
	.st96{fill:#096CB6;}
	.st97{fill:#0559A8;}
	.st98{fill:#F9ED1A;}
	.st99{fill:#949494;}
	.st100{fill:#FFD033;}
	.st101{fill:#243D89;}
	.st102{fill:#F8C936;}
	.st103{fill:#D44128;}
	.st104{fill:#ED1B23;}
	.st105{fill:#0C529C;}
	.st106{fill:#E31E24;}
	.st107{fill:#0263B0;}
	.st108{fill:#007AC2;}
	.st109{fill:#EF3D1F;}
	.st110{fill:#EE1C24;}
	.st111{fill:#FDEA00;stroke:#000000;stroke-width:0.6509;}
	.st112{fill:#FDEA00;stroke:#000000;stroke-width:0.6979;}
	.st113{fill:#46A0BE;}
	.st114{fill:#005FA5;}
	.st115{fill:#00904C;}
	.st116{fill:#E21F26;}
	.st117{fill:#FD0001;}
	.st118{fill:#0066B3;}
	.st119{fill:#E20019;}
	.st120{fill:#0171BC;}
	.st121{fill:#01305D;}
	.st122{fill:#1B7EE9;}
	.st123{fill:#BA0D0B;}
	.st124{fill:none;stroke:#000000;stroke-width:3;stroke-miterlimit:10;}
	.st125{fill:#FFFFFF;stroke:#000000;stroke-width:0.8836;stroke-miterlimit:10;}
	.st126{fill:#FFFFFF;stroke:#000000;stroke-width:0.9759;stroke-miterlimit:10;}
	.st127{fill:#0053A1;}
	.st128{fill:#FFE100;}
	.st129{fill:#FFE500;}
	.st130{fill:none;stroke:#FFE500;stroke-width:2;stroke-miterlimit:10;}
	.st131{fill:#01AFF3;}
	.st132{fill:#ED1B28;}
	.st133{fill:#E2000A;}
</style>
<g>
	<g>
		
			<rect x="44.3" y="44.3" transform="matrix(-0.7071 0.7071 -0.7071 -0.7071 309.0192 127.9999)" class="st0" width="167.3" height="167.3"/>
		<path class="st43" d="M128,17.4L238.6,128L128,238.6L17.4,128L128,17.4 M128,2L2,128l126,126l126-126L128,2L128,2z"/>
	</g>
	<g>
		
			<rect x="61.1" y="61.1" transform="matrix(-0.7071 0.7071 -0.7071 -0.7071 309.0196 127.9998)" class="st0" width="133.8" height="133.8"/>
		<path class="st43" d="M128,39.5l88.5,88.5L128,216.5L39.5,128L128,39.5 M128,27.2L27.2,128L128,228.8L228.8,128L128,27.2L128,27.2
			z"/>
	</g>
	<g>
		
			<rect x="74.5" y="74.5" transform="matrix(-0.7071 0.7071 -0.7071 -0.7071 309.0192 127.9999)" class="st0" width="107.1" height="107.1"/>
		<path class="st43" d="M128,57.2l70.8,70.8L128,198.8L57.2,128L128,57.2 M128,47.4L47.4,128l80.6,80.6l80.6-80.6L128,47.4L128,47.4
			z"/>
	</g>
	<polygon points="187.8,139 68.3,139 57.2,127.9 68.1,117.1 187.8,116.9 198.9,127.8 	"/>
	<g>
		<path class="st0" d="M79.9,135.4l-3.6-14.7h3.8l1.1,6c0.3,1.7,0.6,3.6,0.8,5.1h0.1c0.2-1.7,0.6-3.4,1-5.2l1.3-6h3.5l1.2,6.1
			c0.3,1.7,0.6,3.3,0.8,5h0.1c0.2-1.7,0.5-3.4,0.9-5.1l1.2-6h3.6L92,135.4h-3.8l-1.3-5.9c-0.3-1.4-0.6-2.9-0.8-4.6h0
			c-0.3,1.7-0.6,3.2-0.9,4.6l-1.4,5.9H79.9z"/>
		<path class="st0" d="M100.1,131.7l-1,3.6h-3.6l4.6-14.7h4.6l4.5,14.7h-3.7l-1.1-3.6H100.1z M103.8,129.3l-0.9-3.1
			c-0.2-0.9-0.5-2.1-0.7-3h0c-0.2,0.9-0.5,2.1-0.7,3l-0.9,3.1H103.8z"/>
		<path class="st0" d="M111.3,120.6h3.6v12h5.8v2.7h-9.4V120.6z"/>
		<path class="st0" d="M122.8,120.8c1.2-0.2,2.8-0.3,4.5-0.3c2.8,0,4.7,0.5,6.1,1.5c1.6,1.1,2.6,3,2.6,5.7c0,2.9-1.1,4.9-2.6,6
			c-1.6,1.2-3.9,1.8-6.8,1.8c-1.7,0-2.9-0.1-3.8-0.2V120.8z M126.3,132.9c0.3,0,0.7,0,1.1,0c2.8,0,4.8-1.5,4.8-5.2
			c0-3-1.7-4.7-4.5-4.7c-0.6,0-1.1,0-1.4,0.1V132.9z"/>
		<path class="st0" d="M141.9,120.6v5.7h5.3v-5.7h3.6v14.7h-3.6v-6.2h-5.3v6.2h-3.6v-14.7H141.9z"/>
		<path class="st0" d="M160.1,135.6c-4.5,0-7-3.4-7-7.5c0-4.3,2.8-7.6,7.2-7.6c4.7,0,7,3.5,7,7.4
			C167.3,132.9,164.4,135.6,160.1,135.6L160.1,135.6z M160.2,133c2.2,0,3.3-2.1,3.3-5c0-2.6-1.1-4.9-3.3-4.9c-2.2,0-3.4,2.2-3.4,5
			C156.8,130.8,158,133,160.2,133L160.2,133z"/>
		<path class="st0" d="M169.6,120.6h9.2v2.6h-5.6v3.5h5.3v2.6h-5.3v6h-3.6V120.6z"/>
	</g>
	<g>
		<path class="st43" d="M115.8,177.5c-9,0-12.7-7.7-12.7-16.7c0-9.5,4.1-16.9,12.9-16.9c9.4,0,12.7,8.1,12.7,16.6
			C128.7,171.1,124.1,177.5,115.8,177.5L115.8,177.5z M115.9,171.8c3,0,4.5-3.7,4.5-11.1c0-7.2-1.5-11-4.5-11c-2.9,0-4.7,3.6-4.7,11
			C111.2,168.2,112.9,171.8,115.9,171.8L115.9,171.8z"/>
		<path class="st43" d="M156.8,144.5v4.6L142.9,177h-8.5l13.8-26.3v-0.1h-15.4v-6.1H156.8z"/>
	</g>
	<g>
		<g>
			<path class="st43" d="M101.7,103.8c2.1,1,5.3,1.9,8.5,1.9c3.8,0,5.7-1.5,5.7-3.7c0-2.2-1.8-3.4-5.9-5c-5.9-2.2-9.4-5.5-9.4-9.9
				c0-5.7,5-10.1,13.6-10.1c3.8,0,6.6,0.7,8.5,1.5l-1.7,6c-1.3-0.6-3.8-1.4-6.9-1.4c-3.5,0-5.2,1.6-5.2,3.4c0,2.1,1.8,3.1,6.4,4.9
				c6.2,2.4,8.8,5.6,8.8,10c0,5.8-4.9,10.4-14.3,10.4c-3.9,0-7.8-1-9.6-1.9L101.7,103.8z"/>
			<path class="st43" d="M137.3,111.3l-11-33.7h9l4,14.4c1.1,3.9,2.1,7.8,3,12h0.1c0.8-4.1,1.8-8.1,3-11.9l4.1-14.4h8.8l-11.5,33.7
				H137.3z"/>
		</g>
	</g>
</g>
</svg>
