<?xml version="1.0" encoding="utf-8"?>
<!-- Generator: Adobe Illustrator 17.0.0, SVG Export Plug-In . SVG Version: 6.00 Build 0)  -->
<!DOCTYPE svg PUBLIC "-//W3C//DTD SVG 1.1//EN" "http://www.w3.org/Graphics/SVG/1.1/DTD/svg11.dtd" [
	<!ENTITY ns_flows "http://ns.adobe.com/Flows/1.0/">
	<!ENTITY ns_extend "http://ns.adobe.com/Extensibility/1.0/">
	<!ENTITY ns_ai "http://ns.adobe.com/AdobeIllustrator/10.0/">
	<!ENTITY ns_graphs "http://ns.adobe.com/Graphs/1.0/">
]>
<svg version="1.1" id="Layer_2" xmlns:x="&ns_extend;" xmlns:i="&ns_ai;" xmlns:graph="&ns_graphs;"
	 xmlns="http://www.w3.org/2000/svg" xmlns:xlink="http://www.w3.org/1999/xlink" xmlns:a="http://ns.adobe.com/AdobeSVGViewerExtensions/3.0/"
	 x="0px" y="0px" width="256px" height="256px" viewBox="0 0 256 256" style="enable-background:new 0 0 256 256;"
	 xml:space="preserve">
<style type="text/css">
	.st0{fill:#FFFFFF;}
	.st1{fill:#54B948;}
	.st2{fill:#1D8C8E;}
	.st3{fill:#14DEAC;}
	.st4{fill:#1466AC;}
	.st5{fill:#757575;}
	.st6{fill:#B69442;}
	.st7{fill:#1A234D;}
	.st8{fill:#AA0629;}
	.st9{fill:#FF4A49;}
	.st10{fill:#3C6643;}
	.st11{fill:none;stroke:#FF4A49;stroke-miterlimit:10;}
	.st12{fill:#E70084;}
	.st13{fill:#508A72;}
	.st14{fill:#01A663;}
	.st15{fill:#015297;}
	.st16{fill:#B0B0B0;}
	.st17{fill:#E1062F;}
	.st18{fill:#D80000;stroke:#FFFFFF;stroke-width:2;stroke-miterlimit:10;}
	.st19{fill:#D80000;}
	.st20{fill:#8ABE23;}
	.st21{fill:#1D1D1B;}
	.st22{fill:#FEFEFE;}
	.st23{fill:#FF0000;}
	.st24{fill:#FF1D1B;}
	.st25{fill:#6DB2DE;}
	.st26{fill:#FF1D25;}
	.st27{fill:#FFDA00;}
	.st28{fill:#024D9E;}
	.st29{fill:#6B97C6;}
	.st30{fill:#000078;}
	.st31{fill:none;stroke:#FFFFFF;stroke-width:6;stroke-linecap:round;stroke-miterlimit:10;}
	.st32{fill:#FFEE34;}
	.st33{fill:none;stroke:#000000;stroke-width:4;stroke-miterlimit:10;}
	.st34{fill:#D11E24;}
	.st35{fill:#D71F26;}
	.st36{fill:#020000;}
	.st37{fill:none;stroke:#000000;stroke-width:2;stroke-miterlimit:10;}
	.st38{clip-path:url(#SVGID_2_);}
	.st39{fill:#00317D;}
	.st40{fill:#00737D;}
	.st41{fill:#ED1C24;}
	.st42{fill:#2678C7;}
	.st43{fill:#1853A6;}
	.st44{fill:#CB0000;}
	.st45{fill:#E61C21;}
	.st46{clip-path:url(#SVGID_4_);}
	.st47{fill:#6BDEF1;}
	.st48{clip-path:url(#SVGID_6_);}
	.st49{fill:#0165B2;}
	.st50{fill:#DE1134;}
	.st51{fill:#00A668;}
	.st52{fill:#FFE60B;}
	.st53{fill:#843D00;stroke:#000000;stroke-miterlimit:10;}
	.st54{fill:#EC1F27;}
	.st55{fill:#162984;}
	.st56{fill:#1853A6;stroke:#1853A6;stroke-miterlimit:10;}
	.st57{fill:none;}
	.st58{fill:none;stroke:#1853A6;stroke-width:0.9;stroke-miterlimit:10;}
	.st59{fill:#1853A6;stroke:#1853A6;stroke-width:0.9;stroke-miterlimit:10;}
	.st60{fill:#B5985A;}
	.st61{fill:#FFE60B;stroke:#000000;stroke-width:6;stroke-miterlimit:10;}
	.st62{fill:#008DCD;}
	.st63{fill:#009939;}
	.st64{fill:#2E3092;}
	.st65{fill:#EE3224;}
	.st66{fill:#005BAB;}
	.st67{fill:#D30027;}
	.st68{fill:#FFFFFF;stroke:#D30027;stroke-width:10;stroke-miterlimit:10;}
	.st69{fill:#E81C2F;}
	.st70{fill:#DC032B;}
	.st71{fill:#F25448;}
	.st72{fill:#FFFFFF;stroke:#F25448;stroke-width:6;stroke-miterlimit:10;}
	.st73{fill:#05A08D;}
	.st74{fill:#1875CE;}
	.st75{fill:#D72427;}
	.st76{fill:#004993;}
	.st77{fill:#007BB0;}
	.st78{fill:#FFEB00;}
	.st79{fill:#664A9E;}
	.st80{fill:#F4C701;}
	.st81{fill:#EBBE12;}
	.st82{fill:#44B3DB;}
	.st83{fill:#F6FF82;}
	.st84{fill:#FFC918;}
	.st85{fill:#0361A4;}
	.st86{fill:#009FE3;}
	.st87{fill:#E30217;}
	.st88{fill:#FDEA00;}
	.st89{fill:#E91B00;}
	.st90{fill:#2B2763;}
	.st91{fill:#EE1A22;}
	.st92{fill:#F1AA25;}
	.st93{fill:#93000C;}
	.st94{fill:none;stroke:#1D1D1B;stroke-width:4;}
	.st95{fill:#3E4E70;}
	.st96{fill:#096CB6;}
	.st97{fill:#0559A8;}
	.st98{fill:#F9ED1A;}
	.st99{fill:#949494;}
	.st100{fill:#FFD033;}
	.st101{fill:#243D89;}
	.st102{fill:#F8C936;}
	.st103{fill:#D44128;}
	.st104{fill:#ED1B23;}
	.st105{fill:#0C529C;}
	.st106{fill:#E31E24;}
	.st107{fill:#0263B0;}
	.st108{fill:#007AC2;}
	.st109{fill:#EF3D1F;}
	.st110{fill:#EE1C24;}
	.st111{fill:#FDEA00;stroke:#000000;stroke-width:0.6509;}
	.st112{fill:#FDEA00;stroke:#000000;stroke-width:0.6979;}
	.st113{fill:#46A0BE;}
	.st114{fill:#005FA5;}
	.st115{fill:#00904C;}
	.st116{fill:#E21F26;}
	.st117{fill:#FD0001;}
	.st118{fill:#0066B3;}
	.st119{fill:#E20019;}
	.st120{fill:#0171BC;}
	.st121{fill:#01305D;}
	.st122{fill:#1B7EE9;}
	.st123{fill:#BA0D0B;}
	.st124{fill:none;stroke:#000000;stroke-width:3;stroke-miterlimit:10;}
	.st125{fill:#FFFFFF;stroke:#000000;stroke-width:0.8836;stroke-miterlimit:10;}
	.st126{fill:#FFFFFF;stroke:#000000;stroke-width:0.9759;stroke-miterlimit:10;}
	.st127{fill:#0053A1;}
	.st128{fill:#FFE100;}
	.st129{fill:#FFE500;}
	.st130{fill:none;stroke:#FFE500;stroke-width:2;stroke-miterlimit:10;}
	.st131{fill:#01AFF3;}
	.st132{fill:#ED1B28;}
	.st133{fill:#E2000A;}
</style>
<g>
	<g>
		<path class="st39" d="M254,2H3c0,0-0.3,29-0.6,61H254C254,31,254,2,254,2z"/>
		<path class="st40" d="M2.4,63C2.2,87,2,112.6,2,127.8c0,69.9,56.4,126.4,126,126.4s126-56.8,126-126.6c0-13.6,0-39.5,0-64.5H2.4z"
			/>
	</g>
	<g>
		<path class="st0" d="M26.3,16.2L26.3,16.2l-3.6,1.6L22,14.1l5-2.3h4.1v18.5h-4.8V16.2z"/>
		<path class="st0" d="M39.5,30.7c-1.6,0-2.8-1.2-2.8-2.9s1.2-3,2.8-3c1.6,0,2.8,1.2,2.8,3C42.4,29.5,41.2,30.7,39.5,30.7L39.5,30.7
			z"/>
		<path class="st0" d="M50.2,11.2h11.3v4.1h-6.4V19h6v4h-6v7.4h-4.9V11.2z"/>
		<path class="st0" d="M69.5,11.2v11.3c0,2.8,0.9,4.2,2.6,4.2s2.6-1.2,2.6-4.2V11.2h4.9V22c0,5.6-2.6,8.6-7.6,8.6
			c-5,0-7.4-3-7.4-8.7V11.2H69.5z"/>
		<path class="st0" d="M83.1,25.5c1.1,0.5,2.8,1.1,4.5,1.1c1.7,0,2.6-0.7,2.6-1.6c0-1-0.8-1.5-2.9-2.4c-3.2-1.4-4.8-3.3-4.8-5.7
			c0-3.3,2.6-6,7.4-6c2,0,3.5,0.4,4.6,0.9l-0.9,4c-0.8-0.3-2-0.8-3.7-0.8c-1.5,0-2.4,0.6-2.4,1.5c0,0.9,0.8,1.4,3.2,2.4
			c3.2,1.3,4.6,3.2,4.6,5.7c0,3.4-2.6,6.1-7.8,6.1c-2.1,0-4.2-0.5-5.1-1L83.1,25.5z"/>
		<path class="st0" d="M97.8,25.5c1.1,0.5,2.8,1.1,4.5,1.1c1.7,0,2.6-0.7,2.6-1.6c0-1-0.8-1.5-2.9-2.4c-3.2-1.4-4.8-3.3-4.8-5.7
			c0-3.3,2.6-6,7.4-6c2,0,3.5,0.4,4.6,0.9l-0.9,4c-0.8-0.3-2-0.8-3.7-0.8c-1.5,0-2.4,0.6-2.4,1.5c0,0.9,0.8,1.4,3.2,2.4
			c3.2,1.3,4.6,3.2,4.6,5.7c0,3.4-2.6,6.1-7.8,6.1c-2.1,0-4.2-0.5-5.1-1L97.8,25.5z"/>
		<path class="st0" d="M112.3,11.4c1.2-0.2,3.5-0.4,5.6-0.4c2.5,0,4.2,0.2,5.6,1.1c1.4,0.7,2.3,2.1,2.3,3.8c0,1.6-0.9,3.2-3,4.1v0.1
			c2.3,0.6,3.6,2.4,3.6,4.6c0,1.7-0.8,3.1-1.9,4c-1.4,1.1-3.7,1.8-7.6,1.8c-2.1,0-3.6-0.1-4.6-0.3V11.4z M117.2,18.7h0.9
			c1.9,0,2.9-0.9,2.9-2.1c0-1.2-0.8-2-2.3-2c-0.7,0-1.1,0-1.5,0.1V18.7z M117.2,26.9c0.3,0.1,0.7,0.1,1.3,0.1c1.5,0,2.9-0.7,2.9-2.4
			c0-1.6-1.4-2.3-3.1-2.3h-1.1V26.9z"/>
		<path class="st0" d="M133.7,26.1l-0.9,4.2h-5l5.1-19.2h6.4l5.1,19.2h-5.2l-1.1-4.2H133.7z M137.5,22.5l-0.8-3.5
			c-0.3-1.1-0.6-2.8-0.8-4h-0.1c-0.3,1.1-0.6,2.9-0.8,4l-0.8,3.5H137.5z"/>
		<path class="st0" d="M146.7,11.2h4.9v15.1h6.6v4.1h-11.5V11.2z"/>
		<path class="st0" d="M160.6,11.2h4.9v15.1h6.6v4.1h-11.5V11.2z"/>
		<path class="st0" d="M186.5,30c-0.7,0.3-2.3,0.7-4.2,0.7c-6.7,0-9.5-4.5-9.5-9.6c0-6.9,4.7-10.2,9.9-10.2c2,0,3.5,0.4,4.2,0.7
			l-0.9,3.9c-0.7-0.3-1.7-0.6-3-0.6c-2.7,0-5,1.8-5,5.8c0,3.7,1.9,5.7,5.1,5.7c1,0,2.2-0.2,2.9-0.5L186.5,30z"/>
		<path class="st0" d="M189.1,11.2h4.9v15.1h6.6v4.1h-11.5V11.2z"/>
		<path class="st0" d="M207.1,11.2v11.3c0,2.8,0.9,4.2,2.6,4.2s2.6-1.2,2.6-4.2V11.2h4.9V22c0,5.6-2.6,8.6-7.6,8.6
			c-5,0-7.4-3-7.4-8.7V11.2H207.1z"/>
		<path class="st0" d="M220.6,11.4c1.2-0.2,3.5-0.4,5.6-0.4c2.5,0,4.2,0.2,5.6,1.1c1.4,0.7,2.3,2.1,2.3,3.8c0,1.6-0.9,3.2-3,4.1v0.1
			c2.3,0.6,3.6,2.4,3.6,4.6c0,1.7-0.8,3.1-1.9,4c-1.4,1.1-3.7,1.8-7.6,1.8c-2.1,0-3.6-0.1-4.6-0.3V11.4z M225.5,18.7h0.9
			c1.9,0,2.9-0.9,2.9-2.1c0-1.2-0.8-2-2.3-2c-0.7,0-1.1,0-1.5,0.1V18.7z M225.5,26.9c0.3,0.1,0.7,0.1,1.3,0.1c1.5,0,2.9-0.7,2.9-2.4
			c0-1.6-1.4-2.3-3.1-2.3h-1.1V26.9z"/>
		<path class="st0" d="M22.6,36.3v7.2H28v-7.2h4.9v19.2H28v-7.6h-5.3v7.6h-4.9V36.3H22.6z"/>
		<path class="st0" d="M47.4,47.7h-6.1v3.8h6.8v4.1H36.4V36.3h11.4v4.1h-6.4v3.3h6.1V47.7z"/>
		<path class="st0" d="M55.9,36.3v19.2h-4.9V36.3H55.9z"/>
		<path class="st0" d="M59.3,36.6c1.4-0.2,3.4-0.4,5.5-0.4c3.4,0,5.5,0.6,7.3,1.9c2,1.5,3.2,3.9,3.2,7.5c0,3.9-1.3,6.5-3.2,8
			c-1.9,1.5-4.7,2.2-8.2,2.2c-2.1,0-3.7-0.2-4.6-0.3V36.6z M64.2,51.8c0.2,0.1,0.6,0.1,0.9,0.1c2.8,0,4.9-1.8,4.9-6.2
			c0-3.7-1.8-5.6-4.6-5.6c-0.6,0-1,0.1-1.3,0.1V51.8z"/>
		<path class="st0" d="M88.9,47.7h-6.1v3.8h6.8v4.1H77.9V36.3h11.4v4.1h-6.4v3.3h6.1V47.7z"/>
		<path class="st0" d="M92.4,55.6V36.3h5.4l3,6.2c0.9,1.7,1.9,4.2,2.7,6.2h0.1c-0.2-2.3-0.4-5.2-0.4-8.4v-4.1h4.4v19.2h-5l-3.1-6.4
			c-0.9-1.9-2.1-4.4-2.8-6.5h-0.1c0.1,2.3,0.2,5.3,0.2,8.6v4.3H92.4z"/>
		<path class="st0" d="M116,36.3v7.2h5.3v-7.2h4.9v19.2h-4.9v-7.6H116v7.6h-4.9V36.3H116z"/>
		<path class="st0" d="M140.8,47.7h-6.1v3.8h6.8v4.1h-11.8V36.3h11.4v4.1h-6.4v3.3h6.1V47.7z"/>
		<path class="st0" d="M149.2,36.3v19.2h-4.9V36.3H149.2z"/>
		<path class="st0" d="M167.6,48.9c-0.1-2-0.1-4.5-0.1-7.2h-0.1c-0.5,2.4-1.2,5.1-1.7,7l-1.7,6.5h-3.8l-1.5-6.4
			c-0.4-1.8-1-4.5-1.4-7h-0.1c-0.1,2.5-0.2,5.2-0.3,7.2l-0.3,6.6h-4.4l1.3-19.2h6.2l1.3,5.4c0.5,2.2,1.1,4.7,1.4,7h0.1
			c0.5-2.3,1.1-4.9,1.6-7l1.4-5.4h6.1l1,19.2h-4.7L167.6,48.9z"/>
		<path class="st0" d="M185.3,41.4L185.3,41.4l-3.6,1.6l-0.8-3.7l5-2.3h4.1v18.5h-4.8V41.4z"/>
		<path class="st0" d="M202.1,36.7c4.1,0,6.1,2.3,6.1,4.8c0,1.4-0.7,3-2.5,4v0.1c1.6,0.7,3.1,2.2,3.1,4.6c0,3.5-2.8,5.7-7,5.7
			c-4.5,0-6.7-2.5-6.7-5.2c0-2.2,1.2-3.7,3-4.6V46c-1.7-0.9-2.5-2.5-2.5-4C195.6,38.8,198.5,36.7,202.1,36.7L202.1,36.7z M202,52.5
			c1.2,0,1.9-0.9,1.9-2.1c0-1.4-1.1-2.4-2.3-2.7c-1,0.4-1.6,1.3-1.6,2.5S200.8,52.5,202,52.5L202,52.5z M201.9,40
			c-1.2,0-1.7,0.9-1.7,1.9c0,1,0.9,1.8,2.1,2.2c0.7-0.2,1.3-1.1,1.3-2C203.6,41,203.2,40,201.9,40L201.9,40z"/>
		<path class="st0" d="M217.7,55.6v-4.2h-7.6v-3.2l6.3-11.2h5.8v10.7h2v3.7h-2v4.2H217.7z M217.7,47.7v-3.2c0-1.1,0.1-2.3,0.2-3.4
			h-0.1c-0.5,1.1-1,2.2-1.6,3.4l-1.6,3.1v0.1H217.7z"/>
		<path class="st0" d="M237.5,40.6c-0.5,0-1,0-1.6,0.1c-3.3,0.3-4.8,1.8-5.3,3.7h0.1c0.9-0.8,2-1.2,3.4-1.2c2.9,0,5.3,2.2,5.3,6
			c0,3.6-2.6,6.7-6.6,6.7c-4.9,0-7.2-3.7-7.2-8c0-3.7,1.3-6.5,3.3-8.4c1.8-1.6,4.1-2.5,6.8-2.6c0.9-0.1,1.4-0.1,1.8,0V40.6z
			 M232.7,52.3c1.3,0,1.8-1.4,1.8-3c0-1.2-0.5-2.7-2-2.7c-0.9,0-1.5,0.5-1.8,1.2c-0.1,0.2-0.2,0.7-0.2,1.3
			C230.5,50.7,231.2,52.3,232.7,52.3L232.7,52.3z"/>
	</g>
	<path class="st0" d="M75.3,83.8c-36.9,29.9-38.6,90.9,2.1,119.8c11.9,6.8,22,11.9,35.6,11.9c8.2-0.8,15-1.7,21.8-5.1
		c-37.3,5.1-72.9-22-76.5-59.3c0-6.8-1-12.8,0.2-19.5c1.8-10.5,5.5-18.2,12-27.9c6.8-8.5,14.5-13.9,24.7-20.7
		c5.1-3.4,11.1-4.7,17.9-6.4c11.9-3.4,23.8-3.4,35.6,0c10.2,1.7,21.2,7.7,30.5,15.3c5.7,4.6,10.8,9.4,15.3,15.3
		c5.9,8,10.2,16.9,12.7,24.9c2.2,5.7,3.8,13.3,3.7,16.1c0.2,4-0.3,5.1-0.3,5.1s0.2-2.1-1.4-8.4c-9.6-47.9-67.2-85.2-113-56.4
		C149.7,67.6,216,115,199,177.7c-5.1,13.6-9.6,22.3-21.6,34.3c-9.3,9.4-16.6,13.8-28.8,16.9c-19.5,5.1-35.6,5.1-54.1,0.9
		c-12-4.1-13.7-4.3-13.7-4.3s1.2,0.5,11.2,3.2c55.8,14.7,105.7-21.8,102.3-72.7c-0.5-6.1-1.7-11-3.4-16.9
		c3.9,46.5-33.9,89.8-84.7,83c-10.2-1.7-22.4-5.5-30.8-12.3c-11.9-10.2-20-21.6-25.1-35.1c-1.7-6.8-5.1-12.7-5.1-22
		c0-17.1,1.9-27.4,6.9-41c5.2-10.2,7.6-12.4,11.3-17.1C71.5,85.8,75.3,83.8,75.3,83.8z"/>
	<g>
		<circle class="st41" cx="124.7" cy="145.7" r="46.2"/>
		<g>
			<path class="st0" d="M109.2,146.3c0,0.6-0.3,0.9-0.9,0.9H92.2c-0.6,0-0.9,0.3-0.9,0.9v10.9c0,0.6-0.3,0.9-0.9,0.9h-3.8
				c-0.6,0-0.9-0.4-0.9-1.1v-29c0-0.6,0.3-0.9,0.9-0.9h21.7c0.6,0,0.9,0.3,0.9,0.9v3.8c0,0.6-0.3,0.9-0.9,0.9H92.2
				c-0.6,0-0.9,0.3-0.9,0.9v5.2c0,0.6,0.3,0.9,0.9,0.9h16.1c0.6,0,0.9,0.3,0.9,0.9V146.3z"/>
			<path class="st0" d="M136.5,153.5c0,1.8-0.6,3.4-1.9,4.7c-1.3,1.3-2.8,1.9-4.7,1.9h-10.4c-1.8,0-3.4-0.6-4.7-1.9
				c-1.3-1.3-1.9-2.8-1.9-4.7v-17.9c0-1.8,0.6-3.4,1.9-4.7c1.3-1.3,2.8-1.9,4.7-1.9h10.4c1.8,0,3.4,0.6,4.7,1.9
				c1.3,1.3,1.9,2.8,1.9,4.7v3.7c0,0.6-0.3,0.9-0.9,0.9h-3.8c-0.6,0-0.9-0.3-0.9-0.9v-3.7c0-0.6-0.3-0.9-0.9-0.9h-10.4
				c-0.6,0-0.9,0.3-0.9,0.9v17.9c0,0.6,0.3,0.9,0.9,0.9h10.4c0.6,0,0.9-0.3,0.9-0.9v-4.4c0-0.6,0.3-0.9,0.9-0.9h3.8
				c0.6,0,0.9,0.3,0.9,0.9V153.5z"/>
			<path class="st0" d="M163.8,159.1c0,0.6-0.3,0.9-0.9,0.9h-3.8c-0.6,0-0.9-0.3-0.9-0.9v-12.6c0-0.6-0.3-0.9-0.9-0.9h-10.4
				c-0.6,0-0.9,0.3-0.9,0.9v12.6c0,0.6-0.3,0.9-0.9,0.9h-3.8c-0.6,0-0.9-0.3-0.9-0.9v-29.2c0-0.6,0.3-0.9,0.9-0.9h3.8
				c0.6,0,0.9,0.3,0.9,0.9v9.1c0,0.6,0.3,0.9,0.9,0.9h10.4c0.6,0,0.9-0.3,0.9-0.9v-9.1c0-0.6,0.3-0.9,0.9-0.9h3.8
				c0.6,0,0.9,0.3,0.9,0.9V159.1z"/>
		</g>
	</g>
</g>
</svg>
