<?xml version="1.0" encoding="utf-8"?>
<!-- Generator: Adobe Illustrator 17.0.0, SVG Export Plug-In . SVG Version: 6.00 Build 0)  -->
<!DOCTYPE svg PUBLIC "-//W3C//DTD SVG 1.1//EN" "http://www.w3.org/Graphics/SVG/1.1/DTD/svg11.dtd" [
	<!ENTITY ns_flows "http://ns.adobe.com/Flows/1.0/">
	<!ENTITY ns_extend "http://ns.adobe.com/Extensibility/1.0/">
	<!ENTITY ns_ai "http://ns.adobe.com/AdobeIllustrator/10.0/">
	<!ENTITY ns_graphs "http://ns.adobe.com/Graphs/1.0/">
]>
<svg version="1.1" id="Layer_2" xmlns:x="&ns_extend;" xmlns:i="&ns_ai;" xmlns:graph="&ns_graphs;"
	 xmlns="http://www.w3.org/2000/svg" xmlns:xlink="http://www.w3.org/1999/xlink" xmlns:a="http://ns.adobe.com/AdobeSVGViewerExtensions/3.0/"
	 x="0px" y="0px" width="256px" height="256px" viewBox="0 0 256 256" style="enable-background:new 0 0 256 256;"
	 xml:space="preserve">
<style type="text/css">
	.st0{fill:#FFFFFF;}
	.st1{fill:#54B948;}
	.st2{fill:#1D8C8E;}
	.st3{fill:#14DEAC;}
	.st4{fill:#1466AC;}
	.st5{fill:#757575;}
	.st6{fill:#B69442;}
	.st7{fill:#1A234D;}
	.st8{fill:#AA0629;}
	.st9{fill:#FF4A49;}
	.st10{fill:#3C6643;}
	.st11{fill:none;stroke:#FF4A49;stroke-miterlimit:10;}
	.st12{fill:#E70084;}
	.st13{fill:#508A72;}
	.st14{fill:#01A663;}
	.st15{fill:#015297;}
	.st16{fill:#B0B0B0;}
	.st17{fill:#E1062F;}
	.st18{fill:#D80000;stroke:#FFFFFF;stroke-width:2;stroke-miterlimit:10;}
	.st19{fill:#D80000;}
	.st20{fill:#8ABE23;}
	.st21{fill:#1D1D1B;}
	.st22{fill:#FEFEFE;}
	.st23{fill:#FF0000;}
	.st24{fill:#FF1D1B;}
	.st25{fill:#6DB2DE;}
	.st26{fill:#FF1D25;}
	.st27{fill:#FFDA00;}
	.st28{fill:#024D9E;}
	.st29{fill:#6B97C6;}
	.st30{fill:#000078;}
	.st31{fill:none;stroke:#FFFFFF;stroke-width:6;stroke-linecap:round;stroke-miterlimit:10;}
	.st32{fill:#FFEE34;}
	.st33{fill:none;stroke:#000000;stroke-width:4;stroke-miterlimit:10;}
	.st34{fill:#D11E24;}
	.st35{fill:#D71F26;}
	.st36{fill:#020000;}
	.st37{fill:none;stroke:#000000;stroke-width:2;stroke-miterlimit:10;}
	.st38{clip-path:url(#SVGID_2_);}
	.st39{fill:#00317D;}
	.st40{fill:#00737D;}
	.st41{fill:#ED1C24;}
	.st42{fill:#2678C7;}
	.st43{fill:#1853A6;}
	.st44{fill:#CB0000;}
	.st45{fill:#E61C21;}
	.st46{clip-path:url(#SVGID_4_);}
	.st47{fill:#6BDEF1;}
	.st48{clip-path:url(#SVGID_6_);}
	.st49{fill:#0165B2;}
	.st50{fill:#DE1134;}
	.st51{fill:#00A668;}
	.st52{fill:#FFE60B;}
	.st53{fill:#843D00;stroke:#000000;stroke-miterlimit:10;}
	.st54{fill:#EC1F27;}
	.st55{fill:#162984;}
	.st56{fill:#1853A6;stroke:#1853A6;stroke-miterlimit:10;}
	.st57{fill:none;}
	.st58{fill:none;stroke:#1853A6;stroke-width:0.9;stroke-miterlimit:10;}
	.st59{fill:#1853A6;stroke:#1853A6;stroke-width:0.9;stroke-miterlimit:10;}
	.st60{fill:#B5985A;}
	.st61{fill:#FFE60B;stroke:#000000;stroke-width:6;stroke-miterlimit:10;}
	.st62{fill:#008DCD;}
	.st63{fill:#009939;}
	.st64{fill:#2E3092;}
	.st65{fill:#EE3224;}
	.st66{fill:#005BAB;}
	.st67{fill:#D30027;}
	.st68{fill:#FFFFFF;stroke:#D30027;stroke-width:10;stroke-miterlimit:10;}
	.st69{fill:#E81C2F;}
	.st70{fill:#DC032B;}
	.st71{fill:#F25448;}
	.st72{fill:#FFFFFF;stroke:#F25448;stroke-width:6;stroke-miterlimit:10;}
	.st73{fill:#05A08D;}
	.st74{fill:#1875CE;}
	.st75{fill:#D72427;}
	.st76{fill:#004993;}
	.st77{fill:#007BB0;}
	.st78{fill:#FFEB00;}
	.st79{fill:#664A9E;}
	.st80{fill:#F4C701;}
	.st81{fill:#EBBE12;}
	.st82{fill:#44B3DB;}
	.st83{fill:#F6FF82;}
	.st84{fill:#FFC918;}
	.st85{fill:#0361A4;}
	.st86{fill:#009FE3;}
	.st87{fill:#E30217;}
	.st88{fill:#FDEA00;}
	.st89{fill:#E91B00;}
	.st90{fill:#2B2763;}
	.st91{fill:#EE1A22;}
	.st92{fill:#F1AA25;}
	.st93{fill:#93000C;}
	.st94{fill:none;stroke:#1D1D1B;stroke-width:4;}
	.st95{fill:#3E4E70;}
	.st96{fill:#096CB6;}
	.st97{fill:#0559A8;}
	.st98{fill:#F9ED1A;}
	.st99{fill:#949494;}
	.st100{fill:#FFD033;}
	.st101{fill:#243D89;}
	.st102{fill:#F8C936;}
	.st103{fill:#D44128;}
	.st104{fill:#ED1B23;}
	.st105{fill:#0C529C;}
	.st106{fill:#E31E24;}
	.st107{fill:#0263B0;}
	.st108{fill:#007AC2;}
	.st109{fill:#EF3D1F;}
	.st110{fill:#EE1C24;}
	.st111{fill:#FDEA00;stroke:#000000;stroke-width:0.6509;}
	.st112{fill:#FDEA00;stroke:#000000;stroke-width:0.6979;}
	.st113{fill:#46A0BE;}
	.st114{fill:#005FA5;}
	.st115{fill:#00904C;}
	.st116{fill:#E21F26;}
	.st117{fill:#FD0001;}
	.st118{fill:#0066B3;}
	.st119{fill:#E20019;}
	.st120{fill:#0171BC;}
	.st121{fill:#01305D;}
	.st122{fill:#1B7EE9;}
	.st123{fill:#BA0D0B;}
	.st124{fill:none;stroke:#000000;stroke-width:3;stroke-miterlimit:10;}
	.st125{fill:#FFFFFF;stroke:#000000;stroke-width:0.8836;stroke-miterlimit:10;}
	.st126{fill:#FFFFFF;stroke:#000000;stroke-width:0.9759;stroke-miterlimit:10;}
	.st127{fill:#0053A1;}
	.st128{fill:#FFE100;}
	.st129{fill:#FFE500;}
	.st130{fill:none;stroke:#FFE500;stroke-width:2;stroke-miterlimit:10;}
	.st131{fill:#01AFF3;}
	.st132{fill:#ED1B28;}
	.st133{fill:#E2000A;}
</style>
<g>
	<g>
		<defs>
			<circle id="SVGID_5_" cx="128" cy="-148" r="105.4"/>
		</defs>
		<clipPath id="SVGID_2_">
			<use xlink:href="#SVGID_5_"  style="overflow:visible;"/>
		</clipPath>
		<g class="st38">
			<g>
				<polygon class="st0" points="127.8,23.7 112.3,-5.3 127.9,-34.5 143.4,-5.4 				"/>
				<polygon class="st47" points="143.3,52.8 127.8,23.7 143.4,-5.4 158.9,23.6 				"/>
				<polygon class="st0" points="158.9,23.6 143.4,-5.4 158.9,-34.6 174.4,-5.5 				"/>
				<polygon class="st0" points="96.9,23.6 81.4,-5.5 97,-34.6 112.5,-5.6 				"/>
				<polygon class="st47" points="112.4,52.7 96.9,23.6 112.5,-5.6 128,23.5 				"/>
				<polygon class="st0" points="127.9,81.7 112.4,52.7 128,23.5 143.4,52.6 				"/>
			</g>
		</g>
	</g>
</g>
<g>
	<g>
		<path class="st0" d="M128,249.4C61,249.4,6.6,195,6.6,128S61,6.6,128,6.6S249.4,61,249.4,128S195,249.4,128,249.4z"/>
		<path class="st56" d="M128,2C58.4,2,2,58.4,2,128s56.4,126,126,126s126-56.4,126-126S197.6,2,128,2L128,2z"/>
	</g>
	<g>
		<circle class="st56" cx="128" cy="128" r="107.1"/>
		<path class="st0" d="M128,51.8C86,51.8,51.8,86,51.8,128S86,204.2,128,204.2s76.2-34.2,76.2-76.2S170,51.8,128,51.8z"/>
	</g>
	<g>
		<path class="st57" d="M79.6,100.6l5.8,56.3c2.3-9.1,5.4-23,5.6-33.7C91.3,110.7,83.9,103.6,79.6,100.6z"/>
		<path d="M82.1,91.6c0.1-0.4,0.1-0.8,0.1-1.2c0-4.3-3.5-7.7-7.7-7.7s-7.7,3.5-7.7,7.7c0,3.4,2.2,6.4,5.4,7.3l10,96.6l7.2-0.7
			L86,161.9c5.3-7.3,16.2-20.1,24.4-15.9c9.2,4.7,15.5,13.1,22.3,13.7l-11.1-59.9C110.6,90.2,95.7,76.9,82.1,91.6z M85.5,156.9
			l-5.8-56.3c4.2,3,11.7,10.1,11.4,22.6C90.8,133.8,87.8,147.7,85.5,156.9z"/>
		<path class="st58" d="M152.1,102.3c-5-3.9-13.1,5.8-19.2,5c-2.9-0.4-6.8-3.6-11.3-7.5l11.1,59.9c1.5,0.1,3.1-0.1,4.7-0.9
			c8.9-4.2,10-20.1,18.5-15.9c5,2.5,6.9,7.4,8.9,10.2l-8.8-47.2C154.7,104.5,153.4,103.3,152.1,102.3z"/>
		<path class="st59" d="M181.1,108.9c-4.2-5.8-8.1-1.9-12.7,1.9c-3.5,2.9-8-1.1-12.2-5l8.8,47.2c1.4,1.9,2.8,2.8,5.4,1.1
			c6.2-4.2,9.7-22,14.7-20.1c5,1.9,13.5-14.7,13.5-18.2C198.5,112.3,185.3,114.7,181.1,108.9z"/>
	</g>
	<path d="M150.1,140.2l8-2.1l-15.3-28l-7.6,1.5l-3,33.1l7.8-1.9l0.3-3.3l8.1-2.2L150.1,140.2z M141.2,132.7l0.8-7.5l3.4,6.3
		L141.2,132.7z"/>
	<path class="st0" d="M65.1,186.8c1.9,0.7,3.4,1.7,4.8,2.8c5.6,4.3,8.7,9.9,9.9,16.6c0.4,2.1,0.2,4.1,0,6.2
		c-0.1,1.1,0.4,2.1,0.6,3.2c0.1,0.3,0.4,0.4,0.6,0.5c5.1,2,10.4,3.6,15.8,4.5c0.4,0.1,0.9,0,1.2,0.3c0.4,0.5,0.7,1.1,0.5,1.7
		c-0.2,0.4-0.9,0.1-1.3,0c-5-0.7-9.9-2-14.7-3.8c-0.9-0.3-1.6,0.2-2.4,0.2c-0.9,0-1.4,0.5-1.9,1.2c-2,3.3-5.2,5-9,5.7
		c-6.7,1.3-13.1,0.4-19.2-2.2c-1-0.4-1.9-1-2.7-1.7c-0.4-0.3-0.5-0.5,0-0.9c5.8-4.6,12.3-7.4,20-7c3.1,0.2,6,1.3,8.8,2.7
		c0.6,0.3,1.3,0.6,1.9,1c0.5,0.3,1.1,0.4,1.7,0c-0.6-0.5-1.4-0.7-2-1c-6.1-2.8-11.7-6.3-16.7-10.6c-1.2-1-2.5-0.9-3.9-1.2
		c-0.3-0.1-0.5,0.2-0.6,0.4c-2.3,2.5-5.3,3.3-8.6,3.2c-5.5-0.1-10.3-2-14.9-4.8c-2.4-1.4-4.6-3-6.2-5.2c-0.8-1.1-0.8-1.1,0.5-1.6
		c3.5-1.4,7.1-2.2,10.8-2.1c5.8,0,11.1,1.6,15.4,5.5c1.1,1,2.1,1.9,3.1,3c0.4,0.4,0.8,0.6,1.6,0.5c-0.7-0.7-1.2-1.2-1.8-1.8
		c-5-4.8-9.3-10.2-13-16c-0.7-1.2-2.2-1.5-3.3-2.3c-0.1,0-0.2,0-0.3,0.1c-4.1,2.1-8.1,1.2-11.9-0.7c-3-1.5-5.4-3.8-7.6-6.1
		c-2.7-2.9-5-6-6.2-9.7c-0.5-1.5-0.5-1.5,1.2-1.5c7.2-0.2,13.2,2.4,18.3,7.1c2.8,2.6,4.8,5.7,6.5,9.1c0.5,1,0.5,1,1.5,1.4
		c0.2-0.3-0.1-0.5-0.2-0.7c-2.8-4.7-5.2-9.7-7.2-14.8c-1.1-2.8-2.1-5.7-3.1-8.6c-0.4-1.2-1.5-2.2-2.2-3.2c-0.1-0.2-0.4-0.1-0.6-0.1
		c-3.9,0.6-6.9-1.1-9.5-3.5c-3.4-3.1-5.8-7-7.7-11.1c-1.1-2.4-2.2-4.9-2.7-7.6c-0.2-0.9-0.3-1.9-0.3-2.8c0-0.6,0.2-0.7,0.8-0.5
		c3.6,1.1,6.8,2.9,9.6,5.3c2.9,2.5,5.4,5.3,7.3,8.6c1.8,3.2,2.8,6.6,3.5,10c0.1,0.5,0.1,1,0.8,1.3c0-1.1-0.4-2.1-0.6-3.1
		c-0.8-3.7-1.3-7.4-1.7-11.2c-0.3-3.1-0.3-6.2-0.6-9.3c-0.1-1.3-0.9-2.4-1.4-3.5c-0.1-0.2-0.2-0.2-0.4-0.2c-3.6-0.5-5.9-2.7-7.7-5.5
		c-2.6-4-3.9-8.4-4.8-13c-0.6-2.9-1-5.9-0.9-8.9c0-1.2,0.1-2.5,0.4-3.8c1.7,1,3.2,2.2,4.6,3.6c4.9,4.8,8,10.5,9.2,17.1
		c0.5,3,0.5,6.1,0.3,9.2c0,0.7,0,1.3,0.7,1.8c0.1-1.7,0.1-3.2,0.2-4.8c0.2-6,0.8-12,1.8-17.9c0.1-0.9-0.5-1.5-0.5-2.3
		c-0.1-1.2-0.7-2-1.9-2.7c-3.2-1.9-4.6-5.1-5.2-8.4c-1.3-6.6-1.2-13.2,0.2-19.8c0.2-1.1,0.7-2.2,1-3.3c0.2-0.5,0.3-0.7,0.8-0.2
		c3.1,3.5,5.4,7.4,6.6,11.8c0.9,3.3,1.3,6.7,1,10.2c-0.3,3.2-0.8,6.3-1.7,9.4c-0.2,0.7,0,1.5,0.2,2.2c0.4-0.3,0.4-0.7,0.4-1.1
		c1.4-6.8,3.7-13.3,6.3-19.7c0.5-1.2,0.2-2.6,0.3-3.9c0-0.2-0.2-0.3-0.3-0.4c-3.1-2.6-4.1-6-4.2-9.7c-0.2-4.6,0.7-9.1,1.9-13.5
		c0.9-3.2,2-6.2,3.8-9c0.2-0.3,0.3-0.7,0.7-0.7c0.4,0,0.4,0.5,0.5,0.8c2.5,4.6,3.4,9.5,3.4,14.6c0,5.7-1.3,11.2-4.3,16.2
		c-0.4,0.7-0.9,1.5-0.5,2.5c0.8-1,1.2-2.2,1.7-3.2c2.9-5.7,6.3-11.1,10.1-16.3c0.9-1.2,0.6-2.7,0.8-4c0-0.1-0.1-0.2-0.2-0.3
		c-2.1-2.2-2.6-4.8-2.5-7.6c0-4,1.1-7.7,2.9-11.2c2-4,4.5-7.7,8-10.7c0.3-0.3,0.6-0.8,1-0.6c0.4,0.1,0.3,0.7,0.4,1.1
		c0.6,3.7,0.6,7.4,0,11.2c-0.6,4.1-1.6,8-3.7,11.6c-1.2,2.2-2.7,4.1-4.4,5.9c-0.7,0.8-0.9,1.6-0.9,2.8c0.7-0.9,1.4-1.6,1.9-2.3
		c3.8-4.8,8.1-9.1,12.7-13.2c1-0.9,1.4-1.6,1.4-2.9c0-2.7,1.4-4.9,3.2-6.8c2.6-2.8,5.9-4.6,9.5-5.9c2.6-1,5.3-1.8,8-2.8
		c-0.4,1.8-1.1,3.5-1.9,5.1c-2.5,5.1-6.1,9.1-11.6,11.4c-1.5,0.6-3,1.2-4.6,1.1c-1.9-0.1-3.2,0.8-4.4,1.9
		c-3.8,3.3-7.3,6.9-10.5,10.8c-0.1,0.1-0.1,0.2-0.1,0.2c1.3,0.3,1.7,0.1,2.1-0.9c1.3-2.9,3.8-4.6,6.8-5.5c2.9-0.9,5.9-0.9,8.9-0.5
		c2.7,0.4,5.4,0.8,8.2,1.2c-1.4,2-3.1,3.6-5.1,4.9C71,57.1,66,58.3,60.3,57c-1-0.2-2-0.6-2.9-1.2c-0.6-0.4-1.2-0.5-1.9-0.3
		c-0.1,0-0.3,0.1-0.4,0.1c-1.5-0.3-2.1,0.8-2.9,1.8c-3.6,4.6-6.7,9.5-9.5,14.6c-0.1,0.2-0.2,0.5-0.4,0.7c-0.1,0.2-0.2,0.3-0.1,0.5
		c0.1,0.1,0.3,0.1,0.4,0c0.7-0.2,1.3-0.3,1.5-1.4c0.9-4.3,4-6.7,8.2-8.1c2.8-0.9,5.6-1.3,8.5-1.3c2.3-0.1,4.5-0.2,6.8-0.3
		c-0.3,1-0.9,1.7-1.5,2.5c-2.3,3.1-5.1,5.8-8.7,7.5c-4,2-8.2,2.9-12.7,1.4c-0.4-0.1-0.8-0.1-1.2,0c-0.7,0.3-1.3,0.7-2,0.7
		c-0.4,0-0.5,0.4-0.6,0.6c-2,4-3.8,8.1-5.4,12.2c-1.2,3.2-2.2,6.4-3.1,9.6c-0.1,0.2-0.2,0.4-0.1,0.7c1.5-0.5,1.6-0.6,1.6-2.1
		c0.1-4.9,2.6-8.4,6.8-11.1c3.1-2,6.6-3.3,10-4.5c1.7-0.6,3.4-1.2,5.2-1.9c-0.2,1.6-0.8,2.9-1.4,4.3c-1.7,3.9-4,7.4-7.4,10.2
		c-2.9,2.4-6,4.2-9.9,4.8c-0.1,0-0.1,0-0.2,0c-1.9-0.3-3.4,0.4-4.7,1.6c-0.4,0.3-0.6,0.6-0.7,1.1c-1.3,5-2.1,10-2.8,15.1
		c-0.4,3.6-0.7,7.1-0.7,10.8c1.2-0.7,1.5-1.3,1.3-2.6c-0.7-4.4,0.5-8.3,2.9-12c2.6-3.9,6.3-6.6,10-9.4c1.5-1.1,3-2.3,4.6-3.5
		c0.2,1.3,0,2.6-0.2,3.8c-0.7,4.7-2,9.2-4.7,13.2c-2.3,3.4-4.9,6.4-8.8,8.2c-0.1,0.1-0.2,0.1-0.3,0.2c-2.2,0.3-3.4,2-4.6,3.5
		c-0.3,0.3-0.2,0.7-0.2,1c0,4,0.2,8,0.6,12c0.5,4.2,1.1,8.3,2,12.4c0,0.2,0.1,0.4,0.2,0.6c1-1,1.1-1.9,0.5-3c-1.2-2.2-1.2-4.5-1-6.9
		c0.4-4.5,2.7-8.3,5.3-11.8c2.6-3.5,5.3-6.9,8-10.3c0,0,0.1-0.1,0.2-0.1c0.4,1.5,0.5,3.1,0.6,4.7c0.3,5-0.5,9.8-2.5,14.5
		c-1.9,4.3-4.4,8.2-8.6,10.9c-0.4,0.2-0.6,0.5-0.7,0.9c0,0.1-0.1,0.2-0.1,0.3c-1.3,1.9-1.1,3.9-0.4,6c2.2,7.4,5,14.6,8.8,21.4
		c0.1,0.1,0.1,0.3,0.3,0.3c0.5-1.6,0.5-1.6-0.6-2.9c-1.5-1.7-2-3.8-2.5-5.9c-1-4.7,0.2-9,1.7-13.4c1.2-3.7,2.9-7.3,4.4-10.9
		c0.2-0.4,0.3-0.8,0.5-1.4c1,1.7,1.6,3.4,2.2,5.1c1,3.2,1.7,6.4,1.6,9.7c-0.1,6.2-1.4,12.1-5.4,17.2c-1.1,1.4-1.2,4.2-0.3,5.7
		c3.1,5.1,6.7,9.9,10.9,14.4c1,1.1,2.1,2.1,3.2,3.2c0.4-1.6,0.2-1.9-1.1-2.7c-2.5-1.6-4-4-5-6.7c-1.1-2.9-1.2-5.9-1.1-8.9
		c0.2-4.8,1-9.6,1.6-14.3c0-0.4,0.1-0.8,0.1-1.3c1,0.6,1.5,1.4,2.1,2.2c3.5,4.6,5.7,9.7,6.4,15.3c0.5,4.6,0.2,9.2-1.7,13.5
		c-0.4,0.9,0,1.9-0.1,2.8c-0.2,1.1,0.6,1.6,1.3,2.3c5.6,4.9,11.7,9,18.6,12.1c0.3,0.1,0.7,0.7,0.9,0.1c0.2-0.5,0-1.3-0.6-1.4
		c-5.4-0.9-8.1-4.7-9.9-9.1c-1.4-3.3-2-6.8-2.5-10.4c-0.3-2.1-0.7-4.3-1.1-6.4C65.2,187.6,65.2,187.3,65.1,186.8z"/>
	<path class="st0" d="M190.6,186.8c-1.9,0.7-3.4,1.7-4.8,2.8c-5.6,4.3-8.7,9.9-9.9,16.6c-0.4,2.1-0.2,4.1,0,6.2
		c0.1,1.1-0.4,2.1-0.6,3.2c-0.1,0.3-0.4,0.4-0.6,0.5c-5.1,2-10.4,3.6-15.8,4.5c-0.4,0.1-0.9,0-1.2,0.3c-0.4,0.5-0.7,1.1-0.5,1.7
		c0.2,0.4,0.9,0.1,1.3,0c5-0.7,9.9-2,14.7-3.8c0.9-0.3,1.6,0.2,2.4,0.2c0.9,0,1.4,0.5,1.9,1.2c2,3.3,5.2,5,9,5.7
		c6.7,1.3,13.1,0.4,19.2-2.2c1-0.4,1.9-1,2.7-1.7c0.4-0.3,0.5-0.5,0-0.9c-5.8-4.6-12.3-7.4-20-7c-3.1,0.2-6,1.3-8.8,2.7
		c-0.6,0.3-1.3,0.6-1.9,1c-0.5,0.3-1.1,0.4-1.7,0c0.6-0.5,1.4-0.7,2-1c6.1-2.8,11.7-6.3,16.7-10.6c1.2-1,2.5-0.9,3.9-1.2
		c0.3-0.1,0.5,0.2,0.6,0.4c2.3,2.5,5.3,3.3,8.6,3.2c5.5-0.1,10.3-2,14.9-4.8c2.4-1.4,4.6-3,6.2-5.2c0.8-1.1,0.8-1.1-0.5-1.6
		c-3.5-1.4-7.1-2.2-10.8-2.1c-5.8,0-11.1,1.6-15.4,5.5c-1.1,1-2.1,1.9-3.1,3c-0.4,0.4-0.8,0.6-1.6,0.5c0.7-0.7,1.2-1.2,1.8-1.8
		c5-4.8,9.3-10.2,13-16c0.7-1.2,2.2-1.5,3.3-2.3c0.1,0,0.2,0,0.3,0.1c4.1,2.1,8.1,1.2,11.9-0.7c3-1.5,5.4-3.8,7.6-6.1
		c2.7-2.9,5-6,6.2-9.7c0.5-1.5,0.5-1.5-1.2-1.5c-7.2-0.2-13.2,2.4-18.3,7.1c-2.8,2.6-4.8,5.7-6.5,9.1c-0.5,1-0.5,1-1.5,1.4
		c-0.2-0.3,0.1-0.5,0.2-0.7c2.8-4.7,5.2-9.7,7.2-14.8c1.1-2.8,2.1-5.7,3.1-8.6c0.4-1.2,1.5-2.2,2.2-3.2c0.1-0.2,0.4-0.1,0.6-0.1
		c3.9,0.6,6.9-1.1,9.5-3.5c3.4-3.1,5.8-7,7.7-11.1c1.1-2.4,2.2-4.9,2.7-7.6c0.2-0.9,0.3-1.9,0.3-2.8c0-0.6-0.2-0.7-0.8-0.5
		c-3.6,1.1-6.8,2.9-9.6,5.3c-2.9,2.5-5.4,5.3-7.3,8.6c-1.8,3.2-2.8,6.6-3.5,10c-0.1,0.5-0.1,1-0.8,1.3c0-1.1,0.4-2.1,0.6-3.1
		c0.8-3.7,1.3-7.4,1.7-11.2c0.3-3.1,0.3-6.2,0.6-9.3c0.1-1.3,0.9-2.4,1.4-3.5c0.1-0.2,0.2-0.2,0.4-0.2c3.6-0.5,5.9-2.7,7.7-5.5
		c2.6-4,3.9-8.4,4.8-13c0.6-2.9,1-5.9,0.9-8.9c0-1.2-0.1-2.5-0.4-3.8c-1.7,1-3.2,2.2-4.6,3.6c-4.9,4.8-8,10.5-9.2,17.1
		c-0.5,3-0.5,6.1-0.3,9.2c0,0.7,0,1.3-0.7,1.8c-0.1-1.7-0.1-3.2-0.2-4.8c-0.2-6-0.8-12-1.8-17.9c-0.1-0.9,0.5-1.5,0.5-2.3
		c0.1-1.2,0.7-2,1.9-2.7c3.2-1.9,4.6-5.1,5.2-8.4c1.3-6.6,1.2-13.2-0.2-19.8c-0.2-1.1-0.7-2.2-1-3.3c-0.2-0.5-0.3-0.7-0.8-0.2
		c-3.1,3.5-5.4,7.4-6.6,11.8c-0.9,3.3-1.3,6.7-1,10.2c0.3,3.2,0.8,6.3,1.7,9.4c0.2,0.7,0,1.5-0.2,2.2c-0.4-0.3-0.4-0.7-0.4-1.1
		c-1.4-6.8-3.7-13.3-6.3-19.7c-0.5-1.2-0.2-2.6-0.3-3.9c0-0.2,0.2-0.3,0.3-0.4c3.1-2.6,4.1-6,4.2-9.7c0.2-4.6-0.7-9.1-1.9-13.5
		c-0.9-3.2-2-6.2-3.8-9c-0.2-0.3-0.3-0.7-0.7-0.7c-0.4,0-0.4,0.5-0.5,0.8c-2.5,4.6-3.4,9.5-3.4,14.6c0,5.7,1.3,11.2,4.3,16.2
		c0.4,0.7,0.9,1.5,0.5,2.5c-0.8-1-1.2-2.2-1.7-3.2c-2.9-5.7-6.3-11.1-10.1-16.3c-0.9-1.2-0.6-2.7-0.8-4c0-0.1,0.1-0.2,0.2-0.3
		c2.1-2.2,2.6-4.8,2.5-7.6c0-4-1.1-7.7-2.9-11.2c-2-4-4.5-7.7-8-10.7c-0.3-0.3-0.6-0.8-1-0.6c-0.4,0.1-0.3,0.7-0.4,1.1
		c-0.6,3.7-0.6,7.4,0,11.2c0.6,4.1,1.6,8,3.7,11.6c1.2,2.2,2.7,4.1,4.4,5.9c0.7,0.8,0.9,1.6,0.9,2.8c-0.7-0.9-1.4-1.6-1.9-2.3
		c-3.8-4.8-8.1-9.1-12.7-13.2c-1-0.9-1.4-1.6-1.4-2.9c0-2.7-1.4-4.9-3.2-6.8c-2.6-2.8-5.9-4.6-9.5-5.9c-2.6-1-5.3-1.8-8-2.8
		c0.4,1.8,1.1,3.5,1.9,5.1c2.5,5.1,6.1,9.1,11.6,11.4c1.5,0.6,3,1.2,4.6,1.1c1.9-0.1,3.2,0.8,4.4,1.9c3.8,3.3,7.3,6.9,10.5,10.8
		c0.1,0.1,0.1,0.2,0.1,0.2c-1.3,0.3-1.7,0.1-2.1-0.9c-1.3-2.9-3.8-4.6-6.8-5.5c-2.9-0.9-5.9-0.9-8.9-0.5c-2.7,0.4-5.4,0.8-8.2,1.2
		c1.4,2,3.1,3.6,5.1,4.9c4.6,3.2,9.7,4.3,15.3,3.1c1-0.2,2-0.6,2.9-1.2c0.6-0.4,1.2-0.5,1.9-0.3c0.1,0,0.3,0.1,0.4,0.1
		c1.5-0.3,2.1,0.8,2.9,1.8c3.6,4.6,6.7,9.5,9.5,14.6c0.1,0.2,0.2,0.5,0.4,0.7c0.1,0.2,0.2,0.3,0.1,0.5c-0.1,0.1-0.3,0.1-0.4,0
		c-0.7-0.2-1.3-0.3-1.5-1.4c-0.9-4.3-4-6.7-8.2-8.1c-2.8-0.9-5.6-1.3-8.5-1.3c-2.3-0.1-4.5-0.2-6.8-0.3c0.3,1,0.9,1.7,1.5,2.5
		c2.3,3.1,5.1,5.8,8.7,7.5c4,2,8.2,2.9,12.7,1.4c0.4-0.1,0.8-0.1,1.2,0c0.7,0.3,1.3,0.7,2,0.7c0.4,0,0.5,0.4,0.6,0.6
		c2,4,3.8,8.1,5.4,12.2c1.2,3.2,2.2,6.4,3.1,9.6c0.1,0.2,0.2,0.4,0.1,0.7c-1.5-0.5-1.6-0.6-1.6-2.1c-0.1-4.9-2.6-8.4-6.8-11.1
		c-3.1-2-6.6-3.3-10-4.5c-1.7-0.6-3.4-1.2-5.2-1.9c0.2,1.6,0.8,2.9,1.4,4.3c1.7,3.9,4,7.4,7.4,10.2c2.9,2.4,6,4.2,9.9,4.8
		c0.1,0,0.1,0,0.2,0c1.9-0.3,3.4,0.4,4.7,1.6c0.4,0.3,0.6,0.6,0.7,1.1c1.3,5,2.1,10,2.8,15.1c0.4,3.6,0.7,7.1,0.7,10.8
		c-1.2-0.7-1.5-1.3-1.3-2.6c0.7-4.4-0.5-8.3-2.9-12c-2.6-3.9-6.3-6.6-10-9.4c-1.5-1.1-3-2.3-4.6-3.5c-0.2,1.3,0,2.6,0.2,3.8
		c0.7,4.7,2,9.2,4.7,13.2c2.3,3.4,4.9,6.4,8.8,8.2c0.1,0.1,0.2,0.1,0.3,0.2c2.2,0.3,3.4,2,4.6,3.5c0.3,0.3,0.2,0.7,0.2,1
		c0,4-0.2,8-0.6,12c-0.5,4.2-1.1,8.3-2,12.4c0,0.2-0.1,0.4-0.2,0.6c-1-1-1.1-1.9-0.5-3c1.2-2.2,1.2-4.5,1-6.9
		c-0.4-4.5-2.7-8.3-5.3-11.8c-2.6-3.5-5.3-6.9-8-10.3c0,0-0.1-0.1-0.2-0.1c-0.4,1.5-0.5,3.1-0.6,4.7c-0.3,5,0.5,9.8,2.5,14.5
		c1.9,4.3,4.4,8.2,8.6,10.9c0.4,0.2,0.6,0.5,0.7,0.9c0,0.1,0.1,0.2,0.1,0.3c1.3,1.9,1.1,3.9,0.4,6c-2.2,7.4-5,14.6-8.8,21.4
		c-0.1,0.1-0.1,0.3-0.3,0.3c-0.5-1.6-0.5-1.6,0.6-2.9c1.5-1.7,2-3.8,2.5-5.9c1-4.7-0.2-9-1.7-13.4c-1.2-3.7-2.9-7.3-4.4-10.9
		c-0.2-0.4-0.3-0.8-0.5-1.4c-1,1.7-1.6,3.4-2.2,5.1c-1,3.2-1.7,6.4-1.6,9.7c0.1,6.2,1.4,12.1,5.4,17.2c1.1,1.4,1.2,4.2,0.3,5.7
		c-3.1,5.1-6.7,9.9-10.9,14.4c-1,1.1-2.1,2.1-3.2,3.2c-0.4-1.6-0.2-1.9,1.1-2.7c2.5-1.6,4-4,5-6.7c1.1-2.9,1.2-5.9,1.1-8.9
		c-0.2-4.8-1-9.6-1.6-14.3c0-0.4-0.1-0.8-0.1-1.3c-1,0.6-1.5,1.4-2.1,2.2c-3.5,4.6-5.7,9.7-6.4,15.3c-0.5,4.6-0.2,9.2,1.7,13.5
		c0.4,0.9,0,1.9,0.1,2.8c0.2,1.1-0.6,1.6-1.3,2.3c-5.6,4.9-11.7,9-18.6,12.1c-0.3,0.1-0.7,0.7-0.9,0.1c-0.2-0.5,0-1.3,0.6-1.4
		c5.4-0.9,8.1-4.7,9.9-9.1c1.4-3.3,2-6.8,2.5-10.4c0.3-2.1,0.7-4.3,1.1-6.4C190.5,187.6,190.5,187.3,190.6,186.8z"/>
</g>
</svg>
