<?xml version="1.0" encoding="utf-8"?>
<!-- Generator: Adobe Illustrator 17.0.0, SVG Export Plug-In . SVG Version: 6.00 Build 0)  -->
<!DOCTYPE svg PUBLIC "-//W3C//DTD SVG 1.1//EN" "http://www.w3.org/Graphics/SVG/1.1/DTD/svg11.dtd" [
	<!ENTITY ns_flows "http://ns.adobe.com/Flows/1.0/">
	<!ENTITY ns_extend "http://ns.adobe.com/Extensibility/1.0/">
	<!ENTITY ns_ai "http://ns.adobe.com/AdobeIllustrator/10.0/">
	<!ENTITY ns_graphs "http://ns.adobe.com/Graphs/1.0/">
]>
<svg version="1.1" id="Layer_2" xmlns:x="&ns_extend;" xmlns:i="&ns_ai;" xmlns:graph="&ns_graphs;"
	 xmlns="http://www.w3.org/2000/svg" xmlns:xlink="http://www.w3.org/1999/xlink" xmlns:a="http://ns.adobe.com/AdobeSVGViewerExtensions/3.0/"
	 x="0px" y="0px" width="256px" height="256px" viewBox="0 0 256 256" style="enable-background:new 0 0 256 256;"
	 xml:space="preserve">
<style type="text/css">
	.st0{fill:#FFFFFF;}
	.st1{fill:#54B948;}
	.st2{fill:#1D8C8E;}
	.st3{fill:#14DEAC;}
	.st4{fill:#1466AC;}
	.st5{fill:#757575;}
	.st6{fill:#B69442;}
	.st7{fill:#1A234D;}
	.st8{fill:#AA0629;}
	.st9{fill:#FF4A49;}
	.st10{fill:#3C6643;}
	.st11{fill:none;stroke:#FF4A49;stroke-miterlimit:10;}
	.st12{fill:#E70084;}
	.st13{fill:#508A72;}
	.st14{fill:#01A663;}
	.st15{fill:#015297;}
	.st16{fill:#B0B0B0;}
	.st17{fill:#E1062F;}
	.st18{fill:#D80000;stroke:#FFFFFF;stroke-width:2;stroke-miterlimit:10;}
	.st19{fill:#D80000;}
	.st20{fill:#8ABE23;}
	.st21{fill:#1D1D1B;}
	.st22{fill:#FEFEFE;}
	.st23{fill:#FF0000;}
	.st24{fill:#FF1D1B;}
	.st25{fill:#6DB2DE;}
	.st26{fill:#FF1D25;}
	.st27{fill:#FFDA00;}
	.st28{fill:#024D9E;}
	.st29{fill:#6B97C6;}
	.st30{fill:#000078;}
	.st31{fill:none;stroke:#FFFFFF;stroke-width:6;stroke-linecap:round;stroke-miterlimit:10;}
	.st32{fill:#FFEE34;}
	.st33{fill:none;stroke:#000000;stroke-width:4;stroke-miterlimit:10;}
	.st34{fill:#D11E24;}
	.st35{fill:#D71F26;}
	.st36{fill:#020000;}
	.st37{fill:none;stroke:#000000;stroke-width:2;stroke-miterlimit:10;}
	.st38{clip-path:url(#SVGID_2_);}
	.st39{fill:#00317D;}
	.st40{fill:#00737D;}
	.st41{fill:#ED1C24;}
	.st42{fill:#2678C7;}
	.st43{fill:#1853A6;}
	.st44{fill:#CB0000;}
	.st45{fill:#E61C21;}
	.st46{clip-path:url(#SVGID_4_);}
	.st47{fill:#6BDEF1;}
	.st48{clip-path:url(#SVGID_6_);}
	.st49{fill:#0165B2;}
	.st50{fill:#DE1134;}
	.st51{fill:#00A668;}
	.st52{fill:#FFE60B;}
	.st53{fill:#843D00;stroke:#000000;stroke-miterlimit:10;}
	.st54{fill:#EC1F27;}
	.st55{fill:#162984;}
	.st56{fill:#1853A6;stroke:#1853A6;stroke-miterlimit:10;}
	.st57{fill:none;}
	.st58{fill:none;stroke:#1853A6;stroke-width:0.9;stroke-miterlimit:10;}
	.st59{fill:#1853A6;stroke:#1853A6;stroke-width:0.9;stroke-miterlimit:10;}
	.st60{fill:#B5985A;}
	.st61{fill:#FFE60B;stroke:#000000;stroke-width:6;stroke-miterlimit:10;}
	.st62{fill:#008DCD;}
	.st63{fill:#009939;}
	.st64{fill:#2E3092;}
	.st65{fill:#EE3224;}
	.st66{fill:#005BAB;}
	.st67{fill:#D30027;}
	.st68{fill:#FFFFFF;stroke:#D30027;stroke-width:10;stroke-miterlimit:10;}
	.st69{fill:#E81C2F;}
	.st70{fill:#DC032B;}
	.st71{fill:#F25448;}
	.st72{fill:#FFFFFF;stroke:#F25448;stroke-width:6;stroke-miterlimit:10;}
	.st73{fill:#05A08D;}
	.st74{fill:#1875CE;}
	.st75{fill:#D72427;}
	.st76{fill:#004993;}
	.st77{fill:#007BB0;}
	.st78{fill:#FFEB00;}
	.st79{fill:#664A9E;}
	.st80{fill:#F4C701;}
	.st81{fill:#EBBE12;}
	.st82{fill:#44B3DB;}
	.st83{fill:#F6FF82;}
	.st84{fill:#FFC918;}
	.st85{fill:#0361A4;}
	.st86{fill:#009FE3;}
	.st87{fill:#E30217;}
	.st88{fill:#FDEA00;}
	.st89{fill:#E91B00;}
	.st90{fill:#2B2763;}
	.st91{fill:#EE1A22;}
	.st92{fill:#F1AA25;}
	.st93{fill:#93000C;}
	.st94{fill:none;stroke:#1D1D1B;stroke-width:4;}
	.st95{fill:#3E4E70;}
	.st96{fill:#096CB6;}
	.st97{fill:#0559A8;}
	.st98{fill:#F9ED1A;}
	.st99{fill:#949494;}
	.st100{fill:#FFD033;}
	.st101{fill:#243D89;}
	.st102{fill:#F8C936;}
	.st103{fill:#D44128;}
	.st104{fill:#ED1B23;}
	.st105{fill:#0C529C;}
	.st106{fill:#E31E24;}
	.st107{fill:#0263B0;}
	.st108{fill:#007AC2;}
	.st109{fill:#EF3D1F;}
	.st110{fill:#EE1C24;}
	.st111{fill:#FDEA00;stroke:#000000;stroke-width:0.6509;}
	.st112{fill:#FDEA00;stroke:#000000;stroke-width:0.6979;}
	.st113{fill:#46A0BE;}
	.st114{fill:#005FA5;}
	.st115{fill:#00904C;}
	.st116{fill:#E21F26;}
	.st117{fill:#FD0001;}
	.st118{fill:#0066B3;}
	.st119{fill:#E20019;}
	.st120{fill:#0171BC;}
	.st121{fill:#01305D;}
	.st122{fill:#1B7EE9;}
	.st123{fill:#BA0D0B;}
	.st124{fill:none;stroke:#000000;stroke-width:3;stroke-miterlimit:10;}
	.st125{fill:#FFFFFF;stroke:#000000;stroke-width:0.8836;stroke-miterlimit:10;}
	.st126{fill:#FFFFFF;stroke:#000000;stroke-width:0.9759;stroke-miterlimit:10;}
	.st127{fill:#0053A1;}
	.st128{fill:#FFE100;}
	.st129{fill:#FFE500;}
	.st130{fill:none;stroke:#FFE500;stroke-width:2;stroke-miterlimit:10;}
	.st131{fill:#01AFF3;}
	.st132{fill:#ED1B28;}
	.st133{fill:#E2000A;}
</style>
<g>
	<path class="st2" d="M128.4,20c0-46.9,118.8,10.3,84.3,40.6c34.5-30.3,63.9,98.3,20.8,91.2c43.1,7.1-39.2,110.2-58.3,73.1
		c19.2,37.1-112.7,37.1-93.5,0c-19.2,37.1-101.4-66.1-58.3-73.1c-43.1,7.1-13.7-121.5,20.8-91.2C9.6,30.4,128.4-26.9,128.4,20z"/>
	<path class="st0" d="M128.4,26.4c0-44.1,111.8,9.7,79.3,38.2c32.5-28.5,60.1,92.5,19.6,85.8c40.5,6.7-36.8,103.7-54.9,68.8
		c18,34.9-106,34.9-88,0c-18,34.9-95.4-62.1-54.9-68.8C-11,157.1,16.6,36.1,49.1,64.6C16.6,36.1,128.4-17.7,128.4,26.4z"/>
	<path class="st2" d="M128.4,36.5c0-39.7,100.6,8.7,71.4,34.4c29.2-25.6,54.1,83.2,17.6,77.2c36.5,6-33.2,93.3-49.4,61.9
		c16.2,31.4-95.4,31.4-79.2,0c-16.2,31.4-85.8-55.9-49.4-61.9C2.9,154.1,27.8,45.3,57,70.9C27.8,45.3,128.4-3.2,128.4,36.5z"/>
	<g>
		<g>
			<path class="st0" d="M112,91.5c0-3,0-6.1,0-9.1c0-2,0.5-3.7,1.6-5.4c2.9-4.3,5.7-8.7,7.9-13.5c0.3-0.8,0.7-1.6,0.7-2.4
				c0-0.6,0.3-0.6,0.8-0.6c0.6,0.1,1.1,0.4,1.6,0.7c0.5,0.4,1,0.4,1.6,0.3c7.5-1.2,15.1-1.5,22.6,0.1c4.8,1,9.2,3,13.6,5.2
				c0.7,0.3,1.3,0.7,2,1c0.7,0.4,0.8,0.7,0.2,1.3c-2.1,2.3-4.2,4.6-6,7c-2.6,3.4-4,7.3-4.6,11.5c-0.1,0.8-0.2,1.5-0.4,2.3
				c-0.4,1.3-1.1,1.7-2.4,1.5c-0.7-0.1-1.3-0.3-2-0.5c-0.5-0.1-1-0.2-1.6-0.2c-1,0.1-1.3,0.4-1.3,1.5c-0.1,2.4-0.2,4.8-0.3,7.2
				c-0.1,1.8-0.1,3.5-0.2,5.3c0,0.1,0,0.2,0,0.4c1-1.3,1.8-2.6,2.8-3.9c1.9-2.4,4-4.7,6.2-6.9c1.7-1.7,3.5-3.4,4.7-5.5
				c0.2-0.4,0.4-0.8,0.3-1.4c-0.2-1.3,0.3-2.3,1.4-3.1c4.9-4,9.4-8.4,12.8-13.7c0.5-0.8,0.9-1.7,1.7-2.3c1-0.7,2.6-0.2,3,1
				c0.1,0.3-0.1,0.3-0.2,0.3c-2,0.9-2.4,1.9-1.7,4c0.7,2.4,2.1,4.5,3.4,6.6c2.9,4.5,6,8.7,9,13.1c1.2,1.7,2.3,3.5,3.2,5.5
				c0.1,0.3,0.3,0.7,0.4,1c0.7,1.8,0.4,3.2-1.2,4.5c-3.3,2.7-6.8,5.2-10.2,7.7c-3.4,2.5-6.7,5.2-9.6,8.2c-0.2,0.2-0.4,0.3-0.5,0.7
				c0.8,0,1.5,0,2.3,0c4.9,0.1,9.7,0.3,14.5,0.9c1.4,0.2,2.8,0.4,4.1,1.3c0.5,0.4,1,0.8,1.3,1.4c0.1,0.2,0.2,0.3,0.1,0.5
				c-0.1,0.2-0.3,0.1-0.5,0.1c-3.3-0.6-6.6-0.7-9.9-0.7c-3.9,0-7.8,0.2-11.6,0.6c-1.1,0.1-2,1.3-2,2.7c0,2,0,4.1,0.3,6.1
				c1.8,14.3,8.5,25.8,20,34.6c1.4,1.1,2.9,2.1,4.5,2.9c1.7,0.8,2.5,0.7,3.8-0.8c3.4-3.8,5.5-8.3,6.7-13.3c0.3-1.4,0.7-2.7,0.8-4.1
				c0-0.6,0.3-0.5,0.7-0.3c1.4,1,2.1,2.5,2.3,4.2c0.4,3-0.8,5.5-2.5,7.8c-2.2,2.9-4.6,5.7-7.2,8.2c-1.9,2-3.6,4.1-4.9,6.5
				c-1.7,3-3.3,6.1-4.7,9.3c-0.8,1.9-1.3,4-1.7,6c0,0.2,0.1,0.6-0.3,0.6c-0.3,0-0.4-0.3-0.5-0.5c-0.8-1.4-1-2.8-0.5-4.4
				c0.1-0.4,0.1-0.6-0.4-0.7c-9.3-3.1-16.6-8.9-22.5-16.6c-4-5.3-6.9-11.2-8.9-17.4c-2.3-7.2-3.6-14.7-3.6-22.3c0-0.6-0.2-0.9-0.8-1
				c-0.4-0.1-0.8-0.2-1.2-0.4c-0.3-0.1-0.7-0.1-0.7-0.5c0-0.3,0.4-0.3,0.7-0.4c1.7-0.6,3.4-1.2,5.1-1.8c3.1-1.1,6.1-2.4,8.9-4.2
				c0.1-0.1,0.2-0.1,0.4-0.3c-1.1-0.1-2-0.2-3-0.3c-4.6-0.4-9.3-0.6-13.9-0.4c-0.6,0-0.7,0.3-0.7,0.8c-0.1,11,0.1,22.1,0.5,33.1
				c0.1,3,0.2,5.9,0.1,8.9c0,0.3,0.1,0.5,0.3,0.7c0.5,0.6,0.9,1.3,1.3,1.9c0.3,0.5,0.2,0.8-0.4,1.1c-5.1,1.9-10,4.4-14.4,7.6
				c-2.2,1.7-4.3,3.5-5.9,5.8c-0.5,0.8-1,1.6-1.1,2.6c0,0.4,0.1,0.6,0.6,0.6c8.2-0.5,16.5-0.9,24.7-1c0.4,0,0.7,0,1-0.3
				c0.3-0.3,0.7-0.2,1-0.1c1.8,0.3,3.5,2.4,3.5,4.3c0,0.7-0.4,0.7-0.9,0.7c-3.5-0.1-6.9-0.2-10.4-0.2c-9.8-0.1-19.5-0.1-29.3,0.5
				c-1.8,0.1-3.7,0.2-5.5,0.3c-0.2,0-0.6,0.1-0.7-0.1c-0.1-0.3,0.3-0.4,0.5-0.5c2.3-1.3,4.8-2,7.3-2.5c0.3-0.1,0.6-0.2,0.8-0.5
				c1.7-2.6,3.7-5,5.6-7.4c0.5-0.6,0.7-1.3,0.8-2.1c0.4-10.9,0.6-21.9,0.7-32.8c0-0.1,0-0.2-0.1-0.5c-0.8,0.6-1.6,0.9-2.2,1.7
				c-2.8,3.5-5.7,7-8.7,10.3c-0.2,0.3-0.4,0.5-0.4,0.9c-0.2,1.7-0.4,3.3-1.1,4.9c-0.4,1-0.3,2,0.2,3c0.5,0.9,1.1,1.8,1.6,2.8
				c0.9,1.7,1.1,2.1-0.5,3.9c-1.1,1.2-2.3,2.3-3.4,3.5c-3.5,3.7-6.8,7.4-9.5,11.7c-0.8,1.3-1.5,2.7-2.2,4c-0.1,0.2-0.1,0.5-0.4,0.5
				c-0.3,0-0.3-0.3-0.4-0.5c-0.2-0.7-0.3-1.4-0.4-2.1c0-0.3-0.1-0.5-0.4-0.3c-2,0.6-3.7-0.1-5.3-1.2c-3-1.9-5.8-4-8.7-6.1
				c-5.9-4.2-11.8-8.5-18-12.2c-2.3-1.4-4.7-2.7-7.4-3.1c-0.5-0.1-1-0.1-1.4-0.2c-2.1-0.1-3.7,0.8-4.5,2.7c-0.5,1.1-0.8,2.2-0.8,3.4
				c0,0.2,0.1,0.4-0.1,0.5c-0.2,0.1-0.4-0.1-0.5-0.2c-0.9-0.8-1.4-1.8-1.6-3c-0.1-0.9,0.3-1.7,0.9-2.4c1.8-1.9,3.9-3.5,5.8-5.2
				c4.2-3.5,8.2-7.3,11.6-11.6c0.2-0.3,0.5-0.6,0.7-0.9c0.6-1.1,1.5-1.3,2.6-1.2c1.8,0.1,1.8,0.1,3.5-0.7c1.2-0.5,2.5-0.9,3.8-1.3
				c2.2-0.8,4.3-1.8,6.4-2.9c4.9-2.7,7.9-6.8,9.2-12.3c1.8-7.9,2.1-15.8,0.9-23.8c-1.1-7.5-4.9-13.5-10.3-18.6
				c-3.1-3-6.7-5.3-11-6.4c-2.5-0.6-5-0.7-7.5,0.2c-1.3,0.5-2,1.6-1.7,3c0.2,1.2,0.8,2.1,1.5,3c1.9,2.4,4.3,4.4,6.5,6.6
				c2.8,2.7,5.6,5.3,7.8,8.6c1.1,1.6,2,3.3,2.4,5.2c0.1,0.6,0.1,1.2,0,1.8c-0.1,0.3,0,0.5,0.4,0.6c0.5,0.1,0.9,0.2,1.4,0.3
				c0.8,0.2,0.8,0.2,0.2,0.9c-1,1.1-2,2.1-3,3.2c-3.5,3.5-6.6,7.4-9.8,11.2c-1.9,2.2-3.9,4.3-6.3,5.9c-0.9,0.6-1.9,1.2-3,1.3
				c-1.7,0.2-3-0.3-4.1-1.6c-0.2-0.2-0.4-0.5-0.2-0.8c0.1-0.3,0.4-0.1,0.7-0.2c1.9-0.1,3.8-0.2,5.6-1c0.3-0.1,0.6-0.3,0.9-0.4
				c2.5-1.4,3.3-3.2,2.5-5.9c-0.8-3-2.5-5.4-4.5-7.6c-3.9-4.4-8.2-8.5-12.5-12.5c-2.2-2-3-4.4-2.5-7.3c0.2-1.2,0.9-2.1,1.9-2.9
				c2.8-2.1,5.7-4.1,8.2-6.6c0.4-0.4,0.8-0.9,0.9-1.5c0.2-1.2,0.9-2.1,1.8-2.9c1.1-1,2.3-1.8,3.5-2.6c2.7-1.6,5.1-3.4,7.5-5.4
				c2-1.6,3.9-3.3,5.9-4.9c0.3-0.2,0.4-0.5,0.6-0.8c1.2-3.5,2.4-4.3,6.1-4.1c3.8,0.3,7.2,1.6,10.4,3.5c7.3,4.3,12.9,10.2,15.9,18.3
				c0.5,1.4,1,2.8,1.3,4.3C111.9,91.6,112,91.6,112,91.5z M125.6,140.3c0-0.3,0-0.4,0-0.5c0-6.6,0-13.1-0.1-19.7
				c-0.1-7.3-0.1-14.7-0.4-22c0-1.1-0.5-1.8-1.4-2.4c-0.3-0.2-0.7-0.3-0.7-0.6c0-0.4,0.5-0.5,0.7-0.6c0.3-0.2,0.7-0.3,1.1-0.5
				c2.1-0.8,4.3-1.5,6.4-2.2c4.1-1.3,8.3-2.4,12.4-3.5c2.4-0.6,4.5-0.5,6.5,1.1c0.1,0.1,0.2,0.2,0.4,0.2c0.6,0.4,0.9,0.2,1-0.5
				c0-0.4-0.1-0.8-0.3-1.1c-0.3-0.6-0.8-1.1-1.3-1.5c-2.1-1.7-4.5-2.8-6.9-3.8c-5.2-2.1-10.7-2.8-16.2-3.1c-2.5-0.1-5-0.1-7.5,0.4
				c-1.3,0.3-2.2,1-2.8,2.2c-0.3,0.7-0.5,1.5-0.5,2.3c-0.2,4.4-0.3,8.7-0.5,13.1c-0.3,10.7-0.5,21.4-0.7,32.1c0,1,0.3,1.5,1.1,2
				c2,1.3,3.9,2.8,5.7,4.4C122.9,137.5,124.2,138.7,125.6,140.3z M78.1,151.7c0.9,0.6,1.8,1.2,2.6,1.9c5.4,4.4,11.1,8.4,17,12.2
				c2.9,1.8,5.8,3.6,8.8,5.1c1.2,0.6,2.5,1,3.9,1c1,0,1.2-0.2,1-1.2c-0.2-0.8-0.5-1.5-1.1-2.1c-0.6-0.7-0.7-1.4-0.5-2.2
				c0.6-2.4,1.3-4.8,1.7-7.3c0.1-0.4,0-0.6-0.2-0.9c-1.9-2.4-3.8-4.8-6.2-6.7c-2.2-1.8-4.5-3.6-7.2-4.6c-2.4-0.9-3.8-0.2-4.7,2.1
				c-0.1,0.2-0.2,0.3-0.4,0.1c-0.9-0.8-0.9-3-0.1-3.8c0.6-0.6,1.2-1.1,1.8-1.7c3.2-2.6,6.3-5.3,8.7-8.6c1.1-1.5,2.2-3,2.6-4.9
				c0.1-0.7,0.5-1,1.1-1.1c1.1-0.3,2.1-0.2,3.2,0.1c0.7,0.2,1.4,0.5,2.2,0.8c-0.1-6.1-0.2-12.1-0.3-18.1c-0.2,0.5-0.4,1-0.5,1.5
				c-0.2,1.4-0.9,2.4-2.2,3.1c-0.6,0.3-1.1,0.8-1.4,1.4c-2.4,4-4.9,7.9-7.5,11.8c-2.6,3.8-5.2,7.5-8.1,10.9
				c-2.7,3.2-6.1,5.6-9.5,8.1C81.3,149.5,79.7,150.5,78.1,151.7z M145.4,115.7c0,2,0,3.9,0,5.7c0,0.5,0.3,0.4,0.6,0.4
				c6.6-0.4,13.1-0.7,19.7-0.8c0.4,0,0.7-0.1,1.1-0.4c1.7-1.3,3.4-2.5,5.1-3.8c1.2-0.9,2.3-1.8,3.3-2.9c1.1-1.4,1.1-2.6,0-4
				c-1.3-1.6-2.6-3.1-3.8-4.7c-3-3.9-5.9-7.8-8.1-12.3c-0.4-0.9-0.8-1.8-1.3-2.8c-0.1,0.1-0.2,0.2-0.3,0.3c-2.9,2.9-5.5,6-7.9,9.3
				c-2,2.8-3.9,5.7-5.1,9c-0.8,2.2-1.1,4.4-1.1,6.7c0,0.9-0.2,1.1-1.1,0.8C146.2,116,145.9,115.9,145.4,115.7z"/>
		</g>
	</g>
</g>
</svg>
