<?xml version="1.0" encoding="utf-8"?>
<!-- Generator: Adobe Illustrator 17.0.0, SVG Export Plug-In . SVG Version: 6.00 Build 0)  -->
<!DOCTYPE svg PUBLIC "-//W3C//DTD SVG 1.1//EN" "http://www.w3.org/Graphics/SVG/1.1/DTD/svg11.dtd" [
	<!ENTITY ns_flows "http://ns.adobe.com/Flows/1.0/">
	<!ENTITY ns_extend "http://ns.adobe.com/Extensibility/1.0/">
	<!ENTITY ns_ai "http://ns.adobe.com/AdobeIllustrator/10.0/">
	<!ENTITY ns_graphs "http://ns.adobe.com/Graphs/1.0/">
]>
<svg version="1.1" id="Layer_2" xmlns:x="&ns_extend;" xmlns:i="&ns_ai;" xmlns:graph="&ns_graphs;"
	 xmlns="http://www.w3.org/2000/svg" xmlns:xlink="http://www.w3.org/1999/xlink" xmlns:a="http://ns.adobe.com/AdobeSVGViewerExtensions/3.0/"
	 x="0px" y="0px" width="256px" height="256px" viewBox="0 0 256 256" style="enable-background:new 0 0 256 256;"
	 xml:space="preserve">
<style type="text/css">
	.st0{fill:#FFFFFF;}
	.st1{fill:#54B948;}
	.st2{fill:#1D8C8E;}
	.st3{fill:#14DEAC;}
	.st4{fill:#1466AC;}
	.st5{fill:#757575;}
	.st6{fill:#B69442;}
	.st7{fill:#1A234D;}
	.st8{fill:#AA0629;}
	.st9{fill:#FF4A49;}
	.st10{fill:#3C6643;}
	.st11{fill:none;stroke:#FF4A49;stroke-miterlimit:10;}
	.st12{fill:#E70084;}
	.st13{fill:#508A72;}
	.st14{fill:#01A663;}
	.st15{fill:#015297;}
	.st16{fill:#B0B0B0;}
	.st17{fill:#E1062F;}
	.st18{fill:#D80000;stroke:#FFFFFF;stroke-width:2;stroke-miterlimit:10;}
	.st19{fill:#D80000;}
	.st20{fill:#8ABE23;}
	.st21{fill:#1D1D1B;}
	.st22{fill:#FEFEFE;}
	.st23{fill:#FF0000;}
	.st24{fill:#FF1D1B;}
	.st25{fill:#6DB2DE;}
	.st26{fill:#FF1D25;}
	.st27{fill:#FFDA00;}
	.st28{fill:#024D9E;}
	.st29{fill:#6B97C6;}
	.st30{fill:#000078;}
	.st31{fill:none;stroke:#FFFFFF;stroke-width:6;stroke-linecap:round;stroke-miterlimit:10;}
	.st32{fill:#FFEE34;}
	.st33{fill:none;stroke:#000000;stroke-width:4;stroke-miterlimit:10;}
	.st34{fill:#D11E24;}
	.st35{fill:#D71F26;}
	.st36{fill:#020000;}
	.st37{fill:none;stroke:#000000;stroke-width:2;stroke-miterlimit:10;}
	.st38{clip-path:url(#SVGID_2_);}
	.st39{fill:#00317D;}
	.st40{fill:#00737D;}
	.st41{fill:#ED1C24;}
	.st42{fill:#2678C7;}
	.st43{fill:#1853A6;}
	.st44{fill:#CB0000;}
	.st45{fill:#E61C21;}
	.st46{clip-path:url(#SVGID_4_);}
	.st47{fill:#6BDEF1;}
	.st48{clip-path:url(#SVGID_6_);}
	.st49{fill:#0165B2;}
	.st50{fill:#DE1134;}
	.st51{fill:#00A668;}
	.st52{fill:#FFE60B;}
	.st53{fill:#843D00;stroke:#000000;stroke-miterlimit:10;}
	.st54{fill:#EC1F27;}
	.st55{fill:#162984;}
	.st56{fill:#1853A6;stroke:#1853A6;stroke-miterlimit:10;}
	.st57{fill:none;}
	.st58{fill:none;stroke:#1853A6;stroke-width:0.9;stroke-miterlimit:10;}
	.st59{fill:#1853A6;stroke:#1853A6;stroke-width:0.9;stroke-miterlimit:10;}
	.st60{fill:#B5985A;}
	.st61{fill:#FFE60B;stroke:#000000;stroke-width:6;stroke-miterlimit:10;}
	.st62{fill:#008DCD;}
	.st63{fill:#009939;}
	.st64{fill:#2E3092;}
	.st65{fill:#EE3224;}
	.st66{fill:#005BAB;}
	.st67{fill:#D30027;}
	.st68{fill:#FFFFFF;stroke:#D30027;stroke-width:10;stroke-miterlimit:10;}
	.st69{fill:#E81C2F;}
	.st70{fill:#DC032B;}
	.st71{fill:#F25448;}
	.st72{fill:#FFFFFF;stroke:#F25448;stroke-width:6;stroke-miterlimit:10;}
	.st73{fill:#05A08D;}
	.st74{fill:#1875CE;}
	.st75{fill:#D72427;}
	.st76{fill:#004993;}
	.st77{fill:#007BB0;}
	.st78{fill:#FFEB00;}
	.st79{fill:#664A9E;}
	.st80{fill:#F4C701;}
	.st81{fill:#EBBE12;}
	.st82{fill:#44B3DB;}
	.st83{fill:#F6FF82;}
	.st84{fill:#FFC918;}
	.st85{fill:#0361A4;}
	.st86{fill:#009FE3;}
	.st87{fill:#E30217;}
	.st88{fill:#FDEA00;}
	.st89{fill:#E91B00;}
	.st90{fill:#2B2763;}
	.st91{fill:#EE1A22;}
	.st92{fill:#F1AA25;}
	.st93{fill:#93000C;}
	.st94{fill:none;stroke:#1D1D1B;stroke-width:4;}
	.st95{fill:#3E4E70;}
	.st96{fill:#096CB6;}
	.st97{fill:#0559A8;}
	.st98{fill:#F9ED1A;}
	.st99{fill:#949494;}
	.st100{fill:#FFD033;}
	.st101{fill:#243D89;}
	.st102{fill:#F8C936;}
	.st103{fill:#D44128;}
	.st104{fill:#ED1B23;}
	.st105{fill:#0C529C;}
	.st106{fill:#E31E24;}
	.st107{fill:#0263B0;}
	.st108{fill:#007AC2;}
	.st109{fill:#EF3D1F;}
	.st110{fill:#EE1C24;}
	.st111{fill:#FDEA00;stroke:#000000;stroke-width:0.6509;}
	.st112{fill:#FDEA00;stroke:#000000;stroke-width:0.6979;}
	.st113{fill:#46A0BE;}
	.st114{fill:#005FA5;}
	.st115{fill:#00904C;}
	.st116{fill:#E21F26;}
	.st117{fill:#FD0001;}
	.st118{fill:#0066B3;}
	.st119{fill:#E20019;}
	.st120{fill:#0171BC;}
	.st121{fill:#01305D;}
	.st122{fill:#1B7EE9;}
	.st123{fill:#BA0D0B;}
	.st124{fill:none;stroke:#000000;stroke-width:3;stroke-miterlimit:10;}
	.st125{fill:#FFFFFF;stroke:#000000;stroke-width:0.8836;stroke-miterlimit:10;}
	.st126{fill:#FFFFFF;stroke:#000000;stroke-width:0.9759;stroke-miterlimit:10;}
	.st127{fill:#0053A1;}
	.st128{fill:#FFE100;}
	.st129{fill:#FFE500;}
	.st130{fill:none;stroke:#FFE500;stroke-width:2;stroke-miterlimit:10;}
	.st131{fill:#01AFF3;}
	.st132{fill:#ED1B28;}
	.st133{fill:#E2000A;}
</style>
<g>
	<g>
		<g>
			<path d="M249.3,188.7c-62.1,68.8-147.1-42.1-209.2,26.7c-7.5-58.7-15-117.5-22.5-176.2c62.1-68.8,147.1,42.1,209.2-26.7
				C234.3,71.2,241.8,130,249.3,188.7z M46.4,200.3c58.9-51.3,135.8,38.9,194.7-12.5c-6.8-53.4-13.6-106.8-20.5-160.2
				C161.7,78.9,84.8-11.3,25.9,40.1C32.7,93.5,39.5,146.9,46.4,200.3z"/>
		</g>
		<g>
			<path class="st0" d="M33,124.1c3.6,27.9,7,54.9,10.6,82.8c60.6-59,141.6,41.2,202-19.2c-3.6-27.9-7-54.9-10.6-82.8
				C174.6,165.3,93.6,65.1,33,124.1z"/>
			<path class="st66" d="M224.2,20.3c-60.4,60.4-141.4-39.8-202,19.2c3.6,28.2,7.2,56.4,10.8,84.6c60.6-59,141.6,41.2,202-19.2
				C231.4,76.7,227.8,48.5,224.2,20.3z"/>
		</g>
		<g>
			<path class="st66" d="M54.6,129.7c0.7,5.3,1.4,10.7,2,16c2.3-1.1,4.6-2,6.9-2.7c-0.7-5.3-1.4-10.7-2-16c2.1-0.7,4.3-1.3,6.5-1.7
				c1.8,14.2,3.6,28.3,5.4,42.5c-2.2,0.5-4.3,1-6.5,1.7c-0.7-5.6-1.4-11.2-2.1-16.8c-2.3,0.8-4.6,1.6-6.9,2.7
				c0.7,5.6,1.4,11.2,2.1,16.8c-2.1,1-4.2,2.1-6.3,3.4c-1.8-14.2-3.6-28.3-5.4-42.5C50.4,131.8,52.5,130.7,54.6,129.7z"/>
			<path class="st66" d="M81.6,154.9c0.5,2.6,2.6,3.9,5.1,3.8c1.7,0,3.3-0.4,4.7-1.1c0.6,2.5,1.2,5,1.8,7.5
				c-1.9,1.2-4.2,1.6-6.5,1.7c-6.3,0.2-10.6-4.9-11.8-14.7c-1-8.2,0.9-17.2,7.1-17.4c5.6-0.1,9.1,6.7,10.3,15.8
				c0.3,2.1,0.3,3.6,0.3,4.5C88.9,154.6,85.2,154.6,81.6,154.9z M85.7,147.3c-0.3-2.1-1.2-5.4-3.1-5.4c-1.9,0.1-2.2,3.4-2,5.6
				C82.3,147.4,84,147.3,85.7,147.3z"/>
			<path class="st66" d="M94.7,145.9c-0.6-4.4-1-7.5-1.5-10.3c1.9,0.2,3.9,0.4,5.8,0.7c0.3,1.8,0.6,3.5,0.9,5.3c0.1,0,0.1,0,0.2,0
				c0.4-4.1,2.5-5.4,4-5.1c0.6,0.1,0.9,0.2,1.4,0.4c0.4,3.4,0.9,6.9,1.3,10.3c-0.5-0.2-1-0.4-1.7-0.6c-1.7-0.3-3,0.6-3.1,3.2
				c0,0.5,0,1.4,0.1,2.3c0.6,5.1,1.3,10.2,1.9,15.2c-2.3-0.3-4.6-0.6-6.8-0.8C96.4,159.7,95.6,152.8,94.7,145.9z"/>
			<path class="st66" d="M115.6,131c0.4,2.9,0.7,5.8,1.1,8.7c1.3,0.3,2.7,0.7,4,1c0.3,2.6,0.7,5.3,1,7.9c-1.4-0.3-2.7-0.7-4-1
				c0.4,3.3,0.8,6.6,1.3,9.9c0.5,3.6,1.3,5.1,2.8,5.5c0.7,0.2,1,0.3,1.6,0.2c0.4,2.8,0.7,5.5,1.1,8.3c-0.8,0.2-2.2,0.2-4-0.3
				c-2-0.5-3.8-1.9-5-3.7c-1.4-2.1-2.4-5.1-3.1-10c-0.5-3.8-1-7.7-1.5-11.5c-0.8-0.2-1.6-0.3-2.3-0.5c-0.3-2.6-0.7-5.3-1-7.9
				c0.8,0.2,1.6,0.3,2.3,0.5c-0.2-1.9-0.5-3.8-0.7-5.7C111.3,131.9,113.5,131.5,115.6,131z"/>
			<path class="st66" d="M122.1,128.1c2.3,0.6,4.6,1.3,7,1.9c0.7,5.5,1.4,11.1,2.1,16.6c0,0,0.1,0,0.1,0c0.4-1,1.1-1.7,1.8-2.2
				c0.8-0.4,1.8-0.5,2.8-0.2c4.3,1.2,7.1,7,8.2,15.5c0.8,6,1.5,12,2.3,18c-2.3-0.7-4.6-1.3-7-2c-0.7-5.7-1.5-11.5-2.2-17.2
				c-0.4-3.4-1.3-5.8-3-6.3c-1.2-0.3-1.7,0.5-1.8,1.7c-0.1,0.5,0,1.4,0.1,2c0.8,6.2,1.6,12.3,2.4,18.5c-2.3-0.7-4.6-1.3-7-1.9
				C125.8,157.7,123.9,142.9,122.1,128.1z"/>
			<path class="st66" d="M166.1,175.7c0.4,3,0.8,5.7,1.3,7.5c-2.1-0.5-4.1-0.9-6.2-1.5c-0.2-1-0.5-2-0.7-2.9c0,0-0.1,0-0.1,0
				c-1,2.2-2.7,2.7-4.8,2.1c-3.7-1-6.8-6.1-7.4-11.4c-1.1-8.3,3.3-10.5,9.3-9c0-0.1,0-0.3,0-0.4c-0.2-1.4-1.1-2.9-3.4-3.6
				c-2-0.5-3.8,0-4.9,0.8c-0.7-2.4-1.4-4.9-2.1-7.3c1.1-0.7,3.6-1.6,7.4-0.6c6.8,1.7,9.5,8.5,10.4,15.8
				C165.2,168.7,165.6,172.2,166.1,175.7z M158.5,167.3c-2.6-0.7-4.2,0.1-3.8,3c0.3,2.1,1.3,3.4,2.4,3.7c0.9,0.2,1.8-0.4,2-1.9
				c0-0.4,0-1-0.1-1.5C158.8,169.5,158.7,168.4,158.5,167.3z"/>
			<path class="st66" d="M166.2,142.2c1.6-0.2,4.7,0,7.7,0.5c3.4,0.5,5.8,1.1,8.1,3.3c2.1,1.8,3.7,4.8,4.2,8.7
				c0.5,3.6-0.3,7.1-3,8.7c0,0.1,0,0.1,0,0.2c3.4,1.6,5.6,5.6,6.3,10.4c0.5,3.8-0.2,6.8-1.5,8.8c-1.6,2.4-4.5,3.7-10,2.9
				c-2.8-0.4-5.1-1.2-6.5-1.8C169.7,170,168,156.1,166.2,142.2z M175,159.5c0.4,0.1,0.9,0.1,1.3,0.2c2.6,0.4,3.7-1.4,3.3-4.2
				c-0.3-2.6-1.6-4.5-3.8-4.7c-1-0.1-1.6-0.2-2,0C174.3,153.6,174.6,156.5,175,159.5z M177.3,177.5c0.5,0.2,1,0.3,1.8,0.4
				c2.1,0.3,3.8-1.1,3.3-4.8c-0.5-3.6-2.5-5.4-4.9-5.7c-0.5-0.1-1-0.1-1.5-0.2C176.4,170.7,176.9,174.1,177.3,177.5z"/>
			<path class="st66" d="M193.7,175.8c1.6,1.2,4.1,2.2,6.4,2c2.3-0.2,3.3-1.8,3-4c-0.3-2.2-1.5-3.2-4.5-4.8
				c-4.7-2.7-7.5-6.9-8.2-12.3c-0.9-7.4,1.9-13.1,8.2-13.8c2.7-0.3,4.8,0.1,6.4,0.9c0,3.1-0.1,6.1-0.1,9.1c-1.1-0.6-2.9-1.3-5.1-1
				c-2.1,0.3-3,1.7-2.8,3.6c0.3,2.1,1.5,3,5,4.8c4.7,2.3,7,5.9,7.7,11.4c1,7.4-1.7,14.4-8.6,15.1c-2.9,0.2-5.8-0.9-7.2-2
				C193.7,181.9,193.7,178.8,193.7,175.8z"/>
			<path class="st66" d="M231,175.1c-0.7,1.2-2.6,3.4-5.2,4.7c-8.5,4.3-13.6-5.1-15-16.2c-1.9-15.3,3.3-24,10-27.7
				c2.5-1.3,4.5-1.8,5.5-1.5c0,3.1,0,6.3,0,9.4c-1-0.1-2.3,0-4,0.9c-3.5,1.9-5.9,7-4.8,15.9c1,8,4.1,11.7,8.1,9.5
				c1.3-0.7,2.8-2.1,3.5-3.2C229.8,169.6,230.4,172.3,231,175.1z"/>
		</g>
	</g>
	<path d="M48.8,245.5L20.3,27.2c3.2-1.8,5.3-5.1,5.3-9c0-5.7-4.6-10.3-10.3-10.3S5,12.5,5,18.2c0,5,3.5,9.1,8.2,10.1l28.5,218.2
		c0,0,0.8,3.5,3.8,3.1C49,249,48.8,245.5,48.8,245.5z"/>
</g>
</svg>
