<?xml version="1.0" encoding="utf-8"?>
<!-- Generator: Adobe Illustrator 17.0.0, SVG Export Plug-In . SVG Version: 6.00 Build 0)  -->
<!DOCTYPE svg PUBLIC "-//W3C//DTD SVG 1.1//EN" "http://www.w3.org/Graphics/SVG/1.1/DTD/svg11.dtd" [
	<!ENTITY ns_flows "http://ns.adobe.com/Flows/1.0/">
	<!ENTITY ns_extend "http://ns.adobe.com/Extensibility/1.0/">
	<!ENTITY ns_ai "http://ns.adobe.com/AdobeIllustrator/10.0/">
	<!ENTITY ns_graphs "http://ns.adobe.com/Graphs/1.0/">
]>
<svg version="1.1" id="Layer_2" xmlns:x="&ns_extend;" xmlns:i="&ns_ai;" xmlns:graph="&ns_graphs;"
	 xmlns="http://www.w3.org/2000/svg" xmlns:xlink="http://www.w3.org/1999/xlink" xmlns:a="http://ns.adobe.com/AdobeSVGViewerExtensions/3.0/"
	 x="0px" y="0px" width="256px" height="256px" viewBox="0 0 256 256" style="enable-background:new 0 0 256 256;"
	 xml:space="preserve">
<style type="text/css">
	.st0{fill:#FFFFFF;}
	.st1{fill:#54B948;}
	.st2{fill:#1D8C8E;}
	.st3{fill:#14DEAC;}
	.st4{fill:#1466AC;}
	.st5{fill:#757575;}
	.st6{fill:#B69442;}
	.st7{fill:#1A234D;}
	.st8{fill:#AA0629;}
	.st9{fill:#FF4A49;}
	.st10{fill:#3C6643;}
	.st11{fill:none;stroke:#FF4A49;stroke-miterlimit:10;}
	.st12{fill:#E70084;}
	.st13{fill:#508A72;}
	.st14{fill:#01A663;}
	.st15{fill:#015297;}
	.st16{fill:#B0B0B0;}
	.st17{fill:#E1062F;}
	.st18{fill:#D80000;stroke:#FFFFFF;stroke-width:2;stroke-miterlimit:10;}
	.st19{fill:#D80000;}
	.st20{fill:#8ABE23;}
	.st21{fill:#1D1D1B;}
	.st22{fill:#FEFEFE;}
	.st23{fill:#FF0000;}
	.st24{fill:#FF1D1B;}
	.st25{fill:#6DB2DE;}
	.st26{fill:#FF1D25;}
	.st27{fill:#FFDA00;}
	.st28{fill:#024D9E;}
	.st29{fill:#6B97C6;}
	.st30{fill:#000078;}
	.st31{fill:none;stroke:#FFFFFF;stroke-width:6;stroke-linecap:round;stroke-miterlimit:10;}
	.st32{fill:#FFEE34;}
	.st33{fill:none;stroke:#000000;stroke-width:4;stroke-miterlimit:10;}
	.st34{fill:#D11E24;}
	.st35{fill:#D71F26;}
	.st36{fill:#020000;}
	.st37{fill:none;stroke:#000000;stroke-width:2;stroke-miterlimit:10;}
	.st38{clip-path:url(#SVGID_2_);}
	.st39{fill:#00317D;}
	.st40{fill:#00737D;}
	.st41{fill:#ED1C24;}
	.st42{fill:#2678C7;}
	.st43{fill:#1853A6;}
	.st44{fill:#CB0000;}
	.st45{fill:#E61C21;}
	.st46{clip-path:url(#SVGID_4_);}
	.st47{fill:#6BDEF1;}
	.st48{clip-path:url(#SVGID_6_);}
	.st49{fill:#0165B2;}
	.st50{fill:#DE1134;}
	.st51{fill:#00A668;}
	.st52{fill:#FFE60B;}
	.st53{fill:#843D00;stroke:#000000;stroke-miterlimit:10;}
	.st54{fill:#EC1F27;}
	.st55{fill:#162984;}
	.st56{fill:#1853A6;stroke:#1853A6;stroke-miterlimit:10;}
	.st57{fill:none;}
	.st58{fill:none;stroke:#1853A6;stroke-width:0.9;stroke-miterlimit:10;}
	.st59{fill:#1853A6;stroke:#1853A6;stroke-width:0.9;stroke-miterlimit:10;}
	.st60{fill:#B5985A;}
	.st61{fill:#FFE60B;stroke:#000000;stroke-width:6;stroke-miterlimit:10;}
	.st62{fill:#008DCD;}
	.st63{fill:#009939;}
	.st64{fill:#2E3092;}
	.st65{fill:#EE3224;}
	.st66{fill:#005BAB;}
	.st67{fill:#D30027;}
	.st68{fill:#FFFFFF;stroke:#D30027;stroke-width:10;stroke-miterlimit:10;}
	.st69{fill:#E81C2F;}
	.st70{fill:#DC032B;}
	.st71{fill:#F25448;}
	.st72{fill:#FFFFFF;stroke:#F25448;stroke-width:6;stroke-miterlimit:10;}
	.st73{fill:#05A08D;}
	.st74{fill:#1875CE;}
	.st75{fill:#D72427;}
	.st76{fill:#004993;}
	.st77{fill:#007BB0;}
	.st78{fill:#FFEB00;}
	.st79{fill:#664A9E;}
	.st80{fill:#F4C701;}
	.st81{fill:#EBBE12;}
	.st82{fill:#44B3DB;}
	.st83{fill:#F6FF82;}
	.st84{fill:#FFC918;}
	.st85{fill:#0361A4;}
	.st86{fill:#009FE3;}
	.st87{fill:#E30217;}
	.st88{fill:#FDEA00;}
	.st89{fill:#E91B00;}
	.st90{fill:#2B2763;}
	.st91{fill:#EE1A22;}
	.st92{fill:#F1AA25;}
	.st93{fill:#93000C;}
	.st94{fill:none;stroke:#1D1D1B;stroke-width:4;}
	.st95{fill:#3E4E70;}
	.st96{fill:#096CB6;}
	.st97{fill:#0559A8;}
	.st98{fill:#F9ED1A;}
	.st99{fill:#949494;}
	.st100{fill:#FFD033;}
	.st101{fill:#243D89;}
	.st102{fill:#F8C936;}
	.st103{fill:#D44128;}
	.st104{fill:#ED1B23;}
	.st105{fill:#0C529C;}
	.st106{fill:#E31E24;}
	.st107{fill:#0263B0;}
	.st108{fill:#007AC2;}
	.st109{fill:#EF3D1F;}
	.st110{fill:#EE1C24;}
	.st111{fill:#FDEA00;stroke:#000000;stroke-width:0.6509;}
	.st112{fill:#FDEA00;stroke:#000000;stroke-width:0.6979;}
	.st113{fill:#46A0BE;}
	.st114{fill:#005FA5;}
	.st115{fill:#00904C;}
	.st116{fill:#E21F26;}
	.st117{fill:#FD0001;}
	.st118{fill:#0066B3;}
	.st119{fill:#E20019;}
	.st120{fill:#0171BC;}
	.st121{fill:#01305D;}
	.st122{fill:#1B7EE9;}
	.st123{fill:#BA0D0B;}
	.st124{fill:none;stroke:#000000;stroke-width:3;stroke-miterlimit:10;}
	.st125{fill:#FFFFFF;stroke:#000000;stroke-width:0.8836;stroke-miterlimit:10;}
	.st126{fill:#FFFFFF;stroke:#000000;stroke-width:0.9759;stroke-miterlimit:10;}
	.st127{fill:#0053A1;}
	.st128{fill:#FFE100;}
	.st129{fill:#FFE500;}
	.st130{fill:none;stroke:#FFE500;stroke-width:2;stroke-miterlimit:10;}
	.st131{fill:#01AFF3;}
	.st132{fill:#ED1B28;}
	.st133{fill:#E2000A;}
</style>
<g>
	<g>
		<g>
			<path d="M254,2H2v158.6c0,0,0.3,93.4,125.6,93.4C254,254,254,160.6,254,160.6V2L254,2z"/>
			<g>
				<path class="st0" d="M127.7,244.2c-32.2,0-75.8-7.6-100.3-43.9c-14.8-21.9-15.3-43.5-15.3-45.9V11.8h27.6v142.5
					c0,0.9,0.7,16.2,11.1,31c14.4,20.4,40.2,30.7,76.9,30.7c37,0,63.1-10.3,77.5-30.7c10.5-14.8,11-30.2,11.1-30.9V11.8h27.6v142.6
					c0,2.4-0.4,24-15.3,45.9C204,236.6,160.2,244.2,127.7,244.2z"/>
			</g>
		</g>
	</g>
	<g>
		<path class="st0" d="M51.5,18.7h14.4V24h-8.1v4.9h7.6v5.3h-7.6v9.7h-6.3V18.7z"/>
		<path class="st0" d="M76,18.7v14.8c0,3.7,1.2,5.4,3.3,5.4c2.1,0,3.3-1.6,3.3-5.4V18.7h6.3v14.2c0,7.4-3.3,11.3-9.7,11.3
			c-6.4,0-9.4-3.9-9.4-11.4V18.7H76z"/>
		<path class="st0" d="M93.3,37.5c1.3,0.7,3.6,1.4,5.7,1.4c2.2,0,3.3-0.9,3.3-2.1c0-1.3-1.1-2-3.7-3.1c-4.1-1.8-6.2-4.3-6.2-7.4
			c0-4.4,3.3-7.8,9.4-7.8c2.5,0,4.5,0.5,5.8,1.2l-1.2,5.3c-1-0.4-2.5-1.1-4.7-1.1c-2,0-3,0.8-3,1.9c0,1.2,1.1,1.8,4.1,3.1
			c4.1,1.7,5.8,4.2,5.8,7.5c0,4.4-3.3,8-9.9,8c-2.7,0-5.3-0.7-6.5-1.3L93.3,37.5z"/>
		<path class="st0" d="M112,37.5c1.3,0.7,3.6,1.4,5.7,1.4c2.2,0,3.3-0.9,3.3-2.1c0-1.3-1.1-2-3.7-3.1c-4.1-1.8-6.2-4.3-6.2-7.4
			c0-4.4,3.3-7.8,9.4-7.8c2.5,0,4.5,0.5,5.8,1.2l-1.2,5.3c-1-0.4-2.5-1.1-4.7-1.1c-2,0-3,0.8-3,1.9c0,1.2,1.1,1.8,4.1,3.1
			c4.1,1.7,5.8,4.2,5.8,7.5c0,4.4-3.3,8-9.9,8c-2.7,0-5.3-0.7-6.5-1.3L112,37.5z"/>
		<path class="st0" d="M130.6,19c1.5-0.3,4.4-0.5,7.2-0.5c3.1,0,5.3,0.3,7.2,1.4c1.8,1,2.9,2.8,2.9,5c0,2.1-1.1,4.2-3.8,5.3v0.1
			c2.9,0.8,4.6,3.1,4.6,6c0,2.3-1,4.1-2.5,5.3c-1.7,1.5-4.6,2.4-9.7,2.4c-2.6,0-4.6-0.2-5.9-0.4V19z M136.8,28.6h1.2
			c2.4,0,3.6-1.1,3.6-2.8c0-1.5-1-2.6-3-2.6c-0.9,0-1.5,0-1.9,0.1V28.6z M136.8,39.3c0.4,0.1,0.9,0.1,1.6,0.1c2,0,3.7-0.9,3.7-3.1
			c0-2.1-1.7-3.1-3.9-3.1h-1.4V39.3z"/>
		<path class="st0" d="M157.8,38.3l-1.2,5.6h-6.4l6.5-25.2h8.1l6.5,25.2h-6.6l-1.3-5.6H157.8z M162.7,33.5l-1-4.6
			c-0.3-1.4-0.7-3.7-1.1-5.2h-0.1c-0.4,1.5-0.7,3.8-1,5.2l-1,4.6H162.7z"/>
		<path class="st0" d="M174.3,18.7h6.3v19.7h8.4v5.4h-14.7V18.7z"/>
		<path class="st0" d="M192,18.7h6.3v19.7h8.4v5.4H192V18.7z"/>
		<path class="st0" d="M54.5,102.6c3.6,1.9,9.6,3.7,15.3,3.7c5.9,0,8.8-2.3,8.8-5.7c0-3.5-2.8-5.4-9.8-8.3
			c-10.9-4.8-16.6-11.4-16.6-19.9c0-11.7,9-21,25.1-21c6.8,0,12.1,1.4,15.7,3.1l-3.2,14.1c-2.6-1.2-6.8-2.9-12.6-2.9
			c-5.3,0-8.1,2.2-8.1,5.2c0,3.3,2.8,4.8,10.9,8.4c11,4.6,15.6,11.3,15.6,20c0,11.9-9,21.3-26.5,21.3c-7.3,0-14.2-1.9-17.5-3.6
			L54.5,102.6z"/>
		<path class="st0" d="M104.7,102.6c3.6,1.9,9.6,3.7,15.3,3.7c5.9,0,8.8-2.3,8.8-5.7c0-3.5-2.8-5.4-9.8-8.3
			c-10.9-4.8-16.6-11.4-16.6-19.9c0-11.7,9-21,25.1-21c6.8,0,12.1,1.4,15.7,3.1l-3.2,14.1c-2.6-1.2-6.8-2.9-12.6-2.9
			c-5.3,0-8.1,2.2-8.1,5.2c0,3.3,2.8,4.8,10.9,8.4c11,4.6,15.6,11.3,15.6,20c0,11.9-9,21.3-26.5,21.3c-7.3,0-14.2-1.9-17.5-3.6
			L104.7,102.6z"/>
		<path class="st0" d="M168.2,119.7l-19-67.5h18.5l6,27c1.8,7.4,3.3,14.9,4.7,23.2h0.2c1.4-8,2.9-15.8,4.6-23l6-27.2h18.1
			l-19.5,67.5H168.2z"/>
	</g>
	<path class="st0" d="M127.8,205.8c-32.2,0-55-9.5-67.8-28.2c-9.6-13.9-9.8-28.2-9.8-28.3v-20.2l156.6,0l-0.8,20.2
		c0,0.1-0.2,14.4-9.8,28.3C183.2,196.3,160.2,205.8,127.8,205.8z"/>
	<path d="M82.3,154h-0.1l-6.5,3.1l-1.5-7.1l9.4-4.4h7.6V181h-8.9V154z"/>
	<path d="M113.6,145c7.6,0,11.3,4.5,11.3,9.2c0,2.7-1.4,5.8-4.7,7.6v0.1c3,1.3,5.8,4.3,5.8,8.8c0,6.7-5.3,10.9-13.1,10.9
		c-8.4,0-12.5-4.7-12.5-9.9c0-4.2,2.2-7.1,5.6-8.8v-0.1c-3.1-1.8-4.6-4.7-4.6-7.7C101.5,148.9,106.8,145,113.6,145L113.6,145z
		 M113.4,175.3c2.2,0,3.5-1.8,3.5-4c0-2.7-2-4.5-4.2-5.2c-1.9,0.7-3,2.4-3,4.7C109.7,173,111.1,175.3,113.4,175.3L113.4,175.3z
		 M113.2,151.2c-2.2,0-3.1,1.7-3.1,3.5c0,2,1.6,3.4,3.8,4.3c1.3-0.4,2.5-2.1,2.5-3.9C116.4,153.2,115.5,151.2,113.2,151.2
		L113.2,151.2z"/>
	<path d="M142.6,181v-8h-14.1v-6.2l11.8-21.3h10.8V166h3.7v7.1h-3.7v8H142.6z M142.6,166v-6.1c0-2.1,0.2-4.3,0.3-6.5h-0.2
		c-1,2.1-1.9,4.2-3,6.5l-3,6v0.1H142.6z"/>
	<path d="M179.4,152.4c-0.9-0.1-1.9,0-3,0.1c-6.2,0.5-8.9,3.5-9.8,7.1h0.2c1.6-1.5,3.7-2.3,6.4-2.3c5.4,0,9.9,4.1,9.9,11.5
		c0,6.9-4.9,12.9-12.4,12.9c-9.1,0-13.4-7-13.4-15.4c0-7,2.5-12.5,6.2-16c3.3-3.1,7.6-4.7,12.6-5c1.6-0.2,2.7-0.1,3.4-0.1V152.4z
		 M170.5,174.8c2.3,0,3.3-2.7,3.3-5.8c0-2.3-1-5.1-3.8-5.1c-1.6,0-2.9,1-3.4,2.3c-0.2,0.4-0.3,1.3-0.3,2.6
		C166.4,171.8,167.7,174.8,170.5,174.8L170.5,174.8z"/>
</g>
</svg>
