<?xml version="1.0" encoding="utf-8"?>
<!-- Generator: Adobe Illustrator 17.0.0, SVG Export Plug-In . SVG Version: 6.00 Build 0)  -->
<!DOCTYPE svg PUBLIC "-//W3C//DTD SVG 1.1//EN" "http://www.w3.org/Graphics/SVG/1.1/DTD/svg11.dtd" [
	<!ENTITY ns_flows "http://ns.adobe.com/Flows/1.0/">
	<!ENTITY ns_extend "http://ns.adobe.com/Extensibility/1.0/">
	<!ENTITY ns_ai "http://ns.adobe.com/AdobeIllustrator/10.0/">
	<!ENTITY ns_graphs "http://ns.adobe.com/Graphs/1.0/">
]>
<svg version="1.1" id="Layer_2" xmlns:x="&ns_extend;" xmlns:i="&ns_ai;" xmlns:graph="&ns_graphs;"
	 xmlns="http://www.w3.org/2000/svg" xmlns:xlink="http://www.w3.org/1999/xlink" xmlns:a="http://ns.adobe.com/AdobeSVGViewerExtensions/3.0/"
	 x="0px" y="0px" width="256px" height="256px" viewBox="0 0 256 256" style="enable-background:new 0 0 256 256;"
	 xml:space="preserve">
<style type="text/css">
	.st0{fill:#FFFFFF;}
	.st1{fill:#54B948;}
	.st2{fill:#1D8C8E;}
	.st3{fill:#14DEAC;}
	.st4{fill:#1466AC;}
	.st5{fill:#757575;}
	.st6{fill:#B69442;}
	.st7{fill:#1A234D;}
	.st8{fill:#AA0629;}
	.st9{fill:#FF4A49;}
	.st10{fill:#3C6643;}
	.st11{fill:none;stroke:#FF4A49;stroke-miterlimit:10;}
	.st12{fill:#E70084;}
	.st13{fill:#508A72;}
	.st14{fill:#01A663;}
	.st15{fill:#015297;}
	.st16{fill:#B0B0B0;}
	.st17{fill:#E1062F;}
	.st18{fill:#D80000;stroke:#FFFFFF;stroke-width:2;stroke-miterlimit:10;}
	.st19{fill:#D80000;}
	.st20{fill:#8ABE23;}
	.st21{fill:#1D1D1B;}
	.st22{fill:#FEFEFE;}
	.st23{fill:#FF0000;}
	.st24{fill:#FF1D1B;}
	.st25{fill:#6DB2DE;}
	.st26{fill:#FF1D25;}
	.st27{fill:#FFDA00;}
	.st28{fill:#024D9E;}
	.st29{fill:#6B97C6;}
	.st30{fill:#000078;}
	.st31{fill:none;stroke:#FFFFFF;stroke-width:6;stroke-linecap:round;stroke-miterlimit:10;}
	.st32{fill:#FFEE34;}
	.st33{fill:none;stroke:#000000;stroke-width:4;stroke-miterlimit:10;}
	.st34{fill:#D11E24;}
	.st35{fill:#D71F26;}
	.st36{fill:#020000;}
	.st37{fill:none;stroke:#000000;stroke-width:2;stroke-miterlimit:10;}
	.st38{clip-path:url(#SVGID_2_);}
	.st39{fill:#00317D;}
	.st40{fill:#00737D;}
	.st41{fill:#ED1C24;}
	.st42{fill:#2678C7;}
	.st43{fill:#1853A6;}
	.st44{fill:#CB0000;}
	.st45{fill:#E61C21;}
	.st46{clip-path:url(#SVGID_4_);}
	.st47{fill:#6BDEF1;}
	.st48{clip-path:url(#SVGID_6_);}
	.st49{fill:#0165B2;}
	.st50{fill:#DE1134;}
	.st51{fill:#00A668;}
	.st52{fill:#FFE60B;}
	.st53{fill:#843D00;stroke:#000000;stroke-miterlimit:10;}
	.st54{fill:#EC1F27;}
	.st55{fill:#162984;}
	.st56{fill:#1853A6;stroke:#1853A6;stroke-miterlimit:10;}
	.st57{fill:none;}
	.st58{fill:none;stroke:#1853A6;stroke-width:0.9;stroke-miterlimit:10;}
	.st59{fill:#1853A6;stroke:#1853A6;stroke-width:0.9;stroke-miterlimit:10;}
	.st60{fill:#B5985A;}
	.st61{fill:#FFE60B;stroke:#000000;stroke-width:6;stroke-miterlimit:10;}
	.st62{fill:#008DCD;}
	.st63{fill:#009939;}
	.st64{fill:#2E3092;}
	.st65{fill:#EE3224;}
	.st66{fill:#005BAB;}
	.st67{fill:#D30027;}
	.st68{fill:#FFFFFF;stroke:#D30027;stroke-width:10;stroke-miterlimit:10;}
	.st69{fill:#E81C2F;}
	.st70{fill:#DC032B;}
	.st71{fill:#F25448;}
	.st72{fill:#FFFFFF;stroke:#F25448;stroke-width:6;stroke-miterlimit:10;}
	.st73{fill:#05A08D;}
	.st74{fill:#1875CE;}
	.st75{fill:#D72427;}
	.st76{fill:#004993;}
	.st77{fill:#007BB0;}
	.st78{fill:#FFEB00;}
	.st79{fill:#664A9E;}
	.st80{fill:#F4C701;}
	.st81{fill:#EBBE12;}
	.st82{fill:#44B3DB;}
	.st83{fill:#F6FF82;}
	.st84{fill:#FFC918;}
	.st85{fill:#0361A4;}
	.st86{fill:#009FE3;}
	.st87{fill:#E30217;}
	.st88{fill:#FDEA00;}
	.st89{fill:#E91B00;}
	.st90{fill:#2B2763;}
	.st91{fill:#EE1A22;}
	.st92{fill:#F1AA25;}
	.st93{fill:#93000C;}
	.st94{fill:none;stroke:#1D1D1B;stroke-width:4;}
	.st95{fill:#3E4E70;}
	.st96{fill:#096CB6;}
	.st97{fill:#0559A8;}
	.st98{fill:#F9ED1A;}
	.st99{fill:#949494;}
	.st100{fill:#FFD033;}
	.st101{fill:#243D89;}
	.st102{fill:#F8C936;}
	.st103{fill:#D44128;}
	.st104{fill:#ED1B23;}
	.st105{fill:#0C529C;}
	.st106{fill:#E31E24;}
	.st107{fill:#0263B0;}
	.st108{fill:#007AC2;}
	.st109{fill:#EF3D1F;}
	.st110{fill:#EE1C24;}
	.st111{fill:#FDEA00;stroke:#000000;stroke-width:0.6509;}
	.st112{fill:#FDEA00;stroke:#000000;stroke-width:0.6979;}
	.st113{fill:#46A0BE;}
	.st114{fill:#005FA5;}
	.st115{fill:#00904C;}
	.st116{fill:#E21F26;}
	.st117{fill:#FD0001;}
	.st118{fill:#0066B3;}
	.st119{fill:#E20019;}
	.st120{fill:#0171BC;}
	.st121{fill:#01305D;}
	.st122{fill:#1B7EE9;}
	.st123{fill:#BA0D0B;}
	.st124{fill:none;stroke:#000000;stroke-width:3;stroke-miterlimit:10;}
	.st125{fill:#FFFFFF;stroke:#000000;stroke-width:0.8836;stroke-miterlimit:10;}
	.st126{fill:#FFFFFF;stroke:#000000;stroke-width:0.9759;stroke-miterlimit:10;}
	.st127{fill:#0053A1;}
	.st128{fill:#FFE100;}
	.st129{fill:#FFE500;}
	.st130{fill:none;stroke:#FFE500;stroke-width:2;stroke-miterlimit:10;}
	.st131{fill:#01AFF3;}
	.st132{fill:#ED1B28;}
	.st133{fill:#E2000A;}
</style>
<g>
	<g>
		<g>
			<path class="st32" d="M126.6,246c-50,0-85.5-14.3-105.4-42.6C6.4,182.4,6,160.8,6,160.6V11h242v149.7c0,0.2-0.3,21.7-15.2,42.7
				C212.8,231.7,177.1,246,126.6,246z"/>
			<path class="st67" d="M241,18v142.6c0,0.7-0.6,20.4-14.3,39.3c-8,11.1-19.1,20-32.8,26.4c-17.9,8.4-40.5,12.6-67.3,12.6
				c-26.5,0-48.9-4.2-66.7-12.6c-13.6-6.4-24.6-15.3-32.6-26.4C13.8,181,13,161.5,13,160.6V18H241 M255,4H-1v156.7
				c0,0,0.3,92.3,127.6,92.3C255,253,255,160.7,255,160.7V4L255,4z"/>
		</g>
	</g>
	<polygon class="st68" points="127,144.9 12.3,15 241.7,15 	"/>
	<path d="M165.2,142.3c0-21.3,0.1-42.6-0.1-63.9c0-3.8,0.7-5.4,4.9-5c6.1,0.5,12.4-0.1,18.4,0.7c14.2,1.8,24.4,9.6,29.6,22.9
		c5.3,13.8,3.2,26.9-6.7,38.2c-2,2.3-2.6,3.6-0.2,6.1c6.6,7.1,9.7,15.7,9.5,25.5c-0.1,7.8,0.5,15.6-3,23.1
		c-6.4,13.8-17.1,21.3-32.2,22.3c-5.3,0.3-10.7-0.1-16,0.2c-3.6,0.2-4.5-1.2-4.4-4.6C165.2,185.9,165.2,164.1,165.2,142.3z
		 M183.9,170.7c0,0-0.1,0-0.1,0c0,6,0,12,0,18c0,4.9,0.9,5.6,5.6,4c1.7-0.6,3.4-1.4,4.8-2.5c10.2-7.4,11.4-28.5,2.3-37.2
		c-2.5-2.3-5.3-3.9-8.6-4.8c-2.8-0.7-4,0-4,3.1C184,157.7,183.9,164.2,183.9,170.7z M183.9,110.8c0,0-0.1,0-0.1,0c0,5,0,10,0,14.9
		c0,2.1,0.2,3.5,3,3.1c8.1-1.2,15.2-9.4,15.3-17.9c0.1-8.7-6.6-16.9-14.7-18.3c-2.3-0.4-3.5,0.1-3.5,2.7
		C183.9,100.5,183.9,105.6,183.9,110.8z"/>
	<path d="M92.5,142.1c0,20.5,0,41,0,61.5c0,9,1.2,7.8-8.1,7.8c-6.3,0-12.7,0.8-18.9-0.8C48,205.9,37.1,193.1,36.9,175
		c-0.4-32.8-0.1-65.6-0.2-98.4c0-2.9,0.8-4.2,4-4c3.8,0.3,7.7,0.1,11.5,0c2-0.1,3.3,0.6,3.3,2.7c0,32.7,0,65.3,0.1,98
		c0,8.8,4.7,15.8,12,18.3c5.2,1.8,6,1.3,6-4.3c0-36,0-72,0-107.9c0-8-0.7-6.7,6.5-6.6c3.9,0,9-1.8,11.5,0.8
		c2.5,2.6,0.7,7.6,0.7,11.6C92.5,104.1,92.5,123.1,92.5,142.1C92.5,142.1,92.5,142.1,92.5,142.1z"/>
	<path d="M102.9,142.6c0-21.3,0.1-42.6-0.1-64c0-4.1,0.9-5.4,5.2-5.3c15.5,0.3,31,0.2,46.5,0c3.4,0,4.4,1.1,4.2,4.2
		c-0.2,3.5-0.3,7,0,10.5c0.3,3.7-1.4,4.5-4.7,4.4c-9.3-0.2-18.7,0.1-28-0.1c-3.4-0.1-4.9,0.9-4.5,4.5c0.5,4.3-1.7,9.8,0.8,12.6
		c2.6,2.9,8.2,1.1,12.5,0.9c4.1-0.2,5.8,1,5.3,5.2c-0.6,4.4,1.9,10.3-1.1,12.9c-2.6,2.2-8.3,1-12.6,0.7c-4.1-0.3-5,1.3-4.9,5.1
		c0.2,24.2,0,48.3,0.2,72.5c0,4.6-1.3,6.3-5.9,5.7c-4.1-0.5-9.4,1.7-12-0.8c-2.7-2.6-0.8-7.9-0.8-12
		C102.9,180.5,102.9,161.6,102.9,142.6z"/>
	<g>
		<path class="st23" d="M94.3,40.9L94.3,40.9L89.8,43l-1-4.7l6.4-2.9h5.2v23.4h-6V40.9z"/>
		<path class="st23" d="M115.5,35c5.1,0,7.7,3,7.7,6c0,1.8-0.9,3.8-3.2,5v0.1c2.1,0.8,4,2.8,4,5.8c0,4.4-3.6,7.2-8.9,7.2
			c-5.7,0-8.5-3.1-8.5-6.6c0-2.8,1.5-4.7,3.8-5.8v-0.1c-2.1-1.2-3.1-3.1-3.1-5.1C107.3,37.6,110.9,35,115.5,35L115.5,35z M115.4,55
			c1.5,0,2.4-1.2,2.4-2.6c0-1.8-1.3-3-2.8-3.5c-1.3,0.5-2.1,1.6-2.1,3.1S113.8,55,115.4,55L115.4,55z M115.3,39.1
			c-1.5,0-2.1,1.2-2.1,2.3c0,1.3,1.1,2.3,2.6,2.8c0.9-0.3,1.7-1.4,1.7-2.6C117.4,40.4,116.8,39.1,115.3,39.1L115.3,39.1z"/>
		<path class="st23" d="M127.9,54.2c0.8,0.1,1.3,0,2.3,0c1.3-0.1,2.8-0.4,3.9-1.1c1.3-0.8,2.2-2.2,2.6-3.6l-0.1,0
			c-0.9,0.8-2.2,1.3-4,1.3c-3.6,0-6.9-2.6-6.9-7.2c0-4.4,3.5-8.4,8.6-8.4c5.9,0,8.6,4.6,8.6,10c0,5-1.6,8.6-4.1,10.9
			c-2.2,1.9-5.1,3-8.7,3.1c-0.8,0-1.7,0-2.3,0V54.2z M134.2,39.5c-1.3,0-2.3,1.4-2.3,3.5c0,1.7,0.7,3.4,2.5,3.4c1.1,0,1.8-0.5,2.1-1
			c0.2-0.4,0.3-0.8,0.3-1.9C136.8,41.5,136.1,39.5,134.2,39.5L134.2,39.5z"/>
		<path class="st23" d="M146.4,53c1,0.5,3.1,1.3,5,1.3c2.3,0,3.7-1,3.7-2.6c0-2.1-2-2.9-4.2-2.9h-1.9v-4.4h1.8
			c1.7,0,3.7-0.5,3.7-2.3c0-1.3-1.1-2.1-3-2.1c-1.7,0-3.5,0.7-4.4,1.2l-1-4.5c1.3-0.8,4-1.6,6.9-1.6c5,0,7.7,2.6,7.7,5.9
			c0,2.4-1.4,4.4-4,5.4v0.1c2.6,0.6,4.7,2.7,4.7,5.6c0,4.1-3.6,7.2-9.5,7.2c-2.8,0-5.2-0.7-6.6-1.5L146.4,53z"/>
	</g>
</g>
</svg>
