<?xml version="1.0" encoding="utf-8"?>
<!-- Generator: Adobe Illustrator 17.0.0, SVG Export Plug-In . SVG Version: 6.00 Build 0)  -->
<!DOCTYPE svg PUBLIC "-//W3C//DTD SVG 1.1//EN" "http://www.w3.org/Graphics/SVG/1.1/DTD/svg11.dtd" [
	<!ENTITY ns_flows "http://ns.adobe.com/Flows/1.0/">
	<!ENTITY ns_extend "http://ns.adobe.com/Extensibility/1.0/">
	<!ENTITY ns_ai "http://ns.adobe.com/AdobeIllustrator/10.0/">
	<!ENTITY ns_graphs "http://ns.adobe.com/Graphs/1.0/">
]>
<svg version="1.1" id="Layer_2" xmlns:x="&ns_extend;" xmlns:i="&ns_ai;" xmlns:graph="&ns_graphs;"
	 xmlns="http://www.w3.org/2000/svg" xmlns:xlink="http://www.w3.org/1999/xlink" xmlns:a="http://ns.adobe.com/AdobeSVGViewerExtensions/3.0/"
	 x="0px" y="0px" width="256px" height="256px" viewBox="0 0 256 256" style="enable-background:new 0 0 256 256;"
	 xml:space="preserve">
<style type="text/css">
	.st0{fill:#FFFFFF;}
	.st1{fill:#54B948;}
	.st2{fill:#1D8C8E;}
	.st3{fill:#14DEAC;}
	.st4{fill:#1466AC;}
	.st5{fill:#757575;}
	.st6{fill:#B69442;}
	.st7{fill:#1A234D;}
	.st8{fill:#AA0629;}
	.st9{fill:#FF4A49;}
	.st10{fill:#3C6643;}
	.st11{fill:none;stroke:#FF4A49;stroke-miterlimit:10;}
	.st12{fill:#E70084;}
	.st13{fill:#508A72;}
	.st14{fill:#01A663;}
	.st15{fill:#015297;}
	.st16{fill:#B0B0B0;}
	.st17{fill:#E1062F;}
	.st18{fill:#D80000;stroke:#FFFFFF;stroke-width:2;stroke-miterlimit:10;}
	.st19{fill:#D80000;}
	.st20{fill:#8ABE23;}
	.st21{fill:#1D1D1B;}
	.st22{fill:#FEFEFE;}
	.st23{fill:#FF0000;}
	.st24{fill:#FF1D1B;}
	.st25{fill:#6DB2DE;}
	.st26{fill:#FF1D25;}
	.st27{fill:#FFDA00;}
	.st28{fill:#024D9E;}
	.st29{fill:#6B97C6;}
	.st30{fill:#000078;}
	.st31{fill:none;stroke:#FFFFFF;stroke-width:6;stroke-linecap:round;stroke-miterlimit:10;}
	.st32{fill:#FFEE34;}
	.st33{fill:none;stroke:#000000;stroke-width:4;stroke-miterlimit:10;}
	.st34{fill:#D11E24;}
	.st35{fill:#D71F26;}
	.st36{fill:#020000;}
	.st37{fill:none;stroke:#000000;stroke-width:2;stroke-miterlimit:10;}
	.st38{clip-path:url(#SVGID_2_);}
	.st39{fill:#00317D;}
	.st40{fill:#00737D;}
	.st41{fill:#ED1C24;}
	.st42{fill:#2678C7;}
	.st43{fill:#1853A6;}
	.st44{fill:#CB0000;}
	.st45{fill:#E61C21;}
	.st46{clip-path:url(#SVGID_4_);}
	.st47{fill:#6BDEF1;}
	.st48{clip-path:url(#SVGID_6_);}
	.st49{fill:#0165B2;}
	.st50{fill:#DE1134;}
	.st51{fill:#00A668;}
	.st52{fill:#FFE60B;}
	.st53{fill:#843D00;stroke:#000000;stroke-miterlimit:10;}
	.st54{fill:#EC1F27;}
	.st55{fill:#162984;}
	.st56{fill:#1853A6;stroke:#1853A6;stroke-miterlimit:10;}
	.st57{fill:none;}
	.st58{fill:none;stroke:#1853A6;stroke-width:0.9;stroke-miterlimit:10;}
	.st59{fill:#1853A6;stroke:#1853A6;stroke-width:0.9;stroke-miterlimit:10;}
	.st60{fill:#B5985A;}
	.st61{fill:#FFE60B;stroke:#000000;stroke-width:6;stroke-miterlimit:10;}
	.st62{fill:#008DCD;}
	.st63{fill:#009939;}
	.st64{fill:#2E3092;}
	.st65{fill:#EE3224;}
	.st66{fill:#005BAB;}
	.st67{fill:#D30027;}
	.st68{fill:#FFFFFF;stroke:#D30027;stroke-width:10;stroke-miterlimit:10;}
	.st69{fill:#E81C2F;}
	.st70{fill:#DC032B;}
	.st71{fill:#F25448;}
	.st72{fill:#FFFFFF;stroke:#F25448;stroke-width:6;stroke-miterlimit:10;}
	.st73{fill:#05A08D;}
	.st74{fill:#1875CE;}
	.st75{fill:#D72427;}
	.st76{fill:#004993;}
	.st77{fill:#007BB0;}
	.st78{fill:#FFEB00;}
	.st79{fill:#664A9E;}
	.st80{fill:#F4C701;}
	.st81{fill:#EBBE12;}
	.st82{fill:#44B3DB;}
	.st83{fill:#F6FF82;}
	.st84{fill:#FFC918;}
	.st85{fill:#0361A4;}
	.st86{fill:#009FE3;}
	.st87{fill:#E30217;}
	.st88{fill:#FDEA00;}
	.st89{fill:#E91B00;}
	.st90{fill:#2B2763;}
	.st91{fill:#EE1A22;}
	.st92{fill:#F1AA25;}
	.st93{fill:#93000C;}
	.st94{fill:none;stroke:#1D1D1B;stroke-width:4;}
	.st95{fill:#3E4E70;}
	.st96{fill:#096CB6;}
	.st97{fill:#0559A8;}
	.st98{fill:#F9ED1A;}
	.st99{fill:#949494;}
	.st100{fill:#FFD033;}
	.st101{fill:#243D89;}
	.st102{fill:#F8C936;}
	.st103{fill:#D44128;}
	.st104{fill:#ED1B23;}
	.st105{fill:#0C529C;}
	.st106{fill:#E31E24;}
	.st107{fill:#0263B0;}
	.st108{fill:#007AC2;}
	.st109{fill:#EF3D1F;}
	.st110{fill:#EE1C24;}
	.st111{fill:#FDEA00;stroke:#000000;stroke-width:0.6509;}
	.st112{fill:#FDEA00;stroke:#000000;stroke-width:0.6979;}
	.st113{fill:#46A0BE;}
	.st114{fill:#005FA5;}
	.st115{fill:#00904C;}
	.st116{fill:#E21F26;}
	.st117{fill:#FD0001;}
	.st118{fill:#0066B3;}
	.st119{fill:#E20019;}
	.st120{fill:#0171BC;}
	.st121{fill:#01305D;}
	.st122{fill:#1B7EE9;}
	.st123{fill:#BA0D0B;}
	.st124{fill:none;stroke:#000000;stroke-width:3;stroke-miterlimit:10;}
	.st125{fill:#FFFFFF;stroke:#000000;stroke-width:0.8836;stroke-miterlimit:10;}
	.st126{fill:#FFFFFF;stroke:#000000;stroke-width:0.9759;stroke-miterlimit:10;}
	.st127{fill:#0053A1;}
	.st128{fill:#FFE100;}
	.st129{fill:#FFE500;}
	.st130{fill:none;stroke:#FFE500;stroke-width:2;stroke-miterlimit:10;}
	.st131{fill:#01AFF3;}
	.st132{fill:#ED1B28;}
	.st133{fill:#E2000A;}
</style>
<g>
	<g>
		<g>
			<path class="st6" d="M219.4,34.6c0,15.7-0.8,31.3-2.3,46.9c-1.4,14.3-3.2,28.5-6.4,42.5c-0.3,1.4-2.5,11.5-6.7,21.2
				c-4.3,9.8-9.9,18.8-16.9,26.9c-10.7,12.4-23.3,22.8-37.4,31c-4.8,2.8-9.3,6.2-14.7,7.9c-0.4,0.1-0.7,0.5-1.1,0.7
				c-1.8,1.2-3.5,1.6-5.6,0.5c-15-7.5-29-16.3-41.6-27.3c-20.4-17.8-34.1-39.7-40.6-66.1c-3.7-15-5.9-30.2-7.4-45.6
				c-1.7-17.9-2.4-35.9-2-53.8c0.1-4,0.1-4.1,3.9-5.2c6.5-2,13.1-3.8,19.8-5.4c2-0.5,3.8-0.8,5.9-0.6c1.6,0.1,3.1-1.4,4.8-1.6
				c1-0.1,1.9-0.5,3,0c0.4,0.2,0.9,0.2,1.3,0.1C79.5,4.7,84,5,88.2,3.7c4.2-1.4,8.9-1.2,13.4-1.7c14.7-1.3,29.4-1.6,44.1-0.9
				c11.9,0.6,23.8,2,35.5,4.2c10.2,1.9,20.2,4.3,30.1,7.3c1.8,0.5,3.6,1.2,5.4,1.7c1.6,0.4,2.2,1.3,2.3,3
				C219.3,23.1,219.4,28.8,219.4,34.6z M128.2,9.5c-9.4-0.1-19.5,0.5-29.6,1.5c-8.8,0.9-17.5,2.2-26.1,3.8
				c-8.1,1.5-16.1,3.8-24.1,6.1c-2.3,0.6-3,1.7-3,4c-0.1,15.6,0.3,31.2,1.8,46.7c1.3,14.3,3.4,28.5,6.6,42.5
				c4.8,20.7,14,39.2,28.7,54.7c13.5,14.2,29.4,25.1,46.7,34.1c1.3,0.7,2.3,0.3,3.5-0.3c6.2-2.9,12-6.5,17.7-10.2
				c13.2-8.5,24.9-18.7,34.4-31.3c10.1-13.4,15.8-28.7,18.8-45.1c2-10.9,3.4-21.8,4.6-32.8c2.1-19.4,2.8-38.9,2.5-58.4
				c0-2.2-0.8-3.3-2.9-3.9c-5.6-1.5-11.1-3.1-16.7-4.4C170.6,11.5,149.9,9.2,128.2,9.5z"/>
			<path class="st0" d="M128.2,9.5c21.7-0.3,42.4,2,62.8,6.8c5.6,1.3,11.2,2.9,16.7,4.4c2.1,0.6,2.9,1.7,2.9,3.9
				c0.3,19.5-0.4,39-2.5,58.4c-1.2,11-2.6,22-4.6,32.8c-3,16.4-8.7,31.7-18.8,45.1c-9.5,12.6-21.1,22.8-34.4,31.3
				c-5.7,3.7-11.5,7.4-17.7,10.2c-1.2,0.5-2.2,0.9-3.5,0.3c-17.3-9-33.2-19.8-46.7-34.1c-14.7-15.6-23.9-34-28.7-54.7
				c-3.3-14-5.3-28.2-6.6-42.5c-1.5-15.5-1.9-31.1-1.8-46.7c0-2.3,0.7-3.3,3-4c8-2.2,16-4.5,24.1-6.1c8.6-1.6,17.4-2.9,26.1-3.8
				C108.6,10,118.7,9.4,128.2,9.5z M145.5,47.6c1.2,0.4,2.4,0.9,3.7,1.3c0.5,0.1,1.3,0.2,1.6-0.2c0.5-0.7-0.4-1-0.6-1.4
				c-0.4-0.7-1-1.3-1.3-2c-1.6-3.9-3.7-7.4-7.3-9.8c-0.1,0,0-0.2,0-0.4c0.9-0.2,1.7-0.2,2.6-0.5c0.6-0.2,1.6-0.3,1.6-1.2
				c0-0.7-0.8-0.9-1.4-1.3c-3.5-2.1-6.7-4.9-11.6-4.2c0.7-0.8,0.9-1.1,1.2-1.3c0.5-0.5,1.2-0.9,0.9-1.6c-0.3-0.9-1.1-0.2-1.7-0.1
				c-3.3,0.3-6.7-0.4-10,0.9c-0.1-1.2,0.9-1.5,0.7-2.4c-3.8-0.2-7.6,2.2-9,5.6c-0.3,0.7-0.7,1.4-0.1,2c0.6,0.6,1.3,0.4,2,0.1
				c0.6-0.3,1.1-0.6,1.8-0.1c2.2,1.6,4.5,1.7,6.9,0.2c1.7-1.1,4.3-0.8,5.5,0.4c1.9,1.8,2.4,3.6,1.5,5.6c-0.9,1.9-1.8,3.7,1.7,5.4
				c-3.6-0.2-2.8,0.9-1.9,2c1.1,1.4,2.3,2.8,2.1,4.8c-1-0.7-1.6-1.5-2.4-2.2c-0.4-0.3-1-0.9-1.5-0.3c-0.4,0.4,0.1,0.9,0.3,1.4
				c0.9,2.4,1.7,4.9,1.1,7.9c-1.1-2-1.6-4.1-3.6-5.3c-0.3,7.7-0.8,9.3-3.4,11.5c0-0.8,0-1.5,0-2.2c0-0.8,0.1-1.9-0.7-2.1
				c-1.1-0.3-1,1-1.3,1.7c-1.7,3.7-4.3,6.2-8.6,7.8c2.3-2.8,4.8-5,5.2-9c-3.5,2.9-7.1,3.6-11,4c-3.3,0.3-6.7,0.7-9.3,3.3
				c-0.6,0.6-1.5,1.3-1.1,2.2c0.3,0.8,1.3,0,1.9,0.2c0.3,0.1,0.7,0,0.9,0.6c-1.9,1.7-3.3,3.7-3.5,6.6c1.3-0.5,2.3-0.9,3.3-1.1
				c0.5-0.1,1.2-0.5,1.6,0c0.4,0.5-0.1,1-0.3,1.4c-1.8,3.6-1.4,7,0.3,10.5c0.7,1.4,1.1,1.9,2.2,0.2c2.7-3.9,7.3-5.5,10.9-8.7
				c0.2,1.3,0.1,2.2,0,3.2c-0.3,1.8-0.4,3.6,0.1,5.4c0.1,0.5,0.2,1.1,0.7,1.3c0.6,0.2,0.8-0.5,1.1-0.9c3.8-4.2,8.9-7.2,10.9-13
				c0.4,2.6,0.8,5,2,7.3c0.7,1.2,1.2,1.4,1.9,0c1.8-3.5,3.5-7,4.7-10.8c0.2-0.6,0.1-1.3,0.9-1.6c1.5,6.8,2.3,8.4,4.9,9.6
				c0-7.2,2.2-14.3-0.5-21.4c2.9,1.9,3.8,5.1,5.5,7.9c1.6-3.8,1.9-7.2,0.9-10.7C147.6,51.8,146.4,49.7,145.5,47.6L145.5,47.6z
				 M160.6,107.2c3.2,1.4,6.4,2.7,9.8,3.1c7.7,1,15.8-4.2,15.5-13.2c-0.1-4-1-7.6-2.6-11.2c-3.4-7.3-8.6-13.3-13-19.9
				c-2.3-3.4-4.7-6.9-5.7-11c-1.1-4.3-0.1-7.8,2.9-9.7c1.7-1.1,3.5-1,5.1,0.1c1.6,1.1,2.1,2.8,1.9,4.6c-0.2,1.8-1.1,3-3.1,2.9
				c-1.3,0-1,0.8-0.5,1.5c1.1,1.2,2.6,1.9,4.1,1.3c2.1-0.8,2.6,0.1,3.1,1.8c0.6,2.1,1.9,3.8,3.6,5.1c1.2,0.9,2.5,1.4,4,1.4
				c0.6,0,1.7-0.3,0.7-1.2c-2.4-2.1-2.1-4.9-2.5-7.6c-0.4-2.3-0.8-4.3,2.5-4.2c0.2,0,0.5-0.3,0.7-0.5c0.6-0.7,0.6-1.2-0.4-1.2
				c-2.2,0-3.5-1.3-4.7-2.8c-1.9-2.3-4-4-7.1-3.9c-0.3,0-0.7-0.1-1-0.3c-5.9-2.9-13,1.6-13,9c0,4.3,1.5,8,3.4,11.6
				c2.5,4.7,5.7,9,8.7,13.3c0.6,0.8,1.4,1.6,1.6,2.9c-2.8-0.9-5.3-1.5-7.9-2c-2.6-0.5-4.7-1.9-5.9-4.4c-0.2-0.4-0.2-1-0.8-0.8
				c-0.5,0.1-0.4,0.7-0.5,1.1c-0.6,3.9,1.2,7.3,5.1,9.2c1.2,0.6,1.6,1.1,1.3,2.5c-0.4,1.9,0.4,3.5,2.3,4.2c1,0.4,2.3,0.9,1.7-1.3
				c-0.4-1.4,0.7-2.1,1.9-2.4c1.1-0.2,2.1-0.1,3.2,0.4c5.4,2.5,8.4,9.5,6.3,15.2c-1.1,3.1-3.5,5-6.8,5.4c-3.5,0.4-6.9-0.1-9.9-2
				c-6.7-4.3-13.4-8.4-20.2-12.6c-3.6-2.2-6.1-5.5-7.4-9.7c-0.2-0.5-0.2-1.2-0.9-1.6c-1.1,1.1-1.7,2.5-2.4,3.8
				c-2.4,4.5-2.4,4.6-5.2,0.2c-0.6-1-1-1.3-1.8-0.2c-1.3,1.9-3,3.3-4.9,4.6c-2.1,1.4-4,2.9-5,5.3c-0.5,1.3-1,0.6-1.4-0.1
				c-1.5-2.4-2.4-5.2-2.9-8c-0.3-1.8-1.1-1.6-2.2-0.9c-3,2-5.6,4.4-6.1,8.4c-2.1-1.3-3.1-3.2-4.2-5c-0.9-1.5-1.5-1.5-2.8-0.4
				C94,90.8,91,93.8,87.3,96c-2.2,1.3-4.5,2.3-7,2.4c-2,0-2.8-1.9-4.1-3c-1-0.9-2.3-1.2-3.5-0.6c-0.8,0.4-1.5,0.6-2.4,0.6
				c-1.3,0.1-2.7,0.8-2.5,2.2c0.1,1.3,1.4,0.4,2.2,0.3c1.7-0.1,1.3,1.7,2.2,2.4c0.5,0.4-0.8,0.7-1.2,1c-1.9,1.3-2.6,3.5-3.6,5.3
				c-0.3,0.5-0.4,1.6,0.4,2c0.7,0.3,1-0.7,1.5-1c0.6-0.4,1-1,1.3-1.7c0.9,1.5,3.5,1.5,3.1,4.1c-0.1,0.4,0.4,1.1,0.1,1.8
				c-0.7,1.7,0.2,2.9,1.7,4.3c0.2-2.3,0.1-4.1,2.6-4.1c0.7,0,1.1-0.8,1.5-1.5c0.3-0.5,0.2-1.7,1-1.5c0.8,0.3,1.7,1,2,2
				c0.1,0.5,0.1,1,0.2,1.5c0,0.4,0,1,0.5,1c0.4,0,1-0.2,1.1-0.5c0.9-1.8,2-4,1.3-5.8c-0.7-2.1,0.3-2.3,1.6-2.6c1.8-0.4,3.1,0.5,4,2
				c0.3,0.5,0.3,1.3,1.1,1.2c0.8-0.1,1.5-0.8,1.4-1.5c-0.2-2.5,1.8-2.4,3.3-2.7c1.7-0.3,3.4-0.7,5.1-1.3c2.5-0.9,4.9-2.3,7.7-1.9
				c0.8,0.1,0.7-0.5,0.7-1c0-0.7-0.1-1.3,0-2c0-0.6,0.2-1.2,0.9-1.3c0.7-0.1,1.2,0.5,1.2,1c0.1,2.6,2.1,2.9,3.9,3.4
				c1.9,0.6,3.8,1.1,5.7,1.5c5.4,1.2,9.9,3.7,13.1,8.3c0.4,0.6,0.9,1.2,1.8,1.3c-0.2-2.5-0.9-4.6-1.7-6.7c2,1.6,3.1,3.6,3.2,6.1
				c0.4,8.7,3.1,16.4,8.9,23c1.2,1.4,2.1,3,2.1,4.9c0,0.5-0.3,1.1,0.4,1.3c0.6,0.2,1.1-0.3,1.5-0.7c0.4-0.4,0.8-0.8,0.9-1.2
				c0.5-2.9,2.1-2.3,3.9-1.4c0.8,0.4,1.7,0.9,2.6,1.2c3.3,1.4,5.2,3.8,5.6,7.4c0.5,3.4-0.6,6.5-2.1,9.4c-0.9,1.7-1.9,1.7-3.3,0.5
				c-2.6-2.2-7.5-1.2-9,1.8c-0.2,0.4-0.8,1.3,0.1,1.4c3,0.4,1.3,2.3,1,3.3c-0.3,1-0.9,2-0.7,3.1c0,0.4,0.1,0.8,0.5,0.9
				c0.4,0.2,0.6-0.2,0.9-0.5c0.7-0.9,1.5-1.8,2.3-2.9c0.4,1.6,1,2.8,0.4,4.4c-0.4,1.1,0.3,2.5,1.7,3.4c0.5-1.8,0.5-3.9,3.1-3.4
				c0.3,0.1,0.7-0.4,1-0.8c0.3-0.4,0.6-0.6,1.1-0.4c0.5,0.2,0.5,0.7,0.4,1.1c-0.2,1.1,0,2,0.7,2.9c0.3,0.4,0.6,1,1.1,0.9
				c0.7-0.1,0.4-0.8,0.6-1.2c0.3-0.7,0-1.8,1-1.9c1.6-0.1,2.2-1.1,2.6-2.4c0.3-1.1,1.7-1.2,2.3-0.2c0.3,0.5,0.5,1.2,0.7,1.8
				c0.1,0.3,0.1,0.8,0.5,0.9c0.5,0.1,0.9-0.3,1-0.7c0.9-2.1,1.3-4.5,0.2-6.3c-1.2-1.9-1-3.4-0.3-5.2c1.2-2.7,3.6-4.5,6.4-4.3
				c1.5,0.1,1.4-0.6,1-1.6c-0.3-0.7-1-1-1.5-1.5c-1.5-1.1-1.4-6.3,0.3-6.8c2.1-0.6,1.4-1.9,1.1-3c-0.3-1.1-1.1-2-1.8-2.9
				c-0.7-0.8-1.3-1.8,0.3-2.4c1.1-0.4,0.6-0.9,0.3-1.5c-0.9-1.5-2.3-1.8-4-1.8c-5.3,0.2-8.8-2.7-9.5-8
				C164,117,163.2,111.9,160.6,107.2z M104.9,156.5c2.3-0.9,3.9-3.6,3.7-6.1c0-0.9-0.1-1.8,1-2.1c1.1-0.3,2.2-0.2,2.9,0.9
				c0.2,0.2,0.3,0.5,0.4,0.8c0.2,0.4,0.1,1.1,0.8,1.1c0.6,0,1.1-0.5,1.3-1c0.2-0.4,0.2-0.8,0.3-1.3c0.3-1.8,5.1-4.5,6.8-3.8
				c0.4,0.1,0.6,0.4,0.7,0.8c0.3,1.5,1,0.8,1.6,0.2c1.1-1.2,1.7-2.7,1.8-4.4c0.1-1,0.4-1.6,1.5-0.9c0.5,0.3,0.5,1.5,1.4,0.9
				c0.7-0.4,0.6-1.3,0.6-2c0-1.9-1.2-3-2.5-4.2c-2.7-2.4-2.8-5.5-1.9-8.6c0.7-2.9,3.2-3.8,5.7-4.4c1.7-0.4,3.4-0.6,5.2-0.7
				c1.3-0.1,1.8-0.5,1.4-1.9c-1.3-5.1-4.4-9-8.7-11.8c-1.6-1.1-3.5-1.2-5.5-0.9c-3.2,0.6-6.2,1.5-9.2,2.7c-2.6,1.1-4.7,2.4-5.7,5.4
				c-0.7,2.1-1.1,4.7-3.8,5.7c-0.6,0.2-1.5,0.2-1.5,1c0,0.8,0.9,1.1,1.5,1.4c0.5,0.2,1.1,0.4,1.7,0.4c1.2,0,1.9,0.6,2.2,1.7
				c0.6,2,1.6,3.7,2.7,5.5c1.6,2.6,1.3,4.4-0.8,6.7c-2,2.2-4.7,3.4-7.4,4.5c-3.5,1.4-4,1.3-6.6-1.5c-1.5-1.6-3.7-2.2-5.3-1.1
				c-1,0.6-1.9,1.3-3,1.9c-0.9,0.5-1.6,1.7-1.2,2.6c0.6,1.1,1.4-0.3,2.2-0.4c0.5-0.1,1.1-0.6,1.5,0.2c0.3,0.6-0.1,0.9-0.5,1.3
				c-1.5,1.3-1.5,3.3-2.6,4.8c-0.6,0.9-0.4,2.2,0.5,2.8c0.9,0.5,1-0.9,1.6-1.3c0.2-0.1,0.4-0.5,0.6-0.6c1.1-0.5,2.4-0.9,2.9,0.4
				c0.8,2,2.9,2.2,4.2,3.4c0.8,0.8,2.2-0.3,2.8-1.4c0.3-0.5,0.4-1.1,0.6-1.6c0.5-1.3,1.5-1.4,2.1-0.3
				C103.9,152.8,106.3,153.9,104.9,156.5z M96.9,78.6c-2.5,1.4-2.3-0.2-2.3-1.5c0.1-1.7,0.6-3.3,1.1-4.9c0.2-0.5,0.6-1.4-0.3-1.3
				c-2.9,0.1-1.7-1.4-1-2.5c1.2-1.6,0.6-2.3-1-3.1c-3.8-1.8-6.9-4.6-10-7.4c-1.1-1-1.7-2.2-1-3.9c1.3-2.9,0.5-5.6-2.2-7.4
				c-0.6-0.4-1.3-1-2-0.4c-0.6,0.6,0.3,1.2,0.5,1.7c0.2,0.6,0.7,1.1,1.1,1.7c-0.6,0.4-1.3,0.8-2.1,1.4c-0.5-1.6-0.8-3.3-2.5-3.6
				c-1-0.1-1.8-0.4-2.7-0.9c-1-0.5-2.4-0.8-3,0.2c-0.6,1,1.1,1,1.5,1.7c0,0.1,0.1,0.1,0.2,0.1c1.4,0.5,0.7,1.6,0.8,2.5
				c0.1,1.1-0.8,1-1.5,1.1c-0.8,0.2-1.4,0.5-2.4,0.3c-1.4-0.3-2.9,0.4-3.4,2.3c1.8,0.2,3.9-0.6,4.6,1.9c0.2,0.6,1.7,0.6,0.7,1.8
				c-0.5,0.6-0.5,1.5-1.6,1.6c-1.1,0.1-1.6,1-1.9,1.9c-0.1,0.4-0.4,0.9-0.1,1.2c0.4,0.4,0.8-0.1,1.1-0.2c1.2-0.5,2.3-1.1,3.5,0.2
				c0.9,0.9,2.1,0.3,3.2-0.4c1.4-0.8,3.9,0.5,3.6,2c-0.4,1.6-0.7,3.5-2.7,4.3c-0.5,0.2-1.6-0.1-1.5,0.9c0.1,0.7,0.9,0.8,1.5,1
				c1.9,0.6,3.6-0.5,5.3-0.9c0.7-0.2,1.4-0.8,1.9,0c1.7,2.3,3.3,4.7,3,7.7c-0.1,0.6-0.6,1.3,0.2,1.8c0.7,0.4,1.5,0.3,2-0.3
				c1-1.1,1.3-0.3,1.9,0.3c1.5,1.5,2.9,3.2,4.9,4.3c1.2,0.7,1.7,0.5,1.6-0.9C96.3,81.9,96.4,80.5,96.9,78.6z M125.4,40.1
				c1-0.2,1.5-0.3,2-0.4c1.7-0.6,3.1-1.4,3.3-3.4c0.2-1.4,0.1-3-1.1-3.7c-1.6-1-3.2-0.8-4.9,0.4c-1.2,0.9-2.8,1.2-4.3,0.6
				c-3.1-1.3-6.3-0.9-9.3-0.1c-4.2,1.2-7.1,5-11.3,6.4c-0.3,0.1-0.6,0.4-0.5,0.9c0.1,0.4,0.5,0.3,0.7,0.3c0.9,0.2,2.4-0.6,2.7,0.5
				c0.2,0.9-1.3,1.6-2,2.4c0,0.1-0.1,0.1-0.2,0.2c-0.9,0.7-1,1.7-0.4,2.5c0.8,1.1,1.7,2.2,3,2.7c0.1,0,0.4-0.3,0.6-0.5
				c1.8-2.3,5.5-2.3,7.2,0c1.4,2,0.7,4.3-1.6,5c-1.5,0.4-3,0.5-4.4-0.3c-0.7-0.4-1.3-0.4-1.4,0.5c-0.3,1.9,1.1,3.3,1.9,4.8
				c0.5,1,1-0.5,1.7-0.6c0.1,0,0.3-0.1,0.4,0c1.9,1.8,1.9,0,2.4-1.2c0.4-1.2,1.2-1.8,2.5-1.6c1,0.1,2,0.4,2.4,1.6
				c0.6,1.7,1.5,1.9,2.5,0.4c0.7-1,1.4-2.1,2.4-2.6c2.2-0.9,1.6-2.5,1.4-4.1c0-0.3,0-0.5,0.1-1c1.4,1.1,1.2,2.9,2,4.3
				c1.4-2.5,0.7-4.8,0.4-7.1c1.2,0.2,1.1,1.6,2.4,2.1c-1-2.5-0.7-4.8,0.1-6.7C126.8,41.3,126.5,40.9,125.4,40.1z M94.4,46.3
				c-2,3.7-0.2,6.9,3.5,7c2.4,0.1,4.5-1,6.6-2.1C100.5,50.9,95.9,52.5,94.4,46.3z M95.7,155.5c0.1-1-0.2-1.9-1.1-2.2
				c-0.7-0.3-1.1,0.5-1.2,1.2c0,1.1,0.1,2.4,1.3,2.7C95.6,157.3,95.3,156,95.7,155.5z"/>
			<path class="st6" d="M145.5,47.6c1,2.1,2.1,4.1,2.7,6.4c0.9,3.5,0.7,6.9-0.9,10.7c-1.7-2.9-2.6-6-5.5-7.9
				c2.7,7.1,0.5,14.3,0.5,21.4c-2.5-1.2-3.4-2.8-4.9-9.6c-0.8,0.3-0.7,1-0.9,1.6c-1.2,3.8-2.9,7.3-4.7,10.8c-0.7,1.3-1.2,1.2-1.9,0
				c-1.2-2.2-1.6-4.6-2-7.3c-2,5.8-7.2,8.8-10.9,13c-0.3,0.3-0.5,1.1-1.1,0.9c-0.5-0.2-0.5-0.8-0.7-1.3c-0.5-1.8-0.5-3.6-0.1-5.4
				c0.2-0.9,0.2-1.8,0-3.2c-3.6,3.2-8.2,4.8-10.9,8.7c-1.2,1.7-1.5,1.1-2.2-0.2c-1.7-3.5-2.1-6.9-0.3-10.5c0.2-0.4,0.7-0.9,0.3-1.4
				c-0.4-0.6-1.1-0.2-1.6,0c-1,0.3-2,0.7-3.3,1.1c0.2-2.9,1.6-4.9,3.5-6.6c-0.2-0.6-0.6-0.5-0.9-0.6c-0.7-0.2-1.6,0.7-1.9-0.2
				c-0.4-0.9,0.5-1.6,1.1-2.2c2.6-2.6,6-3,9.3-3.3c3.8-0.4,7.5-1.1,11-4c-0.4,4-2.9,6.2-5.2,9c4.3-1.6,7-4.1,8.6-7.8
				c0.3-0.6,0.2-1.9,1.3-1.7c0.8,0.2,0.7,1.3,0.7,2.1c0,0.7,0,1.4,0,2.2c2.6-2.2,3.1-3.8,3.4-11.5c2,1.2,2.5,3.3,3.6,5.3
				c0.7-3-0.2-5.4-1.1-7.9c-0.2-0.4-0.7-1-0.3-1.4c0.5-0.5,1.1,0,1.5,0.3c0.8,0.7,1.5,1.6,2.4,2.2c0.1-2-1.1-3.4-2.1-4.8
				c-0.9-1.2-1.7-2.2,1.9-2c-3.5-1.7-2.7-3.5-1.7-5.4c1-2,0.4-3.9-1.5-5.6c-1.2-1.2-3.9-1.4-5.5-0.4c-2.4,1.5-4.7,1.5-6.9-0.2
				c-0.7-0.5-1.2-0.1-1.8,0.1c-0.7,0.3-1.5,0.4-2-0.1c-0.6-0.6-0.2-1.4,0.1-2c1.4-3.4,5.2-5.7,9-5.6c0.2,0.8-0.8,1.2-0.7,2.4
				c3.3-1.3,6.7-0.6,10-0.9c0.6,0,1.4-0.8,1.7,0.1c0.3,0.7-0.5,1.1-0.9,1.6c-0.3,0.3-0.5,0.5-1.2,1.3c5-0.8,8.2,2.1,11.6,4.2
				c0.6,0.3,1.4,0.6,1.4,1.3c0,0.8-1,0.9-1.6,1.2c-0.8,0.3-1.7,0.3-2.6,0.5c0,0.2-0.1,0.4,0,0.4c3.7,2.3,5.8,5.8,7.3,9.8
				c0.3,0.7,0.8,1.4,1.3,2c0.3,0.4,1.1,0.7,0.6,1.4c-0.4,0.5-1.1,0.4-1.6,0.2C147.9,48.6,146.7,48.1,145.5,47.6
				c-0.1-0.1,0.1-0.4-0.2-0.3C145.3,47.4,145.4,47.5,145.5,47.6z"/>
			<path class="st6" d="M104.9,156.5c1.3-2.6-1-3.7-2-5.4c-0.6-1.1-1.6-0.9-2.1,0.3c-0.2,0.5-0.3,1.1-0.6,1.6
				c-0.6,1.1-2,2.2-2.8,1.4c-1.3-1.2-3.4-1.4-4.2-3.4c-0.5-1.3-1.8-0.9-2.9-0.4c-0.2,0.1-0.4,0.5-0.6,0.6c-0.6,0.4-0.8,1.9-1.6,1.3
				c-0.9-0.5-1-1.9-0.5-2.8c1-1.5,1.1-3.6,2.6-4.8c0.4-0.3,0.8-0.7,0.5-1.3c-0.4-0.7-1-0.2-1.5-0.2c-0.8,0.1-1.5,1.6-2.2,0.4
				c-0.5-0.9,0.3-2.1,1.2-2.6c1-0.6,2-1.3,3-1.9c1.6-1.1,3.8-0.5,5.3,1.1c2.6,2.8,3.1,3,6.6,1.5c2.7-1.1,5.4-2.2,7.4-4.5
				c2.1-2.3,2.3-4.1,0.8-6.7c-1-1.8-2.1-3.5-2.7-5.5c-0.3-1.1-1-1.7-2.2-1.7c-0.6,0-1.2-0.2-1.7-0.4c-0.6-0.3-1.5-0.6-1.5-1.4
				c0-0.9,0.9-0.8,1.5-1c2.7-1,3.1-3.6,3.8-5.7c1-3,3.1-4.3,5.7-5.4c3-1.2,6-2.1,9.2-2.7c2-0.4,3.9-0.2,5.5,0.9
				c4.3,2.9,7.4,6.7,8.7,11.8c0.4,1.4-0.1,1.8-1.4,1.9c-1.7,0.1-3.5,0.3-5.2,0.7c-2.5,0.6-5,1.5-5.7,4.4c-0.8,3.2-0.8,6.2,1.9,8.6
				c1.3,1.1,2.5,2.3,2.5,4.2c0,0.7,0.1,1.6-0.6,2c-0.9,0.6-0.9-0.6-1.4-0.9c-1.1-0.7-1.5-0.1-1.5,0.9c-0.1,1.7-0.7,3.1-1.8,4.4
				c-0.5,0.6-1.3,1.3-1.6-0.2c-0.1-0.4-0.3-0.6-0.7-0.8c-1.8-0.7-6.5,2-6.8,3.8c-0.1,0.4-0.1,0.9-0.3,1.3c-0.3,0.5-0.7,1-1.3,1
				c-0.7,0-0.6-0.7-0.8-1.1c-0.1-0.3-0.2-0.5-0.4-0.8c-0.7-1.1-1.8-1.3-2.9-0.9c-1.1,0.3-1,1.2-1,2.1
				C108.8,153,107.2,155.7,104.9,156.5z M114.1,144.6c2.5-0.5,4.9-1.3,7-2.7c4.1-2.9,4.4-5,1.3-9.1c-0.7,0.8-0.4,1.6-0.2,2.4
				c0.9,2.9,0.8,3.6-1.7,5.3C118.4,142,116.2,143.3,114.1,144.6z"/>
			<path class="st6" d="M96.9,78.6c-0.6,1.9-0.7,3.3-0.6,4.7c0.1,1.5-0.4,1.6-1.6,0.9c-2-1.1-3.4-2.7-4.9-4.3
				c-0.6-0.6-1-1.5-1.9-0.3c-0.5,0.6-1.3,0.7-2,0.3c-0.8-0.4-0.2-1.1-0.2-1.8c0.2-3.1-1.4-5.4-3-7.7c-0.6-0.8-1.2-0.2-1.9,0
				c-1.8,0.4-3.4,1.5-5.3,0.9c-0.6-0.2-1.5-0.3-1.5-1c-0.1-1,0.9-0.7,1.5-0.9c1.9-0.8,2.3-2.7,2.7-4.3c0.4-1.5-2.1-2.9-3.6-2
				c-1.1,0.6-2.3,1.2-3.2,0.4c-1.3-1.3-2.3-0.7-3.5-0.2c-0.4,0.2-0.7,0.7-1.1,0.2c-0.3-0.4,0-0.8,0.1-1.2c0.3-1,0.8-1.8,1.9-1.9
				c1.1-0.1,1.1-1.1,1.6-1.6c1-1.2-0.5-1.2-0.7-1.8c-0.7-2.5-2.8-1.7-4.6-1.9c0.5-1.8,2-2.6,3.4-2.3c1,0.2,1.6-0.1,2.4-0.3
				c0.7-0.1,1.5,0,1.5-1.1c0-0.9,0.6-2.1-0.8-2.5c-0.1,0-0.1-0.1-0.2-0.1c-0.4-0.7-2.1-0.8-1.5-1.7c0.6-1,2-0.8,3-0.2
				c0.9,0.5,1.7,0.8,2.7,0.9c1.7,0.3,2.1,2,2.5,3.6c0.8-0.5,1.5-0.9,2.1-1.4c-0.4-0.6-0.8-1.1-1.1-1.7c-0.2-0.6-1.1-1.1-0.5-1.7
				c0.6-0.6,1.4,0,2,0.4c2.6,1.8,3.5,4.5,2.2,7.4c-0.7,1.7-0.1,2.8,1,3.9c3.1,2.8,6.2,5.6,10,7.4c1.6,0.7,2.2,1.4,1,3.1
				c-0.7,1-1.9,2.6,1,2.5c0.9,0,0.5,0.8,0.3,1.3c-0.6,1.6-1.1,3.2-1.1,4.9C94.6,78.4,94.4,79.9,96.9,78.6z M86.8,72.4
				c1.8,2.2,2.9,5.1,6.4,6.6C91.1,76.1,89.2,74,86.8,72.4z"/>
			<path class="st6" d="M125.4,40.1c1.1,0.8,1.4,1.2,0.9,2.4c-0.8,2-1.2,4.3-0.1,6.7c-1.3-0.5-1.2-1.9-2.4-2.1
				c0.3,2.3,0.9,4.6-0.4,7.1c-0.8-1.5-0.6-3.2-2-4.3c-0.1,0.5-0.1,0.8-0.1,1c0.2,1.6,0.8,3.2-1.4,4.1c-1,0.4-1.7,1.5-2.4,2.6
				c-1,1.5-1.9,1.2-2.5-0.4c-0.4-1.2-1.3-1.5-2.4-1.6c-1.3-0.1-2.1,0.5-2.5,1.6c-0.4,1.1-0.5,2.9-2.4,1.2c-0.1-0.1-0.3,0-0.4,0
				c-0.7,0-1.2,1.5-1.7,0.6c-0.8-1.5-2.2-2.8-1.9-4.8c0.1-1,0.7-0.9,1.4-0.5c1.4,0.8,3,0.8,4.4,0.3c2.3-0.7,3.1-3.1,1.6-5
				c-1.7-2.3-5.3-2.3-7.2,0c-0.2,0.2-0.5,0.5-0.6,0.5c-1.3-0.6-2.2-1.6-3-2.7c-0.6-0.9-0.5-1.8,0.4-2.5c0.1,0,0.1-0.1,0.2-0.2
				c0.7-0.8,2.2-1.4,2-2.4c-0.3-1.1-1.8-0.3-2.7-0.5c-0.3-0.1-0.6,0-0.7-0.3c-0.1-0.4,0.2-0.8,0.5-0.9c4.2-1.4,7-5.2,11.3-6.4
				c3-0.9,6.2-1.2,9.3,0.1c1.5,0.6,3.1,0.3,4.3-0.6c1.6-1.2,3.3-1.4,4.9-0.4c1.3,0.8,1.3,2.3,1.1,3.7c-0.3,2-1.7,2.8-3.3,3.4
				C126.9,39.9,126.4,39.9,125.4,40.1z M124.7,35c1.1-0.1,2.1-0.2,2.4,1c0.3,1.4-0.9,1.8-1.9,2.4c1.5,0.9,2.5,0.5,3.2-0.7
				c0.7-1.2,0.8-2.6-0.3-3.6C126.8,33.1,125.7,33.8,124.7,35z M114.8,50.8c0-2.7-1.6-4.1-2.4-5.8c0.6-0.7,1.8,0,2.1-1.1
				c-1.4,0-2.8,0-4.3-0.5C111.6,45.6,113,47.9,114.8,50.8z M109.9,38.3c0.8,0.3,1.5,0.6,2.1,0.9c1.1,0.5,1.6-0.4,2.3-0.9
				c0.2-0.2,0.5-0.4,0.3-0.7c-0.5-0.7-1.2-0.7-2-0.7C111.5,36.8,110.6,37.2,109.9,38.3z"/>
			<path class="st6" d="M94.4,46.3c1.5,6.2,6.1,4.6,10.1,4.9c-2.1,1.1-4.2,2.2-6.6,2.1C94.2,53.2,92.4,50,94.4,46.3z"/>
			<path class="st6" d="M95.7,155.5c-0.4,0.5-0.1,1.8-0.9,1.6c-1.2-0.3-1.3-1.6-1.3-2.7c0-0.7,0.4-1.5,1.2-1.2
				C95.4,153.6,95.8,154.5,95.7,155.5z"/>
			<path class="st0" d="M173.9,147.7c-0.5-10.3-0.5-10.3-4.8-14C174,133.9,177,137.4,173.9,147.7z"/>
			<path class="st0" d="M96.4,100.8c3.6-1.6,6.6-2.7,9.5-4.4C105.3,98.7,100.6,101,96.4,100.8z"/>
			<path class="st7" d="M145.5,47.6c-0.1-0.1-0.2-0.2-0.2-0.3C145.6,47.2,145.4,47.5,145.5,47.6L145.5,47.6z"/>
			<path class="st0" d="M114.1,144.6c2.1-1.4,4.3-2.6,6.4-4.1c2.5-1.8,2.6-2.4,1.7-5.3c-0.3-0.8-0.5-1.7,0.2-2.4
				c3.1,4.1,2.8,6.3-1.3,9.1C119,143.3,116.6,144.1,114.1,144.6z"/>
			<path class="st0" d="M86.8,72.4c2.4,1.6,4.3,3.8,6.4,6.6C89.7,77.5,88.7,74.6,86.8,72.4z"/>
			<path class="st0" d="M124.7,35c1-1.2,2.1-1.8,3.3-0.8c1.2,1,1,2.4,0.3,3.6c-0.7,1.2-1.7,1.7-3.2,0.7c1-0.7,2.2-1.1,1.9-2.4
				C126.8,34.7,125.8,34.9,124.7,35z"/>
			<path class="st0" d="M114.8,50.8c-1.8-2.9-3.2-5.2-4.6-7.5c1.4,0.6,2.8,0.5,4.3,0.5c-0.4,1.2-1.5,0.5-2.1,1.1
				C113.2,46.6,114.8,48.1,114.8,50.8z"/>
			<path class="st0" d="M109.9,38.3c0.7-1.1,1.6-1.5,2.7-1.5c0.7,0,1.5,0.1,2,0.7c0.2,0.3-0.1,0.5-0.3,0.7c-0.7,0.5-1.2,1.4-2.3,0.9
				C111.4,38.9,110.7,38.7,109.9,38.3z"/>
		</g>
	</g>
	<path class="st6" d="M192.8,38.8c-1.4-9.1-5.5-13.5-8.7-15.6c-3.9-2.6-8.9-3.4-13.7-2.2c-2,0.5-3.9,1.3-5.5,2.3c-3.3,0-8,2.5-9.6,2
		c-1.4,0.3-2.2-2.5-2.5-0.5c-0.3,2,1.3,0.8,2.2,3.1c0.9,2.4-4.1,7.8-6.4,8.5c-3.8,0.8,0.8,2.3,3.7,2c2.9-0.3,5.4-2.8,6.1-3.6
		c0.7-0.8,2.2-0.1,2.9,0.8c0.7,0.9,2.1,1.4,4,0.8c1.8-0.7,0.1-1.2-1-2.5c-1.1-1.2,0.2-4.7,1.4-5.5c1.2-0.7,2.7-2,2.5-2.7
		c0,0,0,0,0,0c1-0.5,2-0.9,3.1-1.1c3.8-0.9,7.6-0.4,10.7,1.7c3.7,2.5,6.1,7,7.1,13.1c3.3,23.7-0.8,39.9-4.8,49.3
		c-1.2,2.7-2.4,5.1-3.6,7c-0.3-3.4-1.1-6.6-2.6-9.7c-3.4-7.3-8.6-13.3-13-19.9c-2.3-3.4-4.7-6.9-5.7-11c-1.1-4.3-0.1-7.8,2.9-9.7
		c1.7-1.1,3.5-1,5.1,0.1c1.6,1.1,2.1,2.8,1.9,4.6c-0.2,1.8-1.1,3-3.1,2.9c-1.3,0-1,0.8-0.5,1.5c1.1,1.2,2.6,1.9,4.1,1.3
		c2.1-0.8,2.6,0.1,3.1,1.8c0.6,2.1,1.9,3.8,3.6,5.1c1.2,0.9,2.5,1.4,4,1.4c0.6,0,1.7-0.3,0.7-1.2c-2.4-2.1-2.1-4.9-2.5-7.6
		c-0.4-2.3-0.8-4.3,2.5-4.2c0.2,0,0.5-0.3,0.7-0.5c0.6-0.7,0.6-1.2-0.4-1.2c-2.2,0-3.5-1.3-4.7-2.8c-1.9-2.3-4-4-7.1-3.9
		c-0.3,0-0.7-0.1-1-0.3c-5.9-2.9-13,1.6-13,9c0,4.3,1.5,8,3.4,11.6c2.5,4.7,5.7,9,8.7,13.3c0.6,0.8,1.4,1.6,1.6,2.9
		c-2.8-0.9-5.3-1.5-7.9-2c-2.6-0.5-4.7-1.9-5.9-4.4c-0.2-0.4-0.2-1-0.8-0.8c-0.5,0.1-0.4,0.7-0.5,1.1c-0.6,3.9,1.2,7.3,5.1,9.2
		c1.2,0.6,1.6,1.1,1.3,2.5c-0.4,1.9,0.4,3.5,2.3,4.2c1,0.4,2.3,0.9,1.7-1.3c-0.4-1.4,0.7-2.1,1.9-2.4c1.1-0.2,2.1-0.1,3.2,0.4
		c5.4,2.5,8.4,9.5,6.3,15.2c-1.1,3.1-3.5,5-6.8,5.4c-3.5,0.4-6.9-0.1-9.9-2c-6.7-4.3-13.4-8.4-20.2-12.6c-3.6-2.2-6.1-5.5-7.4-9.7
		c-0.2-0.5-0.2-1.2-0.9-1.6c-1.1,1.1-1.7,2.5-2.4,3.8c-2.4,4.5-2.4,4.6-5.2,0.2c-0.6-1-1-1.3-1.8-0.2c-1.3,1.9-3,3.3-4.9,4.6
		c-2.1,1.4-4,2.9-5,5.3c-0.5,1.3-1,0.6-1.4-0.1c-1.5-2.4-2.4-5.2-2.9-8c-0.3-1.8-1.1-1.6-2.2-0.9c-3,2-5.6,4.4-6.1,8.4
		c-2.1-1.3-3.1-3.2-4.2-5C94,87,93.3,87,92,88.1c-3.2,2.7-6.1,5.7-9.8,7.9c-2.2,1.3-4.5,2.3-7,2.4c-2,0-2.8-1.9-4.1-3
		c-1-0.9-2.3-1.2-3.5-0.6c-0.8,0.4-1.5,0.6-2.4,0.6c-1.3,0.1-2.7,0.8-2.5,2.2c0.1,1.3,1.4,0.4,2.2,0.3c1.7-0.1,1.3,1.7,2.2,2.4
		c0.5,0.4-0.8,0.7-1.2,1c-1.9,1.3-2.6,3.5-3.6,5.3c-0.3,0.5-0.4,1.6,0.4,2c0.7,0.3,1-0.7,1.5-1c0.6-0.4,1-1,1.3-1.7
		c0.9,1.5,3.5,1.5,3.1,4.1c-0.1,0.4,0.4,1.1,0.1,1.8c-0.7,1.7,0.2,2.9,1.7,4.3c0.2-2.3,0.1-4.1,2.6-4.1c0.7,0,1.1-0.8,1.5-1.5
		c0.3-0.5,0.2-1.7,1-1.5c0.8,0.3,1.7,1,2,2c0.1,0.5,0.1,1,0.2,1.5c0,0.4,0,1,0.5,1c0.4,0,1-0.2,1.1-0.5c0.9-1.8,2-4,1.3-5.8
		c-0.7-2.1,0.3-2.3,1.6-2.6c1.8-0.4,3.1,0.5,4,2c0.3,0.5,0.3,1.3,1.1,1.2c0.8-0.1,1.5-0.8,1.4-1.5c-0.2-2.5,1.8-2.4,3.3-2.7
		c1.7-0.3,3.4-0.7,5.1-1.3c2.5-0.9,4.9-2.3,7.7-1.9c0.8,0.1,0.7-0.5,0.7-1c0-0.7-0.1-1.3,0-2c0-0.6,0.2-1.2,0.9-1.3
		c0.7-0.1,1.2,0.5,1.2,1c0.1,2.6,2.1,2.9,3.9,3.4c1.9,0.6,3.8,1.1,5.7,1.5c5.4,1.2,9.9,3.7,13.1,8.3c0.4,0.6,0.9,1.2,1.8,1.3
		c-0.2-2.5-0.9-4.6-1.7-6.7c2,1.6,3.1,3.6,3.2,6.1c0.4,8.7,3.1,16.4,8.9,23c1.2,1.4,2.1,3,2.1,4.9c0,0.5-0.3,1.1,0.4,1.3
		c0.6,0.2,1.1-0.3,1.5-0.7c0.4-0.4,0.8-0.8,0.9-1.2c0.5-2.9,2.1-2.3,3.9-1.4c0.8,0.4,1.7,0.9,2.6,1.2c3.3,1.4,5.2,3.8,5.6,7.4
		c0.5,3.4-0.6,6.5-2.1,9.4c-0.9,1.7-1.9,1.7-3.3,0.5c-2.6-2.2-7.5-1.2-9,1.8c-0.2,0.4-0.8,1.3,0.1,1.4c3,0.4,1.3,2.3,1,3.3
		c-0.3,1-0.9,2-0.7,3.1c0,0.4,0.1,0.8,0.5,0.9c0.4,0.2,0.6-0.2,0.9-0.5c0.7-0.9,1.5-1.8,2.3-2.9c0.4,1.6,1,2.8,0.4,4.4
		c-0.4,1.1,0.3,2.5,1.7,3.4c0.5-1.8,0.5-3.9,3.1-3.4c0.3,0.1,0.7-0.4,1-0.8c0.3-0.4,0.6-0.6,1.1-0.4c0.5,0.2,0.5,0.7,0.4,1.1
		c-0.2,1.1,0,2,0.7,2.9c0.3,0.4,0.6,1,1.1,0.9c0.7-0.1,0.4-0.8,0.6-1.2c0.3-0.7,0-1.8,1-1.9c1.6-0.1,2.2-1.1,2.6-2.4
		c0.3-1.1,1.7-1.2,2.3-0.2c0.3,0.5,0.5,1.2,0.7,1.8c0.1,0.3,0.1,0.8,0.5,0.9c0.5,0.1,0.9-0.3,1-0.7c0.9-2.1,1.3-4.5,0.2-6.3
		c-1.2-1.9-1-3.4-0.3-5.2c1.2-2.7,3.6-4.5,6.4-4.3c1.5,0.1,1.4-0.6,1-1.6c-0.3-0.7-1-1-1.5-1.5c-1.5-1.1-1.4-6.3,0.3-6.8
		c2.1-0.6,1.4-1.9,1.1-3c-0.3-1.1-1.1-2-1.8-2.9c-0.7-0.8-1.3-1.8,0.3-2.4c1.1-0.4,0.6-0.9,0.3-1.5c-0.9-1.5-2.3-1.8-4-1.8
		c-5.3,0.2-8.8-2.7-9.5-8c-0.7-5.2-1.5-10.2-4.1-14.9c3.2,1.4,6.4,2.7,9.8,3.1c5,0.7,10.2-1.3,13.1-5.2c2-2.1,5.8-6.8,9.2-14.7
		C195.4,72.5,194.7,52.5,192.8,38.8z M91.3,100.8c3.6-1.6,6.6-2.7,9.5-4.4C100.2,98.7,95.5,101,91.3,100.8z M168.8,147.7
		c-0.5-10.3-0.5-10.3-4.8-14C168.9,133.9,171.9,137.4,168.8,147.7z"/>
	<g>
		<path class="st6" d="M45.9,216.3h-0.1l-8.2,4.3l-1.9-9.9l11.7-6H57v49H45.9V216.3z"/>
		<path class="st6" d="M101.6,203.9c9.5,0,14.1,6.2,14.1,12.7c0,3.8-1.7,8-5.8,10.6v0.2c3.8,1.7,7.3,5.9,7.3,12.1
			c0,9.3-6.6,15-16.3,15c-10.5,0-15.7-6.6-15.7-13.7c0-5.8,2.8-9.9,7-12.2v-0.2c-3.8-2.5-5.7-6.5-5.7-10.6
			C86.4,209.3,93.1,203.9,101.6,203.9L101.6,203.9z M101.3,245.7c2.8,0,4.4-2.5,4.4-5.5c0-3.8-2.5-6.3-5.2-7.2
			c-2.3,1-3.8,3.3-3.8,6.5C96.7,242.6,98.4,245.7,101.3,245.7L101.3,245.7z M101.1,212.5c-2.7,0-3.9,2.4-3.9,4.9
			c0,2.7,2,4.8,4.8,5.9c1.7-0.5,3.1-2.9,3.1-5.4C105.1,215.2,104,212.5,101.1,212.5L101.1,212.5z"/>
		<path class="st6" d="M164.9,214.1c-1.1-0.1-2.3,0-3.8,0.2c-7.8,0.7-11.1,4.8-12.3,9.8h0.2c2-2.1,4.6-3.2,8-3.2
			c6.7,0,12.4,5.7,12.4,15.8c0,9.5-6.1,17.8-15.5,17.8c-11.3,0-16.8-9.7-16.8-21.3c0-9.7,3.1-17.3,7.8-22.1
			c4.1-4.2,9.5-6.6,15.7-6.9c2-0.2,3.3-0.2,4.2-0.1V214.1z M153.8,245c2.9,0,4.2-3.7,4.2-8c0-3.2-1.3-7.1-4.7-7.1
			c-2,0-3.6,1.4-4.2,3.2c-0.3,0.6-0.4,1.7-0.4,3.5C148.7,240.9,150.3,245,153.8,245L153.8,245z"/>
		<path class="st6" d="M205.2,254.5c-11.8,0-15.8-12.8-15.8-25.1c0-13.2,4.5-25.4,16-25.4c12.2,0,15.7,13.4,15.7,25.1
			C221,244.4,215.5,254.5,205.2,254.5L205.2,254.5z M205.3,244.3c2.8,0,4.3-4.5,4.3-15.2c0-10.3-1.5-15.1-4.3-15.1
			s-4.6,4.4-4.6,15.1C200.6,240,202.3,244.3,205.3,244.3L205.3,244.3z"/>
	</g>
</g>
</svg>
