<?xml version="1.0" encoding="utf-8"?>
<!-- Generator: Adobe Illustrator 17.0.0, SVG Export Plug-In . SVG Version: 6.00 Build 0)  -->
<!DOCTYPE svg PUBLIC "-//W3C//DTD SVG 1.1//EN" "http://www.w3.org/Graphics/SVG/1.1/DTD/svg11.dtd" [
	<!ENTITY ns_flows "http://ns.adobe.com/Flows/1.0/">
	<!ENTITY ns_extend "http://ns.adobe.com/Extensibility/1.0/">
	<!ENTITY ns_ai "http://ns.adobe.com/AdobeIllustrator/10.0/">
	<!ENTITY ns_graphs "http://ns.adobe.com/Graphs/1.0/">
]>
<svg version="1.1" id="Layer_2" xmlns:x="&ns_extend;" xmlns:i="&ns_ai;" xmlns:graph="&ns_graphs;"
	 xmlns="http://www.w3.org/2000/svg" xmlns:xlink="http://www.w3.org/1999/xlink" xmlns:a="http://ns.adobe.com/AdobeSVGViewerExtensions/3.0/"
	 x="0px" y="0px" width="256px" height="256px" viewBox="0 0 256 256" style="enable-background:new 0 0 256 256;"
	 xml:space="preserve">
<style type="text/css">
	.st0{fill:#FFFFFF;}
	.st1{fill:#54B948;}
	.st2{fill:#1D8C8E;}
	.st3{fill:#14DEAC;}
	.st4{fill:#1466AC;}
	.st5{fill:#757575;}
	.st6{fill:#B69442;}
	.st7{fill:#1A234D;}
	.st8{fill:#AA0629;}
	.st9{fill:#FF4A49;}
	.st10{fill:#3C6643;}
	.st11{fill:none;stroke:#FF4A49;stroke-miterlimit:10;}
	.st12{fill:#E70084;}
	.st13{fill:#508A72;}
	.st14{fill:#01A663;}
	.st15{fill:#015297;}
	.st16{fill:#B0B0B0;}
	.st17{fill:#E1062F;}
	.st18{fill:#D80000;stroke:#FFFFFF;stroke-width:2;stroke-miterlimit:10;}
	.st19{fill:#D80000;}
	.st20{fill:#8ABE23;}
	.st21{fill:#1D1D1B;}
	.st22{fill:#FEFEFE;}
	.st23{fill:#FF0000;}
	.st24{fill:#FF1D1B;}
	.st25{fill:#6DB2DE;}
	.st26{fill:#FF1D25;}
	.st27{fill:#FFDA00;}
	.st28{fill:#024D9E;}
	.st29{fill:#6B97C6;}
	.st30{fill:#000078;}
	.st31{fill:none;stroke:#FFFFFF;stroke-width:6;stroke-linecap:round;stroke-miterlimit:10;}
	.st32{fill:#FFEE34;}
	.st33{fill:none;stroke:#000000;stroke-width:4;stroke-miterlimit:10;}
	.st34{fill:#D11E24;}
	.st35{fill:#D71F26;}
	.st36{fill:#020000;}
	.st37{fill:none;stroke:#000000;stroke-width:2;stroke-miterlimit:10;}
	.st38{clip-path:url(#SVGID_2_);}
	.st39{fill:#00317D;}
	.st40{fill:#00737D;}
	.st41{fill:#ED1C24;}
	.st42{fill:#2678C7;}
	.st43{fill:#1853A6;}
	.st44{fill:#CB0000;}
	.st45{fill:#E61C21;}
	.st46{clip-path:url(#SVGID_4_);}
	.st47{fill:#6BDEF1;}
	.st48{clip-path:url(#SVGID_6_);}
	.st49{fill:#0165B2;}
	.st50{fill:#DE1134;}
	.st51{fill:#00A668;}
	.st52{fill:#FFE60B;}
	.st53{fill:#843D00;stroke:#000000;stroke-miterlimit:10;}
	.st54{fill:#EC1F27;}
	.st55{fill:#162984;}
	.st56{fill:#1853A6;stroke:#1853A6;stroke-miterlimit:10;}
	.st57{fill:none;}
	.st58{fill:none;stroke:#1853A6;stroke-width:0.9;stroke-miterlimit:10;}
	.st59{fill:#1853A6;stroke:#1853A6;stroke-width:0.9;stroke-miterlimit:10;}
	.st60{fill:#B5985A;}
	.st61{fill:#FFE60B;stroke:#000000;stroke-width:6;stroke-miterlimit:10;}
	.st62{fill:#008DCD;}
	.st63{fill:#009939;}
	.st64{fill:#2E3092;}
	.st65{fill:#EE3224;}
	.st66{fill:#005BAB;}
	.st67{fill:#D30027;}
	.st68{fill:#FFFFFF;stroke:#D30027;stroke-width:10;stroke-miterlimit:10;}
	.st69{fill:#E81C2F;}
	.st70{fill:#DC032B;}
	.st71{fill:#F25448;}
	.st72{fill:#FFFFFF;stroke:#F25448;stroke-width:6;stroke-miterlimit:10;}
	.st73{fill:#05A08D;}
	.st74{fill:#1875CE;}
	.st75{fill:#D72427;}
	.st76{fill:#004993;}
	.st77{fill:#007BB0;}
	.st78{fill:#FFEB00;}
	.st79{fill:#664A9E;}
	.st80{fill:#F4C701;}
	.st81{fill:#EBBE12;}
	.st82{fill:#44B3DB;}
	.st83{fill:#F6FF82;}
	.st84{fill:#FFC918;}
	.st85{fill:#0361A4;}
	.st86{fill:#009FE3;}
	.st87{fill:#E30217;}
	.st88{fill:#FDEA00;}
	.st89{fill:#E91B00;}
	.st90{fill:#2B2763;}
	.st91{fill:#EE1A22;}
	.st92{fill:#F1AA25;}
	.st93{fill:#93000C;}
	.st94{fill:none;stroke:#1D1D1B;stroke-width:4;}
	.st95{fill:#3E4E70;}
	.st96{fill:#096CB6;}
	.st97{fill:#0559A8;}
	.st98{fill:#F9ED1A;}
	.st99{fill:#949494;}
	.st100{fill:#FFD033;}
	.st101{fill:#243D89;}
	.st102{fill:#F8C936;}
	.st103{fill:#D44128;}
	.st104{fill:#ED1B23;}
	.st105{fill:#0C529C;}
	.st106{fill:#E31E24;}
	.st107{fill:#0263B0;}
	.st108{fill:#007AC2;}
	.st109{fill:#EF3D1F;}
	.st110{fill:#EE1C24;}
	.st111{fill:#FDEA00;stroke:#000000;stroke-width:0.6509;}
	.st112{fill:#FDEA00;stroke:#000000;stroke-width:0.6979;}
	.st113{fill:#46A0BE;}
	.st114{fill:#005FA5;}
	.st115{fill:#00904C;}
	.st116{fill:#E21F26;}
	.st117{fill:#FD0001;}
	.st118{fill:#0066B3;}
	.st119{fill:#E20019;}
	.st120{fill:#0171BC;}
	.st121{fill:#01305D;}
	.st122{fill:#1B7EE9;}
	.st123{fill:#BA0D0B;}
	.st124{fill:none;stroke:#000000;stroke-width:3;stroke-miterlimit:10;}
	.st125{fill:#FFFFFF;stroke:#000000;stroke-width:0.8836;stroke-miterlimit:10;}
	.st126{fill:#FFFFFF;stroke:#000000;stroke-width:0.9759;stroke-miterlimit:10;}
	.st127{fill:#0053A1;}
	.st128{fill:#FFE100;}
	.st129{fill:#FFE500;}
	.st130{fill:none;stroke:#FFE500;stroke-width:2;stroke-miterlimit:10;}
	.st131{fill:#01AFF3;}
	.st132{fill:#ED1B28;}
	.st133{fill:#E2000A;}
</style>
<g>
	<g>
		<path class="st0" d="M128,249.5C61,249.5,6.5,195,6.5,128S61,6.5,128,6.5S249.5,61,249.5,128S195,249.5,128,249.5z"/>
		<path class="st42" d="M128,228c-55.1,0-100-44.8-100-100S72.9,28,128,28s100,44.8,100,100S183.1,228,128,228z"/>
		<path class="st42" d="M128,11c31.3,0,60.6,12.2,82.7,34.3C232.8,67.4,245,96.7,245,128s-12.2,60.6-34.3,82.7
			C188.6,232.8,159.3,245,128,245s-60.6-12.2-82.7-34.3C23.2,188.6,11,159.3,11,128s12.2-60.6,34.3-82.7C67.4,23.2,96.7,11,128,11
			 M128,2C58.4,2,2,58.4,2,128s56.4,126,126,126s126-56.4,126-126S197.6,2,128,2L128,2z"/>
	</g>
	<g>
		<path class="st0" d="M142.6,116.3c0.3-1.1,0.8-1.9,0.9-2.8c1.9-13.4-3.4-27.4,3.2-40.5c0.2-0.4-0.2-1.1-0.4-1.6
			c-2.9-5.4-19.7-10.4-24.8-7.1c-5.9,3.8-16.1,5.3-9.4,16.5c0.8,1.4,0.1,3.7,0.1,5.6c0,10.7,0.1,21.3,0,32c0,3.7,0.4,7.2,4.4,8.4
			c16.8,5,18.8,17.5,17,32.3c-0.5,4.3-0.1,8.8-0.1,13.2c0.1,4.2,0.2,9.2-5.1,9.5c-6.1,0.3-6.1-4.9-6-9.5c0.1-8.2-0.2-16.3,0.1-24.5
			c0.2-5.8-3.6-8.6-7.8-8.6c-4.4,0-2.2,5-2.3,7.7c-0.3,8.8,2.1,18.3-0.6,26.2c-4.6,13.2,4.9,14.8,12,19.1c0.3,0.2,0.5,0.4,0.8,0.5
			c3.2,1.3,21.3-6.4,22.2-9.5c0.1-0.5,0-1.2-0.2-1.7c-6.1-11.2-2.8-23.3-2.4-34.9c0.4-11.9-2.6-19.7-14-24c-3.9-1.5-8-3.3-7.8-9.2
			c0.4-11,0.2-22,0.1-33c0-4,1.4-7.2,5.6-7.2c4.1,0,5.6,3.2,5.6,7.2c-0.1,8.2,0.4,16.3-0.1,24.5
			C132.9,111.9,135.9,115.3,142.6,116.3z"/>
		<path class="st0" d="M80.3,123.3c0-8.9-0.1-17,0-25.1c0.1-3.8-1.7-6.3-5.4-6.1c-3.4,0.2-8.8,2.7-7.8,5.1
			c6.1,15.2,1.1,30.9,2.7,46.2c0.4,3.7,0,7.5-0.5,11.2c-0.3,1.9-4.7,3.3-0.7,5.7c2.6,1.6,5,4,8.6,2.5c2.7-1.2,3.2-3.4,3.2-6.1
			c-0.1-8.1,0-16.2,0-24.8c4.9,1.3,9.8,2.3,10.1,6.8c0.7,9.3,0.1,18.7-0.1,28.1c-0.1,1.9-4.9,3.5-0.5,5.7c2.6,1.3,4.6,4.4,8.4,2.7
			c3.4-1.5,3.1-4.3,3.1-7.1c0-10.7-0.6-21.4,0.3-32c0.4-4.2-4.3-6-2.7-10c5.3-13.8,1.4-28.2,2.2-42.4c0.2-3.2-3.1-5.2-6-3.8
			c-2.6,1.2-8.5,2.2-6.5,5.9c4.4,8.2,1.2,16.6,2.4,24.7C92,117.7,88.5,121.5,80.3,123.3z"/>
		<path class="st0" d="M185.7,120.6c0.7-8.7,3.6-19.3,1.1-24.7c-3.2-6.8-14.6-9.7-22.4-14.3c-0.3-0.2-0.5-0.3-0.8-0.5
			c-6-3.4-9-1.4-9,5.2c-0.1,27.6-0.1,55.2,0,82.8c0,6,2.9,8.2,8.4,5.2c7.7-4.2,15.3-8.7,22.8-13.2c1.5-0.9,5.1-1.6,2.3-4.6
			c-4.1-4.4-2.2-9.6-2-14.3c0.4-7.5-3-10.8-10.7-12.2c0,7.5,0,14.6,0,21.7c0,4.9-3.9,6.1-7.3,7.4c-2.7,1.1-3.1-1.3-3.1-3.1
			c0-20,0-40,0-60.2c8.4,0.8,11.5,4.9,10.4,12.1C174.4,114.9,177.4,119.1,185.7,120.6z"/>
	</g>
</g>
</svg>
