<?xml version="1.0" encoding="utf-8"?>
<!-- Generator: Adobe Illustrator 17.0.0, SVG Export Plug-In . SVG Version: 6.00 Build 0)  -->
<!DOCTYPE svg PUBLIC "-//W3C//DTD SVG 1.1//EN" "http://www.w3.org/Graphics/SVG/1.1/DTD/svg11.dtd" [
	<!ENTITY ns_flows "http://ns.adobe.com/Flows/1.0/">
	<!ENTITY ns_extend "http://ns.adobe.com/Extensibility/1.0/">
	<!ENTITY ns_ai "http://ns.adobe.com/AdobeIllustrator/10.0/">
	<!ENTITY ns_graphs "http://ns.adobe.com/Graphs/1.0/">
]>
<svg version="1.1" id="Layer_2" xmlns:x="&ns_extend;" xmlns:i="&ns_ai;" xmlns:graph="&ns_graphs;"
	 xmlns="http://www.w3.org/2000/svg" xmlns:xlink="http://www.w3.org/1999/xlink" xmlns:a="http://ns.adobe.com/AdobeSVGViewerExtensions/3.0/"
	 x="0px" y="0px" width="256px" height="256px" viewBox="0 0 256 256" style="enable-background:new 0 0 256 256;"
	 xml:space="preserve">
<style type="text/css">
	.st0{fill:#FFFFFF;}
	.st1{fill:#54B948;}
	.st2{fill:#1D8C8E;}
	.st3{fill:#14DEAC;}
	.st4{fill:#1466AC;}
	.st5{fill:#757575;}
	.st6{fill:#B69442;}
	.st7{fill:#1A234D;}
	.st8{fill:#AA0629;}
	.st9{fill:#FF4A49;}
	.st10{fill:#3C6643;}
	.st11{fill:none;stroke:#FF4A49;stroke-miterlimit:10;}
	.st12{fill:#E70084;}
	.st13{fill:#508A72;}
	.st14{fill:#01A663;}
	.st15{fill:#015297;}
	.st16{fill:#B0B0B0;}
	.st17{fill:#E1062F;}
	.st18{fill:#D80000;stroke:#FFFFFF;stroke-width:2;stroke-miterlimit:10;}
	.st19{fill:#D80000;}
	.st20{fill:#8ABE23;}
	.st21{fill:#1D1D1B;}
	.st22{fill:#FEFEFE;}
	.st23{fill:#FF0000;}
	.st24{fill:#FF1D1B;}
	.st25{fill:#6DB2DE;}
	.st26{fill:#FF1D25;}
	.st27{fill:#FFDA00;}
	.st28{fill:#024D9E;}
	.st29{fill:#6B97C6;}
	.st30{fill:#000078;}
	.st31{fill:none;stroke:#FFFFFF;stroke-width:6;stroke-linecap:round;stroke-miterlimit:10;}
	.st32{fill:#FFEE34;}
	.st33{fill:none;stroke:#000000;stroke-width:4;stroke-miterlimit:10;}
	.st34{fill:#D11E24;}
	.st35{fill:#D71F26;}
	.st36{fill:#020000;}
	.st37{fill:none;stroke:#000000;stroke-width:2;stroke-miterlimit:10;}
	.st38{clip-path:url(#SVGID_2_);}
	.st39{fill:#00317D;}
	.st40{fill:#00737D;}
	.st41{fill:#ED1C24;}
	.st42{fill:#2678C7;}
	.st43{fill:#1853A6;}
	.st44{fill:#CB0000;}
	.st45{fill:#E61C21;}
	.st46{clip-path:url(#SVGID_4_);}
	.st47{fill:#6BDEF1;}
	.st48{clip-path:url(#SVGID_6_);}
	.st49{fill:#0165B2;}
	.st50{fill:#DE1134;}
	.st51{fill:#00A668;}
	.st52{fill:#FFE60B;}
	.st53{fill:#843D00;stroke:#000000;stroke-miterlimit:10;}
	.st54{fill:#EC1F27;}
	.st55{fill:#162984;}
	.st56{fill:#1853A6;stroke:#1853A6;stroke-miterlimit:10;}
	.st57{fill:none;}
	.st58{fill:none;stroke:#1853A6;stroke-width:0.9;stroke-miterlimit:10;}
	.st59{fill:#1853A6;stroke:#1853A6;stroke-width:0.9;stroke-miterlimit:10;}
	.st60{fill:#B5985A;}
	.st61{fill:#FFE60B;stroke:#000000;stroke-width:6;stroke-miterlimit:10;}
	.st62{fill:#008DCD;}
	.st63{fill:#009939;}
	.st64{fill:#2E3092;}
	.st65{fill:#EE3224;}
	.st66{fill:#005BAB;}
	.st67{fill:#D30027;}
	.st68{fill:#FFFFFF;stroke:#D30027;stroke-width:10;stroke-miterlimit:10;}
	.st69{fill:#E81C2F;}
	.st70{fill:#DC032B;}
	.st71{fill:#F25448;}
	.st72{fill:#FFFFFF;stroke:#F25448;stroke-width:6;stroke-miterlimit:10;}
	.st73{fill:#05A08D;}
	.st74{fill:#1875CE;}
	.st75{fill:#D72427;}
	.st76{fill:#004993;}
	.st77{fill:#007BB0;}
	.st78{fill:#FFEB00;}
	.st79{fill:#664A9E;}
	.st80{fill:#F4C701;}
	.st81{fill:#EBBE12;}
	.st82{fill:#44B3DB;}
	.st83{fill:#F6FF82;}
	.st84{fill:#FFC918;}
	.st85{fill:#0361A4;}
	.st86{fill:#009FE3;}
	.st87{fill:#E30217;}
	.st88{fill:#FDEA00;}
	.st89{fill:#E91B00;}
	.st90{fill:#2B2763;}
	.st91{fill:#EE1A22;}
	.st92{fill:#F1AA25;}
	.st93{fill:#93000C;}
	.st94{fill:none;stroke:#1D1D1B;stroke-width:4;}
	.st95{fill:#3E4E70;}
	.st96{fill:#096CB6;}
	.st97{fill:#0559A8;}
	.st98{fill:#F9ED1A;}
	.st99{fill:#949494;}
	.st100{fill:#FFD033;}
	.st101{fill:#243D89;}
	.st102{fill:#F8C936;}
	.st103{fill:#D44128;}
	.st104{fill:#ED1B23;}
	.st105{fill:#0C529C;}
	.st106{fill:#E31E24;}
	.st107{fill:#0263B0;}
	.st108{fill:#007AC2;}
	.st109{fill:#EF3D1F;}
	.st110{fill:#EE1C24;}
	.st111{fill:#FDEA00;stroke:#000000;stroke-width:0.6509;}
	.st112{fill:#FDEA00;stroke:#000000;stroke-width:0.6979;}
	.st113{fill:#46A0BE;}
	.st114{fill:#005FA5;}
	.st115{fill:#00904C;}
	.st116{fill:#E21F26;}
	.st117{fill:#FD0001;}
	.st118{fill:#0066B3;}
	.st119{fill:#E20019;}
	.st120{fill:#0171BC;}
	.st121{fill:#01305D;}
	.st122{fill:#1B7EE9;}
	.st123{fill:#BA0D0B;}
	.st124{fill:none;stroke:#000000;stroke-width:3;stroke-miterlimit:10;}
	.st125{fill:#FFFFFF;stroke:#000000;stroke-width:0.8836;stroke-miterlimit:10;}
	.st126{fill:#FFFFFF;stroke:#000000;stroke-width:0.9759;stroke-miterlimit:10;}
	.st127{fill:#0053A1;}
	.st128{fill:#FFE100;}
	.st129{fill:#FFE500;}
	.st130{fill:none;stroke:#FFE500;stroke-width:2;stroke-miterlimit:10;}
	.st131{fill:#01AFF3;}
	.st132{fill:#ED1B28;}
	.st133{fill:#E2000A;}
</style>
<g>
	<g>
		<g>
			<polygon class="st0" points="6,167.4 6,6 250,6 250,167.4 127.8,248.6 			"/>
			<path d="M245,11v154.1l-117.2,78.2L11,165.1V11H245 M254,2H2v167.8L127.8,254L254,169.8V2L254,2z"/>
		</g>
	</g>
	<g>
		<path d="M24.3,47.8l-1.4,9.1h-7.6l7.8-41.1h9.7l7.7,41.1h-7.8L31,47.8H24.3z M30.1,40L29,32.5c-0.4-2.3-0.9-6-1.3-8.5h-0.1
			c-0.4,2.4-0.9,6.2-1.2,8.5L25.2,40H30.1z"/>
		<path d="M44,15.8h7.5v32.3h10v8.8H44V15.8z"/>
		<path d="M81.8,40.1h-9.2v8.1h10.3v8.7H65.1V15.8h17.2v8.7h-9.8v7h9.2V40.1z"/>
		<path d="M109.6,42.7c-0.1-4.2-0.2-9.6-0.2-15.4h-0.1c-0.7,5.1-1.9,11-2.6,14.9l-2.6,13.8h-5.7l-2.3-13.8
			c-0.6-3.9-1.5-9.7-2.1-14.9h-0.1c-0.2,5.4-0.3,11.2-0.5,15.4L93,56.9h-6.7l1.9-41.1h9.4l1.9,11.6c0.8,4.8,1.6,10,2.2,14.9h0.1
			c0.7-4.9,1.6-10.4,2.4-15l2.1-11.6h9.3l1.6,41.1H110L109.6,42.7z"/>
		<path d="M128.5,47.8l-1.4,9.1h-7.6l7.8-41.1h9.7l7.7,41.1h-7.8l-1.6-9.1H128.5z M134.3,40l-1.2-7.5c-0.4-2.3-0.9-6-1.3-8.5h-0.1
			c-0.4,2.4-0.9,6.2-1.2,8.5l-1.2,7.5H134.3z"/>
		<path d="M148.2,56.9V15.8h8.3l4.5,13.3c1.3,3.6,2.9,9,4,13.4h0.1c-0.3-4.8-0.6-11.2-0.6-17.9v-8.8h6.7v41.1h-7.6L159,43.2
			c-1.4-4-3.1-9.5-4.2-13.9h-0.1c0.2,4.9,0.3,11.3,0.3,18.4v9.2H148.2z"/>
		<path d="M176.5,56.9V15.8h8.3l4.5,13.3c1.3,3.6,2.9,9,4,13.4h0.1c-0.3-4.8-0.6-11.2-0.6-17.9v-8.8h6.7v41.1h-7.6l-4.6-13.7
			c-1.4-4-3.1-9.5-4.2-13.9h-0.1c0.2,4.9,0.3,11.3,0.3,18.4v9.2H176.5z"/>
		<path d="M212.2,15.8v41.1h-7.5V15.8H212.2z"/>
		<path d="M224.3,47.8l-1.4,9.1h-7.6l7.8-41.1h9.7l7.7,41.1h-7.8l-1.6-9.1H224.3z M230.1,40l-1.2-7.5c-0.4-2.3-0.9-6-1.3-8.5h-0.1
			c-0.4,2.4-0.9,6.2-1.2,8.5l-1.2,7.5H230.1z"/>
	</g>
	<polygon points="247,63 10,63 10,163.5 128.5,128 247,163.5 	"/>
	<g>
		<path class="st78" d="M99.1,115l-11.2,12.3H47.4l51-55.6H162l50.5,55.6h-43.2L157.9,115H99.1z M148.8,104.4l-20-21.6h-0.6
			c-2.8,3.3-19.7,21.6-19.7,21.6H148.8z"/>
	</g>
	<polygon class="st78" points="245,162.5 245,165.5 126.6,243.4 9,164.9 9,163.5 128,128 	"/>
	<path d="M157.2,147.7c0.2,2.9,0.5,4.2,2.5,2.4c2.6-2.4,4.5-5.2,6.2-8.3c1.6,2.8,1.7,6.4,0.4,10.2c-1.1,3.3-3.6,5.7-5.8,8.4
		c4.8-0.5,7.4-3.9,10.1-7.2c2.2,4.9-0.5,10-8.7,16.5c2.7,1,2.7,1,12.6-5.8c0.9,6.1-2.9,10.5-14.9,17c5.8,1.5,9.9-1.5,14.9-4
		c-1.9,8.7-8.2,11.1-15.9,12.7c3.7,2.2,6.5,0.6,9.3,0.2c-2.6,7.7-13.8,12.6-19.7,8.9c-0.4,0.7,0.3,1,0.4,1.6c0.6,2,4.3,2.3,3.7,3.7
		c-0.9,2-0.9,3.4-0.2,5.2c0.4,1-0.1,1.3-1,1.2c-1.7-0.1-3.2,0.6-3,2.2c0.3,2.3,2,0.6,3.1,0.6c1,0,2.1-0.3,2.5,0.8
		c0.4,1,1.2,2.7,0.2,3.3c-1.1,0.7-0.5,2.1-1.5,2.5c-3.2-2.9-3.2-2.9-4.6,0.1c-1.7-0.9-1.6-2.5-1.8-4c-0.2-2.1-0.4-4.2-3.4-3.8
		c-1.3,0.2-1.7-0.5-1.1-1.8c0.8-1.8,0.9-4.6-0.6-4.8c-2.8-0.3-4-2.5-5.8-4.2c0.5,7.2,2.4,13.3,7.2,18.6c-3.9,0.7-5.7-1.5-7.7-3.6
		c-1.4,1.3-1,3.2-1.9,4.5c-0.6,0.9-0.8,2.3-2.1,2.2c-1.2-0.1-1.6-1.3-2-2.3c-0.6-1.4-0.9-2.9-1.4-4.6c-2.5,1.7-4.2,4.7-7.8,3.9
		c0.1-1.9,1.6-2.9,2.4-4.4c1.7-3.3,3.6-6.6,3.1-10.5c-0.3-1.8,1.4-2.3,2-3.7c-2.6,0.1-3.6,1.5-3.7,3.9c-1.4-0.3-2.1-2.5-3.8-0.9
		c-1.3,1.3-2.3,2.7-1.6,4.4c0.9,2.2,0.5,3-1.9,3.1c-1.8,0.1-1.7,1.7-2,2.9c-0.4,1.9-0.1,4.1-1.8,6c-1-2.6-1.9-2.8-3.9-0.7
		c-2.4,2.5-0.8-1.5-2.2-1.8c-1.5-0.3-0.3-2.2-0.1-3.4c0.2-1,1.3-0.8,2.1-0.8c1.4-0.1,3.7,2.2,3.9-1.4c0.1-2.8-1.9-2.8-3.9-2.8
		c0.6-4.3,1.1-8.5,5.1-11.6c-2.7,2.7-5.5,2.3-8.4,1.3c-5.2-1.8-9.7-4.4-12.5-10c3.2-0.1,6,2,9.6-0.3c-7.5-1.7-13.9-4-15.8-12.7
		c2.7,1.3,4.9,2.5,7.1,3.5c2.3,1,4.7,1.4,8.2,0.5c-8.3-3.5-14.8-7.6-15.8-17.7c4.2,3.7,7.8,7.1,13.2,7c-5.6-4.3-10.5-8.9-9.4-17.4
		c3.4,3.5,5.9,7.2,10.9,7.6c-5.9-5-8-11.1-6.3-19c2.4,2.8,3.7,5.9,6.1,8c1.5,1.3,2.9,3.3,3.6-0.8c2,3.1,3.9,5.6,6.5,7.6
		c2.6,2,2.6,4.9,2.1,7.9c-1.4,8.4,0.6,12.2,8.4,15.9c0.7,0.3,1.2,1.9,2.2,0.5c0.8-1,2.1-2,1.4-3.4c-0.7-1.4,0-2.2,0.4-3.3
		c0.3-0.8,2.8-2.3-0.6-2.4c-0.7,0-0.1-1.4,0.2-2.2c1-2.4,1-2.4-1.1-3.8c0.8-1.2,2.7-0.2,3.2-1.8c0.1-0.2-0.2-0.7-0.4-0.8
		c-1.5-0.4-3.1-0.7-4.3,0.7c-0.3,0.4-0.7,0.6-1.3,0.4c-1.4-2.9,1.5-4,2.8-5.5c2.7-3.2,11.9-2.9,12.9,0.9c0.6,2.3,4.1,4.8,1.4,7.9
		c-0.5,0.6,0.3,1,0.4,1.6c0.3,1,2.5,2.8-1,2.5c-0.6,0-0.5,0.7-0.2,1.1c1.3,1.6,2,3.1,1.4,5.5c-0.5,2.1,1.7,2.8,3.9,1.6
		c6.1-3.4,8-8.5,6.7-15.1c-0.8-3.8-0.1-7,3.4-9.4C153.9,153.5,155.3,151.1,157.2,147.7z"/>
</g>
</svg>
