<?xml version="1.0" encoding="utf-8"?>
<!-- Generator: Adobe Illustrator 17.0.0, SVG Export Plug-In . SVG Version: 6.00 Build 0)  -->
<!DOCTYPE svg PUBLIC "-//W3C//DTD SVG 1.1//EN" "http://www.w3.org/Graphics/SVG/1.1/DTD/svg11.dtd" [
	<!ENTITY ns_flows "http://ns.adobe.com/Flows/1.0/">
	<!ENTITY ns_extend "http://ns.adobe.com/Extensibility/1.0/">
	<!ENTITY ns_ai "http://ns.adobe.com/AdobeIllustrator/10.0/">
	<!ENTITY ns_graphs "http://ns.adobe.com/Graphs/1.0/">
]>
<svg version="1.1" id="Layer_2" xmlns:x="&ns_extend;" xmlns:i="&ns_ai;" xmlns:graph="&ns_graphs;"
	 xmlns="http://www.w3.org/2000/svg" xmlns:xlink="http://www.w3.org/1999/xlink" xmlns:a="http://ns.adobe.com/AdobeSVGViewerExtensions/3.0/"
	 x="0px" y="0px" width="256px" height="256px" viewBox="0 0 256 256" style="enable-background:new 0 0 256 256;"
	 xml:space="preserve">
<style type="text/css">
	.st0{fill:#FFFFFF;}
	.st1{fill:#54B948;}
	.st2{fill:#1D8C8E;}
	.st3{fill:#14DEAC;}
	.st4{fill:#1466AC;}
	.st5{fill:#757575;}
	.st6{fill:#B69442;}
	.st7{fill:#1A234D;}
	.st8{fill:#AA0629;}
	.st9{fill:#FF4A49;}
	.st10{fill:#3C6643;}
	.st11{fill:none;stroke:#FF4A49;stroke-miterlimit:10;}
	.st12{fill:#E70084;}
	.st13{fill:#508A72;}
	.st14{fill:#01A663;}
	.st15{fill:#015297;}
	.st16{fill:#B0B0B0;}
	.st17{fill:#E1062F;}
	.st18{fill:#D80000;stroke:#FFFFFF;stroke-width:2;stroke-miterlimit:10;}
	.st19{fill:#D80000;}
	.st20{fill:#8ABE23;}
	.st21{fill:#1D1D1B;}
	.st22{fill:#FEFEFE;}
	.st23{fill:#FF0000;}
	.st24{fill:#FF1D1B;}
	.st25{fill:#6DB2DE;}
	.st26{fill:#FF1D25;}
	.st27{fill:#FFDA00;}
	.st28{fill:#024D9E;}
	.st29{fill:#6B97C6;}
	.st30{fill:#000078;}
	.st31{fill:none;stroke:#FFFFFF;stroke-width:6;stroke-linecap:round;stroke-miterlimit:10;}
	.st32{fill:#FFEE34;}
	.st33{fill:none;stroke:#000000;stroke-width:4;stroke-miterlimit:10;}
	.st34{fill:#D11E24;}
	.st35{fill:#D71F26;}
	.st36{fill:#020000;}
	.st37{fill:none;stroke:#000000;stroke-width:2;stroke-miterlimit:10;}
	.st38{clip-path:url(#SVGID_2_);}
	.st39{fill:#00317D;}
	.st40{fill:#00737D;}
	.st41{fill:#ED1C24;}
	.st42{fill:#2678C7;}
	.st43{fill:#1853A6;}
	.st44{fill:#CB0000;}
	.st45{fill:#E61C21;}
	.st46{clip-path:url(#SVGID_4_);}
	.st47{fill:#6BDEF1;}
	.st48{clip-path:url(#SVGID_6_);}
	.st49{fill:#0165B2;}
	.st50{fill:#DE1134;}
	.st51{fill:#00A668;}
	.st52{fill:#FFE60B;}
	.st53{fill:#843D00;stroke:#000000;stroke-miterlimit:10;}
	.st54{fill:#EC1F27;}
	.st55{fill:#162984;}
	.st56{fill:#1853A6;stroke:#1853A6;stroke-miterlimit:10;}
	.st57{fill:none;}
	.st58{fill:none;stroke:#1853A6;stroke-width:0.9;stroke-miterlimit:10;}
	.st59{fill:#1853A6;stroke:#1853A6;stroke-width:0.9;stroke-miterlimit:10;}
	.st60{fill:#B5985A;}
	.st61{fill:#FFE60B;stroke:#000000;stroke-width:6;stroke-miterlimit:10;}
	.st62{fill:#008DCD;}
	.st63{fill:#009939;}
	.st64{fill:#2E3092;}
	.st65{fill:#EE3224;}
	.st66{fill:#005BAB;}
	.st67{fill:#D30027;}
	.st68{fill:#FFFFFF;stroke:#D30027;stroke-width:10;stroke-miterlimit:10;}
	.st69{fill:#E81C2F;}
	.st70{fill:#DC032B;}
	.st71{fill:#F25448;}
	.st72{fill:#FFFFFF;stroke:#F25448;stroke-width:6;stroke-miterlimit:10;}
	.st73{fill:#05A08D;}
	.st74{fill:#1875CE;}
	.st75{fill:#D72427;}
	.st76{fill:#004993;}
	.st77{fill:#007BB0;}
	.st78{fill:#FFEB00;}
	.st79{fill:#664A9E;}
	.st80{fill:#F4C701;}
	.st81{fill:#EBBE12;}
	.st82{fill:#44B3DB;}
	.st83{fill:#F6FF82;}
	.st84{fill:#FFC918;}
	.st85{fill:#0361A4;}
	.st86{fill:#009FE3;}
	.st87{fill:#E30217;}
	.st88{fill:#FDEA00;}
	.st89{fill:#E91B00;}
	.st90{fill:#2B2763;}
	.st91{fill:#EE1A22;}
	.st92{fill:#F1AA25;}
	.st93{fill:#93000C;}
	.st94{fill:none;stroke:#1D1D1B;stroke-width:4;}
	.st95{fill:#3E4E70;}
	.st96{fill:#096CB6;}
	.st97{fill:#0559A8;}
	.st98{fill:#F9ED1A;}
	.st99{fill:#949494;}
	.st100{fill:#FFD033;}
	.st101{fill:#243D89;}
	.st102{fill:#F8C936;}
	.st103{fill:#D44128;}
	.st104{fill:#ED1B23;}
	.st105{fill:#0C529C;}
	.st106{fill:#E31E24;}
	.st107{fill:#0263B0;}
	.st108{fill:#007AC2;}
	.st109{fill:#EF3D1F;}
	.st110{fill:#EE1C24;}
	.st111{fill:#FDEA00;stroke:#000000;stroke-width:0.6509;}
	.st112{fill:#FDEA00;stroke:#000000;stroke-width:0.6979;}
	.st113{fill:#46A0BE;}
	.st114{fill:#005FA5;}
	.st115{fill:#00904C;}
	.st116{fill:#E21F26;}
	.st117{fill:#FD0001;}
	.st118{fill:#0066B3;}
	.st119{fill:#E20019;}
	.st120{fill:#0171BC;}
	.st121{fill:#01305D;}
	.st122{fill:#1B7EE9;}
	.st123{fill:#BA0D0B;}
	.st124{fill:none;stroke:#000000;stroke-width:3;stroke-miterlimit:10;}
	.st125{fill:#FFFFFF;stroke:#000000;stroke-width:0.8836;stroke-miterlimit:10;}
	.st126{fill:#FFFFFF;stroke:#000000;stroke-width:0.9759;stroke-miterlimit:10;}
	.st127{fill:#0053A1;}
	.st128{fill:#FFE100;}
	.st129{fill:#FFE500;}
	.st130{fill:none;stroke:#FFE500;stroke-width:2;stroke-miterlimit:10;}
	.st131{fill:#01AFF3;}
	.st132{fill:#ED1B28;}
	.st133{fill:#E2000A;}
</style>
<g>
	<circle cx="128" cy="128" r="126"/>
	<g>
		<path class="st0" d="M61.8,199.1c0.9,0.5,2.5,1.7,4,2.9c1.7,1.5,2.7,2.7,3.1,4.1c0.4,1.3,0.2,2.8-0.9,4c-1.1,1.2-2.7,1.7-4.6,1.1
			l0,0c1.1,1.7,1.1,3.8-0.4,5.6c-1.1,1.3-2.5,1.8-3.9,1.7c-1.6,0-3.6-0.9-6.1-3.1c-1.4-1.2-2.4-2.3-2.9-2.9L61.8,199.1z M54.7,212.9
			c0.2,0.3,0.6,0.6,1.1,1c1.3,1.1,2.9,1.6,4.2,0.2c1.2-1.4,0.5-2.9-0.9-4.2l-1-0.9L54.7,212.9z M60.1,206.8l0.9,0.8
			c1.5,1.3,2.9,1.4,3.8,0.3c0.9-1,0.7-2.2-0.6-3.4c-0.6-0.6-1-0.8-1.3-1L60.1,206.8z"/>
		<path class="st0" d="M75.9,210.2l-5.6,8.8c-1.7,2.7-1.6,4.6,0,5.6c1.7,1.1,3.4,0.4,5.2-2.3l5.6-8.8l3.2,2l-5.5,8.6
			c-3,4.7-6.7,5.6-10.4,3.2c-3.6-2.3-4.3-5.8-1.2-10.7l5.5-8.6L75.9,210.2z"/>
		<path class="st0" d="M86.2,216.8c1.2,0.3,2.9,0.8,4.8,1.6c2.3,1,3.7,2.1,4.4,3.5c0.6,1.2,0.6,2.6-0.1,4.1c-0.9,2.1-2.9,3-4.5,2.9
			l0,0.1c0.9,0.9,1,2.3,0.7,4c-0.3,2.1-0.8,4.5-0.8,5.3l-3.6-1.5c0-0.6,0.2-2.1,0.6-4.3c0.5-2.3,0-3.1-1.4-3.8l-1-0.4l-2.8,6.6
			l-3.5-1.5L86.2,216.8z M86.6,225.5l1.4,0.6c1.7,0.8,3.2,0.3,3.8-1.2c0.7-1.5,0-2.7-1.6-3.4c-0.8-0.4-1.4-0.5-1.6-0.6L86.6,225.5z"
			/>
		<path class="st0" d="M108.4,242.2c-1.2,0.1-3.5,0.2-5.7-0.4c-3-0.7-4.9-2.1-6.1-4c-1.1-1.9-1.3-4.4-0.7-7
			c1.5-5.9,6.3-8.2,11.7-6.9c2.1,0.5,3.6,1.4,4.3,2l-1.6,3c-0.8-0.7-1.8-1.3-3.6-1.7c-3.1-0.8-5.9,0.5-6.9,4.3
			c-0.9,3.7,0.7,6.3,3.7,7.1c0.8,0.2,1.5,0.3,1.9,0.2l0.9-3.7l-2.5-0.6l0.8-3.1l6.1,1.5L108.4,242.2z"/>
		<path class="st0" d="M118.2,225.9l-0.5,7l6.3,0.4l0.5-7l3.8,0.3l-1.2,18.2l-3.8-0.3l0.5-7.6l-6.3-0.4L117,244l-3.8-0.3l1.2-18.2
			L118.2,225.9z"/>
		<path class="st0" d="M135.8,239.5l-0.7,4.8l-3.9,0.4l3.2-18.6l5-0.5l7.1,17.5l-4.1,0.4l-1.8-4.5L135.8,239.5z M139.7,236l-1.5-3.7
			c-0.4-1-0.8-2.4-1.2-3.4l-0.1,0c-0.1,1.1-0.2,2.5-0.4,3.6l-0.6,3.9L139.7,236z"/>
		<path class="st0" d="M148.6,223.9l2.8,10.1c0.8,3,2.4,4.3,4.2,3.8c1.9-0.5,2.6-2.3,1.7-5.4l-2.8-10.1l3.7-1l2.7,9.8
			c1.5,5.4-0.3,8.7-4.6,9.9c-4.1,1.1-7.2-0.7-8.7-6.2l-2.7-9.8L148.6,223.9z"/>
		<path class="st0" d="M166.2,232.9c1.1,0.1,2.8,0,4.3-0.7c1.6-0.7,2.1-1.8,1.6-2.9c-0.5-1-1.5-1.3-3.6-1.1c-3,0.2-5.4-0.6-6.5-3
			c-1.3-2.8-0.1-6,3.5-7.6c1.8-0.8,3.2-1,4.3-0.9l0.6,3.4c-0.7-0.1-2.1,0-3.5,0.7c-1.5,0.7-1.9,1.8-1.5,2.6c0.5,1.1,1.5,1.1,3.9,1
			c3.2-0.2,5.1,0.8,6.2,3.1c1.3,2.8,0.4,6-3.8,7.9c-1.8,0.8-3.7,1.1-4.8,0.9L166.2,232.9z"/>
		<path class="st0" d="M185.8,218.5l-5.3,3.3l2.3,3.7l5.9-3.7l1.8,2.9l-9.1,5.7l-9.7-15.4l8.8-5.5l1.8,2.9l-5.6,3.5l2,3.2l5.3-3.3
			L185.8,218.5z"/>
		<path class="st0" d="M194.1,222.1l-11.8-13.8l3.4-2.9l7,2.8c2,0.8,4.2,1.9,6.1,3l0,0c-1.7-1.7-3.4-3.5-5.2-5.6l-3.4-4l2.7-2.3
			l11.8,13.8l-3,2.6l-7.3-3c-2-0.8-4.4-1.9-6.4-3l-0.1,0.1c1.7,1.8,3.4,3.7,5.3,5.9l3.6,4.2L194.1,222.1z"/>
	</g>
	<g>
		<path class="st0" d="M26.3,103.6c0.9-0.8,2-2.3,2.6-3.9c0.6-1.8,0.2-3-0.9-3.4c-1.1-0.4-2,0.2-3.4,2c-2,2.5-4.2,3.8-6.7,3
			c-2.9-1-4.3-4.3-2.9-8.3c0.7-2,1.6-3.2,2.4-4.1l2.8,1.9c-0.6,0.5-1.5,1.6-2.1,3.3c-0.6,1.7-0.1,2.8,0.8,3.1
			c1.1,0.4,1.9-0.4,3.5-2.3c2.2-2.6,4.2-3.5,6.7-2.7c2.9,1,4.6,4,2.9,8.8c-0.7,2-1.9,3.7-2.8,4.5L26.3,103.6z"/>
		<path class="st0" d="M19,83.8c0.4-1.2,1.1-2.9,2.2-5.1c1.2-2.3,2.4-3.6,3.9-4.3c1.3-0.6,3-0.6,4.6,0.2c1.6,0.8,2.7,2,3.1,3.5
			c0.5,1.8,0.1,4-1,6.1c-0.2,0.5-0.5,0.9-0.7,1.2l5.8,3L35,92L19,83.8z M28.2,83.9c0.2-0.3,0.4-0.6,0.7-1.2c1-1.9,0.6-3.7-1-4.5
			c-1.5-0.8-2.9-0.2-3.9,1.6c-0.4,0.7-0.6,1.2-0.6,1.5L28.2,83.9z"/>
		<path class="st0" d="M46.8,72.7c-3.2,4.3-8.4,4.4-12.5,1.3c-4.4-3.3-5.5-8.5-2.3-12.8c3.3-4.5,8.5-4.4,12.5-1.4
			C49.3,63.4,50,68.5,46.8,72.7L46.8,72.7z M44.3,70.6c1.7-2.2,0.5-5.1-2.3-7.2c-2.6-2-5.8-2.4-7.5-0.1c-1.7,2.3-0.4,5.2,2.3,7.2
			C39.5,72.6,42.6,72.8,44.3,70.6L44.3,70.6z"/>
		<path class="st0" d="M40.9,51.1c0.8-1.1,2.1-2.6,3.7-4.1c1.9-1.9,3.6-2.9,5.3-3c1.4-0.1,2.7,0.4,3.9,1.6c1.6,1.7,1.5,3.9,0.8,5.4
			l0.1,0.1c1.3-0.5,2.6-0.1,4.1,0.8c1.8,1.1,3.9,2.4,4.6,2.7l-3,2.9c-0.6-0.2-1.9-0.9-3.8-2.2c-2-1.3-2.9-1.2-4.2,0l-0.9,0.8l5,5.2
			l-2.9,2.8L40.9,51.1z M49.3,53.9l1.2-1.1c1.5-1.4,1.6-3,0.5-4.2c-1.1-1.2-2.6-1-3.9,0.3c-0.7,0.7-1.1,1.1-1.3,1.4L49.3,53.9z"/>
		<path class="st0" d="M58.9,39.6l-4,2.9l-2-2.8l11.4-8.1l2,2.8l-4,2.9l8.6,12l-3.3,2.4L58.9,39.6z"/>
		<path class="st0" d="M80.6,43.2L67.3,29.6l4-2l5.4,5.9c1.5,1.7,3,3.3,4.4,5.1l0.1,0c-0.6-2.2-1-4.3-1.4-6.5l-1.4-8l3.9-2l2.7,19
			L80.6,43.2z"/>
		<path class="st0" d="M99.6,27.4l-6.4,2.1l1.3,4.1l7.1-2.3l1,3.2l-11,3.6l-5.6-17.3l10.7-3.5l1,3.2L91,22.7l1.2,3.6l6.4-2.1
			L99.6,27.4z"/>
		<path class="st0" d="M101.8,16.3c1.3-0.5,3.2-1,5.3-1.3c2.7-0.5,4.6-0.4,6.1,0.4c1.2,0.7,2,1.8,2.3,3.5c0.4,2.3-1,4.1-2.4,4.9
			l0,0.1c1.3,0.3,2.2,1.3,3,2.9c0.9,2,1.9,4.2,2.3,4.8l-4.2,0.7c-0.4-0.5-1.1-1.8-1.9-4c-0.9-2.2-1.8-2.6-3.5-2.4l-1.2,0.2l1.2,7.1
			l-4,0.7L101.8,16.3z M107.1,23.3l1.6-0.3c2-0.4,3-1.6,2.8-3.1c-0.3-1.6-1.5-2.3-3.4-2c-1,0.2-1.5,0.3-1.8,0.5L107.1,23.3z"/>
		<path class="st0" d="M130.6,23.6l-6.7,0.2l0.1,4.3l7.5-0.2l0.1,3.4l-11.6,0.3l-0.5-18.2l11.2-0.3l0.1,3.4l-7.1,0.2l0.1,3.8
			l6.7-0.2L130.6,23.6z"/>
		<path class="st0" d="M139.4,13.6l-1.3,18.2l-4.1-0.3l1.3-18.2L139.4,13.6z"/>
		<path class="st0" d="M141.1,31.9l3.5-17.8l4.7,0.9l2.4,7.3c0.7,2.1,1.3,4.5,1.7,6.7l0.1,0c0.2-2.4,0.6-4.8,1.2-7.5l1-5.2l3.7,0.7
			l-3.5,17.8l-4.2-0.8l-2.4-7.6c-0.7-2.1-1.4-4.7-1.8-6.9l-0.1,0c-0.3,2.4-0.8,4.9-1.4,7.8l-1.1,5.4L141.1,31.9z"/>
		<path class="st0" d="M165.3,37.9l3.8-18.3l4,1.9l-1.9,7.4c-0.6,2.2-1.2,4.4-1.7,6.2l0,0c1.1-1.7,2.4-3.5,3.8-5.3l4.6-6.1l4,1.9
			l-1.9,7.6c-0.5,2.1-1.1,4-1.7,5.9l0,0c1.1-1.7,2.4-3.5,3.7-5.3l4.5-6.1l3.8,1.8l-12,14.5l-4-1.9l1.9-7.7c0.5-1.8,0.9-3.5,1.6-5.4
			l0,0c-1.2,1.7-2.2,3.2-3.4,4.7l-4.9,6.3L165.3,37.9z"/>
		<path class="st0" d="M188.2,44.9l-3.8,3.1l-3.5-2.5l15.1-11.6l4.4,3.1l-6,18.1l-3.6-2.6l1.6-4.6L188.2,44.9z M193.8,45.1l1.3-3.8
			c0.4-1.1,0.9-2.4,1.3-3.4l-0.1,0c-0.8,0.7-1.9,1.7-2.7,2.4l-3.1,2.5L193.8,45.1z"/>
		<path class="st0" d="M205.2,64.9c-0.8-0.3-2.3-1.2-3.9-2.7c-4.5-4.4-4.1-9.5-0.5-13.2c4.3-4.4,9.9-3.8,13.8,0.1
			c1.5,1.5,2.4,2.9,2.7,3.7l-2.9,1.7c-0.3-0.8-0.9-1.9-2-2.9c-2.3-2.3-5.5-2.6-8.3,0.3c-2.5,2.6-2.6,5.7,0,8.3c0.9,0.9,2,1.7,2.9,2
			L205.2,64.9z"/>
		<path class="st0" d="M220.6,55.9l2.5,3.3l-6.4,4.8l0,0c0.8-0.1,1.6-0.1,2.4-0.2l7.3-0.4l3.1,4.1l-9.8-0.1l-4.5,11.3l-2.9-3.8
			l3.6-8.3l-2.5-0.1l-4.7,3.6l-2.5-3.3L220.6,55.9z"/>
		<path class="st0" d="M227.4,85.6l-3.2-5.9l-3.8,2.1l3.6,6.6l-3,1.6l-5.6-10.2l16-8.7l5.4,9.8l-3,1.6l-3.4-6.2l-3.3,1.8l3.2,5.9
			L227.4,85.6z"/>
		<path class="st0" d="M238.7,85.6c0.7,1.2,1.5,2.9,2.3,5c0.9,2.5,1.2,4.4,0.7,6c-0.4,1.3-1.4,2.3-3,2.9c-2.2,0.8-4.2-0.2-5.3-1.5
			l-0.1,0c0,1.4-0.9,2.4-2.3,3.5c-1.8,1.3-3.8,2.6-4.3,3.2l-1.5-3.9c0.4-0.4,1.6-1.4,3.5-2.6c2-1.3,2.3-2.2,1.7-3.8l-0.4-1.1
			l-6.7,2.5l-1.4-3.8L238.7,85.6z M232.8,92.2l0.6,1.5c0.7,1.9,2.1,2.7,3.6,2.1c1.5-0.6,2-1.9,1.3-3.7c-0.3-0.9-0.6-1.4-0.8-1.7
			L232.8,92.2z"/>
	</g>
	<circle class="st18" cx="128" cy="127" r="88"/>
	<g>
		<g>
			<path class="st0" d="M123.5,175.6c-5.6,8.3-11.4,16.4-17.9,24c-2.5,2.9-4.8,6-7.3,9c-0.1,0.2-0.3,0.3-0.3,0.5
				c0,1.2-0.7,0.5-1.1,0.4c-0.8-0.2-1.1-0.9-1.5-1.5c-3-4.5-5.4-9.4-7.5-14.3c-1.9-4.5-3.3-9.2-4.2-14c-0.2-0.9-0.5-1.8-0.5-2.8
				c0-0.2,0-0.4-0.3-0.5c-0.3,0-0.3,0.2-0.5,0.4c-0.8,1.1-1.2,2.6-2.4,3.4c-0.2,0.2-0.3,0.5-0.4,0.7c-0.2,0.5-0.5,1-1.1,1.1
				c-0.4,0.1-0.8,0.3-0.6,0.9c0.1,0.2-0.1,0.4-0.2,0.5c-0.7,0.8-1.4,1.6-2.2,2.4c-0.1,0.1-0.3,0.3-0.4,0.3c-0.9-0.4-0.6,0.4-0.9,0.8
				c-0.3,0.5-0.9,0.8-1.5,1.1c-0.1,0-0.3-0.1-0.4-0.1c-0.1-0.1,0-0.3,0.1-0.4c0.5-0.4,0.6-1.3,1.3-1.6c0.5-0.3,0.5-0.9,0.7-1.3
				c0.4-0.8,1.1-1.4,1.5-2.3c0.9-2.2,1.5-4.4,2.3-6.6c0.7-2.2,1.3-4.4,1.9-6.6c0.6-2.3,1.1-4.6,1.6-6.9c0.1-0.6,0-1.2-0.1-1.8
				c-0.3-6.4-0.5-12.8-0.6-19.2c-0.1-2.4-0.1-4.9-0.2-7.3c0-0.5,0-4.6,0-5.3c0-8.2,0-16.3,0.4-24.5c0.2-3,0.3-6,0.7-8.9
				c0.1-0.6-0.1-0.7-0.7-0.7c-3.2-0.2-6.5-0.1-9.7,0c-0.6,0-1.1,0.1-1.7,0c-2.6-0.3-4.4,1-6.2,2.6c-0.1,0.1-0.2,0.2-0.3,0.3
				c-0.2,0.2-0.4,0.4-0.6,0.2c-0.2-0.2-0.2-0.4-0.1-0.7c0.5-1.4,1.3-2.6,2.3-3.7c1.7-1.8,3.6-3.5,5.3-5.3c3.4-3.6,6.7-7.3,10.1-10.9
				c1.5-1.6,2.9-3.2,4.8-4.3c1.3-0.8,2.6-1.1,4.1-1.2c4.2-0.2,8.3,0.2,12.5,0.4c3.2,0.2,6.5,0.5,9.7,0.2c0.3,0,0.6-0.1,0.7,0.3
				c0.1,0.4-0.2,0.5-0.4,0.7c-1.3,0.8-2.4,1.7-3.6,2.6c-0.7,0.6-1,1.2-1,2.1c-0.1,4.5-0.3,9.1-0.4,13.6c0,0.9-0.1,1.8-0.1,2.7
				c0,0.2-0.1,0.4,0.1,0.5c0.2,0.1,0.3-0.1,0.4-0.3c1.6-2,3.3-4,4.9-6c4.1-5.1,8.1-10.4,12.6-15.3c0.7-0.8,1.6-0.6,2.4-0.8
				c6.1-1,12.2-0.5,18.2-0.2c2.8,0.1,5.6,0.2,8.5-0.2c0.2,0,0.4-0.1,0.6,0c0.2,0,0.4,0.2,0.3,0.4c0,0.2-0.1,0.4-0.3,0.4
				c-1.9,0.4-3,1.9-4.1,3.2c-2.6,3.1-4.6,6.7-6.7,10.2c-0.2,0.3-0.2,0.6-0.2,1c0,2.3,0,4.6,0,6.9c0,0.2-0.2,0.6,0.1,0.7
				c0.3,0.1,0.4-0.2,0.6-0.4c3.4-2.9,6.4-6.2,9.3-9.6c2.1-2.4,4.3-4.7,6.3-7.2c1-1.4,2-2.8,2.6-4.5c0.6-1.5,1.8-2.1,3.2-2.2
				c2.3-0.2,4.6,0,6.9,0.3c6.4,0.9,12.9,1.3,19.4,0.8c2.1-0.2,10.8-0.6,11.3-0.7c3-0.2,5.8-1.2,8.1-3.4c0.5-0.5-2.2,4-4.9,6.2
				c-6,4.9-11.4,10.4-16.6,16c-1.6,1.7-3.1,3.6-5,5c0,0,0,0-0.1,0.1c-1.5,0.4-1.4,1.5-1.5,2.7c-0.1,6.8,0.2,13.5,0.4,20.3
				c0.4,10.1,1.3,20.3,0.8,30.4c-0.1,2.9-0.3,5.8-1.1,8.7c-0.9,3-2.4,5.7-4.4,8.1c-3,3.6-6.5,6.7-10,9.7
				c-5.5,4.7-10.8,9.6-15.6,15.1c-4.5,5-8.4,10.4-11.4,16.5c-0.5,1.1-1.1,2.1-2,2.9c-0.7,0.7-0.9,0.7-1.6,0
				c-1.9-1.8-3.1-4.1-4.3-6.4c-1.5-2.8-3.1-5.4-4.4-8.3c-1.6-3.3-2.8-6.8-3.8-10.3c-0.7-2.7-1.3-5.4-1.8-8.2
				C123.6,176,123.5,175.8,123.5,175.6z M160.6,158.7c0.1-0.5,0.1-1.5,0.1-2.1c0-7.1-0.1-14.3-0.5-21.4c-0.2-4-0.3-8-0.6-11.9
				c-0.4-6.3-0.8-12.5-0.9-18.8c-0.1-2.2-0.2-4.3-0.2-6.5c0-0.4-0.1-0.6-0.6-0.7c-5.1-0.1-10.1-0.2-15,1.5c-0.6,0.2-0.8,0.5-0.8,1.1
				c0,7.3,0,14.6,0,21.8c0,10.6,0.3,21.2,1.9,31.7c0.6,4.2,1.4,8.3,2.6,12.4c1.2,4.3,2.7,8.6,4.8,12.6c0.7,1.2,1.4,2.5,2.5,3.3
				c0.9,0.6,1.6,0.5,2.2-0.4c0.8-1.2,1.5-2.5,2.1-3.8c1.4-3.2,1.8-6.6,2-10C160.4,164.6,160.5,161.7,160.6,158.7z M105.5,122.6
				c-0.2,4-0.3,7-0.3,10c-0.1,8,0.1,16,1.2,23.9c0.5,3.5,1.1,6.9,2,10.3c0.6,2.6,1.3,5.2,2.2,7.7c0.8,2.1,1.7,4.2,3,6.1
				c0.3,0.4,0.6,0.5,1.2,0.4c1.5-0.5,2.4-1.6,3.2-3c1.5-2.7,2.5-5.6,3.2-8.6c0.3-1.3,0.8-2.6,0.7-4c-0.2-2.7-0.4-5.3-0.5-8
				c-0.4-6-0.7-12-0.9-18c-0.4-9.3-0.5-18.5-0.5-27.8c0-4.6,0.5-9.1,0.1-13.7c-0.1-0.5-0.2-0.7-0.8-0.7c-2.7,0.1-5.4,0-8.1,0.1
				c-1.6,0.1-3.1,0.4-4.5,1.3c-0.3,0.2-0.5,0.5-0.5,0.9C106.2,107.6,105.7,115.5,105.5,122.6z"/>
		</g>
	</g>
</g>
</svg>
