<?xml version="1.0" encoding="utf-8"?>
<!-- Generator: Adobe Illustrator 17.0.0, SVG Export Plug-In . SVG Version: 6.00 Build 0)  -->
<!DOCTYPE svg PUBLIC "-//W3C//DTD SVG 1.1//EN" "http://www.w3.org/Graphics/SVG/1.1/DTD/svg11.dtd" [
	<!ENTITY ns_flows "http://ns.adobe.com/Flows/1.0/">
	<!ENTITY ns_extend "http://ns.adobe.com/Extensibility/1.0/">
	<!ENTITY ns_ai "http://ns.adobe.com/AdobeIllustrator/10.0/">
	<!ENTITY ns_graphs "http://ns.adobe.com/Graphs/1.0/">
]>
<svg version="1.1" id="Layer_2" xmlns:x="&ns_extend;" xmlns:i="&ns_ai;" xmlns:graph="&ns_graphs;"
	 xmlns="http://www.w3.org/2000/svg" xmlns:xlink="http://www.w3.org/1999/xlink" xmlns:a="http://ns.adobe.com/AdobeSVGViewerExtensions/3.0/"
	 x="0px" y="0px" width="256px" height="256px" viewBox="0 0 256 256" style="enable-background:new 0 0 256 256;"
	 xml:space="preserve">
<style type="text/css">
	.st0{fill:#FFFFFF;}
	.st1{fill:#54B948;}
	.st2{fill:#1D8C8E;}
	.st3{fill:#14DEAC;}
	.st4{fill:#1466AC;}
	.st5{fill:#757575;}
	.st6{fill:#B69442;}
	.st7{fill:#1A234D;}
	.st8{fill:#AA0629;}
	.st9{fill:#FF4A49;}
	.st10{fill:#3C6643;}
	.st11{fill:none;stroke:#FF4A49;stroke-miterlimit:10;}
	.st12{fill:#E70084;}
	.st13{fill:#508A72;}
	.st14{fill:#01A663;}
	.st15{fill:#015297;}
	.st16{fill:#B0B0B0;}
	.st17{fill:#E1062F;}
	.st18{fill:#D80000;stroke:#FFFFFF;stroke-width:2;stroke-miterlimit:10;}
	.st19{fill:#D80000;}
	.st20{fill:#8ABE23;}
	.st21{fill:#1D1D1B;}
	.st22{fill:#FEFEFE;}
	.st23{fill:#FF0000;}
	.st24{fill:#FF1D1B;}
	.st25{fill:#6DB2DE;}
	.st26{fill:#FF1D25;}
	.st27{fill:#FFDA00;}
	.st28{fill:#024D9E;}
	.st29{fill:#6B97C6;}
	.st30{fill:#000078;}
	.st31{fill:none;stroke:#FFFFFF;stroke-width:6;stroke-linecap:round;stroke-miterlimit:10;}
	.st32{fill:#FFEE34;}
	.st33{fill:none;stroke:#000000;stroke-width:4;stroke-miterlimit:10;}
	.st34{fill:#D11E24;}
	.st35{fill:#D71F26;}
	.st36{fill:#020000;}
	.st37{fill:none;stroke:#000000;stroke-width:2;stroke-miterlimit:10;}
	.st38{clip-path:url(#SVGID_2_);}
	.st39{fill:#00317D;}
	.st40{fill:#00737D;}
	.st41{fill:#ED1C24;}
	.st42{fill:#2678C7;}
	.st43{fill:#1853A6;}
	.st44{fill:#CB0000;}
	.st45{fill:#E61C21;}
	.st46{clip-path:url(#SVGID_4_);}
	.st47{fill:#6BDEF1;}
	.st48{clip-path:url(#SVGID_6_);}
	.st49{fill:#0165B2;}
	.st50{fill:#DE1134;}
	.st51{fill:#00A668;}
	.st52{fill:#FFE60B;}
	.st53{fill:#843D00;stroke:#000000;stroke-miterlimit:10;}
	.st54{fill:#EC1F27;}
	.st55{fill:#162984;}
	.st56{fill:#1853A6;stroke:#1853A6;stroke-miterlimit:10;}
	.st57{fill:none;}
	.st58{fill:none;stroke:#1853A6;stroke-width:0.9;stroke-miterlimit:10;}
	.st59{fill:#1853A6;stroke:#1853A6;stroke-width:0.9;stroke-miterlimit:10;}
	.st60{fill:#B5985A;}
	.st61{fill:#FFE60B;stroke:#000000;stroke-width:6;stroke-miterlimit:10;}
	.st62{fill:#008DCD;}
	.st63{fill:#009939;}
	.st64{fill:#2E3092;}
	.st65{fill:#EE3224;}
	.st66{fill:#005BAB;}
	.st67{fill:#D30027;}
	.st68{fill:#FFFFFF;stroke:#D30027;stroke-width:10;stroke-miterlimit:10;}
	.st69{fill:#E81C2F;}
	.st70{fill:#DC032B;}
	.st71{fill:#F25448;}
	.st72{fill:#FFFFFF;stroke:#F25448;stroke-width:6;stroke-miterlimit:10;}
	.st73{fill:#05A08D;}
	.st74{fill:#1875CE;}
	.st75{fill:#D72427;}
	.st76{fill:#004993;}
	.st77{fill:#007BB0;}
	.st78{fill:#FFEB00;}
	.st79{fill:#664A9E;}
	.st80{fill:#F4C701;}
	.st81{fill:#EBBE12;}
	.st82{fill:#44B3DB;}
	.st83{fill:#F6FF82;}
	.st84{fill:#FFC918;}
	.st85{fill:#0361A4;}
	.st86{fill:#009FE3;}
	.st87{fill:#E30217;}
	.st88{fill:#FDEA00;}
	.st89{fill:#E91B00;}
	.st90{fill:#2B2763;}
	.st91{fill:#EE1A22;}
	.st92{fill:#F1AA25;}
	.st93{fill:#93000C;}
	.st94{fill:none;stroke:#1D1D1B;stroke-width:4;}
	.st95{fill:#3E4E70;}
	.st96{fill:#096CB6;}
	.st97{fill:#0559A8;}
	.st98{fill:#F9ED1A;}
	.st99{fill:#949494;}
	.st100{fill:#FFD033;}
	.st101{fill:#243D89;}
	.st102{fill:#F8C936;}
	.st103{fill:#D44128;}
	.st104{fill:#ED1B23;}
	.st105{fill:#0C529C;}
	.st106{fill:#E31E24;}
	.st107{fill:#0263B0;}
	.st108{fill:#007AC2;}
	.st109{fill:#EF3D1F;}
	.st110{fill:#EE1C24;}
	.st111{fill:#FDEA00;stroke:#000000;stroke-width:0.6509;}
	.st112{fill:#FDEA00;stroke:#000000;stroke-width:0.6979;}
	.st113{fill:#46A0BE;}
	.st114{fill:#005FA5;}
	.st115{fill:#00904C;}
	.st116{fill:#E21F26;}
	.st117{fill:#FD0001;}
	.st118{fill:#0066B3;}
	.st119{fill:#E20019;}
	.st120{fill:#0171BC;}
	.st121{fill:#01305D;}
	.st122{fill:#1B7EE9;}
	.st123{fill:#BA0D0B;}
	.st124{fill:none;stroke:#000000;stroke-width:3;stroke-miterlimit:10;}
	.st125{fill:#FFFFFF;stroke:#000000;stroke-width:0.8836;stroke-miterlimit:10;}
	.st126{fill:#FFFFFF;stroke:#000000;stroke-width:0.9759;stroke-miterlimit:10;}
	.st127{fill:#0053A1;}
	.st128{fill:#FFE100;}
	.st129{fill:#FFE500;}
	.st130{fill:none;stroke:#FFE500;stroke-width:2;stroke-miterlimit:10;}
	.st131{fill:#01AFF3;}
	.st132{fill:#ED1B28;}
	.st133{fill:#E2000A;}
</style>
<g>
	<g>
		<g>
			<path class="st0" d="M127,244.6c-4.5-7.6-14.9-11.8-27.1-16.8c-18.7-7.6-42.1-17-61.3-42.4C16,155.5,4.8,111,4.5,49.4
				c9-0.3,29-2.7,38-16.9C47.1,25.2,48,16.6,45,6c8.7,1.7,158.2,2.4,168.8,0.1c-3.1,11.1-2.3,21.4,2.5,29
				c7.4,11.6,22.6,16.1,35.2,16.6c-0.3,60.5-11.6,104.3-34.5,133.9c-19.5,25.1-43.1,34.5-62.2,42.1
				C142.3,232.7,131.7,236.9,127,244.6z"/>
			<path d="M210.4,9c-2.1,10.1-0.8,20,3.9,27.3c7.4,11.7,22,16.7,34.7,17.7c-0.3,30.6-3.6,57.3-9.9,79.5
				c-5.6,19.9-13.7,36.8-24.1,50.3c-19.1,24.6-42.4,33.9-61.1,41.4c-11.1,4.4-21.2,8.4-26.9,15.1c-5.6-6.6-15.5-10.6-26.3-14.9
				c-18.5-7.5-41.4-16.7-60.2-41.6c-10.3-13.6-18.3-30.7-23.8-51C10.6,110.2,7.3,83,7,51.9c10.2-0.7,28.7-4,37.6-18
				c4.5-7,5.7-15.5,3.8-25.2C86.1,8.9,177.2,9.1,210.4,9z M41.2,2C54.2,37.4,22.7,46.8,2,46.8C2,254.7,126.9,213.6,127,254
				c0.1-40.4,127,0,127-205.1c-19.5,0-49.4-11.5-36.4-46.9C168.9,2.2,101.4,2.6,41.2,2z"/>
		</g>
	</g>
	<g>
		<path class="st45" d="M201.9,45.9c-3.7-5.9-6.1-12.9-7-19.9c-1.9,0-3.9,0-6,0c-34.9,0-90.2-0.5-125.2-0.6
			c-1,6.5-3.2,12.4-6.7,17.9c-4.4,6.9-14.3,17.9-34.6,22.7c1,23.7,4,44.5,8.8,62.2c4.9,18.1,12,33.4,21,45.3
			c5.9,7.9,12.4,13.9,19,18.8L128,97.7l56.5,94.1c6.6-4.8,13.1-10.8,19-18.4c9.1-11.7,16.2-26.7,21.2-44.6c4.9-17.4,7.8-37.7,8.8-61
			C219.8,64,208.6,56.5,201.9,45.9z"/>
	</g>
	<g>
		<g>
			<path class="st0" d="M70.6,41.8h-3.8v-5.1h12.8v5.1h-3.9v18.8h-5.1V41.8z"/>
			<path class="st0" d="M86.7,36.7V52c0,3.2,0.8,4.1,1.7,4.1c1,0,1.7-0.7,1.7-4.1V36.7h5.1V51c0,6.1-2.1,9.8-6.8,9.8
				c-5.2,0-6.8-3.9-6.8-9.9V36.7H86.7z M85.2,35.5c-1.1,0-2.1-1.1-2.1-2.5c0-1.4,1.1-2.5,2.2-2.5c1.1,0,2.2,1.1,2.2,2.5
				C87.4,34.3,86.4,35.5,85.2,35.5L85.2,35.5z M91.6,35.5c-1.1,0-2.2-1.1-2.2-2.5c0-1.4,1.1-2.5,2.2-2.5c1.1,0,2.2,1.1,2.2,2.5
				C93.7,34.3,92.7,35.5,91.6,35.5L91.6,35.5z"/>
			<path class="st0" d="M98.8,37.1c1.5-0.3,3.3-0.5,5.2-0.5c2.4,0,4.8,0.3,6.3,1.8c1.4,1.4,1.8,3,1.8,5.1c0,2.3-1.1,4.7-3.3,5.9v0.1
				c1.4,0.7,2.2,2.1,2.6,4.5c0.4,2.4,1.1,5.7,1.5,6.7h-5.3c-0.3-0.6-0.8-3.1-1.1-5.6c-0.3-2.8-0.9-3.5-2-3.5h-0.5v9.1h-5.1V37.1z
				 M103.9,47.2h0.7c1.6,0,2.5-1.5,2.5-3.3c0-1.7-0.6-3-2.2-3.1c-0.3,0-0.7,0-0.9,0.1V47.2z"/>
			<path class="st0" d="M115.1,36.7h5.1v10.5h0.1c0.3-1,0.6-2.1,1-3.2l2.4-7.3h5.6l-4.8,10.5l4.8,13.4h-5.5l-2.7-9.2l-0.9,1.8v7.4
				h-5.1V36.7z"/>
			<path class="st0" d="M143.5,60c-1,0.4-3.2,0.8-4.9,0.8c-2.8,0-4.8-0.8-6.2-2.4c-2-2.1-3-5.7-3-9.7c0.1-8.4,4.8-12.2,9.8-12.2
				c1.8,0,3.1,0.4,3.8,0.7l-0.8,4.7c-0.7-0.4-1.5-0.5-2.5-0.5c-3,0-5,2.1-5,7.8c0,5,1.8,7,3.5,7c0.2,0,0.4,0,0.6-0.1v-4.9h-1.6v-4.5
				h6.2V60z"/>
			<path class="st0" d="M151.5,36.7V52c0,3.2,0.8,4.1,1.7,4.1c1,0,1.7-0.7,1.7-4.1V36.7h5.1V51c0,6.1-2.1,9.8-6.8,9.8
				c-5.2,0-6.8-3.9-6.8-9.9V36.7H151.5z M150,35.5c-1.1,0-2.1-1.1-2.1-2.5c0-1.4,1.1-2.5,2.2-2.5c1.1,0,2.2,1.1,2.2,2.5
				C152.2,34.3,151.2,35.5,150,35.5L150,35.5z M156.4,35.5c-1.1,0-2.2-1.1-2.2-2.5c0-1.4,1.1-2.5,2.2-2.5c1.1,0,2.2,1.1,2.2,2.5
				C158.6,34.3,157.5,35.5,156.4,35.5L156.4,35.5z"/>
			<path class="st0" d="M174.6,60.3c-0.6,0.3-1.8,0.5-3.4,0.5c-6.2,0-8.8-5.6-8.8-11.8c0-8.8,4.8-12.5,9.4-12.5
				c1.6,0,2.7,0.4,3.1,0.6l-0.8,4.6c-0.5-0.2-1.1-0.5-1.9-0.5c-2.5,0-4.4,2.2-4.4,7.5c0,5,1.8,7.2,4.4,7.2c0.6,0,1.4-0.1,2-0.3
				L174.6,60.3z"/>
			<path class="st0" d="M181.8,36.7V52c0,3.2,0.8,4.1,1.7,4.1c1,0,1.7-0.7,1.7-4.1V36.7h5.1V51c0,6.1-2.1,9.8-6.8,9.8
				c-5.2,0-6.8-3.9-6.8-9.9V36.7H181.8z M180.2,35.5c-1.1,0-2.1-1.1-2.1-2.5c0-1.4,1.1-2.5,2.2-2.5c1.1,0,2.2,1.1,2.2,2.5
				C182.4,34.3,181.4,35.5,180.2,35.5L180.2,35.5z M186.6,35.5c-1.1,0-2.2-1.1-2.2-2.5c0-1.4,1.1-2.5,2.2-2.5c1.1,0,2.2,1.1,2.2,2.5
				C188.8,34.3,187.8,35.5,186.6,35.5L186.6,35.5z"/>
			<path class="st0" d="M88.2,84.9C88.1,83,88,80.2,88,77.6H88c-0.4,2.5-1,5.5-1.2,6.9l-1.6,7.4h-3.7L80,84.6
				c-0.3-1.5-0.9-4.4-1.1-6.9h-0.1c-0.1,2.5-0.3,5.4-0.4,7.3L78,92.4h-4.3l1.7-23.9h5.3l1.4,7.7c0.6,3,1.1,5.7,1.5,8.4h0.1
				c0.3-2.6,0.8-5.5,1.3-8.4l1.4-7.7h5.3l1.4,23.9h-4.5L88.2,84.9z"/>
			<path class="st0" d="M101,68.6v15.3c0,3.2,0.8,4.1,1.7,4.1c1,0,1.7-0.7,1.7-4.1V68.6h5.1v14.3c0,6.1-2.1,9.8-6.8,9.8
				c-5.2,0-6.8-3.9-6.8-9.9V68.6H101z M99.5,67.3c-1.1,0-2.1-1.1-2.1-2.5c0-1.4,1.1-2.5,2.2-2.5c1.1,0,2.2,1.1,2.2,2.5
				C101.7,66.2,100.6,67.3,99.5,67.3L99.5,67.3z M105.8,67.3c-1.1,0-2.2-1.1-2.2-2.5c0-1.4,1.1-2.5,2.2-2.5c1.1,0,2.2,1.1,2.2,2.5
				C108,66.2,107,67.3,105.8,67.3L105.8,67.3z"/>
			<path class="st0" d="M113.1,92.4V68.6h4.6l3.1,8.6c0.6,1.5,1.6,4.5,2.2,6.4h0.1c-0.1-1.9-0.5-6.6-0.5-11.1v-3.9h4.4v23.9h-4.6
				l-3-8c-0.7-1.8-1.7-5-2.1-6.8h-0.1c0.1,2.1,0.3,6,0.3,10.7v4.1H113.1z"/>
			<path class="st0" d="M141.7,92.1c-0.6,0.3-1.8,0.5-3.4,0.5c-6.2,0-8.8-5.6-8.8-11.8c0-8.8,4.8-12.5,9.4-12.5
				c1.6,0,2.7,0.4,3.1,0.6l-0.8,4.6c-0.5-0.2-1.1-0.5-1.9-0.5c-2.5,0-4.4,2.2-4.4,7.5c0,5,1.8,7.2,4.4,7.2c0.6,0,1.4-0.1,2-0.3
				L141.7,92.1z"/>
			<path class="st0" d="M149.1,68.6v9.3h3.7v-9.3h5.1v23.9h-5.1V83h-3.7v9.5H144V68.6H149.1z"/>
			<path class="st0" d="M171.6,82.3h-4.8v5.4h5.4v4.7h-10.5V68.6h10.1v4.7h-5.1v4.5h4.8V82.3z"/>
			<path class="st0" d="M175.2,92.4V68.6h4.6l3.1,8.6c0.6,1.5,1.6,4.5,2.2,6.4h0.1c-0.1-1.9-0.5-6.6-0.5-11.1v-3.9h4.4v23.9h-4.6
				l-3-8c-0.7-1.8-1.7-5-2.1-6.8h-0.1c0.1,2.1,0.3,6,0.3,10.7v4.1H175.2z"/>
		</g>
	</g>
	<path class="st0" d="M55.9,129.2c0,24.4,22.6,21.2,28.7,17.6c-4.1,4.5-9.8,7.2-16.1,7.2c-12.6,0-22.8-11-22.8-24.6
		c0-13.6,10.2-24.6,22.8-24.6c7.1,0,13.5,3.5,17.7,9.1C81.1,109,55.9,104.9,55.9,129.2z"/>
	<path class="st0" d="M186.5,104.2c-12.9,0-23.4,11.3-23.4,25.2c0,13.9,10.5,25.2,23.4,25.2c12.9,0,23.4-11.3,23.4-25.2
		C209.8,115.5,199.4,104.2,186.5,104.2z M208,123.4l-3.1-3.4c-0.6-3.5-2-6.3-3.4-8.3C204.6,114.8,206.9,118.9,208,123.4z
		 M193.7,144.3c-1.7-0.4-7.6-1.6-9.3-2.4c-1-3.4-1.8-8.1-2.3-11.3c0,0,0.1,0,0.1,0c1.1-2.4,7.4-9.8,7.4-9.8s0,0,0-0.1
		c2.9,0.6,7.5,1.8,10.6,3.8c0.9,4.8,1.3,8.5,1.4,10.4C200.6,136.5,197.2,141.5,193.7,144.3z M178.1,147c-4.5-1.5-8.1-4.6-9.6-6.2
		c-0.7-2.4-1.7-7.8-1.8-10.2c1.2-1.4,3.3-3.7,5.8-5.7c0.8,0.5,6.2,3.9,8.8,5.3c0.5,3.1,1.3,8,2.3,11.6
		C183.1,142.3,179.5,146.1,178.1,147z M200.3,123.7c-3.4-2.1-8.2-3.3-11-3.8c-0.7-2-2.4-6.4-3.6-8.5c1.7-1.7,3.5-3.1,4.6-3.9
		c1,0,3.9,0.1,6.1,0.4c0.6,0.3,1.2,0.7,1.7,1c1.8,1.7,4.7,5.1,5.9,10.2L200.3,123.7z M190.2,105.8l-0.2,1c-1.2,0.9-3.4,2.6-5.4,4.6
		c-2.5,0.3-7.5,1.6-9.2,2c-1.3-1.2-2.5-2.1-3.1-2.5c3.9-3.4,8.8-5.5,14.2-5.5C187.7,105.4,189,105.5,190.2,105.8z M171.7,111.4
		c0.5,0.3,1.6,1.1,2.9,2.3c-0.9,1.6-1.8,7.8-2.2,10.1c-2.5,2-4.7,4.3-6.1,5.8c-0.8-0.7-1.6-2.5-2-3.6
		C165.2,120.3,167.8,115.1,171.7,111.4z M168.2,143.2c0.1-0.3,0.2-0.7,0.4-1.2c1.9,1.8,5.4,4.6,9.8,5.9c1.2,1.5,2.9,3.8,4.3,5.2
		C176.7,152,171.5,148.3,168.2,143.2z M193.8,152.1c0.1-1.9,0.2-5.6,0.3-7.1c3.2-2.6,6.2-6.7,7.6-8.7c0,0.2,0,0.3,0,0.3
		s4,0.4,5.9,0.5C205.4,144.1,200.3,149.7,193.8,152.1z"/>
	<polygon class="st0" points="94.2,121.6 95.9,127 101.1,127 96.9,130.3 98.5,135.7 94.2,132.4 90,135.7 91.6,130.3 87.4,127 
		92.6,127 	"/>
	<g>
		<defs>
			<path id="SVGID_3_" d="M71.2,192.3c11.5,8.5,23.7,13.4,34.8,17.9c7.5,3,14.7,5.9,21,9.9c6.5-4,14-7,21.7-10.1
				c11.5-4.6,24-9.6,35.8-18.1L128,97.7L71.2,192.3z"/>
		</defs>
		<clipPath id="SVGID_2_">
			<use xlink:href="#SVGID_3_"  style="overflow:visible;"/>
		</clipPath>
		<g class="st38">
			<g>
				<polygon class="st0" points="128.1,91.7 117.1,79.8 128.1,67.9 139.1,79.8 				"/>
				<polygon class="st47" points="139.1,103.6 128.1,91.7 139.1,79.8 150.2,91.7 				"/>
				<polygon class="st0" points="150.1,115.5 139.1,103.6 150.2,91.7 161.2,103.6 				"/>
				<polygon class="st47" points="161.1,127.4 150.1,115.5 161.2,103.6 172.2,115.5 				"/>
				<polygon class="st0" points="172.2,139.3 161.1,127.4 172.2,115.5 183.2,127.3 				"/>
				<polygon class="st47" points="183.2,151.2 172.2,139.3 183.2,127.3 194.2,139.2 				"/>
				<polygon class="st0" points="194.2,163.1 183.2,151.2 194.2,139.2 205.3,151.1 				"/>
				<polygon class="st47" points="205.2,175 194.2,163.1 205.3,151.1 216.3,163 				"/>
				<polygon class="st47" points="117,103.6 106,91.7 117.1,79.8 128.1,91.7 				"/>
				<polygon class="st0" points="128,115.5 117,103.6 128.1,91.7 139.1,103.6 				"/>
				<polygon class="st47" points="139.1,127.4 128,115.5 139.1,103.6 150.1,115.5 				"/>
				<polygon class="st0" points="150.1,139.3 139.1,127.4 150.1,115.5 161.1,127.4 				"/>
				<polygon class="st47" points="161.1,151.2 150.1,139.3 161.1,127.4 172.2,139.3 				"/>
				<polygon class="st0" points="172.1,163.1 161.1,151.2 172.2,139.3 183.2,151.2 				"/>
				<polygon class="st47" points="183.2,175 172.1,163.1 183.2,151.2 194.2,163.1 				"/>
				<polygon class="st0" points="106,115.6 94.9,103.7 106,91.7 117,103.6 				"/>
				<polygon class="st47" points="117,127.5 106,115.6 117,103.6 128,115.5 				"/>
				<polygon class="st0" points="128,139.4 117,127.5 128,115.5 139.1,127.4 				"/>
				<polygon class="st47" points="139,151.3 128,139.4 139.1,127.4 150.1,139.3 				"/>
				<polygon class="st0" points="150,163.2 139,151.3 150.1,139.3 161.1,151.2 				"/>
				<polygon class="st47" points="161.1,175 150,163.2 161.1,151.2 172.1,163.1 				"/>
				<polygon class="st0" points="172.1,186.9 161.1,175 172.1,163.1 183.2,175 				"/>
				<polygon class="st47" points="183.1,198.8 172.1,186.9 183.2,175 194.2,186.9 				"/>
				<polygon class="st0" points="194.2,186.9 183.2,175 194.2,163.1 205.2,175 				"/>
				<polygon class="st47" points="95,127.4 84,115.5 95,103.6 106.1,115.5 				"/>
				<polygon class="st0" points="106,139.3 95,127.4 106.1,115.5 117.1,127.4 				"/>
				<polygon class="st47" points="117,151.2 106,139.3 117.1,127.4 128.1,139.3 				"/>
				<polygon class="st0" points="128.1,163.1 117,151.2 128.1,139.3 139.1,151.2 				"/>
				<polygon class="st47" points="139.1,175 128.1,163.1 139.1,151.2 150.1,163.1 				"/>
				<polygon class="st0" points="150.1,186.9 139.1,175 150.1,163.1 161.2,174.9 				"/>
				<polygon class="st47" points="161.1,198.8 150.1,186.9 161.2,174.9 172.2,186.8 				"/>
				<polygon class="st0" points="172.1,210.7 161.1,198.8 172.2,186.8 183.2,198.7 				"/>
			</g>
			<g>
				<polygon class="st0" points="83.9,139.4 72.9,127.5 83.9,115.5 95,127.4 				"/>
				<polygon class="st47" points="94.9,151.3 83.9,139.4 95,127.4 106,139.3 				"/>
				<polygon class="st0" points="106,163.2 94.9,151.3 106,139.3 117,151.2 				"/>
				<polygon class="st47" points="117,175.1 106,163.2 117,151.2 128,163.1 				"/>
				<polygon class="st0" points="128,186.9 117,175.1 128,163.1 139.1,175 				"/>
				<polygon class="st47" points="139,198.8 128,186.9 139.1,175 150.1,186.9 				"/>
				<polygon class="st0" points="150,210.7 139,198.8 150.1,186.9 161.1,198.8 				"/>
				<polygon class="st47" points="161.1,222.6 150,210.7 161.1,198.8 172.1,210.7 				"/>
				<polygon class="st47" points="72.8,151.3 61.8,139.4 72.9,127.5 83.9,139.4 				"/>
				<polygon class="st0" points="83.9,163.2 72.8,151.3 83.9,139.4 94.9,151.3 				"/>
				<polygon class="st47" points="94.9,175.1 83.9,163.2 94.9,151.3 106,163.2 				"/>
				<polygon class="st0" points="105.9,187 94.9,175.1 106,163.2 117,175.1 				"/>
				<polygon class="st47" points="116.9,198.9 105.9,187 117,175.1 128,186.9 				"/>
				<polygon class="st0" points="128,210.8 116.9,198.9 128,186.9 139,198.8 				"/>
				<polygon class="st47" points="139,222.7 128,210.8 139,198.8 150,210.7 				"/>
				<polygon class="st0" points="61.8,163.2 50.8,151.3 61.8,139.4 72.8,151.3 				"/>
				<polygon class="st47" points="72.8,175.1 61.8,163.2 72.8,151.3 83.9,163.2 				"/>
				<polygon class="st0" points="83.8,187 72.8,175.1 83.9,163.2 94.9,175.1 				"/>
				<polygon class="st47" points="94.9,198.9 83.8,187 94.9,175.1 105.9,187 				"/>
				<polygon class="st0" points="105.9,210.8 94.9,198.9 105.9,187 116.9,198.9 				"/>
				<polygon class="st47" points="116.9,222.7 105.9,210.8 116.9,198.9 128,210.8 				"/>
				<polygon class="st0" points="127.9,234.6 116.9,222.7 128,210.8 139,222.7 				"/>
				<polygon class="st47" points="138.9,246.5 127.9,234.6 139,222.7 150,234.6 				"/>
				<polygon class="st0" points="150,234.6 139,222.7 150,210.7 161.1,222.6 				"/>
				<polygon class="st47" points="50.8,175.1 39.8,163.2 50.9,151.2 61.9,163.1 				"/>
				<polygon class="st0" points="61.8,187 50.8,175.1 61.9,163.1 72.9,175 				"/>
				<polygon class="st47" points="72.9,198.9 61.8,187 72.9,175 83.9,186.9 				"/>
				<polygon class="st0" points="83.9,210.8 72.9,198.9 83.9,186.9 95,198.8 				"/>
				<polygon class="st47" points="94.9,222.7 83.9,210.8 95,198.8 106,210.7 				"/>
				<polygon class="st0" points="105.9,234.5 94.9,222.7 106,210.7 117,222.6 				"/>
				<polygon class="st47" points="117,246.4 105.9,234.5 117,222.6 128,234.5 				"/>
				<polygon class="st0" points="128,258.3 117,246.4 128,234.5 139,246.4 				"/>
			</g>
		</g>
	</g>
	<g>
		<path d="M99.9,170.2L99.9,170.2l-4.3,2.2l-0.9-4.9l5.8-3.1h5.2v26.5h-5.8V170.2z"/>
		<path d="M113,186c1.1,0,1.6,0,2.5-0.2c0.8-0.2,1.9-0.6,2.7-1.4c0.9-0.9,1.7-2.5,2.2-4.4h-0.1c-0.8,0.8-1.8,1.4-3.3,1.4
			c-3.3,0-6-3.1-6-8c0-4.4,2.6-9.4,7.8-9.4c4.7,0,7.3,4.4,7.3,11c0,6.3-2,10.6-4.4,13c-1.6,1.6-3.7,2.7-6.2,3.1
			c-0.8,0.1-1.6,0.1-2.4,0.1V186z M118.3,168.5c-1.1,0-1.8,1.8-1.7,4.4c0,2,0.5,4.2,1.9,4.2c0.7,0,1.3-0.6,1.4-0.9
			c0.2-0.6,0.2-1.2,0.2-3.3C120.1,170.3,119.4,168.5,118.3,168.5L118.3,168.5z"/>
		<path d="M142.4,164.4v4.2l-7.6,22.3h-5.7l7.4-20.9v-0.1h-8.2v-5.5H142.4z"/>
		<path d="M158,169.8h-6.5l-0.4,3.8c0.2,0,0.5,0,0.7,0c0.9,0,3.1,0.5,4.6,2c1.4,1.4,2.2,3.5,2.2,6.1c0,5.1-3.2,9.5-9,9.5
			c-1.9,0-3.8-0.5-4.8-1l0.8-5c1,0.5,2.2,0.9,3.6,0.9c2.4,0,3.7-1.5,3.7-3.8c0-3.3-2.5-4.2-5.2-4.2c-0.6,0-1.2,0-1.7,0.1l1.3-13.8
			H158V169.8z"/>
	</g>
	<g>
		<path d="M99.9,170.2L99.9,170.2l-4.3,2.2l-0.9-4.9l5.8-3.1h5.2v26.5h-5.8V170.2z"/>
		<path d="M113,186c1.1,0,1.6,0,2.5-0.2c0.8-0.2,1.9-0.6,2.7-1.4c0.9-0.9,1.7-2.5,2.2-4.4h-0.1c-0.8,0.8-1.8,1.4-3.3,1.4
			c-3.3,0-6-3.1-6-8c0-4.4,2.6-9.4,7.8-9.4c4.7,0,7.3,4.4,7.3,11c0,6.3-2,10.6-4.4,13c-1.6,1.6-3.7,2.7-6.2,3.1
			c-0.8,0.1-1.6,0.1-2.4,0.1V186z M118.3,168.5c-1.1,0-1.8,1.8-1.7,4.4c0,2,0.5,4.2,1.9,4.2c0.7,0,1.3-0.6,1.4-0.9
			c0.2-0.6,0.2-1.2,0.2-3.3C120.1,170.3,119.4,168.5,118.3,168.5L118.3,168.5z"/>
		<path d="M142.4,164.4v4.2l-7.6,22.3h-5.7l7.4-20.9v-0.1h-8.2v-5.5H142.4z"/>
		<path d="M158,169.8h-6.5l-0.4,3.8c0.2,0,0.5,0,0.7,0c0.9,0,3.1,0.5,4.6,2c1.4,1.4,2.2,3.5,2.2,6.1c0,5.1-3.2,9.5-9,9.5
			c-1.9,0-3.8-0.5-4.8-1l0.8-5c1,0.5,2.2,0.9,3.6,0.9c2.4,0,3.7-1.5,3.7-3.8c0-3.3-2.5-4.2-5.2-4.2c-0.6,0-1.2,0-1.7,0.1l1.3-13.8
			H158V169.8z"/>
	</g>
</g>
</svg>
