<?xml version="1.0" encoding="utf-8"?>
<!-- Generator: Adobe Illustrator 17.0.0, SVG Export Plug-In . SVG Version: 6.00 Build 0)  -->
<!DOCTYPE svg PUBLIC "-//W3C//DTD SVG 1.1//EN" "http://www.w3.org/Graphics/SVG/1.1/DTD/svg11.dtd" [
	<!ENTITY ns_flows "http://ns.adobe.com/Flows/1.0/">
	<!ENTITY ns_extend "http://ns.adobe.com/Extensibility/1.0/">
	<!ENTITY ns_ai "http://ns.adobe.com/AdobeIllustrator/10.0/">
	<!ENTITY ns_graphs "http://ns.adobe.com/Graphs/1.0/">
]>
<svg version="1.1" id="Layer_2" xmlns:x="&ns_extend;" xmlns:i="&ns_ai;" xmlns:graph="&ns_graphs;"
	 xmlns="http://www.w3.org/2000/svg" xmlns:xlink="http://www.w3.org/1999/xlink" xmlns:a="http://ns.adobe.com/AdobeSVGViewerExtensions/3.0/"
	 x="0px" y="0px" width="256px" height="256px" viewBox="0 0 256 256" style="enable-background:new 0 0 256 256;"
	 xml:space="preserve">
<style type="text/css">
	.st0{fill:#FFFFFF;}
	.st1{fill:#54B948;}
	.st2{fill:#1D8C8E;}
	.st3{fill:#14DEAC;}
	.st4{fill:#1466AC;}
	.st5{fill:#757575;}
	.st6{fill:#B69442;}
	.st7{fill:#1A234D;}
	.st8{fill:#AA0629;}
	.st9{fill:#FF4A49;}
	.st10{fill:#3C6643;}
	.st11{fill:none;stroke:#FF4A49;stroke-miterlimit:10;}
	.st12{fill:#E70084;}
	.st13{fill:#508A72;}
	.st14{fill:#01A663;}
	.st15{fill:#015297;}
	.st16{fill:#B0B0B0;}
	.st17{fill:#E1062F;}
	.st18{fill:#D80000;stroke:#FFFFFF;stroke-width:2;stroke-miterlimit:10;}
	.st19{fill:#D80000;}
	.st20{fill:#8ABE23;}
	.st21{fill:#1D1D1B;}
	.st22{fill:#FEFEFE;}
	.st23{fill:#FF0000;}
	.st24{fill:#FF1D1B;}
	.st25{fill:#6DB2DE;}
	.st26{fill:#FF1D25;}
	.st27{fill:#FFDA00;}
	.st28{fill:#024D9E;}
	.st29{fill:#6B97C6;}
	.st30{fill:#000078;}
	.st31{fill:none;stroke:#FFFFFF;stroke-width:6;stroke-linecap:round;stroke-miterlimit:10;}
	.st32{fill:#FFEE34;}
	.st33{fill:none;stroke:#000000;stroke-width:4;stroke-miterlimit:10;}
	.st34{fill:#D11E24;}
	.st35{fill:#D71F26;}
	.st36{fill:#020000;}
	.st37{fill:none;stroke:#000000;stroke-width:2;stroke-miterlimit:10;}
	.st38{clip-path:url(#SVGID_2_);}
	.st39{fill:#00317D;}
	.st40{fill:#00737D;}
	.st41{fill:#ED1C24;}
	.st42{fill:#2678C7;}
	.st43{fill:#1853A6;}
	.st44{fill:#CB0000;}
	.st45{fill:#E61C21;}
	.st46{clip-path:url(#SVGID_4_);}
	.st47{fill:#6BDEF1;}
	.st48{clip-path:url(#SVGID_6_);}
	.st49{fill:#0165B2;}
	.st50{fill:#DE1134;}
	.st51{fill:#00A668;}
	.st52{fill:#FFE60B;}
	.st53{fill:#843D00;stroke:#000000;stroke-miterlimit:10;}
	.st54{fill:#EC1F27;}
	.st55{fill:#162984;}
	.st56{fill:#1853A6;stroke:#1853A6;stroke-miterlimit:10;}
	.st57{fill:none;}
	.st58{fill:none;stroke:#1853A6;stroke-width:0.9;stroke-miterlimit:10;}
	.st59{fill:#1853A6;stroke:#1853A6;stroke-width:0.9;stroke-miterlimit:10;}
	.st60{fill:#B5985A;}
	.st61{fill:#FFE60B;stroke:#000000;stroke-width:6;stroke-miterlimit:10;}
	.st62{fill:#008DCD;}
	.st63{fill:#009939;}
	.st64{fill:#2E3092;}
	.st65{fill:#EE3224;}
	.st66{fill:#005BAB;}
	.st67{fill:#D30027;}
	.st68{fill:#FFFFFF;stroke:#D30027;stroke-width:10;stroke-miterlimit:10;}
	.st69{fill:#E81C2F;}
	.st70{fill:#DC032B;}
	.st71{fill:#F25448;}
	.st72{fill:#FFFFFF;stroke:#F25448;stroke-width:6;stroke-miterlimit:10;}
	.st73{fill:#05A08D;}
	.st74{fill:#1875CE;}
	.st75{fill:#D72427;}
	.st76{fill:#004993;}
	.st77{fill:#007BB0;}
	.st78{fill:#FFEB00;}
	.st79{fill:#664A9E;}
	.st80{fill:#F4C701;}
	.st81{fill:#EBBE12;}
	.st82{fill:#44B3DB;}
	.st83{fill:#F6FF82;}
	.st84{fill:#FFC918;}
	.st85{fill:#0361A4;}
	.st86{fill:#009FE3;}
	.st87{fill:#E30217;}
	.st88{fill:#FDEA00;}
	.st89{fill:#E91B00;}
	.st90{fill:#2B2763;}
	.st91{fill:#EE1A22;}
	.st92{fill:#F1AA25;}
	.st93{fill:#93000C;}
	.st94{fill:none;stroke:#1D1D1B;stroke-width:4;}
	.st95{fill:#3E4E70;}
	.st96{fill:#096CB6;}
	.st97{fill:#0559A8;}
	.st98{fill:#F9ED1A;}
	.st99{fill:#949494;}
	.st100{fill:#FFD033;}
	.st101{fill:#243D89;}
	.st102{fill:#F8C936;}
	.st103{fill:#D44128;}
	.st104{fill:#ED1B23;}
	.st105{fill:#0C529C;}
	.st106{fill:#E31E24;}
	.st107{fill:#0263B0;}
	.st108{fill:#007AC2;}
	.st109{fill:#EF3D1F;}
	.st110{fill:#EE1C24;}
	.st111{fill:#FDEA00;stroke:#000000;stroke-width:0.6509;}
	.st112{fill:#FDEA00;stroke:#000000;stroke-width:0.6979;}
	.st113{fill:#46A0BE;}
	.st114{fill:#005FA5;}
	.st115{fill:#00904C;}
	.st116{fill:#E21F26;}
	.st117{fill:#FD0001;}
	.st118{fill:#0066B3;}
	.st119{fill:#E20019;}
	.st120{fill:#0171BC;}
	.st121{fill:#01305D;}
	.st122{fill:#1B7EE9;}
	.st123{fill:#BA0D0B;}
	.st124{fill:none;stroke:#000000;stroke-width:3;stroke-miterlimit:10;}
	.st125{fill:#FFFFFF;stroke:#000000;stroke-width:0.8836;stroke-miterlimit:10;}
	.st126{fill:#FFFFFF;stroke:#000000;stroke-width:0.9759;stroke-miterlimit:10;}
	.st127{fill:#0053A1;}
	.st128{fill:#FFE100;}
	.st129{fill:#FFE500;}
	.st130{fill:none;stroke:#FFE500;stroke-width:2;stroke-miterlimit:10;}
	.st131{fill:#01AFF3;}
	.st132{fill:#ED1B28;}
	.st133{fill:#E2000A;}
</style>
<g>
	<path class="st20" d="M245,82.2c-0.1-0.4-0.3-0.8-0.5-1.3c-20.6-53.5-79-86.7-136.2-77.3C46.5,13.7,2.4,65.3,2,127.7
		c-0.2,16.8,3,32.9,9.4,48.3c34.8,83.2,141.4,104.6,205.2,40.9c25.9-25.9,37.7-56.8,36.8-91.7C254.4,109.3,248.9,92.2,245,82.2z"/>
	<path d="M248.1,89.8c-0.1,1.4-0.9,2.3-2.2,2.2c-1.4,0-2.2-1-2.1-2.4c0-1.4,0.9-2.3,2.2-2.3C247.4,87.3,247.9,88.5,248.1,89.8z"/>
	<path d="M245.4,82.2c-0.1-0.4-0.3-0.8-0.5-1.3C224.4,27.4,166-5.8,108.8,3.6C47,13.7,2.8,65.3,2.5,127.7c-0.2,16.8,3,32.9,9.4,48.3
		c34.8,83.2,141.4,104.6,205.2,40.9c25.9-25.9,37.7-56.8,36.8-91.7C254.8,109.3,249.4,92.2,245.4,82.2z M224.5,198.2
		c-0.4-3.7-0.5-6.2-0.9-8.7c-0.4-2.2-1-3.5-3.5-1.4c-10.2,8.3-22.3,11.7-35.2,12.2c-2.4,0.1-3.9,0.3-4.9,3
		c-4.7,12.5-11.6,23.6-23.3,30.8c-2.3,1.4-1.3,2.4,0.3,3.3c2.4,1.3,4.9,2.3,7.5,3.6c-16.4,8.1-53.9,8.1-72.6,0.1
		c2.7-1.3,5.2-2.4,7.6-3.6c1.9-1,2.4-2,0.1-3.5c-11.4-7.1-18.1-17.9-22.8-30.1c-1-2.6-2.1-3.5-4.9-3.6c-12.9-0.5-25-3.8-35.3-12.1
		c-2.3-1.9-3.2-1.2-3.6,1.3c-0.4,2.4-0.7,4.7-1.1,8.4c-15-21.3-22.2-43.8-22.7-69.5c2.6,2.5,4.5,4.3,6.4,6.1
		c1.3,1.3,2.2,1.4,2.8-0.8c3.5-13.4,11.8-23.6,22.5-32c1.6-1.3,1.9-2.3,1.3-4.3c-3.7-12.9-4.5-25.8,0.5-38.6
		c0.9-2.4-0.3-2.7-2.2-2.6c-2.5,0.1-4.8,0.8-7.3,1.7c4.1-13.3,41.2-40.5,57.6-42.3c-1.1,3.1-5.1,6-3.6,8.5c1.5,2.5,5.9,0.4,9.1,0.9
		c10.6,1.6,20.4,5.1,29.1,11.2c2.1,1.5,3.4,1.6,5.6,0.1c11-7.3,23-11.9,36.5-11.2c2.6,0.1,2.7-1,1.8-2.7c-1-2.2-2.3-4.3-4.1-7.5
		c24.6,8.3,43.6,22.4,59.2,42.9c-3.5-0.6-6.1-1.2-8.6-1.5c-2.1-0.2-2.8,0.6-2,2.7c4.9,12.8,4.2,25.7,0.4,38.6
		c-0.4,1.4-0.8,2.8,0.8,3.6c0.4,0.2,0.7,0.5,1.1,0.8c0,0,0,0,0,0c0.2,0.1,0.3,0.2,0.5,0.4c0.3,0.2,0.5,0.5,0.8,0.7
		c9.7,7.8,16.7,20.1,17.7,21.8c1.2,2.4,2.1,5,2.7,7.6c0.7,3.2,1.8,3.6,4.1,1.3c1.5-1.6,3.1-3.2,5.5-5.8
		C247,154.2,239.5,176.8,224.5,198.2z"/>
	<path d="M203,99.3c-19.6-21.3-42.5-38.1-69-50c-4.2-1.9-7.6-1.8-11.7,0.1C96.1,61.2,73.4,77.7,53.9,98.7c-3.6,3.9-4.4,7.8-3.9,12.7
		c3.2,28.3,12,54.7,25.8,79.5c2.5,4.5,5.9,6.8,10.9,7.7c13.3,2.3,26.6,3.9,40.2,4.1c1.8-0.1,3.7-0.2,5.5-0.3
		c12.5,0,28.7-0.9,39.8-4.4c0.7-0.1,1.3-0.3,1.8-0.7c10.9-4.9,19.4-29.3,24.8-49.9c3.9-12.3,6.2-25,7.7-37.9
		C207.1,105.4,205.8,102.3,203,99.3z"/>
	<g>
		<g>
			<g>
				<path class="st21" d="M90.4,184.9c-7.8,0-14.9-3.6-19.1-9.6c-5.7-8.2-4.7-17.4-4-22.9c0.6-5.1,2.5-9.5,4.4-13.8l0.7-1.6
					c3.7-8.8,8.5-16.9,13.2-24.7c1.4-2.4,2.8-4.7,4.2-7.1c0.5-0.9,1.1-1.8,1.6-2.8c3.4-5.9,6.7-11.5,8.6-17.5c0.7-2,1.1-5-0.3-7.3
					c-1.4-2.3-4.2-3.2-6.3-3.6c-4.8-0.8-9.7,0.4-16,4c-11.4,6.5-18.8,16.8-22.5,31.5c-2.9,11.3-8.3,17.1-15.8,17.1
					c-1.9,0-3.9-0.4-6-1.2c-3.4-1.3-5.9-4.4-7.2-8.6c-1.7-5.5-2.6-17.6,10.6-37.4c12.9-19.3,28.8-24.1,37.3-26.7
					c3.3-1,7.6-1.3,10.6-1.3c1.1,0,2.2,0,3.1,0.1c8.3,0.4,15.8,3.1,22.3,8c12.7,9.5,17.5,23,13.3,37.2c-2.6,8.6-5.9,17.2-9.8,25.4
					c-4.2,8.8-8.3,17.5-11.2,26.4c-0.3,0.9-0.6,1.8-0.9,2.7c4.7-6.3,8.7-13.1,12.4-19.6c2.9-5.1,5.7-10.4,8.5-15.5
					c1-1.9,2-3.8,3.1-5.7c2.8-5.1,7.7-7.6,13.8-7c1.6,0.2,3.2,0.5,4.7,1c-1.7-2.5-3.2-5.3-4.3-8.3c-2.8-7.5-2.2-14.9,1.7-20.5
					c3.7-5.4,10.1-8.4,17.5-8.4c0.6,0,1.2,0,1.8,0.1c13.5,0.8,24.9,7.2,33,18.3c3.6,5,5.3,10,5,15.5c-0.2,5.2-2.1,9.4-5.2,11.9
					c4,0.1,7.7-1.1,11.3-3.8l0.4-0.3l0.4-0.2c2.4-1.3,5.2-2.6,8.3-2.6c2.8,0,7.9,1.1,10.2,8.7c2.5,8.1-2.7,15.8-12.9,19.2l-0.7,0.2
					l-0.6,0c-0.1,0-0.2,0-0.3,0.1l-1,0.2c-1.6,0.3-3.5,0.7-5.5,0.7c-0.8,0-1.6-0.1-2.3-0.2c-1-0.2-2-0.3-3.1-0.4
					c-1.5-0.2-3-0.3-4.6-0.6c-3,6.9-6.6,13.6-10.9,19.8c-5.9,8.7-13.4,18.6-24.1,25.5c-5.1,3.3-10,4.9-14.8,5
					c-7.8,0-17.9-6.6-21.8-21.2c-0.1-0.4-0.2-0.9-0.3-1.3c-0.3,0.5-0.7,1.1-1,1.6c-4.4,6.5-8.8,12.8-15.6,17.4
					C100,183.5,95.3,184.9,90.4,184.9z M154.4,116.1c0,1.3-0.2,2.7-0.6,4.1c-1.9,5.5-3.1,11.4-4,16.4c-1.2,6.5-2.1,12.4-1.7,18.2
					c1.3-1.2,2.4-2.6,3.5-4.1c5.6-7.9,9.8-16.8,14.1-26.6c-3.2-1.8-6.1-3.8-8.8-6C156,117.4,155.2,116.8,154.4,116.1z"/>
			</g>
		</g>
		<g>
			<g>
				<path class="st22" d="M208.8,128.2c-0.3,0-0.7,0.1-1.1,0.2c-2.1,0.4-4.3,1-6.4,0.6c-3-0.5-6.1-0.5-9.1-1.3
					c-1.4-0.4-3.2-1-4.2,1.5c-3,7.4-6.8,14.5-11.3,21.2c-6.2,9.1-13,17.8-22.3,23.8c-3.7,2.4-7.5,4-11.6,4
					c-4.3,0-12.6-4.2-15.9-16.8c-1.2-4.1-0.5-8.2-0.4-12.3c0.2-4.6,1-9.3,1.6-13.9c-4.1,8.5-8.1,16.9-13.4,24.8
					c-3.9,5.9-8,11.7-14,15.8c-7.8,5.3-19.1,3.7-24.4-4c-4.1-5.9-3.7-12.4-3-18.8c0.6-4.7,2.7-9.3,4.6-13.7
					c4.7-11,11.1-20.9,17-31.2c4-6.9,8.3-13.7,10.7-21.4c3-9.4-1.5-16.9-11.3-18.6c-7.2-1.2-13.8,1.2-19.9,4.7
					C60.6,80.8,52.8,93.1,49,108.1c-3.4,13-9,13.6-13.7,11.7s-9-14.3,6.2-37.1C52.7,65.8,66,61.4,75.5,58.5c3-0.9,8.1-1.3,11.5-1
					c7.1,0.4,13.5,2.6,19.2,6.8c7.9,5.9,15.4,16.3,11.1,30.7c-2.5,8.5-5.7,16.6-9.5,24.6c-4.3,8.9-8.4,17.7-11.5,27.1
					c-1.3,4.1-2.7,8.2-2.5,12.5c0.2,3.6,2.5,4.7,5.4,2.8c2.3-1.5,4-3.6,5.6-5.7c5.3-6.8,9.6-14.1,13.8-21.6
					c3.9-7,7.7-14.2,11.6-21.3c1.7-3.2,4.5-4.2,8-3.9c3.2,0.3,6.1,1.5,8.5,3.8c1.4,1.3,2,2.9,1.3,4.9c-2,5.6-3.2,11.4-4.3,17.3
					c-1.3,7-2.5,14.1-1.6,21.2c0.6,5.3,3.8,6.8,8.2,3.8c2.4-1.7,4.3-4,6-6.4c6.8-9.6,11.5-20.4,16.2-31.1c0.5-1.2,0.2-1.9-0.9-2.4
					c-3.9-2.1-7.7-4.4-11.2-7.2c-6.7-5.3-12.6-11.2-15.7-19.3c-4.5-11.8,2.4-21.5,14.9-20.8c11.8,0.7,21.5,6.1,28.5,15.8
					c2.5,3.5,4.1,7.3,3.9,11.7c-0.3,7.4-4.8,10.6-11.8,8.4c-1.6-0.5-2.1-1.2-1.8-2.9c0.6-3.6,0.5-7.1-0.7-10.6
					c-1.9-5.5-5.3-9.7-10.8-11.9c-6-2.3-10.6,1.2-10,7.6c0.3,3.3,1.7,6.1,3.5,8.7c6.8,9.8,16,15.8,27.6,18.2
					c7.3,1.5,13.8,0,19.8-4.4c4.3-2.2,8.1-3.7,10,2.5C219.7,122.7,213.6,126.6,208.8,128.2z"/>
			</g>
		</g>
	</g>
</g>
</svg>
