<?xml version="1.0" encoding="utf-8"?>
<!-- Generator: Adobe Illustrator 17.0.0, SVG Export Plug-In . SVG Version: 6.00 Build 0)  -->
<!DOCTYPE svg PUBLIC "-//W3C//DTD SVG 1.1//EN" "http://www.w3.org/Graphics/SVG/1.1/DTD/svg11.dtd" [
	<!ENTITY ns_flows "http://ns.adobe.com/Flows/1.0/">
	<!ENTITY ns_extend "http://ns.adobe.com/Extensibility/1.0/">
	<!ENTITY ns_ai "http://ns.adobe.com/AdobeIllustrator/10.0/">
	<!ENTITY ns_graphs "http://ns.adobe.com/Graphs/1.0/">
]>
<svg version="1.1" id="Layer_2" xmlns:x="&ns_extend;" xmlns:i="&ns_ai;" xmlns:graph="&ns_graphs;"
	 xmlns="http://www.w3.org/2000/svg" xmlns:xlink="http://www.w3.org/1999/xlink" xmlns:a="http://ns.adobe.com/AdobeSVGViewerExtensions/3.0/"
	 x="0px" y="0px" width="256px" height="256px" viewBox="0 0 256 256" style="enable-background:new 0 0 256 256;"
	 xml:space="preserve">
<style type="text/css">
	.st0{fill:#FFFFFF;}
	.st1{fill:#54B948;}
	.st2{fill:#1D8C8E;}
	.st3{fill:#14DEAC;}
	.st4{fill:#1466AC;}
	.st5{fill:#757575;}
	.st6{fill:#B69442;}
	.st7{fill:#1A234D;}
	.st8{fill:#AA0629;}
	.st9{fill:#FF4A49;}
	.st10{fill:#3C6643;}
	.st11{fill:none;stroke:#FF4A49;stroke-miterlimit:10;}
	.st12{fill:#E70084;}
	.st13{fill:#508A72;}
	.st14{fill:#01A663;}
	.st15{fill:#015297;}
	.st16{fill:#B0B0B0;}
	.st17{fill:#E1062F;}
	.st18{fill:#D80000;stroke:#FFFFFF;stroke-width:2;stroke-miterlimit:10;}
	.st19{fill:#D80000;}
	.st20{fill:#8ABE23;}
	.st21{fill:#1D1D1B;}
	.st22{fill:#FEFEFE;}
	.st23{fill:#FF0000;}
	.st24{fill:#FF1D1B;}
	.st25{fill:#6DB2DE;}
	.st26{fill:#FF1D25;}
	.st27{fill:#FFDA00;}
	.st28{fill:#024D9E;}
	.st29{fill:#6B97C6;}
	.st30{fill:#000078;}
	.st31{fill:none;stroke:#FFFFFF;stroke-width:6;stroke-linecap:round;stroke-miterlimit:10;}
	.st32{fill:#FFEE34;}
	.st33{fill:none;stroke:#000000;stroke-width:4;stroke-miterlimit:10;}
	.st34{fill:#D11E24;}
	.st35{fill:#D71F26;}
	.st36{fill:#020000;}
	.st37{fill:none;stroke:#000000;stroke-width:2;stroke-miterlimit:10;}
	.st38{clip-path:url(#SVGID_2_);}
	.st39{fill:#00317D;}
	.st40{fill:#00737D;}
	.st41{fill:#ED1C24;}
	.st42{fill:#2678C7;}
	.st43{fill:#1853A6;}
	.st44{fill:#CB0000;}
	.st45{fill:#E61C21;}
	.st46{clip-path:url(#SVGID_4_);}
	.st47{fill:#6BDEF1;}
	.st48{clip-path:url(#SVGID_6_);}
	.st49{fill:#0165B2;}
	.st50{fill:#DE1134;}
	.st51{fill:#00A668;}
	.st52{fill:#FFE60B;}
	.st53{fill:#843D00;stroke:#000000;stroke-miterlimit:10;}
	.st54{fill:#EC1F27;}
	.st55{fill:#162984;}
	.st56{fill:#1853A6;stroke:#1853A6;stroke-miterlimit:10;}
	.st57{fill:none;}
	.st58{fill:none;stroke:#1853A6;stroke-width:0.9;stroke-miterlimit:10;}
	.st59{fill:#1853A6;stroke:#1853A6;stroke-width:0.9;stroke-miterlimit:10;}
	.st60{fill:#B5985A;}
	.st61{fill:#FFE60B;stroke:#000000;stroke-width:6;stroke-miterlimit:10;}
	.st62{fill:#008DCD;}
	.st63{fill:#009939;}
	.st64{fill:#2E3092;}
	.st65{fill:#EE3224;}
	.st66{fill:#005BAB;}
	.st67{fill:#D30027;}
	.st68{fill:#FFFFFF;stroke:#D30027;stroke-width:10;stroke-miterlimit:10;}
	.st69{fill:#E81C2F;}
	.st70{fill:#DC032B;}
	.st71{fill:#F25448;}
	.st72{fill:#FFFFFF;stroke:#F25448;stroke-width:6;stroke-miterlimit:10;}
	.st73{fill:#05A08D;}
	.st74{fill:#1875CE;}
	.st75{fill:#D72427;}
	.st76{fill:#004993;}
	.st77{fill:#007BB0;}
	.st78{fill:#FFEB00;}
	.st79{fill:#664A9E;}
	.st80{fill:#F4C701;}
	.st81{fill:#EBBE12;}
	.st82{fill:#44B3DB;}
	.st83{fill:#F6FF82;}
	.st84{fill:#FFC918;}
	.st85{fill:#0361A4;}
	.st86{fill:#009FE3;}
	.st87{fill:#E30217;}
	.st88{fill:#FDEA00;}
	.st89{fill:#E91B00;}
	.st90{fill:#2B2763;}
	.st91{fill:#EE1A22;}
	.st92{fill:#F1AA25;}
	.st93{fill:#93000C;}
	.st94{fill:none;stroke:#1D1D1B;stroke-width:4;}
	.st95{fill:#3E4E70;}
	.st96{fill:#096CB6;}
	.st97{fill:#0559A8;}
	.st98{fill:#F9ED1A;}
	.st99{fill:#949494;}
	.st100{fill:#FFD033;}
	.st101{fill:#243D89;}
	.st102{fill:#F8C936;}
	.st103{fill:#D44128;}
	.st104{fill:#ED1B23;}
	.st105{fill:#0C529C;}
	.st106{fill:#E31E24;}
	.st107{fill:#0263B0;}
	.st108{fill:#007AC2;}
	.st109{fill:#EF3D1F;}
	.st110{fill:#EE1C24;}
	.st111{fill:#FDEA00;stroke:#000000;stroke-width:0.6509;}
	.st112{fill:#FDEA00;stroke:#000000;stroke-width:0.6979;}
	.st113{fill:#46A0BE;}
	.st114{fill:#005FA5;}
	.st115{fill:#00904C;}
	.st116{fill:#E21F26;}
	.st117{fill:#FD0001;}
	.st118{fill:#0066B3;}
	.st119{fill:#E20019;}
	.st120{fill:#0171BC;}
	.st121{fill:#01305D;}
	.st122{fill:#1B7EE9;}
	.st123{fill:#BA0D0B;}
	.st124{fill:none;stroke:#000000;stroke-width:3;stroke-miterlimit:10;}
	.st125{fill:#FFFFFF;stroke:#000000;stroke-width:0.8836;stroke-miterlimit:10;}
	.st126{fill:#FFFFFF;stroke:#000000;stroke-width:0.9759;stroke-miterlimit:10;}
	.st127{fill:#0053A1;}
	.st128{fill:#FFE100;}
	.st129{fill:#FFE500;}
	.st130{fill:none;stroke:#FFE500;stroke-width:2;stroke-miterlimit:10;}
	.st131{fill:#01AFF3;}
	.st132{fill:#ED1B28;}
	.st133{fill:#E2000A;}
</style>
<g>
	<g>
		<g>
			<path class="st89" d="M128,2C58.4,2,2,58.4,2,128s56.4,126,126,126s126-56.4,126-126S197.6,2,128,2L128,2z"/>
		</g>
	</g>
	<g>
		<path class="st0" d="M21.4,74.2h16.7v6h-9.4v5.5h8.8v5.9h-8.8v10.9h-7.3V74.2z"/>
		<path class="st0" d="M61.9,102c-1,0.5-3.3,1-6.3,1c-9.9,0-14.1-6.6-14.1-14.1c0-10.2,7-15.1,14.7-15.1c2.9,0,5.2,0.5,6.2,1.1
			L61,80.7c-1.1-0.5-2.5-0.9-4.4-0.9c-4,0-7.4,2.6-7.4,8.6c0,5.4,2.9,8.4,7.5,8.4c1.5,0,3.3-0.3,4.3-0.7L61.9,102z"/>
		<path class="st0" d="M73.7,95.4c1.6,0.8,4.1,1.6,6.6,1.6c2.6,0,3.8-1,3.8-2.4c0-1.5-1.2-2.3-4.3-3.5c-4.7-2-7.2-4.8-7.2-8.4
			c0-4.9,3.9-8.9,10.9-8.9c3,0,5.2,0.6,6.8,1.3l-1.4,5.9c-1.1-0.5-3-1.2-5.4-1.2c-2.3,0-3.5,0.9-3.5,2.2c0,1.4,1.2,2,4.7,3.5
			c4.8,1.9,6.8,4.8,6.8,8.4c0,5-3.9,9-11.5,9c-3.2,0-6.2-0.8-7.6-1.5L73.7,95.4z"/>
		<path class="st0" d="M99.9,80.5h-6.5v-6.3h20.5v6.3h-6.7v22.2h-7.3V80.5z"/>
		<path class="st0" d="M117.2,103c-2.3,0-4.1-1.8-4.1-4.3c0-2.6,1.8-4.4,4.2-4.4c2.4,0,4.1,1.7,4.1,4.4
			C121.5,101.3,119.8,103,117.2,103L117.2,103z"/>
		<path class="st0" d="M133.1,74.6c1.9-0.3,4.7-0.6,8.4-0.6c3.9,0,6.8,0.6,8.8,2.2c1.9,1.5,3,4,3,6.7c0,3-1,5.5-2.7,7.1
			c-2.2,1.9-5.4,2.8-8.7,2.8c-0.6,0-1.2,0-1.6-0.1v9.8h-7.2V74.6z M140.3,87.1c0.4,0.1,0.8,0.1,1.4,0.1c2.9,0,4.4-1.6,4.4-4
			c0-2.2-1.3-3.7-3.9-3.7c-0.9,0-1.6,0.1-1.9,0.2V87.1z"/>
		<path class="st0" d="M161.7,96.3l-1.4,6.3h-7.4l7.6-28.4h9.4l7.5,28.4h-7.6l-1.6-6.3H161.7z M167.4,90.9l-1.1-5.2
			c-0.4-1.6-0.8-4.2-1.2-5.9h-0.1c-0.4,1.7-0.8,4.3-1.2,5.9l-1.1,5.2H167.4z"/>
		<path class="st0" d="M186.8,74.2v16.8c0,4.1,1.3,6.2,3.8,6.2c2.5,0,3.8-1.8,3.8-6.2V74.2h7.3v16.1c0,8.4-3.8,12.8-11.3,12.8
			c-7.5,0-11-4.4-11-12.9V74.2H186.8z"/>
		<path class="st0" d="M206.7,74.2h7.3v22.3h9.7v6.1h-17V74.2z"/>
		<path class="st0" d="M234.6,74.2v28.4h-7.3V74.2H234.6z"/>
	</g>
	<g>
		<path class="st0" d="M102.1,61.9V35.4c-0.4,0.5-1,0.9-1.8,1.2S98.7,37,98,37v-3.7c1.1-0.1,2.1-0.6,3-1.3c0.9-0.7,1.7-1.6,2.2-2.8
			h3.9v32.7H102.1z"/>
		<path class="st0" d="M123.4,60c-1.1,1.6-2.8,2.3-5.1,2.3c-2.3,0-4-0.6-5.1-1.9s-1.6-3.4-1.6-6.3v-1.8h4.7V53c0,2,0.2,3.4,0.4,4
			c0.3,0.7,0.8,1,1.5,1s1.2-0.2,1.4-0.5c0.2-0.3,0.3-0.6,0.4-0.9c0.1-0.3,0.2-1.3,0.2-2.9v-4.9c-0.7,0.5-1.7,0.7-3,0.7
			c-2.2,0-3.8-0.8-4.7-2.4c-0.9-1.6-1.4-4-1.4-7.3v-1.2c0-4.1,0.7-6.8,2.1-8.2c1.1-1.1,2.8-1.7,4.9-1.7s3.7,0.4,4.7,1.2
			c1,0.8,1.6,1.9,1.9,3.4s0.5,3.3,0.5,5.6v13C125.1,55.8,124.5,58.4,123.4,60z M118,45.5c1.2,0,1.9-0.5,2.1-1.6v-6.2
			c0-1.6-0.1-2.8-0.4-3.5c-0.3-0.7-0.8-1.1-1.7-1.1c-0.8,0-1.4,0.4-1.7,1.1s-0.4,1.9-0.4,3.5v2.9c0,1.8,0.1,3.1,0.4,3.8
			S117.2,45.5,118,45.5z"/>
		<path class="st0" d="M132.2,61.9V35.4c-0.4,0.5-1,0.9-1.8,1.2c-0.8,0.3-1.5,0.4-2.3,0.4v-3.7c1.1-0.1,2.1-0.6,3-1.3
			c0.9-0.7,1.7-1.6,2.2-2.8h3.9v32.7H132.2z"/>
		<path class="st0" d="M154.9,60c-1.2,1.6-3,2.3-5.6,2.3s-4.5-0.8-5.6-2.3c-1.2-1.6-1.8-3.8-1.8-6.9V37.5c0-2.9,0.6-5,1.8-6.5
			c1.2-1.4,3.1-2.2,5.6-2.2s4.4,0.7,5.6,2.2c1.2,1.4,1.8,3.6,1.8,6.5v15.6C156.7,56.1,156.1,58.4,154.9,60z M149.2,58
			c0.8,0,1.4-0.3,1.8-0.9c0.4-0.6,0.6-1.9,0.6-3.9V37.3c0-2.4-0.6-3.8-1.7-4.1c-0.2,0-0.6-0.1-1.1-0.1c-0.5,0-1,0.2-1.4,0.7
			c-0.5,0.5-0.7,1.6-0.7,3.4v15.9c0,2,0.2,3.3,0.6,3.9C147.9,57.7,148.5,58,149.2,58z"/>
	</g>
	<g>
		<rect x="82" y="144" class="st0" width="28" height="6"/>
		<rect x="82" y="202" class="st0" width="25" height="6"/>
		<rect x="149" y="202" class="st0" width="24" height="6"/>
		<rect x="82" y="175" class="st0" width="92" height="5"/>
		<rect x="114" y="144" class="st0" width="28" height="6"/>
		<rect x="146" y="144" class="st0" width="28" height="6"/>
		<path class="st0" d="M85,230v-19h20v26.9c0,0-15-2.3-19.8-7.1"/>
		<path class="st0" d="M85,199v-17h33.2c0,0-12.1,5.7-12.1,17H85z"/>
		<path class="st0" d="M171,230v-19h-21v26.9c0,0,15.5-2.3,20.3-7.1"/>
		<path class="st0" d="M171,199.2V182h-33.9c0,0,12.3,3.4,12.3,16.9L171,199.2z"/>
		<rect x="85" y="152" class="st0" width="22" height="20"/>
		<rect x="116" y="152" class="st0" width="21" height="20"/>
		<rect x="149" y="152" class="st0" width="22" height="20"/>
		<path class="st0" d="M110.5,239.3c0,0-0.1-25.9-0.1-39c0-13.1,14.9-15.3,17.6-15.3s17,3,17,15.3s0,39,0,39s-8.5,2.6-17.3,2.6
			C120.1,241.9,110.5,239.3,110.5,239.3z"/>
		<path class="st0" d="M117.4,141c0,0,3.1-8.7,10.4-8.7c7.3,0,10.2,8.7,10.2,8.7H117.4z"/>
		<rect x="124" y="114" class="st0" width="7" height="27"/>
		<rect x="119" y="119" class="st0" width="17" height="7"/>
		<polygon class="st0" points="164.2,121.1 172.3,121.4 168.4,128.6 172.3,135.7 164.2,136 159.9,142.9 155.6,136 147.5,135.7 
			151.3,128.6 147.5,121.4 155.6,121.1 159.9,114.2 		"/>
		<polygon class="st0" points="99.5,121.1 107.6,121.4 103.8,128.6 107.6,135.7 99.5,136 95.2,142.9 90.9,136 82.8,135.7 
			86.7,128.6 82.8,121.4 90.9,121.1 95.2,114.2 		"/>
	</g>
</g>
</svg>
