<?xml version="1.0" encoding="utf-8"?>
<!-- Generator: Adobe Illustrator 17.0.0, SVG Export Plug-In . SVG Version: 6.00 Build 0)  -->
<!DOCTYPE svg PUBLIC "-//W3C//DTD SVG 1.1//EN" "http://www.w3.org/Graphics/SVG/1.1/DTD/svg11.dtd" [
	<!ENTITY ns_flows "http://ns.adobe.com/Flows/1.0/">
	<!ENTITY ns_extend "http://ns.adobe.com/Extensibility/1.0/">
	<!ENTITY ns_ai "http://ns.adobe.com/AdobeIllustrator/10.0/">
	<!ENTITY ns_graphs "http://ns.adobe.com/Graphs/1.0/">
]>
<svg version="1.1" id="Layer_2" xmlns:x="&ns_extend;" xmlns:i="&ns_ai;" xmlns:graph="&ns_graphs;"
	 xmlns="http://www.w3.org/2000/svg" xmlns:xlink="http://www.w3.org/1999/xlink" xmlns:a="http://ns.adobe.com/AdobeSVGViewerExtensions/3.0/"
	 x="0px" y="0px" width="256px" height="256px" viewBox="0 0 256 256" style="enable-background:new 0 0 256 256;"
	 xml:space="preserve">
<style type="text/css">
	.st0{fill:#FFFFFF;}
	.st1{fill:#54B948;}
	.st2{fill:#1D8C8E;}
	.st3{fill:#14DEAC;}
	.st4{fill:#1466AC;}
	.st5{fill:#757575;}
	.st6{fill:#B69442;}
	.st7{fill:#1A234D;}
	.st8{fill:#AA0629;}
	.st9{fill:#FF4A49;}
	.st10{fill:#3C6643;}
	.st11{fill:none;stroke:#FF4A49;stroke-miterlimit:10;}
	.st12{fill:#E70084;}
	.st13{fill:#508A72;}
	.st14{fill:#01A663;}
	.st15{fill:#015297;}
	.st16{fill:#B0B0B0;}
	.st17{fill:#E1062F;}
	.st18{fill:#D80000;stroke:#FFFFFF;stroke-width:2;stroke-miterlimit:10;}
	.st19{fill:#D80000;}
	.st20{fill:#8ABE23;}
	.st21{fill:#1D1D1B;}
	.st22{fill:#FEFEFE;}
	.st23{fill:#FF0000;}
	.st24{fill:#FF1D1B;}
	.st25{fill:#6DB2DE;}
	.st26{fill:#FF1D25;}
	.st27{fill:#FFDA00;}
	.st28{fill:#024D9E;}
	.st29{fill:#6B97C6;}
	.st30{fill:#000078;}
	.st31{fill:none;stroke:#FFFFFF;stroke-width:6;stroke-linecap:round;stroke-miterlimit:10;}
	.st32{fill:#FFEE34;}
	.st33{fill:none;stroke:#000000;stroke-width:4;stroke-miterlimit:10;}
	.st34{fill:#D11E24;}
	.st35{fill:#D71F26;}
	.st36{fill:#020000;}
	.st37{fill:none;stroke:#000000;stroke-width:2;stroke-miterlimit:10;}
	.st38{clip-path:url(#SVGID_2_);}
	.st39{fill:#00317D;}
	.st40{fill:#00737D;}
	.st41{fill:#ED1C24;}
	.st42{fill:#2678C7;}
	.st43{fill:#1853A6;}
	.st44{fill:#CB0000;}
	.st45{fill:#E61C21;}
	.st46{clip-path:url(#SVGID_4_);}
	.st47{fill:#6BDEF1;}
	.st48{clip-path:url(#SVGID_6_);}
	.st49{fill:#0165B2;}
	.st50{fill:#DE1134;}
	.st51{fill:#00A668;}
	.st52{fill:#FFE60B;}
	.st53{fill:#843D00;stroke:#000000;stroke-miterlimit:10;}
	.st54{fill:#EC1F27;}
	.st55{fill:#162984;}
	.st56{fill:#1853A6;stroke:#1853A6;stroke-miterlimit:10;}
	.st57{fill:none;}
	.st58{fill:none;stroke:#1853A6;stroke-width:0.9;stroke-miterlimit:10;}
	.st59{fill:#1853A6;stroke:#1853A6;stroke-width:0.9;stroke-miterlimit:10;}
	.st60{fill:#B5985A;}
	.st61{fill:#FFE60B;stroke:#000000;stroke-width:6;stroke-miterlimit:10;}
	.st62{fill:#008DCD;}
	.st63{fill:#009939;}
	.st64{fill:#2E3092;}
	.st65{fill:#EE3224;}
	.st66{fill:#005BAB;}
	.st67{fill:#D30027;}
	.st68{fill:#FFFFFF;stroke:#D30027;stroke-width:10;stroke-miterlimit:10;}
	.st69{fill:#E81C2F;}
	.st70{fill:#DC032B;}
	.st71{fill:#F25448;}
	.st72{fill:#FFFFFF;stroke:#F25448;stroke-width:6;stroke-miterlimit:10;}
	.st73{fill:#05A08D;}
	.st74{fill:#1875CE;}
	.st75{fill:#D72427;}
	.st76{fill:#004993;}
	.st77{fill:#007BB0;}
	.st78{fill:#FFEB00;}
	.st79{fill:#664A9E;}
	.st80{fill:#F4C701;}
	.st81{fill:#EBBE12;}
	.st82{fill:#44B3DB;}
	.st83{fill:#F6FF82;}
	.st84{fill:#FFC918;}
	.st85{fill:#0361A4;}
	.st86{fill:#009FE3;}
	.st87{fill:#E30217;}
	.st88{fill:#FDEA00;}
	.st89{fill:#E91B00;}
	.st90{fill:#2B2763;}
	.st91{fill:#EE1A22;}
	.st92{fill:#F1AA25;}
	.st93{fill:#93000C;}
	.st94{fill:none;stroke:#1D1D1B;stroke-width:4;}
	.st95{fill:#3E4E70;}
	.st96{fill:#096CB6;}
	.st97{fill:#0559A8;}
	.st98{fill:#F9ED1A;}
	.st99{fill:#949494;}
	.st100{fill:#FFD033;}
	.st101{fill:#243D89;}
	.st102{fill:#F8C936;}
	.st103{fill:#D44128;}
	.st104{fill:#ED1B23;}
	.st105{fill:#0C529C;}
	.st106{fill:#E31E24;}
	.st107{fill:#0263B0;}
	.st108{fill:#007AC2;}
	.st109{fill:#EF3D1F;}
	.st110{fill:#EE1C24;}
	.st111{fill:#FDEA00;stroke:#000000;stroke-width:0.6509;}
	.st112{fill:#FDEA00;stroke:#000000;stroke-width:0.6979;}
	.st113{fill:#46A0BE;}
	.st114{fill:#005FA5;}
	.st115{fill:#00904C;}
	.st116{fill:#E21F26;}
	.st117{fill:#FD0001;}
	.st118{fill:#0066B3;}
	.st119{fill:#E20019;}
	.st120{fill:#0171BC;}
	.st121{fill:#01305D;}
	.st122{fill:#1B7EE9;}
	.st123{fill:#BA0D0B;}
	.st124{fill:none;stroke:#000000;stroke-width:3;stroke-miterlimit:10;}
	.st125{fill:#FFFFFF;stroke:#000000;stroke-width:0.8836;stroke-miterlimit:10;}
	.st126{fill:#FFFFFF;stroke:#000000;stroke-width:0.9759;stroke-miterlimit:10;}
	.st127{fill:#0053A1;}
	.st128{fill:#FFE100;}
	.st129{fill:#FFE500;}
	.st130{fill:none;stroke:#FFE500;stroke-width:2;stroke-miterlimit:10;}
	.st131{fill:#01AFF3;}
	.st132{fill:#ED1B28;}
	.st133{fill:#E2000A;}
</style>
<g>
	<g>
		<polygon class="st51" points="119.9,132.5 126,129.5 126,113 126,129.5 250,68.2 250,67.5 128,6.5 6,67.5 6,188.5 126,248.8 
			126,129.5 		"/>
		<polygon class="st0" points="126,129.5 126,248.8 127.8,249.5 250,188.5 250,68.2 		"/>
	</g>
	<g>
		<g>
			<path class="st0" d="M45.8,175.2L45.8,175.2l-4.9,0.3l1.6-5.4l7-0.3l4.5,2.2l-12.1,24.7l-5.2-2.6L45.8,175.2z"/>
			<path class="st0" d="M51.3,195.4c0.7,0.4,1.1,0.6,2,1c1.2,0.5,2.6,0.7,3.9,0.5c1.6-0.3,3.1-1.4,4.2-2.7l0-0.1
				c-1.2,0.5-2.5,0.4-4.1-0.3c-3.1-1.5-4.6-5.7-2.2-10.6c2.3-4.7,7.4-7.4,11.8-5.2c5.1,2.5,5.1,8.5,2.3,14.2
				c-2.6,5.3-5.9,8.4-9.3,9.8c-2.9,1.1-6,1-9.1-0.4c-0.7-0.3-1.4-0.7-2-1L51.3,195.4z M64.4,182.5c-1.1-0.6-2.7,0.5-3.8,2.8
				c-0.9,1.8-1.1,3.9,0.4,4.6c0.9,0.5,1.8,0.2,2.3-0.2c0.4-0.3,0.6-0.8,1.2-1.9C65.5,185.7,66,183.3,64.4,182.5L64.4,182.5z"/>
			<path class="st0" d="M78.9,191.5L78.9,191.5l-4.9,0.3l1.6-5.4l7-0.3l4.5,2.2l-12.1,24.7l-5.2-2.6L78.9,191.5z"/>
			<path class="st0" d="M84.5,211.7c0.7,0.4,1.1,0.6,2,1c1.2,0.5,2.6,0.7,3.9,0.5c1.6-0.3,3.1-1.4,4.2-2.7l0-0.1
				c-1.2,0.5-2.5,0.4-4.1-0.3c-3.1-1.5-4.6-5.7-2.2-10.6c2.3-4.7,7.4-7.4,11.8-5.2c5.1,2.5,5.1,8.5,2.3,14.2
				c-2.6,5.3-5.9,8.4-9.3,9.8c-2.9,1.1-6,1-9.1-0.4c-0.7-0.3-1.4-0.7-2-1L84.5,211.7z M97.6,198.8c-1.1-0.6-2.7,0.5-3.8,2.8
				c-0.9,1.8-1.1,3.9,0.4,4.6c0.9,0.5,1.8,0.2,2.3-0.2c0.4-0.3,0.6-0.8,1.2-1.9C98.7,202,99.2,199.6,97.6,198.8L97.6,198.8z"/>
		</g>
	</g>
	<path d="M128,10.9l118,59v116.1l-118,59l-118-59V69.9L128,10.9 M128,2L2,65v126l126,63l126-63V65L128,2L128,2z"/>
	<g>
		<path d="M128.2,206.8l5.4-2.6l9.9,20.1l7.2-3.5l2.7,5.5l-12.5,6.2L128.2,206.8z"/>
		<path d="M147.9,197.1l7.4,15.1c1.8,3.7,3.7,5.1,5.5,4.2c1.8-0.9,2-3,0.1-6.9l-7.4-15.1l5.4-2.7l7.1,14.5
			c3.7,7.5,2.8,12.9-2.6,15.6c-5.5,2.7-10,0-13.8-7.7l-7-14.4L147.9,197.1z M146.9,195.9c-1.3,0.6-2.9-0.2-3.7-1.7
			c-0.8-1.6-0.4-3.3,0.9-4c1.2-0.6,2.8,0.1,3.6,1.7C148.5,193.5,148.1,195.3,146.9,195.9L146.9,195.9z M153.4,192.7
			c-1.3,0.6-2.9-0.2-3.7-1.7c-0.8-1.6-0.4-3.3,0.9-3.9c1.3-0.6,2.9,0.1,3.6,1.7C155.1,190.3,154.7,192.1,153.4,192.7L153.4,192.7z"
			/>
		<path d="M162.7,190.3c1.1-0.9,3.5-2.4,5.9-3.6c2.7-1.3,4.7-2,6.9-1.6c2,0.2,3.9,1.6,5,3.9c1.1,2.2,1.2,4.7-0.6,7l0.1,0.1
			c2.9-0.4,5.5,1.3,6.9,4.2c1.1,2.3,1.2,4.5,0.5,6.4c-0.7,2.3-2.8,4.4-7.1,6.5c-2.2,1.1-4,1.7-5.2,2.1L162.7,190.3z M172.8,197.3
			l1-0.5c2-1,2.5-2.7,1.7-4.4c-0.8-1.6-2.1-2.2-3.8-1.4c-0.8,0.4-1.2,0.6-1.5,0.9L172.8,197.3z M178.1,208.2
			c0.4-0.1,0.8-0.3,1.4-0.6c1.7-0.8,2.7-2.5,1.6-4.7c-1.1-2.2-3-2.4-4.9-1.5l-1.2,0.6L178.1,208.2z"/>
		<path d="M200.5,190.1l-6.6,3.3l2.5,5l7.4-3.6l2.7,5.4l-12.8,6.3L181,180.9l12.4-6.1l2.7,5.4l-7,3.4l2.1,4.3l6.6-3.3L200.5,190.1z"
			/>
		<path d="M223.2,191.2c-0.5,0.8-2,2.1-4.2,3.2c-7.3,3.6-13.3-0.9-16.6-7.6c-4.5-9.2-1.5-16.1,4.2-18.9c2.1-1.1,4.1-1.4,5-1.2
			l1.6,5.7c-1,0-2.3,0.1-3.7,0.8c-3,1.5-4.3,5-1.7,10.4c2.4,4.9,5.8,6.6,9.3,4.9c1.1-0.5,2.3-1.5,2.9-2.2L223.2,191.2z"/>
		<path d="M213.7,164.8l5.3-2.6l5.4,11l0.1,0c-0.1-1.2-0.2-2.4-0.3-3.6l-0.4-9.7l6.4-3.1l-0.6,14l13.4,11.5l-6.2,3l-8.8-8.3
			l-0.2,3.1l3.8,7.8l-5.3,2.6L213.7,164.8z"/>
	</g>
	<g>
		<path d="M98.2,141c-7.7,1-14-1.3-19.4-5.5c-5.6-4.5-10.3-9.5-9.6-16.2c0.9-8.3-2.8-17.8,8.3-23.9c1.5-0.8,1.3-1.7-0.7-2.1
			c-1-0.2-2-0.6-3-0.5c-3,0.3-3-1.1-3-2.9c0.1-6-0.5-12,0.4-17.9c1.1-7.7-3.2-12.8-9.6-17.7c-3.7-2.9-8.4-4.8-11.3-8.4
			c-1.3,0.5-1.5,1.5-2.1,2.3c-4.3,6.5-9,12.7-16.2,17.5c-3,2-5.5,4.5-6.7,7.6c-0.5,1.3-0.6,2.7,0,4c0.3,0.5,0.6,0.9,1.4,1
			c0.9,0,0.9-0.5,1.1-1c2.3-6,9.2-8.6,16.4-6.2c1.3,0.4,2.8,0.9,3,2.5c-5.8-0.8-7.2-0.5-8.6,1.2c-0.7,0.8-1.1,1.9-0.3,2.6
			c1.3,1.2,3,1.1,4.7,0.7c0.1-1.5-2.7-0.8-1.9-2c0.7-1.2,2.3-0.4,3.5-0.2c1.5,0.2,1.9,1.1,2.4,2.2c2,4.8,1.3,9.7,2,14.6
			c0.4,2.6-0.9,3.5-4,3.7c-4.3,0.3-8.2,1.5-11.2,4.4c3.3-1,5.5,1.8,9.1,1c5.9-1.3,6.7-0.5,6.6,4.5c0,8.8,0,17.6-0.4,26.4
			c-0.2,3.8,0.7,6.1,5.2,8.6c10.3,5.8,17.1,14.1,21.5,23.7c0.5,1,0.6,2.7,1.9,2.8c1.7,0.1,2.1-1.6,2.8-2.7c0.2-0.4,0.4-0.8,0.6-1.2
			c4.3-8.4,9.6-16.3,18.9-21.9c0.2-0.1,0.2-0.5,0.3-0.8C99.7,140.6,98.9,140.9,98.2,141z"/>
		<path d="M76,56.6c7.5,0.2,10.6,4.6,13.3,9.3c4.8,8.5,2.8,17.3,0.8,25.9c-2.6,11.2-7.5,22-11.3,33c-0.6,1.8-1.3,3.6-1,5.6
			c2.2-0.5,3.4-1.7,4.2-3.1c1.2-2.1,2.3-4.2,3.5-6.3c10.7-18.1,21.6-36.2,29-55.5c0.3-0.8,0.9-1.4,0.6-2.4
			c-3.8-10-10.3-18.9-17.6-27.4c-0.4-0.4-0.8-0.9-1.5-0.7c-0.6,0.1-0.6,0.6-0.6,1c-0.2,3.6-2.8,6.3-5.5,8.8c-4.1,3.7-7.7,8-13.8,9.9
			c-0.5,0.2-1.1,0.7-1.2,1.1C74.5,56.4,75.3,56.6,76,56.6z"/>
		<path d="M206,120.7c-3.6-2.7-4.8-6.7-6.4-10.5c-1.6-3.9-4.1-7.1-7.9-9.4c-4.8-2.9-10.1-5.1-15.2-7.5c0.2-0.3,0.3-0.6,0.4-0.7
			c0.8-0.6,1.7-1.2,2.6-1.7c8.7-4.9,14.5-12,18.7-20.5c1.2-2.5,1.9-5.7,5.6-5.3c-9.4-8.1-13.2-18.7-15.3-30c-0.8-0.1-1,0.3-1.3,0.7
			c-5.6,9.2-13.5,16.2-22.1,22.9c-2.1,1.7-3.2,2-3.5-1.2c-0.5-5.5-2.5-10.4-6.1-14.9c-2.5-3.2-6.7-4.4-9.3-7.4
			c-0.7-0.8-1.2-0.3-1.6,0.4c-3.3,6.2-9,10.3-14.7,14.5c-0.9,0.7-1.9,1.4-1.7,2.9c2.4-0.7,4.8-1,7.2-0.4c5.2,1.4,8.3,5.5,8.6,11.3
			c0.4,8.4-0.8,16.7-0.8,25.1c0,2.8-0.1,5.5-0.3,8.3c0,0.6-0.3,1.1-0.9,1.5c-6.4,0.5-15,0.3-20,0.2c0.1-4,3.8-8.8,6.5-10.5
			c6.8-4.3,8.8-0.5,8.5-1.2c-2-4.9-3.6-7.7-6.1-13c-7.5,4.6-13.2,8.9-20.1,13c-2.9,1.7-3.8,3.7-3.8,7c0.2,9.8,0.1,19.5,0.1,29.6
			c0,0,0.4,32.7,0.3,47.8c0,4.4,1.9,9.5-4.8,12c3.9,3.5,7.3,6.6,10.9,9.8c4.7-3.3,8.9-6.2,13.4-9.4c-2.4-2.5-4.5-4.7-6-6.2
			c0.5-3.2,1.3-5.6,1.3-8c-0.2-17.4-0.6-34.9-1-52.3c-0.1-3.6,0-4.4,0-6.6c0,0,8.5,0.1,14.6-2.9c2.5-1.2,4.6-3.1,6.2-4.8
			c0,0,0,0,0.1-0.1c0.8-0.8,0.6,0.7,0.7,1.6c0.5,10.2,0.2,22.8,0.1,33.1c0,2.7,0,5.5-1,8.2c-0.8,2.2-2.1,3.6-4.8,3.6
			c-2.1,0-4.3,0.1-6.2,0.9c-2,0.8-3,2.4-3,4.5c0,1.7,0.8,3.1,2.6,3.6c1.9,0.5,3.3-0.5,4.7-2.1c-1.6-0.5-3.4,0.7-3.7-1.2
			c-0.3-1.8,1.3-2.1,2.7-2.4c2.7-0.5,5.4-0.2,8,0.5c7.9,2.1,13.5,6.9,17.8,13.2c0.7,1,1,2.6,2.4,2.6c1.6,0,1.2-1.9,1.9-2.8
			c0.7-1,1.1-2.2,1.9-3.2c6.5-8.3,13.6-16.1,22.7-22c5.9-3.9,10.6-8.7,13.1-15.1c0.6-1.6,1.6-2.9,3.6-3.2
			C206.9,122.6,207.3,121.7,206,120.7z M161.5,93.5c0.1-8.2,0-16.5,0.4-24.7c0.2-3.9,3.8-6.1,6.8-8.4c0.9-0.7,1.8-0.2,2.6,0.3
			c3.1,2.1,6,4.3,7.1,7.9c2.4,8,1.1,15.5-4.5,22.1c-0.9,1-2.1,2.4-3.4,1.8c-1.5-0.7-0.6-2.6,0-3.5c1.9-2.6,0.7-5.6,0.5-7.9
			c-0.5-5.5-0.9-10.9-1.3-16.4c0-0.5,0-1.1-1.4-1.6c0,2.1,0.1,4,0,5.8c-0.2,3.9-0.4,7.7-2.6,11.2c-1.1,1.8-1,3.7,0.2,5.6
			c1.5,2.5,1.2,5.4,1,8.1c-0.1,2-2.3,2-3.8,2.2C161.2,96.1,161.4,94.5,161.5,93.5z M174.6,146.9c-1.7,3.1-2.6,3.1-5.7,1.1
			c-5.9-3.7-8.4-8.6-7.9-15.4c0.5-7.3,0.1-14.8,0-22.1c0-3.6,2.3-6.4,3.9-9.5c-0.3,14-0.4,27.8,1.6,41.5c1.8-1.1,1-2.6,1.1-3.9
			c1.1-11.5,1.6-23.1,1.5-34.7c0-2.5,1-2.4,3-1.4c6.2,3.1,9,8,9.5,14.4C182.4,127.6,179.8,137.5,174.6,146.9z"/>
	</g>
</g>
</svg>
