<?xml version="1.0" encoding="utf-8"?>
<!-- Generator: Adobe Illustrator 17.0.0, SVG Export Plug-In . SVG Version: 6.00 Build 0)  -->
<!DOCTYPE svg PUBLIC "-//W3C//DTD SVG 1.1//EN" "http://www.w3.org/Graphics/SVG/1.1/DTD/svg11.dtd" [
	<!ENTITY ns_flows "http://ns.adobe.com/Flows/1.0/">
	<!ENTITY ns_extend "http://ns.adobe.com/Extensibility/1.0/">
	<!ENTITY ns_ai "http://ns.adobe.com/AdobeIllustrator/10.0/">
	<!ENTITY ns_graphs "http://ns.adobe.com/Graphs/1.0/">
]>
<svg version="1.1" id="Layer_2" xmlns:x="&ns_extend;" xmlns:i="&ns_ai;" xmlns:graph="&ns_graphs;"
	 xmlns="http://www.w3.org/2000/svg" xmlns:xlink="http://www.w3.org/1999/xlink" xmlns:a="http://ns.adobe.com/AdobeSVGViewerExtensions/3.0/"
	 x="0px" y="0px" width="256px" height="256px" viewBox="0 0 256 256" style="enable-background:new 0 0 256 256;"
	 xml:space="preserve">
<style type="text/css">
	.st0{fill:#FFFFFF;}
	.st1{fill:#54B948;}
	.st2{fill:#1D8C8E;}
	.st3{fill:#14DEAC;}
	.st4{fill:#1466AC;}
	.st5{fill:#757575;}
	.st6{fill:#B69442;}
	.st7{fill:#1A234D;}
	.st8{fill:#AA0629;}
	.st9{fill:#FF4A49;}
	.st10{fill:#3C6643;}
	.st11{fill:none;stroke:#FF4A49;stroke-miterlimit:10;}
	.st12{fill:#E70084;}
	.st13{fill:#508A72;}
	.st14{fill:#01A663;}
	.st15{fill:#015297;}
	.st16{fill:#B0B0B0;}
	.st17{fill:#E1062F;}
	.st18{fill:#D80000;stroke:#FFFFFF;stroke-width:2;stroke-miterlimit:10;}
	.st19{fill:#D80000;}
	.st20{fill:#8ABE23;}
	.st21{fill:#1D1D1B;}
	.st22{fill:#FEFEFE;}
	.st23{fill:#FF0000;}
	.st24{fill:#FF1D1B;}
	.st25{fill:#6DB2DE;}
	.st26{fill:#FF1D25;}
	.st27{fill:#FFDA00;}
	.st28{fill:#024D9E;}
	.st29{fill:#6B97C6;}
	.st30{fill:#000078;}
	.st31{fill:none;stroke:#FFFFFF;stroke-width:6;stroke-linecap:round;stroke-miterlimit:10;}
	.st32{fill:#FFEE34;}
	.st33{fill:none;stroke:#000000;stroke-width:4;stroke-miterlimit:10;}
	.st34{fill:#D11E24;}
	.st35{fill:#D71F26;}
	.st36{fill:#020000;}
	.st37{fill:none;stroke:#000000;stroke-width:2;stroke-miterlimit:10;}
	.st38{clip-path:url(#SVGID_2_);}
	.st39{fill:#00317D;}
	.st40{fill:#00737D;}
	.st41{fill:#ED1C24;}
	.st42{fill:#2678C7;}
	.st43{fill:#1853A6;}
	.st44{fill:#CB0000;}
	.st45{fill:#E61C21;}
	.st46{clip-path:url(#SVGID_4_);}
	.st47{fill:#6BDEF1;}
	.st48{clip-path:url(#SVGID_6_);}
	.st49{fill:#0165B2;}
	.st50{fill:#DE1134;}
	.st51{fill:#00A668;}
	.st52{fill:#FFE60B;}
	.st53{fill:#843D00;stroke:#000000;stroke-miterlimit:10;}
	.st54{fill:#EC1F27;}
	.st55{fill:#162984;}
	.st56{fill:#1853A6;stroke:#1853A6;stroke-miterlimit:10;}
	.st57{fill:none;}
	.st58{fill:none;stroke:#1853A6;stroke-width:0.9;stroke-miterlimit:10;}
	.st59{fill:#1853A6;stroke:#1853A6;stroke-width:0.9;stroke-miterlimit:10;}
	.st60{fill:#B5985A;}
	.st61{fill:#FFE60B;stroke:#000000;stroke-width:6;stroke-miterlimit:10;}
	.st62{fill:#008DCD;}
	.st63{fill:#009939;}
	.st64{fill:#2E3092;}
	.st65{fill:#EE3224;}
	.st66{fill:#005BAB;}
	.st67{fill:#D30027;}
	.st68{fill:#FFFFFF;stroke:#D30027;stroke-width:10;stroke-miterlimit:10;}
	.st69{fill:#E81C2F;}
	.st70{fill:#DC032B;}
	.st71{fill:#F25448;}
	.st72{fill:#FFFFFF;stroke:#F25448;stroke-width:6;stroke-miterlimit:10;}
	.st73{fill:#05A08D;}
	.st74{fill:#1875CE;}
	.st75{fill:#D72427;}
	.st76{fill:#004993;}
	.st77{fill:#007BB0;}
	.st78{fill:#FFEB00;}
	.st79{fill:#664A9E;}
	.st80{fill:#F4C701;}
	.st81{fill:#EBBE12;}
	.st82{fill:#44B3DB;}
	.st83{fill:#F6FF82;}
	.st84{fill:#FFC918;}
	.st85{fill:#0361A4;}
	.st86{fill:#009FE3;}
	.st87{fill:#E30217;}
	.st88{fill:#FDEA00;}
	.st89{fill:#E91B00;}
	.st90{fill:#2B2763;}
	.st91{fill:#EE1A22;}
	.st92{fill:#F1AA25;}
	.st93{fill:#93000C;}
	.st94{fill:none;stroke:#1D1D1B;stroke-width:4;}
	.st95{fill:#3E4E70;}
	.st96{fill:#096CB6;}
	.st97{fill:#0559A8;}
	.st98{fill:#F9ED1A;}
	.st99{fill:#949494;}
	.st100{fill:#FFD033;}
	.st101{fill:#243D89;}
	.st102{fill:#F8C936;}
	.st103{fill:#D44128;}
	.st104{fill:#ED1B23;}
	.st105{fill:#0C529C;}
	.st106{fill:#E31E24;}
	.st107{fill:#0263B0;}
	.st108{fill:#007AC2;}
	.st109{fill:#EF3D1F;}
	.st110{fill:#EE1C24;}
	.st111{fill:#FDEA00;stroke:#000000;stroke-width:0.6509;}
	.st112{fill:#FDEA00;stroke:#000000;stroke-width:0.6979;}
	.st113{fill:#46A0BE;}
	.st114{fill:#005FA5;}
	.st115{fill:#00904C;}
	.st116{fill:#E21F26;}
	.st117{fill:#FD0001;}
	.st118{fill:#0066B3;}
	.st119{fill:#E20019;}
	.st120{fill:#0171BC;}
	.st121{fill:#01305D;}
	.st122{fill:#1B7EE9;}
	.st123{fill:#BA0D0B;}
	.st124{fill:none;stroke:#000000;stroke-width:3;stroke-miterlimit:10;}
	.st125{fill:#FFFFFF;stroke:#000000;stroke-width:0.8836;stroke-miterlimit:10;}
	.st126{fill:#FFFFFF;stroke:#000000;stroke-width:0.9759;stroke-miterlimit:10;}
	.st127{fill:#0053A1;}
	.st128{fill:#FFE100;}
	.st129{fill:#FFE500;}
	.st130{fill:none;stroke:#FFE500;stroke-width:2;stroke-miterlimit:10;}
	.st131{fill:#01AFF3;}
	.st132{fill:#ED1B28;}
	.st133{fill:#E2000A;}
</style>
<g>
	<g>
		<g>
			<path class="st0" d="M124.1,245.5c-50,0-85.5-14.3-105.4-42.6C3.9,181.9,3.5,160.4,3.5,160.1V10.5h242v149.7
				c0,0.2-0.3,21.7-15.2,42.7C210.3,231.2,174.6,245.5,124.1,245.5z"/>
		</g>
	</g>
	<g>
		<path class="st61" d="M13.9,195.3c1.4,2.5,3,5.1,4.8,7.7c19.9,28.3,55.4,42.6,105.4,42.6c50.4,0,86.2-14.3,106.2-42.6
			c2-2.8,3.7-5.5,5.1-8.3L125,84.2L13.9,195.3z"/>
	</g>
	<path d="M238.5,17.5v142.6c0,0.7-0.6,20.4-14.3,39.3c-8,11.1-19.1,20-32.8,26.4c-17.9,8.4-40.5,12.6-67.3,12.6
		c-26.5,0-48.9-4.2-66.7-12.6c-13.6-6.4-24.6-15.3-32.6-26.4c-13.6-18.9-14.3-38.5-14.3-39.4V17.5H238.5 M252.5,3.5h-256v156.7
		c0,0,0.3,92.3,127.6,92.3c128.4,0,128.4-92.3,128.4-92.3V3.5L252.5,3.5z"/>
	<path class="st41" d="M74.2,118.8c5-15.6,9.7-30.2,14.3-44.8c4.4-13.8,8.9-27.7,13.3-41.5c0.8-2.6,1.9-3.2,4.5-2.3
		c3.8,1.4,7.7,2.5,11.6,3.7c2.1,0.6,2.7,1.7,1.9,3.8c-1.3,3.3-2.4,6.6-3.5,10c-0.6,2-1.6,2.2-3.5,1.5c-8-3.3-8-3.2-10.6,4.8
		c-9.4,29-18.9,58-28.2,87c-0.8,2.5-1.9,3.6-4.7,3.5c-11.7-0.5-8.6,2.2-12.9-9.2c-3.7-9.9-7.3-19.9-10.9-29.9
		c-0.6-1.8-1.7-2.8-3.4-3.4c-2.8-0.8-5.4-1.9-8.2-2.8c-2.4-0.8-2.8-2-1.4-4c0.2-0.2,0.2-0.5,0.4-0.7c5.6-5.8,4.9-11.9,1.9-18.9
		c-3.9-9.1-7-18.6-10.3-28c-0.9-2.6-1.9-3.5-4.4-1.7c-2.3,1.7-3.1-0.2-4.1-1.8c-1.3-2-0.1-2.8,1.4-3.6c6.3-3.4,12.7-6.7,19-10.3
		c2.8-1.6,3.9-1.1,5.1,1.9c10.3,27.7,20.8,55.4,31.3,83.1C73.1,116.1,73.5,117,74.2,118.8z"/>
	<path class="st41" d="M173.6,82.8c0,15.1,0,30.1,0,45.2c0,5-0.7,5.6-5.6,4.2c-5.3-1.5-10.5-2.2-15.8-0.4c-4.8,1.6-8.1,4.5-8.5,9.7
		c-0.4,5.1,1.8,9.3,6.2,11.8c7.5,4.3,15.2,3.6,22.5-0.3c3-1.6,4-0.7,5.4,1.7c1.6,2.8-0.4,3.5-2.1,4.3c-9.5,4.7-19.2,5-28.8,0.4
		c-6.8-3.2-11.3-8.5-11.6-16.4c-0.3-8.9,2-17.1,10.3-21.5c5.5-2.9,6.7-6.3,6.7-12.2c0-5-0.1-9-0.1-13.7c0-3-0.6-5.2-3.2-6.9
		c-2-1.3-3.7-3-5.5-4.5c-4.4-3.7-4.8-4.3-0.4-7.5c7.8-5.6,10.3-12.8,9.1-22c-0.4-2.8-0.2-5.8,0-8.6c0.2-2.5-0.9-3.8-2.9-5.4
		c-4-3.2-6.6-0.9-9.6,1.3c-1.5,1.1-2.8,2.8-4.9,0.4c-2-2.2-2.2-3.4,0.4-5.1c5.9-4.1,11.7-8.4,17.5-12.7c1.4-1.1,2.5-1.4,4.2-0.5
		c4.1,2.3,8.3,4.5,12.6,6.4c3.3,1.4,4.2,3.6,4.2,7.1C173.6,52.7,173.7,67.7,173.6,82.8C173.6,82.8,173.6,82.8,173.6,82.8z"/>
	<path class="st41" d="M200,63.8c6.7,3.1,12.8,6,17.9,10.7c6.1,5.8,9.4,12.9,9.7,21.2c0.3,7.5,0.1,14.9,0.2,22.4
		c0,2.4-1.2,3-3.2,3.6c-13.3,4.3-26,9.8-36.2,19.7c-1.3,1.2-2.4,1.6-3.6,0.1c-0.1-0.1-0.2-0.2-0.3-0.3c-4.9-4.6-6.2-7.4-6.2-13.6
		c0-1.6,0-3.1,0-4.7c0-7,0.6-8.5,6.1-4.3c1.5,1.2,2.2,1.7,3.4,2.8c5.9,5.1,12.9,2.1,18.4-1.6c1-0.7,2.1-1.1,2.1-2.6
		c-0.1-6.7,0.5-13.4-0.9-20c-1.5-6.5-5.7-10.8-11-14.1c-4.6-2.9-9.4-5.1-14.4-7.1c-4.7-1.8-4.9-2.8-0.8-6.1
		c6.8-5.5,13.7-10.9,21.2-15.5c2.5-1.6,2.6-2.5,0.4-4.4c-4.7-3.9-9.4-8-13.9-12.1c-1.5-1.4-2.8-1.4-4.5-0.4c-2.1,1.3-4.2,1-5.4-1.2
		c-1.1-2-0.4-3.8,1.6-5c5.2-3.5,10.5-6.9,15.7-10.5c1.4-1,2.3-0.5,3.4,0.4c8.5,7.6,17,15.2,25.6,22.7c2,1.8,1.7,2.7-0.5,4
		C216.2,52.7,208.2,57.9,200,63.8z"/>
	<path class="st41" d="M135.1,78.2c-0.8,1.3-9.3,2.1-9.8,1.4c-0.5-0.8-0.8-13.8-0.1-14.5c3-2.7,13.8,1.6,15.9-0.3
		c0.8-0.7-5.8-10.9-8-10.9c-1.9,0-7.6,5.9-8.3,5.9c-0.7,0-1-2.7-2.8-4.9c-1.9-2.1-4-3.3-5.3-3.2c-1.3,0.1-11.6,7.7-11.4,8.4
		c0.1,0.7,1.2,0.6,1.2,0.6c4.7,2.3,7.3,4.7,7.3,9.7c0,2.7,0.7,7.9,0,8.2s-4.3-0.5-4.3-0.5s1.8,4.1,2.3,4.7s1.6-0.6,2.1,0
		s0.2,18.7,0.2,28c0,1,0,1.3-0.1,2.7l0,1.3c0,4.5,1.1,8.2-0.3,10.8c-2.3,4.2-10,9.5-9.6,11.3c0.5,1.9,8.3,7.6,9.9,7.7
		c1.6,0,3-2.6,4.5-3.6c5.8-3.6,7.6-8.3,7.3-15.5c-0.6-14.2-1.4-42-0.6-42.7c0.8-0.7,5.6,0.8,7,0C133.7,82,137.3,77.5,135.1,78.2z"/>
	<g>
		<path d="M60.8,220.1v-41.8c-0.7,0.8-1.6,1.4-2.8,1.9c-1.2,0.4-2.4,0.7-3.6,0.7V175c1.7-0.2,3.2-0.9,4.7-2c1.5-1.1,2.6-2.6,3.4-4.4
			h6.1v51.6H60.8z"/>
		<path d="M107.4,217.5c-1.8,2.2-4.6,3.3-8.3,3.3c-3.8,0-6.6-1.1-8.4-3.3c-1.9-2.2-2.8-5.5-2.9-10c0-0.1,0-1.5,0-3.9s0.4-4.8,1.2-7
			c0.8-2.1,1.8-3.7,3.2-4.6c-2.8-2-4.1-5.7-4.1-11.1c0-4.5,0.9-7.8,2.6-9.8c1.7-2,4.6-3.1,8.5-3.1c3.9,0,6.8,1,8.5,3
			s2.5,5.3,2.5,9.9c0,5.5-1.4,9.2-4.1,11.1c1.3,0.9,2.3,2.5,3,4.7c0.7,2.2,1.1,4.6,1.1,7.2v3.5C110.1,211.9,109.2,215.3,107.4,217.5
			z M96.3,212.5c0.4,1,1.4,1.5,2.8,1.5c1.4,0,2.3-0.5,2.7-1.5c0.4-1,0.6-2.8,0.6-5.4v-4.2c0-5.3-1.1-7.9-3.2-7.9
			c-1.1,0-1.9,0.7-2.6,2.1s-1,3.3-1,5.9v4.3C95.6,209.8,95.8,211.6,96.3,212.5z M97.3,189.2c0.4,0.4,1,0.6,1.8,0.6c0,0,0,0,0,0
			c0.7,0,1.3-0.2,1.7-0.7c0.4-0.4,0.8-1.3,1.1-2.5c0.3-1.2,0.4-2.9,0.4-5.1c0-2.2-0.1-3.8-0.3-4.9s-0.6-1.8-1-2.1
			c-0.4-0.3-1.1-0.5-1.9-0.5c-0.8,0-1.5,0.2-1.9,0.6c-0.9,0.7-1.3,3.1-1.3,7.1C95.8,185.7,96.3,188.2,97.3,189.2z"/>
		<path d="M146.4,217c-1.7,2.5-4.4,3.7-8.1,3.7s-6.4-1-8.1-3c-1.7-2-2.6-5.3-2.6-10v-2.8h7.4v1.1c0,3.2,0.2,5.3,0.7,6.4
			c0.4,1.1,1.2,1.6,2.4,1.6c1.2,0,1.9-0.2,2.2-0.7c0.3-0.5,0.5-0.9,0.7-1.4s0.3-2,0.3-4.6v-7.7c-1.1,0.7-2.7,1.1-4.8,1.1
			c-3.5,0-5.9-1.3-7.4-3.8c-1.5-2.5-2.2-6.3-2.2-11.5v-1.9c0-6.4,1.1-10.7,3.3-12.9c1.8-1.8,4.4-2.7,7.7-2.7c3.3,0,5.8,0.6,7.4,1.9
			c1.6,1.3,2.6,3.1,3.1,5.3c0.5,2.3,0.7,5.2,0.7,8.8v20.6C149,210.4,148.2,214.6,146.4,217z M137.9,194.2c1.9,0,3-0.8,3.3-2.5v-9.8
			c0-2.5-0.2-4.4-0.7-5.5s-1.3-1.7-2.6-1.7s-2.2,0.6-2.7,1.7c-0.5,1.1-0.7,3-0.7,5.5v4.6c0,2.9,0.2,4.8,0.7,5.9
			C135.7,193.7,136.6,194.2,137.9,194.2z"/>
		<path d="M187.5,216.9c-1.8,2.5-4.7,3.8-8.7,3.8c-4,0-6.8-1.2-8.4-3.5s-2.4-6-2.4-11v-3.4h7.4v3.6c0,2.8,0.2,4.8,0.7,5.9
			c0.4,1.1,1.4,1.6,2.9,1.6c1.5,0,2.5-0.7,3-2s0.7-3.6,0.7-6.9c0-3.3-0.3-5.7-1-7.1c-0.6-1.4-1.9-2.1-3.8-2.1h-2.2v-6h2.2
			c1.8,0,3.1-0.6,3.8-1.9c0.7-1.2,1-3.3,1-6.1c0-2.8-0.3-4.7-0.9-5.7c-0.6-1-1.5-1.5-2.7-1.5c-1.3,0-2.1,0.5-2.6,1.5
			s-0.7,2.8-0.7,5.3v1.6h-7.6v-1.6c0-4.7,0.8-8.2,2.5-10.3c1.7-2.2,4.4-3.3,8.3-3.3c3.9,0,6.8,1.1,8.6,3.4c1.8,2.2,2.8,5.7,2.8,10.2
			c0,2.8-0.4,5.2-1.3,7.1c-0.9,1.9-2.2,3.2-4,3.9c2,0.9,3.3,2.4,4.2,4.6c0.8,2.1,1.2,4.9,1.2,8.3
			C190.2,210.5,189.3,214.4,187.5,216.9z"/>
	</g>
</g>
</svg>
