<?xml version="1.0" encoding="utf-8"?>
<!-- Generator: Adobe Illustrator 17.0.0, SVG Export Plug-In . SVG Version: 6.00 Build 0)  -->
<!DOCTYPE svg PUBLIC "-//W3C//DTD SVG 1.1//EN" "http://www.w3.org/Graphics/SVG/1.1/DTD/svg11.dtd" [
	<!ENTITY ns_flows "http://ns.adobe.com/Flows/1.0/">
	<!ENTITY ns_extend "http://ns.adobe.com/Extensibility/1.0/">
	<!ENTITY ns_ai "http://ns.adobe.com/AdobeIllustrator/10.0/">
	<!ENTITY ns_graphs "http://ns.adobe.com/Graphs/1.0/">
]>
<svg version="1.1" id="Layer_2" xmlns:x="&ns_extend;" xmlns:i="&ns_ai;" xmlns:graph="&ns_graphs;"
	 xmlns="http://www.w3.org/2000/svg" xmlns:xlink="http://www.w3.org/1999/xlink" xmlns:a="http://ns.adobe.com/AdobeSVGViewerExtensions/3.0/"
	 x="0px" y="0px" width="256px" height="256px" viewBox="0 0 256 256" style="enable-background:new 0 0 256 256;"
	 xml:space="preserve">
<style type="text/css">
	.st0{fill:#FFFFFF;}
	.st1{fill:#54B948;}
	.st2{fill:#1D8C8E;}
	.st3{fill:#14DEAC;}
	.st4{fill:#1466AC;}
	.st5{fill:#757575;}
	.st6{fill:#B69442;}
	.st7{fill:#1A234D;}
	.st8{fill:#AA0629;}
	.st9{fill:#FF4A49;}
	.st10{fill:#3C6643;}
	.st11{fill:none;stroke:#FF4A49;stroke-miterlimit:10;}
	.st12{fill:#E70084;}
	.st13{fill:#508A72;}
	.st14{fill:#01A663;}
	.st15{fill:#015297;}
	.st16{fill:#B0B0B0;}
	.st17{fill:#E1062F;}
	.st18{fill:#D80000;stroke:#FFFFFF;stroke-width:2;stroke-miterlimit:10;}
	.st19{fill:#D80000;}
	.st20{fill:#8ABE23;}
	.st21{fill:#1D1D1B;}
	.st22{fill:#FEFEFE;}
	.st23{fill:#FF0000;}
	.st24{fill:#FF1D1B;}
	.st25{fill:#6DB2DE;}
	.st26{fill:#FF1D25;}
	.st27{fill:#FFDA00;}
	.st28{fill:#024D9E;}
	.st29{fill:#6B97C6;}
	.st30{fill:#000078;}
	.st31{fill:none;stroke:#FFFFFF;stroke-width:6;stroke-linecap:round;stroke-miterlimit:10;}
	.st32{fill:#FFEE34;}
	.st33{fill:none;stroke:#000000;stroke-width:4;stroke-miterlimit:10;}
	.st34{fill:#D11E24;}
	.st35{fill:#D71F26;}
	.st36{fill:#020000;}
	.st37{fill:none;stroke:#000000;stroke-width:2;stroke-miterlimit:10;}
	.st38{clip-path:url(#SVGID_2_);}
	.st39{fill:#00317D;}
	.st40{fill:#00737D;}
	.st41{fill:#ED1C24;}
	.st42{fill:#2678C7;}
	.st43{fill:#1853A6;}
	.st44{fill:#CB0000;}
	.st45{fill:#E61C21;}
	.st46{clip-path:url(#SVGID_4_);}
	.st47{fill:#6BDEF1;}
	.st48{clip-path:url(#SVGID_6_);}
	.st49{fill:#0165B2;}
	.st50{fill:#DE1134;}
	.st51{fill:#00A668;}
	.st52{fill:#FFE60B;}
	.st53{fill:#843D00;stroke:#000000;stroke-miterlimit:10;}
	.st54{fill:#EC1F27;}
	.st55{fill:#162984;}
	.st56{fill:#1853A6;stroke:#1853A6;stroke-miterlimit:10;}
	.st57{fill:none;}
	.st58{fill:none;stroke:#1853A6;stroke-width:0.9;stroke-miterlimit:10;}
	.st59{fill:#1853A6;stroke:#1853A6;stroke-width:0.9;stroke-miterlimit:10;}
	.st60{fill:#B5985A;}
	.st61{fill:#FFE60B;stroke:#000000;stroke-width:6;stroke-miterlimit:10;}
	.st62{fill:#008DCD;}
	.st63{fill:#009939;}
	.st64{fill:#2E3092;}
	.st65{fill:#EE3224;}
	.st66{fill:#005BAB;}
	.st67{fill:#D30027;}
	.st68{fill:#FFFFFF;stroke:#D30027;stroke-width:10;stroke-miterlimit:10;}
	.st69{fill:#E81C2F;}
	.st70{fill:#DC032B;}
	.st71{fill:#F25448;}
	.st72{fill:#FFFFFF;stroke:#F25448;stroke-width:6;stroke-miterlimit:10;}
	.st73{fill:#05A08D;}
	.st74{fill:#1875CE;}
	.st75{fill:#D72427;}
	.st76{fill:#004993;}
	.st77{fill:#007BB0;}
	.st78{fill:#FFEB00;}
	.st79{fill:#664A9E;}
	.st80{fill:#F4C701;}
	.st81{fill:#EBBE12;}
	.st82{fill:#44B3DB;}
	.st83{fill:#F6FF82;}
	.st84{fill:#FFC918;}
	.st85{fill:#0361A4;}
	.st86{fill:#009FE3;}
	.st87{fill:#E30217;}
	.st88{fill:#FDEA00;}
	.st89{fill:#E91B00;}
	.st90{fill:#2B2763;}
	.st91{fill:#EE1A22;}
	.st92{fill:#F1AA25;}
	.st93{fill:#93000C;}
	.st94{fill:none;stroke:#1D1D1B;stroke-width:4;}
	.st95{fill:#3E4E70;}
	.st96{fill:#096CB6;}
	.st97{fill:#0559A8;}
	.st98{fill:#F9ED1A;}
	.st99{fill:#949494;}
	.st100{fill:#FFD033;}
	.st101{fill:#243D89;}
	.st102{fill:#F8C936;}
	.st103{fill:#D44128;}
	.st104{fill:#ED1B23;}
	.st105{fill:#0C529C;}
	.st106{fill:#E31E24;}
	.st107{fill:#0263B0;}
	.st108{fill:#007AC2;}
	.st109{fill:#EF3D1F;}
	.st110{fill:#EE1C24;}
	.st111{fill:#FDEA00;stroke:#000000;stroke-width:0.6509;}
	.st112{fill:#FDEA00;stroke:#000000;stroke-width:0.6979;}
	.st113{fill:#46A0BE;}
	.st114{fill:#005FA5;}
	.st115{fill:#00904C;}
	.st116{fill:#E21F26;}
	.st117{fill:#FD0001;}
	.st118{fill:#0066B3;}
	.st119{fill:#E20019;}
	.st120{fill:#0171BC;}
	.st121{fill:#01305D;}
	.st122{fill:#1B7EE9;}
	.st123{fill:#BA0D0B;}
	.st124{fill:none;stroke:#000000;stroke-width:3;stroke-miterlimit:10;}
	.st125{fill:#FFFFFF;stroke:#000000;stroke-width:0.8836;stroke-miterlimit:10;}
	.st126{fill:#FFFFFF;stroke:#000000;stroke-width:0.9759;stroke-miterlimit:10;}
	.st127{fill:#0053A1;}
	.st128{fill:#FFE100;}
	.st129{fill:#FFE500;}
	.st130{fill:none;stroke:#FFE500;stroke-width:2;stroke-miterlimit:10;}
	.st131{fill:#01AFF3;}
	.st132{fill:#ED1B28;}
	.st133{fill:#E2000A;}
</style>
<g>
	<g>
		<polygon class="st41" points="67.3,236 6.6,128 67.3,20 188.7,20 249.4,128 188.7,236 		"/>
		<path d="M186.3,24l58.5,104l-58.5,104H69.7L11.2,128L69.7,24H186 M191,16H65L2,128l63,112h126l63-112L191,16L191,16z"/>
	</g>
	<polyline class="st0" points="180.4,34.2 233.1,128.1 180.5,222 75.5,222 22.9,128 75.5,34 180,34 	"/>
	<g>
		<path d="M49,240l33-93.3c-4.7-0.2-11.1-4.4-11.6-4.7c-5.7-4.3-10.3-9.9-13.9-17c-3.8-7.7-5.8-16.3-5.8-25.8
			c0-6.9,1.1-13.5,3.3-19.6s5.1-11.4,8.8-15.9c3.7-4.5,8-8,12.9-10.7c4.9-2.6,10.3-4,15.9-4c5.7,0,11,1.3,16,4
			c5,2.7,9.3,6.2,13,10.7c3.7,4.5,6.6,9.8,8.8,15.9c2.2,6.1,3.3,12.6,3.3,19.6c0,6.9-1.2,13.8-3.7,20.6L87.8,240H49z M84.7,99.2
			c0,2.3,0.7,4.3,2.1,6c1.4,1.7,3,2.5,4.9,2.5c2,0,3.7-0.8,5.1-2.5c1.4-1.7,2.1-3.7,2.1-6c0-2.4-0.7-4.5-2.1-6.2
			c-1.4-1.7-3.1-2.5-5.1-2.5c-1.9,0-3.5,0.8-4.9,2.5C85.4,94.7,84.7,96.7,84.7,99.2z"/>
		<path d="M189.6,102.5c6.2,4.3,11.3,10.4,15.2,18.1c3.9,7.7,5.8,16.3,5.8,25.7c0,6.9-1.1,13.4-3.3,19.6c-2.2,6.1-5.1,11.4-8.8,15.9
			c-3.7,4.5-8,8-12.9,10.7c-4.9,2.6-10.3,4-15.9,4c-5.7,0-11-1.3-16-4c-5-2.6-9.3-6.2-13-10.7c-3.7-4.5-6.6-9.8-8.8-15.9
			c-2.2-6.1-3.3-12.6-3.3-19.6c0-6.9,1.2-13.8,3.7-20.6l39.2-109.8h35.9L178.2,99c0,0,3.4,0.1,5.9,0.9
			C186.7,100.7,189.6,102.5,189.6,102.5z M176.8,146.3c0-2.3-0.7-4.3-2.1-6c-1.4-1.7-3-2.5-4.9-2.5c-2,0-3.7,0.9-5.1,2.5
			c-1.4,1.7-2.1,3.7-2.1,6c0,2.4,0.7,4.5,2.1,6.2c1.4,1.7,3.1,2.5,5.1,2.5c1.9,0,3.5-0.8,4.9-2.5
			C176.1,150.8,176.8,148.7,176.8,146.3z"/>
	</g>
	<path class="st41" d="M60.3,232l32.8-92.7l-10.7-0.5c-1.6-0.1-5.4-2-7.3-3.2c-4.6-3.5-8.5-8.2-11.4-14.1c-3.3-6.5-4.9-14-4.9-22.2
		c0-6,0.9-11.7,2.8-16.9c1.8-5.2,4.3-9.8,7.4-13.5c3-3.7,6.5-6.5,10.5-8.7c3.8-2,7.8-3,12.1-3c4.4,0,8.4,1,12.3,3
		c4,2.1,7.6,5.1,10.6,8.7c3.1,3.7,5.6,8.3,7.4,13.5c1.9,5.2,2.8,10.9,2.8,16.9c0,6-1.1,12-3.2,17.9L82.1,232H60.3z M91.7,82.4
		c-4.3,0-8.2,1.9-11.1,5.5c-2.5,3.1-3.9,7-3.9,11.3c0,4.1,1.3,8,3.9,11.1c2.9,3.5,6.8,5.5,11.1,5.5c4.4,0,8.4-1.9,11.3-5.5
		c2.5-3.1,3.9-6.9,3.9-11.1c0-4.3-1.3-8.2-3.9-11.3C100,84.4,96,82.4,91.7,82.4z"/>
	<path class="st41" d="M169.8,188.4c-4.4,0-8.4-1-12.3-3c-4-2.1-7.6-5.1-10.6-8.7c-3.1-3.7-5.6-8.3-7.4-13.5
		c-1.9-5.2-2.8-10.9-2.8-16.9c0-6,1.1-11.9,3.2-17.8L177.2,24h19l-29.2,82.7l10.9,0.3c0.9,0,2.8,0.2,3.8,0.5
		c1.1,0.3,2.6,1.1,3.5,1.6c5,3.6,9.2,8.6,12.4,15c3.3,6.6,5,14,5,22.1c0,6-0.9,11.7-2.8,16.9c-1.8,5.2-4.3,9.8-7.4,13.5
		c-3,3.6-6.5,6.6-10.5,8.7C178.1,187.4,174.1,188.4,169.8,188.4z M169.8,129.7c-4.4,0-8.4,1.9-11.3,5.5c-2.5,3.1-3.9,6.9-3.9,11.1
		c0,4.3,1.3,8.2,3.9,11.3c2.9,3.5,6.9,5.5,11.3,5.5c4.3,0,8.2-1.9,11.1-5.5c2.6-3.1,3.9-7,3.9-11.3c0-4.1-1.3-8-3.9-11.1
		C178,131.7,174,129.7,169.8,129.7z"/>
</g>
</svg>
