<?xml version="1.0" encoding="utf-8"?>
<!-- Generator: Adobe Illustrator 17.0.0, SVG Export Plug-In . SVG Version: 6.00 Build 0)  -->
<!DOCTYPE svg PUBLIC "-//W3C//DTD SVG 1.1//EN" "http://www.w3.org/Graphics/SVG/1.1/DTD/svg11.dtd" [
	<!ENTITY ns_flows "http://ns.adobe.com/Flows/1.0/">
	<!ENTITY ns_extend "http://ns.adobe.com/Extensibility/1.0/">
	<!ENTITY ns_ai "http://ns.adobe.com/AdobeIllustrator/10.0/">
	<!ENTITY ns_graphs "http://ns.adobe.com/Graphs/1.0/">
]>
<svg version="1.1" id="Layer_2" xmlns:x="&ns_extend;" xmlns:i="&ns_ai;" xmlns:graph="&ns_graphs;"
	 xmlns="http://www.w3.org/2000/svg" xmlns:xlink="http://www.w3.org/1999/xlink" xmlns:a="http://ns.adobe.com/AdobeSVGViewerExtensions/3.0/"
	 x="0px" y="0px" width="256px" height="256px" viewBox="0 0 256 256" style="enable-background:new 0 0 256 256;"
	 xml:space="preserve">
<style type="text/css">
	.st0{fill:#FFFFFF;}
	.st1{fill:#54B948;}
	.st2{fill:#1D8C8E;}
	.st3{fill:#14DEAC;}
	.st4{fill:#1466AC;}
	.st5{fill:#757575;}
	.st6{fill:#B69442;}
	.st7{fill:#1A234D;}
	.st8{fill:#AA0629;}
	.st9{fill:#FF4A49;}
	.st10{fill:#3C6643;}
	.st11{fill:none;stroke:#FF4A49;stroke-miterlimit:10;}
	.st12{fill:#E70084;}
	.st13{fill:#508A72;}
	.st14{fill:#01A663;}
	.st15{fill:#015297;}
	.st16{fill:#B0B0B0;}
	.st17{fill:#E1062F;}
	.st18{fill:#D80000;stroke:#FFFFFF;stroke-width:2;stroke-miterlimit:10;}
	.st19{fill:#D80000;}
	.st20{fill:#8ABE23;}
	.st21{fill:#1D1D1B;}
	.st22{fill:#FEFEFE;}
	.st23{fill:#FF0000;}
	.st24{fill:#FF1D1B;}
	.st25{fill:#6DB2DE;}
	.st26{fill:#FF1D25;}
	.st27{fill:#FFDA00;}
	.st28{fill:#024D9E;}
	.st29{fill:#6B97C6;}
	.st30{fill:#000078;}
	.st31{fill:none;stroke:#FFFFFF;stroke-width:6;stroke-linecap:round;stroke-miterlimit:10;}
	.st32{fill:#FFEE34;}
	.st33{fill:none;stroke:#000000;stroke-width:4;stroke-miterlimit:10;}
	.st34{fill:#D11E24;}
	.st35{fill:#D71F26;}
	.st36{fill:#020000;}
	.st37{fill:none;stroke:#000000;stroke-width:2;stroke-miterlimit:10;}
	.st38{clip-path:url(#SVGID_2_);}
	.st39{fill:#00317D;}
	.st40{fill:#00737D;}
	.st41{fill:#ED1C24;}
	.st42{fill:#2678C7;}
	.st43{fill:#1853A6;}
	.st44{fill:#CB0000;}
	.st45{fill:#E61C21;}
	.st46{clip-path:url(#SVGID_4_);}
	.st47{fill:#6BDEF1;}
	.st48{clip-path:url(#SVGID_6_);}
	.st49{fill:#0165B2;}
	.st50{fill:#DE1134;}
	.st51{fill:#00A668;}
	.st52{fill:#FFE60B;}
	.st53{fill:#843D00;stroke:#000000;stroke-miterlimit:10;}
	.st54{fill:#EC1F27;}
	.st55{fill:#162984;}
	.st56{fill:#1853A6;stroke:#1853A6;stroke-miterlimit:10;}
	.st57{fill:none;}
	.st58{fill:none;stroke:#1853A6;stroke-width:0.9;stroke-miterlimit:10;}
	.st59{fill:#1853A6;stroke:#1853A6;stroke-width:0.9;stroke-miterlimit:10;}
	.st60{fill:#B5985A;}
	.st61{fill:#FFE60B;stroke:#000000;stroke-width:6;stroke-miterlimit:10;}
	.st62{fill:#008DCD;}
	.st63{fill:#009939;}
	.st64{fill:#2E3092;}
	.st65{fill:#EE3224;}
	.st66{fill:#005BAB;}
	.st67{fill:#D30027;}
	.st68{fill:#FFFFFF;stroke:#D30027;stroke-width:10;stroke-miterlimit:10;}
	.st69{fill:#E81C2F;}
	.st70{fill:#DC032B;}
	.st71{fill:#F25448;}
	.st72{fill:#FFFFFF;stroke:#F25448;stroke-width:6;stroke-miterlimit:10;}
	.st73{fill:#05A08D;}
	.st74{fill:#1875CE;}
	.st75{fill:#D72427;}
	.st76{fill:#004993;}
	.st77{fill:#007BB0;}
	.st78{fill:#FFEB00;}
	.st79{fill:#664A9E;}
	.st80{fill:#F4C701;}
	.st81{fill:#EBBE12;}
	.st82{fill:#44B3DB;}
	.st83{fill:#F6FF82;}
	.st84{fill:#FFC918;}
	.st85{fill:#0361A4;}
	.st86{fill:#009FE3;}
	.st87{fill:#E30217;}
	.st88{fill:#FDEA00;}
	.st89{fill:#E91B00;}
	.st90{fill:#2B2763;}
	.st91{fill:#EE1A22;}
	.st92{fill:#F1AA25;}
	.st93{fill:#93000C;}
	.st94{fill:none;stroke:#1D1D1B;stroke-width:4;}
	.st95{fill:#3E4E70;}
	.st96{fill:#096CB6;}
	.st97{fill:#0559A8;}
	.st98{fill:#F9ED1A;}
	.st99{fill:#949494;}
	.st100{fill:#FFD033;}
	.st101{fill:#243D89;}
	.st102{fill:#F8C936;}
	.st103{fill:#D44128;}
	.st104{fill:#ED1B23;}
	.st105{fill:#0C529C;}
	.st106{fill:#E31E24;}
	.st107{fill:#0263B0;}
	.st108{fill:#007AC2;}
	.st109{fill:#EF3D1F;}
	.st110{fill:#EE1C24;}
	.st111{fill:#FDEA00;stroke:#000000;stroke-width:0.6509;}
	.st112{fill:#FDEA00;stroke:#000000;stroke-width:0.6979;}
	.st113{fill:#46A0BE;}
	.st114{fill:#005FA5;}
	.st115{fill:#00904C;}
	.st116{fill:#E21F26;}
	.st117{fill:#FD0001;}
	.st118{fill:#0066B3;}
	.st119{fill:#E20019;}
	.st120{fill:#0171BC;}
	.st121{fill:#01305D;}
	.st122{fill:#1B7EE9;}
	.st123{fill:#BA0D0B;}
	.st124{fill:none;stroke:#000000;stroke-width:3;stroke-miterlimit:10;}
	.st125{fill:#FFFFFF;stroke:#000000;stroke-width:0.8836;stroke-miterlimit:10;}
	.st126{fill:#FFFFFF;stroke:#000000;stroke-width:0.9759;stroke-miterlimit:10;}
	.st127{fill:#0053A1;}
	.st128{fill:#FFE100;}
	.st129{fill:#FFE500;}
	.st130{fill:none;stroke:#FFE500;stroke-width:2;stroke-miterlimit:10;}
	.st131{fill:#01AFF3;}
	.st132{fill:#ED1B28;}
	.st133{fill:#E2000A;}
</style>
<g>
	<g>
		<polygon class="st14" points="128.6,19.7 184,6.8 208.5,58.1 253.1,93.4 228.2,144.6 228.5,201.5 172.9,214 128.6,249.6 84.2,214 
			28.7,201.5 28.9,144.6 4,93.4 48.6,58.1 73.1,6.8 		"/>
		<polygon class="st0" points="128.6,27.3 180.1,15.3 202.9,63 244.4,95.9 221.2,143.5 221.5,196.4 169.8,208 128.6,241.1 87.3,208 
			35.7,196.4 35.9,143.5 12.7,95.9 54.2,63 77,15.3 		"/>
		<polygon class="st14" points="128.6,34.3 176.5,23.2 197.7,67.6 236.3,98.1 214.8,142.4 215,191.6 166.9,202.4 128.6,233.2 
			90.2,202.4 42.2,191.6 42.4,142.4 20.8,98.1 59.4,67.6 80.6,23.2 		"/>
	</g>
	<g>
		<g>
			<path class="st0" d="M110.3,186.9c-0.5,0-0.9,0-1.4,0c-4.9-3.3-8.4-7.9-12.4-12.1c-3-3.2-6.7-5-11.2-4.8c-0.9,0-1.9,0.2-1.8-1.3
				c0-1.4,0.5-2,1.9-1.8c0.4,0.1,0.8,0,1.2,0c5-0.4,8-3.3,7.9-8.3c-0.2-9.1-3.3-17.8-5-26.7c-0.2-1-0.9-1.1-1.7-1.1
				c-6.5-0.1-9.2,2.1-8.7,8.2c0,0.2,0,0.3,0,0.5c0.2,1.5-0.7,1.6-1.9,1.6c-1-0.1-2.3,0.4-2.3-1.5c0.1-8.1,0.1-16.2,0.1-24.3
				c0-2,1.2-2.5,2.8-2.5c2,0,1.1,1.6,1.1,2.4c0.1,4.9,1.4,6.2,6.3,6.3c1.5,0,2-0.4,1.7-2.1c-2.1-9.1-4-18.3-6-27.5
				c-1.2-5.1-3.4-9.7-7.6-13c-2.8-2.2-5.9-1.8-8.4,0.7c-3.8,3.9-3.6,7.7,0.7,11.3c0.7,0.6,1.7,1.2,1.2,2.3c-0.6,1.1-1.7,0.7-2.7,0.4
				c-3.5-1.1-5.1-3.8-6-7.1c0-1.1,0-2.2,0-3.3c2-7.7,7.3-11.7,14.8-13.3c1.1-0.2,2.4,0,3.4-0.7c1.6,0,3.1,0,4.7,0
				c5.5,1.1,9.4,4.8,13.1,8.7c3,3.2,6.6,5.4,10.9,6.2c2.6,0.5,5.2,0.7,7.9,0.6c1,0,2.1-0.3,2.1,1.4c0,1.3-0.1,2.1-1.8,2.3
				c-4.2,0.4-6.8,3.2-7.6,7.3c-0.6,3.3-0.3,6.5,0.3,9.7c2.2,10.8,4.5,21.5,6.8,32.3c1.1,5.3,2.3,10.5,3.4,15.8
				c1-3.9,1.9-7.8,2.6-11.7c1.7-10,4.4-19.8,6-29.9c0.8-5.5,1.9-11.1,0.7-16.7c-0.6-3-1.7-5.7-5.1-6.7c-1-0.3-2.1-0.4-1.9-2
				c0.2-1.7,1.2-1.7,2.4-1.9c6.3-1.4,11.6-4.3,15.3-9.8c0.9-1.3,1.2-2.9,2.1-4.6c1.5,4.2,4.3,6.9,7.8,9.1c4.1,2.6,8.6,4.3,13.4,5.2
				c1.2,0.2,2.2,0,2.2,1.9c0,1.6-0.6,1.8-2,2c-3.5,0.6-5.7,2.6-6.6,6.1c-0.4,1.7-0.5,3.4-0.4,5.1c0.1,5.6,1.8,10.8,2.9,16.2
				c2.7,13.1,5.5,26.2,8.4,39.3c0.6,2.8,1.8,5.5,4.3,7.7c0-1,0.1-1.5,0-2c-1.1-5.5-0.4-10.9,0.8-16.2c3-12.3,6.2-24.5,9.1-36.8
				c2.2-8.9-1.5-15.8-10-19.1c-1.3-0.5-1.4-1.3-1.4-2.5c0-1.3,0.9-1.4,1.9-1.5c3.4-0.5,6.3-2.1,8.7-4.5c2.6-2.7,4.4-5.9,5.4-9.6
				c1.7,6.8,5.8,11.2,12.3,13.4c1.2,0.4,2.4,0.7,3.5,1.1c0,1.1,0,2.2,0,3.3c-0.4,0-0.8,0-1.1,0.1c-6.2,2-10,6.7-11.9,12.5
				c-5.1,15.5-8.6,31.5-12.1,47.5c-0.9,4-0.8,8.4,1.4,12.3c1.8,3.3,4.7,5,8.3,5.9c1.3,0.3,0.9,1.5,0.9,2.3c0.1,1.2-0.8,1.1-1.6,1.1
				c-3.5,0.2-6.9,0.9-10.1,2.5c-6.3,3.1-10.3,8.3-13.5,14.4c-0.3,0-0.6,0-0.9,0c-3.6-3.2-7.2-6.3-10.8-9.5c-3.6-3.1-7-6.4-12-7.3
				c-0.9-0.2-0.8-0.8-0.8-1.4c0-0.9,0-1.6,1.1-2c5.6-2.3,7.4-5.7,6.4-11.7c-1.9-10.7-3.9-21.4-5.9-32c-1.4-7.4-2.8-14.9-4.3-22.3
				c-1.2,9.6-3.6,18.9-5.8,28.3c-2,8.4-3.9,16.9-4.7,25.6c-0.5,5,1.5,9.3,5.9,11.4c1.3,0.6,2.1,1.1,2.1,2.8c0,1.7-1.3,1.7-2.3,2.1
				C118.8,174,113.5,179.4,110.3,186.9z"/>
		</g>
	</g>
</g>
</svg>
