<?xml version="1.0" encoding="utf-8"?>
<!-- Generator: Adobe Illustrator 17.0.0, SVG Export Plug-In . SVG Version: 6.00 Build 0)  -->
<!DOCTYPE svg PUBLIC "-//W3C//DTD SVG 1.1//EN" "http://www.w3.org/Graphics/SVG/1.1/DTD/svg11.dtd" [
	<!ENTITY ns_flows "http://ns.adobe.com/Flows/1.0/">
	<!ENTITY ns_extend "http://ns.adobe.com/Extensibility/1.0/">
	<!ENTITY ns_ai "http://ns.adobe.com/AdobeIllustrator/10.0/">
	<!ENTITY ns_graphs "http://ns.adobe.com/Graphs/1.0/">
]>
<svg version="1.1" id="Layer_2" xmlns:x="&ns_extend;" xmlns:i="&ns_ai;" xmlns:graph="&ns_graphs;"
	 xmlns="http://www.w3.org/2000/svg" xmlns:xlink="http://www.w3.org/1999/xlink" xmlns:a="http://ns.adobe.com/AdobeSVGViewerExtensions/3.0/"
	 x="0px" y="0px" width="256px" height="256px" viewBox="0 0 256 256" style="enable-background:new 0 0 256 256;"
	 xml:space="preserve">
<style type="text/css">
	.st0{fill:#FFFFFF;}
	.st1{fill:#54B948;}
	.st2{fill:#1D8C8E;}
	.st3{fill:#14DEAC;}
	.st4{fill:#1466AC;}
	.st5{fill:#757575;}
	.st6{fill:#B69442;}
	.st7{fill:#1A234D;}
	.st8{fill:#AA0629;}
	.st9{fill:#FF4A49;}
	.st10{fill:#3C6643;}
	.st11{fill:none;stroke:#FF4A49;stroke-miterlimit:10;}
	.st12{fill:#E70084;}
	.st13{fill:#508A72;}
	.st14{fill:#01A663;}
	.st15{fill:#015297;}
	.st16{fill:#B0B0B0;}
	.st17{fill:#E1062F;}
	.st18{fill:#D80000;stroke:#FFFFFF;stroke-width:2;stroke-miterlimit:10;}
	.st19{fill:#D80000;}
	.st20{fill:#8ABE23;}
	.st21{fill:#1D1D1B;}
	.st22{fill:#FEFEFE;}
	.st23{fill:#FF0000;}
	.st24{fill:#FF1D1B;}
	.st25{fill:#6DB2DE;}
	.st26{fill:#FF1D25;}
	.st27{fill:#FFDA00;}
	.st28{fill:#024D9E;}
	.st29{fill:#6B97C6;}
	.st30{fill:#000078;}
	.st31{fill:none;stroke:#FFFFFF;stroke-width:6;stroke-linecap:round;stroke-miterlimit:10;}
	.st32{fill:#FFEE34;}
	.st33{fill:none;stroke:#000000;stroke-width:4;stroke-miterlimit:10;}
	.st34{fill:#D11E24;}
	.st35{fill:#D71F26;}
	.st36{fill:#020000;}
	.st37{fill:none;stroke:#000000;stroke-width:2;stroke-miterlimit:10;}
	.st38{clip-path:url(#SVGID_2_);}
	.st39{fill:#00317D;}
	.st40{fill:#00737D;}
	.st41{fill:#ED1C24;}
	.st42{fill:#2678C7;}
	.st43{fill:#1853A6;}
	.st44{fill:#CB0000;}
	.st45{fill:#E61C21;}
	.st46{clip-path:url(#SVGID_4_);}
	.st47{fill:#6BDEF1;}
	.st48{clip-path:url(#SVGID_6_);}
	.st49{fill:#0165B2;}
	.st50{fill:#DE1134;}
	.st51{fill:#00A668;}
	.st52{fill:#FFE60B;}
	.st53{fill:#843D00;stroke:#000000;stroke-miterlimit:10;}
	.st54{fill:#EC1F27;}
	.st55{fill:#162984;}
	.st56{fill:#1853A6;stroke:#1853A6;stroke-miterlimit:10;}
	.st57{fill:none;}
	.st58{fill:none;stroke:#1853A6;stroke-width:0.9;stroke-miterlimit:10;}
	.st59{fill:#1853A6;stroke:#1853A6;stroke-width:0.9;stroke-miterlimit:10;}
	.st60{fill:#B5985A;}
	.st61{fill:#FFE60B;stroke:#000000;stroke-width:6;stroke-miterlimit:10;}
	.st62{fill:#008DCD;}
	.st63{fill:#009939;}
	.st64{fill:#2E3092;}
	.st65{fill:#EE3224;}
	.st66{fill:#005BAB;}
	.st67{fill:#D30027;}
	.st68{fill:#FFFFFF;stroke:#D30027;stroke-width:10;stroke-miterlimit:10;}
	.st69{fill:#E81C2F;}
	.st70{fill:#DC032B;}
	.st71{fill:#F25448;}
	.st72{fill:#FFFFFF;stroke:#F25448;stroke-width:6;stroke-miterlimit:10;}
	.st73{fill:#05A08D;}
	.st74{fill:#1875CE;}
	.st75{fill:#D72427;}
	.st76{fill:#004993;}
	.st77{fill:#007BB0;}
	.st78{fill:#FFEB00;}
	.st79{fill:#664A9E;}
	.st80{fill:#F4C701;}
	.st81{fill:#EBBE12;}
	.st82{fill:#44B3DB;}
	.st83{fill:#F6FF82;}
	.st84{fill:#FFC918;}
	.st85{fill:#0361A4;}
	.st86{fill:#009FE3;}
	.st87{fill:#E30217;}
	.st88{fill:#FDEA00;}
	.st89{fill:#E91B00;}
	.st90{fill:#2B2763;}
	.st91{fill:#EE1A22;}
	.st92{fill:#F1AA25;}
	.st93{fill:#93000C;}
	.st94{fill:none;stroke:#1D1D1B;stroke-width:4;}
	.st95{fill:#3E4E70;}
	.st96{fill:#096CB6;}
	.st97{fill:#0559A8;}
	.st98{fill:#F9ED1A;}
	.st99{fill:#949494;}
	.st100{fill:#FFD033;}
	.st101{fill:#243D89;}
	.st102{fill:#F8C936;}
	.st103{fill:#D44128;}
	.st104{fill:#ED1B23;}
	.st105{fill:#0C529C;}
	.st106{fill:#E31E24;}
	.st107{fill:#0263B0;}
	.st108{fill:#007AC2;}
	.st109{fill:#EF3D1F;}
	.st110{fill:#EE1C24;}
	.st111{fill:#FDEA00;stroke:#000000;stroke-width:0.6509;}
	.st112{fill:#FDEA00;stroke:#000000;stroke-width:0.6979;}
	.st113{fill:#46A0BE;}
	.st114{fill:#005FA5;}
	.st115{fill:#00904C;}
	.st116{fill:#E21F26;}
	.st117{fill:#FD0001;}
	.st118{fill:#0066B3;}
	.st119{fill:#E20019;}
	.st120{fill:#0171BC;}
	.st121{fill:#01305D;}
	.st122{fill:#1B7EE9;}
	.st123{fill:#BA0D0B;}
	.st124{fill:none;stroke:#000000;stroke-width:3;stroke-miterlimit:10;}
	.st125{fill:#FFFFFF;stroke:#000000;stroke-width:0.8836;stroke-miterlimit:10;}
	.st126{fill:#FFFFFF;stroke:#000000;stroke-width:0.9759;stroke-miterlimit:10;}
	.st127{fill:#0053A1;}
	.st128{fill:#FFE100;}
	.st129{fill:#FFE500;}
	.st130{fill:none;stroke:#FFE500;stroke-width:2;stroke-miterlimit:10;}
	.st131{fill:#01AFF3;}
	.st132{fill:#ED1B28;}
	.st133{fill:#E2000A;}
</style>
<g>
	<path class="st0" d="M127.2,246.9c-49.2,0-84.1-14.5-103.8-43c-14.6-21.3-15-43-15-43.3V9.4h238.2v151.3c0,0.2-0.3,21.9-15,43.2
		C212,232.4,176.8,246.9,127.2,246.9z"/>
	<g>
		<polygon points="23.8,16 16,16 16,71.7 124.4,120.8 		"/>
		<polygon class="st74" points="124.4,121.1 16,71.7 16,120.9 124.8,121.3 		"/>
		<polygon class="st74" points="124.6,121 79.8,16 23.8,16 124.1,120.7 		"/>
		<polygon points="125,121.3 240,121.6 240,69.8 125.3,121 		"/>
		<polygon points="124,16 79.8,16 124,121.3 		"/>
		<polygon class="st74" points="229.2,16 125.2,120.8 240,69.8 240,16 		"/>
		<path d="M124.6,121.3L16,120.9v39.7c0,0.4-0.2,3.8,0.8,9L124.6,121.3L124.6,121.3z"/>
		<path class="st0" d="M124,121.5v1.7V121.5l0.1-0.2L16.3,169.6c1.5,7.7,5,19.4,13,30.8c7.9,11.2,18.7,20.2,32.1,26.7
			c17.5,8.5,39.6,12.8,65.7,12.8c26.3,0,48.6-4.3,66.2-12.8c13.5-6.5,24.4-15.5,32.3-26.7c7-10,10.5-20.1,12.3-27.7l-113.5-51.3
			L124,121.5z"/>
		<path class="st74" d="M124.8,121.4l113.3,51.3c1.6-7,0.9-11.7,1.9-12.1v-39l-115-0.4L124.8,121.4z"/>
		<polygon class="st74" points="169.3,16 124,16 124,121.3 		"/>
		<polygon points="125.1,120.8 229.2,16 169.3,16 124.6,120.9 		"/>
		<polygon class="st0" points="124.3,121.3 124.4,121.4 124.6,121.3 		"/>
		<polygon class="st0" points="124.4,121.4 124.6,121.5 124.6,121.3 		"/>
		<polygon class="st0" points="124.1,121.1 124.3,121.3 124.6,121.3 		"/>
		<polygon class="st0" points="124.8,121.3 125.1,121 124.6,121.3 		"/>
		<polygon class="st0" points="124.6,121.5 124.8,121.4 124.6,121.3 		"/>
		<polygon class="st0" points="124.8,121.4 124.8,121.3 124.6,121.3 		"/>
		<polygon points="173.3,7 175.3,2 124,2 124,7 		"/>
		<polygon points="124,7 124,2 73.7,2 75.8,7 		"/>
		<polygon points="9,7 75.8,7 73.7,2 2,2 2,65.5 9,68.6 		"/>
		<polygon points="238.5,7 243.2,2 175.3,2 173.3,7 		"/>
		<polygon points="247,7 247,66.7 254,63.7 254,2 243.2,2 238.5,7 		"/>
		<path d="M231.7,201.5c-19.7,28.6-54.8,43-104.5,43c-49.2,0-84.1-14.5-103.8-43c-7.2-10.5-11-21.2-12.9-29.3l-6.9,3.1
			c6,26.3,29.7,78.7,123.6,78.7c91,0,116.5-48.4,123.6-75.5l-7-3.2C241.7,183,238,192.3,231.7,201.5z"/>
		<polygon points="247,121.7 254,121.7 254,63.7 247,66.7 		"/>
		<path d="M254,121.7l-7,0v36.7c0,0.1-0.3,7.1-3,17l7.1,3.2c2.8-10.5,2.9-17.8,2.9-17.8V121.7z"/>
		<path d="M9,158.3v-37.4l-7,0v39.8c0,0-0.2,5.9,1.8,14.6l7.1-3.1C8.9,164,9,158.4,9,158.3z"/>
		<polygon points="9,68.6 2,65.5 2,120.9 9,120.9 		"/>
		<polygon points="240,69.8 240,121.6 247,121.7 247,66.7 		"/>
		<polygon points="240,16 240,69.8 247,66.7 247,7 238.5,7 229.2,16 		"/>
		<polygon points="169.3,16 173.3,7 124,7 124,16 		"/>
		<polygon points="16,16 23.8,16 18.3,10.2 23.8,16 79.8,16 75.8,7 9,7 9,68.6 16,71.7 		"/>
		<polygon points="229.2,16 238.5,7 173.3,7 169.3,16 		"/>
		<polygon points="124,16 124,7 75.8,7 79.8,16 		"/>
		<polygon points="16,71.7 9,68.6 9,120.9 16,120.9 		"/>
		<path d="M240,160.6c-1,0.4-0.3,5.1-1.9,12.1l6,2.7c2.7-9.9,3-16.9,3-17v-36.7l-7,0V160.6z"/>
		<path d="M225.6,200.4c-7.9,11.2-18.8,20.2-32.3,26.7c-17.6,8.5-39.9,12.8-66.2,12.8c-26.1,0-48.1-4.3-65.6-12.8
			c-13.4-6.5-24.2-15.5-32.1-26.7c-8-11.4-11.5-23.1-13-30.8l-6,2.7c1.9,8.1,5.7,18.8,12.9,29.3c19.6,28.6,54.5,43,103.8,43
			c49.7,0,84.8-14.5,104.5-43c6.4-9.2,10-18.6,12.1-26.2l-5.8-2.7C236.2,180.2,232.7,190.4,225.6,200.4z"/>
		<path d="M16,160.6v-39.7l-7,0v37.4c0,0.1-0.2,5.7,1.8,13.9l6.2-2.7C15.9,164.4,16,160.9,16,160.6z"/>
	</g>
	<polygon class="st75" points="188,162.2 125.6,186.9 63,162.2 63,55 188,55 	"/>
	<path class="st0" d="M156.3,102c4.4-4.3,2.3-13-2.5-15.6c-3.6-1.9-2.4-3,0.3-4.4c6.7-3.5,13.3-7.2,20-10.8c1-0.5,2.1-1.7,3.2-0.8
		c1.3,1.1,0.4,2.6,0,3.8c-0.7,2.3-2.4,3.8-3.8,5.5c-1.4,1.6-3.5,2.7-4.6,5.5c4.6-0.2,8.5-1.2,12.4-2.1c1.1-0.3,2.5-1.3,3.2,0
		c0.8,1.5-0.7,2.5-1.7,3.3c-3.1,2.4-6.3,4.5-9.4,6.8c-0.9,0.7-2.3,0.7-2.5,2.7c4.1,0.9,8.3,0.5,12.5,0.5c1.2,0,3-1,3.4,0.9
		c0.3,1.5-1.4,2.2-2.6,2.8c-3.4,1.6-6.8,2.9-10.2,4.4c-0.8,0.3-1.9,0.4-1.8,1.6c0.1,1.1,1.2,1.2,2,1.4c3.3,0.9,6.6,1.8,9.8,2.7
		c0.7,0.2,1.6,0.2,1.8,1c0.2,1.1-0.7,1.6-1.5,1.9c-3.6,1.5-7.6,1.1-11.3,1.8c-1.1,0.2-2.7-0.5-3.1,1c-0.4,1.5,1.2,1.8,2.1,2.5
		c2.3,1.9,4.7,3.7,7.1,5.5c0.7,0.5,1.7,0.9,1.3,2c-0.4,1-1.5,0.9-2.3,0.8c-3.6-0.2-6.9-1.6-10.3-2.6c-1.5-0.5-3-0.9-5.3-1.7
		c1.8,5,4.4,8.4,6.9,11.9c0.6,0.9,2.3,1.6,1.1,2.9c-0.9,1-2.2,0.2-3.3-0.2c-4.7-2.1-8.8-5.3-13.5-8.6c-0.5,4.7,1.7,8.2,2.2,12
		c0.1,1.1,1.1,2.5-0.4,3.2c-1.1,0.5-2-0.5-2.7-1.2c-4.2-4.3-7.4-9.4-10.8-14.4c-1.4-2,0.3-4.4-0.4-6.7c-5.7,6.4-5.8,14.2-0.3,20.1
		c1.9,2.1,2.3,5.1,3.5,7.6c1.1,2.3,2.5,4.6,4.9,0.9c0.8-1.2,2.2-2.8,3.6-1.7c1.2,0.9,4,1.6,2.4,4.4c-0.5,1,1.4,1.6,0.9,2.8
		c-5.9-0.8-6-0.7-5.1,3.8c-6.3-5.8-14.2-9.4-19.3-16.9c-0.6,7.7,3.8,12.8,8.7,17.6c-2.1,1.4-4-0.2-6,0.7c-0.1,2.6,3,3.5,3.4,5.8
		c-0.7,0.8-1.5,0.7-2.1,0.4c-4.1-1.6-7.9-3-9.2,3.5c-0.4,2.1-2.4,1.4-2.7-0.2c-1.2-6.1-4.7-5.4-8.8-3.4c-0.4,0.2-0.9,0.2-1.3,0.2
		c-0.3,0-0.5-0.2-0.8-0.3c0-2.4,3.3-3.1,3-6c-1.6,0-3.1,0-5.7,0c5.7-5.3,9.4-10.6,9.3-18.2c-5.4,7.1-13.2,11-19.5,16.9
		c0.8-4.6,0.4-4.9-4.8-3.7c-1.5-1.3,1.1-2,0.3-3.5c-1.2-2.3,1.5-3,2.6-3.9c1.2-0.9,2.6,0.4,3.3,1.5c2.8,4.3,4.1,1.4,5.3-1.2
		c1.4-3.1,2.4-6.1,4.9-8.8c2.7-2.9,4-6.6,1.8-10.8c-1.3-2.5-2-5.3-3.3-7.9c0.5,9.7-7.1,14.5-11.6,21.1c-0.7,1.1-2,2.4-3.3,1.5
		c-1.4-0.9-0.2-2.5,0.1-3.7c0.7-3.5,2.3-6.9,2.1-11.3c-3,2-5.6,3.9-8.3,5.5c-1.8,1.1-3.6,2.1-5.5,3c-1,0.5-2.4,1.2-3.2-0.1
		c-0.8-1.1,0.6-1.8,1.2-2.6c1.7-2.7,3.5-5.2,5.2-7.9c0.6-1,1.9-2,1.1-3.2c-0.9-1.3-2.1,0-3.2,0.3c-3.1,0.9-6.2,2-9.3,2.8
		c-1.6,0.4-3.5,1-5.3-1c3.2-2.5,6.4-4.9,9.4-7.4c0.7-0.6,2.2-0.9,1.6-2.3c-0.4-1-1.5-0.7-2.3-0.8c-3.4-0.4-6.8-0.7-10.1-1.2
		c-1.3-0.2-3.1-0.5-3.3-1.9c-0.2-1.7,1.8-1.7,3-2.1c2.8-0.9,5.7-1.6,8.5-2.4c0.8-0.2,1.9-0.3,1.9-1.5c0-1.1-1.2-1.1-2-1.5
		c-3.4-1.4-6.8-2.8-10.2-4.4c-1.2-0.5-2.8-1.4-2.6-2.8c0.4-1.9,2.2-0.8,3.4-0.8c4.2-0.1,8.4,0,12.6,0c0.1-0.4,0.2-0.8,0.3-1.2
		c-3.3-2.3-6.7-4.6-10-7c-1-0.7-1.9-1.4-2.7-2.3c-0.7-0.7-1.8-1.5-1.2-2.7c0.6-1.4,1.8-0.5,2.7-0.3c4.1,0.9,8.1,2.3,12.3,2
		c0.4-0.5,0.8-1,1.1-1.5c-2.2-1.9-4.6-3.6-6.7-5.6c-1.3-1.2-2.2-2.8-2.6-4.7c-0.2-0.9-0.5-1.9,0.2-2.6c0.8-0.9,1.7-0.3,2.4,0.1
		c8.1,4.3,16.1,8.7,24.7,13.4c-4.2,3.1-7.9,5.8-8,11.2c0,3.5,0.9,6.5,4.3,9.9c-1.4-4.4-3.1-7.6-2.1-11.2c1.1-3.7,3.3-6.2,7.3-7
		c0.5,1.5-0.7,2-1.2,2.8c-2.3,3.5-2.1,6.8,0.9,9.8c3.6,3.6,8.3,4.5,13,5.2c1.3,0.2,2.3-0.5,2.8-1.7c1.3-3.2,2.5-6.5,3.8-9.7
		c0.3-0.8,0.9-2.3,0.2-2.3c-4-0.1-4.6-5.4-8.4-5.5c1.4-3.3,7.6-6.7,11.9-6.5c4.3,0.2,7,2.3,8.6,6.6c2,5.6,0.4,11.2,0.9,16.8
		c0.2,2.6,1,2.4,2.5,2.1c2.2-0.4,4.3-0.9,6.4-1.7c8-3.1,9.5-8.2,4.7-15.3C154.7,87.3,156.7,91,156.3,102z"/>
	<g>
		<path class="st0" d="M72.9,23.1h19.3v4.5H81v3.8h10.6v4.4H81v7.8h-8.1V23.1z"/>
		<path class="st0" d="M97.2,43.8c-2.7,0-4.6-1.3-4.6-3.2c0-1.9,1.9-3.2,4.6-3.2c2.7,0,4.6,1.3,4.6,3.2
			C101.9,42.5,100.1,43.8,97.2,43.8L97.2,43.8z"/>
		<path class="st0" d="M106.4,38c1.8,0.6,4.8,1.3,7.8,1.3c2.8,0,4.1-0.6,4.1-1.7c0-1-1.3-1.5-4.7-2.3c-5.1-1.2-8.5-3.1-8.5-6.2
			c0-3.6,4.5-6.4,12.1-6.4c3.6,0,6.2,0.5,8.1,1l-1.7,4.4c-1.3-0.4-3.5-1-6.5-1c-2.5,0-3.8,0.6-3.8,1.5c0,1,1.6,1.4,5.4,2.4
			c5.4,1.4,7.8,3.3,7.8,6.2c0,3.5-4,6.5-12.8,6.5c-3.6,0-7.1-0.6-8.8-1.2L106.4,38z"/>
		<path class="st0" d="M134.9,43.8c-2.7,0-4.6-1.3-4.6-3.2c0-1.9,1.9-3.2,4.6-3.2c2.7,0,4.6,1.3,4.6,3.2
			C139.5,42.5,137.7,43.8,134.9,43.8L134.9,43.8z"/>
		<path class="st0" d="M150.9,43.5l-9.5-20.4h8.8l3.2,8c0.9,2.3,1.7,4.5,2.5,7.2h0.1c0.7-2.5,1.6-4.8,2.5-7.1l3.3-8.1h8.6l-9.8,20.4
			H150.9z"/>
		<path class="st0" d="M174.1,43.8c-2.7,0-4.6-1.3-4.6-3.2c0-1.9,1.9-3.2,4.6-3.2c2.7,0,4.6,1.3,4.6,3.2
			C178.8,42.5,176.9,43.8,174.1,43.8L174.1,43.8z"/>
	</g>
	<g>
		<path class="st74" d="M28,174.3c7.4-2.9,14.4-6.1,21.1-9.8c1.5,2.6,3.2,5.1,4.9,7.5c-0.8,0.6-1.7,1.1-2.5,1.7
			c-1-1.4-2-2.8-2.9-4.2c-1.8,1-3.6,2-5.4,3c0.9,1.4,1.9,2.8,2.9,4.2c-0.9,0.5-1.8,1.1-2.7,1.6c-1-1.4-2-2.9-2.9-4.4
			c-3.2,1.7-6.6,3.3-10,4.7C29.7,177.1,28.8,175.7,28,174.3z"/>
		<path class="st74" d="M49.5,185.7c-0.3-0.4-0.6-0.8-0.9-1.1c-3,2.1-6.1,4.1-9.3,6.1c-1.1-1.3-2.1-2.6-3.2-4
			c6.9-3.9,13.5-8,19.7-12.5c1.4,1.7,2.8,3.4,4.3,5c0.9,1,1.5,1.9,1.6,2.7c0.1,0.8-0.1,1.6-0.5,2.3c-0.5,0.7-1.2,1.6-2.3,2.5
			c-1.1,0.9-2,1.5-2.8,1.7c-0.8,0.2-1.7,0-2.6-0.5c0.6,0.8,0.7,1.7,0.3,2.6c-0.4,0.9-1.8,2.3-4.2,4.2c-2.4,1.9-3.6,2.9-3.7,3.1
			c-1.2-1.2-2.4-2.4-3.5-3.7c0.1-0.2,2.4-1.8,6.7-5c0.8-0.6,1.3-1.2,1.3-1.6C50.4,187,50.1,186.5,49.5,185.7z M50.8,183
			c0.4,0.4,0.8,0.9,1.2,1.3c0.4,0.4,0.7,0.7,1.1,0.7c0.3,0.1,0.7,0,1.2-0.2c0.5-0.2,1.1-0.7,1.9-1.3c0,0,0.1-0.1,0.1-0.1
			c1-0.8,1.5-1.4,1.6-1.8c0.1-0.4-0.1-1-0.7-1.6c-0.3-0.3-0.6-0.7-0.9-1C54.5,180.3,52.7,181.7,50.8,183z"/>
		<path class="st74" d="M48,199.9c7.3-3.8,14-8.2,20.2-13c1.4,1.1,2.8,2.2,4.2,3.3c-3.8,6.7-7.6,13.5-11.3,20.3
			c-1.3-0.9-2.7-1.9-4-2.8c0.8-1.2,1.5-2.3,2.3-3.5c-1.4-1.1-2.8-2.2-4.1-3.3c-1.2,0.8-2.4,1.6-3.6,2.4
			C50.5,202.1,49.2,201,48,199.9z M61,201.8c2.1-3.3,4.2-6.5,6.3-9.8c0,0,0,0-0.1,0c-3.1,2.5-6.2,4.9-9.5,7.2
			C58.9,200.1,59.9,200.9,61,201.8z"/>
		<path class="st74" d="M64.2,212.4c4.9-6,9.6-12.2,14-18.5c0.9,0.6,1.8,1.1,2.8,1.6c-0.8,4.8-1.5,9.7-1.9,14.6c1-1.8,2-3.7,2.9-5.6
			c1.3-2.2,2.5-4.3,3.8-6.5c1.1,0.5,2.2,1.1,3.4,1.6c-3.5,6.8-7.1,13.6-11,20.3c-1.1-0.5-2.3-1.1-3.4-1.6c0.3-5.2,0.9-10.3,1.7-15.3
			c-1.1,1.7-2.1,3.4-3.2,5.1c-1.6,2.3-3.2,4.5-4.9,6.7C66.9,214.1,65.5,213.3,64.2,212.4z"/>
		<path class="st74" d="M82.9,222.1c3.5-6.9,6.8-13.8,10-20.8c1.3,0.5,2.6,1,3.9,1.4c-1.3,3.3-2.6,6.6-3.9,9.8
			c2.8-2.7,5.5-5.6,7.9-8.5c1.4,0.4,2.8,0.8,4.2,1.1c-2.5,3.3-5.2,6.4-8.1,9.5c0.5,4.2,1.1,8.4,2,12.6c-1.8-0.5-3.7-1-5.5-1.5
			c-0.5-3.9-0.9-7.8-1.1-11.6c-1.4,3.3-2.8,6.6-4.3,9.9C86.2,223.4,84.6,222.8,82.9,222.1z"/>
		<path class="st74" d="M101.4,227.8c2.1-7.4,4-14.8,5.9-22.2c3.1,0.7,6.2,1.2,9.3,1.5c-0.1,1-0.3,2-0.4,3c-1.8-0.2-3.6-0.5-5.4-0.8
			c-0.4,2-0.8,4-1.2,6c1.8,0.3,3.6,0.6,5.3,0.8c-0.1,1-0.3,2-0.4,3c-1.9-0.2-3.7-0.5-5.5-0.8c-0.7,3.5-1.5,7-2.3,10.5
			C104.9,228.6,103.1,228.2,101.4,227.8z"/>
		<path class="st74" d="M130.7,229.4c-1.2,1-3.2,1.6-5.9,1.5c-2.7-0.1-4.7-0.7-5.8-1.8c-1.1-1.1-1.6-2.7-1.3-4.8
			c0.6-5.6,1.2-11.3,1.7-16.9c1.4,0.1,2.8,0.2,4.2,0.3c-0.3,5.6-0.5,11.3-0.8,16.9c-0.1,1.2,0,1.9,0.1,2.2c0.2,0.3,0.3,0.5,0.6,0.7
			c0.2,0.2,0.7,0.3,1.5,0.4c0.8,0,1.3-0.1,1.6-0.4c0.3-0.3,0.5-0.7,0.6-1.1c0.1-0.4,0.1-1,0.1-1.7c0-5.6,0-11.3,0-16.9
			c1.4,0,2.8,0,4.2-0.1c0.3,5.7,0.5,11.3,0.8,17C132.4,226.8,131.9,228.4,130.7,229.4z"/>
		<path class="st74" d="M142.9,218.9c-0.5,0.1-1,0.1-1.5,0.2c0.6,3.6,1.1,7.1,1.7,10.7c-1.8,0.2-3.6,0.4-5.4,0.6
			c-0.8-7.6-1.6-15.2-2.3-22.8c2.3-0.2,4.6-0.5,6.9-0.8c1.4-0.2,2.5-0.2,3.3,0.2c0.8,0.3,1.4,0.9,1.8,1.7c0.4,0.8,0.8,1.9,1.1,3.2
			c0.3,1.4,0.4,2.4,0.2,3.2c-0.2,0.8-0.8,1.4-1.8,1.9c1.1-0.1,1.9,0.3,2.6,1.1c0.6,0.8,1.3,2.6,2.1,5.5c0.8,2.8,1.2,4.4,1.4,4.5
			c-1.8,0.4-3.5,0.7-5.3,1c-0.2-0.1-0.8-2.8-1.9-8c-0.2-1-0.5-1.6-0.9-1.9C144.6,218.8,143.9,218.7,142.9,218.9z M141,216.4
			c0.6-0.1,1.2-0.2,1.8-0.3c0.6-0.1,1-0.3,1.2-0.5c0.2-0.2,0.4-0.6,0.4-1.1c0-0.5-0.1-1.2-0.3-2.2c0,0,0-0.1,0-0.1
			c-0.2-1.2-0.5-2-0.8-2.3c-0.3-0.3-0.9-0.4-1.9-0.3c-0.5,0.1-1,0.1-1.5,0.2C140.3,211.9,140.6,214.1,141,216.4z"/>
		<path class="st74" d="M159.4,226.4c-2.2-6.3-4.3-12.6-6.3-18.9c-1.1,0.3-2.1,0.6-3.2,0.8c-0.3-1-0.5-1.9-0.8-2.9
			c3.4-0.8,6.7-1.8,10-2.9c0.4,0.9,0.8,1.9,1.1,2.8c-1,0.4-2,0.7-3,1c2.3,6.2,4.7,12.4,7.3,18.6
			C162.9,225.4,161.1,225.9,159.4,226.4z"/>
		<path class="st74" d="M167,199.1c0.6-0.3,1.3-0.6,1.9-0.9c1.7,7.7,3,15.6,3.8,23.6c-0.8,0.3-1.6,0.7-2.5,1
			C169.6,214.8,168.5,206.9,167,199.1z"/>
		<path class="st74" d="M183,217c-2.9-7.2-5.9-14.3-8.9-21.4c1.6-0.9,3.1-1.8,4.6-2.8c5.7,5.4,11.9,10.5,18.7,15.1
			c-1.3,1-2.6,1.9-4,2.8c-1.1-0.9-2.3-1.8-3.4-2.7c-1.5,1-3,1.9-4.5,2.8c0.6,1.2,1.2,2.5,1.9,3.7C185.9,215.4,184.5,216.2,183,217z
			 M187.8,206.1c-3.1-2.6-6-5.4-8.8-8.2c0,0,0,0-0.1,0c1.8,3.4,3.5,6.9,5.3,10.4C185.4,207.6,186.6,206.9,187.8,206.1z"/>
		<path class="st74" d="M200.5,205.5c-0.8-0.8-1.6-1.5-2.3-2.3c1.1-0.9,2.2-1.8,3.2-2.7c0.8,0.7,1.6,1.5,2.4,2.2
			C202.7,203.7,201.6,204.6,200.5,205.5z"/>
		<path class="st74" d="M207.9,199c-6.2-4.9-12-10-17.6-15.3c1.2-1.1,2.4-2.3,3.6-3.5c5.1,2.8,10.5,5.2,16.3,7.2
			c-3.8-4.2-7.7-8.5-11.5-12.7c1-1.3,2.1-2.6,3-4c6.4,4.2,13.2,8,20.3,11.5c-0.8,1.2-1.7,2.5-2.6,3.7c-2.6-1.4-5.1-2.9-7.6-4.4
			c-2.3-1.4-4.5-2.9-6.6-4.4c3.8,4,7.7,8,11.5,12.1c-0.8,1-1.7,2.1-2.6,3.1c-5.7-1.9-11.1-4.2-16.3-6.8c2.1,1.7,4.2,3.3,6.3,4.9
			c2.3,1.8,4.6,3.5,7,5.3C210.1,196.9,209,198,207.9,199z"/>
		<path class="st74" d="M224.9,177.9c-1-0.4-2-0.9-3-1.3c0.7-1.2,1.4-2.3,2-3.5c1,0.4,2,0.8,3.1,1.2
			C226.3,175.5,225.6,176.7,224.9,177.9z"/>
	</g>
</g>
</svg>
