<?xml version="1.0" encoding="utf-8"?>
<!-- Generator: Adobe Illustrator 17.0.0, SVG Export Plug-In . SVG Version: 6.00 Build 0)  -->
<!DOCTYPE svg PUBLIC "-//W3C//DTD SVG 1.1//EN" "http://www.w3.org/Graphics/SVG/1.1/DTD/svg11.dtd" [
	<!ENTITY ns_flows "http://ns.adobe.com/Flows/1.0/">
	<!ENTITY ns_extend "http://ns.adobe.com/Extensibility/1.0/">
	<!ENTITY ns_ai "http://ns.adobe.com/AdobeIllustrator/10.0/">
	<!ENTITY ns_graphs "http://ns.adobe.com/Graphs/1.0/">
]>
<svg version="1.1" id="Layer_2" xmlns:x="&ns_extend;" xmlns:i="&ns_ai;" xmlns:graph="&ns_graphs;"
	 xmlns="http://www.w3.org/2000/svg" xmlns:xlink="http://www.w3.org/1999/xlink" xmlns:a="http://ns.adobe.com/AdobeSVGViewerExtensions/3.0/"
	 x="0px" y="0px" width="256px" height="256px" viewBox="0 0 256 256" style="enable-background:new 0 0 256 256;"
	 xml:space="preserve">
<style type="text/css">
	.st0{fill:#FFFFFF;}
	.st1{fill:#54B948;}
	.st2{fill:#1D8C8E;}
	.st3{fill:#14DEAC;}
	.st4{fill:#1466AC;}
	.st5{fill:#757575;}
	.st6{fill:#B69442;}
	.st7{fill:#1A234D;}
	.st8{fill:#AA0629;}
	.st9{fill:#FF4A49;}
	.st10{fill:#3C6643;}
	.st11{fill:none;stroke:#FF4A49;stroke-miterlimit:10;}
	.st12{fill:#E70084;}
	.st13{fill:#508A72;}
	.st14{fill:#01A663;}
	.st15{fill:#015297;}
	.st16{fill:#B0B0B0;}
	.st17{fill:#E1062F;}
	.st18{fill:#D80000;stroke:#FFFFFF;stroke-width:2;stroke-miterlimit:10;}
	.st19{fill:#D80000;}
	.st20{fill:#8ABE23;}
	.st21{fill:#1D1D1B;}
	.st22{fill:#FEFEFE;}
	.st23{fill:#FF0000;}
	.st24{fill:#FF1D1B;}
	.st25{fill:#6DB2DE;}
	.st26{fill:#FF1D25;}
	.st27{fill:#FFDA00;}
	.st28{fill:#024D9E;}
	.st29{fill:#6B97C6;}
	.st30{fill:#000078;}
	.st31{fill:none;stroke:#FFFFFF;stroke-width:6;stroke-linecap:round;stroke-miterlimit:10;}
	.st32{fill:#FFEE34;}
	.st33{fill:none;stroke:#000000;stroke-width:4;stroke-miterlimit:10;}
	.st34{fill:#D11E24;}
	.st35{fill:#D71F26;}
	.st36{fill:#020000;}
	.st37{fill:none;stroke:#000000;stroke-width:2;stroke-miterlimit:10;}
	.st38{clip-path:url(#SVGID_2_);}
	.st39{fill:#00317D;}
	.st40{fill:#00737D;}
	.st41{fill:#ED1C24;}
	.st42{fill:#2678C7;}
	.st43{fill:#1853A6;}
	.st44{fill:#CB0000;}
	.st45{fill:#E61C21;}
	.st46{clip-path:url(#SVGID_4_);}
	.st47{fill:#6BDEF1;}
	.st48{clip-path:url(#SVGID_6_);}
	.st49{fill:#0165B2;}
	.st50{fill:#DE1134;}
	.st51{fill:#00A668;}
	.st52{fill:#FFE60B;}
	.st53{fill:#843D00;stroke:#000000;stroke-miterlimit:10;}
	.st54{fill:#EC1F27;}
	.st55{fill:#162984;}
	.st56{fill:#1853A6;stroke:#1853A6;stroke-miterlimit:10;}
	.st57{fill:none;}
	.st58{fill:none;stroke:#1853A6;stroke-width:0.9;stroke-miterlimit:10;}
	.st59{fill:#1853A6;stroke:#1853A6;stroke-width:0.9;stroke-miterlimit:10;}
	.st60{fill:#B5985A;}
	.st61{fill:#FFE60B;stroke:#000000;stroke-width:6;stroke-miterlimit:10;}
	.st62{fill:#008DCD;}
	.st63{fill:#009939;}
	.st64{fill:#2E3092;}
	.st65{fill:#EE3224;}
	.st66{fill:#005BAB;}
	.st67{fill:#D30027;}
	.st68{fill:#FFFFFF;stroke:#D30027;stroke-width:10;stroke-miterlimit:10;}
	.st69{fill:#E81C2F;}
	.st70{fill:#DC032B;}
	.st71{fill:#F25448;}
	.st72{fill:#FFFFFF;stroke:#F25448;stroke-width:6;stroke-miterlimit:10;}
	.st73{fill:#05A08D;}
	.st74{fill:#1875CE;}
	.st75{fill:#D72427;}
	.st76{fill:#004993;}
	.st77{fill:#007BB0;}
	.st78{fill:#FFEB00;}
	.st79{fill:#664A9E;}
	.st80{fill:#F4C701;}
	.st81{fill:#EBBE12;}
	.st82{fill:#44B3DB;}
	.st83{fill:#F6FF82;}
	.st84{fill:#FFC918;}
	.st85{fill:#0361A4;}
	.st86{fill:#009FE3;}
	.st87{fill:#E30217;}
	.st88{fill:#FDEA00;}
	.st89{fill:#E91B00;}
	.st90{fill:#2B2763;}
	.st91{fill:#EE1A22;}
	.st92{fill:#F1AA25;}
	.st93{fill:#93000C;}
	.st94{fill:none;stroke:#1D1D1B;stroke-width:4;}
	.st95{fill:#3E4E70;}
	.st96{fill:#096CB6;}
	.st97{fill:#0559A8;}
	.st98{fill:#F9ED1A;}
	.st99{fill:#949494;}
	.st100{fill:#FFD033;}
	.st101{fill:#243D89;}
	.st102{fill:#F8C936;}
	.st103{fill:#D44128;}
	.st104{fill:#ED1B23;}
	.st105{fill:#0C529C;}
	.st106{fill:#E31E24;}
	.st107{fill:#0263B0;}
	.st108{fill:#007AC2;}
	.st109{fill:#EF3D1F;}
	.st110{fill:#EE1C24;}
	.st111{fill:#FDEA00;stroke:#000000;stroke-width:0.6509;}
	.st112{fill:#FDEA00;stroke:#000000;stroke-width:0.6979;}
	.st113{fill:#46A0BE;}
	.st114{fill:#005FA5;}
	.st115{fill:#00904C;}
	.st116{fill:#E21F26;}
	.st117{fill:#FD0001;}
	.st118{fill:#0066B3;}
	.st119{fill:#E20019;}
	.st120{fill:#0171BC;}
	.st121{fill:#01305D;}
	.st122{fill:#1B7EE9;}
	.st123{fill:#BA0D0B;}
	.st124{fill:none;stroke:#000000;stroke-width:3;stroke-miterlimit:10;}
	.st125{fill:#FFFFFF;stroke:#000000;stroke-width:0.8836;stroke-miterlimit:10;}
	.st126{fill:#FFFFFF;stroke:#000000;stroke-width:0.9759;stroke-miterlimit:10;}
	.st127{fill:#0053A1;}
	.st128{fill:#FFE100;}
	.st129{fill:#FFE500;}
	.st130{fill:none;stroke:#FFE500;stroke-width:2;stroke-miterlimit:10;}
	.st131{fill:#01AFF3;}
	.st132{fill:#ED1B28;}
	.st133{fill:#E2000A;}
</style>
<g>
	<g>
		<path class="st0" d="M128,249.5C61,249.5,6.5,195,6.5,128S61,6.5,128,6.5S249.5,61,249.5,128S195,249.5,128,249.5z"/>
		<path d="M128,244.6c-64.3,0-116.6-52.3-116.6-116.6S63.7,11.4,128,11.4S244.6,63.7,244.6,128S192.3,244.6,128,244.6z"/>
		<path d="M128,6.3c32.5,0,63.1,12.7,86.1,35.7c23,23,35.7,53.6,35.7,86.1s-12.7,63.1-35.7,86.1c-23,23-53.6,35.7-86.1,35.7
			s-63.1-12.7-86.1-35.7c-23-23-35.7-53.6-35.7-86.1s12.7-63.1,35.7-86.1C64.9,18.9,95.5,6.3,128,6.3 M128,2C58.4,2,2,58.4,2,128
			s56.4,126,126,126s126-56.4,126-126S197.6,2,128,2L128,2z"/>
	</g>
	<g>
		<path class="st52" d="M71.6,101.4c1.2,2.7,3.4,6.1,5.4,7.4c2.1,1.4,3.1-1.1,3-5.6c-0.1-4.6-1.2-7.5-3.7-11.5
			c-3.9-6.7-5.7-13.1-5.6-21.8c0.2-11.6,3.5-24.1,9.5-30.1c2.5-2.3,4.5-2.2,5.8-0.8c-0.7,7.1-1.3,14-1.8,20.8
			c-1-1.3-2.5-2.8-4.7-1.6c-1.9,1.1-3,4.3-3.1,7.8c-0.1,4,0.9,5.3,3.8,9.4c4.1,5.3,5.9,15.4,6.1,28.3c0.4,17.9-2.6,29.4-9,22.3
			c-2.7-2.8-5.2-7.6-6.3-10.5C71.3,111,71.4,106.3,71.6,101.4z"/>
		<path class="st52" d="M90.6,33.7c1.9-2.5,4.5-5.5,8.1-7.8c3.8-2.4,6.5-1.3,8.4,4.9c1.7,5.6,2.7,16.4,2.6,28.6
			c-0.1,13.5-1.1,24.4-2.9,31.6c-2.1,8.4-5.3,11.7-8.6,11.2c-0.6-0.1-1.1-0.4-1.6-0.6c0.2,13.1,0.5,26.2,0.9,39.5
			c-2.3-1.3-4.5-2.8-6.8-4.4C89.5,101.8,89.4,67.9,90.6,33.7z M96.6,79c0.4,0.3,0.8,0.3,1.4,0.2c2.8-0.1,4.4-7.2,4.5-17.2
			c0.1-9.1-1.1-15.1-3.6-14c-0.9,0.4-1.5,0.9-1.9,1.4C96.8,59.3,96.7,69.2,96.6,79z"/>
		<path class="st52" d="M119.5,149.2c-3.2-44.2-6.3-87.7-8.2-128.9c2.7-1,5.3-1.8,8-2.3c0.7,17.2,1.5,34.7,2.4,52.2
			c0.8,14.5,1.5,29.2,2.1,45.5c0,0,0.1,0,0.1,0c0.6-15.7,1.3-31.1,2-45.2c0.9-17.8,1.8-35.6,2.7-53.3c2.6,0.1,5.2,0.4,7.8,0.9
			c-2.3,42.9-5.6,87.5-8.4,131.7C125.2,149.9,122.3,149.7,119.5,149.2z"/>
		<path class="st52" d="M160.6,134.7c-1.8,3.5-5.4,8.9-8.5,10.4c-4.9,2.4-8.1-2.1-10.3-11.7c-2.5-10.9-3.8-28.7-3.7-48.5
			c0.1-46,6.6-66.8,14.8-61.5c3.3,1.9,5.8,6.2,7.2,9.2c-0.2,7.4-0.5,15-0.8,22.7c-1.4-2.9-3-5.3-5.6-6.2c-4.4-1.7-7.7,8.5-7.7,35.5
			c0,24.6,2.9,36.7,6.7,35.5c0.8-0.2,1.5-0.8,1.9-1.4c0.1-7.2,0.2-14.4,0.3-21.5c-1.1,0.1-2.2,0.2-3.3,0.3c0.1-8.1,0.1-16.3,0-24.4
			c3.4,0.4,6.7,0.8,10,1.3C161.6,94.4,161.3,114.4,160.6,134.7z"/>
		<path class="st52" d="M183.9,115.7c-1.5,3-4.5,8.4-7.3,11.2c-4.3,4.3-7.2,2.8-9-3.9c-2.1-7.5-3-21.8-3-37.7
			c0.1-37.8,5.7-50.4,12.8-42.9c2.8,2.7,4.8,6.3,5.9,8.7c-0.1,4.7-0.3,9.4-0.6,14.3c-1.1-2.1-2.4-4-4.6-5.2
			c-3.7-2.2-6.5,4.3-6.6,24.7c-0.1,18.6,2.3,26.7,5.6,24.5c0.7-0.4,1.3-1,1.6-1.6c0.1-4.9,0.2-9.8,0.3-14.7
			c-0.9,0.2-1.8,0.4-2.7,0.7c0.1-5.7,0.1-11.5,0.1-17.2c2.9,0.4,5.6,0.8,8.1,1.1C184.6,90.4,184.4,102.9,183.9,115.7z"/>
	</g>
	<g>
		<path class="st0" d="M27.4,176c0.9,0.7,2.5,1.4,4,1.4c1.5,0,2.3-0.9,2.3-2.1c0-1.3-0.7-2-2.6-3.1c-2.8-1.8-4.3-4.3-4.3-7.4
			c0-4.4,2.3-7.9,6.5-7.9c1.8,0,3.1,0.5,4.1,1.2l-0.8,5.3c-0.7-0.4-1.8-1.1-3.3-1.1c-1.4,0-2.1,0.8-2.1,1.9c0,1.2,0.7,1.8,2.8,3.1
			c2.9,1.7,4.1,4.2,4.1,7.5c0,4.5-2.3,8-6.9,8c-1.9,0-3.7-0.7-4.6-1.3L27.4,176z"/>
		<path class="st0" d="M40.4,157.5c1.2-0.3,2.8-0.5,5.1-0.5c2.4,0,4.1,0.6,5.3,2c1.1,1.3,1.8,3.5,1.8,6c0,2.7-0.6,4.9-1.6,6.3
			c-1.3,1.7-3.2,2.5-5.2,2.5c-0.4,0-0.7,0-1-0.1v8.7h-4.3V157.5z M44.7,168.6c0.2,0.1,0.5,0.1,0.9,0.1c1.7,0,2.7-1.5,2.7-3.6
			c0-1.9-0.8-3.3-2.4-3.3c-0.6,0-0.9,0.1-1.2,0.1V168.6z"/>
		<path class="st0" d="M59.1,157.1v25.2h-4.4v-25.2H59.1z"/>
		<path class="st0" d="M72,172h-5.4v5h6.1v5.4H62.2v-25.2h10.1v5.4h-5.7v4.3H72V172z"/>
		<path class="st0" d="M75.1,157.1h4.4v19.8h5.9v5.4H75.1V157.1z"/>
		<path class="st0" d="M89.6,182.4l-4.9-25.2h4.8l1.6,10.1c0.5,2.8,0.9,5.6,1.2,8.7h0.1c0.4-3,0.8-5.9,1.2-8.6l1.6-10.1h4.7
			l-5.1,25.2H89.6z"/>
		<path class="st0" d="M111.3,172h-5.4v5h6.1v5.4h-10.4v-25.2h10.1v5.4h-5.7v4.3h5.4V172z"/>
		<path class="st0" d="M114.4,157.5c1.2-0.3,3-0.5,5-0.5c2.4,0,4.3,0.5,5.5,1.9c1.1,1.3,1.6,3,1.6,5.5c0,3-1.4,5.3-2.8,6.1v0.1
			c1.1,0.7,1.7,2.3,2.1,4.6c0.5,2.6,1,6.2,1.3,7.2h-4.5c-0.2-0.7-0.7-2.9-1.1-5.9c-0.4-3-1-3.7-2.2-3.7h-0.6v9.5h-4.3V157.5z
			 M118.8,168.1h1c1.6,0,2.5-1.3,2.5-3.3c0-1.9-0.7-3-2.2-3.1c-0.7,0-1.1,0-1.3,0.1V168.1z"/>
		<path class="st0" d="M139,172h-5.4v5h6.1v5.4h-10.4v-25.2h10.1v5.4h-5.7v4.3h5.4V172z"/>
		<path class="st0" d="M146.5,157.1v25.2h-4.4v-25.2H146.5z"/>
		<path class="st0" d="M149.5,182.4v-25.2h4.8l2.6,8.2c0.8,2.2,1.7,5.5,2.4,8.2h0.1c-0.2-3-0.4-6.9-0.4-11v-5.4h4v25.2h-4.5
			l-2.7-8.4c-0.8-2.5-1.8-5.8-2.5-8.5h-0.1c0.1,3,0.2,7,0.2,11.3v5.7H149.5z"/>
		<path class="st0" d="M179.5,181.4c-1.1,0.6-3.3,1.3-5.2,1.3c-3,0-5.1-1.1-6.5-3.1c-1.6-2.2-2.4-5.7-2.4-9.5
			c0.1-8.8,4.2-13.1,9.3-13.1c2,0,3.6,0.6,4.4,1.1l-0.8,5.3c-0.8-0.6-1.8-0.9-3.4-0.9c-2.7,0-4.8,2.2-4.8,7.6c0,4.9,1.9,7.4,4.2,7.4
			c0.5,0,0.9-0.1,1.1-0.2v-4.6h-2v-5.1h6.1V181.4z"/>
		<path class="st0" d="M186.5,157.1V172c0,3.7,0.8,5.5,2.3,5.5c1.5,0,2.3-1.6,2.3-5.5v-14.9h4.4v14.3c0,7.4-2.3,11.3-6.8,11.3
			c-4.5,0-6.6-3.9-6.6-11.5v-14.1H186.5z"/>
		<path class="st0" d="M198.5,182.4v-25.2h4.8l2.6,8.2c0.8,2.2,1.7,5.5,2.4,8.2h0.1c-0.2-3-0.4-6.9-0.4-11v-5.4h4v25.2h-4.5
			l-2.7-8.4c-0.8-2.5-1.8-5.8-2.5-8.5h-0.1c0.1,3,0.2,7,0.2,11.3v5.7H198.5z"/>
		<path class="st0" d="M228.4,181.4c-1.1,0.6-3.3,1.3-5.2,1.3c-3,0-5.1-1.1-6.5-3.1c-1.6-2.2-2.4-5.7-2.4-9.5
			c0.1-8.8,4.2-13.1,9.3-13.1c2,0,3.6,0.6,4.4,1.1l-0.8,5.3c-0.8-0.6-1.8-0.9-3.4-0.9c-2.7,0-4.8,2.2-4.8,7.6c0,4.9,1.9,7.4,4.2,7.4
			c0.5,0,0.9-0.1,1.1-0.2v-4.6h-2v-5.1h6.1V181.4z"/>
		<path class="st0" d="M71.1,191.1c1-0.3,3.1-0.5,5-0.5c2.2,0,3.7,0.3,5,1.4c1.2,1,2,2.8,2,5.1c0,2.1-0.8,4.2-2.7,5.4v0.1
			c2.1,0.8,3.2,3.1,3.2,6c0,2.3-0.7,4.1-1.7,5.3c-1.2,1.5-3.2,2.4-6.8,2.4c-1.8,0-3.2-0.2-4.1-0.4V191.1z M75.5,200.6h0.8
			c1.7,0,2.5-1.1,2.5-2.8c0-1.5-0.7-2.6-2.1-2.6c-0.6,0-1,0-1.3,0.1V200.6z M75.5,211.4c0.3,0.1,0.6,0.1,1.1,0.1
			c1.4,0,2.6-0.9,2.6-3.1c0-2.1-1.2-3.1-2.7-3.1h-1V211.4z"/>
		<path class="st0" d="M90.1,210.4l-0.8,5.6h-4.5l4.6-25.2h5.7l4.5,25.2H95l-0.9-5.6H90.1z M93.5,205.6l-0.7-4.6
			c-0.2-1.4-0.5-3.7-0.7-5.2H92c-0.3,1.5-0.5,3.8-0.7,5.2l-0.7,4.6H93.5z"/>
		<path class="st0" d="M103,216v-9.9l-4.9-15.3h4.9l1.3,5.7c0.4,1.7,0.7,3.2,1,4.8h0.1c0.3-1.6,0.6-3.1,1-4.9l1.2-5.7h4.8l-5,15.1
			V216H103z"/>
		<path class="st0" d="M113.6,191.1c1.2-0.3,3-0.5,5-0.5c2.4,0,4.3,0.5,5.5,1.9c1.1,1.3,1.6,3,1.6,5.5c0,3-1.4,5.3-2.8,6.1v0.1
			c1.1,0.7,1.7,2.3,2.1,4.6c0.5,2.6,1,6.2,1.3,7.2h-4.5c-0.2-0.7-0.7-2.9-1.1-5.9c-0.4-3-1-3.7-2.2-3.7h-0.6v9.5h-4.3V191.1z
			 M117.9,201.7h1c1.6,0,2.5-1.3,2.5-3.3c0-1.9-0.7-3-2.2-3.1c-0.7,0-1.1,0-1.3,0.1V201.7z"/>
		<path class="st0" d="M138.1,205.6h-5.4v5h6.1v5.4h-10.4v-25.2h10.1v5.4h-5.7v4.3h5.4V205.6z"/>
		<path class="st0" d="M145.5,190.7v14.9c0,3.7,0.8,5.5,2.3,5.5c1.5,0,2.3-1.6,2.3-5.5v-14.9h4.4V205c0,7.4-2.3,11.3-6.8,11.3
			c-4.5,0-6.6-3.9-6.6-11.5v-14.1H145.5z"/>
		<path class="st0" d="M160.3,196.3h-3.9v-5.6h12.3v5.6h-4V216h-4.4V196.3z"/>
		<path class="st0" d="M175.1,190.7v9.5h4.7v-9.5h4.4V216h-4.4v-10h-4.7v10h-4.4v-25.2H175.1z"/>
	</g>
</g>
</svg>
