<?xml version="1.0" encoding="utf-8"?>
<!-- Generator: Adobe Illustrator 17.0.0, SVG Export Plug-In . SVG Version: 6.00 Build 0)  -->
<!DOCTYPE svg PUBLIC "-//W3C//DTD SVG 1.1//EN" "http://www.w3.org/Graphics/SVG/1.1/DTD/svg11.dtd" [
	<!ENTITY ns_flows "http://ns.adobe.com/Flows/1.0/">
	<!ENTITY ns_extend "http://ns.adobe.com/Extensibility/1.0/">
	<!ENTITY ns_ai "http://ns.adobe.com/AdobeIllustrator/10.0/">
	<!ENTITY ns_graphs "http://ns.adobe.com/Graphs/1.0/">
]>
<svg version="1.1" id="Layer_2" xmlns:x="&ns_extend;" xmlns:i="&ns_ai;" xmlns:graph="&ns_graphs;"
	 xmlns="http://www.w3.org/2000/svg" xmlns:xlink="http://www.w3.org/1999/xlink" xmlns:a="http://ns.adobe.com/AdobeSVGViewerExtensions/3.0/"
	 x="0px" y="0px" width="256px" height="256px" viewBox="0 0 256 256" style="enable-background:new 0 0 256 256;"
	 xml:space="preserve">
<style type="text/css">
	.st0{fill:#FFFFFF;}
	.st1{fill:#54B948;}
	.st2{fill:#1D8C8E;}
	.st3{fill:#14DEAC;}
	.st4{fill:#1466AC;}
	.st5{fill:#757575;}
	.st6{fill:#B69442;}
	.st7{fill:#1A234D;}
	.st8{fill:#AA0629;}
	.st9{fill:#FF4A49;}
	.st10{fill:#3C6643;}
	.st11{fill:none;stroke:#FF4A49;stroke-miterlimit:10;}
	.st12{fill:#E70084;}
	.st13{fill:#508A72;}
	.st14{fill:#01A663;}
	.st15{fill:#015297;}
	.st16{fill:#B0B0B0;}
	.st17{fill:#E1062F;}
	.st18{fill:#D80000;stroke:#FFFFFF;stroke-width:2;stroke-miterlimit:10;}
	.st19{fill:#D80000;}
	.st20{fill:#8ABE23;}
	.st21{fill:#1D1D1B;}
	.st22{fill:#FEFEFE;}
	.st23{fill:#FF0000;}
	.st24{fill:#FF1D1B;}
	.st25{fill:#6DB2DE;}
	.st26{fill:#FF1D25;}
	.st27{fill:#FFDA00;}
	.st28{fill:#024D9E;}
	.st29{fill:#6B97C6;}
	.st30{fill:#000078;}
	.st31{fill:none;stroke:#FFFFFF;stroke-width:6;stroke-linecap:round;stroke-miterlimit:10;}
	.st32{fill:#FFEE34;}
	.st33{fill:none;stroke:#000000;stroke-width:4;stroke-miterlimit:10;}
	.st34{fill:#D11E24;}
	.st35{fill:#D71F26;}
	.st36{fill:#020000;}
	.st37{fill:none;stroke:#000000;stroke-width:2;stroke-miterlimit:10;}
	.st38{clip-path:url(#SVGID_2_);}
	.st39{fill:#00317D;}
	.st40{fill:#00737D;}
	.st41{fill:#ED1C24;}
	.st42{fill:#2678C7;}
	.st43{fill:#1853A6;}
	.st44{fill:#CB0000;}
	.st45{fill:#E61C21;}
	.st46{clip-path:url(#SVGID_4_);}
	.st47{fill:#6BDEF1;}
	.st48{clip-path:url(#SVGID_6_);}
	.st49{fill:#0165B2;}
	.st50{fill:#DE1134;}
	.st51{fill:#00A668;}
	.st52{fill:#FFE60B;}
	.st53{fill:#843D00;stroke:#000000;stroke-miterlimit:10;}
	.st54{fill:#EC1F27;}
	.st55{fill:#162984;}
	.st56{fill:#1853A6;stroke:#1853A6;stroke-miterlimit:10;}
	.st57{fill:none;}
	.st58{fill:none;stroke:#1853A6;stroke-width:0.9;stroke-miterlimit:10;}
	.st59{fill:#1853A6;stroke:#1853A6;stroke-width:0.9;stroke-miterlimit:10;}
	.st60{fill:#B5985A;}
	.st61{fill:#FFE60B;stroke:#000000;stroke-width:6;stroke-miterlimit:10;}
	.st62{fill:#008DCD;}
	.st63{fill:#009939;}
	.st64{fill:#2E3092;}
	.st65{fill:#EE3224;}
	.st66{fill:#005BAB;}
	.st67{fill:#D30027;}
	.st68{fill:#FFFFFF;stroke:#D30027;stroke-width:10;stroke-miterlimit:10;}
	.st69{fill:#E81C2F;}
	.st70{fill:#DC032B;}
	.st71{fill:#F25448;}
	.st72{fill:#FFFFFF;stroke:#F25448;stroke-width:6;stroke-miterlimit:10;}
	.st73{fill:#05A08D;}
	.st74{fill:#1875CE;}
	.st75{fill:#D72427;}
	.st76{fill:#004993;}
	.st77{fill:#007BB0;}
	.st78{fill:#FFEB00;}
	.st79{fill:#664A9E;}
	.st80{fill:#F4C701;}
	.st81{fill:#EBBE12;}
	.st82{fill:#44B3DB;}
	.st83{fill:#F6FF82;}
	.st84{fill:#FFC918;}
	.st85{fill:#0361A4;}
	.st86{fill:#009FE3;}
	.st87{fill:#E30217;}
	.st88{fill:#FDEA00;}
	.st89{fill:#E91B00;}
	.st90{fill:#2B2763;}
	.st91{fill:#EE1A22;}
	.st92{fill:#F1AA25;}
	.st93{fill:#93000C;}
	.st94{fill:none;stroke:#1D1D1B;stroke-width:4;}
	.st95{fill:#3E4E70;}
	.st96{fill:#096CB6;}
	.st97{fill:#0559A8;}
	.st98{fill:#F9ED1A;}
	.st99{fill:#949494;}
	.st100{fill:#FFD033;}
	.st101{fill:#243D89;}
	.st102{fill:#F8C936;}
	.st103{fill:#D44128;}
	.st104{fill:#ED1B23;}
	.st105{fill:#0C529C;}
	.st106{fill:#E31E24;}
	.st107{fill:#0263B0;}
	.st108{fill:#007AC2;}
	.st109{fill:#EF3D1F;}
	.st110{fill:#EE1C24;}
	.st111{fill:#FDEA00;stroke:#000000;stroke-width:0.6509;}
	.st112{fill:#FDEA00;stroke:#000000;stroke-width:0.6979;}
	.st113{fill:#46A0BE;}
	.st114{fill:#005FA5;}
	.st115{fill:#00904C;}
	.st116{fill:#E21F26;}
	.st117{fill:#FD0001;}
	.st118{fill:#0066B3;}
	.st119{fill:#E20019;}
	.st120{fill:#0171BC;}
	.st121{fill:#01305D;}
	.st122{fill:#1B7EE9;}
	.st123{fill:#BA0D0B;}
	.st124{fill:none;stroke:#000000;stroke-width:3;stroke-miterlimit:10;}
	.st125{fill:#FFFFFF;stroke:#000000;stroke-width:0.8836;stroke-miterlimit:10;}
	.st126{fill:#FFFFFF;stroke:#000000;stroke-width:0.9759;stroke-miterlimit:10;}
	.st127{fill:#0053A1;}
	.st128{fill:#FFE100;}
	.st129{fill:#FFE500;}
	.st130{fill:none;stroke:#FFE500;stroke-width:2;stroke-miterlimit:10;}
	.st131{fill:#01AFF3;}
	.st132{fill:#ED1B28;}
	.st133{fill:#E2000A;}
</style>
<g>
	<g>
		<g>
			<path class="st79" d="M127,245.3c-4.5-7.1-14.9-10.9-27.1-15.5c-18.7-7-42.1-15.8-61.3-39.3c-22.7-27.8-33.8-69-34.1-126
				c9-0.3,29-2.5,38-15.7C47.1,42,48,34.1,45,24.2C53.6,25.7,62,27,69.9,27c0,0,0,0,0,0c33.9,0,50.9-14.1,56.6-20
				c5.2,6.5,21.3,22,57.1,22c0,0,0,0,0,0c9.3,0,19.5-1.6,30.1-3.7c-3.1,10.3-2.3,18.8,2.5,25.8c7.4,10.7,22.6,14.9,35.2,15.4
				c-0.3,56.1-11.6,96.7-34.5,124.1c-19.5,23.3-43.1,32-62.2,39C142.3,234.3,131.7,238.1,127,245.3z"/>
			<path class="st80" d="M126.4,9.6c7,7.6,23.9,20.9,57.3,20.9c8.4,0,17.3-0.8,26.7-2.5c-2.1,9.4-0.8,17.5,3.9,24.3
				c7.4,10.8,22,15.5,34.7,16.4c-0.3,28.3-3.6,53.1-9.9,73.6c-5.6,18.5-13.7,34.1-24.1,46.6c-19.1,22.8-42.4,31.4-61.1,38.3
				c-11.1,4.1-21.2,7.8-26.9,14c-5.6-6.1-15.5-9.8-26.3-13.8c-18.5-6.9-41.4-15.5-60.2-38.6c-10.3-12.6-18.3-28.5-23.8-47.2
				C10.6,120.7,7.3,95.6,7,66.8c10.2-0.6,28.7-3.7,37.6-16.6c4.5-6.5,5.7-14.3,3.8-23.3c7.5,1.2,14.7,1.7,21.6,1.7
				C101.4,28.5,118.9,16.5,126.4,9.6 M126.7,2c0,0-15.5,21.6-56.8,21.6c-8.5,0-18-0.9-28.7-3.1C54.2,53.3,22.7,62,2,62
				c0,192.7,124.9,154.5,125,192c0.1-37.5,127,0,127-190c-19.5,0-49.4-9.6-36.4-42.5c-12.9,2.9-24.2,4.1-33.9,4.1
				C140.2,25.6,126.7,2,126.7,2L126.7,2z"/>
		</g>
	</g>
	<g>
		<path class="st81" d="M14.1,82.4c4.4-2.2,8.9-4.4,13.4-6.3c0.7,1.7,1.5,3.3,2.2,5c-2.5,1.1-4.9,2.2-7.4,3.4c0.7,1.5,1.4,3,2.1,4.5
			c2.3-1.1,4.5-2.1,6.8-3.1c0.7,1.6,1.4,3.3,2.2,4.9c-2.2,1-4.4,2-6.6,3c1.4,3,2.8,5.9,4.2,8.9c-1.7,0.8-3.5,1.7-5.2,2.6
			C21.9,97.6,18,90,14.1,82.4z"/>
		<path class="st81" d="M55,92.2c-0.6,0.6-2.2,1.7-4.4,2.5c-7.2,2.7-12.6-1.4-15.3-7.6c-3.7-8.4,0.3-14.9,6.7-17.2
			c2.4-0.9,4.5-1.1,5.4-0.9c0.2,1.8,0.4,3.6,0.6,5.3c-1-0.1-2.3,0-3.8,0.5c-3.3,1.2-5.1,4.5-3.1,9.4c1.8,4.5,4.9,6.2,8.4,4.9
			c1.1-0.4,2.4-1.1,3.1-1.7C53.4,89,54.2,90.6,55,92.2z"/>
		<path class="st81" d="M73.8,76.4c-2.4,0.6-4.8,1.2-7.2,1.8c0.4,1.6,0.9,3.3,1.3,4.9c2.6-0.7,5.2-1.4,7.8-2
			c0.4,1.8,0.8,3.5,1.2,5.3c-4.4,1-8.8,2.2-13.1,3.5c-2.4-8.2-4.9-16.4-7.3-24.5c4.7-1.4,9.4-2.7,14.2-3.8c0.4,1.8,0.8,3.5,1.3,5.3
			c-2.6,0.6-5.3,1.3-7.9,2c0.4,1.4,0.8,2.8,1.1,4.2c2.4-0.7,4.9-1.3,7.3-1.9C73,72.9,73.4,74.7,73.8,76.4z"/>
		<path class="st81" d="M74.7,61c1.7-0.7,4.2-1.4,7-2c3.4-0.6,6.1-0.6,8.2,0.6c1.7,1.1,2.7,2.7,3.1,5.1c0.4,3-1.1,5.6-2.9,6.8
			c0,0,0,0.1,0,0.1c1.6,0.5,2.7,1.9,3.5,4.1c1,2.5,2.3,6,2.8,7c-1.9,0.3-3.9,0.6-5.8,0.9c-0.4-0.7-1.3-2.7-2.4-5.6
			c-1.1-2.9-2-3.4-3.6-3.1c-0.3,0.1-0.6,0.1-0.8,0.2c0.6,3.2,1.2,6.3,1.9,9.5c-1.8,0.4-3.7,0.7-5.5,1.1C78.4,77.5,76.6,69.3,74.7,61
			z M82.9,70.4c0.4-0.1,0.9-0.2,1.3-0.3c2.2-0.4,3.1-2,2.8-3.9c-0.3-1.9-1.6-2.9-3.6-2.5c-1,0.2-1.5,0.3-1.8,0.5
			C82.1,66.3,82.5,68.3,82.9,70.4z"/>
		<path class="st81" d="M97,79c2.2-5.8,4.7-11.6,7.3-17.4c0,0,0-0.1,0-0.1c-2.9,0.3-5.8,0.6-8.7,1c-0.2-1.8-0.5-3.6-0.7-5.5
			c5.6-0.8,11.1-1.3,16.7-1.7c0.1,1.4,0.2,2.7,0.3,4.1c-2.7,5.5-5.3,11.1-7.6,16.7c0,0,0,0.1,0,0.1c2.9-0.3,5.9-0.6,8.8-0.8
			c0.1,1.8,0.3,3.7,0.4,5.5c-5.3,0.4-10.7,0.9-16,1.7C97.3,81.4,97.2,80.2,97,79z"/>
		<path class="st81" d="M133,79.4c-1.5,0.5-4.3,1.2-6.8,1.3c-3.9,0.1-6.6-1-8.5-2.9c-2.2-2.2-3.5-5.6-3.7-9.5
			c-0.6-8.9,5.1-13.7,12.5-13.8c2.9,0,5.1,0.6,6.3,1.1c-0.4,1.8-0.8,3.6-1.2,5.4c-1.2-0.6-2.6-1-4.8-0.9c-3.8,0-6.7,2.4-6.5,7.9
			c0.2,5,2.8,7.5,5.9,7.4c0.6,0,1.2-0.1,1.5-0.2c0-1.6,0-3.1,0-4.7c-0.9,0-1.8,0-2.7,0c0-1.7-0.1-3.4-0.1-5.2c2.8-0.1,5.6-0.1,8.4,0
			C133.2,70,133.1,74.7,133,79.4z"/>
		<path class="st81" d="M150.1,70.8c-2.4-0.2-4.9-0.4-7.3-0.5c-0.1,1.7-0.2,3.4-0.3,5c2.7,0.2,5.3,0.4,8,0.6
			c-0.2,1.8-0.3,3.6-0.5,5.4c-4.5-0.4-9-0.7-13.5-0.8c0.3-8.5,0.5-17.1,0.8-25.6c4.8,0.2,9.7,0.5,14.5,0.9c-0.2,1.8-0.3,3.6-0.5,5.4
			c-2.7-0.2-5.4-0.4-8-0.6c-0.1,1.4-0.2,2.9-0.2,4.3c2.5,0.1,5,0.3,7.5,0.5C150.4,67.2,150.3,69,150.1,70.8z"/>
		<path class="st81" d="M155.9,56.5c1.5-0.1,4.4,0,7.2,0.3c3.1,0.4,5.2,1,6.9,2.5c1.6,1.3,2.4,3.3,2,5.5c-0.4,2.1-1.8,4-4.5,4.7
			c0,0,0,0.1,0,0.1c2.7,1.3,3.8,3.9,3.3,6.8c-0.4,2.3-1.6,3.9-3.2,4.9c-1.8,1.2-4.6,1.7-9.1,1.1c-2.3-0.3-4.1-0.7-5.3-1
			C154.1,73.2,155,64.9,155.9,56.5z M160.8,66.9c0.4,0,0.8,0.1,1.1,0.2c2.3,0.3,3.6-0.6,3.9-2.3c0.2-1.5-0.6-2.7-2.5-3
			c-0.9-0.1-1.4-0.2-1.8-0.1C161.3,63.3,161,65.1,160.8,66.9z M159.4,77.7c0.4,0.1,0.8,0.2,1.5,0.3c1.8,0.2,3.5-0.4,3.9-2.7
			c0.3-2.1-1.2-3.3-3.2-3.6c-0.4-0.1-0.9-0.1-1.3-0.2C159.9,73.5,159.7,75.6,159.4,77.7z"/>
		<path class="st81" d="M177.3,59.7c1.8,0,4.4,0.3,7.2,1c3.4,0.8,5.9,1.9,7.3,3.8c1.2,1.7,1.4,3.6,0.8,5.9c-0.8,2.9-3.2,4.7-5.3,5.1
			c0,0,0,0.1,0,0.1c1.3,1.1,1.7,2.8,1.6,5.2c-0.1,2.7-0.3,6.4-0.2,7.5c-1.9-0.5-3.8-1-5.7-1.5c-0.1-0.8-0.1-3,0-6.1
			c0.2-3.1-0.4-3.9-2.1-4.3c-0.3-0.1-0.6-0.1-0.8-0.2c-0.7,3.2-1.4,6.3-2.1,9.5c-1.8-0.4-3.7-0.8-5.5-1.1
			C174.1,76.3,175.7,68,177.3,59.7z M181.1,71.5c0.4,0.1,0.9,0.2,1.3,0.3c2.1,0.5,3.7-0.6,4.1-2.4c0.4-1.8-0.3-3.2-2.3-3.7
			c-0.9-0.2-1.5-0.3-1.8-0.3C182,67.4,181.6,69.5,181.1,71.5z"/>
		<path class="st81" d="M204.2,66.1c-2.5,8.2-5.1,16.3-7.6,24.5c-1.8-0.6-3.7-1.1-5.5-1.6c2.3-8.2,4.6-16.4,7-24.6
			C200.2,64.9,202.2,65.5,204.2,66.1z"/>
		<path class="st81" d="M217.2,97c-1.6,0-4.5-0.5-6.9-1.4c-3.7-1.4-5.8-3.4-7-5.9c-1.3-2.8-1.2-6.5,0-10.2
			c2.8-8.5,9.9-10.9,16.9-8.2c2.8,1.1,4.7,2.5,5.5,3.4c-1.1,1.5-2.1,3-3.2,4.5c-0.9-1-2.1-1.9-4.2-2.7c-3.6-1.4-7.2-0.3-9,4.9
			c-1.6,4.7-0.1,8,2.8,9.1c0.6,0.2,1.2,0.4,1.5,0.4c0.6-1.5,1.1-2.9,1.7-4.4c-0.8-0.3-1.7-0.7-2.5-1c0.6-1.6,1.2-3.2,1.8-4.8
			c2.7,1,5.3,2.1,8,3.2C220.9,88.3,219.1,92.6,217.2,97z"/>
		<path class="st81" d="M236.6,95.5c-2.2-1.1-4.5-2.2-6.8-3.3c-0.7,1.5-1.4,3.1-2.1,4.6c2.5,1.2,4.9,2.4,7.4,3.6
			c-0.8,1.6-1.6,3.2-2.5,4.8c-4.1-2.1-8.3-4.1-12.5-5.9c3.4-7.8,6.8-15.7,10.2-23.5c4.5,2,9,4.1,13.5,6.3c-0.8,1.6-1.6,3.2-2.5,4.8
			c-2.5-1.2-4.9-2.5-7.4-3.6c-0.6,1.3-1.2,2.6-1.8,3.9c2.3,1.1,4.6,2.2,6.9,3.4C238.3,92.3,237.5,93.9,236.6,95.5z"/>
	</g>
	<g>
		<g>
			<path class="st81" d="M102.6,206.9l-1.1,6.2h-6.1l6.2-27.9h7.8l6.2,27.9h-6.3l-1.3-6.2H102.6z M107.2,201.6l-0.9-5.1
				c-0.3-1.6-0.7-4.1-1-5.8h-0.1c-0.3,1.7-0.7,4.2-1,5.8l-0.9,5.1H107.2z"/>
			<path class="st81" d="M123.1,185.2v16.4c0,4.1,1.1,6,3.1,6s3.1-1.7,3.1-6v-16.4h6V201c0,8.2-3.1,12.5-9.2,12.5
				c-6.1,0-9-4.3-9-12.7v-15.6H123.1z"/>
			<path class="st81" d="M152.9,201.7h-7.4v5.5h8.3v5.9h-14.3v-27.9h13.8v5.9h-7.8v4.7h7.4V201.7z"/>
		</g>
	</g>
	<circle class="st81" cx="125" cy="133.7" r="41.4"/>
	<circle class="st82" cx="125" cy="133.7" r="36.1"/>
	<g>
		<g>
			<path class="st82" d="M106.1,126c0.2-1-0.2-1.6-1.1-2.2c-1.3-1-1.3-2.4-0.4-3.7c0.9-1.2,2.2-1.4,3.5-0.7c1.4,0.8,1.9,2.2,1.1,3.5
				c-0.8,1.2-0.2,2,0.4,2.8c1.7,2.3,3.4,4.8,6.8,4.4c3.4-0.4,4.6-3.3,5.7-6c0.6-1.4,0.9-2.9,1.3-4.4c0.2-0.9,0.2-1.6-0.7-2.4
				c-1.5-1.3-1.5-3.3-0.3-4.5c1.2-1.2,3.2-1.1,4.4,0.1c1.2,1.3,1.1,3-0.4,4.5c-0.4,0.4-0.9,0.7-0.8,1.5c0.7,3.3,1.5,6.6,3.8,9.3
				c2.2,2.6,5.2,2.8,7.7,0.5c1.1-1,1.9-2.2,2.8-3.3c0.6-0.7,0.8-1.3,0.2-2.2c-0.9-1.5-0.5-2.9,1-3.7c1.3-0.7,2.6-0.5,3.5,0.8
				c1,1.4,0.8,2.9-0.6,3.8c-1,0.7-1,1.4-0.9,2.3c0.1,0.8,0.2,1.7,0.4,2.5c0.5,2.1,1.1,4.2,3.4,4.8c2.1,0.6,3.6-0.8,5.1-2
				c0.8-0.6,1.1-1.2,0.8-2.3c-0.4-1.3,0.2-2.5,1.6-2.8c1.3-0.3,2.5,0.1,2.9,1.6c0.4,1.5-0.1,2.7-1.7,3c-1.2,0.2-1.4,1-1.8,1.9
				c-1.3,3-2.6,5.9-3.8,8.9c-0.5,1.2-1,1.4-2.3,1.1c-15.4-4.3-30.8-4.3-46.2,0c-1.2,0.3-1.8,0.1-2.3-1.1c-1.1-2.6-2.2-5.2-3.3-7.9
				c-0.6-1.4-1-2.7-2.8-3.2c-1.2-0.3-1.6-1.6-1-2.9c0.5-1.3,1.5-1.7,2.8-1.4c1.3,0.3,1.9,1.3,1.8,2.6c-0.1,2.1,1.3,3.8,3.7,4.5
				c2.2,0.7,3.6-0.4,4.5-2.2C105.8,129.8,106.1,128,106.1,126z"/>
			<path class="st83" d="M100.7,144.1c-1.6,0-2.2-1.4-2.4-1.8c-0.6-1.5-1.3-3.1-1.9-4.6c-0.5-1.1-0.9-2.2-1.4-3.2l-0.1-0.3
				c-0.5-1.3-0.9-2-2-2.3c-0.8-0.2-1.4-0.7-1.7-1.4c-0.4-0.8-0.4-1.9,0-2.9c0.7-1.7,2.2-2.4,4-2c1.7,0.4,2.7,1.8,2.6,3.6
				c-0.1,1.6,1,2.9,3,3.5c0.3,0.1,0.7,0.2,1,0.2l0,0c0.6,0,1.5-0.2,2.4-1.8c0.7-1.3,1.1-2.9,1.1-5l0-0.2c0.1-0.4,0.1-0.6-0.7-1.2
				c-1.7-1.3-1.9-3.3-0.6-5.1c1.1-1.6,3-2,4.8-1c1,0.5,1.6,1.4,1.9,2.3c0.2,0.9,0.1,1.8-0.5,2.7c-0.4,0.6-0.3,0.8,0.4,1.7l0.3,0.4
				c1.5,2,3,3.9,5.5,3.6c2.8-0.4,3.8-2.8,4.9-5.3l0.1-0.2c0.4-1,0.7-2.1,1-3.2c0.1-0.4,0.2-0.7,0.3-1.1c0.2-0.7,0.2-0.9-0.4-1.4
				c-0.9-0.8-1.5-1.9-1.5-3c0-1.1,0.4-2.2,1.2-2.9c0.7-0.7,1.7-1.1,2.8-1.1c1.1,0,2.2,0.5,3,1.2c1.6,1.7,1.5,4-0.4,5.9
				c-0.1,0.1-0.2,0.2-0.3,0.2c-0.1,0.1-0.2,0.2-0.3,0.3c0.6,3.1,1.4,6.4,3.6,8.9c1.8,2.1,4.2,2.3,6.2,0.4c0.7-0.6,1.2-1.3,1.8-2.1
				c0.3-0.4,0.6-0.8,0.9-1.1c0.4-0.5,0.4-0.6,0.1-1.1c-0.6-0.9-0.8-1.9-0.5-2.8c0.2-0.9,0.9-1.7,1.9-2.3c1.7-1,3.6-0.5,4.8,1.1
				c0.7,1,0.9,2,0.8,2.9c-0.2,0.9-0.8,1.7-1.7,2.3c-0.5,0.3-0.6,0.6-0.5,1.4c0.1,1,0.2,1.7,0.4,2.4c0.5,2.2,1.1,3.6,2.7,4.1
				c1.4,0.4,2.6-0.5,4-1.6l0.3-0.2c0.6-0.5,0.6-0.6,0.4-1.2c-0.3-0.9-0.2-1.8,0.2-2.6c0.4-0.8,1.2-1.3,2.2-1.6
				c2-0.5,3.6,0.4,4.1,2.3c0.3,1.1,0.2,2.1-0.3,2.8c-0.3,0.5-0.9,1.1-2.2,1.4c-0.5,0.1-0.7,0.4-1,1.1l-1,2.2c-1,2.2-2,4.5-2.9,6.8
				c-0.3,0.8-0.9,1.8-2.3,1.8c-0.3,0-0.7-0.1-1.2-0.2c-7.6-2.1-15.3-3.2-22.9-3.2c-7.6,0-15.3,1.1-22.8,3.2
				C101.4,144,101,144.1,100.7,144.1z M94.1,127.4c-0.4,0-0.8,0.1-1.2,0.9c-0.2,0.4-0.2,0.9-0.1,1.2c0.1,0.2,0.2,0.3,0.4,0.3
				c2.2,0.5,2.9,2.2,3.4,3.5l0.1,0.3c0.4,1.1,0.9,2.1,1.4,3.2c0.7,1.5,1.3,3.1,2,4.7c0.2,0.6,0.4,0.6,0.5,0.6c0.1,0,0.3,0,0.6-0.1
				c7.7-2.2,15.6-3.3,23.4-3.3c7.8,0,15.6,1.1,23.4,3.3c0.3,0.1,0.5,0.1,0.6,0.1c0.1,0,0.2,0,0.4-0.6c0.9-2.3,1.9-4.6,2.9-6.9l1-2.2
				c0.1-0.1,0.1-0.3,0.2-0.5c-0.2,0.2-0.3,0.3-0.5,0.5l-0.3,0.2c-1.2,1-2.6,2.2-4.5,2.2c-0.4,0-0.9-0.1-1.3-0.2
				c-2.8-0.8-3.6-3.3-4.1-5.6c-0.2-0.8-0.3-1.6-0.4-2.6c-0.1-1.2,0-2.4,1.4-3.3c0.5-0.3,0.7-0.6,0.8-1c0.1-0.5-0.2-1-0.4-1.4
				c-0.6-0.8-1.3-1-2.2-0.5c-0.4,0.2-0.8,0.5-1,1c-0.1,0.4,0,0.8,0.3,1.3c1,1.6,0.3,2.7-0.3,3.4c-0.3,0.4-0.6,0.7-0.9,1.1
				c-0.6,0.8-1.3,1.6-2,2.3c-1.3,1.2-2.8,1.9-4.3,1.9c-1.8,0-3.5-0.9-4.8-2.5c-2.5-2.9-3.3-6.6-4-9.8c-0.2-1.2,0.5-1.8,0.9-2.2
				c0.1-0.1,0.1-0.1,0.2-0.2c0.8-0.8,1.4-1.9,0.3-3.1c-0.7-0.8-2.2-0.8-2.9-0.1c-0.4,0.4-0.6,0.9-0.6,1.4c0,0.6,0.3,1.1,0.8,1.6
				c1.4,1.2,1.3,2.5,1,3.4c-0.1,0.4-0.2,0.7-0.3,1.1c-0.3,1.1-0.6,2.3-1.1,3.5l-0.1,0.2c-1.1,2.7-2.5,6-6.4,6.5
				c-3.7,0.5-5.7-2.1-7.4-4.4l-0.3-0.4c-0.7-0.9-1.6-2.1-0.5-4c0.2-0.4,0.3-0.8,0.2-1.1c-0.1-0.4-0.4-0.8-0.9-1
				c-0.9-0.5-1.6-0.4-2.2,0.4c-0.7,0.9-0.6,1.7,0.2,2.3c0.8,0.6,1.7,1.6,1.4,3.1c0,2.3-0.5,4.2-1.3,5.8c-1,1.9-2.4,2.9-4.2,2.9l0,0
				c-0.5,0-1-0.1-1.5-0.2c-2.8-0.9-4.5-3-4.4-5.5c0.1-1.1-0.5-1.4-1.1-1.6C94.4,127.4,94.3,127.4,94.1,127.4z M155.2,127.4
				c-0.2,0-0.4,0-0.6,0.1c-0.4,0.1-0.7,0.3-0.9,0.6c-0.2,0.3-0.1,0.7,0,1c0.3,0.8,0.2,1.5,0,2c0.4-0.4,0.9-0.8,1.7-0.9
				c0.4-0.1,0.7-0.2,0.9-0.5c0.2-0.3,0.2-0.7,0.1-1.3C156.1,127.7,155.8,127.4,155.2,127.4z"/>
		</g>
		<g>
			<path class="st82" d="M123.8,142.2c8.1,0,15.3,0.8,22.4,2.8c0.8,0.2,2.5,0.1,1.6,1.7c-0.7,1.3-0.2,3.9-3.1,3.2
				c-13.4-3.2-26.8-3.2-40.2,0c-2.9,0.7-2.4-2-3.1-3.3c-0.8-1.6,1-1.4,1.7-1.6c2.8-0.7,5.7-1.4,8.6-1.9
				C115.9,142.4,120.2,142.1,123.8,142.2z"/>
			<path class="st83" d="M145.6,151c-0.3,0-0.7,0-1.1-0.1c-13.1-3.1-26.5-3.1-39.8,0c-0.4,0.1-0.8,0.1-1.1,0.1c-2.2,0-2.6-1.9-2.8-3
				c-0.1-0.4-0.2-0.8-0.3-1c-0.4-0.7-0.4-1.4-0.1-1.9c0.5-0.8,1.4-0.9,2.1-1c0.1,0,0.3,0,0.4,0c3.2-0.8,6-1.5,8.6-1.9
				c3.8-0.6,8-1,11.8-1l0.8,0c8.4,0,15.5,0.9,22.4,2.9c0.1,0,0.3,0.1,0.4,0.1c0.7,0.1,1.7,0.3,2.1,1.1c0.3,0.6,0.2,1.2-0.2,1.9
				c-0.1,0.2-0.2,0.6-0.3,1C148.2,149.1,147.8,151,145.6,151z M124.7,146.5c6.8,0,13.6,0.8,20.3,2.4c0.3,0.1,0.5,0.1,0.7,0.1
				c0.4,0,0.6-0.1,0.9-1.3c0.1-0.5,0.2-1.1,0.5-1.5v0c-0.1,0-0.3-0.1-0.4-0.1c-0.2,0-0.4-0.1-0.6-0.1c-6.7-1.9-13.7-2.8-21.9-2.8
				l-0.8,0c-3.6,0-7.7,0.3-11.4,1c-2.6,0.4-5.4,1-8.5,1.9c-0.2,0-0.4,0.1-0.7,0.1c-0.1,0-0.2,0-0.4,0c0.2,0.5,0.3,1,0.5,1.5
				c0.3,1.3,0.4,1.4,0.9,1.4c0.2,0,0.4,0,0.6-0.1C111,147.3,117.9,146.5,124.7,146.5z"/>
		</g>
	</g>
</g>
</svg>
