<?xml version="1.0" encoding="utf-8"?>
<!-- Generator: Adobe Illustrator 17.0.0, SVG Export Plug-In . SVG Version: 6.00 Build 0)  -->
<!DOCTYPE svg PUBLIC "-//W3C//DTD SVG 1.1//EN" "http://www.w3.org/Graphics/SVG/1.1/DTD/svg11.dtd" [
	<!ENTITY ns_flows "http://ns.adobe.com/Flows/1.0/">
	<!ENTITY ns_extend "http://ns.adobe.com/Extensibility/1.0/">
	<!ENTITY ns_ai "http://ns.adobe.com/AdobeIllustrator/10.0/">
	<!ENTITY ns_graphs "http://ns.adobe.com/Graphs/1.0/">
]>
<svg version="1.1" id="Layer_2" xmlns:x="&ns_extend;" xmlns:i="&ns_ai;" xmlns:graph="&ns_graphs;"
	 xmlns="http://www.w3.org/2000/svg" xmlns:xlink="http://www.w3.org/1999/xlink" xmlns:a="http://ns.adobe.com/AdobeSVGViewerExtensions/3.0/"
	 x="0px" y="0px" width="256px" height="256px" viewBox="0 0 256 256" style="enable-background:new 0 0 256 256;"
	 xml:space="preserve">
<style type="text/css">
	.st0{fill:#FFFFFF;}
	.st1{fill:#54B948;}
	.st2{fill:#1D8C8E;}
	.st3{fill:#14DEAC;}
	.st4{fill:#1466AC;}
	.st5{fill:#757575;}
	.st6{fill:#B69442;}
	.st7{fill:#1A234D;}
	.st8{fill:#AA0629;}
	.st9{fill:#FF4A49;}
	.st10{fill:#3C6643;}
	.st11{fill:none;stroke:#FF4A49;stroke-miterlimit:10;}
	.st12{fill:#E70084;}
	.st13{fill:#508A72;}
	.st14{fill:#01A663;}
	.st15{fill:#015297;}
	.st16{fill:#B0B0B0;}
	.st17{fill:#E1062F;}
	.st18{fill:#D80000;stroke:#FFFFFF;stroke-width:2;stroke-miterlimit:10;}
	.st19{fill:#D80000;}
	.st20{fill:#8ABE23;}
	.st21{fill:#1D1D1B;}
	.st22{fill:#FEFEFE;}
	.st23{fill:#FF0000;}
	.st24{fill:#FF1D1B;}
	.st25{fill:#6DB2DE;}
	.st26{fill:#FF1D25;}
	.st27{fill:#FFDA00;}
	.st28{fill:#024D9E;}
	.st29{fill:#6B97C6;}
	.st30{fill:#000078;}
	.st31{fill:none;stroke:#FFFFFF;stroke-width:6;stroke-linecap:round;stroke-miterlimit:10;}
	.st32{fill:#FFEE34;}
	.st33{fill:none;stroke:#000000;stroke-width:4;stroke-miterlimit:10;}
	.st34{fill:#D11E24;}
	.st35{fill:#D71F26;}
	.st36{fill:#020000;}
	.st37{fill:none;stroke:#000000;stroke-width:2;stroke-miterlimit:10;}
	.st38{clip-path:url(#SVGID_2_);}
	.st39{fill:#00317D;}
	.st40{fill:#00737D;}
	.st41{fill:#ED1C24;}
	.st42{fill:#2678C7;}
	.st43{fill:#1853A6;}
	.st44{fill:#CB0000;}
	.st45{fill:#E61C21;}
	.st46{clip-path:url(#SVGID_4_);}
	.st47{fill:#6BDEF1;}
	.st48{clip-path:url(#SVGID_6_);}
	.st49{fill:#0165B2;}
	.st50{fill:#DE1134;}
	.st51{fill:#00A668;}
	.st52{fill:#FFE60B;}
	.st53{fill:#843D00;stroke:#000000;stroke-miterlimit:10;}
	.st54{fill:#EC1F27;}
	.st55{fill:#162984;}
	.st56{fill:#1853A6;stroke:#1853A6;stroke-miterlimit:10;}
	.st57{fill:none;}
	.st58{fill:none;stroke:#1853A6;stroke-width:0.9;stroke-miterlimit:10;}
	.st59{fill:#1853A6;stroke:#1853A6;stroke-width:0.9;stroke-miterlimit:10;}
	.st60{fill:#B5985A;}
	.st61{fill:#FFE60B;stroke:#000000;stroke-width:6;stroke-miterlimit:10;}
	.st62{fill:#008DCD;}
	.st63{fill:#009939;}
	.st64{fill:#2E3092;}
	.st65{fill:#EE3224;}
	.st66{fill:#005BAB;}
	.st67{fill:#D30027;}
	.st68{fill:#FFFFFF;stroke:#D30027;stroke-width:10;stroke-miterlimit:10;}
	.st69{fill:#E81C2F;}
	.st70{fill:#DC032B;}
	.st71{fill:#F25448;}
	.st72{fill:#FFFFFF;stroke:#F25448;stroke-width:6;stroke-miterlimit:10;}
	.st73{fill:#05A08D;}
	.st74{fill:#1875CE;}
	.st75{fill:#D72427;}
	.st76{fill:#004993;}
	.st77{fill:#007BB0;}
	.st78{fill:#FFEB00;}
	.st79{fill:#664A9E;}
	.st80{fill:#F4C701;}
	.st81{fill:#EBBE12;}
	.st82{fill:#44B3DB;}
	.st83{fill:#F6FF82;}
	.st84{fill:#FFC918;}
	.st85{fill:#0361A4;}
	.st86{fill:#009FE3;}
	.st87{fill:#E30217;}
	.st88{fill:#FDEA00;}
	.st89{fill:#E91B00;}
	.st90{fill:#2B2763;}
	.st91{fill:#EE1A22;}
	.st92{fill:#F1AA25;}
	.st93{fill:#93000C;}
	.st94{fill:none;stroke:#1D1D1B;stroke-width:4;}
	.st95{fill:#3E4E70;}
	.st96{fill:#096CB6;}
	.st97{fill:#0559A8;}
	.st98{fill:#F9ED1A;}
	.st99{fill:#949494;}
	.st100{fill:#FFD033;}
	.st101{fill:#243D89;}
	.st102{fill:#F8C936;}
	.st103{fill:#D44128;}
	.st104{fill:#ED1B23;}
	.st105{fill:#0C529C;}
	.st106{fill:#E31E24;}
	.st107{fill:#0263B0;}
	.st108{fill:#007AC2;}
	.st109{fill:#EF3D1F;}
	.st110{fill:#EE1C24;}
	.st111{fill:#FDEA00;stroke:#000000;stroke-width:0.6509;}
	.st112{fill:#FDEA00;stroke:#000000;stroke-width:0.6979;}
	.st113{fill:#46A0BE;}
	.st114{fill:#005FA5;}
	.st115{fill:#00904C;}
	.st116{fill:#E21F26;}
	.st117{fill:#FD0001;}
	.st118{fill:#0066B3;}
	.st119{fill:#E20019;}
	.st120{fill:#0171BC;}
	.st121{fill:#01305D;}
	.st122{fill:#1B7EE9;}
	.st123{fill:#BA0D0B;}
	.st124{fill:none;stroke:#000000;stroke-width:3;stroke-miterlimit:10;}
	.st125{fill:#FFFFFF;stroke:#000000;stroke-width:0.8836;stroke-miterlimit:10;}
	.st126{fill:#FFFFFF;stroke:#000000;stroke-width:0.9759;stroke-miterlimit:10;}
	.st127{fill:#0053A1;}
	.st128{fill:#FFE100;}
	.st129{fill:#FFE500;}
	.st130{fill:none;stroke:#FFE500;stroke-width:2;stroke-miterlimit:10;}
	.st131{fill:#01AFF3;}
	.st132{fill:#ED1B28;}
	.st133{fill:#E2000A;}
</style>
<g>
	<g>
		<g>
			<path class="st0" d="M128,247.5C62.1,247.5,8.5,193.9,8.5,128S62.1,8.5,128,8.5S247.5,62.1,247.5,128S193.9,247.5,128,247.5z"/>
			<path class="st28" d="M128,13c30.7,0,59.6,12,81.3,33.7S243,97.3,243,128s-12,59.6-33.7,81.3S158.7,243,128,243
				s-59.6-12-81.3-33.7S13,158.7,13,128s12-59.6,33.7-81.3S97.3,13,128,13 M128,4C59.5,4,4,59.5,4,128s55.5,124,124,124
				s124-55.5,124-124S196.5,4,128,4L128,4z"/>
		</g>
		<circle class="st29" cx="128" cy="128" r="105.4"/>
	</g>
	<g>
		<path class="st30" d="M172.4,95c-0.3-0.8-0.3-1.5,0.5-1.9c0.8-0.4,1.3,0.1,1.7,0.6c0.5,0.6,0.9,1.3,1.3,2c0.1,0.2,0.2,0.4,0.5,0.3
			c0.1-0.1,0.2-0.3,0.3-0.4c0.2-0.6,0-1.2-0.4-1.7c-0.4-0.5-0.6-1.1-0.7-1.8c0-0.6,0.1-1.1,0.7-1.3c0.6-0.2,1.1,0,1.5,0.5
			c0.3,0.4,0.5,1.3,1.1,1c0.6-0.3,0-1-0.2-1.5c-0.5-1.2-0.3-2.4,0.1-3.7c-1,0.4-1.7,1-2.4,1.5c-0.9,0.6-1.8,1.3-2.8,1.9
			c-0.4,0.2-0.8,0.4-1.1,0.6c-3,1.7-4.7,2.8-7.3,3.8c-1,0.4-2,0.6-3,0.6c-0.9,0-1.5-0.5-1.7-1.3c-0.2-0.8,0.6-1,1.2-1.2
			c6.4-2.4,12.1-5.8,17.2-10.3c0.1,0,0.1-0.1,0.2-0.1c1.3-1,2.2-0.9,3,0.6c0.8-1.2,1-2.5,1.1-3.9c0.2-2.5,0-5.1,0.7-7.6
			c1.1-3.7,2.7-6.9,6.1-8.9c1.4-0.8,2.8-1.2,4.4-1.4c0.8-0.1,1,0.2,0.9,1c-0.3,1.4-0.8,2.5-2.3,3c-1.5,0.5-2.2,1.6-2.8,3
			c-0.1,0.2-0.2,0.4,0,0.6c0.2,0.2,0.4,0,0.6-0.2c1-0.7,2.2-1.3,3.4-1.7c0.9-0.3,1.1,0,1,0.9c-0.2,1.6-0.8,2.8-2.2,3.6
			c-1.2,0.6-1.8,1.7-2.2,3c-0.1,0.3-0.2,0.7,0,0.9c0.4,0.2,0.6-0.2,0.8-0.4c0.8-0.7,1.6-1.3,2.5-1.9c0.5-0.3,0.8-0.2,0.8,0.4
			c0,2.6-0.1,5.2-0.4,7.8c-0.3,2.2-1.7,3.7-3,5.3c-0.9,1-1,2.1-0.7,3.3c0.5,1.8,2.1,2.7,4,2.2c0.9-0.2,1.1,0,1,0.9
			c-0.1,1.2-0.4,2.3-1,3.3c-1.2,2.1-3.4,2.9-5.6,2.2c-0.9-0.3-1.8-0.6-2.7-0.5c-0.7,0-0.9-0.4-1-1c-0.1-0.7,0-1.4,0.3-2.2
			c-1.1,0.5-1.7,2.2-1.5,3.5c0.2,1,0.7,1.7,1.3,2.5c1.9,2.3,2.1,4.5,0.7,7.2c-0.9,1.7-2.2,3.1-3.7,4.3c-0.2,0.1-0.3,0.3-0.6,0.3
			c-0.3-0.1-0.2-0.4-0.2-0.7c-0.1-1.5,0-3-0.5-4.5c-0.2-0.4-0.3-0.9-0.7-1.2c-0.5-0.4-1-0.5-1.6-0.2c-0.6,0.3-0.8,0.7-0.7,1.3
			c0.1,0.8,0.3,1.6,0.5,2.4c0.3,1.7,0.1,3.4-0.5,5.1c-0.2,0.7-0.5,1-1.4,0.8c-1.4-0.4-2.9-0.8-4.4-1.1c-1.5-0.3-2.3-1.3-2.6-2.7
			c-0.9-4.6-2.4-8.9-5.2-12.8c-0.4-0.6-0.4-1.2,0.2-1.7c0.6-0.5,1.1-0.2,1.6,0.3c1.1,1.3,1.7,2.8,2.6,4.2c0.1,0.2,0.2,0.6,0.6,0.5
			c0.4-0.1,0.2-0.5,0.3-0.7c0.2-0.9,0-1.7-0.5-2.5c-0.4-0.8-0.9-1.6-1-2.5c0-0.5,0-1,0.6-1.3c0.6-0.3,1,0,1.3,0.4
			c0.8,0.8,1.3,1.9,1.8,2.9c0.2,0.3,0.3,1,0.8,0.8c0.4-0.1,0.3-0.7,0.3-1.2c0-0.2,0-0.5-0.1-0.7C173,96.9,172.5,95.6,172.4,95z"/>
		<path class="st30" d="M144,77.8c1.2-2.8,3.4-4.1,6.2-4.5c3.5-0.5,6.9,0.2,10.1,1.5c1.2,0.5,2.3,1,3.6,1.2c2.2,0.4,4.1,0,5.4-1.9
			c1.4-2,1-4-0.2-6c-0.1-0.2-0.2-0.3-0.3-0.4c-0.2-0.4-0.9-0.7-0.7-1.1c0.3-0.4,1-0.1,1.5,0.1c3.3,0.9,4.8,4.8,3.3,8.2
			c-1.2,2.6-3.3,3.7-6,4c-2.4,0.3-4.6-0.3-6.7-1.2c-1.5-0.6-3.1-1.2-4.7-1.7c-3.7-1.2-7.2-0.6-10.5,1.5
			C144.8,77.6,144.6,77.9,144,77.8z"/>
		<path class="st30" d="M107.1,98.5c-0.2,1.3,0.1,2.4,1.6,2.7c0.5,0.1,0.7,0.6,0.9,1c0.7,2.2,1.3,4.4,1,6.8c-0.2,2-0.8,2.7-2.7,3.2
			c-0.6,0.2-1.2,0.3-1.8,0.2c-1.8,0-1.9-0.2-1.3-1.8c0.7-1.9,0.3-3.8-0.5-5.5c-0.4-1-1-2-1.5-3c-0.5-1.2-0.7-2.3,0.3-3.4
			c1.1-1.4,1.6-3.1,2-4.8c0.1-0.2,0-0.6,0.3-0.6c0.3,0,0.3,0.3,0.4,0.6C106.3,95.4,107.3,96.8,107.1,98.5z"/>
		<path class="st30" d="M120.8,70.4c0-0.2-0.1-0.5,0.2-0.6c0.3-0.1,0.4,0.2,0.5,0.3c0.7,1,1.5,1.9,2.2,2.9c0.5,0.6,0.5,1.1-0.2,1.5
			c-0.7,0.4-1.3,0.6-1.9-0.1c-0.4-0.5-0.5-1.2-0.6-1.8C121,71.8,120.8,71.1,120.8,70.4z"/>
		<path class="st30" d="M141,187.2c0,0.7-1.3,1.7-2,1.7c-0.5,0-1.4-1-1.2-1.5c0.4-0.9,1.3-0.8,2.1-1
			C140.5,186.4,140.9,186.7,141,187.2z"/>
		<path class="st30" d="M131.5,64.1c0,0.4-0.2,0.7-0.5,0.6c-0.6-0.1-0.8-0.6-0.8-1.1c0-0.4,0.2-1.1,0.6-0.9
			C131.1,62.9,131.2,63.7,131.5,64.1z"/>
		<path class="st30" d="M114.6,201c0.3,0.2,1-0.2,0.9,0.5c0,0.3-0.3,0.8-0.8,0.7c-0.4-0.1-0.8-0.5-0.8-0.9
			C113.9,200.8,114.4,201.2,114.6,201z"/>
		<path class="st30" d="M133.2,65.8c0,0.5-0.3,0.5-0.5,0.5c-0.5,0-0.9-0.2-1-0.7c-0.1-0.3,0.1-0.6,0.5-0.5
			C132.6,65.1,132.9,65.4,133.2,65.8z"/>
		<path class="st30" d="M207.9,119.3c-2.6-2.6-5.8-3.8-9.5-3.5c-5.9,0.4-10.5,3-14,7.7c-1.5,2-3.1,4-4.7,6.1
			c-0.2,0.2-0.4,0.6-0.8,0.5c-0.4-0.2-0.3-0.6-0.3-1c0.1-1,0.6-1.8,1-2.6c0.3-0.6,0.8-1.2,0-1.8c-0.7-0.6-1.3-0.1-1.8,0.3
			c-0.3,0.2-0.5,0.4-0.7,0.7c-0.6,0.8-1.3,1.7-1.9,2.5c-0.2,0.2-0.3,0.7-0.7,0.5c-0.4-0.2-0.2-0.6-0.2-0.9c0-1,0.5-1.9,0.8-2.8
			c0.3-0.9-0.2-1.5-1.1-1.3c-0.7,0.1-1.2,0.6-1.7,1.1c-0.6,0.7-1,1.6-1.8,2.2c-0.1-0.2-0.2-0.4-0.2-0.6c0-0.9,0.3-1.7,0.6-2.5
			c0.3-0.6,0.4-1.2-0.2-1.7c-0.5-0.5-1.1-0.2-1.6,0.1c-0.8,0.4-1.4,1.1-1.9,1.9c-0.1,0.2-0.2,0.5-0.5,0.4c-0.3-0.1-0.2-0.4-0.2-0.7
			c0-0.7,0.2-1.3,0.5-2c0.2-0.4,0.5-0.8,0.1-1.2c-0.4-0.4-0.9-0.5-1.4-0.3c-0.6,0.2-1,0.6-1.3,1.1c-0.1,0.2-0.3,0.4-0.5,0.3
			c-0.2-0.1-0.2-0.4-0.2-0.6c-0.1-1.2,1.5-2.5,2.6-2.2c4,1.2,7.9,2.6,12.1,3.3c1.3,0.2,2.6,0.4,3.9-0.1c0.7-0.2,1.2-0.7,1.2-1.5
			c0-0.8-0.5-1.2-1.1-1.6c-0.3-0.2-0.7-0.2-1-0.3c-9.8-1.9-18.9-5.5-27.3-10.8c-0.3-0.2-0.7-0.3-0.9-0.8c0.2-0.1,0.4-0.1,0.6-0.1
			c2.5-0.3,4.8,0.5,7,1.6c1.8,0.9,3.6,1.9,5.5,2.8c0.2,0.1,0.4,0.3,0.7,0.1c0.2-0.2,0.1-0.5,0-0.7c-0.4-1.7-0.9-3.4-1.6-5
			c-2.1-4.8-5-8.9-9.6-11.6c-3-1.7-6.4-2.7-9.8-3.6c-4.6-1.3-8.6-3.6-11.3-7.7c-0.1-0.2-0.4-0.3-0.1-0.6c0.1,0,0.2,0.1,0.3,0.1
			c3.2,2.7,6.8,4.2,11,3.9c0.6,0,1.1,0.2,1.5,0.6c1,0.9,2,1.7,3.2,2.2c2.6,1.1,4.9,0.6,6.6-1.5c0.5-0.7,0.4-1-0.3-1.4
			c-1.5-0.7-2.8-1.6-3.9-2.8c-1-1.1-1-1.5,0.2-2.4c0.8-0.6,0.9-1.5,0.7-2.5c-0.2-0.8-0.6-1.4-1.6-1.1c-0.3,0.1-0.5-0.3-0.8-0.5
			c-0.2-0.2-0.4-0.6-0.8-0.4c-0.3,0.2-0.3,0.6-0.2,0.9c0,0.5,0.1,1-0.4,1.2c-0.5,0.2-0.7-0.4-1-0.7c-0.2-0.2-0.3-0.4-0.6-0.3
			c-0.3,0.1-0.3,0.4-0.4,0.6c0,0.2,0,0.4-0.1,0.5c0,0.4,0,0.9-0.5,1c-0.5,0.1-0.6-0.3-0.8-0.6c-0.2-0.3-0.4-0.7-0.8-0.6
			c-0.4,0.1-0.4,0.6-0.4,0.9c0,0.8-0.4,0.9-1,0.7c-2-0.6-3.3-2.1-3.8-4.1c-0.5-1.8,1.6-3.7,3.3-3.2c0.4,0.1,0.6-0.1,0.7-0.4
			c0.3-0.8,0.7-0.9,1.3-0.2c0.3,0.4,0.6,0.4,0.9-0.1c0.6-1.1,0.6-1.1,1.4-0.1c0.1,0.2,0.3,0.5,0.6,0.4c0.3,0,0.5-0.2,0.5-0.5
			c0.1-0.4,0.2-0.9,0.7-0.9c0.5,0,0.6,0.5,0.8,0.9c0.3,0.7,0.7,0.7,1,0c0.3-0.5,0.5-0.9,1.1-1c2.6-0.6,3.6-2.9,2.5-5.3
			c-0.2-0.4-0.5-0.6-0.9-0.5c-0.6,0.2-1.2,0.1-1.7-0.3c-0.3-0.2-0.6-0.4-0.4-0.8c0.2-0.4,0.5-0.1,0.7,0c0.9,0.2,1.7,0.2,2.2-0.6
			c0.4-0.7,0.2-1.9-0.5-2.6c-0.7-0.7-1.5-1-2.3-1.3c-2.1-0.6-4.1-1.2-6.2-1.8c-0.4-0.1-0.7-0.1-1.1,0.1c-1.1,0.5-1.8,0-2.5-0.8
			c-0.6-0.8-0.9-2-2.3-2c-0.2,0-0.4-0.3-0.3-0.5c0.1-0.6-0.3-0.7-0.7-1c-1-0.8-2.2-1.1-3.5-1.3c-4-0.7-8-0.2-12,0.4
			c-1,0.2-2,0.4-3.1,0.6c-0.8,0.2-1,0.8-0.7,1.5c0.2,0.5,0.6,1.2,1.2,0.9c1.8-0.9,3.8-0.8,5.7-1.1c2.8-0.4,5.7-0.4,8.5,0.4
			c0.4,0.1,0.8,0.1,1,0.7c-0.5,0-0.8,0-1.2,0c-1.9,0-3.9,0.1-5.8,0.3c-0.2,0-0.4,0-0.6,0c-4.1,0.1-6.9,4.1-7.1,4.4
			c-1,0.9-1.7,0.9-3.2,0.1c-2.3-1.1-4.3-2.5-6-4.4c-0.8-0.8-0.9-0.8-1.3,0.3c-0.3,0.8-0.5,1.6-0.7,2.4c-0.1-0.1-0.2-0.2-0.3-0.3
			c-0.1-0.2-0.1-0.3-0.2-0.5c-0.3-1.7,0.1-3.1,1.4-4.3c0.5-0.5,0.9-0.6,1.4,0c1.5,1.6,3.3,2.9,5.1,4.2c0.9,0.6,1.9,1,3,1.2
			c1,0.2,1.4-0.4,1-1.3c-0.1-0.4-0.3-0.7-0.7-0.9c-3.2-1.9-5.9-4.5-8.3-7.3c-0.4-0.5-0.7-0.5-1.2-0.1c-1.4,1.3-2.7,2.8-3.6,4.6
			c-1.5,3.1-0.9,5.9,1.8,8.1c1.2,1,2.5,1.8,3.9,2.5c0.3,0.1,0.6,0.2,0.7,0.7c-2.6-0.9-5-1.7-7.1-3.4c-1.3-1.1-2.2-2.4-2.3-4.2
			c0-0.5-0.2-0.8-0.7-1c-1.3-0.7-2.6-1.5-3.9-2.2c-0.4-0.2-0.7-0.3-1,0.1c-1.2,1.9-2.1,4-1.9,6.3c0.1,2.2,1.9,4.2,4.1,4.7
			c0.6,0.1,1.3,0.1,1.6-0.5c0.3-0.7-0.5-0.8-0.9-1.1c-0.9-0.6-1.6-1.4-2-2.3c-0.2-0.3-0.4-0.7,0-1.2c1.2,1.5,2.5,2.7,4.3,3.1
			c0.4,0.1,0.8,0.2,0.9,0.7c0.1,0.5-0.2,0.8-0.5,1c-2.1,1.5-3.3,3.6-4.3,5.8c-0.9,1.8-1.7,3.7-2.6,5.6c-1,2.1-2.3,3.8-4.8,4.3
			c-0.6,0.1-0.5,0.4-0.3,0.9c0.8,1.6,3.3,2.7,5,2.2c0.6-0.2,0.7-0.5,0.7-1.1c-0.1-0.8-0.2-1.7,0.3-2.4c0.3,0.1,0.3,0.4,0.3,0.6
			c0.3,1.3,0.7,2.5,1.5,3.6c0.8,1.1,1.9,1,2.5-0.2c0.4-0.9,0.6-2,0.3-3c-0.6-2-0.8-4-0.7-6.1c0.1-2.2,0.3-3.2,1.5-5.2
			c0.2-0.4,0.3-0.9,0.9-1.2c0,0.8-0.5,1.5,0.1,2.1c0.7,0.8,0.4,1.5-0.1,2.1c-0.3,0.5-0.7,0.9-0.8,1.5c-0.1,2,0,3.9,0.6,5.8
			c0.2,0.6,0.6,1.1,1.3,1.1c0.7,0,1.2-0.4,1.4-1c0.4-1.9,0.5-3.7-0.5-5.4c-0.5-0.7-0.5-1.4,0-2.1c0.5-0.8,0.9-1.7,1.2-2.6
			c0.2-0.6,0.3-1.4,1.1-1.8c0.2,0.6,0,1-0.1,1.4c-0.1,0.6-0.1,1.2,0.3,1.6c1.1,1,1.1,2.1,0.3,3.3c-0.3,0.4-0.3,1,0.1,1.4
			c0.3,0.4,0.7,0.5,1.2,0.5c1-0.2,1.8-1.2,1.6-2.2c-0.4-2.1,0.4-3.8,1.6-5.4c0.2-0.3,0.4-0.6,1-0.6c-0.4,1.3-0.6,2.5-0.7,3.8
			c0,0.3,0,0.7,0,1c0,0.1,0,0.3,0.1,0.4c0,0,0,0,0,0c0.2,0.7,0.2,1.3,0,1.7c-0.3,0.4-0.6,0.8-0.8,1.1c-0.5,0.9-1.2,1.4-2.1,1.8
			c-0.2,0.1-0.4,0.2-0.5,0.4c-0.2,0-0.3,0.1-0.5,0.1c-0.3,0.1-0.5,0.4-0.6,0.7c-0.1,0.1-0.1,0.2-0.1,0.4c-0.5,1.7-1.7,2.8-3.5,3.2
			c-1,0.2-1.5,0.6-2,1.5c-1,2.1-3.3,2.7-4.8,1.4c-0.8-0.7-1-0.7-1.5,0.3c-0.7,1.5-0.4,3.2-0.4,4.8c0.1,2.6-0.2,5-2.4,6.8
			c-0.3,0.3-0.4,0.5,0,0.8c1.1,0.7,2.2,1.3,3.6,0.9c1.4-0.4,2.3-1.4,3-2.6c1.1-2,1.6-4.2,1.9-6.4c0.1-0.4,0-0.9,0.4-1.2
			c0.4,0.2,0.4,0.5,0.5,0.8c0.8,1.7,1.5,3.4,2.3,5.1c0.2,0.5,0.5,1,1,1.3c1,0.5,1.3,1.2,1.4,2.2c0.1,1,0.7,1.7,1.7,2
			c1,0.3,1.8,0,2.4-0.7c1.3-1.4,0.1-5.4-1.9-6.1c0,0-0.1,0-0.1,0c-1.3-0.4-1.8-1.2-1.4-2.4c0.4-1.3,1.2-2.6,0.7-4
			c0.7,0.4,0.6,1.4,1.5,1.6c0.8,0.2,1.1,0.9,1.1,1.6c0.1,2.1,1.2,3.7,2.6,5.1c0.8,0.7,1.6,0.7,2.5,0.3c1.1-0.5,1.2-1.5,1.1-2.6
			c-0.1-0.8-0.1-1.7-1.3-1.9c-1.1-0.2-1.7-0.9-1.5-2c0.1-0.9,0-1.7-0.2-2.5c0,0,0,0,0,0c0,0,0-0.1,0-0.1c0-0.2-0.1-0.4-0.2-0.5
			c-0.3-1-0.4-2.6-0.2-3.2c0.2-0.8,0.3-1.5,0.3-1.5s0.3,0.6,1,1.7c0.3,0.7,0.6,1.3,1.1,1.8c1.3,1.3,2.5,2.6,2.5,4.7
			c0,1,1.3,1.7,2.1,1.7c0.9-0.1,1.6-0.8,1.8-2c0-0.2,0-0.4,0.1-0.5c-0.1-0.7-0.2-1.4-0.6-2c-1-1.7-2-3.3-3-5c-0.3-0.5-0.8-0.9-1.4-1
			c-1.2-0.2-1.8-1-1.7-2.2c0.1-0.6,0.2-1.2,0.4-1.8c0.1-0.3,0.2-0.6,0.1-0.8c0-0.3,0-0.7,0-1.1c0-0.2,0-0.4,0-0.7
			c0-1.4-0.1-2.8,0.1-3.4c0-0.1,0-0.2,0-0.3c0.2-0.9,0.2-1.9,0.8-2.7c0.3,0.2,0.2,0.5,0.2,0.7c-0.1,0.3-0.1,0.8,0,1.4
			c0.2,1.7,0.4,3.3,1,4.3c0.3,0.6,0.6,0.8,1,1.2c0,0.1,0.1,0.2,0.3,0.4c0.4,0.4,0.5,1,0.4,1.6c-0.1,0.8,0.1,1.4,0.4,2.1
			c1.1,1.8,2.5,3.2,4.2,4.5c0.2,0.2,0.5,0.5,0.7,0.2c0.2-0.3-0.1-0.5-0.2-0.7c-1.3-1.9-2-4-2.6-6.3c-0.2-0.9-0.2-1.8-0.1-2.7
			c0-0.2,0-0.4,0.2-0.4c0.2,0,0.3,0.1,0.4,0.3c0.1,0.3,0.1,0.6,0.2,0.8c2.3,6.3,6.1,11.4,11.8,15.1c3.4,2.2,7.3,3.5,11.1,5
			c3.6,1.5,6.8,3.5,8.9,6.8c0.1,0.2,0.5,0.4,0.2,0.8c-0.2-0.2-0.5-0.3-0.7-0.5c-2.9-2.3-6.3-3.8-9.7-5.2c-0.3-0.1-0.8-0.5-1.1-0.1
			c-0.2,0.4,0.3,0.6,0.6,0.9c1,1,2.1,2.1,2.7,3.4c0.9,1.8,0.3,4-1.3,5.2c-1,0.7-2.2,0.8-3,0.2c-0.3-0.2-0.5-0.4,0-0.7
			c1.9-1.1,2.2-2.7,0.9-4.5c-0.8-1.1-1.9-1.9-3-2.5c-5.5-3.1-10.9-6.4-15.4-10.8c-0.1-0.1-0.3-0.4-0.5-0.3c-0.2,0.1-0.2,0.2-0.1,0.4
			c0.7,3.7-1.4,5.8-5.1,5.2c-0.7-0.1-0.8,0.1-0.9,0.7c-0.5,2.7-1.8,3.8-4.5,3.8c-0.7,0-1,0.2-1.1,0.8c-0.5,2.2-2,3.4-4.2,3.3
			c-0.9,0-1.1,0.2-0.9,1.1c0.6,2.1,1.2,4.2,0.6,6.4c0,0.1,0,0.2,0,0.3c0.1,1.5,0.6,2.8,1.6,3.9c2,2.2,3.7,4.5,2.8,7.7
			c-0.2,0.6,0.3,0.6,0.7,0.5c3.1-0.4,4.3-1.7,3.9-4.8c-0.3-2-1-4-2.2-5.7c-0.7-1.1-1.4-2.3-1.7-3.7c0.9,0.4,1.3,1.1,1.8,1.8
			c0.9,1.2,1.8,2.3,2.8,3.5c0.6,0.7,1.4,1.2,2.4,0.8c0.8-0.3,1.5-1.6,1.4-2.5c-0.2-1.1-1.4-2.6-2.3-2.8c-2-0.3-2.5-0.9-2.3-2.9
			c0.1-0.9,0-1.8-0.3-2.6c-0.1-0.3-0.4-0.6-0.1-1.1c0.7,1,1.5,1.7,2.7,1.9c0.6,0.1,1,0.7,1,1.3c0.1,1.6,1.1,2.7,2.1,3.9
			c1.2,1.5,2.2,3.1,3.7,4.4c1.3,1,2.7,1.4,4.2,0.7c0.7-0.3,1-0.8,0.9-1.5c-0.1-0.7-3.2-4-3.9-4.1c-0.1,0-0.1,0-0.2,0
			c-1.9-0.3-2.8-1-2.8-3c0.1-1.8-0.7-3.2-1.5-4.6c-0.5-0.9-1.1-1.7-1.2-2.8c0.9,0.8,1.8,1.8,2.6,2.7c0.4,0.5,0.9,0.9,1.6,1
			c2.1,0.2,2.6,0.7,2.7,2.8c0,0.5,0.1,1,0.5,1.4c2,2.1,3.7,4.5,6,6.4c1.5,1.2,2.7,1.4,3.6,0.5c0.8-0.8,0.7-2.3-0.4-3.7
			c-0.4-0.6-0.9-1-1.7-1c-1.8,0.1-2.6-0.5-2.9-2.3c-0.3-1.3-0.9-2.4-1.7-3.4c-1.7-2-3.3-4.1-4.5-6.4c-0.2-0.3-0.4-0.6-0.2-1.2
			c2.2,2.4,4.7,4.1,6.8,6.3c0.5,0.5,0.9,0.9,1.6,0.9c1.3,0,1.9,0.8,2.2,1.9c0.1,0.6,0.3,1.2,0.7,1.6c2,2,3.6,4.3,6.8,4.6
			c0.8,0.1,0.8,0.6,0.4,1.2c-0.6,0.8-1.2,1.5-2.3,1.7c-0.6,0.1-0.9,0.4-1.1,0.9c-0.4,1.4-1.4,2.1-2.7,2.4c-1.8,0.5-3.6,0.2-5.2-0.6
			c-0.6-0.3-1.1-0.4-1.8,0.1c-0.9,0.7-2.1,0.8-3.2,0.6c-1.4-0.2-2.8-0.5-4-1.3c-1.4-1-2.6-0.9-3.9,0c-0.2,0.2-0.6,0.2-0.5,0.6
			c0.2,1.6-0.5,3-0.8,4.4c-1.2,5.9-3.8,11.2-8.3,15.3c-6.5,6.1-12.5,12.6-18.8,18.9c-0.9,1-2,1.8-3.3,2.2c-3.6,1.4-6.8,0.9-9.9-1.4
			c-0.6-0.5-1.1-1.1-2.1-1.5c1.2,3.1,3.3,4.9,5.9,6.4c-0.2,0.2-0.2,0.2-0.3,0.2c-0.1,0-0.3,0-0.4,0c-2.1-0.2-3.8-1.1-5.1-2.7
			c-3.9-4.6-3.5-12.4,0.8-16.9c4.1-4.3,8.4-8.5,12.3-13c4.4-5,5.3-12.2,2.2-18.1c-1.4-2.6-3.5-4.4-5.9-6c-1.2-0.8-2.5-1.5-3.4-2.6
			c-1.4-1.7-1-3.2,1.2-3.6c1-0.2,1-0.5,0.4-1.1c-1.1-1.3-2.8-1.9-4.4-1.3c-1.8,0.7-3.3,1.7-3.5,3.9c0,0.5,0.1,1.1-0.6,1.2
			c-0.7,0-1.1-0.5-1.3-1.1c-0.2-0.7-0.1-1.5,0.2-2.2c0.7-1.6,1.8-2.8,3.3-3.7c0.2-0.1,0.5-0.2,0.5-0.5c-0.1-0.3-0.4-0.3-0.6-0.3
			c-1.4-0.2-2.8-0.2-4.2,0c-2.9,0.5-4.7,2-5.3,4.5c-0.2,1.1-0.3,2.1-0.1,3.2c0.1,0.5,0,0.9-0.4,1.1c-0.4,0.3-0.8,0-1.2-0.2
			c-0.6-0.4-1-0.9-1.3-1.4c-0.4-0.7-0.8-1.5-1.4-2.1c-2-2-4.8-1.7-6.1,0.8c-0.4,0.6-0.4,1,0.4,1.4c2,1,3.4,2.6,4.1,4.6
			c0.8,2-0.2,4.6-1.9,5.3c-0.3,0.1-0.6,0.3-0.8,0c-0.3-0.3,0.1-0.5,0.2-0.7c0.2-0.2,0.3-0.5,0.5-0.7c0.5-0.9,0.4-1.1-0.6-1.2
			c-0.8-0.1-1.6-0.2-2.3-0.4c-4.8-1.5-7.3-5.2-8.9-9.7c-1.2-3.3-0.8-6.5,1.4-9.3c0.3-0.4,0.6-0.9,1.2-1c0.2,0.5-0.1,0.8-0.3,1.1
			c-0.7,1.6-1.4,3.3-1.4,5.1c0,0.3-0.1,0.7,0.3,0.8c0.3,0.1,0.4-0.3,0.5-0.6c0.3-0.9,0.7-1.9,1.4-2.6c2.9-3,5.6-6.3,9.5-8.2
			c5-2.4,9.5-5.5,13.1-9.7c2-2.3,3.6-4.7,4-7.7c0.6-5.3-0.1-8.6-5.3-12c-0.6-0.4-1.3-0.7-2-1.1c-3-1.4-4.4-3.8-4.4-7.1
			c0-0.8,0.1-1.7,0.2-2.5c-0.3-0.1-0.4,0.1-0.5,0.2c-1.7,2-2.5,4.2-1.6,6.9c0.5,1.5,1.4,2.8,2.6,3.8c0.9,0.8,1.9,1.5,2.9,2.3
			c1.7,1.3,3,2.9,3.8,4.9c0.2,0.5,0.5,1,0.2,1.8c-2-3.1-4.9-4.7-7.5-6.8c-2.9-2.3-4.6-5.2-4.1-9.1c0-0.2,0-0.4-0.3-0.5
			c-0.7,0.8-1.3,1.8-1.8,2.9c-1.4,3.8-0.1,6.9,2.3,9.8c1.2,1.5,2.7,2.6,4.1,3.9c0.4,0.3,1,0.7,0.7,1.3c-0.2,0.6-0.9,0.7-1.4,0.8
			c-1.4,0.1-2.6-0.5-3.6-1.4c-2.2-1.8-3.8-4.2-5.2-6.7c-0.2-0.5-0.5-0.9-0.9-0.2c-2.5,3.8-3.1,8.6,2.1,11.9c0.8,0.5,1.7,0.9,2.6,1.4
			c0.9,0.5,1.1,1.2,0.4,2c-0.7,0.8-1.6,1.3-2.8,1c-1.8-0.4-3.5-0.8-5.3-0.8c-3.5,0-5.2,1.8-4.9,5.3c0,0.3,0,0.6,0.1,0.9
			c0.1,0.3,0,0.7,0.3,0.8c0.4,0.1,0.5-0.4,0.7-0.6c1.7-2,5.1-2.7,7.4-1.5c1.4,0.7,2.1,1.9,1.8,3.2c-0.8-0.8-1.6-1.4-2.7-1.7
			c-0.7-0.2-1.2-0.1-1.4,0.7c-0.2,1-0.7,1.8-1.4,2.5c-1.3,1.3-2.5,2.7-3.8,4c-1.2,1.3-2.4,2.6-3.2,4.2c-2.4,4.5-3.2,11.8,2.7,18
			c5.6,5.9,14.2,6.9,20.8,2.3c1.1-0.7,2.1-1.5,3.4-1.9c6.1-2.3,12.1,0.3,14.4,6.2c0.3,0.9,0.5,1.8,0.7,2.8c1.1-1.9,1.1-4.1,1.2-6.3
			c1,1.3,1.4,2.7,1.1,4.3c-1,4.8-3.7,8.3-7.9,10.7c-0.6,0.4-0.8,0.8-0.6,1.4c0.2,0.6,0.5,1.1,1,1.5c0.2,0.1,0.6,0.2,0.4,0.5
			c-0.2,0.3-0.5,0.2-0.8,0.2c-1.3-0.2-2.6-1.6-2.7-2.9c-0.3-2.1,0.5-3.8,2.1-5.2c0.2-0.2,0.5-0.2,0.5-0.5c-0.1-0.4-0.4-0.3-0.7-0.4
			c-4.9-1.1-7.7,1.2-7.3,6.2c0,0.6,0.1,1.1,0.2,1.7c0.1,0.6,0.2,1.2,0.3,1.8c0.1,0.8-0.3,1.3-1,1.6c-0.8,0.3-1.1-0.3-1.4-0.9
			c-0.2-0.3-0.3-0.7-0.4-1c-0.3-1.2-0.4-2.3-0.4-3.5c0-0.3,0.1-0.7-0.3-0.8c-0.3-0.1-0.5,0.3-0.7,0.5c-2.7,3.2-3.8,6.8-2.2,10.8
			c0.9,2.1,1.1,4.2,0.3,6.5c-0.9,2.3-0.9,4.8-0.5,7.3c1.2,8,8.9,13.2,14.5,13.8c1.7,0.2,5.3-0.1,6.1-0.3c3-0.7,5.6-2.2,7.8-4.4
			c2.3-2.3,4.5-4.7,6.8-6.9l1.6-1.7c0-0.1,0.1-0.1,0.1-0.1c0.6-0.4,0.6,0.1,0.7,0.4c1.2,3.1,2.8,6.1,4.2,9.1c1,2.1,1.9,4.3,1.8,6.7
			c-0.2,4.4-4.2,7.1-7.9,5.4c-2.2-1-3.5-0.6-4.6,1.6c-0.6,1.1-1.2,2.2-1.7,3.4c-0.5,1.1-1.4,1.7-2.5,2c-2.9,0.8-8.2-0.9-10.1-3.3
			c0,0,0-0.1,0.1-0.2c0.1,0,0.2,0,0.3,0.1c3,1.5,6.2,1.9,9.5,1.6c0.5-0.1,1-0.2,1.4-0.4c0.6-0.3,1.3-0.6,1-1.5
			c-0.3-0.8-1-0.7-1.6-0.6c-1.7,0.4-3.5,0.3-5.2,0c-3.2-0.6-6-2.1-8.6-4c-0.8-0.6-1-0.3-1.2,0.5c-0.2,1.1-0.3,2.2-0.2,3.3
			c0.2,3.4,1.5,6.1,4.8,7.6c1.1,0.5,2.3,1.1,3.4,1.7c1.1,0.6,1.9,1.6,2.2,2.8c0,0.2,0.1,0.5-0.2,0.5c-0.2,0.1-0.3-0.1-0.4-0.3
			c-0.3-0.6-0.8-1.1-1.3-1.5c-0.4-0.3-0.7-0.3-1,0.1c-0.6,1-1.5,0.9-2.4,0.5c-1.5-0.6-2.6-1.6-3.8-2.6c-0.2-0.2-0.4-0.5-0.7-0.3
			c-0.3,0.1-0.2,0.4-0.2,0.7c-0.1,1.6,0.1,3.2,0.6,4.8c0.9,2.8,2.6,4.7,5.8,4.8c0.2,0,0.4,0,0.5,0.1c0.8,0.2,1.4,0.6,1.6,1.4
			c0.2,0.8-0.3,1.4-0.9,1.8c-0.4,0.3-0.9,0.5-1.3,0.8c-2.7,1.6-3.4,4-2,6.7c0.4,0.7,0.9,1.3,1.4,1.9c0.5,0.6,0.9,0.8,1.4-0.1
			c1.4-2.4,3.8-2.7,5.8-0.8c1.2,1.1,2.2,2.4,2.6,4.1c0.3,1.5,1.3,2.2,2.7,2.5c2.6,0.6,5.3,0.3,8,0.4c0.7,0,0.7-0.4,0.5-0.9
			c-0.3-1-0.7-1.9-1.2-2.8c-0.1-0.2-0.3-0.4-0.1-0.6c0,0,0.1-0.1,0.1-0.1c0.1,0,0.3,0,0.5,0.1c0.3,0.1,0.7,0.3,1,0.5
			c1.1,0.7,1.4,1.2,1.5,1.6c0,0.3,0.1,0.6,0.2,0.9c0.4,0.8,1.1,1.2,2,1.2c0.6,0,1.2-0.1,1.7,0c0.9,0,1.1-0.3,0.9-1.2
			c-0.4-1.3-1-2.6-1.8-3.9c2.1,0.4,2.9,1.8,3.6,3.2c0.7,1.4,1.7,1.9,3.2,1.7c0.6-0.1,0.7-0.3,0.7-0.8c-0.1-3-0.8-5.7-2.9-7.9
			c-0.2-0.2-0.4-0.4-0.7-0.6c0,0,0,0,0,0c-3.3-3.1-8.8-2.3-9.6-2.2c-1.1,0-2-0.3-2.9-1c-0.6-0.5-1.1-0.3-1.6,0.2
			c-0.8,0.9-0.4,2.2,0.7,2.6c1,0.4,2.1,0.2,3.2,0.2c0.4,0,0.8,0,1.2,0c0,0,0,0,0,0c1.1,0,2.9,0.2,3.7,0.3c0,0,0,0,0,0
			c0.1,0,0.2,0,0.3,0c0.1,0,0.2,0,0.2,0c0,0,0.1,0,0.1,0c0.8,0.3,1.6,0.4,2.3,1.2c-0.5,0.2-1.1,0-1.4,0c0,0,0,0,0,0
			c-1.2-0.1-4.8-0.2-6.7-0.1c-0.7,0-1.4-0.1-2.1-0.1c-2.3-0.1-2.9-2.2-2.3-3.7c1.2-3,1.9-6.2,2.3-9.4c0.2-2.2,0.7-4.3,1.8-6.3
			c0.9-1.6,2.1-2.4,4-2.3c5.1,0.1,10.2-0.2,15.2-1.6c4.5-1.3,8.6-3.3,11.6-7.1c3.6-4.6,4.3-9.9,3.8-15.5c-0.6-6.3-2.6-12.3-5.1-18.1
			c-0.4-0.9-0.3-1.5,0.3-2.2c1.1-1.5,2.5-2.6,4.1-3.6c0.7-0.4,1.4-0.6,2.1-0.5c2.8,0.2,5.3-0.5,7.7-2.1c0.8-0.5,1.6-1,2.3-1.6
			c0.8-0.6,1.5-0.6,2.2,0.2c0.7,0.8,0.5,1.5-0.1,2.2c-0.4,0.5-1,1-1.6,1.3c-1.2,0.8-2.6,1.5-3.9,2.1c-0.2,0.1-0.6,0.1-0.6,0.5
			c0,0.3,0.3,0.3,0.6,0.4c1.5,0.7,3,1.2,4.6,1.5c1.1,0.2,2.3,0.3,3.4,0.3c2.7-0.2,4.7-1.4,6-3.8c0.6-1.2,1.6-1.7,2.6-1.4
			c1.1,0.2,1.6,1,1.8,2.4c0,0.3,0,0.6,0.1,1c0.3,3.1,2.5,5.1,5.6,5.2c1.3,0,2.6-0.2,3.8-0.7c1.2-0.4,1.2-0.4,0.4-1.4
			c-1.7-2.3-1.2-4.7,1.4-6c0.6-0.3,1.2-0.6,1.8-0.7c1.3-0.3,2.7-0.5,4-0.8c2.2-0.5,4.5-0.8,5.8-3.1c0-0.1,0.2-0.1,0.2-0.1
			c1.2,0.2,1.7-0.7,2.3-1.3c0.6-0.6,0.4-1.1-0.4-1.5c-0.9-0.4-1.8-0.8-2.7-1c-0.3-0.1-0.8,0-0.8-0.4c0-0.4,0.5-0.5,0.8-0.6
			c1.4-0.5,2.7-0.4,4,0.3c1.2,0.6,2.5,0.9,3.7,0.1c0.7-0.4,1.4-0.9,2-1.4c0.6-0.4,0.4-0.7-0.1-1c-1-0.6-2-1.1-3.1-1.5
			c-0.6-0.2-1.4-0.2-2.1-0.8c1.9-0.8,3.6-1.1,5.4,0c1.3,0.8,2.6,0.9,4,0.3C208.7,120.3,208.7,120.1,207.9,119.3z M145,69.5
			c-3.2,0.6-5.6,2.4-7.3,5.1c-0.1-1.8,0.5-3.3,2.1-4.3C141.4,69.3,143.1,68.9,145,69.5z M130.5,61.5c0-0.3,0.1-0.4,0.3-0.5
			c0.6-0.2,5.6,0.4,5.6,0.4l0,0c0.1,0,0.2,0.1,0.2,0.1c1.1,0.3,2,0.7,2.4,1.9c0.2,0.5,0.9,0.7,1.4,0.4c0.3-0.2,0.5-0.4,0.6-0.7
			c0,0,0,0,0,0c0,0,0,0,0,0c0,0,0-0.1,0-0.1c0.1-0.2,0.2-0.5,0.6-0.6c0.5-0.2,1.1-0.1,1.4,0.4c0.3,0.4,0.4,1,0.3,1.6
			c-0.2,1-0.8,1.7-1.7,1.9c-2.1,0.5-4.2,1-6.4,0.4c-0.1,0-0.2,0-0.2,0c0,0,0,0-0.1,0C132.5,65.9,130.5,62.6,130.5,61.5z
			 M101.7,190.2c-0.6,3.1-1.2,6.3-1.4,9.5c0,0.8,0,1.6,0,2.4c-1.1-1.4-1.5-3-1.7-4.7c-0.3-3,0.5-5.8,1-8.6c0.3-2,1.1-3.9,0.3-5.9
			c-0.2-0.5,0.2-0.6,0.6-0.4c1.1,0.5,1.9,1.8,1.8,3.4C102.4,187.3,102,188.7,101.7,190.2z M122.9,174.1c-0.1,0.1-0.3-0.1-0.5-0.2
			c-1.1-0.8-1.7-1.9-2.3-3c-0.1-0.3-0.1-0.5,0.3-0.5c0.1,0.1,0.3,0.1,0.4,0.2c0.9,0.8,1.7,1.8,2.1,2.9
			C123.1,173.7,123.2,174,122.9,174.1z M127.9,171.2c-0.3,0.1-0.4-0.1-0.5-0.2c-2.8-3.6-5.6-7.2-8.2-10.9c-0.1-0.2-0.4-0.4-0.2-0.6
			c0.2-0.3,0.5,0,0.7,0.1c0.4,0.2,0.9,0.5,1.3,0.8c2.9,2.7,5.3,5.8,6.8,9.6C127.8,170.3,128,170.8,127.9,171.2z M135.9,144.7
			c-1.6-1.5-2.9-3.3-5.1-4.1c-0.4-0.2-0.8-0.6-1-0.9c-0.8-1.1-2-1.8-3.2-2.4c-0.9-0.5-1.8-0.1-2.3,0.8c-0.5,0.8-0.4,1.7,0.5,2.3
			c1,0.7,2,1.4,3.3,1.7c1.5,0.3,2.6,1.5,3.1,2.9c0.3,0.9,0.8,1.7,1.4,2.4c1.3,1.6,2.5,3.1,3.4,5c0.2,0.6,0.5,1.1,0.6,1.7
			c-0.5,0.1-0.5-0.3-0.7-0.5c-1.4-2-3-3.7-4.7-5.5c-0.3-0.3-0.5-0.7-1-0.6c-1.8,0.2-2.8-1.1-3.4-2.4c-0.7-1.5-2-2.3-3.3-3.2
			c-1-0.7-1.9-0.6-2.4,0.1c-0.5,0.7-0.2,1.7,0.6,2.4c0.6,0.5,1.3,0.8,1.9,1.3c1,0.7,1.9,1.4,2.7,2.3c0.7,0.7,1.5,1.3,2.4,1.8
			c1.3,0.7,2.2,1.8,2.3,3.4c0,0.8,0.6,1.3,0.9,1.9c0.8,1.4,1.5,2.7,1.9,4.3c-0.1,0.1-0.2,0.1-0.2,0.2c-0.8-1.1-1.6-2.1-2.5-3.2
			c-0.6-0.8-1.3-1.4-2.4-1.7c-1.3-0.4-2-1.7-2.6-2.9c-1.4-2.8-3.9-4.3-6.5-5.7c-0.7-0.4-1.5-0.2-2,0.6c-0.5,0.8-0.3,1.6,0.3,2.2
			c1,0.9,2.1,1.8,3.2,2.7c1.8,1.6,3.4,3.4,4.9,5.3c0.4,0.5,0.8,0.9,1.5,1.2c1.2,0.6,2,1.7,2.2,2.9c0.3,1.8,1.1,3.2,1.7,4.9
			c0.2,0.7,0.5,1.4,0.3,2.2c-0.7-1-1.3-2.1-2-3.1c-0.4-0.7-0.9-1.4-1.7-1.7c-0.7-0.2-1.1-1-1.4-1.6c-1.9-4.3-5.5-7-8.8-10
			c-0.2-0.2-0.5-0.4-0.9-0.2c-0.4,0.2-0.4,0.6-0.4,0.9c0,0.3,0.2,0.7-0.2,0.9c-0.4,0.1-0.6-0.3-0.8-0.6c-1.4-2.6-1.6-5.4-0.3-8.1
			c1-2.2,2.3-4.1,3.9-5.8c4.3-4.6,6.9-10,8.7-16c0.1-0.3,0-0.7,0.3-0.7c0.4-0.1,0.3,0.4,0.5,0.6c0.5,0.8,1.1,1.4,1.9,1.8
			c1.8,0.9,3.5,2,4.4,4c-0.5,0.2-0.8-0.2-1.1-0.4c-1.1-0.6-2.3-1.3-3.6-1.4c-1.4-0.1-1.9,0.7-1.3,1.9c0.3,0.7,0.9,1.3,1.6,1.7
			c2.1,1.3,3.8,3,4.9,5.2c0.2,0.3,0.4,0.6,0.3,1c-0.4,0.1-0.6-0.3-0.8-0.5c-1.7-1.5-3.6-2.7-5.6-3.6c-0.6-0.3-1.3-0.7-1.9,0.1
			c-0.5,0.8-0.6,1.7,0.1,2.4c0.8,0.8,1.7,1.5,2.9,1.8c1.1,0.3,1.9,1,2.4,2c0.3,0.9,0.9,1.6,1.5,2.2c1.1,1.2,2,2.6,2.5,4.2
			C136.2,145.3,136.1,144.9,135.9,144.7z M158.3,117.5c-0.3,0.1-0.5-0.2-0.4-0.5c0.1-0.6,0.5-1,1.1-1c0.2,0,0.4,0.1,0.4,0.4
			C159.2,116.9,158.9,117.4,158.3,117.5z M161.2,119.9c-0.3,0-0.4-0.2-0.5-0.5c-0.2-0.8,1-2.1,1.8-2c0.3,0,0.5,0.2,0.5,0.5
			C163,118.2,161.4,119.9,161.2,119.9z"/>
		<path class="st30" d="M182.1,202.9c-3.5-1.8-7.2-2.3-11.1-2.4c-1.3,0-2.7,0-3.9-0.8c-0.4-0.3-0.9-0.4-1.3,0.1
			c-0.4,0.4-0.3,0.9,0,1.4c0.3,0.5,0.8,0.7,1.3,0.8c1.3,0.3,2.6,0.2,4,0.3c2.1,0.1,4.2,0.2,6.3,0.9c0.7,0.2,1.4,0.5,2,1.3
			c-1.5-0.1-2.9-0.2-4.2-0.3c-2.5-0.2-5-0.2-7.4-0.7c-1.8-0.3-2.8-1.6-2.8-3.4c0-0.7-0.2-1.4-0.4-2.1c-0.5-1.4-1.2-2.7-2.1-3.9
			c-0.8-1.2-1.5-2.5-1.9-3.9c-0.6-1.7-0.1-3,1.3-4.1c0.4-0.3,0.9-0.6,1.4-0.8c2.7-1.5,5.4-2.9,7.7-4.9c3.4-3,6.1-6.5,6.6-11.2
			c0.9-7.6-2-13.9-7.6-18.9c-2.9-2.5-6.3-4.2-9.7-5.8c-4.5-2.1-9.2-3.4-13.9-4.8c-0.7-0.2-1.4-0.5-2.1-0.7c-0.8-0.2-1.5,0.2-1.4,0.8
			c0.2,1.7,1.9,3.7,3.6,4c6.1,1.3,11.9,3.6,17.1,7.2c0.9,0.6,1.8,1.4,2.5,2.3c0.2,0.2,0.6,0.5,0.3,0.8c-0.3,0.3-0.6-0.1-0.8-0.2
			c-4.5-2.7-9.3-4.5-14.3-5.9c-1-0.3-2-0.4-3.1-0.4c-0.7,0-1.3,0.3-1.4,1.1c-0.1,0.8,0.5,1.2,1.1,1.3c0.3,0.1,0.6,0.1,1,0.2
			c3.4,0.6,6.6,1.6,9.5,3.4c0.5,0.3,1,0.6,1.3,1.3c-1.6-0.5-3-1-4.5-1.4c-2-0.5-4-1-6.1-0.7c-0.5,0.1-1.1,0.2-1.2,0.9
			c-0.1,0.6,0.3,1,0.8,1.3c0.4,0.2,0.8,0.4,1.3,0.6c1.3,0.5,2.5,1,3.7,1.8c0.2,0.2,0.6,0.3,0.6,0.8c-1.1-0.3-2.1-0.6-3.2-0.8
			c-1.8-0.3-2.6,0.4-2.5,2.2c0.1,1.4,0.1,2.8-0.1,4.2c-0.1,0.7,0.1,1.2,0.7,1.6c1.6,1.1,3,2.5,4.2,4c0.5,0.6,2.4,3.6,2.9,4.7
			c0.1,0.3,0.1,0.5,0.2,0.8c0.4,1.2,0.2,2.4,0.2,3.5c0,1.4-0.7,2.4-2,3c-0.4,0.2-0.9,0.4-1.3,0.5c-1.6,0.4-2.3,1.6-2.7,3
			c-0.5,1.9-1.7,2.8-3.7,3c-1,0.1-2,0-3-0.3c0,0-0.1,0-0.1,0c-0.2-0.1-0.4-0.1-0.6-0.2c-0.8-0.3-1.6-0.8-0.3-1c0,0,0,0,0.1,0
			c0.6,0.1,1.3,0.1,1.9,0.1c1.2,0,2.5,0,3.6-0.4c0.7-0.3,1.1-0.8,0.9-1.5c-0.2-0.7-0.7-1-1.5-0.8c-1.2,0.3-2.4,0.2-3.5,0.3
			c-1,0.1-1.9,0.1-2.9-0.3c-1-0.4-2.1-0.3-3,0.4c-0.5,0.4-0.9,0.7-0.7,1.3c0,0-0.1,0-0.1,0s-0.2,2.6,2.4,4.8c0,0,0,0,0,0
			c0.2,0.2,0.4,0.3,0.8,0.6c0.6,0.4,1.2,0.8,1.9,0.9c0.9,0.2,1.9,0.4,2.8,0.7c0.5,0.1,1,0.2,1.1,0.9c0,0.6-0.3,1.1-0.8,1.4
			c-0.5,0.3-1,0.2-1.6,0.1c-1.2-0.2-2.4-0.6-3.5-1.1c-0.6-0.3-1-0.3-0.8,0.6c0.4,1.5,0.9,3,1.8,4.3c1.3,1.7,2.9,2.5,5.1,2.2
			c0.5-0.1,1.1-0.2,1.6-0.3c0.8-0.1,1.5,0,2,0.7c0.5,0.7-0.1,1.3-0.4,1.9c-0.1,0.1-0.2,0.2-0.2,0.4c-1.1,1.9-0.8,3.5,0.8,4.9
			c0.5,0.5,1.2,0.9,1.8,1.2c1.5,0.8,1.5,0.8,2.7-0.5c0.7-0.8,1.6-1.3,2.7-1.5c1.8-0.4,3.5,0,5.1,0.7c0.7,0.3,1.2,0.7,1.4,1.4
			c0.8,2.4,2.8,3,4.9,3.1c1.7,0.1,3.5,0,5.2,0c0.7,0,0.9-0.2,0.7-0.9c-0.4-1.1-0.8-2.1-1.4-3c-0.1-0.2-0.3-0.4-0.1-0.6
			c0.2-0.1,0.3,0,0.5,0c1.3,0.4,2.3,1.2,2.7,2.6c0.4,1.2,1.2,1.6,2.3,1.8c0.5,0.1,1,0.1,1.5,0.1c1.3,0,1.4-0.1,1-1.4
			c-0.4-1.3-0.9-2.5-1.7-3.7c0.3-0.3,0.5-0.2,0.7-0.1c1.5,0.5,2.3,1.6,2.8,3c0.3,1,0.9,1.5,1.9,1.8c1.2,0.4,1.4,0.3,1.5-0.9
			C187.3,207.9,185.7,204.8,182.1,202.9z M170.7,159.4c0.3-0.2,0.6,0.1,0.8,0.3c2.9,2.8,3.7,9.2,1.6,12.7c-0.3,0.5-0.5,1-1.3,1.4
			c0.3-0.9,0.5-1.5,0.6-2.2c0.8-4-0.1-7.8-1.6-11.4C170.8,160,170.4,159.6,170.7,159.4z M160,205.1c-0.3,0.3-0.7,0.1-1.1-0.1
			c-1.3-0.6-2.3-1.6-3.2-2.7c-2-2.6-2.6-5.7-3.2-8.8c-0.3-1.3-0.5-2.7-1.7-3.6c-0.1-0.1-0.3-0.3-0.2-0.4c0.2-0.2,0.4-0.2,0.7-0.2
			c1.3,0,2.6,1,3,2.5c0.4,1.2,0.7,2.5,0.9,3.8c0.6,3.3,2.1,6.2,4.3,8.7C159.8,204.4,160.3,204.6,160,205.1z"/>
	</g>
	<g>
		<path class="st0" d="M36.8,106.4c1.1,0.6,3,1,4.4,1c2.2,0,3.2-1,3.2-2.3c0-1.6-1.1-2.3-3.3-3.6c-4.1-2.5-4.8-5.3-4.8-7.1
			c0-4.2,2.7-7.8,8.6-7.8c1.7,0,3.4,0.5,4.2,0.9l-0.8,5c-0.8-0.5-1.9-0.9-3.3-0.9c-2,0-2.9,1-2.9,2.2c0,1.1,0.5,1.8,3.4,3.4
			c3.5,2,4.7,4.7,4.7,7.3c0,4.8-3.6,8-9,8c-2.2,0-4.2-0.5-5.1-1L36.8,106.4z"/>
		<path class="st0" d="M52.8,87.1c1.5-0.3,3.6-0.5,5.6-0.5c3.2,0,5.7,0.4,7.5,2c1.6,1.4,2.3,3.6,2.3,5.7c0,2.9-0.9,5.1-2.4,6.5
			c-1.7,1.6-4.3,2.3-6.3,2.3c-0.3,0-0.6,0-0.9,0v9.1h-5.8V87.1z M58.7,98.4c0.2,0,0.5,0,0.7,0c2.3,0,3.1-1.7,3.1-3.6
			c0-2-0.8-3.6-2.7-3.6c-0.4,0-0.8,0.1-1.1,0.2V98.4z"/>
		<path class="st0" d="M78.2,112.5c-6.4,0-8.5-6.8-8.5-13.1s2.6-13,8.8-13c6.9,0,8.3,7.6,8.3,12.5C86.8,108.5,83.4,112.5,78.2,112.5
			L78.2,112.5z M78.4,107.4c1.6,0,2.3-3,2.3-8.2c0-4.4-0.6-7.7-2.4-7.7c-1.7,0-2.6,3.3-2.5,7.8C75.8,104.4,76.7,107.4,78.4,107.4
			L78.4,107.4z"/>
		<path class="st0" d="M89.8,87.1c1.7-0.3,3.9-0.5,5.9-0.5c2.8,0,5.5,0.3,7.3,1.9c1.7,1.5,2.1,3.2,2.1,5.4c0,2.5-1.2,5.1-3.9,6.3
			v0.1c1.7,0.8,2.5,2.3,2.9,4.8c0.5,2.5,1.2,6.1,1.7,7.1h-6.1c-0.3-0.7-0.9-3.3-1.2-6c-0.4-3-1.1-3.7-2.3-3.7h-0.6v9.8h-5.8V87.1z
			 M95.7,98h0.8c1.9,0,2.8-1.6,2.8-3.5c0-1.9-0.7-3.3-2.5-3.3c-0.4,0-0.8,0-1.1,0.2V98z"/>
		<path class="st0" d="M111.3,92.2h-4.4v-5.4h14.7v5.4h-4.5v20h-5.9V92.2z"/>
		<path class="st0" d="M128.2,112.2l-5.6-25.5h6.5l1.5,10.6c0.4,2.7,0.8,5.6,1.1,8.4h0.1c0.3-2.9,0.6-5.7,1-8.5l1.4-10.5h6.5
			l-5.8,25.5H128.2z"/>
		<path class="st0" d="M153.9,101.4h-5.6v5.7h6.2v5.1h-12.1V86.7h11.7v5.1h-5.8v4.8h5.6V101.4z"/>
		<path class="st0" d="M158,87.1c1.7-0.3,3.9-0.5,5.9-0.5c2.8,0,5.5,0.3,7.3,1.9c1.7,1.5,2.1,3.2,2.1,5.4c0,2.5-1.2,5.1-3.9,6.3v0.1
			c1.7,0.8,2.5,2.3,2.9,4.8c0.5,2.5,1.2,6.1,1.7,7.1H168c-0.3-0.7-0.9-3.3-1.2-6c-0.4-3-1.1-3.7-2.3-3.7h-0.6v9.8H158V87.1z
			 M163.9,98h0.8c1.9,0,2.8-1.6,2.8-3.5c0-1.9-0.7-3.3-2.5-3.3c-0.4,0-0.8,0-1.1,0.2V98z"/>
		<path class="st0" d="M188.3,101.4h-5.6v5.7h6.2v5.1h-12.1V86.7h11.7v5.1h-5.8v4.8h5.6V101.4z"/>
		<path class="st0" d="M198.3,86.7v25.5h-5.9V86.7H198.3z"/>
		<path class="st0" d="M202.6,112.2V86.7h5.3l3.6,9.2c0.6,1.6,1.9,4.8,2.5,6.8h0.1c-0.2-2.1-0.6-7-0.6-11.8v-4.1h5.1v25.5h-5.3
			l-3.4-8.6c-0.8-2-2-5.3-2.4-7.2h-0.1c0.1,2.2,0.3,6.4,0.3,11.4v4.4H202.6z"/>
	</g>
	<g>
		<path class="st0" d="M49,125.2c1.3-0.3,3.3-0.5,5.5-0.5c3.4,0,5.8,0.8,7.6,2.4c2.3,2.1,3.3,5.5,3.3,10.2c0,4.9-1.3,8.7-3.7,10.8
			c-1.8,1.6-4.3,2.3-8.1,2.3c-1.7,0-3.4-0.2-4.5-0.3V125.2z M54.8,145.7c0.2,0.1,0.5,0.1,0.8,0.1c2,0,3.7-2.3,3.7-8.7
			c0-4.7-1.1-7.8-3.6-7.8c-0.3,0-0.6,0-0.8,0.1V145.7z"/>
		<path class="st0" d="M72.2,145.3l-0.9,5h-5.7l5.4-25.5h7.1l4.7,25.5h-5.7l-0.8-5H72.2z M75.9,140.8l-0.6-4.8
			c-0.2-1.4-0.5-4.2-0.8-5.8h-0.1c-0.3,1.6-0.6,4.4-0.9,5.8l-0.8,4.8H75.9z"/>
		<path class="st0" d="M85.5,125.2c1.7-0.3,3.9-0.5,5.9-0.5c2.8,0,5.5,0.3,7.3,1.9c1.7,1.5,2.1,3.2,2.1,5.4c0,2.5-1.2,5.1-3.9,6.3
			v0.1c1.7,0.8,2.5,2.3,3,4.8c0.5,2.5,1.2,6.1,1.7,7.1h-6.1c-0.3-0.7-0.9-3.3-1.2-6c-0.4-3-1.1-3.7-2.3-3.7h-0.6v9.8h-5.8V125.2z
			 M91.3,136.1H92c1.9,0,2.8-1.6,2.8-3.5c0-1.9-0.7-3.3-2.5-3.3c-0.4,0-0.8,0-1.1,0.2V136.1z"/>
		<path class="st0" d="M119.9,142.3c-0.1-2-0.3-5.1-0.2-7.8h-0.1c-0.4,2.7-1.1,5.9-1.4,7.4l-1.8,7.9h-4.2l-1.7-7.9
			c-0.3-1.6-1-4.7-1.3-7.4H109c-0.1,2.7-0.3,5.7-0.4,7.8l-0.4,8h-5l2-25.5h6.1l1.6,8.2c0.6,3.2,1.3,6.1,1.7,9h0.1
			c0.3-2.8,0.9-5.9,1.5-9l1.6-8.2h6.1l1.6,25.5h-5.2L119.9,142.3z"/>
		<path class="st0" d="M128.4,144.5c1.1,0.6,2.9,1,4.4,1c2.2,0,3.2-1,3.2-2.3c0-1.6-1.1-2.3-3.3-3.6c-4.1-2.5-4.8-5.3-4.8-7.1
			c0-4.2,2.7-7.8,8.6-7.8c1.7,0,3.4,0.5,4.2,0.9l-0.8,5c-0.8-0.5-1.9-0.9-3.3-0.9c-2,0-2.9,1-2.9,2.2c0,1.1,0.5,1.8,3.4,3.4
			c3.5,2,4.7,4.7,4.7,7.3c0,4.8-3.6,8-9,8c-2.2,0-4.2-0.5-5.1-1L128.4,144.5z"/>
		<path class="st0" d="M147.1,130.3h-4.4v-5.4h14.7v5.4h-4.5v20h-5.9V130.3z"/>
		<path class="st0" d="M163.2,145.3l-0.9,5h-5.7l5.4-25.5h7.1l4.7,25.5h-5.7l-0.8-5H163.2z M166.9,140.8l-0.6-4.8
			c-0.2-1.4-0.5-4.2-0.8-5.8h-0.1c-0.3,1.6-0.6,4.4-0.9,5.8l-0.8,4.8H166.9z"/>
		<path class="st0" d="M176.5,125.2c1.3-0.3,3.3-0.5,5.5-0.5c3.4,0,5.8,0.8,7.6,2.4c2.3,2.1,3.3,5.5,3.3,10.2
			c0,4.9-1.3,8.7-3.7,10.8c-1.8,1.6-4.3,2.3-8.1,2.3c-1.7,0-3.4-0.2-4.5-0.3V125.2z M182.3,145.7c0.2,0.1,0.5,0.1,0.8,0.1
			c2,0,3.7-2.3,3.7-8.7c0-4.7-1.1-7.8-3.6-7.8c-0.3,0-0.6,0-0.8,0.1V145.7z"/>
		<path class="st0" d="M198.4,130.3H194v-5.4h14.7v5.4h-4.5v20h-5.9V130.3z"/>
		<path class="st0" d="M76.3,193.1L76.3,193.1l-4.3,2l-0.9-4.6l5.8-2.9h5.2v24.6h-5.8V193.1z"/>
		<path class="st0" d="M95.2,187.4c3.5,0,6.8,2.2,6.8,6.2c0,1.4-0.5,3.7-3.2,5.3v0.1c2.3,1.1,3.7,3.4,3.7,6.3c0,4.9-3.7,7.4-7.8,7.4
			c-4.3,0-7.6-2.4-7.6-6.9c0-2.9,1.5-5.1,3.6-6.3v-0.1c-2.1-1.4-2.9-3.4-2.9-5.3C87.8,189.9,91.1,187.4,95.2,187.4L95.2,187.4z
			 M94.9,208.8c1.5,0,2-1.7,2-3.3c0-2.1-1.4-3.6-2.5-4c-0.9,0.7-1.7,2-1.7,3.7C92.7,207,93.4,208.8,94.9,208.8L94.9,208.8z
			 M95,191.3c-1.4,0-1.8,1.4-1.8,2.7c0,1.4,0.7,2.6,2.2,3.3c0.8-0.3,1.4-1.8,1.4-3.1C96.7,192.8,96.3,191.3,95,191.3L95,191.3z"/>
		<path class="st0" d="M106.2,207.8c1.1,0,1.5,0,2.5-0.2c0.8-0.2,1.9-0.6,2.7-1.3c0.9-0.8,1.7-2.3,2.2-4.1h-0.1
			c-0.8,0.8-1.8,1.3-3.3,1.3c-3.3,0-6-2.8-6-7.4c0-4.1,2.6-8.7,7.8-8.7c4.7,0,7.3,4,7.3,10.2c0,5.9-2,9.8-4.4,12.1
			c-1.5,1.5-3.7,2.5-6.2,2.8c-0.8,0.1-1.6,0.1-2.4,0.1V207.8z M111.5,191.6c-1.1,0-1.8,1.7-1.7,4.1c0,1.9,0.5,3.9,1.9,3.9
			c0.7,0,1.3-0.6,1.4-0.9c0.2-0.5,0.2-1.1,0.2-3.1C113.3,193.3,112.6,191.6,111.5,191.6L111.5,191.6z"/>
		<path class="st0" d="M128.8,187.4c3.5,0,6.8,2.2,6.8,6.2c0,1.4-0.5,3.7-3.2,5.3v0.1c2.3,1.1,3.7,3.4,3.7,6.3
			c0,4.9-3.7,7.4-7.8,7.4c-4.3,0-7.6-2.4-7.6-6.9c0-2.9,1.5-5.1,3.6-6.3v-0.1c-2.1-1.4-2.9-3.4-2.9-5.3
			C121.3,189.9,124.7,187.4,128.8,187.4L128.8,187.4z M128.5,208.8c1.5,0,2-1.7,2-3.3c0-2.1-1.4-3.6-2.5-4c-0.9,0.7-1.7,2-1.7,3.7
			C126.3,207,127,208.8,128.5,208.8L128.5,208.8z M128.6,191.3c-1.4,0-1.8,1.4-1.8,2.7c0,1.4,0.7,2.6,2.2,3.3
			c0.8-0.3,1.4-1.8,1.4-3.1C130.3,192.8,129.9,191.3,128.6,191.3L128.6,191.3z"/>
		<path class="st0" d="M149.5,205.4c0.1,1.7,1.5,2.7,3.7,2.7c1.5,0,2.8-0.3,3.7-0.6l0.7,4.2c-1.4,0.5-3.5,0.8-5.5,0.8
			c-5.3,0-8.3-3.2-8.3-9.1c0-6.4,3.6-10.1,7.9-10.1c4.1,0,6.8,2.8,6.8,9c0,1.6-0.1,2.4-0.2,3H149.5z M153.4,201.4
			c0-1.8-0.3-3.8-1.8-3.8c-1.5,0-2,2.2-2,3.8H153.4z"/>
		<path class="st0" d="M164.4,212.6c-1.7,0-3.3-1.5-3.3-3.7c0-2.2,1.6-3.8,3.3-3.8c1.8,0,3.3,1.4,3.3,3.8
			C167.7,211.1,166.4,212.6,164.4,212.6L164.4,212.6z"/>
		<path class="st0" d="M174.2,212.3l-5.6-25.5h6.5l1.5,10.6c0.4,2.7,0.8,5.6,1.1,8.4h0.1c0.3-2.9,0.6-5.7,1-8.5l1.4-10.5h6.5
			l-5.8,25.5H174.2z"/>
	</g>
</g>
</svg>
