<?xml version="1.0" encoding="utf-8"?>
<!-- Generator: Adobe Illustrator 17.0.0, SVG Export Plug-In . SVG Version: 6.00 Build 0)  -->
<!DOCTYPE svg PUBLIC "-//W3C//DTD SVG 1.1//EN" "http://www.w3.org/Graphics/SVG/1.1/DTD/svg11.dtd" [
	<!ENTITY ns_flows "http://ns.adobe.com/Flows/1.0/">
	<!ENTITY ns_extend "http://ns.adobe.com/Extensibility/1.0/">
	<!ENTITY ns_ai "http://ns.adobe.com/AdobeIllustrator/10.0/">
	<!ENTITY ns_graphs "http://ns.adobe.com/Graphs/1.0/">
]>
<svg version="1.1" id="Layer_2" xmlns:x="&ns_extend;" xmlns:i="&ns_ai;" xmlns:graph="&ns_graphs;"
	 xmlns="http://www.w3.org/2000/svg" xmlns:xlink="http://www.w3.org/1999/xlink" xmlns:a="http://ns.adobe.com/AdobeSVGViewerExtensions/3.0/"
	 x="0px" y="0px" width="256px" height="256px" viewBox="0 0 256 256" style="enable-background:new 0 0 256 256;"
	 xml:space="preserve">
<style type="text/css">
	.st0{fill:#FFFFFF;}
	.st1{fill:#54B948;}
	.st2{fill:#1D8C8E;}
	.st3{fill:#14DEAC;}
	.st4{fill:#1466AC;}
	.st5{fill:#757575;}
	.st6{fill:#B69442;}
	.st7{fill:#1A234D;}
	.st8{fill:#AA0629;}
	.st9{fill:#FF4A49;}
	.st10{fill:#3C6643;}
	.st11{fill:none;stroke:#FF4A49;stroke-miterlimit:10;}
	.st12{fill:#E70084;}
	.st13{fill:#508A72;}
	.st14{fill:#01A663;}
	.st15{fill:#015297;}
	.st16{fill:#B0B0B0;}
	.st17{fill:#E1062F;}
	.st18{fill:#D80000;stroke:#FFFFFF;stroke-width:2;stroke-miterlimit:10;}
	.st19{fill:#D80000;}
	.st20{fill:#8ABE23;}
	.st21{fill:#1D1D1B;}
	.st22{fill:#FEFEFE;}
	.st23{fill:#FF0000;}
	.st24{fill:#FF1D1B;}
	.st25{fill:#6DB2DE;}
	.st26{fill:#FF1D25;}
	.st27{fill:#FFDA00;}
	.st28{fill:#024D9E;}
	.st29{fill:#6B97C6;}
	.st30{fill:#000078;}
	.st31{fill:none;stroke:#FFFFFF;stroke-width:6;stroke-linecap:round;stroke-miterlimit:10;}
	.st32{fill:#FFEE34;}
	.st33{fill:none;stroke:#000000;stroke-width:4;stroke-miterlimit:10;}
	.st34{fill:#D11E24;}
	.st35{fill:#D71F26;}
	.st36{fill:#020000;}
	.st37{fill:none;stroke:#000000;stroke-width:2;stroke-miterlimit:10;}
	.st38{clip-path:url(#SVGID_2_);}
	.st39{fill:#00317D;}
	.st40{fill:#00737D;}
	.st41{fill:#ED1C24;}
	.st42{fill:#2678C7;}
	.st43{fill:#1853A6;}
	.st44{fill:#CB0000;}
	.st45{fill:#E61C21;}
	.st46{clip-path:url(#SVGID_4_);}
	.st47{fill:#6BDEF1;}
	.st48{clip-path:url(#SVGID_6_);}
	.st49{fill:#0165B2;}
	.st50{fill:#DE1134;}
	.st51{fill:#00A668;}
	.st52{fill:#FFE60B;}
	.st53{fill:#843D00;stroke:#000000;stroke-miterlimit:10;}
	.st54{fill:#EC1F27;}
	.st55{fill:#162984;}
	.st56{fill:#1853A6;stroke:#1853A6;stroke-miterlimit:10;}
	.st57{fill:none;}
	.st58{fill:none;stroke:#1853A6;stroke-width:0.9;stroke-miterlimit:10;}
	.st59{fill:#1853A6;stroke:#1853A6;stroke-width:0.9;stroke-miterlimit:10;}
	.st60{fill:#B5985A;}
	.st61{fill:#FFE60B;stroke:#000000;stroke-width:6;stroke-miterlimit:10;}
	.st62{fill:#008DCD;}
	.st63{fill:#009939;}
	.st64{fill:#2E3092;}
	.st65{fill:#EE3224;}
	.st66{fill:#005BAB;}
	.st67{fill:#D30027;}
	.st68{fill:#FFFFFF;stroke:#D30027;stroke-width:10;stroke-miterlimit:10;}
	.st69{fill:#E81C2F;}
	.st70{fill:#DC032B;}
	.st71{fill:#F25448;}
	.st72{fill:#FFFFFF;stroke:#F25448;stroke-width:6;stroke-miterlimit:10;}
	.st73{fill:#05A08D;}
	.st74{fill:#1875CE;}
	.st75{fill:#D72427;}
	.st76{fill:#004993;}
	.st77{fill:#007BB0;}
	.st78{fill:#FFEB00;}
	.st79{fill:#664A9E;}
	.st80{fill:#F4C701;}
	.st81{fill:#EBBE12;}
	.st82{fill:#44B3DB;}
	.st83{fill:#F6FF82;}
	.st84{fill:#FFC918;}
	.st85{fill:#0361A4;}
	.st86{fill:#009FE3;}
	.st87{fill:#E30217;}
	.st88{fill:#FDEA00;}
	.st89{fill:#E91B00;}
	.st90{fill:#2B2763;}
	.st91{fill:#EE1A22;}
	.st92{fill:#F1AA25;}
	.st93{fill:#93000C;}
	.st94{fill:none;stroke:#1D1D1B;stroke-width:4;}
	.st95{fill:#3E4E70;}
	.st96{fill:#096CB6;}
	.st97{fill:#0559A8;}
	.st98{fill:#F9ED1A;}
	.st99{fill:#949494;}
	.st100{fill:#FFD033;}
	.st101{fill:#243D89;}
	.st102{fill:#F8C936;}
	.st103{fill:#D44128;}
	.st104{fill:#ED1B23;}
	.st105{fill:#0C529C;}
	.st106{fill:#E31E24;}
	.st107{fill:#0263B0;}
	.st108{fill:#007AC2;}
	.st109{fill:#EF3D1F;}
	.st110{fill:#EE1C24;}
	.st111{fill:#FDEA00;stroke:#000000;stroke-width:0.6509;}
	.st112{fill:#FDEA00;stroke:#000000;stroke-width:0.6979;}
	.st113{fill:#46A0BE;}
	.st114{fill:#005FA5;}
	.st115{fill:#00904C;}
	.st116{fill:#E21F26;}
	.st117{fill:#FD0001;}
	.st118{fill:#0066B3;}
	.st119{fill:#E20019;}
	.st120{fill:#0171BC;}
	.st121{fill:#01305D;}
	.st122{fill:#1B7EE9;}
	.st123{fill:#BA0D0B;}
	.st124{fill:none;stroke:#000000;stroke-width:3;stroke-miterlimit:10;}
	.st125{fill:#FFFFFF;stroke:#000000;stroke-width:0.8836;stroke-miterlimit:10;}
	.st126{fill:#FFFFFF;stroke:#000000;stroke-width:0.9759;stroke-miterlimit:10;}
	.st127{fill:#0053A1;}
	.st128{fill:#FFE100;}
	.st129{fill:#FFE500;}
	.st130{fill:none;stroke:#FFE500;stroke-width:2;stroke-miterlimit:10;}
	.st131{fill:#01AFF3;}
	.st132{fill:#ED1B28;}
	.st133{fill:#E2000A;}
</style>
<g>
	<circle class="st23" cx="128" cy="128" r="126"/>
	<path class="st0" d="M202.8,55.3c-2.9-2.8-6.4-4.2-10.2-5.3c-3.4-0.9-6.8-0.8-9.9,0.9c-2.3,1.3-4.2,3.5-3.3,6.4
		c0.6,2,1.7,3.5,3.9,3.9c1.9,0.4,3.6,0.1,5.4-0.3c0.8-0.1,1.8-0.1,2-1.1c0.3-1-0.5-1.7-1.2-2.2c-0.8-0.6-0.7-1.1-0.1-1.6
		c0.1-0.2,0.2-0.3,0.4-0.5c3.3-3.9,7-3.2,9.6,0.3c1.9,2.6,2.2,5.7,1.4,8.9c-0.9,3.6-3.2,6-6.7,7.3c-3.3,1.2-6.6,1.2-10,0.9
		c-4.4-0.4-8.7-1.5-13-2.7c-4.8-1.4-9.6-3-14.2-4.9c-5.1-2-10-4.3-15.2-6.2c-2.8-1-5.7-2-8.6-2.9c-4.2-1.2-8.4-2.3-12.7-2.9
		c-3.2-0.5-6.4-0.8-9.7-0.5c-3.1,0.2-9.7,1.5-10.6,1.8c-2.7,0.8-5.3,1.8-7.8,3.2c-3.6,2.1-6.5,4.9-8.3,8.7c-0.5,1-0.8,2-1.6,2.9
		c-2.2,2.5-3.2,5.6-3.7,8.9c-0.2,1.5-0.2,3-0.6,4.5c-1.1,3.4-2.6,6.7-4.5,9.7c-0.9,1.4-1.9,2.6-2.4,4.2c-1.1,3.4-0.8,6.8,0.1,10.2
		c0.8,3.2,2.3,6,3.9,8.8c2,3.4,4,6.8,5.8,10.4c0.4,0.9,1.6,3.5,1.7,3.8c0.8,1.9,1.4,3.8,1.7,5.9c0.2,1.6-0.2,2.9-1.4,4
		c-3,2.8-9,3.8-12.7-0.2c-0.2-0.3-1.3-1.8-1.3-2.9c0-1.2,0.8-1.9,1.4-2.8c1-1.5,1.8-3.2,0.9-5.1c-1.6-3.8-7.7-5.1-10.8-2.2
		c-0.2,0.2-2.4,2.5-2.9,3.9c-1.3,4.1,0.3,8.9,3.8,11.4c3.4,2.5,7.2,3.5,11.3,4c2.9,0.4,5.7,0.2,8.5-0.3c2.8-0.5,5.4-1.4,7.8-3.1
		c0.8-0.5,1.3-1.4,2.2-1.8c3.2-1.5,6-3.5,8.5-6c2.7-2.8,4.6-6,4.9-9.9c0.5-5.5-1.1-10.5-4-15.1c-2.9-4.6-6.4-8.8-9.8-13
		c-2.7-3.5-5.5-7.1-7.6-11c-2.7-5-0.2-10,3.7-12.7c2.3-1.7,5.2-2,8-2.2c5.2-0.2,10.3,0.9,15.2,2.3c2.8,0.8,5.6,1.7,8.4,2.6
		c1.4,0.4,2.7,0.9,4.1,1.5c-0.4,0.4-0.8,0.5-1.2,0.7c-3.1,1.3-5.2,3.9-3.4,7.7c0.4,0.8,0.4,1.5,0.4,2.4c-0.2,3.4-1.2,6.6-2.3,9.8
		c-0.8,2.2-1.6,4.5-2.5,6.6c-0.4,0.9-0.5,2-1.3,2.8c-2.8,2.7-3.4,6.2-2.8,9.9c0.5,3,2,5.8,3.4,8.6c1.4,2.7,3,5.4,4.6,8
		c0.3,0.5,0.3,0.8-0.1,1.1c-2.4,1.9-4.4,4.2-6.6,6.3c-1.5,1.5-3.1,3-4.4,4.7c-0.2,0.3-0.6,0.7-0.3,1.1c0.2,0.4,0.7,0.1,1.1,0.1
		c1.4-0.2,2.7-0.4,4.1-0.7c3.1-0.6,4-1.7,4-4.7c0-0.3,0.1-0.5,0.4-0.7c1.3-0.8,2.6-1.7,3.9-2.6c0.6-0.4,0.9-0.3,1.3,0.3
		c1.1,1.6,2.2,3.2,3.5,4.6c3.2,3.6,6.7,7,9.8,10.7c3.1,3.8,6.2,7.7,8.1,12.3c0.8,1.9,1.4,3.8,1.1,5.9c-0.4,3.3-2.1,6.1-4.2,8.5
		c-0.4,0.4-0.6,0.3-0.9-0.1c-3.3-4.8-7.3-8.9-12.1-12.4c-3-2.2-6.4-3.9-9.9-5.1c-3.6-1.2-7.2-2-11-2.3c-1.3-0.1-2.6-0.1-3.9-0.2
		c-2.3-0.1-4.7,0-7,0.6c-2.4,0.6-4.5,1.8-5.9,4c-0.5,0.8-0.6,1.7-1.1,2.4c-1.1,1.6-2.4,3-3.7,4.4c-2.1,2.3-4.2,4.6-6.3,6.9
		c-0.8,0.8-1.8,1.7-2.8,2.6c-1.4,1.2-2.8,2.4-3.9,3.9c0,0,0,0,0,0.1c-1.7,2.2-2,4.8-2,7.1c0,0.2,0.2,2.4,0.2,2.5
		c0.1,2.4,0.6,4.6,1.6,6.7c1.4,3,3.3,5.4,6.6,6.3c2.9,0.8,5.8,0.7,8.3-1.2c2.6-2,3.1-5.5,1.2-7.8c-1.2-1.5-2.8-1.9-4.6-1.4
		c-1.4,0.4-2.1,1.5-2.3,2.8c-0.2,1-0.3,1.1-1.3,0.8c-0.1,0-0.3-0.1-0.4-0.1c-3.5-1.3-6-3.5-6.8-7.1c-0.2-1.2-0.1-2.3,0.4-3.4
		c0,0,0,0,0,0c0.4-1,1.1-1.9,1.9-2.7c0.1-0.1,0.2-0.1,0.2-0.2c0.5-0.5,1-0.9,1.5-1.4c1.8-1.4,3.8-2.5,5-3.1c0.2-0.1,0.4-0.2,0.6-0.3
		c0.2-0.1,0.4-0.2,0.5-0.2c1-0.4,2.5-0.8,2.6-0.9c2.9-0.8,6-1.1,9-1.2c3.7-0.1,7.5,0,11.1,1c3,0.8,5.9,2,8.6,3.5
		c5.1,2.8,8.8,7,11.5,12.1c1.2,2.2,1.9,4.6,2.3,7c0.6,2.9,1.1,5.9,0.6,8.9c-0.2,1.5-0.6,3-1.9,4c-1.5,1.2-3.4,0.6-3.9-1.2
		c-0.2-0.9-0.5-1.7-1-2.5c-0.7-1.1-1.9-1.7-3.2-1.3c-1.2,0.4-2.3,1.1-2.3,2.7c0,1.6,0.7,2.8,1.9,3.7c3,2.1,6.3,2.2,9.6,0.9
		c4.4-1.7,6.9-5,8.1-9.4c0.3-1,3-5.9,4-7.3c1.5-2.2,2.7-4.6,3.1-7.3c0.1-0.7-0.1-1.4,0.2-2c1-1.8,0.8-3.7,0.3-5.6
		c-0.3-1-0.4-1.9,0.3-2.8c0.8-1,1.2-2.2,1.8-3.3c0.5-0.9,0.8-1.9,1.6-2.7c2-1.7,3.8-3.6,5.6-5.5c1.9-2,3.6-4.3,5.2-6.5
		c0.3-0.4,2.7-3.8,3.7-6.5c1-3.2,1.3-6.4,0.5-9.6c-0.9-3.6-2.6-6.9-4.5-10.1c-2.2-3.7-5.1-6.8-7.6-10.3c-1.7-2.3-3.4-4.7-5.1-7
		c-0.2-0.2-0.5-0.6,0.1-0.9c2.1-1,4.2-1.9,6.5-2.3c3-0.5,5.8,0,8.7,1c4.1,1.5,6.7,5.5,6.4,9.8c-0.1,0.8-0.4,1.5-0.9,2.1
		c-0.5,0.5-1,0.5-1.5,0c-0.6-0.7-1-1.4-1.5-2.2c-0.4-0.6-0.8-0.7-1.3-0.1c-0.8,0.8-1.2,2.6-0.7,3.5c0.6,1.2,1.6,2,3,1.9
		c0.7,0,1.5-0.2,2.2-0.2c1.3-0.1,2.4-0.6,3.3-1.6c1.5-1.6,2.2-3.6,2.2-5.7c0-1.3,0.3-2.5,0.9-3.6c0.5-0.9,0.8-1.8,1.3-2.7
		c0.9-1.7,1.7-3.5,3-5.1c1.1-1.3,1.5-2.9,0.9-4.6c-0.8-2.3-2.8-3.2-4.9-3.8c-2.4-0.7-4.9-0.9-7.5-0.9c-4.7,0-9.2,0.9-13.5,2.7
		c-3.6,1.5-7,3.5-10.1,5.9c-0.8,0.6-1.1,0.3-1.5-0.3c-3.7-5.7-7.4-11.4-10.6-17.3c-1.8-3.3-3.7-6.6-4.2-10.5
		c-0.2-1.6-0.2-3.2,0.3-4.7c0.8-2.6,2.7-3.8,5.5-3.7c0.6,0,2,0.1,2.3,0.3c0.9,0.2,1.9,0.5,2.8,0.9c3.9,1.6,7.9,3,11.8,4.5
		c6,2.3,12.1,4.5,18.4,6c2.4,0.6,4.9,1.2,7.4,1.5c0,0,0.1,0,0.1,0c0.8,0.1,4.6,0.7,6.4,0.8c3.5,0.2,7,0.1,10.3-1.4
		c2.7-1.2,4.9-2.9,6-5.8c0.1-0.3,0.3-0.6,0.6-0.8c2-1.6,3.8-3.4,5.3-5.4c1.4-1.8,2.3-3.8,3.3-5.9c1.9-4.1,2.4-9.6,2.5-11.1
		C207,60.5,205.3,57.7,202.8,55.3z"/>
	<g>
		<path class="st0" d="M53.8,195.7c-0.3-1.5-1.2-3.6-2.5-5.3c-1.4-1.7-2.7-2-3.6-1.3c-1,0.8-0.9,2-0.1,4.7c1.2,4.2,0.6,7.3-1.8,9.2
			c-3.3,2.6-8,2.1-11.7-2.6c-1.6-2-2.4-3.8-2.7-5.2l4.7-2.2c0.3,1,0.8,2.6,2.1,4.3c1.2,1.5,2.5,1.8,3.3,1.2c0.9-0.7,0.7-1.9-0.1-5
			c-1.2-4.2-0.4-7,2.1-9c3.4-2.7,8.1-2.2,12.1,2.9c1.7,2.1,2.7,4.5,3,5.9L53.8,195.7z"/>
		<path class="st0" d="M40.1,164c0.7,0.6,2.1,2.1,3.2,4.4c3.9,7.5,0.6,13.3-5.1,16.2c-7.7,4-14.1,0.7-17.2-5.2
			c-1.1-2.2-1.6-4.1-1.6-5.1l4.9-1.3c0.1,1,0.3,2.3,1.1,3.7c1.6,3.1,4.9,4.6,9.4,2.2c4.1-2.1,5.2-5.5,3.4-9c-0.6-1.1-1.5-2.4-2.2-3
			L40.1,164z"/>
		<path class="st0" d="M14.2,161.1l-3.2-13.9l5-1.1l1.8,7.8l4.6-1l-1.7-7.3l4.9-1.1l1.7,7.3l9.1-2.1l1.4,6.1L14.2,161.1z"/>
		<path class="st0" d="M34.4,129.7c0.1,7.1-5.7,10.7-12.2,10.8c-6.8,0.1-12.6-3.8-12.7-10.7c-0.1-7.5,6.1-10.7,12-10.8
			C29.6,118.8,34.3,123,34.4,129.7L34.4,129.7z M29.3,129.5c0-2.7-3.1-4.1-7.6-4.1c-4.2,0.1-7.3,1.6-7.3,4.3c0,2.7,3.2,4.2,7.5,4.1
			C26.4,133.9,29.4,132.2,29.3,129.5L29.3,129.5z"/>
		<path class="st0" d="M10.9,111.7c0.1-1.8,0.4-4.3,1-7.1c0.7-3.3,1.7-5.8,3.4-7.3c1.6-1.3,3.3-1.6,5.6-1.1c2.8,0.6,4.6,2.9,5,5.1
			l0.1,0c1-1.4,2.7-1.9,4.9-2c2.6-0.1,6.1-0.2,7.2-0.4l-1.3,6.3c-0.7,0.2-2.9,0.3-5.9,0.4c-3,0-3.7,0.6-4.1,2.4l-0.2,0.9l9,1.9
			l-1.3,6L10.9,111.7z M22.2,107.8l0.3-1.4c0.5-2.2-0.5-3.7-2.3-4.1c-1.8-0.4-3.1,0.4-3.5,2.4c-0.2,1-0.3,1.5-0.2,1.8L22.2,107.8z"
			/>
		<path class="st0" d="M23,86.2l-2.2,5.1l-4.9-2.1l6.9-16.1l4.9,2.1l-2.3,5.2L42.9,88l-2.5,5.7L23,86.2z"/>
		<path class="st0" d="M29.6,62.3l11.7,8.3c2.9,2,5,2.1,6.2,0.4c1.2-1.7,0.6-3.5-2.4-5.7L33.4,57l3.6-5.1l11.2,7.9
			c5.8,4.1,7,9,3.3,14.1c-3.7,5.2-8.5,5.5-14.4,1.3L26,67.4L29.6,62.3z"/>
		<path class="st0" d="M58.7,63.7l-16-18.2l5.2-4.5l8,3.4c2.2,0.9,5.4,2.4,7.7,3.7l0.1-0.1c-2.1-1.9-4.8-4.6-7.3-7.6l-3.4-3.9
			l4.2-3.7l16,18.2l-4.8,4.2l-8.2-3.5c-2.4-1-5.7-2.5-8.1-3.8L52,47.9c2,2.1,4.6,4.9,7.4,8L63,60L58.7,63.7z"/>
		<path class="st0" d="M78.2,41.9l1.5,5.3l-5.6,3l-5.8-24.4l7.1-3.8l17.1,18.3l-5.7,3.1l-3.7-4.1L78.2,41.9z M80.3,35.5l-3-3.4
			c-0.9-1.1-2.3-2.8-3.3-3.9l-0.1,0c0.4,1.4,1.1,3.6,1.5,4.9l1.2,4.4L80.3,35.5z"/>
		<path class="st0" d="M95.2,14l6-1.3l2.1,10.2l0.1,0c0.3-1,0.5-2.1,0.8-3.1l2.4-8.2l7.3-1.5l-4.7,11.6l9.9,12l-7,1.5l-6.3-8.6
			l-1.1,2.6l1.5,7.2l-6,1.3L95.2,14z"/>
		<path class="st0" d="M128.3,34.4c-7.1-0.1-10.5-6-10.4-12.6c0.1-6.8,4.2-12.5,11.2-12.4c7.4,0.1,10.5,6.4,10.4,12.3
			C139.4,29.9,135,34.5,128.3,34.4L128.3,34.4z M125.2,8.4c-1.5,0-2.6-1.3-2.6-2.7c0-1.5,1.3-2.6,2.7-2.6c1.4,0,2.5,1.2,2.5,2.7
			C127.8,7.2,126.6,8.4,125.2,8.4L125.2,8.4z M128.7,29.3c2.7,0,4.2-2.9,4.3-7.5c0.1-4.2-1.4-7.4-4.1-7.4c-2.7,0-4.3,3.1-4.4,7.3
			C124.4,26.3,126,29.3,128.7,29.3L128.7,29.3z M132.8,8.5c-1.5,0-2.6-1.3-2.6-2.7c0-1.5,1.2-2.6,2.7-2.6c1.4,0,2.5,1.2,2.5,2.7
			C135.4,7.3,134.2,8.5,132.8,8.5L132.8,8.5z"/>
		<path class="st0" d="M146.6,11l6.1,1.3l-4,18.6l8.1,1.8l-1.1,5.1l-14.2-3.1L146.6,11z"/>
		<path class="st0" d="M157.5,38.2l9.9-22.2l6.3,2.8l0.2,8.7c0.1,2.4,0.1,5.9-0.2,8.6l0.1,0c0.9-2.7,2.2-6.3,3.8-9.8l2.1-4.7
			l5.1,2.3L175,46l-5.8-2.6l-0.2-9c-0.1-2.6-0.1-6.2,0.1-8.9l-0.1,0c-1.1,2.7-2.5,6.2-4.2,10l-2.2,5L157.5,38.2z"/>
	</g>
	<path class="st31" d="M205.1,46.8C226.6,67.2,240,96,240,128c0,61.9-50.1,112-112,112c-22.3,0-43.1-6.5-60.5-17.7"/>
	<polygon class="st0" points="195.1,161.2 207.3,169.7 203,155.4 214.9,146.5 200,146.1 195.1,132.1 190.2,146.1 175.3,146.5 
		187.2,155.4 182.9,169.7 	"/>
</g>
<g>
	<g>
		<defs>
			<circle id="SVGID_5_" cx="128" cy="404" r="105.4"/>
		</defs>
		<clipPath id="SVGID_2_">
			<use xlink:href="#SVGID_5_"  style="overflow:visible;"/>
		</clipPath>
		<g class="st38">
			<g>
				<polygon class="st0" points="128,226.5 112.6,197.5 128.1,168.3 143.6,197.4 				"/>
				<polygon class="st47" points="143.5,255.6 128,226.5 143.6,197.4 159.1,226.4 				"/>
				<polygon class="st0" points="159,284.7 143.5,255.6 159.1,226.4 174.6,255.5 				"/>
				<polygon class="st49" points="174.5,313.7 159,284.7 174.6,255.5 190,284.6 				"/>
				<polygon class="st47" points="112.5,255.7 97,226.6 112.6,197.5 128,226.5 				"/>
				<polygon class="st0" points="128,284.8 112.5,255.7 128,226.5 143.5,255.6 				"/>
				<polygon class="st49" points="143.5,313.8 128,284.8 143.5,255.6 159,284.7 				"/>
				<polygon class="st0" points="97,284.9 81.5,255.8 97,226.6 112.5,255.7 				"/>
				<polygon class="st49" points="112.4,313.9 97,284.9 112.5,255.7 128,284.8 				"/>
				<polygon class="st49" points="81.6,313.8 66.1,284.7 81.6,255.5 97.1,284.6 				"/>
			</g>
		</g>
	</g>
</g>
</svg>
