<?xml version="1.0" encoding="utf-8"?>
<!-- Generator: Adobe Illustrator 17.0.0, SVG Export Plug-In . SVG Version: 6.00 Build 0)  -->
<!DOCTYPE svg PUBLIC "-//W3C//DTD SVG 1.1//EN" "http://www.w3.org/Graphics/SVG/1.1/DTD/svg11.dtd" [
	<!ENTITY ns_flows "http://ns.adobe.com/Flows/1.0/">
	<!ENTITY ns_extend "http://ns.adobe.com/Extensibility/1.0/">
	<!ENTITY ns_ai "http://ns.adobe.com/AdobeIllustrator/10.0/">
	<!ENTITY ns_graphs "http://ns.adobe.com/Graphs/1.0/">
]>
<svg version="1.1" id="Layer_2" xmlns:x="&ns_extend;" xmlns:i="&ns_ai;" xmlns:graph="&ns_graphs;"
	 xmlns="http://www.w3.org/2000/svg" xmlns:xlink="http://www.w3.org/1999/xlink" xmlns:a="http://ns.adobe.com/AdobeSVGViewerExtensions/3.0/"
	 x="0px" y="0px" width="256px" height="256px" viewBox="0 0 256 256" style="enable-background:new 0 0 256 256;"
	 xml:space="preserve">
<style type="text/css">
	.st0{fill:#FFFFFF;}
	.st1{fill:#54B948;}
	.st2{fill:#1D8C8E;}
	.st3{fill:#14DEAC;}
	.st4{fill:#1466AC;}
	.st5{fill:#757575;}
	.st6{fill:#B69442;}
	.st7{fill:#1A234D;}
	.st8{fill:#AA0629;}
	.st9{fill:#FF4A49;}
	.st10{fill:#3C6643;}
	.st11{fill:none;stroke:#FF4A49;stroke-miterlimit:10;}
	.st12{fill:#E70084;}
	.st13{fill:#508A72;}
	.st14{fill:#01A663;}
	.st15{fill:#015297;}
	.st16{fill:#B0B0B0;}
	.st17{fill:#E1062F;}
	.st18{fill:#D80000;stroke:#FFFFFF;stroke-width:2;stroke-miterlimit:10;}
	.st19{fill:#D80000;}
	.st20{fill:#8ABE23;}
	.st21{fill:#1D1D1B;}
	.st22{fill:#FEFEFE;}
	.st23{fill:#FF0000;}
	.st24{fill:#FF1D1B;}
	.st25{fill:#6DB2DE;}
	.st26{fill:#FF1D25;}
	.st27{fill:#FFDA00;}
	.st28{fill:#024D9E;}
	.st29{fill:#6B97C6;}
	.st30{fill:#000078;}
	.st31{fill:none;stroke:#FFFFFF;stroke-width:6;stroke-linecap:round;stroke-miterlimit:10;}
	.st32{fill:#FFEE34;}
	.st33{fill:none;stroke:#000000;stroke-width:4;stroke-miterlimit:10;}
	.st34{fill:#D11E24;}
	.st35{fill:#D71F26;}
	.st36{fill:#020000;}
	.st37{fill:none;stroke:#000000;stroke-width:2;stroke-miterlimit:10;}
	.st38{clip-path:url(#SVGID_2_);}
	.st39{fill:#00317D;}
	.st40{fill:#00737D;}
	.st41{fill:#ED1C24;}
	.st42{fill:#2678C7;}
	.st43{fill:#1853A6;}
	.st44{fill:#CB0000;}
	.st45{fill:#E61C21;}
	.st46{clip-path:url(#SVGID_4_);}
	.st47{fill:#6BDEF1;}
	.st48{clip-path:url(#SVGID_6_);}
	.st49{fill:#0165B2;}
	.st50{fill:#DE1134;}
	.st51{fill:#00A668;}
	.st52{fill:#FFE60B;}
	.st53{fill:#843D00;stroke:#000000;stroke-miterlimit:10;}
	.st54{fill:#EC1F27;}
	.st55{fill:#162984;}
	.st56{fill:#1853A6;stroke:#1853A6;stroke-miterlimit:10;}
	.st57{fill:none;}
	.st58{fill:none;stroke:#1853A6;stroke-width:0.9;stroke-miterlimit:10;}
	.st59{fill:#1853A6;stroke:#1853A6;stroke-width:0.9;stroke-miterlimit:10;}
	.st60{fill:#B5985A;}
	.st61{fill:#FFE60B;stroke:#000000;stroke-width:6;stroke-miterlimit:10;}
	.st62{fill:#008DCD;}
	.st63{fill:#009939;}
	.st64{fill:#2E3092;}
	.st65{fill:#EE3224;}
	.st66{fill:#005BAB;}
	.st67{fill:#D30027;}
	.st68{fill:#FFFFFF;stroke:#D30027;stroke-width:10;stroke-miterlimit:10;}
	.st69{fill:#E81C2F;}
	.st70{fill:#DC032B;}
	.st71{fill:#F25448;}
	.st72{fill:#FFFFFF;stroke:#F25448;stroke-width:6;stroke-miterlimit:10;}
	.st73{fill:#05A08D;}
	.st74{fill:#1875CE;}
	.st75{fill:#D72427;}
	.st76{fill:#004993;}
	.st77{fill:#007BB0;}
	.st78{fill:#FFEB00;}
	.st79{fill:#664A9E;}
	.st80{fill:#F4C701;}
	.st81{fill:#EBBE12;}
	.st82{fill:#44B3DB;}
	.st83{fill:#F6FF82;}
	.st84{fill:#FFC918;}
	.st85{fill:#0361A4;}
	.st86{fill:#009FE3;}
	.st87{fill:#E30217;}
	.st88{fill:#FDEA00;}
	.st89{fill:#E91B00;}
	.st90{fill:#2B2763;}
	.st91{fill:#EE1A22;}
	.st92{fill:#F1AA25;}
	.st93{fill:#93000C;}
	.st94{fill:none;stroke:#1D1D1B;stroke-width:4;}
	.st95{fill:#3E4E70;}
	.st96{fill:#096CB6;}
	.st97{fill:#0559A8;}
	.st98{fill:#F9ED1A;}
	.st99{fill:#949494;}
	.st100{fill:#FFD033;}
	.st101{fill:#243D89;}
	.st102{fill:#F8C936;}
	.st103{fill:#D44128;}
	.st104{fill:#ED1B23;}
	.st105{fill:#0C529C;}
	.st106{fill:#E31E24;}
	.st107{fill:#0263B0;}
	.st108{fill:#007AC2;}
	.st109{fill:#EF3D1F;}
	.st110{fill:#EE1C24;}
	.st111{fill:#FDEA00;stroke:#000000;stroke-width:0.6509;}
	.st112{fill:#FDEA00;stroke:#000000;stroke-width:0.6979;}
	.st113{fill:#46A0BE;}
	.st114{fill:#005FA5;}
	.st115{fill:#00904C;}
	.st116{fill:#E21F26;}
	.st117{fill:#FD0001;}
	.st118{fill:#0066B3;}
	.st119{fill:#E20019;}
	.st120{fill:#0171BC;}
	.st121{fill:#01305D;}
	.st122{fill:#1B7EE9;}
	.st123{fill:#BA0D0B;}
	.st124{fill:none;stroke:#000000;stroke-width:3;stroke-miterlimit:10;}
	.st125{fill:#FFFFFF;stroke:#000000;stroke-width:0.8836;stroke-miterlimit:10;}
	.st126{fill:#FFFFFF;stroke:#000000;stroke-width:0.9759;stroke-miterlimit:10;}
	.st127{fill:#0053A1;}
	.st128{fill:#FFE100;}
	.st129{fill:#FFE500;}
	.st130{fill:none;stroke:#FFE500;stroke-width:2;stroke-miterlimit:10;}
	.st131{fill:#01AFF3;}
	.st132{fill:#ED1B28;}
	.st133{fill:#E2000A;}
</style>
<g>
	<g>
		<path class="st62" d="M22,128v29.2c5,10.2,10,19.4,15,27.6V128H22z"/>
		<path class="st62" d="M52,128v74c5,4.6,10,8.4,15,11.7V128H52z"/>
		<path class="st0" d="M37,128v56.8c1,1,1.4,1.9,2.1,2.9c4.1,5.5,8.9,10.2,12.9,14.3v-74H37z"/>
		<path class="st0" d="M13.3,128c2.5,10.5,5.7,20.3,8.7,29.2V128H13.3z"/>
		<path class="st0" d="M127,128v118.2c1,0.1,0.4,0.3,0.5,0.4c0.1-0.2,0.5-0.5,0.5-0.8V128H127z"/>
		<path class="st0" d="M97,128v100.6c2,0.5,2.3,0.9,3.4,1.4c4.2,1.7,8.6,3.3,11.6,4.9V128H97z"/>
		<path class="st62" d="M112,128v106.9c7,3.1,12,6.5,15,11.3V128H112z"/>
		<path class="st62" d="M82,128v94c6,2.5,11,4.6,15,6.6V128H82z"/>
		<path class="st0" d="M67,128v85.6c6,3.3,11,6,15,8.4v-94H67z"/>
	</g>
	<g>
		<path class="st52" d="M243.9,128c5-22,7.5-45.9,7.6-74.1c-12.6-0.5-27.8-5.1-35.2-16.7c-4.8-7.6-5.9-17.9-2.8-29
			C208.1,9.3,168,9.7,127,9.5V128H243.9z"/>
		<path class="st62" d="M127,9.5C88,9.4,49,8.8,44.7,8c3,10.6,2.3,19.2-2.3,26.5c-9,14.2-29,16.8-38,17.2C4.6,80.7,7.2,106,12.3,128
			H127V9.5z"/>
		<path class="st63" d="M127,128v117.9c5-7.2,15.4-11.3,27.6-16.2c19-7.6,42.8-16.7,62.3-41.9c12.3-15.8,21.3-35.8,27-59.8H127z"/>
	</g>
	<path d="M210.4,11c-2.1,10.1-0.8,20,3.9,27.3c7.4,11.7,22,16.7,34.7,17.7c-0.3,30.6-3.6,57.3-9.9,79.5
		c-5.6,19.9-13.7,36.8-24.1,50.3c-19.1,24.6-42.4,33.9-61.1,41.4c-11.1,4.4-21.2,8.4-26.9,15.1c-5.6-6.6-15.5-10.6-26.3-14.9
		c-18.5-7.5-41.4-16.7-60.2-41.6c-10.3-13.6-18.3-30.7-23.8-51C10.6,112.2,7.3,85,7,53.9c10.2-0.7,28.7-4,37.6-18
		c4.5-7,5.7-15.5,3.8-25.2C86.1,10.9,177.2,11.1,210.4,11z M41.2,4C54.2,39.4,22.7,48.8,2,48.8C2,256.7,126.9,215.6,127,256
		c0.1-40.4,127,0,127-205.1c-19.5,0-49.4-11.5-36.4-46.9C168.9,4.2,101.4,4.6,41.2,4z"/>
	<g>
		<path d="M200.9,54c1.2,3.8,4.5,6.8,4.7,11c0.2,4.5,1,9-2.1,13.1c-2,2.5-5.2,2.6-7.6,4.3c-0.8,0.6-2.1,0.1-2.7-0.9
			c-2.3-4-6.9-6.3-8.2-11c-0.5-1.8-2.2-0.7-3.4-1.2c2.1-2.8,3.8-1.5,5.6,0.9c0.6-2.8,0.3-5.3,1.7-7.3c0.7-1,0.8-2.8,2.9-2
			c1.2,0.5,0.8-0.8,0.8-1.3c0.2-3.8,0.8-7.9,2.2-11.1c2.8-6.9-1.6-10.2-5-14.4c-0.4-0.5-2.2-0.6-0.4-1.9c0.9-0.6-0.3-1.4-0.8-1.8
			c-4.2-3.6-8.9-5.2-14.4-4c-1.6,0.3-2.9,1.1-3.7,2.7c-1.4,2.6-4.6,2.8-6.7,4.5c-1.5,1.2-2.3,2.3-1.6,4.3c0.6,1.6,1.1,2.8,3.1,1.8
			c0.8-0.4,1.6-0.3,2.3,0.1c0.9,0.5,2,1,2,2.1c0,1.4-1.3,1.5-2.3,1.7c-1.9,0.3-3.9,0.7-3.5,3.2c0.2,1.3,0.7,3,2.7,1.1
			c2.5-2.5,6.1-0.3,9.2-1.8c-4.4,1.4-5.9,5.3-8.5,9.6c0.8-3.6-0.4-4.2-2.8-3.6c-1.4,0.4-2.9,0.7-4.4,0.9c-5.1,0.8-8-0.9-10.1-5.5
			c-0.7-1.6-0.1-2.9,0.2-4.3c0.3-1.6,0.2-3.4-1.2-4c-0.9-0.4-3.4,0.6-3.5,1.2c-0.3,1.7-3-0.1-2.6,2.2c0.5,2.5,0.5,5.2,2.5,7
			c2.8,2.4,4.6,5.4,5.9,8.8c0.7,1.9,2,2.8,4.4,1.8c1.7-0.7,4-0.1,6.3-0.1c-4.9,4.5-11,5.6-16.4,3.3c-0.2-0.1-0.4-0.2-0.6-0.3
			c-1.2-0.5-2.8-1.1-3.6-0.2c-0.7,0.8-0.7,2.4-0.5,3.6c0.6,3.4,4.1,5,8.3,3.9c1.8-0.5,3.5-1.3,5.2-1.8c1.6-0.5,3-0.7,4.5,0.5
			c2.1,1.6,4.9,1.2,6.3-0.3c1.9-2,1.9-0.4,2.4,0.6c0.8,1.5,1.5,3.1,2.2,4.7c3,6.4,1.7,8.2-5.2,11c-1.8,0.7-2.4,2-2,4
			c1.2,5.4,3.5,10.7,2.8,16.4c-0.5,4.2-3.6,7.2-7.9,7.7c-1.2,0.1-2.3,0.6-2.9,1.6c-0.9,1.5-1.8,2.9,1.3,3c2.6,0.1,5.2,0.1,7.7-0.2
			c2.6-0.3,4-3.3,3.8-4.6c-0.6-3.1,1-4,3-4.8c1.6-0.6,2-1.3,1.8-3c-0.3-2.8-0.6-5.8,0.7-8.5c0.5-1.1,1-2.3,2-2.8
			c3.4-1.6,6.2-3.7,7.4-7.8c-2,5.4,1,9.2,3.1,13.3c1.1,2.2,2.8,3,5.2,2.9c4.9-0.2,9.3,5.2,8.3,10c-0.4,1.9-1.7,2.7-3.6,2.5
			c-1.1-0.1-2.1,0-2.8,0.9c-0.7,0.7-1.5,1.5-1.2,2.7c0.4,1.4,1.5,0.6,2.3,0.6c1.8,0.1,3.6,0.4,5.4,0.4c4.3-0.1,5.5-2.9,3.7-6.7
			c-1.2-2.7-0.5-5.8,0.7-8.4c1.1-2.3,0.2-2.8-1.7-3.3c-6.1-1.6-9.2-7.8-6.9-13.6c0.4-0.9,1-1.1,1.8-1.5c1.4-0.7,2.8-1.5,4.2-2.4
			c7.3-4.5,7-11.6,6.2-18.8C206.6,60.2,203.7,57.2,200.9,54L200.9,54z"/>
		<path d="M200.8,54.1c0.9-5.3,2.6-6.7,6.1-5.5c1.9,0.7,3,1.8,2.9,3.8c-0.2,4.6,1.6,7.4,6.6,7.9c-0.6-2.7-2.6-5.3-1.2-8.3
			c0.1-0.1-0.1-0.5-0.2-0.6c-3.8-1.1-6.8-4.6-11.2-3.7C201.1,48.2,200.2,50.4,200.8,54.1C200.9,54,200.8,54.1,200.8,54.1z"/>
		<path d="M157.8,37.8c-2.6,1-2.9,2.6-2,4.1c1.4,2.3,3.6,2.6,6.5,1.4c-1.8-0.6-3.3,0-4.4-1C156.4,41.1,157.1,39.7,157.8,37.8z"/>
	</g>
	<g>
		<path class="st0" d="M54,95.9c-1.8,2.4-4.7,3.7-8.5,3.7c-3.9,0-6.8-1.3-8.7-3.9c-1.9-2.6-2.9-6.3-2.9-11.2V61.6
			c0-7.8,2-12.7,6.1-14.6c1.5-0.7,3.3-1.1,5.5-1.1c7.4,0,11.1,4.7,11.1,14V67h-7.7v-6.7c0-2.7-0.2-4.6-0.7-5.8
			c-0.5-1.2-1.4-1.7-2.7-1.7c-1.3,0-2.3,0.6-2.8,1.8c-0.5,1.2-0.8,3.1-0.8,5.7v24.5c0,2.8,0.2,4.8,0.7,6.1c0.5,1.2,1.4,1.8,2.7,1.8
			c1.3,0,2.2-0.6,2.7-1.8c0.5-1.2,0.7-3.3,0.7-6.1v-7.5h7.8v7.4C56.7,89.7,55.8,93.4,54,95.9z"/>
		<path class="st0" d="M63.2,98.9V46.5h18v6.9h-10v14h9.3v7h-9.3v24.6H63.2z"/>
		<path class="st0" d="M106.4,95.9c-1.8,2.4-4.7,3.7-8.5,3.7c-3.9,0-6.8-1.3-8.7-3.9c-1.9-2.6-2.9-6.3-2.9-11.2V61.6
			c0-7.8,2-12.7,6.1-14.6c1.5-0.7,3.3-1.1,5.5-1.1c7.4,0,11.1,4.7,11.1,14V67h-7.7v-6.7c0-2.7-0.2-4.6-0.7-5.8
			c-0.5-1.2-1.4-1.7-2.7-1.7c-1.3,0-2.3,0.6-2.8,1.8c-0.5,1.2-0.8,3.1-0.8,5.7v24.5c0,2.8,0.2,4.8,0.7,6.1c0.5,1.2,1.4,1.8,2.7,1.8
			c1.3,0,2.2-0.6,2.7-1.8c0.5-1.2,0.7-3.3,0.7-6.1v-7.5h7.8v7.4C109.1,89.7,108.2,93.4,106.4,95.9z"/>
	</g>
</g>
</svg>
