<?xml version="1.0" encoding="utf-8"?>
<!-- Generator: Adobe Illustrator 17.0.0, SVG Export Plug-In . SVG Version: 6.00 Build 0)  -->
<!DOCTYPE svg PUBLIC "-//W3C//DTD SVG 1.1//EN" "http://www.w3.org/Graphics/SVG/1.1/DTD/svg11.dtd" [
	<!ENTITY ns_flows "http://ns.adobe.com/Flows/1.0/">
	<!ENTITY ns_extend "http://ns.adobe.com/Extensibility/1.0/">
	<!ENTITY ns_ai "http://ns.adobe.com/AdobeIllustrator/10.0/">
	<!ENTITY ns_graphs "http://ns.adobe.com/Graphs/1.0/">
]>
<svg version="1.1" id="Layer_2" xmlns:x="&ns_extend;" xmlns:i="&ns_ai;" xmlns:graph="&ns_graphs;"
	 xmlns="http://www.w3.org/2000/svg" xmlns:xlink="http://www.w3.org/1999/xlink" xmlns:a="http://ns.adobe.com/AdobeSVGViewerExtensions/3.0/"
	 x="0px" y="0px" width="256px" height="256px" viewBox="0 0 256 256" style="enable-background:new 0 0 256 256;"
	 xml:space="preserve">
<style type="text/css">
	.st0{fill:#FFFFFF;}
	.st1{fill:#54B948;}
	.st2{fill:#1D8C8E;}
	.st3{fill:#14DEAC;}
	.st4{fill:#1466AC;}
	.st5{fill:#757575;}
	.st6{fill:#B69442;}
	.st7{fill:#1A234D;}
	.st8{fill:#AA0629;}
	.st9{fill:#FF4A49;}
	.st10{fill:#3C6643;}
	.st11{fill:none;stroke:#FF4A49;stroke-miterlimit:10;}
	.st12{fill:#E70084;}
	.st13{fill:#508A72;}
	.st14{fill:#01A663;}
	.st15{fill:#015297;}
	.st16{fill:#B0B0B0;}
	.st17{fill:#E1062F;}
	.st18{fill:#D80000;stroke:#FFFFFF;stroke-width:2;stroke-miterlimit:10;}
	.st19{fill:#D80000;}
	.st20{fill:#8ABE23;}
	.st21{fill:#1D1D1B;}
	.st22{fill:#FEFEFE;}
	.st23{fill:#FF0000;}
	.st24{fill:#FF1D1B;}
	.st25{fill:#6DB2DE;}
	.st26{fill:#FF1D25;}
	.st27{fill:#FFDA00;}
	.st28{fill:#024D9E;}
	.st29{fill:#6B97C6;}
	.st30{fill:#000078;}
	.st31{fill:none;stroke:#FFFFFF;stroke-width:6;stroke-linecap:round;stroke-miterlimit:10;}
	.st32{fill:#FFEE34;}
	.st33{fill:none;stroke:#000000;stroke-width:4;stroke-miterlimit:10;}
	.st34{fill:#D11E24;}
	.st35{fill:#D71F26;}
	.st36{fill:#020000;}
	.st37{fill:none;stroke:#000000;stroke-width:2;stroke-miterlimit:10;}
	.st38{clip-path:url(#SVGID_2_);}
	.st39{fill:#00317D;}
	.st40{fill:#00737D;}
	.st41{fill:#ED1C24;}
	.st42{fill:#2678C7;}
	.st43{fill:#1853A6;}
	.st44{fill:#CB0000;}
	.st45{fill:#E61C21;}
	.st46{clip-path:url(#SVGID_4_);}
	.st47{fill:#6BDEF1;}
	.st48{clip-path:url(#SVGID_6_);}
	.st49{fill:#0165B2;}
	.st50{fill:#DE1134;}
	.st51{fill:#00A668;}
	.st52{fill:#FFE60B;}
	.st53{fill:#843D00;stroke:#000000;stroke-miterlimit:10;}
	.st54{fill:#EC1F27;}
	.st55{fill:#162984;}
	.st56{fill:#1853A6;stroke:#1853A6;stroke-miterlimit:10;}
	.st57{fill:none;}
	.st58{fill:none;stroke:#1853A6;stroke-width:0.9;stroke-miterlimit:10;}
	.st59{fill:#1853A6;stroke:#1853A6;stroke-width:0.9;stroke-miterlimit:10;}
	.st60{fill:#B5985A;}
	.st61{fill:#FFE60B;stroke:#000000;stroke-width:6;stroke-miterlimit:10;}
	.st62{fill:#008DCD;}
	.st63{fill:#009939;}
	.st64{fill:#2E3092;}
	.st65{fill:#EE3224;}
	.st66{fill:#005BAB;}
	.st67{fill:#D30027;}
	.st68{fill:#FFFFFF;stroke:#D30027;stroke-width:10;stroke-miterlimit:10;}
	.st69{fill:#E81C2F;}
	.st70{fill:#DC032B;}
	.st71{fill:#F25448;}
	.st72{fill:#FFFFFF;stroke:#F25448;stroke-width:6;stroke-miterlimit:10;}
	.st73{fill:#05A08D;}
	.st74{fill:#1875CE;}
	.st75{fill:#D72427;}
	.st76{fill:#004993;}
	.st77{fill:#007BB0;}
	.st78{fill:#FFEB00;}
	.st79{fill:#664A9E;}
	.st80{fill:#F4C701;}
	.st81{fill:#EBBE12;}
	.st82{fill:#44B3DB;}
	.st83{fill:#F6FF82;}
	.st84{fill:#FFC918;}
	.st85{fill:#0361A4;}
	.st86{fill:#009FE3;}
	.st87{fill:#E30217;}
	.st88{fill:#FDEA00;}
	.st89{fill:#E91B00;}
	.st90{fill:#2B2763;}
	.st91{fill:#EE1A22;}
	.st92{fill:#F1AA25;}
	.st93{fill:#93000C;}
	.st94{fill:none;stroke:#1D1D1B;stroke-width:4;}
	.st95{fill:#3E4E70;}
	.st96{fill:#096CB6;}
	.st97{fill:#0559A8;}
	.st98{fill:#F9ED1A;}
	.st99{fill:#949494;}
	.st100{fill:#FFD033;}
	.st101{fill:#243D89;}
	.st102{fill:#F8C936;}
	.st103{fill:#D44128;}
	.st104{fill:#ED1B23;}
	.st105{fill:#0C529C;}
	.st106{fill:#E31E24;}
	.st107{fill:#0263B0;}
	.st108{fill:#007AC2;}
	.st109{fill:#EF3D1F;}
	.st110{fill:#EE1C24;}
	.st111{fill:#FDEA00;stroke:#000000;stroke-width:0.6509;}
	.st112{fill:#FDEA00;stroke:#000000;stroke-width:0.6979;}
	.st113{fill:#46A0BE;}
	.st114{fill:#005FA5;}
	.st115{fill:#00904C;}
	.st116{fill:#E21F26;}
	.st117{fill:#FD0001;}
	.st118{fill:#0066B3;}
	.st119{fill:#E20019;}
	.st120{fill:#0171BC;}
	.st121{fill:#01305D;}
	.st122{fill:#1B7EE9;}
	.st123{fill:#BA0D0B;}
	.st124{fill:none;stroke:#000000;stroke-width:3;stroke-miterlimit:10;}
	.st125{fill:#FFFFFF;stroke:#000000;stroke-width:0.8836;stroke-miterlimit:10;}
	.st126{fill:#FFFFFF;stroke:#000000;stroke-width:0.9759;stroke-miterlimit:10;}
	.st127{fill:#0053A1;}
	.st128{fill:#FFE100;}
	.st129{fill:#FFE500;}
	.st130{fill:none;stroke:#FFE500;stroke-width:2;stroke-miterlimit:10;}
	.st131{fill:#01AFF3;}
	.st132{fill:#ED1B28;}
	.st133{fill:#E2000A;}
</style>
<g>
	<g>
		<g>
			<path class="st0" d="M127.6,246.9c-49.2,0-84.1-14.5-103.8-43.1c-14.6-21.3-15-43.1-15-43.3V9.1h238.2v151.5
				c0,0.2-0.3,22-15,43.3C212.5,232.4,177.3,246.9,127.6,246.9z"/>
			<path class="st69" d="M254,2H2v158.6c0,0,0.3,93.4,125.6,93.4C254,254,254,160.6,254,160.6V2L254,2z"/>
		</g>
	</g>
	<path class="st32" d="M164.8,218.3c-1.4-0.5-2.6-0.6-3.9-0.7c-5-0.3-9.3,1.3-13,4.5c-1.1,1-2,2.2-2.9,3.4c-0.5,0.7-1.2,1-1.8,1.5
		c-0.2,0.2-0.4,0-0.6,0c-3.7-1.4-7.2-2.9-10.6-5.1c-0.2-0.2-0.5-0.4-0.8-0.4c-0.4,0.1-0.9,0.3-1.1,0.7c-0.1,0.3,0.4,0.4,0.7,0.6
		c3,2,6.3,3.6,9.6,4.9c0.6,0.2,0.8,0.9,1.2,1.3c0.5,0.5,0.5,0.9,0.4,1.6c-0.5,2.8,0.5,5.2,2.2,7.4c3,3.9,6.8,6.4,11.4,7.9
		c0.7,0.2,1.5,0.3,2.2,0.3c0.4,0,0.5-0.1,0.4-0.5c-1-5.3-3.2-9.9-7.5-13.4c-1.8-1.4-3.8-2.2-6-2.7c-0.5-0.1-1-0.3-1.5-0.3
		c-0.5-0.1-0.7-0.3-0.9-0.8c0.6,0,1.1,0.2,1.6,0.4c4.6,1.4,9.2,2.1,13.9,2.1c1.1,0,1.8,0.7,2.6,1.2c0.2,0.1,0.2,0.3,0.2,0.5
		c0.1,2.4,1.3,4.3,3.1,5.9c3,2.5,6.5,3.8,10.2,4.5c1.9,0.3,3.8,0.5,5.7,0.1c0.9-0.2,0.9-0.3,0.5-1.1c-1.2-2.4-2.8-4.6-4.8-6.3
		c-3.1-2.7-6.7-4.4-10.8-4.3c-1,0-2,0.1-3,0.2c-0.4,0-0.7,0-1.1-0.5c0.7-0.1,1.2-0.1,1.8-0.1c4.9-0.3,9.7-1.2,14.4-2.6
		c0.9-0.3,1.9,0.2,2.8,0.3c0.1,0,0.1,0.1,0.2,0.2c1.3,3.1,3.8,4.5,6.7,5.3c2.3,0.6,4.6,0.5,6.9,0.2c2.8-0.3,5.5-0.9,7.8-2.4
		c1-0.6,0.9-0.6,0.1-1.4c-3.8-3.6-8.2-4.9-13.1-4.8c-2.7,0.1-5.2,0.9-7.7,1.9c-0.7,0.3-0.7,0.3-1.4,0c0-0.2,0.3-0.2,0.4-0.3
		c3.7-1.3,7.3-2.9,10.7-4.7c1.9-1,3.8-2.1,5.6-3.3c0.8-0.5,1.8-0.5,2.7-0.7c0.2,0,0.3,0.1,0.4,0.2c1.8,2.2,4.2,2.7,6.7,2.6
		c3.3-0.1,6.3-1.1,9.3-2.5c1.7-0.8,3.5-1.6,5-2.9c0.5-0.4,1-0.9,1.5-1.4c0.3-0.3,0.2-0.5-0.2-0.6c-2.4-1.1-5-1.6-7.6-1.6
		c-2.7,0-5.4,0.3-7.9,1.3c-2.4,0.9-4.5,2.3-6.6,3.9c-0.3,0.2-0.5,0.5-1,0.3c0.5-0.6,1.2-1,1.7-1.4c2.1-1.7,4.1-3.5,6.1-5.4
		c1.6-1.6,3.1-3.3,4.6-4.9c0.6-0.7,1.6-0.9,2.4-1.3c0.1-0.1,0.2,0,0.3,0.1c2.2,1.4,4.4,1.3,6.7,0.6c3.2-1,6-2.8,8.6-4.9
		c1.7-1.3,3.3-2.8,4.6-4.5c0.6-0.7,1.1-1.4,1.5-2.3c-1.4-0.2-2.8-0.3-4.1-0.2c-4.8,0.3-9.1,2-12.8,5.1c-1.7,1.4-3.1,3.1-4.4,5
		c-0.3,0.4-0.6,0.7-1.2,0.7c0.7-1,1.4-1.8,2.1-2.7c2.7-3.4,5.1-7,7.3-10.7c0.3-0.5,1-0.6,1.4-1c0.6-0.6,1.3-0.8,2.3-0.6
		c2.6,0.5,4.8-0.6,6.7-2.2c3.7-3,6.8-6.7,9.1-11c0.4-0.7,0.7-1.5,1-2.3c0.1-0.3,0.2-0.5-0.3-0.5c-3.3,0.5-6.3,1.5-9,3.4
		c-2,1.4-3.8,3.1-5.2,5.2c-1.3,1.9-2.5,3.9-3.4,6c-0.2,0.5-0.7,0.8-1.2,1.1c-0.1-0.3,0.1-0.6,0.3-0.8c2.4-4.4,4.2-9.1,5.8-13.9
		c0.3-0.9,1.1-1.5,1.7-2.3c0.1-0.1,0.2-0.1,0.4-0.1c2.8,0,5-1.4,6.8-3.4c2.2-2.5,3.8-5.4,5.2-8.4c1-2.2,1.8-4.4,2.1-6.8
		c0-0.2,0.1-0.6,0-0.7c-0.2-0.2-0.4,0.1-0.6,0.2c-3.5,1.4-6.2,3.6-8.6,6.5c-2.6,3.2-4.5,6.8-5.2,11c-0.1,0.6-0.2,1.2-0.9,1.6
		c0.1-0.9,0.4-1.8,0.6-2.6c1.1-4.5,1.7-9.1,2.1-13.8c0.1-1.1,0.9-1.8,1.4-2.6c0-0.1,0.2-0.1,0.2-0.1c2.1-0.2,3.6-1.5,4.9-3
		c1.8-2.2,3-4.8,3.6-7.6c0.8-3.2,1.2-6.4,0.7-9.7c0-0.3,0-0.7-0.2-0.8c-0.3-0.1-0.5,0.2-0.7,0.4c-2,1.8-3.8,3.8-5.2,6.2
		c-1.6,2.5-2.8,5.2-3.4,8.2c-0.3,1.8-0.5,3.6-0.4,5.4c0.1,0.8-0.3,1.3-0.8,2c0-0.9,0-1.5,0-2.2c0.1-4.5-0.2-8.9-0.7-13.4
		c-0.1-1,0-1.6,0.6-2.3c1.2-1.5,1.5-3.3,1.5-5.3c-0.1-2.8-1.1-5.3-2.4-7.8c-1-1.8-2-3.5-3-5.3c-0.6,1.2-1,2.4-1.4,3.7
		c-1,4-0.9,7.9,1,11.8c0.5,1,1.1,2.1,1.9,2.8c1,0.9,1.3,2,1.5,3.2c0.5,3.6,0.7,7.3,0.6,10.9c0,0.1,0,0.1-0.1,0.2
		c-0.8-0.4-1-0.7-0.7-1.5c0.6-2.2,0.1-4.3-1.1-6.3c-1.1-1.9-2.8-3.3-4.6-4.5c-1.6-1.1-3.3-2.1-5-3.2c-0.2,1.8,0,3.5,0.4,5.1
		c1,4,3.2,7,6.8,9c0.7,0.4,1.4,0.6,2.1,0.7c0.5,0.1,0.9,0.3,1.1,0.7c0,0.1,0.1,0.2,0.2,0.2c1,0.6,0.8,1.5,0.7,2.3
		c-0.2,4.3-0.8,8.5-1.6,12.6c0,0.2-0.1,0.4-0.1,0.6c0,0.1,0,0.3-0.2,0.3c-0.1,0-0.2-0.1-0.3-0.2c-0.3-0.5-0.6-0.8-0.2-1.5
		c1.5-2.8,0.9-5.6-0.7-8.4c-1.1-1.8-2.4-3.4-4-4.8c-1.2-1.1-2.3-2.3-3.5-3.4c-0.3,0.7-0.3,1.4-0.3,2.1c-0.2,2.8,0,5.6,1.2,8.3
		c1.3,3,3.1,5.5,6.2,6.8c0.3,0.1,0.5,0.3,0.6,0.6c0.2,0.5,0.4,1,0.8,1.4c0.2,0.2,0.1,0.4,0,0.6c-0.7,3.2-1.7,6.3-2.8,9.3
		c-0.8,2.3-1.8,4.6-2.8,6.8c-0.1,0.2-0.1,0.4-0.3,0.4c-0.6-1-0.6-1.1,0.1-1.9c2.2-2.8,2.5-5.9,1.5-9.3c-0.7-2.6-2-4.9-3.3-7.3
		c-0.6-1.1-1.2-2.3-1.9-3.5c-0.6,1-0.9,2-1.2,3c-0.9,3-1.3,6-0.8,9.1c0.4,2.7,1.3,5.2,3.1,7.3c0,0,0.1,0.1,0.1,0.1
		c1.2,0.7,1.6,1.8,1.8,3.1c0,0.4,0,0.6-0.1,0.9c-1.6,3.4-3.5,6.5-5.5,9.6c-1.4,2.2-2.9,4.3-4.6,6.3c-0.4-1-0.2-1.4,0.5-2
		c2.4-2.1,3.6-4.8,4-8c0.4-3.4-0.3-6.7-1.1-10c-0.3-1.4-0.6-2.7-0.9-4.1c-0.7,0.6-1.2,1.4-1.7,2.2c-1.8,2.9-3.1,6-3.5,9.5
		c-0.3,3-0.3,5.9,0.9,8.8c0,0.1,0.1,0.2,0.1,0.2c1.1,1.3,0.9,2.7,0.9,4.2c0,0.3-0.2,0.5-0.4,0.7c-1.9,2.2-3.8,4.3-5.9,6.3
		c-2.2,2.1-4.4,4.1-6.8,5.9c-0.1,0.1-0.2,0.2-0.4,0.3c-0.1-1,0.3-1.6,1.1-1.9c1.7-0.6,2.7-1.9,3.7-3.3c1.8-2.7,2.4-5.8,2.6-9.1
		c0.2-3.2,0.3-6.3,0.5-9.5c0,0,0-0.1-0.1-0.2c-0.9,0.7-1.7,1.5-2.5,2.3c-2.4,2.6-4.3,5.7-5.3,9.2c-1,3.3-1.4,6.7-0.4,10.1
		c0.1,0.3,0.1,0.6,0,0.8c0,0.1-0.1,0.2-0.1,0.3c-0.2,1.7-1.2,2.7-2.6,3.5c-4.6,3-9.4,5.7-14.6,7.6c-0.1,0-0.2,0.1-0.3,0
		c0.5-1.2,0.5-1.1,1.7-1.3c1.6-0.2,2.9-1.1,4.1-2.1c2.7-2.1,4.1-5.1,5.3-8.2c1-2.6,1.8-5.4,2.7-8.1c0.1-0.3,0.2-0.6,0.4-1.1
		c-1.3,0.5-2.4,1.1-3.5,1.8c-2,1.3-3.9,2.7-5.3,4.6c-2.8,3.5-4.8,7.3-5.1,12c-0.1,1.3-1.3,2.9-2.5,3.3c-4.1,1.4-8.2,2.3-12.5,2.8
		c-1,0.1-2.1,0.2-3.2,0.3c0.6-1.1,0.8-1.1,1.9-1c2.1,0.3,4-0.3,5.8-1.3c1.9-1.1,3.4-2.7,4.7-4.4c2.1-2.7,3.9-5.8,5.8-8.7
		c0.2-0.2,0.3-0.5,0.5-0.7c-0.8-0.1-1.5,0.1-2.1,0.2c-4,0.8-7.5,2.6-10.5,5.4c-2.4,2.3-4.3,5-5.3,8.3c-0.2,0.7-0.9,1-1.2,1.6
		c-0.4,0.7-1.1,0.6-1.7,0.6c-5.3,0.1-10.5-0.6-15.6-2.2c-0.2-0.1-0.7,0-0.5-0.4c0.1-0.3,0.6-0.7,0.9-0.5c3.4,2.1,6.5,1.3,9.5-0.3
		c2.3-1.2,4.2-2.8,6.1-4.5c1.2-1,2.4-2,3.5-3C164.4,218.6,164.6,218.5,164.8,218.3z"/>
	<path class="st32" d="M89.9,218.3c1.4-0.5,2.6-0.6,3.9-0.7c5-0.3,9.3,1.3,13,4.5c1.1,1,2,2.2,2.9,3.4c0.5,0.7,1.2,1,1.8,1.5
		c0.2,0.2,0.4,0,0.6,0c3.7-1.4,7.2-2.9,10.6-5.1c0.2-0.2,0.5-0.4,0.8-0.4c0.4,0.1,0.9,0.3,1.1,0.7c0.1,0.3-0.4,0.4-0.7,0.6
		c-3,2-6.3,3.6-9.6,4.9c-0.6,0.2-0.8,0.9-1.2,1.3c-0.5,0.5-0.5,0.9-0.4,1.6c0.5,2.8-0.5,5.2-2.2,7.4c-3,3.9-6.8,6.4-11.4,7.9
		c-0.7,0.2-1.5,0.3-2.2,0.3c-0.4,0-0.5-0.1-0.4-0.5c1-5.3,3.2-9.9,7.5-13.4c1.8-1.4,3.8-2.2,6-2.7c0.5-0.1,1-0.3,1.5-0.3
		c0.5-0.1,0.7-0.3,0.9-0.8c-0.6,0-1.1,0.2-1.6,0.4c-4.6,1.4-9.2,2.1-13.9,2.1c-1.1,0-1.8,0.7-2.6,1.2c-0.2,0.1-0.2,0.3-0.2,0.5
		c-0.1,2.4-1.3,4.3-3.1,5.9c-3,2.5-6.5,3.8-10.2,4.5c-1.9,0.3-3.8,0.5-5.7,0.1c-0.9-0.2-0.9-0.3-0.5-1.1c1.2-2.4,2.8-4.6,4.8-6.3
		c3.1-2.7,6.7-4.4,10.8-4.3c1,0,2,0.1,3,0.2c0.4,0,0.7,0,1.1-0.5c-0.7-0.1-1.2-0.1-1.8-0.1c-4.9-0.3-9.7-1.2-14.4-2.6
		c-0.9-0.3-1.9,0.2-2.8,0.3c-0.1,0-0.1,0.1-0.2,0.2c-1.3,3.1-3.8,4.5-6.7,5.3c-2.3,0.6-4.6,0.5-6.9,0.2c-2.8-0.3-5.5-0.9-7.8-2.4
		c-1-0.6-0.9-0.6-0.1-1.4c3.8-3.6,8.2-4.9,13.1-4.8c2.7,0.1,5.2,0.9,7.7,1.9c0.7,0.3,0.7,0.3,1.4,0c0-0.2-0.3-0.2-0.4-0.3
		c-3.7-1.3-7.3-2.9-10.7-4.7c-1.9-1-3.8-2.1-5.6-3.3c-0.8-0.5-1.8-0.5-2.7-0.7c-0.2,0-0.3,0.1-0.4,0.2c-1.8,2.2-4.2,2.7-6.7,2.6
		c-3.3-0.1-6.3-1.1-9.3-2.5c-1.7-0.8-3.5-1.6-5-2.9c-0.5-0.4-1-0.9-1.5-1.4c-0.3-0.3-0.2-0.5,0.2-0.6c2.4-1.1,5-1.6,7.6-1.6
		c2.7,0,5.4,0.3,7.9,1.3c2.4,0.9,4.5,2.3,6.6,3.9c0.3,0.2,0.5,0.5,1,0.3c-0.5-0.6-1.2-1-1.7-1.4c-2.1-1.7-4.1-3.5-6.1-5.4
		c-1.6-1.6-3.1-3.3-4.6-4.9c-0.6-0.7-1.6-0.9-2.4-1.3c-0.1-0.1-0.2,0-0.3,0.1c-2.2,1.4-4.4,1.3-6.7,0.6c-3.2-1-6-2.8-8.6-4.9
		c-1.7-1.3-3.3-2.8-4.6-4.5c-0.6-0.7-1.1-1.4-1.5-2.3c1.4-0.2,2.8-0.3,4.1-0.2c4.8,0.3,9.1,2,12.8,5.1c1.7,1.4,3.1,3.1,4.4,5
		c0.3,0.4,0.6,0.7,1.2,0.7c-0.7-1-1.4-1.8-2.1-2.7c-2.7-3.4-5.1-7-7.3-10.7c-0.3-0.5-1-0.6-1.4-1c-0.6-0.6-1.3-0.8-2.3-0.6
		c-2.6,0.5-4.8-0.6-6.7-2.2c-3.7-3-6.8-6.7-9.1-11c-0.4-0.7-0.7-1.5-1-2.3c-0.1-0.3-0.2-0.5,0.3-0.5c3.3,0.5,6.3,1.5,9,3.4
		c2,1.4,3.8,3.1,5.2,5.2c1.3,1.9,2.5,3.9,3.4,6c0.2,0.5,0.7,0.8,1.2,1.1c0.1-0.3-0.1-0.6-0.3-0.8c-2.4-4.4-4.2-9.1-5.8-13.9
		c-0.3-0.9-1.1-1.5-1.7-2.3c-0.1-0.1-0.2-0.1-0.4-0.1c-2.8,0-5-1.4-6.8-3.4c-2.2-2.5-3.8-5.4-5.2-8.4c-1-2.2-1.8-4.4-2.1-6.8
		c0-0.2-0.1-0.6,0-0.7c0.2-0.2,0.4,0.1,0.6,0.2c3.5,1.4,6.2,3.6,8.6,6.5c2.6,3.2,4.5,6.8,5.2,11c0.1,0.6,0.2,1.2,0.9,1.6
		c-0.1-0.9-0.4-1.8-0.6-2.6c-1.1-4.5-1.7-9.1-2.1-13.8c-0.1-1.1-0.9-1.8-1.4-2.6c0-0.1-0.2-0.1-0.2-0.1c-2.1-0.2-3.6-1.5-4.9-3
		c-1.8-2.2-3-4.8-3.6-7.6c-0.8-3.2-1.2-6.4-0.7-9.7c0-0.3,0-0.7,0.2-0.8c0.3-0.1,0.5,0.2,0.7,0.4c2,1.8,3.8,3.8,5.2,6.2
		c1.6,2.5,2.8,5.2,3.4,8.2c0.3,1.8,0.5,3.6,0.4,5.4c-0.1,0.8,0.3,1.3,0.8,2c0-0.9,0-1.5,0-2.2c-0.1-4.5,0.2-8.9,0.7-13.4
		c0.1-1,0-1.6-0.6-2.3c-1.2-1.5-1.5-3.3-1.5-5.3c0.1-2.8,1.1-5.3,2.4-7.8c1-1.8,2-3.5,3-5.3c0.6,1.2,1,2.4,1.4,3.7
		c1,4,0.9,7.9-1,11.8c-0.5,1-1.1,2.1-1.9,2.8c-1,0.9-1.3,2-1.5,3.2c-0.5,3.6-0.7,7.3-0.6,10.9c0,0.1,0,0.1,0.1,0.2
		c0.8-0.4,1-0.7,0.7-1.5c-0.6-2.2-0.1-4.3,1.1-6.3c1.1-1.9,2.8-3.3,4.6-4.5c1.6-1.1,3.3-2.1,5-3.2c0.2,1.8,0,3.5-0.4,5.1
		c-1,4-3.2,7-6.8,9c-0.7,0.4-1.4,0.6-2.1,0.7c-0.5,0.1-0.9,0.3-1.1,0.7c0,0.1-0.1,0.2-0.2,0.2c-1,0.6-0.8,1.5-0.7,2.3
		c0.2,4.3,0.8,8.5,1.6,12.6c0,0.2,0.1,0.4,0.1,0.6c0,0.1,0,0.3,0.2,0.3c0.1,0,0.2-0.1,0.3-0.2c0.3-0.5,0.6-0.8,0.2-1.5
		c-1.5-2.8-0.9-5.6,0.7-8.4c1.1-1.8,2.4-3.4,4-4.8c1.2-1.1,2.3-2.3,3.5-3.4c0.3,0.7,0.3,1.4,0.3,2.1c0.2,2.8,0,5.6-1.2,8.3
		c-1.3,3-3.1,5.5-6.2,6.8c-0.3,0.1-0.5,0.3-0.6,0.6c-0.2,0.5-0.4,1-0.8,1.4c-0.2,0.2-0.1,0.4,0,0.6c0.7,3.2,1.7,6.3,2.8,9.3
		c0.8,2.3,1.8,4.6,2.8,6.8c0.1,0.2,0.1,0.4,0.3,0.4c0.6-1,0.6-1.1-0.1-1.9c-2.2-2.8-2.5-5.9-1.5-9.3c0.7-2.6,2-4.9,3.3-7.3
		c0.6-1.1,1.2-2.3,1.9-3.5c0.6,1,0.9,2,1.2,3c0.9,3,1.3,6,0.8,9.1c-0.4,2.7-1.3,5.2-3.1,7.3c0,0-0.1,0.1-0.1,0.1
		c-1.2,0.7-1.6,1.8-1.8,3.1c0,0.4,0,0.6,0.1,0.9c1.6,3.4,3.5,6.5,5.5,9.6c1.4,2.2,2.9,4.3,4.6,6.3c0.4-1,0.2-1.4-0.5-2
		c-2.4-2.1-3.6-4.8-4-8c-0.4-3.4,0.3-6.7,1.1-10c0.3-1.4,0.6-2.7,0.9-4.1c0.7,0.6,1.2,1.4,1.7,2.2c1.8,2.9,3.1,6,3.5,9.5
		c0.3,3,0.3,5.9-0.9,8.8c0,0.1-0.1,0.2-0.1,0.2c-1.1,1.3-0.9,2.7-0.9,4.2c0,0.3,0.2,0.5,0.4,0.7c1.9,2.2,3.8,4.3,5.9,6.3
		c2.2,2.1,4.4,4.1,6.8,5.9c0.1,0.1,0.2,0.2,0.4,0.3c0.1-1-0.3-1.6-1.1-1.9c-1.7-0.6-2.7-1.9-3.7-3.3c-1.8-2.7-2.4-5.8-2.6-9.1
		c-0.2-3.2-0.3-6.3-0.5-9.5c0,0,0-0.1,0.1-0.2c0.9,0.7,1.7,1.5,2.5,2.3c2.4,2.6,4.3,5.7,5.3,9.2c1,3.3,1.4,6.7,0.4,10.1
		c-0.1,0.3-0.1,0.6,0,0.8c0,0.1,0.1,0.2,0.1,0.3c0.2,1.7,1.2,2.7,2.6,3.5c4.6,3,9.4,5.7,14.6,7.6c0.1,0,0.2,0.1,0.3,0
		c-0.5-1.2-0.5-1.1-1.7-1.3c-1.6-0.2-2.9-1.1-4.1-2.1c-2.7-2.1-4.1-5.1-5.3-8.2c-1-2.6-1.8-5.4-2.7-8.1c-0.1-0.3-0.2-0.6-0.4-1.1
		c1.3,0.5,2.4,1.1,3.5,1.8c2,1.3,3.9,2.7,5.3,4.6c2.8,3.5,4.8,7.3,5.1,12c0.1,1.3,1.3,2.9,2.5,3.3c4.1,1.4,8.2,2.3,12.5,2.8
		c1,0.1,2.1,0.2,3.2,0.3c-0.6-1.1-0.8-1.1-1.9-1c-2.1,0.3-4-0.3-5.8-1.3c-1.9-1.1-3.4-2.7-4.7-4.4c-2.1-2.7-3.9-5.8-5.8-8.7
		c-0.2-0.2-0.3-0.5-0.5-0.7c0.8-0.1,1.5,0.1,2.1,0.2c4,0.8,7.5,2.6,10.5,5.4c2.4,2.3,4.3,5,5.3,8.3c0.2,0.7,0.9,1,1.2,1.6
		c0.4,0.7,1.1,0.6,1.7,0.6c5.3,0.1,10.5-0.6,15.6-2.2c0.2-0.1,0.7,0,0.5-0.4c-0.1-0.3-0.6-0.7-0.9-0.5c-3.4,2.1-6.5,1.3-9.5-0.3
		c-2.3-1.2-4.2-2.8-6.1-4.5c-1.2-1-2.4-2-3.5-3C90.3,218.6,90.2,218.5,89.9,218.3z"/>
	<g>
		<path class="st0" d="M77.2,24.4h-7.6v4.8h8.5v5.2H63.5V9.9h14.1v5.2h-8v4.2h7.6V24.4z"/>
		<path class="st0" d="M81.6,34.5V9.9h6.8l3.7,7.9c1.1,2.1,2.4,5.4,3.3,8h0.1c-0.3-2.9-0.5-6.7-0.5-10.7V9.9h5.5v24.6h-6.2l-3.8-8.2
			c-1.1-2.4-2.6-5.7-3.5-8.3h-0.1c0.1,3,0.2,6.8,0.2,11v5.5H81.6z"/>
		<path class="st0" d="M118.5,24.4h-7.6v4.8h8.5v5.2h-14.6V9.9h14.1v5.2h-8v4.2h7.6V24.4z"/>
		<path class="st0" d="M122.8,10.3c1.7-0.3,4.3-0.5,7.1-0.5c3.4,0,6,0.5,7.7,1.9c1.5,1.3,2.2,3,2.2,5.3c0,2.9-1.9,5.1-3.9,6v0.1
			c1.6,0.7,2.4,2.2,2.9,4.4c0.6,2.5,1.4,6,1.9,7h-6.3c-0.3-0.7-0.9-2.8-1.5-5.7c-0.6-3-1.4-3.6-3.1-3.6h-0.9v9.3h-6.1V10.3z
			 M128.9,20.6h1.4c2.2,0,3.5-1.3,3.5-3.2c0-1.8-1-3-3-3c-1,0-1.5,0-1.8,0.1V20.6z"/>
		<path class="st0" d="M161.9,33.5c-1.6,0.5-4.6,1.2-7.3,1.2c-4.2,0-7.1-1.1-9.1-3c-2.2-2.2-3.4-5.5-3.3-9.3
			c0.1-8.6,5.9-12.8,13-12.8c2.8,0,5,0.5,6.1,1.1l-1.2,5.2c-1.2-0.5-2.6-0.9-4.8-0.9c-3.8,0-6.7,2.1-6.7,7.4c0,4.8,2.6,7.2,5.9,7.2
			c0.7,0,1.3-0.1,1.6-0.2V25h-2.8v-5h8.6V33.5z"/>
		<path class="st0" d="M171.9,9.9v24.6h-6.1V9.9H171.9z"/>
		<path class="st0" d="M189.9,24.4h-7.6v4.8h8.5v5.2h-14.6V9.9h14.1v5.2h-8v4.2h7.6V24.4z"/>
	</g>
	<g>
		<path class="st0" d="M123.7,84.3c-0.8,1.1-2.1,1.7-3.8,1.7s-3-0.6-3.8-1.8c-0.8-1.2-1.3-2.9-1.3-5.1V68.7c0-3.6,0.9-5.8,2.7-6.7
			c0.7-0.3,1.5-0.5,2.4-0.5c3.3,0,4.9,2.1,4.9,6.3v3.3h-3.4v-3.1c0-1.2-0.1-2.1-0.3-2.6c-0.2-0.5-0.6-0.8-1.2-0.8s-1,0.3-1.2,0.8
			s-0.3,1.4-0.3,2.6v11.2c0,1.3,0.1,2.2,0.3,2.8c0.2,0.6,0.6,0.8,1.2,0.8s1-0.3,1.2-0.8c0.2-0.6,0.3-1.5,0.3-2.8v-3.4h3.5v3.4
			C124.9,81.5,124.5,83.2,123.7,84.3z"/>
		<path class="st0" d="M136.6,84.2c-0.8,1.1-2.1,1.7-3.9,1.7s-3.1-0.6-3.9-1.7c-0.8-1.2-1.2-2.9-1.2-5.2V68.1c0-4.4,1.7-6.6,5.2-6.6
			c1.8,0,3.1,0.6,3.9,1.7s1.2,2.7,1.2,4.9V79C137.8,81.3,137.4,83.1,136.6,84.2z M131.4,82c0.2,0.6,0.6,0.8,1.3,0.8s1.1-0.3,1.3-0.8
			c0.2-0.6,0.3-1.5,0.3-2.9V67.9c0-1.1-0.1-2-0.3-2.5c-0.2-0.5-0.6-0.8-1.2-0.8c-0.6,0-1,0.3-1.3,0.8c-0.2,0.5-0.4,1.3-0.4,2.5V79
			C131.1,80.4,131.2,81.4,131.4,82z"/>
		<path class="st0" d="M142.2,85.7V64.9h-2.7v-3.1h8.9v3.1h-2.6v20.7H142.2z"/>
		<path class="st0" d="M151.4,85.7V64.9h-2.7v-3.1h8.9v3.1H155v20.7H151.4z"/>
		<path class="st0" d="M169.5,67.9c0,2.6-0.7,4.1-2,4.7c1.7,0.6,2.5,2.4,2.5,5.6v0.6c0,2.4-0.4,4.1-1.2,5.2
			c-0.8,1.1-2.1,1.6-3.9,1.6h-5.1V61.8h5c1.7,0,3,0.4,3.7,1.2c0.7,0.8,1.1,2.2,1.1,4.2V67.9z M163.2,71.5h1.3c0.6,0,1-0.2,1.2-0.6
			c0.2-0.4,0.3-1.2,0.3-2.5V67c0-0.9-0.1-1.5-0.4-1.9c-0.2-0.3-0.6-0.5-1.2-0.5h-1.2V71.5z M163.2,82.8h1.3c0.7,0,1.2-0.2,1.5-0.7
			c0.3-0.5,0.4-1.4,0.4-2.7v-1.9c0-1.2-0.1-2.1-0.3-2.6c-0.2-0.5-0.7-0.8-1.3-0.8h-1.5V82.8z"/>
		<path class="st0" d="M181.6,84.4c-0.8,1-2.1,1.6-3.9,1.6c-1.8,0-3.1-0.5-3.9-1.6c-0.8-1-1.2-2.7-1.2-4.8V61.8h3.5v17.7
			c0,1.3,0.1,2,0.2,2.3c0.1,0.3,0.3,0.5,0.4,0.7c0.2,0.2,0.5,0.3,1,0.3c0.5,0,0.9-0.2,1.1-0.5c0.2-0.3,0.4-0.7,0.4-1.1
			c0-0.5,0.1-1,0.1-1.8V61.8h3.5v17.8C182.8,81.7,182.4,83.4,181.6,84.4z"/>
		<path class="st0" d="M185.7,79v-2.1h3.4v2.4c0,1.3,0.1,2.3,0.3,2.8c0.2,0.5,0.6,0.8,1.2,0.8c0.6,0,1-0.2,1.2-0.7
			c0.2-0.4,0.3-1.2,0.3-2.2c0-1-0.2-1.9-0.5-2.6s-0.9-1.5-1.7-2.3l-1.7-1.8c-0.8-0.9-1.4-1.7-1.9-2.7c-0.4-0.9-0.7-2-0.7-3.2
			c0-2,0.4-3.4,1.1-4.4c0.7-1,2-1.4,3.8-1.4s3,0.6,3.7,1.7c0.6,1.1,1,2.7,1,4.9v1.5h-3.3v-1.7c0-1.2-0.1-2-0.3-2.5
			c-0.2-0.5-0.6-0.8-1.1-0.8s-0.9,0.2-1.2,0.6c-0.2,0.4-0.4,0.9-0.4,1.7c0,0.8,0.1,1.4,0.4,1.8c0.2,0.5,0.7,1,1.3,1.7l1.9,2.1
			c1,1.1,1.7,2.1,2.2,3.2c0.5,1.1,0.7,2.3,0.7,3.6c0,2.2-0.4,3.9-1.1,5c-0.7,1.1-2,1.6-3.8,1.6c-1.8,0-3.1-0.6-3.8-1.8
			C186,83,185.7,81.2,185.7,79z"/>
	</g>
	<path class="st0" d="M43,42v29.6l-0.1,0.1l0.1,0.1v80.9c0,0.7,0.4,15.7,10.6,30.3c6,8.6,14.1,15.4,24.3,20.3
		c13.3,6.4,30.1,9.7,49.9,9.7c20,0,36.9-3.3,50.3-9.7c10.3-4.9,18.4-11.8,24.4-20.3c10.2-14.6,10.6-29.7,10.6-30.3V42H43z M62.2,54
		l125.9,129.2c-3.1,3.2-6.8,5.9-10.8,8.3L53,63.3V54H62.2z M127.7,203c-17.5,0-32.2-2.9-44-8.6c-9-4.4-16.1-10.4-21.4-17.9
		c-9-12.8-9.3-26.1-9.3-26.7V82.4l111.7,115C154.2,201.1,141.9,203,127.7,203z M203,149.8c0,0.4-0.3,11.3-6.7,22.7L80.7,54H203
		V149.8z"/>
</g>
</svg>
