<?xml version="1.0" encoding="utf-8"?>
<!-- Generator: Adobe Illustrator 17.0.0, SVG Export Plug-In . SVG Version: 6.00 Build 0)  -->
<!DOCTYPE svg PUBLIC "-//W3C//DTD SVG 1.1//EN" "http://www.w3.org/Graphics/SVG/1.1/DTD/svg11.dtd" [
	<!ENTITY ns_flows "http://ns.adobe.com/Flows/1.0/">
	<!ENTITY ns_extend "http://ns.adobe.com/Extensibility/1.0/">
	<!ENTITY ns_ai "http://ns.adobe.com/AdobeIllustrator/10.0/">
	<!ENTITY ns_graphs "http://ns.adobe.com/Graphs/1.0/">
]>
<svg version="1.1" id="Layer_2" xmlns:x="&ns_extend;" xmlns:i="&ns_ai;" xmlns:graph="&ns_graphs;"
	 xmlns="http://www.w3.org/2000/svg" xmlns:xlink="http://www.w3.org/1999/xlink" xmlns:a="http://ns.adobe.com/AdobeSVGViewerExtensions/3.0/"
	 x="0px" y="0px" width="256px" height="256px" viewBox="0 0 256 256" style="enable-background:new 0 0 256 256;"
	 xml:space="preserve">
<style type="text/css">
	.st0{fill:#FFFFFF;}
	.st1{fill:#54B948;}
	.st2{fill:#1D8C8E;}
	.st3{fill:#14DEAC;}
	.st4{fill:#1466AC;}
	.st5{fill:#757575;}
	.st6{fill:#B69442;}
	.st7{fill:#1A234D;}
	.st8{fill:#AA0629;}
	.st9{fill:#FF4A49;}
	.st10{fill:#3C6643;}
	.st11{fill:none;stroke:#FF4A49;stroke-miterlimit:10;}
	.st12{fill:#E70084;}
	.st13{fill:#508A72;}
	.st14{fill:#01A663;}
	.st15{fill:#015297;}
	.st16{fill:#B0B0B0;}
	.st17{fill:#E1062F;}
	.st18{fill:#D80000;stroke:#FFFFFF;stroke-width:2;stroke-miterlimit:10;}
	.st19{fill:#D80000;}
	.st20{fill:#8ABE23;}
	.st21{fill:#1D1D1B;}
	.st22{fill:#FEFEFE;}
	.st23{fill:#FF0000;}
	.st24{fill:#FF1D1B;}
	.st25{fill:#6DB2DE;}
	.st26{fill:#FF1D25;}
	.st27{fill:#FFDA00;}
	.st28{fill:#024D9E;}
	.st29{fill:#6B97C6;}
	.st30{fill:#000078;}
	.st31{fill:none;stroke:#FFFFFF;stroke-width:6;stroke-linecap:round;stroke-miterlimit:10;}
	.st32{fill:#FFEE34;}
	.st33{fill:none;stroke:#000000;stroke-width:4;stroke-miterlimit:10;}
	.st34{fill:#D11E24;}
	.st35{fill:#D71F26;}
	.st36{fill:#020000;}
	.st37{fill:none;stroke:#000000;stroke-width:2;stroke-miterlimit:10;}
	.st38{clip-path:url(#SVGID_2_);}
	.st39{fill:#00317D;}
	.st40{fill:#00737D;}
	.st41{fill:#ED1C24;}
	.st42{fill:#2678C7;}
	.st43{fill:#1853A6;}
	.st44{fill:#CB0000;}
	.st45{fill:#E61C21;}
	.st46{clip-path:url(#SVGID_4_);}
	.st47{fill:#6BDEF1;}
	.st48{clip-path:url(#SVGID_6_);}
	.st49{fill:#0165B2;}
	.st50{fill:#DE1134;}
	.st51{fill:#00A668;}
	.st52{fill:#FFE60B;}
	.st53{fill:#843D00;stroke:#000000;stroke-miterlimit:10;}
	.st54{fill:#EC1F27;}
	.st55{fill:#162984;}
	.st56{fill:#1853A6;stroke:#1853A6;stroke-miterlimit:10;}
	.st57{fill:none;}
	.st58{fill:none;stroke:#1853A6;stroke-width:0.9;stroke-miterlimit:10;}
	.st59{fill:#1853A6;stroke:#1853A6;stroke-width:0.9;stroke-miterlimit:10;}
	.st60{fill:#B5985A;}
	.st61{fill:#FFE60B;stroke:#000000;stroke-width:6;stroke-miterlimit:10;}
	.st62{fill:#008DCD;}
	.st63{fill:#009939;}
	.st64{fill:#2E3092;}
	.st65{fill:#EE3224;}
	.st66{fill:#005BAB;}
	.st67{fill:#D30027;}
	.st68{fill:#FFFFFF;stroke:#D30027;stroke-width:10;stroke-miterlimit:10;}
	.st69{fill:#E81C2F;}
	.st70{fill:#DC032B;}
	.st71{fill:#F25448;}
	.st72{fill:#FFFFFF;stroke:#F25448;stroke-width:6;stroke-miterlimit:10;}
	.st73{fill:#05A08D;}
	.st74{fill:#1875CE;}
	.st75{fill:#D72427;}
	.st76{fill:#004993;}
	.st77{fill:#007BB0;}
	.st78{fill:#FFEB00;}
	.st79{fill:#664A9E;}
	.st80{fill:#F4C701;}
	.st81{fill:#EBBE12;}
	.st82{fill:#44B3DB;}
	.st83{fill:#F6FF82;}
	.st84{fill:#FFC918;}
	.st85{fill:#0361A4;}
	.st86{fill:#009FE3;}
	.st87{fill:#E30217;}
	.st88{fill:#FDEA00;}
	.st89{fill:#E91B00;}
	.st90{fill:#2B2763;}
	.st91{fill:#EE1A22;}
	.st92{fill:#F1AA25;}
	.st93{fill:#93000C;}
	.st94{fill:none;stroke:#1D1D1B;stroke-width:4;}
	.st95{fill:#3E4E70;}
	.st96{fill:#096CB6;}
	.st97{fill:#0559A8;}
	.st98{fill:#F9ED1A;}
	.st99{fill:#949494;}
	.st100{fill:#FFD033;}
	.st101{fill:#243D89;}
	.st102{fill:#F8C936;}
	.st103{fill:#D44128;}
	.st104{fill:#ED1B23;}
	.st105{fill:#0C529C;}
	.st106{fill:#E31E24;}
	.st107{fill:#0263B0;}
	.st108{fill:#007AC2;}
	.st109{fill:#EF3D1F;}
	.st110{fill:#EE1C24;}
	.st111{fill:#FDEA00;stroke:#000000;stroke-width:0.6509;}
	.st112{fill:#FDEA00;stroke:#000000;stroke-width:0.6979;}
	.st113{fill:#46A0BE;}
	.st114{fill:#005FA5;}
	.st115{fill:#00904C;}
	.st116{fill:#E21F26;}
	.st117{fill:#FD0001;}
	.st118{fill:#0066B3;}
	.st119{fill:#E20019;}
	.st120{fill:#0171BC;}
	.st121{fill:#01305D;}
	.st122{fill:#1B7EE9;}
	.st123{fill:#BA0D0B;}
	.st124{fill:none;stroke:#000000;stroke-width:3;stroke-miterlimit:10;}
	.st125{fill:#FFFFFF;stroke:#000000;stroke-width:0.8836;stroke-miterlimit:10;}
	.st126{fill:#FFFFFF;stroke:#000000;stroke-width:0.9759;stroke-miterlimit:10;}
	.st127{fill:#0053A1;}
	.st128{fill:#FFE100;}
	.st129{fill:#FFE500;}
	.st130{fill:none;stroke:#FFE500;stroke-width:2;stroke-miterlimit:10;}
	.st131{fill:#01AFF3;}
	.st132{fill:#ED1B28;}
	.st133{fill:#E2000A;}
</style>
<g>
	<g>
		<path class="st32" d="M127.6,245c-50,0-85.5-14.3-105.4-42.6C7.4,181.4,7,159.8,7,159.6V10h242v149.7c0,0.2-0.3,21.7-15.2,42.7
			C213.8,230.7,178.1,245,127.6,245z"/>
		<path class="st9" d="M242,17v142.6c0,0.7-0.6,20.4-14.3,39.3c-8,11.1-19.1,20-32.8,26.4c-17.9,8.4-40.5,12.6-67.3,12.6
			c-26.5,0-48.9-4.2-66.7-12.6c-13.6-6.4-24.6-15.3-32.6-26.4C14.8,180,14,160.5,14,159.6V17H242 M256,3H0v156.7
			c0,0,0.3,92.3,127.6,92.3C256,252,256,159.7,256,159.7V3L256,3z"/>
	</g>
	<g>
		<path class="st9" d="M29.5,40.1L29.5,40.1l-5.1,3.8l-0.8-4l6.4-4.8h3.2v40.5h-3.7V40.1z"/>
		<path class="st9" d="M42.7,76.2c-1.4,0-2.5-1.6-2.5-3.8c0-2.2,1.1-3.9,2.6-3.9c1.5,0,2.6,1.6,2.6,3.9
			C45.4,74.6,44.4,76.2,42.7,76.2L42.7,76.2z"/>
		<path class="st9" d="M50.3,33.6h15V38H54.1v14.2h10.4v4.4H54.1v19h-3.8V33.6z"/>
		<path class="st9" d="M89.3,74.4c-1.3,0.9-3.8,1.7-6.9,1.7c-7.8,0-13.6-7.2-13.6-21.1c0-14.2,6.3-22,14.4-22c3.2,0,5.3,0.9,6.2,1.6
			L88.4,39c-1.3-0.9-2.9-1.5-5.2-1.5c-6,0-10.5,5.7-10.5,17.2c0,11.1,4,16.9,10.3,16.9c2.1,0,4.2-0.6,5.5-1.5L89.3,74.4z"/>
		<path class="st9" d="M110,33.6v24.7c0,6.1,1.4,9.1,4.1,9.1c2.7,0,4.1-2.6,4.1-9.1V33.6h7.8v23.7c0,12.3-4.1,18.9-12.1,18.9
			c-8,0-11.8-6.5-11.8-19.1V33.6H110z"/>
		<path class="st9" d="M131.4,75.6v-42h8.7l4.7,13.6c1.4,3.7,3.1,9.2,4.2,13.6h0.1c-0.4-4.9-0.6-11.5-0.6-18.2v-9h7.1v42h-8l-4.8-14
			c-1.4-4.1-3.3-9.7-4.4-14.2h-0.1c0.2,5,0.3,11.6,0.3,18.8v9.4H131.4z"/>
		<path class="st9" d="M168.9,33.6v42h-7.8v-42H168.9z"/>
		<path class="st9" d="M186.3,76.2c-8.9,0-13.3-10.1-13.3-21.5c0-11.7,5-21.7,13.8-21.7c9.4,0,13.4,10.8,13.4,21
			C200.2,68.2,194.8,76.2,186.3,76.2L186.3,76.2z M186.7,67.5c3.4,0,5.3-5.2,5.3-13.1c0-7.2-1.9-12.7-5.3-12.7
			c-3.4,0-5.4,5.5-5.3,12.8C181.2,62.3,183.3,67.5,186.7,67.5L186.7,67.5z"/>
		<path class="st9" d="M204.3,75.6v-42h8.7l4.7,13.6c1.4,3.7,3.1,9.2,4.2,13.6h0.1c-0.4-4.9-0.6-11.5-0.6-18.2v-9h7.1v42h-8l-4.8-14
			c-1.4-4.1-3.3-9.7-4.4-14.2h-0.1c0.2,5,0.3,11.6,0.3,18.8v9.4H204.3z"/>
	</g>
	<g>
		<path class="st32" d="M232,129.2c-0.1-0.2-0.1-0.4-0.2-0.6c-9.7-25.1-37.1-40.7-63.9-36.3c-29,4.8-49.7,29-49.9,58.2
			c-0.1,7.9,1.4,15.4,4.4,22.7c16.3,39,66.4,49.1,96.3,19.2c12.2-12.1,17.7-26.7,17.3-43C236.4,141.9,233.8,133.9,232,129.2z"/>
		<path d="M233.5,132.8c0,0.7-0.4,1.1-1.1,1.1c-0.6,0-1-0.4-1-1.1c0-0.7,0.4-1.1,1-1.1C233.1,131.6,233.4,132.2,233.5,132.8z"/>
		<path d="M232.2,129.2c-0.1-0.2-0.1-0.4-0.2-0.6c-9.7-25.1-37.1-40.7-63.9-36.3c-29,4.8-49.7,29-49.9,58.2
			c-0.1,7.9,1.4,15.4,4.4,22.7c16.3,39,66.4,49.1,96.3,19.2c12.2-12.1,17.7-26.7,17.3-43C236.6,141.9,234,133.9,232.2,129.2z
			 M222.4,183.6c-0.2-1.7-0.2-2.9-0.4-4.1c-0.2-1-0.5-1.6-1.7-0.7c-4.8,3.9-10.5,5.5-16.5,5.7c-1.1,0-1.8,0.2-2.3,1.4
			c-2.2,5.9-5.4,11.1-10.9,14.5c-1.1,0.7-0.6,1.1,0.1,1.5c1.1,0.6,2.3,1.1,3.5,1.7c-7.7,3.8-25.3,3.8-34.1,0
			c1.3-0.6,2.4-1.1,3.6-1.7c0.9-0.5,1.1-0.9,0-1.6c-5.3-3.3-8.5-8.4-10.7-14.1c-0.5-1.2-1-1.6-2.3-1.7c-6.1-0.2-11.7-1.8-16.5-5.7
			c-1.1-0.9-1.5-0.6-1.7,0.6c-0.2,1.1-0.3,2.2-0.5,3.9c-7.1-10-10.4-20.5-10.7-32.6c1.2,1.2,2.1,2,3,2.9c0.6,0.6,1.1,0.6,1.3-0.4
			c1.7-6.3,5.5-11.1,10.5-15c0.7-0.6,0.9-1.1,0.6-2c-1.7-6.1-21.8,8.7-4.2-18.5c1.9-6.2,19.3-19,27-19.9c-0.5,1.4-2.4,2.8-1.7,4
			c0.7,1.2,2.8,0.2,4.2,0.4c5,0.7,9.6,2.4,13.7,5.2c1,0.7,1.6,0.7,2.6,0.1c5.2-3.4,10.8-5.6,17.1-5.3c1.2,0.1,1.2-0.5,0.9-1.3
			c-0.5-1-1.1-2-1.9-3.5c11.5,3.9,20.5,10.5,27.8,20.1c-1.7-0.3-2.8-0.5-4-0.7c-1-0.1-1.3,0.3-0.9,1.3c2.3,6,2,12.1,0.2,18.1
			c-0.2,0.7-0.4,1.3,0.4,1.7c0.2,0.1,0.3,0.2,0.5,0.4c0,0,0,0,0,0c0.1,0.1,0.1,0.1,0.2,0.2c0.1,0.1,0.3,0.2,0.4,0.3
			c4.5,3.7,7.9,9.5,8.3,10.2c0.6,1.1,1,2.3,1.3,3.6c0.3,1.5,0.9,1.7,1.9,0.6c0.7-0.8,1.4-1.5,2.6-2.7
			C232.9,163,229.4,173.6,222.4,183.6z"/>
		<path d="M196.9,142.6c-5.2-5.6-11.2-10-18.2-13.2c-1.1-0.5-2-0.5-3.1,0c-6.9,3.1-12.9,7.5-18.1,13c-0.9,1-1.2,2.1-1,3.4
			c0.9,7.5,3.2,14.4,6.8,21c0.7,1.2,1.6,1.8,2.9,2c3.5,0.6,7,1,10.6,1.1c0.5,0,1,0,1.5-0.1c3.3,0,7.6-0.2,10.5-1.2
			c0.2,0,0.3-0.1,0.5-0.2c2.9-1.3,5.1-7.7,6.5-13.2c1-3.3,1.6-6.6,2-10C198,144.2,197.7,143.4,196.9,142.6z"/>
	</g>
	<g>
		<path class="st33" d="M51.3,168.1c0.6,7.6-1.1,10.9-7.2,12.6c-4.4,1.3-6.1,4.8-8.2,7.9c-1.9,2.8,2.7,8.4,6.3,7.4
			c3.8-1.1,8-1,11.4-3.5c4.6-3.4,8.9-6.4,9.1-13.2c0.2-6.4,5.2-10.5,9.6-14.7c1-1,2.9-1.9,2.3-3.5c-0.6-1.8-2.6-2.1-4.2-2.1
			c-3.7,0-7.3,0.3-11,0.6c-4.3,0.3-8.4,0.1-13.2-2.2c3.8-2.2,7.8-2.6,10.2-6.9c-8.1,1.2-15.4,1.8-22.2-3.6c3.1-2.1,6.9-0.8,9.3-4
			c-7.2-2.7-15.2-3.9-19-12.3c2.2,0,4.1,0.1,6,0c1.3-0.1,2.9-0.2,3.4-1.6c0.6-1.9-1.4-2-2.4-2.6c-6.3-4-9-9.9-9.3-17.2
			c2.7-0.3,3.7,1.9,5.2,3c9.5,7.5,19.7,11.1,32.1,8.4c12.1-2.7,15.5-0.1,19.1,12.1c1.4,4.6,2.6,9.3,7.3,13.2
			c-0.3-4.5,1.2-8.1-1.2-11.9c-1.5-2.4-0.6-5.5-0.1-8.3c0.1-1,0.7-2.2,0.3-2.9c-2.5-4.2-2.5-4.1-0.2-8.8c0.5-1,3.3-2.5-0.2-3.6
			c-0.9-0.3-0.2-1.1-0.1-1.7c3.2-12.5,17.4-19.5,29.1-14c2.5,1.2,4.9,2.5,7.7,3.1c2.3,0.5,4.2,2,5.8,3.8c1,1.1,2.5,2.3,2,3.8
			c-0.6,1.9-2.6,0.5-4,0.7c-1.6,0.3-3.3,0.1-5,0.5c-4.4,1-6.6,5.3-4.3,9.3c4,6.9,7.9,13.7,10.1,22.7c1.4-7.5,1.4-7.6,8.1-6.3
			c2.5,0.5,5.6-1,6.9,3.4c0.6,1.8,5,2.5,7.8,1.4c2.8-1.1,0.7-3.5,0.6-5.3c-0.1-3.2-0.5-6.1,4.2-6.1c1.5,0,2.3-0.6,2.3,1.6
			c0,2.3,2.7,0.3,3.7,1.9c-0.1,2-2.7,2-3.4,3.6c-0.6,1.5-2.1,3,0.2,4.2c0.8,0.4,2.7-0.9,2.3,1.3c-0.2,1.2-1.5,1.8-2.6,2.1
			c-1.1,0.3-2.3,0.5-3.4,0.5c-8.1,0.4-14.5,3.8-18.9,10.8c-0.4,0.7-1,0.6-1.7,0.7c-6.1,0.8-6.1,0.8-8.5,6.2c-3.1-3-5.3-6.9-9.6-8.3
			c-0.7,0.4-0.4,0.9,0,1.2c7.8,6.1,10.2,14.5,10,23.9c0,2.3-0.2,4.7,1,6.8c0.5,0.9,1.1,2.1-0.1,2.6c-3.3,1.5-3.3,5.3-5.7,7.3
			c-1,0.9-1.7,2.2-0.6,3.5c1,1.2,2.1,0.3,3.2,0c5.4-1.4,7.5-0.1,6.9,5.2c-0.2,1.8-2.9,3.2-2.3,6.2c-2.9-1.4-3.3-5.5-6.7-4.5
			c-1.9,0.6,0.3,2.9-1.5,4c-3-1.7-2.7-4.9-3.1-7.7c-0.3-2.6-0.2-5.4-2.8-7.1c-1-0.6-1.7-2.9-3.2-0.1c-0.9,1.6-2.1-0.6-2.7-1.5
			c-2.5-4.2-2.1-8.6-0.6-13.4c-2.4,2.3-2.6,2.3-2.9,4.8c-0.3,2.1-1.2,3.6-3.2,3.9c-2,0.3-2.1-1.7-2.6-3c-0.4-1.1-0.9-2.2-2.7-2.8
			c4.8,12-5,16-11.8,21.7c2,1.4,3.5,0.2,4.8-0.5c4.9-2.6,7.4-2,10,2.8c0.3,0.5,0.3,1.1,0.9,1.4c0.4,0.2,0.7,0.6,1.4,1.3
			c-3.2,1.7-6.5,1.8-9.8,1.8c-6.2,0-12.3-0.1-18.5,0c-3.4,0.1-4.8-1.3-5.2-4.5c-0.3-2.6-0.2-5.3-1.2-7.9c-1.2-2.8-2.4-2.9-4.8-1.1
			c-7.6,5.7-16.3,6.4-25.2,4.3c-3.9-0.9-4-12.2-0.3-15.5c1.3-1.2,3.1-1.9,4.7-2.8c1-0.6,2.7-0.9,2.6-2.1
			C41.2,171.7,47.5,171.7,51.3,168.1z"/>
		<path class="st9" d="M51.3,168.1c0.6,7.6-1.1,10.9-7.2,12.6c-4.4,1.3-6.1,4.8-8.2,7.9c-1.9,2.8,2.7,8.4,6.3,7.4
			c3.8-1.1,8-1,11.4-3.5c4.6-3.4,8.9-6.4,9.1-13.2c0.2-6.4,5.2-10.5,9.6-14.7c1-1,2.9-1.9,2.3-3.5c-0.6-1.8-2.6-2.1-4.2-2.1
			c-3.7,0-7.3,0.3-11,0.6c-4.3,0.3-8.4,0.1-13.2-2.2c3.8-2.2,7.8-2.6,10.2-6.9c-8.1,1.2-15.4,1.8-22.2-3.6c3.1-2.1,6.9-0.8,9.3-4
			c-7.2-2.7-15.2-3.9-19-12.3c2.2,0,4.1,0.1,6,0c1.3-0.1,2.9-0.2,3.4-1.6c0.6-1.9-1.4-2-2.4-2.6c-6.3-4-9-9.9-9.3-17.2
			c2.7-0.3,3.7,1.9,5.2,3c9.5,7.5,19.7,11.1,32.1,8.4c12.1-2.7,15.5-0.1,19.1,12.1c1.4,4.6,2.6,9.3,7.3,13.2
			c-0.3-4.5,1.2-8.1-1.2-11.9c-1.5-2.4-0.6-5.5-0.1-8.3c0.1-1,0.7-2.2,0.3-2.9c-2.5-4.2-2.5-4.1-0.2-8.8c0.5-1,3.3-2.5-0.2-3.6
			c-0.9-0.3-0.2-1.1-0.1-1.7c3.2-12.5,17.4-19.5,29.1-14c2.5,1.2,4.9,2.5,7.7,3.1c2.3,0.5,4.2,2,5.8,3.8c1,1.1,2.5,2.3,2,3.8
			c-0.6,1.9-2.6,0.5-4,0.7c-1.6,0.3-3.3,0.1-5,0.5c-4.4,1-6.6,5.3-4.3,9.3c4,6.9,7.9,13.7,10.1,22.7c1.4-7.5,1.4-7.6,8.1-6.3
			c2.5,0.5,5.6-1,6.9,3.4c0.6,1.8,5,2.5,7.8,1.4c2.8-1.1,0.7-3.5,0.6-5.3c-0.1-3.2-0.5-6.1,4.2-6.1c1.5,0,2.3-0.6,2.3,1.6
			c0,2.3,2.7,0.3,3.7,1.9c-0.1,2-2.7,2-3.4,3.6c-0.6,1.5-2.1,3,0.2,4.2c0.8,0.4,2.7-0.9,2.3,1.3c-0.2,1.2-1.5,1.8-2.6,2.1
			c-1.1,0.3-2.3,0.5-3.4,0.5c-8.1,0.4-14.5,3.8-18.9,10.8c-0.4,0.7-1,0.6-1.7,0.7c-6.1,0.8-6.1,0.8-8.5,6.2c-3.1-3-5.3-6.9-9.6-8.3
			c-0.7,0.4-0.4,0.9,0,1.2c7.8,6.1,10.2,14.5,10,23.9c0,2.3-0.2,4.7,1,6.8c0.5,0.9,1.1,2.1-0.1,2.6c-3.3,1.5-3.3,5.3-5.7,7.3
			c-1,0.9-1.7,2.2-0.6,3.5c1,1.2,2.1,0.3,3.2,0c5.4-1.4,7.5-0.1,6.9,5.2c-0.2,1.8-2.9,3.2-2.3,6.2c-2.9-1.4-3.3-5.5-6.7-4.5
			c-1.9,0.6,0.3,2.9-1.5,4c-3-1.7-2.7-4.9-3.1-7.7c-0.3-2.6-0.2-5.4-2.8-7.1c-1-0.6-1.7-2.9-3.2-0.1c-0.9,1.6-2.1-0.6-2.7-1.5
			c-2.5-4.2-2.1-8.6-0.6-13.4c-2.4,2.3-2.6,2.3-2.9,4.8c-0.3,2.1-1.2,3.6-3.2,3.9c-2,0.3-2.1-1.7-2.6-3c-0.4-1.1-0.9-2.2-2.7-2.8
			c4.8,12-5,16-11.8,21.7c2,1.4,3.5,0.2,4.8-0.5c4.9-2.6,7.4-2,10,2.8c0.3,0.5,0.3,1.1,0.9,1.4c0.4,0.2,0.7,0.6,1.4,1.3
			c-3.2,1.7-6.5,1.8-9.8,1.8c-6.2,0-12.3-0.1-18.5,0c-3.4,0.1-4.8-1.3-5.2-4.5c-0.3-2.6-0.2-5.3-1.2-7.9c-1.2-2.8-2.4-2.9-4.8-1.1
			c-7.6,5.7-16.3,6.4-25.2,4.3c-3.9-0.9-4-12.2-0.3-15.5c1.3-1.2,3.1-1.9,4.7-2.8c1-0.6,2.7-0.9,2.6-2.1
			C41.2,171.7,47.5,171.7,51.3,168.1z"/>
	</g>
</g>
</svg>
