<?xml version="1.0" encoding="utf-8"?>
<!-- Generator: Adobe Illustrator 17.0.0, SVG Export Plug-In . SVG Version: 6.00 Build 0)  -->
<!DOCTYPE svg PUBLIC "-//W3C//DTD SVG 1.1//EN" "http://www.w3.org/Graphics/SVG/1.1/DTD/svg11.dtd" [
	<!ENTITY ns_flows "http://ns.adobe.com/Flows/1.0/">
	<!ENTITY ns_extend "http://ns.adobe.com/Extensibility/1.0/">
	<!ENTITY ns_ai "http://ns.adobe.com/AdobeIllustrator/10.0/">
	<!ENTITY ns_graphs "http://ns.adobe.com/Graphs/1.0/">
]>
<svg version="1.1" id="Layer_2" xmlns:x="&ns_extend;" xmlns:i="&ns_ai;" xmlns:graph="&ns_graphs;"
	 xmlns="http://www.w3.org/2000/svg" xmlns:xlink="http://www.w3.org/1999/xlink" xmlns:a="http://ns.adobe.com/AdobeSVGViewerExtensions/3.0/"
	 x="0px" y="0px" width="256px" height="256px" viewBox="0 0 256 256" style="enable-background:new 0 0 256 256;"
	 xml:space="preserve">
<style type="text/css">
	.st0{fill:#FFFFFF;}
	.st1{fill:#54B948;}
	.st2{fill:#1D8C8E;}
	.st3{fill:#14DEAC;}
	.st4{fill:#1466AC;}
	.st5{fill:#757575;}
	.st6{fill:#B69442;}
	.st7{fill:#1A234D;}
	.st8{fill:#AA0629;}
	.st9{fill:#FF4A49;}
	.st10{fill:#3C6643;}
	.st11{fill:none;stroke:#FF4A49;stroke-miterlimit:10;}
	.st12{fill:#E70084;}
	.st13{fill:#508A72;}
	.st14{fill:#01A663;}
	.st15{fill:#015297;}
	.st16{fill:#B0B0B0;}
	.st17{fill:#E1062F;}
	.st18{fill:#D80000;stroke:#FFFFFF;stroke-width:2;stroke-miterlimit:10;}
	.st19{fill:#D80000;}
	.st20{fill:#8ABE23;}
	.st21{fill:#1D1D1B;}
	.st22{fill:#FEFEFE;}
	.st23{fill:#FF0000;}
	.st24{fill:#FF1D1B;}
	.st25{fill:#6DB2DE;}
	.st26{fill:#FF1D25;}
	.st27{fill:#FFDA00;}
	.st28{fill:#024D9E;}
	.st29{fill:#6B97C6;}
	.st30{fill:#000078;}
	.st31{fill:none;stroke:#FFFFFF;stroke-width:6;stroke-linecap:round;stroke-miterlimit:10;}
	.st32{fill:#FFEE34;}
	.st33{fill:none;stroke:#000000;stroke-width:4;stroke-miterlimit:10;}
	.st34{fill:#D11E24;}
	.st35{fill:#D71F26;}
	.st36{fill:#020000;}
	.st37{fill:none;stroke:#000000;stroke-width:2;stroke-miterlimit:10;}
	.st38{clip-path:url(#SVGID_2_);}
	.st39{fill:#00317D;}
	.st40{fill:#00737D;}
	.st41{fill:#ED1C24;}
	.st42{fill:#2678C7;}
	.st43{fill:#1853A6;}
	.st44{fill:#CB0000;}
	.st45{fill:#E61C21;}
	.st46{clip-path:url(#SVGID_4_);}
	.st47{fill:#6BDEF1;}
	.st48{clip-path:url(#SVGID_6_);}
	.st49{fill:#0165B2;}
	.st50{fill:#DE1134;}
	.st51{fill:#00A668;}
	.st52{fill:#FFE60B;}
	.st53{fill:#843D00;stroke:#000000;stroke-miterlimit:10;}
	.st54{fill:#EC1F27;}
	.st55{fill:#162984;}
	.st56{fill:#1853A6;stroke:#1853A6;stroke-miterlimit:10;}
	.st57{fill:none;}
	.st58{fill:none;stroke:#1853A6;stroke-width:0.9;stroke-miterlimit:10;}
	.st59{fill:#1853A6;stroke:#1853A6;stroke-width:0.9;stroke-miterlimit:10;}
	.st60{fill:#B5985A;}
	.st61{fill:#FFE60B;stroke:#000000;stroke-width:6;stroke-miterlimit:10;}
	.st62{fill:#008DCD;}
	.st63{fill:#009939;}
	.st64{fill:#2E3092;}
	.st65{fill:#EE3224;}
	.st66{fill:#005BAB;}
	.st67{fill:#D30027;}
	.st68{fill:#FFFFFF;stroke:#D30027;stroke-width:10;stroke-miterlimit:10;}
	.st69{fill:#E81C2F;}
	.st70{fill:#DC032B;}
	.st71{fill:#F25448;}
	.st72{fill:#FFFFFF;stroke:#F25448;stroke-width:6;stroke-miterlimit:10;}
	.st73{fill:#05A08D;}
	.st74{fill:#1875CE;}
	.st75{fill:#D72427;}
	.st76{fill:#004993;}
	.st77{fill:#007BB0;}
	.st78{fill:#FFEB00;}
	.st79{fill:#664A9E;}
	.st80{fill:#F4C701;}
	.st81{fill:#EBBE12;}
	.st82{fill:#44B3DB;}
	.st83{fill:#F6FF82;}
	.st84{fill:#FFC918;}
	.st85{fill:#0361A4;}
	.st86{fill:#009FE3;}
	.st87{fill:#E30217;}
	.st88{fill:#FDEA00;}
	.st89{fill:#E91B00;}
	.st90{fill:#2B2763;}
	.st91{fill:#EE1A22;}
	.st92{fill:#F1AA25;}
	.st93{fill:#93000C;}
	.st94{fill:none;stroke:#1D1D1B;stroke-width:4;}
	.st95{fill:#3E4E70;}
	.st96{fill:#096CB6;}
	.st97{fill:#0559A8;}
	.st98{fill:#F9ED1A;}
	.st99{fill:#949494;}
	.st100{fill:#FFD033;}
	.st101{fill:#243D89;}
	.st102{fill:#F8C936;}
	.st103{fill:#D44128;}
	.st104{fill:#ED1B23;}
	.st105{fill:#0C529C;}
	.st106{fill:#E31E24;}
	.st107{fill:#0263B0;}
	.st108{fill:#007AC2;}
	.st109{fill:#EF3D1F;}
	.st110{fill:#EE1C24;}
	.st111{fill:#FDEA00;stroke:#000000;stroke-width:0.6509;}
	.st112{fill:#FDEA00;stroke:#000000;stroke-width:0.6979;}
	.st113{fill:#46A0BE;}
	.st114{fill:#005FA5;}
	.st115{fill:#00904C;}
	.st116{fill:#E21F26;}
	.st117{fill:#FD0001;}
	.st118{fill:#0066B3;}
	.st119{fill:#E20019;}
	.st120{fill:#0171BC;}
	.st121{fill:#01305D;}
	.st122{fill:#1B7EE9;}
	.st123{fill:#BA0D0B;}
	.st124{fill:none;stroke:#000000;stroke-width:3;stroke-miterlimit:10;}
	.st125{fill:#FFFFFF;stroke:#000000;stroke-width:0.8836;stroke-miterlimit:10;}
	.st126{fill:#FFFFFF;stroke:#000000;stroke-width:0.9759;stroke-miterlimit:10;}
	.st127{fill:#0053A1;}
	.st128{fill:#FFE100;}
	.st129{fill:#FFE500;}
	.st130{fill:none;stroke:#FFE500;stroke-width:2;stroke-miterlimit:10;}
	.st131{fill:#01AFF3;}
	.st132{fill:#ED1B28;}
	.st133{fill:#E2000A;}
</style>
<g>
	<g>
		<g>
			<path class="st84" d="M127.6,246.9c-49.2,0-84.1-14.5-103.8-43.1c-14.6-21.3-15-43.1-15-43.3V9.1h238.2v151.5
				c0,0.2-0.3,22-15,43.3C212.5,232.4,177.3,246.9,127.6,246.9z"/>
			<path class="st85" d="M240.2,16.2v144.3c0,0.8-0.6,20.6-14.1,39.8c-7.9,11.3-18.8,20.3-32.3,26.8c-17.6,8.5-39.9,12.8-66.2,12.8
				c-26.1,0-48.1-4.3-65.6-12.8c-13.4-6.5-24.2-15.5-32.1-26.8c-13.4-19.1-14.1-38.9-14.1-39.9V16.2H240.2 M254,2H2v158.6
				c0,0,0.3,93.4,125.6,93.4C254,254,254,160.6,254,160.6V2L254,2z"/>
		</g>
	</g>
	<g>
		<path d="M50,23.6c0.8-0.2,2.4-0.3,3.9-0.3c1.7,0,2.8,0.2,3.9,0.9c1,0.6,1.6,1.8,1.6,3.2c0,1.4-0.6,2.7-2,3.4v0.1
			c1.6,0.5,2.5,2,2.5,3.9c0,1.5-0.5,2.6-1.3,3.4c-0.9,1-2.5,1.5-5.2,1.5c-1.4,0-2.5-0.1-3.2-0.2V23.6z M53.3,29.7h0.6
			c1.3,0,1.9-0.7,1.9-1.8c0-1-0.5-1.7-1.6-1.7c-0.5,0-0.8,0-1,0.1V29.7z M53.3,36.5c0.2,0,0.5,0,0.9,0c1.1,0,2-0.6,2-2
			c0-1.4-0.9-2-2.1-2h-0.7V36.5z"/>
		<path d="M61.5,23.6c1-0.2,2.3-0.3,3.9-0.3c1.9,0,3.3,0.3,4.2,1.2c0.8,0.8,1.2,1.9,1.2,3.5c0,1.9-1.1,3.4-2.2,3.9V32
			c0.9,0.5,1.3,1.5,1.6,2.9c0.4,1.7,0.8,4,1,4.6h-3.5c-0.2-0.5-0.5-1.8-0.8-3.8c-0.3-1.9-0.8-2.3-1.7-2.3h-0.5v6.1h-3.3V23.6z
			 M64.9,30.4h0.8c1.2,0,1.9-0.9,1.9-2.1c0-1.2-0.6-1.9-1.7-2c-0.5,0-0.8,0-1,0.1V30.4z"/>
		<path d="M76.1,35.9l-0.6,3.6H72l3.5-16.1h4.4l3.5,16.1h-3.5l-0.7-3.6H76.1z M78.7,32.8l-0.5-2.9c-0.2-0.9-0.4-2.4-0.6-3.3h0
			c-0.2,1-0.4,2.4-0.5,3.3l-0.5,2.9H78.7z"/>
		<path d="M87.6,23.3v9.5c0,2.3,0.6,3.5,1.8,3.5s1.8-1,1.8-3.5v-9.5h3.4v9.1c0,4.7-1.8,7.3-5.2,7.3c-3.4,0-5.1-2.5-5.1-7.3v-9H87.6z
			"/>
		<path d="M96.9,39.5V23.3h3.7l2,5.2c0.6,1.4,1.3,3.5,1.8,5.2h0.1c-0.2-1.9-0.3-4.4-0.3-7v-3.4h3v16.1h-3.4l-2.1-5.4
			c-0.6-1.6-1.4-3.7-1.9-5.5h-0.1c0.1,1.9,0.1,4.5,0.1,7.2v3.6H96.9z"/>
		<path d="M109.7,35.4c0.7,0.5,1.9,0.9,3.1,0.9c1.2,0,1.8-0.6,1.8-1.4c0-0.8-0.6-1.3-2-2c-2.2-1.1-3.3-2.7-3.3-4.8c0-2.8,1.8-5,5-5
			c1.4,0,2.4,0.3,3.1,0.7l-0.6,3.4c-0.5-0.3-1.4-0.7-2.5-0.7c-1.1,0-1.6,0.5-1.6,1.2c0,0.8,0.6,1.1,2.2,2c2.2,1.1,3.1,2.7,3.1,4.8
			c0,2.8-1.8,5.1-5.3,5.1c-1.5,0-2.8-0.5-3.5-0.9L109.7,35.4z"/>
		<path d="M128.5,39.1c-0.4,0.3-1.5,0.6-2.9,0.6c-4.6,0-6.5-3.8-6.5-8c0-5.8,3.2-8.5,6.8-8.5c1.3,0,2.4,0.3,2.8,0.6l-0.6,3.3
			c-0.5-0.3-1.2-0.5-2-0.5c-1.9,0-3.4,1.5-3.4,4.9c0,3.1,1.3,4.8,3.5,4.8c0.7,0,1.5-0.2,2-0.4L128.5,39.1z"/>
		<path d="M133.6,23.3v6.1h3.6v-6.1h3.4v16.1h-3.4v-6.4h-3.6v6.4h-3.4V23.3H133.6z"/>
		<path d="M144.8,39.5l-2.7-16.1h3.6l0.7,5.9c0.2,1.8,0.4,3.9,0.6,5.6h0c0.2-1.9,0.5-3.7,0.7-5.7l0.8-5.9h3.4l0.8,6.1
			c0.2,1.8,0.4,3.5,0.6,5.4h0c0.2-1.9,0.4-3.7,0.6-5.6l0.7-5.9h3.4L155,39.5h-3.6l-0.8-5.7c-0.2-1.4-0.4-3-0.5-5h0
			c-0.2,1.9-0.4,3.5-0.6,5l-0.9,5.7H144.8z"/>
		<path d="M166.9,32.9h-4.2V36h4.7v3.4h-8V23.3h7.8v3.4h-4.4v2.7h4.2V32.9z"/>
		<path d="M172.6,23.3v16.1h-3.4V23.3H172.6z"/>
		<path d="M185.3,38.8c-0.9,0.4-2.5,0.8-4,0.8c-2.3,0-3.9-0.7-5-2c-1.2-1.4-1.9-3.6-1.8-6.1c0-5.6,3.2-8.4,7.1-8.4
			c1.6,0,2.7,0.4,3.4,0.7l-0.6,3.4c-0.6-0.4-1.4-0.6-2.6-0.6c-2.1,0-3.7,1.4-3.7,4.9c0,3.1,1.4,4.8,3.3,4.8c0.4,0,0.7,0,0.9-0.1
			v-2.9h-1.5V30h4.7V38.8z"/>
		<path d="M194.9,32.9h-4.2V36h4.7v3.4h-8V23.3h7.8v3.4h-4.4v2.7h4.2V32.9z"/>
		<path d="M197.3,23.6c1-0.2,2.3-0.3,3.9-0.3c1.9,0,3.3,0.3,4.2,1.2c0.8,0.8,1.2,1.9,1.2,3.5c0,1.9-1.1,3.4-2.2,3.9V32
			c0.9,0.5,1.3,1.5,1.6,2.9c0.4,1.7,0.8,4,1,4.6h-3.5c-0.2-0.5-0.5-1.8-0.8-3.8c-0.3-1.9-0.8-2.3-1.7-2.3h-0.5v6.1h-3.3V23.6z
			 M200.6,30.4h0.8c1.2,0,1.9-0.9,1.9-2.1c0-1.2-0.6-1.9-1.7-2c-0.5,0-0.8,0-1,0.1V30.4z"/>
		<path d="M23.9,49.6h-3V46h9.5v3.6h-3.1v12.6h-3.4V49.6z"/>
		<path d="M35.1,46v9.5c0,2.3,0.6,3.5,1.8,3.5s1.8-1,1.8-3.5V46H42v9.1c0,4.7-1.8,7.3-5.2,7.3c-3.4,0-5.1-2.5-5.1-7.3v-9H35.1z"/>
		<path d="M44.4,46.2c1-0.2,2.3-0.3,3.9-0.3c1.9,0,3.3,0.3,4.2,1.2c0.8,0.8,1.2,1.9,1.2,3.5c0,1.9-1.1,3.4-2.2,3.9v0.1
			c0.9,0.5,1.3,1.5,1.6,2.9c0.4,1.7,0.8,4,1,4.6h-3.5c-0.2-0.5-0.5-1.8-0.8-3.8c-0.3-1.9-0.8-2.3-1.7-2.3h-0.5v6.1h-3.3V46.2z
			 M47.7,53h0.8c1.2,0,1.9-0.9,1.9-2.1c0-1.2-0.6-1.9-1.7-2c-0.5,0-0.8,0-1,0.1V53z"/>
		<path d="M55.7,62.1V46h3.7l2,5.2c0.6,1.4,1.3,3.5,1.8,5.2h0.1c-0.2-1.9-0.3-4.4-0.3-7V46h3v16.1h-3.4l-2.1-5.4
			c-0.6-1.6-1.4-3.7-1.9-5.5h-0.1c0.1,1.9,0.1,4.5,0.1,7.2v3.6H55.7z"/>
		<path d="M72.6,54.4v2.8h-4.8v-2.8H72.6z"/>
		<path d="M81.3,46v9.5c0,2.3,0.6,3.5,1.8,3.5s1.8-1,1.8-3.5V46h3.4v9.1c0,4.7-1.8,7.3-5.2,7.3c-3.4,0-5.1-2.5-5.1-7.3v-9H81.3z"/>
		<path d="M90.5,62.1V46h3.7l2,5.2c0.6,1.4,1.3,3.5,1.8,5.2h0.1c-0.2-1.9-0.3-4.4-0.3-7V46h3v16.1h-3.4l-2.1-5.4
			c-0.6-1.6-1.4-3.7-1.9-5.5h-0.1c0.1,1.9,0.1,4.5,0.1,7.2v3.6H90.5z"/>
		<path d="M103.3,46.2c1-0.2,2.3-0.3,3.8-0.3c2.3,0,3.8,0.5,5,1.6c1.4,1.2,2.2,3.3,2.2,6.3c0,3.2-0.9,5.5-2.2,6.7
			c-1.3,1.3-3.2,1.8-5.6,1.8c-1.4,0-2.5-0.1-3.1-0.2V46.2z M106.6,59c0.2,0,0.4,0,0.6,0c1.9,0,3.4-1.5,3.4-5.2
			c0-3.1-1.2-4.7-3.1-4.7c-0.4,0-0.7,0-0.9,0.1V59z"/>
		<path d="M119.6,58.1c0.7,0.5,1.9,0.9,3.1,0.9c1.2,0,1.8-0.6,1.8-1.4c0-0.8-0.6-1.3-2-2c-2.2-1.1-3.3-2.7-3.3-4.8c0-2.8,1.8-5,5-5
			c1.4,0,2.4,0.3,3.1,0.7l-0.6,3.4c-0.5-0.3-1.4-0.7-2.5-0.7c-1.1,0-1.6,0.5-1.6,1.2c0,0.8,0.6,1.1,2.2,2c2.2,1.1,3.1,2.7,3.1,4.8
			c0,2.8-1.8,5.1-5.3,5.1c-1.5,0-2.8-0.5-3.5-0.9L119.6,58.1z"/>
		<path d="M129.6,46.2c0.9-0.2,2.2-0.3,3.9-0.3c1.8,0,3.1,0.4,4.1,1.3c0.9,0.8,1.4,2.3,1.4,3.8c0,1.7-0.5,3.1-1.3,4
			c-1,1.1-2.5,1.6-4,1.6c-0.3,0-0.5,0-0.7,0v5.6h-3.3V46.2z M132.9,53.4c0.2,0,0.4,0,0.7,0c1.3,0,2-0.9,2-2.3c0-1.2-0.6-2.1-1.8-2.1
			c-0.4,0-0.7,0-0.9,0.1V53.4z"/>
		<path d="M145.7,62.4c-3.8,0-5.7-3.9-5.7-8.3c0-4.5,2.2-8.4,5.9-8.4c4,0,5.7,4.1,5.7,8.1C151.7,59.3,149.4,62.4,145.7,62.4
			L145.7,62.4z M145.9,59c1.5,0,2.3-2,2.3-5c0-2.8-0.8-4.9-2.3-4.9c-1.4,0-2.3,2.1-2.3,4.9C143.5,57,144.4,59,145.9,59L145.9,59z"/>
		<path d="M153.5,46.2c1-0.2,2.3-0.3,3.9-0.3c1.9,0,3.3,0.3,4.2,1.2c0.8,0.8,1.2,1.9,1.2,3.5c0,1.9-1.1,3.4-2.2,3.9v0.1
			c0.9,0.5,1.3,1.5,1.6,2.9c0.4,1.7,0.8,4,1,4.6h-3.5c-0.2-0.5-0.5-1.8-0.8-3.8c-0.3-1.9-0.8-2.3-1.7-2.3h-0.5v6.1h-3.3V46.2z
			 M156.8,53h0.8c1.2,0,1.9-0.9,1.9-2.1c0-1.2-0.6-1.9-1.7-2c-0.5,0-0.8,0-1,0.1V53z"/>
		<path d="M167,49.6h-3V46h9.5v3.6h-3.1v12.6H167V49.6z"/>
		<path d="M178.1,62.1L174.3,46h3.7l1.2,6.4c0.4,1.8,0.7,3.6,0.9,5.6h0c0.3-1.9,0.6-3.8,0.9-5.5l1.2-6.5h3.6L182,62.1H178.1z"/>
		<path d="M194.8,55.5h-4.2v3.2h4.7v3.4h-8V46h7.8v3.4h-4.4v2.7h4.2V55.5z"/>
		<path d="M197.2,46.2c1-0.2,2.3-0.3,3.9-0.3c1.9,0,3.3,0.3,4.2,1.2c0.8,0.8,1.2,1.9,1.2,3.5c0,1.9-1.1,3.4-2.2,3.9v0.1
			c0.9,0.5,1.3,1.5,1.6,2.9c0.4,1.7,0.8,4,1,4.6h-3.5c-0.2-0.5-0.5-1.8-0.8-3.8c-0.3-1.9-0.8-2.3-1.7-2.3h-0.5v6.1h-3.3V46.2z
			 M200.5,53h0.8c1.2,0,1.9-0.9,1.9-2.1c0-1.2-0.6-1.9-1.7-2c-0.5,0-0.8,0-1,0.1V53z"/>
		<path d="M216,55.5h-4.2v3.2h4.7v3.4h-8V46h7.8v3.4h-4.4v2.7h4.2V55.5z"/>
		<path d="M221.8,46v16.1h-3.4V46H221.8z"/>
		<path d="M224.1,62.1V46h3.7l2,5.2c0.6,1.4,1.3,3.5,1.8,5.2h0.1c-0.2-1.9-0.3-4.4-0.3-7V46h3v16.1h-3.4l-2.1-5.4
			c-0.6-1.6-1.4-3.7-1.9-5.5H227c0.1,1.9,0.1,4.5,0.1,7.2v3.6H224.1z"/>
		<path d="M29.2,78.2H25v3.2h4.7v3.4h-8V68.7h7.8v3.4H25v2.7h4.2V78.2z"/>
		<path d="M34.9,68.7v16.1h-3.4V68.7H34.9z"/>
		<path d="M37.3,84.8V68.7H41l2,5.2c0.6,1.4,1.3,3.5,1.8,5.2h0.1c-0.2-1.9-0.3-4.4-0.3-7v-3.4h3v16.1h-3.4l-2.1-5.4
			c-0.6-1.6-1.4-3.7-1.9-5.5h-0.1c0.1,1.9,0.1,4.5,0.1,7.2v3.6H37.3z"/>
		<path d="M52.2,72.3h-3v-3.6h9.5v3.6h-3.1v12.6h-3.4V72.3z"/>
		<path d="M60.2,68.9c1-0.2,2.3-0.3,3.9-0.3c1.9,0,3.3,0.3,4.2,1.2c0.8,0.8,1.2,1.9,1.2,3.5c0,1.9-1.1,3.4-2.2,3.9v0.1
			c0.9,0.5,1.3,1.5,1.6,2.9c0.4,1.7,0.8,4,1,4.6h-3.5c-0.2-0.5-0.5-1.8-0.8-3.8c-0.3-1.9-0.8-2.3-1.7-2.3h-0.5v6.1h-3.3V68.9z
			 M63.5,75.7h0.8c1.2,0,1.9-0.9,1.9-2.1c0-1.2-0.6-1.9-1.7-2c-0.5,0-0.8,0-1,0.1V75.7z"/>
		<path d="M74.7,81.3l-0.6,3.6h-3.4l3.5-16.1h4.4L82,84.8h-3.5l-0.7-3.6H74.7z M77.4,78.2l-0.5-2.9c-0.2-0.9-0.4-2.4-0.6-3.3h0
			c-0.2,1-0.4,2.4-0.5,3.3l-0.5,2.9H77.4z"/>
		<path d="M91.9,84.5C91.5,84.7,90.4,85,89,85c-4.6,0-6.5-3.8-6.5-8c0-5.8,3.2-8.5,6.8-8.5c1.3,0,2.4,0.3,2.8,0.6l-0.6,3.3
			c-0.5-0.3-1.2-0.5-2-0.5c-1.9,0-3.4,1.5-3.4,4.9c0,3.1,1.3,4.8,3.5,4.8c0.7,0,1.5-0.2,2-0.4L91.9,84.5z"/>
		<path d="M97.1,68.7v6.1h3.6v-6.1h3.4v16.1h-3.4v-6.4h-3.6v6.4h-3.4V68.7H97.1z"/>
		<path d="M108.6,72.3h-3v-3.6h9.5v3.6H112v12.6h-3.4V72.3z"/>
		<path d="M122.5,84.8l-3.8-16.1h3.7l1.2,6.4c0.4,1.8,0.7,3.6,0.9,5.6h0c0.3-1.9,0.6-3.8,0.9-5.5l1.2-6.5h3.6l-3.9,16.1H122.5z"/>
		<path d="M136.6,85.1c-3.8,0-5.7-3.9-5.7-8.3c0-4.5,2.2-8.4,5.9-8.4c4,0,5.7,4.1,5.7,8.1C142.5,82,140.2,85.1,136.6,85.1
			L136.6,85.1z M136.7,81.7c1.5,0,2.3-2,2.3-5c0-2.8-0.8-4.9-2.3-4.9c-1.4,0-2.3,2.1-2.3,4.9C134.4,79.7,135.2,81.7,136.7,81.7
			L136.7,81.7z"/>
		<path d="M144.3,84.8V68.7h3.7l2,5.2c0.6,1.4,1.3,3.5,1.8,5.2h0.1c-0.2-1.9-0.3-4.4-0.3-7v-3.4h3v16.1h-3.4l-2.1-5.4
			c-0.6-1.6-1.4-3.7-1.9-5.5h-0.1c0.1,1.9,0.1,4.5,0.1,7.2v3.6H144.3z"/>
		<path d="M163.7,72.9L163.7,72.9l-2.4,1.4l-0.5-3.1l3.4-1.9h2.8v15.6h-3.3V72.9z"/>
		<path d="M175.2,69c2.8,0,4.1,2,4.1,4c0,1.2-0.5,2.5-1.7,3.4v0c1.1,0.6,2.1,1.9,2.1,3.9c0,2.9-1.9,4.8-4.8,4.8
			c-3.1,0-4.6-2.1-4.6-4.4c0-1.8,0.8-3.1,2-3.9v0c-1.1-0.8-1.7-2.1-1.7-3.4C170.7,70.7,172.7,69,175.2,69L175.2,69z M175.1,82.3
			c0.8,0,1.3-0.8,1.3-1.7c0-1.2-0.7-2-1.5-2.3c-0.7,0.3-1.1,1.1-1.1,2.1C173.7,81.3,174.3,82.3,175.1,82.3L175.1,82.3z M175.1,71.8
			c-0.8,0-1.1,0.8-1.1,1.6c0,0.9,0.6,1.5,1.4,1.9c0.5-0.2,0.9-0.9,0.9-1.7C176.2,72.6,175.9,71.8,175.1,71.8L175.1,71.8z"/>
		<path d="M181.9,81.8c0.4,0,0.7,0,1.3,0c0.7,0,1.5-0.3,2.1-0.7c0.7-0.6,1.2-1.5,1.4-2.4l0,0c-0.5,0.6-1.2,0.9-2.2,0.9
			c-2,0-3.7-1.7-3.7-4.8c0-2.9,1.9-5.6,4.7-5.6c3.2,0,4.7,3.1,4.7,6.7c0,3.3-0.9,5.7-2.2,7.3c-1.2,1.3-2.8,2-4.7,2.1
			c-0.4,0-0.9,0-1.2,0V81.8z M185.3,72c-0.7,0-1.2,0.9-1.2,2.3c0,1.1,0.4,2.3,1.3,2.3c0.6,0,1-0.4,1.1-0.7c0.1-0.3,0.1-0.6,0.1-1.3
			C186.7,73.3,186.3,72,185.3,72L185.3,72z"/>
		<path d="M199.6,72.7h-4.5l-0.2,1.8c0.2,0,0.4,0,0.6,0c1.1,0,2.4,0.4,3.2,1.2c0.9,0.9,1.3,2.1,1.3,3.8c0,2.9-1.9,5.5-5.4,5.5
			c-1.4,0-2.6-0.4-3.3-0.8l0.5-3.1c0.5,0.3,1.6,0.7,2.6,0.7c1.1,0,2.2-0.6,2.2-2c0-1.6-1.1-2.3-3.3-2.3c-0.6,0-1,0-1.4,0.1l0.8-8.4
			h6.8V72.7z"/>
		<path d="M213.4,78.2h-4.2v3.2h4.7v3.4h-8V68.7h7.8v3.4h-4.4v2.7h4.2V78.2z"/>
		<path d="M217.3,85.1c-1.1,0-1.9-1-1.9-2.5c0-1.5,0.8-2.5,1.9-2.5s1.9,1,1.9,2.5C219.2,84.1,218.4,85.1,217.3,85.1L217.3,85.1z"/>
		<path d="M223.7,84.8l-3.8-16.1h3.7l1.2,6.4c0.4,1.8,0.7,3.6,0.9,5.6h0c0.3-1.9,0.6-3.8,0.9-5.5l1.2-6.5h3.6l-3.9,16.1H223.7z"/>
		<path d="M233.2,85.1c-1.1,0-1.9-1-1.9-2.5c0-1.5,0.8-2.5,1.9-2.5s1.9,1,1.9,2.5C235.2,84.1,234.4,85.1,233.2,85.1L233.2,85.1z"/>
	</g>
	<g>
		
			<rect x="29" y="155.3" transform="matrix(0.4514 0.8923 -0.8923 0.4514 178.702 66.2527)" class="st85" width="13" height="46.3"/>
	</g>
	<g>
		
			<rect x="130.2" y="29.8" transform="matrix(0.4506 0.8927 -0.8927 0.4506 212.0828 -37.7373)" class="st85" width="13" height="247.4"/>
	</g>
	<g>
		
			<rect x="219.7" y="111.1" transform="matrix(0.4506 0.8927 -0.8927 0.4506 244.4008 -127.9258)" class="st85" width="13" height="47"/>
	</g>
	<g>
		<g>
			<path class="st41" d="M92.5,160.2c-0.6,0.5-1.1,0.2-1.2,0.1c-0.4-0.4-0.7-0.3-1,0.1c-0.2,0.3-0.2,0.5,0.1,0.8
				c1.9,2.3,1.5,4.8,0.3,7.2c-0.6,1.2-1.4,2.2-2.4,3.1c-0.1,0.1-0.2,0.2-0.3,0.2c-0.1,0-0.1-0.2-0.1-0.3c0-1-0.1-2.1-0.1-3.1
				c0-0.4-0.1-0.6-0.6-0.6c-1,0.1-1.9-0.3-2.4-1.2c0-0.1-0.3-0.8-0.4-1.1c-0.1-0.5-0.1-0.9,0-1.3c0.1-0.7,0.2-1.5-0.1-2.2
				c-0.3-0.8-0.9-0.9-1.5-0.4c-0.5,0.5-0.8,1.1-1.1,1.8c-0.3,0.6-0.6,1.3-1.1,1.8c-1,1.1-2.2,1.3-3.4,0.5c-0.4-0.3-0.5,0-0.6,0.2
				c-0.3,0.8-0.6,1.7-0.9,2.5c-0.1,0.2-0.1,0.4-0.3,0.5c-1-1.5-1.7-3.1-1.8-4.9c-0.2-1.9,0.4-3.5,1.7-4.8c-0.5-0.2-0.9-0.3-1.4-0.5
				c-1-0.6-1.5-1.5-1.4-2.7c0-0.5-0.1-0.6-0.6-0.6c-1.1,0.1-2.2,0.5-3.3,0.7c0-0.4,0.2-0.7,0.4-1c0.8-1.6,1.8-3,3.3-4
				c1.6-1,3.2-0.9,4.9-0.2c0.1,0,0.2,0.1,0.4,0.2c-0.1-1.2,0.2-2.1,0.8-3c0.2-0.3-0.2-0.5-0.3-0.6c-0.8-0.7-1.8-1.3-2.7-1.9
				c0,0-0.1-0.1-0.2-0.1c0.5-0.3,1-0.4,1.5-0.6c1.6-0.4,3.2-0.5,4.9-0.1c1.5,0.4,3,1.9,3.3,3.5c0.2,1.1,0.3,2.1,0.9,3.1
				c0.7,1.2,1.7,1.7,3,1.7c1.1,0,2.1-0.3,3.1-0.7c2.8-1.1,5.4-2.5,8.1-3.7c1.2-0.6,2.4-1.1,3.6-1.6c0.4-0.2,0.6-0.4,0.7-0.8
				c0.4-1.1,0.4-1.1-0.5-1.9c-1.9-1.7-3.5-3.8-5-5.9c-1.3-1.8-2.6-3.7-4.2-5.2c-0.8-0.8-0.8-0.8-1.1,0.3c-0.7,2.5-2.5,3.8-4.7,4.6
				c-1.1,0.4-2.3,0.6-3.5,0.8c0.1-0.5,0.5-0.8,0.7-1.1c0.5-0.7,0.9-1.4,1.4-2c0.2-0.3,0.1-0.4-0.1-0.6c-1.6-1.2-1.7-3-0.4-4.6
				c0.4-0.5,0.9-1,1.3-1.6c0.3-0.4,0.4-0.9,0.1-1.3c-0.2-0.4-0.7-0.2-1.1-0.3c-1.2-0.3-1.7,0.7-2.6,1.1c-1.3,0.6-2.7,0.6-3.6-0.5
				c-0.2-0.2-0.4-0.5-0.4-0.8c-0.1-0.6-0.4-0.4-0.8-0.2c-0.7,0.4-1.3,0.8-2,1.2c-0.2,0.1-0.4,0.2-0.6,0.4c0.1-1.9,0.6-3.6,1.5-5.2
				c1-1.6,2.4-2.5,4.3-2.6c-0.3-0.5-0.7-0.9-0.8-1.3c-0.3-1.2-0.2-2.2,0.6-3.1c0.2-0.2,0.2-0.4-0.1-0.6c-0.9-0.6-1.8-1-2.8-1.5
				c-0.1-0.1-0.3-0.1-0.4-0.3c1.8-1,3.7-1.6,5.8-1.4c1.8,0.2,3.1,1.2,4,2.9c0.1,0.1,0.1,0.2,0.3,0.4c0.5-0.9,1.3-1.5,2.3-1.8
				c0.5-0.2,0.3-0.6,0.2-0.9c-0.3-0.9-0.6-1.9-0.9-2.8c-0.1-0.2-0.2-0.3-0.1-0.5c2,0.7,3.7,1.6,5.1,3.3c0.7,0.8,1,1.8,1.1,2.9
				c0,0.3,0,0.6-0.1,0.8c-0.3-0.1-0.4-0.7-0.6-0.5c-0.3,0.3,0.2,0.5,0.4,0.8c0.4,0.6,0,1-0.2,1.4c-0.4,0.8-0.9,1.7-1.2,2.6
				c-0.5,1.8-0.4,3.2,1.1,4.4c0.9,0.7,1.9,1.3,2.8,1.9c3.8,2.3,7.8,4.4,11.5,7c0.5,0.3,0.9,0.7,1.4,1c0.3,0.2,0.6,0.3,1,0.1
				c2.5-1.3,5.2-2,7.9-3c1.6-0.6,3.2-1.2,4.7-2.1c0.2-0.1,0.3-0.2,0.5-0.3c0.3-0.2,0.9-0.1,1-0.5c0.2-0.8,0.8-1.5,0.8-2.4
				c0-0.6-0.2-0.8-0.8-0.8c-1,0-2,0.4-2.9,0.7c-2,0.6-4.1,1.3-6.2,1.7c-0.8,0.1-1.6,0.1-2.5,0.1c-0.6,0-0.3-0.4-0.2-0.6
				c0.2-0.8,0.6-1.7,0.8-2.5c0.2-0.8,0.5-1.6,0.6-2.4c0-0.4,0-0.5-0.4-0.3c-1.4,0.7-2.7,1.5-4.1,2c-2.4,0.9-5.2-0.3-6.1-2.7
				c-0.8-2-0.3-3.9,1.1-5.5c0.5-0.6,1.1-1.1,1.8-1.5c-0.1,0.4-0.2,0.7-0.3,1c-0.4,1-0.4,2-0.3,3c0.1,0.8,0.9,1.6,1.8,1.8
				c1.5,0.4,2.9,0.1,4.3-0.5c0.5-0.2,1-0.3,1.5-0.7c-1.2-1.4-1.5-3-1.4-4.8c0-0.4,0.2-0.6,0.5-0.6c1.8-0.2,3.2-1.2,4.5-2.3
				c0.7-0.5,1.3-1.1,2-1.6c0.2-0.2,0.3-0.4,0.2-0.7c-0.5-1.6-0.9-3.2-1.3-4.8c-0.8-2.7-1.5-5.4-2.3-8.1c0-0.1,0-0.3-0.1-0.6
				c0.7,0.5,1.3,0.9,1.9,1.4c1.1,0.8,2.1,1.7,3.1,2.5c1,0.8,1.7,2,0.8,3.7c-0.1,0.2-0.1,0.3,0,0.5c0.5,0.6,1.6,0.9,2.3,0.5
				c0.2-0.1,0.4-0.2,0.4-0.4c0-0.1-0.2-0.2-0.3-0.3c-1-0.7-1.5-2.2-0.8-3.3c1-1.8,2.3-3.5,3.5-5.3c0.8,1.2,1.7,2.4,2.4,3.6
				c0.4,0.6,0.9,1.2,1.2,2c0.4,1.2,0.1,2.3-1,3.1c-0.3,0.2-0.3,0.3,0,0.5c0.6,0.6,2.3,0.2,2.7-0.6c0.1-0.2,0-0.3-0.1-0.4
				c-0.7-1.2-0.5-2.4,0.5-3.4c0.5-0.5,1.1-1,1.6-1.4c1.2-0.9,2.4-1.8,3.6-2.8c0.1,0.4-0.1,0.8-0.2,1.1c-0.6,2.4-1.3,4.7-2,7.1
				c-0.4,1.3-0.8,2.7-1.1,4c-0.1,0.4,0,0.7,0.5,0.6c0.6-0.1,1.1-0.2,1.7-0.3c0.2,0,0.5-0.1,0.4,0.2c-0.2,1.4-0.3,2.8-1.2,3.9
				c-0.3,0.4-0.7,0.6-1.1,1c1.1,0.6,2.1,1.2,3.1,2.1c2.4,2.2,4.2,4.8,5.1,7.9c0.9,2.9,1,5.9,0.2,8.9c-0.9,3.7-2.9,6.7-5.4,9.5
				c-1.1,1.3-2.1,2.6-2.7,4.2c-0.9,2.5-0.2,4.8,2.1,6.2c1,0.6,2,1.1,3.1,1.5c0.1,0,0.2,0,0.2,0.1c0,0.2-0.1,0.2-0.2,0.3
				c-2,1.3-4,2.4-6.3,2.9c-0.5,0.1-0.9,0.1-1.4,0.1c0,0.4,0.3,0.4,0.5,0.6c3.3,2.5,6.4,5.4,9.1,8.6c1.5,1.8,2.7,3.9,3.8,6
				c0.7,1.3,1.3,2.5,2,3.8c0.4,0.7,0.5,1.4,1,2.1c2,2.5,3.9,5.1,6.3,7.2c1.2,1.1,2.4,2.3,4.1,2.6c2.3,0.5,5-1.4,4.3-4.4
				c-0.4-1.6-1.4-2.8-2.3-4.1c-2.9-3.8-6.4-7.1-9.8-10.3c-2-1.9-3.9-3.9-5.3-6.3c-1.4-2.3-1.9-4.8-1.7-7.6c0.2-2.5,0.9-4.9,2.3-7
				c1.2-1.9,2.9-3.5,4.6-4.9c0.3-0.3,0.6-0.6,0.9-0.8c0.4-0.2,0.3-0.4,0.1-0.7c-1.4-1.8-2.6-3.7-3.6-5.8c-1.4-3-2.1-6.2-1.7-9.5
				c0.4-3.3,1.7-6.2,3.5-8.9c0.5-0.7,1-1.4,1.5-2.1c0.2-0.3,0.2-0.5-0.1-0.7c-0.6-0.6-1.2-1.3-1.6-2.1c-0.8-1.7-0.5-3.4,0.5-4.9
				c0.9-1.5,2.1-2.7,3.3-4c1.4-1.6,2.8-3.3,3.6-5.4c0.1-0.1,0.1-0.3,0.2-0.5c2,2.1,3.7,4.3,4.4,7.2c0.5,1.8,0.6,3.6,0.3,5.5
				c-0.6,3.3-2.2,6.1-4.2,8.6c-1.2,1.5-2.4,3.1-3.2,4.9c-1.1,2.2-1.3,4.6-0.6,7c0.3,1.3,0.9,2.4,1.5,3.6c-0.6-0.1-0.6,0.2-0.3,0.5
				c0.1,0.2,0.3,0.5,0.5,0.6c0.8,0.3,1.2,0.9,1.6,1.5c0.2,0.3,0.4,0.3,0.7,0.1c2.3-2.2,4.5-4.6,6.4-7.2c0.2-0.3,0.2-0.5-0.1-0.7
				c-0.9-0.9-1.6-1.8-1.9-3.1c-0.4-1.5,0.1-2.9,0.9-4.1c1.1-1.7,2.6-3.2,3.9-4.7c1.2-1.4,2.2-2.8,2.8-4.5c0.2-0.5,0.3-0.5,0.7-0.1
				c1.1,1.2,2.1,2.4,2.9,3.9c0.3,0.5,0.4,1,0.4,1.6c0,0.4,0,0.7,0.5,0.8c0.4,0.1,0.4,0.7,0.1,1.1c-0.1,0.1-0.2,0.2-0.1,0.3
				c0.1,0.2,0.1,0.2,0.3,0.1c0.3-0.1,0.2,0.1,0.3,0.3c0.3,1.3,0.2,2.5,0.1,3.8c-0.4,3.4-2.1,6.2-4.1,8.9c-2.4,3.2-5,6.3-8,9.1
				c-0.4,0.3-0.1,0.4,0.1,0.6c1.7,1.5,3.5,2.9,5.2,4.5c3,2.9,5.5,6.1,7.3,9.8c2.1,4.3,3,8.9,2.7,13.7c-0.2,4.1-1.3,8-3,11.7
				c-1.1,2.5-2.5,4.8-4.4,6.9c-2.2,2.5-5,3.9-8.2,4.6c-3.7,0.8-7.2,0.1-10.4-1.9c-3.5-2.2-6.2-5.2-8.6-8.5c-0.1-0.2-0.2-0.3-0.4-0.5
				c-0.3,0.9-0.5,1.8-0.8,2.7c-0.7,1.9-1.7,3.5-2.9,5.1c-0.6,0.8-1.2,1.6-1.5,2.6c-0.6,2-0.3,4.1,1.3,5.5c1.1,0.9,2.3,1,3.5,0.6
				c1-0.3,1.8-0.9,2.6-1.6c0.1-0.1,0.3-0.3,0.4-0.3c0.2,0.1,0.1,0.4,0.1,0.5c0.1,2.9-0.6,5.5-2.9,7.4c-0.5,0.5-1.1,1-1.4,1.7
				c-0.7,1.7-0.6,3.2,0.5,4.6c0.6,0.8,1.4,1.5,2,2.4c1,1.5,1,3.1,0.6,4.8c-0.5,1.8-1.5,3.3-2.8,4.6c-0.1,0.1-0.1,0.2-0.3,0.2
				c-0.1,0-0.1-0.2-0.1-0.3c0-1-0.3-1.9-0.4-2.9c0-0.3-0.1-0.6-0.6-0.6c-1.8,0-3-0.9-3.6-2.7c-0.2-0.6-0.4-0.6-0.8-0.2
				c-0.8,0.6-1.6,1.3-2.3,2.1c-0.9,1-1,2.2-0.8,3.5c0.1,0.9,0.3,1.9,0.1,2.9c-0.2,1.1-1.2,2.2-2.2,2.3c-0.8,0.1-0.8,0.2-0.6,1
				c0.1,0.5,0.2,1,0.4,1.5c0.1,0.5,0.3,1,0.5,1.6c-2.1-0.8-3.9-2-5-3.9c-0.6-1-0.8-2.1-0.7-3.2c0-0.4,0-0.5-0.5-0.3
				c-1.4,0.6-2.7,0.6-3.9-0.5c-0.2-0.2-0.3-0.1-0.5,0c-0.9,0.7-1.7,1.6-2.5,2.5c-0.1,0.1-0.2,0.3-0.4,0.3c-0.6-3.6-0.3-6.8,3.2-8.8
				c-1.8-0.8-2.5-2.2-2-4c0.2-0.5-0.3-0.5-0.5-0.5c-0.8-0.1-1.7-0.2-2.5-0.3c-0.2,0-0.5,0.1-0.5-0.1c-0.1-0.2,0.2-0.3,0.3-0.5
				c1.3-1.5,2.8-2.6,4.8-3c1.5-0.2,3,0.1,4.2,1.1c2.4,2,5.6,1.3,7.3-1c1.1-1.5,1.6-3,0.9-4.9c-0.5-1.2-1.4-2-2.3-2.8
				c-1.5-1.4-3.1-2.6-4.3-4.3c-0.2-0.3-0.4-0.8-0.7-0.9c-0.4-0.1-0.6,0.4-0.9,0.6c-0.9,0.5-1.9,0.7-3,0.7c-1.6-0.1-3.2-0.5-4.6-1.5
				c0.8-0.6,1.6-1,2.3-1.5c2.3-1.6,3.7-3.7,4.2-6.5c0.6-3.2,2.2-6,4.5-8.3c0.4-0.4,0.7-0.8,1.1-1.2c0.2-0.2,0.2-0.3-0.1-0.4
				c-2.3-0.4-4.6-0.4-6.8,0c-3.7,0.7-6.8,2.3-9.3,5.2c-2,2.3-3.1,5-3.1,8.1c0.1,2.9,2,5.6,4.6,6.7c0.7,0.3,1.5,0.5,2.3,0.8
				c-0.5,0.5-1,0.8-1.5,1.2c-1.4,1-2.9,1.5-4.7,1.3c-1.1-0.2-2-0.7-2.9-1.3c-0.5-0.3-1-0.6-1.6-0.6c-0.9-0.1-2,0.7-1.9,1.9
				c0.1,1,0.4,2,0.6,3c0.4,1.9,0,3.6-1.3,5.1c-1.4,1.6-3.1,2.5-5.2,2.9c0.4-1.1,1-2.1,1.3-3.2c0.1-0.3,0-0.5-0.2-0.6
				c-1.7-0.9-2.1-3.1-1.4-4.8c0.1-0.3,0.2-0.5-0.2-0.7c-1.5-0.7-3.8-0.4-4.9,1c-0.5,0.7-0.6,1.5-0.9,2.3c-0.5,1.7-2.6,3.5-4.9,2.4
				c-0.4-0.2-0.5-0.1-0.6,0.3c-0.4,0.9-0.6,1.9-0.9,2.9c0,0.1,0,0.3-0.2,0.3c-0.2,0.1-0.2-0.1-0.3-0.2c-1.1-1.7-2-3.5-1.9-5.6
				c0-1.2,0.3-2.3,1-3.2c0.1-0.1,0.2-0.3,0.2-0.4c-0.7-0.1-1.3-0.2-1.8-0.6c-0.2-0.2-0.4-0.3-0.3-0.6c0-0.2,0-0.3-0.2-0.3
				c-0.8-0.1-0.9-0.2-0.5-0.9c0,0,0,0,0-0.1c-0.2,0-0.6,0.2-0.5-0.3c0-0.2,0.2-0.6-0.1-0.7c-0.3-0.1-0.7,0-0.9,0.2
				c-0.7,0.7-1.6,0.8-2.4,1c-0.3,0.1-0.6-0.1-0.9,0.4c0.7-2.6,3.2-5.9,6.5-6c0.3,0,0.4,0,0.2-0.4c-0.8-1.3-0.3-3,0.7-3.8
				c0.4-0.3,0.3-0.5,0-0.8c-0.7-0.6-1.4-1.2-2.1-1.7c-0.2-0.1-0.5-0.3,0-0.5c2.5-0.9,5.5-0.8,7.6,1.2c0.2,0.2,0.3,0.4,0.5,0.6
				c0.3,0.3,0.4,0.6,0.1,1.1c-0.2,0.3-0.2,0.7,0,1c0.2,0,0.2-0.2,0.3-0.2c0.1-0.2,0-0.5,0.3-0.5c0.3,0,0.3,0.4,0.4,0.6
				c0.1,0.3,0.3,0.7,0.4,1c-0.2,0.2-0.4-0.4-0.5,0c-0.1,0.2,0.1,0.4,0.2,0.5c1.3,0.6,2.2,2,3.8,2.2c2.3,0.3,4.1-0.6,5.5-2.4
				c1.7-2.3,1.6-4.8,0.6-7.3c-0.1-0.1-0.1-0.3-0.2-0.4c-0.1-0.4-0.3-0.5-0.7-0.3c-2.5,1.2-5.8,0.9-7.7-1.3c-0.3-0.4-0.6-0.8-0.8-1.3
				c-0.2-0.3,0-0.3,0.2-0.4c1.1-0.3,2.3-0.5,3.4-0.8c1.6-0.5,2.8-1.5,3.9-2.7c1.1-1.2,1.9-2.5,2.9-3.8c2.3-2.9,5.3-4.8,8.8-5.9
				c3.8-1.2,7.7-1.5,11.7-1.1c0.2,0,0.4,0,0.8,0c-0.6-0.5-1.3-0.8-1.9-1.1c-1.9-0.8-3.9-1.3-5.8-2.2c-2.4-1.1-4.6-2.6-6.3-4.6
				c-0.1-0.1-0.2-0.3-0.3-0.2c-0.2,0.1-0.1,0.2-0.1,0.4c-0.1,1.6-0.1,3.2,0.1,4.7c0,0.1,0.1,0.2-0.1,0.3c-1.4-0.9-2.7-2.1-3.9-3.4
				c-1-1.2-2-2.4-2.6-3.9c-0.1-0.3-0.3-0.5-0.7-0.4c-2.4,0.2-4.9,0.4-7.3,0.4c-0.9,0-1.8,0.2-2.7,0.3
				C94.5,159.7,93.2,159.7,92.5,160.2z M174,170.4c0-2.9-0.6-5.6-1.7-8.2c-1.3-3.1-3.3-5.6-5.6-8c-2.1-2.1-4.5-3.8-6.6-5.8
				c-0.2-0.2-0.3-0.1-0.5,0c-0.4,0.3-0.7,0.6-1.1,0.9c-1.5,1.4-3.1,2.7-3.9,4.7c-0.7,1.6-1,3.2-0.2,4.9c0.6,1.3,1.5,2.3,2.4,3.3
				c2.1,2.3,4.5,4.3,6.7,6.4c3.3,3.2,6.3,6.5,8.3,10.7c0,0.1,0.1,0.2,0.2,0.2c0.1,0,0.1-0.1,0.1-0.2
				C173.3,176.5,174,173.4,174,170.4z M120.7,114.7c0.3,0.2,0.5,0.1,0.8,0.2c0.3,0.1,0.7-0.1,1,0.4c0.6,0.9,1.6,0.9,2.2,0
				c0.7-1,0.7-2.2,0.6-3.4c-0.1-0.4-0.3-0.2-0.4,0C123.7,113.2,122.3,114.1,120.7,114.7z M118.8,122.1c0.8,0.5,1.6,1,2.4,1
				c0.6,0,1-0.2,1.3-0.8c0.3-0.6,0.3-0.7-0.4-0.7C121.1,121.6,120,121.7,118.8,122.1z M122.3,119.2c-0.6-1.4-2.3-1.3-3.3-0.1
				C120.1,119,121.2,118.9,122.3,119.2z M157.9,134.9c0-0.4-0.3-0.6-0.5-0.8c-0.1-0.1-0.2-0.1-0.3-0.1c-0.2,0.1,0,0.3,0.1,0.4
				C157.4,134.6,157.6,134.7,157.9,134.9z"/>
		</g>
	</g>
</g>
</svg>
