<?xml version="1.0" encoding="utf-8"?>
<!-- Generator: Adobe Illustrator 17.0.0, SVG Export Plug-In . SVG Version: 6.00 Build 0)  -->
<!DOCTYPE svg PUBLIC "-//W3C//DTD SVG 1.1//EN" "http://www.w3.org/Graphics/SVG/1.1/DTD/svg11.dtd" [
	<!ENTITY ns_flows "http://ns.adobe.com/Flows/1.0/">
	<!ENTITY ns_extend "http://ns.adobe.com/Extensibility/1.0/">
	<!ENTITY ns_ai "http://ns.adobe.com/AdobeIllustrator/10.0/">
	<!ENTITY ns_graphs "http://ns.adobe.com/Graphs/1.0/">
]>
<svg version="1.1" id="Layer_2" xmlns:x="&ns_extend;" xmlns:i="&ns_ai;" xmlns:graph="&ns_graphs;"
	 xmlns="http://www.w3.org/2000/svg" xmlns:xlink="http://www.w3.org/1999/xlink" xmlns:a="http://ns.adobe.com/AdobeSVGViewerExtensions/3.0/"
	 x="0px" y="0px" width="256px" height="256px" viewBox="0 0 256 256" style="enable-background:new 0 0 256 256;"
	 xml:space="preserve">
<style type="text/css">
	.st0{fill:#FFFFFF;}
	.st1{fill:#54B948;}
	.st2{fill:#1D8C8E;}
	.st3{fill:#14DEAC;}
	.st4{fill:#1466AC;}
	.st5{fill:#757575;}
	.st6{fill:#B69442;}
	.st7{fill:#1A234D;}
	.st8{fill:#AA0629;}
	.st9{fill:#FF4A49;}
	.st10{fill:#3C6643;}
	.st11{fill:none;stroke:#FF4A49;stroke-miterlimit:10;}
	.st12{fill:#E70084;}
	.st13{fill:#508A72;}
	.st14{fill:#01A663;}
	.st15{fill:#015297;}
	.st16{fill:#B0B0B0;}
	.st17{fill:#E1062F;}
	.st18{fill:#D80000;stroke:#FFFFFF;stroke-width:2;stroke-miterlimit:10;}
	.st19{fill:#D80000;}
	.st20{fill:#8ABE23;}
	.st21{fill:#1D1D1B;}
	.st22{fill:#FEFEFE;}
	.st23{fill:#FF0000;}
	.st24{fill:#FF1D1B;}
	.st25{fill:#6DB2DE;}
	.st26{fill:#FF1D25;}
	.st27{fill:#FFDA00;}
	.st28{fill:#024D9E;}
	.st29{fill:#6B97C6;}
	.st30{fill:#000078;}
	.st31{fill:none;stroke:#FFFFFF;stroke-width:6;stroke-linecap:round;stroke-miterlimit:10;}
	.st32{fill:#FFEE34;}
	.st33{fill:none;stroke:#000000;stroke-width:4;stroke-miterlimit:10;}
	.st34{fill:#D11E24;}
	.st35{fill:#D71F26;}
	.st36{fill:#020000;}
	.st37{fill:none;stroke:#000000;stroke-width:2;stroke-miterlimit:10;}
	.st38{clip-path:url(#SVGID_2_);}
	.st39{fill:#00317D;}
	.st40{fill:#00737D;}
	.st41{fill:#ED1C24;}
	.st42{fill:#2678C7;}
	.st43{fill:#1853A6;}
	.st44{fill:#CB0000;}
	.st45{fill:#E61C21;}
	.st46{clip-path:url(#SVGID_4_);}
	.st47{fill:#6BDEF1;}
	.st48{clip-path:url(#SVGID_6_);}
	.st49{fill:#0165B2;}
	.st50{fill:#DE1134;}
	.st51{fill:#00A668;}
	.st52{fill:#FFE60B;}
	.st53{fill:#843D00;stroke:#000000;stroke-miterlimit:10;}
	.st54{fill:#EC1F27;}
	.st55{fill:#162984;}
	.st56{fill:#1853A6;stroke:#1853A6;stroke-miterlimit:10;}
	.st57{fill:none;}
	.st58{fill:none;stroke:#1853A6;stroke-width:0.9;stroke-miterlimit:10;}
	.st59{fill:#1853A6;stroke:#1853A6;stroke-width:0.9;stroke-miterlimit:10;}
	.st60{fill:#B5985A;}
	.st61{fill:#FFE60B;stroke:#000000;stroke-width:6;stroke-miterlimit:10;}
	.st62{fill:#008DCD;}
	.st63{fill:#009939;}
	.st64{fill:#2E3092;}
	.st65{fill:#EE3224;}
	.st66{fill:#005BAB;}
	.st67{fill:#D30027;}
	.st68{fill:#FFFFFF;stroke:#D30027;stroke-width:10;stroke-miterlimit:10;}
	.st69{fill:#E81C2F;}
	.st70{fill:#DC032B;}
	.st71{fill:#F25448;}
	.st72{fill:#FFFFFF;stroke:#F25448;stroke-width:6;stroke-miterlimit:10;}
	.st73{fill:#05A08D;}
	.st74{fill:#1875CE;}
	.st75{fill:#D72427;}
	.st76{fill:#004993;}
	.st77{fill:#007BB0;}
	.st78{fill:#FFEB00;}
	.st79{fill:#664A9E;}
	.st80{fill:#F4C701;}
	.st81{fill:#EBBE12;}
	.st82{fill:#44B3DB;}
	.st83{fill:#F6FF82;}
	.st84{fill:#FFC918;}
	.st85{fill:#0361A4;}
	.st86{fill:#009FE3;}
	.st87{fill:#E30217;}
	.st88{fill:#FDEA00;}
	.st89{fill:#E91B00;}
	.st90{fill:#2B2763;}
	.st91{fill:#EE1A22;}
	.st92{fill:#F1AA25;}
	.st93{fill:#93000C;}
	.st94{fill:none;stroke:#1D1D1B;stroke-width:4;}
	.st95{fill:#3E4E70;}
	.st96{fill:#096CB6;}
	.st97{fill:#0559A8;}
	.st98{fill:#F9ED1A;}
	.st99{fill:#949494;}
	.st100{fill:#FFD033;}
	.st101{fill:#243D89;}
	.st102{fill:#F8C936;}
	.st103{fill:#D44128;}
	.st104{fill:#ED1B23;}
	.st105{fill:#0C529C;}
	.st106{fill:#E31E24;}
	.st107{fill:#0263B0;}
	.st108{fill:#007AC2;}
	.st109{fill:#EF3D1F;}
	.st110{fill:#EE1C24;}
	.st111{fill:#FDEA00;stroke:#000000;stroke-width:0.6509;}
	.st112{fill:#FDEA00;stroke:#000000;stroke-width:0.6979;}
	.st113{fill:#46A0BE;}
	.st114{fill:#005FA5;}
	.st115{fill:#00904C;}
	.st116{fill:#E21F26;}
	.st117{fill:#FD0001;}
	.st118{fill:#0066B3;}
	.st119{fill:#E20019;}
	.st120{fill:#0171BC;}
	.st121{fill:#01305D;}
	.st122{fill:#1B7EE9;}
	.st123{fill:#BA0D0B;}
	.st124{fill:none;stroke:#000000;stroke-width:3;stroke-miterlimit:10;}
	.st125{fill:#FFFFFF;stroke:#000000;stroke-width:0.8836;stroke-miterlimit:10;}
	.st126{fill:#FFFFFF;stroke:#000000;stroke-width:0.9759;stroke-miterlimit:10;}
	.st127{fill:#0053A1;}
	.st128{fill:#FFE100;}
	.st129{fill:#FFE500;}
	.st130{fill:none;stroke:#FFE500;stroke-width:2;stroke-miterlimit:10;}
	.st131{fill:#01AFF3;}
	.st132{fill:#ED1B28;}
	.st133{fill:#E2000A;}
</style>
<g>
	<g>
		<path class="st0" d="M125,251.4C58,251.4,3.6,197,3.6,130S58,8.6,125,8.6S246.4,63,246.4,130S192,251.4,125,251.4z"/>
		<path d="M125,13.1c31.2,0,60.6,12.2,82.6,34.2s34.2,51.4,34.2,82.6s-12.2,60.6-34.2,82.6s-51.4,34.2-82.6,34.2
			s-60.6-12.2-82.6-34.2S8.1,161.2,8.1,130s12.2-60.6,34.2-82.6S93.8,13.1,125,13.1 M125,4C55.4,4-1,60.4-1,130s56.4,126,126,126
			s126-56.4,126-126S194.6,4,125,4L125,4z"/>
	</g>
	<g>
		<circle class="st0" cx="125" cy="130" r="107.1"/>
		<path d="M125,239.6c-60.5,0-109.6-49.2-109.6-109.6S64.5,20.4,125,20.4S234.6,69.5,234.6,130S185.5,239.6,125,239.6z M125,25.4
			C67.3,25.4,20.4,72.3,20.4,130S67.3,234.6,125,234.6S229.6,187.7,229.6,130S182.7,25.4,125,25.4z"/>
	</g>
	<g>
		<path class="st23" d="M213.3,74c-9.2-14.4-21.8-26.5-36.7-34.9l-53.8,93.3L70,41.1c-14.7,9.1-27,21.8-35.6,36.8l88.3,153L213.3,74
			z"/>
	</g>
	<g>
		<path d="M86.5,89.1V54.3c-0.6,0.7-1.3,1.2-2.3,1.6c-1,0.4-2,0.5-3,0.5v-4.9c1.4-0.2,2.7-0.8,3.9-1.7c1.2-0.9,2.2-2.2,2.8-3.7H93
			v43H86.5z"/>
		<path d="M114.6,86.5c-1.4,2-3.7,3.1-6.8,3.1c-3.1,0-5.3-0.8-6.7-2.5c-1.4-1.7-2.1-4.4-2.1-8.3v-2.3h6.2v0.9c0,2.7,0.2,4.4,0.5,5.3
			c0.3,0.9,1,1.3,2,1.3s1.6-0.2,1.8-0.6c0.2-0.4,0.4-0.8,0.6-1.2s0.2-1.6,0.2-3.8V72c-0.9,0.6-2.2,0.9-4,0.9c-2.9,0-5-1-6.2-3.1
			c-1.2-2.1-1.8-5.3-1.8-9.5v-1.6c0-5.3,0.9-8.9,2.8-10.8c1.5-1.5,3.6-2.2,6.4-2.2c2.8,0,4.8,0.5,6.1,1.6c1.3,1.1,2.2,2.5,2.6,4.4
			c0.4,1.9,0.6,4.3,0.6,7.3v17.2C116.8,81,116.1,84.5,114.6,86.5z M107.5,67.5c1.6,0,2.5-0.7,2.8-2.1v-8.2c0-2.1-0.2-3.6-0.6-4.6
			c-0.4-0.9-1.1-1.4-2.2-1.4c-1.1,0-1.8,0.5-2.2,1.4c-0.4,0.9-0.6,2.5-0.6,4.6v3.8c0,2.4,0.2,4,0.6,5
			C105.7,67.1,106.4,67.5,107.5,67.5z"/>
		<path d="M139.6,86.6c-1.5,2.1-4,3.1-7.4,3.1c-3.4,0-5.9-1-7.4-3.1c-1.5-2.1-2.3-5.1-2.3-9V57c0-3.8,0.8-6.6,2.3-8.5
			c1.6-1.9,4-2.8,7.4-2.8s5.8,0.9,7.4,2.8c1.6,1.9,2.3,4.7,2.3,8.5v20.5C141.9,81.5,141.1,84.5,139.6,86.6z M132.1,84
			c1,0,1.8-0.4,2.4-1.2c0.6-0.8,0.8-2.5,0.8-5.1V56.7c0-3.2-0.8-5-2.2-5.3c-0.3-0.1-0.8-0.1-1.4-0.1c-0.6,0-1.3,0.3-1.9,1
			c-0.6,0.6-0.9,2.1-0.9,4.5v20.9c0,2.7,0.3,4.4,0.8,5.2C130.3,83.6,131.1,84,132.1,84z"/>
		<path d="M157.4,89.1v-7.6h-10.6v-4.8l9.4-30.6h7v30.2h3.3v5.3h-3.3v7.6H157.4z M151.8,76.3h5.5V55.1L151.8,76.3z"/>
	</g>
	<g>
		<path d="M52,157.5l-6.7-43h6.2l2.8,19.4l1.7,13.7h0.2l1.5-13.7l2.3-19.4h6.1l-6.1,43H52z"/>
		<path d="M71,157.5v-43h6.5v43H71z"/>
		<path d="M100.2,155c-1.5,2-3.8,3-7,3s-5.5-1.1-7.1-3.2c-1.6-2.1-2.4-5.2-2.4-9.2v-18.7c0-6.4,1.7-10.4,5-12
			c1.2-0.6,2.7-0.9,4.5-0.9c6,0,9.1,3.8,9.1,11.4v5.9H96v-5.5c0-2.2-0.2-3.8-0.6-4.7c-0.4-1-1.1-1.4-2.2-1.4c-1.1,0-1.8,0.5-2.3,1.5
			c-0.4,1-0.6,2.6-0.6,4.6v20.1c0,2.3,0.2,4,0.6,5c0.4,1,1.1,1.5,2.2,1.5s1.8-0.5,2.2-1.5c0.4-1,0.6-2.7,0.6-5v-6.2h6.4v6.1
			C102.4,149.9,101.7,153,100.2,155z"/>
		<path d="M109.9,157.5v-37.3h-5v-5.7h16.4v5.7h-4.8v37.3H109.9z"/>
		<path d="M141.1,154.9c-1.5,2.1-3.9,3.1-7.2,3.1c-3.3,0-5.7-1-7.3-3.1c-1.5-2.1-2.3-5.2-2.3-9.4v-19.7c0-7.9,3.2-11.8,9.6-11.8
			c3.3,0,5.7,1,7.2,3c1.5,2,2.2,4.9,2.2,8.8v19.7C143.3,149.7,142.6,152.8,141.1,154.9z M131.5,150.9c0.4,1,1.2,1.5,2.4,1.5
			c1.2,0,2-0.5,2.3-1.5c0.4-1,0.6-2.8,0.6-5.2v-20c0-2-0.2-3.5-0.6-4.5c-0.4-0.9-1.1-1.4-2.2-1.4c-1.1,0-1.9,0.5-2.3,1.4
			c-0.4,0.9-0.7,2.4-0.7,4.4v20C130.9,148.1,131.1,149.9,131.5,150.9z"/>
		<path d="M157.9,137.3l-2.1-0.1v20.3h-6.5v-43h10.8c2.2,0,3.9,0.5,5,1.4c1.1,0.9,1.8,2.2,2.2,3.8c0.4,1.6,0.5,3.7,0.5,6.3
			s-0.3,4.6-0.8,6c-0.6,1.4-1.6,2.3-3.1,2.8c1.5,0.3,2.5,1.3,3.1,3c0.6,1.7,0.9,5.4,0.9,10.9c0,5.5,0.1,8.5,0.2,8.9h-6.5
			c-0.2-0.3-0.2-5.5-0.2-15.4c0-1.9-0.2-3.2-0.7-3.8C160.2,137.7,159.3,137.4,157.9,137.3z M155.8,132.1h2.6c0.8,0,1.4-0.2,1.8-0.6
			c0.4-0.4,0.7-1,0.8-1.9c0.2-0.9,0.2-2.3,0.2-4.2v-0.3c0-2.3-0.2-3.8-0.6-4.6c-0.4-0.7-1.3-1.1-2.7-1.1h-2.2V132.1z"/>
		<path d="M174.2,157.5v-43h6.5v43H174.2z"/>
		<path d="M185.5,157.5l6.1-43h8.6l6.5,43h-6.1l-1-7.7h-6.9l-0.9,7.7H185.5z M198.9,144.6l-2.9-21.6H196l-2.6,21.6H198.9z"/>
		<path d="M82.9,215.5v-43h6.5v19.8l6.5-19.8h6.8l-7.1,21.2l7.7,21.8h-6.9l-6.9-20.1v20.1H82.9z"/>
		<path d="M122.7,212.9c-1.5,2.1-3.9,3.1-7.2,3.1c-3.3,0-5.7-1-7.3-3.1c-1.5-2.1-2.3-5.2-2.3-9.4v-19.7c0-7.9,3.2-11.8,9.6-11.8
			c3.3,0,5.7,1,7.2,3c1.5,2,2.2,4.9,2.2,8.8v19.7C124.9,207.7,124.2,210.8,122.7,212.9z M106.1,169.4v-5.5h6.9v5.5H106.1z
			 M113.1,208.9c0.4,1,1.2,1.5,2.4,1.5c1.2,0,2-0.5,2.3-1.5c0.4-1,0.6-2.8,0.6-5.2v-20c0-2-0.2-3.5-0.6-4.5
			c-0.4-0.9-1.1-1.4-2.2-1.4c-1.1,0-1.9,0.5-2.3,1.4c-0.4,0.9-0.7,2.4-0.7,4.4v20C112.5,206.1,112.7,207.9,113.1,208.9z
			 M117.9,169.4v-5.5h6.9v5.5H117.9z"/>
		<path d="M130.8,215.5v-43h6.5v37.4h8.3v5.6H130.8z"/>
		<path d="M149.4,215.5v-43h5.1l9.1,25.8l-0.5-11.7v-14.1h5.9v43h-4.6l-9.4-26.7l0.4,11.3v15.4H149.4z"/>
	</g>
</g>
</svg>
