<?xml version="1.0" encoding="utf-8"?>
<!-- Generator: Adobe Illustrator 17.0.0, SVG Export Plug-In . SVG Version: 6.00 Build 0)  -->
<!DOCTYPE svg PUBLIC "-//W3C//DTD SVG 1.1//EN" "http://www.w3.org/Graphics/SVG/1.1/DTD/svg11.dtd" [
	<!ENTITY ns_flows "http://ns.adobe.com/Flows/1.0/">
	<!ENTITY ns_extend "http://ns.adobe.com/Extensibility/1.0/">
	<!ENTITY ns_ai "http://ns.adobe.com/AdobeIllustrator/10.0/">
	<!ENTITY ns_graphs "http://ns.adobe.com/Graphs/1.0/">
]>
<svg version="1.1" id="Layer_2" xmlns:x="&ns_extend;" xmlns:i="&ns_ai;" xmlns:graph="&ns_graphs;"
	 xmlns="http://www.w3.org/2000/svg" xmlns:xlink="http://www.w3.org/1999/xlink" xmlns:a="http://ns.adobe.com/AdobeSVGViewerExtensions/3.0/"
	 x="0px" y="0px" width="256px" height="256px" viewBox="0 0 256 256" style="enable-background:new 0 0 256 256;"
	 xml:space="preserve">
<style type="text/css">
	.st0{fill:#FFFFFF;}
	.st1{fill:#54B948;}
	.st2{fill:#1D8C8E;}
	.st3{fill:#14DEAC;}
	.st4{fill:#1466AC;}
	.st5{fill:#757575;}
	.st6{fill:#B69442;}
	.st7{fill:#1A234D;}
	.st8{fill:#AA0629;}
	.st9{fill:#FF4A49;}
	.st10{fill:#3C6643;}
	.st11{fill:none;stroke:#FF4A49;stroke-miterlimit:10;}
	.st12{fill:#E70084;}
	.st13{fill:#508A72;}
	.st14{fill:#01A663;}
	.st15{fill:#015297;}
	.st16{fill:#B0B0B0;}
	.st17{fill:#E1062F;}
	.st18{fill:#D80000;stroke:#FFFFFF;stroke-width:2;stroke-miterlimit:10;}
	.st19{fill:#D80000;}
	.st20{fill:#8ABE23;}
	.st21{fill:#1D1D1B;}
	.st22{fill:#FEFEFE;}
	.st23{fill:#FF0000;}
	.st24{fill:#FF1D1B;}
	.st25{fill:#6DB2DE;}
	.st26{fill:#FF1D25;}
	.st27{fill:#FFDA00;}
	.st28{fill:#024D9E;}
	.st29{fill:#6B97C6;}
	.st30{fill:#000078;}
	.st31{fill:none;stroke:#FFFFFF;stroke-width:6;stroke-linecap:round;stroke-miterlimit:10;}
	.st32{fill:#FFEE34;}
	.st33{fill:none;stroke:#000000;stroke-width:4;stroke-miterlimit:10;}
	.st34{fill:#D11E24;}
	.st35{fill:#D71F26;}
	.st36{fill:#020000;}
	.st37{fill:none;stroke:#000000;stroke-width:2;stroke-miterlimit:10;}
	.st38{clip-path:url(#SVGID_2_);}
	.st39{fill:#00317D;}
	.st40{fill:#00737D;}
	.st41{fill:#ED1C24;}
	.st42{fill:#2678C7;}
	.st43{fill:#1853A6;}
	.st44{fill:#CB0000;}
	.st45{fill:#E61C21;}
	.st46{clip-path:url(#SVGID_4_);}
	.st47{fill:#6BDEF1;}
	.st48{clip-path:url(#SVGID_6_);}
	.st49{fill:#0165B2;}
	.st50{fill:#DE1134;}
	.st51{fill:#00A668;}
	.st52{fill:#FFE60B;}
	.st53{fill:#843D00;stroke:#000000;stroke-miterlimit:10;}
	.st54{fill:#EC1F27;}
	.st55{fill:#162984;}
	.st56{fill:#1853A6;stroke:#1853A6;stroke-miterlimit:10;}
	.st57{fill:none;}
	.st58{fill:none;stroke:#1853A6;stroke-width:0.9;stroke-miterlimit:10;}
	.st59{fill:#1853A6;stroke:#1853A6;stroke-width:0.9;stroke-miterlimit:10;}
	.st60{fill:#B5985A;}
	.st61{fill:#FFE60B;stroke:#000000;stroke-width:6;stroke-miterlimit:10;}
	.st62{fill:#008DCD;}
	.st63{fill:#009939;}
	.st64{fill:#2E3092;}
	.st65{fill:#EE3224;}
	.st66{fill:#005BAB;}
	.st67{fill:#D30027;}
	.st68{fill:#FFFFFF;stroke:#D30027;stroke-width:10;stroke-miterlimit:10;}
	.st69{fill:#E81C2F;}
	.st70{fill:#DC032B;}
	.st71{fill:#F25448;}
	.st72{fill:#FFFFFF;stroke:#F25448;stroke-width:6;stroke-miterlimit:10;}
	.st73{fill:#05A08D;}
	.st74{fill:#1875CE;}
	.st75{fill:#D72427;}
	.st76{fill:#004993;}
	.st77{fill:#007BB0;}
	.st78{fill:#FFEB00;}
	.st79{fill:#664A9E;}
	.st80{fill:#F4C701;}
	.st81{fill:#EBBE12;}
	.st82{fill:#44B3DB;}
	.st83{fill:#F6FF82;}
	.st84{fill:#FFC918;}
	.st85{fill:#0361A4;}
	.st86{fill:#009FE3;}
	.st87{fill:#E30217;}
	.st88{fill:#FDEA00;}
	.st89{fill:#E91B00;}
	.st90{fill:#2B2763;}
	.st91{fill:#EE1A22;}
	.st92{fill:#F1AA25;}
	.st93{fill:#93000C;}
	.st94{fill:none;stroke:#1D1D1B;stroke-width:4;}
	.st95{fill:#3E4E70;}
	.st96{fill:#096CB6;}
	.st97{fill:#0559A8;}
	.st98{fill:#F9ED1A;}
	.st99{fill:#949494;}
	.st100{fill:#FFD033;}
	.st101{fill:#243D89;}
	.st102{fill:#F8C936;}
	.st103{fill:#D44128;}
	.st104{fill:#ED1B23;}
	.st105{fill:#0C529C;}
	.st106{fill:#E31E24;}
	.st107{fill:#0263B0;}
	.st108{fill:#007AC2;}
	.st109{fill:#EF3D1F;}
	.st110{fill:#EE1C24;}
	.st111{fill:#FDEA00;stroke:#000000;stroke-width:0.6509;}
	.st112{fill:#FDEA00;stroke:#000000;stroke-width:0.6979;}
	.st113{fill:#46A0BE;}
	.st114{fill:#005FA5;}
	.st115{fill:#00904C;}
	.st116{fill:#E21F26;}
	.st117{fill:#FD0001;}
	.st118{fill:#0066B3;}
	.st119{fill:#E20019;}
	.st120{fill:#0171BC;}
	.st121{fill:#01305D;}
	.st122{fill:#1B7EE9;}
	.st123{fill:#BA0D0B;}
	.st124{fill:none;stroke:#000000;stroke-width:3;stroke-miterlimit:10;}
	.st125{fill:#FFFFFF;stroke:#000000;stroke-width:0.8836;stroke-miterlimit:10;}
	.st126{fill:#FFFFFF;stroke:#000000;stroke-width:0.9759;stroke-miterlimit:10;}
	.st127{fill:#0053A1;}
	.st128{fill:#FFE100;}
	.st129{fill:#FFE500;}
	.st130{fill:none;stroke:#FFE500;stroke-width:2;stroke-miterlimit:10;}
	.st131{fill:#01AFF3;}
	.st132{fill:#ED1B28;}
	.st133{fill:#E2000A;}
</style>
<g>
	<g>
		<path class="st0" d="M128,249.4C61,249.4,6.6,195,6.6,128S61,6.6,128,6.6S249.4,61,249.4,128S195,249.4,128,249.4z"/>
		<path class="st64" d="M128,11.1c31.2,0,60.6,12.2,82.6,34.2s34.2,51.4,34.2,82.6s-12.2,60.6-34.2,82.6s-51.4,34.2-82.6,34.2
			s-60.6-12.2-82.6-34.2S11.1,159.2,11.1,128s12.2-60.6,34.2-82.6S96.8,11.1,128,11.1 M128,2C58.4,2,2,58.4,2,128s56.4,126,126,126
			s126-56.4,126-126S197.6,2,128,2L128,2z"/>
	</g>
	<g>
		<circle class="st65" cx="128" cy="128" r="107.1"/>
		<path class="st0" d="M128,237.6c-60.5,0-109.6-49.2-109.6-109.6S67.5,18.4,128,18.4S237.6,67.5,237.6,128S188.5,237.6,128,237.6z
			 M128,23.4C70.3,23.4,23.4,70.3,23.4,128S70.3,232.6,128,232.6S232.6,185.7,232.6,128S185.7,23.4,128,23.4z"/>
	</g>
	<g>
		<g>
			<path class="st0" d="M145.2,154c-0.4,0.1-0.8,0.1-1.2,0.2c-1.8,0.4-3.5,1-5,2.1c-1.8,1.3-2.6,3.1-2.1,5.4
				c0.3,1.3,0.4,2.6,0.2,3.9c-0.2,1.3-0.7,2.3-2,2.8c-1.5,0.6-2.2,1.8-2.5,3.4c-0.1,0.8,0.2,1.2,1.1,1.4c0.3,0.1,0.7,0.1,1,0.1
				c0.3,0,0.6,0,0.9,0c-0.8,1.4-2.8,2.1-4.2,1.5c-0.4-0.2-0.6-0.5-0.8-0.9c-0.2-0.6-0.2-1.2-0.2-1.8c0-0.4-0.1-0.8-0.5-0.8
				c-0.4,0-0.6,0.4-0.6,0.8c0,0.5,0.1,1,0.2,1.6c0.1,1.5-0.2,2.9-1.3,4c-0.3,0.3-0.6,0.5-1.1,0.7c0-0.4,0.1-0.7,0.1-1
				c0.1-1.1-0.1-2.2-0.3-3.3c-0.1-0.4-0.3-0.4-0.6-0.2c-0.2,0.2-0.4,0.5-0.3,0.8c0,1,0,2-0.2,3c-0.3,1.1-0.8,2-2,2.4
				c-0.4,0.1-0.5,0.1-0.4-0.4c0.3-0.9,0.3-1.8-0.1-2.7c-0.4-1-1.2-1.2-2-0.5c-1.8,1.5-2.3,3.5-2.3,5.7c0,0.9-0.3,1.7-1,2.4
				c-0.3,0.3-0.5,0.6-0.6,0.9c-0.5,1.4-1.6,2.1-3,2.5c0.3-0.6,0.5-1.2,0.5-1.7c0-0.2,0.1-0.4-0.2-0.6c-1.8-1.1-2.1-2.4-0.8-4.1
				c0.6-0.8,0.6-1.1,0.2-2.2c-0.3,1-1.2,1.2-1.9,1.7c-1.1,0.8-1.6,2-2.1,3.3c-0.1,0.1,0,0.3,0,0.4c0.1,0.9-0.2,1.4-1.1,1.6
				c-0.3,0.1-0.7,0.1-1,0.1c-1.2,0.1-1.7,0.8-1.7,2c0,0.5,0.1,1,0.2,1.4c0.2,0.5,0,0.5-0.4,0.4c-0.6-0.2-1-0.6-1.2-1.1
				c-0.3-0.6-0.4-1.3-0.4-2c-0.3-2.7,0.4-5.1,2.6-6.9c0.1-0.1,0.2-0.1,0.1-0.3c-0.4-0.1-0.8,0.1-1.1,0.2c-0.9,0.4-1.6,1-2,1.9
				c-0.1,0.3-0.3,0.5-0.5,0.8c-0.7,0.8-1.5,0.9-2.2,0.2c-0.4-0.4-0.7-0.3-1,0.1c-0.6,0.6-0.9,1.3-1.2,2c-0.1,0.2-0.1,0.4-0.2,0.6
				c-1.6-1.3-1.7-3.9-0.1-5.3c1.7-1.6,3.5-3.1,6-3.4c-0.4-0.5-0.8-0.6-1.3-0.6c-1.3-0.2-2.6-0.1-3.8,0.5c-0.4,0.2-0.8,0.4-1.2,0.5
				c-0.9,0.2-1.4-0.1-1.6-1c-0.1-0.2-0.1-0.5-0.1-0.7c-0.1-0.8,0-0.8-0.8-0.5c-0.8,0.3-1.6,0.9-2.3,1.4c-0.4-1.6,0.8-3.6,2.4-4.1
				c0.7-0.2,1.3-0.2,2-0.2c0.3,0,0.6,0,0.8-0.2c1.5-1,2.6-0.8,3.6,0.7c0.3,0.4,0.6,0.6,1.1,0.7c0.7,0.1,1.4,0.2,2.1,0.2
				c0.9,0,1.7-0.3,2.2-1.2c0.3-0.5,0.8-0.6,1.2-0.8c2.1-0.8,4.2-1.2,6.4-1.6c1.2-0.2,2.3-0.5,3.3-1c0.8-0.4,1.4-0.9,1.7-2
				c0.4-1.4,1.4-2.4,2.8-3c1-0.5,1.3-1,1.1-2.2c-0.1-0.5-0.3-1-0.5-1.4c-0.2-0.4-0.4-0.8-1-0.9c-0.1,0-0.2-0.1-0.3-0.1
				c-0.9-1.1-2.4-1.5-3.2-2.8c-0.1-0.2-0.3-0.3-0.6-0.3c-0.9-0.1-1.7-0.5-2.5-1c-0.4-0.3-0.8-0.4-1.2-0.2c-0.6,0.2-1.2,0-1.7-0.4
				c-2-1.5-2.1-5-0.3-6.7c0.1-0.1,0.2-0.1,0.4-0.2c0,0.7-0.1,1.3,0,1.8c0.3,2.4,2.1,3.4,4.3,2.4c1-0.5,1.7-1.3,2.4-2.2
				c1.6-2.2,3.6-4.2,6-5.6c2-1.2,4.2-1.5,6.5-0.9c2.2,0.6,4.3,0.1,6.5-0.5c1.2-0.3,2.3-0.7,3.5-1c2.5-0.5,4.9-0.3,6.8,1.9
				c0-0.6-0.2-1.1-0.3-1.6c-0.8-2.1-2.4-3.6-4.3-4.7c-1.8-1.1-3.8-1.6-5.8-2c-1.6-0.4-3.1-0.9-4.6-1.7c-1.2-0.7-1.9-1.6-1.9-3.1
				c0.1-1.3-0.7-2.1-1.9-2.2c-0.4,0-0.6,0-0.7,0.4c-0.4,0.9-1,1.7-1.7,2.4c-1.2,1.1-2.8,1.6-4.2,1.2c0.3-0.2,0.6-0.3,0.9-0.5
				c0.5-0.4,0.6-0.8,0.2-1.3c-0.4-0.5-0.9-1-1.5-1.4c-0.6-0.3-0.8-0.2-0.9,0.4c-0.4,1.4-0.9,2.7-1.7,3.9c-0.8,1.1-1.8,1.9-3.2,1.8
				c-0.1,0-0.1,0-0.2,0c0,0,0,0-0.1-0.1c0-0.3,0.2-0.4,0.4-0.5c0.7-0.9,1.2-1.8,1-3c-0.1-0.9-0.9-1.4-1.7-0.9
				c-0.5,0.2-0.8,0.6-1.1,1.1c-0.3,0.4-0.5,0.9-0.8,1.4c-0.6,1-1.5,1.6-2.6,1.8c-0.1-0.2,0-0.4,0.1-0.5c0.1-0.4,0.2-0.9,0.1-1.4
				c-0.4-1.1-0.8-1.5-1.9-1.1c-1.8,0.7-2.5,2.1-2.9,3.9c-0.1,0.7-0.2,1.4-0.3,2.2c-0.1,1.3-0.8,1.9-2.1,1.9c-0.5,0-1,0-1.4-0.2
				c-0.5-0.2-0.8,0-1.1,0.4c-0.4,0.6-0.9,1.2-1.3,1.8c-0.3,0.4-0.4,0.3-0.6-0.1c-0.4-0.7-0.2-1.5,0.1-2.2c0.2-0.4,0.3-0.8,0.2-1.3
				c-0.2-0.9,0.5-1.9,1.5-2.3c1.1-0.4,1.7-1.5,1.5-2.8c-1.7,1.1-3.4,2-4.5,3.8c-0.3,0.5-0.5,1.1-0.3,1.7c0.2,0.6-0.1,1-0.6,1.2
				c-0.6,0.2-1.1,0.3-1.7,0.3c-0.7,0-1.2,0.3-1.5,0.9c-0.4,0.6-0.7,1.4-0.9,2.1c-0.1,0.5-0.4,0.4-0.7,0.2c-0.3-0.3-0.4-0.6-0.4-1
				c0-0.7,0.1-1.3,0.2-1.9c0.1-0.3,0.1-0.4-0.3-0.5c-0.7-0.2-0.8-0.5-0.5-1.1c0.2-0.5,0.6-0.9,0.9-1.3c1.2-1.3,2.6-2.4,4-3.5
				c0.2-0.2,0.5-0.3,0.7-0.7c-1.3-0.3-2.5-0.5-3.7,0.1c-0.9,0.4-1.4,1.1-1.5,2c-0.2,1-2,2.5-2.9,2.4c-0.6,0-0.9-0.4-1.1-1
				c-0.4-1.1-1.2-1.4-2.2-0.8c-0.6,0.3-1,0.8-1.4,1.3c-0.3,0.4-0.4,0.3-0.6-0.1c-0.3-0.7-0.2-1.4,0.3-2c0.5-0.6,1.1-1.1,1.8-1.4
				c0.7-0.4,1.3-0.8,1.9-1.3c1.1-0.9,2.3-1.6,3.6-2c-0.1-0.3-0.3-0.3-0.5-0.3c-1-0.3-1.9-0.1-2.8,0.4c-1.3,0.7-2.6,0.1-2.8-1.4
				c-0.1-0.5-0.3-0.7-0.7-0.8c-1-0.3-1.8-0.1-2.6,0.5c-0.3,0.2-0.6,0.4-0.9,0.6c0-0.1,0-0.3,0-0.4c0-0.1,0.1-0.3,0.1-0.4
				c0.4-1.7,1.5-2.6,3.2-2.7c0.4,0,0.8,0,1.2,0c0.3,0,0.5-0.1,0.8-0.3c0.6-0.6,1.3-0.7,2.1-0.5c0.7,0.2,1.3,0.7,1.8,1.2
				c0.1,0.1,0.3,0.3,0.5,0.2c1.3-0.5,2.6-0.4,3.8-0.2c2.8,0.4,5.6,0.4,8.4-0.1c3.1-0.6,5.7-1.9,7.2-4.9c1-2,2.3-3.7,4.8-4
				c-0.7-1.1-1.6-1.8-2.8-2.1c-1.2-0.3-2.4-0.1-3.6,0c0.3-0.3,0.5-0.5,0.8-0.7c1-0.8,2.1-1.4,3.5-1.9c-1.3-0.5-2-1.4-2.6-2.5
				c-0.8-1.6-1.6-3.3-2.2-5c-0.4-0.9-0.4-0.9-1.3-0.5c-1,0.4-2,0.4-3.1-0.1c0.2-0.1,0.2-0.1,0.3-0.2c1.8-0.8,2.4-2.2,1.8-4
				c-0.1-0.3-0.1-0.5-0.5-0.3c-0.6,0.3-1.2,0.1-1.8,0c-0.5-0.1-0.5-0.3-0.2-0.7c1-1.2,1.2-2.6,0.6-4c-0.5-1.1-1.3-2.1-2.2-2.9
				c-0.9-0.8-2.4-0.8-3.5-0.2c-1,0.7-2.2,1.1-3.4,1.3c-0.8,0.1-1.7,0-2.5,0c-1.1,0-1.6-0.3-1.9-1.3c-0.1-0.3-0.3-0.6-0.6-0.7
				c-0.9-0.4-1.6-2-1.1-3.4c0.2,0.3,0.4,0.7,0.7,1c0.5,0.6,1.1,0.9,1.9,0.9c0.2,0,0.4,0,0.6-0.2c0.7-0.8,1.1-0.9,2-0.3
				c1.6,1.1,3.8,0.5,4.6-1.2c0.1-0.3,0.1-0.4-0.1-0.6c-1.3-0.9-2.7-1.7-4.2-2.2c-0.7-0.2-1.3-0.2-2.1,0c-1.4,0.4-3,0-2.6-1.9
				c0.1-0.7-0.1-0.8-0.6-0.8c-0.6-0.1-1.1,0.1-1.7,0.2c0.4-1.3,1.3-1.9,2.6-1.9c0.3,0,0.6,0.1,0.9-0.1c1.1-0.7,2.2-0.4,3.2,0.2
				c0.6,0.4,1.2,0.9,1.8,1.3c0.7,0.4,1.5,0.8,2.3,0.8c0.7,0,1-0.4,0.9-1c0-0.3-0.1-0.6-0.3-0.8c-1-1.3-2.2-2.4-3.9-2.8
				c-1.2-0.3-1.9-1.6-1.2-2.7c0.2-0.3,0.2-0.6,0.1-0.9c-0.1-0.7-0.5-1.1-1.1-1.5c-0.4-0.3-0.8-0.5-1.3-0.7c1.4-0.8,2.7-0.7,4-0.1
				c0.6,0.3,1.2,0.5,1.9,0.5c1.5,0.1,2.2,0.9,2,2.4c0,0.1-0.1,0.3,0,0.4c0.1,1.8,0.7,3.4,2.3,4.4c0.8,0.5,1.5,0.2,1.5-0.7
				c0.1-1.5-0.3-3-1.6-4c-1-0.8-1-2.3,0.1-2.8c0.6-0.3,0.8-0.7,0.8-1.3c0-0.6-0.2-1.2-0.4-1.8c-0.1-0.2-0.2-0.3-0.1-0.5
				c1.7,0.4,3,1.4,3.4,3.2c0.1,0.3,0.2,0.5,0.5,0.6c0.7,0.3,0.9,0.6,0.8,1.3c-0.1,0.5,0.1,2,0.4,2.4c0.1,0.1,0.1,0.2,0.1,0.3
				c0.7,1.5,0.4,2.8-0.2,4.2c-0.3,0.6-0.6,1.2-0.7,1.9c-0.2,0.9-0.2,1.8,0.3,2.6c1,1.5,1.9,3,2.9,4.4c2.7,3.9,5.7,7.5,9.5,10.5
				c2.1,1.7,4.3,2.5,7,2.4c0.5,0,1.1-0.1,1.6-0.3c1.7-0.7,2.6-2,3-3.7c0.1-0.3,0.2-0.6-0.2-0.9c-0.3-0.3-0.7-0.4-1.1-0.2
				c-0.5,0.2-0.9,0.5-1.3,0.9c-0.3,0.3-0.5,0.5-0.8,0.8c-0.2-2.3,0.9-4.1,3.1-4.8c0.7-0.2,1.4-0.4,2.1-0.4c0.4,0,0.9,0.1,1.2-0.1
				c0.3-0.2,0.1-0.8,0.3-1.2c0.2-0.4,0-0.7-0.4-0.8c-0.9-0.1-1.7-0.1-2.4,0.6c-0.8,0.8-2,0.9-2.9,0.4c0.1-0.1,0.2-0.1,0.3-0.2
				c0.6-0.3,0.8-0.9,0.9-1.5c0.1-0.6-0.5-0.5-0.7-0.7c-0.5-0.4-0.7-0.9-0.5-1.5c0.2-0.7,0.6-0.9,1.2-1c0.5-0.1,0.9,0.2,1.4,0.4
				c0.1-0.6,0.2-1.1,0.7-1.6c0.2,0.4,0.3,0.7,0.4,1c0.2,0.3,0.5,0.4,0.9,0.3c0.4-0.1,0.3-0.4,0.3-0.7c-0.1-0.7,0-1.3,0.4-2.1
				c0.1,0.2,0.1,0.3,0.1,0.4c0.2,0.6,1,1.4,1.3,1.4c0.5-0.1,1-1.2,0.9-1.9c-0.1-0.5-0.3-0.7-0.8-0.7c-0.4,0.1-0.8,0.1-1.2,0.1
				c-1.7,0.3-3.2,1-4.7,1.7c-2.5,1.2-5.1,1.8-7.9,1.1c-3.7-1-5.4-5-3.4-8.1c0.7-1,1.7-1.4,3-0.9c-0.2,0.1-0.3,0.2-0.4,0.4
				c-1.2,1-1.5,2.1-0.8,3.5c0.6,1.3,1.9,1.9,3.2,2.3c2.1,0.6,4.1,0,6-0.7c1.4-0.6,2.8-1,4.3-1.2c0.5-0.1,1-0.1,1.6-0.1
				c-1-1.1-2-1.8-3.4-1.9c-0.5,0-0.8,0.2-1,0.6c-0.3,0.5-0.4,1-0.6,1.5c-0.8-0.7-1-1.3-0.6-2.2c0.2-0.5,0.1-0.6-0.4-0.6
				c-0.3,0-0.5,0.1-0.6,0.3c-0.6,0.6-0.8,1.3-1.1,2.3c-0.4-0.8-0.8-1.5-0.6-2.3c0.1-0.6-0.1-0.7-0.6-0.8c-0.4,0-0.7-0.3-0.9-0.5
				c-0.8-0.8-0.8-2.7,0.1-3.5c0.4-0.4,0.8-0.7,1.1-1.1c0.5-0.7,0.9-1.3,0.6-2.3c-0.4-1.1,0.2-1.7,1.4-1.5c0.1,0,0.3,0,0.4,0.1
				c1.3,0.2,2.4,0,3.4-0.9c1.2-1.1,2.5-1.2,3.9-0.9c0.7,0.2,1.2,0.1,1.8-0.3c0.4-0.3,0.8-0.5,1.3-0.6c0.5,0,1.1,0,1.6,0
				c1.4,0.3,2.6,1,3.6,2.1c0.5,0.6,2.2,0.5,2.8-0.1c0.5-0.6,1.2-0.7,1.9-0.7c1.2,0,2.3,0.3,3.4,0.7c0.2,0.1,0.3,0.1,0.3,0.4
				c-0.1,1.2-0.4,2.4-1.2,3.3c-0.3,0.3-0.6,0.5-1,0.7c-0.7,0.3-0.9,0.7-0.5,1.4c0.5,0.8,1.2,1.5,1.9,2.1c0.9,0.7,1.7,1.5,2.3,2.5
				c0.9,1.3,0.8,2.3-0.1,3.5c-0.4,0.5-0.2,1.1-0.2,1.7c0.1,1.3-0.2,2.5-0.9,3.6c-0.1,0.2-0.2,0.5-0.2,0.8c0.2,1.1,0.1,2.1-0.4,3
				c-1,1.9-1,3.6,0.8,5.1c-0.6,0.2-1.1,0.2-1.5,0.2c-0.4,0-0.5,0.1-0.4,0.5c0.2,1.3-0.1,2.6-0.8,3.7c-1,1.6-0.9,2.6,0.4,4
				c0.1,0.1,0.2,0.2,0.2,0.3c0,0,0,0,0,0c-0.4,0-1-0.2-1.3,0c-0.2,0.2,0,0.8-0.1,1.2c-0.2,1.1-0.7,2.1-1.3,3.1
				c-0.2,0.3-0.3,0.7-0.3,1.1c-0.1,2.1,0.7,3.8,2.2,5.2c0.1,0.1,0.2,0.1,0.2,0.2c0,0,0,0,0,0.1c-1,0.1-1.9-0.3-2.8-0.5
				c0,0.6,0.1,1.1,0.3,1.6c0.9,3.8,3,6.7,6.4,8.7c1.5,0.8,2.8,1.8,4.1,2.9c0.9,0.8,1.5,1.7,2,2.7c2.3,4.3,5.7,6.3,10.6,4.3
				c5.6-2.3,8.6-6.8,9.4-12.8c0.1-1,0-2-0.2-3c-0.6-2.5-2.7-4-5.3-3.7c-2.8,0.3-4.7,2.2-5.3,5.2c-0.1,0.4-0.2,0.8-0.3,1.3
				c-2-3.7-0.6-6.6,2.2-9.1c-1.8-1-3.9-0.5-5,1.2c-0.9,1.4-1.3,3-1.5,4.6c0,0.2,0,0.4-0.1,0.6c0,0.1-0.1,0.1-0.1,0.2
				c-1.9-2.2-2-5-0.3-7.1c1.2-1.4,2.7-2.4,4.3-3.2c0.7-0.4,0.7-0.4,0.2-1c-1-1-2.2-1.3-3.5-0.9c-1.8,0.5-3.1,1.7-4.4,3
				c-0.4,0.4-0.8,0.8-1.3,1.3c0.3-1.3,0.8-2.4,1.5-3.4c1.8-2.5,4.3-3.8,7.3-4.3c1.4-0.3,2.8-0.5,4.2-0.4c2.3,0.1,4.2,1,5.9,2.5
				c1,0.8,1.8,1.8,2.6,2.8c0.1,0.1,0.1,0.3,0.4,0.3c0.2,0,0.1-0.2,0.2-0.4c1-4.5,0.1-8.6-2.7-12.3c-0.1-0.1-0.2-0.3-0.3-0.3
				c-1,0.3-1.6-0.4-2.3-0.9c-0.4-0.2-0.7-0.4-1.1-0.6c-1.8-0.7-3.5-0.4-5,0.8c-0.7,0.6-1.2,1.2-1.8,1.9c-0.2-1.2,0.2-2.2,0.9-3.1
				c0.7-0.9,1.7-1.5,2.8-2.1c-1.7-0.4-3.3-0.8-5-0.3c-1.4,0.4-2.4,1.4-3,2.8c-0.6,1.3-0.8,2.7-1,4.1c0,0-0.1,0-0.1,0
				c-1.4-2.8-1.7-5.6-0.2-8.4c1.3-2.5,3.6-3.5,6.3-3.8c0.2,0,0.4,0.1,0.5-0.1c0.1-0.2-0.2-0.4-0.3-0.5c-3.6-3.9-4.2-11,0.4-15.5
				c1.4-1.4,3.1-1.7,5-1.3c1.2,0.2,2.2,0.8,3.3,1.2c2.6,1.1,5.3,0.8,7-1.4c0.3-0.3,0.5-0.7,0.8-1.1c0.5,0.9-0.1,3.1-1.2,4.2
				c-0.8,0.9-1.8,1.3-4.2,1.6c0,0.2,0.2,0.2,0.3,0.3c2.1,1.1,3.4,2.8,3.9,5.1c0.1,0.3,0.2,0.6,0.3,0.9c0.9,2.1,2.6,2.9,4.9,2.5
				c1.3-0.3,2.4-0.8,3.6-1.4c-1.4,1.7-3,2.9-5.3,3.3c-2,0.3-6-1.6-7.1-3.9c-0.3,0.3-0.4,0.7-0.6,1.1c-0.4,0.7-0.8,1.3-1.5,1.7
				c-0.8,0.5-1.6,0.6-2.5,0.2c0-0.1,0-0.1,0.1-0.1c1.7-1,2.1-2.5,1.9-4.3c-0.1-1.1-0.3-2.1-0.9-3.1c-0.8-1.5-2.4-2.2-4.3-1.8
				c-1.2,0.2-2.2,1.4-2.5,2.9c-0.4,2,0.2,3.9,1,5.8c1.6,3.7,4.2,6.6,7.5,8.9c4.1,2.8,5.9,6.6,6.1,11.4c0.1,2.1-0.1,4.2-0.4,6.2
				c0,0.2-0.2,0.4,0,0.7c1.1-1.7,2.5-3,4.6-3.2c1.2-0.1,2.8,0.3,3.9,1.1c-0.6,0.1-1,0.2-1.5,0.2c-3.2,0.4-5.1,2.4-6,5.5
				c-0.7,2.3-0.6,4.6-0.7,6.9c-0.3,9.5-5,16.4-14,19.1c-2,0.6-4,0.9-6.1,0.4c-1.4-0.3-2.6-0.9-3.8-1.8c-0.2-0.2-0.4-0.3-0.5,0.1
				c-0.5,2.1-0.9,4.2-0.4,6.4c0.4,2,1.7,3.4,3.5,4.1c0.9,0.3,1.9,0.3,2.8-0.1c0.6-0.2,0.9-0.8,0.7-1.4c-0.1-0.5,0-0.8,0.5-1
				c0.8-0.4,1.5-0.8,2.3-1.1c1.6-0.4,2.8,0.1,3.4,1.6c0.2,0.5,0.4,0.5,0.8,0.3c0.8-0.5,1.3-1.1,1.5-2c0.4,1.7-0.4,3.3-2.9,4.4
				c0.7,0.9,1.1,1.1,2.1,0.8c0.8-0.3,1.4-0.7,2.1-1.1c0.1-0.1,0.2-0.2,0.5-0.1c-0.9,2.4-2.3,4.1-5,4.5c0.7,0.9,1.3,1.8,2.6,1.6
				c0.7-0.1,1.4-0.4,2.1-0.8c0.4-0.2,0.7-0.4,1.2-0.7c-0.3,1.5-1.1,2.5-2.2,3.3c-1.2,0.7-2.5,0.8-4,0.7c0.6,0.9,1.2,1.6,2.2,1.7
				c1,0.1,1.7-0.5,2.4-1c0.2,2.1-0.9,3.1-3.8,3.3c0.5,0.3,1,0.6,1.4,0.9c1.7,1.2,2,2,1.3,4c0,0.1-0.1,0.2,0,0.3
				c0.3,1.3-0.2,2.5-0.9,3.5c-0.6,0.9-1.3,1.7-2,2.6c-1.1,1.3-1.1,2.7,0,3.8c0.1,0.1,0.3,0.3,0.5,0.3c2.1,0.5,3.5,3.2,2.6,5.1
				c-0.1,0.2-0.2,0.4-0.2,0.6c0,1.7-1,2.8-2.2,3.9c-0.1-0.8-0.1-1.4-0.2-2c0-0.5-0.2-0.8-0.7-0.9c-1-0.2-1.9-0.7-2.4-1.7
				c-0.3,0.1-0.3,0.4-0.3,0.6c-0.7,2-1.2,4-1.3,6.2c0,0.9-0.6,1.6-1.6,1.8c-0.8,0.1-1.1,0.6-1.3,1.2c-0.1,0.3-0.2,0.6-0.3,1
				c-0.1,0.3-0.1,0.7-0.2,1.1c-0.7-0.8-1.2-1.6-1.5-2.5c-0.1-0.3-0.2-0.5-0.4-0.6c-0.5-0.3-0.5-0.8-0.2-1.2c0.6-1.1,0.2-2.3,0.7-3.4
				c-0.6,0.5-1.1,1-1.4,1.6c-0.6,1.3-1.3,1.6-2.6,1.1c-0.1,0-0.1,0-0.2-0.1c-1.9-0.9-3.2-0.3-3.6,1.8c-0.1,0.3-0.1,0.6-0.1,0.9
				c-1.3-1-1.6-2.9-0.5-4.3c0.4-0.5,0.8-1,1.1-1.7c0.4-0.9,1.3-1.3,2.3-1.4c1.4-0.2,2.1-1.1,2.9-2.1c-0.4,0-0.8,0.1-1-0.1
				c-0.2-0.1-0.2,0-0.3,0.1c-1.2,1.5-2.2,1.6-3.5,0.2c-0.7-0.8-0.7-0.8-1.5,0c-0.6,0.6-1.1,1.4-1.7,2.2c-0.3-2,0-3.6,1.4-4.9
				c0.3-0.2,0.4-0.5,0.6-0.8c0.8-2,3-2.5,4.6-0.9c1.1,1.1,2.5,1.1,3.6-0.1c1.1-1.3,1.8-2.8,2.2-4.5c0.3-1.5,0.6-2.9,0.3-4.5
				c-0.4-1.9-1.5-3.2-3-4.3c-0.2-0.1-0.4-0.1-0.6,0c-0.6,0.4-1.3,0.5-2,0.6c-0.4,0-0.5,0.2-0.5,0.6c-0.1,0.9-0.2,1.8-0.7,2.6
				c-0.1,0.1-0.1,0.2-0.3,0.2c-0.1-0.7-0.2-1.5-0.9-2c-0.2,0.9-0.4,1.8-0.8,2.5c-0.6,1.2-1.6,2-3,2.2c-0.1,0-0.3,0.1-0.4,0
				c-0.1-0.2,0-0.3,0.1-0.4c0.6-1.1,0.9-2.2,0.8-3.4c0-0.2,0-0.3-0.1-0.5c0-0.1-0.1-0.1-0.1-0.3c-0.3,0.9-0.6,1.7-1.2,2.2
				c-0.7,0.5-1.5,0.7-2.4,0.7c0.2-0.3,0.3-0.5,0.4-0.7c0.6-0.9,0.7-2,0.3-3c-0.5-1.3-1.4-2.4-2.6-3.3c-0.3-0.2-0.5-0.3-0.8-0.5
				c-1.5-1.3-1.8-2.7-0.8-4.4c0.3-0.5,0.3-0.7-0.3-0.9c-0.9-0.3-1.7-0.8-1.9-1.7c-0.1-0.6-0.2-1.2,0-1.8c0.2-0.8,0.7-1.4,1-2.1
				C148,153.7,145.2,154,145.2,154z M143.3,75c-1.1,0.1-1.9-0.3-2.6-0.7c-0.3-0.2-0.5-0.3-0.8-0.4c-0.9-0.4-2.9,0.6-3.3,1.5
				c0,0,0.7-0.3,0.8-0.2c0.3,0.2,0.4,0.4,0.8,0.8c1.4,1.4,2.8,0.6,3.4-0.2c-1.3,0.2-2.4,0.7-2.9-0.3c-0.3-0.6-0.4-0.5,0.3-0.7
				c-0.2,1.1,0.3,1.1,1,1.1c-0.1-0.2-0.6-0.3-0.7-0.5c-0.1-0.3,0.1-0.5,0.4-0.6c0.2-0.2,0.5,0.2,0.7,0.3c0.5,0.3,0.9,0.2,1.4,0.4
				C142.2,75.5,142.7,75.5,143.3,75z"/>
		</g>
	</g>
	<g>
		<path class="st0" d="M38.7,122.4l-4-28h4.4l2.4,20l3-20h4l3.1,20l2.1-20h4.5l-3.7,28h-4.9l-2.9-18.6l-3,18.6H38.7z"/>
		<path class="st0" d="M61,114.5V112h4.7v2.8c0,1.6,0.2,2.7,0.5,3.3c0.3,0.6,0.9,0.9,1.7,0.9s1.4-0.3,1.7-0.8
			c0.3-0.5,0.4-1.4,0.4-2.5c0-1.2-0.2-2.2-0.7-3.1c-0.5-0.9-1.3-1.8-2.3-2.7l-2.4-2.1c-1.1-1-2-2.1-2.6-3.1
			c-0.6-1.1-0.9-2.3-0.9-3.8c0-2.3,0.5-4,1.6-5.2c1-1.1,2.8-1.7,5.3-1.7c2.5,0,4.2,0.7,5.1,2c0.9,1.3,1.3,3.2,1.3,5.7v1.7h-4.6v-2
			c0-1.4-0.1-2.3-0.4-2.9c-0.3-0.6-0.8-0.9-1.6-0.9c-0.8,0-1.3,0.2-1.7,0.7s-0.5,1.1-0.5,2s0.2,1.6,0.5,2.1c0.3,0.5,1,1.2,1.9,2
			l2.7,2.5c1.3,1.3,2.4,2.5,3,3.8c0.7,1.3,1,2.7,1,4.2c0,2.6-0.5,4.6-1.5,5.8c-1,1.3-2.8,1.9-5.4,1.9c-2.6,0-4.3-0.7-5.3-2.1
			C61.5,119.2,61,117.2,61,114.5z"/>
		<path class="st0" d="M82,122.4l-5-28h4.7l2.1,12.7l1.3,8.9h0.1l1.1-8.9l1.8-12.7h4.6l-4.6,28H82z"/>
	</g>
	<g>
		<path class="st0" d="M62.2,76.1l-14.3-7.6l1.4-1.6l7.1,3.9c1.8,1,3.5,2,4.8,2.8l0,0c-1-1.2-2-2.8-3.2-4.6l-4.5-6.9l1.4-1.6
			l7.2,3.9c1.7,0.9,3.3,1.9,4.7,2.8l0,0c-1.1-1.4-2.1-2.9-3.2-4.6l-4.5-6.8l1.4-1.5l8.6,13.8L68,69.7l-7.4-4c-1.8-1-3.2-1.8-4.5-2.7
			l0,0c1,1.3,1.9,2.5,3,4.3l4.5,7.1L62.2,76.1z"/>
		<path class="st0" d="M68,48.9l5.3,7.6c2,2.9,4.1,3.2,5.8,2c1.9-1.3,2.2-3.4,0.3-6.3l-5.3-7.6l1.7-1.2l5.3,7.5c2.8,3.9,1.8,7-1,8.9
			c-2.6,1.8-5.7,1.7-8.5-2.3L66.3,50L68,48.9z"/>
		<path class="st0" d="M82.9,39.7c0.8-0.6,1.9-1.2,3.4-1.9c1.8-0.8,3.3-1,4.5-0.6c1.1,0.3,2,1.1,2.6,2.4c0.6,1.3,0.7,2.5,0.3,3.6
			c-0.5,1.5-1.8,2.7-3.7,3.6c-0.5,0.3-1.1,0.5-1.5,0.5l2.6,5.7l-1.8,0.8L82.9,39.7z M87.9,45.7c0.5-0.1,1-0.3,1.6-0.5
			c2.2-1,3.1-2.7,2.2-4.7c-0.9-1.9-2.6-2.2-4.6-1.3c-0.8,0.4-1.4,0.7-1.7,0.9L87.9,45.7z"/>
		<path class="st0" d="M98.3,33.4c0.9-0.4,2.1-0.9,3.7-1.3c1.9-0.5,3.5-0.4,4.6,0.1c1,0.5,1.8,1.5,2.2,2.8c0.4,1.4,0.2,2.6-0.3,3.6
			c-0.7,1.4-2.3,2.4-4.2,2.9c-0.6,0.2-1.1,0.3-1.6,0.3l1.6,6.1l-2,0.5L98.3,33.4z M102.2,40.2c0.5,0,1-0.1,1.7-0.3
			c2.4-0.6,3.5-2.1,3-4.2c-0.5-2-2.2-2.6-4.4-2c-0.9,0.2-1.5,0.5-1.8,0.6L102.2,40.2z"/>
		<path class="st0" d="M123.4,37.2l-6,0.6l0.5,5.6l6.8-0.6l0.2,1.7l-8.8,0.8l-1.5-15.6l8.4-0.8l0.2,1.7l-6.4,0.6l0.5,4.9l6-0.6
			L123.4,37.2z"/>
		<path class="st0" d="M130.2,29c1-0.1,2.5-0.2,3.9-0.1c2.2,0.1,3.5,0.7,4.5,1.6c0.7,0.7,1.1,1.8,1,3.1c-0.1,2-1.5,3.3-3.2,3.8
			l0,0.1c1.2,0.5,1.8,1.7,2.1,3.3c0.4,2.2,0.6,3.7,0.9,4.4l-2.1-0.1c-0.2-0.5-0.5-1.8-0.8-3.8c-0.3-2.2-1.1-3.1-3-3.2l-1.9-0.1
			l-0.5,6.8l-2-0.1L130.2,29z M131.7,36.2l2.1,0.1c2.2,0.1,3.6-0.9,3.7-2.7c0.1-2-1.3-3-3.4-3.1c-1-0.1-1.7,0-2,0.1L131.7,36.2z"/>
		<path class="st0" d="M149.6,32.9l-4.6-1.1l0.4-1.7l11.3,2.7l-0.4,1.7l-4.7-1.1L148.4,47l-2-0.5L149.6,32.9z"/>
		<path class="st0" d="M158.9,45.1l-3.4,3.9l-1.9-0.8l10.9-12.5l2.3,0.9l-1,16.5l-2-0.8l0.3-5.2L158.9,45.1z M164.3,45.5l0.3-4.8
			c0.1-1.1,0.2-2,0.4-2.9l-0.1,0c-0.5,0.8-1.1,1.6-1.8,2.3l-3.1,3.6L164.3,45.5z"/>
		<path class="st0" d="M177.5,41.9l1.7,1.1l-7.4,11.8l5.7,3.6l-0.9,1.4l-7.4-4.6L177.5,41.9z"/>
		<path class="st0" d="M190.7,62l-4.6-4l-3.7,4.3l5.1,4.4l-1.1,1.3l-6.7-5.8L190,50.4l6.4,5.6l-1.1,1.3l-4.9-4.2l-3.2,3.7l4.6,4
			L190.7,62z"/>
		<path class="st0" d="M201.3,61.3c0.8,0.7,1.9,1.7,2.8,2.8c1.4,1.7,2,3,1.9,4.3c0,1-0.6,2.1-1.5,2.9c-1.6,1.3-3.5,1.2-4.9,0.3
			l-0.1,0c0.4,1.2,0,2.4-1,3.8c-1.4,1.8-2.3,3-2.5,3.7l-1.3-1.6c0.2-0.5,1-1.6,2.2-3.2c1.4-1.7,1.4-2.9,0.3-4.4l-1.2-1.5l-5.2,4.3
			l-1.3-1.6L201.3,61.3z M197.2,67.4l1.3,1.6c1.4,1.7,3.2,2,4.6,0.8c1.6-1.3,1.3-3-0.1-4.6c-0.6-0.8-1.1-1.2-1.4-1.4L197.2,67.4z"/>
	</g>
	<g>
		<path class="st0" d="M57.8,186.1c0,1.1,0.4,2.4,1.2,3.6c1.1,1.7,2.7,2.1,4,1.3c1.2-0.8,1.5-2,1-4.2c-0.7-2.6-0.4-4.7,1.4-5.9
			c2-1.3,4.7-0.7,6.3,1.9c0.9,1.3,1.2,2.5,1.3,3.3l-1.7,0.5c0-0.6-0.2-1.7-1-2.9c-1.2-1.8-2.7-1.8-3.6-1.2c-1.2,0.8-1.3,2-0.8,4.3
			c0.6,2.8,0.3,4.6-1.6,5.9c-2,1.3-4.7,1-6.8-2.1c-0.8-1.3-1.4-2.9-1.4-3.9L57.8,186.1z"/>
		<path class="st0" d="M76.2,189.5c0.8,0.6,1.8,1.4,3,2.5c1.4,1.4,2.1,2.8,2.2,4c0.1,1.1-0.4,2.3-1.3,3.3c-1,1-2.1,1.5-3.3,1.5
			c-1.6,0-3.2-0.8-4.6-2.2c-0.4-0.4-0.8-0.8-1-1.3l-4.5,4.4l-1.4-1.4L76.2,189.5z M72.2,196.2c0.2,0.4,0.6,0.8,1.1,1.3
			c1.7,1.7,3.6,2,5.1,0.5c1.5-1.5,1.2-3.2-0.4-4.8c-0.6-0.6-1.1-1.1-1.5-1.2L72.2,196.2z"/>
		<path class="st0" d="M82.4,215.4c-3.5-2.3-4.2-6.5-1.6-10.5c2.7-4.2,7-5.3,10.6-3c3.6,2.3,4.2,6.6,1.6,10.5
			C90.1,216.9,85.8,217.5,82.4,215.4L82.4,215.4z M83.4,214c2.7,1.7,5.8,0.2,7.8-2.8c1.7-2.6,2.1-6.2-0.7-8.1s-5.9-0.1-7.8,2.8
			C80.8,208.8,80.7,212.3,83.4,214L83.4,214z"/>
		<path class="st0" d="M100.5,207.5c1,0.2,2.5,0.5,3.8,1c2,0.7,3.2,1.6,3.8,2.8c0.5,0.9,0.6,2.1,0.1,3.2c-0.7,1.9-2.4,2.8-4.1,2.7
			l0,0.1c1,0.8,1.3,2.1,1.1,3.8c-0.3,2.2-0.4,3.8-0.3,4.4l-2-0.7c-0.1-0.5,0-1.9,0.3-3.9c0.3-2.2-0.2-3.3-1.9-3.9l-1.8-0.6l-2.3,6.4
			l-1.9-0.7L100.5,207.5z M100,214.9l1.9,0.7c2,0.7,3.7,0.1,4.3-1.6c0.7-1.9-0.4-3.2-2.4-4c-0.9-0.3-1.6-0.5-1.9-0.5L100,214.9z"/>
		<path class="st0" d="M116.5,213.6l-4.7-0.7l0.3-1.7l11.5,1.7l-0.3,1.7l-4.7-0.7l-2.1,13.8l-2-0.3L116.5,213.6z"/>
		<path class="st0" d="M131.6,228.5l-6-15.4l2.2-0.1l2.9,7.6c0.8,2.1,1.5,4,2,5.8l0,0c0.3-1.8,0.8-3.8,1.5-5.9l2.2-7.9l2.2-0.1
			l-4.7,16L131.6,228.5z"/>
		<path class="st0" d="M151.3,217.7l-5.9,1.5l1.4,5.5l6.6-1.7l0.4,1.6l-8.6,2.2l-3.9-15.2l8.2-2.1l0.4,1.6l-6.2,1.6l1.2,4.8l5.9-1.5
			L151.3,217.7z"/>
		<path class="st0" d="M153.5,208.3c0.8-0.6,2.1-1.4,3.3-2c1.9-0.9,3.4-1.2,4.7-0.8c1,0.3,1.9,1,2.4,2.1c0.9,1.8,0.3,3.7-0.9,4.9
			l0,0.1c1.2-0.1,2.4,0.6,3.4,1.9c1.4,1.7,2.4,2.9,2.9,3.4l-1.9,0.9c-0.4-0.3-1.3-1.4-2.5-2.9c-1.4-1.7-2.5-2.1-4.2-1.4l-1.7,0.8
			l2.9,6.1l-1.8,0.9L153.5,208.3z M158.5,213.9l1.9-0.9c1.9-0.9,2.7-2.6,1.9-4.2c-0.9-1.8-2.6-2-4.5-1.1c-0.9,0.4-1.4,0.8-1.7,1
			L158.5,213.9z"/>
		<path class="st0" d="M177,203.5l-4.9,3.6l3.4,4.5l5.4-4.1l1,1.4l-7.1,5.3l-9.4-12.6l6.8-5.1l1,1.4l-5.2,3.9l3,4l4.9-3.6L177,203.5
			z"/>
		<path class="st0" d="M177,192.1l11.1,11.1l-1.4,1.5l-11.1-11.1L177,192.1z"/>
		<path class="st0" d="M193.2,197.7l-12.8-9l1.3-1.8l9.4,0.5c2.2,0.1,4,0.3,5.8,0.6l0-0.1c-1.8-1.1-3.4-2.1-5.4-3.5l-5.4-3.8
			l1.1-1.6l12.8,9l-1.2,1.7l-9.4-0.5c-2.1-0.1-4.1-0.3-6-0.6l0,0.1c1.7,1,3.2,2.1,5.4,3.6l5.5,3.8L193.2,197.7z"/>
	</g>
</g>
</svg>
