<?xml version="1.0" encoding="utf-8"?>
<!-- Generator: Adobe Illustrator 17.0.0, SVG Export Plug-In . SVG Version: 6.00 Build 0)  -->
<!DOCTYPE svg PUBLIC "-//W3C//DTD SVG 1.1//EN" "http://www.w3.org/Graphics/SVG/1.1/DTD/svg11.dtd" [
	<!ENTITY ns_flows "http://ns.adobe.com/Flows/1.0/">
	<!ENTITY ns_extend "http://ns.adobe.com/Extensibility/1.0/">
	<!ENTITY ns_ai "http://ns.adobe.com/AdobeIllustrator/10.0/">
	<!ENTITY ns_graphs "http://ns.adobe.com/Graphs/1.0/">
]>
<svg version="1.1" id="Layer_2" xmlns:x="&ns_extend;" xmlns:i="&ns_ai;" xmlns:graph="&ns_graphs;"
	 xmlns="http://www.w3.org/2000/svg" xmlns:xlink="http://www.w3.org/1999/xlink" xmlns:a="http://ns.adobe.com/AdobeSVGViewerExtensions/3.0/"
	 x="0px" y="0px" width="256px" height="256px" viewBox="0 0 256 256" style="enable-background:new 0 0 256 256;"
	 xml:space="preserve">
<style type="text/css">
	.st0{fill:#FFFFFF;}
	.st1{fill:#54B948;}
	.st2{fill:#1D8C8E;}
	.st3{fill:#14DEAC;}
	.st4{fill:#1466AC;}
	.st5{fill:#757575;}
	.st6{fill:#B69442;}
	.st7{fill:#1A234D;}
	.st8{fill:#AA0629;}
	.st9{fill:#FF4A49;}
	.st10{fill:#3C6643;}
	.st11{fill:none;stroke:#FF4A49;stroke-miterlimit:10;}
	.st12{fill:#E70084;}
	.st13{fill:#508A72;}
	.st14{fill:#01A663;}
	.st15{fill:#015297;}
	.st16{fill:#B0B0B0;}
	.st17{fill:#E1062F;}
	.st18{fill:#D80000;stroke:#FFFFFF;stroke-width:2;stroke-miterlimit:10;}
	.st19{fill:#D80000;}
	.st20{fill:#8ABE23;}
	.st21{fill:#1D1D1B;}
	.st22{fill:#FEFEFE;}
	.st23{fill:#FF0000;}
	.st24{fill:#FF1D1B;}
	.st25{fill:#6DB2DE;}
	.st26{fill:#FF1D25;}
	.st27{fill:#FFDA00;}
	.st28{fill:#024D9E;}
	.st29{fill:#6B97C6;}
	.st30{fill:#000078;}
	.st31{fill:none;stroke:#FFFFFF;stroke-width:6;stroke-linecap:round;stroke-miterlimit:10;}
	.st32{fill:#FFEE34;}
	.st33{fill:none;stroke:#000000;stroke-width:4;stroke-miterlimit:10;}
	.st34{fill:#D11E24;}
	.st35{fill:#D71F26;}
	.st36{fill:#020000;}
	.st37{fill:none;stroke:#000000;stroke-width:2;stroke-miterlimit:10;}
	.st38{clip-path:url(#SVGID_2_);}
	.st39{fill:#00317D;}
	.st40{fill:#00737D;}
	.st41{fill:#ED1C24;}
	.st42{fill:#2678C7;}
	.st43{fill:#1853A6;}
	.st44{fill:#CB0000;}
	.st45{fill:#E61C21;}
	.st46{clip-path:url(#SVGID_4_);}
	.st47{fill:#6BDEF1;}
	.st48{clip-path:url(#SVGID_6_);}
	.st49{fill:#0165B2;}
	.st50{fill:#DE1134;}
	.st51{fill:#00A668;}
	.st52{fill:#FFE60B;}
	.st53{fill:#843D00;stroke:#000000;stroke-miterlimit:10;}
	.st54{fill:#EC1F27;}
	.st55{fill:#162984;}
	.st56{fill:#1853A6;stroke:#1853A6;stroke-miterlimit:10;}
	.st57{fill:none;}
	.st58{fill:none;stroke:#1853A6;stroke-width:0.9;stroke-miterlimit:10;}
	.st59{fill:#1853A6;stroke:#1853A6;stroke-width:0.9;stroke-miterlimit:10;}
	.st60{fill:#B5985A;}
	.st61{fill:#FFE60B;stroke:#000000;stroke-width:6;stroke-miterlimit:10;}
	.st62{fill:#008DCD;}
	.st63{fill:#009939;}
	.st64{fill:#2E3092;}
	.st65{fill:#EE3224;}
	.st66{fill:#005BAB;}
	.st67{fill:#D30027;}
	.st68{fill:#FFFFFF;stroke:#D30027;stroke-width:10;stroke-miterlimit:10;}
	.st69{fill:#E81C2F;}
	.st70{fill:#DC032B;}
	.st71{fill:#F25448;}
	.st72{fill:#FFFFFF;stroke:#F25448;stroke-width:6;stroke-miterlimit:10;}
	.st73{fill:#05A08D;}
	.st74{fill:#1875CE;}
	.st75{fill:#D72427;}
	.st76{fill:#004993;}
	.st77{fill:#007BB0;}
	.st78{fill:#FFEB00;}
	.st79{fill:#664A9E;}
	.st80{fill:#F4C701;}
	.st81{fill:#EBBE12;}
	.st82{fill:#44B3DB;}
	.st83{fill:#F6FF82;}
	.st84{fill:#FFC918;}
	.st85{fill:#0361A4;}
	.st86{fill:#009FE3;}
	.st87{fill:#E30217;}
	.st88{fill:#FDEA00;}
	.st89{fill:#E91B00;}
	.st90{fill:#2B2763;}
	.st91{fill:#EE1A22;}
	.st92{fill:#F1AA25;}
	.st93{fill:#93000C;}
	.st94{fill:none;stroke:#1D1D1B;stroke-width:4;}
	.st95{fill:#3E4E70;}
	.st96{fill:#096CB6;}
	.st97{fill:#0559A8;}
	.st98{fill:#F9ED1A;}
	.st99{fill:#949494;}
	.st100{fill:#FFD033;}
	.st101{fill:#243D89;}
	.st102{fill:#F8C936;}
	.st103{fill:#D44128;}
	.st104{fill:#ED1B23;}
	.st105{fill:#0C529C;}
	.st106{fill:#E31E24;}
	.st107{fill:#0263B0;}
	.st108{fill:#007AC2;}
	.st109{fill:#EF3D1F;}
	.st110{fill:#EE1C24;}
	.st111{fill:#FDEA00;stroke:#000000;stroke-width:0.6509;}
	.st112{fill:#FDEA00;stroke:#000000;stroke-width:0.6979;}
	.st113{fill:#46A0BE;}
	.st114{fill:#005FA5;}
	.st115{fill:#00904C;}
	.st116{fill:#E21F26;}
	.st117{fill:#FD0001;}
	.st118{fill:#0066B3;}
	.st119{fill:#E20019;}
	.st120{fill:#0171BC;}
	.st121{fill:#01305D;}
	.st122{fill:#1B7EE9;}
	.st123{fill:#BA0D0B;}
	.st124{fill:none;stroke:#000000;stroke-width:3;stroke-miterlimit:10;}
	.st125{fill:#FFFFFF;stroke:#000000;stroke-width:0.8836;stroke-miterlimit:10;}
	.st126{fill:#FFFFFF;stroke:#000000;stroke-width:0.9759;stroke-miterlimit:10;}
	.st127{fill:#0053A1;}
	.st128{fill:#FFE100;}
	.st129{fill:#FFE500;}
	.st130{fill:none;stroke:#FFE500;stroke-width:2;stroke-miterlimit:10;}
	.st131{fill:#01AFF3;}
	.st132{fill:#ED1B28;}
	.st133{fill:#E2000A;}
</style>
<g>
	<g>
		<g>
			<path class="st0" d="M128,249.4C61,249.4,6.6,195,6.6,128S61,6.6,128,6.6S249.4,61,249.4,128S195,249.4,128,249.4z"/>
			<path class="st71" d="M128,11.1c31.2,0,60.6,12.2,82.6,34.2s34.2,51.4,34.2,82.6s-12.2,60.6-34.2,82.6s-51.4,34.2-82.6,34.2
				s-60.6-12.2-82.6-34.2S11.1,159.2,11.1,128s12.2-60.6,34.2-82.6S96.8,11.1,128,11.1 M128,2C58.4,2,2,58.4,2,128s56.4,126,126,126
				s126-56.4,126-126S197.6,2,128,2L128,2z"/>
		</g>
		<g>
			<circle class="st0" cx="128" cy="128" r="107.1"/>
			<path class="st72" d="M128,237.6c-60.5,0-109.6-49.2-109.6-109.6S67.5,18.4,128,18.4S237.6,67.5,237.6,128S188.5,237.6,128,237.6
				z"/>
		</g>
	</g>
	<g>
		<path class="st73" d="M70.1,164v-2h3.3v2.3c0,1.3,0.1,2.1,0.3,2.7c0.2,0.5,0.6,0.8,1.2,0.8s1-0.2,1.2-0.6s0.3-1.1,0.3-2.1
			s-0.2-1.8-0.5-2.5c-0.3-0.7-0.9-1.4-1.6-2.2l-1.7-1.7c-0.8-0.8-1.4-1.7-1.8-2.5c-0.4-0.9-0.6-1.9-0.6-3c0-1.9,0.4-3.3,1.1-4.2
			c0.7-0.9,2-1.4,3.7-1.4c1.8,0,2.9,0.5,3.6,1.6c0.6,1.1,0.9,2.6,0.9,4.6v1.4h-3.2v-1.6c0-1.1-0.1-1.9-0.3-2.4
			c-0.2-0.5-0.6-0.7-1.1-0.7s-0.9,0.2-1.2,0.5c-0.2,0.4-0.4,0.9-0.4,1.6c0,0.7,0.1,1.3,0.4,1.7c0.2,0.4,0.7,1,1.3,1.6l1.9,2
			c0.9,1,1.6,2,2.1,3.1c0.5,1,0.7,2.2,0.7,3.4c0,2.1-0.4,3.7-1.1,4.7s-2,1.5-3.7,1.5s-3-0.6-3.7-1.7S70.1,166.1,70.1,164z"/>
		<path class="st73" d="M90.6,169c-0.8,1.1-2,1.6-3.7,1.6s-2.9-0.6-3.8-1.7c-0.8-1.1-1.2-2.7-1.2-4.8v-9.9c0-3.4,0.9-5.5,2.7-6.3
			c0.7-0.3,1.4-0.5,2.4-0.5c3.2,0,4.8,2,4.8,6v3.1h-3.3v-2.9c0-1.2-0.1-2-0.3-2.5c-0.2-0.5-0.6-0.8-1.2-0.8s-1,0.3-1.2,0.8
			c-0.2,0.5-0.3,1.3-0.3,2.4v10.6c0,1.2,0.1,2.1,0.3,2.6c0.2,0.5,0.6,0.8,1.2,0.8c0.6,0,1-0.3,1.2-0.8s0.3-1.4,0.3-2.6v-3.2h3.4v3.2
			C91.8,166.3,91.4,168,90.6,169z"/>
		<path class="st73" d="M103.9,159.7l-1.1-0.1v10.7h-3.4v-22.6h5.7c1.2,0,2.1,0.2,2.7,0.7c0.6,0.5,1,1.1,1.2,2s0.3,2,0.3,3.3
			c0,1.4-0.1,2.4-0.4,3.1c-0.3,0.7-0.8,1.2-1.6,1.5c0.8,0.1,1.3,0.7,1.6,1.6c0.3,0.9,0.5,2.8,0.5,5.7s0,4.5,0.1,4.7h-3.4
			c-0.1-0.2-0.1-2.9-0.1-8.1c0-1-0.1-1.7-0.4-2C105.1,159.9,104.6,159.7,103.9,159.7z M102.8,157h1.4c0.4,0,0.8-0.1,1-0.3
			c0.2-0.2,0.4-0.5,0.4-1c0.1-0.5,0.1-1.2,0.1-2.2v-0.1c0-1.2-0.1-2-0.3-2.4c-0.2-0.4-0.7-0.6-1.4-0.6h-1.2V157z"/>
		<path class="st73" d="M116.9,170.6c-1.8,0-3.1-0.5-3.8-1.6s-1.1-2.7-1.1-4.7V157c0-4.1,1.6-6.2,4.8-6.2c3.2,0,4.8,2.1,4.8,6.2v7.2
			c0,3.2-0.8,5.2-2.5,5.9C118.6,170.4,117.8,170.6,116.9,170.6z M116.9,167.8c0.5,0,0.9-0.2,1.1-0.7c0.2-0.5,0.3-1.2,0.3-2.1v-8.6
			c0-0.9-0.1-1.7-0.3-2.1s-0.6-0.7-1.1-0.7s-0.9,0.2-1.1,0.7c-0.2,0.5-0.3,1.2-0.3,2.1v8.6c0,1.4,0.2,2.3,0.7,2.6
			C116.3,167.7,116.6,167.8,116.9,167.8z"/>
		<path class="st73" d="M128.3,170.4c-1.2,0-2-0.2-2.4-0.7s-0.6-1.3-0.6-2.4v-13.5h-1.6v-2.5h1.6v-3.8h3.4v3.8h1.9v2.5h-1.9v12.9
			c0,0.5,0.1,0.7,0.4,0.9c0.2,0.1,0.8,0.2,1.6,0.2v2.6H128.3z"/>
		<path class="st73" d="M132.5,161.8v-2.3h6.1v2.3H132.5z"/>
		<path class="st73" d="M143.9,170.3l-2.8-22.6h3.1l1.7,16.1l2.1-16.1h2.8l2.1,16.1l1.5-16.1h3.1l-2.6,22.6h-3.4l-2-15.1l-2.1,15.1
			H143.9z"/>
		<path class="st73" d="M164.4,170.6c-2.2,0-3.6-0.8-4.2-2.5c-0.4-1.1-0.6-2.4-0.6-4.2v-7.2c0-3.9,1.6-5.9,4.9-5.9
			c1.8,0,3,0.5,3.6,1.6c0.7,1,1,2.5,1,4.4v4.1H163v3.8c0,1.3,0.1,2.2,0.3,2.6s0.6,0.5,1,0.5c0.5,0,0.8-0.1,0.9-0.3
			c0.2-0.4,0.4-0.8,0.4-1.2c0-0.4,0.1-0.9,0.1-1.6V163h3.4v1c0,1.8-0.1,3-0.4,3.8c-0.3,0.8-0.6,1.3-1,1.7
			C167,170.2,165.9,170.6,164.4,170.6z M163,158.9h2.8v-2.5c0-1.1-0.1-1.8-0.3-2.3c-0.2-0.5-0.5-0.7-1-0.7h0c-0.9,0-1.4,0.7-1.4,2
			c0,0.3,0,0.6,0,1V158.9z"/>
		<path class="st73" d="M172.2,149.2v-3h3.4v3H172.2z M172.2,170.3V151h3.4v19.3H172.2z"/>
		<path class="st73" d="M179.1,170.3v-18.2c0-1.6,0.4-2.8,1.1-3.6c0.7-0.8,2-1.1,3.7-1.1c1.7,0,3,0.4,3.8,1.1
			c0.8,0.7,1.2,1.9,1.2,3.6v2.5c0,1-0.2,1.8-0.5,2.3c-0.3,0.6-0.8,0.9-1.6,1.2c1.1,0.2,1.8,0.8,2.2,1.6c0.4,0.8,0.6,2,0.6,3.5v1
			c0,1.6-0.1,2.8-0.4,3.5c-0.3,0.7-0.6,1.2-1,1.6c-0.7,0.7-1.8,1-3.3,1h-1.3v-2.7c1,0,1.7-0.2,2.1-0.5c0.4-0.3,0.5-0.9,0.5-1.9v-3.4
			c0-0.9-0.2-1.4-0.5-1.8c-0.4-0.3-1-0.5-2-0.5V157c0.7,0,1.1-0.1,1.4-0.4s0.4-0.7,0.4-1.4v-3.4c0-0.6-0.1-1-0.3-1.2
			c-0.2-0.2-0.6-0.4-1.1-0.4c-0.5,0-0.9,0.1-1.2,0.4c-0.2,0.2-0.4,0.7-0.4,1.2v18.5H179.1z"/>
		<path class="st73" d="M61.6,195.5c-0.7,0.9-1.7,1.4-3.2,1.4s-2.5-0.5-3.2-1.4s-1-2.3-1-4.1v-8.6c0-3.5,1.4-5.2,4.2-5.2
			c1.5,0,2.5,0.4,3.2,1.3c0.6,0.9,1,2.2,1,3.9v8.6C62.6,193.2,62.2,194.6,61.6,195.5z M57.4,193.7c0.2,0.4,0.5,0.7,1,0.7
			c0.5,0,0.9-0.2,1-0.7c0.2-0.4,0.2-1.2,0.2-2.3v-8.8c0-0.9-0.1-1.5-0.3-2c-0.2-0.4-0.5-0.6-1-0.6c-0.5,0-0.8,0.2-1,0.6
			c-0.2,0.4-0.3,1.1-0.3,1.9v8.8C57.1,192.5,57.2,193.3,57.4,193.7z"/>
		<path class="st73" d="M68,195.2v1.5h-2.8v-19.1H68v4.1c0.2-0.4,0.4-0.7,0.8-1c0.4-0.3,0.8-0.4,1.3-0.4c1.4,0,2.3,0.6,2.7,1.8
			c0.3,0.8,0.4,1.8,0.4,3v6.8c0,0,0,0,0,0c0,2.3-0.5,3.8-1.6,4.4c-0.4,0.2-0.8,0.4-1.4,0.4c0,0,0,0-0.1,0
			C69.2,196.8,68.5,196.3,68,195.2z M68.3,193.9c0.2,0.4,0.5,0.7,1,0.7s0.8-0.2,0.9-0.6c0.1-0.4,0.2-1.2,0.2-2.2v-6.6
			c0-1.3-0.2-2.1-0.5-2.3c-0.2-0.1-0.3-0.2-0.6-0.2c-0.5,0-0.8,0.2-1,0.5c-0.2,0.4-0.3,1-0.3,1.9v6.6
			C68,192.7,68.1,193.5,68.3,193.9z"/>
		<path class="st73" d="M79.6,196.9c-1.8,0-3-0.7-3.5-2.1c-0.3-0.9-0.5-2-0.5-3.5v-6c0-3.3,1.4-4.9,4.1-4.9c1.5,0,2.5,0.4,3,1.3
			c0.6,0.9,0.8,2.1,0.8,3.7v3.4h-5.1v3.2c0,1.1,0.1,1.8,0.3,2.1c0.2,0.3,0.5,0.5,0.9,0.5s0.6-0.1,0.8-0.3c0.2-0.3,0.3-0.6,0.3-1
			c0-0.3,0-0.8,0-1.4v-1.4h2.8v0.9c0,1.5-0.1,2.5-0.3,3.1c-0.2,0.6-0.5,1.1-0.8,1.4C81.8,196.6,80.9,196.9,79.6,196.9z M78.5,187.1
			h2.3v-2.1c0-0.9-0.1-1.5-0.2-1.9c-0.1-0.4-0.4-0.6-0.9-0.6h0c-0.7,0-1.1,0.6-1.2,1.7c0,0.2,0,0.5,0,0.8V187.1z"/>
		<path class="st73" d="M91.8,180.4c0,0,0,0.6,0,1.8l0,0.6c-0.6,0-1.1,0.1-1.7,0.3c-0.6,0.2-0.9,0.5-1.1,0.8v12.8h-2.9v-16.1H89v1.8
			c0.2-0.6,0.5-1.1,1-1.5C90.5,180.5,91.1,180.4,91.8,180.4z"/>
		<path class="st73" d="M93.6,196.7v-19.1h2.8v4.8c0.2-0.6,0.4-1.1,0.9-1.5c0.4-0.4,1-0.6,1.6-0.6c0.9,0,1.6,0.3,2.1,0.9
			c0.5,0.6,0.7,1.5,0.7,2.7v12.7h-2.8v-12.4c0-1-0.4-1.6-1.1-1.6c-0.4,0-0.8,0.2-1,0.5c-0.2,0.4-0.4,0.8-0.4,1.5v12H93.6z"/>
		<path class="st73" d="M107.2,196.8c-1.1,0-1.8-0.4-2.3-1.1c-0.5-0.8-0.7-1.8-0.7-3.3v-1c0-1.4,0.4-2.4,1.1-3.1
			c0.5-0.5,1.3-0.9,2.4-1.4c0.2-0.1,0.5-0.2,0.9-0.3c0.4-0.1,0.6-0.2,0.8-0.3v-1.4c0-0.9-0.1-1.5-0.2-1.8c-0.1-0.3-0.4-0.5-0.9-0.5
			c-0.4,0-0.7,0.2-0.9,0.5c-0.2,0.3-0.2,0.9-0.2,1.7v0.7h-2.8v-0.5c0-1.5,0.3-2.7,0.9-3.5c0.6-0.8,1.6-1.2,3-1.2s2.5,0.4,3.1,1.2
			c0.6,0.8,0.9,2,0.9,3.6v11.5h-2.9v-1.6c-0.1,0.5-0.4,0.9-0.8,1.3C108.2,196.7,107.7,196.8,107.2,196.8z M109.4,187.9
			c-0.9,0.4-1.5,0.8-1.8,1.1c-0.3,0.4-0.5,0.9-0.5,1.7v1.7c0,0.8,0.1,1.3,0.2,1.6c0.2,0.3,0.4,0.5,0.8,0.5s0.6-0.1,0.9-0.4
			c0.2-0.2,0.4-0.5,0.4-0.8V187.9z"/>
		<path class="st73" d="M117.8,196.9c-1.9,0-2.9-1.3-2.9-3.9v-12.5h2.9v12c0,0.7,0.1,1.2,0.2,1.5c0.2,0.3,0.5,0.5,0.9,0.5
			c0.9,0,1.3-0.6,1.3-1.9l0-12h2.8v16.1h-2.8V195C119.8,196.2,119,196.9,117.8,196.9z"/>
		<path class="st73" d="M125.4,184.3c0-2.6,1.3-4,3.8-4c1.3,0,2.2,0.4,2.8,1.1c0.6,0.7,0.9,1.9,0.9,3.6v0.9h-2.5v-1.1
			c0-0.7-0.1-1.3-0.2-1.6c-0.2-0.4-0.4-0.5-0.8-0.5c-0.4,0-0.7,0.1-0.8,0.3c-0.2,0.2-0.3,0.6-0.3,1.1c0,0.9,0.4,1.6,1.1,2.4l1.5,1.4
			c1.6,1.5,2.4,3.1,2.4,4.8c0,1.4-0.3,2.4-0.9,3.1s-1.6,1-2.9,1s-2.3-0.4-2.9-1.1c-0.6-0.7-0.9-1.9-0.9-3.6v-1h2.7v1.3
			c0,1.4,0.4,2.1,1.1,2.1c0.4,0,0.7-0.1,0.8-0.4c0.2-0.3,0.3-0.7,0.3-1.3c0-1.1-0.5-2.1-1.5-3c0,0-0.3-0.2-0.7-0.6
			c-0.4-0.4-0.7-0.6-0.8-0.7C126,187.4,125.4,185.9,125.4,184.3z"/>
		<path class="st73" d="M139,196.9c-1.8,0-3-0.7-3.5-2.1c-0.3-0.9-0.5-2-0.5-3.5v-6c0-3.3,1.4-4.9,4.1-4.9c1.5,0,2.5,0.4,3,1.3
			c0.6,0.9,0.8,2.1,0.8,3.7v3.4h-5.1v3.2c0,1.1,0.1,1.8,0.3,2.1c0.2,0.3,0.5,0.5,0.9,0.5s0.6-0.1,0.8-0.3c0.2-0.3,0.3-0.6,0.3-1
			c0-0.3,0-0.8,0-1.4v-1.4h2.8v0.9c0,1.5-0.1,2.5-0.3,3.1c-0.2,0.6-0.5,1.1-0.8,1.4C141.2,196.6,140.3,196.9,139,196.9z
			 M137.9,187.1h2.3v-2.1c0-0.9-0.1-1.5-0.2-1.9c-0.1-0.4-0.4-0.6-0.9-0.6h0c-0.7,0-1.1,0.6-1.2,1.7c0,0.2,0,0.5,0,0.8V187.1z"/>
		<path class="st73" d="M151,180.4c1.9,0,2.8,1.2,2.8,3.6v12.7h-2.8v-12.5c0-0.5-0.1-0.8-0.3-1.1c-0.2-0.3-0.5-0.4-0.9-0.4
			c-0.4,0-0.7,0.2-1,0.5c-0.2,0.3-0.3,0.8-0.3,1.4v12.1h-2.8v-16.1h2.8v1.8c0.1-0.6,0.5-1.1,0.9-1.5
			C149.8,180.6,150.3,180.4,151,180.4z"/>
		<path class="st73" d="M156,189.6v-1.9h5.1v1.9H156z"/>
		<path class="st73" d="M167.8,187.8l-0.9,0v8.9H164v-18.9h4.8c1,0,1.7,0.2,2.2,0.6c0.5,0.4,0.8,1,1,1.7c0.2,0.7,0.2,1.6,0.2,2.8
			s-0.1,2-0.4,2.6c-0.2,0.6-0.7,1-1.4,1.2c0.7,0.1,1.1,0.6,1.4,1.3c0.3,0.8,0.4,2.4,0.4,4.8c0,2.4,0,3.7,0.1,3.9h-2.9
			c-0.1-0.1-0.1-2.4-0.1-6.8c0-0.8-0.1-1.4-0.3-1.7C168.8,187.9,168.4,187.8,167.8,187.8z M166.8,185.5h1.1c0.4,0,0.6-0.1,0.8-0.2
			c0.2-0.2,0.3-0.4,0.4-0.8c0.1-0.4,0.1-1,0.1-1.8v-0.1c0-1-0.1-1.7-0.3-2c-0.2-0.3-0.6-0.5-1.2-0.5h-1V185.5z"/>
		<path class="st73" d="M174.8,196.7v-19.1h2.8v4.8c0.2-0.6,0.4-1.1,0.9-1.5c0.4-0.4,1-0.6,1.6-0.6c0.9,0,1.6,0.3,2.1,0.9
			c0.5,0.6,0.7,1.5,0.7,2.7v12.7h-2.8v-12.4c0-1-0.4-1.6-1.1-1.6c-0.4,0-0.8,0.2-1,0.5c-0.2,0.4-0.4,0.8-0.4,1.5v12H174.8z"/>
		<path class="st73" d="M185.8,196.7v-19.1h2.8v19.1H185.8z"/>
		<path class="st73" d="M194.2,196.8c-0.9,0-1.5-0.2-1.9-0.7c-0.4-0.5-0.7-1.1-0.8-1.9c-0.1-0.7-0.2-1.7-0.2-2.7V185
			c0-1.3,0.2-2.4,0.7-3.3s1.3-1.3,2.4-1.3c0.4,0,0.9,0.1,1.2,0.3c0.4,0.2,0.7,0.5,0.9,0.9v-4h2.8v19.1h-2.8v-1.5
			C196.1,196.3,195.3,196.8,194.2,196.8z M194.3,193.9c0.2,0.4,0.5,0.7,0.9,0.7s0.8-0.2,1-0.7c0.2-0.4,0.3-1.2,0.3-2.2v-6.4
			c0-1.3-0.2-2.1-0.6-2.4c-0.2-0.1-0.4-0.2-0.6-0.2c-0.5,0-0.8,0.2-1,0.7c-0.2,0.4-0.2,1.1-0.2,2v6.6
			C194.1,192.8,194.2,193.5,194.3,193.9z"/>
		<path class="st73" d="M202.4,196.7V194h2.4v2.6H202.4z"/>
		<path class="st73" d="M117.3,223.2c-1.8,0-3-0.7-3.5-2.1c-0.3-0.9-0.5-2-0.5-3.5v-6c0-3.3,1.4-4.9,4.1-4.9c1.5,0,2.5,0.4,3,1.3
			c0.6,0.9,0.8,2.1,0.8,3.7v3.4h-5.1v3.2c0,1.1,0.1,1.8,0.3,2.1c0.2,0.3,0.5,0.5,0.9,0.5s0.6-0.1,0.8-0.3c0.2-0.3,0.3-0.6,0.3-1
			c0-0.3,0-0.8,0-1.4v-1.4h2.8v0.9c0,1.5-0.1,2.5-0.3,3.1c-0.2,0.6-0.5,1.1-0.8,1.4C119.5,222.9,118.5,223.2,117.3,223.2z
			 M116.1,213.5h2.3v-2.1c0-0.9-0.1-1.5-0.2-1.9c-0.1-0.4-0.4-0.6-0.9-0.6h0c-0.7,0-1.1,0.6-1.2,1.7c0,0.2,0,0.5,0,0.8V213.5z"/>
		<path class="st73" d="M124,223v-2.6h2.4v2.6H124z"/>
		<path class="st73" d="M131.6,223l-2.9-18.9h2.7l1.2,8.5l0.8,6h0.1l0.7-6l1-8.5h2.7l-2.7,18.9H131.6z"/>
		<path class="st73" d="M139.3,223v-2.6h2.4v2.6H139.3z"/>
	</g>
	<g>
		<g>
			<path class="st73" d="M139.6,120.6c-1,4.3-0.4,8.7-2.4,12.7c-2.8,5.5-7.4,7-12.9,4.3c-3.6-1.8-6.5-4.3-8.7-7.7
				c-2.4-3.8-5.7-5.1-10-4.5c-0.7,0.1-1.5,0.1-2.2,0.2c-5.4,0.7-10.2-0.1-13-5.6c-2.1-4.2-0.6-11.2,3.2-15.4
				c3.4-3.7,7.7-6.2,12.5-7.7c5.7-1.9,11.3-4.1,15.8-8.3c1.8-1.6,3.4-3.5,1.9-5.8c-1.4-2.2-3.9-1.4-5.7-0.6c-3,1.4-5.9,3-8.6,4.8
				c-6.1,3.9-12.4,7.3-19.3,9.3c-7.9,2.3-16.2-1.1-19.1-7.8c-1.5-3.5-1.7-6.9,1.6-9.6c1.1-1,2.1-2.2,3.3-3.1c5.8-4.3,7-9.9,5.3-16.7
				c-2.3-9.5,1.7-16.5,9.9-17.9c5.5-0.9,9.6,1.5,12.9,5.7c3,4,4.9,8.5,6.8,13.2c2,5,3.6,10.3,8.4,13.6c1.7,1.2,3.6,2.5,5.7,0.7
				c2.1-1.8,0.6-3.7-0.2-5.3c-1.9-3.7-4.1-7.2-6.2-10.8c-3.1-5.5-4.7-11.4-4.5-17.7c0.2-5.4,2-10.3,7.3-12.4
				c5.5-2.2,10.3,0.3,14.3,4.1c1.3,1.2,2.2,2.8,3.1,4.4c3.2,5.4,4,5.8,10,4.2c1.6-0.4,3.2-0.9,4.7-1.3c7.7-1.9,12.2,2,11.8,9.9
				c-0.3,7.1-4,12-9.9,15.6c-4.1,2.5-8.3,4.7-12.8,6.5c-2.6,1.1-5.3,2.2-7.1,4.6c-1.1,1.4-2.4,3-0.9,4.8c1.2,1.5,2.9,1.2,4.6,0.6
				c5.3-2.2,10.5-4.4,15.8-6.5c6-2.4,12.3-2.8,18.6-1.7c6.5,1.2,9,5.5,7.1,11.8c-1.1,3.7-3.2,6.8-6.1,9.2c-3.4,2.7-4.4,6.1-4,10.4
				c0.4,3.7,0.7,7.6-0.6,11.2c-3.3,9-14.5,10.6-20.8,3.1c-3.9-4.6-5.8-10.1-8-15.5c-1.2-3-2.1-6.3-4.4-8.8c-0.8-0.9-1.8-1.7-3.1-1.3
				c-1.3,0.5-1.6,1.8-1.6,3c0,1.6,0.1,3.3,0.5,4.9c2.6,8.3,6.3,16.3,12.5,22.3c5.5,5.3,12.4,8.9,20.5,8.9c3,0,6,0.1,9,0.3
				c1.3,0.1,2.7,0.7,2.9,2.3c0.2,1.4-0.7,2.2-1.7,2.9c-1.8,1.3-3.7,1.8-5.9,1.9c-12.6,0.6-21-6.3-28.2-15.6
				C140.9,123.3,140.3,121.9,139.6,120.6z"/>
		</g>
	</g>
</g>
</svg>
