<?xml version="1.0" encoding="utf-8"?>
<!-- Generator: Adobe Illustrator 17.0.0, SVG Export Plug-In . SVG Version: 6.00 Build 0)  -->
<!DOCTYPE svg PUBLIC "-//W3C//DTD SVG 1.1//EN" "http://www.w3.org/Graphics/SVG/1.1/DTD/svg11.dtd" [
	<!ENTITY ns_flows "http://ns.adobe.com/Flows/1.0/">
	<!ENTITY ns_extend "http://ns.adobe.com/Extensibility/1.0/">
	<!ENTITY ns_ai "http://ns.adobe.com/AdobeIllustrator/10.0/">
	<!ENTITY ns_graphs "http://ns.adobe.com/Graphs/1.0/">
]>
<svg version="1.1" id="Layer_2" xmlns:x="&ns_extend;" xmlns:i="&ns_ai;" xmlns:graph="&ns_graphs;"
	 xmlns="http://www.w3.org/2000/svg" xmlns:xlink="http://www.w3.org/1999/xlink" xmlns:a="http://ns.adobe.com/AdobeSVGViewerExtensions/3.0/"
	 x="0px" y="0px" width="256px" height="256px" viewBox="0 0 256 256" style="enable-background:new 0 0 256 256;"
	 xml:space="preserve">
<style type="text/css">
	.st0{fill:#FFFFFF;}
	.st1{fill:#54B948;}
	.st2{fill:#1D8C8E;}
	.st3{fill:#14DEAC;}
	.st4{fill:#1466AC;}
	.st5{fill:#757575;}
	.st6{fill:#B69442;}
	.st7{fill:#1A234D;}
	.st8{fill:#AA0629;}
	.st9{fill:#FF4A49;}
	.st10{fill:#3C6643;}
	.st11{fill:none;stroke:#FF4A49;stroke-miterlimit:10;}
	.st12{fill:#E70084;}
	.st13{fill:#508A72;}
	.st14{fill:#01A663;}
	.st15{fill:#015297;}
	.st16{fill:#B0B0B0;}
	.st17{fill:#E1062F;}
	.st18{fill:#D80000;stroke:#FFFFFF;stroke-width:2;stroke-miterlimit:10;}
	.st19{fill:#D80000;}
	.st20{fill:#8ABE23;}
	.st21{fill:#1D1D1B;}
	.st22{fill:#FEFEFE;}
	.st23{fill:#FF0000;}
	.st24{fill:#FF1D1B;}
	.st25{fill:#6DB2DE;}
	.st26{fill:#FF1D25;}
	.st27{fill:#FFDA00;}
	.st28{fill:#024D9E;}
	.st29{fill:#6B97C6;}
	.st30{fill:#000078;}
	.st31{fill:none;stroke:#FFFFFF;stroke-width:6;stroke-linecap:round;stroke-miterlimit:10;}
	.st32{fill:#FFEE34;}
	.st33{fill:none;stroke:#000000;stroke-width:4;stroke-miterlimit:10;}
	.st34{fill:#D11E24;}
	.st35{fill:#D71F26;}
	.st36{fill:#020000;}
	.st37{fill:none;stroke:#000000;stroke-width:2;stroke-miterlimit:10;}
	.st38{clip-path:url(#SVGID_2_);}
	.st39{fill:#00317D;}
	.st40{fill:#00737D;}
	.st41{fill:#ED1C24;}
	.st42{fill:#2678C7;}
	.st43{fill:#1853A6;}
	.st44{fill:#CB0000;}
	.st45{fill:#E61C21;}
	.st46{clip-path:url(#SVGID_4_);}
	.st47{fill:#6BDEF1;}
	.st48{clip-path:url(#SVGID_6_);}
	.st49{fill:#0165B2;}
	.st50{fill:#DE1134;}
	.st51{fill:#00A668;}
	.st52{fill:#FFE60B;}
	.st53{fill:#843D00;stroke:#000000;stroke-miterlimit:10;}
	.st54{fill:#EC1F27;}
	.st55{fill:#162984;}
	.st56{fill:#1853A6;stroke:#1853A6;stroke-miterlimit:10;}
	.st57{fill:none;}
	.st58{fill:none;stroke:#1853A6;stroke-width:0.9;stroke-miterlimit:10;}
	.st59{fill:#1853A6;stroke:#1853A6;stroke-width:0.9;stroke-miterlimit:10;}
	.st60{fill:#B5985A;}
	.st61{fill:#FFE60B;stroke:#000000;stroke-width:6;stroke-miterlimit:10;}
	.st62{fill:#008DCD;}
	.st63{fill:#009939;}
	.st64{fill:#2E3092;}
	.st65{fill:#EE3224;}
	.st66{fill:#005BAB;}
	.st67{fill:#D30027;}
	.st68{fill:#FFFFFF;stroke:#D30027;stroke-width:10;stroke-miterlimit:10;}
	.st69{fill:#E81C2F;}
	.st70{fill:#DC032B;}
	.st71{fill:#F25448;}
	.st72{fill:#FFFFFF;stroke:#F25448;stroke-width:6;stroke-miterlimit:10;}
	.st73{fill:#05A08D;}
	.st74{fill:#1875CE;}
	.st75{fill:#D72427;}
	.st76{fill:#004993;}
	.st77{fill:#007BB0;}
	.st78{fill:#FFEB00;}
	.st79{fill:#664A9E;}
	.st80{fill:#F4C701;}
	.st81{fill:#EBBE12;}
	.st82{fill:#44B3DB;}
	.st83{fill:#F6FF82;}
	.st84{fill:#FFC918;}
	.st85{fill:#0361A4;}
	.st86{fill:#009FE3;}
	.st87{fill:#E30217;}
	.st88{fill:#FDEA00;}
	.st89{fill:#E91B00;}
	.st90{fill:#2B2763;}
	.st91{fill:#EE1A22;}
	.st92{fill:#F1AA25;}
	.st93{fill:#93000C;}
	.st94{fill:none;stroke:#1D1D1B;stroke-width:4;}
	.st95{fill:#3E4E70;}
	.st96{fill:#096CB6;}
	.st97{fill:#0559A8;}
	.st98{fill:#F9ED1A;}
	.st99{fill:#949494;}
	.st100{fill:#FFD033;}
	.st101{fill:#243D89;}
	.st102{fill:#F8C936;}
	.st103{fill:#D44128;}
	.st104{fill:#ED1B23;}
	.st105{fill:#0C529C;}
	.st106{fill:#E31E24;}
	.st107{fill:#0263B0;}
	.st108{fill:#007AC2;}
	.st109{fill:#EF3D1F;}
	.st110{fill:#EE1C24;}
	.st111{fill:#FDEA00;stroke:#000000;stroke-width:0.6509;}
	.st112{fill:#FDEA00;stroke:#000000;stroke-width:0.6979;}
	.st113{fill:#46A0BE;}
	.st114{fill:#005FA5;}
	.st115{fill:#00904C;}
	.st116{fill:#E21F26;}
	.st117{fill:#FD0001;}
	.st118{fill:#0066B3;}
	.st119{fill:#E20019;}
	.st120{fill:#0171BC;}
	.st121{fill:#01305D;}
	.st122{fill:#1B7EE9;}
	.st123{fill:#BA0D0B;}
	.st124{fill:none;stroke:#000000;stroke-width:3;stroke-miterlimit:10;}
	.st125{fill:#FFFFFF;stroke:#000000;stroke-width:0.8836;stroke-miterlimit:10;}
	.st126{fill:#FFFFFF;stroke:#000000;stroke-width:0.9759;stroke-miterlimit:10;}
	.st127{fill:#0053A1;}
	.st128{fill:#FFE100;}
	.st129{fill:#FFE500;}
	.st130{fill:none;stroke:#FFE500;stroke-width:2;stroke-miterlimit:10;}
	.st131{fill:#01AFF3;}
	.st132{fill:#ED1B28;}
	.st133{fill:#E2000A;}
</style>
<g>
	<g>
		<polygon class="st0" points="6.5,67.5 127.8,6.6 249.3,67.2 249.5,188.5 128.2,249.4 6.7,188.8 		"/>
		<path d="M245,186.2l-116.8,58.7l-117-58.3L11,69.8l116.8-58.7l117,58.3l0.2,116.3 M254,190.8l-0.2-126L127.8,2L2,65.2l0.2,126
			l126,62.8L254,190.8L254,190.8z"/>
	</g>
	<g>
		<polygon class="st54" points="22,76 22.3,126 127,126 127,23.2 		"/>
		<polygon class="st54" points="233.6,176.4 127.6,229 127,228.8 127,126 233.7,126 		"/>
	</g>
	<g>
		<path class="st0" d="M76.3,148.1c-4.6,28.5,14.8,55.5,43.3,60.1s55.5-14.8,60.1-43.3s-14.8-55.5-43.3-60.1S81,119.6,76.3,148.1z"
			/>
		<path class="st54" d="M78.8,148.5c-4.4,27.1,14.1,52.8,41.2,57.2s52.8-14.1,57.2-41.2c4.4-27.1-14.1-52.8-41.2-57.2
			C108.9,102.8,83.2,121.3,78.8,148.5z M123.7,109.1l-7.6,5.4c-7,0.1-12.9,2.2-17.5,4.6C105.7,113.6,114.4,110,123.7,109.1z
			 M159.5,145.9c-1.3,3.6-5.8,15.5-7.9,18.8c-6.9,1-16.4,1.3-22.9,1.3c0-0.1,0.1-0.1,0.1-0.2c-4.4-3.2-16.5-18.7-16.5-18.7
			s-0.1,0-0.2,0c2.2-5.9,6.2-15.3,11.1-21.2c9.6-0.5,16.9,0,20.8,0.4C146.6,128.8,155.1,137.6,159.5,145.9z M159.5,179.7
			c-4.5,9-11.8,15.5-15.5,18.3c-4.8,0.7-15.7,1.1-20.5,0.5c-2.2-2.9-6.1-8.2-9.2-14.1c1.3-1.5,9.8-11.8,13.4-16.9
			c6.3,0,16-0.2,23.3-1.2C151.9,167.6,158,176.4,159.5,179.7z M121.6,125.6c-5.2,6.5-9.2,16.3-11.3,22c-4,0.9-13.3,3-17.8,4.9
			c-2.7-4.2-4.8-8.4-6-11c0.4-2.1,1.4-8.2,3-12.8c0.8-1.1,1.7-2.2,2.6-3.3c3.9-3.2,11.6-8.4,22-9.1L121.6,125.6z M83.1,141l1.9,0.6
			c1.3,2.9,3.9,8,7.1,12.9c-0.2,5.3,0.5,16.3,0.8,20c-2.8,2.4-4.9,4.6-5.9,5.7c-5.4-9.2-7.7-20.2-5.9-31.6
			C81.5,146.1,82.2,143.5,83.1,141z M87.8,181.8c0.8-0.9,2.8-3,5.5-5.5c2.9,2.5,14.5,6.4,19,7.8c3,5.9,6.8,11.4,9.3,14.6
			c-1.7,1.5-5.3,2.5-7.7,3.1C102.8,198.4,93.7,191.1,87.8,181.8z M148.5,199.3c-0.6-0.3-1.4-0.7-2.1-1.2c4.2-3.5,10.9-9.9,14.9-18.7
			c3.4-2,8.5-4.8,11.5-7.3C168.6,184.3,159.7,193.9,148.5,199.3z M174.8,148.2c-3.7-0.8-10.8-2.3-13.8-2.9
			c-3.9-7.5-10.9-15.1-14.4-18.7c0.4,0.1,0.6,0.1,0.6,0.1s2.2-8.2,3.1-12.2C163.1,121.3,172.2,133.8,174.8,148.2z"/>
	</g>
	<g>
		<path d="M51.1,61.2h18.2v3.7H55.5V76h12.7v3.6H55.5v15.3h-4.4V61.2z"/>
		<path d="M99,93.8c-1.5,0.8-4.8,1.6-8.9,1.6c-9.5,0-16.6-6-16.6-17.1c0-10.6,7.2-17.7,17.6-17.7c4.2,0,6.9,0.9,8,1.5L98,65.7
			c-1.6-0.8-4-1.4-6.8-1.4c-7.9,0-13.2,5.1-13.2,13.9c0,8.3,4.8,13.5,12.9,13.5c2.7,0,5.4-0.5,7.2-1.4L99,93.8z"/>
		<path d="M103.8,61.7c2.5-0.4,6.4-0.8,10.9-0.8c5.2,0,8.9,0.7,11.4,2.7c2.2,1.6,3.3,4.1,3.3,7.3c0,4.2-3.2,7.2-5.8,8.2v0.1
			c2.2,1,3.5,3.2,4.3,6.1c1,3.5,2.1,8.4,2.8,9.7h-9.2c-0.5-1-1.4-3.6-2.4-7.8c-0.9-4-2.2-4.9-5-4.9h-1.5v12.7h-9V61.7z M112.7,75.7
			h2.4c3.4,0,5.3-1.6,5.3-4.1c0-2.5-1.6-4-4.7-4c-1.7,0-2.6,0.1-3,0.2V75.7z"/>
		<path d="M139.3,94.9l-7.8-33.7h9.7l2,12.5c0.6,3.9,1.2,8.4,1.7,11.9h0.1c0.5-3.8,1.2-7.9,2-12l2.2-12.4h9.7l2.1,13
			c0.6,3.9,1.1,7.4,1.5,11.2h0.1c0.5-3.8,1.1-7.8,1.7-11.8l2-12.4h9.2L167,94.9h-9.9l-2.2-13.2c-0.5-3-1-6.1-1.4-10.1h-0.1
			c-0.5,4-1,7.2-1.6,10.1l-2.6,13.2H139.3z"/>
		<path d="M200.3,81.3h-12.1v6.2h13.6v7.4h-22.6V61.2h21.9v7.4h-12.9V74h12.1V81.3z"/>
	</g>
</g>
</svg>
