<?xml version="1.0" encoding="utf-8"?>
<!-- Generator: Adobe Illustrator 17.0.0, SVG Export Plug-In . SVG Version: 6.00 Build 0)  -->
<!DOCTYPE svg PUBLIC "-//W3C//DTD SVG 1.1//EN" "http://www.w3.org/Graphics/SVG/1.1/DTD/svg11.dtd" [
	<!ENTITY ns_flows "http://ns.adobe.com/Flows/1.0/">
	<!ENTITY ns_extend "http://ns.adobe.com/Extensibility/1.0/">
	<!ENTITY ns_ai "http://ns.adobe.com/AdobeIllustrator/10.0/">
	<!ENTITY ns_graphs "http://ns.adobe.com/Graphs/1.0/">
]>
<svg version="1.1" id="Layer_2" xmlns:x="&ns_extend;" xmlns:i="&ns_ai;" xmlns:graph="&ns_graphs;"
	 xmlns="http://www.w3.org/2000/svg" xmlns:xlink="http://www.w3.org/1999/xlink" xmlns:a="http://ns.adobe.com/AdobeSVGViewerExtensions/3.0/"
	 x="0px" y="0px" width="256px" height="256px" viewBox="0 0 256 256" style="enable-background:new 0 0 256 256;"
	 xml:space="preserve">
<style type="text/css">
	.st0{fill:#FFFFFF;}
	.st1{fill:#54B948;}
	.st2{fill:#1D8C8E;}
	.st3{fill:#14DEAC;}
	.st4{fill:#1466AC;}
	.st5{fill:#757575;}
	.st6{fill:#B69442;}
	.st7{fill:#1A234D;}
	.st8{fill:#AA0629;}
	.st9{fill:#FF4A49;}
	.st10{fill:#3C6643;}
	.st11{fill:none;stroke:#FF4A49;stroke-miterlimit:10;}
	.st12{fill:#E70084;}
	.st13{fill:#508A72;}
	.st14{fill:#01A663;}
	.st15{fill:#015297;}
	.st16{fill:#B0B0B0;}
	.st17{fill:#E1062F;}
	.st18{fill:#D80000;stroke:#FFFFFF;stroke-width:2;stroke-miterlimit:10;}
	.st19{fill:#D80000;}
	.st20{fill:#8ABE23;}
	.st21{fill:#1D1D1B;}
	.st22{fill:#FEFEFE;}
	.st23{fill:#FF0000;}
	.st24{fill:#FF1D1B;}
	.st25{fill:#6DB2DE;}
	.st26{fill:#FF1D25;}
	.st27{fill:#FFDA00;}
	.st28{fill:#024D9E;}
	.st29{fill:#6B97C6;}
	.st30{fill:#000078;}
	.st31{fill:none;stroke:#FFFFFF;stroke-width:6;stroke-linecap:round;stroke-miterlimit:10;}
	.st32{fill:#FFEE34;}
	.st33{fill:none;stroke:#000000;stroke-width:4;stroke-miterlimit:10;}
	.st34{fill:#D11E24;}
	.st35{fill:#D71F26;}
	.st36{fill:#020000;}
	.st37{fill:none;stroke:#000000;stroke-width:2;stroke-miterlimit:10;}
	.st38{clip-path:url(#SVGID_2_);}
	.st39{fill:#00317D;}
	.st40{fill:#00737D;}
	.st41{fill:#ED1C24;}
	.st42{fill:#2678C7;}
	.st43{fill:#1853A6;}
	.st44{fill:#CB0000;}
	.st45{fill:#E61C21;}
	.st46{clip-path:url(#SVGID_4_);}
	.st47{fill:#6BDEF1;}
	.st48{clip-path:url(#SVGID_6_);}
	.st49{fill:#0165B2;}
	.st50{fill:#DE1134;}
	.st51{fill:#00A668;}
	.st52{fill:#FFE60B;}
	.st53{fill:#843D00;stroke:#000000;stroke-miterlimit:10;}
	.st54{fill:#EC1F27;}
	.st55{fill:#162984;}
	.st56{fill:#1853A6;stroke:#1853A6;stroke-miterlimit:10;}
	.st57{fill:none;}
	.st58{fill:none;stroke:#1853A6;stroke-width:0.9;stroke-miterlimit:10;}
	.st59{fill:#1853A6;stroke:#1853A6;stroke-width:0.9;stroke-miterlimit:10;}
	.st60{fill:#B5985A;}
	.st61{fill:#FFE60B;stroke:#000000;stroke-width:6;stroke-miterlimit:10;}
	.st62{fill:#008DCD;}
	.st63{fill:#009939;}
	.st64{fill:#2E3092;}
	.st65{fill:#EE3224;}
	.st66{fill:#005BAB;}
	.st67{fill:#D30027;}
	.st68{fill:#FFFFFF;stroke:#D30027;stroke-width:10;stroke-miterlimit:10;}
	.st69{fill:#E81C2F;}
	.st70{fill:#DC032B;}
	.st71{fill:#F25448;}
	.st72{fill:#FFFFFF;stroke:#F25448;stroke-width:6;stroke-miterlimit:10;}
	.st73{fill:#05A08D;}
	.st74{fill:#1875CE;}
	.st75{fill:#D72427;}
	.st76{fill:#004993;}
	.st77{fill:#007BB0;}
	.st78{fill:#FFEB00;}
	.st79{fill:#664A9E;}
	.st80{fill:#F4C701;}
	.st81{fill:#EBBE12;}
	.st82{fill:#44B3DB;}
	.st83{fill:#F6FF82;}
	.st84{fill:#FFC918;}
	.st85{fill:#0361A4;}
	.st86{fill:#009FE3;}
	.st87{fill:#E30217;}
	.st88{fill:#FDEA00;}
	.st89{fill:#E91B00;}
	.st90{fill:#2B2763;}
	.st91{fill:#EE1A22;}
	.st92{fill:#F1AA25;}
	.st93{fill:#93000C;}
	.st94{fill:none;stroke:#1D1D1B;stroke-width:4;}
	.st95{fill:#3E4E70;}
	.st96{fill:#096CB6;}
	.st97{fill:#0559A8;}
	.st98{fill:#F9ED1A;}
	.st99{fill:#949494;}
	.st100{fill:#FFD033;}
	.st101{fill:#243D89;}
	.st102{fill:#F8C936;}
	.st103{fill:#D44128;}
	.st104{fill:#ED1B23;}
	.st105{fill:#0C529C;}
	.st106{fill:#E31E24;}
	.st107{fill:#0263B0;}
	.st108{fill:#007AC2;}
	.st109{fill:#EF3D1F;}
	.st110{fill:#EE1C24;}
	.st111{fill:#FDEA00;stroke:#000000;stroke-width:0.6509;}
	.st112{fill:#FDEA00;stroke:#000000;stroke-width:0.6979;}
	.st113{fill:#46A0BE;}
	.st114{fill:#005FA5;}
	.st115{fill:#00904C;}
	.st116{fill:#E21F26;}
	.st117{fill:#FD0001;}
	.st118{fill:#0066B3;}
	.st119{fill:#E20019;}
	.st120{fill:#0171BC;}
	.st121{fill:#01305D;}
	.st122{fill:#1B7EE9;}
	.st123{fill:#BA0D0B;}
	.st124{fill:none;stroke:#000000;stroke-width:3;stroke-miterlimit:10;}
	.st125{fill:#FFFFFF;stroke:#000000;stroke-width:0.8836;stroke-miterlimit:10;}
	.st126{fill:#FFFFFF;stroke:#000000;stroke-width:0.9759;stroke-miterlimit:10;}
	.st127{fill:#0053A1;}
	.st128{fill:#FFE100;}
	.st129{fill:#FFE500;}
	.st130{fill:none;stroke:#FFE500;stroke-width:2;stroke-miterlimit:10;}
	.st131{fill:#01AFF3;}
	.st132{fill:#ED1B28;}
	.st133{fill:#E2000A;}
</style>
<g>
	<g>
		<polygon class="st0" points="81.5,247 9,174.8 9,76.1 81.3,9 180.4,9 247,76 247,175 180.2,247 		"/>
		<path class="st55" d="M177.2,16L240,78.9v93.4L177.2,240H84.4L16,171.9V79.2L84.1,16H177 M183.3,2H78.6L2,73.1v104.7L78.6,254
			h104.7l70.7-76.2V73.1L183.3,2L183.3,2z"/>
	</g>
	<g>
		<polygon class="st55" points="88.4,229 27,167.9 27,84 88.4,27 172.3,27 229,84 229,167.9 172.3,229 		"/>
	</g>
	<g>
		<g>
			<polygon class="st0" points="129.2,209.8 108,194.1 115.6,183.9 128.8,193.7 138.2,186.1 136.3,140.6 108.7,121.4 107.5,64.3 
				128.9,46.2 148.7,62.2 140.6,72.1 129.1,62.7 120.3,70.1 121.3,114.7 148.8,133.7 151.1,192 			"/>
		</g>
		<g>
			<polygon class="st0" points="186.7,93.4 171,143 171,80.3 158,69.9 158,186.8 174.2,173.7 197.2,102 			"/>
		</g>
		<g>
			<polygon class="st0" points="80.8,173.8 80.8,173.8 80.8,173.8 			"/>
			<polygon class="st0" points="102,66 80.5,132.4 59,66 59,157.5 72,167.2 72,146.7 80.8,173.8 81,173.8 90,146.7 90,180.4 
				102,190 			"/>
		</g>
	</g>
	<g>
		<path class="st0" d="M155.5,209.9L155.5,209.9l-2.5,5.9l-3.9-2l3.5-8.1l4.2-4.5l18,16.8l-4.8,5.2L155.5,209.9z"/>
		<path class="st0" d="M178.2,208.4c0.7-0.7,1.3-1.3,2.1-2.4c1.3-1.5,2.3-3.4,2.8-5.2c0.5-2.1,0.2-4.2-0.8-6l-0.1,0
			c-0.1,1.7-1,3.6-2.8,5.5c-3.5,3.8-8.5,4.9-12,1.7c-3.4-3.2-3.3-9.4,1.4-14.4c5.3-5.6,11.2-5.2,15.4-1.2c3.8,3.6,5.1,7.8,4.6,11.9
			c-0.4,3.4-2.3,7-5.2,10.4c-0.7,1-1.6,1.8-2.2,2.4L178.2,208.4z M171.6,190.7c-1.6,1.7-1.5,4.1,0.5,5.9c1.6,1.5,3.9,1.8,5.8-0.2
			c1.2-1.3,1.6-2.8,1.4-3.7c-0.1-0.4-0.4-0.8-1.1-1.5C176.2,189.2,173.6,188.6,171.6,190.7L171.6,190.7z"/>
		<path class="st0" d="M187.3,175.8L187.3,175.8l-2.5,5.9l-3.9-2l3.5-8.1l4.2-4.5l18,16.8l-4.8,5.2L187.3,175.8z"/>
		<path class="st0" d="M211.4,178.9l-2.5-2.4l0.5-4.8c0.9-7.7,1.1-12.3-1.1-14.4c-1.5-1.4-3.6-1.3-6,1.2c-1.8,1.9-2.6,4.2-3,5.9
			l-4.2-1.4c0.6-2.4,2.2-5.7,4.9-8.5c5-5.3,9.8-5.6,12.9-2.8c3.1,2.9,3,8.1,2.3,13.5l-0.5,3.2l0.1,0.1l7.9-8.5l3.4,3.2L211.4,178.9z
			"/>
	</g>
</g>
</svg>
