<?xml version="1.0" encoding="utf-8"?>
<!-- Generator: Adobe Illustrator 17.0.0, SVG Export Plug-In . SVG Version: 6.00 Build 0)  -->
<!DOCTYPE svg PUBLIC "-//W3C//DTD SVG 1.1//EN" "http://www.w3.org/Graphics/SVG/1.1/DTD/svg11.dtd" [
	<!ENTITY ns_flows "http://ns.adobe.com/Flows/1.0/">
	<!ENTITY ns_extend "http://ns.adobe.com/Extensibility/1.0/">
	<!ENTITY ns_ai "http://ns.adobe.com/AdobeIllustrator/10.0/">
	<!ENTITY ns_graphs "http://ns.adobe.com/Graphs/1.0/">
]>
<svg version="1.1" id="Layer_2" xmlns:x="&ns_extend;" xmlns:i="&ns_ai;" xmlns:graph="&ns_graphs;"
	 xmlns="http://www.w3.org/2000/svg" xmlns:xlink="http://www.w3.org/1999/xlink" xmlns:a="http://ns.adobe.com/AdobeSVGViewerExtensions/3.0/"
	 x="0px" y="0px" width="256px" height="256px" viewBox="0 0 256 256" style="enable-background:new 0 0 256 256;"
	 xml:space="preserve">
<style type="text/css">
	.st0{fill:#FFFFFF;}
	.st1{fill:#54B948;}
	.st2{fill:#1D8C8E;}
	.st3{fill:#14DEAC;}
	.st4{fill:#1466AC;}
	.st5{fill:#757575;}
	.st6{fill:#B69442;}
	.st7{fill:#1A234D;}
	.st8{fill:#AA0629;}
	.st9{fill:#FF4A49;}
	.st10{fill:#3C6643;}
	.st11{fill:none;stroke:#FF4A49;stroke-miterlimit:10;}
	.st12{fill:#E70084;}
	.st13{fill:#508A72;}
	.st14{fill:#01A663;}
	.st15{fill:#015297;}
	.st16{fill:#B0B0B0;}
	.st17{fill:#E1062F;}
	.st18{fill:#D80000;stroke:#FFFFFF;stroke-width:2;stroke-miterlimit:10;}
	.st19{fill:#D80000;}
	.st20{fill:#8ABE23;}
	.st21{fill:#1D1D1B;}
	.st22{fill:#FEFEFE;}
	.st23{fill:#FF0000;}
	.st24{fill:#FF1D1B;}
	.st25{fill:#6DB2DE;}
	.st26{fill:#FF1D25;}
	.st27{fill:#FFDA00;}
	.st28{fill:#024D9E;}
	.st29{fill:#6B97C6;}
	.st30{fill:#000078;}
	.st31{fill:none;stroke:#FFFFFF;stroke-width:6;stroke-linecap:round;stroke-miterlimit:10;}
	.st32{fill:#FFEE34;}
	.st33{fill:none;stroke:#000000;stroke-width:4;stroke-miterlimit:10;}
	.st34{fill:#D11E24;}
	.st35{fill:#D71F26;}
	.st36{fill:#020000;}
	.st37{fill:none;stroke:#000000;stroke-width:2;stroke-miterlimit:10;}
	.st38{clip-path:url(#SVGID_2_);}
	.st39{fill:#00317D;}
	.st40{fill:#00737D;}
	.st41{fill:#ED1C24;}
	.st42{fill:#2678C7;}
	.st43{fill:#1853A6;}
	.st44{fill:#CB0000;}
	.st45{fill:#E61C21;}
	.st46{clip-path:url(#SVGID_4_);}
	.st47{fill:#6BDEF1;}
	.st48{clip-path:url(#SVGID_6_);}
	.st49{fill:#0165B2;}
	.st50{fill:#DE1134;}
	.st51{fill:#00A668;}
	.st52{fill:#FFE60B;}
	.st53{fill:#843D00;stroke:#000000;stroke-miterlimit:10;}
	.st54{fill:#EC1F27;}
	.st55{fill:#162984;}
	.st56{fill:#1853A6;stroke:#1853A6;stroke-miterlimit:10;}
	.st57{fill:none;}
	.st58{fill:none;stroke:#1853A6;stroke-width:0.9;stroke-miterlimit:10;}
	.st59{fill:#1853A6;stroke:#1853A6;stroke-width:0.9;stroke-miterlimit:10;}
	.st60{fill:#B5985A;}
	.st61{fill:#FFE60B;stroke:#000000;stroke-width:6;stroke-miterlimit:10;}
	.st62{fill:#008DCD;}
	.st63{fill:#009939;}
	.st64{fill:#2E3092;}
	.st65{fill:#EE3224;}
	.st66{fill:#005BAB;}
	.st67{fill:#D30027;}
	.st68{fill:#FFFFFF;stroke:#D30027;stroke-width:10;stroke-miterlimit:10;}
	.st69{fill:#E81C2F;}
	.st70{fill:#DC032B;}
	.st71{fill:#F25448;}
	.st72{fill:#FFFFFF;stroke:#F25448;stroke-width:6;stroke-miterlimit:10;}
	.st73{fill:#05A08D;}
	.st74{fill:#1875CE;}
	.st75{fill:#D72427;}
	.st76{fill:#004993;}
	.st77{fill:#007BB0;}
	.st78{fill:#FFEB00;}
	.st79{fill:#664A9E;}
	.st80{fill:#F4C701;}
	.st81{fill:#EBBE12;}
	.st82{fill:#44B3DB;}
	.st83{fill:#F6FF82;}
	.st84{fill:#FFC918;}
	.st85{fill:#0361A4;}
	.st86{fill:#009FE3;}
	.st87{fill:#E30217;}
	.st88{fill:#FDEA00;}
	.st89{fill:#E91B00;}
	.st90{fill:#2B2763;}
	.st91{fill:#EE1A22;}
	.st92{fill:#F1AA25;}
	.st93{fill:#93000C;}
	.st94{fill:none;stroke:#1D1D1B;stroke-width:4;}
	.st95{fill:#3E4E70;}
	.st96{fill:#096CB6;}
	.st97{fill:#0559A8;}
	.st98{fill:#F9ED1A;}
	.st99{fill:#949494;}
	.st100{fill:#FFD033;}
	.st101{fill:#243D89;}
	.st102{fill:#F8C936;}
	.st103{fill:#D44128;}
	.st104{fill:#ED1B23;}
	.st105{fill:#0C529C;}
	.st106{fill:#E31E24;}
	.st107{fill:#0263B0;}
	.st108{fill:#007AC2;}
	.st109{fill:#EF3D1F;}
	.st110{fill:#EE1C24;}
	.st111{fill:#FDEA00;stroke:#000000;stroke-width:0.6509;}
	.st112{fill:#FDEA00;stroke:#000000;stroke-width:0.6979;}
	.st113{fill:#46A0BE;}
	.st114{fill:#005FA5;}
	.st115{fill:#00904C;}
	.st116{fill:#E21F26;}
	.st117{fill:#FD0001;}
	.st118{fill:#0066B3;}
	.st119{fill:#E20019;}
	.st120{fill:#0171BC;}
	.st121{fill:#01305D;}
	.st122{fill:#1B7EE9;}
	.st123{fill:#BA0D0B;}
	.st124{fill:none;stroke:#000000;stroke-width:3;stroke-miterlimit:10;}
	.st125{fill:#FFFFFF;stroke:#000000;stroke-width:0.8836;stroke-miterlimit:10;}
	.st126{fill:#FFFFFF;stroke:#000000;stroke-width:0.9759;stroke-miterlimit:10;}
	.st127{fill:#0053A1;}
	.st128{fill:#FFE100;}
	.st129{fill:#FFE500;}
	.st130{fill:none;stroke:#FFE500;stroke-width:2;stroke-miterlimit:10;}
	.st131{fill:#01AFF3;}
	.st132{fill:#ED1B28;}
	.st133{fill:#E2000A;}
</style>
<g>
	<polygon class="st34" points="60.7,254 1,128 1,2 190,2 253,128 253,254 	"/>
	<g>
		<path class="st0" d="M88.3,231.1l-1.8,8h-9.4l9.6-36h12l9.5,36h-9.7l-2-8H88.3z M95.4,224.2l-1.4-6.6c-0.5-2-1.1-5.3-1.5-7.4h-0.1
			c-0.5,2.1-1.1,5.4-1.5,7.4l-1.4,6.6H95.4z"/>
		<path class="st0" d="M121.8,203.1v13.6h10v-13.6h9.2v36h-9.2v-14.3h-10v14.3h-9.2v-36H121.8z"/>
		<path class="st0" d="M147.5,203.1h9.2v28.2h12.3v7.7h-21.6V203.1z"/>
		<path class="st0" d="M194.2,224.3h-11.4v7.1h12.8v7.6h-22v-36h21.3v7.6h-12.1v6.1h11.4V224.3z"/>
		<path class="st0" d="M200.8,239.1v-36H211l5.6,11.6c1.6,3.1,3.6,7.9,5,11.7h0.2c-0.4-4.2-0.7-9.8-0.7-15.6v-7.7h8.3v36h-9.4
			l-5.7-12c-1.7-3.5-3.8-8.3-5.2-12.2h-0.2c0.2,4.3,0.4,9.9,0.4,16.1v8.1H200.8z"/>
	</g>
	<path class="st0" d="M174.5,2L1,2v107.5c0,0,58,48.9,70.9,61c13.7,12.8,33.3,21.7,53.5,21.7c38.8,0,70.4-31.6,70.4-70.4
		S174.5,2,174.5,2z"/>
	<path class="st34" d="M121.9,52.3c-35.3,0-64,28.7-64,64s28.7,64,64,64s64-28.7,64-64S157.2,52.3,121.9,52.3z M181,101.1l-8.5-8.5
		c-1.6-8.8-5.4-15.9-9.4-21.2C171.7,79.2,178,89.5,181,101.1z M141.8,154.1c-4.8-0.9-20.8-4.1-25.4-6.1c-2.7-8.5-5-20.5-6.4-28.8
		c0.1,0,0.2,0.1,0.2,0.1c3.1-6.2,20.2-24.8,20.2-24.8s0-0.1-0.1-0.2c7.9,1.6,20.6,4.7,29.1,9.8c2.6,12.1,3.5,21.5,3.8,26.4
		C160.8,134.2,151.4,146.8,141.8,154.1z M98.9,160.9c-12.3-3.8-22.1-11.8-26.4-15.8c-1.9-6-4.6-19.7-4.9-25.9
		c3.2-3.4,9.1-9.4,16-14.6c2.2,1.3,16.9,9.9,24.2,13.5c1.3,8,3.5,20.2,6.3,29.3C112.7,148.9,102.8,158.5,98.9,160.9z M159.7,101.8
		c-9.3-5.3-22.5-8.3-30.1-9.7c-1.9-4.9-6.5-16.2-9.8-21.5c4.8-4.2,9.6-7.7,12.7-9.9c2.8,0,10.7,0.1,16.8,1.1
		c1.6,0.8,3.2,1.7,4.7,2.6c4.9,4.2,13,12.9,16.1,26L159.7,101.8z M132.2,56.2l-0.4,2.5c-3.4,2.3-9.3,6.5-14.9,11.7
		c-6.8,0.9-20.5,4-25.2,5.1c-3.6-3-6.8-5.2-8.5-6.3c10.5-8.7,24.1-13.9,38.8-13.9C125.4,55.3,128.9,55.6,132.2,56.2z M81.6,70.6
		c1.3,0.8,4.4,2.9,8,5.9c-2.6,4.1-5.1,19.7-5.9,25.7c-6.9,5-13,11-16.6,14.8c-2.3-1.9-4.3-6.2-5.5-9.1C63.6,93.1,70.9,80,81.6,70.6z
		 M71.9,151.1c0.2-0.8,0.6-1.9,1-2.9c5.3,4.6,14.8,11.7,26.8,15c3.2,3.9,7.8,9.8,11.7,13.1C95.1,173.5,81,164.2,71.9,151.1z
		 M142.1,173.9c0.2-4.8,0.7-14.1,0.8-18.1c8.6-6.5,16.9-16.9,20.7-22.1c0,0.5,0,0.8,0,0.8s10.9,1.1,16.1,1.3
		C173.7,153.6,159.7,167.7,142.1,173.9z"/>
	<g>
		<path class="st34" d="M15.9,19.5c1.6-0.3,4-0.5,6.7-0.5c3.2,0,5.6,0.4,7.3,1.7c1.4,1.2,2.1,2.7,2.1,4.9c0,2.6-1.8,4.7-3.7,5.5v0.1
			c1.5,0.6,2.3,2,2.8,4.1c0.6,2.3,1.3,5.5,1.8,6.4h-5.9c-0.3-0.6-0.9-2.6-1.4-5.2c-0.5-2.7-1.3-3.3-2.9-3.3h-0.8v8.5h-5.7V19.5z
			 M21.6,29h1.3c2.1,0,3.3-1.2,3.3-2.9c0-1.7-1-2.7-2.9-2.7c-0.9,0-1.4,0-1.7,0.1V29z"/>
		<path class="st34" d="M44,42.1c-6.6,0-9.8-5.4-9.8-11.5c0-6.3,3.7-11.7,10.2-11.7c6.9,0,9.9,5.8,9.9,11.3
			C54.1,37.8,50.2,42.1,44,42.1L44,42.1z M44.2,37.4c2.5,0,3.9-2.8,3.9-7c0-3.9-1.4-6.8-3.9-6.8c-2.5,0-4,2.9-3.9,6.9
			C40.2,34.6,41.7,37.4,44.2,37.4L44.2,37.4z"/>
		<path class="st34" d="M60.3,24.2h-5.2v-5h16.2v5h-5.3v17.5h-5.8V24.2z"/>
		<path class="st34" d="M82.5,41.8l-4.7-22.5h6.1l1.1,8.3c0.3,2.6,0.7,5.4,1,7.9h0.1c0.3-2.6,0.8-5.2,1.3-8l1.4-8.2h5.8l1.3,8.5
			c0.4,2.5,0.7,4.9,1,7.6H97c0.3-2.6,0.6-5.2,1-7.9l1.1-8.2h5.8l-5,22.5h-6.2l-1.3-7.9c-0.3-2-0.6-4.2-0.9-7h-0.1
			c-0.4,2.7-0.7,4.9-1.1,7l-1.6,7.9H82.5z"/>
		<path class="st34" d="M120.4,32.5h-7.2V37h8v4.8h-13.8V19.2h13.3V24h-7.6v3.8h7.2V32.5z"/>
		<path class="st34" d="M130.3,19.2v22.5h-5.8V19.2H130.3z"/>
		<path class="st34" d="M134.5,36c1.2,0.6,3.3,1.2,5.2,1.2c2,0,3-0.8,3-1.9c0-1.2-1-1.8-3.4-2.8c-3.7-1.6-5.7-3.8-5.7-6.6
			c0-3.9,3.1-7,8.6-7c2.3,0,4.1,0.5,5.4,1l-1.1,4.7c-0.9-0.4-2.3-1-4.3-1c-1.8,0-2.8,0.7-2.8,1.7c0,1.1,1,1.6,3.7,2.8
			c3.8,1.5,5.3,3.8,5.3,6.7c0,4-3.1,7.1-9.1,7.1c-2.5,0-4.9-0.6-6-1.2L134.5,36z"/>
		<path class="st34" d="M151.7,36c1.2,0.6,3.3,1.2,5.2,1.2c2,0,3-0.8,3-1.9c0-1.2-1-1.8-3.4-2.8c-3.7-1.6-5.7-3.8-5.7-6.6
			c0-3.9,3.1-7,8.6-7c2.3,0,4.1,0.5,5.4,1l-1.1,4.7c-0.9-0.4-2.3-1-4.3-1c-1.8,0-2.8,0.7-2.8,1.7c0,1.1,1,1.6,3.7,2.8
			c3.8,1.5,5.3,3.8,5.3,6.7c0,4-3.1,7.1-9.1,7.1c-2.5,0-4.9-0.6-6-1.2L151.7,36z"/>
	</g>
</g>
</svg>
