<?xml version="1.0" encoding="utf-8"?>
<!-- Generator: Adobe Illustrator 17.0.0, SVG Export Plug-In . SVG Version: 6.00 Build 0)  -->
<!DOCTYPE svg PUBLIC "-//W3C//DTD SVG 1.1//EN" "http://www.w3.org/Graphics/SVG/1.1/DTD/svg11.dtd" [
	<!ENTITY ns_flows "http://ns.adobe.com/Flows/1.0/">
	<!ENTITY ns_extend "http://ns.adobe.com/Extensibility/1.0/">
	<!ENTITY ns_ai "http://ns.adobe.com/AdobeIllustrator/10.0/">
	<!ENTITY ns_graphs "http://ns.adobe.com/Graphs/1.0/">
]>
<svg version="1.1" id="Layer_2" xmlns:x="&ns_extend;" xmlns:i="&ns_ai;" xmlns:graph="&ns_graphs;"
	 xmlns="http://www.w3.org/2000/svg" xmlns:xlink="http://www.w3.org/1999/xlink" xmlns:a="http://ns.adobe.com/AdobeSVGViewerExtensions/3.0/"
	 x="0px" y="0px" width="256px" height="256px" viewBox="0 0 256 256" style="enable-background:new 0 0 256 256;"
	 xml:space="preserve">
<style type="text/css">
	.st0{fill:#FFFFFF;}
	.st1{fill:#54B948;}
	.st2{fill:#1D8C8E;}
	.st3{fill:#14DEAC;}
	.st4{fill:#1466AC;}
	.st5{fill:#757575;}
	.st6{fill:#B69442;}
	.st7{fill:#1A234D;}
	.st8{fill:#AA0629;}
	.st9{fill:#FF4A49;}
	.st10{fill:#3C6643;}
	.st11{fill:none;stroke:#FF4A49;stroke-miterlimit:10;}
	.st12{fill:#E70084;}
	.st13{fill:#508A72;}
	.st14{fill:#01A663;}
	.st15{fill:#015297;}
	.st16{fill:#B0B0B0;}
	.st17{fill:#E1062F;}
	.st18{fill:#D80000;stroke:#FFFFFF;stroke-width:2;stroke-miterlimit:10;}
	.st19{fill:#D80000;}
	.st20{fill:#8ABE23;}
	.st21{fill:#1D1D1B;}
	.st22{fill:#FEFEFE;}
	.st23{fill:#FF0000;}
	.st24{fill:#FF1D1B;}
	.st25{fill:#6DB2DE;}
	.st26{fill:#FF1D25;}
	.st27{fill:#FFDA00;}
	.st28{fill:#024D9E;}
	.st29{fill:#6B97C6;}
	.st30{fill:#000078;}
	.st31{fill:none;stroke:#FFFFFF;stroke-width:6;stroke-linecap:round;stroke-miterlimit:10;}
	.st32{fill:#FFEE34;}
	.st33{fill:none;stroke:#000000;stroke-width:4;stroke-miterlimit:10;}
	.st34{fill:#D11E24;}
	.st35{fill:#D71F26;}
	.st36{fill:#020000;}
	.st37{fill:none;stroke:#000000;stroke-width:2;stroke-miterlimit:10;}
	.st38{clip-path:url(#SVGID_2_);}
	.st39{fill:#00317D;}
	.st40{fill:#00737D;}
	.st41{fill:#ED1C24;}
	.st42{fill:#2678C7;}
	.st43{fill:#1853A6;}
	.st44{fill:#CB0000;}
	.st45{fill:#E61C21;}
	.st46{clip-path:url(#SVGID_4_);}
	.st47{fill:#6BDEF1;}
	.st48{clip-path:url(#SVGID_6_);}
	.st49{fill:#0165B2;}
	.st50{fill:#DE1134;}
	.st51{fill:#00A668;}
	.st52{fill:#FFE60B;}
	.st53{fill:#843D00;stroke:#000000;stroke-miterlimit:10;}
	.st54{fill:#EC1F27;}
	.st55{fill:#162984;}
	.st56{fill:#1853A6;stroke:#1853A6;stroke-miterlimit:10;}
	.st57{fill:none;}
	.st58{fill:none;stroke:#1853A6;stroke-width:0.9;stroke-miterlimit:10;}
	.st59{fill:#1853A6;stroke:#1853A6;stroke-width:0.9;stroke-miterlimit:10;}
	.st60{fill:#B5985A;}
	.st61{fill:#FFE60B;stroke:#000000;stroke-width:6;stroke-miterlimit:10;}
	.st62{fill:#008DCD;}
	.st63{fill:#009939;}
	.st64{fill:#2E3092;}
	.st65{fill:#EE3224;}
	.st66{fill:#005BAB;}
	.st67{fill:#D30027;}
	.st68{fill:#FFFFFF;stroke:#D30027;stroke-width:10;stroke-miterlimit:10;}
	.st69{fill:#E81C2F;}
	.st70{fill:#DC032B;}
	.st71{fill:#F25448;}
	.st72{fill:#FFFFFF;stroke:#F25448;stroke-width:6;stroke-miterlimit:10;}
	.st73{fill:#05A08D;}
	.st74{fill:#1875CE;}
	.st75{fill:#D72427;}
	.st76{fill:#004993;}
	.st77{fill:#007BB0;}
	.st78{fill:#FFEB00;}
	.st79{fill:#664A9E;}
	.st80{fill:#F4C701;}
	.st81{fill:#EBBE12;}
	.st82{fill:#44B3DB;}
	.st83{fill:#F6FF82;}
	.st84{fill:#FFC918;}
	.st85{fill:#0361A4;}
	.st86{fill:#009FE3;}
	.st87{fill:#E30217;}
	.st88{fill:#FDEA00;}
	.st89{fill:#E91B00;}
	.st90{fill:#2B2763;}
	.st91{fill:#EE1A22;}
	.st92{fill:#F1AA25;}
	.st93{fill:#93000C;}
	.st94{fill:none;stroke:#1D1D1B;stroke-width:4;}
	.st95{fill:#3E4E70;}
	.st96{fill:#096CB6;}
	.st97{fill:#0559A8;}
	.st98{fill:#F9ED1A;}
	.st99{fill:#949494;}
	.st100{fill:#FFD033;}
	.st101{fill:#243D89;}
	.st102{fill:#F8C936;}
	.st103{fill:#D44128;}
	.st104{fill:#ED1B23;}
	.st105{fill:#0C529C;}
	.st106{fill:#E31E24;}
	.st107{fill:#0263B0;}
	.st108{fill:#007AC2;}
	.st109{fill:#EF3D1F;}
	.st110{fill:#EE1C24;}
	.st111{fill:#FDEA00;stroke:#000000;stroke-width:0.6509;}
	.st112{fill:#FDEA00;stroke:#000000;stroke-width:0.6979;}
	.st113{fill:#46A0BE;}
	.st114{fill:#005FA5;}
	.st115{fill:#00904C;}
	.st116{fill:#E21F26;}
	.st117{fill:#FD0001;}
	.st118{fill:#0066B3;}
	.st119{fill:#E20019;}
	.st120{fill:#0171BC;}
	.st121{fill:#01305D;}
	.st122{fill:#1B7EE9;}
	.st123{fill:#BA0D0B;}
	.st124{fill:none;stroke:#000000;stroke-width:3;stroke-miterlimit:10;}
	.st125{fill:#FFFFFF;stroke:#000000;stroke-width:0.8836;stroke-miterlimit:10;}
	.st126{fill:#FFFFFF;stroke:#000000;stroke-width:0.9759;stroke-miterlimit:10;}
	.st127{fill:#0053A1;}
	.st128{fill:#FFE100;}
	.st129{fill:#FFE500;}
	.st130{fill:none;stroke:#FFE500;stroke-width:2;stroke-miterlimit:10;}
	.st131{fill:#01AFF3;}
	.st132{fill:#ED1B28;}
	.st133{fill:#E2000A;}
</style>
<g>
	<g>
		<g>
			<path class="st0" d="M128,249.4C61,249.4,6.6,195,6.6,128S61,6.6,128,6.6S249.4,61,249.4,128S195,249.4,128,249.4z"/>
			<path d="M128,11.1c31.2,0,60.6,12.2,82.6,34.2s34.2,51.4,34.2,82.6s-12.2,60.6-34.2,82.6s-51.4,34.2-82.6,34.2
				s-60.6-12.2-82.6-34.2S11.1,159.2,11.1,128s12.2-60.6,34.2-82.6S96.8,11.1,128,11.1 M128,2C58.4,2,2,58.4,2,128s56.4,126,126,126
				s126-56.4,126-126S197.6,2,128,2L128,2z"/>
		</g>
		<circle class="st0" cx="128" cy="128" r="107.1"/>
	</g>
	<g>
		<path class="st57" d="M128,232.6c57.7,0,104.6-46.9,104.6-104.6c0-28.8-11.7-55-30.7-73.9L54.1,201.9
			C73,220.8,99.2,232.6,128,232.6z"/>
		<path d="M23.4,128c0,28.8,11.7,55,30.7,73.9L201.9,54.1C183,35.2,156.8,23.4,128,23.4C70.3,23.4,23.4,70.3,23.4,128z"/>
		<path d="M23.4,128C23.4,70.3,70.3,23.4,128,23.4c28.8,0,55,11.7,73.9,30.7l3.6-3.6c-19.9-19.9-47.3-32.1-77.5-32.1
			C67.5,18.4,18.4,67.5,18.4,128c0,30.2,12.3,57.6,32.1,77.5l3.6-3.6C35.2,183,23.4,156.8,23.4,128z"/>
		<path d="M205.5,50.5l-3.6,3.6c18.9,18.9,30.7,45.1,30.7,73.9c0,57.7-46.9,104.6-104.6,104.6c-28.8,0-55-11.7-73.9-30.7l-3.6,3.6
			c19.9,19.9,47.3,32.1,77.5,32.1c60.5,0,109.6-49.2,109.6-109.6C237.6,97.8,225.3,70.4,205.5,50.5z"/>
	</g>
	<g>
		<path class="st0" d="M113.7,88.8c-2.1,8.9-3.2,17.6-1.6,26.8c-11.8-2.4-22.5-6.9-33.1-10.9c1.8-3.7,3.5-7.3,5.1-10.9
			c1.3-2.9,0.9-5.6-1-8.3c-3.2-4.6-3-4.7,1.1-8.4c1-0.9,2-1.8,3.1-2.7c1.9-1.6,3.2-1.6,4.9,0.2c1.2,1.2,2.3,2.5,3.6,3.8
			c-1.4,0.8-2.6,1.5-3.8,2.2c-1.5,0.9-1.5,1.3,0.1,2.1c6.2,3.1,12.7,5,19.6,5.8C112.4,88.6,112.9,88.7,113.7,88.8z M85.6,101.9
			c-1.1-0.7-1.8-1.4-2.3-1.3c-0.6,0.1-1.4,1-1.4,1.5c0.1,0.6,1,1.4,1.5,1.4C84,103.6,84.6,102.7,85.6,101.9z M87.5,93.6
			c0.8-1,1.6-1.7,1.5-2.2c-0.1-0.6-0.9-1.1-1.4-1.6c-0.5,0.5-1.4,1-1.5,1.5C86,91.8,86.8,92.5,87.5,93.6z M83.5,96.8
			c1.1,0.7,1.8,1.5,2.3,1.4c0.6-0.1,1-1,1.5-1.5c-0.6-0.5-1.1-1.3-1.7-1.4C85.2,95.2,84.6,96,83.5,96.8z M88.2,85.8
			c-1-0.8-1.7-1.6-2.2-1.5c-0.6,0-1.1,0.9-1.6,1.4c0.5,0.5,1,1.4,1.5,1.5C86.5,87.2,87.1,86.5,88.2,85.8z"/>
		<path class="st0" d="M105,53c0.5,0.3,1.1,0.6,1.6,1.1c3,3,6.1,8.4,7.4,12.8c-15.6,1.5-31,0.2-46.6-1.2c0.1-1,0.2-1.8,0.4-2.6
			c1.1-4.9,3.5-9.1,7.3-12.4c3.1-2.8,6.8-3.9,10.9-4.1c5.9-0.3,11.5,0.9,16.5,4.3c-0.3,0-0.5,0-0.8,0c1.6,1.8,3.4,3.3,4.6,5.2
			c1.8,2.8,3.2,5.8,4.8,8.7c0,0.1,0.1,0.1,0.1,0.2C111.3,65.3,108.5,56.7,105,53z"/>
		<path class="st0" d="M63,104.9c2.9-2.4,4.8-4.9,5.2-8.1c0.3-2.7-0.1-5.5-0.3-8.3c-0.2-2.8-0.4-4.9-0.7-8c3-0.4,5.9-0.9,8.8-1.2
			c1.3-0.1,2.4-0.2,3.3-1.3c0.3-0.4,1.2-0.4,2-0.2c-0.3,0.3-0.5,0.7-0.8,1c-1.1,1.5-1.2,3-0.3,4.6c0.5,1,1.1,2,1.8,2.9
			c1.9,2.3,1.8,4.6,0.9,7.3c-1.9,5.7-5,10.6-9.8,14.1c-0.6,0.5-1.8,0.6-2.5,0.4C68.1,107.1,65.8,106,63,104.9z"/>
		<path class="st0" d="M115,123.8c-2.6-0.2-5,0.1-7.1-0.6c-8.2-2.6-16.4-5.5-24.6-8.4c-3.8-1.4-7.6-2.9-11.4-4.4
			c1.8-1.6,3.4-3.1,5.2-4.4c0.3-0.3,1.2,0,1.7,0.2c7.8,2.8,15.5,5.7,23.3,8.3c3.1,1,6.3,1.6,9.4,2.4c0.4,0.1,0.9,0.5,1.1,0.9
			C113.4,119.6,114.1,121.4,115,123.8z"/>
		<path class="st0" d="M67.1,73c0-1.4,0.1-4.2,0.1-5.9c1.2,0.1,2.3,0.2,3.5,0.3c12.8,1.2,25.6,2.1,38.5,1.3c0.7,0,1.4-0.1,2.1-0.1
			c3.9-0.3,3-0.9,4,2.8c0.3,1.2,0.5,2.4,0.8,3.7c-7,0-13.7,0-20.5,0c-0.7,0-1.5-0.6-2-1.1c-2.8-2.8-4.6-2.9-7.6-0.3
			c-1.4,1.2-2.4,3.1-4.7,2.4c-0.6-0.2-1.3-0.6-1.5-1.1c-1.1-2.2-3.2-2.9-5.9-2.7C71.6,72.5,69.8,73,67.1,73z"/>
		<path class="st0" d="M61.6,81.2c1.9-0.3,3.1-0.4,4.2-0.5c0.4,5.3,1.1,9.9,1.1,14.9c0,3.4-2.1,6.2-5.2,8.4c-1-1-2-2.1-2.9-3
			c0.2-0.4,0.2-0.6,0.3-0.7c2.8-2.1,3.2-5.1,3-8.2C61.9,88.5,61.8,85,61.6,81.2z"/>
		<path class="st0" d="M76.4,73.7c1,0,2.2,1.4,2.1,2.3c-0.2,1.4-1.1,1.7-2.5,1.9c-5,0.5-10,1.3-15,2c-0.7,0.1-1.5,0-1.8-0.3
			c-0.5-0.5-0.6-2-0.4-3.1c0.1-0.7,1.1-0.9,1.7-1C65.9,74.9,72.9,73.8,76.4,73.7z"/>
		<path class="st0" d="M65.3,73.2c-1.3,0.3-3,0.4-4.5,0.5c0.3-8.6,3.9-15.7,9.8-21c-1.3,2.9-3,5.9-3.9,9.2
			C65.8,65.2,65.7,69.6,65.3,73.2z"/>
		<path class="st0" d="M115.2,88.9c0.8,0,1.4,0.1,2.1,0.1c-2.1,8.3-2.9,16.5-1,24.9c-0.8,0.4-1.6,0.8-2.6,1.3
			C112,106.2,113.2,97.6,115.2,88.9z"/>
		<path class="st0" d="M119.4,79.7c-7.3-0.6-14.4-1.2-21.5-1.8c-0.6-0.1-1.1-0.6-1.6-1c0.1-0.2,0.1-0.4,0.2-0.6
			c5.7,0,11.5-0.1,17.2,0C117,76.4,118.5,77.5,119.4,79.7z"/>
		<path class="st0" d="M116.5,115.4c0.7,1.9,1.6,3.6,2,5.4c0.1,0.6-1,1.5-1.6,2.3c-0.2-0.1-0.4-0.1-0.6-0.2c-0.7-1.7-1.5-3.4-2-5.2
			C113.7,115.7,115.7,116.2,116.5,115.4z"/>
	</g>
	<g>
		<g>
			<path d="M154.8,162.8c0-12.8,0-25.5,0-38.3c0-0.7,0.2-1.2,0.7-1.7c3.1-3,6.1-6.1,9.2-9.2c0.5-0.5,0.8-0.5,1.3,0
				c3.1,3.2,6.2,6.3,9.4,9.4c0.3,0.3,0.4,0.7,0.4,1.2c0,11.2,0,22.4,0,33.5c0,0.6-0.2,0.7-0.7,0.7c-2.4,0-4.8,0-7.1,0
				c-0.7,0-0.8-0.2-0.8-0.8c0-9.8,0-19.7,0-29.5c0-1.4-1.1-1.9-1.7-2.7c-0.2-0.2-0.3,0-0.4,0.1c-0.5,0.4-0.9,0.9-1.4,1.4
				c-0.2,0.2-0.2,0.5-0.2,0.7c0,0.7,0,1.5,0,2.2c0,22.6,0,45.2,0,67.8c0,0.6,1.2,2.3,1.7,2.5c0.1,0.1,0.2,0,0.3-0.1
				c0.8-0.9,1.7-1.5,1.7-3c-0.1-9.7,0-19.4-0.1-29.1c0-0.7,0.1-0.9,0.9-0.9c2.3,0,4.7,0,7,0c0.7,0,0.8,0.2,0.8,0.8
				c0,11.2,0,22.3,0,33.5c0,0.5-0.1,0.8-0.4,1.2c-3.2,3.1-6.3,6.3-9.4,9.4c-0.4,0.4-0.7,0.5-1.2,0c-3-3.1-6.1-6.2-9.2-9.2
				c-0.5-0.5-0.7-1-0.7-1.7C154.8,188.3,154.8,175.6,154.8,162.8z"/>
			<path d="M151,127.5c0.2,0.2,0.1,0.4,0.1,0.7c0,8.6,0,17.2,0,25.9c0,0.6-0.2,0.8-0.8,0.8c-2.3,0-4.7,0-7,0c-0.7,0-0.9-0.2-0.9-0.9
				c0-1.4,0-2.8,0-4.5c-0.7,1-1.1,2-1.5,2.9c-0.8,1.7-1.3,3.6-1.7,5.4c-0.1,0.7,0,0.8,0.7,0.8c3.5,0,6.9,0,10.4,0
				c0.7,0,0.8,0.2,0.8,0.8c0,12.8,0,25.5,0,38.3c0,0.2,0,0.3,0,0.5c-0.3,0.1-0.4-0.1-0.5-0.2c-3.6-3.6-7.3-7.2-10.8-10.9
				c-4.2-4.4-7-9.6-8.6-15.5c-0.1-0.6,0-0.7,0.5-0.7c2.5,0,5.1,0,7.6,0c0.5,0,0.7,0.2,0.9,0.6c0.5,1.6,1.2,3.1,2.1,4.6
				c0.2-0.1,0.2-0.3,0.2-0.4c0-2.6,0-5.2,0-7.8c0-0.6-0.2-0.7-0.7-0.7c-3.5,0-7.1,0-10.6,0c-0.6,0-0.8-0.2-0.9-0.8
				c-0.9-11.2,2.6-20.8,10.6-28.8c3.2-3.2,6.4-6.4,9.6-9.5C150.6,127.8,150.7,127.5,151,127.5z"/>
			<path d="M188.2,149.6c-0.2,0.2-0.1,0.4-0.1,0.6c0,2.5,0,5,0,7.4c0,0.6,0.1,0.8,0.8,0.8c3.5,0,7,0,10.5,0c0.6,0,0.8,0.1,0.9,0.8
				c0.2,2.3,0.2,4.6,0,7c-0.1,0.7-0.3,0.9-1,0.9c-3.5,0-6.9,0-10.4,0c-0.6,0-0.8,0.2-0.8,0.8c0,7,0,14,0,21c0,0.6-0.1,1-0.5,1.3
				c-2.5,2.4-4.9,4.9-7.4,7.4c-0.2,0.2-0.3,0.4-0.6,0.5c0-23.6,0-47.1,0-70.6c0.1-0.1,0.2,0,0.3,0.1c3.9,4,8,7.8,11.8,11.9
				c3.8,4.2,6.3,9.1,7.8,14.5c0.2,0.7,0,0.8-0.6,0.8c-2.5,0-4.9,0-7.4,0c-0.5,0-0.8-0.1-1-0.7c-0.5-1.4-1.1-2.8-1.8-4.1
				C188.5,149.8,188.5,149.6,188.2,149.6z"/>
		</g>
	</g>
</g>
</svg>
