<?xml version="1.0" encoding="utf-8"?>
<!-- Generator: Adobe Illustrator 17.0.0, SVG Export Plug-In . SVG Version: 6.00 Build 0)  -->
<!DOCTYPE svg PUBLIC "-//W3C//DTD SVG 1.1//EN" "http://www.w3.org/Graphics/SVG/1.1/DTD/svg11.dtd" [
	<!ENTITY ns_flows "http://ns.adobe.com/Flows/1.0/">
	<!ENTITY ns_extend "http://ns.adobe.com/Extensibility/1.0/">
	<!ENTITY ns_ai "http://ns.adobe.com/AdobeIllustrator/10.0/">
	<!ENTITY ns_graphs "http://ns.adobe.com/Graphs/1.0/">
]>
<svg version="1.1" id="Layer_2" xmlns:x="&ns_extend;" xmlns:i="&ns_ai;" xmlns:graph="&ns_graphs;"
	 xmlns="http://www.w3.org/2000/svg" xmlns:xlink="http://www.w3.org/1999/xlink" xmlns:a="http://ns.adobe.com/AdobeSVGViewerExtensions/3.0/"
	 x="0px" y="0px" width="256px" height="256px" viewBox="0 0 256 256" style="enable-background:new 0 0 256 256;"
	 xml:space="preserve">
<style type="text/css">
	.st0{fill:#FFFFFF;}
	.st1{fill:#54B948;}
	.st2{fill:#1D8C8E;}
	.st3{fill:#14DEAC;}
	.st4{fill:#1466AC;}
	.st5{fill:#757575;}
	.st6{fill:#B69442;}
	.st7{fill:#1A234D;}
	.st8{fill:#AA0629;}
	.st9{fill:#FF4A49;}
	.st10{fill:#3C6643;}
	.st11{fill:none;stroke:#FF4A49;stroke-miterlimit:10;}
	.st12{fill:#E70084;}
	.st13{fill:#508A72;}
	.st14{fill:#01A663;}
	.st15{fill:#015297;}
	.st16{fill:#B0B0B0;}
	.st17{fill:#E1062F;}
	.st18{fill:#D80000;stroke:#FFFFFF;stroke-width:2;stroke-miterlimit:10;}
	.st19{fill:#D80000;}
	.st20{fill:#8ABE23;}
	.st21{fill:#1D1D1B;}
	.st22{fill:#FEFEFE;}
	.st23{fill:#FF0000;}
	.st24{fill:#FF1D1B;}
	.st25{fill:#6DB2DE;}
	.st26{fill:#FF1D25;}
	.st27{fill:#FFDA00;}
	.st28{fill:#024D9E;}
	.st29{fill:#6B97C6;}
	.st30{fill:#000078;}
	.st31{fill:none;stroke:#FFFFFF;stroke-width:6;stroke-linecap:round;stroke-miterlimit:10;}
	.st32{fill:#FFEE34;}
	.st33{fill:none;stroke:#000000;stroke-width:4;stroke-miterlimit:10;}
	.st34{fill:#D11E24;}
	.st35{fill:#D71F26;}
	.st36{fill:#020000;}
	.st37{fill:none;stroke:#000000;stroke-width:2;stroke-miterlimit:10;}
	.st38{clip-path:url(#SVGID_2_);}
	.st39{fill:#00317D;}
	.st40{fill:#00737D;}
	.st41{fill:#ED1C24;}
	.st42{fill:#2678C7;}
	.st43{fill:#1853A6;}
	.st44{fill:#CB0000;}
	.st45{fill:#E61C21;}
	.st46{clip-path:url(#SVGID_4_);}
	.st47{fill:#6BDEF1;}
	.st48{clip-path:url(#SVGID_6_);}
	.st49{fill:#0165B2;}
	.st50{fill:#DE1134;}
	.st51{fill:#00A668;}
	.st52{fill:#FFE60B;}
	.st53{fill:#843D00;stroke:#000000;stroke-miterlimit:10;}
	.st54{fill:#EC1F27;}
	.st55{fill:#162984;}
	.st56{fill:#1853A6;stroke:#1853A6;stroke-miterlimit:10;}
	.st57{fill:none;}
	.st58{fill:none;stroke:#1853A6;stroke-width:0.9;stroke-miterlimit:10;}
	.st59{fill:#1853A6;stroke:#1853A6;stroke-width:0.9;stroke-miterlimit:10;}
	.st60{fill:#B5985A;}
	.st61{fill:#FFE60B;stroke:#000000;stroke-width:6;stroke-miterlimit:10;}
	.st62{fill:#008DCD;}
	.st63{fill:#009939;}
	.st64{fill:#2E3092;}
	.st65{fill:#EE3224;}
	.st66{fill:#005BAB;}
	.st67{fill:#D30027;}
	.st68{fill:#FFFFFF;stroke:#D30027;stroke-width:10;stroke-miterlimit:10;}
	.st69{fill:#E81C2F;}
	.st70{fill:#DC032B;}
	.st71{fill:#F25448;}
	.st72{fill:#FFFFFF;stroke:#F25448;stroke-width:6;stroke-miterlimit:10;}
	.st73{fill:#05A08D;}
	.st74{fill:#1875CE;}
	.st75{fill:#D72427;}
	.st76{fill:#004993;}
	.st77{fill:#007BB0;}
	.st78{fill:#FFEB00;}
	.st79{fill:#664A9E;}
	.st80{fill:#F4C701;}
	.st81{fill:#EBBE12;}
	.st82{fill:#44B3DB;}
	.st83{fill:#F6FF82;}
	.st84{fill:#FFC918;}
	.st85{fill:#0361A4;}
	.st86{fill:#009FE3;}
	.st87{fill:#E30217;}
	.st88{fill:#FDEA00;}
	.st89{fill:#E91B00;}
	.st90{fill:#2B2763;}
	.st91{fill:#EE1A22;}
	.st92{fill:#F1AA25;}
	.st93{fill:#93000C;}
	.st94{fill:none;stroke:#1D1D1B;stroke-width:4;}
	.st95{fill:#3E4E70;}
	.st96{fill:#096CB6;}
	.st97{fill:#0559A8;}
	.st98{fill:#F9ED1A;}
	.st99{fill:#949494;}
	.st100{fill:#FFD033;}
	.st101{fill:#243D89;}
	.st102{fill:#F8C936;}
	.st103{fill:#D44128;}
	.st104{fill:#ED1B23;}
	.st105{fill:#0C529C;}
	.st106{fill:#E31E24;}
	.st107{fill:#0263B0;}
	.st108{fill:#007AC2;}
	.st109{fill:#EF3D1F;}
	.st110{fill:#EE1C24;}
	.st111{fill:#FDEA00;stroke:#000000;stroke-width:0.6509;}
	.st112{fill:#FDEA00;stroke:#000000;stroke-width:0.6979;}
	.st113{fill:#46A0BE;}
	.st114{fill:#005FA5;}
	.st115{fill:#00904C;}
	.st116{fill:#E21F26;}
	.st117{fill:#FD0001;}
	.st118{fill:#0066B3;}
	.st119{fill:#E20019;}
	.st120{fill:#0171BC;}
	.st121{fill:#01305D;}
	.st122{fill:#1B7EE9;}
	.st123{fill:#BA0D0B;}
	.st124{fill:none;stroke:#000000;stroke-width:3;stroke-miterlimit:10;}
	.st125{fill:#FFFFFF;stroke:#000000;stroke-width:0.8836;stroke-miterlimit:10;}
	.st126{fill:#FFFFFF;stroke:#000000;stroke-width:0.9759;stroke-miterlimit:10;}
	.st127{fill:#0053A1;}
	.st128{fill:#FFE100;}
	.st129{fill:#FFE500;}
	.st130{fill:none;stroke:#FFE500;stroke-width:2;stroke-miterlimit:10;}
	.st131{fill:#01AFF3;}
	.st132{fill:#ED1B28;}
	.st133{fill:#E2000A;}
</style>
<g>
	<g>
		<g>
			<path class="st36" d="M9,90v70.5c0,0.2,0.3,22,14.9,43.3c19.6,28.6,54.5,43.1,103.7,43.1c49.7,0,84.7-14.5,104.4-43.1
				c14.7-21.3,14.9-43.1,14.9-43.3V90H9z"/>
		</g>
	</g>
	<polygon class="st0" points="207,155 153.4,155 202.4,133.7 198.6,124.2 149.6,145.1 187.1,106.3 180.1,99.2 142.6,137.8 
		162.8,87.3 153.7,83.5 133.5,134 133.3,79.4 123.5,79.4 123.7,134 103.1,83.7 94,87.6 114.6,137.9 76.8,99.6 69.9,106.8 
		107.7,145.1 58.5,124.6 54.8,134.3 103.5,155 50,155 50,165 104,165 54.1,186 57.9,195.2 107.8,173.8 69.6,213.2 76.6,220.3 
		114.8,180.9 94.2,232.3 103.3,236.2 123.9,184.8 124.1,240.4 133.9,240.3 133.7,184.7 154.7,236 163.7,232.1 142.8,180.8 
		181.2,219.9 188.2,212.7 149.7,173.6 199.8,194.5 203.5,185.4 153.9,165 207,165 	"/>
	<g>
		<rect x="9" y="10" class="st91" width="238" height="80"/>
	</g>
	<g>
		<path d="M240.2,16.2v144.3c0,0.8-0.6,20.6-14.1,39.8c-7.9,11.3-18.8,20.3-32.3,26.8c-17.6,8.5-39.9,12.8-66.2,12.8
			c-26.1,0-48.1-4.3-65.6-12.8c-13.4-6.5-24.2-15.5-32.1-26.8c-13.4-19.1-14.1-38.9-14.1-39.9V16.2H240.2 M254,2H2v158.6
			c0,0,0.3,93.4,125.6,93.4C254,254,254,160.6,254,160.6V2L254,2z"/>
	</g>
	<g>
		<g>
			<path class="st0" d="M39.4,42.7c1.1,0.6,2.9,1.1,4.6,1.1c1.8,0,2.6-0.7,2.6-1.7c0-1.1-0.9-1.6-3-2.5c-3.3-1.4-5-3.4-5-6
				c0-3.5,2.7-6.3,7.6-6.3c2.1,0,3.6,0.4,4.7,0.9l-1,4.3c-0.8-0.4-2.1-0.9-3.8-0.9c-1.6,0-2.4,0.7-2.4,1.6c0,1,0.9,1.4,3.3,2.5
				c3.3,1.4,4.7,3.4,4.7,6c0,3.6-2.7,6.4-8,6.4c-2.2,0-4.3-0.6-5.3-1.1L39.4,42.7z"/>
		</g>
		<g>
			<path class="st0" d="M69.8,47c-1.3,0.5-3.8,1-6.1,1c-3.5,0-5.9-0.9-7.5-2.5c-1.8-1.8-2.8-4.6-2.8-7.7c0.1-7.1,4.9-10.6,10.7-10.6
				c2.3,0,4.1,0.5,5,0.9l-1,4.3c-1-0.5-2.1-0.8-4-0.8c-3.1,0-5.5,1.8-5.5,6.1c0,4,2.2,6,4.9,6c0.6,0,1.1-0.1,1.3-0.2V40h-2.3v-4.1
				h7.1V47z"/>
		</g>
		<g>
			<path class="st0" d="M78.6,42.7c1.1,0.6,2.9,1.1,4.6,1.1c1.8,0,2.6-0.7,2.6-1.7c0-1.1-0.9-1.6-3-2.5c-3.3-1.4-5-3.4-5-6
				c0-3.5,2.7-6.3,7.6-6.3c2.1,0,3.6,0.4,4.7,0.9l-1,4.3c-0.8-0.4-2.1-0.9-3.8-0.9c-1.6,0-2.4,0.7-2.4,1.6c0,1,0.9,1.4,3.3,2.5
				c3.3,1.4,4.7,3.4,4.7,6c0,3.6-2.7,6.4-8,6.4c-2.2,0-4.3-0.6-5.3-1.1L78.6,42.7z"/>
		</g>
		<g>
			<path class="st0" d="M101.3,48.2c-5.8,0-8.6-4.9-8.6-10.4c0-5.7,3.3-10.5,8.9-10.5c6.1,0,8.7,5.2,8.7,10.2
				C110.2,44.3,106.7,48.2,101.3,48.2L101.3,48.2z M101.5,43.9c2.2,0,3.4-2.5,3.4-6.3c0-3.5-1.2-6.2-3.4-6.2c-2.2,0-3.5,2.7-3.5,6.2
				C98,41.4,99.3,43.9,101.5,43.9L101.5,43.9z"/>
		</g>
		<g>
			<path class="st0" d="M112.9,47.9V27.5h5.6l3.1,6.6c0.9,1.8,2,4.5,2.7,6.6h0.1c-0.2-2.4-0.4-5.5-0.4-8.8v-4.3h4.6v20.3h-5.2
				l-3.1-6.8c-0.9-2-2.1-4.7-2.9-6.9h-0.1c0.1,2.4,0.2,5.6,0.2,9.1v4.6H112.9z"/>
		</g>
		<g>
			<path class="st0" d="M132.1,47.9V27.5h5.6l3.1,6.6c0.9,1.8,2,4.5,2.7,6.6h0.1c-0.2-2.4-0.4-5.5-0.4-8.8v-4.3h4.6v20.3h-5.2
				l-3.1-6.8c-0.9-2-2.1-4.7-2.9-6.9h-0.1c0.1,2.4,0.2,5.6,0.2,9.1v4.6H132.1z"/>
		</g>
		<g>
			<path class="st0" d="M162.7,39.5h-6.3v4h7v4.3h-12.1V27.5h11.7v4.3h-6.6v3.4h6.3V39.5z"/>
		</g>
		<g>
			<path class="st0" d="M171.4,27.5v7.7h5.5v-7.7h5.1v20.3h-5.1v-8.1h-5.5v8.1h-5.1V27.5H171.4z"/>
		</g>
		<g>
			<path class="st0" d="M193.3,48.2c-5.8,0-8.6-4.9-8.6-10.4c0-5.7,3.3-10.5,8.9-10.5c6.1,0,8.7,5.2,8.7,10.2
				C202.2,44.3,198.7,48.2,193.3,48.2L193.3,48.2z M193.5,43.9c2.2,0,3.4-2.5,3.4-6.3c0-3.5-1.2-6.2-3.4-6.2c-2.2,0-3.5,2.7-3.5,6.2
				C189.9,41.4,191.3,43.9,193.5,43.9L193.5,43.9z"/>
		</g>
		<g>
			<path class="st0" d="M204.9,27.5h11.6v4.3H210v4h6.1V40H210v7.8h-5.1V27.5z"/>
		</g>
		<g>
			<path class="st0" d="M39,78c-1.3,0.5-3.8,1-6.1,1c-3.5,0-5.9-0.9-7.5-2.5c-1.8-1.8-2.8-4.6-2.8-7.7c0.1-7.1,4.9-10.6,10.7-10.6
				c2.3,0,4.1,0.5,5,0.9l-1,4.3c-1-0.5-2.1-0.8-4-0.8c-3.1,0-5.5,1.8-5.5,6.1c0,4,2.2,6,4.9,6c0.6,0,1.1-0.1,1.3-0.2v-3.7h-2.3v-4.1
				H39V78z"/>
		</g>
		<g>
			<path class="st0" d="M42.2,58.8c1.4-0.2,3.5-0.4,5.8-0.4c2.8,0,4.9,0.4,6.4,1.6c1.3,1.1,1.8,2.4,1.8,4.4c0,2.4-1.6,4.3-3.3,4.9
				v0.1c1.3,0.6,2,1.8,2.4,3.7c0.5,2.1,1.2,5,1.6,5.8h-5.2c-0.3-0.6-0.8-2.3-1.3-4.7c-0.5-2.4-1.1-3-2.6-3h-0.7v7.7h-5V58.8z
				 M47.2,67.3h1.1c1.8,0,2.9-1.1,2.9-2.6c0-1.5-0.9-2.4-2.5-2.5c-0.8,0-1.3,0-1.5,0.1V67.3z"/>
		</g>
		<g>
			<path class="st0" d="M66.8,79.1c-5.8,0-8.6-4.9-8.6-10.4c0-5.7,3.3-10.5,8.9-10.5c6.1,0,8.7,5.2,8.7,10.2
				C75.8,75.3,72.3,79.1,66.8,79.1L66.8,79.1z M67,74.9c2.2,0,3.4-2.5,3.4-6.3c0-3.5-1.2-6.2-3.4-6.2c-2.2,0-3.5,2.7-3.5,6.2
				C63.5,72.4,64.8,74.9,67,74.9L67,74.9z"/>
		</g>
		<g>
			<path class="st0" d="M78.5,78.8V66.1c0-3.4,0.8-5.4,2.2-6.8c1.3-1.3,3.2-2,5.5-2c4,0,6.5,2.4,6.5,5.6c0,0.8-0.3,1.8-0.7,2.4
				c-1,0.5-1.4,1.3-1.4,1.9c0,0.6,0.2,1.1,0.9,1.8c1.1,1.2,2.2,2.6,2.2,4.8c0,3.1-2.2,5.3-5.9,5.3c-1,0-2.2-0.1-3-0.4l0.6-3.8
				c0.5,0.2,1.1,0.3,1.8,0.3c1,0,1.5-0.5,1.5-1.1c0-0.6-0.3-1-0.9-1.8c-0.9-1.1-2.1-2.4-2.1-4.3c0-1.5,0.8-2.9,2.1-3.7
				c0.1-0.3,0.2-0.7,0.2-1.1c0-1-0.7-2-1.8-2c-1.3,0-2.4,1.1-2.4,4.3v13.3H78.5z"/>
		</g>
		<g>
			<path class="st0" d="M100.8,74.3l-1,4.5h-5.2l5.3-20.3h6.6l5.2,20.3h-5.3l-1.1-4.5H100.8z M104.7,70.4l-0.8-3.7
				c-0.3-1.1-0.6-3-0.9-4.2H103c-0.3,1.2-0.6,3.1-0.8,4.2l-0.8,3.7H104.7z"/>
		</g>
		<g>
			<path class="st0" d="M114.3,73.7c1.1,0.6,2.9,1.1,4.6,1.1c1.8,0,2.6-0.7,2.6-1.7c0-1.1-0.9-1.6-3-2.5c-3.3-1.4-5-3.4-5-6
				c0-3.5,2.7-6.3,7.6-6.3c2.1,0,3.6,0.4,4.7,0.9l-1,4.3c-0.8-0.4-2.1-0.9-3.8-0.9c-1.6,0-2.4,0.7-2.4,1.6c0,1,0.9,1.4,3.3,2.5
				c3.3,1.4,4.7,3.4,4.7,6c0,3.6-2.7,6.4-8,6.4c-2.2,0-4.3-0.6-5.3-1.1L114.3,73.7z"/>
		</g>
		<g>
			<path class="st0" d="M129.3,58.8c1.3-0.2,3.3-0.4,5.9-0.4c2.7,0,4.7,0.5,6.1,1.6c1.3,1.1,2.1,2.8,2.1,4.8c0,2.2-0.7,3.9-1.9,5.1
				c-1.5,1.4-3.8,2-6.1,2c-0.4,0-0.8,0-1.1-0.1v7h-5V58.8z M134.3,67.7c0.3,0.1,0.6,0.1,1,0.1c2,0,3.1-1.2,3.1-2.9
				c0-1.5-0.9-2.6-2.7-2.6c-0.6,0-1.1,0.1-1.3,0.1V67.7z"/>
		</g>
		<g>
			<path class="st0" d="M149.2,74.3l-1,4.5h-5.2l5.3-20.3h6.6l5.2,20.3h-5.3l-1.1-4.5H149.2z M153.1,70.4l-0.8-3.7
				c-0.3-1.1-0.6-3-0.9-4.2h-0.1c-0.3,1.2-0.6,3.1-0.8,4.2l-0.8,3.7H153.1z"/>
		</g>
		<g>
			<path class="st0" d="M175.1,78.4c-0.7,0.3-2.3,0.7-4.4,0.7c-6.9,0-9.8-4.7-9.8-10.1c0-7.3,4.8-10.8,10.2-10.8
				c2,0,3.6,0.4,4.3,0.8l-0.9,4.2c-0.7-0.3-1.8-0.6-3.1-0.6c-2.8,0-5.2,1.9-5.2,6.1c0,3.9,2,6,5.2,6c1.1,0,2.3-0.2,3-0.5L175.1,78.4
				z"/>
		</g>
		<g>
			<path class="st0" d="M182.8,58.5v7.7h5.5v-7.7h5.1v20.3h-5.1v-8.1h-5.5v8.1h-5.1V58.5H182.8z"/>
		</g>
		<g>
			<path class="st0" d="M213.8,70.5h-6.3v4h7v4.3h-12.1V58.5h11.7v4.3h-6.6v3.4h6.3V70.5z"/>
		</g>
		<g>
			<path class="st0" d="M221.6,78.8l-5.7-20.3h5.6l1.8,8.1c0.5,2.2,1,4.5,1.4,7h0.1c0.4-2.4,0.9-4.8,1.4-6.9l1.8-8.2h5.5l-5.9,20.3
				H221.6z"/>
		</g>
	</g>
	<g>
		<ellipse class="st91" cx="127.7" cy="161.8" rx="44.9" ry="46.1"/>
	</g>
	<g>
		<g>
			<path class="st0" d="M103.6,157.2c-0.7-0.4-1.3-0.8-1.7-1.3c-1-1.2-1.1-2.7-0.2-4.1c0.8-1.2,1.9-2,3.1-2.7
				c0.3-0.2,0.4-0.3,0.2-0.7c-1.2-2-0.9-4.3,0.8-6c1.4-1.5,3.1-2.3,4.9-2.9c0.4-0.1,0.6-0.2,0.4-0.7c-0.9-2.4-0.2-4.9,2-6.8
				c1.9-1.6,4.1-2.3,6.6-2.5c0.9,0,1.7,0,2.6,0.1c0.2,0,0.4,0.1,0.6-0.2c1.3-2.1,3.3-3.3,5.6-3.8c3.3-0.8,6.5-0.5,9.4,1.4
				c1.7,1.1,2.9,2.6,3.2,4.8c0.1,0.4,0.1,0.9,0,1.3c-0.1,0.5,0.1,0.5,0.5,0.5c1.4,0,2.7,0.4,4,1c2,1,3.5,2.5,3.9,4.8
				c0.3,1.2,0.1,2.4-0.4,3.5c1.3,0.1,2.6,0.3,3.8,0.7c1.4,0.5,2.7,1.2,3.7,2.4c1.6,1.9,1.6,4.3,0,6.2c-0.8,0.9-1.7,1.5-2.7,2
				c-0.2,0.1-0.4,0.2-0.6,0.3c1.2,0.7,2.3,1.5,3.3,2.5c2,2,3.4,4.3,3.6,7.2c0.3,3.6-1.3,6.4-4.1,8.5c-2.8,2-5.9,2.6-9.3,2.5
				c-1.7-0.1-3.3-0.4-4.8-0.9c-0.3-0.1-0.4-0.1-0.6,0.2c-3.3,3.7-6.6,7.4-9.6,11.4c0,0,0,0.1-0.1,0.1c-0.9,1.1-1.3,2.3-1.2,3.7
				c0.1,5.2,0,10.3,0.1,15.5c0,3,0.1,6.1,0.4,9.1c0,0.5,0.2,0.8,0.5,1.2c0.5,0.6,1,1.1,1.4,1.7c0.5,0.7,0.9,1.4,1.2,2.3
				c0.2,0.6,0,0.8-0.6,0.8c-2.9,0-5.9,0-8.8,0.1c-0.5,0-0.6-0.2-0.5-0.6c0.1-1,0.4-1.8,1.3-2.3c0.8-0.5,1.1-1.1,1.2-2.1
				c0.2-2.5,0.3-5,0.3-7.5c0-3.8,0-7.7,0-11.5c-0.1-4.3-0.2-8.7-0.5-13c-0.1-1.1-0.5-2-1.3-2.7c-2.9-2.5-6-4.8-9-7.1
				c-0.3-0.2-0.5-0.2-0.8-0.1c-3.5,0.9-7.1,1.1-10.6,0.2c-1.5-0.4-3-1-4.3-1.9c-3.5-2.5-4.2-6.4-1.8-10c1.3-1.9,2.9-3.2,4.8-4.4
				C103.2,157.4,103.4,157.3,103.6,157.2z M130.1,175.5C130.1,175.5,130.1,175.5,130.1,175.5c0.1,1.2,0.1,2.4,0.2,3.6
				c0,0.6,0.1,1.2,0.3,1.8c0.2,0.6,0.3,0.7,0.8,0.3c0.3-0.2,0.6-0.4,0.9-0.7c2.4-2.1,4.5-4.4,6.7-6.7c0.2-0.2,0.2-0.4-0.1-0.5
				c-0.9-0.4-1.7-1-2.5-1.6c-0.2-0.1-0.3-0.1-0.5-0.1c-1.8,0.6-3.7,1-5.6,1c-0.3,0-0.4,0.2-0.4,0.4
				C130.1,173.9,130.1,174.7,130.1,175.5z M117.9,172.6c0.4,0.3,0.7,0.5,1.1,0.8c2.1,1.4,4.1,2.9,6.4,4.1c0.6,0.3,0.8,0.3,1-0.4
				c0.5-1.3,0.6-2.8,0.8-4.2c0-0.3-0.1-0.3-0.3-0.4c-1.9-0.3-3.7-0.7-5.4-1.5c-0.1-0.1-0.2-0.1-0.4,0
				C120,171.6,119,172.1,117.9,172.6z"/>
		</g>
	</g>
</g>
</svg>
