<?xml version="1.0" encoding="utf-8"?>
<!-- Generator: Adobe Illustrator 17.0.0, SVG Export Plug-In . SVG Version: 6.00 Build 0)  -->
<!DOCTYPE svg PUBLIC "-//W3C//DTD SVG 1.1//EN" "http://www.w3.org/Graphics/SVG/1.1/DTD/svg11.dtd" [
	<!ENTITY ns_flows "http://ns.adobe.com/Flows/1.0/">
	<!ENTITY ns_extend "http://ns.adobe.com/Extensibility/1.0/">
	<!ENTITY ns_ai "http://ns.adobe.com/AdobeIllustrator/10.0/">
	<!ENTITY ns_graphs "http://ns.adobe.com/Graphs/1.0/">
]>
<svg version="1.1" id="Layer_2" xmlns:x="&ns_extend;" xmlns:i="&ns_ai;" xmlns:graph="&ns_graphs;"
	 xmlns="http://www.w3.org/2000/svg" xmlns:xlink="http://www.w3.org/1999/xlink" xmlns:a="http://ns.adobe.com/AdobeSVGViewerExtensions/3.0/"
	 x="0px" y="0px" width="256px" height="256px" viewBox="0 0 256 256" style="enable-background:new 0 0 256 256;"
	 xml:space="preserve">
<style type="text/css">
	.st0{fill:#FFFFFF;}
	.st1{fill:#54B948;}
	.st2{fill:#1D8C8E;}
	.st3{fill:#14DEAC;}
	.st4{fill:#1466AC;}
	.st5{fill:#757575;}
	.st6{fill:#B69442;}
	.st7{fill:#1A234D;}
	.st8{fill:#AA0629;}
	.st9{fill:#FF4A49;}
	.st10{fill:#3C6643;}
	.st11{fill:none;stroke:#FF4A49;stroke-miterlimit:10;}
	.st12{fill:#E70084;}
	.st13{fill:#508A72;}
	.st14{fill:#01A663;}
	.st15{fill:#015297;}
	.st16{fill:#B0B0B0;}
	.st17{fill:#E1062F;}
	.st18{fill:#D80000;stroke:#FFFFFF;stroke-width:2;stroke-miterlimit:10;}
	.st19{fill:#D80000;}
	.st20{fill:#8ABE23;}
	.st21{fill:#1D1D1B;}
	.st22{fill:#FEFEFE;}
	.st23{fill:#FF0000;}
	.st24{fill:#FF1D1B;}
	.st25{fill:#6DB2DE;}
	.st26{fill:#FF1D25;}
	.st27{fill:#FFDA00;}
	.st28{fill:#024D9E;}
	.st29{fill:#6B97C6;}
	.st30{fill:#000078;}
	.st31{fill:none;stroke:#FFFFFF;stroke-width:6;stroke-linecap:round;stroke-miterlimit:10;}
	.st32{fill:#FFEE34;}
	.st33{fill:none;stroke:#000000;stroke-width:4;stroke-miterlimit:10;}
	.st34{fill:#D11E24;}
	.st35{fill:#D71F26;}
	.st36{fill:#020000;}
	.st37{fill:none;stroke:#000000;stroke-width:2;stroke-miterlimit:10;}
	.st38{clip-path:url(#SVGID_2_);}
	.st39{fill:#00317D;}
	.st40{fill:#00737D;}
	.st41{fill:#ED1C24;}
	.st42{fill:#2678C7;}
	.st43{fill:#1853A6;}
	.st44{fill:#CB0000;}
	.st45{fill:#E61C21;}
	.st46{clip-path:url(#SVGID_4_);}
	.st47{fill:#6BDEF1;}
	.st48{clip-path:url(#SVGID_6_);}
	.st49{fill:#0165B2;}
	.st50{fill:#DE1134;}
	.st51{fill:#00A668;}
	.st52{fill:#FFE60B;}
	.st53{fill:#843D00;stroke:#000000;stroke-miterlimit:10;}
	.st54{fill:#EC1F27;}
	.st55{fill:#162984;}
	.st56{fill:#1853A6;stroke:#1853A6;stroke-miterlimit:10;}
	.st57{fill:none;}
	.st58{fill:none;stroke:#1853A6;stroke-width:0.9;stroke-miterlimit:10;}
	.st59{fill:#1853A6;stroke:#1853A6;stroke-width:0.9;stroke-miterlimit:10;}
	.st60{fill:#B5985A;}
	.st61{fill:#FFE60B;stroke:#000000;stroke-width:6;stroke-miterlimit:10;}
	.st62{fill:#008DCD;}
	.st63{fill:#009939;}
	.st64{fill:#2E3092;}
	.st65{fill:#EE3224;}
	.st66{fill:#005BAB;}
	.st67{fill:#D30027;}
	.st68{fill:#FFFFFF;stroke:#D30027;stroke-width:10;stroke-miterlimit:10;}
	.st69{fill:#E81C2F;}
	.st70{fill:#DC032B;}
	.st71{fill:#F25448;}
	.st72{fill:#FFFFFF;stroke:#F25448;stroke-width:6;stroke-miterlimit:10;}
	.st73{fill:#05A08D;}
	.st74{fill:#1875CE;}
	.st75{fill:#D72427;}
	.st76{fill:#004993;}
	.st77{fill:#007BB0;}
	.st78{fill:#FFEB00;}
	.st79{fill:#664A9E;}
	.st80{fill:#F4C701;}
	.st81{fill:#EBBE12;}
	.st82{fill:#44B3DB;}
	.st83{fill:#F6FF82;}
	.st84{fill:#FFC918;}
	.st85{fill:#0361A4;}
	.st86{fill:#009FE3;}
	.st87{fill:#E30217;}
	.st88{fill:#FDEA00;}
	.st89{fill:#E91B00;}
	.st90{fill:#2B2763;}
	.st91{fill:#EE1A22;}
	.st92{fill:#F1AA25;}
	.st93{fill:#93000C;}
	.st94{fill:none;stroke:#1D1D1B;stroke-width:4;}
	.st95{fill:#3E4E70;}
	.st96{fill:#096CB6;}
	.st97{fill:#0559A8;}
	.st98{fill:#F9ED1A;}
	.st99{fill:#949494;}
	.st100{fill:#FFD033;}
	.st101{fill:#243D89;}
	.st102{fill:#F8C936;}
	.st103{fill:#D44128;}
	.st104{fill:#ED1B23;}
	.st105{fill:#0C529C;}
	.st106{fill:#E31E24;}
	.st107{fill:#0263B0;}
	.st108{fill:#007AC2;}
	.st109{fill:#EF3D1F;}
	.st110{fill:#EE1C24;}
	.st111{fill:#FDEA00;stroke:#000000;stroke-width:0.6509;}
	.st112{fill:#FDEA00;stroke:#000000;stroke-width:0.6979;}
	.st113{fill:#46A0BE;}
	.st114{fill:#005FA5;}
	.st115{fill:#00904C;}
	.st116{fill:#E21F26;}
	.st117{fill:#FD0001;}
	.st118{fill:#0066B3;}
	.st119{fill:#E20019;}
	.st120{fill:#0171BC;}
	.st121{fill:#01305D;}
	.st122{fill:#1B7EE9;}
	.st123{fill:#BA0D0B;}
	.st124{fill:none;stroke:#000000;stroke-width:3;stroke-miterlimit:10;}
	.st125{fill:#FFFFFF;stroke:#000000;stroke-width:0.8836;stroke-miterlimit:10;}
	.st126{fill:#FFFFFF;stroke:#000000;stroke-width:0.9759;stroke-miterlimit:10;}
	.st127{fill:#0053A1;}
	.st128{fill:#FFE100;}
	.st129{fill:#FFE500;}
	.st130{fill:none;stroke:#FFE500;stroke-width:2;stroke-miterlimit:10;}
	.st131{fill:#01AFF3;}
	.st132{fill:#ED1B28;}
	.st133{fill:#E2000A;}
</style>
<g>
	<g>
		<g>
			<path class="st92" d="M127.6,246.9c-49.2,0-84.1-14.5-103.8-43.1c-14.6-21.3-15-43.1-15-43.3V9.1h238.2v151.5
				c0,0.2-0.3,22-15,43.3C212.5,232.4,177.3,246.9,127.6,246.9z"/>
			<path d="M240.2,16.2v144.3c0,0.8-0.6,20.6-14.1,39.8c-7.9,11.3-18.8,20.3-32.3,26.8c-17.6,8.5-39.9,12.8-66.2,12.8
				c-26.1,0-48.1-4.3-65.6-12.8c-13.4-6.5-24.2-15.5-32.1-26.8c-13.4-19.1-14.1-38.9-14.1-39.9V16.2H240.2 M254,2H2v158.6
				c0,0,0.3,93.4,125.6,93.4C254,254,254,160.6,254,160.6V2L254,2z"/>
		</g>
	</g>
	<polygon class="st93" points="239.8,17 128,183.9 16.2,17 	"/>
	<g>
		<g>
			<path class="st94" d="M119.5,107.1c0,18.4,0,36.9,0,55.3c0,6.5-0.1,6.6-6.1,3.8c-8.1-3.8-16.4-6.1-25.4-5.4
				c-7,0.6-11.6,4-12.8,9.4c-1.6,7.1,0.4,13.8,5.4,17.1c4.5,2.9-8.7-3.3-11.9-14.3c-2.4-8.4,0.5-16.8,6.6-21.5
				c4.6-3.6,9.6-6,15.2-7.1c2.4-0.5,3.2-1.3,3.1-3.8c-0.1-9.1-0.1-18.3,0-27.4c0-2-0.6-3.4-2.1-4.7c-3.2-2.7-6.3-5.6-9.6-8.2
				c-2.2-1.8-3.2-3.5-0.3-5.2c14.9-8.7,12-23.4,11.9-37.2c0-3.2-5.9-6.3-8.8-4.7c-2.1,1.1-4.2,2.3-6.1,3.8c-2.6,2-4.3,0.8-5.9-1.4
				c-2.1-2.8,0.8-3.4,2-4.4c6.4-5,12.9-9.8,19.3-14.7c1.8-1.4,3.2-1.5,5.2-0.4c5.5,3,11.1,5.8,16.8,8.4c2.7,1.2,3.4,2.7,3.3,5.5
				c-0.1,19.1-0.1,38.1-0.1,57.2C119.4,107.1,119.4,107.1,119.5,107.1z"/>
			<path class="st94" d="M125,160.6c0-2.6-0.1-5.2,0-7.8c0.1-4.8,1-5.3,5.4-3.4c1.4,0.6,2.7,1.3,4.1,1.7c2.5,0.8,4.9,3.7,7.3,2.7
				c4.3-1.6,8.1-4.4,12.1-6.7c0.4-0.3,0.7-1,0.9-1.5c4.8-17.2,9.1-34.4,6.4-52.6c-2.5-17-11.6-29.3-25.4-38.4
				c-2.5-1.6-4.3-0.2-6.1,0.8c-3.6,1.9-4.6,0.6-4.7-3.2c-0.2-4,0.8-6.6,4.6-8.1c3.6-1.4,7-3.3,10.2-5.6c4.6-3.3,8.6-2.9,13.5-0.3
				c30.2,16.2,43.4,46.2,35.2,80.5c-2.3,9.6-5.9,18.5-10.7,27c-1.4,2.5-3.1,4.2-5.9,5.1c-14.4,4.7-27.6,11.8-38.8,22.4
				c-1.1,1-2.1,2.4-3.8,1.1c-1.7-1.2-4.3-1.7-4.2-4.7C125.1,166.7,125.1,163.6,125,160.6C125.1,160.6,125,160.6,125,160.6z"/>
		</g>
		<g>
			<path class="st0" d="M119.5,107.1c0,18.4,0,36.9,0,55.3c0,6.5-0.1,6.6-6.1,3.8c-8.1-3.8-16.4-6.1-25.4-5.4
				c-7,0.6-11.6,4-12.8,9.4c-1.6,7.1,0.4,13.8,5.4,17.1c4.5,2.9-8.7-3.3-11.9-14.3c-2.4-8.4,0.5-16.8,6.6-21.5
				c4.6-3.6,9.6-6,15.2-7.1c2.4-0.5,3.2-1.3,3.1-3.8c-0.1-9.1-0.1-18.3,0-27.4c0-2-0.6-3.4-2.1-4.7c-3.2-2.7-6.3-5.6-9.6-8.2
				c-2.2-1.8-3.2-3.5-0.3-5.2c14.9-8.7,12-23.4,11.9-37.2c0-3.2-5.9-6.3-8.8-4.7c-2.1,1.1-4.2,2.3-6.1,3.8c-2.6,2-4.3,0.8-5.9-1.4
				c-2.1-2.8,0.8-3.4,2-4.4c6.4-5,12.9-9.8,19.3-14.7c1.8-1.4,3.2-1.5,5.2-0.4c5.5,3,11.1,5.8,16.8,8.4c2.7,1.2,3.4,2.7,3.3,5.5
				c-0.1,19.1-0.1,38.1-0.1,57.2C119.4,107.1,119.4,107.1,119.5,107.1z"/>
			<path class="st0" d="M125,160.6c0-2.6-0.1-5.2,0-7.8c0.1-4.8,1-5.3,5.4-3.4c1.4,0.6,2.7,1.3,4.1,1.7c2.5,0.8,4.9,3.7,7.3,2.7
				c4.3-1.6,8.1-4.4,12.1-6.7c0.4-0.3,0.7-1,0.9-1.5c4.8-17.2,9.1-34.4,6.4-52.6c-2.5-17-11.6-29.3-25.4-38.4
				c-2.5-1.6-4.3-0.2-6.1,0.8c-3.6,1.9-4.6,0.6-4.7-3.2c-0.2-4,0.8-6.6,4.6-8.1c3.6-1.4,7-3.3,10.2-5.6c4.6-3.3,8.6-2.9,13.5-0.3
				c30.2,16.2,43.4,46.2,35.2,80.5c-2.3,9.6-5.9,18.5-10.7,27c-1.4,2.5-3.1,4.2-5.9,5.1c-14.4,4.7-27.6,11.8-38.8,22.4
				c-1.1,1-2.1,2.4-3.8,1.1c-1.7-1.2-4.3-1.7-4.2-4.7C125.1,166.7,125.1,163.6,125,160.6C125.1,160.6,125,160.6,125,160.6z"/>
		</g>
	</g>
	<g>
		<path d="M72.2,198c-2.2,7.5-11.2,11.4-19.8,7.8c-2.3-1-4.6-2-6.9-3c-1.8-0.8-2.6-2.8-1.9-4.3c3.1-6.7,6.2-13.5,9.2-20.2
			c0.7-1.5,2.6-2.2,4.1-1.4c1.9,0.9,3.9,1.8,5.9,2.6C70.1,182.5,74.4,190.5,72.2,198z M65.8,195.9c1.4-4.2-1-8.9-5.3-10.7
			c-1-0.4-2.1-0.9-3.1-1.3c-2.1,5-4.1,9.9-6.2,14.9c1.1,0.5,2.2,1,3.4,1.4C59.3,202.1,64.4,200.1,65.8,195.9z"/>
		<path d="M89.7,216.8c-1.7,0.5-3.8-0.2-4.5-2c-1.4-3.5-2.7-7-3.9-10.5c-0.2-0.1-0.4-0.1-0.6-0.2c-0.6,2.5-1.2,5-1.9,7.5
			c-0.4,1.6-2.3,2.6-4.3,2c-1.9-0.5-3-2.3-2.6-3.9c2-7.1,4.1-14.3,6.1-21.4c0.5-1.6,2.2-2.5,3.8-2.1c1.9,0.5,3.9,1.1,5.8,1.5
			c4.7,1.2,7.9,5.8,7.1,10.5c-0.6,3.3-3.1,5.8-6.3,6.6c1,2.7,2.1,5.4,3.3,8C92.4,214.5,91.6,216.2,89.7,216.8z M86.3,193.7
			c-1-0.2-1.9-0.5-2.9-0.7c-0.4,1.7-0.9,3.5-1.3,5.2c1,0.3,2,0.5,3,0.8c1.6,0.4,3.1-0.5,3.4-2C88.8,195.5,87.8,194,86.3,193.7z"/>
		<path d="M112.3,217.3c-0.1,1.6-1.8,2.9-3.7,2.7c-3.7-0.4-7.4-0.8-11-1.4c-1.9-0.3-3.3-2-3-3.6c1.2-7.4,2.4-14.7,3.7-22.1
			c0.3-1.6,1.9-2.8,3.5-2.5c3.2,0.5,6.3,0.9,9.5,1.2c1.6,0.2,2.9,1.7,2.8,3.3c-0.1,1.7-1.7,3-3.4,2.8c-2.2-0.2-4.5-0.5-6.7-0.8
			c-0.2,1.8-0.5,3.6-0.7,5.3c2.2,0.3,4.3,0.6,6.5,0.8c1.6,0.2,2.7,1.5,2.6,2.9c-0.1,1.5-1.5,2.6-3.1,2.4c-2.2-0.2-4.5-0.5-6.7-0.8
			c-0.2,1.8-0.5,3.6-0.7,5.3c2.4,0.3,4.8,0.6,7.3,0.9C111,214.1,112.5,215.6,112.3,217.3z"/>
		<path d="M131.7,218c-4.1,4.2-10.9,3.8-15.1,1.1c-1.6-1-1.8-3-0.7-4.3c0.6-0.7,1.6-1.2,2.7-1.2c1.2,0,2.3,0.7,3.4,1.1
			c1.6,0.5,3.3,0.4,4.5-0.8c1.4-1.4,0.9-3.4-0.9-4.3c-1.5-0.8-4.5-1.2-6.6-3.3c-1.6-1.6-2.4-3.8-2.2-6c0.2-3,2-5.5,4.8-6.9
			c2.9-1.5,6.5-1.5,9.3,0.1c1.5,0.9,2.1,2.8,1.2,4.2c-0.9,1.5-2.6,1.8-4.5,1c-2.4-1-5,0.7-4.3,2.6c0.6,1.6,3.8,2.1,5.4,2.8
			c2.9,1.4,5,4.1,5.4,7.1C134.3,213.7,133.6,216.1,131.7,218z"/>
		<path d="M162.3,203.5c1.5,7.7-4.6,15.4-13.8,16.4c-2.5,0.3-4.9,0.5-7.4,0.6c-1.9,0.1-3.5-1.2-3.6-2.9c-0.3-7.4-0.7-14.9-1-22.3
			c-0.1-1.7,1.2-3.1,2.9-3.3c2.1-0.1,4.2-0.3,6.2-0.5C153.4,190.8,160.8,195.8,162.3,203.5z M155.7,204.6c-0.7-4.4-4.9-7.4-9.4-6.9
			c-1.1,0.1-2.2,0.2-3.3,0.3c0.4,5.4,0.9,10.7,1.3,16.1c1.2-0.1,2.4-0.2,3.6-0.3C152.9,213.3,156.4,209,155.7,204.6z"/>
		<path d="M184.8,209.4c0.5,1.6-0.7,3.4-2.6,3.9c-3.6,1-7.2,2-10.8,2.8c-1.9,0.4-3.8-0.6-4.1-2.2c-1.4-7.3-2.9-14.6-4.3-21.9
			c-0.3-1.6,0.8-3.3,2.4-3.6c3.1-0.7,6.2-1.5,9.3-2.4c1.6-0.5,3.3,0.5,3.8,2c0.5,1.7-0.5,3.4-2.2,3.9c-2.2,0.6-4.4,1.2-6.5,1.7
			c0.4,1.7,0.8,3.5,1.2,5.2c2.1-0.5,4.3-1.1,6.4-1.7c1.5-0.4,3.1,0.4,3.5,1.8c0.4,1.4-0.5,3-2.1,3.4c-2.2,0.6-4.4,1.2-6.6,1.7
			c0.4,1.7,0.8,3.5,1.2,5.2c2.4-0.6,4.8-1.2,7.1-1.9C182.4,206.9,184.3,207.8,184.8,209.4z"/>
		<path d="M203.2,178.3c3.1,6.7,6.2,13.5,9.3,20.2c1.2,2.5-2,5.4-4.9,4.6c-0.6-0.2-1.2-0.5-1.7-0.8c-0.9-0.3-14.9-8.6-15.5-9.3
			c1.5,4.3,3,8.7,4.5,13c0.6,1.6-0.5,3.5-2.4,4.1c-1.9,0.7-3.8-0.2-4.3-1.8c-2.2-7.1-4.4-14.2-6.6-21.3c-0.5-1.6,0.4-3.3,2.1-3.9
			c1-0.3,1.9-0.1,2.8,0.4c0.8,0.6,10.4,7.1,16.3,10.3c-1.8-4.3-3.6-8.6-5.3-12.8c-0.6-1.5,0.1-3.3,1.7-4.1
			C200.7,176.2,202.5,176.8,203.2,178.3z"/>
	</g>
</g>
</svg>
