<?xml version="1.0" encoding="utf-8"?>
<!-- Generator: Adobe Illustrator 17.0.0, SVG Export Plug-In . SVG Version: 6.00 Build 0)  -->
<!DOCTYPE svg PUBLIC "-//W3C//DTD SVG 1.1//EN" "http://www.w3.org/Graphics/SVG/1.1/DTD/svg11.dtd" [
	<!ENTITY ns_flows "http://ns.adobe.com/Flows/1.0/">
	<!ENTITY ns_extend "http://ns.adobe.com/Extensibility/1.0/">
	<!ENTITY ns_ai "http://ns.adobe.com/AdobeIllustrator/10.0/">
	<!ENTITY ns_graphs "http://ns.adobe.com/Graphs/1.0/">
]>
<svg version="1.1" id="Layer_2" xmlns:x="&ns_extend;" xmlns:i="&ns_ai;" xmlns:graph="&ns_graphs;"
	 xmlns="http://www.w3.org/2000/svg" xmlns:xlink="http://www.w3.org/1999/xlink" xmlns:a="http://ns.adobe.com/AdobeSVGViewerExtensions/3.0/"
	 x="0px" y="0px" width="256px" height="256px" viewBox="0 0 256 256" style="enable-background:new 0 0 256 256;"
	 xml:space="preserve">
<style type="text/css">
	.st0{fill:#FFFFFF;}
	.st1{fill:#54B948;}
	.st2{fill:#1D8C8E;}
	.st3{fill:#14DEAC;}
	.st4{fill:#1466AC;}
	.st5{fill:#757575;}
	.st6{fill:#B69442;}
	.st7{fill:#1A234D;}
	.st8{fill:#AA0629;}
	.st9{fill:#FF4A49;}
	.st10{fill:#3C6643;}
	.st11{fill:none;stroke:#FF4A49;stroke-miterlimit:10;}
	.st12{fill:#E70084;}
	.st13{fill:#508A72;}
	.st14{fill:#01A663;}
	.st15{fill:#015297;}
	.st16{fill:#B0B0B0;}
	.st17{fill:#E1062F;}
	.st18{fill:#D80000;stroke:#FFFFFF;stroke-width:2;stroke-miterlimit:10;}
	.st19{fill:#D80000;}
	.st20{fill:#8ABE23;}
	.st21{fill:#1D1D1B;}
	.st22{fill:#FEFEFE;}
	.st23{fill:#FF0000;}
	.st24{fill:#FF1D1B;}
	.st25{fill:#6DB2DE;}
	.st26{fill:#FF1D25;}
	.st27{fill:#FFDA00;}
	.st28{fill:#024D9E;}
	.st29{fill:#6B97C6;}
	.st30{fill:#000078;}
	.st31{fill:none;stroke:#FFFFFF;stroke-width:6;stroke-linecap:round;stroke-miterlimit:10;}
	.st32{fill:#FFEE34;}
	.st33{fill:none;stroke:#000000;stroke-width:4;stroke-miterlimit:10;}
	.st34{fill:#D11E24;}
	.st35{fill:#D71F26;}
	.st36{fill:#020000;}
	.st37{fill:none;stroke:#000000;stroke-width:2;stroke-miterlimit:10;}
	.st38{clip-path:url(#SVGID_2_);}
	.st39{fill:#00317D;}
	.st40{fill:#00737D;}
	.st41{fill:#ED1C24;}
	.st42{fill:#2678C7;}
	.st43{fill:#1853A6;}
	.st44{fill:#CB0000;}
	.st45{fill:#E61C21;}
	.st46{clip-path:url(#SVGID_4_);}
	.st47{fill:#6BDEF1;}
	.st48{clip-path:url(#SVGID_6_);}
	.st49{fill:#0165B2;}
	.st50{fill:#DE1134;}
	.st51{fill:#00A668;}
	.st52{fill:#FFE60B;}
	.st53{fill:#843D00;stroke:#000000;stroke-miterlimit:10;}
	.st54{fill:#EC1F27;}
	.st55{fill:#162984;}
	.st56{fill:#1853A6;stroke:#1853A6;stroke-miterlimit:10;}
	.st57{fill:none;}
	.st58{fill:none;stroke:#1853A6;stroke-width:0.9;stroke-miterlimit:10;}
	.st59{fill:#1853A6;stroke:#1853A6;stroke-width:0.9;stroke-miterlimit:10;}
	.st60{fill:#B5985A;}
	.st61{fill:#FFE60B;stroke:#000000;stroke-width:6;stroke-miterlimit:10;}
	.st62{fill:#008DCD;}
	.st63{fill:#009939;}
	.st64{fill:#2E3092;}
	.st65{fill:#EE3224;}
	.st66{fill:#005BAB;}
	.st67{fill:#D30027;}
	.st68{fill:#FFFFFF;stroke:#D30027;stroke-width:10;stroke-miterlimit:10;}
	.st69{fill:#E81C2F;}
	.st70{fill:#DC032B;}
	.st71{fill:#F25448;}
	.st72{fill:#FFFFFF;stroke:#F25448;stroke-width:6;stroke-miterlimit:10;}
	.st73{fill:#05A08D;}
	.st74{fill:#1875CE;}
	.st75{fill:#D72427;}
	.st76{fill:#004993;}
	.st77{fill:#007BB0;}
	.st78{fill:#FFEB00;}
	.st79{fill:#664A9E;}
	.st80{fill:#F4C701;}
	.st81{fill:#EBBE12;}
	.st82{fill:#44B3DB;}
	.st83{fill:#F6FF82;}
	.st84{fill:#FFC918;}
	.st85{fill:#0361A4;}
	.st86{fill:#009FE3;}
	.st87{fill:#E30217;}
	.st88{fill:#FDEA00;}
	.st89{fill:#E91B00;}
	.st90{fill:#2B2763;}
	.st91{fill:#EE1A22;}
	.st92{fill:#F1AA25;}
	.st93{fill:#93000C;}
	.st94{fill:none;stroke:#1D1D1B;stroke-width:4;}
	.st95{fill:#3E4E70;}
	.st96{fill:#096CB6;}
	.st97{fill:#0559A8;}
	.st98{fill:#F9ED1A;}
	.st99{fill:#949494;}
	.st100{fill:#FFD033;}
	.st101{fill:#243D89;}
	.st102{fill:#F8C936;}
	.st103{fill:#D44128;}
	.st104{fill:#ED1B23;}
	.st105{fill:#0C529C;}
	.st106{fill:#E31E24;}
	.st107{fill:#0263B0;}
	.st108{fill:#007AC2;}
	.st109{fill:#EF3D1F;}
	.st110{fill:#EE1C24;}
	.st111{fill:#FDEA00;stroke:#000000;stroke-width:0.6509;}
	.st112{fill:#FDEA00;stroke:#000000;stroke-width:0.6979;}
	.st113{fill:#46A0BE;}
	.st114{fill:#005FA5;}
	.st115{fill:#00904C;}
	.st116{fill:#E21F26;}
	.st117{fill:#FD0001;}
	.st118{fill:#0066B3;}
	.st119{fill:#E20019;}
	.st120{fill:#0171BC;}
	.st121{fill:#01305D;}
	.st122{fill:#1B7EE9;}
	.st123{fill:#BA0D0B;}
	.st124{fill:none;stroke:#000000;stroke-width:3;stroke-miterlimit:10;}
	.st125{fill:#FFFFFF;stroke:#000000;stroke-width:0.8836;stroke-miterlimit:10;}
	.st126{fill:#FFFFFF;stroke:#000000;stroke-width:0.9759;stroke-miterlimit:10;}
	.st127{fill:#0053A1;}
	.st128{fill:#FFE100;}
	.st129{fill:#FFE500;}
	.st130{fill:none;stroke:#FFE500;stroke-width:2;stroke-miterlimit:10;}
	.st131{fill:#01AFF3;}
	.st132{fill:#ED1B28;}
	.st133{fill:#E2000A;}
</style>
<g>
	<g>
		<path class="st88" d="M128,249.4C61,249.4,6.6,195,6.6,128S61,6.6,128,6.6S249.4,61,249.4,128S195,249.4,128,249.4z"/>
		<path d="M128,11.1c31.2,0,60.6,12.2,82.6,34.2s34.2,51.4,34.2,82.6s-12.2,60.6-34.2,82.6s-51.4,34.2-82.6,34.2
			s-60.6-12.2-82.6-34.2S11.1,159.2,11.1,128s12.2-60.6,34.2-82.6S96.8,11.1,128,11.1 M128,2C58.4,2,2,58.4,2,128s56.4,126,126,126
			s126-56.4,126-126S197.6,2,128,2L128,2z"/>
	</g>
	<g>
		<circle class="st88" cx="128" cy="128" r="107.1"/>
		<path d="M128,237.6c-60.5,0-109.6-49.2-109.6-109.6S67.5,18.4,128,18.4S237.6,67.5,237.6,128S188.5,237.6,128,237.6z M128,23.4
			C70.3,23.4,23.4,70.3,23.4,128S70.3,232.6,128,232.6S232.6,185.7,232.6,128S185.7,23.4,128,23.4z"/>
	</g>
	<g>
		<path d="M191.7,111.6c4.6-2.7,8.3-5.1,12.2-7c3-1.5,3.9-3.5,3.8-6.7c-0.2-6.8-0.1-13.5-0.1-20.3c0-7.1-4.4-13.3-11.4-13.6
			c-12-0.6-24-0.2-37.5-0.2c3.8,3.3,3.3,6.6,3.3,9.7c0,18,0,36,0,54c0,5.8-2,12.6,0.3,17.3c2.4,4.9,8.8,7.9,13.6,11.7
			c10.8,8.6,21.6,17.2,32.5,25.9c-0.7-5.6-0.7-10.9-0.7-16.1c0.1-13.4-0.1-26.7,0.1-40.1c0.1-4.2-0.8-7-5.1-8.6
			C199,116,195.8,113.8,191.7,111.6z"/>
		<path d="M47.8,63.7c1.8,3.1,2.7,5.2,2.7,7.9c-0.1,37.5-0.1,75-0.1,112.9c0.9-0.6,1.6-1,2.3-1.6c13.9-11.1,27.8-22.3,41.8-33.3
			c2.4-1.9,2.5-4,2.5-6.5c0-22.4,0-44.9,0-67.3c0-12.2,0-12-12.4-12.1c-4.2-0.1-5,1.4-4.9,5.2c0.2,19.1,0.1,38.1,0.1,57.2
			c0,9.6-2,12.3-11.9,16.2c0-2.6,0-5.1,0-7.5c0-21.7-0.2-43.5,0.1-65.2c0.1-4.9-1.4-6.2-6-5.8C57.5,64,53.1,63.7,47.8,63.7z"/>
		<path d="M124.7,156c0.1-2.6,0.3-4.3,0.3-6c0-10,0-19.9,0-29.9c0-2.1-0.3-4.1,3-4.4c7.1-0.5,7.1-0.7,7.1-8.2c0-2.1-0.2-4.3,0-6.4
			c0.3-3.3-1.1-4.7-4.3-4.2c-5.3,0.9-6.5-1.7-5.9-6.3c0.2-1.9,0-3.9,0-5.9c0.1-3.9,3-2.8,5.1-2.7c2,0.1,4.9-1.3,5.2,2.6
			c0.2,2.4-1.3,5.7,0.9,7c2,1.2,5.2,0.5,7.8,0.6c1.8,0.1,3.6-0.1,5.3,0c3.3,0.3,4.9-0.6,4.6-4.4c-0.3-4.4,0-8.9-0.1-13.3
			c-0.1-6-5-10.8-11.1-10.9c-8.2,0-16.4,0-24.6,0c-5.6,0-10.8,5.1-10.8,10.7c0,21.5,0,43.1,0,64.6c0,1.6-0.3,3.2,1.2,4.4
			C113.8,147.4,118.9,151.4,124.7,156z"/>
		<path class="st88" d="M178.9,101.8c0-6.3,0-11.9,0-17.5c0-1.5,0.5-2.5,2.1-2.4c3.2,0.4,7.7-1.8,9.4,1.1c1.8,3.1,1.8,8.2,0,11.3
			C188.2,97.9,183.4,99.3,178.9,101.8z"/>
		<path class="st88" d="M179.8,122.2c11.8,5.3,13.1,7.8,10.7,20.1C183.2,137.7,176.1,133,179.8,122.2z"/>
	</g>
	<g>
		<path d="M107.8,215.9c-9.4,0-17.2-7.7-17.2-17.2v-17.5c0-9.4,7.8-17.2,17.2-17.2c9.5,0,17.2,7.7,17.2,17.2v17.5
			C125,208.2,117.3,215.9,107.8,215.9z M101.6,181.3v17.5c0,3.4,2.8,6.3,6.2,6.3c3.4,0,6.2-2.9,6.2-6.3v-17.5c0-3.4-2.8-6.3-6.2-6.3
			C104.4,175,101.6,177.9,101.6,181.3z"/>
		<path d="M130.5,182.2c0-10.1,8.1-18.1,18.1-18.1c10.1,0,18.1,8.1,18.1,18.1c0,3-0.4,5.9-1.9,8.3l-13.3,22.3
			c-1.5,2.6-4.9,3.5-7.5,1.9c-2.6-1.5-3.4-4.9-1.9-7.5l4.1-7.1C137.4,199,130.5,191.3,130.5,182.2z M141.4,182.2
			c0,3.9,3.2,7.2,7.2,7.2c4.3,0,7.2-3.4,7.2-7.2c0-3.9-3.2-7.2-7.2-7.2C144.7,175,141.4,178.3,141.4,182.2z"/>
	</g>
</g>
</svg>
