<?xml version="1.0" encoding="utf-8"?>
<!-- Generator: Adobe Illustrator 17.0.0, SVG Export Plug-In . SVG Version: 6.00 Build 0)  -->
<!DOCTYPE svg PUBLIC "-//W3C//DTD SVG 1.1//EN" "http://www.w3.org/Graphics/SVG/1.1/DTD/svg11.dtd" [
	<!ENTITY ns_flows "http://ns.adobe.com/Flows/1.0/">
	<!ENTITY ns_extend "http://ns.adobe.com/Extensibility/1.0/">
	<!ENTITY ns_ai "http://ns.adobe.com/AdobeIllustrator/10.0/">
	<!ENTITY ns_graphs "http://ns.adobe.com/Graphs/1.0/">
]>
<svg version="1.1" id="Layer_2" xmlns:x="&ns_extend;" xmlns:i="&ns_ai;" xmlns:graph="&ns_graphs;"
	 xmlns="http://www.w3.org/2000/svg" xmlns:xlink="http://www.w3.org/1999/xlink" xmlns:a="http://ns.adobe.com/AdobeSVGViewerExtensions/3.0/"
	 x="0px" y="0px" width="256px" height="256px" viewBox="0 0 256 256" style="enable-background:new 0 0 256 256;"
	 xml:space="preserve">
<style type="text/css">
	.st0{fill:#FFFFFF;}
	.st1{fill:#54B948;}
	.st2{fill:#1D8C8E;}
	.st3{fill:#14DEAC;}
	.st4{fill:#1466AC;}
	.st5{fill:#757575;}
	.st6{fill:#B69442;}
	.st7{fill:#1A234D;}
	.st8{fill:#AA0629;}
	.st9{fill:#FF4A49;}
	.st10{fill:#3C6643;}
	.st11{fill:none;stroke:#FF4A49;stroke-miterlimit:10;}
	.st12{fill:#E70084;}
	.st13{fill:#508A72;}
	.st14{fill:#01A663;}
	.st15{fill:#015297;}
	.st16{fill:#B0B0B0;}
	.st17{fill:#E1062F;}
	.st18{fill:#D80000;stroke:#FFFFFF;stroke-width:2;stroke-miterlimit:10;}
	.st19{fill:#D80000;}
	.st20{fill:#8ABE23;}
	.st21{fill:#1D1D1B;}
	.st22{fill:#FEFEFE;}
	.st23{fill:#FF0000;}
	.st24{fill:#FF1D1B;}
	.st25{fill:#6DB2DE;}
	.st26{fill:#FF1D25;}
	.st27{fill:#FFDA00;}
	.st28{fill:#024D9E;}
	.st29{fill:#6B97C6;}
	.st30{fill:#000078;}
	.st31{fill:none;stroke:#FFFFFF;stroke-width:6;stroke-linecap:round;stroke-miterlimit:10;}
	.st32{fill:#FFEE34;}
	.st33{fill:none;stroke:#000000;stroke-width:4;stroke-miterlimit:10;}
	.st34{fill:#D11E24;}
	.st35{fill:#D71F26;}
	.st36{fill:#020000;}
	.st37{fill:none;stroke:#000000;stroke-width:2;stroke-miterlimit:10;}
	.st38{clip-path:url(#SVGID_2_);}
	.st39{fill:#00317D;}
	.st40{fill:#00737D;}
	.st41{fill:#ED1C24;}
	.st42{fill:#2678C7;}
	.st43{fill:#1853A6;}
	.st44{fill:#CB0000;}
	.st45{fill:#E61C21;}
	.st46{clip-path:url(#SVGID_4_);}
	.st47{fill:#6BDEF1;}
	.st48{clip-path:url(#SVGID_6_);}
	.st49{fill:#0165B2;}
	.st50{fill:#DE1134;}
	.st51{fill:#00A668;}
	.st52{fill:#FFE60B;}
	.st53{fill:#843D00;stroke:#000000;stroke-miterlimit:10;}
	.st54{fill:#EC1F27;}
	.st55{fill:#162984;}
	.st56{fill:#1853A6;stroke:#1853A6;stroke-miterlimit:10;}
	.st57{fill:none;}
	.st58{fill:none;stroke:#1853A6;stroke-width:0.9;stroke-miterlimit:10;}
	.st59{fill:#1853A6;stroke:#1853A6;stroke-width:0.9;stroke-miterlimit:10;}
	.st60{fill:#B5985A;}
	.st61{fill:#FFE60B;stroke:#000000;stroke-width:6;stroke-miterlimit:10;}
	.st62{fill:#008DCD;}
	.st63{fill:#009939;}
	.st64{fill:#2E3092;}
	.st65{fill:#EE3224;}
	.st66{fill:#005BAB;}
	.st67{fill:#D30027;}
	.st68{fill:#FFFFFF;stroke:#D30027;stroke-width:10;stroke-miterlimit:10;}
	.st69{fill:#E81C2F;}
	.st70{fill:#DC032B;}
	.st71{fill:#F25448;}
	.st72{fill:#FFFFFF;stroke:#F25448;stroke-width:6;stroke-miterlimit:10;}
	.st73{fill:#05A08D;}
	.st74{fill:#1875CE;}
	.st75{fill:#D72427;}
	.st76{fill:#004993;}
	.st77{fill:#007BB0;}
	.st78{fill:#FFEB00;}
	.st79{fill:#664A9E;}
	.st80{fill:#F4C701;}
	.st81{fill:#EBBE12;}
	.st82{fill:#44B3DB;}
	.st83{fill:#F6FF82;}
	.st84{fill:#FFC918;}
	.st85{fill:#0361A4;}
	.st86{fill:#009FE3;}
	.st87{fill:#E30217;}
	.st88{fill:#FDEA00;}
	.st89{fill:#E91B00;}
	.st90{fill:#2B2763;}
	.st91{fill:#EE1A22;}
	.st92{fill:#F1AA25;}
	.st93{fill:#93000C;}
	.st94{fill:none;stroke:#1D1D1B;stroke-width:4;}
	.st95{fill:#3E4E70;}
	.st96{fill:#096CB6;}
	.st97{fill:#0559A8;}
	.st98{fill:#F9ED1A;}
	.st99{fill:#949494;}
	.st100{fill:#FFD033;}
	.st101{fill:#243D89;}
	.st102{fill:#F8C936;}
	.st103{fill:#D44128;}
	.st104{fill:#ED1B23;}
	.st105{fill:#0C529C;}
	.st106{fill:#E31E24;}
	.st107{fill:#0263B0;}
	.st108{fill:#007AC2;}
	.st109{fill:#EF3D1F;}
	.st110{fill:#EE1C24;}
	.st111{fill:#FDEA00;stroke:#000000;stroke-width:0.6509;}
	.st112{fill:#FDEA00;stroke:#000000;stroke-width:0.6979;}
	.st113{fill:#46A0BE;}
	.st114{fill:#005FA5;}
	.st115{fill:#00904C;}
	.st116{fill:#E21F26;}
	.st117{fill:#FD0001;}
	.st118{fill:#0066B3;}
	.st119{fill:#E20019;}
	.st120{fill:#0171BC;}
	.st121{fill:#01305D;}
	.st122{fill:#1B7EE9;}
	.st123{fill:#BA0D0B;}
	.st124{fill:none;stroke:#000000;stroke-width:3;stroke-miterlimit:10;}
	.st125{fill:#FFFFFF;stroke:#000000;stroke-width:0.8836;stroke-miterlimit:10;}
	.st126{fill:#FFFFFF;stroke:#000000;stroke-width:0.9759;stroke-miterlimit:10;}
	.st127{fill:#0053A1;}
	.st128{fill:#FFE100;}
	.st129{fill:#FFE500;}
	.st130{fill:none;stroke:#FFE500;stroke-width:2;stroke-miterlimit:10;}
	.st131{fill:#01AFF3;}
	.st132{fill:#ED1B28;}
	.st133{fill:#E2000A;}
</style>
<g>
	<g>
		<g>
			<path class="st0" d="M128,249.4C61,249.4,6.6,195,6.6,128S61,6.6,128,6.6S249.4,61,249.4,128S195,249.4,128,249.4z"/>
			<path class="st104" d="M128,11.1c31.2,0,60.6,12.2,82.6,34.2s34.2,51.4,34.2,82.6s-12.2,60.6-34.2,82.6s-51.4,34.2-82.6,34.2
				s-60.6-12.2-82.6-34.2S11.1,159.2,11.1,128s12.2-60.6,34.2-82.6S96.8,11.1,128,11.1 M128,2C58.4,2,2,58.4,2,128s56.4,126,126,126
				s126-56.4,126-126S197.6,2,128,2L128,2z"/>
		</g>
		<g>
			<circle class="st0" cx="128" cy="128" r="107.1"/>
			<path class="st104" d="M128,237.6c-60.5,0-109.6-49.2-109.6-109.6S67.5,18.4,128,18.4S237.6,67.5,237.6,128
				S188.5,237.6,128,237.6z M128,23.4C70.3,23.4,23.4,70.3,23.4,128S70.3,232.6,128,232.6S232.6,185.7,232.6,128
				S185.7,23.4,128,23.4z M128,28.7c-54.8,0-99.3,44.6-99.3,99.3s44.6,99.3,99.3,99.3s99.3-44.6,99.3-99.3S182.8,28.7,128,28.7z"/>
		</g>
	</g>
	<g>
		<g>
			<path class="st0" d="M184.8,88.4c-36.2,0-68.4,0.6-100.5-0.3C72,87.7,68.9,74.3,61.6,65.6c32.9,0,65.9-0.6,98.8,0.3
				C171.7,66.3,174.1,79.6,184.8,88.4z"/>
			<path class="st0" d="M93.9,129.8c0,9.7-0.2,19.5,0.1,29.2c0.2,6.7-2.4,7.3-7.4,3.9c-0.3-0.2-0.7-0.4-1.1-0.6
				c-22.2-11.7-27.2-22.8-22-48.8c0.7-3.6,25-20.5,28.1-19.3c3.2,1.2,2.2,4.2,2.3,6.5C93.9,110.3,93.9,120,93.9,129.8z"/>
			<path class="st0" d="M152.5,104.1c-11.9,27.5-34.7,23-56.6,21.6C105.5,104.1,109.9,102.4,152.5,104.1z"/>
		</g>
	</g>
	<g>
		<path class="st0" d="M154,191.5c-2.2,3.1-5.6,4.6-10.2,4.6c-4.6,0-8-1.3-10.1-3.8c-2.1-2.5-3.2-6.7-3.2-12.5v-3.5h9.3v1.4
			c0,4,0.3,6.6,0.8,8c0.5,1.3,1.5,2,3,2c1.5,0,2.4-0.3,2.7-0.9c0.3-0.6,0.6-1.2,0.8-1.8c0.2-0.6,0.3-2.5,0.3-5.7v-9.6
			c-1.3,0.9-3.3,1.4-6,1.4c-4.4,0-7.4-1.6-9.3-4.7c-1.8-3.2-2.7-7.9-2.7-14.3v-2.3c0-8,1.4-13.4,4.1-16.2c2.2-2.2,5.5-3.4,9.6-3.4
			s7.2,0.8,9.2,2.4c2,1.6,3.2,3.8,3.8,6.7c0.6,2.8,0.9,6.5,0.9,11v25.8C157.2,183.2,156.1,188.4,154,191.5z M143.3,162.9
			c2.4,0,3.8-1.1,4.1-3.2v-12.2c0-3.2-0.3-5.5-0.9-6.9c-0.6-1.4-1.7-2.1-3.3-2.1c-1.6,0-2.7,0.7-3.3,2.1c-0.6,1.4-0.9,3.7-0.9,6.9
			v5.8c0,3.6,0.3,6,0.9,7.4C140.6,162.2,141.7,162.9,143.3,162.9z"/>
		<path class="st0" d="M179.2,196.1c-8.5,0-12.8-4.4-12.8-13.3v-8.1h9.2v7.1c0,3,0.6,4.8,1.7,5.5c0.4,0.3,1.1,0.4,2.1,0.4
			c0,0,0.1,0,0.2,0c2.2,0,3.2-2.1,3.2-6.3v-16.5c0-2.3-0.2-4.1-0.7-5.3c-0.5-1.2-1.4-1.7-2.9-1.7c-2.5,0-3.8,2.1-3.8,6.3l-8.7-0.4
			v-32.9h23.9v8.8h-14.8v13.1c0.5-0.9,1.3-1.6,2.5-2.2c1.2-0.6,2.5-0.8,4-0.8c3.8,0,6.4,1.7,7.8,5c1.5,3.3,2.2,8.6,2.2,15.8
			s-0.3,12.2-0.8,15c-0.5,2.8-1.2,4.9-2.2,6.4C187.5,194.7,184.1,196.1,179.2,196.1z"/>
	</g>
</g>
</svg>
