<?xml version="1.0" encoding="utf-8"?>
<!-- Generator: Adobe Illustrator 17.0.0, SVG Export Plug-In . SVG Version: 6.00 Build 0)  -->
<!DOCTYPE svg PUBLIC "-//W3C//DTD SVG 1.1//EN" "http://www.w3.org/Graphics/SVG/1.1/DTD/svg11.dtd" [
	<!ENTITY ns_flows "http://ns.adobe.com/Flows/1.0/">
	<!ENTITY ns_extend "http://ns.adobe.com/Extensibility/1.0/">
	<!ENTITY ns_ai "http://ns.adobe.com/AdobeIllustrator/10.0/">
	<!ENTITY ns_graphs "http://ns.adobe.com/Graphs/1.0/">
]>
<svg version="1.1" id="Layer_2" xmlns:x="&ns_extend;" xmlns:i="&ns_ai;" xmlns:graph="&ns_graphs;"
	 xmlns="http://www.w3.org/2000/svg" xmlns:xlink="http://www.w3.org/1999/xlink" xmlns:a="http://ns.adobe.com/AdobeSVGViewerExtensions/3.0/"
	 x="0px" y="0px" width="256px" height="256px" viewBox="0 0 256 256" style="enable-background:new 0 0 256 256;"
	 xml:space="preserve">
<style type="text/css">
	.st0{fill:#FFFFFF;}
	.st1{fill:#54B948;}
	.st2{fill:#1D8C8E;}
	.st3{fill:#14DEAC;}
	.st4{fill:#1466AC;}
	.st5{fill:#757575;}
	.st6{fill:#B69442;}
	.st7{fill:#1A234D;}
	.st8{fill:#AA0629;}
	.st9{fill:#FF4A49;}
	.st10{fill:#3C6643;}
	.st11{fill:none;stroke:#FF4A49;stroke-miterlimit:10;}
	.st12{fill:#E70084;}
	.st13{fill:#508A72;}
	.st14{fill:#01A663;}
	.st15{fill:#015297;}
	.st16{fill:#B0B0B0;}
	.st17{fill:#E1062F;}
	.st18{fill:#D80000;stroke:#FFFFFF;stroke-width:2;stroke-miterlimit:10;}
	.st19{fill:#D80000;}
	.st20{fill:#8ABE23;}
	.st21{fill:#1D1D1B;}
	.st22{fill:#FEFEFE;}
	.st23{fill:#FF0000;}
	.st24{fill:#FF1D1B;}
	.st25{fill:#6DB2DE;}
	.st26{fill:#FF1D25;}
	.st27{fill:#FFDA00;}
	.st28{fill:#024D9E;}
	.st29{fill:#6B97C6;}
	.st30{fill:#000078;}
	.st31{fill:none;stroke:#FFFFFF;stroke-width:6;stroke-linecap:round;stroke-miterlimit:10;}
	.st32{fill:#FFEE34;}
	.st33{fill:none;stroke:#000000;stroke-width:4;stroke-miterlimit:10;}
	.st34{fill:#D11E24;}
	.st35{fill:#D71F26;}
	.st36{fill:#020000;}
	.st37{fill:none;stroke:#000000;stroke-width:2;stroke-miterlimit:10;}
	.st38{clip-path:url(#SVGID_2_);}
	.st39{fill:#00317D;}
	.st40{fill:#00737D;}
	.st41{fill:#ED1C24;}
	.st42{fill:#2678C7;}
	.st43{fill:#1853A6;}
	.st44{fill:#CB0000;}
	.st45{fill:#E61C21;}
	.st46{clip-path:url(#SVGID_4_);}
	.st47{fill:#6BDEF1;}
	.st48{clip-path:url(#SVGID_6_);}
	.st49{fill:#0165B2;}
	.st50{fill:#DE1134;}
	.st51{fill:#00A668;}
	.st52{fill:#FFE60B;}
	.st53{fill:#843D00;stroke:#000000;stroke-miterlimit:10;}
	.st54{fill:#EC1F27;}
	.st55{fill:#162984;}
	.st56{fill:#1853A6;stroke:#1853A6;stroke-miterlimit:10;}
	.st57{fill:none;}
	.st58{fill:none;stroke:#1853A6;stroke-width:0.9;stroke-miterlimit:10;}
	.st59{fill:#1853A6;stroke:#1853A6;stroke-width:0.9;stroke-miterlimit:10;}
	.st60{fill:#B5985A;}
	.st61{fill:#FFE60B;stroke:#000000;stroke-width:6;stroke-miterlimit:10;}
	.st62{fill:#008DCD;}
	.st63{fill:#009939;}
	.st64{fill:#2E3092;}
	.st65{fill:#EE3224;}
	.st66{fill:#005BAB;}
	.st67{fill:#D30027;}
	.st68{fill:#FFFFFF;stroke:#D30027;stroke-width:10;stroke-miterlimit:10;}
	.st69{fill:#E81C2F;}
	.st70{fill:#DC032B;}
	.st71{fill:#F25448;}
	.st72{fill:#FFFFFF;stroke:#F25448;stroke-width:6;stroke-miterlimit:10;}
	.st73{fill:#05A08D;}
	.st74{fill:#1875CE;}
	.st75{fill:#D72427;}
	.st76{fill:#004993;}
	.st77{fill:#007BB0;}
	.st78{fill:#FFEB00;}
	.st79{fill:#664A9E;}
	.st80{fill:#F4C701;}
	.st81{fill:#EBBE12;}
	.st82{fill:#44B3DB;}
	.st83{fill:#F6FF82;}
	.st84{fill:#FFC918;}
	.st85{fill:#0361A4;}
	.st86{fill:#009FE3;}
	.st87{fill:#E30217;}
	.st88{fill:#FDEA00;}
	.st89{fill:#E91B00;}
	.st90{fill:#2B2763;}
	.st91{fill:#EE1A22;}
	.st92{fill:#F1AA25;}
	.st93{fill:#93000C;}
	.st94{fill:none;stroke:#1D1D1B;stroke-width:4;}
	.st95{fill:#3E4E70;}
	.st96{fill:#096CB6;}
	.st97{fill:#0559A8;}
	.st98{fill:#F9ED1A;}
	.st99{fill:#949494;}
	.st100{fill:#FFD033;}
	.st101{fill:#243D89;}
	.st102{fill:#F8C936;}
	.st103{fill:#D44128;}
	.st104{fill:#ED1B23;}
	.st105{fill:#0C529C;}
	.st106{fill:#E31E24;}
	.st107{fill:#0263B0;}
	.st108{fill:#007AC2;}
	.st109{fill:#EF3D1F;}
	.st110{fill:#EE1C24;}
	.st111{fill:#FDEA00;stroke:#000000;stroke-width:0.6509;}
	.st112{fill:#FDEA00;stroke:#000000;stroke-width:0.6979;}
	.st113{fill:#46A0BE;}
	.st114{fill:#005FA5;}
	.st115{fill:#00904C;}
	.st116{fill:#E21F26;}
	.st117{fill:#FD0001;}
	.st118{fill:#0066B3;}
	.st119{fill:#E20019;}
	.st120{fill:#0171BC;}
	.st121{fill:#01305D;}
	.st122{fill:#1B7EE9;}
	.st123{fill:#BA0D0B;}
	.st124{fill:none;stroke:#000000;stroke-width:3;stroke-miterlimit:10;}
	.st125{fill:#FFFFFF;stroke:#000000;stroke-width:0.8836;stroke-miterlimit:10;}
	.st126{fill:#FFFFFF;stroke:#000000;stroke-width:0.9759;stroke-miterlimit:10;}
	.st127{fill:#0053A1;}
	.st128{fill:#FFE100;}
	.st129{fill:#FFE500;}
	.st130{fill:none;stroke:#FFE500;stroke-width:2;stroke-miterlimit:10;}
	.st131{fill:#01AFF3;}
	.st132{fill:#ED1B28;}
	.st133{fill:#E2000A;}
</style>
<g>
	<g>
		<path class="st0" d="M189.6,2c-39.7,0-83.7,0-122.1,0c0,35.1-29.1,63.5-65.5,64.6C22.1,253.4,128,254,128,254s105.9-0.4,126-187.3
			C218.1,65.1,189.6,36.1,189.6,2L189.6,2z"/>
		<path class="st96" d="M189.6,2c-39.7,0-83.7,0-122.1,0c0,35.1-29.1,63.5-65.5,64.6C22.1,253.4,128,254,128,254
			s105.9-0.4,126-187.3C218.1,65.1,189.6,36.1,189.6,2L189.6,2z"/>
	</g>
	<g>
		<path class="st96" d="M58.9,57.6c-11.1,11-25,18.3-40.2,21.7c4.7,33.8,12.8,63,24.2,86.9c10.1,21.2,22.6,38.3,37.4,50.8
			c23.7,20,45.1,21.6,47.7,21.8c2.6-0.1,24-1.7,47.7-21.7c2.5-2.1,4.9-4.3,7.2-6.6L76.9,30.8C72.9,40.6,66.8,49.8,58.9,57.6z"/>
		<path class="st0" d="M213.1,166.4c11.3-24,19.5-53.2,24.2-87.1c-15-3.6-28.6-11.2-39.6-22.3C186.5,45.6,179.1,17,176.1,17l-0.1,0
			H81c-0.9,4.7-2.3,9.3-4.2,13.8l106.1,179.7C194.6,198.9,204.8,184.1,213.1,166.4z"/>
	</g>
	<g>
		<path class="st0" d="M49.2,171.8L33.4,70.1h14.7l6.6,45.9l4.1,32.4h0.4l3.5-32.4l5.5-45.9h14.4L68.3,171.8H49.2z"/>
		<path class="st0" d="M87.9,199.9v-72.2h-6.7v-11H88v-4.5c0-4.9,1.3-8.6,3.8-11.3c2.5-2.7,5.9-4,10.1-4c4.2,0,7.6,0.5,10.2,1.4v9.6
			c-1.2-0.2-2.5-0.2-4-0.2c-3.2,0-4.7,1.7-4.7,5v4h8.8v11h-8.8v72.2H87.9z"/>
		<path class="st0" d="M115.9,228V126.3h15.5v88.5H151V228H115.9z"/>
	</g>
	<g>
		<path class="st96" d="M126.6,79.7c0,3.5-1,5.6-2.9,6.4c2.3,0.8,3.5,3.3,3.5,7.6v0.8c0,3.2-0.6,5.6-1.7,7c-1.1,1.4-2.9,2.1-5.5,2.1
			h-7.2V71.4h7.1c2.4,0,4.2,0.6,5.2,1.7c1,1.1,1.5,3,1.5,5.6V79.7z M117.8,84.5h1.8c0.9,0,1.4-0.3,1.7-0.8c0.3-0.5,0.4-1.6,0.4-3.3
			v-1.9c0-1.2-0.2-2.1-0.5-2.5c-0.3-0.4-0.9-0.6-1.7-0.6h-1.7V84.5z M117.8,99.9h1.8c1,0,1.7-0.3,2.1-1c0.4-0.7,0.6-1.9,0.6-3.6
			v-2.6c0-1.6-0.2-2.8-0.5-3.5c-0.3-0.7-0.9-1-1.9-1h-2.1V99.9z"/>
		<path class="st96" d="M143.5,101.7c-1.1,1.6-3,2.3-5.5,2.3s-4.3-0.8-5.5-2.3s-1.8-3.9-1.8-7V79.9c0-5.9,2.4-8.9,7.3-8.9
			c2.5,0,4.3,0.8,5.4,2.3c1.1,1.5,1.7,3.7,1.7,6.6v14.8C145.2,97.8,144.6,100.2,143.5,101.7z M136.2,98.7c0.3,0.7,0.9,1.1,1.8,1.1
			c0.9,0,1.5-0.4,1.8-1.1c0.3-0.8,0.4-2.1,0.4-3.9v-15c0-1.5-0.1-2.6-0.4-3.3c-0.3-0.7-0.9-1.1-1.7-1.1c-0.8,0-1.4,0.4-1.8,1.1
			c-0.3,0.7-0.5,1.8-0.5,3.3v15C135.7,96.6,135.9,97.9,136.2,98.7z"/>
		<path class="st96" d="M161.8,101.8c-1.1,1.5-2.9,2.2-5.3,2.2s-4.2-0.8-5.4-2.4c-1.2-1.6-1.8-3.9-1.8-6.9V80.7c0-4.8,1.3-7.8,3.8-9
			c0.9-0.4,2.1-0.7,3.4-0.7c4.6,0,6.9,2.9,6.9,8.6v4.4h-4.8v-4.1c0-1.7-0.1-2.8-0.4-3.6c-0.3-0.7-0.8-1.1-1.7-1.1
			c-0.8,0-1.4,0.4-1.7,1.1c-0.3,0.8-0.5,1.9-0.5,3.5V95c0,1.7,0.2,3,0.5,3.7c0.3,0.7,0.9,1.1,1.7,1.1s1.4-0.4,1.7-1.1
			c0.3-0.8,0.5-2,0.5-3.8v-4.6h4.9v4.6C163.5,98,162.9,100.3,161.8,101.8z"/>
		<path class="st96" d="M167.5,103.7V71.4h5v13h4.5v-13h5v32.2h-5v-15h-4.5v15H167.5z"/>
		<path class="st96" d="M199.3,101.9c-1.1,1.4-3,2.1-5.5,2.1c-2.5,0-4.3-0.7-5.5-2.1c-1.1-1.4-1.7-3.6-1.7-6.5v-24h5v23.9
			c0,1.7,0.1,2.7,0.2,3.1c0.2,0.4,0.4,0.7,0.6,1c0.2,0.3,0.7,0.4,1.4,0.4c0.7,0,1.2-0.2,1.5-0.6c0.3-0.4,0.5-0.9,0.6-1.5
			c0.1-0.6,0.1-1.4,0.1-2.4V71.4h5v24C201,98.4,200.5,100.5,199.3,101.9z"/>
		<path class="st96" d="M205.7,103.7V71.4h6.2l4.6,23.6l4.4-23.6h6.2v32.2h-4.4v-12l0.2-11l-4.4,22.9h-4l-4.6-22.9l0.2,11v12H205.7z
			"/>
		<path class="st96" d="M142,142.2V116c-0.4,0.5-1,0.9-1.8,1.2c-0.8,0.3-1.5,0.4-2.3,0.4v-3.6c1.1-0.1,2-0.6,3-1.3s1.7-1.6,2.2-2.8
			h3.9v32.3H142z"/>
		<path class="st96" d="M163.9,140.5c-1.1,1.4-2.9,2.1-5.3,2.1s-4.2-0.7-5.3-2c-1.2-1.4-1.8-3.4-1.8-6.2c0-0.1,0-0.9,0-2.5
			s0.2-3,0.7-4.4c0.5-1.3,1.2-2.3,2-2.9c-1.7-1.2-2.6-3.5-2.6-7c0-2.8,0.6-4.9,1.7-6.1c1.1-1.3,2.9-1.9,5.4-1.9
			c2.5,0,4.3,0.6,5.4,1.9s1.6,3.3,1.6,6.2c0,3.5-0.9,5.8-2.6,7c0.8,0.6,1.5,1.6,1.9,2.9c0.5,1.4,0.7,2.9,0.7,4.5v2.2
			C165.6,137,165,139.2,163.9,140.5z M156.8,137.5c0.3,0.6,0.9,0.9,1.8,0.9c0.9,0,1.5-0.3,1.7-0.9c0.2-0.6,0.4-1.7,0.4-3.4v-2.6
			c0-3.3-0.7-4.9-2-4.9c-0.7,0-1.2,0.4-1.6,1.3c-0.4,0.9-0.6,2.1-0.6,3.7v2.7C156.4,135.7,156.5,136.8,156.8,137.5z M157.5,122.8
			c0.3,0.3,0.6,0.4,1.1,0.4c0,0,0,0,0,0c0.5,0,0.8-0.1,1.1-0.4c0.3-0.3,0.5-0.8,0.7-1.6c0.2-0.8,0.3-1.8,0.3-3.2
			c0-1.4-0.1-2.4-0.2-3.1c-0.1-0.7-0.3-1.1-0.6-1.3c-0.3-0.2-0.7-0.3-1.2-0.3c-0.5,0-0.9,0.1-1.2,0.3c-0.6,0.5-0.9,1.9-0.9,4.5
			S156.8,122.2,157.5,122.8z"/>
		<path class="st96" d="M177.1,142.2v-5.7H169v-3.6l7.2-23h5.3v22.6h2.5v4h-2.5v5.7H177.1z M172.9,132.5h4.2v-15.9L172.9,132.5z"/>
		<path class="st96" d="M199.2,140.5c-1.1,1.4-2.9,2.1-5.3,2.1s-4.2-0.7-5.3-2c-1.2-1.4-1.8-3.4-1.8-6.2c0-0.1,0-0.9,0-2.5
			s0.2-3,0.7-4.4c0.5-1.3,1.2-2.3,2-2.9c-1.7-1.2-2.6-3.5-2.6-7c0-2.8,0.6-4.9,1.7-6.1c1.1-1.3,2.9-1.9,5.4-1.9
			c2.5,0,4.3,0.6,5.4,1.9s1.6,3.3,1.6,6.2c0,3.5-0.9,5.8-2.6,7c0.8,0.6,1.5,1.6,1.9,2.9c0.5,1.4,0.7,2.9,0.7,4.5v2.2
			C200.9,137,200.3,139.2,199.2,140.5z M192.1,137.5c0.3,0.6,0.9,0.9,1.8,0.9c0.9,0,1.5-0.3,1.7-0.9c0.2-0.6,0.4-1.7,0.4-3.4v-2.6
			c0-3.3-0.7-4.9-2-4.9c-0.7,0-1.2,0.4-1.6,1.3c-0.4,0.9-0.6,2.1-0.6,3.7v2.7C191.7,135.7,191.8,136.8,192.1,137.5z M192.8,122.8
			c0.3,0.3,0.6,0.4,1.1,0.4c0,0,0,0,0,0c0.5,0,0.8-0.1,1.1-0.4c0.3-0.3,0.5-0.8,0.7-1.6c0.2-0.8,0.3-1.8,0.3-3.2
			c0-1.4-0.1-2.4-0.2-3.1c-0.1-0.7-0.3-1.1-0.6-1.3c-0.3-0.2-0.7-0.3-1.2-0.3c-0.5,0-0.9,0.1-1.2,0.3c-0.6,0.5-0.9,1.9-0.9,4.5
			S192.1,122.2,192.8,122.8z"/>
	</g>
</g>
</svg>
