<?xml version="1.0" encoding="utf-8"?>
<!-- Generator: Adobe Illustrator 17.0.0, SVG Export Plug-In . SVG Version: 6.00 Build 0)  -->
<!DOCTYPE svg PUBLIC "-//W3C//DTD SVG 1.1//EN" "http://www.w3.org/Graphics/SVG/1.1/DTD/svg11.dtd" [
	<!ENTITY ns_flows "http://ns.adobe.com/Flows/1.0/">
	<!ENTITY ns_extend "http://ns.adobe.com/Extensibility/1.0/">
	<!ENTITY ns_ai "http://ns.adobe.com/AdobeIllustrator/10.0/">
	<!ENTITY ns_graphs "http://ns.adobe.com/Graphs/1.0/">
]>
<svg version="1.1" id="Layer_2" xmlns:x="&ns_extend;" xmlns:i="&ns_ai;" xmlns:graph="&ns_graphs;"
	 xmlns="http://www.w3.org/2000/svg" xmlns:xlink="http://www.w3.org/1999/xlink" xmlns:a="http://ns.adobe.com/AdobeSVGViewerExtensions/3.0/"
	 x="0px" y="0px" width="256px" height="256px" viewBox="0 0 256 256" style="enable-background:new 0 0 256 256;"
	 xml:space="preserve">
<style type="text/css">
	.st0{fill:#FFFFFF;}
	.st1{fill:#54B948;}
	.st2{fill:#1D8C8E;}
	.st3{fill:#14DEAC;}
	.st4{fill:#1466AC;}
	.st5{fill:#757575;}
	.st6{fill:#B69442;}
	.st7{fill:#1A234D;}
	.st8{fill:#AA0629;}
	.st9{fill:#FF4A49;}
	.st10{fill:#3C6643;}
	.st11{fill:none;stroke:#FF4A49;stroke-miterlimit:10;}
	.st12{fill:#E70084;}
	.st13{fill:#508A72;}
	.st14{fill:#01A663;}
	.st15{fill:#015297;}
	.st16{fill:#B0B0B0;}
	.st17{fill:#E1062F;}
	.st18{fill:#D80000;stroke:#FFFFFF;stroke-width:2;stroke-miterlimit:10;}
	.st19{fill:#D80000;}
	.st20{fill:#8ABE23;}
	.st21{fill:#1D1D1B;}
	.st22{fill:#FEFEFE;}
	.st23{fill:#FF0000;}
	.st24{fill:#FF1D1B;}
	.st25{fill:#6DB2DE;}
	.st26{fill:#FF1D25;}
	.st27{fill:#FFDA00;}
	.st28{fill:#024D9E;}
	.st29{fill:#6B97C6;}
	.st30{fill:#000078;}
	.st31{fill:none;stroke:#FFFFFF;stroke-width:6;stroke-linecap:round;stroke-miterlimit:10;}
	.st32{fill:#FFEE34;}
	.st33{fill:none;stroke:#000000;stroke-width:4;stroke-miterlimit:10;}
	.st34{fill:#D11E24;}
	.st35{fill:#D71F26;}
	.st36{fill:#020000;}
	.st37{fill:none;stroke:#000000;stroke-width:2;stroke-miterlimit:10;}
	.st38{clip-path:url(#SVGID_2_);}
	.st39{fill:#00317D;}
	.st40{fill:#00737D;}
	.st41{fill:#ED1C24;}
	.st42{fill:#2678C7;}
	.st43{fill:#1853A6;}
	.st44{fill:#CB0000;}
	.st45{fill:#E61C21;}
	.st46{clip-path:url(#SVGID_4_);}
	.st47{fill:#6BDEF1;}
	.st48{clip-path:url(#SVGID_6_);}
	.st49{fill:#0165B2;}
	.st50{fill:#DE1134;}
	.st51{fill:#00A668;}
	.st52{fill:#FFE60B;}
	.st53{fill:#843D00;stroke:#000000;stroke-miterlimit:10;}
	.st54{fill:#EC1F27;}
	.st55{fill:#162984;}
	.st56{fill:#1853A6;stroke:#1853A6;stroke-miterlimit:10;}
	.st57{fill:none;}
	.st58{fill:none;stroke:#1853A6;stroke-width:0.9;stroke-miterlimit:10;}
	.st59{fill:#1853A6;stroke:#1853A6;stroke-width:0.9;stroke-miterlimit:10;}
	.st60{fill:#B5985A;}
	.st61{fill:#FFE60B;stroke:#000000;stroke-width:6;stroke-miterlimit:10;}
	.st62{fill:#008DCD;}
	.st63{fill:#009939;}
	.st64{fill:#2E3092;}
	.st65{fill:#EE3224;}
	.st66{fill:#005BAB;}
	.st67{fill:#D30027;}
	.st68{fill:#FFFFFF;stroke:#D30027;stroke-width:10;stroke-miterlimit:10;}
	.st69{fill:#E81C2F;}
	.st70{fill:#DC032B;}
	.st71{fill:#F25448;}
	.st72{fill:#FFFFFF;stroke:#F25448;stroke-width:6;stroke-miterlimit:10;}
	.st73{fill:#05A08D;}
	.st74{fill:#1875CE;}
	.st75{fill:#D72427;}
	.st76{fill:#004993;}
	.st77{fill:#007BB0;}
	.st78{fill:#FFEB00;}
	.st79{fill:#664A9E;}
	.st80{fill:#F4C701;}
	.st81{fill:#EBBE12;}
	.st82{fill:#44B3DB;}
	.st83{fill:#F6FF82;}
	.st84{fill:#FFC918;}
	.st85{fill:#0361A4;}
	.st86{fill:#009FE3;}
	.st87{fill:#E30217;}
	.st88{fill:#FDEA00;}
	.st89{fill:#E91B00;}
	.st90{fill:#2B2763;}
	.st91{fill:#EE1A22;}
	.st92{fill:#F1AA25;}
	.st93{fill:#93000C;}
	.st94{fill:none;stroke:#1D1D1B;stroke-width:4;}
	.st95{fill:#3E4E70;}
	.st96{fill:#096CB6;}
	.st97{fill:#0559A8;}
	.st98{fill:#F9ED1A;}
	.st99{fill:#949494;}
	.st100{fill:#FFD033;}
	.st101{fill:#243D89;}
	.st102{fill:#F8C936;}
	.st103{fill:#D44128;}
	.st104{fill:#ED1B23;}
	.st105{fill:#0C529C;}
	.st106{fill:#E31E24;}
	.st107{fill:#0263B0;}
	.st108{fill:#007AC2;}
	.st109{fill:#EF3D1F;}
	.st110{fill:#EE1C24;}
	.st111{fill:#FDEA00;stroke:#000000;stroke-width:0.6509;}
	.st112{fill:#FDEA00;stroke:#000000;stroke-width:0.6979;}
	.st113{fill:#46A0BE;}
	.st114{fill:#005FA5;}
	.st115{fill:#00904C;}
	.st116{fill:#E21F26;}
	.st117{fill:#FD0001;}
	.st118{fill:#0066B3;}
	.st119{fill:#E20019;}
	.st120{fill:#0171BC;}
	.st121{fill:#01305D;}
	.st122{fill:#1B7EE9;}
	.st123{fill:#BA0D0B;}
	.st124{fill:none;stroke:#000000;stroke-width:3;stroke-miterlimit:10;}
	.st125{fill:#FFFFFF;stroke:#000000;stroke-width:0.8836;stroke-miterlimit:10;}
	.st126{fill:#FFFFFF;stroke:#000000;stroke-width:0.9759;stroke-miterlimit:10;}
	.st127{fill:#0053A1;}
	.st128{fill:#FFE100;}
	.st129{fill:#FFE500;}
	.st130{fill:none;stroke:#FFE500;stroke-width:2;stroke-miterlimit:10;}
	.st131{fill:#01AFF3;}
	.st132{fill:#ED1B28;}
	.st133{fill:#E2000A;}
</style>
<g>
	<g>
		<path class="st97" d="M125,2c-19.7,0-39.3,0-57.5,0c0,35.1-29.1,63.5-65.5,64.6C3.8,83.6,6.4,99,9.5,113H49l76-76V2z"/>
		<polygon class="st98" points="125,37 49,113 125,113 		"/>
	</g>
	<path d="M254,66.7c-35.9-1.6-64.4-30.6-64.4-64.7c-20.8,0-42.8,0-64.6,0v111h121.6C249.7,99,252.2,83.6,254,66.7z"/>
	<path class="st0" d="M9.5,113C40.5,253.5,128,254,128,254s87.6-0.4,118.6-141H9.5z"/>
	<path class="st99" d="M176.1,17c3,0,10.4,28.6,21.6,39.9c11,11.1,24.7,18.7,39.6,22.3c-4.7,33.9-12.9,63.1-24.2,87.1
		c-10.1,21.2-22.6,38.3-37.4,50.8c-23.7,20-45.1,21.6-47.7,21.7c-2.6-0.1-24-1.7-47.7-21.8c-14.8-12.5-27.3-29.6-37.4-50.8
		c-11.3-23.9-19.4-53.1-24.2-86.9c15.2-3.4,29.1-10.7,40.2-21.7C70.4,46.2,78,32,81,17h95 M189.6,2c-39.7,0-83.7,0-122.1,0
		c0,35.1-29.1,63.5-65.5,64.6C22.1,253.4,128,254,128,254s105.9-0.4,126-187.3C218.1,65.1,189.6,36.1,189.6,2L189.6,2z"/>
	<g>
		<path d="M67.7,165.1c-1.1,1.5-2.9,2.3-5.3,2.3s-4.2-0.8-5.4-2.4c-1.2-1.6-1.8-3.9-1.8-7v-14.2c0-4.9,1.3-7.9,3.8-9.1
			c0.9-0.4,2.1-0.7,3.4-0.7c4.6,0,6.9,2.9,6.9,8.7v4.5h-4.8V143c0-1.7-0.1-2.9-0.4-3.6c-0.3-0.7-0.8-1.1-1.7-1.1
			c-0.8,0-1.4,0.4-1.7,1.2c-0.3,0.8-0.5,1.9-0.5,3.5v15.3c0,1.8,0.2,3,0.5,3.8c0.3,0.8,0.9,1.1,1.7,1.1s1.4-0.4,1.7-1.2
			c0.3-0.8,0.5-2,0.5-3.8v-4.7h4.9v4.6C69.4,161.2,68.9,163.6,67.7,165.1z"/>
		<path d="M72,167l4.7-32.7h6.6l5,32.7h-4.6l-0.8-5.8h-5.3l-0.7,5.8H72z M82.2,157.2L80,140.8H80l-2,16.4H82.2z"/>
		<path d="M98.2,151.7l-1.6-0.1V167h-5v-32.7h8.2c1.7,0,3,0.3,3.8,1c0.8,0.7,1.4,1.6,1.7,2.9c0.3,1.2,0.4,2.8,0.4,4.8
			c0,2-0.2,3.5-0.6,4.5c-0.4,1-1.2,1.7-2.3,2.1c1.1,0.2,1.9,1,2.4,2.3c0.4,1.3,0.7,4.1,0.7,8.3c0,4.2,0.1,6.4,0.2,6.7h-5
			c-0.1-0.2-0.2-4.1-0.2-11.7c0-1.4-0.2-2.4-0.5-2.9C99.9,151.9,99.2,151.7,98.2,151.7z M96.6,147.7h2c0.6,0,1.1-0.1,1.4-0.4
			c0.3-0.3,0.5-0.8,0.6-1.5c0.1-0.7,0.2-1.8,0.2-3.2v-0.2c0-1.8-0.1-2.9-0.4-3.5c-0.3-0.5-1-0.8-2.1-0.8h-1.7V147.7z"/>
		<path d="M110.3,167v-32.7h5v28.4h6.3v4.2H110.3z"/>
		<path d="M130.6,167v-4.4l6.8-24h-6.2v-4.3h11.4v4l-6.8,24.3h6.6v4.3H130.6z"/>
		<path d="M146.3,167v-32.7h10.9v4.3h-6v9.5h5.7v4.2h-5.7v10.4h6.2v4.3H146.3z"/>
		<path d="M161.6,167v-32.7h5V167H161.6z"/>
		<path d="M171,157.8v-2.9h4.7v3.3c0,1.8,0.2,3.1,0.5,3.8c0.3,0.7,0.9,1.1,1.7,1.1s1.4-0.3,1.7-0.9c0.3-0.6,0.4-1.6,0.4-3
			s-0.2-2.6-0.7-3.6c-0.5-1-1.3-2.1-2.4-3.2l-2.4-2.5c-1.1-1.2-2-2.4-2.6-3.7c-0.6-1.3-0.9-2.7-0.9-4.4c0-2.7,0.5-4.7,1.6-6
			c1-1.3,2.8-2,5.4-2c2.5,0,4.3,0.8,5.1,2.3c0.9,1.5,1.3,3.8,1.3,6.7v2h-4.6v-2.3c0-1.6-0.1-2.7-0.4-3.4c-0.3-0.7-0.8-1-1.6-1
			c-0.8,0-1.3,0.3-1.7,0.8c-0.3,0.5-0.5,1.3-0.5,2.3s0.2,1.9,0.5,2.5c0.3,0.6,1,1.4,1.9,2.4l2.7,2.9c1.3,1.5,2.4,2.9,3.1,4.4
			c0.7,1.5,1,3.1,1,4.9c0,3.1-0.5,5.3-1.5,6.8c-1,1.5-2.8,2.2-5.4,2.2c-2.6,0-4.4-0.8-5.4-2.4C171.5,163.3,171,160.9,171,157.8z"/>
		<path d="M187.8,157.8v-2.9h4.7v3.3c0,1.8,0.2,3.1,0.5,3.8c0.3,0.7,0.9,1.1,1.7,1.1s1.4-0.3,1.7-0.9c0.3-0.6,0.4-1.6,0.4-3
			s-0.2-2.6-0.7-3.6c-0.5-1-1.3-2.1-2.4-3.2l-2.4-2.5c-1.1-1.2-2-2.4-2.6-3.7c-0.6-1.3-0.9-2.7-0.9-4.4c0-2.7,0.5-4.7,1.6-6
			c1-1.3,2.8-2,5.4-2c2.5,0,4.3,0.8,5.1,2.3c0.9,1.5,1.3,3.8,1.3,6.7v2h-4.6v-2.3c0-1.6-0.1-2.7-0.4-3.4c-0.3-0.7-0.8-1-1.6-1
			c-0.8,0-1.3,0.3-1.7,0.8c-0.3,0.5-0.5,1.3-0.5,2.3s0.2,1.9,0.5,2.5c0.3,0.6,1,1.4,1.9,2.4l2.7,2.9c1.3,1.5,2.4,2.9,3.1,4.4
			c0.7,1.5,1,3.1,1,4.9c0,3.1-0.5,5.3-1.5,6.8c-1,1.5-2.8,2.2-5.4,2.2c-2.6,0-4.4-0.8-5.4-2.4C188.3,163.3,187.8,160.9,187.8,157.8z
			"/>
		<path d="M105.9,204.2c-1.2,1.5-2.8,2.2-5,2.2c-2.1,0-3.8-0.6-5-1.9c-1.2-1.3-1.8-3.2-1.8-5.6V193H99v5.6c0,1.8,0.3,2.9,0.9,3.3
			c0.3,0.2,0.6,0.3,1,0.3c0.8,0,1.3-0.3,1.5-0.9c0.2-0.6,0.4-1.6,0.4-2.9v-24.9h5V198C107.6,200.7,107,202.7,105.9,204.2z"/>
		<path d="M112.5,206v-32.7h10.9v4.3h-6v9.5h5.7v4.2h-5.7v10.4h6.2v4.3H112.5z"/>
		<path d="M127.6,206v-32.7h3.9l6.9,19.6l-0.4-8.9v-10.7h4.5V206H139l-7.1-20.3l0.3,8.6V206H127.6z"/>
		<path d="M146,206l4.7-32.7h6.6l5,32.7h-4.6l-0.8-5.8h-5.3l-0.7,5.8H146z M156.2,196.2l-2.2-16.4h-0.1l-2,16.4H156.2z"/>
	</g>
	<g>
		<path class="st0" d="M140.3,59.4h22.3v8.1H150v7.4h11.8v8H150v14.6h-9.8V59.4z"/>
		<path class="st0" d="M194.3,96.5c-1.3,0.6-4.5,1.4-8.4,1.4C172.7,97.9,167,89,167,79c0-13.6,9.3-20.1,19.6-20.1
			c3.9,0,6.9,0.7,8.2,1.5l-1.7,7.8c-1.4-0.6-3.4-1.2-5.9-1.2c-5.4,0-9.9,3.5-9.9,11.4c0,7.2,3.8,11.3,10,11.3c2,0,4.4-0.4,5.8-0.9
			L194.3,96.5z"/>
	</g>
</g>
</svg>
