<?xml version="1.0" encoding="utf-8"?>
<!-- Generator: Adobe Illustrator 17.0.0, SVG Export Plug-In . SVG Version: 6.00 Build 0)  -->
<!DOCTYPE svg PUBLIC "-//W3C//DTD SVG 1.1//EN" "http://www.w3.org/Graphics/SVG/1.1/DTD/svg11.dtd" [
	<!ENTITY ns_flows "http://ns.adobe.com/Flows/1.0/">
	<!ENTITY ns_extend "http://ns.adobe.com/Extensibility/1.0/">
	<!ENTITY ns_ai "http://ns.adobe.com/AdobeIllustrator/10.0/">
	<!ENTITY ns_graphs "http://ns.adobe.com/Graphs/1.0/">
]>
<svg version="1.1" id="Layer_2" xmlns:x="&ns_extend;" xmlns:i="&ns_ai;" xmlns:graph="&ns_graphs;"
	 xmlns="http://www.w3.org/2000/svg" xmlns:xlink="http://www.w3.org/1999/xlink" xmlns:a="http://ns.adobe.com/AdobeSVGViewerExtensions/3.0/"
	 x="0px" y="0px" width="256px" height="256px" viewBox="0 0 256 256" style="enable-background:new 0 0 256 256;"
	 xml:space="preserve">
<style type="text/css">
	.st0{fill:#FFFFFF;}
	.st1{fill:#54B948;}
	.st2{fill:#1D8C8E;}
	.st3{fill:#14DEAC;}
	.st4{fill:#1466AC;}
	.st5{fill:#757575;}
	.st6{fill:#B69442;}
	.st7{fill:#1A234D;}
	.st8{fill:#AA0629;}
	.st9{fill:#FF4A49;}
	.st10{fill:#3C6643;}
	.st11{fill:none;stroke:#FF4A49;stroke-miterlimit:10;}
	.st12{fill:#E70084;}
	.st13{fill:#508A72;}
	.st14{fill:#01A663;}
	.st15{fill:#015297;}
	.st16{fill:#B0B0B0;}
	.st17{fill:#E1062F;}
	.st18{fill:#D80000;stroke:#FFFFFF;stroke-width:2;stroke-miterlimit:10;}
	.st19{fill:#D80000;}
	.st20{fill:#8ABE23;}
	.st21{fill:#1D1D1B;}
	.st22{fill:#FEFEFE;}
	.st23{fill:#FF0000;}
	.st24{fill:#FF1D1B;}
	.st25{fill:#6DB2DE;}
	.st26{fill:#FF1D25;}
	.st27{fill:#FFDA00;}
	.st28{fill:#024D9E;}
	.st29{fill:#6B97C6;}
	.st30{fill:#000078;}
	.st31{fill:none;stroke:#FFFFFF;stroke-width:6;stroke-linecap:round;stroke-miterlimit:10;}
	.st32{fill:#FFEE34;}
	.st33{fill:none;stroke:#000000;stroke-width:4;stroke-miterlimit:10;}
	.st34{fill:#D11E24;}
	.st35{fill:#D71F26;}
	.st36{fill:#020000;}
	.st37{fill:none;stroke:#000000;stroke-width:2;stroke-miterlimit:10;}
	.st38{clip-path:url(#SVGID_2_);}
	.st39{fill:#00317D;}
	.st40{fill:#00737D;}
	.st41{fill:#ED1C24;}
	.st42{fill:#2678C7;}
	.st43{fill:#1853A6;}
	.st44{fill:#CB0000;}
	.st45{fill:#E61C21;}
	.st46{clip-path:url(#SVGID_4_);}
	.st47{fill:#6BDEF1;}
	.st48{clip-path:url(#SVGID_6_);}
	.st49{fill:#0165B2;}
	.st50{fill:#DE1134;}
	.st51{fill:#00A668;}
	.st52{fill:#FFE60B;}
	.st53{fill:#843D00;stroke:#000000;stroke-miterlimit:10;}
	.st54{fill:#EC1F27;}
	.st55{fill:#162984;}
	.st56{fill:#1853A6;stroke:#1853A6;stroke-miterlimit:10;}
	.st57{fill:none;}
	.st58{fill:none;stroke:#1853A6;stroke-width:0.9;stroke-miterlimit:10;}
	.st59{fill:#1853A6;stroke:#1853A6;stroke-width:0.9;stroke-miterlimit:10;}
	.st60{fill:#B5985A;}
	.st61{fill:#FFE60B;stroke:#000000;stroke-width:6;stroke-miterlimit:10;}
	.st62{fill:#008DCD;}
	.st63{fill:#009939;}
	.st64{fill:#2E3092;}
	.st65{fill:#EE3224;}
	.st66{fill:#005BAB;}
	.st67{fill:#D30027;}
	.st68{fill:#FFFFFF;stroke:#D30027;stroke-width:10;stroke-miterlimit:10;}
	.st69{fill:#E81C2F;}
	.st70{fill:#DC032B;}
	.st71{fill:#F25448;}
	.st72{fill:#FFFFFF;stroke:#F25448;stroke-width:6;stroke-miterlimit:10;}
	.st73{fill:#05A08D;}
	.st74{fill:#1875CE;}
	.st75{fill:#D72427;}
	.st76{fill:#004993;}
	.st77{fill:#007BB0;}
	.st78{fill:#FFEB00;}
	.st79{fill:#664A9E;}
	.st80{fill:#F4C701;}
	.st81{fill:#EBBE12;}
	.st82{fill:#44B3DB;}
	.st83{fill:#F6FF82;}
	.st84{fill:#FFC918;}
	.st85{fill:#0361A4;}
	.st86{fill:#009FE3;}
	.st87{fill:#E30217;}
	.st88{fill:#FDEA00;}
	.st89{fill:#E91B00;}
	.st90{fill:#2B2763;}
	.st91{fill:#EE1A22;}
	.st92{fill:#F1AA25;}
	.st93{fill:#93000C;}
	.st94{fill:none;stroke:#1D1D1B;stroke-width:4;}
	.st95{fill:#3E4E70;}
	.st96{fill:#096CB6;}
	.st97{fill:#0559A8;}
	.st98{fill:#F9ED1A;}
	.st99{fill:#949494;}
	.st100{fill:#FFD033;}
	.st101{fill:#243D89;}
	.st102{fill:#F8C936;}
	.st103{fill:#D44128;}
	.st104{fill:#ED1B23;}
	.st105{fill:#0C529C;}
	.st106{fill:#E31E24;}
	.st107{fill:#0263B0;}
	.st108{fill:#007AC2;}
	.st109{fill:#EF3D1F;}
	.st110{fill:#EE1C24;}
	.st111{fill:#FDEA00;stroke:#000000;stroke-width:0.6509;}
	.st112{fill:#FDEA00;stroke:#000000;stroke-width:0.6979;}
	.st113{fill:#46A0BE;}
	.st114{fill:#005FA5;}
	.st115{fill:#00904C;}
	.st116{fill:#E21F26;}
	.st117{fill:#FD0001;}
	.st118{fill:#0066B3;}
	.st119{fill:#E20019;}
	.st120{fill:#0171BC;}
	.st121{fill:#01305D;}
	.st122{fill:#1B7EE9;}
	.st123{fill:#BA0D0B;}
	.st124{fill:none;stroke:#000000;stroke-width:3;stroke-miterlimit:10;}
	.st125{fill:#FFFFFF;stroke:#000000;stroke-width:0.8836;stroke-miterlimit:10;}
	.st126{fill:#FFFFFF;stroke:#000000;stroke-width:0.9759;stroke-miterlimit:10;}
	.st127{fill:#0053A1;}
	.st128{fill:#FFE100;}
	.st129{fill:#FFE500;}
	.st130{fill:none;stroke:#FFE500;stroke-width:2;stroke-miterlimit:10;}
	.st131{fill:#01AFF3;}
	.st132{fill:#ED1B28;}
	.st133{fill:#E2000A;}
</style>
<g>
	<g>
		<path class="st105" d="M216.3,51.1c-2.2-3.3-3.6-6.9-4.1-10.8L50.1,202.4c16.6,14.8,34.7,21.6,49.8,27.3
			c12.2,4.6,22.6,8.5,27.1,15.5c4.6-7.1,15.2-11,27.8-15.7c19-7,42.7-15.7,62.2-39c22.9-27.4,34.2-68,34.5-124.1
			C238.9,66,223.7,61.9,216.3,51.1z"/>
		<path class="st106" d="M213.8,25.3C203.1,27.4,193,29,183.7,29c0,0,0,0,0,0c-35.8,0-51.9-15.5-57.1-22c-5.7,6-22.7,20-56.6,20
			c0,0,0,0,0,0C62,27,53.6,25.7,45,24.2c3,9.9,2.2,17.8-2.4,24.5c-9,13.2-29.1,15.4-38,15.7c0.3,57,11.5,98.3,34.1,126
			c3.7,4.5,7.5,8.5,11.4,12L212.2,40.3C211.6,35.8,212.1,30.8,213.8,25.3z"/>
	</g>
	<path d="M126.4,9.6c7,7.6,23.9,20.9,57.3,20.9c8.4,0,17.3-0.8,26.7-2.5c-2.1,9.4-0.8,17.5,3.9,24.3c7.4,10.8,22,15.5,34.7,16.4
		c-0.3,28.3-3.6,53.1-9.9,73.6c-5.6,18.5-13.7,34.1-24.1,46.6c-19.1,22.8-42.4,31.4-61.1,38.3c-11.1,4.1-21.2,7.8-26.9,14
		c-5.6-6.1-15.5-9.8-26.3-13.8c-18.5-6.9-41.4-15.5-60.2-38.6c-10.3-12.6-18.3-28.5-23.8-47.2C10.6,120.7,7.3,95.6,7,66.8
		c10.2-0.6,28.7-3.7,37.6-16.6c4.5-6.5,5.7-14.3,3.8-23.3c7.5,1.2,14.7,1.7,21.6,1.7C101.4,28.5,118.9,16.5,126.4,9.6 M126.7,2
		c0,0-15.5,21.6-56.8,21.6c-8.5,0-18-0.9-28.7-3.1C54.2,53.3,22.7,62,2,62c0,192.7,124.9,154.5,125,192c0.1-37.5,127,0,127-190
		c-19.5,0-49.4-9.6-36.4-42.5c-12.9,2.9-24.2,4.1-33.9,4.1C140.2,25.6,126.7,2,126.7,2L126.7,2z"/>
	<g>
		<path class="st0" d="M31.8,85.7c-0.3-0.7-0.5-1.3-0.8-2c1.2-0.5,2.3-0.9,3.5-1.4c0.3,0.8,0.6,1.5,0.9,2.3c0.5,1.2,1,2.1,1.4,2.5
			c0.4,0.4,0.9,0.5,1.6,0.3c0.6-0.2,0.9-0.6,1-1.1c0-0.5-0.1-1.2-0.5-2.2c-0.4-0.9-0.9-1.7-1.5-2.3c-0.6-0.6-1.5-1.1-2.6-1.5
			c-0.8-0.3-1.7-0.7-2.5-1c-1.2-0.5-2.2-1-3-1.7c-0.8-0.7-1.5-1.6-1.9-2.7c-0.8-1.8-0.9-3.4-0.5-4.6c0.4-1.2,1.7-2.2,3.7-3
			c2-0.8,3.6-0.8,4.7,0c1.1,0.8,2,2.2,2.8,4.3c0.2,0.5,0.3,0.9,0.5,1.4c-1.2,0.4-2.3,0.9-3.5,1.3c-0.2-0.5-0.4-1.1-0.6-1.6
			c-0.4-1.1-0.8-1.8-1.2-2.2c-0.4-0.4-0.9-0.5-1.5-0.2c-0.6,0.2-1,0.6-1.1,1c-0.1,0.5,0,1,0.2,1.8c0.3,0.7,0.6,1.2,1.1,1.6
			c0.4,0.3,1.1,0.7,2.1,1.1c0.9,0.4,1.9,0.8,2.8,1.2c1.4,0.6,2.5,1.4,3.4,2.2c0.9,0.9,1.6,1.9,2,3.1c0.8,2.1,1,3.8,0.6,5.1
			c-0.4,1.3-1.5,2.3-3.3,3C37.5,91,36,91,34.8,90.2C33.7,89.3,32.6,87.9,31.8,85.7z"/>
		<path class="st0" d="M46.9,87.2c-2.7-7.6-5.3-15.2-8-22.8c2-0.7,4-1.4,6-2c2-0.7,3.6-0.5,4.7,0.3c1.1,0.9,2,2.4,2.6,4.5
			c0,0.2,0.1,0.3,0.1,0.5c0.7,2.3,0.9,4.1,0.5,5.5c-0.3,1.4-1.4,2.4-3.3,3c-0.7,0.2-1.4,0.4-2,0.7c1,3,2,6,3,9
			C49.3,86.4,48.1,86.8,46.9,87.2z M46.5,74.1c0.4-0.1,0.9-0.3,1.3-0.4c0.8-0.3,1.2-0.7,1.3-1.4c0.1-0.6-0.2-1.8-0.7-3.4
			c0-0.1-0.1-0.3-0.1-0.4c-0.4-1.4-0.9-2.3-1.3-2.8c-0.4-0.5-1.1-0.6-1.8-0.4c-0.5,0.2-0.9,0.3-1.4,0.5
			C44.6,68.5,45.6,71.3,46.5,74.1z"/>
		<path class="st0" d="M59.7,83.1c-2.2-7.7-4.5-15.5-6.7-23.2c1.3-0.4,2.7-0.8,4-1.1c2.1,7.8,4.2,15.5,6.4,23.3
			C62.2,82.4,60.9,82.8,59.7,83.1z"/>
		<path class="st0" d="M67.1,81.1c-2-7.8-4-15.6-6-23.4c3-0.8,5.9-1.5,8.9-2.1c0.2,1,0.5,2.1,0.7,3.1c-1.6,0.4-3.2,0.7-4.8,1.1
			c0.5,2.3,1.1,4.6,1.6,6.8c1.5-0.4,3-0.7,4.4-1c0.2,1,0.4,2,0.7,3c-1.5,0.3-2.9,0.7-4.4,1c0.6,2.5,1.2,5,1.8,7.5
			c1.5-0.4,3.1-0.7,4.6-1.1c0.2,1,0.5,2.1,0.7,3.1C72.6,79.7,69.9,80.4,67.1,81.1z"/>
		<path class="st0" d="M78.3,78.5c-1.6-7.9-3.3-15.8-4.9-23.6c1.4-0.3,2.7-0.5,4.1-0.8c1.3,6.9,2.6,13.8,3.9,20.6
			c1.6-0.3,3.2-0.6,4.8-0.9c0.2,1,0.4,2.1,0.5,3.1C83.9,77.4,81.1,77.9,78.3,78.5z"/>
		<path class="st0" d="M91.3,76.2c-2.5-7.8-5.1-15.5-7.8-23.2c1.3-0.2,2.6-0.4,3.9-0.6c1.1,3.5,2.2,7,3.3,10.5
			c0.7,2.5,1.4,5,2.1,7.5c0,0,0.1,0,0.1,0c-0.1-2.6-0.1-5.2-0.2-7.7c0-3.7,0-7.3,0-11c1.3-0.2,2.5-0.3,3.8-0.5
			c-0.3,8.1-0.6,16.3-0.7,24.4C94.4,75.7,92.8,75.9,91.3,76.2z"/>
		<path class="st0" d="M102,74.8c-0.9-8-1.7-16-2.6-24c3-0.3,6-0.6,9.1-0.8c0.1,1.1,0.2,2.1,0.2,3.2c-1.6,0.1-3.3,0.2-4.9,0.4
			c0.2,2.3,0.4,4.7,0.6,7c1.5-0.1,3-0.3,4.5-0.4c0.1,1,0.2,2.1,0.2,3.1c-1.5,0.1-3,0.2-4.5,0.4c0.2,2.6,0.5,5.1,0.7,7.7
			c1.6-0.1,3.2-0.3,4.7-0.4c0.1,1.1,0.2,2.1,0.2,3.2C107.6,74.2,104.8,74.5,102,74.8z"/>
		<path class="st0" d="M117.9,62.3c-0.4,0-0.8,0-1.3,0c0.2,3.8,0.3,7.6,0.5,11.4c-1.3,0.1-2.5,0.1-3.7,0.2c-0.5-8-0.9-16.1-1.4-24.1
			c2.3-0.1,4.5-0.2,6.8-0.3c1.4,0,2.5,0.2,3.2,0.7c0.7,0.5,1.2,1.2,1.4,2.1c0.2,0.9,0.4,2.1,0.4,3.6c0,1.5-0.1,2.6-0.5,3.4
			c-0.3,0.8-0.9,1.3-1.8,1.6c0.9,0.1,1.5,0.7,1.9,1.6c0.4,1,0.6,3,0.6,6.1c0,3.1,0.1,4.8,0.2,5c-1.3,0-2.5,0-3.8,0.1
			c-0.1-0.2-0.2-3.1-0.4-8.7c0-1.1-0.2-1.8-0.5-2.1C119.3,62.4,118.8,62.3,117.9,62.3z M116.6,59.4c0.5,0,1.1,0,1.6-0.1
			c0.5,0,0.9-0.1,1.1-0.4c0.2-0.2,0.4-0.6,0.5-1.1c0.1-0.5,0.1-1.3,0.1-2.3c0-0.1,0-0.1,0-0.2c0-1.3-0.2-2.2-0.4-2.6
			c-0.3-0.4-0.8-0.6-1.7-0.5c-0.5,0-0.9,0-1.4,0.1C116.4,54.7,116.5,57.1,116.6,59.4z"/>
		<path class="st0" d="M127.6,73.4c0-8,0-16.1,0-24.1c3,0,6.1,0,9.1,0.1c0,1.1-0.1,2.1-0.1,3.2c-1.6-0.1-3.3-0.1-4.9-0.1
			c0,2.3-0.1,4.7-0.1,7c1.5,0,3,0.1,4.5,0.1c0,1-0.1,2.1-0.1,3.1c-1.5,0-3-0.1-4.5-0.1c0,2.6-0.1,5.1-0.1,7.7c1.6,0,3.2,0.1,4.7,0.1
			c0,1.1-0.1,2.1-0.1,3.2C133.2,73.5,130.4,73.4,127.6,73.4z"/>
		<path class="st0" d="M139.1,73.7c0.4-8,0.7-16.1,1.1-24.1c1.4,0.1,2.7,0.1,4.1,0.2c-0.5,8-1,16.1-1.5,24.1
			C141.6,73.8,140.4,73.7,139.1,73.7z"/>
		<path class="st0" d="M146.7,74.2c0.6-8,1.2-16.1,1.9-24.1c1.1,0.1,2.1,0.2,3.2,0.3c1.5,5,2.8,10,4.1,15c0.2-2.2,0.3-4.4,0.4-6.6
			c0.3-2.6,0.6-5.2,0.9-7.9c1.2,0.1,2.5,0.3,3.7,0.4c-1,8-2,16-3,24c-0.9-0.1-1.8-0.2-2.6-0.3c-1.2-5.2-2.5-10.3-4-15.5
			c-0.1,2.1-0.2,4.2-0.4,6.3c-0.3,2.9-0.5,5.7-0.8,8.6C149,74.3,147.9,74.2,146.7,74.2z"/>
		<path class="st0" d="M161.8,75.8c1.1-8,2.2-15.9,3.4-23.9c1.4,0.2,2.7,0.4,4.1,0.6c-1.2,8-2.5,15.9-3.7,23.9
			C164.2,76.1,163,76,161.8,75.8z"/>
		<path class="st0" d="M173.8,78c-1.5-0.3-2.6-1.1-3.3-2.4c-0.7-1.3-0.8-3.2-0.4-5.7c0.6-3.4,1.2-6.9,1.8-10.3
			c0.4-2.2,1.1-3.8,2.3-4.8c1.2-1,2.8-1.3,4.9-0.9c2.6,0.5,4.1,1.7,4.4,3.6c0.2,1.1,0.1,2.6-0.3,4.4c-0.1,0.6-0.2,1.1-0.4,1.7
			c-1.2-0.3-2.4-0.5-3.7-0.8c0.2-0.8,0.3-1.6,0.5-2.5c0.2-1.1,0.2-1.9,0.1-2.4c-0.2-0.5-0.6-0.8-1.3-0.9c-0.7-0.1-1.3,0-1.6,0.5
			c-0.4,0.5-0.7,1.4-1,2.7c-0.6,3.4-1.3,6.9-1.9,10.3c-0.3,1.6-0.4,2.7-0.2,3.3c0.1,0.7,0.5,1.1,1.2,1.2c0.7,0.1,1.3-0.1,1.7-0.7
			c0.4-0.6,0.8-1.7,1.1-3.2c0.2-1.1,0.4-2.1,0.6-3.2c-0.6-0.1-1.3-0.3-1.9-0.4c0.2-0.9,0.3-1.8,0.5-2.6c1.8,0.3,3.6,0.7,5.4,1.1
			c-0.9,4.3-1.9,8.6-2.8,12.9c-0.6-0.1-1.1-0.2-1.7-0.4c0-0.8-0.1-1.6-0.1-2.4c-0.4,0.8-0.9,1.3-1.7,1.6
			C175.5,78.1,174.7,78.2,173.8,78z"/>
		<path class="st0" d="M192.6,80.8c-1.1,0.8-2.6,0.9-4.4,0.5c-1.9-0.5-3.1-1.3-3.7-2.5c-0.6-1.2-0.7-2.9-0.2-5.1
			c1.4-5.8,2.7-11.7,4.1-17.5c1.3,0.3,2.7,0.6,4,1c-1.4,5.8-2.9,11.6-4.3,17.4c-0.3,1.2-0.4,2-0.4,2.3c0.1,0.3,0.1,0.6,0.3,0.8
			c0.1,0.3,0.4,0.5,1,0.6c0.5,0.1,1,0.1,1.3-0.2c0.3-0.2,0.5-0.6,0.7-1c0.2-0.4,0.3-1,0.5-1.7c1.5-5.8,3-11.5,4.5-17.3
			c1.3,0.4,2.7,0.7,4,1.1c-1.6,5.8-3.2,11.5-4.8,17.3C194.6,78.6,193.8,80,192.6,80.8z"/>
		<path class="st0" d="M197,83.4c2.3-7.7,4.6-15.4,6.8-23.2c1,0.3,2.1,0.6,3.1,0.9c0.4,5.2,0.7,10.4,1,15.5c0.6-2.1,1.2-4.2,1.8-6.3
			c0.8-2.5,1.7-5,2.5-7.5c1.2,0.4,2.4,0.8,3.6,1.2c-2.6,7.6-5.3,15.2-7.9,22.8c-0.8-0.3-1.7-0.6-2.6-0.9c-0.1-5.3-0.4-10.6-0.7-16
			c-0.6,2-1.1,4.1-1.7,6.1c-0.9,2.8-1.7,5.5-2.6,8.3C199.2,84.1,198.1,83.7,197,83.4z"/>
		<path class="st0" d="M215.7,90c-1.5-0.6-2.4-1.6-2.8-3c-0.4-1.4-0.2-3.3,0.6-5.7c1.2-3.3,2.4-6.6,3.6-9.9c0.8-2.1,1.8-3.5,3.1-4.3
			c1.3-0.8,3-0.8,5.1,0c2.5,1,3.8,2.5,3.8,4.4c0,1.1-0.4,2.6-1.1,4.3c-0.2,0.5-0.4,1.1-0.7,1.6c-1.2-0.5-2.3-1-3.5-1.4
			c0.3-0.8,0.6-1.6,0.9-2.3c0.4-1,0.6-1.8,0.5-2.3c-0.1-0.5-0.5-0.9-1.1-1.2c-0.7-0.3-1.3-0.2-1.7,0.2c-0.5,0.4-0.9,1.2-1.4,2.5
			c-1.2,3.3-2.5,6.5-3.7,9.8c-0.6,1.5-0.8,2.6-0.8,3.2c0,0.7,0.4,1.1,1,1.4c0.7,0.3,1.3,0.1,1.8-0.4c0.5-0.5,1.1-1.5,1.7-3
			c0.4-1,0.8-2,1.2-3c-0.6-0.2-1.2-0.5-1.9-0.7c0.3-0.8,0.6-1.7,1-2.5c1.7,0.7,3.4,1.4,5.1,2.1c-1.7,4.1-3.4,8.1-5,12.2
			c-0.5-0.2-1.1-0.4-1.6-0.7c0.1-0.8,0.2-1.6,0.3-2.4c-0.5,0.7-1.1,1.1-1.9,1.3C217.4,90.4,216.5,90.4,215.7,90z"/>
	</g>
	<g>
		<path class="st0" d="M61.9,183.7c-0.8,1-2.2,1.6-4.1,1.6c-1.9,0-3.2-0.5-4.1-1.6c-0.8-1.1-1.3-2.7-1.3-4.9v-18h3.7v17.9
			c0,1.3,0.1,2,0.2,2.3s0.3,0.5,0.4,0.7c0.2,0.2,0.5,0.3,1,0.3c0.5,0,0.9-0.2,1.1-0.5c0.2-0.3,0.4-0.7,0.4-1.2
			c0.1-0.5,0.1-1.1,0.1-1.8v-17.9h3.7v18C63.1,181,62.7,182.7,61.9,183.7z"/>
		<path class="st0" d="M66.6,185v-24.1h2.9l5.1,14.5l-0.3-6.6v-7.9h3.3V185h-2.6l-5.3-15l0.2,6.3v8.7H66.6z"/>
		<path class="st0" d="M82.5,185v-21h-2.8v-3.2h9.2v3.2h-2.7v21H82.5z"/>
		<path class="st0" d="M90.9,185v-24.1H99v3.2h-4.4v7h4.2v3.1h-4.2v7.7h4.6v3.2H90.9z"/>
		<path class="st0" d="M107,173.7l-1.2-0.1V185h-3.7v-24.1h6.1c1.3,0,2.2,0.3,2.8,0.8s1,1.2,1.2,2.1c0.2,0.9,0.3,2.1,0.3,3.6
			s-0.2,2.6-0.5,3.4c-0.3,0.8-0.9,1.3-1.7,1.6c0.8,0.1,1.4,0.7,1.7,1.7c0.3,1,0.5,3,0.5,6.1c0,3.1,0,4.8,0.1,5h-3.7
			c-0.1-0.2-0.1-3.1-0.1-8.7c0-1.1-0.1-1.8-0.4-2.1C108.3,173.9,107.8,173.7,107,173.7z M105.8,170.7h1.5c0.5,0,0.8-0.1,1-0.3
			c0.2-0.2,0.4-0.6,0.5-1.1c0.1-0.5,0.1-1.3,0.1-2.3v-0.2c0-1.3-0.1-2.2-0.3-2.6c-0.2-0.4-0.7-0.6-1.5-0.6h-1.2V170.7z"/>
		<path class="st0" d="M116,185v-24.1h3.7v9.8h3.3v-9.8h3.7V185H123v-11.2h-3.3V185H116z"/>
		<path class="st0" d="M129.2,185l3.4-24.1h4.9l3.7,24.1h-3.4l-0.6-4.3h-3.9l-0.5,4.3H129.2z M136.7,177.7l-1.6-12.1h-0.1l-1.5,12.1
			H136.7z"/>
		<path class="st0" d="M152.5,183.6c-0.8,1.1-2.1,1.7-3.9,1.7c-1.8,0-3.1-0.6-4-1.8c-0.9-1.2-1.3-2.9-1.3-5.2v-10.5
			c0-3.6,0.9-5.8,2.8-6.7c0.7-0.3,1.5-0.5,2.5-0.5c3.4,0,5.1,2.1,5.1,6.4v3.3h-3.6v-3.1c0-1.2-0.1-2.1-0.3-2.7
			c-0.2-0.5-0.6-0.8-1.2-0.8s-1,0.3-1.3,0.9c-0.2,0.6-0.4,1.4-0.4,2.6v11.3c0,1.3,0.1,2.2,0.3,2.8c0.2,0.6,0.6,0.8,1.2,0.8
			s1-0.3,1.2-0.9c0.2-0.6,0.3-1.5,0.3-2.8V175h3.6v3.4C153.8,180.7,153.4,182.5,152.5,183.6z"/>
		<path class="st0" d="M156.8,185v-24.1h3.7v9.8h3.3v-9.8h3.7V185h-3.7v-11.2h-3.3V185H156.8z"/>
		<path class="st0" d="M171.2,185v-24.1h3.7V185H171.2z"/>
		<path class="st0" d="M178.6,185v-24.1h2.9l5.1,14.5l-0.3-6.6v-7.9h3.3V185H187l-5.3-15l0.2,6.3v8.7H178.6z"/>
		<path class="st0" d="M197.8,185.2c-1.5,0-2.7-0.6-3.6-1.8c-0.9-1.2-1.3-3-1.3-5.5v-10.5c0-2.2,0.4-3.9,1.3-5.1
			c0.9-1.2,2.3-1.8,4.2-1.8c2.4,0,3.9,0.9,4.5,2.6c0.4,1.1,0.6,2.5,0.6,4.3v1.7h-3.4v-2.5c0-1.1-0.1-1.9-0.4-2.3
			c-0.2-0.4-0.7-0.7-1.3-0.7c-0.6,0-1.1,0.3-1.4,0.8c-0.3,0.5-0.4,1.5-0.4,2.8v10.5c0,1.6,0.1,2.7,0.4,3.3c0.2,0.6,0.7,0.9,1.4,0.9
			c0.7,0,1.2-0.3,1.5-1s0.4-1.8,0.4-3.4v-3.3h-1.9v-2.7h5.1V185h-1.6l-0.6-2.4c-0.2,0.8-0.6,1.5-1.3,1.9
			C199.4,185,198.7,185.2,197.8,185.2z"/>
		<path class="st0" d="M100.6,208.8c-0.6,0.7-1.5,1.1-2.7,1.1c-1.2,0-2.1-0.4-2.7-1.1c-0.6-0.7-0.9-1.7-0.9-2.9s0.3-2.2,0.9-2.9
			c0.6-0.7,1.5-1.1,2.7-1.1c1.2,0,2.1,0.4,2.7,1.1c0.6,0.7,1,1.7,1,2.9S101.2,208.1,100.6,208.8z"/>
		<path class="st0" d="M107.3,216v-19.6c-0.3,0.4-0.8,0.7-1.3,0.9s-1.1,0.3-1.7,0.3v-2.7c0.8-0.1,1.5-0.4,2.2-0.9
			c0.7-0.5,1.2-1.2,1.6-2.1h2.9V216H107.3z"/>
		<path class="st0" d="M123.1,214.6c-0.8,1.1-2.1,1.7-3.8,1.7s-3-0.5-3.8-1.4s-1.2-2.5-1.2-4.7v-1.3h3.5v0.5c0,1.5,0.1,2.5,0.3,3
			c0.2,0.5,0.6,0.7,1.1,0.7s0.9-0.1,1-0.3c0.1-0.2,0.2-0.4,0.3-0.7c0.1-0.2,0.1-0.9,0.1-2.1v-3.6c-0.5,0.3-1.2,0.5-2.2,0.5
			c-1.6,0-2.8-0.6-3.5-1.8s-1-3-1-5.4v-0.9c0-3,0.5-5,1.6-6.1c0.8-0.8,2-1.3,3.6-1.3s2.7,0.3,3.4,0.9c0.7,0.6,1.2,1.4,1.4,2.5
			c0.2,1.1,0.3,2.4,0.3,4.1v9.6C124.4,211.5,124,213.4,123.1,214.6z M119.2,203.9c0.9,0,1.4-0.4,1.6-1.2v-4.6c0-1.2-0.1-2-0.3-2.6
			s-0.6-0.8-1.2-0.8s-1,0.3-1.2,0.8s-0.3,1.4-0.3,2.6v2.2c0,1.3,0.1,2.3,0.3,2.8C118.1,203.6,118.5,203.9,119.2,203.9z"/>
		<path class="st0" d="M128.3,216v-1.4c0-1.3,0.2-2.5,0.6-3.7c0.4-1.2,1.1-2.6,2-4.2c0-0.1,0.4-0.6,1-1.7c0.6-1.1,1.1-1.8,1.4-2.2
			c0.7-1.2,1.1-2.8,1.1-4.9c0-2.1-0.4-3.1-1.3-3.1c-0.7,0-1.2,0.6-1.4,1.7c-0.1,0.5-0.1,1.1-0.1,1.9v3.1H128v-1.5c0-3,0.3-5,0.8-6.1
			s1.3-1.7,2.3-2c0.5-0.2,1.2-0.2,2-0.2s1.5,0.2,2.1,0.5c0.6,0.3,1.1,0.8,1.5,1.5c0.7,1.2,1.1,2.8,1.1,4.8s-0.4,3.7-1.1,5.1
			c-0.8,1.5-1.5,2.8-2.2,3.9c-1.4,2.1-2.2,4-2.6,5.7h5.6v2.9H128.3z"/>
		<path class="st0" d="M145.6,216.3c-3.2,0-4.8-1.7-4.8-5v-3h3.4v2.6c0,1.1,0.2,1.8,0.6,2.1c0.2,0.1,0.4,0.2,0.8,0.2c0,0,0,0,0.1,0
			c0.8,0,1.2-0.8,1.2-2.4v-6.2c0-0.9-0.1-1.5-0.3-2c-0.2-0.4-0.5-0.7-1.1-0.7c-1,0-1.4,0.8-1.4,2.3l-3.2-0.1v-12.3h8.9v3.3h-5.5v4.9
			c0.2-0.3,0.5-0.6,0.9-0.8c0.5-0.2,0.9-0.3,1.5-0.3c1.4,0,2.4,0.6,2.9,1.9s0.8,3.2,0.8,5.9c0,2.7-0.1,4.6-0.3,5.6
			c-0.2,1-0.5,1.8-0.8,2.4C148.7,215.7,147.5,216.3,145.6,216.3z"/>
		<path class="st0" d="M160.8,208.8c-0.6,0.7-1.5,1.1-2.7,1.1c-1.2,0-2.1-0.4-2.7-1.1c-0.6-0.7-0.9-1.7-0.9-2.9s0.3-2.2,0.9-2.9
			c0.6-0.7,1.5-1.1,2.7-1.1c1.2,0,2.1,0.4,2.7,1.1c0.6,0.7,1,1.7,1,2.9S161.4,208.1,160.8,208.8z"/>
	</g>
	<g>
		<path class="st0" d="M158.5,102.7c0-0.1-0.1-0.2-0.1-0.4c-5.5-14.4-21.3-23.4-36.7-20.8C105,84.2,93.1,98.2,93,115
			c-0.1,4.5,0.8,8.9,2.5,13c9.4,22.4,38.1,28.2,55.3,11c7-7,10.2-15.3,9.9-24.7C161.1,110,159.6,105.4,158.5,102.7z"/>
		<path d="M159.4,104.7c0,0.4-0.2,0.6-0.6,0.6c-0.4,0-0.6-0.3-0.6-0.6c0-0.4,0.2-0.6,0.6-0.6C159.2,104.1,159.3,104.4,159.4,104.7z"
			/>
		<path d="M158.7,102.7c0-0.1-0.1-0.2-0.1-0.4C153,87.9,137.2,79,121.8,81.5c-16.6,2.7-28.6,16.6-28.7,33.5c-0.1,4.5,0.8,8.9,2.5,13
			c9.4,22.4,38.1,28.2,55.3,11c7-7,10.2-15.3,9.9-24.7C161.2,110,159.7,105.4,158.7,102.7z M153,134c-0.1-1-0.1-1.7-0.2-2.3
			c-0.1-0.6-0.3-0.9-1-0.4c-2.8,2.2-6,3.1-9.5,3.3c-0.6,0-1,0.1-1.3,0.8c-1.3,3.4-3.1,6.4-6.3,8.3c-0.6,0.4-0.3,0.7,0.1,0.9
			c0.6,0.3,1.3,0.6,2,1c-4.4,2.2-14.5,2.2-19.6,0c0.7-0.3,1.4-0.6,2-1c0.5-0.3,0.7-0.5,0-0.9c-3.1-1.9-4.9-4.8-6.2-8.1
			c-0.3-0.7-0.6-0.9-1.3-1c-3.5-0.1-6.7-1-9.5-3.3c-0.6-0.5-0.9-0.3-1,0.4c-0.1,0.6-0.2,1.3-0.3,2.3c-4.1-5.7-6-11.8-6.1-18.7
			c0.7,0.7,1.2,1.2,1.7,1.6c0.4,0.3,0.6,0.4,0.8-0.2c1-3.6,3.2-6.4,6.1-8.6c0.4-0.3,0.5-0.6,0.4-1.2c-1-3.5-1.2-7,0.1-10.4
			c0.3-0.6-0.1-0.7-0.6-0.7c-0.7,0-1.3,0.2-2,0.5c1.1-3.6,11.1-10.9,15.5-11.4c-0.3,0.8-1.4,1.6-1,2.3c0.4,0.7,1.6,0.1,2.4,0.2
			c2.8,0.4,5.5,1.4,7.9,3c0.6,0.4,0.9,0.4,1.5,0c3-2,6.2-3.2,9.8-3c0.7,0,0.7-0.3,0.5-0.7c-0.3-0.6-0.6-1.2-1.1-2
			c6.6,2.2,11.8,6,16,11.6c-1-0.2-1.6-0.3-2.3-0.4c-0.6-0.1-0.8,0.2-0.5,0.7c1.3,3.5,1.1,6.9,0.1,10.4c-0.1,0.4-0.2,0.8,0.2,1
			c0.1,0.1,0.2,0.1,0.3,0.2c0,0,0,0,0,0c0,0,0.1,0.1,0.1,0.1c0.1,0.1,0.1,0.1,0.2,0.2c2.6,2.1,4.5,5.4,4.8,5.9
			c0.3,0.7,0.6,1.3,0.7,2.1c0.2,0.9,0.5,1,1.1,0.3c0.4-0.4,0.8-0.9,1.5-1.6C159.1,122.1,157.1,128.2,153,134z"/>
		<path d="M140.2,109.8c-3.4-3.7-7.5-6.7-12.1-8.8c-0.7-0.3-1.3-0.3-2.1,0c-4.6,2.1-8.6,5-12,8.7c-0.6,0.7-0.8,1.4-0.7,2.2
			c0.6,5,2.1,9.6,4.5,13.9c0.4,0.8,1,1.2,1.9,1.4c2.3,0.4,4.7,0.7,7,0.7c0.3,0,0.6,0,1,0c2.2,0,5-0.2,7-0.8c0.1,0,0.2-0.1,0.3-0.1
			c1.9-0.9,3.4-5.1,4.3-8.7c0.7-2.2,1.1-4.4,1.4-6.6C140.9,110.8,140.7,110.3,140.2,109.8z"/>
	</g>
</g>
</svg>
