<?xml version="1.0" encoding="utf-8"?>
<!-- Generator: Adobe Illustrator 17.0.0, SVG Export Plug-In . SVG Version: 6.00 Build 0)  -->
<!DOCTYPE svg PUBLIC "-//W3C//DTD SVG 1.1//EN" "http://www.w3.org/Graphics/SVG/1.1/DTD/svg11.dtd" [
	<!ENTITY ns_flows "http://ns.adobe.com/Flows/1.0/">
	<!ENTITY ns_extend "http://ns.adobe.com/Extensibility/1.0/">
	<!ENTITY ns_ai "http://ns.adobe.com/AdobeIllustrator/10.0/">
	<!ENTITY ns_graphs "http://ns.adobe.com/Graphs/1.0/">
]>
<svg version="1.1" id="Layer_2" xmlns:x="&ns_extend;" xmlns:i="&ns_ai;" xmlns:graph="&ns_graphs;"
	 xmlns="http://www.w3.org/2000/svg" xmlns:xlink="http://www.w3.org/1999/xlink" xmlns:a="http://ns.adobe.com/AdobeSVGViewerExtensions/3.0/"
	 x="0px" y="0px" width="256px" height="256px" viewBox="0 0 256 256" style="enable-background:new 0 0 256 256;"
	 xml:space="preserve">
<style type="text/css">
	.st0{fill:#FFFFFF;}
	.st1{fill:#54B948;}
	.st2{fill:#1D8C8E;}
	.st3{fill:#14DEAC;}
	.st4{fill:#1466AC;}
	.st5{fill:#757575;}
	.st6{fill:#B69442;}
	.st7{fill:#1A234D;}
	.st8{fill:#AA0629;}
	.st9{fill:#FF4A49;}
	.st10{fill:#3C6643;}
	.st11{fill:none;stroke:#FF4A49;stroke-miterlimit:10;}
	.st12{fill:#E70084;}
	.st13{fill:#508A72;}
	.st14{fill:#01A663;}
	.st15{fill:#015297;}
	.st16{fill:#B0B0B0;}
	.st17{fill:#E1062F;}
	.st18{fill:#D80000;stroke:#FFFFFF;stroke-width:2;stroke-miterlimit:10;}
	.st19{fill:#D80000;}
	.st20{fill:#8ABE23;}
	.st21{fill:#1D1D1B;}
	.st22{fill:#FEFEFE;}
	.st23{fill:#FF0000;}
	.st24{fill:#FF1D1B;}
	.st25{fill:#6DB2DE;}
	.st26{fill:#FF1D25;}
	.st27{fill:#FFDA00;}
	.st28{fill:#024D9E;}
	.st29{fill:#6B97C6;}
	.st30{fill:#000078;}
	.st31{fill:none;stroke:#FFFFFF;stroke-width:6;stroke-linecap:round;stroke-miterlimit:10;}
	.st32{fill:#FFEE34;}
	.st33{fill:none;stroke:#000000;stroke-width:4;stroke-miterlimit:10;}
	.st34{fill:#D11E24;}
	.st35{fill:#D71F26;}
	.st36{fill:#020000;}
	.st37{fill:none;stroke:#000000;stroke-width:2;stroke-miterlimit:10;}
	.st38{clip-path:url(#SVGID_2_);}
	.st39{fill:#00317D;}
	.st40{fill:#00737D;}
	.st41{fill:#ED1C24;}
	.st42{fill:#2678C7;}
	.st43{fill:#1853A6;}
	.st44{fill:#CB0000;}
	.st45{fill:#E61C21;}
	.st46{clip-path:url(#SVGID_4_);}
	.st47{fill:#6BDEF1;}
	.st48{clip-path:url(#SVGID_6_);}
	.st49{fill:#0165B2;}
	.st50{fill:#DE1134;}
	.st51{fill:#00A668;}
	.st52{fill:#FFE60B;}
	.st53{fill:#843D00;stroke:#000000;stroke-miterlimit:10;}
	.st54{fill:#EC1F27;}
	.st55{fill:#162984;}
	.st56{fill:#1853A6;stroke:#1853A6;stroke-miterlimit:10;}
	.st57{fill:none;}
	.st58{fill:none;stroke:#1853A6;stroke-width:0.9;stroke-miterlimit:10;}
	.st59{fill:#1853A6;stroke:#1853A6;stroke-width:0.9;stroke-miterlimit:10;}
	.st60{fill:#B5985A;}
	.st61{fill:#FFE60B;stroke:#000000;stroke-width:6;stroke-miterlimit:10;}
	.st62{fill:#008DCD;}
	.st63{fill:#009939;}
	.st64{fill:#2E3092;}
	.st65{fill:#EE3224;}
	.st66{fill:#005BAB;}
	.st67{fill:#D30027;}
	.st68{fill:#FFFFFF;stroke:#D30027;stroke-width:10;stroke-miterlimit:10;}
	.st69{fill:#E81C2F;}
	.st70{fill:#DC032B;}
	.st71{fill:#F25448;}
	.st72{fill:#FFFFFF;stroke:#F25448;stroke-width:6;stroke-miterlimit:10;}
	.st73{fill:#05A08D;}
	.st74{fill:#1875CE;}
	.st75{fill:#D72427;}
	.st76{fill:#004993;}
	.st77{fill:#007BB0;}
	.st78{fill:#FFEB00;}
	.st79{fill:#664A9E;}
	.st80{fill:#F4C701;}
	.st81{fill:#EBBE12;}
	.st82{fill:#44B3DB;}
	.st83{fill:#F6FF82;}
	.st84{fill:#FFC918;}
	.st85{fill:#0361A4;}
	.st86{fill:#009FE3;}
	.st87{fill:#E30217;}
	.st88{fill:#FDEA00;}
	.st89{fill:#E91B00;}
	.st90{fill:#2B2763;}
	.st91{fill:#EE1A22;}
	.st92{fill:#F1AA25;}
	.st93{fill:#93000C;}
	.st94{fill:none;stroke:#1D1D1B;stroke-width:4;}
	.st95{fill:#3E4E70;}
	.st96{fill:#096CB6;}
	.st97{fill:#0559A8;}
	.st98{fill:#F9ED1A;}
	.st99{fill:#949494;}
	.st100{fill:#FFD033;}
	.st101{fill:#243D89;}
	.st102{fill:#F8C936;}
	.st103{fill:#D44128;}
	.st104{fill:#ED1B23;}
	.st105{fill:#0C529C;}
	.st106{fill:#E31E24;}
	.st107{fill:#0263B0;}
	.st108{fill:#007AC2;}
	.st109{fill:#EF3D1F;}
	.st110{fill:#EE1C24;}
	.st111{fill:#FDEA00;stroke:#000000;stroke-width:0.6509;}
	.st112{fill:#FDEA00;stroke:#000000;stroke-width:0.6979;}
	.st113{fill:#46A0BE;}
	.st114{fill:#005FA5;}
	.st115{fill:#00904C;}
	.st116{fill:#E21F26;}
	.st117{fill:#FD0001;}
	.st118{fill:#0066B3;}
	.st119{fill:#E20019;}
	.st120{fill:#0171BC;}
	.st121{fill:#01305D;}
	.st122{fill:#1B7EE9;}
	.st123{fill:#BA0D0B;}
	.st124{fill:none;stroke:#000000;stroke-width:3;stroke-miterlimit:10;}
	.st125{fill:#FFFFFF;stroke:#000000;stroke-width:0.8836;stroke-miterlimit:10;}
	.st126{fill:#FFFFFF;stroke:#000000;stroke-width:0.9759;stroke-miterlimit:10;}
	.st127{fill:#0053A1;}
	.st128{fill:#FFE100;}
	.st129{fill:#FFE500;}
	.st130{fill:none;stroke:#FFE500;stroke-width:2;stroke-miterlimit:10;}
	.st131{fill:#01AFF3;}
	.st132{fill:#ED1B28;}
	.st133{fill:#E2000A;}
</style>
<g>
	<g>
		<g>
			<path class="st0" d="M127.6,246.9c-49.2,0-84.1-14.5-103.8-43.1c-14.6-21.3-15-43.1-15-43.3V9.1h238.2v151.5
				c0,0.2-0.3,22-15,43.3C212.5,232.4,177.3,246.9,127.6,246.9z"/>
			<path d="M240.2,16.2v144.3c0,0.8-0.6,20.6-14.1,39.8c-7.9,11.3-18.8,20.3-32.3,26.8c-17.6,8.5-39.9,12.8-66.2,12.8
				c-26.1,0-48.1-4.3-65.6-12.8c-13.4-6.5-24.2-15.5-32.1-26.8c-13.4-19.1-14.1-38.9-14.1-39.9V16.2H240.2 M254,2H2v158.6
				c0,0,0.3,93.4,125.6,93.4C254,254,254,160.6,254,160.6V2L254,2z"/>
		</g>
	</g>
	<g>
		<path d="M146.7,182.2c-4.3,0-7.9,0.1-11.5,0c-1.6,0-1.6-0.2-2.5-6.3c-0.6,2.5,1,6.7-2.1,6.4c-4.3-0.3-1.3-6.5-2.7-8.9
			c-0.6,2.4,0.5,6-0.8,8c-1.3,1.9-3.3-0.6-4.5-0.1c-3.9,1.6-7.7,0.3-11.6,0.9c-0.4,0.1-1,0.3-1.5-1c5.5-12.1,9.3-25.9,12.2-40.4
			c-0.2-0.2-0.5-0.4-0.7-0.6c-1.4,4.9-2.8,9.9-4.2,14.8c-0.5,1.8-0.8,3.9-2.5,2.5c-1.1-0.9-1.8,0.6-2.4,2.1
			c-0.8,2.2-1.2,4.6-1.4,7.2c-0.2,2.2-0.1,3.9-2,2.6c-1.8-1.2-4.3,2.2-4.5,5.5c-0.2,3.3,2,1.9,2.9,4.4c-4.1,0-8,0-11.9,0
			c-3.4,0-6.9,0.1-9.9-3.6c-1.8-2.2-3.3,0.1-4.8,1.7c0.1-6.5,1.4-8.7,4.8-8c0.9,0.2,1.8,0.4,2.6,1c3.6,3.3,6.1,0.9,8.4-4
			c4.2-9.2,8.4-18.3,10.9-29.3c1.1-4.7,2.5-9.9,0-14.2c-2.3-4.1-5.4-2.4-8.1-0.9c-9.7,5.5-18,15.4-26.2,25.7
			c-5.2,6.6-10.4,13.2-16.3,18.1c-1.3,1.1-2.4,2-3.3-1.2c-0.8-2.8-0.8-4.3,0.9-6.1c7.6-8,11.8-21.1,17.2-32.3
			c-0.2-0.3-0.3-0.6-0.5-0.8c-2.4,4.2-4.9,8.3-7.3,12.6c-3.3,5.9-6.8,11.2-10.9,15.2c-1.5,1.4-2.3,1.2-3.2-1.6
			c-2.6-8.6-2.6-8.4,1.8-14.1c6.7-8.7,12.6-19.2,18.9-28.7c-0.1-0.3-0.3-0.6-0.4-1c-2.6,3.4-5.1,6.9-7.7,10.3
			c-4.5,5.9-8.8,12.5-13.9,16.9c-2.1,1.8-3.2,1.4-4.3-2.5c-2.2-8.1-2.2-7.7,2.2-12.3c9-9.3,17.3-20.2,25.6-31.1
			c-7.2,6.4-14.3,12.8-21.5,19.1c-2.8,2.4-5.7,4.6-8.5,7c-1.7,1.4-2.6,0.7-3.5-2.2c-2.7-9.2-2.7-8.9,2.6-12.9
			c9.2-6.8,18.3-13.9,27.4-21c0.6-0.5,1.3-0.7,1.8-2.4c-8.5,4.2-16.7,8.4-24.9,12.5c-3.2,1.6-6.4,3-9.6,4.4c-1.7,0.8-3,0.4-3.7-3
			c-0.7-3.5-3.1-7-2.3-9.9c0.8-3,3.8-1.7,5.9-2.5c10.3-4.1,20.6-8.1,30.9-13c-1.9,0.2-3.9,0.3-5.8,0.5c-10.2,1.1-20.3,3.5-30.5,3.7
			c-3.1,0.1-5.3-1.2-6.3-6.6C22.7,58.8,20,55,21,52.1c0.7-2,4.1-1.9,6.3-2.4c20.1-4.6,40.2-8.1,60.3-12.6c5.6-1.3,11.3-2.6,16.9-3.8
			c4.4-0.9,7.8,3.3,8.9,10.8c0.4,2.6,0.1,3.9-1.6,4.4c-4.8,1.4-6.5,4.3-6.1,9.6c0.4,6.2,4.4,12.2,8,11.9c3.4-0.3,6.5-6,6.5-12.2
			c0-7.3,0.2-14.5,1-21.6c0.4-3.6,1.4-5.1,3.6-5.1c3.2,0,6.5,0.1,9.6,1.6c1.6,0.8,3.1,1.9,4.3,4.1c0.9,1.6,1.5,3.6,0.9,5.5
			c-0.6,1.8-1.6-0.1-2.3-0.4c-3.4-1.2-4.5,0.6-3.8,6.5c0.6,5.7,1.3,11.3,3.4,16c1.7,4.1,3.9,6.7,7,5.4c3-1.2,5.9-6.6,6.3-11.6
			c0.4-5-1.4-8.7-5.2-9.4c-3.1-0.5-3-2.9-2.1-6.7c1.5-6.6,4.4-9.8,8.5-8.9c23.7,5.3,47.4,10.8,71.1,16.1c3.7,0.8,7.4,1.2,11.1,1.5
			c1.5,0.1,2,0.8,1.2,3.3c-1.2,4-2.4,8.1-3.5,12.2c-0.7,2.5-2,2.2-3.3,2.4c-8.2,0.8-16.2-1.4-24.3-2.3c-4.6-0.5-9.1-1.2-13.8-0.8
			c8.1,3.2,16.1,6.5,24.2,9.6c3.8,1.5,7.7,2.6,11.6,3.7c1.3,0.4,1.8,1,1,3.1c-0.1,0.1-0.1,0.3-0.1,0.4c-4,13-1.6,12.7-10.5,8.6
			c-9.9-4.6-19.7-9.8-29.9-13.9c1.1,0.9,2.2,2,3.4,2.8c9.8,7.1,19.3,15.7,29.4,21.9c0.4,0.3,1.2,0.9,1.2,1.2
			c-0.2,4.3-1.9,7.6-3,11.3c-0.7,2.4-1.9,0.8-2.8,0.2c-8.7-6.4-16.9-14.9-25.4-22.1c-1-0.8-1.9-2.5-3.6-1.8
			c5.5,6.7,10.8,13,16.1,19.3c3.7,4.4,7.3,9.1,11.5,12.2c1.3,1,1.6,2.1,0.9,4.2c-3.3,10.3-1.6,12.3-8.8,4.9
			c-5.6-5.7-10.3-13.4-15.5-20.1c-0.8-1-1.6-2-2.7-2.6c6.6,10.5,12.6,22.1,20.2,30.6c1.7,1.9,2.3,3.2,1.2,6.6
			c-3,9.2-1.6,10.2-7.6,3.6c-5.4-5.9-9.3-14.9-13.9-22.5c-0.7-1.1-1.1-2.7-2.7-3.4c5.9,12.4,10.2,25.9,17.9,34
			c2.3,2.4,1.5,4.5,0.7,7.4c-1,3.6-2.2,1.5-3.4,0.6c-4.6-3.8-8.8-8.9-12.7-14.4c-7.7-10.9-15.5-21.8-24.9-28.3
			c-1.1-0.7-2.2-1.4-3.4-1.8c-6.1-2.2-9,2.6-7.7,12.9c1.7,13.4,6.1,24.4,10.9,34.8c1.3,2.9,3.2,3.6,5.3,2c1.1-0.8,2.2-1.4,3.4-1.8
			c3.9-1.3,5.2,0.6,5.9,9.2c-2.5-6-4.8-3.5-7.2-1.4c-1,0.9-2.2,1.5-3.4,1.6c-5.5,0.2-11,0.1-16.5,0.1c0.2-0.3,0.3-0.7,0.5-1
			c0.7-1.3,3.1,0.1,2.3-3.6c-0.7-3.1-1.8-6.6-4.3-5.1c-1.6,1-1.8-0.2-2-2.4c-0.2-2.5-0.6-5-1.4-7.2c-0.4-1.2-1-2.9-1.7-2.4
			c-3.1,1.9-3.2-2.7-4.1-5.4c-1.2-3.8-2.2-7.7-3.7-11.2C136.8,155.5,140.7,169.1,146.7,182.2z"/>
	</g>
	<g>
		<path d="M108.2,227v-23.1c-0.4,0.4-0.9,0.8-1.5,1c-0.7,0.2-1.3,0.4-1.9,0.4V202c0.9-0.1,1.7-0.5,2.5-1.1c0.8-0.6,1.4-1.4,1.8-2.4
			h3.3V227H108.2z"/>
		<path d="M126.3,225.3c-0.9,1.4-2.4,2-4.4,2s-3.4-0.6-4.3-1.7c-0.9-1.1-1.4-2.9-1.4-5.5v-1.6h4v0.6c0,1.8,0.1,2.9,0.4,3.5
			c0.2,0.6,0.7,0.9,1.3,0.9c0.6,0,1-0.1,1.2-0.4c0.1-0.3,0.3-0.5,0.4-0.8c0.1-0.3,0.1-1.1,0.1-2.5v-4.3c-0.6,0.4-1.4,0.6-2.6,0.6
			c-1.9,0-3.2-0.7-4-2.1c-0.8-1.4-1.2-3.5-1.2-6.3v-1c0-3.5,0.6-5.9,1.8-7.1c1-1,2.3-1.5,4.1-1.5s3.1,0.4,4,1.1
			c0.8,0.7,1.4,1.7,1.7,2.9c0.3,1.3,0.4,2.9,0.4,4.9v11.4C127.7,221.6,127.3,223.9,126.3,225.3z M121.8,212.6c1,0,1.6-0.5,1.8-1.4
			v-5.4c0-1.4-0.1-2.4-0.4-3c-0.2-0.6-0.7-0.9-1.4-0.9c-0.7,0-1.2,0.3-1.4,0.9c-0.3,0.6-0.4,1.6-0.4,3.1v2.5c0,1.6,0.1,2.7,0.4,3.3
			C120.6,212.3,121.1,212.6,121.8,212.6z"/>
		<path d="M142.4,225.3c-1,1.4-2.6,2-4.8,2c-2.2,0-3.8-0.7-4.8-2s-1.5-3.4-1.5-6v-13.6c0-2.5,0.5-4.4,1.5-5.6s2.6-1.9,4.8-1.9
			c2.2,0,3.8,0.6,4.8,1.9s1.5,3.1,1.5,5.6v13.6C143.9,221.9,143.4,223.9,142.4,225.3z M137.6,223.6c0.7,0,1.2-0.3,1.5-0.8
			c0.4-0.5,0.5-1.7,0.5-3.4v-13.9c0-2.1-0.5-3.3-1.4-3.5c-0.2,0-0.5-0.1-0.9-0.1c-0.4,0-0.8,0.2-1.2,0.6c-0.4,0.4-0.6,1.4-0.6,3
			v13.9c0,1.8,0.2,2.9,0.5,3.4C136.4,223.3,136.9,223.6,137.6,223.6z"/>
		<path d="M151.5,210.5c0.7-0.9,1.8-1.4,3.4-1.4c1.6,0,2.8,0.7,3.5,2c0.7,1.4,1.1,3.5,1.1,6.4v1.6c0,2.7-0.4,4.8-1.3,6.1
			c-0.8,1.4-2.4,2-4.8,2c-2.9,0-4.7-1.1-5.5-3.4c-0.5-1.3-0.7-3.2-0.7-5.5v-11.7c0-4.1,0.9-6.7,2.8-7.8c0.9-0.5,2.1-0.8,3.5-0.8
			c1.9,0,3.2,0.5,4.1,1.6c0.9,1.1,1.3,2.9,1.3,5.6v1.5H155v-0.6c0-1.7-0.1-2.9-0.3-3.4c-0.2-0.6-0.7-0.9-1.4-0.9
			c-0.8,0-1.3,0.3-1.5,0.9c-0.2,0.6-0.4,1.8-0.4,3.6V210.5z M151.9,222.6c0.3,0.6,0.8,0.9,1.6,0.9c0.8,0,1.3-0.3,1.5-0.8
			c0.3-0.5,0.4-1.5,0.4-2.8v-2.7c0-1.6-0.1-2.7-0.4-3.4c-0.3-0.7-0.7-1-1.4-1c-0.6,0-1.2,0.1-1.5,0.4c-0.4,0.3-0.6,0.7-0.7,1.1v5.1
			C151.5,220.9,151.6,222,151.9,222.6z"/>
	</g>
	<path class="st0" d="M148,83.5c-3.1-2.1-6.2-4.2-9.1-6.4c-1.5-1.1-2.5-1.1-3.9,0c-1.5,1.2-3.2,2.1-4.8,3.1c-0.4,0.3-2.2,1-3.1,1.5
		c-0.1,0-0.2,0-0.2,0c-0.2,0-0.4-0.3-0.6-0.4c-1.2-0.8-2.5-1.6-3.6-2.5c-0.6-0.5-1.1-0.4-1.7,0c-1.9,1.5-3.8,2.9-5.7,4.4
		c-0.4,0.3-1,0.6-0.4,1.2c0.4,0.5,0.8,1.1,1.6,0.5c0.4-0.3,0.9-0.6,1.3-0.8c0.9-0.5,2.8,0.3,2.8,1.5c0.2,3.9,0.6,7.8-3.4,10.2
		c-0.1,0-0.1,0.1-0.2,0.2c-0.5,0.5-0.5,0.9,0,1.3c0.9,0.7,1.8,1.5,2.7,2.3c0.7,0.5,0.9,1.1,0.9,2c0,4.9-0.2,9.9,0,14.8
		c0.2,3.5-0.5,6.2-3.5,8.1c-0.1,0.1-0.2,0.2-0.3,0.3c-0.7,0.5-0.4,1-0.1,1.5c0.4,0.6,0.8,0.6,1.3,0.1c0.8-0.7,1.6-0.6,2.5-0.2
		c1.8,0.8,3.6,1.6,5.3,2.4c0.6,0.3,1,0.3,1.5-0.2c1.5-1.5,3.1-2.9,4.6-4.4c0.3-0.3,0.7-0.5,0.5-0.9c-0.2-0.5-0.6-0.9-1.1-1
		c-0.5-0.1-0.9,0.5-1.3,0.7c-0.5,0.3-0.8,0.8-1.5,0.3c-0.6-0.4-0.4-0.9-0.4-1.4c0-3.8,0-7.6,0-11.3c0.8,1.5,2.6,3,4,3.6
		c1,0.5,1.8,0.7,2.8,0c3.8-2.3,7.6-4.6,11.5-6.8c0.9-0.5,1.2-1.1,1.2-2.2c0-6,0-11.9,0-17.9c0-0.7,0-1.3,0.6-1.7
		C149.1,84.5,148.7,84,148,83.5z M138,108.4c-0.6,0.3-1,0.4-1.6,0c-1.5-0.9-3.1-1.7-4.7-2.5c-1-0.5-2.8-0.8-3.7-0.3
		c0-1.2,0-1.7,0-3.7c0,0,0,0,0,0c0-6,0-12.2,0-18.4c0-0.3,0-0.5,0-0.8c1.3,0.1,3.1-0.1,3.4-0.3c0.5-0.2,0.9-0.5,1.3-0.8
		c0.6-0.5,1-0.4,1.6,0.1c1.7,1.3,3.4,2.6,5.2,3.9c0.5,0.4,0.8,0.8,0.8,1.5c0,3.1,0,6.3,0,9.4c0,2.6-0.2,5.1,0.1,7.7
		C140.5,106.4,139.8,107.6,138,108.4z"/>
</g>
</svg>
