<?xml version="1.0" encoding="utf-8"?>
<!-- Generator: Adobe Illustrator 17.0.0, SVG Export Plug-In . SVG Version: 6.00 Build 0)  -->
<!DOCTYPE svg PUBLIC "-//W3C//DTD SVG 1.1//EN" "http://www.w3.org/Graphics/SVG/1.1/DTD/svg11.dtd" [
	<!ENTITY ns_flows "http://ns.adobe.com/Flows/1.0/">
	<!ENTITY ns_extend "http://ns.adobe.com/Extensibility/1.0/">
	<!ENTITY ns_ai "http://ns.adobe.com/AdobeIllustrator/10.0/">
	<!ENTITY ns_graphs "http://ns.adobe.com/Graphs/1.0/">
]>
<svg version="1.1" id="Layer_2" xmlns:x="&ns_extend;" xmlns:i="&ns_ai;" xmlns:graph="&ns_graphs;"
	 xmlns="http://www.w3.org/2000/svg" xmlns:xlink="http://www.w3.org/1999/xlink" xmlns:a="http://ns.adobe.com/AdobeSVGViewerExtensions/3.0/"
	 x="0px" y="0px" width="256px" height="256px" viewBox="0 0 256 256" style="enable-background:new 0 0 256 256;"
	 xml:space="preserve">
<style type="text/css">
	.st0{fill:#FFFFFF;}
	.st1{fill:#54B948;}
	.st2{fill:#1D8C8E;}
	.st3{fill:#14DEAC;}
	.st4{fill:#1466AC;}
	.st5{fill:#757575;}
	.st6{fill:#B69442;}
	.st7{fill:#1A234D;}
	.st8{fill:#AA0629;}
	.st9{fill:#FF4A49;}
	.st10{fill:#3C6643;}
	.st11{fill:none;stroke:#FF4A49;stroke-miterlimit:10;}
	.st12{fill:#E70084;}
	.st13{fill:#508A72;}
	.st14{fill:#01A663;}
	.st15{fill:#015297;}
	.st16{fill:#B0B0B0;}
	.st17{fill:#E1062F;}
	.st18{fill:#D80000;stroke:#FFFFFF;stroke-width:2;stroke-miterlimit:10;}
	.st19{fill:#D80000;}
	.st20{fill:#8ABE23;}
	.st21{fill:#1D1D1B;}
	.st22{fill:#FEFEFE;}
	.st23{fill:#FF0000;}
	.st24{fill:#FF1D1B;}
	.st25{fill:#6DB2DE;}
	.st26{fill:#FF1D25;}
	.st27{fill:#FFDA00;}
	.st28{fill:#024D9E;}
	.st29{fill:#6B97C6;}
	.st30{fill:#000078;}
	.st31{fill:none;stroke:#FFFFFF;stroke-width:6;stroke-linecap:round;stroke-miterlimit:10;}
	.st32{fill:#FFEE34;}
	.st33{fill:none;stroke:#000000;stroke-width:4;stroke-miterlimit:10;}
	.st34{fill:#D11E24;}
	.st35{fill:#D71F26;}
	.st36{fill:#020000;}
	.st37{fill:none;stroke:#000000;stroke-width:2;stroke-miterlimit:10;}
	.st38{clip-path:url(#SVGID_2_);}
	.st39{fill:#00317D;}
	.st40{fill:#00737D;}
	.st41{fill:#ED1C24;}
	.st42{fill:#2678C7;}
	.st43{fill:#1853A6;}
	.st44{fill:#CB0000;}
	.st45{fill:#E61C21;}
	.st46{clip-path:url(#SVGID_4_);}
	.st47{fill:#6BDEF1;}
	.st48{clip-path:url(#SVGID_6_);}
	.st49{fill:#0165B2;}
	.st50{fill:#DE1134;}
	.st51{fill:#00A668;}
	.st52{fill:#FFE60B;}
	.st53{fill:#843D00;stroke:#000000;stroke-miterlimit:10;}
	.st54{fill:#EC1F27;}
	.st55{fill:#162984;}
	.st56{fill:#1853A6;stroke:#1853A6;stroke-miterlimit:10;}
	.st57{fill:none;}
	.st58{fill:none;stroke:#1853A6;stroke-width:0.9;stroke-miterlimit:10;}
	.st59{fill:#1853A6;stroke:#1853A6;stroke-width:0.9;stroke-miterlimit:10;}
	.st60{fill:#B5985A;}
	.st61{fill:#FFE60B;stroke:#000000;stroke-width:6;stroke-miterlimit:10;}
	.st62{fill:#008DCD;}
	.st63{fill:#009939;}
	.st64{fill:#2E3092;}
	.st65{fill:#EE3224;}
	.st66{fill:#005BAB;}
	.st67{fill:#D30027;}
	.st68{fill:#FFFFFF;stroke:#D30027;stroke-width:10;stroke-miterlimit:10;}
	.st69{fill:#E81C2F;}
	.st70{fill:#DC032B;}
	.st71{fill:#F25448;}
	.st72{fill:#FFFFFF;stroke:#F25448;stroke-width:6;stroke-miterlimit:10;}
	.st73{fill:#05A08D;}
	.st74{fill:#1875CE;}
	.st75{fill:#D72427;}
	.st76{fill:#004993;}
	.st77{fill:#007BB0;}
	.st78{fill:#FFEB00;}
	.st79{fill:#664A9E;}
	.st80{fill:#F4C701;}
	.st81{fill:#EBBE12;}
	.st82{fill:#44B3DB;}
	.st83{fill:#F6FF82;}
	.st84{fill:#FFC918;}
	.st85{fill:#0361A4;}
	.st86{fill:#009FE3;}
	.st87{fill:#E30217;}
	.st88{fill:#FDEA00;}
	.st89{fill:#E91B00;}
	.st90{fill:#2B2763;}
	.st91{fill:#EE1A22;}
	.st92{fill:#F1AA25;}
	.st93{fill:#93000C;}
	.st94{fill:none;stroke:#1D1D1B;stroke-width:4;}
	.st95{fill:#3E4E70;}
	.st96{fill:#096CB6;}
	.st97{fill:#0559A8;}
	.st98{fill:#F9ED1A;}
	.st99{fill:#949494;}
	.st100{fill:#FFD033;}
	.st101{fill:#243D89;}
	.st102{fill:#F8C936;}
	.st103{fill:#D44128;}
	.st104{fill:#ED1B23;}
	.st105{fill:#0C529C;}
	.st106{fill:#E31E24;}
	.st107{fill:#0263B0;}
	.st108{fill:#007AC2;}
	.st109{fill:#EF3D1F;}
	.st110{fill:#EE1C24;}
	.st111{fill:#FDEA00;stroke:#000000;stroke-width:0.6509;}
	.st112{fill:#FDEA00;stroke:#000000;stroke-width:0.6979;}
	.st113{fill:#46A0BE;}
	.st114{fill:#005FA5;}
	.st115{fill:#00904C;}
	.st116{fill:#E21F26;}
	.st117{fill:#FD0001;}
	.st118{fill:#0066B3;}
	.st119{fill:#E20019;}
	.st120{fill:#0171BC;}
	.st121{fill:#01305D;}
	.st122{fill:#1B7EE9;}
	.st123{fill:#BA0D0B;}
	.st124{fill:none;stroke:#000000;stroke-width:3;stroke-miterlimit:10;}
	.st125{fill:#FFFFFF;stroke:#000000;stroke-width:0.8836;stroke-miterlimit:10;}
	.st126{fill:#FFFFFF;stroke:#000000;stroke-width:0.9759;stroke-miterlimit:10;}
	.st127{fill:#0053A1;}
	.st128{fill:#FFE100;}
	.st129{fill:#FFE500;}
	.st130{fill:none;stroke:#FFE500;stroke-width:2;stroke-miterlimit:10;}
	.st131{fill:#01AFF3;}
	.st132{fill:#ED1B28;}
	.st133{fill:#E2000A;}
</style>
<g>
	<g>
		<g>
			<path class="st0" d="M128,249.4C61,249.4,6.6,195,6.6,128S61,6.6,128,6.6S249.4,61,249.4,128S195,249.4,128,249.4z"/>
			<path class="st107" d="M128,11.1c31.2,0,60.6,12.2,82.6,34.2s34.2,51.4,34.2,82.6s-12.2,60.6-34.2,82.6s-51.4,34.2-82.6,34.2
				s-60.6-12.2-82.6-34.2S11.1,159.2,11.1,128s12.2-60.6,34.2-82.6S96.8,11.1,128,11.1 M128,2C58.4,2,2,58.4,2,128s56.4,126,126,126
				s126-56.4,126-126S197.6,2,128,2L128,2z"/>
		</g>
	</g>
	<g>
		<path class="st107" d="M45.9,186.4v-24.1h4.6l3.4,17.6l3.2-17.6h4.6v24.1h-3.3v-9l0.1-8.3l-3.3,17.2h-2.9L49,169.1l0.1,8.3v9H45.9
			z"/>
		<path class="st107" d="M65.3,186.4v-24.1h8.1v3.2H69v7h4.2v3.1H69v7.7h4.6v3.2H65.3z"/>
		<path class="st107" d="M76.7,186.4v-24.1h3.7v24.1H76.7z"/>
		<path class="st107" d="M84.1,186.4v-24.1h5.4c1.8,0,3.1,0.5,3.9,1.6c0.8,1,1.2,2.6,1.2,4.6l0,10.9c0,2.4-0.4,4.2-1.2,5.4
			c-0.8,1.1-2.1,1.7-4,1.7H84.1z M87.8,183.6H89c0.7,0,1.2-0.2,1.5-0.7c0.3-0.4,0.5-1.2,0.5-2.4l0-11.9c0-1.3-0.2-2.1-0.5-2.7
			c-0.3-0.5-0.8-0.8-1.6-0.8h-1.1V183.6z"/>
		<path class="st107" d="M97.9,186.4v-24.1h8.1v3.2h-4.4v7h4.2v3.1h-4.2v7.7h4.6v3.2H97.9z"/>
		<path class="st107" d="M113.9,175.1l-1.2-0.1v11.4h-3.7v-24.1h6.1c1.3,0,2.2,0.3,2.8,0.8c0.6,0.5,1,1.2,1.2,2.1
			c0.2,0.9,0.3,2.1,0.3,3.6s-0.2,2.6-0.5,3.4c-0.3,0.8-0.9,1.3-1.7,1.6c0.8,0.1,1.4,0.7,1.7,1.7c0.3,1,0.5,3,0.5,6.1
			c0,3.1,0,4.8,0.1,5H116c-0.1-0.2-0.1-3.1-0.1-8.7c0-1.1-0.1-1.8-0.4-2.1C115.2,175.3,114.7,175.1,113.9,175.1z M112.8,172.1h1.5
			c0.5,0,0.8-0.1,1-0.3c0.2-0.2,0.4-0.6,0.5-1.1c0.1-0.5,0.1-1.3,0.1-2.3v-0.2c0-1.3-0.1-2.2-0.3-2.6c-0.2-0.4-0.7-0.6-1.5-0.6h-1.2
			V172.1z"/>
		<path class="st107" d="M123.1,186.4v-24.1h3.7v24.1H123.1z"/>
		<path class="st107" d="M139.5,185c-0.8,1.1-2.1,1.7-3.9,1.7s-3.1-0.6-4-1.8c-0.9-1.2-1.3-2.9-1.3-5.2v-10.5c0-3.6,0.9-5.8,2.8-6.7
			c0.7-0.3,1.5-0.5,2.5-0.5c3.4,0,5.1,2.1,5.1,6.4v3.3h-3.6v-3.1c0-1.2-0.1-2.1-0.3-2.7s-0.6-0.8-1.2-0.8s-1,0.3-1.3,0.9
			s-0.4,1.4-0.4,2.6v11.3c0,1.3,0.1,2.2,0.3,2.8c0.2,0.6,0.6,0.8,1.2,0.8s1-0.3,1.2-0.9c0.2-0.6,0.3-1.5,0.3-2.8v-3.5h3.6v3.4
			C140.7,182.2,140.3,183.9,139.5,185z"/>
		<path class="st107" d="M143.7,186.4v-24.1h3.7v9.8h3.3v-9.8h3.7v24.1h-3.7v-11.2h-3.3v11.2H143.7z"/>
		<path class="st107" d="M158,186.4v-24.1h8.1v3.2h-4.4v7h4.2v3.1h-4.2v7.7h4.6v3.2H158z"/>
		<path class="st107" d="M174,175.1l-1.2-0.1v11.4h-3.7v-24.1h6.1c1.3,0,2.2,0.3,2.8,0.8c0.6,0.5,1,1.2,1.2,2.1
			c0.2,0.9,0.3,2.1,0.3,3.6s-0.2,2.6-0.5,3.4c-0.3,0.8-0.9,1.3-1.7,1.6c0.8,0.1,1.4,0.7,1.7,1.7c0.3,1,0.5,3,0.5,6.1
			c0,3.1,0,4.8,0.1,5h-3.7c-0.1-0.2-0.1-3.1-0.1-8.7c0-1.1-0.1-1.8-0.4-2.1C175.3,175.3,174.8,175.1,174,175.1z M172.9,172.1h1.5
			c0.5,0,0.8-0.1,1-0.3c0.2-0.2,0.4-0.6,0.5-1.1c0.1-0.5,0.1-1.3,0.1-2.3v-0.2c0-1.3-0.1-2.2-0.3-2.6c-0.2-0.4-0.7-0.6-1.5-0.6h-1.2
			V172.1z"/>
		<path class="st107" d="M187.6,179.6v-2.2h3.5v2.4c0,1.3,0.1,2.3,0.3,2.8c0.2,0.5,0.7,0.8,1.3,0.8c0.6,0,1-0.2,1.3-0.7
			c0.2-0.4,0.3-1.2,0.3-2.2s-0.2-1.9-0.5-2.7c-0.4-0.8-0.9-1.5-1.7-2.4l-1.8-1.8c-0.8-0.9-1.5-1.8-1.9-2.7c-0.5-0.9-0.7-2-0.7-3.2
			c0-2,0.4-3.5,1.2-4.4s2.1-1.5,4-1.5s3.1,0.6,3.8,1.7c0.7,1.1,1,2.8,1,4.9v1.5h-3.4v-1.7c0-1.2-0.1-2-0.3-2.5
			c-0.2-0.5-0.6-0.8-1.2-0.8c-0.6,0-1,0.2-1.2,0.6c-0.3,0.4-0.4,1-0.4,1.7s0.1,1.4,0.4,1.8c0.3,0.5,0.7,1,1.4,1.8l2,2.2
			c1,1.1,1.7,2.2,2.3,3.3c0.5,1.1,0.8,2.3,0.8,3.6c0,2.3-0.4,3.9-1.1,5s-2.1,1.6-4,1.6s-3.2-0.6-4-1.8
			C188,183.7,187.6,181.9,187.6,179.6z"/>
		<path class="st107" d="M203.2,186.4l-3.7-24.1h3.5l1.6,10.9l1,7.7h0.1l0.8-7.7l1.3-10.9h3.4l-3.4,24.1H203.2z"/>
		<path class="st107" d="M71.6,216c-0.9,1.2-2.3,1.7-4.2,1.7c-1.9,0-3.3-0.6-4.2-1.7c-0.9-1.2-1.3-2.8-1.3-5.1v-11.5
			c0-2.1,0.4-3.7,1.3-4.8s2.3-1.6,4.2-1.6c1.9,0,3.3,0.5,4.2,1.6s1.3,2.7,1.3,4.8v11.5C72.9,213.1,72.4,214.8,71.6,216z M67.4,214.5
			c0.6,0,1-0.2,1.3-0.7s0.5-1.4,0.5-2.9v-11.8c0-1.8-0.4-2.8-1.2-3c-0.2,0-0.4-0.1-0.8-0.1c-0.4,0-0.7,0.2-1,0.5s-0.5,1.2-0.5,2.5
			V211c0,1.5,0.1,2.5,0.4,2.9C66.3,214.3,66.8,214.5,67.4,214.5z"/>
		<path class="st107" d="M76.6,217.4V216c0-1.3,0.2-2.5,0.6-3.7c0.4-1.2,1.1-2.6,2-4.2c0-0.1,0.4-0.6,1-1.7c0.6-1.1,1.1-1.8,1.4-2.2
			c0.7-1.2,1.1-2.8,1.1-4.9c0-2.1-0.4-3.1-1.3-3.1c-0.7,0-1.2,0.6-1.4,1.7c-0.1,0.5-0.1,1.1-0.1,1.9v3.1h-3.5v-1.5
			c0-3,0.3-5,0.8-6.1c0.6-1.1,1.3-1.7,2.3-2c0.5-0.2,1.2-0.2,2-0.2s1.5,0.2,2.1,0.5c0.6,0.3,1.1,0.8,1.5,1.5
			c0.7,1.2,1.1,2.8,1.1,4.8s-0.4,3.7-1.1,5.1c-0.8,1.5-1.5,2.8-2.3,3.9c-1.4,2.1-2.2,4-2.6,5.7h5.6v2.9H76.6z"/>
		<path class="st107" d="M94.3,217.4v-24.1h5.4c1.8,0,3.1,0.5,3.9,1.6c0.8,1,1.2,2.6,1.2,4.6l0,10.9c0,2.4-0.4,4.2-1.2,5.4
			c-0.8,1.1-2.1,1.7-4,1.7H94.3z M97.9,214.6h1.2c0.7,0,1.2-0.2,1.5-0.7c0.3-0.4,0.5-1.2,0.5-2.4l0-11.9c0-1.3-0.2-2.1-0.5-2.7
			c-0.3-0.5-0.8-0.8-1.6-0.8h-1.1V214.6z"/>
		<path class="st107" d="M117.3,216.1c-0.8,1-2.2,1.6-4.1,1.6s-3.2-0.5-4.1-1.6c-0.8-1.1-1.3-2.7-1.3-4.9v-18h3.7v17.9
			c0,1.3,0.1,2,0.2,2.3c0.1,0.3,0.3,0.5,0.4,0.7c0.2,0.2,0.5,0.3,1,0.3c0.5,0,0.9-0.2,1.1-0.5c0.2-0.3,0.4-0.7,0.4-1.2
			c0.1-0.5,0.1-1.1,0.1-1.8v-17.9h3.7v18C118.6,213.4,118.2,215.1,117.3,216.1z"/>
		<path class="st107" d="M122.2,217.4v-24.1h3.7v24.1H122.2z"/>
		<path class="st107" d="M129.2,210.6v-2.2h3.5v2.4c0,1.3,0.1,2.3,0.3,2.8c0.2,0.5,0.7,0.8,1.3,0.8c0.6,0,1-0.2,1.3-0.7
			c0.2-0.4,0.3-1.2,0.3-2.2s-0.2-1.9-0.5-2.7c-0.4-0.8-0.9-1.5-1.7-2.4l-1.8-1.8c-0.8-0.9-1.5-1.8-1.9-2.7c-0.5-0.9-0.7-2-0.7-3.2
			c0-2,0.4-3.5,1.2-4.4s2.1-1.5,4-1.5s3.1,0.6,3.8,1.7c0.7,1.1,1,2.8,1,4.9v1.5h-3.4v-1.7c0-1.2-0.1-2-0.3-2.5
			c-0.2-0.5-0.6-0.8-1.2-0.8c-0.6,0-1,0.2-1.2,0.6c-0.3,0.4-0.4,1-0.4,1.7s0.1,1.4,0.4,1.8c0.3,0.5,0.7,1,1.4,1.8l2,2.2
			c1,1.1,1.7,2.2,2.3,3.3c0.5,1.1,0.8,2.3,0.8,3.6c0,2.3-0.4,3.9-1.1,5s-2.1,1.6-4,1.6s-3.2-0.6-4-1.8
			C129.5,214.7,129.2,212.9,129.2,210.6z"/>
		<path class="st107" d="M152.4,199.5c0,2.6-0.7,4.2-2.1,4.8c1.7,0.6,2.6,2.5,2.6,5.7v0.6c0,2.4-0.4,4.2-1.3,5.2
			c-0.8,1.1-2.2,1.6-4.1,1.6h-5.3v-24.1h5.2c1.8,0,3.1,0.4,3.8,1.3s1.1,2.2,1.1,4.2V199.5z M145.9,203h1.4c0.6,0,1-0.2,1.2-0.6
			s0.3-1.2,0.3-2.5v-1.5c0-0.9-0.1-1.6-0.4-1.9c-0.2-0.3-0.7-0.5-1.3-0.5h-1.2V203z M145.9,214.6h1.3c0.7,0,1.2-0.3,1.5-0.8
			s0.4-1.4,0.4-2.7v-1.9c0-1.2-0.1-2.1-0.4-2.6c-0.2-0.5-0.7-0.8-1.4-0.8h-1.6V214.6z"/>
		<path class="st107" d="M165,216.1c-0.8,1-2.2,1.6-4.1,1.6s-3.2-0.5-4.1-1.6c-0.8-1.1-1.3-2.7-1.3-4.9v-18h3.7v17.9
			c0,1.3,0.1,2,0.2,2.3c0.1,0.3,0.3,0.5,0.4,0.7c0.2,0.2,0.5,0.3,1,0.3c0.5,0,0.9-0.2,1.1-0.5c0.2-0.3,0.4-0.7,0.4-1.2
			c0.1-0.5,0.1-1.1,0.1-1.8v-17.9h3.7v18C166.2,213.4,165.8,215.1,165,216.1z"/>
		<path class="st107" d="M174.6,206.1l-1.2-0.1v11.4h-3.7v-24.1h6.1c1.3,0,2.2,0.3,2.8,0.8c0.6,0.5,1,1.2,1.2,2.1
			c0.2,0.9,0.3,2.1,0.3,3.6s-0.2,2.6-0.5,3.4c-0.3,0.8-0.9,1.3-1.7,1.6c0.8,0.1,1.4,0.7,1.7,1.7c0.3,1,0.5,3,0.5,6.1
			c0,3.1,0,4.8,0.1,5h-3.7c-0.1-0.2-0.1-3.1-0.1-8.7c0-1.1-0.1-1.8-0.4-2.1C175.9,206.3,175.3,206.1,174.6,206.1z M173.4,203.1h1.5
			c0.5,0,0.8-0.1,1-0.3c0.2-0.2,0.4-0.6,0.5-1.1c0.1-0.5,0.1-1.3,0.1-2.3v-0.2c0-1.3-0.1-2.2-0.3-2.6c-0.2-0.4-0.7-0.6-1.5-0.6h-1.2
			V203.1z"/>
		<path class="st107" d="M188.1,217.7c-1.5,0-2.7-0.6-3.6-1.8c-0.9-1.2-1.3-3-1.3-5.5v-10.5c0-2.2,0.4-3.9,1.3-5.1
			c0.9-1.2,2.3-1.8,4.2-1.8c2.4,0,3.9,0.9,4.5,2.6c0.4,1.1,0.6,2.5,0.6,4.3v1.7h-3.4v-2.5c0-1.1-0.1-1.9-0.3-2.3
			c-0.2-0.4-0.7-0.7-1.3-0.7c-0.6,0-1.1,0.3-1.4,0.8s-0.4,1.5-0.4,2.8v10.5c0,1.6,0.1,2.7,0.4,3.3s0.7,0.9,1.4,0.9
			c0.7,0,1.2-0.3,1.5-1s0.4-1.8,0.4-3.4v-3.3h-1.9v-2.7h5.1v13.2h-1.6l-0.6-2.4c-0.2,0.8-0.6,1.5-1.3,1.9
			C189.7,217.4,189,217.7,188.1,217.7z"/>
	</g>
	<g>
		<path class="st107" d="M150.4,103.7c-2.7-1.6-5.4-3.1-8.1-4.6c-2.1-1.2-2.7-0.1-2.7,1.8c0,9.3-0.1,20.7-0.1,30.1
			c0,7.1,0-3.7,0,3.4c0,1.7-0.4,2.6-1.3,2.8c-6.2-3-31.4-16.8-37.4-46.4c-0.4-2-2.7-0.7-5,0.5c-1.5,0.7-3.6,1.9-5,2.7
			c-0.8,0.5-2.5,1.7-1.4,6.4c1.1,4.4,11.6,37.8,47.8,51.1c2.6,1,5.3,1.9,7.9,2.5c0.2,0,0.3,0.1,0.4,0.1c0,0,0,0,0,0
			c1.1,0.2,2.2,0.4,3.3,0.6c2.7,0.4,3.5-0.6,3.6-3.1c0.1-19.4,0.2-24.1,0.3-43.5C152.6,106.3,152,104.7,150.4,103.7z"/>
		<path class="st107" d="M96.9,86.2c2.6-1.3,3.5-3.1,3.5-6c-0.1-16.1,0.1-14.1-0.2-30.1c-0.1-4.3,0.9-6.8,5.2-8.4
			c5.2-1.9,5.5-2.1,5.5,3.3c0,15.5,0,31,0,46.4c0,3.6,0.9,4.1,4.1,2.3c1.8-1,3.6-2.1,5.4-3.1c2.6-1.3,3.8-3.3,3.7-6.4
			c-0.2-9.2-0.1-18.5-0.1-27.7c0-9.6,0-19.2,0-28.8c0-2.1-0.2-4.1-3.2-3.7c-8.4,1.2-16.5,3.2-24,7.3c-30.7,16.5-44.1,52.2-31,85
			c1.7,4.1,1.9,4.3,5.8,2.2c1.6-0.9,3.1-2,4.8-2.7c2.3-1,2.4-2.3,1.5-4.4c-3.5-8-4.5-16.4-3.9-25c0.7-10.4,4.4-19.7,10.6-28.1
			c0.5-0.7,1-1.4,1.9-1.2c1.1,0.3,0.8,1.3,0.8,2c0,2.5,0,5.1,0,7.6c0,12.7,0,7.4,0,20.1c0,3.7,0.7,4.2,3.7,2.5
			C93.1,88.4,94.9,87.2,96.9,86.2z"/>
		<path class="st107" d="M194.8,84.8c-0.2-2.5-1.4-4.2-3.6-5.5c-12.9-7.4-27.5-16.1-40.8-23.4c-6.3-3.4-6.9-4.8-6.9-11.4
			c0-4.9,2.5-4.8,5.4-3.5c2.7,1.2,27.1,16.3,36.7,22c0.8,0.5,1.8,1.7,2.7,0.7c0.8-0.9,0-1.9-0.5-2.9c-5.3-10.5-13-19-22.7-25.6
			c-8.8-6-18.6-9.6-29.2-10.8c-3.5-0.4-4.2-0.1-4.2,3.4c0,9.6,0,19.2,0,28.8c0,2.5,0.9,4,3.1,5.2c13.8,7.9,27.3,16.2,41.3,23.8
			c4.5,2.5,6.7,5.2,5.7,10.2c-0.1,0.3,0,0.7,0,1c-0.2,4.5-1.1,5-5,2.7c-5.3-3-10.5-6.1-15.8-9.2c-5.3-3.1-10.6-6.1-15.9-9.2
			c-2.1-1.2-4.2-2.4-6.3-3.6c-1.9-1.1-3.9-3.7-6.1-2.5c-0.8,0.5-1.1,1.2-1.1,2c-0.1,1.4-0.1,6.2-0.1,6.9c-0.1,3.7,2.2,6,6,7.8
			c4,1.9,7.9,4.3,11.8,6.6c1.2,0.7,2.4,1.4,3.6,2.1c3.3,1.9,6.5,3.8,9.8,5.6c7.5,4.3,15,8.6,22.5,13c2.3,1.3,3.4,0.8,4.2-1.4
			c0.6-1.6,1.2-3.2,1.8-4.9C194.4,103.9,195.7,94.4,194.8,84.8z"/>
	</g>
</g>
</svg>
