<?xml version="1.0" encoding="utf-8"?>
<!-- Generator: Adobe Illustrator 17.0.0, SVG Export Plug-In . SVG Version: 6.00 Build 0)  -->
<!DOCTYPE svg PUBLIC "-//W3C//DTD SVG 1.1//EN" "http://www.w3.org/Graphics/SVG/1.1/DTD/svg11.dtd" [
	<!ENTITY ns_flows "http://ns.adobe.com/Flows/1.0/">
	<!ENTITY ns_extend "http://ns.adobe.com/Extensibility/1.0/">
	<!ENTITY ns_ai "http://ns.adobe.com/AdobeIllustrator/10.0/">
	<!ENTITY ns_graphs "http://ns.adobe.com/Graphs/1.0/">
]>
<svg version="1.1" id="Layer_2" xmlns:x="&ns_extend;" xmlns:i="&ns_ai;" xmlns:graph="&ns_graphs;"
	 xmlns="http://www.w3.org/2000/svg" xmlns:xlink="http://www.w3.org/1999/xlink" xmlns:a="http://ns.adobe.com/AdobeSVGViewerExtensions/3.0/"
	 x="0px" y="0px" width="256px" height="256px" viewBox="0 0 256 256" style="enable-background:new 0 0 256 256;"
	 xml:space="preserve">
<style type="text/css">
	.st0{fill:#FFFFFF;}
	.st1{fill:#54B948;}
	.st2{fill:#1D8C8E;}
	.st3{fill:#14DEAC;}
	.st4{fill:#1466AC;}
	.st5{fill:#757575;}
	.st6{fill:#B69442;}
	.st7{fill:#1A234D;}
	.st8{fill:#AA0629;}
	.st9{fill:#FF4A49;}
	.st10{fill:#3C6643;}
	.st11{fill:none;stroke:#FF4A49;stroke-miterlimit:10;}
	.st12{fill:#E70084;}
	.st13{fill:#508A72;}
	.st14{fill:#01A663;}
	.st15{fill:#015297;}
	.st16{fill:#B0B0B0;}
	.st17{fill:#E1062F;}
	.st18{fill:#D80000;stroke:#FFFFFF;stroke-width:2;stroke-miterlimit:10;}
	.st19{fill:#D80000;}
	.st20{fill:#8ABE23;}
	.st21{fill:#1D1D1B;}
	.st22{fill:#FEFEFE;}
	.st23{fill:#FF0000;}
	.st24{fill:#FF1D1B;}
	.st25{fill:#6DB2DE;}
	.st26{fill:#FF1D25;}
	.st27{fill:#FFDA00;}
	.st28{fill:#024D9E;}
	.st29{fill:#6B97C6;}
	.st30{fill:#000078;}
	.st31{fill:none;stroke:#FFFFFF;stroke-width:6;stroke-linecap:round;stroke-miterlimit:10;}
	.st32{fill:#FFEE34;}
	.st33{fill:none;stroke:#000000;stroke-width:4;stroke-miterlimit:10;}
	.st34{fill:#D11E24;}
	.st35{fill:#D71F26;}
	.st36{fill:#020000;}
	.st37{fill:none;stroke:#000000;stroke-width:2;stroke-miterlimit:10;}
	.st38{clip-path:url(#SVGID_2_);}
	.st39{fill:#00317D;}
	.st40{fill:#00737D;}
	.st41{fill:#ED1C24;}
	.st42{fill:#2678C7;}
	.st43{fill:#1853A6;}
	.st44{fill:#CB0000;}
	.st45{fill:#E61C21;}
	.st46{clip-path:url(#SVGID_4_);}
	.st47{fill:#6BDEF1;}
	.st48{clip-path:url(#SVGID_6_);}
	.st49{fill:#0165B2;}
	.st50{fill:#DE1134;}
	.st51{fill:#00A668;}
	.st52{fill:#FFE60B;}
	.st53{fill:#843D00;stroke:#000000;stroke-miterlimit:10;}
	.st54{fill:#EC1F27;}
	.st55{fill:#162984;}
	.st56{fill:#1853A6;stroke:#1853A6;stroke-miterlimit:10;}
	.st57{fill:none;}
	.st58{fill:none;stroke:#1853A6;stroke-width:0.9;stroke-miterlimit:10;}
	.st59{fill:#1853A6;stroke:#1853A6;stroke-width:0.9;stroke-miterlimit:10;}
	.st60{fill:#B5985A;}
	.st61{fill:#FFE60B;stroke:#000000;stroke-width:6;stroke-miterlimit:10;}
	.st62{fill:#008DCD;}
	.st63{fill:#009939;}
	.st64{fill:#2E3092;}
	.st65{fill:#EE3224;}
	.st66{fill:#005BAB;}
	.st67{fill:#D30027;}
	.st68{fill:#FFFFFF;stroke:#D30027;stroke-width:10;stroke-miterlimit:10;}
	.st69{fill:#E81C2F;}
	.st70{fill:#DC032B;}
	.st71{fill:#F25448;}
	.st72{fill:#FFFFFF;stroke:#F25448;stroke-width:6;stroke-miterlimit:10;}
	.st73{fill:#05A08D;}
	.st74{fill:#1875CE;}
	.st75{fill:#D72427;}
	.st76{fill:#004993;}
	.st77{fill:#007BB0;}
	.st78{fill:#FFEB00;}
	.st79{fill:#664A9E;}
	.st80{fill:#F4C701;}
	.st81{fill:#EBBE12;}
	.st82{fill:#44B3DB;}
	.st83{fill:#F6FF82;}
	.st84{fill:#FFC918;}
	.st85{fill:#0361A4;}
	.st86{fill:#009FE3;}
	.st87{fill:#E30217;}
	.st88{fill:#FDEA00;}
	.st89{fill:#E91B00;}
	.st90{fill:#2B2763;}
	.st91{fill:#EE1A22;}
	.st92{fill:#F1AA25;}
	.st93{fill:#93000C;}
	.st94{fill:none;stroke:#1D1D1B;stroke-width:4;}
	.st95{fill:#3E4E70;}
	.st96{fill:#096CB6;}
	.st97{fill:#0559A8;}
	.st98{fill:#F9ED1A;}
	.st99{fill:#949494;}
	.st100{fill:#FFD033;}
	.st101{fill:#243D89;}
	.st102{fill:#F8C936;}
	.st103{fill:#D44128;}
	.st104{fill:#ED1B23;}
	.st105{fill:#0C529C;}
	.st106{fill:#E31E24;}
	.st107{fill:#0263B0;}
	.st108{fill:#007AC2;}
	.st109{fill:#EF3D1F;}
	.st110{fill:#EE1C24;}
	.st111{fill:#FDEA00;stroke:#000000;stroke-width:0.6509;}
	.st112{fill:#FDEA00;stroke:#000000;stroke-width:0.6979;}
	.st113{fill:#46A0BE;}
	.st114{fill:#005FA5;}
	.st115{fill:#00904C;}
	.st116{fill:#E21F26;}
	.st117{fill:#FD0001;}
	.st118{fill:#0066B3;}
	.st119{fill:#E20019;}
	.st120{fill:#0171BC;}
	.st121{fill:#01305D;}
	.st122{fill:#1B7EE9;}
	.st123{fill:#BA0D0B;}
	.st124{fill:none;stroke:#000000;stroke-width:3;stroke-miterlimit:10;}
	.st125{fill:#FFFFFF;stroke:#000000;stroke-width:0.8836;stroke-miterlimit:10;}
	.st126{fill:#FFFFFF;stroke:#000000;stroke-width:0.9759;stroke-miterlimit:10;}
	.st127{fill:#0053A1;}
	.st128{fill:#FFE100;}
	.st129{fill:#FFE500;}
	.st130{fill:none;stroke:#FFE500;stroke-width:2;stroke-miterlimit:10;}
	.st131{fill:#01AFF3;}
	.st132{fill:#ED1B28;}
	.st133{fill:#E2000A;}
</style>
<g>
	<g>
		<path class="st0" d="M131,249.4C64,249.4,9.6,195,9.6,128S64,6.6,131,6.6S252.4,61,252.4,128S198,249.4,131,249.4z"/>
		<path class="st108" d="M128,11.1c31.2,0,60.6,12.2,82.6,34.2s34.2,51.4,34.2,82.6s-12.2,60.6-34.2,82.6s-51.4,34.2-82.6,34.2
			s-60.6-12.2-82.6-34.2S11.1,159.2,11.1,128s12.2-60.6,34.2-82.6S96.8,11.1,128,11.1 M128,2C58.4,2,2,58.4,2,128s56.4,126,126,126
			s126-56.4,126-126S197.6,2,128,2L128,2z"/>
	</g>
	<path class="st109" d="M170.8,168.7l-1.9,14.5c0,0-23.3,0-42,0V49h2.7l6.7-21H127v-6h-6v6h-8l5.3,21h2.7v134.1
		c-6.7,0-12.3,0-15.1,0c-10.9,0-8.7-11.3-8.7-11.3l-69.6-13.6l2.4,7.2c0,0,27.4,9.1,35.1,12.1c-16.1,7,16.3,45.3,16.3,45.3
		l107.7,0.2l7.2-40.8l24.4-1.8l2.3-15.7L170.8,168.7z"/>
	<path class="st108" d="M217.5,161.5c-52.2-29.8-114.6-29.9-169.7-8.5c-21.4-14.3-36-73.4,1.1-94.1c56.2,0,112.4,0,168.6,0
		C180.4,84.4,182.5,119.1,217.5,161.5z"/>
	<g>
		<path class="st0" d="M120.9,110.9c3.4,1.2,6.9,2.6,10.5,3.9c7.4,2.7,15.2,5.6,22.3,7.2c2.6,0.6,4.9,0.8,6.5,0
			c2.9-1.4,1.5-5.9-2.9-9.7c-2.5-2.1-5.1-3.6-7.5-5.3c-1-0.7-2.1-1.5-2.8-2.4c-0.8-1-0.9-2-0.3-2.8c0.6-0.8,1.4-0.1,2.2,0.1
			c4.7,1.8,9.4,2.6,14.1,2.3c1.2-0.1,2.3-0.3,3.3-0.9c0.7-0.5,1.4-1,1.3-2c-0.5-0.3-0.8,0-1.1,0.1c-3.1,1-6,0.3-8.8-1.8
			c-2.5-2-5.2-3.4-8.4-3.6c-1.6-0.1-3,0.2-3.6,1.8c-0.1,0.4-0.4,0.6-0.7,0.8c-2.6,1.5-3.1,3.6-1.2,6.2c1.3,1.9,3.3,3.3,5.3,4.7
			c1.4,0.9,2.9,1.7,4.3,2.9c3.1,2.7,3.8,5.2,1.3,6c-3.5,1.1-8.2-0.6-13.2-3.2c-3.6-1.9-6.7-4.2-9.6-6.4c-6-4.5-10.7-9.2-15.7-12.7
			c-1.1-0.8-2.3-1.4-3.5-1.9c-2.2-1-4.4-1.2-7.1,0.2c-3.1,1.6-6.3,2.6-9.7,3.3c0.6-0.3,1.1-0.6,1.7-0.9c4.2-2.1,8.4-4.1,12.6-6.6
			c0.8-0.5,1.6-0.5,2.4-0.5c6.5-0.1,12.9,0,19.4,0.1c3.3,0.1,5.6-1.4,6.7-3.7c0.4-0.9,0.2-1.1-0.8-1.2c-3.7-0.2-7.4-0.5-11.1-0.7
			c6.1-0.2,11.9,0.1,17.8,0.4c2.5,0.1,5.3-1.2,6.8-2.9c0.8-0.9,1.1-1.5-0.4-1.5c-2.3-0.1-4.5-0.3-6.8-0.5c-2.2-0.2-4.3-0.4-6.3-0.7
			c1.6,0,3.1,0.1,4.7,0.1c4.8,0.1,9.7,0.3,14.5,0.5c2.4,0.1,4.9-0.6,7.5-2.4c1.8-1.2,1.8-1.6,0.2-1.7c-7-0.6-13.9-1-20.7-1.6
			c9.7,0.2,19.4,0.5,29,0.9c2,0.1,4.1-0.4,6.5-1.4c0.5-0.2,1-0.4,1.5-0.7c2-1.1,2.1-1.4,0.5-1.4c-11.6-0.4-23.2-0.6-34.8-0.8
			c-6.6-0.1-13.1-0.1-19.7-0.2c-1.1,0-2,0.2-3.4,0.8c-6.5,3.1-12.6,6-18.6,9c0.6-0.4,1.3-0.8,1.9-1.2c5-3,10.3-5.9,16-8.6
			c1.8-0.9,3-1.1,4.4-1.1c20.8,0.1,41.6,0.4,62.3,1c2.3,0.1,4.9-0.3,8.2-1.6c0.7-0.3,1.4-0.6,2.1-0.9c3.5-1.7,4-2.4,1.5-2.4
			c-23.5,0-47,0-70.6,0c-6.7,0.1-13.2,1.2-21.3,5.4c-9.1,4.9-16.6,10.9-23.6,17c-0.6,0.5-1.2,1.1-1.8,1.6c-3.7,3.3-4.8,3.4-6.1-0.1
			c1.1-0.2,1.8,0.2,2.7,0.4c0.4,0.1,0.8,0.5,1.3,0c0.5-0.4,0.3-0.9,0.3-1.3c-0.1-1.5-0.5-2.8-1.1-3.9c-0.1-0.2-0.4-0.4-0.1-0.9
			c1.5,0.1,2.6,0.6,3.9,1c0.9,0.3,1.2,0,1.5-0.9c2.7-10,3.1-14.8-10.8-14.1c-1.3,0.1-1.7,0,0.1-1c0.6-0.3,1-0.6,1.5-0.9
			c0.7-0.4,1-0.7,0-0.5c-5.2,0.8-9.7,1.2-14.7,2.1c-3,0.5-6.1,1.3-9.4,3.1c-0.8,0.4-1.5,0.9-2.2,1.5c-1.1,0.9-1.2,1.3,0,1
			c2-0.4,4-0.8,6-1.2c0.9-0.2,1.8-0.4,1.8,0.5c-3.4,0.5-6.5,1.1-9.6,1.6c-3.8,0.6-8,2.4-12.1,4.9c-1.7,1.1-2,1.9-1.2,2.6
			c0.3,0.3,0.5,0.6,0,1.4c-1.9,3-0.6,4.4-0.3,6.9c1.1-2,2-3.5,3.3-4.7c2.3-2.2,4.4-2.9,5.5-1.9c1.5,1.3,1.1,3.2-0.8,5.8
			c-2.4,3.3-3.5,4.1-6.4,3.9c-0.7-0.1-1.1,0.1-1.5,1.2c-1.4,3.9,1.2,7.8,4.3,7c0.7-0.2,0.9-0.7,1.1-1.3c0.8-1.8,1.8-3.5,3.2-5
			c0.4-0.4,0.8-1.1,1.2-1c0.5,0.1,0.4,0.8,0.3,1.3c-0.5,1.7,0.2,1.5,1.3,0.8c2.4-1.4,4.7-3.3,7-5.3c-2.1,3.3-4.7,5.7-7.6,7.7
			c-2.9,2.1-5.6,4.4-7.7,7.5c-1.5,2.2-2.8,4.5-3.2,7.6c1.5-1.8,2.3-3.9,4-5c0.3,0.8-0.2,1.5-0.4,2.1c-1,3.3-1.7,6.6-1.3,9.7
			c0.3,2.1,1.1,3.8,3,4.7c0.8,0.4,1.4,0.3,1.2-0.8c0-0.3,0-0.6,0-0.9c0.1-1,0.2-2.2,1.2-2.6c0.9-0.3,1.2,0.9,1.7,1.4
			c1.2,1.1,2.6,1.9,4.2,2.3c0.9,0.2,1.2,0.6,1.4,1.4c1.1,5.1,3.3,9.4,6.7,12.4c0.5,0.5,0.5,0.8-0.6,1c-1.6,0.4-2.9,1-4,1.7
			c-2.2,1.5-1.8,3.5,1.4,4.2c0.8,0.2,1.3,0,2-0.2c4.3-1.8,8.7-3.4,13.1-4.8c1-0.3,0.6-0.6,0.2-0.9c-1.6-1.3-3-3-4-4.9
			c-0.3-0.5-0.3-0.9,0.1-1.3c2.3-2.6,4.1-5.3,5-8.8c0-0.1,0.2-0.2,0.5-0.4c0.4,1.4,0.6,2.5,0.4,3.5c-0.2,0.9,0.4,1.4,1.6,2
			c1.9,0.8,4,1.6,6.1,2.3c2.5,0.8,2.6,0.9,0.7,1.5c-3.1,1-3.7,2.3-1.6,3.4c0.9,0.5,1.6,0.6,3,0.3c4.4-1.1,9-2,13.6-2.6
			c1.2-0.2,1-0.4-0.2-0.8c-8.9-3-12.3-7.9-15.4-13.8c-0.4-0.8,0-1.1,0.9-1.1c3.9-0.4,7.7-0.9,11-2.1c0.8-0.3,1.2,0,1.7,0.5
			c4.2,4.1,9.6,7.7,16.1,11c1,0.5,1.4,0.8,0,0.7c-1.7-0.1-3.3-0.1-4.5,0.2c-2.8,0.6-2.8,2.1,0.6,3.7c0.8,0.4,1.4,0.5,2.3,0.4
			c3.6-0.3,7.3-0.4,10.9-0.4c0.6,0,0.8-0.1,0.9-0.4c0.2-0.8,0.4-1.7,0.8-2.5c0.2-0.4-0.3-0.8-1.4-1.3c-1.9-1-3.6-2-5.3-3
			c-1.6-0.9-1.6-1.3-0.8-1.7c1.2-0.6,2.2-1.3,3.4-2c0.6-0.3,0.4-0.6-0.8-1.1c-3.3-1.3-6.5-2.5-9.7-4.3c0.9,0,1.6,0.4,2.2,0.6
			c9.9,3.7,20.5,6.3,29.9,7.9c0.8,0.1,1.5,0.3,2.4,1c2.2,1.6,4.5,3.2,6.9,4.8c1.2,0.8,1.3,1.1,0.2,0.8c-1.4-0.3-2.6-0.4-3.5-0.3
			c-1.4,0.3-1,1.3,0.9,2.8c0.8,0.6,1.4,1,2.4,1.1c5.7,1,11.3,2.3,16.9,3.9c1,0.3,0.6-0.1-0.6-0.9c-8.1-5.8-15.2-11-21.1-16.2
			c-0.8-0.7-1.5-1.1-2.4-1.3c-2.7-0.7-5.4-1.4-8.2-2c-0.7-0.2-1.4-0.2-2.1-0.9C126.9,115.9,124,113.3,120.9,110.9z"/>
	</g>
	<g>
		<path class="st0" d="M85.2,214.3v-24.1h8.3v3.2h-4.6v6.4h4.3v3.2h-4.3v11.3H85.2z"/>
		<path class="st0" d="M105,212.9c-0.8,1.1-2.1,1.7-3.9,1.7s-3.1-0.6-4-1.8c-0.9-1.2-1.3-2.9-1.3-5.2v-10.5c0-3.6,0.9-5.8,2.8-6.7
			c0.7-0.3,1.5-0.5,2.5-0.5c3.4,0,5.1,2.1,5.1,6.4v3.3h-3.6v-3.1c0-1.2-0.1-2.1-0.3-2.7s-0.6-0.8-1.2-0.8s-1,0.3-1.3,0.9
			s-0.4,1.4-0.4,2.6v11.3c0,1.3,0.1,2.2,0.3,2.8c0.2,0.6,0.6,0.8,1.2,0.8s1-0.3,1.2-0.9c0.2-0.6,0.3-1.5,0.3-2.8v-3.5h3.6v3.4
			C106.3,210.1,105.9,211.8,105,212.9z"/>
		<path class="st0" d="M114.3,214.3v-24.1h3.7v9.8h3.3v-9.8h3.7v24.1h-3.7v-11.2H118v11.2H114.3z"/>
		<path class="st0" d="M127.5,214.3l3.4-24.1h4.9l3.7,24.1H136l-0.6-4.3h-3.9l-0.5,4.3H127.5z M135.1,207.1l-1.6-12.1h-0.1
			l-1.5,12.1H135.1z"/>
		<path class="st0" d="M142,214.3v-24.1h2.9l5.1,14.5l-0.3-6.6v-7.9h3.3v24.1h-2.6l-5.3-15l0.2,6.3v8.7H142z"/>
		<path class="st0" d="M156.2,207.5v-2.2h3.5v2.4c0,1.3,0.1,2.3,0.3,2.8c0.2,0.5,0.7,0.8,1.3,0.8c0.6,0,1-0.2,1.3-0.7
			c0.2-0.4,0.3-1.2,0.3-2.2s-0.2-1.9-0.5-2.7c-0.4-0.8-0.9-1.5-1.7-2.4l-1.8-1.8c-0.8-0.9-1.5-1.8-1.9-2.7c-0.5-0.9-0.7-2-0.7-3.2
			c0-2,0.4-3.5,1.2-4.4s2.1-1.5,4-1.5s3.1,0.6,3.8,1.7c0.7,1.1,1,2.8,1,4.9v1.5h-3.4v-1.7c0-1.2-0.1-2-0.3-2.5
			c-0.2-0.5-0.6-0.8-1.2-0.8c-0.6,0-1,0.2-1.2,0.6c-0.3,0.4-0.4,1-0.4,1.7s0.1,1.4,0.4,1.8c0.3,0.5,0.7,1,1.4,1.8l2,2.2
			c1,1.1,1.7,2.2,2.3,3.3c0.5,1.1,0.8,2.3,0.8,3.6c0,2.3-0.4,3.9-1.1,5s-2.1,1.6-4,1.6s-3.2-0.6-4-1.8
			C156.5,211.6,156.2,209.8,156.2,207.5z"/>
		<path class="st0" d="M168,214.3l3.4-24.1h4.9l3.7,24.1h-3.4l-0.6-4.3H172l-0.5,4.3H168z M175.5,207.1l-1.6-12.1h-0.1l-1.5,12.1
			H175.5z"/>
	</g>
</g>
</svg>
