<?xml version="1.0" encoding="utf-8"?>
<!-- Generator: Adobe Illustrator 17.0.0, SVG Export Plug-In . SVG Version: 6.00 Build 0)  -->
<!DOCTYPE svg PUBLIC "-//W3C//DTD SVG 1.1//EN" "http://www.w3.org/Graphics/SVG/1.1/DTD/svg11.dtd" [
	<!ENTITY ns_flows "http://ns.adobe.com/Flows/1.0/">
	<!ENTITY ns_extend "http://ns.adobe.com/Extensibility/1.0/">
	<!ENTITY ns_ai "http://ns.adobe.com/AdobeIllustrator/10.0/">
	<!ENTITY ns_graphs "http://ns.adobe.com/Graphs/1.0/">
]>
<svg version="1.1" id="Layer_2" xmlns:x="&ns_extend;" xmlns:i="&ns_ai;" xmlns:graph="&ns_graphs;"
	 xmlns="http://www.w3.org/2000/svg" xmlns:xlink="http://www.w3.org/1999/xlink" xmlns:a="http://ns.adobe.com/AdobeSVGViewerExtensions/3.0/"
	 x="0px" y="0px" width="256px" height="256px" viewBox="0 0 256 256" style="enable-background:new 0 0 256 256;"
	 xml:space="preserve">
<style type="text/css">
	.st0{fill:#FFFFFF;}
	.st1{fill:#54B948;}
	.st2{fill:#1D8C8E;}
	.st3{fill:#14DEAC;}
	.st4{fill:#1466AC;}
	.st5{fill:#757575;}
	.st6{fill:#B69442;}
	.st7{fill:#1A234D;}
	.st8{fill:#AA0629;}
	.st9{fill:#FF4A49;}
	.st10{fill:#3C6643;}
	.st11{fill:none;stroke:#FF4A49;stroke-miterlimit:10;}
	.st12{fill:#E70084;}
	.st13{fill:#508A72;}
	.st14{fill:#01A663;}
	.st15{fill:#015297;}
	.st16{fill:#B0B0B0;}
	.st17{fill:#E1062F;}
	.st18{fill:#D80000;stroke:#FFFFFF;stroke-width:2;stroke-miterlimit:10;}
	.st19{fill:#D80000;}
	.st20{fill:#8ABE23;}
	.st21{fill:#1D1D1B;}
	.st22{fill:#FEFEFE;}
	.st23{fill:#FF0000;}
	.st24{fill:#FF1D1B;}
	.st25{fill:#6DB2DE;}
	.st26{fill:#FF1D25;}
	.st27{fill:#FFDA00;}
	.st28{fill:#024D9E;}
	.st29{fill:#6B97C6;}
	.st30{fill:#000078;}
	.st31{fill:none;stroke:#FFFFFF;stroke-width:6;stroke-linecap:round;stroke-miterlimit:10;}
	.st32{fill:#FFEE34;}
	.st33{fill:none;stroke:#000000;stroke-width:4;stroke-miterlimit:10;}
	.st34{fill:#D11E24;}
	.st35{fill:#D71F26;}
	.st36{fill:#020000;}
	.st37{fill:none;stroke:#000000;stroke-width:2;stroke-miterlimit:10;}
	.st38{clip-path:url(#SVGID_2_);}
	.st39{fill:#00317D;}
	.st40{fill:#00737D;}
	.st41{fill:#ED1C24;}
	.st42{fill:#2678C7;}
	.st43{fill:#1853A6;}
	.st44{fill:#CB0000;}
	.st45{fill:#E61C21;}
	.st46{clip-path:url(#SVGID_4_);}
	.st47{fill:#6BDEF1;}
	.st48{clip-path:url(#SVGID_6_);}
	.st49{fill:#0165B2;}
	.st50{fill:#DE1134;}
	.st51{fill:#00A668;}
	.st52{fill:#FFE60B;}
	.st53{fill:#843D00;stroke:#000000;stroke-miterlimit:10;}
	.st54{fill:#EC1F27;}
	.st55{fill:#162984;}
	.st56{fill:#1853A6;stroke:#1853A6;stroke-miterlimit:10;}
	.st57{fill:none;}
	.st58{fill:none;stroke:#1853A6;stroke-width:0.9;stroke-miterlimit:10;}
	.st59{fill:#1853A6;stroke:#1853A6;stroke-width:0.9;stroke-miterlimit:10;}
	.st60{fill:#B5985A;}
	.st61{fill:#FFE60B;stroke:#000000;stroke-width:6;stroke-miterlimit:10;}
	.st62{fill:#008DCD;}
	.st63{fill:#009939;}
	.st64{fill:#2E3092;}
	.st65{fill:#EE3224;}
	.st66{fill:#005BAB;}
	.st67{fill:#D30027;}
	.st68{fill:#FFFFFF;stroke:#D30027;stroke-width:10;stroke-miterlimit:10;}
	.st69{fill:#E81C2F;}
	.st70{fill:#DC032B;}
	.st71{fill:#F25448;}
	.st72{fill:#FFFFFF;stroke:#F25448;stroke-width:6;stroke-miterlimit:10;}
	.st73{fill:#05A08D;}
	.st74{fill:#1875CE;}
	.st75{fill:#D72427;}
	.st76{fill:#004993;}
	.st77{fill:#007BB0;}
	.st78{fill:#FFEB00;}
	.st79{fill:#664A9E;}
	.st80{fill:#F4C701;}
	.st81{fill:#EBBE12;}
	.st82{fill:#44B3DB;}
	.st83{fill:#F6FF82;}
	.st84{fill:#FFC918;}
	.st85{fill:#0361A4;}
	.st86{fill:#009FE3;}
	.st87{fill:#E30217;}
	.st88{fill:#FDEA00;}
	.st89{fill:#E91B00;}
	.st90{fill:#2B2763;}
	.st91{fill:#EE1A22;}
	.st92{fill:#F1AA25;}
	.st93{fill:#93000C;}
	.st94{fill:none;stroke:#1D1D1B;stroke-width:4;}
	.st95{fill:#3E4E70;}
	.st96{fill:#096CB6;}
	.st97{fill:#0559A8;}
	.st98{fill:#F9ED1A;}
	.st99{fill:#949494;}
	.st100{fill:#FFD033;}
	.st101{fill:#243D89;}
	.st102{fill:#F8C936;}
	.st103{fill:#D44128;}
	.st104{fill:#ED1B23;}
	.st105{fill:#0C529C;}
	.st106{fill:#E31E24;}
	.st107{fill:#0263B0;}
	.st108{fill:#007AC2;}
	.st109{fill:#EF3D1F;}
	.st110{fill:#EE1C24;}
	.st111{fill:#FDEA00;stroke:#000000;stroke-width:0.6509;}
	.st112{fill:#FDEA00;stroke:#000000;stroke-width:0.6979;}
	.st113{fill:#46A0BE;}
	.st114{fill:#005FA5;}
	.st115{fill:#00904C;}
	.st116{fill:#E21F26;}
	.st117{fill:#FD0001;}
	.st118{fill:#0066B3;}
	.st119{fill:#E20019;}
	.st120{fill:#0171BC;}
	.st121{fill:#01305D;}
	.st122{fill:#1B7EE9;}
	.st123{fill:#BA0D0B;}
	.st124{fill:none;stroke:#000000;stroke-width:3;stroke-miterlimit:10;}
	.st125{fill:#FFFFFF;stroke:#000000;stroke-width:0.8836;stroke-miterlimit:10;}
	.st126{fill:#FFFFFF;stroke:#000000;stroke-width:0.9759;stroke-miterlimit:10;}
	.st127{fill:#0053A1;}
	.st128{fill:#FFE100;}
	.st129{fill:#FFE500;}
	.st130{fill:none;stroke:#FFE500;stroke-width:2;stroke-miterlimit:10;}
	.st131{fill:#01AFF3;}
	.st132{fill:#ED1B28;}
	.st133{fill:#E2000A;}
</style>
<g>
	<g>
		<path class="st0" d="M128,249.4C61,249.4,6.6,195,6.6,128S61,6.6,128,6.6S249.4,61,249.4,128S195,249.4,128,249.4z"/>
		<path class="st110" d="M128,11.1c31.2,0,60.6,12.2,82.6,34.2s34.2,51.4,34.2,82.6s-12.2,60.6-34.2,82.6s-51.4,34.2-82.6,34.2
			s-60.6-12.2-82.6-34.2S11.1,159.2,11.1,128s12.2-60.6,34.2-82.6S96.8,11.1,128,11.1 M128,2C58.4,2,2,58.4,2,128s56.4,126,126,126
			s126-56.4,126-126S197.6,2,128,2L128,2z"/>
	</g>
	<g>
		<circle class="st0" cx="128" cy="128" r="107.1"/>
		<path class="st110" d="M128,237.6c-60.5,0-109.6-49.2-109.6-109.6S67.5,18.4,128,18.4S237.6,67.5,237.6,128S188.5,237.6,128,237.6
			z M128,23.4C70.3,23.4,23.4,70.3,23.4,128S70.3,232.6,128,232.6S232.6,185.7,232.6,128S185.7,23.4,128,23.4z"/>
	</g>
	<circle class="st110" cx="162.3" cy="151.3" r="56.3"/>
	<path d="M86.4,144c0,7.3-4.6,10.6-10.6,12.8c-2.5,0.9-5.4,0.8-6.6-0.6c-3.2-3.6-3.8-0.4-4.6,1.4c-2.5,5.4-0.9,11.9,3.6,15.8
		c0.6,0.5,1.3,1.1,1.8,1.7c0.4,0.5,0.6,1.1,1.1,2.2c-2.2,0.5-4.2,1.2-6.2,1.2c-3.1,0-7,0.3-5-5.1c0.3-0.9,0.1-2.5-0.5-3.3
		c-3.4-5.1-2.6-11.7-5.7-16.8c-1.1-1.8,0.5-2.5,1.4-3.1c1.3-0.9,2.9-1.4,4.2-2.5c4.4-3.3,5.7-7.1,2.6-12c-0.5-0.8-1.1-1.8-1.2-2.7
		c-0.6-5.3-2.7-8.5-8.9-8.7c-3.8-0.1-4.6-3.8-4.9-7.5c-0.4-4.8,2-9.6-0.6-14.2c4.1-1.9,6.5,1.9,9.7,2.5c0.8,0.2,0.6,1,0.4,1.7
		c-1.6,3.9,0.2,7.7,0.1,11.5c0,1.8,0.8,2.9,2.3,3.5c1.7,0.7,2.2-0.9,3-1.9c3.4-3.6,3.4-9.1,7.2-12.6c0.9-0.8,1.1-2.3,2.3-0.3
		c0.5,0.8,1.3,0.5,1.5-0.2c0.5-2.6,1.4-3.2,4.5-3.1c3,0.1,6.4-9.1,5.2-12.2c-0.5-1.4-2.5-3.2,1.2-3c0.2,0,0.6-0.6,0.6-0.6
		c-2.9-3.3,0.6-6.2,0.5-9.4c-0.2-6.3-1.2-7.3-7.6-7.9c-1.3-0.1-2.7-0.1-4-0.3c-1-0.1-2.1-0.5-2.3-1.6c-0.2-1.3,1-1.6,1.9-1.9
		c2.2-0.9,4.3-1.8,6.5-2.6c2.2-0.7,4.5-1.2,6.8-1.8c-1.1-1.1-2.3-2.2-1-4.1c2.1-3.1-0.2-4.3-2.5-5.1c-4.4-1.5-8.2-0.2-11.2,3.2
		c-1,1.1-1.7,2.3-2.8,3.8c-0.9-3.1,1.5-4.9,2.3-7.7c-5.5,0.8-6.3,5.8-9.1,8.9c0.6-11,9.3-17.1,20.2-14.3c4.9,1.2,8.9,5,14.6,4.1
		c2.1-0.3,3.3,2.4,4.8,3.8c4.4,4.1,10.2,5.4,15.2,8.2c3.7,2,5.2,8.5,2.8,11.8c-1,1.3-2.5,2.3-3.9,1.8c-6.2-2.4-12.9,1.2-19.7-2.4
		c0.7,2.4,1.9,2.5,2.8,2.6c3.3,0.6,5.3,2,5.4,5.8c0.1,2.6,2.6,4.2,4.5,5.8c3.6,3,7.4,5.7,9.5,10.6c0.5-2.5,0.5-5.1,3.8-3.4
		c0.4,0.2,1.5,0,1.8-0.4c3-4.9,7.4-9.1,7.5-15.3c0-2.8,0.7-4.5,3.9-4.6c3-0.1,6-0.1,8.6-2.6c2.2-2.1,3.6-0.3,4,2.1
		c0.8,4.6-3,8.2-7.7,6.9c-2-0.5-2.7,0.8-3.5,2c-2.7,3.9-3.7,8.5-5.4,12.9c-1.1,2.8-2.2,5.1-5.7,5.5c-1.2,0.1-2.4,1-3.5,1.8
		c-6.9,4.9-6.9,4.9-13.9,0.4c3.2,6.1,8.9,7.9,14.9,4.6c2.9-1.6,5.4-3.8,8.9-4.2c3.4-0.4,6.1,1.7,4.7,4.8c-2.1,4.6-0.1,8.1,2,11.5
		c1.6,2.7,2.3,5.2,0.5,7.9c-2,3.1-0.6,7-2.5,10.1c-4-0.6-6-3.2-6.6-6.9c-0.3-1.5-0.5-3.5,1.2-3.9c4.1-1.1,2.9-3.7,2.3-6.3
		c-0.2-1-0.4-2-0.7-2.9c-0.8-2.3-1-5.6-3.4-6.3c-2.7-0.9-3.4,2.6-4.9,4.2c-2.3,2.3-4.8,4.5-8.2,4.1c-7.9-0.9-14,4.5-21.2,5.9
		c-0.2,0-0.4,0.5-1.1,1.4c5-2.1,7.3,0.1,8.8,4c1.4,3.5,3.5,6.8,4.8,10.3c1.3,3.4-0.6,5.5-3.8,6.4c-3.2,0.9-6.4,1.6-9.6,2.5
		c-3.5,0.9-4.9,3.3-4.1,6.8c1.2,5.5,4.1,9.8,9.2,12.4c2.2,1.1,3.9,2.4,4.5,5.2c-2.4,0.5-4.5,1.2-6.8,1.5c-2.6,0.3-5,0.1-5.1-3.7
		c0-1.9-1.8-3.1-3.2-4.3c-1.9-1.6-3.5-3.5-5-5.5c-2.9-3.8-5.2-7,0.8-10.5C87.6,151.9,87.7,147.8,86.4,144z"/>
	<g>
		<path d="M118.9,141.9l-0.1,0l-6.3,4.2l-1.5-6.8l9.2-6.1l7-1.4l0.1,34.4l-8.4,1.6L118.9,141.9z"/>
		<path d="M138.9,164.1c-2.8,0.5-5.1-1.1-5.6-3.9c-0.6-3.2,1.2-6.4,4.6-7c2.8-0.5,5.2,1.1,5.7,4
			C144.3,160.6,142.3,163.4,138.9,164.1L138.9,164.1z"/>
		<path d="M153.3,125.6l21.3-4.1l0,7.7l-12.6,2.4l0,6.8l11.9-2.3l0,7.6L162,146l0.1,13.6l-8.7,1.7L153.3,125.6z"/>
		<path d="M206.2,150.1c-1.6,1.2-4.6,2.4-8.8,3.2c-9.3,1.8-16.9-2.5-18.6-11.7c-1.6-8.3,1.1-14.9,5.9-19.3c3.1-2.9,7-4.7,11.8-5.6
			c3.7-0.7,6.7-0.4,7.8-0.1l-0.9,7.5c-1-0.2-3.3-0.4-6.2,0.2c-2.7,0.5-5,1.7-6.6,3.5c-2.3,2.6-3.4,6.4-2.5,11
			c1,5.2,4.8,7.6,10.2,6.6c2.3-0.5,4.5-1.2,6-2.2L206.2,150.1z"/>
		<path class="st0" d="M135,175.3l4.6-0.9l0.1,8.3l0.1,0c0.4-0.9,0.8-1.7,1.2-2.5l3.4-6.7l5.9-1.1l-5.8,9.5l6.2,9.7l-5.1,1l-4.2-7.1
			l-1.5,2.1l0,6.1l-4.6,0.9L135,175.3z"/>
		<path class="st0" d="M159.5,190.1c-4.8,0.9-8.4-1.8-9.3-6.3c-0.7-3.4,0-6.8,1.7-9.3c1.5-2.1,3.7-3.5,6.5-4.1
			c4.9-0.9,8.3,1.7,9.2,6.3c0.7,3.4,0.1,6.9-1.6,9.3C164.6,188.1,162.4,189.6,159.5,190.1L159.5,190.1z M155.8,170.3
			c-1,0.2-2.1-0.4-2.4-1.5c-0.3-1.4,0.6-2.5,1.9-2.7c1.2-0.2,2.1,0.5,2.3,1.6C157.9,169,157,170,155.8,170.3L155.8,170.3z
			 M159.4,186.1c1-0.2,1.8-0.8,2.4-1.6c1.1-1.6,1.2-4.7,0.9-6.6c-0.4-2.2-1.6-3.9-4-3.4c-1.1,0.2-1.9,0.8-2.5,1.7
			c-1.1,1.6-1.3,4.5-0.9,6.6C155.7,185.2,157.1,186.5,159.4,186.1L159.4,186.1z M161.8,169.1c-1,0.2-2.1-0.4-2.4-1.5
			c-0.3-1.4,0.6-2.5,1.9-2.7c1.2-0.2,2.1,0.5,2.3,1.6C163.9,167.8,163,168.9,161.8,169.1L161.8,169.1z"/>
		<path class="st0" d="M170.5,168.4l4.7-0.9l0.1,15l7-1.4l0,4.3l-11.7,2.3L170.5,168.4z"/>
		<path class="st0" d="M184.6,185l-0.1-19.3l5.6-1.1l2.8,5.3c1.2,2.3,2.2,4.4,3,6.5l0.1,0c-0.3-2-0.4-4.3-0.5-7.2l0-5.6l4.4-0.8
			L200,182l-4.9,1l-3.1-5.7c-1.3-2.5-2.2-4.2-3.2-6.6l-0.1,0c0.1,1.9,0.2,4.9,0.2,8.1l0,5.3L184.6,185z"/>
	</g>
</g>
</svg>
