<?xml version="1.0" encoding="utf-8"?>
<!-- Generator: Adobe Illustrator 17.0.0, SVG Export Plug-In . SVG Version: 6.00 Build 0)  -->
<!DOCTYPE svg PUBLIC "-//W3C//DTD SVG 1.1//EN" "http://www.w3.org/Graphics/SVG/1.1/DTD/svg11.dtd" [
	<!ENTITY ns_flows "http://ns.adobe.com/Flows/1.0/">
	<!ENTITY ns_extend "http://ns.adobe.com/Extensibility/1.0/">
	<!ENTITY ns_ai "http://ns.adobe.com/AdobeIllustrator/10.0/">
	<!ENTITY ns_graphs "http://ns.adobe.com/Graphs/1.0/">
]>
<svg version="1.1" id="Layer_2" xmlns:x="&ns_extend;" xmlns:i="&ns_ai;" xmlns:graph="&ns_graphs;"
	 xmlns="http://www.w3.org/2000/svg" xmlns:xlink="http://www.w3.org/1999/xlink" xmlns:a="http://ns.adobe.com/AdobeSVGViewerExtensions/3.0/"
	 x="0px" y="0px" width="256px" height="256px" viewBox="0 0 256 256" style="enable-background:new 0 0 256 256;"
	 xml:space="preserve">
<style type="text/css">
	.st0{fill:#FFFFFF;}
	.st1{fill:#54B948;}
	.st2{fill:#1D8C8E;}
	.st3{fill:#14DEAC;}
	.st4{fill:#1466AC;}
	.st5{fill:#757575;}
	.st6{fill:#B69442;}
	.st7{fill:#1A234D;}
	.st8{fill:#AA0629;}
	.st9{fill:#FF4A49;}
	.st10{fill:#3C6643;}
	.st11{fill:none;stroke:#FF4A49;stroke-miterlimit:10;}
	.st12{fill:#E70084;}
	.st13{fill:#508A72;}
	.st14{fill:#01A663;}
	.st15{fill:#015297;}
	.st16{fill:#B0B0B0;}
	.st17{fill:#E1062F;}
	.st18{fill:#D80000;stroke:#FFFFFF;stroke-width:2;stroke-miterlimit:10;}
	.st19{fill:#D80000;}
	.st20{fill:#8ABE23;}
	.st21{fill:#1D1D1B;}
	.st22{fill:#FEFEFE;}
	.st23{fill:#FF0000;}
	.st24{fill:#FF1D1B;}
	.st25{fill:#6DB2DE;}
	.st26{fill:#FF1D25;}
	.st27{fill:#FFDA00;}
	.st28{fill:#024D9E;}
	.st29{fill:#6B97C6;}
	.st30{fill:#000078;}
	.st31{fill:none;stroke:#FFFFFF;stroke-width:6;stroke-linecap:round;stroke-miterlimit:10;}
	.st32{fill:#FFEE34;}
	.st33{fill:none;stroke:#000000;stroke-width:4;stroke-miterlimit:10;}
	.st34{fill:#D11E24;}
	.st35{fill:#D71F26;}
	.st36{fill:#020000;}
	.st37{fill:none;stroke:#000000;stroke-width:2;stroke-miterlimit:10;}
	.st38{clip-path:url(#SVGID_2_);}
	.st39{fill:#00317D;}
	.st40{fill:#00737D;}
	.st41{fill:#ED1C24;}
	.st42{fill:#2678C7;}
	.st43{fill:#1853A6;}
	.st44{fill:#CB0000;}
	.st45{fill:#E61C21;}
	.st46{clip-path:url(#SVGID_4_);}
	.st47{fill:#6BDEF1;}
	.st48{clip-path:url(#SVGID_6_);}
	.st49{fill:#0165B2;}
	.st50{fill:#DE1134;}
	.st51{fill:#00A668;}
	.st52{fill:#FFE60B;}
	.st53{fill:#843D00;stroke:#000000;stroke-miterlimit:10;}
	.st54{fill:#EC1F27;}
	.st55{fill:#162984;}
	.st56{fill:#1853A6;stroke:#1853A6;stroke-miterlimit:10;}
	.st57{fill:none;}
	.st58{fill:none;stroke:#1853A6;stroke-width:0.9;stroke-miterlimit:10;}
	.st59{fill:#1853A6;stroke:#1853A6;stroke-width:0.9;stroke-miterlimit:10;}
	.st60{fill:#B5985A;}
	.st61{fill:#FFE60B;stroke:#000000;stroke-width:6;stroke-miterlimit:10;}
	.st62{fill:#008DCD;}
	.st63{fill:#009939;}
	.st64{fill:#2E3092;}
	.st65{fill:#EE3224;}
	.st66{fill:#005BAB;}
	.st67{fill:#D30027;}
	.st68{fill:#FFFFFF;stroke:#D30027;stroke-width:10;stroke-miterlimit:10;}
	.st69{fill:#E81C2F;}
	.st70{fill:#DC032B;}
	.st71{fill:#F25448;}
	.st72{fill:#FFFFFF;stroke:#F25448;stroke-width:6;stroke-miterlimit:10;}
	.st73{fill:#05A08D;}
	.st74{fill:#1875CE;}
	.st75{fill:#D72427;}
	.st76{fill:#004993;}
	.st77{fill:#007BB0;}
	.st78{fill:#FFEB00;}
	.st79{fill:#664A9E;}
	.st80{fill:#F4C701;}
	.st81{fill:#EBBE12;}
	.st82{fill:#44B3DB;}
	.st83{fill:#F6FF82;}
	.st84{fill:#FFC918;}
	.st85{fill:#0361A4;}
	.st86{fill:#009FE3;}
	.st87{fill:#E30217;}
	.st88{fill:#FDEA00;}
	.st89{fill:#E91B00;}
	.st90{fill:#2B2763;}
	.st91{fill:#EE1A22;}
	.st92{fill:#F1AA25;}
	.st93{fill:#93000C;}
	.st94{fill:none;stroke:#1D1D1B;stroke-width:4;}
	.st95{fill:#3E4E70;}
	.st96{fill:#096CB6;}
	.st97{fill:#0559A8;}
	.st98{fill:#F9ED1A;}
	.st99{fill:#949494;}
	.st100{fill:#FFD033;}
	.st101{fill:#243D89;}
	.st102{fill:#F8C936;}
	.st103{fill:#D44128;}
	.st104{fill:#ED1B23;}
	.st105{fill:#0C529C;}
	.st106{fill:#E31E24;}
	.st107{fill:#0263B0;}
	.st108{fill:#007AC2;}
	.st109{fill:#EF3D1F;}
	.st110{fill:#EE1C24;}
	.st111{fill:#FDEA00;stroke:#000000;stroke-width:0.6509;}
	.st112{fill:#FDEA00;stroke:#000000;stroke-width:0.6979;}
	.st113{fill:#46A0BE;}
	.st114{fill:#005FA5;}
	.st115{fill:#00904C;}
	.st116{fill:#E21F26;}
	.st117{fill:#FD0001;}
	.st118{fill:#0066B3;}
	.st119{fill:#E20019;}
	.st120{fill:#0171BC;}
	.st121{fill:#01305D;}
	.st122{fill:#1B7EE9;}
	.st123{fill:#BA0D0B;}
	.st124{fill:none;stroke:#000000;stroke-width:3;stroke-miterlimit:10;}
	.st125{fill:#FFFFFF;stroke:#000000;stroke-width:0.8836;stroke-miterlimit:10;}
	.st126{fill:#FFFFFF;stroke:#000000;stroke-width:0.9759;stroke-miterlimit:10;}
	.st127{fill:#0053A1;}
	.st128{fill:#FFE100;}
	.st129{fill:#FFE500;}
	.st130{fill:none;stroke:#FFE500;stroke-width:2;stroke-miterlimit:10;}
	.st131{fill:#01AFF3;}
	.st132{fill:#ED1B28;}
	.st133{fill:#E2000A;}
</style>
<g>
	<g>
		<g>
			<path class="st0" d="M128,249.4C61,249.4,6.6,195,6.6,128S61,6.6,128,6.6S249.4,61,249.4,128S195,249.4,128,249.4z"/>
			<path d="M128,11.1c31.2,0,60.6,12.2,82.6,34.2s34.2,51.4,34.2,82.6s-12.2,60.6-34.2,82.6s-51.4,34.2-82.6,34.2
				s-60.6-12.2-82.6-34.2S11.1,159.2,11.1,128s12.2-60.6,34.2-82.6S96.8,11.1,128,11.1 M128,2C58.4,2,2,58.4,2,128s56.4,126,126,126
				s126-56.4,126-126S197.6,2,128,2L128,2z"/>
		</g>
		<path d="M128,237.6c-60.5,0-109.6-49.2-109.6-109.6S67.5,18.4,128,18.4S237.6,67.5,237.6,128S188.5,237.6,128,237.6z M128,23.4
			C70.3,23.4,23.4,70.3,23.4,128S70.3,232.6,128,232.6S232.6,185.7,232.6,128S185.7,23.4,128,23.4z"/>
	</g>
	<g>
		<path class="st0" d="M128,20.9c-59.1,0-107.1,48-107.1,107.1c0,0.7,0,1.4,0,2.1l192.7-66.4C194.1,37.7,163,20.9,128,20.9z"/>
		<path class="st0" d="M40.6,189.9c19.4,27.4,51.3,45.2,87.4,45.2c59.1,0,107.1-48,107.1-107.1c0-1.7,0-3.4-0.1-5.1L40.6,189.9z"/>
		<path d="M213.7,63.7L20.9,130.1c0.4,22.3,7.6,42.8,19.7,59.8l194.4-67C233.9,100.8,226.2,80.4,213.7,63.7z"/>
	</g>
	<g>
		<path class="st0" d="M80.7,156.8c4.9,0.2,12.4-0.6,19.5-3.1c6.5-2.3,9.1-5,8.1-7.7c-0.9-2.6-4.5-2.9-13.2-2.2
			c-13.1,0.9-22.7-1.2-25.5-9c-3.3-9.4,4.8-20.3,22.6-26.5c8.4-2.9,14.9-3.9,20-4l0,12.8c-3.4,0-9.2,0.4-16.2,2.8
			c-5.8,2-8.4,4.7-7.5,7c0.9,2.7,5.1,2.4,14.9,1.8c13.9-0.9,21.3,2.2,23.9,9.6c3.2,9.1-3.5,20.2-24.2,27.4c-8.5,3-17.3,4.2-21.9,4
			L80.7,156.8z"/>
		<path class="st0" d="M160.4,145l-41-45.3l20.8-7.2l14.8,18.2c4.3,5.2,8.2,10.4,12.4,16.5l0.2-0.1c-0.6-7-0.7-13.9-0.6-20.4
			l0.3-23.8l20.1-7l-4.5,61.2L160.4,145z"/>
	</g>
	<g>
		<path d="M34.4,102.5c1.1,0.2,2.9,0.1,4.5-0.4c1.5-0.5,2-1.2,1.7-2c-0.3-0.8-1.1-1-3.1-1c-3-0.1-5.3-0.9-6.1-3.3
			c-1-2.8,0.7-5.8,4.7-7.2c1.9-0.6,3.4-0.8,4.6-0.7l0.3,3.7c-0.8-0.1-2.1-0.1-3.7,0.4c-1.3,0.4-1.9,1.2-1.6,1.9
			c0.3,0.8,1.2,0.8,3.5,0.9c3.2,0.1,5,1.2,5.8,3.4c0.9,2.7-0.4,5.8-5.1,7.4c-1.9,0.7-4,0.8-5,0.6L34.4,102.5z"/>
		<path d="M51.8,97.2l0.4,4l-4.4,1.5l-0.8-17.5l5.7-1.9l10.2,14.3l-4.6,1.6l-2.3-3.3L51.8,97.2z M54.2,92.9l-1.7-2.6
			c-0.5-0.8-1.3-2-1.8-2.9l0,0c0.1,1,0.3,2.4,0.4,3.4l0.3,3.1L54.2,92.9z"/>
		<path d="M64.8,96.9l-5.4-16l5-1.7l4.2,4c1.4,1.3,3.1,3.1,4.4,4.7l0.1,0c-1-2-1.8-4.2-2.6-6.6l-1.3-3.8l3.9-1.3l5.4,16L74,93.8
			l-4.5-4.4c-1.4-1.4-3.2-3.2-4.6-4.8l-0.1,0c0.8,2.1,1.7,4.5,2.6,7.1l1.3,3.9L64.8,96.9z"/>
		<path d="M76.2,75.5c1.3-0.7,3.1-1.4,5-2.1c3.1-1,5.2-1.2,7.1-0.6c2.2,0.6,4,2.2,5,5.1c1.1,3.3,0.6,5.8-0.5,7.5
			c-1.3,2-3.7,3.5-6.8,4.5c-2.1,0.7-3.5,1-4.4,1.2L76.2,75.5z M84.7,86.6c0.2,0,0.6-0.2,0.9-0.3c2.8-0.9,4.3-3.1,3.1-6.7
			c-1.1-3.1-3.4-4-6-3.1c-0.7,0.2-1.1,0.4-1.3,0.5L84.7,86.6z"/>
		<path d="M97.2,68.1l2,5.9l5.2-1.8l-2-5.9l4.3-1.5l5.4,16l-4.3,1.5l-2.1-6.3l-5.2,1.8l2.1,6.3l-4.3,1.5l-5.4-16L97.2,68.1z"/>
		<path d="M117.9,74.8l0.4,4l-4.4,1.5l-0.8-17.5l5.7-1.9l10.2,14.3l-4.6,1.6l-2.3-3.3L117.9,74.8z M120.4,70.4l-1.7-2.6
			c-0.5-0.8-1.3-2-1.8-2.9l0,0c0.1,1,0.3,2.4,0.4,3.4l0.3,3.1L120.4,70.4z"/>
		<path d="M128.9,57.3l3.1,9.1c0.8,2.4,2.1,3.5,3.8,2.9c1.7-0.6,2.1-2.1,1.3-4.6l-3.1-9.1l4.3-1.5l3,8.8c1.7,4.9,0.1,8.2-4.4,9.8
			c-4.4,1.5-7.5-0.1-9.2-5.2l-3-8.7L128.9,57.3z"/>
		<path d="M145.4,64.8c1.1,0.2,2.9,0.1,4.5-0.4c1.5-0.5,2-1.2,1.7-2c-0.3-0.8-1.1-1-3.1-1c-3-0.1-5.3-0.9-6.1-3.3
			c-1-2.8,0.7-5.8,4.7-7.2c1.9-0.6,3.4-0.8,4.6-0.7l0.3,3.7c-0.8-0.1-2.1-0.1-3.7,0.4c-1.3,0.4-1.9,1.2-1.6,1.9
			c0.3,0.8,1.2,0.8,3.5,0.9c3.2,0.1,5,1.2,5.8,3.4c0.9,2.7-0.4,5.8-5.1,7.4c-1.9,0.7-4,0.8-5,0.6L145.4,64.8z"/>
		<path d="M167.7,54.8l-5.7,1.9l1,2.9l6.4-2.2l1.2,3.5l-10.7,3.6l-5.4-16l10.4-3.5l1.2,3.5l-6.1,2.1l0.9,2.6l5.7-1.9L167.7,54.8z"/>
		<path d="M172.9,60.2l-5.4-16l5-1.7l4.2,4c1.4,1.3,3.1,3.1,4.4,4.7l0.1,0c-1-2-1.8-4.2-2.6-6.6l-1.3-3.8l3.9-1.3l5.4,16l-4.5,1.5
			l-4.5-4.4c-1.4-1.4-3.2-3.2-4.6-4.8l-0.1,0c0.8,2.1,1.7,4.5,2.6,7.1l1.3,3.9L172.9,60.2z"/>
	</g>
	<g>
		<path d="M109.5,225.2l-11.7-34.3c-0.3,0.8-0.9,1.6-1.8,2.3c-0.9,0.7-1.8,1.2-2.8,1.5l-1.6-4.8c1.3-0.7,2.4-1.6,3.3-3
			s1.4-2.9,1.6-4.6l5-1.7L116,223L109.5,225.2z"/>
		<path d="M146.2,209.9c-0.7,2.5-2.6,4.3-5.6,5.3s-5.5,0.9-7.5-0.2c-2-1.2-3.6-3.7-4.9-7.5l-0.8-2.3l6.1-2.1l0.3,0.9
			c0.9,2.6,1.7,4.3,2.3,5c0.6,0.8,1.4,1,2.4,0.6c1-0.3,1.5-0.7,1.6-1.2c0.1-0.5,0.1-0.9,0.2-1.3c0-0.4-0.3-1.7-1.1-3.8l-2.1-6.3
			c-0.7,0.9-1.9,1.6-3.6,2.2c-2.9,1-5.2,0.6-7.1-1c-1.9-1.7-3.6-4.6-5-8.8l-0.5-1.5c-1.8-5.3-2.1-9.1-0.9-11.5c1-2,2.8-3.4,5.6-4.4
			c2.7-0.9,4.9-1.1,6.6-0.5c1.6,0.6,3,1.8,4,3.5c1,1.7,2,4.1,3,7l5.7,16.9C146.5,203.8,147,207.4,146.2,209.9z M132.9,193.6
			c1.6-0.5,2.3-1.5,2-3l-2.7-8c-0.7-2.1-1.4-3.5-2.1-4.3c-0.7-0.8-1.6-1-2.6-0.6c-1.1,0.4-1.6,1.1-1.7,2.1c-0.1,1.1,0.3,2.6,1,4.7
			l1.3,3.8c0.8,2.3,1.5,3.9,2.2,4.7C130.9,193.7,131.8,193.9,132.9,193.6z"/>
		<path d="M168.4,205.2l-11.7-34.3c-0.3,0.8-0.9,1.6-1.8,2.3c-0.9,0.7-1.8,1.2-2.8,1.5l-1.6-4.8c1.3-0.7,2.4-1.6,3.3-3
			c0.9-1.3,1.4-2.9,1.6-4.6l5-1.7l14.4,42.3L168.4,205.2z"/>
		<path d="M188.8,171c0.6-1.7,2.1-3,4.6-3.8c2.5-0.8,4.6-0.5,6.4,1.2c1.8,1.6,3.4,4.6,4.9,9l0.8,2.3c1.4,4.1,1.8,7.3,1.2,9.8
			c-0.6,2.4-2.7,4.3-6.2,5.5c-4.4,1.5-7.8,0.8-10.1-2.2c-1.4-1.8-2.7-4.3-3.9-7.8l-5.9-17.4c-2.1-6.1-2-10.5,0.3-13
			c1.1-1.2,2.8-2.2,5-3c2.9-1,5.2-0.9,7.1,0.3c1.9,1.2,3.5,3.7,4.8,7.6l0.7,2.2l-6,2l-0.3-0.9c-0.9-2.5-1.6-4.2-2.2-5
			s-1.5-1-2.6-0.6s-1.8,1.1-1.8,2.2c0,1.1,0.4,2.9,1.3,5.5L188.8,171z M195.6,188.7c0.8,0.8,1.7,1,2.9,0.6s1.8-1,2-1.9
			c0.2-0.9-0.1-2.4-0.8-4.4l-1.4-4c-0.8-2.4-1.6-4-2.3-4.8c-0.7-0.8-1.6-1.1-2.6-0.8c-1,0.3-1.7,0.8-2.1,1.5s-0.6,1.3-0.5,1.9
			l2.6,7.6C194.1,186.5,194.9,188,195.6,188.7z"/>
	</g>
</g>
</svg>
