<?xml version="1.0" encoding="utf-8"?>
<!-- Generator: Adobe Illustrator 17.0.0, SVG Export Plug-In . SVG Version: 6.00 Build 0)  -->
<!DOCTYPE svg PUBLIC "-//W3C//DTD SVG 1.1//EN" "http://www.w3.org/Graphics/SVG/1.1/DTD/svg11.dtd" [
	<!ENTITY ns_flows "http://ns.adobe.com/Flows/1.0/">
	<!ENTITY ns_extend "http://ns.adobe.com/Extensibility/1.0/">
	<!ENTITY ns_ai "http://ns.adobe.com/AdobeIllustrator/10.0/">
	<!ENTITY ns_graphs "http://ns.adobe.com/Graphs/1.0/">
]>
<svg version="1.1" id="Layer_2" xmlns:x="&ns_extend;" xmlns:i="&ns_ai;" xmlns:graph="&ns_graphs;"
	 xmlns="http://www.w3.org/2000/svg" xmlns:xlink="http://www.w3.org/1999/xlink" xmlns:a="http://ns.adobe.com/AdobeSVGViewerExtensions/3.0/"
	 x="0px" y="0px" width="256px" height="256px" viewBox="0 0 256 256" style="enable-background:new 0 0 256 256;"
	 xml:space="preserve">
<style type="text/css">
	.st0{fill:#FFFFFF;}
	.st1{fill:#54B948;}
	.st2{fill:#1D8C8E;}
	.st3{fill:#14DEAC;}
	.st4{fill:#1466AC;}
	.st5{fill:#757575;}
	.st6{fill:#B69442;}
	.st7{fill:#1A234D;}
	.st8{fill:#AA0629;}
	.st9{fill:#FF4A49;}
	.st10{fill:#3C6643;}
	.st11{fill:none;stroke:#FF4A49;stroke-miterlimit:10;}
	.st12{fill:#E70084;}
	.st13{fill:#508A72;}
	.st14{fill:#01A663;}
	.st15{fill:#015297;}
	.st16{fill:#B0B0B0;}
	.st17{fill:#E1062F;}
	.st18{fill:#D80000;stroke:#FFFFFF;stroke-width:2;stroke-miterlimit:10;}
	.st19{fill:#D80000;}
	.st20{fill:#8ABE23;}
	.st21{fill:#1D1D1B;}
	.st22{fill:#FEFEFE;}
	.st23{fill:#FF0000;}
	.st24{fill:#FF1D1B;}
	.st25{fill:#6DB2DE;}
	.st26{fill:#FF1D25;}
	.st27{fill:#FFDA00;}
	.st28{fill:#024D9E;}
	.st29{fill:#6B97C6;}
	.st30{fill:#000078;}
	.st31{fill:none;stroke:#FFFFFF;stroke-width:6;stroke-linecap:round;stroke-miterlimit:10;}
	.st32{fill:#FFEE34;}
	.st33{fill:none;stroke:#000000;stroke-width:4;stroke-miterlimit:10;}
	.st34{fill:#D11E24;}
	.st35{fill:#D71F26;}
	.st36{fill:#020000;}
	.st37{fill:none;stroke:#000000;stroke-width:2;stroke-miterlimit:10;}
	.st38{clip-path:url(#SVGID_2_);}
	.st39{fill:#00317D;}
	.st40{fill:#00737D;}
	.st41{fill:#ED1C24;}
	.st42{fill:#2678C7;}
	.st43{fill:#1853A6;}
	.st44{fill:#CB0000;}
	.st45{fill:#E61C21;}
	.st46{clip-path:url(#SVGID_4_);}
	.st47{fill:#6BDEF1;}
	.st48{clip-path:url(#SVGID_6_);}
	.st49{fill:#0165B2;}
	.st50{fill:#DE1134;}
	.st51{fill:#00A668;}
	.st52{fill:#FFE60B;}
	.st53{fill:#843D00;stroke:#000000;stroke-miterlimit:10;}
	.st54{fill:#EC1F27;}
	.st55{fill:#162984;}
	.st56{fill:#1853A6;stroke:#1853A6;stroke-miterlimit:10;}
	.st57{fill:none;}
	.st58{fill:none;stroke:#1853A6;stroke-width:0.9;stroke-miterlimit:10;}
	.st59{fill:#1853A6;stroke:#1853A6;stroke-width:0.9;stroke-miterlimit:10;}
	.st60{fill:#B5985A;}
	.st61{fill:#FFE60B;stroke:#000000;stroke-width:6;stroke-miterlimit:10;}
	.st62{fill:#008DCD;}
	.st63{fill:#009939;}
	.st64{fill:#2E3092;}
	.st65{fill:#EE3224;}
	.st66{fill:#005BAB;}
	.st67{fill:#D30027;}
	.st68{fill:#FFFFFF;stroke:#D30027;stroke-width:10;stroke-miterlimit:10;}
	.st69{fill:#E81C2F;}
	.st70{fill:#DC032B;}
	.st71{fill:#F25448;}
	.st72{fill:#FFFFFF;stroke:#F25448;stroke-width:6;stroke-miterlimit:10;}
	.st73{fill:#05A08D;}
	.st74{fill:#1875CE;}
	.st75{fill:#D72427;}
	.st76{fill:#004993;}
	.st77{fill:#007BB0;}
	.st78{fill:#FFEB00;}
	.st79{fill:#664A9E;}
	.st80{fill:#F4C701;}
	.st81{fill:#EBBE12;}
	.st82{fill:#44B3DB;}
	.st83{fill:#F6FF82;}
	.st84{fill:#FFC918;}
	.st85{fill:#0361A4;}
	.st86{fill:#009FE3;}
	.st87{fill:#E30217;}
	.st88{fill:#FDEA00;}
	.st89{fill:#E91B00;}
	.st90{fill:#2B2763;}
	.st91{fill:#EE1A22;}
	.st92{fill:#F1AA25;}
	.st93{fill:#93000C;}
	.st94{fill:none;stroke:#1D1D1B;stroke-width:4;}
	.st95{fill:#3E4E70;}
	.st96{fill:#096CB6;}
	.st97{fill:#0559A8;}
	.st98{fill:#F9ED1A;}
	.st99{fill:#949494;}
	.st100{fill:#FFD033;}
	.st101{fill:#243D89;}
	.st102{fill:#F8C936;}
	.st103{fill:#D44128;}
	.st104{fill:#ED1B23;}
	.st105{fill:#0C529C;}
	.st106{fill:#E31E24;}
	.st107{fill:#0263B0;}
	.st108{fill:#007AC2;}
	.st109{fill:#EF3D1F;}
	.st110{fill:#EE1C24;}
	.st111{fill:#FDEA00;stroke:#000000;stroke-width:0.6509;}
	.st112{fill:#FDEA00;stroke:#000000;stroke-width:0.6979;}
	.st113{fill:#46A0BE;}
	.st114{fill:#005FA5;}
	.st115{fill:#00904C;}
	.st116{fill:#E21F26;}
	.st117{fill:#FD0001;}
	.st118{fill:#0066B3;}
	.st119{fill:#E20019;}
	.st120{fill:#0171BC;}
	.st121{fill:#01305D;}
	.st122{fill:#1B7EE9;}
	.st123{fill:#BA0D0B;}
	.st124{fill:none;stroke:#000000;stroke-width:3;stroke-miterlimit:10;}
	.st125{fill:#FFFFFF;stroke:#000000;stroke-width:0.8836;stroke-miterlimit:10;}
	.st126{fill:#FFFFFF;stroke:#000000;stroke-width:0.9759;stroke-miterlimit:10;}
	.st127{fill:#0053A1;}
	.st128{fill:#FFE100;}
	.st129{fill:#FFE500;}
	.st130{fill:none;stroke:#FFE500;stroke-width:2;stroke-miterlimit:10;}
	.st131{fill:#01AFF3;}
	.st132{fill:#ED1B28;}
	.st133{fill:#E2000A;}
</style>
<g>
	<g>
		<polygon class="st57" points="253.4,86 247,86 247,94.1 		"/>
		<polygon class="st57" points="2,86 12,99 12,86 		"/>
		<path class="st36" d="M125.2,247.4c1.3,0,2.6-0.2,3.9-0.2c0.6,0,1.2,0.4,1.8,0.4l17-161.5h-39.7L125.2,247.4z"/>
		<path class="st115" d="M12,160.5c0,0.2,0.2,22,14.6,43.3c17.1,25.2,46.1,39.5,86.1,42.5L12,99V160.5z"/>
		<line class="st0" x1="55" y1="86" x2="108" y2="86"/>
		<polyline class="st116" points="201,86 247,86 247,10 12,10 12,86 55,86 		"/>
		<line class="st0" x1="148" y1="86" x2="201" y2="86"/>
		<line class="st0" x1="108" y1="86" x2="148" y2="86"/>
		<path class="st115" d="M147.9,86l-17,161.4c1.5,0,3,0.2,4.4,0.2L201.2,86H147.9z"/>
		<path class="st36" d="M247,86h-45.8l-65.9,161.3c2.6-0.1,5-0.4,7.4-0.6L247,94.1V86z"/>
		<path class="st115" d="M142.7,246.5c41.9-2.5,71.9-16.8,89.5-42.7c14.5-21.3,14.7-43.1,14.7-43.3V94.1L142.7,246.5z"/>
		<path class="st36" d="M12,86v13l100.6,147.3c2.5,0.2,5,0.8,7.5,0.9L54.2,86H12z"/>
		<path class="st115" d="M108.2,86H54.2l65.9,161.3c1.7,0.1,3.4,0.4,5.1,0.4L108.2,86z"/>
	</g>
	<path d="M240.4,16.2v144.3c0,0.8-0.6,20.6-13.9,39.8c-7.8,11.3-18.5,20.3-31.9,26.8c-17.4,8.5-39.5,12.8-65.5,12.8
		c-25.8,0-47.6-4.3-64.9-12.8c-13.3-6.5-23.9-15.5-31.7-26.8c-13.2-19.1-13.9-38.9-14-39.9V16.2H240.4 M254,2H4.8v158.6
		c0,0,0.3,93.4,124.2,93.4C254,254,254,160.6,254,160.6V2L254,2z"/>
	<g>
		<path class="st0" d="M32.1,39.3L32.1,39.3l-6.5,4l-1.5-9.4l9.3-5.7h7.4v45h-8.7V39.3z"/>
		<path class="st0" d="M56.5,74c-3,0-5.1-3-5.1-7.3s2.2-7.3,5.2-7.3c3.1,0,5.1,2.9,5.2,7.3C61.8,71.1,59.7,74,56.5,74L56.5,74z"/>
		<path class="st0" d="M66.3,26.6H88v10.3H75.3v8.6h11.9v10.1H75.3v17.7h-9.1V26.6z"/>
		<path class="st0" d="M118.8,72c-1.3,0.9-4.5,1.9-8.5,1.9c-12.6,0-18.2-10.9-18.2-23.3c0-16.4,8.7-24.8,18.8-24.8c3.9,0,7,1,8.4,2
			l-1.8,9.9c-1.5-0.8-3.6-1.7-6.3-1.7c-5.2,0-9.7,4.2-9.7,13.7c0,8.5,3.7,13.7,9.9,13.7c2.2,0,4.6-0.6,6-1.3L118.8,72z"/>
		<path class="st0" d="M128.2,74c-3,0-5.1-3-5.1-7.3s2.2-7.3,5.2-7.3c3.1,0,5.1,2.9,5.2,7.3C133.4,71.1,131.4,74,128.2,74L128.2,74z
			"/>
		<path class="st0" d="M138.5,60.8c2.1,1.5,5.4,2.9,8.8,2.9c3.1,0,4.6-1.5,4.6-3.8c0-2.3-1.5-3.5-5.3-5.3c-5.7-2.8-9.5-7.1-9.5-14.1
			c0-8.2,5.1-14.6,13.6-14.6c4,0,6.9,1,9.1,2.4l-1.9,10c-1.5-0.9-4-2.2-7.3-2.2c-2.8,0-4.3,1.4-4.3,3.5c0,2.4,1.8,3.3,6.1,5.5
			c6.1,3.1,8.8,7.6,8.8,14.1c0,8-4.5,14.9-14.4,14.9c-4.1,0-8-1.5-9.9-2.8L138.5,60.8z"/>
		<path class="st0" d="M170.5,74c-3,0-5.1-3-5.1-7.3s2.2-7.3,5.2-7.3c3.1,0,5.1,2.9,5.2,7.3C175.7,71.1,173.7,74,170.5,74L170.5,74z
			"/>
		<path class="st0" d="M191.5,74c-9.3,0-12.8-11.4-12.8-23.2c0-12.2,3.7-23.4,12.8-23.4c9.5,0,12.8,11.7,12.8,23.2
			C204.3,64,200.2,74,191.5,74L191.5,74z M191.6,64.7c2.3,0,3.7-4.2,3.7-13.9c0-9.5-1.4-13.9-3.8-13.9c-2.3,0-3.8,4.2-3.8,13.9
			C187.7,60.5,189.2,64.7,191.6,64.7L191.6,64.7z"/>
		<path class="st0" d="M230.6,38.5h-12.7l-0.5,4.9c0.7-0.1,1.3-0.1,1.9-0.1c3.4,0,6.9,1.1,9.3,3.6c2.4,2.5,3.7,6.2,3.7,11.2
			c0,8.2-5.3,16-14.8,16c-4.1,0-7.6-1.2-9.5-2.5l1.5-9.4c1.5,1,4.6,2.1,7.5,2.1c2.8,0,6-1.4,6-5.6c0-4.1-2.6-6.4-9.1-6.4
			c-1.8,0-3,0.1-4.4,0.4l2.2-24.5h18.9V38.5z"/>
	</g>
</g>
</svg>
