<?xml version="1.0" encoding="utf-8"?>
<!-- Generator: Adobe Illustrator 17.0.0, SVG Export Plug-In . SVG Version: 6.00 Build 0)  -->
<!DOCTYPE svg PUBLIC "-//W3C//DTD SVG 1.1//EN" "http://www.w3.org/Graphics/SVG/1.1/DTD/svg11.dtd" [
	<!ENTITY ns_flows "http://ns.adobe.com/Flows/1.0/">
	<!ENTITY ns_extend "http://ns.adobe.com/Extensibility/1.0/">
	<!ENTITY ns_ai "http://ns.adobe.com/AdobeIllustrator/10.0/">
	<!ENTITY ns_graphs "http://ns.adobe.com/Graphs/1.0/">
]>
<svg version="1.1" id="Layer_2" xmlns:x="&ns_extend;" xmlns:i="&ns_ai;" xmlns:graph="&ns_graphs;"
	 xmlns="http://www.w3.org/2000/svg" xmlns:xlink="http://www.w3.org/1999/xlink" xmlns:a="http://ns.adobe.com/AdobeSVGViewerExtensions/3.0/"
	 x="0px" y="0px" width="256px" height="256px" viewBox="0 0 256 256" style="enable-background:new 0 0 256 256;"
	 xml:space="preserve">
<style type="text/css">
	.st0{fill:#FFFFFF;}
	.st1{fill:#54B948;}
	.st2{fill:#1D8C8E;}
	.st3{fill:#14DEAC;}
	.st4{fill:#1466AC;}
	.st5{fill:#757575;}
	.st6{fill:#B69442;}
	.st7{fill:#1A234D;}
	.st8{fill:#AA0629;}
	.st9{fill:#FF4A49;}
	.st10{fill:#3C6643;}
	.st11{fill:none;stroke:#FF4A49;stroke-miterlimit:10;}
	.st12{fill:#E70084;}
	.st13{fill:#508A72;}
	.st14{fill:#01A663;}
	.st15{fill:#015297;}
	.st16{fill:#B0B0B0;}
	.st17{fill:#E1062F;}
	.st18{fill:#D80000;stroke:#FFFFFF;stroke-width:2;stroke-miterlimit:10;}
	.st19{fill:#D80000;}
	.st20{fill:#8ABE23;}
	.st21{fill:#1D1D1B;}
	.st22{fill:#FEFEFE;}
	.st23{fill:#FF0000;}
	.st24{fill:#FF1D1B;}
	.st25{fill:#6DB2DE;}
	.st26{fill:#FF1D25;}
	.st27{fill:#FFDA00;}
	.st28{fill:#024D9E;}
	.st29{fill:#6B97C6;}
	.st30{fill:#000078;}
	.st31{fill:none;stroke:#FFFFFF;stroke-width:6;stroke-linecap:round;stroke-miterlimit:10;}
	.st32{fill:#FFEE34;}
	.st33{fill:none;stroke:#000000;stroke-width:4;stroke-miterlimit:10;}
	.st34{fill:#D11E24;}
	.st35{fill:#D71F26;}
	.st36{fill:#020000;}
	.st37{fill:none;stroke:#000000;stroke-width:2;stroke-miterlimit:10;}
	.st38{clip-path:url(#SVGID_2_);}
	.st39{fill:#00317D;}
	.st40{fill:#00737D;}
	.st41{fill:#ED1C24;}
	.st42{fill:#2678C7;}
	.st43{fill:#1853A6;}
	.st44{fill:#CB0000;}
	.st45{fill:#E61C21;}
	.st46{clip-path:url(#SVGID_4_);}
	.st47{fill:#6BDEF1;}
	.st48{clip-path:url(#SVGID_6_);}
	.st49{fill:#0165B2;}
	.st50{fill:#DE1134;}
	.st51{fill:#00A668;}
	.st52{fill:#FFE60B;}
	.st53{fill:#843D00;stroke:#000000;stroke-miterlimit:10;}
	.st54{fill:#EC1F27;}
	.st55{fill:#162984;}
	.st56{fill:#1853A6;stroke:#1853A6;stroke-miterlimit:10;}
	.st57{fill:none;}
	.st58{fill:none;stroke:#1853A6;stroke-width:0.9;stroke-miterlimit:10;}
	.st59{fill:#1853A6;stroke:#1853A6;stroke-width:0.9;stroke-miterlimit:10;}
	.st60{fill:#B5985A;}
	.st61{fill:#FFE60B;stroke:#000000;stroke-width:6;stroke-miterlimit:10;}
	.st62{fill:#008DCD;}
	.st63{fill:#009939;}
	.st64{fill:#2E3092;}
	.st65{fill:#EE3224;}
	.st66{fill:#005BAB;}
	.st67{fill:#D30027;}
	.st68{fill:#FFFFFF;stroke:#D30027;stroke-width:10;stroke-miterlimit:10;}
	.st69{fill:#E81C2F;}
	.st70{fill:#DC032B;}
	.st71{fill:#F25448;}
	.st72{fill:#FFFFFF;stroke:#F25448;stroke-width:6;stroke-miterlimit:10;}
	.st73{fill:#05A08D;}
	.st74{fill:#1875CE;}
	.st75{fill:#D72427;}
	.st76{fill:#004993;}
	.st77{fill:#007BB0;}
	.st78{fill:#FFEB00;}
	.st79{fill:#664A9E;}
	.st80{fill:#F4C701;}
	.st81{fill:#EBBE12;}
	.st82{fill:#44B3DB;}
	.st83{fill:#F6FF82;}
	.st84{fill:#FFC918;}
	.st85{fill:#0361A4;}
	.st86{fill:#009FE3;}
	.st87{fill:#E30217;}
	.st88{fill:#FDEA00;}
	.st89{fill:#E91B00;}
	.st90{fill:#2B2763;}
	.st91{fill:#EE1A22;}
	.st92{fill:#F1AA25;}
	.st93{fill:#93000C;}
	.st94{fill:none;stroke:#1D1D1B;stroke-width:4;}
	.st95{fill:#3E4E70;}
	.st96{fill:#096CB6;}
	.st97{fill:#0559A8;}
	.st98{fill:#F9ED1A;}
	.st99{fill:#949494;}
	.st100{fill:#FFD033;}
	.st101{fill:#243D89;}
	.st102{fill:#F8C936;}
	.st103{fill:#D44128;}
	.st104{fill:#ED1B23;}
	.st105{fill:#0C529C;}
	.st106{fill:#E31E24;}
	.st107{fill:#0263B0;}
	.st108{fill:#007AC2;}
	.st109{fill:#EF3D1F;}
	.st110{fill:#EE1C24;}
	.st111{fill:#FDEA00;stroke:#000000;stroke-width:0.6509;}
	.st112{fill:#FDEA00;stroke:#000000;stroke-width:0.6979;}
	.st113{fill:#46A0BE;}
	.st114{fill:#005FA5;}
	.st115{fill:#00904C;}
	.st116{fill:#E21F26;}
	.st117{fill:#FD0001;}
	.st118{fill:#0066B3;}
	.st119{fill:#E20019;}
	.st120{fill:#0171BC;}
	.st121{fill:#01305D;}
	.st122{fill:#1B7EE9;}
	.st123{fill:#BA0D0B;}
	.st124{fill:none;stroke:#000000;stroke-width:3;stroke-miterlimit:10;}
	.st125{fill:#FFFFFF;stroke:#000000;stroke-width:0.8836;stroke-miterlimit:10;}
	.st126{fill:#FFFFFF;stroke:#000000;stroke-width:0.9759;stroke-miterlimit:10;}
	.st127{fill:#0053A1;}
	.st128{fill:#FFE100;}
	.st129{fill:#FFE500;}
	.st130{fill:none;stroke:#FFE500;stroke-width:2;stroke-miterlimit:10;}
	.st131{fill:#01AFF3;}
	.st132{fill:#ED1B28;}
	.st133{fill:#E2000A;}
</style>
<g>
	<g>
		<g>
			<path class="st0" d="M128,249.4C61,249.4,6.6,195,6.6,128S61,6.6,128,6.6S249.4,61,249.4,128S195,249.4,128,249.4z"/>
			<path class="st113" d="M128,11.1c31.2,0,60.6,12.2,82.6,34.2s34.2,51.4,34.2,82.6s-12.2,60.6-34.2,82.6s-51.4,34.2-82.6,34.2
				s-60.6-12.2-82.6-34.2S11.1,159.2,11.1,128s12.2-60.6,34.2-82.6S96.8,11.1,128,11.1 M128,2C58.4,2,2,58.4,2,128s56.4,126,126,126
				s126-56.4,126-126S197.6,2,128,2L128,2z"/>
		</g>
		<g>
			<circle class="st0" cx="128" cy="128" r="107.1"/>
			<path class="st114" d="M128,237.6c-60.5,0-109.6-49.2-109.6-109.6S67.5,18.4,128,18.4S237.6,67.5,237.6,128
				S188.5,237.6,128,237.6z"/>
		</g>
	</g>
	<g>
		<g>
			<path class="st0" d="M50.8,190.9c1.3,0.7,3.5,1.4,5.7,1.4c2,0,3-0.7,3-1.8c0-1.1-1-1.7-3.4-2.5c-3.7-1.3-6.2-3.3-6.2-6.6
				c0-3.9,3.3-6.8,8.8-6.8c2.6,0,4.5,0.5,5.9,1.1l-1.2,4.7c-0.9-0.4-2.6-1-4.7-1c-1.8,0-2.8,0.6-2.8,1.6c0,1.1,1.2,1.5,3.9,2.6
				c3.9,1.5,5.7,3.5,5.7,6.6c0,3.8-2.9,7-9.3,7c-2.6,0-5.2-0.7-6.4-1.3L50.8,190.9z"/>
			<path class="st0" d="M80.8,196.4c-0.9,0.5-2.6,0.7-4.4,0.7c-5.3,0-8.6-3.1-8.6-8.2c0-4.5,3.1-8.4,9.4-8.4c1.1,0,2.5,0.2,3.7,0.6
				l-0.8,4.3c-0.6-0.2-1.3-0.4-2.5-0.4c-2.2,0-3.7,1.5-3.7,3.8c0,2.6,1.8,3.8,3.9,3.8c1,0,1.8-0.1,2.6-0.4L80.8,196.4z"/>
			<path class="st0" d="M83.2,173.7h5.9v8.8h0.1c0.5-0.6,1.2-1.1,1.9-1.5c0.7-0.4,1.6-0.6,2.4-0.6c3.6,0,5.6,2.6,5.6,7.1v9.2h-5.9
				v-8.6c0-1.9-0.6-3-2.1-3c-1.1,0-1.6,0.6-1.9,1.3c-0.1,0.3-0.1,0.7-0.1,0.9v9.4h-5.9V173.7z"/>
			<path class="st0" d="M116.8,192.9c0,1.6,0.1,3.1,0.3,3.9h-5.3l-0.3-1.4h-0.1c-1.1,1.3-2.7,1.7-4.4,1.7c-3.3,0-5.3-2.4-5.3-5
				c0-4.3,3.9-6.2,9.3-6.2v-0.1c0-0.6-0.5-1.4-2.6-1.4c-1.7,0-3.4,0.6-4.5,1.2l-1-3.7c1-0.6,3.3-1.5,6.6-1.5c5.5,0,7.4,3,7.4,7
				V192.9z M111.1,189.5c-2.4,0-3.7,0.6-3.7,2.1c0,1,0.6,1.5,1.7,1.5c0.8,0,1.7-0.6,2-1.5c0.1-0.3,0.1-0.6,0.1-0.8V189.5z"/>
			<path class="st0" d="M120.4,173.7h5.9v23h-5.9V173.7z"/>
			<path class="st0" d="M135.7,187.3L135.7,187.3c0.4-0.7,0.7-1.4,1.1-1.9l2.6-4.5h7l-5.5,6.4l6.3,9.5H140l-3.1-6.1l-1.2,1.6v4.5
				h-5.9v-23h5.9V187.3z"/>
			<path class="st0" d="M152.6,190.8c0.2,1.3,2,2,4.1,2c1.5,0,2.9-0.2,4.3-0.6l0.7,3.9c-1.9,0.7-4,1-6,1c-5.6,0-8.8-3.1-8.8-8.1
				c0-3.7,2.4-8.5,8.3-8.5c5.1,0,7.3,3.8,7.3,8.2c0,0.9-0.1,1.8-0.2,2.2H152.6z M157.3,186.9c0-0.9-0.4-2.6-2.3-2.6
				c-1.7,0-2.4,1.6-2.5,2.6H157.3z"/>
			<path class="st0" d="M179.1,197.1c-6,0-8.3-5.3-8.3-10.8c0-5.7,2.4-10.9,8.3-10.9c6.2,0,8.3,5.5,8.3,10.8
				C187.4,192.4,184.8,197.1,179.1,197.1L179.1,197.1z M179.2,192.7c1.5,0,2.4-2,2.4-6.5c0-4.4-0.9-6.5-2.4-6.5
				c-1.5,0-2.5,1.9-2.5,6.5C176.7,190.8,177.7,192.7,179.2,192.7L179.2,192.7z"/>
			<path class="st0" d="M198.4,196.7V192h-9.1v-3.8l7.3-12.5h7.3v12h2.3v4.3H204v4.7H198.4z M198.4,187.7v-3.6
				c0-1.4,0.1-2.7,0.2-4.2h-0.1c-0.7,1.4-1.3,2.8-2,4.2l-1.8,3.5l0,0.1H198.4z"/>
		</g>
		<g>
			<path class="st0" d="M49.3,60.5h67.5v23.1H77.5v19.3h36.9v22.8H77.5v39.9H49.3V60.5z"/>
			<path class="st0" d="M205,162.7c-3.9,2-13.9,4.4-26.3,4.4c-39.3,0-56.6-24.5-56.6-52.4c0-36.9,27.1-55.8,58.5-55.8
				c12,0,21.8,2.3,26.2,4.5l-5.5,22.3c-4.5-1.9-11.1-3.7-19.5-3.7c-16.1,0-30.1,9.5-30.1,30.9c0,19,11.4,30.9,30.7,30.9
				c6.7,0,14.3-1.2,18.7-3L205,162.7z"/>
		</g>
	</g>
</g>
</svg>
