<?xml version="1.0" encoding="utf-8"?>
<!-- Generator: Adobe Illustrator 17.0.0, SVG Export Plug-In . SVG Version: 6.00 Build 0)  -->
<!DOCTYPE svg PUBLIC "-//W3C//DTD SVG 1.1//EN" "http://www.w3.org/Graphics/SVG/1.1/DTD/svg11.dtd" [
	<!ENTITY ns_flows "http://ns.adobe.com/Flows/1.0/">
	<!ENTITY ns_extend "http://ns.adobe.com/Extensibility/1.0/">
	<!ENTITY ns_ai "http://ns.adobe.com/AdobeIllustrator/10.0/">
	<!ENTITY ns_graphs "http://ns.adobe.com/Graphs/1.0/">
]>
<svg version="1.1" id="Layer_2" xmlns:x="&ns_extend;" xmlns:i="&ns_ai;" xmlns:graph="&ns_graphs;"
	 xmlns="http://www.w3.org/2000/svg" xmlns:xlink="http://www.w3.org/1999/xlink" xmlns:a="http://ns.adobe.com/AdobeSVGViewerExtensions/3.0/"
	 x="0px" y="0px" width="256px" height="256px" viewBox="0 0 256 256" style="enable-background:new 0 0 256 256;"
	 xml:space="preserve">
<style type="text/css">
	.st0{fill:#FFFFFF;}
	.st1{fill:#54B948;}
	.st2{fill:#1D8C8E;}
	.st3{fill:#14DEAC;}
	.st4{fill:#1466AC;}
	.st5{fill:#757575;}
	.st6{fill:#B69442;}
	.st7{fill:#1A234D;}
	.st8{fill:#AA0629;}
	.st9{fill:#FF4A49;}
	.st10{fill:#3C6643;}
	.st11{fill:none;stroke:#FF4A49;stroke-miterlimit:10;}
	.st12{fill:#E70084;}
	.st13{fill:#508A72;}
	.st14{fill:#01A663;}
	.st15{fill:#015297;}
	.st16{fill:#B0B0B0;}
	.st17{fill:#E1062F;}
	.st18{fill:#D80000;stroke:#FFFFFF;stroke-width:2;stroke-miterlimit:10;}
	.st19{fill:#D80000;}
	.st20{fill:#8ABE23;}
	.st21{fill:#1D1D1B;}
	.st22{fill:#FEFEFE;}
	.st23{fill:#FF0000;}
	.st24{fill:#FF1D1B;}
	.st25{fill:#6DB2DE;}
	.st26{fill:#FF1D25;}
	.st27{fill:#FFDA00;}
	.st28{fill:#024D9E;}
	.st29{fill:#6B97C6;}
	.st30{fill:#000078;}
	.st31{fill:none;stroke:#FFFFFF;stroke-width:6;stroke-linecap:round;stroke-miterlimit:10;}
	.st32{fill:#FFEE34;}
	.st33{fill:none;stroke:#000000;stroke-width:4;stroke-miterlimit:10;}
	.st34{fill:#D11E24;}
	.st35{fill:#D71F26;}
	.st36{fill:#020000;}
	.st37{fill:none;stroke:#000000;stroke-width:2;stroke-miterlimit:10;}
	.st38{clip-path:url(#SVGID_2_);}
	.st39{fill:#00317D;}
	.st40{fill:#00737D;}
	.st41{fill:#ED1C24;}
	.st42{fill:#2678C7;}
	.st43{fill:#1853A6;}
	.st44{fill:#CB0000;}
	.st45{fill:#E61C21;}
	.st46{clip-path:url(#SVGID_4_);}
	.st47{fill:#6BDEF1;}
	.st48{clip-path:url(#SVGID_6_);}
	.st49{fill:#0165B2;}
	.st50{fill:#DE1134;}
	.st51{fill:#00A668;}
	.st52{fill:#FFE60B;}
	.st53{fill:#843D00;stroke:#000000;stroke-miterlimit:10;}
	.st54{fill:#EC1F27;}
	.st55{fill:#162984;}
	.st56{fill:#1853A6;stroke:#1853A6;stroke-miterlimit:10;}
	.st57{fill:none;}
	.st58{fill:none;stroke:#1853A6;stroke-width:0.9;stroke-miterlimit:10;}
	.st59{fill:#1853A6;stroke:#1853A6;stroke-width:0.9;stroke-miterlimit:10;}
	.st60{fill:#B5985A;}
	.st61{fill:#FFE60B;stroke:#000000;stroke-width:6;stroke-miterlimit:10;}
	.st62{fill:#008DCD;}
	.st63{fill:#009939;}
	.st64{fill:#2E3092;}
	.st65{fill:#EE3224;}
	.st66{fill:#005BAB;}
	.st67{fill:#D30027;}
	.st68{fill:#FFFFFF;stroke:#D30027;stroke-width:10;stroke-miterlimit:10;}
	.st69{fill:#E81C2F;}
	.st70{fill:#DC032B;}
	.st71{fill:#F25448;}
	.st72{fill:#FFFFFF;stroke:#F25448;stroke-width:6;stroke-miterlimit:10;}
	.st73{fill:#05A08D;}
	.st74{fill:#1875CE;}
	.st75{fill:#D72427;}
	.st76{fill:#004993;}
	.st77{fill:#007BB0;}
	.st78{fill:#FFEB00;}
	.st79{fill:#664A9E;}
	.st80{fill:#F4C701;}
	.st81{fill:#EBBE12;}
	.st82{fill:#44B3DB;}
	.st83{fill:#F6FF82;}
	.st84{fill:#FFC918;}
	.st85{fill:#0361A4;}
	.st86{fill:#009FE3;}
	.st87{fill:#E30217;}
	.st88{fill:#FDEA00;}
	.st89{fill:#E91B00;}
	.st90{fill:#2B2763;}
	.st91{fill:#EE1A22;}
	.st92{fill:#F1AA25;}
	.st93{fill:#93000C;}
	.st94{fill:none;stroke:#1D1D1B;stroke-width:4;}
	.st95{fill:#3E4E70;}
	.st96{fill:#096CB6;}
	.st97{fill:#0559A8;}
	.st98{fill:#F9ED1A;}
	.st99{fill:#949494;}
	.st100{fill:#FFD033;}
	.st101{fill:#243D89;}
	.st102{fill:#F8C936;}
	.st103{fill:#D44128;}
	.st104{fill:#ED1B23;}
	.st105{fill:#0C529C;}
	.st106{fill:#E31E24;}
	.st107{fill:#0263B0;}
	.st108{fill:#007AC2;}
	.st109{fill:#EF3D1F;}
	.st110{fill:#EE1C24;}
	.st111{fill:#FDEA00;stroke:#000000;stroke-width:0.6509;}
	.st112{fill:#FDEA00;stroke:#000000;stroke-width:0.6979;}
	.st113{fill:#46A0BE;}
	.st114{fill:#005FA5;}
	.st115{fill:#00904C;}
	.st116{fill:#E21F26;}
	.st117{fill:#FD0001;}
	.st118{fill:#0066B3;}
	.st119{fill:#E20019;}
	.st120{fill:#0171BC;}
	.st121{fill:#01305D;}
	.st122{fill:#1B7EE9;}
	.st123{fill:#BA0D0B;}
	.st124{fill:none;stroke:#000000;stroke-width:3;stroke-miterlimit:10;}
	.st125{fill:#FFFFFF;stroke:#000000;stroke-width:0.8836;stroke-miterlimit:10;}
	.st126{fill:#FFFFFF;stroke:#000000;stroke-width:0.9759;stroke-miterlimit:10;}
	.st127{fill:#0053A1;}
	.st128{fill:#FFE100;}
	.st129{fill:#FFE500;}
	.st130{fill:none;stroke:#FFE500;stroke-width:2;stroke-miterlimit:10;}
	.st131{fill:#01AFF3;}
	.st132{fill:#ED1B28;}
	.st133{fill:#E2000A;}
</style>
<g>
	<ellipse cx="128.3" cy="127.6" rx="57.1" ry="58.1"/>
	<g>
		<path class="st111" d="M186.6,73.5c-37.9-11.8-78.3-11.8-116.2,0c0-14.9,0-29.8,0-44.7c37.9-11.8,78.3-11.8,116.2,0
			C186.6,43.7,186.6,58.6,186.6,73.5z"/>
		<g>
			<path d="M95.9,39.8C95.8,39.8,95.8,39.8,95.9,39.8c-1.5,0.9-2.9,1.8-4.4,2.8c-0.3-1.5-0.6-2.9-1-4.4c2.1-1.3,4.2-2.7,6.2-3.9
				c1.6-0.3,3.3-0.5,4.9-0.7c0,7.4,0,14.8,0,22.2c-2,0.3-3.9,0.6-5.9,0.9C95.9,50.9,95.9,45.3,95.9,39.8z"/>
			<path d="M110.2,50.2c0.7,0,1.2,0,2.2-0.2c1.5-0.2,3.1-0.6,4.2-1.3c1.4-0.9,2.3-2.2,2.7-3.5c0,0,0,0-0.1,0
				c-0.9,0.9-2.2,1.4-4.1,1.5c-3.6,0.2-7-1.8-7-6.4c0-4.4,3.6-8.5,8.6-8.8c6.2-0.4,8.8,4.4,8.8,9.3c0,4.5-1.4,7.9-3.9,10.2
				c-2.3,2.1-5.4,3.3-9.3,3.7c-0.8,0.1-1.6,0.1-2.2,0.1C110.2,53.3,110.2,51.8,110.2,50.2z M116.6,36c-1.4,0.1-2.4,1.4-2.4,3.4
				c0,1.6,0.8,3,2.6,2.9c1.2-0.1,1.9-0.6,2.2-1.2c0.2-0.3,0.2-0.7,0.2-1.4C119.3,38,118.6,35.9,116.6,36C116.6,36,116.6,36,116.6,36
				z"/>
			<path d="M136.3,54.3c-6.3-0.2-8.7-5.7-8.7-11.6c0-6,2.5-11.6,8.7-11.3c6.4,0.3,8.6,6.3,8.6,12C145,49.9,142.3,54.6,136.3,54.3
				C136.4,54.3,136.3,54.3,136.3,54.3z M136.4,49.7c1.6,0.1,2.5-2,2.5-6.7c0-4.7-0.9-6.9-2.5-6.9c-1.6-0.1-2.6,2-2.6,6.7
				C133.8,47.6,134.8,49.6,136.4,49.7C136.4,49.7,136.4,49.7,136.4,49.7z"/>
			<path d="M156.5,55.8c0-1.7,0-3.3,0-5c-3.2-0.5-6.3-0.8-9.5-1.1c0-1.3,0-2.7,0-4c2.5-4.2,5.1-8.3,7.6-12.3
				c2.5,0.3,5.1,0.7,7.6,1.2c0,4.2,0,8.4,0,12.6c0.8,0.1,1.6,0.3,2.4,0.4c0,1.5,0,3.1,0,4.6c-0.8-0.2-1.6-0.3-2.4-0.4
				c0,1.7,0,3.3,0,5C160.3,56.4,158.4,56.1,156.5,55.8z M156.5,46.2c0-1.3,0-2.5,0-3.8c0-1.4,0.1-2.9,0.2-4.4c0,0-0.1,0-0.1,0
				c-0.7,1.4-1.3,2.7-2.1,4.2c-0.6,1.1-1.2,2.3-1.9,3.4c0,0,0,0,0,0.1C153.8,45.9,155.2,46,156.5,46.2z"/>
		</g>
	</g>
	<g>
		<path class="st112" d="M247.6,217.1c-76.5,25.2-158.8,25.2-235.2,0c0-16,0-31.9,0-47.9c76.5,25.2,158.8,25.2,235.2,0
			C247.6,185.2,247.6,201.1,247.6,217.1z"/>
		<g>
			<path d="M22.7,184c2.1,0.6,4.3,1.3,6.4,1.8c0,6.4,0,12.8,0,19.1c3.1,0.9,6.1,1.7,9.2,2.4c0,1.8,0,3.7,0,5.5
				c-5.2-1.3-10.4-2.7-15.6-4.3C22.7,200.5,22.7,192.2,22.7,184z"/>
			<path d="M56.6,207.2c-2.9-0.6-5.8-1.2-8.7-1.8c0,1.5,0,3,0,4.5c3.2,0.7,6.5,1.4,9.7,2c0,1.8,0,3.6,0,5.4
				c-5.4-1.1-10.8-2.2-16.2-3.6c0-8.2,0-16.4,0-24.7c5.2,1.3,10.4,2.4,15.7,3.5c0,1.8,0,3.6,0,5.4c-3.1-0.6-6.1-1.3-9.2-1.9
				c0,1.3,0,2.6,0,4c2.9,0.6,5.8,1.3,8.7,1.8C56.6,203.6,56.6,205.4,56.6,207.2z"/>
			<path d="M67.3,219.1c-2.6-8.7-5.1-17.3-7.7-26.1c2.4,0.5,4.7,0.9,7.1,1.3c0.9,3.4,1.7,6.8,2.6,10.1c0.8,2.9,1.4,5.7,2,9
				c0,0,0,0,0.1,0c0.6-2.9,1.3-5.7,2-8.2c0.9-3.1,1.8-6.3,2.6-9.4c2.3,0.3,4.6,0.6,6.9,0.9c-2.7,7.9-5.3,15.8-8,23.6
				C72.5,219.9,69.9,219.5,67.3,219.1z"/>
			<path d="M101,213.3c-2.9-0.2-5.9-0.5-8.8-0.8c0,1.5,0,3,0,4.5c3.3,0.3,6.6,0.6,9.8,0.9c0,1.8,0,3.6,0,5.4
				c-5.5-0.4-10.9-0.9-16.4-1.6c0-8.2,0-16.4,0-24.7c5.3,0.6,10.6,1.1,15.9,1.5c0,1.8,0,3.6,0,5.4c-3.1-0.2-6.2-0.5-9.3-0.8
				c0,1.3,0,2.6,0,4c2.9,0.3,5.9,0.6,8.8,0.8C101,209.7,101,211.5,101,213.3z"/>
			<path d="M105.7,199.3c1.9-0.2,4.7-0.3,7.9-0.1c3.7,0.2,6.4,0.7,8.3,2.2c1.6,1.2,2.4,3,2.4,5.4c0,3.1-2.3,5.2-4.2,5.9
				c0,0,0,0.1,0,0.1c1.6,0.8,2.5,2.4,3.1,4.5c0.7,2.5,1.5,6.1,2,7.1c-2.2,0-4.5-0.1-6.7-0.1c-0.4-0.7-1-2.7-1.7-5.8
				c-0.7-3-1.6-3.6-3.6-3.7c-0.4,0-0.7,0-1.1,0c0,3.1,0,6.2,0,9.3c-2.2-0.1-4.3-0.2-6.5-0.4C105.7,215.5,105.7,207.4,105.7,199.3z
				 M112.2,209.9c0.6,0,1.1,0.1,1.7,0.1c2.5,0.1,3.9-1.1,3.9-2.9c0-1.8-1.2-2.9-3.4-3c-1.2-0.1-1.9,0-2.2,0
				C112.2,206.1,112.2,208,112.2,209.9z"/>
			<path d="M128.2,199.7c2.2,0,4.3,0,6.5,0c0,3.5,0,7,0,10.5c0,0,0,0,0.1,0c0.5-0.9,1.1-1.8,1.6-2.7c1.6-2.6,3.2-5.2,4.7-7.9
				c2.7-0.1,5.4-0.2,8.1-0.3c-2.6,3.6-5.2,7.2-7.8,10.8c2.7,4.6,5.4,9.3,8.1,13.8c-2.5,0.1-5.1,0.2-7.6,0.3
				c-1.7-3.3-3.4-6.6-5.2-9.9c-0.7,0.9-1.3,1.7-2,2.6c0,2.5,0,5,0,7.5c-2.2,0-4.3,0-6.5,0C128.2,216.1,128.2,207.9,128.2,199.7z"/>
			<path d="M158.2,198.6c0,4.7,0,9.3,0,14c0,3.7,1.3,5.7,3.9,5.5c2.6-0.2,3.9-2.3,3.9-6.2c0-4.7,0-9.3,0-14c2.2-0.2,4.4-0.4,6.6-0.7
				c0,4.5,0,9.1,0,13.6c0,7.6-3.8,11.9-10.6,12.5c-6.7,0.6-10.3-3-10.3-10.9c0-4.5,0-9,0-13.5C153.8,198.9,156,198.8,158.2,198.6z"
				/>
			<path d="M177.4,214.8c1.5,0.6,3.9,1,6.3,0.7c2.2-0.3,3.3-1.3,3.3-2.5c0-1.2-1.1-1.7-3.8-2.2c-4.1-0.9-6.9-2.9-6.9-6.5
				c0-4.4,3.7-8.2,9.8-9.1c2.9-0.4,5-0.2,6.6,0.2c-0.5,1.8-0.9,3.7-1.4,5.5c-1-0.3-2.8-0.7-5.3-0.3c-2,0.3-3.1,1.2-3.1,2.3
				c0,1.2,1.3,1.5,4.4,2.2c4.4,1,6.3,3,6.3,6.4c0,4.2-3.2,8.5-10.4,9.5c-2.9,0.4-5.8,0-7.2-0.5C176.6,218.5,177,216.6,177.4,214.8z"
				/>
			<path d="M212.4,205.2c-2.9,0.6-5.8,1.3-8.7,1.8c0,1.5,0,3,0,4.5c3.2-0.7,6.5-1.3,9.7-2.1c0,1.8,0,3.6,0,5.4
				c-5.4,1.2-10.8,2.3-16.2,3.3c0-8.2,0-16.4,0-24.7c5.3-1,10.5-2,15.7-3.2c0,1.8,0,3.6,0,5.4c-3.1,0.7-6.1,1.3-9.2,2
				c0,1.3,0,2.6,0,4c2.9-0.6,5.8-1.2,8.7-1.8C212.4,201.7,212.4,203.4,212.4,205.2z"/>
			<path d="M217,214.1c0-8.2,0-16.4,0-24.7c2.5-0.6,5.1-1.2,7.6-1.9c1.3,2.2,2.5,4.4,3.8,6.6c1.3,2.1,2.7,5,3.8,7.6c0,0,0.1,0,0.1,0
				c-0.4-3.2-0.5-6.6-0.5-10.2c0-2,0-3.9,0-5.9c1.9-0.5,3.9-1.1,5.8-1.7c0,8.2,0,16.4,0,24.7c-2.2,0.7-4.5,1.3-6.7,1.9
				c-1.4-2.4-2.7-4.7-4.1-7.1c-1.3-2.2-2.9-5.2-4-7.8c0,0-0.1,0-0.1,0c0.2,3.3,0.2,7,0.2,11c0,2,0,4.1,0,6.1
				C221,213.2,219,213.7,217,214.1z"/>
		</g>
	</g>
	<g>
		<g>
			<g>
				<path class="st21" d="M35.2,186.5c-0.7,0-1.2-0.4-1.5-1.2l0-0.1c-0.3-0.4-0.7-0.9-1-1.5l-0.5-0.3c-3-1.9-4.4-4.7-4.1-8.2
					c0.3-3.5,0.2-6.8-0.3-10c-0.4-2.4,0.5-3.9,1.9-5.4c1.8-1.8,2.8-4.3,3.6-6.6l0.3-0.9c0-0.1-0.1-0.3-0.1-0.4
					c-1-3.7-1.2-7.5-0.7-11.1c-3.1,2-6.6,3.1-10.3,3.4c-10,0.6-18.5-5.9-20-15c-1.5-9.4,0.8-17.8,6.9-24.4c3.3-3.6,7.6-4.7,11.9-3.1
					c0.7,0.2,1.3,0.5,1.9,0.8l0.8,0c2.1,0,4.3,1.7,5.4,3.9c0.1,0.2,0.2,0.4,0.2,0.5c0.3,0.6,0.5,1.2,0.9,1.7
					c0.4,0.4,0.6,0.5,0.7,0.5c0.1,0,0.3-0.2,0.5-0.6l1-1.8l1,1.8c0.9,1.6,0.5,3.2-0.8,4.2c-0.1,0-0.1,0.1-0.2,0.1c0,0,0,0.1,0,0.1
					c0.5,1.2,0.1,2-0.1,2.4c-0.2,0.3-0.8,0.9-1.9,1c0,0,0,0,0,0c0.3,0.2,0.9,0.5,1.2,1.2l0.4,0.9l-0.9,0.5c-0.5,0.3-1,0.4-1.4,0.4
					c0,0.5-0.1,1-0.4,1.5c-0.4,0.8-0.8,1.4-1.4,1.9c-0.2,0.2-0.5,0.4-1,0.5c-0.8,1.5-2,2.5-3.4,3.5c-0.3,0.2-0.6,0.5-0.7,0.7
					c1.9,0.2,2.4,1.9,2.7,2.5c0.4,1.2,0.1,2.3-0.7,3c-0.1,0.7-0.7,1.1-1,1.2c-0.4,0.2-0.7,0.3-1.1,0.3c-0.9,0-1.5-0.5-2-0.8
					c-1.7-1.5-2.6-3.8-2.4-6c0.1-1.2,0.6-2.3,1.3-3.3c-0.2-0.1-0.3-0.2-0.5-0.3c-0.9-0.7-1.5-1.4-1.9-2.3c-0.5-1.2-0.5-2.4,0.1-3.4
					c0.6-1,1.7-1.5,3-1.5l0.1,0c0.4,0,0.7,0.1,1,0.2c-0.1-0.5-0.1-1.1,0.1-1.7c0.1-0.4,0.3-0.8,0.5-1.1c-1.4-0.8-1.7-2.3-1.9-3.6
					l-0.3-2.9l2.2,1.9c0.4,0.4,0.7,0.5,0.8,0.6c0.1-0.2,0.3-0.5,0.5-1.3l0.2-0.6c-0.7-1-1.6-1.9-2.5-2.4c-3.7-1.8-6.3-1.3-8.9,1.7
					C7,113.7,5.2,121,7.1,129.2c1.3,5.7,6.8,9.9,12.8,9.9c2,0,3.9-0.5,5.5-1.4c3.2-1.9,5.5-4.9,6.5-8.9c1.2-4.6,3.2-7.9,6.4-10.6
					c0.7-0.6,1.3-1.2,2-1.8c0.8-0.7,1.6-1.5,2.4-2.2c1.9-1.6,2.9-3.7,3-6.7c0-0.6,0-1.2,0-1.8c0-0.2,0-0.3,0-0.5
					c-0.2,0.1-0.4,0.2-0.6,0.2l-2.2,0.6l0.9-2.5c0.1-0.2,0.1-0.4,0.2-0.6l0.1-0.3c0.1-0.3,0.2-0.6,0.2-0.8c0-0.1-0.1-0.1-0.1-0.2
					c-0.8,0.1-1.5-0.1-2-0.7c-1.2-1.3-0.7-2.9-0.5-3.6c0,0,0,0,0,0c-0.5,0.1-0.9,0.1-1.2,0.1c-0.5,0-1.2,0-1.8-0.3l-3-1.1l3-1
					c2.2-0.8,2.7-2.2,2.6-4.9L41,90.5c-0.9,1.1-1.8,1.4-2.5,1.4c-0.8,0-1.5-0.3-2.2-0.9c-1.4-1.3-1.8-3-1.3-5.2
					c0.2-0.8,0.5-1.5,0.8-2.2h-1.5l0.8-1.8c0.5-1.1,1-2.1,1.3-3.1c-0.1,0-0.1,0-0.2,0c-0.1,0-0.2,0-0.3,0c-0.5-0.1-1.5-0.2-1.9-1.2
					c-0.3-0.8,0-1.5,0.9-2.1c0.1,0,0.1-0.1,0.2-0.1c0.5-0.4,0.8-0.9,1-1.3c-0.8-0.3-1.3-1.1-1.5-1.6l-0.1-0.1
					c-0.6-1.3-0.7-2.7-0.2-4.4c0.9-2.9,2.2-5.3,4.1-7l-0.4-0.1l0.9-1.2c1.5-2.2,3.6-3.3,6.1-3.3c1.1,0,2.2,0.2,3.3,0.7l0.1,0.1
					c0.9-0.5,1.9-0.8,3-0.9c1.1-0.1,2.1,0,3,0.4l0-0.4l1.3,0.2c1,0.2,2.2,0.5,2.7,1.5c0.6,1,0.1,2.2,0,2.6l0,0
					c0.8,0.2,1.5,0.2,2.2,0c0.9-0.3,1.9,0,2.6,0.8c0.4,0.4,0.8,0.5,1.6,0.6c2.8,0.4,4.8,0.9,6.7,1.7c0.8,0.3,1.3,0.8,1.5,1.4
					l0.8-0.2l-0.7,1.6c0,0.2-0.1,0.3-0.2,0.5c0,0,0,0,0,0.1l0.1,0.1c0.3,0.6,0.4,1.2,0.4,1.8l0.6,0.3l-0.7,0.1
					c-0.1,0.4-0.2,0.7-0.3,1.1c-0.5,1-1.5,1.7-2.6,2c-0.8,0.2-1.6,0.2-2.3,0.2c-0.3,0-0.5,0-0.8,0l-0.1,0c-0.1,0-0.2,0-0.3,0
					c-0.1,0-0.1,0-0.2,0l-0.8,0.8c-0.1,0.3-0.2,0.7-0.4,1.1c0,0,0,0.1,0,0.1c0,0.3,0,0.6,0,0.9c0,0.2-0.1,0.6,0,0.8
					c0.1-0.1,0.2-0.2,0.3-0.2c0.3-0.2,0.6-0.4,1-0.6l0.2-0.1c0.3-0.1,0.8-0.3,1.3-0.3c0.1,0,0.2,0,0.4-0.1c0.2,0,0.5-0.1,0.8-0.1
					c1,0,1.8,0.6,2.1,1.6c0.3,0.9,0.2,1.8-0.3,2.6c-0.4,0.8-1.2,1.3-2,1.5c0,0-0.1,0-0.1,0.1C69,80.8,68.5,81,68,81l-0.1,0.2
					c0,0.1-0.1,0.3-0.1,0.4c1.1,0.7,2.3,0.5,3.2-0.6l0.8-0.9l0.8,0.9c0.5,0.5,0.5,1,0.4,1.3C73,82.7,73,82.8,73,82.9
					c0.1,0,0.2,0.1,0.4,0.2c1,0.3,1.7,1.1,2.2,2.2c0.5,1.1,0.5,2.4,0.1,3.4c0.1,0.1,0.2,0.2,0.3,0.3c1.6-1.4,3.6-1.9,5.3-2.4
					c0.9-0.3,1.7-1,2.3-1.8c1.1-1.3,2.4-2.4,3.9-3.3c1.4-0.8,2.4-1.6,3.1-2.5c0.8-1.1,1.8-1.7,3.1-1.7c0.6,0,1.3-0.3,2-0.6
					c0.2-0.1,0.4-0.2,0.6-0.3c0.1,0,0.1-0.1,0.2-0.1c0.4-0.3,0.8-0.6,1.5-0.6c0.4,0,0.9,0.1,1.4,0.7c2.9,0.2,4,1.6,4.1,4.9l0.2,3.4
					L103,84c0,0.3,0,0.6,0,1l0,0l0.4,0.2l-0.4,0.1l-0.2,2.3l-1.3-1.5c0,0,0,0,0,0c0.1,0.3,0.5,1.3,0,2c-0.2,0.3-0.6,0.7-1.5,0.7
					c-0.2,0-0.3,0-0.5,0c-1-0.1-1.7-0.2-2.2-0.3L97,88.7c-0.7,0.5-1.4,0.9-2,1l-0.7,0.4c-0.8,0.5-1.4,1-1.8,1.5
					c-0.6,0.8-1.2,0.9-1.7,0.9c-0.5,0-0.9-0.2-1.3-0.5c-2,3.2-4.3,5.2-7.1,6.5c-0.9,0.4-1.9,0.9-2.8,1.3c-0.1,0-0.2,0.1-0.3,0.1
					c0.1,0.3,0.1,0.6,0.1,0.9c0,0.1,0,0.1,0,0.2c0.3,3.5,0.3,8.6-4.2,12.3c-1.2,1-2,2.2-2.5,3.7c-1.1,3.3-3.5,6.1-7.3,8.8
					c-1.3,0.9-2.7,1.8-4,2.6c-2.8,1.7-4.6,4.1-5.6,7.5c-0.6,2-0.9,4-1.2,5.7c-0.1,0.7-0.3,1.4-0.6,2.1c-1.5,2.6-2.7,5.5-3.8,8.4
					c-1.2,3.1-3.2,5.8-5.9,8.1l-0.7,0.6c-1.7,1.5-3.5,3-5.5,4.1c0,1.2-0.1,2.4-0.2,3.5c-0.1,2-0.3,3.8-0.1,5.7
					c0,0.6,0.1,1.1,0.2,1.6c0,0.1,0,0.1,0,0.1c0,0,0.1,0,0.2,0c1.8,0.2,3.3,1,4.9,2c0.6,0.4,1,1,1.2,1.7c0.2,0.9,0,2-0.6,2.9
					l-1.2,1.8l-0.2-0.6c-0.2,0.1-0.3,0.1-0.4,0.1c-0.5,0-0.9-0.3-1.2-0.5c0,0-0.1-0.1-0.1-0.1c-0.4,0.1-0.7,0.1-1,0.1
					c-0.3,0.3-0.8,0.6-1.7,0.5c-0.3,0-0.6-0.1-0.9-0.2c0,0.3,0,0.7-0.1,1.1c0,0.1,0,0.1,0,0.2c-0.1,0.4-0.2,1.4-1.3,1.7
					C35.4,186.5,35.3,186.5,35.2,186.5z M34.6,180.1l-0.1,0.8c-0.1,0.4,0,0.8,0.1,1.2c0-0.2,0-0.3,0.1-0.5
					C34.8,181.2,34.8,180.6,34.6,180.1C34.6,180.1,34.6,180.1,34.6,180.1z M39.9,178.7l0,1.4c0,0.4,0,0.6,0.1,0.7
					c0.1,0,0.1,0,0.2-0.1c0.2-0.1,0.5-0.1,0.7-0.1c-0.1-0.2-0.2-0.5-0.3-0.7l0.6-0.7C40.7,179.1,40.3,178.9,39.9,178.7z M33.7,176.5
					c1.9,0.4,3.1,1.7,3.6,3.9c0.1-0.3,0.2-0.7,0.6-1l0.9-1.1c-0.3-0.1-0.6-0.1-0.8-0.2c-0.7-0.1-1.7-0.3-2.2-1.6
					c-0.3-0.7-0.3-1.5-0.4-2.1c-0.1-2.1,0-4.2,0.1-6.1c0.1-1.1,0.2-2.3,0.2-3.4c0-0.9,0.4-1.5,1.1-1.9c1.9-1.1,3.5-2.4,5.3-3.9
					l0.7-0.6c2.4-2,4.2-4.4,5.3-7.2c1.2-2.9,2.4-5.9,3.9-8.7c0.2-0.3,0.3-0.8,0.4-1.3c0.3-1.8,0.6-3.9,1.2-6
					c1.1-3.9,3.3-6.8,6.6-8.8c1.3-0.8,2.7-1.7,3.9-2.5c3.4-2.4,5.5-4.8,6.4-7.6c0.7-2,1.7-3.5,3.3-4.8c2.7-2.2,3.8-5.2,3.4-9.7
					c-0.1,0.1-0.2,0.2-0.3,0.3c-0.7,0.7-1.8,1.6-3.6,1.6l-2.5,0l1.1-1.3c-0.7-0.1-1.3-0.2-1.9-0.3c-2-0.1-4,0-6.8,0.5
					c-2.2,0.4-4.2,0-5.7-1.1l1-2c1.1,0.4,2.2,0.5,3.5,0.4l-0.8-1.6c-0.8-0.6-1.3-1.4-1.5-2l-1.2,1.1c-0.9,0.8-1.8,1.2-2.9,1.1
					l-1.3-0.1l0.2-1.3c0-0.1,0-0.2,0.1-0.3c-1.3,0.5-2.3,1.4-3,2.7l-0.3,0.5l0.6,0.1l-0.7,1.3c-0.5,0.9-1.3,1.4-2.3,1.6
					c-0.9,0.1-1.1,0.3-1.1,1.3c0,0.4,0,0.8,0,1.3c0,0.6,0,1.3,0,1.9c-0.1,3.7-1.4,6.5-3.8,8.5c-0.8,0.6-1.5,1.3-2.3,2.1
					c-0.7,0.6-1.4,1.3-2.1,1.9c-2.7,2.3-4.5,5.3-5.6,9.4c-1.2,4.6-3.8,8.1-7.6,10.3c-2,1.1-4.3,1.7-6.7,1.7c-2.2,0-4.4-0.5-6.3-1.4
					c2.6,1.2,5.6,1.8,8.8,1.6c3.2-0.2,6.2-1.1,9-2.8l-0.7-0.5l0.9-1c1-1.1,1.6-2.4,2.3-3.7c0.9-1.8,1.9-3.7,3.6-5.1l1.8,1.4
					c-0.2,0.4-0.4,0.8-0.6,1.2c-0.1,0.2-0.2,0.3-0.3,0.5c-0.3,0.5-0.6,1-0.8,1.6c-2.8,6-3.4,11.9-1.7,18c0.2,0.9,0.5,2,0.6,3.2l0,0
					l0,0.2c0,0.5,0.1,1.1,0.1,1.7l-0.2,0l-0.2,1.9c-0.1,1.1-0.7,1.9-1.1,2.5l-0.2,0.2c-0.5,0.7-0.9,1.3-1,2
					c-0.4,1.6-1.8,2.8-3.5,2.7c0.4,3.1,0.5,6.3,0.2,9.7c-0.2,2.1,0.4,3.7,1.7,5c0.1-0.2,0.4-0.4,0.6-0.6l0.7-0.4
					c-0.6-0.2-1.9-0.6-2-2.5l-0.3-3.6l2.3,2.8c0.1,0.1,0.2,0.2,0.3,0.3C33.7,176.4,33.7,176.5,33.7,176.5z M31.5,161.2
					c-0.1,0.1-0.1,0.1-0.2,0.2c-0.6,0.6-1,1.2-1.2,1.8c0.5-0.1,0.8-0.5,1-1.1C31.3,161.7,31.4,161.5,31.5,161.2z M34.3,156.7
					c-0.1,0.2-0.2,0.5-0.3,0.7l0.6-0.8L34.3,156.7z M22.2,131.4c0.1,0.1,0.2,0.2,0.3,0.3c0,0,0,0,0,0c0.1-0.1,0.1-0.2,0.2-0.3
					C22.6,131.4,22.4,131.4,22.2,131.4z M23.4,124.1C23.4,124.1,23.4,124.1,23.4,124.1c-0.5,0.3-1,0.6-1.3,1
					c0.2-0.2,0.4-0.3,0.5-0.4C22.9,124.5,23.2,124.3,23.4,124.1z M27.2,120.3C27.3,120.3,27.3,120.3,27.2,120.3
					c0.2-0.1,0.3-0.3,0.4-0.5c0.1-0.1,0.1-0.2,0.1-0.4L27.2,120.3z M22.9,118.5c0,0.5-0.1,0.9-0.1,1.1l-0.1,0.3
					c0.3-0.1,0.5-0.2,0.7-0.4c0.2-0.2,0.4-0.4,0.5-0.6l-0.2-0.1C23.4,118.8,23.1,118.7,22.9,118.5z M24.8,115c0.7,0,1.3,0.4,1.6,1.3
					c0.4,0.9,0.2,2.1-0.2,3.1l1.5-0.6c-0.1-0.3-0.3-0.6-0.6-0.9l1-1.1c-0.3-0.4-0.4-0.8-0.6-1.2c-0.3-1.1,0-2.1,0.9-2.8
					c0.3-0.2,0.7-0.5,1.3-0.5c0.2,0,0.4,0,0.6,0.1c0-0.5,0.2-0.8,0.5-1.2c-0.7-0.1-1.4-0.5-2-1.2c-0.6-0.7-1-1.6-1.3-2.3
					c-0.1-0.2-0.1-0.3-0.2-0.5c-0.1-0.3-0.3-0.5-0.4-0.8l-1.1,0.4c0.9,1.4,1.5,3,1.5,4.3l-0.1,3.4l-2-2.8c-0.1-0.1-0.1-0.2-0.2-0.3
					c-0.2,0.3-0.6,0.6-0.9,0.8c0.3,0.2,0.8,0.5,1,1c0.2,0.7-0.2,1.3-0.4,1.6c0,0,0,0,0,0c0,0,0,0,0,0L24.8,115z M68.6,99.3
					c1.7,0,3.3,0.2,4.9,0.4l1.3,0.1l0.2,0.1c0.1,0,0.1,0.1,0.2,0.1c0,0,0,0,0.1-0.1c0.4-0.4,0.8-1,1.5-1.3c0.6-0.3,1.2-0.6,1.9-0.9
					c0.9-0.5,1.9-0.9,2.9-1.4c2.7-1.2,4.9-3.3,6.9-6.9l1-1.8l1,1.9c0.2,0.3,0.3,0.5,0.4,0.6c0.4-0.4,0.8-0.9,1.3-1.2
					c-0.2-0.4-0.2-0.9,0.1-1.5l0.6-1.3l1.1,1c0.5,0.4,0.6,0.4,0.7,0.4c-0.2-0.3-0.2-0.8,0-1.4l0.4-1.3l-2.2-1.6l2.7-0.5
					c0.6-0.1,1-0.2,1.3-0.1c0.1-0.2,0.2-0.4,0.3-0.6c-0.4-0.1-0.7-0.4-1.1-0.7l-1.8-1.7l2.4-0.4c0,0,0,0,0,0c0-0.2,0-0.4,0.1-0.6
					c-0.1,0-0.1,0.1-0.2,0.1c-0.8,0.4-1.7,0.8-2.8,0.8c-0.5,0-1,0.2-1.3,0.7c-1.2,1.6-2.7,2.6-3.8,3.2c-1.2,0.7-2.3,1.6-3.2,2.7
					c-0.8,1-1.9,2.2-3.5,2.6c-2,0.5-3.9,1.1-5.2,2.8l0,0v0.2c0,0,0,0.1,0,0.2l0.9,0.4L76.3,93c-0.9,1.1-3.1,1.5-4.3,1.5
					c-0.7,0-1.3-0.1-1.7-0.4c0.2,0.7,0.1,1.5-0.3,2.2L68.6,99.3z M62.5,99.1l-0.1,0.9c0.7-0.1,1.4-0.2,2.1-0.3
					c0.7-0.1,1.3-0.2,1.9-0.3c0.6-0.1,1.1-0.1,1.7-0.1l-0.3-3.4c-0.1-1.7-0.7-2.1-2.7-2.1c-0.1,0-0.3,0-0.5,0
					c-0.6,0-0.8,0.2-0.8,0.2c-0.3,0.4-0.4,1.6-0.3,3.5l0.1,2.2L62.5,99.1z M49.1,98.4l0.6,0.2c0,0.4,0,0.7,0.2,0.9l-0.5-3.8l1.5,0.2
					c0.2,0,0.4,0.1,0.6,0.2c1.3-1.3,2.8-2.1,4.7-2.4c0.1,0,0.1,0,0.2-0.1c0.2-0.1,0.5-0.1,0.8-0.1c0.5,0,1,0.2,1.4,0.6
					c0.3,0.4,0.4,0.8,0.4,1.1l0.6-0.1c0,0,0-0.1,0-0.1c0,0-0.1,0-0.1,0l-0.3-2.2c0.3-0.1,0.6-0.2,0.9-0.2c0.5,0,0.8,0.1,1.1,0.4
					c0.3-0.7,0.9-1.3,1.8-1.7c1.5-0.6,3.1-0.6,5,0.2c0.5,0.2,1,0.5,1.3,0.8c-0.3-1-1.1-1.4-2.7-1.9c-0.6-0.2-1.8-0.5-2.1-2.2
					L64,84.8l2.5,2.4c0.4,0.4,0.8,0.5,1.3,0.6c0.2,0.1,0.5,0.1,0.7,0.2c0.5,0.2,1.2,0.5,1.9,1.1c0,0,0-0.1,0-0.1
					c0-2.3,1.4-2.9,2.1-3.1c0.3-0.1,0.6-0.1,0.8-0.1c-0.1-0.2-0.3-0.4-0.6-0.5c-0.9-0.3-1.4-0.8-1.7-1.3c-1.4,0.6-3,0.5-4.4-0.4
					c-0.7-0.5-1-1.1-1-1.6c-0.4-0.1-0.7-0.5-0.8-1.1c0-0.1-0.1-0.2-0.1-0.2c-0.1,0-0.4-0.1-0.5-0.1c-0.2,0-0.3,0-0.5,0
					c-1.5-0.2-2.9-1.1-4-2.4l-0.2,1.2c0,0.2-0.1,0.5-0.4,0.8c-1,0.9-1.1,1.3-1.1,1.4s0.1,0.4,1.2,1.3c1.9,1.4,2.9,3,3.2,4.9
					c0.1,0.7,0.3,1.9-0.5,3l-2-0.9c0.3-1.6-0.3-2.8-2.1-4.1c-0.9-0.6-1.4-1.3-1.8-2c-0.5-0.9-0.6-1.9-0.3-2.9c0.3-1.1,1.1-2,2.3-2.6
					l1.3-0.7c-0.6-1-1-2.2-1-3.4l2.2-0.5l0.1,0.3c0.1,0.2,0.1,0.3,0.2,0.4c0.8,2,1.9,3.1,3.4,3.5c-0.6-0.8-0.6-1.8-0.5-2.6
					c0-0.2,0-0.4,0-0.6c0-0.4,0-1,0.4-1.5c0-0.1,0.1-0.3,0.1-0.5c0-0.2,0-0.4,0.1-0.6c-0.3,0.2-0.6,0.4-0.7,0.6l-2.2-0.3
					c-0.1-1.2,0.5-2.3,1.5-2.8c0.4-0.2,0.7-0.5,0.9-1c-0.3,0.5-1,1-1.5,1.2l-1.5,0.8l-0.2-1.7c0-0.2,0-0.5,0-0.6
					c-0.4-0.3-0.9-0.6-1.2-1.2L58.9,66l0.9-0.6c0.3-0.2,0.6-0.4,0.9-0.6c0,0,0,0,0.1,0L59,62.9c-0.6-0.1-1.1-0.2-1.6-0.3l-0.3-0.1
					c-1.2-0.3-2.2-0.8-3-1.7l-1.7-1.8l1.8-0.1c-0.6-0.4-1.4-0.6-2.3-0.5c-1.1,0.1-2,0.4-2.8,1c-1,0.7-2,1.6-3,2.4l-0.6,0.6l-1.7-1.5
					c0.6-0.9,1.3-1.7,2-2.3c-1.3-0.1-2.5,0.2-3.5,1l0.8,0.6l-1.1,1c-0.1,0.1-0.2,0.2-0.4,0.4c-2.3,1.5-3.9,3.9-4.8,7.1
					c-0.3,0.9-0.3,1.6-0.1,2.2c0.2-0.2,0.4-0.2,0.5-0.3l1.3-0.6l0.3,1.4c0.3,1.9-0.1,3.5-1.3,4.9c0.7,0,1.1,0.3,1.2,0.6
					c0.2,0.2,0.2,0.4,0.3,0.6l1.2-2l0.5,2.2c0.3,0,0.6,0.2,0.9,0.6c0.4,0.4,0.7,0.6,0.8,0.6c0.1,0,0.4-0.2,0.6-0.9
					c0.5-1.3,0.4-2.8,0.4-4.3l0-0.1c0-1.6,0.4-2.8,1.2-3.9l0.1-0.1c0.2-0.3,0.7-0.9,1.4-1.1l0.1-0.1l0.2,0c0.1-0.1,0.1-0.1,0.1-0.1
					c0,0,0-0.1-0.2-0.4c-0.3-0.6-0.4-1.2-0.2-1.8c0.2-0.7,0.7-1.3,1.3-1.6c1.3-0.8,2.7-1.5,4.1-2.1l0.3-0.1c0.3-0.2,0.7-0.3,1.3-0.3
					c0.6,0,1.1,0.2,1.6,0.7l1.8,1.7L54,64.5c-0.4,0.1-0.9,0.2-1.3,0.3c0,0,0.1,0.1,0.1,0.1c0.1,0.1,0.3,0.2,0.3,0.2
					c0.6,0.2,1,0.5,1.3,1c0.3,0.7,0.2,1.3,0,1.7c0,0.1,0,0.1,0,0.2l0.2,1.4l1.5,1.5L53.6,71c-0.3,0-0.7,0.1-1.1,0.2
					c-0.9,0.2-1.9,0.3-2.7,0.1l-0.4,1c-0.4,1-0.4,2-0.4,3c0,0.3,0,0.6,0,0.9c0,1.3-0.2,3.3-1.1,5.2c-0.7,1.5-2.3,2.3-4.1,2.3l0,0
					c-0.8,0-1.5-0.1-2.4-0.4c-0.8-0.3-1.5-0.7-2.1-1.3L39,82.7c-0.2,0.3-0.3,0.6-0.5,0.8c-0.5,0.9-1.1,1.8-1.3,2.8
					c-0.3,1.2-0.2,2.1,0.4,2.7c-0.1-0.4-0.2-0.9,0.1-1.6c0.4-1,1.5-1.7,2.7-1.7c0.5,0,1,0.1,1.5,0.4c1.1,0.6,1.7,1.7,1.8,3.2
					c0,0.7,0.1,1.6,0,2.6c0.9-1.5,1.5-3,1.1-4.7l2.2-0.7c0.9,2.5,0.8,4.6-0.4,6.6c-1,1.7-2,3.2-2.5,5c-0.3,0.9-0.2,1.1,0,1.3
					c0.2,0,0.5,0,0.8-0.1c0.2,0,0.4-0.1,0.6-0.1l0.4-0.1l-0.4-2l1.6,1.7l0.4-0.1c0.1-0.2,0.2-0.5,0.4-0.8l1.1,0.4l0.7-0.2L49.1,98.4
					z M40.4,88.1c-0.3,0-0.5,0.1-0.6,0.2c0,0,0.1,0.2,0.7,0.4l0.8,0.3c-0.1-0.5-0.3-0.7-0.5-0.8C40.7,88.1,40.5,88.1,40.4,88.1z
					 M99.3,82.4c0,0.6,0.1,0.6,0.9,0.7C99.9,82.8,99.6,82.6,99.3,82.4z M38,81c0.1,0,0.2,0,0.3,0.1l0.5,0.1
					c-0.2-0.4-0.3-0.8-0.4-1.2C38.3,80.3,38.2,80.6,38,81z M47.2,70.5c-1,1-1.3,2.3-1.2,4.1c0.1,1.7-0.1,3.3-0.8,4.8
					c-0.1,0.2-0.3,0.7-0.7,1.2c0.5-0.3,1-0.8,1.3-1.9c0.3-1,0.3-2,0.4-3.1c0-0.6,0.1-1.2,0.1-1.8l0-0.1c0.1-0.7,0.2-1.7,1.3-2.6
					l0.6-0.4C47.9,70.4,47.6,70.4,47.2,70.5L47.2,70.5z M99.4,78.8c0.2,0,0.5,0,0.7,0c-0.3-0.1-0.6-0.1-1-0.1c0,0,0.1,0.1,0.1,0.1
					C99.2,78.8,99.3,78.8,99.4,78.8z M67.3,78.1c0.4,0,0.7,0.2,0.9,0.4c0.2-0.1,0.4-0.2,0.7-0.3c0.2-0.1,0.4-0.2,0.6-0.4
					c0.1-0.2,0.2-0.5,0.1-0.7c-0.1,0-0.3,0-0.4,0.1c-0.2,0-0.4,0.1-0.6,0.1c-0.1,0-0.4,0.1-0.6,0.2l-0.2,0.1c-0.1,0-0.3,0.2-0.5,0.3
					c-0.3,0.2-0.6,0.4-1,0.6c0,0,0,0,0.1,0c0,0,0,0,0,0C66.6,78.3,67,78.1,67.3,78.1z M48.9,66.8c0,0,0,0.1,0,0.2
					c0.2,0.8,1.2,1.5,2,1.5l0.1,0c0.4,0,0.9-0.1,1.3-0.1c0-0.1-0.1-0.3-0.1-0.4c-0.2-0.3-0.6-0.6-1-0.9c-0.3-0.2-0.7-0.5-1.1-0.8
					C49.7,66.4,49.3,66.7,48.9,66.8z M63.4,66.6C63.4,66.6,63.5,66.6,63.4,66.6c0.3,0.3,0.5,0.6,0.5,1c0-0.1,0-0.1,0-0.2l0-0.1
					c0.1-0.5,0.3-1.3,1.1-1.9l1.4-0.9c-0.5-0.1-1.1-0.2-1.7-0.3c-0.4,0-0.7-0.1-1.1-0.2c0.2,0.5,0.1,1,0.1,1.5
					c0,0.3-0.1,0.6-0.2,0.8C63.5,66.4,63.4,66.5,63.4,66.6z M67.1,66.1c0.2,0,0.4,0.1,0.6,0.1c0-0.2,0-0.4,0-0.6
					c0.1-0.3,0.2-0.6,0.3-0.8c-0.4-0.1-0.9-0.2-1.3-0.3l0,1.6C66.9,66.1,67,66.1,67.1,66.1z M60.8,62.9l0.8,0c0.1,0,0.2,0,0.3,0
					c0,0,0,0,0,0c-0.1-0.1-0.2-0.2-0.3-0.2C61.3,62.8,61.1,62.9,60.8,62.9z"/>
			</g>
			<g>
				<path class="st21" d="M80.6,157.9c-0.7,0-1.4-0.3-2.1-0.9c-0.1-0.1-0.5-0.1-0.8-0.1c-2.6-0.1-5.2,0.2-7.7,0.7
					c-1,0.2-1.7,0.4-2.4,0.4c-0.9,0-1.5-0.3-2-0.8c-0.4,0.3-1,0.4-1.8,0.3c-1.3-0.2-2.3-0.8-2.9-1.7c-0.6-0.9-0.9-2.1-0.6-3.3
					c0.1-0.7,0.3-1.4,0.4-2c0.2-0.7,0.3-1.4,0.4-2.1c0.3-1.7,0-2.7-1.2-4.1l-0.2-0.3c-1.2-0.1-2.3-0.4-3.2-0.8
					c-0.3-0.1-0.7-0.2-1-0.3c-2.3-0.6-2.7-1.2-2.2-3.6c0.3-1.3,0.6-2.4,1-3.4c0.9-2.1,1.9-3.6,4.2-3.7c0,0,0-0.1,0-0.1
					c-0.3-1.1-0.2-2.3,0.4-3.3c0.5-0.9,1.3-1.5,2.2-1.8l0.8-0.2c1.8-0.4,3.7-0.9,5.7-1.1c4.3-0.3,6.9,2,7.2,6.2
					c0.2,2.9-0.3,5.7-0.9,8.4c-0.4,1.9-1,3.8-1.6,5.6l-0.3,1c0,0.1-0.1,0.3-0.1,0.4c0,0,0.1,0,0.1,0l0.5,0.2
					c0.8,0.3,1.6,0.4,2.7,0.4c0.6,0,1.2,0,1.8-0.1c0.6,0,1.2-0.1,1.7-0.1c0.8,0,1.5-0.3,1.9-1c1-1.4,2.4-2,4.2-1.8
					c1.4,0.2,2.6-0.2,4.4-1.2c0.5-0.3,1.2-0.5,1.8-0.5c1.7,0,3.3,1.2,3.9,2.9l0.5,1.5l-1.6,0c-0.4,0-0.5,0.1-0.6,0.1
					c0,0-0.1,0.1-0.1,0.5c-0.1,1.1-0.7,1.9-1.7,2.2c0,0.3,0,0.7-0.2,1c-0.4,0.8-1.1,0.9-1.3,0.9c-0.1,0-0.1,0-0.2,0
					c-0.6,1.6-1.7,1.8-2.3,1.8c-0.5,0-0.9-0.1-1.4-0.4c0,0,0,0,0,0c0,0-0.1,0.1-0.1,0.2c-0.9,0.9-1.8,1.7-2.7,2.5l-0.4,0.3
					C82.1,157.6,81.4,157.9,80.6,157.9z M79.9,155.1c0.1,0.1,0.2,0.1,0.2,0.2c0.1,0.1,0.3,0.3,0.5,0.3c0.1,0,0.3-0.1,0.7-0.4
					l0.4-0.3c0.9-0.8,1.8-1.5,2.5-2.3c0.3-0.3,0.7-0.8,1.3-0.9l1.6-1.2c0.2,0.2,0.3,0.2,0.3,0.2c0,0,0.1,0,0.3-0.2
					c0.2-0.2,0.4-0.3,0.6-0.4c-0.5-0.4-1.1-0.5-1.8-0.5l-0.3-0.9l0,0.4c-0.4,0.1-0.8,0.1-1.2,0.1c-1.9,0.2-2.9,0.3-3.7,1.6l-1.7-0.8
					c-0.4,0.1-0.8,0.2-1.2,0.2c-0.5,0-1.1,0-1.6,0.1c-0.7,0-1.3,0.1-2,0.1c-1.4,0-2.5-0.2-3.5-0.6l-0.4-0.2
					c-1.8-0.7-1.9-1.5-1.3-3.3l0.3-1.1c0.6-1.8,1.2-3.6,1.6-5.4c0.6-2.6,1.1-5.2,0.9-7.8c-0.2-3-1.8-4.4-4.8-4.1
					c-1.8,0.1-3.5,0.6-5.3,1l-0.8,0.2c-0.4,0.1-0.7,0.5-0.8,0.7c-0.3,0.4-0.3,1-0.2,1.5c0.1,0.3,0.3,0.7,0.4,1
					c0.1,0.2,0.2,0.4,0.3,0.6l0.8,2l-2.1-0.4c-0.5-0.1-1-0.1-1.3-0.1c-1,0-1.5,0.2-2.3,2.2c-0.4,0.9-0.6,1.9-0.9,3
					c0,0.2-0.1,0.5-0.1,0.7c0.2,0.1,0.5,0.1,0.7,0.2c0.4,0.1,0.8,0.2,1.2,0.4c0.8,0.3,1.9,0.6,3,0.6c0.8,0,1.5-0.2,2.2-0.5l1.4-0.6
					l0.8-2.8l0.6,2.2l0.5-0.2l-0.4,0.7l0.3,1.1c0.7,2.2,0.6,4.3-0.3,6.1c-0.2,0.5-0.5,1-0.7,1.4c-0.5,0.9-0.9,1.8-1.1,2.8l-1,0
					c-0.1,0.4-0.2,0.7-0.2,1.1c-0.1,0.5-0.1,1.1,0.2,1.6c0.3,0.5,0.9,0.7,1.3,0.7c-0.1-0.8,0.2-1.4,0.4-1.7l1.2-1.8l0.7,2
					c0.7,2,0.8,2,1.2,2c0,0,0,0,0,0c0.4,0,1.2-0.1,1.9-0.3c0.4-0.1,0.8-0.2,1.2-0.2c-0.7-0.2-1.3-0.6-1.7-1.3c0,0-0.3-0.2-0.4-0.3
					c-0.2-0.1-0.4-0.2-0.6-0.4l-2.6-2l3.4-0.1c1.3,0,2.3,0.5,3,1.4c0.1,0.1,0.1,0.1,0.1,0.1c0.1,0,0.2,0,0.3,0
					c0.8-0.2,1.6-0.3,2.5-0.4l0.2,0c0.9-0.2,1.9,0.1,2.7,0.8l2.5,2.3L79.9,155.1z M88,147.1c0.9,0.1,1.6,0.8,1.9,1.1
					c0.3,0.3,0.6,0.4,0.7,0.4c0.1,0,0.1,0,0.1,0c0,0,0,0,0-0.1c0.1-1.2,0.5-1.8,1-2.2c-0.6-0.4-1.2-0.4-1.7-0.2
					C89.5,146.4,88.8,146.8,88,147.1z M62.6,143.9c0.4,0.6,0.6,1.2,0.8,1.9c0.2-0.8,0.3-1.6,0.2-2.6C63.3,143.5,63,143.7,62.6,143.9
					z"/>
			</g>
			<g>
				<path class="st21" d="M86.5,121.6c-1.1,0-2.2-0.5-3-1.5l-0.1-0.1c-0.5-0.6-0.7-0.7-1-0.7c-0.8,0-1.3-0.5-1.8-0.9l-0.1-0.1
					c-1.3-1-2.7-2-4.3-3l-0.1,0c-0.3-0.1-0.9-0.5-1-1.2c0-0.3,0-0.9,0.6-1.4c1.5-1.4,1.8-3.3,1.9-5.9c0-0.2,0-0.4,0.1-0.6l0.2-2.2
					l3.2,2.1c1.2,0.8,2.3,1.5,3.4,2.2c0.9,0.6,1.9,1.1,3,1.2c-0.2-2,1.5-4.1,3.4-5c0.3-0.1,0.3-0.2,0.4-0.5c0.2-1.9,1.8-3.3,3.7-3.3
					c0.4,0,0.8,0.1,1.1,0.2c0.4,0.1,1.3,0.4,1.4,1.3c0.1,0.4-0.1,0.9-0.4,1.2c0.4,0.4,0.7,0.9,0.8,1.5c0.2,1.1-0.1,2.3-0.8,3.5
					c0.2,0.1,0.4,0.3,0.6,0.5l1.2,1.3l-1.7,0.6c-1.1,0.4-1,0.7-1,1.2c0,0.2,0.2,1-0.4,1.6c-0.4,0.5-0.6,1.2-0.7,2
					c-0.1,0.5-0.2,1-0.3,1.5c-0.4,1.3-1.3,2.2-2,2.9c-0.4,0.4-0.7,0.8-1,1.2c-0.6,0.8-1.8,1-2.4,0.4c-0.2-0.2-0.3-0.2-0.4-0.2
					c-0.2,0-0.5,0.1-0.8,0.2C87.7,121.4,87.2,121.6,86.5,121.6L86.5,121.6z M84.7,118c0.1,0.1,0.3,0.3,0.4,0.4l0.1,0.1
					c0.3,0.3,0.8,0.8,1.3,0.8v1.2l0-1.2c0.2,0,0.5-0.1,0.8-0.2c0.5-0.2,1-0.4,1.6-0.4c0.5,0,0.9,0.1,1.3,0.4c0.3-0.4,0.6-0.7,0.9-1
					c0.7-0.7,1.2-1.2,1.5-2c0.1-0.3,0.2-0.7,0.3-1.2c0.2-0.9,0.3-1.9,1-2.9c-0.1-0.6-0.1-1.3,0.3-2c-0.4,0.1-0.7,0.1-1,0.1
					c-0.1,0-0.3,0-0.4,0c-0.5,0.2-0.7,0.5-0.6,1.1c0.1,0.8,0.1,1.7,0,2.5c0,1-0.7,1.8-1.7,2.1l-2.7,0.8l1.4-2.5
					c0.3-0.6,0.3-1.3,0.3-2.1c0-0.2,0-0.5,0-0.7c0-0.2,0-0.3,0-0.5c0,0,0,0,0,0.1c-0.5,0.7-1.3,0.7-1.6,0.7l-0.2,0
					c-1.8,0-3.2-0.8-4.4-1.5c-1.1-0.7-2.3-1.4-3.4-2.2c-0.1,2-0.6,4.1-2,5.8c1.5,0.9,2.8,1.8,4,2.8l0.1,0.1c0.1,0.1,0.2,0.2,0.4,0.3
					c-0.8-0.7-1.5-1.5-2.1-2.3l-0.4-0.4l1.5-1.7c0.6,0.4,1.2,1,1.7,1.5c0.1,0.1,0.2,0.2,0.3,0.2l0.1-2.1l1.1,0
					c1.2,0,2.5,0.2,3.8,1.1l-0.9,2l-3.7-0.7c0.9,0.8,1.8,1.3,2.9,1.2l0.3,2.3C86.2,118.1,85.4,118.1,84.7,118z M94.4,102.9
					c-0.4,0.2-0.8,0.6-0.9,1.2c-0.1,1.1-0.6,1.8-1.7,2.3c-1.4,0.7-2.2,2-2.1,2.6c0,0.1,0.1,0.2,0.1,0.4c0.2-0.5,0.4-0.9,0.8-1.3
					c1-1,2.5-1.2,4.3-0.6c0.2-0.3,0.4-0.6,0.5-0.8c-0.5,0.2-1.1,0.2-1.8,0.1l0-2.2c0.7-0.2,0.7-0.4,0.7-0.8
					C94.2,103.4,94.3,103.2,94.4,102.9z"/>
			</g>
			<g>
				<path class="st21" d="M67,76.9l-0.1,0c-0.2,0-0.3,0-0.5,0c-0.2,0-0.3,0-0.4,0c-0.2,0-0.4,0-0.5,0c-0.8,0-1.2-0.4-1.4-0.6
					c-0.2-0.3-0.5-0.8-0.3-1.7c0-0.1,0-0.2,0-0.3c0-0.5,0.1-2,1.7-2.3l0.3,0c1,0,3.4,1.6,3.5,2.9c0,1.2-0.7,1.9-2,2.1L67,76.9z"/>
			</g>
			<g>
				<path class="st21" d="M71,77.1c-0.6,0-1.3-0.3-1.6-0.8c-0.2-0.4-0.3-0.9-0.1-1.3c0.4-0.8,1.1-1.1,1.6-1.4
					c0.2-0.1,0.4-0.2,0.5-0.3c0.5-0.4,1.3-0.3,1.8,0.2c0.3,0.3,0.4,0.8,0.3,1.2c-0.2,1.1-0.9,1.9-2.2,2.3L71,77.1z"/>
			</g>
			<g>
				<path class="st21" d="M67.9,73.3c-0.8,0-1.5-0.2-2.1-0.6l-2.2-0.2l1-1l-1.1-1.3l2.4,0.2l0.8,0l0,0.1c0.2,0,0.3,0,0.5,0
					c0.9,0,1.8,0,2.5,0.2l2.5,0.8L70,72.8C69.4,73.1,68.7,73.3,67.9,73.3z"/>
			</g>
			<g>
				<path class="st21" d="M93,153l-1.2-0.9c-0.6-0.4-1.2-1-1.2-1.8c-0.1-0.8,0.5-1.5,1-2l1.1-1.1l0.7,1.5c0.5,1.1,0.5,2.1,0.1,3.1
					L93,153z"/>
			</g>
			<g>
				<path class="st21" d="M70.8,75.8l-1.4-2.4c-0.4-0.7-0.8-1.4-0.5-2.1c0.4-0.8,1.1-0.9,2.6-1.2l3.2-0.5L72.5,72
					c-0.2,0.2-0.4,0.4-0.6,0.6c-0.3,0.2-0.4,0.4-0.4,0.5L70.8,75.8z"/>
			</g>
			<g>
				<path class="st21" d="M65.6,78c-0.8,0-1.5-0.6-1.6-1.4c0-0.6,0.2-0.9,0.3-1.2c0.4-0.4,0.9-0.5,1.1-0.5l0.1-0.1l0.3,0
					c0.3,0,1,0,1.5,0.5c0.3,0.3,0.4,0.7,0.4,1.1c0,0.5-0.3,1.4-1.6,1.5l-0.1,0C65.9,78,65.7,78,65.6,78z M65.8,75.7
					c-0.2,0.1-0.3,0.3-0.3,0.6c0,0.3,0.2,0.6,0.4,0.8c0,0,0,0,0,0L65.9,76l0.3,0.6c0-0.1,0-0.2,0-0.3C66.2,76.1,66,75.8,65.8,75.7z"
					/>
			</g>
		</g>
		<g>
			<g>
				<path class="st23" d="M72.1,66.6c-0.2,0.4,0,0.6,0.2,1c0.7,1.6-0.1,3.2-1.8,3.6c-1,0.2-1.9,0.1-2.9,0.2c-0.4,0-0.9-0.1-1.3,0.3
					l0,0c-0.1-0.2-0.2-0.3-0.2-0.5c0.6-1.3,1.8-0.5,2.8-0.8c-0.5-0.1-0.9-0.2-1.2-0.3c-0.8-0.2-1.1-0.8-0.8-1.5
					c0.3-0.9,0.9-0.6,1.4-0.4c0.6,0.2,1.2,0.5,1.8,0.4c-0.8-0.4-1.8-0.5-2.5-1c-0.5-0.4-0.6-0.2-0.9,0.1c-0.3,0.4-0.4,0.8-0.4,1.2
					c0.1,0.8-0.1,1.6-0.3,2.4c-1.4,0.4-0.6,1.9-1.3,2.7c-0.1,0.2-0.1,0.5-0.1,0.7c0,0.9-0.4,2.1,0.4,2.7c0.8,0.6,1.5-0.5,2.3-0.8
					c0.4-0.1,0.7-0.3,1.1-0.3c0.8-0.1,1.8-0.5,2.1,0.6c0.3,1.2-0.3,2.4-1.5,2.6c-0.5,0.1-1.2,1-1.7,0c-0.1-0.1-0.2-0.1-0.3,0
					c-0.5,1-0.9,0.4-1.5,0c-0.3-0.3-0.8-0.4-1.2-0.4c-2.6-0.3-4-2-4.9-4.3c-0.1-0.2-0.2-0.3-0.3-0.6c0,2.5,2.3,5,4.6,5.4
					c0.8,0.1,1.7-0.1,2,1.2c0.1,0.7,0.7-0.3,1.1,0c-0.2,0.6-0.6,1.4,0.2,1.9c1.6,1,3.4,0.7,4.7-0.7c0,0.1,0.1,0.1,0.1,0.2
					c-0.3,1-0.3,1.7,1,2.1c1.6,0.5,2.2,2.8,1.6,4.1c-0.1,0-0.2,0-0.2,0c-0.3-0.8-0.7-1.5-1.7-1.3c-1,0.3-1.2,1.1-1.2,2
					c0,1.3,0.6,2.3,1.8,2.9c0.3,0.2,0.7,0.3,1.2,0.5c-1.2,0.5-2.3,0.2-3.3,0.1c-0.3,0-0.5-0.2-0.5-0.6c-0.2-1.6-1.3-2.3-2.6-2.8
					c-0.8-0.3-1.6-0.4-2.4-1.1c0.2,0.9,0.7,1.1,1.3,1.3c1.7,0.5,3.3,1.2,3.6,3.3c0,0.1,0.1,0.2,0.2,0.3c0.8,0.7,4.2,0.1,4.8-0.8
					c0-0.1,0-0.2,0-0.3c-0.5-0.1-1.1-0.2-1.6-0.3c-1.3-0.4-2.2-2-1.8-3.2c0.2-0.5,0.4-0.9,1-0.8c0.6,0,0.7,0.5,0.7,0.9
					c0,0.5,0,1,0,1.6c1.2-1.1,1.5,0,1.9,0.9c1.5-2,3.7-2.6,5.8-3.2c1.2-0.3,2.1-1.2,2.9-2.2c1-1.2,2.2-2.2,3.5-3
					c1.3-0.7,2.5-1.6,3.4-2.9c0.5-0.7,1.3-1.2,2.2-1.2c1.1,0,2-0.6,3-1c0.6-0.2,1.4-1.4,2,0c0,0,0.2,0,0.3,0
					c2.4,0.1,3.2,0.9,3.3,3.8c-0.9-1.1-2-1.4-3.2-1.4c-0.6,0-0.9-0.5-1.3-1c-0.2,0.8,0.2,1.2,0.9,1.5c-0.8,0.3-1.3-0.2-2-0.1
					c0.4,0.4,0.8,0.6,1.4,0.6c2,0,4,1.8,3.8,3.9c-1.1-1.2-3.6,0.3-3.8-2.4c-0.7,1.2-0.5,1.4,1.8,2.4c-0.6,0.2-2.1-0.2-2.5-0.6
					c-0.6-0.6-0.6-0.6-1.8-0.4c0.5,0.4,1.8,0.5,0.4,1.5c1.4-0.4,2.5-0.2,3.5,0.3c0.4,0.2,0.7,0.4,0.9,0.9c0.4,0.9,0.1,1.2-0.8,1.1
					c-3-0.4-3-0.4-4-1.3c-0.3,0.8,0.6,0.9,0.7,1.3c-1.5,1-2.1,1.1-3.2,0.1c-0.3,0.6,0.3,0.8,0.6,1.2c-0.8,0.5-1.5,1.1-2.1,1.8
					c-0.7,0.9-1.4,0.6-2.2-0.9c-1.8,3.2-4,6-7.4,7.4c-1.6,0.7-3.1,1.5-4.7,2.3c-1.1,0.5-1.4,1.8-2.7,2.1c-0.3-0.3,0.2-0.8-0.1-0.9
					c-2.6-0.3-5.3-0.7-7.9-0.4c-2.6,0.3-5.3,1.2-8.2,0.1c1.3,0.9,3,1.2,4.8,0.9c2.3-0.4,4.7-0.7,7.1-0.5c0.9,0.1,1.9,0.3,2.8,0.4
					c0.8,0.1,1.1,0.3,0.4,1.2c1.3,0,2.1-0.5,2.9-1.2c0.2-0.2,0.4-0.4,0.5-0.6c0.3-0.4,0.8-0.7,1.2-0.7c0.5,0.1,0.4,0.7,0.4,1.1
					c0.4,4.3-0.2,8.3-3.8,11.3c-1.3,1.1-2.3,2.5-2.9,4.3c-1.2,3.6-3.9,6.1-6.9,8.2c-1.3,0.9-2.6,1.8-4,2.6c-3.1,1.9-5.1,4.6-6.1,8.1
					c-0.6,1.9-0.9,3.9-1.2,5.9c-0.1,0.6-0.2,1.2-0.5,1.7c-1.5,2.7-2.7,5.6-3.9,8.5c-1.2,3-3.1,5.6-5.6,7.6c-2,1.7-3.9,3.4-6.2,4.7
					c-0.4,0.2-0.5,0.5-0.5,0.9c-0.1,3.1-0.5,6.2-0.3,9.4c0,0.6,0.1,1.3,0.3,1.9c0.2,0.6,0.5,0.8,1.2,0.9c1.6,0.2,3,1,4.4,1.8
					c0.9,0.5,0.9,1.9,0.2,3c-0.3-0.9-0.3-1.9-1.3-2.4c0.6,0.8,0.7,1.7,0.7,2.6c0,0.6-0.2,0.8-0.7,0.3c-0.3-0.2-0.6-0.5-0.9-0.4
					c-1.5,0.5-1.7-0.5-1.7-1.7c-0.5,0.6-0.3,1.1-0.1,1.6c0.3,0.8-0.1,0.9-0.7,0.8c-0.8-0.1-1.5-0.5-1.6-1.3c-0.3-1.8-1-3.2-3-3.5
					c-0.3-0.1-0.5-0.4-0.9-0.8c0.1,1.1,0.6,1.3,1.2,1.5c1.8,0.5,2.5,1.8,2,3.7c-0.2,0.8,0.3,1.6,0.1,2.4c-0.1,0.4-0.1,0.9-0.5,1
					c-0.5,0.1-0.5-0.5-0.6-0.7c-0.8-1.1-1.5-2.2-1.3-3.8c-0.8,0.5-0.3,1.2-0.5,1.7c-2.6-1.7-3.9-4-3.6-7.2c0.3-3.4,0.2-6.9-0.3-10.3
					c-0.3-2,0.3-3.1,1.6-4.4c1.8-1.9,2.9-4.4,3.9-7.1c0.5,0.8,0.5,1.7,0.9,2.7c0-1.9-0.3-3.3-0.7-4.8c-1.7-6.5-1.1-12.8,1.8-18.9
					c0.3-0.6,0.6-1.1,0.9-1.7c0.3-0.5,0.6-1,0.9-1.5c-2.8,2.3-3.5,6.1-5.8,8.7c0.5,0.3,0.6-0.3,0.9-0.2c0.1,0.7-0.2,1.2-0.8,1.5
					c-3.1,2.1-6.4,3.2-10.1,3.4c-9.2,0.5-17.4-5.2-18.9-14c-1.4-8.7,0.5-16.8,6.6-23.4c2.9-3.1,6.6-4.3,10.7-2.8
					c2,0.7,3.9,1.9,5.2,3.9c-0.1-1-0.3-1.2-2.3-3c1.7-0.1,3.6,1.4,4.4,3.3c0.4,0.9,0.7,1.8,1.4,2.5c1.1,1.3,2.2,1.1,3.1-0.3
					c0.6,1,0.5,2-0.5,2.6c-0.7,0.4-0.9,0.7-0.6,1.6c0.5,1.2-0.2,1.9-1.6,1.7c0-0.4,0.8-0.9,0.2-1.3c-0.3-0.3-0.7-0.1-1,0.1
					c-0.5,0.4-0.7,0.9-0.5,1.5c0.2,0.7,0.6,1.3,1.2,1.7c0.3,0.3,0.8,0.4,1,0.8c-1.2,0.7-2,0-2.9-0.7c0.9,1,1.2,2,0.6,3.2
					c-0.3,0.6-0.6,1.1-1.1,1.4c-0.2,0.1-0.4,0.4-0.6,0.1c-0.2-0.3-0.2-0.8-0.4-0.1c-0.6,1.8-1.9,2.9-3.4,3.9c-1,0.7-1.7,1.6-1.6,3
					c0.1,0.6,0.1,1.2,0.8,1.5c0.2,0.1,0.5,0,0.6-0.2c0.4-0.6-0.1-1-0.3-1.6c1.3,0,1.7,0.9,2,1.8c0.3,0.8,0.1,1.6-0.8,2
					c-0.1,0.1-0.9,0.1-0.1,0.4c0.2,0.1-0.1,0.3-0.2,0.4c-0.7,0.3-1.3,0-1.8-0.4c-3.1-2.7-2.6-7.6,1.1-9.5c1-0.5,2-1.1,2.7-2.2
					c-1.7,0.7-3.1,2.1-5,0.7c0.1,0.7,0.8,0.7,1.1,1.1c-0.4,0.6-0.9,0.6-1.4,0.2c-0.6-0.5-1.2-1.1-1.5-1.8c-0.8-1.7,0.3-3.3,2.1-3.3
					c0.9,0,1.1,0.5,0.9,1.4c-0.5-0.3-1-1.1-1.5-0.3c-0.5,0.8,0,1.4,0.6,1.8c0.9,0.6,2.4,0.5,3.3-0.3c1.1-0.9,1.7-2.8,1.3-3.8
					c-0.1-0.3-0.3-0.6-0.7-0.6c-0.4,0.1-0.6,0.4-0.6,0.8c-0.1,0.3,0.2,0.6,0,0.9c-1-0.4-1.4-1.2-1.1-2.3c0.1-0.5,0.4-0.9,0.6-1.3
					c0.4-0.5,0.4-0.7-0.3-1c-1.2-0.5-1.6-1.6-1.7-2.9c1.7,1.5,2.5,1.2,3.1-1.3c0.7,0.6,0.8,1.4,1.3,2.1c0-2.2-2.1-5.4-4.3-6.5
					c-4-2-7.3-1.4-10.2,1.9C5.9,113.3,4,121,6,129.5c2,8.8,12.6,13.5,20,9.2c3.7-2.1,6-5.5,7.1-9.6c1.1-4,2.9-7.3,6-10
					c1.5-1.3,2.9-2.7,4.4-4c2.4-2,3.3-4.6,3.4-7.6c0-1,0-2.1,0-3.1c0-1.5,0.6-2.2,2-2.4c0.6-0.1,1.1-0.3,1.5-1
					c-1.2-0.3-2.1-0.9-1.9-2.5c-0.9,1.5,0,2.1,0.8,2.8c-0.9,0.4-1.5,0.1-2.1-0.6c0.3,1.5-0.8,3.1-2.4,3.5c0.1-0.4,0.3-0.7,0.4-1
					c0.2-0.5,0.3-1.1,0.4-1.6c0.1-0.5-1-0.7-0.1-1.5c-1,0.2-1.8,0.6-2.4-0.1c-0.7-0.8-0.5-1.6-0.2-2.5c0.6-1.9,1.6-3.6,2.7-5.2
					c1.1-1.8,1-3.6,0.3-5.5c0.9,3.5-1.7,5.8-2.8,8.7c-0.2,0.6-2.7,0.9-3.8,0.4c3.3-1.1,3.5-3.8,3.3-6.6c0-0.9-0.3-1.8-1.2-2.2
					c-0.9-0.5-2.2-0.1-2.6,0.7c-0.3,0.8,0.1,1.5,1.3,1.9c-0.9,1.1-2,1.3-3,0.3c-1.2-1.1-1.3-2.6-1-4.1c0.3-1.4,1.1-2.6,1.9-3.9
					c-0.7-0.2-1.1,0.4-1.9,0.4c0.6-1.3,1.2-2.6,1.5-3.9c0.2-0.6,0.5-1.4-0.7-1c-0.1,0-0.3,0-0.5,0c-0.5-0.1-1.1,0-1.3-0.5
					c-0.2-0.4,0.5-0.7,0.8-0.9c1.4-1.2,2-2.7,1.6-4.6c-0.2,0.1-0.3,0.1-0.3,0.1c-0.3,0.4,0.1,1.1-0.4,1.2c-0.6,0-0.9-0.6-1.1-1.1
					c-0.6-1.1-0.4-2.4-0.1-3.5c0.9-3.1,2.5-5.9,5.3-7.7c0.1-0.1,0.2-0.2,0.3-0.3c-0.5-0.4-0.9,0.1-1.3,0c1.8-2.7,4.9-3.6,8-2.2
					c-1.2,1.2-2.5,2.1-3.4,3.5c1.2-1.1,2.4-2.1,3.7-3.1c1-0.7,2.1-1.1,3.3-1.2c1.7-0.2,3.1,0.4,4.2,1.7c0.6-0.6-0.1-1-0.1-1.4
					c1.9,0.3,2.4,1.1,1.9,2.5c-0.2-0.3,0.1-0.8-0.4-1.1c-0.3,0.5-0.2,1.1-0.7,1.4c-0.6,0.4-0.9-0.5-1.7-0.4c0.7,0.8,1.5,1.2,2.4,1.4
					c1.3,0.3,2.5,0.7,3.8,0.3c0.6-0.2,1.1,0.1,1.5,0.5c0.6,0.6,1.4,0.9,2.2,1c2.2,0.3,4.4,0.7,6.4,1.6
					C72.2,65.1,72.6,65.6,72.1,66.6c-0.6-0.2-1.1-0.5-1.8-0.3c-0.3,0.1-0.9-0.1-1-0.5c-0.1-0.4,0.5-0.3,0.7-0.6
					c-0.6-0.1-1.1,0.1-1.2,0.7c-0.1,0.3,0,0.6,0.3,0.7C70.2,66.7,71.1,66.9,72.1,66.6z M46.6,69.4c1-0.4,1.8-0.2,2.8,0.4
					c1.3,0.9,2.8,0.1,4.2,0c-0.3-0.2-0.5-0.3-0.8-0.3c-0.5,0-1.1,0-1.6,0.1c-1.4,0.1-2.9-1-3.3-2.4c-0.2-0.6-0.1-1.2,0.6-1.5
					c1.8-0.7,3.3-2.2,5.5-2.5c-0.6-0.6-1.1-0.4-1.6-0.2c-1.4,0.7-2.9,1.4-4.3,2.2c-0.7,0.4-1.1,1.2-0.7,1.8
					C47.9,68.3,47.6,68.9,46.6,69.4c-0.6,0-0.9,0.5-1.2,0.9c-0.7,0.9-1,2-0.9,3.1c0,1.6,0.1,3.3-0.5,4.9c-0.7,2-2,2.2-3.4,0.7
					c-0.1-0.1-0.1-0.3-0.4-0.1c0.4,1,1.2,1.4,2.2,1.4c0.9,0,1.4-0.7,1.7-1.4c0.6-1.3,0.8-2.8,0.7-4.2C44.7,72.6,45.1,70.8,46.6,69.4
					z M48.4,71.9c-0.8,0.6-0.8,1.2-0.9,1.8c-0.2,1.7,0,3.4-0.5,5.1c-0.6,2.1-1.8,3.1-3.7,3c-2.3-0.1-3.2-0.9-3.6-3.2
					c0,0.1-0.1,0.1-0.1,0.2c-0.2,1.5,0.7,2.8,2.3,3.3c2.3,0.8,4.3,0.2,5.1-1.3c0.7-1.5,0.9-3,1-4.7C47.9,74.8,47.7,73.4,48.4,71.9z
					 M69,95.8c0.6-1.3,0.1-2.6-1.4-3.2c-1.3-0.5-2.8-0.8-4.1-0.2c-1.6,0.7-1.6,2.2-1.8,3.8c-1.3-2.6-1.3-2.6-2.2-2.3
					c1.3,0.1,1,1.2,1.3,1.8c0.3,0.7,0.8,1.4,1.6,1.9c-0.2-3.7,0.3-4.9,2.2-5C67.1,92.6,68.7,93,69,95.8z M60.9,90
					c0.5-0.7,0.4-1.4,0.3-2.1c-0.3-1.8-1.3-3.1-2.7-4.2c-2.1-1.6-2.1-2.6-0.2-4.4c0,0,0-0.1,0-0.2c-1.7,0.9-2.3,2.5-1.5,3.9
					c0.4,0.7,0.9,1.2,1.5,1.7C60.1,86,61.4,87.6,60.9,90z M50.9,99.1c1.2-2.1,3-3.2,5.2-3.6c0.3-0.1,0.8-0.3,1,0.1
					c0.2,0.3-0.2,0.6-0.4,0.9c-0.2,0.4-0.7,0.6-0.8,1.1c0.7,0.1,1.3-0.1,2-0.8c-0.5,0.1-1.2,0.5-0.6-0.3c0.3-0.4,0.7-0.9,0.3-1.4
					c-0.4-0.4-0.9-0.1-1.3,0c-2,0.3-3.7,1.3-4.9,3.1c-0.3-0.3-0.1-0.8-0.7-0.9C50.7,97.8,50.8,98.4,50.9,99.1z M61.6,68.7
					c0.6-0.3,1.4-0.9,1.1-1.2c-0.9-0.8-0.2-1.5-0.1-2.2c0.1-1,0.1-1.1-1-1.2c1,1.2,1.1,0.8-1.2,2.3c0.4,0.7,1.1,0.9,1.7,1.2
					C62.1,68.1,61.5,68.1,61.6,68.7z M29.5,164.4c1.4,0.5,2.8-0.3,3.1-1.6c0.2-0.9,0.7-1.7,1.2-2.4c0.5-0.7,1-1.3,1.1-2.2
					c-1,1.4-2.1,2.7-2.7,4.3C31.8,163.6,31.1,164.4,29.5,164.4z M62.3,72.1c0.5-1.2,1.9-1.4,2.5-2.4c0.5-0.9,0.8-2.1,0.8-3.4
					c-0.5,0.3-0.5,0.8-0.6,1.2c-0.2,1.2-0.6,2.3-1.9,2.9C62.6,70.8,62.3,71.4,62.3,72.1z M53.4,68.1c-0.4-0.3,0.8-1.5-0.6-1.9
					c-0.7-0.2-1.1-1.2-2-0.9C51.8,66.3,53.3,66.8,53.4,68.1z"/>
			</g>
			<g>
				<path class="st23" d="M93.7,146.9c-1,0-1.6,0.3-1.7,1.6c-0.1,1.4-1.7,1.6-2.8,0.5c-0.7-0.7-1.4-1.2-2.6-0.4
					c1.7-0.1,2.7,0.6,3.5,1.6c0.2,0.3,0.4,0.7,0.2,1c-0.2,0.5-0.5,0-0.8,0c-0.3,0-0.6,0-0.9,0.3c-0.8,0.7-1.5,0.6-2.1-0.2
					c0.5,1,1.3,1.2,2.4,0.7c-0.4,1.2-1.1,1.6-2.1,1c-0.7-0.4-1-0.2-1.5,0.4c-0.9,1-2,1.8-3,2.7c-0.9,0.7-1.8,1-2.7,0.1
					c-0.4-0.4-1-0.5-1.5-0.5c-2.7-0.1-5.4,0.1-8,0.7c-3.1,0.7-3.3,0.6-4.4-2.4c-0.3,0.4-0.2,0.8-0.2,1.1c0.2,1.2-0.4,1.2-1.2,1.1
					c-1.9-0.3-3-1.7-2.6-3.7c0.2-1.4,0.7-2.7,0.9-4.1c0.3-2.1-0.1-3.4-1.4-5.1c0.6-0.4,1.5-0.3,2.1-1.2c-2.1,1-4.1,0.6-6-0.1
					c-0.4-0.1-0.7-0.2-1.1-0.3c-1.8-0.4-1.8-0.4-1.4-2.2c0.2-1.1,0.5-2.2,0.9-3.2c1.1-2.7,2.1-3.3,4.9-2.8c-0.3-0.6-0.6-1.1-0.7-1.7
					c-0.4-1.5,0.4-3.2,1.8-3.6c2.1-0.5,4.1-1.1,6.3-1.2c3.6-0.3,5.7,1.5,6,5.2c0.2,2.7-0.3,5.4-0.9,8.1c-0.5,2.2-1.2,4.4-2,6.6
					c-0.5,1.7-0.4,1.5,1.1,2.1c2.2,0.9,4.4,0.4,6.7,0.4c1.2,0,2.2-0.5,2.9-1.5c0.8-1.1,1.8-1.4,3.1-1.3c1.9,0.2,3.5-0.5,5.1-1.3
					C91.1,144.3,93,145.1,93.7,146.9z M76.9,153.7c-0.7-0.6-1.2-0.6-1.8-0.5c-0.9,0.1-1.8,0.3-2.7,0.5c-0.6,0.1-1.1,0.1-1.5-0.5
					c-0.5-0.7-1.2-1-2.2-0.9c0.5,0.4,1.1,0.6,1.3,1c0.4,0.8,1.1,0.9,1.8,0.8C73.4,153.7,75,153.5,76.9,153.7z M62.7,151.4
					c0.3-1.7,1.2-3,1.9-4.5c0.8-1.7,0.7-3.5,0.2-5.3c-0.1,0.2-0.1,0.5-0.1,0.7c0.2,2.1,0,4.1-1.2,6
					C62.9,149.2,62.4,150.3,62.7,151.4z M86.1,148.1c-3-0.7-4.9,0.1-5.7,2.3C81.7,148.2,83.9,148.4,86.1,148.1z"/>
			</g>
			<g>
				<path class="st23" d="M78.8,105.8c1.8,1.2,3.4,2.2,5,3.3c1.1,0.7,2.4,1.3,3.7,1.3c0.7,0,1.3,0.1,1-1.1c-0.3-1.3,1-3.2,2.7-4
					c0.7-0.3,0.9-0.6,1-1.4c0.2-1.7,1.8-2.7,3.4-2.2c0.5,0.2,1,0.3,0.2,0.9c-0.4,0.3-0.7,0.6-0.7,1.1c0,1-0.5,1.7-1.6,1.9
					c1.3,0.3,1.8-0.2,2.1-1.9c1.5,0.7,1.2,3-0.6,5c0.4,0.4,1.1,0.2,1.5,0.7c-1.2,0.4-2,1.1-1.7,2.5c0,0.2,0,0.5-0.1,0.6
					c-1,1.1-0.8,2.6-1.3,3.9c-0.5,1.6-2,2.5-2.9,3.8c-0.2,0.2-0.5,0.4-0.7,0.2c-1.3-1.2-2.4,0.1-3.6,0.1c-0.9,0-1.7-0.5-2.2-1.2
					c-0.5-0.6-1-1.2-2-1.3c-0.4,0-0.9-0.4-1.2-0.7c-1.4-1.1-2.9-2.1-4.4-3c-0.3-0.2-0.8-0.4-0.3-0.9c1.9-1.8,2.2-4.3,2.3-6.7
					C78.8,106.4,78.8,106.2,78.8,105.8z M94.5,108.6c-2.4-0.9-3.9,0.2-3.9,2.6c0,1.1,0.3,2.2-0.4,3.4c0.7-0.2,0.9-0.6,0.9-1
					c0-0.8,0.1-1.5,0-2.3c-0.1-1.2,0.5-2,1.4-2.3C93.1,108.8,93.8,109,94.5,108.6z M86.8,116.8c-2.8,0.3-4.1-2.2-6.1-3.5
					C82.3,115.3,83.8,117.4,86.8,116.8z M84.5,113.1c0,0.1,0,0.2,0,0.3c1,0.2,2.1,0.4,3.1,0.6C86.7,113.2,85.6,113.1,84.5,113.1z"/>
			</g>
			<g>
				<path class="st23" d="M67,75.8c-0.5,0-0.9-0.1-1.2-0.1c-0.7,0.1-1-0.3-0.8-0.9c0.2-0.6-0.1-1.6,0.8-1.7c0.6-0.1,2.4,1.2,2.4,1.8
					C68.1,75.7,67.5,75.7,67,75.8z"/>
			</g>
			<g>
				<path class="st23" d="M71,76c-0.4,0-0.7-0.2-0.6-0.4c0.3-0.7,1.2-0.8,1.7-1.2c0.2-0.1,0.3,0.1,0.3,0.3
					C72.3,75.5,71.6,75.8,71,76z"/>
			</g>
			<g>
				<path class="st23" d="M66.2,71.6c1,0.1,2.1-0.2,3.3,0.2C68.4,72.4,66.7,72.2,66.2,71.6C66.2,71.6,66.2,71.6,66.2,71.6z"/>
			</g>
			<g>
				<path class="st23" d="M92.4,149.1c0.4,0.8,0.4,1.4,0.1,2.1C91.5,150.4,91.5,150,92.4,149.1z"/>
			</g>
			<g>
				<path class="st23" d="M70.3,72.8c-0.7-1.2-0.7-1.2,1.3-1.6C71.2,71.8,70.5,72.1,70.3,72.8z"/>
			</g>
			<g>
				<path class="st23" d="M65.9,76c0.3,0,0.8,0,0.7,0.4c0,0.5-0.5,0.4-0.8,0.4c-0.3,0.1-0.6-0.1-0.6-0.4
					C65.1,75.9,65.6,76.1,65.9,76z"/>
			</g>
		</g>
	</g>
	<g>
		<g>
			<g>
				<path class="st21" d="M220.8,186.5c-0.1,0-0.2,0-0.4,0c-1.1-0.3-1.2-1.3-1.3-1.7c0-0.1,0-0.1,0-0.2c-0.1-0.4-0.1-0.8-0.1-1.1
					c-0.3,0.1-0.6,0.2-0.9,0.2c-0.9,0.1-1.4-0.2-1.6-0.5c-0.3,0-0.7,0-1-0.1c-0.1,0-0.1,0.1-0.1,0.1c-0.3,0.2-0.6,0.5-1.2,0.5
					c-0.1,0-0.2,0-0.4-0.1l-0.2,0.6l-1.2-1.8c-0.6-0.9-0.8-2-0.6-2.9c0.2-0.7,0.6-1.3,1.2-1.7c1.5-0.9,3.1-1.8,4.9-2
					c0.1,0,0.2,0,0.2,0c0,0,0,0,0-0.1c0.2-0.4,0.2-0.9,0.2-1.5c0.1-2,0-3.8-0.1-5.8c-0.1-1.1-0.2-2.3-0.2-3.5
					c-2-1.2-3.8-2.7-5.5-4.1l-0.7-0.6c-2.7-2.3-4.7-5-5.9-8.1c-1.1-2.8-2.3-5.7-3.8-8.4c-0.4-0.7-0.5-1.4-0.6-2.1
					c-0.3-1.7-0.6-3.7-1.2-5.7c-1-3.3-2.8-5.8-5.6-7.5c-1.4-0.8-2.7-1.7-4-2.6c-3.8-2.7-6.2-5.4-7.3-8.8c-0.5-1.5-1.4-2.8-2.5-3.7
					c-4.5-3.7-4.6-8.8-4.2-12.3c0-0.1,0-0.1,0-0.2c0-0.4,0-0.7,0.1-0.9c-0.1,0-0.2-0.1-0.3-0.1c-0.9-0.5-1.8-0.9-2.8-1.3
					c-2.8-1.2-5.1-3.2-7.1-6.5c-0.4,0.3-0.8,0.5-1.3,0.5c-0.4,0-1.1-0.2-1.7-0.9c-0.5-0.6-1-1.1-1.8-1.5l-0.7-0.4
					c-0.7-0.1-1.3-0.5-2-1l-0.3-0.2c-0.5,0.1-1.2,0.2-2.2,0.3c-0.2,0-0.4,0-0.5,0c-0.8,0-1.3-0.4-1.5-0.7c-0.5-0.8-0.2-1.7,0-2
					c0,0,0,0,0,0l-1.3,1.5l-0.2-2.3l-0.4-0.1l0.4-0.2l0,0c0-0.3,0-0.6,0-1l-0.6,0.7l0.2-3.4c0.2-3.3,1.3-4.7,4.1-4.9
					c0.5-0.6,1-0.7,1.4-0.7c0.6,0,1.1,0.3,1.5,0.6c0.1,0.1,0.2,0.1,0.2,0.2c0.2,0.1,0.4,0.2,0.6,0.3c0.7,0.3,1.3,0.6,2,0.6
					c1.3,0,2.3,0.6,3.1,1.7c0.7,1,1.6,1.8,3.1,2.5c1.5,0.8,2.8,1.9,3.9,3.3c0.6,0.8,1.4,1.6,2.3,1.8c1.8,0.5,3.7,1,5.3,2.4
					c0.1-0.1,0.2-0.2,0.3-0.3c-0.4-1-0.4-2.3,0.1-3.4c0.4-1.1,1.2-1.8,2.2-2.2c0.2-0.1,0.3-0.1,0.4-0.2c0-0.1,0-0.2-0.1-0.5
					c-0.1-0.3-0.1-0.8,0.4-1.3l0.8-0.9l0.8,0.9c1,1,2.1,1.2,3.2,0.6c0-0.1-0.1-0.3-0.1-0.4L188,81c-0.5,0-0.9-0.2-1.2-0.4
					c-0.1,0-0.1-0.1-0.2-0.1c-0.8-0.2-1.5-0.7-2-1.5c-0.5-0.8-0.6-1.7-0.3-2.6c0.3-1,1-1.6,2.1-1.6c0.3,0,0.6,0,0.8,0.1
					c0.1,0,0.3,0,0.4,0.1c0.5,0,0.9,0.2,1.3,0.3l0.2,0.1c0.4,0.1,0.7,0.4,1,0.6c0.1,0.1,0.2,0.1,0.3,0.2c0-0.2,0-0.6,0-0.8
					c0-0.3-0.1-0.6,0-0.9c0,0,0-0.1,0-0.1c-0.2-0.3-0.3-0.7-0.4-1.1l-0.8-0.8c-0.1,0-0.1,0-0.2,0c-0.1,0-0.2,0-0.3,0l-0.1,0
					c-0.3,0-0.5,0-0.8,0c-0.7,0-1.5,0-2.3-0.2c-1.2-0.2-2.1-1-2.6-2c-0.2-0.3-0.3-0.7-0.3-1.1l-0.7-0.1l0.6-0.3
					c0-0.6,0.1-1.2,0.4-1.8l0.1-0.1c0,0,0,0,0-0.1c-0.1-0.2-0.1-0.4-0.2-0.5l-0.6-1.6l0.7,0.2c0.2-0.6,0.8-1,1.5-1.4
					c1.9-0.8,3.9-1.3,6.7-1.7c0.8-0.1,1.2-0.3,1.6-0.6c0.7-0.7,1.7-1,2.6-0.8c0.6,0.2,1.4,0.1,2.2,0l0,0c-0.1-0.4-0.6-1.5,0-2.6
					c0.6-1,1.8-1.4,2.7-1.5l1.3-0.2l0,0.4c0.9-0.4,1.9-0.6,3-0.4c1.1,0.1,2.1,0.4,3,0.9l0.1-0.1c1.1-0.5,2.2-0.7,3.3-0.7
					c2.5,0,4.6,1.2,6.1,3.3l0.9,1.2l-0.4,0.1c1.8,1.7,3.2,4.1,4.1,7c0.5,1.7,0.4,3.1-0.2,4.4l-0.1,0.1c-0.2,0.4-0.6,1.3-1.5,1.6
					c0.2,0.5,0.6,0.9,1,1.3c0,0,0.1,0.1,0.2,0.1c0.9,0.6,1.2,1.3,0.9,2.1c-0.4,1-1.4,1.1-1.9,1.2c-0.1,0-0.2,0-0.3,0
					c0,0-0.1,0-0.2,0c0.3,1,0.8,2.1,1.3,3.1l0.8,1.7l-1.5,0c0.3,0.7,0.6,1.4,0.8,2.2c0.5,2.2,0,3.9-1.3,5.2
					c-0.7,0.6-1.4,0.9-2.2,0.9c-0.7,0-1.6-0.2-2.5-1.4l-0.4-0.5c-0.1,2.7,0.4,4.1,2.6,4.9l3,1l-3,1.1c-0.6,0.2-1.3,0.3-1.8,0.3
					c-0.3,0-0.7,0-1.2-0.1c0,0,0,0,0,0c0.2,0.8,0.8,2.3-0.5,3.6c-0.5,0.6-1.3,0.8-2,0.7c0,0.1-0.1,0.1-0.1,0.2
					c0.1,0.3,0.1,0.5,0.2,0.8l0.1,0.3c0.1,0.2,0.1,0.4,0.2,0.6l0.9,2.5l-2.2-0.6c-0.2-0.1-0.4-0.1-0.6-0.2c0,0.2,0,0.3,0,0.5
					c0,0.6,0,1.2,0,1.8c0.1,3,1.1,5.2,3,6.7c0.9,0.7,1.7,1.5,2.4,2.2c0.6,0.6,1.3,1.2,2,1.8c3.1,2.6,5.1,6,6.4,10.6
					c1.1,3.9,3.3,7,6.5,8.9c1.6,0.9,3.6,1.4,5.5,1.4c6,0,11.5-4.3,12.8-9.9c1.9-8.2,0.1-15.5-5.4-21.7c-2.6-3-5.3-3.4-8.9-1.7
					c-0.9,0.4-1.8,1.3-2.5,2.4l0.2,0.6c0.2,0.8,0.4,1.2,0.5,1.3c0.1-0.1,0.4-0.2,0.8-0.6l2.2-1.9l-0.3,2.9c-0.1,1.3-0.5,2.8-1.9,3.6
					c0.2,0.4,0.4,0.7,0.5,1.1c0.2,0.6,0.2,1.2,0.1,1.7c0.3-0.1,0.6-0.2,1-0.2l0.1,0c1.3,0,2.3,0.6,3,1.5c0.6,1,0.7,2.2,0.1,3.4
					c-0.4,0.9-1,1.6-1.9,2.3c-0.2,0.1-0.3,0.2-0.5,0.3c0.7,0.9,1.1,2.1,1.3,3.3c0.3,2.3-0.6,4.5-2.4,6c-0.4,0.4-1.1,0.8-2,0.8
					c-0.4,0-0.7-0.1-1.1-0.3c-0.2-0.1-0.9-0.5-1-1.2c-0.8-0.7-1.1-1.8-0.7-3c0.2-0.7,0.7-2.3,2.6-2.5c-0.2-0.2-0.4-0.4-0.7-0.7
					c-1.3-1-2.6-2-3.4-3.5c-0.5,0-0.8-0.3-0.9-0.4c-0.6-0.5-1.1-1.1-1.4-1.9c-0.2-0.5-0.4-1-0.4-1.5c-0.5,0-1-0.2-1.4-0.4l-0.9-0.5
					l0.4-0.9c0.3-0.7,0.9-1,1.2-1.2c0,0,0,0,0,0c-1.1-0.1-1.6-0.7-1.9-1c-0.2-0.4-0.6-1.2-0.1-2.4c0,0,0-0.1,0-0.1
					c0,0-0.1-0.1-0.2-0.1c-1.4-0.9-1.7-2.6-0.8-4.2l1-1.8l1,1.8c0.3,0.5,0.5,0.6,0.5,0.6c0.1,0,0.3-0.1,0.7-0.5
					c0.4-0.4,0.7-1,0.9-1.7c0.1-0.2,0.2-0.4,0.2-0.5c1-2.3,3.3-3.9,5.4-3.9l0.8,0c0.6-0.3,1.2-0.6,1.9-0.8c4.4-1.6,8.6-0.5,11.9,3.1
					c6.1,6.6,8.5,15,6.9,24.4c-1.4,8.7-9.3,15-18.8,15c0,0,0,0,0,0c-0.4,0-0.8,0-1.3,0c-3.7-0.2-7.2-1.3-10.3-3.4
					c0.5,3.7,0.3,7.4-0.7,11.1c0,0.1-0.1,0.3-0.1,0.4l0.3,0.9c0.8,2.4,1.8,4.8,3.6,6.6c1.4,1.5,2.3,2.9,1.9,5.4
					c-0.5,3.2-0.6,6.6-0.3,10c0.3,3.5-1.1,6.3-4.1,8.2l-0.5,0.3c-0.3,0.6-0.6,1.1-1,1.6l0,0C222,186.1,221.5,186.5,220.8,186.5z
					 M221.4,180.1C221.4,180.1,221.4,180.1,221.4,180.1c-0.3,0.5-0.2,1.1-0.1,1.5c0.1,0.2,0.1,0.4,0.1,0.5c0.1-0.4,0.2-0.8,0.1-1.2
					L221.4,180.1z M215.4,180.7c0.2,0,0.3,0,0.5,0.1c0.1,0,0.2,0,0.2,0.1c0-0.1,0-0.3,0.1-0.7l0-1.4c-0.4,0.2-0.8,0.4-1.3,0.6
					l0.6,0.7c-0.1,0.2-0.3,0.4-0.3,0.7C215.2,180.7,215.3,180.7,215.4,180.7z M217.2,178.3l0.9,1.1c0.3,0.3,0.5,0.7,0.6,1
					c0.5-2.2,1.7-3.5,3.6-3.9c0,0,0.1-0.1,0.1-0.1c0.1-0.1,0.2-0.2,0.3-0.3l2.3-2.8l-0.3,3.6c-0.2,1.9-1.5,2.3-2,2.5l0.7,0.4
					c0.3,0.2,0.5,0.4,0.6,0.6c1.3-1.3,1.9-2.9,1.7-5c-0.3-3.3-0.2-6.6,0.2-9.7c-1.7,0.1-3.1-1-3.5-2.7c-0.2-0.7-0.5-1.3-1-2
					l-0.2-0.2c-0.5-0.6-1-1.4-1.1-2.5l-0.2-1.9l-0.2,0c0-0.6,0-1.2,0.1-1.7l0-0.2l0,0c0.1-1.3,0.4-2.3,0.6-3.2
					c1.7-6.2,1.1-12.1-1.7-18c-0.3-0.6-0.6-1.1-0.8-1.6c-0.1-0.2-0.2-0.3-0.3-0.5c-0.2-0.4-0.4-0.7-0.6-1.2l1.8-1.4
					c1.7,1.4,2.7,3.3,3.6,5.1c0.7,1.4,1.4,2.7,2.3,3.7l0.9,1l-0.7,0.5c2.7,1.7,5.7,2.6,9,2.8c0.4,0,0.7,0,1.1,0c0,0,0,0,0,0
					c2.8,0,5.4-0.6,7.7-1.6c-2,0.9-4.1,1.4-6.3,1.4c-2.4,0-4.7-0.6-6.7-1.7c-3.8-2.2-6.4-5.7-7.6-10.3c-1.1-4.1-2.9-7.1-5.6-9.4
					c-0.7-0.6-1.4-1.3-2.1-1.9c-0.8-0.7-1.5-1.4-2.3-2.1c-2.4-2-3.7-4.8-3.8-8.5c0-0.6,0-1.2,0-1.9c0-0.4,0-0.8,0-1.3
					c0-1-0.2-1.1-1.1-1.3c-1-0.2-1.8-0.7-2.3-1.6l-0.7-1.3l0.6-0.1l-0.3-0.5c-0.7-1.3-1.7-2.2-3-2.7c0,0.1,0.1,0.2,0.1,0.3l0.2,1.3
					l-1.3,0.1c-1.1,0.1-2-0.2-2.9-1.1l-1.2-1.1c-0.3,0.6-0.7,1.3-1.5,2l-0.8,1.6c1.2,0.1,2.4,0,3.5-0.4l1,2
					c-1.5,1.1-3.5,1.5-5.7,1.1c-2.8-0.5-4.8-0.6-6.8-0.5c-0.6,0-1.2,0.1-1.9,0.3l1.1,1.3l-2.5,0c-1.8,0-3-0.9-3.6-1.6
					c-0.1-0.1-0.2-0.2-0.3-0.3c-0.3,4.5,0.7,7.5,3.4,9.7c1.5,1.2,2.6,2.8,3.3,4.8c1,2.8,3,5.3,6.4,7.6c1.3,0.9,2.6,1.7,3.9,2.5
					c3.2,2,5.5,4.9,6.6,8.8c0.6,2.1,1,4.3,1.2,6c0.1,0.6,0.2,1,0.4,1.3c1.6,2.8,2.8,5.8,3.9,8.6c1.1,2.8,2.9,5.2,5.3,7.2l0.7,0.6
					c1.7,1.5,3.4,2.9,5.3,3.9c0.7,0.4,1,1,1.1,1.9c0,1.1,0.1,2.3,0.2,3.4c0.1,2,0.3,4,0.1,6c0,0.7-0.1,1.5-0.4,2.2
					c-0.5,1.3-1.5,1.5-2.2,1.6C217.7,178.2,217.4,178.3,217.2,178.3z M224.5,161.2c0.1,0.3,0.3,0.6,0.4,0.9c0.3,0.7,0.5,1,1,1.1
					c-0.2-0.6-0.6-1.1-1.2-1.8C224.6,161.3,224.5,161.3,224.5,161.2z M221.4,156.7l0.6,0.8c-0.1-0.2-0.2-0.5-0.3-0.7L221.4,156.7z
					 M233.1,131.4c0.1,0.1,0.2,0.2,0.3,0.3c0,0,0,0,0,0c0.1-0.1,0.2-0.2,0.3-0.3C233.6,131.4,233.3,131.4,233.1,131.4z M232.6,124.1
					c0.3,0.2,0.5,0.4,0.8,0.6c0.1,0.1,0.3,0.2,0.5,0.4C233.5,124.7,233.1,124.4,232.6,124.1C232.6,124.1,232.6,124.1,232.6,124.1z
					 M228.2,119.4c0,0.1,0.1,0.2,0.1,0.4c0.1,0.2,0.2,0.4,0.3,0.6c0,0,0.1,0,0.1,0L228.2,119.4z M232.1,119c0.1,0.2,0.3,0.4,0.5,0.6
					c0.2,0.2,0.4,0.3,0.7,0.4l-0.1-0.3c-0.1-0.2-0.2-0.6-0.1-1.1c-0.2,0.2-0.5,0.3-0.8,0.4L232.1,119z M228.3,118.8l1.5,0.6
					c-0.4-1-0.6-2.2-0.2-3.1c0.4-0.8,0.9-1.3,1.6-1.3l0.2,0c0,0,0,0,0,0c0,0,0,0,0,0c-0.2-0.3-0.6-0.9-0.4-1.6c0.2-0.6,0.6-0.9,1-1
					c-0.4-0.2-0.7-0.4-0.9-0.8c-0.1,0.1-0.1,0.2-0.2,0.3l-2,2.8l-0.1-3.4c0-1.3,0.6-2.9,1.5-4.3l-1.1-0.4c-0.2,0.2-0.3,0.5-0.4,0.8
					c-0.1,0.2-0.1,0.3-0.2,0.5c-0.3,0.7-0.7,1.6-1.3,2.3c-0.6,0.7-1.3,1.1-2,1.2c0.3,0.3,0.4,0.7,0.5,1.2c0.2-0.1,0.4-0.1,0.6-0.1
					c0.5,0,1,0.3,1.3,0.5c0.9,0.6,1.3,1.6,0.9,2.8c-0.1,0.4-0.3,0.9-0.6,1.2l1,1.1C228.5,118.2,228.3,118.5,228.3,118.8z
					 M166.6,87.6l1,1.8c2,3.6,4.1,5.8,6.9,6.9c1,0.4,1.9,0.9,2.9,1.4c0.6,0.3,1.2,0.6,1.9,0.9c0.7,0.3,1.2,0.9,1.5,1.3
					c0,0,0,0,0.1,0.1c0.1-0.1,0.2-0.1,0.2-0.1l0.2-0.1l1.3-0.1c1.6-0.2,3.2-0.4,4.9-0.4l-1.4-3c-0.3-0.7-0.4-1.5-0.3-2.2
					c-0.4,0.2-1,0.4-1.7,0.4c-1.2,0-3.4-0.4-4.3-1.5l-1.2-0.5l0.9-0.4c0-0.1,0-0.2,0-0.2l0-0.2c-1.3-1.7-3.2-2.2-5.2-2.8
					c-1.6-0.4-2.6-1.5-3.5-2.6c-0.9-1.1-2-2-3.2-2.7c-1.1-0.6-2.7-1.6-3.8-3.2c-0.3-0.5-0.8-0.7-1.3-0.7c-1.1,0-2-0.4-2.8-0.8
					c-0.1,0-0.1-0.1-0.2-0.1c0.1,0.2,0.1,0.4,0.1,0.6c0,0,0,0,0,0l2.4,0.4l-1.8,1.7c-0.4,0.3-0.7,0.5-1.1,0.7
					c0.1,0.2,0.2,0.4,0.3,0.6c0.3,0,0.7,0,1.3,0.1l2.7,0.5l-2.2,1.6l0.4,1.3c0.2,0.6,0.1,1,0,1.4c0.1,0,0.3,0,0.7-0.4l1.1-1l0.6,1.3
					c0.3,0.6,0.2,1.1,0.1,1.5c0.5,0.4,0.9,0.8,1.3,1.2c0.1-0.1,0.2-0.3,0.4-0.6L166.6,87.6z M187.9,99.3c0.6,0,1.2,0,1.7,0.1
					c0.6,0.1,1.3,0.2,1.9,0.3c0.7,0.1,1.4,0.2,2.1,0.3l-0.1-0.9l-1.1,0.7l0.1-2.2c0.1-2,0-3.2-0.3-3.5c0-0.1-0.2-0.2-0.8-0.2
					c-0.2,0-0.3,0-0.5,0c-2,0-2.6,0.4-2.7,2.1L187.9,99.3z M206.7,95.8l-0.5,3.8c0.2-0.2,0.2-0.5,0.2-0.9l0.6-0.2l-0.2-0.2l0.6,0.1
					l1.2-0.4c0.2,0.3,0.3,0.5,0.4,0.8l0.3,0.1l1.6-1.7l-0.4,2l0.4,0.1c0.2,0,0.4,0.1,0.6,0.1c0.3,0.1,0.6,0.2,0.7,0.2
					c0.2-0.2,0.3-0.4,0-1.4c-0.6-1.7-1.5-3.3-2.5-4.9c-1.2-2-1.3-4.1-0.4-6.6l2.2,0.7c-0.5,1.8,0.2,3.2,1.1,4.7
					c-0.1-1-0.1-1.9,0-2.6c0.1-1.5,0.7-2.6,1.8-3.2c0.4-0.2,1-0.4,1.5-0.4c1.2,0,2.3,0.7,2.7,1.7c0.2,0.6,0.2,1.2,0.1,1.6
					c0.6-0.7,0.7-1.5,0.4-2.7c-0.2-0.9-0.7-1.8-1.3-2.8c-0.2-0.3-0.3-0.6-0.5-0.8l-0.4-0.7c-0.5,0.6-1.2,1-2.1,1.3
					c-0.8,0.3-1.6,0.4-2.4,0.4h0c-1.9,0-3.4-0.8-4.1-2.3c-0.9-1.9-1.1-3.8-1.1-5.2c0-0.3,0-0.6,0-0.9c0-1,0-2-0.4-3l-0.4-1
					c-0.8,0.2-1.9,0.1-2.7-0.1c-0.4-0.1-0.8-0.2-1.1-0.2l-2.7-0.2l1.5-1.5l0.2-1.4c0-0.1,0-0.1,0-0.2c-0.1-0.4-0.3-1,0-1.7
					c0.2-0.5,0.7-0.8,1.3-1c0.1,0,0.2-0.2,0.3-0.2c0,0,0.1-0.1,0.1-0.1c-0.4-0.2-0.8-0.3-1.3-0.3l-2.5-0.3l1.8-1.7
					c0.5-0.5,1-0.7,1.6-0.7c0.5,0,1,0.2,1.3,0.3l0.3,0.1c1.3,0.7,2.7,1.4,4.1,2.1c0.7,0.4,1.1,1,1.3,1.6c0.2,0.6,0.1,1.2-0.2,1.8
					c-0.1,0.2-0.2,0.4-0.2,0.4c0,0,0,0,0.1,0.1l0.1,0l0.1,0.1c0.8,0.2,1.2,0.8,1.5,1.1l0.1,0.1c0.8,1.1,1.2,2.3,1.2,3.9l0,0.1
					c0,1.5-0.1,3,0.4,4.3c0.2,0.7,0.5,0.9,0.6,0.9c0.1,0,0.5-0.1,0.8-0.6c0.3-0.4,0.6-0.6,0.9-0.6l0.5-2.7l1.1,2.4
					c0-0.2,0.1-0.4,0.2-0.5c0.2-0.2,0.5-0.6,1.2-0.6c-1.2-1.4-1.6-3-1.3-4.9l0.3-1.4l1.3,0.6c0.2,0.1,0.4,0.1,0.6,0.3
					c0.2-0.6,0.1-1.3-0.1-2.2c-1-3.2-2.5-5.6-4.8-7.1c-0.2-0.1-0.3-0.3-0.4-0.4l-1.1-1l0.8-0.6c-1-0.8-2.2-1.1-3.5-1
					c0.7,0.7,1.4,1.4,2,2.3l-1.7,1.5l-0.6-0.6c-1-0.9-2-1.7-3-2.4c-0.8-0.6-1.7-0.9-2.8-1c-0.9-0.1-1.7,0.1-2.3,0.5l1.8,0.1
					l-1.7,1.8c-0.8,0.9-1.8,1.4-3,1.7l-0.3,0.1c-0.5,0.1-1,0.3-1.6,0.3l-1.7,1.9c0,0,0,0,0.1,0c0.2,0.2,0.5,0.3,0.9,0.6l0.9,0.6
					l-0.5,0.9c-0.3,0.6-0.7,1-1.2,1.2c0.1,0.2,0.1,0.4,0.1,0.6l-0.2,1.7l-1.5-0.8c-0.5-0.3-1.2-0.7-1.5-1.2c0.2,0.5,0.5,0.8,0.9,1
					c1.1,0.5,1.6,1.6,1.5,2.8l-2.2,0.3c-0.1-0.2-0.3-0.4-0.7-0.6c0,0.2,0.1,0.5,0.1,0.6c0,0.2,0,0.5,0.1,0.5
					c0.4,0.5,0.4,1.1,0.4,1.5c0,0.2,0,0.4,0,0.6c0.1,0.7,0.2,1.7-0.5,2.6c1.5-0.4,2.5-1.4,3.4-3.5c0.1-0.1,0.1-0.3,0.2-0.4l0.1-0.3
					l2.2,0.5c0,1.2-0.4,2.3-1,3.3l1.3,0.7c1.2,0.6,2,1.5,2.3,2.6c0.3,1,0.2,2-0.3,2.9c-0.4,0.7-1,1.4-1.8,2
					c-1.8,1.4-2.4,2.5-2.1,4.1l-2,0.9c-0.8-1.1-0.6-2.3-0.5-3c0.3-1.9,1.3-3.5,3.2-4.9c1.1-0.9,1.2-1.2,1.2-1.3s0-0.4-1.1-1.3
					c-0.3-0.3-0.4-0.7-0.4-0.9l-0.2-1.1c-1,1.3-2.4,2.2-4,2.4c-0.1,0-0.3,0-0.5,0c-0.2,0-0.5,0-0.5,0.1c0,0,0,0.1-0.1,0.2
					c-0.1,0.6-0.5,0.9-0.8,1.1c0,0.6-0.3,1.2-1,1.6c-1.4,0.9-3,1-4.4,0.4c-0.3,0.5-0.8,1-1.7,1.3c-0.3,0.1-0.5,0.3-0.6,0.5
					c0.3,0,0.6,0,0.8,0.1c0.6,0.2,2.1,0.8,2.1,3.1c0,0,0,0.1,0,0.1c0.7-0.6,1.5-0.9,1.9-1.1c0.2-0.1,0.4-0.2,0.7-0.2
					c0.5-0.2,0.9-0.3,1.3-0.6l2.5-2.4l-0.6,3.4c-0.3,1.7-1.5,2-2.1,2.2c-1.6,0.5-2.4,0.9-2.7,1.9c0.4-0.3,0.8-0.6,1.3-0.8
					c1.9-0.7,3.5-0.8,5-0.2c1,0.4,1.5,1,1.8,1.7c0.3-0.3,0.7-0.4,1.1-0.4c0.3,0,0.6,0.1,0.9,0.2l-0.3,2.2c0,0-0.1,0-0.1,0
					c0,0,0,0.1,0,0.1l0.6,0.1c0-0.4,0.1-0.7,0.4-1.1c0.3-0.4,0.8-0.7,1.4-0.7c0.3,0,0.6,0.1,0.8,0.1c0.1,0,0.1,0,0.2,0.1
					c1.8,0.3,3.4,1.1,4.7,2.4c0.2-0.1,0.4-0.2,0.6-0.2L206.7,95.8z M215.6,88.1c-0.2,0-0.3,0-0.4,0.1c-0.2,0.1-0.4,0.3-0.5,0.8
					l0.8-0.3c0.6-0.2,0.7-0.4,0.7-0.4C216.1,88.2,215.9,88.1,215.6,88.1z M156.7,82.5c-0.3,0.2-0.7,0.4-0.9,0.7
					C156.7,83,156.7,83,156.7,82.5z M217.6,80c-0.1,0.4-0.2,0.8-0.4,1.2l0.5-0.1c0.1,0,0.2,0,0.3-0.1
					C217.8,80.6,217.7,80.3,217.6,80z M207.7,70.5l0.6,0.4c1.1,0.8,1.2,1.9,1.3,2.6l0,0.1c0.1,0.6,0.1,1.2,0.1,1.8
					c0,1.1,0.1,2.2,0.4,3.1c0.3,1.1,0.8,1.7,1.3,1.9c-0.4-0.4-0.6-0.9-0.7-1.2c-0.6-1.5-0.9-3.1-0.8-4.8c0.1-1.8-0.2-3.1-1.2-4.1
					l0,0C208.4,70.4,208.1,70.4,207.7,70.5z M157,78.7c-0.4,0-0.7,0-1,0.1C156.3,78.8,156.6,78.8,157,78.7
					C156.9,78.8,156.9,78.8,157,78.7z M186.5,77.2c-0.1,0.3,0,0.5,0.1,0.7c0.1,0.2,0.3,0.3,0.6,0.4c0.3,0.1,0.5,0.2,0.7,0.3
					c0.5-0.5,1.3-0.5,1.8,0c0,0,0,0,0,0c0,0,0,0,0.1,0c-0.4-0.1-0.7-0.4-1-0.6c-0.2-0.1-0.4-0.3-0.5-0.3l-0.2-0.1
					c-0.2-0.1-0.5-0.2-0.6-0.2c-0.2,0-0.4,0-0.6-0.1C186.7,77.2,186.6,77.2,186.5,77.2z M203.7,68.4c0.4,0,0.8,0,1.2,0.1l0.2,0
					c0.9,0,1.8-0.7,2-1.5c0-0.1,0-0.1,0-0.2c-0.4-0.2-0.9-0.4-1.2-0.6c-0.3,0.3-0.7,0.6-1.1,0.8c-0.5,0.3-0.9,0.6-1,0.9
					C203.8,68.2,203.7,68.3,203.7,68.4z M189.5,64.5l1.4,0.9c0.9,0.5,1,1.4,1.1,1.9l0,0.1c0,0.1,0,0.1,0,0.2c0-0.4,0.2-0.7,0.4-0.9
					c0.1-0.1,0.1-0.1,0.1-0.1c0,0-0.1-0.2-0.1-0.3c-0.1-0.2-0.2-0.5-0.2-0.8c-0.1-0.5-0.1-1,0.1-1.5c-0.4,0.1-0.8,0.2-1.1,0.2
					C190.6,64.3,190,64.4,189.5,64.5z M187.9,64.8c0.1,0.2,0.3,0.5,0.3,0.8c0,0.2,0.1,0.4,0,0.6c0.3-0.1,0.6-0.2,0.9-0.1l0-1.6
					C188.7,64.6,188.3,64.7,187.9,64.8z M194.5,62.8c-0.2,0-0.3,0.1-0.4,0.2c0,0,0,0,0,0c0.1,0,0.2,0,0.3,0l0.8,0
					C194.9,62.9,194.7,62.8,194.5,62.8C194.5,62.8,194.5,62.8,194.5,62.8z"/>
			</g>
			<g>
				<path class="st21" d="M175.4,157.9c-0.7,0-1.4-0.3-2.2-0.9l-0.4-0.3c-0.9-0.8-1.9-1.6-2.7-2.5c-0.1-0.1-0.1-0.1-0.2-0.2
					c0,0,0,0,0,0c-0.5,0.3-1,0.4-1.4,0.4c-0.6,0-1.7-0.2-2.3-1.8c-0.1,0-0.1,0-0.2,0c-0.2,0-0.9-0.1-1.3-0.9c-0.1-0.3-0.2-0.6-0.2-1
					c-1-0.3-1.6-1.1-1.7-2.2c0-0.4-0.1-0.5-0.1-0.5c0,0-0.1,0-0.5-0.1l-1.6,0l0.5-1.5c0.6-1.8,2.2-2.9,3.9-2.9
					c0.6,0,1.2,0.2,1.8,0.5c1.8,1,3.1,1.4,4.4,1.2c1.8-0.2,3.2,0.4,4.2,1.8c0.5,0.6,1.1,1,1.9,1c0.6,0,1.2,0,1.7,0.1
					c0.6,0,1.2,0.1,1.8,0.1c1.1,0,1.9-0.1,2.7-0.4l0.5-0.2c0,0,0.1,0,0.1,0c0-0.1-0.1-0.3-0.1-0.4l-0.3-1c-0.6-1.8-1.2-3.7-1.6-5.6
					c-0.6-2.8-1.1-5.5-0.9-8.4c0.3-4.3,3-6.6,7.2-6.2c2,0.1,3.8,0.6,5.7,1.1l0.8,0.2c0.9,0.2,1.7,0.8,2.2,1.8c0.6,1,0.7,2.2,0.4,3.3
					c0,0,0,0.1,0,0.1c2.2,0.1,3.3,1.5,4.2,3.7c0.4,1,0.7,2.1,1,3.4c0.5,2.4,0.1,3-2.2,3.6c-0.4,0.1-0.7,0.2-1,0.3
					c-0.9,0.3-2,0.7-3.2,0.8l-0.2,0.3c-1.1,1.4-1.4,2.4-1.2,4.1c0.1,0.7,0.3,1.4,0.4,2.1c0.2,0.7,0.3,1.3,0.4,2
					c0.2,1.3,0,2.4-0.6,3.3c-0.6,0.9-1.7,1.5-2.9,1.7c-0.9,0.1-1.5,0-1.8-0.3c-0.5,0.5-1.1,0.8-2,0.8c-0.7,0-1.4-0.2-2.4-0.4
					c-2.5-0.5-5.1-0.8-7.7-0.7c-0.3,0-0.7,0-0.8,0.2C176.8,157.6,176.1,157.9,175.4,157.9z M170.4,151.7c0.6,0.1,1.1,0.6,1.3,0.9
					c0.8,0.8,1.6,1.5,2.5,2.3l0.4,0.3c0.4,0.3,0.6,0.4,0.7,0.4c0.2,0,0.3-0.2,0.5-0.3c0.1-0.1,0.2-0.1,0.2-0.2l-0.3,0l2.5-2.3
					c0.8-0.8,1.7-1,2.7-0.8l0.2,0c0.8,0.1,1.6,0.3,2.5,0.4c0.1,0,0.2,0,0.2,0c0.1,0,0.1,0,0.2-0.1c0.7-0.9,1.7-1.4,3-1.4l0.2,0
					l3.2,0.1l-2.6,2c-0.2,0.2-0.4,0.3-0.6,0.4c-0.2,0.1-0.4,0.2-0.4,0.3c-0.4,0.7-1,1.1-1.7,1.3c0.4,0.1,0.8,0.1,1.2,0.2
					c0.8,0.2,1.5,0.3,1.9,0.3c0.3,0,0.5,0,1.2-2l0.7-2l1.2,1.8c0.2,0.3,0.5,0.9,0.4,1.7c0.4-0.1,1-0.3,1.3-0.7
					c0.3-0.5,0.3-1.1,0.2-1.6c-0.1-0.4-0.1-0.7-0.2-1.1l-1,0c-0.2-1-0.6-1.8-1.1-2.8c-0.2-0.5-0.5-0.9-0.7-1.4
					c-0.8-1.9-0.9-3.9-0.3-6.1l0.3-1.1l-0.4-0.7l0.5,0.2l0.6-2.2l0.8,2.8l1.4,0.6c0.7,0.3,1.4,0.5,2.2,0.5c1.1,0,2.2-0.3,3-0.6
					c0.4-0.1,0.8-0.3,1.2-0.4c0.2-0.1,0.5-0.1,0.7-0.2c0-0.2-0.1-0.5-0.1-0.7c-0.2-1.1-0.5-2.1-0.9-3c-0.8-2-1.4-2.2-2.3-2.2
					c-0.4,0-0.8,0-1.3,0.1l-2.1,0.4l0.8-2c0.1-0.2,0.2-0.4,0.3-0.6c0.2-0.4,0.3-0.7,0.4-1c0.1-0.5,0.1-1-0.2-1.5
					c-0.1-0.2-0.4-0.6-0.8-0.7l-0.8-0.2c-1.8-0.4-3.5-0.9-5.3-1c-3-0.2-4.6,1.1-4.8,4.1c-0.2,2.6,0.3,5.1,0.9,7.8
					c0.4,1.8,1,3.6,1.6,5.4l0.3,1.1c0.6,1.9,0.5,2.7-1.3,3.3l-0.4,0.2c-1,0.4-2.1,0.6-3.5,0.6c-0.7,0-1.3,0-2-0.1
					c-0.5,0-1.1-0.1-1.6-0.1c-0.4,0-0.8-0.1-1.2-0.2l-1.7,0.8c-0.7-1.2-1.8-1.4-3.7-1.6c-0.4,0-0.8-0.1-1.2-0.1l0-0.4l-0.3,0.9
					c-0.8-0.1-1.3,0.1-1.8,0.5c0.2,0.1,0.4,0.2,0.6,0.4c0.2,0.2,0.3,0.2,0.3,0.2c0,0,0.1,0,0.3-0.2L170.4,151.7z M164.1,146.3
					c0.5,0.4,1,1,1,2.2c0,0.1,0,0.1,0,0.1c0,0,0,0,0.1,0c0.1,0,0.4,0,0.7-0.4c0.4-0.4,1-1,1.9-1.1c-0.8-0.3-1.5-0.7-2.2-1
					C165.4,145.8,164.7,145.8,164.1,146.3z M192.4,143.2c0,1,0,1.9,0.2,2.6c0.1-0.7,0.4-1.3,0.8-1.9
					C193,143.7,192.7,143.5,192.4,143.2z"/>
			</g>
			<g>
				<path class="st21" d="M169.5,121.6L169.5,121.6c-0.7,0-1.2-0.2-1.6-0.4c-0.3-0.1-0.6-0.2-0.8-0.2c-0.1,0-0.2,0-0.4,0.2
					c-0.7,0.6-1.9,0.4-2.4-0.4c-0.3-0.4-0.6-0.8-1-1.2c-0.8-0.8-1.6-1.6-2-2.9c-0.2-0.5-0.2-1-0.3-1.5c-0.1-0.8-0.3-1.5-0.7-2
					c-0.5-0.6-0.4-1.4-0.3-1.6c0.1-0.4,0.2-0.8-1-1.2l-1.7-0.6l1.2-1.3c0.2-0.2,0.4-0.3,0.6-0.5c-0.7-1.2-1-2.5-0.8-3.5
					c0.1-0.6,0.4-1.1,0.8-1.5c-0.3-0.4-0.5-0.8-0.4-1.2c0.1-0.9,1-1.2,1.4-1.3c0.4-0.1,0.8-0.2,1.1-0.2c1.9,0,3.5,1.4,3.7,3.3
					c0,0.3,0,0.3,0.4,0.5c1.9,0.9,3.7,3,3.4,5c1.1-0.1,2.1-0.6,3-1.2c1.1-0.7,2.2-1.4,3.4-2.2l3.2-2.1l0.2,2.2c0,0.2,0,0.4,0.1,0.6
					c0.1,2.7,0.5,4.5,1.9,5.9c0.6,0.5,0.6,1.1,0.6,1.4c-0.1,0.7-0.7,1.1-1,1.2l-0.1,0c-1.6,1-3,1.9-4.3,3l-0.1,0.1
					c-0.4,0.4-1,0.8-1.8,0.9c-0.4,0-0.5,0.2-1,0.7l-0.1,0.1C171.7,121,170.6,121.6,169.5,121.6z M167,118.6c0.6,0,1.2,0.2,1.6,0.4
					c0.3,0.1,0.6,0.2,0.8,0.2l0,1.2v-1.2c0.6,0,1-0.4,1.3-0.8l0.1-0.1c0.1-0.1,0.2-0.3,0.4-0.4c-0.3,0.1-0.7,0.1-1.1,0.1
					c0,0,0,0,0,0c-0.4,0-0.8,0-1.3-0.1l0.3-2.3c1.2,0.1,2-0.4,2.9-1.2l-3.7,0.7l-0.9-2c1.2-1,2.6-1.1,3.8-1.1l1.1,0l0.1,2.1
					c0.1-0.1,0.2-0.2,0.3-0.2c0.5-0.5,1.1-1,1.7-1.5l1.5,1.7l-0.4,0.4c-0.7,0.8-1.4,1.7-2.2,2.3c0,0,0,0,0,0c0,0,0.3-0.2,0.4-0.4
					l0.1-0.1c1.2-1,2.5-1.9,4-2.8c-1.4-1.8-1.9-3.8-2-5.8c-1.2,0.8-2.3,1.5-3.4,2.2c-1.2,0.7-2.6,1.5-4.3,1.5l-0.2,0
					c-0.3,0-1.1,0-1.6-0.7c0,0,0,0,0-0.1c0,0.2,0,0.3,0,0.5c0,0.2,0,0.5,0,0.7c0,0.8-0.1,1.5,0.3,2.1l1.4,2.5l-2.7-0.8
					c-1-0.3-1.6-1.1-1.7-2.1c0-0.8-0.1-1.6,0-2.5c0.1-0.6-0.1-0.9-0.6-1.1c-0.1,0-0.3,0-0.4,0c-0.3,0-0.6,0-1-0.1
					c0.4,0.7,0.4,1.5,0.3,2c0.7,0.9,0.9,2,1,2.9c0.1,0.4,0.1,0.8,0.3,1.2c0.2,0.8,0.8,1.3,1.5,2c0.3,0.3,0.6,0.6,0.9,1
					C166.1,118.8,166.5,118.6,167,118.6z M163,107.2c1,0,1.8,0.3,2.4,1c0.3,0.3,0.6,0.8,0.8,1.3c0-0.2,0.1-0.3,0.1-0.4
					c0.2-0.6-0.7-2-2.1-2.6c-1-0.5-1.6-1.2-1.7-2.3c-0.1-0.6-0.4-1-0.9-1.2c0.1,0.3,0.2,0.5,0.2,0.8c0,0.4,0,0.6,0.7,0.8l0,2.2
					c-0.8,0.2-1.4,0.1-1.8-0.1c0.1,0.3,0.3,0.5,0.5,0.8C161.8,107.3,162.5,107.2,163,107.2z"/>
			</g>
			<g>
				<path class="st21" d="M189,76.9l-0.2,0c-1.4-0.2-2-0.9-2-2.1c0-1.4,2.5-2.9,3.5-2.9l0.3,0c1.6,0.3,1.7,1.7,1.7,2.3
					c0,0.1,0,0.2,0,0.3c0.2,0.8,0,1.4-0.3,1.7c-0.2,0.3-0.7,0.8-1.8,0.6c-0.2,0-0.4,0-0.5,0c-0.2,0-0.3,0-0.5,0L189,76.9z"/>
			</g>
			<g>
				<path class="st21" d="M185,77.1l-0.3,0c-1.3-0.3-2-1.1-2.2-2.3c-0.1-0.4,0.1-0.9,0.3-1.2c0.4-0.5,1.2-0.6,1.8-0.2
					c0.1,0.1,0.3,0.2,0.5,0.3c0.5,0.2,1.2,0.6,1.6,1.4c0.2,0.4,0.2,0.9-0.1,1.3C186.3,76.8,185.7,77.1,185,77.1z"/>
			</g>
			<g>
				<path class="st21" d="M188.1,73.3c-0.8,0-1.5-0.2-2.1-0.5l-2.3-1.3l2.5-0.8c0.7-0.2,1.6-0.3,2.5-0.2c0.2,0,0.3,0,0.5,0l0-0.1
					l1,0l2.2-0.2l-1.1,1.3l1,1l-2.2,0.2C189.6,73.1,188.9,73.3,188.1,73.3z"/>
			</g>
			<g>
				<path class="st21" d="M163,153l-0.6-1.4c-0.4-1-0.4-2,0.1-3.1l0.7-1.5l1.1,1.1c0.5,0.5,1.1,1.2,1,2c-0.1,0.8-0.7,1.4-1.2,1.8
					L163,153z"/>
			</g>
			<g>
				<path class="st21" d="M185.2,75.8l-0.7-2.7c0-0.1-0.2-0.2-0.4-0.5c-0.2-0.2-0.4-0.4-0.6-0.6l-2.2-2.4l3.2,0.5
					c1.5,0.2,2.2,0.4,2.6,1.2c0.3,0.8-0.1,1.4-0.5,2.1L185.2,75.8z"/>
			</g>
			<g>
				<path class="st21" d="M190.4,78L190.4,78c-0.2,0-0.3,0-0.4-0.1l-0.1,0c-1.3-0.1-1.6-1-1.6-1.5c0-0.4,0.1-0.8,0.4-1.1
					c0.5-0.5,1.1-0.5,1.4-0.5h0.3l0.1,0.1c0.3,0,0.8,0.1,1.2,0.5c0.2,0.2,0.4,0.6,0.3,1.2C191.9,77.4,191.3,78,190.4,78z
					 M190.1,77.1C190.1,77.1,190.1,77.1,190.1,77.1c0.2-0.1,0.4-0.4,0.4-0.8c0-0.3-0.2-0.5-0.3-0.6c-0.2,0.1-0.4,0.4-0.5,0.6
					c0,0.1,0,0.2,0,0.3l0.3-0.6L190.1,77.1z"/>
			</g>
		</g>
		<g>
			<g>
				<path class="st23" d="M186.8,66.5c0.3-0.1,0.4-0.4,0.3-0.7c-0.1-0.6-0.6-0.8-1.2-0.7c0.2,0.3,0.8,0.3,0.7,0.6
					c-0.1,0.4-0.6,0.6-1,0.5c-0.7-0.2-1.2,0.1-1.8,0.3c-0.5-1-0.1-1.5,0.7-1.9c2-0.9,4.2-1.3,6.4-1.6c0.9-0.1,1.6-0.3,2.2-1
					c0.4-0.4,0.9-0.6,1.5-0.5c1.3,0.4,2.6,0,3.8-0.3c0.9-0.2,1.7-0.6,2.4-1.4c-0.7,0-1,0.8-1.7,0.4c-0.5-0.3-0.4-1-0.7-1.4
					c-0.5,0.3-0.2,0.8-0.4,1.1c-0.6-1.5-0.1-2.2,1.9-2.5c0,0.5-0.7,0.8-0.1,1.4c1.1-1.4,2.5-1.9,4.2-1.7c1.2,0.1,2.3,0.5,3.3,1.2
					c1.3,0.9,2.5,2,3.7,3.1c-0.8-1.4-2.2-2.3-3.4-3.5c3.2-1.3,6.2-0.4,8,2.2c-0.4,0.1-0.8-0.3-1.3,0c0.1,0.1,0.2,0.2,0.3,0.3
					c2.8,1.9,4.3,4.6,5.3,7.7c0.3,1.2,0.5,2.4-0.1,3.5c-0.2,0.5-0.5,1.2-1.1,1.1c-0.6,0-0.2-0.8-0.4-1.2c0-0.1-0.1-0.1-0.3-0.1
					c-0.3,1.9,0.3,3.4,1.6,4.6c0.3,0.3,0.9,0.5,0.8,0.9c-0.2,0.4-0.8,0.4-1.3,0.5c-0.2,0-0.3,0.1-0.5,0c-1.2-0.4-0.9,0.3-0.7,1
					c0.3,1.3,0.9,2.6,1.5,3.9c-0.7,0-1.2-0.5-1.9-0.4c0.7,1.3,1.6,2.5,1.9,3.9c0.3,1.5,0.2,3-1,4.1c-1,1-2.1,0.8-3-0.3
					c1.2-0.4,1.7-1.1,1.3-1.9c-0.3-0.8-1.6-1.2-2.6-0.7c-0.9,0.5-1.1,1.3-1.2,2.2c-0.1,2.8,0,5.5,3.3,6.6c-1.1,0.4-3.5,0.1-3.8-0.4
					c-1.1-2.8-3.8-5.1-2.8-8.7c-0.7,1.9-0.8,3.8,0.3,5.5c1,1.7,2.1,3.3,2.7,5.2c0.3,0.8,0.5,1.7-0.2,2.5c-0.6,0.7-1.4,0.3-2.4,0.1
					c0.9,0.8-0.2,1-0.1,1.5c0.1,0.6,0.2,1.1,0.4,1.6c0.1,0.3,0.2,0.6,0.4,1c-1.6-0.5-2.7-2.1-2.4-3.5c-0.6,0.7-1.2,1-2.1,0.6
					c0.8-0.7,1.7-1.4,0.8-2.8c0.2,1.6-0.7,2.2-1.9,2.5c0.4,0.7,0.9,0.9,1.5,1c1.5,0.2,2,0.8,2,2.4c0,1,0,2.1,0,3.1
					c0.1,3,1,5.6,3.4,7.6c1.5,1.2,2.9,2.7,4.4,4c3.1,2.6,4.9,6,6,10c1.1,4,3.4,7.4,7.1,9.6c7.4,4.3,18-0.5,20-9.2
					c1.9-8.4,0.1-16.2-5.6-22.8c-3-3.4-6.2-3.9-10.2-1.9c-2.2,1.1-4.3,4.2-4.3,6.5c0.5-0.7,0.6-1.6,1.3-2.1c0.6,2.5,1.4,2.9,3.1,1.3
					c-0.1,1.4-0.5,2.4-1.7,2.9c-0.7,0.3-0.6,0.5-0.3,1c0.3,0.4,0.5,0.8,0.6,1.3c0.3,1-0.1,1.9-1.1,2.3c-0.2-0.3,0-0.6,0-0.9
					c-0.1-0.4-0.2-0.7-0.6-0.8c-0.4-0.1-0.5,0.3-0.7,0.6c-0.4,1,0.2,2.9,1.3,3.8c1,0.8,2.4,1,3.3,0.3c0.6-0.4,1.1-1,0.6-1.8
					c-0.5-0.8-1,0-1.5,0.3c-0.3-1,0-1.4,0.9-1.4c1.9,0,2.9,1.5,2.1,3.3c-0.3,0.8-0.9,1.3-1.5,1.8c-0.5,0.4-1,0.4-1.4-0.2
					c0.3-0.4,1-0.4,1.1-1.1c-1.9,1.4-3.4,0-5-0.7c0.7,1.1,1.7,1.7,2.7,2.2c3.6,1.9,4.2,6.8,1.1,9.5c-0.5,0.5-1.1,0.8-1.8,0.4
					c-0.2-0.1-0.4-0.3-0.2-0.4c0.8-0.4,0-0.4-0.1-0.4c-0.9-0.4-1-1.2-0.8-2c0.3-0.9,0.7-1.8,2-1.8c-0.2,0.6-0.7,1.1-0.3,1.6
					c0.2,0.2,0.4,0.3,0.6,0.2c0.6-0.3,0.7-0.9,0.8-1.5c0.2-1.4-0.6-2.3-1.6-3c-1.4-1-2.8-2.1-3.4-3.9c-0.2-0.7-0.2-0.2-0.4,0.1
					c-0.2,0.3-0.4,0-0.6-0.1c-0.5-0.4-0.8-0.9-1.1-1.4c-0.5-1.2-0.2-2.2,0.6-3.2c-0.9,0.7-1.8,1.3-2.9,0.7c0.2-0.5,0.7-0.6,1-0.8
					c0.6-0.4,1-1,1.2-1.7c0.2-0.6,0-1.1-0.5-1.5c-0.3-0.2-0.6-0.4-1-0.1c-0.6,0.5,0.2,0.9,0.2,1.3c-1.4,0.2-2.1-0.5-1.6-1.7
					c0.4-0.9,0.1-1.2-0.6-1.6c-0.9-0.6-1-1.6-0.5-2.6c0.8,1.5,1.9,1.6,3.1,0.3c0.7-0.7,1-1.6,1.4-2.5c0.9-1.9,2.8-3.3,4.4-3.3
					c-2,1.8-2.1,2-2.3,3c1.3-2,3.2-3.1,5.2-3.9c4.1-1.5,7.8-0.3,10.7,2.8c6.1,6.6,8.1,14.7,6.6,23.4c-1.5,8.8-9.6,14.6-18.9,14
					c-3.7-0.2-7-1.3-10.1-3.4c-0.5-0.4-0.9-0.8-0.8-1.5c0.4-0.1,0.5,0.5,0.9,0.2c-2.4-2.7-3.1-6.4-5.8-8.7c0.2,0.5,0.6,1,0.9,1.5
					c0.3,0.6,0.6,1.1,0.9,1.7c2.9,6.1,3.6,12.3,1.8,18.9c-0.4,1.5-0.7,2.9-0.7,4.8c0.4-1,0.4-1.9,0.9-2.7c0.9,2.7,2,5.2,3.9,7.1
					c1.2,1.3,1.9,2.4,1.6,4.4c-0.5,3.4-0.6,6.9-0.3,10.3c0.3,3.2-1,5.5-3.6,7.2c-0.2-0.5,0.3-1.2-0.5-1.7c0.2,1.6-0.5,2.7-1.3,3.8
					c-0.2,0.3-0.2,0.8-0.6,0.7c-0.4-0.1-0.4-0.6-0.5-1c-0.2-0.8,0.3-1.6,0.1-2.4c-0.5-1.8,0.2-3.2,2-3.7c0.6-0.2,1.1-0.4,1.2-1.5
					c-0.4,0.5-0.5,0.8-0.9,0.8c-2,0.4-2.7,1.7-3,3.5c-0.1,0.9-0.8,1.3-1.6,1.3c-0.5,0.1-0.9,0-0.7-0.8c0.2-0.5,0.4-1-0.1-1.6
					c0,1.2-0.2,2.2-1.7,1.7c-0.3-0.1-0.7,0.2-0.9,0.4c-0.5,0.5-0.7,0.2-0.7-0.3c-0.1-0.9,0.1-1.8,0.7-2.6c-1,0.5-0.9,1.5-1.3,2.4
					c-0.7-1.1-0.7-2.4,0.2-3c1.4-0.8,2.8-1.6,4.4-1.8c0.7-0.1,1-0.3,1.2-0.9c0.2-0.6,0.3-1.2,0.3-1.9c0.2-3.1-0.3-6.2-0.3-9.4
					c0-0.4-0.1-0.7-0.5-0.9c-2.3-1.3-4.2-3-6.2-4.7c-2.5-2.1-4.4-4.6-5.6-7.6c-1.2-2.9-2.3-5.8-3.9-8.5c-0.3-0.5-0.4-1.1-0.5-1.7
					c-0.3-2-0.6-4-1.2-5.9c-1-3.5-3-6.2-6.1-8.1c-1.4-0.8-2.7-1.7-4-2.6c-3-2.1-5.7-4.6-6.9-8.2c-0.6-1.8-1.6-3.2-2.9-4.3
					c-3.6-3-4.2-6.9-3.8-11.3c0-0.4-0.1-1,0.4-1.1c0.4-0.1,0.9,0.3,1.2,0.7c0.2,0.2,0.3,0.4,0.5,0.6c0.7,0.7,1.6,1.2,2.9,1.2
					c-0.7-0.9-0.4-1,0.4-1.2c0.9-0.2,1.9-0.3,2.8-0.4c2.4-0.1,4.7,0.1,7.1,0.5c1.9,0.3,3.5,0,4.8-0.9c-3,1.1-5.6,0.2-8.2-0.1
					c-2.7-0.3-5.3,0.1-7.9,0.4c-0.4,0.2,0.2,0.6-0.1,0.9c-1.2-0.3-1.6-1.7-2.7-2.1c-1.6-0.7-3.1-1.6-4.7-2.3
					c-3.4-1.5-5.6-4.2-7.4-7.4c-0.8,1.5-1.5,1.8-2.2,0.9c-0.6-0.8-1.3-1.3-2.1-1.8c0.3-0.4,0.9-0.6,0.6-1.2c-1.1,1-1.7,0.9-3.2-0.1
					c0.2-0.5,1-0.6,0.7-1.3c-1,0.9-1,0.9-4,1.3c-1,0.1-1.2-0.2-0.8-1.1c0.2-0.4,0.5-0.7,0.9-0.9c1.1-0.5,2.2-0.8,3.5-0.3
					c-1.4-1-0.1-1.1,0.4-1.5c-1.2-0.2-1.2-0.2-1.8,0.4c-0.4,0.4-1.9,0.8-2.5,0.6c2.4-1.1,2.5-1.3,1.8-2.4c-0.2,2.7-2.7,1.1-3.8,2.4
					c-0.2-2.1,1.8-3.9,3.8-3.9c0.5,0,0.9-0.2,1.4-0.6c-0.7-0.1-1.2,0.4-2,0.1c0.7-0.3,1.1-0.7,0.9-1.5c-0.4,0.5-0.6,1-1.3,1
					c-1.2-0.1-2.3,0.3-3.2,1.4c0.1-2.8,0.9-3.7,3.3-3.8c0.1,0,0.3,0,0.3,0c0.6-1.4,1.4-0.3,2,0c1,0.4,1.9,1,3,1
					c0.9,0,1.7,0.5,2.2,1.2c0.9,1.3,2.1,2.1,3.4,2.9c1.4,0.8,2.5,1.8,3.5,3c0.8,1,1.7,1.9,2.9,2.2c2.2,0.6,4.3,1.2,5.8,3.2
					c0.5-1,0.7-2,1.9-0.9c0-0.6,0-1.1,0-1.6c0-0.4,0.2-0.9,0.7-0.9c0.6,0,0.8,0.3,1,0.8c0.4,1.3-0.5,2.8-1.8,3.2
					c-0.5,0.2-1.1,0.2-1.6,0.3c0,0.1,0,0.2,0,0.3c0.6,1,4,1.5,4.8,0.8c0.1-0.1,0.2-0.2,0.2-0.3c0.2-2.2,1.8-2.8,3.6-3.3
					c0.5-0.2,1.1-0.4,1.3-1.3c-0.8,0.7-1.6,0.8-2.4,1.1c-1.3,0.5-2.4,1.2-2.6,2.8c0,0.3-0.2,0.5-0.5,0.6c-1,0.2-2.1,0.4-3.3-0.1
					c0.5-0.2,0.9-0.4,1.2-0.5c1.1-0.6,1.8-1.6,1.8-2.9c0-0.9-0.2-1.7-1.2-2c-1-0.3-1.4,0.5-1.7,1.3c0,0-0.1,0-0.2,0
					c-0.6-1.4,0-3.6,1.6-4.1c1.3-0.5,1.3-1.1,1-2.1c0,0,0.1-0.1,0.1-0.2c1.4,1.4,3.1,1.7,4.7,0.7c0.8-0.5,0.4-1.3,0.2-1.9
					c0.4-0.3,1,0.7,1.1,0c0.3-1.3,1.3-1.1,2-1.2c2.3-0.3,4.5-2.8,4.6-5.4c-0.1,0.3-0.2,0.5-0.3,0.6c-0.9,2.3-2.3,4-4.9,4.3
					c-0.4,0-0.9,0.2-1.2,0.4c-0.5,0.4-1,1-1.5,0c-0.1-0.1-0.2-0.2-0.3,0c-0.5,1-1.2,0.1-1.7,0c-1.1-0.3-1.8-1.4-1.5-2.6
					c0.3-1.1,1.3-0.7,2.1-0.6c0.4,0,0.8,0.2,1.1,0.3c0.8,0.3,1.5,1.4,2.3,0.8c0.8-0.6,0.4-1.8,0.4-2.7c0-0.2,0-0.5-0.1-0.7
					c-0.6-0.8,0.1-2.3-1.3-2.7c-0.2-0.8-0.4-1.5-0.3-2.4c0.1-0.5-0.1-0.9-0.4-1.2c-0.3-0.3-0.4-0.5-0.9-0.1c-0.7,0.5-1.6,0.6-2.5,1
					c0.7,0.1,1.2-0.2,1.8-0.4c0.6-0.2,1.2-0.4,1.4,0.4c0.2,0.8,0,1.3-0.8,1.5c-0.4,0.1-0.7,0.2-1.2,0.3c1,0.4,2.2-0.5,2.8,0.8
					c-0.1,0.2-0.2,0.3-0.2,0.5l0,0c-0.4-0.4-0.9-0.2-1.3-0.3c-1,0-1.9,0-2.9-0.2c-1.7-0.4-2.6-2-1.8-3.6c0.2-0.3,0.3-0.6,0.2-1
					C184.9,66.9,185.8,66.7,186.8,66.5z M211.1,74.6c-0.1,1.4,0.1,2.9,0.7,4.2c0.3,0.7,0.8,1.5,1.7,1.4c1,0,1.8-0.4,2.2-1.4
					c-0.3-0.2-0.3,0.1-0.4,0.1c-1.4,1.5-2.8,1.2-3.4-0.7c-0.5-1.6-0.5-3.2-0.5-4.9c0-1.2-0.2-2.2-0.9-3.1c-0.3-0.4-0.6-0.9-1.2-0.8
					c-0.9-0.5-1.2-1.2-0.6-2.2c0.4-0.7,0-1.5-0.7-1.8c-1.4-0.8-2.9-1.5-4.3-2.2c-0.5-0.2-1-0.4-1.6,0.2c2.2,0.3,3.7,1.7,5.5,2.5
					c0.7,0.3,0.8,0.9,0.6,1.5c-0.4,1.4-1.9,2.5-3.3,2.4c-0.5,0-1.1-0.1-1.6-0.1c-0.3,0-0.5,0.1-0.8,0.3c1.4,0.1,2.9,0.9,4.2,0
					c1-0.6,1.8-0.8,2.8-0.4C210.9,70.8,211.3,72.6,211.1,74.6z M208.1,76.2c0,1.6,0.2,3.2,1,4.7c0.8,1.6,2.8,2.1,5.1,1.3
					c1.6-0.5,2.5-1.8,2.3-3.3c0-0.1-0.1-0.1-0.1-0.2c-0.4,2.3-1.3,3.1-3.6,3.2c-1.9,0.1-3.1-0.9-3.7-3c-0.5-1.7-0.4-3.4-0.5-5.1
					c-0.1-0.6-0.1-1.3-0.9-1.8C208.3,73.4,208.1,74.8,208.1,76.2z M191.4,92.7c2,0.1,2.5,1.2,2.2,5c0.8-0.5,1.2-1.1,1.6-1.9
					c0.3-0.7,0.1-1.7,1.3-1.8c-0.9-0.3-0.9-0.3-2.2,2.3c-0.2-1.6-0.2-3.2-1.8-3.8c-1.4-0.6-2.8-0.3-4.1,0.2c-1.5,0.6-2,1.9-1.4,3.2
					C187.3,93,188.9,92.6,191.4,92.7z M197.6,84.7c0.6-0.5,1.2-1,1.5-1.7c0.8-1.4,0.2-3.1-1.5-3.9c0,0.1,0,0.2,0,0.2
					c1.9,1.8,1.9,2.7-0.2,4.4c-1.4,1.1-2.5,2.4-2.7,4.2c-0.1,0.7-0.2,1.4,0.3,2.1C194.6,87.6,195.9,86,197.6,84.7z M205.3,97.1
					c-0.6,0.1-0.4,0.6-0.7,0.9c-1.2-1.7-2.9-2.7-4.9-3.1c-0.4-0.1-1-0.4-1.3,0c-0.4,0.5,0,1,0.3,1.4c0.6,0.9-0.2,0.4-0.6,0.3
					c0.7,0.7,1.3,0.8,2,0.8c-0.1-0.5-0.5-0.7-0.8-1.1c-0.2-0.3-0.6-0.6-0.4-0.9c0.2-0.4,0.6-0.1,1-0.1c2.2,0.4,4,1.5,5.2,3.6
					C205.2,98.4,205.3,97.8,205.3,97.1z M193.9,67.6c0.6-0.3,1.3-0.5,1.7-1.2c-2.3-1.5-2.2-1.1-1.2-2.3c-1.1,0.1-1.1,0.2-1,1.2
					c0.1,0.7,0.8,1.4-0.1,2.2c-0.3,0.2,0.6,0.8,1.1,1.2C194.5,68.1,193.9,68.1,193.9,67.6z M223.8,162.5c-0.6-1.6-1.7-3-2.7-4.3
					c0.1,0.9,0.6,1.5,1.1,2.2c0.5,0.8,1,1.5,1.2,2.4c0.3,1.3,1.7,2.1,3.1,1.6C224.9,164.4,224.2,163.6,223.8,162.5z M192.8,70.5
					c-1.2-0.6-1.6-1.7-1.9-2.9c-0.1-0.5-0.1-0.9-0.6-1.2c0,1.3,0.3,2.5,0.8,3.4c0.6,1.1,2.1,1.2,2.5,2.4
					C193.7,71.4,193.4,70.8,192.8,70.5z M205.1,65.3c-0.9-0.3-1.3,0.7-2,0.9c-1.4,0.4-0.2,1.6-0.6,1.9
					C202.7,66.8,204.2,66.3,205.1,65.3z"/>
			</g>
			<g>
				<path class="st23" d="M166.4,145.1c1.6,0.9,3.2,1.5,5.1,1.3c1.3-0.1,2.3,0.2,3.1,1.3c0.7,1,1.7,1.4,2.9,1.5
					c2.2,0,4.4,0.5,6.7-0.4c1.5-0.6,1.6-0.4,1.1-2.1c-0.7-2.2-1.5-4.3-2-6.6c-0.6-2.7-1.1-5.4-0.9-8.1c0.3-3.7,2.4-5.5,6-5.2
					c2.1,0.2,4.2,0.7,6.3,1.2c1.4,0.3,2.3,2.1,1.8,3.6c-0.2,0.6-0.5,1.2-0.7,1.7c2.8-0.5,3.8,0.1,4.9,2.8c0.4,1,0.7,2.1,0.9,3.2
					c0.3,1.8,0.3,1.8-1.4,2.2c-0.4,0.1-0.8,0.2-1.1,0.3c-1.9,0.7-3.9,1.1-6,0.1c0.6,0.9,1.5,0.8,2.1,1.2c-1.3,1.6-1.7,3-1.4,5.1
					c0.2,1.4,0.6,2.7,0.9,4.1c0.3,2-0.7,3.4-2.6,3.7c-0.8,0.1-1.4,0.1-1.2-1.1c0.1-0.4,0.1-0.8-0.2-1.1c-1.1,2.9-1.3,3-4.4,2.4
					c-2.6-0.6-5.3-0.8-8-0.7c-0.6,0-1.1,0.1-1.5,0.5c-0.9,0.9-1.9,0.7-2.7-0.1c-1-0.9-2.1-1.7-3-2.7c-0.5-0.6-0.8-0.8-1.5-0.4
					c-1.1,0.6-1.8,0.2-2.1-1c1,0.5,1.9,0.3,2.4-0.7c-0.7,0.8-1.4,0.8-2.1,0.2c-0.2-0.2-0.5-0.3-0.9-0.3c-0.3,0-0.6,0.5-0.8,0
					c-0.2-0.3,0-0.7,0.2-1c0.8-1.1,1.8-1.8,3.5-1.6c-1.3-0.8-1.9-0.3-2.6,0.4c-1.1,1.1-2.7,0.9-2.8-0.5c-0.1-1.3-0.7-1.6-1.7-1.6
					C163,145.1,164.9,144.3,166.4,145.1z M184.1,154c0.7,0.1,1.4,0,1.8-0.8c0.2-0.4,0.8-0.6,1.3-1c-1,0-1.7,0.3-2.2,0.9
					c-0.4,0.6-0.9,0.7-1.5,0.5c-0.9-0.2-1.8-0.3-2.7-0.5c-0.5-0.1-1.1-0.1-1.8,0.5C181,153.5,182.6,153.7,184.1,154z M192.5,148.3
					c-1.3-1.8-1.4-3.8-1.2-6c0-0.2,0-0.5-0.1-0.7c-0.5,1.8-0.5,3.6,0.2,5.3c0.6,1.5,1.6,2.8,1.9,4.5
					C193.6,150.3,193.1,149.2,192.5,148.3z M175.6,150.4c-0.8-2.2-2.6-3-5.7-2.3C172.1,148.4,174.3,148.2,175.6,150.4z"/>
			</g>
			<g>
				<path class="st23" d="M177.2,106.7c0.1,2.5,0.4,4.9,2.3,6.7c0.5,0.5,0,0.7-0.3,0.9c-1.5,0.9-3,1.9-4.4,3
					c-0.4,0.3-0.8,0.7-1.2,0.7c-1,0-1.4,0.6-2,1.3c-0.6,0.7-1.3,1.2-2.2,1.2c-1.2,0-2.4-1.3-3.6-0.1c-0.2,0.2-0.6,0-0.7-0.2
					c-0.9-1.3-2.4-2.2-2.9-3.8c-0.4-1.3-0.3-2.8-1.3-3.9c-0.1-0.1-0.1-0.4-0.1-0.6c0.3-1.4-0.5-2.1-1.7-2.5c0.4-0.5,1.1-0.3,1.5-0.7
					c-1.8-2-2.1-4.4-0.6-5c0.3,1.7,0.8,2.2,2.1,1.9c-1.1-0.3-1.6-0.9-1.6-1.9c0-0.5-0.3-0.8-0.7-1.1c-0.7-0.5-0.3-0.7,0.2-0.9
					c1.6-0.5,3.2,0.5,3.4,2.2c0.1,0.7,0.4,1.1,1,1.4c1.7,0.8,3.1,2.6,2.7,4c-0.3,1.1,0.3,1.1,1,1.1c1.4,0,2.6-0.6,3.7-1.3
					c1.6-1,3.2-2.1,5-3.3C177.2,106.2,177.2,106.4,177.2,106.7z M163.5,109c1,0.3,1.6,1.1,1.4,2.3c-0.1,0.7-0.1,1.5,0,2.3
					c0,0.5,0.2,0.9,0.9,1c-0.6-1.1-0.4-2.3-0.4-3.4c0-2.5-1.5-3.5-3.9-2.6C162.2,109,162.9,108.8,163.5,109z M175.3,113.3
					c-1.9,1.3-3.3,3.8-6.1,3.5C172.2,117.4,173.7,115.3,175.3,113.3z M168.4,114c1-0.2,2.1-0.4,3.1-0.6c0-0.1,0-0.2,0-0.3
					C170.4,113.1,169.3,113.2,168.4,114z"/>
			</g>
			<g>
				<path class="st23" d="M189,75.8c0.5,0,0.9-0.1,1.2-0.1c0.7,0.1,1-0.3,0.8-0.9c-0.2-0.6,0.1-1.6-0.8-1.7
					c-0.6-0.1-2.4,1.2-2.4,1.8C187.9,75.7,188.5,75.7,189,75.8z"/>
			</g>
			<g>
				<path class="st23" d="M185,76c0.4,0,0.7-0.2,0.6-0.4c-0.3-0.7-1.2-0.8-1.7-1.2c-0.2-0.1-0.3,0.1-0.3,0.3
					C183.7,75.5,184.4,75.8,185,76z"/>
			</g>
			<g>
				<path class="st23" d="M189.8,71.6c-1,0.1-2.1-0.2-3.3,0.2C187.6,72.4,189.3,72.2,189.8,71.6C189.8,71.6,189.8,71.6,189.8,71.6z"
					/>
			</g>
			<g>
				<path class="st23" d="M163.6,149.1c-0.4,0.8-0.4,1.4-0.1,2.1C164.5,150.4,164.5,150,163.6,149.1z"/>
			</g>
			<g>
				<path class="st23" d="M185.7,72.8c0.7-1.2,0.7-1.2-1.3-1.6C184.8,71.8,185.5,72.1,185.7,72.8z"/>
			</g>
			<g>
				<path class="st23" d="M190.1,76c-0.3,0-0.8,0-0.7,0.4c0,0.5,0.5,0.4,0.8,0.4c0.3,0.1,0.6-0.1,0.6-0.4
					C190.9,75.9,190.4,76.1,190.1,76z"/>
			</g>
		</g>
	</g>
	<g>
		<g>
			<g>
				<path class="st21" d="M85.7,144.7h-8.9v-34.5h8.7c2.9,0,5,0.8,6.4,2.4c1.3,1.5,2,3.7,2,6.8v0.9c0,2.4-0.4,4.2-1.2,5.7
					c1.2,1.6,1.8,4,1.8,7.2v0.8c0,3.6-0.7,6.2-2,7.9C91,143.7,88.7,144.7,85.7,144.7z"/>
			</g>
			<g>
				<path class="st21" d="M118.2,144.7h-9.1l-0.7-5.3H108l-0.6,5.3h-9.3l4.8-34.5h10.1L118.2,144.7z M107.1,116h1.8l-0.1-0.8h-1.6
					L107.1,116z"/>
			</g>
			<g>
				<path class="st21" d="M134.3,144.7H125v-14l-5.6-20.6h9.4l0.9,3.4l0.8-3.4h9.4l-5.4,20.6V144.7z M128.8,126.2l0.8,2.9l0.8-2.9
					H128.8z"/>
			</g>
			<g>
				<polygon class="st21" points="158,144.7 143.1,144.7 143.1,110.2 157.8,110.2 157.8,119.1 152.4,119.1 152.4,122.7 157.5,122.7 
					157.5,131.4 152.4,131.4 152.4,135.8 158,135.8 				"/>
			</g>
			<g>
				<path class="st21" d="M182.2,144.7h-18.8v-34.5h9.8c2.1,0,3.8,0.5,5,1.5c1.2,1,2,2.3,2.3,4c0.3,1.3,0.4,2.9,0.4,4.9
					c0,2.1-0.2,3.8-0.7,5c-0.1,0.3-0.3,0.7-0.5,1c0.2,0.4,0.4,0.8,0.6,1.3c0.3,0.9,0.7,2.8,0.7,8.3c0,3.8,0.1,5,0.1,5.4L182.2,144.7
					z M174.5,126.6c0.2,0.2,0.5,0.3,0.7,0.5l-0.1-1.1c0,0.1-0.1,0.1-0.1,0.1C174.8,126.4,174.6,126.5,174.5,126.6z"/>
			</g>
		</g>
		<g>
			<g>
				<path class="st0" d="M91.5,120.3c0,3.2-0.8,5.1-2.5,5.9c2.1,0.7,3.1,3,3.1,7v0.8c0,3-0.5,5.1-1.5,6.4c-1,1.3-2.6,2-4.9,2h-6.4
					v-29.5h6.3c2.2,0,3.7,0.5,4.6,1.5c0.9,1,1.4,2.7,1.4,5.1V120.3z M83.7,124.6h1.6c0.8,0,1.3-0.2,1.5-0.7c0.2-0.5,0.4-1.5,0.4-3
					v-1.8c0-1.1-0.2-1.9-0.5-2.3c-0.3-0.4-0.8-0.6-1.5-0.6h-1.5V124.6z M83.7,138.7h1.6c0.9,0,1.5-0.3,1.8-0.9
					c0.4-0.6,0.5-1.7,0.5-3.3v-2.4c0-1.5-0.1-2.6-0.4-3.2c-0.3-0.6-0.8-0.9-1.6-0.9h-1.9V138.7z"/>
			</g>
			<g>
				<path class="st0" d="M101,142.2l4.1-29.5h5.8l4.4,29.5h-4.1l-0.7-5.3h-4.7l-0.6,5.3H101z M110.1,133.3l-1.9-14.8h-0.1l-1.8,14.8
					H110.1z"/>
			</g>
			<g>
				<path class="st0" d="M127.4,142.2v-11.8l-4.9-17.7h4.2l2.9,11h0.1l2.6-11h4.2l-4.6,17.7v11.8H127.4z"/>
			</g>
			<g>
				<path class="st0" d="M145.6,142.2v-29.5h9.7v3.9H150v8.6h5v3.8h-5v9.4h5.5v3.9H145.6z"/>
			</g>
			<g>
				<path class="st0" d="M171.6,128.3l-1.4-0.1v14h-4.4v-29.5h7.3c1.5,0,2.7,0.3,3.4,0.9c0.7,0.6,1.2,1.5,1.5,2.6
					c0.2,1.1,0.4,2.6,0.4,4.4c0,1.8-0.2,3.2-0.6,4.1s-1.1,1.6-2.1,1.9c1,0.2,1.7,0.9,2.1,2.1c0.4,1.2,0.6,3.7,0.6,7.5
					c0,3.8,0.1,5.8,0.2,6.1h-4.4c-0.1-0.2-0.2-3.8-0.2-10.6c0-1.3-0.2-2.2-0.5-2.6C173.2,128.6,172.6,128.4,171.6,128.3z
					 M170.2,124.8h1.8c0.6,0,1-0.1,1.2-0.4c0.3-0.3,0.5-0.7,0.6-1.3c0.1-0.6,0.2-1.6,0.2-2.9V120c0-1.6-0.1-2.6-0.4-3.1
					c-0.3-0.5-0.9-0.7-1.8-0.7h-1.5V124.8z"/>
			</g>
		</g>
	</g>
</g>
</svg>
