<?xml version="1.0" encoding="utf-8"?>
<!-- Generator: Adobe Illustrator 17.0.0, SVG Export Plug-In . SVG Version: 6.00 Build 0)  -->
<!DOCTYPE svg PUBLIC "-//W3C//DTD SVG 1.1//EN" "http://www.w3.org/Graphics/SVG/1.1/DTD/svg11.dtd" [
	<!ENTITY ns_flows "http://ns.adobe.com/Flows/1.0/">
	<!ENTITY ns_extend "http://ns.adobe.com/Extensibility/1.0/">
	<!ENTITY ns_ai "http://ns.adobe.com/AdobeIllustrator/10.0/">
	<!ENTITY ns_graphs "http://ns.adobe.com/Graphs/1.0/">
]>
<svg version="1.1" id="Layer_2" xmlns:x="&ns_extend;" xmlns:i="&ns_ai;" xmlns:graph="&ns_graphs;"
	 xmlns="http://www.w3.org/2000/svg" xmlns:xlink="http://www.w3.org/1999/xlink" xmlns:a="http://ns.adobe.com/AdobeSVGViewerExtensions/3.0/"
	 x="0px" y="0px" width="256px" height="256px" viewBox="0 0 256 256" style="enable-background:new 0 0 256 256;"
	 xml:space="preserve">
<style type="text/css">
	.st0{fill:#FFFFFF;}
	.st1{fill:#54B948;}
	.st2{fill:#1D8C8E;}
	.st3{fill:#14DEAC;}
	.st4{fill:#1466AC;}
	.st5{fill:#757575;}
	.st6{fill:#B69442;}
	.st7{fill:#1A234D;}
	.st8{fill:#AA0629;}
	.st9{fill:#FF4A49;}
	.st10{fill:#3C6643;}
	.st11{fill:none;stroke:#FF4A49;stroke-miterlimit:10;}
	.st12{fill:#E70084;}
	.st13{fill:#508A72;}
	.st14{fill:#01A663;}
	.st15{fill:#015297;}
	.st16{fill:#B0B0B0;}
	.st17{fill:#E1062F;}
	.st18{fill:#D80000;stroke:#FFFFFF;stroke-width:2;stroke-miterlimit:10;}
	.st19{fill:#D80000;}
	.st20{fill:#8ABE23;}
	.st21{fill:#1D1D1B;}
	.st22{fill:#FEFEFE;}
	.st23{fill:#FF0000;}
	.st24{fill:#FF1D1B;}
	.st25{fill:#6DB2DE;}
	.st26{fill:#FF1D25;}
	.st27{fill:#FFDA00;}
	.st28{fill:#024D9E;}
	.st29{fill:#6B97C6;}
	.st30{fill:#000078;}
	.st31{fill:none;stroke:#FFFFFF;stroke-width:6;stroke-linecap:round;stroke-miterlimit:10;}
	.st32{fill:#FFEE34;}
	.st33{fill:none;stroke:#000000;stroke-width:4;stroke-miterlimit:10;}
	.st34{fill:#D11E24;}
	.st35{fill:#D71F26;}
	.st36{fill:#020000;}
	.st37{fill:none;stroke:#000000;stroke-width:2;stroke-miterlimit:10;}
	.st38{clip-path:url(#SVGID_2_);}
	.st39{fill:#00317D;}
	.st40{fill:#00737D;}
	.st41{fill:#ED1C24;}
	.st42{fill:#2678C7;}
	.st43{fill:#1853A6;}
	.st44{fill:#CB0000;}
	.st45{fill:#E61C21;}
	.st46{clip-path:url(#SVGID_4_);}
	.st47{fill:#6BDEF1;}
	.st48{clip-path:url(#SVGID_6_);}
	.st49{fill:#0165B2;}
	.st50{fill:#DE1134;}
	.st51{fill:#00A668;}
	.st52{fill:#FFE60B;}
	.st53{fill:#843D00;stroke:#000000;stroke-miterlimit:10;}
	.st54{fill:#EC1F27;}
	.st55{fill:#162984;}
	.st56{fill:#1853A6;stroke:#1853A6;stroke-miterlimit:10;}
	.st57{fill:none;}
	.st58{fill:none;stroke:#1853A6;stroke-width:0.9;stroke-miterlimit:10;}
	.st59{fill:#1853A6;stroke:#1853A6;stroke-width:0.9;stroke-miterlimit:10;}
	.st60{fill:#B5985A;}
	.st61{fill:#FFE60B;stroke:#000000;stroke-width:6;stroke-miterlimit:10;}
	.st62{fill:#008DCD;}
	.st63{fill:#009939;}
	.st64{fill:#2E3092;}
	.st65{fill:#EE3224;}
	.st66{fill:#005BAB;}
	.st67{fill:#D30027;}
	.st68{fill:#FFFFFF;stroke:#D30027;stroke-width:10;stroke-miterlimit:10;}
	.st69{fill:#E81C2F;}
	.st70{fill:#DC032B;}
	.st71{fill:#F25448;}
	.st72{fill:#FFFFFF;stroke:#F25448;stroke-width:6;stroke-miterlimit:10;}
	.st73{fill:#05A08D;}
	.st74{fill:#1875CE;}
	.st75{fill:#D72427;}
	.st76{fill:#004993;}
	.st77{fill:#007BB0;}
	.st78{fill:#FFEB00;}
	.st79{fill:#664A9E;}
	.st80{fill:#F4C701;}
	.st81{fill:#EBBE12;}
	.st82{fill:#44B3DB;}
	.st83{fill:#F6FF82;}
	.st84{fill:#FFC918;}
	.st85{fill:#0361A4;}
	.st86{fill:#009FE3;}
	.st87{fill:#E30217;}
	.st88{fill:#FDEA00;}
	.st89{fill:#E91B00;}
	.st90{fill:#2B2763;}
	.st91{fill:#EE1A22;}
	.st92{fill:#F1AA25;}
	.st93{fill:#93000C;}
	.st94{fill:none;stroke:#1D1D1B;stroke-width:4;}
	.st95{fill:#3E4E70;}
	.st96{fill:#096CB6;}
	.st97{fill:#0559A8;}
	.st98{fill:#F9ED1A;}
	.st99{fill:#949494;}
	.st100{fill:#FFD033;}
	.st101{fill:#243D89;}
	.st102{fill:#F8C936;}
	.st103{fill:#D44128;}
	.st104{fill:#ED1B23;}
	.st105{fill:#0C529C;}
	.st106{fill:#E31E24;}
	.st107{fill:#0263B0;}
	.st108{fill:#007AC2;}
	.st109{fill:#EF3D1F;}
	.st110{fill:#EE1C24;}
	.st111{fill:#FDEA00;stroke:#000000;stroke-width:0.6509;}
	.st112{fill:#FDEA00;stroke:#000000;stroke-width:0.6979;}
	.st113{fill:#46A0BE;}
	.st114{fill:#005FA5;}
	.st115{fill:#00904C;}
	.st116{fill:#E21F26;}
	.st117{fill:#FD0001;}
	.st118{fill:#0066B3;}
	.st119{fill:#E20019;}
	.st120{fill:#0171BC;}
	.st121{fill:#01305D;}
	.st122{fill:#1B7EE9;}
	.st123{fill:#BA0D0B;}
	.st124{fill:none;stroke:#000000;stroke-width:3;stroke-miterlimit:10;}
	.st125{fill:#FFFFFF;stroke:#000000;stroke-width:0.8836;stroke-miterlimit:10;}
	.st126{fill:#FFFFFF;stroke:#000000;stroke-width:0.9759;stroke-miterlimit:10;}
	.st127{fill:#0053A1;}
	.st128{fill:#FFE100;}
	.st129{fill:#FFE500;}
	.st130{fill:none;stroke:#FFE500;stroke-width:2;stroke-miterlimit:10;}
	.st131{fill:#01AFF3;}
	.st132{fill:#ED1B28;}
	.st133{fill:#E2000A;}
</style>
<g>
	<g>
		<g>
			<path class="st0" d="M128,249.4C61,249.4,6.6,195,6.6,128S61,6.6,128,6.6S249.4,61,249.4,128S195,249.4,128,249.4z"/>
			<path class="st117" d="M128,11.1c31.2,0,60.6,12.2,82.6,34.2s34.2,51.4,34.2,82.6s-12.2,60.6-34.2,82.6s-51.4,34.2-82.6,34.2
				s-60.6-12.2-82.6-34.2S11.1,159.2,11.1,128s12.2-60.6,34.2-82.6S96.8,11.1,128,11.1 M128,2C58.4,2,2,58.4,2,128s56.4,126,126,126
				s126-56.4,126-126S197.6,2,128,2L128,2z"/>
		</g>
	</g>
	<g>
		<g>
			<path class="st0" d="M75.7,196.1c17.1-27.5,46.1-20.9,70.8-17c25.6,4.4,46.9,6,70.1-18.1c0.2-12,0.4-24,0.7-36.1
				c-25.7,22.4-49.6,19.2-77.7,13.2c-27.2-5.5-58.6-13.8-78.3,12.2C66,165.5,70.9,180.8,75.7,196.1z"/>
			<path class="st0" d="M218.5,52.8c-30.7,19.2-59.6,12.7-92.8,3.4c-32.2-8.7-68.7-20.3-93.4,2.4c4.8,15.3,9.6,30.5,14.4,45.8
				C69,80.1,103,90.1,132.7,97.2c30.6,7.7,57,12.5,85.2-8.3C218.1,76.8,218.3,64.8,218.5,52.8z"/>
			<path class="st0" d="M46.8,104.4c4.8,15.3,9.6,30.5,14.4,45.8c19.7-25.9,51.1-17.6,78.3-12.2c28.1,6,52,9.2,77.7-13.2
				c0.2-12,0.4-24,0.7-36.1c-28.2,20.8-54.6,16-85.2,8.3C103,90.1,69,80.1,46.8,104.4z"/>
		</g>
		<g>
			<path class="st23" d="M218.1,162c-23.8,26-45.3,24.5-71.5,20.1c-25.1-3.8-54.8-10.5-71.4,20.1C60.1,154.6,44.9,107,29.8,59.4
				c24.6-25.5,62.3-13.5,95.4-4.6c34.2,9.6,63.7,16.3,95.5-4.5C219.9,87.6,219,124.8,218.1,162z M76.4,192.8
				c17.3-25.2,45.4-18.9,69.5-15.1c25,4.3,46,6.1,68.5-15.8c0.4-34.9,0.8-69.9,1.3-104.8c-29.5,17.3-57.7,10.9-89.7,2
				c-31.2-8.4-66.3-19.3-90.8,1.3C48.9,104.6,62.7,148.7,76.4,192.8z"/>
		</g>
		<g>
			<path class="st117" d="M58.9,104.3c2-1.3,4.1-2.4,6.2-3.3c1.1,3.8,2.2,7.6,3.3,11.4c0,0,0,0,0.1,0c0.2-1.2,0.4-2.4,0.7-3.6
				c0.7-3.4,1.5-6.8,2.4-10c2.8-0.7,5.6-1.3,8.5-1.6c-1.8,4.1-3.5,8.3-5,12.9c4.1,4.3,8.2,8.9,12.2,13.5c-2.6,0.4-5.1,0.9-7.6,1.7
				c-2.7-3.1-5.3-6.1-8-9.1c-0.4,1.2-0.7,2.4-1.1,3.6c0.8,2.7,1.6,5.4,2.3,8.2c-2,1-3.9,2.2-5.8,3.5
				C64.3,122.5,61.6,113.4,58.9,104.3z"/>
			<path class="st117" d="M89.9,96.9c2.1,8.7,4.2,17.4,6.4,26.1c-2.3,0-4.6,0.1-6.8,0.4c-2.2-8.8-4.5-17.6-6.7-26.3
				C85.1,96.8,87.5,96.8,89.9,96.9z"/>
			<path class="st117" d="M120.5,124.9c-0.9,0.3-3.3,0.4-6.4-0.1c-9.8-1.4-15.5-7.4-17.1-14.3c-2.2-9.2,3.7-13.4,12-11.8
				c3.2,0.6,5.9,1.7,7.1,2.5c-0.1,1.7-0.2,3.4-0.3,5.1c-1.3-0.7-3.1-1.5-5.3-1.9c-4.2-0.8-7.3,1.1-6.1,6.4c1.1,4.7,4.6,7.8,9.5,8.6
				c1.7,0.3,3.6,0.3,4.6,0.1C119.1,121.2,119.8,123.1,120.5,124.9z"/>
			<path class="st117" d="M119.5,101.2c2.4,0.5,4.9,1.1,7.3,1.7c0.6,3.5,1.3,7,1.9,10.6c0,0,0.1,0,0.1,0c0.4-0.8,0.8-1.6,1.2-2.3
				c1.3-2.2,2.6-4.4,3.9-6.6c3,0.7,5.9,1.4,8.9,2.1c-2.3,2.8-4.6,5.7-6.8,8.5c3.7,5.4,7.3,10.7,10.8,15.9c-2.6-0.5-5.3-1.1-7.9-1.7
				c-2.4-3.7-4.8-7.5-7.2-11.2c-0.6,0.7-1.1,1.4-1.7,2.1c0.5,2.5,0.9,5,1.4,7.5c-2.3-0.5-4.6-1-6.9-1.5
				C122.8,117.9,121.1,109.5,119.5,101.2z"/>
			<path class="st117" d="M163.6,124.2c-3-0.3-6-0.7-9-1.2c0.2,1.5,0.4,2.9,0.6,4.4c3.4,0.5,6.7,1,10,1.2c0.2,1.7,0.4,3.5,0.6,5.2
				c-5.4-0.4-11-1.3-16.6-2.3c-1.2-8.1-2.4-16.2-3.5-24.3c5.8,1.2,11.4,2.3,17,2.9c0.2,1.7,0.4,3.5,0.6,5.2
				c-3.2-0.3-6.5-0.8-9.8-1.4c0.2,1.3,0.3,2.6,0.5,3.9c3.1,0.5,6.1,1,9.1,1.3C163.2,120.7,163.4,122.4,163.6,124.2z"/>
			<path class="st117" d="M167,110.8c1.9-0.1,4.8-0.2,8.1-0.3c3.8-0.1,6.6,0.1,8.6,1.1c1.7,0.9,2.6,2.4,2.7,4.6
				c0.2,2.9-2,5.3-3.8,6.2c0,0,0,0.1,0,0.1c1.6,0.5,2.6,1.8,3.3,3.6c0.9,2.2,1.8,5.4,2.3,6.1c-2.1,0.5-4.3,0.9-6.4,1.2
				c-0.4-0.6-1.2-2.3-2.1-5.2c-0.9-2.7-1.8-3.2-3.8-3.1c-0.3,0-0.7,0-1,0c0.3,2.9,0.5,5.8,0.8,8.8c-2.1,0.1-4.2,0.1-6.4,0
				C168.5,126.3,167.7,118.5,167,110.8z M174.5,120.8c0.6,0,1.1,0,1.7-0.1c2.5-0.1,3.8-1.4,3.7-3.1c-0.1-1.7-1.4-2.6-3.6-2.5
				c-1.3,0-1.9,0.1-2.2,0.2C174.2,117.1,174.4,118.9,174.5,120.8z"/>
			<path class="st117" d="M191.1,125.4c1.5,0.3,3.8,0.3,6.2-0.7c2.2-0.9,3.2-2.1,3.2-3.2c0-1.1-1.1-1.2-3.8-1
				c-4.1,0.2-6.9-1.4-7.1-4.7c-0.2-4.1,3.3-7.8,9.6-10.2c2.9-1.2,5.1-1.7,6.7-2c-0.5,1.8-0.9,3.7-1.3,5.5c-1.1,0.1-2.9,0.4-5.3,1.4
				c-2,0.8-3.1,1.8-3,2.8c0,1.1,1.4,1.2,4.4,0.9c4.4-0.5,6.4,0.3,6.4,3.5c0,3.7-3.1,9.3-9.9,12.1c-2.8,1.2-5.6,1.3-6.9,0.9
				C190.5,129,190.8,127.2,191.1,125.4z"/>
		</g>
		<g>
			<path class="st117" d="M123.7,87.6c-8.7-2.2-14.9-9.1-16.3-16.1c-1.5-7.4,3-11.9,12.1-9.5c9.6,2.6,15.2,9.7,16.2,16.2
				C136.9,86.1,132.4,89.8,123.7,87.6C123.7,87.6,123.7,87.6,123.7,87.6z M123.1,82.4c3.7,0.9,5.3-1.6,4.5-6.1
				c-0.7-4.2-3.5-8.1-7.4-9.1c-3.8-1-5.5,1.7-4.7,6C116.4,77.8,119.3,81.4,123.1,82.4C123,82.4,123.1,82.4,123.1,82.4z"/>
			<path class="st117" d="M143.6,92.5c-2.4-0.6-4.4-2.5-4.8-4.8c-0.3-2.2,1.2-3.4,3.7-2.8c2.5,0.6,4.4,2.5,4.8,4.7
				C147.6,91.8,146.1,93,143.6,92.5C143.6,92.5,143.6,92.5,143.6,92.5z"/>
			<path class="st117" d="M148.2,69.7c6.1,1.3,12.1,2.3,18,2.8c0.2,1.7,0.3,3.4,0.5,5.1c-3.4-0.3-6.8-0.7-10.3-1.3
				c0.2,1.5,0.3,2.9,0.5,4.4c3.2,0.5,6.4,0.9,9.6,1.2c0.2,1.7,0.3,3.4,0.5,5.1c-3.1-0.2-6.3-0.6-9.5-1.1c0.3,3,0.7,6,1.1,9
				c-2.4-0.3-4.8-0.8-7.2-1.2C150.3,85.7,149.3,77.7,148.2,69.7z"/>
			<path class="st117" d="M172.9,96.5c-2.3,0-4.1-1.6-4.3-3.8c-0.2-2.2,1.4-3.5,3.7-3.5c2.4,0.1,4.1,1.4,4.3,3.6
				C176.8,95,175.3,96.5,172.9,96.5C172.9,96.5,172.9,96.5,172.9,96.5z"/>
			<path class="st117" d="M199.5,91c-0.9,0.8-3.4,2.2-6.4,3c-9.5,2.4-14.2-3.2-14.7-9.2c-0.6-8.2,6.1-12.3,14.2-14.1
				c3.1-0.7,5.6-1,6.8-0.9c-0.4,1.7-0.9,3.5-1.3,5.2c-1.2,0-2.8,0.1-5,0.6c-4.1,1-7.5,3.5-7.3,8.1c0.2,4.1,3.2,6.4,8,5.1
				c1.7-0.4,3.5-1.3,4.6-2.1C198.8,88.2,199.1,89.6,199.5,91z"/>
			<path class="st117" d="M206.7,88.9c-2.3,1.2-3.9,0.4-4-1.7c0-2.1,1.6-4.1,3.9-5.3c2.4-1.1,4-0.7,4,1.3
				C210.7,85.3,209.1,87.7,206.7,88.9C206.7,88.9,206.7,88.9,206.7,88.9z"/>
		</g>
		<g>
			<path class="st117" d="M75.3,157.1C75.3,157.1,75.3,157.1,75.3,157.1c-1.1,1.8-2.1,3.7-3,5.7c-0.8-1.6-1.6-3.1-2.5-4.6
				c1.4-2.9,2.9-5.6,4.4-8.1c1.5-1.1,3-2,4.6-2.9c2.5,8.7,4.9,17.3,7.4,26c-1.8,1.1-3.5,2.3-5.1,3.7
				C79.2,170.3,77.3,163.7,75.3,157.1z"/>
			<path class="st117" d="M92.7,164.4c0.7-0.1,1.1-0.3,2.1-0.6c1.5-0.5,2.9-1.2,3.9-2.1c1.2-1.2,1.8-2.8,1.8-4.2c0,0-0.1,0-0.1,0
				c-0.7,1-1.9,1.7-3.8,2.1c-3.6,0.7-7.7-0.8-9.1-6.1c-1.4-5.1,1-10.7,6.4-11.4c6.6-0.8,10.7,4.7,12,10.3c1.2,5.1,0.7,8.9-1.2,11.7
				c-1.7,2.6-4.6,4.1-8.4,5.3c-0.7,0.3-1.6,0.4-2.1,0.6C93.7,168,93.2,166.2,92.7,164.4z M95.1,147.1c-1.4,0.2-2.1,1.9-1.5,4.1
				c0.5,1.8,1.7,3.3,3.6,3c1.2-0.2,1.8-0.9,2-1.5c0.1-0.4,0-0.8-0.2-1.6C98.5,149.1,97.2,146.8,95.1,147.1
				C95.1,147.1,95.1,147.1,95.1,147.1z"/>
			<path class="st117" d="M120.8,167.6c-6.6-0.5-10.5-6.6-12-13.3c-1.6-6.7-0.4-13,6.5-12.2c7.2,0.9,10.9,7.8,12.1,14
				C128.8,163.2,127,168.1,120.8,167.6C120.8,167.6,120.8,167.6,120.8,167.6z M119.7,162.5c1.6,0.2,2.2-2,1-7.3
				c-1.1-5.2-2.6-7.7-4.4-7.9c-1.7-0.2-2.3,2-1.1,7.3C116.4,160,118,162.3,119.7,162.5C119.7,162.5,119.7,162.5,119.7,162.5z"/>
			<path class="st117" d="M135.9,151.6C135.9,151.6,135.9,151.6,135.9,151.6c-1.5,0.4-2.9,0.8-4.4,1.3c-0.7-1.7-1.3-3.5-2-5.2
				c2.1-0.6,4.2-1.2,6.3-1.7c1.8,0.4,3.6,0.7,5.4,1.1c1.3,7.9,2.7,15.9,4,23.8c-2-0.3-4-0.7-6.1-1.1
				C138.1,163.7,137,157.7,135.9,151.6z"/>
			<path class="st117" d="M172.7,164.2c-2.7,0-5.4-0.1-8.1-0.3c0.2,1.5,0.4,2.9,0.5,4.4c3,0.2,6,0.3,9,0.2c0.2,1.7,0.3,3.4,0.5,5.2
				c-4.9,0.2-9.8-0.1-14.9-0.6c-1.1-8-2.2-16.1-3.3-24.1c5.2,0.8,10.3,1.2,15.3,1.2c0.2,1.7,0.3,3.4,0.5,5.2c-2.9,0-5.8-0.1-8.8-0.4
				c0.2,1.3,0.3,2.5,0.5,3.8c2.8,0.2,5.5,0.4,8.2,0.3C172.4,160.8,172.6,162.5,172.7,164.2z"/>
			<path class="st117" d="M180.4,173.5c-1.9,0.3-3.4-1.1-3.6-3.3c-0.2-2.2,1.1-3.7,3-4c2-0.2,3.4,0.9,3.6,3.1
				C183.6,171.5,182.4,173.2,180.4,173.5C180.4,173.5,180.4,173.5,180.4,173.5z"/>
			<path class="st117" d="M191.6,170.4c-2.6-6.8-5.4-13.8-8.4-21.1c2.2-0.4,4.4-0.9,6.6-1.5c1,2.8,1.9,5.5,2.8,8.2
				c0.8,2.3,1.5,4.6,2.2,7.2c0,0,0,0,0.1,0c0.4-3,0.9-5.8,1.4-8.6c0.7-3.3,1.4-6.7,2.1-10c2.1-1,4.3-2.1,6.4-3.4
				c-2.3,8.9-4.5,17.7-6.6,26.4C196.1,168.6,193.8,169.6,191.6,170.4z"/>
			<path class="st117" d="M207.9,161.6c-1.9,1.4-3.2,0.9-3.3-1.1c0-2.1,1.3-4.3,3.3-5.8c2-1.4,3.3-1.2,3.3,0.8
				C211.2,157.6,209.9,160.1,207.9,161.6C207.9,161.6,207.9,161.6,207.9,161.6z"/>
		</g>
		<path class="st117" d="M151.9,163.5c-1.4-1.4-2.7-2.8-4.1-4.3c1-1,2-2,3-3c1.4,1.4,2.7,2.8,4.1,4.2
			C153.9,161.4,152.9,162.4,151.9,163.5z"/>
		<g>
			<path class="st117" d="M68.4,49.9c-11.1,0.2-16.8,12-13.7,22.3c3,10.4,12.9,15.1,23.2,14.3c10.2-0.9,17.2-7.4,15-17.3
				C90.7,59.5,79.4,49.6,68.4,49.9z M90.3,64.8c-1.1-0.9-2.2-1.8-3.2-2.7c-1.1-2.5-2.8-4.7-4.4-6.3C86,58.2,88.6,61.4,90.3,64.8z
				 M81.8,78.8c-1.5-0.3-6.5-1-8-1.4c-1.4-2.4-3-5.7-4.1-8.1c0,0,0.1,0,0.1,0c0.4-2,4.2-7.5,4.3-7.5c0,0,0,0,0-0.1
				c2.5,0.4,6.7,1.4,9.7,3.1c1.6,3.5,2.5,6.1,3,7.6C86.2,73.4,84.2,76.7,81.8,78.8z M69.7,81.8c-3.8-0.4-7.1-1.9-8.7-2.7
				c-1-1.6-2.9-5.3-3.5-7.1c0.6-1.3,1.8-3.6,3.3-5.6c0.7,0.2,5.7,1.8,8.1,2.6c1,2.2,2.6,5.7,4.1,8.2C72.8,77.7,70.7,80.9,69.7,81.8z
				 M83.7,64.2c-3.3-1.7-7.6-2.7-10-3.1c-1-1.4-3.2-4.6-4.6-6.1c1.2-1.3,2.4-2.3,3.2-2.9c0.9,0,3.4,0.1,5.4,0.5
				c0.6,0.3,1.1,0.5,1.7,0.8c1.8,1.3,5,4,6.9,7.8C85.3,62.3,84.5,63.2,83.7,64.2z M71.9,50.9c0,0.2,0,0.5,0.1,0.7
				c-0.9,0.7-2.4,1.9-3.8,3.5c-2,0.3-5.9,1.8-7.2,2.4c-1.3-0.7-2.4-1.1-3-1.3c2.4-3.2,6.1-5.3,10.7-5.5
				C69.7,50.7,70.8,50.7,71.9,50.9z M57.6,56.7c0.4,0.2,1.5,0.5,2.8,1.2c-0.4,1.3,0.1,6,0.3,7.8c-1.6,1.9-2.8,4.2-3.5,5.7
				c-0.8-0.3-1.7-1.4-2.3-2.1C54.3,64.8,55.2,60.2,57.6,56.7z M61.4,80.9c0-0.3,0-0.6,0-0.9c1.8,0.9,5.1,2.1,8.7,2.4
				c1.2,0.9,3,2.4,4.4,3.3C69.6,85.5,65,83.9,61.4,80.9z M83.3,84.4c-0.3-1.4-0.8-4-1-5.1c2.1-1.8,3.9-4.6,4.8-6
				c0,0.1,0.1,0.2,0.1,0.2c0,0,3.4,0.6,5.1,0.9C91.5,79.2,88.1,82.6,83.3,84.4z"/>
		</g>
		<g>
			<path class="st23" d="M217.9,89.4c-28.3,20.9-54.7,16-85.4,8.3c-29.8-7.1-63.9-16.9-85.9,8c-0.2-0.7-0.4-1.4-0.7-2.1
				c22.1-24.9,56.3-14.9,86.2-7.8c30.8,7.8,57.4,12.8,85.8-8.1C217.9,88.3,217.9,88.9,217.9,89.4z"/>
		</g>
		<g>
			<path class="st23" d="M217.8,125c-25.9,23-49.9,19.8-78.2,13.8c-27.3-5.5-59.1-13.8-78.6,12.8c-0.2-0.7-0.4-1.4-0.7-2.1
				c19.7-26.6,51.5-18.2,79-12.6c28.4,6.1,52.5,9.4,78.5-13.5C217.8,123.9,217.8,124.4,217.8,125z"/>
		</g>
	</g>
	<g>
		<line class="st117" x1="19.2" y1="71.7" x2="95.3" y2="246.5"/>
		
			<rect x="-38.1" y="155.1" transform="matrix(0.3992 0.9169 -0.9169 0.3992 180.2293 43.0743)" class="st23" width="190.6" height="8"/>
	</g>
</g>
</svg>
