<?xml version="1.0" encoding="utf-8"?>
<!-- Generator: Adobe Illustrator 17.0.0, SVG Export Plug-In . SVG Version: 6.00 Build 0)  -->
<!DOCTYPE svg PUBLIC "-//W3C//DTD SVG 1.1//EN" "http://www.w3.org/Graphics/SVG/1.1/DTD/svg11.dtd" [
	<!ENTITY ns_flows "http://ns.adobe.com/Flows/1.0/">
	<!ENTITY ns_extend "http://ns.adobe.com/Extensibility/1.0/">
	<!ENTITY ns_ai "http://ns.adobe.com/AdobeIllustrator/10.0/">
	<!ENTITY ns_graphs "http://ns.adobe.com/Graphs/1.0/">
]>
<svg version="1.1" id="Layer_2" xmlns:x="&ns_extend;" xmlns:i="&ns_ai;" xmlns:graph="&ns_graphs;"
	 xmlns="http://www.w3.org/2000/svg" xmlns:xlink="http://www.w3.org/1999/xlink" xmlns:a="http://ns.adobe.com/AdobeSVGViewerExtensions/3.0/"
	 x="0px" y="0px" width="256px" height="256px" viewBox="0 0 256 256" style="enable-background:new 0 0 256 256;"
	 xml:space="preserve">
<style type="text/css">
	.st0{fill:#FFFFFF;}
	.st1{fill:#54B948;}
	.st2{fill:#1D8C8E;}
	.st3{fill:#14DEAC;}
	.st4{fill:#1466AC;}
	.st5{fill:#757575;}
	.st6{fill:#B69442;}
	.st7{fill:#1A234D;}
	.st8{fill:#AA0629;}
	.st9{fill:#FF4A49;}
	.st10{fill:#3C6643;}
	.st11{fill:none;stroke:#FF4A49;stroke-miterlimit:10;}
	.st12{fill:#E70084;}
	.st13{fill:#508A72;}
	.st14{fill:#01A663;}
	.st15{fill:#015297;}
	.st16{fill:#B0B0B0;}
	.st17{fill:#E1062F;}
	.st18{fill:#D80000;stroke:#FFFFFF;stroke-width:2;stroke-miterlimit:10;}
	.st19{fill:#D80000;}
	.st20{fill:#8ABE23;}
	.st21{fill:#1D1D1B;}
	.st22{fill:#FEFEFE;}
	.st23{fill:#FF0000;}
	.st24{fill:#FF1D1B;}
	.st25{fill:#6DB2DE;}
	.st26{fill:#FF1D25;}
	.st27{fill:#FFDA00;}
	.st28{fill:#024D9E;}
	.st29{fill:#6B97C6;}
	.st30{fill:#000078;}
	.st31{fill:none;stroke:#FFFFFF;stroke-width:6;stroke-linecap:round;stroke-miterlimit:10;}
	.st32{fill:#FFEE34;}
	.st33{fill:none;stroke:#000000;stroke-width:4;stroke-miterlimit:10;}
	.st34{fill:#D11E24;}
	.st35{fill:#D71F26;}
	.st36{fill:#020000;}
	.st37{fill:none;stroke:#000000;stroke-width:2;stroke-miterlimit:10;}
	.st38{clip-path:url(#SVGID_2_);}
	.st39{fill:#00317D;}
	.st40{fill:#00737D;}
	.st41{fill:#ED1C24;}
	.st42{fill:#2678C7;}
	.st43{fill:#1853A6;}
	.st44{fill:#CB0000;}
	.st45{fill:#E61C21;}
	.st46{clip-path:url(#SVGID_4_);}
	.st47{fill:#6BDEF1;}
	.st48{clip-path:url(#SVGID_6_);}
	.st49{fill:#0165B2;}
	.st50{fill:#DE1134;}
	.st51{fill:#00A668;}
	.st52{fill:#FFE60B;}
	.st53{fill:#843D00;stroke:#000000;stroke-miterlimit:10;}
	.st54{fill:#EC1F27;}
	.st55{fill:#162984;}
	.st56{fill:#1853A6;stroke:#1853A6;stroke-miterlimit:10;}
	.st57{fill:none;}
	.st58{fill:none;stroke:#1853A6;stroke-width:0.9;stroke-miterlimit:10;}
	.st59{fill:#1853A6;stroke:#1853A6;stroke-width:0.9;stroke-miterlimit:10;}
	.st60{fill:#B5985A;}
	.st61{fill:#FFE60B;stroke:#000000;stroke-width:6;stroke-miterlimit:10;}
	.st62{fill:#008DCD;}
	.st63{fill:#009939;}
	.st64{fill:#2E3092;}
	.st65{fill:#EE3224;}
	.st66{fill:#005BAB;}
	.st67{fill:#D30027;}
	.st68{fill:#FFFFFF;stroke:#D30027;stroke-width:10;stroke-miterlimit:10;}
	.st69{fill:#E81C2F;}
	.st70{fill:#DC032B;}
	.st71{fill:#F25448;}
	.st72{fill:#FFFFFF;stroke:#F25448;stroke-width:6;stroke-miterlimit:10;}
	.st73{fill:#05A08D;}
	.st74{fill:#1875CE;}
	.st75{fill:#D72427;}
	.st76{fill:#004993;}
	.st77{fill:#007BB0;}
	.st78{fill:#FFEB00;}
	.st79{fill:#664A9E;}
	.st80{fill:#F4C701;}
	.st81{fill:#EBBE12;}
	.st82{fill:#44B3DB;}
	.st83{fill:#F6FF82;}
	.st84{fill:#FFC918;}
	.st85{fill:#0361A4;}
	.st86{fill:#009FE3;}
	.st87{fill:#E30217;}
	.st88{fill:#FDEA00;}
	.st89{fill:#E91B00;}
	.st90{fill:#2B2763;}
	.st91{fill:#EE1A22;}
	.st92{fill:#F1AA25;}
	.st93{fill:#93000C;}
	.st94{fill:none;stroke:#1D1D1B;stroke-width:4;}
	.st95{fill:#3E4E70;}
	.st96{fill:#096CB6;}
	.st97{fill:#0559A8;}
	.st98{fill:#F9ED1A;}
	.st99{fill:#949494;}
	.st100{fill:#FFD033;}
	.st101{fill:#243D89;}
	.st102{fill:#F8C936;}
	.st103{fill:#D44128;}
	.st104{fill:#ED1B23;}
	.st105{fill:#0C529C;}
	.st106{fill:#E31E24;}
	.st107{fill:#0263B0;}
	.st108{fill:#007AC2;}
	.st109{fill:#EF3D1F;}
	.st110{fill:#EE1C24;}
	.st111{fill:#FDEA00;stroke:#000000;stroke-width:0.6509;}
	.st112{fill:#FDEA00;stroke:#000000;stroke-width:0.6979;}
	.st113{fill:#46A0BE;}
	.st114{fill:#005FA5;}
	.st115{fill:#00904C;}
	.st116{fill:#E21F26;}
	.st117{fill:#FD0001;}
	.st118{fill:#0066B3;}
	.st119{fill:#E20019;}
	.st120{fill:#0171BC;}
	.st121{fill:#01305D;}
	.st122{fill:#1B7EE9;}
	.st123{fill:#BA0D0B;}
	.st124{fill:none;stroke:#000000;stroke-width:3;stroke-miterlimit:10;}
	.st125{fill:#FFFFFF;stroke:#000000;stroke-width:0.8836;stroke-miterlimit:10;}
	.st126{fill:#FFFFFF;stroke:#000000;stroke-width:0.9759;stroke-miterlimit:10;}
	.st127{fill:#0053A1;}
	.st128{fill:#FFE100;}
	.st129{fill:#FFE500;}
	.st130{fill:none;stroke:#FFE500;stroke-width:2;stroke-miterlimit:10;}
	.st131{fill:#01AFF3;}
	.st132{fill:#ED1B28;}
	.st133{fill:#E2000A;}
</style>
<g>
	<path class="st0" d="M128,249.4C61,249.4,6.6,195,6.6,128S61,6.6,128,6.6S249.4,61,249.4,128S195,249.4,128,249.4z"/>
	<g>
		<path d="M107.9,65c1.4,0.8,3.4,1.4,5.6,1.4c1.6,0,3-0.6,3-1.9c0-1.1-1-1.8-3-2.8c-2.2-1.2-4.8-2.9-4.8-6.1c0-4.8,4.2-7.7,9.5-7.7
			c3,0,4.6,0.6,5.7,1.1l-1.8,4.8c-0.8-0.4-2.5-1-4.4-0.9c-2.1,0-3,0.8-3,1.8c0,1.1,1.5,1.8,3.2,2.8c2.8,1.4,4.6,3.3,4.6,6
			c0,5.5-4.7,7.9-9.7,7.9c-3.6-0.1-5.8-0.9-7-1.7L107.9,65z"/>
		<path d="M141.9,70.4c-1.1,0.5-3.2,0.9-6,0.9c-6.2,0-10.4-3.7-10.4-9.7c0-5.5,2.5-9.4,6.2-11.6c2.4-1.5,5.1-2.1,8.3-2.1
			c2.4,0,4.3,0.5,5,0.9l-1.5,4.7c-0.6-0.2-2.1-0.6-4-0.6c-1.8,0-3.4,0.5-4.7,1.4c-1.8,1.4-3,3.7-3,6.7c0,3.4,2.1,5.4,5.7,5.4
			c1.6,0,3-0.2,4.1-0.7L141.9,70.4z"/>
		<path d="M34.6,79.7c1.5-0.4,4-0.6,6.4-0.6c2,0,4.4,0.2,6.3,1.4c1.7,1,2.8,2.8,2.8,5.2c0,3-1.3,5.2-3.2,6.6
			c-1.9,1.4-4.6,2.1-7.4,2.1c-0.8,0-1.4-0.1-1.8-0.1L36,102h-5.6L34.6,79.7z M38.3,89.5c0.4,0.1,0.9,0.1,1.7,0.1
			c2.5,0,4.2-1.7,4.2-3.6c0-2-1.4-2.5-3-2.5c-0.8,0-1.4,0-1.8,0.1L38.3,89.5z"/>
		<path d="M55.1,96.7l-2.3,5.3h-6.2l10.8-22.8h7.5l2.4,22.8h-6.1l-0.3-5.3H55.1z M60.9,92.3l-0.2-4.2c-0.1-1.3-0.2-3.2-0.3-4.6h-0.1
			c-0.6,1.4-1.2,3.3-1.8,4.6l-1.8,4.2H60.9z"/>
		<path d="M74,79.6c2.1-0.3,4.3-0.5,6.6-0.5c3.4,0,6.2,0.7,8.3,2.2c2.1,1.6,3.4,4,3.4,7.5c0,4.5-1.9,8.2-4.7,10.4
			c-2.7,2.1-6,3-11.2,3c-3,0-5.5-0.3-6.5-0.5L74,79.6z M76.5,97.4c0.4,0.1,0.9,0.1,1.8,0.1c2.2,0,4.4-0.9,5.7-2.5
			c1.3-1.6,2-3.7,2-6.2c0-3.4-2-5.2-5.3-5.2c-0.8,0-1.3,0-1.6,0.1L76.5,97.4z"/>
		<path d="M108.8,92.8h-8l-0.8,4.3h9l-0.9,4.9H93.3l4.3-22.8h14.3l-0.9,4.9h-8.5l-0.7,3.8h8.1L108.8,92.8z"/>
		<path d="M115.8,79.7c1.6-0.4,4.1-0.6,6.6-0.6c2.1,0,4.5,0.2,6.2,1.2c1.6,0.8,2.9,2.4,2.9,4.7c0,3.4-2.1,5.3-5,6.4l0,0.1
			c1.3,0.6,1.8,2,2,4c0.3,2.3,0.5,5.6,0.9,6.6h-5.9c-0.2-0.7-0.4-2.4-0.7-5.3c-0.2-2.6-1.1-3.2-2.8-3.2h-1l-1.6,8.6h-5.7L115.8,79.7
			z M119.7,89.1h1.8c2.3,0,4-1.3,4-3.3c0-1.6-1.4-2.3-3.1-2.3c-0.8,0-1.4,0.1-1.7,0.1L119.7,89.1z"/>
		<path d="M136.3,79.6c1.7-0.3,4.1-0.6,6.5-0.6c2.4,0,4.2,0.2,5.8,1c1.7,0.7,3.1,2.3,3.1,4.4c0,2.9-2,4.6-4.4,5.3v0.1
			c2.2,0.7,3.5,2.6,3.5,4.9c0,2.5-1.4,4.3-3.3,5.5c-2,1.3-5,1.9-9.1,1.9c-2.8,0-5-0.2-6.2-0.4L136.3,79.6z M138.6,97.6
			c0.5,0.1,1,0.1,1.7,0.1c2.3,0,4.4-0.9,4.4-3c0-2-1.8-2.5-3.9-2.5h-1.2L138.6,97.6z M140.5,88h1.4c2.4,0,3.9-0.9,3.9-2.5
			c0-1.4-1.2-2-2.8-2c-0.8,0-1.4,0-1.7,0.1L140.5,88z"/>
		<path d="M163.4,102.4c-5.9,0-9.5-4.1-9.5-9.6c0-4.2,1.5-8.1,4.2-10.6c2.2-2.1,5.2-3.3,8.6-3.3c6,0,9.5,3.9,9.5,9.6
			c0,4.2-1.5,8.1-4,10.6C169.9,101.2,166.9,102.4,163.4,102.4L163.4,102.4z M164.2,97.6c1.2,0,2.3-0.5,3.2-1.4
			c1.7-1.7,2.5-5.2,2.5-7.6c0-2.7-1-4.9-4-4.9c-1.3,0-2.5,0.5-3.4,1.5c-1.6,1.7-2.6,5-2.6,7.5C160,95.6,161.4,97.6,164.2,97.6
			L164.2,97.6z"/>
		<path d="M181.4,79.7c1.6-0.4,4.1-0.6,6.6-0.6c2.1,0,4.5,0.2,6.2,1.2c1.6,0.8,2.9,2.4,2.9,4.7c0,3.4-2.1,5.3-5,6.4l0,0.1
			c1.3,0.6,1.8,2,2,4c0.3,2.3,0.5,5.6,0.9,6.6h-5.9c-0.2-0.7-0.4-2.4-0.7-5.3c-0.2-2.6-1.1-3.2-2.8-3.2h-1l-1.6,8.6h-5.7L181.4,79.7
			z M185.3,89.1h1.8c2.3,0,4-1.3,4-3.3c0-1.6-1.4-2.3-3.1-2.3c-0.8,0-1.4,0.1-1.7,0.1L185.3,89.1z"/>
		<path d="M197.7,102l4.3-22.8h6.9l2.1,6.9c0.9,3,1.6,5.6,2.1,8.4h0.1c0.1-2.5,0.5-5.2,1.1-8.6l1.3-6.7h5.4l-4.3,22.8h-6.1l-2.3-7.4
			c-0.9-3.2-1.6-5.5-2.3-8.5h-0.1c-0.3,2.3-0.9,5.9-1.6,9.7l-1.2,6.3H197.7z"/>
	</g>
	<g>
		<g>
			<path d="M88.6,204.5c-4.8,0-6.8-3.6-6.8-8.1c0-6.8,3.4-14.6,10.6-14.6c4.9,0,6.7,3.7,6.7,7.8C99.2,196.4,95.9,204.5,88.6,204.5
				L88.6,204.5z M89.3,200c3,0,4.2-8.1,4.2-10.3c0-1.4-0.2-3.2-1.7-3.2c-3,0-4.2,8-4.2,10.2C87.5,198,87.7,200,89.3,200L89.3,200z"
				/>
			<path d="M119.1,182.2l-0.7,3.8c-3.9,6.1-7.8,12.1-11.8,18.2h-6.4c3.9-5.7,7.8-11.3,11.6-17l0-0.1h-9.3l0.9-4.9H119.1z"/>
			<path d="M133.5,203.2c-2.2,1.1-4.8,1.3-6.5,1.3c-4.9,0-7.6-2.5-7.6-7.2c0-5.1,3.7-10.2,9.9-10.2c3.5,0,6.2,1.9,6.2,5.3
				c0,4.2-3.8,5.9-10.6,5.7c0.1,0.4,0.3,0.8,0.6,1.1c0.6,0.6,1.7,0.9,3,0.9c1.7,0,3.3-0.3,4.7-1L133.5,203.2z M130.2,192.4
				c0-0.6-0.5-1.1-1.5-1.1c-2.1,0-3.1,1.6-3.2,2.6C129,194,130.2,193.5,130.2,192.4L130.2,192.4z"/>
			<path d="M139.6,204.5c-1.9,0-3.1-1.3-3.1-3.2c0-2.1,1.6-3.9,3.8-3.9c1.9,0,3.2,1.3,3.2,3.2C143.5,202.9,141.9,204.5,139.6,204.5
				L139.6,204.5z"/>
			<path d="M149,204.2l-2.8-22.8h6l0.8,9.2c0.2,2.5,0.4,5.1,0.6,7.8h0.1c1-2.6,2.2-5.3,3.3-7.7l4.2-9.3h6.5l-11.7,22.8H149z"/>
			<path d="M166.6,204.5c-1.9,0-3.1-1.3-3.1-3.2c0-2.1,1.6-3.9,3.8-3.9c1.9,0,3.2,1.3,3.2,3.2C170.5,202.9,168.8,204.5,166.6,204.5
				L166.6,204.5z"/>
		</g>
	</g>
	<path class="st118" d="M128,2C58.4,2,2,58.4,2,128s56.4,126,126,126s126-56.4,126-126S197.6,2,128,2z M210.6,210.6
		c-22.1,22.1-51.4,34.2-82.6,34.2s-60.6-12.2-82.6-34.2c-10.4-10.4-18.7-22.5-24.4-35.6h190.1l5.9-30H12.4c-0.8-5.6-1.2-11.3-1.2-17
		c0-31.2,12.2-60.6,34.2-82.6C67.4,23.3,96.8,11.1,128,11.1s60.6,12.2,82.6,34.2c22.1,22.1,34.2,51.4,34.2,82.6
		S232.7,188.6,210.6,210.6z"/>
	<g>
		<path d="M244.8,124.3c0-5.5-0.8-10.9-1.5-15.3H28.7L23,139h221.4C244.6,135.2,245,130.4,244.8,124.3z"/>
	</g>
</g>
</svg>
