<?xml version="1.0" encoding="utf-8"?>
<!-- Generator: Adobe Illustrator 17.0.0, SVG Export Plug-In . SVG Version: 6.00 Build 0)  -->
<!DOCTYPE svg PUBLIC "-//W3C//DTD SVG 1.1//EN" "http://www.w3.org/Graphics/SVG/1.1/DTD/svg11.dtd" [
	<!ENTITY ns_flows "http://ns.adobe.com/Flows/1.0/">
	<!ENTITY ns_extend "http://ns.adobe.com/Extensibility/1.0/">
	<!ENTITY ns_ai "http://ns.adobe.com/AdobeIllustrator/10.0/">
	<!ENTITY ns_graphs "http://ns.adobe.com/Graphs/1.0/">
]>
<svg version="1.1" id="Layer_2" xmlns:x="&ns_extend;" xmlns:i="&ns_ai;" xmlns:graph="&ns_graphs;"
	 xmlns="http://www.w3.org/2000/svg" xmlns:xlink="http://www.w3.org/1999/xlink" xmlns:a="http://ns.adobe.com/AdobeSVGViewerExtensions/3.0/"
	 x="0px" y="0px" width="256px" height="256px" viewBox="0 0 256 256" style="enable-background:new 0 0 256 256;"
	 xml:space="preserve">
<style type="text/css">
	.st0{fill:#FFFFFF;}
	.st1{fill:#54B948;}
	.st2{fill:#1D8C8E;}
	.st3{fill:#14DEAC;}
	.st4{fill:#1466AC;}
	.st5{fill:#757575;}
	.st6{fill:#B69442;}
	.st7{fill:#1A234D;}
	.st8{fill:#AA0629;}
	.st9{fill:#FF4A49;}
	.st10{fill:#3C6643;}
	.st11{fill:none;stroke:#FF4A49;stroke-miterlimit:10;}
	.st12{fill:#E70084;}
	.st13{fill:#508A72;}
	.st14{fill:#01A663;}
	.st15{fill:#015297;}
	.st16{fill:#B0B0B0;}
	.st17{fill:#E1062F;}
	.st18{fill:#D80000;stroke:#FFFFFF;stroke-width:2;stroke-miterlimit:10;}
	.st19{fill:#D80000;}
	.st20{fill:#8ABE23;}
	.st21{fill:#1D1D1B;}
	.st22{fill:#FEFEFE;}
	.st23{fill:#FF0000;}
	.st24{fill:#FF1D1B;}
	.st25{fill:#6DB2DE;}
	.st26{fill:#FF1D25;}
	.st27{fill:#FFDA00;}
	.st28{fill:#024D9E;}
	.st29{fill:#6B97C6;}
	.st30{fill:#000078;}
	.st31{fill:none;stroke:#FFFFFF;stroke-width:6;stroke-linecap:round;stroke-miterlimit:10;}
	.st32{fill:#FFEE34;}
	.st33{fill:none;stroke:#000000;stroke-width:4;stroke-miterlimit:10;}
	.st34{fill:#D11E24;}
	.st35{fill:#D71F26;}
	.st36{fill:#020000;}
	.st37{fill:none;stroke:#000000;stroke-width:2;stroke-miterlimit:10;}
	.st38{clip-path:url(#SVGID_2_);}
	.st39{fill:#00317D;}
	.st40{fill:#00737D;}
	.st41{fill:#ED1C24;}
	.st42{fill:#2678C7;}
	.st43{fill:#1853A6;}
	.st44{fill:#CB0000;}
	.st45{fill:#E61C21;}
	.st46{clip-path:url(#SVGID_4_);}
	.st47{fill:#6BDEF1;}
	.st48{clip-path:url(#SVGID_6_);}
	.st49{fill:#0165B2;}
	.st50{fill:#DE1134;}
	.st51{fill:#00A668;}
	.st52{fill:#FFE60B;}
	.st53{fill:#843D00;stroke:#000000;stroke-miterlimit:10;}
	.st54{fill:#EC1F27;}
	.st55{fill:#162984;}
	.st56{fill:#1853A6;stroke:#1853A6;stroke-miterlimit:10;}
	.st57{fill:none;}
	.st58{fill:none;stroke:#1853A6;stroke-width:0.9;stroke-miterlimit:10;}
	.st59{fill:#1853A6;stroke:#1853A6;stroke-width:0.9;stroke-miterlimit:10;}
	.st60{fill:#B5985A;}
	.st61{fill:#FFE60B;stroke:#000000;stroke-width:6;stroke-miterlimit:10;}
	.st62{fill:#008DCD;}
	.st63{fill:#009939;}
	.st64{fill:#2E3092;}
	.st65{fill:#EE3224;}
	.st66{fill:#005BAB;}
	.st67{fill:#D30027;}
	.st68{fill:#FFFFFF;stroke:#D30027;stroke-width:10;stroke-miterlimit:10;}
	.st69{fill:#E81C2F;}
	.st70{fill:#DC032B;}
	.st71{fill:#F25448;}
	.st72{fill:#FFFFFF;stroke:#F25448;stroke-width:6;stroke-miterlimit:10;}
	.st73{fill:#05A08D;}
	.st74{fill:#1875CE;}
	.st75{fill:#D72427;}
	.st76{fill:#004993;}
	.st77{fill:#007BB0;}
	.st78{fill:#FFEB00;}
	.st79{fill:#664A9E;}
	.st80{fill:#F4C701;}
	.st81{fill:#EBBE12;}
	.st82{fill:#44B3DB;}
	.st83{fill:#F6FF82;}
	.st84{fill:#FFC918;}
	.st85{fill:#0361A4;}
	.st86{fill:#009FE3;}
	.st87{fill:#E30217;}
	.st88{fill:#FDEA00;}
	.st89{fill:#E91B00;}
	.st90{fill:#2B2763;}
	.st91{fill:#EE1A22;}
	.st92{fill:#F1AA25;}
	.st93{fill:#93000C;}
	.st94{fill:none;stroke:#1D1D1B;stroke-width:4;}
	.st95{fill:#3E4E70;}
	.st96{fill:#096CB6;}
	.st97{fill:#0559A8;}
	.st98{fill:#F9ED1A;}
	.st99{fill:#949494;}
	.st100{fill:#FFD033;}
	.st101{fill:#243D89;}
	.st102{fill:#F8C936;}
	.st103{fill:#D44128;}
	.st104{fill:#ED1B23;}
	.st105{fill:#0C529C;}
	.st106{fill:#E31E24;}
	.st107{fill:#0263B0;}
	.st108{fill:#007AC2;}
	.st109{fill:#EF3D1F;}
	.st110{fill:#EE1C24;}
	.st111{fill:#FDEA00;stroke:#000000;stroke-width:0.6509;}
	.st112{fill:#FDEA00;stroke:#000000;stroke-width:0.6979;}
	.st113{fill:#46A0BE;}
	.st114{fill:#005FA5;}
	.st115{fill:#00904C;}
	.st116{fill:#E21F26;}
	.st117{fill:#FD0001;}
	.st118{fill:#0066B3;}
	.st119{fill:#E20019;}
	.st120{fill:#0171BC;}
	.st121{fill:#01305D;}
	.st122{fill:#1B7EE9;}
	.st123{fill:#BA0D0B;}
	.st124{fill:none;stroke:#000000;stroke-width:3;stroke-miterlimit:10;}
	.st125{fill:#FFFFFF;stroke:#000000;stroke-width:0.8836;stroke-miterlimit:10;}
	.st126{fill:#FFFFFF;stroke:#000000;stroke-width:0.9759;stroke-miterlimit:10;}
	.st127{fill:#0053A1;}
	.st128{fill:#FFE100;}
	.st129{fill:#FFE500;}
	.st130{fill:none;stroke:#FFE500;stroke-width:2;stroke-miterlimit:10;}
	.st131{fill:#01AFF3;}
	.st132{fill:#ED1B28;}
	.st133{fill:#E2000A;}
</style>
<path class="st0" d="M12.5,135.6c0-3.8,0-7.5,0-11.3c0.7-1.9,0.3-4,0.5-6c1.3-12,4.1-23.7,8.7-35c7-17.1,17.2-32,31.1-44.3
	c16.5-14.6,35.7-23.2,57.5-26.1c3.3-0.4,6.7-0.8,10-1.2c4.4,0,8.8,0,13.2,0c3.5,0.4,6.9,0.7,10.4,1.2c11.8,1.5,23.2,4.5,34,9.9
	c16.9,8.5,30.7,20.5,41.7,35.7c18.3,25.3,26.5,53.5,23.3,84.8c-2.2,21.6-10,41-23.9,57.9c-11.9,14.4-26.1,25.7-43.2,33.3
	c-20.3,9-41.5,11.4-63.3,8.6c-19.5-2.6-37-10.3-52.6-22.1c-14.2-10.7-25.6-24-34.1-39.7c-5.3-9.8-9.4-20.2-11.5-31.2
	C13.4,145.2,13.2,140.4,12.5,135.6z"/>
<g>
	<g>
		<path d="M12.4,135.5c0-3.8,0-7.5,0-11.3c0.7-1.9,0.3-4,0.5-6c1.3-12,4.1-23.7,8.7-34.9c7-17.1,17.2-32,31.1-44.3
			C69.2,24.5,88.4,15.9,110.2,13c3.3-0.4,6.7-0.8,10-1.2c4.4,0,8.8,0,13.2,0c3.5,0.4,6.9,0.7,10.4,1.2c11.8,1.5,23.2,4.5,33.9,9.9
			c16.8,8.5,30.7,20.5,41.7,35.7c18.3,25.3,26.5,53.5,23.3,84.7c-2.2,21.6-10,40.9-23.9,57.8c-11.9,14.4-26.1,25.7-43.2,33.2
			c-20.3,9-41.4,11.4-63.3,8.6c-19.5-2.6-36.9-10.3-52.6-22.1c-14.2-10.7-25.6-24-34.1-39.6c-5.3-9.8-9.4-20.2-11.5-31.2
			C13.3,145.2,13.2,140.3,12.4,135.5z M67.5,161.8c0.1,7.6,2,13.6,6.8,18.1c6.3,5.9,13.3,11.1,21,15.3c4.5,2.5,9.5,4.3,14.7,2.9
			c7.3-2,14.5-4.3,21-8.4c3.8-2.4,6.9-5.5,7.9-10.3c2.5-11.6,4-23.3,5.8-35.1c0.5-3.3,0.1-5.9-2.9-7.8c-1.1-0.7-2-1.8-3-2.8
			c-6-5.5-12.3-10.5-19.5-14.3c-3.5-1.9-7-2.6-11-1.5c-3.3,1-6.5,2.2-9.5,3.8c-5.3,2.8-10.5,5.8-16.2,7.9c-4.7,1.8-7.9,5.4-10.1,9.7
			C68.7,146.8,69.1,155,67.5,161.8z M219,139.9c0.4-1.1-0.5-1.7-1.3-2.4c-9.8-8.3-21.2-13.9-32.6-19.4c-0.6-0.3-1.2-0.2-1.9-0.2
			c-4.5,0.6-8.5,2.5-12.3,4.9c-6.5,4.1-12.1,9.4-18.2,13.9c-1.7,1.3-2.7,2.9-3.2,4.9c-0.3,1.3-0.4,2.6-0.6,3.8
			c-1.8,11.5-3.9,23-5.5,34.5c-0.4,3,0,4.8,2.8,6.6c7.5,5,15.1,9.4,23.6,12.5c4.4,1.6,8.3,1.3,12.1-1.3c7.4-5.1,14.8-10.1,22.1-15.1
			c2-1.4,3.9-3,5.6-4.8c3.1-3.3,5.7-6.8,6.6-11.4C217.7,157.8,218.1,148.9,219,139.9z M95.5,42.9c-3,0.1-6.2,1.7-9.6,3
			c-14.1,5.7-23.5,15.9-28.8,30c-2.6,7-4.7,14.1-7.4,21.1c-1.3,3.5-0.7,6.5,1.1,9.6c2.8,4.8,6.6,8.6,10.4,12.6
			c2.8,2.9,5.5,5.8,9,7.9c3.8,2.3,7.6,2.3,11.3-0.3c1.4-1,2.9-1.9,4.5-2.7c8.1-4.3,16.2-8.8,24.2-13.3c0.9-0.5,1.5-1.1,1.8-2.1
			c2.9-10.2,6.5-20.2,10-30.2c0.4-1.3,0.5-2.5,0.4-3.8c-0.5-5.3-2.9-9.8-6.1-13.8c-4.1-5-8.4-9.9-12.7-14.7
			C101.6,43.9,99.2,42.9,95.5,42.9z M235.3,105.8c0-0.5,0-0.9,0-1.4c0-0.4-0.1-0.8-0.2-1.2c-2.9-16.6-9.5-31.5-20.1-44.6
			c-5.4-6.7-11.5-12.7-19.7-15.9c-1.3-0.5-2.5-1-3.9-1.1c-1.9-0.2-3.6,0.3-4.5,2c-3.1,5.4-7.2,10.2-10.6,15.4
			c-2.7,4.2-4.9,8.6-4,13.8c0.4,2.3,1.2,4.6,1.9,6.9c3.2,10.3,6,20.8,10.5,30.6c0.5,1,1.1,1.8,2,2.5c10.1,7.5,21.1,13.3,32.5,18.5
			c1.5,0.7,2.6,0.3,3.6-1c2.2-3,4.5-5.9,6.6-8.9C232.7,116.7,235.2,111.7,235.3,105.8z M131.1,16c-1.6,0-3.1-0.1-4.7,0
			c-1.7,0.1-3.4-0.1-4.9,0.8c-5.3,2.9-10,6.6-13.7,11.4c-4.7,6-5.6,11.6,0.2,17.9c6,6.5,11.9,13.2,18,19.6c0.9,0.9,1.7,1.3,3,1.3
			c11.4-0.1,22.8-1.3,34.1-2c1.6-0.1,3.5,0,4.7-1.3c6.6-7.2,12.1-15,15.2-24.4c0.3-0.9,0.2-1.7-0.2-2.6c-2.2-4.7-5.9-8-10.3-10.5
			C159.8,18.9,145.8,16.2,131.1,16z M41.6,188.4c-0.1,1.8,0.1,4,0.4,6.2c0.5,3.6,1.6,7,4.2,9.6c9.2,9.3,19.2,17.4,31,23.2
			c7.3,3.6,14.7,6.2,23.1,4.3c4.7-1.1,6.5-2.6,6.9-7.3c0.1-1.2,0-2.5-0.1-3.7c-0.6-4.2-2-8.2-4-11.9c-1.8-3.5-4.1-6.5-7.9-8.3
			c-2.2-1-4.2-2.6-6.2-4c-7.4-5.3-14.1-11.6-21.5-17c-0.8-0.6-1.6-1-2.6-1.3c-3-0.7-6-0.5-9,0.2c-3.5,0.9-6.9,2.4-10.3,3.6
			C41.6,183.6,41.6,183.6,41.6,188.4z M17,124.2c0.2,1.2,0.4,2.4,0.8,3.6c0.6,1.7,1.5,3.3,3.5,3.5c2.1,0.3,3.4-1.1,4.4-2.6
			c0.7-1,1.2-2.2,2-3.1c3.4-4.1,6.9-8.2,10.4-12.3c2.5-3,4.7-6,5.6-10c3.2-14.2,8-27.9,15-40.6c2-3.6,1.2-6.5-0.8-9.3
			c-3.6-5.1-9.4-4.9-12.8,0.3c-0.8,1.2-1.6,2.5-2.5,3.7C36.1,65.9,30.5,75.1,26.1,85C20.5,97.5,17.5,110.5,17,124.2z M164.9,232
			c1.7,0,3-0.2,4.3-0.6c5.7-1.6,10.7-4.5,15.8-7.4c16-9.1,29.1-21.3,38.5-37.2c1.2-2.1,2.2-4.3,2.4-6.7c0.2-2.3-1-3.6-3.2-3.7
			c-2-0.1-3.8,0.3-5.5,1.5c-10.9,7.2-21.2,15.3-32.1,22.5c-2.4,1.6-4.9,2.8-7.1,4.7c-7.6,6.4-13,14.6-18.5,22.6
			c-0.6,0.9-0.2,1.5,0.2,2.1C161.1,231.6,163.1,231.9,164.9,232z M104.2,236c3.5,1.9,9.5,3.4,14.5,3.9c9.1,0.9,18.1-0.2,27.1-1.3
			c2.2-0.3,4.5-0.4,6.7-1.3c0.5-0.2,1.1-0.3,1.1-1c0-0.6-0.6-0.8-1-1c-1.4-0.7-3-0.8-4.5-1.1c-10-1.8-20-2.7-30.2-1.3
			C113.3,233.4,108.7,234.4,104.2,236z M36.8,191.7c0.9-3.3,1.4-6.3-0.2-9.3c-7.8-13.7-12.7-28.4-15.2-44c-0.1-0.5,0.2-1.3-0.5-1.5
			c-0.7-0.2-1.2,0.4-1.6,0.8c-0.6,0.6-0.9,1.3-1.1,2c-0.6,1.9-0.5,3.9-0.2,5.8C20.5,162.3,27.5,177.3,36.8,191.7z"/>
	</g>
	<g>
		<g>
			<g>
				<path class="st21" d="M76.4,199.3H22l38.1-45c-2.6,0.4-5.3,0.6-8,0.6c-14.5,0-27.7-6-37.1-17C6.3,127.7,1.5,114.1,1.5,99.7
					c0-34.6,27.3-58.8,66.3-58.8c17.3,0,33.3,4.9,43.8,13.4c12.9,10.4,20.9,26.9,20.9,43.2c0,18.7-8.1,38.9-24,59.9L76.4,199.3z
					 M41.4,190.4H72l29.4-38.5c14.7-19.4,22.2-37.8,22.2-54.5c0-13.4-6.9-27.6-17.6-36.2C97,54,83.1,49.8,67.7,49.8
					c-15.7,0-30.1,4.6-40.4,12.9c-11.1,9-16.9,21.7-16.9,36.9c0,22.4,14.6,46.3,41.7,46.3c6.5,0,12-1.2,18.4-4l2.8-1.2l5.5,5.5
					L41.4,190.4z M67.9,126.7c-15.5,0-27.6-12.4-27.6-28.1c0-15.8,12.1-28.1,27.6-28.1c15.6,0,28.3,12.6,28.3,28.1
					C96.3,114,83.6,126.7,67.9,126.7z M67.9,79.4c-10.6,0-18.6,8.2-18.6,19.2c0,10.9,8,19.2,18.6,19.2c10.7,0,19.4-8.6,19.4-19.2
					C87.3,88,78.6,79.4,67.9,79.4z"/>
			</g>
			<g>
				<path class="st21" d="M187.2,205.1c-17.1,0-33.1-4.9-43.8-13.4l-0.1-0.1c-12.9-10.7-20.9-27.2-20.9-42.9
					c0-18.7,8.3-39.4,24-59.9l32.2-42.2h54.2l-37.9,45.2c2.6-0.4,5.2-0.6,7.9-0.6c14.5,0,27.7,6,37.1,17
					c8.8,10.2,13.6,23.7,13.6,38.1C253.5,180.9,226.2,205.1,187.2,205.1z M149,184.7c9,7.1,23.3,11.4,38.2,11.4
					c15.7,0,30.1-4.6,40.4-13c11.1-9,16.9-21.7,16.9-36.9c0-29.9-21.5-46.1-41.7-46.1c-6.4,0-11.9,1.2-18.2,4l-2.8,1.2l-5.5-5.4
					l37.3-44.4h-30.5l-29.6,38.7c-10.1,13.2-22.2,33.4-22.2,54.5C131.4,161.8,138.2,175.6,149,184.7z M187,175.7
					c-15.5,0-28.1-12.7-28.1-28.3c0-15.4,12.6-27.9,28.1-27.9c15.5,0,27.6,12.3,27.6,27.9C214.6,163.2,202.5,175.7,187,175.7z
					 M187,128.4c-10.6,0-19.2,8.5-19.2,19c0,10.7,8.6,19.4,19.2,19.4c10.4,0,18.6-8.5,18.6-19.4C205.6,136.7,197.4,128.4,187,128.4z
					"/>
			</g>
		</g>
		<g>
			<g>
				<path class="st23" d="M31.7,194.9l41-48.4l-0.4-0.4c-6.5,2.9-12.6,4.4-20.2,4.4C23.9,150.4,6,126.2,6,99.7
					c0-35.3,29-54.4,61.8-54.4c13.9,0,29.9,3.4,41,12.4c11.6,9.3,19.3,24.6,19.3,39.7c0,20.8-10.7,40.8-23.1,57.2l-30.7,40.2H31.7z
					 M44.9,98.5c0,13.2,9.9,23.7,23.1,23.7s23.8-10.5,23.8-23.7c0-13.2-10.7-23.6-23.8-23.6S44.9,85.4,44.9,98.5z"/>
			</g>
			<g>
				<path class="st23" d="M223.2,51l-40.8,48.6l0.4,0.4c6.5-2.9,12.6-4.4,20-4.4c28.2,0,46.2,24.2,46.2,50.5
					c0,35.3-29,54.4-61.8,54.4c-13.9,0-29.9-3.6-41-12.4c-11.4-9.5-19.3-24.6-19.3-39.5c0-20.8,10.7-41,23.1-57.2L180.9,51H223.2z
					 M210.1,147.4c0-13-9.9-23.5-23.1-23.5c-13,0-23.6,10.5-23.6,23.5c0,13.2,10.7,23.8,23.6,23.8
					C200.2,171.2,210.1,160.5,210.1,147.4z"/>
			</g>
		</g>
	</g>
</g>
</svg>
