<?xml version="1.0" encoding="utf-8"?>
<!-- Generator: Adobe Illustrator 17.0.0, SVG Export Plug-In . SVG Version: 6.00 Build 0)  -->
<!DOCTYPE svg PUBLIC "-//W3C//DTD SVG 1.1//EN" "http://www.w3.org/Graphics/SVG/1.1/DTD/svg11.dtd" [
	<!ENTITY ns_flows "http://ns.adobe.com/Flows/1.0/">
	<!ENTITY ns_extend "http://ns.adobe.com/Extensibility/1.0/">
	<!ENTITY ns_ai "http://ns.adobe.com/AdobeIllustrator/10.0/">
	<!ENTITY ns_graphs "http://ns.adobe.com/Graphs/1.0/">
]>
<svg version="1.1" id="Layer_2" xmlns:x="&ns_extend;" xmlns:i="&ns_ai;" xmlns:graph="&ns_graphs;"
	 xmlns="http://www.w3.org/2000/svg" xmlns:xlink="http://www.w3.org/1999/xlink" xmlns:a="http://ns.adobe.com/AdobeSVGViewerExtensions/3.0/"
	 x="0px" y="0px" width="256px" height="256px" viewBox="0 0 256 256" style="enable-background:new 0 0 256 256;"
	 xml:space="preserve">
<style type="text/css">
	.st0{fill:#FFFFFF;}
	.st1{fill:#54B948;}
	.st2{fill:#1D8C8E;}
	.st3{fill:#14DEAC;}
	.st4{fill:#1466AC;}
	.st5{fill:#757575;}
	.st6{fill:#B69442;}
	.st7{fill:#1A234D;}
	.st8{fill:#AA0629;}
	.st9{fill:#FF4A49;}
	.st10{fill:#3C6643;}
	.st11{fill:none;stroke:#FF4A49;stroke-miterlimit:10;}
	.st12{fill:#E70084;}
	.st13{fill:#508A72;}
	.st14{fill:#01A663;}
	.st15{fill:#015297;}
	.st16{fill:#B0B0B0;}
	.st17{fill:#E1062F;}
	.st18{fill:#D80000;stroke:#FFFFFF;stroke-width:2;stroke-miterlimit:10;}
	.st19{fill:#D80000;}
	.st20{fill:#8ABE23;}
	.st21{fill:#1D1D1B;}
	.st22{fill:#FEFEFE;}
	.st23{fill:#FF0000;}
	.st24{fill:#FF1D1B;}
	.st25{fill:#6DB2DE;}
	.st26{fill:#FF1D25;}
	.st27{fill:#FFDA00;}
	.st28{fill:#024D9E;}
	.st29{fill:#6B97C6;}
	.st30{fill:#000078;}
	.st31{fill:none;stroke:#FFFFFF;stroke-width:6;stroke-linecap:round;stroke-miterlimit:10;}
	.st32{fill:#FFEE34;}
	.st33{fill:none;stroke:#000000;stroke-width:4;stroke-miterlimit:10;}
	.st34{fill:#D11E24;}
	.st35{fill:#D71F26;}
	.st36{fill:#020000;}
	.st37{fill:none;stroke:#000000;stroke-width:2;stroke-miterlimit:10;}
	.st38{clip-path:url(#SVGID_2_);}
	.st39{fill:#00317D;}
	.st40{fill:#00737D;}
	.st41{fill:#ED1C24;}
	.st42{fill:#2678C7;}
	.st43{fill:#1853A6;}
	.st44{fill:#CB0000;}
	.st45{fill:#E61C21;}
	.st46{clip-path:url(#SVGID_4_);}
	.st47{fill:#6BDEF1;}
	.st48{clip-path:url(#SVGID_6_);}
	.st49{fill:#0165B2;}
	.st50{fill:#DE1134;}
	.st51{fill:#00A668;}
	.st52{fill:#FFE60B;}
	.st53{fill:#843D00;stroke:#000000;stroke-miterlimit:10;}
	.st54{fill:#EC1F27;}
	.st55{fill:#162984;}
	.st56{fill:#1853A6;stroke:#1853A6;stroke-miterlimit:10;}
	.st57{fill:none;}
	.st58{fill:none;stroke:#1853A6;stroke-width:0.9;stroke-miterlimit:10;}
	.st59{fill:#1853A6;stroke:#1853A6;stroke-width:0.9;stroke-miterlimit:10;}
	.st60{fill:#B5985A;}
	.st61{fill:#FFE60B;stroke:#000000;stroke-width:6;stroke-miterlimit:10;}
	.st62{fill:#008DCD;}
	.st63{fill:#009939;}
	.st64{fill:#2E3092;}
	.st65{fill:#EE3224;}
	.st66{fill:#005BAB;}
	.st67{fill:#D30027;}
	.st68{fill:#FFFFFF;stroke:#D30027;stroke-width:10;stroke-miterlimit:10;}
	.st69{fill:#E81C2F;}
	.st70{fill:#DC032B;}
	.st71{fill:#F25448;}
	.st72{fill:#FFFFFF;stroke:#F25448;stroke-width:6;stroke-miterlimit:10;}
	.st73{fill:#05A08D;}
	.st74{fill:#1875CE;}
	.st75{fill:#D72427;}
	.st76{fill:#004993;}
	.st77{fill:#007BB0;}
	.st78{fill:#FFEB00;}
	.st79{fill:#664A9E;}
	.st80{fill:#F4C701;}
	.st81{fill:#EBBE12;}
	.st82{fill:#44B3DB;}
	.st83{fill:#F6FF82;}
	.st84{fill:#FFC918;}
	.st85{fill:#0361A4;}
	.st86{fill:#009FE3;}
	.st87{fill:#E30217;}
	.st88{fill:#FDEA00;}
	.st89{fill:#E91B00;}
	.st90{fill:#2B2763;}
	.st91{fill:#EE1A22;}
	.st92{fill:#F1AA25;}
	.st93{fill:#93000C;}
	.st94{fill:none;stroke:#1D1D1B;stroke-width:4;}
	.st95{fill:#3E4E70;}
	.st96{fill:#096CB6;}
	.st97{fill:#0559A8;}
	.st98{fill:#F9ED1A;}
	.st99{fill:#949494;}
	.st100{fill:#FFD033;}
	.st101{fill:#243D89;}
	.st102{fill:#F8C936;}
	.st103{fill:#D44128;}
	.st104{fill:#ED1B23;}
	.st105{fill:#0C529C;}
	.st106{fill:#E31E24;}
	.st107{fill:#0263B0;}
	.st108{fill:#007AC2;}
	.st109{fill:#EF3D1F;}
	.st110{fill:#EE1C24;}
	.st111{fill:#FDEA00;stroke:#000000;stroke-width:0.6509;}
	.st112{fill:#FDEA00;stroke:#000000;stroke-width:0.6979;}
	.st113{fill:#46A0BE;}
	.st114{fill:#005FA5;}
	.st115{fill:#00904C;}
	.st116{fill:#E21F26;}
	.st117{fill:#FD0001;}
	.st118{fill:#0066B3;}
	.st119{fill:#E20019;}
	.st120{fill:#0171BC;}
	.st121{fill:#01305D;}
	.st122{fill:#1B7EE9;}
	.st123{fill:#BA0D0B;}
	.st124{fill:none;stroke:#000000;stroke-width:3;stroke-miterlimit:10;}
	.st125{fill:#FFFFFF;stroke:#000000;stroke-width:0.8836;stroke-miterlimit:10;}
	.st126{fill:#FFFFFF;stroke:#000000;stroke-width:0.9759;stroke-miterlimit:10;}
	.st127{fill:#0053A1;}
	.st128{fill:#FFE100;}
	.st129{fill:#FFE500;}
	.st130{fill:none;stroke:#FFE500;stroke-width:2;stroke-miterlimit:10;}
	.st131{fill:#01AFF3;}
	.st132{fill:#ED1B28;}
	.st133{fill:#E2000A;}
</style>
<g>
	<g>
		<path class="st0" d="M251.3,79H4.8c2,49,13.1,86.5,33.8,111.9c0.9,1.1,1.7,2.1,2.6,3.1h173.2c0.9-1,1.7-1.9,2.5-2.9
			C238.2,165.7,249.5,128,251.3,79z"/>
		<path class="st122" d="M251.5,66.8c-12.6-0.5-27.8-4.8-35.2-15.5c-4.8-7-5.7-15.6-2.5-25.9C203.1,27.5,193,29,183.7,29
			c0,0,0,0,0,0c-35.8,0-51.9-15.5-57.1-22c-5.7,6-22.7,20-56.6,20c0,0,0,0,0,0C62,27,53.6,25.7,45,24.2c3,9.9,2.2,17.8-2.4,24.5
			c-9,13.2-29.1,15.6-38,15.9c0,4.8,0.1,9.3,0.3,14.3h246.5C251.4,75,251.5,70.8,251.5,66.8z"/>
	</g>
	<g>
		<path class="st0" d="M135,194v44.3c5.3-3.1,12.2-5.6,19.8-8.4c0.1,0,0.1,0,0.2-0.1V194H135z"/>
		<path class="st0" d="M55,194v12.9c6.6,5.2,13.3,9.2,20,12.6V194H55z"/>
		<path class="st0" d="M95,194v34.2c1.7,0.6,3.3,1.2,4.9,1.8c5.6,2.1,10.7,4,15.1,6.1V194H95z"/>
		<path class="st0" d="M175,194v27.9c6.6-3,13.3-6.5,20-11V194H175z"/>
		<path class="st123" d="M115,194v42.1c5.3,2.6,9.5,5.4,12,9.3c1.8-2.8,4.6-5.1,8-7.1V194H115z"/>
		<path class="st123" d="M75,194v25.5c6.9,3.5,13.6,6.2,20,8.6V194H75z"/>
		<path class="st123" d="M41.2,194c4.4,5,9.1,9.2,13.8,12.9V194H41.2z"/>
		<path class="st123" d="M155,194v35.9c6.3-2.3,13-4.8,20-8V194H155z"/>
		<path class="st123" d="M214.4,194H195v16.9C201.7,206.4,208.2,200.9,214.4,194z"/>
	</g>
	<path d="M126.4,9.6c7,7.6,23.9,20.9,57.3,20.9c8.4,0,17.3-0.8,26.7-2.5c-2.1,9.4-0.8,17.5,3.9,24.3c7.4,10.8,22,15.5,34.7,16.4
		c-0.3,28.3-3.6,53.1-9.9,73.6c-5.6,18.5-13.7,34.1-24.1,46.6c-19.1,22.8-42.4,31.4-61.1,38.3c-11.1,4.1-21.2,7.8-26.9,14
		c-5.6-6.1-15.5-9.8-26.3-13.8c-18.5-6.9-41.4-15.5-60.2-38.6c-10.3-12.6-18.3-28.5-23.8-47.2C10.6,120.7,7.3,95.6,7,66.8
		c10.2-0.6,28.7-3.7,37.6-16.6c4.5-6.5,5.7-14.3,3.8-23.3c7.5,1.2,14.7,1.7,21.6,1.7C101.4,28.5,118.9,16.5,126.4,9.6 M126.7,2
		c0,0-15.5,21.6-56.8,21.6c-8.5,0-18-0.9-28.7-3.1C54.2,53.3,22.7,62,2,62c0,192.7,124.9,154.5,125,192c0.1-37.5,127,0,127-190
		c-19.5,0-49.4-9.6-36.4-42.5c-12.9,2.9-24.2,4.1-33.9,4.1C140.2,25.6,126.7,2,126.7,2L126.7,2z"/>
	<g>
		<path class="st23" d="M58.7,92.9h36.1v12.3h-21v10.3h19.8v12.2H73.8v21.3H58.7V92.9z"/>
		<path class="st23" d="M105.1,134.1c3.4,1.8,8.9,3.5,14.6,3.5c5.2,0,7.7-1.8,7.7-4.6c0-2.8-2.5-4.3-8.8-6.4
			c-9.5-3.4-15.8-8.6-15.8-16.9c0-9.9,8.4-17.6,22.6-17.6c6.7,0,11.5,1.2,15.2,2.8l-3.2,12.1c-2.4-1.1-6.6-2.7-12.2-2.7
			c-4.6,0-7.1,1.7-7.1,4.2c0,2.8,3,3.9,10.1,6.6c10.1,3.8,14.6,9.1,14.6,16.9c0,9.7-7.5,17.9-23.9,17.9c-6.8,0-13.3-1.8-16.5-3.4
			L105.1,134.1z"/>
		<path class="st23" d="M164.5,149.1l-17.8-56.2h16.5l6,22.1c1.8,6.3,3.2,12.5,4.7,19.7h0.2c1.3-6.8,2.9-13.3,4.6-19.4l6.1-22.3h16
			l-18.3,56.2H164.5z"/>
	</g>
	<g>
		<path d="M57.3,178.2l12.1-17.5v-0.1h-11V157h16.6v2.5L63,176.9v0.1h12.1v3.6H57.3V178.2z"/>
		<path d="M82.5,180.6L76.7,157h4.6l2.2,10.7c0.6,2.9,1.2,5.9,1.5,8.2h0.1c0.4-2.5,1-5.3,1.7-8.3l2.6-10.6h4.5l2.3,10.8
			c0.6,2.8,1.1,5.4,1.4,8h0.1c0.4-2.6,1-5.3,1.6-8.2l2.4-10.6h4.4l-6.4,23.6h-4.6l-2.4-11.1c-0.6-2.7-1-4.9-1.3-7.4h-0.1
			c-0.4,2.5-0.8,4.8-1.5,7.5l-2.7,11.1H82.5z"/>
		<path d="M113.4,157v23.6h-4.3V157H113.4z"/>
		<path d="M135.2,179.9c-1,0.5-3.3,1-6.1,1c-7.5,0-12-4.7-12-11.9c0-7.8,5.4-12.4,12.6-12.4c2.8,0,4.8,0.6,5.7,1l-0.9,3.4
			c-1.1-0.5-2.7-0.9-4.6-0.9c-4.8,0-8.3,3-8.3,8.7c0,5.2,3,8.5,8.2,8.5c1.7,0,3.5-0.3,4.7-0.8L135.2,179.9z"/>
		<path d="M138.9,157h4.3v10.8h0.1c0.6-0.9,1.2-1.7,1.7-2.6l6.2-8.3h5.3l-8.1,10l8.6,13.5h-5l-6.6-10.8l-2.1,2.5v8.3h-4.3V157z"/>
		<path d="M164.4,173.9l-2,6.7h-4.4l7.6-23.6h5.5l7.7,23.6H174l-2.1-6.7H164.4z M171.1,170.7l-1.9-5.8c-0.5-1.4-0.8-3-1.2-4.4H168
			c-0.3,1.4-0.7,3-1.1,4.4l-1.8,5.8H171.1z"/>
		<path d="M185,157v13.7c0,4.6,1.9,6.8,4.8,6.8c3.1,0,5-2.1,5-6.8V157h4.3v13.5c0,7.3-3.7,10.5-9.4,10.5c-5.5,0-9-3-9-10.5V157H185z
			"/>
	</g>
	<line class="st124" x1="4" y1="80.5" x2="252" y2="80.5"/>
	<line class="st124" x1="42" y1="194.5" x2="213" y2="194.5"/>
	<g>
		<g>
			<path class="st125" d="M88,53.5c1.4-0.2,2.8-0.3,4.3-0.3c3.5,0,6.9,0.6,10.3,1.4c1.4,0.3,2.8,0.2,4-0.7c0.6-0.4,1.2-0.8,1.8-1.1
				c0.4-0.2,0.7-0.4,1.1-0.6c0.3-0.1,0.7-0.2,1,0.1c0.3,0.3,0.2,0.7,0.1,1.1c-0.2,0.6-0.7,1-1,1.5c-0.2,0.3-0.6,0.6-0.7,1
				c0.5,0.2,0.8-0.1,1.2-0.2c0.2-0.1,0.4-0.1,0.6,0.1c0.2,0.2,0.1,0.4,0,0.6c-0.1,0.4-0.4,0.7-0.7,0.9c-0.4,0.3-0.8,0.7-0.8,1.3
				c-0.1,1.2-0.7,2-1.5,2.7c-1.1,1-1.9,2.1-2.6,3.4c-0.7,1.4-1.4,2.8-2.2,4.1c-1.1,1.9-2.8,3.1-4.9,3.7c-4.2,1.1-8.5,1.6-12.8,1.7
				c-4.2,0.1-8.5-0.1-12.7-0.7c-2.1-0.3-4.2-0.7-6.3-1.3c-1.9-0.5-3.4-1.4-3.8-1.7c-0.7-0.5-1.3-0.9-1.9-1.5c-2-2.3-2.6-4.9-1.9-7.8
				c0.5-2,1.6-3.6,2.5-5.4c1.3-2.6,2.8-5,3.5-7.8c0.4-1.5,0.5-3,0.2-4.6c-0.4-2-2.8-4-4.8-4c-0.9,0-1.9,0-2.6-0.6
				c-0.4-0.3-0.7-0.5-1.2-0.6c-0.4-0.1-0.9-0.2-0.9-0.7c0-0.5,0.6-0.5,0.9-0.6c1.5-0.3,2.9-0.9,4.2-1.8c1.5-1.1,3.3-1.7,5.1-1.9
				c2.9-0.4,5.7,1.7,5.9,4.1c0.1,0.8,0.2,1.6,0.2,2.4c0.1,2.3-0.4,4.5-0.6,6.7c-0.4,3.2-0.7,6.4,0,9.6c0.2,1.1,0.6,1.4,1.7,1.2
				c1.7-0.4,3.5-0.8,5.2-1.3C80.5,55,86.9,53.7,88,53.5z"/>
		</g>
		<g>
			<path class="st125" d="M182.4,53.5c1.4-0.2,2.8-0.3,4.3-0.3c3.5,0,6.9,0.6,10.3,1.4c1.4,0.3,2.8,0.2,4-0.7
				c0.6-0.4,1.2-0.8,1.8-1.1c0.4-0.2,0.7-0.4,1.1-0.6c0.3-0.1,0.7-0.2,1,0.1c0.3,0.3,0.2,0.7,0.1,1.1c-0.2,0.6-0.7,1-1,1.5
				c-0.2,0.3-0.6,0.6-0.7,1c0.5,0.2,0.8-0.1,1.2-0.2c0.2-0.1,0.4-0.1,0.6,0.1c0.2,0.2,0.1,0.4,0,0.6c-0.1,0.4-0.4,0.7-0.7,0.9
				c-0.4,0.3-0.8,0.7-0.8,1.3c-0.1,1.2-0.7,2-1.5,2.7c-1.1,1-1.9,2.1-2.6,3.4c-0.7,1.4-1.4,2.8-2.2,4.1c-1.1,1.9-2.8,3.1-4.9,3.7
				c-4.2,1.1-8.5,1.6-12.8,1.7c-4.2,0.1-8.5-0.1-12.7-0.7c-2.1-0.3-4.2-0.7-6.3-1.3c-1.9-0.5-3.4-1.4-3.8-1.7
				c-0.7-0.5-1.3-0.9-1.9-1.5c-2-2.3-2.6-4.9-1.9-7.8c0.5-2,1.6-3.6,2.5-5.4c1.3-2.6,2.8-5,3.5-7.8c0.4-1.5,0.5-3,0.2-4.6
				c-0.4-2-2.8-4-4.8-4c-0.9,0-1.9,0-2.6-0.6c-0.4-0.3-0.7-0.5-1.2-0.6c-0.4-0.1-0.9-0.2-0.9-0.7c0-0.5,0.6-0.5,0.9-0.6
				c1.5-0.3,2.9-0.9,4.2-1.8c1.5-1.1,3.3-1.7,5.1-1.9c2.9-0.4,5.7,1.7,5.9,4.1c0.1,0.8,0.2,1.6,0.2,2.4c0.1,2.3-0.4,4.5-0.6,6.7
				c-0.4,3.2-0.7,6.4,0,9.6c0.2,1.1,0.6,1.4,1.7,1.2c1.7-0.4,3.5-0.8,5.2-1.3C174.9,55,181.3,53.7,182.4,53.5z"/>
		</g>
		<g>
			<path class="st126" d="M136.3,51.4c1.6-0.2,3.1-0.3,4.7-0.3c3.8,0,7.6,0.7,11.3,1.6c1.6,0.4,3.1,0.2,4.5-0.7
				c0.6-0.4,1.3-0.8,2-1.2c0.4-0.2,0.8-0.5,1.2-0.7c0.4-0.2,0.8-0.3,1.2,0.1c0.3,0.3,0.3,0.8,0.1,1.2c-0.3,0.6-0.7,1.1-1.1,1.7
				c-0.3,0.4-0.6,0.7-0.8,1.1c0.5,0.2,0.9-0.1,1.3-0.2c0.2-0.1,0.5-0.1,0.7,0.1c0.2,0.2,0.1,0.4,0,0.7c-0.2,0.4-0.5,0.7-0.8,1
				c-0.4,0.4-0.8,0.8-0.9,1.4c-0.1,1.3-0.8,2.2-1.7,3c-1.2,1.1-2.1,2.3-2.9,3.7c-0.8,1.5-1.5,3.1-2.4,4.5c-1.3,2.1-3.1,3.5-5.4,4.1
				c-4.6,1.2-9.4,1.8-14.2,1.9c-4.7,0.2-9.4-0.1-14-0.8c-2.3-0.4-4.7-0.8-7-1.4c-2.2-0.6-3.7-1.5-4.2-1.8c-0.8-0.5-1.5-1-2.1-1.7
				c-2.2-2.5-2.9-5.4-2.1-8.6c0.5-2.2,1.8-4,2.7-6c1.4-2.8,3.1-5.5,3.9-8.6c0.4-1.7,0.6-3.3,0.2-5.1c-0.5-2.2-3.1-4.4-5.3-4.5
				c-1,0-2,0-2.9-0.7c-0.4-0.3-0.8-0.5-1.3-0.7c-0.4-0.1-1-0.2-1-0.8c0-0.6,0.6-0.5,1-0.6c1.7-0.4,3.2-1,4.7-2
				c1.7-1.2,3.6-1.9,5.7-2.1c3.2-0.4,6.3,1.9,6.5,4.5c0.1,0.9,0.2,1.8,0.3,2.7c0.1,2.5-0.4,4.9-0.7,7.4c-0.4,3.5-0.8,7,0,10.6
				c0.2,1.2,0.7,1.6,1.9,1.3c1.9-0.5,3.9-0.9,5.8-1.5C128,53,135.1,51.5,136.3,51.4z"/>
		</g>
	</g>
</g>
</svg>
