<?xml version="1.0" encoding="utf-8"?>
<!-- Generator: Adobe Illustrator 17.0.0, SVG Export Plug-In . SVG Version: 6.00 Build 0)  -->
<!DOCTYPE svg PUBLIC "-//W3C//DTD SVG 1.1//EN" "http://www.w3.org/Graphics/SVG/1.1/DTD/svg11.dtd" [
	<!ENTITY ns_flows "http://ns.adobe.com/Flows/1.0/">
	<!ENTITY ns_extend "http://ns.adobe.com/Extensibility/1.0/">
	<!ENTITY ns_ai "http://ns.adobe.com/AdobeIllustrator/10.0/">
	<!ENTITY ns_graphs "http://ns.adobe.com/Graphs/1.0/">
]>
<svg version="1.1" id="Layer_2" xmlns:x="&ns_extend;" xmlns:i="&ns_ai;" xmlns:graph="&ns_graphs;"
	 xmlns="http://www.w3.org/2000/svg" xmlns:xlink="http://www.w3.org/1999/xlink" xmlns:a="http://ns.adobe.com/AdobeSVGViewerExtensions/3.0/"
	 x="0px" y="0px" width="256px" height="256px" viewBox="0 0 256 256" style="enable-background:new 0 0 256 256;"
	 xml:space="preserve">
<style type="text/css">
	.st0{fill:#FFFFFF;}
	.st1{fill:#54B948;}
	.st2{fill:#1D8C8E;}
	.st3{fill:#14DEAC;}
	.st4{fill:#1466AC;}
	.st5{fill:#757575;}
	.st6{fill:#B69442;}
	.st7{fill:#1A234D;}
	.st8{fill:#AA0629;}
	.st9{fill:#FF4A49;}
	.st10{fill:#3C6643;}
	.st11{fill:none;stroke:#FF4A49;stroke-miterlimit:10;}
	.st12{fill:#E70084;}
	.st13{fill:#508A72;}
	.st14{fill:#01A663;}
	.st15{fill:#015297;}
	.st16{fill:#B0B0B0;}
	.st17{fill:#E1062F;}
	.st18{fill:#D80000;stroke:#FFFFFF;stroke-width:2;stroke-miterlimit:10;}
	.st19{fill:#D80000;}
	.st20{fill:#8ABE23;}
	.st21{fill:#1D1D1B;}
	.st22{fill:#FEFEFE;}
	.st23{fill:#FF0000;}
	.st24{fill:#FF1D1B;}
	.st25{fill:#6DB2DE;}
	.st26{fill:#FF1D25;}
	.st27{fill:#FFDA00;}
	.st28{fill:#024D9E;}
	.st29{fill:#6B97C6;}
	.st30{fill:#000078;}
	.st31{fill:none;stroke:#FFFFFF;stroke-width:6;stroke-linecap:round;stroke-miterlimit:10;}
	.st32{fill:#FFEE34;}
	.st33{fill:none;stroke:#000000;stroke-width:4;stroke-miterlimit:10;}
	.st34{fill:#D11E24;}
	.st35{fill:#D71F26;}
	.st36{fill:#020000;}
	.st37{fill:none;stroke:#000000;stroke-width:2;stroke-miterlimit:10;}
	.st38{clip-path:url(#SVGID_2_);}
	.st39{fill:#00317D;}
	.st40{fill:#00737D;}
	.st41{fill:#ED1C24;}
	.st42{fill:#2678C7;}
	.st43{fill:#1853A6;}
	.st44{fill:#CB0000;}
	.st45{fill:#E61C21;}
	.st46{clip-path:url(#SVGID_4_);}
	.st47{fill:#6BDEF1;}
	.st48{clip-path:url(#SVGID_6_);}
	.st49{fill:#0165B2;}
	.st50{fill:#DE1134;}
	.st51{fill:#00A668;}
	.st52{fill:#FFE60B;}
	.st53{fill:#843D00;stroke:#000000;stroke-miterlimit:10;}
	.st54{fill:#EC1F27;}
	.st55{fill:#162984;}
	.st56{fill:#1853A6;stroke:#1853A6;stroke-miterlimit:10;}
	.st57{fill:none;}
	.st58{fill:none;stroke:#1853A6;stroke-width:0.9;stroke-miterlimit:10;}
	.st59{fill:#1853A6;stroke:#1853A6;stroke-width:0.9;stroke-miterlimit:10;}
	.st60{fill:#B5985A;}
	.st61{fill:#FFE60B;stroke:#000000;stroke-width:6;stroke-miterlimit:10;}
	.st62{fill:#008DCD;}
	.st63{fill:#009939;}
	.st64{fill:#2E3092;}
	.st65{fill:#EE3224;}
	.st66{fill:#005BAB;}
	.st67{fill:#D30027;}
	.st68{fill:#FFFFFF;stroke:#D30027;stroke-width:10;stroke-miterlimit:10;}
	.st69{fill:#E81C2F;}
	.st70{fill:#DC032B;}
	.st71{fill:#F25448;}
	.st72{fill:#FFFFFF;stroke:#F25448;stroke-width:6;stroke-miterlimit:10;}
	.st73{fill:#05A08D;}
	.st74{fill:#1875CE;}
	.st75{fill:#D72427;}
	.st76{fill:#004993;}
	.st77{fill:#007BB0;}
	.st78{fill:#FFEB00;}
	.st79{fill:#664A9E;}
	.st80{fill:#F4C701;}
	.st81{fill:#EBBE12;}
	.st82{fill:#44B3DB;}
	.st83{fill:#F6FF82;}
	.st84{fill:#FFC918;}
	.st85{fill:#0361A4;}
	.st86{fill:#009FE3;}
	.st87{fill:#E30217;}
	.st88{fill:#FDEA00;}
	.st89{fill:#E91B00;}
	.st90{fill:#2B2763;}
	.st91{fill:#EE1A22;}
	.st92{fill:#F1AA25;}
	.st93{fill:#93000C;}
	.st94{fill:none;stroke:#1D1D1B;stroke-width:4;}
	.st95{fill:#3E4E70;}
	.st96{fill:#096CB6;}
	.st97{fill:#0559A8;}
	.st98{fill:#F9ED1A;}
	.st99{fill:#949494;}
	.st100{fill:#FFD033;}
	.st101{fill:#243D89;}
	.st102{fill:#F8C936;}
	.st103{fill:#D44128;}
	.st104{fill:#ED1B23;}
	.st105{fill:#0C529C;}
	.st106{fill:#E31E24;}
	.st107{fill:#0263B0;}
	.st108{fill:#007AC2;}
	.st109{fill:#EF3D1F;}
	.st110{fill:#EE1C24;}
	.st111{fill:#FDEA00;stroke:#000000;stroke-width:0.6509;}
	.st112{fill:#FDEA00;stroke:#000000;stroke-width:0.6979;}
	.st113{fill:#46A0BE;}
	.st114{fill:#005FA5;}
	.st115{fill:#00904C;}
	.st116{fill:#E21F26;}
	.st117{fill:#FD0001;}
	.st118{fill:#0066B3;}
	.st119{fill:#E20019;}
	.st120{fill:#0171BC;}
	.st121{fill:#01305D;}
	.st122{fill:#1B7EE9;}
	.st123{fill:#BA0D0B;}
	.st124{fill:none;stroke:#000000;stroke-width:3;stroke-miterlimit:10;}
	.st125{fill:#FFFFFF;stroke:#000000;stroke-width:0.8836;stroke-miterlimit:10;}
	.st126{fill:#FFFFFF;stroke:#000000;stroke-width:0.9759;stroke-miterlimit:10;}
	.st127{fill:#0053A1;}
	.st128{fill:#FFE100;}
	.st129{fill:#FFE500;}
	.st130{fill:none;stroke:#FFE500;stroke-width:2;stroke-miterlimit:10;}
	.st131{fill:#01AFF3;}
	.st132{fill:#ED1B28;}
	.st133{fill:#E2000A;}
</style>
<g>
	<g>
		<g>
			<path class="st0" d="M127.6,246.9c-49.2,0-84.1-14.5-103.8-43.1c-14.6-21.3-15-43.1-15-43.3V9.1h238.2v151.5
				c0,0.2-0.3,22-15,43.3C212.5,232.4,177.3,246.9,127.6,246.9z"/>
			<path class="st121" d="M240.2,16.2v144.3c0,0.8-0.6,20.6-14.1,39.8c-7.9,11.3-18.8,20.3-32.3,26.8c-17.6,8.5-39.9,12.8-66.2,12.8
				c-26.1,0-48.1-4.3-65.6-12.8c-13.4-6.5-24.2-15.5-32.1-26.8c-13.4-19.1-14.1-38.9-14.1-39.9V16.2H240.2 M254,2H2v158.6
				c0,0,0.3,93.4,125.6,93.4C254,254,254,160.6,254,160.6V2L254,2z"/>
		</g>
	</g>
	<g>
		<path class="st121" d="M45.3,40.3c0,4.3-1.1,7-3.4,7.9c2.8,1,4.2,4.1,4.2,9.5v1c0,4-0.7,6.9-2,8.7c-1.3,1.8-3.5,2.7-6.5,2.7h-8.6
			V30h8.4c2.9,0,5,0.7,6.2,2.1c1.2,1.4,1.8,3.7,1.8,7V40.3z M34.8,46.2H37c1,0,1.7-0.3,2-1c0.3-0.7,0.5-2,0.5-4.1v-2.4
			c0-1.5-0.2-2.6-0.6-3.1c-0.4-0.5-1.1-0.8-2.1-0.8h-2V46.2z M34.8,65.3h2.1c1.2,0,2-0.4,2.5-1.3c0.5-0.8,0.7-2.3,0.7-4.5v-3.2
			c0-2-0.2-3.5-0.6-4.3c-0.4-0.8-1.1-1.3-2.2-1.3h-2.5V65.3z"/>
		<path class="st121" d="M48.9,70.1L54.5,30h7.8l5.9,40.1h-5.5l-0.9-7.2h-6.3l-0.8,7.2H48.9z M61.1,58l-2.6-20.1h-0.1L56,58H61.1z"
			/>
		<path class="st121" d="M89,40.3c0,4.3-1.1,7-3.4,7.9c2.8,1,4.2,4.1,4.2,9.5v1c0,4-0.7,6.9-2,8.7c-1.3,1.8-3.5,2.7-6.5,2.7h-8.6V30
			H81c2.9,0,5,0.7,6.2,2.1c1.2,1.4,1.8,3.7,1.8,7V40.3z M78.5,46.2h2.2c1,0,1.7-0.3,2-1c0.3-0.7,0.5-2,0.5-4.1v-2.4
			c0-1.5-0.2-2.6-0.6-3.1c-0.4-0.5-1.1-0.8-2.1-0.8h-2V46.2z M78.5,65.3h2.1c1.2,0,2-0.4,2.5-1.3c0.5-0.8,0.7-2.3,0.7-4.5v-3.2
			c0-2-0.2-3.5-0.6-4.3c-0.4-0.8-1.1-1.3-2.2-1.3h-2.5V65.3z"/>
		<path class="st121" d="M94.4,70.1V30h13.1v5.3h-7.1v11.7h6.8V52h-6.8v12.8h7.4v5.3H94.4z"/>
		<path class="st121" d="M112.4,70.1V30h5.9v34.9h7.5v5.2H112.4z"/>
		<path class="st121" d="M128.3,58.8v-3.6h5.6v4c0,2.2,0.2,3.8,0.6,4.7c0.4,0.9,1.1,1.4,2.1,1.4s1.7-0.4,2-1.1
			c0.3-0.7,0.5-2,0.5-3.6c0-1.7-0.3-3.2-0.9-4.4c-0.6-1.3-1.5-2.6-2.8-3.9l-2.9-3.1c-1.3-1.4-2.4-2.9-3.1-4.5s-1.1-3.3-1.1-5.4
			c0-3.3,0.6-5.8,1.9-7.4c1.2-1.6,3.4-2.4,6.4-2.4c3,0,5.1,0.9,6.1,2.8c1.1,1.9,1.6,4.6,1.6,8.2V43h-5.5v-2.9c0-1.9-0.2-3.3-0.5-4.2
			c-0.3-0.8-0.9-1.3-1.9-1.3c-0.9,0-1.6,0.3-2,1c-0.4,0.6-0.6,1.6-0.6,2.9c0,1.3,0.2,2.3,0.6,3.1c0.4,0.8,1.2,1.7,2.2,2.9l3.2,3.6
			c1.6,1.8,2.8,3.6,3.6,5.4c0.8,1.8,1.2,3.8,1.2,6c0,3.8-0.6,6.5-1.8,8.3c-1.2,1.8-3.4,2.7-6.4,2.7c-3.1,0-5.2-1-6.4-3
			C128.9,65.5,128.3,62.6,128.3,58.8z"/>
		<path class="st121" d="M165.8,40.3c0,4.3-1.1,7-3.4,7.9c2.8,1,4.2,4.1,4.2,9.5v1c0,4-0.7,6.9-2,8.7c-1.3,1.8-3.5,2.7-6.5,2.7h-8.6
			V30h8.4c2.9,0,5,0.7,6.2,2.1c1.2,1.4,1.8,3.7,1.8,7V40.3z M155.3,46.2h2.2c1,0,1.7-0.3,2-1c0.3-0.7,0.5-2,0.5-4.1v-2.4
			c0-1.5-0.2-2.6-0.6-3.1c-0.4-0.5-1.1-0.8-2.1-0.8h-2V46.2z M155.3,65.3h2.1c1.2,0,2-0.4,2.5-1.3c0.5-0.8,0.7-2.3,0.7-4.5v-3.2
			c0-2-0.2-3.5-0.6-4.3c-0.4-0.8-1.1-1.3-2.2-1.3h-2.5V65.3z"/>
		<path class="st121" d="M171.2,70.1V30h13.1v5.3h-7.1v11.7h6.8V52h-6.8v12.8h7.4v5.3H171.2z"/>
		<path class="st121" d="M197.2,51.2l-1.9-0.1v18.9h-5.9V30h9.8c2,0,3.6,0.4,4.6,1.3c1,0.8,1.7,2,2,3.5c0.3,1.5,0.5,3.5,0.5,5.9
			c0,2.4-0.3,4.3-0.8,5.6c-0.5,1.3-1.4,2.1-2.8,2.6c1.3,0.2,2.3,1.2,2.8,2.8c0.5,1.6,0.8,5,0.8,10.1s0.1,7.9,0.2,8.3h-5.9
			c-0.1-0.3-0.2-5.1-0.2-14.4c0-1.8-0.2-3-0.6-3.5C199.2,51.6,198.4,51.2,197.2,51.2z M195.3,46.4h2.4c0.8,0,1.3-0.2,1.7-0.5
			c0.4-0.3,0.6-0.9,0.8-1.8c0.1-0.9,0.2-2.1,0.2-3.9v-0.3c0-2.2-0.2-3.6-0.5-4.3c-0.4-0.7-1.2-1-2.5-1h-2V46.4z"/>
		<path class="st121" d="M219,70.5c-2.5,0-4.4-1-5.7-3c-1.4-2-2.1-5-2.1-9.2V40.9c0-3.7,0.7-6.5,2.1-8.5c1.4-1.9,3.7-2.9,6.7-2.9
			c3.8,0,6.3,1.5,7.3,4.4c0.6,1.8,0.9,4.2,0.9,7.2V44h-5.5v-4.2c0-1.8-0.2-3.1-0.6-3.9c-0.4-0.7-1.1-1.1-2.1-1.1
			c-1,0-1.8,0.4-2.2,1.3c-0.4,0.9-0.6,2.5-0.6,4.7v17.4c0,2.6,0.2,4.5,0.6,5.5c0.4,1,1.1,1.5,2.2,1.5s1.9-0.6,2.4-1.7
			c0.5-1.1,0.7-3,0.7-5.6v-5.4h-3v-4.4h8.2v21.9h-2.7l-0.9-3.9c-0.3,1.4-1,2.4-2,3.2C221.6,70.1,220.4,70.5,219,70.5z"/>
	</g>
	<g>
		<rect x="12" y="83" class="st121" width="237" height="4"/>
	</g>
	<path class="st121" d="M215,85v137.8c7-5.4,12.6-11.8,17.6-19c0.6-0.9,1.4-1.8,1.4-2.6V85H215z"/>
	<path class="st121" d="M166,85v158.5c8-1.4,14-3.1,20-5.3V85H166z"/>
	<path class="st121" d="M119,85v161.7c3,0.1,6.1,0.2,9.1,0.2c3.7,0,6.9-0.1,10.9-0.2V85H119z"/>
	<path class="st121" d="M72,85v153.7c6,2.1,13,3.8,20,5.1V85H72z"/>
	<g>
		<path class="st121" d="M24,85v117.8c0,0.3,0.1,0.7,0.3,1c5.3,7.7,11.7,14.3,18.7,19.9V85H24z"/>
	</g>
	<g>
		<g>
			<g>
				<path class="st21" d="M92.4,194.5h-0.1c-19.1,0-30.9-15.5-30.9-40.5c0-25.1,11.9-40.7,31-40.7c19.1,0,30.9,15.5,30.9,40.5
					C123.3,178.9,111.5,194.5,92.4,194.5z M92.4,121.4c-21.5,0-23.1,24.9-23.1,32.6c0,29.2,16.1,32.4,23,32.4h0.1
					c20.8,0,23-22.8,23-32.6C115.4,144.1,113.2,121.4,92.4,121.4z M92.5,179.8h-0.1c-2.5,0-4.8-1-6.6-2.9
					c-3.7-3.8-5.4-11.4-5.4-23.1c0-17.1,4-25.8,12-25.8c11.9,0,11.9,19.4,11.9,25.8C104.3,160.3,104.3,179.8,92.5,179.8z
					 M92.4,136.2c-1.1,0-4.1,3.2-4.1,17.7c-0.1,12.7,2.1,16.3,3.1,17.3c0.4,0.4,0.7,0.5,1,0.5h0.1c1.1,0,3.9-3.2,3.9-17.8
					C96.4,139.9,93.8,136.2,92.4,136.2z"/>
			</g>
			<g>
				<path class="st21" d="M148,194.5c-9.2,0-18-2.1-23.6-5.6l-2.5-1.6l5.5-22.5l4.4,2.3c2.8,1.4,8.9,3.8,14.6,3.8
					c6.3,0,7.3-2.2,7.3-3.5c0-3.5-5.1-4.4-8.1-4.4h-11.1v-22h10.7c3.6,0,6.8-1.1,6.8-2.4c0-1.1-2.2-1.9-5.3-1.9
					c-5.1,0-10.6,2.3-12.8,3.5l-4.4,2.4l-5.6-21.9l2.5-1.6c4.7-2.9,14.2-5.9,24.7-5.9c16.6,0,28.1,9,28.1,22
					c0,6.5-2.6,11.9-7.4,15.8c5.8,3.8,9.5,10.2,9.5,17.4C181.4,184.1,168,194.5,148,194.5z M131,183.3c3.8,1.7,9.7,3.1,17,3.1
					c15.5,0,25.5-7,25.5-17.8c0-7.4-5.7-11.8-11.4-12.7l-3.3-0.6v-6.5l2.6-0.9c6.7-2.4,9.9-6.5,9.9-12.5c0-8.3-8.1-13.9-20.3-13.9
					c-7.2,0-13.8,1.6-18,3.4l1.6,6.3c3.1-1.2,7.5-2.5,12.1-2.5c9.7,0,13.1,5.4,13.1,10c0,6.4-5.8,10.5-14.7,10.5h-2.8v5.8h3.3
					c9.6,0,16,5,16,12.5c0,5.6-4,11.5-15.1,11.5c-5.2,0-10.2-1.4-13.7-2.7L131,183.3z"/>
			</g>
		</g>
		<g>
			<g>
				<path class="st0" d="M92.3,190.4c-19.7,0-27-17.8-27-36.4c0-19.1,7.7-36.6,27.1-36.6c20.1,0,27,18.4,27,36.4
					c0,20.9-8.6,36.6-27,36.6H92.3z M92.5,175.8c4.9,0,7.8-6.6,7.8-21.8c0-14.9-2.9-21.7-7.9-21.7c-4.9,0-8,6.5-8,21.7
					c-0.1,15.3,3.1,21.8,8,21.8H92.5z"/>
			</g>
			<g>
				<path class="st0" d="M130.1,170.8c3,1.5,9.8,4.2,16.4,4.2c6.8,0,11.2-2.5,11.2-7.5c0-5.8-5.8-8.5-12.1-8.5h-7.2v-13.9h6.8
					c4.8,0,10.8-1.5,10.8-6.4c0-3.6-3.3-6-9.2-6c-5.8,0-11.9,2.5-14.7,4l-3.6-14c4.3-2.7,13.1-5.3,22.6-5.3
					c15.2,0,24.2,7.8,24.2,17.9c0,7.5-4.1,13.3-12.6,16.3v0.2c8.1,1.4,14.7,7.7,14.7,16.7c0,13-11.6,21.8-29.4,21.8
					c-9.4,0-17.2-2.3-21.6-5L130.1,170.8z"/>
			</g>
		</g>
	</g>
</g>
</svg>
