<?xml version="1.0" encoding="utf-8"?>
<!-- Generator: Adobe Illustrator 17.0.0, SVG Export Plug-In . SVG Version: 6.00 Build 0)  -->
<!DOCTYPE svg PUBLIC "-//W3C//DTD SVG 1.1//EN" "http://www.w3.org/Graphics/SVG/1.1/DTD/svg11.dtd" [
	<!ENTITY ns_flows "http://ns.adobe.com/Flows/1.0/">
	<!ENTITY ns_extend "http://ns.adobe.com/Extensibility/1.0/">
	<!ENTITY ns_ai "http://ns.adobe.com/AdobeIllustrator/10.0/">
	<!ENTITY ns_graphs "http://ns.adobe.com/Graphs/1.0/">
]>
<svg version="1.1" id="Layer_2" xmlns:x="&ns_extend;" xmlns:i="&ns_ai;" xmlns:graph="&ns_graphs;"
	 xmlns="http://www.w3.org/2000/svg" xmlns:xlink="http://www.w3.org/1999/xlink" xmlns:a="http://ns.adobe.com/AdobeSVGViewerExtensions/3.0/"
	 x="0px" y="0px" width="256px" height="256px" viewBox="0 0 256 256" style="enable-background:new 0 0 256 256;"
	 xml:space="preserve">
<style type="text/css">
	.st0{fill:#FFFFFF;}
	.st1{fill:#54B948;}
	.st2{fill:#1D8C8E;}
	.st3{fill:#14DEAC;}
	.st4{fill:#1466AC;}
	.st5{fill:#757575;}
	.st6{fill:#B69442;}
	.st7{fill:#1A234D;}
	.st8{fill:#AA0629;}
	.st9{fill:#FF4A49;}
	.st10{fill:#3C6643;}
	.st11{fill:none;stroke:#FF4A49;stroke-miterlimit:10;}
	.st12{fill:#E70084;}
	.st13{fill:#508A72;}
	.st14{fill:#01A663;}
	.st15{fill:#015297;}
	.st16{fill:#B0B0B0;}
	.st17{fill:#E1062F;}
	.st18{fill:#D80000;stroke:#FFFFFF;stroke-width:2;stroke-miterlimit:10;}
	.st19{fill:#D80000;}
	.st20{fill:#8ABE23;}
	.st21{fill:#1D1D1B;}
	.st22{fill:#FEFEFE;}
	.st23{fill:#FF0000;}
	.st24{fill:#FF1D1B;}
	.st25{fill:#6DB2DE;}
	.st26{fill:#FF1D25;}
	.st27{fill:#FFDA00;}
	.st28{fill:#024D9E;}
	.st29{fill:#6B97C6;}
	.st30{fill:#000078;}
	.st31{fill:none;stroke:#FFFFFF;stroke-width:6;stroke-linecap:round;stroke-miterlimit:10;}
	.st32{fill:#FFEE34;}
	.st33{fill:none;stroke:#000000;stroke-width:4;stroke-miterlimit:10;}
	.st34{fill:#D11E24;}
	.st35{fill:#D71F26;}
	.st36{fill:#020000;}
	.st37{fill:none;stroke:#000000;stroke-width:2;stroke-miterlimit:10;}
	.st38{clip-path:url(#SVGID_2_);}
	.st39{fill:#00317D;}
	.st40{fill:#00737D;}
	.st41{fill:#ED1C24;}
	.st42{fill:#2678C7;}
	.st43{fill:#1853A6;}
	.st44{fill:#CB0000;}
	.st45{fill:#E61C21;}
	.st46{clip-path:url(#SVGID_4_);}
	.st47{fill:#6BDEF1;}
	.st48{clip-path:url(#SVGID_6_);}
	.st49{fill:#0165B2;}
	.st50{fill:#DE1134;}
	.st51{fill:#00A668;}
	.st52{fill:#FFE60B;}
	.st53{fill:#843D00;stroke:#000000;stroke-miterlimit:10;}
	.st54{fill:#EC1F27;}
	.st55{fill:#162984;}
	.st56{fill:#1853A6;stroke:#1853A6;stroke-miterlimit:10;}
	.st57{fill:none;}
	.st58{fill:none;stroke:#1853A6;stroke-width:0.9;stroke-miterlimit:10;}
	.st59{fill:#1853A6;stroke:#1853A6;stroke-width:0.9;stroke-miterlimit:10;}
	.st60{fill:#B5985A;}
	.st61{fill:#FFE60B;stroke:#000000;stroke-width:6;stroke-miterlimit:10;}
	.st62{fill:#008DCD;}
	.st63{fill:#009939;}
	.st64{fill:#2E3092;}
	.st65{fill:#EE3224;}
	.st66{fill:#005BAB;}
	.st67{fill:#D30027;}
	.st68{fill:#FFFFFF;stroke:#D30027;stroke-width:10;stroke-miterlimit:10;}
	.st69{fill:#E81C2F;}
	.st70{fill:#DC032B;}
	.st71{fill:#F25448;}
	.st72{fill:#FFFFFF;stroke:#F25448;stroke-width:6;stroke-miterlimit:10;}
	.st73{fill:#05A08D;}
	.st74{fill:#1875CE;}
	.st75{fill:#D72427;}
	.st76{fill:#004993;}
	.st77{fill:#007BB0;}
	.st78{fill:#FFEB00;}
	.st79{fill:#664A9E;}
	.st80{fill:#F4C701;}
	.st81{fill:#EBBE12;}
	.st82{fill:#44B3DB;}
	.st83{fill:#F6FF82;}
	.st84{fill:#FFC918;}
	.st85{fill:#0361A4;}
	.st86{fill:#009FE3;}
	.st87{fill:#E30217;}
	.st88{fill:#FDEA00;}
	.st89{fill:#E91B00;}
	.st90{fill:#2B2763;}
	.st91{fill:#EE1A22;}
	.st92{fill:#F1AA25;}
	.st93{fill:#93000C;}
	.st94{fill:none;stroke:#1D1D1B;stroke-width:4;}
	.st95{fill:#3E4E70;}
	.st96{fill:#096CB6;}
	.st97{fill:#0559A8;}
	.st98{fill:#F9ED1A;}
	.st99{fill:#949494;}
	.st100{fill:#FFD033;}
	.st101{fill:#243D89;}
	.st102{fill:#F8C936;}
	.st103{fill:#D44128;}
	.st104{fill:#ED1B23;}
	.st105{fill:#0C529C;}
	.st106{fill:#E31E24;}
	.st107{fill:#0263B0;}
	.st108{fill:#007AC2;}
	.st109{fill:#EF3D1F;}
	.st110{fill:#EE1C24;}
	.st111{fill:#FDEA00;stroke:#000000;stroke-width:0.6509;}
	.st112{fill:#FDEA00;stroke:#000000;stroke-width:0.6979;}
	.st113{fill:#46A0BE;}
	.st114{fill:#005FA5;}
	.st115{fill:#00904C;}
	.st116{fill:#E21F26;}
	.st117{fill:#FD0001;}
	.st118{fill:#0066B3;}
	.st119{fill:#E20019;}
	.st120{fill:#0171BC;}
	.st121{fill:#01305D;}
	.st122{fill:#1B7EE9;}
	.st123{fill:#BA0D0B;}
	.st124{fill:none;stroke:#000000;stroke-width:3;stroke-miterlimit:10;}
	.st125{fill:#FFFFFF;stroke:#000000;stroke-width:0.8836;stroke-miterlimit:10;}
	.st126{fill:#FFFFFF;stroke:#000000;stroke-width:0.9759;stroke-miterlimit:10;}
	.st127{fill:#0053A1;}
	.st128{fill:#FFE100;}
	.st129{fill:#FFE500;}
	.st130{fill:none;stroke:#FFE500;stroke-width:2;stroke-miterlimit:10;}
	.st131{fill:#01AFF3;}
	.st132{fill:#ED1B28;}
	.st133{fill:#E2000A;}
</style>
<g>
	<g>
		<rect x="38.9" y="38.9" transform="matrix(0.7071 0.7071 -0.7071 0.7071 128 -53.0193)" width="178.2" height="178.2"/>
		
			<rect x="47.8" y="47.8" transform="matrix(0.7071 0.7071 -0.7071 0.7071 128 -53.0193)" class="st0" width="160.4" height="160.4"/>
		<rect x="59.8" y="59.8" transform="matrix(0.7071 0.7071 -0.7071 0.7071 128 -53.0193)" width="136.3" height="136.3"/>
	</g>
	<g>
		<path class="st0" d="M127.5,65.6c-34.5,0-62.3,27.9-62.4,62.4c-0.1,34.4,27.9,62.5,62.4,62.5c34.5,0,62.5-28,62.5-62.5
			C190,93.5,162,65.5,127.5,65.6z M113,128c0,0-0.1,0-0.2,0c0,15.9,0,32.8,0,49.1c0,1.6,0,1.7-1.5,1.1
			c-21.2-7.6-33.8-22.5-36.4-44.9c-1.7-14.6,2.4-27.5,11.4-38.4l6.7,6.3c-3.9,5.1-6.7,10.9-8.2,17.5c-0.8,3.2-0.6,6.5-0.7,9.7
			c-0.3,8.4,2.2,15.9,6.5,23c3.1,5.1,7.3,9.1,12,12.6c0.3,0.2,0.5,0.6,0.9,0.3c0.4-0.3,0.2-0.7,0.2-1.1c0-13.7,0.1-27.4,0.1-41.1
			c0-3.6,0-7.3,0-10.9l0.1,0.1V89.1v-8c0-0.4,0.5-0.7,1.1-0.9c2.1-0.8,4.3-1.6,6.4-2.4c1.4-0.5,1.4-0.5,1.4,1c0,6.7,0,13.5,0,20.2
			C113,108.6,113,118.1,113,128z M135.5,83.1c-0.5,1.8-1.7,3-3.7,3.1c-1,0.1-1.2,0.5-1.2,1.4c0.1,1.5,0.1,3.1,0,4.6
			c0,0.9,0.1,1.2,1.2,1.2c0.1,0,2.9,0,3,0c1,0,1.3,0.3,1.3,1.4c0,2.1,0,3.9,0,5.9c0,0.7-0.1,1.1-0.8,1.2c-0.1,0-3,0-3.1,0
			c-1.2,0-1.5,0.3-1.5,1.5c0,23.2,0,46.4,0,69.6c0,2.1-0.1,4.2-0.1,6.3c0,0.9-0.3,1.3-1.3,1.3c-2-0.1-4-0.1-6.1,0
			c-1.2,0-1.9-0.3-1.9-1.7c0.1-15.9-0.2-31.9-0.2-47.8c0-15.6,0-31.3,0-46.9c0-3.6,1.9-6.1,5.3-7.5c2-0.8,4.1-1.2,6.2-0.5
			c1.9,0.6,3,1.8,3.1,3.8C135.6,81,135.8,82.1,135.5,83.1z M140.7,178.9c-0.7,0.3-1.1,0-1.1-0.7c0-0.3,0-0.7,0-1
			c0-32.9,0-65.8,0-98.7c0-1.7,0-1.6,1.6-1.2c10.2,2.9,18.7,8.3,25.6,16.3c2.3,2.7,3.6,6,3.5,10.6c0.1,1.7-0.6,4-1.5,6.3
			c-0.6,1.6-1.2,3.1-1.9,4.7c-0.6,1.3-0.5,2.2,0.6,3.2c1.3,1.3,2.5,2.7,3.8,4c3.6,3.8,5.9,8.3,7.2,13.4c0.5,2,0.1,3.8-0.5,5.6
			c-1,3.4-2.3,6.6-3.8,9.6h-12.4c0.6,0,1.1-1.7,1.6-2.6c1.9-3.4,3.2-6.9,2.6-10.9c-0.6-4.5-3.3-7.7-6-11c-1-1.2-2.2-1.8-3.7-2.3
			c-2-0.6-4.1-0.9-6.2-1c-1.2-0.1-1.7,0.2-1.7,1.5c0,11.8-0.1,43.3-0.1,50c0,0.8-0.5,1.6-2.4,2.4
			C144.4,177.9,142.5,178.3,140.7,178.9z"/>
		<path class="st0" d="M149.1,115.2c1,0.4,2.2-0.3,3.2-0.9c0.4-0.2,0.7-0.5,1-0.8c2.5-2.3,4.2-5.1,4.8-8.5c0.6-3.3,0-6.1-2.7-8.3
			c-1.8-1.5-3.5-3.1-5.4-4.4c-0.3-0.2-0.6-0.8-1.1-0.5c-0.4,0.2-0.4,0.9-0.4,1.4c0,3.5-0.1,16.2,0,19.2
			C148.5,113.4,148.3,114.8,149.1,115.2z"/>
	</g>
</g>
</svg>
