<?xml version="1.0" encoding="utf-8"?>
<!-- Generator: Adobe Illustrator 17.0.0, SVG Export Plug-In . SVG Version: 6.00 Build 0)  -->
<!DOCTYPE svg PUBLIC "-//W3C//DTD SVG 1.1//EN" "http://www.w3.org/Graphics/SVG/1.1/DTD/svg11.dtd" [
	<!ENTITY ns_flows "http://ns.adobe.com/Flows/1.0/">
	<!ENTITY ns_extend "http://ns.adobe.com/Extensibility/1.0/">
	<!ENTITY ns_ai "http://ns.adobe.com/AdobeIllustrator/10.0/">
	<!ENTITY ns_graphs "http://ns.adobe.com/Graphs/1.0/">
]>
<svg version="1.1" id="Layer_2" xmlns:x="&ns_extend;" xmlns:i="&ns_ai;" xmlns:graph="&ns_graphs;"
	 xmlns="http://www.w3.org/2000/svg" xmlns:xlink="http://www.w3.org/1999/xlink" xmlns:a="http://ns.adobe.com/AdobeSVGViewerExtensions/3.0/"
	 x="0px" y="0px" width="256px" height="256px" viewBox="0 0 256 256" style="enable-background:new 0 0 256 256;"
	 xml:space="preserve">
<style type="text/css">
	.st0{fill:#FFFFFF;}
	.st1{fill:#54B948;}
	.st2{fill:#1D8C8E;}
	.st3{fill:#14DEAC;}
	.st4{fill:#1466AC;}
	.st5{fill:#757575;}
	.st6{fill:#B69442;}
	.st7{fill:#1A234D;}
	.st8{fill:#AA0629;}
	.st9{fill:#FF4A49;}
	.st10{fill:#3C6643;}
	.st11{fill:none;stroke:#FF4A49;stroke-miterlimit:10;}
	.st12{fill:#E70084;}
	.st13{fill:#508A72;}
	.st14{fill:#01A663;}
	.st15{fill:#015297;}
	.st16{fill:#B0B0B0;}
	.st17{fill:#E1062F;}
	.st18{fill:#D80000;stroke:#FFFFFF;stroke-width:2;stroke-miterlimit:10;}
	.st19{fill:#D80000;}
	.st20{fill:#8ABE23;}
	.st21{fill:#1D1D1B;}
	.st22{fill:#FEFEFE;}
	.st23{fill:#FF0000;}
	.st24{fill:#FF1D1B;}
	.st25{fill:#6DB2DE;}
	.st26{fill:#FF1D25;}
	.st27{fill:#FFDA00;}
	.st28{fill:#024D9E;}
	.st29{fill:#6B97C6;}
	.st30{fill:#000078;}
	.st31{fill:none;stroke:#FFFFFF;stroke-width:6;stroke-linecap:round;stroke-miterlimit:10;}
	.st32{fill:#FFEE34;}
	.st33{fill:none;stroke:#000000;stroke-width:4;stroke-miterlimit:10;}
	.st34{fill:#D11E24;}
	.st35{fill:#D71F26;}
	.st36{fill:#020000;}
	.st37{fill:none;stroke:#000000;stroke-width:2;stroke-miterlimit:10;}
	.st38{clip-path:url(#SVGID_2_);}
	.st39{fill:#00317D;}
	.st40{fill:#00737D;}
	.st41{fill:#ED1C24;}
	.st42{fill:#2678C7;}
	.st43{fill:#1853A6;}
	.st44{fill:#CB0000;}
	.st45{fill:#E61C21;}
	.st46{clip-path:url(#SVGID_4_);}
	.st47{fill:#6BDEF1;}
	.st48{clip-path:url(#SVGID_6_);}
	.st49{fill:#0165B2;}
	.st50{fill:#DE1134;}
	.st51{fill:#00A668;}
	.st52{fill:#FFE60B;}
	.st53{fill:#843D00;stroke:#000000;stroke-miterlimit:10;}
	.st54{fill:#EC1F27;}
	.st55{fill:#162984;}
	.st56{fill:#1853A6;stroke:#1853A6;stroke-miterlimit:10;}
	.st57{fill:none;}
	.st58{fill:none;stroke:#1853A6;stroke-width:0.9;stroke-miterlimit:10;}
	.st59{fill:#1853A6;stroke:#1853A6;stroke-width:0.9;stroke-miterlimit:10;}
	.st60{fill:#B5985A;}
	.st61{fill:#FFE60B;stroke:#000000;stroke-width:6;stroke-miterlimit:10;}
	.st62{fill:#008DCD;}
	.st63{fill:#009939;}
	.st64{fill:#2E3092;}
	.st65{fill:#EE3224;}
	.st66{fill:#005BAB;}
	.st67{fill:#D30027;}
	.st68{fill:#FFFFFF;stroke:#D30027;stroke-width:10;stroke-miterlimit:10;}
	.st69{fill:#E81C2F;}
	.st70{fill:#DC032B;}
	.st71{fill:#F25448;}
	.st72{fill:#FFFFFF;stroke:#F25448;stroke-width:6;stroke-miterlimit:10;}
	.st73{fill:#05A08D;}
	.st74{fill:#1875CE;}
	.st75{fill:#D72427;}
	.st76{fill:#004993;}
	.st77{fill:#007BB0;}
	.st78{fill:#FFEB00;}
	.st79{fill:#664A9E;}
	.st80{fill:#F4C701;}
	.st81{fill:#EBBE12;}
	.st82{fill:#44B3DB;}
	.st83{fill:#F6FF82;}
	.st84{fill:#FFC918;}
	.st85{fill:#0361A4;}
	.st86{fill:#009FE3;}
	.st87{fill:#E30217;}
	.st88{fill:#FDEA00;}
	.st89{fill:#E91B00;}
	.st90{fill:#2B2763;}
	.st91{fill:#EE1A22;}
	.st92{fill:#F1AA25;}
	.st93{fill:#93000C;}
	.st94{fill:none;stroke:#1D1D1B;stroke-width:4;}
	.st95{fill:#3E4E70;}
	.st96{fill:#096CB6;}
	.st97{fill:#0559A8;}
	.st98{fill:#F9ED1A;}
	.st99{fill:#949494;}
	.st100{fill:#FFD033;}
	.st101{fill:#243D89;}
	.st102{fill:#F8C936;}
	.st103{fill:#D44128;}
	.st104{fill:#ED1B23;}
	.st105{fill:#0C529C;}
	.st106{fill:#E31E24;}
	.st107{fill:#0263B0;}
	.st108{fill:#007AC2;}
	.st109{fill:#EF3D1F;}
	.st110{fill:#EE1C24;}
	.st111{fill:#FDEA00;stroke:#000000;stroke-width:0.6509;}
	.st112{fill:#FDEA00;stroke:#000000;stroke-width:0.6979;}
	.st113{fill:#46A0BE;}
	.st114{fill:#005FA5;}
	.st115{fill:#00904C;}
	.st116{fill:#E21F26;}
	.st117{fill:#FD0001;}
	.st118{fill:#0066B3;}
	.st119{fill:#E20019;}
	.st120{fill:#0171BC;}
	.st121{fill:#01305D;}
	.st122{fill:#1B7EE9;}
	.st123{fill:#BA0D0B;}
	.st124{fill:none;stroke:#000000;stroke-width:3;stroke-miterlimit:10;}
	.st125{fill:#FFFFFF;stroke:#000000;stroke-width:0.8836;stroke-miterlimit:10;}
	.st126{fill:#FFFFFF;stroke:#000000;stroke-width:0.9759;stroke-miterlimit:10;}
	.st127{fill:#0053A1;}
	.st128{fill:#FFE100;}
	.st129{fill:#FFE500;}
	.st130{fill:none;stroke:#FFE500;stroke-width:2;stroke-miterlimit:10;}
	.st131{fill:#01AFF3;}
	.st132{fill:#ED1B28;}
	.st133{fill:#E2000A;}
</style>
<g>
	<g>
		<path class="st127" d="M238.1,154c8.8-24,13.2-52.5,13.4-87.2c-12.6-0.5-27.8-4.8-35.2-15.5c-4.8-7-5.7-15.6-2.5-25.9
			C203.1,27.5,193,29,183.7,29c0,0,0,0,0,0c-35.8,0-52.2-15.5-57.4-22c0,0,0.7,0-0.3,0v147H238.1z"/>
		<path d="M126,7c-5,6-22.3,20-56.1,20c0,0,0,0,0,0C62,27,53.6,25.7,45,24.2c3,9.9,2.2,17.8-2.4,24.5c-9,13.2-29.1,15.6-38,15.9
			C4.7,100.4,9.1,130,18,154h108V7z"/>
	</g>
	<g>
		<path class="st128" d="M62,154v57.9c2.3,1.6,4.7,3,7,4.3V154H62z"/>
		<path class="st128" d="M86,154v70.5c2.7,1.1,5.4,2.2,8,3.2V154H86z"/>
		<path class="st128" d="M161,154v73.4c2.3-0.9,4.6-1.8,7-2.7V154H161z"/>
		<path class="st128" d="M136,154v83.6c2.4-1.4,5.1-2.6,8-3.8V154H136z"/>
		<path class="st128" d="M185,154v62.7c2.7-1.4,5.3-3,8-4.7v-58H185z"/>
		<path class="st128" d="M210,154v44.4c2.4-2.3,4.7-4.8,7-7.6c0.4-0.4,0.7-0.9,1-1.3V154H210z"/>
		<path class="st128" d="M37,154v34.6c0.5,0.7,1.1,1.4,1.6,2.1c2.1,2.6,4.2,4.9,6.4,7.1V154H37z"/>
		<path class="st128" d="M111,154v80.2c2.9,1.2,5.6,2.5,8,4V154H111z"/>
		<path d="M144,154v79.8c3.3-1.4,7-2.7,10.8-4.1c2-0.7,4.1-1.5,6.2-2.3V154H144z"/>
		<path class="st127" d="M126,154h-7v84.2c3.4,2,6.2,4.4,8,7.2c2-3.1,5.1-5.5,9-7.7V154H126z"/>
		<path d="M94,154v73.7c2,0.8,4,1.5,5.9,2.2c3.9,1.5,7.7,2.9,11.1,4.3V154H94z"/>
		<path class="st127" d="M69,154v62.2c5.7,3.3,11.5,5.9,17,8.2V154H69z"/>
		<path d="M45,154v43.8c5.5,5.6,11.2,10.2,17,14.1V154H45z"/>
		<path class="st127" d="M168,154v70.6c5.5-2.2,11.3-4.8,17-7.9V154H168z"/>
		<path d="M193,154v58c5.8-3.7,11.5-8.2,17-13.6V154H193z"/>
		<path class="st127" d="M218,154v35.6c8.2-10.2,14.9-22.1,20.1-35.6H218z"/>
		<path class="st127" d="M18,154c4.9,13.1,11.3,24.7,19,34.6V154H18z"/>
	</g>
	<path class="st129" d="M126.4,9.6c7,7.6,23.9,20.9,57.3,20.9c8.4,0,17.3-0.8,26.7-2.5c-2.1,9.4-0.8,17.5,3.9,24.3
		c7.4,10.8,22,15.5,34.7,16.4c-0.3,28.3-3.6,53.1-9.9,73.6c-5.6,18.5-13.7,34.1-24.1,46.6c-19.1,22.8-42.4,31.4-61.1,38.3
		c-11.1,4.1-21.2,7.8-26.9,14c-5.6-6.1-15.5-9.8-26.3-13.8c-18.5-6.9-41.4-15.5-60.2-38.6c-10.3-12.6-18.3-28.5-23.8-47.2
		C10.6,120.7,7.3,95.6,7,66.8c10.2-0.6,28.7-3.7,37.6-16.6c4.5-6.5,5.7-14.3,3.8-23.3c7.5,1.2,14.7,1.7,21.6,1.7
		C101.4,28.5,118.9,16.5,126.4,9.6 M126.7,2c0,0-15.5,21.6-56.8,21.6c-8.5,0-18-0.9-28.7-3.1C54.2,53.3,22.7,62,2,62
		c0,192.7,124.9,154.5,125,192c0.1-37.5,127,0,127-190c-19.5,0-49.4-9.6-36.4-42.5c-12.9,2.9-24.2,4.1-33.9,4.1
		C140.2,25.6,126.7,2,126.7,2L126.7,2z"/>
	<g>
		<rect x="18" y="154" class="st129" width="220" height="2"/>
	</g>
	<line class="st130" x1="126" y1="6" x2="126" y2="156"/>
	<path class="st128" d="M177.8,107.9c-0.2,1-0.4,2-0.7,3.2c2.4-0.2,3.9-1.6,5.5-2.8c2.7-2.1,5.6-3.6,9.1-3.7c1.9,0,3.3,0.5,1.9,2.7
		c-1.4,2.3-0.3,3.1,1.6,4.2c3.5,1.9,3.7,4,0.4,6.3c-3.5,2.4-6.9,5.4-11.7,5c-2-0.1-2.8,1.9-3,3.5c-0.3,2.5,2.4,0,3.5,1.7
		c0.8,1.1,4.4,0.4,6.7,0.3c1.3,0,2.2-0.7,2.6-2.1c1.4-5,5.3-7,10-7.6c3-0.4,4.7-0.4,3.3-4.5c-0.9-2.9-1.6-5.5-4-7.5
		c4.8,1.8,8.1,5.7,10.6,9.7c1.7,2.7,3.1,3.2,5.6,2.1c3.4-1.4,6.9-2.6,9.9-4.8c2-1.5,3-0.6,3.3,1.6c0.3,1.9,0.1,3.8-0.4,5.7
		c-0.6,2.1-2,3.3-4.2,2.9c-1.1-0.2-2-0.3-2.9,0.6c-1.7,1.7-1.4,4.5-0.5,3.8c1.8-1.3,1.8,1.9,3.1,0.8c0.1-0.1,0.2-0.2,0.3-0.2
		c8.4,0.1,8.3,0.1,8.2-8.2c0-3.2-0.5-6.4,0.6-9.6c0.6-1.7-0.5-1.8-1.7-1.8c-3.2,0-6.4-0.4-9.6-0.1c-3.2,0.4-4.4-1.1-4-4.2
		c0.3-2.1,1.1-4.1,1-6.3c-0.1-1.4,0.9-2.1,2-1.9c3.6,0.8,6.3-1.4,9.3-2.5c3.2-1.1,4.4-3.9,4.2-7.2c-0.1-3-1.2-5.3-4.3-6.6
		c-3.6-1.5-7.2-2.1-11.1-1.6c-5.6,0.8-11.2,2.4-17,1.6c-3.5-0.5-6.3-2.2-7.1-5.6c-1-3.9-3.3-5.4-7.3-5.1c1,2.3,3.1,4.2,2.7,7
		c-0.1,1.1,0.8,0.9,1.5,1.1c1.3,0.4,2.8,0.4,3.7,1.2c5.7,5,12.1,3.5,18.3,2c4.3-1.1,8.4-0.8,12.6-0.3c3.7,0.4,6.1,4.2,5.7,7.5
		c-0.3,2.5-2.9,2.5-4.1,3.9c-1.9,2.3-9.4,2-11.6-0.1c-4.3-3.9-9-5.4-14.8-3.9c-3.9,1-7.9,1.5-11.9,2.1c-1.4,0.2-2.8,0.4-3.7,2.2
		c-0.8-3.2-1.7-5.8-3.3-8.3c1.6-0.4,2.5,0.7,3.9,0.8c-0.5-3.2-1.9-5.9-4.1-8.1c-2.1-2.1-1.2-2.6,1.2-2.5c-0.1-1.6-1.2-2.5-2.1-3
		c-4-2.1-6.4-6.6-11.2-7.6c-4.9-1-9.5-0.4-13,3.7c-1.4,1.6-3.5,1.9-5.3,2.9c-1.5,0.9-3.1,1.8-4.6,2.6c-1.7,1-1.6,2.4-1.2,4
		c0.4,1.8,1.7,1.8,3,1.7c1.7-0.1,3.5,0,3.7,1.8c0.2,1.8-1.8,1.5-3,1.6c-1.3,0.2-1.8,1-2.2,2c-0.3,0.9,0,1.7,0.7,2.3
		c1.2,1,1.6-0.5,2.3-0.9c2.5-1.3,5.4-0.5,8-1.5c1.2-0.4,1.3,0.7,1,1.6c-1.2,4.2-5,6.6-7.1,10.2c-0.3,0.6-1,0.1-1.5-0.2
		c-4.9-1.9-9.5-4.4-12.8-8.7c-0.3-0.4-0.6-0.7-1-1c-1.1-1-2.5-2.3-3.7-1.6c-0.9,0.6-0.8,2.7-1.6,3.7c-2.2,2.6,2.1,4.3,0.8,6.9
		c-0.2,0.3,2.7,1.1,4.2,1c3.4-0.3,5.1,0.9,6,4.4c0.6,2.1,2.6,4.3,5.6,4.1c3.9-0.3,5.5,3.3,8.1,5.1c1,0.7-0.4,1.9-1.1,2.7
		c-4.6,5.3-11.1,7.1-17.7,4.7c-0.2-0.1-0.4-0.2-0.7-0.2c-1.3-0.3-3.2-0.9-3.7,0.1c-0.5,1-0.4,2.6-0.4,3.9c-0.1,2.7,2.9,3.9,3.9,6.3
		c0.4,1.1,2.7,0.5,3.6-0.2c5.1-3.9,11.7-3.7,17.1-6.9c1-0.6,2-0.6,3.1-0.4c2.3,0.3,5.6-1.4,5.5-2.3c-0.1-5.6,7.1-5,7.2-10.1
		C177.2,107.5,177.5,107.7,177.8,107.9z"/>
	<path class="st128" d="M149.9,81.7c-2.8,0.6-4.9,0.8-6.4-1.1c-1.3-1.6,0.1-2.8,0.8-4.3c-1.7-0.1-2.7,0.6-2.9,2.1
		c-0.3,1.6,0.3,3.1,1.7,4C145.2,83.7,147.3,83.7,149.9,81.7z"/>
	<g>
		<path class="st128" d="M110.8,75.4c-0.9-0.5-1.8-1-2.7-1.3c-8.1-3.3-16.7-4.6-25.3-5.4c-1-0.1-6.6-0.2-9.2-0.1
			c-2.6,0.2-5.2,0.4-7.8,0.6c0-1.9,0-3.7,0-6c4.8-0.2,9.5-0.5,14.2-0.5c5.6,0,11.1,0.4,15.8,4.5c-0.1-3.2,0.3-6,3.2-8
			c-1-0.3-1.6-0.7-2.4-0.8c-4.4-1-9.3-1.7-13.5-1.9c-1.2-0.1-7.4-0.2-11.1,0c-3.4,0.2-6.7,0.7-10.1,1.2c-1.7,0.3-3.4,0.8-5.4,1.3
			c2.2,1.8,3.3,3.8,3.3,6.4c0,7.2,0,30.7,0,31.9c-0.1,2.8,0,5.6,0,8.5c2,0.4,3.9,0.8,6,1.1c0-6.5,0-12.7,0-19.1
			c2-0.2,3.9-0.5,5.8-0.7c1.2,2.9,0.2,13.3,0.2,14.9c3.2,0,6.1-0.1,9.1,0c3,0.1,5.9,0.4,8.9,0.7c0,6.2,0,12.1,0,18.4
			c-4.5,0.2-8.9,0.5-13.3,0.5c-5.8,0-11.6-0.1-16.6-4.2c0,3.1-0.3,5.8-3.1,7.7c0.6,0.2,0.9,0.4,1.3,0.5c4.5,1.4,9.2,1.9,13.9,2.2
			c1.8,0.1,9.3,0.1,11.3,0c3.2-0.1,6.3-0.6,9.5-1c2-0.3,4-0.9,6.3-1.5c-3.4-3.2-3.3-5.1-3.1-10.6c5.1-1.3,10.2-2.5,15.2-5.1
			c-2.8-1.4-3.5-3.7-3.1-6.6c-5.7,3.5-9.5,5-12.1,5c0-3.2,0-6.4,0-9.5c0-0.8-0.2-1.1-1-1.2c-4.5-0.5-8.4-1.4-12.2-1.5
			c-1.6-0.1-3.2-0.2-4.9-0.3c0-1.8,0-3.6,0-5.3c0-0.7-0.1-2.6-0.9-2.8c-1.5-0.5-0.1-0.5,0.5-0.6c4.5-0.2,8.4,0.1,13.1,1.1
			c0.8,0.1,1.5,0.5,2.2,1c1,0.6,1.9,1.4,3,2.2c0.1-3.1,0.4-5.8,3.2-7.7c-1-0.3-1.7-0.7-2.4-0.8c-3.8-0.6-7.6-1.3-11.5-1.7
			c-0.9-0.1-9.5-0.5-11.4-0.3c-2.6,0.3-5.2,0.5-8,0.7c0-1.6,0-3.2,0-4.7c0-0.8,0.3-1,1-1.1c8.3-1.1,16.7-1.1,25,0.3
			c5.5,0.9,10.7,2.6,15.3,5.9c0.2,0.2,0.5,0.2,0.8,0.4C108,78.3,107.2,78.4,110.8,75.4z M44.5,109.7c1,0.5,1.6,0.9,2.3,1.2
			c7.3,3.2,15,4.6,22.8,5.3c3.4,0.3,15.3,0.6,17.7,0c0-2.1,0-4.2,0-6.3c-0.3,0-0.6,0-0.8,0c-5.2,0.6-10.5,0.6-15.7,0.2
			c-5.5-0.5-10.8-1.6-16.1-3.1c-0.7-0.2-0.9-0.5-0.9-1.2c0-8.8,0-17.5,0-26.3c0-0.7,0.3-1,0.9-1.2c0.9-0.2,1.7-0.5,2.5-0.8
			c0-2.2,0-4.2,0-6.5c-4.3,1.1-8.5,2.3-12.5,4.4c0.3,0.2,0.4,0.4,0.6,0.6c1.8,1.1,2.4,2.7,2.3,4.7c-0.1,2.8-0.1,20.8,0,22.9
			C47.8,106.1,47.4,108.4,44.5,109.7z"/>
	</g>
	<g>
		<path class="st128" d="M32.1,80.1H35v24.6l0.5,0.7l4.2,0.2v2.2H24.2v-2.2l4.5-0.3l0.5-0.8V85.2l-0.4-0.5l-6.3,0.9v-2.3L32.1,80.1z
			"/>
		<path class="st128" d="M43.3,102.7c0.7,0,1.4,0.3,1.9,0.8c0.5,0.5,0.8,1.2,0.8,1.9c0,0.7-0.3,1.4-0.8,1.9s-1.2,0.8-1.9,0.8
			c-0.7,0-1.3-0.3-1.9-0.8s-0.8-1.1-0.8-1.9c0-0.8,0.3-1.4,0.8-1.9C42,103,42.6,102.7,43.3,102.7z"/>
	</g>
</g>
</svg>
