<?xml version="1.0" encoding="utf-8"?>
<!-- Generator: Adobe Illustrator 17.0.0, SVG Export Plug-In . SVG Version: 6.00 Build 0)  -->
<!DOCTYPE svg PUBLIC "-//W3C//DTD SVG 1.1//EN" "http://www.w3.org/Graphics/SVG/1.1/DTD/svg11.dtd" [
	<!ENTITY ns_flows "http://ns.adobe.com/Flows/1.0/">
	<!ENTITY ns_extend "http://ns.adobe.com/Extensibility/1.0/">
	<!ENTITY ns_ai "http://ns.adobe.com/AdobeIllustrator/10.0/">
	<!ENTITY ns_graphs "http://ns.adobe.com/Graphs/1.0/">
]>
<svg version="1.1" id="Layer_2" xmlns:x="&ns_extend;" xmlns:i="&ns_ai;" xmlns:graph="&ns_graphs;"
	 xmlns="http://www.w3.org/2000/svg" xmlns:xlink="http://www.w3.org/1999/xlink" xmlns:a="http://ns.adobe.com/AdobeSVGViewerExtensions/3.0/"
	 x="0px" y="0px" width="256px" height="256px" viewBox="0 0 256 256" style="enable-background:new 0 0 256 256;"
	 xml:space="preserve">
<style type="text/css">
	.st0{fill:#FFFFFF;}
	.st1{fill:#54B948;}
	.st2{fill:#1D8C8E;}
	.st3{fill:#14DEAC;}
	.st4{fill:#1466AC;}
	.st5{fill:#757575;}
	.st6{fill:#B69442;}
	.st7{fill:#1A234D;}
	.st8{fill:#AA0629;}
	.st9{fill:#FF4A49;}
	.st10{fill:#3C6643;}
	.st11{fill:none;stroke:#FF4A49;stroke-miterlimit:10;}
	.st12{fill:#E70084;}
	.st13{fill:#508A72;}
	.st14{fill:#01A663;}
	.st15{fill:#015297;}
	.st16{fill:#B0B0B0;}
	.st17{fill:#E1062F;}
	.st18{fill:#D80000;stroke:#FFFFFF;stroke-width:2;stroke-miterlimit:10;}
	.st19{fill:#D80000;}
	.st20{fill:#8ABE23;}
	.st21{fill:#1D1D1B;}
	.st22{fill:#FEFEFE;}
	.st23{fill:#FF0000;}
	.st24{fill:#FF1D1B;}
	.st25{fill:#6DB2DE;}
	.st26{fill:#FF1D25;}
	.st27{fill:#FFDA00;}
	.st28{fill:#024D9E;}
	.st29{fill:#6B97C6;}
	.st30{fill:#000078;}
	.st31{fill:none;stroke:#FFFFFF;stroke-width:6;stroke-linecap:round;stroke-miterlimit:10;}
	.st32{fill:#FFEE34;}
	.st33{fill:none;stroke:#000000;stroke-width:4;stroke-miterlimit:10;}
	.st34{fill:#D11E24;}
	.st35{fill:#D71F26;}
	.st36{fill:#020000;}
	.st37{fill:none;stroke:#000000;stroke-width:2;stroke-miterlimit:10;}
	.st38{clip-path:url(#SVGID_2_);}
	.st39{fill:#00317D;}
	.st40{fill:#00737D;}
	.st41{fill:#ED1C24;}
	.st42{fill:#2678C7;}
	.st43{fill:#1853A6;}
	.st44{fill:#CB0000;}
	.st45{fill:#E61C21;}
	.st46{clip-path:url(#SVGID_4_);}
	.st47{fill:#6BDEF1;}
	.st48{clip-path:url(#SVGID_6_);}
	.st49{fill:#0165B2;}
	.st50{fill:#DE1134;}
	.st51{fill:#00A668;}
	.st52{fill:#FFE60B;}
	.st53{fill:#843D00;stroke:#000000;stroke-miterlimit:10;}
	.st54{fill:#EC1F27;}
	.st55{fill:#162984;}
	.st56{fill:#1853A6;stroke:#1853A6;stroke-miterlimit:10;}
	.st57{fill:none;}
	.st58{fill:none;stroke:#1853A6;stroke-width:0.9;stroke-miterlimit:10;}
	.st59{fill:#1853A6;stroke:#1853A6;stroke-width:0.9;stroke-miterlimit:10;}
	.st60{fill:#B5985A;}
	.st61{fill:#FFE60B;stroke:#000000;stroke-width:6;stroke-miterlimit:10;}
	.st62{fill:#008DCD;}
	.st63{fill:#009939;}
	.st64{fill:#2E3092;}
	.st65{fill:#EE3224;}
	.st66{fill:#005BAB;}
	.st67{fill:#D30027;}
	.st68{fill:#FFFFFF;stroke:#D30027;stroke-width:10;stroke-miterlimit:10;}
	.st69{fill:#E81C2F;}
	.st70{fill:#DC032B;}
	.st71{fill:#F25448;}
	.st72{fill:#FFFFFF;stroke:#F25448;stroke-width:6;stroke-miterlimit:10;}
	.st73{fill:#05A08D;}
	.st74{fill:#1875CE;}
	.st75{fill:#D72427;}
	.st76{fill:#004993;}
	.st77{fill:#007BB0;}
	.st78{fill:#FFEB00;}
	.st79{fill:#664A9E;}
	.st80{fill:#F4C701;}
	.st81{fill:#EBBE12;}
	.st82{fill:#44B3DB;}
	.st83{fill:#F6FF82;}
	.st84{fill:#FFC918;}
	.st85{fill:#0361A4;}
	.st86{fill:#009FE3;}
	.st87{fill:#E30217;}
	.st88{fill:#FDEA00;}
	.st89{fill:#E91B00;}
	.st90{fill:#2B2763;}
	.st91{fill:#EE1A22;}
	.st92{fill:#F1AA25;}
	.st93{fill:#93000C;}
	.st94{fill:none;stroke:#1D1D1B;stroke-width:4;}
	.st95{fill:#3E4E70;}
	.st96{fill:#096CB6;}
	.st97{fill:#0559A8;}
	.st98{fill:#F9ED1A;}
	.st99{fill:#949494;}
	.st100{fill:#FFD033;}
	.st101{fill:#243D89;}
	.st102{fill:#F8C936;}
	.st103{fill:#D44128;}
	.st104{fill:#ED1B23;}
	.st105{fill:#0C529C;}
	.st106{fill:#E31E24;}
	.st107{fill:#0263B0;}
	.st108{fill:#007AC2;}
	.st109{fill:#EF3D1F;}
	.st110{fill:#EE1C24;}
	.st111{fill:#FDEA00;stroke:#000000;stroke-width:0.6509;}
	.st112{fill:#FDEA00;stroke:#000000;stroke-width:0.6979;}
	.st113{fill:#46A0BE;}
	.st114{fill:#005FA5;}
	.st115{fill:#00904C;}
	.st116{fill:#E21F26;}
	.st117{fill:#FD0001;}
	.st118{fill:#0066B3;}
	.st119{fill:#E20019;}
	.st120{fill:#0171BC;}
	.st121{fill:#01305D;}
	.st122{fill:#1B7EE9;}
	.st123{fill:#BA0D0B;}
	.st124{fill:none;stroke:#000000;stroke-width:3;stroke-miterlimit:10;}
	.st125{fill:#FFFFFF;stroke:#000000;stroke-width:0.8836;stroke-miterlimit:10;}
	.st126{fill:#FFFFFF;stroke:#000000;stroke-width:0.9759;stroke-miterlimit:10;}
	.st127{fill:#0053A1;}
	.st128{fill:#FFE100;}
	.st129{fill:#FFE500;}
	.st130{fill:none;stroke:#FFE500;stroke-width:2;stroke-miterlimit:10;}
	.st131{fill:#01AFF3;}
	.st132{fill:#ED1B28;}
	.st133{fill:#E2000A;}
</style>
<g>
	<g>
		<g>
			<path class="st0" d="M128,249.4C61,249.4,6.6,195,6.6,128S61,6.6,128,6.6S249.4,61,249.4,128S195,249.4,128,249.4z"/>
			<path class="st131" d="M128,11.1c31.2,0,60.6,12.2,82.6,34.2s34.2,51.4,34.2,82.6s-12.2,60.6-34.2,82.6s-51.4,34.2-82.6,34.2
				s-60.6-12.2-82.6-34.2S11.1,159.2,11.1,128s12.2-60.6,34.2-82.6S96.8,11.1,128,11.1 M128,2C58.4,2,2,58.4,2,128s56.4,126,126,126
				s126-56.4,126-126S197.6,2,128,2L128,2z"/>
		</g>
		<g>
			<circle class="st0" cx="128" cy="128" r="107.1"/>
		</g>
	</g>
	<g>
		<path class="st131" d="M125.8,76.3c0.1-1.4-0.2-2.7-0.4-4.1c-0.6-4.9,0.5-9.3,3.6-13.1c4.3-5.3,7.8-11.2,12.1-16.5
			c1.1-1.4,2.4-1.9,4.1-1.6c6,0.9,11.9,2.6,17.8,4.2c1.6,0.5,3.4,0.8,4.9,1.5c2.4,1.1,5.1,0.8,7.4,1.8c2.5,1.1,5.2,1.4,7.8,2.2
			c2.6,0.7,5.2,1.4,7.8,1.9c1.6,0.3,3.2,0.5,4.8,0.6c1.9,0.1,3.4-0.5,4.6-2c1.7-2,3.1-4.2,4.3-6.6c0.4-0.8,0.7-0.8,1.2-0.2
			c2.4,2.3,1.9,6.3-0.9,8c0,0-0.1,0.1-0.1,0.1c-6.8,2.4-11,7.8-15.6,12.9c-2.2,2.5-4.6,4.8-7,7c-2.9,2.7-6.2,3.2-10,2.4
			c-10.5-2.2-20.8-5.2-31.2-7.9c-1.5-0.4-3.1-0.7-4.6-1.2c-1.4-0.4-2.5,0-3.6,1c-2.3,2.2-2.9,5-3.3,7.9c-0.2,4.4-3.4,3.4-3.6,2.3
			 M122.5,118.3c-1.8-4-2.1-8,1-11.6c2.5-1.8,4.9-3.9,5.3-4.3c3-3.2,6-6.4,8.9-9.7c2.6-3,5.6-3.6,9.3-2.9c6.8,1.4,13.4,3.6,20.2,5.3
			c4.9,1.2,9.8,2.6,14.8,3.2c1.5,0.2,2.9,0.2,4.4,0.1c1.4-0.1,2.6-0.8,3.6-1.7c0.5-0.4,1-0.9,1.7-0.4c0.7,0.6,0.3,1.3-0.1,1.8
			c-1,1.1-2.2,1.9-3.5,2.5c-0.7,0.3-1.2,1.4-1.8,2.2c-2.5,3.5-5.4,6.6-8.1,10c-1.3,1.6-1.9,3.2-2.2,5.2c-1.2,9.6-0.7,19.2,0,28.7
			c0.3,3.7,0.7,7.5,1.1,11.2c0.1,1.3,0.5,2.5,0.8,3.8c0,0.1,0.2,0.3,0.2,0.4c-0.8,1.8,0.8,2.5,1.7,3.3c5.9,4.9,12.7,7.7,20.3,9
			c2.3,0.4,4.7,0.5,7.1-0.2c1.3-0.4,2.3-1,3-2.1c2-3,3.6-6.2,5.1-9.5c1.7-3.7,2.6-7.6,3.4-11.5c0.2-1.2,0.7-1.1,1.4-0.5
			c2.9,2,3.9,4.7,2.8,8c-1.7,5.3-4.8,9.8-8.7,13.7c-6,6-10.6,13-16,19.5c-2.7,3.2-5.4,6.3-8,9.5c-1.2,1.6-2.6,1.8-4.4,1.4
			c-4.8-1-9.2-2.7-13.6-5.1c-4.5-2.6-8.7-5.6-12.6-8.8c-0.6-0.5-1.2-0.9-1.6-1.5c-0.8-0.9-1.7-1.4-2.9-1.2c-1,0.2-1.4-0.3-1.6-1.2
			c-1-3.6-1.6-7.2-2-10.9c-0.9-7.2-1.5-14.4-1.6-21.7c-0.1-3.1-0.1-6.1,0.1-9.2c0.5-5.6,0.8-11.2,2.3-16.6c0.4-1.5,1.2-2.7,2.4-3.7
			c1.7-1.4,3.3-3,5.1-4.6c-2.6-1.2-5.2-1.7-7.8-2.4c-7.1-1.7-14.3-3.2-21.5-4.3c-0.6-0.1-1.2-0.1-1.7-0.1c-1.1,0-1.7,0.6-1.8,1.7
			c-0.1,1.5-0.1,2.9-0.3,4.4C126.1,120.7,123.3,119.7,122.5,118.3z M123.5,168c1.8,0.2,1.8,4.5,1.2,8.1c-0.5,2-1.1,3.9-2.1,5.6
			c-4.3,6.6-9.1,12.8-14.5,18.5c-1.6,1.7-1.8,1.7-3.9,0.6c-16.6-9.2-34.1-16.4-51.9-23c-3.1-1.1-6.2-2.2-9.6-2.2
			c-3.2,0-4.8,1.2-5.8,4.3c-0.3,1-0.5,2.1-0.7,3.1c-0.2,0.9-0.5,1-1.3,0.4c-2.8-2.4-3.2-6.3-0.7-9.1c1.2-1.3,2.6-2.5,4.1-3.2
			c3.7-1.8,6.4-4.8,9.2-7.7c2.2-2.4,4.6-4.5,7-6.6c2.4-2,5.1-2.9,8.2-2.8c6,0.1,11.8,1.5,17.4,3.4c1.4,0.5,2.2,0.3,3.2-0.8
			c5.7-6.3,10.8-13.1,13.8-21.1c2.6-7.2,3.1-14.7,2.7-22.3c-0.4-7.3-1.7-14.4-4.5-21.2c-3.5-8.7-9-15.8-17.5-20.1
			c-6.2-3.1-12.4-3.1-18.5,0.5c-6.1,3.6-8.1,8.7-6,15.6c2.1,6.9,6.9,10.7,13.9,11.8c2.3,0.4,4.6,0.6,7,0.4c0.5,0,1-0.1,1.2,0.5
			c0.2,0.5-0.2,0.8-0.5,1.1c-1.6,1.1-3.3,2.1-5,3.1c-2.9,1.8-6,2.6-9.1,3.6c-2,0.6-4.1,0.7-6.2,1c-2.2,0.3-3.8-0.5-5-2.2
			c-2.3-3-3.6-6.4-4.4-10.1c-1.6-7.2,0.8-13.4,4.2-19.4c2.8-5,6.4-9.4,10.6-13.4c1-1,1.4-2.2,2.3-3.2c1-1,1.7-2.3,2.5-3.4
			c2.5-3.4,5-6.9,7.7-10.2c2.7-3.3,6.4-3.6,10.3-3.2c1.5,0.1,1.7,0.2,4,0.4c16.4,2.1,26.8,12.1,30.4,28c5.3,23.6,1.5,45.6-12.6,65.6
			c-5.2,7.3-11,14-17.7,20c-0.4,0.3-0.7,0.6-1.1,1c0.4,0.6,1.1,0.7,1.6,0.9c9.4,3.6,18.4,7.9,27.4,12.3c0.7,0.4,1.5,0.7,2.3,1
			c1.8,0.6,3.1,0.1,3.6-1.8C121.4,169.6,121.8,167.8,123.5,168z"/>
	</g>
	<polygon class="st131" points="143.3,204.3 157.6,205 150.7,217.5 157.2,230.2 142.9,230.5 135.2,242.5 127.8,230.3 113.5,229.6 
		120.4,217.1 113.9,204.3 128.2,204 135.9,192 	"/>
	<polygon class="st131" points="217.3,117.3 231.6,118 224.7,130.5 231.2,143.2 216.9,143.5 209.2,155.5 201.8,143.3 187.5,142.6 
		194.4,130.1 187.9,117.3 202.2,117 209.9,105 	"/>
	<polygon class="st131" points="45.3,117.3 59.6,118 52.7,130.5 59.2,143.2 44.9,143.5 37.2,155.5 29.8,143.3 15.5,142.6 
		22.4,130.1 15.9,117.3 30.2,117 37.9,105 	"/>
</g>
</svg>
