<?xml version="1.0" encoding="utf-8"?>
<!-- Generator: Adobe Illustrator 17.0.0, SVG Export Plug-In . SVG Version: 6.00 Build 0)  -->
<!DOCTYPE svg PUBLIC "-//W3C//DTD SVG 1.1//EN" "http://www.w3.org/Graphics/SVG/1.1/DTD/svg11.dtd" [
	<!ENTITY ns_flows "http://ns.adobe.com/Flows/1.0/">
	<!ENTITY ns_extend "http://ns.adobe.com/Extensibility/1.0/">
	<!ENTITY ns_ai "http://ns.adobe.com/AdobeIllustrator/10.0/">
	<!ENTITY ns_graphs "http://ns.adobe.com/Graphs/1.0/">
]>
<svg version="1.1" id="Layer_2" xmlns:x="&ns_extend;" xmlns:i="&ns_ai;" xmlns:graph="&ns_graphs;"
	 xmlns="http://www.w3.org/2000/svg" xmlns:xlink="http://www.w3.org/1999/xlink" xmlns:a="http://ns.adobe.com/AdobeSVGViewerExtensions/3.0/"
	 x="0px" y="0px" width="256px" height="256px" viewBox="0 0 256 256" style="enable-background:new 0 0 256 256;"
	 xml:space="preserve">
<style type="text/css">
	.st0{fill:#FFFFFF;}
	.st1{fill:#54B948;}
	.st2{fill:#1D8C8E;}
	.st3{fill:#14DEAC;}
	.st4{fill:#1466AC;}
	.st5{fill:#757575;}
	.st6{fill:#B69442;}
	.st7{fill:#1A234D;}
	.st8{fill:#AA0629;}
	.st9{fill:#FF4A49;}
	.st10{fill:#3C6643;}
	.st11{fill:none;stroke:#FF4A49;stroke-miterlimit:10;}
	.st12{fill:#E70084;}
	.st13{fill:#508A72;}
	.st14{fill:#01A663;}
	.st15{fill:#015297;}
	.st16{fill:#B0B0B0;}
	.st17{fill:#E1062F;}
	.st18{fill:#D80000;stroke:#FFFFFF;stroke-width:2;stroke-miterlimit:10;}
	.st19{fill:#D80000;}
	.st20{fill:#8ABE23;}
	.st21{fill:#1D1D1B;}
	.st22{fill:#FEFEFE;}
	.st23{fill:#FF0000;}
	.st24{fill:#FF1D1B;}
	.st25{fill:#6DB2DE;}
	.st26{fill:#FF1D25;}
	.st27{fill:#FFDA00;}
	.st28{fill:#024D9E;}
	.st29{fill:#6B97C6;}
	.st30{fill:#000078;}
	.st31{fill:none;stroke:#FFFFFF;stroke-width:6;stroke-linecap:round;stroke-miterlimit:10;}
	.st32{fill:#FFEE34;}
	.st33{fill:none;stroke:#000000;stroke-width:4;stroke-miterlimit:10;}
	.st34{fill:#D11E24;}
	.st35{fill:#D71F26;}
	.st36{fill:#020000;}
	.st37{fill:none;stroke:#000000;stroke-width:2;stroke-miterlimit:10;}
	.st38{clip-path:url(#SVGID_2_);}
	.st39{fill:#00317D;}
	.st40{fill:#00737D;}
	.st41{fill:#ED1C24;}
	.st42{fill:#2678C7;}
	.st43{fill:#1853A6;}
	.st44{fill:#CB0000;}
	.st45{fill:#E61C21;}
	.st46{clip-path:url(#SVGID_4_);}
	.st47{fill:#6BDEF1;}
	.st48{clip-path:url(#SVGID_6_);}
	.st49{fill:#0165B2;}
	.st50{fill:#DE1134;}
	.st51{fill:#00A668;}
	.st52{fill:#FFE60B;}
	.st53{fill:#843D00;stroke:#000000;stroke-miterlimit:10;}
	.st54{fill:#EC1F27;}
	.st55{fill:#162984;}
	.st56{fill:#1853A6;stroke:#1853A6;stroke-miterlimit:10;}
	.st57{fill:none;}
	.st58{fill:none;stroke:#1853A6;stroke-width:0.9;stroke-miterlimit:10;}
	.st59{fill:#1853A6;stroke:#1853A6;stroke-width:0.9;stroke-miterlimit:10;}
	.st60{fill:#B5985A;}
	.st61{fill:#FFE60B;stroke:#000000;stroke-width:6;stroke-miterlimit:10;}
	.st62{fill:#008DCD;}
	.st63{fill:#009939;}
	.st64{fill:#2E3092;}
	.st65{fill:#EE3224;}
	.st66{fill:#005BAB;}
	.st67{fill:#D30027;}
	.st68{fill:#FFFFFF;stroke:#D30027;stroke-width:10;stroke-miterlimit:10;}
	.st69{fill:#E81C2F;}
	.st70{fill:#DC032B;}
	.st71{fill:#F25448;}
	.st72{fill:#FFFFFF;stroke:#F25448;stroke-width:6;stroke-miterlimit:10;}
	.st73{fill:#05A08D;}
	.st74{fill:#1875CE;}
	.st75{fill:#D72427;}
	.st76{fill:#004993;}
	.st77{fill:#007BB0;}
	.st78{fill:#FFEB00;}
	.st79{fill:#664A9E;}
	.st80{fill:#F4C701;}
	.st81{fill:#EBBE12;}
	.st82{fill:#44B3DB;}
	.st83{fill:#F6FF82;}
	.st84{fill:#FFC918;}
	.st85{fill:#0361A4;}
	.st86{fill:#009FE3;}
	.st87{fill:#E30217;}
	.st88{fill:#FDEA00;}
	.st89{fill:#E91B00;}
	.st90{fill:#2B2763;}
	.st91{fill:#EE1A22;}
	.st92{fill:#F1AA25;}
	.st93{fill:#93000C;}
	.st94{fill:none;stroke:#1D1D1B;stroke-width:4;}
	.st95{fill:#3E4E70;}
	.st96{fill:#096CB6;}
	.st97{fill:#0559A8;}
	.st98{fill:#F9ED1A;}
	.st99{fill:#949494;}
	.st100{fill:#FFD033;}
	.st101{fill:#243D89;}
	.st102{fill:#F8C936;}
	.st103{fill:#D44128;}
	.st104{fill:#ED1B23;}
	.st105{fill:#0C529C;}
	.st106{fill:#E31E24;}
	.st107{fill:#0263B0;}
	.st108{fill:#007AC2;}
	.st109{fill:#EF3D1F;}
	.st110{fill:#EE1C24;}
	.st111{fill:#FDEA00;stroke:#000000;stroke-width:0.6509;}
	.st112{fill:#FDEA00;stroke:#000000;stroke-width:0.6979;}
	.st113{fill:#46A0BE;}
	.st114{fill:#005FA5;}
	.st115{fill:#00904C;}
	.st116{fill:#E21F26;}
	.st117{fill:#FD0001;}
	.st118{fill:#0066B3;}
	.st119{fill:#E20019;}
	.st120{fill:#0171BC;}
	.st121{fill:#01305D;}
	.st122{fill:#1B7EE9;}
	.st123{fill:#BA0D0B;}
	.st124{fill:none;stroke:#000000;stroke-width:3;stroke-miterlimit:10;}
	.st125{fill:#FFFFFF;stroke:#000000;stroke-width:0.8836;stroke-miterlimit:10;}
	.st126{fill:#FFFFFF;stroke:#000000;stroke-width:0.9759;stroke-miterlimit:10;}
	.st127{fill:#0053A1;}
	.st128{fill:#FFE100;}
	.st129{fill:#FFE500;}
	.st130{fill:none;stroke:#FFE500;stroke-width:2;stroke-miterlimit:10;}
	.st131{fill:#01AFF3;}
	.st132{fill:#ED1B28;}
	.st133{fill:#E2000A;}
</style>
<g>
	<g>
		<g>
			<path class="st0" d="M128,249.4C61,249.4,6.6,195,6.6,128S61,6.6,128,6.6S249.4,61,249.4,128S195,249.4,128,249.4z"/>
			<path class="st133" d="M128,11.1c31.2,0,60.6,12.2,82.6,34.2s34.2,51.4,34.2,82.6s-12.2,60.6-34.2,82.6s-51.4,34.2-82.6,34.2
				s-60.6-12.2-82.6-34.2S11.1,159.2,11.1,128s12.2-60.6,34.2-82.6S96.8,11.1,128,11.1 M128,2C58.4,2,2,58.4,2,128s56.4,126,126,126
				s126-56.4,126-126S197.6,2,128,2L128,2z"/>
		</g>
		<g>
			<circle class="st0" cx="128" cy="128" r="107.1"/>
			<path class="st133" d="M128,237.6c-60.5,0-109.6-49.2-109.6-109.6S67.5,18.4,128,18.4S237.6,67.5,237.6,128
				S188.5,237.6,128,237.6z"/>
		</g>
	</g>
	<g>
		<path class="st0" d="M194.6,127.5c-1.5-26-3.6-57.9-3.6-77h-0.5c-6.4,18.8-13.3,38.9-23.3,64.9l-36.4,94.2h-8.5l-34.1-92.1
			c-9.7-27-17.2-47.9-22.3-66.9h-0.5c-0.5,20.3-1.8,50.5-3.8,79.3L56,214l-11.6-8.9L56,39l13.8-6.6l38,103.9
			c8.2,21.9,14.1,39.4,19,56.1h0.8c4.4-16,10.5-32.7,19.2-56.1l39.8-102.8l14.4,5l10.5,167.3l-11.6,7.8L194.6,127.5z"/>
	</g>
	<g>
		<path d="M83.5,68.5H106v8.2H93.3v7.5h11.9v8H93.3V107h-9.9V68.5z"/>
		<path d="M112.5,97.2c2.1,1.1,5.6,2.1,9,2.1c3.5,0,5.1-1.3,5.1-3.2c0-2-1.7-3.1-5.8-4.7c-6.4-2.7-9.7-6.5-9.7-11.3
			c0-6.7,5.2-12,14.7-12c4,0,7.1,0.8,9.2,1.8l-1.9,8c-1.5-0.7-4-1.7-7.4-1.7c-3.1,0-4.7,1.3-4.7,3c0,1.9,1.7,2.7,6.4,4.8
			c6.4,2.6,9.1,6.4,9.1,11.4c0,6.8-5.2,12.1-15.5,12.1c-4.3,0-8.3-1.1-10.3-2.1L112.5,97.2z"/>
		<path d="M149.6,107l-11.1-38.4h10.8l3.5,15.3c1,4.2,1.9,8.5,2.7,13.2h0.1c0.8-4.6,1.7-9,2.7-13.1l3.5-15.4h10.6L161.1,107H149.6z"
			/>
		<path d="M102,130.1c-0.1-2.3-0.1-5.3-0.1-8.5h-0.1c-0.6,2.8-1.5,6.1-2.1,8.2l-2.1,7.7h-4.5l-1.8-7.6c-0.5-2.2-1.2-5.4-1.6-8.3
			h-0.1c-0.1,3-0.3,6.2-0.4,8.5L89,138h-5.3l1.5-22.8h7.4l1.5,6.5c0.6,2.6,1.3,5.5,1.7,8.3h0.1c0.5-2.7,1.3-5.8,1.9-8.3l1.6-6.4h7.3
			l1.2,22.8h-5.5L102,130.1z"/>
		<path d="M125.1,134c0,1.6,0.1,3,0.3,4h-5.2l-0.3-1.5h-0.1c-1.1,1.4-2.7,1.9-4.4,1.9c-3.1,0-5.2-2.4-5.2-5.2c0-4.5,4-6.4,9.1-6.4
			v-0.2c0-0.7-0.6-1.5-2.6-1.5c-1.7,0-3.3,0.5-4.4,1.2l-1-3.8c1-0.5,3.3-1.5,6.5-1.5c5.7,0,7.3,3.4,7.3,7.3V134z M119.5,130.3
			c-2.2,0-3.7,0.7-3.7,2.2c0,1.2,0.7,1.7,1.7,1.7c0.8,0,1.7-0.5,1.9-1.4c0.1-0.2,0.1-0.5,0.1-0.8V130.3z"/>
		<path d="M131.5,119.6c-1.7,0-2.9-1.2-2.9-2.8c0-1.7,1.2-2.8,2.9-2.8c1.8,0,2.9,1.2,2.9,2.8C134.5,118.4,133.3,119.6,131.5,119.6
			L131.5,119.6z M128.6,138v-16.6h5.8V138H128.6z"/>
		<path d="M138,126.9c0-2.1-0.1-4-0.1-5.5h5l0.3,2.1h0.1c0.7-1,2.3-2.4,4.7-2.4c3.8,0,5.6,2.7,5.6,7v10h-5.8v-9.4
			c0-1.7-0.5-2.8-1.9-2.8c-1,0-1.5,0.7-1.8,1.3c-0.1,0.3-0.2,0.8-0.2,1.3v9.6H138V126.9z"/>
		<path d="M156,134.5l4.1-5.5c0.9-1.1,1.7-2.1,2.5-3V126h-6v-4.7h12.9v3.6l-3.8,5.2c-0.8,1.1-1.7,2.2-2.6,3.1v0.1h6.7v4.7H156V134.5
			z"/>
		<path d="M110.4,191.6c-10.7,0-14.3-10.1-14.3-20c0-10.5,4.1-20.2,14.5-20.2c11,0,14.2,10.7,14.2,20
			C124.7,183.6,119.7,191.6,110.4,191.6L110.4,191.6z M110.5,183.5c2.5,0,3.9-3.5,3.9-12.1c0-8.2-1.3-12-3.9-12s-4.2,3.5-4.1,12
			C106.3,180.1,107.8,183.5,110.5,183.5L110.5,183.5z"/>
		<path d="M154,160.5h-13.7l-0.6,4.6c0.7-0.1,1.3-0.1,1.9-0.1c3.2,0.1,7.3,0.9,10,3.1c2.7,2.2,4.1,5.3,4.1,9.5
			c0,7.3-5.9,13.9-16.7,13.9c-4.3,0-8.2-1-10.3-1.9l1.7-7.9c1.7,0.8,4.9,1.7,7.9,1.7c3.5,0,6.8-1.5,6.8-5.1c0-4-3.4-5.8-10.1-5.8
			c-1.8,0-3.1,0.1-4.4,0.3L133,152h21V160.5z"/>
	</g>
</g>
</svg>
