<?xml version="1.0" encoding="utf-8"?>
<!-- Generator: Adobe Illustrator 17.0.0, SVG Export Plug-In . SVG Version: 6.00 Build 0)  -->
<!DOCTYPE svg PUBLIC "-//W3C//DTD SVG 1.1//EN" "http://www.w3.org/Graphics/SVG/1.1/DTD/svg11.dtd" [
	<!ENTITY ns_flows "http://ns.adobe.com/Flows/1.0/">
	<!ENTITY ns_extend "http://ns.adobe.com/Extensibility/1.0/">
	<!ENTITY ns_ai "http://ns.adobe.com/AdobeIllustrator/10.0/">
	<!ENTITY ns_graphs "http://ns.adobe.com/Graphs/1.0/">
]>
<svg version="1.1" id="Layer_2" xmlns:x="&ns_extend;" xmlns:i="&ns_ai;" xmlns:graph="&ns_graphs;"
	 xmlns="http://www.w3.org/2000/svg" xmlns:xlink="http://www.w3.org/1999/xlink" xmlns:a="http://ns.adobe.com/AdobeSVGViewerExtensions/3.0/"
	 x="0px" y="0px" width="256px" height="256px" viewBox="0 0 256 256" style="enable-background:new 0 0 256 256;"
	 xml:space="preserve">
<style type="text/css">
	.st0{fill:#FFFFFF;}
	.st1{fill:#54B948;}
	.st2{fill:#1D8C8E;}
	.st3{fill:#14DEAC;}
	.st4{fill:#1466AC;}
	.st5{fill:#757575;}
	.st6{fill:#B69442;}
	.st7{fill:#1A234D;}
	.st8{fill:#AA0629;}
	.st9{fill:#FF4A49;}
	.st10{fill:#3C6643;}
	.st11{fill:none;stroke:#FF4A49;stroke-miterlimit:10;}
	.st12{fill:#E70084;}
	.st13{fill:#508A72;}
	.st14{fill:#01A663;}
	.st15{fill:#015297;}
	.st16{fill:#B0B0B0;}
	.st17{fill:#E1062F;}
	.st18{fill:#D80000;stroke:#FFFFFF;stroke-width:2;stroke-miterlimit:10;}
	.st19{fill:#D80000;}
	.st20{fill:#8ABE23;}
	.st21{fill:#1D1D1B;}
	.st22{fill:#FEFEFE;}
	.st23{fill:#FF0000;}
	.st24{fill:#FF1D1B;}
	.st25{fill:#6DB2DE;}
	.st26{fill:#FF1D25;}
	.st27{fill:#FFDA00;}
	.st28{fill:#024D9E;}
	.st29{fill:#6B97C6;}
	.st30{fill:#000078;}
	.st31{fill:none;stroke:#FFFFFF;stroke-width:6;stroke-linecap:round;stroke-miterlimit:10;}
	.st32{fill:#FFEE34;}
	.st33{fill:none;stroke:#000000;stroke-width:4;stroke-miterlimit:10;}
	.st34{fill:#D11E24;}
	.st35{fill:#D71F26;}
	.st36{fill:#020000;}
	.st37{fill:none;stroke:#000000;stroke-width:2;stroke-miterlimit:10;}
	.st38{clip-path:url(#SVGID_2_);}
	.st39{fill:#00317D;}
	.st40{fill:#00737D;}
	.st41{fill:#ED1C24;}
	.st42{fill:#2678C7;}
	.st43{fill:#1853A6;}
	.st44{fill:#CB0000;}
	.st45{fill:#E61C21;}
	.st46{clip-path:url(#SVGID_4_);}
	.st47{fill:#6BDEF1;}
	.st48{clip-path:url(#SVGID_6_);}
	.st49{fill:#0165B2;}
	.st50{fill:#DE1134;}
	.st51{fill:#00A668;}
	.st52{fill:#FFE60B;}
	.st53{fill:#843D00;stroke:#000000;stroke-miterlimit:10;}
	.st54{fill:#EC1F27;}
	.st55{fill:#162984;}
	.st56{fill:#1853A6;stroke:#1853A6;stroke-miterlimit:10;}
	.st57{fill:none;}
	.st58{fill:none;stroke:#1853A6;stroke-width:0.9;stroke-miterlimit:10;}
	.st59{fill:#1853A6;stroke:#1853A6;stroke-width:0.9;stroke-miterlimit:10;}
	.st60{fill:#B5985A;}
	.st61{fill:#FFE60B;stroke:#000000;stroke-width:6;stroke-miterlimit:10;}
	.st62{fill:#008DCD;}
	.st63{fill:#009939;}
	.st64{fill:#2E3092;}
	.st65{fill:#EE3224;}
	.st66{fill:#005BAB;}
	.st67{fill:#D30027;}
	.st68{fill:#FFFFFF;stroke:#D30027;stroke-width:10;stroke-miterlimit:10;}
	.st69{fill:#E81C2F;}
	.st70{fill:#DC032B;}
	.st71{fill:#F25448;}
	.st72{fill:#FFFFFF;stroke:#F25448;stroke-width:6;stroke-miterlimit:10;}
	.st73{fill:#05A08D;}
	.st74{fill:#1875CE;}
	.st75{fill:#D72427;}
	.st76{fill:#004993;}
	.st77{fill:#007BB0;}
	.st78{fill:#FFEB00;}
	.st79{fill:#664A9E;}
	.st80{fill:#F4C701;}
	.st81{fill:#EBBE12;}
	.st82{fill:#44B3DB;}
	.st83{fill:#F6FF82;}
	.st84{fill:#FFC918;}
	.st85{fill:#0361A4;}
	.st86{fill:#009FE3;}
	.st87{fill:#E30217;}
	.st88{fill:#FDEA00;}
	.st89{fill:#E91B00;}
	.st90{fill:#2B2763;}
	.st91{fill:#EE1A22;}
	.st92{fill:#F1AA25;}
	.st93{fill:#93000C;}
	.st94{fill:none;stroke:#1D1D1B;stroke-width:4;}
	.st95{fill:#3E4E70;}
	.st96{fill:#096CB6;}
	.st97{fill:#0559A8;}
	.st98{fill:#F9ED1A;}
	.st99{fill:#949494;}
	.st100{fill:#FFD033;}
	.st101{fill:#243D89;}
	.st102{fill:#F8C936;}
	.st103{fill:#D44128;}
	.st104{fill:#ED1B23;}
	.st105{fill:#0C529C;}
	.st106{fill:#E31E24;}
	.st107{fill:#0263B0;}
	.st108{fill:#007AC2;}
	.st109{fill:#EF3D1F;}
	.st110{fill:#EE1C24;}
	.st111{fill:#FDEA00;stroke:#000000;stroke-width:0.6509;}
	.st112{fill:#FDEA00;stroke:#000000;stroke-width:0.6979;}
	.st113{fill:#46A0BE;}
	.st114{fill:#005FA5;}
	.st115{fill:#00904C;}
	.st116{fill:#E21F26;}
	.st117{fill:#FD0001;}
	.st118{fill:#0066B3;}
	.st119{fill:#E20019;}
	.st120{fill:#0171BC;}
	.st121{fill:#01305D;}
	.st122{fill:#1B7EE9;}
	.st123{fill:#BA0D0B;}
	.st124{fill:none;stroke:#000000;stroke-width:3;stroke-miterlimit:10;}
	.st125{fill:#FFFFFF;stroke:#000000;stroke-width:0.8836;stroke-miterlimit:10;}
	.st126{fill:#FFFFFF;stroke:#000000;stroke-width:0.9759;stroke-miterlimit:10;}
	.st127{fill:#0053A1;}
	.st128{fill:#FFE100;}
	.st129{fill:#FFE500;}
	.st130{fill:none;stroke:#FFE500;stroke-width:2;stroke-miterlimit:10;}
	.st131{fill:#01AFF3;}
	.st132{fill:#ED1B28;}
	.st133{fill:#E2000A;}
</style>
<g>
	<g>
		<path class="st0" d="M128,249.4C61,249.4,6.6,195,6.6,128S61,6.6,128,6.6S249.4,61,249.4,128S195,249.4,128,249.4z"/>
		<path d="M128,11.1c31.2,0,60.6,12.2,82.6,34.2s34.2,51.4,34.2,82.6s-12.2,60.6-34.2,82.6s-51.4,34.2-82.6,34.2
			s-60.6-12.2-82.6-34.2S11.1,159.2,11.1,128s12.2-60.6,34.2-82.6S96.8,11.1,128,11.1 M128,2C58.4,2,2,58.4,2,128s56.4,126,126,126
			s126-56.4,126-126S197.6,2,128,2L128,2z"/>
	</g>
	<g>
		<circle class="st0" cx="128" cy="128" r="107.1"/>
		<path d="M128,237.6c-60.5,0-109.6-49.2-109.6-109.6S67.5,18.4,128,18.4S237.6,67.5,237.6,128S188.5,237.6,128,237.6z M128,23.4
			C70.3,23.4,23.4,70.3,23.4,128S70.3,232.6,128,232.6S232.6,185.7,232.6,128S185.7,23.4,128,23.4z"/>
	</g>
	<g>
		<path d="M91.3,206.7c-5.6,0-7.5-5.3-7.5-10.4c0-5.5,2.1-10.6,7.6-10.6c5.8,0,7.4,5.6,7.4,10.4C98.8,202.5,96.2,206.7,91.3,206.7
			L91.3,206.7z M91.4,202.5c1.3,0,2-1.9,2-6.3c0-4.3-0.7-6.3-2-6.3c-1.3,0-2.2,1.8-2.2,6.3C89.2,200.7,89.9,202.5,91.4,202.5
			L91.4,202.5z"/>
		<path d="M115.1,186v3.4l-7.7,17h-5.6l7.6-15.8v-0.1H101V186H115.1z"/>
		<path d="M136.3,197.7h-6.7v4.2h7.5v4.5h-12.9v-21.1h12.5v4.5h-7.1v3.6h6.7V197.7z"/>
		<path d="M142.5,206.7c-1.7,0-3-1.3-3-3.2c0-1.9,1.3-3.3,3.1-3.3s3,1.3,3.1,3.3C145.6,205.4,144.4,206.7,142.5,206.7L142.5,206.7z"
			/>
		<path d="M152.8,206.4l-6.1-21.1h6l1.9,8.4c0.6,2.3,1.1,4.7,1.5,7.3h0.1c0.4-2.5,0.9-5,1.5-7.2l1.9-8.5h5.8l-6.3,21.1H152.8z"/>
		<path d="M168.2,206.7c-1.7,0-3-1.3-3-3.2c0-1.9,1.3-3.3,3.1-3.3s3,1.3,3.1,3.3C171.4,205.4,170.1,206.7,168.2,206.7L168.2,206.7z"
			/>
	</g>
	<g>
		<path d="M82.3,73.3c2.2,1.1,5.9,2.2,9.4,2.2c3.7,0,5.4-1.4,5.4-3.4c0-2.1-1.7-3.2-6.1-5c-6.7-2.9-10.2-6.8-10.2-11.9
			c0-7,5.5-12.6,15.5-12.6c4.2,0,7.4,0.8,9.7,1.9l-2,8.5c-1.6-0.7-4.2-1.7-7.7-1.7c-3.2,0-5,1.3-5,3.1c0,2,1.7,2.9,6.7,5
			c6.8,2.8,9.6,6.8,9.6,12c0,7.1-5.5,12.8-16.3,12.8c-4.5,0-8.8-1.1-10.8-2.2L82.3,73.3z"/>
		<path d="M136.2,67h-12.8v8h14.3v8.6H113V43.1h23.9v8.6h-13.6v6.8h12.8V67z"/>
		<path d="M152.3,83.5l-11.7-40.4H152l3.7,16.1c1.1,4.4,2,8.9,2.9,13.9h0.1c0.8-4.8,1.8-9.5,2.8-13.8l3.7-16.3h11.2l-12,40.4H152.3z
			"/>
	</g>
	<rect x="10" y="92" width="236" height="74"/>
	<g>
		<g>
			<path class="st0" d="M34.4,116.4c0.8,0.5,2.1,0.9,3.3,0.9c2,0,3.2-1.1,3.2-2.8c0-1.5-0.9-2.4-2.8-3.3c-2.3-0.9-3.9-2.4-3.9-4.6
				c0-2.5,2-4.4,5-4.4c1.5,0,2.6,0.4,3.2,0.7l-0.5,1.7c-0.5-0.3-1.4-0.7-2.7-0.7c-2.1,0-2.9,1.3-2.9,2.4c0,1.5,0.9,2.3,3,3.2
				c2.5,1.2,3.7,2.6,3.7,4.8c0,2.6-1.9,4.6-5.4,4.6c-1.4,0-3-0.4-3.7-0.9L34.4,116.4z"/>
			<path class="st0" d="M45.6,102.7c0.9-0.2,2.1-0.3,3.6-0.3c1.9,0,3.3,0.4,4.3,1.3c0.8,0.8,1.4,2,1.4,3.4c0,1.5-0.4,2.6-1.2,3.4
				c-1,1.2-2.8,1.8-4.6,1.8c-0.5,0-1,0-1.4-0.1v6.6h-2V102.7z M47.7,110.6c0.4,0.1,0.9,0.1,1.4,0.1c2.3,0,3.8-1.2,3.8-3.5
				c0-2-1.3-3.2-3.5-3.2c-0.8,0-1.4,0.1-1.7,0.1V110.6z"/>
			<path class="st0" d="M63.1,119c-3.8,0-6.5-3.2-6.5-8.3c0-5.2,2.8-8.5,6.7-8.5c3.9,0,6.4,3.3,6.4,8.2
				C69.8,116.3,66.8,119,63.1,119L63.1,119z M63.2,117.4c3,0,4.4-3.2,4.4-6.8c0-3.2-1.4-6.6-4.4-6.6s-4.5,3.4-4.5,6.7
				C58.8,114.1,60.3,117.4,63.2,117.4L63.2,117.4z"/>
			<path class="st0" d="M72.4,102.8c1-0.2,2.3-0.3,3.6-0.3c2.1,0,3.4,0.4,4.4,1.3c0.8,0.7,1.2,1.9,1.2,3.1c0,2.1-1.2,3.5-2.9,4.2v0
				c1.2,0.4,1.9,1.6,2.3,3.4c0.5,2.3,0.8,3.8,1.2,4.4h-2.1c-0.3-0.5-0.6-1.9-1-3.9c-0.5-2.2-1.3-3.1-3.1-3.1h-1.6v7.1h-2V102.8z
				 M74.4,110.2h1.7c2.1,0,3.5-1.3,3.5-3.1c0-2.1-1.3-3-3.4-3c-0.8,0-1.4,0.1-1.8,0.2V110.2z"/>
			<path class="st0" d="M87.2,104.3h-4.4v-1.7h10.8v1.7h-4.4v14.5h-2V104.3z"/>
			<path class="st0" d="M99.5,118.8l-4.8-16.3h2.2l2.2,7.9c0.6,2.1,1.2,4.2,1.6,6.1h0c0.4-1.9,1-4.1,1.6-6.1l2.4-7.9h2.2l-5.2,16.3
				H99.5z"/>
			<path class="st0" d="M116.3,111.2h-5.6v5.9h6.3v1.7h-8.3v-16.3h8v1.7h-6v5.2h5.6V111.2z"/>
			<path class="st0" d="M119.5,102.8c1-0.2,2.3-0.3,3.6-0.3c2.1,0,3.4,0.4,4.4,1.3c0.8,0.7,1.2,1.9,1.2,3.1c0,2.1-1.2,3.5-2.9,4.2v0
				c1.2,0.4,1.9,1.6,2.3,3.4c0.5,2.3,0.8,3.8,1.2,4.4h-2.1c-0.3-0.5-0.6-1.9-1-3.9c-0.5-2.2-1.3-3.1-3.1-3.1h-1.6v7.1h-2V102.8z
				 M121.5,110.2h1.7c2.1,0,3.5-1.3,3.5-3.1c0-2.1-1.3-3-3.4-3c-0.8,0-1.4,0.1-1.8,0.2V110.2z"/>
			<path class="st0" d="M139.2,111.2h-5.6v5.9h6.3v1.7h-8.3v-16.3h8v1.7h-6v5.2h5.6V111.2z"/>
			<path class="st0" d="M144.4,102.5v16.3h-2v-16.3H144.4z"/>
			<path class="st0" d="M147.9,118.8v-16.3h2.1l4.5,8c1,1.9,2,3.7,2.7,5.4l0,0c-0.2-2.3-0.2-4.3-0.2-6.9v-6.5h1.9v16.3h-2l-4.6-8.1
				c-1-1.8-2-3.6-2.7-5.5l-0.1,0c0.1,2.1,0.2,4.1,0.2,7v6.6H147.9z"/>
			<path class="st0" d="M164.4,102.5v16.3h-2v-16.3H164.4z"/>
			<path class="st0" d="M178.9,118.2c-0.9,0.3-2.5,0.8-4.4,0.8c-2.1,0-4-0.6-5.4-2c-1.3-1.3-2.2-3.5-2.2-6.2c0-5.3,3.3-8.4,8-8.4
				c1.6,0,2.9,0.4,3.5,0.7l-0.5,1.7c-0.7-0.3-1.7-0.6-3.1-0.6c-3.4,0-5.8,2.2-5.8,6.6c0,4.4,2.3,6.6,5.5,6.6c1.2,0,1.9-0.2,2.3-0.4
				v-5H174v-1.6h4.9V118.2z"/>
			<path class="st0" d="M183.9,102.5v10c0,3.4,1.4,4.8,3.3,4.8c2.1,0,3.4-1.4,3.4-4.8v-10h2v9.8c0,4.8-2.4,6.7-5.5,6.7
				c-3.1,0-5.3-1.8-5.3-6.5v-10H183.9z"/>
			<path class="st0" d="M196.1,118.8v-16.3h2.1l4.5,8c1,1.9,2,3.7,2.7,5.4l0,0c-0.2-2.3-0.2-4.3-0.2-6.9v-6.5h1.9v16.3h-2l-4.6-8.1
				c-1-1.8-2-3.6-2.7-5.5l-0.1,0c0.1,2.1,0.2,4.1,0.2,7v6.6H196.1z"/>
			<path class="st0" d="M221.7,118.2c-0.9,0.3-2.5,0.8-4.4,0.8c-2.1,0-4-0.6-5.4-2c-1.3-1.3-2.2-3.5-2.2-6.2c0-5.3,3.3-8.4,8-8.4
				c1.6,0,2.9,0.4,3.5,0.7l-0.5,1.7c-0.7-0.3-1.7-0.6-3.1-0.6c-3.4,0-5.8,2.2-5.8,6.6c0,4.4,2.3,6.6,5.5,6.6c1.2,0,1.9-0.2,2.3-0.4
				v-5h-2.9v-1.6h4.9V118.2z"/>
		</g>
		<g>
			<path class="st0" d="M47,142.5h-9.4v9.9h10.5v2.9H34.3v-27.1h13.4v2.9h-10v8.7H47V142.5z"/>
			<path class="st0" d="M52.4,128.2h3.4v24.3h10.4v2.9H52.4V128.2z"/>
			<path class="st0" d="M72.9,155.3l-8.1-27.1h3.7l3.7,13.2c1,3.5,1.9,7,2.6,10.2H75c0.6-3.2,1.6-6.8,2.7-10.2l4-13.2h3.6l-8.6,27.1
				H72.9z"/>
			<path class="st0" d="M101,142.5h-9.4v9.9h10.5v2.9H88.2v-27.1h13.4v2.9h-10v8.7h9.4V142.5z"/>
			<path class="st0" d="M106.3,128.5c1.6-0.4,3.9-0.6,6.1-0.6c3.4,0,5.8,0.7,7.3,2.1c1.3,1.2,2.1,3.1,2.1,5.2c0,3.5-2.1,5.9-4.9,7
				v0.1c2.1,0.7,3.2,2.6,3.9,5.7c0.8,3.8,1.4,6.3,1.9,7.3h-3.5c-0.4-0.8-1-3.2-1.7-6.6c-0.8-3.7-2.1-5.1-5.1-5.2h-2.7v11.8h-3.4
				V128.5z M109.7,140.9h2.9c3.5,0,5.8-2.1,5.8-5.2c0-3.4-2.2-5.1-5.8-5.1c-1.4,0-2.4,0.1-2.9,0.3V140.9z"/>
			<path class="st0" d="M126,151.2c1.4,0.9,3.5,1.6,5.6,1.6c3.4,0,5.3-1.8,5.3-4.6c0-2.5-1.5-4-4.7-5.4c-3.8-1.5-6.6-3.9-6.6-7.6
				c0-4.2,3.3-7.3,8.3-7.3c2.5,0,4.3,0.6,5.3,1.2l-0.9,2.8c-0.8-0.5-2.4-1.2-4.5-1.2c-3.4,0-4.8,2.1-4.8,4c0,2.6,1.6,3.8,5,5.3
				c4.2,2,6.2,4.3,6.2,8c0,4.3-3.1,7.7-8.9,7.7c-2.4,0-4.9-0.7-6.2-1.6L126,151.2z"/>
			<path class="st0" d="M144.7,128.5c1.5-0.3,3.6-0.6,5.8-0.6c3.2,0,5.4,0.6,7,1.9c1.3,1.1,2.1,2.7,2.1,4.8c0,2.7-1.7,4.9-4.5,6v0.1
				c2.8,0.7,5.4,2.9,5.4,6.8c0,2.3-0.8,4.1-2.2,5.4c-1.8,1.8-4.6,2.5-8.7,2.5c-2.3,0-3.9-0.2-5-0.3V128.5z M148,139.7h2.7
				c3.3,0,5.5-2,5.5-4.7c0-2.9-2-4.4-5.5-4.4c-1.4,0-2.2,0.1-2.7,0.2V139.7z M148,152.7c0.6,0.1,1.4,0.2,2.5,0.2
				c3.5,0,6.5-1.5,6.5-5.3c0-3.7-3-5.3-6.6-5.3H148V152.7z"/>
			<path class="st0" d="M177.7,142.5h-9.4v9.9h10.5v2.9h-13.9v-27.1h13.4v2.9h-10v8.7h9.4V142.5z"/>
			<path class="st0" d="M183,128.5c1.6-0.4,3.9-0.6,6.1-0.6c3.4,0,5.8,0.7,7.3,2.1c1.3,1.2,2.1,3.1,2.1,5.2c0,3.5-2.1,5.9-4.9,7v0.1
				c2.1,0.7,3.2,2.6,3.9,5.7c0.8,3.8,1.4,6.3,1.9,7.3h-3.5c-0.4-0.8-1-3.2-1.7-6.6c-0.8-3.7-2.1-5.1-5.1-5.2h-2.7v11.8H183V128.5z
				 M186.4,140.9h2.9c3.5,0,5.8-2.1,5.8-5.2c0-3.4-2.2-5.1-5.8-5.1c-1.4,0-2.4,0.1-2.9,0.3V140.9z"/>
			<path class="st0" d="M221.6,154.2c-1.4,0.6-4.2,1.3-7.3,1.3c-3.6,0-6.6-0.9-9-3.3c-2.2-2.2-3.6-5.8-3.6-10.3
				c0-8.8,5.5-14.1,13.3-14.1c2.7,0,4.8,0.6,5.9,1.1l-0.8,2.8c-1.2-0.6-2.8-1-5.1-1c-5.6,0-9.7,3.7-9.7,11c0,7.3,3.8,11,9.3,11
				c1.9,0,3.2-0.3,3.8-0.6v-8.3h-4.9v-2.7h8.2V154.2z"/>
		</g>
	</g>
</g>
</svg>
